<svg width="31" height="27" viewBox="0 0 31 27" fill="none" xmlns="http://www.w3.org/2000/svg">
<path d="M3.80175 14.8168L3.80173 14.8168L3.8059 14.8208L14.3007 24.9704C15.1782 25.8191 16.5708 25.8186 17.4479 24.9697L27.943 14.8127L27.943 14.8127L27.946 14.8097C29.4537 13.3258 30.3894 11.2876 30.3894 9.03177C30.3894 4.45597 26.5541 0.770508 21.8641 0.770508C20.0504 0.770508 18.3833 1.4106 17.0202 2.37935C16.3523 2.85406 15.3965 2.85406 14.7285 2.37935C13.3655 1.4106 11.6983 0.770508 9.88463 0.770508C5.19464 0.770508 1.35938 4.45597 1.35938 9.03177C1.35938 11.2878 2.29513 13.3254 3.80175 14.8168Z" fill="white" stroke="#617798" stroke-miterlimit="10"/>
</svg>
