<svg width="32" height="32" viewBox="0 0 32 32" fill="none" xmlns="http://www.w3.org/2000/svg">
    <path d="M0.25 1C0.25 0.585787 0.585786 0.25 1 0.25H23.5858C23.7847 0.25 23.9755 0.329018 24.1161 0.46967L31.5303 7.88388C31.671 8.02454 31.75 8.2153 31.75 8.41421V31C31.75 31.4142 31.4142 31.75 31 31.75H1C0.585786 31.75 0.25 31.4142 0.25 31V1Z" fill="#31B5FF" fill-opacity="0.1" stroke="#31B5FF" stroke-width="0.5"/>
    <g opacity="0.8">
        <path d="M11.2 10H15.4V15.4H10V11.2L11.2 10Z" fill="#31B5FF"/>
        <path d="M10 20.8V16.6H15.4V22H11.2L10 20.8Z" fill="#31B5FF"/>
        <path d="M20.8 10H16.6V15.4H22V11.2L20.8 10Z" fill="#31B5FF"/>
        <path d="M22 20.8V16.6H16.6V22H20.8L22 20.8Z" fill="#31B5FF"/>
    </g>
</svg>
