<svg width="45" height="46" viewBox="0 0 45 46" fill="none" xmlns="http://www.w3.org/2000/svg">
<path d="M30.1311 21.0312V32.2815H14.4785V21.0312" stroke="#C68C43" stroke-miterlimit="10"/>
<path d="M14.4772 17.1211H30.1298C30.519 17.1211 30.8922 17.2757 31.1674 17.5509C31.4426 17.8261 31.5972 18.1993 31.5972 18.5885V21.0342H13.0098V18.5885C13.0098 18.1993 13.1644 17.8261 13.4396 17.5509C13.7148 17.2757 14.088 17.1211 14.4772 17.1211V17.1211Z" stroke="#C68C43" stroke-miterlimit="10"/>
<path d="M22.3027 21.0312H22.3029V32.2815H22.3027V21.0312Z" stroke="#C68C43" stroke-miterlimit="10"/>
<path d="M17.3643 17.1219L16.8446 16.3026C16.5906 15.9011 16.4491 15.4389 16.4348 14.9641C16.4205 14.4893 16.5339 14.0194 16.7631 13.6034C16.9923 13.1874 17.3291 12.8405 17.7381 12.599C18.1471 12.3575 18.6135 12.2302 19.0885 12.2305C21.2652 12.2305 22.3046 14.4255 22.3046 16.1436V17.1219" stroke="#C68C43" stroke-miterlimit="10"/>
<path d="M27.2431 17.1219L27.7628 16.3026C28.0167 15.9011 28.1582 15.4389 28.1726 14.9641C28.1869 14.4893 28.0735 14.0194 27.8443 13.6034C27.615 13.1874 27.2783 12.8405 26.8693 12.599C26.4602 12.3575 25.9939 12.2302 25.5189 12.2305C23.3422 12.2305 22.3027 14.4255 22.3027 16.1436V17.1219" stroke="#C68C43" stroke-miterlimit="10"/>
</svg>
