<svg width="32" height="32" viewBox="0 0 32 32" fill="none" xmlns="http://www.w3.org/2000/svg">
    <path d="M0.25 1C0.25 0.585787 0.585786 0.25 1 0.25H23.5858C23.7847 0.25 23.9755 0.329018 24.1161 0.46967L31.5303 7.88388C31.671 8.02454 31.75 8.2153 31.75 8.41421V31C31.75 31.4142 31.4142 31.75 31 31.75H1C0.585786 31.75 0.25 31.4142 0.25 31V1Z" fill="#FFFF02" fill-opacity="0.1" stroke="#FFFF02" stroke-width="0.5"/>
    <g opacity="0.8">
        <g clipPath="url(#clip0_296_124730)">
            <path d="M20.8125 9L20.0824 10.4574L18.625 11.1875L20.0824 11.9176L20.8125 13.375L21.5426 11.9176L23 11.1875L21.5426 10.4574L20.8125 9ZM17.9305 11.882L17.3125 11.2613L16.6945 11.8793L16.6152 11.9586C16.0137 11.7426 15.3629 11.625 14.6875 11.625C11.5457 11.625 9 14.1707 9 17.3125C9 20.4543 11.5457 23 14.6875 23C17.8293 23 20.375 20.4543 20.375 17.3125C20.375 16.6371 20.2574 15.9863 20.0414 15.3848L20.1207 15.3055L20.7387 14.6875L20.1207 14.0695L17.9332 11.882H17.9305ZM14.4688 14.25C12.8992 14.25 11.625 15.5242 11.625 17.0938V17.3125H10.75V17.0938C10.75 15.0402 12.4152 13.375 14.4688 13.375H14.6875V14.25H14.4688Z" fill="#FFFF02"/>
        </g>
    </g>
    <defs>
        <clipPath id="clip0_296_124730">
            <rect width="14" height="14" fill="white" transform="translate(9 9)"/>
        </clipPath>
    </defs>
</svg>
