<svg width="18" height="18" viewBox="0 0 18 18" fill="none" xmlns="http://www.w3.org/2000/svg">
    <g clip-path="url(#clip0_2213_28271)">
        <path d="M15.1875 0L14.2488 1.87383L12.375 2.8125L14.2488 3.75117L15.1875 5.625L16.1262 3.75117L18 2.8125L16.1262 1.87383L15.1875 0ZM11.482 3.70547L10.6875 2.90742L9.89297 3.70195L9.79102 3.80391C9.01758 3.52617 8.18086 3.375 7.3125 3.375C3.27305 3.375 0 6.64805 0 10.6875C0 14.727 3.27305 18 7.3125 18C11.352 18 14.625 14.727 14.625 10.6875C14.625 9.81914 14.4738 8.98242 14.1961 8.20898L14.298 8.10703L15.0926 7.3125L14.298 6.51797L11.4855 3.70547H11.482ZM7.03125 6.75C5.01328 6.75 3.375 8.38828 3.375 10.4062V10.6875H2.25V10.4062C2.25 7.76602 4.39102 5.625 7.03125 5.625H7.3125V6.75H7.03125Z" fill="#615F77"/>
    </g>
    <defs>
        <clipPath id="clip0_2213_28271">
            <rect width="18" height="18" fill="white"/>
        </clipPath>
    </defs>
</svg>
