<svg width="230" height="230" viewBox="0 0 230 230" fill="none" xmlns="http://www.w3.org/2000/svg">
    <mask id="mask0_2216_12547" style="mask-type:alpha" maskUnits="userSpaceOnUse" x="0" y="0" width="230" height="230">
        <rect x="0.5" y="0.5" width="229" height="229" rx="9.5" fill="#D9D9D9" stroke="url(#paint0_linear_2216_12547)"/>
    </mask>
    <g mask="url(#mask0_2216_12547)">
        <rect x="-42.5" y="-2.5" width="314" height="235" rx="9.5" fill="url(#paint1_radial_2216_12547)" stroke="url(#paint2_linear_2216_12547)"/>
    </g>
    <path d="M88.1941 112.47C88.8286 111.185 89.2333 109.799 89.39 108.374C89.4948 107.425 89.485 106.467 89.3607 105.52C89.2354 104.579 89.0037 103.655 88.67 102.765C88.0103 100.993 86.5467 98.8066 85.8048 97.9917C85.0629 97.1768 84.6207 96.8109 83.8141 96.3317C83.8914 96.3686 85.5547 96.8218 86.6449 97.5225C87.6981 98.199 88.9545 99.1171 88.9545 99.1171L87.9373 97.3035C87.9138 97.2196 87.8962 97.1659 87.8752 97.1004L87.8131 96.9133C87.7711 96.7899 87.7292 96.669 87.683 96.5482C87.5929 96.3071 87.4984 96.0693 87.3994 95.8348C87.2021 95.3649 86.9865 94.905 86.7573 94.4526C86.2979 93.5492 85.778 92.6778 85.2014 91.8443C84.0508 90.1751 82.6739 88.6739 81.1101 87.3838C79.5449 86.1019 77.8022 85.0537 75.9363 84.2719C75.0082 83.8844 74.0549 83.5606 73.0829 83.3026C72.1138 83.0473 71.13 82.8511 70.1371 82.7151C68.1574 82.4348 64.7526 82.2376 61.9412 83.0181C59.1297 83.7985 57.9128 84.4775 56.2612 85.5626C55.4392 86.1076 54.6466 86.6959 53.887 87.325C53.1247 87.9472 52.4078 88.6231 51.742 89.3476C52.0886 89.0001 52.4561 88.6762 52.833 88.3589C53.2098 88.0417 53.5883 87.7379 53.9836 87.4442C54.7659 86.8582 55.5783 86.3133 56.4173 85.8119C58.0958 84.8048 59.6501 84.2433 61.5459 83.9085C63.4417 83.5736 64.9993 83.4049 67.413 83.4981C69.955 83.5996 72.3334 84.1519 72.8059 84.2912C73.7241 84.5646 74.6234 84.8976 75.4982 85.2882C77.2406 86.07 78.8611 87.0992 80.3095 88.3438C81.7532 89.5878 83.0172 91.0263 84.0651 92.6181C84.589 93.4115 85.0609 94.2382 85.4775 95.093C85.5928 95.3307 85.7033 95.5702 85.809 95.8113C85.6319 95.7216 84.0172 94.8974 82.0753 94.7464C80.1333 94.5953 78.8467 94.6943 78.8467 94.6943C78.8467 94.6943 82.4269 96.9888 83.8141 98.2493C85.2014 99.5099 86.4997 101.804 87.0603 103.357C87.9225 105.678 87.9306 108.23 87.083 110.556C86.9436 110.938 86.7825 111.313 86.6004 111.677C86.5089 111.858 86.4124 112.035 86.3117 112.207C86.2614 112.291 86.2093 112.375 86.1573 112.459L86.0784 112.578L86.0398 112.634L86.0104 112.675L85.7217 113.076L85.8845 113.524C86.2727 114.589 86.5953 115.677 86.8505 116.781C87.103 117.882 87.2763 118.999 87.3691 120.125C87.5527 122.373 87.3971 124.637 86.9076 126.839C86.4109 129.045 85.6018 131.169 84.5048 133.147C83.9904 134.079 82.6048 136.284 81.9796 137.146L82.2448 133.846C82.2448 133.846 79.926 136.284 78.7267 137.474C77.5274 138.664 76.6605 139.468 75.5947 140.416C74.5289 141.363 73.4127 142.262 72.2587 143.089C71.6813 143.508 71.093 143.904 70.4963 144.28C70.1976 144.469 69.8946 144.651 69.59 144.826C69.4381 144.91 69.2845 144.999 69.1317 145.078L68.9966 145.15L68.8573 145.079C68.697 144.996 68.5376 144.912 68.3781 144.828C68.06 144.66 67.7428 144.478 67.4281 144.295C66.8003 143.928 66.1818 143.543 65.5725 143.139C64.3535 142.333 63.1769 141.465 62.0478 140.538C60.9174 139.612 59.8385 138.625 58.8159 137.581C57.7987 136.533 55.6989 134.18 55.6989 134.18L55.7501 137.369C55.5073 137.09 55.2707 136.804 55.0401 136.513C54.3597 135.652 53.7319 134.751 53.1603 133.814C50.8563 130.021 49.5204 125.721 49.2704 121.291C49.207 120.181 49.207 119.068 49.2704 117.959C49.3353 116.846 49.4569 115.737 49.6346 114.637C49.3951 115.729 49.2166 116.833 49.1 117.945C48.4782 123.589 49.6502 129.286 52.4494 134.226C53.0037 135.216 53.6204 136.169 54.2957 137.08C54.6354 137.535 54.9909 137.98 55.3624 138.413C55.5487 138.629 55.7398 138.842 55.9356 139.051C56.033 139.156 56.1328 139.26 56.2352 139.363C56.3384 139.468 56.4358 139.564 56.5558 139.674L57.8986 140.908C57.8986 140.908 57.4974 139.817 57.3245 139.061C57.2198 138.627 57.1934 138.177 57.2465 137.733C57.5872 138.131 57.5394 138.068 57.8969 138.449C58.9296 139.551 60.0223 140.596 61.1699 141.579C61.744 142.07 62.3272 142.548 62.9273 143.006C63.5273 143.463 64.1375 143.909 64.761 144.336C65.3846 144.763 66.0199 145.175 66.6661 145.569C66.9909 145.765 67.3173 145.957 67.6496 146.144C67.8175 146.237 67.9853 146.329 68.1532 146.419L68.405 146.553C68.4889 146.598 68.5728 146.637 68.6735 146.688L68.9916 146.844L69.3139 146.691L69.4557 146.624L69.5866 146.56L69.8384 146.43C70.0062 146.346 70.1741 146.253 70.3352 146.161C70.6631 145.979 70.9856 145.791 71.3028 145.596C71.939 145.21 72.5617 144.801 73.1659 144.376C74.3778 143.526 75.5461 142.616 76.6664 141.649C77.7854 140.681 78.8576 139.666 79.8832 138.603C80.0812 138.398 80.2771 138.191 80.4706 137.982C80.401 138.516 80.3021 139.046 80.1744 139.57C79.9663 140.415 79.5198 141.843 79.5198 141.843L81.6733 139.829L81.7698 139.739L81.8537 139.655L82.0215 139.487C82.1315 139.376 82.2372 139.265 82.343 139.151C82.5528 138.927 82.7573 138.7 82.9565 138.47C83.3542 138.011 83.7341 137.537 84.0961 137.051C84.8219 136.08 85.4808 135.061 86.0683 134.001C87.2545 131.881 88.1325 129.603 88.6758 127.236C89.21 124.856 89.377 122.408 89.171 119.977C88.9719 117.709 88.4834 115.476 87.7174 113.332C87.7636 113.257 87.8097 113.183 87.8534 113.108C87.9751 112.896 88.0875 112.684 88.1941 112.47Z" fill="#C68C43"/>
    <path d="M89.7299 105.68C89.604 104.736 89.4311 103.529 89.0979 102.645C88.4383 100.873 87.8743 99.6508 87.1316 98.8359C86.3889 98.021 85.365 97.1062 84.5585 96.6304C84.6357 96.6673 86.0851 97.3513 87.1753 98.0521C88.2277 98.7285 89.4555 99.5341 89.4555 99.5341C89.4555 99.5341 88.6867 95.1877 86.968 92.2848C85.3684 89.5842 82.9673 87.5566 81.429 86.4521C79.8907 85.3477 77.5794 84.0284 75.1767 83.2479C72.774 82.4675 71.0628 82.2325 68.9345 82.0571C66.8062 81.8817 63.9436 82.0982 61.1296 82.8787C58.3157 83.6592 57.0576 84.6067 55.9364 85.4249C54.8152 86.2432 54.4971 86.672 53.7385 87.2998C52.9798 87.9275 52.3957 88.6165 51.7344 89.3458C52.081 88.9984 52.4486 88.6744 52.8254 88.3572C53.2022 88.04 53.5807 87.7362 53.976 87.4424C54.7583 86.8564 55.5707 86.3116 56.4098 85.8101C58.0882 84.8031 59.6425 84.2416 61.5383 83.9067C63.4341 83.5719 64.9918 83.4032 67.4054 83.4964C69.9474 83.5979 72.3258 84.1501 72.7983 84.2894C73.7165 84.5628 74.6158 84.8959 75.4906 85.2865C77.233 86.0683 78.8535 87.0974 80.3019 88.3421C81.7457 89.5861 83.0096 91.0246 84.0575 92.6163C84.5821 93.41 85.0544 94.237 85.4716 95.0921C85.5869 95.3299 85.6974 95.5693 85.8031 95.8105C85.626 95.7207 84.0113 94.8965 82.0694 94.7455C80.1274 94.5944 78.8408 94.6934 78.8408 94.6934C78.8408 94.6934 82.421 96.9879 83.8083 98.2484C85.1955 99.509 86.4938 101.803 87.0544 103.356C87.9166 105.677 87.9247 108.229 87.0771 110.555C86.9377 110.938 86.7766 111.312 86.5945 111.676C86.503 111.857 86.4065 112.035 86.3058 112.207C86.2555 112.291 86.2034 112.374 86.1514 112.458L86.0725 112.578L86.0339 112.633L86.0045 112.674L85.7158 113.075V113.082C86.3841 113.197 87.0597 113.265 87.7375 113.283C87.7736 113.225 88.1194 112.818 88.2251 112.604C88.4405 112.197 88.6311 111.776 88.7958 111.346C89.1164 110.45 89.3581 109.681 89.526 108.798C89.6938 107.916 89.8541 106.624 89.7299 105.68Z" fill="#C18139"/>
    <path d="M76.1486 120.611C74.7294 121.69 73.0921 121.949 73.0921 121.949C74.2502 121.11 76.4876 118.752 75.1902 116.195C73.8927 113.638 68.937 111.98 68.937 111.98C68.937 111.98 63.9855 113.639 62.6847 116.195C61.3839 118.751 63.6238 121.11 64.7828 121.949C64.7828 121.949 63.1446 121.689 61.7263 120.61C61.7263 120.61 58.251 123.647 57.8516 127.163C57.8516 127.163 61.0272 124.826 68.9379 124.826C76.8485 124.826 80.025 127.163 80.025 127.163C79.6247 123.648 76.1486 120.611 76.1486 120.611ZM69.5186 120.591L68.9387 121.55L68.3596 120.591C64.6242 120.312 63.9452 117.535 63.9452 117.535L65.8025 116.456L65.2989 115.577L68.9345 117.775L72.5751 115.577L72.0716 116.456L73.9288 117.535C73.9288 117.535 73.2515 120.312 69.5161 120.591H69.5186Z" fill="white"/>
    <path d="M79.1653 102.31C79.1653 102.31 82.4384 102.689 83.9993 104.268C83.9993 104.268 81.5823 99.7529 76.468 99.7529C71.3537 99.7529 68.9367 102.53 68.9367 102.53C68.9367 102.53 66.5197 99.7529 61.4063 99.7529C56.2928 99.7529 53.875 104.268 53.875 104.268C55.4326 102.689 58.709 102.31 58.709 102.31C56.1124 103.071 54.1125 106.171 54.1343 109.883C54.1561 113.596 55.5929 116.256 57.0112 116.597C58.4295 116.939 59.1882 115.578 61.3064 113.576C63.4247 111.574 65.5806 111.259 65.5806 111.259C63.444 110.3 62.0248 110.859 60.6065 111.318C59.1882 111.777 58.0301 111.938 57.211 110.28C56.3919 108.623 57.9503 106.804 57.9503 106.804C57.0708 106.944 56.2324 107.643 56.2324 107.643C57.0314 105.745 58.0502 105.226 59.7077 105.166C61.3652 105.106 62.1255 105.545 63.8627 106.525C65.5999 107.504 67.119 108.642 68.0186 107.903C68.9183 107.163 67.5789 104.667 67.5789 104.667C68.5574 105.306 68.9367 106.644 68.9367 106.644C68.9367 106.644 69.3169 105.306 70.2955 104.667C70.2955 104.667 68.9527 107.163 69.8557 107.903C70.7587 108.642 72.2735 107.503 74.0116 106.525C75.7497 105.546 76.5083 105.106 78.1666 105.166C79.825 105.226 80.843 105.751 81.6394 107.646C81.6394 107.646 80.8002 106.947 79.9215 106.807C79.9215 106.807 81.4799 108.624 80.6609 110.283C79.8418 111.941 78.6836 111.781 77.2653 111.321C75.847 110.861 74.4279 110.302 72.2903 111.261C72.2903 111.261 74.448 111.581 76.5654 113.578C78.6828 115.576 79.4423 116.935 80.8606 116.6C82.2789 116.264 83.714 113.603 83.7375 109.886C83.761 106.169 81.7619 103.071 79.1653 102.31Z" fill="white"/>
    <path d="M76.4707 99.7559C71.3572 99.7559 68.9394 102.533 68.9394 102.533C68.9394 102.533 66.5224 99.7559 61.4089 99.7559C57.6022 99.7559 55.2909 102.257 54.3594 103.532C56.35 101.593 61.6683 97.8928 68.9419 104.247C76.2164 97.8928 81.5346 101.593 83.5253 103.532C82.5887 102.257 80.2775 99.7559 76.4707 99.7559Z" fill="#C4C4C4"/>
    <path d="M60.6061 111.32C59.1878 111.78 58.0297 111.94 57.2106 110.282C56.3915 108.625 57.9499 106.806 57.9499 106.806C57.245 106.918 56.5677 107.389 56.326 107.572C55.6118 108.762 55.1192 110.92 56.7977 114.468C56.7977 114.468 55.36 114.044 54.2422 111.566C54.6073 114.383 55.8141 116.309 57.0117 116.595C58.43 116.931 59.1886 115.576 61.3069 113.574C63.4251 111.571 65.5811 111.257 65.5811 111.257C63.4436 110.302 62.0244 110.861 60.6061 111.32Z" fill="#C4C4C4"/>
    <path d="M81.0389 114.468C82.7367 110.879 82.2139 108.712 81.4896 107.53C81.2101 107.326 80.5765 106.91 79.9202 106.806C79.9202 106.806 81.4787 108.624 80.6596 110.282C79.8405 111.941 78.6824 111.78 77.264 111.32C75.8457 110.86 74.4266 110.302 72.2891 111.261C72.2891 111.261 74.4467 111.581 76.5641 113.578C78.6815 115.575 79.441 116.935 80.8593 116.599C82.0653 116.31 83.2856 114.345 83.6364 111.48C82.5118 114.034 81.0389 114.468 81.0389 114.468Z" fill="#C4C4C4"/>
    <path d="M80.0191 127.12C78.7435 126.143 75.4914 124.129 70.0968 123.906C62.9356 123.606 62.276 124.774 61.467 123.756C60.658 122.737 64.7828 121.947 64.7828 121.947C64.7828 121.947 63.1446 121.687 61.7263 120.608C61.7263 120.608 58.251 123.645 57.8516 127.161C57.8516 127.161 61.0272 124.824 68.9379 124.824C76.8485 124.824 80.025 127.161 80.025 127.161C80.0242 127.15 80.0208 127.134 80.0191 127.12Z" fill="#C4C4C4"/>
    <path d="M87.7122 113.329C87.7122 113.329 88.6354 117.251 88.5859 121.075C88.5364 124.9 87.2683 128.757 87.2683 128.757C87.1969 129.009 87.1122 129.248 87.035 129.494L86.9158 129.861C86.8747 129.983 86.8319 130.104 86.7849 130.225C86.6951 130.467 86.6112 130.71 86.5163 130.951C86.1397 131.917 85.7018 132.858 85.2054 133.768L85.1123 133.936L85.0141 134.104L84.816 134.439C84.7506 134.552 84.6776 134.662 84.6087 134.775C84.5399 134.888 84.4703 134.997 84.3947 135.106L84.1723 135.434L83.939 135.757C83.8551 135.863 83.7762 135.97 83.6873 136.077C83.5983 136.185 83.5194 136.282 83.4036 136.413L80.917 139.289C81.0512 138.748 81.1518 138.199 81.2182 137.646C81.324 136.787 81.3634 136.202 81.4264 135.764C81.2938 136.025 80.7248 136.656 78.703 138.755C76.798 140.733 74.4229 142.598 73.6089 143.168C71.4923 144.654 68.9797 145.974 68.9797 145.974C67.4554 145.221 65.9821 144.367 64.5695 143.421C62.4966 142.016 60.4237 140.189 59.4132 139.197C57.3202 137.142 56.4373 135.982 56.4373 135.982C56.4218 136.503 56.4386 137.026 56.4877 137.545C56.5716 138.426 56.6958 139.063 56.6958 139.063L55.4025 137.66C54.0875 136.071 52.9416 134.349 51.9835 132.522C51.5087 131.608 51.0861 130.669 50.7179 129.708L50.5786 129.348C50.5308 129.229 50.4947 129.106 50.4502 128.985L50.1984 128.255C50.0516 127.763 49.8963 127.273 49.7788 126.774C49.2709 124.787 48.9955 122.748 48.958 120.698C48.9522 120.371 49.1779 117.094 49.2333 116.807C49.0462 117.751 48.8187 120.43 48.8238 120.958C48.838 121.852 48.7063 124.605 49.2895 127.162C49.8728 129.719 51.4069 133.588 52.743 135.782C54.0791 137.976 58.0109 141.203 58.0109 141.203C58.0109 141.203 57.6752 140.189 57.5485 139.422C57.4217 138.655 57.384 138.267 57.384 138.267C57.7197 138.664 58.9013 140.578 61.6246 142.785C64.3479 144.991 68.9772 147.591 68.9772 147.591C68.9772 147.591 72.8981 145.254 75.6306 143.155C78.3632 141.056 79.8931 138.803 80.0878 138.595C79.9959 139.267 79.8647 139.933 79.695 140.59C79.4575 141.423 79.2444 142.08 79.2444 142.08C79.2444 142.08 82.2773 139.777 83.5245 138.226C84.7716 136.675 86.0187 134.881 86.6044 133.821C87.7794 131.701 88.3626 130.189 88.8947 127.813C89.4268 125.438 89.7197 122.526 89.5233 120.102C89.2136 116.227 87.7122 113.329 87.7122 113.329Z" fill="#996837"/>
    <path d="M89.1903 105.622C89.0644 104.678 88.5558 103.303 88.2235 102.419C87.5638 100.647 86.1833 98.7628 85.0419 97.6659C83.9006 96.569 81.6313 95.4 81.6313 95.4C81.6313 95.4 83.4776 95.64 84.8464 96.0621C85.7048 96.3341 86.5273 96.7085 87.2961 97.1775C87.2961 97.1775 86.169 93.9472 84.8732 92.1186C83.5775 90.2899 82.0568 88.9026 80.4924 87.6219C78.9281 86.3413 77.0633 85.1655 75.3362 84.4849C73.609 83.8043 71.5512 83.153 67.6068 82.9986C65.9997 82.9348 64.2499 82.9147 61.7951 83.4635C59.3404 84.0124 58.1621 84.5403 56.2142 85.7756C54.2663 87.011 52.0424 89.0033 51.7344 89.3449C51.8681 89.2112 52.0046 89.0808 52.1439 88.9538C52.4847 88.6324 54.0196 87.2753 56.3141 85.9183C58.4961 84.6292 60.4633 83.8756 64.4429 83.5936C68.4226 83.3116 72.0548 83.9293 74.0983 84.7199C78.386 86.3883 81.9032 89.8535 82.7466 90.8412C84.4889 92.8814 85.7603 95.786 85.7603 95.786C85.2811 95.5275 84.603 95.0743 82.5981 94.8007C81.3527 94.6362 80.0937 94.5994 78.8408 94.6908C78.8408 94.6908 81.9141 96.6068 83.6446 98.1199C85.3751 99.6331 86.5198 102.085 86.7036 102.496C86.8916 102.923 87.9188 105.417 87.6713 107.852C87.4119 110.4 85.8686 112.887 85.7158 113.073L85.7209 113.088C85.7589 113.094 85.7961 113.105 85.8317 113.12C85.9814 113.183 86.1368 113.231 86.2957 113.265C86.3662 113.276 86.4359 113.285 86.5064 113.292C86.9067 113.335 87.3146 113.292 87.7132 113.333V113.329C87.7594 113.254 87.8055 113.179 87.8492 113.104C87.9709 112.895 88.0833 112.685 88.1899 112.468C88.401 112.041 88.5871 111.601 88.7472 111.152C89.0661 110.254 89.145 109.382 89.2507 108.433C89.3452 107.497 89.3249 106.553 89.1903 105.622Z" fill="url(#paint4_linear_2216_12547)"/>
    <path fill-rule="evenodd" clip-rule="evenodd" d="M142.034 114.244L141.269 114.87L141.271 114.9C141.327 114.894 141.383 114.885 141.438 114.872C142.156 114.672 142.874 114.459 143.566 114.084C143.926 113.887 144.276 113.661 144.627 113.434L144.628 113.434L144.628 113.434C144.726 113.37 144.823 113.307 144.921 113.245C145.038 113.171 145.155 113.096 145.272 113.022V116.176C144.992 116.34 144.713 116.51 144.44 116.693C144.221 116.84 144.004 116.993 143.788 117.147C143.763 117.164 143.739 117.182 143.714 117.199H140.524V97.8757H145.272V111.057C145.003 111.272 144.75 111.506 144.516 111.759C144.201 112.098 143.891 112.447 143.581 112.795C143.478 112.911 143.375 113.028 143.271 113.143C143.05 113.408 142.782 113.63 142.48 113.798C142.303 113.888 142.129 113.989 141.955 114.089L141.954 114.089L141.954 114.089L141.954 114.089C141.886 114.129 141.817 114.168 141.749 114.207C141.724 114.223 141.701 114.242 141.679 114.263L141.684 114.299L142.02 114.202L142.034 114.244ZM147.282 111.72V114.948C147.565 114.759 147.847 114.567 148.128 114.374C148.477 114.136 148.826 113.898 149.177 113.667C150.058 113.093 150.856 112.383 151.623 111.597C151.758 111.46 151.894 111.323 152.03 111.188V108.143C151.727 108.36 151.424 108.577 151.122 108.794C150.944 108.919 150.802 109.088 150.709 109.284C150.621 109.468 150.475 109.619 150.294 109.714C150.229 109.749 150.165 109.785 150.1 109.82C149.602 110.089 149.103 110.359 148.632 110.716C148.53 110.794 148.427 110.872 148.324 110.951L148.324 110.951C147.979 111.214 147.634 111.476 147.282 111.72ZM152.03 105.271C151.873 105.344 151.714 105.412 151.554 105.474C151.292 105.57 151.062 105.736 150.889 105.954C150.357 106.634 149.765 107.263 149.119 107.835C148.67 108.231 148.227 108.639 147.785 109.048L147.785 109.048L147.784 109.049C147.656 109.166 147.528 109.284 147.4 109.402C147.361 109.438 147.322 109.475 147.282 109.511V97.8757H152.03V105.271ZM157.53 102.9V106.778C157.539 106.77 157.548 106.763 157.558 106.755L157.674 106.675C157.676 106.691 157.676 106.708 157.674 106.725C157.661 106.759 157.647 106.794 157.633 106.829L157.633 106.829L157.633 106.829L157.633 106.829C157.623 106.853 157.613 106.877 157.604 106.902C157.664 106.901 157.724 106.89 157.781 106.868L157.87 106.814L157.87 106.813C158.08 106.686 158.291 106.557 158.491 106.407C159.313 105.79 160.119 105.141 160.899 104.432C161.263 104.102 161.649 103.811 162.036 103.519C162.116 103.459 162.197 103.398 162.277 103.337V97.8757H161.724C160.773 99.1108 159.777 100.292 158.776 101.476C158.656 101.62 158.548 101.752 158.509 101.96C158.459 102.169 158.328 102.349 158.146 102.463C157.947 102.617 157.741 102.763 157.53 102.9ZM161.528 97.8757C161.215 98.2018 160.904 98.5287 160.596 98.8604C159.873 99.6353 159.053 100.312 158.155 100.875C157.947 101.006 157.738 101.139 157.53 101.271V97.8757H161.528ZM162.277 104.954C162.035 105.37 161.743 105.738 161.44 106.12C161.378 106.198 161.315 106.277 161.253 106.356L161.248 106.33L161.243 106.301C161.232 106.245 161.224 106.201 161.211 106.158C161.166 106.015 161.127 106.007 161.019 106.123C160.935 106.21 160.856 106.303 160.784 106.399C160.184 107.228 159.47 107.885 158.725 108.497C158.479 108.696 158.245 108.9 158.007 109.107L157.99 109.123C157.923 109.188 157.86 109.257 157.802 109.33L157.81 109.388C157.837 109.384 157.865 109.383 157.894 109.382C157.953 109.38 158.014 109.378 158.066 109.349C158.289 109.225 158.509 109.089 158.729 108.953L158.73 108.953L158.73 108.953L158.731 108.952C158.791 108.915 158.851 108.878 158.91 108.841C158.926 108.832 158.94 108.821 158.954 108.81C158.983 108.787 159.012 108.764 159.047 108.757C158.655 109.1 158.249 109.415 157.844 109.73L157.844 109.73C157.739 109.811 157.634 109.893 157.53 109.974V112.747C157.623 112.632 157.714 112.515 157.802 112.396C158.48 111.481 159.32 110.699 160.28 110.089C160.56 109.908 160.831 109.701 161.102 109.496L161.102 109.496L161.176 109.44C161.585 109.129 161.937 108.731 162.277 108.318V104.954ZM162.277 109.535C161.879 110.222 161.392 110.823 160.874 111.395C160.552 111.751 160.237 112.118 159.923 112.484L159.923 112.484L159.923 112.484L159.923 112.484C159.802 112.625 159.681 112.766 159.56 112.906C159.519 112.966 159.484 113.031 159.455 113.099L159.491 113.134L161.298 111.52L161.322 111.545C161.304 111.581 161.283 111.615 161.259 111.647C160.191 112.835 159.096 113.988 157.851 114.871C157.745 114.947 157.638 115.022 157.53 115.095V117.199H159.019C159.042 117.18 159.064 117.16 159.087 117.141C159.191 117.05 159.289 116.95 159.387 116.85L159.387 116.85L159.387 116.85L159.387 116.85C159.427 116.809 159.467 116.769 159.506 116.729L159.494 116.697L158.843 117.101L158.822 117.043L158.854 117.012C158.876 116.991 158.897 116.97 158.92 116.95L162.403 113.803C162.444 113.766 162.485 113.728 162.526 113.691C162.663 113.566 162.8 113.441 162.943 113.329C163.234 113.096 163.514 112.85 163.781 112.592H162.277V109.535ZM165.001 112.592C164.919 112.702 164.837 112.813 164.755 112.924L164.754 112.925L164.464 113.316C164.435 113.362 164.41 113.411 164.39 113.461L164.421 113.486L165.202 112.592H165.001ZM165.447 112.592C164.898 113.359 164.289 114.081 163.625 114.752C163.036 115.359 162.449 115.968 161.863 116.58C161.836 116.608 161.812 116.639 161.787 116.671L161.787 116.671C161.784 116.675 161.78 116.68 161.776 116.685C161.77 116.692 161.765 116.7 161.759 116.707L161.783 116.753L163.876 115.41L163.889 115.433C163.883 115.439 163.878 115.445 163.873 115.451L163.859 115.468L163.859 115.468C163.841 115.489 163.824 115.509 163.805 115.528C163.586 115.738 163.367 115.948 163.147 116.158L163.146 116.16L163.145 116.161L163.145 116.161L163.145 116.161L163.144 116.161L163.144 116.161C162.784 116.507 162.424 116.852 162.064 117.199H166.718V112.592H165.447ZM156.469 113.855V112.592H153.967C153.576 112.826 153.194 113.091 152.817 113.365C152.733 113.424 152.653 113.479 152.571 113.533C152.562 113.542 152.553 113.553 152.547 113.564L152.684 113.617C152.652 113.641 152.618 113.664 152.583 113.685C152.113 113.908 151.638 114.065 151.157 114.063C150.977 114.071 150.806 114.147 150.681 114.277C150.511 114.429 150.35 114.59 150.198 114.76C149.77 115.246 149.287 115.679 148.757 116.051C148.533 116.214 148.31 116.38 148.088 116.545L148.088 116.545L148.087 116.545L148.087 116.545L148.087 116.545C147.852 116.72 147.616 116.895 147.379 117.068C147.347 117.09 147.315 117.111 147.282 117.132V117.199H152.411C152.763 116.934 153.109 116.66 153.447 116.377C154.342 115.617 155.243 114.867 156.148 114.128C156.257 114.039 156.364 113.948 156.469 113.855ZM154.215 117.199C154.365 117.085 154.521 116.979 154.683 116.881C154.865 116.769 155.045 116.657 155.225 116.546C155.491 116.377 155.76 116.212 156.028 116.048L156.028 116.048C156.175 115.958 156.322 115.868 156.469 115.777V117.199H154.215ZM170.435 104.049C170.356 104.144 170.276 104.238 170.196 104.332L171.184 97.8757H178.221L181.181 117.199H176.379L176.072 114.155H173.335L173.031 117.199H168.228L170.041 105.346C170.475 104.789 170.902 104.224 171.283 103.613C171.96 102.529 172.693 101.499 173.572 100.624C173.645 100.545 173.712 100.461 173.775 100.373C173.758 100.371 173.74 100.373 173.724 100.38C173.707 100.386 173.692 100.395 173.68 100.408C172.718 101.315 171.789 102.267 170.979 103.377C170.843 103.564 170.696 103.739 170.549 103.913L170.549 103.913C170.511 103.958 170.473 104.003 170.435 104.049ZM106.708 97.54C107.788 97.54 108.691 97.6612 109.417 97.9034C110.113 98.1242 110.727 98.5487 111.179 99.122C111.627 99.6904 111.943 100.449 112.128 101.398C112.313 102.347 112.406 103.518 112.405 104.913H107.738C107.738 103.85 107.673 103.1 107.543 102.664C107.412 102.229 107.104 102.01 106.619 102.008H106.592C106.219 102.008 105.958 102.148 105.81 102.428C105.661 102.707 105.586 103.071 105.586 103.519V111.561C105.576 111.932 105.654 112.3 105.815 112.634C105.964 112.922 106.252 113.067 106.681 113.067H106.708C107.081 113.067 107.327 112.932 107.449 112.661C107.57 112.391 107.63 112.024 107.63 111.559V110.635H106.958V106.867H112.376V113.032C112.376 114.702 111.956 117.199 109.098 117.199H105.815C104.233 117.199 103.008 117.06 102.143 116.108C101.278 115.156 100.844 113.799 100.844 112.031V103.041C100.844 101.273 101.319 99.9142 102.27 98.9642C103.222 98.0142 104.692 97.5395 106.681 97.54H106.708ZM123.24 97.8757L126.201 117.199H121.397L121.089 114.155H118.353L118.046 117.199H113.243L116.203 97.8757H123.24ZM120.614 109.52L119.722 100.863L118.828 109.52H120.614ZM139.324 117.199L136.786 110.385C138.145 109.529 138.824 108.077 138.824 106.03V103.46C138.822 101.542 138.29 100.132 137.23 99.2294C136.169 98.327 134.559 97.8757 132.399 97.8757H127.26V117.199H132.008V111.419H132.65L134.297 117.199H139.324ZM132.396 102.345C133.515 102.345 134.074 102.848 134.074 103.855V105.608C134.074 106.616 133.515 107.119 132.396 107.119H132.005V102.345H132.396ZM173.809 109.52L174.703 100.863L175.596 109.52H173.809Z" fill="#C68C43"/>
    <path d="M100.844 130.173V124.139C100.844 123.08 101.117 122.259 101.665 121.675C102.212 121.08 103.069 120.783 104.236 120.783H104.254C104.896 120.783 105.432 120.866 105.86 121.033C106.289 121.199 106.634 121.455 106.896 121.8C107.158 122.145 107.342 122.586 107.449 123.121C107.556 123.657 107.61 124.294 107.61 125.032H105.771C105.771 124.115 105.658 123.473 105.432 123.104C105.218 122.735 104.825 122.55 104.254 122.55H104.236C103.676 122.55 103.284 122.711 103.057 123.032C102.831 123.353 102.718 123.782 102.718 124.318V129.995C102.718 130.53 102.831 130.959 103.057 131.28C103.284 131.601 103.676 131.762 104.236 131.762H104.254C104.861 131.762 105.265 131.566 105.468 131.173C105.67 130.78 105.771 130.149 105.771 129.281H107.61C107.61 130.018 107.55 130.655 107.431 131.191C107.324 131.726 107.14 132.167 106.878 132.512C106.616 132.857 106.271 133.113 105.842 133.28C105.414 133.446 104.884 133.529 104.254 133.529H104.236C103.069 133.529 102.212 133.238 101.665 132.655C101.117 132.06 100.844 131.232 100.844 130.173Z" fill="white"/>
    <path d="M110.793 120.979H113.56L115.917 133.333H114.007L113.525 130.655H110.775L110.276 133.333H108.365L110.793 120.979ZM110.972 128.816H113.328L112.186 122.193L110.972 128.816Z" fill="white"/>
    <path d="M121.401 124.585C121.401 123.895 121.294 123.383 121.08 123.05C120.866 122.717 120.509 122.55 120.009 122.55H119.991C119.527 122.55 119.176 122.681 118.938 122.943C118.711 123.205 118.598 123.562 118.598 124.014C118.598 124.3 118.64 124.544 118.723 124.746C118.807 124.948 118.92 125.133 119.063 125.299C119.205 125.454 119.372 125.597 119.562 125.728C119.765 125.859 119.985 125.996 120.223 126.139L121.455 126.888C121.752 127.067 122.014 127.263 122.24 127.477C122.466 127.692 122.651 127.936 122.794 128.209C122.948 128.483 123.061 128.793 123.133 129.138C123.204 129.471 123.24 129.864 123.24 130.316C123.24 132.458 122.139 133.529 119.937 133.529H119.919C119.384 133.529 118.908 133.464 118.491 133.333C118.075 133.19 117.724 132.964 117.438 132.655C117.152 132.345 116.932 131.947 116.777 131.459C116.635 130.971 116.563 130.37 116.563 129.655H118.384C118.384 130.346 118.503 130.869 118.741 131.227C118.979 131.584 119.372 131.762 119.919 131.762H119.937C120.889 131.762 121.365 131.25 121.365 130.227C121.365 129.679 121.252 129.257 121.026 128.959C120.8 128.65 120.497 128.388 120.116 128.174L118.777 127.388C118.479 127.222 118.206 127.043 117.956 126.853C117.706 126.65 117.486 126.418 117.295 126.156C117.117 125.883 116.974 125.567 116.867 125.21C116.771 124.841 116.724 124.407 116.724 123.907C116.724 123.455 116.783 123.038 116.902 122.657C117.033 122.276 117.23 121.949 117.491 121.675C117.765 121.39 118.104 121.17 118.509 121.015C118.926 120.86 119.42 120.783 119.991 120.783H120.009C121.175 120.783 121.996 121.104 122.472 121.747C122.96 122.378 123.204 123.324 123.204 124.585H121.401Z" fill="white"/>
    <path d="M124.681 133.333V120.979H126.556V133.333H124.681Z" fill="white"/>
    <path d="M133.287 120.979H135.054V133.333H133.519L130.145 125.121V133.333H128.377V120.979H129.895L133.287 129.227V120.979Z" fill="white"/>
    <path d="M136.654 130.173V124.139C136.654 123.08 136.927 122.259 137.475 121.675C138.022 121.08 138.891 120.783 140.081 120.783H140.099C141.289 120.783 142.158 121.08 142.706 121.675C143.253 122.259 143.527 123.08 143.527 124.139V130.173C143.527 131.232 143.253 132.06 142.706 132.655C142.158 133.238 141.289 133.529 140.099 133.529H140.081C138.891 133.529 138.016 133.232 137.457 132.637C136.91 132.042 136.642 131.221 136.654 130.173ZM138.528 129.995C138.528 130.518 138.641 130.947 138.867 131.28C139.105 131.601 139.51 131.762 140.081 131.762H140.099C140.67 131.762 141.069 131.601 141.295 131.28C141.533 130.947 141.652 130.518 141.652 129.995V124.318C141.652 123.794 141.533 123.371 141.295 123.05C141.069 122.717 140.67 122.55 140.099 122.55H140.081C139.51 122.55 139.105 122.717 138.867 123.05C138.641 123.371 138.528 123.794 138.528 124.318V129.995Z" fill="white"/>
    <defs>
        <linearGradient id="paint0_linear_2216_12547" x1="115" y1="0" x2="115" y2="230" gradientUnits="userSpaceOnUse">
            <stop stop-color="#6E85CF"/>
            <stop offset="1"/>
        </linearGradient>
        <radialGradient id="paint1_radial_2216_12547" cx="0" cy="0" r="1" gradientUnits="userSpaceOnUse" gradientTransform="translate(114.5 115) rotate(90) scale(118 157.5)">
            <stop stop-color="#232C44"/>
            <stop offset="1" stop-color="#0A132B"/>
        </radialGradient>
        <linearGradient id="paint2_linear_2216_12547" x1="114.5" y1="-3" x2="114.5" y2="233" gradientUnits="userSpaceOnUse">
            <stop stop-color="#6E85CF"/>
            <stop offset="1"/>
        </linearGradient>
        <linearGradient id="paint3_linear_2216_12547" x1="115" y1="0" x2="115" y2="230" gradientUnits="userSpaceOnUse">
            <stop stop-color="#6E85CF"/>
            <stop offset="1"/>
        </linearGradient>
        <linearGradient id="paint4_linear_2216_12547" x1="69.9684" y1="112.055" x2="71.4497" y2="75.5453" gradientUnits="userSpaceOnUse">
            <stop stop-color="#C68C43"/>
            <stop offset="1" stop-color="#875A23"/>
        </linearGradient>
    </defs>
</svg>
