<svg width="24" height="22" viewBox="0 0 24 22" fill="none" xmlns="http://www.w3.org/2000/svg">
<path d="M8.24526 0.997843C8.24526 0.491695 8.37734 0.63215 7.86241 0.63215H7.86118L5.864 0.633353C3.17779 0.635757 0.9918 2.78178 0.9918 5.41711V7.69658C0.9918 8.20153 0.859626 8.06228 1.37455 8.06228C1.88948 8.06228 2.04961 7.39193 2.04961 6.88698V5.24098C2.04961 3.61433 3.94322 1.62219 5.60079 1.61978H7.31225C7.8284 1.61978 8.24526 1.50279 8.24526 0.997843Z" fill="white"/>
<path d="M16.332 21.5402C16.332 22.0464 16.1999 21.9059 16.7149 21.9059L16.7161 21.9059L18.7133 21.9047C21.3995 21.9023 23.5855 19.7563 23.5855 17.121L23.5855 14.8415C23.5855 14.3366 23.7176 14.4758 23.2027 14.4758C22.6878 14.4758 22.5277 15.1462 22.5277 15.6511L22.5277 17.2971C22.5277 18.9238 20.6341 20.9159 18.9765 20.9183L17.265 20.9183C16.7489 20.9183 16.332 21.0353 16.332 21.5402Z" fill="white"/>
<path d="M23.2171 7.97378C23.7233 7.97378 23.5828 8.10585 23.5828 7.59092L23.5828 7.5897L23.5816 5.59251C23.5792 2.90631 21.4332 0.720315 18.7979 0.720315L16.5184 0.720315C16.0134 0.720315 16.1527 0.588141 16.1527 1.10307C16.1527 1.618 16.823 1.77813 17.328 1.77813L18.974 1.77813C20.6006 1.77813 22.5928 3.67173 22.5952 5.32931L22.5952 7.04077C22.5952 7.55692 22.7122 7.97378 23.2171 7.97378Z" fill="white"/>
<path d="M1.36015 14.5643C0.854 14.5643 0.994456 14.4322 0.994456 14.9472L0.994456 14.9484L0.995658 16.9456C0.998062 19.6318 3.14408 21.8178 5.77942 21.8178L8.05889 21.8178C8.56384 21.8178 8.42458 21.9499 8.42458 21.435C8.42458 20.9201 7.75423 20.76 7.24929 20.76L5.60329 20.76C3.97664 20.76 1.98449 18.8664 1.98209 17.2088L1.98209 15.4973C1.98209 14.9812 1.86509 14.5643 1.36015 14.5643Z" fill="white"/>
</svg>
