<svg width="46" height="46" viewBox="0 0 46 46" fill="none" xmlns="http://www.w3.org/2000/svg">
<path d="M38.6408 12.2696C38.6408 12.2696 34.0164 12.6474 31.5147 14.0509C28.941 15.4949 26.1717 19.3948 26.1717 19.3948M26.1717 19.3948C26.1717 19.3948 23.4311 15.2619 19.9377 14.0509C10.6599 10.835 3.90463 30.9733 9.24939 36.3172C14.1697 41.2366 33.9158 35.9072 31.5159 26.52C30.551 22.7461 26.2825 19.5372 26.2825 19.5372M26.1717 19.3948C26.1717 19.3948 23.0014 16.5282 22.6091 14.0509C22.2131 11.5499 24.3904 7.81641 24.3904 7.81641C24.3904 7.81641 27.3188 10.1347 27.953 12.2696C28.7823 15.0613 26.2825 19.5372 26.2825 19.5372M26.1717 19.3948L26.2825 19.5372M26.1717 19.3948C26.1717 19.3948 28.5134 22.2493 30.625 22.9574C33.2836 23.8491 37.7501 22.0668 37.7501 22.0668C37.7501 22.0668 35.961 19.3564 34.1875 18.5042C31.3486 17.14 26.1717 19.3948 26.1717 19.3948ZM20.827 19.3948L18.155 22.0668M26.1708 24.7387L23.4989 27.4107M20.827 30.0826L18.155 32.7546M20.827 24.7387L18.155 27.4107M15.4831 19.3948L12.8111 22.0668M15.4831 24.7387L12.8111 27.4107M15.4831 30.0826L12.8111 32.7546M26.1708 30.0826L23.4989 32.7546" stroke="url(#paint0_linear_8756_27785)" stroke-width="1.4375" stroke-linecap="round"/>
<defs>
<linearGradient id="paint0_linear_8756_27785" x1="6.8877" y1="37.6586" x2="38.5127" y2="7.47107" gradientUnits="userSpaceOnUse">
<stop stop-color="#CC1D1D"/>
<stop offset="1" stop-color="#FF5C00"/>
</linearGradient>
</defs>
</svg>
