<svg width="45" height="45" viewBox="0 0 45 45" fill="none" xmlns="http://www.w3.org/2000/svg">
<path d="M34.1536 14.2503C34.1536 14.2503 30.9366 14.513 29.1963 15.4894C27.4059 16.4939 25.4794 19.2069 25.4794 19.2069M25.4794 19.2069C25.4794 19.2069 23.5729 16.3318 21.1427 15.4894C14.6886 13.2522 9.98928 27.2615 13.7074 30.979C17.1302 34.4012 30.8666 30.6938 29.1971 24.1636C28.5259 21.5382 25.5565 19.306 25.5565 19.306M25.4794 19.2069C25.4794 19.2069 23.274 17.2127 23.0011 15.4894C22.7256 13.7496 24.2403 11.1523 24.2403 11.1523C24.2403 11.1523 26.2774 12.7651 26.7186 14.2503C27.2955 16.1922 25.5565 19.306 25.5565 19.306M25.4794 19.2069L25.5565 19.306M25.4794 19.2069C25.4794 19.2069 27.1084 21.1926 28.5773 21.6852C30.4268 22.3055 33.534 21.0656 33.534 21.0656C33.534 21.0656 32.2894 19.1801 31.0557 18.5873C29.0808 17.6383 25.4794 19.2069 25.4794 19.2069ZM21.7613 19.2069L19.9026 21.0656M25.4788 22.9244L23.6201 24.7831M21.7613 26.6419L19.9026 28.5006M21.7613 22.9244L19.9026 24.7831M18.0438 19.2069L16.1851 21.0656M18.0438 22.9244L16.1851 24.7831M18.0438 26.6419L16.1851 28.5006M25.4788 26.6419L23.6201 28.5006" stroke="#C68C43" stroke-linecap="round"/>
</svg>
