<svg width="186" height="46" viewBox="0 0 186 46" fill="none" xmlns="http://www.w3.org/2000/svg">
<path fill-rule="evenodd" clip-rule="evenodd" d="M95.0933 38.5663L93.3284 40.0136L93.3322 40.0814C93.4626 40.0679 93.592 40.0466 93.7197 40.0174C95.3762 39.5544 97.0346 39.0642 98.631 38.1982C99.4613 37.7437 100.271 37.2205 101.082 36.6971L101.082 36.6971L101.083 36.6964C101.308 36.5507 101.534 36.405 101.76 36.2608C102.028 36.0903 102.296 35.9203 102.564 35.7503V43.0293C101.919 43.4083 101.278 43.7994 100.648 44.2216C100.142 44.5602 99.6427 44.9145 99.1429 45.2687C99.0888 45.3071 99.0347 45.3454 98.9806 45.3838H91.6045V0.774963H102.564V31.2149C101.945 31.7083 101.364 32.248 100.824 32.8297C100.096 33.6143 99.3814 34.4185 98.6665 35.2227L98.6638 35.2257C98.4264 35.4928 98.1889 35.76 97.951 36.0264C97.4404 36.6384 96.821 37.1508 96.124 37.5376C95.7164 37.7463 95.3137 37.978 94.9109 38.2097L94.9108 38.2098L94.9107 38.2098L94.9102 38.2101C94.7524 38.3009 94.5946 38.3917 94.4365 38.4811C94.3793 38.5197 94.3256 38.5631 94.2757 38.6109L94.2874 38.6942L95.0623 38.4714L95.0933 38.5663ZM107.204 32.7431V40.1954C107.86 39.7587 108.512 39.3134 109.163 38.8684L109.163 38.8683C109.969 38.3178 110.775 37.7677 111.584 37.2353C113.619 35.9101 115.459 34.2711 117.232 32.4577C117.541 32.142 117.852 31.8285 118.164 31.5166V24.4872C117.467 24.9871 116.77 25.4869 116.074 25.9867C115.664 26.2754 115.336 26.6643 115.12 27.1162C114.918 27.5426 114.582 27.8915 114.163 28.1101C114.014 28.1915 113.864 28.2724 113.715 28.3534C112.565 28.9759 111.414 29.5987 110.327 30.4234C110.09 30.6029 109.853 30.7836 109.615 30.9643L109.615 30.9649C108.817 31.5729 108.019 32.1809 107.204 32.7431ZM118.164 17.8542C117.804 18.0226 117.44 18.1789 117.071 18.3224C116.467 18.5432 115.936 18.9268 115.537 19.4306C114.309 20.9986 112.942 22.4518 111.451 23.7723C110.414 24.6861 109.392 25.6291 108.37 26.5723L108.369 26.5734C108.074 26.8456 107.778 27.1179 107.483 27.3894C107.39 27.4751 107.298 27.5607 107.204 27.646V0.774963H118.164V17.8542ZM130.862 12.3821V21.3362C130.885 21.3171 130.908 21.298 130.931 21.2788L131.201 21.0928C131.205 21.1315 131.205 21.1705 131.201 21.2091C131.17 21.2889 131.138 21.3686 131.106 21.4488L131.105 21.4492L131.105 21.4494C131.097 21.4707 131.088 21.492 131.08 21.5134C131.066 21.5481 131.052 21.5829 131.038 21.6179C131.178 21.6162 131.316 21.5893 131.447 21.5384C131.515 21.4968 131.583 21.4553 131.652 21.4138L131.653 21.413L131.653 21.4129C132.138 21.1184 132.624 20.8226 133.086 20.4748C134.984 19.0508 136.844 17.5532 138.644 15.9161C139.485 15.1532 140.377 14.4812 141.269 13.809C141.454 13.6701 141.638 13.5312 141.822 13.3915V0.774963H140.553C138.358 3.62813 136.055 6.35752 133.745 9.09255C133.468 9.42384 133.218 9.72802 133.129 10.2085C133.012 10.6908 132.711 11.1081 132.29 11.3709C131.828 11.7276 131.352 12.065 130.862 12.3821ZM140.102 0.774963C139.379 1.52949 138.658 2.28595 137.945 3.05365C136.278 4.84255 134.384 6.40573 132.311 7.70343C131.827 8.00859 131.345 8.31522 130.862 8.62283V0.774963H140.102ZM141.822 17.1291C141.264 18.0866 140.591 18.9339 139.894 19.812L139.894 19.8122C139.751 19.9926 139.606 20.1743 139.462 20.3586L139.45 20.2973L139.438 20.2309L139.438 20.2305C139.415 20.1012 139.396 19.9986 139.365 19.8994C139.26 19.57 139.171 19.5526 138.921 19.82C138.728 20.0212 138.547 20.2341 138.379 20.4574C136.996 22.3696 135.347 23.8866 133.626 25.3009C133.059 25.7586 132.517 26.2311 131.969 26.7094L131.929 26.7443C131.775 26.895 131.63 27.0548 131.495 27.2228L131.515 27.3565C131.577 27.3478 131.642 27.3457 131.707 27.3435C131.845 27.339 131.984 27.3344 132.106 27.2674C132.621 26.9817 133.129 26.6674 133.636 26.3535L133.637 26.3527L133.637 26.3527C133.776 26.2666 133.915 26.1806 134.055 26.0952C134.089 26.0739 134.123 26.0477 134.156 26.0216C134.222 25.9694 134.289 25.917 134.37 25.9015C133.465 26.6916 132.528 27.4193 131.591 28.1467C131.348 28.3357 131.105 28.5247 130.862 28.7147V35.1171C131.079 34.85 131.291 34.5776 131.495 34.3002C133.06 32.1894 134.999 30.3841 137.216 28.9742C137.861 28.5567 138.488 28.0806 139.114 27.6056L139.114 27.6053L139.114 27.6053L139.284 27.4766C140.227 26.7616 141.037 25.8451 141.822 24.894V17.1291ZM141.822 27.7061C140.903 29.2875 139.78 30.6714 138.588 31.9908C137.844 32.8115 137.118 33.6584 136.393 34.5032L136.393 34.5033L136.392 34.5037L136.392 34.504C136.113 34.8296 135.834 35.1548 135.554 35.4781C135.459 35.6181 135.377 35.7674 135.312 35.9237L135.395 36.0051L139.567 32.2794L139.623 32.3376C139.58 32.4197 139.531 32.4981 139.475 32.572C137.011 35.3154 134.483 37.9754 131.61 40.0155C131.362 40.1918 131.113 40.3646 130.862 40.5345V45.3838H134.312C134.362 45.3406 134.412 45.2974 134.461 45.2543C134.701 45.0461 134.928 44.8144 135.155 44.5835L135.155 44.5832L135.155 44.5829L135.156 44.5826C135.247 44.4893 135.338 44.3962 135.43 44.3049L135.401 44.2313L133.898 45.1632L133.849 45.0295C133.874 45.0056 133.899 44.9814 133.924 44.9573C133.974 44.9091 134.024 44.8609 134.076 44.8145L142.116 37.5492C142.211 37.4634 142.306 37.3768 142.401 37.2902C142.717 37.0013 143.033 36.7124 143.364 36.4546C144.039 35.9164 144.686 35.3466 145.305 34.7474H141.822V27.7061ZM159.743 18.0358C160.747 16.7457 161.735 15.44 162.618 14.0252C164.179 11.5221 165.873 9.14486 167.901 7.12608C168.069 6.94194 168.225 6.74785 168.37 6.54486C168.33 6.54126 168.289 6.54669 168.251 6.56077C168.213 6.57485 168.179 6.59722 168.151 6.62623C165.929 8.72057 163.786 10.9176 161.914 13.4808C161.602 13.9131 161.262 14.3161 160.922 14.7179C160.834 14.8221 160.746 14.9262 160.659 15.0307C160.474 15.2529 160.288 15.4741 160.101 15.6947L162.384 0.774963H178.629L185.462 45.3838H174.376L173.667 38.3568H167.349L166.646 45.3838H155.558L159.743 18.0358ZM148.119 34.7474C147.927 35.0057 147.736 35.2641 147.544 35.5226C147.321 35.8237 147.098 36.1247 146.874 36.4255C146.808 36.5323 146.751 36.6444 146.704 36.7607L146.776 36.8168L148.584 34.7474H148.119ZM149.148 34.7474C147.879 36.5198 146.472 38.1894 144.939 39.7404C143.579 41.1418 142.223 42.5483 140.87 43.9601C140.809 44.0244 140.752 44.0967 140.696 44.1691L140.696 44.1693L140.694 44.1722C140.672 44.1992 140.651 44.2261 140.63 44.2526L140.686 44.3592L145.518 41.2593L145.547 41.3116C145.535 41.3258 145.522 41.3402 145.51 41.3547L145.478 41.3919L145.478 41.3921C145.437 41.4404 145.397 41.4883 145.354 41.5306C144.848 42.0165 144.342 42.5017 143.835 42.987L143.833 42.9893L143.831 42.9917L143.83 42.9922L143.829 42.9928L143.829 42.9933L143.826 42.9961C142.997 43.7907 142.168 44.5854 141.341 45.3838H152.073V34.7474H149.148ZM128.413 37.6737V34.7474H122.652C121.745 35.2893 120.861 35.9027 119.987 36.5379C119.793 36.6735 119.609 36.8013 119.419 36.9253C119.398 36.9469 119.379 36.971 119.363 36.997L119.681 37.1191C119.607 37.176 119.529 37.2284 119.448 37.276C118.362 37.7914 117.265 38.1537 116.155 38.1498C115.739 38.1669 115.345 38.3439 115.056 38.6438C114.664 38.9945 114.292 39.3664 113.94 39.7578C112.954 40.8801 111.838 41.881 110.616 42.7395C110.099 43.1156 109.585 43.4973 109.071 43.8788L109.069 43.8797L109.069 43.8798L109.069 43.8799L109.069 43.88L109.069 43.8801C108.525 44.2842 107.98 44.6883 107.433 45.0857C107.358 45.1378 107.282 45.1882 107.204 45.237V45.3838H119.057C119.867 44.7732 120.663 44.1422 121.442 43.4912C123.509 41.7359 125.587 40.0052 127.677 38.299C127.927 38.0959 128.173 37.8874 128.413 37.6737ZM123.223 45.3838C123.567 45.1224 123.925 44.8793 124.296 44.6556C124.714 44.3973 125.131 44.139 125.546 43.8806C126.161 43.4917 126.781 43.1117 127.401 42.7316L127.401 42.7316L127.401 42.7316L127.401 42.7315C127.739 42.5244 128.076 42.3173 128.413 42.1088V45.3838H123.223ZM13.5386 1.14032e-06C16.0301 1.14032e-06 18.1148 0.279634 19.7926 0.838898C21.399 1.34857 22.8156 2.32853 23.8592 3.65201C24.8925 4.96428 25.6229 6.7157 26.0504 8.90626C26.4779 11.0968 26.691 13.8014 26.6897 17.0201H15.9158C15.9158 14.5661 15.7653 12.836 15.4644 11.8298C15.1634 10.8236 14.4531 10.3186 13.3332 10.3148H13.2693C12.4091 10.3148 11.8072 10.6377 11.4636 11.2835C11.1201 11.9293 10.9483 12.7688 10.9483 13.8021V32.3683C10.9238 33.2238 11.1045 34.0728 11.4753 34.8443C11.8201 35.5107 12.4847 35.844 13.4747 35.844H13.5386C14.3988 35.844 14.9665 35.532 15.2474 34.9082C15.5283 34.2843 15.6659 33.4377 15.6659 32.3624V30.2313H14.116V21.5323H26.6219V35.7645C26.6219 39.62 25.6532 45.3838 19.0544 45.3838H11.4753C7.82326 45.3838 4.99658 45.0621 2.99911 42.8651C1.00165 40.6681 0 37.5353 0 33.4532V12.6997C0 8.61823 1.09786 5.48092 3.29359 3.28778C5.48932 1.09464 8.88302 -0.00129046 13.4747 1.14032e-06H13.5386ZM51.7017 0.774963L58.5388 45.3838H47.4471L46.738 38.3568H40.4201L39.7111 45.3838H28.6233L35.4565 0.774963H51.7017ZM45.6415 27.6565L43.58 7.67213L41.5167 27.6565H45.6415ZM88.8339 45.3838L82.9733 29.6539C86.1106 27.6778 87.6793 24.3261 87.6793 19.5988V13.6665C87.6741 9.23885 86.4471 5.98336 83.9982 3.9C81.5493 1.81664 77.8321 0.774963 72.8465 0.774963H60.9837V45.3838H71.9436V32.0408H73.4258L77.2289 45.3838H88.8339ZM72.8387 11.0917C75.4219 11.0917 76.7135 12.2541 76.7135 14.579V18.6262C76.7135 20.9511 75.4219 22.1136 72.8387 22.1136H71.9359V11.0917H72.8387ZM168.444 27.6565L170.507 7.67213L172.569 27.6565H168.444Z" fill="#C68C43"/>
</svg>
