<svg width="62" height="77" viewBox="0 0 62 77" fill="none" xmlns="http://www.w3.org/2000/svg">    <path d="M0 10C0 4.47715 4.47715 0 10 0H62V77H10C4.47715 77 0 72.5229 0 67V10Z" fill="#0D101B"/>    <path d="M45.0417 37.2309C45.5259 36.2512 45.8347 35.1943 45.9543 34.1082C46.0343 33.3849 46.0268 32.6545 45.9319 31.933C45.8363 31.2152 45.6595 30.5106 45.4048 29.8326C44.9015 28.4814 43.7846 26.8148 43.2185 26.1936C42.6524 25.5724 42.3149 25.2935 41.6995 24.9282C41.7584 24.9563 43.0277 25.3018 43.8596 25.836C44.6633 26.3517 45.6219 27.0516 45.6219 27.0516L44.8458 25.669C44.8278 25.605 44.8144 25.5641 44.7984 25.5142L44.751 25.3715C44.719 25.2775 44.687 25.1854 44.6517 25.0932C44.583 24.9094 44.5108 24.7281 44.4353 24.5494C44.2848 24.1912 44.1202 23.8406 43.9454 23.4957C43.5948 22.807 43.1981 22.1427 42.7581 21.5073C41.8801 20.2349 40.8294 19.0905 39.6361 18.1069C38.4418 17.1298 37.1119 16.3307 35.6881 15.7347C34.9799 15.4393 34.2524 15.1924 33.5107 14.9958C32.7712 14.8011 32.0205 14.6516 31.2629 14.5479C29.7522 14.3342 27.1541 14.1839 25.0087 14.7789C22.8634 15.3739 21.9348 15.8914 20.6745 16.7186C20.0472 17.1341 19.4425 17.5826 18.8628 18.0622C18.2811 18.5365 17.7341 19.0517 17.226 19.604C17.4904 19.3391 17.7709 19.0922 18.0585 18.8504C18.346 18.6085 18.6348 18.3769 18.9365 18.153C19.5335 17.7063 20.1534 17.2909 20.7936 16.9087C22.0744 16.1409 23.2604 15.7129 24.7071 15.4577C26.1538 15.2024 27.3424 15.0738 29.1841 15.1448C31.1239 15.2222 32.9388 15.6432 33.2994 15.7494C34 15.9578 34.6862 16.2117 35.3538 16.5094C36.6834 17.1054 37.9199 17.89 39.0252 18.8388C40.1269 19.7872 41.0913 20.8837 41.891 22.0972C42.2908 22.7021 42.6508 23.3323 42.9688 23.9839C43.0567 24.1651 43.141 24.3477 43.2217 24.5315C43.0866 24.4631 41.8545 23.8348 40.3726 23.7196C38.8907 23.6045 37.909 23.68 37.909 23.68C37.909 23.68 40.6409 25.4291 41.6995 26.39C42.7581 27.351 43.7488 29.1001 44.1766 30.2837C44.8345 32.0529 44.8406 33.9983 44.1938 35.7716C44.0875 36.0633 43.9646 36.3487 43.8256 36.6263C43.7558 36.7639 43.6822 36.8995 43.6053 37.0307C43.5669 37.0947 43.5272 37.1586 43.4875 37.2226L43.4273 37.3135L43.3978 37.3557L43.3754 37.387L43.1551 37.6928L43.2794 38.0345C43.5756 38.8463 43.8217 39.6755 44.0165 40.5174C44.2091 41.3565 44.3414 42.2083 44.4122 43.0663C44.5523 44.7803 44.4335 46.5057 44.06 48.1844C43.681 49.8665 43.0636 51.4858 42.2265 52.9936C41.834 53.7037 40.7767 55.385 40.2996 56.0421L40.5019 53.5265C40.5019 53.5265 38.7325 55.385 37.8174 56.2922C36.9023 57.1994 36.2407 57.8123 35.4274 58.5346C34.6141 59.2569 33.7624 59.9421 32.8818 60.5723C32.4412 60.8922 31.9923 61.1935 31.537 61.4801C31.309 61.6247 31.0778 61.7629 30.8453 61.8966C30.7294 61.9606 30.6122 62.0284 30.4957 62.0885L30.3926 62.1436L30.2863 62.0898C30.164 62.0258 30.0423 61.9619 29.9206 61.8979C29.6779 61.7699 29.4358 61.6311 29.1957 61.4916C28.7167 61.2123 28.2447 60.9186 27.7797 60.6107C26.8495 59.9964 25.9517 59.3345 25.0901 58.6274C24.2275 57.9216 23.4042 57.1691 22.6239 56.3735C21.8477 55.5744 20.2454 53.7811 20.2454 53.7811L20.2845 56.2122C20.0992 55.999 19.9186 55.7815 19.7427 55.5597C19.2235 54.9031 18.7445 54.2158 18.3082 53.5015C16.5501 50.6107 15.5307 47.3321 15.34 43.9549C15.2916 43.109 15.2916 42.261 15.34 41.415C15.3895 40.5668 15.4823 39.7216 15.6179 38.8828C15.4351 39.7152 15.2989 40.5572 15.21 41.4048C14.7355 45.7075 15.6297 50.0501 17.7658 53.8163C18.1888 54.5705 18.6593 55.2971 19.1747 55.9915C19.4338 56.3387 19.7052 56.6774 19.9886 57.0075C20.1308 57.1725 20.2766 57.3348 20.426 57.4943C20.5003 57.5745 20.5765 57.6536 20.6547 57.7317C20.7334 57.8117 20.8077 57.8852 20.8993 57.9691L21.9239 58.9095C21.9239 58.9095 21.6178 58.0778 21.4859 57.502C21.406 57.1707 21.3858 56.8277 21.4263 56.4893C21.6863 56.7925 21.6498 56.7452 21.9226 57.035C22.7107 57.8757 23.5444 58.6723 24.4202 59.4213C24.8582 59.7956 25.3033 60.1603 25.7612 60.5089C26.2191 60.8576 26.6847 61.1973 27.1605 61.523C27.6363 61.8486 28.1211 62.1627 28.6142 62.4628C28.862 62.6125 29.1111 62.759 29.3647 62.901C29.4928 62.972 29.6209 63.0424 29.749 63.1109L29.9411 63.2132C30.0051 63.2478 30.0692 63.2772 30.146 63.3162L30.3887 63.4346L30.6347 63.3182L30.7429 63.267L30.8428 63.2184L31.0349 63.1192C31.163 63.0552 31.2911 62.9842 31.414 62.9145C31.6642 62.7754 31.9103 62.6319 32.1524 62.4839C32.6378 62.189 33.113 61.8774 33.5741 61.5537C34.4988 60.9058 35.3903 60.2119 36.2452 59.4744C37.0991 58.7366 37.9173 57.9627 38.6999 57.1527C38.851 56.9962 39.0004 56.8384 39.1481 56.6793C39.095 57.0866 39.0195 57.4907 38.9221 57.8897C38.7633 58.534 38.4226 59.6229 38.4226 59.6229L40.0658 58.0874L40.1395 58.0183L40.2035 57.9543L40.3316 57.8264C40.4155 57.7419 40.4962 57.6575 40.5769 57.5705C40.737 57.3999 40.893 57.2269 41.045 57.0516C41.3485 56.701 41.6384 56.3402 41.9147 55.9691C42.4685 55.2291 42.9713 54.4524 43.4196 53.6442C44.3247 52.0283 44.9947 50.2918 45.4093 48.487C45.8169 46.6726 45.9443 44.8066 45.7872 42.9537C45.6352 41.2248 45.2625 39.5224 44.678 37.888C44.7132 37.831 44.7484 37.7741 44.7817 37.7172C44.8746 37.5559 44.9604 37.3941 45.0417 37.2309Z" fill="#C68C43"/>    <path d="M46.22 32.0517C46.124 31.332 45.9921 30.412 45.7378 29.7383C45.2345 28.3871 44.8041 27.4556 44.2374 26.8344C43.6706 26.2132 42.8893 25.5159 42.2739 25.1531C42.3328 25.1813 43.4388 25.7027 44.2707 26.2369C45.0737 26.7525 46.0106 27.3667 46.0106 27.3667C46.0106 27.3667 45.424 24.0533 44.1125 21.8404C42.8919 19.7816 41.0597 18.2359 39.8858 17.394C38.712 16.552 36.9483 15.5463 35.1149 14.9513C33.2814 14.3564 31.9756 14.1772 30.3516 14.0435C28.7275 13.9098 26.5431 14.0749 24.3958 14.6698C22.2486 15.2648 21.2886 15.9871 20.433 16.6109C19.5775 17.2347 19.3348 17.5616 18.7558 18.0401C18.1769 18.5187 17.7312 19.0439 17.2266 19.5999C17.491 19.335 17.7715 19.0881 18.0591 18.8463C18.3466 18.6044 18.6354 18.3728 18.9371 18.1489C19.5341 17.7022 20.154 17.2868 20.7942 16.9046C22.075 16.1368 23.2611 15.7088 24.7077 15.4536C26.1544 15.1983 27.343 15.0697 29.1848 15.1407C31.1245 15.2181 32.9394 15.6391 33.3 15.7453C34.0006 15.9537 34.6869 16.2076 35.3544 16.5053C36.684 17.1013 37.9205 17.8859 39.0258 18.8347C40.1275 19.7831 41.0919 20.8796 41.8916 22.0931C42.2919 22.6981 42.6523 23.3286 42.9707 23.9804C43.0586 24.1617 43.1429 24.3442 43.2236 24.5281C43.0885 24.4596 41.8564 23.8313 40.3745 23.7162C38.8926 23.601 37.9109 23.6765 37.9109 23.6765C37.9109 23.6765 40.6428 25.4256 41.7014 26.3866C42.76 27.3475 43.7507 29.0966 44.1784 30.2802C44.8364 32.0494 44.8425 33.9948 44.1957 35.7682C44.0894 36.0598 43.9665 36.3452 43.8275 36.6229C43.7577 36.7604 43.6841 36.8961 43.6072 37.0272C43.5688 37.0912 43.5291 37.1552 43.4894 37.2192L43.4292 37.31L43.3997 37.3522L43.3773 37.3836L43.157 37.6894V37.6945C43.6669 37.7824 44.1825 37.8337 44.6997 37.8481C44.7273 37.8033 44.9911 37.4936 45.0718 37.3305C45.2362 37.0196 45.3816 36.6992 45.5073 36.3708C45.7519 35.6882 45.9363 35.1022 46.0644 34.4291C46.1925 33.7561 46.3148 32.7715 46.22 32.0517Z" fill="#C18139"/>    <path d="M35.8526 43.4349C34.7697 44.257 33.5203 44.4546 33.5203 44.4546C34.404 43.8149 36.1114 42.0178 35.1213 40.0684C34.1312 38.119 30.3497 36.8555 30.3497 36.8555C30.3497 36.8555 26.5713 38.1197 25.5787 40.0684C24.5861 42.0171 26.2953 43.8149 27.1797 44.4546C27.1797 44.4546 25.9296 44.2563 24.8474 43.4342C24.8474 43.4342 22.1955 45.7489 21.8906 48.4295C21.8906 48.4295 24.3139 46.6478 30.3503 46.6478C36.3867 46.6478 38.8106 48.4295 38.8106 48.4295C38.5052 45.7495 35.8526 43.4349 35.8526 43.4349ZM30.7935 43.4195L30.351 44.1508L29.9091 43.4195C27.0587 43.2065 26.5406 41.0895 26.5406 41.0895L27.9578 40.2674L27.5735 39.5975L30.3478 41.2724L33.1258 39.5975L32.7416 40.2674L34.1588 41.0895C34.1588 41.0895 33.642 43.2065 30.7915 43.4195H30.7935Z" fill="white"/>    <path d="M38.1578 29.4845C38.1578 29.4845 40.6554 29.7737 41.8465 30.9771C41.8465 30.9771 40.0022 27.5352 36.0996 27.5352C32.197 27.5352 30.3526 29.6522 30.3526 29.6522C30.3526 29.6522 28.5083 27.5352 24.6063 27.5352C20.7044 27.5352 18.8594 30.9771 18.8594 30.9771C20.048 29.7737 22.5481 29.4845 22.5481 29.4845C20.5667 30.0648 19.0406 32.4275 19.0573 35.2578C19.0739 38.0882 20.1703 40.1156 21.2526 40.376C22.3348 40.6364 22.9137 39.5993 24.5301 38.0728C26.1465 36.5463 27.7917 36.3064 27.7917 36.3064C26.1612 35.5751 25.0783 36.0019 23.996 36.3518C22.9137 36.7018 22.03 36.824 21.405 35.5604C20.7799 34.2969 21.9692 32.9105 21.9692 32.9105C21.298 33.0173 20.6583 33.5503 20.6583 33.5503C21.2679 32.1031 22.0454 31.7071 23.3102 31.6617C24.5749 31.6162 25.1551 31.9508 26.4808 32.6975C27.8064 33.4441 28.9655 34.3116 29.652 33.748C30.3385 33.1843 29.3165 31.281 29.3165 31.281C30.0632 31.7685 30.3526 32.7883 30.3526 32.7883C30.3526 32.7883 30.6427 31.7685 31.3894 31.281C31.3894 31.281 30.3648 33.1843 31.0539 33.748C31.7429 34.3116 32.8989 33.4434 34.2251 32.6975C35.5514 31.9515 36.1303 31.6162 37.3958 31.6617C38.6612 31.7071 39.438 32.1076 40.0457 33.5522C40.0457 33.5522 39.4053 33.0193 38.7348 32.9124C38.7348 32.9124 39.9241 34.2982 39.299 35.5623C38.674 36.8265 37.7902 36.7043 36.708 36.3537C35.6257 36.0031 34.5428 35.5771 32.9117 36.3083C32.9117 36.3083 34.5581 36.5521 36.1739 38.0747C37.7896 39.5974 38.3692 40.6338 39.4514 40.3779C40.5337 40.122 41.6288 38.0933 41.6467 35.2597C41.6647 32.4262 40.1392 30.0648 38.1578 29.4845Z" fill="white"/>    <path d="M36.0992 27.5352C32.1972 27.5352 30.3522 29.6522 30.3522 29.6522C30.3522 29.6522 28.5079 27.5352 24.6059 27.5352C21.7011 27.5352 19.9374 29.4417 19.2266 30.4141C20.7456 28.9356 24.8038 26.1149 30.3542 30.9592C35.9051 26.1149 39.9634 28.9356 41.4824 30.4141C40.7677 29.4417 39.004 27.5352 36.0992 27.5352Z" fill="#C4C4C4"/>    <path d="M23.9968 36.3515C22.9145 36.7021 22.0308 36.8236 21.4057 35.5601C20.7807 34.2965 21.9699 32.9102 21.9699 32.9102C21.432 32.9952 20.9152 33.3542 20.7307 33.4936C20.1858 34.4015 19.8098 36.0463 21.0906 38.7506C21.0906 38.7506 19.9936 38.4275 19.1406 36.5389C19.4192 38.686 20.3401 40.1543 21.2539 40.3724C22.3362 40.6283 22.9151 39.5957 24.5315 38.0693C26.1479 36.5428 27.7931 36.3029 27.7931 36.3029C26.162 35.5748 25.0791 36.0015 23.9968 36.3515Z" fill="#C4C4C4"/>    <path d="M39.5831 38.7506C40.8786 36.015 40.4796 34.3631 39.927 33.4623C39.7137 33.3068 39.2302 32.9895 38.7294 32.9102C38.7294 32.9102 39.9186 34.2959 39.2936 35.5601C38.6686 36.8243 37.7848 36.7021 36.7025 36.3515C35.6203 36.0009 34.5373 35.5748 32.9062 36.3061C32.9062 36.3061 34.5527 36.5498 36.1684 38.0725C37.7842 39.5951 38.3637 40.6315 39.446 40.3756C40.3663 40.1549 41.2974 38.6572 41.5651 36.473C40.707 38.4205 39.5831 38.7506 39.5831 38.7506Z" fill="#C4C4C4"/>    <path d="M38.8062 48.3976C37.8328 47.6529 35.3512 46.1174 31.2347 45.9472C25.7702 45.7189 25.2668 46.6094 24.6495 45.8327C24.0321 45.056 27.1797 44.454 27.1797 44.454C27.1797 44.454 25.9296 44.2557 24.8474 43.4336C24.8474 43.4336 22.1955 45.7483 21.8906 48.4289C21.8906 48.4289 24.3139 46.6472 30.3503 46.6472C36.3867 46.6472 38.8106 48.4289 38.8106 48.4289C38.81 48.4206 38.8074 48.4084 38.8062 48.3976Z" fill="#C4C4C4"/>    <path d="M44.6775 37.8828C44.6775 37.8828 45.3819 40.8725 45.3442 43.7879C45.3064 46.7033 44.3387 49.6437 44.3387 49.6437C44.2843 49.8356 44.2196 50.018 44.1607 50.2054L44.0698 50.4856C44.0384 50.5784 44.0057 50.6705 43.9699 50.7627C43.9013 50.9475 43.8373 51.1331 43.7649 51.3161C43.4775 52.0525 43.1434 52.7698 42.7646 53.4638L42.6935 53.5917L42.6186 53.7197L42.4675 53.9756C42.4175 54.0613 42.3618 54.1451 42.3093 54.2315C42.2568 54.3178 42.2036 54.401 42.146 54.4835L41.9763 54.7337L41.7983 54.98C41.7342 55.0613 41.674 55.1425 41.6061 55.2244C41.5383 55.3063 41.4781 55.3805 41.3897 55.4803L39.4922 57.6728C39.5946 57.2604 39.6714 56.842 39.7221 56.4201C39.8028 55.7656 39.8329 55.3197 39.8809 54.9858C39.7797 55.1847 39.3455 55.6652 37.8028 57.2659C36.3491 58.7738 34.5368 60.1954 33.9156 60.6298C32.3005 61.7628 30.3831 62.7692 30.3831 62.7692C29.22 62.1945 28.0958 61.5441 27.0178 60.8224C25.436 59.7514 23.8543 58.3586 23.0832 57.6024C21.4861 56.0356 20.8124 55.1515 20.8124 55.1515C20.8005 55.5492 20.8134 55.9472 20.8508 56.3434C20.9148 57.0151 21.0096 57.5001 21.0096 57.5001L20.0227 56.431C19.0192 55.2193 18.1449 53.9065 17.4137 52.5137C17.0514 51.8175 16.729 51.1013 16.448 50.3686L16.3417 50.0947C16.3052 50.0039 16.2777 49.9098 16.2437 49.8177L16.0516 49.2611C15.9395 48.8862 15.8211 48.5126 15.7314 48.1319C15.3439 46.6174 15.1337 45.063 15.1051 43.5C15.1006 43.2511 15.2729 40.7528 15.3152 40.534C15.1723 41.2538 14.9988 43.2959 15.0026 43.6983C15.0135 44.3797 14.913 46.4788 15.3581 48.4281C15.8031 50.3775 16.9738 53.3268 17.9933 54.9992C19.0128 56.6716 22.0131 59.1321 22.0131 59.1321C22.0131 59.1321 21.7569 58.3586 21.6602 57.7739C21.5635 57.1891 21.5347 56.8936 21.5347 56.8936C21.7909 57.1962 22.6926 58.6555 24.7707 60.3374C26.8488 62.0194 30.3812 64.0014 30.3812 64.0014C30.3812 64.0014 33.3732 62.2196 35.4583 60.6196C37.5434 59.0195 38.7109 57.3024 38.8595 57.1437C38.7893 57.656 38.6892 58.1638 38.5598 58.6644C38.3785 59.2997 38.2159 59.8007 38.2159 59.8007C38.2159 59.8007 40.5303 58.0445 41.4819 56.8622C42.4335 55.6799 43.3852 54.3127 43.8322 53.5041C44.7287 51.888 45.1738 50.7358 45.5798 48.9246C45.9858 47.1134 46.2093 44.894 46.0595 43.0458C45.8232 40.0919 44.6775 37.8828 44.6775 37.8828Z" fill="#996837"/>    <path d="M45.8083 32.0088C45.7122 31.289 45.3241 30.2411 45.0705 29.5674C44.5672 28.2162 43.5137 26.7799 42.6428 25.9438C41.7718 25.1076 40.0402 24.2164 40.0402 24.2164C40.0402 24.2164 41.4491 24.3994 42.4936 24.7212C43.1486 24.9285 43.7763 25.214 44.3629 25.5714C44.3629 25.5714 43.5028 23.1089 42.5141 21.7149C41.5253 20.3208 40.3649 19.2633 39.1712 18.287C37.9775 17.3107 36.5545 16.4144 35.2365 15.8955C33.9186 15.3767 32.3483 14.8802 29.3385 14.7625C28.1121 14.7139 26.7769 14.6985 24.9037 15.117C23.0305 15.5354 22.1314 15.9378 20.645 16.8795C19.1587 17.8213 17.4616 19.3401 17.2266 19.6005C17.3286 19.4985 17.4328 19.3991 17.5391 19.3023C17.7991 19.0573 18.9704 18.0228 20.7212 16.9883C22.3863 16.0056 23.8874 15.4311 26.9241 15.2161C29.9609 15.0012 32.7326 15.472 34.292 16.0747C37.5638 17.3465 40.2477 19.9882 40.8913 20.7412C42.2207 22.2964 43.191 24.5107 43.191 24.5107C42.8253 24.3136 42.3078 23.9682 40.7779 23.7596C39.8276 23.6342 38.8669 23.6061 37.9109 23.6758C37.9109 23.6758 40.256 25.1364 41.5765 26.2899C42.897 27.4434 43.7705 29.3128 43.9108 29.6256C44.0542 29.9513 44.8381 31.8527 44.6491 33.7086C44.4513 35.6516 43.2736 37.5473 43.157 37.6893L43.1609 37.7002C43.1899 37.7052 43.2183 37.7136 43.2454 37.7251C43.3597 37.7729 43.4783 37.8098 43.5995 37.8352C43.6533 37.8435 43.7065 37.8505 43.7603 37.8563C44.0657 37.8889 44.377 37.8563 44.6812 37.887V37.8838C44.7164 37.8268 44.7516 37.7699 44.7849 37.713C44.8778 37.553 44.9636 37.3931 45.0449 37.228C45.206 36.9019 45.348 36.5668 45.4701 36.2242C45.7135 35.5403 45.7737 34.8749 45.8544 34.152C45.9265 33.4384 45.911 32.7186 45.8083 32.0088Z" fill="url(#paint0_linear_12544_62723)"/>    <defs>        <linearGradient id="paint0_linear_12544_62723" x1="31.1405" y1="36.9133" x2="32.2686" y2="9.08064" gradientUnits="userSpaceOnUse">            <stop stop-color="#C68C43"/>            <stop offset="1" stop-color="#875A23"/>        </linearGradient>    </defs></svg>