<svg xmlns="http://www.w3.org/2000/svg" width="20" height="20" viewBox="0 0 20 20" fill="none">
    <path fill-rule="evenodd" clip-rule="evenodd" d="M4 2C2.89543 2 2 2.89543 2 4V16C2 17.1046 2.89543 18 4 18H16C17.1046 18 18 17.1046 18 16V4C18 2.89543 17.1046 2 16 2H4ZM7.72621 6H5.21875V13.403H7.72621V6ZM8.87592 9.19781C8.50726 9.43241 8.50726 9.97057 8.87592 10.2052L13.734 13.2967C14.1315 13.5496 14.6516 13.2641 14.6516 12.793V6.60995C14.6516 6.13886 14.1315 5.85335 13.734 6.10628L8.87592 9.19781Z" fill="url(#paint0_linear_11386_46496)"/>
    <defs>
        <linearGradient id="paint0_linear_11386_46496" x1="18" y1="-1.5" x2="2" y2="23.5" gradientUnits="userSpaceOnUse">
            <stop stop-color="#9360FF"/>
            <stop offset="1" stop-color="#FF0F00"/>
        </linearGradient>
    </defs>
</svg>