<svg width="44" height="44" viewBox="0 0 44 44" fill="none" xmlns="http://www.w3.org/2000/svg">
    <g filter="url(#filter0_d_1187_35)">
        <circle cx="22" cy="18" r="18" fill="#C68C43"/>
        <mask id="mask0_1187_35" style="mask-type:alpha" maskUnits="userSpaceOnUse" x="4" y="0" width="36" height="36">
            <circle cx="22" cy="18" r="18" fill="#1C2436"/>
        </mask>
        <g mask="url(#mask0_1187_35)">
            <g opacity="0.5" filter="url(#filter1_f_1187_35)">
                <circle cx="22" cy="41" r="11" fill="#FFF6D6"/>
            </g>
        </g>
        <circle cx="22" cy="18" r="15.5" stroke="#835C2C"/>
    </g>
    <path d="M16.5 23.4999C19.5375 26.5375 24.4624 26.5375 27.4999 23.4999C30.5375 20.4624 30.5375 15.5375 27.4999 12.5C24.4624 9.46242 19.5375 9.46242 16.5 12.5C14.9802 14.0197 14.2208 16.0119 14.2218 18.0038L14.2218 19.7284" stroke="white" stroke-linecap="round" stroke-linejoin="round"/>
    <path d="M12.4922 18L14.2207 19.7284L15.9491 18" stroke="white" stroke-linecap="round" stroke-linejoin="round"/>
    <path d="M21 15L21 19L25 19" stroke="white" stroke-linecap="round" stroke-linejoin="round"/>
    <defs>
        <filter id="filter0_d_1187_35" x="0" y="0" width="44" height="44" filterUnits="userSpaceOnUse" colorInterpolationFilters="sRGB">
            <feFlood floodOpacity="0" result="BackgroundImageFix"/>
            <feColorMatrix in="SourceAlpha" type="matrix" values="0 0 0 0 0 0 0 0 0 0 0 0 0 0 0 0 0 0 127 0" result="hardAlpha"/>
            <feOffset dy="4"/>
            <feGaussianBlur stdDeviation="2"/>
            <feComposite in2="hardAlpha" operator="out"/>
            <feColorMatrix type="matrix" values="0 0 0 0 0 0 0 0 0 0 0 0 0 0 0 0 0 0 0.15 0"/>
            <feBlend mode="normal" in2="BackgroundImageFix" result="effect1_dropShadow_1187_35"/>
            <feBlend mode="normal" in="SourceGraphic" in2="effect1_dropShadow_1187_35" result="shape"/>
        </filter>
        <filter id="filter1_f_1187_35" x="2" y="21" width="40" height="40" filterUnits="userSpaceOnUse" colorInterpolationFilters="sRGB">
            <feFlood floodOpacity="0" result="BackgroundImageFix"/>
            <feBlend mode="normal" in="SourceGraphic" in2="BackgroundImageFix" result="shape"/>
            <feGaussianBlur stdDeviation="4.5" result="effect1_foregroundBlur_1187_35"/>
        </filter>
    </defs>
</svg>
