<svg width="32" height="32" viewBox="0 0 32 32" fill="none" xmlns="http://www.w3.org/2000/svg">
    <path d="M0.25 1C0.25 0.585786 0.585787 0.25 1 0.25H23.5858C23.7847 0.25 23.9755 0.329018 24.1161 0.46967L31.5303 7.88388C31.671 8.02454 31.75 8.2153 31.75 8.41421V31C31.75 31.4142 31.4142 31.75 31 31.75H1C0.585786 31.75 0.25 31.4142 0.25 31V1Z" fill="#FF1F6F" fill-opacity="0.12" stroke="#FF1F6F" stroke-width="0.5"/>
    <g opacity="0.8">
        <path d="M16 9C17.9332 9 19.5 10.5668 19.5 12.5C19.5 14.4332 17.9332 16 16 16C14.0668 16 12.5 14.4332 12.5 12.5C12.5 10.5668 14.0668 9 16 9ZM15.5926 18.8219L14.6875 17.3125H16H17.3125L16.4074 18.8219L17.3207 22.2098L18.4117 17.75H20.375L19.675 23H17.5313H17.1238H14.8762H14.4688H12.675L11.625 17.75H13.5883L14.6793 22.2098L15.5926 18.8219Z" fill="#FF1F6F"/>
    </g>
</svg>
