<svg width="32" height="32" viewBox="0 0 32 32" fill="none" xmlns="http://www.w3.org/2000/svg">
    <path d="M0.25 1C0.25 0.585787 0.585786 0.25 1 0.25H23.5858C23.7847 0.25 23.9755 0.329018 24.1161 0.46967L31.5303 7.88388C31.671 8.02454 31.75 8.2153 31.75 8.41421V31C31.75 31.4142 31.4142 31.75 31 31.75H1C0.585786 31.75 0.25 31.4142 0.25 31V1Z" fill="#08C7D3" fill-opacity="0.12" stroke="#08C7D3" stroke-width="0.5"/>
    <g opacity="0.9">
        <g clipPath="url(#clip0_296_124717)">
            <path d="M19.5 17.3397V20.8123L15.125 22.9998V19.117C15.125 18.5209 14.8898 17.9522 14.4688 17.5311C14.0504 17.1127 13.4816 16.8748 12.8855 16.8748L9 16.8639L11.1875 12.4998H14.6602C17.0418 8.57598 20.807 8.77012 22.7457 9.25411C23.2297 11.1928 23.4238 14.958 19.5 17.3397ZM20.5938 12.4998C20.5938 11.8955 20.1043 11.4061 19.5 11.4061C18.8957 11.4061 18.4062 11.8955 18.4062 12.4998C18.4062 13.1041 18.8957 13.5936 19.5 13.5936C20.1043 13.5936 20.5938 13.1041 20.5938 12.4998ZM13.5527 21.8514C12.1992 23.2049 9.01367 22.9861 9.01367 22.9861C9.01367 22.9861 8.79492 19.8006 10.1484 18.4471C11.0891 17.5065 12.6121 17.5065 13.5527 18.4471C14.4934 19.3877 14.4934 20.9107 13.5527 21.8514Z" fill="#08C7D3"/>
        </g>
    </g>
    <defs>
        <clipPath id="clip0_296_124717">
            <rect width="14" height="14" fill="white" transform="translate(9 9)"/>
        </clipPath>
    </defs>
</svg>
