<svg width="18" height="18" viewBox="0 0 18 18" fill="none" xmlns="http://www.w3.org/2000/svg">
    <g clip-path="url(#clip0_2213_28264)">
        <path d="M13.5 10.7227V15.1875L7.875 18V13.0078C7.875 12.2414 7.57266 11.5102 7.03125 10.9688C6.49336 10.4309 5.76211 10.125 4.9957 10.125L0 10.111L2.8125 4.50002H7.27734C10.3395 -0.544906 15.1805 -0.295296 17.673 0.32697C18.2953 2.81955 18.5449 7.66056 13.5 10.7227ZM14.9062 4.50002C14.9062 3.72306 14.277 3.09377 13.5 3.09377C12.723 3.09377 12.0938 3.72306 12.0938 4.50002C12.0938 5.27697 12.723 5.90627 13.5 5.90627C14.277 5.90627 14.9062 5.27697 14.9062 4.50002ZM5.85352 16.5235C4.11328 18.2637 0.0175781 17.9824 0.0175781 17.9824C0.0175781 17.9824 -0.263672 13.8867 1.47656 12.1465C2.68594 10.9371 4.64414 10.9371 5.85352 12.1465C7.06289 13.3559 7.06289 15.3141 5.85352 16.5235Z" fill="#615F77"/>
    </g>
    <defs>
        <clipPath id="clip0_2213_28264">
            <rect width="18" height="18" fill="white"/>
        </clipPath>
    </defs>
</svg>
