<svg width="44" height="44" viewBox="0 0 44 44" fill="none" xmlns="http://www.w3.org/2000/svg">
    <g filter="url(#filter0_d_1187_35)">
        <circle cx="22" cy="18" r="18" fill="#C68C43"/>
        <mask id="mask0_1187_35" style="mask-type:alpha" maskUnits="userSpaceOnUse" x="4" y="0" width="36" height="36">
            <circle cx="22" cy="18" r="18" fill="#1C2436"/>
        </mask>
        <g mask="url(#mask0_1187_35)">
            <g opacity="0.5" filter="url(#filter1_f_1187_35)">
                <circle cx="22" cy="41" r="11" fill="#FFF6D6"/>
            </g>
        </g>
        <circle cx="22" cy="18" r="15.5" stroke="#835C2C"/>
    </g>
    <path d="M18.5042 17.6358L15.2351 17.3502C14.6101 17.2956 14.3145 16.5331 14.7497 16.098L16.2495 14.5982C17.1854 13.6622 18.5661 13.3129 19.8725 13.6814L20.3545 13.8173M21.6971 20.8288L21.9827 24.0978C22.0373 24.7228 22.7998 25.0184 23.235 24.5832L24.7348 23.0835C25.6707 22.1475 26.0201 20.7669 25.6516 19.4605L25.5156 18.9785M17.9933 19.2402C19.0361 15.1963 22.7248 7.7526 29.0536 10.215C29.0631 10.2187 29.0722 10.2245 29.0794 10.2317V10.2317C29.0866 10.2389 29.0924 10.2479 29.0961 10.2574C31.5585 16.5863 24.1147 20.275 20.0709 21.3178L17.9933 19.2402Z" stroke="white"/>
    <path d="M26.4286 14.8141C25.9423 15.3005 25.1404 15.2871 24.6375 14.7843C24.1347 14.2814 24.1213 13.4795 24.6077 12.9932C25.094 12.5068 25.8959 12.5202 26.3988 13.023C26.9016 13.5259 26.915 14.3278 26.4286 14.8141Z" stroke="white"/>
    <path d="M18.6015 22.7358L15.1674 24.1646L16.5961 20.7305L18.6015 22.7358Z" stroke="white"/>
    <defs>
        <filter id="filter0_d_1187_35" x="0" y="0" width="44" height="44" filterUnits="userSpaceOnUse" colorInterpolationFilters="sRGB">
            <feFlood floodOpacity="0" result="BackgroundImageFix"/>
            <feColorMatrix in="SourceAlpha" type="matrix" values="0 0 0 0 0 0 0 0 0 0 0 0 0 0 0 0 0 0 127 0" result="hardAlpha"/>
            <feOffset dy="4"/>
            <feGaussianBlur stdDeviation="2"/>
            <feComposite in2="hardAlpha" operator="out"/>
            <feColorMatrix type="matrix" values="0 0 0 0 0 0 0 0 0 0 0 0 0 0 0 0 0 0 0.15 0"/>
            <feBlend mode="normal" in2="BackgroundImageFix" result="effect1_dropShadow_1187_35"/>
            <feBlend mode="normal" in="SourceGraphic" in2="effect1_dropShadow_1187_35" result="shape"/>
        </filter>
        <filter id="filter1_f_1187_35" x="2" y="21" width="40" height="40" filterUnits="userSpaceOnUse" colorInterpolationFilters="sRGB">
            <feFlood floodOpacity="0" result="BackgroundImageFix"/>
            <feBlend mode="normal" in="SourceGraphic" in2="BackgroundImageFix" result="shape"/>
            <feGaussianBlur stdDeviation="4.5" result="effect1_foregroundBlur_1187_35"/>
        </filter>
    </defs>
</svg>
