<svg width="45" height="46" viewBox="0 0 45 46" fill="none" xmlns="http://www.w3.org/2000/svg">
<path d="M17.9734 22.2917L13.9225 21.9378C13.148 21.8702 12.7817 20.9253 13.321 20.3861L15.1794 18.5276C16.3392 17.3678 18.0501 16.9349 19.6689 17.3915L20.2662 17.56M21.9299 26.2483L22.2838 30.2992C22.3515 31.0737 23.2964 31.44 23.8356 30.9007L25.6941 29.0422C26.8539 27.8825 27.2868 26.1716 26.8302 24.5528L26.6617 23.9555M17.3403 24.2798C18.6325 19.2688 23.2034 10.0448 31.0459 13.0961C31.0577 13.1007 31.0688 13.1079 31.0778 13.1168V13.1168C31.0867 13.1258 31.0939 13.1369 31.0985 13.1487C34.1498 20.9912 24.9258 25.562 19.9148 26.8542L17.3403 24.2798Z" stroke="#C68C43"/>
<path d="M27.7902 18.7959C27.1876 19.3986 26.1939 19.382 25.5708 18.7589C24.9477 18.1358 24.9311 17.1421 25.5338 16.5395C26.1364 15.9368 27.1301 15.9534 27.7532 16.5765C28.3763 17.1996 28.3929 18.1933 27.7902 18.7959Z" stroke="#C68C43"/>
<path d="M18.3057 28.6543L13.6177 30.6047L15.5681 25.9167L18.3057 28.6543Z" stroke="#C68C43"/>
</svg>
