<svg width="18" height="20" viewBox="0 0 18 20" fill="none" xmlns="http://www.w3.org/2000/svg">
    <g clip-path="url(#clip0_2213_28257)">
        <path d="M0.5 10.7607C0.5 5.84375 7.17857 0.5 7.17857 0.5C7.17857 0.5 9.62612 2.70059 10.5406 3.81758C10.958 3.2832 12.3393 2.22559 12.3393 2.22559C12.3393 2.22559 17.5 6.43379 17.5 10.757C17.5 15.4996 13.7129 19.5 9 19.5C4.23393 19.5 0.5 15.4959 0.5 10.7607ZM9.06451 15.9375C10.0246 15.9375 10.8746 15.6777 11.6752 15.1582C13.2728 14.0672 13.7016 11.8852 12.7415 10.1707C12.6353 9.96289 12.529 9.75508 12.3696 9.54727L10.4496 11.7293C10.4496 11.7293 7.36071 7.88477 7.14442 7.625C5.55067 9.54727 4.75 10.6383 4.75 11.8852C4.75 14.4309 6.67009 15.9375 9.06451 15.9375Z" fill="#615F77"/>
    </g>
    <defs>
        <clipPath id="clip0_2213_28257">
            <rect width="17" height="19" fill="white" transform="translate(0.5 0.5)"/>
        </clipPath>
    </defs>
</svg>
