<svg width="45" height="46" viewBox="0 0 45 46" fill="none" xmlns="http://www.w3.org/2000/svg">
<path d="M27.459 16.4634C27.7594 19.0928 25.5773 20.2992 25.5773 20.2992C25.6722 11.4367 19.4265 11.545 19.4265 11.545C20.7231 12.6431 22.2094 16.5717 18.4303 19.0928C18.3829 19.1237 18.3197 19.1701 18.2722 19.201C13.418 22.5728 13.8132 31.2187 19.0786 32.6107C17.8769 30.7238 18.0034 27.9088 20.0906 26.4549C20.1222 26.4395 20.1538 26.4085 20.1855 26.3931C22.3201 24.9701 21.4662 22.7429 20.7389 22.1397C20.7389 22.1397 24.2649 22.0778 24.2017 27.0736C24.2017 27.0736 25.435 26.3931 25.2611 24.9083C25.2611 24.9083 26.5735 27.5685 26.5419 29.8576C26.5261 30.832 26.2573 31.7291 25.7987 32.4715C28.1231 31.0795 29.6884 29.0379 29.7359 25.9136C29.7991 21.8613 27.459 16.4634 27.459 16.4634Z" stroke="#C68C43" stroke-linejoin="round"/>
</svg>
