<svg width="32" height="32" viewBox="0 0 32 32" fill="none" xmlns="http://www.w3.org/2000/svg">
    <path d="M0.25 1C0.25 0.585787 0.585786 0.25 1 0.25H23.5858C23.7847 0.25 23.9755 0.329018 24.1161 0.46967L31.5303 7.88388C31.671 8.02454 31.75 8.2153 31.75 8.41421V31C31.75 31.4142 31.4142 31.75 31 31.75H1C0.585786 31.75 0.25 31.4142 0.25 31V1Z" fill="#FFC01F" fill-opacity="0.1" stroke="#FFC01F" stroke-width="0.5"/>
    <g opacity="0.8">
        <g clipPath="url(#clip0_296_124710)">
            <path d="M9.875 16.5605C9.875 12.9375 14.6875 9 14.6875 9C14.6875 9 16.4512 10.6215 17.1102 11.4445C17.4109 11.0508 18.4062 10.2715 18.4062 10.2715C18.4062 10.2715 22.125 13.3723 22.125 16.5578C22.125 20.0523 19.3961 23 16 23C12.5656 23 9.875 20.0496 9.875 16.5605ZM16.0465 20.375C16.7383 20.375 17.3508 20.1836 17.9277 19.8008C19.0789 18.9969 19.3879 17.3891 18.6961 16.1258C18.6195 15.9727 18.543 15.8195 18.4281 15.6664L17.0445 17.2742C17.0445 17.2742 14.8187 14.4414 14.6629 14.25C13.5145 15.6664 12.9375 16.4703 12.9375 17.3891C12.9375 19.2648 14.3211 20.375 16.0465 20.375Z" fill="#FFC01F"/>
        </g>
    </g>
    <defs>
        <clipPath id="clip0_296_124710">
            <rect width="12.25" height="14" fill="white" transform="translate(9.875 9)"/>
        </clipPath>
    </defs>
</svg>