<svg width="18" height="12" viewBox="0 0 18 12" fill="none" xmlns="http://www.w3.org/2000/svg">
    <path d="M10.9104 6.29928L9.77195 10.9733V12H5.93476L6.97988 7.26262L6.95061 7.33275L9.70915 2.97985L9.69085 3.002H4V0H5H6H14V1.59143L12.4909 3.87123L10.9817 6.15102L10.9104 6.29928Z" fill="#615F77"/>
    <path d="M16.1462 8.67458L15.4632 11.4011V12H13.1609L13.7831 9.25796L13.7704 9.27744L13.7879 9.23653L13.7831 9.25796L15.4255 6.73825L15.4145 6.75117H12V5H13H18V5.92833L16.189 8.5881L16.1462 8.67458Z" fill="#615F77"/>
    <path d="M4.14622 8.67458L3.46317 11.4011V12H1.16085L1.78793 9.23653L1.77037 9.27744L3.42549 6.73825L3.41451 6.75117H0V5H1H6V5.92833L4.18902 8.5881L4.14622 8.67458Z" fill="#615F77"/>
</svg>
