<svg width="20" height="18" viewBox="0 0 20 18" fill="none" xmlns="http://www.w3.org/2000/svg">
    <path d="M9.99566 13.1146L9.99907 13.1112L10.9014 13.5931L13.8133 15.1482L13.2494 11.8124L13.0854 10.8315L13.7928 10.1309L16.1887 7.76233L12.9042 7.277L11.9028 7.13004L11.4619 6.2209L9.99907 3.22007L9.99566 3.23032V13.1146ZM15.9802 16.4743C16.0486 16.8844 15.8777 17.3014 15.5393 17.5441C15.201 17.7867 14.7532 17.8175 14.3841 17.6227L9.99907 15.2815L5.61404 17.6227C5.24491 17.8175 4.79718 17.7867 4.45882 17.5441C4.12046 17.3014 3.94957 16.8844 4.01792 16.4743L4.86212 11.4946L1.30077 7.97082C1.00684 7.6803 0.900886 7.24624 1.03076 6.85319C1.16064 6.46015 1.499 6.17305 1.90914 6.11153L6.8171 5.38696L9.01817 0.865204C9.20273 0.489246 9.5821 0.25 10.0025 0.25C10.4229 0.25 10.8023 0.489246 10.9868 0.865204L13.1845 5.38696L18.0924 6.11153C18.5026 6.17305 18.8443 6.46015 18.9708 6.85319C19.0973 7.24624 18.9947 7.6803 18.7008 7.97082L15.1394 11.4946L15.9802 16.4743Z" fill="#615F77"/>
</svg>
