<svg width="27" height="33" viewBox="0 0 27 33" fill="none" xmlns="http://www.w3.org/2000/svg">
<g id="Mask group">
<mask id="mask0_9128_43251" style="mask-type:alpha" maskUnits="userSpaceOnUse" x="0" y="0" width="27" height="33">
<g id="Group">
<path id="Vector" d="M18.5032 0.53125C18.6749 0.703662 18.6474 0.883259 18.5376 1.08441C18.1255 1.86026 17.7271 2.63612 17.315 3.43352C19.9318 4.98524 21.4771 7.23378 21.6076 10.4665C15.9689 10.4665 10.3713 10.4665 4.71875 10.4665C4.83551 7.24096 6.38085 4.99242 9.01824 3.43352C8.84653 3.10307 8.6817 2.77261 8.50999 2.44215C8.26961 1.98239 8.03609 1.51544 7.78883 1.05567C7.68581 0.861707 7.67894 0.689295 7.83691 0.53125C7.91933 0.53125 7.99488 0.53125 8.0773 0.53125C8.17345 0.696479 8.28334 0.854523 8.37263 1.02694C8.75038 1.74532 9.12813 2.47089 9.51275 3.20364C11.9647 2.14043 14.4098 2.14762 16.8411 3.20364C17.0059 2.89474 17.1502 2.61457 17.2944 2.3344C17.6172 1.73814 17.9469 1.13469 18.2697 0.538434C18.3452 0.53125 18.4208 0.53125 18.5032 0.53125ZM9.3067 7.29125C9.67759 7.29844 10.0073 6.97516 10.021 6.58005C10.0347 6.18494 9.70506 5.82575 9.32044 5.81856C8.95643 5.81138 8.63362 6.14902 8.62675 6.54413C8.62675 6.94643 8.93582 7.28407 9.3067 7.29125ZM17.0266 7.29125C17.4043 7.28407 17.7065 6.94643 17.6996 6.54413C17.6928 6.14902 17.37 5.81138 17.0059 5.81856C16.6351 5.82575 16.3123 6.17057 16.3123 6.55132C16.3054 6.95361 16.6419 7.29844 17.0266 7.29125Z" fill="#5ADB87"/>
<path id="Vector_2" d="M18.1917 25.968C18.1917 26.1619 18.1917 26.3056 18.1917 26.4493C18.1849 27.8142 18.2055 29.172 18.1505 30.5369C18.1162 31.4995 17.2783 32.2466 16.3305 32.261C15.4033 32.2754 14.5859 31.5642 14.4623 30.6231C14.4348 30.4076 14.4211 30.1921 14.4211 29.9765C14.4142 28.6547 14.4211 27.3329 14.4211 25.9967C13.5832 25.9967 12.7727 25.9967 11.9142 25.9967C11.9142 26.1116 11.9142 26.2194 11.9142 26.3271C11.9142 27.6202 11.9211 28.9062 11.9142 30.1992C11.9073 31.3056 11.2343 32.1245 10.2727 32.2466C9.20128 32.3831 8.23286 31.557 8.19852 30.4219C8.15731 29.0714 8.17105 27.7136 8.15731 26.3631C8.15731 26.2409 8.15731 26.1188 8.15731 25.9464C7.62159 25.9464 7.12021 25.968 6.61883 25.9392C5.65729 25.8889 4.86745 25.0341 4.81937 24.0211C4.8125 23.899 4.8125 23.7769 4.8125 23.6476C4.8125 19.6102 4.8125 15.5729 4.8125 11.5356C4.8125 11.4278 4.8125 11.3129 4.8125 11.1836C10.3963 11.1836 15.9527 11.1836 21.5228 11.1836C21.5297 11.2914 21.5366 11.3919 21.5366 11.4925C21.5366 15.5586 21.5228 19.6318 21.5434 23.6979C21.5503 24.9263 20.8017 25.7453 19.9981 25.8889C19.5379 25.9751 19.0571 25.9392 18.5832 25.9536C18.4665 25.968 18.3497 25.968 18.1917 25.968Z" fill="#5ADB87"/>
<path id="Vector_3" d="M22.2917 16.8369C22.2917 15.4145 22.2642 13.985 22.2985 12.5625C22.326 11.5855 23.1364 10.8312 24.0843 10.8169C25.0733 10.7953 25.8837 11.5209 25.9799 12.5194C26.0005 12.7134 26.0073 12.9074 26.0073 13.1085C26.0073 15.6588 26.0073 18.2091 26.0073 20.7593C26.0073 21.4849 25.8082 22.1027 25.2312 22.5409C24.6543 22.9719 24.0224 23.051 23.3837 22.7492C22.745 22.4547 22.3191 21.9231 22.2985 21.176C22.271 19.7248 22.2917 18.2809 22.2917 16.8369Z" fill="#5ADB87"/>
<path id="Vector_4" d="M4.05163 16.8737C4.05163 18.2961 4.0791 19.7257 4.04476 21.1481C4.01729 22.1467 3.20684 22.901 2.2453 22.9082C1.26314 22.9225 0.459565 22.1898 0.36341 21.1912C0.342806 20.9973 0.335938 20.8033 0.335938 20.6022C0.335938 18.0519 0.335938 15.5016 0.335938 12.9514C0.335938 12.0821 0.645006 11.4068 1.40738 11.0045C2.55436 10.4011 4.00355 11.2344 4.05163 12.5634C4.09284 14.0002 4.05163 15.437 4.05163 16.8737Z" fill="#5ADB87"/>
</g>
</mask>
<g mask="url(#mask0_9128_43251)">
<rect id="Rectangle 4257" x="-3.15625" y="-3.07031" width="35.0084" height="39.6419" fill="url(#paint0_linear_9128_43251)"/>
</g>
</g>
<defs>
<linearGradient id="paint0_linear_9128_43251" x1="14.3479" y1="-3.07031" x2="14.3479" y2="36.5715" gradientUnits="userSpaceOnUse">
<stop stop-color="#26CD51"/>
<stop offset="1" stop-color="#067221"/>
</linearGradient>
</defs>
</svg>
