<svg width="26" height="32" viewBox="0 0 26 32" fill="none" xmlns="http://www.w3.org/2000/svg">
<g id="Group">
<path id="Vector" d="M19.182 31.717C18.9107 31.717 18.6321 31.717 18.3609 31.717C17.6718 31.4577 16.968 31.2213 16.2862 30.9314C14.6733 30.245 13.0605 30.2374 11.433 30.8475C10.6559 31.1374 9.87881 31.4272 9.10904 31.717C8.79381 31.717 8.4859 31.717 8.17066 31.717C8.156 31.7018 8.14134 31.6789 8.12668 31.6789C7.03434 31.4958 6.19127 30.8552 5.43616 30.0696C4.4538 29.0399 3.6767 27.8501 2.98025 26.5993C1.19146 23.3883 0.216425 19.9484 0.458351 16.2035C0.546325 14.8383 0.839568 13.5112 1.47004 12.2985C2.36444 10.59 3.66204 9.30865 5.35552 8.46967C6.54316 7.88238 7.79678 7.6612 9.08705 7.95103C9.93746 8.1417 10.7732 8.43916 11.6089 8.71373C12.4813 9.00356 13.3537 9.28577 14.2701 9.10272C14.9153 8.97306 15.5531 8.7595 16.1689 8.52306C17.0853 8.18747 18.0017 7.89001 18.9767 7.83662C20.8828 7.73747 22.5103 8.44679 23.9398 9.69763C24.3724 10.079 24.7536 10.5214 25.1715 10.9561C22.7742 12.4663 21.5866 14.6171 21.8065 17.462C22.0264 20.2917 23.4927 22.2747 25.9999 23.4111C25.9852 23.4721 25.9706 23.5103 25.9559 23.5484C25.1935 25.4094 24.2184 27.1332 23.0381 28.7348C22.0264 30.1077 20.9268 31.3738 19.182 31.717Z" fill="url(#paint0_linear_9128_43248)"/>
<path id="Vector_2" d="M18.8217 0.546875C19.3495 4.09347 16.3071 8.15108 12.8248 8.00617C12.2457 5.19177 14.7602 0.996873 18.8217 0.546875Z" fill="url(#paint1_linear_9128_43248)"/>
</g>
<defs>
<linearGradient id="paint0_linear_9128_43248" x1="13.2109" y1="7.82422" x2="13.2109" y2="31.717" gradientUnits="userSpaceOnUse">
<stop stop-color="#DFDFDF"/>
<stop offset="1" stop-color="#7B7B7B"/>
</linearGradient>
<linearGradient id="paint1_linear_9128_43248" x1="15.8119" y1="0.546875" x2="15.8119" y2="8.00994" gradientUnits="userSpaceOnUse">
<stop stop-color="#DFDFDF"/>
<stop offset="1" stop-color="#7B7B7B"/>
</linearGradient>
</defs>
</svg>
