<svg width="450" height="560" viewBox="0 0 450 560" fill="none" xmlns="http://www.w3.org/2000/svg">
<path opacity="0.25" d="M0 60V0H60L0 60Z" fill="#FA00FF"/>
<path d="M0 70L70 0H450V474L380 544H0V70Z" fill="#121120"/>
<path d="M411 494L413 511L450 474V295L440 305V464L411 494Z" fill="#2A2944"/>
<path opacity="0.25" d="M4 540V508L36 540H4Z" fill="#FA00FF"/>
<path opacity="0.25" d="M239 554L229 544H380L413 511V527L380 560H312L306 554H239Z" fill="#FA00FF"/>
<path opacity="0.25" d="M281 6L275 0H450V182L444 176V131L438 125V24L426 6H281Z" fill="#FA00FF"/>
<g opacity="0.2">
<path d="M425.486 451.967H395.167V464H389.514V433.19H395.167V445.224H425.486V451.967Z" fill="#484658"/>
<path d="M404.468 421.906V403.856H409.967V421.906H404.468ZM419.885 421.387V400.899H425.486V428.13H389.514V401.626H395.115V421.387H419.885Z" fill="#484658"/>
<path d="M425.486 393.383H389.514V386.64H419.833V367.656H425.486V393.383Z" fill="#484658"/>
<path d="M404.468 356.109V338.059H409.967V356.109H404.468ZM419.885 355.59V335.102H425.486V362.333H389.514V335.828H395.115V355.59H419.885Z" fill="#484658"/>
<path d="M426 310.625C426 313.46 425.555 316.071 424.664 318.457C423.739 320.808 422.454 322.865 420.81 324.629C419.131 326.393 417.161 327.758 414.9 328.727C412.639 329.695 410.172 330.179 407.5 330.179C404.828 330.179 402.361 329.695 400.1 328.727C397.839 327.758 395.886 326.393 394.242 324.629C392.563 322.831 391.278 320.739 390.388 318.353C389.463 315.967 389 313.356 389 310.521C389 307.443 389.497 304.677 390.49 302.222C391.484 299.732 392.94 297.64 394.858 295.946L398.969 300.199C397.565 301.617 396.537 303.156 395.886 304.815C395.201 306.441 394.858 308.239 394.858 310.21C394.858 312.112 395.167 313.875 395.783 315.5C396.4 317.125 397.274 318.526 398.404 319.702C399.535 320.877 400.871 321.794 402.412 322.451C403.954 323.073 405.65 323.384 407.5 323.384C409.316 323.384 410.994 323.073 412.536 322.451C414.078 321.794 415.431 320.877 416.596 319.702C417.726 318.526 418.6 317.143 419.217 315.552C419.833 313.962 420.142 312.198 420.142 310.262C420.142 308.464 419.868 306.735 419.319 305.075C418.737 303.38 417.778 301.773 416.442 300.251L421.426 296.413C422.934 298.315 424.081 300.528 424.869 303.052C425.623 305.542 426 308.066 426 310.625ZM420.553 302.793H407.089V296.413H421.426L420.553 302.793Z" fill="#484658"/>
<path d="M425.486 287.52H389.514V272.582C389.514 269.366 390.028 266.617 391.056 264.335C392.083 262.018 393.556 260.237 395.475 258.992C397.394 257.747 399.672 257.125 402.31 257.125C404.948 257.125 407.226 257.747 409.144 258.992C411.029 260.237 412.485 262.018 413.513 264.335C414.506 266.617 415.003 269.366 415.003 272.582V283.785L411.971 280.777H425.486V287.52ZM425.486 263.764L412.433 272.945V265.735L425.486 256.503V263.764ZM412.69 280.777L409.504 283.785V272.893C409.504 269.919 408.87 267.689 407.603 266.202C406.335 264.68 404.571 263.92 402.31 263.92C400.014 263.92 398.25 264.68 397.017 266.202C395.783 267.689 395.167 269.919 395.167 272.893V283.785L391.878 280.777H412.69Z" fill="#484658"/>
<path d="M425.486 254.716L389.514 238.378V231.738L425.486 215.348V222.402L393.06 236.458V233.761L425.486 247.766V254.716ZM417.161 247.195L411.919 245.38V225.774L417.161 223.958V247.195Z" fill="#484658"/>
<path d="M425.486 210.731H389.514V205.181L415.774 189.309V192.214L389.514 176.602V171.052L425.486 171V177.38L399.432 177.432V176.083L421.375 189.361V192.37L399.432 205.855V204.299H425.486V210.731Z" fill="#484658"/>
</g>
</svg>
