<svg width="328" height="441" viewBox="0 0 328 441" fill="none" xmlns="http://www.w3.org/2000/svg">
<path opacity="0.25" d="M0 60V0H60L0 60Z" fill="#FA00FF"/>
<path d="M0 70L70 0H328V355L258 425H0V70Z" fill="#121120"/>
<path d="M307 357L309 374L328 355V209L318 219V345L307 357Z" fill="#2A2944"/>
<path opacity="0.25" d="M4 421V389L36 421H4Z" fill="#FA00FF"/>
<path opacity="0.25" d="M159 435L149 425L258 425L309 374V390L258 441L232 441L226 435H159Z" fill="#FA00FF"/>
<path opacity="0.25" d="M159 6L153 0H328V182L322 176V131L316 125V24L304 6H159Z" fill="#FA00FF"/>
<g opacity="0.2">
<path d="M311.75 337.168H297V343H294.25V328.068H297V333.9H311.75V337.168Z" fill="#484658"/>
<path d="M301.525 322.599V313.852H304.2V322.599H301.525ZM309.025 322.348V312.419H311.75V325.616H294.25V312.771H296.975V322.348H309.025Z" fill="#484658"/>
<path d="M311.75 308.776H294.25V305.508H309V296.308H311.75V308.776Z" fill="#484658"/>
<path d="M301.525 290.711V281.964H304.2V290.711H301.525ZM309.025 290.46V280.531H311.75V293.728H294.25V280.883H296.975V290.46H309.025Z" fill="#484658"/>
<path d="M312 268.668C312 270.042 311.783 271.307 311.35 272.464C310.9 273.603 310.275 274.6 309.475 275.455C308.658 276.31 307.7 276.972 306.6 277.441C305.5 277.91 304.3 278.145 303 278.145C301.7 278.145 300.5 277.91 299.4 277.441C298.3 276.972 297.35 276.31 296.55 275.455C295.733 274.584 295.108 273.57 294.675 272.413C294.225 271.257 294 269.992 294 268.618C294 267.126 294.242 265.786 294.725 264.596C295.208 263.389 295.917 262.375 296.85 261.554L298.85 263.615C298.167 264.302 297.667 265.048 297.35 265.853C297.017 266.64 296.85 267.512 296.85 268.467C296.85 269.389 297 270.243 297.3 271.031C297.6 271.818 298.025 272.497 298.575 273.067C299.125 273.637 299.775 274.081 300.525 274.399C301.275 274.701 302.1 274.852 303 274.852C303.883 274.852 304.7 274.701 305.45 274.399C306.2 274.081 306.858 273.637 307.425 273.067C307.975 272.497 308.4 271.827 308.7 271.056C309 270.285 309.15 269.43 309.15 268.492C309.15 267.621 309.017 266.783 308.75 265.978C308.467 265.157 308 264.378 307.35 263.64L309.775 261.78C310.508 262.702 311.067 263.775 311.45 264.998C311.817 266.204 312 267.428 312 268.668ZM309.35 264.872H302.8V261.78H309.775L309.35 264.872Z" fill="#484658"/>
<path d="M311.75 257.47H294.25V250.231C294.25 248.672 294.5 247.34 295 246.234C295.5 245.111 296.217 244.248 297.15 243.645C298.083 243.041 299.192 242.74 300.475 242.74C301.758 242.74 302.867 243.041 303.8 243.645C304.717 244.248 305.425 245.111 305.925 246.234C306.408 247.34 306.65 248.672 306.65 250.231V255.66L305.175 254.202H311.75V257.47ZM311.75 245.957L305.4 250.407V246.913L311.75 242.438V245.957ZM305.525 254.202L303.975 255.66V250.382C303.975 248.94 303.667 247.859 303.05 247.139C302.433 246.401 301.575 246.033 300.475 246.033C299.358 246.033 298.5 246.401 297.9 247.139C297.3 247.859 297 248.94 297 250.382V255.66L295.4 254.202H305.525Z" fill="#484658"/>
<path d="M311.75 241.572L294.25 233.654V230.436L311.75 222.493V225.912L295.975 232.724V231.417L311.75 238.204V241.572ZM307.7 237.927L305.15 237.048V227.546L307.7 226.666V237.927Z" fill="#484658"/>
<path d="M311.75 220.255H294.25V217.566L307.025 209.873V211.281L294.25 203.715V201.025L311.75 201V204.092L299.075 204.117V203.463L309.75 209.899V211.357L299.075 217.892V217.138H311.75V220.255Z" fill="#484658"/>
</g>
</svg>
