<svg width="109" height="139" viewBox="0 0 109 139" fill="none" xmlns="http://www.w3.org/2000/svg">
<g opacity="0.1">
<path d="M87.1393 64.336C87.7099 70.205 88.2805 75.9925 88.8918 81.7799C88.9326 82.1875 89.2994 82.6766 89.6662 82.8804C97.6138 87.0376 99.6924 94.007 98.9995 102.281C98.8773 103.544 98.7142 104.808 98.3882 106.071C96.7172 113.04 91.7041 117.524 84.4086 118.013C79.3547 118.38 74.2601 118.257 69.2063 118.339C68.0651 118.339 66.9647 118.339 65.9457 118.339C61.6255 133.5 52.2107 142.548 36.0302 141.815C21.4393 141.163 13.0841 132.237 9.33447 118.339C5.46256 118.339 1.42764 118.42 -2.60728 118.298C-5.25648 118.257 -7.94643 118.176 -10.5549 117.727C-18.1356 116.464 -22.8227 111.492 -23.5563 103.789C-23.8416 100.691 -23.8008 97.4713 -23.3118 94.4146C-22.5374 89.2792 -19.4806 85.5703 -14.8751 83.1657C-13.9784 82.6766 -13.6524 82.106 -13.5301 81.1278C-12.3889 69.7159 -11.207 58.304 -10.1065 46.8921C-9.57669 41.3491 -9.04685 35.7655 -6.84598 30.5893C0.612522 12.9824 13.6955 2.63014 32.8104 0.347753C41.2878 -0.671168 49.48 0.796078 57.3053 4.30117C57.8351 4.54571 58.7318 4.46419 59.3024 4.1789C80.6182 -7.27378 104.869 6.17598 108.211 27.9809C109.107 33.9314 108.618 39.8819 106.784 45.6286C103.931 54.5951 97.6546 60.2603 89.0549 63.5616C88.525 63.8469 87.9137 64.0507 87.1393 64.336ZM77.806 66.3331C63.4188 66.7814 52.4145 60.7902 45.9749 48.1148C39.4945 35.3986 41.4101 23.0493 50.2951 11.4336C47.1976 10.863 44.3446 10.1702 41.4509 9.80334C23.3548 7.64323 5.38106 19.7073 1.06083 37.3957C-0.569441 44.0798 -0.895502 51.09 -1.66988 57.9779C-2.6888 67.189 -3.58545 76.4 -4.44134 85.6111C-4.68588 88.2195 -5.90858 89.8498 -8.43551 90.6649C-11.1255 91.5616 -13.0818 93.3549 -13.9377 96.2079C-16.1793 103.544 -12.2667 108.883 -4.64513 108.924C-4.35983 108.924 -4.03377 108.924 -3.74847 108.924C23.8439 108.924 51.4363 108.924 79.0287 108.924C79.5585 108.924 80.1291 108.924 80.659 108.924C85.1422 108.761 88.8511 105.46 89.6255 100.976C90.3998 96.3301 88.199 92.4175 83.838 90.7057C83.512 90.5834 83.1859 90.4612 82.8598 90.3389C81.1888 89.646 80.1699 88.3825 79.9253 86.5892C79.7215 84.8775 79.5585 83.1657 79.3548 81.4539C78.8249 76.4 78.3358 71.4277 77.806 66.3331ZM75.4829 56.8367C88.6473 56.8367 99.1626 46.3622 99.1626 33.2385C99.2033 20.1556 88.7288 9.5588 75.7274 9.5588C62.4407 9.51804 51.8846 19.9926 51.8439 33.157C51.8439 46.3215 62.3184 56.8367 75.4829 56.8367ZM19.1161 118.38C20.0535 124.167 22.7027 128.61 28.2457 130.851C32.8512 132.726 37.6605 132.848 42.5106 132.115C50.3766 130.933 55.349 125.879 56.1234 118.339C43.8148 118.38 31.5062 118.38 19.1161 118.38Z" fill="#B2C4F7"/>
<path d="M73.158 31.2803C76.8261 27.5714 80.3312 24.0256 83.9178 20.4797C86.6485 17.7898 90.8872 18.8495 91.9061 22.4768C92.3952 24.1886 91.9876 25.7374 90.7649 26.9601C85.9964 31.8101 81.2278 36.5787 76.4185 41.3065C74.4622 43.2221 71.7722 43.1406 69.8159 41.225C67.452 38.9426 65.1289 36.5787 62.8057 34.2148C60.8494 32.2177 60.8494 29.3647 62.7242 27.4899C64.599 25.6151 67.452 25.6151 69.4491 27.5307C70.631 28.7126 71.813 29.9353 73.158 31.2803Z" fill="#B2C4F7"/>
</g>
</svg>
