<svg width="12" height="22" viewBox="0 0 12 22" fill="none" xmlns="http://www.w3.org/2000/svg">
<path opacity="0.9" fill-rule="evenodd" clip-rule="evenodd" d="M6.04363 0.46875L6.0543 0.468758C6.0515 0.534383 6.04924 0.60015 6.04754 0.666055C6.04583 0.600148 6.04358 0.534379 6.04077 0.468752L6.04363 0.46875ZM0.234375 10.9688C3.62661 9.03681 5.94012 5.42858 6.04754 1.27144C6.15495 5.42858 8.46846 9.03681 11.8607 10.9688C8.46846 12.9007 6.15495 16.5089 6.04754 20.6661C5.94012 16.5089 3.62661 12.9007 0.234375 10.9688ZM6.04754 21.2714C6.04583 21.3373 6.04357 21.4031 6.04077 21.4688H6.04363C6.04719 21.4688 6.05075 21.4687 6.0543 21.4687C6.0515 21.4031 6.04924 21.3373 6.04754 21.2714Z" fill="white"/>
</svg>
