<svg width="11" height="20" viewBox="0 0 11 20" fill="none" xmlns="http://www.w3.org/2000/svg">
<path id="Subtract" opacity="0.9" fill-rule="evenodd" clip-rule="evenodd" d="M5.26056 0.46875L5.2711 0.468755C5.26459 0.619789 5.2613 0.771657 5.2613 0.924294C5.2613 4.79857 7.37881 8.17828 10.5196 9.96922C7.37881 11.7601 5.2613 15.1399 5.2613 19.0141C5.2613 19.1665 5.26458 19.318 5.27106 19.4687C5.26756 19.4687 5.26406 19.4688 5.26056 19.4688L5.24857 19.4687C5.25505 19.318 5.25833 19.1665 5.25833 19.0141C5.25833 15.1399 3.14082 11.7601 0 9.96922C3.14082 8.17828 5.25833 4.79857 5.25833 0.924294C5.25833 0.771659 5.25504 0.619792 5.24853 0.468759L5.26056 0.46875Z" fill="white"/>
</svg>
