<svg width="8" height="15" viewBox="0 0 8 15" fill="none" xmlns="http://www.w3.org/2000/svg">
<path opacity="0.3" fill-rule="evenodd" clip-rule="evenodd" d="M7.7486 7.4694C5.48773 6.18128 3.94589 3.77614 3.8743 1.00517C3.8027 3.77614 2.26087 6.18128 0 7.4694C2.26087 8.75752 3.8027 11.1627 3.8743 13.9336C3.94589 11.1627 5.48773 8.75752 7.7486 7.4694ZM3.8743 14.3372C3.87316 14.3811 3.87166 14.425 3.86979 14.4687L3.8769 14.4688C3.87754 14.4688 3.87817 14.4688 3.87881 14.4688C3.87694 14.425 3.87543 14.3811 3.8743 14.3372ZM3.87887 0.46875C3.87697 0.512938 3.87544 0.557221 3.8743 0.601598C3.87315 0.557222 3.87163 0.512939 3.86973 0.468753L3.8769 0.46875H3.87887Z" fill="white"/>
</svg>
