<svg width="121" height="136" viewBox="0 0 121 136" fill="none" xmlns="http://www.w3.org/2000/svg">
<g opacity="0.1">
<path d="M120.362 99.5676C120.021 100.292 119.766 101.016 119.341 101.697C117.766 104.296 115.425 105.446 112.403 105.446C105.806 105.403 99.252 105.446 92.6552 105.446C92.0593 105.446 91.5061 105.446 90.74 105.446C90.6974 106.127 90.6548 106.681 90.6548 107.235C90.6548 114.05 90.6974 120.822 90.6548 127.637C90.6123 131.3 88.1438 134.324 84.7815 134.963C81.2916 135.645 77.8442 133.941 76.5248 130.746C76.0566 129.554 75.8438 128.191 75.8438 126.87C75.7587 120.396 75.8013 113.922 75.8013 107.447C75.8013 106.851 75.8013 106.297 75.8013 105.446C75.0777 105.446 74.4819 105.446 73.8435 105.446C67.1615 105.446 60.4795 105.488 53.7976 105.403C48.6903 105.36 45.3281 101.144 46.3921 96.3304C47.1156 93.0081 50.0097 90.6228 53.4997 90.6228C60.3093 90.5803 67.0764 90.6228 73.8861 90.6228C74.4393 90.6228 75.0352 90.6228 75.8013 90.6228C75.8013 89.8562 75.8013 89.2172 75.8013 88.6209C75.8013 81.9763 75.7587 75.3316 75.8013 68.6869C75.8438 63.1923 80.6957 59.6144 85.6753 61.3182C88.6971 62.383 90.6548 65.109 90.6548 68.5591C90.6974 75.2464 90.6548 81.9337 90.6548 88.6209C90.6548 89.2172 90.6548 89.771 90.6548 90.5802C91.2933 90.5802 91.8465 90.5802 92.4424 90.5802C98.6136 90.5802 104.742 90.7506 110.914 90.5377C115.51 90.3673 118.702 91.9433 120.319 96.373C120.362 97.4379 120.362 98.5027 120.362 99.5676Z" fill="#D6E0FF"/>
<path d="M-1.24078 65.6645C-5.8373 61.2347 -9.19955 56.0809 -11.1999 50.0325C-19.414 25.2428 -0.219322 -0.185811 25.8702 0.921633C46.1715 1.77351 62.0039 18.5556 61.706 38.8729C61.4081 59.0199 45.15 75.376 25.019 75.6315C9.44188 75.8445 -3.79439 81.2539 -14.3919 92.7117C-21.5421 100.464 -25.7981 109.622 -27.3728 120.227C-26.6493 120.227 -26.0109 120.227 -25.3725 120.227C-9.02933 120.227 7.31387 120.227 23.6996 120.227C27.7428 120.227 30.6369 122.698 31.3179 126.531C31.9989 130.493 29.1048 134.411 25.1466 134.922C24.4657 135.008 23.7847 135.05 23.0612 135.05C3.9516 135.05 -15.158 135.05 -34.2676 135.05C-39.8856 135.05 -42.9499 132.111 -42.652 126.446C-41.2475 98.7175 -28.0112 78.7409 -2.98574 66.6442C-2.51758 66.4312 -2.00687 66.2182 -1.53871 66.0053C-1.49615 66.0053 -1.45358 65.8775 -1.24078 65.6645ZM1.78102 38.5747C1.73846 50.8844 11.6976 60.894 23.955 60.894C36.1698 60.894 46.1289 50.9696 46.1715 38.7451C46.214 26.3928 36.34 16.3833 24.0401 16.3407C11.7827 16.3407 1.82358 26.2651 1.78102 38.5747Z" fill="#D6E0FF"/>
</g>
</svg>
