<svg width="112" height="131" viewBox="0 0 112 131" fill="none" xmlns="http://www.w3.org/2000/svg">
<g opacity="0.1">
<path d="M-38.0938 57.3954C-37.2828 55.6486 -35.7855 54.8376 -34.0387 54.1513C12.2519 36.3089 58.4801 18.4664 104.708 0.68631C105.582 0.311992 106.58 0 107.516 0C110.074 0.0623863 111.758 2.4331 111.197 5.17809C109.575 13.1012 107.952 20.9618 106.268 28.8849C100.84 54.9 95.4752 80.9151 90.0476 106.93C88.6751 113.418 87.365 119.844 85.9925 126.332C85.1815 130.013 82.1246 131.198 79.0676 128.953C68.0253 120.967 57.0453 112.982 46.0029 104.996C42.4469 102.376 40.2634 102.438 36.8945 105.246C31.0302 109.987 25.2282 114.791 19.3639 119.532C16.307 122.028 13.2501 121.092 12.0647 117.286C7.88484 103.873 3.70496 90.5226 -0.412537 77.1095C-0.849239 75.7994 -1.41071 75.0507 -2.78321 74.5516C-13.3265 70.6837 -23.8074 66.691 -34.3507 62.8231C-36.0975 62.1992 -37.47 61.2634 -38.1562 59.5165C-38.0939 58.7679 -38.0938 58.0816 -38.0938 57.3954ZM6.94908 74.3021C7.01146 74.7389 7.07385 75.425 7.26101 76.1113C9.63169 84.4087 12.0023 92.706 14.373 101.066C14.685 102.064 15.1217 102.875 16.3694 102.813C17.6171 102.688 17.8667 101.814 18.0538 100.754C18.5529 97.0107 19.1768 93.2675 19.4887 89.462C19.863 85.2197 21.7346 81.9133 24.8539 79.0435C42.2597 63.0102 59.4783 46.9145 76.8217 30.8188C77.508 30.195 78.2566 29.6335 78.8181 28.8849C79.0676 28.5106 79.2548 27.5748 79.0053 27.3876C78.6309 27.0757 77.9447 27.0133 77.3832 27.0757C77.0089 27.1381 76.6346 27.5124 76.2602 27.6995C62.2857 36.3088 48.3112 44.9182 34.3366 53.5275C26.476 58.3936 18.6153 63.1974 10.7546 68.0635C8.38395 69.436 7.07385 71.37 6.94908 74.3021Z" fill="#B2C4F6"/>
</g>
</svg>
