<svg width="270" height="243" viewBox="0 0 270 243" fill="none" xmlns="http://www.w3.org/2000/svg">
<g opacity="0.05">
<path d="M35.0472 206.025C35.0472 204.104 35.0472 202.744 35.0472 201.303C35.0472 145.921 35.0472 90.4593 35.0472 35.0773C35.0472 20.5916 41.1296 9.70721 54.2548 3.1446C58.9767 0.743646 64.0987 0.0234375 69.3808 0.0234375C124.763 0.0234375 180.225 0.0234375 235.607 0.0234375C254.574 0.0234375 269.38 13.8689 269.78 31.716C269.86 35.6376 268.66 36.9181 264.658 36.9181C248.172 36.9181 231.685 36.9181 215.279 36.9181C214.158 36.9181 213.118 36.9181 211.597 36.9181C211.597 38.3587 211.597 39.5592 211.597 40.8397C211.597 96.6218 211.597 152.484 211.597 208.266C211.597 223.552 202.074 237.238 188.228 241.399C184.947 242.36 181.345 242.92 177.904 242.92C129.965 243 82.0258 243 34.1668 243C15.5994 243 0.713508 229.154 0.233317 211.627C0.0732536 207.226 1.1937 206.025 5.51542 206.025C14.2389 206.025 22.8823 206.025 31.6058 206.025C32.4861 206.025 33.6066 206.025 35.0472 206.025ZM42.7302 206.025C44.4109 206.025 45.6114 206.025 46.7318 206.025C79.945 206.025 113.238 206.025 146.451 206.025C152.214 206.025 152.694 206.425 153.174 212.188C154.535 227.794 169.581 238.438 184.707 234.357C196.311 231.235 203.594 221.471 203.594 208.746C203.594 150.403 203.594 92.14 203.594 33.7968C203.594 24.4331 206.715 16.4299 213.198 9.70727C213.678 9.22708 214.078 8.58684 214.879 7.62646C213.758 7.62646 213.198 7.62646 212.638 7.62646C164.699 7.62646 116.76 7.62646 68.9006 7.62646C66.4996 7.62646 64.0987 7.94657 61.7778 8.50679C50.0131 11.468 42.6502 21.2318 42.6502 34.197C42.6502 90.3793 42.6502 146.642 42.6502 202.824C42.7302 203.864 42.7302 204.745 42.7302 206.025ZM145.571 213.868C100.113 213.868 54.895 213.868 9.59704 213.868C9.67707 214.669 9.59704 215.389 9.7571 216.029C12.3982 227.474 21.9219 235.237 33.6866 235.237C74.0226 235.317 114.279 235.237 154.615 235.237C155.255 235.237 155.895 235.157 157.016 234.997C150.533 229.154 146.852 222.192 145.571 213.868ZM212.158 28.9949C228.164 28.9949 244.17 28.9949 260.177 28.9949C258.816 16.75 247.692 7.14623 235.767 7.78648C223.522 8.34671 212.238 18.4307 212.158 28.9949Z" fill="#BACBFF"/>
<path d="M256.983 151.52C256.983 174.89 257.063 198.179 256.902 221.548C256.902 223.629 256.022 226.03 254.822 227.791C252.581 231.312 249.94 234.593 247.379 237.875C244.978 240.996 242.497 240.916 240.096 237.795C237.295 234.193 234.494 230.512 231.853 226.75C230.972 225.55 230.412 223.869 230.412 222.348C230.252 174.97 230.252 127.591 230.172 80.1319C230.172 76.6105 231.532 75.25 235.054 75.25C240.416 75.25 245.858 75.25 251.22 75.25C255.542 75.25 256.662 76.3704 256.662 80.7721C256.662 104.301 256.662 127.831 256.662 151.44C256.822 151.52 256.903 151.52 256.983 151.52ZM237.935 83.2532C237.935 84.6137 237.935 85.8142 237.935 87.0146C238.015 130.232 238.175 173.449 237.935 216.666C237.935 222.348 240.576 225.79 243.777 229.631C247.619 225.71 249.46 221.708 249.46 216.026C249.139 173.129 249.219 130.152 249.139 87.2548C249.139 85.9743 249.139 84.6938 249.139 83.2532C245.298 83.2532 241.776 83.2532 237.935 83.2532Z" fill="#BACBFF"/>
<path d="M243.603 69.1713C240.882 69.1713 238.241 69.2513 235.52 69.1713C232.639 69.0113 231.038 67.4107 231.198 64.9297C231.359 62.2086 233.119 61.4883 235.52 61.4883C240.802 61.4883 246.084 61.4883 251.366 61.4883C253.928 61.4883 255.688 62.3686 255.848 65.1697C256.008 67.5707 254.328 69.0913 251.366 69.1713C248.805 69.2513 246.164 69.1713 243.603 69.1713Z" fill="#BACBFF"/>
<path d="M63.1293 83.2581C63.1293 79.5766 63.0493 75.8951 63.1293 72.2137C63.2894 62.6099 69.772 56.1273 79.3758 56.0473C85.9384 55.9673 92.581 56.0473 99.1436 56.0473C102.345 56.0473 103.866 57.2477 103.946 59.7287C104.026 62.2898 102.425 63.8103 99.2237 63.8103C92.7411 63.8904 86.2585 63.8103 79.7759 63.8103C73.8536 63.8904 70.8924 66.7715 70.8924 72.6138C70.8124 79.7367 70.8124 86.7794 70.8924 93.9023C70.9724 99.7446 74.0136 102.786 79.7759 102.866C86.7387 102.946 93.7815 102.946 100.744 102.866C106.507 102.786 109.548 99.7446 109.628 93.9023C109.628 91.9815 109.548 90.1408 109.708 88.22C109.868 86.1392 111.148 85.0188 113.229 84.8587C115.31 84.7787 116.831 85.659 117.151 87.7399C118.992 100.545 113.629 110.629 99.8639 110.549C93.1412 110.469 86.4986 110.549 79.7759 110.549C69.852 110.469 63.2094 103.906 63.1293 94.0624C63.0493 90.461 63.1293 86.8595 63.1293 83.2581Z" fill="#BACBFF"/>
<path d="M63.1293 154.732C63.1293 151.131 63.0493 147.529 63.1293 143.928C63.2894 134.484 69.772 128.001 79.2157 127.841C85.8584 127.761 92.581 127.761 99.3037 127.841C102.505 127.841 104.026 129.122 104.026 131.523C104.106 134.084 102.505 135.444 99.2237 135.524C92.8211 135.604 86.4186 135.524 80.0961 135.524C73.8536 135.604 70.9724 138.485 70.9724 144.728C70.9724 151.611 70.9724 158.493 70.9724 165.376C70.9724 171.539 74.0136 174.5 80.2561 174.5C87.0588 174.5 93.8615 174.58 100.584 174.5C106.587 174.42 109.628 171.459 109.708 165.456C109.708 163.535 109.308 161.535 109.868 159.854C110.268 158.573 111.789 157.133 113.069 156.653C114.91 156.012 116.831 157.053 117.071 159.214C117.791 165.776 117.951 172.259 112.909 177.461C109.628 180.822 105.626 182.263 101.064 182.263C93.8615 182.263 86.6587 182.343 79.5358 182.263C69.772 182.103 63.3694 175.54 63.2894 165.696C63.0493 162.095 63.1293 158.413 63.1293 154.732Z" fill="#BACBFF"/>
<path d="M91.8713 156.968C93.1518 155.768 93.9521 155.047 94.7524 154.247C101.875 147.124 108.998 140.001 116.201 132.959C118.522 130.638 120.763 130.398 122.443 132.078C124.204 133.839 123.964 136.08 121.723 138.321C113.16 146.964 104.516 155.528 95.8729 164.091C93.3118 166.572 91.3911 166.572 88.9101 164.171C85.7889 161.13 82.6676 158.008 79.5464 154.887C77.5456 152.806 77.3055 150.405 79.0662 148.885C81.147 147.044 83.1478 147.524 84.8285 149.365C87.1494 151.846 89.4703 154.327 91.8713 156.968Z" fill="#BACBFF"/>
<path d="M92.3481 85.4149C100.271 77.3317 107.794 69.6486 115.317 61.9655C115.957 61.3253 116.598 60.6851 117.238 60.1249C118.919 58.8444 120.599 58.8443 122.12 60.2849C123.721 61.8055 123.881 63.5662 122.68 65.4069C122.44 65.7271 122.2 66.0472 121.88 66.2873C113.076 75.0908 104.193 83.8943 95.3893 92.6978C93.1484 94.9387 91.2276 94.8587 88.9067 92.5378C85.7054 89.4165 82.5042 86.2152 79.3829 83.014C77.4622 81.0932 77.3821 78.7722 78.9027 77.1716C80.5034 75.4909 82.6642 75.4909 84.665 77.4917C87.146 79.8927 89.4669 82.3737 92.3481 85.4149Z" fill="#BACBFF"/>
<path d="M156.456 71.6426C163.739 71.6426 171.022 71.6426 178.305 71.6426C181.666 71.6426 183.347 72.8431 183.427 75.3241C183.507 77.8851 181.666 79.3256 178.305 79.3256C163.579 79.3256 148.853 79.3256 134.047 79.3256C130.526 79.3256 128.445 77.2448 129.165 74.5237C129.806 72.2028 131.486 71.5625 133.727 71.5625C141.33 71.6425 148.933 71.6426 156.456 71.6426Z" fill="#BACBFF"/>
<path d="M156.459 87.2582C163.822 87.2582 171.185 87.2582 178.548 87.2582C181.669 87.2582 183.269 88.5387 183.349 90.9397C183.429 93.4207 181.669 94.9413 178.548 94.9413C163.582 94.9413 148.696 94.9413 133.73 94.9413C130.769 94.9413 129.008 93.3406 129.008 91.0997C129.008 88.7788 130.769 87.2582 133.73 87.2582C141.333 87.1782 148.856 87.2582 156.459 87.2582Z" fill="#BACBFF"/>
<path d="M156.459 102.864C163.822 102.864 171.185 102.864 178.548 102.864C181.669 102.864 183.269 104.144 183.349 106.545C183.429 109.026 181.669 110.547 178.548 110.627C163.582 110.627 148.696 110.627 133.73 110.627C130.849 110.627 129.008 109.026 129.008 106.785C129.008 104.464 130.769 102.944 133.73 102.944C141.333 102.784 148.856 102.864 156.459 102.864Z" fill="#BACBFF"/>
<path d="M156.456 174.574C163.739 174.574 171.022 174.574 178.305 174.574C181.666 174.574 183.267 175.855 183.347 178.336C183.347 180.817 181.666 182.257 178.385 182.257C163.579 182.257 148.853 182.257 134.047 182.257C130.766 182.257 129.165 180.817 129.245 178.256C129.325 175.775 130.846 174.574 134.047 174.574C141.49 174.574 148.933 174.574 156.456 174.574Z" fill="#BACBFF"/>
<path d="M156.455 143.439C163.738 143.439 171.021 143.439 178.304 143.439C181.665 143.439 183.266 144.72 183.346 147.201C183.346 149.682 181.665 151.122 178.384 151.122C163.738 151.122 149.092 151.122 134.366 151.122C130.845 151.122 129.164 149.762 129.164 147.121C129.244 144.64 130.845 143.439 134.286 143.359C141.649 143.359 149.092 143.439 156.455 143.439Z" fill="#BACBFF"/>
<path d="M156.458 159.043C163.74 159.043 171.023 159.043 178.306 159.043C181.668 159.043 183.268 160.323 183.268 162.804C183.268 165.285 181.588 166.726 178.306 166.726C163.58 166.726 148.774 166.726 134.049 166.726C130.847 166.726 129.087 165.205 129.167 162.724C129.247 160.323 130.847 159.043 133.969 159.043C141.492 159.043 148.935 159.043 156.458 159.043Z" fill="#BACBFF"/>
<path d="M163.102 63.8099C157.979 63.8099 152.937 63.8099 147.815 63.8099C144.614 63.8099 142.773 62.2893 142.773 59.8883C142.773 57.4874 144.534 56.0469 147.815 56.0469C157.979 56.0469 168.144 56.0469 178.388 56.0469C181.749 56.0469 183.35 57.3273 183.35 59.8083C183.35 62.2893 181.589 63.7299 178.388 63.7299C173.266 63.8099 168.144 63.8099 163.102 63.8099Z" fill="#BACBFF"/>
<path d="M162.858 135.519C157.896 135.519 152.934 135.519 147.892 135.519C144.371 135.519 142.61 134.159 142.69 131.598C142.77 129.117 144.371 127.836 147.732 127.836C157.976 127.836 168.22 127.756 178.464 127.836C182.226 127.836 184.387 130.557 182.706 133.279C181.986 134.399 180.065 135.359 178.624 135.439C173.422 135.599 168.14 135.439 162.858 135.519Z" fill="#BACBFF"/>
</g>
</svg>
