<svg width="261" height="316" viewBox="0 0 261 316" fill="none" xmlns="http://www.w3.org/2000/svg">
<g filter="url(#filter0_b_6297_50508)">
<path d="M25 309.983C22.2386 309.983 20 307.745 20 304.983L20 11.9998C20 9.2384 22.2386 6.99982 25 6.99982L57 6.99982L57 309.983L25 309.983Z" fill="url(#paint0_linear_6297_50508)"/>
<path d="M25 308.983C22.7909 308.983 21 307.193 21 304.983L21 11.9998C21 9.79068 22.7908 7.99982 25 7.99982L56 7.99982L56 308.983L25 308.983Z" stroke="url(#paint1_linear_6297_50508)" stroke-width="2"/>
</g>
<g filter="url(#filter1_b_6297_50508)">
<path d="M235 7C237.761 7 240 9.23858 240 12L240 304.984C240 307.745 237.761 309.984 235 309.984L203 309.984L203 7L235 7Z" fill="url(#paint2_linear_6297_50508)"/>
<path d="M235 8C237.209 8 239 9.79086 239 12L239 304.984C239 307.193 237.209 308.984 235 308.984L204 308.984L204 8L235 8Z" stroke="url(#paint3_linear_6297_50508)" stroke-width="2"/>
</g>
<mask id="path-5-inside-1_6297_50508" fill="white">
<path fill-rule="evenodd" clip-rule="evenodd" d="M17 10C17 4.47715 21.4772 0 27 0H233C238.523 0 243 4.47715 243 10V116.123C243 119.396 241.398 122.462 238.711 124.332L236.289 126.016C233.602 127.885 232 130.952 232 134.225V157V160V182.775C232 186.048 233.602 189.115 236.289 190.984L238.711 192.668C241.398 194.538 243 197.604 243 200.877V306C243 311.523 238.523 316 233 316H27C21.4772 316 17 311.523 17 306V200.877C17 197.604 18.6021 194.538 21.2894 192.668L23.7106 190.984C26.3979 189.115 28 186.048 28 182.775L28 160V157L28 134.225C28 130.952 26.3979 127.885 23.7106 126.016L21.2894 124.332C18.6021 122.462 17 119.396 17 116.123V10Z"/>
</mask>
<g filter="url(#filter2_i_6297_50508)">
<path fill-rule="evenodd" clip-rule="evenodd" d="M17 10C17 4.47715 21.4772 0 27 0H233C238.523 0 243 4.47715 243 10V116.123C243 119.396 241.398 122.462 238.711 124.332L236.289 126.016C233.602 127.885 232 130.952 232 134.225V157V160V182.775C232 186.048 233.602 189.115 236.289 190.984L238.711 192.668C241.398 194.538 243 197.604 243 200.877V306C243 311.523 238.523 316 233 316H27C21.4772 316 17 311.523 17 306V200.877C17 197.604 18.6021 194.538 21.2894 192.668L23.7106 190.984C26.3979 189.115 28 186.048 28 182.775L28 160V157L28 134.225C28 130.952 26.3979 127.885 23.7106 126.016L21.2894 124.332C18.6021 122.462 17 119.396 17 116.123V10Z" fill="#090E1C"/>
</g>
<path d="M28 160H30H28ZM28 157H26H28ZM21.2894 124.332L22.4315 122.69L21.2894 124.332ZM21.2894 192.668L20.1472 191.026L21.2894 192.668ZM238.711 192.668L237.569 194.31L238.711 192.668ZM23.7106 126.016L22.5685 127.658L23.7106 126.016ZM236.289 126.016L235.147 124.374L236.289 126.016ZM238.711 124.332L239.853 125.974L238.711 124.332ZM236.289 190.984L237.431 189.342L236.289 190.984ZM23.7106 190.984L24.8528 192.626L23.7106 190.984ZM233 -2H27V2H233V-2ZM245 116.123V10H241V116.123H245ZM237.431 127.658L239.853 125.974L237.569 122.69L235.147 124.374L237.431 127.658ZM234 157V134.225H230V157H234ZM234 160V157H230V160H234ZM234 182.775V160H230V182.775H234ZM239.853 191.026L237.431 189.342L235.147 192.626L237.569 194.31L239.853 191.026ZM245 306V200.877H241V306H245ZM27 318H233V314H27V318ZM15 200.877V306H19V200.877H15ZM22.4315 194.31L24.8528 192.626L22.5685 189.342L20.1472 191.026L22.4315 194.31ZM30 182.775L30 160H26L26 182.775H30ZM30 160V157H26V160H30ZM30 157L30 134.225H26L26 157H30ZM24.8528 124.374L22.4315 122.69L20.1472 125.974L22.5685 127.658L24.8528 124.374ZM15 10V116.123H19V10H15ZM22.4315 122.69C20.2817 121.194 19 118.741 19 116.123H15C15 120.051 16.9226 123.73 20.1472 125.974L22.4315 122.69ZM19 200.877C19 198.259 20.2817 195.806 22.4315 194.31L20.1472 191.026C16.9226 193.27 15 196.949 15 200.877H19ZM27 314C22.5817 314 19 310.418 19 306H15C15 312.627 20.3726 318 27 318V314ZM241 306C241 310.418 237.418 314 233 314V318C239.627 318 245 312.627 245 306H241ZM237.569 194.31C239.718 195.806 241 198.259 241 200.877H245C245 196.949 243.077 193.27 239.853 191.026L237.569 194.31ZM30 134.225C30 130.297 28.0774 126.618 24.8528 124.374L22.5685 127.658C24.7183 129.153 26 131.606 26 134.225H30ZM235.147 124.374C231.923 126.618 230 130.297 230 134.225H234C234 131.606 235.282 129.153 237.431 127.658L235.147 124.374ZM241 116.123C241 118.741 239.718 121.194 237.569 122.69L239.853 125.974C243.077 123.73 245 120.051 245 116.123H241ZM230 182.775C230 186.703 231.923 190.382 235.147 192.626L237.431 189.342C235.282 187.847 234 185.394 234 182.775H230ZM27 -2C20.3726 -2 15 3.37258 15 10H19C19 5.58172 22.5817 2 27 2V-2ZM24.8528 192.626C28.0774 190.382 30 186.703 30 182.775H26C26 185.394 24.7183 187.847 22.5685 189.342L24.8528 192.626ZM233 2C237.418 2 241 5.58172 241 10H245C245 3.37258 239.627 -2 233 -2V2Z" fill="url(#paint4_linear_6297_50508)" mask="url(#path-5-inside-1_6297_50508)"/>
<mask id="mask0_6297_50508" style="mask-type:alpha" maskUnits="userSpaceOnUse" x="19" y="2" width="222" height="312">
<path fill-rule="evenodd" clip-rule="evenodd" d="M19 12C19 6.47715 23.4771 2 29 2H231C236.523 2 241 6.47715 241 12V116.602C241 119.867 239.406 122.927 236.73 124.798L234.465 126.382C231.789 128.253 230.195 131.312 230.195 134.577V157.013V159.975V182.41C230.195 185.675 231.789 188.735 234.465 190.606L236.73 192.19C239.406 194.061 241 197.12 241 200.385V304C241 309.523 236.523 314 231 314H29C23.4772 314 19 309.523 19 304V200.386C19 197.121 20.5939 194.062 23.2697 192.191L25.537 190.606C28.2127 188.735 29.8066 185.675 29.8066 182.41L29.8066 157.013L29.8066 134.577C29.8066 131.312 28.2127 128.253 25.537 126.382L23.2697 124.796C20.5939 122.925 19 119.866 19 116.601V12Z" fill="#090E1C"/>
</mask>
<g mask="url(#mask0_6297_50508)">
<rect x="18" y="317" width="317" height="113" transform="rotate(-90 18 317)" fill="#060911"/>
<g opacity="0.2">
<g style="mix-blend-mode:multiply" opacity="0.5">
<path d="M130.5 126.965L62.8558 158L75.7902 92.1373L21 45.5139L96.6779 35.8943L130.5 -24L164.322 35.8943L240 45.5139L185.29 92.1373L198.225 158L130.5 126.965Z" fill="#DE5634"/>
</g>
<path d="M232.739 47.0166L196.168 42.3724L186.202 41.1058L162.491 38.08L131.064 -17.6504L99.6369 38.08L29.4688 47.0166L80.2663 90.3625L68.2903 151.652L131.064 122.731L193.918 151.652L181.942 90.3625L232.739 47.0166Z" fill="url(#paint5_linear_6297_50508)"/>
<path style="mix-blend-mode:multiply" opacity="0.37" d="M29.4688 47.9531L132.314 71.6874L80.0524 91.3368L29.4688 47.9531Z" fill="url(#paint6_linear_6297_50508)"/>
<path style="mix-blend-mode:multiply" opacity="0.37" d="M231.532 47.9531L132.316 71.6874L181.045 91.3368L231.532 47.9531Z" fill="url(#paint7_linear_6297_50508)"/>
<path style="mix-blend-mode:multiply" opacity="0.37" d="M130.56 122.911L132.315 71.2334L68.1875 151.652L130.56 122.911Z" fill="url(#paint8_linear_6297_50508)"/>
<path style="mix-blend-mode:multiply" opacity="0.37" d="M192.812 151.652L131.667 71.2334L129.895 122.911L192.812 151.652Z" fill="url(#paint9_linear_6297_50508)"/>
<path style="mix-blend-mode:color-dodge" opacity="0.5" d="M129.895 -17.6504L131.669 71.2333L161.353 38.3973L129.895 -17.6504Z" fill="url(#paint10_linear_6297_50508)"/>
<path style="mix-blend-mode:color-dodge" opacity="0.5" d="M231.532 47.4079L132.316 71.232L161.714 38.4297L231.532 47.4079Z" fill="url(#paint11_linear_6297_50508)"/>
<path style="mix-blend-mode:color-dodge" opacity="0.5" d="M231.532 47.4079L132.316 71.232L161.714 38.4297L231.532 47.4079Z" fill="url(#paint12_linear_6297_50508)"/>
<path style="mix-blend-mode:color-dodge" opacity="0.5" d="M99.3109 38.4297L132.314 71.232L29.4688 47.4079L99.3109 38.4297Z" fill="url(#paint13_linear_6297_50508)"/>
<path d="M161.517 57.8466C156.225 61.4331 160.703 63.824 160.703 63.824L187.972 57.8466C184.14 55.5433 179.504 54.3008 174.744 54.3008C169.984 54.3008 165.349 55.5433 161.517 57.8466Z" fill="white"/>
<g style="mix-blend-mode:multiply" opacity="0.5">
<path d="M68.1875 151.652C68.1875 151.652 115.848 131.949 131.064 126.53L194.022 151.652L131.064 123.082L68.1875 151.652Z" fill="#DE5634"/>
</g>
<g style="mix-blend-mode:soft-light" opacity="0.4">
<path d="M106.823 28.6756C100.035 44.7466 125.962 55.9476 129.397 51.008C132.832 46.0685 130.706 18.5182 126.371 14.8309C122.036 11.1436 109.604 22.1359 106.823 28.6756Z" fill="#F7FFFF"/>
</g>
<g style="mix-blend-mode:soft-light" opacity="0.4">
<path d="M86.6799 112.366C99.9748 114.005 107.37 100.325 110.28 90.992C114.607 75.8164 62.6075 109.801 86.6799 112.366Z" fill="#F7FFFF"/>
</g>
</g>
</g>
<g filter="url(#filter3_f_6297_50508)">
<ellipse cx="130.5" cy="158" rx="55.5" ry="52" fill="#FF5C00"/>
</g>
<rect x="202" y="13" width="26" height="26" rx="13" fill="#151C30"/>
<rect x="202.5" y="13.5" width="25" height="25" rx="12.5" stroke="#C68C43"/>
<g style="mix-blend-mode:soft-light">
<mask id="mask1_6297_50508" style="mask-type:alpha" maskUnits="userSpaceOnUse" x="202" y="13" width="26" height="26">
<rect x="202" y="13" width="26" height="26" rx="13" fill="#101520"/>
</mask>
<g mask="url(#mask1_6297_50508)">
<g filter="url(#filter4_f_6297_50508)">
<path d="M198.387 42.6662L231.147 9.90625" stroke="white" stroke-width="0.52"/>
</g>
<g filter="url(#filter5_f_6297_50508)">
<path d="M193.73 47.32L235.798 5.25195" stroke="white" stroke-width="1.3"/>
</g>
<g filter="url(#filter6_f_6297_50508)">
<path d="M193.73 47.32L235.798 5.25195" stroke="white" stroke-width="1.3"/>
</g>
<g opacity="0.5" filter="url(#filter7_f_6297_50508)">
<path d="M193.188 37.7004L225.947 4.94043" stroke="white" stroke-width="0.52"/>
</g>
<g opacity="0.5" filter="url(#filter8_f_6297_50508)">
<path d="M202 49.426L234.76 16.666" stroke="white" stroke-width="0.26"/>
</g>
</g>
</g>
<path d="M218.353 29.3318C217.693 29.8351 216.932 29.9562 216.932 29.9562C217.47 29.5645 218.51 28.4642 217.907 27.2708C217.304 26.0773 215.001 25.3037 215.001 25.3037C215.001 25.3037 212.699 26.0777 212.094 27.2708C211.49 28.4638 212.531 29.5645 213.07 29.9562C213.07 29.9562 212.308 29.8347 211.649 29.3314C211.649 29.3314 210.033 30.7485 209.848 32.3897C209.848 32.3897 211.324 31.2989 215.001 31.2989C218.678 31.2989 220.155 32.3897 220.155 32.3897C219.968 30.7489 218.353 29.3318 218.353 29.3318ZM215.271 29.3224L215.001 29.7701L214.732 29.3224C212.996 29.192 212.68 27.8959 212.68 27.8959L213.543 27.3926L213.309 26.9825L214.999 28.0079L216.692 26.9825L216.458 27.3926L217.321 27.8959C217.321 27.8959 217.006 29.192 215.27 29.3224H215.271Z" fill="white"/>
<path d="M219.754 20.8241C219.754 20.8241 221.275 21.0005 222 21.7347C222 21.7347 220.877 19.6348 218.5 19.6348C216.123 19.6348 215 20.9263 215 20.9263C215 20.9263 213.877 19.6348 211.5 19.6348C209.124 19.6348 208 21.7347 208 21.7347C208.724 21.0005 210.247 20.8241 210.247 20.8241C209.04 21.1781 208.11 22.6196 208.121 24.3463C208.131 26.0731 208.798 27.3101 209.458 27.4689C210.117 27.6278 210.469 26.9951 211.454 26.0638C212.438 25.1325 213.44 24.9861 213.44 24.9861C212.447 24.5399 211.788 24.8003 211.128 25.0138C210.469 25.2273 209.931 25.3019 209.55 24.531C209.17 23.7601 209.894 22.9143 209.894 22.9143C209.485 22.9794 209.096 23.3046 209.096 23.3046C209.467 22.4217 209.94 22.1801 210.711 22.1523C211.481 22.1246 211.834 22.3288 212.642 22.7843C213.449 23.2398 214.155 23.7691 214.573 23.4252C214.991 23.0813 214.369 21.9201 214.369 21.9201C214.824 22.2175 215 22.8397 215 22.8397C215 22.8397 215.177 22.2175 215.631 21.9201C215.631 21.9201 215.007 23.0813 215.427 23.4252C215.847 23.7691 216.551 23.2394 217.358 22.7843C218.166 22.3292 218.519 22.1246 219.289 22.1523C220.06 22.1801 220.533 22.4244 220.903 23.3057C220.903 23.3057 220.513 22.9806 220.105 22.9154C220.105 22.9154 220.829 23.7609 220.449 24.5321C220.068 25.3034 219.53 25.2289 218.871 25.015C218.211 24.8011 217.552 24.5411 216.558 24.9873C216.558 24.9873 217.561 25.136 218.545 26.0649C219.529 26.9939 219.882 27.6262 220.541 27.4701C221.201 27.314 221.868 26.0763 221.879 24.3475C221.889 22.6188 220.96 21.1781 219.754 20.8241Z" fill="white"/>
<path d="M218.503 19.6348C216.124 19.6348 214.999 20.9358 214.999 20.9358C214.999 20.9358 213.874 19.6348 211.495 19.6348C209.724 19.6348 208.648 20.8065 208.215 21.4041C209.141 20.4954 211.616 18.7619 215 21.7391C218.385 18.7619 220.859 20.4954 221.786 21.4041C221.35 20.8065 220.274 19.6348 218.503 19.6348Z" fill="#C4C4C4"/>
<path d="M211.094 25.0066C210.433 25.2213 209.893 25.2958 209.512 24.5218C209.13 23.7477 209.856 22.8984 209.856 22.8984C209.528 22.9506 209.212 23.1704 209.1 23.2559C208.767 23.812 208.537 24.8196 209.319 26.4762C209.319 26.4762 208.65 26.2783 208.129 25.1214C208.299 26.4367 208.861 27.3361 209.419 27.4697C210.08 27.6265 210.433 26.994 211.42 26.0589C212.407 25.1237 213.411 24.9768 213.411 24.9768C212.415 24.5308 211.754 24.7922 211.094 25.0066Z" fill="#C4C4C4"/>
<path d="M220.62 26.4748C221.41 24.7996 221.167 23.7881 220.83 23.2365C220.7 23.1413 220.405 22.947 220.099 22.8984C220.099 22.8984 220.825 23.747 220.443 24.5211C220.062 25.2952 219.523 25.2204 218.863 25.0057C218.203 24.791 217.542 24.5301 216.547 24.9779C216.547 24.9779 217.551 25.1271 218.537 26.0595C219.523 26.9919 219.876 27.6265 220.536 27.4698C221.098 27.3347 221.666 26.4176 221.829 25.0801C221.306 26.2726 220.62 26.4748 220.62 26.4748Z" fill="#C4C4C4"/>
<path d="M220.152 32.3708C219.559 31.9163 218.047 30.979 215.54 30.8751C212.211 30.7357 211.904 31.2793 211.528 30.8052C211.152 30.3312 213.07 29.9637 213.07 29.9637C213.07 29.9637 212.308 29.8426 211.649 29.3408C211.649 29.3408 210.033 30.7537 209.848 32.3899C209.848 32.3899 211.324 31.3024 215.001 31.3024C218.678 31.3024 220.155 32.3899 220.155 32.3899C220.154 32.3849 220.153 32.3775 220.152 32.3708Z" fill="#C4C4C4"/>
<path d="M142.52 139.465L208 139.025L201.889 150.582L145.885 152.215L142.52 139.465Z" fill="url(#paint14_linear_6297_50508)"/>
<g style="mix-blend-mode:multiply" opacity="0.5">
<path d="M145.406 148.596L203.677 147.189L201.887 150.581L145.884 152.214L145.406 148.596Z" fill="#DE5634"/>
</g>
<g style="mix-blend-mode:soft-light" opacity="0.4">
<path d="M179.65 140.045C179.161 140.61 181.429 146.64 182.36 146.451C183.291 146.263 202.209 146.627 203.057 146.012C203.904 145.396 207.067 140.334 206.375 139.731C205.683 139.128 180.116 139.505 179.65 140.045Z" fill="#FFDF66"/>
</g>
<g style="mix-blend-mode:multiply" opacity="0.5">
<path d="M178.327 139.177C178.327 139.177 180.798 146.211 180.882 147.743C180.834 148.962 180.52 150.153 179.963 151.223L145.897 152.215L142.52 139.466L178.327 139.177Z" fill="#DE5634"/>
</g>
<path d="M118.481 139.465L53 139.025L59.1112 150.582L115.115 152.215L118.481 139.465Z" fill="url(#paint15_linear_6297_50508)"/>
<g style="mix-blend-mode:multiply" opacity="0.5">
<path d="M115.603 148.596L57.3203 147.189L59.1107 150.581L115.114 152.214L115.603 148.596Z" fill="#DE5634"/>
</g>
<g style="mix-blend-mode:soft-light" opacity="0.4">
<path d="M80.8927 139.793C82.516 141.413 79.6036 146.953 78.6726 146.764C77.7416 146.576 58.7873 146.626 57.9399 146.011C57.0924 145.395 53.9294 140.333 54.6217 139.73C55.314 139.127 79.9497 138.864 80.8927 139.793Z" fill="#FFDF66"/>
</g>
<g style="mix-blend-mode:multiply" opacity="0.5">
<path d="M82.6832 139.177C82.6832 139.177 80.2125 146.186 80.1289 147.743C80.1782 148.958 80.4926 150.144 81.048 151.21L115.065 152.215L118.431 139.466L82.6832 139.177Z" fill="#DE5634"/>
</g>
<path d="M125.426 202.547V243.999C113.49 237.392 95.5859 218.111 95.5859 218.111V189.446L125.426 202.547Z" fill="url(#paint16_linear_6297_50508)"/>
<g style="mix-blend-mode:multiply" opacity="0.6">
<path d="M125.426 235.62V243.96C113.49 237.353 95.5859 218.072 95.5859 218.072V210.925C99.7516 216.527 108.524 225.898 125.426 235.62Z" fill="#8E37E2"/>
</g>
<path d="M135.574 202.547V243.999C147.51 237.392 165.414 218.111 165.414 218.111V189.446L135.574 202.547Z" fill="url(#paint17_linear_6297_50508)"/>
<g style="mix-blend-mode:multiply" opacity="0.6">
<path d="M135.574 235.62V243.96C147.51 237.353 165.414 218.072 165.414 218.072V210.925C161.248 216.527 152.475 225.898 135.574 235.62Z" fill="#8E37E2"/>
</g>
<path style="mix-blend-mode:multiply" d="M98.3553 220.989C98.3553 220.989 98.0808 201.984 100.898 202.311C103.715 202.637 108.572 205.652 109.635 209.106C110.697 212.561 110.387 232.57 110.387 232.57L111.461 233.5C111.461 233.5 110.136 209.194 112.332 210.388C113.957 211.219 115.366 212.454 116.437 213.986C117.508 215.517 118.209 217.3 118.479 219.18C119.542 224.657 119.84 240.396 119.84 240.396L125.414 243.913V202.462L95.5742 189.36V217.987L98.3553 220.989Z" fill="url(#paint18_linear_6297_50508)"/>
<path style="mix-blend-mode:multiply" d="M162.597 220.987C162.597 220.987 162.824 198.717 160.007 199.043C157.19 199.37 157.071 210.65 157.071 214.116C157.071 217.583 156.617 226.966 156.617 226.966L155.03 228.486C155.03 228.486 155.257 203.151 153.06 204.344C150.864 205.537 141.232 213.375 140.205 218.802C139.179 224.228 139.573 241.412 139.573 241.412L135.574 243.924V202.472L165.414 189.371V217.998L162.597 220.987Z" fill="url(#paint19_linear_6297_50508)"/>
<path style="mix-blend-mode:multiply" opacity="0.37" d="M114.266 110.349C111.807 112.472 87.2909 126.578 86.9567 127.495C86.527 128.663 89.7855 134.165 91.3371 133.7C92.8888 133.235 122.048 115.838 122.108 115.022C122.168 114.205 122.239 109.671 121.535 109.382C120.831 109.093 115.197 109.533 114.266 110.349Z" fill="url(#paint20_linear_6297_50508)"/>
<g style="mix-blend-mode:soft-light" opacity="0.4">
<path d="M111.019 108.918C109.408 109.031 89.4029 122.546 89.4029 122.936C89.4029 123.325 85.8221 125.611 86.7293 125.549C87.6364 125.486 112.881 110.475 112.917 109.96C112.953 109.445 111.878 108.855 111.019 108.918Z" fill="#FFDF66"/>
</g>
<g style="mix-blend-mode:soft-light" opacity="0.4">
<path d="M85.9062 127.494C85.9062 127.494 99.2267 120.423 106.03 115.901C112.834 111.379 114.266 110.349 114.266 110.349L85.9062 127.494Z" fill="#FFDF66"/>
</g>
<path style="mix-blend-mode:multiply" opacity="0.37" d="M146.745 110.349C149.133 112.472 173.709 126.578 174.043 127.495C174.473 128.663 171.214 134.165 169.674 133.7C168.135 133.235 138.939 115.838 138.939 115.022C138.939 114.205 138.808 109.671 139.512 109.382C140.217 109.093 145.803 109.533 146.745 110.349Z" fill="url(#paint21_linear_6297_50508)"/>
<g style="mix-blend-mode:soft-light" opacity="0.4">
<path d="M149.981 108.918C151.592 109.031 171.609 122.546 171.609 122.936C171.609 123.325 175.13 125.611 174.27 125.549C173.411 125.486 148.119 110.475 148.083 109.96C148.047 109.445 149.121 108.855 149.981 108.918Z" fill="#FFDF66"/>
</g>
<g style="mix-blend-mode:soft-light" opacity="0.4">
<path d="M175.106 127.494C175.106 127.494 161.785 120.423 154.97 115.901C148.155 111.379 146.746 110.349 146.746 110.349L175.106 127.494Z" fill="#FFDF66"/>
</g>
<path d="M87.5297 182.175C87.4222 182.589 71.2013 176.648 71.2013 176.648C67.0777 170.138 63.6549 163.166 60.9961 155.859H88.6994L87.5297 182.175Z" fill="url(#paint22_linear_6297_50508)"/>
<path d="M66.2852 155.859C66.2852 155.859 72.7544 169.915 73.9361 171.435L87.9489 171.837V170.832C87.9489 170.832 75.1297 170.945 74.3897 170.367C73.6496 169.79 67.1087 155.859 67.1087 155.859H66.2852Z" fill="#B33114"/>
<path d="M66.2852 155.859L73.9361 171.435C72.2793 168.941 70.7724 166.34 69.4243 163.647C67.7175 160.005 66.2852 155.859 66.2852 155.859Z" fill="white"/>
<g style="mix-blend-mode:soft-light" opacity="0.4">
<path d="M68.2667 156.813C69.3409 160.18 73.6021 167.804 74.4853 167.804C75.3686 167.804 85.6454 167.616 86.5884 166.058C87.5313 164.501 88.3549 156.964 87.5313 156.813C86.7077 156.663 67.7893 155.319 68.2667 156.813Z" fill="#FFDF66"/>
</g>
<g style="mix-blend-mode:soft-light" opacity="0.4">
<path d="M61.9176 156.449C63.2305 159.74 66.9068 168.119 67.5872 168.219C68.2675 168.32 70.5592 168.621 70.595 167.616C70.595 166.008 66.3578 156.663 65.4029 156.449C64.448 156.236 61.5834 155.633 61.9176 156.449Z" fill="#FFDF66"/>
</g>
<path style="mix-blend-mode:multiply" opacity="0.37" d="M68.2528 169.311C68.1335 170.353 71.8336 175.717 72.4304 176.144C73.0272 176.571 85.4883 180.804 86.3119 180.201C87.1355 179.598 87.5055 168.544 86.8729 168.218C86.2403 167.891 68.3961 168.167 68.2528 169.311Z" fill="url(#paint23_linear_6297_50508)"/>
<g style="mix-blend-mode:multiply" opacity="0.5">
<path d="M79.3906 155.86C80.7292 163.894 81.3169 172.048 81.1452 180.203L87.5309 182.175L88.7245 155.797L79.3906 155.86Z" fill="#DE5634"/>
</g>
<path d="M173.469 182.175C173.577 182.589 189.798 176.648 189.798 176.648C193.921 170.138 197.344 163.166 200.003 155.859H172.359L173.469 182.175Z" fill="url(#paint24_linear_6297_50508)"/>
<path d="M194.714 155.859C194.714 155.859 188.245 169.915 187.063 171.435L173.062 171.837V170.832C173.062 170.832 185.882 170.945 186.61 170.367C187.338 169.79 193.843 155.859 193.843 155.859H194.714Z" fill="#B33114"/>
<path d="M194.713 155.859L187.062 171.435C188.724 168.944 190.231 166.343 191.574 163.647C193.281 160.005 194.713 155.859 194.713 155.859Z" fill="white"/>
<g style="mix-blend-mode:soft-light" opacity="0.4">
<path d="M192.736 156.813C191.661 160.18 187.412 167.804 186.517 167.804C185.622 167.804 175.357 167.616 174.414 166.058C173.471 164.501 172.647 156.964 173.471 156.813C174.295 156.663 193.213 155.319 192.736 156.813Z" fill="#FFDF66"/>
</g>
<g style="mix-blend-mode:soft-light" opacity="0.4">
<path d="M199.096 156.449C197.771 159.74 194.106 168.119 193.414 168.219C192.722 168.32 190.442 168.621 190.406 167.616C190.406 166.008 194.644 156.663 195.61 156.449C196.577 156.236 199.418 155.633 199.096 156.449Z" fill="#FFDF66"/>
</g>
<path style="mix-blend-mode:multiply" opacity="0.37" d="M192.744 169.311C192.864 170.353 189.164 175.717 188.567 176.144C187.97 176.571 175.509 180.804 174.745 180.201C173.981 179.598 173.551 168.544 174.172 168.218C174.793 167.891 192.649 168.167 192.744 169.311Z" fill="url(#paint25_linear_6297_50508)"/>
<g style="mix-blend-mode:multiply" opacity="0.5">
<path d="M181.611 155.86C180.273 163.894 179.685 172.048 179.857 180.203L173.471 182.175L172.277 155.797L181.611 155.86Z" fill="#DE5634"/>
</g>
<path d="M130.681 95L85.3359 122.546V188.291L130.681 215.837L176.025 188.291V122.546L130.681 95Z" fill="url(#paint26_linear_6297_50508)"/>
<path d="M93.5352 183.305V127.534L130.68 104.962L167.824 127.534V183.305L130.68 205.877L93.5352 183.305Z" fill="url(#paint27_linear_6297_50508)"/>
<path d="M96.2695 181.646V129.191L130.681 108.289L165.092 129.191V181.646L130.681 202.547L96.2695 181.646Z" fill="url(#paint28_linear_6297_50508)"/>
<g style="mix-blend-mode:soft-light" opacity="0.4">
<path d="M86.4199 122.722C85.8589 124.493 90.681 126.666 94.0708 125.887C97.4606 125.109 129.389 105.413 130.201 103.642C130.434 101.186 130.434 98.7117 130.201 96.2559C129.079 96.2559 86.7421 121.868 86.4199 122.722Z" fill="#FFDF66"/>
</g>
<g style="mix-blend-mode:soft-light" opacity="0.4">
<path d="M174.677 122.722C175.238 124.493 170.415 126.666 167.026 125.887C163.636 125.109 132.018 105.224 130.943 103.642C130.382 102.825 130.203 96.2559 130.943 96.2559C132.065 96.2559 174.402 121.868 174.677 122.722Z" fill="#FFDF66"/>
</g>
<path style="mix-blend-mode:multiply" opacity="0.37" d="M86.4187 160.116C86.1084 162.076 85.3684 186.959 86.4187 187.148C87.4691 187.336 92.3867 183.794 92.6612 182.123C92.9357 180.453 93.0193 163.432 92.6612 161.799C92.3031 160.166 86.932 156.838 86.4187 160.116Z" fill="url(#paint29_linear_6297_50508)"/>
<path style="mix-blend-mode:multiply" opacity="0.37" d="M174.746 160.116C175.057 162.076 175.797 186.959 174.746 187.148C173.696 187.336 168.778 183.794 168.504 182.123C168.229 180.453 168.146 163.432 168.504 161.799C168.862 160.166 174.257 156.838 174.746 160.116Z" fill="url(#paint30_linear_6297_50508)"/>
<path style="mix-blend-mode:multiply" opacity="0.37" d="M87.6125 187.826C88.1616 188.68 129.006 214.091 129.615 214.091C129.925 214.091 130.343 207.811 130.343 207.07C130.343 205.11 94.2251 184.924 93.5924 184.736C92.6018 184.46 87.0038 186.972 87.6125 187.826Z" fill="url(#paint31_linear_6297_50508)"/>
<path style="mix-blend-mode:multiply" opacity="0.37" d="M173.874 188.491C173.325 189.346 131.717 214.669 131.108 214.669C130.945 211.952 130.989 209.226 131.239 206.517C132.564 205.135 167.047 184.924 167.632 184.736C168.563 184.459 174.423 187.637 173.874 188.491Z" fill="url(#paint32_linear_6297_50508)"/>
<g style="mix-blend-mode:multiply" opacity="0.37">
<path d="M97.8425 180.252C95.4553 165.719 96.7682 164.802 113.896 158.66C131.024 152.517 160.005 136.69 162.547 143.586C165.089 150.483 164.218 179.7 163.645 181.27C163.072 182.84 133.149 200.953 130.678 200.991C128.207 201.028 98.117 181.885 97.8425 180.252Z" fill="#ED8A1D"/>
</g>
<g style="mix-blend-mode:soft-light" opacity="0.4">
<path d="M164.352 129.554C163.743 129.404 132.65 110.487 130.931 110.625C129.213 110.763 107.597 121.427 98.7043 129.466C96.3172 131.627 97.2004 163.708 99.3847 163.117C101.569 162.527 103.133 149.577 127.243 142.291C150.936 135.106 161.249 141.324 163.815 142.429C164.543 142.743 165.725 129.856 164.352 129.554Z" fill="#FFDF66"/>
</g>
<g style="mix-blend-mode:multiply" opacity="0.5">
<path d="M93.582 183.304V127.533L130.727 104.923L167.871 127.533V183.304L165.138 181.646C165.138 181.646 165.305 133.16 164.314 131.64C160.734 126.214 133.281 113.025 128.793 114.494C124.305 115.964 99.6932 126.942 96.9599 131.552C96.0408 133.097 96.2676 181.646 96.2676 181.646L93.582 183.304Z" fill="#DE5634"/>
</g>
<g style="mix-blend-mode:soft-light" opacity="0.4">
<path d="M137.627 135.145C146.878 139.592 160.819 139.667 162.096 138.813C163.373 137.959 164.221 131.716 162.215 130.673C160.21 129.631 144.311 120.712 140.134 121.667C135.956 122.622 135.98 134.366 137.627 135.145Z" fill="#FFDF66"/>
</g>
<path opacity="0.8" d="M85.3362 142.581C85.3362 142.431 85.73 124.041 86.4701 122.722C87.2101 121.403 129.702 96.6078 130.943 96.2561C132.185 95.9044 148.095 105.576 148.095 105.576L130.681 95L85.3242 122.546L85.3362 142.581Z" fill="#700000"/>
<path d="M146.91 114.783C146.91 114.783 166.831 126.754 167.106 128.098C167.38 129.442 167.822 165.48 167.822 165.48C167.822 165.48 168.013 129.053 167.822 127.533C167.631 126.013 146.91 114.783 146.91 114.783Z" fill="white"/>
<path d="M93.5819 158.095C93.5819 158.095 92.9135 127.949 93.2596 126.969C93.6058 125.989 130.679 104.962 130.679 104.962C130.679 104.962 94.7755 126.542 94.0832 127.911C93.3909 129.28 93.5819 158.095 93.5819 158.095Z" fill="white"/>
<path opacity="0.8" d="M85.3359 188.29L130.692 215.837L176.049 188.29V173.318C176.049 173.318 175.643 186.381 174.748 188.014C173.853 189.647 133.199 214.505 131.134 214.669C129.069 214.832 87.5083 188.893 86.4221 187.147C85.3359 185.401 85.3359 154.79 85.3359 154.79V188.29Z" fill="#700000"/>
<g style="mix-blend-mode:soft-light" opacity="0.4">
<path d="M93.5806 169.033C93.5806 169.033 93.4493 181.896 94.1296 182.963C94.81 184.031 112.427 194.758 112.427 194.758C112.427 194.758 93.3299 184.37 93.1628 183.692C92.9957 183.014 93.5806 169.033 93.5806 169.033Z" fill="#FFDF66"/>
</g>
<g style="mix-blend-mode:soft-light" opacity="0.4">
<path d="M108.871 195.011C107.534 195.011 103.787 196.606 104.598 197.523C105.41 198.44 127.73 212.596 130.284 213.601C131.108 213.928 131.036 208.338 129.914 206.529C129.389 205.763 113.025 194.998 108.871 195.011Z" fill="#FFDF66"/>
</g>
<path d="M150.612 108.504C149.872 108.705 152.343 111.971 153.513 112.272C154.683 112.574 156.294 111.682 155.733 111.079C155.172 110.476 151.758 108.115 150.612 108.504Z" fill="white"/>
<path d="M156.08 111.669C154.958 111.983 157.023 117.146 157.906 118.063C158.789 118.98 166.631 120.575 166.452 119.105C166.273 117.636 157.655 111.229 156.08 111.669Z" fill="white"/>
<g style="mix-blend-mode:multiply" opacity="0.5">
<path d="M151.59 195.175C150.611 199.659 150.766 202.31 151.315 202.335C151.865 202.36 171.69 189.774 172.239 189.246C172.788 188.719 169.052 185.126 167.584 185.315C166.116 185.503 151.96 193.467 151.59 195.175Z" fill="#DE5634"/>
</g>
<g style="mix-blend-mode:multiply" opacity="0.5">
<path d="M95.9685 128.815C95.4911 127.308 94.023 127.308 93.8917 129.003C93.7604 130.699 93.5217 161.939 94.1065 161.976C94.6914 162.014 95.9208 160.494 95.9685 159.778C96.0163 159.062 96.1714 129.531 95.9685 128.815Z" fill="#DE5634"/>
</g>
<g style="mix-blend-mode:multiply" opacity="0.5">
<path d="M165.411 129.004C165.339 129.607 165.053 159.15 165.411 159.15C165.769 159.15 167.416 157.769 167.416 157.04C167.416 156.312 167.01 128.439 166.831 128.288C166.652 128.137 165.482 128.526 165.411 129.004Z" fill="#DE5634"/>
</g>
<g style="mix-blend-mode:multiply" opacity="0.5">
<path d="M130.681 107.8C130.681 108.377 114.698 117.974 114.328 117.974C113.958 117.974 114.09 115.387 114.603 115.035C115.116 114.683 130.585 104.885 130.681 105.212C130.74 106.073 130.74 106.938 130.681 107.8Z" fill="#DE5634"/>
</g>
<path d="M163.657 185.54C162.643 185.54 159.193 187.613 159.456 188.643C159.718 189.673 161.843 190.791 162.392 190.188C162.941 189.585 164.325 185.565 163.657 185.54Z" fill="#B33114"/>
<path d="M164.971 186.268C164.625 186.607 163.861 187.813 164.589 188.403C165.317 188.994 167.454 187.436 167.143 186.984C166.833 186.532 165.425 185.828 164.971 186.268Z" fill="#B33114"/>
<g style="mix-blend-mode:multiply" opacity="0.5">
<path d="M159.956 187.638C159.109 188.895 162.594 189.648 163.048 188.631C163.501 187.613 164.241 185.465 163.657 185.566C162.313 186.012 161.059 186.715 159.956 187.638Z" fill="#DE5634"/>
</g>
<path d="M159.468 188.341C159.706 189.047 160.176 189.639 160.793 190.011C161.605 190.514 162.297 190.401 162.5 190.011C162.299 190.263 162.023 190.434 161.717 190.498C161.411 190.562 161.094 190.514 160.817 190.363C159.158 189.572 159.468 188.341 159.468 188.341Z" fill="#DAE1EF"/>
<g style="mix-blend-mode:multiply" opacity="0.5">
<path d="M165.365 186.294C164.578 187.198 165.186 188.479 165.628 188.404C166.07 188.329 167.394 187.424 167.144 186.985C166.893 186.545 165.532 186.105 165.365 186.294Z" fill="#DE5634"/>
</g>
<path d="M164.971 186.27C164.971 186.27 164.255 187.312 164.542 187.915C164.828 188.518 165.246 188.518 165.246 188.518C165.246 188.518 164.303 189.096 164.136 188.417C163.838 187.262 164.971 186.27 164.971 186.27Z" fill="#DAE1EF"/>
<path d="M126.013 107.474C123.566 106.795 121.596 108.466 120.522 109.747C119.448 111.029 120.045 111.782 121.393 111.531C122.742 111.28 127.003 107.763 126.013 107.474Z" fill="#B33114"/>
<g style="mix-blend-mode:multiply" opacity="0.5">
<path d="M126.014 107.472C125.242 107.31 124.446 107.332 123.684 107.537C122.922 107.741 122.213 108.122 121.609 108.653C120.953 109.256 122.242 111.002 123.137 110.625C124.032 110.248 126.766 107.749 126.014 107.472Z" fill="#DE5634"/>
</g>
<path d="M121.143 109.081C121.143 109.081 118.374 111.015 118.648 111.92C118.923 112.824 122.229 111.154 122.229 111.154C122.229 111.154 120.522 111.731 120.128 110.94C119.734 110.149 121.143 109.081 121.143 109.081Z" fill="white"/>
<g style="mix-blend-mode:soft-light" opacity="0.4">
<path d="M95.1094 183.694C93.8203 184.033 97.6637 186.809 98.5828 186.96C99.5018 187.111 98.5828 184.661 98.1531 184.234C97.2011 183.776 96.1514 183.59 95.1094 183.694Z" fill="#FFDF66"/>
</g>
<path d="M130.642 186.382L83.8288 157.643C82.745 160.332 82.0103 163.163 81.6445 166.058L84.7001 171.485L130.689 199.597L176.678 171.485L179.448 166.058C179.363 163.172 178.798 160.323 177.777 157.643L130.642 186.382Z" fill="url(#paint33_linear_6297_50508)"/>
<path d="M84.6533 171.486L81.5977 166.06L130.642 196.294L179.401 166.06L176.632 171.486L130.642 199.598L84.6533 171.486Z" fill="url(#paint34_linear_6297_50508)"/>
<g style="mix-blend-mode:multiply" opacity="0.5">
<path d="M81.6445 166.06L84.7001 171.486L85.3924 171.938V173.559C85.3924 173.559 88.0183 174.965 93.1746 177.967C93.3417 178.068 96.4093 181.472 96.4093 181.472C96.4093 181.472 129.543 202.549 130.737 202.549C132.289 202.549 165.148 181.007 165.148 181.007C165.148 181.007 167.715 178.746 167.965 178.583L176.082 174.111V171.863L176.69 171.486L179.459 166.06L130.642 196.294L81.6445 166.06Z" fill="#DE5634"/>
</g>
<path style="mix-blend-mode:multiply" opacity="0.69" d="M130.645 186.382V196.306L179.403 166.058C179.275 163.177 178.711 160.336 177.732 157.643L130.645 186.382Z" fill="url(#paint35_linear_6297_50508)"/>
<g style="mix-blend-mode:soft-light" opacity="0.4">
<path d="M86.2399 159.815C85.3447 159.815 86.0847 168.169 88.7942 170.078C93.115 173.13 119.171 189.284 120.878 189.309C122.072 189.309 122 182.237 121.642 181.684C121.033 180.642 87.6125 159.815 86.2399 159.815Z" fill="#FFDF66"/>
</g>
<g style="mix-blend-mode:soft-light" opacity="0.4">
<path d="M145.122 177.802C144.561 178.418 144.633 186.206 145.6 185.98C153.468 181.96 161.048 177.342 168.278 172.162C175.213 166.786 176.192 159.714 174.64 159.878C174.604 159.828 146.28 176.534 145.122 177.802Z" fill="#FFDF66"/>
</g>
<path d="M106.797 181.584C106.797 181.584 129.213 195.74 130.669 195.74C132.125 195.74 149.993 184.31 149.993 184.31C149.993 184.31 131.218 196.871 130.705 196.871C130.191 196.871 106.797 181.584 106.797 181.584Z" fill="white"/>
<path d="M130.642 170.278L83.8288 141.551C82.746 144.236 82.0113 147.062 81.6445 149.954L84.7001 155.38L130.642 183.505L176.631 155.393L179.4 149.954C179.315 147.067 178.75 144.219 177.729 141.538L130.642 170.278Z" fill="url(#paint36_linear_6297_50508)"/>
<path d="M84.6533 155.392L81.5977 149.966L130.642 180.2L179.401 149.966L176.632 155.392L130.642 183.504L84.6533 155.392Z" fill="url(#paint37_linear_6297_50508)"/>
<g style="mix-blend-mode:multiply" opacity="0.5">
<path d="M81.6445 149.953L84.7001 155.38L85.3924 155.832V157.49C85.3924 157.49 88.0183 158.897 93.1746 161.899C93.3417 161.999 96.4093 165.403 96.4093 165.403C96.4093 165.403 129.484 186.456 130.677 186.456C132.229 186.456 165.089 164.913 165.089 164.913C165.089 164.913 167.655 162.652 167.906 162.489L176.022 158.017V155.769L176.631 155.392L179.4 149.953L130.642 180.2L81.6445 149.953Z" fill="#DE5634"/>
</g>
<path style="mix-blend-mode:multiply" opacity="0.69" d="M130.645 170.278V180.201L179.403 149.954C179.275 147.073 178.711 144.232 177.732 141.538L130.645 170.278Z" fill="url(#paint38_linear_6297_50508)"/>
<g style="mix-blend-mode:soft-light" opacity="0.4">
<path d="M86.2399 143.737C85.3447 143.737 86.0847 152.078 88.7942 153.987C93.115 157.039 119.171 173.193 120.878 173.218C122.072 173.218 122 166.146 121.642 165.594C121.033 164.551 87.6125 143.737 86.2399 143.737Z" fill="#FFDF66"/>
</g>
<g style="mix-blend-mode:soft-light" opacity="0.4">
<path d="M145.122 161.713C144.561 162.328 144.633 170.128 145.6 169.89C153.468 165.87 161.048 161.252 168.278 156.073C175.213 150.709 176.192 143.625 174.64 143.788C174.604 143.738 146.28 160.444 145.122 161.713Z" fill="#FFDF66"/>
</g>
<path d="M106.797 165.506C106.797 165.506 129.213 179.65 130.669 179.65C132.125 179.65 149.993 168.219 149.993 168.219C149.993 168.219 131.218 180.78 130.705 180.78C130.191 180.78 106.797 165.506 106.797 165.506Z" fill="white"/>
<path d="M130.642 154.114L83.8288 125.387C82.745 128.076 82.0103 130.907 81.6445 133.803L84.7001 139.242L130.642 167.353L176.631 139.242L179.4 133.803C179.315 130.916 178.75 128.067 177.729 125.387L130.642 154.114Z" fill="url(#paint39_linear_6297_50508)"/>
<path d="M84.6533 139.24L81.5977 133.801L130.642 164.035L179.401 133.801L176.632 139.24L130.642 167.339L84.6533 139.24Z" fill="url(#paint40_linear_6297_50508)"/>
<g style="mix-blend-mode:multiply" opacity="0.5">
<path d="M81.6445 133.801L84.7001 139.24L85.3924 139.692V141.3C85.3924 141.3 88.0183 142.707 93.1746 145.709C93.3417 145.809 96.4093 149.213 96.4093 149.213C96.4093 149.213 129.484 170.303 130.677 170.303C132.229 170.303 165.089 148.698 165.089 148.698C165.089 148.698 167.655 146.437 167.906 146.274L176.022 141.802V139.604L176.631 139.24L179.4 133.801L130.642 164.035L81.6445 133.801Z" fill="#DE5634"/>
</g>
<path style="mix-blend-mode:multiply" opacity="0.69" d="M130.645 154.114V164.037L179.403 133.803C179.275 130.922 178.711 128.081 177.732 125.387L130.645 154.114Z" fill="url(#paint41_linear_6297_50508)"/>
<g style="mix-blend-mode:soft-light" opacity="0.4">
<path d="M86.2399 127.57C85.3447 127.57 86.0847 135.911 88.7942 137.833C93.115 140.872 119.171 157.039 120.878 157.051C122.072 157.051 122 149.979 121.642 149.427C121.033 148.384 87.6125 127.57 86.2399 127.57Z" fill="#FFDF66"/>
</g>
<g style="mix-blend-mode:soft-light" opacity="0.4">
<path d="M145.122 145.546C144.561 146.161 144.633 153.961 145.6 153.723C153.468 149.703 161.048 145.085 168.278 139.906C175.213 134.542 176.192 127.458 174.64 127.621C174.604 127.571 146.28 144.289 145.122 145.546Z" fill="#FFDF66"/>
</g>
<path d="M106.797 149.339C106.797 149.339 129.213 163.483 130.669 163.483C132.125 163.483 149.993 152.052 149.993 152.052C149.993 152.052 131.218 164.613 130.705 164.613C130.191 164.613 106.797 149.339 106.797 149.339Z" fill="white"/>
<g style="mix-blend-mode:multiply" opacity="0.5">
<path d="M130.249 140.696L120.199 146.26L122.109 134.478L113.98 126.138L125.224 124.417L130.249 113.702L135.274 124.417L146.518 126.138L138.378 134.478L140.299 146.26L130.249 140.696Z" fill="#DE5634"/>
</g>
<path d="M145.334 126.542L139.915 125.713L138.435 125.487L134.914 124.946L130.247 114.998L125.58 124.946L115.148 126.542L122.704 134.279L120.913 145.207L130.247 140.057L139.569 145.207L137.791 134.279L145.334 126.542Z" fill="url(#paint42_linear_6297_50508)"/>
<path style="mix-blend-mode:multiply" opacity="0.37" d="M115.102 126.54L130.463 130.761L122.645 134.278L115.102 126.54Z" fill="url(#paint43_linear_6297_50508)"/>
<path style="mix-blend-mode:multiply" opacity="0.37" d="M145.289 126.54L130.465 130.761L137.746 134.278L145.289 126.54Z" fill="url(#paint44_linear_6297_50508)"/>
<path style="mix-blend-mode:multiply" opacity="0.37" d="M130.189 140.056L130.464 130.761L120.867 145.206L130.189 140.056Z" fill="url(#paint45_linear_6297_50508)"/>
<path style="mix-blend-mode:multiply" opacity="0.37" d="M139.525 145.206L130.466 130.761L130.191 140.056L139.525 145.206Z" fill="url(#paint46_linear_6297_50508)"/>
<path style="mix-blend-mode:color-dodge" opacity="0.5" d="M130.191 114.998L130.466 130.762L134.858 124.946L130.191 114.998Z" fill="url(#paint47_linear_6297_50508)"/>
<path style="mix-blend-mode:color-dodge" opacity="0.5" d="M145.289 126.543L130.465 130.763L134.857 124.947L145.289 126.543Z" fill="url(#paint48_linear_6297_50508)"/>
<path style="mix-blend-mode:color-dodge" opacity="0.5" d="M145.289 126.543L130.465 130.763L134.857 124.947L145.289 126.543Z" fill="url(#paint49_linear_6297_50508)"/>
<path style="mix-blend-mode:color-dodge" opacity="0.5" d="M125.534 124.947L130.463 130.763L115.102 126.543L125.534 124.947Z" fill="url(#paint50_linear_6297_50508)"/>
<path d="M134.856 128.401C134.08 129.092 134.748 129.544 134.748 129.544L138.735 128.401C138.173 127.965 137.493 127.73 136.795 127.73C136.097 127.73 135.417 127.965 134.856 128.401Z" fill="white"/>
<g style="mix-blend-mode:multiply" opacity="0.5">
<path d="M120.914 145.206C120.914 145.206 127.992 141.701 130.248 140.721L139.57 145.206L130.248 140.043L120.914 145.206Z" fill="#DE5634"/>
</g>
<g style="mix-blend-mode:multiply" opacity="0.5">
<path d="M115.102 126.54L130.463 130.761L122.024 138.398L115.102 126.54Z" fill="#DE5634"/>
</g>
<g style="mix-blend-mode:multiply" opacity="0.5">
<path d="M145.289 126.54L130.465 130.761L138.629 139.415L145.289 126.54Z" fill="#DE5634"/>
</g>
<g style="mix-blend-mode:multiply" opacity="0.5">
<path d="M120.914 145.206L130.463 130.761L139.57 145.206L130.248 143.661L120.914 145.206Z" fill="#DE5634"/>
</g>
<g style="mix-blend-mode:soft-light" opacity="0.4">
<path d="M126.774 123.224C125.784 126.113 129.555 128.135 130.069 127.243C130.582 126.352 130.26 121.39 129.615 120.712C128.971 120.033 127.18 122.043 126.774 123.224Z" fill="#F7FFFF"/>
</g>
<g style="mix-blend-mode:soft-light" opacity="0.4">
<path d="M123.684 138.059C125.69 138.348 126.812 135.936 127.265 134.291C127.922 131.615 120.032 137.532 123.684 138.059Z" fill="#F7FFFF"/>
</g>
<path d="M102 2L112.087 17.7023C113.006 19.1343 114.591 20 116.293 20H145.707C147.409 20 148.994 19.1343 149.913 17.7023L160 2H102Z" fill="url(#paint51_linear_6297_50508)"/>
<path d="M122.558 16L118.33 6.2H120.78L124.476 14.88H123.034L126.786 6.2H129.04L124.798 16H122.558ZM129.858 16V6.2H132.126V16H129.858ZM134.452 16V6.2H138.694C139.571 6.2 140.327 6.34467 140.962 6.634C141.597 6.914 142.087 7.32 142.432 7.852C142.777 8.384 142.95 9.01867 142.95 9.756C142.95 10.484 142.777 11.114 142.432 11.646C142.087 12.178 141.597 12.5887 140.962 12.878C140.327 13.158 139.571 13.298 138.694 13.298H135.712L136.72 12.276V16H134.452ZM136.72 12.528L135.712 11.45H138.568C139.268 11.45 139.791 11.3007 140.136 11.002C140.481 10.7033 140.654 10.288 140.654 9.756C140.654 9.21467 140.481 8.79467 140.136 8.496C139.791 8.19733 139.268 8.048 138.568 8.048H135.712L136.72 6.97V12.528Z" fill="white"/>
<path d="M35.324 20.544H37.34L39.878 31.128L42.38 20.544H44.396L41.156 33H38.6L35.324 20.544ZM45.8011 33V20.544H47.7451V33H45.8011ZM49.9496 33V20.544H51.8936V33H49.9496Z" fill="white"/>
<g style="mix-blend-mode:overlay">
<g style="mix-blend-mode:color-dodge">
<path fill-rule="evenodd" clip-rule="evenodd" d="M19 12C19 6.47715 23.4771 2 29 2H231C236.523 2 241 6.47715 241 12V120.562C241 123.615 239.506 126.474 237 128.217C234.494 129.961 233 132.82 233 135.873V159V162V185.127C233 188.18 234.494 191.039 237 192.783C239.506 194.526 241 197.385 241 200.438V304C241 309.523 236.523 314 231 314H29C23.4772 314 19 309.523 19 304V202.182C19 198.908 20.6021 195.842 23.2894 193.973L24.7106 192.984C27.3979 191.115 29 188.048 29 184.775L29 162V159L29 136.225C29 132.952 27.3979 129.885 24.7107 128.016L23.2894 127.027C20.6021 125.158 19 122.092 19 118.818V12Z" fill="url(#paint52_linear_6297_50508)"/>
</g>
</g>
<defs>
<filter id="filter0_b_6297_50508" x="-6" y="-19" width="89" height="354.983" filterUnits="userSpaceOnUse" colorInterpolationFilters="sRGB">
<feFlood floodOpacity="0" result="BackgroundImageFix"/>
<feGaussianBlur in="BackgroundImageFix" stdDeviation="13"/>
<feComposite in2="SourceAlpha" operator="in" result="effect1_backgroundBlur_6297_50508"/>
<feBlend mode="normal" in="SourceGraphic" in2="effect1_backgroundBlur_6297_50508" result="shape"/>
</filter>
<filter id="filter1_b_6297_50508" x="177" y="-19" width="89" height="354.983" filterUnits="userSpaceOnUse" colorInterpolationFilters="sRGB">
<feFlood floodOpacity="0" result="BackgroundImageFix"/>
<feGaussianBlur in="BackgroundImageFix" stdDeviation="13"/>
<feComposite in2="SourceAlpha" operator="in" result="effect1_backgroundBlur_6297_50508"/>
<feBlend mode="normal" in="SourceGraphic" in2="effect1_backgroundBlur_6297_50508" result="shape"/>
</filter>
<filter id="filter2_i_6297_50508" x="17" y="0" width="226" height="320" filterUnits="userSpaceOnUse" colorInterpolationFilters="sRGB">
<feFlood floodOpacity="0" result="BackgroundImageFix"/>
<feBlend mode="normal" in="SourceGraphic" in2="BackgroundImageFix" result="shape"/>
<feColorMatrix in="SourceAlpha" type="matrix" values="0 0 0 0 0 0 0 0 0 0 0 0 0 0 0 0 0 0 127 0" result="hardAlpha"/>
<feOffset dy="5"/>
<feGaussianBlur stdDeviation="2"/>
<feComposite in2="hardAlpha" operator="arithmetic" k2="-1" k3="1"/>
<feColorMatrix type="matrix" values="0 0 0 0 0 0 0 0 0 0 0 0 0 0 0 0 0 0 0.25 0"/>
<feBlend mode="normal" in2="shape" result="effect1_innerShadow_6297_50508"/>
</filter>
<filter id="filter3_f_6297_50508" x="0" y="31" width="261" height="254" filterUnits="userSpaceOnUse" colorInterpolationFilters="sRGB">
<feFlood floodOpacity="0" result="BackgroundImageFix"/>
<feBlend mode="normal" in="SourceGraphic" in2="BackgroundImageFix" result="shape"/>
<feGaussianBlur stdDeviation="37.5" result="effect1_foregroundBlur_6297_50508"/>
</filter>
<filter id="filter4_f_6297_50508" x="196.019" y="7.53866" width="37.4969" height="37.495" filterUnits="userSpaceOnUse" colorInterpolationFilters="sRGB">
<feFlood floodOpacity="0" result="BackgroundImageFix"/>
<feBlend mode="normal" in="SourceGraphic" in2="BackgroundImageFix" result="shape"/>
<feGaussianBlur stdDeviation="1.092" result="effect1_foregroundBlur_6297_50508"/>
</filter>
<filter id="filter5_f_6297_50508" x="191.086" y="2.60799" width="47.3563" height="47.3553" filterUnits="userSpaceOnUse" colorInterpolationFilters="sRGB">
<feFlood floodOpacity="0" result="BackgroundImageFix"/>
<feBlend mode="normal" in="SourceGraphic" in2="BackgroundImageFix" result="shape"/>
<feGaussianBlur stdDeviation="1.092" result="effect1_foregroundBlur_6297_50508"/>
</filter>
<filter id="filter6_f_6297_50508" x="191.086" y="2.60799" width="47.3563" height="47.3553" filterUnits="userSpaceOnUse" colorInterpolationFilters="sRGB">
<feFlood floodOpacity="0" result="BackgroundImageFix"/>
<feBlend mode="normal" in="SourceGraphic" in2="BackgroundImageFix" result="shape"/>
<feGaussianBlur stdDeviation="1.092" result="effect1_foregroundBlur_6297_50508"/>
</filter>
<filter id="filter7_f_6297_50508" x="190.82" y="2.57284" width="37.4969" height="37.4959" filterUnits="userSpaceOnUse" colorInterpolationFilters="sRGB">
<feFlood floodOpacity="0" result="BackgroundImageFix"/>
<feBlend mode="normal" in="SourceGraphic" in2="BackgroundImageFix" result="shape"/>
<feGaussianBlur stdDeviation="1.092" result="effect1_foregroundBlur_6297_50508"/>
</filter>
<filter id="filter8_f_6297_50508" x="199.722" y="14.3902" width="37.3133" height="37.3114" filterUnits="userSpaceOnUse" colorInterpolationFilters="sRGB">
<feFlood floodOpacity="0" result="BackgroundImageFix"/>
<feBlend mode="normal" in="SourceGraphic" in2="BackgroundImageFix" result="shape"/>
<feGaussianBlur stdDeviation="1.092" result="effect1_foregroundBlur_6297_50508"/>
</filter>
<linearGradient id="paint0_linear_6297_50508" x1="13" y1="296.56" x2="134.492" y2="0.901086" gradientUnits="userSpaceOnUse">
<stop stop-color="#060913"/>
<stop offset="0.136764" stop-color="#070A16"/>
<stop offset="0.197268" stop-color="#0D142E"/>
<stop offset="0.309253" stop-color="#070B17"/>
<stop offset="0.490764" stop-color="#080C1A"/>
<stop offset="0.661458" stop-color="#0B1125"/>
<stop offset="1" stop-color="#101010"/>
</linearGradient>
<linearGradient id="paint1_linear_6297_50508" x1="43.5" y1="323.39" x2="109.599" y2="304.922" gradientUnits="userSpaceOnUse">
<stop stop-color="#EECCA2"/>
<stop offset="0.260417" stop-color="#624A2C"/>
<stop offset="0.6875" stop-color="#FFDAAB"/>
<stop offset="1" stop-color="#C68C43"/>
</linearGradient>
<linearGradient id="paint2_linear_6297_50508" x1="247" y1="20.4233" x2="125.508" y2="316.082" gradientUnits="userSpaceOnUse">
<stop stop-color="#060913"/>
<stop offset="0.136764" stop-color="#070A16"/>
<stop offset="0.197268" stop-color="#0D142E"/>
<stop offset="0.309253" stop-color="#070B17"/>
<stop offset="0.490764" stop-color="#080C1A"/>
<stop offset="0.661458" stop-color="#0B1125"/>
<stop offset="1" stop-color="#101010"/>
</linearGradient>
<linearGradient id="paint3_linear_6297_50508" x1="216.5" y1="-6.40634" x2="150.401" y2="12.0615" gradientUnits="userSpaceOnUse">
<stop stop-color="#EECCA2"/>
<stop offset="0.260417" stop-color="#624A2C"/>
<stop offset="0.6875" stop-color="#FFDAAB"/>
<stop offset="1" stop-color="#C68C43"/>
</linearGradient>
<linearGradient id="paint4_linear_6297_50508" x1="184.5" y1="-25.5" x2="1.5" y2="349.5" gradientUnits="userSpaceOnUse">
<stop stop-color="#C68C43"/>
<stop offset="0.119792" stop-color="#F5BA6E"/>
<stop offset="0.286458" stop-color="#C68C43"/>
<stop offset="0.5625" stop-color="#C68C43"/>
<stop offset="0.770833" stop-color="#EEB873"/>
<stop offset="1" stop-color="#C68C43"/>
</linearGradient>
<linearGradient id="paint5_linear_6297_50508" x1="131.064" y1="154.818" x2="131.064" y2="-46.36" gradientUnits="userSpaceOnUse">
<stop stop-color="#CA6B34"/>
<stop offset="0.67" stop-color="#FFA933"/>
<stop offset="1" stop-color="#FFBD2B"/>
</linearGradient>
<linearGradient id="paint6_linear_6297_50508" x1="80.9314" y1="47.9531" x2="80.9314" y2="91.3368" gradientUnits="userSpaceOnUse">
<stop stop-color="#C10065"/>
<stop offset="1" stop-color="white"/>
</linearGradient>
<linearGradient id="paint7_linear_6297_50508" x1="181.924" y1="47.9531" x2="181.924" y2="91.3368" gradientUnits="userSpaceOnUse">
<stop stop-color="#C10065"/>
<stop offset="1" stop-color="white"/>
</linearGradient>
<linearGradient id="paint8_linear_6297_50508" x1="100.251" y1="71.2334" x2="100.251" y2="151.652" gradientUnits="userSpaceOnUse">
<stop stop-color="#C10065"/>
<stop offset="1" stop-color="white"/>
</linearGradient>
<linearGradient id="paint9_linear_6297_50508" x1="161.393" y1="71.2334" x2="161.393" y2="151.652" gradientUnits="userSpaceOnUse">
<stop stop-color="#C10065"/>
<stop offset="1" stop-color="white"/>
</linearGradient>
<linearGradient id="paint10_linear_6297_50508" x1="139.171" y1="-4.27537" x2="150.065" y2="109.544" gradientUnits="userSpaceOnUse">
<stop stop-color="#BFD7FF"/>
<stop offset="1"/>
</linearGradient>
<linearGradient id="paint11_linear_6297_50508" x1="132.316" y1="54.8309" x2="231.532" y2="54.8309" gradientUnits="userSpaceOnUse">
<stop stop-color="#BFD7FF"/>
<stop offset="1"/>
</linearGradient>
<linearGradient id="paint12_linear_6297_50508" x1="173.696" y1="-7.45115" x2="184.673" y2="106.233" gradientUnits="userSpaceOnUse">
<stop stop-color="#BFD7FF"/>
<stop offset="1"/>
</linearGradient>
<linearGradient id="paint13_linear_6297_50508" x1="73.8992" y1="2.16332" x2="84.872" y2="115.848" gradientUnits="userSpaceOnUse">
<stop stop-color="#BFD7FF"/>
<stop offset="1"/>
</linearGradient>
<linearGradient id="paint14_linear_6297_50508" x1="175.403" y1="162.69" x2="175.393" y2="139.084" gradientUnits="userSpaceOnUse">
<stop stop-color="#CA6B34"/>
<stop offset="0.67" stop-color="#FFA933"/>
<stop offset="1" stop-color="#FFBD2B"/>
</linearGradient>
<linearGradient id="paint15_linear_6297_50508" x1="102.64" y1="192.173" x2="102.498" y2="168.599" gradientUnits="userSpaceOnUse">
<stop stop-color="#CA6B34"/>
<stop offset="0.67" stop-color="#FFA933"/>
<stop offset="1" stop-color="#FFBD2B"/>
</linearGradient>
<linearGradient id="paint16_linear_6297_50508" x1="95.6098" y1="216.704" x2="125.426" y2="216.704" gradientUnits="userSpaceOnUse">
<stop stop-color="#DE3C14"/>
<stop offset="0.07" stop-color="#C72E10"/>
<stop offset="0.19" stop-color="#AB1C0C"/>
<stop offset="0.3" stop-color="#971009"/>
<stop offset="0.41" stop-color="#8B0807"/>
<stop offset="0.52" stop-color="#870606"/>
<stop offset="0.62" stop-color="#8C0707"/>
<stop offset="0.73" stop-color="#9A0808"/>
<stop offset="0.85" stop-color="#B20B0B"/>
<stop offset="0.97" stop-color="#D30E0E"/>
<stop offset="1" stop-color="#DB0F0F"/>
</linearGradient>
<linearGradient id="paint17_linear_6297_50508" x1="135.574" y1="216.704" x2="165.39" y2="216.704" gradientUnits="userSpaceOnUse">
<stop stop-color="#DE3C14"/>
<stop offset="0.07" stop-color="#C72E10"/>
<stop offset="0.19" stop-color="#AB1C0C"/>
<stop offset="0.3" stop-color="#971009"/>
<stop offset="0.41" stop-color="#8B0807"/>
<stop offset="0.52" stop-color="#870606"/>
<stop offset="0.62" stop-color="#8C0707"/>
<stop offset="0.73" stop-color="#9A0808"/>
<stop offset="0.85" stop-color="#B20B0B"/>
<stop offset="0.97" stop-color="#D30E0E"/>
<stop offset="1" stop-color="#DB0F0F"/>
</linearGradient>
<linearGradient id="paint18_linear_6297_50508" x1="95.61" y1="216.706" x2="125.426" y2="216.706" gradientUnits="userSpaceOnUse">
<stop stop-color="#B41E2D"/>
<stop offset="1" stop-color="#E54136"/>
</linearGradient>
<linearGradient id="paint19_linear_6297_50508" x1="135.574" y1="216.704" x2="165.39" y2="216.704" gradientUnits="userSpaceOnUse">
<stop stop-color="#B41E2D"/>
<stop offset="1" stop-color="#E54136"/>
</linearGradient>
<linearGradient id="paint20_linear_6297_50508" x1="104.526" y1="109.281" x2="104.526" y2="133.725" gradientUnits="userSpaceOnUse">
<stop stop-color="#C10065"/>
<stop offset="1" stop-color="white"/>
</linearGradient>
<linearGradient id="paint21_linear_6297_50508" x1="156.473" y1="109.281" x2="156.473" y2="133.725" gradientUnits="userSpaceOnUse">
<stop stop-color="#C10065"/>
<stop offset="1" stop-color="white"/>
</linearGradient>
<linearGradient id="paint22_linear_6297_50508" x1="74.8537" y1="182.125" x2="74.8537" y2="156.06" gradientUnits="userSpaceOnUse">
<stop stop-color="#CA6B34"/>
<stop offset="0.67" stop-color="#FFA933"/>
<stop offset="1" stop-color="#FFBD2B"/>
</linearGradient>
<linearGradient id="paint23_linear_6297_50508" x1="77.73" y1="168.092" x2="77.73" y2="180.264" gradientUnits="userSpaceOnUse">
<stop stop-color="#C10065"/>
<stop offset="1" stop-color="white"/>
</linearGradient>
<linearGradient id="paint24_linear_6297_50508" x1="186.157" y1="182.125" x2="186.157" y2="156.06" gradientUnits="userSpaceOnUse">
<stop stop-color="#CA6B34"/>
<stop offset="0.67" stop-color="#FFA933"/>
<stop offset="1" stop-color="#FFBD2B"/>
</linearGradient>
<linearGradient id="paint25_linear_6297_50508" x1="183.267" y1="168.092" x2="183.267" y2="180.264" gradientUnits="userSpaceOnUse">
<stop stop-color="#C10065"/>
<stop offset="1" stop-color="white"/>
</linearGradient>
<linearGradient id="paint26_linear_6297_50508" x1="130.681" y1="217.91" x2="130.681" y2="114.294" gradientUnits="userSpaceOnUse">
<stop stop-color="#CA6B34"/>
<stop offset="0.67" stop-color="#FFA933"/>
<stop offset="1" stop-color="#FFBD2B"/>
</linearGradient>
<linearGradient id="paint27_linear_6297_50508" x1="130.68" y1="96.0687" x2="130.68" y2="200.225" gradientUnits="userSpaceOnUse">
<stop stop-color="#CA6B34"/>
<stop offset="0.17" stop-color="#CC6E34"/>
<stop offset="0.29" stop-color="#D27733"/>
<stop offset="0.39" stop-color="#DB8631"/>
<stop offset="0.48" stop-color="#E99B2F"/>
<stop offset="0.57" stop-color="#FBB72C"/>
<stop offset="0.59" stop-color="#FFBD2B"/>
<stop offset="1" stop-color="#FFA933"/>
</linearGradient>
<linearGradient id="paint28_linear_6297_50508" x1="130.681" y1="202.547" x2="130.681" y2="108.289" gradientUnits="userSpaceOnUse">
<stop stop-color="#B75014"/>
<stop offset="0.38" stop-color="#E8692A"/>
<stop offset="1" stop-color="#F58E2F"/>
</linearGradient>
<linearGradient id="paint29_linear_6297_50508" x1="89.3908" y1="158.734" x2="89.3908" y2="187.16" gradientUnits="userSpaceOnUse">
<stop stop-color="#C10065"/>
<stop offset="1" stop-color="white"/>
</linearGradient>
<linearGradient id="paint30_linear_6297_50508" x1="171.786" y1="158.734" x2="171.786" y2="187.16" gradientUnits="userSpaceOnUse">
<stop stop-color="#C10065"/>
<stop offset="1" stop-color="white"/>
</linearGradient>
<linearGradient id="paint31_linear_6297_50508" x1="108.894" y1="184.711" x2="108.894" y2="214.091" gradientUnits="userSpaceOnUse">
<stop stop-color="#C10065"/>
<stop offset="1" stop-color="white"/>
</linearGradient>
<linearGradient id="paint32_linear_6297_50508" x1="152.461" y1="184.723" x2="152.461" y2="214.669" gradientUnits="userSpaceOnUse">
<stop stop-color="#C10065"/>
<stop offset="1" stop-color="white"/>
</linearGradient>
<linearGradient id="paint33_linear_6297_50508" x1="130.498" y1="110.112" x2="130.498" y2="185.214" gradientUnits="userSpaceOnUse">
<stop stop-color="#CA6B34"/>
<stop offset="0.67" stop-color="#FFA933"/>
<stop offset="1" stop-color="#FFBD2B"/>
</linearGradient>
<linearGradient id="paint34_linear_6297_50508" x1="130.499" y1="199.598" x2="130.499" y2="166.06" gradientUnits="userSpaceOnUse">
<stop stop-color="#F1CB3C"/>
<stop offset="1" stop-color="#FFC14F"/>
</linearGradient>
<linearGradient id="paint35_linear_6297_50508" x1="155.03" y1="157.643" x2="155.03" y2="196.293" gradientUnits="userSpaceOnUse">
<stop stop-color="#C10065"/>
<stop offset="1" stop-color="white"/>
</linearGradient>
<linearGradient id="paint36_linear_6297_50508" x1="130.498" y1="99.1948" x2="130.498" y2="174.297" gradientUnits="userSpaceOnUse">
<stop stop-color="#CA6B34"/>
<stop offset="0.67" stop-color="#FFA933"/>
<stop offset="1" stop-color="#FFBD2B"/>
</linearGradient>
<linearGradient id="paint37_linear_6297_50508" x1="130.499" y1="183.504" x2="130.499" y2="149.966" gradientUnits="userSpaceOnUse">
<stop stop-color="#F1CB3C"/>
<stop offset="1" stop-color="#FFC14F"/>
</linearGradient>
<linearGradient id="paint38_linear_6297_50508" x1="155.03" y1="141.551" x2="155.03" y2="180.201" gradientUnits="userSpaceOnUse">
<stop stop-color="#C10065"/>
<stop offset="1" stop-color="white"/>
</linearGradient>
<linearGradient id="paint39_linear_6297_50508" x1="130.498" y1="81.31" x2="130.498" y2="156.413" gradientUnits="userSpaceOnUse">
<stop stop-color="#CA6B34"/>
<stop offset="0.67" stop-color="#FFA933"/>
<stop offset="1" stop-color="#FFBD2B"/>
</linearGradient>
<linearGradient id="paint40_linear_6297_50508" x1="130.499" y1="167.351" x2="130.499" y2="133.801" gradientUnits="userSpaceOnUse">
<stop stop-color="#F1CB3C"/>
<stop offset="1" stop-color="#FFC14F"/>
</linearGradient>
<linearGradient id="paint41_linear_6297_50508" x1="155.03" y1="125.387" x2="155.03" y2="164.037" gradientUnits="userSpaceOnUse">
<stop stop-color="#C10065"/>
<stop offset="1" stop-color="white"/>
</linearGradient>
<linearGradient id="paint42_linear_6297_50508" x1="130.247" y1="145.785" x2="130.247" y2="109.873" gradientUnits="userSpaceOnUse">
<stop stop-color="#CA6B34"/>
<stop offset="0.67" stop-color="#FFA933"/>
<stop offset="1" stop-color="#FFBD2B"/>
</linearGradient>
<linearGradient id="paint43_linear_6297_50508" x1="122.776" y1="126.54" x2="122.776" y2="134.278" gradientUnits="userSpaceOnUse">
<stop stop-color="#C10065"/>
<stop offset="1" stop-color="white"/>
</linearGradient>
<linearGradient id="paint44_linear_6297_50508" x1="137.877" y1="126.54" x2="137.877" y2="134.278" gradientUnits="userSpaceOnUse">
<stop stop-color="#C10065"/>
<stop offset="1" stop-color="white"/>
</linearGradient>
<linearGradient id="paint45_linear_6297_50508" x1="125.665" y1="130.761" x2="125.665" y2="145.206" gradientUnits="userSpaceOnUse">
<stop stop-color="#C10065"/>
<stop offset="1" stop-color="white"/>
</linearGradient>
<linearGradient id="paint46_linear_6297_50508" x1="134.858" y1="130.761" x2="134.858" y2="145.206" gradientUnits="userSpaceOnUse">
<stop stop-color="#C10065"/>
<stop offset="1" stop-color="white"/>
</linearGradient>
<linearGradient id="paint47_linear_6297_50508" x1="131.576" y1="117.372" x2="133.886" y2="137.495" gradientUnits="userSpaceOnUse">
<stop stop-color="#BFD7FF"/>
<stop offset="1"/>
</linearGradient>
<linearGradient id="paint48_linear_6297_50508" x1="130.465" y1="127.861" x2="145.289" y2="127.861" gradientUnits="userSpaceOnUse">
<stop stop-color="#BFD7FF"/>
<stop offset="1"/>
</linearGradient>
<linearGradient id="paint49_linear_6297_50508" x1="136.648" y1="116.783" x2="138.958" y2="136.905" gradientUnits="userSpaceOnUse">
<stop stop-color="#BFD7FF"/>
<stop offset="1"/>
</linearGradient>
<linearGradient id="paint50_linear_6297_50508" x1="121.726" y1="118.503" x2="124.036" y2="138.626" gradientUnits="userSpaceOnUse">
<stop stop-color="#BFD7FF"/>
<stop offset="1"/>
</linearGradient>
<linearGradient id="paint51_linear_6297_50508" x1="148.5" y1="-0.5" x2="104" y2="22.5" gradientUnits="userSpaceOnUse">
<stop stop-color="#C68C43"/>
<stop offset="0.119792" stop-color="#F5BA6E"/>
<stop offset="0.286458" stop-color="#C68C43"/>
<stop offset="0.5625" stop-color="#C68C43"/>
<stop offset="0.770833" stop-color="#EEB873"/>
<stop offset="1" stop-color="#C68C43"/>
</linearGradient>
<linearGradient id="paint52_linear_6297_50508" x1="84.5" y1="60.5" x2="32.0032" y2="111.503" gradientUnits="userSpaceOnUse">
<stop stop-color="white" stop-opacity="0"/>
<stop offset="0.440223" stop-color="white"/>
<stop offset="1" stop-color="white" stop-opacity="0"/>
</linearGradient>
</defs>
</svg>
