<svg width="261" height="316" viewBox="0 0 261 316" fill="none" xmlns="http://www.w3.org/2000/svg">
<g filter="url(#filter0_b_6297_50506)">
<path d="M25 309.983C22.2386 309.983 20 307.745 20 304.983L20 11.9998C20 9.2384 22.2386 6.99982 25 6.99982L57 6.99982L57 309.983L25 309.983Z" fill="url(#paint0_linear_6297_50506)"/>
<path d="M25 308.983C22.7909 308.983 21 307.193 21 304.983L21 11.9998C21 9.79068 22.7908 7.99982 25 7.99982L56 7.99982L56 308.983L25 308.983Z" stroke="url(#paint1_linear_6297_50506)" stroke-width="2"/>
</g>
<g filter="url(#filter1_b_6297_50506)">
<path d="M235 7C237.761 7 240 9.23858 240 12L240 304.984C240 307.745 237.761 309.984 235 309.984L203 309.984L203 7L235 7Z" fill="url(#paint2_linear_6297_50506)"/>
<path d="M235 8C237.209 8 239 9.79086 239 12L239 304.984C239 307.193 237.209 308.984 235 308.984L204 308.984L204 8L235 8Z" stroke="url(#paint3_linear_6297_50506)" stroke-width="2"/>
</g>
<mask id="path-5-inside-1_6297_50506" fill="white">
<path fill-rule="evenodd" clip-rule="evenodd" d="M17 10C17 4.47715 21.4772 0 27 0H233C238.523 0 243 4.47715 243 10V116.123C243 119.396 241.398 122.462 238.711 124.332L236.289 126.016C233.602 127.885 232 130.952 232 134.225V157V160V182.775C232 186.048 233.602 189.115 236.289 190.984L238.711 192.668C241.398 194.538 243 197.604 243 200.877V306C243 311.523 238.523 316 233 316H27C21.4772 316 17 311.523 17 306V200.877C17 197.604 18.6021 194.538 21.2894 192.668L23.7106 190.984C26.3979 189.115 28 186.048 28 182.775L28 160V157L28 134.225C28 130.952 26.3979 127.885 23.7106 126.016L21.2894 124.332C18.6021 122.462 17 119.396 17 116.123V10Z"/>
</mask>
<g filter="url(#filter2_i_6297_50506)">
<path fill-rule="evenodd" clip-rule="evenodd" d="M17 10C17 4.47715 21.4772 0 27 0H233C238.523 0 243 4.47715 243 10V116.123C243 119.396 241.398 122.462 238.711 124.332L236.289 126.016C233.602 127.885 232 130.952 232 134.225V157V160V182.775C232 186.048 233.602 189.115 236.289 190.984L238.711 192.668C241.398 194.538 243 197.604 243 200.877V306C243 311.523 238.523 316 233 316H27C21.4772 316 17 311.523 17 306V200.877C17 197.604 18.6021 194.538 21.2894 192.668L23.7106 190.984C26.3979 189.115 28 186.048 28 182.775L28 160V157L28 134.225C28 130.952 26.3979 127.885 23.7106 126.016L21.2894 124.332C18.6021 122.462 17 119.396 17 116.123V10Z" fill="#090E1C"/>
</g>
<path d="M28 160H30H28ZM28 157H26H28ZM21.2894 124.332L22.4315 122.69L21.2894 124.332ZM21.2894 192.668L20.1472 191.026L21.2894 192.668ZM238.711 192.668L237.569 194.31L238.711 192.668ZM23.7106 126.016L22.5685 127.658L23.7106 126.016ZM236.289 126.016L235.147 124.374L236.289 126.016ZM238.711 124.332L239.853 125.974L238.711 124.332ZM236.289 190.984L237.431 189.342L236.289 190.984ZM23.7106 190.984L24.8528 192.626L23.7106 190.984ZM233 -2H27V2H233V-2ZM245 116.123V10H241V116.123H245ZM237.431 127.658L239.853 125.974L237.569 122.69L235.147 124.374L237.431 127.658ZM234 157V134.225H230V157H234ZM234 160V157H230V160H234ZM234 182.775V160H230V182.775H234ZM239.853 191.026L237.431 189.342L235.147 192.626L237.569 194.31L239.853 191.026ZM245 306V200.877H241V306H245ZM27 318H233V314H27V318ZM15 200.877V306H19V200.877H15ZM22.4315 194.31L24.8528 192.626L22.5685 189.342L20.1472 191.026L22.4315 194.31ZM30 182.775L30 160H26L26 182.775H30ZM30 160V157H26V160H30ZM30 157L30 134.225H26L26 157H30ZM24.8528 124.374L22.4315 122.69L20.1472 125.974L22.5685 127.658L24.8528 124.374ZM15 10V116.123H19V10H15ZM22.4315 122.69C20.2817 121.194 19 118.741 19 116.123H15C15 120.051 16.9226 123.73 20.1472 125.974L22.4315 122.69ZM19 200.877C19 198.259 20.2817 195.806 22.4315 194.31L20.1472 191.026C16.9226 193.27 15 196.949 15 200.877H19ZM27 314C22.5817 314 19 310.418 19 306H15C15 312.627 20.3726 318 27 318V314ZM241 306C241 310.418 237.418 314 233 314V318C239.627 318 245 312.627 245 306H241ZM237.569 194.31C239.718 195.806 241 198.259 241 200.877H245C245 196.949 243.077 193.27 239.853 191.026L237.569 194.31ZM30 134.225C30 130.297 28.0774 126.618 24.8528 124.374L22.5685 127.658C24.7183 129.153 26 131.606 26 134.225H30ZM235.147 124.374C231.923 126.618 230 130.297 230 134.225H234C234 131.606 235.282 129.153 237.431 127.658L235.147 124.374ZM241 116.123C241 118.741 239.718 121.194 237.569 122.69L239.853 125.974C243.077 123.73 245 120.051 245 116.123H241ZM230 182.775C230 186.703 231.923 190.382 235.147 192.626L237.431 189.342C235.282 187.847 234 185.394 234 182.775H230ZM27 -2C20.3726 -2 15 3.37258 15 10H19C19 5.58172 22.5817 2 27 2V-2ZM24.8528 192.626C28.0774 190.382 30 186.703 30 182.775H26C26 185.394 24.7183 187.847 22.5685 189.342L24.8528 192.626ZM233 2C237.418 2 241 5.58172 241 10H245C245 3.37258 239.627 -2 233 -2V2Z" fill="url(#paint4_linear_6297_50506)" mask="url(#path-5-inside-1_6297_50506)"/>
<mask id="mask0_6297_50506" style="mask-type:alpha" maskUnits="userSpaceOnUse" x="19" y="2" width="222" height="312">
<path fill-rule="evenodd" clip-rule="evenodd" d="M19 12C19 6.47715 23.4771 2 29 2H231C236.523 2 241 6.47715 241 12V116.602C241 119.867 239.406 122.927 236.73 124.798L234.465 126.382C231.789 128.253 230.195 131.312 230.195 134.577V157.013V159.975V182.41C230.195 185.675 231.789 188.735 234.465 190.606L236.73 192.19C239.406 194.061 241 197.12 241 200.385V304C241 309.523 236.523 314 231 314H29C23.4772 314 19 309.523 19 304V200.386C19 197.121 20.5939 194.062 23.2697 192.191L25.537 190.606C28.2127 188.735 29.8066 185.675 29.8066 182.41L29.8066 157.013L29.8066 134.577C29.8066 131.312 28.2127 128.253 25.537 126.382L23.2697 124.796C20.5939 122.925 19 119.866 19 116.601V12Z" fill="#090E1C"/>
</mask>
<g mask="url(#mask0_6297_50506)">
<rect x="18" y="317" width="317" height="113" transform="rotate(-90 18 317)" fill="#060911"/>
<g style="mix-blend-mode:hard-light" opacity="0.2">
<path style="mix-blend-mode:multiply" opacity="0.5" d="M130.461 128.767L64.0275 165L76.7303 88.2809L23 33.9722L97.244 22.767L130.461 -47L163.677 22.767L238 33.9722L184.191 88.2809L196.894 165L130.461 128.767Z" fill="url(#paint5_linear_6297_50506)"/>
<path d="M230.195 36.5899L194.375 31.1918L184.591 29.7195L161.316 26.2026L130.467 -38.5752L99.6961 26.2026L30.7383 36.5899L80.6025 86.9726L68.8465 158.13L130.467 124.514L192.087 158.13L180.331 86.9726L230.195 36.5899Z" fill="url(#paint6_linear_6297_50506)"/>
<path style="mix-blend-mode:multiply" opacity="0.5" d="M30.4297 36.5908L131.894 64.0723L80.2939 86.9735L30.4297 36.5908Z" fill="url(#paint7_linear_6297_50506)"/>
<path style="mix-blend-mode:multiply" opacity="0.5" d="M229.875 36.5908L131.883 64.0723L180.011 86.9735L229.875 36.5908Z" fill="url(#paint8_linear_6297_50506)"/>
<path style="mix-blend-mode:multiply" opacity="0.5" d="M130.144 124.516L131.88 64.0732L68.4453 158.132L130.144 124.516Z" fill="url(#paint9_linear_6297_50506)"/>
<path style="mix-blend-mode:multiply" opacity="0.5" d="M191.772 158.132L131.888 64.0732L130.152 124.516L191.772 158.132Z" fill="url(#paint10_linear_6297_50506)"/>
<path style="mix-blend-mode:color-dodge" opacity="0.5" d="M130.152 -38.5752L131.888 64.0714L160.923 26.2026L130.152 -38.5752Z" fill="url(#paint11_linear_6297_50506)"/>
<path style="mix-blend-mode:color-dodge" opacity="0.5" d="M229.875 36.5905L131.883 64.072L160.918 26.2031L229.875 36.5905Z" fill="url(#paint12_linear_6297_50506)"/>
<path style="mix-blend-mode:color-dodge" opacity="0.5" d="M229.875 36.5905L131.883 64.072L160.918 26.2031L229.875 36.5905Z" fill="url(#paint13_linear_6297_50506)"/>
<path style="mix-blend-mode:color-dodge" opacity="0.5" d="M99.3086 26.2031L131.894 64.072L30.4297 36.5905L99.3086 26.2031Z" fill="url(#paint14_linear_6297_50506)"/>
<g style="mix-blend-mode:color-dodge" opacity="0.8">
<path d="M160.686 48.6967C155.558 53.1951 159.976 56.1396 159.976 56.1396L186.328 48.6967C182.614 45.8602 178.121 44.3301 173.507 44.3301C168.894 44.3301 164.401 45.8602 160.686 48.6967Z" fill="white"/>
</g>
<path style="mix-blend-mode:multiply" opacity="0.5" d="M68.8477 158.131C68.8477 158.131 115.556 135.312 130.468 128.932L192.246 158.131L130.626 124.516L68.8477 158.131Z" fill="url(#paint15_linear_6297_50506)"/>
<g style="mix-blend-mode:soft-light" opacity="0.4">
<path d="M107.498 14.9977C100.95 33.8095 125.961 46.9776 129.274 41.1705C132.588 35.3634 130.537 3.05637 126.276 -1.3603C122.016 -5.77696 110.181 7.30945 107.498 14.9977Z" fill="#F7FFFF"/>
</g>
<g style="mix-blend-mode:soft-light" opacity="0.4">
<path d="M87.0677 111.592C100.402 113.392 107.818 97.7698 110.737 87.0553C115.077 69.634 63.0034 108.157 87.0677 111.592Z" fill="#F7FFFF"/>
</g>
</g>
</g>
<g filter="url(#filter3_f_6297_50506)">
<ellipse cx="130.5" cy="158" rx="55.5" ry="52" fill="#6E85CF"/>
</g>
<rect x="202" y="13" width="26" height="26" rx="13" fill="#151C30"/>
<rect x="202.5" y="13.5" width="25" height="25" rx="12.5" stroke="#C68C43"/>
<g style="mix-blend-mode:soft-light">
<mask id="mask1_6297_50506" style="mask-type:alpha" maskUnits="userSpaceOnUse" x="202" y="13" width="26" height="26">
<rect x="202" y="13" width="26" height="26" rx="13" fill="#101520"/>
</mask>
<g mask="url(#mask1_6297_50506)">
<g filter="url(#filter4_f_6297_50506)">
<path d="M198.387 42.6662L231.147 9.90625" stroke="white" stroke-width="0.52"/>
</g>
<g filter="url(#filter5_f_6297_50506)">
<path d="M193.73 47.32L235.798 5.25195" stroke="white" stroke-width="1.3"/>
</g>
<g filter="url(#filter6_f_6297_50506)">
<path d="M193.73 47.32L235.798 5.25195" stroke="white" stroke-width="1.3"/>
</g>
<g opacity="0.5" filter="url(#filter7_f_6297_50506)">
<path d="M193.188 37.7004L225.947 4.94043" stroke="white" stroke-width="0.52"/>
</g>
<g opacity="0.5" filter="url(#filter8_f_6297_50506)">
<path d="M202 49.426L234.76 16.666" stroke="white" stroke-width="0.26"/>
</g>
</g>
</g>
<path d="M218.353 29.3318C217.693 29.8351 216.932 29.9562 216.932 29.9562C217.47 29.5645 218.51 28.4642 217.907 27.2708C217.304 26.0773 215.001 25.3037 215.001 25.3037C215.001 25.3037 212.699 26.0777 212.094 27.2708C211.49 28.4638 212.531 29.5645 213.07 29.9562C213.07 29.9562 212.308 29.8347 211.649 29.3314C211.649 29.3314 210.033 30.7485 209.848 32.3897C209.848 32.3897 211.324 31.2989 215.001 31.2989C218.678 31.2989 220.155 32.3897 220.155 32.3897C219.968 30.7489 218.353 29.3318 218.353 29.3318ZM215.271 29.3224L215.001 29.7701L214.732 29.3224C212.996 29.192 212.68 27.8959 212.68 27.8959L213.543 27.3926L213.309 26.9825L214.999 28.0079L216.692 26.9825L216.458 27.3926L217.321 27.8959C217.321 27.8959 217.006 29.192 215.27 29.3224H215.271Z" fill="white"/>
<path d="M219.754 20.8241C219.754 20.8241 221.275 21.0005 222 21.7347C222 21.7347 220.877 19.6348 218.5 19.6348C216.123 19.6348 215 20.9263 215 20.9263C215 20.9263 213.877 19.6348 211.5 19.6348C209.124 19.6348 208 21.7347 208 21.7347C208.724 21.0005 210.247 20.8241 210.247 20.8241C209.04 21.1781 208.11 22.6196 208.121 24.3463C208.131 26.0731 208.798 27.3101 209.458 27.4689C210.117 27.6278 210.469 26.9951 211.454 26.0638C212.438 25.1325 213.44 24.9861 213.44 24.9861C212.447 24.5399 211.788 24.8003 211.128 25.0138C210.469 25.2273 209.931 25.3019 209.55 24.531C209.17 23.7601 209.894 22.9143 209.894 22.9143C209.485 22.9794 209.096 23.3046 209.096 23.3046C209.467 22.4217 209.94 22.1801 210.711 22.1523C211.481 22.1246 211.834 22.3288 212.642 22.7843C213.449 23.2398 214.155 23.7691 214.573 23.4252C214.991 23.0813 214.369 21.9201 214.369 21.9201C214.824 22.2175 215 22.8397 215 22.8397C215 22.8397 215.177 22.2175 215.631 21.9201C215.631 21.9201 215.007 23.0813 215.427 23.4252C215.847 23.7691 216.551 23.2394 217.358 22.7843C218.166 22.3292 218.519 22.1246 219.289 22.1523C220.06 22.1801 220.533 22.4244 220.903 23.3057C220.903 23.3057 220.513 22.9806 220.105 22.9154C220.105 22.9154 220.829 23.7609 220.449 24.5321C220.068 25.3034 219.53 25.2289 218.871 25.015C218.211 24.8011 217.552 24.5411 216.558 24.9873C216.558 24.9873 217.561 25.136 218.545 26.0649C219.529 26.9939 219.882 27.6262 220.541 27.4701C221.201 27.314 221.868 26.0763 221.879 24.3475C221.889 22.6188 220.96 21.1781 219.754 20.8241Z" fill="white"/>
<path d="M218.503 19.6348C216.124 19.6348 214.999 20.9358 214.999 20.9358C214.999 20.9358 213.874 19.6348 211.495 19.6348C209.724 19.6348 208.648 20.8065 208.215 21.4041C209.141 20.4954 211.616 18.7619 215 21.7391C218.385 18.7619 220.859 20.4954 221.786 21.4041C221.35 20.8065 220.274 19.6348 218.503 19.6348Z" fill="#C4C4C4"/>
<path d="M211.094 25.0066C210.433 25.2213 209.893 25.2958 209.512 24.5218C209.13 23.7477 209.856 22.8984 209.856 22.8984C209.528 22.9506 209.212 23.1704 209.1 23.2559C208.767 23.812 208.537 24.8196 209.319 26.4762C209.319 26.4762 208.65 26.2783 208.129 25.1214C208.299 26.4367 208.861 27.3361 209.419 27.4697C210.08 27.6265 210.433 26.994 211.42 26.0589C212.407 25.1237 213.411 24.9768 213.411 24.9768C212.415 24.5308 211.754 24.7922 211.094 25.0066Z" fill="#C4C4C4"/>
<path d="M220.62 26.4748C221.41 24.7996 221.167 23.7881 220.83 23.2365C220.7 23.1413 220.405 22.947 220.099 22.8984C220.099 22.8984 220.825 23.747 220.443 24.5211C220.062 25.2952 219.523 25.2204 218.863 25.0057C218.203 24.791 217.542 24.5301 216.547 24.9779C216.547 24.9779 217.551 25.1271 218.537 26.0595C219.523 26.9919 219.876 27.6265 220.536 27.4698C221.098 27.3347 221.666 26.4176 221.829 25.0801C221.306 26.2726 220.62 26.4748 220.62 26.4748Z" fill="#C4C4C4"/>
<path d="M220.152 32.3708C219.559 31.9163 218.047 30.979 215.54 30.8751C212.211 30.7357 211.904 31.2793 211.528 30.8052C211.152 30.3312 213.07 29.9637 213.07 29.9637C213.07 29.9637 212.308 29.8426 211.649 29.3408C211.649 29.3408 210.033 30.7537 209.848 32.3899C209.848 32.3899 211.324 31.3024 215.001 31.3024C218.678 31.3024 220.155 32.3899 220.155 32.3899C220.154 32.3849 220.153 32.3775 220.152 32.3708Z" fill="#C4C4C4"/>
<path d="M78.6842 186.675C78.556 187.12 59.1807 180.493 59.1807 180.493C54.2638 173.29 50.1787 165.577 47 157.494H80.0803L78.6842 186.675Z" fill="url(#paint16_linear_6297_50506)"/>
<path d="M53.3125 157.494C53.3125 157.494 61.0341 173.073 62.4587 174.771L79.1699 175.203V174.089C79.1699 174.089 63.8691 174.215 63.0001 173.574C62.1311 172.934 54.2955 157.494 54.2955 157.494H53.3125Z" fill="#394773"/>
<path d="M53.3125 157.494L62.4587 174.771C60.4756 172.003 58.6722 169.115 57.0593 166.126C55.0221 162.13 53.3125 157.494 53.3125 157.494Z" fill="white"/>
<g style="mix-blend-mode:soft-light" opacity="0.5">
<path d="M55.6747 158.553C56.9711 162.27 62.0428 170.749 63.0971 170.749C64.1513 170.749 76.4318 170.54 77.5573 168.813C78.6827 167.087 79.6657 158.734 78.6827 158.567C77.6997 158.4 55.1048 156.826 55.6747 158.553Z" fill="white"/>
</g>
<g style="mix-blend-mode:soft-light" opacity="0.5">
<path d="M48.0813 158.135C49.6626 161.796 54.0505 171.082 54.8626 171.194C55.6746 171.305 58.3957 171.639 58.3957 170.525C58.3957 168.743 53.3382 158.371 52.1985 158.135C51.0588 157.898 47.6966 157.244 48.0813 158.135Z" fill="white"/>
</g>
<path style="mix-blend-mode:multiply" opacity="0.5" d="M55.6635 172.405C55.5211 173.56 59.9375 179.505 60.664 179.992C61.3906 180.479 76.2497 185.157 77.2185 184.489C78.1872 183.821 78.7143 171.555 77.9023 171.193C77.0902 170.831 55.8345 171.138 55.6635 172.405Z" fill="url(#paint17_linear_6297_50506)"/>
<path style="mix-blend-mode:multiply" opacity="0.5" d="M68.9688 157.495C70.5669 166.405 71.2683 175.447 71.063 184.49L78.6848 186.676L80.1095 157.439L68.9688 157.495Z" fill="url(#paint18_linear_6297_50506)"/>
<path d="M181.3 186.676C181.442 187.121 200.86 180.494 200.86 180.494C205.788 173.275 209.878 165.543 213.055 157.439H179.918L181.3 186.676Z" fill="url(#paint19_linear_6297_50506)"/>
<path d="M206.688 157.494C206.688 157.494 198.952 173.073 197.542 174.771L180.816 175.203V174.089C180.816 174.089 196.131 174.215 197 173.574C197.869 172.934 205.705 157.494 205.705 157.494H206.688Z" fill="#394773"/>
<path d="M206.689 157.494L197.543 174.771C199.525 172.005 201.323 169.117 202.928 166.126C204.965 162.13 206.689 157.494 206.689 157.494Z" fill="white"/>
<g style="mix-blend-mode:soft-light" opacity="0.5">
<path d="M204.325 158.552C203.042 162.269 197.956 170.734 196.888 170.734C195.819 170.734 183.568 170.525 182.428 168.798C181.288 167.072 180.334 158.719 181.302 158.552C182.271 158.385 204.894 156.826 204.325 158.552Z" fill="white"/>
</g>
<g style="mix-blend-mode:soft-light" opacity="0.5">
<path d="M211.904 158.135C210.323 161.796 205.949 171.082 205.137 171.194C204.325 171.305 201.59 171.639 201.547 170.525C201.547 168.743 206.604 158.371 207.744 158.135C208.884 157.898 212.26 157.244 211.904 158.135Z" fill="white"/>
</g>
<path style="mix-blend-mode:multiply" opacity="0.5" d="M204.324 172.405C204.481 173.56 200.05 179.505 199.338 179.992C198.625 180.479 183.766 185.157 182.769 184.489C181.772 183.821 181.344 171.555 182.099 171.193C182.854 170.831 204.167 171.138 204.324 172.405Z" fill="url(#paint20_linear_6297_50506)"/>
<path style="mix-blend-mode:multiply" opacity="0.5" d="M191.03 157.495C189.432 166.405 188.73 175.447 188.936 184.49L181.3 186.676L179.875 157.439L191.03 157.495Z" fill="url(#paint21_linear_6297_50506)"/>
<path d="M130.213 90L76.0625 120.559V193.455L130.213 224L184.364 193.455V120.559L130.213 90Z" fill="url(#paint22_linear_6297_50506)"/>
<path d="M85.8516 187.928V126.073L130.215 101.055L174.564 126.073V187.928L130.215 212.946L85.8516 187.928Z" fill="url(#paint23_linear_6297_50506)"/>
<path d="M89.1133 186.076V127.924L130.214 104.729L171.301 127.924V186.076L130.214 209.27L89.1133 186.076Z" fill="#736FA8"/>
<g style="mix-blend-mode:soft-light" opacity="0.5">
<path d="M77.4168 120.74C76.7472 122.703 82.5028 125.112 86.5488 124.249C90.5948 123.386 128.718 101.542 129.63 99.5927C129.909 96.8661 129.909 94.1192 129.63 91.3926C128.305 91.3926 77.7445 119.794 77.4168 120.74Z" fill="white"/>
</g>
<g style="mix-blend-mode:soft-light" opacity="0.5">
<path d="M182.756 120.74C183.425 122.703 177.67 125.112 173.61 124.249C169.549 123.386 131.81 101.333 130.528 99.5927C129.859 98.6877 129.631 91.3926 130.528 91.3926C131.867 91.3926 182.428 119.794 182.756 120.74Z" fill="white"/>
</g>
<path style="mix-blend-mode:multiply" opacity="0.5" d="M77.3599 162.199C76.9895 164.385 76.1062 191.979 77.3599 192.187C78.6136 192.396 84.4832 188.47 84.8108 186.619C85.1385 184.767 85.2525 165.889 84.8108 164.079C84.3692 162.269 77.9583 158.566 77.3599 162.199Z" fill="url(#paint24_linear_6297_50506)"/>
<path style="mix-blend-mode:multiply" opacity="0.5" d="M182.854 162.199C183.21 164.385 184.108 191.979 182.854 192.187C181.601 192.396 175.731 188.47 175.403 186.619C175.076 184.767 174.962 165.889 175.403 164.079C175.845 162.269 182.242 158.566 182.854 162.199Z" fill="url(#paint25_linear_6297_50506)"/>
<path style="mix-blend-mode:multiply" opacity="0.5" d="M78.7131 192.941C79.3684 193.887 128.148 222.066 128.875 222.066C129.245 222.066 129.73 215.104 129.73 214.283C129.73 212.097 86.6056 189.725 85.8506 189.516C84.7394 189.209 78.0578 191.98 78.7131 192.941Z" fill="url(#paint26_linear_6297_50506)"/>
<path style="mix-blend-mode:multiply" opacity="0.5" d="M181.787 193.678C181.132 194.624 131.454 222.705 130.714 222.705C130.531 219.694 130.588 216.673 130.884 213.67C132.452 212.124 173.624 189.724 174.351 189.515C175.462 189.209 182.457 192.717 181.787 193.678Z" fill="url(#paint27_linear_6297_50506)"/>
<path style="mix-blend-mode:multiply" opacity="0.5" d="M90.9916 184.53C88.1423 168.422 89.7094 167.406 110.167 160.598C130.625 153.79 165.23 136.234 168.265 143.892C171.299 151.549 170.259 183.945 169.575 185.658C168.891 187.37 133.161 207.502 130.212 207.557C127.263 207.613 91.3193 186.34 90.9916 184.53Z" fill="url(#paint28_linear_6297_50506)"/>
<g style="mix-blend-mode:soft-light" opacity="0.3">
<path d="M170.418 128.327C169.705 128.146 132.565 107.18 130.527 107.333C128.49 107.486 102.661 119.306 92.0619 128.216C89.2126 130.597 90.2668 166.181 92.8739 165.527C95.481 164.873 97.4328 150.491 126.168 142.417C154.404 134.551 166.671 141.358 169.776 142.597C170.645 142.904 172.07 128.717 170.418 128.327Z" fill="white"/>
</g>
<path style="mix-blend-mode:multiply" opacity="0.5" d="M85.8516 187.927V126.071L130.215 101.012L174.564 126.071V187.927L171.302 186.062C171.302 186.062 171.501 132.309 170.319 130.624C166.045 124.61 133.278 109.978 127.893 111.606C122.508 113.235 93.217 125.431 89.9403 130.527C88.8433 132.253 89.114 186.076 89.114 186.076L85.8516 187.927Z" fill="url(#paint29_linear_6297_50506)"/>
<g style="mix-blend-mode:soft-light" opacity="0.2">
<path d="M138.503 134.549C149.544 139.478 166.198 139.561 167.723 138.614C169.247 137.668 170.259 130.748 167.865 129.579C165.472 128.409 146.495 118.539 141.495 119.597C136.494 120.655 136.537 133.644 138.503 134.549Z" fill="white"/>
</g>
<path d="M76.0625 142.765C76.0625 142.598 76.5326 122.202 77.4871 120.74C78.4417 119.278 129.045 91.7959 130.527 91.3922C132.008 90.9885 150.999 101.736 150.999 101.736L130.213 90L76.0767 120.629L76.0625 142.765Z" fill="url(#paint30_linear_6297_50506)"/>
<path d="M149.574 111.983C149.574 111.983 173.366 125.209 173.694 126.699C174.021 128.189 174.548 168.159 174.548 168.159C174.548 168.159 174.776 127.785 174.548 126.073C174.32 124.36 149.574 111.983 149.574 111.983Z" fill="white"/>
<path d="M85.8494 159.973C85.8494 159.973 85.0659 126.56 85.4648 125.446C85.8637 124.332 130.213 101.055 130.213 101.055C130.213 101.055 87.388 124.973 86.5047 126.49C85.6215 128.008 85.8494 159.973 85.8494 159.973Z" fill="white"/>
<path style="mix-blend-mode:multiply" d="M76.0625 193.455L130.199 224L184.336 193.455V176.846C184.336 176.846 183.88 191.339 182.769 193.149C181.657 194.958 133.191 222.524 130.712 222.705C128.233 222.886 78.6554 194.109 77.3589 192.188C76.0625 190.267 76.0625 156.297 76.0625 156.297V193.455Z" fill="url(#paint31_linear_6297_50506)"/>
<path d="M85.8511 172.14C85.8511 172.14 85.6944 186.396 86.5065 187.593C87.3185 188.79 108.361 200.666 108.361 200.666C108.361 200.666 85.5662 189.152 85.3525 188.401C85.1388 187.649 85.8511 172.14 85.8511 172.14Z" fill="white"/>
<g style="mix-blend-mode:soft-light" opacity="0.5">
<path d="M104.172 200.917C102.577 200.917 98.1035 202.671 99.058 203.701C100.012 204.732 126.696 220.408 129.731 221.536C130.728 221.898 130.628 215.688 129.303 213.684C128.733 212.834 109.13 200.903 104.172 200.917Z" fill="white"/>
</g>
<path d="M149.276 102.029C147.98 102.377 152.325 107.723 154.391 108.196C156.456 108.67 159.292 107.236 158.309 106.261C157.326 105.287 151.299 101.5 149.276 102.029Z" fill="white"/>
<path d="M158.905 107.333C156.939 107.848 160.572 116.299 162.125 117.802C163.678 119.306 177.511 121.979 177.184 119.501C176.856 117.023 161.683 106.609 158.905 107.333Z" fill="white"/>
<path style="mix-blend-mode:multiply" opacity="0.5" d="M155.189 201.057C154.02 206.028 154.206 208.965 154.861 208.993C155.516 209.021 179.194 195.071 179.835 194.486C180.476 193.901 176.045 189.878 174.208 190.156C172.37 190.435 155.616 199.192 155.189 201.057Z" fill="url(#paint32_linear_6297_50506)"/>
<path style="mix-blend-mode:multiply" opacity="0.5" d="M88.726 127.493C88.1561 125.822 86.4038 125.836 86.2471 127.701C86.0904 129.567 85.8055 164.219 86.5035 164.275C87.2016 164.33 88.669 162.632 88.726 161.838C88.783 161.045 88.9967 128.3 88.726 127.493Z" fill="url(#paint33_linear_6297_50506)"/>
<path style="mix-blend-mode:multiply" opacity="0.5" d="M171.701 127.714C171.601 128.369 171.259 161.127 171.701 161.127C172.142 161.127 174.094 159.582 174.094 158.789C174.094 157.995 173.596 127.06 173.382 126.907C173.168 126.754 171.772 127.172 171.701 127.714Z" fill="url(#paint34_linear_6297_50506)"/>
<path style="mix-blend-mode:multiply" opacity="0.5" d="M130.214 104.2C130.214 104.84 111.123 115.477 110.682 115.477C110.24 115.477 110.397 112.609 111.01 112.219C111.622 111.829 130.071 100.97 130.214 101.332C130.278 102.287 130.278 103.245 130.214 104.2Z" fill="url(#paint35_linear_6297_50506)"/>
<path d="M169.59 190.406C168.379 190.406 164.262 192.703 164.576 193.845C164.889 194.987 167.425 196.226 168.08 195.557C168.736 194.889 170.388 190.434 169.59 190.406Z" fill="#394773"/>
<path d="M171.172 191.214C170.745 191.59 169.833 192.926 170.702 193.58C171.571 194.235 174.136 192.508 173.751 192.007C173.366 191.506 171.7 190.726 171.172 191.214Z" fill="#394773"/>
<path style="mix-blend-mode:multiply" opacity="0.5" d="M165.248 192.69C164.236 194.083 168.396 194.932 168.938 193.804C169.479 192.676 170.362 190.282 169.664 190.407C168.062 190.899 166.565 191.673 165.248 192.69Z" fill="url(#paint36_linear_6297_50506)"/>
<path d="M164.59 193.511C164.878 194.291 165.438 194.946 166.171 195.362C167.14 195.919 167.966 195.794 168.223 195.362C167.981 195.642 167.649 195.833 167.281 195.903C166.914 195.974 166.532 195.921 166.2 195.752C164.22 194.875 164.59 193.511 164.59 193.511Z" fill="#DAE1EF"/>
<path style="mix-blend-mode:multiply" opacity="0.5" d="M171.627 191.241C170.686 192.23 171.413 193.664 171.94 193.58C172.467 193.496 174.049 192.48 173.749 192.007C173.45 191.533 171.826 191.032 171.627 191.241Z" fill="url(#paint37_linear_6297_50506)"/>
<path d="M171.172 191.213C171.172 191.213 170.303 192.368 170.645 193.037C170.987 193.705 171.486 193.705 171.486 193.705C171.486 193.705 170.374 194.331 170.161 193.594C169.805 192.299 171.172 191.213 171.172 191.213Z" fill="#DAE1EF"/>
<path d="M124.628 103.839C121.778 103.088 119.357 104.925 118.074 106.345C116.792 107.765 117.519 108.615 119.129 108.336C120.738 108.058 125.867 104.16 124.628 103.839Z" fill="#394773"/>
<path style="mix-blend-mode:multiply" opacity="0.5" d="M124.629 103.838C123.712 103.658 122.765 103.68 121.857 103.904C120.95 104.129 120.106 104.548 119.386 105.133C118.603 105.815 120.141 107.736 121.196 107.332C122.25 106.929 125.541 104.13 124.629 103.838Z" fill="url(#paint38_linear_6297_50506)"/>
<path d="M118.817 105.606C118.817 105.606 115.526 107.723 115.882 108.767C116.239 109.811 120.156 107.904 120.156 107.904C120.156 107.904 118.105 108.558 117.635 107.667C117.165 106.776 118.817 105.606 118.817 105.606Z" fill="white"/>
<path d="M87.7466 188.345C86.1937 188.721 90.7954 191.812 91.8781 191.979C92.9608 192.146 91.8781 189.431 91.3652 188.958C90.2334 188.452 88.9867 188.241 87.7466 188.345Z" fill="white"/>
<path d="M130.173 191.325L74.2696 159.472C72.9468 162.446 72.0503 165.585 71.6055 168.799L75.2526 174.828L130.173 205.999L185.093 174.828L188.398 168.799C188.299 165.6 187.623 162.442 186.404 159.472L130.173 191.325Z" fill="url(#paint39_linear_6297_50506)"/>
<path d="M75.2526 174.827L71.6055 168.799L130.173 202.323L188.398 168.799L185.093 174.827L130.173 205.999L75.2526 174.827Z" fill="url(#paint40_linear_6297_50506)"/>
<path style="mix-blend-mode:multiply" opacity="0.5" d="M71.6055 168.799L75.2526 174.827L76.0789 175.328V177.11C76.0789 177.11 79.2131 178.684 85.3676 181.997C85.567 182.108 89.2284 185.895 89.2284 185.895C89.2284 185.895 128.777 209.27 130.215 209.27C132.053 209.27 171.317 185.366 171.317 185.366C171.317 185.366 174.365 182.86 174.665 182.693L184.366 177.709V175.231L185.093 174.827L188.398 168.799L130.173 202.323L71.6055 168.799Z" fill="url(#paint41_linear_6297_50506)"/>
<path style="mix-blend-mode:multiply" opacity="0.5" d="M130.172 191.325V202.324L188.397 168.799C188.244 165.606 187.571 162.457 186.403 159.472L130.172 191.325Z" fill="url(#paint42_linear_6297_50506)"/>
<g style="mix-blend-mode:soft-light" opacity="0.5">
<path d="M77.144 161.88C76.0755 161.88 76.9446 171.138 80.1928 173.254C85.3642 176.637 116.464 194.555 118.502 194.583C119.926 194.583 119.841 186.731 119.413 186.132C118.616 184.977 78.7396 161.88 77.144 161.88Z" fill="white"/>
</g>
<g style="mix-blend-mode:soft-light" opacity="0.5">
<path d="M147.452 181.885C146.783 182.567 146.868 191.213 148.022 190.962C157.411 186.503 166.458 181.384 175.091 175.648C183.382 169.689 184.55 161.851 182.684 162.018C182.656 161.879 148.849 180.493 147.452 181.885Z" fill="white"/>
</g>
<path d="M101.691 186.062C101.691 186.062 128.446 201.753 130.184 201.753C131.922 201.753 153.264 189.07 153.264 189.07C153.264 189.07 130.84 202.992 130.227 202.992C129.615 202.992 101.691 186.062 101.691 186.062Z" fill="white"/>
<path d="M130.173 122.314L74.2696 154.182C72.9485 151.207 72.0521 148.068 71.6055 144.854L75.2526 138.826L130.173 107.654L185.093 138.826L188.398 144.854C188.297 148.054 187.622 151.211 186.404 154.182L130.173 122.314Z" fill="url(#paint43_linear_6297_50506)"/>
<path d="M75.2526 138.826L71.6055 144.854L130.173 111.316L188.398 144.854L185.093 138.826L130.173 107.654L75.2526 138.826Z" fill="url(#paint44_linear_6297_50506)"/>
<path style="mix-blend-mode:multiply" opacity="0.5" d="M130.172 122.315V111.316L188.397 144.855C188.244 148.048 187.571 151.197 186.403 154.182L130.172 122.315Z" fill="url(#paint45_linear_6297_50506)"/>
<g style="mix-blend-mode:soft-light" opacity="0.5">
<path d="M77.144 151.757C76.0755 151.757 76.9446 142.513 80.1928 140.383C85.3642 137 116.464 119.082 118.502 119.068C119.926 119.068 119.841 126.906 119.413 127.519C118.616 128.675 78.7396 151.757 77.144 151.757Z" fill="white"/>
</g>
<g style="mix-blend-mode:soft-light" opacity="0.5">
<path d="M147.452 131.766C146.783 131.083 146.868 122.438 148.022 122.702C157.418 127.151 166.465 132.269 175.091 138.017C183.382 143.961 184.55 151.799 182.684 151.632C182.656 151.758 148.849 133.227 147.452 131.766Z" fill="white"/>
</g>
<path d="M101.691 127.59C101.691 127.59 128.446 111.914 130.184 111.914C131.922 111.914 153.264 124.583 153.264 124.583C153.264 124.583 130.84 110.661 130.227 110.661C129.615 110.661 101.691 127.59 101.691 127.59Z" fill="white"/>
<path style="mix-blend-mode:multiply" opacity="0.5" d="M76.0625 153.166L130.171 122.314L184.763 153.249L184.364 155.783L174.335 151.968L171.485 153.249L130.399 130.515L89.155 154.28L86.0778 152.999L76.0625 156.298V153.166Z" fill="url(#paint46_linear_6297_50506)"/>
<path style="mix-blend-mode:multiply" opacity="0.5" d="M104.228 162.52L98.643 165.402L99.7114 159.318L95.1953 155.016L101.435 154.125L104.228 148.598L107.02 154.125L113.26 155.016L108.744 159.318L109.812 165.402L104.228 162.52Z" fill="url(#paint47_linear_6297_50506)"/>
<path d="M112.563 155.238L109.571 154.821L108.745 154.695L106.807 154.417L104.229 149.321L101.65 154.417L95.8945 155.238L100.055 159.206L99.0715 164.817L104.229 162.171L109.372 164.817L108.389 159.206L112.563 155.238Z" fill="url(#paint48_linear_6297_50506)"/>
<path style="mix-blend-mode:multiply" opacity="0.5" d="M95.8672 155.24L104.344 157.412L100.041 159.208L95.8672 155.24Z" fill="url(#paint49_linear_6297_50506)"/>
<path style="mix-blend-mode:multiply" opacity="0.5" d="M112.535 155.24L104.344 157.412L108.361 159.208L112.535 155.24Z" fill="url(#paint50_linear_6297_50506)"/>
<path style="mix-blend-mode:multiply" opacity="0.5" d="M104.2 162.172L104.343 157.41L99.043 164.817L104.2 162.172Z" fill="url(#paint51_linear_6297_50506)"/>
<path style="mix-blend-mode:multiply" opacity="0.5" d="M109.342 164.817L104.342 157.41L104.199 162.172L109.342 164.817Z" fill="url(#paint52_linear_6297_50506)"/>
<path style="mix-blend-mode:color-dodge" opacity="0.5" d="M104.199 149.321L104.342 157.41L106.778 154.417L104.199 149.321Z" fill="url(#paint53_linear_6297_50506)"/>
<path style="mix-blend-mode:color-dodge" opacity="0.5" d="M112.535 155.238L104.344 157.41L106.78 154.417L112.535 155.238Z" fill="url(#paint54_linear_6297_50506)"/>
<path style="mix-blend-mode:color-dodge" opacity="0.5" d="M112.535 155.238L104.344 157.41L106.78 154.417L112.535 155.238Z" fill="url(#paint55_linear_6297_50506)"/>
<path style="mix-blend-mode:color-dodge" opacity="0.5" d="M101.623 154.417L104.344 157.41L95.8672 155.238L101.623 154.417Z" fill="url(#paint56_linear_6297_50506)"/>
<g style="mix-blend-mode:color-dodge" opacity="0.8">
<path d="M106.835 156.2C106.408 156.548 106.764 156.785 106.764 156.785L108.972 156.2C108.663 155.976 108.289 155.855 107.904 155.855C107.519 155.855 107.145 155.976 106.835 156.2Z" fill="white"/>
</g>
<path style="mix-blend-mode:multiply" opacity="0.5" d="M99.0859 164.818C99.0859 164.818 102.989 163.022 104.229 162.521L109.372 164.818L104.229 162.173L99.0859 164.818Z" fill="url(#paint57_linear_6297_50506)"/>
<path style="mix-blend-mode:multiply" opacity="0.5" d="M95.8672 155.24L104.344 157.412L99.6852 161.324L95.8672 155.24Z" fill="url(#paint58_linear_6297_50506)"/>
<path style="mix-blend-mode:multiply" opacity="0.5" d="M112.535 155.24L104.344 157.412L108.86 161.839L112.535 155.24Z" fill="url(#paint59_linear_6297_50506)"/>
<path style="mix-blend-mode:multiply" opacity="0.5" d="M99.0703 164.817L104.342 157.41L109.371 164.817L104.228 164.023L99.0703 164.817Z" fill="url(#paint60_linear_6297_50506)"/>
<g style="mix-blend-mode:soft-light" opacity="0.4">
<path d="M102.304 153.54C101.763 155.03 103.843 156.06 104.128 155.601C104.364 154.486 104.28 153.33 103.886 152.259C103.53 151.911 102.561 152.928 102.304 153.54Z" fill="#F7FFFF"/>
</g>
<g style="mix-blend-mode:soft-light" opacity="0.4">
<path d="M100.609 161.142C101.706 161.295 102.332 160.056 102.56 159.206C102.945 157.842 98.5855 160.877 100.609 161.142Z" fill="#F7FFFF"/>
</g>
<path style="mix-blend-mode:multiply" opacity="0.5" d="M156.2 162.52L150.616 165.402L151.684 159.318L147.168 155.016L153.408 154.125L156.2 148.598L158.993 154.125L165.233 155.016L160.716 159.318L161.785 165.402L156.2 162.52Z" fill="url(#paint61_linear_6297_50506)"/>
<path d="M164.532 155.238L161.526 154.821L160.714 154.695L158.776 154.417L156.197 149.321L153.619 154.417L147.863 155.238L152.023 159.206L151.04 164.817L156.197 162.171L161.34 164.817L160.357 159.206L164.532 155.238Z" fill="url(#paint62_linear_6297_50506)"/>
<path style="mix-blend-mode:multiply" opacity="0.5" d="M147.836 155.24L156.313 157.412L151.996 159.208L147.836 155.24Z" fill="url(#paint63_linear_6297_50506)"/>
<path style="mix-blend-mode:multiply" opacity="0.5" d="M164.504 155.24L156.312 157.412L160.33 159.208L164.504 155.24Z" fill="url(#paint64_linear_6297_50506)"/>
<path style="mix-blend-mode:multiply" opacity="0.5" d="M156.169 162.172L156.311 157.41L151.012 164.817L156.169 162.172Z" fill="url(#paint65_linear_6297_50506)"/>
<path style="mix-blend-mode:multiply" opacity="0.5" d="M161.315 164.817L156.314 157.41L156.172 162.172L161.315 164.817Z" fill="url(#paint66_linear_6297_50506)"/>
<path style="mix-blend-mode:color-dodge" opacity="0.5" d="M156.172 149.321L156.314 157.41L158.75 154.417L156.172 149.321Z" fill="url(#paint67_linear_6297_50506)"/>
<path style="mix-blend-mode:color-dodge" opacity="0.5" d="M164.504 155.238L156.312 157.41L158.749 154.417L164.504 155.238Z" fill="url(#paint68_linear_6297_50506)"/>
<path style="mix-blend-mode:color-dodge" opacity="0.5" d="M164.504 155.238L156.312 157.41L158.749 154.417L164.504 155.238Z" fill="url(#paint69_linear_6297_50506)"/>
<path style="mix-blend-mode:color-dodge" opacity="0.5" d="M153.592 154.417L156.313 157.41L147.836 155.238L153.592 154.417Z" fill="url(#paint70_linear_6297_50506)"/>
<g style="mix-blend-mode:color-dodge" opacity="0.8">
<path d="M158.737 156.199C158.309 156.547 158.737 156.784 158.737 156.784L160.945 156.199C160.629 155.961 160.24 155.832 159.841 155.832C159.441 155.832 159.053 155.961 158.737 156.199Z" fill="white"/>
</g>
<path style="mix-blend-mode:multiply" opacity="0.5" d="M151 164.818C151 164.818 154.918 163.022 156.157 162.521L161.3 164.818L156.157 162.173L151 164.818Z" fill="url(#paint71_linear_6297_50506)"/>
<path style="mix-blend-mode:multiply" opacity="0.5" d="M147.836 155.24L156.313 157.412L151.654 161.324L147.836 155.24Z" fill="url(#paint72_linear_6297_50506)"/>
<path style="mix-blend-mode:multiply" opacity="0.5" d="M164.504 155.24L156.312 157.412L160.829 161.839L164.504 155.24Z" fill="url(#paint73_linear_6297_50506)"/>
<path style="mix-blend-mode:multiply" opacity="0.5" d="M151.043 164.817L156.314 157.41L161.343 164.817L156.2 164.023L151.043 164.817Z" fill="url(#paint74_linear_6297_50506)"/>
<g style="mix-blend-mode:soft-light" opacity="0.4">
<path d="M154.277 153.54C153.736 155.03 155.816 156.06 156.101 155.601C156.339 154.485 156.25 153.327 155.844 152.259C155.502 151.911 154.505 152.928 154.277 153.54Z" fill="#F7FFFF"/>
</g>
<g style="mix-blend-mode:soft-light" opacity="0.4">
<path d="M152.567 161.142C153.678 161.295 154.305 160.056 154.533 159.206C154.917 157.842 150.558 160.877 152.567 161.142Z" fill="#F7FFFF"/>
</g>
<path style="mix-blend-mode:multiply" opacity="0.5" d="M129.942 162.52L124.358 165.402L125.426 159.318L120.91 155.016L127.15 154.125L129.942 148.598L132.735 154.125L138.975 155.016L134.459 159.318L135.513 165.402L129.942 162.52Z" fill="url(#paint75_linear_6297_50506)"/>
<path d="M138.264 155.238L135.272 154.821L134.46 154.695L132.508 154.417L129.944 149.321L127.365 154.417L121.609 155.238L125.769 159.206L124.786 164.817L129.944 162.171L135.087 164.817L134.104 159.206L138.264 155.238Z" fill="url(#paint76_linear_6297_50506)"/>
<path style="mix-blend-mode:multiply" opacity="0.5" d="M121.582 155.24L130.059 157.412L125.742 159.208L121.582 155.24Z" fill="url(#paint77_linear_6297_50506)"/>
<path style="mix-blend-mode:multiply" opacity="0.5" d="M138.236 155.24L130.059 157.412L134.076 159.208L138.236 155.24Z" fill="url(#paint78_linear_6297_50506)"/>
<path style="mix-blend-mode:multiply" opacity="0.5" d="M129.915 162.172L130.057 157.41L124.758 164.817L129.915 162.172Z" fill="url(#paint79_linear_6297_50506)"/>
<path style="mix-blend-mode:multiply" opacity="0.5" d="M135.057 164.817L130.057 157.41L129.914 162.172L135.057 164.817Z" fill="url(#paint80_linear_6297_50506)"/>
<path style="mix-blend-mode:color-dodge" opacity="0.5" d="M129.914 149.321L130.057 157.41L132.478 154.417L129.914 149.321Z" fill="url(#paint81_linear_6297_50506)"/>
<path style="mix-blend-mode:color-dodge" opacity="0.5" d="M138.236 155.238L130.059 157.41L132.48 154.417L138.236 155.238Z" fill="url(#paint82_linear_6297_50506)"/>
<path style="mix-blend-mode:color-dodge" opacity="0.5" d="M138.236 155.238L130.059 157.41L132.48 154.417L138.236 155.238Z" fill="url(#paint83_linear_6297_50506)"/>
<path style="mix-blend-mode:color-dodge" opacity="0.5" d="M127.338 154.417L130.059 157.41L121.582 155.238L127.338 154.417Z" fill="url(#paint84_linear_6297_50506)"/>
<g style="mix-blend-mode:color-dodge" opacity="0.8">
<path d="M132.479 156.199C132.052 156.547 132.479 156.784 132.479 156.784L134.687 156.199C134.371 155.961 133.983 155.832 133.583 155.832C133.184 155.832 132.795 155.961 132.479 156.199Z" fill="white"/>
</g>
<path style="mix-blend-mode:multiply" opacity="0.5" d="M124.785 164.818C124.785 164.818 128.689 163.022 129.942 162.521L135.085 164.818L129.942 162.173L124.785 164.818Z" fill="url(#paint85_linear_6297_50506)"/>
<path style="mix-blend-mode:multiply" opacity="0.5" d="M121.582 155.24L130.059 157.412L125.4 161.324L121.582 155.24Z" fill="url(#paint86_linear_6297_50506)"/>
<path style="mix-blend-mode:multiply" opacity="0.5" d="M138.236 155.24L130.059 157.412L134.575 161.839L138.236 155.24Z" fill="url(#paint87_linear_6297_50506)"/>
<path style="mix-blend-mode:multiply" opacity="0.5" d="M124.785 164.817L130.056 157.41L135.085 164.817L129.942 164.023L124.785 164.817Z" fill="url(#paint88_linear_6297_50506)"/>
<g style="mix-blend-mode:soft-light" opacity="0.4">
<path d="M128.019 153.54C127.478 155.03 129.558 156.06 129.843 155.601C130.081 154.485 129.992 153.327 129.586 152.259C129.244 151.911 128.204 152.928 128.019 153.54Z" fill="#F7FFFF"/>
</g>
<g style="mix-blend-mode:soft-light" opacity="0.4">
<path d="M126.309 161.142C127.42 161.295 128.047 160.056 128.275 159.206C128.66 157.842 124.3 160.877 126.309 161.142Z" fill="#F7FFFF"/>
</g>
<path d="M102 2L112.087 17.7023C113.006 19.1343 114.591 20 116.293 20H145.707C147.409 20 148.994 19.1343 149.913 17.7023L160 2H102Z" fill="url(#paint89_linear_6297_50506)"/>
<path d="M122.558 16L118.33 6.2H120.78L124.476 14.88H123.034L126.786 6.2H129.04L124.798 16H122.558ZM129.858 16V6.2H132.126V16H129.858ZM134.452 16V6.2H138.694C139.571 6.2 140.327 6.34467 140.962 6.634C141.597 6.914 142.087 7.32 142.432 7.852C142.777 8.384 142.95 9.01867 142.95 9.756C142.95 10.484 142.777 11.114 142.432 11.646C142.087 12.178 141.597 12.5887 140.962 12.878C140.327 13.158 139.571 13.298 138.694 13.298H135.712L136.72 12.276V16H134.452ZM136.72 12.528L135.712 11.45H138.568C139.268 11.45 139.791 11.3007 140.136 11.002C140.481 10.7033 140.654 10.288 140.654 9.756C140.654 9.21467 140.481 8.79467 140.136 8.496C139.791 8.19733 139.268 8.048 138.568 8.048H135.712L136.72 6.97V12.528Z" fill="white"/>
<path d="M39.4724 20.544H41.4884L44.0264 31.128L46.5284 20.544H48.5444L45.3044 33H42.7484L39.4724 20.544Z" fill="white"/>
<g style="mix-blend-mode:overlay">
<g style="mix-blend-mode:color-dodge">
<path fill-rule="evenodd" clip-rule="evenodd" d="M19 12C19 6.47715 23.4771 2 29 2H231C236.523 2 241 6.47715 241 12V120.562C241 123.615 239.506 126.474 237 128.217C234.494 129.961 233 132.82 233 135.873V159V162V185.127C233 188.18 234.494 191.039 237 192.783C239.506 194.526 241 197.385 241 200.438V304C241 309.523 236.523 314 231 314H29C23.4772 314 19 309.523 19 304V202.182C19 198.908 20.6021 195.842 23.2894 193.973L24.7106 192.984C27.3979 191.115 29 188.048 29 184.775L29 162V159L29 136.225C29 132.952 27.3979 129.885 24.7107 128.016L23.2894 127.027C20.6021 125.158 19 122.092 19 118.818V12Z" fill="url(#paint90_linear_6297_50506)"/>
</g>
</g>
<defs>
<filter id="filter0_b_6297_50506" x="-6" y="-19" width="89" height="354.983" filterUnits="userSpaceOnUse" colorInterpolationFilters="sRGB">
<feFlood floodOpacity="0" result="BackgroundImageFix"/>
<feGaussianBlur in="BackgroundImageFix" stdDeviation="13"/>
<feComposite in2="SourceAlpha" operator="in" result="effect1_backgroundBlur_6297_50506"/>
<feBlend mode="normal" in="SourceGraphic" in2="effect1_backgroundBlur_6297_50506" result="shape"/>
</filter>
<filter id="filter1_b_6297_50506" x="177" y="-19" width="89" height="354.983" filterUnits="userSpaceOnUse" colorInterpolationFilters="sRGB">
<feFlood floodOpacity="0" result="BackgroundImageFix"/>
<feGaussianBlur in="BackgroundImageFix" stdDeviation="13"/>
<feComposite in2="SourceAlpha" operator="in" result="effect1_backgroundBlur_6297_50506"/>
<feBlend mode="normal" in="SourceGraphic" in2="effect1_backgroundBlur_6297_50506" result="shape"/>
</filter>
<filter id="filter2_i_6297_50506" x="17" y="0" width="226" height="320" filterUnits="userSpaceOnUse" colorInterpolationFilters="sRGB">
<feFlood floodOpacity="0" result="BackgroundImageFix"/>
<feBlend mode="normal" in="SourceGraphic" in2="BackgroundImageFix" result="shape"/>
<feColorMatrix in="SourceAlpha" type="matrix" values="0 0 0 0 0 0 0 0 0 0 0 0 0 0 0 0 0 0 127 0" result="hardAlpha"/>
<feOffset dy="5"/>
<feGaussianBlur stdDeviation="2"/>
<feComposite in2="hardAlpha" operator="arithmetic" k2="-1" k3="1"/>
<feColorMatrix type="matrix" values="0 0 0 0 0 0 0 0 0 0 0 0 0 0 0 0 0 0 0.25 0"/>
<feBlend mode="normal" in2="shape" result="effect1_innerShadow_6297_50506"/>
</filter>
<filter id="filter3_f_6297_50506" x="0" y="31" width="261" height="254" filterUnits="userSpaceOnUse" colorInterpolationFilters="sRGB">
<feFlood floodOpacity="0" result="BackgroundImageFix"/>
<feBlend mode="normal" in="SourceGraphic" in2="BackgroundImageFix" result="shape"/>
<feGaussianBlur stdDeviation="37.5" result="effect1_foregroundBlur_6297_50506"/>
</filter>
<filter id="filter4_f_6297_50506" x="196.019" y="7.53866" width="37.4969" height="37.495" filterUnits="userSpaceOnUse" colorInterpolationFilters="sRGB">
<feFlood floodOpacity="0" result="BackgroundImageFix"/>
<feBlend mode="normal" in="SourceGraphic" in2="BackgroundImageFix" result="shape"/>
<feGaussianBlur stdDeviation="1.092" result="effect1_foregroundBlur_6297_50506"/>
</filter>
<filter id="filter5_f_6297_50506" x="191.086" y="2.60799" width="47.3563" height="47.3553" filterUnits="userSpaceOnUse" colorInterpolationFilters="sRGB">
<feFlood floodOpacity="0" result="BackgroundImageFix"/>
<feBlend mode="normal" in="SourceGraphic" in2="BackgroundImageFix" result="shape"/>
<feGaussianBlur stdDeviation="1.092" result="effect1_foregroundBlur_6297_50506"/>
</filter>
<filter id="filter6_f_6297_50506" x="191.086" y="2.60799" width="47.3563" height="47.3553" filterUnits="userSpaceOnUse" colorInterpolationFilters="sRGB">
<feFlood floodOpacity="0" result="BackgroundImageFix"/>
<feBlend mode="normal" in="SourceGraphic" in2="BackgroundImageFix" result="shape"/>
<feGaussianBlur stdDeviation="1.092" result="effect1_foregroundBlur_6297_50506"/>
</filter>
<filter id="filter7_f_6297_50506" x="190.82" y="2.57284" width="37.4969" height="37.4959" filterUnits="userSpaceOnUse" colorInterpolationFilters="sRGB">
<feFlood floodOpacity="0" result="BackgroundImageFix"/>
<feBlend mode="normal" in="SourceGraphic" in2="BackgroundImageFix" result="shape"/>
<feGaussianBlur stdDeviation="1.092" result="effect1_foregroundBlur_6297_50506"/>
</filter>
<filter id="filter8_f_6297_50506" x="199.722" y="14.3902" width="37.3133" height="37.3114" filterUnits="userSpaceOnUse" colorInterpolationFilters="sRGB">
<feFlood floodOpacity="0" result="BackgroundImageFix"/>
<feBlend mode="normal" in="SourceGraphic" in2="BackgroundImageFix" result="shape"/>
<feGaussianBlur stdDeviation="1.092" result="effect1_foregroundBlur_6297_50506"/>
</filter>
<linearGradient id="paint0_linear_6297_50506" x1="13" y1="296.56" x2="134.492" y2="0.901086" gradientUnits="userSpaceOnUse">
<stop stop-color="#060913"/>
<stop offset="0.136764" stop-color="#070A16"/>
<stop offset="0.197268" stop-color="#0D142E"/>
<stop offset="0.309253" stop-color="#070B17"/>
<stop offset="0.490764" stop-color="#080C1A"/>
<stop offset="0.661458" stop-color="#0B1125"/>
<stop offset="1" stop-color="#101010"/>
</linearGradient>
<linearGradient id="paint1_linear_6297_50506" x1="43.5" y1="323.39" x2="109.599" y2="304.922" gradientUnits="userSpaceOnUse">
<stop stop-color="#EECCA2"/>
<stop offset="0.260417" stop-color="#624A2C"/>
<stop offset="0.6875" stop-color="#FFDAAB"/>
<stop offset="1" stop-color="#C68C43"/>
</linearGradient>
<linearGradient id="paint2_linear_6297_50506" x1="247" y1="20.4233" x2="125.508" y2="316.082" gradientUnits="userSpaceOnUse">
<stop stop-color="#060913"/>
<stop offset="0.136764" stop-color="#070A16"/>
<stop offset="0.197268" stop-color="#0D142E"/>
<stop offset="0.309253" stop-color="#070B17"/>
<stop offset="0.490764" stop-color="#080C1A"/>
<stop offset="0.661458" stop-color="#0B1125"/>
<stop offset="1" stop-color="#101010"/>
</linearGradient>
<linearGradient id="paint3_linear_6297_50506" x1="216.5" y1="-6.40634" x2="150.401" y2="12.0615" gradientUnits="userSpaceOnUse">
<stop stop-color="#EECCA2"/>
<stop offset="0.260417" stop-color="#624A2C"/>
<stop offset="0.6875" stop-color="#FFDAAB"/>
<stop offset="1" stop-color="#C68C43"/>
</linearGradient>
<linearGradient id="paint4_linear_6297_50506" x1="184.5" y1="-25.5" x2="1.5" y2="349.5" gradientUnits="userSpaceOnUse">
<stop stop-color="#C68C43"/>
<stop offset="0.119792" stop-color="#F5BA6E"/>
<stop offset="0.286458" stop-color="#C68C43"/>
<stop offset="0.5625" stop-color="#C68C43"/>
<stop offset="0.770833" stop-color="#EEB873"/>
<stop offset="1" stop-color="#C68C43"/>
</linearGradient>
<linearGradient id="paint5_linear_6297_50506" x1="23" y1="59" x2="238" y2="59" gradientUnits="userSpaceOnUse">
<stop stop-color="#8980EB"/>
<stop offset="1" stop-color="#705AB8"/>
</linearGradient>
<linearGradient id="paint6_linear_6297_50506" x1="130.467" y1="161.811" x2="130.467" y2="-71.8638" gradientUnits="userSpaceOnUse">
<stop stop-color="#86759D"/>
<stop offset="0.39" stop-color="#98ABD2"/>
<stop offset="1" stop-color="#DAE1EF"/>
</linearGradient>
<linearGradient id="paint7_linear_6297_50506" x1="30.4297" y1="61.7822" x2="131.894" y2="61.7822" gradientUnits="userSpaceOnUse">
<stop stop-color="#705AB8"/>
<stop offset="1" stop-color="white"/>
</linearGradient>
<linearGradient id="paint8_linear_6297_50506" x1="131.883" y1="61.7822" x2="229.875" y2="61.7822" gradientUnits="userSpaceOnUse">
<stop stop-color="#705AB8"/>
<stop offset="1" stop-color="white"/>
</linearGradient>
<linearGradient id="paint9_linear_6297_50506" x1="68.4453" y1="111.103" x2="131.88" y2="111.103" gradientUnits="userSpaceOnUse">
<stop stop-color="#705AB8"/>
<stop offset="1" stop-color="white"/>
</linearGradient>
<linearGradient id="paint10_linear_6297_50506" x1="130.152" y1="111.103" x2="191.772" y2="111.103" gradientUnits="userSpaceOnUse">
<stop stop-color="#705AB8"/>
<stop offset="1" stop-color="white"/>
</linearGradient>
<linearGradient id="paint11_linear_6297_50506" x1="139.226" y1="-23.1169" x2="154.05" y2="107.959" gradientUnits="userSpaceOnUse">
<stop stop-color="#BFD7FF"/>
<stop offset="1"/>
</linearGradient>
<linearGradient id="paint12_linear_6297_50506" x1="131.883" y1="45.1784" x2="229.875" y2="45.1784" gradientUnits="userSpaceOnUse">
<stop stop-color="#BFD7FF"/>
<stop offset="1"/>
</linearGradient>
<linearGradient id="paint13_linear_6297_50506" x1="172.753" y1="-26.8787" x2="187.577" y2="104.116" gradientUnits="userSpaceOnUse">
<stop stop-color="#BFD7FF"/>
<stop offset="1"/>
</linearGradient>
<linearGradient id="paint14_linear_6297_50506" x1="74.2187" y1="-15.7552" x2="89.0434" y2="115.239" gradientUnits="userSpaceOnUse">
<stop stop-color="#BFD7FF"/>
<stop offset="1"/>
</linearGradient>
<linearGradient id="paint15_linear_6297_50506" x1="68.8477" y1="141.364" x2="192.088" y2="141.364" gradientUnits="userSpaceOnUse">
<stop stop-color="#8980EB"/>
<stop offset="1" stop-color="#705AB8"/>
</linearGradient>
<linearGradient id="paint16_linear_6297_50506" x1="63.5402" y1="186.605" x2="63.5402" y2="157.703" gradientUnits="userSpaceOnUse">
<stop offset="0.21" stop-color="#98ABD2"/>
<stop offset="0.49" stop-color="#72719D"/>
<stop offset="1" stop-color="#DAE1EF"/>
</linearGradient>
<linearGradient id="paint17_linear_6297_50506" x1="67.075" y1="183.723" x2="66.9661" y2="170.163" gradientUnits="userSpaceOnUse">
<stop stop-color="#705AB8"/>
<stop offset="1" stop-color="white"/>
</linearGradient>
<linearGradient id="paint18_linear_6297_50506" x1="68.9688" y1="172.085" x2="80.081" y2="172.085" gradientUnits="userSpaceOnUse">
<stop stop-color="#8980EB"/>
<stop offset="1" stop-color="#705AB8"/>
</linearGradient>
<linearGradient id="paint19_linear_6297_50506" x1="196.444" y1="186.606" x2="196.444" y2="157.704" gradientUnits="userSpaceOnUse">
<stop offset="0.21" stop-color="#98ABD2"/>
<stop offset="0.49" stop-color="#72719D"/>
<stop offset="1" stop-color="#DAE1EF"/>
</linearGradient>
<linearGradient id="paint20_linear_6297_50506" x1="192.912" y1="183.723" x2="193.035" y2="170.163" gradientUnits="userSpaceOnUse">
<stop stop-color="#705AB8"/>
<stop offset="1" stop-color="white"/>
</linearGradient>
<linearGradient id="paint21_linear_6297_50506" x1="191.03" y1="172.085" x2="179.918" y2="172.085" gradientUnits="userSpaceOnUse">
<stop stop-color="#8980EB"/>
<stop offset="1" stop-color="#705AB8"/>
</linearGradient>
<linearGradient id="paint22_linear_6297_50506" x1="130.213" y1="226.297" x2="130.213" y2="111.398" gradientUnits="userSpaceOnUse">
<stop offset="0.21" stop-color="#98ABD2"/>
<stop offset="0.49" stop-color="#72719D"/>
<stop offset="1" stop-color="#DAE1EF"/>
</linearGradient>
<linearGradient id="paint23_linear_6297_50506" x1="130.215" y1="107.974" x2="130.215" y2="212.654" gradientUnits="userSpaceOnUse">
<stop offset="0.21" stop-color="#98ABD2"/>
<stop offset="0.49" stop-color="#72719D"/>
<stop offset="1" stop-color="#DAE1EF"/>
</linearGradient>
<linearGradient id="paint24_linear_6297_50506" x1="80.9073" y1="205.901" x2="80.9073" y2="142.555" gradientUnits="userSpaceOnUse">
<stop stop-color="#705AB8"/>
<stop offset="1" stop-color="white"/>
</linearGradient>
<linearGradient id="paint25_linear_6297_50506" x1="179.307" y1="205.901" x2="179.307" y2="142.555" gradientUnits="userSpaceOnUse">
<stop stop-color="#705AB8"/>
<stop offset="1" stop-color="white"/>
</linearGradient>
<linearGradient id="paint26_linear_6297_50506" x1="90.7799" y1="182.262" x2="116.128" y2="224.328" gradientUnits="userSpaceOnUse">
<stop stop-color="#705AB8"/>
<stop offset="1" stop-color="white"/>
</linearGradient>
<linearGradient id="paint27_linear_6297_50506" x1="149.177" y1="187.496" x2="167.178" y2="242.141" gradientUnits="userSpaceOnUse">
<stop stop-color="#705AB8"/>
<stop offset="1" stop-color="white"/>
</linearGradient>
<linearGradient id="paint28_linear_6297_50506" x1="130.098" y1="216.467" x2="130.098" y2="128.884" gradientUnits="userSpaceOnUse">
<stop stop-color="#705AB8"/>
<stop offset="1" stop-color="white"/>
</linearGradient>
<linearGradient id="paint29_linear_6297_50506" x1="85.8516" y1="144.49" x2="174.564" y2="144.49" gradientUnits="userSpaceOnUse">
<stop stop-color="#8980EB"/>
<stop offset="1" stop-color="#705AB8"/>
</linearGradient>
<linearGradient id="paint30_linear_6297_50506" x1="76.0625" y1="116.382" x2="150.999" y2="116.382" gradientUnits="userSpaceOnUse">
<stop stop-color="#728EE3"/>
<stop offset="1" stop-color="#836888"/>
</linearGradient>
<linearGradient id="paint31_linear_6297_50506" x1="76.0625" y1="190.155" x2="184.364" y2="190.155" gradientUnits="userSpaceOnUse">
<stop stop-color="#728EE3"/>
<stop offset="1" stop-color="#836888"/>
</linearGradient>
<linearGradient id="paint32_linear_6297_50506" x1="154.334" y1="199.568" x2="179.906" y2="199.568" gradientUnits="userSpaceOnUse">
<stop stop-color="#8980EB"/>
<stop offset="1" stop-color="#705AB8"/>
</linearGradient>
<linearGradient id="paint33_linear_6297_50506" x1="86.0477" y1="145.271" x2="88.8542" y2="145.271" gradientUnits="userSpaceOnUse">
<stop stop-color="#8980EB"/>
<stop offset="1" stop-color="#705AB8"/>
</linearGradient>
<linearGradient id="paint34_linear_6297_50506" x1="171.487" y1="143.962" x2="174.094" y2="143.962" gradientUnits="userSpaceOnUse">
<stop stop-color="#8980EB"/>
<stop offset="1" stop-color="#705AB8"/>
</linearGradient>
<linearGradient id="paint35_linear_6297_50506" x1="110.425" y1="108.405" x2="130.271" y2="108.405" gradientUnits="userSpaceOnUse">
<stop stop-color="#8980EB"/>
<stop offset="1" stop-color="#705AB8"/>
</linearGradient>
<linearGradient id="paint36_linear_6297_50506" x1="143.133" y1="165.705" x2="144.535" y2="168.39" gradientUnits="userSpaceOnUse">
<stop stop-color="#8980EB"/>
<stop offset="1" stop-color="#705AB8"/>
</linearGradient>
<linearGradient id="paint37_linear_6297_50506" x1="147.751" y1="165.433" x2="148.81" y2="167.463" gradientUnits="userSpaceOnUse">
<stop stop-color="#8980EB"/>
<stop offset="1" stop-color="#705AB8"/>
</linearGradient>
<linearGradient id="paint38_linear_6297_50506" x1="121.541" y1="103.61" x2="122.852" y2="106.223" gradientUnits="userSpaceOnUse">
<stop stop-color="#8980EB"/>
<stop offset="1" stop-color="#705AB8"/>
</linearGradient>
<linearGradient id="paint39_linear_6297_50506" x1="130.002" y1="121.645" x2="130.002" y2="204.927" gradientUnits="userSpaceOnUse">
<stop offset="0.21" stop-color="#98ABD2"/>
<stop offset="0.49" stop-color="#72719D"/>
<stop offset="1" stop-color="#DAE1EF"/>
</linearGradient>
<linearGradient id="paint40_linear_6297_50506" x1="71.6055" y1="187.399" x2="188.398" y2="187.399" gradientUnits="userSpaceOnUse">
<stop offset="0.21" stop-color="#98ABD2"/>
<stop offset="0.49" stop-color="#72719D"/>
<stop offset="1" stop-color="#DAE1EF"/>
</linearGradient>
<linearGradient id="paint41_linear_6297_50506" x1="130.002" y1="209.966" x2="130.002" y2="175.259" gradientUnits="userSpaceOnUse">
<stop stop-color="#8980EB"/>
<stop offset="1" stop-color="#705AB8"/>
</linearGradient>
<linearGradient id="paint42_linear_6297_50506" x1="117.569" y1="203.34" x2="113.954" y2="160.174" gradientUnits="userSpaceOnUse">
<stop stop-color="#705AB8"/>
<stop offset="1" stop-color="white"/>
</linearGradient>
<linearGradient id="paint43_linear_6297_50506" x1="66.7047" y1="130.918" x2="214.54" y2="130.918" gradientUnits="userSpaceOnUse">
<stop offset="0.21" stop-color="#98ABD2"/>
<stop offset="0.49" stop-color="#72719D"/>
<stop offset="1" stop-color="#DAE1EF"/>
</linearGradient>
<linearGradient id="paint44_linear_6297_50506" x1="130.002" y1="167.088" x2="130.002" y2="103.464" gradientUnits="userSpaceOnUse">
<stop offset="0.21" stop-color="#98ABD2"/>
<stop offset="0.49" stop-color="#72719D"/>
<stop offset="1" stop-color="#DAE1EF"/>
</linearGradient>
<linearGradient id="paint45_linear_6297_50506" x1="117.569" y1="110.3" x2="113.954" y2="153.466" gradientUnits="userSpaceOnUse">
<stop stop-color="#705AB8"/>
<stop offset="1" stop-color="white"/>
</linearGradient>
<linearGradient id="paint46_linear_6297_50506" x1="130.413" y1="156.883" x2="130.413" y2="127.744" gradientUnits="userSpaceOnUse">
<stop stop-color="#8980EB"/>
<stop offset="1" stop-color="#705AB8"/>
</linearGradient>
<linearGradient id="paint47_linear_6297_50506" x1="104.228" y1="165.708" x2="104.228" y2="145.758" gradientUnits="userSpaceOnUse">
<stop stop-color="#8980EB"/>
<stop offset="1" stop-color="#705AB8"/>
</linearGradient>
<linearGradient id="paint48_linear_6297_50506" x1="104.229" y1="165.109" x2="104.229" y2="146.704" gradientUnits="userSpaceOnUse">
<stop stop-color="#86759D"/>
<stop offset="0.39" stop-color="#98ABD2"/>
<stop offset="1" stop-color="#DAE1EF"/>
</linearGradient>
<linearGradient id="paint49_linear_6297_50506" x1="95.8672" y1="157.231" x2="104.344" y2="157.231" gradientUnits="userSpaceOnUse">
<stop stop-color="#705AB8"/>
<stop offset="1" stop-color="white"/>
</linearGradient>
<linearGradient id="paint50_linear_6297_50506" x1="104.344" y1="157.231" x2="112.535" y2="157.231" gradientUnits="userSpaceOnUse">
<stop stop-color="#705AB8"/>
<stop offset="1" stop-color="white"/>
</linearGradient>
<linearGradient id="paint51_linear_6297_50506" x1="99.043" y1="161.113" x2="104.343" y2="161.113" gradientUnits="userSpaceOnUse">
<stop stop-color="#705AB8"/>
<stop offset="1" stop-color="white"/>
</linearGradient>
<linearGradient id="paint52_linear_6297_50506" x1="104.199" y1="161.113" x2="109.342" y2="161.113" gradientUnits="userSpaceOnUse">
<stop stop-color="#705AB8"/>
<stop offset="1" stop-color="white"/>
</linearGradient>
<linearGradient id="paint53_linear_6297_50506" x1="104.954" y1="150.546" x2="106.057" y2="160.868" gradientUnits="userSpaceOnUse">
<stop stop-color="#BFD7FF"/>
<stop offset="1"/>
</linearGradient>
<linearGradient id="paint54_linear_6297_50506" x1="104.344" y1="155.921" x2="112.535" y2="155.921" gradientUnits="userSpaceOnUse">
<stop stop-color="#BFD7FF"/>
<stop offset="1"/>
</linearGradient>
<linearGradient id="paint55_linear_6297_50506" x1="107.763" y1="150.24" x2="108.865" y2="160.576" gradientUnits="userSpaceOnUse">
<stop stop-color="#BFD7FF"/>
<stop offset="1"/>
</linearGradient>
<linearGradient id="paint56_linear_6297_50506" x1="99.5285" y1="151.117" x2="100.631" y2="161.453" gradientUnits="userSpaceOnUse">
<stop stop-color="#BFD7FF"/>
<stop offset="1"/>
</linearGradient>
<linearGradient id="paint57_linear_6297_50506" x1="99.0859" y1="163.495" x2="109.372" y2="163.495" gradientUnits="userSpaceOnUse">
<stop stop-color="#8980EB"/>
<stop offset="1" stop-color="#705AB8"/>
</linearGradient>
<linearGradient id="paint58_linear_6297_50506" x1="95.8672" y1="158.289" x2="104.344" y2="158.289" gradientUnits="userSpaceOnUse">
<stop stop-color="#8980EB"/>
<stop offset="1" stop-color="#705AB8"/>
</linearGradient>
<linearGradient id="paint59_linear_6297_50506" x1="104.344" y1="158.54" x2="112.535" y2="158.54" gradientUnits="userSpaceOnUse">
<stop stop-color="#8980EB"/>
<stop offset="1" stop-color="#705AB8"/>
</linearGradient>
<linearGradient id="paint60_linear_6297_50506" x1="99.0846" y1="161.113" x2="109.371" y2="161.113" gradientUnits="userSpaceOnUse">
<stop stop-color="#8980EB"/>
<stop offset="1" stop-color="#705AB8"/>
</linearGradient>
<linearGradient id="paint61_linear_6297_50506" x1="156.2" y1="165.708" x2="156.2" y2="145.758" gradientUnits="userSpaceOnUse">
<stop stop-color="#8980EB"/>
<stop offset="1" stop-color="#705AB8"/>
</linearGradient>
<linearGradient id="paint62_linear_6297_50506" x1="156.197" y1="165.109" x2="156.197" y2="146.704" gradientUnits="userSpaceOnUse">
<stop stop-color="#86759D"/>
<stop offset="0.39" stop-color="#98ABD2"/>
<stop offset="1" stop-color="#DAE1EF"/>
</linearGradient>
<linearGradient id="paint63_linear_6297_50506" x1="147.836" y1="157.231" x2="156.313" y2="157.231" gradientUnits="userSpaceOnUse">
<stop stop-color="#705AB8"/>
<stop offset="1" stop-color="white"/>
</linearGradient>
<linearGradient id="paint64_linear_6297_50506" x1="156.312" y1="157.231" x2="164.504" y2="157.231" gradientUnits="userSpaceOnUse">
<stop stop-color="#705AB8"/>
<stop offset="1" stop-color="white"/>
</linearGradient>
<linearGradient id="paint65_linear_6297_50506" x1="151.012" y1="161.113" x2="156.311" y2="161.113" gradientUnits="userSpaceOnUse">
<stop stop-color="#705AB8"/>
<stop offset="1" stop-color="white"/>
</linearGradient>
<linearGradient id="paint66_linear_6297_50506" x1="156.172" y1="161.113" x2="161.315" y2="161.113" gradientUnits="userSpaceOnUse">
<stop stop-color="#705AB8"/>
<stop offset="1" stop-color="white"/>
</linearGradient>
<linearGradient id="paint67_linear_6297_50506" x1="156.927" y1="150.546" x2="158.03" y2="160.868" gradientUnits="userSpaceOnUse">
<stop stop-color="#BFD7FF"/>
<stop offset="1"/>
</linearGradient>
<linearGradient id="paint68_linear_6297_50506" x1="156.312" y1="155.921" x2="164.504" y2="155.921" gradientUnits="userSpaceOnUse">
<stop stop-color="#BFD7FF"/>
<stop offset="1"/>
</linearGradient>
<linearGradient id="paint69_linear_6297_50506" x1="159.732" y1="150.24" x2="160.834" y2="160.576" gradientUnits="userSpaceOnUse">
<stop stop-color="#BFD7FF"/>
<stop offset="1"/>
</linearGradient>
<linearGradient id="paint70_linear_6297_50506" x1="151.497" y1="151.117" x2="152.6" y2="161.453" gradientUnits="userSpaceOnUse">
<stop stop-color="#BFD7FF"/>
<stop offset="1"/>
</linearGradient>
<linearGradient id="paint71_linear_6297_50506" x1="151.043" y1="163.495" x2="161.343" y2="163.495" gradientUnits="userSpaceOnUse">
<stop stop-color="#8980EB"/>
<stop offset="1" stop-color="#705AB8"/>
</linearGradient>
<linearGradient id="paint72_linear_6297_50506" x1="147.836" y1="158.289" x2="156.313" y2="158.289" gradientUnits="userSpaceOnUse">
<stop stop-color="#8980EB"/>
<stop offset="1" stop-color="#705AB8"/>
</linearGradient>
<linearGradient id="paint73_linear_6297_50506" x1="156.312" y1="158.54" x2="164.504" y2="158.54" gradientUnits="userSpaceOnUse">
<stop stop-color="#8980EB"/>
<stop offset="1" stop-color="#705AB8"/>
</linearGradient>
<linearGradient id="paint74_linear_6297_50506" x1="151.043" y1="161.113" x2="161.343" y2="161.113" gradientUnits="userSpaceOnUse">
<stop stop-color="#8980EB"/>
<stop offset="1" stop-color="#705AB8"/>
</linearGradient>
<linearGradient id="paint75_linear_6297_50506" x1="129.942" y1="165.708" x2="129.942" y2="145.758" gradientUnits="userSpaceOnUse">
<stop stop-color="#8980EB"/>
<stop offset="1" stop-color="#705AB8"/>
</linearGradient>
<linearGradient id="paint76_linear_6297_50506" x1="129.944" y1="165.109" x2="129.944" y2="146.704" gradientUnits="userSpaceOnUse">
<stop stop-color="#86759D"/>
<stop offset="0.39" stop-color="#98ABD2"/>
<stop offset="1" stop-color="#DAE1EF"/>
</linearGradient>
<linearGradient id="paint77_linear_6297_50506" x1="121.582" y1="157.231" x2="130.059" y2="157.231" gradientUnits="userSpaceOnUse">
<stop stop-color="#705AB8"/>
<stop offset="1" stop-color="white"/>
</linearGradient>
<linearGradient id="paint78_linear_6297_50506" x1="130.059" y1="157.231" x2="138.236" y2="157.231" gradientUnits="userSpaceOnUse">
<stop stop-color="#705AB8"/>
<stop offset="1" stop-color="white"/>
</linearGradient>
<linearGradient id="paint79_linear_6297_50506" x1="124.758" y1="161.113" x2="130.057" y2="161.113" gradientUnits="userSpaceOnUse">
<stop stop-color="#705AB8"/>
<stop offset="1" stop-color="white"/>
</linearGradient>
<linearGradient id="paint80_linear_6297_50506" x1="129.914" y1="161.113" x2="135.057" y2="161.113" gradientUnits="userSpaceOnUse">
<stop stop-color="#705AB8"/>
<stop offset="1" stop-color="white"/>
</linearGradient>
<linearGradient id="paint81_linear_6297_50506" x1="130.669" y1="150.546" x2="131.772" y2="160.868" gradientUnits="userSpaceOnUse">
<stop stop-color="#BFD7FF"/>
<stop offset="1"/>
</linearGradient>
<linearGradient id="paint82_linear_6297_50506" x1="130.059" y1="155.921" x2="138.236" y2="155.921" gradientUnits="userSpaceOnUse">
<stop stop-color="#BFD7FF"/>
<stop offset="1"/>
</linearGradient>
<linearGradient id="paint83_linear_6297_50506" x1="133.478" y1="150.24" x2="134.58" y2="160.576" gradientUnits="userSpaceOnUse">
<stop stop-color="#BFD7FF"/>
<stop offset="1"/>
</linearGradient>
<linearGradient id="paint84_linear_6297_50506" x1="125.243" y1="151.117" x2="126.346" y2="161.453" gradientUnits="userSpaceOnUse">
<stop stop-color="#BFD7FF"/>
<stop offset="1"/>
</linearGradient>
<linearGradient id="paint85_linear_6297_50506" x1="124.785" y1="163.495" x2="135.085" y2="163.495" gradientUnits="userSpaceOnUse">
<stop stop-color="#8980EB"/>
<stop offset="1" stop-color="#705AB8"/>
</linearGradient>
<linearGradient id="paint86_linear_6297_50506" x1="121.582" y1="158.289" x2="130.059" y2="158.289" gradientUnits="userSpaceOnUse">
<stop stop-color="#8980EB"/>
<stop offset="1" stop-color="#705AB8"/>
</linearGradient>
<linearGradient id="paint87_linear_6297_50506" x1="130.059" y1="158.54" x2="138.236" y2="158.54" gradientUnits="userSpaceOnUse">
<stop stop-color="#8980EB"/>
<stop offset="1" stop-color="#705AB8"/>
</linearGradient>
<linearGradient id="paint88_linear_6297_50506" x1="124.785" y1="161.113" x2="135.085" y2="161.113" gradientUnits="userSpaceOnUse">
<stop stop-color="#8980EB"/>
<stop offset="1" stop-color="#705AB8"/>
</linearGradient>
<linearGradient id="paint89_linear_6297_50506" x1="148.5" y1="-0.5" x2="104" y2="22.5" gradientUnits="userSpaceOnUse">
<stop stop-color="#C68C43"/>
<stop offset="0.119792" stop-color="#F5BA6E"/>
<stop offset="0.286458" stop-color="#C68C43"/>
<stop offset="0.5625" stop-color="#C68C43"/>
<stop offset="0.770833" stop-color="#EEB873"/>
<stop offset="1" stop-color="#C68C43"/>
</linearGradient>
<linearGradient id="paint90_linear_6297_50506" x1="84.5" y1="60.5" x2="32.0032" y2="111.503" gradientUnits="userSpaceOnUse">
<stop stop-color="white" stop-opacity="0"/>
<stop offset="0.440223" stop-color="white"/>
<stop offset="1" stop-color="white" stop-opacity="0"/>
</linearGradient>
</defs>
</svg>
