<svg width="261" height="316" viewBox="0 0 261 316" fill="none" xmlns="http://www.w3.org/2000/svg">
    <g filter="url(#filter0_b_414_122)">
        <path d="M25 309.984C22.2386 309.984 20 307.746 20 304.984L20 12.0008C20 9.23937 22.2386 7.00079 25 7.00079L57 7.00079L57 309.984L25 309.984Z" fill="url(#paint0_linear_414_122)"/>
        <path d="M21 304.984L21 12.0008C21 9.79166 22.7908 8.00079 25 8.00079L56 8.00079L56 308.984L25 308.984C22.7909 308.984 21 307.194 21 304.984Z" stroke="url(#paint1_linear_414_122)" stroke-width="2"/>
    </g>
    <g filter="url(#filter1_b_414_122)">
        <path d="M235 7C237.761 7 240 9.23858 240 12L240 304.984C240 307.745 237.761 309.984 235 309.984L203 309.984L203 7L235 7Z" fill="url(#paint2_linear_414_122)"/>
        <path d="M239 12L239 304.984C239 307.193 237.209 308.984 235 308.984L204 308.984L204 8L235 8C237.209 8 239 9.79086 239 12Z" stroke="url(#paint3_linear_414_122)" stroke-width="2"/>
    </g>
    <mask id="path-5-inside-1_414_122" fill="white">
        <path fill-rule="evenodd" clip-rule="evenodd" d="M17 10C17 4.47715 21.4772 0 27 0H233C238.523 0 243 4.47715 243 10V116.123C243 119.396 241.398 122.462 238.711 124.332L236.289 126.016C233.602 127.885 232 130.952 232 134.225V157V160V182.775C232 186.048 233.602 189.115 236.289 190.984L238.711 192.668C241.398 194.538 243 197.604 243 200.877V306C243 311.523 238.523 316 233 316H27C21.4772 316 17 311.523 17 306V200.877C17 197.604 18.6021 194.538 21.2894 192.668L23.7106 190.984C26.3979 189.115 28 186.048 28 182.775L28 160V157L28 134.225C28 130.952 26.3979 127.885 23.7106 126.016L21.2894 124.332C18.6021 122.462 17 119.396 17 116.123V10Z"/>
    </mask>
    <g filter="url(#filter2_i_414_122)">
        <path fill-rule="evenodd" clip-rule="evenodd" d="M17 10C17 4.47715 21.4772 0 27 0H233C238.523 0 243 4.47715 243 10V116.123C243 119.396 241.398 122.462 238.711 124.332L236.289 126.016C233.602 127.885 232 130.952 232 134.225V157V160V182.775C232 186.048 233.602 189.115 236.289 190.984L238.711 192.668C241.398 194.538 243 197.604 243 200.877V306C243 311.523 238.523 316 233 316H27C21.4772 316 17 311.523 17 306V200.877C17 197.604 18.6021 194.538 21.2894 192.668L23.7106 190.984C26.3979 189.115 28 186.048 28 182.775L28 160V157L28 134.225C28 130.952 26.3979 127.885 23.7106 126.016L21.2894 124.332C18.6021 122.462 17 119.396 17 116.123V10Z" fill="#090E1C"/>
    </g>
    <path d="M28 160L30 160V160H28ZM28 157L26 157V157H28ZM21.2894 124.332L22.4315 122.69L21.2894 124.332ZM21.2894 192.668L20.1472 191.026L21.2894 192.668ZM238.711 192.668L237.569 194.31L238.711 192.668ZM23.7106 126.016L22.5685 127.658L23.7106 126.016ZM236.289 126.016L235.147 124.374L236.289 126.016ZM238.711 124.332L239.853 125.974L238.711 124.332ZM236.289 190.984L237.431 189.342L236.289 190.984ZM23.7106 190.984L24.8528 192.626L23.7106 190.984ZM233 -2H27V2H233V-2ZM245 116.123V10H241V116.123H245ZM237.431 127.658L239.853 125.974L237.569 122.69L235.147 124.374L237.431 127.658ZM234 157V134.225H230V157H234ZM234 160V157H230V160H234ZM234 182.775V160H230V182.775H234ZM239.853 191.026L237.431 189.342L235.147 192.626L237.569 194.31L239.853 191.026ZM245 306V200.877H241V306H245ZM27 318H233V314H27V318ZM15 200.877V306H19V200.877H15ZM22.4315 194.31L24.8528 192.626L22.5685 189.342L20.1472 191.026L22.4315 194.31ZM30 182.775L30 160L26 160L26 182.775L30 182.775ZM30 160V157H26V160H30ZM30 157L30 134.225L26 134.225L26 157L30 157ZM24.8528 124.374L22.4315 122.69L20.1472 125.974L22.5685 127.658L24.8528 124.374ZM15 10V116.123H19V10H15ZM22.4315 122.69C20.2817 121.194 19 118.741 19 116.123H15C15 120.051 16.9226 123.73 20.1472 125.974L22.4315 122.69ZM19 200.877C19 198.259 20.2817 195.806 22.4315 194.31L20.1472 191.026C16.9226 193.27 15 196.949 15 200.877H19ZM27 314C22.5817 314 19 310.418 19 306H15C15 312.627 20.3726 318 27 318V314ZM241 306C241 310.418 237.418 314 233 314V318C239.627 318 245 312.627 245 306H241ZM237.569 194.31C239.718 195.806 241 198.259 241 200.877H245C245 196.949 243.077 193.27 239.853 191.026L237.569 194.31ZM30 134.225C30 130.297 28.0774 126.618 24.8528 124.374L22.5685 127.658C24.7183 129.153 26 131.606 26 134.225L30 134.225ZM235.147 124.374C231.923 126.618 230 130.297 230 134.225H234C234 131.606 235.282 129.153 237.431 127.658L235.147 124.374ZM241 116.123C241 118.741 239.718 121.194 237.569 122.69L239.853 125.974C243.077 123.73 245 120.051 245 116.123H241ZM230 182.775C230 186.703 231.923 190.382 235.147 192.626L237.431 189.342C235.282 187.847 234 185.394 234 182.775H230ZM27 -2C20.3726 -2 15 3.37258 15 10H19C19 5.58172 22.5817 2 27 2V-2ZM24.8528 192.626C28.0774 190.382 30 186.703 30 182.775L26 182.775C26 185.394 24.7183 187.847 22.5685 189.342L24.8528 192.626ZM233 2C237.418 2 241 5.58172 241 10H245C245 3.37258 239.627 -2 233 -2V2Z" fill="url(#paint4_linear_414_122)" mask="url(#path-5-inside-1_414_122)"/>
    <mask id="mask0_414_122" style="mask-type:alpha" maskUnits="userSpaceOnUse" x="19" y="2" width="222" height="312">
        <path fill-rule="evenodd" clip-rule="evenodd" d="M19 12C19 6.47715 23.4771 2 29 2H231C236.523 2 241 6.47715 241 12V116.602C241 119.867 239.406 122.927 236.73 124.798L234.465 126.382C231.789 128.253 230.195 131.312 230.195 134.577V157.013V159.975V182.41C230.195 185.675 231.789 188.735 234.465 190.606L236.73 192.19C239.406 194.061 241 197.12 241 200.385V304C241 309.523 236.523 314 231 314H29C23.4772 314 19 309.523 19 304V200.386C19 197.121 20.5939 194.062 23.2697 192.191L25.537 190.606C28.2127 188.735 29.8066 185.675 29.8066 182.41L29.8066 157.013L29.8066 134.577C29.8066 131.312 28.2127 128.253 25.537 126.382L23.2697 124.796C20.5939 122.925 19 119.866 19 116.601V12Z" fill="#090E1C"/>
    </mask>
    <g mask="url(#mask0_414_122)">
        <rect x="18" y="317" width="317" height="113" transform="rotate(-90 18 317)" fill="#060911"/>
        <g opacity="0.2">
            <g style="mix-blend-mode:multiply" opacity="0.5">
                <path d="M130.5 126.965L62.8558 158L75.7902 92.1373L21 45.5139L96.6779 35.8943L130.5 -24L164.322 35.8943L240 45.5139L185.29 92.1373L198.225 158L130.5 126.965Z" fill="#DE5634"/>
            </g>
            <path d="M232.739 47.0166L196.168 42.3724L186.202 41.1058L162.491 38.08L131.064 -17.6504L99.6369 38.08L29.4688 47.0166L80.2663 90.3625L68.2903 151.652L131.064 122.731L193.918 151.652L181.942 90.3625L232.739 47.0166Z" fill="url(#paint5_linear_414_122)"/>
            <path style="mix-blend-mode:multiply" opacity="0.37" d="M29.4688 47.9531L132.314 71.6874L80.0524 91.3368L29.4688 47.9531Z" fill="url(#paint6_linear_414_122)"/>
            <path style="mix-blend-mode:multiply" opacity="0.37" d="M231.532 47.9531L132.316 71.6874L181.045 91.3368L231.532 47.9531Z" fill="url(#paint7_linear_414_122)"/>
            <path style="mix-blend-mode:multiply" opacity="0.37" d="M130.56 122.91L132.315 71.2324L68.1875 151.651L130.56 122.91Z" fill="url(#paint8_linear_414_122)"/>
            <path style="mix-blend-mode:multiply" opacity="0.37" d="M192.812 151.651L131.667 71.2324L129.895 122.91L192.812 151.651Z" fill="url(#paint9_linear_414_122)"/>
            <path style="mix-blend-mode:color-dodge" opacity="0.5" d="M129.895 -17.6504L131.669 71.2333L161.353 38.3973L129.895 -17.6504Z" fill="url(#paint10_linear_414_122)"/>
            <path style="mix-blend-mode:color-dodge" opacity="0.5" d="M231.532 47.4079L132.316 71.232L161.714 38.4297L231.532 47.4079Z" fill="url(#paint11_linear_414_122)"/>
            <path style="mix-blend-mode:color-dodge" opacity="0.5" d="M231.532 47.4079L132.316 71.232L161.714 38.4297L231.532 47.4079Z" fill="url(#paint12_linear_414_122)"/>
            <path style="mix-blend-mode:color-dodge" opacity="0.5" d="M99.3109 38.4297L132.314 71.232L29.4688 47.4079L99.3109 38.4297Z" fill="url(#paint13_linear_414_122)"/>
            <path d="M161.517 57.8466C156.225 61.4331 160.703 63.824 160.703 63.824L187.972 57.8466C184.14 55.5433 179.504 54.3008 174.744 54.3008C169.984 54.3008 165.349 55.5433 161.517 57.8466Z" fill="white"/>
            <g style="mix-blend-mode:multiply" opacity="0.5">
                <path d="M68.1875 151.652C68.1875 151.652 115.848 131.949 131.064 126.53L194.022 151.652L131.064 123.082L68.1875 151.652Z" fill="#DE5634"/>
            </g>
            <g style="mix-blend-mode:soft-light" opacity="0.4">
                <path d="M106.823 28.6766C100.035 44.7476 125.962 55.9486 129.397 51.009C132.832 46.0694 130.706 18.5192 126.371 14.8319C122.036 11.1446 109.604 22.1369 106.823 28.6766Z" fill="#F7FFFF"/>
            </g>
            <g style="mix-blend-mode:soft-light" opacity="0.4">
                <path d="M86.6799 112.366C99.9748 114.005 107.37 100.325 110.28 90.992C114.607 75.8164 62.6075 109.801 86.6799 112.366Z" fill="#F7FFFF"/>
            </g>
        </g>
    </g>
    <g filter="url(#filter3_f_414_122)">
        <ellipse cx="130.5" cy="158" rx="55.5" ry="52" fill="#FF5C00"/>
    </g>
    <rect x="202" y="13" width="26" height="26" rx="13" fill="#151C30"/>
    <rect x="202.5" y="13.5" width="25" height="25" rx="12.5" stroke="#C68C43"/>
    <g style="mix-blend-mode:soft-light">
        <mask id="mask1_414_122" style="mask-type:alpha" maskUnits="userSpaceOnUse" x="202" y="13" width="26" height="26">
            <rect x="202" y="13" width="26" height="26" rx="13" fill="#101520"/>
        </mask>
        <g mask="url(#mask1_414_122)">
            <g filter="url(#filter4_f_414_122)">
                <path d="M198.387 42.6662L231.147 9.90625" stroke="white" stroke-width="0.52"/>
            </g>
            <g filter="url(#filter5_f_414_122)">
                <path d="M193.73 47.32L235.798 5.25195" stroke="white" stroke-width="1.3"/>
            </g>
            <g filter="url(#filter6_f_414_122)">
                <path d="M193.73 47.32L235.798 5.25195" stroke="white" stroke-width="1.3"/>
            </g>
            <g opacity="0.5" filter="url(#filter7_f_414_122)">
                <path d="M193.188 37.6995L225.947 4.93945" stroke="white" stroke-width="0.52"/>
            </g>
            <g opacity="0.5" filter="url(#filter8_f_414_122)">
                <path d="M202 49.426L234.76 16.666" stroke="white" stroke-width="0.26"/>
            </g>
        </g>
    </g>
    <path d="M218.353 29.3328C217.693 29.8361 216.932 29.9571 216.932 29.9571C217.47 29.5655 218.51 28.4652 217.907 27.2717C217.304 26.0783 215.001 25.3047 215.001 25.3047C215.001 25.3047 212.699 26.0787 212.094 27.2717C211.49 28.4648 212.531 29.5655 213.07 29.9571C213.07 29.9571 212.308 29.8357 211.649 29.3324C211.649 29.3324 210.033 30.7495 209.848 32.3907C209.848 32.3907 211.324 31.2998 215.001 31.2998C218.678 31.2998 220.155 32.3907 220.155 32.3907C219.968 30.7499 218.353 29.3328 218.353 29.3328ZM215.271 29.3234L215.001 29.7711L214.732 29.3234C212.996 29.193 212.68 27.8969 212.68 27.8969L213.543 27.3936L213.309 26.9835L214.999 28.0089L216.692 26.9835L216.458 27.3936L217.321 27.8969C217.321 27.8969 217.006 29.193 215.27 29.3234H215.271Z" fill="white"/>
    <path d="M219.754 20.8241C219.754 20.8241 221.275 21.0005 222 21.7347C222 21.7347 220.877 19.6348 218.5 19.6348C216.123 19.6348 215 20.9263 215 20.9263C215 20.9263 213.877 19.6348 211.5 19.6348C209.124 19.6348 208 21.7347 208 21.7347C208.724 21.0005 210.247 20.8241 210.247 20.8241C209.04 21.1781 208.11 22.6196 208.121 24.3463C208.131 26.0731 208.798 27.3101 209.458 27.4689C210.117 27.6278 210.469 26.9951 211.454 26.0638C212.438 25.1325 213.44 24.9861 213.44 24.9861C212.447 24.5399 211.788 24.8003 211.128 25.0138C210.469 25.2273 209.931 25.3019 209.55 24.531C209.17 23.7601 209.894 22.9143 209.894 22.9143C209.485 22.9794 209.096 23.3046 209.096 23.3046C209.467 22.4217 209.94 22.1801 210.711 22.1523C211.481 22.1246 211.834 22.3288 212.642 22.7843C213.449 23.2398 214.155 23.7691 214.573 23.4252C214.991 23.0813 214.369 21.9201 214.369 21.9201C214.824 22.2175 215 22.8397 215 22.8397C215 22.8397 215.177 22.2175 215.631 21.9201C215.631 21.9201 215.007 23.0813 215.427 23.4252C215.847 23.7691 216.551 23.2394 217.358 22.7843C218.166 22.3292 218.519 22.1246 219.289 22.1523C220.06 22.1801 220.533 22.4244 220.903 23.3057C220.903 23.3057 220.513 22.9806 220.105 22.9154C220.105 22.9154 220.829 23.7609 220.449 24.5321C220.068 25.3034 219.53 25.2289 218.871 25.015C218.211 24.8011 217.552 24.5411 216.558 24.9873C216.558 24.9873 217.561 25.136 218.545 26.0649C219.529 26.9939 219.882 27.6262 220.541 27.4701C221.201 27.314 221.868 26.0763 221.879 24.3475C221.889 22.6188 220.96 21.1781 219.754 20.8241Z" fill="white"/>
    <path d="M218.503 19.6348C216.124 19.6348 214.999 20.9358 214.999 20.9358C214.999 20.9358 213.874 19.6348 211.495 19.6348C209.724 19.6348 208.648 20.8065 208.215 21.4041C209.141 20.4954 211.616 18.7619 215 21.7391C218.385 18.7619 220.859 20.4954 221.786 21.4041C221.35 20.8065 220.274 19.6348 218.503 19.6348Z" fill="#C4C4C4"/>
    <path d="M211.094 25.0066C210.433 25.2213 209.893 25.2958 209.512 24.5218C209.13 23.7477 209.856 22.8984 209.856 22.8984C209.528 22.9506 209.212 23.1704 209.1 23.2559C208.767 23.812 208.537 24.8196 209.319 26.4762C209.319 26.4762 208.65 26.2783 208.129 25.1214C208.299 26.4367 208.861 27.3361 209.419 27.4697C210.08 27.6265 210.433 26.994 211.42 26.0589C212.407 25.1237 213.411 24.9768 213.411 24.9768C212.415 24.5308 211.754 24.7922 211.094 25.0066Z" fill="#C4C4C4"/>
    <path d="M220.62 26.4748C221.41 24.7996 221.167 23.7881 220.83 23.2365C220.7 23.1413 220.405 22.947 220.099 22.8984C220.099 22.8984 220.825 23.747 220.443 24.5211C220.062 25.2952 219.523 25.2204 218.863 25.0057C218.203 24.791 217.542 24.5301 216.547 24.9779C216.547 24.9779 217.551 25.1271 218.537 26.0595C219.523 26.9919 219.876 27.6265 220.536 27.4698C221.098 27.3347 221.666 26.4176 221.829 25.0801C221.306 26.2726 220.62 26.4748 220.62 26.4748Z" fill="#C4C4C4"/>
    <path d="M220.152 32.3698C219.559 31.9153 218.047 30.978 215.54 30.8742C212.211 30.7348 211.904 31.2784 211.528 30.8043C211.152 30.3302 213.07 29.9627 213.07 29.9627C213.07 29.9627 212.308 29.8417 211.649 29.3398C211.649 29.3398 210.033 30.7527 209.848 32.389C209.848 32.389 211.324 31.3014 215.001 31.3014C218.678 31.3014 220.155 32.389 220.155 32.389C220.154 32.3839 220.153 32.3765 220.152 32.3698Z" fill="#C4C4C4"/>
    <path d="M79.0859 168.955V207.628L97.8471 196.844L98.7839 169.932L79.0859 168.955Z" fill="url(#paint14_linear_414_122)"/>
    <g style="mix-blend-mode:multiply" opacity="0.6">
        <path d="M79.0859 202.846L97.9792 193.5L97.8471 196.845L79.0859 207.629V202.846Z" fill="#8E37E2"/>
    </g>
    <path style="mix-blend-mode:multiply" d="M79.5544 186.085C80.6594 181.923 82.8574 184.82 82.8574 190.74C82.8574 196.661 82.0767 205.904 82.0767 205.904L83.7702 204.754C83.7702 204.754 83.6501 189.441 84.4909 187.602C85.3316 185.763 89.8357 186.372 89.8357 201.466L97.8471 196.868L98.7839 169.956L79.0859 168.979V190.166L79.5544 186.085Z" fill="url(#paint15_linear_414_122)"/>
    <path d="M181.913 168.955V207.628L163.152 196.844L162.215 169.932L181.913 168.955Z" fill="url(#paint16_linear_414_122)"/>
    <g style="mix-blend-mode:multiply" opacity="0.6">
        <path d="M181.913 202.846L163.02 193.5L163.152 196.845L181.913 207.629V202.846Z" fill="#8E37E2"/>
    </g>
    <path style="mix-blend-mode:multiply" d="M181.446 186.084C180.353 181.923 178.155 184.82 178.155 190.74C178.155 196.66 178.923 205.903 178.923 205.903L177.242 204.754C177.242 204.754 177.35 189.441 176.509 187.602C175.668 185.762 171.116 186.349 171.116 201.443L163.105 196.844L162.168 169.932L181.866 168.955V190.165L181.446 186.084Z" fill="url(#paint17_linear_414_122)"/>
    <path d="M125.606 197.065V235.001C113.595 228.954 95.5781 211.308 95.5781 211.308V185.074L125.606 197.065Z" fill="url(#paint18_linear_414_122)"/>
    <g style="mix-blend-mode:multiply" opacity="0.6">
        <path d="M125.606 227.332V234.965C113.595 228.918 95.5781 211.272 95.5781 211.272V204.73C99.7699 209.858 108.658 218.434 125.606 227.332Z" fill="#8E37E2"/>
    </g>
    <path d="M135.816 197.065V235.001C147.827 228.954 165.844 211.308 165.844 211.308V185.074L135.816 197.065Z" fill="url(#paint19_linear_414_122)"/>
    <g style="mix-blend-mode:multiply" opacity="0.6">
        <path d="M135.816 227.332V234.965C147.827 228.918 165.844 211.272 165.844 211.272V204.73C161.652 209.858 152.824 218.434 135.816 227.332Z" fill="#8E37E2"/>
    </g>
    <path style="mix-blend-mode:multiply" d="M98.4127 213.939C98.4127 213.939 98.1365 196.546 100.971 196.845C103.806 197.143 108.694 199.903 109.763 203.064C110.832 206.225 110.52 224.538 110.52 224.538L111.601 225.389C111.601 225.389 110.268 203.144 112.478 204.237C114.111 205 115.527 206.131 116.604 207.532C117.681 208.934 118.388 210.564 118.663 212.284C119.684 217.25 119.996 231.7 119.996 231.7L125.606 234.919V196.983L95.5781 184.992V211.192L98.4127 213.939Z" fill="url(#paint20_linear_414_122)"/>
    <path style="mix-blend-mode:multiply" d="M163.009 213.939C163.009 213.939 163.237 193.557 160.403 193.856C157.568 194.155 157.448 204.478 157.448 207.651C157.448 210.824 156.992 219.411 156.992 219.411L155.394 220.802C155.394 220.802 155.622 197.615 153.412 198.707C151.202 199.799 141.51 206.973 140.477 211.939C139.444 216.905 139.84 232.632 139.84 232.632L135.816 234.931V196.994L165.844 185.004V211.203L163.009 213.939Z" fill="url(#paint21_linear_414_122)"/>
    <path d="M142.805 139.33L208.697 138.928L202.547 149.504L146.192 150.999L142.805 139.33Z" fill="url(#paint22_linear_414_122)"/>
    <path d="M202.825 138.928L195.186 138.974L188.652 149.803L196.495 149.596L202.825 138.928Z" fill="url(#paint23_linear_414_122)"/>
    <g style="mix-blend-mode:multiply" opacity="0.5">
        <path d="M145.711 147.686L204.348 146.398L202.547 149.502L146.191 150.997L145.711 147.686Z" fill="#DE5634"/>
    </g>
    <g style="mix-blend-mode:soft-light" opacity="0.4">
        <path d="M180.17 139.859C179.678 140.376 181.96 145.894 182.897 145.722C183.834 145.549 202.871 145.883 203.724 145.319C204.577 144.756 207.759 140.123 207.063 139.571C206.366 139.019 180.639 139.364 180.17 139.859Z" fill="#FFDF66"/>
    </g>
    <g style="mix-blend-mode:multiply" opacity="0.5">
        <path d="M178.826 139.064C178.826 139.064 181.312 145.502 181.396 146.905C181.348 148.02 181.032 149.11 180.471 150.089L146.192 150.997L142.805 139.329L178.826 139.064Z" fill="#DE5634"/>
    </g>
    <path d="M118.615 139.33L52.7227 138.928L58.8723 149.504L115.228 150.999L118.615 139.33Z" fill="url(#paint24_linear_414_122)"/>
    <path d="M58.4648 138.973L66.0918 139.019L72.6258 149.848L64.7946 149.641L58.4648 138.973Z" fill="url(#paint25_linear_414_122)"/>
    <g style="mix-blend-mode:multiply" opacity="0.5">
        <path d="M115.72 147.686L57.0703 146.398L58.872 149.502L115.227 150.997L115.72 147.686Z" fill="#DE5634"/>
    </g>
    <g style="mix-blend-mode:soft-light" opacity="0.4">
        <path d="M80.7928 139.629C82.4263 141.112 79.4956 146.182 78.5588 146.009C77.6219 145.837 58.5485 145.883 57.6957 145.32C56.843 144.756 53.6601 140.124 54.3567 139.572C55.0533 139.02 79.8319 138.778 80.7928 139.629Z" fill="#FFDF66"/>
    </g>
    <g style="mix-blend-mode:multiply" opacity="0.5">
        <path d="M82.5938 139.064C82.5938 139.064 80.1075 145.502 80.0234 146.905C80.073 148.016 80.3895 149.102 80.9483 150.078L115.228 150.986L118.615 139.317L82.5938 139.064Z" fill="#DE5634"/>
    </g>
    <path d="M150.121 125.695L216.001 125.293L209.852 135.881L153.496 137.364L150.121 125.695Z" fill="url(#paint26_linear_414_122)"/>
    <path d="M210.524 125.316L202.886 125.362L196.352 136.192L204.195 135.985L210.524 125.316Z" fill="url(#paint27_linear_414_122)"/>
    <g style="mix-blend-mode:multiply" opacity="0.5">
        <path d="M153.016 134.065L211.653 132.766L209.851 135.881L153.496 137.364L153.016 134.065Z" fill="#DE5634"/>
    </g>
    <g style="mix-blend-mode:soft-light" opacity="0.4">
        <path d="M187.475 126.236C186.983 126.754 189.265 132.26 190.201 132.088C191.138 131.915 210.176 132.26 211.028 131.697C211.881 131.134 215.076 126.489 214.38 125.949C213.683 125.409 187.931 125.742 187.475 126.236Z" fill="#FFDF66"/>
    </g>
    <g style="mix-blend-mode:multiply" opacity="0.5">
        <path d="M177.53 125.533C178.554 128.094 179.413 130.712 180.1 133.373C180.047 134.488 179.731 135.577 179.176 136.558L153.496 137.363L150.121 125.694L177.53 125.533Z" fill="#DE5634"/>
    </g>
    <path d="M110.892 125.695L45 125.293L51.1496 135.881L107.505 137.364L110.892 125.695Z" fill="url(#paint28_linear_414_122)"/>
    <path d="M50.668 125.363L58.3069 125.409L64.8409 136.239L56.9977 136.032L50.668 125.363Z" fill="url(#paint29_linear_414_122)"/>
    <g style="mix-blend-mode:multiply" opacity="0.5">
        <path d="M107.997 134.065L49.3477 132.766L51.1493 135.881L107.505 137.364L107.997 134.065Z" fill="#DE5634"/>
    </g>
    <g style="mix-blend-mode:soft-light" opacity="0.4">
        <path d="M73.0702 125.994C74.7036 127.489 71.773 132.547 70.8361 132.375C69.8993 132.202 50.8259 132.26 49.9731 131.685C49.1203 131.11 45.9374 126.489 46.634 125.937C47.3307 125.385 72.1213 125.144 73.0702 125.994Z" fill="#FFDF66"/>
    </g>
    <g style="mix-blend-mode:multiply" opacity="0.5">
        <path d="M83.8555 125.533C83.8555 125.533 81.3692 131.971 81.2852 133.373C81.3462 134.49 81.6706 135.579 82.234 136.558L107.529 137.363L110.916 125.694L83.8555 125.533Z" fill="#DE5634"/>
    </g>
    <path style="mix-blend-mode:multiply" opacity="0.37" d="M114.375 112.681C111.901 114.624 87.2307 127.534 86.8944 128.373C86.462 129.443 89.741 134.478 91.2904 134.052C92.8398 133.627 122.207 117.705 122.267 116.958C122.327 116.211 122.399 112.061 121.69 111.796C120.982 111.532 115.312 111.934 114.375 112.681Z" fill="url(#paint30_linear_414_122)"/>
    <g style="mix-blend-mode:soft-light" opacity="0.4">
        <path d="M111.059 111.371C109.438 111.475 89.3074 123.845 89.3074 124.201C89.3074 124.557 85.7041 126.65 86.6169 126.592C87.5298 126.535 112.933 112.797 112.969 112.326C113.005 111.854 111.972 111.314 111.059 111.371Z" fill="#FFDF66"/>
    </g>
    <g style="mix-blend-mode:soft-light" opacity="0.4">
        <path d="M85.8359 128.376C85.8359 128.376 99.2402 121.903 106.086 117.765C112.933 113.626 114.374 112.684 114.374 112.684L85.8359 128.376Z" fill="#FFDF66"/>
    </g>
    <path style="mix-blend-mode:multiply" opacity="0.37" d="M147.092 112.681C149.495 114.624 174.225 127.534 174.561 128.373C174.994 129.443 171.715 134.478 170.165 134.052C168.616 133.627 139.213 117.705 139.153 116.958C139.093 116.211 139.021 112.061 139.73 111.796C140.438 111.532 146.107 111.934 147.092 112.681Z" fill="url(#paint31_linear_414_122)"/>
    <g style="mix-blend-mode:soft-light" opacity="0.4">
        <path d="M150.313 111.371C151.934 111.475 172.065 123.845 172.065 124.201C172.065 124.557 175.668 126.65 174.755 126.592C173.842 126.535 148.439 112.797 148.403 112.326C148.367 111.854 149.496 111.314 150.313 111.371Z" fill="#FFDF66"/>
    </g>
    <g style="mix-blend-mode:soft-light" opacity="0.4">
        <path d="M175.596 128.376C175.596 128.376 162.192 121.903 155.333 117.765C148.475 113.626 147.094 112.684 147.094 112.684L175.596 128.376Z" fill="#FFDF66"/>
    </g>
    <path d="M87.4699 178.414C87.3618 178.794 71.0389 173.356 71.0389 173.356C66.8894 167.398 63.4451 161.017 60.7695 154.33H88.647L87.4699 178.414Z" fill="url(#paint32_linear_414_122)"/>
    <path d="M66.0898 154.33C66.0898 154.33 72.6238 167.194 73.8249 168.585L87.9258 168.953V168.033C87.9258 168.033 75.014 168.137 74.2813 167.608C73.5486 167.079 66.9546 154.33 66.9546 154.33H66.0898Z" fill="#B33114"/>
    <path d="M66.0898 154.33L73.8249 168.585C72.1529 166.305 70.6364 163.924 69.2848 161.458C67.5312 158.124 66.0898 154.33 66.0898 154.33Z" fill="white"/>
    <g style="mix-blend-mode:soft-light" opacity="0.4">
        <path d="M68.0832 155.206C69.1641 158.287 73.4521 165.265 74.3409 165.265C75.2297 165.265 85.5711 165.093 86.52 163.667C87.4688 162.242 88.2976 155.344 87.4688 155.206C86.6401 155.068 67.6027 153.838 68.0832 155.206Z" fill="#FFDF66"/>
    </g>
    <g style="mix-blend-mode:soft-light" opacity="0.4">
        <path d="M61.6951 154.872C63.0163 157.884 66.7157 165.552 67.4003 165.644C68.0849 165.736 70.391 166.012 70.4271 165.092C70.4271 163.621 66.1632 155.068 65.2023 154.872C64.2414 154.677 61.3588 154.125 61.6951 154.872Z" fill="#FFDF66"/>
    </g>
    <path style="mix-blend-mode:multiply" opacity="0.37" d="M68.0732 166.645C67.953 167.599 71.6764 172.507 72.277 172.898C72.8775 173.289 85.417 177.163 86.2457 176.612C87.0745 176.06 87.4468 165.943 86.8103 165.644C86.1737 165.345 68.2173 165.598 68.0732 166.645Z" fill="url(#paint33_linear_414_122)"/>
    <g style="mix-blend-mode:multiply" opacity="0.5">
        <path d="M79.2773 154.333C80.6203 161.687 81.2076 169.149 81.0309 176.612L87.4568 178.417L88.6579 154.275L79.2773 154.333Z" fill="#DE5634"/>
    </g>
    <path d="M173.951 178.414C174.059 178.794 190.382 173.356 190.382 173.356C194.531 167.398 197.975 161.017 200.651 154.33H172.773L173.951 178.414Z" fill="url(#paint34_linear_414_122)"/>
    <path d="M195.328 154.33C195.328 154.33 188.818 167.194 187.629 168.585L173.516 168.953V168.033C173.516 168.033 186.415 168.137 187.148 167.608C187.881 167.079 194.475 154.33 194.475 154.33H195.328Z" fill="#B33114"/>
    <path d="M195.328 154.33L187.629 168.585C189.301 166.305 190.817 163.924 192.169 161.458C193.935 158.124 195.328 154.33 195.328 154.33Z" fill="white"/>
    <g style="mix-blend-mode:soft-light" opacity="0.4">
        <path d="M193.335 155.206C192.254 158.287 187.979 165.265 187.078 165.265C186.177 165.265 175.847 165.093 174.899 163.667C173.95 162.242 173.121 155.344 173.95 155.206C174.778 155.068 193.816 153.838 193.335 155.206Z" fill="#FFDF66"/>
    </g>
    <g style="mix-blend-mode:soft-light" opacity="0.4">
        <path d="M199.736 154.872C198.403 157.884 194.716 165.552 194.019 165.644C193.322 165.736 191.028 166.012 190.992 165.092C190.992 163.621 195.256 155.068 196.229 154.872C197.202 154.677 200.06 154.125 199.736 154.872Z" fill="#FFDF66"/>
    </g>
    <path style="mix-blend-mode:multiply" opacity="0.37" d="M193.348 166.645C193.468 167.599 189.744 172.507 189.144 172.898C188.543 173.289 176.004 177.163 175.187 176.612C174.37 176.06 173.986 165.943 174.611 165.644C175.235 165.345 193.204 165.598 193.348 166.645Z" fill="url(#paint35_linear_414_122)"/>
    <g style="mix-blend-mode:multiply" opacity="0.5">
        <path d="M182.143 154.333C180.796 161.686 180.204 169.148 180.377 176.612L173.951 178.417L172.75 154.275L182.143 154.333Z" fill="#DE5634"/>
    </g>
    <path d="M130.891 98.6328L85.2617 123.844V184.014L130.891 209.224L176.521 184.014V123.844L130.891 98.6328Z" fill="url(#paint36_linear_414_122)"/>
    <path d="M93.5117 179.451V128.408L130.89 107.75L168.268 128.408V179.451L130.89 200.109L93.5117 179.451Z" fill="url(#paint37_linear_414_122)"/>
    <path d="M96.2617 177.934V129.926L130.889 110.797L165.517 129.926V177.934L130.889 197.063L96.2617 177.934Z" fill="url(#paint38_linear_414_122)"/>
    <g style="mix-blend-mode:soft-light" opacity="0.4">
        <path d="M86.401 124.005C85.8365 125.626 90.6409 127.615 94.1 126.902C97.5592 126.19 129.628 108.164 130.409 106.543C130.644 104.295 130.644 102.031 130.409 99.7832C129.28 99.7832 86.6773 123.224 86.401 124.005Z" fill="#FFDF66"/>
    </g>
    <g style="mix-blend-mode:soft-light" opacity="0.4">
        <path d="M175.162 124.005C175.726 125.626 170.874 127.615 167.463 126.902C164.051 126.19 132.234 107.991 131.153 106.543C130.589 105.796 130.409 99.7832 131.153 99.7832C132.282 99.7832 174.885 123.224 175.162 124.005Z" fill="#FFDF66"/>
    </g>
    <path style="mix-blend-mode:multiply" opacity="0.37" d="M86.3518 158.231C86.0395 160.024 85.2949 182.798 86.3518 182.97C87.4088 183.142 92.3573 179.901 92.6336 178.372C92.9098 176.843 92.9939 161.266 92.6336 159.771C92.2732 158.277 86.8563 155.23 86.3518 158.231Z" fill="url(#paint39_linear_414_122)"/>
    <path style="mix-blend-mode:multiply" opacity="0.37" d="M175.248 158.231C175.56 160.024 176.305 182.798 175.248 182.97C174.191 183.142 169.243 179.901 168.966 178.372C168.69 176.843 168.606 161.266 168.966 159.771C169.327 158.277 174.72 155.23 175.248 158.231Z" fill="url(#paint40_linear_414_122)"/>
    <path style="mix-blend-mode:multiply" opacity="0.37" d="M87.4951 183.59C88.0476 184.371 129.149 207.628 129.762 207.628C130.074 207.628 130.494 201.88 130.494 201.201C130.494 199.408 94.1491 180.934 93.5126 180.762C92.5757 180.509 86.9426 182.808 87.4951 183.59Z" fill="url(#paint41_linear_414_122)"/>
    <path style="mix-blend-mode:multiply" opacity="0.37" d="M174.359 184.198C173.806 184.98 131.936 208.156 131.323 208.156C131.166 205.658 131.218 203.151 131.479 200.661C132.813 199.396 167.512 180.899 168.101 180.727C169.014 180.508 174.911 183.417 174.359 184.198Z" fill="url(#paint42_linear_414_122)"/>
    <g style="mix-blend-mode:multiply" opacity="0.37">
        <path d="M97.8482 176.658C95.446 163.357 96.7672 162.518 114.003 156.896C131.239 151.275 160.401 136.79 162.96 143.101C165.518 149.412 164.641 176.152 164.065 177.589C163.488 179.026 133.377 195.603 130.89 195.638C128.404 195.672 98.1244 178.152 97.8482 176.658Z" fill="#ED8A1D"/>
    </g>
    <g style="mix-blend-mode:soft-light" opacity="0.4">
        <path d="M164.774 130.259C164.161 130.121 132.872 112.808 131.143 112.934C129.413 113.061 107.661 122.821 98.7133 130.178C96.3111 132.156 97.1999 161.516 99.3979 160.976C101.596 160.436 103.217 148.583 127.431 141.916C151.273 135.34 161.651 141.031 164.233 142.042C164.966 142.33 166.155 130.535 164.774 130.259Z" fill="#FFDF66"/>
    </g>
    <g style="mix-blend-mode:multiply" opacity="0.5">
        <path d="M93.5117 179.452V128.41L130.89 107.717L168.268 128.41V179.452L165.517 177.934C165.517 177.934 165.686 133.56 164.689 132.169C161.085 127.203 133.46 115.132 128.944 116.477C124.428 117.822 99.7094 127.869 96.9589 132.088C96.034 133.502 96.2622 177.934 96.2622 177.934L93.5117 179.452Z" fill="#DE5634"/>
    </g>
    <g style="mix-blend-mode:soft-light" opacity="0.4">
        <path d="M137.881 135.377C147.19 139.447 161.218 139.516 162.504 138.734C163.789 137.952 164.641 132.239 162.624 131.285C160.606 130.33 144.607 122.168 140.403 123.042C136.2 123.916 136.284 134.664 137.881 135.377Z" fill="#FFDF66"/>
    </g>
    <path opacity="0.8" d="M85.262 142.18C85.262 142.042 85.6584 125.212 86.4031 124.005C87.1477 122.797 129.907 100.104 131.156 99.7824C132.405 99.4605 148.416 108.312 148.416 108.312L130.892 98.6328L85.25 123.844L85.262 142.18Z" fill="#700000"/>
    <path d="M147.227 116.742C147.227 116.742 167.273 127.698 167.513 128.928C167.753 130.158 168.234 163.14 168.234 163.14C168.234 163.14 168.426 129.802 168.234 128.411C168.042 127.02 147.227 116.742 147.227 116.742Z" fill="white"/>
    <path d="M93.5103 156.378C93.5103 156.378 92.8377 128.788 93.186 127.891C93.5343 126.994 130.888 107.75 130.888 107.75C130.888 107.75 94.8556 127.5 94.0628 128.753C93.2701 130.006 93.5103 156.378 93.5103 156.378Z" fill="white"/>
    <path opacity="0.8" d="M85.2617 184.015L130.903 209.226L176.545 184.015V170.312C176.545 170.312 176.161 182.268 175.236 183.762C174.311 185.257 133.402 208.007 131.324 208.157C129.246 208.306 87.4477 184.567 86.3547 182.969C85.2617 181.371 85.2617 153.355 85.2617 153.355V184.015Z" fill="#700000"/>
    <g style="mix-blend-mode:soft-light" opacity="0.4">
        <path d="M93.5104 166.391C93.5104 166.391 93.3783 178.163 94.0629 179.14C94.7476 180.117 112.476 189.934 112.476 189.934C112.476 189.934 93.2702 180.427 93.042 179.806C92.8138 179.186 93.5104 166.391 93.5104 166.391Z" fill="#FFDF66"/>
    </g>
    <g style="mix-blend-mode:soft-light" opacity="0.4">
        <path d="M108.946 190.164C107.601 190.164 103.829 191.624 104.646 192.463C105.463 193.302 127.923 206.258 130.493 207.178C131.322 207.477 131.25 202.361 130.121 200.706C129.641 200.005 113.126 190.153 108.946 190.164Z" fill="#FFDF66"/>
    </g>
    <path d="M149.927 110.888C149.194 111.072 151.656 114.05 152.833 114.337C154.01 114.624 155.608 113.808 155.055 113.256C154.503 112.705 151.068 110.589 149.927 110.888Z" fill="white"/>
    <path d="M155.394 113.832C154.277 114.12 156.342 118.822 157.231 119.649C158.12 120.477 165.963 121.949 165.783 120.604C165.603 119.258 156.967 113.43 155.394 113.832Z" fill="white"/>
    <g style="mix-blend-mode:multiply" opacity="0.5">
        <path d="M151.899 190.314C150.914 194.418 151.07 196.843 151.623 196.866C152.175 196.889 172.126 185.37 172.678 184.887C173.231 184.405 169.471 181.082 167.874 181.312C166.276 181.542 152.308 188.75 151.899 190.314Z" fill="#DE5634"/>
    </g>
    <g style="mix-blend-mode:multiply" opacity="0.5">
        <path d="M95.9384 129.582C95.4579 128.203 93.9806 128.203 93.8364 129.755C93.6923 131.307 93.4761 159.897 94.0647 159.932C94.6532 159.966 95.8903 158.575 95.9384 157.92C95.9864 157.265 96.1666 130.238 95.9384 129.582Z" fill="#DE5634"/>
    </g>
    <g style="mix-blend-mode:multiply" opacity="0.5">
        <path d="M165.841 129.754C165.769 130.306 165.481 157.344 165.841 157.344C166.202 157.344 167.859 156.08 167.859 155.413C167.859 154.746 167.451 129.236 167.271 129.098C167.091 128.961 165.914 129.317 165.841 129.754Z" fill="#DE5634"/>
    </g>
    <g style="mix-blend-mode:multiply" opacity="0.5">
        <path d="M130.89 110.346C130.89 110.875 114.808 119.658 114.435 119.658C114.063 119.658 114.195 117.29 114.711 116.968C115.228 116.646 130.77 107.679 130.89 107.978C130.95 108.766 130.95 109.558 130.89 110.346Z" fill="#DE5634"/>
    </g>
    <path d="M164.078 181.496C163.057 181.496 159.586 183.393 159.85 184.336C160.114 185.278 162.252 186.301 162.793 185.75C163.333 185.198 164.751 181.519 164.078 181.496Z" fill="#B33114"/>
    <path d="M165.397 182.164C165.049 182.475 164.28 183.578 165.013 184.119C165.746 184.659 167.896 183.233 167.583 182.82C167.271 182.406 165.854 181.762 165.397 182.164Z" fill="#B33114"/>
    <g style="mix-blend-mode:multiply" opacity="0.5">
        <path d="M160.305 183.418C159.452 184.567 162.959 185.257 163.416 184.326C163.872 183.395 164.617 181.429 164.028 181.521C162.676 181.929 161.414 182.572 160.305 183.418Z" fill="#DE5634"/>
    </g>
    <path d="M159.859 184.061C160.096 184.704 160.564 185.246 161.18 185.59C162.009 186.049 162.706 185.946 162.91 185.59C162.708 185.819 162.43 185.976 162.122 186.035C161.814 186.093 161.495 186.05 161.216 185.911C159.547 185.187 159.859 184.061 159.859 184.061Z" fill="#DAE1EF"/>
    <g style="mix-blend-mode:multiply" opacity="0.5">
        <path d="M165.794 182.187C165.001 183.015 165.613 184.188 166.058 184.119C166.502 184.05 167.823 183.222 167.583 182.82C167.343 182.417 165.962 182.015 165.794 182.187Z" fill="#DE5634"/>
    </g>
    <path d="M165.399 182.162C165.399 182.162 164.678 183.116 164.967 183.668C165.255 184.22 165.675 184.22 165.675 184.22C165.675 184.22 164.726 184.749 164.558 184.128C164.258 183.07 165.399 182.162 165.399 182.162Z" fill="#DAE1EF"/>
    <path d="M126.195 110.049C123.793 109.429 121.751 110.958 120.67 112.13C119.589 113.303 120.19 113.993 121.547 113.763C122.904 113.533 127.228 110.314 126.195 110.049Z" fill="#B33114"/>
    <g style="mix-blend-mode:multiply" opacity="0.5">
        <path d="M126.195 110.049C125.419 109.901 124.618 109.921 123.851 110.108C123.084 110.295 122.37 110.644 121.763 111.13C121.102 111.682 122.399 113.28 123.3 112.935C124.201 112.59 126.951 110.302 126.195 110.049Z" fill="#DE5634"/>
    </g>
    <g style="mix-blend-mode:soft-light" opacity="0.4">
        <path d="M121.296 111.521C121.296 111.521 118.509 113.292 118.821 114.12C119.134 114.947 122.425 113.418 122.425 113.418C122.425 113.418 120.707 113.947 120.311 113.223C119.914 112.499 121.296 111.521 121.296 111.521Z" fill="#FFDF66"/>
    </g>
    <path d="M95.0993 179.807C93.8022 180.117 97.6697 182.658 98.5945 182.796C99.5194 182.934 98.5945 180.692 98.1621 180.301C97.2042 179.882 96.1479 179.712 95.0993 179.807Z" fill="white"/>
    <path d="M130.853 182.268L83.746 155.965C82.6389 158.424 81.8834 161.015 81.5 163.667L84.6349 168.633L130.913 194.362L177.119 168.633L179.906 163.667C179.821 161.025 179.252 158.418 178.224 155.965L130.853 182.268Z" fill="url(#paint43_linear_414_122)"/>
    <path d="M84.5748 168.632L81.5 163.666L130.853 191.337L179.918 163.666L177.131 168.632L130.853 194.36L84.5748 168.632Z" fill="url(#paint44_linear_414_122)"/>
    <g style="mix-blend-mode:multiply" opacity="0.5">
        <path d="M81.5 163.666L84.6349 168.632L85.3315 169.046V170.529C85.3315 170.529 87.9739 171.817 93.1626 174.564C93.3308 174.656 96.4176 177.772 96.4176 177.772C96.4176 177.772 129.76 197.062 130.961 197.062C132.511 197.062 165.589 177.346 165.589 177.346C165.589 177.346 168.171 175.277 168.423 175.128L176.591 171.035V168.977L177.203 168.632L179.99 163.666L130.853 191.337L81.5 163.666Z" fill="#DE5634"/>
    </g>
    <path style="mix-blend-mode:multiply" opacity="0.69" d="M130.855 182.268V191.35L179.92 163.679C179.791 161.042 179.224 158.442 178.239 155.977L130.855 182.268Z" fill="url(#paint45_linear_414_122)"/>
    <g style="mix-blend-mode:soft-light" opacity="0.4">
        <path d="M86.1737 157.953C85.2729 157.953 86.0056 165.598 88.7441 167.345C93.044 170.139 119.312 184.923 121.03 184.946C122.231 184.946 122.159 178.474 121.798 177.968C121.126 177.014 87.5189 157.953 86.1737 157.953Z" fill="#FFDF66"/>
    </g>
    <g style="mix-blend-mode:soft-light" opacity="0.4">
        <path d="M145.425 174.417C144.861 174.98 144.933 182.108 145.906 181.901C153.824 178.222 161.451 173.995 168.727 169.255C175.705 164.335 176.69 157.863 175.117 158.012C175.08 157.966 146.59 173.256 145.425 174.417Z" fill="#FFDF66"/>
    </g>
    <path d="M106.855 177.875C106.855 177.875 129.412 190.831 130.877 190.831C132.343 190.831 150.323 180.37 150.323 180.37C150.323 180.37 131.43 191.866 130.913 191.866C130.397 191.866 106.855 177.875 106.855 177.875Z" fill="white"/>
    <g style="mix-blend-mode:multiply" opacity="0.5">
        <path d="M113.871 108.037C113.699 108.886 113.599 109.747 113.57 110.612C113.678 111.014 116.837 115.52 116.837 115.52V118.555L131.01 131.258L145.027 119.038L145.652 116.061C145.652 116.061 148.786 111.313 148.786 110.669C148.786 110.025 145.892 106.898 145.892 106.898L130.89 98.6328L113.871 108.037Z" fill="#DE5634"/>
    </g>
    <path d="M147.526 109.555L147.454 109.452L131.179 88.069L131.095 88L131.011 88.115L114.748 109.452L114.676 109.555L114.748 109.647L131.011 131.03V131.259L131.095 131.145L131.191 131.259V131.03L147.454 109.647L147.526 109.555Z" fill="url(#paint46_linear_414_122)"/>
    <g style="mix-blend-mode:multiply" opacity="0.5">
        <path d="M118.074 109.555L131.094 92.4258L144.126 109.555L131.094 126.672L118.074 109.555Z" fill="#DE5634"/>
    </g>
    <path d="M118.758 109.557L131.093 93.3242L143.44 109.557L131.093 125.777L118.758 109.557Z" fill="url(#paint47_linear_414_122)"/>
    <g style="mix-blend-mode:soft-light" opacity="0.4">
        <path d="M130.902 89.1496C129.437 90.4486 115.552 108.486 115.865 108.98C116.177 109.475 121.57 109.486 131.983 109.371C142.397 109.256 146.697 109.268 146.793 108.98C146.889 108.693 131.167 88.8622 130.902 89.1496Z" fill="#FFDF66"/>
    </g>
    <path style="mix-blend-mode:multiply" opacity="0.37" d="M115.385 109.612C115.192 110.382 130.374 130.19 131.335 129.88C132.296 129.569 147.274 110.072 146.265 109.555C145.256 109.037 115.565 108.888 115.385 109.612Z" fill="url(#paint48_linear_414_122)"/>
    <g style="mix-blend-mode:multiply" opacity="0.5">
        <path d="M130.988 160.575L113.632 169.3L116.947 150.803L102.906 137.709L122.316 135.008L130.988 118.178L139.672 135.008L159.069 137.709L145.029 150.803L148.344 169.3L130.988 160.575Z" fill="#DE5634"/>
    </g>
    <path d="M157.037 138.342L147.681 137.043L145.122 136.675L139.045 135.836L130.985 120.225L122.938 135.836L104.934 138.342L117.965 150.494L114.891 167.657L130.985 159.552L147.092 167.657L144.017 150.494L157.037 138.342Z" fill="url(#paint49_linear_414_122)"/>
    <path style="mix-blend-mode:multiply" opacity="0.37" d="M104.852 138.342L131.372 144.975L117.871 150.493L104.852 138.342Z" fill="url(#paint50_linear_414_122)"/>
    <path style="mix-blend-mode:multiply" opacity="0.37" d="M156.954 138.342L131.371 144.975L143.923 150.493L156.954 138.342Z" fill="url(#paint51_linear_414_122)"/>
    <path style="mix-blend-mode:multiply" opacity="0.37" d="M130.904 159.552L131.372 144.975L114.797 167.656L130.904 159.552Z" fill="url(#paint52_linear_414_122)"/>
    <path style="mix-blend-mode:multiply" opacity="0.37" d="M146.997 167.656L131.371 144.975L130.902 159.552L146.997 167.656Z" fill="url(#paint53_linear_414_122)"/>
    <path style="mix-blend-mode:color-dodge" opacity="0.5" d="M130.902 120.225L131.371 144.976L138.95 135.836L130.902 120.225Z" fill="url(#paint54_linear_414_122)"/>
    <path style="mix-blend-mode:color-dodge" opacity="0.5" d="M156.954 138.34L131.371 144.973L138.95 135.834L156.954 138.34Z" fill="url(#paint55_linear_414_122)"/>
    <path style="mix-blend-mode:color-dodge" opacity="0.5" d="M156.954 138.34L131.371 144.973L138.95 135.834L156.954 138.34Z" fill="url(#paint56_linear_414_122)"/>
    <path style="mix-blend-mode:color-dodge" opacity="0.5" d="M122.844 135.834L131.372 144.973L104.852 138.34L122.844 135.834Z" fill="url(#paint57_linear_414_122)"/>
    <path d="M138.952 141.262C137.618 142.412 138.759 143.055 138.759 143.055L145.654 141.273C145.654 141.273 142.038 138.767 138.952 141.262Z" fill="white"/>
    <g style="mix-blend-mode:multiply" opacity="0.5">
        <path d="M114.891 167.655C114.891 167.655 127.106 162.149 130.985 160.608L147.092 167.655L130.985 159.551L114.891 167.655Z" fill="#DE5634"/>
    </g>
    <g style="mix-blend-mode:multiply" opacity="0.5">
        <path d="M104.852 138.342L131.372 144.975L116.802 156.965L104.852 138.342Z" fill="#DE5634"/>
    </g>
    <g style="mix-blend-mode:multiply" opacity="0.5">
        <path d="M156.954 138.342L131.371 144.975L145.46 158.563L156.954 138.342Z" fill="#DE5634"/>
    </g>
    <g style="mix-blend-mode:multiply" opacity="0.5">
        <path d="M114.891 167.656L131.37 144.975L147.092 167.656L130.985 165.219L114.891 167.656Z" fill="#DE5634"/>
    </g>
    <g style="mix-blend-mode:soft-light" opacity="0.4">
        <path d="M124.994 133.133C123.289 137.731 129.799 140.858 130.688 139.456C131.576 138.053 131.012 130.259 129.907 129.201C128.802 128.144 125.703 131.271 124.994 133.133Z" fill="#F7FFFF"/>
    </g>
    <g style="mix-blend-mode:soft-light" opacity="0.4">
        <path d="M119.659 156.425C123.13 156.873 125.064 153.091 125.796 150.493C126.973 146.309 113.353 155.609 119.659 156.425Z" fill="#F7FFFF"/>
    </g>
    <g style="mix-blend-mode:multiply" opacity="0.5">
        <path d="M130.892 114.119L126.184 116.487L127.085 111.463L123.277 107.911L128.538 107.187L130.892 102.611L133.246 107.187L138.507 107.911L134.7 111.463L135.601 116.487L130.892 114.119Z" fill="#DE5634"/>
    </g>
    <path d="M137.916 108.095L135.394 107.75L134.697 107.646L133.064 107.417L130.89 103.209L128.716 107.417L123.863 108.095L127.37 111.371L126.542 116.004L130.89 113.82L135.238 116.004L134.397 111.371L137.916 108.095Z" fill="url(#paint58_linear_414_122)"/>
    <path style="mix-blend-mode:multiply" opacity="0.37" d="M123.84 108.096L130.986 109.889L127.347 111.372L123.84 108.096Z" fill="url(#paint59_linear_414_122)"/>
    <path style="mix-blend-mode:multiply" opacity="0.37" d="M137.895 108.096L130.988 109.889L134.375 111.372L137.895 108.096Z" fill="url(#paint60_linear_414_122)"/>
    <path style="mix-blend-mode:multiply" opacity="0.37" d="M130.867 113.818L130.988 109.887L126.52 116.003L130.867 113.818Z" fill="url(#paint61_linear_414_122)"/>
    <path style="mix-blend-mode:multiply" opacity="0.37" d="M135.203 116.003L130.987 109.887L130.867 113.818L135.203 116.003Z" fill="url(#paint62_linear_414_122)"/>
    <path style="mix-blend-mode:color-dodge" opacity="0.5" d="M130.867 103.209L130.987 109.888L133.041 107.417L130.867 103.209Z" fill="url(#paint63_linear_414_122)"/>
    <path style="mix-blend-mode:color-dodge" opacity="0.5" d="M137.895 108.094L130.988 109.888L133.042 107.416L137.895 108.094Z" fill="url(#paint64_linear_414_122)"/>
    <path style="mix-blend-mode:color-dodge" opacity="0.5" d="M137.895 108.094L130.988 109.888L133.042 107.416L137.895 108.094Z" fill="url(#paint65_linear_414_122)"/>
    <path style="mix-blend-mode:color-dodge" opacity="0.5" d="M128.692 107.416L130.986 109.888L123.84 108.094L128.692 107.416Z" fill="url(#paint66_linear_414_122)"/>
    <path d="M133.039 108.888C132.679 109.176 133.039 109.371 133.039 109.371L134.901 108.888C134.635 108.69 134.307 108.582 133.97 108.582C133.633 108.582 133.305 108.69 133.039 108.888Z" fill="white"/>
    <g style="mix-blend-mode:multiply" opacity="0.5">
        <path d="M126.543 116.005C126.543 116.005 129.846 114.522 130.891 114.108L135.227 116.005L130.891 113.82L126.543 116.005Z" fill="#DE5634"/>
    </g>
    <g style="mix-blend-mode:multiply" opacity="0.5">
        <path d="M123.84 108.096L130.986 109.889L127.071 113.119L123.84 108.096Z" fill="#DE5634"/>
    </g>
    <g style="mix-blend-mode:multiply" opacity="0.5">
        <path d="M137.895 108.096L130.988 109.889L134.796 113.556L137.895 108.096Z" fill="#DE5634"/>
    </g>
    <g style="mix-blend-mode:multiply" opacity="0.5">
        <path d="M126.543 116.003L130.987 109.887L135.239 116.003L130.891 115.347L126.543 116.003Z" fill="#DE5634"/>
    </g>
    <g style="mix-blend-mode:soft-light" opacity="0.4">
        <path d="M129.271 106.694C128.814 107.924 130.568 108.774 130.808 108.395C131.007 107.475 130.937 106.52 130.604 105.636C130.28 105.349 129.463 106.199 129.271 106.694Z" fill="#F7FFFF"/>
    </g>
    <g style="mix-blend-mode:soft-light" opacity="0.4">
        <path d="M127.877 112.968C128.802 113.094 129.33 112.071 129.522 111.37C129.811 110.243 126.135 112.749 127.877 112.968Z" fill="#F7FFFF"/>
    </g>
    <path d="M102 2L112.087 17.7023C113.006 19.1343 114.591 20 116.293 20H145.707C147.409 20 148.994 19.1343 149.913 17.7023L160 2H102Z" fill="url(#paint67_linear_414_122)"/>
    <path d="M122.558 16L118.33 6.2H120.78L124.476 14.88H123.034L126.786 6.2H129.04L124.798 16H122.558ZM129.858 16V6.2H132.126V16H129.858ZM134.452 16V6.2H138.694C139.571 6.2 140.327 6.34467 140.962 6.634C141.597 6.914 142.087 7.32 142.432 7.852C142.777 8.384 142.95 9.01867 142.95 9.756C142.95 10.484 142.777 11.114 142.432 11.646C142.087 12.178 141.597 12.5887 140.962 12.878C140.327 13.158 139.571 13.298 138.694 13.298H135.712L136.72 12.276V16H134.452ZM136.72 12.528L135.712 11.45H138.568C139.268 11.45 139.791 11.3007 140.136 11.002C140.481 10.7033 140.654 10.288 140.654 9.756C140.654 9.21467 140.481 8.79467 140.136 8.496C139.791 8.19733 139.268 8.048 138.568 8.048H135.712L136.72 6.97V12.528Z" fill="white"/>
    <path d="M33.7498 20.544H35.7658L38.3038 31.128L40.8058 20.544H42.8218L39.5818 33H37.0258L33.7498 20.544ZM44.2269 33V20.544H46.1709V33H44.2269ZM48.3753 33V20.544H50.3193V33H48.3753ZM52.5238 33V20.544H54.4678V33H52.5238Z" fill="white"/>
    <g style="mix-blend-mode:overlay">
        <g style="mix-blend-mode:color-dodge">
            <path fill-rule="evenodd" clip-rule="evenodd" d="M19 12C19 6.47715 23.4771 2 29 2H231C236.523 2 241 6.47715 241 12V120.562C241 123.615 239.506 126.474 237 128.217V128.217C234.494 129.961 233 132.82 233 135.873V159V162V185.127C233 188.18 234.494 191.039 237 192.783V192.783C239.506 194.526 241 197.385 241 200.438V304C241 309.523 236.523 314 231 314H29C23.4772 314 19 309.523 19 304V202.182C19 198.908 20.6021 195.842 23.2894 193.973L24.7106 192.984C27.3979 191.115 29 188.048 29 184.775L29 162V159L29 136.225C29 132.952 27.3979 129.885 24.7107 128.016L23.2894 127.027C20.6021 125.158 19 122.092 19 118.818V12Z" fill="url(#paint68_linear_414_122)"/>
        </g>
    </g>
    <defs>
        <filter id="filter0_b_414_122" x="-6" y="-19" width="89" height="354.984" filterUnits="userSpaceOnUse" colorInterpolationFilters="sRGB">
            <feFlood floodOpacity="0" result="BackgroundImageFix"/>
            <feGaussianBlur in="BackgroundImageFix" stdDeviation="13"/>
            <feComposite in2="SourceAlpha" operator="in" result="effect1_backgroundBlur_414_122"/>
            <feBlend mode="normal" in="SourceGraphic" in2="effect1_backgroundBlur_414_122" result="shape"/>
        </filter>
        <filter id="filter1_b_414_122" x="177" y="-19" width="89" height="354.984" filterUnits="userSpaceOnUse" colorInterpolationFilters="sRGB">
            <feFlood floodOpacity="0" result="BackgroundImageFix"/>
            <feGaussianBlur in="BackgroundImageFix" stdDeviation="13"/>
            <feComposite in2="SourceAlpha" operator="in" result="effect1_backgroundBlur_414_122"/>
            <feBlend mode="normal" in="SourceGraphic" in2="effect1_backgroundBlur_414_122" result="shape"/>
        </filter>
        <filter id="filter2_i_414_122" x="17" y="0" width="226" height="320" filterUnits="userSpaceOnUse" colorInterpolationFilters="sRGB">
            <feFlood floodOpacity="0" result="BackgroundImageFix"/>
            <feBlend mode="normal" in="SourceGraphic" in2="BackgroundImageFix" result="shape"/>
            <feColorMatrix in="SourceAlpha" type="matrix" values="0 0 0 0 0 0 0 0 0 0 0 0 0 0 0 0 0 0 127 0" result="hardAlpha"/>
            <feOffset dy="5"/>
            <feGaussianBlur stdDeviation="2"/>
            <feComposite in2="hardAlpha" operator="arithmetic" k2="-1" k3="1"/>
            <feColorMatrix type="matrix" values="0 0 0 0 0 0 0 0 0 0 0 0 0 0 0 0 0 0 0.25 0"/>
            <feBlend mode="normal" in2="shape" result="effect1_innerShadow_414_122"/>
        </filter>
        <filter id="filter3_f_414_122" x="0" y="31" width="261" height="254" filterUnits="userSpaceOnUse" colorInterpolationFilters="sRGB">
            <feFlood floodOpacity="0" result="BackgroundImageFix"/>
            <feBlend mode="normal" in="SourceGraphic" in2="BackgroundImageFix" result="shape"/>
            <feGaussianBlur stdDeviation="37.5" result="effect1_foregroundBlur_414_122"/>
        </filter>
        <filter id="filter4_f_414_122" x="196.019" y="7.53866" width="37.4969" height="37.495" filterUnits="userSpaceOnUse" colorInterpolationFilters="sRGB">
            <feFlood floodOpacity="0" result="BackgroundImageFix"/>
            <feBlend mode="normal" in="SourceGraphic" in2="BackgroundImageFix" result="shape"/>
            <feGaussianBlur stdDeviation="1.092" result="effect1_foregroundBlur_414_122"/>
        </filter>
        <filter id="filter5_f_414_122" x="191.086" y="2.60897" width="47.3563" height="47.3543" filterUnits="userSpaceOnUse" colorInterpolationFilters="sRGB">
            <feFlood floodOpacity="0" result="BackgroundImageFix"/>
            <feBlend mode="normal" in="SourceGraphic" in2="BackgroundImageFix" result="shape"/>
            <feGaussianBlur stdDeviation="1.092" result="effect1_foregroundBlur_414_122"/>
        </filter>
        <filter id="filter6_f_414_122" x="191.086" y="2.60897" width="47.3563" height="47.3543" filterUnits="userSpaceOnUse" colorInterpolationFilters="sRGB">
            <feFlood floodOpacity="0" result="BackgroundImageFix"/>
            <feBlend mode="normal" in="SourceGraphic" in2="BackgroundImageFix" result="shape"/>
            <feGaussianBlur stdDeviation="1.092" result="effect1_foregroundBlur_414_122"/>
        </filter>
        <filter id="filter7_f_414_122" x="190.82" y="2.57186" width="37.4969" height="37.495" filterUnits="userSpaceOnUse" colorInterpolationFilters="sRGB">
            <feFlood floodOpacity="0" result="BackgroundImageFix"/>
            <feBlend mode="normal" in="SourceGraphic" in2="BackgroundImageFix" result="shape"/>
            <feGaussianBlur stdDeviation="1.092" result="effect1_foregroundBlur_414_122"/>
        </filter>
        <filter id="filter8_f_414_122" x="199.722" y="14.3902" width="37.3133" height="37.3114" filterUnits="userSpaceOnUse" colorInterpolationFilters="sRGB">
            <feFlood floodOpacity="0" result="BackgroundImageFix"/>
            <feBlend mode="normal" in="SourceGraphic" in2="BackgroundImageFix" result="shape"/>
            <feGaussianBlur stdDeviation="1.092" result="effect1_foregroundBlur_414_122"/>
        </filter>
        <linearGradient id="paint0_linear_414_122" x1="13" y1="296.561" x2="134.492" y2="0.902063" gradientUnits="userSpaceOnUse">
            <stop stop-color="#060913"/>
            <stop offset="0.136764" stop-color="#070A16"/>
            <stop offset="0.197268" stop-color="#0D142E"/>
            <stop offset="0.309253" stop-color="#070B17"/>
            <stop offset="0.490764" stop-color="#080C1A"/>
            <stop offset="0.661458" stop-color="#0B1125"/>
            <stop offset="1" stop-color="#101010"/>
        </linearGradient>
        <linearGradient id="paint1_linear_414_122" x1="43.5" y1="323.391" x2="109.599" y2="304.923" gradientUnits="userSpaceOnUse">
            <stop stop-color="#EECCA2"/>
            <stop offset="0.260417" stop-color="#624A2C"/>
            <stop offset="0.6875" stop-color="#FFDAAB"/>
            <stop offset="1" stop-color="#C68C43"/>
        </linearGradient>
        <linearGradient id="paint2_linear_414_122" x1="247" y1="20.4233" x2="125.508" y2="316.082" gradientUnits="userSpaceOnUse">
            <stop stop-color="#060913"/>
            <stop offset="0.136764" stop-color="#070A16"/>
            <stop offset="0.197268" stop-color="#0D142E"/>
            <stop offset="0.309253" stop-color="#070B17"/>
            <stop offset="0.490764" stop-color="#080C1A"/>
            <stop offset="0.661458" stop-color="#0B1125"/>
            <stop offset="1" stop-color="#101010"/>
        </linearGradient>
        <linearGradient id="paint3_linear_414_122" x1="216.5" y1="-6.40634" x2="150.401" y2="12.0615" gradientUnits="userSpaceOnUse">
            <stop stop-color="#EECCA2"/>
            <stop offset="0.260417" stop-color="#624A2C"/>
            <stop offset="0.6875" stop-color="#FFDAAB"/>
            <stop offset="1" stop-color="#C68C43"/>
        </linearGradient>
        <linearGradient id="paint4_linear_414_122" x1="184.5" y1="-25.5" x2="1.5" y2="349.5" gradientUnits="userSpaceOnUse">
            <stop stop-color="#C68C43"/>
            <stop offset="0.119792" stop-color="#F5BA6E"/>
            <stop offset="0.286458" stop-color="#C68C43"/>
            <stop offset="0.5625" stop-color="#C68C43"/>
            <stop offset="0.770833" stop-color="#EEB873"/>
            <stop offset="1" stop-color="#C68C43"/>
        </linearGradient>
        <linearGradient id="paint5_linear_414_122" x1="131.064" y1="154.818" x2="131.064" y2="-46.36" gradientUnits="userSpaceOnUse">
            <stop stop-color="#CA6B34"/>
            <stop offset="0.67" stop-color="#FFA933"/>
            <stop offset="1" stop-color="#FFBD2B"/>
        </linearGradient>
        <linearGradient id="paint6_linear_414_122" x1="80.9314" y1="47.9531" x2="80.9314" y2="91.3368" gradientUnits="userSpaceOnUse">
            <stop stop-color="#C10065"/>
            <stop offset="1" stop-color="white"/>
        </linearGradient>
        <linearGradient id="paint7_linear_414_122" x1="181.924" y1="47.9531" x2="181.924" y2="91.3368" gradientUnits="userSpaceOnUse">
            <stop stop-color="#C10065"/>
            <stop offset="1" stop-color="white"/>
        </linearGradient>
        <linearGradient id="paint8_linear_414_122" x1="100.251" y1="71.2324" x2="100.251" y2="151.651" gradientUnits="userSpaceOnUse">
            <stop stop-color="#C10065"/>
            <stop offset="1" stop-color="white"/>
        </linearGradient>
        <linearGradient id="paint9_linear_414_122" x1="161.393" y1="71.2324" x2="161.393" y2="151.651" gradientUnits="userSpaceOnUse">
            <stop stop-color="#C10065"/>
            <stop offset="1" stop-color="white"/>
        </linearGradient>
        <linearGradient id="paint10_linear_414_122" x1="139.171" y1="-4.27537" x2="150.065" y2="109.544" gradientUnits="userSpaceOnUse">
            <stop stop-color="#BFD7FF"/>
            <stop offset="1"/>
        </linearGradient>
        <linearGradient id="paint11_linear_414_122" x1="132.316" y1="54.8309" x2="231.532" y2="54.8309" gradientUnits="userSpaceOnUse">
            <stop stop-color="#BFD7FF"/>
            <stop offset="1"/>
        </linearGradient>
        <linearGradient id="paint12_linear_414_122" x1="173.696" y1="-7.45115" x2="184.673" y2="106.233" gradientUnits="userSpaceOnUse">
            <stop stop-color="#BFD7FF"/>
            <stop offset="1"/>
        </linearGradient>
        <linearGradient id="paint13_linear_414_122" x1="73.8992" y1="2.16332" x2="84.872" y2="115.848" gradientUnits="userSpaceOnUse">
            <stop stop-color="#BFD7FF"/>
            <stop offset="1"/>
        </linearGradient>
        <linearGradient id="paint14_linear_414_122" x1="79.0859" y1="188.291" x2="98.7839" y2="188.291" gradientUnits="userSpaceOnUse">
            <stop stop-color="#DE3C14"/>
            <stop offset="0.07" stop-color="#C72E10"/>
            <stop offset="0.19" stop-color="#AB1C0C"/>
            <stop offset="0.3" stop-color="#971009"/>
            <stop offset="0.41" stop-color="#8B0807"/>
            <stop offset="0.52" stop-color="#870606"/>
            <stop offset="0.62" stop-color="#8C0707"/>
            <stop offset="0.73" stop-color="#9A0808"/>
            <stop offset="0.85" stop-color="#B20B0B"/>
            <stop offset="0.97" stop-color="#D30E0E"/>
            <stop offset="1" stop-color="#DB0F0F"/>
        </linearGradient>
        <linearGradient id="paint15_linear_414_122" x1="79.0859" y1="187.43" x2="98.7839" y2="187.43" gradientUnits="userSpaceOnUse">
            <stop stop-color="#B41E2D"/>
            <stop offset="1" stop-color="#E54136"/>
        </linearGradient>
        <linearGradient id="paint16_linear_414_122" x1="162.215" y1="188.291" x2="181.913" y2="188.291" gradientUnits="userSpaceOnUse">
            <stop stop-color="#DE3C14"/>
            <stop offset="0.07" stop-color="#C72E10"/>
            <stop offset="0.19" stop-color="#AB1C0C"/>
            <stop offset="0.3" stop-color="#971009"/>
            <stop offset="0.41" stop-color="#8B0807"/>
            <stop offset="0.52" stop-color="#870606"/>
            <stop offset="0.62" stop-color="#8C0707"/>
            <stop offset="0.73" stop-color="#9A0808"/>
            <stop offset="0.85" stop-color="#B20B0B"/>
            <stop offset="0.97" stop-color="#D30E0E"/>
            <stop offset="1" stop-color="#DB0F0F"/>
        </linearGradient>
        <linearGradient id="paint17_linear_414_122" x1="162.216" y1="187.429" x2="181.914" y2="187.429" gradientUnits="userSpaceOnUse">
            <stop stop-color="#B41E2D"/>
            <stop offset="1" stop-color="#E54136"/>
        </linearGradient>
        <linearGradient id="paint18_linear_414_122" x1="95.6021" y1="210.021" x2="125.606" y2="210.021" gradientUnits="userSpaceOnUse">
            <stop stop-color="#DE3C14"/>
            <stop offset="0.07" stop-color="#C72E10"/>
            <stop offset="0.19" stop-color="#AB1C0C"/>
            <stop offset="0.3" stop-color="#971009"/>
            <stop offset="0.41" stop-color="#8B0807"/>
            <stop offset="0.52" stop-color="#870606"/>
            <stop offset="0.62" stop-color="#8C0707"/>
            <stop offset="0.73" stop-color="#9A0808"/>
            <stop offset="0.85" stop-color="#B20B0B"/>
            <stop offset="0.97" stop-color="#D30E0E"/>
            <stop offset="1" stop-color="#DB0F0F"/>
        </linearGradient>
        <linearGradient id="paint19_linear_414_122" x1="135.816" y1="210.021" x2="165.82" y2="210.021" gradientUnits="userSpaceOnUse">
            <stop stop-color="#DE3C14"/>
            <stop offset="0.07" stop-color="#C72E10"/>
            <stop offset="0.19" stop-color="#AB1C0C"/>
            <stop offset="0.3" stop-color="#971009"/>
            <stop offset="0.41" stop-color="#8B0807"/>
            <stop offset="0.52" stop-color="#870606"/>
            <stop offset="0.62" stop-color="#8C0707"/>
            <stop offset="0.73" stop-color="#9A0808"/>
            <stop offset="0.85" stop-color="#B20B0B"/>
            <stop offset="0.97" stop-color="#D30E0E"/>
            <stop offset="1" stop-color="#DB0F0F"/>
        </linearGradient>
        <linearGradient id="paint20_linear_414_122" x1="95.6021" y1="210.019" x2="125.606" y2="210.019" gradientUnits="userSpaceOnUse">
            <stop stop-color="#B41E2D"/>
            <stop offset="1" stop-color="#E54136"/>
        </linearGradient>
        <linearGradient id="paint21_linear_414_122" x1="135.816" y1="210.019" x2="165.82" y2="210.019" gradientUnits="userSpaceOnUse">
            <stop stop-color="#B41E2D"/>
            <stop offset="1" stop-color="#E54136"/>
        </linearGradient>
        <linearGradient id="paint22_linear_414_122" x1="175.879" y1="160.576" x2="175.871" y2="138.973" gradientUnits="userSpaceOnUse">
            <stop stop-color="#CA6B34"/>
            <stop offset="0.67" stop-color="#FFA933"/>
            <stop offset="1" stop-color="#FFBD2B"/>
        </linearGradient>
        <linearGradient id="paint23_linear_414_122" x1="188.652" y1="144.365" x2="202.813" y2="144.365" gradientUnits="userSpaceOnUse">
            <stop stop-color="#DE3C14"/>
            <stop offset="0.07" stop-color="#C72E10"/>
            <stop offset="0.19" stop-color="#AB1C0C"/>
            <stop offset="0.3" stop-color="#971009"/>
            <stop offset="0.41" stop-color="#8B0807"/>
            <stop offset="0.52" stop-color="#870606"/>
            <stop offset="0.62" stop-color="#8C0707"/>
            <stop offset="0.73" stop-color="#9A0808"/>
            <stop offset="0.85" stop-color="#B20B0B"/>
            <stop offset="0.97" stop-color="#D30E0E"/>
            <stop offset="1" stop-color="#DB0F0F"/>
        </linearGradient>
        <linearGradient id="paint24_linear_414_122" x1="101.539" y1="185.719" x2="101.435" y2="164.148" gradientUnits="userSpaceOnUse">
            <stop stop-color="#CA6B34"/>
            <stop offset="0.67" stop-color="#FFA933"/>
            <stop offset="1" stop-color="#FFBD2B"/>
        </linearGradient>
        <linearGradient id="paint25_linear_414_122" x1="58.4648" y1="144.41" x2="72.6258" y2="144.41" gradientUnits="userSpaceOnUse">
            <stop stop-color="#DE3C14"/>
            <stop offset="0.07" stop-color="#C72E10"/>
            <stop offset="0.19" stop-color="#AB1C0C"/>
            <stop offset="0.3" stop-color="#971009"/>
            <stop offset="0.41" stop-color="#8B0807"/>
            <stop offset="0.52" stop-color="#870606"/>
            <stop offset="0.62" stop-color="#8C0707"/>
            <stop offset="0.73" stop-color="#9A0808"/>
            <stop offset="0.85" stop-color="#B20B0B"/>
            <stop offset="0.97" stop-color="#D30E0E"/>
            <stop offset="1" stop-color="#DB0F0F"/>
        </linearGradient>
        <linearGradient id="paint26_linear_414_122" x1="183.184" y1="146.942" x2="183.186" y2="125.344" gradientUnits="userSpaceOnUse">
            <stop stop-color="#CA6B34"/>
            <stop offset="0.67" stop-color="#FFA933"/>
            <stop offset="1" stop-color="#FFBD2B"/>
        </linearGradient>
        <linearGradient id="paint27_linear_414_122" x1="196.352" y1="130.754" x2="210.524" y2="130.754" gradientUnits="userSpaceOnUse">
            <stop stop-color="#DE3C14"/>
            <stop offset="0.07" stop-color="#C72E10"/>
            <stop offset="0.19" stop-color="#AB1C0C"/>
            <stop offset="0.3" stop-color="#971009"/>
            <stop offset="0.41" stop-color="#8B0807"/>
            <stop offset="0.52" stop-color="#870606"/>
            <stop offset="0.62" stop-color="#8C0707"/>
            <stop offset="0.73" stop-color="#9A0808"/>
            <stop offset="0.85" stop-color="#B20B0B"/>
            <stop offset="0.97" stop-color="#D30E0E"/>
            <stop offset="1" stop-color="#DB0F0F"/>
        </linearGradient>
        <linearGradient id="paint28_linear_414_122" x1="93.7563" y1="172.142" x2="93.6433" y2="150.577" gradientUnits="userSpaceOnUse">
            <stop stop-color="#CA6B34"/>
            <stop offset="0.67" stop-color="#FFA933"/>
            <stop offset="1" stop-color="#FFBD2B"/>
        </linearGradient>
        <linearGradient id="paint29_linear_414_122" x1="50.668" y1="130.801" x2="64.8409" y2="130.801" gradientUnits="userSpaceOnUse">
            <stop stop-color="#DE3C14"/>
            <stop offset="0.07" stop-color="#C72E10"/>
            <stop offset="0.19" stop-color="#AB1C0C"/>
            <stop offset="0.3" stop-color="#971009"/>
            <stop offset="0.41" stop-color="#8B0807"/>
            <stop offset="0.52" stop-color="#870606"/>
            <stop offset="0.62" stop-color="#8C0707"/>
            <stop offset="0.73" stop-color="#9A0808"/>
            <stop offset="0.85" stop-color="#B20B0B"/>
            <stop offset="0.97" stop-color="#D30E0E"/>
            <stop offset="1" stop-color="#DB0F0F"/>
        </linearGradient>
        <linearGradient id="paint30_linear_414_122" x1="104.575" y1="111.704" x2="104.575" y2="134.075" gradientUnits="userSpaceOnUse">
            <stop stop-color="#C10065"/>
            <stop offset="1" stop-color="white"/>
        </linearGradient>
        <linearGradient id="paint31_linear_414_122" x1="156.845" y1="111.704" x2="156.845" y2="134.075" gradientUnits="userSpaceOnUse">
            <stop stop-color="#C10065"/>
            <stop offset="1" stop-color="white"/>
        </linearGradient>
        <linearGradient id="paint32_linear_414_122" x1="74.7143" y1="178.368" x2="74.7143" y2="154.514" gradientUnits="userSpaceOnUse">
            <stop stop-color="#CA6B34"/>
            <stop offset="0.67" stop-color="#FFA933"/>
            <stop offset="1" stop-color="#FFBD2B"/>
        </linearGradient>
        <linearGradient id="paint33_linear_414_122" x1="77.6099" y1="165.529" x2="77.6099" y2="176.669" gradientUnits="userSpaceOnUse">
            <stop stop-color="#C10065"/>
            <stop offset="1" stop-color="white"/>
        </linearGradient>
        <linearGradient id="paint34_linear_414_122" x1="186.718" y1="178.368" x2="186.718" y2="154.514" gradientUnits="userSpaceOnUse">
            <stop stop-color="#CA6B34"/>
            <stop offset="0.67" stop-color="#FFA933"/>
            <stop offset="1" stop-color="#FFBD2B"/>
        </linearGradient>
        <linearGradient id="paint35_linear_414_122" x1="183.811" y1="165.529" x2="183.811" y2="176.669" gradientUnits="userSpaceOnUse">
            <stop stop-color="#C10065"/>
            <stop offset="1" stop-color="white"/>
        </linearGradient>
        <linearGradient id="paint36_linear_414_122" x1="130.891" y1="211.121" x2="130.891" y2="116.291" gradientUnits="userSpaceOnUse">
            <stop stop-color="#CA6B34"/>
            <stop offset="0.67" stop-color="#FFA933"/>
            <stop offset="1" stop-color="#FFBD2B"/>
        </linearGradient>
        <linearGradient id="paint37_linear_414_122" x1="130.89" y1="99.6108" x2="130.89" y2="194.936" gradientUnits="userSpaceOnUse">
            <stop stop-color="#CA6B34"/>
            <stop offset="0.17" stop-color="#CC6E34"/>
            <stop offset="0.29" stop-color="#D27733"/>
            <stop offset="0.39" stop-color="#DB8631"/>
            <stop offset="0.48" stop-color="#E99B2F"/>
            <stop offset="0.57" stop-color="#FBB72C"/>
            <stop offset="0.59" stop-color="#FFBD2B"/>
            <stop offset="1" stop-color="#FFA933"/>
        </linearGradient>
        <linearGradient id="paint38_linear_414_122" x1="130.889" y1="197.063" x2="130.889" y2="110.797" gradientUnits="userSpaceOnUse">
            <stop stop-color="#B75014"/>
            <stop offset="0.38" stop-color="#E8692A"/>
            <stop offset="1" stop-color="#F58E2F"/>
        </linearGradient>
        <linearGradient id="paint39_linear_414_122" x1="89.3426" y1="156.966" x2="89.3426" y2="182.981" gradientUnits="userSpaceOnUse">
            <stop stop-color="#C10065"/>
            <stop offset="1" stop-color="white"/>
        </linearGradient>
        <linearGradient id="paint40_linear_414_122" x1="172.257" y1="156.966" x2="172.257" y2="182.981" gradientUnits="userSpaceOnUse">
            <stop stop-color="#C10065"/>
            <stop offset="1" stop-color="white"/>
        </linearGradient>
        <linearGradient id="paint41_linear_414_122" x1="108.971" y1="180.739" x2="108.971" y2="207.628" gradientUnits="userSpaceOnUse">
            <stop stop-color="#C10065"/>
            <stop offset="1" stop-color="white"/>
        </linearGradient>
        <linearGradient id="paint42_linear_414_122" x1="152.811" y1="180.75" x2="152.811" y2="208.156" gradientUnits="userSpaceOnUse">
            <stop stop-color="#C10065"/>
            <stop offset="1" stop-color="white"/>
        </linearGradient>
        <linearGradient id="paint43_linear_414_122" x1="130.709" y1="117.2" x2="130.709" y2="185.935" gradientUnits="userSpaceOnUse">
            <stop stop-color="#CA6B34"/>
            <stop offset="0.67" stop-color="#FFA933"/>
            <stop offset="1" stop-color="#FFBD2B"/>
        </linearGradient>
        <linearGradient id="paint44_linear_414_122" x1="130.709" y1="194.36" x2="130.709" y2="163.666" gradientUnits="userSpaceOnUse">
            <stop stop-color="#F1CB3C"/>
            <stop offset="1" stop-color="#FFC14F"/>
        </linearGradient>
        <linearGradient id="paint45_linear_414_122" x1="155.394" y1="155.965" x2="155.394" y2="191.338" gradientUnits="userSpaceOnUse">
            <stop stop-color="#C10065"/>
            <stop offset="1" stop-color="white"/>
        </linearGradient>
        <linearGradient id="paint46_linear_414_122" x1="131.095" y1="130.317" x2="131.095" y2="92.334" gradientUnits="userSpaceOnUse">
            <stop stop-color="#CA6B34"/>
            <stop offset="0.67" stop-color="#FFA933"/>
            <stop offset="1" stop-color="#FFBD2B"/>
        </linearGradient>
        <linearGradient id="paint47_linear_414_122" x1="118.758" y1="109.557" x2="143.44" y2="109.557" gradientUnits="userSpaceOnUse">
            <stop stop-color="#DE3C14"/>
            <stop offset="0.07" stop-color="#C72E10"/>
            <stop offset="0.19" stop-color="#AB1C0C"/>
            <stop offset="0.3" stop-color="#971009"/>
            <stop offset="0.41" stop-color="#8B0807"/>
            <stop offset="0.52" stop-color="#870606"/>
            <stop offset="0.62" stop-color="#8C0707"/>
            <stop offset="0.73" stop-color="#9A0808"/>
            <stop offset="0.85" stop-color="#B20B0B"/>
            <stop offset="0.97" stop-color="#D30E0E"/>
            <stop offset="1" stop-color="#DB0F0F"/>
        </linearGradient>
        <linearGradient id="paint48_linear_414_122" x1="130.855" y1="109.118" x2="130.855" y2="129.88" gradientUnits="userSpaceOnUse">
            <stop stop-color="#C10065"/>
            <stop offset="1" stop-color="white"/>
        </linearGradient>
        <linearGradient id="paint49_linear_414_122" x1="130.985" y1="168.542" x2="130.985" y2="112.177" gradientUnits="userSpaceOnUse">
            <stop stop-color="#CA6B34"/>
            <stop offset="0.67" stop-color="#FFA933"/>
            <stop offset="1" stop-color="#FFBD2B"/>
        </linearGradient>
        <linearGradient id="paint50_linear_414_122" x1="118.112" y1="138.342" x2="118.112" y2="150.493" gradientUnits="userSpaceOnUse">
            <stop stop-color="#C10065"/>
            <stop offset="1" stop-color="white"/>
        </linearGradient>
        <linearGradient id="paint51_linear_414_122" x1="144.163" y1="138.342" x2="144.163" y2="150.493" gradientUnits="userSpaceOnUse">
            <stop stop-color="#C10065"/>
            <stop offset="1" stop-color="white"/>
        </linearGradient>
        <linearGradient id="paint52_linear_414_122" x1="123.084" y1="144.975" x2="123.084" y2="167.656" gradientUnits="userSpaceOnUse">
            <stop stop-color="#C10065"/>
            <stop offset="1" stop-color="white"/>
        </linearGradient>
        <linearGradient id="paint53_linear_414_122" x1="138.95" y1="144.975" x2="138.95" y2="167.656" gradientUnits="userSpaceOnUse">
            <stop stop-color="#C10065"/>
            <stop offset="1" stop-color="white"/>
        </linearGradient>
        <linearGradient id="paint54_linear_414_122" x1="133.281" y1="123.949" x2="136.585" y2="155.606" gradientUnits="userSpaceOnUse">
            <stop stop-color="#BFD7FF"/>
            <stop offset="1"/>
        </linearGradient>
        <linearGradient id="paint55_linear_414_122" x1="131.371" y1="140.409" x2="156.954" y2="140.409" gradientUnits="userSpaceOnUse">
            <stop stop-color="#BFD7FF"/>
            <stop offset="1"/>
        </linearGradient>
        <linearGradient id="paint56_linear_414_122" x1="142.037" y1="123.027" x2="145.341" y2="154.684" gradientUnits="userSpaceOnUse">
            <stop stop-color="#BFD7FF"/>
            <stop offset="1"/>
        </linearGradient>
        <linearGradient id="paint57_linear_414_122" x1="116.286" y1="125.717" x2="119.59" y2="157.374" gradientUnits="userSpaceOnUse">
            <stop stop-color="#BFD7FF"/>
            <stop offset="1"/>
        </linearGradient>
        <linearGradient id="paint58_linear_414_122" x1="130.89" y1="116.245" x2="130.89" y2="101.048" gradientUnits="userSpaceOnUse">
            <stop stop-color="#CA6B34"/>
            <stop offset="0.67" stop-color="#FFA933"/>
            <stop offset="1" stop-color="#FFBD2B"/>
        </linearGradient>
        <linearGradient id="paint59_linear_414_122" x1="127.419" y1="108.096" x2="127.419" y2="111.372" gradientUnits="userSpaceOnUse">
            <stop stop-color="#C10065"/>
            <stop offset="1" stop-color="white"/>
        </linearGradient>
        <linearGradient id="paint60_linear_414_122" x1="134.447" y1="108.096" x2="134.447" y2="111.372" gradientUnits="userSpaceOnUse">
            <stop stop-color="#C10065"/>
            <stop offset="1" stop-color="white"/>
        </linearGradient>
        <linearGradient id="paint61_linear_414_122" x1="128.754" y1="109.887" x2="128.754" y2="116.003" gradientUnits="userSpaceOnUse">
            <stop stop-color="#C10065"/>
            <stop offset="1" stop-color="white"/>
        </linearGradient>
        <linearGradient id="paint62_linear_414_122" x1="133.041" y1="109.887" x2="133.041" y2="116.003" gradientUnits="userSpaceOnUse">
            <stop stop-color="#C10065"/>
            <stop offset="1" stop-color="white"/>
        </linearGradient>
        <linearGradient id="paint63_linear_414_122" x1="131.504" y1="104.221" x2="132.396" y2="112.759" gradientUnits="userSpaceOnUse">
            <stop stop-color="#BFD7FF"/>
            <stop offset="1"/>
        </linearGradient>
        <linearGradient id="paint64_linear_414_122" x1="130.988" y1="108.658" x2="137.895" y2="108.658" gradientUnits="userSpaceOnUse">
            <stop stop-color="#BFD7FF"/>
            <stop offset="1"/>
        </linearGradient>
        <linearGradient id="paint65_linear_414_122" x1="133.871" y1="103.967" x2="134.763" y2="112.506" gradientUnits="userSpaceOnUse">
            <stop stop-color="#BFD7FF"/>
            <stop offset="1"/>
        </linearGradient>
        <linearGradient id="paint66_linear_414_122" x1="126.927" y1="104.691" x2="127.819" y2="113.23" gradientUnits="userSpaceOnUse">
            <stop stop-color="#BFD7FF"/>
            <stop offset="1"/>
        </linearGradient>
        <linearGradient id="paint67_linear_414_122" x1="148.5" y1="-0.5" x2="104" y2="22.5" gradientUnits="userSpaceOnUse">
            <stop stop-color="#C68C43"/>
            <stop offset="0.119792" stop-color="#F5BA6E"/>
            <stop offset="0.286458" stop-color="#C68C43"/>
            <stop offset="0.5625" stop-color="#C68C43"/>
            <stop offset="0.770833" stop-color="#EEB873"/>
            <stop offset="1" stop-color="#C68C43"/>
        </linearGradient>
        <linearGradient id="paint68_linear_414_122" x1="84.5" y1="60.5" x2="32.0032" y2="111.503" gradientUnits="userSpaceOnUse">
            <stop stop-color="white" stop-opacity="0"/>
            <stop offset="0.440223" stop-color="white"/>
            <stop offset="1" stop-color="white" stop-opacity="0"/>
        </linearGradient>
    </defs>
</svg>
