<svg width="261" height="316" viewBox="0 0 261 316" fill="none" xmlns="http://www.w3.org/2000/svg">
<g filter="url(#filter0_b_6297_50507)">
<path d="M25 309.983C22.2386 309.983 20 307.745 20 304.983L20 11.9998C20 9.2384 22.2386 6.99982 25 6.99982L57 6.99982L57 309.983L25 309.983Z" fill="url(#paint0_linear_6297_50507)"/>
<path d="M25 308.983C22.7909 308.983 21 307.193 21 304.983L21 11.9998C21 9.79068 22.7908 7.99982 25 7.99982L56 7.99982L56 308.983L25 308.983Z" stroke="url(#paint1_linear_6297_50507)" stroke-width="2"/>
</g>
<g filter="url(#filter1_b_6297_50507)">
<path d="M235 7C237.761 7 240 9.23858 240 12L240 304.984C240 307.745 237.761 309.984 235 309.984L203 309.984L203 7L235 7Z" fill="url(#paint2_linear_6297_50507)"/>
<path d="M235 8C237.209 8 239 9.79086 239 12L239 304.984C239 307.193 237.209 308.984 235 308.984L204 308.984L204 8L235 8Z" stroke="url(#paint3_linear_6297_50507)" stroke-width="2"/>
</g>
<mask id="path-5-inside-1_6297_50507" fill="white">
<path fill-rule="evenodd" clip-rule="evenodd" d="M17 10C17 4.47715 21.4772 0 27 0H233C238.523 0 243 4.47715 243 10V116.123C243 119.396 241.398 122.462 238.711 124.332L236.289 126.016C233.602 127.885 232 130.952 232 134.225V157V160V182.775C232 186.048 233.602 189.115 236.289 190.984L238.711 192.668C241.398 194.538 243 197.604 243 200.877V306C243 311.523 238.523 316 233 316H27C21.4772 316 17 311.523 17 306V200.877C17 197.604 18.6021 194.538 21.2894 192.668L23.7106 190.984C26.3979 189.115 28 186.048 28 182.775L28 160V157L28 134.225C28 130.952 26.3979 127.885 23.7106 126.016L21.2894 124.332C18.6021 122.462 17 119.396 17 116.123V10Z"/>
</mask>
<g filter="url(#filter2_i_6297_50507)">
<path fill-rule="evenodd" clip-rule="evenodd" d="M17 10C17 4.47715 21.4772 0 27 0H233C238.523 0 243 4.47715 243 10V116.123C243 119.396 241.398 122.462 238.711 124.332L236.289 126.016C233.602 127.885 232 130.952 232 134.225V157V160V182.775C232 186.048 233.602 189.115 236.289 190.984L238.711 192.668C241.398 194.538 243 197.604 243 200.877V306C243 311.523 238.523 316 233 316H27C21.4772 316 17 311.523 17 306V200.877C17 197.604 18.6021 194.538 21.2894 192.668L23.7106 190.984C26.3979 189.115 28 186.048 28 182.775L28 160V157L28 134.225C28 130.952 26.3979 127.885 23.7106 126.016L21.2894 124.332C18.6021 122.462 17 119.396 17 116.123V10Z" fill="#090E1C"/>
</g>
<path d="M28 160H30H28ZM28 157H26H28ZM21.2894 124.332L22.4315 122.69L21.2894 124.332ZM21.2894 192.668L20.1472 191.026L21.2894 192.668ZM238.711 192.668L237.569 194.31L238.711 192.668ZM23.7106 126.016L22.5685 127.658L23.7106 126.016ZM236.289 126.016L235.147 124.374L236.289 126.016ZM238.711 124.332L239.853 125.974L238.711 124.332ZM236.289 190.984L237.431 189.342L236.289 190.984ZM23.7106 190.984L24.8528 192.626L23.7106 190.984ZM233 -2H27V2H233V-2ZM245 116.123V10H241V116.123H245ZM237.431 127.658L239.853 125.974L237.569 122.69L235.147 124.374L237.431 127.658ZM234 157V134.225H230V157H234ZM234 160V157H230V160H234ZM234 182.775V160H230V182.775H234ZM239.853 191.026L237.431 189.342L235.147 192.626L237.569 194.31L239.853 191.026ZM245 306V200.877H241V306H245ZM27 318H233V314H27V318ZM15 200.877V306H19V200.877H15ZM22.4315 194.31L24.8528 192.626L22.5685 189.342L20.1472 191.026L22.4315 194.31ZM30 182.775L30 160H26L26 182.775H30ZM30 160V157H26V160H30ZM30 157L30 134.225H26L26 157H30ZM24.8528 124.374L22.4315 122.69L20.1472 125.974L22.5685 127.658L24.8528 124.374ZM15 10V116.123H19V10H15ZM22.4315 122.69C20.2817 121.194 19 118.741 19 116.123H15C15 120.051 16.9226 123.73 20.1472 125.974L22.4315 122.69ZM19 200.877C19 198.259 20.2817 195.806 22.4315 194.31L20.1472 191.026C16.9226 193.27 15 196.949 15 200.877H19ZM27 314C22.5817 314 19 310.418 19 306H15C15 312.627 20.3726 318 27 318V314ZM241 306C241 310.418 237.418 314 233 314V318C239.627 318 245 312.627 245 306H241ZM237.569 194.31C239.718 195.806 241 198.259 241 200.877H245C245 196.949 243.077 193.27 239.853 191.026L237.569 194.31ZM30 134.225C30 130.297 28.0774 126.618 24.8528 124.374L22.5685 127.658C24.7183 129.153 26 131.606 26 134.225H30ZM235.147 124.374C231.923 126.618 230 130.297 230 134.225H234C234 131.606 235.282 129.153 237.431 127.658L235.147 124.374ZM241 116.123C241 118.741 239.718 121.194 237.569 122.69L239.853 125.974C243.077 123.73 245 120.051 245 116.123H241ZM230 182.775C230 186.703 231.923 190.382 235.147 192.626L237.431 189.342C235.282 187.847 234 185.394 234 182.775H230ZM27 -2C20.3726 -2 15 3.37258 15 10H19C19 5.58172 22.5817 2 27 2V-2ZM24.8528 192.626C28.0774 190.382 30 186.703 30 182.775H26C26 185.394 24.7183 187.847 22.5685 189.342L24.8528 192.626ZM233 2C237.418 2 241 5.58172 241 10H245C245 3.37258 239.627 -2 233 -2V2Z" fill="url(#paint4_linear_6297_50507)" mask="url(#path-5-inside-1_6297_50507)"/>
<mask id="mask0_6297_50507" style="mask-type:alpha" maskUnits="userSpaceOnUse" x="19" y="2" width="222" height="312">
<path fill-rule="evenodd" clip-rule="evenodd" d="M19 12C19 6.47715 23.4771 2 29 2H231C236.523 2 241 6.47715 241 12V116.602C241 119.867 239.406 122.927 236.73 124.798L234.465 126.382C231.789 128.253 230.195 131.312 230.195 134.577V157.013V159.975V182.41C230.195 185.675 231.789 188.735 234.465 190.606L236.73 192.19C239.406 194.061 241 197.12 241 200.385V304C241 309.523 236.523 314 231 314H29C23.4772 314 19 309.523 19 304V200.386C19 197.121 20.5939 194.062 23.2697 192.191L25.537 190.606C28.2127 188.735 29.8066 185.675 29.8066 182.41L29.8066 157.013L29.8066 134.577C29.8066 131.312 28.2127 128.253 25.537 126.382L23.2697 124.796C20.5939 122.925 19 119.866 19 116.601V12Z" fill="#090E1C"/>
</mask>
<g mask="url(#mask0_6297_50507)">
<rect x="18" y="317" width="317" height="113" transform="rotate(-90 18 317)" fill="#060911"/>
<g opacity="0.2">
<g style="mix-blend-mode:multiply" opacity="0.5">
<path d="M130.5 126.965L62.8558 158L75.7902 92.1373L21 45.5139L96.6779 35.8943L130.5 -24L164.322 35.8943L240 45.5139L185.29 92.1373L198.225 158L130.5 126.965Z" fill="#DE5634"/>
</g>
<path d="M232.739 47.0166L196.168 42.3724L186.202 41.1058L162.491 38.08L131.064 -17.6504L99.6369 38.08L29.4688 47.0166L80.2663 90.3625L68.2903 151.652L131.064 122.731L193.918 151.652L181.942 90.3625L232.739 47.0166Z" fill="url(#paint5_linear_6297_50507)"/>
<path style="mix-blend-mode:multiply" opacity="0.37" d="M29.4688 47.9531L132.314 71.6874L80.0524 91.3368L29.4688 47.9531Z" fill="url(#paint6_linear_6297_50507)"/>
<path style="mix-blend-mode:multiply" opacity="0.37" d="M231.532 47.9531L132.316 71.6874L181.045 91.3368L231.532 47.9531Z" fill="url(#paint7_linear_6297_50507)"/>
<path style="mix-blend-mode:multiply" opacity="0.37" d="M130.56 122.911L132.315 71.2334L68.1875 151.652L130.56 122.911Z" fill="url(#paint8_linear_6297_50507)"/>
<path style="mix-blend-mode:multiply" opacity="0.37" d="M192.812 151.652L131.667 71.2334L129.895 122.911L192.812 151.652Z" fill="url(#paint9_linear_6297_50507)"/>
<path style="mix-blend-mode:color-dodge" opacity="0.5" d="M129.895 -17.6504L131.669 71.2333L161.353 38.3973L129.895 -17.6504Z" fill="url(#paint10_linear_6297_50507)"/>
<path style="mix-blend-mode:color-dodge" opacity="0.5" d="M231.532 47.4079L132.316 71.232L161.714 38.4297L231.532 47.4079Z" fill="url(#paint11_linear_6297_50507)"/>
<path style="mix-blend-mode:color-dodge" opacity="0.5" d="M231.532 47.4079L132.316 71.232L161.714 38.4297L231.532 47.4079Z" fill="url(#paint12_linear_6297_50507)"/>
<path style="mix-blend-mode:color-dodge" opacity="0.5" d="M99.3109 38.4297L132.314 71.232L29.4688 47.4079L99.3109 38.4297Z" fill="url(#paint13_linear_6297_50507)"/>
<path d="M161.517 57.8466C156.225 61.4331 160.703 63.824 160.703 63.824L187.972 57.8466C184.14 55.5433 179.504 54.3008 174.744 54.3008C169.984 54.3008 165.349 55.5433 161.517 57.8466Z" fill="white"/>
<g style="mix-blend-mode:multiply" opacity="0.5">
<path d="M68.1875 151.652C68.1875 151.652 115.848 131.949 131.064 126.53L194.022 151.652L131.064 123.082L68.1875 151.652Z" fill="#DE5634"/>
</g>
<g style="mix-blend-mode:soft-light" opacity="0.4">
<path d="M106.823 28.6756C100.035 44.7466 125.962 55.9476 129.397 51.008C132.832 46.0685 130.706 18.5182 126.371 14.8309C122.036 11.1436 109.604 22.1359 106.823 28.6756Z" fill="#F7FFFF"/>
</g>
<g style="mix-blend-mode:soft-light" opacity="0.4">
<path d="M86.6799 112.366C99.9748 114.005 107.37 100.325 110.28 90.992C114.607 75.8164 62.6075 109.801 86.6799 112.366Z" fill="#F7FFFF"/>
</g>
</g>
</g>
<g filter="url(#filter3_f_6297_50507)">
<ellipse cx="130.5" cy="158" rx="55.5" ry="52" fill="#FF5C00"/>
</g>
<rect x="202" y="13" width="26" height="26" rx="13" fill="#151C30"/>
<rect x="202.5" y="13.5" width="25" height="25" rx="12.5" stroke="#C68C43"/>
<g style="mix-blend-mode:soft-light">
<mask id="mask1_6297_50507" style="mask-type:alpha" maskUnits="userSpaceOnUse" x="202" y="13" width="26" height="26">
<rect x="202" y="13" width="26" height="26" rx="13" fill="#101520"/>
</mask>
<g mask="url(#mask1_6297_50507)">
<g filter="url(#filter4_f_6297_50507)">
<path d="M198.387 42.6662L231.147 9.90625" stroke="white" stroke-width="0.52"/>
</g>
<g filter="url(#filter5_f_6297_50507)">
<path d="M193.73 47.32L235.798 5.25195" stroke="white" stroke-width="1.3"/>
</g>
<g filter="url(#filter6_f_6297_50507)">
<path d="M193.73 47.32L235.798 5.25195" stroke="white" stroke-width="1.3"/>
</g>
<g opacity="0.5" filter="url(#filter7_f_6297_50507)">
<path d="M193.188 37.7004L225.947 4.94043" stroke="white" stroke-width="0.52"/>
</g>
<g opacity="0.5" filter="url(#filter8_f_6297_50507)">
<path d="M202 49.426L234.76 16.666" stroke="white" stroke-width="0.26"/>
</g>
</g>
</g>
<path d="M218.353 29.3318C217.693 29.8351 216.932 29.9562 216.932 29.9562C217.47 29.5645 218.51 28.4642 217.907 27.2708C217.304 26.0773 215.001 25.3037 215.001 25.3037C215.001 25.3037 212.699 26.0777 212.094 27.2708C211.49 28.4638 212.531 29.5645 213.07 29.9562C213.07 29.9562 212.308 29.8347 211.649 29.3314C211.649 29.3314 210.033 30.7485 209.848 32.3897C209.848 32.3897 211.324 31.2989 215.001 31.2989C218.678 31.2989 220.155 32.3897 220.155 32.3897C219.968 30.7489 218.353 29.3318 218.353 29.3318ZM215.271 29.3224L215.001 29.7701L214.732 29.3224C212.996 29.192 212.68 27.8959 212.68 27.8959L213.543 27.3926L213.309 26.9825L214.999 28.0079L216.692 26.9825L216.458 27.3926L217.321 27.8959C217.321 27.8959 217.006 29.192 215.27 29.3224H215.271Z" fill="white"/>
<path d="M219.754 20.8241C219.754 20.8241 221.275 21.0005 222 21.7347C222 21.7347 220.877 19.6348 218.5 19.6348C216.123 19.6348 215 20.9263 215 20.9263C215 20.9263 213.877 19.6348 211.5 19.6348C209.124 19.6348 208 21.7347 208 21.7347C208.724 21.0005 210.247 20.8241 210.247 20.8241C209.04 21.1781 208.11 22.6196 208.121 24.3463C208.131 26.0731 208.798 27.3101 209.458 27.4689C210.117 27.6278 210.469 26.9951 211.454 26.0638C212.438 25.1325 213.44 24.9861 213.44 24.9861C212.447 24.5399 211.788 24.8003 211.128 25.0138C210.469 25.2273 209.931 25.3019 209.55 24.531C209.17 23.7601 209.894 22.9143 209.894 22.9143C209.485 22.9794 209.096 23.3046 209.096 23.3046C209.467 22.4217 209.94 22.1801 210.711 22.1523C211.481 22.1246 211.834 22.3288 212.642 22.7843C213.449 23.2398 214.155 23.7691 214.573 23.4252C214.991 23.0813 214.369 21.9201 214.369 21.9201C214.824 22.2175 215 22.8397 215 22.8397C215 22.8397 215.177 22.2175 215.631 21.9201C215.631 21.9201 215.007 23.0813 215.427 23.4252C215.847 23.7691 216.551 23.2394 217.358 22.7843C218.166 22.3292 218.519 22.1246 219.289 22.1523C220.06 22.1801 220.533 22.4244 220.903 23.3057C220.903 23.3057 220.513 22.9806 220.105 22.9154C220.105 22.9154 220.829 23.7609 220.449 24.5321C220.068 25.3034 219.53 25.2289 218.871 25.015C218.211 24.8011 217.552 24.5411 216.558 24.9873C216.558 24.9873 217.561 25.136 218.545 26.0649C219.529 26.9939 219.882 27.6262 220.541 27.4701C221.201 27.314 221.868 26.0763 221.879 24.3475C221.889 22.6188 220.96 21.1781 219.754 20.8241Z" fill="white"/>
<path d="M218.503 19.6348C216.124 19.6348 214.999 20.9358 214.999 20.9358C214.999 20.9358 213.874 19.6348 211.495 19.6348C209.724 19.6348 208.648 20.8065 208.215 21.4041C209.141 20.4954 211.616 18.7619 215 21.7391C218.385 18.7619 220.859 20.4954 221.786 21.4041C221.35 20.8065 220.274 19.6348 218.503 19.6348Z" fill="#C4C4C4"/>
<path d="M211.094 25.0066C210.433 25.2213 209.893 25.2958 209.512 24.5218C209.13 23.7477 209.856 22.8984 209.856 22.8984C209.528 22.9506 209.212 23.1704 209.1 23.2559C208.767 23.812 208.537 24.8196 209.319 26.4762C209.319 26.4762 208.65 26.2783 208.129 25.1214C208.299 26.4367 208.861 27.3361 209.419 27.4697C210.08 27.6265 210.433 26.994 211.42 26.0589C212.407 25.1237 213.411 24.9768 213.411 24.9768C212.415 24.5308 211.754 24.7922 211.094 25.0066Z" fill="#C4C4C4"/>
<path d="M220.62 26.4748C221.41 24.7996 221.167 23.7881 220.83 23.2365C220.7 23.1413 220.405 22.947 220.099 22.8984C220.099 22.8984 220.825 23.747 220.443 24.5211C220.062 25.2952 219.523 25.2204 218.863 25.0057C218.203 24.791 217.542 24.5301 216.547 24.9779C216.547 24.9779 217.551 25.1271 218.537 26.0595C219.523 26.9919 219.876 27.6265 220.536 27.4698C221.098 27.3347 221.666 26.4176 221.829 25.0801C221.306 26.2726 220.62 26.4748 220.62 26.4748Z" fill="#C4C4C4"/>
<path d="M220.152 32.3708C219.559 31.9163 218.047 30.979 215.54 30.8751C212.211 30.7357 211.904 31.2793 211.528 30.8052C211.152 30.3312 213.07 29.9637 213.07 29.9637C213.07 29.9637 212.308 29.8426 211.649 29.3408C211.649 29.3408 210.033 30.7537 209.848 32.3899C209.848 32.3899 211.324 31.3024 215.001 31.3024C218.678 31.3024 220.155 32.3899 220.155 32.3899C220.154 32.3849 220.153 32.3775 220.152 32.3708Z" fill="#C4C4C4"/>
<path style="mix-blend-mode:multiply" opacity="0.37" d="M114.021 111.247C111.527 113.356 86.635 127.367 86.3323 128.278C85.8965 129.438 89.1896 134.903 90.7636 134.442C92.3375 133.98 121.927 116.7 121.988 115.889C122.048 115.078 122.121 110.573 121.407 110.287C120.692 110 114.978 110.436 114.021 111.247Z" fill="url(#paint14_linear_6297_50507)"/>
<g style="mix-blend-mode:soft-light" opacity="0.4">
<path d="M110.728 109.824C109.106 109.936 88.8018 123.361 88.8018 123.748C88.8018 124.135 85.2302 126.406 86.1019 126.343C86.9736 126.281 112.629 111.371 112.665 110.859C112.701 110.348 111.612 109.762 110.728 109.824Z" fill="#FFDF66"/>
</g>
<g style="mix-blend-mode:soft-light" opacity="0.4">
<path d="M85.2539 128.277C85.2539 128.277 98.7413 121.252 105.679 116.761C112.616 112.269 114.021 111.246 114.021 111.246L85.2539 128.277Z" fill="#FFDF66"/>
</g>
<path style="mix-blend-mode:multiply" opacity="0.37" d="M146.967 111.247C149.461 113.356 174.329 127.367 174.668 128.278C175.104 129.438 171.799 134.903 170.225 134.442C168.651 133.98 139.073 116.7 139.013 115.889C138.952 115.078 138.88 110.573 139.594 110.287C140.308 110 146.023 110.436 146.967 111.247Z" fill="url(#paint15_linear_6297_50507)"/>
<g style="mix-blend-mode:soft-light" opacity="0.4">
<path d="M150.259 109.824C151.894 109.936 172.185 123.361 172.185 123.748C172.185 124.135 175.818 126.405 174.898 126.343C173.977 126.281 148.383 111.346 148.383 110.859C148.383 110.373 149.388 109.761 150.259 109.824Z" fill="#FFDF66"/>
</g>
<g style="mix-blend-mode:soft-light" opacity="0.4">
<path d="M175.731 128.277C175.731 128.277 162.22 121.252 155.319 116.761C148.418 112.269 146.965 111.246 146.965 111.246L175.731 128.277Z" fill="#FFDF66"/>
</g>
<path d="M125.377 202.826V243.999C113.27 237.436 95.1094 218.284 95.1094 218.284V189.812L125.377 202.826Z" fill="url(#paint16_linear_6297_50507)"/>
<g style="mix-blend-mode:multiply" opacity="0.6">
<path d="M125.377 235.678V243.962C113.27 237.4 95.1094 218.248 95.1094 218.248V211.148C99.3106 216.713 108.197 226.021 125.377 235.678Z" fill="#8E37E2"/>
</g>
<path d="M135.633 202.826V243.999C147.74 237.436 165.901 218.284 165.901 218.284V189.812L135.633 202.826Z" fill="url(#paint17_linear_6297_50507)"/>
<g style="mix-blend-mode:multiply" opacity="0.6">
<path d="M135.633 235.678V243.962C147.74 237.4 165.901 218.248 165.901 218.248V211.148C161.7 216.713 152.789 226.021 135.633 235.678Z" fill="#8E37E2"/>
</g>
<path style="mix-blend-mode:multiply" d="M97.9425 221.142C97.9425 221.142 97.664 202.264 100.521 202.589C103.379 202.913 108.306 205.908 109.384 209.339C110.461 212.77 110.146 232.645 110.146 232.645L111.224 233.568C111.224 233.568 109.892 209.426 112.12 210.611C113.766 211.44 115.194 212.667 116.279 214.188C117.365 215.709 118.078 217.479 118.355 219.345C119.384 224.735 119.699 240.418 119.699 240.418L125.353 243.912V202.738L95.1094 189.812V218.247L97.9425 221.142Z" fill="url(#paint18_linear_6297_50507)"/>
<path style="mix-blend-mode:multiply" d="M163.056 221.141C163.056 221.141 163.286 199.02 160.428 199.344C157.571 199.669 157.45 210.873 157.45 214.317C157.45 217.76 156.99 227.08 156.99 227.08L155.367 228.59C155.367 228.59 155.61 203.424 153.382 204.61C151.154 205.795 141.372 213.58 140.342 218.97C139.313 224.36 139.701 241.429 139.701 241.429L135.633 243.924V202.751L165.901 189.737V218.172L163.056 221.141Z" fill="url(#paint19_linear_6297_50507)"/>
<path d="M86.9142 182.589C86.8053 183.001 70.3516 177.099 70.3516 177.099C66.1689 170.633 62.697 163.707 60 156.45H88.1007L86.9142 182.589Z" fill="url(#paint20_linear_6297_50507)"/>
<path d="M65.3633 156.45C65.3633 156.45 71.9254 170.412 73.124 171.921L87.3257 172.321V171.322C87.3257 171.322 74.3226 171.435 73.584 170.861C72.8455 170.287 66.1866 156.45 66.1866 156.45H65.3633Z" fill="#B33114"/>
<path d="M65.3633 156.45L73.124 171.921C71.4386 169.447 69.9099 166.863 68.5475 164.186C66.8161 160.568 65.3633 156.45 65.3633 156.45Z" fill="white"/>
<g style="mix-blend-mode:soft-light" opacity="0.4">
<path d="M67.3723 157.399C68.4619 160.742 72.7721 168.316 73.6801 168.316C74.5882 168.316 85.0003 168.129 85.9568 166.581C86.9133 165.034 87.7486 157.548 86.9133 157.399C86.0779 157.249 66.888 155.914 67.3723 157.399Z" fill="#FFDF66"/>
</g>
<g style="mix-blend-mode:soft-light" opacity="0.4">
<path d="M60.9204 157.035C62.2643 160.304 65.9812 168.626 66.6834 168.726C67.3857 168.826 69.686 169.125 69.686 168.127C69.7466 166.53 65.388 157.248 64.4194 157.035C63.4508 156.823 60.5935 156.224 60.9204 157.035Z" fill="#FFDF66"/>
</g>
<path style="mix-blend-mode:multiply" opacity="0.37" d="M67.3622 169.813C67.2412 170.849 70.9944 176.176 71.5997 176.6C72.2051 177.025 84.845 181.229 85.6683 180.63C86.4916 180.032 86.9395 169.052 86.2494 168.728C85.5593 168.403 67.4954 168.678 67.3622 169.813Z" fill="url(#paint21_linear_6297_50507)"/>
<g style="mix-blend-mode:multiply" opacity="0.5">
<path d="M78.6562 156.45C80.014 164.431 80.6101 172.53 80.436 180.63L86.9133 182.589L88.1241 156.388L78.6562 156.45Z" fill="#DE5634"/>
</g>
<path d="M174.085 182.589C174.194 183.001 190.648 177.099 190.648 177.099C194.83 170.633 198.302 163.707 200.999 156.45H172.898L174.085 182.589Z" fill="url(#paint22_linear_6297_50507)"/>
<path d="M195.599 156.45C195.599 156.45 189.037 170.412 187.839 171.921L173.625 172.321V171.322C173.625 171.322 186.628 171.435 187.367 170.861C188.105 170.287 194.764 156.45 194.764 156.45H195.599Z" fill="#B33114"/>
<path d="M195.601 156.45L187.84 171.921C189.52 169.444 191.049 166.86 192.416 164.186C194.184 160.568 195.601 156.45 195.601 156.45Z" fill="white"/>
<g style="mix-blend-mode:soft-light" opacity="0.4">
<path d="M193.626 157.399C192.536 160.742 188.214 168.316 187.318 168.316C186.422 168.316 175.998 168.129 175.017 166.581C174.036 165.034 173.237 157.548 174.073 157.399C174.908 157.249 194.11 155.914 193.626 157.399Z" fill="#FFDF66"/>
</g>
<g style="mix-blend-mode:soft-light" opacity="0.4">
<path d="M200.068 157.035C198.736 160.304 195.007 168.626 194.317 168.726C193.627 168.826 191.302 169.125 191.266 168.127C191.266 166.53 195.564 157.248 196.532 157.035C197.501 156.823 200.443 156.224 200.068 157.035Z" fill="#FFDF66"/>
</g>
<path style="mix-blend-mode:multiply" opacity="0.37" d="M193.641 169.813C193.762 170.849 190.009 176.176 189.403 176.6C188.798 177.025 176.158 181.229 175.323 180.63C174.487 180.032 174.112 169.052 174.754 168.728C175.395 168.403 193.495 168.678 193.641 169.813Z" fill="url(#paint23_linear_6297_50507)"/>
<g style="mix-blend-mode:multiply" opacity="0.5">
<path d="M182.343 156.45C180.985 164.431 180.389 172.53 180.563 180.63L174.086 182.589L172.875 156.388L182.343 156.45Z" fill="#DE5634"/>
</g>
<path d="M130.683 96L84.6875 123.362V188.665L130.683 216.026L176.678 188.665V123.362L130.683 96Z" fill="url(#paint24_linear_6297_50507)"/>
<path d="M93.0039 183.713V128.316L130.681 105.896L168.359 128.316V183.713L130.681 206.134L93.0039 183.713Z" fill="url(#paint25_linear_6297_50507)"/>
<path d="M95.7773 182.064V129.962L130.682 109.2L165.587 129.962V182.064L130.682 202.826L95.7773 182.064Z" fill="url(#paint26_linear_6297_50507)"/>
<g style="mix-blend-mode:soft-light" opacity="0.4">
<path d="M85.825 123.535C85.2681 125.294 90.1473 127.452 93.5978 126.679C97.0484 125.905 129.411 106.342 130.222 104.582C130.459 102.143 130.459 99.6855 130.222 97.2461C129.011 97.2461 86.1035 122.686 85.825 123.535Z" fill="#FFDF66"/>
</g>
<g style="mix-blend-mode:soft-light" opacity="0.4">
<path d="M175.31 123.535C175.879 125.294 170.988 127.452 167.537 126.679C164.087 125.905 132.039 106.154 130.937 104.582C130.38 103.771 130.199 97.2461 130.937 97.2461C132.088 97.2461 175.02 122.686 175.31 123.535Z" fill="#FFDF66"/>
</g>
<path style="mix-blend-mode:multiply" opacity="0.37" d="M85.7898 160.679C85.475 162.625 84.7244 187.342 85.7898 187.529C86.8552 187.716 91.8434 184.198 92.1218 182.538C92.4003 180.879 92.4851 163.973 92.1218 162.351C91.7586 160.729 86.2983 157.423 85.7898 160.679Z" fill="url(#paint27_linear_6297_50507)"/>
<path style="mix-blend-mode:multiply" opacity="0.37" d="M175.394 160.679C175.697 162.625 176.459 187.342 175.394 187.529C174.329 187.716 169.34 184.198 169.062 182.538C168.784 180.879 168.699 163.973 169.062 162.351C169.425 160.729 174.873 157.423 175.394 160.679Z" fill="url(#paint28_linear_6297_50507)"/>
<path style="mix-blend-mode:multiply" opacity="0.37" d="M86.9384 188.203C87.4953 189.051 128.926 214.291 129.544 214.291C129.858 214.291 130.27 208.053 130.27 207.317C130.27 205.371 93.6458 185.32 93.0041 185.133C92.0476 184.859 86.3694 187.354 86.9384 188.203Z" fill="url(#paint29_linear_6297_50507)"/>
<path style="mix-blend-mode:multiply" opacity="0.37" d="M174.496 188.866C173.939 189.714 131.734 214.867 131.104 214.867C130.949 212.168 130.998 209.461 131.249 206.77C132.581 205.397 167.571 185.322 168.164 185.135C169.108 184.861 175.017 188.017 174.496 188.866Z" fill="url(#paint30_linear_6297_50507)"/>
<g style="mix-blend-mode:multiply" opacity="0.37">
<path d="M97.3766 180.68C94.9552 166.244 96.2748 165.333 113.661 159.232C131.047 153.131 160.491 137.41 163.01 144.235C165.528 151.06 164.705 180.106 164.111 181.665C163.518 183.225 133.19 201.216 130.683 201.254C128.177 201.291 97.6551 182.302 97.3766 180.68Z" fill="#ED8A1D"/>
</g>
<g style="mix-blend-mode:soft-light" opacity="0.4">
<path d="M164.837 130.323C164.219 130.173 132.68 111.383 130.937 111.52C129.193 111.658 107.267 122.25 98.2473 130.235C95.8259 132.381 96.7218 164.247 98.9495 163.661C101.177 163.074 102.775 150.211 127.196 142.974C151.228 135.837 161.701 142.013 164.292 143.099C165.03 143.423 166.229 130.622 164.837 130.323Z" fill="#FFDF66"/>
</g>
<g style="mix-blend-mode:multiply" opacity="0.5">
<path d="M93.0039 183.71V128.314L130.681 105.855L168.359 128.314V183.71L165.586 182.063C165.586 182.063 165.756 133.903 164.751 132.394C161.119 127.004 133.272 113.903 128.72 115.363C124.168 116.823 99.2512 127.727 96.4787 132.306C95.5464 133.841 95.7764 182.063 95.7764 182.063L93.0039 183.71Z" fill="#DE5634"/>
</g>
<g style="mix-blend-mode:soft-light" opacity="0.4">
<path d="M137.715 135.876C147.11 140.293 161.251 140.368 162.547 139.52C163.842 138.671 164.69 132.47 162.668 131.435C160.646 130.399 144.507 121.541 140.269 122.489C136.032 123.437 136.056 135.103 137.715 135.876Z" fill="#FFDF66"/>
</g>
<path opacity="0.8" d="M84.6879 143.262C84.6879 143.112 85.0753 124.846 85.826 123.536C86.5766 122.226 129.69 97.597 130.937 97.2477C132.184 96.8983 148.384 106.505 148.384 106.505L130.683 96L84.6758 123.362L84.6879 143.262Z" fill="#700000"/>
<path d="M147.172 115.651C147.172 115.651 167.367 127.504 167.645 128.839C167.924 130.174 168.384 165.97 168.384 165.97C168.384 165.97 168.577 129.788 168.384 128.278C168.19 126.768 147.172 115.651 147.172 115.651Z" fill="white"/>
<path d="M93.0042 158.672C93.0042 158.672 92.3262 128.728 92.6652 127.755C93.0042 126.782 130.682 105.896 130.682 105.896C130.682 105.896 94.3602 127.331 93.5612 128.691C92.7621 130.051 93.0042 158.672 93.0042 158.672Z" fill="white"/>
<path opacity="0.8" d="M84.6875 188.665L130.695 216.027L176.702 188.665V173.793C176.702 173.793 176.314 186.769 175.37 188.391C174.426 190.013 133.237 214.704 131.131 214.866C129.024 215.029 86.891 189.264 85.7893 187.53C84.6875 185.796 84.6875 155.39 84.6875 155.39V188.665Z" fill="#700000"/>
<path d="M93.0044 169.537C93.0044 169.537 92.8713 182.313 93.5614 183.374C94.2515 184.434 112.122 195.089 112.122 195.089C112.122 195.089 92.7502 184.771 92.5686 184.097C92.387 183.424 93.0044 169.537 93.0044 169.537Z" fill="white"/>
<g style="mix-blend-mode:soft-light" opacity="0.4">
<path d="M108.563 195.341C107.207 195.341 103.405 196.925 104.229 197.836C105.052 198.747 127.692 212.808 130.271 213.806C131.119 214.131 131.034 208.579 129.908 206.782C129.424 206.021 112.764 195.328 108.563 195.341Z" fill="#FFDF66"/>
</g>
<path d="M151.241 109.412C150.478 109.624 153.045 112.956 154.267 113.255C155.49 113.555 157.149 112.656 156.58 112.007C156.011 111.359 152.439 109.05 151.241 109.412Z" fill="white"/>
<path d="M156.93 112.683C155.719 112.994 157.911 118.247 158.831 119.183C159.751 120.119 167.899 121.753 167.706 120.243C167.512 118.734 158.565 112.221 156.93 112.683Z" fill="white"/>
<g style="mix-blend-mode:multiply" opacity="0.5">
<path d="M151.893 195.503C150.9 199.957 151.058 202.589 151.615 202.614C152.172 202.639 172.282 190.138 172.826 189.613C173.371 189.089 169.606 185.521 168.056 185.708C166.506 185.895 152.256 193.806 151.893 195.503Z" fill="#DE5634"/>
</g>
<g style="mix-blend-mode:multiply" opacity="0.5">
<path d="M95.4359 129.589C94.9516 128.092 93.4624 128.092 93.3293 129.776C93.1961 131.46 92.9661 162.49 93.5593 162.527C94.1526 162.565 95.3996 161.055 95.4359 160.344C95.4722 159.633 95.666 130.3 95.4359 129.589Z" fill="#DE5634"/>
</g>
<g style="mix-blend-mode:multiply" opacity="0.5">
<path d="M165.913 129.776C165.841 130.375 165.55 159.72 165.913 159.72C166.276 159.72 167.947 158.348 167.947 157.624C167.947 156.901 167.536 129.215 167.342 129.065C167.148 128.915 165.974 129.302 165.913 129.776Z" fill="#DE5634"/>
</g>
<g style="mix-blend-mode:multiply" opacity="0.5">
<path d="M130.68 108.713C130.68 109.287 114.469 118.819 114.093 118.819C113.718 118.819 113.839 116.249 114.36 115.9C114.88 115.55 130.559 105.818 130.68 106.143C130.735 106.999 130.735 107.857 130.68 108.713Z" fill="#DE5634"/>
</g>
<path d="M164.12 185.934C163.079 185.934 159.592 187.992 159.858 189.015C160.125 190.038 162.28 191.149 162.824 190.55C163.369 189.951 164.81 185.959 164.12 185.934Z" fill="#B33114"/>
<path d="M165.465 186.657C165.114 186.994 164.339 188.191 165.078 188.778C165.816 189.364 167.984 187.817 167.657 187.368C167.33 186.919 165.925 186.22 165.465 186.657Z" fill="#B33114"/>
<g style="mix-blend-mode:multiply" opacity="0.5">
<path d="M160.38 188.017C159.521 189.265 163.056 190.013 163.516 189.003C163.976 187.992 164.727 185.859 164.133 185.958C162.77 186.402 161.498 187.099 160.38 188.017Z" fill="#DE5634"/>
</g>
<path d="M159.883 188.715C160.121 189.413 160.593 190.002 161.214 190.374C162.038 190.873 162.752 190.761 162.958 190.374C162.754 190.624 162.474 190.794 162.164 190.858C161.854 190.921 161.532 190.874 161.251 190.724C159.568 189.938 159.883 188.715 159.883 188.715Z" fill="#DAE1EF"/>
<g style="mix-blend-mode:multiply" opacity="0.5">
<path d="M165.854 186.681C165.067 187.58 165.685 188.852 166.133 188.777C166.581 188.702 167.912 187.804 167.658 187.367C167.404 186.931 166.036 186.494 165.854 186.681Z" fill="#DE5634"/>
</g>
<path d="M165.465 186.656C165.465 186.656 164.726 187.692 165.029 188.291C165.331 188.89 165.731 188.89 165.731 188.89C165.731 188.89 164.787 189.464 164.617 188.79C164.314 187.642 165.465 186.656 165.465 186.656Z" fill="#DAE1EF"/>
<path d="M125.947 108.39C123.526 107.716 121.467 109.375 120.378 110.648C119.288 111.921 119.893 112.669 121.262 112.42C122.63 112.17 126.988 108.677 125.947 108.39Z" fill="#B33114"/>
<g style="mix-blend-mode:multiply" opacity="0.5">
<path d="M125.947 108.39C125.164 108.229 124.357 108.251 123.584 108.453C122.81 108.656 122.091 109.035 121.479 109.562C120.813 110.161 122.121 111.896 123.029 111.521C123.937 111.147 126.709 108.664 125.947 108.39Z" fill="#DE5634"/>
</g>
<path d="M120.995 109.987C120.995 109.987 118.198 111.909 118.513 112.807C118.828 113.705 122.145 112.046 122.145 112.046C122.145 112.046 120.402 112.62 120.014 111.834C119.627 111.048 120.995 109.987 120.995 109.987Z" fill="white"/>
<g style="mix-blend-mode:soft-light" opacity="0.4">
<path d="M94.6014 184.099C93.2817 184.436 97.1923 187.193 98.1124 187.343C99.0326 187.493 98.1124 185.06 97.6766 184.636C96.7146 184.183 95.6543 183.998 94.6014 184.099Z" fill="#FFDF66"/>
</g>
<path d="M130.647 186.769L83.1625 158.223C82.0398 160.889 81.278 163.702 80.8984 166.582L83.9979 171.972L130.647 199.895L177.296 171.972L180.105 166.582C180.011 163.715 179.433 160.886 178.397 158.223L130.647 186.769Z" fill="url(#paint31_linear_6297_50507)"/>
<path d="M83.9979 171.971L80.8984 166.581L130.647 196.613L180.105 166.581L177.296 171.971L130.647 199.894L83.9979 171.971Z" fill="url(#paint32_linear_6297_50507)"/>
<g style="mix-blend-mode:multiply" opacity="0.5">
<path d="M80.8984 166.581L83.9979 171.971L84.7001 172.42V174.03C84.7001 174.03 87.3637 175.427 92.5818 178.409C92.7635 178.509 95.875 181.89 95.875 181.89C95.875 181.89 129.472 202.826 130.695 202.826C132.257 202.826 165.6 181.428 165.6 181.428C165.6 181.428 168.191 179.183 168.457 179.02L176.69 174.579V172.345L177.308 171.971L180.117 166.581L130.647 196.613L80.8984 166.581Z" fill="#DE5634"/>
</g>
<path style="mix-blend-mode:multiply" opacity="0.69" d="M130.645 186.769V196.626L180.102 166.582C179.972 163.719 179.396 160.897 178.395 158.223L130.645 186.769Z" fill="url(#paint33_linear_6297_50507)"/>
<g style="mix-blend-mode:soft-light" opacity="0.4">
<path d="M85.6063 160.381C84.6983 160.381 85.4368 168.678 88.1973 170.574C92.5801 173.606 119.01 189.651 120.741 189.676C121.952 189.676 121.867 182.652 121.516 182.103C120.838 181.067 86.9623 160.381 85.6063 160.381Z" fill="#FFDF66"/>
</g>
<g style="mix-blend-mode:soft-light" opacity="0.4">
<path d="M145.332 178.247C144.751 178.858 144.836 186.593 145.816 186.369C153.799 182.378 161.487 177.791 168.82 172.644C175.866 167.304 176.859 160.28 175.273 160.442C175.224 160.392 146.506 176.986 145.332 178.247Z" fill="#FFDF66"/>
</g>
<path d="M106.457 182.003C106.457 182.003 129.182 196.064 130.671 196.064C132.161 196.064 150.273 184.71 150.273 184.71C150.273 184.71 131.228 197.187 130.708 197.187C130.187 197.187 106.457 182.003 106.457 182.003Z" fill="white"/>
<path d="M130.647 170.773L83.1625 142.239C82.0409 144.902 81.2791 147.71 80.8984 150.586L83.9979 155.976L130.647 183.911L177.296 155.988L180.105 150.586C180.011 147.718 179.433 144.89 178.397 142.227L130.647 170.773Z" fill="url(#paint34_linear_6297_50507)"/>
<path d="M83.9979 155.989L80.8984 150.599L130.647 180.63L180.105 150.599L177.296 155.989L130.647 183.912L83.9979 155.989Z" fill="url(#paint35_linear_6297_50507)"/>
<g style="mix-blend-mode:multiply" opacity="0.5">
<path d="M80.8984 150.586L83.9979 155.976L84.7001 156.425V158.072C84.7001 158.072 87.3637 159.469 92.5818 162.451C92.7635 162.551 95.875 165.932 95.875 165.932C95.875 165.932 129.46 186.843 130.683 186.843C132.245 186.843 165.588 165.446 165.588 165.446C165.588 165.446 168.179 163.2 168.445 163.038L176.678 158.596V156.363L177.296 155.988L180.105 150.586L130.647 180.63L80.8984 150.586Z" fill="#DE5634"/>
</g>
<path style="mix-blend-mode:multiply" opacity="0.69" d="M130.645 170.773V180.63L180.102 150.586C179.972 147.723 179.396 144.901 178.395 142.227L130.645 170.773Z" fill="url(#paint36_linear_6297_50507)"/>
<g style="mix-blend-mode:soft-light" opacity="0.4">
<path d="M85.6063 144.41C84.6983 144.41 85.4368 152.695 88.1973 154.591C92.5801 157.623 119.01 173.668 120.741 173.693C121.952 173.693 121.867 166.669 121.516 166.12C120.838 165.084 86.9623 144.41 85.6063 144.41Z" fill="#FFDF66"/>
</g>
<g style="mix-blend-mode:soft-light" opacity="0.4">
<path d="M145.332 162.264C144.751 162.875 144.836 170.624 145.816 170.386C153.799 166.396 161.487 161.809 168.82 156.662C175.866 151.334 176.859 144.298 175.273 144.46C175.224 144.41 146.506 161.004 145.332 162.264Z" fill="#FFDF66"/>
</g>
<path d="M106.457 166.032C106.457 166.032 129.182 180.081 130.671 180.081C132.161 180.081 150.273 168.727 150.273 168.727C150.273 168.727 131.228 181.204 130.708 181.204C130.187 181.204 106.457 166.032 106.457 166.032Z" fill="white"/>
<g style="mix-blend-mode:multiply" opacity="0.5">
<path d="M130.756 156.163L120.562 161.678L122.511 149.974L114.254 141.69L125.659 139.981L130.756 129.338L135.853 139.981L147.258 141.69L139.013 149.974L140.962 161.678L130.756 156.163Z" fill="#DE5634"/>
</g>
<path d="M146.068 142.088L140.559 141.265L139.058 141.04L135.487 140.504L130.753 130.622L126.019 140.504L115.449 142.088L123.101 149.774L121.297 160.641L130.753 155.513L140.22 160.641L138.417 149.774L146.068 142.088Z" fill="url(#paint37_linear_6297_50507)"/>
<path style="mix-blend-mode:multiply" opacity="0.37" d="M115.391 142.089L130.973 146.294L123.054 149.775L115.391 142.089Z" fill="url(#paint38_linear_6297_50507)"/>
<path style="mix-blend-mode:multiply" opacity="0.37" d="M146.01 142.089L130.973 146.294L138.358 149.775L146.01 142.089Z" fill="url(#paint39_linear_6297_50507)"/>
<path style="mix-blend-mode:multiply" opacity="0.37" d="M130.706 155.514L130.972 146.294L121.238 160.642L130.706 155.514Z" fill="url(#paint40_linear_6297_50507)"/>
<path style="mix-blend-mode:multiply" opacity="0.37" d="M140.163 160.642L130.973 146.294L130.707 155.514L140.163 160.642Z" fill="url(#paint41_linear_6297_50507)"/>
<path style="mix-blend-mode:color-dodge" opacity="0.5" d="M130.707 130.622L130.973 146.293L135.429 140.504L130.707 130.622Z" fill="url(#paint42_linear_6297_50507)"/>
<path style="mix-blend-mode:color-dodge" opacity="0.5" d="M146.01 142.089L130.973 146.294L135.428 140.505L146.01 142.089Z" fill="url(#paint43_linear_6297_50507)"/>
<path style="mix-blend-mode:color-dodge" opacity="0.5" d="M146.01 142.089L130.973 146.294L135.428 140.505L146.01 142.089Z" fill="url(#paint44_linear_6297_50507)"/>
<path style="mix-blend-mode:color-dodge" opacity="0.5" d="M125.972 140.505L130.973 146.294L115.391 142.089L125.972 140.505Z" fill="url(#paint45_linear_6297_50507)"/>
<path d="M135.439 143.948C134.652 144.622 135.318 145.071 135.318 145.071L139.374 143.948C138.804 143.516 138.114 143.282 137.406 143.282C136.698 143.282 136.009 143.516 135.439 143.948Z" fill="white"/>
<g style="mix-blend-mode:multiply" opacity="0.5">
<path d="M121.297 160.643C121.297 160.643 128.464 157.149 130.753 156.189L140.22 160.643L130.753 155.577L121.297 160.643Z" fill="#DE5634"/>
</g>
<g style="mix-blend-mode:multiply" opacity="0.5">
<path d="M115.391 142.089L130.973 146.294L122.425 153.879L115.391 142.089Z" fill="#DE5634"/>
</g>
<g style="mix-blend-mode:multiply" opacity="0.5">
<path d="M146.01 142.089L130.973 146.294L139.266 154.89L146.01 142.089Z" fill="#DE5634"/>
</g>
<g style="mix-blend-mode:multiply" opacity="0.5">
<path d="M121.297 160.642L130.97 146.294L140.22 160.642L130.753 159.095L121.297 160.642Z" fill="#DE5634"/>
</g>
<g style="mix-blend-mode:soft-light" opacity="0.4">
<path d="M127.229 138.795C126.225 141.677 130.063 143.686 130.571 142.8C131.08 141.914 130.765 136.973 130.123 136.312C129.481 135.651 127.641 137.622 127.229 138.795Z" fill="#F7FFFF"/>
</g>
<g style="mix-blend-mode:soft-light" opacity="0.4">
<path d="M124.097 153.53C126.143 153.817 127.281 151.422 127.729 149.787C128.395 147.13 120.392 153.081 124.097 153.53Z" fill="#F7FFFF"/>
</g>
<g style="mix-blend-mode:multiply" opacity="0.5">
<path d="M108.743 136.835L103.997 139.405L104.893 133.953L101.055 130.098L106.37 129.312L108.743 124.358L111.116 129.312L116.419 130.098L112.581 133.953L113.477 139.405L108.743 136.835Z" fill="#DE5634"/>
</g>
<path d="M115.813 130.298L113.271 129.923L112.581 129.811L110.922 129.574L108.743 124.995L106.551 129.574L101.66 130.298L105.195 133.854L104.36 138.882L108.743 136.511L113.114 138.882L112.278 133.854L115.813 130.298Z" fill="url(#paint46_linear_6297_50507)"/>
<path style="mix-blend-mode:multiply" opacity="0.37" d="M101.625 130.298L108.841 132.244L105.172 133.854L101.625 130.298Z" fill="url(#paint47_linear_6297_50507)"/>
<path style="mix-blend-mode:multiply" opacity="0.37" d="M115.789 130.298L108.84 132.244L112.254 133.854L115.789 130.298Z" fill="url(#paint48_linear_6297_50507)"/>
<path style="mix-blend-mode:multiply" opacity="0.37" d="M108.707 136.512L108.84 132.245L104.336 138.883L108.707 136.512Z" fill="url(#paint49_linear_6297_50507)"/>
<path style="mix-blend-mode:multiply" opacity="0.37" d="M113.09 138.883L108.84 132.245L108.707 136.512L113.09 138.883Z" fill="url(#paint50_linear_6297_50507)"/>
<path style="mix-blend-mode:color-dodge" opacity="0.5" d="M108.707 124.995L108.84 132.244L110.898 129.574L108.707 124.995Z" fill="url(#paint51_linear_6297_50507)"/>
<path style="mix-blend-mode:color-dodge" opacity="0.5" d="M115.789 130.299L108.84 132.245L110.898 129.575L115.789 130.299Z" fill="url(#paint52_linear_6297_50507)"/>
<path style="mix-blend-mode:color-dodge" opacity="0.5" d="M115.789 130.299L108.84 132.245L110.898 129.575L115.789 130.299Z" fill="url(#paint53_linear_6297_50507)"/>
<path style="mix-blend-mode:color-dodge" opacity="0.5" d="M106.528 129.575L108.841 132.245L101.625 130.299L106.528 129.575Z" fill="url(#paint54_linear_6297_50507)"/>
<path d="M110.849 131.158C110.486 131.47 110.849 131.682 110.849 131.682L112.726 131.158C112.457 130.945 112.127 130.829 111.787 130.829C111.448 130.829 111.118 130.945 110.849 131.158Z" fill="white"/>
<g style="mix-blend-mode:multiply" opacity="0.5">
<path d="M104.359 138.883C104.359 138.883 107.677 137.274 108.742 136.825L113.113 138.883L108.742 136.513L104.359 138.883Z" fill="#DE5634"/>
</g>
<g style="mix-blend-mode:multiply" opacity="0.5">
<path d="M101.625 130.298L108.841 132.244L104.882 135.75L101.625 130.298Z" fill="#DE5634"/>
</g>
<g style="mix-blend-mode:multiply" opacity="0.5">
<path d="M115.789 130.298L108.84 132.244L112.678 136.224L115.789 130.298Z" fill="#DE5634"/>
</g>
<g style="mix-blend-mode:multiply" opacity="0.5">
<path d="M104.359 138.883L108.839 132.245L113.113 138.883L108.742 138.172L104.359 138.883Z" fill="#DE5634"/>
</g>
<g style="mix-blend-mode:soft-light" opacity="0.4">
<path d="M107.11 128.776C106.638 130.111 108.43 131.034 108.66 130.623C108.851 129.622 108.771 128.586 108.43 127.628C108.139 127.316 107.304 128.24 107.11 128.776Z" fill="#F7FFFF"/>
</g>
<g style="mix-blend-mode:soft-light" opacity="0.4">
<path d="M105.656 135.613C106.6 135.75 107.133 134.64 107.327 133.879C107.641 132.631 103.949 135.351 105.656 135.613Z" fill="#F7FFFF"/>
</g>
<g style="mix-blend-mode:multiply" opacity="0.5">
<path d="M152.91 136.835L148.164 139.405L149.072 133.953L145.234 130.098L150.537 129.312L152.91 124.358L155.283 129.312L160.586 130.098L156.748 133.953L157.656 139.405L152.91 136.835Z" fill="#DE5634"/>
</g>
<path d="M159.994 130.298L157.451 129.923L156.749 129.811L155.102 129.574L152.911 124.995L150.719 129.574L145.828 130.298L149.376 133.854L148.54 138.882L152.911 136.511L157.294 138.882L156.458 133.854L159.994 130.298Z" fill="url(#paint55_linear_6297_50507)"/>
<path style="mix-blend-mode:multiply" opacity="0.37" d="M145.805 130.298L153.021 132.244L149.352 133.854L145.805 130.298Z" fill="url(#paint56_linear_6297_50507)"/>
<path style="mix-blend-mode:multiply" opacity="0.37" d="M159.969 130.298L153.02 132.244L156.422 133.854L159.969 130.298Z" fill="url(#paint57_linear_6297_50507)"/>
<path style="mix-blend-mode:multiply" opacity="0.37" d="M152.886 136.512L153.019 132.245L148.516 138.883L152.886 136.512Z" fill="url(#paint58_linear_6297_50507)"/>
<path style="mix-blend-mode:multiply" opacity="0.37" d="M157.257 138.883L153.02 132.245L152.887 136.512L157.257 138.883Z" fill="url(#paint59_linear_6297_50507)"/>
<path style="mix-blend-mode:color-dodge" opacity="0.5" d="M152.887 124.995L153.02 132.244L155.078 129.574L152.887 124.995Z" fill="url(#paint60_linear_6297_50507)"/>
<path style="mix-blend-mode:color-dodge" opacity="0.5" d="M159.969 130.299L153.02 132.245L155.078 129.575L159.969 130.299Z" fill="url(#paint61_linear_6297_50507)"/>
<path style="mix-blend-mode:color-dodge" opacity="0.5" d="M159.969 130.299L153.02 132.245L155.078 129.575L159.969 130.299Z" fill="url(#paint62_linear_6297_50507)"/>
<path style="mix-blend-mode:color-dodge" opacity="0.5" d="M150.696 129.575L153.021 132.245L145.805 130.299L150.696 129.575Z" fill="url(#paint63_linear_6297_50507)"/>
<path d="M155.079 131.158C154.716 131.47 155.079 131.682 155.079 131.682L156.859 131.158C156.6 130.967 156.289 130.863 155.969 130.863C155.65 130.863 155.339 130.967 155.079 131.158Z" fill="white"/>
<g style="mix-blend-mode:multiply" opacity="0.5">
<path d="M148.539 138.883C148.539 138.883 151.856 137.274 152.91 136.825L157.293 138.883L152.91 136.513L148.539 138.883Z" fill="#DE5634"/>
</g>
<g style="mix-blend-mode:multiply" opacity="0.5">
<path d="M145.805 130.298L153.021 132.244L149.062 135.75L145.805 130.298Z" fill="#DE5634"/>
</g>
<g style="mix-blend-mode:multiply" opacity="0.5">
<path d="M159.969 130.298L153.02 132.244L156.845 136.224L159.969 130.298Z" fill="#DE5634"/>
</g>
<g style="mix-blend-mode:multiply" opacity="0.5">
<path d="M148.539 138.883L153.019 132.245L157.293 138.883L152.91 138.172L148.539 138.883Z" fill="#DE5634"/>
</g>
<g style="mix-blend-mode:soft-light" opacity="0.4">
<path d="M151.274 128.777C150.802 130.112 152.594 131.036 152.824 130.624C153.025 129.621 152.954 128.581 152.618 127.617C152.315 127.318 151.468 128.241 151.274 128.777Z" fill="#F7FFFF"/>
</g>
<g style="mix-blend-mode:soft-light" opacity="0.4">
<path d="M149.836 135.613C150.781 135.75 151.301 134.64 151.507 133.879C151.822 132.631 148.117 135.351 149.836 135.613Z" fill="#F7FFFF"/>
</g>
<path d="M102 2L112.087 17.7023C113.006 19.1343 114.591 20 116.293 20H145.707C147.409 20 148.994 19.1343 149.913 17.7023L160 2H102Z" fill="url(#paint64_linear_6297_50507)"/>
<path d="M122.558 16L118.33 6.2H120.78L124.476 14.88H123.034L126.786 6.2H129.04L124.798 16H122.558ZM129.858 16V6.2H132.126V16H129.858ZM134.452 16V6.2H138.694C139.571 6.2 140.327 6.34467 140.962 6.634C141.597 6.914 142.087 7.32 142.432 7.852C142.777 8.384 142.95 9.01867 142.95 9.756C142.95 10.484 142.777 11.114 142.432 11.646C142.087 12.178 141.597 12.5887 140.962 12.878C140.327 13.158 139.571 13.298 138.694 13.298H135.712L136.72 12.276V16H134.452ZM136.72 12.528L135.712 11.45H138.568C139.268 11.45 139.791 11.3007 140.136 11.002C140.481 10.7033 140.654 10.288 140.654 9.756C140.654 9.21467 140.481 8.79467 140.136 8.496C139.791 8.19733 139.268 8.048 138.568 8.048H135.712L136.72 6.97V12.528Z" fill="white"/>
<path d="M37.3982 20.544H39.4142L41.9522 31.128L44.4542 20.544H46.4702L43.2302 33H40.6742L37.3982 20.544ZM47.8753 33V20.544H49.8193V33H47.8753Z" fill="white"/>
<g style="mix-blend-mode:overlay">
<g style="mix-blend-mode:color-dodge">
<path fill-rule="evenodd" clip-rule="evenodd" d="M19 12C19 6.47715 23.4771 2 29 2H231C236.523 2 241 6.47715 241 12V120.562C241 123.615 239.506 126.474 237 128.217C234.494 129.961 233 132.82 233 135.873V159V162V185.127C233 188.18 234.494 191.039 237 192.783C239.506 194.526 241 197.385 241 200.438V304C241 309.523 236.523 314 231 314H29C23.4772 314 19 309.523 19 304V202.182C19 198.908 20.6021 195.842 23.2894 193.973L24.7106 192.984C27.3979 191.115 29 188.048 29 184.775L29 162V159L29 136.225C29 132.952 27.3979 129.885 24.7107 128.016L23.2894 127.027C20.6021 125.158 19 122.092 19 118.818V12Z" fill="url(#paint65_linear_6297_50507)"/>
</g>
</g>
<defs>
<filter id="filter0_b_6297_50507" x="-6" y="-19" width="89" height="354.983" filterUnits="userSpaceOnUse" colorInterpolationFilters="sRGB">
<feFlood floodOpacity="0" result="BackgroundImageFix"/>
<feGaussianBlur in="BackgroundImageFix" stdDeviation="13"/>
<feComposite in2="SourceAlpha" operator="in" result="effect1_backgroundBlur_6297_50507"/>
<feBlend mode="normal" in="SourceGraphic" in2="effect1_backgroundBlur_6297_50507" result="shape"/>
</filter>
<filter id="filter1_b_6297_50507" x="177" y="-19" width="89" height="354.983" filterUnits="userSpaceOnUse" colorInterpolationFilters="sRGB">
<feFlood floodOpacity="0" result="BackgroundImageFix"/>
<feGaussianBlur in="BackgroundImageFix" stdDeviation="13"/>
<feComposite in2="SourceAlpha" operator="in" result="effect1_backgroundBlur_6297_50507"/>
<feBlend mode="normal" in="SourceGraphic" in2="effect1_backgroundBlur_6297_50507" result="shape"/>
</filter>
<filter id="filter2_i_6297_50507" x="17" y="0" width="226" height="320" filterUnits="userSpaceOnUse" colorInterpolationFilters="sRGB">
<feFlood floodOpacity="0" result="BackgroundImageFix"/>
<feBlend mode="normal" in="SourceGraphic" in2="BackgroundImageFix" result="shape"/>
<feColorMatrix in="SourceAlpha" type="matrix" values="0 0 0 0 0 0 0 0 0 0 0 0 0 0 0 0 0 0 127 0" result="hardAlpha"/>
<feOffset dy="5"/>
<feGaussianBlur stdDeviation="2"/>
<feComposite in2="hardAlpha" operator="arithmetic" k2="-1" k3="1"/>
<feColorMatrix type="matrix" values="0 0 0 0 0 0 0 0 0 0 0 0 0 0 0 0 0 0 0.25 0"/>
<feBlend mode="normal" in2="shape" result="effect1_innerShadow_6297_50507"/>
</filter>
<filter id="filter3_f_6297_50507" x="0" y="31" width="261" height="254" filterUnits="userSpaceOnUse" colorInterpolationFilters="sRGB">
<feFlood floodOpacity="0" result="BackgroundImageFix"/>
<feBlend mode="normal" in="SourceGraphic" in2="BackgroundImageFix" result="shape"/>
<feGaussianBlur stdDeviation="37.5" result="effect1_foregroundBlur_6297_50507"/>
</filter>
<filter id="filter4_f_6297_50507" x="196.019" y="7.53866" width="37.4969" height="37.495" filterUnits="userSpaceOnUse" colorInterpolationFilters="sRGB">
<feFlood floodOpacity="0" result="BackgroundImageFix"/>
<feBlend mode="normal" in="SourceGraphic" in2="BackgroundImageFix" result="shape"/>
<feGaussianBlur stdDeviation="1.092" result="effect1_foregroundBlur_6297_50507"/>
</filter>
<filter id="filter5_f_6297_50507" x="191.086" y="2.60799" width="47.3563" height="47.3553" filterUnits="userSpaceOnUse" colorInterpolationFilters="sRGB">
<feFlood floodOpacity="0" result="BackgroundImageFix"/>
<feBlend mode="normal" in="SourceGraphic" in2="BackgroundImageFix" result="shape"/>
<feGaussianBlur stdDeviation="1.092" result="effect1_foregroundBlur_6297_50507"/>
</filter>
<filter id="filter6_f_6297_50507" x="191.086" y="2.60799" width="47.3563" height="47.3553" filterUnits="userSpaceOnUse" colorInterpolationFilters="sRGB">
<feFlood floodOpacity="0" result="BackgroundImageFix"/>
<feBlend mode="normal" in="SourceGraphic" in2="BackgroundImageFix" result="shape"/>
<feGaussianBlur stdDeviation="1.092" result="effect1_foregroundBlur_6297_50507"/>
</filter>
<filter id="filter7_f_6297_50507" x="190.82" y="2.57284" width="37.4969" height="37.4959" filterUnits="userSpaceOnUse" colorInterpolationFilters="sRGB">
<feFlood floodOpacity="0" result="BackgroundImageFix"/>
<feBlend mode="normal" in="SourceGraphic" in2="BackgroundImageFix" result="shape"/>
<feGaussianBlur stdDeviation="1.092" result="effect1_foregroundBlur_6297_50507"/>
</filter>
<filter id="filter8_f_6297_50507" x="199.722" y="14.3902" width="37.3133" height="37.3114" filterUnits="userSpaceOnUse" colorInterpolationFilters="sRGB">
<feFlood floodOpacity="0" result="BackgroundImageFix"/>
<feBlend mode="normal" in="SourceGraphic" in2="BackgroundImageFix" result="shape"/>
<feGaussianBlur stdDeviation="1.092" result="effect1_foregroundBlur_6297_50507"/>
</filter>
<linearGradient id="paint0_linear_6297_50507" x1="13" y1="296.56" x2="134.492" y2="0.901086" gradientUnits="userSpaceOnUse">
<stop stop-color="#060913"/>
<stop offset="0.136764" stop-color="#070A16"/>
<stop offset="0.197268" stop-color="#0D142E"/>
<stop offset="0.309253" stop-color="#070B17"/>
<stop offset="0.490764" stop-color="#080C1A"/>
<stop offset="0.661458" stop-color="#0B1125"/>
<stop offset="1" stop-color="#101010"/>
</linearGradient>
<linearGradient id="paint1_linear_6297_50507" x1="43.5" y1="323.39" x2="109.599" y2="304.922" gradientUnits="userSpaceOnUse">
<stop stop-color="#EECCA2"/>
<stop offset="0.260417" stop-color="#624A2C"/>
<stop offset="0.6875" stop-color="#FFDAAB"/>
<stop offset="1" stop-color="#C68C43"/>
</linearGradient>
<linearGradient id="paint2_linear_6297_50507" x1="247" y1="20.4233" x2="125.508" y2="316.082" gradientUnits="userSpaceOnUse">
<stop stop-color="#060913"/>
<stop offset="0.136764" stop-color="#070A16"/>
<stop offset="0.197268" stop-color="#0D142E"/>
<stop offset="0.309253" stop-color="#070B17"/>
<stop offset="0.490764" stop-color="#080C1A"/>
<stop offset="0.661458" stop-color="#0B1125"/>
<stop offset="1" stop-color="#101010"/>
</linearGradient>
<linearGradient id="paint3_linear_6297_50507" x1="216.5" y1="-6.40634" x2="150.401" y2="12.0615" gradientUnits="userSpaceOnUse">
<stop stop-color="#EECCA2"/>
<stop offset="0.260417" stop-color="#624A2C"/>
<stop offset="0.6875" stop-color="#FFDAAB"/>
<stop offset="1" stop-color="#C68C43"/>
</linearGradient>
<linearGradient id="paint4_linear_6297_50507" x1="184.5" y1="-25.5" x2="1.5" y2="349.5" gradientUnits="userSpaceOnUse">
<stop stop-color="#C68C43"/>
<stop offset="0.119792" stop-color="#F5BA6E"/>
<stop offset="0.286458" stop-color="#C68C43"/>
<stop offset="0.5625" stop-color="#C68C43"/>
<stop offset="0.770833" stop-color="#EEB873"/>
<stop offset="1" stop-color="#C68C43"/>
</linearGradient>
<linearGradient id="paint5_linear_6297_50507" x1="131.064" y1="154.818" x2="131.064" y2="-46.36" gradientUnits="userSpaceOnUse">
<stop stop-color="#CA6B34"/>
<stop offset="0.67" stop-color="#FFA933"/>
<stop offset="1" stop-color="#FFBD2B"/>
</linearGradient>
<linearGradient id="paint6_linear_6297_50507" x1="80.9314" y1="47.9531" x2="80.9314" y2="91.3368" gradientUnits="userSpaceOnUse">
<stop stop-color="#C10065"/>
<stop offset="1" stop-color="white"/>
</linearGradient>
<linearGradient id="paint7_linear_6297_50507" x1="181.924" y1="47.9531" x2="181.924" y2="91.3368" gradientUnits="userSpaceOnUse">
<stop stop-color="#C10065"/>
<stop offset="1" stop-color="white"/>
</linearGradient>
<linearGradient id="paint8_linear_6297_50507" x1="100.251" y1="71.2334" x2="100.251" y2="151.652" gradientUnits="userSpaceOnUse">
<stop stop-color="#C10065"/>
<stop offset="1" stop-color="white"/>
</linearGradient>
<linearGradient id="paint9_linear_6297_50507" x1="161.393" y1="71.2334" x2="161.393" y2="151.652" gradientUnits="userSpaceOnUse">
<stop stop-color="#C10065"/>
<stop offset="1" stop-color="white"/>
</linearGradient>
<linearGradient id="paint10_linear_6297_50507" x1="139.171" y1="-4.27537" x2="150.065" y2="109.544" gradientUnits="userSpaceOnUse">
<stop stop-color="#BFD7FF"/>
<stop offset="1"/>
</linearGradient>
<linearGradient id="paint11_linear_6297_50507" x1="132.316" y1="54.8309" x2="231.532" y2="54.8309" gradientUnits="userSpaceOnUse">
<stop stop-color="#BFD7FF"/>
<stop offset="1"/>
</linearGradient>
<linearGradient id="paint12_linear_6297_50507" x1="173.696" y1="-7.45115" x2="184.673" y2="106.233" gradientUnits="userSpaceOnUse">
<stop stop-color="#BFD7FF"/>
<stop offset="1"/>
</linearGradient>
<linearGradient id="paint13_linear_6297_50507" x1="73.8992" y1="2.16332" x2="84.872" y2="115.848" gradientUnits="userSpaceOnUse">
<stop stop-color="#BFD7FF"/>
<stop offset="1"/>
</linearGradient>
<linearGradient id="paint14_linear_6297_50507" x1="104.154" y1="110.187" x2="104.154" y2="134.466" gradientUnits="userSpaceOnUse">
<stop stop-color="#C10065"/>
<stop offset="1" stop-color="white"/>
</linearGradient>
<linearGradient id="paint15_linear_6297_50507" x1="156.835" y1="110.187" x2="156.835" y2="134.466" gradientUnits="userSpaceOnUse">
<stop stop-color="#C10065"/>
<stop offset="1" stop-color="white"/>
</linearGradient>
<linearGradient id="paint16_linear_6297_50507" x1="95.1094" y1="216.887" x2="125.353" y2="216.887" gradientUnits="userSpaceOnUse">
<stop stop-color="#DE3C14"/>
<stop offset="0.07" stop-color="#C72E10"/>
<stop offset="0.19" stop-color="#AB1C0C"/>
<stop offset="0.3" stop-color="#971009"/>
<stop offset="0.41" stop-color="#8B0807"/>
<stop offset="0.52" stop-color="#870606"/>
<stop offset="0.62" stop-color="#8C0707"/>
<stop offset="0.73" stop-color="#9A0808"/>
<stop offset="0.85" stop-color="#B20B0B"/>
<stop offset="0.97" stop-color="#D30E0E"/>
<stop offset="1" stop-color="#DB0F0F"/>
</linearGradient>
<linearGradient id="paint17_linear_6297_50507" x1="135.633" y1="216.887" x2="165.889" y2="216.887" gradientUnits="userSpaceOnUse">
<stop stop-color="#DE3C14"/>
<stop offset="0.07" stop-color="#C72E10"/>
<stop offset="0.19" stop-color="#AB1C0C"/>
<stop offset="0.3" stop-color="#971009"/>
<stop offset="0.41" stop-color="#8B0807"/>
<stop offset="0.52" stop-color="#870606"/>
<stop offset="0.62" stop-color="#8C0707"/>
<stop offset="0.73" stop-color="#9A0808"/>
<stop offset="0.85" stop-color="#B20B0B"/>
<stop offset="0.97" stop-color="#D30E0E"/>
<stop offset="1" stop-color="#DB0F0F"/>
</linearGradient>
<linearGradient id="paint18_linear_6297_50507" x1="95.1094" y1="216.887" x2="125.353" y2="216.887" gradientUnits="userSpaceOnUse">
<stop stop-color="#B41E2D"/>
<stop offset="1" stop-color="#E54136"/>
</linearGradient>
<linearGradient id="paint19_linear_6297_50507" x1="135.633" y1="216.887" x2="165.889" y2="216.887" gradientUnits="userSpaceOnUse">
<stop stop-color="#B41E2D"/>
<stop offset="1" stop-color="#E54136"/>
</linearGradient>
<linearGradient id="paint20_linear_6297_50507" x1="74.0443" y1="182.539" x2="74.0443" y2="156.65" gradientUnits="userSpaceOnUse">
<stop stop-color="#CA6B34"/>
<stop offset="0.67" stop-color="#FFA933"/>
<stop offset="1" stop-color="#FFBD2B"/>
</linearGradient>
<linearGradient id="paint21_linear_6297_50507" x1="76.9753" y1="168.603" x2="76.9753" y2="180.693" gradientUnits="userSpaceOnUse">
<stop stop-color="#C10065"/>
<stop offset="1" stop-color="white"/>
</linearGradient>
<linearGradient id="paint22_linear_6297_50507" x1="186.955" y1="182.539" x2="186.955" y2="156.65" gradientUnits="userSpaceOnUse">
<stop stop-color="#CA6B34"/>
<stop offset="0.67" stop-color="#FFA933"/>
<stop offset="1" stop-color="#FFBD2B"/>
</linearGradient>
<linearGradient id="paint23_linear_6297_50507" x1="184.028" y1="168.603" x2="184.028" y2="180.693" gradientUnits="userSpaceOnUse">
<stop stop-color="#C10065"/>
<stop offset="1" stop-color="white"/>
</linearGradient>
<linearGradient id="paint24_linear_6297_50507" x1="130.683" y1="218.085" x2="130.683" y2="115.164" gradientUnits="userSpaceOnUse">
<stop stop-color="#CA6B34"/>
<stop offset="0.67" stop-color="#FFA933"/>
<stop offset="1" stop-color="#FFBD2B"/>
</linearGradient>
<linearGradient id="paint25_linear_6297_50507" x1="130.681" y1="97.062" x2="130.681" y2="200.519" gradientUnits="userSpaceOnUse">
<stop stop-color="#CA6B34"/>
<stop offset="0.17" stop-color="#CC6E34"/>
<stop offset="0.29" stop-color="#D27733"/>
<stop offset="0.39" stop-color="#DB8631"/>
<stop offset="0.48" stop-color="#E99B2F"/>
<stop offset="0.57" stop-color="#FBB72C"/>
<stop offset="0.59" stop-color="#FFBD2B"/>
<stop offset="1" stop-color="#FFA933"/>
</linearGradient>
<linearGradient id="paint26_linear_6297_50507" x1="130.682" y1="202.826" x2="130.682" y2="109.2" gradientUnits="userSpaceOnUse">
<stop stop-color="#B75014"/>
<stop offset="0.38" stop-color="#E8692A"/>
<stop offset="1" stop-color="#F58E2F"/>
</linearGradient>
<linearGradient id="paint27_linear_6297_50507" x1="88.8045" y1="159.307" x2="88.8045" y2="187.542" gradientUnits="userSpaceOnUse">
<stop stop-color="#C10065"/>
<stop offset="1" stop-color="white"/>
</linearGradient>
<linearGradient id="paint28_linear_6297_50507" x1="172.379" y1="159.307" x2="172.379" y2="187.542" gradientUnits="userSpaceOnUse">
<stop stop-color="#C10065"/>
<stop offset="1" stop-color="white"/>
</linearGradient>
<linearGradient id="paint29_linear_6297_50507" x1="108.586" y1="185.108" x2="108.586" y2="214.291" gradientUnits="userSpaceOnUse">
<stop stop-color="#C10065"/>
<stop offset="1" stop-color="white"/>
</linearGradient>
<linearGradient id="paint30_linear_6297_50507" x1="152.776" y1="185.123" x2="152.776" y2="214.867" gradientUnits="userSpaceOnUse">
<stop stop-color="#C10065"/>
<stop offset="1" stop-color="white"/>
</linearGradient>
<linearGradient id="paint31_linear_6297_50507" x1="130.501" y1="114.442" x2="130.501" y2="189.04" gradientUnits="userSpaceOnUse">
<stop stop-color="#CA6B34"/>
<stop offset="0.67" stop-color="#FFA933"/>
<stop offset="1" stop-color="#FFBD2B"/>
</linearGradient>
<linearGradient id="paint32_linear_6297_50507" x1="130.501" y1="199.894" x2="130.501" y2="166.581" gradientUnits="userSpaceOnUse">
<stop stop-color="#F1CB3C"/>
<stop offset="1" stop-color="#FFC14F"/>
</linearGradient>
<linearGradient id="paint33_linear_6297_50507" x1="155.367" y1="158.223" x2="155.367" y2="196.614" gradientUnits="userSpaceOnUse">
<stop stop-color="#C10065"/>
<stop offset="1" stop-color="white"/>
</linearGradient>
<linearGradient id="paint34_linear_6297_50507" x1="130.501" y1="102.264" x2="130.501" y2="176.862" gradientUnits="userSpaceOnUse">
<stop stop-color="#CA6B34"/>
<stop offset="0.67" stop-color="#FFA933"/>
<stop offset="1" stop-color="#FFBD2B"/>
</linearGradient>
<linearGradient id="paint35_linear_6297_50507" x1="130.501" y1="183.912" x2="130.501" y2="150.599" gradientUnits="userSpaceOnUse">
<stop stop-color="#F1CB3C"/>
<stop offset="1" stop-color="#FFC14F"/>
</linearGradient>
<linearGradient id="paint36_linear_6297_50507" x1="155.367" y1="142.239" x2="155.367" y2="180.63" gradientUnits="userSpaceOnUse">
<stop stop-color="#C10065"/>
<stop offset="1" stop-color="white"/>
</linearGradient>
<linearGradient id="paint37_linear_6297_50507" x1="130.753" y1="161.203" x2="130.753" y2="125.532" gradientUnits="userSpaceOnUse">
<stop stop-color="#CA6B34"/>
<stop offset="0.67" stop-color="#FFA933"/>
<stop offset="1" stop-color="#FFBD2B"/>
</linearGradient>
<linearGradient id="paint38_linear_6297_50507" x1="123.188" y1="142.089" x2="123.188" y2="149.775" gradientUnits="userSpaceOnUse">
<stop stop-color="#C10065"/>
<stop offset="1" stop-color="white"/>
</linearGradient>
<linearGradient id="paint39_linear_6297_50507" x1="138.491" y1="142.089" x2="138.491" y2="149.775" gradientUnits="userSpaceOnUse">
<stop stop-color="#C10065"/>
<stop offset="1" stop-color="white"/>
</linearGradient>
<linearGradient id="paint40_linear_6297_50507" x1="126.105" y1="146.294" x2="126.105" y2="160.642" gradientUnits="userSpaceOnUse">
<stop stop-color="#C10065"/>
<stop offset="1" stop-color="white"/>
</linearGradient>
<linearGradient id="paint41_linear_6297_50507" x1="135.441" y1="146.294" x2="135.441" y2="160.642" gradientUnits="userSpaceOnUse">
<stop stop-color="#C10065"/>
<stop offset="1" stop-color="white"/>
</linearGradient>
<linearGradient id="paint42_linear_6297_50507" x1="132.099" y1="132.98" x2="134.348" y2="152.978" gradientUnits="userSpaceOnUse">
<stop stop-color="#BFD7FF"/>
<stop offset="1"/>
</linearGradient>
<linearGradient id="paint43_linear_6297_50507" x1="130.973" y1="143.399" x2="146.01" y2="143.399" gradientUnits="userSpaceOnUse">
<stop stop-color="#BFD7FF"/>
<stop offset="1"/>
</linearGradient>
<linearGradient id="paint44_linear_6297_50507" x1="137.244" y1="132.407" x2="139.493" y2="152.406" gradientUnits="userSpaceOnUse">
<stop stop-color="#BFD7FF"/>
<stop offset="1"/>
</linearGradient>
<linearGradient id="paint45_linear_6297_50507" x1="122.122" y1="134.104" x2="124.371" y2="154.102" gradientUnits="userSpaceOnUse">
<stop stop-color="#BFD7FF"/>
<stop offset="1"/>
</linearGradient>
<linearGradient id="paint46_linear_6297_50507" x1="108.743" y1="139.144" x2="108.743" y2="122.649" gradientUnits="userSpaceOnUse">
<stop stop-color="#CA6B34"/>
<stop offset="0.67" stop-color="#FFA933"/>
<stop offset="1" stop-color="#FFBD2B"/>
</linearGradient>
<linearGradient id="paint47_linear_6297_50507" x1="105.233" y1="130.298" x2="105.233" y2="133.854" gradientUnits="userSpaceOnUse">
<stop stop-color="#C10065"/>
<stop offset="1" stop-color="white"/>
</linearGradient>
<linearGradient id="paint48_linear_6297_50507" x1="112.315" y1="130.298" x2="112.315" y2="133.854" gradientUnits="userSpaceOnUse">
<stop stop-color="#C10065"/>
<stop offset="1" stop-color="white"/>
</linearGradient>
<linearGradient id="paint49_linear_6297_50507" x1="106.588" y1="132.245" x2="106.588" y2="138.883" gradientUnits="userSpaceOnUse">
<stop stop-color="#C10065"/>
<stop offset="1" stop-color="white"/>
</linearGradient>
<linearGradient id="paint50_linear_6297_50507" x1="110.898" y1="132.245" x2="110.898" y2="138.883" gradientUnits="userSpaceOnUse">
<stop stop-color="#C10065"/>
<stop offset="1" stop-color="white"/>
</linearGradient>
<linearGradient id="paint51_linear_6297_50507" x1="109.361" y1="126.093" x2="110.402" y2="135.344" gradientUnits="userSpaceOnUse">
<stop stop-color="#BFD7FF"/>
<stop offset="1"/>
</linearGradient>
<linearGradient id="paint52_linear_6297_50507" x1="108.84" y1="130.91" x2="115.789" y2="130.91" gradientUnits="userSpaceOnUse">
<stop stop-color="#BFD7FF"/>
<stop offset="1"/>
</linearGradient>
<linearGradient id="paint53_linear_6297_50507" x1="111.733" y1="125.82" x2="112.774" y2="135.071" gradientUnits="userSpaceOnUse">
<stop stop-color="#BFD7FF"/>
<stop offset="1"/>
</linearGradient>
<linearGradient id="paint54_linear_6297_50507" x1="104.737" y1="126.606" x2="105.777" y2="135.857" gradientUnits="userSpaceOnUse">
<stop stop-color="#BFD7FF"/>
<stop offset="1"/>
</linearGradient>
<linearGradient id="paint55_linear_6297_50507" x1="152.911" y1="139.144" x2="152.911" y2="122.649" gradientUnits="userSpaceOnUse">
<stop stop-color="#CA6B34"/>
<stop offset="0.67" stop-color="#FFA933"/>
<stop offset="1" stop-color="#FFBD2B"/>
</linearGradient>
<linearGradient id="paint56_linear_6297_50507" x1="149.413" y1="130.298" x2="149.413" y2="133.854" gradientUnits="userSpaceOnUse">
<stop stop-color="#C10065"/>
<stop offset="1" stop-color="white"/>
</linearGradient>
<linearGradient id="paint57_linear_6297_50507" x1="156.494" y1="130.298" x2="156.494" y2="133.854" gradientUnits="userSpaceOnUse">
<stop stop-color="#C10065"/>
<stop offset="1" stop-color="white"/>
</linearGradient>
<linearGradient id="paint58_linear_6297_50507" x1="150.755" y1="132.245" x2="150.755" y2="138.883" gradientUnits="userSpaceOnUse">
<stop stop-color="#C10065"/>
<stop offset="1" stop-color="white"/>
</linearGradient>
<linearGradient id="paint59_linear_6297_50507" x1="155.078" y1="132.245" x2="155.078" y2="138.883" gradientUnits="userSpaceOnUse">
<stop stop-color="#C10065"/>
<stop offset="1" stop-color="white"/>
</linearGradient>
<linearGradient id="paint60_linear_6297_50507" x1="153.541" y1="126.093" x2="154.568" y2="135.344" gradientUnits="userSpaceOnUse">
<stop stop-color="#BFD7FF"/>
<stop offset="1"/>
</linearGradient>
<linearGradient id="paint61_linear_6297_50507" x1="153.007" y1="130.91" x2="159.969" y2="130.91" gradientUnits="userSpaceOnUse">
<stop stop-color="#BFD7FF"/>
<stop offset="1"/>
</linearGradient>
<linearGradient id="paint62_linear_6297_50507" x1="155.913" y1="125.82" x2="156.954" y2="135.071" gradientUnits="userSpaceOnUse">
<stop stop-color="#BFD7FF"/>
<stop offset="1"/>
</linearGradient>
<linearGradient id="paint63_linear_6297_50507" x1="148.916" y1="126.606" x2="149.957" y2="135.857" gradientUnits="userSpaceOnUse">
<stop stop-color="#BFD7FF"/>
<stop offset="1"/>
</linearGradient>
<linearGradient id="paint64_linear_6297_50507" x1="148.5" y1="-0.5" x2="104" y2="22.5" gradientUnits="userSpaceOnUse">
<stop stop-color="#C68C43"/>
<stop offset="0.119792" stop-color="#F5BA6E"/>
<stop offset="0.286458" stop-color="#C68C43"/>
<stop offset="0.5625" stop-color="#C68C43"/>
<stop offset="0.770833" stop-color="#EEB873"/>
<stop offset="1" stop-color="#C68C43"/>
</linearGradient>
<linearGradient id="paint65_linear_6297_50507" x1="84.5" y1="60.5" x2="32.0032" y2="111.503" gradientUnits="userSpaceOnUse">
<stop stop-color="white" stop-opacity="0"/>
<stop offset="0.440223" stop-color="white"/>
<stop offset="1" stop-color="white" stop-opacity="0"/>
</linearGradient>
</defs>
</svg>
