<svg width="131" height="31" viewBox="0 0 131 31" fill="none" xmlns="http://www.w3.org/2000/svg">
<g clipPath="url(#clip0_5677_41977)">
<path d="M124.889 0H104.215L102.708 8.8825L103.001 10.135L104.633 1.80036L107.688 13.9702L104.465 28.7218L102.749 19.3692L102.414 21.208L104.005 30.326H125.057L130.54 13.9692L124.889 0ZM112.376 1.95603L119.156 6.10362L117.566 1.95603H122.086L125.727 11.3086H121.751L114.845 6.96488L116.185 11.2692H111.414L108.652 1.95603H112.376ZM124.513 29.6215H105.135L108.525 14.0086H129.744L124.513 29.6215Z" fill="url(#paint0_linear_5677_41977)"/>
<path d="M121.075 16.5117L119.568 21.4033L115.509 16.5117H111.407L108.812 27.1946H113.417L114.715 22.4991L118.774 27.1946H122.541L125.972 16.5117H121.075Z" fill="url(#paint1_linear_5677_41977)"/>
<path d="M100.444 0.15625H79.6865L79.3516 11.0342L80.062 3.83379L80.6067 13.9293L80.23 24.8073L79.3516 18.7421L79.9786 30.3256H100.486L103.541 13.9688L100.444 0.15625ZM92.8271 2.03444L94.2919 11.2697H89.4791L88.1812 2.07387L92.8271 2.03444ZM99.8592 29.5816H80.8998L81.4445 13.9688H102.748L99.8592 29.5816Z" fill="url(#paint2_linear_5677_41977)"/>
<path d="M88.4375 27.5111H93.0834L94.4648 16.7109H89.5674L88.4375 27.5111Z" fill="url(#paint3_linear_5677_41977)"/>
<path d="M55.1996 0.15625L53.1484 14.0476L55.3665 30.3256H75.9169L76.0849 13.6948L75.9169 0.15625H55.1996ZM59.5106 2.11228H67.2114C67.2114 2.11228 72.1923 2.46406 72.234 5.43804C72.2757 8.41201 66.4581 8.92048 66.4581 8.92048H63.5285L63.277 11.3071H58.339L59.5106 2.11228ZM75.0802 29.621H55.9946L53.9017 14.1254L75.2471 14.1649L75.0802 29.621Z" fill="url(#paint4_linear_5677_41977)"/>
<path d="M67.4267 5.36068C67.4267 4.34375 66.0871 4.34375 66.0871 4.34375H63.87L63.7031 6.57373H66.0464C66.0464 6.53531 67.4267 6.3392 67.4267 5.36068Z" fill="url(#paint5_linear_5677_41977)"/>
<path d="M59.9714 27.3547H63.8223L65.2871 23.0505L67.1703 27.3547H70.9367L74.3265 16.6719H70.1417L68.8021 21.524L66.6257 16.6719H63.3194L61.6031 21.4068L59.9714 16.6719H55.4089H55.3672L59.9714 27.3547Z" fill="url(#paint6_linear_5677_41977)"/>
<path d="M48.3805 16.5131L50.6403 3.36475L52.7332 12.3645L51.0598 0.15625H30.0493L25.9062 16.5131L31.0123 30.0133L51.6461 29.8172L53.111 16.8255L51.1015 28.3302L48.3805 16.5131ZM35.8669 8.68697C34.9467 8.41302 33.3973 7.70845 33.3973 6.37814C33.3973 5.04784 34.5272 3.91264 35.197 3.52143C35.8669 3.13022 37.5831 2.23055 40.638 2.23055C43.6928 2.23055 45.8275 3.16965 45.8275 3.16965L43.9443 5.71299C43.9443 5.71299 43.6094 5.59573 43.2327 5.43905C42.8561 5.32179 41.6844 4.93058 40.0934 4.89116C38.4616 4.85072 38.1684 5.47746 38.1684 5.59472C38.1267 5.71198 38.0432 6.10319 39.9682 6.33771C41.8514 6.57223 43.2327 6.96344 43.8608 7.19897C44.4889 7.47292 45.3256 8.29475 45.3256 9.155C45.3256 10.0163 45.117 10.6814 44.154 11.5811C43.191 12.4808 41.5175 13.3026 37.7501 13.342C33.9837 13.3814 31.8073 12.3251 31.8073 12.3251C31.8073 12.3251 33.9837 9.62506 34.0254 9.62506C34.0254 9.62506 34.4855 9.85958 35.2805 10.1729C36.0755 10.4863 37.8335 10.7208 38.3771 10.7208C38.9217 10.7208 40.2603 10.6814 40.5117 9.97785C40.7214 9.27327 36.7871 8.96091 35.8669 8.68697ZM31.5976 29.3087L26.743 16.5909L47.5438 16.5131L50.4734 29.1126L31.5976 29.3087Z" fill="url(#paint7_linear_5677_41977)"/>
<path d="M46.7503 23.8299H44.9922L44.5739 22.4602H40.0959L40.3891 23.8299L38.6311 23.7905L42.5238 18.7422H37.5012L33.1484 24.2989L33.8183 26.1771L41.0172 26.2165L41.4773 27.7035H45.998L45.6214 26.1771H47.4211L46.7503 23.8299Z" fill="url(#paint8_linear_5677_41977)"/>
<path d="M29.3811 26.4505L28.9627 28.2893L22.2656 21.9107L25.237 2.15025L28.1666 6.49396L28.4181 5.51543L25.2787 0.859375L3.47428 1.05447L0 21.8723L9.24907 28.7593L29.5897 28.9555L29.8829 27.7424L29.3811 26.4505ZM9.96061 4.06787L10.0023 4.02845H17.2013L15.2753 17.8804H10.3373L11.8449 7.58974H9.41599L9.96061 4.06787ZM9.54224 27.9769L1.29684 21.8723H21.1357L27.79 28.2115L9.54224 27.9769Z" fill="url(#paint9_linear_5677_41977)"/>
<path d="M17.0349 24.4167L12.3889 22.8125L11.5939 24.4167L6.90625 24.7301L12.054 26.0604L13.3519 27.6647L17.16 26.9207L22.601 27.7031L20.1732 26.02L22.5593 24.7291L17.0349 24.4167Z" fill="url(#paint10_linear_5677_41977)"/>
</g>
<defs>
<linearGradient id="paint0_linear_5677_41977" x1="115.494" y1="30.745" x2="117.042" y2="1.09639" gradientUnits="userSpaceOnUse">
<stop stop-color="white"/>
<stop offset="0.5045" stop-color="#D6DADD"/>
<stop offset="1" stop-color="white"/>
</linearGradient>
<linearGradient id="paint1_linear_5677_41977" x1="115.921" y1="28.9803" x2="117.88" y2="18.3437" gradientUnits="userSpaceOnUse">
<stop stop-color="#FEFE00"/>
<stop offset="1" stop-color="#F8AD00"/>
</linearGradient>
<linearGradient id="paint2_linear_5677_41977" x1="91.5661" y1="30.157" x2="91.3373" y2="0.585758" gradientUnits="userSpaceOnUse">
<stop stop-color="white"/>
<stop offset="0.5045" stop-color="#D6DADD"/>
<stop offset="1" stop-color="white"/>
</linearGradient>
<linearGradient id="paint3_linear_5677_41977" x1="90.7729" y1="28.8961" x2="91.7216" y2="18.2662" gradientUnits="userSpaceOnUse">
<stop stop-color="#FEFE00"/>
<stop offset="1" stop-color="#F8AD00"/>
</linearGradient>
<linearGradient id="paint4_linear_5677_41977" x1="64.3278" y1="30.5965" x2="65.0318" y2="-1.76169" gradientUnits="userSpaceOnUse">
<stop stop-color="white"/>
<stop offset="0.5045" stop-color="#D6DADD"/>
<stop offset="1" stop-color="white"/>
</linearGradient>
<linearGradient id="paint5_linear_5677_41977" x1="65.4679" y1="30.8729" x2="65.5778" y2="-0.850946" gradientUnits="userSpaceOnUse">
<stop stop-color="white"/>
<stop offset="0.5045" stop-color="#D6DADD"/>
<stop offset="1" stop-color="white"/>
</linearGradient>
<linearGradient id="paint6_linear_5677_41977" x1="65.1667" y1="29.4574" x2="64.9201" y2="18.4314" gradientUnits="userSpaceOnUse">
<stop stop-color="#FEFE00"/>
<stop offset="1" stop-color="#F8AD00"/>
</linearGradient>
<linearGradient id="paint7_linear_5677_41977" x1="39.4209" y1="30.7934" x2="39.5928" y2="-0.267823" gradientUnits="userSpaceOnUse">
<stop stop-color="white"/>
<stop offset="0.5045" stop-color="#D6DADD"/>
<stop offset="1" stop-color="white"/>
</linearGradient>
<linearGradient id="paint8_linear_5677_41977" x1="41.7453" y1="30.3571" x2="39.2888" y2="20.7029" gradientUnits="userSpaceOnUse">
<stop stop-color="#FEFE00"/>
<stop offset="1" stop-color="#F8AD00"/>
</linearGradient>
<linearGradient id="paint9_linear_5677_41977" x1="14.8482" y1="29.4626" x2="15.3491" y2="1.49706" gradientUnits="userSpaceOnUse">
<stop stop-color="#FEFE00"/>
<stop offset="0.2698" stop-color="#F8AD00"/>
<stop offset="0.799" stop-color="#F9BE00"/>
<stop offset="1" stop-color="#FDF400"/>
</linearGradient>
<linearGradient id="paint10_linear_5677_41977" x1="15.1484" y1="28.8783" x2="12.6018" y2="0.431454" gradientUnits="userSpaceOnUse">
<stop stop-color="#FEFE00"/>
<stop offset="0.3763" stop-color="#F8AD00"/>
<stop offset="0.799" stop-color="#F9BE00"/>
<stop offset="1" stop-color="#FDF400"/>
</linearGradient>
<clipPath id="clip0_5677_41977">
<rect width="130.54" height="30.326" fill="white"/>
</clipPath>
</defs>
</svg>
