<svg width="117" height="44" viewBox="0 0 117 44" fill="none" xmlns="http://www.w3.org/2000/svg">
<g clipPath="url(#clip0_5687_41883)">
<path d="M91.7234 9.13672C91.1384 9.13672 90.6704 9.36236 90.3194 9.70082C89.9684 10.0393 89.7344 10.4906 89.7344 11.0547C89.7344 11.6188 89.9684 12.0701 90.3194 12.4085C90.6704 12.747 91.1384 12.9726 91.7234 12.9726C92.3084 12.9726 92.7764 12.747 93.1274 12.4085C93.4784 12.0701 93.7124 11.6188 93.7124 11.0547C93.7124 10.4906 93.4784 10.0393 93.1274 9.70082C92.7764 9.24954 92.3084 9.13672 91.7234 9.13672Z" fill="#009344"/>
<path d="M93.4789 13.875H90.0859V25.0442H93.4789V13.875Z" fill="white"/>
<path d="M104.359 15.1185C104.008 14.6673 103.657 14.3288 103.072 13.9903C102.487 13.7647 101.785 13.5391 100.966 13.5391C100.498 13.5391 100.147 13.5391 99.7961 13.6519C99.4451 13.7647 99.0941 13.8775 98.8601 14.1032C98.6261 14.216 98.3921 14.4416 98.1581 14.6673C97.9241 14.8929 97.8071 15.1186 97.6901 15.3442V13.8775H94.4141V25.0468H97.8071V19.5185C97.8071 19.1801 97.8071 18.8416 97.9241 18.5032C97.9241 18.1647 98.0411 17.8262 98.1581 17.6006C98.2751 17.375 98.5091 17.1493 98.7431 16.9237C98.9771 16.698 99.3281 16.698 99.7961 16.698C100.264 16.698 100.615 16.8109 100.849 16.9237C101.083 17.1493 101.317 17.375 101.317 17.6006C101.434 17.9391 101.551 18.1647 101.551 18.5032C101.551 18.8416 101.551 19.1801 101.551 19.5185V24.9339H104.944V18.8416C104.944 18.0519 104.944 17.375 104.827 16.8109C104.944 16.1339 104.71 15.5698 104.359 15.1185Z" fill="white"/>
<path d="M114.072 13.878V15.3447C113.955 15.119 113.721 15.0062 113.604 14.7805C113.37 14.5549 113.136 14.4421 112.785 14.2164C112.434 14.1036 112.2 13.878 111.732 13.7652C111.264 13.6523 110.913 13.6523 110.445 13.6523C109.743 13.6523 109.041 13.7652 108.456 14.1036C107.871 14.4421 107.403 14.8934 106.935 15.3447C106.584 15.9088 106.233 16.4729 105.999 17.1498C105.765 17.8267 105.648 18.5036 105.648 19.1805C105.648 19.9703 105.765 20.76 105.999 21.437C106.233 22.1139 106.584 22.678 107.052 23.2421C107.52 23.8062 107.988 24.1447 108.69 24.3703C109.392 24.5959 109.977 24.8216 110.796 24.8216C111.264 24.8216 111.849 24.7088 112.317 24.4831C112.785 24.2575 113.37 23.919 113.721 23.3549V24.3703C113.721 25.16 113.487 25.7241 113.019 26.2882C112.668 26.7395 112.083 27.078 111.147 27.078C110.445 27.078 109.743 27.078 109.158 26.8523C108.573 26.6267 108.105 26.5139 107.52 26.0626L106.935 28.7703C107.871 29.2216 107.637 29.2216 108.573 29.4472C109.509 29.6729 110.562 29.7857 111.498 29.7857C113.487 29.7857 114.657 29.3344 115.593 28.2062C116.529 27.1908 117.114 25.6113 117.114 23.5805V13.7652H114.072V13.878ZM113.604 20.5344C113.487 20.8729 113.37 21.2113 113.136 21.437C112.902 21.6626 112.668 21.8882 112.434 22.1139C112.2 22.2267 111.849 22.3395 111.498 22.3395C111.147 22.3395 110.913 22.2267 110.562 22.1139C110.328 22.0011 110.094 21.7754 109.86 21.437C109.626 21.2113 109.509 20.8729 109.392 20.5344C109.275 20.1959 109.275 19.8575 109.275 19.4062C109.275 18.9549 109.275 18.6164 109.392 18.278C109.509 17.9395 109.626 17.6011 109.86 17.3754C110.094 17.1498 110.328 16.9241 110.562 16.6985C110.796 16.5857 111.147 16.4729 111.498 16.4729C111.849 16.4729 112.083 16.5857 112.434 16.6985C112.785 16.8113 112.902 17.037 113.136 17.3754C113.37 17.6011 113.487 17.9395 113.604 18.278C113.721 18.6164 113.721 18.9549 113.721 19.4062C113.838 19.8575 113.721 20.1959 113.604 20.5344Z" fill="white"/>
<path d="M88.1068 15.0062C87.8728 14.5549 87.4048 14.2164 86.9368 13.9908C86.4688 13.7652 85.7667 13.6523 85.0647 13.6523C84.2457 13.6523 83.5438 13.7652 83.0758 14.1036C82.4908 14.4421 82.0228 14.8934 81.6718 15.6831C81.3208 15.0062 80.9697 14.4421 80.3847 14.2164C79.7997 13.878 79.0978 13.7652 78.3958 13.7652C78.0448 13.7652 77.5768 13.7652 77.2258 13.878C76.8748 13.9908 76.5237 14.1036 76.2897 14.3293C76.0557 14.5549 75.8217 14.6677 75.5877 14.8934C75.3537 15.119 75.2367 15.3447 75.1197 15.5703V14.1036H71.8438V25.2729H75.2368V19.7447C75.2368 19.4062 75.2368 19.0677 75.3538 18.7293C75.3538 18.3908 75.4707 18.0523 75.5877 17.8267C75.7047 17.6011 75.9387 17.3754 76.1727 17.1498C76.4067 16.9241 76.7578 16.9241 77.2258 16.9241C77.5768 16.9241 77.9278 17.037 78.1618 17.1498C78.3958 17.3754 78.5127 17.6011 78.6297 17.8267C78.7467 18.0523 78.7468 18.3908 78.7468 18.6164C78.7468 18.9549 78.7468 19.1805 78.7468 19.4062V25.2729H82.1397V19.1805C82.1397 18.8421 82.1398 18.5036 82.2568 18.1652C82.3738 17.8267 82.4908 17.6011 82.6078 17.3754C82.7248 17.1498 82.9588 16.9241 83.1928 16.8113C83.4268 16.6985 83.7778 16.5857 84.1288 16.5857C84.7138 16.5857 85.0648 16.8113 85.2988 17.1498C85.5328 17.4882 85.6497 17.9395 85.6497 18.5036V25.0472H88.9258V18.5036C88.9258 17.8267 88.8088 17.1498 88.6918 16.5857C88.5748 16.0216 88.3408 15.4575 88.1068 15.0062Z" fill="white"/>
<path d="M36.8562 4.85156L30.7722 13.0875H32.0592L25.5072 21.7746L32.0592 31.0259H27.3792L23.0502 25.0464L18.4872 31.0259H17.5512L10.5312 40.6157C14.0412 42.7593 18.1362 44.0003 22.5822 44.0003C35.1012 44.0003 45.2802 34.1849 45.2802 22.1131V21.7746C45.2802 15.0054 42.0042 8.80028 36.8562 4.85156ZM42.8232 17.0362C42.8232 18.5028 42.9402 19.1798 42.2382 20.1952C41.5362 21.2105 40.7172 21.6618 39.5472 22.5644C38.3772 23.4669 36.5052 25.0464 36.5052 25.949C36.5052 26.1746 36.5052 26.6259 36.5052 27.4157H42.5892V29.6721H32.4102C32.4102 28.2054 32.4102 27.19 32.4102 26.6259C32.4102 25.7234 32.4102 25.3849 32.4102 25.0464C32.4102 24.708 33.1122 23.6926 34.0482 22.79C34.8672 22.0003 36.0372 21.0977 36.8562 20.4208C37.9092 19.631 38.7282 18.8413 38.8452 18.6157C38.8452 18.2772 38.8452 18.0516 38.8452 17.7131C38.8452 17.149 38.8452 16.4721 38.8452 16.3593C38.8452 15.3439 38.0262 15.3439 37.5582 15.3439C36.7392 15.3439 36.2712 15.7952 36.2712 16.3593C36.2712 16.8105 36.2712 17.2618 36.2712 17.7131L32.2932 20.5336C32.2932 18.39 32.2932 17.3746 32.2932 17.2618C32.2932 16.8105 32.2932 15.0054 33.4632 14.2157C34.5162 13.4259 34.9842 13.0875 37.3242 13.0875C39.7812 13.0875 41.1852 13.5387 41.7702 14.2157C42.4722 14.8926 42.8232 15.5695 42.8232 17.0362Z" fill="#939597"/>
<path d="M69.7279 15.119C69.3769 14.6677 68.9089 14.2164 68.3239 13.9908C67.7389 13.7652 66.9199 13.6523 65.9839 13.6523C65.1649 13.6523 64.4629 13.6523 63.4099 13.878C62.3569 14.1036 62.2399 14.2164 61.3039 14.6677L62.1229 16.6985C62.8249 16.4729 63.5269 16.1344 64.1119 16.0216C64.6969 15.9088 64.9309 15.9088 65.3989 15.9088C65.9839 15.9088 66.4519 16.0216 66.8029 16.36C67.1539 16.6985 67.2709 17.1498 67.2709 17.7139C66.8029 17.7139 66.8029 17.8267 66.2179 17.8267C65.6329 17.8267 65.2819 18.0523 64.8139 18.0523C64.3459 18.1652 63.7609 18.278 63.2929 18.3908C62.8249 18.5036 62.3569 18.8421 62.0059 19.1805C61.6549 19.519 61.3039 19.8575 61.0699 20.3088C60.8359 20.76 60.8359 21.2113 60.8359 21.8882C60.8359 22.4523 60.9529 22.9036 61.1869 23.3549C61.4209 23.8062 61.6549 24.1447 62.0059 24.4831C62.3569 24.8216 62.7079 24.9344 63.1759 25.16C63.6439 25.2729 64.1119 25.3857 64.5799 25.3857C65.2819 25.3857 65.8669 25.2729 66.4519 25.0472C67.0369 24.8216 67.5049 24.3703 67.8559 23.8062V25.16H70.7809V19.519C70.7809 18.6164 70.6639 17.8267 70.5469 17.037C70.4299 16.2472 70.1959 15.5703 69.7279 15.119ZM67.3879 20.6472C67.3879 20.9857 67.3879 21.3241 67.2709 21.6626C67.1539 22.0011 67.0369 22.2267 66.8029 22.3395C66.5689 22.5652 66.3349 22.678 66.1009 22.7908C65.8669 22.9036 65.6329 22.9036 65.2819 22.9036C64.9309 22.9036 64.6969 22.7908 64.4629 22.5652C64.2289 22.3395 63.9949 22.0011 63.9949 21.5498C63.9949 21.0985 64.1119 20.76 64.3459 20.5344C64.5799 20.3088 64.8139 20.0831 65.0479 19.9703C65.2819 19.8575 65.6329 19.7447 65.9839 19.7447C66.3349 19.7447 66.5689 19.7447 66.8029 19.7447H67.5049L67.3879 20.6472Z" fill="white"/>
<path d="M13.455 31.1399L20.007 22.4527L13.338 13.2014H18.252L22.581 19.1809L27.144 13.2014H28.08L35.1 3.61168C31.59 1.35527 27.378 0.114244 22.815 0.114244C10.179 0.00142366 0 9.81681 0 21.8886V22.2271C0 29.2219 3.393 35.4271 8.658 39.3758L14.742 31.1399H13.455ZM12.402 29.786H7.254V16.4732C7.254 15.6835 6.552 15.1194 5.85 15.1194H4.68V13.0886H9.009C10.881 13.0886 12.402 14.5553 12.402 16.3604V29.786Z" fill="#009344"/>
<path d="M57.3301 15.3447C57.2131 15.119 56.9791 15.0062 56.7451 14.7805C56.5111 14.5549 56.2771 14.4421 55.9261 14.2164C55.5751 14.1036 55.3411 13.878 54.8731 13.7652C54.5221 13.6523 54.0541 13.6523 53.5861 13.6523C52.8841 13.6523 52.1821 13.7652 51.5971 14.1036C51.0121 14.4421 50.5441 14.8934 50.0761 15.3447C49.7251 15.9088 49.3741 16.4729 49.1401 17.1498C48.9061 17.8267 48.7891 18.5036 48.7891 19.1805C48.7891 19.9703 48.9061 20.76 49.1401 21.437C49.3741 22.1139 49.7251 22.678 50.1931 23.2421C50.6611 23.8062 51.1291 24.1447 51.8311 24.3703C52.4161 24.5959 53.1181 24.8216 53.9371 24.8216C54.4051 24.8216 54.9901 24.7088 55.4581 24.4831C56.0431 24.2575 56.5111 23.919 56.8621 23.3549V24.3703C56.8621 25.16 56.6281 25.7241 56.1601 26.2882C55.6921 26.7395 55.2241 27.078 54.1711 27.078C53.4691 27.078 52.7671 27.078 52.1821 26.8523C51.5971 26.6267 51.1291 26.5139 50.5441 26.0626L49.9591 28.7703C50.8951 29.2216 50.6611 29.2216 51.5971 29.4472C52.5331 29.6729 53.5861 29.7857 54.5221 29.7857C56.5111 29.7857 57.6811 29.3344 58.6171 28.2062C59.5531 27.1908 60.1381 25.6113 60.1381 23.5805V13.7652H57.3301V15.3447ZM56.8621 20.5344C56.7451 20.8729 56.6281 21.2113 56.3941 21.437C56.1601 21.6626 55.9261 21.8882 55.6921 22.1139C55.4581 22.2267 55.1071 22.3395 54.7561 22.3395C54.4051 22.3395 54.1711 22.2267 53.8201 22.1139C53.5861 22.0011 53.3521 21.7754 53.1181 21.437C52.8841 21.2113 52.7671 20.8729 52.6501 20.5344C52.5331 20.1959 52.5331 19.8575 52.5331 19.4062C52.5331 18.9549 52.5331 18.6164 52.6501 18.278C52.7671 17.9395 52.8841 17.6011 53.1181 17.3754C53.3521 17.1498 53.5861 16.9241 53.8201 16.6985C54.0541 16.4729 54.4051 16.4729 54.7561 16.4729C55.1071 16.4729 55.3411 16.5857 55.6921 16.6985C56.0431 16.8113 56.1601 17.037 56.3941 17.3754C56.6281 17.6011 56.7451 17.9395 56.8621 18.278C56.9791 18.6164 56.9791 18.9549 56.9791 19.4062C56.9791 19.8575 56.9791 20.1959 56.8621 20.5344Z" fill="white"/>
</g>
<defs>
<clipPath id="clip0_5687_41883">
<rect width="117" height="44" fill="white"/>
</clipPath>
</defs>
</svg>
