<svg width="131" height="38" viewBox="0 0 131 38" fill="none" xmlns="http://www.w3.org/2000/svg">
<path d="M16.375 17.16H7.52333L6.19499 21.0642C5.75352 21.8855 5.53213 22.7068 5.53213 23.1186C5.53213 23.528 5.75352 23.9399 5.97491 24.1459C6.41638 24.3518 7.08055 24.5553 8.1875 24.7612V25.379H1.10695V24.7612C1.99251 24.5553 2.65537 24.3518 2.87676 23.9399C3.54093 23.3246 4.2051 22.2949 4.86927 20.4464L12.6127 0.3125H13.2768L21.0216 20.6523C21.4643 22.2949 22.1285 23.3221 22.57 23.9399C23.2342 24.3493 23.8983 24.5553 24.7826 24.7612V25.3778H15.9309V24.7612C16.8165 24.5553 17.4806 24.5553 17.702 24.1459C18.1448 23.9399 18.1448 23.528 18.1448 23.1186C18.1448 22.7068 17.9234 21.8855 17.4806 20.6523L16.375 17.16ZM15.7108 15.9268L11.9498 6.06521L8.1875 15.9268H15.7108ZM35.4054 6.88773L40.7161 20.4464L45.8055 6.88773H51.3376V7.50308C50.6747 7.50308 50.2319 7.70779 50.0106 7.70779C49.5678 7.91373 49.3464 8.11843 49.125 8.52908C48.9036 8.73502 48.9036 9.14566 48.9036 9.55631V22.4984C48.9036 22.9102 48.9036 23.3221 49.125 23.5256C49.3464 23.9375 49.5678 24.1434 49.7892 24.3493C50.2319 24.5528 50.6747 24.5528 51.3376 24.5528V25.3766H43.5929V24.5528C44.257 24.5528 44.6998 24.5528 44.9212 24.3493C45.1426 24.1434 45.364 23.7315 45.5854 23.5256C45.8068 23.1162 45.8068 22.7043 45.8068 22.2924V9.55753L40.0532 25.3766H39.3891L33.8569 10.38H33.6356V21.4736C33.6356 22.2949 33.6356 22.7068 33.8569 23.1186C33.8569 23.528 34.0783 23.9399 34.2997 24.1459C34.5211 24.3518 34.7425 24.3518 35.184 24.5553H36.5123V25.379H30.0959V24.5553C30.7588 24.5553 31.2016 24.5553 31.6444 24.3518L32.3085 23.734C32.5299 23.3246 32.5299 23.1186 32.5299 22.7068V11.8191V9.96818C32.5299 9.3516 32.5299 8.94095 32.3085 8.53031C32.0871 8.3256 31.8657 7.91495 31.6444 7.70902C31.2016 7.70902 30.7588 7.50431 30.0959 7.50431V6.88773H35.4054ZM57.3125 25.3766V24.554H57.9767C58.1981 24.554 58.4194 24.3481 58.6408 24.1446C58.8622 23.9387 59.0836 23.5268 59.305 23.1174C59.5251 22.7055 59.9679 22.0877 60.1893 21.2664L65.7214 6.26869H66.1642L72.3592 22.2937C72.5792 22.9115 72.8019 23.3209 73.0233 23.5268C73.2447 23.9387 73.4661 24.1446 73.6875 24.3481C73.9089 24.3481 74.1303 24.554 74.3517 24.554H75.0158V25.3766H68.1567V24.554H69.0435L69.4863 24.1446C69.4863 24.1446 69.7064 23.9387 69.7064 23.7328C69.7064 23.5268 69.7064 23.1174 69.4863 22.9115C69.4863 22.7055 69.2636 22.2937 69.2636 22.0877L68.1567 19.6226H62.1818L61.2962 22.0877C61.2962 22.2937 61.0748 22.4996 61.0748 22.7055V23.3209C61.0748 23.5268 61.0748 23.7328 61.2962 23.9387C61.2962 24.1446 61.5176 24.3481 61.739 24.3481C61.739 24.3481 61.9604 24.554 62.1818 24.554H62.6245V25.3766H57.3125ZM62.6232 18.3919H67.7126L65.0572 11.612L62.6232 18.3919ZM92.4952 6.88773L92.7179 11.2026H92.0537C92.0537 10.586 91.8336 9.9694 91.8336 9.55876C91.6109 9.14811 91.3908 8.94218 91.1681 8.53153C90.7254 8.32682 90.504 8.32682 90.2826 8.12089H86.5203V21.476C86.5203 21.8879 86.5203 22.2973 86.743 22.7092C86.743 23.1211 86.743 23.5305 86.963 23.7364C87.187 23.9424 87.4071 24.1483 87.8499 24.3518C88.07 24.5577 88.5128 24.5577 89.1782 24.5577V25.3802H80.9907V24.5565C81.6549 24.5565 82.0977 24.5565 82.5405 24.3506L83.2046 23.7352C83.4273 23.5293 83.4273 23.1199 83.4273 22.708C83.6474 22.2961 83.6474 21.8867 83.6474 21.4748V8.11966H81.2148C80.5493 8.11966 80.1065 8.11966 79.6637 8.32437C79.2209 8.32437 79.0009 8.52908 78.7782 8.94095C78.5581 9.14566 78.3354 9.55753 78.3354 9.96818C78.1153 10.3788 78.1153 10.7895 78.1153 11.2013H77.4498L77.6725 6.8865L92.4952 6.88773ZM107.323 25.3766H99.3583V24.554C100.021 24.554 100.464 24.554 100.684 24.3481C101.127 24.3481 101.351 24.1446 101.351 23.7328C101.571 23.5268 101.794 23.3209 101.794 22.9115V10.5848V9.55753C101.794 9.14689 101.794 8.73624 101.571 8.53031C101.351 8.11966 101.127 7.91495 100.907 7.70902C100.464 7.70902 100.021 7.50431 99.3583 7.50431V6.88773H107.323V7.50308C106.659 7.50308 106.216 7.70779 105.773 7.70779C105.552 7.91373 105.329 8.11843 105.109 8.52908C104.886 8.73502 104.886 9.14566 104.886 9.55631V22.9102C104.886 23.3221 105.109 23.5256 105.109 23.7315C105.329 24.1434 105.552 24.3493 105.995 24.3493C106.216 24.5528 106.659 24.5528 107.323 24.5528V25.3766ZM130.557 12.8451H129.892C129.892 12.6392 129.672 12.4345 129.672 12.0226C129.672 11.8179 129.449 11.612 129.229 11.2013C129.229 10.9954 129.006 10.7907 128.786 10.38C128.786 10.1741 128.566 9.9694 128.343 9.55876C127.899 9.35282 127.679 8.94218 127.236 8.73747C126.794 8.53153 126.571 8.12089 126.128 8.12089L124.804 7.50431H123.474C122.81 7.50431 121.924 7.70902 121.263 8.12089C120.597 8.53153 119.934 8.94218 119.492 9.76469C118.826 10.586 118.383 11.4085 118.163 12.4357C117.941 13.463 117.721 14.6961 117.721 15.928C117.721 17.1612 117.941 18.1884 118.163 19.2144C118.163 20.037 118.606 20.8607 118.826 21.476C119.269 22.0914 119.492 22.5033 119.934 22.9151C120.377 23.3246 120.82 23.7364 121.263 23.9424C121.706 24.1483 122.148 24.3518 122.591 24.3518C123.034 24.5577 123.477 24.5577 123.919 24.5577C124.585 24.5577 125.248 24.5577 125.912 24.1483C126.575 23.9424 127.46 23.5305 128.125 22.9151C128.345 22.7092 128.567 22.2973 128.787 22.0914C129.007 21.8879 129.007 21.682 129.23 21.476C129.45 21.0642 129.673 20.8607 129.673 20.6548C129.893 20.2429 129.893 20.0369 130.116 19.6275L130.78 20.0369C130.559 20.2429 130.559 20.6548 130.337 20.8607L129.673 22.0914C129.45 22.5033 129.23 22.9151 128.787 23.3246C128.345 23.9424 127.901 24.1483 127.458 24.5577C126.795 24.9696 126.129 25.1755 125.465 25.3802C124.802 25.7909 124.137 25.7909 123.254 25.7909C121.926 25.7909 121.043 25.585 119.937 25.1755C118.827 24.5577 117.945 23.9424 117.059 23.1211C116.396 22.2973 115.731 21.2701 115.066 20.2429C114.624 19.0097 114.402 17.7766 114.402 16.3387C114.402 14.9008 114.624 13.6677 115.066 12.4357C115.509 11.2038 116.173 10.1753 117.059 9.14811C117.724 8.32682 118.83 7.71024 119.713 7.09366C120.82 6.68302 121.926 6.27237 123.254 6.27237C124.141 6.27237 124.804 6.47708 125.465 6.68302L126.795 7.2996C127.015 7.2996 127.238 7.50431 127.458 7.50431C127.68 7.70902 127.901 7.70902 127.901 7.70902H128.125L128.345 7.91495C128.345 7.91495 128.345 7.70902 128.567 7.70902C128.567 7.70902 128.787 7.70902 128.787 7.50431C129.007 7.50431 129.007 7.2996 129.007 7.09366C129.23 6.88895 129.23 6.68302 129.23 6.27237H129.893L130.557 12.8451ZM0.22139 30.9258H1.32834V36.882H0.22139V30.9258ZM13.2768 30.9258H13.941L15.4894 35.0347V34.624V34.2122V33.8015V30.9258H16.375V36.882H15.4894L13.941 33.1825V33.8003C14.1624 34.0038 14.1624 34.2097 14.1624 34.4157V36.882H13.2768V30.9258ZM28.3248 30.9258H29.2104C29.4318 30.9258 29.6532 30.9258 29.8745 31.1293H30.3173C30.3173 31.1293 30.5387 31.1293 30.7588 31.3352C30.7588 31.3352 30.9802 31.5411 30.9802 31.7471C31.2016 31.7471 31.2016 31.953 31.423 32.1565V35.6513C31.2016 36.0631 31.2016 36.2679 30.9802 36.2679C30.9802 36.4726 30.7588 36.6785 30.7588 36.6785C30.5387 36.6785 30.3173 36.8844 30.3173 36.8844H28.3248V30.9258ZM29.4305 36.2654H29.8732C30.0946 36.2654 30.0946 36.0607 30.316 36.0607V35.6488V33.1825V32.3612V31.9493C30.0946 31.9493 30.0946 31.7459 29.8732 31.7459H29.2091V36.2654H29.4305ZM43.1501 30.9258H44.0357V35.8548C44.0357 36.0607 44.257 36.0607 44.257 36.0607C44.257 36.2654 44.257 36.2654 44.4784 36.2654H44.9212L45.1426 36.0607V35.8548V30.9258H46.2495V35.2406C46.2495 35.4453 46.0282 35.6513 46.0282 35.8572C46.0282 36.0631 46.0282 36.2679 45.8068 36.4726C45.8068 36.4726 45.8068 36.6785 45.5854 36.6785C45.5854 36.8844 45.364 36.8844 45.364 36.8844C45.1426 36.8844 45.1426 37.0904 44.9212 37.0904H44.257L44.0357 36.8844C43.8143 36.8844 43.8143 36.8844 43.5929 36.6785L43.3715 36.4726C43.3715 36.2679 43.1501 36.0631 43.1501 35.8572V30.9258ZM57.7553 35.8548V35.4429C57.7553 35.2382 57.9767 35.2382 57.9767 35.0322H58.6408V35.8548L58.8622 36.0607C58.8622 36.2654 58.8622 36.2654 59.0836 36.2654H59.7465C59.7465 36.0607 59.9679 36.0607 59.9679 35.8548C59.9679 35.6488 59.9679 35.6488 59.7465 35.4429V35.2382V35.0322C59.5251 35.0322 59.5251 34.8275 59.5251 34.8275L58.4194 33.5944C58.1981 33.3884 58.1981 33.1825 57.9767 32.9766C57.9767 32.7731 57.7553 32.5671 57.7553 32.3612C57.7553 32.1553 57.9767 31.9493 57.9767 31.7459C57.9767 31.5399 58.1981 31.5399 58.1981 31.334C58.4194 31.128 58.4194 31.128 58.6408 31.128C58.8622 30.9221 59.0836 30.9221 59.305 30.9221C59.5251 30.9221 59.7465 30.9221 59.9679 31.128C60.1893 31.128 60.4106 31.334 60.4106 31.334C60.632 31.5399 60.632 31.5399 60.632 31.7459C60.8534 31.9493 60.8534 32.1553 60.8534 32.1553V32.5671C60.632 32.7731 60.632 32.7731 60.632 32.9766H59.9679V32.5671C59.9679 32.3612 59.9679 32.1553 59.7465 31.9493C59.7465 31.7459 59.5251 31.7459 59.305 31.7459H58.8622V32.7731C59.0836 32.7731 59.0836 32.9766 59.0836 32.9766L60.1893 34.2097C60.4106 34.4157 60.632 34.6216 60.632 34.8275C60.8534 35.2382 60.8534 35.4429 60.8534 35.6488C60.8534 35.8548 60.8534 36.0607 60.632 36.2654C60.632 36.4701 60.632 36.4701 60.4106 36.676C60.1893 36.676 60.1893 36.882 59.9679 36.882C59.7465 37.0879 59.5251 37.0879 59.305 37.0879C59.0836 37.0879 58.8622 37.0879 58.6408 36.882C58.4194 36.882 58.1981 36.676 58.1981 36.676C57.9767 36.4701 57.9767 36.4701 57.9767 36.2654C57.7553 36.0607 57.7553 35.8548 57.7553 35.8548ZM73.0233 31.7459H72.1365V30.9221H75.0145V31.7459H74.1277V36.8795H73.0207L73.0233 31.7459ZM86.5216 30.9258H87.6298C87.8499 30.9258 87.8499 30.9258 88.0726 31.1293H88.5154C88.5154 31.1293 88.7355 31.1293 88.9582 31.3352C88.9582 31.3352 89.1796 31.3352 89.1796 31.5411C89.4009 31.7471 89.4009 31.7471 89.4009 31.953C89.6223 32.1565 89.6223 32.3624 89.6223 32.7743C89.6223 33.3897 89.6223 33.5956 89.4009 34.0075L88.7355 34.624L89.8437 36.8844H88.7355L87.8499 34.83H87.6298V36.8844H86.5216V30.9258ZM87.6298 34.0038H88.0726C88.2927 34.0038 88.2927 34.0038 88.5154 33.8003V33.5944V32.5671V32.1553V31.9493C88.2927 31.7459 88.2927 31.7459 88.0726 31.7459H87.6298V34.0038ZM101.348 30.9258H102.234V36.882H101.348V30.9258ZM114.182 30.9258H116.615V31.7471H115.287V33.5956H116.395V34.2122H115.287V36.2679H116.615V36.8844H114.182V30.9258ZM127.902 35.8548C127.902 35.6488 127.902 35.4429 128.125 35.4429V35.0322H128.787V35.8548L129.01 36.0607C129.01 36.2654 129.01 36.2654 129.23 36.2654H129.896C129.896 36.0607 130.117 36.0607 130.117 35.8548V35.4429C130.117 35.4429 129.896 35.4429 129.896 35.2382V35.0322C129.673 35.0322 129.673 34.8275 129.673 34.8275L128.567 33.5944C128.345 33.3884 128.345 33.1825 128.125 32.9766V32.3612V31.7459C128.125 31.5399 128.345 31.5399 128.345 31.334C128.567 31.128 128.787 31.128 128.787 31.128C129.01 30.9221 129.23 30.9221 129.453 30.9221C129.673 30.9221 130.117 30.9221 130.117 31.128C130.338 31.128 130.56 31.334 130.56 31.334L131 31.7459V32.5671C131 32.7731 130.779 32.7731 130.779 32.9766H130.114V32.5671C130.114 32.3612 130.114 32.1553 129.892 31.9493C129.892 31.7459 129.672 31.7459 129.449 31.7459H129.006V32.7731C129.229 32.7731 129.229 32.9766 129.229 32.9766L130.336 34.2097C130.557 34.4157 130.779 34.6216 130.779 34.8275C131 35.2382 131 35.4429 131 35.6488V36.2654L130.557 36.676C130.557 36.676 130.336 36.882 130.114 36.882C129.892 37.0879 129.672 37.0879 129.449 37.0879C129.229 37.0879 129.006 37.0879 128.786 36.882C128.566 36.882 128.343 36.676 128.343 36.676C128.123 36.4701 128.123 36.4701 128.123 36.2654C128.123 36.0607 127.902 35.8548 127.902 35.8548ZM0 27.6369H131V28.4595H0V27.6369Z" fill="white"/>
</svg>
