<svg width="159" height="26" viewBox="0 0 159 26" fill="none" xmlns="http://www.w3.org/2000/svg">
<path d="M52.8657 8.58227L56.9158 17.5468H53.4502L52.7689 16.0354H48.3135L47.6322 17.5459H44.1719L48.2086 8.58227H52.8657ZM49.3677 13.4491H51.6949L50.5232 11.0914L49.3677 13.4491ZM55.616 8.56255H67.5379V11.5208H63.0825V17.5459H60.1117V11.5208H55.616V8.56255ZM76.9014 17.5459H74.4254L72.1977 13.6015V17.5459H69.2017V8.56255H72.7813L75.7028 13.5379L78.6217 8.56255H82.211V17.5459H79.2178V13.5773L76.9014 17.5459ZM89.7224 8.41463C90.4441 8.40836 91.1657 8.45407 91.8811 8.55C92.4745 8.63068 93.0572 8.78307 93.6139 9.0036C94.1025 9.18917 94.5471 9.47513 94.9183 9.84268C95.2733 10.2165 95.5431 10.6629 95.708 11.1515C95.9097 11.7467 96.0066 12.3725 95.9931 13C96.0075 13.6158 95.9241 14.2299 95.7457 14.8198C95.5978 15.2976 95.3539 15.7395 95.0276 16.1196C94.6843 16.4935 94.2612 16.7875 93.7896 16.9767C93.2347 17.2079 92.652 17.3657 92.0568 17.4455C91.3118 17.5459 90.5597 17.5925 89.8085 17.5853C87.6794 17.5853 86.133 17.1999 85.1693 16.4271C84.2057 15.6544 83.7234 14.4567 83.7234 12.8323C83.7234 11.3308 84.2191 10.2183 85.2088 9.49755C86.1994 8.7759 87.7036 8.41463 89.7224 8.41463ZM89.8363 15.2187C90.7471 15.2187 91.4508 15.0358 91.9474 14.6692C92.4432 14.2998 92.6906 13.7422 92.6906 12.9901C92.7264 12.3411 92.4315 11.7181 91.9053 11.3335C91.3836 10.9516 90.6682 10.7615 89.7968 10.7615C89.3845 10.7562 88.9748 10.8046 88.5759 10.9077C88.2576 10.9901 87.9609 11.1416 87.7063 11.3514C87.4831 11.5415 87.3092 11.7835 87.1998 12.056C87.0833 12.3536 87.0259 12.671 87.0313 12.9901C87.0071 13.6087 87.2679 14.2057 87.7395 14.61C88.2119 15.0269 88.9129 15.2187 89.8363 15.2187ZM102.878 8.58227C103.685 8.58227 104.375 8.6002 104.949 8.63874C105.463 8.66922 105.974 8.74004 106.477 8.8512C106.852 8.9274 107.214 9.0538 107.554 9.22771C107.821 9.37563 108.049 9.5845 108.22 9.8373C108.397 10.0937 108.523 10.3832 108.588 10.688C108.664 11.0663 108.699 11.4509 108.692 11.8364H105.501C105.507 11.7252 105.483 11.6132 105.432 11.5137C105.348 11.4124 105.239 11.3344 105.115 11.2896C104.867 11.1999 104.607 11.1479 104.343 11.1372C103.994 11.1067 103.529 11.0923 102.954 11.0923C102.192 11.0923 101.634 11.1085 101.283 11.1416C101.054 11.1497 100.829 11.1936 100.614 11.2725C100.518 11.3263 100.464 11.4312 100.474 11.5415C100.474 11.6517 100.599 11.7261 100.825 11.7656C101.051 11.805 101.736 11.8687 102.878 11.9628C102.891 11.9619 102.905 11.9664 102.915 11.9744C105.179 12.1537 106.615 12.3178 107.225 12.4675C108.022 12.6557 108.536 12.9758 108.769 13.4294C108.944 13.8507 109.023 14.3052 109 14.7606C109.006 15.0995 108.978 15.4383 108.915 15.7709C108.862 16.0399 108.747 16.2927 108.581 16.5105C108.411 16.7292 108.188 16.9031 107.936 17.0161C107.581 17.1649 107.21 17.2707 106.829 17.3299C106.295 17.4222 105.755 17.4796 105.215 17.502C104.611 17.5342 103.858 17.5468 102.956 17.5468C102.34 17.5468 101.806 17.5468 101.357 17.5217C100.909 17.4966 100.486 17.4751 100.097 17.4329C99.7699 17.3998 99.4445 17.3451 99.1244 17.268C98.8824 17.2035 98.6493 17.1084 98.4315 16.9838C98.0558 16.7902 97.7771 16.4522 97.6587 16.047C97.5807 15.8202 97.5287 15.5845 97.5054 15.3451C97.4803 15.0986 97.4687 14.8028 97.4687 14.4594H100.565C100.559 14.576 100.583 14.6898 100.637 14.7929C100.722 14.896 100.843 14.965 100.976 14.9847C101.219 15.0466 101.469 15.0815 101.719 15.0887C102.041 15.1058 102.499 15.1156 103.088 15.1156H103.397C103.991 15.13 104.586 15.112 105.177 15.0618C105.39 15.026 105.494 14.9157 105.494 14.7283C105.494 14.6208 105.422 14.5464 105.276 14.5114C104.875 14.4522 104.471 14.4146 104.066 14.3985C103.585 14.3635 103.189 14.3339 102.87 14.307C102.375 14.2649 101.976 14.2308 101.706 14.203C101.437 14.1761 101.102 14.1421 100.704 14.0972C100.305 14.0524 100.003 14.0013 99.795 13.9538C99.587 13.9072 99.3467 13.848 99.0653 13.7745C98.8402 13.727 98.6242 13.6436 98.4261 13.528C98.2853 13.4339 98.132 13.3236 97.9635 13.1954C97.8111 13.0789 97.6901 12.9283 97.6121 12.7535C97.5314 12.5742 97.4678 12.3877 97.4185 12.1968C97.3611 11.9727 97.3333 11.7423 97.3342 11.511C97.3324 11.2411 97.3539 10.9713 97.3988 10.7051C97.4373 10.4863 97.4974 10.2712 97.5798 10.0641C97.6551 9.88123 97.7645 9.71449 97.9017 9.57105C98.0334 9.42942 98.1796 9.30302 98.34 9.19454C98.522 9.07263 98.7237 8.98119 98.9362 8.92561C99.18 8.8512 99.4283 8.79293 99.6793 8.7499C99.9267 8.70777 100.226 8.67371 100.587 8.64681C100.949 8.61992 101.298 8.60468 101.647 8.59751C101.997 8.58944 102.4 8.58227 102.878 8.58227ZM110.658 8.54282H120.345V11.2743H113.661V12.1448H118.895V14.783H113.666V17.5459H110.658V8.54282ZM122.13 8.56255H132.097V11.0529H125.126V11.8463H131.658V14.2326H125.126V15.0394H132.097V17.5459H122.13V8.56255ZM134.01 8.56255H140.647C140.818 8.56255 140.982 8.56255 141.143 8.5751C141.304 8.58765 141.514 8.61185 141.791 8.65847C142.05 8.7015 142.304 8.76604 142.551 8.85389C142.808 8.94623 143.051 9.07083 143.277 9.22323C143.521 9.37742 143.739 9.57105 143.92 9.79517C144.114 10.0569 144.263 10.3501 144.359 10.6611C144.479 11.0457 144.538 11.4464 144.532 11.8489C144.532 13.2689 143.979 14.281 142.873 14.8861L144.725 17.536H141.259L139.718 15.4204H136.993V17.5459H134.011V8.56344L134.01 8.56255ZM140.366 12.7956C141.11 12.7956 141.482 12.5141 141.482 11.9502C141.482 11.4375 141.093 11.1811 140.314 11.1811H137.009V12.7956H140.366ZM154.137 8.58227L158.189 17.5468H154.724L154.04 16.0354H149.585L148.901 17.5459H145.445L149.483 8.58227H154.137ZM150.639 13.4491H152.966L151.797 11.0914L150.639 13.4491Z" fill="white"/>
<path d="M31.331 16.696L29.8698 13.4499C25.8322 13.2231 21.7551 13.1075 17.6386 13.1048C13.5221 13.1012 9.42441 13.2177 5.34465 13.4544L3.88164 16.696C8.3908 16.41 12.9762 16.2657 17.6386 16.2603C22.2733 16.2603 26.8371 16.4055 31.331 16.696ZM24.7421 2.06227L24.1594 0.773174C21.9963 0.70594 19.8233 0.671875 17.6395 0.671875C15.4557 0.671875 13.2621 0.706837 11.0568 0.775863L10.475 2.06227C12.8471 1.98339 15.2334 1.93408 17.6395 1.93408C20.0456 1.93408 22.3907 1.98339 24.7421 2.06227ZM28.6757 10.7991L25.7766 4.36974C23.0801 4.27113 20.3674 4.22003 17.6395 4.21734C14.9116 4.21376 12.1783 4.26486 9.44054 4.36974L6.54141 10.8045C10.2052 10.6117 13.9049 10.5158 17.6395 10.5158C21.3741 10.5158 25.0532 10.6099 28.6757 10.7991ZM34.3279 23.353C31.0827 23.0975 27.8035 22.9191 24.4893 22.8152L25.3338 24.7336C28.6677 24.8519 31.9612 25.0473 35.2136 25.3198L34.3279 23.353ZM32.387 19.0384C27.5327 18.7094 22.6175 18.5453 17.6395 18.5453C12.6615 18.5453 7.72473 18.7112 2.8301 19.0438L1.9471 21.016C7.08646 20.6296 12.3173 20.4333 17.6395 20.4288C22.942 20.4288 28.1522 20.6197 33.27 21.0007L32.387 19.0384ZM0 25.3252C3.24785 25.0536 6.53783 24.8573 9.86994 24.7354L10.7243 22.8169C7.42352 22.9209 4.1443 23.0993 0.888385 23.353L0 25.3252Z" fill="url(#paint0_linear_5687_41997)"/>
<defs>
<linearGradient id="paint0_linear_5687_41997" x1="540.176" y1="2101.21" x2="2361.57" y2="287.575" gradientUnits="userSpaceOnUse">
<stop stop-color="#F507EC"/>
<stop offset="0.09" stop-color="#EE0CEC"/>
<stop offset="0.22" stop-color="#DA19ED"/>
<stop offset="0.38" stop-color="#B92FEF"/>
<stop offset="0.57" stop-color="#8B4DF1"/>
<stop offset="0.77" stop-color="#5173F4"/>
<stop offset="0.98" stop-color="#0AA2F8"/>
<stop offset="1" stop-color="#02A7F8"/>
</linearGradient>
</defs>
</svg>
