<svg width="141" height="32" viewBox="0 0 141 32" fill="none" xmlns="http://www.w3.org/2000/svg">
<g clipPath="url(#clip0_9361_42628)">
<path d="M0.5 28.3L13.1 4.1L18.9 0L31.2 29.3L16.6 11.1L0.5 28.3Z" fill="#F9FAFB"/>
<path d="M11.2031 23.8016L16.3031 28.1016L35.2031 10.6016L16.6031 32.0016L11.2031 23.8016Z" fill="#7CD6FB"/>
<path fill-rule="evenodd" clip-rule="evenodd" d="M60.6016 12.5992L61.7016 10.6992H59.3016L58.2016 12.5992L55.6016 17.1992L53.0016 12.5992L51.9016 10.6992H49.5016L50.6016 12.5992L55.6016 21.2992L60.6016 12.5992ZM50.4016 21.2992H52.8016L51.7016 19.3992L46.7016 10.6992L41.7016 19.3992L40.6016 21.2992H43.0016L44.1016 19.3992L46.7016 14.7992L49.3016 19.3992L50.4016 21.2992ZM70.7016 21.2992H68.3016L67.2016 19.3992L64.6016 14.7992L62.0016 19.3992L60.9016 21.2992H58.5016L59.6016 19.3992L64.6016 10.6992L69.6016 19.3992L70.7016 21.2992ZM80.3016 12.5992V10.6992H68.3016V12.5992H73.2016V21.2992H75.3016V12.5992H80.3016ZM90.2016 21.2992H87.8016L86.7016 19.3992L84.1016 14.7992L81.5016 19.3992L80.4016 21.2992H78.0016L79.1016 19.3992L84.1016 10.6992L89.1016 19.3992L90.2016 21.2992ZM102.102 21.2992L101.002 19.3992L99.3016 16.3992C99.6016 16.3992 99.9016 16.2992 100.202 16.1992C101.302 15.6992 102.102 14.6992 102.102 13.5992C102.102 12.7992 101.702 12.0992 101.202 11.5992C100.602 11.0992 99.8016 10.7992 98.9016 10.7992H91.3016V21.3992H93.4016V16.4992H95.5016C96.3016 16.4992 96.9016 16.8992 97.3016 17.3992L97.4016 17.4992L98.6016 19.4992L99.7016 21.3992L102.102 21.2992ZM99.3016 14.3992C99.2016 14.4992 99.0016 14.4992 98.9016 14.4992H93.5016V12.4992H98.9016C99.3016 12.4992 99.5016 12.6992 99.7016 12.7992C99.8016 12.8992 100.002 13.0992 100.002 13.4992C99.9016 13.8992 99.7016 14.2992 99.3016 14.3992Z" fill="#F9FAFB"/>
<path fill-rule="evenodd" clip-rule="evenodd" d="M124.305 18.8992V10.6992H123.405V18.8992C123.405 19.6992 122.805 20.2992 122.105 20.2992H112.505C111.805 20.2992 111.205 19.6992 111.205 18.8992V10.6992H110.305V18.8992C110.305 20.1992 111.305 21.2992 112.505 21.2992H122.105C123.305 21.2992 124.305 20.2992 124.305 18.8992ZM140.505 21.2992L134.305 15.9992L140.505 10.6992H139.105L133.605 15.3992L128.105 10.6992H126.705L132.905 15.9992L126.705 21.2992H128.105L133.605 16.5992L139.105 21.2992H140.505Z" fill="#7CD6FB"/>
</g>
<defs>
<clipPath id="clip0_9361_42628">
<rect width="141" height="32" fill="white"/>
</clipPath>
</defs>
</svg>
