<svg width="155" height="31" viewBox="0 0 155 31" fill="none" xmlns="http://www.w3.org/2000/svg">
<path d="M116.016 20.2226C115.397 20.3718 114.933 20.6659 114.469 21.1108C114.005 21.5541 113.695 21.9975 113.695 22.7364C113.695 23.1797 113.695 23.4753 113.85 23.7709C114.006 24.0664 114.159 24.3605 114.469 24.5098C114.778 24.6576 115.087 24.8053 115.397 24.9531C115.706 25.1009 116.17 25.1009 116.48 25.1009C116.944 25.1009 117.562 24.9531 118.026 24.8068C118.49 24.6561 118.955 24.3605 119.264 23.9172L119.109 24.9516H121.584L122.203 20.8137C122.358 20.0748 122.358 19.4837 122.358 19.0403C122.358 18.597 122.203 18.1536 121.893 17.7103C121.584 17.4147 121.275 17.1191 120.811 16.9713C120.347 16.8236 119.728 16.6758 118.955 16.6758C118.181 16.6758 117.562 16.8236 116.944 16.9713C116.325 17.1191 115.706 17.5625 115.087 18.0058L116.325 19.3359C116.634 19.0403 116.942 18.7447 117.408 18.597C117.872 18.4477 118.181 18.3014 118.645 18.3014C119.109 18.3014 119.419 18.4492 119.728 18.7447C120.036 19.0403 120.192 19.3359 120.036 19.7792C119.419 19.7792 118.955 19.7792 118.181 19.7792C117.253 19.927 116.634 20.0748 116.016 20.2226ZM118.8 21.4048H119.419V21.996C119.419 22.2915 119.262 22.4393 119.109 22.7349C118.955 22.8827 118.8 23.0305 118.645 23.1782C118.49 23.326 118.181 23.326 118.026 23.4738C117.872 23.6216 117.562 23.6216 117.253 23.6216C117.098 23.6216 116.944 23.6216 116.789 23.6216C116.634 23.6216 116.48 23.4738 116.48 23.4738C116.325 23.326 116.325 23.326 116.17 23.1782C116.17 23.0305 116.17 22.8827 116.17 22.7349C116.17 22.4393 116.326 22.2915 116.48 22.1438C116.636 21.996 116.944 21.8497 117.253 21.8497C117.562 21.7004 117.872 21.7004 118.181 21.7004C118.49 21.4048 118.645 21.4048 118.8 21.4048Z" fill="#3E6FFB"/>
<path d="M151.283 23.1791C150.973 23.3269 150.819 23.3268 150.509 23.3268C150.045 23.3268 149.736 23.1776 149.426 23.0313C149.117 22.8835 148.962 22.7357 148.653 22.4402L146.797 24.0658C147.105 24.5091 147.57 24.8047 148.187 24.9525C148.806 25.1002 149.425 25.248 149.891 25.248C150.355 25.248 150.819 25.248 151.281 25.0988C151.745 24.951 152.211 24.8047 152.673 24.6554C153.137 24.5076 153.447 24.2121 153.756 23.7687C154.064 23.3254 154.22 23.0298 154.373 22.4387C154.373 21.9953 154.373 21.552 154.219 21.2564C154.062 20.9608 153.754 20.6653 153.445 20.5175C153.136 20.3697 152.826 20.2219 152.362 20.0741C152.056 19.9278 151.592 19.9278 151.283 19.7801C150.973 19.7801 150.665 19.6323 150.509 19.4845C150.355 19.3367 150.2 19.1889 150.2 19.0411C150.2 18.7456 150.356 18.5978 150.509 18.5978C150.665 18.5978 150.973 18.4485 151.128 18.4485C151.745 18.4485 152.211 18.7441 152.519 19.1874L154.375 17.7096C154.065 17.2663 153.601 16.9707 152.984 16.8229C152.365 16.6751 151.901 16.5273 151.281 16.5273C150.817 16.5273 150.353 16.5273 149.891 16.6751C149.426 16.8244 149.117 16.9722 148.653 17.12C148.345 17.2677 148.036 17.5633 147.725 18.0067C147.416 18.3022 147.261 18.7456 147.261 19.1889C147.106 19.6323 147.261 20.0756 147.416 20.3712C147.572 20.6653 147.88 20.9608 148.189 21.1101C148.498 21.2579 148.808 21.4042 149.272 21.5535C149.581 21.7012 150.045 21.7012 150.355 21.849C150.664 21.849 150.972 21.9968 151.128 22.1431C151.283 22.2924 151.437 22.4387 151.437 22.5879C151.592 22.8835 151.437 23.0313 151.283 23.1791Z" fill="#3E6FFB"/>
<path d="M126.059 20.9621C126.059 20.6666 126.214 20.3725 126.214 20.2232C126.214 20.0755 126.37 19.7799 126.523 19.6336C126.678 19.4843 126.833 19.3365 127.142 19.1888C127.297 19.041 127.606 19.041 127.915 19.041C128.225 19.041 128.379 19.041 128.533 19.1888C128.689 19.3365 128.689 19.4843 128.844 19.6321C128.844 19.7799 128.844 20.0754 128.844 20.2218C128.844 20.371 128.844 20.6651 128.844 20.8129L128.225 25.1001H130.854L131.473 20.8144C131.473 20.5188 131.628 20.371 131.628 20.0754C131.784 19.7799 131.784 19.6321 131.937 19.4843C132.093 19.3365 132.247 19.1888 132.556 19.041C132.865 18.8932 133.02 18.8932 133.329 18.8932C133.793 18.8932 134.103 19.041 134.103 19.3365C134.257 19.6321 134.257 19.9262 134.257 20.371L133.639 25.1001H136.114L136.887 20.3725C136.887 19.9277 137.042 19.4843 136.887 19.0424C136.887 18.5991 136.732 18.3035 136.578 17.8602C136.423 17.4168 136.114 17.269 135.804 17.1213C135.495 16.972 135.031 16.8242 134.412 16.8242C133.793 16.8242 133.173 16.972 132.709 17.1198C132.247 17.4154 131.783 17.7109 131.473 18.3021C131.318 17.8587 131.009 17.4154 130.545 17.2676C130.079 16.972 129.615 16.972 128.998 16.972C128.689 16.972 128.379 16.972 128.069 17.1213C127.759 17.269 127.605 17.269 127.295 17.4168C127.142 17.5631 126.833 17.7109 126.678 17.8587C126.523 18.0065 126.369 18.1543 126.214 18.3021L126.37 17.2676H123.894L122.656 25.3956H125.286L126.059 20.9621Z" fill="#3E6FFB"/>
<path d="M75.9538 12.9818C72.7054 17.2675 72.2414 22.2922 76.2631 25.2478C79.3568 27.4646 83.2238 26.7257 87.7096 22.8818C91.8861 26.7257 95.7531 27.6109 99.4655 25.2478C104.106 21.5533 101.942 15.1986 98.8483 11.9474C96.8359 9.7306 92.9688 6.1838 87.7096 1.15917C86.6269 2.19366 85.5441 3.22814 84.616 4.26262L81.3677 1.15917C81.0583 0.863608 80.4396 0.863608 79.9755 1.15917L72.3961 8.40055C72.0867 8.69612 72.0867 9.28725 72.3961 9.7306L75.9538 12.9818ZM73.3242 8.54834L80.4396 1.89809C80.5942 1.75031 80.9036 1.75031 81.0583 1.89809L88.1737 8.54834C88.3284 8.69612 88.3284 8.99169 88.1737 9.13947L81.0583 15.7897C80.9021 15.9375 80.5927 15.9375 80.4396 15.7897L73.3242 9.13947C73.1695 8.99169 73.1695 8.69612 73.3242 8.54834Z" fill="white"/>
<path d="M138.595 24.0664C138.905 24.5098 139.369 24.6561 139.987 24.9531C140.606 25.1009 141.07 25.2487 141.844 25.2487C142.461 25.2487 143.234 25.0994 143.854 24.8053C144.473 24.5098 145.092 24.0664 145.556 23.6216L143.854 22.293C143.545 22.5886 143.236 22.8827 142.926 23.0319C142.617 23.1797 142.308 23.3275 141.844 23.3275C141.38 23.3275 140.915 23.1797 140.606 22.8842C140.297 22.5886 140.142 22.293 140.142 21.7019H146.175L146.329 20.963C146.486 20.3733 146.486 19.7807 146.329 19.1896C146.175 18.5984 146.02 18.1551 145.711 17.8595C145.401 17.4162 145.092 17.2684 144.628 16.9713C144.164 16.8236 143.7 16.6758 143.081 16.6758C142.462 16.6758 141.844 16.8236 141.225 16.9713C140.606 17.1206 140.142 17.4162 139.678 17.8595C139.214 18.3029 138.75 18.7462 138.441 19.1881C138.131 19.7792 137.977 20.2226 137.822 20.9615C137.667 21.5526 137.822 22.1438 137.978 22.7349C138.131 23.3275 138.286 23.6231 138.595 24.0664ZM140.606 19.4851C140.761 19.3374 140.914 19.1896 141.07 19.0418C141.225 18.894 141.38 18.7462 141.687 18.7462C141.844 18.5984 142.153 18.5984 142.461 18.5984C142.926 18.5984 143.234 18.7462 143.544 19.0418C143.853 19.3374 143.853 19.6329 143.853 20.0763H140.45C140.451 19.9285 140.451 19.6329 140.606 19.4851Z" fill="#3E6FFB"/>
<path d="M43.4702 25.8383H45.7904V16.9713H49.6575V14.9023H39.7578V16.9713H43.4702V25.8383Z" fill="white"/>
<path d="M32.1749 25.8407L33.4124 23.3299H37.7435L38.8262 25.8407H41.6105L36.9701 14.9062H34.3405L29.3906 25.8407H32.1749ZM35.4232 17.7127L36.9701 21.4072H33.8764L35.4232 17.7127Z" fill="white"/>
<path d="M24.5949 25.839H29.0807V23.9178H25.3684C24.4403 23.9178 23.8215 23.1789 23.8215 22.4399V15.0508H21.3466V22.7355C21.1919 24.3611 22.7388 25.839 24.5949 25.839Z" fill="white"/>
<path d="M85.5391 27.6112C86.6218 27.6112 88.9421 27.6112 89.8702 27.6112C89.0967 26.5768 88.3233 25.2467 87.7062 23.6211C87.3952 24.8034 86.7765 26.1334 85.5391 27.6112Z" fill="white"/>
<path d="M15.4686 25.8383C16.7061 25.8383 18.2529 25.8383 20.1091 25.8383V23.9171H16.242C14.8499 23.9171 13.6124 22.7349 13.6124 21.4048H20.1091V19.4836H13.6124C13.6124 18.1551 14.8499 16.9713 16.242 16.9713H20.1091V14.9023C18.5622 14.9023 17.0154 14.9023 15.4686 14.9023C13.1484 14.9023 10.8281 17.1191 10.8281 20.3703C10.8281 23.6216 12.839 25.8383 15.4686 25.8383Z" fill="white"/>
<path d="M10.209 23.0298C10.209 21.6997 9.5903 20.813 8.50753 20.2219C9.5903 19.483 10.209 18.5963 10.209 17.7096C10.209 16.381 9.28094 14.7539 6.9607 14.7539C5.72324 14.7539 3.40301 14.7539 0 14.7539V25.6899C3.71238 25.6899 6.18729 25.6899 7.27007 25.6899C9.5903 25.8376 10.209 24.0642 10.209 23.0298ZM2.32023 16.8229C3.86706 16.8229 5.2592 16.8229 6.18729 16.8229C7.27007 16.8229 7.57943 17.5618 7.42475 18.1529C7.42475 18.7441 6.9607 19.483 6.18729 19.483C5.56856 19.483 4.3311 19.483 2.32023 19.483V16.8229ZM2.32023 23.7687V21.2564C4.02174 21.2564 5.2592 21.2564 6.34197 21.2564C7.42475 21.2564 7.73411 21.8475 7.73411 22.5864C7.73411 23.1775 7.27007 23.9165 6.34197 23.9165C5.72324 23.7687 4.48579 23.7687 2.32023 23.7687Z" fill="white"/>
<path d="M52.5921 21.7019C53.0561 21.7019 53.6749 21.7019 54.603 21.7019C56.6138 21.7019 57.3873 22.8841 57.5419 23.7708C57.6966 24.3605 57.8513 25.0994 57.8513 25.8383H60.4809C60.3262 24.9531 60.3262 24.2142 60.1715 23.4753C60.0169 22.4408 59.3981 21.7019 58.3153 21.1107C59.7075 20.6659 60.3262 19.6329 60.3262 18.0058C60.3262 16.6757 59.3981 14.9023 57.0779 14.9023C55.8404 14.9023 53.5202 14.9023 50.1172 14.9023V25.8398H52.5921V21.7019ZM52.5921 16.825C54.1389 16.825 55.5311 16.825 56.4592 16.825C57.5419 16.825 57.8513 17.5639 57.6966 18.3028C57.6966 19.0418 57.2326 19.7807 56.4592 19.7807C55.8404 19.7807 54.603 19.7807 52.5921 19.7807V16.825Z" fill="white"/>
<path d="M64.8124 23.326H69.1435L70.2262 25.8368H73.0105L68.3701 14.9023H65.7405L60.9453 25.8383H63.5749L64.8124 23.326ZM66.9779 17.7102L68.5247 21.4048H65.4311L66.9779 17.7102Z" fill="white"/>
<path d="M108.745 28.794C109.054 28.6462 109.675 28.4999 110.137 28.3507C110.447 28.2029 110.754 28.0551 111.065 27.761C111.995 27.0221 112.612 25.8383 112.768 24.3605L113.85 16.9713H111.375L111.22 18.0058C111.064 17.858 111.064 17.7103 110.911 17.5625C110.754 17.4147 110.601 17.2669 110.292 17.1191C110.137 16.9713 109.828 16.9713 109.519 16.8236C109.209 16.6758 108.901 16.6758 108.436 16.6758C107.817 16.6758 107.353 16.8236 106.734 16.9713C106.27 17.2669 105.806 17.5625 105.342 17.8595C104.878 18.1551 104.569 18.7462 104.414 19.1881C104.105 19.6329 103.95 20.2226 103.95 20.8152C103.794 21.4048 103.794 21.9975 103.95 22.4408C104.105 22.8842 104.259 23.329 104.567 23.7709C104.877 24.2142 105.341 24.3605 105.806 24.6576C106.27 24.8068 106.887 24.9531 107.508 24.9531C107.972 24.9531 108.281 24.8053 108.745 24.6576C109.209 24.5098 109.675 24.2142 109.983 23.7709L109.828 24.5083C109.673 25.0979 109.519 25.5428 109.054 25.9861C108.59 26.4295 107.972 26.5773 107.198 26.5773C106.734 26.5773 106.116 26.4295 105.808 26.2832C105.342 26.1339 105.033 25.8383 104.569 25.5428L102.867 27.6117C103.177 27.9073 103.486 28.0551 103.795 28.2029H103.641C104.414 28.4984 105.961 28.9418 106.425 28.9418C107.353 29.0896 108.126 28.9418 108.745 28.794ZM109.983 22.2915C109.828 22.4393 109.519 22.5871 109.209 22.7349C108.901 22.8827 108.592 22.8827 108.436 22.8827C108.128 22.8827 107.819 22.8827 107.662 22.7349C107.355 22.5871 107.198 22.4393 107.045 22.2915C106.889 22.1438 106.734 21.8482 106.734 21.7004C106.734 21.5526 106.58 21.2571 106.734 20.9615C106.734 20.6659 106.889 20.5181 107.044 20.2226C107.198 19.927 107.353 19.7792 107.508 19.6329C107.662 19.4837 107.972 19.3374 108.281 19.1881C108.59 19.0403 108.9 19.0403 109.209 19.0403C109.519 19.0403 109.828 19.0403 109.983 19.1881C110.137 19.3359 110.447 19.4837 110.601 19.6314C110.756 19.7792 110.911 20.0748 110.911 20.2211C110.911 20.5167 111.065 20.6645 110.911 20.96C110.911 21.2556 110.754 21.4034 110.601 21.6989C110.448 21.9945 110.292 22.1438 109.983 22.2915Z" fill="#3E6FFB"/>
<path d="M109.979 28.3516C109.979 28.3516 110.134 28.3516 109.979 28.3516C109.515 28.5008 109.051 28.7949 108.742 28.7949C108.123 28.9427 107.35 28.9427 106.576 29.0905C106.112 29.0905 104.565 28.6471 103.792 28.3516H0V30.2727H154.682V28.3516H109.979Z" fill="url(#paint0_linear_5687_42030)"/>
<defs>
<linearGradient id="paint0_linear_5687_42030" x1="0" y1="29.3117" x2="154.683" y2="29.3117" gradientUnits="userSpaceOnUse">
<stop stop-color="#DB42FB"/>
<stop offset="0.2519" stop-color="#2F54FB"/>
<stop offset="0.5697" stop-color="#05002A"/>
</linearGradient>
</defs>
</svg>
