<svg width="103" height="32" viewBox="0 0 103 32" fill="none" xmlns="http://www.w3.org/2000/svg">
<path d="M9.60156 31.7022C9.60156 26.6624 9.60156 21.7195 9.60156 16.6797C9.80578 16.6797 9.90789 16.6797 10.1121 16.6797C13.0732 16.6797 16.0344 16.6797 18.9955 16.6797C19.4039 16.6797 19.6081 16.7766 19.7102 17.0674C19.9145 17.7458 20.2208 18.5212 20.2208 19.1996C20.3229 21.7195 20.2208 24.1425 20.2208 26.6624C20.2208 29.473 17.6681 31.7991 14.9112 31.7022C13.1753 31.7022 11.4395 31.7022 9.60156 31.7022ZM13.1753 17.7458C13.1753 21.3318 13.1753 24.8209 13.1753 28.31C13.788 28.31 14.2985 28.31 14.8091 28.31C15.9323 28.31 16.647 27.6316 16.647 26.5654C16.647 25.3055 16.647 24.0455 16.647 22.7856C16.647 21.6226 16.647 20.5565 16.647 19.3934C16.647 18.4242 16.0344 17.7458 15.2175 17.6489C14.6049 17.7458 13.8901 17.7458 13.1753 17.7458Z" fill="white"/>
<path d="M9.59429 0.300781C9.79851 0.300781 9.90062 0.300781 10.1048 0.300781C11.5343 0.300781 13.066 0.300781 14.4955 0.300781C17.2524 0.300781 19.3967 2.04533 19.9072 4.66215C19.9072 4.85598 19.9072 5.04982 19.9072 5.24366C19.9072 7.76356 19.9072 10.2835 19.9072 12.8034C19.9072 13.6756 19.6009 14.451 19.1924 15.2263C19.0903 15.3233 18.8861 15.5171 18.784 15.5171C15.7208 15.5171 12.7596 15.5171 9.6964 15.5171C9.6964 15.5171 9.5943 15.5171 9.49219 15.4202C9.5943 10.3804 9.59429 5.34058 9.59429 0.300781ZM13.1681 14.3541C13.7807 14.3541 14.3934 14.3541 15.006 14.2571C15.7208 14.1602 16.3334 13.4818 16.3334 12.7064C16.3334 10.2835 16.3334 7.86048 16.3334 5.34058C16.3334 4.56523 15.8229 3.88679 15.006 3.69295C14.5976 3.59603 14.1892 3.69295 13.7807 3.59603C13.3723 3.49911 13.1681 3.69295 13.1681 4.17755C13.1681 7.37588 13.1681 10.5742 13.1681 13.6756C13.1681 13.9664 13.1681 14.0633 13.1681 14.3541Z" fill="white"/>
<path d="M70.8677 15.323C69.6424 15.323 68.6214 15.323 67.3961 15.323C67.3961 15.1291 67.3961 14.9353 67.3961 14.7414C67.3961 11.7369 67.3961 8.73245 67.3961 5.72796C67.3961 4.46801 66.6813 3.69266 65.5581 3.69266C64.6391 3.69266 63.8223 4.37109 63.8223 5.24336C63.8223 6.11563 63.8223 6.98791 63.8223 7.76326C63.8223 10.0893 63.8223 12.3185 63.8223 14.6445C63.8223 14.8384 63.8223 15.0322 63.8223 15.226C62.597 15.226 61.4738 15.226 60.2485 15.226C60.2485 15.0322 60.2485 14.8384 60.2485 14.6445C60.2485 11.5431 60.1464 8.53862 60.2485 5.4372C60.3506 3.20806 61.678 1.26968 64.0265 0.591241C66.6813 -0.184112 69.4382 1.07584 70.4593 3.49882C70.7656 4.08033 70.8677 4.75877 70.8677 5.4372C70.8677 8.53862 70.8677 11.7369 70.8677 14.8384C70.9698 14.9353 70.8677 15.1291 70.8677 15.323Z" fill="#FFBD19"/>
<path d="M70.9635 16.679C70.9635 18.7143 70.9635 20.5557 70.9635 22.3972C70.9635 24.1417 71.0656 25.8863 70.8614 27.5339C70.6572 29.3754 69.4319 30.7322 67.6961 31.3137C65.3476 32.186 62.897 31.7014 61.2633 29.4723C60.5485 28.6 60.2422 27.5339 60.2422 26.4678C60.2422 23.4633 60.2422 20.3619 60.2422 17.3574C60.2422 16.582 60.2422 16.582 61.0591 16.582C61.6717 16.582 62.3865 16.582 62.9991 16.582C63.7139 16.582 63.7139 16.582 63.7139 17.2605C63.7139 20.265 63.7139 23.3664 63.7139 26.3709C63.7139 26.8555 63.816 27.3401 64.2244 27.8247C64.837 28.4062 65.6539 28.4062 66.2666 28.1154C66.8792 27.9216 67.2876 27.3401 67.2876 26.6616C67.2876 25.8863 67.2876 25.2078 67.2876 24.4325C67.2876 22.0095 67.2876 19.5865 67.2876 17.1635C67.2876 16.679 67.3897 16.582 67.9003 16.582C68.9214 16.679 69.9424 16.679 70.9635 16.679Z" fill="#FFBD19"/>
<path d="M50.744 16.7766C51.2546 16.7766 51.5609 16.6797 51.9693 16.6797C53.2967 16.6797 54.7262 16.6797 56.0536 16.6797C56.4621 16.6797 56.6663 16.7766 56.8705 17.0674C57.6874 18.2304 58.0958 19.4903 58.1979 20.8472C58.1979 22.7856 58.1979 24.724 58.1979 26.7593C58.3 28.7946 56.36 31.0237 54.4199 31.5083C53.1946 31.7991 51.9693 31.7991 50.8461 31.4114C49.7229 31.0237 48.9061 30.2484 48.1913 29.1823C47.6808 28.31 47.4766 27.4377 47.4766 26.4685C47.4766 25.887 47.4766 25.3055 47.4766 24.724C47.4766 24.4332 47.5787 24.2394 47.885 24.2394C48.804 24.2394 49.6208 24.2394 50.5398 24.2394C50.9482 24.2394 51.0503 24.4332 51.0503 24.724C51.0503 25.4024 50.9482 26.0808 51.0503 26.7593C51.1525 27.8254 51.9693 28.31 52.7862 28.31C54.0115 28.31 54.6241 27.6316 54.6241 26.6624C54.7262 25.0147 54.6241 23.464 54.522 21.8164C54.4199 20.1688 53.5009 18.8119 52.1735 17.8427C51.7651 17.455 51.2546 17.1643 50.744 16.7766Z" fill="#FFBD19"/>
<path d="M54.7262 15.3233C54.2157 15.3233 53.7051 15.3233 53.1946 15.3233C51.9693 15.3233 50.6419 15.3233 49.4166 15.3233C49.2124 15.3233 49.0082 15.2264 48.9061 15.0326C47.9871 13.7726 47.4766 12.3188 47.4766 10.6712C47.4766 8.73281 47.4766 6.79443 47.4766 4.85604C47.4766 3.30534 48.9061 1.36695 50.4377 0.785438C51.5609 0.300842 52.6841 0.107004 53.9094 0.300842C56.2578 0.882357 58.1979 2.82074 58.1979 5.04988C58.1979 5.82524 58.1979 6.60059 58.1979 7.37594C58.1979 7.47286 57.9937 7.76362 57.7895 7.76362C56.8705 7.76362 55.8494 7.76362 54.9304 7.76362C54.8283 7.76362 54.7262 7.76362 54.6241 7.6667C54.6241 6.89135 54.6241 6.11599 54.6241 5.24372C54.522 4.27453 53.9094 3.69301 52.7862 3.69301C51.9693 3.69301 51.0503 4.37145 51.0503 5.1468C51.0503 6.40675 51.0503 7.6667 51.0503 8.92665C51.0503 9.79892 51.1525 10.7681 51.4588 11.5435C51.7651 12.7065 52.6841 13.4819 53.603 14.2572C54.0115 14.548 54.4199 14.8387 54.7262 15.1295C54.8283 15.3233 54.7262 15.3233 54.7262 15.3233Z" fill="#FFBD19"/>
<path d="M22.9766 16.6797C26.0398 16.6797 29.103 16.6797 32.2684 16.6797C32.2684 17.0674 32.2684 17.3581 32.2684 17.7458C30.4304 17.7458 28.4904 17.7458 26.6524 17.7458C26.6524 21.3318 26.6524 24.8209 26.6524 28.31C28.4904 28.31 30.4304 28.31 32.2684 28.31C32.2684 29.473 32.2684 30.5391 32.2684 31.7022C29.2051 31.7022 26.1419 31.7022 22.9766 31.7022C22.9766 26.7593 22.9766 21.7195 22.9766 16.6797Z" fill="white"/>
<path d="M82.8074 3.69295C80.9695 3.69295 79.3358 3.69295 77.5999 3.69295C77.0894 3.69295 76.9873 3.78987 76.9873 4.27447C76.9873 7.4728 76.9873 10.6711 76.9873 13.8695C76.9873 14.2571 77.0894 14.3541 77.4978 14.3541C79.2337 14.3541 80.9695 14.3541 82.7053 14.3541C82.7053 14.451 82.8074 14.451 82.8074 14.451C82.9096 15.3233 82.9096 15.3233 81.9906 15.3233C79.1316 15.3233 76.3746 15.3233 73.5156 15.3233C73.5156 15.1294 73.5156 14.9356 73.5156 14.7417C73.5156 10.0896 73.5156 5.4375 73.5156 0.785377C73.5156 0.3977 73.6177 0.300781 74.0262 0.300781C76.7831 0.300781 79.54 0.300781 82.2969 0.300781C82.9096 0.300781 82.9095 0.300781 82.9095 0.882296C82.7053 1.85149 82.8074 2.72376 82.8074 3.69295Z" fill="#FFBD19"/>
<path d="M22.9771 0.300781C26.0403 0.300781 29.1036 0.300781 32.1668 0.300781C32.1668 1.46381 32.1668 2.52992 32.1668 3.69295C30.3289 3.69295 28.3888 3.69295 26.5509 3.69295C26.5509 7.18204 26.5509 10.6711 26.5509 14.2571C28.3888 14.2571 30.3289 14.2571 32.1668 14.2571C32.1668 14.6448 32.1668 14.9356 32.1668 15.3233C29.1036 15.3233 26.0403 15.3233 22.875 15.3233C22.9771 10.3804 22.9771 5.34058 22.9771 0.300781Z" fill="white"/>
<path d="M94.4463 0.300044C94.4463 1.36616 94.4463 2.52919 94.4463 3.69222C93.6294 3.69222 92.8125 3.69222 91.9957 3.69222C91.1788 3.69222 91.1788 3.69222 91.1788 4.46757C91.1788 7.56898 91.1788 10.6704 91.1788 13.7718C91.1788 14.2564 91.1788 14.8379 91.1788 15.3225C89.9535 15.3225 88.8303 15.3225 87.605 15.3225C87.605 11.4458 87.605 7.6659 87.605 3.69222C86.3797 3.69222 85.2565 3.69222 84.0312 3.69222C84.0312 3.30454 84.0312 2.91686 84.0312 2.52919C84.0312 1.94767 84.0312 1.36616 84.0312 0.78464C84.0312 0.396963 84.1334 0.203125 84.5418 0.203125C85.9713 0.203125 87.4008 0.203125 88.7282 0.203125C90.464 0.203125 92.302 0.203125 94.0378 0.203125C94.242 0.300044 94.3442 0.300044 94.4463 0.300044Z" fill="#FFBD19"/>
<path d="M38.2842 15.3233C38.2842 15.1294 38.2842 14.9356 38.2842 14.6448C38.2842 11.1557 38.2842 7.66664 38.2842 4.17755C38.2842 3.78987 38.1821 3.69295 37.7736 3.69295C36.7526 3.69295 35.8336 3.69295 34.8125 3.69295C34.8125 2.52992 34.8125 1.46381 34.8125 0.300781C38.1821 0.300781 41.6537 0.300781 45.0233 0.300781C45.0233 1.36689 45.0233 2.52992 45.0233 3.69295C44.0022 3.69295 42.9811 3.69295 41.858 3.69295C41.858 7.56972 41.858 11.4465 41.858 15.3233C40.6327 15.3233 39.5095 15.3233 38.2842 15.3233Z" fill="white"/>
<path d="M73.4141 16.7773C76.5794 16.7773 79.6426 16.7773 82.808 16.7773C82.808 17.0681 82.808 17.4558 82.808 17.8435C82.3996 17.8435 82.0932 17.8435 81.7869 17.8435C80.3574 17.8435 78.9279 17.8435 77.6005 17.8435C77.1921 17.8435 77.0899 17.9404 77.0899 18.3281C77.0899 22.5925 77.0899 26.76 77.0899 31.0245C77.0899 31.7998 77.0899 31.7998 76.2731 31.7998C75.5583 31.7998 74.9457 31.7998 74.2309 31.7998C74.0267 31.7998 73.8225 31.7998 73.5162 31.7029C73.4141 26.6631 73.4141 21.7202 73.4141 16.7773Z" fill="#FFBD19"/>
<path d="M38.2891 16.6797C39.5144 16.6797 40.6375 16.6797 41.7607 16.6797C41.7607 21.7195 41.7607 26.6624 41.7607 31.7022C40.6375 31.7022 39.4122 31.7022 38.2891 31.7022C38.2891 26.7593 38.2891 21.7195 38.2891 16.6797Z" fill="white"/>
<path d="M91.1904 31.6998C90.5778 31.6998 90.0672 31.6998 89.5567 31.6998C89.1483 31.6998 88.6377 31.6998 88.2293 31.6998C87.8209 31.6998 87.7188 31.6029 87.7188 31.2152C87.7188 29.3737 87.7188 27.5323 87.7188 25.6908C87.7188 22.8801 87.7188 20.1664 87.7188 17.3557C87.7188 16.8711 87.8209 16.6773 88.3314 16.7742C89.1483 16.7742 89.863 16.7742 90.6799 16.7742C90.8841 16.7742 90.9862 16.8711 91.1904 16.8711C91.1904 21.7171 91.1904 26.66 91.1904 31.6998Z" fill="#FFBD19"/>
<path d="M0 21.8178C0 17.941 0 14.1612 0 10.1875C0.408432 10.5752 0.816863 10.8659 1.2253 11.2536C2.85902 12.7074 4.39064 14.2581 6.02437 15.7119C6.22858 15.9057 6.4328 16.0996 6.12648 16.2934C4.18643 18.038 2.24637 19.8794 0.306324 21.624C0.204216 21.7209 0.102108 21.7209 0 21.8178Z" fill="#FFBD19"/>
<path d="M102.106 21.8154C100.676 20.5554 99.3488 19.2955 98.0214 18.0355C97.4087 17.454 96.7961 16.8725 96.1834 16.3879C95.8771 16.0971 95.775 16.0002 96.1834 15.7095C97.3066 14.7403 98.3277 13.7711 99.3488 12.8019C100.064 12.1235 100.778 11.445 101.493 10.7666C101.595 10.6697 101.799 10.5727 102.004 10.3789C102.106 14.1588 102.106 17.9386 102.106 21.8154Z" fill="#FFBD19"/>
</svg>
