<svg width="144" height="26" viewBox="0 0 144 26" fill="none" xmlns="http://www.w3.org/2000/svg">
<path fill-rule="evenodd" clip-rule="evenodd" d="M0 0.671875H20.9794V25.3235H0V0.671875ZM5.13782 21.5722V5.09309H10.2756C12.131 5.09309 13.5581 5.49502 14.5572 6.1649C15.5562 6.83478 16.1271 8.04057 16.1271 9.51431C16.1271 10.3182 15.9843 10.988 15.5562 11.6579C15.128 12.3278 14.5572 12.7297 13.8436 12.9977C14.8426 13.1317 15.4135 13.6676 15.8416 14.3375C16.2698 15.0073 16.5552 15.8112 16.5552 16.749C16.5552 18.3567 16.1271 19.5625 15.128 20.3664C14.129 21.1702 12.8446 21.5722 10.9892 21.5722H5.13782ZM8.2776 14.3375V19.0266H10.7038C11.4174 19.0266 11.9883 18.8926 12.2737 18.4907C12.5591 18.0888 12.8446 17.5529 12.8446 16.749C12.8446 15.9452 12.7018 15.4093 12.4164 15.0073C12.131 14.6054 11.5601 14.3375 10.9892 14.3375H8.2776ZM8.2776 12.0599H10.1329C10.8465 12.0599 11.4174 11.7919 11.7028 11.524C11.9883 11.256 12.2737 10.5861 12.2737 9.91624C12.2737 9.11238 12.131 8.57647 11.7028 8.17455C11.2747 7.77262 10.7038 7.63864 9.99021 7.63864H8.2776V12.0599Z" fill="#FFCC29"/>
<path d="M36.396 18.8941C35.9679 19.5639 35.397 20.0998 34.398 20.6357C33.5417 21.1717 32.3999 21.4396 30.9728 21.4396C29.1175 21.4396 27.6903 20.9037 26.5485 19.8319C25.4068 18.7601 24.8359 17.2863 24.8359 15.4107V10.5875C24.8359 8.71186 25.4068 7.23812 26.4058 6.16631C27.4048 5.0945 28.832 4.55859 30.6873 4.55859C32.5427 4.55859 33.8271 4.96052 34.8261 5.76438C35.8252 6.56824 36.2533 7.77402 36.396 9.38174V9.51572H34.1126C34.1126 8.44391 33.8271 7.77402 33.2563 7.10414C32.6854 6.56824 31.9718 6.30029 30.8301 6.30029C29.6883 6.30029 28.9747 6.70221 28.2612 7.3721C27.6903 8.04198 27.4048 9.11379 27.4048 10.5875V15.5446C27.4048 16.8844 27.6903 17.9562 28.4039 18.7601C29.1175 19.5639 29.9738 19.8319 31.1155 19.8319C31.9718 19.8319 32.5427 19.6979 33.1135 19.43C33.5417 19.162 33.9698 18.7601 34.1126 18.3581V14.6068H31.1155V12.9991H36.5387L36.396 18.8941Z" fill="white"/>
<path d="M42.386 25.3235H41.1016V0.671875H42.386V25.3235ZM63.7936 25.3235H62.5092V0.671875H63.7936V25.3235ZM85.0585 25.3235H83.9167V0.671875H85.0585V25.3235ZM127.874 25.3235H126.589V0.671875H127.874V25.3235ZM106.466 25.3235H105.182V0.671875H106.466V25.3235Z" fill="white"/>
<path d="M49.9534 15.5439H54.3776L52.2369 8.30918H52.0942L49.9534 15.5439ZM55.0912 17.4196H49.5252L48.2408 21.5728H45.6719L51.0951 5.09375H53.3786L58.8019 21.5728H56.3757L55.0912 17.4196Z" fill="white"/>
<path d="M69.6476 5.09375L73.7864 18.4914L77.9252 5.09375H81.065V21.5728H78.6388V15.2759L78.9242 8.84509H78.7815L74.6427 21.5728H72.9301L68.7913 8.84509H68.6486L68.934 15.2759V21.5728H66.5078V5.09375H69.6476Z" fill="white"/>
<path d="M96.3403 21.5728H93.9141V5.09375H96.3403V21.5728Z" fill="white"/>
<path d="M122.591 21.5728H120.165L113.6 9.24701H113.457V21.5728H111.031V5.09375H113.457L120.165 17.2856V5.09375H122.591V21.5728Z" fill="white"/>
<path d="M143.146 19.028C142.718 19.6979 142.147 20.2338 141.148 20.7697C140.292 21.3056 139.15 21.5736 137.723 21.5736C135.867 21.5736 134.44 21.0377 133.299 19.9659C132.157 18.8941 131.586 17.4203 131.586 15.5447V10.5875C131.586 8.71186 132.157 7.23812 133.156 6.16631C134.155 5.0945 135.725 4.55859 137.437 4.55859C139.15 4.55859 140.577 4.96052 141.576 5.76438C142.575 6.56824 143.003 7.77403 143.146 9.38174V9.51572H140.863C140.863 8.44391 140.577 7.64005 140.006 7.10414C139.435 6.56824 138.722 6.30029 137.58 6.30029C136.438 6.30029 135.725 6.70221 135.011 7.3721C134.44 8.04198 134.012 9.11379 134.012 10.5875V15.5447C134.012 17.0184 134.298 18.0902 135.011 18.7601C135.725 19.43 136.581 19.8319 137.723 19.8319C138.579 19.8319 139.15 19.6979 139.721 19.43C140.149 19.162 140.577 18.7601 140.72 18.3582V14.6068H137.723V12.8651H143.146V19.028Z" fill="white"/>
</svg>
