<svg width="130" height="30" viewBox="0 0 130 30" fill="none" xmlns="http://www.w3.org/2000/svg">
<path d="M81.2314 16.3876C81.2314 16.6413 81.2314 16.7695 81.2314 16.8951C81.2314 18.4176 81.2314 19.9401 81.2314 21.3358C81.2314 22.4777 80.1952 23.3658 79.291 23.2389C78.7736 23.2389 78.3855 23.2389 77.8681 23.2389C77.7387 23.2389 77.6094 23.2389 77.6094 22.9852C77.6094 18.7982 77.6094 14.6113 77.6094 10.4256C77.6094 9.53749 77.6094 8.52247 77.9987 7.63434C78.3855 6.49118 79.0323 5.60304 80.0672 4.96866C82.1369 4.08052 84.2066 3.57301 86.4056 4.08052C87.1818 4.2074 87.9579 4.58803 88.734 5.09553C89.6395 5.72992 90.1583 6.61805 90.5437 7.63307C91.1905 9.28247 91.3212 11.0587 91.0612 12.835C90.9318 14.1038 90.5438 15.2457 89.7676 16.2607C88.2166 18.5445 85.6295 18.9251 83.4291 18.1638C82.6543 17.9101 82.0075 17.4026 81.6194 16.6413C81.3607 16.5144 81.3607 16.5144 81.2314 16.3876ZM87.3111 11.1856C87.4405 11.1856 87.4405 11.1856 87.3111 11.1856C87.3111 10.5512 87.1818 9.91685 87.0537 9.40934C86.9244 8.64808 86.5363 8.0137 85.8895 7.50619C84.2066 6.3643 82.0075 7.25244 81.4901 9.15559C81.2314 10.1706 81.2314 11.3125 81.3607 12.4544C81.4901 13.3425 81.7501 14.1038 82.3969 14.6113C83.8198 15.8801 86.1469 15.3726 86.9243 13.5963C87.3111 12.835 87.4405 12.0738 87.3111 11.1856Z" fill="white"/>
<path d="M109.313 13.471C109.313 14.9935 109.313 16.3892 109.313 17.9117C109.313 18.1655 109.313 18.1654 109.055 18.1654C108.019 18.1654 106.985 18.1654 105.951 18.1654C105.563 18.1654 105.562 18.1654 105.562 17.7848C105.562 15.2473 105.562 12.5816 105.562 10.0441C105.562 9.28281 105.693 8.52282 105.821 7.88843C106.079 6.36591 107.115 5.3509 108.538 4.71651C110.995 3.57462 113.583 3.70023 115.911 5.09714C116.946 5.60338 117.463 6.49279 117.593 7.63468C117.721 8.26906 117.85 9.03032 117.85 9.79158C117.85 12.5816 117.85 15.2473 117.85 18.0386C117.85 18.1655 117.85 18.2911 117.591 18.2911C117.074 18.2911 116.557 18.2911 116.04 18.2911C114.876 18.2911 114.229 17.5298 114.229 16.5161C114.229 14.2323 114.229 11.9472 114.229 9.53783C114.229 9.03032 114.229 8.64969 113.971 8.14092C113.581 7.5078 113.064 7.25405 112.417 7.00029C111.9 6.87215 111.382 6.87215 110.994 7.00029C109.83 7.38092 109.313 8.01531 109.313 9.1572C109.313 10.5528 109.313 12.0754 109.313 13.471Z" fill="white"/>
<path d="M119.008 8.14244C119.008 5.6049 119.008 3.19551 119.008 0.657974C119.008 0.277344 119.008 0.277344 119.525 0.277344C120.043 0.277344 120.431 0.277344 120.948 0.277344C121.855 0.277344 122.759 1.0386 122.759 2.05235C122.759 2.81488 122.759 3.44926 122.759 4.20926C122.759 4.46301 122.759 4.46301 123.018 4.46301C123.534 4.46301 124.181 4.46301 124.7 4.46301C124.829 4.46301 124.958 4.58989 124.958 4.58989C124.958 4.97052 124.958 5.35242 124.958 5.6049C124.699 6.36743 124.053 6.87367 123.149 6.87367C122.759 6.87367 122.759 6.87367 122.759 7.2543C122.759 9.66369 122.759 12.0756 122.759 14.485C122.759 15.1194 123.018 15.5013 123.795 15.5013C124.182 15.5013 124.442 15.5013 124.829 15.5013C124.96 15.5013 125.089 15.5013 125.089 15.7538C125.089 16.5163 125.089 17.2763 125.089 18.0388C125.089 18.1657 125.089 18.2913 124.829 18.2913C123.535 18.2913 122.242 18.2913 121.079 18.1644C120.044 18.1644 119.397 17.4032 119.269 16.515C119.269 16.1344 119.138 15.8807 119.138 15.5C119.008 12.9638 119.008 10.5531 119.008 8.14244Z" fill="white"/>
<path d="M91.7188 14.2323C91.7188 13.216 91.7188 12.0754 91.7188 11.0604C91.7188 10.0454 91.8481 9.03038 92.3655 8.01536C93.0123 6.49284 94.1765 5.35095 95.8582 4.84344C96.893 4.46281 97.9292 4.33594 98.9614 4.33594C99.2214 4.33594 99.3508 4.33594 99.6082 4.33594C99.8682 4.33594 99.8682 4.33594 99.8682 4.58969C99.8682 5.73158 99.8682 6.7466 99.8682 7.88976C99.8682 8.01663 99.8682 8.14224 99.6082 8.14224C99.0921 8.14224 98.4453 8.14224 97.9279 8.14224C96.5049 8.26912 95.7288 9.03038 95.5994 10.426C95.5994 10.6785 95.5994 10.8067 95.5994 11.0604C95.5994 13.3442 95.5994 15.7536 95.5994 18.0386C95.5994 18.1655 95.5994 18.2911 95.342 18.2911C94.3059 18.2911 93.1417 18.2911 92.1081 18.2911C91.9775 18.2924 91.8481 18.2924 91.8481 18.0386C91.7187 16.643 91.7188 15.5011 91.7188 14.2323Z" fill="white"/>
<path d="M100.898 11.1892C100.898 8.90538 100.898 6.74847 100.898 4.46469C100.898 4.33655 100.898 4.21094 101.158 4.21094C101.675 4.21094 102.321 4.21094 102.839 4.21094C103.875 4.21094 104.65 4.9722 104.65 5.98721C104.65 9.92039 104.65 13.8523 104.65 17.9124C104.65 18.0405 104.65 18.1661 104.392 18.1661C103.356 18.1661 102.192 18.1661 101.158 18.1661C101.028 18.1674 100.898 18.1674 100.898 17.9136C100.898 15.7567 100.898 13.4729 100.898 11.1892Z" fill="white"/>
<path d="M105.166 24.2524C105.037 24.5061 104.908 24.8868 104.908 25.1405C104.391 26.663 103.873 28.0587 103.355 29.5812C103.355 29.7081 103.226 29.7081 103.098 29.7081C102.838 29.7081 102.58 29.7081 102.32 29.7081C102.19 29.7081 102.062 29.5812 102.062 29.4556C101.544 28.0587 101.027 26.663 100.639 25.2674C100.509 24.8868 100.38 24.633 100.249 24.2524C100.249 24.1255 100.249 24.1255 100.12 24.1255V24.2524C100.12 25.9018 100.12 27.6781 100.249 29.3275C100.249 29.4556 100.249 29.5812 99.992 29.5812C99.6026 29.5812 99.2158 29.5812 98.8277 29.5812C98.6984 29.5812 98.5703 29.4543 98.5703 29.3275C98.5703 26.9181 98.5703 24.3805 98.5703 21.9686C98.5703 21.7148 98.6997 21.7148 98.8277 21.7148C99.3452 21.7148 99.8639 21.7148 100.38 21.7148C100.511 21.7148 100.639 21.7148 100.768 21.9686C101.157 22.9836 101.415 23.9986 101.804 24.8868C102.062 25.6493 102.32 26.4093 102.58 27.2974C102.58 27.2974 102.58 27.2974 102.71 27.4243C102.71 27.2974 102.839 27.2974 102.839 27.1705C103.486 25.3955 104.133 23.7461 104.65 21.9686C104.65 21.8417 104.779 21.7148 104.909 21.7148C105.425 21.7148 105.944 21.7148 106.59 21.7148C106.72 21.7148 106.849 21.843 106.849 21.9686C106.849 24.5061 106.849 26.9168 106.849 29.4543C106.849 29.5812 106.849 29.7068 106.59 29.7068C106.202 29.7068 105.814 29.7068 105.426 29.7068C105.297 29.7068 105.169 29.7068 105.169 29.5799C105.169 28.0574 105.169 26.5349 105.169 25.0124C105.166 24.7599 105.166 24.5061 105.166 24.2524Z" fill="white"/>
<path d="M90.8051 24.1281C90.4157 24.1281 90.1583 24.1281 89.7689 24.1281H89.6396C89.2502 24.1281 88.8634 24 88.6034 23.7475C87.4405 22.7325 85.5002 23.24 84.8534 24.7625C84.2066 26.1581 84.984 27.8063 86.4057 28.1882C87.4405 28.5688 88.7341 28.0613 89.2515 27.0463V26.9194C89.1221 26.9194 89.1221 26.9194 88.9941 26.9194C88.0886 26.9194 87.1831 26.9194 86.2776 26.9194C86.1469 26.9194 86.0176 26.9194 86.0176 26.6656C86.0176 26.4119 86.0176 26.1581 86.0176 25.7775C86.0176 25.5237 86.0176 25.5237 86.2776 25.5237C87.8286 25.5237 89.3809 25.5237 90.8051 25.5237C90.9344 25.5237 91.0625 25.6519 91.0625 25.7775C91.1919 27.9344 89.2515 29.8376 87.1818 29.8376C84.984 29.9644 83.4304 28.4406 82.913 26.7925C82.2662 24.3819 84.0772 21.8443 86.6644 21.5906C87.9579 21.4624 89.1221 21.8443 89.8983 22.7312C90.4157 23.24 90.5451 23.6206 90.8051 24.1281Z" fill="white"/>
<path d="M124.442 24.1279C123.795 24.1279 123.278 24.1279 122.631 24.1279C122.501 24.1279 122.501 23.9998 122.372 23.9998C121.595 23.2398 120.689 23.1129 119.784 23.4935C118.878 23.8742 118.231 24.6354 118.231 25.5236C118.102 26.7923 118.878 27.8074 120.042 28.1893C121.207 28.5699 122.371 28.0611 122.887 27.0474V26.9205C122.758 26.9205 122.758 26.9205 122.758 26.9205C121.853 26.9205 120.947 26.9205 120.041 26.9205C119.912 26.9205 119.782 26.9205 119.782 26.6667C119.782 26.413 119.782 26.1592 119.782 25.7786C119.782 25.6517 119.782 25.5248 120.041 25.5248C121.592 25.5248 123.146 25.5248 124.569 25.5248C124.698 25.5248 124.826 25.653 124.826 25.7786C124.957 27.8086 123.275 29.7118 121.205 29.8386C119.396 29.9643 117.843 29.0761 117.067 27.5536C116.034 25.3967 116.938 22.8592 119.138 21.971C121.209 21.0829 123.535 21.971 124.443 23.8742C124.442 24.001 124.442 24.1279 124.442 24.1279Z" fill="white"/>
<path d="M111.373 24.6338C111.373 25.1413 111.373 25.5219 111.373 26.0307C111.373 27.1713 111.373 28.3145 111.373 29.4564C111.373 29.7088 111.373 29.7088 111.114 29.7088C110.726 29.7088 110.467 29.7088 110.079 29.7088C109.948 29.7088 109.82 29.7088 109.82 29.4564C109.82 27.0457 109.82 24.5082 109.82 22.0962C109.82 21.8437 109.82 21.8438 110.079 21.8438C110.338 21.8438 110.726 21.8438 110.985 21.8438C111.242 21.8438 111.373 21.9706 111.502 22.0962C112.149 22.9844 112.665 23.8725 113.312 24.7619C113.7 25.3963 114.089 26.0307 114.605 26.6651C114.605 26.6651 114.736 26.6651 114.736 26.7919C114.736 26.6651 114.736 26.5382 114.736 26.4113C114.736 25.0157 114.736 23.4931 114.736 22.0975C114.736 21.9706 114.736 21.845 114.993 21.845C115.383 21.845 115.769 21.845 116.029 21.845C116.287 21.845 116.287 21.9719 116.287 22.0975C116.287 23.8738 116.287 25.7769 116.287 27.5545C116.287 28.1889 116.287 28.8232 116.287 29.4576C116.287 29.5845 116.287 29.7101 116.029 29.7101C115.64 29.7101 115.383 29.7101 114.993 29.7101C114.864 29.7101 114.736 29.5832 114.736 29.5832C113.701 28.0594 112.666 26.41 111.631 24.8875C111.503 24.7606 111.503 24.7606 111.373 24.6338Z" fill="white"/>
<path d="M90.5469 29.7123C90.8069 29.0779 91.0643 28.4435 91.3243 27.8092C92.1017 25.906 92.8766 24.0029 93.5234 22.0997C93.6527 21.8472 93.7808 21.7191 94.0408 21.8472C94.2982 21.8472 94.5569 21.8472 94.8169 21.8472C94.9463 21.8472 95.0744 21.8472 95.0744 22.0997C95.5918 23.4953 96.1092 24.891 96.756 26.2866C97.1441 27.4273 97.6602 28.4423 98.0496 29.5854V29.7123C97.9202 29.7123 97.9202 29.7123 97.9202 29.7123C97.5308 29.7123 97.0134 29.7123 96.6266 29.7123C96.496 29.7123 96.3666 29.7123 96.3666 29.4598C96.2386 29.0779 96.1092 28.6973 95.8505 28.1898C95.8505 28.0616 95.7199 27.936 95.5918 27.936C94.8157 27.936 93.9102 27.936 93.134 27.936C93.0047 27.936 92.8766 28.0629 92.8766 28.1898C92.7472 28.5704 92.6179 28.951 92.4872 29.3304C92.3579 29.4586 92.3579 29.5842 92.1004 29.5842C91.4537 29.7123 90.9349 29.7123 90.5469 29.7123ZM94.2982 24.2566C93.9102 25.0191 93.6514 25.906 93.2634 26.6673C93.9101 26.6673 94.5569 26.6673 95.2037 26.6673C94.945 25.7791 94.5569 25.0179 94.2982 24.2566Z" fill="white"/>
<path d="M107.492 25.7757C107.492 24.5069 107.492 23.2381 107.492 22.0962C107.492 21.8437 107.623 21.8438 107.751 21.8438C108.139 21.8438 108.398 21.8438 108.786 21.8438C109.174 21.8438 109.174 21.8437 109.174 22.0962C109.174 23.6188 109.174 25.1413 109.174 26.5369C109.174 27.4251 109.174 28.4401 109.174 29.3282C109.174 29.4564 109.174 29.582 108.916 29.582C108.527 29.582 108.139 29.582 107.88 29.582C107.751 29.582 107.623 29.582 107.623 29.3282C107.492 28.3132 107.492 27.0444 107.492 25.7757Z" fill="white"/>
<path d="M102.706 3.0666C102.189 3.0666 101.671 3.0666 101.024 3.0666C100.766 3.0666 100.766 3.0666 100.766 2.81412C100.766 2.05159 100.766 1.16345 100.766 0.40346C100.766 0.276583 100.766 0.149706 101.024 0.149706C101.542 0.148438 102.189 0.148438 102.706 0.148438C103.742 0.148438 104.517 0.910967 104.517 1.92471C104.517 2.17847 104.517 2.43095 104.517 2.81285C104.517 2.93973 104.517 3.06533 104.258 3.06533C103.742 3.0666 103.223 3.0666 102.706 3.0666Z" fill="white"/>
<path d="M126.899 20.0661C126.899 20.3199 126.899 20.4467 126.899 20.7005C126.899 21.0811 126.899 21.4617 126.899 21.8424C126.899 21.9693 126.77 21.9692 126.77 22.0961C126.77 21.9692 126.641 21.9693 126.641 21.8436C126.641 21.2093 126.641 20.4467 126.641 19.8123C126.641 19.6855 126.641 19.5586 126.77 19.5586C126.901 19.5586 127.03 19.5586 127.03 19.6867C127.287 20.3211 127.546 20.8274 127.677 21.4617L127.806 21.5899L127.935 21.4617C128.194 20.8274 128.453 20.3211 128.712 19.6867C128.712 19.5586 128.842 19.5586 128.972 19.5586L129.101 19.6867C129.101 20.448 129.101 21.0824 129.101 21.8436L128.972 21.9705C128.972 21.8436 128.841 21.8436 128.841 21.7168C128.841 21.2105 128.841 20.5761 128.841 20.0674C128.841 20.0674 128.841 19.9405 128.841 19.8136C128.841 19.9418 128.71 19.9418 128.71 20.0674C128.452 20.5736 128.324 21.208 128.064 21.7155C128.064 21.8436 127.934 21.8436 127.934 21.9693C127.805 21.8424 127.805 21.8424 127.677 21.7155C127.417 21.208 127.287 20.5736 126.899 20.0661C127.03 20.0661 127.03 20.0661 126.899 20.0661C127.03 20.0661 127.03 20.0661 126.899 20.0661Z" fill="white"/>
<path d="M125.996 20.9555C125.996 21.2093 125.996 21.5899 125.996 21.8436C125.996 21.9705 125.867 21.9705 125.867 22.0961C125.867 21.9693 125.737 21.9693 125.737 21.8436C125.737 21.2093 125.737 20.7018 125.737 20.0674C125.737 19.9405 125.737 19.8136 125.477 19.8136H125.348L125.219 19.6867L125.348 19.5586C125.737 19.5586 125.995 19.5586 126.384 19.5586L126.514 19.6867C126.514 19.6867 126.514 19.8136 126.384 19.8136C126.384 19.8136 126.254 19.8136 126.124 19.8136C125.995 19.8136 125.867 19.8136 125.867 20.0674C125.996 20.3211 125.996 20.5749 125.996 20.9555Z" fill="white"/>
<path d="M15.2692 23.2369C19.5557 23.2369 23.0306 19.8287 23.0306 15.6243C23.0306 11.42 19.5557 8.01172 15.2692 8.01172C10.9827 8.01172 7.50781 11.42 7.50781 15.6243C7.50781 19.8287 10.9827 23.2369 15.2692 23.2369Z" fill="url(#paint0_linear_5687_42157)"/>
<path d="M30.0108 12.4539C27.6823 12.327 25.3539 12.2002 22.8961 12.0733C24.4484 10.042 25.8713 8.26698 27.2943 6.36383C24.9658 7.25197 22.7668 8.26698 20.4384 9.28199C20.9558 7.25196 21.4732 5.22194 21.9906 3.19191C20.6971 4.33253 19.5329 5.47569 18.1099 6.61758C17.9806 4.58755 17.8512 2.6844 17.7219 0.78125C17.5925 0.78125 17.5925 0.78125 17.5925 0.78125C16.4283 2.81255 15.1347 4.96818 13.9705 6.99821C12.677 5.22194 11.5127 3.44566 10.3485 1.66939C10.2192 1.66939 10.2192 1.66939 10.2192 1.66939C10.3485 3.82629 10.6073 5.9832 10.7366 8.26698C8.92561 6.99821 6.85591 5.47569 4.91556 4.08005C5.82105 6.11007 6.59719 8.1401 7.63205 10.1701C5.6917 9.7895 3.8807 9.40887 2.06971 9.02824C3.75134 10.5508 5.30363 12.2002 7.11462 13.7227C4.65684 14.1033 2.32842 14.6108 0 14.9914C0 15.1183 0 15.1183 0 15.1183C2.06971 15.7527 4.01006 16.514 6.07976 17.1484C4.26877 18.1634 2.58713 19.1784 0.905497 20.1934C0.905497 20.3215 0.905497 20.3215 0.905497 20.3215C3.10456 20.0678 5.43298 19.814 7.89076 19.559C6.46783 21.4622 5.04491 23.2384 3.49263 25.0147C5.56234 23.9997 7.89076 22.9847 10.0898 21.8428C9.70175 24.2535 9.31368 26.5372 8.92561 28.9479C9.05497 28.9479 9.05497 28.9479 9.05497 28.9479C10.3485 27.4254 11.6421 25.776 13.065 24.2535C13.5825 25.9028 14.0999 27.4254 14.7467 29.0748C14.876 29.0748 14.876 29.0748 14.876 29.0748C15.3934 27.4254 16.0402 25.9028 16.5577 24.2535C17.8512 25.9028 19.4035 27.6791 20.6971 29.3285C20.5677 26.9191 20.309 24.3816 20.0503 21.9697C22.12 23.2384 24.0603 24.3803 26.0007 25.6491C25.0952 23.4922 24.1897 21.2084 23.2842 19.0515C25.3539 19.0515 27.4236 18.9234 29.4933 18.9234C29.4933 18.7965 29.4933 18.7965 29.4933 18.7965C27.553 17.9083 25.6126 17.1471 23.5429 16.3858C25.6126 15.3721 27.8117 13.8496 30.0108 12.4539ZM15.1347 23.1116C11.1247 22.9847 7.37333 19.6859 7.63205 15.1183C7.7614 11.312 10.9953 8.01323 15.2641 8.01323C19.5329 8.01323 22.8961 11.4389 22.8961 15.499C22.8961 19.559 19.5329 22.9847 15.1347 23.1116Z" fill="#FFCC00"/>
<path d="M20.3078 17.4016C20.1785 17.1478 20.0491 16.7672 19.7904 16.5134C19.661 16.3866 19.661 16.3866 19.661 16.3866C19.661 16.5147 19.661 16.5147 19.661 16.5147C19.7904 16.6416 19.7904 16.8953 19.7904 17.021C18.1088 17.6553 12.5464 17.5285 10.3474 16.8941C10.4767 16.7672 10.7354 16.3866 10.6061 16.1328C10.218 16.6391 9.82993 17.1478 9.3125 17.5285C9.70057 17.5285 9.82993 17.2747 10.0886 17.1478C10.6061 17.7822 10.9941 18.4166 11.6409 19.051C12.8051 20.1916 14.0987 20.7004 15.651 20.5735C16.6858 20.4454 17.5913 20.066 18.3675 19.3047C19.0143 18.7972 19.661 18.036 20.0491 17.2734C20.1785 17.4016 20.3078 17.5272 20.5665 17.7809H20.6959C20.5665 17.6553 20.5665 17.6553 20.5665 17.6553C20.4372 17.6553 20.3078 17.5285 20.3078 17.4016ZM19.0143 18.4166C18.3675 19.1779 17.5913 19.8122 16.5565 20.1916C15.0042 20.6991 13.7106 20.4454 12.2877 19.5572C11.6409 19.051 10.7354 18.036 10.4767 17.4016C13.5813 18.036 16.5565 18.036 19.5317 17.5285C19.4023 17.7822 19.1436 18.036 19.0143 18.4166Z" fill="#242422"/>
<path d="M18.5031 14.6111C18.6323 14.4831 18.7616 14.4831 18.7616 14.4831C18.7616 14.2309 18.7616 13.9774 18.8908 13.7227C18.6323 13.7239 18.3739 14.2309 18.5031 14.6111Z" fill="white"/>
<path d="M19.4069 13.8474C19.2775 13.5936 19.2775 13.3398 18.8895 13.3398C18.7601 13.3398 18.5014 13.4667 18.372 13.7205C17.8546 14.6086 18.1133 15.3699 18.2427 15.3699C18.372 15.7505 18.7601 15.8774 19.0188 15.498C19.5363 15.1161 19.5363 14.4817 19.4069 13.8474ZM18.7601 14.4817C18.7601 14.6099 18.6308 14.6099 18.5014 14.6099C18.372 14.1024 18.6308 13.7217 18.8895 13.7217C18.7601 13.8474 18.7601 14.228 18.7601 14.4817Z" fill="#242422"/>
<path d="M10.6121 12.9604C10.4827 12.8335 10.0947 13.0872 10.0947 13.2141C9.96529 13.5947 9.83594 13.9754 9.83594 14.356C9.83594 14.4829 9.83594 14.4829 9.83594 14.4829C9.83594 14.7366 9.96529 15.1173 10.3534 15.1173C10.4827 15.1173 10.8708 14.9904 10.8708 14.611C11.0001 14.2304 11.1295 13.7229 11.0001 13.3423C11.0001 13.2141 10.8708 13.0872 10.6121 12.9604ZM10.224 14.1023C10.224 14.2291 10.0947 14.2291 9.96529 14.2291C9.83594 13.7216 10.0947 13.341 10.4827 13.341C10.3534 13.5947 10.3534 13.8485 10.224 14.1023Z" fill="#242422"/>
<path d="M14.0971 15.3741C14.4852 15.3741 14.7439 15.3741 15.132 15.3741C15.132 15.5023 15.132 15.5023 15.132 15.6279C15.132 15.7535 15.132 15.7548 15.132 15.7548C15.2614 15.7548 15.2614 15.7548 15.2614 15.7548C15.2614 15.6279 15.3907 15.6279 15.3907 15.6279C15.5201 15.3741 15.3907 15.1204 15.132 15.1204C14.7439 15.1204 14.4852 15.1204 14.0971 15.1204C13.5797 15.1204 13.1917 14.8679 13.1917 14.3591C13.0623 13.8516 13.1917 13.3441 13.5797 12.9635C13.9678 12.456 14.4852 12.2009 15.132 12.0753C15.2614 12.0753 15.2614 11.9472 15.3907 11.9472C15.2614 11.8203 15.132 11.8203 15.0026 11.8203C14.4852 11.9472 13.9678 12.2009 13.5797 12.5816C13.1917 12.9635 12.9329 13.3441 12.9329 13.8516C12.6742 14.8666 13.321 15.3741 14.0971 15.3741Z" fill="#242422"/>
<path d="M10.7363 12.0747C11.5125 12.2016 11.6418 12.836 11.7712 13.4703C11.9005 12.5822 11.3831 11.8209 10.7363 11.8209C9.83083 11.6941 9.3134 12.3284 9.05469 13.0897C9.44276 12.4553 9.83083 11.9478 10.7363 12.0747Z" fill="#242422"/>
<path d="M19.146 12.4536C19.9222 12.5805 20.3102 13.2149 20.4396 13.9761C20.4396 13.088 19.9222 12.3267 19.146 12.1998C18.2405 12.073 17.8525 12.7073 17.5938 13.4686C17.9818 12.8342 18.3699 12.3267 19.146 12.4536Z" fill="#242422"/>
<path d="M15.2692 23.2369C19.5557 23.2369 23.0306 19.8287 23.0306 15.6243C23.0306 11.42 19.5557 8.01172 15.2692 8.01172C10.9827 8.01172 7.50781 11.42 7.50781 15.6243C7.50781 19.8287 10.9827 23.2369 15.2692 23.2369Z" fill="url(#paint1_linear_5687_42157)"/>
<path d="M30.0108 12.4539C27.6823 12.327 25.3539 12.2002 22.8961 12.0733C24.4484 10.042 25.8713 8.26698 27.2943 6.36383C24.9658 7.25197 22.7668 8.26698 20.4384 9.28199C20.9558 7.25196 21.4732 5.22194 21.9906 3.19191C20.6971 4.33253 19.5329 5.47569 18.1099 6.61758C17.9806 4.58755 17.8512 2.6844 17.7219 0.78125C17.5925 0.78125 17.5925 0.78125 17.5925 0.78125C16.4283 2.81255 15.1347 4.96818 13.9705 6.99821C12.677 5.22194 11.5127 3.44566 10.3485 1.66939C10.2192 1.66939 10.2192 1.66939 10.2192 1.66939C10.3485 3.82629 10.6073 5.9832 10.7366 8.26698C8.92561 6.99821 6.85591 5.47569 4.91556 4.08005C5.82105 6.11007 6.59719 8.1401 7.63205 10.1701C5.6917 9.7895 3.8807 9.40887 2.06971 9.02824C3.75134 10.5508 5.30363 12.2002 7.11462 13.7227C4.65684 14.1033 2.32842 14.6108 0 14.9914C0 15.1183 0 15.1183 0 15.1183C2.06971 15.7527 4.01006 16.514 6.07976 17.1484C4.26877 18.1634 2.58713 19.1784 0.905497 20.1934C0.905497 20.3215 0.905497 20.3215 0.905497 20.3215C3.10456 20.0678 5.43298 19.814 7.89076 19.559C6.46783 21.4622 5.04491 23.2384 3.49263 25.0147C5.56234 23.9997 7.89076 22.9847 10.0898 21.8428C9.70175 24.2535 9.31368 26.5372 8.92561 28.9479C9.05497 28.9479 9.05497 28.9479 9.05497 28.9479C10.3485 27.4254 11.6421 25.776 13.065 24.2535C13.5825 25.9028 14.0999 27.4254 14.7467 29.0748C14.876 29.0748 14.876 29.0748 14.876 29.0748C15.3934 27.4254 16.0402 25.9028 16.5577 24.2535C17.8512 25.9028 19.4035 27.6791 20.6971 29.3285C20.5677 26.9191 20.309 24.3816 20.0503 21.9697C22.12 23.2384 24.0603 24.3803 26.0007 25.6491C25.0952 23.4922 24.1897 21.2084 23.2842 19.0515C25.3539 19.0515 27.4236 18.9234 29.4933 18.9234C29.4933 18.7965 29.4933 18.7965 29.4933 18.7965C27.553 17.9083 25.6126 17.1471 23.5429 16.3858C25.6126 15.3721 27.8117 13.8496 30.0108 12.4539ZM15.1347 23.1116C11.1247 22.9847 7.37333 19.6859 7.63205 15.1183C7.7614 11.312 10.9953 8.01323 15.2641 8.01323C19.5329 8.01323 22.8961 11.4389 22.8961 15.499C22.8961 19.559 19.5329 22.9847 15.1347 23.1116Z" fill="#FFCC00"/>
<path d="M20.3078 17.4016C20.1785 17.1478 20.0491 16.7672 19.7904 16.5134C19.661 16.3866 19.661 16.3866 19.661 16.3866C19.661 16.5147 19.661 16.5147 19.661 16.5147C19.7904 16.6416 19.7904 16.8953 19.7904 17.021C18.1088 17.6553 12.5464 17.5285 10.3474 16.8941C10.4767 16.7672 10.7354 16.3866 10.6061 16.1328C10.218 16.6391 9.82993 17.1478 9.3125 17.5285C9.70057 17.5285 9.82993 17.2747 10.0886 17.1478C10.6061 17.7822 10.9941 18.4166 11.6409 19.051C12.8051 20.1916 14.0987 20.7004 15.651 20.5735C16.6858 20.4454 17.5913 20.066 18.3675 19.3047C19.0143 18.7972 19.661 18.036 20.0491 17.2734C20.1785 17.4016 20.3078 17.5272 20.5665 17.7809H20.6959C20.5665 17.6553 20.5665 17.6553 20.5665 17.6553C20.4372 17.6553 20.3078 17.5285 20.3078 17.4016ZM19.0143 18.4166C18.3675 19.1779 17.5913 19.8122 16.5565 20.1916C15.0042 20.6991 13.7106 20.4454 12.2877 19.5572C11.6409 19.051 10.7354 18.036 10.4767 17.4016C13.5813 18.036 16.5565 18.036 19.5317 17.5285C19.4023 17.7822 19.1436 18.036 19.0143 18.4166Z" fill="#242422"/>
<path d="M18.5031 14.6111C18.6323 14.4831 18.7616 14.4831 18.7616 14.4831C18.7616 14.2309 18.7616 13.9774 18.8908 13.7227C18.6323 13.7239 18.3739 14.2309 18.5031 14.6111Z" fill="white"/>
<path d="M19.4069 13.8474C19.2775 13.5936 19.2775 13.3398 18.8895 13.3398C18.7601 13.3398 18.5014 13.4667 18.372 13.7205C17.8546 14.6086 18.1133 15.3699 18.2427 15.3699C18.372 15.7505 18.7601 15.8774 19.0188 15.498C19.5363 15.1161 19.5363 14.4817 19.4069 13.8474ZM18.7601 14.4817C18.7601 14.6099 18.6308 14.6099 18.5014 14.6099C18.372 14.1024 18.6308 13.7217 18.8895 13.7217C18.7601 13.8474 18.7601 14.228 18.7601 14.4817Z" fill="#242422"/>
<path d="M10.6121 12.9604C10.4827 12.8335 10.0947 13.0872 10.0947 13.2141C9.96529 13.5947 9.83594 13.9754 9.83594 14.356C9.83594 14.4829 9.83594 14.4829 9.83594 14.4829C9.83594 14.7366 9.96529 15.1173 10.3534 15.1173C10.4827 15.1173 10.8708 14.9904 10.8708 14.611C11.0001 14.2304 11.1295 13.7229 11.0001 13.3423C11.0001 13.2141 10.8708 13.0872 10.6121 12.9604ZM10.224 14.1023C10.224 14.2291 10.0947 14.2291 9.96529 14.2291C9.83594 13.7216 10.0947 13.341 10.4827 13.341C10.3534 13.5947 10.3534 13.8485 10.224 14.1023Z" fill="#242422"/>
<path d="M14.0971 15.3741C14.4852 15.3741 14.7439 15.3741 15.132 15.3741C15.132 15.5023 15.132 15.5023 15.132 15.6279C15.132 15.7535 15.132 15.7548 15.132 15.7548C15.2614 15.7548 15.2614 15.7548 15.2614 15.7548C15.2614 15.6279 15.3907 15.6279 15.3907 15.6279C15.5201 15.3741 15.3907 15.1204 15.132 15.1204C14.7439 15.1204 14.4852 15.1204 14.0971 15.1204C13.5797 15.1204 13.1917 14.8679 13.1917 14.3591C13.0623 13.8516 13.1917 13.3441 13.5797 12.9635C13.9678 12.456 14.4852 12.2009 15.132 12.0753C15.2614 12.0753 15.2614 11.9472 15.3907 11.9472C15.2614 11.8203 15.132 11.8203 15.0026 11.8203C14.4852 11.9472 13.9678 12.2009 13.5797 12.5816C13.1917 12.9635 12.9329 13.3441 12.9329 13.8516C12.6742 14.8666 13.321 15.3741 14.0971 15.3741Z" fill="#242422"/>
<path d="M10.7363 12.0747C11.5125 12.2016 11.6418 12.836 11.7712 13.4703C11.9005 12.5822 11.3831 11.8209 10.7363 11.8209C9.83083 11.6941 9.3134 12.3284 9.05469 13.0897C9.44276 12.4553 9.83083 11.9478 10.7363 12.0747Z" fill="#242422"/>
<path d="M19.146 12.4536C19.9222 12.5805 20.3102 13.2149 20.4396 13.9761C20.4396 13.088 19.9222 12.3267 19.146 12.1998C18.2405 12.073 17.8525 12.7073 17.5938 13.4686C17.9818 12.8342 18.3699 12.3267 19.146 12.4536Z" fill="#242422"/>
<path d="M49.6767 18.1649C49.9354 18.1649 49.9354 18.0381 49.9354 17.9112C49.9354 12.4555 49.9354 7.12666 49.9354 1.79784C49.9354 0.909698 49.1592 0.148438 48.2538 0.148438C47.7363 0.148438 47.0895 0.148438 46.4428 0.148438C46.184 0.148438 46.184 0.276583 46.184 0.402191C46.184 3.32036 46.184 6.23852 46.184 9.15669C46.184 12.0749 46.184 14.993 46.0547 17.9099C46.0547 18.1637 46.184 18.1637 46.3134 18.1637C47.4776 18.1649 48.5125 18.1649 49.6767 18.1649Z" fill="url(#paint2_linear_5687_42157)"/>
<path d="M54.8495 4.7186C54.8495 4.46484 54.7201 4.46484 54.5907 4.46484C53.4265 4.46484 52.3917 4.46484 51.2275 4.46484C50.9687 4.46484 50.9688 4.59172 50.9688 4.7186C50.9688 7.38301 50.9688 9.92054 50.9688 12.5837C50.9688 13.2181 50.9687 13.9806 51.0981 14.615C51.3568 15.8838 52.0036 17.0244 53.2972 17.6588C55.4962 18.8007 57.8247 18.9275 60.2824 18.0407C61.3173 17.6588 62.2228 17.0244 62.7402 15.8838C63.1283 15.1212 63.2576 14.3612 63.2576 13.4731C63.2576 10.5549 63.2576 7.63676 63.2576 4.71987C63.2576 4.46611 63.1283 4.46611 62.9989 4.46611C62.4815 4.46611 61.8347 4.46611 61.3173 4.46611C61.0586 4.46611 60.7999 4.59299 60.6705 4.59299C60.0237 4.7186 59.5063 5.47986 59.5063 6.24112C59.5063 8.52617 59.5063 10.81 59.5063 13.0925C59.5063 13.2193 59.5063 13.4731 59.5063 13.7268C59.5063 14.2344 59.2476 14.7419 58.7302 15.1225C57.8247 15.7569 56.9192 15.8838 56.0137 15.5031C55.3669 15.2494 54.8494 14.8687 54.7201 14.1062C54.5907 13.7256 54.5907 13.4718 54.5907 13.0912C54.5907 11.6956 54.5907 10.2999 54.5907 8.90426C54.5907 7.38301 54.5907 5.98736 54.8495 4.7186Z" fill="url(#paint3_linear_5687_42157)"/>
<path d="M33.8935 0.277344C33.376 0.277344 32.7293 0.277344 32.2118 0.277344C31.9531 0.277344 31.9531 0.404221 31.9531 0.529829C31.9531 4.46428 31.9531 8.39619 31.9531 12.3306C31.9531 13.0919 32.0825 13.8519 32.2118 14.6144C32.4706 15.755 33.1173 16.6444 34.1522 17.2788C36.3513 18.6757 38.809 18.9282 41.2668 18.2938C42.1723 18.0414 42.8191 17.7876 43.4659 17.1532C44.1126 16.3907 44.6301 15.5038 44.8888 14.6157C45.4062 13.3469 45.5356 11.95 45.4062 10.6812C45.2769 9.28559 45.0181 8.01683 44.3714 6.87494C43.2072 4.97179 41.6549 3.82989 39.4558 3.95677C37.9035 3.95677 36.7393 4.59115 35.7045 5.98807C35.5751 4.46555 35.7045 3.19678 35.5751 2.05362C35.5751 1.0386 34.799 0.277344 33.8935 0.277344ZM35.9632 8.90497C36.3512 7.76307 37.2567 7.12869 38.5503 7.12869C39.8439 7.00181 40.7494 7.6362 41.2668 8.77809C41.5255 9.53935 41.6549 10.3006 41.6549 11.1887C41.6549 11.95 41.6549 12.8381 41.2668 13.5994C40.8787 14.7413 39.8439 15.3757 38.5503 15.3757C37.2567 15.3757 36.3512 14.7413 35.9632 13.6007C35.4458 11.95 35.4458 10.4275 35.9632 8.90497Z" fill="url(#paint4_linear_5687_42157)"/>
<path d="M72.9569 4.33409C71.6633 3.95346 70.3697 3.82785 69.0762 4.0816C66.8784 4.33409 65.4542 5.60285 64.678 7.63288C63.7725 9.91666 63.9019 12.0736 64.5487 14.3574C65.0661 16.1336 66.2316 17.4024 68.0413 18.0368C69.3349 18.543 70.6284 18.543 71.922 18.2893C73.6037 18.0368 75.0253 17.2742 76.0614 15.7517C76.4495 15.1173 76.7082 14.483 76.8376 13.8486C76.7082 13.8486 76.7082 13.8486 76.7082 13.8486C75.9321 13.8486 75.2853 13.8486 74.5091 13.8486C73.8624 13.8486 73.2156 14.1023 72.8275 14.6111C72.5688 14.9917 72.0514 15.2455 71.5339 15.3724C70.3697 15.4992 69.3349 15.4992 68.5587 14.4842C68.172 13.978 67.912 13.3436 67.912 12.5811C67.7826 12.2004 67.7826 12.2004 68.172 12.2004C71.0165 12.2004 73.993 12.2004 76.8376 12.2004C76.9669 12.2004 77.0963 12.0736 77.0963 11.9467C77.0963 11.4405 77.0963 11.0598 77.0963 10.551C77.0963 9.40916 76.8376 8.39414 76.4495 7.37913C75.6734 5.85661 74.6398 4.84159 72.9569 4.33409ZM72.8275 9.78979C72.0514 9.78979 71.2752 9.78979 70.4978 9.78979C69.5936 9.78979 68.8174 9.78979 68.0413 9.78979C67.7826 9.78979 67.7826 9.78979 67.7826 9.53603C67.912 8.6479 68.172 7.88664 68.9468 7.37913C69.851 6.74475 71.4046 6.74475 72.3101 7.50601C72.9569 8.01351 73.0862 8.6479 73.2156 9.28228C73.3462 9.78979 73.3462 9.78979 72.8275 9.78979Z" fill="url(#paint5_linear_5687_42157)"/>
<defs>
<linearGradient id="paint0_linear_5687_42157" x1="9.68165" y1="10.1421" x2="20.4851" y2="21.157" gradientUnits="userSpaceOnUse">
<stop stop-color="white"/>
<stop offset="1" stop-color="#FFF2A9"/>
</linearGradient>
<linearGradient id="paint1_linear_5687_42157" x1="9.68165" y1="10.1421" x2="20.4851" y2="21.157" gradientUnits="userSpaceOnUse">
<stop stop-color="white"/>
<stop offset="1" stop-color="#FFF2A9"/>
</linearGradient>
<linearGradient id="paint2_linear_5687_42157" x1="47.9952" y1="19.6517" x2="47.9952" y2="-1.12046" gradientUnits="userSpaceOnUse">
<stop stop-color="#40C6F3"/>
<stop offset="1" stop-color="#4098D3"/>
</linearGradient>
<linearGradient id="paint3_linear_5687_42157" x1="57.1131" y1="19.6543" x2="57.1131" y2="-1.1157" gradientUnits="userSpaceOnUse">
<stop stop-color="#40C6F3"/>
<stop offset="1" stop-color="#4098D3"/>
</linearGradient>
<linearGradient id="paint4_linear_5687_42157" x1="38.7036" y1="19.6537" x2="38.7036" y2="-1.11995" gradientUnits="userSpaceOnUse">
<stop stop-color="#40C6F3"/>
<stop offset="1" stop-color="#4098D3"/>
</linearGradient>
<linearGradient id="paint5_linear_5687_42157" x1="70.5635" y1="19.6517" x2="70.5635" y2="-1.122" gradientUnits="userSpaceOnUse">
<stop stop-color="#40C6F3"/>
<stop offset="1" stop-color="#4098D3"/>
</linearGradient>
</defs>
</svg>
