<svg width="108" height="36" viewBox="0 0 108 36" fill="none" xmlns="http://www.w3.org/2000/svg">
<path d="M37.1368 19.6047L30.9844 34.7326H33.8987C34.2225 34.7326 34.4383 34.6279 34.6542 34.5254C34.8701 34.3181 34.978 34.2145 35.086 34.0073L36.0574 31.3122H42.1019L43.0733 33.9026C43.1812 34.1099 43.2892 34.3171 43.505 34.4207C43.7209 34.5254 43.9368 34.6279 44.2606 34.6279H47.0669L40.9145 19.5H37.1368V19.6047ZM36.813 28.9301L38.2161 24.7855C38.3241 24.4746 38.432 24.1638 38.5399 23.8539C38.6479 23.5421 38.7558 23.1286 38.8638 22.7131C38.9717 23.1276 39.0796 23.5421 39.1876 23.8539C39.2955 24.1648 39.4034 24.4756 39.5114 24.7855L41.0225 28.9301H36.813Z" fill="white"/>
<path d="M21.3728 23.6483C21.8045 23.2339 22.2363 22.923 22.776 22.7158C23.3156 22.5086 23.9633 22.405 24.6109 22.405C24.9347 22.405 25.3664 22.405 25.5823 22.5086C25.7982 22.6132 26.122 22.6132 26.4458 22.7158C26.7696 22.8205 26.9855 22.923 27.2014 23.0266C27.4172 23.1303 27.741 23.3375 28.0648 23.4411C28.3887 23.6483 28.6045 23.6483 28.9283 23.6483C29.1442 23.5437 29.3601 23.4411 29.576 23.2339L30.6553 21.6796C30.3315 21.3688 30.0077 21.1616 29.576 20.8507C29.1442 20.6435 28.7125 20.4362 28.2807 20.229C27.849 20.0218 27.3093 19.9171 26.6617 19.8146C26.122 19.7109 25.4744 19.7109 24.8267 19.7109C23.5315 19.7109 22.3442 19.9171 21.3728 20.3326C20.4013 20.7471 19.4299 21.2652 18.7823 21.8869C18.0267 22.6122 17.4871 23.3375 17.0553 24.3737C16.6236 25.4098 16.5156 26.3413 16.5156 27.4821C16.5156 28.6219 16.7315 29.6581 17.1632 30.5906C17.595 31.5221 18.1347 32.3511 18.8902 33.0764C19.6458 33.8017 20.6172 34.3198 21.5886 34.7353C22.5601 35.1487 23.8553 35.3569 25.1506 35.3569C26.122 35.3569 27.0934 35.2533 28.0648 34.9425C29.0363 34.7363 29.8998 34.3208 30.6553 33.7001V27.2759H25.0426V29.2436C25.0426 29.4508 25.1506 29.5555 25.2585 29.6581C25.3664 29.7607 25.5823 29.8653 25.7982 29.8653H27.4172V32.1449C27.0934 32.2485 26.7696 32.3511 26.3379 32.4557C26.0141 32.5593 25.5823 32.5593 25.1506 32.5593C24.395 32.5593 23.7474 32.4557 23.2077 32.2485C22.668 32.0412 22.1283 31.7304 21.6966 31.3159C21.2648 30.9025 20.941 30.3844 20.7252 29.7617C20.5093 29.14 20.4013 28.4147 20.4013 27.5858C20.4013 26.8604 20.5093 26.2387 20.7252 25.617C20.7252 24.5809 21.049 24.0628 21.3728 23.6483Z" fill="white"/>
<path d="M64.548 0.84971C64.4401 0.84971 64.3321 0.84971 64.2242 0.953326C64.1163 0.953326 64.0083 1.05694 64.0083 1.16056C63.9004 1.26417 63.9004 1.36779 63.7925 1.47141L59.6909 8.93176C59.5829 9.2426 59.3671 9.44984 59.2591 9.76068C59.1501 10.0715 59.0432 10.3824 58.8274 10.6932C58.7194 10.3824 58.6115 10.0715 58.3956 9.8643C58.2877 9.55345 58.0718 9.34622 57.9639 9.03537L53.9702 1.36779C53.8623 1.26417 53.8623 1.16056 53.7543 1.05694C53.6464 0.953326 53.6464 0.953326 53.5385 0.84971C53.4305 0.84971 53.3226 0.746094 53.2147 0.746094C53.1067 0.746094 52.9988 0.746094 52.7829 0.746094H49.9766V15.874H53.2147V7.2739C53.2147 7.06667 53.2147 6.85944 53.2147 6.6522C53.2147 6.44497 53.2147 6.13412 53.1067 5.92689L57.3152 13.6981C57.4242 13.9053 57.6401 14.1126 57.8549 14.2162C58.0707 14.3198 58.2866 14.4234 58.6104 14.4234H59.1501C59.4739 14.4234 59.6898 14.3198 59.9057 14.2162C60.1215 14.1126 60.3374 13.9053 60.4453 13.6981L64.656 5.82328C64.656 6.03051 64.656 6.34136 64.5469 6.54859C64.5469 6.75582 64.5469 6.96305 64.5469 7.17028V15.874H67.785V0.84971H64.9787C64.8718 0.84971 64.656 0.84971 64.548 0.84971Z" fill="#D13832"/>
<path d="M21.3784 15.7725C21.4864 15.7725 22.2419 15.7725 22.5657 15.7725C22.8895 15.7725 23.2134 15.6688 23.5372 15.5652C23.9689 15.4616 24.4007 15.2544 24.4007 15.2544C24.4007 15.2544 24.4007 15.2544 24.5086 15.2544C24.6165 15.2544 24.7245 15.1508 24.8324 15.1508C24.8324 15.1508 24.9403 15.1508 24.9403 15.0472C25.0483 15.0472 25.1562 14.9435 25.2642 14.9435C25.2642 14.9435 25.3721 14.9435 25.3721 14.8399C25.6959 14.7363 25.9118 14.5291 26.2356 14.3218L26.3435 14.2182C26.4515 14.1146 26.5594 14.1146 26.6673 14.011L26.7753 13.9074C26.8832 13.8038 26.9911 13.8038 27.0991 13.7001L27.207 13.5965C27.315 13.4929 27.4229 13.3893 27.5308 13.3893C27.5308 13.3893 27.6388 13.3893 27.6388 13.2857C27.6388 13.2857 27.6388 13.2857 27.7467 13.2857C27.9626 13.1821 28.0705 12.9748 28.2864 12.8712L28.3943 12.7676C28.5023 12.664 28.7181 12.5604 28.8261 12.4568C28.934 12.3531 28.934 12.3531 29.0419 12.3531C29.0419 12.3531 29.1499 12.3531 29.1499 12.2495C29.2578 12.1459 29.3658 12.0423 29.4737 11.9387C29.5816 11.8351 31.0927 10.3844 32.1721 9.14104C33.2515 7.89765 34.4388 6.44703 35.6261 5.10002C36.5975 4.06386 37.8927 3.44216 39.5118 3.44216C40.6991 3.44216 41.8864 3.85663 42.7499 4.58194L41.5626 5.41087L47.1753 7.89765L46.6356 2.09515L45.2324 3.0277C43.7213 1.47346 41.7785 0.644531 39.6197 0.644531C37.1372 0.644531 34.9785 1.68069 33.5753 3.33855C33.4673 3.44216 29.1499 8.51935 27.315 10.1772C27.207 10.2808 27.0991 10.3844 26.9911 10.3844C26.9911 10.3844 26.9911 10.3844 26.8832 10.3844C26.7753 10.488 26.6673 10.5917 26.4515 10.6953C26.4515 10.6953 26.3435 10.6953 26.3435 10.7989C26.2356 10.9025 26.1277 11.0061 26.0197 11.1097C26.0197 11.1097 25.9118 11.1097 25.9118 11.2134C25.8038 11.317 25.8038 11.317 25.6959 11.4206C25.6959 11.4206 25.588 11.4206 25.588 11.5242C25.588 11.5242 25.48 11.5242 25.48 11.6278C25.3721 11.7314 25.2642 11.7314 25.1562 11.8351C25.1562 11.8351 25.0483 11.8351 25.0483 11.9387L24.9403 12.0423C24.9403 12.0423 24.9403 12.0423 24.8324 12.0423C24.7245 12.1459 24.6165 12.1459 24.6165 12.1459C24.6165 12.1459 24.5086 12.1459 24.5086 12.2495C24.4007 12.2495 24.4007 12.3531 24.2927 12.3531C23.753 12.664 23.3213 12.7676 22.9975 12.8712C22.6737 12.9748 22.2419 13.0784 21.7022 13.0784C18.8959 12.9748 16.6292 10.5917 16.8451 7.89765C17.061 5.51448 19.1118 3.54578 21.5943 3.44216C23.2134 3.33855 24.6165 3.96024 25.6959 4.9964C25.9118 5.20363 27.315 6.65426 27.6388 6.96511C28.1784 6.44703 29.4737 4.9964 29.5816 4.89279C29.3658 4.58194 28.2864 3.44216 28.1784 3.44216C26.6673 1.78431 24.4007 0.748147 21.9181 0.748147C17.8165 0.851763 14.3625 3.96024 14.1467 7.89765C13.8229 12.0423 17.1689 15.5652 21.3784 15.7725Z" fill="#D13832"/>
<path d="M62.82 19.6055C62.711 19.6055 62.6041 19.6055 62.4962 19.7101C62.3872 19.7101 62.2803 19.8137 62.2803 19.9163C62.1724 20.0199 62.1724 20.1235 62.0645 20.2272L57.9629 27.8947C57.8538 28.2056 57.6391 28.4128 57.5311 28.7237C57.4232 29.0345 57.3152 29.3454 57.0994 29.6562C56.9904 29.3454 56.8835 29.0345 56.6676 28.8273C56.5597 28.5164 56.3438 28.3092 56.2359 27.9984L52.1343 20.3308C52.0263 20.2272 52.0263 20.1236 51.9184 20.0199C51.8105 19.9163 51.8105 19.9163 51.7025 19.8127C51.5946 19.8127 51.4867 19.7091 51.3787 19.7091C51.2708 19.7091 51.1629 19.7091 50.947 19.7091H48.1406V34.837H51.3787V26.1333C51.3787 25.9271 51.3787 25.7198 51.3787 25.5116C51.3787 25.3033 51.3787 24.9935 51.2708 24.7863L55.4803 32.5575C55.5883 32.7647 55.8041 32.9719 56.02 33.0755C56.2359 33.1792 56.4517 33.2828 56.7756 33.2828H57.3152C57.6401 33.2828 57.8549 33.1792 58.0708 33.0755C58.2867 32.9719 58.5025 32.7647 58.6105 32.5575L62.82 24.7863C62.82 24.9935 62.82 25.3043 62.711 25.5116C62.6031 25.7188 62.711 25.926 62.711 26.1333V34.837H65.9491V19.6055H63.1427C63.1438 19.6055 63.0359 19.6055 62.82 19.6055Z" fill="white"/>
<path d="M39.616 13.078H39.5081C39.1843 13.078 38.7525 13.078 37.7811 12.6636C36.8097 12.2491 36.5938 12.0419 35.9462 11.5238C35.5144 11.2129 34.9747 10.6949 34.435 10.1768C33.8954 10.7985 32.6001 12.1455 32.4922 12.2491C33.0319 12.7672 34.2192 13.6997 34.6509 14.1142L34.543 14.0106C35.6224 14.8395 36.9176 15.4612 38.3208 15.6684C38.7525 15.772 39.1843 15.7721 39.5081 15.7721C39.9398 15.7721 40.2636 15.772 40.5874 15.6684C43.7176 15.254 46.416 13.1816 47.2795 10.2804L44.689 9.14062C44.1494 11.4202 42.0986 13.078 39.616 13.078Z" fill="#D13832"/>
<path d="M102.214 9.96997C102.214 10.1772 102.322 10.2808 102.43 10.3844C102.538 10.488 102.754 10.5917 102.97 10.5917H104.589V12.8712C104.264 12.9748 103.94 13.0784 103.51 13.1821C103.185 13.2857 102.754 13.2857 102.321 13.2857C101.566 13.2857 100.918 13.1821 100.378 12.9748C99.8388 12.7676 99.2991 12.4568 98.8674 12.0423C98.4367 11.6278 98.1129 11.1097 97.897 10.488C97.6812 9.86635 97.5732 9.14104 97.5732 8.31211C97.5732 7.5868 97.6812 6.96511 97.897 6.34341C98.005 5.82533 98.2208 5.30725 98.6526 4.89279C99.0833 4.47832 99.5161 4.16747 100.056 3.96024C100.595 3.75301 101.243 3.64939 101.891 3.64939C102.214 3.64939 102.645 3.64939 102.861 3.75301C103.077 3.85663 103.401 3.85663 103.725 3.96024C104.049 4.06386 104.264 4.16747 104.48 4.27109C104.696 4.37471 105.02 4.58194 105.344 4.68555C105.668 4.89279 105.884 4.89279 106.208 4.89279C106.424 4.78917 106.64 4.68555 106.856 4.47832L107.935 2.92408C107.611 2.61323 107.288 2.406 106.856 2.09515C106.424 1.88792 105.992 1.68069 105.561 1.47346C105.129 1.26623 104.589 1.16261 103.941 1.059C103.294 0.748147 102.754 0.644531 101.999 0.644531C100.703 0.644531 99.5161 0.851763 98.5447 1.26623C97.4653 1.68069 96.6018 2.19877 95.9552 2.82047C95.1997 3.54578 94.66 4.27109 94.2272 5.30725C93.7965 6.23979 93.6875 7.27595 93.6875 8.41573C93.6875 9.5555 93.9034 10.5917 94.3362 11.5242C94.7669 12.4568 95.3065 13.2857 96.0632 14.011C96.8187 14.7363 97.7902 15.2544 98.7616 15.6688C99.841 16.0833 101.028 16.2905 102.324 16.2905C103.295 16.2905 104.266 16.1869 105.238 15.8761C106.209 15.6688 107.073 15.2544 107.828 14.6327V8.10488H102.216V9.96997H102.214Z" fill="#D13832"/>
<path d="M74.5828 0.851562H70.9141V15.9795H74.5828V0.851562Z" fill="#D13832"/>
<path d="M9.17462 8.10468C9.7143 7.89745 10.146 7.69022 10.4699 7.48299C10.7937 7.27575 11.1175 6.96491 11.3334 6.75767C11.5492 6.44683 11.6572 6.13598 11.7651 5.82513C11.873 5.51428 11.873 5.20343 11.873 4.89259C11.873 4.27089 11.7651 3.75281 11.5492 3.23473C11.3334 2.71665 11.0095 2.30219 10.4699 1.99134C10.0381 1.57687 9.39049 1.26603 8.63494 1.05879C7.87938 0.851562 6.90795 0.851562 5.82858 0.851562H0V15.9795H6.36827C7.33969 15.9795 8.20319 15.8759 8.85081 15.6686C9.60637 15.4614 10.254 15.1506 10.6857 14.7361C11.2254 14.3216 11.5492 13.8036 11.873 13.2855C12.0889 12.7674 12.3048 12.1457 12.3048 11.524C12.3048 10.6951 12.0889 9.96977 11.5492 9.45169C11.0095 8.72638 10.254 8.31191 9.17462 8.10468ZM3.66985 3.44196H5.82858C6.26033 3.44196 6.58414 3.44196 6.90795 3.54558C7.23176 3.64919 7.44763 3.75281 7.66351 3.85643C7.87938 3.96004 7.98732 4.16727 8.09525 4.47812C8.20319 4.68535 8.20319 4.9962 8.20319 5.41067C8.20319 5.82513 8.09525 6.03236 7.98732 6.34321C7.87938 6.44683 7.77144 6.65406 7.55557 6.75767C7.33969 6.96491 7.01588 7.06852 6.69207 7.06852C6.36826 7.06852 6.04445 7.17214 5.61271 7.17214H3.66985V3.44196ZM8.527 12.0421C8.41906 12.2493 8.31112 12.4566 8.20319 12.6638C7.98732 12.871 7.77144 12.9746 7.44763 13.0782C7.12382 13.1819 6.69208 13.2855 6.26033 13.2855H3.66985V9.55531H6.26033C6.69208 9.55531 7.12382 9.5553 7.44763 9.65892C7.66351 9.76254 7.98732 9.86615 8.09525 9.96977C8.31113 10.0734 8.41906 10.2806 8.527 10.4878C8.63494 10.7987 8.63494 11.0059 8.63494 11.3168C8.63494 11.524 8.63494 11.7312 8.527 12.0421Z" fill="#D13832"/>
<path d="M80.9554 7.79403C80.9554 7.5868 80.9554 7.37957 80.9554 7.06872C80.9554 6.75787 80.9554 6.55064 80.8475 6.23979L88.294 15.2544C88.5099 15.4616 88.7258 15.6688 88.8337 15.6688C89.0496 15.7725 89.2655 15.7725 89.5893 15.7725H91.5321V0.851763H88.294V8.83019C88.294 9.03743 88.294 9.34827 88.294 9.55551C88.294 9.86635 88.294 10.0736 88.403 10.3844L80.8475 1.26623C80.7395 1.16261 80.6316 1.059 80.5237 0.955379C80.4157 0.851763 80.4157 0.851763 80.3089 0.748147C80.1999 0.748147 80.0919 0.644531 79.984 0.644531C79.876 0.644531 79.7681 0.644531 79.5522 0.644531H77.6094V15.7725H80.8475V7.79403H80.9554Z" fill="#D13832"/>
<path d="M90.4522 27.0681C90.1284 26.7572 89.6966 26.4464 89.2649 26.3428C88.8331 26.1355 88.4014 25.9293 87.9696 25.8247C87.5379 25.7211 87.1061 25.5138 86.6744 25.4113C86.2437 25.3066 85.9188 25.204 85.4871 24.9968C85.0553 24.7896 84.8384 24.6859 84.7315 24.4787C84.5157 24.2715 84.4077 24.0642 84.4077 23.7534C84.4077 23.2353 84.6236 22.9245 84.9474 22.6136C85.2712 22.3028 85.8109 22.1992 86.4574 22.1992C86.8892 22.1992 87.213 22.3038 87.5368 22.3038C87.8617 22.4054 88.0776 22.509 88.4014 22.6126C88.6162 22.7162 88.832 22.8198 89.049 22.9234C89.266 23.0271 89.3728 23.0271 89.5887 23.0271C89.8046 23.0271 89.9125 23.0271 90.0204 22.9234C90.1284 22.8198 90.2352 22.7162 90.3442 22.509L91.3146 20.8511C90.9919 20.6439 90.668 20.333 90.3442 20.2294C90.0204 20.1258 89.5887 19.815 89.1569 19.7113C88.7252 19.6077 88.2934 19.5041 87.8617 19.4005C87.4299 19.2969 86.8903 19.2969 86.4585 19.2969C85.595 19.2969 84.8395 19.4005 84.1918 19.7113C83.5442 19.9175 82.8966 20.333 82.4649 20.7475C82.0331 21.162 81.6014 21.68 81.3855 22.1981C81.1696 22.7162 81.0617 23.3379 81.0617 23.856C81.0617 24.5803 81.1707 25.203 81.3866 25.6164C81.6014 26.1355 81.8172 26.55 82.141 26.8608C82.4659 27.1717 82.8966 27.4836 83.2204 27.5862C83.5453 27.6898 84.085 27.897 84.5157 28.1042C84.9474 28.2078 85.3792 28.3115 85.8109 28.5187C86.2426 28.6223 86.5665 28.7249 86.8903 28.9321C87.2141 29.0368 87.5379 29.243 87.6458 29.4502C87.7538 29.6574 87.9696 29.9683 87.9696 30.2791C87.9696 30.9019 87.7538 31.3153 87.4299 31.6272C87.1061 31.938 86.5665 32.0406 85.9188 32.0406C85.3791 32.0406 84.9485 31.937 84.6247 31.8334C84.2998 31.7308 83.976 31.5236 83.6522 31.4199C83.3284 31.2127 83.1125 31.1091 82.8966 31.0055C82.6807 30.9019 82.4659 30.7982 82.249 30.7982C82.032 30.7982 81.9252 30.7982 81.8172 30.9029C81.7093 31.0065 81.6014 31.1101 81.4934 31.2137L80.4141 32.8716C80.7379 33.1835 81.0617 33.3897 81.4934 33.7016C81.9252 33.9078 82.3569 34.115 82.8966 34.3233C83.3284 34.5305 83.868 34.6341 84.4077 34.7377C84.9474 34.8393 85.3791 34.8393 85.9188 34.8393C86.7834 34.8393 87.6469 34.7357 88.2934 34.4248C89.049 34.2186 89.5887 33.8031 90.1284 33.3886C90.5601 32.9752 90.9919 32.4571 91.2077 31.8344C91.4236 31.2127 91.6395 30.5921 91.6395 29.8667C91.6395 29.244 91.5315 28.7259 91.3157 28.2078C90.9919 27.7934 90.776 27.3789 90.4522 27.0681Z" fill="white"/>
<path d="M69.1953 34.6298H79.3414V31.9358H72.8652V28.4128H77.8302V25.8224H72.8652V22.2995H79.3414V19.6055H69.1953V34.6298Z" fill="white"/>
</svg>
