<svg width="122" height="48" viewBox="0 0 122 48" fill="none" xmlns="http://www.w3.org/2000/svg">
<path d="M3.15115 11.9709C5.57603 13.6494 7.39469 14.3208 10.4258 15.6636C12.6082 16.5588 16.7305 18.0135 19.8828 19.4682C15.8818 17.2302 11.1533 14.4327 11.1533 9.50916C11.1533 1.7881 32.7347 2.3476 43.0405 9.50916C43.0405 9.50916 36.3721 0.445312 21.459 0.445312C11.6382 0.445313 3.63612 4.69749 0.96875 8.27826L1.08999 8.50206C1.08999 8.39016 0.726262 10.2925 3.15115 11.9709Z" fill="url(#paint0_linear_5687_42259)"/>
<path d="M11.2783 38.4921C11.2783 34.0162 15.1581 31.3306 18.7954 29.3164C14.4306 31.3306 7.03471 33.9043 5.3373 34.7995C3.63988 35.6947 2.66992 35.8066 1.94246 37.1494C1.45748 37.9326 1.21499 39.1635 1.09375 39.9468C3.88237 43.5276 11.7632 47.556 21.584 47.556C36.4971 47.556 43.1655 38.4921 43.1655 38.4921C32.981 45.6537 11.2783 46.2132 11.2783 38.4921Z" fill="url(#paint1_linear_5687_42259)"/>
<path d="M5.33474 34.7975C7.03216 33.9012 14.4281 31.3275 18.7928 29.3144C22.0664 27.4121 25.2188 25.9574 25.2188 24.0551C25.2188 22.3767 22.7939 21.0339 20.0053 19.4673C16.8529 18.0126 12.6094 16.5579 10.5482 15.6627C7.51714 14.3199 5.69848 13.6485 3.27359 11.97C0.848709 10.2915 1.21244 8.50114 1.21244 8.50114L0.969953 8.27734C0.363733 9.06064 0 9.95583 0 10.6272C0 14.9913 9.3358 17.2293 9.3358 23.9432C9.3358 30.5453 0 33.0071 0 37.2593C0 38.0426 0.363732 38.9378 1.0912 39.8341C1.21244 39.0497 1.33369 37.8188 1.81866 37.0355C2.66737 35.8046 3.63733 35.6927 5.33474 34.7975Z" fill="url(#paint2_linear_5687_42259)"/>
<path d="M22.5489 22.1524C22.5489 22.1524 23.8826 22.9357 24.1251 23.6071C24.3676 24.2785 23.5189 25.3975 22.7914 25.8451C22.0639 26.2916 20.9727 26.4046 20.8515 26.1808C20.4877 25.5083 22.3064 25.0618 22.0639 24.0547C21.8214 23.0476 21.094 22.6 20.609 22.2643C20.2453 21.8167 19.7603 21.3691 20.0028 21.2572C20.124 20.9215 22.5489 22.1524 22.5489 22.1524Z" fill="url(#paint3_linear_5687_42259)"/>
<path fill-rule="evenodd" clip-rule="evenodd" d="M55.2804 21.0429C55.2804 20.6255 55.2804 20.2517 55.2804 19.8791C55.2804 19.5154 55.2804 19.1518 55.2804 18.7858C55.2804 18.4166 55.2791 18.0462 55.2804 17.668C55.4877 17.7183 55.6647 17.7732 55.8466 17.8C56.0503 17.8291 56.2588 17.8302 56.4637 17.8504C56.6116 17.8638 56.7583 17.8772 56.9026 17.8985C57.173 17.9388 57.3379 18.0965 57.4397 18.3203C57.5282 18.5162 57.5573 18.7232 57.5731 18.9324C57.5804 19.0421 57.5791 19.1506 57.5791 19.2614C57.5791 21.9459 57.5791 24.6303 57.5791 27.317C57.5791 27.3629 57.5767 27.4077 57.5791 27.4524C57.5852 27.5397 57.5488 27.608 57.4943 27.6762C57.2481 27.9896 56.9159 28.1932 56.5364 28.3398C56.1594 28.4864 55.7617 28.5468 55.3604 28.5961C54.5662 28.6956 53.7684 28.7214 52.9694 28.6542C52.4372 28.6084 51.917 28.5177 51.4175 28.3331C50.6209 28.041 50.0705 27.5285 49.7601 26.7911C49.5794 26.3637 49.4776 25.9205 49.4315 25.4651C49.3842 24.9951 49.36 24.5218 49.4121 24.0496C49.4643 23.5628 49.5867 23.0984 49.8037 22.6542C50.0802 22.088 50.5191 21.6572 51.0865 21.3338C51.5957 21.0417 52.1474 20.8582 52.7439 20.7855C53.2956 20.7161 53.8436 20.7127 54.3941 20.7855C54.6402 20.8168 54.8742 20.8784 55.0997 20.978C55.1446 20.9981 55.1906 21.0115 55.2804 21.0429ZM55.2634 26.6054C55.2694 26.5371 55.284 26.4666 55.284 26.395C55.284 25.2212 55.2816 24.0496 55.2779 22.8735C55.2779 22.8221 55.2646 22.7695 55.2561 22.718C55.2003 22.6945 55.1555 22.6743 55.1094 22.6632C54.6074 22.5468 54.097 22.4975 53.5841 22.5468C52.9428 22.6128 52.1607 22.9228 51.8867 23.8258C51.7618 24.2353 51.7412 24.6505 51.7752 25.069C51.7922 25.2794 51.8504 25.4808 51.934 25.6766C52.1474 26.1768 52.5354 26.4923 53.0943 26.6434C53.5781 26.7743 54.0667 26.7878 54.5589 26.7385C54.7905 26.7173 55.0294 26.7027 55.2634 26.6054Z" fill="white"/>
<path fill-rule="evenodd" clip-rule="evenodd" d="M80.5543 28.4452C80.5398 28.8235 80.5471 29.1782 80.5458 29.5329C80.5446 29.8954 80.5458 30.2602 80.5458 30.6261C80.5458 30.9798 80.5458 31.3345 80.5458 31.6847C80.507 31.6892 80.4828 31.6993 80.4695 31.6925C80.1227 31.5359 79.7481 31.5191 79.3734 31.5034C79.274 31.4978 79.177 31.4967 79.0788 31.4967C78.8787 31.4978 78.7163 31.4206 78.5817 31.2897C78.4398 31.1543 78.3513 30.9909 78.3149 30.8097C78.2822 30.6228 78.2543 30.4303 78.2507 30.2412C78.241 29.7959 78.2458 29.3483 78.2458 28.9029C78.2458 26.6168 78.2495 24.3318 78.2422 22.0446C78.241 21.8398 78.3016 21.682 78.4544 21.5343C78.7672 21.2277 79.1515 21.0285 79.5844 20.9155C79.8778 20.8406 80.1797 20.7913 80.4816 20.751C81.2672 20.647 82.0565 20.638 82.8458 20.6951C83.3769 20.7343 83.897 20.8305 84.3966 21.014C85.1931 21.3049 85.746 21.8163 86.0576 22.5537C86.254 23.0148 86.3559 23.4959 86.3995 23.9872C86.4395 24.4213 86.448 24.8611 86.4092 25.2964C86.3619 25.8458 86.2164 26.3729 85.9376 26.8641C85.6793 27.3173 85.3229 27.6821 84.8524 27.9596C84.188 28.3524 83.463 28.5616 82.6822 28.6064C82.1572 28.6355 81.6358 28.6299 81.1169 28.5493C80.9447 28.5224 80.7726 28.4855 80.5543 28.4452ZM80.5652 26.6425C80.6295 26.6627 80.6828 26.6851 80.7386 26.6996C81.0357 26.7723 81.3412 26.7902 81.6431 26.8283C82.2324 26.9021 82.7549 26.7578 83.2472 26.4747C83.4509 26.3561 83.6194 26.2017 83.7273 26.0036C83.8085 25.8581 83.8788 25.7071 83.9346 25.5526C84.0668 25.1744 84.0765 24.7828 84.0595 24.39C84.0413 24.0095 83.9092 23.6615 83.6861 23.3404C83.5042 23.0774 83.2569 22.8894 82.9392 22.7876C82.5561 22.6656 82.1608 22.5694 81.7534 22.5963C81.4091 22.6198 81.0672 22.6656 80.7229 22.7037C80.6671 22.7115 80.6162 22.7406 80.5677 22.7574C80.5374 22.9734 80.5337 26.299 80.5652 26.6425Z" fill="white"/>
<path fill-rule="evenodd" clip-rule="evenodd" d="M90.967 20.9344C91.001 20.9299 91.0422 20.931 91.0761 20.9209C91.589 20.7721 92.12 20.7296 92.6523 20.7016C93.0173 20.6826 93.3834 20.6815 93.7471 20.6938C94.3097 20.7128 94.8335 20.8572 95.3136 21.1336C95.6228 21.3115 95.8677 21.5409 96.035 21.843C96.2787 22.2861 96.4388 22.7505 96.4363 23.254C96.4339 24.6561 96.4339 26.0582 96.4303 27.4615C96.4303 27.7703 96.4303 28.0814 96.4303 28.3891C96.4303 28.4518 96.4206 28.5144 96.4145 28.586C96.1138 28.6543 95.8216 28.6655 95.527 28.6342C95.3439 28.6129 95.1536 28.5849 94.979 28.5301C94.5449 28.3925 94.2685 28.1116 94.1812 27.6909C94.1521 27.5398 94.1351 27.3842 94.1327 27.2309C94.1266 26.3839 94.1279 25.5368 94.123 24.6897C94.1194 24.2802 94.0709 23.874 94.0175 23.4667C93.9617 23.0291 93.6841 22.8053 93.2476 22.7113C92.782 22.6106 92.3092 22.6061 91.8363 22.6711C91.5357 22.7113 91.235 22.7639 90.9391 22.9027C90.9355 23.0067 90.9306 23.1131 90.9306 23.2216C90.9306 24.5599 90.9306 25.8982 90.9294 27.2365C90.9294 27.3652 90.9306 27.4928 90.9149 27.6181C90.8615 28.0243 90.6481 28.322 90.2129 28.4473C90.0249 28.501 89.8322 28.5435 89.6382 28.5737C89.3169 28.6241 88.992 28.6084 88.6549 28.5972C88.644 28.5323 88.6294 28.4809 88.627 28.4283C88.6234 28.3567 88.6258 28.2828 88.6258 28.2112C88.6258 24.768 88.6258 21.3249 88.6258 17.884C88.6258 17.7755 88.6258 17.6669 88.6258 17.5606C88.6622 17.555 88.684 17.5427 88.6985 17.5483C89.0186 17.6871 89.3605 17.7229 89.7073 17.7341C89.8249 17.7385 89.9437 17.7452 90.0613 17.743C90.3353 17.7341 90.5317 17.856 90.6869 18.0507C90.8361 18.2421 90.8906 18.4648 90.9137 18.6919C90.9294 18.8452 90.9294 18.9996 90.9294 19.1552C90.9319 19.6565 90.9294 20.1578 90.9319 20.658C90.9306 20.7475 90.9076 20.8393 90.967 20.9344Z" fill="white"/>
<path fill-rule="evenodd" clip-rule="evenodd" d="M31.699 25.8871C31.6881 26.1557 31.8263 26.3336 32.0422 26.469C32.224 26.5831 32.4301 26.6514 32.6435 26.6894C32.8363 26.7241 33.0339 26.751 33.2291 26.7566C33.9202 26.7767 34.6101 26.7499 35.2951 26.6592C35.7437 26.5999 36.1936 26.5462 36.6434 26.4936C36.7016 26.4869 36.761 26.4925 36.8325 26.4925C36.8422 26.544 36.8592 26.5954 36.8616 26.6469C36.8725 26.9681 36.8422 27.2825 36.7379 27.5913C36.5876 28.0389 36.2833 28.3467 35.7995 28.5022C35.414 28.6287 35.0163 28.6902 34.6125 28.7081C33.9615 28.7372 33.3104 28.7394 32.6629 28.6566C32.1537 28.5917 31.6566 28.4843 31.1813 28.2963C30.3338 27.9606 29.7664 27.391 29.4706 26.5876C29.3117 26.1534 29.2244 25.7058 29.1905 25.2504C29.142 24.5958 29.1517 23.9423 29.2923 23.2933C29.3748 22.9162 29.5021 22.5548 29.7058 22.2157C29.9095 21.8755 30.1859 21.598 30.5387 21.3809C31.048 21.0687 31.6117 20.8863 32.2131 20.8013C32.9091 20.7017 33.6086 20.6928 34.3082 20.7509C34.7314 20.7856 35.1448 20.8696 35.5425 21.0173C36.2954 21.2948 36.7913 21.7916 37.0338 22.5055C37.2229 23.0617 37.2569 23.6324 37.2072 24.2075C37.1914 24.3798 37.1368 24.5466 37.0556 24.7032C36.8846 25.0333 36.6167 25.2594 36.236 25.369C35.9329 25.4541 35.6225 25.5055 35.3085 25.5324C34.8768 25.5693 34.444 25.5861 34.0087 25.5727C33.348 25.5525 32.6896 25.6029 32.0446 25.7618C31.9294 25.7842 31.8106 25.7998 31.699 25.8871ZM31.6299 24.3216C31.6566 24.3194 31.6881 24.3216 31.7136 24.3105C32.0264 24.1863 32.3562 24.1426 32.6932 24.1247C33.0279 24.1079 33.3625 24.09 33.6984 24.0732C33.9869 24.0598 34.2573 23.9882 34.5192 23.8707C34.9096 23.695 35.1084 23.1176 34.5762 22.8009C34.3919 22.6913 34.1942 22.6129 33.9845 22.5559C33.445 22.4082 32.9127 22.4294 32.3962 22.642C32.1561 22.7416 31.9561 22.886 31.8106 23.0874C31.5778 23.4108 31.5026 23.9143 31.6299 24.3216Z" fill="white"/>
<path fill-rule="evenodd" clip-rule="evenodd" d="M68.4857 24.6446C68.4857 24.7991 68.4857 24.9535 68.4857 25.1079C68.4881 25.5298 68.4214 25.9449 68.2929 26.3466C67.9995 27.2642 67.3957 27.9322 66.41 28.2825C65.9274 28.4537 65.4267 28.5533 64.9126 28.5801C63.9814 28.6283 63.0612 28.5589 62.1579 28.3261C61.6439 28.193 61.1977 27.958 60.8254 27.601C60.5102 27.3 60.2811 26.9565 60.1465 26.5559C59.9925 26.0949 59.8919 25.6215 59.8409 25.1404C59.8325 25.0587 59.8264 24.977 59.8143 24.8953C59.7173 24.2798 59.7997 23.6789 59.9913 23.087C60.1453 22.6103 60.4169 22.1873 60.7745 21.8147C61.1007 21.4734 61.5044 21.2362 61.9579 21.0639C62.5665 20.8311 63.2043 20.7248 63.859 20.698C64.5731 20.67 65.2763 20.7304 65.9686 20.9038C66.6549 21.0751 67.2259 21.4152 67.6891 21.9121C67.8031 22.0351 67.9122 22.1705 67.991 22.3149C68.2601 22.8061 68.4432 23.3231 68.4723 23.8781C68.4857 24.1333 68.4966 24.3884 68.5087 24.6413C68.5014 24.6435 68.4929 24.6446 68.4857 24.6446ZM66.2827 24.7834C66.2996 24.4029 66.256 24.027 66.1069 23.6633C65.9189 23.2011 65.571 22.8901 65.0642 22.7289C64.8374 22.6573 64.6034 22.6249 64.3682 22.6148C63.8481 22.5902 63.3449 22.6472 62.8769 22.8722C62.615 22.9986 62.4113 23.1765 62.2901 23.4283C62.1846 23.6443 62.1009 23.8725 62.084 24.1075C62.0476 24.5988 62.0682 25.0911 62.2125 25.5678C62.3592 26.0501 62.6514 26.425 63.2043 26.5637C63.7729 26.7069 64.3512 26.7517 64.9308 26.6342C65.5528 26.5078 65.9917 26.1833 66.1796 25.5969C66.2645 25.3306 66.296 25.0643 66.2827 24.7834Z" fill="white"/>
<path fill-rule="evenodd" clip-rule="evenodd" d="M113.993 22.6539C113.925 22.1548 113.999 21.7128 114.27 21.3122C114.486 20.9877 114.83 20.8333 115.213 20.7516C115.383 20.7135 115.564 20.6967 115.74 20.6945C116.5 20.6833 117.259 20.6777 118.017 20.7404C118.595 20.7874 119.147 20.9261 119.653 21.1779C120.263 21.48 120.652 21.9634 120.888 22.5576C121.033 22.9269 121.112 23.3141 121.118 23.708C121.129 24.4443 121.129 25.1806 121.122 25.9191C121.116 26.257 121.043 26.5871 120.925 26.9094C120.617 27.771 119.966 28.2846 119.017 28.4872C118.639 28.5644 118.259 28.6036 117.872 28.5991C117.232 28.5935 116.588 28.5957 115.949 28.5991C115.651 28.6002 115.361 28.5588 115.069 28.5017C114.725 28.4346 114.421 28.2914 114.138 28.1C113.702 27.8024 113.474 27.3839 113.386 26.9038C113.286 26.3566 113.341 25.8139 113.504 25.2824C113.675 24.7229 114.051 24.3268 114.623 24.0806C115.034 23.9071 115.467 23.8344 115.913 23.8076C116.189 23.793 116.465 23.7975 116.741 23.7896C117.165 23.7796 117.59 23.7695 118.008 23.6968C118.151 23.6722 118.295 23.6319 118.432 23.5804C118.52 23.5491 118.606 23.4942 118.677 23.4327C118.868 23.2592 118.882 23.0052 118.704 22.8161C118.634 22.7445 118.544 22.6785 118.448 22.6382C118.297 22.5722 118.137 22.5174 117.975 22.4827C117.356 22.3573 116.729 22.3159 116.094 22.3484C115.552 22.3752 115.013 22.4289 114.484 22.5386C114.328 22.5711 114.179 22.6102 113.993 22.6539ZM118.882 24.9142C118.827 24.9232 118.802 24.9209 118.793 24.9299C118.327 25.2757 117.801 25.4379 117.203 25.4346C116.979 25.4334 116.751 25.4614 116.527 25.495C116.302 25.5286 116.086 25.5923 115.894 25.7098C115.702 25.8262 115.624 25.9896 115.656 26.2011C115.689 26.4294 115.825 26.5938 116.044 26.6811C116.197 26.7415 116.363 26.7807 116.525 26.802C116.987 26.8624 117.452 26.859 117.915 26.8434C117.994 26.8411 118.071 26.8311 118.148 26.8176C118.544 26.7416 118.745 26.5491 118.818 26.1832C118.902 25.7691 118.891 25.3518 118.882 24.9142Z" fill="white"/>
<path fill-rule="evenodd" clip-rule="evenodd" d="M41.675 22.791C41.6677 22.838 41.6568 22.8638 41.658 22.8906C41.6653 23.5732 41.6774 24.2569 41.6823 24.9395C41.6871 25.7317 41.6883 26.5229 41.6871 27.3162C41.6871 27.4416 41.675 27.5725 41.6483 27.6967C41.5719 28.0503 41.3634 28.3144 40.9839 28.4352C40.7984 28.4957 40.6056 28.5382 40.4129 28.574C40.1546 28.621 39.6539 28.612 39.3968 28.5684C39.3908 28.4934 39.3799 28.4128 39.3799 28.3334C39.3786 26.148 39.3811 23.9626 39.375 21.7783C39.375 21.4549 39.5229 21.2412 39.8163 21.0935C40.1425 20.9313 40.4965 20.8518 40.8578 20.7981C41.8557 20.6515 42.8608 20.6291 43.8671 20.6963C44.3981 20.7321 44.9231 20.8216 45.4215 21.0085C45.5754 21.0678 45.7306 21.1293 45.8761 21.2043C46.6691 21.6172 47.0861 22.2517 47.1649 23.082C47.1807 23.2364 47.1831 23.3908 47.1831 23.5463C47.1843 25.1107 47.1843 26.6773 47.1831 28.2439C47.1831 28.3513 47.2001 28.461 47.1516 28.5796C47.0958 28.5863 47.0388 28.5986 46.9819 28.5997C46.6472 28.602 46.3102 28.6199 45.9804 28.5449C45.8361 28.5113 45.693 28.4755 45.5548 28.4285C45.2117 28.3121 45.008 28.0783 44.9328 27.7526C44.8977 27.6027 44.8819 27.446 44.8807 27.2916C44.8783 26.0909 44.8807 24.8891 44.8795 23.6873C44.8795 23.562 44.8734 23.4311 44.8358 23.3102C44.7546 23.054 44.5667 22.8682 44.306 22.7507C44.0805 22.6489 43.8404 22.6042 43.5919 22.5885C43.176 22.565 42.765 22.612 42.3552 22.6691C42.1333 22.7015 41.9066 22.7138 41.675 22.791Z" fill="white"/>
<path fill-rule="evenodd" clip-rule="evenodd" d="M105.631 22.7999C105.626 22.8368 105.615 22.8626 105.615 22.8894C105.626 23.1971 105.647 23.5082 105.647 23.8159C105.653 24.9719 105.653 26.1289 105.647 27.2848C105.647 27.4392 105.63 27.5959 105.595 27.7458C105.514 28.0793 105.299 28.3143 104.948 28.4374C104.708 28.5235 104.458 28.5795 104.201 28.5929C103.966 28.6063 103.729 28.5996 103.491 28.5985C103.455 28.5985 103.417 28.5862 103.375 28.5784C103.335 28.4642 103.348 28.3557 103.348 28.2483C103.348 26.5172 103.348 24.7872 103.348 23.0573C103.348 22.6197 103.359 22.1833 103.344 21.7458C103.335 21.4537 103.474 21.2613 103.731 21.1192C103.971 20.9849 104.235 20.9133 104.505 20.8562C104.93 20.7633 105.361 20.7163 105.793 20.6951C106.425 20.6604 107.056 20.6425 107.688 20.685C108.221 20.7197 108.744 20.8003 109.251 20.9614C109.531 21.0509 109.798 21.1673 110.044 21.3217C110.65 21.7022 110.995 22.2348 111.101 22.8984C111.135 23.1143 111.15 23.3348 111.15 23.5519C111.154 25.1173 111.152 26.6828 111.151 28.2516C111.151 28.359 111.171 28.4687 111.116 28.5851C110.562 28.6243 110.016 28.6175 109.489 28.4206C109.128 28.2841 108.94 28.02 108.875 27.6731C108.852 27.5579 108.849 27.4381 108.849 27.3206C108.849 26.1177 108.851 24.9159 108.851 23.7141C108.851 23.6235 108.855 23.5317 108.837 23.4422C108.771 23.1289 108.583 22.8961 108.268 22.7518C108.042 22.6488 107.804 22.6052 107.554 22.5895C107.148 22.566 106.748 22.613 106.347 22.6645C106.151 22.6891 105.958 22.7227 105.764 22.754C105.718 22.763 105.673 22.7865 105.631 22.7999Z" fill="white"/>
<path fill-rule="evenodd" clip-rule="evenodd" d="M76.3341 20.7088C76.4056 21.1822 76.3923 21.6331 76.2274 22.0695C76.0965 22.4164 75.8031 22.5831 75.4308 22.6413C75.2938 22.6637 75.1532 22.6581 75.015 22.6648C74.7482 22.6771 74.4839 22.6872 74.2184 22.7006C73.9989 22.7141 73.7928 22.7711 73.5988 22.8651C73.3382 22.9927 73.1708 23.1863 73.1078 23.4504C73.0726 23.5902 73.052 23.7357 73.0399 23.8812C73.0266 24.0445 73.0278 24.209 73.0278 24.3724C73.0266 25.7365 73.0278 27.1016 73.0266 28.4679C73.0266 28.563 73.0217 28.6615 73.0181 28.7555C72.9769 28.7589 72.9514 28.7689 72.9393 28.7622C72.5173 28.553 72.0505 28.4746 71.5886 28.384C71.3667 28.3404 71.1812 28.2531 71.0272 28.102C70.8563 27.9375 70.7702 27.7372 70.7435 27.5157C70.729 27.4082 70.7266 27.2975 70.7266 27.1889C70.7266 25.9334 70.7266 24.6768 70.7266 23.4213C70.7266 23.184 70.7399 22.9491 70.7932 22.7163C71.0175 21.7249 71.6335 21.0725 72.7041 20.8051C72.9817 20.7368 73.2666 20.6988 73.5503 20.6976C74.4306 20.6932 75.3072 20.6965 76.1838 20.6965C76.2238 20.6965 76.2626 20.7032 76.3341 20.7088Z" fill="white"/>
<path fill-rule="evenodd" clip-rule="evenodd" d="M98.7422 20.5938C98.8974 20.6441 99.015 20.69 99.1362 20.718C99.2611 20.7482 99.3884 20.7672 99.5157 20.7761C99.7231 20.7929 99.9292 20.8041 100.138 20.8008C100.5 20.7952 100.728 20.9664 100.882 21.2472C100.983 21.4296 101.014 21.6299 101.033 21.8302C101.042 21.9466 101.042 22.0663 101.042 22.185C101.042 23.8869 101.045 25.5901 101.04 27.2932C101.04 27.4554 101.023 27.621 100.986 27.781C100.915 28.0977 100.699 28.3126 100.373 28.4278C100.094 28.5285 99.8007 28.5755 99.506 28.5934C99.2611 28.6091 99.0174 28.6158 98.7749 28.589C98.7604 28.5464 98.7434 28.5207 98.7434 28.4961C98.7422 25.8743 98.7422 23.2536 98.7422 20.5938Z" fill="white"/>
<path fill-rule="evenodd" clip-rule="evenodd" d="M99.9128 20.1923C99.235 20.2113 98.6809 19.6899 98.6797 19.0532C98.6773 18.5328 99.161 17.9308 99.9055 17.9297C100.567 17.9275 101.148 18.4221 101.14 19.0733C101.13 19.785 100.468 20.2214 99.9128 20.1923Z" fill="white"/>
<defs>
<linearGradient id="paint0_linear_5687_42259" x1="22.004" y1="19.429" x2="22.004" y2="0.496563" gradientUnits="userSpaceOnUse">
<stop stop-color="#161B60"/>
<stop offset="0.0355" stop-color="#14266B"/>
<stop offset="0.1871" stop-color="#0E4F93"/>
<stop offset="0.3423" stop-color="#0971B4"/>
<stop offset="0.4995" stop-color="#058CCE"/>
<stop offset="0.6595" stop-color="#029FE0"/>
<stop offset="0.824" stop-color="#01AAEB"/>
<stop offset="1" stop-color="#00AEEF"/>
</linearGradient>
<linearGradient id="paint1_linear_5687_42259" x1="22.1302" y1="29.2427" x2="22.1302" y2="47.482" gradientUnits="userSpaceOnUse">
<stop stop-color="#4E0900"/>
<stop offset="0.0923" stop-color="#6D2505"/>
<stop offset="0.2404" stop-color="#984B0C"/>
<stop offset="0.3908" stop-color="#BC6B11"/>
<stop offset="0.5415" stop-color="#D78415"/>
<stop offset="0.6928" stop-color="#EB9619"/>
<stop offset="0.8451" stop-color="#F7A01A"/>
<stop offset="1" stop-color="#FBA41B"/>
</linearGradient>
<linearGradient id="paint2_linear_5687_42259" x1="12.6088" y1="39.9246" x2="12.6087" y2="8.24612" gradientUnits="userSpaceOnUse">
<stop stop-color="#660308"/>
<stop offset="0.4381" stop-color="#DE1A23"/>
<stop offset="0.6237" stop-color="#DE1A23"/>
<stop offset="1" stop-color="#660308"/>
</linearGradient>
<linearGradient id="paint3_linear_5687_42259" x1="22.0524" y1="26.3264" x2="22.0524" y2="21.1091" gradientUnits="userSpaceOnUse">
<stop stop-color="#DE1A22"/>
<stop offset="1" stop-color="#F9D7D8"/>
</linearGradient>
</defs>
</svg>
