<svg width="155" height="18" viewBox="0 0 155 18" fill="none" xmlns="http://www.w3.org/2000/svg">
<path d="M14.3125 1.375H25.1085L25.388 4.88894H24.7487C24.5094 3.42293 24.4693 3.15067 23.9088 2.57174C23.3498 1.99132 22.2705 2.06911 21.3904 2.06911H18.6312C18.4305 2.06911 18.2714 2.10651 18.1124 2.26209C17.992 2.41766 17.9117 2.60914 17.9518 2.80212V7.28093H19.1516C19.7506 7.28093 20.3497 7.04906 20.7095 6.62422C21.1496 6.04529 21.3889 5.31229 21.3503 4.53889H21.9895V10.8308H21.3503C21.3101 9.78961 21.111 9.0551 20.7095 8.59286C20.2694 8.12613 19.6704 7.89725 19.0311 7.89725H17.9117V12.952C17.9117 13.1076 17.992 13.2976 18.1124 13.4172C18.3116 13.5324 18.5525 13.6102 18.7918 13.5728H20.9905C23.3483 13.5728 24.7086 12.8398 25.1085 9.90479H25.7879L25.5486 14.2669H14.314V13.5728H14.9147C15.1942 13.6087 15.4752 13.5339 15.7145 13.3783C15.8751 13.2228 15.9538 13.0328 15.9538 12.8398V2.76322C15.9538 2.57025 15.9137 2.37578 15.7546 2.22469C15.5941 2.10801 15.3547 2.03171 15.1139 2.03171H14.314L14.3125 1.375Z" fill="white"/>
<path d="M24.9062 5.65999H29.7839V6.27781C29.4241 6.24041 29.0242 6.31371 28.6645 6.43338C28.5039 6.50968 28.4236 6.66376 28.4236 6.81933C28.4236 6.93602 28.4637 7.09159 28.5039 7.20828L30.8632 12.3019L33.0619 7.36086C33.1021 7.28457 33.1021 7.20678 33.1021 7.0901C33.1021 6.62486 32.662 6.35859 31.7433 6.2419V5.62109H35.4614V6.23891C35.1402 6.23891 34.8206 6.3556 34.5813 6.54857C34.3419 6.70116 34.1814 6.93452 34.0609 7.20379L30.7829 14.5353H30.2626L26.7452 7.00782C26.6649 6.77894 26.5059 6.58597 26.265 6.4289C25.825 6.31221 25.3849 6.23592 24.9464 6.27332L24.9062 5.65999Z" fill="white"/>
<path d="M38.8999 5.38476C40.0579 5.34886 41.1372 5.80961 41.9385 6.66079C42.777 7.54938 43.2186 8.74762 43.1784 9.98026C43.2186 10.8285 43.0178 11.6392 42.6195 12.4111C42.2613 13.0679 41.7409 13.6094 41.06 13.9968C40.3821 14.3828 39.6209 14.5758 38.8613 14.5758C37.7418 14.5758 36.6625 14.112 35.9029 13.2997C34.3032 11.37 34.3032 8.62944 35.9029 6.69819C36.661 5.85 37.7403 5.38476 38.8999 5.38476ZM38.8999 6.04297C38.1803 6.04297 37.5395 6.38853 37.1396 6.96895C36.6996 7.58677 36.4603 8.59054 36.4603 9.90098C36.4603 11.2503 36.6996 12.2556 37.1396 12.9123C37.4994 13.4912 38.1788 13.8802 38.8999 13.8802C39.6209 13.8802 40.2988 13.5331 40.7002 12.9138C41.1804 12.2975 41.3781 11.2563 41.3781 9.82768C41.3781 8.47685 41.1403 7.55087 40.7002 6.93305C40.3003 6.39003 39.6194 6.04297 38.8999 6.04297Z" fill="white"/>
<path d="M46.0887 1.21875V13.0291C46.0887 13.1832 46.1289 13.2984 46.2493 13.4151C46.4099 13.5303 46.6075 13.608 46.85 13.608H47.4105V14.3022H43.0917V13.608H43.6105C43.8514 13.608 44.0907 13.5721 44.2513 13.4151C44.4119 13.2595 44.4907 13.0695 44.4505 12.8361V2.99292C44.4907 2.76255 44.3718 2.49179 44.2112 2.33771C43.9703 2.14473 43.6538 2.03104 43.3342 2.03104H42.5312V1.33244L46.0887 1.21875Z" fill="white"/>
<path d="M50.6576 5.50224V11.2152C50.6159 11.7941 50.8182 12.3701 51.215 12.8368C51.5732 13.2227 52.0951 13.4157 52.6154 13.4157C53.335 13.4157 53.9742 13.1061 54.4143 12.5675C54.9331 11.9871 55.1739 11.2556 55.1739 10.4822V7.24051C55.1739 6.96975 55.0535 6.69899 54.8543 6.5464C54.4529 6.35343 54.0159 6.23674 53.5727 6.27414V5.61892L56.7319 5.46484V12.566C56.7319 12.8383 56.8122 13.1046 57.0129 13.3379C57.2522 13.5324 57.5317 13.6102 57.8112 13.6102H58.3717V14.225L55.3747 14.3028L55.1755 12.6034C54.7354 13.1435 54.1765 13.6087 53.5743 13.9946C53.0941 14.3028 52.4965 14.4614 51.9345 14.4614C51.1764 14.4973 50.4553 14.1891 49.8979 13.6865C49.3374 13.1838 49.0564 12.2968 49.0564 11.0611V7.31681C49.0965 7.00715 48.9391 6.69749 48.658 6.54491C48.2967 6.38933 47.8984 6.31154 47.5 6.35193V5.69522L50.6576 5.50224Z" fill="white"/>
<path d="M60.1683 2.14453H60.8076V5.65847H66.2442V6.50517H60.8076V12.0251C60.769 12.4111 60.8894 12.797 61.1673 13.1441C61.4067 13.4164 61.7263 13.5316 62.0459 13.5316C62.486 13.5316 62.8843 13.2997 63.1653 12.9511C63.5236 12.3707 63.7258 11.717 63.6841 11.0229H64.3234C64.2848 12.1777 64.0038 13.0304 63.5236 13.5704C63.0449 14.109 62.3254 14.4156 61.5642 14.4156C60.9234 14.456 60.3227 14.2227 59.8472 13.8367C59.4071 13.4149 59.2064 12.8733 59.2064 12.2959V6.50517H57.6484V5.85145C58.2877 5.77366 58.8466 5.4655 59.2465 5.00176C59.8873 4.15357 60.2069 3.1483 60.1683 2.14453Z" fill="white"/>
<path d="M64.3229 5.65927L67.882 5.54408V12.9549C67.882 13.1105 67.9221 13.2646 68.0426 13.3798C68.2031 13.4935 68.4008 13.5742 68.6 13.5742H69.2392V14.2683H64.8819V13.5727H65.4424C65.6817 13.6086 65.8824 13.5338 66.043 13.3783C66.2036 13.2227 66.2422 13.0327 66.2422 12.7964V7.55013C66.2808 7.28086 66.1604 6.9712 65.9226 6.77823C65.6817 6.58525 65.3219 6.50447 65.0023 6.50447H64.2812V5.65927H64.3229ZM66.8027 1.56641C67.0822 1.56641 67.3601 1.68159 67.5608 1.87606C67.7615 2.06904 67.882 2.3398 67.882 2.60907C67.882 2.87834 67.7615 3.1476 67.5608 3.34208C67.1223 3.72803 66.4831 3.72803 66.043 3.34208C65.6416 2.91723 65.6416 2.29941 66.043 1.87606C66.2823 1.68159 66.5217 1.56641 66.8027 1.56641Z" fill="white"/>
<path d="M73.7127 5.38476C74.8708 5.34886 75.9516 5.80961 76.7514 6.66079C77.5899 7.54938 78.0299 8.74762 77.9913 9.98026C78.0284 10.8285 77.8307 11.6392 77.4308 12.4111C77.0711 13.0679 76.5523 13.6094 75.8713 13.9968C75.1935 14.3828 74.4323 14.5758 73.6726 14.5758C72.5532 14.5758 71.4723 14.112 70.7142 13.2997C69.1161 11.37 69.1161 8.62944 70.7142 6.69819C71.4708 5.85 72.5918 5.38476 73.7127 5.38476ZM73.7127 6.04297C72.9901 6.04297 72.3524 6.38853 71.9525 6.96895C71.5094 7.58677 71.2731 8.59054 71.2731 9.90098C71.2731 11.2503 71.5125 12.2556 71.9525 12.9123C72.3123 13.4912 72.9901 13.8802 73.7127 13.8802C74.4323 13.8802 75.1101 13.5331 75.5116 12.9138C75.9918 12.2975 76.1894 11.2563 76.1894 9.82768C76.1894 8.47685 75.9516 7.55087 75.5116 6.93305C75.1503 6.39003 74.4307 6.04297 73.7127 6.04297Z" fill="white"/>
<path d="M77.7905 5.66023L80.752 5.46875C80.8678 6.08507 80.9882 6.74179 81.033 7.35961C81.3866 6.78068 81.8714 6.31694 82.4319 5.96989C82.9878 5.66023 83.627 5.50465 84.2694 5.50465C84.7882 5.50465 85.31 5.61984 85.747 5.85171C86.1871 6.12247 86.5067 6.46803 86.709 6.93327C86.9452 7.4344 87.0625 8.01632 87.0625 8.55336V12.7614C87.0255 12.9918 87.1042 13.264 87.2648 13.4166C87.464 13.5722 87.7466 13.647 87.9843 13.6096H88.2237V14.3037H84.3419V13.6111H84.4238C84.7434 13.6485 85.0259 13.5752 85.307 13.4181C85.4675 13.2625 85.5818 13.0726 85.5417 12.8392V9.13378C85.5803 8.51596 85.4243 7.89964 85.1433 7.35661C84.7851 6.81658 84.1844 6.50693 83.5035 6.54732C82.7824 6.54732 82.1432 6.85398 81.7031 7.39401C81.1843 8.01183 80.945 8.78523 80.9821 9.59453V12.7973C80.945 13.0307 81.0222 13.2999 81.2214 13.454C81.4221 13.6081 81.7031 13.6829 81.9811 13.647H82.2219V14.3426H78.2229V13.6485H78.4606C78.7015 13.6485 78.9825 13.6111 79.1817 13.4555C79.3423 13.3388 79.4195 13.1833 79.4195 12.9903V7.35811C79.4612 7.04995 79.3407 6.74029 79.0999 6.50842C78.8621 6.31545 78.5425 6.20176 78.2229 6.23915H77.7812V5.66023H77.7905Z" fill="white"/>
<path d="M99.8639 2.4548L100.664 1.10547H101.303L101.661 6.55066H101.062C100.579 5.00536 100.018 3.84751 99.3822 3.1534C98.7059 2.3426 97.6637 1.83997 96.5442 1.80407C95.7429 1.80407 94.9461 2.03594 94.3038 2.49968C93.6275 3.00081 93.1056 3.69642 92.8231 4.50721C92.4247 5.58877 92.2672 6.78402 92.3043 7.94187C92.2672 9.06232 92.4247 10.2187 92.8231 11.3002C93.1056 12.0736 93.5858 12.7662 94.2668 13.2689C94.9091 13.6922 95.6271 13.9241 96.4238 13.8867C97.3827 13.9645 98.3029 13.6144 99.0224 12.9966C99.6231 12.3788 99.9797 11.5306 99.9458 10.6809V9.40489C99.9458 9.21192 99.8639 9.05933 99.7049 8.94115C99.464 8.82447 99.183 8.74818 98.902 8.78558H97.7054V8.12886H103.142V8.78558H102.742C102.456 8.74818 102.223 8.82148 101.984 8.97855C101.823 9.09374 101.743 9.28821 101.743 9.51858V14.6915H101.101C100.863 13.8807 100.622 13.1058 100.383 12.3728C99.9798 13.0699 99.3853 13.6488 98.6642 14.0737C97.9833 14.4611 97.2252 14.6526 96.4269 14.6526C95.2658 14.6526 94.1077 14.3445 93.1072 13.7655C89.9496 11.8343 88.9089 7.85959 90.7062 4.69421C91.2667 3.65453 92.1082 2.76446 93.1458 2.14664C94.066 1.52882 95.1453 1.22215 96.2648 1.18027C96.87 1.18027 97.4259 1.25805 97.9833 1.48992C98.6596 1.644 99.2988 1.99256 99.8639 2.4548Z" fill="white"/>
<path d="M112.661 13.6103L112.822 13.8826C112.822 14.3837 112.224 14.3044 111.66 14.3044C111.223 14.3044 110.343 14.2685 110.065 14.0755C109.784 13.8826 109.664 13.6103 109.426 13.0344C108.986 13.5355 108.423 13.9604 107.825 14.2685C107.303 14.4989 106.746 14.5767 106.184 14.5767C105.424 14.6141 104.706 14.4211 104.109 13.9963C103.624 13.6507 103.383 13.1077 103.383 12.5317C103.383 11.6432 103.942 10.8728 105.024 10.2923C106.381 9.63862 107.862 9.21228 109.385 9.09709V7.78367C109.385 7.31843 109.181 6.89508 108.779 6.58692C108.376 6.23987 107.857 6.08429 107.299 6.08429C106.82 6.08429 106.301 6.19948 105.858 6.42985C105.577 6.58543 105.418 6.7769 105.418 6.93248C105.456 7.08806 105.538 7.24064 105.659 7.35583C105.819 7.5488 105.9 7.78067 105.941 8.01105C105.941 8.28181 105.858 8.51218 105.659 8.70666C105.456 8.90113 105.219 8.97742 104.941 8.97742C104.618 8.97742 104.337 8.86223 104.141 8.66776C103.939 8.43739 103.818 8.16662 103.818 7.85846C103.818 7.24064 104.18 6.69912 104.901 6.19948C105.739 5.65945 106.698 5.38719 107.697 5.42608C108.577 5.38719 109.419 5.61906 110.136 6.0813C110.658 6.46725 110.975 7.08507 110.975 7.70289V12.3717C110.975 12.6439 111.017 12.9521 111.177 13.1825C111.298 13.3381 111.458 13.4906 111.696 13.5295C111.98 13.5729 112.346 13.6103 112.661 13.6103ZM109.341 9.71342C107.74 9.94379 106.582 10.2908 105.903 10.7531C105.381 11.1405 105.103 11.7195 105.143 12.3388C105.106 12.7621 105.26 13.1481 105.541 13.4577C105.824 13.7285 106.181 13.8437 106.542 13.8437C107.299 13.8437 107.981 13.5355 108.5 13.0344C109.06 12.4929 109.341 11.721 109.341 10.9476V9.71342Z" fill="white"/>
<path d="M112.349 5.65988L114.904 5.50431C115.021 6.12213 115.14 6.73845 115.184 7.35627C115.54 6.77734 116.062 6.31361 116.626 5.92915C117.106 5.65689 117.666 5.50431 118.224 5.50431C118.784 5.4684 119.303 5.65988 119.742 5.96954C120.223 6.39289 120.543 6.89552 120.663 7.51185C121.02 6.93292 121.502 6.39289 122.058 6.00694C122.581 5.69728 123.182 5.50431 123.779 5.50431C124.456 5.4684 125.137 5.69728 125.617 6.19991C126.177 6.89552 126.455 7.70632 126.418 8.5949V12.8792C126.378 13.0722 126.455 13.2652 126.617 13.4178C126.858 13.5734 127.139 13.6482 127.419 13.6108H127.82V14.3049H123.342V13.6108H123.782C124.06 13.6482 124.34 13.5749 124.582 13.4178C124.743 13.2622 124.823 13.0722 124.823 12.8792V8.55451C124.862 8.01747 124.703 7.47445 124.34 7.0496C124.02 6.70105 123.538 6.50808 123.061 6.50808C122.663 6.50808 122.302 6.62476 121.982 6.81773C121.662 7.0496 121.381 7.35776 121.222 7.70781C120.981 8.12966 120.861 8.59639 120.821 9.09753V12.8015C120.821 12.9959 120.86 13.2278 121.023 13.3834C121.222 13.4971 121.425 13.5778 121.662 13.5778H122.263V14.272H117.707V13.5749H118.225C118.466 13.5749 118.747 13.536 118.948 13.3804C119.109 13.2652 119.184 13.1081 119.184 12.9151V8.97935C119.223 8.32414 119.064 7.70482 118.707 7.12739C118.423 6.73995 117.944 6.54847 117.464 6.54847C116.864 6.50808 116.306 6.77884 115.905 7.20368C115.386 7.8215 115.103 8.5949 115.145 9.4042V12.8403C115.106 13.0333 115.184 13.2263 115.347 13.3789C115.582 13.5345 115.863 13.6093 116.147 13.5734H116.629V14.3034H112.109V13.6093H112.787C112.986 13.6093 113.227 13.5734 113.388 13.4163C113.505 13.2996 113.587 13.1066 113.587 12.951V7.28147C113.626 7.00772 113.505 6.77884 113.351 6.58586C113.068 6.39139 112.708 6.27621 112.353 6.27621V5.65988H112.349Z" fill="white"/>
<path d="M128.048 5.65927L131.24 5.54408V12.9549C131.24 13.1105 131.282 13.2646 131.401 13.3798C131.561 13.4935 131.759 13.5742 131.961 13.5742H132.958V14.3042H127.523V13.6101H128.842C129.078 13.6475 129.277 13.5742 129.44 13.4172C129.6 13.2616 129.643 13.0716 129.643 12.8382V7.39455C129.68 7.12379 129.56 6.81413 129.321 6.62115C129.083 6.42818 128.722 6.35189 128.399 6.35189H128.045V5.65927H128.048ZM130.164 1.56641C130.445 1.56641 130.726 1.68159 130.925 1.87606C131.126 2.06904 131.242 2.3398 131.242 2.60907C131.242 2.87834 131.126 3.1476 130.925 3.34208C130.486 3.72802 129.847 3.72802 129.407 3.34208C129.009 2.91723 129.009 2.29941 129.407 1.87606C129.648 1.68159 129.887 1.56641 130.164 1.56641Z" fill="white"/>
<path d="M132.724 5.66023L135.682 5.46875C135.802 6.08507 135.923 6.74179 135.965 7.35961C136.324 6.78068 136.806 6.31694 137.363 5.96989C137.922 5.66023 138.562 5.50465 139.201 5.50465C139.72 5.50465 140.242 5.61984 140.679 5.85171C141.12 6.12247 141.44 6.46803 141.64 6.93327C141.877 7.4344 141.997 8.01632 141.997 8.55336V12.7614C141.959 12.9933 142.037 13.264 142.199 13.4181C142.399 13.5737 142.681 13.6485 142.917 13.6111H143.2V14.3052H139.243V13.6111H139.321C139.641 13.6485 139.923 13.5752 140.201 13.4181C140.362 13.2625 140.482 13.0726 140.442 12.8392V9.13378C140.481 8.51596 140.322 7.89964 140.041 7.35661C139.68 6.81658 139.082 6.50693 138.398 6.54732C137.68 6.54732 137.044 6.85398 136.601 7.39401C136.082 8.01183 135.844 8.78523 135.883 9.59453V12.7973C135.844 13.0307 135.921 13.2999 136.124 13.454C136.323 13.6096 136.601 13.6829 136.842 13.647H137.082V14.3426H132.722V13.6485H133.326C133.564 13.6485 133.845 13.6111 134.044 13.4555C134.204 13.3388 134.285 13.1833 134.285 12.9903V7.35811C134.323 7.04995 134.203 6.74029 133.965 6.50842C133.724 6.31545 133.401 6.20176 133.085 6.23915H132.602L132.724 5.66023Z" fill="white"/>
<path d="M150.001 6.12343C150.64 5.50562 152.4 4.57963 152.995 4.57963C153.317 4.54224 153.637 4.61703 153.915 4.81001C154.117 5.00298 153.757 5.46672 153.757 5.73599C153.757 5.93046 153.679 6.16083 153.558 6.31491C153.438 6.47049 153.236 6.54828 153.036 6.54828C152.678 6.54828 152.436 6.31491 152.315 5.89157C152.277 5.69859 152.198 5.6208 152.077 5.6208C151.52 5.81378 150.958 6.12343 150.518 6.50789C150.759 6.78164 150.958 7.1272 151.075 7.47426C151.194 7.74353 151.236 8.05318 151.236 8.32096C151.236 8.82209 151.119 9.32622 150.838 9.74957C150.518 10.2133 150.036 10.5978 149.519 10.8311C148.963 11.1393 148.358 11.2949 147.719 11.2949H146.681C146.159 11.259 145.679 11.3323 145.2 11.5252C144.961 11.6808 144.841 11.9142 144.841 12.1805C144.841 12.4108 144.961 12.6038 145.122 12.7205C145.483 12.8761 145.84 12.9509 146.241 12.9135L148.602 12.8776C149.802 12.8776 150.64 13.0705 151.159 13.4565C151.681 13.802 151.997 14.4214 151.959 15.0407C151.959 15.7722 151.639 16.4319 151.078 16.8926C150.24 17.5882 149.003 17.9742 147.363 17.9742C146.003 17.9742 144.962 17.7438 144.323 17.2397C143.843 16.9689 143.567 16.4693 143.523 15.9652C143.523 15.5807 143.723 15.2337 144.042 14.9614C144.526 14.6158 145.122 14.3825 145.722 14.3062C145.203 14.1925 144.722 13.998 144.283 13.651C143.963 13.3802 143.8 12.9957 143.8 12.5694C143.8 12.182 143.962 11.8364 144.203 11.5267C144.563 11.1827 145.041 10.9104 145.521 10.7533C145.038 10.5245 144.6 10.1385 144.323 9.71367C144.041 9.29032 143.92 8.78769 143.92 8.32245C143.92 7.51166 144.28 6.73826 144.919 6.23713C145.676 5.6567 146.601 5.34854 147.558 5.38744C147.995 5.38744 148.438 5.46822 148.84 5.58041C149.243 5.69709 149.644 5.89007 150.001 6.12343ZM148.043 14.3047C146.882 14.3047 146.043 14.4603 145.525 14.7699C145.084 15.0018 144.803 15.4251 144.766 15.8904C144.766 16.2763 144.966 16.6623 145.325 16.8552C145.961 17.2008 146.72 17.3953 147.442 17.3205C148.284 17.3564 149.159 17.2038 149.922 16.7804C150.479 16.4364 150.76 16.0474 150.76 15.6256C150.76 15.3533 150.679 15.1215 150.52 14.9285C150.32 14.6996 150.039 14.5051 149.72 14.4258C149.159 14.3436 148.603 14.2658 148.043 14.3047ZM147.482 5.96935C146.96 5.96935 146.442 6.16233 146.08 6.58717C145.679 7.05091 145.483 7.66873 145.525 8.28505C145.487 8.94027 145.684 9.55959 146.08 10.0981C146.72 10.8311 147.919 10.9463 148.685 10.2911C148.765 10.2133 148.846 10.1759 148.886 10.0981C149.284 9.59698 149.487 8.94177 149.442 8.32245C149.482 7.70613 149.281 7.08831 148.886 6.62308C148.566 6.19973 148.043 5.96935 147.482 5.96935Z" fill="white"/>
<path d="M153.318 4.65625C153.601 4.65625 153.876 4.77144 154.078 4.96591C154.277 5.15888 154.397 5.42965 154.397 5.69742C154.397 5.96818 154.277 6.23745 154.078 6.43042C153.638 6.81637 152.995 6.81637 152.56 6.43042C152.157 6.00707 152.157 5.38776 152.56 4.96591C152.799 4.77144 153.037 4.65625 153.318 4.65625Z" fill="white"/>
<path d="M10.5146 14.3806H10.3154V14.0724H10.3957C10.476 14.0724 10.5146 14.0724 10.5949 14.0724C10.6351 14.1113 10.6752 14.1502 10.6752 14.1891C10.7154 14.3028 10.6351 14.3806 10.5146 14.3806ZM10.8759 14.225C10.8759 14.1487 10.8358 14.0321 10.7555 13.9947C10.6752 13.9169 10.5548 13.9169 10.4359 13.9169H10.1147V14.9206H10.3154V14.5347H10.476L10.6752 14.9206H10.8759L10.6351 14.5347C10.8358 14.4584 10.9161 14.3417 10.8759 14.225ZM10.5146 15.1914C10.0746 15.1914 9.71481 14.8443 9.71481 14.4165C9.71481 13.9932 10.0746 13.6446 10.5146 13.6446C10.9547 13.6446 11.316 13.9902 11.316 14.4165C11.316 14.8428 10.9547 15.1914 10.5146 15.1914ZM10.5146 13.4531C9.95568 13.4531 9.51562 13.878 9.51562 14.418C9.51562 14.958 9.95568 15.3844 10.5146 15.3844C11.0751 15.3844 11.5152 14.9595 11.5152 14.418C11.5152 13.881 11.035 13.4531 10.5146 13.4531Z" fill="#A3A3A3"/>
<path d="M0 0.949152C4.75876 -1.51913 10.9149 1.06434 11.3549 7.31882C2.55849 7.97254 1.4792 4.15343 0 0.949152Z" fill="url(#paint0_linear_5687_42301)"/>
<path d="M0 14.3055C4.75876 16.7753 10.8747 14.1514 11.3549 7.93732C2.55849 7.24321 1.4792 11.1012 0 14.3055Z" fill="url(#paint1_linear_5687_42301)"/>
<path d="M9.71517 2.87979C7.43615 0.0225685 3.27802 -0.825624 0 0.950045C1.31862 3.80428 2.31762 7.20603 8.83506 7.3975C9.63487 6.04518 9.95449 4.46249 9.71517 2.87979ZM1.59809 11.1403C1.79727 11.1403 1.95786 11.1792 2.15704 11.1792C4.71553 11.1792 7.07484 9.94358 8.51544 7.89864C4.59664 8.09162 2.75767 9.44244 1.59809 11.1403Z" fill="url(#paint2_radial_5687_42301)"/>
<defs>
<linearGradient id="paint0_linear_5687_42301" x1="5.60305" y1="4.79414" x2="4.71241" y2="13.3833" gradientUnits="userSpaceOnUse">
<stop stop-color="#DADCDF"/>
<stop offset="1" stop-color="#A8A8A8"/>
</linearGradient>
<linearGradient id="paint1_linear_5687_42301" x1="6.3706" y1="4.87306" x2="5.47981" y2="13.4657" gradientUnits="userSpaceOnUse">
<stop stop-color="#DADCDF"/>
<stop offset="1" stop-color="#A8A8A8"/>
</linearGradient>
<radialGradient id="paint2_radial_5687_42301" cx="0" cy="0" r="1" gradientUnits="userSpaceOnUse" gradientTransform="translate(2.96945 5.86079) scale(9.07975 8.76594)">
<stop stop-color="#C2C2C2"/>
<stop offset="0.22" stop-color="#BDBDBD"/>
<stop offset="0.46" stop-color="#B0B0B0"/>
<stop offset="0.72" stop-color="#999999"/>
<stop offset="0.99" stop-color="#7A7A7A"/>
<stop offset="1" stop-color="#787878"/>
</radialGradient>
</defs>
</svg>
