<svg width="146" height="36" viewBox="0 0 146 36" fill="none" xmlns="http://www.w3.org/2000/svg">
<path d="M18.8551 17.7985C20.3054 18.6028 21.7556 19.4085 23.2058 20.2115C24.656 21.1485 26.2512 21.9542 27.5564 23.0267C28.7166 23.9651 29.2967 25.441 29.2967 26.9143C29.2967 29.7295 26.3963 31.4722 23.6408 30.3998C23.4958 30.2657 23.2058 30.2657 23.0608 30.133C22.4821 31.3382 21.9006 32.4106 20.4504 32.8141C17.84 33.6185 15.3746 32.1439 14.5045 29.3273C13.9244 27.4519 14.5045 25.5737 15.0831 23.8297C15.5197 22.6245 15.8097 21.4193 16.2448 20.2115C16.0983 20.2115 16.0983 20.2115 15.9547 20.0774C15.5197 21.2839 14.9396 22.4904 14.5045 23.6969C13.4894 26.5121 12.4742 29.3273 11.6041 32.1439C11.314 32.9468 11.4591 33.8853 11.314 34.6896C11.314 35.4953 10.879 35.628 10.1539 35.628C9.42876 35.628 9.28374 35.2258 9.28374 34.5555C9.28374 31.7403 10.2989 29.3287 11.7491 26.9156C13.0543 24.7707 14.3595 22.4904 15.6647 20.3469C17.2599 17.5317 15.9547 15.3868 13.3443 14.4484C12.0391 13.9122 10.5889 13.51 9.28229 13.1078C7.97855 12.7043 6.67336 12.3021 5.07812 11.7659C7.68851 8.28043 9.57378 4.66091 10.879 0.371094C14.6495 2.78411 18.7101 4.66091 23.2058 5.73336C21.0305 8.6826 19.1452 11.6318 18.4201 14.9833C18.5651 14.8492 18.8551 14.5811 18.9987 14.447C20.3054 12.4362 21.7556 10.2913 23.0608 8.28043C24.0759 6.93987 25.3826 6.00147 27.1228 5.5993C30.1683 4.92902 33.2123 6.93987 32.3436 10.5594C33.0687 10.2913 33.0687 10.2913 34.5189 7.20798C34.954 8.14638 35.389 9.08477 35.6791 10.0232C36.1141 10.9616 36.4042 11.7659 36.8392 12.7043C35.5326 12.3021 34.3724 11.9 33.0672 11.4978C33.7923 12.5702 34.5174 13.3746 34.9525 14.1789C35.5326 15.7876 34.6625 17.6644 33.2123 18.4687C30.8919 19.8093 28.4266 19.6752 25.9612 19.005C23.7859 18.4687 21.7556 17.9325 19.5803 17.2622C18.8551 17.6644 18.8551 17.7985 18.8551 17.7985Z" fill="#BC1515"/>
<path d="M83.6803 8.01015C83.6803 10.6913 83.6803 13.3724 83.6803 16.0536C82.9552 14.3108 82.6652 12.3 79.7647 12.5681C79.7647 14.5789 79.7647 16.4557 79.7647 18.4666C79.7647 18.736 80.4898 19.2709 80.9249 19.2709C84.4054 19.539 87.0158 19.0028 88.176 15.5173C88.176 15.3833 88.321 15.3833 88.611 15.2492C88.321 16.8579 88.176 18.3325 87.8859 19.9412C83.1002 19.9412 78.1695 19.9412 73.0938 19.9412C73.8189 19.8058 74.2554 19.8058 74.544 19.6731C74.9805 19.2709 75.5591 18.8687 75.5591 18.3325C75.7056 14.1768 75.5591 10.1551 75.5591 5.9993C75.5591 5.06091 74.9805 4.79279 74.1089 4.65874C73.8189 4.65874 73.5303 4.65874 73.2388 4.39062C77.8795 4.39062 82.5187 4.39062 87.3058 4.39062C87.3058 5.86525 87.3058 7.33987 87.3058 8.81449C86.7258 7.47393 86.2907 5.9993 84.5504 5.59713C83.1002 5.19496 81.36 5.19496 79.7647 4.92685C79.7647 7.33987 79.7647 9.48478 79.7647 11.7637C80.9249 11.8978 81.94 11.6297 82.5187 10.6913C82.9552 9.88695 83.2452 8.81449 83.6803 8.01015Z" fill="#BC1515"/>
<path d="M137.77 10.8253C139.51 13.2384 141.105 15.3833 142.845 17.6622C143.571 18.4666 144.441 19.2709 145.021 19.9412C142.555 19.9412 139.945 19.9412 137.335 19.9412C137.335 19.8058 137.335 19.8058 137.48 19.8058C139.075 19.2709 139.075 19.1355 138.205 17.7949C137.335 16.4544 136.319 15.2479 135.159 13.6392C133.854 15.2479 132.694 16.7225 131.534 18.1971C131.097 18.8674 131.679 19.2696 132.112 19.405C132.549 19.6731 132.984 19.6731 133.854 19.9412C131.534 19.9412 129.503 19.9412 127.328 19.9412C128.053 19.539 129.068 19.2709 129.503 18.6006C131.244 16.8579 132.839 15.1152 134.434 13.3724C134.579 13.2384 134.579 12.8362 134.434 12.5681C132.694 10.1551 130.954 7.74204 129.212 5.46308C128.923 5.06091 128.343 4.79279 127.618 4.39062C130.519 4.39062 133.129 4.39062 135.884 4.39062V4.52468C133.854 4.79279 133.999 5.46308 134.869 6.66959C135.739 7.74204 136.464 8.94855 137.335 10.1551C138.205 9.08261 139.22 8.01015 140.09 6.9377C141.105 5.73119 140.67 4.92685 139.075 4.65874C138.93 4.65874 138.93 4.52468 138.64 4.39062C140.815 4.39062 142.845 4.39062 144.876 4.39062C143.137 4.79279 142.265 5.9993 141.25 7.07176C140.09 8.27827 138.93 9.48478 137.77 10.8253Z" fill="#BC1515"/>
<path d="M7.97617 16.7254C9.28136 15.787 10.7316 15.5189 12.0368 16.4573C13.1969 17.2616 13.487 18.2 13.342 19.4079C13.0519 21.1493 11.6017 21.6855 9.86145 21.8196C10.2965 23.8304 9.71643 25.0369 8.26621 25.7072C7.10604 26.2434 5.51081 26.1107 4.49566 25.171C3.48051 24.2339 3.33549 22.7593 4.20562 21.1493C3.33549 21.5514 3.33549 21.5514 1.88528 24.2326C1.30519 22.6239 0.725106 21.1479 0 19.4065C1.30519 20.0782 2.32034 20.8812 4.0606 20.479C2.17532 19.6747 1.30519 18.6035 1.74026 16.8595C2.02885 15.653 3.19047 14.7146 4.35064 14.5805C6.09089 14.3124 6.96102 14.9827 7.97617 16.7254Z" fill="#BC1515"/>
<path d="M60.7633 11.6324C63.2286 11.9005 63.9537 11.4983 65.1139 8.14689C65.1139 10.9621 65.1139 13.5092 65.1139 16.0562C64.6789 15.2519 64.3888 14.1794 63.6637 13.5092C62.9386 12.7048 61.7784 12.4367 60.6183 12.7048C60.6183 14.7157 60.6183 16.7265 60.6183 18.7374C60.6183 19.4076 61.3434 19.8085 62.7936 20.0779C59.8932 20.0779 57.1378 20.0779 54.2373 20.0779C54.2373 20.0779 54.2373 20.0779 54.2373 19.9425C54.5274 19.9425 54.8174 19.8071 55.1089 19.8071C55.979 19.6731 56.5591 19.1369 56.5591 18.1985C56.5591 14.3108 56.5591 10.4232 56.5591 6.53553C56.5591 5.06091 56.1241 4.79279 54.5288 4.65874C54.3838 4.65874 54.2388 4.65874 54.0938 4.39062C58.8795 4.39062 63.5201 4.39062 68.3058 4.39062C68.3058 5.86525 68.3058 7.20581 68.3058 8.68044C67.1457 4.79279 64.1017 5.06091 60.6197 5.19496C60.7633 7.34255 60.7633 9.48746 60.7633 11.6324Z" fill="#BC1515"/>
<path d="M93.6797 4.39062C96.5801 4.39062 99.627 4.39062 102.527 4.39062V4.52468C102.381 4.52468 102.091 4.65874 101.947 4.65874C100.497 4.79279 100.062 5.19496 99.9171 6.53553C99.9171 10.2891 99.9171 14.0427 99.9171 17.6622C99.9171 18.6006 100.354 19.2709 101.514 19.1369C102.674 19.1369 103.834 19.1369 104.993 19.0028C106.733 18.736 107.605 17.5282 108.33 16.1876C108.618 15.6514 108.765 14.9811 109.055 14.4449C109.2 14.4449 109.2 14.4449 109.343 14.5789C109.198 16.3217 108.908 18.0644 108.765 19.9412C103.689 19.9412 98.7583 19.9412 93.8276 19.9412V19.8071C95.8565 19.4063 96.0029 19.2723 96.0029 17.3955C96.0029 14.1781 96.0029 10.9607 96.0029 7.74338C96.1451 5.19496 96.145 5.19496 93.6797 4.39062Z" fill="#BC1515"/>
<path d="M123.116 4.39062C120.506 5.19496 120.506 5.19496 120.506 7.8761C120.506 11.0935 120.506 14.3108 120.506 17.5282C120.506 19.2709 120.796 19.539 122.681 20.0766C121.378 20.0766 119.927 20.0766 118.621 20.0766C117.17 20.0766 115.865 20.0766 114.415 20.0766C114.995 19.8071 115.865 19.5404 116.155 19.1369C116.59 18.602 116.445 17.7963 116.445 17.126C116.445 13.9086 116.445 10.5572 116.445 7.33987C116.445 5.19496 116.3 5.06091 114.125 4.52468C117.17 4.39062 120.071 4.39062 123.116 4.39062Z" fill="#BC1515"/>
<path d="M94.4117 31.3389C95.4269 29.1927 96.297 27.1818 97.0221 25.3064C97.3121 24.7715 97.6022 24.5007 98.1837 24.6361C99.1974 24.6361 100.359 24.6361 101.519 24.7715C100.069 24.7715 100.214 25.5758 100.214 26.3788C100.214 28.6578 100.214 30.9368 100.214 33.0817C100.214 33.752 100.36 34.2882 101.229 34.5563C99.7789 34.5563 98.3287 34.5563 97.0235 34.5563C97.17 34.1555 97.6036 33.6192 97.6036 33.0817C97.6036 30.6686 97.6036 28.2556 97.4586 25.7086C96.1534 28.6578 94.8468 31.4743 93.3966 34.6903C91.9463 31.607 90.6426 28.6578 89.0459 25.5745C88.9009 26.1107 88.9009 26.3788 88.9009 26.5116C88.9009 28.6578 88.9009 30.6687 88.9009 32.8136C88.9009 33.6179 89.0459 34.2882 90.0611 34.555C89.1909 34.555 88.3208 34.555 87.1606 34.555C88.1758 34.1541 88.4658 33.6179 88.4658 32.8136C88.4658 30.6687 88.4658 28.5237 88.4658 26.5129C88.4658 25.1723 88.3194 25.1723 87.0156 24.7715C88.3194 24.7715 89.626 24.7715 91.0762 24.7715C91.3663 24.7715 91.5113 25.3064 91.6563 25.5758C92.5264 27.3172 93.3966 29.194 94.4117 31.3389Z" fill="#BC1515"/>
<path d="M64.8218 24.5039C64.8218 25.5777 64.8218 26.6502 64.8218 27.8553C64.2417 27.185 63.9502 26.5148 63.3716 25.9799C62.3564 24.9074 61.0498 24.6393 59.5996 24.9074C58.1494 25.3096 57.5707 26.382 57.2793 27.5885C56.9892 29.0632 56.9892 30.6719 57.4243 32.1465C58.1494 34.1573 59.8896 34.4241 61.6299 34.1573C61.9199 34.1573 62.2085 33.7538 62.2085 33.487C62.355 32.9508 62.2085 32.4132 62.2085 31.877C62.2085 31.0727 61.9199 30.6719 61.1948 30.5365C62.7901 30.5365 64.2403 30.5365 65.8341 30.5365C64.9668 30.8059 64.8218 31.3408 64.8218 32.0111C64.8218 34.1573 64.8218 34.29 62.5 34.6922C60.6147 34.9603 58.7295 35.0944 56.8456 34.1573C54.8153 33.0835 53.6552 30.9386 54.2353 28.9278C54.8153 26.5134 56.8471 24.638 59.166 24.638C60.4712 24.638 61.6313 24.7734 62.9365 25.0401C63.6616 25.0401 64.2417 25.3082 64.8218 24.5039Z" fill="#BC1515"/>
<path d="M144.151 24.7707C144.151 25.575 144.151 26.6461 144.151 27.8527C143.861 27.3164 143.716 27.0483 143.426 26.6462C142.555 25.3056 141.25 24.6353 139.511 24.7707C138.206 24.9048 137.19 25.7078 136.9 26.7815C136.464 28.2562 136.464 29.7295 136.464 31.07C136.464 31.7403 136.755 32.4106 137.045 32.9468C137.77 34.2874 139.655 34.8236 141.105 34.1533C141.25 34.1533 141.395 34.0179 141.54 34.0179C142.265 33.3476 141.54 30.9346 140.236 30.5311C141.975 30.5311 143.572 30.5311 145.166 30.5311C144.296 30.6678 144.151 31.3381 144.151 32.0084C144.151 34.0193 144.151 34.1547 141.975 34.5541C139.945 34.9577 137.77 34.9577 135.884 33.7511C133.998 32.5446 133.129 30.3997 133.709 28.1221C134.144 26.244 136.319 24.5012 138.35 24.3672C139.655 24.3672 141.105 24.6353 142.412 24.7707C142.845 24.9034 143.426 24.7707 144.151 24.7707Z" fill="#BC1515"/>
<path d="M117.465 34.5543C118.335 34.2876 118.626 33.884 118.626 33.0797C118.626 30.8021 118.626 28.5218 118.626 26.3769C118.626 25.4398 118.045 25.0363 117.32 24.7695C118.335 24.7695 119.496 24.7695 120.511 24.7695C120.801 24.7695 121.236 25.1704 121.526 25.4398C123.121 27.1812 124.571 29.058 126.312 31.0689C126.312 29.1921 126.312 27.5834 126.312 25.8406C126.312 25.4398 125.587 25.0363 125.296 24.7695C126.168 24.7695 127.183 24.7695 128.197 24.7695C127.037 24.9022 126.892 25.7066 126.892 26.645C126.892 29.3261 126.892 32.1426 126.602 34.9565C124.136 32.1413 121.816 29.4602 119.351 26.645C119.206 26.645 119.206 26.645 119.061 26.645C119.061 27.4507 119.061 28.2537 119.061 29.058C119.061 30.2645 119.061 31.4724 119.061 32.5435C119.061 33.3492 119.061 34.2875 120.366 34.4203C119.351 34.5543 118.335 34.5543 117.465 34.5543Z" fill="#BC1515"/>
<path d="M77.442 34.5555C78.3121 34.2874 78.3121 33.8852 78.0221 33.2149C77.587 32.0098 77.0069 31.6076 75.7017 31.7403C75.4117 31.7403 74.9766 31.7403 74.5401 31.7403C73.5264 31.6062 73.0899 32.0084 72.8013 32.8141C72.5113 33.8852 72.5113 34.1547 73.8165 34.5555C72.8028 34.5555 71.7876 34.5555 71.0625 34.5555C71.4976 33.8852 72.0776 33.2149 72.5127 32.4106C73.8165 29.7294 75.1231 27.1824 76.4283 24.3672C78.3136 27.8527 79.4737 31.4735 81.504 34.5555C80.3424 34.5555 78.8922 34.5555 77.442 34.5555ZM73.6714 31.2041C74.9766 31.2041 75.9918 31.2041 77.1519 31.2041C76.5719 29.9976 75.9918 28.9251 75.4117 27.5845C74.6866 28.9251 74.2515 29.9976 73.6714 31.2041Z" fill="#BC1515"/>
<path d="M44.6722 3.1875C44.8172 3.32156 45.1073 3.58967 45.2523 3.72373C45.3973 3.85778 45.2523 3.99184 45.2523 4.25995C45.2523 14.4483 45.2523 24.6366 45.2523 34.8262C45.2523 35.093 45.2523 35.227 45.2523 35.4965C44.2371 35.8973 44.3822 35.227 44.3822 34.8262C44.3822 31.3394 44.3822 27.988 44.3822 24.5025C44.3822 17.7997 44.3822 10.9628 44.3822 4.25995C44.3822 3.99184 44.3822 3.58967 44.3822 3.32156C44.5272 3.32156 44.5272 3.32156 44.6722 3.1875Z" fill="#BC1515"/>
<path d="M107.024 34.5557C107.895 34.4216 108.185 33.7513 108.04 33.081C108.04 30.8034 108.04 28.5231 108.04 26.2442C108.04 25.4398 107.893 24.7695 106.734 24.7695C108.331 24.7695 109.925 24.7695 111.52 24.7695C110.36 24.9036 110.505 25.7079 110.505 26.3782C110.505 28.6572 110.505 30.9361 110.505 33.2151C110.505 33.7513 110.94 34.1548 111.084 34.5557C110.07 34.5557 108.62 34.5557 107.024 34.5557Z" fill="#BC1515"/>
</svg>
