<svg width="142" height="30" viewBox="0 0 142 30" fill="none" xmlns="http://www.w3.org/2000/svg">
<path d="M44.3545 24.318C44.3545 24.318 44.3545 24.4531 44.3545 24.5883V24.7234L44.2123 26.2097C44.0701 26.3449 43.7858 26.3449 43.7858 26.3449C43.6436 26.3449 43.5014 26.3449 43.3592 26.3449C42.9327 26.3449 42.6483 26.2084 42.364 25.8044C42.0796 25.399 41.9375 24.9936 41.9375 24.4531C41.9375 23.6424 42.0796 23.1019 42.5062 22.6966C42.7905 22.2912 43.2171 22.021 43.7858 22.021C44.2123 22.021 44.4967 22.1561 44.781 22.2912C44.9232 22.2912 44.9232 22.4263 44.9232 22.4263C45.0654 22.5628 45.0654 22.6966 45.2076 22.6966V21.6156H44.9232H44.781L44.3545 21.4805H44.0701H43.7858C43.0749 21.4805 42.364 21.7507 41.9375 22.2926C41.3687 22.8317 41.2266 23.5073 41.2266 24.1829C41.2266 24.8585 41.3687 25.399 41.7953 25.8044C42.2218 26.2097 42.6483 26.3449 43.3592 26.3449C43.6436 26.3449 43.9279 26.3449 44.0701 26.3449C44.3545 26.3449 44.6388 26.2084 44.9232 26.2084L45.2076 26.0733C45.2076 26.0733 45.2076 25.9381 45.2076 25.803V25.6679L45.3497 24.3167C45.3497 24.1802 45.3497 24.0464 45.4919 24.0464C45.4919 23.9113 45.6341 23.7762 45.6341 23.7762H44.3545V24.318Z" fill="#232020"/>
<path d="M44.2124 23.2367C44.0703 23.1016 44.0703 23.1016 43.7859 23.1016C43.6437 23.1016 43.5016 23.1016 43.3594 23.238H44.2124C44.3546 23.2367 44.3546 23.2367 44.2124 23.2367Z" fill="#232020"/>
<path d="M42.9375 24.5883C42.9375 24.9937 42.9375 25.2639 43.0797 25.3991C43.0797 25.3991 43.2219 25.5342 43.364 25.5342L43.5062 24.5897L43.0797 23.9141C43.0797 24.183 42.9375 24.4532 42.9375 24.5883Z" fill="#232020"/>
<path d="M47.9141 25.1279C47.9141 25.2643 47.9141 25.2643 47.9141 25.3981C47.9141 25.3981 47.9141 25.263 47.9141 25.1279L48.3406 24.0469C48.0562 24.3171 47.9141 24.7225 47.9141 25.1279Z" fill="#232020"/>
<path d="M34.4123 22.6953C34.2701 22.6953 34.128 22.6953 33.9858 22.6953L33.7014 22.8304L33.4171 22.9656L33.1327 23.2358L33.2749 22.6953H32.2797C32.2797 22.8304 32.4218 22.9656 32.4218 23.1007V23.3709L31.9953 26.0734C31.9953 26.2085 31.9953 26.3436 31.8531 26.4787C31.8531 26.6152 31.7109 26.6152 31.7109 26.749H32.8484L32.7062 26.6138V26.4787V26.2085L32.9905 24.3181C32.9905 24.0479 33.1327 23.7776 33.2749 23.6425C33.4171 23.506 33.5593 23.3723 33.8436 23.3723C33.9858 23.3723 34.128 23.3723 34.128 23.5074C34.2701 23.5074 34.2701 23.6439 34.4123 23.7776V22.6953Z" fill="#232020"/>
<path d="M36.6827 22.5625C35.9718 22.5625 35.403 22.8314 34.9765 23.2381C34.55 23.7772 34.2656 24.3191 34.2656 24.9947C34.2656 25.5338 34.4078 25.9405 34.6922 26.2094C34.9765 26.4797 35.403 26.6162 35.9718 26.6162C36.3983 26.6162 36.8248 26.4797 37.2514 26.2094L37.5357 26.0743L37.8201 25.3987C37.6779 25.5338 37.6779 25.5338 37.5357 25.669L37.2514 25.8041C36.8248 25.9405 36.5405 26.0743 36.2561 26.0743C35.5452 26.0743 35.1187 25.669 35.1187 24.8582V24.4529L35.2609 23.9137H38.2466V23.6435C38.2466 23.2381 38.1044 22.9679 37.8201 22.6976C37.5357 22.6976 37.1092 22.5625 36.6827 22.5625ZM37.2514 23.7786L37.1092 23.9137H35.2609L35.403 23.507C35.5452 23.3719 35.5452 23.3719 35.6874 23.2381C35.9718 22.9679 36.2561 22.9679 36.5405 22.9679C36.8248 22.9679 36.967 22.9679 37.1092 23.103C37.2514 23.2395 37.3935 23.3732 37.3935 23.5084C37.3935 23.6435 37.3935 23.7786 37.2514 23.7786Z" fill="#232020"/>
<path d="M36.1101 25.3966H36.2522C36.3944 25.3966 36.5366 25.3966 36.821 25.2615L37.1053 25.125H36.1101C35.9679 25.2615 36.1101 25.3966 36.1101 25.3966Z" fill="#232020"/>
<path d="M62.4217 22.5625C61.9952 22.5625 61.5686 22.6976 61.2843 22.9679L60.9999 23.103L61.1421 22.6976H60.1468C60.1468 22.8327 60.289 22.9679 60.289 23.103V23.3732L59.8625 26.0757C59.8625 26.2108 59.8625 26.3459 59.7203 26.481C59.7203 26.481 59.5781 26.6175 59.5781 26.7513H60.7155C60.5734 26.6162 60.5734 26.481 60.5734 26.481V26.2108L60.8577 24.3204C60.8577 24.0502 60.9999 23.9151 60.9999 23.78C60.9999 23.6448 61.1421 23.5097 61.2843 23.5097L61.4264 23.3746L61.7108 23.2395H61.9951H62.2795C62.706 23.2395 62.9904 23.3746 62.9904 23.9151V24.3204L62.706 25.6717C62.706 25.9419 62.5639 26.077 62.5639 26.3473L62.4217 26.8864H63.4169L63.2748 26.7513V26.6162V26.3459L63.7013 24.1826V23.7772C63.7013 23.507 63.5591 23.3719 63.4169 23.2381C63.2748 23.103 62.706 22.5625 62.4217 22.5625Z" fill="#232020"/>
<path d="M61.7062 24.0469C61.7062 24.182 61.7062 24.182 61.7062 24.3171L61.4219 26.0737V25.9386C61.4219 25.8021 61.564 25.5319 61.564 25.3981L61.7062 24.0469Z" fill="#232020"/>
<path d="M59.5812 21.3452C59.5812 21.2101 59.5812 21.0749 59.439 20.9398C59.2968 20.8047 59.2968 20.8047 59.1546 20.8047C59.0125 20.8047 58.8703 20.8047 58.7281 20.9412C58.5859 21.0763 58.5859 21.2114 58.5859 21.3465C58.5859 21.4816 58.5859 21.6168 58.7281 21.6168C58.8703 21.7519 58.8703 21.7519 59.0125 21.7519C59.1546 21.7519 59.1546 21.7519 59.2968 21.7519C59.2968 21.7519 59.439 21.7519 59.439 21.6168C59.5812 21.6154 59.5812 21.4803 59.5812 21.3452Z" fill="#232020"/>
<path d="M31.2779 22.6953H30.2826C30.2826 22.8304 30.4248 22.9656 30.4248 23.1007V23.3709L30.1404 25.2626C30.1404 25.5315 29.9983 25.668 29.9983 25.668C29.9983 25.8031 29.8561 25.8031 29.8561 25.9382C29.7139 26.0734 29.5717 26.0734 29.4295 26.2071C29.2874 26.2071 29.1452 26.3436 28.8608 26.3436C28.2921 26.3436 28.0078 26.0734 28.0078 25.668V25.3977V25.1275L28.4343 22.6953H27.4391C27.5812 22.8304 27.5812 22.9656 27.5812 23.1007V23.3709L27.2969 25.3977C27.2969 25.5329 27.2969 25.668 27.2969 25.8031C27.2969 25.8031 27.2969 25.9396 27.2969 26.0734C27.2969 26.3436 27.4391 26.4787 27.5812 26.6138C27.8656 26.749 28.1499 26.8841 28.4343 26.8841C29.003 26.8841 29.2874 26.749 29.5717 26.4787L29.8561 26.2085V26.6138H30.8513C30.7091 26.4774 30.7091 26.3436 30.7091 26.3436V26.0734L31.2779 22.6953Z" fill="#232020"/>
<path d="M49.4732 22.6953C49.331 22.6953 49.0467 22.6953 48.9045 22.6953C48.0514 22.6953 47.4827 22.9656 46.914 23.3709C46.3453 23.9114 46.2031 24.4519 46.2031 25.2626C46.2031 25.8018 46.3453 26.0734 46.6297 26.3436C46.914 26.6138 47.1984 26.749 47.6249 26.749C47.7671 26.749 47.7671 26.749 47.9093 26.749C48.0514 26.749 48.0514 26.749 48.1936 26.6138C48.3358 26.4774 48.6202 26.4774 48.7623 26.3436L48.9045 26.2071L49.0467 26.072C49.0467 26.2071 49.0467 26.2071 49.0467 26.3423V26.6125H49.7576C49.7576 26.6125 49.7576 26.6125 49.7576 26.476V26.2058L50.1841 23.5033L50.3263 23.098C50.3263 23.098 50.3263 22.9629 50.4685 22.9629C50.4685 22.9629 50.4685 22.9629 50.4685 22.8264H50.1841L49.4732 22.6953ZM49.331 23.6412L49.0467 25.1275C49.0467 25.3978 48.9045 25.5329 48.9045 25.668C48.9045 25.8031 48.7623 25.8031 48.7623 25.9382C48.478 26.2071 48.1936 26.3436 47.9093 26.3436C47.6249 26.3436 47.3406 26.2071 47.1984 26.0734C47.0562 25.9382 46.914 25.5329 46.914 25.1275C46.914 24.5884 47.0562 24.0465 47.4827 23.6412C47.7671 23.2358 48.1936 22.9656 48.7623 22.9656C49.1889 22.9656 49.331 23.1007 49.331 23.3709V23.6412Z" fill="#232020"/>
<path d="M59.2827 22.6953H58.2875C58.2875 22.6953 58.2875 22.8304 58.4296 22.8304V22.9656V23.2358L58.0031 25.9382C58.0031 26.2071 57.8609 26.3436 57.7188 26.6138H58.8562C58.714 26.4774 58.714 26.3436 58.714 26.3436V26.0734L59.2827 22.6953Z" fill="#232020"/>
<path d="M56.0215 22.556C55.595 22.556 55.1684 22.6912 54.7419 22.9614L54.4576 23.2316C54.3154 23.0952 54.3154 22.9614 54.1732 22.8249C54.1732 22.8249 54.1732 22.6898 54.031 22.6898C53.8888 22.6898 53.7467 22.5547 53.4623 22.5547C53.0358 22.5547 52.7514 22.6898 52.3249 22.8236L52.0405 23.0938L52.1827 22.6885H51.1875C51.1875 22.8236 51.3296 22.9587 51.3296 23.0938V23.3641L50.9031 26.0665C50.9031 26.2016 50.9031 26.3368 50.7609 26.3368L50.6187 26.4719C50.6187 26.4719 50.6187 26.6083 50.4766 26.6083H51.614L51.4718 26.4746V26.3395V26.0692L51.7562 24.0424C51.7562 23.7721 51.8983 23.637 51.8983 23.637C51.8983 23.5005 52.0405 23.5005 52.1827 23.3668C52.4671 23.2316 52.7514 23.0965 53.0358 23.0965C53.4623 23.0965 53.7467 23.3668 53.7467 23.7721V24.3126L53.4623 25.6638L53.1779 26.7448H54.1732L54.031 26.6097V26.4746V26.2043L54.3154 24.1775C54.3154 23.9086 54.4576 23.6384 54.7419 23.3668C55.0263 23.2316 55.1684 23.0965 55.595 23.0965C55.7372 23.0965 56.0215 23.0965 56.1637 23.233C56.3059 23.3681 56.3059 23.5019 56.3059 23.7721V24.1775L56.0215 25.5287L55.8793 26.0692L55.7372 26.7448H56.8746C56.7324 26.6097 56.7324 26.4746 56.7324 26.3395V26.0692L57.1589 23.9073V23.3668C57.1589 23.0965 57.0168 22.9614 56.8746 22.8263C56.7324 22.6912 56.448 22.556 56.0215 22.556Z" fill="#232020"/>
<path d="M26.5858 21.6133L25.7328 21.8835L25.5906 22.6943H25.3062L25.1641 23.0996H25.5906L25.1641 25.6669V26.2074C25.1641 26.3439 25.1641 26.4777 25.3062 26.6141C25.4484 26.7479 25.5906 26.7479 25.875 26.7479C26.1593 26.7479 26.4437 26.6128 26.728 26.4777L26.8702 25.9385C26.728 26.0737 26.5858 26.2074 26.3015 26.2074C26.1593 26.2074 26.0171 26.0723 26.0171 25.9385V25.6683L26.4437 22.9659H27.0124L27.1546 22.5605H26.3015L26.5858 21.6133Z" fill="#232020"/>
<path d="M26.304 16.6155C30.0007 16.6155 33.8395 16.6155 37.5361 16.6155C40.3797 16.6155 41.8015 15.5345 42.3702 12.8321C42.5123 12.2916 42.5123 11.7511 42.6545 11.3444C43.2232 8.10279 43.792 4.85852 44.5028 1.48047H41.5171C41.3749 1.88583 41.3749 2.2912 41.2327 2.69657C40.664 5.93949 39.9531 9.31754 39.3844 12.5605C39.2423 13.5063 38.6735 14.317 37.6783 14.317C33.9817 14.317 30.285 14.317 26.7306 14.317C25.7353 14.317 25.3088 13.7779 25.451 12.8307C25.7353 11.343 26.0197 9.85803 26.304 8.50681C26.7306 6.20974 27.1571 3.91266 27.5836 1.48047H24.5979C24.4557 1.61559 24.4557 1.88584 24.4557 2.02096C23.887 5.399 23.3183 8.91217 22.6074 12.2902C21.7543 14.994 22.8918 16.4804 26.304 16.6155Z" fill="#232020"/>
<path d="M65.9766 25.1255C65.9766 25.262 65.9766 25.3958 65.9766 25.3958C65.9766 25.3958 65.9766 25.2607 65.9766 25.1255L66.1203 24.1797C65.9766 24.3148 65.9766 24.5851 65.9766 25.1255Z" fill="#232020"/>
<path d="M18.202 8.10144H5.69033C5.97468 6.47998 6.25904 5.12876 6.54339 3.64242C7.11211 3.64242 7.53864 3.64242 7.96518 3.64242C11.2353 3.64242 14.5054 3.64242 17.7755 3.64242C20.4769 3.64242 19.766 4.04779 20.1925 1.48047H3.98419C2.98894 6.47998 2.13587 11.4795 1.14062 16.6141H4.12637C4.5529 14.5873 4.83726 12.5605 5.26379 10.3985H17.7755C18.0598 9.58778 18.0598 8.91217 18.202 8.10144Z" fill="#232020"/>
<path d="M70.0892 16.6148H70.2314C71.2266 16.6148 71.9375 16.2095 72.6484 15.2636C73.928 13.9124 75.0654 12.4261 76.3465 11.0748C78.1948 8.9129 80.1853 6.75095 82.0336 4.589C82.318 5.12949 82.4601 5.53485 82.7445 5.94022C84.4506 9.18314 86.0146 12.5612 87.7207 15.8041C87.8629 16.073 88.288 16.6148 88.5738 16.6148C89.4283 16.75 90.4221 16.6148 91.4174 16.6148C91.2752 16.3446 91.133 16.0744 91.133 15.9392C88.8581 11.4802 86.5847 7.02119 84.3084 2.56217C83.5976 1.07583 82.0336 0.940706 80.8976 2.1568C76.9152 6.75095 72.7934 11.21 68.8125 15.8055C68.6703 16.0744 68.3859 16.3446 68.1016 16.6162C68.8096 16.6148 69.947 16.6148 70.0892 16.6148Z" fill="#232020"/>
<path d="M50.049 16.3423C52.3239 16.6125 54.4565 16.6125 56.7314 16.6125C58.5797 16.6125 60.2859 16.6125 62.1342 16.3423C63.556 16.2072 64.9777 15.5315 65.4043 14.0452C65.973 12.1549 66.2573 10.2618 66.6839 8.23496C65.973 8.23496 65.4043 8.23496 64.8355 8.23496C63.9825 8.09984 63.4138 8.37009 63.4138 9.31594C63.2716 10.2618 63.1294 11.3428 62.8451 12.2886C62.5607 13.7763 62.1342 14.1803 60.5702 14.1803C57.5845 14.1803 54.5987 14.1803 51.7552 14.1803C50.3334 14.1803 50.049 13.775 50.3334 12.4237C50.7599 10.2604 51.1864 7.96472 51.613 5.80277C52.0395 3.77594 52.3239 3.5057 54.5987 3.5057C58.1532 3.5057 61.7076 3.5057 65.2621 3.5057C67.5369 3.5057 67.5369 3.5057 67.6791 1.34375C67.5369 1.34375 67.2526 1.34375 67.1104 1.34375C62.8451 1.34375 58.7219 1.34375 54.4565 1.34375C53.3191 1.34375 52.3239 1.61399 51.3286 2.01936C49.9068 2.42472 49.196 3.5057 48.9116 4.85692C48.4851 7.42423 47.9164 9.99155 47.4898 12.694C46.9211 14.9911 47.632 16.072 50.049 16.3423Z" fill="#232020"/>
<path d="M22.3203 25.397C22.3203 25.397 22.3203 25.2619 22.3203 25.1268L22.6047 23.2364V23.1C22.6047 23.1 22.6047 23.1 22.6047 22.9648L22.3203 25.397Z" fill="#232020"/>
<path d="M29.1484 25.397C29.1484 25.397 29.1484 25.2619 29.1484 25.1268L29.4328 23.2364V23.1C29.4328 23.1 29.4328 23.1 29.4328 22.9648L29.1484 25.397Z" fill="#232020"/>
<path d="M24.5904 22.6953H23.5951C23.5951 22.8304 23.7373 22.9656 23.7373 23.1007V23.3709L23.4529 25.2626C23.4529 25.5315 23.3108 25.668 23.3108 25.668C23.3108 25.668 23.1686 25.8031 23.1686 25.9382C23.0264 26.0734 22.8842 26.0734 22.742 26.2071C22.5999 26.2071 22.4577 26.3436 22.1733 26.3436C21.6046 26.3436 21.3203 26.0734 21.3203 25.668V25.3977V25.1275L21.7468 22.6953H20.7516C20.8937 22.8304 20.8937 22.9656 20.8937 23.1007V23.3709L20.6094 25.3977C20.6094 25.5329 20.6094 25.668 20.6094 25.8031C20.6094 25.8031 20.6094 25.9396 20.6094 26.0734C20.6094 26.3436 20.7516 26.4787 20.8937 26.6138C21.1781 26.749 21.4624 26.8827 21.7468 26.8827C22.3155 26.8827 22.5999 26.7476 22.8842 26.4774L23.1686 26.2071L23.0264 26.749H24.1638C24.0217 26.6138 24.0217 26.4787 24.0217 26.4787V26.2085L24.5904 22.6953Z" fill="#232020"/>
<path d="M16.9181 20.2607H17.0602H17.2024C17.2024 20.2607 17.2024 20.2607 17.3446 20.2607H17.4868C17.629 20.2607 17.629 20.2607 17.7711 20.1242C17.9133 20.1242 18.0555 20.1242 18.1977 19.9891H18.3398L18.6242 19.854V19.5838V19.45C18.6242 19.3149 18.6242 19.3149 18.6242 19.1811C18.6242 18.9108 18.6242 18.7744 18.6242 18.5055C18.6242 18.2352 18.6242 17.965 18.6242 17.6934C18.6242 17.4218 18.6242 17.1543 18.6242 16.8827C18.6242 16.6111 18.6242 16.3422 18.6242 16.0706C18.6242 15.8017 18.6242 15.5314 18.6242 15.2599C18.6242 15.1247 18.6242 15.1247 18.6242 14.9896V14.8545C18.7664 14.8545 18.7664 14.718 18.9086 14.718C19.0507 14.5829 19.1929 14.4491 19.1929 14.3126C19.1929 14.0424 19.1929 13.9073 19.0507 13.637C18.9086 13.3668 18.6242 13.2344 18.3398 13.2344C18.1977 13.2344 18.0555 13.2344 17.9133 13.3695C17.7711 13.506 17.7711 13.506 17.629 13.6397C17.4868 13.91 17.4868 14.1802 17.4868 14.4518C17.4868 14.4518 17.4868 14.5869 17.629 14.5869C17.629 14.5869 17.629 14.5869 17.629 14.7221C17.629 14.7221 17.629 14.8585 17.4868 14.8585C17.3446 14.9937 17.2024 15.1288 17.0602 15.3977C16.9181 15.5341 16.9181 15.5342 16.7759 15.6679C16.7759 15.6679 16.7759 15.6679 16.6337 15.6679C16.4915 15.6679 16.4915 15.6679 16.3494 15.5328C16.2072 15.3963 16.2072 15.3963 16.2072 15.2626C16.2072 15.2626 16.2072 15.2626 16.2072 15.1274L16.065 14.991C16.065 14.8558 16.065 14.8558 15.9228 14.7207C15.9228 14.7207 16.065 14.5856 16.065 14.4518C16.065 14.3153 16.2072 14.1816 16.2072 14.0451C16.2072 13.91 16.2072 13.6397 16.065 13.6397C15.9228 13.5046 15.7806 13.3695 15.4963 13.3695C15.2119 13.3695 15.0698 13.3695 14.9276 13.506C14.7854 13.6411 14.6432 13.7762 14.501 14.0451C14.501 14.1816 14.501 14.1816 14.501 14.3153C14.501 14.4518 14.501 14.4518 14.6432 14.5856C14.6432 14.7207 14.7854 14.7207 14.9276 14.8558C14.9276 14.991 14.9276 14.991 14.9276 15.1261C14.9276 15.2612 14.7854 15.395 14.7854 15.5314C14.7854 15.6666 14.6432 15.6666 14.6432 15.8017C14.6432 15.8017 14.6432 15.8017 14.501 15.8017H14.3589C14.2167 15.8017 14.2167 15.6652 14.0745 15.5314C13.9323 15.395 13.7901 15.2612 13.648 15.1261C13.3636 14.8558 13.2214 14.7207 13.0793 14.5856C13.0793 14.4505 12.9371 14.4505 12.9371 14.3153V14.1802C12.9371 13.91 12.9371 13.7749 12.7949 13.5046C12.084 13.3695 11.9418 13.2344 11.6575 13.2344C11.5153 13.2344 11.3731 13.2344 11.2309 13.3695C11.2309 13.3695 11.2309 13.3695 11.0888 13.3695C10.9466 13.3695 10.9466 13.506 10.9466 13.506C10.8044 13.6411 10.8044 13.7762 10.6622 13.9113C10.6622 14.0465 10.6622 14.1816 10.6622 14.3167C10.6622 14.4532 10.8044 14.5869 10.9466 14.7221C11.0888 14.8558 11.0888 14.8558 11.2309 14.8558C11.2309 14.8558 11.2309 14.8558 11.2309 14.991C11.2309 15.1274 11.2309 15.1274 11.3731 15.2612C11.3731 15.5314 11.5153 15.6666 11.5153 15.8017C11.5153 16.2071 11.5153 16.4773 11.5153 16.7462C11.5153 16.8827 11.5153 16.8827 11.5153 17.0164C11.5153 17.1529 11.3731 17.1529 11.3731 17.1529C11.2309 17.1529 11.2309 17.1529 11.0888 17.1529H10.9466H10.8044C10.6622 17.1529 10.5201 17.0164 10.3779 17.0164C10.2357 17.0164 10.2357 16.8813 10.0935 16.8813C10.0935 16.7448 10.0935 16.6111 9.95134 16.476C9.95134 16.3422 9.95134 16.3422 9.95134 16.2071C9.95134 16.0719 9.80916 16.0719 9.80916 16.0719C9.66698 15.9368 9.5248 15.9368 9.38263 15.9368C9.24045 15.9368 8.95609 15.9368 8.81391 16.0719C8.52956 16.2071 8.38738 16.4773 8.38738 16.7475C8.38738 16.884 8.38738 17.1543 8.67173 17.288C8.81391 17.4232 8.95609 17.5583 9.09827 17.5583C9.24045 17.5583 9.24045 17.5583 9.38263 17.5583C9.38263 17.5583 9.38263 17.6934 9.5248 17.6934C9.5248 17.6934 9.5248 17.8299 9.66698 17.8299C9.66698 17.8299 9.66698 17.8299 9.66698 17.965C9.66698 17.965 9.66698 17.965 9.66698 18.1001V18.2339C9.66698 18.369 9.66698 18.369 9.66698 18.5041C9.66698 18.5041 9.66698 18.6393 9.5248 18.6393C9.5248 18.6393 9.38263 18.6393 9.38263 18.7744C9.38263 18.7744 9.38263 18.7744 9.24045 18.7744C8.95609 18.7744 8.81391 18.7744 8.67173 18.7744C8.52956 18.7744 8.2452 18.7744 8.10302 18.6393C8.10302 18.5041 7.96084 18.369 7.81867 18.2339C7.53431 18.0988 7.39213 18.0988 7.10778 18.0988C6.9656 18.0988 6.68124 18.2352 6.68124 18.5055C6.53906 18.6393 6.53906 18.7744 6.53906 19.0446C6.53906 19.1811 6.53906 19.3149 6.68124 19.45C6.82342 19.5851 6.9656 19.7202 7.24995 19.8553C7.39213 19.8553 7.53431 19.8553 7.67649 19.8553L7.96084 20.1256L8.2452 19.9905L8.38738 20.1256L8.52956 20.2607L8.67173 20.3958L8.81391 20.531L8.95609 20.6661L9.09827 20.8012L9.24045 20.9363L9.38263 21.0714L9.5248 21.2066C9.80916 21.3417 9.80916 21.4768 9.95134 21.4768L10.0935 21.6119L10.2357 21.7471L10.3779 21.8822L10.5201 22.0173L10.6622 22.1524L10.8044 22.2875C10.9466 22.2875 10.9466 22.4227 11.0888 22.4227L11.2309 22.5578L11.3731 22.6929C11.5153 22.828 11.6575 22.828 11.7997 22.828C11.7997 22.828 11.7997 22.828 11.9418 22.828C11.9418 22.828 11.9418 22.828 12.084 22.828L12.2262 22.6929C12.3684 22.5578 12.5105 22.5578 12.6527 22.4227C12.7949 22.2875 12.9371 22.2875 13.0793 22.1524L12.7949 22.0173C12.9371 21.8822 12.9371 21.8822 13.0793 21.8822C13.2214 21.8822 13.3636 21.7457 13.5058 21.7457C13.648 21.7457 13.648 21.6106 13.7901 21.6106C13.7901 21.6106 13.9323 21.4741 14.0745 21.4741H14.2167C14.3589 21.4741 14.501 21.339 14.501 21.339C14.6432 21.339 14.7854 21.2039 14.9276 21.2039L15.0698 21.0674H15.2119C15.3541 21.0674 15.4963 20.9323 15.6385 20.9323C15.6385 20.9323 15.6385 20.9323 15.7806 20.9323C15.9228 20.9323 15.9228 20.7958 16.065 20.7958H16.2072H16.3494H16.4915H16.6337H16.7759C16.7759 20.3958 16.7759 20.3958 16.9181 20.2607C16.9181 20.3958 16.9181 20.2607 16.9181 20.2607ZM16.7759 19.7202C16.6337 19.7202 16.7759 19.7202 16.7759 19.7202C16.6337 19.7202 16.6337 19.7202 16.6337 19.7202H16.4915H16.3494H16.2072H16.065H15.9228L15.6385 20.1256H15.4963C15.3541 20.1256 15.2119 20.2621 15.0698 20.2621H14.9276L14.7854 20.3972C14.6432 20.3972 14.501 20.5337 14.3589 20.5337C14.2167 20.5337 14.0745 20.6688 13.9323 20.6688H13.7901C13.648 20.6688 13.648 20.8039 13.5058 20.8039C13.3636 20.8039 13.3636 20.9404 13.2214 20.9404C13.0793 21.2066 12.9371 21.3417 12.7949 21.3417C12.6527 21.3417 12.6527 21.4768 12.5105 21.4768C12.5105 21.4768 12.3684 21.4768 12.3684 21.6133C12.2262 21.7484 12.084 21.7484 11.9418 21.8835C11.7997 22.0187 11.6575 22.0187 11.5153 22.1524C11.3731 22.1524 11.3731 22.0173 11.2309 22.0173L11.0888 21.8822L10.9466 21.7471L10.8044 21.6119L10.6622 21.4768L10.5201 21.3417L10.3779 21.2066C10.2357 21.0714 10.2357 21.0714 10.0935 20.9363L9.95134 20.8012L9.80916 20.6661L9.66698 20.531L9.5248 20.3958L9.38263 20.2607L9.09827 19.9905L8.95609 19.8553L8.81391 19.7202L8.67173 19.5851L8.52956 19.45L8.38738 19.3149C8.52956 19.3149 8.67173 19.3149 8.81391 19.3149C8.95609 19.3149 9.24045 19.3149 9.38263 19.3149C9.5248 19.3149 9.66698 19.3149 9.66698 19.3149C9.66698 19.3149 9.66698 19.3149 9.80916 19.3149C9.95134 19.3149 9.95134 19.1797 10.0935 19.1797C10.2357 19.0446 10.3779 18.9095 10.3779 18.6393C10.3779 18.5041 10.3779 18.2339 10.3779 18.2339V18.0988C10.3779 18.0988 10.3779 18.0988 10.3779 17.9636V17.8285C10.3779 17.8285 10.3779 17.8285 10.3779 17.692C10.3779 17.5569 10.3779 17.5569 10.2357 17.4218H10.3779C10.5201 17.5583 10.8044 17.5583 10.9466 17.5583C10.9466 17.5583 10.9466 17.5583 11.0888 17.5583H11.2309C11.5153 17.5583 11.6575 17.5583 11.7997 17.5583C11.9418 17.4232 12.084 17.288 12.2262 17.1529C12.2262 17.0164 12.3684 16.8827 12.3684 16.7462C12.3684 16.4773 12.3684 16.0706 12.3684 15.6652C12.3684 15.395 12.3684 15.2599 12.2262 15.1261C12.2262 14.9896 12.2262 14.9896 12.2262 14.8558C12.2262 14.8558 12.2262 14.991 12.3684 14.991C12.5105 15.1274 12.6527 15.3963 12.9371 15.6666C12.7949 15.9368 12.9371 16.0719 13.0793 16.2071C13.2214 16.3422 13.3636 16.4773 13.648 16.4773C13.7901 16.4773 13.9323 16.6124 14.2167 16.4773H14.3589C14.501 16.4773 14.501 16.3408 14.6432 16.3408C14.7854 16.2057 14.9276 16.0706 14.9276 15.9355C14.9276 15.8003 15.0698 15.6652 15.0698 15.5301C15.0698 15.3936 15.0698 15.3936 15.2119 15.2599C15.2119 15.2599 15.2119 15.395 15.3541 15.395C15.3541 15.5314 15.4963 15.5314 15.4963 15.6652C15.4963 15.6652 15.4963 15.6652 15.4963 15.8017C15.6385 15.9368 15.6385 16.0719 15.7806 16.2071C15.9228 16.3422 16.2072 16.4773 16.4915 16.4773C16.6337 16.4773 16.7759 16.4773 16.7759 16.4773C17.0602 16.3408 17.2024 16.2071 17.2024 16.0706C17.3446 15.8017 17.629 15.6652 17.629 15.395C17.629 15.395 17.629 15.2599 17.7711 15.2599C17.7711 15.395 17.7711 15.5301 17.7711 15.5301C17.7711 15.8003 17.7711 16.0692 17.7711 16.3408C17.7711 16.6124 17.7711 16.8813 17.7711 17.1529C17.7711 17.4218 17.7711 17.692 17.7711 18.0974C17.7711 18.3677 17.7711 18.6379 17.7711 18.9095C17.7711 19.1811 17.7711 19.3149 17.7711 19.5851V19.7202C17.629 19.7202 17.4868 19.7202 17.4868 19.8567C17.3446 19.8567 17.2024 19.8567 17.2024 19.9918H17.0602C17.0602 19.9918 17.0602 19.9918 16.9181 19.9918C16.9181 19.9918 16.9181 19.9918 16.7759 19.9918C16.9181 19.7202 16.7759 19.7202 16.7759 19.7202Z" fill="#232020"/>
<path d="M17.35 22.1547C17.35 22.2912 17.35 22.2912 17.35 22.4249V22.5601L17.0656 26.0732C17.0656 26.2084 17.0656 26.3435 16.9234 26.4786L16.7812 26.7488H18.0609L17.9187 26.4786C17.9187 26.3435 17.9187 26.3435 17.9187 26.2084V26.0732L18.0609 24.4518H18.6296C18.9139 24.4518 19.0561 24.4518 19.1983 24.5882C19.3405 24.5882 19.4826 24.7234 19.4826 24.8571L19.6248 23.7762L19.4826 23.9113C19.4826 23.9113 19.3405 24.0464 19.1983 24.0464L18.9139 24.1815H18.4874H17.9187L18.0609 22.5614H18.7717C19.0561 22.5614 19.3405 22.5614 19.4826 22.6965C19.6248 22.8317 19.767 22.9668 19.9092 23.1019L20.0513 22.2912H17.0656C17.35 22.0196 17.35 22.1547 17.35 22.1547Z" fill="#232020"/>
<path d="M77.4826 22.5625C77.1983 22.5625 76.9139 22.5625 76.4874 22.6976C76.203 22.8327 75.9201 22.9679 75.6343 23.103C75.0656 23.5084 74.7812 24.0488 74.7812 24.5893V24.8596C74.7812 25.4001 74.9249 25.8054 75.35 26.2108C75.6343 26.481 76.203 26.7513 76.7717 26.7513C77.4826 26.7513 78.0513 26.481 78.6201 26.0757C79.1888 25.6703 79.3309 24.9947 79.3309 24.3191C79.3309 23.7786 79.1888 23.3732 78.7637 23.103C78.4779 22.6976 77.9092 22.5625 77.4826 22.5625ZM77.9092 25.9405C77.6248 26.3459 77.1983 26.481 76.7717 26.481C76.4874 26.481 76.203 26.3459 76.0609 26.2108C75.9187 25.9405 75.7765 25.6703 75.6343 25.2649V24.9947C75.6343 24.3191 75.7765 23.9137 76.0609 23.507C76.3452 23.1016 76.7717 22.8314 77.1983 22.8314C77.6248 22.8314 77.767 22.9679 78.0513 23.2381C78.1935 23.5084 78.3357 23.9137 78.3357 24.3191C78.4779 24.9947 78.1935 25.5352 77.9092 25.9405Z" fill="#232020"/>
<path d="M92.7014 22.5625C92.417 22.5625 92.1327 22.5625 91.7061 22.6976C91.4218 22.8327 91.1374 22.9679 90.8531 23.103C90.2844 23.5084 90 24.0488 90 24.5893V24.8596C90 25.4001 90.1436 25.8054 90.5687 26.2108C90.8531 26.481 91.4218 26.7513 91.9905 26.7513C92.7014 26.7513 93.2687 26.481 93.8388 26.0757C94.4075 25.5352 94.5497 24.9947 94.5497 24.3191C94.5497 23.7786 94.4075 23.3732 93.981 23.103C93.6966 22.6976 93.2701 22.5625 92.7014 22.5625ZM93.2701 25.9405C92.9857 26.3459 92.5592 26.481 92.1327 26.481C91.8483 26.481 91.5654 26.3459 91.4218 26.2108C91.2796 25.9405 91.1374 25.6703 90.9952 25.2649V24.9947C90.9952 24.3191 91.1374 23.9137 91.4218 23.507C91.7061 23.1016 92.1327 22.8314 92.5592 22.8314C92.9872 22.8314 93.1279 22.9679 93.4137 23.2381C93.5559 23.507 93.6981 23.9137 93.6981 24.3191C93.6966 24.9947 93.5544 25.5352 93.2701 25.9405Z" fill="#232020"/>
<path d="M97.2531 24.0469C97.2531 24.182 97.2531 24.182 97.2531 24.3171L96.9688 26.0737V25.9386C96.9688 25.8021 97.1109 25.5319 97.1109 25.3981L97.2531 24.0469Z" fill="#232020"/>
<path d="M92.7031 23.7734C92.5595 23.7734 92.4187 23.7734 92.2765 24.0437C92.133 24.3139 91.9922 24.5842 91.9922 24.9895V25.1247C91.9922 25.2611 91.9922 25.3949 92.1344 25.53C92.278 25.53 92.4187 25.53 92.5609 25.2611C92.7045 24.9909 92.8453 24.7206 92.8453 24.3153C92.8453 24.0437 92.7031 23.7734 92.7031 23.7734Z" fill="#232020"/>
<path d="M97.8215 22.5625C97.395 22.5625 96.9685 22.6976 96.6841 22.9679L96.3998 23.103L96.5419 22.6976H95.5467C95.5467 22.8327 95.6889 22.9679 95.6889 23.103V23.3732L95.2623 26.0757C95.2623 26.2108 95.2623 26.3459 95.1202 26.481C95.1202 26.481 94.9766 26.6175 94.9766 26.7513H96.114C95.9718 26.6162 95.9718 26.481 95.9718 26.481V26.2108L96.2562 24.3204C96.2562 24.0502 96.3983 23.9151 96.3983 23.78C96.3983 23.6448 96.5419 23.5097 96.6827 23.5097L96.8249 23.3746L97.1092 23.2395H97.3936H97.6779C98.1045 23.2395 98.3888 23.3746 98.3888 23.9151V24.3204L98.1045 25.6717C98.1045 25.9419 97.9623 26.077 97.9623 26.3473L97.8215 26.8864H98.8168L98.6746 26.7513V26.6162V26.3459L99.1011 24.1826V23.7772C99.1011 23.507 98.9575 23.3719 98.8168 23.2381C98.5324 22.6976 98.2481 22.5625 97.8215 22.5625Z" fill="#232020"/>
<path d="M89.5687 20.9375C89.4265 20.9375 89.2844 20.9375 89.1422 21.0726C89 21.2077 89 21.3429 89 21.478C89 21.6145 89 21.7482 89.1436 21.7482C89.2858 21.8847 89.2858 21.8847 89.428 21.8847C89.5701 21.8847 89.5701 21.8847 89.7109 21.8847C89.7109 21.8847 89.8545 21.8847 89.8545 21.7482C89.9967 21.6131 89.9967 21.478 89.9967 21.3429C89.9967 21.2077 89.9967 21.0726 89.8545 20.9375C89.8531 20.9375 89.7109 20.9375 89.5687 20.9375Z" fill="#232020"/>
<path d="M89.7124 22.6953H88.7172C88.7172 22.6953 88.7171 22.8304 88.8593 22.8304V22.9656V23.2358L88.4328 25.9382C88.4328 26.2071 88.2892 26.3436 88.1484 26.6138H89.428C89.2859 26.4787 89.2859 26.3436 89.2859 26.3436V26.0734L89.7124 22.6953Z" fill="#232020"/>
<path d="M137.203 1.48193C133.222 1.34681 129.241 1.48193 125.26 1.48193C122.701 1.48193 120.852 2.5629 120.427 4.45461C119.716 7.42729 119.148 10.5351 118.721 13.6429C118.579 14.9941 119.29 15.94 120.569 16.3453C121.28 16.6156 121.991 16.6156 122.846 16.7507C124.694 16.7507 126.542 16.7507 128.389 16.7507C130.38 16.7507 132.228 16.7507 134.22 16.7507C137.206 16.7507 139.053 15.3995 139.479 12.8335C139.904 10.5351 140.331 8.1029 140.757 5.67071C141.326 2.83315 140.189 1.48193 137.203 1.48193ZM137.772 5.26534C137.345 7.69754 136.918 10.2649 136.492 12.697C136.35 13.778 135.497 14.1834 134.359 14.1834C132.511 14.1834 130.663 14.1834 128.814 14.1834C126.966 14.1834 125.118 14.1834 123.412 14.1834C122.133 14.1834 121.705 13.6429 121.848 12.5619C122.274 10.1297 122.843 7.69754 123.269 5.26534C123.412 4.04925 124.265 3.64388 125.402 3.64388C129.099 3.64388 132.795 3.64388 136.492 3.64388C137.629 3.64388 138.056 4.04925 137.772 5.26534Z" fill="#232020"/>
<path d="M87.0078 25.9369V25.6667L87.4343 22.9643H88.1452L88.2874 22.5589H87.4343L87.5765 21.4766L86.7234 21.7482L86.8656 22.694H86.5812L86.4391 23.0994H86.7234L86.2969 25.6667V26.2072C86.2969 26.3437 86.2969 26.4774 86.4391 26.6139C86.5812 26.7477 86.7234 26.7477 87.0078 26.7477C87.2921 26.7477 87.575 26.6125 87.8608 26.4774L88.003 25.9369C87.8608 26.0721 87.7186 26.2072 87.4343 26.2072C87.1499 26.3423 87.0078 26.2072 87.0078 25.9369Z" fill="#232020"/>
<path d="M101.947 22.6953C101.803 22.6953 101.803 22.6953 101.662 22.6953H101.52C101.094 22.6953 100.667 22.8304 100.383 23.1007C100.1 23.3709 99.9562 23.6412 99.9562 24.0465C99.9562 24.1817 100.1 24.4519 100.241 24.587C100.383 24.7221 100.667 24.8559 100.951 25.1262L101.378 25.3964L101.522 25.5315C101.664 25.668 101.664 25.8018 101.664 25.9382C101.664 26.2071 101.522 26.3436 101.379 26.4774C101.236 26.6138 101.094 26.749 100.809 26.749C100.525 26.749 100.381 26.6138 100.241 26.4787C100.098 26.3436 99.9562 26.0734 99.8141 25.8031L99.6719 26.749C99.9562 26.8841 100.1 27.0192 100.383 27.0192C100.526 27.0192 100.667 27.0192 100.811 27.0192C101.237 27.0192 101.664 26.8827 102.089 26.6138C102.373 26.3436 102.658 25.9382 102.658 25.5315C102.658 25.3964 102.658 25.1262 102.514 24.9924C102.373 24.8573 102.231 24.7221 101.947 24.587L101.662 24.4519C101.52 24.3168 101.378 24.1817 101.236 24.1817C101.094 24.0465 101.094 24.0465 101.094 23.9114C101.094 23.7749 101.237 23.5047 101.378 23.3709C101.522 23.2358 101.805 23.1007 101.947 23.1007C102.231 23.1007 102.373 23.2372 102.514 23.3709C102.658 23.506 102.658 23.6412 102.798 23.7763L102.942 22.9656C102.373 22.6953 102.231 22.6953 102.231 22.6953C102.089 22.6953 102.089 22.6953 101.947 22.6953Z" fill="#232020"/>
<path d="M100.804 1.47887C97.5327 1.61399 95.9702 3.23546 95.6844 6.34326C95.5423 7.8296 96.2531 8.91057 97.8171 9.31594C98.528 9.45106 99.2389 9.58618 99.9498 9.58618C102.937 9.58618 105.781 9.58618 108.765 9.58618C111.466 9.58618 111.608 9.85643 111.182 12.2886C110.897 13.9101 110.471 14.3154 108.623 14.3154C104.925 14.3154 101.229 14.3154 97.5313 14.3154H94.8328C94.6906 15.1262 94.5484 15.9369 94.4062 16.6125C94.5484 16.6125 96.2546 16.6125 98.8138 16.6125C101.089 16.6125 104.074 16.6125 106.491 16.6125C107.202 16.6125 107.913 16.6125 108.48 16.6125C108.765 16.6125 108.907 16.6125 109.191 16.6125C112.179 16.4774 113.741 15.1262 114.168 12.2886C114.168 12.0184 114.311 11.7495 114.311 11.4779C114.738 8.91058 113.742 7.55936 111.04 7.42423C107.629 7.28911 104.359 7.28911 100.946 7.28911C98.9559 7.28911 98.3872 6.74862 99.0981 4.85692C99.3825 3.77594 100.376 3.64082 101.373 3.64082C105.354 3.64082 109.193 3.64082 113.174 3.64082C115.306 3.64082 115.306 3.5057 115.164 1.34375C110.33 1.34375 105.638 1.34375 100.804 1.47887Z" fill="#232020"/>
<path d="M83.6023 25.397C83.6023 25.397 83.6023 25.2619 83.6023 25.1268L83.8866 23.2351V23.1C83.8866 23.1 83.8866 23.1 83.8866 22.9648L83.6023 25.397C83.6023 25.397 83.4601 25.397 83.6023 25.397Z" fill="#232020"/>
<path d="M73.7904 22.0218L73.3639 21.8867C73.2217 21.8867 73.081 21.8867 72.9374 21.8867C72.5108 21.8867 72.0843 22.0218 71.7999 22.2921C71.5156 22.5623 71.3734 22.8312 71.3734 23.2379C71.3734 23.5068 71.3734 23.6433 71.5156 23.9135C71.6578 24.0487 71.9421 24.3189 72.2265 24.5892L72.653 24.8581L72.7952 24.9945L72.9374 25.1296C73.0795 25.2648 73.0795 25.3999 73.0795 25.6701C73.0795 25.9404 72.9374 26.2106 72.7952 26.3457C72.6516 26.4809 72.3686 26.616 72.0843 26.616C71.7999 26.616 71.5156 26.4795 71.3734 26.3457C71.2312 26.2093 71.2312 26.2093 71.2312 26.0755C71.2312 26.0755 71.2312 25.9404 71.089 25.9404C71.089 25.9404 71.089 25.8039 70.9469 25.6701L70.8047 26.616L71.2312 26.7511L71.6578 26.8862C71.7999 26.8862 71.9421 26.8862 72.2265 26.8862C72.7952 26.8862 73.2217 26.7511 73.5061 26.4809C73.9326 26.2106 74.0748 25.8053 74.0748 25.3999C74.0748 25.2648 74.0748 24.9945 73.9326 24.8594C73.7904 24.7243 73.6482 24.454 73.3639 24.3203L72.9374 24.0487C72.653 23.9135 72.5108 23.6433 72.3701 23.5082C72.2265 23.3731 72.2265 23.2379 72.2265 23.1028C72.2265 22.8326 72.3701 22.6975 72.5108 22.5637C72.653 22.4272 72.7952 22.4272 73.0795 22.4272C73.6482 22.4272 73.9326 22.6975 74.0748 23.2379L74.217 22.157C74.0734 22.157 74.0734 22.157 74.0734 22.157H73.7904V22.0218Z" fill="#232020"/>
<path d="M77.3437 23.7734C77.2001 23.7734 77.0593 23.7734 76.9157 24.0437C76.775 24.3139 76.6328 24.5842 76.6328 24.9895V25.1247C76.6328 25.2611 76.6328 25.3949 76.775 25.53C76.9172 25.53 77.0593 25.53 77.2015 25.2611C77.3451 24.9909 77.4859 24.7206 77.4859 24.3153C77.4859 24.0437 77.3437 23.7734 77.3437 23.7734Z" fill="#232020"/>
<path d="M84.8779 23.1007V23.3709L84.5936 25.2626C84.5936 25.5315 84.4514 25.668 84.4514 25.668C84.4514 25.668 84.3092 25.8031 84.3092 25.9382C84.167 26.0734 84.0249 26.0734 83.8827 26.2071C83.7405 26.2071 83.5983 26.3436 83.314 26.3436C82.7467 26.3436 82.4609 26.0734 82.4609 25.668V25.3977V25.1275L82.8874 22.6953H81.8922C82.0358 22.8304 82.0358 22.9656 82.0358 23.1007V23.3709L81.75 25.3977C81.75 25.5329 81.75 25.668 81.75 25.8031C81.75 25.8031 81.75 25.9396 81.75 26.0734C81.75 26.3436 81.8922 26.4787 82.0344 26.6138C82.3187 26.749 82.6031 26.8841 82.8874 26.8841C83.4561 26.8841 83.7419 26.749 84.0248 26.4787L84.3092 26.2085L84.167 26.749H85.3045C85.1623 26.6138 85.1623 26.4787 85.1623 26.4787V26.2085L85.7296 22.8304H84.7343C84.8779 22.8304 84.8779 22.9656 84.8779 23.1007Z" fill="#232020"/>
<path d="M67.3888 22.6953C67.2467 22.6953 66.9623 22.6953 66.8201 22.6953C65.9671 22.6953 65.3983 22.9656 64.8296 23.3709C64.2609 23.7763 64.1187 24.4519 64.1187 25.2626C64.1187 25.668 64.2609 26.0734 64.5453 26.3436C64.8296 26.6138 65.114 26.749 65.5405 26.749C65.9671 26.749 66.3936 26.6138 66.678 26.3436L66.9623 26.0734L66.678 27.2895C66.678 27.6948 66.3936 27.9651 66.2514 28.234C65.9671 28.5056 65.6827 28.6407 65.3983 28.6407C64.9718 28.6407 64.6875 28.3704 64.6875 27.8286L63.9766 28.3704C64.1187 28.5056 64.2609 28.6407 64.4031 28.7758C64.4031 28.7758 64.5453 28.7758 64.5453 28.9109C64.5453 28.9109 64.6875 28.9109 64.8296 29.0474C64.9718 29.0474 65.2562 29.1825 65.3983 29.1825C65.9671 29.1825 66.3936 29.0474 66.8201 28.6434C67.2467 28.2367 67.531 27.6975 67.531 27.1557L68.0997 23.7776L68.2419 23.3723L68.3841 23.102H68.0997L67.3888 22.6953ZM67.2467 23.6412L66.9623 25.1275C66.9623 25.3977 66.8201 25.5329 66.8201 25.668C66.8201 25.8031 66.678 25.8031 66.5358 25.9382C66.2514 26.2071 65.9671 26.3436 65.6827 26.3436C65.3983 26.3436 65.114 26.2071 64.9718 26.0734C64.8296 25.9382 64.6875 25.5329 64.6875 25.1275C64.6875 24.5884 64.8296 24.0465 65.2562 23.6412C65.6827 23.2358 65.9671 22.9656 66.5358 22.9656C66.9623 22.9656 67.1045 23.1007 67.1045 23.5047L67.2467 23.6412Z" fill="#232020"/>
<path d="M72.087 25.3964C72.087 25.3964 72.087 25.5311 72.087 25.3964C72.087 25.5311 72.087 25.5311 72.087 25.3964C72.2287 25.5311 72.2287 25.5311 72.2287 25.3964H72.087L71.9453 25.2617C71.9453 25.2617 72.087 25.2617 72.087 25.3964Z" fill="#232020"/>
<path d="M81.4671 20.3984H80.4718C80.4718 20.5349 80.4718 20.5349 80.6154 20.6687V20.8038V21.074L79.7609 25.9384C79.7609 26.0736 79.6187 26.2073 79.6187 26.3438C79.6187 26.4789 79.4766 26.4789 79.4766 26.614H80.614C80.614 26.4776 80.4704 26.3438 80.4704 26.3438V26.0736L81.4671 20.3984Z" fill="#232020"/>
<path d="M136.35 3.64062C132.652 3.64062 128.957 3.64062 125.259 3.64062C124.122 3.64062 123.411 4.18111 123.126 5.26209C122.7 7.69428 122.133 10.1265 121.705 12.5587C121.562 13.7748 121.848 14.1801 123.27 14.1801C125.118 14.1801 126.967 14.1801 128.673 14.1801C130.521 14.1801 132.369 14.1801 134.218 14.1801C135.355 14.1801 136.066 13.7748 136.35 12.6924C136.777 10.2602 137.203 7.69293 137.629 5.26074C138.056 4.04599 137.63 3.64062 136.35 3.64062ZM136.919 5.12697C136.493 7.42404 136.066 9.85623 135.641 12.5587C135.497 13.0992 135.357 13.3694 134.502 13.3694C133.224 13.3694 131.943 13.3694 130.521 13.3694H128.815C128.248 13.3694 127.677 13.3694 127.11 13.3694C125.831 13.3694 124.55 13.3694 123.271 13.3694C122.845 13.3694 122.703 13.3694 122.703 13.2343C122.703 13.2343 122.703 13.0992 122.703 12.6938C122.846 11.6128 123.129 10.5318 123.271 9.45222C123.556 8.101 123.839 6.74978 123.982 5.39856C124.124 4.72295 124.409 4.45271 125.12 4.45271H126.684C129.812 4.45271 132.939 4.45271 136.069 4.45271C136.353 4.45271 136.636 4.45271 136.636 4.45271C136.919 4.7216 136.919 4.85672 136.919 5.12697Z" fill="#DCDCDC"/>
<path d="M141.034 1.88615C140.323 1.07542 139.044 0.534935 137.195 0.534935C133.783 0.399813 129.944 0.399813 125.252 0.534935C122.126 0.534935 119.993 1.88615 119.565 4.18323C118.854 7.42615 118.287 10.6691 117.86 13.5066C117.576 15.1281 118.571 16.6144 120.42 17.1549C121.273 17.4238 122.126 17.5603 122.837 17.5603C124.115 17.5603 125.537 17.5603 126.818 17.5603C127.955 17.5603 129.093 17.5603 130.229 17.5603C130.797 17.5603 131.367 17.5603 132.078 17.5603C132.789 17.5603 133.642 17.5603 134.353 17.5603C137.765 17.5603 139.898 15.8037 140.467 12.9661C141.036 10.1286 141.462 7.96664 141.746 5.80469C142.029 4.0481 141.745 2.83201 141.034 1.88615ZM140.892 5.66957C140.465 8.10176 140.039 10.3988 139.614 12.831C139.186 15.3983 137.337 16.6144 134.352 16.7496C132.361 16.7496 130.513 16.7496 128.522 16.7496C126.673 16.7496 124.824 16.7496 122.977 16.7496C122.267 16.7496 121.414 16.6144 120.703 16.3442C119.423 15.9388 118.57 14.993 118.853 13.6418C119.281 10.534 119.848 7.42615 120.559 4.45347C120.986 2.56176 122.835 1.48079 125.393 1.48079C129.374 1.48079 133.355 1.34567 137.335 1.48079C140.181 1.48079 141.318 2.83201 140.892 5.66957Z" fill="#DCDCDC"/>
<path d="M116.014 0.535156H115.161C113.739 0.535156 112.318 0.535156 110.896 0.535156C107.626 0.535156 104.213 0.535156 100.801 0.535156C97.103 0.670278 95.1139 2.56198 94.8296 6.21028C94.686 8.2371 95.6827 9.58833 97.6731 10.1288C98.384 10.2639 99.2371 10.3991 100.09 10.3991C102.223 10.3991 104.356 10.3991 106.488 10.3991C107.341 10.3991 108.052 10.3991 108.904 10.3991C109.188 10.3991 110.183 10.3991 110.469 10.5342C110.469 10.8044 110.326 11.7503 110.326 12.0205C110.183 12.6961 110.043 12.9664 109.899 13.1028C109.758 13.2366 109.332 13.2366 108.621 13.2366C106.06 13.2366 103.36 13.2366 100.801 13.2366C99.6622 13.2366 98.6684 13.2366 97.5296 13.2366H94.1187L93.4078 16.8849L93.2656 17.2903C94.1201 17.2903 94.6874 17.2903 94.831 17.2903C96.1092 17.2903 97.531 17.2903 98.812 17.2903C100.376 17.2903 101.94 17.2903 103.504 17.2903C105.352 17.2903 107.202 17.2903 109.049 17.2903C112.46 17.1552 114.452 15.5337 115.02 12.2908C115.02 12.1556 115.02 12.0205 115.02 11.8854C115.02 11.7503 115.02 11.6152 115.163 11.48C115.447 9.85857 115.305 8.64247 114.452 7.83174C113.741 7.02101 112.603 6.48052 111.039 6.48052C108.621 6.48052 106.204 6.48052 103.787 6.48052C102.792 6.48052 101.939 6.48052 100.943 6.48052C99.948 6.48052 99.8058 6.3454 99.8058 6.3454C99.8058 6.3454 99.6622 6.07515 99.948 5.26442C100.092 4.85906 100.232 4.72394 101.228 4.72394C104.213 4.72394 107.199 4.72394 110.185 4.72394H113.028C114.024 4.72394 115.019 4.72394 115.588 4.18345C116.156 3.64296 116.156 2.69711 116.014 1.61613V0.535156ZM113.028 3.64296C109.047 3.64296 105.209 3.64296 101.228 3.64296C100.232 3.64296 99.3793 3.77808 98.9513 4.85906C98.384 6.61564 98.8092 7.29125 100.801 7.29125C104.212 7.29125 107.626 7.29125 110.896 7.42637C113.597 7.5615 114.592 8.91272 114.166 11.48C114.166 11.7503 114.024 12.0192 114.024 12.2908C113.597 15.1297 112.033 16.4809 109.047 16.6147C108.763 16.6147 108.621 16.6147 108.337 16.6147C107.626 16.6147 106.915 16.6147 106.346 16.6147C103.929 16.6147 101.085 16.6147 98.6698 16.6147C96.2528 16.6147 94.4045 16.6147 94.2609 16.6147C94.4045 15.9391 94.5452 15.1283 94.6874 14.3176H97.3888C101.085 14.3176 104.782 14.3176 108.479 14.3176C110.185 14.3176 110.755 13.9122 111.038 12.2908C111.466 9.85857 111.322 9.58832 108.622 9.58832C105.779 9.58832 102.792 9.58832 99.8072 9.58832C99.0964 9.58832 98.3855 9.4532 97.6746 9.31808C96.1092 8.91271 95.3983 7.83174 95.5405 6.3454C95.8248 3.23759 97.3888 1.48101 100.659 1.48101C105.351 1.34589 110.185 1.48101 115.02 1.48101C115.303 3.50784 115.161 3.64296 113.028 3.64296Z" fill="#DCDCDC"/>
<path d="M50.0387 17.2903C52.0292 17.4254 53.8775 17.5605 55.868 17.5605C56.1523 17.5605 56.2945 17.5605 56.5789 17.5605H56.8632C58.4272 17.5605 60.4177 17.5605 62.4082 17.2903C64.5408 17.02 66.1048 16.0742 66.5313 14.4527C66.9579 13.1015 67.1 11.8854 67.3844 10.3991C67.5266 9.85857 67.6688 9.18296 67.8109 8.50735L68.0953 7.42637H66.9579C66.8157 7.42637 65.6783 7.42637 64.8252 7.42637C64.683 7.42637 64.3987 7.42637 64.1143 7.56149C63.8299 7.69661 63.5456 7.69662 63.4034 7.96686C62.9769 8.37223 62.6925 8.77759 62.6925 9.58832C62.6925 10.2639 62.5503 10.9395 62.4082 11.6151C62.4082 11.8854 62.266 12.1556 62.266 12.4272C62.266 12.6961 62.1238 13.238 61.9816 13.3717C61.8395 13.5069 61.5551 13.5069 60.9864 13.5069C58.0006 13.5069 55.0149 13.5069 52.1713 13.5069C51.7448 13.5069 51.6026 13.5069 51.6026 13.5069C51.6026 13.3704 51.6026 13.2366 51.6026 12.8312C52.0292 10.6693 52.4557 8.37222 52.8822 6.21027C53.0244 5.66979 53.1666 4.99418 53.3088 4.85906C53.5931 4.72393 54.304 4.72393 54.8727 4.72393C57.2898 4.72393 59.849 4.72393 62.266 4.72393H65.5361C66.8157 4.72393 67.6688 4.72393 68.2375 4.18345C68.8062 3.64296 68.8062 2.96735 68.9484 1.61613L69.0905 0.535156C68.0953 0.535156 67.5266 0.535156 67.3844 0.535156C66.3892 0.535156 65.2517 0.535156 64.2565 0.535156C61.1286 0.535156 57.8585 0.535156 54.7305 0.535156C53.4509 0.535156 52.1713 0.940522 51.3183 1.21077C49.6121 1.75125 48.6169 2.96735 48.3325 4.72393C48.0482 6.61564 47.6216 8.50735 47.3373 10.3991C47.1951 11.0747 47.0529 11.7503 46.9107 12.4259C46.6264 13.9122 46.7686 14.9918 47.4795 15.8039C47.4795 16.6147 48.4747 17.1551 50.0387 17.2903ZM47.3373 12.6961C47.7638 10.1302 48.3325 7.56149 48.7591 4.85906C49.0434 3.50784 49.7543 2.42686 51.1761 2.0215C52.1713 1.75125 53.3088 1.34589 54.304 1.34589C58.5694 1.21076 62.6925 1.34589 66.9579 1.34589C67.1 1.34589 67.3844 1.34589 67.5266 1.34589C67.3844 3.50784 67.3844 3.50784 65.1096 3.50784C61.5551 3.50784 58.0006 3.50784 54.4462 3.50784C52.3135 3.50784 51.887 3.77808 51.4604 5.80491C51.0339 7.96686 50.6074 10.2639 50.1808 12.4259C49.8965 13.6406 50.1808 14.1825 51.6026 14.1825C54.5884 14.1825 57.5741 14.1825 60.4177 14.1825C61.9816 14.1825 62.4082 13.7771 62.6925 12.2908C62.8347 11.3449 63.1191 10.2639 63.2612 9.31808C63.2612 8.37223 63.8299 8.10198 64.683 8.2371C65.2517 8.2371 65.8204 8.2371 66.5313 8.2371C66.1048 10.2639 65.8204 12.1556 65.2517 14.0473C64.8252 15.535 63.4034 16.0742 61.9816 16.3444C60.1333 16.6147 58.4272 16.6147 56.5789 16.6147C54.304 16.6147 52.1713 16.6147 49.8965 16.3444C47.6216 16.0742 46.9107 14.9932 47.3373 12.6961Z" fill="#DCDCDC"/>
<path d="M22.0386 15.9395C22.8917 16.8854 24.3135 17.4259 26.304 17.4259C28.0101 17.4259 29.5741 17.4259 31.2802 17.4259C33.1285 17.4259 34.8346 17.4259 36.683 17.4259H37.6782C40.9483 17.4259 42.6544 16.0746 43.3653 12.9668C43.5075 12.5615 43.5075 12.021 43.6497 11.6156V11.3454C44.0762 8.91318 44.5028 6.48099 44.9293 4.05014L45.6402 0.401853H40.8061L40.664 1.07611C40.664 1.21123 40.6639 1.34636 40.5218 1.48148C40.5218 1.75172 40.3796 2.02196 40.3796 2.29221L39.9531 4.18391C39.5265 6.75123 38.9578 9.58879 38.5313 12.1561C38.3891 13.102 37.9626 13.102 37.6782 13.102C34.1238 13.102 30.4271 13.102 26.7305 13.102C26.4461 13.102 26.304 13.102 26.304 12.9655C26.304 12.9655 26.304 12.8304 26.304 12.5601C26.5883 11.2089 26.8727 9.72256 27.157 8.23622C27.4414 6.61476 27.7257 4.9933 28.0101 3.37183C28.1523 2.69622 28.2944 2.02061 28.4366 1.20988L28.5788 0.128906H23.6026L23.3182 1.345C23.176 2.42598 22.8917 3.50695 22.7495 4.58793C22.323 6.885 21.8964 9.31719 21.3277 11.6143C21.0434 13.6424 21.3277 14.9937 22.0386 15.9395ZM22.323 12.1561C23.176 8.77806 23.6026 5.26489 24.1713 1.88684C24.1713 1.75172 24.1713 1.48148 24.3135 1.34635H27.2992C26.8727 3.64343 26.4461 5.9405 26.0196 8.37269C25.7352 9.85903 25.4509 11.3454 25.1665 12.6966C25.0244 13.6424 25.4509 14.1843 26.4461 14.1843C30.1428 14.1843 33.8394 14.1843 37.3939 14.1843C38.5313 14.1843 38.9578 13.3722 39.1 12.4277C39.6687 9.04965 40.3796 5.80673 40.9483 2.5638C41.0905 2.15844 41.0905 1.75307 41.2327 1.34771H44.2184C43.6497 4.72575 43.081 7.96868 42.3701 11.2116C42.2279 11.7521 42.2279 12.2926 42.0857 12.6979C41.517 15.4004 40.2374 16.4827 37.2517 16.4827C33.555 16.4827 29.7162 16.4827 26.0196 16.4827C22.8917 16.48 21.7543 14.9937 22.323 12.1561Z" fill="#DCDCDC"/>
<path d="M18.7675 11.2098L19.3362 7.15613H6.82455L7.25109 4.58881H7.96198C8.95722 4.58881 9.95247 4.58881 10.9477 4.58881C13.2226 4.58881 15.4974 4.58881 17.9145 4.58881C18.341 4.58881 18.6253 4.58881 18.9097 4.58881C19.6206 4.58881 20.1893 4.58881 20.6158 4.31857C21.0424 3.9132 21.1845 3.50784 21.1845 2.69711C21.1845 2.42686 21.3267 2.0215 21.3267 1.61613L21.4689 0.535156H3.12792L0 17.4254H4.97624L6.11366 11.2098H18.7675ZM4.12317 16.4795H1.13743C2.13267 11.48 2.98574 6.3454 3.98099 1.34589H20.4737C20.0471 3.9132 20.6158 3.50784 18.0566 3.50784C14.7865 3.50784 11.5164 3.50784 8.24634 3.50784C7.8198 3.50784 7.39327 3.50784 6.82455 3.50784C6.25584 5.1293 5.97148 6.48052 5.68713 8.10198H18.1988C18.0566 8.91271 17.9145 9.58832 17.9145 10.3991H5.26059C4.97624 12.561 4.5497 14.4527 4.12317 16.4795Z" fill="#DCDCDC"/>
<path d="M66.1094 17.4257H68.0999C68.3842 17.4257 69.806 17.4257 70.0904 17.4257C71.37 17.4257 72.3666 16.8866 73.2183 15.8056C74.0714 14.8597 74.9244 13.7788 75.7775 12.8329C76.204 12.4275 76.4884 12.0208 76.9149 11.6168L81.749 6.21193C81.749 6.21193 81.749 6.21193 81.749 6.34705C82.1755 7.15778 82.602 7.96851 83.0286 8.77924C84.3068 11.2114 85.4442 13.6436 86.7252 16.2109C87.0096 16.6163 87.5783 17.4257 88.2892 17.5622C89.0001 17.6973 89.711 17.6973 90.4218 17.5622C90.7062 17.5622 90.9906 17.5622 91.2763 17.5622H92.6981L92.4138 16.2109C92.4138 16.0745 92.2716 15.9407 92.2716 15.9407C92.128 15.8042 92.128 15.6691 92.128 15.534L90.9906 13.5072C89.1422 9.72375 87.1517 5.94033 85.1613 2.15692C84.7347 1.21107 83.8816 0.535457 82.8864 0.400335C81.8912 0.265213 80.8959 0.670579 80.185 1.61643C76.6306 5.67009 67.5312 15.9394 67.389 16.0745L66.1094 17.4257ZM68.8108 15.8042C72.7918 11.2101 76.9149 6.75106 80.8959 2.15557C82.0333 0.939472 83.5959 1.07459 84.3068 2.56093C86.583 7.01996 88.8565 11.479 91.1313 15.938C91.2749 16.0731 91.2749 16.3434 91.4157 16.6136C90.4204 16.6136 89.4266 16.7487 88.5721 16.6136C88.2878 16.6136 87.8612 16.2082 87.719 15.8029C86.0129 12.56 84.4489 9.18191 82.7428 5.93898C82.5992 5.53362 82.3163 5.12825 82.0319 4.58776C80.0414 6.74971 78.1931 8.91166 76.3448 11.0736C75.0652 12.4248 73.9278 13.9112 72.6467 15.2624C71.9358 16.0731 71.2249 16.6136 70.2297 16.6136H70.0875C69.9453 16.6136 68.8079 16.6136 68.097 16.4785C68.3842 16.2096 68.6686 15.9394 68.8108 15.8042Z" fill="#DCDCDC"/>
<path d="M17.0588 19.7226C17.201 19.7226 17.201 19.7226 17.3431 19.5874C17.4853 19.5874 17.6275 19.5874 17.6275 19.451C17.7697 19.451 17.9119 19.451 17.9119 19.3158V19.1807C17.9119 18.9105 17.9119 18.774 17.9119 18.5051C17.9119 18.2349 17.9119 17.9646 17.9119 17.693C17.9119 17.4214 17.9119 17.1539 17.9119 16.7472C17.9119 16.4783 17.9119 16.208 17.9119 15.9364C17.9119 15.6648 17.9119 15.396 17.9119 15.1257C17.9119 14.9892 17.9119 14.8555 17.9119 14.8555C17.9119 14.8555 17.9119 14.9906 17.7697 14.9906C17.6275 15.1271 17.4853 15.396 17.3431 15.6662C17.201 15.804 17.0588 15.9391 16.9166 16.0743C16.7744 16.0743 16.6323 16.0743 16.6323 16.0743C16.3479 16.0743 16.2057 15.9391 15.9214 15.8054C15.7792 15.6689 15.637 15.5338 15.637 15.3987C15.637 15.3987 15.637 15.3987 15.637 15.2635C15.637 15.1284 15.4948 15.1284 15.4948 14.9933C15.4948 14.9933 15.4948 14.8582 15.3526 14.8582C15.3526 14.9933 15.3526 14.9933 15.2105 15.1284C15.2105 15.2635 15.0683 15.3973 15.0683 15.5338C14.9261 15.6689 14.9261 15.804 14.7839 15.9391C14.6418 16.0743 14.6418 16.0743 14.4996 16.0743H14.3574C14.2152 16.0743 14.073 16.0743 13.7887 16.0743C13.5043 15.9391 13.3622 15.804 13.22 15.804C12.9356 16.0743 12.7934 15.9391 12.6513 15.6689C12.3669 15.3987 12.2247 15.2635 12.0826 14.9933C12.0826 14.9933 12.0826 14.8582 11.9404 14.8582C11.9404 14.9933 11.9404 14.9933 11.9404 15.1284C11.9404 15.2635 12.0826 15.5338 12.0826 15.6676C12.0826 16.0729 12.0826 16.3432 12.0826 16.7485C12.0826 16.885 12.0826 17.0188 11.9404 17.1552C11.7982 17.2904 11.656 17.4255 11.5138 17.5606C11.3717 17.6957 11.0873 17.6957 10.9451 17.5606H10.8029H10.6608C10.5186 17.5606 10.2342 17.4241 10.0921 17.4241H9.94988C9.94988 17.5606 10.0921 17.5606 10.0921 17.6957C10.0921 17.6957 10.0921 17.6957 10.0921 17.8322V17.9673C10.0921 17.9673 10.0921 17.9673 10.0921 18.1024V18.2362C10.0921 18.3713 10.2342 18.5065 10.0921 18.6416C10.0921 18.9118 9.94988 19.0469 9.8077 19.1821C9.66552 19.1821 9.66552 19.3172 9.52334 19.3172C9.52334 19.3172 9.52334 19.3172 9.38117 19.3172C9.38117 19.3172 9.23899 19.3172 9.09681 19.3172C8.81245 19.3172 8.67028 19.3172 8.5281 19.3172C8.38592 19.3172 8.24374 19.3172 8.10156 19.3172L8.5281 19.4523V19.5874L8.67028 19.7226L8.81245 19.8577L8.95463 19.9928L9.09681 20.1279L9.23899 20.263L9.38117 20.3982L9.52334 20.5333L9.94988 20.6684L10.0921 20.8035C10.2342 20.9387 10.2342 20.9387 10.3764 21.0738L10.5186 21.2089L10.6608 21.344L10.8029 21.4791L10.9451 21.6143L11.0873 21.7494L11.2295 21.8845C11.3717 21.8845 11.3717 22.0196 11.5138 22.0196C11.656 21.8845 11.7982 21.8845 11.9404 21.7494C12.0826 21.6143 12.2247 21.6143 12.3669 21.4791C12.3669 21.4791 12.5091 21.4791 12.5091 21.344C12.6513 21.4791 12.7934 21.4791 12.7934 21.344C12.9356 21.344 13.0778 21.2089 13.22 21.0738C13.3622 21.0738 13.5043 20.9387 13.5043 20.9387C13.6465 20.9387 13.6465 20.8022 13.7887 20.8022H13.9309C14.073 20.8022 14.2152 20.6671 14.3574 20.6671C14.4996 20.6671 14.6418 20.5319 14.7839 20.5319L14.9261 20.3955H15.0683C15.2105 20.3955 15.3526 20.2603 15.4948 20.2603H15.637L15.9214 20.1239H16.0635H16.2057H16.3479H16.4901H16.6323C16.6323 20.1239 16.6323 20.1239 16.7744 20.1239H16.9166C16.7744 19.7226 16.9166 19.7226 17.0588 19.7226ZM16.6323 18.9118H16.4901H16.3479L16.0635 19.0469H15.9214L15.3526 19.3172H15.2105C15.0683 19.3172 14.9261 19.4523 14.7839 19.4523L14.4996 19.5874C14.3574 19.5874 14.2152 19.7226 14.073 19.7226C13.7887 19.9928 13.6465 19.9928 13.5043 19.9928H13.3622C13.22 19.9928 13.22 20.1279 13.0778 20.1279C12.9356 20.1279 12.7934 20.263 12.7934 20.263C12.6513 20.3982 12.5091 20.3982 12.3669 20.5333C12.2247 20.5333 12.0826 20.6684 12.0826 20.8022L11.9404 20.9387C11.7982 20.9387 11.7982 21.0738 11.656 21.0738L11.5138 20.9387L11.0873 20.5333C10.9451 20.3982 10.9451 20.3982 10.8029 20.263L10.6608 20.1279L10.5186 19.9928C10.6608 19.9928 10.6608 19.8577 10.8029 19.8577C11.0873 19.5874 11.3717 19.1821 11.3717 18.7767C11.656 18.7767 11.9404 18.7767 12.0826 18.6416C12.5091 18.5065 12.7934 18.2362 12.9356 17.8309C13.0778 17.6957 13.0778 17.4255 13.0778 17.2904C13.0778 17.2904 13.22 17.2904 13.3622 17.2904C13.6465 17.4255 14.073 17.4255 14.3574 17.4255C14.4996 17.4255 14.6418 17.4255 14.7839 17.2904C14.9261 17.1552 15.2105 17.0201 15.3526 16.885C15.3526 16.885 15.3526 16.885 15.4948 16.7485C15.7792 17.0188 16.0635 17.0188 16.4901 17.1552C16.6323 17.1552 16.9166 17.1552 17.0588 17.0188C17.0588 17.289 17.0588 17.5593 17.0588 17.6944C17.0588 17.9646 17.0588 18.2349 17.0588 18.5065C17.0588 18.5065 17.0588 18.5065 17.0588 18.6416H16.9166L16.6323 18.9118Z" fill="#DCDCDC"/>
<path d="M39.1001 23.776C39.1001 23.6409 39.1001 23.5058 38.9579 23.1004C38.9579 22.9653 38.8157 22.8302 38.6735 22.695C38.5314 22.5599 38.3892 22.4248 38.3892 22.2897C37.9626 21.8843 37.3939 21.7492 36.683 21.7492H30.9959H27.5836L27.868 20.398L25.0244 21.2101L24.8822 21.7492H21.3278L21.47 21.0736H21.0434H20.6169H17.7733H17.9155C18.0577 21.0736 18.0577 21.0736 18.1999 20.9385C18.342 20.9385 18.4842 20.9385 18.6264 20.802H18.7686L19.3373 20.6669C19.6217 20.6669 19.906 20.3966 19.7638 20.1264V19.1819C19.7638 19.0454 19.7638 18.7752 19.7638 18.6414C19.7638 18.3711 19.7638 18.1009 19.7638 17.8307C19.7638 17.5604 19.7638 17.2902 19.7638 17.0186C19.7638 16.747 19.7638 16.4794 19.7638 16.2078C19.7638 15.9362 19.7638 15.8025 19.7638 15.5322C20.0482 15.262 20.1904 14.9917 20.1904 14.5864C20.1904 14.181 20.1904 13.6405 19.906 13.3703C19.7638 13.1014 19.4795 12.9649 19.1951 12.8311L18.4842 12.696H18.342C18.0577 12.696 17.6312 12.8325 17.3468 12.9663C17.0624 13.1027 16.9203 13.3716 16.7781 13.5068C16.4937 13.2365 16.0672 12.9663 15.6407 12.8311C15.4985 12.8311 15.4985 12.8311 15.3563 12.8311H15.072C14.7876 12.8311 14.6454 12.9663 14.3611 13.1014C13.9345 13.3703 13.6502 13.777 13.6502 14.1824C13.6502 14.3175 13.6502 14.4526 13.6502 14.4526C13.6502 14.3161 13.6502 14.3161 13.6502 14.1824C13.6502 13.9121 13.508 13.6419 13.508 13.5068L12.7971 12.8311C12.5127 12.5609 12.2284 12.4258 11.8019 12.4258C11.6597 12.4258 11.5175 12.4258 11.3753 12.4258C11.2331 12.4258 10.9488 12.4258 10.8066 12.5609L10.5222 12.8311L10.3801 12.9663C10.0957 13.2365 9.95354 13.5068 9.95354 13.777C9.95354 13.9121 9.95354 13.9121 9.95354 14.0459V14.1824C9.95354 14.3175 9.95354 14.4526 9.95354 14.4526V14.9931C10.0957 15.1296 10.0957 15.2633 10.2379 15.3985C10.2379 15.3985 10.2379 15.3985 10.0957 15.3985C9.95354 15.2633 9.81136 15.2633 9.527 15.2633C9.10047 15.1282 8.53175 15.2633 8.2474 15.5336L8.10522 15.6687L7.96304 15.8038C7.67868 16.0741 7.53651 16.4794 7.53651 17.0199C7.53651 17.1564 7.53651 17.2902 7.53651 17.5604C7.25215 17.5604 7.10997 17.5604 6.82562 17.6955C6.39908 17.832 6.11472 18.1009 5.83037 18.3711L5.68819 18.236C5.68819 18.5063 5.54601 18.7752 5.68819 19.0468C5.68819 19.317 5.83037 19.5872 5.97255 19.7224C6.2569 20.1277 6.68344 20.398 7.10997 20.398C7.25215 20.398 7.39433 20.398 7.53651 20.398L8.2474 21.0736L8.38958 21.2087L8.53175 21.4789L8.81611 21.7492L8.95829 21.8843C9.10047 21.8843 9.10047 22.0194 9.24265 22.0194L10.6644 23.2355C10.9488 23.5044 11.2331 23.6409 11.5175 23.6409C11.6597 23.6409 11.8019 23.6409 11.944 23.5044C12.0862 23.5044 12.0862 23.3693 12.2284 23.3693L12.3706 23.2342C12.5127 23.1004 12.6549 23.1004 12.6549 22.9653C12.7971 22.8302 12.9393 22.8302 13.0815 22.695L13.2236 22.5599C13.508 22.695 13.508 22.695 13.6502 22.695C13.7923 22.695 13.9345 22.5599 13.9345 22.5599C14.0767 22.5599 14.0767 22.4234 14.2189 22.4234C14.2189 22.4234 14.3611 22.4234 14.3611 22.2883H14.5032C14.6454 22.2883 14.6454 22.1519 14.7876 22.1519C14.9298 22.1519 15.072 22.0167 15.2141 22.0167L15.4985 21.8816C15.6407 21.8816 15.7828 21.7451 15.925 21.7451L16.4937 22.5572V22.695L16.2094 26.0731L14.9298 27.5594H19.906L18.9108 26.0731V25.2624L19.7638 26.6136C19.906 26.7487 20.0482 26.8825 20.1904 27.0189C20.6169 27.2892 21.0434 27.4243 21.6121 27.4243C21.8965 27.4243 22.1809 27.4243 22.323 27.2892H25.0244C25.1666 27.2892 25.3088 27.4243 25.5931 27.4243C26.0197 27.4243 26.4462 27.2892 26.8727 27.0189C27.2993 27.2892 27.7258 27.4243 28.2945 27.4243C28.5789 27.4243 28.8632 27.4243 29.0054 27.2892H29.1476H32.2755H34.1238L33.5551 26.0731C33.6973 26.3433 33.8395 26.4785 33.9817 26.7487C34.266 27.0189 34.9769 27.4243 35.9721 27.4243C36.5409 27.4243 37.1096 27.4243 37.8205 27.0189C38.1048 26.8825 38.3892 26.3433 38.8157 25.6677L38.9579 25.1272L39.3844 23.9125L39.1001 24.1814C39.1001 24.1814 39.1001 23.9111 39.1001 23.776ZM16.6359 20.398H16.4937H16.3516H16.2094H16.0672C15.925 20.398 15.925 20.5344 15.7828 20.5344C15.7828 20.5344 15.7828 20.5344 15.6407 20.5344C15.4985 20.5344 15.3563 20.6696 15.2141 20.6696H15.072L14.9298 20.8047C14.7876 20.8047 14.6454 20.9412 14.5032 20.9412C14.3611 20.9412 14.2189 21.0763 14.2189 21.0763H14.0767C13.9345 21.0763 13.9345 21.2128 13.7923 21.2128C13.6502 21.2128 13.6502 21.3479 13.508 21.3479C13.3658 21.483 13.2236 21.483 13.0815 21.483C12.9393 21.4789 12.9393 21.6141 12.7971 21.6141V22.1546C12.6549 22.2897 12.5127 22.2897 12.3706 22.4248C12.2284 22.5599 12.0862 22.5599 11.944 22.695L11.8019 22.8302C11.8019 22.8302 11.8019 22.8302 11.6597 22.8302C11.6597 22.8302 11.6597 22.8302 11.5175 22.8302C11.5175 22.8302 11.2331 22.9666 11.091 22.695H11.2331C11.2331 22.695 11.091 22.695 11.091 22.5599C10.9488 22.5599 10.9488 22.4234 10.8066 22.4234L10.6644 22.2883L10.5222 22.1546L10.3801 22.0194L10.2379 21.8843L10.0957 21.7492L9.95354 21.4789C9.81136 21.4789 9.81136 21.3438 9.66918 21.3438L9.527 21.2087L9.38482 21.0736L9.24265 20.9385L9.10047 20.8033L8.95829 20.6682L8.81611 20.5331L8.53175 20.2629L8.38958 20.1277L8.2474 19.9926L8.10522 19.8575L7.82086 19.5872C7.67868 19.5872 7.53651 19.7224 7.39433 19.5872C7.10997 19.5872 6.96779 19.4508 6.82562 19.1819C6.68344 19.0468 6.68344 18.9116 6.68344 18.7765C6.68344 18.6414 6.68344 18.5076 6.82562 18.2374C6.96779 18.1009 7.10997 17.9658 7.25215 17.8307C7.53651 17.6942 7.82086 17.8307 7.96304 17.9658C8.10522 18.1009 8.2474 18.236 8.2474 18.3711C8.38958 18.3711 8.67393 18.3711 8.81611 18.5076C8.95829 18.5076 9.10047 18.5076 9.38482 18.5076C9.38482 18.5076 9.38482 18.5076 9.527 18.5076C9.527 18.5076 9.66918 18.5076 9.66918 18.3711L9.81136 18.236C9.81136 18.236 9.81136 18.0995 9.81136 17.9658V17.8307C9.81136 17.8307 9.81136 17.8307 9.81136 17.6942C9.81136 17.6942 9.81136 17.6942 9.81136 17.5591C9.81136 17.5591 9.81136 17.4226 9.66918 17.4226C9.66918 17.4226 9.66918 17.2875 9.527 17.2875C9.38482 17.2875 9.38482 17.2875 9.24265 17.2875C9.10047 17.2875 8.95829 17.1523 8.81611 17.0172C8.67393 16.8848 8.53175 16.6146 8.53175 16.4794C8.53175 16.2092 8.67393 15.939 8.95829 15.8038C8.95829 15.939 9.24265 15.939 9.38482 15.939C9.527 15.939 9.527 15.939 9.66918 16.0741C9.81136 16.0741 9.81136 16.2105 9.81136 16.2105C9.81136 16.3457 9.95354 16.3457 9.95354 16.4808C9.95354 16.6159 10.0957 16.7497 10.0957 16.8862C10.2379 17.0213 10.2379 17.0213 10.3801 17.0213C10.5222 17.0213 10.6644 17.1578 10.8066 17.1578H10.9488H11.091C11.2331 17.1578 11.2331 17.1578 11.3753 17.1578C11.3753 17.1578 11.5175 17.1578 11.5175 17.0213C11.5175 16.8862 11.5175 16.8862 11.5175 16.751C11.5175 16.4821 11.5175 16.2119 11.5175 15.8065C11.5175 15.6701 11.5175 15.3998 11.3753 15.266C11.3753 15.1309 11.3753 15.1309 11.2331 14.9958C11.2331 14.9958 11.2331 14.9958 11.2331 14.8607C11.091 14.8607 10.9488 14.7242 10.9488 14.7242C10.8066 14.5877 10.6644 14.4526 10.6644 14.3175C10.6644 14.1824 10.6644 14.0472 10.6644 13.9121C10.6644 13.777 10.8066 13.6419 10.9488 13.5068L11.091 13.3716C11.091 13.3716 11.091 13.3716 11.2331 13.3716C11.3753 13.2365 11.5175 13.2365 11.6597 13.2365C11.944 13.2365 12.0862 13.3716 12.2284 13.6419C12.3706 13.7784 12.3706 14.0472 12.3706 14.3175C12.3706 14.454 12.3706 14.454 12.3706 14.454C12.3706 14.5877 12.5127 14.5877 12.5127 14.7229C12.6549 14.858 12.7971 15.1282 13.0815 15.2633C13.2236 15.3985 13.3658 15.5336 13.508 15.6687C13.6502 15.8038 13.7923 15.939 13.7923 15.939H13.9345H14.0767C14.2189 15.8038 14.2189 15.8038 14.2189 15.6687C14.2189 15.5336 14.3611 15.3985 14.3611 15.2633C14.3611 15.1282 14.3611 15.1282 14.3611 14.9931C14.2189 14.9931 14.2189 14.858 14.0767 14.7229C14.0767 14.5877 13.9345 14.5877 13.9345 14.4526C13.9345 14.3161 13.9345 14.1824 13.9345 14.1824C13.9345 13.9121 14.0767 13.777 14.3611 13.6419C14.5032 13.5068 14.7876 13.5068 14.9298 13.5068C15.2141 13.5068 15.3563 13.6419 15.4985 13.777C15.6407 13.9121 15.6407 14.0472 15.6407 14.1824C15.6407 14.3175 15.6407 14.4526 15.4985 14.5877C15.4985 14.7229 15.3563 14.7229 15.3563 14.858C15.3563 14.9931 15.3563 14.9931 15.4985 15.1282C15.4985 15.1282 15.4985 15.2633 15.6407 15.2633C15.6407 15.2633 15.6407 15.2633 15.6407 15.3985C15.6407 15.5349 15.7828 15.5349 15.7828 15.6687C15.925 15.8052 15.925 15.8052 16.0672 15.8052C16.0672 15.8052 16.0672 15.8052 16.2094 15.8052C16.3516 15.8052 16.3516 15.6687 16.4937 15.5349C16.6359 15.2647 16.7781 15.1296 16.9203 14.9944C16.9203 14.9944 16.9203 14.8593 17.0624 14.8593C17.0624 14.8593 17.0624 14.8593 17.0624 14.7229L16.9203 14.5877C16.7781 14.3175 16.7781 14.0472 17.0624 13.777C17.0624 13.6405 17.2046 13.6405 17.3468 13.5068C17.489 13.3703 17.6312 13.3703 17.7733 13.3703C18.0577 13.3703 18.342 13.5068 18.4842 13.777C18.6264 13.9121 18.6264 14.1824 18.6264 14.4526C18.6264 14.5877 18.4842 14.7215 18.342 14.858C18.1999 14.858 18.1999 14.9931 18.0577 14.9931V15.1282C18.0577 15.2633 18.0577 15.2633 18.0577 15.3971C18.0577 15.6674 18.0577 15.9376 18.0577 16.2092C18.0577 16.4808 18.0577 16.7483 18.0577 17.0199C18.0577 17.2915 18.0577 17.5604 18.0577 17.832C18.0577 18.1009 18.0577 18.3711 18.0577 18.6427C18.0577 18.9143 18.0577 19.0481 18.0577 19.3183C18.0577 19.4535 18.0577 19.4535 18.0577 19.5886V19.7237V19.9926H18.342H18.1999C18.0577 19.9926 17.9155 19.9926 17.7733 20.1277C17.6312 20.1277 17.489 20.1277 17.489 20.2642H17.3468C17.3468 20.2642 17.3468 20.2642 17.2046 20.2642H17.0624H16.9203C16.9203 20.2642 16.9203 20.2642 16.7781 20.2642C16.7781 20.2642 16.7781 20.2642 16.6359 20.2642V20.398ZM20.1904 22.8302C20.0482 22.695 19.906 22.5599 19.7638 22.4248C19.6217 22.2897 19.3373 22.2897 19.0529 22.2897H18.342L18.1999 23.9111H18.7686H19.1951L19.4795 23.7747C19.6217 23.7747 19.6217 23.6395 19.7638 23.6395L19.906 23.5058L19.7638 24.5868C19.6217 24.4503 19.6217 24.3165 19.4795 24.3165C19.3373 24.3165 19.1951 24.18 18.9108 24.18H18.342L18.1999 25.8015V25.938C18.1999 26.0731 18.1999 26.2069 18.1999 26.2069L18.342 26.4771H17.0624L17.2046 26.2069C17.2046 26.0717 17.3468 25.938 17.3468 25.8015L17.6312 22.4234V22.2883C17.6312 22.1519 17.6312 22.1519 17.6312 22.0181C17.6312 21.8843 17.489 21.883 17.489 21.7478H20.4747L20.1904 22.8302ZM24.1714 26.6136H23.1761L23.3183 26.0731L23.0339 26.3433C22.7496 26.6136 22.323 26.7487 21.8965 26.7487C21.47 26.7487 21.1856 26.6136 21.0434 26.4785C20.7591 26.3433 20.7591 26.0731 20.7591 25.9393C20.7591 25.8028 20.7591 25.8028 20.7591 25.6691C20.7591 25.6691 20.7591 25.5326 20.7591 25.2637L21.0434 23.2369V22.9666C21.0434 22.8302 21.0434 22.6964 20.9013 22.5613H21.8965L21.47 24.9935V25.2637V25.5326C21.47 25.9393 21.7543 26.2082 22.323 26.2082C22.4652 26.2082 22.7496 26.2082 22.8918 26.0731C23.0339 26.0731 23.1761 25.938 23.3183 25.8028C23.4605 25.6677 23.4605 25.6677 23.4605 25.5326C23.4605 25.3975 23.6026 25.2637 23.6026 25.1272L23.887 23.2369V22.9666C23.887 22.8302 23.887 22.6964 23.7448 22.5613H24.7401L24.1714 25.938V26.2082C24.0292 26.3433 24.0292 26.4785 24.1714 26.6136ZM27.0149 23.1004H26.304L25.8775 25.8028V26.0731C25.8775 26.2082 26.0197 26.3433 26.1618 26.3433C26.304 26.3433 26.4462 26.2069 26.7306 26.0731L26.5884 26.6136C26.304 26.7487 26.0197 26.8838 25.7353 26.8838C25.451 26.8838 25.3088 26.8838 25.1666 26.7487C25.0244 26.6136 25.0244 26.4785 25.0244 26.3433V25.8028L25.451 23.2369H25.0244L25.1666 22.8302H25.5931L25.7353 22.0194L26.5884 21.7492L26.4462 22.695H27.2993L27.0149 23.1004ZM30.8537 26.6136H29.8585L30.0007 26.0731L29.7163 26.3433C29.4319 26.6136 29.0054 26.7487 28.4367 26.7487C28.0102 26.7487 27.7258 26.6136 27.5836 26.4785C27.2993 26.3433 27.2993 26.0731 27.2993 25.9393C27.2993 25.8028 27.2993 25.8028 27.2993 25.6691C27.2993 25.6691 27.2993 25.5326 27.2993 25.2637L27.5836 23.2369V22.9666C27.5836 22.8302 27.5836 22.6964 27.4415 22.5613H28.4367L28.0102 24.9935V25.2637V25.5326C28.0102 25.9393 28.2945 26.2082 28.8632 26.2082C29.0054 26.2082 29.2898 26.2082 29.4319 26.0731C29.5741 26.0731 29.7163 25.938 29.8585 25.8028C30.0007 25.6677 30.0007 25.6677 30.0007 25.5326C30.0007 25.3975 30.1428 25.2637 30.1428 25.1272L30.4272 23.2369V22.9666C30.4272 22.8302 30.4272 22.6964 30.285 22.5613H31.2803L30.7116 25.9393V26.2082C30.7116 26.3433 30.7116 26.4785 30.8537 26.6136ZM33.6973 23.2355C33.4129 23.2355 33.2708 23.3707 33.1286 23.5044C32.9864 23.6409 32.8442 23.9111 32.8442 24.18L32.5599 26.0717V26.342V26.4771L32.702 26.6136H31.5646C31.7068 26.4771 31.7068 26.3433 31.7068 26.3433C31.7068 26.2069 31.7068 26.2069 31.849 25.938L32.2755 23.2355V22.9653C32.2755 22.8288 32.2755 22.695 32.1333 22.5599H33.1286L32.9864 23.1004L33.2708 22.8302L33.5551 22.695L33.8395 22.5599C33.9816 22.5599 34.1238 22.5599 34.266 22.5599L34.1238 23.6409C33.9817 23.5044 33.9816 23.3707 33.8395 23.3707C33.9816 23.2355 33.8395 23.2355 33.6973 23.2355ZM38.247 24.1814H35.2613L35.1191 24.7219V25.1272C35.1191 25.9393 35.5456 26.3433 36.2565 26.3433C36.5409 26.3433 36.9674 26.2069 37.2518 26.0731L37.5361 25.938C37.6783 25.938 37.6783 25.8015 37.8205 25.6677L37.5361 26.3433L37.2518 26.4785C36.8252 26.7487 36.3987 26.8838 35.9721 26.8838C35.4034 26.8838 34.9769 26.7487 34.6925 26.4785C34.4082 26.2082 34.266 25.8028 34.266 25.2637C34.266 24.5881 34.5504 24.0476 34.9769 23.5058C35.4034 22.9666 35.9721 22.8302 36.683 22.8302C37.1096 22.8302 37.5361 22.9666 37.8205 23.2369C38.1048 23.5058 38.247 23.776 38.247 24.1814Z" fill="#DCDCDC"/>
<path d="M36.5374 22.9648C36.2531 22.9648 35.9687 23.1 35.6843 23.2351C35.5422 23.3702 35.5422 23.3702 35.4 23.5053L35.2578 23.9107H37.1061C37.2483 23.9107 37.2483 23.9107 37.2483 23.7742C37.2483 23.7742 37.3905 23.6391 37.3905 23.504C37.3905 23.3689 37.2483 23.0986 37.1061 23.0986C37.1061 22.9648 36.8218 22.9648 36.5374 22.9648Z" fill="#DCDCDC"/>
<path d="M48.7702 22.8281C48.3437 22.8281 47.9171 23.0984 47.4906 23.5037C47.2062 23.9091 46.9219 24.4496 46.9219 24.9901C46.9219 25.3954 47.0641 25.6657 47.2062 25.9359C47.3484 26.2048 47.6328 26.2048 47.9171 26.2048C48.2015 26.2048 48.4858 26.0697 48.7702 25.7995C48.9124 25.6643 48.9124 25.5292 48.9124 25.5292C48.9124 25.3941 49.0545 25.2603 49.0545 24.9901L49.3389 23.5024V23.2335C49.3389 22.9632 49.1967 22.8281 48.7702 22.8281Z" fill="#DCDCDC"/>
<path d="M66.6764 22.8281C66.2499 22.8281 65.8234 23.0984 65.3968 23.5037C64.9703 23.9105 64.8281 24.4496 64.8281 24.9914C64.8281 25.3968 64.9703 25.667 65.1125 25.9373C65.2547 26.2062 65.539 26.2062 65.8234 26.2062C66.1077 26.2062 66.3921 26.071 66.6764 25.8008C66.8186 25.6657 66.8186 25.5306 66.9608 25.5306C66.9608 25.3954 66.9608 25.2617 67.103 24.9914L67.3873 23.5037V23.2335C67.2452 22.9632 67.103 22.8281 66.6764 22.8281Z" fill="#DCDCDC"/>
<path d="M67.6732 21.7488C67.3888 21.7488 67.1045 21.6137 66.9623 21.6137C65.9671 21.6137 65.114 21.8839 64.4031 22.5595C64.2609 22.2893 64.1188 22.1528 63.8344 22.019C63.4079 21.7488 62.9813 21.6137 62.4126 21.6137C62.1283 21.6137 61.9861 21.6136 61.7017 21.7488H60.4221C60.4221 21.6136 60.4221 21.4785 60.4221 21.3434C60.4221 20.938 60.2799 20.6678 59.9956 20.3976C59.7112 20.1273 59.4269 19.9922 59.0003 19.9922C58.5738 19.9922 58.2894 20.1273 58.0051 20.3976C57.7207 20.6678 57.5786 21.0732 57.5786 21.3434C57.5786 21.4785 57.5786 21.6136 57.5786 21.7488H56.5833C56.4411 21.7488 56.1568 21.6137 55.8724 21.6137C55.4459 21.6137 54.8772 21.7488 54.4506 21.8839C54.3085 21.7488 54.1663 21.7488 54.0241 21.7488C53.5976 21.6136 53.0289 21.6136 52.4601 21.7488H49.7588H49.6166C49.3322 21.7488 49.0479 21.7488 48.9057 21.7488C47.9104 21.7488 46.9152 22.019 46.3465 22.6946C46.3465 22.6946 46.3465 22.6946 46.2043 22.8297L46.3465 20.9394L45.0669 21.0745L44.356 20.9394H43.9295C42.9342 20.9394 42.0811 21.3448 41.3702 22.0204C40.6594 22.696 40.375 23.6418 40.375 24.5877C40.375 25.5322 40.6594 26.2078 41.2281 26.7496C41.7968 27.2915 42.5077 27.5604 43.5029 27.5604C43.7873 27.5604 44.0716 27.5604 44.356 27.5604C44.6403 27.5604 44.9247 27.4252 45.2091 27.4252L46.2043 27.155C46.6308 27.5604 47.0574 27.6955 47.6261 27.6955C47.7683 27.6955 47.9104 27.6955 48.1948 27.6955H48.337H49.19H53.3132H56.1568H57.5786H60.5643H63.6922L62.5548 28.2346L63.1235 28.9102C63.4079 29.1805 63.55 29.3169 63.6922 29.4507C63.8344 29.4507 63.9766 29.5858 63.9766 29.5858C64.1188 29.5858 64.2609 29.7223 64.2609 29.7223C64.5453 29.8574 64.8296 29.8574 65.114 29.8574C65.9671 29.8574 66.678 29.5872 67.2467 29.0467C67.8154 28.5062 68.0997 27.8306 68.2419 27.0199L68.8106 23.6418V23.3716L69.5215 22.1555L68.2419 21.8839L67.6732 21.7488ZM45.3512 24.4512C45.3512 24.5877 45.3512 24.7215 45.2091 24.7215L45.0669 26.0727V26.2078C45.0669 26.3443 45.0669 26.3443 45.0669 26.478L44.7825 26.6132C44.4982 26.7483 44.2138 26.7483 43.9295 26.7483C43.6451 26.7483 43.3607 26.7483 43.2186 26.7483C42.5077 26.7483 42.0811 26.6132 41.6546 26.2078C41.2281 25.8024 41.0859 25.2619 41.0859 24.5863C41.0859 23.7742 41.3702 23.2351 41.7968 22.6946C42.3655 22.1541 42.9342 21.8839 43.6451 21.8839H44.0716H44.356L44.7825 22.019H44.9247H45.2091V23.1C45.2091 22.9649 45.0669 22.8297 44.9247 22.8297C44.9247 22.6946 44.7825 22.6946 44.7825 22.6946C44.4982 22.5595 44.2138 22.4244 43.7873 22.4244C43.2186 22.4244 42.792 22.6946 42.5077 23.1C42.2233 23.5054 41.939 24.181 41.939 24.8566C41.939 25.3971 42.0811 25.8024 42.3655 26.2078C42.6498 26.6132 42.9342 26.7483 43.3607 26.7483C43.5029 26.7483 43.6451 26.7483 43.7873 26.7483C43.9295 26.7483 44.0716 26.6132 44.2138 26.6132L44.356 25.1255V24.9903C44.356 24.8539 44.356 24.7201 44.356 24.7201L44.2138 24.4499H45.4934C45.4934 24.181 45.3512 24.3161 45.3512 24.4512ZM50.3275 22.9649C50.3275 22.9649 50.3275 23.1 50.1853 23.1L50.0431 23.5054L49.6166 26.2078V26.478V26.6132H48.7635V26.3429C48.7635 26.2064 48.7635 26.2064 48.7635 26.0727L48.6213 26.2078L48.4792 26.3429C48.337 26.478 48.1948 26.6132 47.9104 26.6132C47.7683 26.6132 47.7683 26.6132 47.6261 26.7483C47.4839 26.7483 47.4839 26.7483 47.3417 26.7483C46.9152 26.7483 46.6308 26.6132 46.3465 26.3429C46.0621 26.0727 45.9199 25.6673 45.9199 25.2619C45.9199 24.5863 46.2043 23.9107 46.6308 23.3702C47.1996 22.8297 47.7683 22.6946 48.6213 22.6946C48.7635 22.6946 49.0479 22.6946 49.19 22.6946L49.7588 22.8297L50.3275 22.9649C50.3275 22.9649 50.3275 22.8297 50.3275 22.9649ZM57.152 23.9107L56.8677 26.0727V26.3429C56.8677 26.478 56.8677 26.6132 57.0098 26.7483H55.8724L56.0146 26.0727L56.1568 25.5322L56.4411 24.181V23.7756C56.4411 23.6405 56.4411 23.3702 56.299 23.2365C56.1568 23.1 56.0146 23.1 55.7302 23.1C55.4459 23.1 55.1615 23.2365 54.8772 23.3702C54.5928 23.5054 54.5928 23.7756 54.4506 24.181L54.1663 26.2078V26.478V26.6132L54.3085 26.7483H53.3132L53.5976 25.6673L53.8819 24.3161V23.7756C53.8819 23.3702 53.5976 23.1 53.171 23.1C52.8867 23.1 52.6023 23.2365 52.318 23.3702C52.1758 23.5054 52.1758 23.5054 52.0336 23.6405C52.0336 23.7756 51.8914 23.9107 51.8914 24.0458L51.6071 26.0727V26.3429V26.478L51.7493 26.6145H50.6118C50.6118 26.6145 50.6118 26.478 50.754 26.478L50.8962 26.3429C50.8962 26.3429 50.8962 26.2064 51.0384 26.0727L51.4649 23.3702V23.1C51.4649 22.9649 51.4649 22.9649 51.3227 22.6946H52.318L52.1758 23.1L52.4601 22.8297C52.7445 22.6946 53.171 22.5609 53.5976 22.5609C53.7397 22.5609 53.8819 22.5609 54.1663 22.696C54.3085 22.696 54.4506 22.8311 54.4506 22.8311C54.5928 22.9676 54.5928 22.9676 54.735 23.2378L55.0194 22.9676C55.4459 22.6973 55.7302 22.5622 56.299 22.5622C56.5833 22.5622 56.8677 22.6973 57.152 22.8311C57.4364 22.9676 57.4364 23.1013 57.4364 23.3716L57.152 23.9107ZM58.716 26.6132H57.5786C57.7207 26.4767 57.8629 26.2064 57.8629 25.9376L58.2894 23.2351V22.9649V22.8297C58.2894 22.8297 58.2894 22.6946 58.1473 22.6946H59.1425L58.5738 26.0727V26.3429C58.5738 26.478 58.716 26.478 58.716 26.6132ZM59.0003 21.8839C58.8582 21.8839 58.716 21.8839 58.716 21.7474C58.5738 21.6123 58.5738 21.6123 58.5738 21.4772C58.5738 21.3421 58.5738 21.2083 58.716 21.0718C58.8582 20.9367 59.0003 20.9367 59.1425 20.9367C59.2847 20.9367 59.4269 20.9367 59.4269 21.0718C59.569 21.2083 59.5691 21.2083 59.5691 21.4772C59.5691 21.6137 59.569 21.7474 59.4269 21.8839L59.2847 22.019C59.1425 21.8839 59.1425 21.8839 59.0003 21.8839ZM63.55 23.9107L63.1235 26.0727V26.3429C63.1235 26.478 63.1235 26.478 63.1235 26.478L63.2657 26.6145H62.2704L62.4126 26.074C62.4126 25.8038 62.5548 25.6687 62.5548 25.3984L62.8391 24.0472V23.6418C62.8391 23.2365 62.5548 22.9662 62.1283 22.9662H61.8439H61.5595L61.2752 23.1013L61.133 23.2351C60.9908 23.3702 60.9908 23.3702 60.8487 23.504C60.8487 23.6405 60.7065 23.7743 60.7065 24.0445L60.4221 25.9362V26.2078C60.4221 26.2078 60.4221 26.3443 60.5643 26.478H59.4269C59.569 26.3429 59.5691 26.2078 59.5691 26.2078C59.5691 26.2078 59.5691 26.0727 59.7112 25.8024L60.1378 23.1V22.8297C60.1378 22.6946 60.1378 22.5609 59.9956 22.4244H60.9908L60.8487 22.8297L61.133 22.6946C61.4174 22.4244 61.8439 22.2893 62.2704 22.2893C62.697 22.2893 62.9813 22.4244 63.1235 22.5595C63.2657 22.6946 63.4079 22.9649 63.4079 23.0986L63.55 23.9107ZM68.0997 23.1L67.9576 23.5054L67.3889 26.8834C67.2467 27.559 67.1045 27.9657 66.678 28.3711C66.2514 28.7765 65.8249 28.9102 65.2562 28.9102C65.114 28.9102 64.8296 28.9102 64.6875 28.7751C64.5453 28.7751 64.5453 28.7751 64.4031 28.64C64.4031 28.64 64.2609 28.64 64.2609 28.5035C64.1188 28.5035 64.1188 28.3684 63.8344 28.0982L64.5453 27.5577C64.5453 28.0981 64.8296 28.3697 65.2562 28.3697C65.5405 28.3697 65.8249 28.2333 66.1092 27.9644C66.3936 27.6941 66.5358 27.4239 66.5358 27.0185L66.8201 25.8024L66.5358 26.0727C66.2514 26.3429 65.8249 26.478 65.3984 26.478C64.9718 26.478 64.6875 26.3429 64.4031 26.0727C64.1188 25.8024 63.9766 25.3971 63.9766 24.9917C63.9766 24.1796 64.2609 23.6405 64.6875 23.1C65.114 22.5609 65.8249 22.4244 66.678 22.4244C66.8201 22.4244 67.1045 22.4244 67.2467 22.4244L67.8154 22.5609H68.0997V23.1Z" fill="#DCDCDC"/>
<path d="M77.3452 22.8281C76.9173 22.8281 76.4907 23.0984 76.2064 23.5037C75.9234 23.9091 75.7812 24.4496 75.7812 24.9901V25.2603C75.7812 25.6657 75.9248 25.9359 76.2078 26.2048C76.3514 26.4751 76.6357 26.4751 76.9187 26.4751C77.3466 26.4751 77.7732 26.3399 78.0575 25.9359C78.3404 25.5292 78.484 24.9901 78.484 24.4482C78.484 23.9091 78.3404 23.6375 78.1997 23.3673C77.9139 22.9632 77.6296 22.8281 77.3452 22.8281Z" fill="#DCDCDC"/>
<path d="M92.7046 22.8281C92.278 22.8281 91.8501 23.0984 91.5672 23.5037C91.2828 23.9091 91.1406 24.4496 91.1406 24.9901V25.2603C91.1406 25.6657 91.2842 25.9359 91.5686 26.2048C91.7108 26.4751 91.9951 26.4751 92.2795 26.4751C92.706 26.4751 93.1325 26.3399 93.4169 25.9359C93.6998 25.5306 93.842 24.9901 93.842 24.4496C93.842 23.9104 93.6998 23.6389 93.5577 23.3686C93.2733 22.9632 92.9889 22.8281 92.7046 22.8281Z" fill="#DCDCDC"/>
<path d="M102.796 22.022C102.654 22.022 102.512 21.8869 102.37 21.8869C102.228 21.8869 102.228 21.8869 102.086 21.7504C101.943 21.7504 101.801 21.7504 101.659 21.7504H101.517C100.806 21.7504 100.237 21.8869 99.6671 22.2909C99.6671 22.2909 99.5249 22.2909 99.5249 22.4261C99.3827 22.2909 99.2405 22.1558 99.2405 22.1558C98.814 21.8869 98.3875 21.7504 97.8187 21.7504C97.6766 21.7504 96.397 21.7504 94.1221 21.8869L94.2643 22.1558C93.8378 21.8869 93.269 21.7504 92.7003 21.7504C92.2738 21.7504 91.8458 21.8869 91.4207 22.0207C91.1364 22.1558 90.8534 22.2909 90.7098 22.4261V22.2909C90.9956 21.8869 90.9956 21.6167 90.9956 21.3464C90.9956 20.9411 90.8534 20.6708 90.5691 20.4006C90.2847 20.1303 90.0004 19.9952 89.5738 19.9952C89.1473 19.9952 88.8629 20.1303 88.5786 20.4006C88.5786 20.4006 88.5786 20.4006 88.4364 20.537L86.0194 21.2127L85.8772 21.7518H82.1806L82.6071 19.5898H79.1948L79.7635 20.8059C79.7635 20.8059 79.7635 20.8059 79.7635 20.9424V21.0775L79.4792 22.5625C78.9105 22.022 78.3403 21.8869 77.4887 21.8869C77.0622 21.8869 76.6356 22.022 76.2091 22.1558C75.7826 22.2923 75.4982 22.5625 75.0717 22.6976L75.2153 20.5357L73.7935 21.2113H73.5091C73.2248 21.2113 73.0826 21.0748 72.7982 21.0748C72.0873 21.0748 71.5186 21.2113 71.0921 21.6153C70.9499 21.7504 70.8077 22.0207 70.6656 22.2909C70.5234 22.8301 70.5234 23.6421 70.5234 24.9934L70.0969 24.4529L69.8125 27.1553L70.8077 27.6958L71.2343 27.8309C71.5186 27.8309 71.6608 27.9674 71.9452 27.9674C72.6561 27.9674 73.2248 27.6972 73.7949 27.2918L74.0764 26.8864C74.0764 27.0229 74.22 27.0229 74.3608 27.1567C74.9295 27.6972 75.6404 27.9688 76.3513 27.9688C76.6356 27.9688 76.9186 27.9687 77.2043 27.8323H81.754H81.8962C82.1806 27.8323 82.3242 27.9688 82.6071 27.9688C82.8915 27.9688 83.1758 27.9687 83.318 27.8323H85.3085H86.0194C86.1616 27.8323 86.3037 27.9688 86.5881 27.9688C86.7303 27.9688 87.0146 27.9687 87.1554 27.8323H90.4255H90.7098C90.9956 27.9674 91.28 27.9674 91.5643 27.9674C91.8473 27.9674 92.1316 27.9674 92.4174 27.8309H99.0998C99.2419 27.8309 99.2419 27.8309 99.3841 27.8309C99.6671 27.8309 99.8107 27.8309 100.095 27.8309C100.806 27.8309 101.373 27.5607 101.943 27.1553C102.085 27.0202 102.228 27.0202 102.228 26.8851L102.37 26.7513C102.654 26.3459 102.796 25.9406 102.796 25.5352C102.796 25.4001 102.796 25.1298 102.654 24.9961L103.081 22.4288L102.796 22.022ZM74.0764 22.9679C73.9342 22.4274 73.6499 22.1572 73.0812 22.1572C72.7968 22.1572 72.6532 22.1572 72.5125 22.2936C72.3703 22.4288 72.2281 22.5639 72.2281 22.8328C72.2281 22.9692 72.2281 23.103 72.3717 23.2395C72.5125 23.3733 72.6546 23.5084 72.939 23.7786L73.3655 24.0489C73.6499 24.184 73.7935 24.3191 73.9342 24.5894C74.0764 24.7245 74.0764 24.9947 74.0764 25.1285C74.0764 25.5339 73.9342 25.9406 73.5091 26.2095C73.0812 26.4811 72.6546 26.6162 72.2281 26.6162C72.0859 26.6162 71.9437 26.6162 71.6594 26.6162L71.2329 26.4811L70.8063 26.3459L71.0907 25.4001C71.0907 25.5352 71.0907 25.5352 71.2329 25.6703C71.2329 25.6703 71.2329 25.8054 71.375 25.8054C71.375 25.9419 71.5172 25.9419 71.5172 26.0757C71.6594 26.2108 71.9437 26.3459 72.2281 26.3459C72.5125 26.3459 72.7968 26.2095 72.939 26.0757C73.0826 25.9406 73.2234 25.6703 73.2234 25.4001C73.2234 25.265 73.2234 24.9947 73.0812 24.8596L72.939 24.7245L72.7968 24.5894L72.3703 24.3191C72.0859 24.0489 71.8016 23.9137 71.6594 23.6435C71.5172 23.507 71.5172 23.2381 71.5172 22.9679C71.5172 22.5625 71.6594 22.2923 71.9437 22.022C72.2281 21.7518 72.6546 21.6167 73.0826 21.6167C73.2248 21.6167 73.3655 21.6167 73.5091 21.6167L73.9357 21.7518H74.0778V22.9679H74.0764ZM78.4839 26.0757C78.0574 26.4811 77.4887 26.7513 76.7778 26.7513C76.2091 26.7513 75.7826 26.6162 75.356 26.2108C74.9295 25.9419 74.7873 25.4001 74.7873 24.8596V24.5894C74.9295 24.0489 75.2138 23.5084 75.6404 23.103C75.9247 22.9679 76.2077 22.6976 76.4934 22.6976C76.7778 22.5625 77.0622 22.5625 77.4887 22.5625C78.0574 22.5625 78.4839 22.6976 78.7683 23.1017C79.0512 23.3719 79.3356 23.7773 79.3356 24.3178C79.337 24.9947 79.0527 25.5352 78.4839 26.0757ZM80.6166 26.6162H79.4792C79.6214 26.4811 79.6214 26.4811 79.6214 26.3459C79.6214 26.2095 79.6214 26.2095 79.7635 25.9406L80.6166 21.0762V20.8059V20.6708C80.6166 20.5357 80.6166 20.5357 80.473 20.4006H81.4683L80.6166 25.9406V26.2108C80.6166 26.3459 80.6166 26.4811 80.6166 26.6162ZM85.1663 26.0757V26.3459C85.1663 26.4811 85.1663 26.4811 85.3085 26.6162H84.3132L84.4568 26.0757L84.1725 26.3459C83.8867 26.6162 83.4602 26.7513 82.8915 26.7513C82.4649 26.7513 82.1806 26.6162 82.0384 26.4811C81.754 26.3459 81.754 26.0757 81.754 25.9419C81.754 25.8054 81.754 25.8054 81.754 25.6717C81.754 25.6717 81.754 25.5352 81.754 25.2663L82.0384 23.2395V22.9692C82.0384 22.8328 82.0384 22.699 81.8948 22.5639H82.89L82.4649 24.9947V25.265V25.5352C82.4649 25.9419 82.7493 26.2108 83.318 26.2108C83.4616 26.2108 83.746 26.2108 83.8867 26.0757C84.0289 26.0757 84.1711 25.9406 84.3132 25.8054C84.4568 25.6703 84.4568 25.6703 84.4568 25.5352C84.4568 25.4001 84.599 25.2663 84.599 25.1298L84.8834 23.2395V22.9692C84.8834 22.8328 84.8834 22.699 84.7398 22.5639H85.735L85.1663 26.0757ZM87.7255 26.4811C87.4412 26.6162 87.1568 26.7513 86.8724 26.7513C86.5895 26.7513 86.4459 26.7513 86.3052 26.6162C86.1616 26.4811 86.1616 26.3459 86.1616 26.2108V25.6703L86.5895 23.103H86.1616L86.3037 22.6976H86.5881L86.7303 21.8869L87.5833 21.6167V22.6976H88.4364L88.2942 23.103H87.5833L87.1568 25.8054V26.0757C87.1568 26.2108 87.3004 26.3459 87.4412 26.3459C87.5819 26.3459 87.7255 26.2095 88.0099 26.0757L87.7255 26.4811ZM89.2895 26.6162H88.0099C88.1521 26.4811 88.2942 26.2108 88.2942 25.9406L88.7222 23.2381V22.9679V22.8328C88.7222 22.8328 88.7222 22.6976 88.5786 22.6976H89.5738L89.0051 26.0757V26.3459C89.1473 26.4811 89.1473 26.4811 89.2895 26.6162ZM89.8582 21.7518L89.716 21.8869C89.5738 21.8869 89.5738 21.8869 89.4331 21.8869C89.2895 21.8869 89.1487 21.8869 89.1487 21.7504C89.0051 21.6167 89.0051 21.6167 89.0051 21.4815C89.0051 21.3464 89.0051 21.2127 89.1487 21.0762C89.2909 20.9411 89.4331 20.9411 89.5753 20.9411C89.7174 20.9411 89.8596 20.9411 89.8596 21.0762C90.0018 21.2127 90.0018 21.2127 90.0018 21.4815C90.1425 21.4815 90.0004 21.6167 89.8582 21.7518ZM93.8392 26.0757C93.2705 26.6162 92.7017 26.7513 91.9909 26.7513C91.4221 26.7513 90.9956 26.6162 90.5691 26.2108C90.1425 25.9419 90.0004 25.4001 90.0004 24.8596V24.5894C90.1425 24.0489 90.4269 23.5084 90.8534 23.103C91.1378 22.9679 91.4221 22.6976 91.7065 22.6976C91.9909 22.5625 92.2752 22.5625 92.7017 22.5625C93.269 22.5625 93.697 22.6976 93.9799 23.1017C94.2643 23.3719 94.5486 23.7773 94.5486 24.3178C94.6922 24.9947 94.4079 25.5352 93.8392 26.0757ZM99.0998 23.9137L98.6732 26.0757V26.3459C98.6732 26.4811 98.6732 26.4811 98.6732 26.4811L98.8154 26.6175H97.8202L97.9638 26.077C97.9638 25.8068 98.1059 25.6717 98.1059 25.4014L98.3903 24.0502V23.6449C98.3903 23.2395 98.1059 22.9692 97.6794 22.9692H97.395H97.1107L96.8263 23.1044L96.6827 23.2381C96.5406 23.3733 96.5406 23.3733 96.3984 23.507C96.3984 23.6435 96.2562 23.7773 96.2562 24.0475L95.9718 25.9392V26.2108C95.9718 26.2108 95.9718 26.3473 96.114 26.4811H94.9766C95.1202 26.3459 95.1202 26.2108 95.1202 26.2108C95.1202 26.2108 95.1202 26.0757 95.2624 25.8054L95.6889 23.103V22.8328C95.6889 22.6976 95.6889 22.5639 95.5467 22.4274H96.542L96.3984 22.8328L96.6827 22.6976C96.9671 22.4274 97.3936 22.2923 97.8202 22.2923C98.2467 22.2923 98.5311 22.4274 98.6747 22.5625C98.9576 22.6976 98.9576 22.9679 98.9576 23.103L99.0998 23.9137ZM102.37 23.6435C102.228 23.507 102.228 23.2381 102.086 23.2381C101.943 23.1017 101.659 22.9679 101.518 22.9679C101.375 22.9679 101.09 23.103 100.949 23.2381C100.807 23.3733 100.665 23.507 100.665 23.7773C100.665 23.9137 100.665 24.0475 100.809 24.0475C100.951 24.1826 101.092 24.1826 101.235 24.3178L101.52 24.4529C101.801 24.5894 102.086 24.7245 102.086 24.8596C102.228 24.9947 102.228 25.1298 102.228 25.4001C102.228 25.8054 102.084 26.2108 101.659 26.4811C101.375 26.7513 100.948 26.8864 100.379 26.8864C100.237 26.8864 100.096 26.8864 99.9528 26.8864C99.8107 26.8864 99.5263 26.7513 99.2419 26.6175L99.3855 25.6717C99.5277 25.9419 99.6685 26.2108 99.8121 26.3473C99.9542 26.4824 100.239 26.6175 100.379 26.6175C100.664 26.6175 100.807 26.4811 100.948 26.3473C101.09 26.2108 101.232 25.9419 101.232 25.8068C101.232 25.6717 101.232 25.5366 101.089 25.4014L100.948 25.265L100.522 24.9947C100.237 24.8582 99.9528 24.5894 99.8106 24.4542C99.6685 24.3191 99.5263 24.0489 99.5263 23.9137C99.5263 23.507 99.6685 23.2381 99.9528 22.9679C100.237 22.6976 100.664 22.5625 101.09 22.5625H101.232C101.375 22.5625 101.375 22.5625 101.517 22.5625C101.659 22.5625 101.659 22.5625 101.8 22.5625C101.943 22.5625 101.943 22.5625 102.084 22.6976L102.37 23.6435Z" fill="#DCDCDC"/>
</svg>
