<svg width="97" height="46" viewBox="0 0 97 46" fill="none" xmlns="http://www.w3.org/2000/svg">
<path d="M83.8026 16.3302C83.4182 16.0562 83.0338 15.6908 82.7445 15.4168C82.264 14.9601 81.8806 14.6861 81.5922 14.6861C80.9195 14.6861 80.6312 14.7775 80.3419 15.4168C80.0536 16.1475 79.8614 16.1475 79.3809 18.2482H82.3611L83.8026 16.3302ZM80.3429 19.8922C79.9594 19.8922 79.4789 19.8922 78.9013 19.8922L76.4988 28.5689C76.0182 30.6696 75.2494 32.3136 74.1923 33.4096C73.1351 34.5056 72.4624 34.9623 71.0209 34.9623C69.5793 34.9623 69.6754 34.9623 69.0988 34.6883C68.4261 34.4143 67.9455 34.1403 67.9455 33.5922C67.9455 33.1356 67.9456 32.5876 68.1378 32.3145C68.329 32.0405 69.0017 31.8578 69.3871 31.9492C69.7706 32.0414 70.4442 32.4058 70.6365 32.6798C70.8287 32.9547 71.3092 33.1365 71.5975 33.1365C71.8858 33.1365 71.9819 32.8625 72.1741 32.4058C72.3663 31.9492 72.5585 31.3098 72.6546 30.4878C74.1932 24.0944 74.866 20.7151 74.866 20.4411C74.866 20.1671 74.5767 19.8931 74.001 19.4364C73.8088 19.1624 73.6166 18.9797 73.6166 18.7971C73.6166 18.6144 74.001 18.4317 74.001 18.4317C74.866 18.3404 75.1543 18.5231 75.4426 18.4317C75.7309 18.3404 75.827 17.9751 75.827 17.8837C76.3075 16.1484 76.2104 15.5091 77.4598 14.2304C78.7101 12.9517 80.3429 12.8604 82.0737 12.8604C82.7455 12.8604 83.4182 12.9517 83.9958 13.4084C84.3792 13.7737 84.9568 14.5957 85.3403 15.2351C85.6286 15.3264 86.2052 15.5091 86.5896 15.5091C87.0701 15.6004 86.6867 16.3311 86.6867 16.4224L85.7257 17.9751C85.8218 18.2491 85.9179 18.3404 86.014 18.4317C86.2062 18.5231 86.3984 18.6144 86.6867 18.6144C86.7828 18.6144 87.1672 18.6144 87.1672 18.7057C87.1672 18.7971 87.3594 19.0711 87.3594 19.0711C87.3594 19.2537 87.3594 19.3451 87.1672 19.5278C87.0701 19.7104 86.4945 19.7104 86.3984 19.7104C85.7257 19.8931 85.2451 19.9844 85.1481 20.1671C85.052 20.3498 84.5715 22.0851 83.8987 25.4645C83.8026 25.6471 83.7065 25.8289 83.8987 25.9211C84.0909 26.0125 84.187 25.8289 84.2831 25.8289C84.3792 25.8289 85.1471 25.8289 85.5325 26.0115C85.7247 26.1038 85.6286 26.5605 85.6286 26.6509C85.6286 26.7413 85.4373 27.1075 85.1481 27.6556C84.7637 28.2036 84.3792 28.4776 83.8987 28.7516C83.4182 29.0256 82.9377 29.1169 82.3611 29.1169C81.6883 29.1169 81.303 29.1169 80.6312 28.4776C79.9585 27.9296 80.0536 27.1075 80.1507 26.1942L81.7835 20.1662L80.3429 19.8922ZM19.125 14.4121C19.0289 14.8688 17.8757 14.7775 17.5874 14.9601C17.3951 15.2341 17.1068 15.6908 17.0107 16.2388C15.2809 23.0889 14.4159 26.5595 14.4159 26.6509C14.4159 26.9249 14.512 27.2902 14.7042 27.3815C14.8965 27.5642 15.5692 27.8382 15.5692 28.2036C15.5692 28.568 14.8004 28.6602 13.9354 28.9342C13.0705 29.1169 12.8783 29.2082 11.6289 29.0256C10.4757 28.9342 8.26532 28.5689 8.26532 28.0209C8.26532 27.4729 9.51466 27.3815 9.70687 27.1075C9.89908 26.8335 10.2835 26.2855 10.4757 25.6462L12.8783 16.2388C12.8783 16.1475 13.2627 15.3255 12.7822 14.9601C12.3017 14.5948 11.9172 14.3208 11.9172 14.0468C11.9172 13.7728 12.59 13.4988 13.551 13.4075C14.512 13.3161 15.0887 13.3161 15.6653 13.3161C16.2419 13.3161 16.8185 13.3161 17.6835 13.4075C18.3562 13.6815 19.2211 13.8641 19.125 14.4121ZM40.3639 20.4402C40.9405 19.7095 41.5171 19.3442 42.5742 18.7962C43.6314 18.2482 44.5924 18.2482 45.7457 18.2482C47.3794 18.2482 48.1483 18.7048 49.0132 19.2528C49.8781 19.8922 50.3586 20.5315 50.4547 21.6275C50.5508 22.4495 50.5508 23.3629 50.2625 24.2762C49.9742 25.1895 49.6859 25.9202 49.1093 26.5595C48.5327 27.2902 47.7648 27.8373 46.995 28.3862C46.2262 28.8429 45.4574 28.9342 44.208 29.1169C42.8626 29.2082 41.3249 28.7516 40.5561 28.1113C39.6911 27.4729 39.2106 26.65 39.1145 25.554C39.0184 24.6406 39.0184 23.4533 39.3067 22.6313C39.3067 22.5399 39.4028 22.4486 39.4028 22.2659C39.3067 21.9919 39.2106 21.7179 39.0184 21.7179C38.7301 21.7179 38.2496 21.8093 37.8652 21.7179C37.4808 21.6266 37.1925 21.6266 37.0002 21.6266C36.5197 21.6266 35.5587 23.1793 34.9821 24.184C34.4055 25.1895 33.9249 26.8326 33.2522 28.6593C33.2522 28.7506 32.4834 29.0237 32.0029 29.116C31.5224 29.2073 31.0418 29.116 30.8496 29.116C30.3691 28.9333 30.0808 28.842 29.9847 28.6593C29.7925 28.4766 29.7925 27.1066 29.9847 26.5586C30.4652 24.8233 31.3301 23.0879 31.234 22.4486C30.9457 21.3526 29.6003 21.2613 29.5042 21.2613C29.4081 21.2613 29.312 21.2613 29.2159 21.1699L27.5821 21.2613C27.5821 22.9966 27.1016 24.2753 26.1406 25.006C25.0834 25.7366 23.738 26.1933 21.912 26.1933C21.4315 26.1933 21.7198 26.7413 22.4886 26.924C23.2575 27.198 23.738 27.198 24.3146 27.2893C25.0834 27.472 25.7561 27.746 26.4289 28.2026C27.1016 28.6593 27.486 29.5726 27.486 30.3033C27.486 31.3993 26.6211 32.678 25.3717 33.5C24.1224 34.322 22.7769 34.6873 21.4315 34.6873C19.7016 34.6873 18.4523 34.2307 17.3951 33.6827C16.338 33.1356 15.7614 32.5876 15.7614 31.7656C15.7614 30.9445 15.8575 30.3956 16.338 30.0311C16.8185 29.6658 17.1068 29.2091 18.164 28.7525C17.8757 28.2045 17.7796 28.2045 17.5874 27.7478C17.3951 27.1989 17.2029 26.8345 17.7796 26.2855C18.3562 25.7375 18.4523 25.7375 19.3172 25.0982C18.6445 24.8242 18.0679 22.9975 18.0679 22.3582C18.0679 20.9882 18.3562 20.2575 19.6055 19.1615C20.8549 18.0655 21.912 18.1568 23.2575 18.1568C24.2185 18.1568 25.2756 18.6135 25.8522 18.8875C26.2367 18.8875 26.6211 18.6135 27.0055 18.5222C27.1977 18.4308 27.5821 18.3395 27.9665 18.1568C28.0626 18.1568 29.8886 19.2528 29.9847 19.3442C29.9847 19.3442 29.9847 19.4355 30.0808 19.4355L30.1769 19.3442C31.0418 18.6135 31.8107 18.1568 32.6756 18.1568C33.3483 18.1568 33.9249 18.3395 34.3094 18.6135C34.6938 18.9788 34.5977 19.2528 34.5977 19.8922C34.5977 19.9835 35.0782 20.2575 34.9821 20.3488C35.2704 20.0748 35.6548 19.7095 36.0392 19.2528C36.6158 18.5222 37.5769 18.0655 38.1535 18.0655C38.7301 18.0655 39.2106 18.4308 39.4989 18.7962C39.8834 19.2528 40.1717 19.8922 40.3639 20.4402ZM24.5068 20.8968C24.6029 20.6228 24.5068 20.4402 24.5068 20.2575C24.4107 20.0748 24.3146 19.9835 24.1224 19.8922C23.738 19.8008 23.2575 20.1662 22.5847 20.9882C21.912 21.8102 21.5276 22.6322 21.3354 23.6369C21.2393 23.9109 21.3354 24.0935 21.3354 24.2762C21.4315 24.458 21.5276 24.5502 21.8159 24.6406C22.2964 24.7329 22.873 24.3666 23.4497 23.5446C23.9302 22.6322 24.3146 21.8102 24.5068 20.8968ZM24.0263 31.2176C24.0263 30.6696 23.6419 30.3042 22.9691 30.0302C22.2003 29.8476 22.1042 29.8476 20.8549 29.8476C20.2782 30.0302 19.5094 30.3956 19.125 30.6696C18.8367 30.9436 18.3562 31.308 18.3562 31.5829C18.3562 31.8569 18.5484 32.3136 19.0289 32.5876C19.5094 32.9529 20.086 32.9529 21.0471 32.9529C21.912 32.9529 22.4886 32.5876 22.9691 32.2213C23.5458 32.0396 24.0263 31.6742 24.0263 31.2176ZM45.7457 19.8922C45.3612 19.8922 44.9768 20.1662 44.4963 20.6228C44.1119 21.0795 43.8236 21.8102 43.4392 22.6322C43.0548 23.3629 42.9587 23.9109 42.7665 25.0069C42.5742 26.1029 42.8626 27.3815 43.0548 27.5642C43.247 27.7469 43.6314 27.7469 43.8236 27.7469C44.3041 27.6546 44.5924 27.4729 45.0729 26.9249C45.5535 26.3769 45.6496 26.1038 46.034 25.3722C46.4184 24.6415 46.6106 23.9109 46.7067 22.9062C46.7067 21.8102 46.4184 19.8922 45.7457 19.8922ZM60.2573 19.9835C60.2573 20.3488 60.2573 21.0795 60.2573 21.4448C60.2573 21.8102 60.2573 22.0842 59.4885 22.0842C58.8157 22.0842 58.7187 21.6275 58.6235 21.2622C58.5284 20.8968 58.6235 20.6228 58.4313 20.3488C58.2391 20.0748 57.7586 19.8008 57.182 19.8008C56.6054 19.8008 56.2209 19.9835 55.6443 20.4402C55.1638 20.9882 55.4521 21.2622 55.8356 21.6275C56.22 21.9929 57.3742 22.3582 57.8547 22.6322C58.4313 22.9975 59.104 23.2715 59.4885 23.9109C59.8719 24.6415 59.8719 25.0069 59.8719 25.9202C59.8719 26.8335 59.1031 27.7469 58.2381 28.3862C57.3742 29.0246 55.8356 29.1169 54.5862 29.1169C54.0096 29.1169 52.7612 28.9342 51.0304 28.568C51.1275 27.3806 51.2226 26.5595 51.2226 26.1933C51.3197 25.554 51.1265 25.1886 51.3197 25.1886C51.8963 25.0982 52.1846 25.4635 52.4729 25.7375C52.7622 26.0115 52.9534 26.2855 53.1456 26.5595C53.3378 26.8335 53.7232 27.0162 53.9145 27.2902C54.1067 27.5642 55.0677 27.5642 55.356 27.3815C55.8365 27.1075 56.4141 26.5605 56.4141 26.2855C56.4141 26.0115 56.317 25.8289 55.7414 25.4645C55.2609 25.0991 54.9726 24.9155 54.3959 24.6424C53.8193 24.3684 53.0514 23.7291 52.7631 23.1811C52.3787 22.7244 52.2826 22.2678 52.2826 21.8111C52.2826 20.9891 52.4739 19.9844 53.2437 19.2537C54.0125 18.5231 54.493 18.0664 56.5102 18.1577C57.3751 18.2491 59.105 18.7057 59.9709 18.7057C60.2573 19.4355 60.2573 19.5268 60.2573 19.9835ZM72.1741 22.1755C72.1741 22.9975 72.078 24.3675 71.7906 25.1895C71.5014 26.0115 70.7326 26.9249 70.1559 27.4729C69.4832 28.1113 68.8105 28.3862 68.0417 28.8429C67.2728 29.2082 66.2157 29.3909 64.8702 29.2996C63.5248 29.2073 62.6599 28.4776 61.891 27.7469C61.1222 27.0162 60.8339 26.1942 60.8339 25.1895C60.8339 24.3675 61.0261 23.5446 61.3144 22.8139C61.6027 22.0833 62.0832 21.3526 62.756 20.6219C63.3336 19.9826 64.1014 19.4346 64.9663 19.0693C65.8313 18.7039 66.7923 18.4299 67.9465 18.4299C69.1959 18.4299 70.252 18.7953 70.9257 19.4346C71.5975 20.0748 72.1741 21.1708 72.1741 22.1755ZM68.4261 20.3488C68.329 19.9835 68.2339 19.8922 68.0417 19.8922C67.6582 19.8922 67.0806 20.2575 66.6001 20.7142C66.2157 21.1708 65.7352 21.6275 65.3508 22.3582C64.9663 23.0889 64.7741 23.8204 64.5819 24.5502C64.3897 25.28 64.5819 27.1075 64.678 27.2902C64.7751 27.4729 64.9663 27.7469 65.2556 27.7469C65.6391 27.7469 66.2167 27.4729 66.6972 27.0162C67.1777 26.5595 67.5611 25.9202 67.9465 25.1895C68.2348 24.458 68.427 24.2762 68.5231 23.2706C68.5222 22.0842 68.5222 20.7142 68.4261 20.3488ZM48.0521 0.164062C79.8624 0.164062 96.1039 12.2201 96.1039 22.9975C96.1039 33.7749 77.0754 45.831 48.4366 45.831C19.7977 45.831 0.096525 34.5056 0.00042153 22.9975C-0.0956819 11.4895 16.2419 0.164062 48.0521 0.164062ZM48.2444 3.26941C17.8757 3.26941 1.73028 14.2295 2.01859 23.6369C2.3069 33.0442 20.8549 42.6343 48.2444 42.6343C75.6338 42.6343 93.8935 31.9482 93.8935 22.9975C93.8935 14.0468 78.7091 3.26941 48.2444 3.26941ZM93.7974 7.19677C94.2779 6.64877 94.5662 5.91809 94.5662 5.09609C94.5662 3.26941 93.0276 1.80807 91.1055 1.80807C90.3367 1.80807 89.664 2.08207 89.0873 2.44741C91.7782 2.26474 93.1237 2.81274 93.1237 4.00008C93.1237 5.18742 92.7393 4.73075 92.7393 5.73543C92.7402 6.1921 93.1247 6.7401 93.7974 7.19677ZM92.548 8.20144C92.1636 7.5621 91.8753 7.19677 91.6831 6.92277C91.3948 6.64877 91.1065 6.4661 90.626 6.10076C90.4338 6.64877 90.3377 7.0141 90.2425 7.2881C90.1455 7.5621 89.9532 7.74477 89.6649 8.11011C90.1455 8.38411 90.7221 8.47544 91.2987 8.47544C91.587 8.47544 92.0675 8.38411 92.548 8.20144ZM88.2234 7.0141C88.5117 6.7401 88.7039 6.28343 88.7039 5.82676C88.801 5.27876 88.7039 4.27409 88.5117 2.90408C87.9351 3.45208 87.5507 4.27409 87.5507 5.18742C87.5507 5.82676 87.839 6.4661 88.2234 7.0141ZM91.1065 0.164062C93.8935 0.164062 96.1039 2.26474 96.1039 4.91342C96.1039 7.5621 93.8935 9.66278 91.1065 9.66278C88.3204 9.66278 86.1091 7.5621 86.1091 4.91342C86.1091 2.26474 88.3195 0.164062 91.1065 0.164062ZM90.4338 3.72608V4.73075C91.0104 4.63942 91.2987 4.45675 91.2987 4.09142C91.2987 3.72608 91.0104 3.63475 90.4338 3.72608Z" fill="white"/>
</svg>
