<svg width="147" height="38" viewBox="0 0 147 38" fill="none" xmlns="http://www.w3.org/2000/svg">
<path d="M7.17664 2.85763V13.5682H4.13102V0.588949V0.556462H9.23527C10.9167 0.556462 11.9643 1.12025 12.5975 1.70366C13.1516 2.22819 13.7448 3.18114 13.7448 4.62005C13.7448 5.43696 13.5673 6.44609 12.7166 7.263C12.2616 7.69074 11.6091 8.07517 10.8775 8.25047L14.9314 13.5513H11.2134L7.64123 8.47517V6.37705H8.34602C8.90008 6.37705 9.65168 6.34863 10.1658 5.84305C10.3833 5.62917 10.66 5.25083 10.66 4.60922C10.66 3.87014 10.3042 3.42885 10.0467 3.23461C9.55256 2.86507 8.76174 2.85763 8.36598 2.85763H7.17664ZM3.21011 0.566614V13.5682H0.164498V0.566614H3.21011ZM31.9855 0.560523H34.9568V13.5675H32.3696L28.0809 8.73913C27.796 9.90595 27.193 11.0254 26.2219 11.954C24.9961 13.1208 23.3346 13.8599 21.1197 13.8599C18.6474 13.8599 16.9673 12.8873 15.9783 11.954C14.7126 10.7872 13.9224 9.03693 13.9224 7.13102C13.9224 5.26369 14.7752 3.37742 15.9618 2.21059C16.8517 1.33547 18.4974 0.304688 21.128 0.304688C23.1852 0.304688 24.8825 0.959842 26.2398 2.19096C26.9329 2.8204 31.9855 8.40478 31.9855 8.40478V0.560523ZM24.007 9.98988C24.5212 9.50393 25.1544 8.58955 25.1537 7.09244C25.1537 5.751 24.5996 4.75879 24.0063 4.17538C23.3538 3.55271 22.3056 3.06676 21.0991 3.06676C19.9524 3.06676 18.9234 3.47556 18.2117 4.17538C17.6384 4.72021 17.0451 5.67317 17.0451 7.11207C17.0451 8.29852 17.4409 9.25148 18.2517 10.0291C19.1024 10.8264 20.0515 11.0985 21.0798 11.0985C22.4247 11.0985 23.3738 10.6125 24.007 9.98988ZM28.9089 21.7407V21.74H35.8605V21.8862C35.8605 23.5573 35.2775 26.0953 33.7248 27.6838C32.172 29.2723 30.4142 29.5613 28.7568 29.5613C27.0781 29.5613 25.2741 29.2933 23.6374 27.6425C23.4192 27.4225 23.1721 27.1423 22.9257 26.7985C22.9244 26.8006 22.923 26.8019 22.9216 26.8039L22.9209 26.7918C22.9161 26.7857 22.912 26.7789 22.9072 26.7721C22.7062 27.0679 22.4873 27.3366 22.2519 27.5606C20.8465 28.9021 19.0212 29.5619 16.8393 29.5619C14.0491 29.5619 12.3084 28.4675 11.3634 27.5403C11.106 27.2879 10.8665 27.0124 10.6455 26.718C10.5086 26.8824 10.3647 27.0401 10.2126 27.1897C8.2827 29.1085 5.86961 29.2533 4.69472 29.2533H0.139031V15.514H4.59079C6.43675 15.514 8.388 15.7699 10.1087 17.3996C10.3159 17.5973 10.51 17.7935 10.6903 18.0155C10.6896 18.0162 10.6896 18.0169 10.6889 18.0176L10.6903 18.0182L10.7185 18.067C10.9195 17.7252 11.1349 17.4287 11.3641 17.204C12.3091 16.2768 14.0498 15.1824 16.84 15.1824C19.0218 15.1824 20.8472 15.843 22.2526 17.1837C22.488 17.4077 22.7062 17.6758 22.9072 17.9715L22.9216 17.9512L22.9223 17.939C22.9237 17.9411 22.9251 17.9424 22.9264 17.9445C23.1728 17.6006 23.4199 17.3204 23.6381 17.1005C25.2748 15.4497 27.0788 15.1817 28.7575 15.1817C30.4149 15.1817 32.1899 15.4707 33.7427 17.0592C34.2513 17.5797 34.6567 18.2023 34.9733 18.8629L32.2505 20.1624C31.9483 19.3373 31.4321 18.8927 31.3378 18.8189C31.0233 18.5509 30.2889 18.0731 28.9041 18.0731C27.8345 18.0731 26.9109 18.339 26.0718 19.1444C25.0264 20.1482 24.6574 21.3935 24.4902 22.3722C24.6574 23.3515 25.0264 24.5982 26.0718 25.6019C26.9102 26.4066 27.8338 26.676 28.9041 26.676C30.2889 26.676 31.0233 26.2043 31.3378 25.9363C31.4425 25.8537 32.0722 25.3278 32.3448 24.3126H28.9089V21.7407ZM8.79409 23.2974C8.84433 23.1579 8.9049 22.9617 8.9751 22.7228C8.95033 22.5827 8.92761 22.4419 8.90834 22.2997C8.69635 20.8561 8.19873 19.8761 7.65293 19.3394C6.604 18.3079 5.24052 18.1536 4.25423 18.1536H3.37392V26.5461H4.25423C4.92598 26.5461 6.39545 26.4973 7.443 25.6297C8.27788 24.9386 8.66194 23.6581 8.79409 23.2974ZM20.5712 24.5677C20.7529 24.2727 21.1004 23.6595 21.3035 22.8162C21.3393 22.6679 21.3723 22.5197 21.404 22.3715C21.3723 22.2233 21.3393 22.075 21.3035 21.9268C21.1004 21.0835 20.7529 20.4703 20.5712 20.1752C20.3743 19.8192 20.1417 19.5221 19.9028 19.2873C19.2104 18.6267 18.0982 18.111 16.8187 18.111C15.6011 18.111 14.5102 18.5448 13.7552 19.2873C13.6058 19.4294 13.4558 19.5986 13.3133 19.7942L13.3195 19.7955C13.3195 19.7955 12.6698 20.7119 12.2499 22.3722C12.6698 24.0317 13.3195 24.9481 13.3195 24.9481L13.3133 24.9488C13.4558 25.1444 13.6058 25.3136 13.7552 25.4557C14.5109 26.1989 15.6018 26.632 16.8187 26.632C18.0982 26.632 19.2104 26.1156 19.9028 25.4557C20.1417 25.2215 20.3743 24.9238 20.5712 24.5677ZM3.18809 32.5589C3.10205 32.3897 2.95889 32.2022 2.81573 32.0898C2.69184 31.9958 2.46265 31.8739 2.09993 31.8739C1.47015 31.8739 1.03104 32.2584 1.03104 32.8404C1.03104 33.0841 1.0978 33.2249 1.26918 33.3846C1.45983 33.5721 1.69866 33.6756 1.93681 33.7785L2.5473 34.0411C2.91966 34.2008 3.26311 34.3694 3.53016 34.632C3.85434 34.9507 3.98786 35.3169 3.98786 35.767C3.98786 36.9209 3.11926 37.6905 1.97466 37.6905C1.55481 37.6905 1.03035 37.6059 0.591228 37.1835C0.275998 36.883 0.0853461 36.4519 0 36.0763L0.686898 35.8888C0.734389 36.217 0.887186 36.4986 1.0682 36.6861C1.34489 36.9582 1.65943 37.0333 1.9843 37.0333C2.8529 37.0333 3.26311 36.4235 3.26311 35.7947C3.26311 35.5132 3.17708 35.2695 2.94788 35.0631C2.76686 34.8939 2.5184 34.7815 2.18458 34.6313L1.61194 34.3687C1.36416 34.2563 1.04893 34.125 0.762608 33.8529C0.485922 33.5903 0.323489 33.2993 0.323489 32.8303C0.323489 31.8638 1.07715 31.2168 2.1075 31.2168C2.49844 31.2168 2.81367 31.2919 3.12821 31.4983C3.38562 31.6675 3.60518 31.9206 3.74834 32.1927L3.18809 32.5589ZM7.50082 31.9768V37.5781H6.79465V31.9768H5.24878V31.3203H9.04599V31.9768H7.50082ZM11.7564 35.1572C11.7564 35.6824 11.7564 36.255 12.2623 36.6773C12.5197 36.8932 12.9588 37.034 13.3119 37.034C13.665 37.034 14.1041 36.8932 14.3615 36.6773C14.8674 36.255 14.8674 35.683 14.8674 35.1572V31.3196H15.5736V35.3446C15.5736 35.8698 15.5165 36.3768 15.173 36.8458C14.7917 37.3615 14.1234 37.6905 13.3126 37.6905C12.5018 37.6905 11.8335 37.3622 11.4522 36.8458C11.1088 36.3768 11.0516 35.8698 11.0516 35.3446V31.3196H11.7578V35.1572H11.7564ZM18.2634 31.3203H19.5608C20.2002 31.3203 21.1066 31.386 21.9078 32.0519C22.4901 32.5304 22.9953 33.3277 22.9953 34.4539C22.9953 35.7676 22.3366 36.4709 21.8789 36.856C21.2966 37.3439 20.6861 37.5781 19.5511 37.5781H18.2634V31.3203ZM18.9695 36.9216H19.5897C20.0956 36.9216 20.7921 36.8654 21.4122 36.3585C21.8892 35.9646 22.2712 35.3453 22.2712 34.4539C22.2712 32.9528 21.2023 31.9768 19.5904 31.9768H18.9702V36.9216H18.9695ZM26.0491 31.3203V37.5781H25.343V31.3203H26.0491ZM28.3961 34.4539C28.3961 32.5866 29.8753 31.2168 31.7068 31.2168C33.5382 31.2168 35.0174 32.5866 35.0174 34.4539C35.0174 36.3118 33.5479 37.6911 31.7068 37.6911C29.8656 37.6911 28.3961 36.3118 28.3961 34.4539ZM29.1209 34.4539C29.1209 35.8895 30.2751 37.034 31.7068 37.034C33.1384 37.034 34.2926 35.8895 34.2926 34.4539C34.2926 33.0184 33.1384 31.8739 31.7068 31.8739C30.2751 31.8739 29.1209 33.0184 29.1209 34.4539Z" fill="white"/>
<path d="M55.4471 20.1094H58.3631V7.50937H55.4471V20.1094ZM72.5134 20.1094L69.6874 16.0594C71.3254 15.3574 72.2794 13.9714 72.2794 12.0814C72.2794 9.25537 70.1734 7.50937 66.8074 7.50937H61.3534V20.1094H64.2694V16.5994H66.8074H66.9514L69.3814 20.1094H72.5134ZM69.3274 12.0814C69.3274 13.4494 68.4274 14.2774 66.6454 14.2774H64.2694V9.88537H66.6454C68.4274 9.88537 69.3274 10.6954 69.3274 12.0814ZM80.6917 20.3254C84.6517 20.3254 87.5857 17.5714 87.5857 13.8094C87.5857 10.0474 84.6517 7.29337 80.6917 7.29337C76.7137 7.29337 73.7977 10.0654 73.7977 13.8094C73.7977 17.5534 76.7137 20.3254 80.6917 20.3254ZM80.6917 17.8414C78.4417 17.8414 76.7497 16.2034 76.7497 13.8094C76.7497 11.4154 78.4417 9.77737 80.6917 9.77737C82.9417 9.77737 84.6337 11.4154 84.6337 13.8094C84.6337 16.2034 82.9417 17.8414 80.6917 17.8414ZM98.4532 7.50937V15.1594L92.1892 7.50937H89.7772V20.1094H92.6572V12.4594L98.9392 20.1094H101.333V7.50937H98.4532ZM104.314 20.1094H110.038C114.16 20.1094 116.986 17.6254 116.986 13.8094C116.986 9.99337 114.16 7.50937 110.038 7.50937H104.314V20.1094ZM107.23 17.7154V9.90337H109.894C112.396 9.90337 114.034 11.3974 114.034 13.8094C114.034 16.2214 112.396 17.7154 109.894 17.7154H107.23ZM125.287 20.3254C129.247 20.3254 132.181 17.5714 132.181 13.8094C132.181 10.0474 129.247 7.29337 125.287 7.29337C121.309 7.29337 118.393 10.0654 118.393 13.8094C118.393 17.5534 121.309 20.3254 125.287 20.3254ZM125.287 17.8414C123.037 17.8414 121.345 16.2034 121.345 13.8094C121.345 11.4154 123.037 9.77737 125.287 9.77737C127.537 9.77737 129.229 11.4154 129.229 13.8094C129.229 16.2034 127.537 17.8414 125.287 17.8414ZM142.887 17.3014C142.149 17.6974 141.411 17.8414 140.619 17.8414C138.207 17.8414 136.533 16.1674 136.533 13.8094C136.533 11.4154 138.207 9.77737 140.655 9.77737C141.933 9.77737 142.995 10.2274 143.913 11.1994L145.785 9.47137C144.561 8.04937 142.725 7.29337 140.511 7.29337C136.497 7.29337 133.581 10.0114 133.581 13.8094C133.581 17.6074 136.497 20.3254 140.457 20.3254C142.257 20.3254 144.165 19.7674 145.551 18.7234V13.6114H142.887V17.3014Z" fill="white"/>
<path d="M57.0231 32.9467C56.5031 32.9467 56.0031 32.8634 55.5231 32.6967C55.0498 32.5301 54.6831 32.3101 54.4231 32.0367L54.7131 31.4667C54.9665 31.7201 55.3031 31.9267 55.7231 32.0867C56.1431 32.2401 56.5765 32.3167 57.0231 32.3167C57.6498 32.3167 58.1198 32.2034 58.4331 31.9767C58.7465 31.7434 58.9031 31.4434 58.9031 31.0767C58.9031 30.7967 58.8165 30.5734 58.6431 30.4067C58.4765 30.2401 58.2698 30.1134 58.0231 30.0267C57.7765 29.9334 57.4331 29.8334 56.9931 29.7267C56.4665 29.5934 56.0465 29.4667 55.7331 29.3467C55.4198 29.2201 55.1498 29.0301 54.9231 28.7767C54.7031 28.5234 54.5931 28.1801 54.5931 27.7467C54.5931 27.3934 54.6865 27.0734 54.8731 26.7867C55.0598 26.4934 55.3465 26.2601 55.7331 26.0867C56.1198 25.9134 56.5998 25.8267 57.1731 25.8267C57.5731 25.8267 57.9631 25.8834 58.3431 25.9967C58.7298 26.1034 59.0631 26.2534 59.3431 26.4467L59.0931 27.0367C58.7998 26.8434 58.4865 26.7001 58.1531 26.6067C57.8198 26.5067 57.4931 26.4567 57.1731 26.4567C56.5598 26.4567 56.0965 26.5767 55.7831 26.8167C55.4765 27.0501 55.3231 27.3534 55.3231 27.7267C55.3231 28.0067 55.4065 28.2334 55.5731 28.4067C55.7465 28.5734 55.9598 28.7034 56.2131 28.7967C56.4731 28.8834 56.8198 28.9801 57.2531 29.0867C57.7665 29.2134 58.1798 29.3401 58.4931 29.4667C58.8131 29.5867 59.0831 29.7734 59.3031 30.0267C59.5231 30.2734 59.6331 30.6101 59.6331 31.0367C59.6331 31.3901 59.5365 31.7134 59.3431 32.0067C59.1565 32.2934 58.8665 32.5234 58.4731 32.6967C58.0798 32.8634 57.5965 32.9467 57.0231 32.9467ZM62.5078 26.5267H60.0478V25.8867H65.7078V26.5267H63.2478V32.8867H62.5078V26.5267ZM69.5733 32.9467C68.6666 32.9467 67.9599 32.6867 67.4533 32.1667C66.9466 31.6467 66.6933 30.8901 66.6933 29.8967V25.8867H67.4333V29.8667C67.4333 30.6801 67.6166 31.2867 67.9833 31.6867C68.3499 32.0867 68.8799 32.2867 69.5733 32.2867C70.2733 32.2867 70.8066 32.0867 71.1733 31.6867C71.5399 31.2867 71.7233 30.6801 71.7233 29.8667V25.8867H72.4433V29.8967C72.4433 30.8901 72.1899 31.6467 71.6833 32.1667C71.1833 32.6867 70.4799 32.9467 69.5733 32.9467ZM74.6732 25.8867H77.5232C78.2632 25.8867 78.9165 26.0367 79.4832 26.3367C80.0499 26.6301 80.4899 27.0434 80.8032 27.5767C81.1165 28.1034 81.2732 28.7067 81.2732 29.3867C81.2732 30.0667 81.1165 30.6734 80.8032 31.2067C80.4899 31.7334 80.0499 32.1467 79.4832 32.4467C78.9165 32.7401 78.2632 32.8867 77.5232 32.8867H74.6732V25.8867ZM77.4832 32.2467C78.0965 32.2467 78.6332 32.1267 79.0932 31.8867C79.5532 31.6401 79.9099 31.3034 80.1632 30.8767C80.4165 30.4434 80.5432 29.9467 80.5432 29.3867C80.5432 28.8267 80.4165 28.3334 80.1632 27.9067C79.9099 27.4734 79.5532 27.1367 79.0932 26.8967C78.6332 26.6501 78.0965 26.5267 77.4832 26.5267H75.4132V32.2467H77.4832ZM82.9349 25.8867H83.6749V32.8867H82.9349V25.8867ZM89.0125 32.9467C88.3192 32.9467 87.6892 32.7934 87.1225 32.4867C86.5625 32.1734 86.1225 31.7467 85.8025 31.2067C85.4892 30.6667 85.3325 30.0601 85.3325 29.3867C85.3325 28.7134 85.4892 28.1067 85.8025 27.5667C86.1225 27.0267 86.5625 26.6034 87.1225 26.2967C87.6892 25.9834 88.3192 25.8267 89.0125 25.8267C89.7058 25.8267 90.3292 25.9801 90.8825 26.2867C91.4425 26.5934 91.8825 27.0201 92.2025 27.5667C92.5225 28.1067 92.6825 28.7134 92.6825 29.3867C92.6825 30.0601 92.5225 30.6701 92.2025 31.2167C91.8825 31.7567 91.4425 32.1801 90.8825 32.4867C90.3292 32.7934 89.7058 32.9467 89.0125 32.9467ZM89.0125 32.2867C89.5658 32.2867 90.0658 32.1634 90.5125 31.9167C90.9592 31.6634 91.3092 31.3167 91.5625 30.8767C91.8158 30.4301 91.9425 29.9334 91.9425 29.3867C91.9425 28.8401 91.8158 28.3467 91.5625 27.9067C91.3092 27.4601 90.9592 27.1134 90.5125 26.8667C90.0658 26.6134 89.5658 26.4867 89.0125 26.4867C88.4592 26.4867 87.9558 26.6134 87.5025 26.8667C87.0558 27.1134 86.7025 27.4601 86.4425 27.9067C86.1892 28.3467 86.0625 28.8401 86.0625 29.3867C86.0625 29.9334 86.1892 30.4301 86.4425 30.8767C86.7025 31.3167 87.0558 31.6634 87.5025 31.9167C87.9558 32.1634 88.4592 32.2867 89.0125 32.2867Z" fill="white"/>
</svg>
