<svg width="123" height="34" viewBox="0 0 123 34" fill="none" xmlns="http://www.w3.org/2000/svg">
<path d="M42.5547 2.50781H46.4831L50.6733 9.6949H50.8043L54.9945 2.50781H58.9229V16.6341H56.4349V5.60569H56.304L51.9828 12.6689H49.6258L45.3045 5.72961H45.1736V16.6341H42.6856L42.5547 2.50781Z" fill="white"/>
<path d="M59.0539 16.7581H56.304V5.72961L51.9828 12.7928H49.4948L45.3045 5.72961V16.6341H42.5547V2.50781H46.614L50.8043 9.69489L54.9945 2.50781H59.0539V16.7581ZM56.5659 16.5102H58.9229V2.63173H55.1255L50.9352 9.81881H50.6733L46.4831 2.63173H42.6856V16.5102H45.0427V5.60569H45.3045L49.6258 12.6689H51.8518L56.1731 5.60569H56.435L56.5659 16.5102Z" fill="white"/>
<path d="M64.293 16.7583C63.2454 16.7583 62.5907 16.5104 62.0669 16.0148C61.5431 15.3952 61.2812 14.6517 61.2812 13.9082C61.2812 12.9169 61.6741 12.1734 62.3288 11.5538C62.9835 11.0582 64.0311 10.6864 65.4715 10.5625L67.9595 10.4386V10.0668C67.9595 9.6951 67.9595 9.44727 67.8285 9.07553C67.8285 8.8277 67.6976 8.57987 67.4357 8.45595C67.1738 8.33204 66.9119 8.20812 66.65 8.08421C66.2572 7.96029 65.8644 7.96029 65.4715 7.96029C64.9477 7.96029 64.4239 7.96029 63.9002 8.08421C63.3764 8.20812 62.7217 8.20812 62.0669 8.33204L61.936 6.47331C63.2454 6.22548 64.5549 6.10156 65.9953 6.10156C67.5667 6.10156 68.7452 6.34939 69.5308 6.96897C70.3165 7.46463 70.7093 8.45595 70.7093 9.57119V16.5104H68.4833L68.2214 15.2713H68.0904C66.9119 16.2626 65.6025 16.7583 64.293 16.7583ZM65.4715 14.8995C65.8644 14.8995 66.3881 14.7756 66.781 14.6517C67.1738 14.5278 67.5667 14.28 67.9595 14.0321V11.9256L66.2572 12.0495C65.4715 12.1734 64.9477 12.2973 64.5549 12.5452C64.1621 12.793 64.0311 13.2886 64.0311 13.6604C64.0311 14.4039 64.424 14.8995 65.4715 14.8995Z" fill="white"/>
<path d="M64.2989 16.8804C63.2514 16.8804 62.4657 16.6326 61.9419 16.137C61.4181 15.6413 61.1562 14.8978 61.1562 13.9065C61.1562 12.9152 61.5491 12.0478 62.2038 11.5521C62.8585 11.0564 63.9061 10.6847 65.3465 10.5608L67.8345 10.4369V10.189C67.8345 9.9412 67.8345 9.56945 67.7035 9.32162C67.7035 9.07379 67.5726 8.94988 67.3107 8.82596C67.0488 8.70204 66.9179 8.57813 66.656 8.57813C65.7394 8.45421 64.8227 8.45421 63.9061 8.57813C63.3823 8.57813 62.7276 8.70204 62.0729 8.82596H61.9419L61.811 6.7194H61.9419C63.2514 6.47157 64.6918 6.34766 66.0012 6.34766C67.5726 6.34766 68.8821 6.59549 69.6677 7.21506C70.4534 7.83464 70.8462 8.70204 70.8462 9.9412V17.0044H68.3583L68.0964 15.7652C66.9179 16.3848 65.6084 16.7565 64.2989 16.8804ZM65.4775 8.08247C65.8703 8.08247 66.2631 8.08247 66.656 8.20638C66.9179 8.20638 67.1798 8.3303 67.4417 8.57813C67.7035 8.70204 67.8345 8.94987 67.8345 9.19771C67.9654 9.56945 67.9654 9.81728 67.9654 10.189V10.5608L65.3465 10.6847C63.9061 10.8086 62.8585 11.0564 62.3348 11.5521C61.68 12.0478 61.4181 12.7912 61.4181 13.7826C61.4181 14.5261 61.68 15.2696 62.2038 15.8891C62.7276 16.3848 63.3823 16.6326 64.4299 16.6326C65.7394 16.6326 67.0488 16.137 68.0964 15.2696H68.3583L68.6202 16.5087H70.7153V9.56945C70.7153 8.45421 70.3225 7.58681 69.5368 7.09115C68.7511 6.59549 67.5726 6.34766 65.8703 6.34766C64.5608 6.34766 63.2514 6.47157 61.9419 6.7194L62.0729 8.45421C62.5967 8.3303 63.2514 8.3303 63.7752 8.20638C64.4299 8.08247 64.9537 8.08247 65.4775 8.08247ZM65.4775 15.0217C64.5608 15.0217 64.0371 14.5261 64.0371 13.6587C64.0371 13.163 64.168 12.7912 64.5608 12.5434C64.8227 12.2956 65.4775 12.1717 66.2631 12.0478L68.0964 11.9238V14.1543C67.7035 14.4021 67.3107 14.65 66.9179 14.7739C66.2631 14.8978 65.8703 14.8978 65.4775 15.0217ZM67.8345 12.0478L66.2631 12.1717C65.4775 12.1717 64.9537 12.4195 64.6918 12.5434C64.4299 12.7912 64.168 13.163 64.2989 13.5347C64.2989 14.2782 64.6918 14.7739 65.6084 14.7739C66.0012 14.7739 66.3941 14.65 66.7869 14.5261C67.1798 14.4021 67.5726 14.1543 67.9654 13.9065L67.8345 12.0478Z" fill="white"/>
<path d="M73.3281 6.34657H75.6851L75.8161 7.58572H75.947C76.7327 7.21398 77.6493 6.84223 78.566 6.5944C79.2207 6.34657 79.8754 6.22266 80.5301 6.22266C81.3158 6.22266 82.1015 6.47049 82.7562 6.96615C83.28 7.46181 83.5419 8.2053 83.5419 9.07271V16.6315H80.6611V9.94011C80.6611 9.44445 80.6611 9.07271 80.3992 8.70096C80.1373 8.45313 79.7445 8.32921 79.3516 8.32921C78.8278 8.32921 78.3041 8.45313 77.9112 8.57704C77.2565 8.70096 76.7327 8.94879 76.2089 9.19662V16.6315H73.4591L73.3281 6.34657Z" fill="white"/>
<path d="M83.54 16.7583H80.6592V9.94293C80.6592 9.57119 80.5283 9.07553 80.3973 8.70378C80.1354 8.45595 79.7426 8.33204 79.3498 8.33204C78.826 8.33204 78.4331 8.45595 77.9094 8.57987C77.3856 8.70378 76.7308 8.95161 76.2071 9.19944V16.7583H73.1953V6.22548H75.6833L75.8142 7.46463C76.5999 7.09288 77.5165 6.72114 78.4331 6.47331C79.0879 6.22548 79.7426 6.10156 80.5283 6.10156C81.314 6.10156 82.2306 6.34939 82.7544 6.84505C83.2781 7.34071 83.54 8.08421 83.54 9.07553V16.7583ZM80.7902 16.5104H83.4091V8.95161C83.4091 8.08421 83.1472 7.34071 82.6234 6.84505C82.0996 6.34939 81.314 6.10156 80.5283 6.10156C79.8735 6.10156 79.2188 6.22548 78.5641 6.34939C77.6475 6.59722 76.7308 6.96897 75.9452 7.34071H75.6833L75.5523 6.10156H73.4572V16.1387H76.0761V8.70378C76.5999 8.45595 77.2546 8.20812 77.7784 8.08421C78.3022 7.96029 78.826 7.83638 79.2188 7.83638C79.6117 7.83638 80.0045 7.96029 80.3973 8.20812C80.6592 8.57987 80.7902 9.07553 80.7902 9.57119V16.5104Z" fill="white"/>
<path d="M91.0094 16.7583C87.3429 16.7583 85.6406 15.0235 85.6406 11.4299C85.6406 7.83638 87.4739 6.10156 91.0094 6.10156C91.5332 6.10156 92.057 6.10156 92.5808 6.22548C93.1045 6.22548 93.4974 6.34939 94.0212 6.47331V8.57987C93.4974 8.45595 93.1045 8.45595 92.5808 8.45595C92.1879 8.45595 91.6641 8.33204 91.2713 8.33204C90.2237 8.33204 89.569 8.57987 89.0452 9.07553C88.6524 9.57119 88.3905 10.3147 88.3905 11.4299C88.3905 12.5452 88.6524 13.4126 89.0452 13.7843C89.4381 14.28 90.2237 14.5278 91.2713 14.5278C91.7951 14.5278 92.3189 14.5278 92.7117 14.5278C93.1045 14.5278 93.6283 14.4039 94.0212 14.4039V16.5104C93.6283 16.6344 93.1045 16.7583 92.5808 16.7583C92.057 16.7583 91.5332 16.7583 91.0094 16.7583Z" fill="white"/>
<path d="M91.0075 16.8822C87.3411 16.8822 85.5078 15.0235 85.5078 11.4299C85.5078 7.83638 87.3411 6.10156 91.0075 6.10156C91.5313 6.10156 92.0551 6.10156 92.5789 6.22548C93.1027 6.22548 93.6265 6.34939 94.0193 6.47331H94.1502V8.70378H94.0193C93.4955 8.57987 93.1027 8.57987 92.5789 8.57987C92.186 8.57987 91.6623 8.45595 91.2694 8.45595C90.2219 8.45595 89.5671 8.70378 89.1743 9.19944C88.7815 9.6951 88.5196 10.4386 88.5196 11.5538C88.5196 12.6691 88.7815 13.4126 89.1743 13.9082C89.5671 14.4039 90.3528 14.6517 91.2694 14.6517C91.7932 14.6517 92.317 14.6517 92.7098 14.6517C93.1027 14.6517 93.6265 14.5278 94.0193 14.5278H94.1502V16.7583H94.0193C93.4955 16.8822 93.1027 17.0061 92.5789 17.0061C92.0551 16.8822 91.5313 16.8822 91.0075 16.8822ZM91.0075 6.22548C87.472 6.22548 85.6388 7.96029 85.6388 11.4299C85.6388 14.8995 87.3411 16.6344 91.0075 16.6344C91.5313 16.6344 92.0551 16.6344 92.5789 16.5104C92.9717 16.5104 93.4955 16.3865 93.8883 16.2626V14.4039C93.4955 14.5278 93.1027 14.5278 92.7098 14.5278C92.317 14.5278 91.7932 14.5278 91.2694 14.5278C90.2219 14.5278 89.4362 14.28 89.0433 13.7843C88.5196 13.2886 88.3886 12.4212 88.3886 11.306C88.3886 10.1908 88.6505 9.32336 89.0433 8.8277C89.4362 8.33204 90.2219 8.08421 91.2694 8.08421C91.6623 8.08421 92.186 8.08421 92.5789 8.20812C93.1027 8.20812 93.4955 8.33204 93.8883 8.33204V6.59722C93.4955 6.47331 92.9717 6.47331 92.5789 6.34939C92.0551 6.34939 91.5313 6.22548 91.0075 6.22548Z" fill="white"/>
<path d="M98.5977 16.7583C97.5501 16.7583 96.8954 16.5104 96.3716 16.0148C95.8478 15.5191 95.5859 14.7756 95.5859 13.9082C95.5859 12.9169 95.9788 12.1734 96.6335 11.5538C97.2882 11.0582 98.3358 10.6864 99.7762 10.5625L102.264 10.4386V10.0668C102.264 9.6951 102.264 9.44727 102.133 9.07553C102.133 8.8277 102.002 8.57987 101.74 8.45595C101.478 8.33204 101.217 8.20812 100.955 8.08421C100.562 7.96029 100.169 7.96029 99.7762 7.96029C99.2524 7.96029 98.7286 7.96029 98.2049 8.08421C97.5501 8.08421 97.0263 8.20812 96.3716 8.33204L96.2407 6.47331C97.5501 6.22548 98.8596 6.10156 100.3 6.10156C101.871 6.10156 103.05 6.34939 103.836 6.96897C104.621 7.46463 105.014 8.45595 105.014 9.57119V16.5104H102.657L102.395 15.2713H102.264C101.217 16.2626 99.9072 16.7583 98.5977 16.7583ZM99.7762 14.8995C100.169 14.8995 100.693 14.7756 101.086 14.6517C101.478 14.5278 101.871 14.28 102.264 14.0321V11.9256L100.562 12.0495C99.7762 12.1734 99.2524 12.2973 98.8596 12.5452C98.4667 12.793 98.3358 13.2886 98.3358 13.6604C98.3358 14.4039 98.8596 14.8995 99.7762 14.8995Z" fill="white"/>
<path d="M98.5958 16.8822C97.5483 16.8822 96.7626 16.6344 96.2388 16.1387C95.715 15.643 95.4531 14.8995 95.4531 13.9082C95.4531 12.9169 95.846 12.0495 96.5007 11.5538C97.1554 11.0582 98.203 10.6864 99.6434 10.5625L102.131 10.4386V10.1908C102.131 9.94293 102.131 9.57119 102 9.32336C102 9.07553 101.869 8.95161 101.608 8.8277C101.346 8.70378 101.215 8.57987 100.953 8.57987C100.036 8.45595 99.1196 8.45595 98.203 8.57987C97.6792 8.57987 97.0245 8.70378 96.3697 8.8277V8.57987L96.2388 6.47331H96.3697C97.6792 6.22548 99.1196 6.10156 100.429 6.10156C102 6.10156 103.31 6.34939 104.096 6.96897C104.881 7.58855 105.274 8.45595 105.274 9.6951V16.7583H102.786L102.524 15.5191C101.215 16.3865 99.9053 16.7583 98.5958 16.8822ZM99.7743 8.08421C100.167 8.08421 100.56 8.08421 100.953 8.20812C101.215 8.20812 101.477 8.33204 101.739 8.57987C102 8.70378 102.131 8.95161 102.131 9.19944C102.262 9.57119 102.262 9.81902 102.262 10.1908V10.5625L99.6434 10.6864C98.203 10.8103 97.1554 11.0582 96.6316 11.5538C95.9769 12.0495 95.715 12.793 95.715 13.7843C95.715 14.5278 95.9769 15.2713 96.5007 15.7669C97.0245 16.2626 97.6792 16.5104 98.7268 16.5104C100.036 16.5104 101.346 16.0148 102.393 15.1474H102.655L102.917 16.3865H105.012V9.44727C105.012 8.33204 104.619 7.46463 103.834 6.96897C103.048 6.47331 101.869 6.10156 100.298 6.10156C98.9887 6.10156 97.6792 6.22548 96.3697 6.47331L96.5007 8.20812C97.0245 8.08421 97.6792 8.08421 98.203 7.96029C98.7268 8.08421 99.2506 8.08421 99.7743 8.08421ZM99.7743 15.0235C98.8577 15.0235 98.3339 14.5278 98.3339 13.6604C98.3339 13.1647 98.4649 12.793 98.8577 12.5452C99.1196 12.2973 99.7743 12.1734 100.56 12.0495L102.393 11.9256V14.1561C102 14.4039 101.608 14.6517 101.215 14.7756C100.56 14.8995 100.167 14.8995 99.7743 15.0235ZM102.131 12.0495L100.56 12.1734C99.7743 12.1734 99.2506 12.4212 98.9887 12.5452C98.7268 12.793 98.4649 13.1647 98.5958 13.5365C98.5958 14.28 98.9887 14.7756 99.9053 14.7756C100.298 14.7756 100.691 14.6517 101.084 14.5278C101.477 14.4039 101.869 14.1561 102.262 13.9082L102.131 12.0495Z" fill="white"/>
<path d="M107.641 1.26953H110.391V16.635H107.641V1.26953Z" fill="white"/>
<path d="M110.52 16.7578H107.508V1.14453H110.52V16.7578ZM107.77 16.51H110.389V1.39236H107.77V16.51Z" fill="white"/>
<path d="M115.488 16.7583C114.441 16.7583 113.786 16.5104 113.262 16.0148C112.738 15.3952 112.477 14.6517 112.477 13.9082C112.477 12.9169 112.738 12.1734 113.524 11.5538C114.179 11.0582 115.226 10.6864 116.667 10.5625L119.286 10.4386V10.0668C119.286 9.6951 119.286 9.44727 119.155 9.07553C119.155 8.8277 119.024 8.57987 118.762 8.45595C118.5 8.33204 118.238 8.20812 117.976 8.08421C117.583 7.96029 117.191 7.96029 116.798 7.96029C116.274 7.96029 115.75 7.96029 115.226 8.08421C114.703 8.20812 114.048 8.20812 113.393 8.33204L113.262 6.47331C114.572 6.22548 115.881 6.10156 117.322 6.10156C118.893 6.10156 120.071 6.34939 120.857 6.96897C121.643 7.46463 122.036 8.45595 122.036 9.57119V16.5104H119.81L119.548 15.2713H119.417C118.107 16.2626 116.798 16.7583 115.488 16.7583ZM116.667 14.8995C117.06 14.8995 117.583 14.7756 117.976 14.6517C118.369 14.5278 118.762 14.28 119.155 14.0321V11.9256L117.452 12.0495C116.667 12.1734 116.143 12.2973 115.75 12.5452C115.357 12.793 115.226 13.2886 115.226 13.6604C115.226 14.4039 115.75 14.8995 116.667 14.8995Z" fill="white"/>
<path d="M115.502 16.8794C114.455 16.8794 113.669 16.6315 113.145 16.1359C112.621 15.6402 112.359 14.8967 112.359 13.9054C112.359 12.9141 112.752 12.0467 113.407 11.551C114.062 11.0553 115.109 10.6836 116.55 10.5597L119.038 10.4358V10.1879C119.038 9.94011 119.038 9.56837 118.907 9.32054C118.907 9.07271 118.776 8.94879 118.514 8.82488C118.252 8.70096 118.121 8.57704 117.859 8.57704C116.942 8.45313 116.026 8.45313 115.109 8.57704C114.585 8.57704 113.931 8.70096 113.276 8.82488H113.145L113.014 6.71832H113.145C114.455 6.47049 115.895 6.34657 117.204 6.34657C118.776 6.34657 120.085 6.5944 120.871 7.21398C121.657 7.83355 122.049 8.70096 122.049 9.94011V17.0033H119.561L119.299 15.7641C118.252 16.2598 116.812 16.7554 115.502 16.8794ZM116.681 8.08138C117.073 8.08138 117.466 8.08138 117.859 8.2053C118.121 8.2053 118.383 8.32921 118.645 8.57704C118.907 8.70096 119.038 8.94879 119.038 9.19662C119.169 9.56837 119.169 9.8162 119.169 10.1879V10.5597L116.55 10.6836C115.109 10.8075 114.062 11.0553 113.538 11.551C112.883 12.0467 112.621 12.7902 112.621 13.7815C112.621 14.525 112.883 15.2685 113.407 15.888C113.931 16.3837 114.585 16.6315 115.633 16.6315C116.942 16.6315 118.252 16.1359 119.299 15.2685H119.561L119.823 16.5076H121.918V9.56837C121.918 8.45313 121.526 7.58572 120.74 7.09006C119.954 6.5944 118.776 6.22266 117.204 6.22266C115.895 6.22266 114.585 6.34657 113.276 6.5944L113.407 8.32921C113.931 8.2053 114.585 8.2053 115.109 8.08138C115.633 8.08138 116.157 8.08138 116.681 8.08138ZM116.681 15.0206C115.764 15.0206 115.24 14.525 115.24 13.6576C115.24 13.1619 115.371 12.7902 115.764 12.5423C116.026 12.2945 116.681 12.1706 117.466 12.0467L119.299 11.9228V14.1532C118.907 14.4011 118.514 14.6489 118.121 14.7728C117.466 14.8967 117.073 14.8967 116.681 15.0206ZM119.038 12.0467L117.466 12.1706C116.681 12.1706 116.157 12.4184 115.895 12.5423C115.633 12.7902 115.371 13.1619 115.502 13.5337C115.502 14.2771 115.895 14.7728 116.812 14.7728C117.204 14.7728 117.597 14.6489 117.99 14.525C118.383 14.4011 118.776 14.1532 119.169 13.9054L119.038 12.0467Z" fill="white"/>
<path d="M28.2843 23.2032C24.094 22.9553 21.4751 20.477 21.4751 16.5118C21.4751 12.5465 24.094 10.0682 28.2843 9.82033C31.0342 9.69642 33.1293 7.71377 32.9984 5.23547C32.8674 2.88108 30.9032 0.898438 28.2843 0.898438C25.6654 0.898438 23.4393 2.75717 23.5703 5.23547C23.7012 8.33335 22.2608 10.1921 19.38 11.1834C16.3682 12.2986 13.7493 11.6791 11.2613 9.82033C10.0828 8.95293 9.55905 7.71377 9.55905 6.22679C9.55905 5.35939 9.4281 4.49198 9.16621 3.74849C8.38053 1.64193 6.02351 0.526692 3.66648 1.02235C1.17851 1.64193 -0.392838 3.99632 0.130946 6.47462C0.654729 8.33335 2.48797 9.82033 4.5831 9.82033C7.46391 9.94425 9.68999 11.0595 10.9995 13.5378C12.047 15.3965 12.047 17.627 10.9995 19.4857C9.68999 21.964 7.33297 23.0793 4.5831 23.2032C1.96419 23.3271 0 25.3097 0 27.788C0.130946 29.7707 1.57135 31.5055 3.66648 32.0012C6.02351 32.6207 8.38053 31.3816 9.16621 29.275C9.4281 28.4076 9.55905 27.6641 9.55905 26.7967C9.55905 25.3097 10.0828 24.0706 11.2613 23.2032C13.7493 21.3444 16.3682 20.7249 19.38 21.8401C22.2608 22.8314 23.7012 24.6902 23.5703 27.788C23.4393 30.3903 25.6654 32.249 28.2843 32.1251C30.7723 32.1251 32.8674 30.1424 32.9984 27.788C32.9984 25.3097 31.0342 23.3271 28.2843 23.2032Z" fill="url(#paint0_linear_5687_42584)"/>
<path d="M16.5031 23.2031C13.8842 23.2031 11.7891 25.3097 11.7891 27.6641C11.7891 30.1424 14.0151 32.125 16.5031 32.125C18.9911 32.125 21.2172 30.0185 21.2172 27.6641C21.2172 25.1858 19.122 23.2031 16.5031 23.2031Z" fill="white"/>
<path d="M4.84686 12.0469C2.22795 12.0469 0.132812 14.0295 0.132812 16.5078C0.132812 18.9861 2.22795 20.9688 4.84686 20.9688C7.46578 20.9688 9.56091 18.9861 9.56091 16.5078V16.3839C9.56091 14.0295 7.46578 12.0469 4.84686 12.0469Z" fill="white"/>
<path d="M33.0042 16.3839C32.8733 13.9056 30.7782 12.0469 28.1592 12.0469C25.5403 12.1708 23.4452 14.2773 23.5761 16.7557C23.7071 19.11 25.6713 20.9688 28.1592 21.0927C30.7782 21.0927 32.8733 19.234 33.0042 16.7557V16.3839Z" fill="white"/>
<path d="M16.5011 9.81803C19.12 9.81803 21.2152 7.71147 21.2152 5.35708C21.2152 3.00269 19.12 1.02005 16.6321 0.896134C14.0132 0.772218 11.7871 2.75486 11.7871 5.23317C11.6561 7.71147 13.7513 9.81803 16.3702 9.81803H16.5011Z" fill="white"/>
<path d="M49.8921 29.0228C49.4992 29.5185 48.9755 29.8902 48.3207 30.0141C47.5351 30.262 46.8803 30.3859 46.0947 30.3859C45.309 30.3859 44.5233 30.262 43.8686 29.8902C43.2138 29.5185 42.6901 29.0228 42.2972 28.2793C41.9044 27.5358 41.7734 26.6684 41.7734 25.9249V25.1814C41.7734 23.6945 42.1663 22.5792 42.952 21.7118C43.7376 20.8444 44.7852 20.4727 46.0947 20.4727C47.2732 20.4727 48.1898 20.7205 48.8445 21.2161C49.4992 21.8357 50.023 22.5792 50.023 23.5705H48.3207C48.0588 22.4553 47.4041 21.8357 46.2256 21.8357C45.5709 21.8357 44.7852 22.0836 44.3924 22.7031C43.9995 23.1988 43.7376 24.0662 43.7376 25.0575V25.801C43.7376 26.7923 43.9995 27.6597 44.3924 28.2793C44.9161 28.8989 45.5709 29.1467 46.3565 29.1467C47.2732 29.1467 47.9279 28.8989 48.3207 28.5271V26.6684H46.2256V25.4293H50.154L49.8921 29.0228Z" fill="white"/>
<path d="M56.4387 30.263C56.3078 30.0152 56.3078 29.7674 56.1769 29.6435C55.6531 30.1391 54.9983 30.5109 54.2127 30.5109C53.5579 30.5109 52.9032 30.263 52.3794 29.8913C51.8556 29.5195 51.5938 28.9 51.5938 28.4043C51.5938 27.6608 51.8556 27.0412 52.5104 26.6695C53.1651 26.2978 53.9508 26.0499 55.1293 26.0499H56.1769V25.5543C56.1769 25.1825 56.0459 24.9347 55.915 24.6869C55.6531 24.439 55.2602 24.3151 54.8674 24.3151C54.4746 24.3151 54.2127 24.439 53.9508 24.5629C53.6889 24.6869 53.5579 24.9347 53.5579 25.3064H51.8556C51.8556 24.9347 51.9866 24.5629 52.2485 24.1912C52.5104 23.8194 52.9032 23.5716 53.427 23.3238C53.9508 23.076 54.4746 22.952 54.9983 23.076C55.784 23.076 56.5697 23.3238 57.0935 23.6955C57.6173 24.1912 57.8791 24.8108 57.8791 25.4303V28.6521C57.8791 29.1478 58.0101 29.7674 58.141 30.263V30.387L56.4387 30.263ZM54.6055 29.0239C54.9983 29.0239 55.2602 28.9 55.5221 28.7761C55.784 28.6521 56.0459 28.4043 56.1769 28.1565V26.7934H55.2602C54.7364 26.7934 54.2127 26.9173 53.8198 27.0412C53.5579 27.2891 53.296 27.5369 53.296 27.9086C53.296 28.1565 53.427 28.4043 53.5579 28.6521C53.9508 29.0239 54.2127 29.1478 54.6055 29.0239Z" fill="white"/>
<path d="M61.417 23.077V23.8205C61.9408 23.201 62.7264 22.9531 63.643 22.9531C64.6906 22.9531 65.3453 23.3249 65.7382 24.0684C66.262 23.3249 67.1786 22.9531 68.0952 22.9531C68.8809 22.9531 69.5356 23.201 69.9284 23.5727C70.3213 24.0684 70.5832 24.6879 70.5832 25.5553V30.2641H68.8809V25.5553C68.8809 25.1836 68.7499 24.8119 68.619 24.564C68.3571 24.3162 67.9643 24.1923 67.5714 24.1923C67.1786 24.1923 66.9167 24.3162 66.6548 24.4401C66.3929 24.6879 66.262 24.9358 66.131 25.1836V30.1402H64.4287V25.4314C64.4287 24.564 63.9049 24.1923 63.1193 24.1923C62.4645 24.1923 61.9407 24.4401 61.6789 24.9358V30.1402H59.9766V22.9531L61.417 23.077Z" fill="white"/>
<path d="M72.5391 21.094C72.5391 20.8461 72.67 20.5983 72.8009 20.4744C72.9319 20.3505 73.1938 20.2266 73.4557 20.2266C73.7176 20.2266 73.9795 20.3505 74.2414 20.4744C74.3723 20.5983 74.5032 20.8461 74.5032 21.094C74.5032 21.3418 74.3723 21.5896 74.2414 21.7135C74.1104 21.8375 73.8485 21.9614 73.4557 21.9614C73.1938 21.9614 72.9319 21.8375 72.8009 21.7135C72.67 21.5896 72.5391 21.3418 72.5391 21.094ZM74.3723 30.2637H72.67V23.0766H74.3723V30.2637Z" fill="white"/>
<path d="M78.0401 23.077V23.9444C78.5639 23.3249 79.3496 22.9531 80.2662 22.9531C81.8375 22.9531 82.6232 23.8205 82.7541 25.5553V30.388H81.0519V25.6793C81.0519 25.3075 80.9209 24.9358 80.79 24.6879C80.5281 24.4401 80.1352 24.3162 79.7424 24.3162C79.0877 24.3162 78.4329 24.6879 78.171 25.1836V30.2641H76.4688V23.077C76.4687 23.077 78.0401 23.077 78.0401 23.077Z" fill="white"/>
<path d="M84.3281 26.5456C84.3281 25.4303 84.59 24.5629 85.1138 23.8194C85.6376 23.1999 86.4233 22.8281 87.3399 22.8281C88.1255 22.8281 88.9112 23.076 89.435 23.6955L89.566 22.952H91.1373V30.0152C91.1373 30.8826 90.8754 31.6261 90.2207 32.2457C89.566 32.8653 88.6493 33.1131 87.7327 33.1131C87.2089 33.1131 86.5542 32.9892 86.0304 32.7413C85.5066 32.6174 85.1138 32.2457 84.8519 31.8739L85.6376 30.8826C86.1614 31.5022 86.8161 31.75 87.6018 31.75C88.1256 31.75 88.5184 31.6261 88.9112 31.2544C89.3041 30.8826 89.435 30.3869 89.435 30.0152V29.6435C88.9112 30.1391 88.2565 30.5109 87.4708 30.3869C86.5542 30.3869 85.7685 30.0152 85.2447 29.3956C84.59 28.6521 84.3281 27.7847 84.3281 26.5456ZM86.0304 26.6695C86.0304 27.2891 86.1614 27.9086 86.5542 28.4043C86.8161 28.7761 87.3399 29.0239 87.8637 29.0239C88.5184 29.0239 89.0422 28.7761 89.435 28.1565V25.0586C89.1731 24.5629 88.5184 24.1912 87.8637 24.1912C87.3399 24.1912 86.8161 24.439 86.5542 24.8108C86.0304 25.4303 85.8995 26.0499 86.0304 26.6695Z" fill="white"/>
<defs>
<linearGradient id="paint0_linear_5687_42584" x1="1.44158" y1="2.24663" x2="29.9654" y2="32.3888" gradientUnits="userSpaceOnUse">
<stop offset="0.02" stop-color="#FFCE00"/>
<stop offset="0.44" stop-color="#FF1C03"/>
<stop offset="1" stop-color="#DE0021"/>
</linearGradient>
</defs>
</svg>
