<svg width="126" height="39" viewBox="0 0 126 39" fill="none" xmlns="http://www.w3.org/2000/svg">
<path d="M0.234375 37.998C0.234375 37.6688 0.234375 37.4495 0.234375 37.23C0.234375 32.5117 0.234375 27.7935 0.234375 23.075C0.234375 17.8081 4.54387 13.858 10.1346 14.1871C11.5322 14.2969 12.9299 14.9552 14.3276 15.3941C14.9099 15.6136 15.0264 15.9428 14.7935 16.4914C14.5605 17.1498 14.2111 17.6984 13.9781 18.4665C12.2311 17.2595 10.484 16.7109 8.38746 17.04C5.47565 17.5887 3.26267 19.893 3.1462 22.7459C3.02973 26.6961 3.1462 30.6462 3.1462 34.7063C14.2111 34.7063 25.2759 34.7063 36.3408 34.7063C36.3408 34.3771 36.3408 34.1576 36.3408 33.8284C36.3408 30.5365 36.3408 27.135 36.3408 23.8431C36.3408 23.4042 36.5738 22.9653 36.9232 22.6362C37.5056 21.9778 38.2044 21.3194 38.9032 20.5513C39.0197 21.5389 39.2526 22.307 39.2526 23.075C39.2526 27.903 39.2526 32.8407 39.2526 37.6688C39.2526 37.7785 39.2526 37.8882 39.2526 38.1077C26.2077 37.998 13.1628 37.998 0.234375 37.998Z" fill="white"/>
<path d="M39.0183 0.801486C39.0183 1.02094 39.0183 1.2404 39.0183 1.35013C39.0183 5.95869 39.0183 10.5673 39.0183 15.1758C38.9018 21.8692 31.3311 26.0388 25.0416 22.747C24.3428 22.4179 24.2263 22.0887 24.4592 21.4303C24.6922 20.8817 25.0416 20.333 25.2745 19.6747C26.7887 20.7719 28.3028 21.2109 30.0499 21.1011C33.0782 20.9914 35.99 18.5774 35.99 15.7245C36.1065 11.6645 35.99 7.71434 35.99 3.6544C35.99 3.6544 35.99 3.54469 35.8735 3.43495C24.9251 3.43495 13.8602 3.43495 2.79534 3.43495C2.79534 3.76414 2.79534 4.09331 2.79534 4.31278C2.79534 7.6046 2.79534 11.0062 2.79534 14.298C2.79534 14.6272 2.5624 15.0661 2.32945 15.3953C1.74709 16.0536 1.04825 16.712 0.349417 17.4801C0.232945 16.6023 0 15.8342 0 15.0661C0 10.3478 0 5.6295 0 0.911215C0 0.801486 -7.14229e-09 0.801486 0.116472 0.582031C13.1614 0.801486 26.0898 0.801486 39.0183 0.801486Z" fill="white"/>
<path d="M5.12544 19.7849C9.78435 22.8573 14.0938 20.4433 15.4915 17.5903C17.0056 14.4082 15.375 10.6775 11.9973 9.58022C11.2985 10.0191 10.8326 10.458 10.2502 10.5678C9.43493 10.8969 8.50315 10.6775 8.15373 10.0191C7.4549 8.81213 5.35839 8.37322 5.94075 6.61757C6.05722 6.06893 6.52311 5.41057 6.989 5.30083C8.15373 4.86193 9.43493 4.64247 10.7161 4.53274C11.7644 4.42302 12.5797 5.30083 12.5797 6.28838C12.5797 6.72729 12.6962 6.94677 13.1621 7.16622C18.1704 9.25103 20.2669 14.7374 17.821 19.2363C15.375 23.6253 9.43493 25.2714 4.77603 22.7475C4.31014 22.5281 4.07719 22.1989 4.31014 21.76C4.54308 21.1016 4.77603 20.4433 5.12544 19.7849Z" fill="white"/>
<path d="M27.4858 28.5635C29.1164 26.808 30.5141 27.0274 31.7953 28.783C31.9117 29.0025 32.1447 29.1122 32.3776 29.222C33.1929 29.7706 33.6588 30.6483 33.3094 31.636C32.96 32.6236 32.1447 33.1721 31.0964 33.1721C30.747 33.1721 30.3976 33.2818 30.0482 33.3915C28.6505 34.05 26.9034 33.2818 26.7869 31.8554C26.6705 31.197 26.3211 30.9775 25.8552 30.7581C22.2444 29.0025 20.3809 26.2593 20.4973 22.5286C20.6138 18.9075 22.5938 16.3838 26.0881 14.8476C28.8834 13.6406 31.6788 13.8601 34.4741 15.1768C35.173 15.506 35.2894 15.9449 35.0565 16.4935C34.8235 17.0422 34.4741 17.5908 34.2412 18.2492C31.5623 16.4935 28.8834 16.1643 26.3211 17.8103C24.1081 19.127 23.1762 21.2118 23.5256 23.6258C23.6421 26.0398 25.1563 27.5761 27.4858 28.5635Z" fill="white"/>
<path d="M20.8481 17.5886C19.4505 13.5286 21.6634 9.02979 25.8565 7.16443C26.4389 6.94497 26.6719 6.72552 26.6719 6.17688C26.7883 4.75042 28.5354 3.98232 29.9331 4.64068C30.2825 4.75042 30.6319 4.86014 30.9813 4.86014C32.0296 4.86014 32.9614 5.51852 33.1943 6.39633C33.4273 7.27417 33.0778 8.26172 32.2625 8.81034C32.0296 8.92008 31.7966 9.02979 31.6802 9.24927C30.399 11.1146 28.8848 11.2243 27.3707 9.46872C24.9248 10.4563 23.6435 12.1022 23.1776 14.5162C23.0611 14.8454 22.8282 15.2843 22.5952 15.5037C22.1293 16.2718 21.547 16.9302 20.8481 17.5886Z" fill="white"/>
<path d="M11.8867 28.5616C14.2161 27.5741 15.6138 25.9281 16.0797 23.5141C16.1961 23.0751 16.4291 22.6363 16.7785 22.3071C17.3609 21.6488 17.9432 20.9904 18.6421 20.332C19.4574 22.746 19.108 24.9407 17.8268 27.1352C16.895 28.781 15.3808 29.9882 13.5173 30.7561C13.0514 30.9756 12.702 31.195 12.702 31.7437C12.5855 33.1701 10.8384 33.9383 9.44074 33.3896C9.09132 33.2798 8.62543 33.1701 8.27601 33.1701C7.22776 33.1701 6.29598 32.5119 6.06303 31.634C5.83009 30.7561 6.1795 29.7687 6.99481 29.22C7.22776 29.1102 7.4607 29.0005 7.57717 28.781C8.7419 27.0255 10.256 26.9157 11.8867 28.5616Z" fill="white"/>
<path d="M52.5312 16V4H54.6082L58.5312 12.0769L62.4543 4H64.5312V16H62.4543V8.84616L58.9928 16H58.3005L54.6082 8.84616V16H52.5312Z" fill="white"/>
<path d="M66.5312 16L70.2759 4H73.7866L77.5312 16H75.1908L71.9142 5.38464H72.3823L69.1057 16H66.5312ZM68.8717 13.4615V11.3846H75.4249V13.4615H68.8717Z" fill="white"/>
<path d="M83.6028 15.9975C82.6504 15.9975 82.1027 15.9066 81.3884 15.6861C80.6741 15.4657 79.9598 15.0247 79.4836 14.3632C79.0074 13.7017 78.7693 13.0402 78.5312 12.3787L80.9122 11.9378C81.1503 12.5993 81.3884 13.0402 82.1027 13.4812C82.5789 13.9222 83.2932 13.9222 84.0074 13.9222C84.4836 13.9222 84.7217 13.9222 85.1979 13.7017C85.6741 13.4812 85.9122 13.4812 86.1503 13.2607C86.3884 13.0402 86.3884 12.8197 86.3884 12.3787C86.3884 12.1583 86.3884 12.1583 86.3884 11.9378C86.3884 11.9378 86.3389 11.8173 86.1503 11.7173C85.9612 11.6173 85.8838 11.5673 85.6741 11.4968C85.4243 11.4128 84.9598 11.2763 84.9598 11.2763L81.6265 10.3943C81.3884 10.3943 80.6741 10.1738 80.6741 10.1738C80.6741 10.1738 79.9598 9.95332 79.7217 9.73285C79.4836 9.51234 79.2455 9.29183 79.0074 8.85085C78.7693 8.40987 78.7693 7.96888 78.7693 7.5279C78.7693 6.64594 79.0074 6.20495 79.4836 5.54346C79.9598 4.88196 80.436 4.6615 81.1503 4.44098C81.8646 4.22051 82.5789 4 83.5312 4C84.4836 4 85.1979 4.22051 85.9122 4.44098C86.6265 4.6615 87.1027 5.10248 87.5789 5.54346C88.0551 5.98444 88.2932 6.64594 88.5312 7.30743L85.9122 7.74841C85.9122 7.30739 85.6741 7.08692 85.436 6.8664C85.1979 6.64594 84.9598 6.42542 84.4836 6.20495C84.2455 5.98444 83.7693 5.98444 83.2932 5.98444C82.817 5.98444 82.5789 5.98444 82.3408 6.20495C82.1027 6.20495 81.8646 6.42542 81.6265 6.64594C81.3884 6.8664 81.3884 7.08692 81.3884 7.30743C81.3884 7.5279 81.3884 7.74841 81.6265 7.96888C81.8646 8.1894 82.1027 8.1894 82.3408 8.40987C82.5789 8.40987 82.817 8.63038 83.0551 8.63038L85.1979 9.07136C85.436 9.07136 85.9122 9.29183 86.1503 9.29183C86.6265 9.51234 86.8646 9.51234 87.3408 9.73285C87.817 9.95332 88.0551 10.1738 88.2932 10.6148C88.5313 11.0558 88.5312 11.4968 88.5312 12.1583C88.5312 12.8197 88.2932 13.2607 88.0551 13.7017C87.817 14.1427 87.3731 14.5164 86.8803 14.827C86.4266 15.1133 86.2659 15.2155 85.3581 15.6346C84.4498 16.0537 84.079 15.9975 83.6028 15.9975Z" fill="white"/>
<path d="M95.531 16C94.3311 16 93.1311 15.7778 92.1711 15.3333C91.2112 14.8889 90.4912 14.2222 90.0112 13.1111C89.7712 12.2222 89.5312 11.1111 89.5312 10C89.5312 8.88888 89.7712 7.77776 90.2512 6.88888C90.7312 6 91.4512 5.33332 92.4111 4.66668C93.3711 4.2222 94.3311 4 95.771 4C97.2109 4 98.4114 4.22219 99.3713 4.88888C100.331 5.55556 101.051 6.44444 101.531 7.55556L99.1314 8.2222C98.8914 7.55556 98.4114 6.88888 97.9314 6.66664C97.4514 6.2222 96.731 6 95.771 6C95.051 6 94.3311 6.2222 93.8511 6.44444C93.3711 6.66663 92.8911 7.33332 92.6511 7.77776C92.4111 8.44444 92.1711 9.11112 92.1711 9.77776C92.1711 10.4444 92.4111 11.3333 92.6511 11.7778C92.8911 12.4444 93.3711 12.8889 93.8511 13.1111C94.3311 13.3333 95.051 13.5556 95.771 13.5556C96.731 13.5556 97.4514 13.3333 97.9314 12.8889C98.4114 12.4444 98.8914 12 99.1314 11.3333L101.531 12C101.051 13.1111 100.331 14 99.3713 14.6666C98.4114 15.3333 96.9714 16 95.531 16Z" fill="white"/>
<path d="M109.031 16C107.781 16 106.531 15.7778 105.531 15.3333C104.531 14.8889 103.781 14.2222 103.281 13.1111C102.781 12.2222 102.531 11.1111 102.531 10C102.531 8.88888 102.781 7.77776 103.281 6.88888C103.781 6 104.531 5.33332 105.531 4.66668C106.531 4.2222 107.531 4 109.031 4C110.281 4 111.531 4.2222 112.531 4.66668C113.531 5.11112 114.281 5.77776 114.781 6.88888C115.281 7.77776 115.531 8.88888 115.531 10C115.531 11.1111 115.281 12.2222 114.781 13.1111C114.281 14 113.531 14.6666 112.531 15.3333C111.531 15.7778 110.531 16 109.031 16ZM109.031 14C109.781 14 110.531 13.7778 111.031 13.5556C111.531 13.3333 112.031 12.6666 112.281 12.2222C112.531 11.5556 112.781 10.8889 112.781 10C112.781 9.11112 112.531 8.44444 112.281 8C112.031 7.33332 111.531 6.88888 111.031 6.66664C110.531 6.44444 109.781 6.2222 109.031 6.2222C108.281 6.2222 107.531 6.44444 107.031 6.66664C106.531 6.88888 106.031 7.55556 105.781 8C105.531 8.66664 105.281 9.33332 105.281 10.2222C105.281 11.1111 105.531 11.7778 105.781 12.2222C106.031 12.6666 106.531 13.3333 107.031 13.5556C107.531 13.7778 108.281 14 109.031 14Z" fill="white"/>
<path d="M119.485 16V6.07692H115.531V4H125.531V6.07692H121.81V16H119.485Z" fill="white"/>
<path d="M57.2913 35C56.5713 35 55.8513 34.7818 55.1313 34.5636C54.4113 34.3455 53.6913 33.9091 53.2113 33.4728C52.7313 33.0364 52.2513 32.3818 52.0113 31.5091C51.7713 30.8546 51.5312 29.9818 51.5312 28.8909C51.5312 27.5818 51.7713 26.4909 52.2513 25.6182C52.7313 24.7455 53.4513 24.0909 54.4113 23.6546C55.3713 23.2182 56.3313 23 57.2913 23C58.9713 23 60.1713 23.4364 61.1313 24.0909C62.0913 24.7455 62.5713 25.8364 63.0513 26.9273L60.6512 27.1455C60.4112 26.4909 60.1713 26.0546 59.4513 25.6182C58.9713 25.1818 58.2513 24.9636 57.5312 24.9636C56.8112 24.9636 56.0912 25.1818 55.6112 25.4C55.1312 25.6182 54.6513 26.2727 54.4113 26.7091C54.1713 27.3636 53.9313 28.0182 53.9313 28.8909C53.9313 29.7636 54.1713 30.4182 54.4113 30.8546C54.6513 31.2909 55.1312 31.9455 55.6112 32.1636C56.0912 32.3818 56.8112 32.6 57.5312 32.6C58.0113 32.6 58.4913 32.6 58.9713 32.3818C59.4513 32.1636 59.6913 31.9455 60.1713 31.5091C60.6513 31.0728 60.6513 30.6364 60.8913 29.9818H58.9713V28.2364H63.5312C63.5312 28.2364 63.5312 28.4546 63.5312 28.6727C63.5312 28.8909 63.5312 28.8909 63.5312 28.8909C63.5312 29.9818 63.2913 30.8546 62.8113 31.7273C62.3313 32.6 61.6112 33.2546 60.6512 33.6909C59.4512 34.7818 58.4913 35 57.2913 35Z" fill="white"/>
<path d="M63.5312 35L67.2759 23H70.7866L74.5312 35H72.1908L68.9142 24.3846H69.1483L65.8717 35H63.5312ZM65.8717 32.4615V30.3846H72.4249V32.4615H65.8717Z" fill="white"/>
<path d="M76.5312 35V23H78.6082L82.5312 31.0769L86.4543 23H88.5312V35H86.4543V27.8462L82.9928 35H82.3005L78.6082 27.8462V35H76.5312Z" fill="white"/>
<path d="M91.5312 35V23H93.5312V35H91.5312Z" fill="white"/>
<path d="M96.5312 35V23H98.8568L104.206 31.0769V23H106.531V35H104.206L98.8568 26.9231V35H96.5312Z" fill="white"/>
<path d="M114.291 35C113.571 35 112.851 34.7818 112.131 34.5636C111.411 34.3455 110.691 33.9091 110.211 33.4728C109.731 33.0364 109.251 32.3818 109.011 31.5091C108.771 30.8546 108.531 29.9818 108.531 28.8909C108.531 27.5818 108.771 26.4909 109.251 25.6182C109.731 24.7455 110.451 24.0909 111.411 23.6546C112.371 23.2182 113.331 23 114.291 23C115.971 23 117.171 23.4364 118.131 24.0909C119.091 24.7455 119.571 25.8364 120.051 26.9273L117.651 27.1455C117.411 26.4909 117.171 26.0546 116.451 25.6182C115.971 25.1818 115.251 24.9636 114.531 24.9636C113.811 24.9636 113.091 25.1818 112.611 25.4C112.131 25.6182 111.651 26.2727 111.411 26.7091C111.171 27.3636 110.931 28.0182 110.931 28.8909C110.931 29.7636 111.171 30.4182 111.411 30.8546C111.651 31.2909 112.131 31.9455 112.611 32.1636C113.091 32.3818 113.811 32.6 114.531 32.6C115.011 32.6 115.491 32.6 115.971 32.3818C116.451 32.1636 116.691 31.9455 117.171 31.5091C117.651 31.0728 117.651 30.6364 117.891 29.9818H115.971V28.2364H120.531C120.531 28.2364 120.531 28.4546 120.531 28.6727C120.531 28.8909 120.531 28.8909 120.531 28.8909C120.531 29.9818 120.291 30.8546 119.811 31.7273C119.331 32.6 118.611 33.2546 117.651 33.6909C116.451 34.7818 115.491 35 114.291 35Z" fill="white"/>
</svg>
