<svg width="123" height="36" viewBox="0 0 123 36" fill="none" xmlns="http://www.w3.org/2000/svg">
<path d="M19.2216 27.4762C24.6296 27.4762 29.0136 23.4363 29.0136 18.4529C29.0136 13.4695 24.6296 9.42969 19.2216 9.42969C13.8137 9.42969 9.42969 13.4695 9.42969 18.4529C9.42969 23.4363 13.8137 27.4762 19.2216 27.4762Z" fill="url(#paint0_linear_5687_42674)"/>
<path d="M37.8214 14.7292C34.8838 14.6164 31.9462 14.3908 28.8862 14.278C30.8446 11.9094 32.6806 9.76641 34.5166 7.5106C31.579 8.6385 28.7638 9.76641 25.8262 11.0071C26.5606 8.52571 27.1726 6.15711 27.7846 3.78851C26.1934 5.142 24.6022 6.49548 22.8887 7.84897C22.7663 5.48037 22.5215 3.22456 22.3991 0.96875C22.2767 0.96875 22.2767 0.96875 22.2767 0.96875C20.8079 3.45014 19.2167 5.93153 17.7479 8.41292C16.1567 6.2699 14.5655 4.12688 13.0967 2.09665C12.9743 2.09665 12.9743 2.09665 12.9743 2.09665C13.2191 4.69084 13.4639 7.28502 13.7087 9.8792C11.2607 8.18734 8.69035 6.49548 6.24236 4.80363C7.34395 7.28502 8.44555 9.65362 9.66954 12.0222C7.22155 11.5711 4.89597 11.1199 2.57038 10.6687C4.65117 12.4734 6.73196 14.3908 8.93514 16.3083C5.87516 16.7594 2.93758 17.3234 0 17.8873C0 18.0001 0 18.0001 0 18.0001C2.57038 18.7896 5.14077 19.692 7.71115 20.4815C5.38557 21.7222 3.30478 22.8501 1.10159 24.0908C1.10159 24.2036 1.10159 24.2036 1.10159 24.2036C3.91678 23.8652 6.85436 23.6396 9.91434 23.3013C8.07835 25.5571 6.24236 27.699 4.40637 29.8431C7.09916 28.6024 9.91434 27.3617 12.7295 26.121C12.2399 28.9408 11.7503 31.7605 11.2607 34.5803C11.3831 34.5803 11.3831 34.5803 11.3831 34.5803C12.9743 32.7745 14.6879 30.8582 16.4015 28.9408C17.1359 30.8582 17.7479 32.7745 18.4823 34.6931C18.6047 34.6931 18.6047 34.6931 18.6047 34.6931C19.3391 32.7757 20.0735 30.8594 20.8079 28.9408C22.5215 30.971 24.3574 33.0012 26.071 35.0303C25.8262 32.0989 25.5814 29.1664 25.2142 26.3466C27.7846 27.8129 30.2326 29.2792 32.6806 30.7443C31.579 28.1501 30.355 25.4432 29.2534 22.849C31.8238 22.849 34.5166 22.7362 37.087 22.7362C37.087 22.6223 37.087 22.6223 37.087 22.6223C34.639 21.6083 32.191 20.706 29.6206 19.6897C32.3134 18.1106 35.1286 16.4188 37.8214 14.8397C37.8214 14.7292 37.8214 14.7292 37.8214 14.7292ZM19.0943 27.3617C13.9535 27.2489 9.30234 23.3013 9.54714 17.8873C9.79194 13.3757 13.8311 9.42803 19.2167 9.42803C24.6022 9.42803 28.8862 13.4885 28.8862 18.3385C28.8862 23.1885 24.6022 27.2489 19.0943 27.3617Z" fill="#FFCC00"/>
<path d="M25.5785 20.5952C25.3337 20.2568 25.2113 19.8056 24.9665 19.4673C24.8441 19.3545 24.8441 19.3545 24.7217 19.2417C24.7217 19.3556 24.7217 19.3556 24.7217 19.4673C24.8441 19.6929 24.8441 19.9184 24.9665 20.1451C22.8857 20.9336 15.7866 20.8208 12.9714 20.0312C13.0938 19.8056 13.461 19.4673 13.3386 19.1289C12.849 19.8056 12.3594 20.3696 11.625 20.8208C12.1146 20.8208 12.3594 20.4824 12.6042 20.3696C13.2162 21.1591 13.8282 21.9487 14.5626 22.6254C16.0314 23.9789 17.6226 24.6568 19.7034 24.4312C21.0497 24.2056 22.1513 23.7533 23.1305 22.9649C23.9873 22.287 24.7217 21.4975 25.2113 20.5952C25.4561 20.8208 25.5785 20.9336 25.8233 21.1591C25.8233 21.1591 25.9457 21.1591 26.0681 21.1591C25.9457 21.0463 25.9457 21.0463 25.9457 20.9336C25.8233 20.8208 25.7009 20.708 25.5785 20.5952ZM23.9873 21.7231C23.1305 22.6254 22.1513 23.4149 20.9273 23.8661C18.969 24.5428 17.2554 24.2045 15.5418 23.0766C14.685 22.3998 13.5834 21.2719 13.2162 20.4824C17.133 21.2719 20.9273 21.2719 24.7217 20.708C24.4769 21.0463 24.2321 21.3847 23.9873 21.7231Z" fill="#242422"/>
<path d="M23.3761 17.3232C23.4985 17.2104 23.7433 17.2104 23.7433 17.0976C23.7433 16.7593 23.7433 16.4209 23.8657 16.1953C23.4985 16.1953 23.1313 16.7593 23.3761 17.3232Z" fill="white"/>
<path d="M24.489 16.31C24.3666 15.9717 24.2442 15.7461 23.877 15.7461C23.6322 15.7461 23.3874 15.9717 23.265 16.1973C22.653 17.2124 22.8978 18.1147 23.0202 18.2275C23.1426 18.6775 23.6322 18.7914 23.9994 18.4531C24.6114 17.8891 24.7338 17.0996 24.489 16.31ZM23.7546 17.0996C23.7546 17.2124 23.5098 17.2124 23.3874 17.3252C23.1426 16.7612 23.5098 16.1973 23.877 16.1973C23.7546 16.4228 23.7546 16.7612 23.7546 17.0996Z" fill="#242422"/>
<path d="M13.3438 15.2956C13.099 15.1828 12.7318 15.4084 12.6094 15.634C12.3646 16.0852 12.2422 16.5363 12.2422 16.9875C12.2422 17.1003 12.2422 17.2131 12.2422 17.2131C12.2422 17.5514 12.487 18.0026 12.8542 18.0026C13.099 18.0026 13.4662 17.777 13.5886 17.4386C13.8334 16.9875 13.9558 16.4235 13.8334 15.8596C13.8334 15.634 13.711 15.4084 13.3438 15.2956ZM12.9766 16.6491C12.9766 16.7619 12.7318 16.7619 12.6094 16.8747C12.487 16.1979 12.7318 15.7468 13.2214 15.7468C13.099 16.0852 13.099 16.3107 12.9766 16.6491Z" fill="#242422"/>
<path d="M17.8675 18.224C18.3571 18.224 18.7243 18.224 19.2139 18.224C19.2139 18.3368 19.2139 18.4496 19.2139 18.5624C19.2139 18.6752 19.2139 18.6752 19.2139 18.788C19.3363 18.788 19.3363 18.788 19.3363 18.788C19.3363 18.6741 19.4587 18.6741 19.4587 18.5624C19.5811 18.224 19.4587 17.9984 19.0915 17.9984C18.6019 17.9984 18.2347 17.9984 17.7451 17.9984C17.1331 17.9984 16.6435 17.6601 16.5211 17.0961C16.2763 16.4194 16.5211 15.8554 17.0107 15.4043C17.5003 14.8403 18.2347 14.5019 18.9691 14.2764C19.0915 14.2764 19.2139 14.1636 19.3363 14.1636C19.0915 14.0508 18.9691 14.0508 18.8467 14.0508C18.2347 14.2764 17.5003 14.5019 17.0107 14.9531C16.5211 15.4043 16.1539 15.8554 16.1539 16.5322C16.0315 17.5473 16.7659 18.224 17.8675 18.224Z" fill="#242422"/>
<path d="M13.5886 14.2797C14.5678 14.5052 14.8126 15.182 14.935 15.9715C15.0574 14.8436 14.4454 14.0541 13.5886 13.9413C12.487 13.7157 11.7526 14.5052 11.5078 15.4076C11.9974 14.7308 12.487 14.0541 13.5886 14.2797Z" fill="#242422"/>
<path d="M24.1146 14.7281C25.0938 14.9537 25.5834 15.6304 25.8282 16.5327C25.8282 15.4048 25.0938 14.5025 24.1146 14.3897C23.013 14.2769 22.401 15.0665 22.1562 15.856C22.6458 15.1792 23.1354 14.6153 24.1146 14.7281Z" fill="#242422"/>
<path d="M49.8153 9.99164C50.5497 9.2021 51.2841 8.41257 52.0185 7.62304C52.1409 7.51025 52.5081 7.39746 52.7529 7.28467C53.8545 7.28467 54.9561 7.28467 56.1801 7.28467C56.5472 7.28467 56.6697 7.39746 56.6697 7.73583C56.6697 10.894 56.6697 13.9393 56.6697 17.0974C56.6697 17.4358 56.5472 17.5486 56.1801 17.5486C55.0785 17.5486 54.0993 17.5486 52.9977 17.5486C52.6305 17.5486 52.5081 17.4358 52.5081 17.0974C52.5081 15.0672 52.5081 13.037 52.5081 11.0068C52.5081 11.0068 52.5081 10.894 52.5081 10.7812C51.6513 11.6835 50.7945 12.6986 49.8153 13.6009C48.9585 12.6986 48.1017 11.7963 47.1225 10.7812C47.1225 11.1195 47.1225 11.2323 47.1225 11.3451C47.1225 13.2626 47.1225 15.18 47.1225 16.9846C47.1225 17.323 47.0001 17.4358 46.6329 17.4358C45.5313 17.4358 44.5521 17.4358 43.4505 17.4358C43.0833 17.4358 42.9609 17.323 42.9609 16.9846C42.9609 13.8265 42.9609 10.7812 42.9609 7.62304C42.9609 7.28467 43.0833 7.17188 43.4505 7.17188C44.5521 7.17188 45.7761 7.17188 46.8777 7.17188C47.1225 7.17188 47.3673 7.28467 47.4897 7.39746C48.2241 8.0742 48.8361 8.75094 49.4481 9.54047C49.5705 9.87885 49.6929 9.87885 49.8153 9.99164Z" fill="white"/>
<path d="M114.319 17.4358C112.973 17.4358 111.749 17.4358 110.525 17.4358C110.156 17.4358 110.156 17.2102 110.156 16.9846C110.156 15.7439 110.156 14.3905 110.156 13.1498C110.156 11.3451 110.156 9.54047 110.156 7.73583C110.156 7.62304 110.156 7.39746 110.156 7.17188C110.401 7.17188 110.525 7.17188 110.768 7.17188C112.973 7.17188 115.052 7.17188 117.257 7.17188C117.991 7.17188 118.724 7.28467 119.46 7.51025C120.684 7.84862 121.296 8.75094 121.418 9.87885C121.542 10.5556 121.173 11.2323 120.684 11.7963C120.439 12.0219 120.194 12.2474 119.827 12.5858C121.173 13.9393 121.785 15.5184 122.275 17.323C121.663 17.323 121.051 17.323 120.561 17.323C119.949 17.323 119.215 17.323 118.603 17.323C118.358 17.323 118.113 17.323 118.113 16.9846C117.625 15.2928 116.522 14.0521 114.686 13.2626C114.686 13.2626 114.564 13.2626 114.441 13.1498C114.319 14.7288 114.319 16.0823 114.319 17.4358ZM114.441 8.52536C114.441 9.54047 114.441 10.5556 114.441 11.6835C115.298 11.9091 116.034 11.6835 116.522 11.0068C116.889 10.4428 116.889 9.87885 116.522 9.31489C116.033 8.63815 115.298 8.41257 114.441 8.52536Z" fill="white"/>
<path d="M81.8779 17.4363C80.4091 17.4363 79.0628 17.4363 77.7164 17.4363C77.1044 15.5189 76.004 14.0526 73.922 13.2631C73.922 14.7293 73.922 16.0828 73.922 17.4363C72.5756 17.4363 71.2292 17.4363 69.8828 17.4363C69.8828 14.0526 69.8828 10.6689 69.8828 7.28516C70.0052 7.28516 70.1276 7.28516 70.25 7.28516C72.4532 7.28516 74.7788 7.28516 76.982 7.28516C77.7164 7.28516 78.5732 7.51074 79.3076 7.73632C80.5316 8.07469 81.0199 9.0898 81.0199 10.1049C81.0199 10.6689 80.7751 11.3456 80.2855 11.7968C80.1619 11.9096 80.0407 12.0224 79.9183 12.2479C79.4287 12.6991 79.3063 12.5863 79.9183 13.1503C80.7739 14.0526 81.1423 15.0677 81.5095 16.1956C81.6331 16.534 81.7555 16.9851 81.8779 17.4363ZM74.0444 11.684C74.2892 11.684 74.4128 11.684 74.6564 11.684C75.392 11.7968 75.8804 11.3456 76.1252 10.8945C76.4924 10.3305 76.4924 9.76655 76.0028 9.20259C75.5132 8.63864 74.9012 8.41306 74.1668 8.52585C74.0432 8.52585 73.922 8.63864 73.922 8.75143C74.0444 9.65376 74.0444 10.6689 74.0444 11.684Z" fill="white"/>
<path d="M83.4766 7.39844C84.7006 7.39844 85.9245 7.39844 87.2722 7.39844C87.3946 7.39844 87.5157 7.62402 87.5157 7.73681C87.5157 8.75192 87.5157 9.65425 87.5157 10.6694C87.5157 10.7822 87.5157 11.0077 87.5157 11.1205C88.6173 11.2333 89.3517 10.7822 89.9637 10.2182C90.6981 9.54146 91.1877 8.63913 91.5549 7.8496C91.6773 7.51123 91.7997 7.51123 92.1669 7.51123C93.2673 7.51123 94.3701 7.51123 95.4705 7.51123C95.8389 7.51123 95.9601 7.62402 95.8389 7.96239C95.4705 9.31588 94.7373 10.6694 93.8793 11.7973C93.0225 12.8124 93.0225 12.3612 93.8793 13.3763C94.8585 14.617 95.5929 15.8577 96.2049 17.324C96.3273 17.5496 96.2049 17.6624 95.9601 17.6624C94.7361 17.6624 93.5121 17.6624 92.1657 17.6624C92.0421 17.6624 91.7973 17.4368 91.6761 17.324C91.3089 16.0833 90.6969 14.9554 89.5953 14.0531C88.8609 13.4891 88.7385 13.3763 87.6369 13.4891C87.6369 14.8426 87.6369 16.1961 87.6369 17.6624C86.2893 17.6624 84.9441 17.6624 83.5977 17.6624C83.4766 14.1659 83.4766 10.7822 83.4766 7.39844Z" fill="white"/>
<path d="M97.3099 7.39795C98.5339 7.39795 99.7579 7.39795 100.982 7.39795C101.35 7.39795 101.227 7.62353 101.227 7.84911C101.227 9.54097 101.227 11.2328 101.227 12.9247C101.227 13.4886 101.594 13.9398 102.206 14.0526C103.063 14.1654 103.675 13.9398 103.919 13.2631C103.919 13.1503 103.919 12.9247 103.919 12.8119C103.919 11.12 103.919 9.54097 103.919 7.84911C103.919 7.51074 104.042 7.28516 104.531 7.28516C105.511 7.28516 106.612 7.28516 107.591 7.28516C107.959 7.28516 108.081 7.39795 108.081 7.73632C108.081 9.76655 108.081 11.7968 107.957 13.827C107.835 15.5189 106.489 17.0979 104.409 17.4363C103.673 17.5491 102.817 17.6619 101.961 17.5491C99.3895 17.4363 97.7995 16.3084 97.1875 13.9398C97.1875 13.827 97.1875 13.7142 97.1875 13.6014C97.1875 11.5712 97.1875 9.65376 97.1875 7.62353C97.3099 7.62353 97.3099 7.51074 97.3099 7.39795Z" fill="white"/>
<path d="M58.8672 17.4363C58.8672 14.0526 58.8672 10.6689 58.8672 7.28516C58.9896 7.28516 59.2344 7.28516 59.3568 7.28516C61.9272 7.28516 64.6199 7.28516 67.1903 7.28516C67.5575 7.28516 67.6799 7.39795 67.8023 7.73632C67.8023 8.86422 67.8023 8.86422 66.5783 8.86422C65.4767 8.86422 64.4975 8.86422 63.396 8.86422C63.0275 8.86422 62.9064 8.97701 62.9064 9.31539C62.9064 9.99213 62.9064 10.6689 62.9064 11.3456C62.9064 11.684 63.0288 11.7968 63.396 11.7968C64.2515 11.7968 64.9871 11.7968 65.8439 11.7968C66.0875 11.7968 66.2111 11.9096 66.2111 12.1351C66.2111 13.4886 66.4559 13.2631 64.9871 13.2631C64.3751 13.2631 63.8856 13.2631 63.2736 13.2631C62.9064 13.2631 62.7852 13.3758 62.7852 13.6014C62.7852 14.2782 62.7852 14.9549 62.7852 15.6317C62.7852 15.97 62.9076 16.0828 63.2736 16.0828C64.4975 16.0828 65.8452 16.0828 67.0692 16.0828C67.4364 16.0828 67.5575 16.1956 67.5575 16.534C67.5575 17.5491 67.5575 17.5491 66.4572 17.5491C64.1316 17.5491 61.6836 17.5491 59.358 17.5491C59.3568 17.4363 59.112 17.4363 58.8672 17.4363Z" fill="white"/>
<path d="M81.5185 22.2893C81.2737 22.7405 81.0289 23.0789 80.9065 23.5312C80.4169 24.5451 80.0497 25.4475 79.6825 26.4637C79.1929 27.4788 78.8257 28.3811 78.3349 29.3963C78.0913 29.8463 77.8465 30.2975 77.7241 30.7486C77.6017 31.087 77.357 31.3126 77.1122 31.1998C76.745 31.0859 76.3778 30.9742 76.2566 30.7486C75.767 29.8463 75.3998 28.8312 75.0326 27.8161C74.5418 26.801 74.1746 25.8986 73.685 24.8835C73.4402 24.3196 73.1966 23.7556 72.9506 23.1917C72.8282 23.0789 72.8282 22.8533 72.7058 22.7405C72.0938 22.9661 72.0938 23.1917 72.0938 23.53C72.0938 25.6719 72.0938 27.9277 72.0938 30.0719C72.0938 30.2975 72.0938 30.4102 72.0938 30.6358C72.0938 30.9742 71.849 31.1998 71.4818 31.1998C71.1146 31.1998 70.9922 30.9742 70.9922 30.6358C70.9922 29.8463 70.9922 29.0568 70.9922 28.2661C70.9922 26.0103 70.9922 23.8684 70.9922 21.6126C70.9922 20.7103 71.3606 20.4847 72.2162 20.7103C72.3398 20.7103 72.5846 20.8231 72.7058 21.0486C73.073 21.8382 73.4402 22.6266 73.8074 23.4172C74.2957 24.4324 74.7866 25.4475 75.1538 26.4626C75.3986 27.0265 75.6434 27.4777 75.8882 28.0416C76.133 28.6056 76.3778 29.1695 76.6238 29.6196C76.6238 29.6196 76.7462 29.7335 76.8686 29.8452C77.1122 29.6196 77.357 29.5068 77.4806 29.1684C77.7242 28.7173 77.8478 28.265 78.0926 27.8149C78.7046 26.3487 79.439 24.7696 80.051 23.3033C80.2958 22.7394 80.5406 22.1754 80.7854 21.4975C81.0302 20.8208 81.6421 20.4836 82.4989 20.7091C82.6213 20.7091 82.7437 20.8219 82.8661 20.9336C82.9873 21.1614 82.9873 21.2742 82.9873 21.4998C82.9873 24.5451 82.9873 27.5905 82.9873 30.637C82.9873 30.9753 82.9873 31.2009 82.6189 31.3137C82.1305 31.4254 81.8857 31.1998 81.8857 30.6358C81.8857 29.1696 81.8857 27.5905 81.8857 26.1242C81.8857 25.1091 81.8857 24.094 81.8857 23.0789C81.8857 22.8533 81.7633 22.6277 81.7633 22.4021C81.6409 22.2893 81.5185 22.2893 81.5185 22.2893Z" fill="white"/>
<path d="M99.9974 22.3996C99.9974 22.624 99.875 22.8496 99.875 23.0763C99.875 25.4449 99.875 27.8135 99.875 30.1821C99.875 30.296 99.875 30.5205 99.875 30.6333C99.875 30.9716 99.7514 31.1972 99.3854 31.1972C99.0195 31.1972 98.7734 30.9716 98.7734 30.6333C98.7734 27.4751 98.7734 24.4298 98.7734 21.2716C98.7734 21.0461 99.0182 20.7077 99.1406 20.5938C99.5078 20.3693 99.875 20.3693 100.242 20.7077C100.609 21.1577 100.854 21.4961 101.221 21.9484C102.201 23.5275 103.181 24.9937 104.037 26.5728C104.526 27.4751 105.138 28.2647 105.628 29.167C105.628 29.167 105.75 29.2798 105.871 29.3914C105.995 29.0531 105.995 28.7147 105.995 28.4891C105.995 26.1205 105.995 23.8647 105.995 21.4961C105.995 21.2716 105.995 21.0461 106.117 20.8194C106.241 20.7066 106.485 20.5938 106.607 20.5938C106.729 20.5938 106.974 20.8194 106.974 20.9321C107.097 21.1577 107.097 21.2716 107.097 21.4961C107.097 24.5414 107.097 27.4751 107.097 30.5193C107.097 30.8588 107.097 31.0833 106.729 31.1972C106.241 31.31 105.629 31.1972 105.505 30.8588C104.649 29.3914 103.669 27.9252 102.813 26.46C102.078 25.3321 101.345 24.2042 100.609 23.0763C100.487 22.8507 100.242 22.6251 99.9974 22.3996C100.12 22.3996 99.9974 22.3996 99.9974 22.3996Z" fill="white"/>
<path d="M122.276 28.2654C122.276 28.8294 122.276 29.5073 122.276 30.0712C122.276 30.6352 122.031 30.9735 121.419 31.0852C119.706 31.4247 118.114 31.6492 116.4 31.0852C115.176 30.6352 114.197 29.9573 113.585 28.8294C112.606 27.2503 112.606 25.5585 113.218 23.7538C113.586 22.7398 114.32 21.8375 115.299 21.1596C116.646 20.3701 118.114 20.1457 119.583 20.2573C120.195 20.3701 120.807 20.4829 121.296 20.7085C121.664 20.8213 121.664 21.1585 121.541 21.3852C121.418 21.7236 121.173 21.6108 120.929 21.498C118.97 20.9341 117.134 20.9341 115.421 22.2875C114.686 22.8515 114.197 23.5294 114.197 24.4306C114.075 25.1073 114.075 25.7841 114.075 26.4608C114.198 29.055 116.156 30.1829 118.604 30.2957C119.338 30.2957 120.072 30.1818 120.684 29.9562C120.807 29.9562 121.052 29.6178 121.052 29.5061C121.052 28.6038 121.052 27.5887 121.052 26.6864C121.052 26.348 120.807 26.1224 120.44 26.1224C119.95 26.1224 119.46 26.1224 118.848 26.1224C118.725 26.1224 118.359 25.8968 118.359 25.7841C118.359 25.5585 118.482 25.2201 118.848 25.2201C119.705 25.2201 120.684 25.2201 121.541 25.2201C122.029 25.2201 122.153 25.6701 122.153 26.0085C122.276 26.912 122.276 27.5887 122.276 28.2654Z" fill="white"/>
<path d="M51.8977 28.2668C51.8977 28.8308 51.8977 29.5086 51.8977 30.0726C51.8977 30.6365 51.5305 30.9749 51.0409 31.0866C49.3273 31.4261 47.6137 31.6505 46.0225 31.0866C44.6761 30.6365 43.697 29.8459 43.085 28.718C42.3506 27.2517 42.3506 25.7854 42.7178 24.2063C42.9626 23.0784 43.8194 22.0633 44.9209 21.3866C46.2673 20.5971 47.6137 20.3715 49.2049 20.4843C49.8169 20.5971 50.4289 20.7098 51.0409 20.9343C51.4081 21.0482 51.5305 21.2738 51.2857 21.6122C51.1633 21.9505 50.9185 21.8377 50.5513 21.8377C48.5929 21.2738 46.6345 21.3866 45.0433 22.6262C44.4313 23.1901 43.9418 23.868 43.8194 24.6575C43.5746 26.0099 43.4522 27.2517 44.3089 28.4913C44.7985 29.2808 45.5329 29.9575 46.6345 30.297C47.8585 30.6354 49.0825 30.7471 50.3065 30.4098C50.7961 30.297 51.0409 30.0715 51.0409 29.6203C51.0409 28.8308 51.0409 28.0424 51.0409 27.2517C51.0409 26.6877 50.7961 26.4622 50.1841 26.4622C49.6945 26.4622 49.2049 26.4622 48.7153 26.4622C48.5929 26.4622 48.3481 26.2366 48.2257 26.1238C48.3481 26.0099 48.4705 25.6726 48.7153 25.6726C49.0825 25.5598 49.5721 25.5598 49.9393 25.5598C50.3065 25.5598 50.7961 25.5598 51.1633 25.5598C51.7753 25.5598 52.0201 25.7854 52.0201 26.3494C51.8977 26.9133 51.8977 27.5901 51.8977 28.2668Z" fill="white"/>
<path d="M65.6108 31.3097C65.366 31.0841 65.1212 30.8597 64.9988 30.5202C64.754 29.9562 64.5092 29.3923 64.3868 28.8283C64.2644 28.3771 64.0196 28.2644 63.53 28.2644C61.9388 28.2644 60.3476 28.2644 58.7564 28.2644C58.3892 28.2644 58.1444 28.4899 58.022 28.8283C57.7772 29.5051 57.41 30.1818 57.0428 30.8585C56.9204 31.083 56.6756 31.3086 56.3084 31.1969C56.0636 31.083 55.9412 30.9713 56.0636 30.7457C56.798 29.2795 57.41 27.7004 58.022 26.2341C58.634 24.8806 59.246 23.5283 59.9804 22.0609C60.2252 21.6108 60.3476 21.1586 60.7148 20.8202C60.9596 20.4818 61.4492 20.4818 61.694 20.8202C61.9388 21.0458 62.0612 21.3841 62.1836 21.7225C62.672 22.7376 63.1628 23.7527 63.53 24.7679C63.7748 25.219 63.8972 25.6702 64.142 26.1213C64.6316 27.2492 65.2436 28.4899 65.7332 29.6178C65.8568 29.9562 65.978 30.2957 66.2228 30.633C66.3452 31.0841 66.1004 31.1969 65.6108 31.3097ZM61.082 27.4748C61.5716 27.4748 62.1836 27.4748 62.6732 27.4748C63.1628 27.4748 63.4088 27.2492 63.2852 26.797C63.1628 26.3469 62.918 25.8946 62.6732 25.4435C62.306 24.5411 61.9388 23.5272 61.4492 22.6237C61.3268 22.512 61.082 22.3993 60.9596 22.2865C60.8372 22.2865 60.7148 22.512 60.5924 22.6248C60.47 22.8504 60.47 23.076 60.3476 23.1888C59.858 24.3167 59.3684 25.5585 58.7564 26.6864C58.5116 27.2504 58.634 27.3632 59.246 27.476C59.9804 27.4748 60.5924 27.4748 61.082 27.4748Z" fill="white"/>
<path d="M90.3281 26.011C90.3281 24.5447 90.3281 23.0784 90.3281 21.6133C90.3281 21.3877 90.3281 21.1621 90.4505 21.0493C90.5729 20.9354 90.8177 20.7109 90.9401 20.7109C91.0625 20.7109 91.3073 20.9354 91.4285 21.0493C91.5521 21.161 91.5521 21.3866 91.5521 21.4993C91.5521 24.5447 91.5521 27.59 91.5521 30.5226C91.5521 30.8621 91.5521 31.0865 91.0625 31.2005C90.5729 31.3121 90.4505 31.0865 90.4505 30.6354C90.3281 29.0563 90.3281 27.4772 90.3281 26.011Z" fill="white"/>
<defs>
<linearGradient id="paint0_linear_5687_42674" x1="12.223" y1="12.002" x2="24.9922" y2="25.8591" gradientUnits="userSpaceOnUse">
<stop stop-color="white"/>
<stop offset="1" stop-color="#FFF2A9"/>
</linearGradient>
</defs>
</svg>
