<svg width="126" height="44" viewBox="0 0 126 44" fill="none" xmlns="http://www.w3.org/2000/svg">
<path d="M65.8698 0.886719H64.6016V43.1115H65.8698V34.962H82.0574V30.0558H69.6255V24.4073H80.2521V19.4544H69.6255V13.9436H82.0574V8.99071H65.8698V0.886719Z" fill="#77BD1F"/>
<path d="M15.4564 24.9176L10.8724 17.8804L4.92435 9.08437L4.87518 8.99219H0V34.9635H5.41099V19.0393L9.45914 25.2433L15.9909 34.9635H20.9165V8.99219H15.4564V24.9176Z" fill="white"/>
<path d="M23.9922 34.9635H41.883V30.0573H29.4032V24.4088H40.0802V19.4559H29.4032V13.9451H41.883V8.99219H23.9922V34.9635Z" fill="white"/>
<path d="M44.0703 13.9918H50.36V34.9635H55.8202V13.9918H62.0141V8.99219H44.0703V13.9918Z" fill="white"/>
<path d="M100.243 24.9618L95.6602 17.9245L89.7613 9.12734L89.663 9.03516H84.7891V35.0101H90.2V19.0367L94.2457 25.285L100.779 35.0101H105.704V9.03516H100.243V24.9618Z" fill="#77BD1F"/>
<path d="M107.953 9.03516V14.0348H114.192V35.0101H119.655V14.0348H125.894V9.03516H107.953Z" fill="#77BD1F"/>
</svg>
