<svg width="125" height="34" viewBox="0 0 125 34" fill="none" xmlns="http://www.w3.org/2000/svg">
<path d="M96.9312 9.05264C96.4825 9.05264 96.0337 9.05264 95.5849 9.05264C94.9881 9.05264 94.9881 9.05264 94.9881 8.47344C94.837 7.60465 94.5393 6.88066 94.089 6.30147C93.4922 5.43268 92.4435 4.99829 91.3964 4.85349C90.3493 4.70869 89.3037 4.85349 88.4046 5.28788C87.2079 5.86708 86.46 6.88066 86.3119 8.18385C86.1608 9.05264 86.1608 9.05264 85.2647 9.05264C84.3657 9.05264 83.6178 9.05264 82.7217 9.05264C82.4225 9.05264 82.2729 8.90784 82.2729 8.61824C82.1219 7.60465 81.6746 6.59107 80.7771 5.72228C79.7299 4.85349 78.5332 4.56389 77.1869 4.70869C74.9431 4.99829 73.7463 6.30147 73.4472 8.32864C73.2976 8.90784 73.2976 8.90784 72.6992 8.90784C71.8017 8.90784 70.9041 8.90784 69.8585 8.90784C69.5593 8.90784 69.4082 8.76304 69.5593 8.47344C69.8585 7.17026 70.1562 5.86708 70.9041 4.70869C71.8032 3.26071 72.9984 2.10232 74.6439 1.52313C76.587 0.79914 78.5317 0.654341 80.3268 1.37833C81.5235 1.81273 82.4195 2.53672 83.3186 3.40551C83.6163 3.6951 83.7673 3.9847 84.0665 4.1295C84.2161 4.41909 84.3642 4.2743 84.6634 4.1295C85.4113 3.26071 86.1593 2.53672 87.0583 1.95753C88.5542 1.08874 90.0501 0.79914 91.6956 0.943938C92.7427 1.08874 93.6403 1.23353 94.5378 1.66793C95.8826 2.24712 96.9312 3.26071 97.6792 4.56389C98.4271 5.72228 98.7263 7.17026 99.0255 8.47344C99.0255 8.76304 99.0255 8.90784 98.5752 8.90784C97.9783 9.05264 97.5296 9.05264 96.9312 9.05264Z" fill="#FFFE00"/>
<path d="M21.6903 10.2102C22.1391 10.2102 22.7374 10.2102 23.1862 10.2102C23.4854 10.2102 23.635 10.355 23.635 10.6446C23.635 11.3685 23.7846 12.2373 23.9342 12.9613C24.3829 14.8437 26.4772 16.4365 28.4218 16.4365C29.6186 16.4365 30.8153 16.4365 31.8624 16.0021C33.3583 15.4229 34.4054 14.4093 35.0038 12.9613C35.303 12.2373 35.303 11.5133 35.303 10.6446C35.303 10.355 35.303 10.2102 35.7517 10.2102C36.7988 10.2102 37.6964 10.2102 38.7435 10.2102C39.0427 10.2102 39.0427 10.355 39.1923 10.6446C39.3419 12.8165 38.7435 14.8437 37.5468 16.7261C36.4997 18.3189 35.0038 19.3324 33.0591 19.7668C30.3665 20.4908 27.6739 20.4908 24.9813 19.3324C23.3358 18.6085 22.1391 17.4501 21.2415 16.0021C20.1944 14.4093 19.7456 12.5269 19.8952 10.6446C19.8952 10.355 20.0448 10.2102 20.344 10.2102C20.6432 10.2102 21.2415 10.0654 21.6903 10.2102C21.6903 10.0654 21.6903 10.0654 21.6903 10.2102Z" fill="#FFFE00"/>
<path d="M37.2548 9.05478C36.8061 9.05478 36.3573 9.05478 35.9085 9.05478C35.6093 9.05478 35.3102 8.90999 35.3102 8.62039C35.1606 7.6068 34.5622 6.73802 33.8143 6.01402C33.0663 5.43483 32.3184 5.14524 31.4208 4.85564C29.9249 4.56604 28.2794 4.56604 26.7836 5.14524C25.2877 5.72443 24.2405 6.88281 23.7918 8.47559C23.6422 8.90999 23.4926 9.05478 23.0438 9.05478C22.1463 9.05478 21.0992 9.05478 20.2016 9.05478C19.9024 9.05478 19.7528 8.90999 19.9024 8.62039C20.2016 7.462 20.5008 6.15882 21.2487 5.14524C22.1463 3.69725 23.343 2.53887 24.9885 1.95968C26.7836 1.23569 28.7282 0.946089 30.6729 1.09089C32.7671 1.23569 34.7118 1.81488 36.2077 3.26286C37.1052 4.13165 38.0028 5.14524 38.4515 6.30362C38.7507 7.02761 38.9003 7.8964 39.1995 8.62039C39.3491 9.05478 39.1995 9.05478 38.7507 9.05478C38.1524 9.05478 37.7036 9.05478 37.2548 9.05478Z" fill="#FFFE00"/>
<path d="M4.48769 1.23464C5.6844 1.23464 6.88112 1.23464 8.07784 1.23464C10.1721 1.37944 11.9672 2.10343 13.4631 3.40661C15.1085 4.8546 15.7069 6.59217 15.8565 8.61935C15.8565 8.90894 15.7069 9.05374 15.4077 9.05374C14.3606 9.05374 13.4631 9.05374 12.4159 9.05374C12.1168 9.05374 11.9672 8.90894 11.9672 8.61935C11.8176 7.46096 11.5184 6.44737 10.4713 5.72338C9.87291 5.28899 9.12496 4.99939 8.37702 4.8546C7.03071 4.8546 5.6844 4.8546 4.3381 4.8546C4.03892 4.8546 3.88933 4.99939 3.88933 5.28899C3.88933 6.30258 3.88933 7.46096 3.88933 8.47455C3.88933 9.05374 3.88933 9.05374 3.29097 9.05374C2.39343 9.05374 1.4959 9.05374 0.448769 9.05374C0.14959 9.05374 0 8.90894 0 8.61935C0 6.30258 0 3.98581 0 1.66904C0 1.23464 0.14959 1.08984 0.448769 1.08984C1.94466 1.23464 3.29097 1.23464 4.48769 1.23464Z" fill="#FFFE00"/>
<path d="M49.3586 20.056C47.5635 20.056 45.7684 20.056 43.9734 20.056C43.375 20.056 43.375 20.056 43.375 19.4783C43.375 16.4361 43.375 13.5401 43.375 10.5008C43.375 10.2112 43.5246 10.0664 43.8238 10.0664C44.8709 10.0664 45.918 10.0664 46.8156 10.0664C47.1147 10.0664 47.1147 10.2112 47.1147 10.356C47.1147 12.0936 47.1147 13.8312 47.1147 15.7135C47.1147 16.2927 47.1147 16.2927 47.7131 16.2927C50.1065 16.2927 52.3504 16.2927 54.7438 16.2927C55.043 16.2927 55.1926 16.4375 55.1926 16.7271C55.1926 17.7407 55.1926 18.7543 55.1926 19.6231C55.1926 19.9127 55.043 20.0575 54.7438 20.0575C53.0983 20.056 51.1537 20.056 49.3586 20.056Z" fill="#FFFE00"/>
<path d="M118.325 1.08984C120.27 1.08984 122.364 1.08984 124.309 1.08984C124.608 1.08984 124.758 1.23464 124.608 1.52424C124.608 2.53783 124.608 3.55141 124.608 4.565C124.608 4.8546 124.458 4.99939 124.159 4.99939C122.963 4.99939 121.764 4.99939 120.569 4.99939C120.27 4.99939 120.12 5.14419 120.12 5.43379C120.12 6.44737 120.12 7.60576 120.12 8.61935C120.12 9.19854 120.12 9.19854 119.522 9.19854C118.624 9.19854 117.728 9.19854 116.681 9.19854C116.382 9.19854 116.233 9.05374 116.233 8.76415C116.233 7.60576 116.233 6.44738 116.233 5.28899C116.233 4.99939 116.233 4.8546 115.782 4.8546C114.586 4.8546 113.241 4.8546 112.043 4.8546C111.745 4.8546 111.594 4.7098 111.594 4.4202C111.594 3.55141 111.594 2.53783 111.594 1.66904C111.594 1.08984 111.594 1.08984 112.192 1.08984C114.436 1.08984 116.381 1.08984 118.325 1.08984Z" fill="#FFFE00"/>
<path d="M116.383 15.1343C116.383 13.6864 116.383 12.0936 116.383 10.6456C116.383 10.2112 116.532 10.0664 116.832 10.0664C117.879 10.0664 118.776 10.0664 119.823 10.0664C120.123 10.0664 120.272 10.2112 120.272 10.5008C120.272 13.5416 120.272 16.5823 120.272 19.6231C120.272 19.9127 120.123 20.0575 119.823 20.0575C118.926 20.0575 117.879 20.0575 116.983 20.0575C116.683 20.0575 116.532 19.9127 116.532 19.6231C116.383 18.1751 116.383 16.5823 116.383 15.1343Z" fill="#FFFE00"/>
<path d="M60.2812 15.1343C60.2812 13.6864 60.2812 12.2384 60.2812 10.6456C60.2812 10.2112 60.4308 10.0664 60.8796 10.0664C61.7771 10.0664 62.8243 10.0664 63.7218 10.0664C64.021 10.0664 64.1706 10.2112 64.1706 10.5008C64.1706 13.5416 64.1706 16.5823 64.1706 19.6231C64.1706 19.9127 64.021 20.0575 63.7218 20.0575C62.8243 20.0575 61.7771 20.0575 60.8796 20.0575C60.4308 20.0575 60.4308 19.9127 60.4308 19.6231C60.2812 18.0303 60.2812 16.5823 60.2812 15.1343Z" fill="#FFFE00"/>
<path d="M69.4074 15.1343C69.4074 13.5416 69.4074 12.0936 69.4074 10.5008C69.4074 10.2112 69.5585 10.0664 69.8577 10.0664C70.9033 10.0664 71.9504 10.0664 72.8495 10.0664C73.1471 10.0664 73.1471 10.2112 73.1471 10.356C73.1471 10.6456 73.1471 11.08 73.1471 11.3696C73.1471 13.976 73.1471 16.4375 73.1471 19.0439C73.1471 19.1901 73.1471 19.4797 73.1471 19.6231C73.1471 19.9127 72.9975 19.9127 72.6984 19.9127C71.6512 19.9127 70.7537 19.9127 69.7066 19.9127C69.4074 19.9127 69.2578 19.7664 69.2578 19.4783C69.4074 18.1751 69.4074 16.5823 69.4074 15.1343Z" fill="#FFFE00"/>
<path d="M103.672 15.1343C103.672 13.5416 103.672 12.0936 103.672 10.5008C103.672 10.2112 103.672 10.0664 104.121 10.0664C105.168 10.0664 106.215 10.0664 107.264 10.0664C107.561 10.0664 107.561 10.2112 107.561 10.356C107.561 10.6456 107.561 10.9352 107.561 11.3696C107.561 14.1208 107.561 16.8719 107.561 19.6231C107.561 20.0575 107.412 20.0575 107.112 20.0575C106.215 20.0575 105.168 20.0575 104.272 20.0575C103.973 20.0575 103.821 19.9127 103.821 19.6231C103.672 18.1751 103.672 16.5823 103.672 15.1343Z" fill="#FFFE00"/>
<path d="M82.2812 15.1341C82.2812 13.6861 82.2812 12.0933 82.2812 10.6453C82.2812 10.2109 82.4308 10.2109 82.73 10.2109C83.7772 10.2109 84.6747 10.2109 85.7218 10.2109C86.021 10.2109 86.1706 10.3557 86.1706 10.6453C86.1706 11.2245 86.1706 11.6589 86.1706 12.2381C86.1706 14.6997 86.1706 17.1612 86.1706 19.6228C86.1706 20.0572 86.1706 20.202 85.5737 20.202C84.6747 20.202 83.7786 20.202 82.8796 20.202C82.4308 20.202 82.2812 20.0572 82.2812 19.6228C82.2812 18.03 82.2812 16.5821 82.2812 15.1341Z" fill="#FFFE00"/>
<path d="M98.8804 14.9893C98.8804 16.5835 98.8804 18.0315 98.8804 19.6228C98.8804 20.0572 98.7308 20.0572 98.4316 20.0572C97.5341 20.0572 96.4869 20.0572 95.5894 20.0572C95.2917 20.0572 95.1406 19.9124 95.1406 19.6228C95.1406 16.8716 95.1406 14.1205 95.1406 11.3693C95.1406 11.0797 95.1406 10.7901 95.1406 10.5005C95.1406 10.2109 95.2917 10.2109 95.4398 10.2109C96.4869 10.2109 97.5341 10.2109 98.5812 10.2109C98.8804 10.2109 98.8804 10.3557 98.8804 10.6453C98.8804 11.9485 98.8804 13.5413 98.8804 14.9893Z" fill="#FFFE00"/>
<path d="M11.9621 15.1338C11.9621 13.6858 11.9621 12.2378 11.9621 10.7899C11.9621 10.5003 12.1117 10.3555 12.4109 10.3555C13.3084 10.3555 14.3555 10.3555 15.2531 10.3555C15.5522 10.3555 15.7018 10.5003 15.7018 10.7899C15.7018 13.6858 15.7018 16.5818 15.7018 19.4777C15.7018 20.2017 15.8514 20.3465 14.8043 20.3465C13.9068 20.3465 13.1588 20.3465 12.2613 20.3465C11.9621 20.3465 11.8125 20.2017 11.8125 19.9121C12.1117 18.1746 11.9621 16.5818 11.9621 15.1338Z" fill="#FFFE00"/>
<path d="M4.03661 15.1329C4.03661 16.5809 4.03661 18.0289 4.03661 19.6216C4.03661 20.056 3.88703 20.056 3.58785 20.056C2.69031 20.056 1.64318 20.056 0.745644 20.056C0.296875 20.056 0.296875 19.9112 0.296875 19.4783C0.296875 16.4361 0.296875 13.5401 0.296875 10.5008C0.296875 10.2112 0.446465 10.0664 0.745644 10.0664C1.64318 10.0664 2.69031 10.0664 3.58785 10.0664C4.03662 10.0664 4.03661 10.2112 4.03661 10.6456C4.03661 12.0921 4.03661 13.5401 4.03661 15.1329Z" fill="#FFFE00"/>
<path d="M60.2812 5.14419C60.2812 3.98581 60.2812 2.82742 60.2812 1.52424C60.2812 1.23464 60.4308 1.08984 60.73 1.08984C61.7771 1.08984 62.6747 1.08984 63.7218 1.08984C64.021 1.08984 64.1706 1.23464 64.1706 1.52424C64.1706 3.98581 64.1706 6.30258 64.1706 8.76415C64.1706 9.05374 64.021 9.19854 63.7218 9.19854C62.6747 9.19854 61.6276 9.19854 60.5804 9.19854C60.2813 9.19854 60.2812 9.05374 60.2812 8.76415C60.2813 7.46096 60.2812 6.30258 60.2812 5.14419Z" fill="#FFFE00"/>
<path d="M103.672 4.99939C103.672 3.84101 103.672 2.68262 103.672 1.52424C103.672 1.23464 103.821 1.08984 104.121 1.08984C105.02 1.08984 106.065 1.08984 106.963 1.08984C107.412 1.08984 107.561 1.23464 107.561 1.52424C107.561 3.55141 107.561 5.57859 107.561 7.60576C107.561 7.89536 107.561 8.32975 107.561 8.61935C107.561 8.90894 107.412 9.05374 107.112 9.05374C106.065 9.05374 105.168 9.05374 104.121 9.05374C103.821 9.05374 103.672 8.90894 103.672 8.61935C103.672 7.46096 103.672 6.30258 103.672 4.99939Z" fill="#FFFE00"/>
<path d="M43.384 5.14419C43.384 3.98581 43.384 2.68262 43.384 1.52424C43.384 1.23464 43.5336 1.08984 43.8327 1.08984C44.8799 1.08984 45.927 1.08984 46.8245 1.08984C47.1237 1.08984 47.1237 1.23464 47.1237 1.37944C47.1237 3.84101 47.1237 6.15778 47.1237 8.61935C47.1237 8.90894 46.9741 9.05374 46.6749 9.05374C45.6278 9.05374 44.7303 9.05374 43.6831 9.05374C43.384 9.05374 43.2344 8.90894 43.2344 8.61935C43.384 7.46096 43.384 6.30258 43.384 5.14419Z" fill="#FFFE00"/>
<path d="M31.7122 31.7832C31.7122 32.0714 31.7122 32.361 31.7122 32.652C31.7122 32.7968 31.5626 32.7968 31.5626 32.7968C30.3658 33.0864 29.1691 33.2312 28.122 32.5072C27.6732 32.2176 27.3741 31.637 27.2245 31.204C26.7757 29.9009 26.7757 28.5977 27.6732 27.4393C28.122 26.7153 28.8699 26.4257 29.7675 26.2795C30.5154 26.1347 31.2634 26.2795 31.8617 26.5691H32.0113C32.3105 27.0034 31.8617 27.293 31.8617 27.5826C31.8617 27.5826 31.5626 27.7274 31.413 27.7274C30.9642 27.7274 30.5154 27.4393 30.2163 27.4393C29.4683 27.4393 28.8699 28.017 28.7204 28.741C28.5708 29.465 28.5708 30.189 28.8699 30.913C29.0195 31.3474 29.6179 31.7832 30.0667 31.7832C30.3658 31.928 30.9642 31.928 31.7122 31.7832Z" fill="white"/>
<path d="M93.7959 29.1817C93.9455 28.8921 94.095 28.7473 94.095 28.6025C94.3942 28.0233 94.6934 27.4441 94.9941 26.8649C95.1437 26.7201 95.2933 26.5753 95.4428 26.5753C95.742 26.5753 96.0412 26.5753 96.3404 26.5753C96.6396 26.5753 96.6396 26.7216 96.4915 26.8649C95.8931 27.8785 95.2947 29.0369 94.6964 30.0505C94.5468 30.3401 94.3972 30.6282 94.3972 31.0641C94.3972 31.6418 94.3972 32.2224 94.3972 32.6568C94.3972 32.9464 94.2476 33.0912 93.9484 33.0912C92.9013 33.0912 92.9013 33.0912 92.9013 32.0776C93.0524 30.9193 92.7517 30.0519 92.1534 29.0369C91.7046 28.3129 91.2558 27.5889 90.9567 26.8649C90.8071 26.5753 90.8071 26.4305 91.2558 26.4305H91.4054C92.3045 26.2843 92.6021 26.7201 92.9013 27.4441C93.0524 27.8785 93.3501 28.3129 93.6493 28.7458C93.4967 28.8921 93.6463 29.0369 93.7959 29.1817Z" fill="white"/>
<path d="M70.6073 30.3365C70.6073 29.6125 70.6073 28.7423 70.6073 28.0183C70.6073 27.7287 70.4562 27.7287 70.3081 27.7287C70.009 27.7287 69.5602 27.7287 69.261 27.7287C68.9618 27.7287 68.8122 27.7287 68.8122 27.4405C68.8122 26.5703 68.6612 26.5703 69.7098 26.5703C71.0561 26.5703 72.2528 26.5703 73.6006 26.5703C73.8983 26.5703 74.0494 26.7166 74.0494 27.0047C74.0494 27.7287 74.0494 27.7287 73.3014 27.7287C72.2543 27.7287 72.2543 27.7287 72.2543 28.7423C72.2543 30.0455 72.2543 31.4934 72.2543 32.7966C72.2543 33.0862 72.1047 33.0862 71.9551 33.0862C71.8055 33.0862 71.8055 33.0862 71.656 33.0862C70.908 33.0862 70.908 33.0862 70.908 32.3622C70.6073 31.6397 70.6073 31.0605 70.6073 30.3365Z" fill="white"/>
<path d="M51.1581 29.7598C51.1581 30.7734 51.1581 31.6422 51.1581 32.6557C51.1581 32.9453 51.0085 33.0901 50.7094 33.0901C49.5126 33.0901 49.6622 33.2364 49.6622 32.0766C49.6622 30.3404 49.6622 28.6028 49.6622 26.8638C49.6622 26.5742 49.8118 26.5742 49.9614 26.5742C50.111 26.5742 50.2606 26.5742 50.5598 26.5742C51.1581 26.5742 51.1581 26.5742 51.1581 27.1534C51.1581 28.0222 51.1581 28.891 51.1581 29.7598Z" fill="white"/>
</svg>
