<svg width="138" height="31" viewBox="0 0 138 31" fill="none" xmlns="http://www.w3.org/2000/svg">
<path d="M25.0912 12.9179C25.0912 19.7707 19.4011 25.2187 12.5456 25.2187C5.69009 25.2187 0 19.7707 0 12.9179C0 6.06515 5.69009 0.617188 12.5456 0.617188C19.4011 0.617188 25.0912 6.06515 25.0912 12.9179ZM5.8272 12.9179C5.8272 16.5156 8.84366 19.8735 12.5456 19.8735C16.2476 19.8735 19.264 16.5156 19.264 12.9179C19.264 9.32027 16.2476 5.96236 12.5456 5.96236C8.84366 5.96236 5.8272 9.32027 5.8272 12.9179Z" fill="url(#paint0_linear_5687_42825)"/>
<path d="M32.3266 9.11402H32.3952C33.7663 7.05816 35.5144 6.44141 36.9884 6.44141C41.8215 6.44141 43.4326 9.5252 43.4326 13.911V24.3957L38.0853 24.944V14.2879C38.0853 12.232 37.0227 11.2383 35.4116 11.2383C33.8006 11.2383 32.7379 12.232 32.7379 14.2879V24.3957L27.3906 24.944V6.98964L32.3266 6.44141V9.11402Z" fill="url(#paint1_linear_5687_42825)"/>
<path d="M52.3785 0.238281V24.3943L47.0312 24.9426V0.7865L52.3785 0.238281Z" fill="url(#paint2_linear_5687_42825)"/>
<path d="M63.0339 16.9261L67.2844 6.44141L72.4261 7.74344L62.0399 30.9744L56.4527 30.4261L60.2574 22.7853L53.5391 7.70918L58.7492 6.44141L63.0339 16.9261Z" fill="url(#paint3_linear_5687_42825)"/>
<path d="M78.0895 30.4261L72.7422 30.9744V6.98964L77.7467 6.44141V9.66221H77.8153C78.775 7.67491 80.9687 6.44141 83.1626 6.44141C88.3038 6.44141 91.8687 11.1699 91.8687 16.0353C91.8687 20.8323 87.6872 25.2181 82.8883 25.2181C81.1402 25.2181 79.1178 24.7726 78.158 23.1964H78.0895V30.4261ZM82.1685 20.4211C84.6708 20.4211 86.5218 18.1254 86.5218 15.8297C86.5218 13.534 84.6708 11.2383 82.1685 11.2383C79.6662 11.2383 77.8153 13.534 77.8153 15.8297C77.8153 18.1254 79.6662 20.4211 82.1685 20.4211Z" fill="url(#paint4_linear_5687_42825)"/>
<path d="M99.9876 0.238281V24.3943L94.6406 24.9426V0.7865L99.9876 0.238281Z" fill="url(#paint5_linear_5687_42825)"/>
<path d="M105.611 7.22948C106.982 6.74978 108.97 6.44141 110.443 6.44141C114.831 6.44141 117.848 8.2574 117.848 12.6089V24.3957L113.186 24.944V23.1964H113.117C112.089 24.7726 110.547 25.2181 108.73 25.2181C104.753 25.2181 102.594 22.614 102.594 18.845C102.594 15.2815 105.508 13.0544 108.901 13.0544C110.238 13.0544 111.746 13.5683 112.877 14.3906C112.912 14.2193 112.912 14.048 112.912 13.8424C112.912 11.4096 111.781 10.8957 109.484 10.8957C107.907 10.8957 106.296 11.3069 104.857 11.9579L105.611 7.22948ZM110.238 21.1064C111.678 21.1064 112.877 20.2498 112.877 18.7764C112.877 17.3373 111.678 16.4807 110.238 16.4807C108.764 16.4807 107.564 17.3373 107.564 18.7764C107.564 20.2498 108.764 21.1064 110.238 21.1064Z" fill="url(#paint6_linear_5687_42825)"/>
<path d="M127.784 16.9261L132.034 6.44141L137.177 7.74344L126.79 30.9744L121.203 30.4261L125.008 22.7853L118.289 7.70918L123.499 6.44141L127.784 16.9261Z" fill="url(#paint7_linear_5687_42825)"/>
<defs>
<linearGradient id="paint0_linear_5687_42825" x1="68.5896" y1="0.239978" x2="68.5896" y2="30.9752" gradientUnits="userSpaceOnUse">
<stop stop-color="#FFC000"/>
<stop offset="1" stop-color="#D200FF"/>
</linearGradient>
<linearGradient id="paint1_linear_5687_42825" x1="68.5923" y1="0.239331" x2="68.5923" y2="30.9745" gradientUnits="userSpaceOnUse">
<stop stop-color="#FFC000"/>
<stop offset="1" stop-color="#D200FF"/>
</linearGradient>
<linearGradient id="paint2_linear_5687_42825" x1="68.5919" y1="0.237975" x2="68.5919" y2="30.9732" gradientUnits="userSpaceOnUse">
<stop stop-color="#FFC000"/>
<stop offset="1" stop-color="#D200FF"/>
</linearGradient>
<linearGradient id="paint3_linear_5687_42825" x1="68.587" y1="0.239332" x2="68.587" y2="30.9745" gradientUnits="userSpaceOnUse">
<stop stop-color="#FFC000"/>
<stop offset="1" stop-color="#D200FF"/>
</linearGradient>
<linearGradient id="paint4_linear_5687_42825" x1="68.5946" y1="0.239332" x2="68.5946" y2="30.9745" gradientUnits="userSpaceOnUse">
<stop stop-color="#FFC000"/>
<stop offset="1" stop-color="#D200FF"/>
</linearGradient>
<linearGradient id="paint5_linear_5687_42825" x1="68.5895" y1="0.237975" x2="68.5895" y2="30.9732" gradientUnits="userSpaceOnUse">
<stop stop-color="#FFC000"/>
<stop offset="1" stop-color="#D200FF"/>
</linearGradient>
<linearGradient id="paint6_linear_5687_42825" x1="68.5907" y1="0.239334" x2="68.5907" y2="30.9745" gradientUnits="userSpaceOnUse">
<stop stop-color="#FFC000"/>
<stop offset="1" stop-color="#D200FF"/>
</linearGradient>
<linearGradient id="paint7_linear_5687_42825" x1="68.5869" y1="0.239332" x2="68.5869" y2="30.9745" gradientUnits="userSpaceOnUse">
<stop stop-color="#FFC000"/>
<stop offset="1" stop-color="#D200FF"/>
</linearGradient>
</defs>
</svg>
