<svg width="123" height="43" viewBox="0 0 123 43" fill="none" xmlns="http://www.w3.org/2000/svg">
<path d="M122.602 0.0195312V39.6928C122.602 41.4148 121.224 42.8612 119.433 42.8612H3.16835C1.37755 42.8612 0 41.4148 0 39.6928V10.2134C0 8.49144 1.37755 7.11389 3.16835 7.11389H115.438L121.982 0.0195312H122.602Z" fill="#FF4040"/>
<path d="M23.6241 20.9592C23.6241 24.6097 20.8691 27.2959 17.1497 27.2959H14.5323V32.1174H9.71094V14.6914H17.1497C20.8691 14.6914 23.6241 17.3087 23.6241 20.9592ZM18.665 20.9592C18.665 19.7194 17.8385 18.8929 16.5987 18.8929H14.5323V23.0944H16.5987C17.8385 23.0944 18.665 22.199 18.665 20.9592Z" fill="white"/>
<path d="M25.5547 13.7969H30.2383V32.1182H25.5547V13.7969Z" fill="white"/>
<path d="M47.4591 18.6164V32.1163H43.8775L43.4642 31.1521C42.3622 32.0475 40.9847 32.5296 39.4005 32.5296C35.3367 32.5296 32.375 29.5679 32.375 25.3664C32.375 21.1648 35.3367 18.2031 39.4005 18.2031C40.9847 18.2031 42.4311 18.7541 43.5331 19.6495L44.0153 18.6164H47.4591ZM43.051 25.3664C43.051 23.6444 41.8112 22.3358 40.0893 22.3358C38.2984 22.3358 37.0587 23.6444 37.0587 25.3664C37.0587 27.1572 38.3673 28.4658 40.0893 28.4658C41.8112 28.4658 43.051 27.1572 43.051 25.3664Z" fill="white"/>
<path d="M59.4395 28.0536V32.1174H56.2712C53.3095 32.1174 51.5186 30.3265 51.5186 27.2959V22.199H49.0391V21.1659L55.1003 14.6914H55.9957V18.6863H59.3707V22.199H56.1334V26.5383C56.1334 27.5026 56.6844 28.0536 57.7176 28.0536H59.4395Z" fill="white"/>
<path d="M61.6484 18.687H66.2632V32.1181H61.6484V18.687ZM61.6484 13.0391H66.2632V16.9651H61.6484V13.0391Z" fill="white"/>
<path d="M84.0948 25.3664C84.0948 29.5679 81.202 32.5985 77.0693 32.5985C75.8295 32.5985 74.7275 32.2541 73.7632 31.7031V37.0066H69.1484V18.6853H72.3168L72.9367 19.7184C74.0387 18.7541 75.4163 18.2031 77.0693 18.2031C81.202 18.2031 84.0948 21.1648 84.0948 25.3664ZM79.48 25.3664C79.48 23.6444 78.1714 22.3358 76.4494 22.3358C74.7275 22.3358 73.4188 23.6444 73.4188 25.3664C73.4188 27.1572 74.7275 28.4658 76.4494 28.4658C78.1714 28.4658 79.48 27.1572 79.48 25.3664Z" fill="white"/>
<path d="M86.0938 26.329V18.6836H90.7085V26.1223C90.7085 27.5688 91.4662 28.3953 92.706 28.3953C93.9458 28.3953 94.7034 27.5688 94.7034 26.1223V18.6836H99.3871V26.329C99.3871 30.1172 96.7009 32.5968 92.706 32.5968C88.7111 32.5279 86.0938 30.1172 86.0938 26.329Z" fill="white"/>
<path d="M107.313 32.5296C103.593 32.5296 101.389 30.601 101.32 27.7082H105.797C105.797 28.6725 106.486 29.1546 107.382 29.1546C108.07 29.1546 108.69 28.8102 108.69 28.1215C108.69 27.2949 107.657 27.0883 106.348 26.8817C104.282 26.5373 101.527 25.9174 101.527 22.6801C101.527 19.9251 103.8 18.2031 107.313 18.2031C110.688 18.2031 112.961 20.0628 112.961 22.749H108.621C108.621 21.9225 108.07 21.5092 107.175 21.5092C106.486 21.5092 105.935 21.8536 105.935 22.4735C105.935 23.2312 106.968 23.4378 108.277 23.6444C110.412 24.0577 113.236 24.471 113.236 27.9148C113.236 30.7388 110.825 32.5296 107.313 32.5296Z" fill="white"/>
</svg>
