<svg width="139" height="29" viewBox="0 0 139 29" fill="none" xmlns="http://www.w3.org/2000/svg">
<path d="M54.403 16.8813C54.1271 17.2636 53.9892 17.6459 53.7134 18.0282C52.7479 19.5574 51.5066 20.8318 49.9894 21.7239C48.1964 22.7434 45.5759 23.2531 43.5071 21.9787C43.5071 22.1075 43.3691 22.2336 43.3691 22.3623C43.0933 23.508 42.6795 24.5275 42.4037 25.6744C42.2658 25.9293 42.2658 26.1842 42.2658 26.439C42.2658 27.0762 42.5416 27.3311 43.2312 27.4598C43.5071 27.4598 43.9208 27.5872 44.1967 27.5872C44.3346 28.2244 44.3346 28.2244 43.645 28.2244C41.0244 28.2244 38.266 28.2244 35.6454 28.2244C35.3696 28.2244 35.0938 28.3519 35.0938 27.9696C35.0938 27.5872 35.2317 27.4611 35.5075 27.4611C36.473 27.4611 36.8868 26.9513 37.1626 26.1867C37.4384 25.0398 37.8522 24.0203 38.1281 22.8721C38.4039 21.8526 38.8177 20.7057 39.0935 19.6862C39.7831 17.1374 40.4728 14.5887 41.1624 12.0399C41.3003 11.9112 41.3003 11.6564 41.4382 11.4015C41.7141 10.5094 41.3003 9.99968 40.3348 9.99968C40.059 9.99968 39.7831 9.99968 39.7831 9.61737C39.7831 9.36249 39.9211 9.23505 40.1969 9.23505C41.3003 9.10762 42.5416 9.10762 43.645 8.98018C44.7484 8.85274 45.9897 8.72531 47.231 8.47043C46.9551 9.36249 46.6793 10.2546 46.4034 11.1466C46.4034 11.1466 46.4034 11.1466 46.5414 11.1466C46.6793 11.0192 46.8172 10.8917 46.8172 10.7643C47.6448 9.7448 48.6102 8.85274 49.9894 8.343C51.5066 7.70581 53.1617 7.70581 54.5409 8.72531C55.3684 9.36249 55.6443 10.1271 55.7822 11.0192C55.7822 11.5289 55.9201 11.9112 55.9201 12.421C56.0581 12.2935 56.0581 12.1661 56.0581 12.1661C56.7477 9.7448 57.4373 7.45094 58.1269 5.02964C58.2648 4.51989 58.4028 4.01014 58.4028 3.50039C58.4028 2.99065 58.1269 2.73577 57.5752 2.60834C57.4373 2.60834 57.1615 2.4809 57.0235 2.4809C56.7477 2.4809 56.6098 2.35346 56.6098 2.09859C56.6098 1.84371 56.7477 1.71628 57.0235 1.71628C58.8165 1.4614 60.6095 1.33397 62.4025 1.07909C62.9542 0.951656 63.5059 0.951656 64.0576 0.824219C63.9197 1.4614 63.6438 2.09859 63.5059 2.73577C62.8163 5.02964 62.2646 7.3235 61.575 9.61737C61.2991 10.6369 61.0233 11.6564 60.6095 12.6759C60.0578 14.7148 59.3682 16.7538 58.8165 18.7928C58.8165 18.9215 58.8165 19.0477 58.8165 19.1764C58.8165 19.6849 59.3682 19.941 59.782 19.5587C60.4716 19.049 61.0233 18.4118 61.0233 17.5185C61.1612 16.2441 61.575 14.9697 62.2646 13.6953C63.368 11.6564 64.8851 9.87224 66.954 8.59787C68.0574 7.83325 69.4366 7.45094 70.8158 7.70581C71.9192 7.83325 72.7468 8.47043 73.0226 9.48993C73.0226 9.61737 73.1605 9.61737 73.1605 9.7448C73.2985 9.23505 73.4364 8.85274 73.5743 8.47043C73.5743 8.21556 73.8488 8.08812 74.1246 8.08812C75.3659 8.08812 76.6072 8.08812 77.8485 8.08812C77.9865 8.08812 78.1244 8.21556 78.2623 8.21556C78.4016 8.21556 78.4016 8.343 78.5395 8.343C79.9188 8.59787 81.1601 8.47043 82.2635 8.343C83.091 8.21556 83.5034 8.343 83.7806 9.10762C84.3323 10.7643 84.7461 12.421 85.1598 14.0777C85.4357 15.4795 85.7115 16.8813 86.1253 18.2831C86.1253 18.2831 86.1253 18.4105 86.2632 18.5379C86.5391 18.0282 86.8149 17.6459 86.9528 17.2636C87.5045 16.1166 88.1942 14.9697 88.6079 13.6953C89.0217 12.6759 88.8838 12.2935 87.9183 11.6564C86.677 10.8917 86.8149 9.36249 87.6425 8.72531C88.4714 8.08812 89.2975 8.08812 90.4009 8.21556C90.6768 8.21556 90.9526 8.343 91.2298 8.21556C93.7111 7.57838 95.2282 6.17657 96.4695 4.26502C96.6075 4.13758 96.7454 3.8827 96.8833 3.75527C97.2971 3.11808 97.2971 3.11808 98.1246 3.24552C97.8488 4.39245 97.5729 5.41195 97.1592 6.55888C97.0212 6.94119 96.8833 7.45094 96.7454 7.83325C96.6061 8.08812 96.7454 8.21556 97.1592 8.21556C97.8488 8.21556 98.6763 8.21556 99.3659 8.21556C99.3659 8.343 99.3659 8.343 99.3659 8.343C99.0901 9.36249 99.228 9.10762 98.2625 9.10762C97.7122 9.10762 97.2971 9.10762 96.7454 9.10762C96.4695 9.10762 96.1937 9.23505 96.1937 9.48993C95.7799 10.8917 95.3662 12.1661 94.9524 13.5679C94.5386 14.9697 94.1248 16.3715 93.7111 17.7733C93.5732 18.4105 93.4352 19.0477 93.2973 19.5574C93.158 19.9398 93.2973 20.3221 93.7111 20.5769C94.1248 20.8318 94.5386 20.7044 94.8145 20.5769C95.7799 20.0672 96.4695 19.3026 97.1592 18.5379C97.2971 18.4092 97.2971 18.2831 97.2971 18.1544C97.2971 15.9892 98.2625 14.0764 99.5052 12.4197C100.609 11.0179 101.85 9.87097 103.643 9.10634C105.436 8.21429 107.367 7.83197 109.298 8.46916C110.263 8.72403 110.953 9.23378 111.229 10.1258C111.505 11.2728 111.229 12.2923 110.4 13.1843C109.16 14.4587 107.641 15.2233 105.988 15.7331C104.608 16.1154 103.09 16.4977 101.574 16.4977C100.745 16.499 100.745 16.6264 100.607 17.391C100.469 18.1556 100.331 18.9203 100.745 19.8123C101.159 20.8318 102.538 21.469 103.642 21.2141C105.848 20.8318 107.503 19.6849 109.296 18.5379C109.71 18.2831 109.71 18.0282 109.71 17.6459C109.71 15.6056 110.539 13.8228 111.779 12.1661C113.02 10.6369 114.537 9.48993 116.332 8.72531C117.986 8.08812 119.641 7.96069 121.296 8.343C122.537 8.59787 123.778 9.61737 123.64 11.0192C123.501 12.1661 122.122 12.9307 121.02 12.5484C120.33 12.2935 120.054 11.4015 120.33 10.7643C120.47 10.5094 120.606 10.2546 120.744 10.1271C121.02 9.61737 120.882 9.23505 120.192 9.23505C119.227 9.10762 118.399 9.23505 117.434 9.61737C116.193 10.2545 115.365 11.1466 114.536 12.1661C113.709 13.313 113.157 14.5874 112.882 15.8618C112.607 17.0087 112.607 18.1556 113.157 19.3026C113.986 20.9593 115.915 21.5964 117.71 20.9592C119.503 20.3221 120.882 19.0477 122.122 17.6459C122.811 16.88 122.951 15.8618 123.363 14.8423C124.329 11.9112 125.294 8.85274 126.26 5.9217C126.399 5.41195 126.537 4.9022 126.675 4.39245C126.813 3.62783 126.535 3.11808 125.57 3.11808C124.88 3.11808 124.33 3.11808 123.64 3.11808C123.64 2.35346 123.64 2.35346 124.468 2.35346C125.986 2.22602 127.502 1.97115 128.881 1.58884C129.295 1.4614 129.709 1.4614 130.261 1.33397C128.881 5.53938 127.64 9.61737 126.399 13.6953C126.399 13.6953 126.537 13.6953 126.537 13.8228C126.813 13.5679 127.088 13.4405 127.366 13.1856C129.157 11.6564 131.088 10.2545 133.157 9.10762C133.986 8.72531 134.951 8.343 135.916 8.21556C137.295 8.21556 137.71 8.98018 137.434 9.99968C136.882 11.9112 136.193 13.6953 135.641 15.6056C135.226 17.0087 134.676 18.4092 134.262 19.8123C134.262 20.0659 134.262 20.1946 134.262 20.4495C134.26 20.9592 134.812 21.2141 135.226 20.9592C135.916 20.4508 136.605 19.9398 137.295 19.43C137.434 19.43 137.434 19.3026 137.571 19.1764C137.71 19.3038 137.846 19.43 138.122 19.5587C137.571 20.0672 137.019 20.5782 136.467 21.088C135.502 21.8526 134.536 22.6159 133.295 22.7446C132.881 22.7446 132.33 22.7446 131.916 22.6159C131.226 22.4885 130.95 21.8513 131.226 21.2141C131.502 20.3221 131.776 19.43 132.054 18.5379C132.881 16.2441 133.571 13.8228 134.398 11.5289C134.674 10.7643 134.123 10.2546 133.295 10.5094C132.605 10.7643 131.778 11.0192 131.226 11.4015C129.847 12.2935 128.606 13.313 127.364 14.3325C126.26 15.2246 125.709 16.3715 125.295 17.6459C124.88 18.9203 124.467 20.1946 124.054 21.469C124.054 21.5964 124.054 21.5964 123.916 21.7239C123.502 23.1257 123.778 22.7434 122.399 22.7434C121.985 22.7434 121.434 22.7434 120.882 22.7434C121.158 21.8513 121.432 20.9593 121.709 20.0659C121.709 20.0659 121.709 20.0659 121.572 20.0659C121.434 20.1946 121.296 20.3221 121.158 20.4495C119.916 21.5964 118.537 22.3611 116.882 22.7434C114.675 23.1257 112.607 22.9982 111.089 21.3403C110.676 20.8318 110.262 20.3221 109.848 19.6849C109.572 19.9398 109.158 20.1946 108.745 20.4508C107.226 21.4703 105.571 22.3623 103.642 22.7446C102.262 22.9995 101.021 23.127 99.6418 22.6159C98.4018 22.2336 97.7122 21.3416 97.435 20.1959C97.435 20.0672 97.435 20.0672 97.2957 19.941C97.2957 19.941 97.2957 19.941 97.1578 19.941C97.0199 20.0685 96.744 20.3233 96.6061 20.4508C95.642 21.3416 94.6765 22.2336 93.4352 22.6159C92.056 23.1257 90.9526 22.6159 90.5388 21.5964C90.263 20.9592 90.3995 20.1946 90.5388 19.5574C91.0905 17.5185 91.7802 15.4795 92.3318 13.4405C92.7456 12.1661 93.0215 10.7643 93.4352 9.48993C93.4352 9.23505 93.5745 9.10762 93.1594 9.10762C92.6091 9.10762 91.9195 9.10762 91.3664 9.10762C91.3664 9.23505 91.2285 9.23505 91.3664 9.23505C91.7802 10.5094 91.3664 11.5289 90.8161 12.6759C89.5734 15.6069 87.9183 18.4105 86.1253 21.0867C84.884 22.9982 83.5048 24.9098 81.7118 26.4378C80.7463 27.3311 79.6429 28.0957 78.4016 28.478C77.4361 28.7329 76.6072 28.7329 75.6432 28.478C74.4018 28.0957 73.9881 27.3311 74.1246 26.1842C74.2639 25.4195 75.2294 24.7824 76.3328 24.7824C77.0224 24.7824 77.712 25.0372 78.4016 25.4195C78.6761 25.5483 78.8154 25.6744 79.0912 25.8019C79.505 26.0567 79.9188 26.0567 80.3312 25.6744C81.2966 24.9098 81.8497 24.0177 81.7104 22.7434C81.4345 21.3403 81.2966 19.8123 81.0208 18.4105C80.7449 17.0087 80.4705 15.4795 80.1932 14.0777C79.9188 13.0582 79.6429 12.0387 79.3671 11.0192C79.2291 10.7643 79.0912 10.5094 78.8154 10.2545C78.2637 9.7448 78.1258 9.7448 77.9878 10.1271C77.712 11.1466 77.2982 12.1661 77.0224 13.1856C76.4707 14.8423 76.0569 16.499 75.5052 18.1556C75.3673 18.5392 75.2294 18.9215 75.2294 19.3026C75.0915 19.6849 75.2294 19.9398 75.5052 20.1946C75.7811 20.4495 76.1948 20.1946 76.3341 20.0659C76.7479 19.6836 77.0238 19.3013 77.4375 18.9203C77.5755 18.7915 77.7134 18.5379 77.8513 18.2831C78.1271 18.4105 78.2651 18.5379 78.5409 18.7915C77.8499 19.8123 77.0224 20.8318 76.0569 21.7239C75.0915 22.4885 73.9881 22.8695 72.6088 22.7434C71.6434 22.6147 70.8158 22.4885 70.54 21.469C70.4007 20.8318 70.54 20.1946 70.54 19.6849C70.54 19.5574 70.54 19.3026 70.54 19.1764C70.2641 19.5587 69.8504 20.0672 69.5745 20.4508C68.3332 21.8526 66.8161 22.8708 64.7472 22.7446C62.9542 22.7446 61.575 21.7251 61.1612 20.3233C61.1612 20.3233 61.1612 20.1959 61.0233 20.1959C60.8854 20.3233 60.7474 20.4508 60.6095 20.5782C59.782 21.4703 58.6786 22.3623 57.2994 22.6172C56.4718 22.7434 55.6443 22.7434 54.9547 22.4885C53.9892 22.1062 53.4375 20.8318 53.7134 19.8123C53.8513 19.3026 53.9892 18.7915 54.1271 18.2831C54.2651 17.9008 54.403 17.391 54.403 16.8813C54.5409 16.8813 54.403 16.8813 54.403 16.8813ZM50.4032 12.2935C50.2653 12.2935 50.4032 12.2935 50.4032 12.2935C50.2653 12.0387 50.2653 11.9112 50.2653 11.6564C50.1274 10.6369 49.2998 10.2545 48.3344 10.6369C48.0585 10.7643 47.7827 10.8917 47.5068 11.1466C46.6793 11.9112 46.1276 12.9307 45.8518 13.9502C45.1621 15.8618 44.6104 17.902 43.9208 19.8136C43.645 20.8331 44.1967 21.5964 45.1621 21.4703C45.438 21.4703 45.8518 21.3416 46.1276 21.088C46.6793 20.5782 47.3689 19.941 47.7827 19.3038C48.4723 17.902 49.1619 16.5002 49.7136 15.0984C49.9894 14.2051 50.1274 13.313 50.4032 12.2935ZM72.4709 11.274C72.4709 11.0192 72.4709 10.8917 72.333 10.7643C72.1951 9.99968 71.5055 9.48993 70.6779 9.87224C70.2641 9.99968 69.8504 10.2545 69.5745 10.6369C68.1953 12.2935 67.2298 14.0777 66.5402 16.1166C66.2644 17.0087 65.9885 18.0282 65.9885 18.9203C65.9885 19.4287 66.1265 19.9398 66.6781 20.1946C67.2298 20.4495 67.7815 20.3221 68.1953 19.9398C68.747 19.43 69.2987 18.9203 69.7125 18.4105C70.8172 16.7538 71.3675 14.9697 71.9206 13.1856C72.333 12.5484 72.333 11.9112 72.4709 11.274ZM100.745 15.4795C100.884 15.4795 101.021 15.4795 101.16 15.4795C101.711 15.352 102.4 15.352 102.953 15.2246C104.883 14.8423 106.539 14.0777 107.781 12.6759C108.331 12.1661 108.608 11.4015 108.608 10.7643C108.747 9.87224 108.194 9.23505 107.091 9.23505C105.712 9.23505 104.746 9.7448 103.781 10.5094C102.4 11.9112 101.435 13.5679 100.745 15.4795Z" fill="white"/>
<path d="M10.4055 28.0983C8.06084 28.0983 5.85407 27.8435 3.78522 26.9514C1.99222 26.1868 0.750915 25.0399 0.199222 23.2557C-0.214547 21.8539 0.0612992 20.4534 0.612992 19.0503C1.44053 17.0113 2.95768 15.4821 4.61276 13.9528C6.40576 12.4236 8.33669 11.0218 10.5435 9.87485C10.8193 9.87485 10.9572 9.74741 10.9572 9.3651C10.9572 8.34561 10.9572 7.32611 10.9572 6.30662C10.9572 5.03225 12.3365 4.26763 13.7157 4.90481C14.957 5.54199 16.1983 6.30662 17.4396 6.9438C17.5775 7.07124 17.8534 7.07124 17.9913 6.9438C19.2326 6.68893 20.6118 6.30662 21.8531 6.05174C24.0599 5.54199 26.4046 5.41456 28.7493 5.54199C30.8182 5.66943 33.0249 5.92431 34.8179 7.07124C36.7488 8.21817 37.7143 10.0023 37.5764 12.1687C37.4385 13.8254 36.6109 15.3546 35.5075 16.7564C33.4387 19.4326 30.6802 21.4716 27.6459 23.2557C24.4737 25.0399 21.1635 26.3142 17.5775 27.2063C15.0949 27.716 12.7502 28.0983 10.4055 28.0983ZM21.9911 9.61998C22.129 9.74741 22.129 9.74742 22.2669 9.87485C24.0599 10.7669 25.8529 11.659 27.6459 12.551C28.1976 12.8059 28.6114 13.3156 28.6114 13.9528C28.6114 14.59 28.1976 14.9723 27.6459 15.3546C26.2667 16.1193 25.0254 16.7564 23.6462 17.5211C20.336 19.3052 17.0258 21.0906 13.7157 22.8734C13.0261 23.2557 12.4744 23.3832 11.7848 23.0021C11.0951 22.6185 10.9572 21.9814 10.9572 21.3442C10.9572 19.6875 10.9572 18.1583 10.9572 16.5016C10.9572 16.3741 10.9572 16.2467 10.9572 15.9931C10.8193 16.1193 10.6814 16.1193 10.5435 16.2467C9.44007 17.5211 8.47461 18.9242 8.06084 20.707C7.78499 22.1101 8.47461 23.5106 9.85384 24.1478C11.2331 24.785 12.6123 24.785 14.1295 24.6575C15.7845 24.5288 17.4396 24.0204 19.0947 23.3832C22.2669 22.1088 25.0254 20.4521 27.3701 18.157C28.7493 16.7552 29.8527 15.3534 30.4044 13.4418C30.9561 11.1479 29.8527 9.6187 27.6459 9.10896C26.4046 8.85408 25.1633 8.85408 23.922 8.98152C23.3703 9.23767 22.6807 9.49254 21.9911 9.61998ZM12.8881 13.8254C13.0261 13.8254 13.0261 13.8254 12.8881 13.8254C12.8881 15.4821 12.8881 17.1388 12.8881 18.9229C12.8881 19.4313 13.0261 19.8149 13.5778 20.0685C14.1295 20.3234 14.5432 20.1972 14.957 19.9411C16.75 19.049 18.4051 18.0295 20.1981 17.1375C21.5773 16.3729 23.0945 15.6082 24.4737 14.8436C25.3012 14.4613 25.3012 13.4418 24.4737 13.0595C21.3015 11.2754 18.1292 9.6187 14.957 7.83459C14.5432 7.57971 14.1295 7.45228 13.5778 7.70715C13.0261 7.96202 12.8881 8.34433 12.8881 8.98152C13.0261 10.3846 12.8881 12.0413 12.8881 13.8254ZM4.61276 20.9619C4.47484 21.4716 4.33692 21.9814 4.33692 22.3649C4.33692 23.7668 4.75069 25.0411 6.12992 25.9332C7.37122 26.8252 8.88838 27.0788 10.4055 27.0788C12.3365 27.0788 14.2674 26.8252 16.0604 26.1881C17.7155 25.6783 19.2326 25.0411 20.8877 24.4039C21.3015 24.2765 21.8532 23.8942 22.2669 23.6393V23.5106C22.129 23.5106 21.9911 23.6393 21.8531 23.6393C20.7498 24.0216 19.7843 24.4039 18.6809 24.6588C17.3017 24.9137 15.7845 25.1673 14.2674 25.4234C12.3365 25.677 10.5435 25.5496 8.75046 25.0399C7.37122 24.6575 6.12992 24.0204 5.4403 22.746C5.02653 22.2362 4.88861 21.5991 4.61276 20.9619ZM33.4387 11.1492C33.5766 10.8943 33.4387 10.6395 33.4387 10.3846C33.1628 8.85536 32.1974 7.83586 30.6802 7.19868C28.8872 6.56149 27.0942 6.56149 25.3012 6.68893C24.4737 6.81636 23.6462 6.9438 22.8186 7.19868C21.7152 7.45355 20.7498 7.83586 19.6464 8.09073V8.21817C20.0602 8.34561 20.336 8.72792 20.8877 8.72792C21.7152 8.60048 22.4048 8.47304 23.2324 8.34561C25.1633 8.09073 27.0942 8.09073 29.1631 8.47304C30.4044 8.72792 31.5078 9.11023 32.3353 10.0023C32.7491 10.2572 33.0249 10.6395 33.4387 11.1492Z" fill="white"/>
</svg>
