<svg width="137" height="27" viewBox="0 0 137 27" fill="none" xmlns="http://www.w3.org/2000/svg">
<path d="M49.0066 12.7244L43.9696 6.90234H42.3359L48.1898 14.4064V18.9347H49.6873V14.4064L55.6773 6.90234H53.9075L49.0066 12.7244Z" fill="white"/>
<path d="M67.5237 6.90234H58.9471C58.4026 6.90234 57.858 7.1611 57.4496 7.54924C57.0412 7.93738 56.769 8.4549 56.769 8.97242V11.6894C56.769 12.2069 57.0412 12.7244 57.4496 13.1126C57.858 13.5007 58.4026 13.7595 58.9471 13.7595H67.5237C67.6599 13.7595 67.9322 13.7595 68.0683 13.8889C68.2044 14.0182 68.3406 14.1476 68.3406 14.4064V17.1234C68.3406 17.2527 68.2044 17.5115 68.0683 17.6396C67.9322 17.7703 67.796 17.7703 67.5237 17.7703H58.9471C58.811 17.7703 58.5387 17.7703 58.4026 17.6396C58.2665 17.5102 58.1303 17.3808 58.1303 17.1234V16.6059H56.6328V17.1234C56.6328 17.6396 56.9051 18.1584 57.3135 18.5466C57.7219 18.9347 58.2665 19.1935 58.811 19.1935H67.3876C67.9322 19.1935 68.4767 18.9347 68.8851 18.5466C69.2949 18.1584 69.5658 17.6409 69.5658 17.1234V14.4064C69.5658 13.8889 69.2949 13.3713 68.8851 12.9832C68.4767 12.5951 67.9322 12.3363 67.3876 12.3363H58.811C58.6749 12.3363 58.4026 12.3363 58.2665 12.2069C58.1303 12.0775 57.9942 11.9482 57.9942 11.6894V8.84304C57.9942 8.71366 58.1303 8.4549 58.2665 8.32552C58.4026 8.19614 58.6749 8.19614 58.9471 8.19614H67.5237C67.6599 8.19614 67.9322 8.19614 68.0683 8.32552C68.2044 8.4549 68.3406 8.58428 68.3406 8.84304V9.36057H69.8381V8.84304C69.8381 8.32552 69.5658 7.808 69.1574 7.41986C68.749 7.03172 68.2044 6.90234 67.5237 6.90234Z" fill="white"/>
<path d="M15.6504 6.90234H14.2891V18.9347H27.222V17.6409H15.6504V6.90234Z" fill="white"/>
<path d="M39.0673 6.90234H30.4907C29.9461 6.90234 29.4016 7.1611 28.9932 7.54924C28.5848 7.93738 28.3125 8.4549 28.3125 8.97242V19.0641H29.81V14.6651H39.8841V19.0641H41.3816V8.84304C41.3816 8.32552 41.1093 7.808 40.7009 7.41986C40.2925 7.03172 39.6118 6.90234 39.0673 6.90234ZM39.748 13.242H29.6739V8.84304C29.6739 8.71366 29.81 8.4549 29.9461 8.32552C30.0823 8.19614 30.2184 8.19614 30.3545 8.19614H38.9312C39.0673 8.19614 39.3396 8.19614 39.4757 8.32552C39.6118 8.4549 39.748 8.58428 39.748 8.84304V13.242Z" fill="white"/>
<path d="M10.7548 6.90234H0V18.9347H1.4975V14.4064C1.90591 14.4064 2.04205 14.5371 2.17818 14.5371H10.7548C11.2993 14.5371 11.8439 14.2783 12.2523 13.8902C12.6607 13.502 12.933 12.9845 12.933 12.467V8.84304C12.933 8.32552 12.6607 7.808 12.2523 7.41986C11.8439 7.03172 11.4355 6.90234 10.7548 6.90234ZM11.5716 12.4657C11.5716 12.5951 11.4355 12.8538 11.2993 12.9832C11.1632 12.9832 11.0271 13.1126 10.7548 13.1126H2.17818C2.04205 13.1126 1.76977 13.1126 1.63364 12.9832C1.4975 12.7244 1.4975 12.5951 1.4975 12.4657V8.84304C1.4975 8.71366 1.63364 8.4549 1.76977 8.32552C1.76977 8.32552 1.90591 8.19614 2.17818 8.19614H10.7548C10.8909 8.19614 11.1632 8.19614 11.2993 8.32552C11.4355 8.4549 11.5716 8.58428 11.5716 8.84304V12.4657Z" fill="white"/>
<path d="M105.641 26.3091L115.851 22.0395L105.641 17.6406V26.3091Z" fill="#FFA110"/>
<path d="M105.641 9.10156V17.6406L115.851 13.3711L105.641 9.10156Z" fill="#FF0004"/>
<path d="M115.852 22.0396L125.926 17.6406L115.852 13.3711V22.0396Z" fill="#00AA95"/>
<path d="M125.922 9.10156V17.6406L136.132 13.3711L125.922 9.10156Z" fill="#FFE400"/>
<path d="M125.926 9.10205L115.852 4.70312V13.3716L125.926 9.10205Z" fill="#009FEE"/>
<path d="M82.3577 6.90234H73.7811C73.2366 6.90234 72.692 7.1611 72.2822 7.54924C71.8738 7.93738 71.6016 8.4549 71.6016 8.97243V16.994C71.6016 17.5115 71.8738 18.029 72.2822 18.4185C72.692 18.8066 73.2352 19.0654 73.7811 19.0654H82.3577C82.9023 19.0654 83.4468 18.8066 83.8552 18.4185C84.265 18.029 84.5359 17.5128 84.5359 16.994V8.84305C84.5359 8.32552 84.265 7.808 83.8552 7.41986C83.4468 7.03172 83.0384 6.90234 82.3577 6.90234ZM83.0384 16.994C83.0384 17.1247 82.9023 17.3821 82.7661 17.5115C82.63 17.6409 82.4939 17.6409 82.2229 17.6409H73.645C73.5088 17.6409 73.2366 17.6409 73.1018 17.5115C72.9643 17.3821 72.8282 17.2528 72.8282 16.994V8.84305C72.8282 8.71367 72.9643 8.4549 73.1004 8.32552C73.3727 8.32552 73.5088 8.19614 73.7811 8.19614H82.3577C82.4939 8.19614 82.7661 8.19614 82.9023 8.32552C83.0384 8.58429 83.0384 8.71367 83.0384 8.84305V16.994Z" fill="white"/>
<path d="M98.0169 17.3821L88.4874 6.90234H86.4453V18.9347H87.9428V8.4549L97.4724 18.9347H99.5144V6.90234H98.0169V17.3821Z" fill="white"/>
<path d="M105.641 0.433594V9.10206L115.851 4.70314L105.641 0.433594Z" fill="#FF007B"/>
</svg>
