<svg width="117" height="48" viewBox="0 0 117 48" fill="none" xmlns="http://www.w3.org/2000/svg">
<path d="M87.7457 26.5781H86V34.9655H90.306V33.4405H87.7457V26.5781Z" fill="white"/>
<path d="M83.4404 26.9051C82.741 26.6873 82.0439 26.5783 81.2293 26.6873H79.3672V35.0746H81.1129V31.48C81.6948 31.48 82.393 31.48 82.9749 31.37C83.5568 31.2611 84.0223 30.9354 84.3715 30.6075C84.7206 30.1729 84.9534 29.6283 84.837 29.0837C84.837 28.6479 84.7194 28.1033 84.4867 27.6676C84.2551 27.3408 83.9059 27.014 83.4404 26.9051ZM83.0913 29.5194C82.9749 29.6283 82.8585 29.7372 82.7422 29.8461C82.393 29.9551 82.1603 29.9551 81.8111 29.9551H81.2293V28.2122H81.6948C82.0439 28.2122 82.5094 28.2122 82.8585 28.429C83.0913 28.539 83.3229 28.8647 83.3229 29.1915C83.2077 29.1926 83.2077 29.4104 83.0913 29.5194Z" fill="white"/>
<path d="M97.7576 25.1639C103.577 24.8371 100.551 18.1937 94.7318 18.5194C89.262 18.8462 91.706 25.4907 97.7576 25.1639Z" fill="#E99D31"/>
<path d="M100.784 26.5781H98.9219L101.599 31.3709V34.9655H103.344V31.3709L106.021 26.5781H104.159L102.413 29.6281L100.784 26.5781Z" fill="white"/>
<path d="M115.798 26.6875H115.216L114.518 28.7571L113.703 26.6875H113.121L112.539 29.6285H113.237L113.586 27.7768L114.168 29.6285H114.75L115.449 27.7768L115.798 29.6285H116.38L115.798 26.6875Z" fill="white"/>
<path d="M110.562 27.2321H111.144V29.6285H111.843V27.2321H112.425V26.6875H110.562V27.2321Z" fill="white"/>
<path d="M69.36 27.7745C70.4074 27.7745 71.4559 28.2102 72.2694 28.9727L73.5508 27.8835C72.5034 26.7942 70.9904 26.1406 69.4775 26.1406C68.5465 26.1406 67.7318 26.3585 66.9172 26.7942C65.5207 27.4488 64.706 28.756 64.4733 30.062C64.2393 31.478 64.8212 32.8941 65.8686 33.8744C66.7997 34.7458 68.0798 35.1815 69.4764 35.0726C70.1746 35.0726 70.8729 34.9626 71.5712 34.7458C72.2694 34.418 72.9677 33.9833 73.5496 33.4387L72.3858 32.2394C72.0367 32.6751 71.4548 33.0019 70.9893 33.2198C70.5238 33.4376 70.0582 33.5465 69.5927 33.4376C69.0108 33.4376 68.429 33.3276 67.9646 33.0019C67.4991 32.7841 67.0324 32.3484 66.8008 31.9126C66.5669 31.478 66.3341 30.9334 66.4505 30.3888V30.2798C66.2178 28.9727 67.7307 27.7745 69.36 27.7745Z" fill="white"/>
<path d="M98.9259 15.5742C92.2924 13.0689 84.7278 14.485 79.6071 19.1688C74.4865 23.8527 73.0899 31.0418 75.883 37.2506C78.6749 43.4594 85.1933 47.3808 92.2924 47.3808C101.952 47.3808 109.867 39.9738 109.749 30.824C109.865 24.1794 105.559 18.1885 98.9259 15.5742ZM92.4087 45.638C83.6804 45.5291 76.6977 38.9935 76.6977 30.824C76.6977 22.6545 83.6804 16.1189 92.4087 16.0099C101.137 16.0099 108.236 22.6545 108.236 30.824C108.236 38.9935 101.137 45.638 92.4087 45.638Z" fill="#E99D31"/>
<path d="M94.8507 26.5781L91.3594 34.9644H93.2214L93.9209 33.2216H97.645L98.3432 34.9644H100.205L96.7139 26.5781H94.8507ZM94.5016 31.6977L95.7818 28.8656L96.9455 31.6977H94.5016Z" fill="white"/>
<path d="M12.105 30.2805C12.4542 29.8459 12.5705 29.4091 12.5705 28.8645C12.5705 28.3198 12.4542 27.8841 12.2214 27.4484C11.9886 27.1216 11.6395 26.7938 11.174 26.577C10.4757 26.3591 9.66107 26.2502 8.9628 26.3591H6.98438V34.9643H8.73005V31.3698H8.84643L10.9412 34.9643H12.9197L10.7085 31.1519C11.2904 31.043 11.7559 30.7162 12.105 30.2805ZM9.31194 29.7359H8.73005V27.993H9.31194C9.66107 27.993 9.89383 27.993 10.243 28.102C10.5921 28.212 10.8249 28.5377 10.8249 28.8645C10.8249 29.0823 10.7085 29.4091 10.4757 29.518C10.1266 29.7359 9.77745 29.8448 9.31194 29.7359Z" fill="white"/>
<path d="M4.07324 26.6864C3.37497 26.4685 2.56032 26.3596 1.86205 26.4685H0V35.0737H1.74567V31.4791C2.32756 31.4791 3.02583 31.4791 3.60773 31.3691C4.18962 31.2613 4.65513 30.9345 5.00426 30.4988C5.3534 30.0631 5.58616 29.5185 5.46978 28.9738C5.46978 28.5392 5.3534 27.9946 5.12064 27.5578C4.88789 27.1221 4.53875 26.7953 4.07324 26.6864ZM3.60773 29.4095C3.49135 29.5185 3.37497 29.6274 3.14221 29.7363C2.79308 29.8452 2.56032 29.8452 2.21119 29.8452H1.74567V28.1024H2.32756C2.6767 28.1024 3.02583 28.1024 3.37497 28.2124C3.60773 28.3203 3.84048 28.647 3.84048 28.9738C3.84048 29.0828 3.7241 29.3006 3.60773 29.4095Z" fill="white"/>
<path d="M82.6266 15.0319C85.1869 13.5069 88.2127 12.6355 91.2385 12.6355C90.8883 11.5462 89.6093 7.08023 91.8204 2.83209C89.3753 4.57492 88.0963 7.40701 88.3291 10.348C88.3291 10.348 85.7688 3.92136 82.2774 0C81.8119 5.01062 83.4412 11.7641 83.4412 11.7641C81.9283 9.25876 79.2504 7.51594 76.1094 7.40701C80.6481 9.69447 82.2774 13.9426 82.6266 15.0319Z" fill="#E99D31"/>
<path d="M61.3359 26.4688V34.965H63.0816V26.4688H61.3359Z" fill="white"/>
<path d="M17.6859 26.4688L14.0781 35.074H15.9402L16.7548 33.33H20.4789L21.1772 35.074H23.0392L19.4315 26.4688H17.6859V26.4688ZM17.3367 31.6972L18.6169 28.7562L19.897 31.6961H17.3367V31.6972Z" fill="white"/>
<path d="M49.5843 26.4688L45.9766 35.074H47.7222L48.5369 33.33H52.3774L53.0756 35.074H54.9377L51.33 26.4688H49.5843V26.4688ZM49.2352 31.6972L50.5153 28.7573L51.7955 31.6972H49.2352Z" fill="white"/>
<path d="M54.6953 27.9937H56.3246V34.965H58.1867V27.9937H59.9323V26.4688H54.6953V27.9937Z" fill="white"/>
<path d="M41.5482 26.4688L39.337 32.4597L37.2422 26.4688H35.4965L33.8672 35.074H35.6129L36.6603 29.6276L38.5223 34.965H40.1516L42.13 29.5187L43.0611 34.965H44.8067L43.2938 26.4688H41.5482Z" fill="white"/>
<path d="M28.2785 32.2449H30.9552C30.7225 32.6806 30.3733 33.1174 29.9078 33.3341C29.4423 33.552 28.8604 33.662 28.3949 33.662C27.4639 33.662 26.6492 33.3341 26.0673 32.7895C25.4854 32.2449 25.1363 31.4824 25.1363 30.7199C25.1363 29.9574 25.4854 29.1949 26.0673 28.6503C26.6492 28.1057 27.4639 27.7789 28.3949 27.7789C29.4423 27.7789 30.4897 28.2146 31.188 28.9771L32.4681 27.8878C32.0026 27.3432 31.4207 26.9086 30.7225 26.6896C30.0242 26.3628 29.2095 26.2539 28.3949 26.2539C26.9983 26.2539 25.6018 26.7985 24.6708 27.7789C23.8561 28.5414 23.3906 29.6306 23.3906 30.7199C23.3906 31.4824 23.6234 32.3538 24.0889 33.0074C24.5544 33.662 25.1363 34.3145 25.8346 34.6413C26.6492 35.077 27.5802 35.1859 28.3949 35.1859C29.2095 35.1859 30.0242 34.968 30.7225 34.6413C32.119 33.8788 32.9336 32.4627 33.05 30.9388V30.611H28.3949V32.2449H28.2785Z" fill="white"/>
<path d="M11.5078 20.8414V12.127H13.3503V19.3224H17.0863V20.8414H11.5078Z" fill="white"/>
<path d="M20.1489 12.127V20.8414H18.3064V12.127H20.1489Z" fill="white"/>
<path d="M23.2392 12.127L25.3455 18.7479H25.4263L27.5369 12.127H29.5793L26.5752 20.8414H24.2008L21.1925 12.127H23.2392Z" fill="white"/>
<path d="M30.6282 20.8414V12.127H36.5003V13.646H32.4707V15.7225H36.1982V17.2416H32.4707V19.3224H36.5173V20.8414H30.6282Z" fill="white"/>
<circle cx="3.21599" cy="16.4836" r="3.21599" fill="#FF0000"/>
</svg>
