<svg width="117" height="49" viewBox="0 0 117 49" fill="none" xmlns="http://www.w3.org/2000/svg">
<path d="M87.7457 27.2109H86V35.5983H90.306V34.0733H87.7457V27.2109Z" fill="white"/>
<path d="M83.4404 27.5379C82.741 27.3201 82.0439 27.2111 81.2293 27.3201H79.3672V35.7074H81.1129V32.1128C81.6948 32.1128 82.393 32.1128 82.9749 32.0028C83.5568 31.8939 84.0223 31.5682 84.3715 31.2403C84.7206 30.8057 84.9534 30.2611 84.837 29.7165C84.837 29.2808 84.7194 28.7361 84.4867 28.3004C84.2551 27.9736 83.9059 27.6469 83.4404 27.5379ZM83.0913 30.1522C82.9749 30.2611 82.8585 30.37 82.7422 30.4789C82.393 30.5879 82.1603 30.5879 81.8111 30.5879H81.2293V28.845H81.6948C82.0439 28.845 82.5094 28.8451 82.8585 29.0618C83.0913 29.1718 83.3229 29.4975 83.3229 29.8243C83.2077 29.8254 83.2077 30.0432 83.0913 30.1522Z" fill="white"/>
<path d="M97.7576 25.7967C103.577 25.47 100.551 18.8265 94.7318 19.1522C89.262 19.479 91.706 26.1235 97.7576 25.7967Z" fill="#E99D31"/>
<path d="M100.784 27.2109H98.9219L101.599 32.0037V35.5983H103.344V32.0037L106.021 27.2109H104.159L102.413 30.2609L100.784 27.2109Z" fill="white"/>
<path d="M115.798 27.3203H115.216L114.518 29.3899L113.703 27.3203H113.121L112.539 30.2613H113.237L113.586 28.4096L114.168 30.2613H114.75L115.449 28.4096L115.798 30.2613H116.38L115.798 27.3203Z" fill="white"/>
<path d="M110.562 27.8649H111.144V30.2613H111.843V27.8649H112.425V27.3203H110.562V27.8649Z" fill="white"/>
<path d="M69.36 28.4073C70.4074 28.4073 71.4559 28.843 72.2694 29.6055L73.5508 28.5163C72.5034 27.427 70.9904 26.7734 69.4775 26.7734C68.5465 26.7734 67.7318 26.9913 66.9172 27.427C65.5207 28.0816 64.706 29.3888 64.4733 30.6948C64.2393 32.1108 64.8212 33.5269 65.8686 34.5072C66.7997 35.3786 68.0798 35.8143 69.4764 35.7054C70.1746 35.7054 70.8729 35.5954 71.5712 35.3786C72.2694 35.0508 72.9677 34.6162 73.5496 34.0715L72.3858 32.8722C72.0367 33.3079 71.4548 33.6347 70.9893 33.8526C70.5238 34.0704 70.0582 34.1794 69.5927 34.0704C69.0108 34.0704 68.429 33.9604 67.9646 33.6347C67.4991 33.4169 67.0324 32.9812 66.8008 32.5455C66.5669 32.1108 66.3341 31.5662 66.4505 31.0216V30.9126C66.2178 29.6055 67.7307 28.4073 69.36 28.4073Z" fill="white"/>
<path d="M98.9259 16.207C92.2924 13.7017 84.7278 15.1178 79.6071 19.8016C74.4865 24.4855 73.0899 31.6746 75.883 37.8834C78.6749 44.0923 85.1933 48.0136 92.2924 48.0136C101.952 48.0136 109.867 40.6066 109.749 31.4568C109.865 24.8122 105.559 18.8213 98.9259 16.207ZM92.4087 46.2708C83.6804 46.1619 76.6977 39.6263 76.6977 31.4568C76.6977 23.2873 83.6804 16.7517 92.4087 16.6427C101.137 16.6427 108.236 23.2873 108.236 31.4568C108.236 39.6263 101.137 46.2708 92.4087 46.2708Z" fill="#E99D31"/>
<path d="M94.8507 27.2109L91.3594 35.5972H93.2214L93.9209 33.8544H97.645L98.3432 35.5972H100.205L96.7139 27.2109H94.8507ZM94.5016 32.3305L95.7818 29.4984L96.9455 32.3305H94.5016Z" fill="white"/>
<path d="M12.105 30.9133C12.4542 30.4787 12.5705 30.0419 12.5705 29.4973C12.5705 28.9526 12.4542 28.5169 12.2214 28.0812C11.9886 27.7544 11.6395 27.4266 11.174 27.2098C10.4757 26.992 9.66107 26.883 8.9628 26.992H6.98438V35.5972H8.73005V32.0026H8.84643L10.9412 35.5972H12.9197L10.7085 31.7847C11.2904 31.6758 11.7559 31.349 12.105 30.9133ZM9.31194 30.3687H8.73005V28.6259H9.31194C9.66107 28.6259 9.89383 28.6258 10.243 28.7348C10.5921 28.8448 10.8249 29.1705 10.8249 29.4973C10.8249 29.7151 10.7085 30.0419 10.4757 30.1508C10.1266 30.3687 9.77745 30.4776 9.31194 30.3687Z" fill="white"/>
<path d="M4.07324 27.3192C3.37497 27.1013 2.56032 26.9924 1.86205 27.1013H0V35.7065H1.74567V32.112C2.32756 32.112 3.02583 32.112 3.60773 32.0019C4.18962 31.8941 4.65513 31.5673 5.00426 31.1316C5.3534 30.6959 5.58616 30.1513 5.46978 29.6066C5.46978 29.172 5.3534 28.6274 5.12064 28.1906C4.88789 27.7549 4.53875 27.4281 4.07324 27.3192ZM3.60773 30.0423C3.49135 30.1513 3.37497 30.2602 3.14221 30.3691C2.79308 30.4781 2.56032 30.4781 2.21119 30.4781H1.74567V28.7352H2.32756C2.6767 28.7352 3.02583 28.7352 3.37497 28.8452C3.60773 28.9531 3.84048 29.2799 3.84048 29.6066C3.84048 29.7156 3.7241 29.9334 3.60773 30.0423Z" fill="white"/>
<path d="M82.6266 15.6647C85.1869 14.1397 88.2127 13.2683 91.2385 13.2683C90.8883 12.179 89.6093 7.71304 91.8204 3.4649C89.3753 5.20773 88.0963 8.03982 88.3291 10.9808C88.3291 10.9808 85.7688 4.55417 82.2774 0.632812C81.8119 5.64344 83.4412 12.3969 83.4412 12.3969C81.9283 9.89158 79.2504 8.14875 76.1094 8.03982C80.6481 10.3273 82.2774 14.5754 82.6266 15.6647Z" fill="#E99D31"/>
<path d="M61.3359 27.1016V35.5978H63.0816V27.1016H61.3359Z" fill="white"/>
<path d="M17.6858 27.1016L14.0781 35.7068H15.9402L16.7548 33.9629H20.4789L21.1772 35.7068H23.0392L19.4315 27.1016H17.6858ZM17.3367 32.33L18.6169 29.389L19.897 32.329H17.3367V32.33Z" fill="white"/>
<path d="M49.5843 27.1016L45.9766 35.7068H47.7222L48.5369 33.9629H52.3774L53.0756 35.7068H54.9377L51.33 27.1016H49.5843ZM49.2352 32.33L50.5153 29.3901L51.7955 32.33H49.2352Z" fill="white"/>
<path d="M54.6953 28.6265H56.3246V35.5978H58.1867V28.6265H59.9323V27.1016H54.6953V28.6265Z" fill="white"/>
<path d="M41.5482 27.1016L39.337 33.0925L37.2422 27.1016H35.4965L33.8672 35.7068H35.6129L36.6603 30.2604L38.5223 35.5978H40.1516L42.13 30.1515L43.0611 35.5978H44.8067L43.2938 27.1016H41.5482Z" fill="white"/>
<path d="M28.2785 32.8777H30.9552C30.7225 33.3134 30.3733 33.7502 29.9078 33.9669C29.4423 34.1848 28.8604 34.2948 28.3949 34.2948C27.4639 34.2948 26.6492 33.9669 26.0673 33.4223C25.4854 32.8777 25.1363 32.1152 25.1363 31.3527C25.1363 30.5902 25.4854 29.8277 26.0673 29.2831C26.6492 28.7385 27.4639 28.4117 28.3949 28.4117C29.4423 28.4117 30.4897 28.8474 31.188 29.6099L32.4681 28.5206C32.0026 27.976 31.4207 27.5414 30.7225 27.3224C30.0242 26.9956 29.2095 26.8867 28.3949 26.8867C26.9983 26.8867 25.6018 27.4314 24.6708 28.4117C23.8561 29.1742 23.3906 30.2634 23.3906 31.3527C23.3906 32.1152 23.6234 32.9866 24.0889 33.6402C24.5544 34.2948 25.1363 34.9473 25.8346 35.2741C26.6492 35.7098 27.5802 35.8187 28.3949 35.8187C29.2095 35.8187 30.0242 35.6008 30.7225 35.2741C32.119 34.5116 32.9336 33.0955 33.05 31.5717V31.2438H28.3949V32.8777H28.2785Z" fill="white"/>
</svg>
