<svg width="140" height="17" viewBox="0 0 140 17" fill="none" xmlns="http://www.w3.org/2000/svg">
<path d="M92.7816 6.71287C92.503 7.57197 92.2244 8.43106 91.9457 9.29015C91.2492 11.2947 90.6919 13.2993 89.9954 15.3038C89.8547 15.5887 89.7167 15.7334 89.4381 15.7334C88.8809 15.7334 88.3236 15.7334 87.9057 15.7334C87.6271 15.7334 87.4864 15.5887 87.3484 15.3038C86.5126 12.5833 85.6767 10.0061 84.7015 7.2856C84.7015 7.14242 84.5622 6.99924 84.4243 6.85605C84.2836 7.2856 84.2836 7.57196 84.1443 8.00151C83.7263 10.4356 83.307 12.8697 83.0297 15.1606C83.0297 15.4456 82.889 15.7319 82.4725 15.5887C81.7759 15.5887 81.0794 15.5887 80.3828 15.5887C80.3828 15.4456 80.3828 15.3038 80.3828 15.1606C81.2187 10.5788 81.9153 5.85378 82.7511 1.27195C82.7511 0.985583 82.8904 0.842401 83.1691 0.842401C83.7263 0.842401 84.4229 0.842401 84.9801 0.842401C85.3981 0.842401 85.5374 0.985583 85.5374 1.27195C86.5126 4.42196 87.4877 7.57196 88.6022 10.5788C88.6022 10.7234 88.6022 10.7234 88.7416 10.8666C89.0202 10.2924 89.1595 9.7197 89.2988 9.14697C90.1347 6.56969 90.9706 3.84923 91.8064 1.27195C91.9457 0.842401 92.0851 0.699219 92.503 0.699219C93.0589 0.699219 93.6175 0.699219 94.0354 0.699219C94.4534 0.699219 94.5927 0.842401 94.5927 1.27195C95.0106 3.70605 95.4286 6.14014 95.8451 8.71742C96.2644 10.8652 96.5417 13.0129 96.961 15.1606C96.961 15.3038 96.961 15.3038 96.961 15.4456C96.1237 15.4456 95.2892 15.4456 94.5927 15.4456C94.452 15.4456 94.3141 15.1606 94.3141 15.016C93.8961 12.7265 93.6175 10.5788 93.1996 8.28788C93.0602 7.71515 92.9209 7.14242 92.9209 6.56969C92.9209 6.71287 92.7816 6.71287 92.7816 6.71287Z" fill="#ED2B24"/>
<path d="M133.459 8.2869C133.598 10.2914 133.041 11.8665 131.787 13.4415C129.976 15.7324 127.468 16.3051 124.682 15.877C121.339 15.3028 119.11 12.7255 118.552 9.00281C118.133 5.99598 119.945 2.70279 122.732 1.27097C125.379 -0.0176722 129.419 0.268692 131.926 2.84597C132.066 2.98915 132.205 3.13234 132.205 3.27552C131.648 3.84825 131.09 4.42098 130.533 4.9937C130.533 4.9937 130.115 4.9937 129.976 4.85052C129.001 3.99143 127.886 3.4187 126.632 3.27552C123.289 2.84597 120.503 5.99598 121.339 9.28917C121.896 11.7233 124.264 13.4415 126.911 13.1551C128.026 13.0119 129.14 12.5824 129.837 11.5801C129.976 11.4355 130.115 11.1491 130.255 10.8642C129.976 10.8642 129.837 10.8642 129.699 10.8642C128.724 10.8642 127.748 10.8642 126.772 10.8642C126.354 10.8642 126.216 10.7196 126.216 10.2914C126.216 9.71872 126.216 9.14456 126.216 8.43008C126.216 8.14371 126.355 8.00053 126.634 8.00053C128.863 8.00053 131.092 8.00053 133.182 8.00053C133.319 8.14371 133.459 8.2869 133.459 8.2869Z" fill="#ED2B24"/>
<path d="M63.1103 3.42179C62.5531 3.99452 61.9958 4.56725 61.4386 5.13998C61.1599 5.42634 61.0192 5.13998 60.8813 4.9968C59.9061 4.1377 58.7916 3.56497 57.5378 3.42179C55.0302 3.13543 52.6619 4.85361 52.106 7.28771C51.5488 9.86356 53.0812 12.2991 55.5888 13.1582C57.1199 13.5877 58.6523 13.5877 59.9061 12.4423C60.3241 12.1559 60.6027 11.5832 61.0206 11.1536C61.0206 11.1536 61.0206 11.0104 60.8813 11.0104C60.742 11.0104 60.6027 11.0104 60.3241 11.0104C59.3503 11.0104 58.3751 11.0104 57.2606 11.0104C56.8413 11.0104 56.8413 10.8687 56.8413 10.5809C56.8413 10.0096 56.8413 9.43688 56.8413 8.72097C56.8413 8.4346 56.982 8.29142 57.2606 8.29142C59.3503 8.29142 61.44 8.29142 63.669 8.29142C64.0855 8.28999 64.0855 8.43317 64.0855 8.71953C64.2262 12.1559 61.7172 15.3059 58.513 15.8786C55.7268 16.3082 53.0798 15.7355 51.1295 13.4445C49.0398 11.0104 48.6218 8.1468 50.015 5.13998C51.2674 2.27633 53.4978 0.844511 56.5626 0.701329C59.0703 0.558147 61.16 1.27406 62.971 3.13543C62.971 3.13543 62.971 3.27861 63.1103 3.42179Z" fill="#ED2B24"/>
<path d="M107.405 6.42348C107.405 9.43174 107.405 12.5803 107.405 15.5857C106.43 15.5857 105.592 15.5857 104.758 15.5857C104.758 10.7189 104.758 5.85075 104.758 0.981127C105.594 0.981127 106.43 0.981127 107.265 0.981127C107.406 0.981127 107.544 1.26749 107.544 1.26749C109.355 3.98795 111.027 6.70842 112.838 9.57206C112.977 9.85986 113.117 10.003 113.256 10.2894H113.395C113.395 10.1462 113.395 9.85842 113.395 9.71667C113.395 6.99621 113.395 4.27575 113.395 1.55529C113.395 1.12574 113.535 0.839376 113.951 0.982558C114.508 0.982558 115.067 0.982558 115.485 0.982558C115.903 0.982558 116.042 1.12574 116.042 1.55529C116.042 5.70757 116.042 10.003 116.042 14.1539C116.042 15.5857 116.042 15.5857 114.649 15.7303C113.675 15.7303 113.256 15.444 112.7 14.5849C111.028 11.8644 109.357 9.28713 107.683 6.56666C107.683 6.56666 107.683 6.42348 107.405 6.42348C107.544 6.2803 107.405 6.2803 107.405 6.42348Z" fill="#ED2B24"/>
<path d="M34.1315 0.984375C34.9688 0.984375 35.8032 0.984375 36.6391 0.984375C37.0585 0.984375 36.9177 1.27074 36.9177 1.41392C36.9177 2.84574 36.9177 4.27757 36.9177 5.85257C36.9177 6.4253 37.0585 6.56848 37.6143 6.56848C38.7288 6.56848 39.9826 6.56848 41.0971 6.56848C41.2378 6.56848 41.5151 6.56848 41.6544 6.56848C41.6544 4.70711 41.6544 2.98893 41.6544 1.12756C42.6296 1.12756 43.4654 1.12756 44.4406 1.12756C44.4406 1.41392 44.4406 1.5571 44.4406 1.70029C44.4406 6.13893 44.4406 10.5776 44.4406 15.0162C44.4406 15.5875 44.2999 15.7321 43.7441 15.7321C43.0475 15.7321 42.3509 15.7321 41.6544 15.7321C41.6544 15.4458 41.6544 15.3026 41.6544 15.1608C41.6544 13.4412 41.6544 11.5813 41.6544 9.86167C41.6544 9.43356 41.5151 9.28894 41.0971 9.28894C39.8447 9.28894 38.5895 9.28894 37.3357 9.28894C36.9177 9.28894 36.7784 9.43356 36.7784 9.86167C36.7784 11.5813 36.7784 13.4412 36.7784 15.1608C36.7784 15.589 36.6391 15.7321 36.2212 15.7321C35.6653 15.7321 35.1067 15.7321 34.4101 15.7321C33.9922 15.7321 33.9922 15.5875 33.9922 15.1608C33.9922 11.4367 33.9922 7.57076 33.9922 3.84802C34.1315 2.84574 34.1315 1.98665 34.1315 0.984375Z" fill="#8F8585"/>
<path d="M65.4766 15.5876C65.8945 14.4436 66.3124 13.4399 66.5911 12.4376C67.9842 8.71487 69.3773 5.13531 70.7704 1.41257C70.9097 0.983026 71.0491 0.839844 71.467 0.839844C72.1636 0.839844 72.7208 0.839844 73.4174 0.839844C73.696 0.839844 73.8353 0.983026 73.9746 1.26939C75.3677 5.27849 76.9002 9.14441 78.4312 13.1535C78.7098 13.8694 78.9885 14.7285 79.4064 15.5862C78.4312 15.5862 77.5953 15.5862 76.7609 15.5862C76.6202 15.5862 76.4822 15.3012 76.4822 15.1581C76.2036 14.4422 75.925 13.7262 75.645 13.0103C75.5071 12.724 75.3677 12.5808 75.0891 12.5808C73.4174 12.5808 71.7456 12.5808 70.2132 12.5808C69.9346 12.5808 69.7952 12.724 69.6559 13.0118C69.3773 13.7277 69.1001 14.4436 68.8201 15.1595C68.6807 15.5876 68.5414 15.5876 68.1235 15.5876C67.1483 15.5876 66.3124 15.5876 65.4766 15.5876ZM74.2532 9.86032C73.696 8.28532 72.9994 6.71031 72.4422 5.13531H72.3029C71.7456 6.71031 71.1884 8.28532 70.4918 9.85889C71.7456 9.86032 72.9994 9.86032 74.2532 9.86032Z" fill="#ED2B24"/>
<path d="M11.0078 0.984375C11.8437 0.984375 12.6796 0.984375 13.6534 0.984375C13.6534 1.12756 13.6534 1.41392 13.6534 1.5571C13.6534 4.42075 13.6534 7.42757 13.6534 10.2912C13.6534 10.7208 13.6534 11.2921 13.7941 11.723C13.9334 12.7239 14.7692 13.298 15.8837 13.1549C16.8589 13.1549 17.6948 12.4389 17.8327 11.4367C17.9734 10.8654 17.9734 10.1495 17.9734 9.57531C17.9734 6.85484 17.9734 4.13438 17.9734 1.5571C17.9734 1.41392 17.9734 1.12756 17.9734 0.984375C18.9486 0.984375 19.7845 0.984375 20.619 0.984375C20.619 1.12756 20.619 1.27074 20.619 1.41392C20.619 4.27757 20.619 7.14121 20.619 10.0049C20.619 10.5761 20.619 11.2921 20.4797 11.8662C20.201 14.014 18.6686 15.589 16.4396 15.8768C15.0479 16.0185 13.7941 15.7321 12.6796 14.873C11.8437 14.1571 11.2864 13.298 11.1471 12.1526C11.0078 11.2935 11.0078 10.5776 11.0078 9.71849C11.0078 6.85484 11.0078 4.13438 11.0078 1.27074C11.0078 1.27074 11.0078 1.12756 11.0078 0.984375Z" fill="#8F8585"/>
<path d="M0 8.28667C0 5.99575 0 3.84802 0 1.5571C0 1.12756 0.139312 0.984375 0.55725 0.984375C2.08969 0.984375 3.48281 0.984375 5.01525 1.12756C7.8015 1.27074 8.91599 3.70484 8.49806 5.99575C8.21943 8.0003 6.82631 9.14576 4.87593 9.28894C4.458 9.28894 3.90075 9.43356 3.48281 9.28894C2.92556 9.28894 2.78625 9.43356 2.78625 10.0049C2.78625 11.723 2.78625 13.298 2.78625 15.0162C2.78625 15.4458 2.64694 15.589 2.229 15.589C1.67175 15.589 1.25381 15.589 0.695169 15.589C0 15.589 0 15.589 0 14.873C0 12.7253 0 10.4344 0 8.28667ZM2.78625 5.13666C2.78625 5.56621 2.78625 5.85257 2.78625 6.28212C2.78625 6.56848 2.92556 6.71166 3.20419 6.71166C3.76144 6.71166 4.17937 6.71166 4.73802 6.56848C5.5725 6.4253 5.99043 5.99575 5.99043 5.13666C5.99043 4.27757 5.5725 3.70484 4.73802 3.56165C4.31869 3.41847 3.76144 3.56165 3.20419 3.41847C2.78625 3.70484 2.78625 3.84802 2.78625 4.13438C2.78625 4.56393 2.78625 4.85029 2.78625 5.13666Z" fill="#8F8585"/>
<path d="M24.7945 11.4387C25.0731 11.8683 25.3517 12.2993 25.7697 12.5842C26.3269 13.1569 26.8842 13.4433 27.72 13.1569C28.8345 12.8705 29.2525 11.7251 28.5559 10.7228C28.138 10.1515 27.5807 9.72054 27.0235 9.29099C26.1862 8.57508 25.4897 7.85917 24.6552 7.14326C23.9586 6.42735 23.4014 5.42507 23.4014 4.27962C23.4014 2.41825 24.7945 0.843243 26.6069 0.556878C28.5559 0.413696 30.2277 1.12961 31.3422 2.84779C30.7849 3.42052 30.0884 3.99325 29.3918 4.70916C29.1132 4.4228 28.9725 4.13643 28.8345 3.99325C28.4166 3.70689 27.9987 3.42052 27.5807 3.27734C27.0235 3.13416 26.4662 3.42052 26.1876 3.85007C25.909 4.4228 26.1876 4.85234 26.6055 5.13871C27.3021 5.85462 28.138 6.57053 28.9725 7.28644C29.669 7.85917 30.3656 8.57508 30.9228 9.29099C32.8732 11.8683 31.3408 15.4478 28.1366 15.8788C25.7683 16.1637 24.0965 15.1629 22.982 13.1583C22.8427 12.872 22.8427 12.5856 23.1227 12.4424C23.5407 12.1546 24.2372 11.7251 24.7945 11.4387Z" fill="#8F8585"/>
<path d="M98.9141 15.589C98.9141 10.7208 98.9141 5.85257 98.9141 0.984375C99.7513 0.984375 100.586 0.984375 101.561 0.984375C101.561 1.12756 101.561 1.41392 101.561 1.5571C101.561 5.99575 101.561 10.5761 101.561 15.0162C101.561 15.5875 101.42 15.7321 100.864 15.5875C100.307 15.589 99.6106 15.589 98.9141 15.589Z" fill="#ED2B24"/>
<path d="M136.806 2.56073C136.667 2.99027 136.667 3.41982 136.527 3.84937C136.527 3.99255 136.388 4.13573 136.249 4.13573C136.249 3.99255 136.109 3.84937 136.109 3.70619C136.249 2.99028 136.388 2.27436 136.527 1.41527C136.527 1.27209 136.668 1.12891 136.806 1.12891C136.944 1.12891 137.085 1.27209 137.224 1.41527C137.365 1.84482 137.503 2.41755 137.781 2.99028C137.92 2.56073 138.06 1.988 138.199 1.55845C138.199 1.41527 138.478 1.27209 138.617 1.12891C138.758 1.27209 138.896 1.41527 138.896 1.55845C139.035 2.27436 139.174 2.84709 139.174 3.563C139.174 3.70619 139.034 3.84937 139.034 3.99255C138.894 3.84937 138.756 3.70619 138.616 3.563C138.476 3.27664 138.476 2.84709 138.337 2.56073H138.198C138.058 2.99027 137.919 3.27664 137.78 3.70619C137.639 3.84937 137.501 3.99255 137.362 4.13573C137.221 4.13573 137.083 3.99255 137.083 3.84937C137.224 3.41982 137.085 2.99027 136.806 2.56073C136.945 2.56073 136.806 2.56073 136.806 2.56073Z" fill="#8F8585"/>
<path d="M135.411 3.98999C134.993 4.13318 134.854 3.98999 134.854 3.70363C134.854 3.27408 134.854 2.70135 134.854 2.27181C134.854 1.98544 134.995 1.69908 134.436 1.5559L134.297 1.41271C134.297 1.26953 134.436 1.26953 134.436 1.26953C134.854 1.26953 135.133 1.26953 135.551 1.26953L135.69 1.41271C135.69 1.5559 135.549 1.69908 135.549 1.69908C135.133 1.69908 135.272 1.98544 135.272 2.27181C135.411 2.84454 135.411 3.41726 135.411 3.98999Z" fill="#8F8585"/>
</svg>
