<svg width="135" height="28" viewBox="0 0 135 28" fill="none" xmlns="http://www.w3.org/2000/svg">
<path d="M4.3831 24.7168C4.24888 25.2281 4.11467 25.4838 3.98046 25.7394C2.77254 23.822 1.43041 21.9045 0.490913 19.8592C-0.448579 18.0696 0.0882735 16.0243 1.02777 14.2347C1.02777 15.2574 1.02777 16.1522 1.16198 17.1748C1.43041 18.9644 1.96726 20.7541 3.17518 22.1602C3.57782 22.6715 4.11467 23.055 4.65152 23.4385L4.78574 23.3107C4.24888 22.288 3.71203 21.1375 3.30939 20.1149C2.90675 18.9644 2.63832 17.814 2.23569 16.5357C2.77254 16.6635 3.17518 16.7913 3.57782 16.9192C3.17518 15.6409 2.90675 14.4904 2.50411 13.3399H2.63832C3.30939 14.4904 4.11467 15.513 4.78574 16.6635C4.91995 16.7913 4.78574 17.1748 4.65152 17.3026C4.24888 17.9418 4.24888 18.5809 4.51731 19.2201C5.18838 20.4984 5.85944 21.6489 6.53051 22.7993C6.66472 21.6489 6.66472 20.4984 5.99366 19.4758C5.4568 18.5809 5.32259 17.9418 5.99366 17.047C6.12787 16.9192 6.26208 16.9192 6.26208 16.7913C6.39629 15.513 7.60421 15.3852 8.40949 14.8739C8.67792 14.746 8.94635 14.4904 9.34899 14.3626C9.34899 14.2347 9.34899 14.2347 9.34899 14.1069C8.94635 14.1069 8.54371 13.9791 8.27528 14.1069C7.73843 14.2347 7.33579 14.4904 6.93315 14.746C5.72523 15.3852 5.18838 15.1295 5.18838 13.8512C5.72523 13.5956 6.3963 13.3399 7.06736 12.9564C6.12787 12.4451 4.78574 12.9564 4.91995 11.5503C5.32259 11.6781 5.59102 11.6781 5.99366 11.806C5.4568 10.9111 4.91995 10.1442 4.65152 9.37718C4.3831 8.48237 4.51731 7.58756 4.3831 6.69275C4.24888 6.69275 4.24888 6.56491 4.11467 6.56491C3.71203 6.94841 3.30939 7.3319 2.90675 7.84322C2.10147 7.45973 1.29619 7.45973 1.29619 6.30926C1.56462 6.43709 1.83305 6.56492 2.3699 6.69275C2.10147 6.30926 1.96726 6.0536 1.69883 5.79794C0.625126 4.7753 0.3567 3.49699 0.3567 2.21869C0.3567 1.32388 1.16198 0.940391 2.10147 1.19605C3.71203 1.70737 5.4568 2.21869 7.20157 2.73001C7.87264 2.85784 8.54371 2.85784 9.21477 2.85784C7.60421 3.75265 5.85944 2.98567 4.11467 2.98567V3.1135C4.51731 3.24133 4.78574 3.49699 5.05416 3.62482C4.91995 3.88048 4.78574 4.13614 4.91995 4.26397C5.18838 5.15878 5.32259 6.18143 5.05416 7.3319C4.78574 8.35454 5.32259 9.12152 6.12787 9.76067C6.66472 10.272 7.20157 10.7833 7.73843 11.2946C8.67792 12.1894 9.88584 12.5729 11.3622 12.3173C11.0938 11.6781 10.4227 11.4225 9.88584 11.2946C8.14107 10.7833 7.06736 9.63284 6.26208 8.09888C5.99366 7.71539 5.99366 7.20407 5.85944 6.69275C6.12787 6.69275 6.12787 6.69275 6.12787 6.82058C6.53051 7.97105 7.33579 8.35454 8.67792 8.35454C9.88584 8.35454 10.8253 8.86586 11.3622 9.8885C11.6306 10.3998 12.0332 11.039 12.8385 11.2946C12.9727 10.7833 13.107 10.272 13.107 9.76067C13.107 9.50501 12.9727 9.37718 12.7043 9.12152C12.3017 8.6102 11.7648 8.22671 11.3622 7.71539C11.7648 7.58756 12.0332 7.3319 12.3017 7.20407V7.07624C11.6306 7.07624 10.8253 7.07624 10.1543 7.07624V6.94841C10.8253 6.69275 11.4964 6.43709 12.1675 6.18143C10.8253 5.28661 9.34899 5.79794 7.87264 5.54227C9.61741 5.03095 11.3622 4.51963 12.9727 4.00831C12.9727 3.88048 12.9727 3.88048 12.9727 3.75265C12.0332 3.75265 10.9595 3.75265 10.0201 3.75265C10.8253 3.1135 11.7648 2.60218 12.8385 2.60218C14.4491 2.60218 16.1939 2.47435 17.8044 2.60218C18.8781 2.73001 19.8176 3.1135 20.8913 3.36916C20.8913 3.49699 20.8913 3.49699 20.8913 3.62482C19.9518 3.62482 18.8781 3.62482 17.9386 3.62482C17.9386 3.75265 17.9386 3.75265 17.9386 3.88048C19.5492 4.3918 21.0255 4.90312 22.7703 5.41444C21.294 5.6701 19.9518 5.28661 18.7439 6.05359C18.7439 6.18143 18.7439 6.18143 18.7439 6.30926C19.415 6.56492 19.9518 6.69275 20.6229 6.94841C19.9518 6.94841 19.2808 6.94841 18.6097 6.94841V7.07624C18.8781 7.20407 19.1466 7.45973 19.5492 7.58756C19.1466 8.09888 18.6097 8.48237 18.2071 8.99369C17.9386 9.24935 17.8044 9.50501 18.0728 9.8885C18.2071 10.1442 18.0728 10.6555 18.0728 11.1668C18.8781 10.7833 19.415 10.1442 19.8176 9.37718C20.3545 8.48237 21.1597 7.97105 22.2335 7.84322C23.4414 7.71539 24.6493 7.71539 24.9177 6.18143C25.0519 6.18143 25.0519 6.30926 25.1861 6.30926C25.0519 6.69275 25.0519 7.20407 24.9177 7.58756C24.2467 9.24935 22.9045 10.272 21.0255 10.9111C20.6229 11.039 20.2203 11.2946 19.6834 11.5503C19.6834 11.6781 19.6834 11.6781 19.6834 11.806C20.2203 11.806 20.8913 11.9338 21.4282 11.806C22.6361 11.5503 23.7098 10.7833 24.3809 9.76067C24.7835 9.12152 25.3204 8.35454 25.723 7.58756C25.723 7.45973 25.8572 7.3319 25.8572 7.20407C25.723 6.56491 25.3204 5.6701 25.5888 5.28661C26.1256 4.64746 25.8572 4.00831 26.1256 3.36916C25.8572 3.36916 25.5888 3.49699 25.4546 3.49699V3.36916C25.9914 3.1135 26.3941 2.98567 26.9309 2.73001C26.1256 2.34652 25.3204 2.47435 24.5151 2.60218C23.5756 2.73001 22.6361 2.98567 21.6966 2.34652C24.2467 2.47435 26.3941 1.8352 28.6757 0.94039C29.7494 0.42907 30.5547 0.940391 30.5547 2.09086C30.5547 3.36916 30.2862 4.64746 29.2125 5.54227C29.0783 5.6701 28.9441 5.92577 28.6757 6.30926C29.2125 6.18143 29.481 6.05359 29.7494 5.92576C29.7494 6.82057 29.3468 7.20407 28.0046 7.45973C27.8704 7.20407 27.7362 6.82057 27.4678 6.56491C27.3336 6.43708 27.0651 6.30926 26.7967 6.30926C26.6625 6.30926 26.5283 6.56492 26.3941 6.82058C26.3941 6.94841 26.3941 7.07624 26.3941 7.20407C26.6625 8.73803 26.5283 10.272 24.9177 11.1668C24.9177 11.2946 25.0519 11.2946 25.0519 11.4225C25.4546 11.4225 25.8572 11.4225 26.1256 11.5503C26.1256 12.7008 25.1861 12.5729 24.3809 12.5729C24.5151 13.0843 24.5151 13.0843 25.8572 13.5956C25.8572 13.7234 25.723 13.9791 25.723 14.1069C25.4546 14.8739 25.0519 15.0017 24.3809 14.6182C23.5756 14.1069 22.6361 13.7234 21.4282 14.1069C22.5019 14.746 23.4414 15.2574 24.3809 15.7687C24.1124 16.28 24.2467 16.6635 24.6493 16.9192C25.1861 17.3026 25.3204 18.3253 24.9177 19.0923C24.2467 20.2427 24.3809 21.3932 24.3809 22.6715C24.3809 22.5437 24.5151 22.5437 24.5151 22.4159C24.9177 21.1376 25.4546 19.9871 26.2599 18.8366C26.6625 18.3253 26.9309 17.5583 26.2599 16.7913C26.2599 16.6635 26.1256 16.5357 26.2599 16.4078C26.7967 15.2574 27.4678 14.1069 28.0046 12.9564C28.1388 12.9564 28.1388 13.0843 28.2731 13.0843C27.8704 14.2347 27.4678 15.513 27.0651 16.7913C27.602 16.6635 28.0046 16.5357 28.5415 16.28C28.0046 18.7088 27.0651 20.8819 25.8572 23.055C26.6625 23.055 27.1993 22.5437 27.602 22.0324C29.0783 20.2427 29.6152 18.1975 29.7494 16.0243C29.7494 15.3852 29.7494 14.746 29.8836 13.9791C30.6889 15.1295 30.9573 18.5809 30.5547 19.8592C30.5547 19.9871 30.4205 20.1149 30.2862 20.2427C29.2125 21.9045 28.1388 23.4385 27.0651 25.1003C27.0651 25.1003 26.9309 25.1003 26.9309 25.2281C26.7967 24.9725 26.7967 24.7168 26.5283 24.3333C25.8572 25.4838 25.3204 26.3786 24.7835 27.4012H24.6493C24.6493 26.6342 24.6493 25.8673 24.6493 25.1003C24.6493 24.8446 24.2467 24.589 24.1124 24.3333C23.844 24.589 23.5756 24.8446 23.5756 25.1003C23.4414 25.6116 23.5756 25.9951 23.5756 26.6342C23.0387 26.3786 22.5019 26.1229 22.0992 25.8673C21.294 25.4838 20.4887 25.4838 19.8176 26.1229C19.415 26.5064 18.6097 26.7621 17.9386 26.7621C16.7307 26.8899 15.3886 26.7621 14.1807 26.8899C13.3754 26.8899 12.7043 26.7621 12.3017 26.2508C11.4964 25.4838 10.6911 25.4838 9.75163 25.9951C9.34899 26.2508 8.94635 26.3786 8.54371 26.6342C8.40949 26.1229 8.40949 25.4838 8.27528 25.1003C8.14107 24.8446 7.87264 24.7168 7.60421 24.4611C7.47 24.7168 7.20157 24.9725 7.20157 25.2281C7.20157 25.9951 7.20157 26.8899 7.06736 27.7847C5.59102 26.8899 5.05416 25.9951 4.3831 24.7168ZM21.294 25.4838C20.8913 23.822 19.6834 22.5437 17.9386 22.1602C16.4623 21.7767 14.8517 21.6489 13.2412 22.0324C12.4359 22.1602 11.4964 22.5437 10.8253 23.055C10.0201 23.4385 9.34899 24.2055 9.34899 25.3559C9.75163 24.9725 10.1543 24.7168 10.5569 24.4611C10.9595 24.2055 11.3622 24.3333 11.3622 24.8446C11.3622 25.1003 11.3622 25.3559 11.6306 25.6116C12.5701 26.3786 14.4491 26.3786 15.3886 25.7394C15.657 25.8673 15.7912 26.1229 16.0596 26.1229C17.1334 26.2508 18.0728 25.9951 19.0123 25.4838C19.1465 25.3559 19.2808 25.1003 19.2808 24.9725C19.2808 24.3333 19.5492 24.2055 20.086 24.4611C20.3545 24.7168 20.7571 25.1003 21.294 25.4838ZM19.1466 12.9564C19.1466 13.4677 19.1466 13.9791 19.1466 14.3626C19.2808 15.0017 19.1465 15.513 18.6097 15.8965C17.9386 16.4078 17.2676 17.047 16.4623 17.3026C15.5228 17.6861 15.657 18.3253 15.657 18.9644C15.657 19.6036 16.0596 19.8592 16.5965 19.9871C17.536 20.2427 18.3413 20.6262 19.2808 20.8819C20.2203 21.1375 21.5624 20.6262 21.8308 19.7314C21.294 19.6036 20.6229 19.6036 19.9518 19.4758C21.6966 18.7088 21.6966 18.7088 21.8308 18.1975C21.0255 18.3253 20.2203 18.5809 19.5492 18.7088C19.9518 18.3253 20.4887 18.0696 20.8913 17.6861C21.4282 17.4305 21.6966 16.9192 21.6966 16.28C20.8913 16.6635 20.3545 17.5583 19.1466 17.3026C19.9518 16.6635 20.6229 16.1522 21.1597 15.7687C20.8913 15.2574 20.3545 14.746 20.3545 14.3626C20.3545 13.7234 19.9518 13.3399 19.1466 12.9564ZM11.3622 19.6036C11.3622 19.7314 11.3622 19.7314 11.3622 19.8592C10.4227 19.8592 9.61741 19.8592 8.67792 19.8592C9.08056 20.7541 10.2885 21.2654 11.228 21.0097C12.3017 20.7541 13.3754 20.3706 14.3149 19.9871C14.5833 19.8592 14.7175 19.7314 14.8517 19.4758C15.2544 18.5809 14.8517 17.5583 13.9122 17.3026C12.0332 16.5357 11.228 15.513 11.4964 13.4677C11.4964 13.3399 11.4964 13.0843 11.4964 12.9564C10.6911 12.9564 10.1543 13.4677 10.2885 14.3626C10.2885 14.8739 10.2885 15.3852 9.61741 15.6409C10.1543 16.28 10.6911 16.9192 11.228 17.5583C10.0201 17.814 9.4832 16.7913 8.67792 16.5357C8.81213 16.9192 8.94635 17.3026 9.21477 17.5583C9.4832 17.814 9.88584 18.0696 10.1543 18.1975C10.4227 18.4531 10.8253 18.5809 11.0938 18.8366V18.9644C10.2885 18.8366 9.4832 18.5809 8.54371 18.3253C9.08056 19.4758 10.4227 19.0923 11.3622 19.6036ZM12.7043 13.9791C12.5701 13.9791 12.5701 13.9791 12.4359 13.9791C12.4359 14.3626 12.1675 14.746 12.3017 15.0017C12.4359 15.2574 12.8385 15.513 13.107 15.513C14.4491 15.6409 15.7912 15.513 17.1334 15.513C17.6702 15.513 18.0728 15.3852 18.2071 15.0017C18.2071 14.6182 18.0728 14.2347 17.8044 13.7234C17.1334 15.2574 15.9254 15.0017 14.8517 15.0017C14.1807 15.1295 13.107 15.1295 12.7043 13.9791ZM9.08056 8.99369C8.94635 8.99369 8.94635 8.99369 8.81213 9.12152C8.81213 9.37718 8.67792 9.63284 8.67792 9.8885C8.67792 10.3998 9.08056 10.7833 9.4832 10.7833C9.75163 10.7833 10.0201 10.272 10.2885 10.0163C10.0201 9.63284 9.61741 9.24935 9.08056 8.99369ZM21.5624 9.24935C20.8913 9.12152 20.3545 9.37718 20.086 9.8885C19.9518 10.0163 20.086 10.5276 20.3545 10.6555C20.6229 10.7833 21.0255 10.7833 21.1597 10.6555C21.6966 10.272 21.8308 9.76067 21.5624 9.24935Z" fill="#C22C27"/>
<path d="M108.27 11.167C107.062 11.6783 105.854 12.1896 104.646 12.5731C104.512 12.4453 104.378 12.1896 104.378 12.0618C103.036 9.88869 100.083 9.76086 98.4723 11.8061C97.1302 13.4679 97.1302 16.0245 98.3381 17.8142C99.4118 19.3481 101.425 19.8594 103.036 19.0925C103.975 18.5811 104.512 17.942 104.378 16.9193C103.438 16.9193 102.365 16.9193 101.425 16.9193C101.425 15.8967 101.425 15.0019 101.425 14.1071C103.975 14.1071 106.391 14.1071 108.807 14.1071C109.209 19.0925 105.854 22.9274 100.217 22.2882C96.8618 21.9047 94.4459 19.9873 93.6407 17.175C92.7012 13.8514 93.7749 10.5278 96.3249 8.73822C99.6803 6.30945 104.78 6.82077 107.196 9.76086C107.733 10.1444 108.001 10.6557 108.27 11.167Z" fill="#C22C27"/>
<path d="M57.3984 21.7744C57.3984 17.0447 57.3984 12.4428 57.3984 7.71306C59.2774 7.71306 61.1564 7.58523 63.0354 7.71306C64.1091 7.71306 65.1828 7.96872 66.1223 8.35221C69.2092 9.63052 70.954 12.9541 70.1487 16.1498C69.4776 19.3456 66.5249 21.6465 63.1696 21.7744C61.2906 21.7744 59.4116 21.7744 57.3984 21.7744ZM61.2906 18.7065C63.3038 19.0899 65.0486 18.323 65.9881 17.0447C66.9276 15.6385 66.7934 13.4654 65.7197 12.1871C64.7802 11.0366 62.767 10.3975 61.2906 10.9088C61.2906 13.4654 61.2906 16.022 61.2906 18.7065Z" fill="#C22C27"/>
<path d="M134.032 21.7762C132.422 21.7762 131.08 21.7762 129.603 21.7762C129.469 21.7762 129.201 21.5205 129.066 21.2648C128.127 19.8587 127.187 18.4526 126.248 17.0464C126.114 16.7908 125.98 16.663 125.711 16.2795C125.711 18.1969 125.711 19.9865 125.711 21.7762C124.369 21.7762 123.161 21.7762 121.953 21.7762C121.953 17.1743 121.953 12.4446 121.953 7.71484C123.295 7.71484 124.637 7.71484 125.845 7.71484C127.187 7.71484 128.53 7.71484 129.737 7.9705C131.751 8.48182 132.69 9.88795 132.69 11.8054C132.69 13.9785 131.751 15.129 129.737 15.896C129.603 15.896 129.603 15.896 129.469 16.0238C130.945 17.9413 132.422 19.8587 134.032 21.7762ZM125.577 14.1064C125.98 14.1064 126.114 14.1064 126.382 14.1064C126.651 14.1064 127.053 14.1063 127.322 13.9785C128.127 13.8507 128.664 13.2115 128.664 12.4446C128.664 11.5497 128.395 10.9106 127.456 10.6549C126.919 10.5271 126.382 10.5271 125.845 10.3993C125.711 10.3993 125.443 10.6549 125.443 10.6549C125.577 11.8054 125.577 12.9559 125.577 14.1064Z" fill="#C22C27"/>
<path d="M110.953 7.71484C113.772 7.71484 116.456 7.71484 119.274 7.71484C119.274 8.73748 119.274 9.63229 119.274 10.6549C117.798 10.6549 116.322 10.6549 114.845 10.6549C114.845 11.5497 114.845 12.3167 114.845 13.0837C116.322 13.0837 117.664 13.0837 119.14 13.0837C119.14 14.1063 119.14 15.0012 119.14 16.1516C117.664 16.1516 116.322 16.1516 114.845 16.1516C114.845 17.0464 114.845 17.8134 114.845 18.7082C116.322 18.7082 117.798 18.7082 119.274 18.7082C119.274 19.7309 119.274 20.7535 119.274 21.7762C116.59 21.7762 113.772 21.7762 111.087 21.7762C110.953 17.1743 110.953 12.4446 110.953 7.71484Z" fill="#C22C27"/>
<path d="M86.3849 7.84375C86.3849 8.86639 86.3849 9.7612 86.3849 10.7838C85.3112 10.7838 84.3717 10.7838 83.298 10.7838C83.298 14.4909 83.298 18.0702 83.298 21.7772C81.9559 21.7772 80.7479 21.7772 79.54 21.7772C79.54 18.198 79.54 14.4909 79.54 10.7838C78.4663 10.7838 77.3926 10.7838 76.4531 10.7838C76.4531 9.7612 76.4531 8.86639 76.4531 7.84375C79.54 7.84375 82.8954 7.84375 86.3849 7.84375Z" fill="#C22C27"/>
<path d="M91.6174 21.7772C90.4094 21.7772 89.2015 21.7772 87.8594 21.7772C87.8594 17.1754 87.8594 12.4456 87.8594 7.84375C89.0673 7.84375 90.2752 7.84375 91.6174 7.84375C91.6174 12.4456 91.6174 17.0475 91.6174 21.7772Z" fill="#C22C27"/>
<path d="M45.3214 21.7762C43.7108 21.7762 42.3687 21.7762 40.8923 21.7762C40.7581 21.7762 40.4897 21.5205 40.3555 21.2648C39.416 19.8587 38.4765 18.4526 37.537 17.0464C37.4028 16.7908 37.2686 16.663 37.0002 16.2795C37.0002 18.1969 37.0002 19.9865 37.0002 21.7762C35.658 21.7762 34.4501 21.7762 33.2422 21.7762C33.2422 17.1743 33.2422 12.4446 33.2422 7.71484C34.5843 7.71484 35.9265 7.71484 37.1344 7.71484C38.4765 7.71484 39.8186 7.71484 41.0266 7.9705C43.0397 8.48182 43.9792 9.88795 43.9792 11.8054C43.9792 13.9785 43.0397 15.129 41.0266 15.896C40.8923 15.896 40.8923 15.896 40.7581 16.0238C42.3687 17.9413 43.845 19.8587 45.3214 21.7762ZM36.8659 14.1064C37.2686 14.1064 37.4028 14.1064 37.6712 14.1064C37.9396 14.1064 38.3423 14.1063 38.6107 13.9785C39.416 13.8507 39.9528 13.2115 39.9528 12.4446C39.9528 11.5497 39.6844 10.9106 38.7449 10.6549C38.2081 10.5271 37.6712 10.5271 37.1344 10.3993C37.0002 10.3993 36.7317 10.6549 36.7317 10.6549C36.8659 11.8054 36.8659 12.9559 36.8659 14.1064Z" fill="#C22C27"/>
<path d="M46.6562 7.71484C49.4747 7.71484 52.159 7.71484 54.9775 7.71484C54.9775 8.73748 54.9775 9.63229 54.9775 10.6549C53.5011 10.6549 52.0248 10.6549 50.5484 10.6549C50.5484 11.5497 50.5484 12.3167 50.5484 13.0837C52.0248 13.0837 53.3669 13.0837 54.8433 13.0837C54.8433 14.1063 54.8433 15.0012 54.8433 16.1516C53.3669 16.1516 52.0248 16.1516 50.5484 16.1516C50.5484 17.0464 50.5484 17.8134 50.5484 18.7082C52.0248 18.7082 53.5011 18.7082 54.9775 18.7082C54.9775 19.7309 54.9775 20.7535 54.9775 21.7762C52.2932 21.7762 49.4747 21.7762 46.7905 21.7762C46.6563 17.1743 46.6562 12.4446 46.6562 7.71484Z" fill="#C22C27"/>
</svg>
