<svg width="146" height="25" viewBox="0 0 146 25" fill="none" xmlns="http://www.w3.org/2000/svg">
<path d="M51.2057 10.7656C49.6111 10.7656 48.3064 11.3419 47.5816 12.7827V11.0538H46.4219V23.156H47.5816V17.9693C48.3064 19.41 49.4661 19.9849 51.2057 19.9849C52.6554 19.9849 53.8151 19.5527 54.5399 18.5442C55.2647 17.6797 55.6996 16.6712 55.6996 15.3745C55.6996 14.0793 55.2647 12.9253 54.5399 12.0608C53.6701 11.1978 52.6554 10.7656 51.2057 10.7656ZM54.105 18.1134C53.3802 18.8337 52.5104 19.266 51.2057 19.266C50.046 19.266 49.1762 18.9778 48.5964 18.2574C48.0165 17.5371 47.5816 16.6726 47.5816 15.6641V15.5201C47.5816 14.5115 47.8715 13.6471 48.4514 12.9267C49.1762 12.0623 50.046 11.6301 51.2057 11.6301C52.3654 11.6301 53.3802 12.0623 54.105 12.7827C54.6849 13.503 54.9748 14.3689 54.9748 15.376C54.9748 16.5286 54.6849 17.393 54.105 18.1134Z" fill="white"/>
<path d="M138.332 12.9237C137.463 11.6271 136.303 11.0508 134.853 11.0508C133.549 11.0508 132.534 11.483 131.664 12.3474C130.794 13.2119 130.359 14.2204 130.359 15.5171C130.359 16.8123 130.794 17.8222 131.663 18.6867C132.534 19.5511 133.694 19.9833 134.853 19.9833C136.448 19.9833 137.608 19.4085 138.332 18.1104V19.8393H139.492V11.3389H138.332V12.9237ZM137.318 17.9663C136.593 18.5426 135.868 18.9748 134.853 18.9748C133.839 18.9748 133.114 18.6867 132.389 17.9663C131.664 17.2459 131.374 16.5256 131.374 15.5171C131.374 14.5085 131.664 13.7882 132.389 13.0678C133.114 12.3474 133.839 12.0593 134.853 12.0593C135.868 12.0593 136.593 12.3474 137.318 13.0678C138.043 13.6441 138.332 14.5085 138.332 15.5171C138.332 16.5256 137.898 17.2459 137.318 17.9663Z" fill="white"/>
<path d="M68.8958 10.7656C68.171 10.7656 67.5911 10.9097 67.0113 11.1978C66.4314 11.486 65.9965 11.9182 65.7066 12.4945V11.0538H64.5469V19.8423H65.7066V14.5115C65.7066 13.6471 65.9965 12.9267 66.5764 12.4945C67.1562 11.9182 67.7361 11.6301 68.6059 11.6301C70.4904 11.6301 71.3602 12.4945 71.3602 14.3675V19.6982H72.5199V14.3675C72.375 11.9182 71.2153 10.7656 68.8958 10.7656Z" fill="white"/>
<path d="M80.9271 10.7656C79.6238 10.7656 78.4627 11.1978 77.7378 12.2064C76.8681 13.0708 76.5781 14.2234 76.5781 15.376C76.5781 16.53 77.013 17.6826 77.7378 18.5456C78.6091 19.4115 79.6238 19.9863 80.9271 19.9863C82.2318 19.9863 83.3915 19.5541 84.1163 18.5456C84.8411 17.6812 85.276 16.6726 85.276 15.376C85.276 14.0793 84.8411 13.0708 84.1163 12.2064C83.2465 11.1978 82.2318 10.7656 80.9271 10.7656ZM83.3915 17.9693C82.8116 18.6897 81.9418 19.1219 80.9271 19.1219C79.9123 19.1219 79.0425 18.6897 78.4627 17.9693C77.8828 17.2489 77.5929 16.3845 77.5929 15.376C77.5929 14.3689 77.8828 13.503 78.4627 12.7827C79.0425 12.0623 79.7674 11.6301 80.9271 11.6301C82.0868 11.6301 82.8116 12.0623 83.3915 12.7827C83.9713 13.503 84.2613 14.3689 84.2613 15.376C84.1163 16.5286 83.8264 17.393 83.3915 17.9693Z" fill="white"/>
<path d="M98.9042 10.7613C98.3243 10.7613 97.7445 10.9053 97.3081 11.1935C96.8732 11.4816 96.4384 11.9138 96.1484 12.4901C95.7135 11.3376 94.6988 10.6172 93.2491 10.6172C92.0894 10.6172 91.2211 11.1935 90.6398 12.202V11.0494H89.625V19.8379H90.6398V14.3631C90.6398 13.6427 90.9297 12.9224 91.3646 12.4901C91.8009 11.9138 92.3808 11.6257 93.1056 11.6257C94.5553 11.6257 95.425 12.4901 95.425 14.219V19.8379H96.4398V14.219C96.4398 13.4987 96.5848 12.9224 97.1646 12.3461C97.4546 11.9138 98.0344 11.6257 98.7592 11.6257C99.6305 11.6257 100.209 11.9138 100.499 12.3461C100.789 12.7783 101.079 13.3546 101.079 14.219V19.8379H102.093V14.075C102.093 13.0664 101.804 12.202 101.224 11.6257C100.644 11.0494 99.9189 10.7613 98.9042 10.7613Z" fill="white"/>
<path d="M113.692 12.2064C112.967 11.1978 111.952 10.7656 110.502 10.7656C109.198 10.7656 108.181 11.1978 107.457 12.2064C106.732 13.0708 106.297 14.2234 106.297 15.5201C106.297 16.9608 106.732 18.1134 107.457 18.8337C108.181 19.6982 109.196 20.1304 110.502 20.1304C111.662 20.1304 112.53 19.8423 113.402 19.1219C113.98 18.5456 114.416 17.8252 114.561 16.9608H113.547C113.257 17.6812 112.968 18.1134 112.532 18.5456C111.953 18.9778 111.372 19.1219 110.504 19.1219C109.488 19.1219 108.763 18.8337 108.183 18.2574C107.603 17.6812 107.313 16.8167 107.313 15.6641H114.706C114.706 14.2234 114.416 13.0708 113.692 12.2064ZM107.458 14.9438C107.603 13.9352 107.893 13.2149 108.473 12.6386C108.908 11.9182 109.633 11.6301 110.502 11.6301C112.387 11.6301 113.402 12.6386 113.692 14.7997H107.458V14.9438Z" fill="white"/>
<path d="M41.4956 14.2207C40.9158 13.9325 39.7561 13.5003 38.0165 13.0681C36.7118 12.7799 35.842 12.4918 35.4071 12.3477C34.5373 11.9155 34.1024 11.4833 34.1024 10.7629C34.1024 10.0425 34.3924 9.46625 35.1172 9.03403C35.697 8.74588 36.5668 8.45773 37.7265 8.45773C38.8863 8.45773 39.7561 8.74588 40.4809 9.1781C41.2057 9.61032 41.4956 10.3307 41.6406 11.3392H42.8003C42.6554 10.0425 42.2205 9.1781 41.3507 8.45773C40.4809 7.88144 39.3212 7.44922 37.8715 7.44922C36.5668 7.44922 35.4071 7.73737 34.5373 8.16959C33.5226 8.74588 33.0877 9.46625 33.0877 10.6188C33.0877 11.6274 33.6675 12.3477 34.6823 12.924C35.1172 13.2122 36.1319 13.5003 37.7265 13.9325C39.3212 14.3662 40.191 14.6529 40.6258 14.7984C41.4956 15.2306 41.9305 15.951 41.9305 16.6714C41.9305 17.3917 41.4956 17.968 40.7708 18.4003C40.046 18.8325 39.0312 18.9751 37.8715 18.9751C36.5668 18.9751 35.697 18.6884 34.9722 18.2547C34.2474 17.6799 33.8125 16.814 33.6675 15.6614H32.5078C32.6528 17.1021 33.2326 18.2547 34.2474 18.9751C35.1172 19.5514 36.4219 19.9836 37.8715 19.9836C39.4661 19.9836 40.6258 19.6955 41.4956 19.1192C42.5104 18.5429 42.9453 17.6784 42.9453 16.6699C43.2352 15.6614 42.6554 14.797 41.4956 14.2207Z" fill="white"/>
<path d="M24.6818 12.4919C24.6818 11.3393 23.957 10.1867 23.6671 9.89856C22.3624 8.74597 21.2027 8.74597 20.1879 8.74597C19.3181 8.74597 14.9692 8.74597 7.28606 8.74597V7.16117C14.0994 7.16117 18.0135 7.16117 18.8832 7.16117C20.3329 7.16117 20.9128 7.16117 22.2174 7.59339C23.3772 8.02561 24.247 9.32227 24.3919 9.03412C24.5369 8.74597 23.957 7.44931 22.7973 6.00858C21.9275 5.14414 20.4779 3.7034 19.3181 2.69489C16.8537 0.677857 12.7947 0.101562 11.0551 0.101562C7.86592 0.101562 4.24179 0.101562 0.037811 0.101562C0.037811 7.30524 0.037811 11.0512 0.037811 11.6274C0.037811 12.4919 0.182776 13.7885 1.48746 14.7971C2.64718 15.6615 3.66193 15.6615 5.25655 15.8056C6.85116 15.8056 10.9102 15.8056 17.2886 15.8056V17.3904C9.75046 17.3904 5.83641 17.3904 5.69144 17.3904C4.24179 17.3904 3.51697 17.2463 2.93711 17.1022C2.50221 16.9582 1.92235 16.67 1.48746 16.3819C0.762636 15.9497 0.182776 15.3734 0.037811 15.3734C-0.252119 15.5174 1.19753 17.9667 1.92235 18.9752C3.51697 20.9922 5.54648 22.2903 6.2713 22.7225C9.31557 24.5955 12.0699 24.5955 13.5195 24.5955C15.2591 24.5955 18.7383 24.5955 23.8121 24.5955C24.247 24.5955 24.5369 24.3074 24.5369 23.8751C24.6818 17.8226 24.6818 14.0767 24.6818 12.4919Z" fill="url(#paint0_linear_5687_43037)"/>
<path d="M59.9089 7.88281C59.6189 7.88281 59.474 8.02689 59.329 8.17096C59.184 8.31503 59.0391 8.45911 59.0391 8.74725C59.0391 9.0354 59.184 9.17947 59.329 9.32355C59.474 9.46762 59.7639 9.61169 59.9089 9.61169C60.1988 9.61169 60.3437 9.46762 60.4887 9.32355C60.6337 9.17947 60.7786 8.89133 60.7786 8.74725C60.7786 8.45911 60.6337 8.31503 60.4887 8.17096C60.3437 8.02689 60.1988 7.88281 59.9089 7.88281Z" fill="white"/>
<path d="M145.007 7.44922H143.992V19.8395H145.007V7.44922Z" fill="white"/>
<path d="M122.672 10.7656C122.093 10.7656 121.512 10.9097 120.934 11.1978C120.352 11.486 120.062 11.9182 119.773 12.4945V11.0538H118.758V19.8423H119.773V14.5115C119.773 13.6471 120.062 12.9267 120.644 12.4945C121.077 11.9182 121.802 11.6301 122.527 11.6301C124.266 11.6301 125.136 12.4945 125.136 14.3675V19.6982H126.151V14.3675C126.151 12.0623 124.991 10.7656 122.672 10.7656Z" fill="white"/>
<path d="M60.3429 11.0508H59.3281V19.8393H60.3429V11.0508Z" fill="white"/>
<defs>
<linearGradient id="paint0_linear_5687_43037" x1="0.0385358" y1="12.3478" x2="24.6466" y2="12.3478" gradientUnits="userSpaceOnUse">
<stop stop-color="#78C7DC"/>
<stop offset="1" stop-color="#A568AE"/>
</linearGradient>
</defs>
</svg>
