<svg width="129" height="40" viewBox="0 0 129 40" fill="none" xmlns="http://www.w3.org/2000/svg">
<path d="M0 20.5874C0.128886 20.7161 0.257771 20.7161 0.257771 20.7161C0.902199 21.1021 1.54663 21.3594 2.19106 21.7454C2.44883 21.874 2.44883 21.7454 2.44883 21.4868C2.44883 19.5582 2.57771 17.4996 2.57771 15.5697C2.57771 15.4411 2.57771 15.3124 2.7066 15.1837C3.4812 13.8971 4.25323 12.6105 4.89765 11.3239C5.54208 10.0373 6.44428 9.00807 7.47537 7.9788C8.89311 6.56354 10.3109 5.14828 11.7286 3.73303C12.1153 3.60437 12.1152 3.60437 12.2441 3.86169C12.5019 4.76231 12.7584 5.53426 13.0175 6.43488C13.1463 6.82086 13.1463 6.82086 13.533 6.56354C13.9196 6.30622 14.0485 6.0489 14.0485 5.53426C14.4365 3.86169 14.8231 2.31777 15.3374 0.645199C15.4663 0.38788 15.5952 0.51654 15.724 0.51654C16.2396 0.773859 16.6262 1.15984 17.1418 1.41716C18.5595 2.31777 19.9773 3.08973 21.5239 3.86169C22.555 4.37633 23.4572 5.14829 24.2305 6.0489C25.2616 7.20684 26.4216 8.36477 27.5815 9.52271C27.7117 9.65137 27.8393 9.65137 28.0971 9.65137C28.9993 9.26539 30.0304 9.00807 30.9326 8.62209C31.0614 8.62209 31.1903 8.75075 31.3192 8.75075C31.7059 9.65137 32.0925 10.552 32.6081 11.4526C33.2525 12.8679 33.8969 14.2831 34.6702 15.6984C35.1858 16.8563 35.8302 18.0142 36.347 19.0435C36.347 19.0435 36.347 19.1722 36.347 19.3008C36.2169 20.2015 35.9591 21.1021 35.8302 22.0027C35.5724 23.2893 35.4436 24.5759 35.1858 25.8625C35.0569 26.3771 35.0569 26.7631 34.928 27.2777C34.928 27.5351 35.0569 27.5351 35.1858 27.5351C35.8302 27.4051 36.6035 27.2764 37.2479 27.0204C37.3781 27.0204 37.3781 27.0204 37.5057 26.8918C37.5057 27.0204 37.3768 27.1478 37.3768 27.1478C36.8613 27.5351 36.7324 28.0484 36.6022 28.563C35.8289 30.4929 35.0569 32.4228 34.2823 34.3527C33.8969 35.2546 33.2525 35.5119 32.4792 35.8979C30.9326 36.4126 29.5148 36.9259 27.9682 37.5692C26.4216 38.0839 24.8749 38.7271 23.327 39.2431C22.6826 39.4991 22.1683 39.7577 21.5239 39.8864C21.3937 39.8864 21.2661 40.015 21.136 39.8864C20.3626 39.8864 19.5906 39.7577 18.816 39.6291C17.3983 39.4991 16.1094 39.4991 14.6917 39.4991C13.533 39.3717 12.373 39.1144 11.3419 38.5998C10.6975 38.3425 10.0531 38.0851 9.40865 37.9565C8.24868 37.5692 6.95982 37.0559 5.79985 36.6699C5.66968 36.6699 5.54208 36.5412 5.54208 36.4126C4.63988 34.8686 3.6088 33.326 2.7066 31.7795C2.06217 30.6229 1.54792 29.3363 1.41774 27.9197C1.28886 26.8918 1.03109 25.8625 0.902199 24.8332C0.773314 23.9326 0.644428 23.032 0.386657 22.1301C0.257771 21.6167 0.128886 21.2307 0 20.7161C0 20.8448 0 20.7161 0 20.5874ZM18.4306 15.827C15.0796 15.827 11.4708 15.827 7.86202 15.827C7.60425 15.827 7.47537 15.9557 7.47537 16.213C7.47537 18.5289 7.60425 20.8448 7.60425 23.032C7.60425 23.2893 7.73314 23.4167 7.99091 23.4167C10.182 23.2893 12.5019 23.2893 14.693 23.1606C15.0809 23.1606 15.0809 23.1606 15.0809 23.5466C15.0809 24.1899 15.0809 24.9631 15.2098 25.6064C15.3387 26.893 15.4676 28.0497 15.5965 29.3363C15.5965 31.2662 15.5965 33.1961 15.5965 35.126C15.5965 35.5119 15.5965 35.6393 16.112 35.6393C17.4009 35.6393 18.5595 35.6393 19.8484 35.6393C20.3639 35.6393 20.8808 35.6393 21.2674 35.7693C21.6541 35.7693 21.7817 35.7693 21.7817 35.3833C21.9106 34.2253 22.1683 33.1961 22.1683 32.0381C22.2972 30.7515 22.2972 29.5936 22.2972 28.307C22.2972 26.7631 22.2972 25.0905 22.2972 23.5466C22.2972 23.4167 22.2972 23.2893 22.4261 23.2893C22.814 23.1606 23.3283 22.9033 23.715 22.9033C25.3918 22.9033 26.9371 22.9033 28.6139 22.7734C28.8704 22.7734 29.1282 22.7734 29.3872 22.7734C29.6463 22.7734 29.7739 22.6447 29.7739 22.26C29.7739 20.0728 29.904 17.8856 29.904 15.827C29.904 15.5697 29.7739 15.4411 29.6463 15.4411C29.5161 15.4411 29.2596 15.4411 29.1307 15.4411C25.6482 15.6984 22.1683 15.6984 18.4306 15.827Z" fill="white"/>
<path d="M66.8906 28.4347C66.8906 30.6219 66.8906 32.8091 66.8906 34.9963C66.8906 35.2549 66.7617 35.3836 66.5039 35.3836C65.7306 35.3836 64.9573 35.3836 64.184 35.3836C63.9262 35.3836 63.7973 35.2549 63.6684 34.9963C63.4106 33.967 63.024 32.9377 62.7662 31.9085C62.6373 31.3938 62.5084 30.8792 62.3796 30.3646C62.2507 30.1085 62.1231 29.8499 61.7351 29.8499H61.6062C61.0907 29.7213 61.0907 29.7213 61.0907 30.2372C61.2209 31.7798 61.4786 33.4537 61.6062 34.9963C61.6062 35.2536 61.4774 35.3823 61.3485 35.2536C60.5752 35.2536 59.673 35.125 58.8996 35.125C58.6419 35.125 58.6419 34.995 58.6419 34.739C58.6419 33.581 58.6419 32.4218 58.6419 31.1352C58.6419 30.4919 58.5117 29.9786 58.5117 29.3353C58.3828 27.7914 58.3828 26.2487 58.3828 24.7022C58.3828 23.8029 58.3828 22.7724 58.3828 21.873C58.3828 21.7444 58.3828 21.4858 58.6406 21.4858C59.285 21.3571 60.0583 21.2297 60.7028 20.9724C60.9605 20.9724 61.4774 21.2297 61.4774 21.4858C61.6062 22.1291 61.864 22.7724 61.9916 23.4157C62.3783 24.5736 62.636 25.6042 63.0227 26.7621V26.8907C63.1529 27.534 63.4106 27.6627 64.0551 27.4054C64.184 27.4054 64.184 27.1481 64.184 27.1481C64.184 26.1188 64.0551 24.9621 63.9262 23.9316C63.9262 23.5456 63.7973 23.1596 63.7973 22.7736C63.7973 22.259 63.6684 21.7444 63.6684 21.2297C63.6684 20.9724 63.7986 20.8438 63.9262 20.8438C64.7008 20.8438 65.6017 20.8437 66.375 20.9724C66.6328 21.1024 66.7617 21.2297 66.7617 21.4858C66.8905 24.1889 66.8906 26.3761 66.8906 28.4347Z" fill="white"/>
<path d="M119.219 28.3063C119.219 26.119 119.219 23.9318 119.219 21.616C119.219 21.23 119.219 21.23 119.605 21.1026C120.508 21.1026 121.281 20.9727 122.183 20.9727C122.441 20.9727 122.57 21.1026 122.57 21.23C122.57 22.5166 122.57 23.8032 122.441 25.0898C122.441 25.4757 122.311 25.7331 122.183 26.119C122.054 26.3764 122.183 26.505 122.441 26.505C123.214 26.3764 123.859 25.8617 123.988 24.9624C124.245 23.8032 124.245 22.7726 124.245 21.616C124.245 21.23 124.245 21.1026 124.761 21.1026C125.663 21.1026 126.565 20.9727 127.467 20.9727C127.725 20.9727 127.855 21.1026 127.983 21.3586C128.241 23.8032 127.596 26.119 125.792 27.9203C125.405 28.4349 125.278 28.4349 125.792 28.8222C126.567 29.8502 127.339 30.8807 127.855 32.1673C128.112 32.9393 128.37 33.8399 128.37 34.6119C128.37 34.7405 128.241 34.8679 128.112 34.8679C127.467 34.9966 126.694 34.9966 126.05 34.9966C125.405 34.9966 125.276 34.8679 125.147 34.3533C124.761 33.3253 124.245 32.2947 123.859 31.2667C123.601 30.7508 123.214 30.7508 122.828 30.7508L122.699 31.0081C122.699 31.7801 122.699 32.4234 122.699 33.1953C122.699 33.7087 122.568 34.2246 122.441 34.7392C122.441 34.8679 122.183 34.9953 122.183 34.9953C121.41 34.9953 120.636 35.1252 119.863 35.1252C119.605 35.1252 119.477 34.9953 119.477 34.7392C119.348 32.8093 119.348 30.6221 119.219 28.3063C119.348 28.3063 119.219 28.3063 119.219 28.3063Z" fill="white"/>
<path d="M47.2995 28.8216C47.2995 31.0076 47.2995 33.1948 47.2995 35.3833C47.2995 35.7693 47.2995 35.7693 46.9116 35.7693C46.1383 35.6393 45.3662 35.5119 44.5916 35.5119C44.3339 35.5119 44.205 35.3833 44.205 34.9973C44.205 33.8406 44.205 32.554 44.0761 31.3961C44.0761 31.2662 43.9459 31.1375 43.8183 31.0088C43.6881 30.8802 43.4317 30.7528 43.3028 30.4942C43.1739 30.3655 43.045 30.3655 43.045 30.6242C42.9161 30.8815 42.7885 31.1375 42.6583 31.5248C42.6583 31.6534 42.6583 31.9107 42.6583 32.1681C42.7885 33.326 42.9161 34.4839 43.045 35.6406C43.045 35.8992 42.9161 35.8992 42.7885 35.8992C41.8863 35.8992 41.1117 35.8992 40.2108 35.8992C39.953 35.8979 39.8242 35.7693 39.8242 35.5119C39.8242 33.1961 39.8242 30.7528 39.8242 28.4357C39.8242 26.893 39.5677 25.3478 39.4375 23.8039C39.4375 23.0319 39.4375 22.26 39.4375 21.6167C39.4375 21.4867 39.5677 21.3594 39.6953 21.3594C40.5975 21.3594 41.4997 21.3594 42.273 21.3594C42.5308 21.3594 42.5308 21.488 42.5308 21.7466C42.5308 22.7746 42.6596 23.6765 42.6596 24.7045C42.6596 25.7351 42.6596 26.7644 42.6596 27.665C42.6596 27.7936 42.7898 27.921 42.9174 27.921C43.1752 27.921 43.5618 28.051 43.8196 28.051C44.0774 28.051 44.2063 28.051 44.2063 27.665C44.2063 25.8637 44.2063 24.0612 44.2063 22.3899C44.2063 22.0027 44.2063 22.0027 44.7218 22.0027C45.4951 22.0027 46.2671 22.0027 47.0417 22.0027C47.4284 22.0027 47.4284 22.1313 47.4284 22.3899C47.2995 24.4472 47.2995 26.6331 47.2995 28.8216Z" fill="white"/>
<path d="M98.2104 30.8799C98.2104 31.3946 98.0802 31.9092 98.0802 32.4226C98.0802 33.1958 98.0802 34.0964 98.0802 34.8671C98.0802 35.1244 97.9513 35.1244 97.8225 35.2544C97.178 35.383 96.4047 35.639 95.7603 35.7677C95.5025 35.7677 95.3736 35.7677 95.3736 35.5104C95.246 33.9678 95.1171 32.5525 94.9883 31.0086C94.8594 28.1781 94.8594 25.4762 94.8594 22.6457C94.8594 22.3897 94.8594 22.2597 94.8594 22.0024C94.8594 21.4878 94.8594 21.4878 95.3749 21.4878C96.2771 21.4878 97.0504 21.4878 97.9526 21.4878C98.2104 21.4878 98.2104 21.6177 98.2104 21.7464C98.2104 22.7744 98.0802 23.8049 98.0802 24.9629C98.0802 25.4762 98.0802 25.9909 97.9513 26.5055C97.9513 26.7628 98.0802 26.7628 98.2091 26.7628C98.9824 26.7628 99.11 26.6329 99.3678 25.8622C99.8833 24.447 100.142 23.1604 100.27 21.6164C100.27 21.3591 100.399 21.2305 100.786 21.2305C101.43 21.2305 102.203 21.2305 102.848 21.2305C103.105 21.2305 103.234 21.3591 103.234 21.4865C103.234 22.3884 103.234 23.4164 103.105 24.3183C102.979 25.3463 102.464 26.2482 101.948 27.1488C101.561 27.6634 101.304 28.1794 101.046 28.6927C100.917 28.95 100.917 29.0787 101.176 29.2061C102.077 30.2366 102.593 31.3946 102.979 32.6812C103.237 33.4531 103.367 34.2238 103.624 34.9958C103.624 35.1257 103.624 35.2544 103.495 35.2544C102.593 35.2544 101.69 35.2544 100.788 35.2544C100.659 35.2544 100.53 34.9958 100.401 34.8684C100.144 33.7092 99.757 32.6812 99.2415 31.7793C98.9837 31.3946 98.726 31.0086 98.3393 30.7513C98.2104 30.8799 98.2104 30.8799 98.2104 30.8799Z" fill="white"/>
<path d="M52.0737 26.7642C52.0737 28.6941 52.2039 30.624 52.2039 32.6838C52.2039 32.8125 52.2039 32.9399 52.2039 33.0685C52.2039 33.1985 52.3328 33.1985 52.4616 33.1985C52.4616 33.1985 52.4616 33.1985 52.5905 33.1985C53.7505 32.9412 53.6216 33.0685 53.7505 31.9119C53.7505 29.7247 53.7505 27.5387 53.8794 25.349C53.8794 23.9337 53.8794 22.6471 53.8794 21.2331C53.8794 20.8472 53.8794 20.7185 54.3949 20.7185C55.0394 20.7185 55.6838 20.5898 56.3282 20.5898C56.7149 20.5898 56.7149 20.5898 56.7149 20.9758C56.7149 22.2624 56.7149 23.549 56.7149 24.7057C56.7149 26.5069 56.7149 28.1808 56.7149 29.982C56.7149 31.0113 56.7149 32.0418 56.3282 33.0685C55.8114 34.7411 54.9092 35.2557 53.1048 35.3844C52.0737 35.5131 51.1715 35.2557 50.2693 34.7411C49.4947 34.2265 48.9804 33.4545 48.9804 32.5539C48.8516 29.3374 48.8516 26.2496 48.8516 23.0331C48.8516 22.5185 48.8516 22.0025 48.8516 21.3592C48.8516 21.1032 48.9804 21.1032 49.1093 21.1032C49.8839 21.1032 50.7848 21.2319 51.5582 21.2319C52.0724 21.2319 52.0724 21.2319 52.0724 21.7465C52.2026 23.4178 52.2026 25.0916 52.0737 26.7642C52.2026 26.7642 52.0737 26.7642 52.0737 26.7642Z" fill="white"/>
<path d="M88.4097 32.8093C88.4097 33.4526 88.4097 34.0959 88.4097 34.8679C88.4097 35.1252 88.2808 35.2551 88.0231 35.2551C87.5075 35.2551 86.992 35.2551 86.4764 35.2551C86.2187 35.2551 86.0898 35.1252 86.0898 34.8679C85.9609 32.938 85.9609 31.1368 85.832 29.2069C85.7031 26.6337 85.7031 24.1904 85.7031 21.6172C85.7031 21.3599 85.7031 21.2313 85.9609 21.2313C87.1209 21.1013 88.152 21.1013 89.3119 20.9727C90.2141 20.9727 91.2452 21.1026 92.0185 21.7459C92.7918 22.2593 93.0496 22.9025 93.3074 23.6745C93.694 24.8324 93.8229 25.9891 93.4363 27.1483C93.4363 28.0489 93.0496 28.6922 92.4052 29.3355C92.1474 29.5928 92.1474 29.8489 92.1474 30.2361C92.5341 31.5227 92.7918 32.6807 93.0496 33.9673C93.1785 34.352 93.1785 34.6106 93.1785 34.9953C93.1785 35.2539 93.0496 35.2539 92.9207 35.2539C92.2763 35.2539 91.762 35.3825 91.1176 35.3825C90.9874 35.3825 90.8598 35.2539 90.7297 35.1252C90.4719 33.9673 90.2141 32.8093 89.9564 31.6514C89.8275 31.3941 89.8275 31.0081 89.6986 30.7508C89.6986 30.6208 89.5697 30.4922 89.5697 30.4922C89.183 30.4922 88.7951 30.3635 88.4097 30.3635C88.4097 30.3635 88.2808 30.6208 88.2808 30.7508C88.4097 31.5227 88.4097 32.166 88.4097 32.8093ZM88.4097 25.8617C88.4097 26.505 88.4097 27.0197 88.4097 27.663C88.4097 27.919 88.4097 28.0489 88.6675 27.919C89.4408 27.7903 90.2141 27.5343 90.8586 27.147C90.9874 27.0184 91.1163 26.891 91.1163 26.761C91.2452 25.8604 90.9862 24.9611 90.7284 24.1879C90.5995 23.9305 90.4719 23.8019 90.084 23.8019C89.6973 23.8019 89.183 23.8019 88.7951 23.8019C88.5386 23.8019 88.5386 23.9305 88.5386 24.0579C88.4097 24.7025 88.4097 25.2184 88.4097 25.8617Z" fill="white"/>
<path d="M68.6992 25.9893C68.6992 24.8327 68.6992 23.1601 68.6992 21.4863C68.6992 21.2302 68.828 21.1016 69.0858 21.1016C70.2458 21.2302 71.5346 21.2302 72.6946 21.3576C72.9524 21.3576 73.2102 21.4863 73.4692 21.6149C74.6279 22.1283 75.5314 22.9015 76.0469 24.0582C76.1758 24.4454 76.3047 24.8314 76.3047 25.2161C76.3047 26.6313 76.4336 28.0466 76.4336 29.4631C76.4336 30.6198 76.1758 31.6491 75.6603 32.6796C75.2723 33.4516 74.6279 34.0949 73.727 34.3509C72.308 34.9955 70.8902 35.2541 69.3436 35.2541C68.6992 35.2541 68.3125 34.8681 68.3125 34.2248C68.4414 31.6516 68.5703 29.0785 68.6992 25.9893ZM73.5968 27.5345C73.5968 26.7613 73.5968 25.9893 73.339 25.346C73.2102 24.5741 72.6946 24.0594 71.9213 23.8034C71.5346 23.6748 71.5346 23.8034 71.5346 24.1894C71.5346 25.346 71.5346 26.6326 71.4045 27.7919C71.4045 28.9498 71.2756 30.109 71.2756 31.2657C71.2756 31.6516 71.2756 32.1663 71.4045 32.5523C71.4045 32.8096 71.6622 32.8096 71.6622 32.6822C72.3067 32.1676 72.8222 31.6516 73.0813 30.7523C73.4679 29.7218 73.5968 28.6925 73.5968 27.5345Z" fill="white"/>
<path d="M112.39 28.4342C112.39 29.5921 112.39 30.6214 112.39 31.7793C112.39 32.294 112.646 32.8099 113.034 33.1959C113.163 33.3258 113.291 33.4532 113.421 33.4532C113.935 33.8392 113.935 33.8392 114.323 33.4532C114.837 32.9385 115.096 32.2952 115.096 31.5233C115.096 31.266 115.225 31.136 115.483 31.136C115.998 31.136 116.643 31.136 117.158 31.136C117.416 31.136 117.546 31.136 117.546 31.3946C117.546 32.0379 117.546 32.6812 117.416 33.1946C117.287 34.2238 116.772 34.8671 115.741 35.2531C114.323 35.7665 112.776 35.8964 111.359 35.1232C110.328 34.6098 109.683 33.7066 109.555 32.55C109.298 30.6201 109.425 28.5603 109.555 26.6304C109.555 25.8584 109.555 25.2151 109.684 24.4444C109.684 23.8011 110.071 23.2865 110.459 22.7706C111.618 21.484 112.907 20.9706 114.582 21.3553C115.871 21.6126 116.903 22.3859 117.548 23.5425C117.804 24.0559 117.934 24.5718 117.804 25.0864C117.804 25.3425 117.675 25.4724 117.418 25.4724C116.773 25.4724 116.129 25.4724 115.355 25.4724C115.098 25.4724 114.969 25.3425 115.098 25.0864C115.226 24.1858 114.324 23.5425 113.551 23.7998C112.907 23.9285 112.392 24.4431 112.392 25.3425C112.39 26.3756 112.39 27.4049 112.39 28.4342Z" fill="white"/>
<path d="M77.7188 28.5609C77.7188 26.375 77.7188 24.1878 77.7188 21.9993C77.7188 21.7432 77.8476 21.6133 78.1054 21.6133C80.0387 21.6133 81.8431 21.6133 83.7764 21.6133C84.2906 21.6133 84.4208 21.6133 84.4208 22.2566C84.4208 22.7699 84.4208 23.2859 84.4208 23.8005C84.4208 24.0565 84.2906 24.1865 84.0341 24.1865C83.1319 24.1865 82.1009 24.1865 81.1987 24.1865C80.812 24.1865 80.6831 24.3164 80.6831 24.5724C80.6831 25.603 80.6831 26.5023 80.6831 27.5329C80.6831 27.7889 80.8133 27.9176 81.0698 27.9176C81.7142 27.9176 82.3586 27.7889 83.0031 27.7889C83.2608 27.7889 83.391 27.7889 83.391 28.0463C83.391 28.6896 83.391 29.2029 83.2608 29.8462C83.2608 29.9774 83.0031 30.1061 82.8742 30.1061C82.2298 30.1061 81.7142 30.2348 81.0698 30.2348C80.8133 30.2348 80.6831 30.3634 80.6831 30.6207C80.6831 31.394 80.6831 32.1646 80.6831 33.064C80.6831 33.3226 80.8133 33.4512 81.0698 33.4512C82.1022 33.4512 83.0031 33.4512 84.0354 33.3226C84.2919 33.3226 84.4221 33.3226 84.4221 33.7073C84.4221 34.2219 84.4221 34.7378 84.4221 35.3811C84.4221 35.6372 84.2919 35.7671 84.0354 35.7671C82.1021 35.7671 80.1689 35.7671 78.2356 35.7671C77.8476 35.7671 77.8476 35.7671 77.8476 35.3811C77.8476 33.1939 77.8476 31.0067 77.8476 28.9482C77.8476 28.5609 77.8476 28.5609 77.7188 28.5609Z" fill="white"/>
<path d="M104.784 28.1786C104.784 25.9901 104.784 23.8042 104.784 21.7457C104.784 21.487 104.913 21.3584 105.171 21.3584C105.945 21.2297 106.846 21.1024 107.62 20.8438C107.877 20.8438 107.877 20.8438 108.006 21.1024C108.006 22.389 108.135 23.8042 108.135 25.0908C108.135 28.05 108.135 31.1365 108.135 34.097C108.135 34.8689 108.135 34.7403 107.491 34.8689C106.717 34.8689 105.945 34.9976 105.171 34.9976C104.913 34.9976 104.784 34.8689 104.784 34.6129C104.655 32.5531 104.655 30.3658 104.784 28.1786C104.655 28.1786 104.655 28.1786 104.784 28.1786Z" fill="white"/>
</svg>
