<svg width="139" height="45" viewBox="0 0 139 45" fill="none" xmlns="http://www.w3.org/2000/svg">
<path d="M20.4901 44.0073C19.5774 43.9522 18.6648 43.8971 17.7521 43.8695C16.6735 43.8144 15.6226 43.7593 14.544 43.7042C14.461 43.7042 14.4057 43.6491 14.3504 43.5939C12.1379 41.7477 9.92541 39.9289 7.71291 38.0826C6.7726 37.2835 5.80464 36.5119 4.86433 35.7127C4.78136 35.6576 4.72605 35.5474 4.69839 35.4647C4.03464 33.4807 3.37089 31.4966 2.7348 29.5125C2.4859 28.7685 2.34761 27.9693 2.15402 27.1977C1.79449 25.6821 1.43496 24.1941 1.07543 22.6785C1.04777 22.5407 1.04777 22.4304 1.07543 22.2927C1.32434 21.466 1.54558 20.6668 1.79449 19.8401C2.7348 16.5333 3.67511 13.2541 4.61542 9.97484C4.64308 9.86461 4.67073 9.78194 4.69839 9.67171C4.72605 9.42371 4.86433 9.31348 5.03026 9.20325C5.08558 9.1757 5.14089 9.12058 5.16855 9.06547C6.71729 7.68764 8.23838 6.28225 9.78713 4.90442C10.4232 4.35328 11.1146 3.88482 11.7784 3.3888C12.6357 2.72744 13.4931 2.09364 14.3781 1.45984C14.4334 1.40472 14.4887 1.37717 14.5716 1.37717C18.4988 1.37717 22.426 1.34961 26.3532 1.34961C26.4085 1.34961 26.4638 1.37717 26.5191 1.40472C28.1508 2.61721 29.8102 3.82971 31.4143 5.09731C31.9674 5.51066 32.4652 6.03424 32.963 6.5027C34.014 7.46718 35.0649 8.43167 36.0882 9.39615C36.1435 9.45126 36.1988 9.56149 36.2264 9.64416C37.4157 13.7501 38.5772 17.856 39.7664 21.962C39.7664 21.9895 39.7664 21.9895 39.7664 22.0171C39.96 22.3202 39.8771 22.6509 39.7941 22.9816C39.2686 25.0483 38.7985 27.1426 38.2453 29.2094C38.0518 29.9534 37.7752 30.6699 37.5539 31.3864C37.1114 32.7366 36.6689 34.0869 36.2264 35.4372C36.1711 35.575 36.1158 35.6576 36.0329 35.7403C32.963 38.2755 29.8932 40.8107 26.851 43.3735C26.6021 43.5939 26.3255 43.7042 26.0213 43.7042C25.1363 43.7317 24.2237 43.7868 23.3387 43.842C22.4813 43.8971 21.5963 43.9522 20.739 43.9797C20.6837 44.0073 20.6007 44.0073 20.4901 44.0073ZM26.3532 31.4139C27.5424 33.2602 28.704 35.1065 29.8932 36.9804C29.9208 36.9528 29.9208 36.9528 29.9208 36.9252C30.2804 36.2088 30.6676 35.4923 31.0271 34.7758C31.0547 34.7207 31.0547 34.6656 31.0547 34.638C31.0824 34.3074 31.0824 34.0042 31.1101 33.6735C31.1654 32.6815 31.2207 31.6895 31.276 30.6974C31.3036 30.229 31.3313 29.733 31.359 29.2369C31.3036 29.2369 31.276 29.2645 31.2207 29.2645C30.0315 29.6503 28.8422 30.0085 27.6254 30.3943C27.5977 30.3943 27.5424 30.4219 27.5147 30.4494C27.1552 30.7525 26.768 31.0557 26.3532 31.4139ZM9.59354 29.2094C9.62119 29.7054 9.64885 30.1739 9.6765 30.6699C9.75947 31.965 9.81479 33.2602 9.89775 34.5554C9.89775 34.638 9.92541 34.7483 9.98072 34.8309C10.3126 35.4923 10.6721 36.1812 11.004 36.8426C11.0317 36.8977 11.0593 36.9252 11.087 36.9804C12.2762 35.1341 13.4377 33.2878 14.627 31.4139C14.2121 31.0832 13.8249 30.7525 13.4377 30.4219C13.4101 30.3943 13.3824 30.3943 13.3271 30.3668C12.4421 30.0912 11.5571 29.8156 10.6721 29.5125C10.3126 29.4298 9.95307 29.3196 9.59354 29.2094ZM8.23838 24.4421C8.29369 24.387 8.32135 24.3318 8.34901 24.3043C9.04041 23.3123 9.75947 22.2927 10.4509 21.3006C10.6168 21.0526 10.7551 20.8046 10.8381 20.5015C10.9487 20.1157 11.0593 19.7299 11.1699 19.3165C9.26166 18.6001 7.35338 17.9112 5.41745 17.1947C5.47276 18.0214 5.55573 18.793 5.61104 19.5921C5.61104 19.7299 5.66636 19.8677 5.72167 19.9503C6.30245 20.9975 6.88323 22.0446 7.46401 23.0918C7.74057 23.5327 7.98948 23.9736 8.23838 24.4421ZM32.7141 24.4696C32.7418 24.4145 32.7418 24.4145 32.7694 24.4145C33.6268 22.8989 34.4564 21.3833 35.3138 19.8677C35.3414 19.8126 35.3414 19.7574 35.3691 19.7023C35.3968 19.3717 35.4244 19.0685 35.4521 18.7379C35.5074 18.2418 35.535 17.7183 35.5904 17.1947C33.6544 17.9112 31.7738 18.6001 29.8379 19.3165C30.0038 19.8677 30.1421 20.3637 30.2804 20.8873C30.308 20.9424 30.3357 20.9975 30.3633 21.0251C31.1377 22.1273 31.8844 23.2296 32.6588 24.3043C32.6588 24.3594 32.6865 24.4145 32.7141 24.4696ZM29.589 37.2008C28.3997 35.3545 27.2382 33.5082 26.0766 31.6619C25.6618 32.0202 25.2469 32.3508 24.8321 32.7091C24.8044 32.7366 24.7768 32.7642 24.7491 32.8193C24.0854 33.9767 23.394 35.1341 22.7302 36.2914C22.7026 36.319 22.7026 36.3465 22.6749 36.3741C22.7026 36.3741 22.7302 36.4017 22.7579 36.4017C24.2513 36.8426 25.7724 37.2835 27.2658 37.7244C27.3212 37.7519 27.3765 37.7519 27.4318 37.7244C27.9296 37.5866 28.4551 37.4764 28.9529 37.3386C29.1741 37.311 29.3677 37.2559 29.589 37.2008ZM18.3052 36.3741C18.2776 36.3465 18.2776 36.319 18.2776 36.2914C17.5862 35.1065 16.9224 33.9491 16.231 32.7642C16.2034 32.7366 16.2034 32.6815 16.1757 32.6815C15.7609 32.3233 15.346 31.9926 14.9312 31.6344C13.7696 33.4807 12.5804 35.327 11.4188 37.1732C11.4465 37.2008 11.4742 37.2008 11.5018 37.2008C12.1102 37.3661 12.7463 37.5039 13.3548 37.6693C13.4931 37.6968 13.6313 37.7519 13.742 37.6968C15.0141 37.3386 16.2863 36.9528 17.5585 36.567C17.7798 36.5119 18.0287 36.4568 18.3052 36.3741ZM25.8554 9.83706C25.8277 9.78194 25.8001 9.75439 25.7724 9.69927C24.8044 8.349 23.8365 7.02628 22.8685 5.676C22.8409 5.62089 22.7855 5.59333 22.7302 5.56578C22.0941 5.2351 21.4304 4.93197 20.7943 4.60129C20.7666 4.57374 20.739 4.57374 20.6837 4.57374C20.6837 6.86094 20.6837 9.12058 20.6837 11.4078C20.739 11.4078 20.7666 11.4078 20.822 11.4078C21.2368 11.4078 21.6793 11.4078 22.0941 11.4078C22.1771 11.4078 22.2324 11.3802 22.3154 11.3527C22.8685 11.1047 23.4493 10.8842 24.0024 10.6362C24.6108 10.3606 25.2193 10.1126 25.8554 9.83706ZM20.2965 11.3802C20.2965 9.09303 20.2965 6.83338 20.2965 4.54618C20.2412 4.57374 20.2135 4.57374 20.1859 4.60129C19.5498 4.90442 18.9413 5.20754 18.3052 5.53822C18.2223 5.59333 18.1393 5.64845 18.084 5.73112C17.1437 7.02628 16.2034 8.32144 15.2631 9.6166C15.2077 9.67172 15.1524 9.72683 15.0971 9.78194C15.1801 9.86461 15.2077 9.86461 15.2354 9.89217C16.314 10.3606 17.3649 10.8015 18.4435 11.27C18.5541 11.3251 18.6648 11.3802 18.7754 11.4078C19.2732 11.3802 19.771 11.3802 20.2965 11.3802ZM35.4244 16.7262C35.3691 16.6711 35.3414 16.6435 35.2861 16.5884C34.8713 16.0373 34.4288 15.4862 34.014 14.935C33.9586 14.8524 33.8757 14.7973 33.7927 14.7421C32.6865 14.2461 31.5525 13.7225 30.4463 13.2265C30.0868 13.0612 29.7549 12.9234 29.3954 12.7581C29.3954 12.8407 29.3954 12.8958 29.3677 12.9785C29.3124 14.2737 29.2571 15.5964 29.2018 16.8916C29.2018 17.0845 29.2294 17.2773 29.2847 17.4702C29.3954 17.856 29.506 18.2143 29.6166 18.6001C29.6443 18.6827 29.6719 18.7379 29.6719 18.8205C31.5802 18.1592 33.4885 17.4427 35.4244 16.7262ZM11.2806 18.8756C11.4465 18.3245 11.5848 17.8009 11.7231 17.2773C11.7507 17.2222 11.7231 17.1396 11.7231 17.0845C11.6678 15.9271 11.6401 14.7973 11.5848 13.6399C11.5848 13.3643 11.5571 13.0887 11.5571 12.7856C11.5295 12.7856 11.5018 12.8132 11.4742 12.8132C10.0084 13.4745 8.5426 14.1359 7.07682 14.7973C7.02151 14.8248 6.9662 14.8524 6.93854 14.9075C6.49604 15.4586 6.05354 16.0373 5.61104 16.616C5.58339 16.6435 5.55573 16.6987 5.52808 16.7538C7.49167 17.4427 9.37229 18.1592 11.2806 18.8756ZM20.6837 23.202C20.6837 25.6546 20.6837 28.052 20.6837 30.477C22.2324 30.477 23.7535 30.477 25.3023 30.477C23.7812 28.052 22.2324 25.6546 20.6837 23.202ZM15.6502 30.477C17.199 30.477 18.7477 30.477 20.2688 30.477C20.2688 28.052 20.2688 25.6546 20.2688 23.202C18.7477 25.6546 17.199 28.052 15.6502 30.477ZM20.6837 12.8132C20.6837 15.8168 20.6837 18.793 20.6837 21.8242C21.9282 19.8401 23.1727 17.9112 24.4449 15.9271C23.1727 14.9075 21.9282 13.8603 20.6837 12.8132ZM20.2965 21.8242C20.2965 18.793 20.2965 15.8168 20.2965 12.8132C19.052 13.8603 17.7798 14.8799 16.5352 15.9271C17.7798 17.9112 19.0243 19.8401 20.2965 21.8242ZM25.6618 30.2841C26.1319 28.6031 26.6297 26.9222 27.0999 25.2412C25.081 24.4972 23.0621 23.7532 21.0432 22.9816C22.5643 25.4341 24.113 27.8315 25.6618 30.2841ZM15.3184 30.2841C16.8671 27.8315 18.3882 25.4341 19.937 23.0367V23.0091C17.918 23.7532 15.9268 24.4972 13.9079 25.2412C14.3781 26.9222 14.8482 28.5756 15.3184 30.2841ZM12.4698 19.3165C14.9588 20.2535 17.4202 21.1628 19.8816 22.0722C19.8816 22.0722 19.8816 22.0446 19.9093 22.0446C18.6648 20.1157 17.4479 18.1592 16.2034 16.2302C14.9588 17.2498 13.742 18.2694 12.4698 19.3165ZM24.7491 16.2026C23.5046 18.1316 22.2877 20.0881 21.0432 22.0171C21.0432 22.0171 21.0432 22.0446 21.0709 22.0446C23.5323 21.1353 25.9937 20.2259 28.4827 19.289C27.2382 18.2694 25.9937 17.2498 24.7491 16.2026ZM19.7434 22.5407V22.5131C17.282 21.6037 14.8206 20.6944 12.3315 19.7574C12.8017 21.4384 13.2718 23.0918 13.7696 24.7728C15.7609 24.0287 17.7521 23.2847 19.7434 22.5407ZM21.2368 22.5131V22.5407C23.228 23.2847 25.2193 24.0287 27.2382 24.7728C27.7083 23.1194 28.1785 21.466 28.6763 19.7574C26.1596 20.6668 23.6982 21.6037 21.2368 22.5131ZM36.586 18.3521C36.2818 18.8756 36.0052 19.3717 35.7286 19.8677C35.701 19.9228 35.701 19.9779 35.6733 20.0606C35.618 20.7495 35.5627 21.466 35.5074 22.1549C35.4244 23.1469 35.3414 24.1665 35.2585 25.1585C35.2032 25.8475 35.1479 26.5364 35.0925 27.2529C35.1202 27.2253 35.1479 27.1977 35.1755 27.1977C36.0329 26.2884 36.8902 25.3514 37.7199 24.4421C37.7475 24.4145 37.7752 24.3318 37.7752 24.2767C37.7752 23.8909 37.7475 23.5051 37.7199 23.1194C37.6646 22.0446 37.6093 20.9424 37.5539 19.8677C37.5539 19.8126 37.5539 19.7299 37.5263 19.7023C37.2221 19.2339 36.8902 18.8205 36.586 18.3521ZM5.88761 27.2804C5.85995 26.9497 5.83229 26.6466 5.80464 26.371C5.6387 24.3594 5.47276 22.3753 5.30683 20.3637C5.27917 20.0606 5.22386 19.8126 5.08558 19.5921C4.86433 19.2339 4.64308 18.8205 4.44948 18.4623C4.42183 18.4347 4.42183 18.4072 4.39417 18.3521C4.08995 18.793 3.75808 19.2339 3.45386 19.6748C3.42621 19.7023 3.42621 19.785 3.42621 19.8126C3.34324 21.3006 3.28792 22.7611 3.20496 24.2492C3.20496 24.3043 3.23261 24.4145 3.28792 24.4421C3.84105 25.0483 4.42183 25.6821 4.97495 26.2884C5.27917 26.6191 5.58339 26.9497 5.88761 27.2804ZM31.359 36.6772C31.8568 36.5119 32.3269 36.3741 32.7971 36.2363C32.8524 36.2363 32.88 36.1812 32.9077 36.1261C33.7097 34.9963 34.5118 33.8664 35.3138 32.7642C35.3968 32.654 35.3968 32.5713 35.3691 32.4611C35.2308 31.6068 35.0925 30.725 34.9543 29.8432C34.8713 29.4023 34.816 28.9614 34.733 28.4929C34.7054 28.5205 34.7054 28.548 34.6777 28.5756C33.5991 30.6423 32.5482 32.7091 31.4696 34.7758C31.4419 34.8034 31.4419 34.8585 31.4143 34.9136C31.4143 35.4647 31.3866 36.0434 31.359 36.6772ZM6.21948 28.4653C6.21948 28.5205 6.19182 28.548 6.19182 28.5756C5.97057 29.8707 5.77698 31.1935 5.55573 32.4886C5.55573 32.5437 5.58339 32.654 5.61104 32.7091C6.41307 33.8389 7.2151 34.9687 8.04479 36.1261C8.1001 36.1812 8.15541 36.2363 8.21073 36.2639C8.45963 36.3465 8.70854 36.4292 8.95744 36.4843C9.17869 36.5394 9.39994 36.6221 9.62119 36.6772C9.59354 36.0985 9.56588 35.575 9.53822 35.0238C9.53822 34.9136 9.51057 34.8034 9.45525 34.7207C8.40432 32.6815 7.35338 30.6699 6.33011 28.6307C6.27479 28.5756 6.24714 28.548 6.21948 28.4653ZM29.9208 8.92769C29.9208 8.95524 29.8932 8.95524 29.8932 8.9828C29.9208 9.01036 29.9485 9.01036 29.9761 9.03791C31.3313 10.8015 32.6865 12.5376 34.0693 14.3012C34.1246 14.3563 34.1799 14.4115 34.2352 14.439C34.6777 14.6319 35.1202 14.8524 35.5627 15.0453C35.5904 15.0728 35.6457 15.0728 35.6733 15.1004C35.6733 15.0177 35.6733 14.9626 35.701 14.9075C35.7286 14.4666 35.7286 13.9981 35.7563 13.5572C35.7563 13.4745 35.7286 13.3643 35.701 13.2816C35.0372 12.0967 34.3735 10.9118 33.7097 9.72683C33.5991 9.53393 33.4885 9.47882 33.3225 9.45126C32.3822 9.31348 31.4696 9.1757 30.5293 9.03791C30.308 8.9828 30.1144 8.95524 29.9208 8.92769ZM5.30683 15.0728C5.36214 15.0453 5.41745 15.0453 5.44511 15.0177C5.88761 14.8248 6.30245 14.6319 6.74495 14.439C6.82792 14.4115 6.88323 14.3563 6.93854 14.2737C8.29369 12.5376 9.64885 10.8015 10.9763 9.06547C11.004 9.03791 11.0317 9.01036 11.0593 8.95524C11.004 8.95524 10.9763 8.95524 10.9487 8.95524C9.81479 9.12058 8.68088 9.28592 7.51932 9.47882C7.46401 9.47882 7.4087 9.53393 7.38104 9.58905C6.68964 10.8291 5.97058 12.0691 5.27917 13.3092C5.25151 13.3367 5.25151 13.3919 5.25151 13.4745C5.25151 13.7777 5.27917 14.0808 5.27917 14.3839C5.27917 14.6044 5.30683 14.8248 5.30683 15.0728ZM22.0388 3.77459C22.0388 3.80215 22.0112 3.82971 22.0112 3.85726C22.3154 4.27061 22.6473 4.68396 22.9515 5.06976C23.0068 5.15243 23.0898 5.20754 23.1451 5.2351C25.0533 6.17202 26.934 7.10895 28.8422 8.04587C28.8699 8.07343 28.9252 8.07343 28.9805 8.10099C28.9529 8.04587 28.9529 8.01832 28.9529 7.99076C28.4551 6.80582 27.9849 5.64845 27.4871 4.46351C27.4594 4.4084 27.3765 4.35328 27.3212 4.32573C26.0766 3.93993 24.8044 3.55414 23.5599 3.1959C23.5046 3.1959 23.4493 3.16835 23.4216 3.1959C22.9238 3.3888 22.4813 3.5817 22.0388 3.77459ZM12.0273 8.12854C12.0826 8.10099 12.1102 8.10099 12.1379 8.07343C14.0462 7.10895 15.9821 6.17202 17.8904 5.20754C17.9457 5.17998 18.001 5.15243 18.0287 5.09731C18.3052 4.71152 18.6095 4.29817 18.886 3.88482C18.9137 3.85726 18.9413 3.82971 18.969 3.77459C18.4988 3.5817 18.0563 3.3888 17.6138 3.1959C17.5862 3.16835 17.5309 3.1959 17.4755 3.1959C16.2034 3.5817 14.9588 3.96749 13.6867 4.32573C13.6037 4.35328 13.576 4.4084 13.5207 4.49107C13.0506 5.64845 12.5527 6.77827 12.0826 7.93565C12.0549 7.99076 12.0549 8.04587 12.0273 8.12854ZM21.0709 39.8462C21.1262 39.8738 21.1262 39.9014 21.1538 39.9014C22.1494 40.5352 23.1727 41.1414 24.1683 41.7752C24.2237 41.8028 24.3066 41.8028 24.3619 41.7752C25.5788 41.2516 26.7957 40.7005 28.0126 40.1494C28.0679 40.1218 28.1232 40.0667 28.1785 39.984C28.3997 39.5982 28.621 39.24 28.8422 38.8542C28.8699 38.7991 28.8976 38.7715 28.9252 38.7164C28.4827 38.5786 28.0955 38.496 27.6807 38.3306C27.4318 38.248 27.2105 38.248 26.9893 38.3306C25.4129 38.744 23.8641 39.1298 22.2877 39.5156C21.8729 39.6533 21.4857 39.736 21.0709 39.8462ZM19.8816 39.8738C19.8263 39.8462 19.7987 39.8462 19.7434 39.8462C17.8074 39.3502 15.8715 38.8818 13.9632 38.3857C13.742 38.3306 13.5207 38.3306 13.2995 38.4133C12.9952 38.5235 12.6634 38.6062 12.3592 38.6889C12.2485 38.7164 12.1656 38.744 12.0273 38.7991C12.2762 39.24 12.5251 39.6533 12.774 40.0942C12.8017 40.1494 12.8846 40.232 12.9399 40.232C14.1568 40.7832 15.3737 41.3067 16.5629 41.8303C16.6459 41.8579 16.7012 41.8579 16.7841 41.8028C17.4202 41.417 18.0563 41.0036 18.6924 40.6178C19.0796 40.3698 19.4668 40.1218 19.8816 39.8738ZM13.6313 12.1518C13.6037 12.2345 13.6037 12.262 13.576 12.3172C13.1612 13.7777 12.7463 15.2382 12.3315 16.6711C12.1932 17.112 12.1102 17.5529 12.1656 18.0489C12.1932 18.3245 12.1932 18.5725 12.1932 18.8481C12.1932 18.8756 12.1932 18.9032 12.1932 18.9583C13.4654 17.9112 14.7099 16.864 15.9545 15.8168C15.1801 14.6044 14.4057 13.3919 13.6313 12.1518ZM28.7869 18.9583C28.8146 18.4072 28.8146 17.8836 28.8422 17.3876C28.8422 17.3325 28.8146 17.3049 28.8146 17.2498C28.3444 15.5964 27.8743 13.943 27.4041 12.2896C27.4041 12.2345 27.3765 12.2069 27.3488 12.1518C26.5744 13.3919 25.7724 14.6044 24.998 15.8444C26.2426 16.864 27.5147 17.9112 28.7869 18.9583ZM27.5701 24.883C28.8422 25.3514 30.1144 25.8199 31.3866 26.2884C31.359 26.2057 31.359 26.1506 31.3313 26.0955C30.9441 24.7728 30.5569 23.45 30.1974 22.0998C30.0038 21.4108 29.7826 20.8046 29.3677 20.3361C29.2294 20.1984 29.1188 20.0055 29.0082 19.8126C28.538 21.5211 28.0402 23.202 27.5701 24.883ZM9.59354 26.3159C10.8657 25.8475 12.1379 25.379 13.4101 24.9105C12.9123 23.202 12.4421 21.5211 11.972 19.8401C11.6677 20.281 11.3912 20.6944 11.087 21.1077C11.0593 21.1353 11.0593 21.1904 11.0317 21.2455C10.7551 22.2651 10.4509 23.2571 10.1743 24.2767C9.98072 24.9381 9.78713 25.5995 9.59354 26.3159ZM31.2207 26.7844C29.9485 26.3159 28.704 25.8475 27.4318 25.379C26.9616 27.06 26.4915 28.7134 25.9937 30.3943C26.049 30.3943 26.0766 30.3668 26.1319 30.3668C26.4362 30.2841 26.7404 30.1739 27.0446 30.0912C27.2935 30.0361 27.4871 29.8983 27.7083 29.733C28.8422 28.796 29.9761 27.8591 31.1101 26.9222C31.1377 26.8671 31.1654 26.8119 31.2207 26.7844ZM9.75947 26.7844C9.81479 26.8395 9.8701 26.8671 9.89775 26.8946C11.0317 27.8315 12.1656 28.7685 13.2995 29.7054C13.5207 29.8707 13.7143 30.0085 13.9632 30.0636C14.1292 30.1187 14.2951 30.1739 14.461 30.229C14.627 30.2841 14.7929 30.3392 14.9865 30.3943C14.9588 30.3116 14.9588 30.2841 14.9588 30.229C14.5163 28.6582 14.0738 27.0875 13.6313 25.5168C13.6037 25.4066 13.576 25.379 13.4931 25.4066C12.691 25.7097 11.9167 25.9852 11.1146 26.2884C10.6168 26.4537 10.202 26.619 9.75947 26.7844ZM20.6837 31.0006C20.6837 32.5162 20.6837 34.0042 20.6837 35.5198C20.739 35.4923 20.7666 35.4647 20.7943 35.4372C21.8452 34.5554 22.9238 33.646 23.9748 32.7917C24.3896 32.4611 24.7491 32.0753 25.0257 31.5241C25.1087 31.3588 25.2193 31.1935 25.3299 31.0006C23.7812 31.0006 22.2324 31.0006 20.6837 31.0006ZM15.6226 31.0006C15.8715 31.4139 16.0927 31.7997 16.314 32.1855C16.3416 32.2406 16.397 32.2957 16.4523 32.3508C17.6968 33.398 18.9413 34.4176 20.2135 35.4647C20.2412 35.4923 20.2688 35.5198 20.2965 35.5198C20.2965 34.0042 20.2965 32.5162 20.2965 31.0006C18.7477 31.0006 17.199 31.0006 15.6226 31.0006ZM24.6662 15.5688C25.4405 14.3563 26.2149 13.1439 26.9893 11.9038C26.9063 11.9038 26.851 11.9038 26.8233 11.9038C25.4129 11.9038 23.9748 11.9038 22.5643 11.9038C22.3154 11.9038 22.0941 11.9314 21.8452 12.0416C21.541 12.1794 21.2368 12.3172 20.9049 12.4549C22.1771 13.5021 23.4216 14.5217 24.6662 15.5688ZM13.9632 11.9038C14.7652 13.1439 15.512 14.3563 16.2863 15.5688C17.5309 14.5217 18.7754 13.5021 20.0476 12.4549C19.9923 12.4274 19.9646 12.4274 19.937 12.3998C19.5774 12.2345 19.2179 12.0967 18.8584 11.9314C18.7754 11.9038 18.7201 11.8762 18.6371 11.8762C17.1437 11.8762 15.6226 11.8762 14.1015 11.8762C14.0738 11.9038 14.0462 11.9038 13.9632 11.9038ZM34.7054 27.308C34.8989 25.1034 35.0649 22.954 35.2585 20.8046H35.2308C34.4841 22.1549 33.7374 23.4776 32.9907 24.8279C33.5438 25.627 34.1246 26.4537 34.7054 27.308ZM6.27479 27.308C6.85557 26.4537 7.43635 25.6546 8.01713 24.8279C7.27042 23.4776 6.5237 22.1273 5.77698 20.8046C5.77698 20.8046 5.74933 20.8046 5.74933 20.8322C5.88761 22.954 6.0812 25.1034 6.27479 27.308ZM6.55135 28.2449C7.51932 30.1187 8.48729 31.965 9.4276 33.8113C9.4276 33.8113 9.45525 33.8113 9.45525 33.7838C9.37229 32.213 9.28932 30.6423 9.20635 29.0716C8.32135 28.796 7.46401 28.5205 6.55135 28.2449ZM31.5249 33.7838H31.5525C32.4929 31.9375 33.4608 30.0912 34.4288 28.2173C33.5161 28.4929 32.6588 28.7685 31.7738 29.044C31.6908 30.6423 31.6079 32.213 31.5249 33.7838ZM11.4465 9.14814C10.202 10.774 8.95744 12.3723 7.71291 13.9706C7.74057 13.9981 7.76823 13.9981 7.79588 13.9706C9.01276 13.4194 10.2573 12.8683 11.4742 12.3172C11.5571 12.2896 11.5571 12.2345 11.5571 12.1518C11.5295 11.4078 11.5018 10.6362 11.4742 9.89217C11.4742 9.64416 11.4465 9.39615 11.4465 9.14814ZM33.2396 13.9981C33.2396 13.9981 33.2396 13.9706 33.2672 13.9706C32.0227 12.3723 30.8058 10.774 29.5613 9.1757C29.5613 9.25837 29.5613 9.31348 29.5336 9.34104C29.506 10.278 29.4783 11.1873 29.423 12.1243C29.423 12.262 29.4507 12.3172 29.5336 12.3447C30.4463 12.7581 31.359 13.1714 32.2716 13.5848C32.5758 13.695 32.9077 13.8328 33.2396 13.9981ZM17.3096 6.0618C17.3096 6.0618 17.3096 6.03424 17.282 6.03424C15.5949 6.86094 13.9079 7.71519 12.1656 8.56945C12.9952 8.92769 13.7973 9.25837 14.5993 9.6166C14.6823 9.64416 14.7376 9.64416 14.8206 9.56149C15.3737 8.76235 15.9545 7.99076 16.5076 7.19162C16.7841 6.80582 17.0607 6.44759 17.3096 6.0618ZM28.7593 8.59701V8.56945C27.0722 7.71519 25.3576 6.88849 23.6705 6.03424C23.6705 6.0618 23.6429 6.0618 23.6429 6.08935C23.6982 6.17202 23.7812 6.25469 23.8365 6.33736C24.6108 7.41207 25.3852 8.48678 26.1596 9.56149C26.1873 9.6166 26.2702 9.64416 26.2979 9.6166C27.1276 9.28592 27.9572 8.92769 28.7593 8.59701ZM20.9049 39.4053C22.7579 38.9369 24.5555 38.4684 26.3532 38.0275C26.3255 37.9999 26.2979 37.9724 26.2702 37.9724C24.998 37.5866 23.7535 37.2284 22.4813 36.8426C22.3984 36.815 22.3707 36.8426 22.3154 36.9252C21.9559 37.5315 21.5963 38.1653 21.2644 38.7715C21.1815 38.9644 21.0432 39.1573 20.9049 39.4053ZM14.5993 37.9724V37.9999C16.397 38.4684 18.2223 38.9093 20.0476 39.3778C20.0199 39.3227 20.0199 39.2951 20.0199 39.2951C19.5498 38.496 19.1073 37.6968 18.6371 36.8977C18.5818 36.7875 18.5265 36.815 18.4435 36.815C17.5585 37.063 16.7012 37.3386 15.8162 37.5866C15.4013 37.7519 15.0141 37.8622 14.5993 37.9724ZM13.1059 4.51862C13.0782 4.51862 13.0506 4.51862 13.0229 4.51862C12.1932 4.76663 11.3359 5.01464 10.5062 5.29021C10.3126 5.34532 10.1467 5.51066 9.95307 5.62089C10.5062 6.47514 11.0317 7.30184 11.5571 8.1561C12.0826 6.94361 12.5804 5.75867 13.1059 4.51862ZM27.8743 4.51862C28.3997 5.75867 28.8976 6.94361 29.3954 8.1561C29.9485 7.30184 30.474 6.47514 30.9994 5.62089C30.8058 5.51066 30.6676 5.37288 30.5016 5.31777C29.9208 5.12487 29.3124 4.95953 28.704 4.76663C28.4551 4.68396 28.1785 4.60129 27.8743 4.51862ZM35.0925 28.2173C35.3138 29.5401 35.535 30.8628 35.7563 32.213C35.8116 32.1304 35.8393 32.0753 35.8669 32.0477C36.3924 31.3037 36.9179 30.5597 37.4433 29.8432C37.5816 29.6503 37.6369 29.4298 37.6922 29.1818C36.8072 28.8511 35.9499 28.5205 35.0925 28.2173ZM5.1962 32.1855C5.22386 32.1579 5.22386 32.1579 5.25151 32.1304C5.47276 30.8352 5.66636 29.5125 5.88761 28.1898C5.00261 28.5205 4.14527 28.8236 3.28792 29.1543C3.34324 29.4298 3.42621 29.6503 3.56449 29.8707C4.08995 30.5872 4.58777 31.3037 5.11323 32.0202C5.16855 32.0753 5.16855 32.1304 5.1962 32.1855ZM37.8028 24.9657C36.9455 25.9026 36.0882 26.8119 35.2308 27.7489C36.1158 28.0796 36.9455 28.3827 37.8028 28.7134C37.9688 28.2449 37.9688 28.2449 37.9411 27.7764C37.9135 27.556 37.9135 27.308 37.9135 27.0875C37.8858 26.371 37.8305 25.6821 37.8028 24.9657ZM3.1773 24.9657C3.1773 25.0208 3.1773 25.0483 3.1773 25.0759C3.12199 26.0128 3.09433 26.9497 3.03902 27.8867C3.01136 28.1898 3.09433 28.4378 3.1773 28.6858C4.03464 28.3551 4.89198 28.052 5.74933 27.7213C4.86433 26.8119 4.03464 25.9026 3.1773 24.9657ZM33.2119 8.92769C32.7141 8.07343 32.2716 7.24673 31.8015 6.42003C31.6632 6.17202 31.4696 6.08935 31.3036 5.92401C30.7782 6.75071 30.2527 7.57741 29.7272 8.40411C30.8888 8.56945 32.0504 8.73479 33.2119 8.92769ZM11.2529 8.40411C10.7274 7.54985 10.202 6.75071 9.64885 5.89646C9.48291 6.0618 9.31697 6.17202 9.20635 6.36492C8.73619 7.16406 8.29369 7.99076 7.82354 8.7899C7.79588 8.81746 7.79588 8.84502 7.76823 8.92769C8.92979 8.73479 10.0913 8.56945 11.2529 8.40411ZM23.7535 42.0508C22.7026 41.3894 21.7069 40.7832 20.6837 40.1218C20.6837 41.1414 20.6837 42.161 20.6837 43.153C20.8773 43.153 21.0432 43.2082 21.2091 43.153C22.0665 42.8224 22.8962 42.4366 23.7535 42.0508ZM20.2965 40.1494C19.2732 40.7832 18.2499 41.417 17.2266 42.0783C17.282 42.1059 17.3096 42.1334 17.3649 42.1334C18.1393 42.4641 18.886 42.7948 19.6604 43.153C19.8816 43.2633 20.1029 43.2082 20.3241 43.2082C20.2965 42.1886 20.2965 41.169 20.2965 40.1494ZM39.5175 22.5131C38.9921 21.7691 38.4943 21.0526 37.9688 20.3086C38.0241 21.5486 38.0794 22.7611 38.1624 24.0012C38.6049 23.4776 39.0474 23.0091 39.5175 22.5131ZM3.01136 20.3637C2.4859 21.0526 1.98808 21.7691 1.46262 22.5131C1.93277 23.0091 2.37527 23.5051 2.84543 24.0012C2.90074 22.7611 2.95605 21.5486 3.01136 20.3637ZM5.1962 12.5927C5.77698 11.5731 6.33011 10.5535 6.91089 9.53393C6.27479 9.6166 5.66636 9.72683 5.05792 9.8095C5.11323 10.7464 5.16855 11.6282 5.1962 12.5927ZM35.8946 9.8095C35.2861 9.72683 34.6777 9.6166 34.0416 9.53393C34.6224 10.5535 35.1755 11.5731 35.7563 12.5927C35.8116 11.6282 35.8393 10.7464 35.8946 9.8095ZM7.4087 35.9883V35.9608C6.74495 35.0514 6.10886 34.142 5.44511 33.2051C5.33448 33.9216 5.22386 34.5829 5.11323 35.2994C5.88761 35.5198 6.63432 35.7403 7.4087 35.9883ZM33.5438 35.9608C33.5438 35.9608 33.5438 35.9883 33.5715 35.9883C34.3458 35.7403 35.0925 35.5198 35.8669 35.2718C35.7563 34.5829 35.6457 33.894 35.535 33.1775C34.8436 34.142 34.2075 35.0514 33.5438 35.9608ZM24.7768 42.161C25.3023 42.4917 25.8001 42.7948 26.2979 43.1255C26.3808 43.1806 26.4085 43.153 26.4638 43.0704C26.851 42.3815 27.2382 41.6925 27.6254 41.0036C27.653 40.9761 27.653 40.921 27.6807 40.8658C26.7127 41.2792 25.7448 41.7201 24.7768 42.161ZM16.2034 42.161C15.2077 41.7201 14.2398 41.3067 13.2995 40.8658C13.7143 41.6374 14.1292 42.3539 14.544 43.0979C14.5716 43.1255 14.5993 43.1255 14.627 43.1255C15.1524 42.7948 15.6502 42.4917 16.2034 42.161ZM16.8395 2.86522C16.8118 2.83767 16.7841 2.83767 16.7841 2.81011C16.0927 2.50699 15.4013 2.20387 14.7099 1.90074C14.6546 1.87319 14.627 1.90074 14.5993 1.98341C14.461 2.34165 14.3227 2.67233 14.1568 3.03056C14.0462 3.27857 13.9632 3.49903 13.8526 3.77459C14.8206 3.47147 15.8162 3.16835 16.8395 2.86522ZM24.1407 2.86522C25.164 3.16835 26.1596 3.47147 27.1552 3.77459C27.1276 3.69192 27.0999 3.66437 27.0999 3.60925C26.8787 3.08568 26.6574 2.5621 26.4362 2.01097C26.3808 1.9283 26.3255 1.90074 26.2426 1.9283C25.5788 2.23142 24.9151 2.50699 24.2513 2.78255C24.2237 2.81011 24.196 2.83767 24.1407 2.86522ZM8.45963 24.8554C8.70854 25.2963 8.95744 25.7372 9.20635 26.1781C9.59354 24.8279 9.95307 23.5327 10.3403 22.21C10.3403 22.21 10.3126 22.21 10.3126 22.1824C9.70416 23.0642 9.09572 23.9461 8.45963 24.8554ZM32.4929 24.8554C31.8844 23.9736 31.2483 23.0918 30.6399 22.21C30.6399 22.21 30.6122 22.21 30.6122 22.2375C30.9994 23.5603 31.359 24.8554 31.7461 26.2057C32.0227 25.7097 32.244 25.2963 32.4929 24.8554ZM13.2165 12.0691C13.1888 12.0691 13.1888 12.0691 13.1612 12.0691C12.774 12.2345 12.3868 12.4274 11.9996 12.5927C11.9167 12.6203 11.9443 12.6754 11.9443 12.7581C11.972 13.5296 11.9996 14.2737 12.0273 15.0453C12.0273 15.3759 12.0549 15.6791 12.0549 16.0097H12.0826C12.4698 14.7146 12.857 13.3919 13.2165 12.0691ZM28.8699 16.0097C28.8976 15.9546 28.8976 15.8995 28.8976 15.8444C28.9252 14.7973 28.9805 13.7777 29.0082 12.7305C29.0082 12.6478 28.9805 12.6203 28.9252 12.5927C28.5657 12.4274 28.1785 12.262 27.819 12.0967C27.7913 12.0967 27.7637 12.0967 27.736 12.0691C28.1232 13.3919 28.4827 14.687 28.8699 16.0097ZM17.0607 33.4531C17.0884 33.5082 17.0884 33.5082 17.0884 33.5082C17.5862 34.39 18.1116 35.2718 18.6095 36.1536C18.6648 36.2363 18.6924 36.2363 18.7754 36.2088C19.052 36.1261 19.3285 36.0434 19.6051 35.9608C19.7157 35.9332 19.854 35.8781 19.9923 35.8505C18.9966 35.0514 18.0563 34.2522 17.0607 33.4531ZM23.8918 33.4807C22.9238 34.2522 21.9559 35.0514 21.0155 35.8505C21.0432 35.8781 21.0432 35.8781 21.0432 35.8781C21.4304 35.9883 21.8452 36.1261 22.2324 36.2363C22.2601 36.2363 22.343 36.1812 22.3707 36.1536C22.8409 35.3821 23.2833 34.5829 23.7535 33.7838C23.7812 33.6735 23.8365 33.5909 23.8918 33.4807ZM9.56588 28.6858C10.4785 28.9889 11.4188 29.2645 12.3315 29.5676V29.5401C11.3912 28.7685 10.4509 27.9693 9.48291 27.1702C9.51057 27.6938 9.53822 28.1898 9.56588 28.6858ZM31.4696 27.1702C30.5016 27.9693 29.5613 28.7409 28.621 29.5401V29.5676C29.5336 29.292 30.4463 28.9889 31.3866 28.6858C31.4143 28.1898 31.4419 27.6938 31.4696 27.1702ZM17.5309 11.3802C17.4755 11.3527 17.4755 11.3527 17.4479 11.3251C16.5906 10.9669 15.7609 10.6086 14.9035 10.2504C14.8759 10.2228 14.7929 10.278 14.7652 10.3055C14.5163 10.6362 14.2951 10.9393 14.0738 11.27C14.0462 11.2976 14.0462 11.3251 14.0185 11.3527C15.1801 11.3802 16.3416 11.3802 17.5309 11.3802ZM26.934 11.3802C26.934 11.3527 26.9616 11.3527 26.9616 11.3251C26.6851 10.9669 26.4362 10.6086 26.1596 10.278C26.1319 10.2504 26.0766 10.2504 26.0213 10.278C25.3852 10.5535 24.7491 10.8291 24.113 11.1047C23.8918 11.1873 23.6705 11.2976 23.4493 11.3802V11.4078C24.6385 11.3802 25.7724 11.3802 26.934 11.3802ZM29.1465 9.34104C28.6487 10.0575 28.2062 10.774 27.736 11.518C28.1785 11.7109 28.5933 11.9038 29.0358 12.0967C29.0635 11.1598 29.1188 10.2504 29.1465 9.34104ZM11.8613 9.34104C11.8337 9.34104 11.8337 9.34104 11.8613 9.34104C11.8613 10.278 11.9167 11.1873 11.9443 12.1243C12.3868 11.9314 12.8017 11.7385 13.2442 11.5456C12.774 10.774 12.3038 10.0575 11.8613 9.34104ZM20.6837 39.0471C21.1538 38.248 21.5963 37.5039 22.0388 36.7048C21.5687 36.567 21.1262 36.4292 20.6837 36.2914C20.6837 37.2008 20.6837 38.1102 20.6837 39.0471ZM20.2965 39.0195C20.2965 38.0826 20.2965 37.2008 20.2965 36.2914C19.854 36.4292 19.4115 36.567 18.9413 36.7048C19.3838 37.4764 19.8263 38.248 20.2965 39.0195ZM14.4334 10.0575C13.659 9.72683 12.9399 9.42371 12.1932 9.09303V9.12058C12.6357 9.83706 13.1059 10.5535 13.5484 11.2424C13.8526 10.8291 14.1292 10.4433 14.4334 10.0575ZM26.5191 10.0575C26.8233 10.4709 27.1276 10.8567 27.4318 11.2424C27.8743 10.5535 28.3168 9.83706 28.7869 9.12058V9.09303C28.0402 9.39615 27.2935 9.72683 26.5191 10.0575ZM32.7418 25.2137C32.4929 25.6546 32.244 26.0955 31.995 26.5364C32.7418 26.8119 33.4885 27.0875 34.2075 27.3631V27.3355C33.7374 26.619 33.2672 25.9301 32.7418 25.2137ZM8.95744 26.5364C8.70854 26.0679 8.45963 25.6546 8.21073 25.2137C7.71291 25.9301 7.2151 26.6466 6.71729 27.3355V27.3631C7.49166 27.0875 8.21073 26.8119 8.95744 26.5364ZM34.0416 27.8591V27.8315C33.3225 27.556 32.6035 27.308 31.8568 27.0324C31.8291 27.556 31.8015 28.052 31.7738 28.5756C32.5482 28.3276 33.2949 28.0796 34.0416 27.8591ZM9.17869 28.5756C9.15104 28.052 9.12338 27.556 9.09572 27.0324C8.34901 27.308 7.62995 27.5835 6.91089 27.8315V27.8591C7.6576 28.0796 8.40432 28.3276 9.17869 28.5756ZM39.3239 23.3398C38.9368 23.7256 38.5496 24.1114 38.19 24.5247C38.1624 24.5523 38.1624 24.635 38.1624 24.6901C38.19 25.2688 38.2177 25.8475 38.2453 26.3986C38.2453 26.5639 38.273 26.7568 38.273 26.9222H38.3007C38.6602 25.7648 38.9921 24.5523 39.3239 23.3398ZM2.67949 27.0048C2.67949 26.9497 2.70714 26.9222 2.70714 26.8946C2.7348 26.1506 2.79011 25.4066 2.81777 24.6625C2.81777 24.6074 2.79011 24.5247 2.76246 24.4972C2.43058 24.1114 2.07105 23.7532 1.71152 23.3674C1.71152 23.3674 1.68387 23.3398 1.65621 23.3123C1.98808 24.5523 2.31996 25.7648 2.67949 27.0048ZM37.1944 30.9179C37.1668 30.9179 37.1668 30.9179 37.1944 30.9179C36.8072 31.3863 36.4754 31.9099 36.1158 32.3784C35.9222 32.654 35.8393 32.8744 35.9222 33.2602C36.0052 33.6735 36.0605 34.1145 36.1435 34.5829C36.503 33.3429 36.8349 32.1304 37.1944 30.9179ZM4.83667 34.5829C4.86433 34.5003 4.86433 34.4727 4.86433 34.4176C4.9473 33.894 5.03026 33.398 5.11323 32.8744C5.14089 32.7642 5.11323 32.7091 5.05792 32.654C4.67073 32.1028 4.28355 31.5517 3.89636 31.0006C3.8687 30.973 3.84105 30.9454 3.81339 30.9179C3.81339 30.9179 3.78574 30.9179 3.78574 30.9454C4.14527 32.1579 4.47714 33.3429 4.83667 34.5829ZM13.9909 2.36921C13.9909 2.34165 13.9909 2.34165 13.9909 2.36921C13.1059 3.05812 12.2485 3.77459 11.3912 4.49107C12.0273 4.32573 12.6357 4.13283 13.2718 3.93993C13.3271 3.93993 13.3548 3.85726 13.3824 3.80215C13.5484 3.41636 13.7143 3.00301 13.8802 2.61721C13.9356 2.53454 13.9632 2.45188 13.9909 2.36921ZM26.9893 2.34165C26.9893 2.39676 27.0169 2.45188 27.0169 2.47943C27.2105 2.92034 27.3765 3.36124 27.5701 3.80215C27.5977 3.91238 27.653 3.93993 27.736 3.96749C28.0679 4.05016 28.3721 4.16039 28.704 4.27061C28.9805 4.35328 29.2847 4.43595 29.5613 4.51862V4.49107C28.7316 3.77459 27.8466 3.05812 26.9893 2.34165ZM35.2308 9.20325V9.1757C34.3735 8.45922 33.5161 7.74275 32.6588 7.02628C32.9907 7.66008 33.3502 8.29388 33.6821 8.90013C33.7097 8.92769 33.7374 8.95524 33.7927 8.95524C34.2905 9.06547 34.7607 9.14814 35.2308 9.20325ZM8.32135 7.08139C7.43635 7.77031 6.57901 8.48678 5.72167 9.20325C6.21948 9.14814 6.68964 9.09303 7.15979 9.01036C7.18745 9.01036 7.24276 8.9828 7.27042 8.95524C7.62995 8.32144 7.96182 7.68764 8.32135 7.08139ZM3.70277 16.3129C3.95167 16.7538 4.17292 17.1671 4.39417 17.5529C4.58777 17.3049 4.78136 17.0569 4.97495 16.8089C4.97495 16.7813 5.00261 16.7538 5.00261 16.7262C5.00261 16.3955 4.97495 16.0649 4.97495 15.7342C4.53245 15.9546 4.11761 16.12 3.70277 16.3129ZM36.586 17.5529C36.8072 17.1671 37.0285 16.7538 37.2774 16.3129C36.8349 16.12 36.4477 15.9271 36.0052 15.7342C35.9775 16.0924 35.9775 16.3955 35.9775 16.7262C35.9775 16.7538 35.9775 16.7813 36.0052 16.8089C36.1711 17.0845 36.3647 17.3049 36.586 17.5529ZM21.3474 3.55414C21.0432 3.16835 20.7666 2.78255 20.4901 2.45187C20.2135 2.81011 19.937 3.16835 19.6327 3.55414C19.9093 3.69192 20.1859 3.80215 20.4624 3.91238C20.4901 3.91238 20.5177 3.91238 20.5454 3.91238C20.7943 3.80215 21.0432 3.69192 21.3474 3.55414ZM30.9441 37.311C30.6399 37.3937 30.3633 37.4764 30.0868 37.5866C30.0591 37.5866 30.0315 37.6142 30.0038 37.6417C29.8655 37.8897 29.7272 38.1377 29.5613 38.4133C30.0038 38.5511 30.4463 38.6613 30.8611 38.7991C30.8888 38.3031 30.9165 37.807 30.9441 37.311ZM11.4188 38.4133C11.2529 38.1377 11.1146 37.8897 10.9763 37.6417C10.9487 37.6142 10.921 37.5866 10.921 37.5866C10.6445 37.5039 10.3403 37.3937 10.036 37.311C10.0637 37.807 10.0913 38.3031 10.119 38.7991C10.5338 38.6613 10.9763 38.5511 11.4188 38.4133ZM15.429 43.1806V43.2082C16.4523 43.2082 17.4755 43.2082 18.5265 43.2082C18.4988 43.1806 18.4988 43.1806 18.4988 43.1806C17.918 42.9326 17.3373 42.657 16.7565 42.409C16.7288 42.409 16.7012 42.409 16.6735 42.409C16.2587 42.657 15.8438 42.905 15.429 43.1806ZM25.5512 43.2082V43.1806C25.1363 42.9326 24.7215 42.657 24.3066 42.409C24.279 42.3815 24.2237 42.409 24.1683 42.409C23.7535 42.6019 23.3387 42.7672 22.9238 42.9601C22.7579 43.0428 22.6196 43.0979 22.4537 43.1806V43.2082C23.4769 43.2082 24.5279 43.2082 25.5512 43.2082ZM1.8498 21.2179C1.87746 21.1904 1.87746 21.1904 1.90512 21.1904C2.26465 20.6668 2.65183 20.1432 3.01136 19.6197C3.03902 19.5645 3.06668 19.4819 3.06668 19.4268C3.09433 19.0961 3.09433 18.7654 3.12199 18.4347C3.12199 18.1592 3.14964 17.9112 3.14964 17.6356H3.12199C2.70714 18.8205 2.2923 20.0055 1.8498 21.2179ZM39.075 21.2179C39.1027 21.1904 39.1027 21.1904 39.075 21.2179C38.6878 20.0055 38.273 18.8205 37.8305 17.608C37.8305 18.2418 37.8582 18.8756 37.8858 19.4819C37.8858 19.537 37.9135 19.5921 37.9135 19.6197C38.3283 20.1432 38.7155 20.6668 39.075 21.2179ZM36.2264 11.1047C36.1711 11.7936 36.1435 12.4549 36.1158 13.1163C36.1158 13.1714 36.1435 13.2541 36.1711 13.2816C36.4477 13.7777 36.7243 14.2737 37.0008 14.7697C37.0285 14.7972 37.0285 14.8248 37.0561 14.8524C37.0561 14.8524 37.0561 14.8524 37.0838 14.8248C36.7796 13.5848 36.503 12.3447 36.2264 11.1047ZM4.7537 11.1047C4.44948 12.3447 4.17292 13.5848 3.89636 14.8524C3.92402 14.8524 3.92402 14.8524 3.92402 14.8248C4.22824 14.3012 4.53245 13.7777 4.80902 13.2541C4.83667 13.2265 4.83667 13.1714 4.83667 13.1163C4.83667 12.4549 4.78136 11.766 4.7537 11.1047ZM29.8655 39.9014C29.8379 39.9014 29.8102 39.9014 29.8102 39.9014C29.3401 40.1218 28.8422 40.3147 28.3721 40.5352C28.3444 40.5627 28.2891 40.5903 28.2615 40.6454C27.9849 41.1414 27.7083 41.6374 27.4041 42.1334C27.3765 42.161 27.3765 42.2161 27.3488 42.2437C27.3488 42.2437 27.3488 42.2437 27.3765 42.2712C28.2062 41.4996 29.0358 40.7005 29.8655 39.9014ZM13.6037 42.2988C13.6037 42.2712 13.6037 42.2712 13.6037 42.2988C13.4101 41.9405 13.2165 41.6099 13.0229 41.2241C12.8017 40.7556 12.4974 40.4249 12.0826 40.3423C12.0273 40.3423 11.972 40.2871 11.889 40.2596C11.6401 40.1494 11.3635 40.0391 11.1146 39.9289V39.9565C11.9443 40.7281 12.774 41.4996 13.6037 42.2988ZM34.733 36.1812C34.7054 36.1536 34.733 36.1536 34.733 36.1812C34.7054 36.1536 34.7054 36.1536 34.7054 36.1536C34.1799 36.319 33.6821 36.4843 33.1566 36.6497C33.1013 36.6772 33.046 36.7048 33.0183 36.7599C32.7418 37.1181 32.4929 37.5039 32.2163 37.8622C32.161 37.9173 32.1057 37.9724 32.0504 38.0551C32.0504 38.0826 32.078 38.0826 32.078 38.1102C32.963 37.4488 33.848 36.815 34.733 36.1812ZM8.90213 38.0826C8.90213 38.0826 8.90213 38.0551 8.92979 38.0551C8.59791 37.5866 8.26604 37.1457 7.96182 36.6772C7.93416 36.6497 7.87885 36.6221 7.8512 36.6221C7.49166 36.5119 7.15979 36.4017 6.80026 36.2914C6.63432 36.2363 6.44073 36.1812 6.27479 36.1261V36.1536C7.13213 36.815 8.01713 37.4488 8.90213 38.0826ZM24.9704 1.98341V1.95586C23.9471 2.03853 22.9515 2.09364 21.9282 2.17631C21.9559 2.20387 21.9835 2.23142 22.0112 2.23142C22.343 2.34165 22.6749 2.42432 23.0068 2.53454C23.2833 2.64477 23.5323 2.61721 23.7812 2.47943C24.196 2.31409 24.5832 2.14875 24.9704 1.98341ZM19.052 2.20387C18.0287 2.09364 17.033 2.03853 15.9821 1.95586C16.0374 1.98341 16.0374 1.98341 16.0374 2.01097C16.5076 2.23142 17.0054 2.42432 17.4755 2.64477C17.5032 2.67233 17.5585 2.67233 17.6138 2.64477C17.8904 2.5621 18.167 2.47943 18.4435 2.39676C18.6648 2.31409 18.8584 2.25898 19.052 2.20387ZM36.7796 17.9938C37.0285 18.2969 37.2774 18.6001 37.4986 18.8756C37.471 18.2694 37.4433 17.608 37.4157 16.9467H37.388C37.1944 17.2773 37.0008 17.608 36.7796 17.9938ZM3.59214 16.9191H3.56449C3.53683 17.5805 3.50917 18.2418 3.48152 18.8481C3.70277 18.5725 3.95167 18.2694 4.20058 17.9663C3.97933 17.608 3.78574 17.2773 3.59214 16.9191ZM36.0882 13.9706C36.0605 14.4115 36.0605 14.7973 36.0329 15.183C36.0329 15.2106 36.0605 15.2382 36.0882 15.2657C36.3924 15.4035 36.7243 15.5413 37.0561 15.7066C36.7243 15.1004 36.42 14.5768 36.0882 13.9706ZM4.89198 13.9706C4.56011 14.5492 4.25589 15.1004 3.92402 15.6791C4.28355 15.5137 4.58777 15.3759 4.89198 15.2382C4.91964 15.2382 4.9473 15.183 4.9473 15.1555C4.91964 14.7973 4.91964 14.4115 4.89198 13.9706ZM31.276 38.4409C31.6632 37.9173 32.0227 37.3937 32.3822 36.8977C32.0504 36.9804 31.7185 37.063 31.4143 37.1732C31.3866 37.1732 31.359 37.2284 31.359 37.2559C31.3036 37.6142 31.3036 37.9999 31.276 38.4409ZM9.70416 38.3031C9.6765 37.9999 9.6765 37.6142 9.64885 37.2284C9.64885 37.2008 9.62119 37.1732 9.59354 37.1732C9.26166 37.063 8.95744 36.9804 8.62557 36.8701C8.62557 36.8701 8.62557 36.8977 8.59791 36.8977C8.95744 37.3661 9.34463 37.8346 9.70416 38.3031ZM30.2804 39.1849V39.1573C29.9761 39.0747 29.6719 38.9644 29.3401 38.8818C29.3124 38.8818 29.2847 38.8818 29.2571 38.9093C29.0635 39.2124 28.8976 39.5156 28.7316 39.8462C28.7316 39.8462 28.7316 39.8738 28.7593 39.8738C29.2571 39.6258 29.7826 39.4053 30.2804 39.1849ZM22.6749 2.97545V2.94789C22.1494 2.78255 21.624 2.61721 21.0709 2.47943C21.0709 2.50699 21.0432 2.50699 21.0432 2.53454C21.2644 2.81011 21.458 3.08568 21.6793 3.36124C21.7069 3.3888 21.7346 3.3888 21.7623 3.3888C22.0941 3.25102 22.3707 3.11323 22.6749 2.97545ZM12.2485 39.8738C12.1379 39.6533 12.0273 39.488 11.9443 39.3227C11.8613 39.1849 11.7784 38.9644 11.6677 38.9093C11.5571 38.8542 11.3912 38.9644 11.2529 38.992C11.0593 39.0471 10.8657 39.1022 10.6998 39.1573V39.1849C11.1976 39.4053 11.6954 39.6258 12.2485 39.8738ZM18.2776 2.94789V2.97545C18.5818 3.11323 18.886 3.25102 19.1626 3.36124C19.1902 3.36124 19.2179 3.36124 19.2455 3.33369C19.4668 3.05812 19.6604 2.78255 19.8816 2.50699C19.8816 2.50699 19.854 2.47943 19.854 2.45187C19.3562 2.61721 18.8307 2.78255 18.2776 2.94789ZM35.7839 18.9307C35.9775 18.6276 36.1711 18.3245 36.3371 17.9938C36.1988 17.8009 36.0605 17.6356 35.8946 17.4427C35.8669 17.9387 35.8116 18.4347 35.7839 18.9307ZM5.16855 18.9583C5.14089 18.4347 5.11323 17.9387 5.05792 17.4702C4.91964 17.6356 4.78136 17.8285 4.61542 17.9938C4.80902 18.3245 5.00261 18.6276 5.16855 18.9583ZM9.98072 35.7127H9.95307C9.98072 36.0434 9.98072 36.3741 10.0084 36.7048C10.0084 36.7323 10.036 36.7599 10.036 36.7875C10.2296 36.8426 10.3956 36.8977 10.6168 36.9804C10.3956 36.5394 10.1743 36.1261 9.98072 35.7127ZM31.0271 35.7403H30.9994C30.7782 36.1536 30.5846 36.5394 30.3633 36.9804C30.5846 36.9252 30.7505 36.8701 30.9165 36.815C30.9441 36.815 30.9718 36.7599 30.9718 36.7323C30.9994 36.4017 30.9994 36.071 31.0271 35.7403ZM5.36214 16.3129C5.6387 15.9271 5.91526 15.5964 6.19182 15.2382C5.91526 15.3208 5.6387 15.4311 5.3898 15.5688C5.36214 15.5688 5.33448 15.6515 5.33448 15.6791C5.33448 15.872 5.36214 16.0649 5.36214 16.3129ZM35.5904 16.3129C35.5904 16.0924 35.618 15.8995 35.618 15.7066C35.618 15.624 35.5904 15.5688 35.535 15.5688C35.3138 15.4862 35.1202 15.3759 34.8989 15.2933C34.8713 15.2657 34.816 15.2657 34.7607 15.2382V15.2657C35.0372 15.5964 35.3138 15.9271 35.5904 16.3129ZM19.937 4.2155C19.7434 4.13283 19.5774 4.05016 19.3838 3.99505C19.3562 3.99505 19.3285 3.99505 19.3285 4.0226C19.1349 4.27061 18.969 4.49107 18.7754 4.73908C18.7754 4.76663 18.803 4.76663 18.803 4.79419C19.1626 4.57374 19.5221 4.4084 19.937 4.2155ZM22.1771 4.76663C22.1771 4.73908 22.2048 4.73908 22.2048 4.71152C22.0112 4.49107 21.8452 4.24306 21.6793 4.0226C21.6516 3.99505 21.624 3.96749 21.5963 3.99505C21.4304 4.05016 21.2644 4.13283 21.0709 4.2155C21.4304 4.4084 21.7899 4.57374 22.1771 4.76663ZM29.506 37.7244C29.0911 37.8346 28.704 37.9173 28.3444 38.0275C28.621 38.1377 28.8699 38.2204 29.1465 38.2755C29.1741 38.2755 29.2294 38.248 29.2294 38.2204C29.3124 38.0826 29.3954 37.9173 29.506 37.7244ZM11.4742 37.7244C11.5848 37.9173 11.6677 38.0826 11.7784 38.248C11.806 38.2755 11.8337 38.2755 11.8613 38.2755C12.1379 38.1928 12.3868 38.1102 12.6634 38.0551V38.0275C12.2762 37.9173 11.889 37.8346 11.4742 37.7244ZM29.3124 19.0134C29.2571 18.8481 29.2294 18.7103 29.2018 18.5725H29.1741C29.1741 18.7379 29.1741 18.8756 29.1741 19.041C29.2018 19.041 29.2571 19.0134 29.3124 19.0134ZM11.806 19.0685C11.806 18.9032 11.806 18.7379 11.806 18.6001H11.7784C11.7507 18.7379 11.6954 18.8756 11.6677 19.041C11.7231 19.0134 11.7784 19.041 11.806 19.0685ZM11.5295 19.4543C11.4742 19.5921 11.4465 19.7299 11.4188 19.8677C11.4188 19.8677 11.4188 19.8677 11.4465 19.8952C11.5295 19.785 11.6124 19.6472 11.6954 19.537C11.6401 19.5094 11.5848 19.4819 11.5295 19.4543ZM29.2847 19.5094C29.3677 19.6472 29.4507 19.7574 29.5336 19.8952C29.5336 19.8952 29.5336 19.8952 29.5613 19.8952C29.5336 19.7574 29.4783 19.6197 29.4507 19.4819C29.3677 19.4819 29.3401 19.4819 29.2847 19.5094ZM15.4566 31.4966C15.4013 31.3588 15.346 31.221 15.2631 31.0832C15.2354 31.1383 15.2077 31.1935 15.1801 31.2486C15.2631 31.3588 15.346 31.4415 15.4566 31.4966ZM25.7171 31.1108C25.6341 31.2486 25.5788 31.3588 25.4958 31.4966C25.4958 31.4966 25.4958 31.5241 25.5235 31.5241C25.6341 31.4415 25.7171 31.3588 25.8277 31.2761C25.7724 31.1935 25.7448 31.1659 25.7171 31.1108ZM14.9312 30.8903C14.8206 30.8628 14.7376 30.8352 14.627 30.8077C14.7929 31.0281 14.8482 31.0281 14.9312 30.8903ZM26.3532 30.7801C26.2426 30.8077 26.1319 30.8352 26.049 30.8628C26.1319 31.0281 26.1596 31.0281 26.3532 30.7801ZM20.6837 12.0416C20.7666 12.014 20.8496 11.9865 20.9602 11.9314C20.7113 11.8762 20.6837 11.8762 20.6837 12.0416ZM20.2965 12.0416C20.2965 11.8762 20.2412 11.8487 20.0476 11.9314C20.1305 11.9589 20.2135 12.014 20.2965 12.0416Z" fill="#FFA700"/>
<path d="M52.903 12.8407H49.3906V10.1953H58.0747C58.6278 10.1953 59.0426 10.6362 59.0426 11.1598V12.8132H55.5303V21.2731H52.8753V12.8407H52.903Z" fill="white"/>
<path d="M71.2115 15.7615C71.2115 18.8203 68.7225 21.3004 65.6526 21.3004C62.5828 21.3004 60.0938 18.8203 60.0938 15.7615C60.0938 12.7028 62.5828 10.2227 65.6526 10.2227C68.7225 10.2227 71.2115 12.7028 71.2115 15.7615ZM68.5565 15.7615C68.5565 14.1633 67.2567 12.8681 65.6526 12.8681C64.0486 12.8681 62.7487 14.1633 62.7487 15.7615C62.7487 17.3598 64.0486 18.655 65.6526 18.655C67.2567 18.655 68.5565 17.3598 68.5565 15.7615Z" fill="white"/>
<path d="M72.9573 10.2229H75.3358C75.4464 10.2229 75.5294 10.278 75.6123 10.3607L78.6269 13.8328L81.5861 10.3331C81.669 10.2504 81.752 10.1953 81.8626 10.1953H84.2134V21.2731H81.5861V14.3564L80.3415 15.8169L79.3183 16.9742C78.9311 17.4152 78.2397 17.4152 77.8525 16.9742L75.5847 14.3288V21.2455H72.9297V10.2229H72.9573Z" fill="white"/>
<path d="M91.1797 10.2227H92.8667C93.4198 10.2227 93.8347 10.6636 93.8347 11.1871V14.4388H98.149V10.2227H99.8361C100.362 10.2227 100.804 10.6636 100.804 11.1871V21.3004H98.149V17.0843H93.8347V21.3004H91.1797V10.2227Z" fill="white"/>
<path d="M113.665 15.7615C113.665 18.8203 111.176 21.3004 108.106 21.3004C105.036 21.3004 102.547 18.8203 102.547 15.7615C102.547 12.7028 105.036 10.2227 108.106 10.2227C111.176 10.2227 113.665 12.7028 113.665 15.7615ZM111.01 15.7615C111.01 14.1633 109.71 12.8681 108.106 12.8681C106.502 12.8681 105.202 14.1633 105.202 15.7615C105.202 17.3598 106.502 18.655 108.106 18.655C109.71 18.655 111.01 17.3598 111.01 15.7615Z" fill="white"/>
<path d="M115.41 16.616C115.41 16.0924 115.853 15.6515 116.378 15.6515H119.559C120.361 15.6515 120.997 14.9902 120.969 14.191C120.942 13.4194 120.278 12.8407 119.531 12.8407H115.41V10.1953H119.504C121.716 10.1953 123.624 11.9865 123.597 14.2186C123.597 15.8169 122.656 17.1947 121.274 17.8285L124.731 21.3006H121.052L118.038 18.297V21.3006H115.383V16.616H115.41Z" fill="white"/>
<path d="M126.109 10.2227H128.184C128.46 10.2227 128.737 10.3604 128.93 10.5533L134.766 17.3047V10.2227H136.425C136.978 10.2227 137.393 10.6636 137.393 11.1871V21.3004H134.71L128.737 14.3837V21.3004H126.109V10.2227Z" fill="white"/>
<path d="M51.5503 34.9692C51.495 34.9417 51.4397 34.9417 51.3844 34.9141C51.3291 34.8866 51.2737 34.859 51.2184 34.859L51.1078 34.8039L50.8866 34.6937C50.8589 34.6661 50.8036 34.6386 50.7759 34.611C50.693 34.5559 50.6377 34.5008 50.5823 34.4732C50.4441 34.363 50.3058 34.2528 50.1952 34.1425C49.5591 33.5087 49.1719 32.6269 49.1719 31.6349C49.1719 30.6704 49.5591 29.7886 50.1952 29.1272C50.3058 29.017 50.4441 28.9068 50.5823 28.7966C50.6377 28.7414 50.7206 28.6863 50.7759 28.6588C50.9142 28.5485 51.0802 28.4934 51.2184 28.4108C51.2737 28.3832 51.3291 28.3556 51.3844 28.3281L51.5503 28.273C51.9098 28.1627 52.297 28.0801 52.6842 28.0801C53.0714 28.0801 53.4586 28.1352 53.8181 28.273L53.984 28.3281C54.0394 28.3556 54.0947 28.3832 54.15 28.4108C54.3159 28.4934 54.4542 28.5485 54.5925 28.6588C54.6755 28.7139 54.7308 28.7414 54.8137 28.7966C54.952 28.9068 55.0903 29.017 55.2009 29.1272L54.0117 30.3122C53.9287 30.2295 53.8458 30.1468 53.7351 30.0917C53.7075 30.0642 53.6798 30.0642 53.6522 30.0366L53.5969 30.009L53.5139 29.9539C53.4586 29.9264 53.4033 29.8988 53.3756 29.8988L53.2926 29.8713C53.265 29.8713 53.265 29.8437 53.2373 29.8437C53.2097 29.8437 53.2097 29.8437 53.2097 29.8161C53.182 29.8161 53.1544 29.8161 53.1544 29.7886C53.0161 29.761 52.8501 29.7335 52.6842 29.7335C52.5183 29.7335 52.3523 29.761 52.2141 29.7886C52.1864 29.7886 52.1587 29.8161 52.1311 29.8161L52.1034 29.8437C52.0758 29.8437 52.0481 29.8437 52.0481 29.8713L51.9651 29.8988C51.9098 29.9264 51.8545 29.9264 51.8269 29.9539L51.7716 29.9815L51.7439 30.009L51.7162 30.0366C51.6886 30.0366 51.6609 30.0642 51.6609 30.0917L51.578 30.1468C51.5503 30.1744 51.5226 30.2019 51.495 30.2019C51.1078 30.5326 50.8589 31.0286 50.8589 31.6073C50.8589 32.1585 51.1078 32.6545 51.495 33.0127C51.5226 33.0403 51.5503 33.0678 51.578 33.0954L51.6056 33.1229L51.6886 33.1781C51.7439 33.2332 51.8269 33.2607 51.8822 33.2883C51.9375 33.3158 51.9652 33.3434 52.0205 33.371C52.1034 33.3985 52.1587 33.4261 52.2417 33.4536C52.38 33.4812 52.5459 33.5087 52.7119 33.5087C52.8778 33.5087 53.0437 33.4812 53.182 33.4536C53.265 33.4261 53.3203 33.3985 53.4033 33.371C53.4586 33.3434 53.5139 33.3158 53.5416 33.2883C53.6245 33.2607 53.6798 33.2056 53.7351 33.1781L53.8734 33.0678L54.0117 32.9576V31.6624H55.0626C55.3945 31.6624 55.6711 31.938 55.6711 32.2687V32.93C55.6711 33.371 55.5051 33.8119 55.1733 34.1425C55.0626 34.2528 54.9244 34.363 54.7861 34.4732L54.5648 34.611L54.4542 34.6661C54.3712 34.7212 54.3159 34.7488 54.233 34.7763C54.2053 34.8039 54.15 34.8315 54.1223 34.8315L53.984 34.8866H53.9564C53.9011 34.9141 53.8458 34.9417 53.7905 34.9417C53.4309 35.0519 53.0437 35.1346 52.6566 35.1346C52.2694 35.1346 51.9098 35.0795 51.5503 34.9692Z" fill="white"/>
<path d="M59.2381 28.4932C59.3487 28.2728 59.57 28.1074 59.8189 28.1074C60.0678 28.1074 60.2891 28.2452 60.372 28.4657L63.4972 35.1344H63.4695H61.7272L61.0358 33.6739H58.5191L57.8277 35.1344H56.1406L59.2381 28.4932ZM60.3444 32.1031L59.8189 30.9733L59.2934 32.1031H60.3444Z" fill="white"/>
<path d="M64.4105 28.1074H65.9316C65.9869 28.1074 66.0422 28.135 66.0975 28.1901L68.0058 30.3946L69.914 28.1901C69.9694 28.135 70.0247 28.1074 70.08 28.1074H71.5734V35.1619H69.8864V30.7529L69.0844 31.6898L68.4483 32.4338C68.1994 32.7094 67.7569 32.7094 67.508 32.4338L66.0698 30.7529V35.1619H64.3828V28.1074H64.4105Z" fill="white"/>
<path d="M72.8984 28.1074H73.977C74.3089 28.1074 74.5855 28.383 74.5855 28.7137V35.1344H72.8984V28.1074Z" fill="white"/>
<path d="M75.9183 28.1074H77.2458C77.4117 28.1074 77.6053 28.1901 77.7159 28.3279L81.4219 32.6267V28.1074H82.4728C82.8047 28.1074 83.0812 28.383 83.0812 28.7137V35.1344H81.3942L77.5777 30.7253V35.1344H75.8906V28.1074H75.9183Z" fill="white"/>
<path d="M86.6206 34.9692C86.5653 34.9417 86.51 34.9417 86.4547 34.9141C86.3994 34.8866 86.3441 34.859 86.2887 34.859L86.1781 34.8039L85.9569 34.6937C85.9292 34.6661 85.8739 34.6386 85.8462 34.611C85.7633 34.5559 85.708 34.5008 85.6527 34.4732C85.5144 34.363 85.3761 34.2528 85.2655 34.1425C84.6294 33.5087 84.2422 32.6269 84.2422 31.6349C84.2422 30.6704 84.6294 29.7886 85.2655 29.1272C85.3761 29.017 85.5144 28.9068 85.6527 28.7966C85.708 28.7414 85.7909 28.6863 85.8462 28.6588C85.9845 28.5485 86.1505 28.4934 86.2887 28.4108C86.3441 28.3832 86.3994 28.3556 86.4547 28.3281L86.6206 28.273C86.9802 28.1627 87.3673 28.0801 87.7545 28.0801C88.1417 28.0801 88.5289 28.1352 88.8884 28.273L89.0544 28.3281C89.1097 28.3556 89.165 28.3832 89.2203 28.4108C89.3862 28.4934 89.5245 28.5485 89.6628 28.6588C89.7458 28.7139 89.8011 28.7414 89.884 28.7966C90.0223 28.9068 90.1606 29.017 90.2712 29.1272L89.082 30.3122C88.9991 30.2295 88.9161 30.1468 88.8055 30.0917C88.7778 30.0642 88.7501 30.0642 88.7225 30.0366L88.6672 30.009L88.5842 29.9539C88.5289 29.9264 88.4736 29.8988 88.4459 29.8988L88.363 29.8713C88.3353 29.8713 88.3353 29.8437 88.3076 29.8437C88.28 29.8437 88.28 29.8437 88.28 29.8161C88.2523 29.8161 88.2247 29.8161 88.2247 29.7886C88.0864 29.761 87.9205 29.7335 87.7545 29.7335C87.5886 29.7335 87.4226 29.761 87.2844 29.7886C87.2567 29.7886 87.2291 29.8161 87.2014 29.8161L87.1737 29.8437C87.1461 29.8437 87.1184 29.8437 87.1184 29.8713L87.0355 29.8988C86.9802 29.9264 86.9248 29.9264 86.8972 29.9539L86.8419 29.9815L86.8142 30.009L86.7589 30.0366C86.7312 30.0366 86.7036 30.0642 86.7036 30.0917L86.6206 30.1468C86.593 30.1744 86.5653 30.2019 86.5376 30.2019C86.1505 30.5326 85.9016 31.0286 85.9016 31.6073C85.9016 32.1585 86.1505 32.6545 86.5376 33.0127C86.5653 33.0403 86.593 33.0678 86.6206 33.0954L86.6483 33.1229L86.7312 33.1781C86.7866 33.2332 86.8695 33.2607 86.9248 33.2883C86.9801 33.3158 87.0078 33.3434 87.0631 33.371C87.1461 33.3985 87.2014 33.4261 87.2844 33.4536C87.4226 33.4812 87.5886 33.5087 87.7545 33.5087C87.9205 33.5087 88.0864 33.4812 88.2247 33.4536C88.3076 33.4261 88.363 33.3985 88.4459 33.371C88.5012 33.3434 88.5565 33.3158 88.5842 33.2883C88.6672 33.2607 88.7225 33.2056 88.7778 33.1781L88.9161 33.0678L89.0544 32.9576V31.6624H90.1053C90.4372 31.6624 90.7137 31.938 90.7137 32.2687V32.93C90.7137 33.371 90.5478 33.8119 90.2159 34.1425C90.1053 34.2528 89.967 34.363 89.8287 34.4732L89.6075 34.611L89.4969 34.6661C89.4139 34.7212 89.3586 34.7488 89.2756 34.7763C89.248 34.8039 89.1926 34.8315 89.165 34.8315L89.0267 34.8866H89.0544C88.9991 34.9141 88.9437 34.9417 88.8884 34.9417C88.5289 35.0519 88.1417 35.1346 87.7545 35.1346C87.3673 35.1346 86.9802 35.0795 86.6206 34.9692Z" fill="white"/>
</svg>
