<svg width="86" height="43" viewBox="0 0 86 43" fill="none" xmlns="http://www.w3.org/2000/svg">
<path d="M26.5797 13.6973C26.5797 17.5549 26.5797 21.4982 26.5797 25.3558C26.5797 26.0416 26.2346 26.5559 25.6307 26.8131C25.0268 27.0703 24.5091 26.8988 24.0777 26.3845C21.3168 23.6413 18.4697 20.8981 15.7089 18.0693C12.5166 14.8975 9.32437 11.7257 6.13213 8.55392C4.23404 6.66799 2.42222 4.78207 0.524132 2.98187C-0.25236 2.21036 -0.166083 1.01022 0.782962 0.581604C1.04179 0.410156 1.3869 0.410156 1.73201 0.410156C9.41065 0.410156 17.0893 0.410156 24.7679 0.410156C25.5444 0.410156 26.1484 0.581604 26.4072 1.35312C26.4935 1.52457 26.4935 1.69601 26.4935 1.86746C26.5797 5.81075 26.5797 9.75405 26.5797 13.6973Z" fill="white"/>
<path d="M71.9582 0.40625C75.9269 0.40625 79.8956 0.40625 83.9507 0.40625C84.5546 0.40625 84.986 0.834869 85.1585 1.34921C85.3311 1.77783 85.2457 2.46362 84.8143 2.80651C83.2604 4.43527 81.6229 5.97829 80.0691 7.60705C78.2564 9.40724 76.4463 11.2074 74.6328 13.0076C71.4405 16.1794 68.2483 19.3512 65.1423 22.523C63.8481 23.8088 62.6403 25.009 61.4324 26.2948C61.2598 26.4663 61.1736 26.5529 61.001 26.6377C60.052 27.2378 58.8441 26.6377 58.7578 25.5233C58.7578 25.2661 58.7578 25.0947 58.7578 24.8375C58.7578 17.2081 58.7578 9.66442 58.7578 2.03329C58.7578 1.69039 58.8441 1.3475 59.0166 1.09033C59.2755 0.663421 59.7069 0.491974 60.2245 0.491974C64.107 0.491974 68.0757 0.491974 71.9582 0.40625C71.9582 0.491974 71.9582 0.491974 71.9582 0.40625Z" fill="white"/>
<path d="M42.63 0.407159C46.5988 0.407159 50.6538 0.407159 54.6225 0.407159C55.1402 0.407159 55.7441 0.921501 55.9167 1.43584C56.003 1.95019 55.9167 2.46453 55.4853 2.89315C53.1558 5.20769 50.9118 7.52223 48.5831 9.75105C44.9595 13.3514 41.3359 16.9518 37.7123 20.5522C35.8142 22.4382 33.9161 24.4098 32.018 26.2957C31.4141 26.8958 30.8964 26.9824 30.2925 26.7243C29.6885 26.4672 29.4297 26.0386 29.4297 25.4385C29.4297 25.1813 29.4297 24.9242 29.4297 24.6687C29.4297 17.125 29.4297 9.49559 29.4297 1.9519C29.4297 1.09466 29.9473 0.323149 30.9827 0.408873C34.8651 0.492882 38.7476 0.492882 42.63 0.407159C42.63 0.492882 42.63 0.407159 42.63 0.407159Z" fill="white"/>
<path d="M31.5866 38.2112C31.6729 38.1255 31.6729 38.0397 31.7592 37.954C32.3631 36.6681 33.0533 35.468 33.6572 34.1822C33.7435 34.0107 33.8298 33.925 34.0886 33.925C34.2612 33.925 34.4337 33.925 34.6063 33.925C34.9514 33.8393 35.2102 34.0107 35.3828 34.3536C35.9004 35.3823 36.4181 36.411 36.9358 37.4397C37.022 37.6977 37.1946 37.9557 37.2809 38.1263H37.3672C37.3672 38.0397 37.3672 37.9557 37.3672 37.8683C37.3672 35.9832 37.3672 34.0981 37.3672 32.2962C37.3672 32.0391 37.4534 32.0391 37.7123 32.0391C38.1436 32.0391 38.6613 32.0391 39.0927 32.0391C39.3515 32.0391 39.5241 32.1256 39.5241 32.382C39.5241 33.4106 39.5241 34.4385 39.5241 35.468C39.5241 37.6977 39.5241 39.9257 39.5241 42.2402C39.5241 42.4974 39.4378 42.5822 39.179 42.5822C38.7476 42.5822 38.2299 42.5822 37.7985 42.5822C37.5397 42.5822 37.4534 42.4956 37.3672 42.3242C36.5044 40.6097 35.6416 38.9827 34.7789 37.2682C34.6926 37.1808 34.6063 37.0968 34.52 37.0102C34.4337 37.0968 34.4337 37.1808 34.3475 37.2682C33.9161 38.1255 33.4847 39.0684 32.967 39.9256C32.5357 40.6972 32.1905 41.4687 31.7592 42.2402C31.6729 42.4974 31.5003 42.5831 31.1552 42.5831C30.7238 42.5831 30.2062 42.5831 29.7748 42.5831C29.516 42.5831 29.4297 42.4974 29.4297 42.2419C29.4297 38.9835 29.4297 35.7252 29.4297 32.4694C29.4297 32.0408 29.4297 32.0408 29.8611 32.0408C30.2925 32.0408 30.8101 32.0408 31.2415 32.0408C31.5003 32.0408 31.5866 32.1282 31.5866 32.2988C31.5866 32.4694 31.5866 32.7274 31.5866 32.898C31.5866 34.6125 31.5866 36.2412 31.5866 37.9557C31.4141 38.0397 31.5003 38.1255 31.5866 38.2112C31.5003 38.2112 31.5003 38.2112 31.5866 38.2112Z" fill="white"/>
<path d="M83.1722 38.3826C83.1722 38.296 83.1722 38.2112 83.1722 38.2112C83.1722 36.3253 83.1722 34.3536 83.1722 32.4677C83.1722 32.2105 83.2585 32.1256 83.5173 32.1256C84.035 32.1256 84.5518 32.1256 84.9831 32.1256C85.1548 32.1256 85.2428 32.2122 85.2428 32.3837C85.2428 32.6408 85.2428 32.9829 85.2428 33.2409C85.2428 36.2412 85.2428 39.2416 85.2428 42.2419C85.2428 42.5831 85.2428 42.5831 84.8114 42.5831C84.4663 42.5831 84.035 42.5831 83.689 42.5831C83.4293 42.5831 83.3447 42.4974 83.1705 42.3259C81.9635 40.44 80.7547 38.5549 79.6323 36.6682C79.5486 36.5824 79.4623 36.411 79.376 36.2395C79.376 36.411 79.2897 36.411 79.2897 36.4967C79.2897 38.3826 79.2897 40.2686 79.2897 42.2402C79.2897 42.4974 79.2035 42.5822 78.9446 42.5822C78.427 42.5822 77.9956 42.5822 77.4788 42.5822C77.2191 42.5831 77.1328 42.4974 77.1328 42.2402C77.1328 38.9827 77.1328 35.7243 77.1328 32.4677C77.1328 32.0391 77.1328 32.0391 77.5642 32.0391C77.9093 32.0391 78.2544 32.0391 78.5995 32.0391C78.8583 32.0391 78.9438 32.1256 79.1172 32.2962C80.0662 33.8393 81.0153 35.3823 81.9643 36.8396C82.224 37.2682 82.4837 37.6968 82.8271 38.2112C82.9151 38.2969 82.9151 38.3826 82.9151 38.4684C83.0859 38.3826 83.0859 38.3826 83.1722 38.3826Z" fill="white"/>
<path d="M58.6719 37.2682C58.6719 35.6395 58.6719 34.0099 58.6719 32.382C58.6719 32.1248 58.7599 32.0391 59.017 32.0391C60.2249 32.0391 61.4327 32.0391 62.6406 32.0391C63.6759 32.0391 64.625 32.2962 65.4015 33.0677C66.0045 33.6678 66.3505 34.4393 66.4359 35.2966C66.5231 36.5824 66.5231 37.9557 66.4359 39.3256C66.2642 40.7829 65.486 41.8973 64.0193 42.4125C63.6759 42.4974 63.2445 42.5831 62.8994 42.5831C61.6053 42.5831 60.3111 42.5831 59.017 42.5831C58.7582 42.5831 58.6719 42.4974 58.6719 42.2419C58.6719 40.6114 58.6719 38.9827 58.6719 37.2682ZM60.8288 37.3539C60.8288 38.3826 60.8288 39.4113 60.8288 40.44C60.8288 40.698 60.9168 40.7829 61.1739 40.7829C61.519 40.7829 61.8641 40.7829 62.2092 40.7829C62.8132 40.7829 63.3308 40.6972 63.7622 40.1828C64.021 39.8399 64.1936 39.4113 64.1936 38.9827C64.1936 37.8674 64.2799 36.6681 64.1936 35.5537C64.1073 34.4385 63.5034 33.8393 62.2955 33.8393C61.8641 33.8393 61.4327 33.8393 61.0885 33.8393C60.8288 33.8393 60.7425 33.925 60.7425 34.1822C60.8288 35.2966 60.8288 36.3253 60.8288 37.3539Z" fill="white"/>
<path d="M48.5814 42.5833C48.3217 42.5833 48.062 42.5833 47.7186 42.5833C47.4589 42.5833 47.3735 42.4976 47.2872 42.3261C47.1992 41.8975 47.0275 41.4689 46.8558 41.1269C46.6833 40.6982 46.6833 40.6982 46.2519 40.6982C45.3891 40.6982 44.5264 40.6982 43.6636 40.6982C43.4048 40.6982 43.2322 40.7848 43.1451 41.0403C43.0579 41.4689 42.8854 41.8975 42.7137 42.3261C42.6274 42.5833 42.5411 42.669 42.196 42.669C41.6784 42.669 41.1607 42.669 40.5568 42.669C40.2117 42.669 40.2117 42.5824 40.2979 42.3261C40.8156 40.8688 41.3333 39.3258 41.8509 37.8685C42.3686 36.4969 42.8 35.1262 43.3176 33.7537C43.4902 33.3251 43.5773 32.8965 43.749 32.4679C43.8361 32.2107 43.9224 32.125 44.1813 32.125C44.6998 32.125 45.1312 32.125 45.648 32.125C45.9068 32.125 45.9931 32.2107 46.0793 32.3822C46.6833 34.0101 47.2009 35.7245 47.8049 37.3541C48.3225 38.7257 48.7539 40.0973 49.2716 41.4689C49.3579 41.7261 49.4441 41.9841 49.5304 42.2404C49.6167 42.4967 49.5304 42.5824 49.2716 42.5824C49.099 42.5833 48.8402 42.5833 48.5814 42.5833ZM45.044 35.2968C44.9577 35.4682 44.8715 35.5548 44.8715 35.5548C44.5264 36.4969 44.2675 37.5256 43.9224 38.4686C43.8361 38.7257 43.9224 38.8115 44.1813 38.8115C44.7852 38.8115 45.3029 38.8115 45.9068 38.8115C46.1656 38.8115 46.1656 38.64 46.0793 38.4686C45.9068 37.8685 45.648 37.1827 45.4754 36.5826C45.3891 36.154 45.2166 35.7254 45.044 35.2968Z" fill="white"/>
<path d="M75.1573 42.5805C74.8984 42.5805 74.6388 42.5805 74.3808 42.5805C74.1228 42.5805 74.0365 42.4948 73.9494 42.2385C73.8631 41.8099 73.6906 41.3812 73.518 41.0383C73.4317 40.6963 73.2592 40.6097 72.9141 40.6097C72.0513 40.6097 71.1023 40.6097 70.2395 40.6097C69.9807 40.6097 69.8944 40.6963 69.8081 40.9526C69.7218 41.3812 69.463 41.8956 69.3767 42.3242C69.2904 42.4956 69.2042 42.5814 69.0316 42.5814C68.4285 42.5814 67.91 42.5814 67.3061 42.5814C67.0472 42.5814 66.9627 42.4956 67.0473 42.2402C67.4786 41.0401 67.91 39.8391 68.3414 38.6398C68.7728 37.4405 69.2042 36.1547 69.6356 34.9537C69.8944 34.0964 70.2395 33.2392 70.4983 32.382C70.5855 32.1239 70.6709 32.0391 71.0168 32.0391C71.4482 32.0391 71.9668 32.0391 72.3981 32.0391C72.657 32.0391 72.7424 32.1265 72.8295 32.382C73.4335 34.0964 74.0365 35.8109 74.5551 37.4379C75.0736 38.8112 75.505 40.1811 76.0218 41.5535C76.108 41.8116 76.1935 41.9822 76.2806 42.2402C76.3677 42.4974 76.2806 42.5814 76.0218 42.5814C75.6749 42.5805 75.4161 42.5805 75.1573 42.5805ZM71.6199 35.3797C71.4474 35.4654 71.4474 35.5512 71.3611 35.7226C71.1023 36.5798 70.7572 37.5245 70.4983 38.3818C70.412 38.7229 70.412 38.7229 70.7572 38.7229C71.2765 38.7229 71.8796 38.7229 72.3964 38.7229C72.6552 38.7229 72.6552 38.6372 72.6552 38.3818C72.4827 37.7817 72.311 37.2665 72.1376 36.6673C71.965 36.3227 71.7925 35.8083 71.6199 35.3797Z" fill="white"/>
<path d="M53.7568 42.5835C52.7215 42.5835 51.5999 42.5835 50.5645 42.5835C50.2194 42.5835 50.2194 42.4978 50.1332 42.1549C50.0469 41.3833 50.392 40.6976 50.7371 40.0975C51.9432 38.1258 53.0657 36.1533 54.1882 34.1826C54.1882 34.0968 54.2744 34.0111 54.2744 33.9254C54.1882 33.9254 54.1019 33.9254 54.0156 33.9254C52.8077 33.9254 51.5999 33.9254 50.392 33.9254C50.1332 33.9254 50.0469 33.8397 50.0469 33.5825C50.0469 33.1539 50.0469 32.8127 50.0469 32.3841C50.0469 32.126 50.1349 32.0412 50.392 32.0412C52.3764 32.0412 54.3607 32.0412 56.4314 32.0412C57.1216 32.0412 57.0353 31.8706 57.1216 32.7278C57.2087 33.5851 56.6902 34.1003 56.346 34.7003C55.2235 36.5828 54.1019 38.4687 52.9803 40.4404C52.9803 40.6984 52.9803 40.7833 53.2391 40.7833C54.447 40.7833 55.6549 40.7833 56.949 40.7833C57.2087 40.7833 57.3804 40.869 57.2941 41.1262C57.2941 41.4674 57.2941 41.896 57.2941 42.2406C57.2941 42.4978 57.2079 42.5826 56.949 42.5826C55.9137 42.5835 54.7921 42.5835 53.7568 42.5835Z" fill="white"/>
</svg>
