<svg width="144" height="22" viewBox="0 0 144 22" fill="none" xmlns="http://www.w3.org/2000/svg">
<path d="M55.005 14.9125C55.005 15.4519 54.9885 15.9935 55.0117 16.532C55.0249 16.8368 54.9012 17.047 54.6602 17.2212C52.5108 18.777 49.5413 18.7982 47.7322 17.7235C46.017 16.7019 45.3373 15.1875 45.3738 13.3067C45.4368 10.0507 48.4638 8.10728 51.4454 8.47685C52.5019 8.60853 53.4612 8.90058 54.3221 9.49847C54.6094 9.69812 54.6746 9.90096 54.4072 10.158C54.3188 10.2429 54.2502 10.347 54.1651 10.4341C53.8668 10.7367 53.6955 11.2168 53.2722 11.3283C52.86 11.4387 52.5737 10.9991 52.2146 10.8323C51.031 10.2822 49.6297 10.4213 48.7842 11.1998C47.7476 12.1534 47.4725 13.5956 48.0891 14.8424C48.6373 15.9479 49.7534 16.5352 51.1006 16.4247C51.5427 16.3897 51.9703 16.3026 52.3726 16.1178C52.6102 16.0074 52.766 15.8661 52.8036 15.5847C52.9086 14.7882 52.7915 14.6459 51.9505 14.6278C50.3104 14.5917 50.5878 14.9093 50.558 13.2143C50.5525 12.8639 50.6011 12.6526 51.0564 12.6621C52.1881 12.6865 53.3208 12.6812 54.4525 12.6674C54.8614 12.6621 55.0128 12.8225 55.0017 13.2037C54.984 13.7719 54.9973 14.3422 54.9973 14.9125H55.005ZM69.2137 14.8679C69.2137 15.4084 69.1983 15.95 69.2193 16.4884C69.2325 16.824 69.0889 17.0407 68.8203 17.2456C67.0145 18.6188 64.0638 18.8683 62.0414 17.8032C60.0522 16.7539 59.0509 14.3114 59.7151 12.1216C60.4677 9.63759 62.8559 8.15825 65.5679 8.46092C66.6233 8.5788 67.5859 8.88146 68.4512 9.47617C68.7849 9.70556 68.828 9.92539 68.5352 10.2058C68.4457 10.2907 68.3749 10.3927 68.292 10.4819C68.0224 10.7729 67.8047 11.1753 67.4654 11.324C67.062 11.5003 66.7824 11.0118 66.4277 10.8514C65.1844 10.2939 63.6063 10.3725 62.6625 11.5109C61.6911 12.6834 61.6867 14.3273 62.6968 15.5019C63.5002 16.4343 65.3082 16.7316 66.5183 16.1305C66.9162 15.932 67.1361 15.2003 66.9184 14.8031C66.8543 14.6852 66.7493 14.6332 66.62 14.6268C66.4321 14.6172 66.2409 14.6332 66.0553 14.6098C65.6331 14.5588 65.0496 14.8296 64.8208 14.4484C64.5666 14.0257 64.7379 13.4522 64.7457 12.9425C64.7479 12.7609 64.8882 12.6834 65.0606 12.6812C66.3194 12.6749 67.577 12.6717 68.8358 12.6685C69.1121 12.6685 69.2193 12.814 69.217 13.0667C69.2115 13.6678 69.2159 14.2678 69.2159 14.8679H69.2137ZM119.06 8.51189C120.307 8.45349 121.365 8.80075 122.345 9.3806C122.85 9.67901 122.857 9.73317 122.497 10.2185C122.227 10.5817 122.059 11.1106 121.636 11.2497C121.237 11.3782 120.885 10.8971 120.468 10.7771C120.108 10.673 119.757 10.5382 119.392 10.4511C118.98 10.3523 118.572 10.4224 118.21 10.6252C117.634 10.9449 117.626 11.6171 118.216 11.9166C118.599 12.1109 119.034 12.214 119.454 12.3371C120.234 12.5633 121.029 12.7439 121.752 13.1283C122.739 13.654 123.133 14.4399 123.096 15.5061C123.058 16.5872 122.647 17.4432 121.631 17.9423C120.105 18.6942 118.531 18.5604 116.975 18.0113C116.386 17.8042 115.841 17.5016 115.342 17.1277C115.093 16.943 115.044 16.7645 115.29 16.5405C115.425 16.4162 115.536 16.2686 115.662 16.1348C115.893 15.8916 116.085 15.5634 116.373 15.4339C116.744 15.2672 116.937 15.7217 117.226 15.8704C117.933 16.2314 118.662 16.4683 119.47 16.4598C119.757 16.4576 120.035 16.4226 120.292 16.2962C120.942 15.9776 120.984 15.3171 120.357 14.9581C119.816 14.647 119.186 14.5376 118.589 14.356C118.111 14.2105 117.617 14.1043 117.155 13.9237C116.139 13.5298 115.536 12.8331 115.477 11.7446C115.413 10.5764 115.772 9.61741 116.87 8.99509C117.57 8.59898 118.331 8.45986 119.06 8.51189ZM32.5079 9.16926C33.2461 9.02165 33.9987 9.13422 34.7424 9.09492C35.0994 9.07474 35.2165 9.34874 35.3591 9.57388C35.863 10.3693 36.3559 10.6603 36.8554 11.4589C37.0157 11.7138 37.1848 11.9655 37.3439 12.2076C37.66 12.2055 37.7064 11.9676 37.8114 11.8051C38.3894 10.912 38.9751 10.0231 39.5199 9.11085C39.7299 8.7604 39.9609 8.56499 40.4007 8.57986C41.0229 8.60216 41.6473 8.58623 42.2352 8.58623C42.4176 8.90164 42.2065 9.04925 42.0993 9.21068C41.1058 10.7038 40.1167 12.2012 39.0989 13.6806C38.7585 14.1765 38.5684 14.6724 38.6005 15.2757C38.6424 16.053 38.6192 16.8357 38.6104 17.6152C38.6027 18.2715 38.5938 18.2715 37.9462 18.2959C36.3206 18.3596 36.2233 18.3522 36.346 16.8484C36.4786 15.23 36.0233 14.3857 35.0165 13.1018C34.2098 12.0717 33.5456 10.9396 32.8283 9.8468C32.7001 9.64821 32.5045 9.47299 32.5079 9.16926ZM135.66 13.3662C135.66 12.0164 135.654 10.6667 135.662 9.31688C135.665 8.60535 135.676 8.60535 136.367 8.58942C137.957 8.55119 137.957 8.55119 137.957 10.0879C137.96 11.9177 137.957 13.7464 137.964 15.5762C137.967 16.2675 137.977 16.276 138.675 16.2803C139.9 16.2867 141.126 16.2739 142.353 16.2835C143.007 16.2888 143.023 16.3005 143.02 16.943C143.008 18.5699 143.201 18.2842 141.655 18.2959C139.895 18.3108 138.135 18.3034 136.375 18.2959C135.67 18.2938 135.658 18.2832 135.652 17.5929C135.643 16.1847 135.65 14.7744 135.65 13.3651H135.66V13.3662ZM130.305 13.4299C130.307 14.8116 130.312 16.1932 130.304 17.5738C130.301 18.2853 130.291 18.2853 129.601 18.3023C127.97 18.3395 127.967 18.3395 127.964 16.7529C127.959 14.3209 127.959 11.889 127.961 9.45706C127.963 8.59898 127.968 8.59897 128.812 8.59048C130.307 8.57455 130.307 8.57455 130.307 10.0082C130.305 11.1477 130.305 12.2894 130.305 13.4299ZM93.6139 13.1039C94.1776 12.9011 94.5113 12.3722 94.4649 11.8391C94.4185 11.2996 94.0892 10.912 93.5222 10.7357C93.0393 10.5828 92.5387 10.5658 92.038 10.5753C90.4035 10.6029 90.6643 10.3502 90.6378 11.7924C90.6378 12.2097 90.6356 12.5379 90.6389 12.8671C90.6411 13.054 90.6776 13.2589 90.9185 13.2536C91.8203 13.2366 92.7376 13.4214 93.6139 13.1039ZM94.7445 14.9273C95.5303 16.0243 96.284 17.0778 97.1581 18.3002C96.2044 18.3002 95.465 18.2917 94.7279 18.3044C94.4152 18.3097 94.2958 18.1048 94.1544 17.9083C93.6615 17.2116 93.1686 16.5139 92.6702 15.8215C92.3088 15.3192 91.4037 15.0675 90.8589 15.3011C90.6434 15.3946 90.6411 15.5751 90.6411 15.7514C90.6367 16.413 90.619 17.0736 90.6478 17.7331C90.6655 18.1589 90.5141 18.3395 90.0543 18.3076C89.6487 18.28 89.2365 18.2821 88.8287 18.3065C88.3988 18.3331 88.2983 18.1388 88.2994 17.7713C88.3071 14.8902 88.3049 12.0069 88.3016 9.12466C88.3016 8.83367 88.3115 8.57349 88.7304 8.58411C90.3958 8.62765 92.069 8.4726 93.7267 8.67119C95.4628 8.87828 96.4387 9.66096 96.7304 11.0851C97.0299 12.5612 96.5039 13.9928 95.0838 14.6905C95.0031 14.7309 94.9335 14.7946 94.7445 14.9273ZM81.1149 13.7506C81.2497 12.1842 80.2551 10.9353 78.625 10.6528C78.257 10.5891 77.8746 10.5817 77.4989 10.5806C76.4291 10.5764 76.459 10.4351 76.4601 11.5205C76.4612 12.7216 76.4546 13.9206 76.4634 15.1217C76.4733 16.4205 76.2866 16.2771 77.6514 16.2856C77.8404 16.2856 78.0294 16.292 78.2172 16.2835C79.8628 16.2134 80.9889 15.2279 81.1149 13.7506ZM79.2074 8.70517C83.1141 9.32325 84.8569 13.3959 82.4842 16.4173C81.4951 17.6768 80.0661 18.1908 78.4637 18.2906C77.8371 18.3299 77.206 18.297 76.5761 18.297V18.3012C75.9782 18.3012 75.3793 18.2832 74.7825 18.3065C74.3625 18.3225 74.1526 18.2269 74.1548 17.766C74.1691 14.8827 74.1603 12.0016 74.1548 9.11935C74.1548 8.82624 74.1758 8.57243 74.5891 8.58729C76.1296 8.63827 77.6757 8.4641 79.2074 8.70517ZM104.877 14.1595H107.297C106.969 13.2101 106.607 12.351 106.101 11.3453C105.667 12.3467 105.3 13.1899 104.877 14.1595ZM111.212 17.5324C111.307 17.7479 111.473 17.9497 111.378 18.2959C110.75 18.2959 110.098 18.2885 109.447 18.3002C109.124 18.3044 109.021 18.0941 108.923 17.869C108.744 17.4516 108.559 17.0396 108.396 16.6169C108.269 16.2909 108.05 16.155 107.682 16.1592C106.646 16.172 105.606 16.1783 104.569 16.155C104.148 16.1454 103.937 16.3259 103.8 16.6711C103.645 17.0651 103.453 17.4453 103.309 17.8414C103.192 18.1695 103.003 18.3257 102.621 18.3076C102.058 18.2853 101.494 18.3012 100.888 18.3012C100.826 17.9444 100.99 17.6895 101.106 17.4283C102.326 14.6969 103.558 11.9708 104.756 9.22979C104.98 8.71686 105.263 8.49171 105.868 8.52357C107.347 8.60428 107.081 8.25489 107.711 9.66414C108.88 12.2872 110.046 14.9093 111.212 17.5324Z" fill="white"/>
<path d="M8.09964 4.98003C7.89881 4.44371 7.70356 3.9162 7.54643 3.37723C7.38511 2.82373 7.26471 2.26229 7.17406 1.69556C7.12385 1.38002 7.13129 1.37077 7.45299 1.265C8.10429 1.05171 8.76861 0.884245 9.45059 0.785971C9.76625 0.740579 9.78205 0.750275 9.82482 1.05479C10.0052 2.3372 10.3869 3.56321 10.9675 4.735C11.0335 4.86765 11.0689 5.08359 11.2199 5.09064C11.4124 5.09945 11.437 4.8703 11.5068 4.73192C12.0846 3.57334 12.4649 2.35924 12.6392 1.08873C12.6866 0.745868 12.6969 0.737495 13.0637 0.788615C13.747 0.884245 14.4081 1.06581 15.0594 1.27514C15.3565 1.37033 15.3504 1.38223 15.3039 1.68542C15.1477 2.70033 14.8679 3.68528 14.4983 4.64907C14.4569 4.75748 14.33 4.8866 14.4541 4.98884C14.5522 5.06949 14.6768 4.96504 14.7823 4.92362C15.8469 4.50717 16.7786 3.90298 17.5991 3.14367C17.6367 3.10841 17.6739 3.07316 17.7116 3.03834C18.0119 2.75806 18.011 2.75939 18.3461 3.02248C18.845 3.41381 19.3238 3.82498 19.7422 4.29387C19.9532 4.53096 19.9509 4.53449 19.7324 4.74999C18.1355 6.3237 16.2077 7.35712 13.9651 7.87537C13.8619 7.89917 13.7577 7.91723 13.6564 7.94588C13.4142 8.01507 13.397 8.06398 13.5825 8.24246C14.1961 8.83167 14.8735 9.34904 15.6033 9.8056C15.8307 9.94794 15.839 9.94221 16.1049 9.70864C17.2267 8.72149 18.493 7.93662 19.8896 7.33993C20.2986 7.16497 20.7203 7.01514 21.1415 6.86795C21.4274 6.76835 21.4753 6.79171 21.5934 7.05921C21.8569 7.65855 22.0829 8.27023 22.2274 8.9057C22.2921 9.19127 22.2884 9.20537 21.9792 9.30806C21.3033 9.53281 20.6538 9.80956 20.0337 10.1489C19.6329 10.3684 19.2466 10.6085 18.8742 10.8685C18.7715 10.9404 18.6065 10.9994 18.6237 11.133C18.6446 11.2995 18.8445 11.2876 18.9733 11.326C19.923 11.6089 20.8951 11.7865 21.8886 11.8583C22.6366 11.9125 22.4915 11.8901 22.432 12.4876C22.3771 13.046 22.2614 13.5969 22.0931 14.1358C22.0038 14.4232 21.995 14.4342 21.6784 14.4121C20.5929 14.3377 19.5269 14.1548 18.4819 13.8661C15.8362 13.1355 13.5481 11.8398 11.5974 10.0088C11.2162 9.65047 11.2864 9.61125 10.8769 9.9995C8.80626 11.9632 6.34656 13.2959 3.50287 13.9948C2.64377 14.2059 1.76932 14.3452 0.884182 14.4086C0.476014 14.4381 0.481592 14.4276 0.366766 14.0684C0.182672 13.4929 0.09109 12.9019 0.0194979 12.3074C-0.0283851 11.9112 -0.0200176 11.898 0.425341 11.8689C1.39323 11.805 2.34299 11.6539 3.27275 11.3921C3.43732 11.3458 3.60096 11.2951 3.76321 11.2414C3.90314 11.1947 3.91894 11.1074 3.81062 11.021C3.65954 10.9003 3.50101 10.787 3.33737 10.6812C2.46014 10.115 1.52897 9.64651 0.522037 9.31643C0.171979 9.20141 0.168726 9.19656 0.251475 8.86604C0.403492 8.25877 0.598278 7.66428 0.868375 7.09314C1.01853 6.7754 1.02411 6.76703 1.36812 6.87897C2.5122 7.25135 3.58609 7.75726 4.59442 8.38789C5.23549 8.78892 5.83194 9.24195 6.40189 9.72715C6.65478 9.94265 6.65432 9.93868 6.93557 9.76241C7.58687 9.35301 8.19076 8.88984 8.74583 8.36938C8.81138 8.30769 8.87925 8.24775 8.93782 8.18077C9.03127 8.07412 8.98896 7.99744 8.86344 7.95469C8.78906 7.92913 8.7105 7.91503 8.63332 7.89828C6.35354 7.40427 4.40103 6.36424 2.77021 4.78656C2.73302 4.75087 2.69676 4.71429 2.65957 4.67904C2.56102 4.58561 2.54242 4.49042 2.64191 4.38465C3.16165 3.83379 3.71811 3.31994 4.33455 2.86427C4.46146 2.7704 4.54839 2.82505 4.64044 2.91407C4.95424 3.21814 5.27919 3.51032 5.63297 3.77386C6.30194 4.27228 7.02855 4.67507 7.82164 4.9721C7.89184 4.99986 7.96436 5.04216 8.09964 4.98003ZM11.2004 21.8492C10.8699 21.8492 10.5384 21.862 10.2088 21.8453C9.91687 21.8303 9.87549 21.7792 9.87457 21.498C9.87131 20.5518 9.86248 19.6052 9.87875 18.6591C9.88433 18.3537 9.79089 18.1157 9.59284 17.8755C8.49665 16.5499 7.41394 15.2142 6.32983 13.8798C6.05229 13.5387 6.05741 13.536 6.47998 13.3448C7.02855 13.0962 7.56642 12.8296 8.08244 12.5242C8.4734 12.2937 8.47573 12.2981 8.74583 12.63C9.47755 13.529 10.2093 14.428 10.9419 15.3266C11.2348 15.6857 11.2427 15.6849 11.5268 15.3358C12.2743 14.4165 13.0223 13.4973 13.7708 12.5789C13.9995 12.2981 14.0046 12.2946 14.3086 12.4749C14.8916 12.8204 15.5001 13.1209 16.1217 13.3986C16.3922 13.5189 16.4006 13.5576 16.2188 13.7815C15.0957 15.1666 13.9744 16.553 12.8391 17.9302C12.6653 18.1413 12.5886 18.3484 12.5913 18.6119C12.602 19.5576 12.5965 20.5047 12.5951 21.4504C12.5941 21.792 12.5825 21.8206 12.2301 21.8431C11.8884 21.8647 11.543 21.8475 11.1999 21.8475L11.2004 21.8492Z" fill="#E6642B"/>
</svg>
