<svg width="97" height="51" viewBox="0 0 97 51" fill="none" xmlns="http://www.w3.org/2000/svg">
<path d="M3.97122 42.8581C4.13007 42.8581 4.28891 42.7046 4.13006 42.5512C4.13006 42.3977 4.13006 42.2442 4.13006 42.2442C4.13006 42.0907 4.13006 41.9373 4.13006 41.7838C4.13006 41.6303 4.13007 41.4768 3.97122 41.4768C2.38273 40.7095 1.42964 39.3282 1.42964 37.7934C1.42964 36.7191 1.90618 35.6448 2.85928 34.7239C3.81237 33.803 5.08316 33.4961 6.51279 33.4961C7.62474 33.4961 8.57783 33.803 9.37207 34.11H9.53092L12.7079 33.4961C12.8667 33.4961 13.0256 33.6496 13.0256 33.803L13.1844 36.2587C13.1844 36.4121 13.0256 36.5656 12.8667 36.5656L11.7548 36.8726C11.596 36.8726 11.4371 37.026 11.4371 37.1795C11.4371 37.4865 11.4371 37.6399 11.4371 37.7934C11.4371 38.8677 10.9606 39.7886 10.1663 40.7095C9.37207 41.4768 8.41898 41.9373 6.98934 41.9373C6.83049 41.9373 6.67164 42.0907 6.67164 42.2442V42.3977C6.67164 42.5512 6.83049 42.7046 6.98934 42.7046C8.57783 42.8581 9.84862 43.1651 10.8017 43.779C11.9137 44.3929 12.3902 45.3137 12.3902 46.3881C12.3902 47.6159 11.9136 48.5367 10.6429 49.1506C9.53092 49.7645 8.10128 50.0715 6.1951 50.0715C4.44776 50.0715 3.01812 49.7645 1.74734 49.1506C0.635395 48.5367 0 47.6159 0 46.3881C0.476546 44.5464 1.74734 43.3186 3.97122 42.8581ZM6.51279 47.002C8.26013 47.002 9.05437 46.695 9.05437 46.2346C9.05437 45.7742 8.26013 45.4672 6.51279 45.4672C4.76546 45.4672 3.97122 45.7742 3.97122 46.2346C3.97122 46.695 4.92431 47.002 6.51279 47.002ZM8.10128 37.7934C8.10128 37.026 7.62474 36.5656 6.51279 36.5656C4.60661 36.4121 4.44776 39.1747 6.51279 39.0212C7.46589 39.0212 8.10128 38.5608 8.10128 37.7934Z" fill="white"/>
<path d="M15.0885 34.8801C15.0885 34.7267 15.0885 34.5732 15.2474 34.5732C16.3593 34.1128 17.7889 33.6523 19.2186 33.6523C22.5544 33.6523 23.984 35.1871 23.984 38.4101V44.7026C23.984 44.8561 23.8252 45.0096 23.6663 45.0096H20.9659C20.8071 45.0096 20.6482 44.8561 20.6482 44.7026C20.6482 44.3957 20.3305 44.3957 20.1717 44.3957C19.5363 44.8561 18.742 45.0096 17.6301 45.0096C15.565 45.0096 13.9766 43.7818 13.9766 41.4796C13.9766 39.024 15.7239 37.7962 18.1066 37.7962C18.742 37.7962 19.3774 37.9497 19.854 38.1031C20.0128 38.2566 20.3305 38.1031 20.3305 37.7962C20.1717 36.8753 19.6951 36.4149 18.742 36.4149C18.1066 36.4149 17.1535 36.5684 16.0416 37.0288C15.8827 37.0288 15.7239 37.0288 15.7239 36.8753L15.0885 34.8801ZM20.4894 41.3261V40.8657C20.4894 40.7122 20.4894 40.7122 20.3305 40.5588C20.0128 40.4053 19.5363 40.2518 19.0597 40.2518C18.4243 40.2518 17.9478 40.5588 17.9478 41.1727C17.9478 41.6331 18.4243 41.94 19.0597 41.94C19.6951 41.94 20.1717 41.7866 20.4894 41.3261Z" fill="white"/>
<path d="M44.002 44.8544H40.825C40.6662 44.8544 40.5073 44.701 40.5073 44.5475V38.5619C40.5073 37.4876 40.0308 37.0272 39.0777 37.0272C38.2835 37.0272 37.6481 37.3341 37.3304 37.948V38.1015V44.5475C37.3304 44.701 37.1715 44.8544 37.0127 44.8544H33.8357C33.6768 44.8544 33.518 44.701 33.518 44.5475V38.5619C33.518 37.4876 33.0414 37.0272 32.2472 37.0272C31.453 37.0272 30.9764 37.3341 30.4999 37.7946V37.948V44.5475C30.4999 44.701 30.341 44.8544 30.1822 44.8544H27.0052C26.8463 44.8544 26.6875 44.701 26.6875 44.5475V33.9577C26.6875 33.8042 26.8463 33.6507 27.0052 33.6507H30.1822C30.341 33.6507 30.4999 33.8042 30.4999 33.9577V34.1111C30.4999 34.4181 30.8176 34.4181 30.9764 34.4181C31.7707 33.8042 32.7237 33.4972 33.8357 33.4972C35.2653 33.4972 36.3773 33.9577 36.8538 34.725C37.0127 34.8785 37.1715 34.8785 37.3304 34.725C38.2835 33.8042 39.3954 33.3438 40.6662 33.3438C43.0489 33.3438 44.3197 34.725 44.3197 37.3341V44.2405C44.3197 44.701 44.1609 44.8544 44.002 44.8544Z" fill="white"/>
<path d="M56.8642 43.7801C56.8642 43.9336 56.8642 44.0871 56.7054 44.0871C55.5934 44.8544 54.1638 45.1614 52.4164 45.1614C50.5103 45.1614 49.0806 44.701 47.8098 43.4732C46.6979 42.3988 46.0625 41.0175 46.0625 39.1758C46.0625 37.4876 46.539 36.1063 47.8098 35.032C48.9218 33.9577 50.5103 33.3438 52.4164 33.3438C54.0049 33.3438 55.2757 33.8042 56.3877 34.8785C57.4996 35.7994 57.9761 37.1806 57.9761 38.5619C57.9761 39.1758 57.9761 39.7897 57.8173 40.2502C57.8173 40.4036 57.6584 40.5571 57.4996 40.5571H50.6691C50.3514 40.5571 50.3514 40.8641 50.3514 41.0175C50.828 41.7849 51.6222 42.0919 52.893 42.0919C54.0049 42.0919 54.7992 41.7849 55.5934 41.478C55.7523 41.3245 55.9111 41.478 55.9111 41.6314L56.8642 43.7801ZM50.5103 38.1015H53.8461C54.0049 38.1015 54.1638 37.948 54.1638 37.7945C54.0049 37.1806 53.3695 36.5667 52.4164 36.5667C51.4634 36.5667 50.6691 36.8737 50.3514 37.6411C50.1926 37.7945 50.3514 38.1015 50.5103 38.1015Z" fill="white"/>
<path d="M63.5357 40.7095C61.7883 40.4025 59.5644 39.6351 59.5644 37.1795C59.5644 34.8774 61.4706 33.4961 64.0122 33.4961C65.9184 33.4961 67.5069 33.9565 68.6188 34.8774C68.7777 35.0309 68.7777 35.1843 68.7777 35.1843L67.6657 37.333C67.5069 37.4865 67.348 37.6399 67.1892 37.4865C66.2361 36.8726 65.283 36.5656 64.3299 36.5656C63.8534 36.5656 63.3768 36.8726 63.3768 37.026C63.3768 38.1004 69.4131 37.4865 69.4131 41.4768C69.4131 43.779 67.5069 45.1603 64.4888 45.1603C63.3768 45.1603 62.2649 44.8533 61.3118 44.5464C60.3587 44.0859 59.8821 43.779 59.5644 43.3186C59.4056 43.1651 59.4056 43.0116 59.5644 43.0116L60.9941 41.0164C61.1529 40.8629 61.3118 40.8629 61.4706 41.0164C61.7883 41.3234 62.2649 41.4768 62.9003 41.7838C63.6945 42.0907 64.3299 42.2442 64.8065 42.2442C65.4419 42.2442 65.7596 42.0907 65.7596 41.7838C65.6007 41.1699 64.6476 40.8629 63.5357 40.7095Z" fill="white"/>
<path d="M3.1813 10.0166L3.02245 10.9375C2.8636 12.1653 3.8167 13.2396 5.08748 13.2396H17.6365L3.1813 17.8439C2.38706 18.1509 1.91051 18.7648 1.75166 19.5321L1.11627 23.2156L0.798571 24.7503C0.639722 25.9781 1.59281 27.0525 2.8636 27.0525H16.6834C17.7954 27.0525 18.5896 26.2851 18.7485 25.3642L18.9073 24.4434C19.0662 23.2156 18.1131 22.1412 16.8423 22.1412H5.24633L18.9073 17.8439C19.7016 17.537 20.1781 16.9231 20.337 16.1557L20.9724 12.4723L21.29 10.784C21.29 9.40273 20.1781 8.3284 18.9073 8.3284H5.08748C4.13439 8.3284 3.1813 9.09578 3.1813 10.0166ZM23.5139 10.0166L21.29 24.5968C21.1312 25.8247 22.0843 26.899 23.3551 26.899H24.3082C25.4201 26.899 26.2144 26.1316 26.3732 25.2108L28.5971 10.6305C28.7559 9.40273 27.8028 8.3284 26.5321 8.3284H25.579C24.467 8.3284 23.6728 9.09578 23.5139 10.0166ZM27.3263 2.34284H26.3732C25.2613 2.34284 24.467 3.11022 24.3082 4.03108C24.1493 5.25889 25.1024 6.33322 26.3732 6.33322H27.3263C28.4382 6.33322 29.2325 5.56584 29.3913 4.64498C29.5502 3.57065 28.5971 2.34284 27.3263 2.34284ZM49.4063 2.34284H48.4532C47.3412 2.34284 46.547 3.11022 46.3881 4.03108C46.2293 5.25889 47.1824 6.33322 48.4532 6.33322H49.4063C50.5182 6.33322 51.3125 5.56584 51.4713 4.64498C51.789 3.57065 50.6771 2.34284 49.4063 2.34284ZM45.2762 26.899H46.2293C47.3412 26.899 48.1355 26.1316 48.2943 25.2108L50.5182 10.6305C50.8359 9.40273 49.8828 8.3284 48.4532 8.3284H47.5001C46.3881 8.3284 45.5939 9.09578 45.435 10.0166L43.2112 24.5968C43.0523 25.8247 44.1643 26.899 45.2762 26.899ZM53.6952 10.0166L51.4713 24.5968C51.3125 25.8247 52.2655 26.899 53.5363 26.899H68.627C69.7389 26.899 70.5331 26.1316 70.692 25.2108L72.9159 10.6305C73.2336 9.40273 72.1216 8.3284 70.8508 8.3284H55.7602C54.8071 8.3284 53.854 9.09578 53.6952 10.0166ZM65.7677 21.9878H57.1898C57.031 21.9878 56.8721 21.8343 56.8721 21.6808L58.1429 13.3931C58.1429 13.2396 58.3018 13.2396 58.4606 13.2396H67.0385C67.1973 13.2396 67.3562 13.3931 67.3562 13.5466L66.0854 21.8343C66.0854 21.9878 65.9265 21.9878 65.7677 21.9878ZM32.0918 2.03589L28.5971 24.5968C28.4382 25.8247 29.3913 26.899 30.6621 26.899H31.6152C32.7272 26.899 33.5214 26.1316 33.6802 25.2108L37.1749 2.64979C37.3338 1.42199 36.3807 0.347656 35.1099 0.347656H34.1568C33.2037 0.347656 32.2506 1.11504 32.0918 2.03589ZM39.3988 2.03589L35.9041 24.5968C35.7453 25.8247 36.6984 26.899 37.9692 26.899H38.9223C40.0342 26.899 40.8284 26.1316 40.9873 25.2108L44.482 2.64979C44.6408 1.42199 43.6877 0.347656 42.4169 0.347656H41.4638C40.3519 0.347656 39.5576 1.11504 39.3988 2.03589ZM90.7069 10.0166L88.483 23.8295L85.7826 9.86316C85.4649 8.94231 84.6707 8.3284 83.7176 8.3284H77.6813C76.5694 8.3284 75.7751 9.09578 75.6163 10.0166L73.3924 24.7503C73.2336 25.9781 74.1867 27.0525 75.4574 27.0525H76.7282C77.8402 27.0525 78.6344 26.2851 78.7933 25.3642L80.8583 12.4723L83.5587 25.5177C83.7176 26.4386 84.6707 27.2059 85.6238 27.2059H91.9777C93.0896 27.2059 93.8839 26.4386 94.0427 25.5177L96.1078 10.6305C96.4255 9.40273 95.3135 8.3284 94.0427 8.3284H92.7719C91.8189 8.3284 90.8658 9.09578 90.7069 10.0166Z" fill="#EF7D0F"/>
</svg>
