<svg width="18" height="25" viewBox="0 0 18 25" fill="none" xmlns="http://www.w3.org/2000/svg">
<path d="M13.8361 0H4.13653V9.91667C4.13653 10.1928 3.91267 10.4167 3.63653 10.4167H1.77857C0.995681 10.4167 0.516423 11.2756 0.927584 11.9418L8.13534 23.6211C8.52605 24.2542 9.44661 24.2542 9.83732 23.6211L17.0451 11.9418C17.4562 11.2756 16.977 10.4167 16.1941 10.4167H14.3361C14.06 10.4167 13.8361 10.1928 13.8361 9.91667V0Z" fill="url(#paint0_linear_12630_5907)"/>
<path d="M13.8361 0H4.13653V9.91667C4.13653 10.1928 3.91267 10.4167 3.63653 10.4167H1.77857C0.995681 10.4167 0.516423 11.2756 0.927584 11.9418L8.13534 23.6211C8.52605 24.2542 9.44661 24.2542 9.83732 23.6211L17.0451 11.9418C17.4562 11.2756 16.977 10.4167 16.1941 10.4167H14.3361C14.06 10.4167 13.8361 10.1928 13.8361 9.91667V0Z" fill="url(#paint1_linear_12630_5907)"/>
<defs>
<linearGradient id="paint0_linear_12630_5907" x1="8.98633" y1="0" x2="8.98633" y2="25" gradientUnits="userSpaceOnUse">
<stop stop-color="#E22529" stop-opacity="0"/>
<stop offset="1" stop-color="#E22529"/>
</linearGradient>
<linearGradient id="paint1_linear_12630_5907" x1="8.98633" y1="0" x2="8.98633" y2="25" gradientUnits="userSpaceOnUse">
<stop stop-color="#E22529" stop-opacity="0"/>
<stop offset="1" stop-color="#E22529"/>
</linearGradient>
</defs>
</svg>
