<svg xmlns="http://www.w3.org/2000/svg" width="147" height="184" fill="none">
    <g opacity=".3">
        <path fill="#fff" d="M92.399 111.682c-3.69 2.826-7.948 3.506-7.948 3.506 3.012-2.199 8.83-8.378 5.456-15.08-3.374-6.702-16.26-11.046-16.26-11.046S60.77 93.41 57.387 100.108c-3.382 6.7 2.442 12.881 5.456 15.08 0 0-4.26-.682-7.948-3.508 0 0-9.037 7.958-10.076 17.173 0 0 8.258-6.125 28.829-6.125 20.57 0 28.83 6.125 28.83 6.125-1.041-9.213-10.08-17.171-10.08-17.171Zm-17.24-.053-1.508 2.514-1.506-2.514c-9.713-.732-11.479-8.01-11.479-8.01l4.83-2.827-1.31-2.302 9.454 5.758 9.467-5.758-1.31 2.302 4.83 2.827s-1.761 7.278-11.475 8.01h.007Z"/>
        <path fill="#fff" d="M100.26 63.897s8.509.991 12.568 5.114c0 0-6.284-11.792-19.58-11.792-13.297 0-19.581 7.253-19.581 7.253s-6.284-7.253-19.579-7.253c-13.294 0-19.58 11.792-19.58 11.792 4.05-4.123 12.568-5.114 12.568-5.114-6.751 1.988-11.95 10.083-11.894 19.78.057 9.696 3.792 16.642 7.48 17.534 3.687.892 5.66-2.661 11.167-7.89 5.507-5.23 11.112-6.052 11.112-6.052-5.555-2.506-9.245-1.044-12.932.155-3.688 1.2-6.699 1.618-8.828-2.711-2.13-4.329 1.922-9.078 1.922-9.078-2.287.365-4.466 2.191-4.466 2.191 2.077-4.958 4.726-6.314 9.035-6.47 4.31-.156 6.286.99 10.803 3.549 4.516 2.558 8.466 5.53 10.805 3.599 2.339-1.931-1.144-8.452-1.144-8.452 2.544 1.67 3.53 5.164 3.53 5.164s.99-3.494 3.533-5.164c0 0-3.49 6.52-1.143 8.452 2.348 1.93 6.286-1.044 10.805-3.6 4.518-2.555 6.49-3.704 10.802-3.548 4.312.156 6.958 1.528 9.029 6.477 0 0-2.182-1.826-4.466-2.192 0 0 4.052 4.748 1.922 9.079-2.13 4.33-5.14 3.912-8.828 2.71-3.688-1.2-7.377-2.66-12.934-.155 0 0 5.61.835 11.114 6.052 5.505 5.216 7.48 8.767 11.167 7.89 3.688-.876 7.419-7.826 7.48-17.534.061-9.708-5.136-17.798-11.887-19.786Z"/>
        <path fill="#C4C4C4" d="M93.262 57.219c-13.31 0-19.604 7.306-19.604 7.306s-6.291-7.306-19.601-7.306c-9.91 0-15.925 6.58-18.35 9.935 5.182-5.102 19.025-14.837 37.958 1.881 18.935-16.718 32.778-6.983 37.959-1.88-2.437-3.357-8.453-9.936-18.362-9.936ZM51.815 87.4c-3.696 1.206-6.714 1.625-8.849-2.722-2.134-4.346 1.927-9.115 1.927-9.115-1.837.292-3.602 1.527-4.232 2.007-1.861 3.123-3.145 8.78 1.23 18.083 0 0-3.747-1.111-6.66-7.608.95 7.386 4.096 12.437 7.217 13.187 3.696.88 5.673-2.671 11.194-7.923 5.52-5.25 11.139-6.076 11.139-6.076-5.571-2.504-9.27-1.036-12.966.167ZM105.099 95.645c4.421-9.407 3.059-15.087 1.173-18.184-.728-.535-2.378-1.626-4.087-1.898 0 0 4.059 4.764 1.926 9.111s-5.15 3.927-8.843 2.721c-3.693-1.205-7.389-2.67-12.956-.156 0 0 5.62.838 11.133 6.074 5.514 5.236 7.492 8.8 11.186 7.92 3.14-.759 6.318-5.91 7.232-13.42-2.929 6.697-6.764 7.832-6.764 7.832ZM102.464 128.71c-3.317-2.553-11.774-7.816-25.802-8.399-18.621-.783-20.337 2.27-22.44-.392-2.104-2.663 8.622-4.726 8.622-4.726s-4.26-.68-7.948-3.498c0 0-9.037 7.934-10.076 17.122 0 0 8.258-6.107 28.829-6.107 20.57 0 28.83 6.107 28.83 6.107-.002-.028-.011-.07-.015-.107Z"/>
    </g>
    <g filter="url(#a)">
        <path fill="#0D101C" fill-opacity=".48" d="M0 5.5A4.563 4.563 0 0 1 4.563.937h137.874A4.563 4.563 0 0 1 147 5.5v173.875a4.563 4.563 0 0 1-4.563 4.563H4.563A4.563 4.563 0 0 1 0 179.375V5.5Z"/>
    </g>
    <path stroke="url(#b)" stroke-opacity=".5" stroke-width=".913" d="M.456 5.5a4.106 4.106 0 0 1 4.107-4.106h137.874a4.107 4.107 0 0 1 4.107 4.106v173.875a4.106 4.106 0 0 1-4.107 4.106H4.563a4.106 4.106 0 0 1-4.107-4.106V5.5Z"/>
    <path fill="#414A65" d="M32.507 82.537v8.4h-2.376v-3.275h-3.24v3.275h-2.376v-8.4h2.376v3.156h3.24v-3.156h2.376Zm8.261 5.16c0 .016-.012.204-.036.564h-4.728c.096.337.28.597.552.78.28.177.628.264 1.044.264.312 0 .58-.044.804-.132.232-.088.464-.231.696-.431l1.2 1.248c-.632.704-1.556 1.056-2.772 1.056-.76 0-1.428-.145-2.004-.433a3.268 3.268 0 0 1-1.344-1.2 3.277 3.277 0 0 1-.468-1.74c0-.64.152-1.212.456-1.716.312-.511.74-.911 1.284-1.2.544-.288 1.156-.431 1.836-.431.648 0 1.236.136 1.764.408.528.264.944.651 1.248 1.163.312.504.468 1.104.468 1.8ZM37.3 85.946c-.352 0-.648.1-.888.3-.232.2-.38.472-.444.816h2.664a1.342 1.342 0 0 0-.456-.816c-.232-.2-.524-.3-.876-.3Zm10.282.3h-2.088v4.692h-2.268v-4.691h-2.1v-1.813h6.456v1.813Zm12.068 2.868v3.168h-2.112v-1.344h-4.092v1.344h-2.124v-3.168h.24c.392-.007.663-.22.816-.635.151-.424.243-1.016.276-1.776l.083-2.269h6.012v4.68h.9Zm-4.944-2.243a10.626 10.626 0 0 1-.133 1.403c-.063.353-.184.633-.36.84h2.256v-2.867h-1.74l-.023.624Zm9.127 4.175c-.696 0-1.324-.144-1.884-.431-.56-.288-1-.689-1.32-1.2a3.277 3.277 0 0 1-.468-1.74c0-.64.156-1.217.468-1.729.32-.511.756-.907 1.308-1.188.56-.288 1.192-.431 1.896-.431s1.336.144 1.896.431c.56.28.996.676 1.308 1.188.312.505.468 1.08.468 1.729 0 .647-.156 1.227-.468 1.74a3.219 3.219 0 0 1-1.308 1.2c-.56.287-1.192.431-1.896.431Zm0-1.811c.4 0 .728-.136.984-.408.256-.28.384-.664.384-1.152 0-.48-.128-.857-.384-1.129s-.584-.407-.984-.407-.728.135-.984.407c-.256.272-.384.648-.384 1.129 0 .487.128.871.384 1.151.256.272.584.409.984.409Zm8.006 1.812c-.72 0-1.364-.145-1.932-.433a3.285 3.285 0 0 1-1.332-1.2 3.277 3.277 0 0 1-.468-1.74c0-.648.156-1.224.468-1.728.32-.511.764-.907 1.332-1.188.568-.288 1.212-.431 1.932-.431.736 0 1.372.16 1.908.48.536.312.916.748 1.14 1.308l-1.764.9c-.296-.584-.728-.876-1.296-.876-.408 0-.748.135-1.02.407-.264.272-.396.648-.396 1.129 0 .487.132.871.396 1.151.272.272.612.409 1.02.409.568 0 1-.292 1.296-.876l1.764.9c-.224.56-.604 1-1.14 1.32-.536.311-1.172.468-1.908.468Zm9.833-4.8h-2.088v4.692h-2.268v-4.692h-2.1v-1.813h6.456v1.813Zm7.89-1.813-2.809 6.768c-.328.8-.728 1.36-1.2 1.68-.472.329-1.048.493-1.728.493a3.43 3.43 0 0 1-1.044-.168 2.43 2.43 0 0 1-.84-.42l.792-1.597c.128.12.28.213.456.277.184.072.368.108.552.108a.957.957 0 0 0 .528-.132.995.995 0 0 0 .36-.42l-2.784-6.589h2.34l1.596 3.972 1.608-3.972h2.172Zm7.46 0v6.504h-2.269v-4.691H92.57v4.692h-2.268v-6.505h6.72Zm1.553 0h2.268v2.412h2.34v-2.412h2.28v6.504h-2.28v-2.28h-2.34v2.28h-2.268v-6.504Zm12.145 2.016c.856.008 1.5.2 1.932.576.432.376.648.912.648 1.608 0 .729-.252 1.297-.756 1.705-.496.408-1.2.608-2.112.6H107v-6.505h2.268v2.016h1.452Zm3.132-2.016h2.268v6.504h-2.268v-6.504Zm-3.648 4.944c.576 0 .864-.26.864-.78 0-.255-.072-.444-.216-.563-.144-.12-.36-.184-.648-.193h-.936v1.525l.936.011Zm11.576 1.56-1.164-1.703-1.248 1.704h-2.472l2.472-3.252-2.4-3.253h2.568l1.152 1.644 1.2-1.644h2.412l-2.4 3.168 2.484 3.337h-2.604Zm-70.326 9.072c.632 0 1.18.124 1.644.372.464.24.816.588 1.056 1.044.248.448.372.972.372 1.572 0 .616-.16 1.16-.48 1.632-.312.464-.748.828-1.308 1.092-.552.256-1.176.385-1.872.385-1.144 0-2.056-.357-2.736-1.069-.68-.712-1.02-1.78-1.02-3.204 0-2.671 1.184-4.231 3.552-4.68l3.156-.6.312 1.909-2.736.516c-.696.128-1.208.336-1.536.624-.32.28-.512.687-.576 1.223.584-.544 1.308-.816 2.172-.816Zm-.576 4.368c.408 0 .728-.132.96-.396.24-.264.36-.592.36-.984 0-.416-.12-.74-.36-.972-.24-.24-.56-.36-.96-.36-.408 0-.736.12-.984.36-.24.24-.36.568-.36.984 0 .4.124.728.372.984s.572.384.972.384Zm7.904 1.669c-.695 0-1.323-.144-1.883-.433-.56-.288-1-.688-1.32-1.2a3.277 3.277 0 0 1-.468-1.74c0-.64.156-1.216.468-1.728.32-.512.755-.908 1.307-1.188.56-.288 1.192-.431 1.896-.431.705 0 1.337.144 1.897.431.56.28.995.676 1.307 1.188.313.504.469 1.08.469 1.728 0 .648-.157 1.228-.468 1.74a3.219 3.219 0 0 1-1.309 1.2c-.56.289-1.191.433-1.895.433Zm0-1.813c.4 0 .729-.136.985-.408.255-.28.383-.664.383-1.152 0-.48-.127-.856-.383-1.128-.257-.272-.585-.408-.985-.408s-.727.136-.983.408c-.257.272-.385.648-.385 1.128 0 .488.128.872.384 1.152.256.272.584.408.984.408Zm4.742-4.8h2.268v2.412h2.34v-2.412h2.28v6.505h-2.28v-2.281h-2.34v2.281h-2.268v-6.505Zm15.362 0-2.808 6.769c-.328.8-.728 1.36-1.2 1.68-.472.328-1.048.492-1.728.492a3.43 3.43 0 0 1-1.044-.168 2.43 2.43 0 0 1-.84-.42l.792-1.596c.128.12.28.212.456.276.184.072.368.108.552.108a.957.957 0 0 0 .528-.132.995.995 0 0 0 .36-.42l-2.784-6.589h2.34l1.596 3.972 1.608-3.972h2.172Zm3.828 6.613c-.72 0-1.364-.144-1.932-.433a3.285 3.285 0 0 1-1.332-1.2 3.277 3.277 0 0 1-.468-1.74c0-.648.156-1.224.468-1.728.32-.512.764-.908 1.332-1.188.568-.288 1.212-.431 1.932-.431.736 0 1.372.16 1.908.48.536.311.916.747 1.14 1.307l-1.764.9c-.296-.584-.728-.876-1.296-.876-.408 0-.748.136-1.02.408-.264.272-.396.648-.396 1.128 0 .488.132.872.396 1.152.272.272.612.408 1.02.408.568 0 1-.292 1.296-.876l1.764.9c-.224.56-.604 1-1.14 1.32-.536.312-1.172.469-1.908.469Zm7.135 0c-.696 0-1.324-.144-1.884-.433-.56-.288-1-.688-1.32-1.2a3.277 3.277 0 0 1-.468-1.74c0-.64.156-1.216.468-1.728.32-.512.756-.908 1.308-1.188.56-.288 1.192-.431 1.896-.431s1.336.144 1.896.431c.56.28.996.676 1.308 1.188.312.504.468 1.08.468 1.728 0 .648-.156 1.228-.468 1.74a3.219 3.219 0 0 1-1.308 1.2c-.56.289-1.192.433-1.896.433Zm0-1.813c.4 0 .728-.136.984-.408.256-.28.384-.664.384-1.152 0-.48-.128-.856-.384-1.128-.256-.272-.584-.408-.984-.408s-.728.136-.984.408c-.256.272-.384.648-.384 1.128 0 .488.128.872.384 1.152.256.272.584.408.984.408Zm9.985-1.704c.744.248 1.116.76 1.116 1.536 0 .584-.228 1.044-.684 1.38-.456.328-1.128.493-2.016.493h-3.66v-6.505h3.492c.848 0 1.504.148 1.968.444.472.296.708.712.708 1.248 0 .312-.08.588-.24.828-.16.24-.388.432-.684.576Zm-3.204-.48h1.248c.528 0 .792-.196.792-.588 0-.376-.264-.564-.792-.564H96.63v1.152Zm1.416 2.412c.552 0 .828-.2.828-.6 0-.4-.268-.6-.804-.6h-1.44v1.2h1.416Z"/>
    <defs>
        <linearGradient id="b" x1="1.798" x2="1.798" y1="195.205" y2="-22.634" gradientUnits="userSpaceOnUse">
            <stop stop-color="#6E85CF"/>
            <stop offset=".223" stop-color="#6E85CF" stop-opacity="0"/>
            <stop offset=".746" stop-color="#6E85CF" stop-opacity="0"/>
            <stop offset="1" stop-color="#6E85CF"/>
        </linearGradient>
        <filter id="a" width="155" height="191" x="-4" y="-3.063" colorInterpolationFilters="sRGB"            filterUnits="userSpaceOnUse">
            <feFlood floodOpacity="0" result="BackgroundImageFix"/>
            <feGaussianBlur in="BackgroundImageFix" stdDeviation="2"/>
            <feComposite in2="SourceAlpha" operator="in" result="effect1_backgroundBlur_11254_84161"/>
            <feBlend in="SourceGraphic" in2="effect1_backgroundBlur_11254_84161" result="shape"/>
        </filter>
    </defs>
</svg>