<svg width="20" height="20" viewBox="0 0 20 20" fill="none" xmlns="http://www.w3.org/2000/svg">
<path d="M17.97 0.75H15.03C13.76 0.75 13 1.51 13 2.78V5.72C13 6.99 13.76 7.75 15.03 7.75H17.97C19.24 7.75 20 6.99 20 5.72V2.78C20 1.51 19.24 0.75 17.97 0.75ZM18.19 4.06C18.07 4.18 17.91 4.24 17.75 4.24C17.59 4.24 17.43 4.18 17.31 4.06L17.13 3.88V6.12C17.13 6.47 16.85 6.75 16.5 6.75C16.15 6.75 15.87 6.47 15.87 6.12V3.88L15.69 4.06C15.45 4.3 15.05 4.3 14.81 4.06C14.57 3.82 14.57 3.42 14.81 3.18L16.06 1.93C16.11 1.88 16.18 1.84 16.25 1.81C16.27 1.8 16.29 1.8 16.31 1.79C16.36 1.77 16.41 1.76 16.47 1.76C16.49 1.76 16.51 1.76 16.53 1.76C16.6 1.76 16.66 1.77 16.73 1.8C16.74 1.8 16.74 1.8 16.75 1.8C16.82 1.83 16.88 1.87 16.93 1.92C16.94 1.93 16.94 1.93 16.95 1.93L18.2 3.18C18.44 3.42 18.44 3.82 18.19 4.06Z" fill="#25B40D"/>
<path d="M0 10.46V15.46C0 17.75 1.85 19.6 4.14 19.6H15.85C18.14 19.6 20 17.74 20 15.45V10.46C20 9.79 19.46 9.25 18.79 9.25H1.21C0.54 9.25 0 9.79 0 10.46ZM6 16.25H4C3.59 16.25 3.25 15.91 3.25 15.5C3.25 15.09 3.59 14.75 4 14.75H6C6.41 14.75 6.75 15.09 6.75 15.5C6.75 15.91 6.41 16.25 6 16.25ZM12.5 16.25H8.5C8.09 16.25 7.75 15.91 7.75 15.5C7.75 15.09 8.09 14.75 8.5 14.75H12.5C12.91 14.75 13.25 15.09 13.25 15.5C13.25 15.91 12.91 16.25 12.5 16.25Z" fill="#25B40D"/>
<path d="M11.5 3.61V6.54C11.5 7.21 10.96 7.75 10.29 7.75H1.21C0.53 7.75 0 7.19 0 6.52C0.01 5.39 0.46 4.36 1.21 3.61C1.96 2.86 3 2.4 4.14 2.4H10.29C10.96 2.4 11.5 2.94 11.5 3.61Z" fill="#25B40D"/>
</svg>
