<svg width="261" height="316" viewBox="0 0 261 316" fill="none" xmlns="http://www.w3.org/2000/svg">
<g filter="url(#filter0_b_6924_92589)">
<path d="M25 309.983C22.2386 309.983 20 307.745 20 304.983L20 11.9998C20 9.2384 22.2386 6.99982 25 6.99982L57 6.99982L57 309.983L25 309.983Z" fill="url(#paint0_linear_6924_92589)"/>
<path d="M25 308.983C22.7909 308.983 21 307.193 21 304.983L21 11.9998C21 9.79068 22.7908 7.99982 25 7.99982L56 7.99982L56 308.983L25 308.983Z" stroke="url(#paint1_linear_6924_92589)" stroke-width="2"/>
</g>
<g filter="url(#filter1_b_6924_92589)">
<path d="M235 7C237.761 7 240 9.23858 240 12L240 304.984C240 307.745 237.761 309.984 235 309.984L203 309.984L203 7L235 7Z" fill="url(#paint2_linear_6924_92589)"/>
<path d="M235 8C237.209 8 239 9.79086 239 12L239 304.984C239 307.193 237.209 308.984 235 308.984L204 308.984L204 8L235 8Z" stroke="url(#paint3_linear_6924_92589)" stroke-width="2"/>
</g>
<mask id="path-5-inside-1_6924_92589" fill="white">
<path fill-rule="evenodd" clip-rule="evenodd" d="M17 10C17 4.47715 21.4772 0 27 0H233C238.523 0 243 4.47715 243 10V116.123C243 119.396 241.398 122.462 238.711 124.332L236.289 126.016C233.602 127.885 232 130.952 232 134.225V157V160V182.775C232 186.048 233.602 189.115 236.289 190.984L238.711 192.668C241.398 194.538 243 197.604 243 200.877V306C243 311.523 238.523 316 233 316H27C21.4772 316 17 311.523 17 306V200.877C17 197.604 18.6021 194.538 21.2894 192.668L23.7106 190.984C26.3979 189.115 28 186.048 28 182.775L28 160V157L28 134.225C28 130.952 26.3979 127.885 23.7106 126.016L21.2894 124.332C18.6021 122.462 17 119.396 17 116.123V10Z"/>
</mask>
<g filter="url(#filter2_i_6924_92589)">
<path fill-rule="evenodd" clip-rule="evenodd" d="M17 10C17 4.47715 21.4772 0 27 0H233C238.523 0 243 4.47715 243 10V116.123C243 119.396 241.398 122.462 238.711 124.332L236.289 126.016C233.602 127.885 232 130.952 232 134.225V157V160V182.775C232 186.048 233.602 189.115 236.289 190.984L238.711 192.668C241.398 194.538 243 197.604 243 200.877V306C243 311.523 238.523 316 233 316H27C21.4772 316 17 311.523 17 306V200.877C17 197.604 18.6021 194.538 21.2894 192.668L23.7106 190.984C26.3979 189.115 28 186.048 28 182.775L28 160V157L28 134.225C28 130.952 26.3979 127.885 23.7106 126.016L21.2894 124.332C18.6021 122.462 17 119.396 17 116.123V10Z" fill="#090E1C"/>
</g>
<path d="M28 160H30H28ZM28 157H26H28ZM21.2894 124.332L22.4315 122.69L21.2894 124.332ZM21.2894 192.668L20.1472 191.026L21.2894 192.668ZM238.711 192.668L237.569 194.31L238.711 192.668ZM23.7106 126.016L22.5685 127.658L23.7106 126.016ZM236.289 126.016L235.147 124.374L236.289 126.016ZM238.711 124.332L239.853 125.974L238.711 124.332ZM236.289 190.984L237.431 189.342L236.289 190.984ZM23.7106 190.984L24.8528 192.626L23.7106 190.984ZM233 -2H27V2H233V-2ZM245 116.123V10H241V116.123H245ZM237.431 127.658L239.853 125.974L237.569 122.69L235.147 124.374L237.431 127.658ZM234 157V134.225H230V157H234ZM234 160V157H230V160H234ZM234 182.775V160H230V182.775H234ZM239.853 191.026L237.431 189.342L235.147 192.626L237.569 194.31L239.853 191.026ZM245 306V200.877H241V306H245ZM27 318H233V314H27V318ZM15 200.877V306H19V200.877H15ZM22.4315 194.31L24.8528 192.626L22.5685 189.342L20.1472 191.026L22.4315 194.31ZM30 182.775L30 160H26L26 182.775H30ZM30 160V157H26V160H30ZM30 157L30 134.225H26L26 157H30ZM24.8528 124.374L22.4315 122.69L20.1472 125.974L22.5685 127.658L24.8528 124.374ZM15 10V116.123H19V10H15ZM22.4315 122.69C20.2817 121.194 19 118.741 19 116.123H15C15 120.051 16.9226 123.73 20.1472 125.974L22.4315 122.69ZM19 200.877C19 198.259 20.2817 195.806 22.4315 194.31L20.1472 191.026C16.9226 193.27 15 196.949 15 200.877H19ZM27 314C22.5817 314 19 310.418 19 306H15C15 312.627 20.3726 318 27 318V314ZM241 306C241 310.418 237.418 314 233 314V318C239.627 318 245 312.627 245 306H241ZM237.569 194.31C239.718 195.806 241 198.259 241 200.877H245C245 196.949 243.077 193.27 239.853 191.026L237.569 194.31ZM30 134.225C30 130.297 28.0774 126.618 24.8528 124.374L22.5685 127.658C24.7183 129.153 26 131.606 26 134.225H30ZM235.147 124.374C231.923 126.618 230 130.297 230 134.225H234C234 131.606 235.282 129.153 237.431 127.658L235.147 124.374ZM241 116.123C241 118.741 239.718 121.194 237.569 122.69L239.853 125.974C243.077 123.73 245 120.051 245 116.123H241ZM230 182.775C230 186.703 231.923 190.382 235.147 192.626L237.431 189.342C235.282 187.847 234 185.394 234 182.775H230ZM27 -2C20.3726 -2 15 3.37258 15 10H19C19 5.58172 22.5817 2 27 2V-2ZM24.8528 192.626C28.0774 190.382 30 186.703 30 182.775H26C26 185.394 24.7183 187.847 22.5685 189.342L24.8528 192.626ZM233 2C237.418 2 241 5.58172 241 10H245C245 3.37258 239.627 -2 233 -2V2Z" fill="url(#paint4_linear_6924_92589)" mask="url(#path-5-inside-1_6924_92589)"/>
<mask id="mask0_6924_92589" style="mask-type:alpha" maskUnits="userSpaceOnUse" x="19" y="2" width="222" height="312">
<path fill-rule="evenodd" clip-rule="evenodd" d="M19 12C19 6.47715 23.4771 2 29 2H231C236.523 2 241 6.47715 241 12V116.602C241 119.867 239.406 122.927 236.73 124.798L234.465 126.382C231.789 128.253 230.195 131.312 230.195 134.577V157.013V159.975V182.41C230.195 185.675 231.789 188.735 234.465 190.606L236.73 192.19C239.406 194.061 241 197.12 241 200.385V304C241 309.523 236.523 314 231 314H29C23.4772 314 19 309.523 19 304V200.386C19 197.121 20.5939 194.062 23.2697 192.191L25.537 190.606C28.2127 188.735 29.8066 185.675 29.8066 182.41L29.8066 157.013L29.8066 134.577C29.8066 131.312 28.2127 128.253 25.537 126.382L23.2697 124.796C20.5939 122.925 19 119.866 19 116.601V12Z" fill="#090E1C"/>
</mask>
<g mask="url(#mask0_6924_92589)">
<rect x="18" y="317" width="317" height="113" transform="rotate(-90 18 317)" fill="#060911"/>
<g opacity="0.2">
<g style="mix-blend-mode:multiply" opacity="0.5">
<path d="M130.5 126.965L62.8558 158L75.7902 92.1373L21 45.5139L96.6779 35.8943L130.5 -24L164.322 35.8943L240 45.5139L185.29 92.1373L198.225 158L130.5 126.965Z" fill="#DE5634"/>
</g>
<path d="M232.739 47.0166L196.168 42.3724L186.202 41.1058L162.491 38.08L131.064 -17.6504L99.6369 38.08L29.4688 47.0166L80.2663 90.3625L68.2903 151.652L131.064 122.731L193.918 151.652L181.942 90.3625L232.739 47.0166Z" fill="url(#paint5_linear_6924_92589)"/>
<path style="mix-blend-mode:multiply" opacity="0.37" d="M29.4688 47.9531L132.314 71.6874L80.0524 91.3368L29.4688 47.9531Z" fill="url(#paint6_linear_6924_92589)"/>
<path style="mix-blend-mode:multiply" opacity="0.37" d="M231.532 47.9531L132.316 71.6874L181.045 91.3368L231.532 47.9531Z" fill="url(#paint7_linear_6924_92589)"/>
<path style="mix-blend-mode:multiply" opacity="0.37" d="M130.56 122.911L132.315 71.2334L68.1875 151.652L130.56 122.911Z" fill="url(#paint8_linear_6924_92589)"/>
<path style="mix-blend-mode:multiply" opacity="0.37" d="M192.812 151.652L131.667 71.2334L129.895 122.911L192.812 151.652Z" fill="url(#paint9_linear_6924_92589)"/>
<path style="mix-blend-mode:color-dodge" opacity="0.5" d="M129.895 -17.6504L131.669 71.2333L161.353 38.3973L129.895 -17.6504Z" fill="url(#paint10_linear_6924_92589)"/>
<path style="mix-blend-mode:color-dodge" opacity="0.5" d="M231.532 47.4079L132.316 71.232L161.714 38.4297L231.532 47.4079Z" fill="url(#paint11_linear_6924_92589)"/>
<path style="mix-blend-mode:color-dodge" opacity="0.5" d="M231.532 47.4079L132.316 71.232L161.714 38.4297L231.532 47.4079Z" fill="url(#paint12_linear_6924_92589)"/>
<path style="mix-blend-mode:color-dodge" opacity="0.5" d="M99.3109 38.4297L132.314 71.232L29.4688 47.4079L99.3109 38.4297Z" fill="url(#paint13_linear_6924_92589)"/>
<path d="M161.517 57.8466C156.225 61.4331 160.703 63.824 160.703 63.824L187.972 57.8466C184.14 55.5433 179.504 54.3008 174.744 54.3008C169.984 54.3008 165.349 55.5433 161.517 57.8466Z" fill="white"/>
<g style="mix-blend-mode:multiply" opacity="0.5">
<path d="M68.1875 151.652C68.1875 151.652 115.848 131.949 131.064 126.53L194.022 151.652L131.064 123.082L68.1875 151.652Z" fill="#DE5634"/>
</g>
<g style="mix-blend-mode:soft-light" opacity="0.4">
<path d="M106.823 28.6756C100.035 44.7466 125.962 55.9476 129.397 51.008C132.832 46.0685 130.706 18.5182 126.371 14.8309C122.036 11.1436 109.604 22.1359 106.823 28.6756Z" fill="#F7FFFF"/>
</g>
<g style="mix-blend-mode:soft-light" opacity="0.4">
<path d="M86.6799 112.366C99.9748 114.005 107.37 100.325 110.28 90.992C114.607 75.8164 62.6075 109.801 86.6799 112.366Z" fill="#F7FFFF"/>
</g>
</g>
</g>
<g filter="url(#filter3_f_6924_92589)">
<ellipse cx="130.5" cy="158" rx="55.5" ry="52" fill="#FF5C00"/>
</g>
<path fill-rule="evenodd" clip-rule="evenodd" d="M219.926 20.509V23.7297H221.865C222.936 23.7297 223.804 24.5949 223.804 25.6622V33.3919C223.804 34.4592 222.936 35.3244 221.865 35.3244H208.939C207.868 35.3244 207 34.4592 207 33.3919V25.6622C207 24.5949 207.868 23.7297 208.939 23.7297H210.878V20.509C210.878 18.0188 212.903 16 215.402 16C217.9 16 219.926 18.0188 219.926 20.509ZM212.17 20.509C212.17 18.7303 213.617 17.2883 215.402 17.2883C217.187 17.2883 218.633 18.7303 218.633 20.509V23.7297H212.17V20.509Z" fill="white"/>
<circle cx="215.403" cy="28.6023" r="1.68038" fill="black"/>
<rect x="214.562" y="28.6025" width="1.68038" height="4.20095" fill="black"/>
<path d="M79.0859 168.539V207.456L97.842 196.606L98.7828 169.527L79.0859 168.539Z" fill="url(#paint14_linear_6924_92589)"/>
<path d="M79.0859 200.217L97.9868 190.808L97.842 194.177L79.0859 205.027V200.217Z" fill="url(#paint15_linear_6924_92589)"/>
<path style="mix-blend-mode:multiply" opacity="0.8" d="M79.5563 185.767C80.654 181.585 82.8492 184.501 82.8492 190.414C82.8492 196.327 82.0773 205.679 82.0773 205.679L83.7659 204.517C83.7659 204.517 83.6574 189.113 84.4896 187.254C85.3219 185.396 89.8451 186.023 89.8451 201.195L97.842 196.548L98.7828 169.469L79.0859 168.481V189.891L79.5563 185.767Z" fill="url(#paint16_linear_6924_92589)"/>
<path d="M181.912 168.539V207.456L163.156 196.606L162.215 169.527L181.912 168.539Z" fill="url(#paint17_linear_6924_92589)"/>
<path d="M181.912 200.217L163.023 190.808L163.156 194.177L181.912 205.027V200.217Z" fill="url(#paint18_linear_6924_92589)"/>
<path style="mix-blend-mode:multiply" opacity="0.8" d="M181.453 185.767C180.344 181.585 178.148 184.501 178.148 190.414C178.148 196.327 178.92 205.679 178.92 205.679L177.232 204.517C177.232 204.517 177.34 189.113 176.508 187.254C175.676 185.396 171.165 186.023 171.165 201.195L163.156 196.548L162.215 169.469L181.912 168.481V189.891L181.453 185.767Z" fill="url(#paint19_linear_6924_92589)"/>
<path d="M125.61 196.827V234.965C113.644 228.843 95.6602 211.127 95.6602 211.127V184.757L125.61 196.827Z" fill="url(#paint20_linear_6924_92589)"/>
<path d="M125.61 224.858V232.537C113.644 226.45 95.6602 208.699 95.6602 208.699V202.124C99.7732 207.224 108.59 215.902 125.61 224.858Z" fill="url(#paint21_linear_6924_92589)"/>
<path d="M135.812 196.827V234.965C147.778 228.878 165.81 211.127 165.81 211.127V184.757L135.812 196.827Z" fill="url(#paint22_linear_6924_92589)"/>
<path d="M135.812 224.858V232.537C147.778 226.45 165.81 208.699 165.81 208.699V202.124C161.649 207.224 152.832 215.902 135.812 224.858Z" fill="url(#paint23_linear_6924_92589)"/>
<path style="mix-blend-mode:multiply" opacity="0.8" d="M98.4102 213.811C98.4102 213.811 98.1328 196.304 100.979 196.606C103.826 196.908 108.699 199.685 109.76 202.856C110.822 206.027 110.52 224.463 110.52 224.463L111.594 225.323C111.594 225.323 110.267 202.937 112.474 204.041C114.115 204.809 115.536 205.951 116.615 207.368C117.693 208.785 118.396 210.435 118.662 212.173C119.687 217.168 119.989 231.712 119.989 231.712L125.61 234.954V196.827L95.6602 184.757V211.127L98.4102 213.811Z" fill="url(#paint24_linear_6924_92589)"/>
<path style="mix-blend-mode:multiply" opacity="0.8" d="M163 213.811C163 213.811 163.241 193.295 160.394 193.597C157.548 193.899 157.439 204.285 157.439 207.456C157.439 210.628 156.993 219.282 156.993 219.282L155.389 220.711C155.389 220.711 155.618 197.384 153.411 198.476C151.203 199.568 141.494 206.771 140.48 211.766C139.467 216.761 139.841 232.677 139.841 232.677L135.812 235V196.827L165.81 184.757V211.127L163 213.811Z" fill="url(#paint25_linear_6924_92589)"/>
<path d="M142.809 138.729L208.702 138.322L202.551 148.963L146.198 150.462L142.809 138.729Z" fill="url(#paint26_linear_6924_92589)"/>
<path d="M202.817 138.322L195.182 138.369L188.645 149.265L196.485 149.056L202.817 138.322Z" fill="url(#paint27_linear_6924_92589)"/>
<g style="mix-blend-mode:multiply" opacity="0.5">
<path d="M145.703 147.14L204.348 145.839L202.55 148.964L146.198 150.462L145.703 147.14Z" fill="#DE5634"/>
</g>
<g style="mix-blend-mode:soft-light" opacity="0.4">
<path d="M180.163 139.263C179.668 139.786 181.96 145.327 182.901 145.165C183.842 145.002 202.863 145.327 203.719 144.758C204.576 144.189 207.76 139.519 207.073 138.95C206.385 138.38 180.645 138.764 180.163 139.263Z" fill="#FFDF66"/>
</g>
<g style="mix-blend-mode:multiply" opacity="0.5">
<path d="M178.885 138.463C178.885 138.463 181.298 144.945 181.394 146.362C181.347 147.485 181.033 148.581 180.478 149.569L146.198 150.475L142.809 138.742L178.885 138.463Z" fill="#DE5634"/>
</g>
<path d="M118.612 138.729L52.7188 138.322L58.8703 148.963L115.223 150.462L118.612 138.729Z" fill="url(#paint28_linear_6924_92589)"/>
<path d="M58.4609 138.371L66.0961 138.418L72.6335 149.314L64.7934 149.105L58.4609 138.371Z" fill="url(#paint29_linear_6924_92589)"/>
<g style="mix-blend-mode:multiply" opacity="0.5">
<path d="M115.719 147.14L57.0742 145.839L58.8714 148.964L115.224 150.462L115.719 147.14Z" fill="#DE5634"/>
</g>
<g style="mix-blend-mode:soft-light" opacity="0.4">
<path d="M80.7859 139.033C82.3901 140.554 79.4953 145.619 78.5545 145.445C77.6136 145.271 58.556 145.329 57.6996 144.76C56.8432 144.19 53.6589 139.52 54.3464 138.951C55.034 138.382 79.8451 138.231 80.7859 139.033Z" fill="#FFDF66"/>
</g>
<g style="mix-blend-mode:multiply" opacity="0.5">
<path d="M82.5979 138.463C82.5979 138.463 80.1131 144.945 79.9805 146.362C80.0278 147.485 80.3414 148.581 80.8972 149.569L115.177 150.475L118.578 138.73L82.5979 138.463Z" fill="#DE5634"/>
</g>
<path d="M150.117 125.009L215.999 124.603L209.847 135.255L153.494 136.754L150.117 125.009Z" fill="url(#paint30_linear_6924_92589)"/>
<path d="M210.524 124.628L202.889 124.674L196.352 135.571L204.192 135.362L210.524 124.628Z" fill="url(#paint31_linear_6924_92589)"/>
<g style="mix-blend-mode:multiply" opacity="0.5">
<path d="M153.012 133.42L211.656 132.131L209.847 135.256L153.494 136.754L153.012 133.42Z" fill="#DE5634"/>
</g>
<g style="mix-blend-mode:soft-light" opacity="0.4">
<path d="M187.475 125.545C186.981 126.068 189.273 131.609 190.201 131.447C191.13 131.284 210.176 131.609 211.032 131.04C211.888 130.471 215.073 125.801 214.373 125.232C213.674 124.663 187.946 125.046 187.475 125.545Z" fill="#FFDF66"/>
</g>
<g style="mix-blend-mode:multiply" opacity="0.5">
<path d="M177.524 124.85C177.524 124.85 180.008 131.332 180.093 132.738C180.046 133.861 179.728 134.959 179.164 135.944L153.557 136.757L150.18 125.012L177.524 124.85Z" fill="#DE5634"/>
</g>
<path d="M110.894 125.009L45 124.603L51.1515 135.255L107.504 136.754L110.894 125.009Z" fill="url(#paint32_linear_6924_92589)"/>
<path d="M50.668 124.675L58.3031 124.721L64.8406 135.618L57.0004 135.409L50.668 124.675Z" fill="url(#paint33_linear_6924_92589)"/>
<g style="mix-blend-mode:multiply" opacity="0.5">
<path d="M107.988 133.42L49.3438 132.131L51.153 135.256L107.506 136.754L107.988 133.42Z" fill="#DE5634"/>
</g>
<g style="mix-blend-mode:soft-light" opacity="0.4">
<path d="M73.0697 125.313C74.7101 126.811 71.7791 131.9 70.8383 131.725C69.8974 131.551 50.8277 131.609 49.9834 131.04C49.1391 130.471 45.9307 125.801 46.6302 125.232C47.3298 124.662 72.1289 124.453 73.0697 125.313Z" fill="#FFDF66"/>
</g>
<g style="mix-blend-mode:multiply" opacity="0.5">
<path d="M83.8504 124.85C82.8278 127.426 81.9698 130.06 81.2812 132.738C81.3398 133.848 81.6573 134.932 82.21 135.909L107.54 136.722L110.929 124.977L83.8504 124.85Z" fill="#DE5634"/>
</g>
<path style="mix-blend-mode:multiply" opacity="0.37" d="M114.366 111.908C111.893 113.836 87.2145 126.859 86.8889 127.695C86.4667 128.787 89.7354 133.84 91.2914 133.422C92.8474 133.004 122.194 116.973 122.266 116.217C122.338 115.462 122.399 111.292 121.687 111.025C120.975 110.758 115.318 111.164 114.366 111.908Z" fill="url(#paint34_linear_6924_92589)"/>
<g style="mix-blend-mode:soft-light" opacity="0.4">
<path d="M111.113 110.594C109.496 110.698 89.4013 123.14 89.4013 123.5C89.4013 123.86 85.8552 125.963 86.7116 125.916C87.5679 125.87 112.982 111.999 113.018 111.511C113.055 111.023 111.981 110.536 111.113 110.594Z" fill="#FFDF66"/>
</g>
<g style="mix-blend-mode:soft-light" opacity="0.4">
<path d="M85.8281 127.694C85.8281 127.694 99.2288 121.188 106.092 117.029C112.955 112.87 114.366 111.906 114.366 111.906L85.8281 127.694Z" fill="#FFDF66"/>
</g>
<path style="mix-blend-mode:multiply" opacity="0.37" d="M147.054 111.908C149.466 113.871 174.193 126.859 174.531 127.695C174.953 128.787 171.684 133.84 170.128 133.422C168.572 133.004 139.214 116.973 139.153 116.217C139.093 115.462 139.021 111.292 139.732 111.025C140.444 110.758 146.101 111.164 147.054 111.908Z" fill="url(#paint35_linear_6924_92589)"/>
<g style="mix-blend-mode:soft-light" opacity="0.4">
<path d="M150.313 110.594C151.929 110.698 172.024 123.14 172.024 123.5C172.024 123.86 175.57 125.963 174.714 125.916C173.858 125.87 148.443 111.999 148.407 111.511C148.371 111.023 149.444 110.536 150.313 110.594Z" fill="#FFDF66"/>
</g>
<g style="mix-blend-mode:soft-light" opacity="0.4">
<path d="M175.593 127.694C175.593 127.694 162.18 121.188 155.329 117.029C148.478 112.87 147.055 111.906 147.055 111.906L175.593 127.694Z" fill="#FFDF66"/>
</g>
<path d="M87.4701 178.065C87.3615 178.437 71.0419 172.977 71.0419 172.977C66.8933 166.978 63.4506 160.553 60.7773 153.82H88.6521L87.4701 178.065Z" fill="url(#paint36_linear_6924_92589)"/>
<path d="M66.0977 153.82C66.0977 153.82 72.599 166.773 73.7931 168.167L87.8933 168.539V167.61C87.8933 167.61 74.9872 167.714 74.2514 167.191C73.5157 166.669 66.9179 153.82 66.9179 153.82H66.0977Z" fill="#B33114"/>
<path d="M66.0977 153.82L73.7931 168.167C72.1235 165.874 70.6087 163.48 69.2578 161C68.0778 158.66 67.023 156.264 66.0977 153.82Z" fill="white"/>
<g style="mix-blend-mode:soft-light" opacity="0.4">
<path d="M68.0871 154.703C69.1606 157.793 73.4546 164.821 74.3472 164.821C75.2398 164.821 85.5767 164.647 86.5296 163.218C87.4825 161.789 88.3027 154.842 87.4704 154.703C86.6382 154.564 67.6047 153.332 68.0871 154.703Z" fill="#FFDF66"/>
</g>
<g style="mix-blend-mode:soft-light" opacity="0.4">
<path d="M61.6937 154.366C63.0205 157.398 66.7114 165.112 67.3989 165.205C68.0864 165.298 70.3902 165.576 70.4264 164.647C70.4264 163.172 66.1565 154.564 65.1916 154.366C64.2266 154.169 61.368 153.623 61.6937 154.366Z" fill="#FFDF66"/>
</g>
<path style="mix-blend-mode:multiply" opacity="0.37" d="M68.0732 166.217C67.9525 167.181 71.6917 172.118 72.2827 172.513C72.8738 172.908 85.418 176.8 86.2382 176.242C87.0584 175.685 87.4444 165.508 86.8051 165.218C86.1659 164.927 68.2179 165.16 68.0732 166.217Z" fill="url(#paint37_linear_6924_92589)"/>
<g style="mix-blend-mode:multiply" opacity="0.5">
<path d="M79.2812 153.82C80.6265 161.221 81.2163 168.73 81.0423 176.241L87.4712 178.065L88.6774 153.82H79.2812Z" fill="#DE5634"/>
</g>
<path d="M173.952 178.065C174.06 178.437 190.38 172.977 190.38 172.977C194.512 166.975 197.938 160.551 200.596 153.82H172.77L173.952 178.065Z" fill="url(#paint38_linear_6924_92589)"/>
<path d="M195.327 153.82C195.327 153.82 188.826 166.773 187.631 168.167L173.531 168.539V167.61C173.531 167.61 186.437 167.714 187.173 167.191C187.909 166.669 194.567 153.82 194.567 153.82H195.327Z" fill="#B33114"/>
<path d="M195.324 153.82L187.629 168.167C189.294 165.874 190.805 163.48 192.152 161C193.336 158.66 194.395 156.264 195.324 153.82Z" fill="white"/>
<g style="mix-blend-mode:soft-light" opacity="0.4">
<path d="M193.36 154.703C192.287 157.793 187.993 164.821 187.1 164.821C186.208 164.821 175.871 164.647 174.918 163.218C173.965 161.789 173.145 154.842 173.977 154.703C174.809 154.564 193.819 153.332 193.36 154.703Z" fill="#FFDF66"/>
</g>
<g style="mix-blend-mode:soft-light" opacity="0.4">
<path d="M199.729 154.366C198.402 157.398 194.711 165.112 194.024 165.205C193.336 165.298 191.032 165.576 190.996 164.647C190.996 163.172 195.266 154.564 196.219 154.366C197.172 154.169 200.054 153.623 199.729 154.366Z" fill="#FFDF66"/>
</g>
<path style="mix-blend-mode:multiply" opacity="0.37" d="M193.36 166.217C193.481 167.181 189.742 172.118 189.151 172.513C188.56 172.908 176.016 176.8 175.195 176.242C174.375 175.685 173.989 165.508 174.628 165.218C175.268 164.927 193.204 165.16 193.36 166.217Z" fill="url(#paint39_linear_6924_92589)"/>
<g style="mix-blend-mode:multiply" opacity="0.5">
<path d="M182.142 153.82C180.797 161.221 180.207 168.73 180.381 176.241L173.952 178.065L172.746 153.82H182.142Z" fill="#DE5634"/>
</g>
<path d="M151.591 111.197C151.301 110.93 163.906 99.5805 163.906 99.5805C171.346 98.8251 178.851 98.8718 186.281 99.7199L173.326 123.465L151.591 111.197Z" fill="url(#paint40_linear_6924_92589)"/>
<path d="M183.806 104.24C183.806 104.24 168.885 103.763 167.04 104.135L160.152 115.984L161.009 116.414C161.009 116.414 166.907 105.355 167.727 104.983C168.547 104.611 183.407 104.983 183.407 104.983L183.806 104.24Z" fill="#B33114"/>
<path d="M183.432 104.938H168.102C168.102 104.938 171.72 105.332 175.592 105.414C178.214 105.43 180.833 105.271 183.432 104.938Z" fill="white"/>
<path style="mix-blend-mode:multiply" opacity="0.37" d="M182.081 105.529C178.728 105.006 170.272 105.389 169.862 106.156C169.452 106.923 164.796 115.821 165.677 117.297C166.557 118.772 172.552 122.699 173.059 122.06C173.565 121.421 183.565 105.761 182.081 105.529Z" fill="url(#paint41_linear_6924_92589)"/>
<path style="mix-blend-mode:multiply" opacity="0.37" d="M185.363 100.233C181.95 99.954 173.144 99.5126 172.746 100.059C172.348 100.605 171.01 102.44 171.842 102.893C173.181 103.625 183.107 103.95 183.735 103.218C184.362 102.487 186.195 100.303 185.363 100.233Z" fill="url(#paint42_linear_6924_92589)"/>
<g style="mix-blend-mode:soft-light" opacity="0.4">
<path d="M171.492 100.161C170.671 99.6149 164.411 100.486 163.76 100.823C163.109 101.16 153.713 110.035 153.833 110.988C153.954 111.94 163.121 117.052 163.712 116.61C164.303 116.169 172.408 100.777 171.492 100.161Z" fill="#FFDF66"/>
</g>
<g style="mix-blend-mode:multiply" opacity="0.5">
<path d="M174.978 120.435C174.978 120.435 164.725 113.302 155.003 107.865L151.59 111.199L173.301 123.467L174.978 120.435Z" fill="#DE5634"/>
</g>
<path d="M109.834 111.198C110.123 110.931 97.5188 99.5811 97.5188 99.5811C90.0833 98.8188 82.5828 98.8578 75.1562 99.6972L88.0986 123.465L109.834 111.198Z" fill="url(#paint43_linear_6924_92589)"/>
<path d="M77.5664 104.24C77.5664 104.24 92.4868 103.763 94.3323 104.135L101.22 115.984L100.363 116.414C100.363 116.414 94.465 105.355 93.6448 104.983C92.8246 104.611 77.9644 104.983 77.9644 104.983L77.5664 104.24Z" fill="#B33114"/>
<path d="M77.9883 104.938H93.6686C93.6686 104.938 89.0851 105.135 85.2254 105.216C82.8093 105.272 80.392 105.179 77.9883 104.938Z" fill="white"/>
<path style="mix-blend-mode:multiply" opacity="0.37" d="M79.3414 105.529C82.6946 105.006 91.1499 105.389 91.56 106.156C91.9701 106.923 96.6259 115.821 95.7454 117.297C94.8649 118.772 88.8702 122.699 88.3636 122.06C87.857 121.421 77.8578 105.761 79.3414 105.529Z" fill="url(#paint44_linear_6924_92589)"/>
<path style="mix-blend-mode:multiply" opacity="0.37" d="M76.0606 100.233C79.474 99.954 88.2792 99.5126 88.6772 100.059C89.0752 100.605 90.4141 102.44 89.5698 102.893C88.243 103.625 78.3161 103.95 77.6889 103.218C77.0617 102.487 75.2283 100.303 76.0606 100.233Z" fill="url(#paint45_linear_6924_92589)"/>
<g style="mix-blend-mode:soft-light" opacity="0.4">
<path d="M89.9316 100.161C90.7518 99.6149 97.0118 100.486 97.6632 100.823C98.3145 101.16 107.711 110.035 107.59 110.988C107.469 111.94 98.3025 117.052 97.7114 116.61C97.1204 116.169 89.0149 100.777 89.9316 100.161Z" fill="#FFDF66"/>
</g>
<g style="mix-blend-mode:multiply" opacity="0.5">
<path d="M86.4453 120.435C86.4453 120.435 96.6978 113.302 106.42 107.865L109.833 111.199L88.1219 123.467L86.4453 120.435Z" fill="#DE5634"/>
</g>
<path d="M130.891 97.7803L85.2617 123.152V183.687L130.891 209.059L176.521 183.687V123.152L130.891 97.7803Z" fill="url(#paint46_linear_6924_92589)"/>
<path d="M93.5117 179.099V127.741L130.891 106.958L168.271 127.741V179.099L130.891 199.882L93.5117 179.099Z" fill="url(#paint47_linear_6924_92589)"/>
<path d="M96.2617 177.564V129.261L130.891 110.012L165.521 129.261V177.564L130.891 196.825L96.2617 177.564Z" fill="url(#paint48_linear_6924_92589)"/>
<g style="mix-blend-mode:soft-light" opacity="0.4">
<path d="M86.3954 123.313C85.8405 124.94 90.6773 126.938 94.1028 126.229C97.5284 125.521 129.625 107.363 130.409 105.702C130.645 103.443 130.645 101.166 130.409 98.9062C129.275 98.9411 86.6728 122.512 86.3954 123.313Z" fill="#FFDF66"/>
</g>
<g style="mix-blend-mode:soft-light" opacity="0.4">
<path d="M175.16 123.313C175.727 124.94 170.878 126.938 167.465 126.229C164.051 125.521 132.232 107.189 131.146 105.702C130.592 104.947 130.411 98.9062 131.146 98.9062C132.28 98.9411 174.883 122.512 175.16 123.313Z" fill="#FFDF66"/>
</g>
<path style="mix-blend-mode:multiply" opacity="0.37" d="M86.3495 157.735C86.0479 159.547 85.3001 182.467 86.3495 182.642C87.3989 182.816 92.3804 179.552 92.6337 177.995C92.887 176.438 93.0076 160.779 92.6337 159.268C92.2598 157.758 86.8681 154.726 86.3495 157.735Z" fill="url(#paint49_linear_6924_92589)"/>
<path style="mix-blend-mode:multiply" opacity="0.37" d="M175.267 157.735C175.581 159.547 176.329 182.467 175.267 182.642C174.206 182.816 169.236 179.552 168.995 177.995C168.754 176.438 168.621 160.779 168.995 159.268C169.369 157.758 174.736 154.726 175.267 157.735Z" fill="url(#paint50_linear_6924_92589)"/>
<path style="mix-blend-mode:multiply" opacity="0.37" d="M87.4954 183.269C88.0502 184.048 129.145 207.456 129.772 207.456C130.074 207.456 130.496 201.647 130.496 200.985C130.496 199.184 94.1535 180.597 93.5142 180.423C92.5734 180.167 86.9405 182.468 87.4954 183.269Z" fill="url(#paint51_linear_6924_92589)"/>
<path style="mix-blend-mode:multiply" opacity="0.37" d="M174.351 183.885C173.808 184.663 131.942 207.99 131.315 207.99C131.16 205.489 131.209 202.98 131.459 200.485C132.786 199.208 167.44 180.597 168.079 180.423C169.02 180.167 174.918 183.083 174.351 183.885Z" fill="url(#paint52_linear_6924_92589)"/>
<g style="mix-blend-mode:multiply" opacity="0.37">
<path d="M97.8435 176.287C95.4312 162.905 96.77 162.056 114.006 156.399C131.243 150.742 160.396 136.174 162.965 142.459C165.534 148.743 164.642 175.718 164.063 177.182C163.484 178.645 133.378 195.316 130.893 195.362C128.408 195.409 98.0727 177.786 97.8435 176.287Z" fill="#ED8A1D"/>
</g>
<g style="mix-blend-mode:soft-light" opacity="0.4">
<path d="M164.775 129.599C164.16 129.46 132.871 112.046 131.11 112.174C129.349 112.301 107.626 122.118 98.6881 129.599C96.2757 131.574 97.1683 161.127 99.3756 160.581C101.583 160.035 103.211 148.093 127.431 141.379C151.278 134.78 161.651 140.496 164.232 141.518C164.968 141.715 166.162 129.924 164.775 129.599Z" fill="#FFDF66"/>
</g>
<g style="mix-blend-mode:multiply" opacity="0.5">
<path d="M93.5117 179.098V127.775L130.903 106.992L168.271 127.775V179.098L165.521 177.565C165.521 177.565 165.689 132.921 164.688 131.527C161.07 126.532 133.484 114.381 128.937 115.728C124.39 117.076 99.7115 127.194 96.9614 131.434C96.0326 132.863 96.2618 177.565 96.2618 177.565L93.5117 179.098Z" fill="#DE5634"/>
</g>
<g style="mix-blend-mode:soft-light" opacity="0.4">
<path d="M137.876 134.746C147.187 138.835 161.215 138.916 162.506 138.126C163.797 137.336 164.641 131.598 162.627 130.622C160.612 129.646 144.618 121.456 140.409 122.339C136.199 123.222 136.223 134.026 137.876 134.746Z" fill="#FFDF66"/>
</g>
<path opacity="0.8" d="M85.2617 141.588C85.2617 141.46 85.6477 124.522 86.3955 123.314C87.1434 122.106 129.902 99.2672 131.145 98.9187C132.387 98.5702 148.417 107.492 148.417 107.492L130.891 97.7803L85.2617 123.128V141.588Z" fill="#700000"/>
<path d="M147.223 116.03C147.223 116.03 167.269 127.02 167.547 128.251C167.824 129.483 168.27 162.684 168.27 162.684C168.27 162.684 168.451 129.157 168.27 127.74C168.09 126.323 147.223 116.03 147.223 116.03Z" fill="white"/>
<path d="M93.5136 155.889C93.5136 155.889 92.8502 128.124 93.2483 127.218C93.6463 126.312 130.893 106.958 130.893 106.958C130.893 106.958 94.8042 126.823 94.0685 128.078C93.3327 129.332 93.5136 155.889 93.5136 155.889Z" fill="white"/>
<path opacity="0.8" d="M85.2617 183.688L130.891 209.094L176.473 183.688V169.898C176.473 169.898 176.087 181.934 175.158 183.444C174.229 184.954 133.352 207.839 131.265 207.99C129.179 208.141 87.4449 184.234 86.3473 182.642C85.2497 181.051 85.2617 152.845 85.2617 152.845V183.688Z" fill="#700000"/>
<g style="mix-blend-mode:soft-light" opacity="0.4">
<path d="M93.5116 165.948C93.5116 165.948 93.3789 177.798 94.0664 178.797C94.754 179.796 112.473 189.647 112.473 189.647C112.473 189.647 93.2462 180.051 93.0894 179.459C92.9326 178.866 93.5116 165.948 93.5116 165.948Z" fill="#FFDF66"/>
</g>
<g style="mix-blend-mode:soft-light" opacity="0.4">
<path d="M108.929 189.892C107.578 189.892 103.803 191.344 104.623 192.215C105.443 193.086 127.902 206.155 130.46 207.027C131.304 207.329 131.219 202.171 130.098 200.509C129.639 199.801 113.127 189.88 108.929 189.892Z" fill="#FFDF66"/>
</g>
<path d="M149.939 110.105C149.203 110.291 151.676 113.288 152.846 113.59C154.016 113.892 155.632 113.056 155.065 112.51C154.498 111.964 151.073 109.803 149.939 110.105Z" fill="white"/>
<path d="M155.4 113.068C154.279 113.359 156.341 118.087 157.222 118.877C158.102 119.667 165.954 121.2 165.773 119.829C165.592 118.458 156.968 112.673 155.4 113.068Z" fill="white"/>
<g style="mix-blend-mode:multiply" opacity="0.5">
<path d="M151.927 190.006C150.95 194.142 151.106 196.57 151.661 196.605C152.216 196.64 172.166 185.058 172.709 184.546C173.252 184.035 169.501 180.724 167.969 180.945C166.437 181.166 152.349 188.461 151.927 190.006Z" fill="#DE5634"/>
</g>
<g style="mix-blend-mode:multiply" opacity="0.5">
<path d="M95.9352 128.937C95.4528 127.554 93.9692 127.554 93.8365 129.111C93.7038 130.668 93.4746 159.443 94.0657 159.489C94.6567 159.536 95.887 158.119 95.9352 157.456C95.9835 156.794 96.1644 129.576 95.9352 128.937Z" fill="#DE5634"/>
</g>
<g style="mix-blend-mode:multiply" opacity="0.5">
<path d="M165.845 129.101C165.761 129.647 165.483 156.819 165.845 156.819C166.207 156.819 167.86 155.529 167.86 154.867C167.86 154.205 167.45 128.52 167.269 128.392C167.088 128.264 165.906 128.648 165.845 129.101Z" fill="#DE5634"/>
</g>
<g style="mix-blend-mode:multiply" opacity="0.5">
<path d="M130.89 109.572C130.89 110.106 114.812 118.935 114.426 118.935C114.04 118.935 114.185 116.612 114.703 116.228C115.222 115.845 130.77 106.935 130.89 107.179C130.945 107.976 130.945 108.775 130.89 109.572Z" fill="#DE5634"/>
</g>
<path d="M164.076 181.214C163.051 181.214 159.589 183.119 159.854 184.06C160.12 185.001 162.267 186.035 162.797 185.489C163.328 184.943 164.751 181.214 164.076 181.214Z" fill="#B33114"/>
<path d="M165.4 181.83C165.05 182.143 164.278 183.259 165.014 183.805C165.75 184.351 167.897 182.91 167.583 182.492C167.27 182.074 165.859 181.423 165.4 181.83Z" fill="#B33114"/>
<g style="mix-blend-mode:multiply" opacity="0.5">
<path d="M160.361 183.061C159.504 184.222 163.014 184.919 163.46 183.978C163.907 183.037 164.667 181.063 164.076 181.167C162.726 181.572 161.467 182.214 160.361 183.061Z" fill="#DE5634"/>
</g>
<path d="M159.866 183.745C160.1 184.394 160.572 184.939 161.192 185.279C162.001 185.743 162.712 185.639 162.917 185.279C162.714 185.511 162.434 185.669 162.125 185.726C161.815 185.783 161.494 185.736 161.216 185.592C159.588 184.872 159.866 183.745 159.866 183.745Z" fill="#DAE1EF"/>
<g style="mix-blend-mode:multiply" opacity="0.5">
<path d="M165.786 181.864C165.002 182.677 165.618 183.862 166.064 183.804C166.51 183.746 167.825 182.886 167.584 182.491C167.342 182.096 165.967 181.678 165.786 181.864Z" fill="#DE5634"/>
</g>
<path d="M165.4 181.829C165.4 181.829 164.677 182.793 164.966 183.351C165.256 183.909 165.666 183.897 165.666 183.897C165.666 183.897 164.725 184.431 164.556 183.816C164.508 183.443 164.561 183.064 164.709 182.716C164.857 182.368 165.095 182.063 165.4 181.829Z" fill="#DAE1EF"/>
<path d="M126.186 109.27C123.774 108.643 121.747 110.177 120.662 111.35C119.576 112.523 120.191 113.232 121.542 113C122.893 112.767 127.223 109.538 126.186 109.27Z" fill="#B33114"/>
<g style="mix-blend-mode:multiply" opacity="0.5">
<path d="M126.19 109.269C125.415 109.12 124.615 109.139 123.849 109.326C123.083 109.513 122.37 109.863 121.763 110.35C121.112 110.907 122.402 112.51 123.295 112.173C124.187 111.837 126.95 109.513 126.19 109.269Z" fill="#DE5634"/>
</g>
<g style="mix-blend-mode:soft-light" opacity="0.4">
<path d="M121.291 110.744C121.291 110.744 118.504 112.498 118.878 113.358C119.252 114.218 122.497 112.649 122.497 112.649C122.497 112.649 120.772 113.195 120.386 112.452C120 111.708 121.291 110.744 121.291 110.744Z" fill="#FFDF66"/>
</g>
<path d="M95.1049 179.449C93.7902 179.774 97.6741 182.33 98.5908 182.469C99.5075 182.609 98.5908 180.355 98.1566 179.96C97.2029 179.537 96.151 179.361 95.1049 179.449Z" fill="white"/>
<path d="M130.857 181.922L83.7556 155.471C82.6434 157.943 81.8846 160.55 81.5 163.219L84.5758 168.214L130.857 194.109L177.138 168.214L179.924 163.219C179.832 160.562 179.261 157.94 178.236 155.471L130.857 181.922Z" fill="url(#paint53_linear_6924_92589)"/>
<path d="M84.5758 168.213L81.5 163.218L130.857 191.064L179.924 163.218L177.138 168.213L130.857 194.107L84.5758 168.213Z" fill="url(#paint54_linear_6924_92589)"/>
<g style="mix-blend-mode:multiply" opacity="0.5">
<path d="M81.5 163.218L84.5758 168.213L85.2753 168.631V170.13C85.2753 170.13 87.9169 171.419 93.1034 174.184C93.2723 174.277 96.3601 177.414 96.3601 177.414C96.3601 177.414 129.699 196.826 130.905 196.826C132.461 196.826 165.534 176.984 165.534 176.984C165.534 176.984 168.104 174.893 168.369 174.753L176.475 170.629V168.562L177.09 168.213L179.876 163.218L130.809 191.098L81.5 163.218Z" fill="#DE5634"/>
</g>
<path style="mix-blend-mode:multiply" opacity="0.69" d="M130.855 181.921V191.064L179.923 163.183C179.794 160.53 179.224 157.914 178.234 155.435L130.855 181.921Z" fill="url(#paint55_linear_6924_92589)"/>
<g style="mix-blend-mode:soft-light" opacity="0.4">
<path d="M86.1794 157.468C85.2748 157.468 86.0105 165.158 88.7486 166.924C93.1029 169.724 119.313 184.605 120.99 184.628C122.196 184.628 122.124 178.111 121.762 177.658C121.122 176.647 87.5183 157.468 86.1794 157.468Z" fill="#FFDF66"/>
</g>
<g style="mix-blend-mode:soft-light" opacity="0.4">
<path d="M145.428 174.033C144.849 174.591 144.934 181.782 145.911 181.561C153.814 177.841 161.426 173.57 168.683 168.782C175.667 163.845 176.656 157.328 175.088 157.479C175.088 157.479 146.598 172.872 145.428 174.033Z" fill="#FFDF66"/>
</g>
<path d="M130.567 124.29L177.681 150.777C178.793 148.304 179.552 145.697 179.936 143.028L176.861 138.021L130.567 112.139L84.2863 138.021L81.5 143.028C81.5919 145.686 82.1633 148.308 83.1887 150.777L130.567 124.29Z" fill="url(#paint56_linear_6924_92589)"/>
<path d="M176.848 138.021L179.924 143.028L130.567 115.182L81.5 143.028L84.2863 138.021L130.567 112.139L176.848 138.021Z" fill="url(#paint57_linear_6924_92589)"/>
<g style="mix-blend-mode:multiply" opacity="0.6">
<path d="M165.413 149.614L168.259 147.744L176.473 152.17V150.125C176.473 150.125 173.192 148.127 168.03 145.374L165.268 143.724C165.268 143.724 131.953 124.289 130.747 124.289C129.191 124.289 96.0814 143.573 96.0814 143.573L93.3313 144.967L85.2619 149.486L85.1172 152.576L93.6811 147.256L96.2623 149.66L130.783 130.098L165.413 149.614Z" fill="#DE5634"/>
</g>
<g style="mix-blend-mode:soft-light" opacity="0.4">
<path d="M130.567 124.29V115.183L81.5 143.063C81.6297 145.716 82.1998 148.332 83.1887 150.812L130.567 124.29Z" fill="#FFDF66"/>
</g>
<path style="mix-blend-mode:multiply" opacity="0.69" d="M175.269 148.768C176.174 148.768 175.438 141.089 172.7 139.323C168.346 136.512 142.136 121.631 140.423 121.619C139.217 121.619 139.289 128.125 139.651 128.589C140.29 129.588 173.906 148.768 175.269 148.768Z" fill="url(#paint58_linear_6924_92589)"/>
<g style="mix-blend-mode:soft-light" opacity="0.4">
<path d="M115.997 132.213C116.564 131.644 116.492 124.464 115.515 124.673C107.616 128.403 100.006 132.673 92.7421 137.452C85.7463 142.389 84.7693 148.906 86.3373 148.767C86.3373 148.767 114.827 133.375 115.997 132.213Z" fill="#FFDF66"/>
</g>
<path d="M154.568 128.716C154.568 128.716 132.012 115.693 130.565 115.693C129.118 115.693 111.109 126.218 111.109 126.218C111.109 126.218 130.01 114.683 130.529 114.683C131.048 114.683 154.568 128.716 154.568 128.716Z" fill="white"/>
<g style="mix-blend-mode:multiply" opacity="0.5">
<path d="M113.872 107.248C113.699 108.099 113.599 108.961 113.57 109.827C113.667 110.234 116.839 114.764 116.839 114.764V117.831L131.012 130.61L145.027 118.249L145.643 115.252C145.643 115.252 148.791 110.489 148.791 109.827C148.791 109.165 145.896 106.098 145.896 106.098L130.891 97.7803L113.872 107.248Z" fill="#DE5634"/>
</g>
<path d="M147.524 108.759L147.452 108.666L131.181 87.1162L131.096 87L131.012 87.1162L114.74 108.666L114.668 108.759L114.74 108.863L131.012 130.378V130.61L131.096 130.494L131.181 130.61V130.378L147.452 108.863L147.524 108.759Z" fill="url(#paint59_linear_6924_92589)"/>
<g style="mix-blend-mode:multiply" opacity="0.5">
<path d="M118.07 108.758L131.097 91.5303L144.124 108.758L131.097 125.986L118.07 108.758Z" fill="#DE5634"/>
</g>
<path d="M118.758 108.759L131.097 92.4375L143.448 108.759L131.097 125.093L118.758 108.759Z" fill="url(#paint60_linear_6924_92589)"/>
<g style="mix-blend-mode:soft-light" opacity="0.4">
<path d="M130.906 88.1956C129.434 89.5431 115.551 107.689 115.828 108.188C116.106 108.688 121.534 108.699 131.955 108.583C142.376 108.467 146.67 108.479 146.755 108.188C146.839 107.898 131.171 87.9516 130.906 88.1956Z" fill="#FFDF66"/>
</g>
<path style="mix-blend-mode:multiply" opacity="0.37" d="M115.381 108.816C115.188 109.606 130.374 129.529 131.338 129.216C132.303 128.902 147.272 109.293 146.319 108.758C145.366 108.224 115.562 108.096 115.381 108.816Z" fill="url(#paint61_linear_6924_92589)"/>
<g style="mix-blend-mode:multiply" opacity="0.5">
<path d="M130.893 163.405L119.639 169.109L121.786 157.039L112.691 148.489L125.26 146.735L130.893 135.757L136.513 146.735L149.094 148.489L139.987 157.039L142.146 169.109L130.893 163.405Z" fill="#DE5634"/>
</g>
<path d="M147.777 148.907L141.71 148.047L140.046 147.827L136.114 147.269L130.891 137.081L125.668 147.269L113.992 148.907L122.448 156.83L120.445 168.029L130.891 162.743L141.324 168.029L139.334 156.83L147.777 148.907Z" fill="url(#paint62_linear_6924_92589)"/>
<path style="mix-blend-mode:multiply" opacity="0.37" d="M113.945 148.908L131.133 153.23L122.389 156.831L113.945 148.908Z" fill="url(#paint63_linear_6924_92589)"/>
<path style="mix-blend-mode:multiply" opacity="0.37" d="M147.718 148.908L131.133 153.23L139.275 156.831L147.718 148.908Z" fill="url(#paint64_linear_6924_92589)"/>
<path style="mix-blend-mode:multiply" opacity="0.37" d="M130.832 162.743L131.134 153.229L120.387 168.028L130.832 162.743Z" fill="url(#paint65_linear_6924_92589)"/>
<path style="mix-blend-mode:multiply" opacity="0.37" d="M141.265 168.028L131.134 153.229L130.832 162.743L141.265 168.028Z" fill="url(#paint66_linear_6924_92589)"/>
<path style="mix-blend-mode:color-dodge" opacity="0.5" d="M130.832 137.081L131.134 153.229L136.055 147.269L130.832 137.081Z" fill="url(#paint67_linear_6924_92589)"/>
<path style="mix-blend-mode:color-dodge" opacity="0.5" d="M147.718 148.906L131.133 153.227L136.054 147.268L147.718 148.906Z" fill="url(#paint68_linear_6924_92589)"/>
<path style="mix-blend-mode:color-dodge" opacity="0.5" d="M147.718 148.906L131.133 153.227L136.054 147.268L147.718 148.906Z" fill="url(#paint69_linear_6924_92589)"/>
<path style="mix-blend-mode:color-dodge" opacity="0.5" d="M125.609 147.268L131.133 153.227L113.945 148.906L125.609 147.268Z" fill="url(#paint70_linear_6924_92589)"/>
<path d="M136.053 150.811C135.184 151.52 135.92 151.973 135.92 151.973L140.395 150.811C140.395 150.811 138.055 149.173 136.053 150.811Z" fill="white"/>
<g style="mix-blend-mode:multiply" opacity="0.5">
<path d="M120.445 168.029C120.445 168.029 128.37 164.439 130.891 163.382L141.324 168.029L130.891 162.743L120.445 168.029Z" fill="#DE5634"/>
</g>
<g style="mix-blend-mode:multiply" opacity="0.5">
<path d="M113.945 148.908L131.133 153.23L121.689 161.06L113.945 148.908Z" fill="#DE5634"/>
</g>
<g style="mix-blend-mode:multiply" opacity="0.5">
<path d="M147.718 148.908L131.133 153.23L140.276 162.093L147.718 148.908Z" fill="#DE5634"/>
</g>
<g style="mix-blend-mode:multiply" opacity="0.5">
<path d="M120.445 168.028L131.132 153.229L141.324 168.028L130.891 166.437L120.445 168.028Z" fill="#DE5634"/>
</g>
<g style="mix-blend-mode:soft-light" opacity="0.4">
<path d="M127.021 145.502C125.911 148.476 130.133 150.544 130.7 149.626C131.267 148.708 130.917 143.632 130.193 142.935C129.469 142.238 127.455 144.294 127.021 145.502Z" fill="#F7FFFF"/>
</g>
<g style="mix-blend-mode:soft-light" opacity="0.4">
<path d="M123.547 160.698C125.815 160.988 127.021 158.526 127.527 156.818C128.287 154.1 119.458 160.164 123.547 160.698Z" fill="#F7FFFF"/>
</g>
<g style="mix-blend-mode:multiply" opacity="0.5">
<path d="M130.893 113.36L126.188 115.741L127.081 110.688L123.27 107.121L128.541 106.378L130.893 101.789L133.245 106.378L138.504 107.121L134.704 110.688L135.597 115.741L130.893 113.36Z" fill="#DE5634"/>
</g>
<path d="M137.911 107.306L135.39 106.946L134.703 106.853L133.063 106.621L130.891 102.381L128.72 106.621L123.859 107.306L127.381 110.594L126.549 115.252L130.891 113.057L135.234 115.252L134.401 110.594L137.911 107.306Z" fill="url(#paint71_linear_6924_92589)"/>
<path style="mix-blend-mode:multiply" opacity="0.37" d="M123.836 107.306L130.989 109.106L127.358 110.593L123.836 107.306Z" fill="url(#paint72_linear_6924_92589)"/>
<path style="mix-blend-mode:multiply" opacity="0.37" d="M137.888 107.306L130.988 109.106L134.378 110.593L137.888 107.306Z" fill="url(#paint73_linear_6924_92589)"/>
<path style="mix-blend-mode:multiply" opacity="0.37" d="M130.87 113.056L130.99 109.106L126.527 115.252L130.87 113.056Z" fill="url(#paint74_linear_6924_92589)"/>
<path style="mix-blend-mode:multiply" opacity="0.37" d="M135.209 115.252L130.988 109.106L130.867 113.056L135.209 115.252Z" fill="url(#paint75_linear_6924_92589)"/>
<path style="mix-blend-mode:color-dodge" opacity="0.5" d="M130.867 102.381L130.988 109.107L133.038 106.621L130.867 102.381Z" fill="url(#paint76_linear_6924_92589)"/>
<path style="mix-blend-mode:color-dodge" opacity="0.5" d="M137.888 107.306L130.988 109.106L133.039 106.62L137.888 107.306Z" fill="url(#paint77_linear_6924_92589)"/>
<path style="mix-blend-mode:color-dodge" opacity="0.5" d="M137.888 107.306L130.988 109.106L133.039 106.62L137.888 107.306Z" fill="url(#paint78_linear_6924_92589)"/>
<path style="mix-blend-mode:color-dodge" opacity="0.5" d="M128.697 106.62L130.989 109.106L123.836 107.306L128.697 106.62Z" fill="url(#paint79_linear_6924_92589)"/>
<path d="M133.051 108.096C132.69 108.386 133.051 108.583 133.051 108.583L134.909 108.096C134.645 107.894 134.317 107.784 133.98 107.784C133.643 107.784 133.316 107.894 133.051 108.096Z" fill="white"/>
<g style="mix-blend-mode:multiply" opacity="0.5">
<path d="M126.551 115.252C126.551 115.252 129.844 113.765 130.893 113.347L135.235 115.252L130.893 113.057L126.551 115.252Z" fill="#DE5634"/>
</g>
<g style="mix-blend-mode:multiply" opacity="0.5">
<path d="M123.836 107.306L130.989 109.106L127.068 112.359L123.836 107.306Z" fill="#DE5634"/>
</g>
<g style="mix-blend-mode:multiply" opacity="0.5">
<path d="M137.888 107.306L130.988 109.106L134.788 112.789L137.888 107.306Z" fill="#DE5634"/>
</g>
<g style="mix-blend-mode:multiply" opacity="0.5">
<path d="M126.551 115.252L130.99 109.106L135.235 115.252L130.893 114.59L126.551 115.252Z" fill="#DE5634"/>
</g>
<g style="mix-blend-mode:soft-light" opacity="0.4">
<path d="M129.275 105.889C128.817 107.12 130.566 107.98 130.807 107.608C131.008 106.678 130.937 105.713 130.602 104.82C130.301 104.541 129.432 105.378 129.275 105.889Z" fill="#F7FFFF"/>
</g>
<g style="mix-blend-mode:soft-light" opacity="0.4">
<path d="M127.839 112.208C128.768 112.324 129.286 111.302 129.491 110.593C129.805 109.466 126.138 111.987 127.839 112.208Z" fill="#F7FFFF"/>
</g>
<g style="mix-blend-mode:multiply" opacity="0.5">
<path d="M120.049 184.999L118.071 189.646L115.719 191.958V200.74L130.892 209.058L147.224 199.985L146.754 191.807L144.124 189.472L142.508 184.755L130.905 174.788L120.049 184.999Z" fill="#DE5634"/>
</g>
<path d="M147.524 195.351L147.452 195.246L131.181 173.731L131.096 173.615L131.012 173.731L114.74 195.246L114.668 195.351L114.74 195.443L131.012 216.958V217.19L131.096 217.074L131.181 217.19V216.958L147.452 195.443L147.524 195.351Z" fill="url(#paint80_linear_6924_92589)"/>
<g style="mix-blend-mode:multiply" opacity="0.5">
<path d="M118.07 195.352L131.097 178.124L144.124 195.352L131.097 212.58L118.07 195.352Z" fill="#DE5634"/>
</g>
<path d="M118.758 195.352L131.097 179.019L143.448 195.352L131.097 211.674L118.758 195.352Z" fill="url(#paint81_linear_6924_92589)"/>
<g style="mix-blend-mode:soft-light" opacity="0.4">
<path d="M130.906 174.778C129.446 176.125 115.551 194.271 115.828 194.77C116.106 195.27 121.534 195.281 131.955 195.165C142.376 195.049 146.67 195.072 146.755 194.77C146.839 194.468 131.171 174.534 130.906 174.778Z" fill="#FFDF66"/>
</g>
<path style="mix-blend-mode:multiply" opacity="0.37" d="M115.381 195.41C115.188 196.188 130.374 216.111 131.338 215.797C132.303 215.484 147.272 195.874 146.319 195.352C145.366 194.829 115.562 194.689 115.381 195.41Z" fill="url(#paint82_linear_6924_92589)"/>
<g style="mix-blend-mode:multiply" opacity="0.5">
<path d="M130.893 199.94L126.188 202.321L127.081 197.279L123.27 193.701L128.541 192.958L130.893 188.369L133.245 192.958L138.504 193.701L134.704 197.279L135.597 202.321L130.893 199.94Z" fill="#DE5634"/>
</g>
<path d="M137.911 193.887L135.39 193.526L134.703 193.434L133.063 193.201L130.891 188.973L128.72 193.201L123.859 193.887L127.381 197.186L126.549 201.833L130.891 199.637L135.234 201.833L134.401 197.186L137.911 193.887Z" fill="url(#paint83_linear_6924_92589)"/>
<path style="mix-blend-mode:multiply" opacity="0.37" d="M123.836 193.888L130.989 195.688L127.358 197.187L123.836 193.888Z" fill="url(#paint84_linear_6924_92589)"/>
<path style="mix-blend-mode:multiply" opacity="0.37" d="M137.888 193.888L130.988 195.688L134.378 197.187L137.888 193.888Z" fill="url(#paint85_linear_6924_92589)"/>
<path style="mix-blend-mode:multiply" opacity="0.37" d="M130.87 199.637L130.99 195.688L126.527 201.833L130.87 199.637Z" fill="url(#paint86_linear_6924_92589)"/>
<path style="mix-blend-mode:multiply" opacity="0.37" d="M135.209 201.833L130.988 195.688L130.867 199.637L135.209 201.833Z" fill="url(#paint87_linear_6924_92589)"/>
<path style="mix-blend-mode:color-dodge" opacity="0.5" d="M130.867 188.973L130.988 195.687L133.038 193.201L130.867 188.973Z" fill="url(#paint88_linear_6924_92589)"/>
<path style="mix-blend-mode:color-dodge" opacity="0.5" d="M137.888 193.886L130.988 195.686L133.039 193.2L137.888 193.886Z" fill="url(#paint89_linear_6924_92589)"/>
<path style="mix-blend-mode:color-dodge" opacity="0.5" d="M137.888 193.886L130.988 195.686L133.039 193.2L137.888 193.886Z" fill="url(#paint90_linear_6924_92589)"/>
<path style="mix-blend-mode:color-dodge" opacity="0.5" d="M128.697 193.2L130.989 195.686L123.836 193.886L128.697 193.2Z" fill="url(#paint91_linear_6924_92589)"/>
<path d="M133.051 194.677C132.69 194.968 133.051 195.165 133.051 195.165L134.909 194.677C134.643 194.479 134.316 194.372 133.98 194.372C133.644 194.372 133.317 194.479 133.051 194.677Z" fill="white"/>
<g style="mix-blend-mode:multiply" opacity="0.5">
<path d="M126.551 201.844C126.551 201.844 129.844 200.345 130.893 199.927L135.235 201.844L130.893 199.637L126.551 201.844Z" fill="#DE5634"/>
</g>
<g style="mix-blend-mode:multiply" opacity="0.5">
<path d="M123.836 193.888L130.989 195.688L127.068 198.941L123.836 193.888Z" fill="#DE5634"/>
</g>
<g style="mix-blend-mode:multiply" opacity="0.5">
<path d="M137.888 193.888L130.988 195.688L134.788 199.371L137.888 193.888Z" fill="#DE5634"/>
</g>
<g style="mix-blend-mode:multiply" opacity="0.5">
<path d="M126.551 201.833L130.99 195.688L135.235 201.833L130.893 201.182L126.551 201.833Z" fill="#DE5634"/>
</g>
<g style="mix-blend-mode:soft-light" opacity="0.4">
<path d="M129.275 192.469C128.817 193.701 130.566 194.572 130.807 194.189C131.008 193.259 130.937 192.294 130.602 191.401C130.301 191.122 129.432 191.97 129.275 192.469Z" fill="#F7FFFF"/>
</g>
<g style="mix-blend-mode:soft-light" opacity="0.4">
<path d="M127.839 198.79C128.768 198.917 129.286 197.883 129.491 197.186C129.805 196.048 126.138 198.569 127.839 198.79Z" fill="#F7FFFF"/>
</g>
<path style="mix-blend-mode:color-dodge" opacity="0.5" d="M193.626 124.72C193.626 134.006 189.796 142.912 182.979 149.478C176.161 156.044 166.914 159.733 157.272 159.733C147.63 159.733 138.384 156.044 131.566 149.478C124.748 142.912 120.918 134.006 120.918 124.72" fill="url(#paint92_radial_6924_92589)"/>
<path d="M102 2L112.087 17.7023C113.006 19.1343 114.591 20 116.293 20H145.707C147.409 20 148.994 19.1343 149.913 17.7023L160 2H102Z" fill="url(#paint93_linear_6924_92589)"/>
<path d="M122.558 16L118.33 6.2H120.78L124.476 14.88H123.034L126.786 6.2H129.04L124.798 16H122.558ZM129.858 16V6.2H132.126V16H129.858ZM134.452 16V6.2H138.694C139.571 6.2 140.327 6.34467 140.962 6.634C141.597 6.914 142.087 7.32 142.432 7.852C142.777 8.384 142.95 9.01867 142.95 9.756C142.95 10.484 142.777 11.114 142.432 11.646C142.087 12.178 141.597 12.5887 140.962 12.878C140.327 13.158 139.571 13.298 138.694 13.298H135.712L136.72 12.276V16H134.452ZM136.72 12.528L135.712 11.45H138.568C139.268 11.45 139.791 11.3007 140.136 11.002C140.481 10.7033 140.654 10.288 140.654 9.756C140.654 9.21467 140.481 8.79467 140.136 8.496C139.791 8.19733 139.268 8.048 138.568 8.048H135.712L136.72 6.97V12.528Z" fill="white"/>
<path d="M38.225 33V20.544H40.169V33H38.225ZM47.6294 26.862L50.5274 33H48.4214L46.0814 27.636L43.7234 33H41.6354L44.5334 26.862L41.6714 20.544H43.7774L46.0814 26.034L48.3854 20.544H50.4734L47.6294 26.862Z" fill="white"/>
<g style="mix-blend-mode:overlay">
<g style="mix-blend-mode:color-dodge">
<path fill-rule="evenodd" clip-rule="evenodd" d="M19 12C19 6.47715 23.4771 2 29 2H231C236.523 2 241 6.47715 241 12V120.562C241 123.615 239.506 126.474 237 128.217C234.494 129.961 233 132.82 233 135.873V159V162V185.127C233 188.18 234.494 191.039 237 192.783C239.506 194.526 241 197.385 241 200.438V304C241 309.523 236.523 314 231 314H29C23.4772 314 19 309.523 19 304V202.182C19 198.908 20.6021 195.842 23.2894 193.973L24.7106 192.984C27.3979 191.115 29 188.048 29 184.775L29 162V159L29 136.225C29 132.952 27.3979 129.885 24.7107 128.016L23.2894 127.027C20.6021 125.158 19 122.092 19 118.818V12Z" fill="url(#paint94_linear_6924_92589)"/>
</g>
</g>
<defs>
<filter id="filter0_b_6924_92589" x="-6" y="-19" width="89" height="354.983" filterUnits="userSpaceOnUse" colorInterpolationFilters="sRGB">
<feFlood floodOpacity="0" result="BackgroundImageFix"/>
<feGaussianBlur in="BackgroundImageFix" stdDeviation="13"/>
<feComposite in2="SourceAlpha" operator="in" result="effect1_backgroundBlur_6924_92589"/>
<feBlend mode="normal" in="SourceGraphic" in2="effect1_backgroundBlur_6924_92589" result="shape"/>
</filter>
<filter id="filter1_b_6924_92589" x="177" y="-19" width="89" height="354.983" filterUnits="userSpaceOnUse" colorInterpolationFilters="sRGB">
<feFlood floodOpacity="0" result="BackgroundImageFix"/>
<feGaussianBlur in="BackgroundImageFix" stdDeviation="13"/>
<feComposite in2="SourceAlpha" operator="in" result="effect1_backgroundBlur_6924_92589"/>
<feBlend mode="normal" in="SourceGraphic" in2="effect1_backgroundBlur_6924_92589" result="shape"/>
</filter>
<filter id="filter2_i_6924_92589" x="17" y="0" width="226" height="320" filterUnits="userSpaceOnUse" colorInterpolationFilters="sRGB">
<feFlood floodOpacity="0" result="BackgroundImageFix"/>
<feBlend mode="normal" in="SourceGraphic" in2="BackgroundImageFix" result="shape"/>
<feColorMatrix in="SourceAlpha" type="matrix" values="0 0 0 0 0 0 0 0 0 0 0 0 0 0 0 0 0 0 127 0" result="hardAlpha"/>
<feOffset dy="5"/>
<feGaussianBlur stdDeviation="2"/>
<feComposite in2="hardAlpha" operator="arithmetic" k2="-1" k3="1"/>
<feColorMatrix type="matrix" values="0 0 0 0 0 0 0 0 0 0 0 0 0 0 0 0 0 0 0.25 0"/>
<feBlend mode="normal" in2="shape" result="effect1_innerShadow_6924_92589"/>
</filter>
<filter id="filter3_f_6924_92589" x="0" y="31" width="261" height="254" filterUnits="userSpaceOnUse" colorInterpolationFilters="sRGB">
<feFlood floodOpacity="0" result="BackgroundImageFix"/>
<feBlend mode="normal" in="SourceGraphic" in2="BackgroundImageFix" result="shape"/>
<feGaussianBlur stdDeviation="37.5" result="effect1_foregroundBlur_6924_92589"/>
</filter>
<linearGradient id="paint0_linear_6924_92589" x1="13" y1="296.56" x2="134.492" y2="0.901086" gradientUnits="userSpaceOnUse">
<stop stop-color="#060913"/>
<stop offset="0.136764" stop-color="#070A16"/>
<stop offset="0.197268" stop-color="#0D142E"/>
<stop offset="0.309253" stop-color="#070B17"/>
<stop offset="0.490764" stop-color="#080C1A"/>
<stop offset="0.661458" stop-color="#0B1125"/>
<stop offset="1" stop-color="#101010"/>
</linearGradient>
<linearGradient id="paint1_linear_6924_92589" x1="43.5" y1="323.39" x2="109.599" y2="304.922" gradientUnits="userSpaceOnUse">
<stop stop-color="#EECCA2"/>
<stop offset="0.260417" stop-color="#624A2C"/>
<stop offset="0.6875" stop-color="#FFDAAB"/>
<stop offset="1" stop-color="#C68C43"/>
</linearGradient>
<linearGradient id="paint2_linear_6924_92589" x1="247" y1="20.4233" x2="125.508" y2="316.082" gradientUnits="userSpaceOnUse">
<stop stop-color="#060913"/>
<stop offset="0.136764" stop-color="#070A16"/>
<stop offset="0.197268" stop-color="#0D142E"/>
<stop offset="0.309253" stop-color="#070B17"/>
<stop offset="0.490764" stop-color="#080C1A"/>
<stop offset="0.661458" stop-color="#0B1125"/>
<stop offset="1" stop-color="#101010"/>
</linearGradient>
<linearGradient id="paint3_linear_6924_92589" x1="216.5" y1="-6.40634" x2="150.401" y2="12.0615" gradientUnits="userSpaceOnUse">
<stop stop-color="#EECCA2"/>
<stop offset="0.260417" stop-color="#624A2C"/>
<stop offset="0.6875" stop-color="#FFDAAB"/>
<stop offset="1" stop-color="#C68C43"/>
</linearGradient>
<linearGradient id="paint4_linear_6924_92589" x1="184.5" y1="-25.5" x2="1.5" y2="349.5" gradientUnits="userSpaceOnUse">
<stop stop-color="#C68C43"/>
<stop offset="0.119792" stop-color="#F5BA6E"/>
<stop offset="0.286458" stop-color="#C68C43"/>
<stop offset="0.5625" stop-color="#C68C43"/>
<stop offset="0.770833" stop-color="#EEB873"/>
<stop offset="1" stop-color="#C68C43"/>
</linearGradient>
<linearGradient id="paint5_linear_6924_92589" x1="131.064" y1="154.818" x2="131.064" y2="-46.36" gradientUnits="userSpaceOnUse">
<stop stop-color="#CA6B34"/>
<stop offset="0.67" stop-color="#FFA933"/>
<stop offset="1" stop-color="#FFBD2B"/>
</linearGradient>
<linearGradient id="paint6_linear_6924_92589" x1="80.9314" y1="47.9531" x2="80.9314" y2="91.3368" gradientUnits="userSpaceOnUse">
<stop stop-color="#C10065"/>
<stop offset="1" stop-color="white"/>
</linearGradient>
<linearGradient id="paint7_linear_6924_92589" x1="181.924" y1="47.9531" x2="181.924" y2="91.3368" gradientUnits="userSpaceOnUse">
<stop stop-color="#C10065"/>
<stop offset="1" stop-color="white"/>
</linearGradient>
<linearGradient id="paint8_linear_6924_92589" x1="100.251" y1="71.2334" x2="100.251" y2="151.652" gradientUnits="userSpaceOnUse">
<stop stop-color="#C10065"/>
<stop offset="1" stop-color="white"/>
</linearGradient>
<linearGradient id="paint9_linear_6924_92589" x1="161.393" y1="71.2334" x2="161.393" y2="151.652" gradientUnits="userSpaceOnUse">
<stop stop-color="#C10065"/>
<stop offset="1" stop-color="white"/>
</linearGradient>
<linearGradient id="paint10_linear_6924_92589" x1="139.171" y1="-4.27537" x2="150.065" y2="109.544" gradientUnits="userSpaceOnUse">
<stop stop-color="#BFD7FF"/>
<stop offset="1"/>
</linearGradient>
<linearGradient id="paint11_linear_6924_92589" x1="132.316" y1="54.8309" x2="231.532" y2="54.8309" gradientUnits="userSpaceOnUse">
<stop stop-color="#BFD7FF"/>
<stop offset="1"/>
</linearGradient>
<linearGradient id="paint12_linear_6924_92589" x1="173.696" y1="-7.45115" x2="184.673" y2="106.233" gradientUnits="userSpaceOnUse">
<stop stop-color="#BFD7FF"/>
<stop offset="1"/>
</linearGradient>
<linearGradient id="paint13_linear_6924_92589" x1="73.8992" y1="2.16332" x2="84.872" y2="115.848" gradientUnits="userSpaceOnUse">
<stop stop-color="#BFD7FF"/>
<stop offset="1"/>
</linearGradient>
<linearGradient id="paint14_linear_6924_92589" x1="79.0859" y1="187.997" x2="98.7828" y2="187.997" gradientUnits="userSpaceOnUse">
<stop stop-color="#DE3C14"/>
<stop offset="0.07" stop-color="#C72E10"/>
<stop offset="0.19" stop-color="#AB1C0C"/>
<stop offset="0.3" stop-color="#971009"/>
<stop offset="0.41" stop-color="#8B0807"/>
<stop offset="0.52" stop-color="#870606"/>
<stop offset="0.62" stop-color="#8C0707"/>
<stop offset="0.73" stop-color="#9A0808"/>
<stop offset="0.85" stop-color="#B20B0B"/>
<stop offset="0.97" stop-color="#D30E0E"/>
<stop offset="1" stop-color="#DB0F0F"/>
</linearGradient>
<linearGradient id="paint15_linear_6924_92589" x1="79.0859" y1="197.917" x2="97.9868" y2="197.917" gradientUnits="userSpaceOnUse">
<stop stop-color="#FFA933"/>
<stop offset="0.05" stop-color="#FFB030"/>
<stop offset="0.18" stop-color="#FFBA2C"/>
<stop offset="0.34" stop-color="#FEBB2B"/>
<stop offset="0.43" stop-color="#EB9E2E"/>
<stop offset="0.52" stop-color="#DC8731"/>
<stop offset="0.62" stop-color="#D27733"/>
<stop offset="0.72" stop-color="#CC6E34"/>
<stop offset="0.87" stop-color="#CA6B34"/>
<stop offset="0.92" stop-color="#E39130"/>
<stop offset="0.97" stop-color="#F7B12C"/>
<stop offset="1" stop-color="#FFBD2B"/>
</linearGradient>
<linearGradient id="paint16_linear_6924_92589" x1="88.9404" y1="237.428" x2="88.9404" y2="213.451" gradientUnits="userSpaceOnUse">
<stop stop-color="white"/>
<stop offset="1" stop-color="#B41E2D"/>
</linearGradient>
<linearGradient id="paint17_linear_6924_92589" x1="162.215" y1="187.997" x2="181.912" y2="187.997" gradientUnits="userSpaceOnUse">
<stop stop-color="#DE3C14"/>
<stop offset="0.07" stop-color="#C72E10"/>
<stop offset="0.19" stop-color="#AB1C0C"/>
<stop offset="0.3" stop-color="#971009"/>
<stop offset="0.41" stop-color="#8B0807"/>
<stop offset="0.52" stop-color="#870606"/>
<stop offset="0.62" stop-color="#8C0707"/>
<stop offset="0.73" stop-color="#9A0808"/>
<stop offset="0.85" stop-color="#B20B0B"/>
<stop offset="0.97" stop-color="#D30E0E"/>
<stop offset="1" stop-color="#DB0F0F"/>
</linearGradient>
<linearGradient id="paint18_linear_6924_92589" x1="163.023" y1="197.917" x2="181.912" y2="197.917" gradientUnits="userSpaceOnUse">
<stop stop-color="#FFA933"/>
<stop offset="0.05" stop-color="#FFB030"/>
<stop offset="0.18" stop-color="#FFBA2C"/>
<stop offset="0.34" stop-color="#FEBB2B"/>
<stop offset="0.43" stop-color="#EB9E2E"/>
<stop offset="0.52" stop-color="#DC8731"/>
<stop offset="0.62" stop-color="#D27733"/>
<stop offset="0.72" stop-color="#CC6E34"/>
<stop offset="0.87" stop-color="#CA6B34"/>
<stop offset="0.92" stop-color="#E39130"/>
<stop offset="0.97" stop-color="#F7B12C"/>
<stop offset="1" stop-color="#FFBD2B"/>
</linearGradient>
<linearGradient id="paint19_linear_6924_92589" x1="172.069" y1="237.428" x2="172.069" y2="213.451" gradientUnits="userSpaceOnUse">
<stop stop-color="white"/>
<stop offset="1" stop-color="#B41E2D"/>
</linearGradient>
<linearGradient id="paint20_linear_6924_92589" x1="95.6119" y1="209.861" x2="125.61" y2="209.861" gradientUnits="userSpaceOnUse">
<stop stop-color="#DE3C14"/>
<stop offset="0.07" stop-color="#C72E10"/>
<stop offset="0.19" stop-color="#AB1C0C"/>
<stop offset="0.3" stop-color="#971009"/>
<stop offset="0.41" stop-color="#8B0807"/>
<stop offset="0.52" stop-color="#870606"/>
<stop offset="0.62" stop-color="#8C0707"/>
<stop offset="0.73" stop-color="#9A0808"/>
<stop offset="0.85" stop-color="#B20B0B"/>
<stop offset="0.97" stop-color="#D30E0E"/>
<stop offset="1" stop-color="#DB0F0F"/>
</linearGradient>
<linearGradient id="paint21_linear_6924_92589" x1="95.6119" y1="217.331" x2="125.61" y2="217.331" gradientUnits="userSpaceOnUse">
<stop stop-color="#FFA933"/>
<stop offset="0.05" stop-color="#FFB030"/>
<stop offset="0.18" stop-color="#FFBA2C"/>
<stop offset="0.34" stop-color="#FEBB2B"/>
<stop offset="0.43" stop-color="#EB9E2E"/>
<stop offset="0.52" stop-color="#DC8731"/>
<stop offset="0.62" stop-color="#D27733"/>
<stop offset="0.72" stop-color="#CC6E34"/>
<stop offset="0.87" stop-color="#CA6B34"/>
<stop offset="0.92" stop-color="#E39130"/>
<stop offset="0.97" stop-color="#F7B12C"/>
<stop offset="1" stop-color="#FFBD2B"/>
</linearGradient>
<linearGradient id="paint22_linear_6924_92589" x1="135.812" y1="209.861" x2="165.81" y2="209.861" gradientUnits="userSpaceOnUse">
<stop stop-color="#DE3C14"/>
<stop offset="0.07" stop-color="#C72E10"/>
<stop offset="0.19" stop-color="#AB1C0C"/>
<stop offset="0.3" stop-color="#971009"/>
<stop offset="0.41" stop-color="#8B0807"/>
<stop offset="0.52" stop-color="#870606"/>
<stop offset="0.62" stop-color="#8C0707"/>
<stop offset="0.73" stop-color="#9A0808"/>
<stop offset="0.85" stop-color="#B20B0B"/>
<stop offset="0.97" stop-color="#D30E0E"/>
<stop offset="1" stop-color="#DB0F0F"/>
</linearGradient>
<linearGradient id="paint23_linear_6924_92589" x1="135.812" y1="217.331" x2="165.81" y2="217.331" gradientUnits="userSpaceOnUse">
<stop stop-color="#FFA933"/>
<stop offset="0.05" stop-color="#FFB030"/>
<stop offset="0.18" stop-color="#FFBA2C"/>
<stop offset="0.34" stop-color="#FEBB2B"/>
<stop offset="0.43" stop-color="#EB9E2E"/>
<stop offset="0.52" stop-color="#DC8731"/>
<stop offset="0.62" stop-color="#D27733"/>
<stop offset="0.72" stop-color="#CC6E34"/>
<stop offset="0.87" stop-color="#CA6B34"/>
<stop offset="0.92" stop-color="#E39130"/>
<stop offset="0.97" stop-color="#F7B12C"/>
<stop offset="1" stop-color="#FFBD2B"/>
</linearGradient>
<linearGradient id="paint24_linear_6924_92589" x1="110.605" y1="237.428" x2="110.605" y2="213.451" gradientUnits="userSpaceOnUse">
<stop stop-color="white"/>
<stop offset="1" stop-color="#B41E2D"/>
</linearGradient>
<linearGradient id="paint25_linear_6924_92589" x1="150.817" y1="237.428" x2="150.817" y2="213.451" gradientUnits="userSpaceOnUse">
<stop stop-color="white"/>
<stop offset="1" stop-color="#B41E2D"/>
</linearGradient>
<linearGradient id="paint26_linear_6924_92589" x1="175.869" y1="160.107" x2="175.862" y2="138.37" gradientUnits="userSpaceOnUse">
<stop stop-color="#CA6B34"/>
<stop offset="0.67" stop-color="#FFA933"/>
<stop offset="1" stop-color="#FFBD2B"/>
</linearGradient>
<linearGradient id="paint27_linear_6924_92589" x1="188.657" y1="143.794" x2="202.817" y2="143.794" gradientUnits="userSpaceOnUse">
<stop stop-color="#DE3C14"/>
<stop offset="0.07" stop-color="#C72E10"/>
<stop offset="0.19" stop-color="#AB1C0C"/>
<stop offset="0.3" stop-color="#971009"/>
<stop offset="0.41" stop-color="#8B0807"/>
<stop offset="0.52" stop-color="#870606"/>
<stop offset="0.62" stop-color="#8C0707"/>
<stop offset="0.73" stop-color="#9A0808"/>
<stop offset="0.85" stop-color="#B20B0B"/>
<stop offset="0.97" stop-color="#D30E0E"/>
<stop offset="1" stop-color="#DB0F0F"/>
</linearGradient>
<linearGradient id="paint28_linear_6924_92589" x1="100.454" y1="183.639" x2="100.343" y2="161.925" gradientUnits="userSpaceOnUse">
<stop stop-color="#CA6B34"/>
<stop offset="0.67" stop-color="#FFA933"/>
<stop offset="1" stop-color="#FFBD2B"/>
</linearGradient>
<linearGradient id="paint29_linear_6924_92589" x1="58.4609" y1="143.843" x2="72.6335" y2="143.843" gradientUnits="userSpaceOnUse">
<stop stop-color="#DE3C14"/>
<stop offset="0.07" stop-color="#C72E10"/>
<stop offset="0.19" stop-color="#AB1C0C"/>
<stop offset="0.3" stop-color="#971009"/>
<stop offset="0.41" stop-color="#8B0807"/>
<stop offset="0.52" stop-color="#870606"/>
<stop offset="0.62" stop-color="#8C0707"/>
<stop offset="0.73" stop-color="#9A0808"/>
<stop offset="0.85" stop-color="#B20B0B"/>
<stop offset="0.97" stop-color="#D30E0E"/>
<stop offset="1" stop-color="#DB0F0F"/>
</linearGradient>
<linearGradient id="paint30_linear_6924_92589" x1="183.167" y1="146.391" x2="183.17" y2="124.659" gradientUnits="userSpaceOnUse">
<stop stop-color="#CA6B34"/>
<stop offset="0.67" stop-color="#FFA933"/>
<stop offset="1" stop-color="#FFBD2B"/>
</linearGradient>
<linearGradient id="paint31_linear_6924_92589" x1="196.352" y1="130.1" x2="210.524" y2="130.1" gradientUnits="userSpaceOnUse">
<stop stop-color="#DE3C14"/>
<stop offset="0.07" stop-color="#C72E10"/>
<stop offset="0.19" stop-color="#AB1C0C"/>
<stop offset="0.3" stop-color="#971009"/>
<stop offset="0.41" stop-color="#8B0807"/>
<stop offset="0.52" stop-color="#870606"/>
<stop offset="0.62" stop-color="#8C0707"/>
<stop offset="0.73" stop-color="#9A0808"/>
<stop offset="0.85" stop-color="#B20B0B"/>
<stop offset="0.97" stop-color="#D30E0E"/>
<stop offset="1" stop-color="#DB0F0F"/>
</linearGradient>
<linearGradient id="paint32_linear_6924_92589" x1="92.6746" y1="169.98" x2="92.5634" y2="148.266" gradientUnits="userSpaceOnUse">
<stop stop-color="#CA6B34"/>
<stop offset="0.67" stop-color="#FFA933"/>
<stop offset="1" stop-color="#FFBD2B"/>
</linearGradient>
<linearGradient id="paint33_linear_6924_92589" x1="50.668" y1="130.146" x2="64.8406" y2="130.146" gradientUnits="userSpaceOnUse">
<stop stop-color="#DE3C14"/>
<stop offset="0.07" stop-color="#C72E10"/>
<stop offset="0.19" stop-color="#AB1C0C"/>
<stop offset="0.3" stop-color="#971009"/>
<stop offset="0.41" stop-color="#8B0807"/>
<stop offset="0.52" stop-color="#870606"/>
<stop offset="0.62" stop-color="#8C0707"/>
<stop offset="0.73" stop-color="#9A0808"/>
<stop offset="0.85" stop-color="#B20B0B"/>
<stop offset="0.97" stop-color="#D30E0E"/>
<stop offset="1" stop-color="#DB0F0F"/>
</linearGradient>
<linearGradient id="paint34_linear_6924_92589" x1="104.584" y1="110.932" x2="104.584" y2="133.445" gradientUnits="userSpaceOnUse">
<stop stop-color="#C10065"/>
<stop offset="1" stop-color="white"/>
</linearGradient>
<linearGradient id="paint35_linear_6924_92589" x1="156.836" y1="110.932" x2="156.836" y2="133.445" gradientUnits="userSpaceOnUse">
<stop stop-color="#C10065"/>
<stop offset="1" stop-color="white"/>
</linearGradient>
<linearGradient id="paint36_linear_6924_92589" x1="74.7087" y1="178.007" x2="74.7087" y2="154.006" gradientUnits="userSpaceOnUse">
<stop stop-color="#CA6B34"/>
<stop offset="0.67" stop-color="#FFA933"/>
<stop offset="1" stop-color="#FFBD2B"/>
</linearGradient>
<linearGradient id="paint37_linear_6924_92589" x1="77.614" y1="165.09" x2="77.614" y2="176.3" gradientUnits="userSpaceOnUse">
<stop stop-color="#C10065"/>
<stop offset="1" stop-color="white"/>
</linearGradient>
<linearGradient id="paint38_linear_6924_92589" x1="186.713" y1="178.007" x2="186.713" y2="154.006" gradientUnits="userSpaceOnUse">
<stop stop-color="#CA6B34"/>
<stop offset="0.67" stop-color="#FFA933"/>
<stop offset="1" stop-color="#FFBD2B"/>
</linearGradient>
<linearGradient id="paint39_linear_6924_92589" x1="183.807" y1="165.09" x2="183.807" y2="176.3" gradientUnits="userSpaceOnUse">
<stop stop-color="#C10065"/>
<stop offset="1" stop-color="white"/>
</linearGradient>
<linearGradient id="paint40_linear_6924_92589" x1="168.936" y1="119.98" x2="168.936" y2="103.042" gradientUnits="userSpaceOnUse">
<stop stop-color="#CA6B34"/>
<stop offset="0.67" stop-color="#FFA933"/>
<stop offset="1" stop-color="#FFBD2B"/>
</linearGradient>
<linearGradient id="paint41_linear_6924_92589" x1="178.788" y1="114.52" x2="161.095" y2="105.526" gradientUnits="userSpaceOnUse">
<stop stop-color="#C10065"/>
<stop offset="1" stop-color="white"/>
</linearGradient>
<linearGradient id="paint42_linear_6924_92589" x1="184.072" y1="104.136" x2="166.379" y2="95.1421" gradientUnits="userSpaceOnUse">
<stop stop-color="#C10065"/>
<stop offset="1" stop-color="white"/>
</linearGradient>
<linearGradient id="paint43_linear_6924_92589" x1="92.5011" y1="119.98" x2="92.5011" y2="103.043" gradientUnits="userSpaceOnUse">
<stop stop-color="#CA6B34"/>
<stop offset="0.67" stop-color="#FFA933"/>
<stop offset="1" stop-color="#FFBD2B"/>
</linearGradient>
<linearGradient id="paint44_linear_6924_92589" x1="82.6343" y1="114.52" x2="100.327" y2="105.526" gradientUnits="userSpaceOnUse">
<stop stop-color="#C10065"/>
<stop offset="1" stop-color="white"/>
</linearGradient>
<linearGradient id="paint45_linear_6924_92589" x1="77.3512" y1="104.136" x2="95.0442" y2="95.1421" gradientUnits="userSpaceOnUse">
<stop stop-color="#C10065"/>
<stop offset="1" stop-color="white"/>
</linearGradient>
<linearGradient id="paint46_linear_6924_92589" x1="130.891" y1="210.976" x2="130.891" y2="115.543" gradientUnits="userSpaceOnUse">
<stop stop-color="#CA6B34"/>
<stop offset="0.67" stop-color="#FFA933"/>
<stop offset="1" stop-color="#FFBD2B"/>
</linearGradient>
<linearGradient id="paint47_linear_6924_92589" x1="130.891" y1="98.7681" x2="130.891" y2="194.689" gradientUnits="userSpaceOnUse">
<stop stop-color="#CA6B34"/>
<stop offset="0.17" stop-color="#CC6E34"/>
<stop offset="0.29" stop-color="#D27733"/>
<stop offset="0.39" stop-color="#DB8631"/>
<stop offset="0.48" stop-color="#E99B2F"/>
<stop offset="0.57" stop-color="#FBB72C"/>
<stop offset="0.59" stop-color="#FFBD2B"/>
<stop offset="1" stop-color="#FFA933"/>
</linearGradient>
<linearGradient id="paint48_linear_6924_92589" x1="130.891" y1="196.825" x2="130.891" y2="110.012" gradientUnits="userSpaceOnUse">
<stop stop-color="#B75014"/>
<stop offset="0.38" stop-color="#E8692A"/>
<stop offset="1" stop-color="#F58E2F"/>
</linearGradient>
<linearGradient id="paint49_linear_6924_92589" x1="89.3408" y1="156.469" x2="89.3408" y2="182.653" gradientUnits="userSpaceOnUse">
<stop stop-color="#C10065"/>
<stop offset="1" stop-color="white"/>
</linearGradient>
<linearGradient id="paint50_linear_6924_92589" x1="172.264" y1="156.469" x2="172.264" y2="182.653" gradientUnits="userSpaceOnUse">
<stop stop-color="#C10065"/>
<stop offset="1" stop-color="white"/>
</linearGradient>
<linearGradient id="paint51_linear_6924_92589" x1="108.977" y1="180.4" x2="108.977" y2="207.456" gradientUnits="userSpaceOnUse">
<stop stop-color="#C10065"/>
<stop offset="1" stop-color="white"/>
</linearGradient>
<linearGradient id="paint52_linear_6924_92589" x1="152.809" y1="180.4" x2="152.809" y2="207.99" gradientUnits="userSpaceOnUse">
<stop stop-color="#C10065"/>
<stop offset="1" stop-color="white"/>
</linearGradient>
<linearGradient id="paint53_linear_6924_92589" x1="130.712" y1="116.461" x2="130.712" y2="185.628" gradientUnits="userSpaceOnUse">
<stop stop-color="#CA6B34"/>
<stop offset="0.67" stop-color="#FFA933"/>
<stop offset="1" stop-color="#FFBD2B"/>
</linearGradient>
<linearGradient id="paint54_linear_6924_92589" x1="130.712" y1="194.107" x2="130.712" y2="163.218" gradientUnits="userSpaceOnUse">
<stop stop-color="#F1CB3C"/>
<stop offset="1" stop-color="#FFC14F"/>
</linearGradient>
<linearGradient id="paint55_linear_6924_92589" x1="155.389" y1="155.469" x2="155.389" y2="191.064" gradientUnits="userSpaceOnUse">
<stop stop-color="#C10065"/>
<stop offset="1" stop-color="white"/>
</linearGradient>
<linearGradient id="paint56_linear_6924_92589" x1="130.712" y1="158.664" x2="130.712" y2="89.4973" gradientUnits="userSpaceOnUse">
<stop stop-color="#CA6B34"/>
<stop offset="0.67" stop-color="#FFA933"/>
<stop offset="1" stop-color="#FFBD2B"/>
</linearGradient>
<linearGradient id="paint57_linear_6924_92589" x1="130.712" y1="112.139" x2="130.712" y2="143.028" gradientUnits="userSpaceOnUse">
<stop stop-color="#F1CB3C"/>
<stop offset="1" stop-color="#FFC14F"/>
</linearGradient>
<linearGradient id="paint58_linear_6924_92589" x1="210.586" y1="135.188" x2="130.146" y2="135.188" gradientUnits="userSpaceOnUse">
<stop stop-color="#C10065"/>
<stop offset="1" stop-color="white"/>
</linearGradient>
<linearGradient id="paint59_linear_6924_92589" x1="131.096" y1="129.657" x2="131.096" y2="91.4377" gradientUnits="userSpaceOnUse">
<stop stop-color="#CA6B34"/>
<stop offset="0.67" stop-color="#FFA933"/>
<stop offset="1" stop-color="#FFBD2B"/>
</linearGradient>
<linearGradient id="paint60_linear_6924_92589" x1="118.758" y1="108.759" x2="143.448" y2="108.759" gradientUnits="userSpaceOnUse">
<stop stop-color="#DE3C14"/>
<stop offset="0.07" stop-color="#C72E10"/>
<stop offset="0.19" stop-color="#AB1C0C"/>
<stop offset="0.3" stop-color="#971009"/>
<stop offset="0.41" stop-color="#8B0807"/>
<stop offset="0.52" stop-color="#870606"/>
<stop offset="0.62" stop-color="#8C0707"/>
<stop offset="0.73" stop-color="#9A0808"/>
<stop offset="0.85" stop-color="#B20B0B"/>
<stop offset="0.97" stop-color="#D30E0E"/>
<stop offset="1" stop-color="#DB0F0F"/>
</linearGradient>
<linearGradient id="paint61_linear_6924_92589" x1="130.856" y1="108.328" x2="130.856" y2="129.216" gradientUnits="userSpaceOnUse">
<stop stop-color="#C10065"/>
<stop offset="1" stop-color="white"/>
</linearGradient>
<linearGradient id="paint62_linear_6924_92589" x1="130.891" y1="168.609" x2="130.891" y2="131.842" gradientUnits="userSpaceOnUse">
<stop stop-color="#CA6B34"/>
<stop offset="0.67" stop-color="#FFA933"/>
<stop offset="1" stop-color="#FFBD2B"/>
</linearGradient>
<linearGradient id="paint63_linear_6924_92589" x1="122.533" y1="148.908" x2="122.533" y2="156.831" gradientUnits="userSpaceOnUse">
<stop stop-color="#C10065"/>
<stop offset="1" stop-color="white"/>
</linearGradient>
<linearGradient id="paint64_linear_6924_92589" x1="139.431" y1="148.908" x2="139.431" y2="156.831" gradientUnits="userSpaceOnUse">
<stop stop-color="#C10065"/>
<stop offset="1" stop-color="white"/>
</linearGradient>
<linearGradient id="paint65_linear_6924_92589" x1="125.766" y1="153.229" x2="125.766" y2="168.028" gradientUnits="userSpaceOnUse">
<stop stop-color="#C10065"/>
<stop offset="1" stop-color="white"/>
</linearGradient>
<linearGradient id="paint66_linear_6924_92589" x1="136.055" y1="153.229" x2="136.055" y2="168.028" gradientUnits="userSpaceOnUse">
<stop stop-color="#C10065"/>
<stop offset="1" stop-color="white"/>
</linearGradient>
<linearGradient id="paint67_linear_6924_92589" x1="132.376" y1="139.509" x2="134.548" y2="160.17" gradientUnits="userSpaceOnUse">
<stop stop-color="#BFD7FF"/>
<stop offset="1"/>
</linearGradient>
<linearGradient id="paint68_linear_6924_92589" x1="131.133" y1="150.253" x2="147.718" y2="150.253" gradientUnits="userSpaceOnUse">
<stop stop-color="#BFD7FF"/>
<stop offset="1"/>
</linearGradient>
<linearGradient id="paint69_linear_6924_92589" x1="138.044" y1="138.915" x2="140.217" y2="159.564" gradientUnits="userSpaceOnUse">
<stop stop-color="#BFD7FF"/>
<stop offset="1"/>
</linearGradient>
<linearGradient id="paint70_linear_6924_92589" x1="121.363" y1="140.669" x2="123.525" y2="161.318" gradientUnits="userSpaceOnUse">
<stop stop-color="#BFD7FF"/>
<stop offset="1"/>
</linearGradient>
<linearGradient id="paint71_linear_6924_92589" x1="130.891" y1="115.496" x2="130.891" y2="100.197" gradientUnits="userSpaceOnUse">
<stop stop-color="#CA6B34"/>
<stop offset="0.67" stop-color="#FFA933"/>
<stop offset="1" stop-color="#FFBD2B"/>
</linearGradient>
<linearGradient id="paint72_linear_6924_92589" x1="127.418" y1="107.294" x2="127.418" y2="110.593" gradientUnits="userSpaceOnUse">
<stop stop-color="#C10065"/>
<stop offset="1" stop-color="white"/>
</linearGradient>
<linearGradient id="paint73_linear_6924_92589" x1="134.438" y1="107.294" x2="134.438" y2="110.593" gradientUnits="userSpaceOnUse">
<stop stop-color="#C10065"/>
<stop offset="1" stop-color="white"/>
</linearGradient>
<linearGradient id="paint74_linear_6924_92589" x1="128.759" y1="109.106" x2="128.759" y2="115.252" gradientUnits="userSpaceOnUse">
<stop stop-color="#C10065"/>
<stop offset="1" stop-color="white"/>
</linearGradient>
<linearGradient id="paint75_linear_6924_92589" x1="133.038" y1="109.106" x2="133.038" y2="115.252" gradientUnits="userSpaceOnUse">
<stop stop-color="#C10065"/>
<stop offset="1" stop-color="white"/>
</linearGradient>
<linearGradient id="paint76_linear_6924_92589" x1="131.506" y1="103.392" x2="132.414" y2="111.984" gradientUnits="userSpaceOnUse">
<stop stop-color="#BFD7FF"/>
<stop offset="1"/>
</linearGradient>
<linearGradient id="paint77_linear_6924_92589" x1="130.988" y1="107.863" x2="137.888" y2="107.863" gradientUnits="userSpaceOnUse">
<stop stop-color="#BFD7FF"/>
<stop offset="1"/>
</linearGradient>
<linearGradient id="paint78_linear_6924_92589" x1="133.871" y1="103.147" x2="134.767" y2="111.739" gradientUnits="userSpaceOnUse">
<stop stop-color="#BFD7FF"/>
<stop offset="1"/>
</linearGradient>
<linearGradient id="paint79_linear_6924_92589" x1="126.924" y1="103.879" x2="127.831" y2="112.471" gradientUnits="userSpaceOnUse">
<stop stop-color="#BFD7FF"/>
<stop offset="1"/>
</linearGradient>
<linearGradient id="paint80_linear_6924_92589" x1="131.096" y1="216.249" x2="131.096" y2="178.018" gradientUnits="userSpaceOnUse">
<stop stop-color="#CA6B34"/>
<stop offset="0.67" stop-color="#FFA933"/>
<stop offset="1" stop-color="#FFBD2B"/>
</linearGradient>
<linearGradient id="paint81_linear_6924_92589" x1="118.758" y1="195.352" x2="143.448" y2="195.352" gradientUnits="userSpaceOnUse">
<stop stop-color="#DE3C14"/>
<stop offset="0.07" stop-color="#C72E10"/>
<stop offset="0.19" stop-color="#AB1C0C"/>
<stop offset="0.3" stop-color="#971009"/>
<stop offset="0.41" stop-color="#8B0807"/>
<stop offset="0.52" stop-color="#870606"/>
<stop offset="0.62" stop-color="#8C0707"/>
<stop offset="0.73" stop-color="#9A0808"/>
<stop offset="0.85" stop-color="#B20B0B"/>
<stop offset="0.97" stop-color="#D30E0E"/>
<stop offset="1" stop-color="#DB0F0F"/>
</linearGradient>
<linearGradient id="paint82_linear_6924_92589" x1="130.856" y1="194.91" x2="130.856" y2="215.809" gradientUnits="userSpaceOnUse">
<stop stop-color="#C10065"/>
<stop offset="1" stop-color="white"/>
</linearGradient>
<linearGradient id="paint83_linear_6924_92589" x1="130.891" y1="202.077" x2="130.891" y2="186.789" gradientUnits="userSpaceOnUse">
<stop stop-color="#CA6B34"/>
<stop offset="0.67" stop-color="#FFA933"/>
<stop offset="1" stop-color="#FFBD2B"/>
</linearGradient>
<linearGradient id="paint84_linear_6924_92589" x1="127.418" y1="193.888" x2="127.418" y2="197.187" gradientUnits="userSpaceOnUse">
<stop stop-color="#C10065"/>
<stop offset="1" stop-color="white"/>
</linearGradient>
<linearGradient id="paint85_linear_6924_92589" x1="134.438" y1="193.888" x2="134.438" y2="197.187" gradientUnits="userSpaceOnUse">
<stop stop-color="#C10065"/>
<stop offset="1" stop-color="white"/>
</linearGradient>
<linearGradient id="paint86_linear_6924_92589" x1="128.759" y1="195.688" x2="128.759" y2="201.844" gradientUnits="userSpaceOnUse">
<stop stop-color="#C10065"/>
<stop offset="1" stop-color="white"/>
</linearGradient>
<linearGradient id="paint87_linear_6924_92589" x1="133.038" y1="195.688" x2="133.038" y2="201.844" gradientUnits="userSpaceOnUse">
<stop stop-color="#C10065"/>
<stop offset="1" stop-color="white"/>
</linearGradient>
<linearGradient id="paint88_linear_6924_92589" x1="131.506" y1="189.983" x2="132.414" y2="198.564" gradientUnits="userSpaceOnUse">
<stop stop-color="#BFD7FF"/>
<stop offset="1"/>
</linearGradient>
<linearGradient id="paint89_linear_6924_92589" x1="130.988" y1="194.443" x2="137.888" y2="194.443" gradientUnits="userSpaceOnUse">
<stop stop-color="#BFD7FF"/>
<stop offset="1"/>
</linearGradient>
<linearGradient id="paint90_linear_6924_92589" x1="133.871" y1="189.727" x2="134.767" y2="198.319" gradientUnits="userSpaceOnUse">
<stop stop-color="#BFD7FF"/>
<stop offset="1"/>
</linearGradient>
<linearGradient id="paint91_linear_6924_92589" x1="126.924" y1="190.459" x2="127.831" y2="199.051" gradientUnits="userSpaceOnUse">
<stop stop-color="#BFD7FF"/>
<stop offset="1"/>
</linearGradient>
<radialGradient id="paint92_radial_6924_92589" cx="0" cy="0" r="1" gradientUnits="userSpaceOnUse" gradientTransform="translate(157.272 142.226) scale(28.7432 27.6831)">
<stop stop-color="#F4A940"/>
<stop offset="0.09" stop-color="#E6A03C"/>
<stop offset="0.27" stop-color="#C38733"/>
<stop offset="0.51" stop-color="#895F24"/>
<stop offset="0.8" stop-color="#39280F"/>
<stop offset="1"/>
</radialGradient>
<linearGradient id="paint93_linear_6924_92589" x1="148.5" y1="-0.5" x2="104" y2="22.5" gradientUnits="userSpaceOnUse">
<stop stop-color="#C68C43"/>
<stop offset="0.119792" stop-color="#F5BA6E"/>
<stop offset="0.286458" stop-color="#C68C43"/>
<stop offset="0.5625" stop-color="#C68C43"/>
<stop offset="0.770833" stop-color="#EEB873"/>
<stop offset="1" stop-color="#C68C43"/>
</linearGradient>
<linearGradient id="paint94_linear_6924_92589" x1="84.5" y1="60.5" x2="32.0032" y2="111.503" gradientUnits="userSpaceOnUse">
<stop stop-color="white" stop-opacity="0"/>
<stop offset="0.440223" stop-color="white"/>
<stop offset="1" stop-color="white" stop-opacity="0"/>
</linearGradient>
</defs>
</svg>
