<svg width="261" height="316" viewBox="0 0 261 316" fill="none" xmlns="http://www.w3.org/2000/svg">
<g filter="url(#filter0_b_6924_92375)">
<path d="M25 309.983C22.2386 309.983 20 307.745 20 304.983L20 11.9998C20 9.2384 22.2386 6.99982 25 6.99982L57 6.99982L57 309.983L25 309.983Z" fill="url(#paint0_linear_6924_92375)"/>
<path d="M25 308.983C22.7909 308.983 21 307.193 21 304.983L21 11.9998C21 9.79068 22.7908 7.99982 25 7.99982L56 7.99982L56 308.983L25 308.983Z" stroke="url(#paint1_linear_6924_92375)" stroke-width="2"/>
</g>
<g filter="url(#filter1_b_6924_92375)">
<path d="M235 7C237.761 7 240 9.23858 240 12L240 304.984C240 307.745 237.761 309.984 235 309.984L203 309.984L203 7L235 7Z" fill="url(#paint2_linear_6924_92375)"/>
<path d="M235 8C237.209 8 239 9.79086 239 12L239 304.984C239 307.193 237.209 308.984 235 308.984L204 308.984L204 8L235 8Z" stroke="url(#paint3_linear_6924_92375)" stroke-width="2"/>
</g>
<mask id="path-5-inside-1_6924_92375" fill="white">
<path fill-rule="evenodd" clip-rule="evenodd" d="M17 10C17 4.47715 21.4772 0 27 0H233C238.523 0 243 4.47715 243 10V116.123C243 119.396 241.398 122.462 238.711 124.332L236.289 126.016C233.602 127.885 232 130.952 232 134.225V157V160V182.775C232 186.048 233.602 189.115 236.289 190.984L238.711 192.668C241.398 194.538 243 197.604 243 200.877V306C243 311.523 238.523 316 233 316H27C21.4772 316 17 311.523 17 306V200.877C17 197.604 18.6021 194.538 21.2894 192.668L23.7106 190.984C26.3979 189.115 28 186.048 28 182.775L28 160V157L28 134.225C28 130.952 26.3979 127.885 23.7106 126.016L21.2894 124.332C18.6021 122.462 17 119.396 17 116.123V10Z"/>
</mask>
<g filter="url(#filter2_i_6924_92375)">
<path fill-rule="evenodd" clip-rule="evenodd" d="M17 10C17 4.47715 21.4772 0 27 0H233C238.523 0 243 4.47715 243 10V116.123C243 119.396 241.398 122.462 238.711 124.332L236.289 126.016C233.602 127.885 232 130.952 232 134.225V157V160V182.775C232 186.048 233.602 189.115 236.289 190.984L238.711 192.668C241.398 194.538 243 197.604 243 200.877V306C243 311.523 238.523 316 233 316H27C21.4772 316 17 311.523 17 306V200.877C17 197.604 18.6021 194.538 21.2894 192.668L23.7106 190.984C26.3979 189.115 28 186.048 28 182.775L28 160V157L28 134.225C28 130.952 26.3979 127.885 23.7106 126.016L21.2894 124.332C18.6021 122.462 17 119.396 17 116.123V10Z" fill="#090E1C"/>
</g>
<path d="M28 160H30H28ZM28 157H26H28ZM21.2894 124.332L22.4315 122.69L21.2894 124.332ZM21.2894 192.668L20.1472 191.026L21.2894 192.668ZM238.711 192.668L237.569 194.31L238.711 192.668ZM23.7106 126.016L22.5685 127.658L23.7106 126.016ZM236.289 126.016L235.147 124.374L236.289 126.016ZM238.711 124.332L239.853 125.974L238.711 124.332ZM236.289 190.984L237.431 189.342L236.289 190.984ZM23.7106 190.984L24.8528 192.626L23.7106 190.984ZM233 -2H27V2H233V-2ZM245 116.123V10H241V116.123H245ZM237.431 127.658L239.853 125.974L237.569 122.69L235.147 124.374L237.431 127.658ZM234 157V134.225H230V157H234ZM234 160V157H230V160H234ZM234 182.775V160H230V182.775H234ZM239.853 191.026L237.431 189.342L235.147 192.626L237.569 194.31L239.853 191.026ZM245 306V200.877H241V306H245ZM27 318H233V314H27V318ZM15 200.877V306H19V200.877H15ZM22.4315 194.31L24.8528 192.626L22.5685 189.342L20.1472 191.026L22.4315 194.31ZM30 182.775L30 160H26L26 182.775H30ZM30 160V157H26V160H30ZM30 157L30 134.225H26L26 157H30ZM24.8528 124.374L22.4315 122.69L20.1472 125.974L22.5685 127.658L24.8528 124.374ZM15 10V116.123H19V10H15ZM22.4315 122.69C20.2817 121.194 19 118.741 19 116.123H15C15 120.051 16.9226 123.73 20.1472 125.974L22.4315 122.69ZM19 200.877C19 198.259 20.2817 195.806 22.4315 194.31L20.1472 191.026C16.9226 193.27 15 196.949 15 200.877H19ZM27 314C22.5817 314 19 310.418 19 306H15C15 312.627 20.3726 318 27 318V314ZM241 306C241 310.418 237.418 314 233 314V318C239.627 318 245 312.627 245 306H241ZM237.569 194.31C239.718 195.806 241 198.259 241 200.877H245C245 196.949 243.077 193.27 239.853 191.026L237.569 194.31ZM30 134.225C30 130.297 28.0774 126.618 24.8528 124.374L22.5685 127.658C24.7183 129.153 26 131.606 26 134.225H30ZM235.147 124.374C231.923 126.618 230 130.297 230 134.225H234C234 131.606 235.282 129.153 237.431 127.658L235.147 124.374ZM241 116.123C241 118.741 239.718 121.194 237.569 122.69L239.853 125.974C243.077 123.73 245 120.051 245 116.123H241ZM230 182.775C230 186.703 231.923 190.382 235.147 192.626L237.431 189.342C235.282 187.847 234 185.394 234 182.775H230ZM27 -2C20.3726 -2 15 3.37258 15 10H19C19 5.58172 22.5817 2 27 2V-2ZM24.8528 192.626C28.0774 190.382 30 186.703 30 182.775H26C26 185.394 24.7183 187.847 22.5685 189.342L24.8528 192.626ZM233 2C237.418 2 241 5.58172 241 10H245C245 3.37258 239.627 -2 233 -2V2Z" fill="url(#paint4_linear_6924_92375)" mask="url(#path-5-inside-1_6924_92375)"/>
<mask id="mask0_6924_92375" style="mask-type:alpha" maskUnits="userSpaceOnUse" x="19" y="2" width="222" height="312">
<path fill-rule="evenodd" clip-rule="evenodd" d="M19 12C19 6.47715 23.4771 2 29 2H231C236.523 2 241 6.47715 241 12V116.602C241 119.867 239.406 122.927 236.73 124.798L234.465 126.382C231.789 128.253 230.195 131.312 230.195 134.577V157.013V159.975V182.41C230.195 185.675 231.789 188.735 234.465 190.606L236.73 192.19C239.406 194.061 241 197.12 241 200.385V304C241 309.523 236.523 314 231 314H29C23.4772 314 19 309.523 19 304V200.386C19 197.121 20.5939 194.062 23.2697 192.191L25.537 190.606C28.2127 188.735 29.8066 185.675 29.8066 182.41L29.8066 157.013L29.8066 134.577C29.8066 131.312 28.2127 128.253 25.537 126.382L23.2697 124.796C20.5939 122.925 19 119.866 19 116.601V12Z" fill="#090E1C"/>
</mask>
<g mask="url(#mask0_6924_92375)">
<rect x="18" y="317" width="317" height="113" transform="rotate(-90 18 317)" fill="#060911"/>
<g opacity="0.2">
<g style="mix-blend-mode:multiply" opacity="0.5">
<path d="M130.5 126.965L62.8558 158L75.7902 92.1373L21 45.5139L96.6779 35.8943L130.5 -24L164.322 35.8943L240 45.5139L185.29 92.1373L198.225 158L130.5 126.965Z" fill="#DE5634"/>
</g>
<path d="M232.739 47.0166L196.168 42.3724L186.202 41.1058L162.491 38.08L131.064 -17.6504L99.6369 38.08L29.4688 47.0166L80.2663 90.3625L68.2903 151.652L131.064 122.731L193.918 151.652L181.942 90.3625L232.739 47.0166Z" fill="url(#paint5_linear_6924_92375)"/>
<path style="mix-blend-mode:multiply" opacity="0.37" d="M29.4688 47.9531L132.314 71.6874L80.0524 91.3368L29.4688 47.9531Z" fill="url(#paint6_linear_6924_92375)"/>
<path style="mix-blend-mode:multiply" opacity="0.37" d="M231.532 47.9531L132.316 71.6874L181.045 91.3368L231.532 47.9531Z" fill="url(#paint7_linear_6924_92375)"/>
<path style="mix-blend-mode:multiply" opacity="0.37" d="M130.56 122.911L132.315 71.2334L68.1875 151.652L130.56 122.911Z" fill="url(#paint8_linear_6924_92375)"/>
<path style="mix-blend-mode:multiply" opacity="0.37" d="M192.812 151.652L131.667 71.2334L129.895 122.911L192.812 151.652Z" fill="url(#paint9_linear_6924_92375)"/>
<path style="mix-blend-mode:color-dodge" opacity="0.5" d="M129.895 -17.6504L131.669 71.2333L161.353 38.3973L129.895 -17.6504Z" fill="url(#paint10_linear_6924_92375)"/>
<path style="mix-blend-mode:color-dodge" opacity="0.5" d="M231.532 47.4079L132.316 71.232L161.714 38.4297L231.532 47.4079Z" fill="url(#paint11_linear_6924_92375)"/>
<path style="mix-blend-mode:color-dodge" opacity="0.5" d="M231.532 47.4079L132.316 71.232L161.714 38.4297L231.532 47.4079Z" fill="url(#paint12_linear_6924_92375)"/>
<path style="mix-blend-mode:color-dodge" opacity="0.5" d="M99.3109 38.4297L132.314 71.232L29.4688 47.4079L99.3109 38.4297Z" fill="url(#paint13_linear_6924_92375)"/>
<path d="M161.517 57.8466C156.225 61.4331 160.703 63.824 160.703 63.824L187.972 57.8466C184.14 55.5433 179.504 54.3008 174.744 54.3008C169.984 54.3008 165.349 55.5433 161.517 57.8466Z" fill="white"/>
<g style="mix-blend-mode:multiply" opacity="0.5">
<path d="M68.1875 151.652C68.1875 151.652 115.848 131.949 131.064 126.53L194.022 151.652L131.064 123.082L68.1875 151.652Z" fill="#DE5634"/>
</g>
<g style="mix-blend-mode:soft-light" opacity="0.4">
<path d="M106.823 28.6756C100.035 44.7466 125.962 55.9476 129.397 51.008C132.832 46.0685 130.706 18.5182 126.371 14.8309C122.036 11.1436 109.604 22.1359 106.823 28.6756Z" fill="#F7FFFF"/>
</g>
<g style="mix-blend-mode:soft-light" opacity="0.4">
<path d="M86.6799 112.366C99.9748 114.005 107.37 100.325 110.28 90.992C114.607 75.8164 62.6075 109.801 86.6799 112.366Z" fill="#F7FFFF"/>
</g>
</g>
</g>
<g filter="url(#filter3_f_6924_92375)">
<ellipse cx="130.5" cy="158" rx="55.5" ry="52" fill="#FF5C00"/>
</g>
<path fill-rule="evenodd" clip-rule="evenodd" d="M219.926 19.509V22.7297H221.865C222.936 22.7297 223.804 23.5949 223.804 24.6622V32.3919C223.804 33.4592 222.936 34.3244 221.865 34.3244H208.939C207.868 34.3244 207 33.4592 207 32.3919V24.6622C207 23.5949 207.868 22.7297 208.939 22.7297H210.878V19.509C210.878 17.0188 212.903 15 215.402 15C217.9 15 219.926 17.0188 219.926 19.509ZM212.17 19.509C212.17 17.7303 213.617 16.2883 215.402 16.2883C217.187 16.2883 218.633 17.7303 218.633 19.509V22.7297H212.17V19.509Z" fill="white"/>
<circle cx="215.403" cy="27.6023" r="1.68038" fill="black"/>
<rect x="214.562" y="27.6025" width="1.68038" height="4.20095" fill="black"/>
<path d="M79.0859 168.954V207.627L97.8471 196.843L98.7839 169.931L79.0859 168.954Z" fill="url(#paint14_linear_6924_92375)"/>
<g style="mix-blend-mode:multiply" opacity="0.6">
<path d="M79.0859 202.845L97.9792 193.499L97.8471 196.844L79.0859 207.628V202.845Z" fill="#8E37E2"/>
</g>
<path style="mix-blend-mode:multiply" d="M79.5544 186.085C80.6594 181.923 82.8574 184.82 82.8574 190.74C82.8574 196.661 82.0767 205.904 82.0767 205.904L83.7702 204.754C83.7702 204.754 83.6501 189.441 84.4909 187.602C85.3316 185.763 89.8357 186.372 89.8357 201.466L97.8471 196.868L98.7839 169.956L79.0859 168.979V190.166L79.5544 186.085Z" fill="url(#paint15_linear_6924_92375)"/>
<path d="M181.913 168.954V207.627L163.152 196.843L162.215 169.931L181.913 168.954Z" fill="url(#paint16_linear_6924_92375)"/>
<g style="mix-blend-mode:multiply" opacity="0.6">
<path d="M181.913 202.845L163.02 193.499L163.152 196.844L181.913 207.628V202.845Z" fill="#8E37E2"/>
</g>
<path style="mix-blend-mode:multiply" d="M181.446 186.083C180.353 181.922 178.155 184.819 178.155 190.739C178.155 196.659 178.923 205.902 178.923 205.902L177.242 204.753C177.242 204.753 177.35 189.44 176.509 187.601C175.668 185.761 171.116 186.348 171.116 201.442L163.105 196.843L162.168 169.931L181.866 168.954V190.164L181.446 186.083Z" fill="url(#paint17_linear_6924_92375)"/>
<path d="M125.606 197.064V235C113.595 228.954 95.5781 211.307 95.5781 211.307V185.073L125.606 197.064Z" fill="url(#paint18_linear_6924_92375)"/>
<g style="mix-blend-mode:multiply" opacity="0.6">
<path d="M125.606 227.333V234.966C113.595 228.919 95.5781 211.273 95.5781 211.273V204.731C99.7699 209.859 108.658 218.435 125.606 227.333Z" fill="#8E37E2"/>
</g>
<path d="M135.816 197.064V235C147.827 228.954 165.844 211.307 165.844 211.307V185.073L135.816 197.064Z" fill="url(#paint19_linear_6924_92375)"/>
<g style="mix-blend-mode:multiply" opacity="0.6">
<path d="M135.816 227.333V234.966C147.827 228.919 165.844 211.273 165.844 211.273V204.731C161.652 209.859 152.824 218.435 135.816 227.333Z" fill="#8E37E2"/>
</g>
<path style="mix-blend-mode:multiply" d="M98.4127 213.938C98.4127 213.938 98.1365 196.545 100.971 196.844C103.806 197.142 108.694 199.902 109.763 203.063C110.832 206.224 110.52 224.537 110.52 224.537L111.601 225.388C111.601 225.388 110.268 203.143 112.478 204.236C114.111 204.999 115.527 206.13 116.604 207.531C117.681 208.933 118.388 210.563 118.663 212.283C119.684 217.249 119.996 231.699 119.996 231.699L125.606 234.918V196.982L95.5781 184.991V211.191L98.4127 213.938Z" fill="url(#paint20_linear_6924_92375)"/>
<path style="mix-blend-mode:multiply" d="M163.009 213.939C163.009 213.939 163.237 193.557 160.403 193.856C157.568 194.155 157.448 204.478 157.448 207.651C157.448 210.824 156.992 219.411 156.992 219.411L155.394 220.802C155.394 220.802 155.622 197.615 153.412 198.707C151.202 199.799 141.51 206.973 140.477 211.939C139.444 216.905 139.84 232.632 139.84 232.632L135.816 234.931V196.994L165.844 185.004V211.203L163.009 213.939Z" fill="url(#paint21_linear_6924_92375)"/>
<path d="M142.805 139.329L208.697 138.927L202.547 149.503L146.192 150.998L142.805 139.329Z" fill="url(#paint22_linear_6924_92375)"/>
<path d="M202.825 138.927L195.186 138.973L188.652 149.802L196.495 149.595L202.825 138.927Z" fill="url(#paint23_linear_6924_92375)"/>
<g style="mix-blend-mode:multiply" opacity="0.5">
<path d="M145.711 147.686L204.348 146.398L202.547 149.502L146.191 150.997L145.711 147.686Z" fill="#DE5634"/>
</g>
<g style="mix-blend-mode:soft-light" opacity="0.4">
<path d="M180.17 139.858C179.678 140.375 181.96 145.893 182.897 145.721C183.834 145.548 202.871 145.882 203.724 145.318C204.577 144.755 207.759 140.122 207.063 139.57C206.366 139.018 180.639 139.363 180.17 139.858Z" fill="#FFDF66"/>
</g>
<g style="mix-blend-mode:multiply" opacity="0.5">
<path d="M178.826 139.065C178.826 139.065 181.312 145.503 181.396 146.906C181.348 148.021 181.032 149.111 180.471 150.09L146.192 150.998L142.805 139.33L178.826 139.065Z" fill="#DE5634"/>
</g>
<path d="M118.615 139.329L52.7227 138.927L58.8723 149.503L115.228 150.998L118.615 139.329Z" fill="url(#paint24_linear_6924_92375)"/>
<path d="M58.4648 138.973L66.0918 139.019L72.6258 149.848L64.7946 149.641L58.4648 138.973Z" fill="url(#paint25_linear_6924_92375)"/>
<g style="mix-blend-mode:multiply" opacity="0.5">
<path d="M115.72 147.686L57.0703 146.398L58.872 149.502L115.227 150.997L115.72 147.686Z" fill="#DE5634"/>
</g>
<g style="mix-blend-mode:soft-light" opacity="0.4">
<path d="M80.7928 139.629C82.4263 141.112 79.4956 146.182 78.5588 146.009C77.6219 145.837 58.5485 145.883 57.6957 145.32C56.843 144.756 53.6601 140.124 54.3567 139.572C55.0533 139.02 79.8319 138.778 80.7928 139.629Z" fill="#FFDF66"/>
</g>
<g style="mix-blend-mode:multiply" opacity="0.5">
<path d="M82.5938 139.065C82.5938 139.065 80.1075 145.503 80.0234 146.906C80.073 148.017 80.3895 149.103 80.9483 150.079L115.228 150.987L118.615 139.318L82.5938 139.065Z" fill="#DE5634"/>
</g>
<path d="M150.121 125.695L216.001 125.293L209.852 135.881L153.496 137.364L150.121 125.695Z" fill="url(#paint26_linear_6924_92375)"/>
<path d="M210.524 125.315L202.886 125.361L196.352 136.191L204.195 135.984L210.524 125.315Z" fill="url(#paint27_linear_6924_92375)"/>
<g style="mix-blend-mode:multiply" opacity="0.5">
<path d="M153.016 134.065L211.653 132.766L209.851 135.881L153.496 137.364L153.016 134.065Z" fill="#DE5634"/>
</g>
<g style="mix-blend-mode:soft-light" opacity="0.4">
<path d="M187.475 126.236C186.983 126.754 189.265 132.26 190.201 132.088C191.138 131.915 210.176 132.26 211.028 131.697C211.881 131.134 215.076 126.489 214.38 125.949C213.683 125.409 187.931 125.742 187.475 126.236Z" fill="#FFDF66"/>
</g>
<g style="mix-blend-mode:multiply" opacity="0.5">
<path d="M177.53 125.533C178.554 128.094 179.413 130.712 180.1 133.373C180.047 134.488 179.731 135.577 179.176 136.558L153.496 137.363L150.121 125.694L177.53 125.533Z" fill="#DE5634"/>
</g>
<path d="M110.892 125.695L45 125.293L51.1496 135.881L107.505 137.364L110.892 125.695Z" fill="url(#paint28_linear_6924_92375)"/>
<path d="M50.668 125.362L58.3069 125.408L64.8409 136.238L56.9977 136.031L50.668 125.362Z" fill="url(#paint29_linear_6924_92375)"/>
<g style="mix-blend-mode:multiply" opacity="0.5">
<path d="M107.997 134.065L49.3477 132.766L51.1493 135.881L107.505 137.364L107.997 134.065Z" fill="#DE5634"/>
</g>
<g style="mix-blend-mode:soft-light" opacity="0.4">
<path d="M73.0702 125.994C74.7036 127.489 71.773 132.547 70.8361 132.375C69.8993 132.202 50.8259 132.26 49.9731 131.685C49.1203 131.11 45.9374 126.489 46.634 125.937C47.3307 125.385 72.1213 125.144 73.0702 125.994Z" fill="#FFDF66"/>
</g>
<g style="mix-blend-mode:multiply" opacity="0.5">
<path d="M83.8555 125.533C83.8555 125.533 81.3692 131.971 81.2852 133.373C81.3462 134.49 81.6706 135.579 82.234 136.558L107.529 137.363L110.916 125.694L83.8555 125.533Z" fill="#DE5634"/>
</g>
<path style="mix-blend-mode:multiply" opacity="0.37" d="M114.375 112.681C111.901 114.624 87.2307 127.534 86.8944 128.373C86.462 129.443 89.741 134.478 91.2904 134.052C92.8398 133.627 122.207 117.705 122.267 116.958C122.327 116.211 122.399 112.061 121.69 111.796C120.982 111.532 115.312 111.934 114.375 112.681Z" fill="url(#paint30_linear_6924_92375)"/>
<g style="mix-blend-mode:soft-light" opacity="0.4">
<path d="M111.059 111.371C109.438 111.475 89.3074 123.845 89.3074 124.201C89.3074 124.557 85.7041 126.65 86.6169 126.592C87.5298 126.535 112.933 112.797 112.969 112.326C113.005 111.854 111.972 111.314 111.059 111.371Z" fill="#FFDF66"/>
</g>
<g style="mix-blend-mode:soft-light" opacity="0.4">
<path d="M85.8359 128.375C85.8359 128.375 99.2402 121.902 106.086 117.764C112.933 113.625 114.374 112.683 114.374 112.683L85.8359 128.375Z" fill="#FFDF66"/>
</g>
<path style="mix-blend-mode:multiply" opacity="0.37" d="M147.092 112.681C149.495 114.624 174.225 127.534 174.561 128.373C174.994 129.443 171.715 134.478 170.165 134.052C168.616 133.627 139.213 117.705 139.153 116.958C139.093 116.211 139.021 112.061 139.73 111.796C140.438 111.532 146.107 111.934 147.092 112.681Z" fill="url(#paint31_linear_6924_92375)"/>
<g style="mix-blend-mode:soft-light" opacity="0.4">
<path d="M150.313 111.371C151.934 111.475 172.065 123.845 172.065 124.201C172.065 124.557 175.668 126.65 174.755 126.592C173.842 126.535 148.439 112.797 148.403 112.326C148.367 111.854 149.496 111.314 150.313 111.371Z" fill="#FFDF66"/>
</g>
<g style="mix-blend-mode:soft-light" opacity="0.4">
<path d="M175.596 128.375C175.596 128.375 162.192 121.902 155.333 117.764C148.475 113.625 147.094 112.683 147.094 112.683L175.596 128.375Z" fill="#FFDF66"/>
</g>
<path d="M87.4699 178.415C87.3618 178.795 71.0389 173.357 71.0389 173.357C66.8894 167.399 63.4451 161.018 60.7695 154.331H88.647L87.4699 178.415Z" fill="url(#paint32_linear_6924_92375)"/>
<path d="M66.0898 154.331C66.0898 154.331 72.6238 167.195 73.8249 168.586L87.9258 168.954V168.034C87.9258 168.034 75.014 168.138 74.2813 167.609C73.5486 167.08 66.9546 154.331 66.9546 154.331H66.0898Z" fill="#B33114"/>
<path d="M66.0898 154.331L73.8249 168.586C72.1529 166.306 70.6364 163.925 69.2848 161.459C67.5312 158.125 66.0898 154.331 66.0898 154.331Z" fill="white"/>
<g style="mix-blend-mode:soft-light" opacity="0.4">
<path d="M68.0832 155.206C69.1641 158.287 73.4521 165.265 74.3409 165.265C75.2297 165.265 85.5711 165.093 86.52 163.667C87.4688 162.242 88.2976 155.344 87.4688 155.206C86.6401 155.068 67.6027 153.838 68.0832 155.206Z" fill="#FFDF66"/>
</g>
<g style="mix-blend-mode:soft-light" opacity="0.4">
<path d="M61.6951 154.873C63.0163 157.885 66.7157 165.553 67.4003 165.645C68.0849 165.737 70.391 166.013 70.4271 165.093C70.4271 163.622 66.1632 155.069 65.2023 154.873C64.2414 154.678 61.3588 154.126 61.6951 154.873Z" fill="#FFDF66"/>
</g>
<path style="mix-blend-mode:multiply" opacity="0.37" d="M68.0732 166.645C67.953 167.599 71.6764 172.507 72.277 172.898C72.8775 173.289 85.417 177.163 86.2457 176.612C87.0745 176.06 87.4468 165.943 86.8103 165.644C86.1737 165.345 68.2173 165.598 68.0732 166.645Z" fill="url(#paint33_linear_6924_92375)"/>
<g style="mix-blend-mode:multiply" opacity="0.5">
<path d="M79.2773 154.333C80.6203 161.687 81.2076 169.149 81.0309 176.612L87.4568 178.417L88.6579 154.275L79.2773 154.333Z" fill="#DE5634"/>
</g>
<path d="M173.951 178.415C174.059 178.795 190.382 173.357 190.382 173.357C194.531 167.399 197.975 161.018 200.651 154.331H172.773L173.951 178.415Z" fill="url(#paint34_linear_6924_92375)"/>
<path d="M195.328 154.331C195.328 154.331 188.818 167.195 187.629 168.586L173.516 168.954V168.034C173.516 168.034 186.415 168.138 187.148 167.609C187.881 167.08 194.475 154.331 194.475 154.331H195.328Z" fill="#B33114"/>
<path d="M195.328 154.331L187.629 168.586C189.301 166.306 190.817 163.925 192.169 161.459C193.935 158.125 195.328 154.331 195.328 154.331Z" fill="white"/>
<g style="mix-blend-mode:soft-light" opacity="0.4">
<path d="M193.335 155.206C192.254 158.287 187.979 165.265 187.078 165.265C186.177 165.265 175.847 165.093 174.899 163.667C173.95 162.242 173.121 155.344 173.95 155.206C174.778 155.068 193.816 153.838 193.335 155.206Z" fill="#FFDF66"/>
</g>
<g style="mix-blend-mode:soft-light" opacity="0.4">
<path d="M199.736 154.873C198.403 157.885 194.716 165.553 194.019 165.645C193.322 165.737 191.028 166.013 190.992 165.093C190.992 163.622 195.256 155.069 196.229 154.873C197.202 154.678 200.06 154.126 199.736 154.873Z" fill="#FFDF66"/>
</g>
<path style="mix-blend-mode:multiply" opacity="0.37" d="M193.348 166.645C193.468 167.599 189.744 172.507 189.144 172.898C188.543 173.289 176.004 177.163 175.187 176.612C174.37 176.06 173.986 165.943 174.611 165.644C175.235 165.345 193.204 165.598 193.348 166.645Z" fill="url(#paint35_linear_6924_92375)"/>
<g style="mix-blend-mode:multiply" opacity="0.5">
<path d="M182.143 154.333C180.796 161.686 180.204 169.148 180.377 176.612L173.951 178.417L172.75 154.275L182.143 154.333Z" fill="#DE5634"/>
</g>
<path d="M130.891 98.6328L85.2617 123.844V184.014L130.891 209.224L176.521 184.014V123.844L130.891 98.6328Z" fill="url(#paint36_linear_6924_92375)"/>
<path d="M93.5117 179.451V128.408L130.89 107.75L168.268 128.408V179.451L130.89 200.109L93.5117 179.451Z" fill="url(#paint37_linear_6924_92375)"/>
<path d="M96.2617 177.934V129.926L130.889 110.797L165.517 129.926V177.934L130.889 197.063L96.2617 177.934Z" fill="url(#paint38_linear_6924_92375)"/>
<g style="mix-blend-mode:soft-light" opacity="0.4">
<path d="M86.401 124.005C85.8365 125.626 90.6409 127.615 94.1 126.902C97.5592 126.19 129.628 108.164 130.409 106.543C130.644 104.295 130.644 102.031 130.409 99.7832C129.28 99.7832 86.6773 123.224 86.401 124.005Z" fill="#FFDF66"/>
</g>
<g style="mix-blend-mode:soft-light" opacity="0.4">
<path d="M175.162 124.005C175.726 125.626 170.874 127.615 167.463 126.902C164.051 126.19 132.234 107.991 131.153 106.543C130.589 105.796 130.409 99.7832 131.153 99.7832C132.282 99.7832 174.885 123.224 175.162 124.005Z" fill="#FFDF66"/>
</g>
<path style="mix-blend-mode:multiply" opacity="0.37" d="M86.3518 158.231C86.0395 160.024 85.2949 182.798 86.3518 182.97C87.4088 183.142 92.3573 179.901 92.6336 178.372C92.9098 176.843 92.9939 161.266 92.6336 159.771C92.2732 158.277 86.8563 155.23 86.3518 158.231Z" fill="url(#paint39_linear_6924_92375)"/>
<path style="mix-blend-mode:multiply" opacity="0.37" d="M175.248 158.231C175.56 160.024 176.305 182.798 175.248 182.97C174.191 183.142 169.243 179.901 168.966 178.372C168.69 176.843 168.606 161.266 168.966 159.771C169.327 158.277 174.72 155.23 175.248 158.231Z" fill="url(#paint40_linear_6924_92375)"/>
<path style="mix-blend-mode:multiply" opacity="0.37" d="M87.4951 183.591C88.0476 184.372 129.149 207.629 129.762 207.629C130.074 207.629 130.494 201.881 130.494 201.202C130.494 199.409 94.1491 180.935 93.5126 180.762C92.5757 180.51 86.9426 182.809 87.4951 183.591Z" fill="url(#paint41_linear_6924_92375)"/>
<path style="mix-blend-mode:multiply" opacity="0.37" d="M174.359 184.198C173.806 184.98 131.936 208.156 131.323 208.156C131.166 205.658 131.218 203.151 131.479 200.661C132.813 199.396 167.512 180.899 168.101 180.727C169.014 180.508 174.911 183.417 174.359 184.198Z" fill="url(#paint42_linear_6924_92375)"/>
<g style="mix-blend-mode:multiply" opacity="0.37">
<path d="M97.8482 176.658C95.446 163.357 96.7672 162.518 114.003 156.896C131.239 151.275 160.401 136.79 162.96 143.101C165.518 149.412 164.641 176.152 164.065 177.589C163.488 179.026 133.377 195.603 130.89 195.638C128.404 195.672 98.1244 178.152 97.8482 176.658Z" fill="#ED8A1D"/>
</g>
<g style="mix-blend-mode:soft-light" opacity="0.4">
<path d="M164.774 130.259C164.161 130.121 132.872 112.808 131.143 112.934C129.413 113.061 107.661 122.821 98.7133 130.178C96.3111 132.156 97.1999 161.516 99.3979 160.976C101.596 160.436 103.217 148.583 127.431 141.916C151.273 135.34 161.651 141.031 164.233 142.042C164.966 142.33 166.155 130.535 164.774 130.259Z" fill="#FFDF66"/>
</g>
<g style="mix-blend-mode:multiply" opacity="0.5">
<path d="M93.5117 179.452V128.41L130.89 107.717L168.268 128.41V179.452L165.517 177.934C165.517 177.934 165.686 133.56 164.689 132.169C161.085 127.203 133.46 115.132 128.944 116.477C124.428 117.822 99.7094 127.869 96.9589 132.088C96.034 133.502 96.2622 177.934 96.2622 177.934L93.5117 179.452Z" fill="#DE5634"/>
</g>
<g style="mix-blend-mode:soft-light" opacity="0.4">
<path d="M137.881 135.376C147.19 139.446 161.218 139.515 162.504 138.733C163.789 137.951 164.641 132.238 162.624 131.284C160.606 130.329 144.607 122.167 140.403 123.041C136.2 123.915 136.284 134.663 137.881 135.376Z" fill="#FFDF66"/>
</g>
<path opacity="0.8" d="M85.262 142.18C85.262 142.042 85.6584 125.212 86.4031 124.005C87.1477 122.797 129.907 100.104 131.156 99.7824C132.405 99.4605 148.416 108.312 148.416 108.312L130.892 98.6328L85.25 123.844L85.262 142.18Z" fill="#700000"/>
<path d="M147.227 116.741C147.227 116.741 167.273 127.697 167.513 128.927C167.753 130.157 168.234 163.139 168.234 163.139C168.234 163.139 168.426 129.801 168.234 128.41C168.042 127.019 147.227 116.741 147.227 116.741Z" fill="white"/>
<path d="M93.5103 156.378C93.5103 156.378 92.8377 128.788 93.186 127.891C93.5343 126.994 130.888 107.75 130.888 107.75C130.888 107.75 94.8556 127.5 94.0628 128.753C93.2701 130.006 93.5103 156.378 93.5103 156.378Z" fill="white"/>
<path opacity="0.8" d="M85.2617 184.015L130.903 209.226L176.545 184.015V170.312C176.545 170.312 176.161 182.268 175.236 183.762C174.311 185.257 133.402 208.007 131.324 208.157C129.246 208.306 87.4477 184.567 86.3547 182.969C85.2617 181.371 85.2617 153.355 85.2617 153.355V184.015Z" fill="#700000"/>
<g style="mix-blend-mode:soft-light" opacity="0.4">
<path d="M93.5104 166.392C93.5104 166.392 93.3783 178.164 94.0629 179.141C94.7476 180.118 112.476 189.935 112.476 189.935C112.476 189.935 93.2702 180.428 93.042 179.807C92.8138 179.187 93.5104 166.392 93.5104 166.392Z" fill="#FFDF66"/>
</g>
<g style="mix-blend-mode:soft-light" opacity="0.4">
<path d="M108.946 190.165C107.601 190.165 103.829 191.625 104.646 192.464C105.463 193.303 127.923 206.259 130.493 207.179C131.322 207.478 131.25 202.362 130.121 200.707C129.641 200.006 113.126 190.154 108.946 190.165Z" fill="#FFDF66"/>
</g>
<path d="M149.927 110.888C149.194 111.072 151.656 114.05 152.833 114.337C154.01 114.624 155.608 113.808 155.055 113.256C154.503 112.705 151.068 110.589 149.927 110.888Z" fill="white"/>
<path d="M155.394 113.831C154.277 114.119 156.342 118.821 157.231 119.648C158.12 120.476 165.963 121.948 165.783 120.603C165.603 119.258 156.967 113.429 155.394 113.831Z" fill="white"/>
<g style="mix-blend-mode:multiply" opacity="0.5">
<path d="M151.899 190.314C150.914 194.418 151.07 196.843 151.623 196.866C152.175 196.889 172.126 185.37 172.678 184.887C173.231 184.405 169.471 181.082 167.874 181.312C166.276 181.542 152.308 188.75 151.899 190.314Z" fill="#DE5634"/>
</g>
<g style="mix-blend-mode:multiply" opacity="0.5">
<path d="M95.9384 129.582C95.4579 128.203 93.9806 128.203 93.8364 129.755C93.6923 131.307 93.4761 159.897 94.0647 159.932C94.6532 159.966 95.8903 158.575 95.9384 157.92C95.9864 157.265 96.1666 130.238 95.9384 129.582Z" fill="#DE5634"/>
</g>
<g style="mix-blend-mode:multiply" opacity="0.5">
<path d="M165.841 129.754C165.769 130.306 165.481 157.344 165.841 157.344C166.202 157.344 167.859 156.08 167.859 155.413C167.859 154.746 167.451 129.236 167.271 129.098C167.091 128.961 165.914 129.317 165.841 129.754Z" fill="#DE5634"/>
</g>
<g style="mix-blend-mode:multiply" opacity="0.5">
<path d="M130.89 110.347C130.89 110.876 114.808 119.659 114.435 119.659C114.063 119.659 114.195 117.291 114.711 116.969C115.228 116.647 130.77 107.68 130.89 107.979C130.95 108.767 130.95 109.559 130.89 110.347Z" fill="#DE5634"/>
</g>
<path d="M164.078 181.496C163.057 181.496 159.586 183.393 159.85 184.336C160.114 185.278 162.252 186.301 162.793 185.75C163.333 185.198 164.751 181.519 164.078 181.496Z" fill="#B33114"/>
<path d="M165.397 182.164C165.049 182.475 164.28 183.578 165.013 184.119C165.746 184.659 167.896 183.233 167.583 182.82C167.271 182.406 165.854 181.762 165.397 182.164Z" fill="#B33114"/>
<g style="mix-blend-mode:multiply" opacity="0.5">
<path d="M160.305 183.418C159.452 184.567 162.959 185.257 163.416 184.326C163.872 183.395 164.617 181.429 164.028 181.521C162.676 181.929 161.414 182.572 160.305 183.418Z" fill="#DE5634"/>
</g>
<path d="M159.859 184.06C160.096 184.703 160.564 185.245 161.18 185.589C162.009 186.048 162.706 185.945 162.91 185.589C162.708 185.818 162.43 185.975 162.122 186.034C161.814 186.092 161.495 186.049 161.216 185.91C159.547 185.186 159.859 184.06 159.859 184.06Z" fill="#DAE1EF"/>
<g style="mix-blend-mode:multiply" opacity="0.5">
<path d="M165.794 182.187C165.001 183.014 165.613 184.187 166.058 184.118C166.502 184.049 167.823 183.221 167.583 182.819C167.343 182.416 165.962 182.014 165.794 182.187Z" fill="#DE5634"/>
</g>
<path d="M165.399 182.163C165.399 182.163 164.678 183.117 164.967 183.669C165.255 184.221 165.675 184.221 165.675 184.221C165.675 184.221 164.726 184.75 164.558 184.129C164.258 183.071 165.399 182.163 165.399 182.163Z" fill="#DAE1EF"/>
<path d="M126.195 110.049C123.793 109.429 121.751 110.958 120.67 112.13C119.589 113.303 120.19 113.993 121.547 113.763C122.904 113.533 127.228 110.314 126.195 110.049Z" fill="#B33114"/>
<g style="mix-blend-mode:multiply" opacity="0.5">
<path d="M126.195 110.05C125.419 109.902 124.618 109.922 123.851 110.109C123.084 110.296 122.37 110.645 121.763 111.131C121.102 111.683 122.399 113.281 123.3 112.936C124.201 112.591 126.951 110.303 126.195 110.05Z" fill="#DE5634"/>
</g>
<g style="mix-blend-mode:soft-light" opacity="0.4">
<path d="M121.296 111.521C121.296 111.521 118.509 113.291 118.821 114.119C119.134 114.946 122.425 113.417 122.425 113.417C122.425 113.417 120.707 113.946 120.311 113.222C119.914 112.498 121.296 111.521 121.296 111.521Z" fill="#FFDF66"/>
</g>
<path d="M95.0993 179.807C93.8022 180.117 97.6697 182.658 98.5945 182.796C99.5194 182.934 98.5945 180.692 98.1621 180.301C97.2042 179.882 96.1479 179.712 95.0993 179.807Z" fill="white"/>
<path d="M130.853 182.269L83.746 155.966C82.6389 158.425 81.8834 161.016 81.5 163.668L84.6349 168.634L130.913 194.362L177.119 168.634L179.906 163.668C179.821 161.026 179.252 158.419 178.224 155.966L130.853 182.269Z" fill="url(#paint43_linear_6924_92375)"/>
<path d="M84.5748 168.632L81.5 163.666L130.853 191.337L179.918 163.666L177.131 168.632L130.853 194.36L84.5748 168.632Z" fill="url(#paint44_linear_6924_92375)"/>
<g style="mix-blend-mode:multiply" opacity="0.5">
<path d="M81.5 163.666L84.6349 168.632L85.3315 169.046V170.529C85.3315 170.529 87.9739 171.817 93.1626 174.564C93.3308 174.656 96.4176 177.772 96.4176 177.772C96.4176 177.772 129.76 197.062 130.961 197.062C132.511 197.062 165.589 177.346 165.589 177.346C165.589 177.346 168.171 175.277 168.423 175.128L176.591 171.035V168.977L177.203 168.632L179.99 163.666L130.853 191.337L81.5 163.666Z" fill="#DE5634"/>
</g>
<path style="mix-blend-mode:multiply" opacity="0.69" d="M130.855 182.268V191.35L179.92 163.679C179.791 161.042 179.224 158.442 178.239 155.977L130.855 182.268Z" fill="url(#paint45_linear_6924_92375)"/>
<g style="mix-blend-mode:soft-light" opacity="0.4">
<path d="M86.1737 157.953C85.2729 157.953 86.0056 165.598 88.7441 167.345C93.044 170.139 119.312 184.923 121.03 184.946C122.231 184.946 122.159 178.474 121.798 177.968C121.126 177.014 87.5189 157.953 86.1737 157.953Z" fill="#FFDF66"/>
</g>
<g style="mix-blend-mode:soft-light" opacity="0.4">
<path d="M145.425 174.416C144.861 174.979 144.933 182.107 145.906 181.9C153.824 178.221 161.451 173.994 168.727 169.254C175.705 164.334 176.69 157.862 175.117 158.011C175.08 157.965 146.59 173.255 145.425 174.416Z" fill="#FFDF66"/>
</g>
<path d="M106.855 177.876C106.855 177.876 129.412 190.832 130.877 190.832C132.343 190.832 150.323 180.371 150.323 180.371C150.323 180.371 131.43 191.867 130.913 191.867C130.397 191.867 106.855 177.876 106.855 177.876Z" fill="white"/>
<g style="mix-blend-mode:multiply" opacity="0.5">
<path d="M113.871 108.037C113.699 108.886 113.599 109.747 113.57 110.612C113.678 111.014 116.837 115.52 116.837 115.52V118.555L131.01 131.258L145.027 119.038L145.652 116.061C145.652 116.061 148.786 111.313 148.786 110.669C148.786 110.025 145.892 106.898 145.892 106.898L130.89 98.6328L113.871 108.037Z" fill="#DE5634"/>
</g>
<path d="M147.526 109.555L147.454 109.452L131.179 88.069L131.095 88L131.011 88.115L114.748 109.452L114.676 109.555L114.748 109.647L131.011 131.03V131.259L131.095 131.145L131.191 131.259V131.03L147.454 109.647L147.526 109.555Z" fill="url(#paint46_linear_6924_92375)"/>
<g style="mix-blend-mode:multiply" opacity="0.5">
<path d="M118.074 109.556L131.094 92.4268L144.126 109.556L131.094 126.673L118.074 109.556Z" fill="#DE5634"/>
</g>
<path d="M118.758 109.556L131.093 93.3232L143.44 109.556L131.093 125.776L118.758 109.556Z" fill="url(#paint47_linear_6924_92375)"/>
<g style="mix-blend-mode:soft-light" opacity="0.4">
<path d="M130.902 89.1496C129.437 90.4486 115.552 108.486 115.865 108.98C116.177 109.475 121.57 109.486 131.983 109.371C142.397 109.256 146.697 109.268 146.793 108.98C146.889 108.693 131.167 88.8622 130.902 89.1496Z" fill="#FFDF66"/>
</g>
<path style="mix-blend-mode:multiply" opacity="0.37" d="M115.385 109.613C115.192 110.383 130.374 130.191 131.335 129.881C132.296 129.57 147.274 110.073 146.265 109.556C145.256 109.038 115.565 108.889 115.385 109.613Z" fill="url(#paint48_linear_6924_92375)"/>
<g style="mix-blend-mode:multiply" opacity="0.5">
<path d="M130.988 160.575L113.632 169.3L116.947 150.803L102.906 137.709L122.316 135.008L130.988 118.178L139.672 135.008L159.069 137.709L145.029 150.803L148.344 169.3L130.988 160.575Z" fill="#DE5634"/>
</g>
<path d="M157.037 138.341L147.681 137.042L145.122 136.674L139.045 135.835L130.985 120.224L122.938 135.835L104.934 138.341L117.965 150.493L114.891 167.656L130.985 159.551L147.092 167.656L144.017 150.493L157.037 138.341Z" fill="url(#paint49_linear_6924_92375)"/>
<path style="mix-blend-mode:multiply" opacity="0.37" d="M104.852 138.341L131.372 144.974L117.871 150.492L104.852 138.341Z" fill="url(#paint50_linear_6924_92375)"/>
<path style="mix-blend-mode:multiply" opacity="0.37" d="M156.954 138.341L131.371 144.974L143.923 150.492L156.954 138.341Z" fill="url(#paint51_linear_6924_92375)"/>
<path style="mix-blend-mode:multiply" opacity="0.37" d="M130.904 159.552L131.372 144.975L114.797 167.656L130.904 159.552Z" fill="url(#paint52_linear_6924_92375)"/>
<path style="mix-blend-mode:multiply" opacity="0.37" d="M146.997 167.656L131.371 144.975L130.902 159.552L146.997 167.656Z" fill="url(#paint53_linear_6924_92375)"/>
<path style="mix-blend-mode:color-dodge" opacity="0.5" d="M130.902 120.224L131.371 144.975L138.95 135.835L130.902 120.224Z" fill="url(#paint54_linear_6924_92375)"/>
<path style="mix-blend-mode:color-dodge" opacity="0.5" d="M156.954 138.34L131.371 144.973L138.95 135.834L156.954 138.34Z" fill="url(#paint55_linear_6924_92375)"/>
<path style="mix-blend-mode:color-dodge" opacity="0.5" d="M156.954 138.34L131.371 144.973L138.95 135.834L156.954 138.34Z" fill="url(#paint56_linear_6924_92375)"/>
<path style="mix-blend-mode:color-dodge" opacity="0.5" d="M122.844 135.834L131.372 144.973L104.852 138.34L122.844 135.834Z" fill="url(#paint57_linear_6924_92375)"/>
<path d="M138.952 141.261C137.618 142.411 138.759 143.054 138.759 143.054L145.654 141.273C145.654 141.273 142.038 138.766 138.952 141.261Z" fill="white"/>
<g style="mix-blend-mode:multiply" opacity="0.5">
<path d="M114.891 167.656C114.891 167.656 127.106 162.15 130.985 160.609L147.092 167.656L130.985 159.552L114.891 167.656Z" fill="#DE5634"/>
</g>
<g style="mix-blend-mode:multiply" opacity="0.5">
<path d="M104.852 138.341L131.372 144.974L116.802 156.964L104.852 138.341Z" fill="#DE5634"/>
</g>
<g style="mix-blend-mode:multiply" opacity="0.5">
<path d="M156.954 138.341L131.371 144.974L145.46 158.562L156.954 138.341Z" fill="#DE5634"/>
</g>
<g style="mix-blend-mode:multiply" opacity="0.5">
<path d="M114.891 167.656L131.37 144.975L147.092 167.656L130.985 165.219L114.891 167.656Z" fill="#DE5634"/>
</g>
<g style="mix-blend-mode:soft-light" opacity="0.4">
<path d="M124.994 133.133C123.289 137.731 129.799 140.858 130.688 139.456C131.576 138.053 131.012 130.259 129.907 129.201C128.802 128.144 125.703 131.271 124.994 133.133Z" fill="#F7FFFF"/>
</g>
<g style="mix-blend-mode:soft-light" opacity="0.4">
<path d="M119.659 156.424C123.13 156.873 125.064 153.09 125.796 150.492C126.973 146.308 113.353 155.608 119.659 156.424Z" fill="#F7FFFF"/>
</g>
<g style="mix-blend-mode:multiply" opacity="0.5">
<path d="M130.892 114.119L126.184 116.487L127.085 111.463L123.277 107.911L128.538 107.187L130.892 102.611L133.246 107.187L138.507 107.911L134.7 111.463L135.601 116.487L130.892 114.119Z" fill="#DE5634"/>
</g>
<path d="M137.916 108.094L135.394 107.749L134.697 107.645L133.064 107.416L130.89 103.208L128.716 107.416L123.863 108.094L127.37 111.37L126.542 116.003L130.89 113.819L135.238 116.003L134.397 111.37L137.916 108.094Z" fill="url(#paint58_linear_6924_92375)"/>
<path style="mix-blend-mode:multiply" opacity="0.37" d="M123.84 108.096L130.986 109.889L127.347 111.372L123.84 108.096Z" fill="url(#paint59_linear_6924_92375)"/>
<path style="mix-blend-mode:multiply" opacity="0.37" d="M137.895 108.096L130.988 109.889L134.375 111.372L137.895 108.096Z" fill="url(#paint60_linear_6924_92375)"/>
<path style="mix-blend-mode:multiply" opacity="0.37" d="M130.867 113.819L130.988 109.888L126.52 116.004L130.867 113.819Z" fill="url(#paint61_linear_6924_92375)"/>
<path style="mix-blend-mode:multiply" opacity="0.37" d="M135.203 116.004L130.987 109.888L130.867 113.819L135.203 116.004Z" fill="url(#paint62_linear_6924_92375)"/>
<path style="mix-blend-mode:color-dodge" opacity="0.5" d="M130.867 103.208L130.987 109.887L133.041 107.416L130.867 103.208Z" fill="url(#paint63_linear_6924_92375)"/>
<path style="mix-blend-mode:color-dodge" opacity="0.5" d="M137.895 108.095L130.988 109.889L133.042 107.417L137.895 108.095Z" fill="url(#paint64_linear_6924_92375)"/>
<path style="mix-blend-mode:color-dodge" opacity="0.5" d="M137.895 108.095L130.988 109.889L133.042 107.417L137.895 108.095Z" fill="url(#paint65_linear_6924_92375)"/>
<path style="mix-blend-mode:color-dodge" opacity="0.5" d="M128.692 107.417L130.986 109.889L123.84 108.095L128.692 107.417Z" fill="url(#paint66_linear_6924_92375)"/>
<path d="M133.039 108.888C132.679 109.176 133.039 109.371 133.039 109.371L134.901 108.888C134.635 108.69 134.307 108.582 133.97 108.582C133.633 108.582 133.305 108.69 133.039 108.888Z" fill="white"/>
<g style="mix-blend-mode:multiply" opacity="0.5">
<path d="M126.543 116.005C126.543 116.005 129.846 114.522 130.891 114.108L135.227 116.005L130.891 113.82L126.543 116.005Z" fill="#DE5634"/>
</g>
<g style="mix-blend-mode:multiply" opacity="0.5">
<path d="M123.84 108.096L130.986 109.889L127.071 113.119L123.84 108.096Z" fill="#DE5634"/>
</g>
<g style="mix-blend-mode:multiply" opacity="0.5">
<path d="M137.895 108.096L130.988 109.889L134.796 113.556L137.895 108.096Z" fill="#DE5634"/>
</g>
<g style="mix-blend-mode:multiply" opacity="0.5">
<path d="M126.543 116.004L130.987 109.888L135.239 116.004L130.891 115.348L126.543 116.004Z" fill="#DE5634"/>
</g>
<g style="mix-blend-mode:soft-light" opacity="0.4">
<path d="M129.271 106.694C128.814 107.924 130.568 108.774 130.808 108.395C131.007 107.475 130.937 106.52 130.604 105.636C130.28 105.349 129.463 106.199 129.271 106.694Z" fill="#F7FFFF"/>
</g>
<g style="mix-blend-mode:soft-light" opacity="0.4">
<path d="M127.877 112.969C128.802 113.095 129.33 112.072 129.522 111.371C129.811 110.244 126.135 112.75 127.877 112.969Z" fill="#F7FFFF"/>
</g>
<path d="M102 2L112.087 17.7023C113.006 19.1343 114.591 20 116.293 20H145.707C147.409 20 148.994 19.1343 149.913 17.7023L160 2H102Z" fill="url(#paint67_linear_6924_92375)"/>
<path d="M122.558 16L118.33 6.2H120.78L124.476 14.88H123.034L126.786 6.2H129.04L124.798 16H122.558ZM129.858 16V6.2H132.126V16H129.858ZM134.452 16V6.2H138.694C139.571 6.2 140.327 6.34467 140.962 6.634C141.597 6.914 142.087 7.32 142.432 7.852C142.777 8.384 142.95 9.01867 142.95 9.756C142.95 10.484 142.777 11.114 142.432 11.646C142.087 12.178 141.597 12.5887 140.962 12.878C140.327 13.158 139.571 13.298 138.694 13.298H135.712L136.72 12.276V16H134.452ZM136.72 12.528L135.712 11.45H138.568C139.268 11.45 139.791 11.3007 140.136 11.002C140.481 10.7033 140.654 10.288 140.654 9.756C140.654 9.21467 140.481 8.79467 140.136 8.496C139.791 8.19733 139.268 8.048 138.568 8.048H135.712L136.72 6.97V12.528Z" fill="white"/>
<path d="M33.7498 20.544H35.7658L38.3038 31.128L40.8058 20.544H42.8218L39.5818 33H37.0258L33.7498 20.544ZM44.2269 33V20.544H46.1709V33H44.2269ZM48.3753 33V20.544H50.3193V33H48.3753ZM52.5238 33V20.544H54.4678V33H52.5238Z" fill="white"/>
<g style="mix-blend-mode:overlay">
<g style="mix-blend-mode:color-dodge">
<path fill-rule="evenodd" clip-rule="evenodd" d="M19 12C19 6.47715 23.4771 2 29 2H231C236.523 2 241 6.47715 241 12V120.562C241 123.615 239.506 126.474 237 128.217C234.494 129.961 233 132.82 233 135.873V159V162V185.127C233 188.18 234.494 191.039 237 192.783C239.506 194.526 241 197.385 241 200.438V304C241 309.523 236.523 314 231 314H29C23.4772 314 19 309.523 19 304V202.182C19 198.908 20.6021 195.842 23.2894 193.973L24.7106 192.984C27.3979 191.115 29 188.048 29 184.775L29 162V159L29 136.225C29 132.952 27.3979 129.885 24.7107 128.016L23.2894 127.027C20.6021 125.158 19 122.092 19 118.818V12Z" fill="url(#paint68_linear_6924_92375)"/>
</g>
</g>
<defs>
<filter id="filter0_b_6924_92375" x="-6" y="-19" width="89" height="354.983" filterUnits="userSpaceOnUse" colorInterpolationFilters="sRGB">
<feFlood floodOpacity="0" result="BackgroundImageFix"/>
<feGaussianBlur in="BackgroundImageFix" stdDeviation="13"/>
<feComposite in2="SourceAlpha" operator="in" result="effect1_backgroundBlur_6924_92375"/>
<feBlend mode="normal" in="SourceGraphic" in2="effect1_backgroundBlur_6924_92375" result="shape"/>
</filter>
<filter id="filter1_b_6924_92375" x="177" y="-19" width="89" height="354.983" filterUnits="userSpaceOnUse" colorInterpolationFilters="sRGB">
<feFlood floodOpacity="0" result="BackgroundImageFix"/>
<feGaussianBlur in="BackgroundImageFix" stdDeviation="13"/>
<feComposite in2="SourceAlpha" operator="in" result="effect1_backgroundBlur_6924_92375"/>
<feBlend mode="normal" in="SourceGraphic" in2="effect1_backgroundBlur_6924_92375" result="shape"/>
</filter>
<filter id="filter2_i_6924_92375" x="17" y="0" width="226" height="320" filterUnits="userSpaceOnUse" colorInterpolationFilters="sRGB">
<feFlood floodOpacity="0" result="BackgroundImageFix"/>
<feBlend mode="normal" in="SourceGraphic" in2="BackgroundImageFix" result="shape"/>
<feColorMatrix in="SourceAlpha" type="matrix" values="0 0 0 0 0 0 0 0 0 0 0 0 0 0 0 0 0 0 127 0" result="hardAlpha"/>
<feOffset dy="5"/>
<feGaussianBlur stdDeviation="2"/>
<feComposite in2="hardAlpha" operator="arithmetic" k2="-1" k3="1"/>
<feColorMatrix type="matrix" values="0 0 0 0 0 0 0 0 0 0 0 0 0 0 0 0 0 0 0.25 0"/>
<feBlend mode="normal" in2="shape" result="effect1_innerShadow_6924_92375"/>
</filter>
<filter id="filter3_f_6924_92375" x="0" y="31" width="261" height="254" filterUnits="userSpaceOnUse" colorInterpolationFilters="sRGB">
<feFlood floodOpacity="0" result="BackgroundImageFix"/>
<feBlend mode="normal" in="SourceGraphic" in2="BackgroundImageFix" result="shape"/>
<feGaussianBlur stdDeviation="37.5" result="effect1_foregroundBlur_6924_92375"/>
</filter>
<linearGradient id="paint0_linear_6924_92375" x1="13" y1="296.56" x2="134.492" y2="0.901086" gradientUnits="userSpaceOnUse">
<stop stop-color="#060913"/>
<stop offset="0.136764" stop-color="#070A16"/>
<stop offset="0.197268" stop-color="#0D142E"/>
<stop offset="0.309253" stop-color="#070B17"/>
<stop offset="0.490764" stop-color="#080C1A"/>
<stop offset="0.661458" stop-color="#0B1125"/>
<stop offset="1" stop-color="#101010"/>
</linearGradient>
<linearGradient id="paint1_linear_6924_92375" x1="43.5" y1="323.39" x2="109.599" y2="304.922" gradientUnits="userSpaceOnUse">
<stop stop-color="#EECCA2"/>
<stop offset="0.260417" stop-color="#624A2C"/>
<stop offset="0.6875" stop-color="#FFDAAB"/>
<stop offset="1" stop-color="#C68C43"/>
</linearGradient>
<linearGradient id="paint2_linear_6924_92375" x1="247" y1="20.4233" x2="125.508" y2="316.082" gradientUnits="userSpaceOnUse">
<stop stop-color="#060913"/>
<stop offset="0.136764" stop-color="#070A16"/>
<stop offset="0.197268" stop-color="#0D142E"/>
<stop offset="0.309253" stop-color="#070B17"/>
<stop offset="0.490764" stop-color="#080C1A"/>
<stop offset="0.661458" stop-color="#0B1125"/>
<stop offset="1" stop-color="#101010"/>
</linearGradient>
<linearGradient id="paint3_linear_6924_92375" x1="216.5" y1="-6.40634" x2="150.401" y2="12.0615" gradientUnits="userSpaceOnUse">
<stop stop-color="#EECCA2"/>
<stop offset="0.260417" stop-color="#624A2C"/>
<stop offset="0.6875" stop-color="#FFDAAB"/>
<stop offset="1" stop-color="#C68C43"/>
</linearGradient>
<linearGradient id="paint4_linear_6924_92375" x1="184.5" y1="-25.5" x2="1.5" y2="349.5" gradientUnits="userSpaceOnUse">
<stop stop-color="#C68C43"/>
<stop offset="0.119792" stop-color="#F5BA6E"/>
<stop offset="0.286458" stop-color="#C68C43"/>
<stop offset="0.5625" stop-color="#C68C43"/>
<stop offset="0.770833" stop-color="#EEB873"/>
<stop offset="1" stop-color="#C68C43"/>
</linearGradient>
<linearGradient id="paint5_linear_6924_92375" x1="131.064" y1="154.818" x2="131.064" y2="-46.36" gradientUnits="userSpaceOnUse">
<stop stop-color="#CA6B34"/>
<stop offset="0.67" stop-color="#FFA933"/>
<stop offset="1" stop-color="#FFBD2B"/>
</linearGradient>
<linearGradient id="paint6_linear_6924_92375" x1="80.9314" y1="47.9531" x2="80.9314" y2="91.3368" gradientUnits="userSpaceOnUse">
<stop stop-color="#C10065"/>
<stop offset="1" stop-color="white"/>
</linearGradient>
<linearGradient id="paint7_linear_6924_92375" x1="181.924" y1="47.9531" x2="181.924" y2="91.3368" gradientUnits="userSpaceOnUse">
<stop stop-color="#C10065"/>
<stop offset="1" stop-color="white"/>
</linearGradient>
<linearGradient id="paint8_linear_6924_92375" x1="100.251" y1="71.2334" x2="100.251" y2="151.652" gradientUnits="userSpaceOnUse">
<stop stop-color="#C10065"/>
<stop offset="1" stop-color="white"/>
</linearGradient>
<linearGradient id="paint9_linear_6924_92375" x1="161.393" y1="71.2334" x2="161.393" y2="151.652" gradientUnits="userSpaceOnUse">
<stop stop-color="#C10065"/>
<stop offset="1" stop-color="white"/>
</linearGradient>
<linearGradient id="paint10_linear_6924_92375" x1="139.171" y1="-4.27537" x2="150.065" y2="109.544" gradientUnits="userSpaceOnUse">
<stop stop-color="#BFD7FF"/>
<stop offset="1"/>
</linearGradient>
<linearGradient id="paint11_linear_6924_92375" x1="132.316" y1="54.8309" x2="231.532" y2="54.8309" gradientUnits="userSpaceOnUse">
<stop stop-color="#BFD7FF"/>
<stop offset="1"/>
</linearGradient>
<linearGradient id="paint12_linear_6924_92375" x1="173.696" y1="-7.45115" x2="184.673" y2="106.233" gradientUnits="userSpaceOnUse">
<stop stop-color="#BFD7FF"/>
<stop offset="1"/>
</linearGradient>
<linearGradient id="paint13_linear_6924_92375" x1="73.8992" y1="2.16332" x2="84.872" y2="115.848" gradientUnits="userSpaceOnUse">
<stop stop-color="#BFD7FF"/>
<stop offset="1"/>
</linearGradient>
<linearGradient id="paint14_linear_6924_92375" x1="79.0859" y1="188.29" x2="98.7839" y2="188.29" gradientUnits="userSpaceOnUse">
<stop stop-color="#DE3C14"/>
<stop offset="0.07" stop-color="#C72E10"/>
<stop offset="0.19" stop-color="#AB1C0C"/>
<stop offset="0.3" stop-color="#971009"/>
<stop offset="0.41" stop-color="#8B0807"/>
<stop offset="0.52" stop-color="#870606"/>
<stop offset="0.62" stop-color="#8C0707"/>
<stop offset="0.73" stop-color="#9A0808"/>
<stop offset="0.85" stop-color="#B20B0B"/>
<stop offset="0.97" stop-color="#D30E0E"/>
<stop offset="1" stop-color="#DB0F0F"/>
</linearGradient>
<linearGradient id="paint15_linear_6924_92375" x1="79.0859" y1="187.43" x2="98.7839" y2="187.43" gradientUnits="userSpaceOnUse">
<stop stop-color="#B41E2D"/>
<stop offset="1" stop-color="#E54136"/>
</linearGradient>
<linearGradient id="paint16_linear_6924_92375" x1="162.215" y1="188.29" x2="181.913" y2="188.29" gradientUnits="userSpaceOnUse">
<stop stop-color="#DE3C14"/>
<stop offset="0.07" stop-color="#C72E10"/>
<stop offset="0.19" stop-color="#AB1C0C"/>
<stop offset="0.3" stop-color="#971009"/>
<stop offset="0.41" stop-color="#8B0807"/>
<stop offset="0.52" stop-color="#870606"/>
<stop offset="0.62" stop-color="#8C0707"/>
<stop offset="0.73" stop-color="#9A0808"/>
<stop offset="0.85" stop-color="#B20B0B"/>
<stop offset="0.97" stop-color="#D30E0E"/>
<stop offset="1" stop-color="#DB0F0F"/>
</linearGradient>
<linearGradient id="paint17_linear_6924_92375" x1="162.216" y1="187.428" x2="181.914" y2="187.428" gradientUnits="userSpaceOnUse">
<stop stop-color="#B41E2D"/>
<stop offset="1" stop-color="#E54136"/>
</linearGradient>
<linearGradient id="paint18_linear_6924_92375" x1="95.6021" y1="210.02" x2="125.606" y2="210.02" gradientUnits="userSpaceOnUse">
<stop stop-color="#DE3C14"/>
<stop offset="0.07" stop-color="#C72E10"/>
<stop offset="0.19" stop-color="#AB1C0C"/>
<stop offset="0.3" stop-color="#971009"/>
<stop offset="0.41" stop-color="#8B0807"/>
<stop offset="0.52" stop-color="#870606"/>
<stop offset="0.62" stop-color="#8C0707"/>
<stop offset="0.73" stop-color="#9A0808"/>
<stop offset="0.85" stop-color="#B20B0B"/>
<stop offset="0.97" stop-color="#D30E0E"/>
<stop offset="1" stop-color="#DB0F0F"/>
</linearGradient>
<linearGradient id="paint19_linear_6924_92375" x1="135.816" y1="210.02" x2="165.82" y2="210.02" gradientUnits="userSpaceOnUse">
<stop stop-color="#DE3C14"/>
<stop offset="0.07" stop-color="#C72E10"/>
<stop offset="0.19" stop-color="#AB1C0C"/>
<stop offset="0.3" stop-color="#971009"/>
<stop offset="0.41" stop-color="#8B0807"/>
<stop offset="0.52" stop-color="#870606"/>
<stop offset="0.62" stop-color="#8C0707"/>
<stop offset="0.73" stop-color="#9A0808"/>
<stop offset="0.85" stop-color="#B20B0B"/>
<stop offset="0.97" stop-color="#D30E0E"/>
<stop offset="1" stop-color="#DB0F0F"/>
</linearGradient>
<linearGradient id="paint20_linear_6924_92375" x1="95.6021" y1="210.018" x2="125.606" y2="210.018" gradientUnits="userSpaceOnUse">
<stop stop-color="#B41E2D"/>
<stop offset="1" stop-color="#E54136"/>
</linearGradient>
<linearGradient id="paint21_linear_6924_92375" x1="135.816" y1="210.019" x2="165.82" y2="210.019" gradientUnits="userSpaceOnUse">
<stop stop-color="#B41E2D"/>
<stop offset="1" stop-color="#E54136"/>
</linearGradient>
<linearGradient id="paint22_linear_6924_92375" x1="175.879" y1="160.575" x2="175.871" y2="138.972" gradientUnits="userSpaceOnUse">
<stop stop-color="#CA6B34"/>
<stop offset="0.67" stop-color="#FFA933"/>
<stop offset="1" stop-color="#FFBD2B"/>
</linearGradient>
<linearGradient id="paint23_linear_6924_92375" x1="188.652" y1="144.364" x2="202.813" y2="144.364" gradientUnits="userSpaceOnUse">
<stop stop-color="#DE3C14"/>
<stop offset="0.07" stop-color="#C72E10"/>
<stop offset="0.19" stop-color="#AB1C0C"/>
<stop offset="0.3" stop-color="#971009"/>
<stop offset="0.41" stop-color="#8B0807"/>
<stop offset="0.52" stop-color="#870606"/>
<stop offset="0.62" stop-color="#8C0707"/>
<stop offset="0.73" stop-color="#9A0808"/>
<stop offset="0.85" stop-color="#B20B0B"/>
<stop offset="0.97" stop-color="#D30E0E"/>
<stop offset="1" stop-color="#DB0F0F"/>
</linearGradient>
<linearGradient id="paint24_linear_6924_92375" x1="101.539" y1="185.718" x2="101.435" y2="164.147" gradientUnits="userSpaceOnUse">
<stop stop-color="#CA6B34"/>
<stop offset="0.67" stop-color="#FFA933"/>
<stop offset="1" stop-color="#FFBD2B"/>
</linearGradient>
<linearGradient id="paint25_linear_6924_92375" x1="58.4648" y1="144.41" x2="72.6258" y2="144.41" gradientUnits="userSpaceOnUse">
<stop stop-color="#DE3C14"/>
<stop offset="0.07" stop-color="#C72E10"/>
<stop offset="0.19" stop-color="#AB1C0C"/>
<stop offset="0.3" stop-color="#971009"/>
<stop offset="0.41" stop-color="#8B0807"/>
<stop offset="0.52" stop-color="#870606"/>
<stop offset="0.62" stop-color="#8C0707"/>
<stop offset="0.73" stop-color="#9A0808"/>
<stop offset="0.85" stop-color="#B20B0B"/>
<stop offset="0.97" stop-color="#D30E0E"/>
<stop offset="1" stop-color="#DB0F0F"/>
</linearGradient>
<linearGradient id="paint26_linear_6924_92375" x1="183.184" y1="146.942" x2="183.186" y2="125.344" gradientUnits="userSpaceOnUse">
<stop stop-color="#CA6B34"/>
<stop offset="0.67" stop-color="#FFA933"/>
<stop offset="1" stop-color="#FFBD2B"/>
</linearGradient>
<linearGradient id="paint27_linear_6924_92375" x1="196.352" y1="130.753" x2="210.524" y2="130.753" gradientUnits="userSpaceOnUse">
<stop stop-color="#DE3C14"/>
<stop offset="0.07" stop-color="#C72E10"/>
<stop offset="0.19" stop-color="#AB1C0C"/>
<stop offset="0.3" stop-color="#971009"/>
<stop offset="0.41" stop-color="#8B0807"/>
<stop offset="0.52" stop-color="#870606"/>
<stop offset="0.62" stop-color="#8C0707"/>
<stop offset="0.73" stop-color="#9A0808"/>
<stop offset="0.85" stop-color="#B20B0B"/>
<stop offset="0.97" stop-color="#D30E0E"/>
<stop offset="1" stop-color="#DB0F0F"/>
</linearGradient>
<linearGradient id="paint28_linear_6924_92375" x1="93.7563" y1="172.142" x2="93.6433" y2="150.577" gradientUnits="userSpaceOnUse">
<stop stop-color="#CA6B34"/>
<stop offset="0.67" stop-color="#FFA933"/>
<stop offset="1" stop-color="#FFBD2B"/>
</linearGradient>
<linearGradient id="paint29_linear_6924_92375" x1="50.668" y1="130.8" x2="64.8409" y2="130.8" gradientUnits="userSpaceOnUse">
<stop stop-color="#DE3C14"/>
<stop offset="0.07" stop-color="#C72E10"/>
<stop offset="0.19" stop-color="#AB1C0C"/>
<stop offset="0.3" stop-color="#971009"/>
<stop offset="0.41" stop-color="#8B0807"/>
<stop offset="0.52" stop-color="#870606"/>
<stop offset="0.62" stop-color="#8C0707"/>
<stop offset="0.73" stop-color="#9A0808"/>
<stop offset="0.85" stop-color="#B20B0B"/>
<stop offset="0.97" stop-color="#D30E0E"/>
<stop offset="1" stop-color="#DB0F0F"/>
</linearGradient>
<linearGradient id="paint30_linear_6924_92375" x1="104.575" y1="111.704" x2="104.575" y2="134.075" gradientUnits="userSpaceOnUse">
<stop stop-color="#C10065"/>
<stop offset="1" stop-color="white"/>
</linearGradient>
<linearGradient id="paint31_linear_6924_92375" x1="156.845" y1="111.704" x2="156.845" y2="134.075" gradientUnits="userSpaceOnUse">
<stop stop-color="#C10065"/>
<stop offset="1" stop-color="white"/>
</linearGradient>
<linearGradient id="paint32_linear_6924_92375" x1="74.7143" y1="178.369" x2="74.7143" y2="154.515" gradientUnits="userSpaceOnUse">
<stop stop-color="#CA6B34"/>
<stop offset="0.67" stop-color="#FFA933"/>
<stop offset="1" stop-color="#FFBD2B"/>
</linearGradient>
<linearGradient id="paint33_linear_6924_92375" x1="77.6099" y1="165.529" x2="77.6099" y2="176.669" gradientUnits="userSpaceOnUse">
<stop stop-color="#C10065"/>
<stop offset="1" stop-color="white"/>
</linearGradient>
<linearGradient id="paint34_linear_6924_92375" x1="186.718" y1="178.369" x2="186.718" y2="154.515" gradientUnits="userSpaceOnUse">
<stop stop-color="#CA6B34"/>
<stop offset="0.67" stop-color="#FFA933"/>
<stop offset="1" stop-color="#FFBD2B"/>
</linearGradient>
<linearGradient id="paint35_linear_6924_92375" x1="183.811" y1="165.529" x2="183.811" y2="176.669" gradientUnits="userSpaceOnUse">
<stop stop-color="#C10065"/>
<stop offset="1" stop-color="white"/>
</linearGradient>
<linearGradient id="paint36_linear_6924_92375" x1="130.891" y1="211.121" x2="130.891" y2="116.291" gradientUnits="userSpaceOnUse">
<stop stop-color="#CA6B34"/>
<stop offset="0.67" stop-color="#FFA933"/>
<stop offset="1" stop-color="#FFBD2B"/>
</linearGradient>
<linearGradient id="paint37_linear_6924_92375" x1="130.89" y1="99.6108" x2="130.89" y2="194.936" gradientUnits="userSpaceOnUse">
<stop stop-color="#CA6B34"/>
<stop offset="0.17" stop-color="#CC6E34"/>
<stop offset="0.29" stop-color="#D27733"/>
<stop offset="0.39" stop-color="#DB8631"/>
<stop offset="0.48" stop-color="#E99B2F"/>
<stop offset="0.57" stop-color="#FBB72C"/>
<stop offset="0.59" stop-color="#FFBD2B"/>
<stop offset="1" stop-color="#FFA933"/>
</linearGradient>
<linearGradient id="paint38_linear_6924_92375" x1="130.889" y1="197.063" x2="130.889" y2="110.797" gradientUnits="userSpaceOnUse">
<stop stop-color="#B75014"/>
<stop offset="0.38" stop-color="#E8692A"/>
<stop offset="1" stop-color="#F58E2F"/>
</linearGradient>
<linearGradient id="paint39_linear_6924_92375" x1="89.3426" y1="156.966" x2="89.3426" y2="182.981" gradientUnits="userSpaceOnUse">
<stop stop-color="#C10065"/>
<stop offset="1" stop-color="white"/>
</linearGradient>
<linearGradient id="paint40_linear_6924_92375" x1="172.257" y1="156.966" x2="172.257" y2="182.981" gradientUnits="userSpaceOnUse">
<stop stop-color="#C10065"/>
<stop offset="1" stop-color="white"/>
</linearGradient>
<linearGradient id="paint41_linear_6924_92375" x1="108.971" y1="180.739" x2="108.971" y2="207.629" gradientUnits="userSpaceOnUse">
<stop stop-color="#C10065"/>
<stop offset="1" stop-color="white"/>
</linearGradient>
<linearGradient id="paint42_linear_6924_92375" x1="152.811" y1="180.75" x2="152.811" y2="208.156" gradientUnits="userSpaceOnUse">
<stop stop-color="#C10065"/>
<stop offset="1" stop-color="white"/>
</linearGradient>
<linearGradient id="paint43_linear_6924_92375" x1="130.709" y1="117.201" x2="130.709" y2="185.936" gradientUnits="userSpaceOnUse">
<stop stop-color="#CA6B34"/>
<stop offset="0.67" stop-color="#FFA933"/>
<stop offset="1" stop-color="#FFBD2B"/>
</linearGradient>
<linearGradient id="paint44_linear_6924_92375" x1="130.709" y1="194.36" x2="130.709" y2="163.666" gradientUnits="userSpaceOnUse">
<stop stop-color="#F1CB3C"/>
<stop offset="1" stop-color="#FFC14F"/>
</linearGradient>
<linearGradient id="paint45_linear_6924_92375" x1="155.394" y1="155.965" x2="155.394" y2="191.338" gradientUnits="userSpaceOnUse">
<stop stop-color="#C10065"/>
<stop offset="1" stop-color="white"/>
</linearGradient>
<linearGradient id="paint46_linear_6924_92375" x1="131.095" y1="130.317" x2="131.095" y2="92.334" gradientUnits="userSpaceOnUse">
<stop stop-color="#CA6B34"/>
<stop offset="0.67" stop-color="#FFA933"/>
<stop offset="1" stop-color="#FFBD2B"/>
</linearGradient>
<linearGradient id="paint47_linear_6924_92375" x1="118.758" y1="109.556" x2="143.44" y2="109.556" gradientUnits="userSpaceOnUse">
<stop stop-color="#DE3C14"/>
<stop offset="0.07" stop-color="#C72E10"/>
<stop offset="0.19" stop-color="#AB1C0C"/>
<stop offset="0.3" stop-color="#971009"/>
<stop offset="0.41" stop-color="#8B0807"/>
<stop offset="0.52" stop-color="#870606"/>
<stop offset="0.62" stop-color="#8C0707"/>
<stop offset="0.73" stop-color="#9A0808"/>
<stop offset="0.85" stop-color="#B20B0B"/>
<stop offset="0.97" stop-color="#D30E0E"/>
<stop offset="1" stop-color="#DB0F0F"/>
</linearGradient>
<linearGradient id="paint48_linear_6924_92375" x1="130.855" y1="109.119" x2="130.855" y2="129.881" gradientUnits="userSpaceOnUse">
<stop stop-color="#C10065"/>
<stop offset="1" stop-color="white"/>
</linearGradient>
<linearGradient id="paint49_linear_6924_92375" x1="130.985" y1="168.541" x2="130.985" y2="112.176" gradientUnits="userSpaceOnUse">
<stop stop-color="#CA6B34"/>
<stop offset="0.67" stop-color="#FFA933"/>
<stop offset="1" stop-color="#FFBD2B"/>
</linearGradient>
<linearGradient id="paint50_linear_6924_92375" x1="118.112" y1="138.341" x2="118.112" y2="150.492" gradientUnits="userSpaceOnUse">
<stop stop-color="#C10065"/>
<stop offset="1" stop-color="white"/>
</linearGradient>
<linearGradient id="paint51_linear_6924_92375" x1="144.163" y1="138.341" x2="144.163" y2="150.492" gradientUnits="userSpaceOnUse">
<stop stop-color="#C10065"/>
<stop offset="1" stop-color="white"/>
</linearGradient>
<linearGradient id="paint52_linear_6924_92375" x1="123.084" y1="144.975" x2="123.084" y2="167.656" gradientUnits="userSpaceOnUse">
<stop stop-color="#C10065"/>
<stop offset="1" stop-color="white"/>
</linearGradient>
<linearGradient id="paint53_linear_6924_92375" x1="138.95" y1="144.975" x2="138.95" y2="167.656" gradientUnits="userSpaceOnUse">
<stop stop-color="#C10065"/>
<stop offset="1" stop-color="white"/>
</linearGradient>
<linearGradient id="paint54_linear_6924_92375" x1="133.281" y1="123.948" x2="136.585" y2="155.605" gradientUnits="userSpaceOnUse">
<stop stop-color="#BFD7FF"/>
<stop offset="1"/>
</linearGradient>
<linearGradient id="paint55_linear_6924_92375" x1="131.371" y1="140.409" x2="156.954" y2="140.409" gradientUnits="userSpaceOnUse">
<stop stop-color="#BFD7FF"/>
<stop offset="1"/>
</linearGradient>
<linearGradient id="paint56_linear_6924_92375" x1="142.037" y1="123.027" x2="145.341" y2="154.684" gradientUnits="userSpaceOnUse">
<stop stop-color="#BFD7FF"/>
<stop offset="1"/>
</linearGradient>
<linearGradient id="paint57_linear_6924_92375" x1="116.286" y1="125.717" x2="119.59" y2="157.374" gradientUnits="userSpaceOnUse">
<stop stop-color="#BFD7FF"/>
<stop offset="1"/>
</linearGradient>
<linearGradient id="paint58_linear_6924_92375" x1="130.89" y1="116.244" x2="130.89" y2="101.047" gradientUnits="userSpaceOnUse">
<stop stop-color="#CA6B34"/>
<stop offset="0.67" stop-color="#FFA933"/>
<stop offset="1" stop-color="#FFBD2B"/>
</linearGradient>
<linearGradient id="paint59_linear_6924_92375" x1="127.419" y1="108.096" x2="127.419" y2="111.372" gradientUnits="userSpaceOnUse">
<stop stop-color="#C10065"/>
<stop offset="1" stop-color="white"/>
</linearGradient>
<linearGradient id="paint60_linear_6924_92375" x1="134.447" y1="108.096" x2="134.447" y2="111.372" gradientUnits="userSpaceOnUse">
<stop stop-color="#C10065"/>
<stop offset="1" stop-color="white"/>
</linearGradient>
<linearGradient id="paint61_linear_6924_92375" x1="128.754" y1="109.888" x2="128.754" y2="116.004" gradientUnits="userSpaceOnUse">
<stop stop-color="#C10065"/>
<stop offset="1" stop-color="white"/>
</linearGradient>
<linearGradient id="paint62_linear_6924_92375" x1="133.041" y1="109.888" x2="133.041" y2="116.004" gradientUnits="userSpaceOnUse">
<stop stop-color="#C10065"/>
<stop offset="1" stop-color="white"/>
</linearGradient>
<linearGradient id="paint63_linear_6924_92375" x1="131.504" y1="104.22" x2="132.396" y2="112.758" gradientUnits="userSpaceOnUse">
<stop stop-color="#BFD7FF"/>
<stop offset="1"/>
</linearGradient>
<linearGradient id="paint64_linear_6924_92375" x1="130.988" y1="108.659" x2="137.895" y2="108.659" gradientUnits="userSpaceOnUse">
<stop stop-color="#BFD7FF"/>
<stop offset="1"/>
</linearGradient>
<linearGradient id="paint65_linear_6924_92375" x1="133.871" y1="103.968" x2="134.763" y2="112.507" gradientUnits="userSpaceOnUse">
<stop stop-color="#BFD7FF"/>
<stop offset="1"/>
</linearGradient>
<linearGradient id="paint66_linear_6924_92375" x1="126.927" y1="104.692" x2="127.819" y2="113.231" gradientUnits="userSpaceOnUse">
<stop stop-color="#BFD7FF"/>
<stop offset="1"/>
</linearGradient>
<linearGradient id="paint67_linear_6924_92375" x1="148.5" y1="-0.5" x2="104" y2="22.5" gradientUnits="userSpaceOnUse">
<stop stop-color="#C68C43"/>
<stop offset="0.119792" stop-color="#F5BA6E"/>
<stop offset="0.286458" stop-color="#C68C43"/>
<stop offset="0.5625" stop-color="#C68C43"/>
<stop offset="0.770833" stop-color="#EEB873"/>
<stop offset="1" stop-color="#C68C43"/>
</linearGradient>
<linearGradient id="paint68_linear_6924_92375" x1="84.5" y1="60.5" x2="32.0032" y2="111.503" gradientUnits="userSpaceOnUse">
<stop stop-color="white" stop-opacity="0"/>
<stop offset="0.440223" stop-color="white"/>
<stop offset="1" stop-color="white" stop-opacity="0"/>
</linearGradient>
</defs>
</svg>
