<svg width="261" height="316" viewBox="0 0 261 316" fill="none" xmlns="http://www.w3.org/2000/svg">
<g filter="url(#filter0_b_6924_91283)">
<path d="M25 302.983C22.2386 302.983 20 300.745 20 297.983L20 4.99982C20 2.2384 22.2386 -0.000183203 25 -0.000183323L57 -0.000184712L57 302.983L25 302.983Z" fill="url(#paint0_linear_6924_91283)"/>
<path d="M25 301.983C22.7909 301.983 21 300.193 21 297.983L21 4.99982C21 2.79068 22.7908 0.999817 25 0.999817L56 0.999815L56 301.983L25 301.983Z" stroke="url(#paint1_linear_6924_91283)" stroke-width="2"/>
</g>
<g filter="url(#filter1_b_6924_91283)">
<path d="M235 -3.53779e-07C237.761 -1.58392e-07 240 2.23858 240 5L240 297.984C240 300.745 237.761 302.984 235 302.984L203 302.984L203 -2.61797e-06L235 -3.53779e-07Z" fill="url(#paint2_linear_6924_91283)"/>
<path d="M235 1C237.209 1 239 2.79086 239 5L239 297.984C239 300.193 237.209 301.984 235 301.984L204 301.984L204 0.999997L235 1Z" stroke="url(#paint3_linear_6924_91283)" stroke-width="2"/>
</g>
<mask id="path-5-inside-1_6924_91283" fill="white">
<path fill-rule="evenodd" clip-rule="evenodd" d="M17 10C17 4.47715 21.4772 0 27 0H233C238.523 0 243 4.47715 243 10V116.123C243 119.396 241.398 122.462 238.711 124.332L236.289 126.016C233.602 127.885 232 130.952 232 134.225V157V160V182.775C232 186.048 233.602 189.115 236.289 190.984L238.711 192.668C241.398 194.538 243 197.604 243 200.877V306C243 311.523 238.523 316 233 316H27C21.4772 316 17 311.523 17 306V200.877C17 197.604 18.6021 194.538 21.2894 192.668L23.7106 190.984C26.3979 189.115 28 186.048 28 182.775L28 160V157L28 134.225C28 130.952 26.3979 127.885 23.7106 126.016L21.2894 124.332C18.6021 122.462 17 119.396 17 116.123V10Z"/>
</mask>
<g filter="url(#filter2_i_6924_91283)">
<path fill-rule="evenodd" clip-rule="evenodd" d="M17 10C17 4.47715 21.4772 0 27 0H233C238.523 0 243 4.47715 243 10V116.123C243 119.396 241.398 122.462 238.711 124.332L236.289 126.016C233.602 127.885 232 130.952 232 134.225V157V160V182.775C232 186.048 233.602 189.115 236.289 190.984L238.711 192.668C241.398 194.538 243 197.604 243 200.877V306C243 311.523 238.523 316 233 316H27C21.4772 316 17 311.523 17 306V200.877C17 197.604 18.6021 194.538 21.2894 192.668L23.7106 190.984C26.3979 189.115 28 186.048 28 182.775L28 160V157L28 134.225C28 130.952 26.3979 127.885 23.7106 126.016L21.2894 124.332C18.6021 122.462 17 119.396 17 116.123V10Z" fill="#090E1C"/>
</g>
<path d="M28 160H30H28ZM28 157H26H28ZM21.2894 124.332L22.4315 122.69L21.2894 124.332ZM21.2894 192.668L20.1472 191.026L21.2894 192.668ZM238.711 192.668L237.569 194.31L238.711 192.668ZM23.7106 126.016L22.5685 127.658L23.7106 126.016ZM236.289 126.016L235.147 124.374L236.289 126.016ZM238.711 124.332L239.853 125.974L238.711 124.332ZM236.289 190.984L237.431 189.342L236.289 190.984ZM23.7106 190.984L24.8528 192.626L23.7106 190.984ZM233 -2H27V2H233V-2ZM245 116.123V10H241V116.123H245ZM237.431 127.658L239.853 125.974L237.569 122.69L235.147 124.374L237.431 127.658ZM234 157V134.225H230V157H234ZM234 160V157H230V160H234ZM234 182.775V160H230V182.775H234ZM239.853 191.026L237.431 189.342L235.147 192.626L237.569 194.31L239.853 191.026ZM245 306V200.877H241V306H245ZM27 318H233V314H27V318ZM15 200.877V306H19V200.877H15ZM22.4315 194.31L24.8528 192.626L22.5685 189.342L20.1472 191.026L22.4315 194.31ZM30 182.775L30 160H26L26 182.775H30ZM30 160V157H26V160H30ZM30 157L30 134.225H26L26 157H30ZM24.8528 124.374L22.4315 122.69L20.1472 125.974L22.5685 127.658L24.8528 124.374ZM15 10V116.123H19V10H15ZM22.4315 122.69C20.2817 121.194 19 118.741 19 116.123H15C15 120.051 16.9226 123.73 20.1472 125.974L22.4315 122.69ZM19 200.877C19 198.259 20.2817 195.806 22.4315 194.31L20.1472 191.026C16.9226 193.27 15 196.949 15 200.877H19ZM27 314C22.5817 314 19 310.418 19 306H15C15 312.627 20.3726 318 27 318V314ZM241 306C241 310.418 237.418 314 233 314V318C239.627 318 245 312.627 245 306H241ZM237.569 194.31C239.718 195.806 241 198.259 241 200.877H245C245 196.949 243.077 193.27 239.853 191.026L237.569 194.31ZM30 134.225C30 130.297 28.0774 126.618 24.8528 124.374L22.5685 127.658C24.7183 129.153 26 131.606 26 134.225H30ZM235.147 124.374C231.923 126.618 230 130.297 230 134.225H234C234 131.606 235.282 129.153 237.431 127.658L235.147 124.374ZM241 116.123C241 118.741 239.718 121.194 237.569 122.69L239.853 125.974C243.077 123.73 245 120.051 245 116.123H241ZM230 182.775C230 186.703 231.923 190.382 235.147 192.626L237.431 189.342C235.282 187.847 234 185.394 234 182.775H230ZM27 -2C20.3726 -2 15 3.37258 15 10H19C19 5.58172 22.5817 2 27 2V-2ZM24.8528 192.626C28.0774 190.382 30 186.703 30 182.775H26C26 185.394 24.7183 187.847 22.5685 189.342L24.8528 192.626ZM233 2C237.418 2 241 5.58172 241 10H245C245 3.37258 239.627 -2 233 -2V2Z" fill="url(#paint4_linear_6924_91283)" mask="url(#path-5-inside-1_6924_91283)"/>
<mask id="mask0_6924_91283" style="mask-type:alpha" maskUnits="userSpaceOnUse" x="19" y="2" width="222" height="312">
<path fill-rule="evenodd" clip-rule="evenodd" d="M19 12C19 6.47715 23.4771 2 29 2H231C236.523 2 241 6.47715 241 12V116.602C241 119.867 239.406 122.927 236.73 124.798L234.465 126.382C231.789 128.253 230.195 131.312 230.195 134.577V157.013V159.975V182.41C230.195 185.675 231.789 188.735 234.465 190.606L236.73 192.19C239.406 194.061 241 197.12 241 200.385V304C241 309.523 236.523 314 231 314H29C23.4772 314 19 309.523 19 304V200.386C19 197.121 20.5939 194.062 23.2697 192.191L25.537 190.606C28.2127 188.735 29.8066 185.675 29.8066 182.41L29.8066 157.013L29.8066 134.577C29.8066 131.312 28.2127 128.253 25.537 126.382L23.2697 124.796C20.5939 122.925 19 119.866 19 116.601V12Z" fill="#090E1C"/>
</mask>
<g mask="url(#mask0_6924_91283)">
<rect x="18" y="317" width="317" height="113" transform="rotate(-90 18 317)" fill="#060911"/>
<g style="mix-blend-mode:hard-light" opacity="0.2">
<path style="mix-blend-mode:multiply" opacity="0.5" d="M130.461 128.767L64.0275 165L76.7303 88.2809L23 33.9722L97.244 22.767L130.461 -47L163.677 22.767L238 33.9722L184.191 88.2809L196.894 165L130.461 128.767Z" fill="url(#paint5_linear_6924_91283)"/>
<path d="M230.195 36.5899L194.375 31.1918L184.591 29.7195L161.316 26.2026L130.467 -38.5752L99.6961 26.2026L30.7383 36.5899L80.6025 86.9726L68.8465 158.13L130.467 124.514L192.087 158.13L180.331 86.9726L230.195 36.5899Z" fill="url(#paint6_linear_6924_91283)"/>
<path style="mix-blend-mode:multiply" opacity="0.5" d="M30.4297 36.5908L131.894 64.0723L80.2939 86.9735L30.4297 36.5908Z" fill="url(#paint7_linear_6924_91283)"/>
<path style="mix-blend-mode:multiply" opacity="0.5" d="M229.875 36.5908L131.883 64.0723L180.011 86.9735L229.875 36.5908Z" fill="url(#paint8_linear_6924_91283)"/>
<path style="mix-blend-mode:multiply" opacity="0.5" d="M130.144 124.516L131.88 64.0732L68.4453 158.132L130.144 124.516Z" fill="url(#paint9_linear_6924_91283)"/>
<path style="mix-blend-mode:multiply" opacity="0.5" d="M191.772 158.132L131.888 64.0732L130.152 124.516L191.772 158.132Z" fill="url(#paint10_linear_6924_91283)"/>
<path style="mix-blend-mode:color-dodge" opacity="0.5" d="M130.152 -38.5752L131.888 64.0714L160.923 26.2026L130.152 -38.5752Z" fill="url(#paint11_linear_6924_91283)"/>
<path style="mix-blend-mode:color-dodge" opacity="0.5" d="M229.875 36.5905L131.883 64.072L160.918 26.2031L229.875 36.5905Z" fill="url(#paint12_linear_6924_91283)"/>
<path style="mix-blend-mode:color-dodge" opacity="0.5" d="M229.875 36.5905L131.883 64.072L160.918 26.2031L229.875 36.5905Z" fill="url(#paint13_linear_6924_91283)"/>
<path style="mix-blend-mode:color-dodge" opacity="0.5" d="M99.3086 26.2031L131.894 64.072L30.4297 36.5905L99.3086 26.2031Z" fill="url(#paint14_linear_6924_91283)"/>
<g style="mix-blend-mode:color-dodge" opacity="0.8">
<path d="M160.686 48.6967C155.558 53.1951 159.976 56.1396 159.976 56.1396L186.328 48.6967C182.614 45.8602 178.121 44.3301 173.507 44.3301C168.894 44.3301 164.401 45.8602 160.686 48.6967Z" fill="white"/>
</g>
<path style="mix-blend-mode:multiply" opacity="0.5" d="M68.8477 158.131C68.8477 158.131 115.556 135.312 130.468 128.932L192.246 158.131L130.626 124.516L68.8477 158.131Z" fill="url(#paint15_linear_6924_91283)"/>
<g style="mix-blend-mode:soft-light" opacity="0.4">
<path d="M107.498 14.9977C100.95 33.8095 125.961 46.9776 129.274 41.1705C132.588 35.3634 130.537 3.05637 126.276 -1.3603C122.016 -5.77696 110.181 7.30945 107.498 14.9977Z" fill="#F7FFFF"/>
</g>
<g style="mix-blend-mode:soft-light" opacity="0.4">
<path d="M87.0677 111.592C100.402 113.392 107.818 97.7698 110.737 87.0553C115.077 69.634 63.0034 108.157 87.0677 111.592Z" fill="#F7FFFF"/>
</g>
</g>
</g>
<g filter="url(#filter3_f_6924_91283)">
<ellipse cx="130.5" cy="158" rx="55.5" ry="52" fill="#6E85CF"/>
</g>
<path fill-rule="evenodd" clip-rule="evenodd" d="M219.926 20.509V23.7297H221.865C222.936 23.7297 223.804 24.5949 223.804 25.6622V33.3919C223.804 34.4592 222.936 35.3244 221.865 35.3244H208.939C207.868 35.3244 207 34.4592 207 33.3919V25.6622C207 24.5949 207.868 23.7297 208.939 23.7297H210.878V20.509C210.878 18.0188 212.903 16 215.402 16C217.9 16 219.926 18.0188 219.926 20.509ZM212.17 20.509C212.17 18.7303 213.617 17.2883 215.402 17.2883C217.187 17.2883 218.633 18.7303 218.633 20.509V23.7297H212.17V20.509Z" fill="white"/>
<circle cx="215.403" cy="28.6023" r="1.68038" fill="black"/>
<rect x="214.562" y="28.6025" width="1.68038" height="4.20095" fill="black"/>
<path d="M78.6842 188.84C78.556 189.295 59.1807 182.52 59.1807 182.52C54.2638 175.155 50.1787 167.269 47 159.006H80.0803L78.6842 188.84Z" fill="url(#paint16_linear_6924_91283)"/>
<path d="M53.3125 159.006C53.3125 159.006 61.0341 174.933 62.4587 176.67L79.1699 177.111V175.973C79.1699 175.973 63.8691 176.101 63.0001 175.446C62.1311 174.791 54.2955 159.006 54.2955 159.006H53.3125Z" fill="#394773"/>
<path d="M53.3125 159.006L62.4587 176.67C60.4756 173.839 58.6722 170.887 57.0593 167.831C55.0221 163.746 53.3125 159.006 53.3125 159.006Z" fill="white"/>
<g style="mix-blend-mode:soft-light" opacity="0.5">
<path d="M55.6747 160.087C56.9711 163.888 62.0428 172.556 63.0971 172.556C64.1513 172.556 76.4318 172.343 77.5573 170.578C78.6827 168.813 79.6657 160.272 78.6827 160.102C77.6997 159.931 55.1048 158.322 55.6747 160.087Z" fill="white"/>
</g>
<g style="mix-blend-mode:soft-light" opacity="0.5">
<path d="M48.0813 159.66C49.6626 163.404 54.0505 172.898 54.8626 173.012C55.6746 173.126 58.3957 173.467 58.3957 172.329C58.3957 170.507 53.3382 159.902 52.1985 159.66C51.0588 159.419 47.6966 158.75 48.0813 159.66Z" fill="white"/>
</g>
<path style="mix-blend-mode:multiply" opacity="0.5" d="M55.6635 174.248C55.5211 175.43 59.9375 181.508 60.664 182.006C61.3906 182.504 76.2497 187.287 77.2185 186.603C78.1872 185.92 78.7143 173.38 77.9023 173.01C77.0902 172.64 55.8345 172.953 55.6635 174.248Z" fill="url(#paint17_linear_6924_91283)"/>
<path style="mix-blend-mode:multiply" opacity="0.5" d="M68.9688 159.005C70.5669 168.115 71.2683 177.358 71.063 186.604L78.6848 188.839L80.1095 158.948L68.9688 159.005Z" fill="url(#paint18_linear_6924_91283)"/>
<path d="M181.3 188.839C181.442 189.295 200.86 182.519 200.86 182.519C205.788 175.139 209.878 167.233 213.055 158.948H179.918L181.3 188.839Z" fill="url(#paint19_linear_6924_91283)"/>
<path d="M206.688 159.006C206.688 159.006 198.952 174.933 197.542 176.67L180.816 177.111V175.973C180.816 175.973 196.131 176.101 197 175.446C197.869 174.791 205.705 159.006 205.705 159.006H206.688Z" fill="#394773"/>
<path d="M206.689 159.006L197.543 176.67C199.525 173.841 201.323 170.889 202.928 167.831C204.965 163.746 206.689 159.006 206.689 159.006Z" fill="white"/>
<g style="mix-blend-mode:soft-light" opacity="0.5">
<path d="M204.325 160.086C203.042 163.887 197.956 172.541 196.888 172.541C195.819 172.541 183.568 172.328 182.428 170.563C181.288 168.798 180.334 160.257 181.302 160.086C182.271 159.916 204.894 158.322 204.325 160.086Z" fill="white"/>
</g>
<g style="mix-blend-mode:soft-light" opacity="0.5">
<path d="M211.904 159.66C210.323 163.404 205.949 172.898 205.137 173.012C204.325 173.126 201.59 173.467 201.547 172.329C201.547 170.507 206.604 159.902 207.744 159.66C208.884 159.419 212.26 158.75 211.904 159.66Z" fill="white"/>
</g>
<path style="mix-blend-mode:multiply" opacity="0.5" d="M204.324 174.248C204.481 175.43 200.05 181.508 199.338 182.006C198.625 182.504 183.766 187.287 182.769 186.603C181.772 185.92 181.344 173.38 182.099 173.01C182.854 172.64 204.167 172.953 204.324 174.248Z" fill="url(#paint20_linear_6924_91283)"/>
<path style="mix-blend-mode:multiply" opacity="0.5" d="M191.03 159.005C189.432 168.115 188.73 177.358 188.936 186.604L181.3 188.839L179.875 158.948L191.03 159.005Z" fill="url(#paint21_linear_6924_91283)"/>
<path d="M130.213 90L76.0625 121.243V195.771L130.213 227L184.364 195.771V121.243L130.213 90Z" fill="url(#paint22_linear_6924_91283)"/>
<path d="M85.8516 190.12V126.88L130.215 101.302L174.564 126.88V190.12L130.215 215.699L85.8516 190.12Z" fill="url(#paint23_linear_6924_91283)"/>
<path d="M89.1133 188.227V128.773L130.214 105.06L171.301 128.773V188.227L130.214 211.941L89.1133 188.227Z" fill="#736FA8"/>
<g style="mix-blend-mode:soft-light" opacity="0.5">
<path d="M77.4168 121.428C76.7472 123.435 82.5028 125.897 86.5488 125.015C90.5948 124.132 128.718 101.799 129.63 99.8065C129.909 97.0189 129.909 94.2105 129.63 91.4229C128.305 91.4229 77.7445 120.46 77.4168 121.428Z" fill="white"/>
</g>
<g style="mix-blend-mode:soft-light" opacity="0.5">
<path d="M182.756 121.428C183.425 123.435 177.67 125.897 173.61 125.015C169.549 124.132 131.81 101.586 130.528 99.8065C129.859 98.8813 129.631 91.4229 130.528 91.4229C131.867 91.4229 182.428 120.46 182.756 121.428Z" fill="white"/>
</g>
<path style="mix-blend-mode:multiply" opacity="0.5" d="M77.3599 163.817C76.9895 166.052 76.1062 194.263 77.3599 194.476C78.6136 194.69 84.4832 190.676 84.8108 188.783C85.1385 186.89 85.2525 167.589 84.8108 165.738C84.3692 163.888 77.9583 160.102 77.3599 163.817Z" fill="url(#paint24_linear_6924_91283)"/>
<path style="mix-blend-mode:multiply" opacity="0.5" d="M182.854 163.817C183.21 166.052 184.108 194.263 182.854 194.476C181.601 194.69 175.731 190.676 175.403 188.783C175.076 186.89 174.962 167.589 175.403 165.738C175.845 163.888 182.242 160.102 182.854 163.817Z" fill="url(#paint25_linear_6924_91283)"/>
<path style="mix-blend-mode:multiply" opacity="0.5" d="M78.7131 195.243C79.3684 196.211 128.148 225.02 128.875 225.02C129.245 225.02 129.73 217.903 129.73 217.064C129.73 214.829 86.6056 191.955 85.8506 191.742C84.7394 191.429 78.0578 194.261 78.7131 195.243Z" fill="url(#paint26_linear_6924_91283)"/>
<path style="mix-blend-mode:multiply" opacity="0.5" d="M181.787 195.998C181.132 196.966 131.454 225.675 130.714 225.675C130.531 222.596 130.588 219.508 130.884 216.438C132.452 214.858 173.624 191.955 174.351 191.742C175.462 191.429 182.457 195.016 181.787 195.998Z" fill="url(#paint27_linear_6924_91283)"/>
<path style="mix-blend-mode:multiply" opacity="0.5" d="M90.9916 186.646C88.1423 170.178 89.7094 169.139 110.167 162.179C130.625 155.218 165.23 137.27 168.265 145.098C171.299 152.927 170.259 186.049 169.575 187.799C168.891 189.55 133.161 210.132 130.212 210.189C127.263 210.246 91.3193 188.497 90.9916 186.646Z" fill="url(#paint28_linear_6924_91283)"/>
<g style="mix-blend-mode:soft-light" opacity="0.3">
<path d="M170.418 129.184C169.705 128.999 132.565 107.563 130.527 107.72C128.49 107.876 102.661 119.961 92.0619 129.07C89.2126 131.504 90.2668 167.886 92.8739 167.217C95.481 166.548 97.4328 151.844 126.168 143.589C154.404 135.547 166.671 142.507 169.776 143.774C170.645 144.087 172.07 129.583 170.418 129.184Z" fill="white"/>
</g>
<path style="mix-blend-mode:multiply" opacity="0.5" d="M85.8516 190.12V126.88L130.215 101.259L174.564 126.88V190.12L171.302 188.213C171.302 188.213 171.501 133.256 170.319 131.534C166.045 125.385 133.278 110.425 127.893 112.091C122.508 113.756 93.217 126.225 89.9403 131.434C88.8433 133.199 89.114 188.227 89.114 188.227L85.8516 190.12Z" fill="url(#paint29_linear_6924_91283)"/>
<g style="mix-blend-mode:soft-light" opacity="0.2">
<path d="M138.503 135.548C149.544 140.586 166.198 140.672 167.723 139.704C169.247 138.736 170.259 131.662 167.865 130.466C165.472 129.271 146.495 119.179 141.495 120.261C136.494 121.342 136.537 134.623 138.503 135.548Z" fill="white"/>
</g>
<path d="M76.0625 143.946C76.0625 143.775 76.5326 122.923 77.4871 121.428C78.4417 119.934 129.045 91.8362 130.527 91.4234C132.008 91.0106 150.999 101.999 150.999 101.999L130.213 90L76.0767 121.314L76.0625 143.946Z" fill="url(#paint30_linear_6924_91283)"/>
<path d="M149.574 112.475C149.574 112.475 173.366 125.997 173.694 127.52C174.021 129.043 174.548 169.908 174.548 169.908C174.548 169.908 174.776 128.63 174.548 126.879C174.32 125.128 149.574 112.475 149.574 112.475Z" fill="white"/>
<path d="M85.8494 161.539C85.8494 161.539 85.0659 127.378 85.4648 126.239C85.8637 125.101 130.213 101.302 130.213 101.302C130.213 101.302 87.388 125.755 86.5047 127.307C85.6215 128.858 85.8494 161.539 85.8494 161.539Z" fill="white"/>
<path style="mix-blend-mode:multiply" d="M76.0625 195.771L130.199 227L184.336 195.771V178.79C184.336 178.79 183.88 193.608 182.769 195.458C181.657 197.308 133.191 225.491 130.712 225.676C128.233 225.861 78.6554 196.44 77.3589 194.476C76.0625 192.512 76.0625 157.781 76.0625 157.781V195.771Z" fill="url(#paint31_linear_6924_91283)"/>
<path d="M85.8511 173.979C85.8511 173.979 85.6944 188.555 86.5065 189.779C87.3185 191.003 108.361 203.144 108.361 203.144C108.361 203.144 85.5662 191.373 85.3525 190.605C85.1388 189.836 85.8511 173.979 85.8511 173.979Z" fill="white"/>
<g style="mix-blend-mode:soft-light" opacity="0.5">
<path d="M104.172 203.4C102.577 203.4 98.1035 205.194 99.058 206.247C100.012 207.3 126.696 223.328 129.731 224.481C130.728 224.851 130.628 218.502 129.303 216.453C128.733 215.585 109.13 203.386 104.172 203.4Z" fill="white"/>
</g>
<path d="M149.276 102.298C147.98 102.653 152.325 108.119 154.391 108.603C156.456 109.087 159.292 107.621 158.309 106.625C157.326 105.628 151.299 101.757 149.276 102.298Z" fill="white"/>
<path d="M158.905 107.72C156.939 108.247 160.572 116.887 162.125 118.424C163.678 119.961 177.511 122.694 177.184 120.161C176.856 117.627 161.683 106.98 158.905 107.72Z" fill="white"/>
<path style="mix-blend-mode:multiply" opacity="0.5" d="M155.189 203.542C154.02 208.623 154.206 211.627 154.861 211.655C155.516 211.684 179.194 197.421 179.835 196.824C180.476 196.226 176.045 192.112 174.208 192.397C172.37 192.682 155.616 201.635 155.189 203.542Z" fill="url(#paint32_linear_6924_91283)"/>
<path style="mix-blend-mode:multiply" opacity="0.5" d="M88.726 128.33C88.1561 126.622 86.4038 126.637 86.2471 128.544C86.0904 130.451 85.8055 165.879 86.5035 165.936C87.2016 165.993 88.669 164.256 88.726 163.445C88.783 162.634 88.9967 129.156 88.726 128.33Z" fill="url(#paint33_linear_6924_91283)"/>
<path style="mix-blend-mode:multiply" opacity="0.5" d="M171.701 128.56C171.601 129.229 171.259 162.721 171.701 162.721C172.142 162.721 174.094 161.141 174.094 160.33C174.094 159.519 173.596 127.891 173.382 127.735C173.168 127.578 171.772 128.005 171.701 128.56Z" fill="url(#paint34_linear_6924_91283)"/>
<path style="mix-blend-mode:multiply" opacity="0.5" d="M130.214 104.519C130.214 105.174 111.123 116.049 110.682 116.049C110.24 116.049 110.397 113.117 111.01 112.718C111.622 112.319 130.071 101.217 130.214 101.587C130.278 102.564 130.278 103.543 130.214 104.519Z" fill="url(#paint35_linear_6924_91283)"/>
<path d="M169.59 192.654C168.379 192.654 164.262 195.003 164.576 196.17C164.889 197.337 167.425 198.604 168.08 197.921C168.736 197.238 170.388 192.683 169.59 192.654Z" fill="#394773"/>
<path d="M171.172 193.48C170.745 193.864 169.833 195.231 170.702 195.9C171.571 196.569 174.136 194.804 173.751 194.291C173.366 193.779 171.7 192.982 171.172 193.48Z" fill="#394773"/>
<path style="mix-blend-mode:multiply" opacity="0.5" d="M165.248 194.989C164.236 196.412 168.396 197.28 168.938 196.127C169.479 194.974 170.362 192.526 169.664 192.654C168.062 193.158 166.565 193.949 165.248 194.989Z" fill="url(#paint36_linear_6924_91283)"/>
<path d="M164.59 195.828C164.878 196.625 165.438 197.296 166.171 197.721C167.14 198.291 167.966 198.162 168.223 197.721C167.981 198.007 167.649 198.202 167.281 198.274C166.914 198.347 166.532 198.292 166.2 198.12C164.22 197.223 164.59 195.828 164.59 195.828Z" fill="#DAE1EF"/>
<path style="mix-blend-mode:multiply" opacity="0.5" d="M171.627 193.509C170.686 194.519 171.413 195.985 171.94 195.9C172.467 195.815 174.049 194.776 173.749 194.292C173.45 193.808 171.826 193.295 171.627 193.509Z" fill="url(#paint37_linear_6924_91283)"/>
<path d="M171.172 193.479C171.172 193.479 170.303 194.661 170.645 195.344C170.987 196.027 171.486 196.027 171.486 196.027C171.486 196.027 170.374 196.668 170.161 195.913C169.805 194.59 171.172 193.479 171.172 193.479Z" fill="#DAE1EF"/>
<path d="M124.628 104.149C121.778 103.38 119.357 105.259 118.074 106.711C116.792 108.163 117.519 109.031 119.129 108.746C120.738 108.462 125.867 104.476 124.628 104.149Z" fill="#394773"/>
<path style="mix-blend-mode:multiply" opacity="0.5" d="M124.629 104.148C123.712 103.964 122.765 103.987 121.857 104.216C120.95 104.445 120.106 104.874 119.386 105.472C118.603 106.169 120.141 108.134 121.196 107.721C122.25 107.308 125.541 104.447 124.629 104.148Z" fill="url(#paint38_linear_6924_91283)"/>
<path d="M118.817 105.956C118.817 105.956 115.526 108.12 115.882 109.187C116.239 110.255 120.156 108.305 120.156 108.305C120.156 108.305 118.105 108.974 117.635 108.063C117.165 107.152 118.817 105.956 118.817 105.956Z" fill="white"/>
<path d="M87.7466 190.548C86.1937 190.932 90.7954 194.092 91.8781 194.263C92.9608 194.434 91.8781 191.658 91.3652 191.174C90.2334 190.657 88.9867 190.441 87.7466 190.548Z" fill="white"/>
<path d="M130.173 193.593L74.2696 161.026C72.9468 164.068 72.0503 167.277 71.6055 170.563L75.2526 176.726L130.173 208.596L185.093 176.726L188.398 170.563C188.299 167.292 187.623 164.064 186.404 161.026L130.173 193.593Z" fill="url(#paint39_linear_6924_91283)"/>
<path d="M75.2526 176.728L71.6055 170.564L130.173 204.839L188.398 170.564L185.093 176.728L130.173 208.597L75.2526 176.728Z" fill="url(#paint40_linear_6924_91283)"/>
<path style="mix-blend-mode:multiply" opacity="0.5" d="M71.6055 170.564L75.2526 176.728L76.0789 177.24V179.062C76.0789 179.062 79.2131 180.67 85.3676 184.058C85.567 184.172 89.2284 188.044 89.2284 188.044C89.2284 188.044 128.777 211.942 130.215 211.942C132.053 211.942 171.317 187.503 171.317 187.503C171.317 187.503 174.365 184.941 174.665 184.77L184.366 179.674V177.14L185.093 176.728L188.398 170.564L130.173 204.839L71.6055 170.564Z" fill="url(#paint41_linear_6924_91283)"/>
<path style="mix-blend-mode:multiply" opacity="0.5" d="M130.172 193.593V204.838L188.397 170.563C188.244 167.298 187.571 164.079 186.403 161.026L130.172 193.593Z" fill="url(#paint42_linear_6924_91283)"/>
<g style="mix-blend-mode:soft-light" opacity="0.5">
<path d="M77.144 163.488C76.0755 163.488 76.9446 172.954 80.1928 175.117C85.3642 178.576 116.464 196.895 118.502 196.923C119.926 196.923 119.841 188.896 119.413 188.284C118.616 187.102 78.7396 163.488 77.144 163.488Z" fill="white"/>
</g>
<g style="mix-blend-mode:soft-light" opacity="0.5">
<path d="M147.452 183.943C146.783 184.641 146.868 193.48 148.022 193.224C157.411 188.664 166.458 183.431 175.091 177.566C183.382 171.474 184.55 163.461 182.684 163.632C182.656 163.489 148.849 182.52 147.452 183.943Z" fill="white"/>
</g>
<path d="M101.691 188.214C101.691 188.214 128.446 204.255 130.184 204.255C131.922 204.255 153.264 191.288 153.264 191.288C153.264 191.288 130.84 205.522 130.227 205.522C129.615 205.522 101.691 188.214 101.691 188.214Z" fill="white"/>
<path style="mix-blend-mode:multiply" opacity="0.5" d="M130.301 177.409L118.305 183.714L120.585 170.349L110.883 160.898L124.303 158.948L130.301 146.792L136.313 158.948L149.733 160.898L140.017 170.349L142.311 183.714L130.301 177.409Z" fill="url(#paint43_linear_6924_91283)"/>
<path d="M148.321 161.353L141.853 160.414L140.072 160.158L135.87 159.546L130.299 148.272L124.729 159.546L112.277 161.353L121.295 170.136L119.158 182.519L130.299 176.669L141.44 182.519L139.317 170.136L148.321 161.353Z" fill="url(#paint44_linear_6924_91283)"/>
<path style="mix-blend-mode:multiply" opacity="0.5" d="M112.219 161.354L130.554 166.136L121.223 170.136L112.219 161.354Z" fill="url(#paint45_linear_6924_91283)"/>
<path style="mix-blend-mode:multiply" opacity="0.5" d="M148.263 161.354L130.555 166.136L139.245 170.136L148.263 161.354Z" fill="url(#paint46_linear_6924_91283)"/>
<path style="mix-blend-mode:multiply" opacity="0.5" d="M130.242 176.67L130.556 166.137L119.102 182.52L130.242 176.67Z" fill="url(#paint47_linear_6924_91283)"/>
<path style="mix-blend-mode:multiply" opacity="0.5" d="M141.383 182.52L130.556 166.137L130.242 176.67L141.383 182.52Z" fill="url(#paint48_linear_6924_91283)"/>
<path style="mix-blend-mode:color-dodge" opacity="0.5" d="M130.242 148.272L130.556 166.136L135.813 159.546L130.242 148.272Z" fill="url(#paint49_linear_6924_91283)"/>
<path style="mix-blend-mode:color-dodge" opacity="0.5" d="M148.263 161.354L130.555 166.136L135.812 159.546L148.263 161.354Z" fill="url(#paint50_linear_6924_91283)"/>
<path style="mix-blend-mode:color-dodge" opacity="0.5" d="M148.263 161.354L130.555 166.136L135.812 159.546L148.263 161.354Z" fill="url(#paint51_linear_6924_91283)"/>
<path style="mix-blend-mode:color-dodge" opacity="0.5" d="M124.67 159.546L130.554 166.136L112.219 161.354L124.67 159.546Z" fill="url(#paint52_linear_6924_91283)"/>
<g style="mix-blend-mode:color-dodge" opacity="0.8">
<path d="M135.811 163.46C134.885 164.243 135.669 164.756 135.669 164.756L140.442 163.475C139.773 162.977 138.962 162.707 138.129 162.704C137.295 162.702 136.483 162.967 135.811 163.46Z" fill="white"/>
</g>
<path style="mix-blend-mode:multiply" opacity="0.5" d="M119.16 182.52C119.16 182.52 127.608 178.549 130.301 177.439L141.442 182.52L130.301 176.67L119.16 182.52Z" fill="url(#paint53_linear_6924_91283)"/>
<path style="mix-blend-mode:multiply" opacity="0.5" d="M112.219 161.354L130.554 166.136L120.482 174.804L112.219 161.354Z" fill="url(#paint54_linear_6924_91283)"/>
<path style="mix-blend-mode:multiply" opacity="0.5" d="M148.263 161.354L130.555 166.136L140.314 175.957L148.263 161.354Z" fill="url(#paint55_linear_6924_91283)"/>
<path style="mix-blend-mode:multiply" opacity="0.5" d="M119.16 182.52L130.557 166.137L141.442 182.52L130.301 180.769L119.16 182.52Z" fill="url(#paint56_linear_6924_91283)"/>
<g style="mix-blend-mode:soft-light" opacity="0.4">
<path d="M126.154 157.596C124.971 160.87 129.487 163.162 130.086 162.166C130.684 161.169 130.313 155.476 129.63 154.75C128.946 154.024 126.638 156.244 126.154 157.596Z" fill="#F7FFFF"/>
</g>
<g style="mix-blend-mode:soft-light" opacity="0.4">
<path d="M122.505 174.407C124.899 174.734 126.252 172.001 126.779 170.137C127.52 167.105 118.103 173.823 122.505 174.407Z" fill="#F7FFFF"/>
</g>
<path style="mix-blend-mode:multiply" opacity="0.5" d="M130.301 140.487L118.305 146.793L120.585 133.441L110.883 123.976L124.303 122.026L130.301 109.87L136.313 122.026L149.733 123.976L140.017 133.441L142.311 146.793L130.301 140.487Z" fill="url(#paint57_linear_6924_91283)"/>
<path d="M148.321 124.431L141.853 123.492L140.072 123.236L135.87 122.624L130.299 111.351L124.729 122.624L112.277 124.431L121.295 133.214L119.158 145.597L130.299 139.747L141.44 145.597L139.317 133.214L148.321 124.431Z" fill="url(#paint58_linear_6924_91283)"/>
<path style="mix-blend-mode:multiply" opacity="0.5" d="M112.219 124.432L130.554 129.228L121.223 133.214L112.219 124.432Z" fill="url(#paint59_linear_6924_91283)"/>
<path style="mix-blend-mode:multiply" opacity="0.5" d="M148.263 124.432L130.555 129.228L139.245 133.214L148.263 124.432Z" fill="url(#paint60_linear_6924_91283)"/>
<path style="mix-blend-mode:multiply" opacity="0.5" d="M130.242 139.748L130.556 129.229L119.102 145.598L130.242 139.748Z" fill="url(#paint61_linear_6924_91283)"/>
<path style="mix-blend-mode:multiply" opacity="0.5" d="M141.383 145.598L130.556 129.229L130.242 139.748L141.383 145.598Z" fill="url(#paint62_linear_6924_91283)"/>
<path style="mix-blend-mode:color-dodge" opacity="0.5" d="M130.242 111.351L130.556 129.228L135.813 122.624L130.242 111.351Z" fill="url(#paint63_linear_6924_91283)"/>
<path style="mix-blend-mode:color-dodge" opacity="0.5" d="M148.263 124.432L130.555 129.228L135.812 122.624L148.263 124.432Z" fill="url(#paint64_linear_6924_91283)"/>
<path style="mix-blend-mode:color-dodge" opacity="0.5" d="M148.263 124.432L130.555 129.228L135.812 122.624L148.263 124.432Z" fill="url(#paint65_linear_6924_91283)"/>
<path style="mix-blend-mode:color-dodge" opacity="0.5" d="M124.67 122.624L130.554 129.228L112.219 124.432L124.67 122.624Z" fill="url(#paint66_linear_6924_91283)"/>
<g style="mix-blend-mode:color-dodge" opacity="0.8">
<path d="M135.811 126.552C134.885 127.321 135.669 127.833 135.669 127.833L140.442 126.552C139.773 126.054 138.961 125.785 138.126 125.785C137.292 125.785 136.48 126.054 135.811 126.552Z" fill="white"/>
</g>
<path style="mix-blend-mode:multiply" opacity="0.5" d="M119.16 145.596C119.16 145.596 127.608 141.625 130.301 140.515L141.442 145.596L130.301 139.817L119.16 145.596Z" fill="url(#paint67_linear_6924_91283)"/>
<path style="mix-blend-mode:multiply" opacity="0.5" d="M112.219 124.432L130.554 129.228L120.482 137.883L112.219 124.432Z" fill="url(#paint68_linear_6924_91283)"/>
<path style="mix-blend-mode:multiply" opacity="0.5" d="M148.263 124.432L130.555 129.228L140.314 139.035L148.263 124.432Z" fill="url(#paint69_linear_6924_91283)"/>
<path style="mix-blend-mode:multiply" opacity="0.5" d="M119.16 145.598L130.557 129.229L141.442 145.598L130.301 143.848L119.16 145.598Z" fill="url(#paint70_linear_6924_91283)"/>
<g style="mix-blend-mode:soft-light" opacity="0.4">
<path d="M126.154 120.673C124.971 123.961 129.487 126.253 130.086 125.242C130.684 124.232 130.313 118.595 129.558 117.827C128.803 117.058 126.638 119.335 126.154 120.673Z" fill="#F7FFFF"/>
</g>
<g style="mix-blend-mode:soft-light" opacity="0.4">
<path d="M122.505 137.484C124.899 137.811 126.252 135.093 126.779 133.214C127.52 130.182 118.103 136.972 122.505 137.484Z" fill="#F7FFFF"/>
</g>
<path d="M38.1722 33V20.544H40.1162V33H38.1722ZM41.5467 20.544H43.5627L46.1007 31.128L48.6027 20.544H50.6187L47.3787 33H44.8227L41.5467 20.544Z" fill="white"/>
<g style="mix-blend-mode:overlay">
<g style="mix-blend-mode:color-dodge">
<path fill-rule="evenodd" clip-rule="evenodd" d="M19 12C19 6.47715 23.4771 2 29 2H231C236.523 2 241 6.47715 241 12V120.562C241 123.615 239.506 126.474 237 128.217C234.494 129.961 233 132.82 233 135.873V159V162V185.127C233 188.18 234.494 191.039 237 192.783C239.506 194.526 241 197.385 241 200.438V304C241 309.523 236.523 314 231 314H29C23.4772 314 19 309.523 19 304V202.182C19 198.908 20.6021 195.842 23.2894 193.973L24.7106 192.984C27.3979 191.115 29 188.048 29 184.775L29 162V159L29 136.225C29 132.952 27.3979 129.885 24.7107 128.016L23.2894 127.027C20.6021 125.158 19 122.092 19 118.818V12Z" fill="url(#paint71_linear_6924_91283)"/>
</g>
</g>
<defs>
<filter id="filter0_b_6924_91283" x="-6" y="-26" width="89" height="354.983" filterUnits="userSpaceOnUse" colorInterpolationFilters="sRGB">
<feFlood floodOpacity="0" result="BackgroundImageFix"/>
<feGaussianBlur in="BackgroundImageFix" stdDeviation="13"/>
<feComposite in2="SourceAlpha" operator="in" result="effect1_backgroundBlur_6924_91283"/>
<feBlend mode="normal" in="SourceGraphic" in2="effect1_backgroundBlur_6924_91283" result="shape"/>
</filter>
<filter id="filter1_b_6924_91283" x="177" y="-26" width="89" height="354.983" filterUnits="userSpaceOnUse" colorInterpolationFilters="sRGB">
<feFlood floodOpacity="0" result="BackgroundImageFix"/>
<feGaussianBlur in="BackgroundImageFix" stdDeviation="13"/>
<feComposite in2="SourceAlpha" operator="in" result="effect1_backgroundBlur_6924_91283"/>
<feBlend mode="normal" in="SourceGraphic" in2="effect1_backgroundBlur_6924_91283" result="shape"/>
</filter>
<filter id="filter2_i_6924_91283" x="17" y="0" width="226" height="320" filterUnits="userSpaceOnUse" colorInterpolationFilters="sRGB">
<feFlood floodOpacity="0" result="BackgroundImageFix"/>
<feBlend mode="normal" in="SourceGraphic" in2="BackgroundImageFix" result="shape"/>
<feColorMatrix in="SourceAlpha" type="matrix" values="0 0 0 0 0 0 0 0 0 0 0 0 0 0 0 0 0 0 127 0" result="hardAlpha"/>
<feOffset dy="5"/>
<feGaussianBlur stdDeviation="2"/>
<feComposite in2="hardAlpha" operator="arithmetic" k2="-1" k3="1"/>
<feColorMatrix type="matrix" values="0 0 0 0 0 0 0 0 0 0 0 0 0 0 0 0 0 0 0.25 0"/>
<feBlend mode="normal" in2="shape" result="effect1_innerShadow_6924_91283"/>
</filter>
<filter id="filter3_f_6924_91283" x="0" y="31" width="261" height="254" filterUnits="userSpaceOnUse" colorInterpolationFilters="sRGB">
<feFlood floodOpacity="0" result="BackgroundImageFix"/>
<feBlend mode="normal" in="SourceGraphic" in2="BackgroundImageFix" result="shape"/>
<feGaussianBlur stdDeviation="37.5" result="effect1_foregroundBlur_6924_91283"/>
</filter>
<linearGradient id="paint0_linear_6924_91283" x1="13" y1="289.56" x2="134.492" y2="-6.09891" gradientUnits="userSpaceOnUse">
<stop stop-color="#060913"/>
<stop offset="0.136764" stop-color="#070A16"/>
<stop offset="0.197268" stop-color="#0D142E"/>
<stop offset="0.309253" stop-color="#070B17"/>
<stop offset="0.490764" stop-color="#080C1A"/>
<stop offset="0.661458" stop-color="#0B1125"/>
<stop offset="1" stop-color="#101010"/>
</linearGradient>
<linearGradient id="paint1_linear_6924_91283" x1="43.5" y1="316.39" x2="109.599" y2="297.922" gradientUnits="userSpaceOnUse">
<stop stop-color="#EECCA2"/>
<stop offset="0.260417" stop-color="#624A2C"/>
<stop offset="0.6875" stop-color="#FFDAAB"/>
<stop offset="1" stop-color="#C68C43"/>
</linearGradient>
<linearGradient id="paint2_linear_6924_91283" x1="247" y1="13.4233" x2="125.508" y2="309.082" gradientUnits="userSpaceOnUse">
<stop stop-color="#060913"/>
<stop offset="0.136764" stop-color="#070A16"/>
<stop offset="0.197268" stop-color="#0D142E"/>
<stop offset="0.309253" stop-color="#070B17"/>
<stop offset="0.490764" stop-color="#080C1A"/>
<stop offset="0.661458" stop-color="#0B1125"/>
<stop offset="1" stop-color="#101010"/>
</linearGradient>
<linearGradient id="paint3_linear_6924_91283" x1="216.5" y1="-13.4063" x2="150.401" y2="5.06151" gradientUnits="userSpaceOnUse">
<stop stop-color="#EECCA2"/>
<stop offset="0.260417" stop-color="#624A2C"/>
<stop offset="0.6875" stop-color="#FFDAAB"/>
<stop offset="1" stop-color="#C68C43"/>
</linearGradient>
<linearGradient id="paint4_linear_6924_91283" x1="184.5" y1="-25.5" x2="1.5" y2="349.5" gradientUnits="userSpaceOnUse">
<stop stop-color="#C68C43"/>
<stop offset="0.119792" stop-color="#F5BA6E"/>
<stop offset="0.286458" stop-color="#C68C43"/>
<stop offset="0.5625" stop-color="#C68C43"/>
<stop offset="0.770833" stop-color="#EEB873"/>
<stop offset="1" stop-color="#C68C43"/>
</linearGradient>
<linearGradient id="paint5_linear_6924_91283" x1="23" y1="59" x2="238" y2="59" gradientUnits="userSpaceOnUse">
<stop stop-color="#8980EB"/>
<stop offset="1" stop-color="#705AB8"/>
</linearGradient>
<linearGradient id="paint6_linear_6924_91283" x1="130.467" y1="161.811" x2="130.467" y2="-71.8638" gradientUnits="userSpaceOnUse">
<stop stop-color="#86759D"/>
<stop offset="0.39" stop-color="#98ABD2"/>
<stop offset="1" stop-color="#DAE1EF"/>
</linearGradient>
<linearGradient id="paint7_linear_6924_91283" x1="30.4297" y1="61.7822" x2="131.894" y2="61.7822" gradientUnits="userSpaceOnUse">
<stop stop-color="#705AB8"/>
<stop offset="1" stop-color="white"/>
</linearGradient>
<linearGradient id="paint8_linear_6924_91283" x1="131.883" y1="61.7822" x2="229.875" y2="61.7822" gradientUnits="userSpaceOnUse">
<stop stop-color="#705AB8"/>
<stop offset="1" stop-color="white"/>
</linearGradient>
<linearGradient id="paint9_linear_6924_91283" x1="68.4453" y1="111.103" x2="131.88" y2="111.103" gradientUnits="userSpaceOnUse">
<stop stop-color="#705AB8"/>
<stop offset="1" stop-color="white"/>
</linearGradient>
<linearGradient id="paint10_linear_6924_91283" x1="130.152" y1="111.103" x2="191.772" y2="111.103" gradientUnits="userSpaceOnUse">
<stop stop-color="#705AB8"/>
<stop offset="1" stop-color="white"/>
</linearGradient>
<linearGradient id="paint11_linear_6924_91283" x1="139.226" y1="-23.1169" x2="154.05" y2="107.959" gradientUnits="userSpaceOnUse">
<stop stop-color="#BFD7FF"/>
<stop offset="1"/>
</linearGradient>
<linearGradient id="paint12_linear_6924_91283" x1="131.883" y1="45.1784" x2="229.875" y2="45.1784" gradientUnits="userSpaceOnUse">
<stop stop-color="#BFD7FF"/>
<stop offset="1"/>
</linearGradient>
<linearGradient id="paint13_linear_6924_91283" x1="172.753" y1="-26.8787" x2="187.577" y2="104.116" gradientUnits="userSpaceOnUse">
<stop stop-color="#BFD7FF"/>
<stop offset="1"/>
</linearGradient>
<linearGradient id="paint14_linear_6924_91283" x1="74.2187" y1="-15.7552" x2="89.0434" y2="115.239" gradientUnits="userSpaceOnUse">
<stop stop-color="#BFD7FF"/>
<stop offset="1"/>
</linearGradient>
<linearGradient id="paint15_linear_6924_91283" x1="68.8477" y1="141.364" x2="192.088" y2="141.364" gradientUnits="userSpaceOnUse">
<stop stop-color="#8980EB"/>
<stop offset="1" stop-color="#705AB8"/>
</linearGradient>
<linearGradient id="paint16_linear_6924_91283" x1="63.5402" y1="188.769" x2="63.5402" y2="159.219" gradientUnits="userSpaceOnUse">
<stop offset="0.21" stop-color="#98ABD2"/>
<stop offset="0.49" stop-color="#72719D"/>
<stop offset="1" stop-color="#DAE1EF"/>
</linearGradient>
<linearGradient id="paint17_linear_6924_91283" x1="67.075" y1="185.821" x2="66.9612" y2="171.957" gradientUnits="userSpaceOnUse">
<stop stop-color="#705AB8"/>
<stop offset="1" stop-color="white"/>
</linearGradient>
<linearGradient id="paint18_linear_6924_91283" x1="68.9688" y1="173.922" x2="80.081" y2="173.922" gradientUnits="userSpaceOnUse">
<stop stop-color="#8980EB"/>
<stop offset="1" stop-color="#705AB8"/>
</linearGradient>
<linearGradient id="paint19_linear_6924_91283" x1="196.444" y1="188.768" x2="196.444" y2="159.219" gradientUnits="userSpaceOnUse">
<stop offset="0.21" stop-color="#98ABD2"/>
<stop offset="0.49" stop-color="#72719D"/>
<stop offset="1" stop-color="#DAE1EF"/>
</linearGradient>
<linearGradient id="paint20_linear_6924_91283" x1="192.912" y1="185.821" x2="193.04" y2="171.957" gradientUnits="userSpaceOnUse">
<stop stop-color="#705AB8"/>
<stop offset="1" stop-color="white"/>
</linearGradient>
<linearGradient id="paint21_linear_6924_91283" x1="191.03" y1="173.922" x2="179.918" y2="173.922" gradientUnits="userSpaceOnUse">
<stop stop-color="#8980EB"/>
<stop offset="1" stop-color="#705AB8"/>
</linearGradient>
<linearGradient id="paint22_linear_6924_91283" x1="130.213" y1="229.349" x2="130.213" y2="111.877" gradientUnits="userSpaceOnUse">
<stop offset="0.21" stop-color="#98ABD2"/>
<stop offset="0.49" stop-color="#72719D"/>
<stop offset="1" stop-color="#DAE1EF"/>
</linearGradient>
<linearGradient id="paint23_linear_6924_91283" x1="130.215" y1="108.376" x2="130.215" y2="215.4" gradientUnits="userSpaceOnUse">
<stop offset="0.21" stop-color="#98ABD2"/>
<stop offset="0.49" stop-color="#72719D"/>
<stop offset="1" stop-color="#DAE1EF"/>
</linearGradient>
<linearGradient id="paint24_linear_6924_91283" x1="80.9073" y1="208.497" x2="80.9073" y2="143.733" gradientUnits="userSpaceOnUse">
<stop stop-color="#705AB8"/>
<stop offset="1" stop-color="white"/>
</linearGradient>
<linearGradient id="paint25_linear_6924_91283" x1="179.307" y1="208.497" x2="179.307" y2="143.733" gradientUnits="userSpaceOnUse">
<stop stop-color="#705AB8"/>
<stop offset="1" stop-color="white"/>
</linearGradient>
<linearGradient id="paint26_linear_6924_91283" x1="90.7799" y1="184.326" x2="116.959" y2="226.82" gradientUnits="userSpaceOnUse">
<stop stop-color="#705AB8"/>
<stop offset="1" stop-color="white"/>
</linearGradient>
<linearGradient id="paint27_linear_6924_91283" x1="149.177" y1="189.678" x2="167.91" y2="245.3" gradientUnits="userSpaceOnUse">
<stop stop-color="#705AB8"/>
<stop offset="1" stop-color="white"/>
</linearGradient>
<linearGradient id="paint28_linear_6924_91283" x1="130.098" y1="219.299" x2="130.098" y2="129.754" gradientUnits="userSpaceOnUse">
<stop stop-color="#705AB8"/>
<stop offset="1" stop-color="white"/>
</linearGradient>
<linearGradient id="paint29_linear_6924_91283" x1="85.8516" y1="145.711" x2="174.564" y2="145.711" gradientUnits="userSpaceOnUse">
<stop stop-color="#8980EB"/>
<stop offset="1" stop-color="#705AB8"/>
</linearGradient>
<linearGradient id="paint30_linear_6924_91283" x1="76.0625" y1="116.973" x2="150.999" y2="116.973" gradientUnits="userSpaceOnUse">
<stop stop-color="#728EE3"/>
<stop offset="1" stop-color="#836888"/>
</linearGradient>
<linearGradient id="paint31_linear_6924_91283" x1="76.0625" y1="192.398" x2="184.364" y2="192.398" gradientUnits="userSpaceOnUse">
<stop stop-color="#728EE3"/>
<stop offset="1" stop-color="#836888"/>
</linearGradient>
<linearGradient id="paint32_linear_6924_91283" x1="154.334" y1="202.019" x2="179.906" y2="202.019" gradientUnits="userSpaceOnUse">
<stop stop-color="#8980EB"/>
<stop offset="1" stop-color="#705AB8"/>
</linearGradient>
<linearGradient id="paint33_linear_6924_91283" x1="86.0477" y1="146.507" x2="88.8542" y2="146.507" gradientUnits="userSpaceOnUse">
<stop stop-color="#8980EB"/>
<stop offset="1" stop-color="#705AB8"/>
</linearGradient>
<linearGradient id="paint34_linear_6924_91283" x1="171.487" y1="145.171" x2="174.094" y2="145.171" gradientUnits="userSpaceOnUse">
<stop stop-color="#8980EB"/>
<stop offset="1" stop-color="#705AB8"/>
</linearGradient>
<linearGradient id="paint35_linear_6924_91283" x1="110.425" y1="108.818" x2="130.271" y2="108.818" gradientUnits="userSpaceOnUse">
<stop stop-color="#8980EB"/>
<stop offset="1" stop-color="#705AB8"/>
</linearGradient>
<linearGradient id="paint36_linear_6924_91283" x1="144.156" y1="167.298" x2="145.607" y2="170.017" gradientUnits="userSpaceOnUse">
<stop stop-color="#8980EB"/>
<stop offset="1" stop-color="#705AB8"/>
</linearGradient>
<linearGradient id="paint37_linear_6924_91283" x1="148.774" y1="167.022" x2="149.864" y2="169.065" gradientUnits="userSpaceOnUse">
<stop stop-color="#8980EB"/>
<stop offset="1" stop-color="#705AB8"/>
</linearGradient>
<linearGradient id="paint38_linear_6924_91283" x1="121.556" y1="103.925" x2="122.909" y2="106.56" gradientUnits="userSpaceOnUse">
<stop stop-color="#8980EB"/>
<stop offset="1" stop-color="#705AB8"/>
</linearGradient>
<linearGradient id="paint39_linear_6924_91283" x1="130.002" y1="122.353" x2="130.002" y2="207.5" gradientUnits="userSpaceOnUse">
<stop offset="0.21" stop-color="#98ABD2"/>
<stop offset="0.49" stop-color="#72719D"/>
<stop offset="1" stop-color="#DAE1EF"/>
</linearGradient>
<linearGradient id="paint40_linear_6924_91283" x1="71.6055" y1="189.581" x2="188.398" y2="189.581" gradientUnits="userSpaceOnUse">
<stop offset="0.21" stop-color="#98ABD2"/>
<stop offset="0.49" stop-color="#72719D"/>
<stop offset="1" stop-color="#DAE1EF"/>
</linearGradient>
<linearGradient id="paint41_linear_6924_91283" x1="130.002" y1="212.654" x2="130.002" y2="177.169" gradientUnits="userSpaceOnUse">
<stop stop-color="#8980EB"/>
<stop offset="1" stop-color="#705AB8"/>
</linearGradient>
<linearGradient id="paint42_linear_6924_91283" x1="119.674" y1="205.877" x2="115.911" y2="161.758" gradientUnits="userSpaceOnUse">
<stop stop-color="#705AB8"/>
<stop offset="1" stop-color="white"/>
</linearGradient>
<linearGradient id="paint43_linear_6924_91283" x1="110.883" y1="165.253" x2="149.733" y2="165.253" gradientUnits="userSpaceOnUse">
<stop stop-color="#8980EB"/>
<stop offset="1" stop-color="#705AB8"/>
</linearGradient>
<linearGradient id="paint44_linear_6924_91283" x1="130.299" y1="183.159" x2="130.299" y2="142.451" gradientUnits="userSpaceOnUse">
<stop stop-color="#86759D"/>
<stop offset="0.39" stop-color="#98ABD2"/>
<stop offset="1" stop-color="#DAE1EF"/>
</linearGradient>
<linearGradient id="paint45_linear_6924_91283" x1="112.219" y1="165.738" x2="130.554" y2="165.738" gradientUnits="userSpaceOnUse">
<stop stop-color="#705AB8"/>
<stop offset="1" stop-color="white"/>
</linearGradient>
<linearGradient id="paint46_linear_6924_91283" x1="130.555" y1="165.738" x2="148.263" y2="165.738" gradientUnits="userSpaceOnUse">
<stop stop-color="#705AB8"/>
<stop offset="1" stop-color="white"/>
</linearGradient>
<linearGradient id="paint47_linear_6924_91283" x1="119.102" y1="174.335" x2="130.556" y2="174.335" gradientUnits="userSpaceOnUse">
<stop stop-color="#705AB8"/>
<stop offset="1" stop-color="white"/>
</linearGradient>
<linearGradient id="paint48_linear_6924_91283" x1="130.242" y1="174.335" x2="141.383" y2="174.335" gradientUnits="userSpaceOnUse">
<stop stop-color="#705AB8"/>
<stop offset="1" stop-color="white"/>
</linearGradient>
<linearGradient id="paint49_linear_6924_91283" x1="131.881" y1="150.948" x2="134.383" y2="173.794" gradientUnits="userSpaceOnUse">
<stop stop-color="#BFD7FF"/>
<stop offset="1"/>
</linearGradient>
<linearGradient id="paint50_linear_6924_91283" x1="130.555" y1="162.848" x2="148.263" y2="162.848" gradientUnits="userSpaceOnUse">
<stop stop-color="#BFD7FF"/>
<stop offset="1"/>
</linearGradient>
<linearGradient id="paint51_linear_6924_91283" x1="137.949" y1="150.294" x2="140.437" y2="173.14" gradientUnits="userSpaceOnUse">
<stop stop-color="#BFD7FF"/>
<stop offset="1"/>
</linearGradient>
<linearGradient id="paint52_linear_6924_91283" x1="120.126" y1="152.23" x2="122.614" y2="175.075" gradientUnits="userSpaceOnUse">
<stop stop-color="#BFD7FF"/>
<stop offset="1"/>
</linearGradient>
<linearGradient id="paint53_linear_6924_91283" x1="119.16" y1="179.602" x2="141.442" y2="179.602" gradientUnits="userSpaceOnUse">
<stop stop-color="#8980EB"/>
<stop offset="1" stop-color="#705AB8"/>
</linearGradient>
<linearGradient id="paint54_linear_6924_91283" x1="112.219" y1="168.072" x2="130.554" y2="168.072" gradientUnits="userSpaceOnUse">
<stop stop-color="#8980EB"/>
<stop offset="1" stop-color="#705AB8"/>
</linearGradient>
<linearGradient id="paint55_linear_6924_91283" x1="130.555" y1="168.655" x2="148.263" y2="168.655" gradientUnits="userSpaceOnUse">
<stop stop-color="#8980EB"/>
<stop offset="1" stop-color="#705AB8"/>
</linearGradient>
<linearGradient id="paint56_linear_6924_91283" x1="119.16" y1="174.335" x2="141.442" y2="174.335" gradientUnits="userSpaceOnUse">
<stop stop-color="#8980EB"/>
<stop offset="1" stop-color="#705AB8"/>
</linearGradient>
<linearGradient id="paint57_linear_6924_91283" x1="110.883" y1="128.331" x2="149.733" y2="128.331" gradientUnits="userSpaceOnUse">
<stop stop-color="#8980EB"/>
<stop offset="1" stop-color="#705AB8"/>
</linearGradient>
<linearGradient id="paint58_linear_6924_91283" x1="130.299" y1="146.252" x2="130.299" y2="105.543" gradientUnits="userSpaceOnUse">
<stop stop-color="#86759D"/>
<stop offset="0.39" stop-color="#98ABD2"/>
<stop offset="1" stop-color="#DAE1EF"/>
</linearGradient>
<linearGradient id="paint59_linear_6924_91283" x1="112.219" y1="128.816" x2="130.554" y2="128.816" gradientUnits="userSpaceOnUse">
<stop stop-color="#705AB8"/>
<stop offset="1" stop-color="white"/>
</linearGradient>
<linearGradient id="paint60_linear_6924_91283" x1="130.555" y1="128.816" x2="148.263" y2="128.816" gradientUnits="userSpaceOnUse">
<stop stop-color="#705AB8"/>
<stop offset="1" stop-color="white"/>
</linearGradient>
<linearGradient id="paint61_linear_6924_91283" x1="119.102" y1="137.414" x2="130.556" y2="137.414" gradientUnits="userSpaceOnUse">
<stop stop-color="#705AB8"/>
<stop offset="1" stop-color="white"/>
</linearGradient>
<linearGradient id="paint62_linear_6924_91283" x1="130.242" y1="137.414" x2="141.383" y2="137.414" gradientUnits="userSpaceOnUse">
<stop stop-color="#705AB8"/>
<stop offset="1" stop-color="white"/>
</linearGradient>
<linearGradient id="paint63_linear_6924_91283" x1="131.881" y1="114.041" x2="134.383" y2="136.872" gradientUnits="userSpaceOnUse">
<stop stop-color="#BFD7FF"/>
<stop offset="1"/>
</linearGradient>
<linearGradient id="paint64_linear_6924_91283" x1="130.555" y1="125.926" x2="148.263" y2="125.926" gradientUnits="userSpaceOnUse">
<stop stop-color="#BFD7FF"/>
<stop offset="1"/>
</linearGradient>
<linearGradient id="paint65_linear_6924_91283" x1="137.949" y1="113.372" x2="140.437" y2="136.218" gradientUnits="userSpaceOnUse">
<stop stop-color="#BFD7FF"/>
<stop offset="1"/>
</linearGradient>
<linearGradient id="paint66_linear_6924_91283" x1="120.126" y1="115.322" x2="122.614" y2="138.154" gradientUnits="userSpaceOnUse">
<stop stop-color="#BFD7FF"/>
<stop offset="1"/>
</linearGradient>
<linearGradient id="paint67_linear_6924_91283" x1="119.16" y1="142.678" x2="141.442" y2="142.678" gradientUnits="userSpaceOnUse">
<stop stop-color="#8980EB"/>
<stop offset="1" stop-color="#705AB8"/>
</linearGradient>
<linearGradient id="paint68_linear_6924_91283" x1="112.219" y1="131.164" x2="130.554" y2="131.164" gradientUnits="userSpaceOnUse">
<stop stop-color="#8980EB"/>
<stop offset="1" stop-color="#705AB8"/>
</linearGradient>
<linearGradient id="paint69_linear_6924_91283" x1="130.555" y1="131.734" x2="148.263" y2="131.734" gradientUnits="userSpaceOnUse">
<stop stop-color="#8980EB"/>
<stop offset="1" stop-color="#705AB8"/>
</linearGradient>
<linearGradient id="paint70_linear_6924_91283" x1="119.16" y1="137.414" x2="141.442" y2="137.414" gradientUnits="userSpaceOnUse">
<stop stop-color="#8980EB"/>
<stop offset="1" stop-color="#705AB8"/>
</linearGradient>
<linearGradient id="paint71_linear_6924_91283" x1="84.5" y1="60.5" x2="32.0032" y2="111.503" gradientUnits="userSpaceOnUse">
<stop stop-color="white" stop-opacity="0"/>
<stop offset="0.440223" stop-color="white"/>
<stop offset="1" stop-color="white" stop-opacity="0"/>
</linearGradient>
</defs>
</svg>
