<svg width="23" height="23" viewBox="0 0 23 23" fill="none" xmlns="http://www.w3.org/2000/svg">
<path d="M3.5 16.5L2 18.5H12.5L20 19L21.5 18.5L18.5 13V9.5L18 5.5L15.5 3L12 2L7.5 2.5L5 6L4.5 12.5L3.5 16.5Z" fill="white"/>
<path d="M19.0289 9.69713C19.0289 3.8513 15.8844 1.86276 12.9435 1.41953C12.9435 1.38958 12.9495 1.35964 12.9495 1.3237C12.9495 0.586979 12.2966 0 11.5 0C10.7034 0 10.0745 0.586979 10.0745 1.3237C10.0745 1.35964 10.0745 1.38958 10.0805 1.41953C7.13359 1.86875 3.97109 3.86328 3.97109 9.70912C3.97109 16.5253 2.27604 17.256 0 19.1727H23C20.7359 17.25 19.0289 16.5133 19.0289 9.69713ZM2.5875 18.2083C3.1026 17.6693 3.56979 17.1063 3.94713 16.3036C4.66588 14.7883 4.98932 12.7578 4.98932 9.70312C4.98932 6.92396 5.73802 4.8875 7.21146 3.64167C8.58307 2.48568 10.3081 2.24609 11.512 2.24609C12.7159 2.24609 14.4409 2.48568 15.8005 3.64167C17.268 4.88151 18.0167 6.90599 18.0167 9.68516C18.0167 14.7044 18.9091 16.7109 20.4305 18.2083H2.5875ZM11.512 23C13.1172 23 14.4349 21.8081 14.6086 20.4245H8.41536C8.58307 21.8081 9.90677 23 11.512 23Z" fill="white"/>
</svg>
