<svg width="23" height="23" viewBox="0 0 23 23" fill="none" xmlns="http://www.w3.org/2000/svg">
<path d="M1.36561 18.0389L1.08594 6.45898L11.2871 10.6188L11.5668 22.1987L1.36561 18.0389Z" stroke="white" stroke-linejoin="round"/>
<path d="M21.5609 17.5486L21.2812 5.96875L11.2928 10.6162L11.5724 22.1961L21.5609 17.5486Z" stroke="white" stroke-linejoin="round"/>
<path d="M1.10159 6.45423L4.4864 4.94697M21.2913 5.96661L17.3607 4.57457M8.59653 3.11674L11.0948 2.00424L13.6439 2.99483" stroke="white" stroke-linejoin="round"/>
<path d="M11.1922 6.20953C7.98718 6.28694 1.81623 5.12966 4.01001 2.22397C6.09953 -0.543645 9.6886 3.47522 11.1922 6.20953Z" stroke="white"/>
<path d="M11.1922 6.20953C14.0411 6.14072 19.4669 4.70337 17.3868 1.90089C15.4055 -0.768403 12.4024 3.40968 11.1922 6.20953Z" stroke="white"/>
</svg>
