<svg width="25" height="20" viewBox="0 0 25 20" fill="none" xmlns="http://www.w3.org/2000/svg">
<path d="M9.9736 14.4531C9.56733 15.788 9.36419 17.2631 9.36419 18.8785C9.36419 19.159 9.59156 19.3864 9.87203 19.3864H14.1814C14.558 19.3864 14.8634 19.0811 14.8634 18.7044C14.8634 16.9343 15.0762 15.3043 15.5018 13.8147C15.9371 12.325 16.7641 10.579 17.9829 8.57669C18.1184 8.35421 18.3215 8.03016 18.5923 7.60454C20.2658 4.95411 21.1025 3.03884 21.1025 1.85872C21.1025 1.60737 20.9313 1.38821 20.6833 1.34732C20.2365 1.27366 19.5544 1.20896 19.2639 1.43081C18.814 1.77432 18.6802 1.9864 18.4037 2.20695C18.1812 2.39074 17.8717 2.48263 17.4751 2.48263C17.1462 2.48263 16.3917 2.25048 15.2116 1.78617C14.0411 1.31219 13.0158 1.0752 12.1355 1.0752C11.265 1.0752 10.4911 1.26866 9.81399 1.65558C9.13687 2.04251 8.49361 2.65191 7.88421 3.4838V2.64949C7.88421 1.90023 7.27681 1.29284 6.52755 1.29284C5.77829 1.29284 5.1709 1.90023 5.1709 2.64949V8.37343C5.1709 9.10273 5.76211 9.69393 6.4914 9.69393H6.79443C7.38667 9.69393 7.85771 9.19711 7.82617 8.60571V7.38391C7.82617 7.38391 8.94825 6.57137 9.85752 6.57137C10.1767 6.57137 10.7474 6.65843 11.5697 6.83254C12.4015 6.99698 13.069 7.07921 13.572 7.07921C14.133 7.07921 14.6457 7.026 15.11 6.9196C15.5743 6.8132 16.4014 6.42627 16.4014 6.42627C16.4014 6.42627 15.2986 7.2418 14.0798 8.43159C12.861 9.61171 12.1114 10.3904 11.8308 10.7676C10.9989 11.8801 10.3799 13.1085 9.9736 14.4531Z" stroke="white" stroke-linejoin="round"/>
<path d="M20.1554 14.0067C20.3059 14.0807 20.4485 14.1451 20.5818 14.1979C20.5552 14.213 20.5284 14.2282 20.5012 14.2434C19.9931 14.526 19.6292 14.7419 19.461 14.8748C19.0317 15.2128 18.6712 15.6169 18.381 16.0847C18.0923 16.5482 17.8715 17.0766 17.7139 17.6645C17.617 18.0263 17.8317 18.3983 18.1935 18.4952L19.6548 18.8868C20.0493 18.9925 20.4547 18.7584 20.5604 18.3639C20.7107 17.8029 20.9139 17.314 21.1662 16.8929C21.418 16.4789 21.8234 15.9966 22.4007 15.4454C22.4631 15.3858 22.5585 15.2971 22.6884 15.1779L22.6897 15.1767C23.1042 14.7938 23.4404 14.4449 23.6907 14.1313C23.9344 13.8259 24.1264 13.5181 24.2066 13.2186L24.2099 13.2062L24.2126 13.1937C24.2915 12.8244 24.0673 12.458 23.7025 12.3602L23.4486 12.2922C23.1785 12.2198 22.9509 12.3103 22.827 12.3701C22.7712 12.3971 22.7164 12.4281 22.6784 12.4497C22.6735 12.4524 22.669 12.455 22.6647 12.4574C22.6335 12.475 22.6124 12.4866 22.5961 12.4947C22.5911 12.4939 22.5848 12.4927 22.577 12.4909C22.5732 12.4892 22.5669 12.4862 22.5579 12.4816C22.5318 12.4682 22.494 12.4468 22.4429 12.4148C22.3412 12.3509 22.205 12.2567 22.0319 12.1287C21.6479 11.8392 21.2643 11.6278 20.8836 11.5258C20.5144 11.4269 20.1454 11.4168 19.787 11.5111C19.7154 11.53 19.6444 11.5528 19.5741 11.5795C19.4518 11.3466 19.2363 11.1635 18.9622 11.0901C18.4414 10.9505 17.9061 11.2596 17.7666 11.7804L17.2465 13.7213C17.1088 14.2354 17.4138 14.7637 17.9278 14.9014L18.0306 14.929C18.5029 15.0555 18.9846 14.7647 19.0943 14.2905C19.1793 13.9787 19.2831 13.8567 19.344 13.8139L19.344 13.814L19.3476 13.8114C19.3918 13.7797 19.4797 13.7405 19.6898 13.7968C19.7408 13.8105 19.883 13.8682 20.1494 14.0037L20.1493 14.0037L20.1554 14.0067Z" stroke="white"/>
<path d="M4.1633 14.2206C4.33063 14.2094 4.48636 14.1939 4.62821 14.173C4.61273 14.1994 4.59705 14.2259 4.58117 14.2527C4.28239 14.7515 4.07525 15.1204 3.99598 15.3196C3.79316 15.827 3.68308 16.3571 3.66561 16.9074C3.6473 17.4531 3.7203 18.0212 3.87783 18.6091C3.97478 18.9709 4.3467 19.1857 4.70854 19.0887L6.16981 18.6972C6.56425 18.5915 6.79834 18.186 6.69264 17.7916C6.54231 17.2305 6.47386 16.7056 6.48179 16.2147C6.49288 15.7303 6.60273 15.1099 6.82714 14.3439C6.85141 14.2611 6.88964 14.1365 6.94256 13.9684L6.94308 13.9667C7.11058 13.4279 7.22726 12.9576 7.28725 12.5609C7.34567 12.1745 7.35795 11.812 7.2777 11.5125L7.27438 11.5001L7.27044 11.4879C7.15414 11.1286 6.77672 10.9234 6.41193 11.0212L6.15808 11.0892C5.8879 11.1616 5.73607 11.3537 5.65869 11.4674C5.62382 11.5187 5.59191 11.573 5.56976 11.6107C5.56694 11.6155 5.56428 11.62 5.56178 11.6242C5.5436 11.6551 5.53103 11.6757 5.52104 11.6908C5.51629 11.6926 5.5102 11.6948 5.50258 11.6971C5.49842 11.6975 5.4915 11.6981 5.4814 11.6986C5.45205 11.7001 5.40863 11.7004 5.3484 11.6982C5.22833 11.6937 5.06332 11.6802 4.84937 11.656C4.37208 11.5972 3.93423 11.606 3.55352 11.708C3.18426 11.8069 2.85968 11.9827 2.59647 12.2435C2.54388 12.2957 2.49384 12.351 2.44625 12.4092C2.22391 12.2687 1.94579 12.2179 1.67168 12.2913C1.15088 12.4309 0.841818 12.9662 0.981365 13.487L1.50144 15.4279C1.63917 15.9419 2.16753 16.247 2.68156 16.1092L2.78431 16.0817C3.25659 15.9552 3.52834 15.4625 3.38628 14.997C3.30396 14.6844 3.33286 14.5269 3.36422 14.4594L3.36423 14.4594L3.36606 14.4553C3.38853 14.4058 3.44505 14.3279 3.65512 14.2717C3.70613 14.258 3.85815 14.2368 4.15656 14.221L4.15656 14.221L4.1633 14.2206Z" stroke="white"/>
<path d="M18.8046 16.3487C18.5456 16.7644 18.3427 17.2462 18.1959 17.7939C18.1704 17.889 18.2269 17.9868 18.322 18.0123L19.7832 18.4038C19.911 18.438 20.0422 18.3622 20.0764 18.2345C20.2373 17.6343 20.4575 17.1009 20.7372 16.6345C21.0202 16.1689 21.4592 15.652 22.0545 15.0837C22.1206 15.0206 22.2189 14.9292 22.3494 14.8095C23.1577 14.0628 23.6154 13.4894 23.7227 13.0892C23.746 12.9802 23.6798 12.872 23.5721 12.8432L23.3183 12.7752C23.1296 12.7246 22.9549 12.8839 22.7759 12.9621C22.6837 13.0042 22.5704 13.0072 22.436 12.9712C22.3244 12.9413 22.0897 12.794 21.7317 12.5293C21.3779 12.2623 21.0517 12.0888 20.7532 12.0088C20.458 11.9297 20.1781 11.925 19.9133 11.9946C19.6485 12.0643 19.375 12.2125 19.0928 12.4392L19.1686 12.1563C19.2367 11.9023 19.0859 11.6411 18.8319 11.573C18.5778 11.505 18.3166 11.6557 18.2486 11.9098L17.7285 13.8507C17.6622 14.098 17.809 14.3522 18.0563 14.4185L18.159 14.446C18.3599 14.4998 18.5647 14.3742 18.6078 14.1708C18.7071 13.8001 18.8563 13.5448 19.0556 13.4048C19.2557 13.2616 19.5099 13.2313 19.8182 13.3139C19.9264 13.3429 20.1121 13.4242 20.375 13.558C20.6422 13.6893 20.861 13.7779 21.0316 13.8236C21.2218 13.8745 21.4005 13.9031 21.5676 13.9092C21.7347 13.9153 21.8957 13.8986 22.0503 13.8592C21.7009 14.1136 21.2655 14.3872 20.7441 14.6799C20.2236 14.9693 19.8987 15.1653 19.7693 15.2677C19.3861 15.5693 19.0646 15.9296 18.8046 16.3487Z" fill="white" fill-opacity="0.3"/>
<path d="M4.16534 16.9232C4.14886 17.4128 4.21401 17.9314 4.36079 18.4792C4.38627 18.5743 4.48403 18.6307 4.57913 18.6053L6.0404 18.2137C6.16811 18.1795 6.2439 18.0482 6.20968 17.9205C6.04884 17.3202 5.97291 16.7482 5.98189 16.2044C5.99414 15.6597 6.11595 14.9926 6.3473 14.2028C6.37301 14.1151 6.41245 13.9868 6.46562 13.8178C6.79225 12.767 6.90196 12.0416 6.79473 11.6414C6.76041 11.5353 6.64901 11.4748 6.54134 11.5036L6.28749 11.5717C6.09881 11.6222 6.02721 11.8475 5.91124 12.0047C5.85249 12.0872 5.75588 12.1465 5.6214 12.1825C5.50988 12.2124 5.23294 12.2023 4.79059 12.152C4.35063 12.0977 3.98142 12.1105 3.68293 12.1904C3.38773 12.2695 3.1429 12.4055 2.94845 12.5982C2.754 12.7909 2.59125 13.056 2.46019 13.3934L2.38438 13.1105C2.31631 12.8565 2.05516 12.7057 1.80109 12.7738C1.54703 12.8419 1.39625 13.103 1.46433 13.3571L1.9844 15.298C2.05066 15.5453 2.30485 15.6921 2.55215 15.6258L2.6549 15.5983C2.85573 15.5444 2.97031 15.3332 2.90588 15.1355C2.80657 14.7649 2.80818 14.4691 2.91072 14.2483C3.01239 14.0242 3.21738 13.8708 3.52571 13.7882C3.63395 13.7592 3.83538 13.7369 4.13001 13.7212C4.42704 13.7014 4.66083 13.6686 4.83139 13.6229C5.02164 13.5719 5.19065 13.5073 5.33842 13.429C5.4862 13.3508 5.61722 13.2559 5.73148 13.1444C5.55609 13.5395 5.3158 13.9941 5.01062 14.5083C4.70455 15.0192 4.5211 15.3513 4.46025 15.5047C4.27924 15.9575 4.18094 16.4304 4.16534 16.9232Z" fill="white" fill-opacity="0.3"/>
</svg>
