<svg width="26" height="20" viewBox="0 0 26 20" fill="none" xmlns="http://www.w3.org/2000/svg">
<path d="M10.2754 14.2312C9.86908 15.5661 9.66595 17.0412 9.66595 18.6566C9.66595 18.9371 9.89332 19.1645 10.1738 19.1645H14.4832C14.8598 19.1645 15.1651 18.8591 15.1651 18.4825C15.1651 16.7123 15.3779 15.0824 15.8035 13.5928C16.2388 12.1031 17.0659 10.3571 18.2847 8.35477C18.4201 8.13229 18.6232 7.80824 18.8941 7.38262C20.5675 4.73219 21.4043 2.81691 21.4043 1.63679C21.4043 1.38544 21.233 1.16628 20.985 1.12539C20.5383 1.05173 19.8561 0.987039 19.5656 1.20888C19.1158 1.55239 18.9819 1.76448 18.7055 1.98503C18.483 2.16881 18.1734 2.26071 17.7768 2.26071C17.448 2.26071 16.6935 2.02855 15.5133 1.56424C14.3429 1.09026 13.3175 0.853271 12.4373 0.853271C11.5667 0.853271 10.7929 1.04673 10.1157 1.43366C9.43863 1.82058 8.79537 2.42999 8.18596 3.26188V2.42757C8.18596 1.67831 7.57857 1.07092 6.82931 1.07092C6.08005 1.07092 5.47266 1.67831 5.47266 2.42757V8.15151C5.47266 8.8808 6.06386 9.47201 6.79316 9.47201H7.09619C7.68843 9.47201 8.15947 8.97519 8.12792 8.38379V7.16199C8.12792 7.16199 9.25 6.34944 10.1593 6.34944C10.4785 6.34944 11.0492 6.4365 11.8714 6.61062C12.7033 6.77506 13.3707 6.85728 13.8738 6.85728C14.4348 6.85728 14.9475 6.80408 15.4118 6.69768C15.8761 6.59127 16.7031 6.20435 16.7031 6.20435C16.7031 6.20435 15.6004 7.01988 14.3816 8.20967C13.1628 9.38979 12.4131 10.1685 12.1326 10.5457C11.3007 11.6581 10.6816 12.8866 10.2754 14.2312Z" stroke="#C68C43" stroke-linejoin="round"/>
<path d="M20.4572 13.7845C20.6077 13.8585 20.7503 13.923 20.8836 13.9758C20.857 13.9909 20.8301 14.006 20.803 14.0213C20.2949 14.3038 19.931 14.5198 19.7627 14.6527C19.3334 14.9906 18.973 15.3947 18.6828 15.8625C18.394 16.326 18.1732 16.8544 18.0157 17.4423C17.9187 17.8042 18.1335 18.1761 18.4953 18.2731L19.9566 18.6646C20.351 18.7703 20.7565 18.5362 20.8621 18.1418C21.0125 17.5807 21.2157 17.0919 21.468 16.6707C21.7198 16.2567 22.1251 15.7744 22.7025 15.2232C22.7649 15.1636 22.8603 15.0749 22.9901 14.9558L22.9915 14.9546C23.4059 14.5717 23.7421 14.2227 23.9924 13.9092C24.2362 13.6038 24.4281 13.2959 24.5084 12.9964L24.5117 12.9841L24.5144 12.9715C24.5933 12.6022 24.369 12.2358 24.0042 12.1381L23.7504 12.07C23.4802 11.9976 23.2527 12.0881 23.1288 12.1479C23.0729 12.1749 23.0182 12.2059 22.9801 12.2275C22.9753 12.2303 22.9707 12.2329 22.9665 12.2353C22.9353 12.2529 22.9141 12.2644 22.8979 12.2725C22.8929 12.2718 22.8865 12.2706 22.8788 12.2687C22.875 12.267 22.8687 12.2641 22.8597 12.2595C22.8335 12.2461 22.7958 12.2246 22.7447 12.1926C22.6429 12.1287 22.5068 12.0345 22.3336 11.9066C21.9497 11.617 21.5661 11.4057 21.1854 11.3036C20.8161 11.2047 20.4471 11.1946 20.0888 11.2889C20.0172 11.3078 19.9462 11.3307 19.8758 11.3573C19.7536 11.1244 19.5381 10.9414 19.264 10.8679C18.7432 10.7284 18.2079 11.0374 18.0683 11.5582L17.5483 13.4992C17.4105 14.0132 17.7156 14.5415 18.2296 14.6793L18.3324 14.7068C18.8046 14.8334 19.2863 14.5426 19.3961 14.0684C19.4811 13.7565 19.5848 13.6346 19.6457 13.5918L19.6458 13.5918L19.6494 13.5892C19.6936 13.5576 19.7815 13.5184 19.9915 13.5747C20.0425 13.5883 20.1848 13.646 20.4511 13.7815L20.4511 13.7815L20.4572 13.7845Z" stroke="#C68C43"/>
<path d="M4.46506 13.9984C4.63239 13.9872 4.78812 13.9718 4.92997 13.9508C4.91449 13.9772 4.8988 14.0038 4.88293 14.0305C4.58414 14.5293 4.37701 14.8982 4.29774 15.0975C4.09491 15.6048 3.98483 16.135 3.96736 16.6852C3.94905 17.231 4.02206 17.799 4.17958 18.3869C4.27654 18.7488 4.64846 18.9635 5.0103 18.8665L6.47157 18.475C6.86601 18.3693 7.10009 17.9639 6.9944 17.5694C6.84407 17.0084 6.77561 16.4834 6.78355 15.9926C6.79464 15.5081 6.90449 14.8877 7.12889 14.1217C7.15316 14.0389 7.1914 13.9144 7.24431 13.7463L7.24484 13.7446C7.41234 13.2057 7.52902 12.7354 7.58901 12.3387C7.64743 11.9524 7.6597 11.5898 7.57945 11.2903L7.57614 11.2779L7.57219 11.2657C7.45589 10.9064 7.07848 10.7012 6.71369 10.799L6.45984 10.867C6.18966 10.9394 6.03783 11.1315 5.96045 11.2453C5.92557 11.2965 5.89367 11.3508 5.87152 11.3885C5.8687 11.3933 5.86603 11.3978 5.86354 11.4021C5.84536 11.4329 5.83279 11.4535 5.8228 11.4686C5.81805 11.4705 5.81195 11.4726 5.80434 11.4749C5.80018 11.4753 5.79326 11.4759 5.78316 11.4764C5.75381 11.4779 5.71039 11.4782 5.65016 11.476C5.53009 11.4716 5.36508 11.4581 5.15113 11.4338C4.67384 11.3751 4.23599 11.3838 3.85528 11.4858C3.48602 11.5847 3.16143 11.7605 2.89823 12.0214C2.84563 12.0735 2.7956 12.1288 2.748 12.1871C2.52567 12.0465 2.24755 11.9957 1.97344 12.0691C1.45264 12.2087 1.14358 12.744 1.28312 13.2648L1.80319 15.2057C1.94093 15.7198 2.46929 16.0248 2.98332 15.8871L3.08607 15.8595C3.55835 15.733 3.8301 15.2403 3.68804 14.7748C3.60572 14.4622 3.63461 14.3047 3.66597 14.2372L3.66599 14.2372L3.66782 14.2332C3.69029 14.1836 3.74681 14.1058 3.95688 14.0495C4.00789 14.0358 4.15991 14.0147 4.45831 13.9988L4.45832 13.9989L4.46506 13.9984Z" stroke="#C68C43"/>
<path d="M19.1064 16.1267C18.8474 16.5425 18.6444 17.0242 18.4977 17.572C18.4722 17.6671 18.5286 17.7649 18.6237 17.7903L20.085 18.1819C20.2127 18.2161 20.344 18.1403 20.3782 18.0126C20.539 17.4124 20.7593 16.879 21.039 16.4125C21.3219 15.947 21.761 15.4301 22.3562 14.8618C22.4224 14.7987 22.5207 14.7073 22.6512 14.5875C23.4595 13.8409 23.9172 13.2674 24.0244 12.8673C24.0477 12.7583 23.9815 12.6501 23.8739 12.6213L23.62 12.5532C23.4313 12.5027 23.2567 12.662 23.0776 12.7401C22.9855 12.7822 22.8722 12.7853 22.7377 12.7492C22.6262 12.7194 22.3914 12.5721 22.0335 12.3074C21.6796 12.0404 21.3535 11.8668 21.055 11.7869C20.7598 11.7078 20.4798 11.703 20.2151 11.7727C19.9503 11.8424 19.6768 11.9906 19.3946 12.2173L19.4704 11.9344C19.5385 11.6803 19.3877 11.4192 19.1336 11.3511C18.8795 11.283 18.6184 11.4338 18.5503 11.6879L18.0302 13.6288C17.964 13.8761 18.1107 14.1303 18.358 14.1966L18.4608 14.2241C18.6616 14.2779 18.8665 14.1522 18.9095 13.9488C19.0088 13.5782 19.1581 13.3229 19.3573 13.1829C19.5574 13.0396 19.8116 13.0093 20.12 13.0919C20.2282 13.1209 20.4138 13.2023 20.6768 13.3361C20.9439 13.4674 21.1628 13.5559 21.3334 13.6016C21.5236 13.6526 21.7023 13.6812 21.8694 13.6873C22.0365 13.6934 22.1974 13.6767 22.3521 13.6373C22.0027 13.8917 21.5673 14.1653 21.0459 14.458C20.5254 14.7474 20.2004 14.9434 20.071 15.0458C19.6879 15.3474 19.3663 15.7077 19.1064 16.1267Z" fill="#C68C43" fill-opacity="0.3"/>
<path d="M4.4671 16.7013C4.45062 17.1908 4.51577 17.7095 4.66255 18.2573C4.68803 18.3524 4.78579 18.4088 4.88089 18.3833L6.34216 17.9918C6.46987 17.9576 6.54566 17.8263 6.51144 17.6986C6.3506 17.0983 6.27467 16.5263 6.28364 15.9825C6.2959 15.4378 6.4177 14.7706 6.64906 13.9809C6.67477 13.8932 6.71421 13.7648 6.76738 13.5959C7.09401 12.5451 7.20372 11.8196 7.09649 11.4195C7.06217 11.3134 6.95077 11.2529 6.8431 11.2817L6.58925 11.3497C6.40057 11.4003 6.32897 11.6256 6.213 11.7828C6.15425 11.8653 6.05764 11.9246 5.92316 11.9606C5.81164 11.9905 5.5347 11.9803 5.09234 11.9301C4.65239 11.8757 4.28317 11.8885 3.98469 11.9685C3.68948 12.0476 3.44466 12.1835 3.25021 12.3763C3.05576 12.569 2.89301 12.8341 2.76195 13.1715L2.68614 12.8886C2.61807 12.6346 2.35692 12.4838 2.10285 12.5519C1.84878 12.6199 1.69801 12.8811 1.76609 13.1351L2.28616 15.0761C2.35242 15.3234 2.60661 15.4701 2.85391 15.4039L2.95666 15.3763C3.15748 15.3225 3.27207 15.1113 3.20764 14.9136C3.10832 14.5429 3.10994 14.2472 3.21248 14.0264C3.31415 13.8023 3.51914 13.6489 3.82747 13.5663C3.93571 13.5373 4.13714 13.5149 4.43177 13.4993C4.72879 13.4795 4.96259 13.4467 5.13315 13.401C5.32339 13.35 5.4924 13.2854 5.64018 13.2071C5.78795 13.1289 5.91897 13.034 6.03324 12.9225C5.85785 13.3175 5.61756 13.7722 5.31237 14.2863C5.00631 14.7973 4.82286 15.1294 4.76201 15.2828C4.581 15.7356 4.4827 16.2084 4.4671 16.7013Z" fill="#C68C43" fill-opacity="0.3"/>
</svg>
