<svg width="25" height="25" viewBox="0 0 25 25" fill="none" xmlns="http://www.w3.org/2000/svg">
<path d="M12.5203 0.218362C5.95158 0.218363 0.626562 5.54338 0.626563 12.1121C0.626564 18.6808 5.95158 24.0059 12.5203 24.0059C19.0891 24.0059 24.4141 18.6808 24.4141 12.1121C24.4141 5.54338 19.089 0.218361 12.5203 0.218362Z" fill="black"/>
<path d="M21.5005 11.1937C21.5314 11.4998 21.5469 11.8071 21.5469 12.1147C21.5477 13.5257 21.2172 14.9171 20.582 16.177C19.9468 17.4369 19.0247 18.5301 17.8899 19.3685C17.4446 19.9705 16.0214 21.6897 13.4356 22.9931L14.2288 23.8887C19.2057 23.1733 23.1883 19.378 24.1797 14.4954L23.0465 15.2796C23.0465 15.2796 22.425 12.8875 21.5005 11.1937Z" fill="#ffffff"/>
<path d="M16.3672 20.2808C16.099 20.4073 15.8239 20.5206 15.542 20.6208C13.1249 22.2831 11.1991 22.7563 11.1991 22.7563L12.2084 24.0058C12.3132 24.0058 12.4181 24.0098 12.5239 24.0098L12.6028 24.0098L11.7262 22.8367C13.5872 22.1992 15.2844 21.0865 16.3672 20.2808Z" fill="#ffffff"/>
<path d="M3.54493 13.0352C3.51408 12.7291 3.49858 12.4217 3.4985 12.1141C3.49748 10.7029 3.82787 9.3112 4.46308 8.05103C5.09828 6.79085 6.02054 5.69746 7.15558 4.85889C7.60036 4.25687 9.02406 2.53765 11.6094 1.23426L10.8167 0.340204C8.39331 0.69242 6.13753 1.78336 4.35679 3.46432C2.57605 5.14527 1.35699 7.33447 0.865764 9.7335L1.99893 8.94927C1.99893 8.94927 2.62043 11.3414 3.54493 13.0352Z" fill="#ffffff"/>
<path d="M8.67952 3.94727C8.94873 3.82025 9.22413 3.70679 9.50469 3.60732C11.9218 1.94451 13.8477 1.47127 13.8477 1.47127L12.8388 0.223295C12.734 0.220965 12.6288 0.219633 12.5233 0.219301L12.4444 0.219301L13.321 1.3924C11.4575 2.02887 9.75977 3.14107 8.67952 3.94727Z" fill="#ffffff"/>
<path d="M13.4414 21.0923C13.1354 21.1232 12.828 21.1387 12.5204 21.1387C11.1092 21.1398 9.71745 20.8094 8.45728 20.1742C7.1971 19.539 6.10371 18.6167 5.26514 17.4817C4.66311 17.0364 2.9439 15.6127 1.64051 13.0274L0.746453 13.8206C1.4618 18.7975 5.25715 22.7801 10.1398 23.7715L9.35552 22.6383C9.35552 22.6383 11.7476 22.0168 13.4414 21.0923Z" fill="#ffffff"/>
<path d="M0.627503 12.1931L1.8006 11.3165C2.43707 13.1795 3.54778 14.8772 4.35547 15.959C4.22934 15.6908 4.11602 15.4157 4.01552 15.1338C2.35271 12.7167 1.87948 10.7909 1.87948 10.7909L0.631498 11.7997C0.631498 11.9045 0.627503 12.0094 0.627503 12.1152C0.626505 12.1407 0.627004 12.1666 0.627503 12.1931Z" fill="#ffffff"/>
<path d="M11.6019 3.13477C11.908 3.10392 12.2153 3.08843 12.5229 3.08835C13.9339 3.08756 15.3253 3.41807 16.5852 4.05326C17.8451 4.68845 18.9383 5.61059 19.7767 6.74543C20.3787 7.19021 22.0979 8.6139 23.4013 11.1992L24.2969 10.4065C23.9447 7.98316 22.8537 5.72738 21.1728 3.94664C19.4918 2.16589 17.3026 0.946831 14.9036 0.455609L15.6878 1.58878C15.6878 1.58878 13.2957 2.21027 11.6019 3.13477Z" fill="#ffffff"/>
<path d="M20.689 8.27132C20.8155 8.53955 20.9288 8.81461 21.029 9.09648C22.6913 11.5136 23.1645 13.4395 23.1645 13.4395L24.414 12.4301C24.4166 12.3253 24.418 12.2201 24.418 12.1146C24.418 12.0881 24.418 12.0622 24.418 12.0357L23.2449 12.9123C22.6074 11.0493 21.4947 9.35157 20.689 8.27132Z" fill="#ffffff"/>
<circle cx="12.5233" cy="12.1132" r="8.37316" transform="rotate(180 12.5233 12.1132)" stroke="white" stroke-width="0.113253"/>
</svg>
