<svg width="20" height="21" viewBox="0 0 20 21" fill="none" xmlns="http://www.w3.org/2000/svg">
<g filter="url(#filter0_d_256_6455)">
<path d="M10.178 0.959966C5.05896 0.959966 0.909182 5.10975 0.909183 10.2288C0.909183 15.3478 5.05897 19.4976 10.178 19.4976C15.297 19.4976 19.4468 15.3478 19.4468 10.2288C19.4468 5.10975 15.297 0.959965 10.178 0.959966Z" fill="black"/>
<path d="M17.1773 9.51308C17.2013 9.75157 17.2134 9.99112 17.2134 10.2308C17.2141 11.3304 16.9565 12.4147 16.4615 13.3966C15.9665 14.3784 15.2479 15.2303 14.3635 15.8837C14.0165 16.3528 12.9074 17.6926 10.8923 18.7083L11.5104 19.4063C15.3889 18.8488 18.4925 15.8911 19.2651 12.0861L18.3821 12.6972C18.3821 12.6972 17.8977 10.833 17.1773 9.51308Z" fill="#C68C43"/>
<path d="M13.1758 16.5945C12.9667 16.6931 12.7524 16.7814 12.5327 16.8594C10.6491 18.1549 9.14825 18.5237 9.14825 18.5237L9.93485 19.4974C10.0165 19.4974 10.0982 19.5005 10.1807 19.5005L10.2422 19.5005L9.55906 18.5863C11.0093 18.0895 12.332 17.2224 13.1758 16.5945Z" fill="#C68C43"/>
<path d="M3.18315 10.9473C3.15911 10.7088 3.14703 10.4692 3.14697 10.2295C3.14618 9.12977 3.40365 8.04519 3.89866 7.06314C4.39368 6.08108 5.11239 5.229 5.99693 4.5755C6.34355 4.10635 7.45304 2.76656 9.46777 1.75083L8.85001 1.05409C6.9615 1.32857 5.20357 2.17874 3.81584 3.48871C2.4281 4.79868 1.47809 6.50472 1.09528 8.37429L1.97836 7.76314C1.97836 7.76314 2.46269 9.62732 3.18315 10.9473Z" fill="#C68C43"/>
<path d="M7.18536 3.86523C7.39516 3.76625 7.60978 3.67783 7.82841 3.60031C9.71205 2.30449 11.2129 1.9357 11.2129 1.9357L10.4267 0.963145C10.345 0.961329 10.263 0.960291 10.1808 0.960032L10.1194 0.960032L10.8025 1.87423C9.35026 2.37023 8.0272 3.23697 7.18536 3.86523Z" fill="#C68C43"/>
<path d="M10.897 17.2276C10.6585 17.2516 10.4189 17.2637 10.1792 17.2637C9.07947 17.2645 7.9949 17.0071 7.01284 16.512C6.03079 16.017 5.17871 15.2983 4.52521 14.4138C4.05605 14.0668 2.71627 12.9573 1.70053 10.9425L1.0038 11.5607C1.56126 15.4392 4.51899 18.5428 8.32399 19.3154L7.71284 18.4324C7.71284 18.4324 9.57703 17.948 10.897 17.2276Z" fill="#C68C43"/>
<path d="M0.910227 10.2918L1.82442 9.60867C2.32043 11.0605 3.18599 12.3836 3.81543 13.2266C3.71714 13.0175 3.62883 12.8032 3.55051 12.5835C2.25468 10.6999 1.88589 9.19904 1.88589 9.19904L0.91334 9.98525C0.91334 10.0669 0.910227 10.1486 0.910227 10.2311C0.909449 10.2509 0.909838 10.2712 0.910227 10.2918Z" fill="#C68C43"/>
<path d="M9.46278 3.23296C9.70128 3.20891 9.94082 3.19684 10.1805 3.19678C11.2801 3.19616 12.3644 3.45373 13.3463 3.94873C14.3281 4.44374 15.18 5.16236 15.8334 6.04674C16.3025 6.39336 17.6423 7.50284 18.6581 9.51758L19.356 8.89981C19.0815 7.0113 18.2313 5.25337 16.9213 3.86564C15.6114 2.47791 13.9053 1.52789 12.0358 1.14509L12.6469 2.02816C12.6469 2.02816 10.7827 2.51249 9.46278 3.23296Z" fill="#C68C43"/>
<path d="M16.5442 7.23517C16.6428 7.4442 16.7311 7.65855 16.8091 7.87822C18.1046 9.76186 18.4734 11.2627 18.4734 11.2627L19.4471 10.4761C19.4492 10.3944 19.4502 10.3124 19.4502 10.2302C19.4502 10.2096 19.4502 10.1894 19.4502 10.1688L18.536 10.8519C18.0392 9.40007 17.1721 8.07701 16.5442 7.23517Z" fill="#C68C43"/>
<circle cx="10.1802" cy="10.23" r="6.5252" transform="rotate(180 10.1802 10.23)" stroke="#C68C43" stroke-width="0.0882584"/>
</g>
<defs>
<filter id="filter0_d_256_6455" x="0.398695" y="0.959961" width="19.562" height="19.5615" filterUnits="userSpaceOnUse" colorInterpolationFilters="sRGB">
<feFlood floodOpacity="0" result="BackgroundImageFix"/>
<feColorMatrix in="SourceAlpha" type="matrix" values="0 0 0 0 0 0 0 0 0 0 0 0 0 0 0 0 0 0 127 0" result="hardAlpha"/>
<feOffset dy="0.510485"/>
<feGaussianBlur stdDeviation="0.255242"/>
<feComposite in2="hardAlpha" operator="out"/>
<feColorMatrix type="matrix" values="0 0 0 0 0 0 0 0 0 0 0 0 0 0 0 0 0 0 0.25 0"/>
<feBlend mode="normal" in2="BackgroundImageFix" result="effect1_dropShadow_256_6455"/>
<feBlend mode="normal" in="SourceGraphic" in2="effect1_dropShadow_256_6455" result="shape"/>
</filter>
</defs>
</svg>
