<svg width="27" height="16" viewBox="0 0 27 16" fill="none" xmlns="http://www.w3.org/2000/svg">
<path d="M27.0005 0H0V15.4303H27.0005V0Z" fill="#000066"/>
<path d="M0 0V1.72516L23.9819 15.4304H27.0005V13.7053L3.01866 5.14344e-05L0 0ZM27.0005 0V1.72511L3.01866 15.4303H0V13.7052L23.9819 0H27.0005Z" fill="white"/>
<path d="M11.2502 0V15.4303H15.7503V0H11.2502ZM0 5.14344V10.2869H27.0005V5.14344H0Z" fill="white"/>
<path d="M0 6.17212V9.25819H27.0005V6.17212H0ZM12.1502 0V15.4303H14.8503V0H12.1502Z" fill="#CC0000"/>
<path d="M0 15.4303L9.00018 10.2869H11.0126L2.01244 15.4303H0ZM0 0L9.00018 5.14344H6.98774L0 1.15012L0 0ZM15.9879 5.14344L24.9881 0H27.0005L18.0004 5.14344H15.9879ZM27.0005 15.4303L18.0004 10.2869H20.0128L27.0005 14.2802V15.4303Z" fill="#CC0000"/>
</svg>
