<svg width="50" height="50" viewBox="0 0 50 50" fill="none" xmlns="http://www.w3.org/2000/svg">
<circle cx="25" cy="25" r="24.5" fill="url(#paint0_linear_8596_61898)" stroke="#161B2E"/>
<path d="M31.3142 31.7328C30.0337 32.7059 28.5563 32.9399 28.5563 32.9399C29.6013 32.1826 31.6201 30.0555 30.4494 27.7482C29.2787 25.4409 24.8072 23.9453 24.8072 23.9453C24.8072 23.9453 20.3394 25.4416 19.1657 27.7482C17.9919 30.0548 20.013 32.1826 21.0588 32.9399C21.0588 32.9399 19.5806 32.7051 18.3009 31.7321C18.3009 31.7321 15.1651 34.4718 14.8047 37.6447C14.8047 37.6447 17.6701 35.5357 24.8079 35.5357C31.9457 35.5357 34.8119 37.6447 34.8119 37.6447C34.4507 34.4726 31.3142 31.7328 31.3142 31.7328ZM25.3319 31.7147L24.8087 32.5802L24.2862 31.7147C20.9157 31.4625 20.3031 28.9568 20.3031 28.9568L21.9789 27.9837L21.5245 27.1909L24.8049 29.1733L28.0898 27.1909L27.6355 27.9837L29.3113 28.9568C29.3113 28.9568 28.7002 31.4625 25.3297 31.7147H25.3319Z" fill="white"/>
<path d="M34.0384 15.2214C34.0384 15.2214 36.9917 15.5637 38.4001 16.9881C38.4001 16.9881 36.2193 12.9141 31.6046 12.9141C26.9899 12.9141 24.8091 15.4198 24.8091 15.4198C24.8091 15.4198 22.6282 12.9141 18.0143 12.9141C13.4004 12.9141 11.2188 16.9881 11.2188 16.9881C12.6242 15.5637 15.5805 15.2214 15.5805 15.2214C13.2376 15.9082 11.4331 18.7047 11.4527 22.0548C11.4724 25.4049 12.7688 27.8046 14.0486 28.1128C15.3283 28.421 16.0129 27.1935 17.9242 25.3867C19.8355 23.5799 21.7808 23.2959 21.7808 23.2959C19.8529 22.4304 18.5724 22.9355 17.2926 23.3497C16.0129 23.7639 14.9679 23.9085 14.2288 22.413C13.4897 20.9174 14.8959 19.2765 14.8959 19.2765C14.1023 19.4029 13.3459 20.0337 13.3459 20.0337C14.0668 18.3208 14.9861 17.8521 16.4816 17.7983C17.9772 17.7445 18.6632 18.1406 20.2308 19.0243C21.7983 19.908 23.1689 20.9348 23.9806 20.2677C24.7924 19.6006 23.5838 17.3477 23.5838 17.3477C24.4668 17.9248 24.8091 19.1318 24.8091 19.1318C24.8091 19.1318 25.1521 17.9248 26.0351 17.3477C26.0351 17.3477 24.8235 19.6006 25.6383 20.2677C26.4531 20.9348 27.8199 19.9072 29.3881 19.0243C30.9564 18.1413 31.641 17.7445 33.1373 17.7983C34.6336 17.8521 35.5521 18.3261 36.2708 20.036C36.2708 20.036 35.5135 19.4052 34.7207 19.2787C34.7207 19.2787 36.1269 20.9189 35.3878 22.4152C34.6487 23.9116 33.6037 23.7669 32.324 23.352C31.0442 22.937 29.7637 22.4327 27.835 23.2982C27.835 23.2982 29.7819 23.5867 31.6924 25.389C33.603 27.1912 34.2883 28.4179 35.568 28.115C36.8478 27.8121 38.1427 25.4109 38.1639 22.0571C38.1851 18.7032 36.3813 15.9082 34.0384 15.2214Z" fill="white"/>
<path d="M31.6075 12.918C26.9935 12.918 24.8119 15.4237 24.8119 15.4237C24.8119 15.4237 22.631 12.918 18.0171 12.918C14.5823 12.918 12.4968 15.1746 11.6562 16.3256C13.4524 14.5756 18.2511 11.2369 24.8142 16.9708C31.378 11.2369 36.1767 14.5756 37.9729 16.3256C37.1278 15.1746 35.0423 12.918 31.6075 12.918Z" fill="#C4C4C4"/>
<path d="M17.2969 23.3545C16.0171 23.7695 14.9721 23.9133 14.2331 22.4178C13.494 20.9222 14.9002 19.2812 14.9002 19.2812C14.2641 19.382 13.653 19.8068 13.4349 19.9719C12.7905 21.0464 12.346 22.9933 13.8605 26.1942C13.8605 26.1942 12.5633 25.8118 11.5547 23.5764C11.8841 26.1177 12.973 27.8556 14.0536 28.1138C15.3334 28.4167 16.0179 27.1945 17.9292 25.3877C19.8405 23.5809 21.7859 23.2969 21.7859 23.2969C19.8571 22.4352 18.5766 22.9403 17.2969 23.3545Z" fill="#C4C4C4"/>
<path d="M35.7388 26.1942C37.2707 22.9562 36.799 21.001 36.1455 19.9348C35.8933 19.7507 35.3216 19.3751 34.7294 19.2812C34.7294 19.2812 36.1356 20.9214 35.3965 22.4178C34.6575 23.9141 33.6125 23.7695 32.3327 23.3545C31.053 22.9395 29.7725 22.4352 27.8438 23.3007C27.8438 23.3007 29.7906 23.5892 31.7012 25.3915C33.6117 27.1937 34.297 28.4205 35.5768 28.1176C36.6649 27.8563 37.766 26.0836 38.0825 23.4984C37.0678 25.8034 35.7388 26.1942 35.7388 26.1942Z" fill="#C4C4C4"/>
<path d="M34.8066 37.606C33.6556 36.7245 30.7213 34.9071 25.8537 34.7057C19.3921 34.4354 18.7969 35.4894 18.0669 34.5701C17.3369 33.6508 21.0588 32.9383 21.0588 32.9383C21.0588 32.9383 19.5806 32.7035 18.3009 31.7305C18.3009 31.7305 15.1651 34.4702 14.8047 37.6431C14.8047 37.6431 17.6701 35.5341 24.8079 35.5341C31.9457 35.5341 34.8119 37.6431 34.8119 37.6431C34.8112 37.6332 34.8081 37.6188 34.8066 37.606Z" fill="#C4C4C4"/>
<defs>
<linearGradient id="paint0_linear_8596_61898" x1="0" y1="0" x2="50" y2="50" gradientUnits="userSpaceOnUse">
<stop offset="0.229167" stop-color="#0D101B"/>
<stop offset="0.46875" stop-color="#222840"/>
<stop offset="0.713542" stop-color="#0D101B"/>
</linearGradient>
</defs>
</svg>
