<svg width="51" height="51" viewBox="0 0 51 51" fill="none" xmlns="http://www.w3.org/2000/svg">
    <g filter="url(#filter0_d_335_224)">
        <circle cx="25.5" cy="21.5" r="21.5" fill="#000613"/>
        <circle opacity="0.3" cx="25.5" cy="21.5" r="18.5" stroke="white"/>
        <path d="M31.7871 25.5691C31.058 24.5542 30.3868 23.0969 30.3868 21.1678C30.3868 18.5318 28.1992 16.3945 25.5 16.3945C22.8009 16.3945 20.6132 18.5318 20.6132 21.1678C20.6132 23.0969 19.9421 24.5542 19.213 25.5691C18.6718 26.3221 19.2245 27.3575 20.1665 27.3575H30.8335C31.7751 27.3591 32.3283 26.3237 31.7871 25.5691Z" stroke="white" stroke-width="1.5"/>
        <path d="M23.4688 27.3594C23.5544 27.8193 23.8046 28.2356 24.1755 28.5353C24.5463 28.8351 25.0144 28.9993 25.4978 28.9993C25.9812 28.9993 26.4493 28.8351 26.8202 28.5353C27.191 28.2356 27.4412 27.8193 27.5269 27.3594H23.4688Z" stroke="white" stroke-width="1.5"/>
        <path d="M25.5051 16.397C26.1754 16.3962 26.8386 16.5305 27.4522 16.7912C27.428 16.3083 27.2125 15.853 26.8504 15.5195C26.4883 15.186 26.0074 15 25.5074 15C25.0073 15 24.5264 15.186 24.1643 15.5195C23.8022 15.853 23.5867 16.3083 23.5625 16.7912C24.1748 16.5311 24.8363 16.3969 25.5051 16.397Z" stroke="white" stroke-width="1.5"/>
    </g>
    <defs>
        <filter id="filter0_d_335_224" x="0" y="0" width="51" height="51" filterUnits="userSpaceOnUse" colorInterpolationFilters="sRGB">
            <feFlood floodOpacity="0" result="BackgroundImageFix"/>
            <feColorMatrix in="SourceAlpha" type="matrix" values="0 0 0 0 0 0 0 0 0 0 0 0 0 0 0 0 0 0 127 0" result="hardAlpha"/>
            <feOffset dy="4"/>
            <feGaussianBlur stdDeviation="2"/>
            <feComposite in2="hardAlpha" operator="out"/>
            <feColorMatrix type="matrix" values="0 0 0 0 0 0 0 0 0 0 0 0 0 0 0 0 0 0 0.25 0"/>
            <feBlend mode="normal" in2="BackgroundImageFix" result="effect1_dropShadow_335_224"/>
            <feBlend mode="normal" in="SourceGraphic" in2="effect1_dropShadow_335_224" result="shape"/>
        </filter>
    </defs>
</svg>
