<svg width="16" height="42" viewBox="0 0 16 42" fill="none" xmlns="http://www.w3.org/2000/svg">
<path fill-rule="evenodd" clip-rule="evenodd" d="M16 42V0H12.4141C12.1489 0 11.8945 0.105357 11.707 0.292893L0.292771 11.7071C0.108923 11.891 0.0040537 12.139 0 12.3986V41.0158C0.0084343 41.5608 0.452865 42 0.999878 42H11.8118H16Z" fill="#C800CC"/>
<mask id="path-2-inside-1_463_17299" fill="#C800CC">
<path fill-rule="evenodd" clip-rule="evenodd" d="M0.999878 12.4142V41H11.8118H16V42H11.8118H0.999878C0.452865 42 0.0084343 41.5608 0 41.0158V12.3986C0.0040537 12.139 0.108922 11.891 0.29277 11.7071L11.707 0.292893C11.8945 0.105357 12.1489 0 12.4141 0H16V1H12.4141L0.999878 12.4142Z"/>
</mask>
<path d="M0.999878 41H-0.00012207V42H0.999878V41ZM0.999878 12.4142L0.292771 11.7071L-0.00012207 12V12.4142H0.999878ZM16 41H17V40H16V41ZM16 42V43H17V42H16ZM0 41.0158H-1V41.0235L-0.99988 41.0313L0 41.0158ZM0 12.3986L-0.999878 12.383L-1 12.3908V12.3986H0ZM0.29277 11.7071L-0.414336 11H-0.414337L0.29277 11.7071ZM11.707 0.292893L10.9999 -0.414215L10.9999 -0.414214L11.707 0.292893ZM16 0H17V-1H16V0ZM16 1V2H17V1H16ZM12.4141 1V0H11.9999L11.707 0.292893L12.4141 1ZM1.99988 41V12.4142H-0.00012207V41H1.99988ZM11.8118 40H0.999878V42H11.8118V40ZM16 40H11.8118V42H16V40ZM15 41V42H17V41H15ZM16 41H11.8118V43H16V41ZM11.8118 41H0.999878V43H11.8118V41ZM-0.99988 41.0313C-0.983007 42.1216 -0.0942364 43 0.999878 43V41L0.99988 41.0003L-0.99988 41.0313ZM1 41.0158V12.3986H-1V41.0158H1ZM-0.414337 11C-0.782036 11.3677 -0.99177 11.8638 -0.999878 12.383L0.999878 12.4142L0.999878 12.4142L-0.414337 11ZM10.9999 -0.414214L-0.414336 11L0.999877 12.4142L12.4141 1L10.9999 -0.414214ZM12.4141 -1C11.8837 -1 11.375 -0.789285 10.9999 -0.414215L12.4141 1L12.4141 1V-1ZM12.4141 1H16V-1H12.4141V1ZM15 0V1H17V0H15ZM12.4141 2H16V0H12.4141V2ZM1.70698 13.1213L13.1212 1.70711L11.707 0.292893L0.292771 11.7071L1.70698 13.1213Z" fill="#C800CC" mask="url(#path-2-inside-1_463_17299)"/>
</svg>
