<svg width="39" height="39" viewBox="0 0 39 39" fill="none" xmlns="http://www.w3.org/2000/svg">
<g clipPath="url(#clip0_1292_13888)">
<path d="M12.3383 26.1414V15.5532H9.89062V12.8398H15.7159V26.1414H12.3383Z" fill="#E43834"/>
<path d="M28.4083 16.274C28.4083 17.4314 27.7821 18.4561 26.7385 19.0254C28.1994 19.6325 29.1103 20.9039 29.1103 22.3839C29.1103 24.7747 26.9851 26.2927 23.6645 26.2927C20.3439 26.2927 18.2188 24.7936 18.2188 22.4409C18.2188 20.9229 19.2054 19.6325 20.7424 19.0254C19.6229 18.3991 18.9018 17.3367 18.9018 16.1792C18.9018 14.0539 20.7614 12.7068 23.6456 12.7068C26.5676 12.7068 28.4083 14.0919 28.4083 16.274ZM21.4065 22.0994C21.4065 23.219 22.2035 23.8452 23.6645 23.8452C25.1256 23.8452 25.9415 23.2381 25.9415 22.0994C25.9415 20.999 25.1256 20.3726 23.6645 20.3726C22.2034 20.3726 21.4065 20.9989 21.4065 22.0994ZM21.7481 16.4637C21.7481 17.4127 22.4312 17.9437 23.6645 17.9437C24.8979 17.9437 25.581 17.4126 25.581 16.4637C25.581 15.4773 24.8979 14.9269 23.6645 14.9269C22.4311 14.9269 21.7481 15.4773 21.7481 16.4637Z" fill="#E43834"/>
<path d="M34.7307 14.3414C35.2923 15.9987 35.5771 17.7321 35.5771 19.5001C35.5771 28.3649 28.3649 35.5771 19.4999 35.5771C10.635 35.5771 3.42264 28.3649 3.42264 19.5001C3.42264 10.635 10.6348 3.42299 19.4998 3.42299C21.268 3.42299 23.0014 3.70761 24.6585 4.26937V0.691619C22.9847 0.232793 21.256 0 19.4999 0C8.7477 0 0 8.7477 0 19.5001C0 30.2524 8.7477 39.0001 19.4999 39.0001C30.2522 39.0001 38.9998 30.2524 38.9998 19.5001C38.9998 17.7441 38.7671 16.0153 38.3083 14.3414H34.7307Z" fill="#E43834"/>
<path d="M33.7588 5.23123V1.49219H31.0701V5.23123H27.3535V7.91967H31.0701V11.6586H33.7588V7.91967H37.4976V5.23123H33.7588Z" fill="#E43834"/>
</g>
<defs>
<clipPath id="clip0_1292_13888">
<rect width="39" height="39" fill="white"/>
</clipPath>
</defs>
</svg>
