<svg width="32" height="32" viewBox="0 0 32 32" fill="none" xmlns="http://www.w3.org/2000/svg">
<g clipPath="url(#clip0_463_17350)">
<mask id="mask0_463_17350" style="mask-type:luminance" maskUnits="userSpaceOnUse" x="0" y="0" width="32" height="32">
<path d="M32 0H0V32H32V0Z" fill="white"/>
</mask>
<g mask="url(#mask0_463_17350)">
<path d="M10.1238 21.4494V12.7617H8.11548V10.5353H12.8952V21.4494H10.1238Z" fill="#27263A"/>
<path d="M23.3093 13.3531C23.3093 14.3027 22.7955 15.1435 21.9393 15.6106C23.1379 16.1088 23.8853 17.152 23.8853 18.3663C23.8853 20.328 22.1416 21.5736 19.417 21.5736C16.6924 21.5736 14.9487 20.3435 14.9487 18.4131C14.9487 17.1676 15.7582 16.1088 17.0194 15.6106C16.1008 15.0968 15.5091 14.225 15.5091 13.2753C15.5091 11.5315 17.035 10.4261 19.4015 10.4261C21.799 10.4261 23.3093 11.5626 23.3093 13.3531ZM17.5643 18.1329C17.5643 19.0515 18.2182 19.5653 19.417 19.5653C20.6158 19.5653 21.2853 19.0672 21.2853 18.1329C21.2853 17.23 20.6158 16.716 19.417 16.716C18.2181 16.716 17.5643 17.2299 17.5643 18.1329ZM17.8446 13.5087C17.8446 14.2874 18.4051 14.7231 19.417 14.7231C20.429 14.7231 20.9895 14.2873 20.9895 13.5087C20.9895 12.6994 20.429 12.2478 19.417 12.2478C18.405 12.2478 17.8446 12.6994 17.8446 13.5087Z" fill="#27263A"/>
<path d="M28.497 11.7673C28.9578 13.1271 29.1915 14.5494 29.1915 16.0001C29.1915 23.2738 23.2738 29.1915 15.9999 29.1915C8.72616 29.1915 2.80832 23.2738 2.80832 16.0001C2.80832 8.72615 8.72599 2.80861 15.9998 2.80861C17.4507 2.80861 18.8729 3.04214 20.2326 3.50307V0.567482C18.8592 0.19101 17.4408 0 15.9999 0C7.1776 0 0 7.1776 0 16.0001C0 24.8225 7.1776 32.0001 15.9999 32.0001C24.8223 32.0001 31.9998 24.8225 31.9998 16.0001C31.9998 14.5593 31.8089 13.1408 31.4325 11.7673H28.497Z" fill="#27263A"/>
<path d="M27.6995 4.2923V1.22437H25.4934V4.2923H22.4438V6.49819H25.4934V9.56603H27.6995V6.49819H30.7672V4.2923H27.6995Z" fill="#27263A"/>
</g>
</g>
<defs>
<clipPath id="clip0_463_17350">
<rect width="32" height="32" fill="white"/>
</clipPath>
</defs>
</svg>
