<svg width="169" height="42" viewBox="0 0 169 42" fill="none" xmlns="http://www.w3.org/2000/svg">
<mask id="path-1-inside-1_463_17308" fill="white">
<path d="M0 0H169V42H0V0Z"/>
</mask>
<path d="M0 0H169V42H0V0Z" fill="#FA00FF"/>
<path d="M0 1H169V-1H0V1ZM169 41H0V43H169V41Z" fill="#FD85FF" mask="url(#path-1-inside-1_463_17308)"/>
<path d="M15.49 22.692C14.9767 22.9067 14.4773 23.0653 13.992 23.168C13.5067 23.2707 13.0353 23.322 12.578 23.322C11.3273 23.322 10.3613 23.0233 9.68 22.426C9.008 21.8193 8.672 20.9513 8.672 19.822V16.7H10.478V19.626C10.478 20.3167 10.6787 20.844 11.08 21.208C11.4813 21.572 12.0553 21.754 12.802 21.754C13.25 21.754 13.698 21.7027 14.146 21.6C14.6033 21.4973 15.042 21.3387 15.462 21.124L15.49 22.692ZM15.21 26.5V16.7H17.016V26.5H15.21ZM24.1026 26.5V24.988L24.0046 24.666V22.02C24.0046 21.5067 23.8506 21.11 23.5426 20.83C23.2346 20.5407 22.768 20.396 22.1426 20.396C21.7226 20.396 21.3073 20.4613 20.8966 20.592C20.4953 20.7227 20.1546 20.9047 19.8746 21.138L19.1886 19.864C19.59 19.556 20.066 19.3273 20.6166 19.178C21.1766 19.0193 21.7553 18.94 22.3526 18.94C23.4353 18.94 24.2706 19.2013 24.8586 19.724C25.456 20.2373 25.7546 21.0353 25.7546 22.118V26.5H24.1026ZM21.7506 26.598C21.1906 26.598 20.7006 26.5047 20.2806 26.318C19.8606 26.122 19.534 25.856 19.3006 25.52C19.0766 25.1747 18.9646 24.7873 18.9646 24.358C18.9646 23.938 19.0626 23.56 19.2586 23.224C19.464 22.888 19.7953 22.622 20.2526 22.426C20.71 22.23 21.3166 22.132 22.0726 22.132H24.2426V23.294H22.1986C21.6013 23.294 21.2 23.392 20.9946 23.588C20.7893 23.7747 20.6866 24.008 20.6866 24.288C20.6866 24.6053 20.8126 24.8573 21.0646 25.044C21.3166 25.2307 21.6666 25.324 22.1146 25.324C22.544 25.324 22.9266 25.226 23.2626 25.03C23.608 24.834 23.8553 24.5447 24.0046 24.162L24.2986 25.212C24.1306 25.6507 23.8273 25.9913 23.3886 26.234C22.9593 26.4767 22.4133 26.598 21.7506 26.598ZM29.4741 26.5V20.088L29.8801 20.508H26.8421V19.024H33.8421V20.508H30.8181L31.2241 20.088V26.5H29.4741ZM38.9807 26.5V19.024H46.1487V26.5H44.4127V20.102L44.8187 20.508H40.3247L40.7307 20.102V26.5H38.9807ZM51.842 26.598C51.0767 26.598 50.3953 26.4347 49.798 26.108C49.2007 25.772 48.7293 25.3147 48.384 24.736C48.0387 24.1573 47.866 23.4993 47.866 22.762C47.866 22.0153 48.0387 21.3573 48.384 20.788C48.7293 20.2093 49.2007 19.7567 49.798 19.43C50.3953 19.1033 51.0767 18.94 51.842 18.94C52.6167 18.94 53.3027 19.1033 53.9 19.43C54.5067 19.7567 54.978 20.2047 55.314 20.774C55.6593 21.3433 55.832 22.006 55.832 22.762C55.832 23.4993 55.6593 24.1573 55.314 24.736C54.978 25.3147 54.5067 25.772 53.9 26.108C53.3027 26.4347 52.6167 26.598 51.842 26.598ZM51.842 25.1C52.2713 25.1 52.654 25.0067 52.99 24.82C53.326 24.6333 53.5873 24.3627 53.774 24.008C53.97 23.6533 54.068 23.238 54.068 22.762C54.068 22.2767 53.97 21.8613 53.774 21.516C53.5873 21.1613 53.326 20.8907 52.99 20.704C52.654 20.5173 52.276 20.424 51.856 20.424C51.4267 20.424 51.044 20.5173 50.708 20.704C50.3813 20.8907 50.12 21.1613 49.924 21.516C49.728 21.8613 49.63 22.2767 49.63 22.762C49.63 23.238 49.728 23.6533 49.924 24.008C50.12 24.3627 50.3813 24.6333 50.708 24.82C51.044 25.0067 51.422 25.1 51.842 25.1ZM62.6027 25.688V20.508H59.7327L59.6907 21.712C59.6721 22.1413 59.6441 22.5567 59.6067 22.958C59.5694 23.35 59.5087 23.714 59.4247 24.05C59.3407 24.3767 59.2194 24.6473 59.0607 24.862C58.9021 25.0767 58.6921 25.2167 58.4307 25.282L56.6947 25.016C56.9747 25.016 57.1987 24.9273 57.3667 24.75C57.5441 24.5633 57.6794 24.3113 57.7727 23.994C57.8754 23.6673 57.9501 23.2987 57.9967 22.888C58.0434 22.468 58.0761 22.034 58.0947 21.586L58.1927 19.024H64.3527V25.688H62.6027ZM56.4287 28.166V25.016H65.4587V28.166H63.8207V26.5H58.0527V28.166H56.4287ZM72.1457 25.688V20.508H69.2757L69.2337 21.712C69.215 22.1413 69.187 22.5567 69.1497 22.958C69.1124 23.35 69.0517 23.714 68.9677 24.05C68.8837 24.3767 68.7624 24.6473 68.6037 24.862C68.445 25.0767 68.235 25.2167 67.9737 25.282L66.2377 25.016C66.5177 25.016 66.7417 24.9273 66.9097 24.75C67.087 24.5633 67.2224 24.3113 67.3157 23.994C67.4184 23.6673 67.493 23.2987 67.5397 22.888C67.5864 22.468 67.619 22.034 67.6377 21.586L67.7357 19.024H73.8957V25.688H72.1457ZM65.9717 28.166V25.016H75.0017V28.166H73.3637V26.5H67.5957V28.166H65.9717ZM80.0507 26.598C79.22 26.598 78.492 26.4347 77.8667 26.108C77.2507 25.772 76.77 25.3147 76.4247 24.736C76.0887 24.1573 75.9207 23.4993 75.9207 22.762C75.9207 22.0153 76.084 21.3573 76.4107 20.788C76.7467 20.2093 77.204 19.7567 77.7827 19.43C78.3707 19.1033 79.038 18.94 79.7847 18.94C80.5127 18.94 81.1613 19.0987 81.7307 19.416C82.3 19.7333 82.748 20.1813 83.0747 20.76C83.4013 21.3387 83.5647 22.02 83.5647 22.804C83.5647 22.8787 83.56 22.9627 83.5507 23.056C83.5507 23.1493 83.546 23.238 83.5367 23.322H77.3067V22.16H82.6127L81.9267 22.524C81.936 22.0947 81.8473 21.7167 81.6607 21.39C81.474 21.0633 81.2173 20.8067 80.8907 20.62C80.5733 20.4333 80.2047 20.34 79.7847 20.34C79.3553 20.34 78.9773 20.4333 78.6507 20.62C78.3333 20.8067 78.0813 21.068 77.8947 21.404C77.7173 21.7307 77.6287 22.118 77.6287 22.566V22.846C77.6287 23.294 77.7313 23.6907 77.9367 24.036C78.142 24.3813 78.4313 24.6473 78.8047 24.834C79.178 25.0207 79.6073 25.114 80.0927 25.114C80.5127 25.114 80.8907 25.0487 81.2267 24.918C81.5627 24.7873 81.8613 24.582 82.1227 24.302L83.0607 25.38C82.7247 25.772 82.3 26.0753 81.7867 26.29C81.2827 26.4953 80.704 26.598 80.0507 26.598ZM89.6227 26.598C89.0161 26.598 88.4607 26.458 87.9567 26.178C87.4621 25.898 87.0654 25.478 86.7667 24.918C86.4774 24.3487 86.3327 23.63 86.3327 22.762C86.3327 21.8847 86.4727 21.166 86.7527 20.606C87.0421 20.046 87.4341 19.6307 87.9287 19.36C88.4234 19.08 88.9881 18.94 89.6227 18.94C90.3601 18.94 91.0087 19.0987 91.5687 19.416C92.1381 19.7333 92.5861 20.1767 92.9127 20.746C93.2487 21.3153 93.4167 21.9873 93.4167 22.762C93.4167 23.5367 93.2487 24.2133 92.9127 24.792C92.5861 25.3613 92.1381 25.8047 91.5687 26.122C91.0087 26.4393 90.3601 26.598 89.6227 26.598ZM85.4787 29.216V19.024H87.1447V20.788L87.0887 22.776L87.2287 24.764V29.216H85.4787ZM89.4267 25.1C89.8467 25.1 90.2201 25.0067 90.5467 24.82C90.8827 24.6333 91.1487 24.3627 91.3447 24.008C91.5407 23.6533 91.6387 23.238 91.6387 22.762C91.6387 22.2767 91.5407 21.8613 91.3447 21.516C91.1487 21.1613 90.8827 20.8907 90.5467 20.704C90.2201 20.5173 89.8467 20.424 89.4267 20.424C89.0067 20.424 88.6287 20.5173 88.2927 20.704C87.9567 20.8907 87.6907 21.1613 87.4947 21.516C87.2987 21.8613 87.2007 22.2767 87.2007 22.762C87.2007 23.238 87.2987 23.6533 87.4947 24.008C87.6907 24.3627 87.9567 24.6333 88.2927 24.82C88.6287 25.0067 89.0067 25.1 89.4267 25.1ZM103.83 26.5L101.646 22.916L103.074 22.034L105.916 26.5H103.83ZM100.232 23.504V22.048H102.738V23.504H100.232ZM103.242 22.972L101.59 22.776L103.858 19.024H105.72L103.242 22.972ZM95.9343 26.5H93.8623L96.6903 22.034L98.1183 22.916L95.9343 26.5ZM100.75 26.5H99.0143V19.024H100.75V26.5ZM99.5323 23.504H97.0403V22.048H99.5323V23.504ZM96.5223 22.972L94.0443 19.024H95.9063L98.1603 22.776L96.5223 22.972ZM112.579 26.5L109.877 22.916L111.305 22.034L114.637 26.5H112.579ZM107.217 26.5V19.024H108.967V26.5H107.217ZM108.449 23.504V22.048H110.983V23.504H108.449ZM111.473 22.972L109.835 22.776L112.579 19.024H114.455L111.473 22.972ZM115.871 26.5V19.024H117.621V23.952L121.751 19.024H123.347V26.5H121.597V21.572L117.481 26.5H115.871ZM128.885 26.5V25.282L132.777 21.586C133.103 21.278 133.346 21.0073 133.505 20.774C133.663 20.5407 133.766 20.326 133.813 20.13C133.869 19.9247 133.897 19.7333 133.897 19.556C133.897 19.108 133.743 18.7627 133.435 18.52C133.127 18.268 132.674 18.142 132.077 18.142C131.601 18.142 131.167 18.226 130.775 18.394C130.392 18.562 130.061 18.8187 129.781 19.164L128.507 18.184C128.889 17.6707 129.403 17.274 130.047 16.994C130.7 16.7047 131.428 16.56 132.231 16.56C132.94 16.56 133.556 16.6767 134.079 16.91C134.611 17.134 135.017 17.456 135.297 17.876C135.586 18.296 135.731 18.7953 135.731 19.374C135.731 19.6913 135.689 20.0087 135.605 20.326C135.521 20.634 135.362 20.9607 135.129 21.306C134.895 21.6513 134.555 22.0387 134.107 22.468L130.761 25.646L130.383 24.96H136.109V26.5H128.885ZM136.814 24.274V23.014L141.644 16.7H143.59L138.83 23.014L137.92 22.734H145.69V24.274H136.814ZM142.19 26.5V24.274L142.246 22.734V20.76H143.954V26.5H142.19ZM145.775 27.9L150.395 14.712H151.963L147.343 27.9H145.775ZM153.768 26.5L157.814 17.428L158.29 18.24H152.732L153.6 17.358V19.906H151.906V16.7H159.522V17.918L155.714 26.5H153.768Z" fill="white"/>
</svg>
