<svg width="16" height="42" viewBox="0 0 16 42" fill="none" xmlns="http://www.w3.org/2000/svg">
<path fill-rule="evenodd" clip-rule="evenodd" d="M14.9333 0C15.4856 0 15.9333 0.447715 15.9333 1V27.5858C15.9333 27.851 15.828 28.1054 15.6405 28.2929L2.22624 41.7071C2.03871 41.8946 1.78435 42 1.51913 42H0V0H14.9333Z" fill="#C800CC"/>
<path d="M6.06066 40.6464L14.6464 32.0607C14.9614 31.7457 15.5 31.9688 15.5 32.4142L15.4999 41C15.4999 41.2761 15.2761 41.5 14.9999 41.5H6.41421C5.96876 41.5 5.74568 40.9614 6.06066 40.6464Z" fill="#C800CC" stroke="#C800CC"/>
<mask id="path-3-inside-1_463_17310" fill="#C800CC">
<path fill-rule="evenodd" clip-rule="evenodd" d="M14.9334 27.5858L14.9333 1L0 1V0H14.9333C15.4856 0 15.9333 0.447715 15.9333 1V27.5858C15.9333 27.851 15.828 28.1054 15.6405 28.2929L2.22624 41.7071C2.03871 41.8946 1.78435 42 1.51914 42H0V41H1.51914L14.9334 27.5858Z"/>
</mask>
<path fill-rule="evenodd" clip-rule="evenodd" d="M14.9334 27.5858L14.9333 1L0 1V0H14.9333C15.4856 0 15.9333 0.447715 15.9333 1V27.5858C15.9333 27.851 15.828 28.1054 15.6405 28.2929L2.22624 41.7071C2.03871 41.8946 1.78435 42 1.51914 42H0V41H1.51914L14.9334 27.5858Z" fill="#C800CC"/>
<path d="M14.9333 1L15.9333 0.999999V-5.80613e-07L14.9333 -4.76837e-07V1ZM14.9334 27.5858L15.6405 28.2929L15.9334 28V27.5858H14.9334ZM0 1H-1V2L1.03776e-07 2L0 1ZM0 0V-1H-1V0H0ZM15.6405 28.2929L14.9334 27.5858L15.6405 28.2929ZM2.22624 41.7071L2.93335 42.4142L2.93335 42.4142L2.22624 41.7071ZM0 42H-1V43H0V42ZM0 41V40H-1V41H0ZM1.51914 41V42H1.93335L2.22624 41.7071L1.51914 41ZM13.9333 1L13.9334 27.5858H15.9334L15.9333 0.999999L13.9333 1ZM1.03776e-07 2L14.9333 2V-4.76837e-07L-1.03776e-07 1.07288e-06L1.03776e-07 2ZM1 1V0H-1V1H1ZM0 1H14.9333V-1H0V1ZM16.9333 1C16.9333 -0.104571 16.0379 -1 14.9333 -1V1V1H16.9333ZM16.9333 27.5858V1H14.9333V27.5858H16.9333ZM16.3476 29C16.7226 28.6249 16.9333 28.1162 16.9333 27.5858H14.9333L14.9334 27.5858L16.3476 29ZM2.93335 42.4142L16.3476 29L14.9334 27.5858L1.51914 41L2.93335 42.4142ZM1.51914 43C2.04957 43 2.55828 42.7893 2.93335 42.4142L1.51914 41L1.51914 41V43ZM1.51914 41H0V43H1.51914V41ZM1 42V41H-1V42H1ZM1.51914 40H0V42H1.51914V40ZM14.2262 26.8787L0.81203 40.2929L2.22624 41.7071L15.6405 28.2929L14.2262 26.8787Z" fill="#C800CC" mask="url(#path-3-inside-1_463_17310)"/>
</svg>
