<svg width="41" height="48" viewBox="0 0 41 48" fill="none" xmlns="http://www.w3.org/2000/svg">
<g clipPath="url(#clip0_855_16365)">
<mask id="mask0_855_16365" style="mask-type:alpha" maskUnits="userSpaceOnUse" x="0" y="0" width="41" height="47">
<path d="M28.6248 0C28.8865 0.255156 28.8445 0.520944 28.6772 0.818626C28.0493 1.96683 27.4426 3.11502 26.8147 4.29513C30.8012 6.59154 33.1555 9.9192 33.3542 14.7034C24.7638 14.7034 16.2363 14.7034 7.625 14.7034C7.80288 9.92983 10.1571 6.60217 14.175 4.29513C13.9135 3.80608 13.6623 3.31703 13.4008 2.82798C13.0345 2.14756 12.6788 1.45652 12.3021 0.7761C12.1452 0.489049 12.1347 0.233893 12.3753 0C12.5009 0 12.616 0 12.7416 0C12.8881 0.244524 13.0555 0.478418 13.1915 0.733573C13.767 1.79673 14.3425 2.87051 14.9284 3.95492C18.6638 2.38146 22.3887 2.39209 26.0927 3.95492C26.3439 3.49776 26.5636 3.08313 26.7834 2.66852C27.2751 1.7861 27.7773 0.893045 28.2691 0.0106315C28.3843 0 28.4993 0 28.6248 0ZM14.6145 10.0042C15.1795 10.0149 15.6817 9.53646 15.7027 8.95172C15.7236 8.36699 15.2214 7.83541 14.6354 7.82478C14.0809 7.81415 13.5891 8.31383 13.5786 8.89856C13.5786 9.49394 14.0495 9.99362 14.6145 10.0042ZM26.3752 10.0042C26.9507 9.99362 27.4111 9.49394 27.4006 8.89856C27.3901 8.31383 26.8984 7.81415 26.3439 7.82478C25.7788 7.83541 25.287 8.34572 25.287 8.90919C25.2765 9.50457 25.7892 10.0149 26.3752 10.0042Z" fill="#5ADB87"/>
<path d="M28.1462 37.6469C28.1462 37.934 28.1462 38.1466 28.1462 38.3593C28.1357 40.3792 28.1672 42.3886 28.0834 44.4087C28.0312 45.8332 26.7545 46.9388 25.3106 46.9602C23.8982 46.9815 22.653 45.9289 22.4646 44.5362C22.4228 44.2172 22.4018 43.8983 22.4018 43.5794C22.3913 41.6231 22.4018 39.667 22.4018 37.6896C21.1254 37.6896 19.8907 37.6896 18.5827 37.6896C18.5827 37.8595 18.5827 38.019 18.5827 38.1785C18.5827 40.0922 18.5932 41.9952 18.5827 43.909C18.5723 45.5461 17.5469 46.7582 16.082 46.9388C14.4497 47.1409 12.9744 45.9182 12.9221 44.2386C12.8593 42.2398 12.8802 40.2304 12.8593 38.2316C12.8593 38.051 12.8593 37.8702 12.8593 37.6151C12.0432 37.6151 11.2793 37.6469 10.5155 37.6044C9.05066 37.5301 7.84737 36.2649 7.77413 34.7658C7.76367 34.585 7.76367 34.4044 7.76367 34.213C7.76367 28.238 7.76367 22.2633 7.76367 16.2883C7.76367 16.1288 7.76367 15.9587 7.76367 15.7673C16.2703 15.7673 24.7352 15.7673 33.2208 15.7673C33.2313 15.9268 33.2418 16.0757 33.2418 16.2245C33.2418 22.2419 33.2208 28.27 33.2523 34.2874C33.2628 36.1054 32.1222 37.3173 30.898 37.5301C30.197 37.6576 29.4646 37.6044 28.7426 37.6258C28.5647 37.6469 28.3869 37.6469 28.1462 37.6469Z" fill="#5ADB87"/>
<path d="M34.3908 24.132C34.3908 22.027 34.349 19.9114 34.4013 17.8063C34.4431 16.3604 35.6777 15.2441 37.1217 15.2229C38.6285 15.191 39.8632 16.2647 40.0097 17.7425C40.0409 18.0296 40.0514 18.3166 40.0514 18.6143C40.0514 22.3886 40.0514 26.1626 40.0514 29.9368C40.0514 31.0106 39.748 31.9249 38.869 32.5735C37.9903 33.2113 37.0276 33.3283 36.0545 32.8817C35.0815 32.4458 34.4326 31.6591 34.4013 30.5535C34.3593 28.406 34.3908 26.2689 34.3908 24.132Z" fill="#5ADB87"/>
<path d="M6.60499 24.1865C6.60499 26.2915 6.64684 28.4073 6.59452 30.5123C6.55267 31.99 5.31801 33.1063 3.85314 33.1169C2.35688 33.1383 1.13268 32.0538 0.986189 30.576C0.954799 30.289 0.944336 30.0019 0.944336 29.7043C0.944336 25.9301 0.944336 22.1559 0.944336 18.3817C0.944336 17.0953 1.41519 16.096 2.57661 15.5006C4.32398 14.6075 6.53175 15.8408 6.60499 17.8076C6.66777 19.9338 6.60499 22.0602 6.60499 24.1865Z" fill="#5ADB87"/>
</mask>
<g mask="url(#mask0_855_16365)">
<path d="M48.9444 -5.33337H-4.38892V53.3333H48.9444V-5.33337Z" fill="url(#paint0_linear_855_16365)"/>
</g>
</g>
<defs>
<linearGradient id="paint0_linear_855_16365" x1="22.2777" y1="-5.33337" x2="22.2777" y2="53.3333" gradientUnits="userSpaceOnUse">
<stop stop-color="#26CD51"/>
<stop offset="1" stop-color="#067221"/>
</linearGradient>
<clipPath id="clip0_855_16365">
<rect width="39.1111" height="48" fill="white" transform="translate(0.944336)"/>
</clipPath>
</defs>
</svg>
