<svg width="247" height="84" viewBox="0 0 247 84" fill="none" xmlns="http://www.w3.org/2000/svg">
<path d="M24.8728 1.58086C25.0612 0.943365 25.6466 0.505859 26.3114 0.505859H244.324C245.326 0.505859 246.046 1.46975 245.762 2.43086L222.127 82.4309C221.939 83.0684 221.353 83.5059 220.689 83.5059H2.67633C1.67416 83.5059 0.953854 82.542 1.2378 81.5809L24.8728 1.58086Z" fill="#121120" stroke="#FA00FF"/>
<g clipPath="url(#clip0_1688_47693)">
<mask id="mask0_1688_47693" style="mask-type:alpha" maskUnits="userSpaceOnUse" x="42" y="18" width="41" height="47">
<path d="M70.6248 18C70.8865 18.2552 70.8445 18.5209 70.6772 18.8186C70.0493 19.9668 69.4426 21.115 68.8147 22.2951C72.8012 24.5915 75.1555 27.9192 75.3542 32.7034C66.7638 32.7034 58.2363 32.7034 49.625 32.7034C49.8029 27.9298 52.1571 24.6022 56.175 22.2951C55.9135 21.8061 55.6623 21.317 55.4008 20.828C55.0345 20.1476 54.6788 19.4565 54.3021 18.7761C54.1452 18.489 54.1347 18.2339 54.3753 18C54.5009 18 54.616 18 54.7416 18C54.8881 18.2445 55.0555 18.4784 55.1915 18.7336C55.767 19.7967 56.3425 20.8705 56.9284 21.9549C60.6638 20.3815 64.3887 20.3921 68.0927 21.9549C68.3439 21.4978 68.5636 21.0831 68.7834 20.6685C69.2751 19.7861 69.7773 18.893 70.2691 18.0106C70.3843 18 70.4993 18 70.6248 18ZM56.6145 28.0042C57.1795 28.0149 57.6817 27.5365 57.7027 26.9517C57.7236 26.367 57.2214 25.8354 56.6354 25.8248C56.0809 25.8142 55.5891 26.3138 55.5786 26.8986C55.5786 27.4939 56.0495 27.9936 56.6145 28.0042ZM68.3752 28.0042C68.9507 27.9936 69.4111 27.4939 69.4006 26.8986C69.3901 26.3138 68.8984 25.8142 68.3439 25.8248C67.7788 25.8354 67.287 26.3457 67.287 26.9092C67.2765 27.5046 67.7892 28.0149 68.3752 28.0042Z" fill="#5ADB87"/>
<path d="M70.1462 55.6469C70.1462 55.934 70.1462 56.1466 70.1462 56.3593C70.1357 58.3792 70.1672 60.3886 70.0834 62.4087C70.0312 63.8332 68.7545 64.9388 67.3106 64.9602C65.8982 64.9815 64.653 63.9289 64.4646 62.5362C64.4228 62.2172 64.4018 61.8983 64.4018 61.5794C64.3913 59.6231 64.4018 57.667 64.4018 55.6896C63.1254 55.6896 61.8907 55.6896 60.5827 55.6896C60.5827 55.8595 60.5827 56.019 60.5827 56.1785C60.5827 58.0922 60.5932 59.9952 60.5827 61.909C60.5723 63.5461 59.5469 64.7582 58.082 64.9388C56.4497 65.1409 54.9744 63.9182 54.9221 62.2386C54.8593 60.2398 54.8802 58.2304 54.8593 56.2316C54.8593 56.051 54.8593 55.8702 54.8593 55.6151C54.0432 55.6151 53.2793 55.6469 52.5155 55.6044C51.0507 55.5301 49.8474 54.2649 49.7741 52.7658C49.7637 52.585 49.7637 52.4044 49.7637 52.213C49.7637 46.238 49.7637 40.2633 49.7637 34.2883C49.7637 34.1288 49.7637 33.9587 49.7637 33.7673C58.2703 33.7673 66.7352 33.7673 75.2208 33.7673C75.2313 33.9268 75.2418 34.0757 75.2418 34.2245C75.2418 40.2419 75.2208 46.27 75.2523 52.2874C75.2628 54.1054 74.1222 55.3173 72.898 55.5301C72.197 55.6576 71.4646 55.6044 70.7426 55.6258C70.5647 55.6469 70.3869 55.6469 70.1462 55.6469Z" fill="#5ADB87"/>
<path d="M76.3908 42.132C76.3908 40.027 76.349 37.9114 76.4013 35.8063C76.4431 34.3604 77.6777 33.2441 79.1217 33.2229C80.6285 33.191 81.8632 34.2647 82.0097 35.7425C82.0409 36.0296 82.0514 36.3166 82.0514 36.6143C82.0514 40.3886 82.0514 44.1626 82.0514 47.9368C82.0514 49.0106 81.748 49.9249 80.869 50.5735C79.9903 51.2113 79.0276 51.3283 78.0545 50.8817C77.0815 50.4458 76.4326 49.6591 76.4013 48.5535C76.3593 46.406 76.3908 44.2689 76.3908 42.132Z" fill="#5ADB87"/>
<path d="M48.605 42.1865C48.605 44.2915 48.6468 46.4073 48.5945 48.5123C48.5527 49.99 47.318 51.1063 45.8531 51.1169C44.3569 51.1383 43.1327 50.0538 42.9862 48.576C42.9548 48.289 42.9443 48.0019 42.9443 47.7043C42.9443 43.9301 42.9443 40.1559 42.9443 36.3817C42.9443 35.0953 43.4152 34.096 44.5766 33.5006C46.324 32.6075 48.5317 33.8408 48.605 35.8076C48.6678 37.9338 48.605 40.0602 48.605 42.1865Z" fill="#5ADB87"/>
</mask>
<g mask="url(#mask0_1688_47693)">
<path d="M90.9447 12.6666H37.6113V71.3333H90.9447V12.6666Z" fill="url(#paint0_linear_1688_47693)"/>
</g>
</g>
<path opacity="0.55" d="M108.074 31V21.2H116.516V31H115.144V22.054L115.48 22.418H109.11L109.46 22.054V31H108.074ZM123.282 31.084C122.666 31.084 122.101 30.944 121.588 30.664C121.084 30.3747 120.678 29.95 120.37 29.39C120.071 28.83 119.922 28.13 119.922 27.29C119.922 26.45 120.067 25.75 120.356 25.19C120.655 24.63 121.056 24.21 121.56 23.93C122.073 23.65 122.647 23.51 123.282 23.51C124.01 23.51 124.654 23.6687 125.214 23.986C125.774 24.3033 126.217 24.7467 126.544 25.316C126.871 25.876 127.034 26.534 127.034 27.29C127.034 28.046 126.871 28.7087 126.544 29.278C126.217 29.8473 125.774 30.2907 125.214 30.608C124.654 30.9253 124.01 31.084 123.282 31.084ZM119.348 33.716V23.58H120.636V25.582L120.552 27.304L120.692 29.026V33.716H119.348ZM123.17 29.908C123.646 29.908 124.071 29.8007 124.444 29.586C124.827 29.3713 125.125 29.068 125.34 28.676C125.564 28.2747 125.676 27.8127 125.676 27.29C125.676 26.758 125.564 26.3007 125.34 25.918C125.125 25.526 124.827 25.2227 124.444 25.008C124.071 24.7933 123.646 24.686 123.17 24.686C122.703 24.686 122.279 24.7933 121.896 25.008C121.523 25.2227 121.224 25.526 121 25.918C120.785 26.3007 120.678 26.758 120.678 27.29C120.678 27.8127 120.785 28.2747 121 28.676C121.224 29.068 121.523 29.3713 121.896 29.586C122.279 29.8007 122.703 29.908 123.17 29.908ZM128.987 31V23.58H130.331V28.984L134.881 23.58H136.099V31H134.755V25.596L130.219 31H128.987ZM137.475 30.986L137.559 29.852C137.625 29.8613 137.685 29.8707 137.741 29.88C137.797 29.8893 137.849 29.894 137.895 29.894C138.194 29.894 138.427 29.7913 138.595 29.586C138.773 29.3807 138.903 29.11 138.987 28.774C139.071 28.4287 139.132 28.0413 139.169 27.612C139.207 27.1827 139.235 26.7533 139.253 26.324L139.379 23.58H145.077V31H143.733V24.364L144.055 24.756H140.247L140.555 24.35L140.457 26.408C140.429 27.0613 140.378 27.6727 140.303 28.242C140.229 28.8113 140.112 29.3107 139.953 29.74C139.804 30.1693 139.594 30.5053 139.323 30.748C139.062 30.9907 138.721 31.112 138.301 31.112C138.18 31.112 138.049 31.098 137.909 31.07C137.779 31.0513 137.634 31.0233 137.475 30.986ZM150.854 31.084C150.107 31.084 149.445 30.9207 148.866 30.594C148.287 30.2673 147.83 29.8193 147.494 29.25C147.158 28.6713 146.99 28.018 146.99 27.29C146.99 26.5527 147.158 25.8993 147.494 25.33C147.83 24.7607 148.287 24.3173 148.866 24C149.445 23.6733 150.107 23.51 150.854 23.51C151.591 23.51 152.249 23.6733 152.828 24C153.416 24.3173 153.873 24.7607 154.2 25.33C154.536 25.89 154.704 26.5433 154.704 27.29C154.704 28.0273 154.536 28.6807 154.2 29.25C153.873 29.8193 153.416 30.2673 152.828 30.594C152.249 30.9207 151.591 31.084 150.854 31.084ZM150.854 29.908C151.33 29.908 151.755 29.8007 152.128 29.586C152.511 29.3713 152.809 29.068 153.024 28.676C153.239 28.2747 153.346 27.8127 153.346 27.29C153.346 26.758 153.239 26.3007 153.024 25.918C152.809 25.526 152.511 25.2227 152.128 25.008C151.755 24.7933 151.33 24.686 150.854 24.686C150.378 24.686 149.953 24.7933 149.58 25.008C149.207 25.2227 148.908 25.526 148.684 25.918C148.46 26.3007 148.348 26.758 148.348 27.29C148.348 27.8127 148.46 28.2747 148.684 28.676C148.908 29.068 149.207 29.3713 149.58 29.586C149.953 29.8007 150.378 29.908 150.854 29.908ZM165.205 31L162.839 27.388L163.945 26.716L166.801 31H165.205ZM161.299 27.864V26.716H163.707V27.864H161.299ZM164.071 27.444L162.797 27.276L165.163 23.58H166.605L164.071 27.444ZM156.875 31H155.279L158.121 26.716L159.227 27.388L156.875 31ZM161.705 31H160.361V23.58H161.705V31ZM160.767 27.864H158.373V26.716H160.767V27.864ZM158.009 27.444L155.475 23.58H156.903L159.269 27.276L158.009 27.444ZM171.337 31.084C170.544 31.084 169.844 30.9207 169.237 30.594C168.64 30.2673 168.173 29.8193 167.837 29.25C167.511 28.6807 167.347 28.0273 167.347 27.29C167.347 26.5527 167.506 25.8993 167.823 25.33C168.15 24.7607 168.593 24.3173 169.153 24C169.723 23.6733 170.362 23.51 171.071 23.51C171.79 23.51 172.425 23.6687 172.975 23.986C173.526 24.3033 173.955 24.7513 174.263 25.33C174.581 25.8993 174.739 26.5667 174.739 27.332C174.739 27.388 174.735 27.4533 174.725 27.528C174.725 27.6027 174.721 27.6727 174.711 27.738H168.397V26.772H174.011L173.465 27.108C173.475 26.632 173.377 26.2073 173.171 25.834C172.966 25.4607 172.681 25.1713 172.317 24.966C171.963 24.7513 171.547 24.644 171.071 24.644C170.605 24.644 170.189 24.7513 169.825 24.966C169.461 25.1713 169.177 25.4653 168.971 25.848C168.766 26.2213 168.663 26.6507 168.663 27.136V27.36C168.663 27.8547 168.775 28.298 168.999 28.69C169.233 29.0727 169.555 29.3713 169.965 29.586C170.376 29.8007 170.847 29.908 171.379 29.908C171.818 29.908 172.215 29.8333 172.569 29.684C172.933 29.5347 173.251 29.3107 173.521 29.012L174.263 29.88C173.927 30.272 173.507 30.5707 173.003 30.776C172.509 30.9813 171.953 31.084 171.337 31.084ZM176.824 31V23.58H178.168V26.73H182.396V23.58H183.74V31H182.396V27.892H178.168V31H176.824ZM186.354 31V23.58H187.698V28.984L192.248 23.58H193.466V31H192.122V25.596L187.586 31H186.354ZM199.378 31.084C198.585 31.084 197.885 30.9207 197.278 30.594C196.681 30.2673 196.214 29.8193 195.878 29.25C195.552 28.6807 195.388 28.0273 195.388 27.29C195.388 26.5527 195.547 25.8993 195.864 25.33C196.191 24.7607 196.634 24.3173 197.194 24C197.764 23.6733 198.403 23.51 199.112 23.51C199.831 23.51 200.466 23.6687 201.016 23.986C201.567 24.3033 201.996 24.7513 202.304 25.33C202.622 25.8993 202.78 26.5667 202.78 27.332C202.78 27.388 202.776 27.4533 202.766 27.528C202.766 27.6027 202.762 27.6727 202.752 27.738H196.438V26.772H202.052L201.506 27.108C201.516 26.632 201.418 26.2073 201.212 25.834C201.007 25.4607 200.722 25.1713 200.358 24.966C200.004 24.7513 199.588 24.644 199.112 24.644C198.646 24.644 198.23 24.7513 197.866 24.966C197.502 25.1713 197.218 25.4653 197.012 25.848C196.807 26.2213 196.704 26.6507 196.704 27.136V27.36C196.704 27.8547 196.816 28.298 197.04 28.69C197.274 29.0727 197.596 29.3713 198.006 29.586C198.417 29.8007 198.888 29.908 199.42 29.908C199.859 29.908 200.256 29.8333 200.61 29.684C200.974 29.5347 201.292 29.3107 201.562 29.012L202.304 29.88C201.968 30.272 201.548 30.5707 201.044 30.776C200.55 30.9813 199.994 31.084 199.378 31.084Z" fill="white"/>
<path d="M114.542 62.342V54.418H110.244L110.174 56.476C110.146 57.1667 110.099 57.8293 110.034 58.464C109.978 59.0987 109.894 59.6727 109.782 60.186C109.67 60.69 109.511 61.1053 109.306 61.432C109.11 61.7587 108.858 61.9593 108.55 62.034L107.038 61.782C107.402 61.81 107.701 61.6887 107.934 61.418C108.177 61.138 108.363 60.7507 108.494 60.256C108.634 59.752 108.737 59.1687 108.802 58.506C108.867 57.834 108.914 57.1153 108.942 56.35L109.04 53.2H115.928V62.342H114.542ZM106.688 65.142L106.702 61.782H117.37V65.142H116.068V63H108.004L107.99 65.142H106.688ZM117.828 62.986L117.912 61.852C117.977 61.8613 118.038 61.8707 118.094 61.88C118.15 61.8893 118.201 61.894 118.248 61.894C118.546 61.894 118.78 61.7913 118.948 61.586C119.125 61.3807 119.256 61.11 119.34 60.774C119.424 60.4287 119.484 60.0413 119.522 59.612C119.559 59.1827 119.587 58.7533 119.606 58.324L119.732 55.58H125.43V63H124.086V56.364L124.408 56.756H120.6L120.908 56.35L120.81 58.408C120.782 59.0613 120.73 59.6727 120.656 60.242C120.581 60.8113 120.464 61.3107 120.306 61.74C120.156 62.1693 119.946 62.5053 119.676 62.748C119.414 62.9907 119.074 63.112 118.654 63.112C118.532 63.112 118.402 63.098 118.262 63.07C118.131 63.0513 117.986 63.0233 117.828 62.986ZM132.775 63V60.396L132.985 60.648H130.619C129.629 60.648 128.855 60.438 128.295 60.018C127.744 59.598 127.469 58.9867 127.469 58.184C127.469 57.3253 127.763 56.6767 128.351 56.238C128.948 55.7993 129.741 55.58 130.731 55.58H133.979V63H132.775ZM127.399 63L129.415 60.158H130.801L128.841 63H127.399ZM132.775 59.976V56.378L132.985 56.756H130.773C130.157 56.756 129.681 56.8727 129.345 57.106C129.009 57.33 128.841 57.7033 128.841 58.226C128.841 59.1967 129.466 59.682 130.717 59.682H132.985L132.775 59.976ZM144.288 63V53.2H145.688V63H144.288ZM153.046 63.112C152.3 63.112 151.604 62.986 150.96 62.734C150.326 62.482 149.775 62.132 149.308 61.684C148.842 61.2267 148.478 60.6947 148.216 60.088C147.955 59.4813 147.824 58.8187 147.824 58.1C147.824 57.3813 147.955 56.7187 148.216 56.112C148.478 55.5053 148.842 54.978 149.308 54.53C149.775 54.0727 150.326 53.718 150.96 53.466C151.595 53.214 152.29 53.088 153.046 53.088C153.793 53.088 154.479 53.214 155.104 53.466C155.739 53.7087 156.29 54.0587 156.756 54.516C157.232 54.964 157.596 55.4913 157.848 56.098C158.11 56.7047 158.24 57.372 158.24 58.1C158.24 58.828 158.11 59.4953 157.848 60.102C157.596 60.7087 157.232 61.2407 156.756 61.698C156.29 62.146 155.739 62.496 155.104 62.748C154.479 62.9907 153.793 63.112 153.046 63.112ZM153.046 61.866C153.588 61.866 154.087 61.7727 154.544 61.586C155.011 61.3993 155.412 61.138 155.748 60.802C156.094 60.4567 156.36 60.0553 156.546 59.598C156.742 59.1407 156.84 58.6413 156.84 58.1C156.84 57.5587 156.742 57.0593 156.546 56.602C156.36 56.1447 156.094 55.748 155.748 55.412C155.412 55.0667 155.011 54.8007 154.544 54.614C154.087 54.4273 153.588 54.334 153.046 54.334C152.496 54.334 151.987 54.4273 151.52 54.614C151.063 54.8007 150.662 55.0667 150.316 55.412C149.971 55.748 149.7 56.1447 149.504 56.602C149.318 57.0593 149.224 57.5587 149.224 58.1C149.224 58.6413 149.318 59.1407 149.504 59.598C149.7 60.0553 149.971 60.4567 150.316 60.802C150.662 61.138 151.063 61.3993 151.52 61.586C151.987 61.7727 152.496 61.866 153.046 61.866ZM163.236 63.112C162.489 63.112 161.775 63 161.094 62.776C160.413 62.5427 159.876 62.244 159.484 61.88L160.002 60.788C160.375 61.1147 160.851 61.3853 161.43 61.6C162.009 61.8147 162.611 61.922 163.236 61.922C163.805 61.922 164.267 61.8567 164.622 61.726C164.977 61.5953 165.238 61.418 165.406 61.194C165.574 60.9607 165.658 60.6993 165.658 60.41C165.658 60.074 165.546 59.8033 165.322 59.598C165.107 59.3927 164.823 59.2293 164.468 59.108C164.123 58.9773 163.74 58.8653 163.32 58.772C162.9 58.6787 162.475 58.5713 162.046 58.45C161.626 58.3193 161.239 58.156 160.884 57.96C160.539 57.764 160.259 57.5027 160.044 57.176C159.829 56.84 159.722 56.4107 159.722 55.888C159.722 55.384 159.853 54.922 160.114 54.502C160.385 54.0727 160.795 53.732 161.346 53.48C161.906 53.2187 162.615 53.088 163.474 53.088C164.043 53.088 164.608 53.1627 165.168 53.312C165.728 53.4613 166.213 53.676 166.624 53.956L166.162 55.076C165.742 54.796 165.299 54.5953 164.832 54.474C164.365 54.3433 163.913 54.278 163.474 54.278C162.923 54.278 162.471 54.348 162.116 54.488C161.761 54.628 161.5 54.8147 161.332 55.048C161.173 55.2813 161.094 55.5427 161.094 55.832C161.094 56.1773 161.201 56.4527 161.416 56.658C161.64 56.8633 161.925 57.0267 162.27 57.148C162.625 57.2693 163.012 57.3813 163.432 57.484C163.852 57.5773 164.272 57.6847 164.692 57.806C165.121 57.9273 165.509 58.086 165.854 58.282C166.209 58.478 166.493 58.7393 166.708 59.066C166.923 59.3927 167.03 59.8127 167.03 60.326C167.03 60.8207 166.895 61.2827 166.624 61.712C166.353 62.132 165.933 62.4727 165.364 62.734C164.804 62.986 164.095 63.112 163.236 63.112Z" fill="white"/>
<defs>
<linearGradient id="paint0_linear_1688_47693" x1="64.278" y1="12.6666" x2="64.278" y2="71.3333" gradientUnits="userSpaceOnUse">
<stop stop-color="#26CD51"/>
<stop offset="1" stop-color="#067221"/>
</linearGradient>
<clipPath id="clip0_1688_47693">
<rect width="39.1111" height="48" fill="white" transform="translate(42.9443 18)"/>
</clipPath>
</defs>
</svg>
