<svg width="247" height="84" viewBox="0 0 247 84" fill="none" xmlns="http://www.w3.org/2000/svg">
<path d="M24.8728 1.58086C25.0612 0.943365 25.6466 0.505859 26.3114 0.505859H244.324C245.326 0.505859 246.046 1.46975 245.762 2.43086L222.127 82.4309C221.939 83.0684 221.353 83.5059 220.689 83.5059H2.67633C1.67416 83.5059 0.953854 82.542 1.2378 81.5809L24.8728 1.58086Z" fill="#121120" stroke="#FA00FF"/>
<g clipPath="url(#clip0_1688_47685)">
<path d="M71.6045 64.6769C71.1909 64.6769 70.766 64.6769 70.3524 64.6769C69.3018 64.2886 68.2286 63.9346 67.189 63.5006C64.73 62.4727 62.2707 62.4612 59.7892 63.3749C58.6043 63.809 57.4194 64.243 56.2457 64.6769C55.7651 64.6769 55.2956 64.6769 54.8149 64.6769C54.7926 64.6541 54.7702 64.6198 54.7479 64.6198C53.0823 64.3457 51.7969 63.3864 50.6455 62.2099C49.1477 60.6681 47.9628 58.8864 46.9009 57.0134C44.1734 52.205 42.6867 47.0539 43.0556 41.4461C43.1898 39.4017 43.6369 37.4145 44.5982 35.5985C45.9619 33.0401 47.9404 31.1213 50.5226 29.865C52.3334 28.9855 54.2449 28.6543 56.2122 29.0883C57.5089 29.3739 58.7832 29.8193 60.0574 30.2305C61.3877 30.6645 62.7179 31.087 64.1151 30.8129C65.0988 30.6188 66.0712 30.299 67.0103 29.9449C68.4075 29.4424 69.8047 28.997 71.2914 28.917C74.1978 28.7685 76.6792 29.8307 78.859 31.7038C79.5184 32.2749 80.0997 32.9373 80.7369 33.5883C77.0816 35.8497 75.2708 39.0705 75.6062 43.3306C75.9414 47.568 78.1772 50.5375 82 52.2393C81.9776 52.3306 81.9552 52.3877 81.9328 52.4448C80.7705 55.2315 79.2837 57.8127 77.4841 60.2112C75.9414 62.2671 74.2648 64.163 71.6045 64.6769Z" fill="url(#paint0_linear_1688_47685)"/>
<path d="M71.0411 18C71.846 23.3109 67.2071 29.387 61.8975 29.17C61.0144 24.9555 64.8486 18.6739 71.0411 18Z" fill="url(#paint1_linear_1688_47685)"/>
</g>
<path opacity="0.55" d="M108.018 31V21.2H116.46V31H115.088V22.054L115.424 22.418H109.054L109.404 22.054V31H108.018ZM123.226 31.084C122.61 31.084 122.046 30.944 121.532 30.664C121.028 30.3747 120.622 29.95 120.314 29.39C120.016 28.83 119.866 28.13 119.866 27.29C119.866 26.45 120.011 25.75 120.3 25.19C120.599 24.63 121 24.21 121.504 23.93C122.018 23.65 122.592 23.51 123.226 23.51C123.954 23.51 124.598 23.6687 125.158 23.986C125.718 24.3033 126.162 24.7467 126.488 25.316C126.815 25.876 126.978 26.534 126.978 27.29C126.978 28.046 126.815 28.7087 126.488 29.278C126.162 29.8473 125.718 30.2907 125.158 30.608C124.598 30.9253 123.954 31.084 123.226 31.084ZM119.292 33.716V23.58H120.58V25.582L120.496 27.304L120.636 29.026V33.716H119.292ZM123.114 29.908C123.59 29.908 124.015 29.8007 124.388 29.586C124.771 29.3713 125.07 29.068 125.284 28.676C125.508 28.2747 125.62 27.8127 125.62 27.29C125.62 26.758 125.508 26.3007 125.284 25.918C125.07 25.526 124.771 25.2227 124.388 25.008C124.015 24.7933 123.59 24.686 123.114 24.686C122.648 24.686 122.223 24.7933 121.84 25.008C121.467 25.2227 121.168 25.526 120.944 25.918C120.73 26.3007 120.622 26.758 120.622 27.29C120.622 27.8127 120.73 28.2747 120.944 28.676C121.168 29.068 121.467 29.3713 121.84 29.586C122.223 29.8007 122.648 29.908 123.114 29.908ZM128.931 31V23.58H130.275V28.984L134.825 23.58H136.043V31H134.699V25.596L130.163 31H128.931ZM137.42 30.986L137.504 29.852C137.569 29.8613 137.63 29.8707 137.686 29.88C137.742 29.8893 137.793 29.894 137.84 29.894C138.138 29.894 138.372 29.7913 138.54 29.586C138.717 29.3807 138.848 29.11 138.932 28.774C139.016 28.4287 139.076 28.0413 139.114 27.612C139.151 27.1827 139.179 26.7533 139.198 26.324L139.324 23.58H145.022V31H143.678V24.364L144 24.756H140.192L140.5 24.35L140.402 26.408C140.374 27.0613 140.322 27.6727 140.248 28.242C140.173 28.8113 140.056 29.3107 139.898 29.74C139.748 30.1693 139.538 30.5053 139.268 30.748C139.006 30.9907 138.666 31.112 138.246 31.112C138.124 31.112 137.994 31.098 137.854 31.07C137.723 31.0513 137.578 31.0233 137.42 30.986ZM150.798 31.084C150.052 31.084 149.389 30.9207 148.81 30.594C148.232 30.2673 147.774 29.8193 147.438 29.25C147.102 28.6713 146.934 28.018 146.934 27.29C146.934 26.5527 147.102 25.8993 147.438 25.33C147.774 24.7607 148.232 24.3173 148.81 24C149.389 23.6733 150.052 23.51 150.798 23.51C151.536 23.51 152.194 23.6733 152.772 24C153.36 24.3173 153.818 24.7607 154.144 25.33C154.48 25.89 154.648 26.5433 154.648 27.29C154.648 28.0273 154.48 28.6807 154.144 29.25C153.818 29.8193 153.36 30.2673 152.772 30.594C152.194 30.9207 151.536 31.084 150.798 31.084ZM150.798 29.908C151.274 29.908 151.699 29.8007 152.072 29.586C152.455 29.3713 152.754 29.068 152.968 28.676C153.183 28.2747 153.29 27.8127 153.29 27.29C153.29 26.758 153.183 26.3007 152.968 25.918C152.754 25.526 152.455 25.2227 152.072 25.008C151.699 24.7933 151.274 24.686 150.798 24.686C150.322 24.686 149.898 24.7933 149.524 25.008C149.151 25.2227 148.852 25.526 148.628 25.918C148.404 26.3007 148.292 26.758 148.292 27.29C148.292 27.8127 148.404 28.2747 148.628 28.676C148.852 29.068 149.151 29.3713 149.524 29.586C149.898 29.8007 150.322 29.908 150.798 29.908ZM165.149 31L162.783 27.388L163.889 26.716L166.745 31H165.149ZM161.243 27.864V26.716H163.651V27.864H161.243ZM164.015 27.444L162.741 27.276L165.107 23.58H166.549L164.015 27.444ZM156.819 31H155.223L158.065 26.716L159.171 27.388L156.819 31ZM161.649 31H160.305V23.58H161.649V31ZM160.711 27.864H158.317V26.716H160.711V27.864ZM157.953 27.444L155.419 23.58H156.847L159.213 27.276L157.953 27.444ZM171.282 31.084C170.488 31.084 169.788 30.9207 169.182 30.594C168.584 30.2673 168.118 29.8193 167.782 29.25C167.455 28.6807 167.292 28.0273 167.292 27.29C167.292 26.5527 167.45 25.8993 167.768 25.33C168.094 24.7607 168.538 24.3173 169.098 24C169.667 23.6733 170.306 23.51 171.016 23.51C171.734 23.51 172.369 23.6687 172.92 23.986C173.47 24.3033 173.9 24.7513 174.208 25.33C174.525 25.8993 174.684 26.5667 174.684 27.332C174.684 27.388 174.679 27.4533 174.67 27.528C174.67 27.6027 174.665 27.6727 174.656 27.738H168.342V26.772H173.956L173.41 27.108C173.419 26.632 173.321 26.2073 173.116 25.834C172.91 25.4607 172.626 25.1713 172.262 24.966C171.907 24.7513 171.492 24.644 171.016 24.644C170.549 24.644 170.134 24.7513 169.77 24.966C169.406 25.1713 169.121 25.4653 168.916 25.848C168.71 26.2213 168.608 26.6507 168.608 27.136V27.36C168.608 27.8547 168.72 28.298 168.944 28.69C169.177 29.0727 169.499 29.3713 169.91 29.586C170.32 29.8007 170.792 29.908 171.324 29.908C171.762 29.908 172.159 29.8333 172.514 29.684C172.878 29.5347 173.195 29.3107 173.466 29.012L174.208 29.88C173.872 30.272 173.452 30.5707 172.948 30.776C172.453 30.9813 171.898 31.084 171.282 31.084ZM176.769 31V23.58H178.113V26.73H182.341V23.58H183.685V31H182.341V27.892H178.113V31H176.769ZM186.298 31V23.58H187.642V28.984L192.192 23.58H193.41V31H192.066V25.596L187.53 31H186.298ZM199.323 31.084C198.529 31.084 197.829 30.9207 197.223 30.594C196.625 30.2673 196.159 29.8193 195.823 29.25C195.496 28.6807 195.333 28.0273 195.333 27.29C195.333 26.5527 195.491 25.8993 195.809 25.33C196.135 24.7607 196.579 24.3173 197.139 24C197.708 23.6733 198.347 23.51 199.057 23.51C199.775 23.51 200.41 23.6687 200.961 23.986C201.511 24.3033 201.941 24.7513 202.249 25.33C202.566 25.8993 202.725 26.5667 202.725 27.332C202.725 27.388 202.72 27.4533 202.711 27.528C202.711 27.6027 202.706 27.6727 202.697 27.738H196.383V26.772H201.997L201.451 27.108C201.46 26.632 201.362 26.2073 201.157 25.834C200.951 25.4607 200.667 25.1713 200.303 24.966C199.948 24.7513 199.533 24.644 199.057 24.644C198.59 24.644 198.175 24.7513 197.811 24.966C197.447 25.1713 197.162 25.4653 196.957 25.848C196.751 26.2213 196.649 26.6507 196.649 27.136V27.36C196.649 27.8547 196.761 28.298 196.985 28.69C197.218 29.0727 197.54 29.3713 197.951 29.586C198.361 29.8007 198.833 29.908 199.365 29.908C199.803 29.908 200.2 29.8333 200.555 29.684C200.919 29.5347 201.236 29.3107 201.507 29.012L202.249 29.88C201.913 30.272 201.493 30.5707 200.989 30.776C200.494 30.9813 199.939 31.084 199.323 31.084Z" fill="white"/>
<path d="M114.258 62.342V54.418H109.96L109.89 56.476C109.862 57.1667 109.815 57.8293 109.75 58.464C109.694 59.0987 109.61 59.6727 109.498 60.186C109.386 60.69 109.227 61.1053 109.022 61.432C108.826 61.7587 108.574 61.9593 108.266 62.034L106.754 61.782C107.118 61.81 107.416 61.6887 107.65 61.418C107.892 61.138 108.079 60.7507 108.21 60.256C108.35 59.752 108.452 59.1687 108.518 58.506C108.583 57.834 108.63 57.1153 108.658 56.35L108.756 53.2H115.644V62.342H114.258ZM106.404 65.142L106.418 61.782H117.086V65.142H115.784V63H107.72L107.706 65.142H106.404ZM117.544 62.986L117.628 61.852C117.693 61.8613 117.754 61.8707 117.81 61.88C117.866 61.8893 117.917 61.894 117.964 61.894C118.262 61.894 118.496 61.7913 118.664 61.586C118.841 61.3807 118.972 61.11 119.056 60.774C119.14 60.4287 119.2 60.0413 119.238 59.612C119.275 59.1827 119.303 58.7533 119.322 58.324L119.448 55.58H125.146V63H123.802V56.364L124.124 56.756H120.316L120.624 56.35L120.526 58.408C120.498 59.0613 120.446 59.6727 120.372 60.242C120.297 60.8113 120.18 61.3107 120.022 61.74C119.872 62.1693 119.662 62.5053 119.392 62.748C119.13 62.9907 118.79 63.112 118.37 63.112C118.248 63.112 118.118 63.098 117.978 63.07C117.847 63.0513 117.702 63.0233 117.544 62.986ZM132.49 63V60.396L132.7 60.648H130.334C129.345 60.648 128.57 60.438 128.01 60.018C127.46 59.598 127.184 58.9867 127.184 58.184C127.184 57.3253 127.478 56.6767 128.066 56.238C128.664 55.7993 129.457 55.58 130.446 55.58H133.694V63H132.49ZM127.114 63L129.13 60.158H130.516L128.556 63H127.114ZM132.49 59.976V56.378L132.7 56.756H130.488C129.872 56.756 129.396 56.8727 129.06 57.106C128.724 57.33 128.556 57.7033 128.556 58.226C128.556 59.1967 129.182 59.682 130.432 59.682H132.7L132.49 59.976ZM142.52 63L146.958 53.2H148.344L152.796 63H151.326L147.364 53.984H147.924L143.962 63H142.52ZM144.41 60.55L144.788 59.43H150.304L150.71 60.55H144.41ZM158.024 55.51C158.631 55.51 159.163 55.6267 159.62 55.86C160.087 56.0933 160.451 56.448 160.712 56.924C160.973 57.4 161.104 58.002 161.104 58.73V63H159.76V58.884C159.76 58.1653 159.583 57.624 159.228 57.26C158.883 56.896 158.393 56.714 157.758 56.714C157.282 56.714 156.867 56.8073 156.512 56.994C156.157 57.1807 155.882 57.456 155.686 57.82C155.499 58.184 155.406 58.6367 155.406 59.178V63H154.062V55.58H155.35V57.582L155.14 57.05C155.383 56.5647 155.756 56.1867 156.26 55.916C156.764 55.6453 157.352 55.51 158.024 55.51ZM166.657 63.084C165.939 63.084 165.295 62.9253 164.725 62.608C164.165 62.2907 163.722 61.8473 163.395 61.278C163.069 60.7087 162.905 60.046 162.905 59.29C162.905 58.534 163.069 57.876 163.395 57.316C163.722 56.7467 164.165 56.3033 164.725 55.986C165.295 55.6687 165.939 55.51 166.657 55.51C167.283 55.51 167.847 55.65 168.351 55.93C168.855 56.21 169.257 56.63 169.555 57.19C169.863 57.75 170.017 58.45 170.017 59.29C170.017 60.13 169.868 60.83 169.569 61.39C169.28 61.95 168.883 62.3747 168.379 62.664C167.875 62.944 167.301 63.084 166.657 63.084ZM166.769 61.908C167.236 61.908 167.656 61.8007 168.029 61.586C168.412 61.3713 168.711 61.068 168.925 60.676C169.149 60.2747 169.261 59.8127 169.261 59.29C169.261 58.758 169.149 58.3007 168.925 57.918C168.711 57.526 168.412 57.2227 168.029 57.008C167.656 56.7933 167.236 56.686 166.769 56.686C166.293 56.686 165.869 56.7933 165.495 57.008C165.122 57.2227 164.823 57.526 164.599 57.918C164.375 58.3007 164.263 58.758 164.263 59.29C164.263 59.8127 164.375 60.2747 164.599 60.676C164.823 61.068 165.122 61.3713 165.495 61.586C165.869 61.8007 166.293 61.908 166.769 61.908ZM169.303 63V60.998L169.387 59.276L169.247 57.554V52.612H170.591V63H169.303ZM173.134 63V55.58H174.422V57.596L174.296 57.092C174.502 56.5787 174.847 56.1867 175.332 55.916C175.818 55.6453 176.415 55.51 177.124 55.51V56.812C177.068 56.8027 177.012 56.798 176.956 56.798C176.91 56.798 176.863 56.798 176.816 56.798C176.098 56.798 175.528 57.0127 175.108 57.442C174.688 57.8713 174.478 58.492 174.478 59.304V63H173.134ZM181.89 63.084C181.144 63.084 180.481 62.9207 179.902 62.594C179.324 62.2673 178.866 61.8193 178.53 61.25C178.194 60.6713 178.026 60.018 178.026 59.29C178.026 58.5527 178.194 57.8993 178.53 57.33C178.866 56.7607 179.324 56.3173 179.902 56C180.481 55.6733 181.144 55.51 181.89 55.51C182.628 55.51 183.286 55.6733 183.864 56C184.452 56.3173 184.91 56.7607 185.236 57.33C185.572 57.89 185.74 58.5433 185.74 59.29C185.74 60.0273 185.572 60.6807 185.236 61.25C184.91 61.8193 184.452 62.2673 183.864 62.594C183.286 62.9207 182.628 63.084 181.89 63.084ZM181.89 61.908C182.366 61.908 182.791 61.8007 183.164 61.586C183.547 61.3713 183.846 61.068 184.06 60.676C184.275 60.2747 184.382 59.8127 184.382 59.29C184.382 58.758 184.275 58.3007 184.06 57.918C183.846 57.526 183.547 57.2227 183.164 57.008C182.791 56.7933 182.366 56.686 181.89 56.686C181.414 56.686 180.99 56.7933 180.616 57.008C180.243 57.2227 179.944 57.526 179.72 57.918C179.496 58.3007 179.384 58.758 179.384 59.29C179.384 59.8127 179.496 60.2747 179.72 60.676C179.944 61.068 180.243 61.3713 180.616 61.586C180.99 61.8007 181.414 61.908 181.89 61.908ZM187.599 63V55.58H188.943V63H187.599ZM188.271 54.152C188.01 54.152 187.791 54.068 187.613 53.9C187.445 53.732 187.361 53.5267 187.361 53.284C187.361 53.032 187.445 52.822 187.613 52.654C187.791 52.486 188.01 52.402 188.271 52.402C188.533 52.402 188.747 52.486 188.915 52.654C189.093 52.8127 189.181 53.0133 189.181 53.256C189.181 53.508 189.097 53.7227 188.929 53.9C188.761 54.068 188.542 54.152 188.271 54.152ZM194.575 63.084C193.857 63.084 193.213 62.9253 192.643 62.608C192.083 62.2907 191.64 61.8473 191.313 61.278C190.987 60.7087 190.823 60.046 190.823 59.29C190.823 58.534 190.987 57.876 191.313 57.316C191.64 56.7467 192.083 56.3033 192.643 55.986C193.213 55.6687 193.857 55.51 194.575 55.51C195.201 55.51 195.765 55.65 196.269 55.93C196.773 56.21 197.175 56.63 197.473 57.19C197.781 57.75 197.935 58.45 197.935 59.29C197.935 60.13 197.786 60.83 197.487 61.39C197.198 61.95 196.801 62.3747 196.297 62.664C195.793 62.944 195.219 63.084 194.575 63.084ZM194.687 61.908C195.154 61.908 195.574 61.8007 195.947 61.586C196.33 61.3713 196.629 61.068 196.843 60.676C197.067 60.2747 197.179 59.8127 197.179 59.29C197.179 58.758 197.067 58.3007 196.843 57.918C196.629 57.526 196.33 57.2227 195.947 57.008C195.574 56.7933 195.154 56.686 194.687 56.686C194.211 56.686 193.787 56.7933 193.413 57.008C193.04 57.2227 192.741 57.526 192.517 57.918C192.293 58.3007 192.181 58.758 192.181 59.29C192.181 59.8127 192.293 60.2747 192.517 60.676C192.741 61.068 193.04 61.3713 193.413 61.586C193.787 61.8007 194.211 61.908 194.687 61.908ZM197.221 63V60.998L197.305 59.276L197.165 57.554V52.612H198.509V63H197.221Z" fill="white"/>
<defs>
<linearGradient id="paint0_linear_1688_47685" x1="62.5" y1="28.8984" x2="62.5" y2="64.6769" gradientUnits="userSpaceOnUse">
<stop stop-color="white"/>
<stop offset="1" stop-color="#7B7B7B"/>
</linearGradient>
<linearGradient id="paint1_linear_1688_47685" x1="66.452" y1="18" x2="66.452" y2="29.1756" gradientUnits="userSpaceOnUse">
<stop stop-color="white"/>
<stop offset="1" stop-color="#7B7B7B"/>
</linearGradient>
<clipPath id="clip0_1688_47685">
<rect width="39" height="48" fill="white" transform="translate(43 18)"/>
</clipPath>
</defs>
</svg>
