<svg width="156" height="15" viewBox="0 0 156 15" fill="none" xmlns="http://www.w3.org/2000/svg">
<path d="M9.20229 10.2605C9.13675 11.4002 8.12738 12.1862 6.98693 12.1076H3.99815V8.26929L6.71164 8.20379C8.20603 8.20379 9.2154 8.9898 9.2154 10.195V10.2605H9.20229ZM8.78281 4.41784C8.70416 5.42655 7.77345 6.13396 6.77719 6.05536H3.99815V2.64932H6.56745C7.8521 2.64932 8.78281 3.35673 8.78281 4.28684V4.41784ZM9.70042 6.98547C11.1293 6.27807 11.5619 5.55756 11.5619 4.14274C11.5619 2.64932 10.7753 1.3655 9.42514 0.723599C8.70416 0.435389 7.8521 0.369889 5.42699 0.369889H0V2.64932H1.07491V12.1207H0V14.4001H7.49816C10.2117 14.4001 12.0731 12.8412 12.0731 10.4832C12.2042 8.9112 11.2079 7.48328 9.70042 6.98547ZM16.2679 7.66668C16.4776 6.54007 17.4608 5.62306 18.6405 5.62306H18.7061C19.8203 5.62306 20.8035 6.54007 20.8035 7.73218L16.2679 7.66668ZM16.1237 9.56623H23.6743C23.7398 8.15139 23.3203 6.81517 22.6256 5.62306C21.7211 4.20824 20.1743 3.43533 18.5619 3.43533C15.6255 3.43533 13.4626 5.76716 13.4626 9.0029C13.4626 12.2386 15.6255 14.5704 18.5619 14.5704C21.0788 14.5704 22.9664 13.1556 23.4514 10.8369L20.7904 10.9024C20.5151 11.8194 19.5975 12.5268 18.6274 12.4482C18.1555 12.4613 16.4121 12.3172 16.1237 9.56623ZM35.8785 14.387H37.4384V7.32608L32.5489 7.31298V7.32608L32.4833 8.62299H35.8129C35.8129 8.9767 35.8129 9.35663 35.7474 9.71033C35.3934 11.5443 33.8335 12.946 31.9196 13.0246C29.5076 13.0246 27.6724 10.5618 27.6724 7.18198C27.6724 2.88512 30.2155 1.40481 31.9196 1.40481C33.047 1.47031 34.1874 2.03361 34.8953 2.95062C35.2492 3.44843 35.5376 3.99864 35.6687 4.62745H37.2286V0.369889H35.7474V2.40042C34.8953 0.920099 33.3354 -0.0624136 31.5657 0.00308737C28.3803 0.00308737 25.8241 3.23883 25.8241 7.32608C25.8241 11.4133 28.3672 14.5704 31.6312 14.5704C32.7586 14.5704 33.899 14.1512 34.8167 13.3783C35.2361 12.9591 35.5901 12.5661 35.8785 12.0683V14.387ZM46.1557 10.6273C45.9459 12.1731 44.5826 13.2866 43.0096 13.3652C41.8691 13.3652 40.8598 12.5268 40.7942 11.3347C40.7942 9.99853 41.8691 9.44833 45.1594 9.016L46.1557 8.8719V10.6273ZM46.1557 14.387H49.2231L49.0789 13.0901H47.5845V7.27368C47.5845 4.61434 45.7231 3.63183 43.5077 3.63183C42.5114 3.63183 41.4365 3.90694 40.65 4.54884C40.0077 5.11215 39.5751 5.85886 39.4309 6.69727H41.0695C41.3579 5.29555 42.1444 4.82395 43.6388 4.82395C45.1463 4.82395 46.0639 5.59686 46.0639 6.78897V7.83699L45.0676 7.90249C40.7811 8.32169 38.9983 9.30423 38.9983 11.3347V11.5443C39.1425 13.2997 40.7156 14.7014 42.4983 14.5573C43.9927 14.5573 45.4216 13.7713 46.1426 12.4351V14.387H46.1557ZM63.7475 14.387H66.7101V13.0901H65.2288V6.33047C65.2288 4.49644 64.3112 3.43533 62.6988 3.43533C61.8599 3.43533 61.0864 3.78904 60.4441 4.35234C60.0246 4.77155 59.7363 5.20385 59.461 5.68856C59.1857 4.20824 58.4123 3.42223 56.9965 3.42223C55.0302 3.42223 54.1126 4.98115 53.6145 5.68856L53.549 3.61873H50.4553V4.91565H52.0021V13.0901H50.4553V14.387H55.0302V13.0901H53.4834V7.81078C53.4834 6.82827 54.6763 4.77155 56.3018 4.77155C57.3636 4.77155 57.8486 5.33485 57.8486 6.68417V14.387H60.9423V13.0901H59.3823V7.67978C59.3823 6.90687 60.3655 4.70605 62.2007 4.70605C63.2494 4.70605 63.7475 5.41345 63.7475 6.89377V14.387ZM77.4592 8.9636C77.4592 11.5836 76.3318 13.208 74.5097 13.208C72.8187 13.0639 71.4947 11.6491 71.4947 9.89373L71.4292 8.05969C71.4292 6.50077 72.976 4.81085 74.5228 4.81085C76.2663 4.79775 77.4592 6.35667 77.4592 8.9636ZM79.1502 9.1863C79.1502 6.08156 77.3281 3.61873 74.9292 3.61873C73.1071 3.61873 71.9011 5.15145 71.4816 5.92436V0.00308737H68.5322V1.3H69.9348V13.0901H68.4535V14.387H71.4816V12.4351C72.1108 13.2866 73.0285 14.5704 74.9292 14.5704C77.1839 14.5704 79.1502 12.0814 79.1502 9.1863ZM79.9761 14.387H84.5248V13.0901H83.109V0.00308737H80.0547V1.2083H81.5491V13.0901H79.9892V14.387H79.9761ZM87.5004 8.17759C87.5004 7.82389 87.6446 7.47018 87.7102 7.12958C88.0641 5.85886 89.1915 4.95495 90.5285 4.87635C91.1578 4.81085 91.8001 5.08595 92.2982 5.50516C93.0061 6.27807 93.36 7.19508 93.36 8.17759H87.5004ZM87.4349 9.36973H95.1297C95.1297 5.64926 93.0192 3.60563 90.3975 3.60563C87.7888 3.60563 85.7439 5.98986 85.7439 9.0815C85.7439 12.3172 87.7888 14.5573 90.6858 14.5573C92.0229 14.5573 93.2289 13.994 94.0679 13.0115C94.4874 12.5137 94.7758 12.029 94.92 11.4002L93.1634 11.4657C92.5997 12.7364 91.8263 13.2866 90.6203 13.2866C89.9124 13.2866 89.2046 13.0115 88.6409 12.5137C87.933 11.8325 87.5791 10.9155 87.4349 9.36973ZM105.001 9.2125H101.33L103.165 2.97682L105.001 9.2125ZM106.626 14.387H109.798V12.16H108.736L104.869 0.369889H101.487L97.6728 12.16H96.611V14.387H99.8619L100.78 11.3478H105.721L106.626 14.387ZM124.414 5.66236H125.332V3.61873H121.098V5.66236H122.16L120.744 11.9504L118.987 3.61873H116.235L114.465 12.0945L112.997 5.66236H114.046V3.61873H109.811V5.66236H110.729L113.049 14.387H115.868L117.559 6.91997L119.328 14.387H122.147L124.414 5.66236ZM132.883 10.4308C132.817 11.7015 131.755 12.684 130.484 12.684C129.422 12.684 128.714 12.1207 128.714 11.2823C128.714 9.80203 130.34 9.59243 132.804 9.38283H132.87V10.3653V10.4308H132.883ZM132.961 14.387H136.278V12.3303H135.36L135.426 7.33918C135.426 4.95495 133.866 3.61873 130.903 3.61873C128.36 3.61873 126.669 4.95495 126.525 7.06408L129.068 7.12958V7.06408C129.134 6.08156 129.632 5.45275 130.969 5.45275C132.306 5.45275 132.87 5.95056 132.87 7.56188C129.474 7.83699 125.948 8.19069 125.948 11.2823C125.948 13.1818 127.574 14.5835 129.697 14.5835C130.969 14.5835 132.175 14.0857 132.948 13.1163V14.387H132.961ZM143.933 5.93746C144.353 5.93746 144.772 6.00296 145.192 6.08156V3.57943C144.772 3.51393 144.418 3.43533 143.999 3.43533C142.806 3.43533 142.033 4.01174 141.338 5.37415V3.61873H137.759V5.72786H138.808V12.3303H137.759V14.387H142.662V12.3303H141.403V8.16449C141.482 6.86757 142.596 5.87196 143.933 5.93746ZM148.521 7.66668C148.731 6.54007 149.714 5.62306 150.894 5.62306H150.96C152.074 5.62306 153.057 6.54007 153.057 7.73218L148.521 7.66668ZM148.443 9.56623H155.993C156.059 8.15139 155.639 6.81517 154.945 5.62306C154.04 4.20824 152.493 3.43533 150.881 3.43533C147.945 3.43533 145.769 5.76716 145.769 9.0029C145.769 12.2386 147.931 14.5704 150.881 14.5704C153.398 14.5704 155.285 13.1556 155.77 10.8369L153.109 10.9024C152.834 11.8194 151.916 12.5268 150.946 12.4482C150.475 12.4613 148.731 12.3172 148.443 9.56623Z" fill="white"/>
</svg>
