<svg width="116" height="12" viewBox="0 0 116 12" fill="none" xmlns="http://www.w3.org/2000/svg">
<path d="M6.84274 8.2371C6.794 9.09593 6.04344 9.68823 5.19542 9.629H2.97299V6.73662L4.99071 6.68726C6.10193 6.68726 6.85249 7.27956 6.85249 8.18775V8.2371H6.84274ZM6.53082 3.83434C6.47233 4.59445 5.78027 5.12753 5.03946 5.0683H2.97299V2.50166H4.8835C5.83875 2.50166 6.53082 3.03473 6.53082 3.73562V3.83434ZM7.21314 5.76919C8.27565 5.23612 8.59732 4.69318 8.59732 3.62703C8.59732 2.50166 8.01241 1.53423 7.00845 1.05052C6.47233 0.833339 5.83875 0.783981 4.03546 0.783981H0V2.50166H0.799293V9.63887H0V11.3565H5.57556C7.59333 11.3565 8.97745 10.1818 8.97745 8.40492C9.07493 7.22033 8.33409 6.14431 7.21314 5.76919ZM12.0967 6.28252C12.2526 5.43355 12.9837 4.74254 13.8609 4.74254H13.9097C14.7382 4.74254 15.4693 5.43355 15.4693 6.33187L12.0967 6.28252ZM11.9894 7.71393H17.604C17.6527 6.64777 17.3408 5.64086 16.8242 4.74254C16.1516 3.67639 15.0014 3.09396 13.8025 3.09396C11.619 3.09396 10.0107 4.85112 10.0107 7.28943C10.0107 9.72771 11.619 11.4849 13.8025 11.4849C15.674 11.4849 17.0776 10.4187 17.4382 8.67145L15.4595 8.72081C15.2548 9.41182 14.5725 9.94489 13.8512 9.88566C13.5003 9.89553 12.2039 9.78694 11.9894 7.71393ZM26.6789 11.3467H27.8388V6.02586L24.2031 6.01598V6.02586L24.1543 7.00315H26.6301C26.6301 7.26969 26.6301 7.55599 26.5814 7.82252C26.3182 9.20452 25.1583 10.2608 23.7351 10.32C21.9416 10.32 20.5769 8.46415 20.5769 5.91727C20.5769 2.67935 22.468 1.56385 23.7351 1.56385C24.5734 1.61321 25.4214 2.03769 25.9478 2.7287C26.211 3.10383 26.4254 3.51845 26.5229 3.99229H27.6828V0.783981H26.5814V2.3141C25.9478 1.19859 24.7879 0.458217 23.472 0.507576C21.1033 0.507576 19.2026 2.94589 19.2026 6.02586C19.2026 9.1058 21.0936 11.4849 23.5207 11.4849C24.359 11.4849 25.207 11.169 25.8894 10.5865C26.2012 10.2706 26.4645 9.9745 26.6789 9.59938V11.3467ZM34.321 8.51351C34.1649 9.67835 33.1512 10.5174 31.9815 10.5767C31.1335 10.5767 30.383 9.94489 30.3342 9.04657C30.3342 8.03969 31.1335 7.62509 33.5801 7.2993L34.321 7.19072V8.51351ZM34.321 11.3467H36.6018L36.4946 10.3694H35.3834V5.98637C35.3834 3.98241 33.9993 3.24203 32.3519 3.24203C31.6111 3.24203 30.8118 3.44934 30.227 3.93305C29.7494 4.35754 29.4277 4.92022 29.3205 5.55201H30.5389C30.7534 4.49574 31.3382 4.14036 32.4494 4.14036C33.5704 4.14036 34.2527 4.72279 34.2527 5.62111V6.41085L33.5119 6.46021C30.3244 6.7761 28.9988 7.5165 28.9988 9.04657V9.20452C29.106 10.5273 30.2757 11.5836 31.6013 11.475C32.7126 11.475 33.7751 10.8827 34.3112 9.87578V11.3467H34.321ZM47.4021 11.3467H49.605V10.3694H48.5035V5.27561C48.5035 3.89357 47.8212 3.09396 46.6222 3.09396C45.9985 3.09396 45.4233 3.3605 44.9457 3.78498C44.6337 4.10088 44.4194 4.42664 44.2146 4.79189C44.0099 3.67639 43.4348 3.08409 42.3821 3.08409C40.9199 3.08409 40.2376 4.25882 39.8672 4.79189L39.8185 3.23216H37.5181V4.20946H38.6683V10.3694H37.5181V11.3467H40.9199V10.3694H39.7698V6.3911C39.7698 5.65073 40.6568 4.10088 41.8655 4.10088C42.655 4.10088 43.0157 4.52535 43.0157 5.54214V11.3467H45.3161V10.3694H44.1561V6.29239C44.1561 5.70996 44.8872 4.05152 46.2519 4.05152C47.0317 4.05152 47.4021 4.58458 47.4021 5.70009V11.3467ZM57.5979 7.25982C57.5979 9.23413 56.7596 10.4582 55.4047 10.4582C54.1473 10.3496 53.1628 9.28349 53.1628 7.96072L53.1141 6.57867C53.1141 5.40394 54.2643 4.13049 55.4145 4.13049C56.7109 4.12062 57.5979 5.29535 57.5979 7.25982ZM58.8554 7.42763C58.8554 5.08804 57.5005 3.23216 55.7167 3.23216C54.3618 3.23216 53.465 4.38715 53.1531 4.96958V0.507576H50.9599V1.48487H52.0029V10.3694H50.9014V11.3467H53.1531V9.87578C53.6209 10.5174 54.3033 11.4849 55.7167 11.4849C57.3932 11.4849 58.8554 9.60925 58.8554 7.42763ZM59.4695 11.3467H62.8519V10.3694H61.7991V0.507576H59.5279V1.41577H60.6392V10.3694H59.4792V11.3467H59.4695ZM65.0645 6.66752C65.0645 6.40098 65.1717 6.13444 65.2205 5.87778C65.4837 4.92022 66.322 4.23908 67.3162 4.17985C67.7841 4.13049 68.2617 4.33779 68.6321 4.65369C69.1585 5.23612 69.4216 5.92714 69.4216 6.66752H65.0645ZM65.0158 7.56586H70.7376C70.7376 4.76228 69.1682 3.22229 67.2187 3.22229C65.2789 3.22229 63.7584 5.01894 63.7584 7.34866C63.7584 9.78694 65.2789 11.475 67.4331 11.475C68.4274 11.475 69.3242 11.0505 69.948 10.3101C70.26 9.93501 70.4744 9.56977 70.5816 9.09593L69.2754 9.14529C68.8563 10.1028 68.2812 10.5174 67.3844 10.5174C66.858 10.5174 66.3317 10.3101 65.9126 9.93501C65.3862 9.42169 65.123 8.73068 65.0158 7.56586ZM78.0778 7.44738H75.3481L76.7125 2.74845L78.0778 7.44738ZM79.2861 11.3467H81.6448V9.66848H80.8551L77.9796 0.783981H75.4648L72.6286 9.66848H71.8391V11.3467H74.2564L74.9391 9.05645H78.6132L79.2861 11.3467ZM92.5131 4.77215H93.1957V3.23216H90.0474V4.77215H90.8371L89.7841 9.51054L88.4776 3.23216H86.4313L85.1151 9.61912L84.0235 4.77215H84.8036V3.23216H81.6544V4.77215H82.3371L84.0622 11.3467H86.1584L87.4158 5.71983L88.7312 11.3467H90.8274L92.5131 4.77215ZM98.8106 8.36543C98.7615 9.32298 97.9718 10.0633 97.0267 10.0633C96.237 10.0633 95.7105 9.63887 95.7105 9.00709C95.7105 7.89162 96.9196 7.73368 98.7518 7.57573H98.8009V8.31608V8.36543H98.8106ZM98.8686 11.3467H101.335V9.79681H100.652L100.702 6.03573C100.702 4.23908 99.5415 3.23216 97.3383 3.23216C95.4473 3.23216 94.1899 4.23908 94.0828 5.82842L95.9738 5.87778V5.82842C96.0228 5.08804 96.3932 4.6142 97.3873 4.6142C98.3815 4.6142 98.8009 4.98933 98.8009 6.20354C96.2757 6.41085 93.6538 6.67739 93.6538 9.00709C93.6538 10.4385 94.8629 11.4947 96.4415 11.4947C97.3873 11.4947 98.2841 11.1196 98.8589 10.3891V11.3467H98.8686ZM107.027 4.97945C107.34 4.97945 107.651 5.02881 107.963 5.08804V3.20255C107.651 3.15319 107.388 3.09396 107.076 3.09396C106.189 3.09396 105.614 3.52832 105.098 4.55497V3.23216H102.436V4.82151H103.216V9.79681H102.436V11.3467H106.082V9.79681H105.146V6.65764C105.205 5.68034 106.033 4.9301 107.027 4.97945ZM110.439 6.28252C110.595 5.43355 111.326 4.74254 112.203 4.74254H112.252C113.081 4.74254 113.812 5.43355 113.812 6.33187L110.439 6.28252ZM110.381 7.71393H115.995C116.044 6.64777 115.732 5.64086 115.216 4.74254C114.543 3.67639 113.392 3.09396 112.194 3.09396C110.011 3.09396 108.392 4.85112 108.392 7.28943C108.392 9.72771 110 11.4849 112.194 11.4849C114.065 11.4849 115.468 10.4187 115.829 8.67145L113.85 8.72081C113.646 9.41182 112.963 9.94489 112.242 9.88566C111.892 9.89553 110.595 9.78694 110.381 7.71393Z" fill="#27263A"/>
</svg>
