<svg width="234" height="74" viewBox="0 0 234 74" fill="none" xmlns="http://www.w3.org/2000/svg">
<g filter="url(#filter0_d_1688_47673)">
<path fill-rule="evenodd" clip-rule="evenodd" d="M32.5 58V16H28.9141C28.6489 16 28.3945 16.1054 28.207 16.2929L16.7928 27.7071C16.6089 27.891 16.5041 28.139 16.5 28.3986V57.0158C16.5084 57.5608 16.9529 58 17.4999 58H28.3118H32.5Z" fill="#FA00FF"/>
<mask id="path-2-inside-1_1688_47673" fill="white">
<path fill-rule="evenodd" clip-rule="evenodd" d="M17.4999 28.4142V57H28.3118H32.5V58H28.3118H17.4999C16.9529 58 16.5084 57.5608 16.5 57.0158V28.3986C16.5041 28.139 16.6089 27.891 16.7928 27.7071L28.207 16.2929C28.3945 16.1054 28.6489 16 28.9141 16H32.5V17H28.9141L17.4999 28.4142Z"/>
</mask>
<path d="M17.4999 57H16.4999V58H17.4999V57ZM17.4999 28.4142L16.7928 27.7071L16.4999 28V28.4142H17.4999ZM32.5 57H33.5V56H32.5V57ZM32.5 58V59H33.5V58H32.5ZM16.5 57.0158H15.5V57.0235L15.5001 57.0313L16.5 57.0158ZM16.5 28.3986L15.5001 28.383L15.5 28.3908V28.3986H16.5ZM16.7928 27.7071L16.0857 27H16.0857L16.7928 27.7071ZM28.207 16.2929L27.4999 15.5858L27.4999 15.5858L28.207 16.2929ZM32.5 16H33.5V15H32.5V16ZM32.5 17V18H33.5V17H32.5ZM28.9141 17V16H28.4999L28.207 16.2929L28.9141 17ZM18.4999 57V28.4142H16.4999V57H18.4999ZM28.3118 56H17.4999V58H28.3118V56ZM32.5 56H28.3118V58H32.5V56ZM31.5 57V58H33.5V57H31.5ZM32.5 57H28.3118V59H32.5V57ZM28.3118 57H17.4999V59H28.3118V57ZM15.5001 57.0313C15.517 58.1216 16.4058 59 17.4999 59V57L17.4999 57.0003L15.5001 57.0313ZM17.5 57.0158V28.3986H15.5V57.0158H17.5ZM16.0857 27C15.718 27.3677 15.5082 27.8638 15.5001 28.383L17.4999 28.4142L17.4999 28.4142L16.0857 27ZM27.4999 15.5858L16.0857 27L17.4999 28.4142L28.9141 17L27.4999 15.5858ZM28.9141 15C28.3837 15 27.875 15.2107 27.4999 15.5858L28.9141 17L28.9141 17V15ZM28.9141 17H32.5V15H28.9141V17ZM31.5 16V17H33.5V16H31.5ZM28.9141 18H32.5V16H28.9141V18ZM18.207 29.1213L29.6212 17.7071L28.207 16.2929L16.7928 27.7071L18.207 29.1213Z" fill="#FD85FF" mask="url(#path-2-inside-1_1688_47673)"/>
<mask id="path-4-inside-2_1688_47673" fill="white">
<path d="M32.5 16H201.5V58H32.5V16Z"/>
</mask>
<path d="M32.5 16H201.5V58H32.5V16Z" fill="#FA00FF"/>
<path d="M32.5 17H201.5V15H32.5V17ZM201.5 57H32.5V59H201.5V57Z" fill="#FD85FF" mask="url(#path-4-inside-2_1688_47673)"/>
<path d="M47.99 38.692C47.4767 38.9067 46.9773 39.0653 46.492 39.168C46.0067 39.2707 45.5353 39.322 45.078 39.322C43.8273 39.322 42.8613 39.0233 42.18 38.426C41.508 37.8193 41.172 36.9513 41.172 35.822V32.7H42.978V35.626C42.978 36.3167 43.1787 36.844 43.58 37.208C43.9813 37.572 44.5553 37.754 45.302 37.754C45.75 37.754 46.198 37.7027 46.646 37.6C47.1033 37.4973 47.542 37.3387 47.962 37.124L47.99 38.692ZM47.71 42.5V32.7H49.516V42.5H47.71ZM56.6026 42.5V40.988L56.5046 40.666V38.02C56.5046 37.5067 56.3506 37.11 56.0426 36.83C55.7346 36.5407 55.268 36.396 54.6426 36.396C54.2226 36.396 53.8073 36.4613 53.3966 36.592C52.9953 36.7227 52.6546 36.9047 52.3746 37.138L51.6886 35.864C52.09 35.556 52.566 35.3273 53.1166 35.178C53.6766 35.0193 54.2553 34.94 54.8526 34.94C55.9353 34.94 56.7706 35.2013 57.3586 35.724C57.956 36.2373 58.2546 37.0353 58.2546 38.118V42.5H56.6026ZM54.2506 42.598C53.6906 42.598 53.2006 42.5047 52.7806 42.318C52.3606 42.122 52.034 41.856 51.8006 41.52C51.5766 41.1747 51.4646 40.7873 51.4646 40.358C51.4646 39.938 51.5626 39.56 51.7586 39.224C51.964 38.888 52.2953 38.622 52.7526 38.426C53.21 38.23 53.8166 38.132 54.5726 38.132H56.7426V39.294H54.6986C54.1013 39.294 53.7 39.392 53.4946 39.588C53.2893 39.7747 53.1866 40.008 53.1866 40.288C53.1866 40.6053 53.3126 40.8573 53.5646 41.044C53.8166 41.2307 54.1666 41.324 54.6146 41.324C55.044 41.324 55.4266 41.226 55.7626 41.03C56.108 40.834 56.3553 40.5447 56.5046 40.162L56.7986 41.212C56.6306 41.6507 56.3273 41.9913 55.8886 42.234C55.4593 42.4767 54.9133 42.598 54.2506 42.598ZM61.9741 42.5V36.088L62.3801 36.508H59.3421V35.024H66.3421V36.508H63.3181L63.7241 36.088V42.5H61.9741ZM71.4807 42.5V35.024H78.6487V42.5H76.9127V36.102L77.3187 36.508H72.8247L73.2307 36.102V42.5H71.4807ZM84.342 42.598C83.5767 42.598 82.8953 42.4347 82.298 42.108C81.7007 41.772 81.2293 41.3147 80.884 40.736C80.5387 40.1573 80.366 39.4993 80.366 38.762C80.366 38.0153 80.5387 37.3573 80.884 36.788C81.2293 36.2093 81.7007 35.7567 82.298 35.43C82.8953 35.1033 83.5767 34.94 84.342 34.94C85.1167 34.94 85.8027 35.1033 86.4 35.43C87.0067 35.7567 87.478 36.2047 87.814 36.774C88.1593 37.3433 88.332 38.006 88.332 38.762C88.332 39.4993 88.1593 40.1573 87.814 40.736C87.478 41.3147 87.0067 41.772 86.4 42.108C85.8027 42.4347 85.1167 42.598 84.342 42.598ZM84.342 41.1C84.7713 41.1 85.154 41.0067 85.49 40.82C85.826 40.6333 86.0873 40.3627 86.274 40.008C86.47 39.6533 86.568 39.238 86.568 38.762C86.568 38.2767 86.47 37.8613 86.274 37.516C86.0873 37.1613 85.826 36.8907 85.49 36.704C85.154 36.5173 84.776 36.424 84.356 36.424C83.9267 36.424 83.544 36.5173 83.208 36.704C82.8813 36.8907 82.62 37.1613 82.424 37.516C82.228 37.8613 82.13 38.2767 82.13 38.762C82.13 39.238 82.228 39.6533 82.424 40.008C82.62 40.3627 82.8813 40.6333 83.208 40.82C83.544 41.0067 83.922 41.1 84.342 41.1ZM95.1027 41.688V36.508H92.2327L92.1907 37.712C92.1721 38.1413 92.1441 38.5567 92.1067 38.958C92.0694 39.35 92.0087 39.714 91.9247 40.05C91.8407 40.3767 91.7194 40.6473 91.5607 40.862C91.4021 41.0767 91.1921 41.2167 90.9307 41.282L89.1947 41.016C89.4747 41.016 89.6987 40.9273 89.8667 40.75C90.0441 40.5633 90.1794 40.3113 90.2727 39.994C90.3754 39.6673 90.4501 39.2987 90.4967 38.888C90.5434 38.468 90.5761 38.034 90.5947 37.586L90.6927 35.024H96.8527V41.688H95.1027ZM88.9287 44.166V41.016H97.9587V44.166H96.3207V42.5H90.5527V44.166H88.9287ZM104.646 41.688V36.508H101.776L101.734 37.712C101.715 38.1413 101.687 38.5567 101.65 38.958C101.612 39.35 101.552 39.714 101.468 40.05C101.384 40.3767 101.262 40.6473 101.104 40.862C100.945 41.0767 100.735 41.2167 100.474 41.282L98.7377 41.016C99.0177 41.016 99.2417 40.9273 99.4097 40.75C99.587 40.5633 99.7224 40.3113 99.8157 39.994C99.9184 39.6673 99.993 39.2987 100.04 38.888C100.086 38.468 100.119 38.034 100.138 37.586L100.236 35.024H106.396V41.688H104.646ZM98.4717 44.166V41.016H107.502V44.166H105.864V42.5H100.096V44.166H98.4717ZM112.551 42.598C111.72 42.598 110.992 42.4347 110.367 42.108C109.751 41.772 109.27 41.3147 108.925 40.736C108.589 40.1573 108.421 39.4993 108.421 38.762C108.421 38.0153 108.584 37.3573 108.911 36.788C109.247 36.2093 109.704 35.7567 110.283 35.43C110.871 35.1033 111.538 34.94 112.285 34.94C113.013 34.94 113.661 35.0987 114.231 35.416C114.8 35.7333 115.248 36.1813 115.575 36.76C115.901 37.3387 116.065 38.02 116.065 38.804C116.065 38.8787 116.06 38.9627 116.051 39.056C116.051 39.1493 116.046 39.238 116.037 39.322H109.807V38.16H115.113L114.427 38.524C114.436 38.0947 114.347 37.7167 114.161 37.39C113.974 37.0633 113.717 36.8067 113.391 36.62C113.073 36.4333 112.705 36.34 112.285 36.34C111.855 36.34 111.477 36.4333 111.151 36.62C110.833 36.8067 110.581 37.068 110.395 37.404C110.217 37.7307 110.129 38.118 110.129 38.566V38.846C110.129 39.294 110.231 39.6907 110.437 40.036C110.642 40.3813 110.931 40.6473 111.305 40.834C111.678 41.0207 112.107 41.114 112.593 41.114C113.013 41.114 113.391 41.0487 113.727 40.918C114.063 40.7873 114.361 40.582 114.623 40.302L115.561 41.38C115.225 41.772 114.8 42.0753 114.287 42.29C113.783 42.4953 113.204 42.598 112.551 42.598ZM122.123 42.598C121.516 42.598 120.961 42.458 120.457 42.178C119.962 41.898 119.565 41.478 119.267 40.918C118.977 40.3487 118.833 39.63 118.833 38.762C118.833 37.8847 118.973 37.166 119.253 36.606C119.542 36.046 119.934 35.6307 120.429 35.36C120.923 35.08 121.488 34.94 122.123 34.94C122.86 34.94 123.509 35.0987 124.069 35.416C124.638 35.7333 125.086 36.1767 125.413 36.746C125.749 37.3153 125.917 37.9873 125.917 38.762C125.917 39.5367 125.749 40.2133 125.413 40.792C125.086 41.3613 124.638 41.8047 124.069 42.122C123.509 42.4393 122.86 42.598 122.123 42.598ZM117.979 45.216V35.024H119.645V36.788L119.589 38.776L119.729 40.764V45.216H117.979ZM121.927 41.1C122.347 41.1 122.72 41.0067 123.047 40.82C123.383 40.6333 123.649 40.3627 123.845 40.008C124.041 39.6533 124.139 39.238 124.139 38.762C124.139 38.2767 124.041 37.8613 123.845 37.516C123.649 37.1613 123.383 36.8907 123.047 36.704C122.72 36.5173 122.347 36.424 121.927 36.424C121.507 36.424 121.129 36.5173 120.793 36.704C120.457 36.8907 120.191 37.1613 119.995 37.516C119.799 37.8613 119.701 38.2767 119.701 38.762C119.701 39.238 119.799 39.6533 119.995 40.008C120.191 40.3627 120.457 40.6333 120.793 40.82C121.129 41.0067 121.507 41.1 121.927 41.1ZM136.33 42.5L134.146 38.916L135.574 38.034L138.416 42.5H136.33ZM132.732 39.504V38.048H135.238V39.504H132.732ZM135.742 38.972L134.09 38.776L136.358 35.024H138.22L135.742 38.972ZM128.434 42.5H126.362L129.19 38.034L130.618 38.916L128.434 42.5ZM133.25 42.5H131.514V35.024H133.25V42.5ZM132.032 39.504H129.54V38.048H132.032V39.504ZM129.022 38.972L126.544 35.024H128.406L130.66 38.776L129.022 38.972ZM145.079 42.5L142.377 38.916L143.805 38.034L147.137 42.5H145.079ZM139.717 42.5V35.024H141.467V42.5H139.717ZM140.949 39.504V38.048H143.483V39.504H140.949ZM143.973 38.972L142.335 38.776L145.079 35.024H146.955L143.973 38.972ZM148.371 42.5V35.024H150.121V39.952L154.251 35.024H155.847V42.5H154.097V37.572L149.981 42.5H148.371ZM161.385 42.5V41.282L165.277 37.586C165.603 37.278 165.846 37.0073 166.005 36.774C166.163 36.5407 166.266 36.326 166.313 36.13C166.369 35.9247 166.397 35.7333 166.397 35.556C166.397 35.108 166.243 34.7627 165.935 34.52C165.627 34.268 165.174 34.142 164.577 34.142C164.101 34.142 163.667 34.226 163.275 34.394C162.892 34.562 162.561 34.8187 162.281 35.164L161.007 34.184C161.389 33.6707 161.903 33.274 162.547 32.994C163.2 32.7047 163.928 32.56 164.731 32.56C165.44 32.56 166.056 32.6767 166.579 32.91C167.111 33.134 167.517 33.456 167.797 33.876C168.086 34.296 168.231 34.7953 168.231 35.374C168.231 35.6913 168.189 36.0087 168.105 36.326C168.021 36.634 167.862 36.9607 167.629 37.306C167.395 37.6513 167.055 38.0387 166.607 38.468L163.261 41.646L162.883 40.96H168.609V42.5H161.385ZM169.314 40.274V39.014L174.144 32.7H176.09L171.33 39.014L170.42 38.734H178.19V40.274H169.314ZM174.69 42.5V40.274L174.746 38.734V36.76H176.454V42.5H174.69ZM178.275 43.9L182.895 30.712H184.463L179.843 43.9H178.275ZM186.268 42.5L190.314 33.428L190.79 34.24H185.232L186.1 33.358V35.906H184.406V32.7H192.022V33.918L188.214 42.5H186.268Z" fill="white"/>
<path fill-rule="evenodd" clip-rule="evenodd" d="M216.433 16C216.986 16 217.433 16.4477 217.433 17V43.5858C217.433 43.851 217.328 44.1054 217.14 44.2929L203.726 57.7071C203.539 57.8946 203.284 58 203.019 58H201.5V16H216.433Z" fill="#FA00FF"/>
<path d="M207.561 56.6464L216.146 48.0607C216.461 47.7457 217 47.9688 217 48.4142L217 57C217 57.2761 216.776 57.5 216.5 57.5H207.914C207.469 57.5 207.246 56.9614 207.561 56.6464Z" fill="#FA00FF" stroke="#FD85FF"/>
<mask id="path-9-inside-3_1688_47673" fill="white">
<path fill-rule="evenodd" clip-rule="evenodd" d="M216.433 43.5858L216.433 17L201.5 17V16H216.433C216.986 16 217.433 16.4477 217.433 17V43.5858C217.433 43.851 217.328 44.1054 217.14 44.2929L203.726 57.7071C203.539 57.8946 203.284 58 203.019 58H201.5V57H203.019L216.433 43.5858Z"/>
</mask>
<path fill-rule="evenodd" clip-rule="evenodd" d="M216.433 43.5858L216.433 17L201.5 17V16H216.433C216.986 16 217.433 16.4477 217.433 17V43.5858C217.433 43.851 217.328 44.1054 217.14 44.2929L203.726 57.7071C203.539 57.8946 203.284 58 203.019 58H201.5V57H203.019L216.433 43.5858Z" fill="#FA00FF"/>
<path d="M216.433 17L217.433 17V16L216.433 16V17ZM216.433 43.5858L217.14 44.2929L217.433 44V43.5858H216.433ZM201.5 17H200.5V18L201.5 18L201.5 17ZM201.5 16V15H200.5V16H201.5ZM217.14 44.2929L216.433 43.5858L217.14 44.2929ZM203.726 57.7071L204.433 58.4142L204.433 58.4142L203.726 57.7071ZM201.5 58H200.5V59H201.5V58ZM201.5 57V56H200.5V57H201.5ZM203.019 57V58H203.433L203.726 57.7071L203.019 57ZM215.433 17L215.433 43.5858H217.433L217.433 17L215.433 17ZM201.5 18L216.433 18V16L201.5 16L201.5 18ZM202.5 17V16H200.5V17H202.5ZM201.5 17H216.433V15H201.5V17ZM218.433 17C218.433 15.8954 217.538 15 216.433 15V17V17H218.433ZM218.433 43.5858V17H216.433V43.5858H218.433ZM217.848 45C218.223 44.6249 218.433 44.1162 218.433 43.5858H216.433L216.433 43.5858L217.848 45ZM204.433 58.4142L217.848 45L216.433 43.5858L203.019 57L204.433 58.4142ZM203.019 59C203.55 59 204.058 58.7893 204.433 58.4142L203.019 57L203.019 57V59ZM203.019 57H201.5V59H203.019V57ZM202.5 58V57H200.5V58H202.5ZM203.019 56H201.5V58H203.019V56ZM215.726 42.8787L202.312 56.2929L203.726 57.7071L217.14 44.2929L215.726 42.8787Z" fill="#FD85FF" mask="url(#path-9-inside-3_1688_47673)"/>
</g>
<defs>
<filter id="filter0_d_1688_47673" x="0.5" y="0" width="233" height="74" filterUnits="userSpaceOnUse" colorInterpolationFilters="sRGB">
<feFlood floodOpacity="0" result="BackgroundImageFix"/>
<feColorMatrix in="SourceAlpha" type="matrix" values="0 0 0 0 0 0 0 0 0 0 0 0 0 0 0 0 0 0 127 0" result="hardAlpha"/>
<feOffset/>
<feGaussianBlur stdDeviation="8"/>
<feComposite in2="hardAlpha" operator="out"/>
<feColorMatrix type="matrix" values="0 0 0 0 0.980392 0 0 0 0 0 0 0 0 0 1 0 0 0 0.4 0"/>
<feBlend mode="normal" in2="BackgroundImageFix" result="effect1_dropShadow_1688_47673"/>
<feBlend mode="normal" in="SourceGraphic" in2="effect1_dropShadow_1688_47673" result="shape"/>
</filter>
</defs>
</svg>
