<svg width="32" height="32" viewBox="0 0 48 48" fill="none" xmlns="http://www.w3.org/2000/svg">
<g opacity="0.45" clipPath="url(#clip0_296_123546)">
<mask id="mask0_296_123546" style="mask-type:luminance" maskUnits="userSpaceOnUse" x="0" y="0" width="48" height="48">
<path d="M48 0H0V48H48V0Z" fill="white"/>
</mask>
<g mask="url(#mask0_296_123546)">
<path d="M15.1856 32.1741V19.1424H12.1731V15.8029H19.3427V32.1741H15.1856Z" fill="#E43834"/>
<path d="M34.964 20.0296C34.964 21.4541 34.1933 22.7152 32.9089 23.4159C34.7069 24.1631 35.828 25.7279 35.828 27.5494C35.828 30.492 33.2124 32.3603 29.1255 32.3603C25.0386 32.3603 22.4231 30.5152 22.4231 27.6196C22.4231 25.7513 23.6374 24.1631 25.5291 23.4159C24.1512 22.6451 23.2637 21.3375 23.2637 19.9129C23.2637 17.2971 25.5524 15.6392 29.1022 15.6392C32.6985 15.6392 34.964 17.3439 34.964 20.0296ZM26.3464 27.1993C26.3464 28.5773 27.3273 29.348 29.1255 29.348C30.9238 29.348 31.928 28.6008 31.928 27.1993C31.928 25.8449 30.9238 25.074 29.1255 25.074C27.3272 25.074 26.3464 25.8448 26.3464 27.1993ZM26.7668 20.263C26.7668 21.431 27.6076 22.0846 29.1255 22.0846C30.6435 22.0846 31.4843 21.4309 31.4843 20.263C31.4843 19.049 30.6435 18.3716 29.1255 18.3716C27.6075 18.3716 26.7668 19.049 26.7668 20.263Z" fill="#E43834"/>
<path d="M42.7455 17.651C43.4367 19.6907 43.7872 21.8241 43.7872 24.0001C43.7872 34.9106 34.9106 43.7872 23.9999 43.7872C13.0892 43.7872 4.21248 34.9106 4.21248 24.0001C4.21248 13.0892 13.089 4.21291 23.9998 4.21291C26.176 4.21291 28.3094 4.56321 30.3489 5.25461V0.851223C28.2889 0.286514 26.1612 0 23.9999 0C10.7664 0 0 10.7664 0 24.0001C0 37.2337 10.7664 48.0001 23.9999 48.0001C37.2335 48.0001 47.9998 37.2337 47.9998 24.0001C47.9998 21.8389 47.7134 19.7111 47.1487 17.651H42.7455Z" fill="#E43834"/>
<path d="M41.5493 6.43844V1.83655H38.2402V6.43844H33.6659V9.74729H38.2402V14.3491H41.5493V9.74729H46.1509V6.43844H41.5493Z" fill="#E43834"/>
</g>
</g>
<defs>
<clipPath id="clip0_296_123546">
<rect width="48" height="48" fill="white"/>
</clipPath>
</defs>
</svg>
