<svg width="46" height="34" viewBox="0 0 46 34" fill="none" xmlns="http://www.w3.org/2000/svg">
<g id="Group 845213641">
<path id="Vector 9920" d="M45 5V25C45 27.2091 43.2091 29 41 29H28.6569C27.596 29 26.5786 29.4214 25.8284 30.1716L23.7071 32.2929C23.3166 32.6834 22.6834 32.6834 22.2929 32.2929L20.1716 30.1716C19.4214 29.4214 18.404 29 17.3431 29H5C2.79086 29 1 27.2091 1 25V5C1 2.79086 2.79086 1 5 1H41C43.2091 1 45 2.79086 45 5Z" stroke="white" stroke-width="1.5"/>
<g id="FAQ">
<path d="M16.8936 8.13827V9.61975H11.826V14.4494H16.3704V15.9309H11.826V22.3012H10V8.13827H16.8936Z" fill="white"/>
<path d="M22.8537 8.13827L26.3416 22.3012H24.4643L23.6744 18.7259H19.571L18.7504 22.3012H16.8834L20.4328 8.13827H22.8537ZM19.9096 17.2049H23.3359L21.6125 9.48148L19.9096 17.2049Z" fill="white"/>
<path d="M37 22.3012V24L32.1888 22.4395C31.3203 22.4395 30.6022 22.2881 30.0346 21.9852C29.4669 21.6823 29.019 21.2247 28.6907 20.6123C28.3625 20 28.1299 19.2329 27.9932 18.3111C27.8632 17.3827 27.7983 16.2996 27.7983 15.0617C27.7983 13.8765 27.8632 12.8428 27.9932 11.9605C28.1299 11.0716 28.3625 10.3342 28.6907 9.74815C29.019 9.16214 29.4669 8.72428 30.0346 8.43457C30.6022 8.14486 31.3203 8 32.1888 8C33.0574 8 33.7755 8.14486 34.3431 8.43457C34.9107 8.72428 35.3587 9.16214 35.6869 9.74815C36.0152 10.3342 36.2443 11.0716 36.3742 11.9605C36.511 12.8428 36.5794 13.8765 36.5794 15.0617C36.5794 16.7605 36.4324 18.186 36.1383 19.3383C35.8442 20.4905 35.2971 21.3235 34.497 21.837L37 22.3012ZM34.7124 15.1605C34.7124 14.0412 34.6714 13.1193 34.5893 12.3951C34.5072 11.6642 34.367 11.0815 34.1687 10.6469C33.9772 10.2189 33.7173 9.91934 33.3891 9.74815C33.0676 9.57037 32.6676 9.48148 32.1888 9.48148C31.7101 9.48148 31.31 9.57037 30.9886 9.74815C30.674 9.91934 30.4176 10.2189 30.2192 10.6469C29.8499 11.47 29.6653 12.9745 29.6653 15.1605C29.6653 17.3136 29.8499 18.8214 30.2192 19.684C30.4176 20.1449 30.674 20.4741 30.9886 20.6716C31.31 20.8691 31.7101 20.9679 32.1888 20.9679C32.6676 20.9679 33.0676 20.8691 33.3891 20.6716C33.7173 20.4741 33.9772 20.1449 34.1687 19.684C34.367 19.2296 34.5072 18.637 34.5893 17.9062C34.6714 17.1687 34.7124 16.2535 34.7124 15.1605Z" fill="white"/>
</g>
</g>
</svg>
