<svg width="1206" height="506" viewBox="0 0 1206 506" fill="none" xmlns="http://www.w3.org/2000/svg">
<g filter="url(#filter0_dd_1688_47628)">
<path d="M31.3646 272.593L17.6354 285.407C17.2301 285.785 17 286.315 17 286.869V475.172C17 475.702 17.2107 476.211 17.5858 476.586L28.4142 487.414C28.7893 487.789 29.298 488 29.8284 488H158.172C158.702 488 159.211 487.789 159.586 487.414L174.414 472.586C174.789 472.211 175.298 472 175.828 472H1113.17C1113.7 472 1114.21 472.211 1114.59 472.586L1130.41 488.414C1130.79 488.789 1131.3 489 1131.83 489H1184.17C1184.7 489 1185.21 488.789 1185.59 488.414L1196.41 477.586C1196.79 477.211 1197 476.702 1197 476.172V27.6467C1197 27.2263 1196.87 26.8166 1196.62 26.4757L1184.6 9.82902C1184.22 9.30839 1183.62 9 1182.98 9H1160.83C1160.3 9 1159.79 9.21071 1159.41 9.58578L1142.59 26.4142C1142.21 26.7893 1141.7 27 1141.17 27H870.828C870.298 27 869.789 26.7893 869.414 26.4142L852.586 9.58579C852.211 9.21071 851.702 9 851.172 9H30.8284C30.298 9 29.7893 9.21071 29.4142 9.58579L17.5858 21.4142C17.2107 21.7893 17 22.298 17 22.8284V85.1309C17 85.6853 17.2301 86.2148 17.6354 86.593L31.3646 99.407C31.7699 99.7852 32 100.315 32 100.869V271.131C32 271.685 31.7699 272.215 31.3646 272.593Z" fill="#121120"/>
<path d="M31.3646 272.593L17.6354 285.407C17.2301 285.785 17 286.315 17 286.869V475.172C17 475.702 17.2107 476.211 17.5858 476.586L28.4142 487.414C28.7893 487.789 29.298 488 29.8284 488H158.172C158.702 488 159.211 487.789 159.586 487.414L174.414 472.586C174.789 472.211 175.298 472 175.828 472H1113.17C1113.7 472 1114.21 472.211 1114.59 472.586L1130.41 488.414C1130.79 488.789 1131.3 489 1131.83 489H1184.17C1184.7 489 1185.21 488.789 1185.59 488.414L1196.41 477.586C1196.79 477.211 1197 476.702 1197 476.172V27.6467C1197 27.2263 1196.87 26.8166 1196.62 26.4757L1184.6 9.82902C1184.22 9.30839 1183.62 9 1182.98 9H1160.83C1160.3 9 1159.79 9.21071 1159.41 9.58578L1142.59 26.4142C1142.21 26.7893 1141.7 27 1141.17 27H870.828C870.298 27 869.789 26.7893 869.414 26.4142L852.586 9.58579C852.211 9.21071 851.702 9 851.172 9H30.8284C30.298 9 29.7893 9.21071 29.4142 9.58579L17.5858 21.4142C17.2107 21.7893 17 22.298 17 22.8284V85.1309C17 85.6853 17.2301 86.2148 17.6354 86.593L31.3646 99.407C31.7699 99.7852 32 100.315 32 100.869V271.131C32 271.685 31.7699 272.215 31.3646 272.593Z" stroke="#FA00FF" stroke-width="2"/>
</g>
<defs>
<filter id="filter0_dd_1688_47628" x="0" y="0" width="1206" height="506" filterUnits="userSpaceOnUse" colorInterpolationFilters="sRGB">
<feFlood floodOpacity="0" result="BackgroundImageFix"/>
<feColorMatrix in="SourceAlpha" type="matrix" values="0 0 0 0 0 0 0 0 0 0 0 0 0 0 0 0 0 0 127 0" result="hardAlpha"/>
<feOffset dx="-4" dy="4"/>
<feGaussianBlur stdDeviation="6"/>
<feComposite in2="hardAlpha" operator="out"/>
<feColorMatrix type="matrix" values="0 0 0 0 0.980392 0 0 0 0 0 0 0 0 0 1 0 0 0 0.55 0"/>
<feBlend mode="normal" in2="BackgroundImageFix" result="effect1_dropShadow_1688_47628"/>
<feColorMatrix in="SourceAlpha" type="matrix" values="0 0 0 0 0 0 0 0 0 0 0 0 0 0 0 0 0 0 127 0" result="hardAlpha"/>
<feOffset dx="-4" dy="4"/>
<feComposite in2="hardAlpha" operator="out"/>
<feColorMatrix type="matrix" values="0 0 0 0 0.701961 0 0 0 0 0.0117647 0 0 0 0 0.729412 0 0 0 1 0"/>
<feBlend mode="normal" in2="effect1_dropShadow_1688_47628" result="effect2_dropShadow_1688_47628"/>
<feBlend mode="normal" in="SourceGraphic" in2="effect2_dropShadow_1688_47628" result="shape"/>
</filter>
</defs>
</svg>
