<svg width="112" height="32" viewBox="0 0 112 32" fill="none" xmlns="http://www.w3.org/2000/svg">
<g clipPath="url(#clip0_463_17362)">
<mask id="mask0_463_17362" style="mask-type:luminance" maskUnits="userSpaceOnUse" x="0" y="0" width="112" height="32">
<path d="M0.0012207 0H111.999V32H0.0012207V0Z" fill="white"/>
</mask>
<g mask="url(#mask0_463_17362)">
<path d="M42.9132 8.18503C42.8906 8.2322 42.8582 8.27402 42.8182 8.30773C42.7782 8.34143 42.7315 8.36625 42.6812 8.38053L40.5612 9.00903C40.3017 9.08403 40.1672 9.00903 40.0612 8.74953C39.9394 8.23512 39.6352 7.78232 39.205 7.47506C38.7748 7.1678 38.2478 7.02692 37.7217 7.07853C35.7262 7.07853 35.0432 8.26053 35.0432 9.85203V13.5135C35.0432 15.105 35.7167 16.287 37.7217 16.287C39.3717 16.287 40.2157 15.519 40.2157 13.8475V13.3475H38.0607C38.0194 13.351 37.9778 13.3451 37.9391 13.3302C37.9004 13.3153 37.8656 13.2919 37.8373 13.2616C37.8089 13.2314 37.7878 13.1951 37.7755 13.1555C37.7632 13.1159 37.76 13.074 37.7662 13.033V11.049C37.761 11.0082 37.7648 10.9667 37.7775 10.9276C37.7901 10.8884 37.8113 10.8525 37.8394 10.8225C37.8676 10.7924 37.902 10.769 37.9402 10.7538C37.9785 10.7386 38.0196 10.732 38.0607 10.7345H42.8607C42.9017 10.7283 42.9436 10.7315 42.9832 10.7438C43.0228 10.7561 43.0591 10.7773 43.0893 10.8056C43.1196 10.8339 43.143 10.8688 43.1579 10.9075C43.1728 10.9462 43.1787 10.9877 43.1752 11.029V14.055C43.1752 16.948 41.0502 19.128 37.7477 19.128C33.8317 19.128 32.0012 16.8085 32.0012 13.641V9.77203C32.0012 6.58453 33.8317 4.28503 37.7477 4.28503C40.9152 4.28503 42.3477 6.09103 42.9207 7.90153M53.6957 11.5015V18.6015C53.6979 18.6408 53.6918 18.68 53.6777 18.7168C53.6637 18.7535 53.6421 18.7868 53.6143 18.8146C53.5865 18.8424 53.5532 18.864 53.5164 18.878C53.4797 18.8921 53.4405 18.8982 53.4012 18.896H51.2362C51.1956 18.9004 51.1544 18.8959 51.1157 18.8829C51.0769 18.8699 51.0414 18.8488 51.0115 18.8208C50.9817 18.7929 50.9582 18.7588 50.9427 18.721C50.9272 18.6831 50.9201 18.6424 50.9217 18.6015V17.439C50.6142 17.9565 50.1755 18.3836 49.6499 18.677C49.1243 18.9704 48.5306 19.1198 47.9287 19.11C45.8837 19.11 44.5617 17.793 44.5617 15.768C44.5617 13.743 45.8037 12.618 48.8317 12.406C49.4859 12.3561 50.143 12.3561 50.7972 12.406V11.598C50.7972 10.5355 50.2472 10.1015 49.3007 10.1015C48.972 10.055 48.6376 10.1313 48.3615 10.3158C48.0854 10.5002 47.887 10.78 47.8042 11.1015C47.7042 11.336 47.6297 11.376 47.4102 11.316L45.2452 10.766C45.0307 10.706 45.0107 10.5865 45.0507 10.432C45.3452 8.87553 46.8217 7.73203 49.4157 7.73203C52.1492 7.73203 53.6857 9.03203 53.6857 11.473M50.7927 15.1895V14.197C50.215 14.1762 49.6366 14.1962 49.0617 14.257C47.9642 14.3915 47.3707 14.726 47.3707 15.574C47.3707 16.337 47.8707 16.751 48.7277 16.751C49.193 16.7606 49.6482 16.6154 50.022 16.3382C50.3957 16.061 50.6668 15.6675 50.7927 15.2195M61.5077 7.76203C62.1135 7.7511 62.706 7.94055 63.1931 8.30095C63.6801 8.66134 64.0345 9.17251 64.2012 9.75503C65.0092 8.57303 65.9922 7.75953 67.3687 7.75953C69.2742 7.75953 70.3617 9.25603 70.3617 11.5355V18.6015C70.3586 18.6444 70.3469 18.6862 70.3273 18.7245C70.3076 18.7627 70.2804 18.7966 70.2474 18.8241C70.2143 18.8516 70.1761 18.8722 70.1349 18.8845C70.0937 18.8969 70.0505 18.9008 70.0077 18.896H67.7482C67.7055 18.9009 67.6622 18.897 67.621 18.8847C67.5798 18.8723 67.5415 18.8518 67.5084 18.8243C67.4753 18.7968 67.4482 18.7629 67.4286 18.7246C67.4089 18.6863 67.3973 18.6444 67.3942 18.6015V12.0515C67.3942 11.0515 66.9602 10.475 66.1942 10.475C65.4282 10.475 64.7977 11.1485 64.5032 12.171V18.601C64.506 18.6387 64.5009 18.6766 64.4884 18.7122C64.4758 18.7479 64.456 18.7806 64.4302 18.8082C64.4045 18.8358 64.3733 18.8579 64.3386 18.8729C64.3039 18.8879 64.2665 18.8956 64.2287 18.8955H61.7812C61.6067 18.8955 61.5267 18.776 61.5267 18.601V12.051C61.5267 11.051 61.0927 10.4745 60.3267 10.4745C59.5607 10.4745 58.9102 11.183 58.6357 12.1905V18.6005C58.6396 18.6402 58.6347 18.6802 58.6212 18.7177C58.6078 18.7552 58.5862 18.7892 58.5581 18.8174C58.5299 18.8455 58.4959 18.8671 58.4584 18.8805C58.4209 18.894 58.3809 18.8989 58.3412 18.895H55.9412C55.9016 18.8989 55.8616 18.894 55.8241 18.8805C55.7866 18.8671 55.7525 18.8455 55.7244 18.8174C55.6962 18.7892 55.6746 18.7552 55.6612 18.7177C55.6478 18.6802 55.6428 18.6402 55.6467 18.6005V8.27553C55.6466 8.23774 55.6543 8.20033 55.6694 8.16565C55.6844 8.13098 55.7064 8.09977 55.7341 8.07401C55.7617 8.04824 55.7944 8.02845 55.83 8.0159C55.8657 8.00334 55.9035 7.99828 55.9412 8.00103H58.2412C58.2791 7.9975 58.3173 8.00201 58.3533 8.01428C58.3892 8.02655 58.4222 8.0463 58.45 8.07222C58.4779 8.09815 58.4999 8.12967 58.5146 8.16471C58.5294 8.19975 58.5366 8.23752 58.5357 8.27553V9.51253C58.8526 8.99753 59.2914 8.56847 59.8134 8.26326C60.3354 7.95805 60.9245 7.78608 61.5287 7.76253M82.7342 8.00203C82.7942 8.25653 82.7342 8.45203 82.4797 8.50203L80.3947 9.11053C80.3478 9.13313 80.2961 9.14425 80.244 9.14299C80.192 9.14172 80.1409 9.1281 80.0951 9.10325C80.0493 9.0784 80.0101 9.04303 79.9806 9.00005C79.9512 8.95707 79.9324 8.90771 79.9257 8.85603C79.6257 7.85603 79.1177 7.08503 77.6612 7.08503C75.8702 7.08503 75.3017 8.26703 75.3017 9.85853V13.52C75.3017 15.1115 75.9517 16.2935 77.6612 16.2935C79.1977 16.2935 79.7862 15.4255 80.0207 14.3435C80.026 14.2906 80.0441 14.2398 80.0736 14.1956C80.1031 14.1514 80.143 14.1151 80.1899 14.0899C80.2367 14.0648 80.289 14.0516 80.3422 14.0514C80.3954 14.0512 80.4477 14.0642 80.4947 14.089L82.5847 14.7675C82.6353 14.7821 82.6823 14.8069 82.7228 14.8404C82.7634 14.8739 82.7966 14.9154 82.8205 14.9623C82.8444 15.0092 82.8583 15.0605 82.8616 15.113C82.8648 15.1655 82.8572 15.2181 82.8392 15.2675C82.3392 17.3925 80.8137 19.1175 77.6262 19.1175C74.0497 19.1175 72.2387 16.798 72.2387 13.6305V9.77203C72.2387 6.58453 74.0842 4.28503 77.6262 4.28503C80.7337 4.28503 82.1907 5.93503 82.7392 8.02103M93.2012 11.505V18.605C93.2034 18.6443 93.1973 18.6835 93.1832 18.7203C93.1692 18.757 93.1476 18.7903 93.1198 18.8181C93.092 18.8459 93.0587 18.8675 93.0219 18.8815C92.9852 18.8956 92.946 18.9017 92.9067 18.8995H90.7417C90.7011 18.9039 90.6599 18.8994 90.6212 18.8864C90.5824 18.8734 90.5469 18.8523 90.517 18.8243C90.4872 18.7964 90.4637 18.7623 90.4482 18.7245C90.4327 18.6866 90.4256 18.6459 90.4272 18.605V17.439C90.1197 17.9565 89.681 18.3836 89.1554 18.677C88.6298 18.9704 88.0361 19.1198 87.4342 19.11C85.3892 19.11 84.0722 17.793 84.0722 15.768C84.0722 13.743 85.3092 12.618 88.3372 12.406C88.9931 12.3561 89.6518 12.3561 90.3077 12.406V11.598C90.3077 10.5355 89.7542 10.1015 88.8112 10.1015C88.4828 10.0577 88.1497 10.135 87.8743 10.3191C87.5988 10.5032 87.3999 10.7814 87.3147 11.1015C87.2197 11.336 87.1402 11.376 86.9207 11.316L84.7607 10.766C84.5412 10.706 84.5212 10.5865 84.5607 10.432C84.8552 8.87553 86.3317 7.73203 88.9302 7.73203C91.6637 7.73203 93.1952 9.03203 93.1952 11.473M90.3072 15.1895V14.197C89.7295 14.176 89.1511 14.196 88.5762 14.257C87.4762 14.3915 86.8852 14.726 86.8852 15.574C86.8852 16.337 87.3852 16.751 88.2422 16.751C88.7073 16.7598 89.1621 16.6142 89.5357 16.3372C89.9093 16.0601 90.1806 15.6671 90.3072 15.2195M101.626 8.19603V10.301C101.626 10.5555 101.526 10.655 101.272 10.655H100.953C99.3812 10.655 98.4587 11.3635 98.1442 12.5455V18.6015C98.1469 18.638 98.1423 18.6746 98.1307 18.7093C98.119 18.744 98.1006 18.7759 98.0764 18.8034C98.0523 18.8308 98.0229 18.8531 97.9899 18.8691C97.957 18.885 97.9212 18.8941 97.8847 18.896H95.3907C95.3542 18.8941 95.3184 18.885 95.2855 18.8691C95.2526 18.8531 95.2232 18.8308 95.199 18.8034C95.1748 18.7759 95.1564 18.744 95.1447 18.7093C95.1331 18.6746 95.1285 18.638 95.1312 18.6015V8.27553C95.1295 8.23729 95.1361 8.19914 95.1506 8.16371C95.1651 8.12828 95.1871 8.09641 95.2151 8.07031C95.2431 8.04421 95.2764 8.0245 95.3128 8.01254C95.3492 8.00058 95.3877 7.99665 95.4257 8.00103H97.6702C97.9047 8.00103 97.9647 8.15553 97.9647 8.31553V9.77203C98.2529 9.17718 98.7074 8.67867 99.2731 8.33691C99.8389 7.99515 100.492 7.82481 101.152 7.84653C101.546 7.84653 101.652 7.90653 101.652 8.18053M105.488 14.3305V14.7445C105.488 15.887 106.082 16.69 107.484 16.69C108.886 16.69 109.215 16.19 109.569 15.5325C109.743 15.238 109.823 15.1985 110.137 15.3325L111.687 16.1205C112.007 16.28 112.026 16.435 111.887 16.729C111.219 18.2255 109.548 19.1085 107.463 19.1085C104.313 19.1085 102.663 17.243 102.663 14.684V12.1915C102.663 9.69753 104.213 7.76203 107.442 7.76203C110.51 7.76203 112.006 9.71203 112.006 12.132V13.863C112.006 14.1575 111.906 14.363 111.506 14.363L105.488 14.3305ZM105.488 12.0305V12.405H109.284V12.031C109.308 11.7773 109.276 11.5214 109.189 11.2816C109.103 11.0418 108.965 10.824 108.785 10.6435C108.605 10.4631 108.387 10.3244 108.148 10.2375C107.908 10.1506 107.653 10.1175 107.399 10.1405C107.144 10.1172 106.887 10.1499 106.646 10.2363C106.405 10.3228 106.185 10.4609 106.003 10.641C105.821 10.8211 105.681 11.0389 105.592 11.279C105.503 11.5191 105.468 11.7753 105.488 12.0305Z" fill="#27263A"/>
<path d="M13.6042 2.00021e-05H0.405221C0.352356 -0.000508668 0.299911 0.00944735 0.250919 0.0293124C0.201926 0.0491775 0.157357 0.0785574 0.119789 0.115754C0.0822205 0.15295 0.0523985 0.197224 0.0320469 0.246017C0.0116954 0.29481 0.00121806 0.347153 0.0012207 0.40002V19.595C0.0028115 22.8843 1.31057 26.0382 3.63697 28.3635C5.96338 30.6888 9.11798 31.995 12.4072 31.995H13.6042C16.8929 31.995 20.0469 30.6886 22.3723 28.3631C24.6978 26.0377 26.0042 22.8837 26.0042 19.595V12.401C26.0042 10.7726 25.6835 9.16018 25.0603 7.65575C24.4372 6.15131 23.5238 4.78434 22.3723 3.6329C21.2209 2.48145 19.8539 1.56807 18.3495 0.944914C16.8451 0.321755 15.2326 0.00101999 13.6042 0.00101999M22.0197 19.8035C22.0197 24.4725 18.5927 27.9995 13.2552 27.9995C6.93522 27.9995 3.98172 24.2495 3.98172 19.1305V12.88C3.98172 7.73002 6.93472 3.98602 13.2452 3.98602C18.3582 3.98602 20.6777 6.90902 21.6007 9.83252C21.6363 9.9101 21.6547 9.99445 21.6547 10.0798C21.6548 10.1651 21.6364 10.2495 21.6008 10.3271C21.5653 10.4047 21.5134 10.4737 21.4488 10.5294C21.3841 10.5852 21.3082 10.6263 21.2262 10.65L17.7942 11.65C17.3852 11.7745 17.1607 11.65 17.0362 11.236C16.4927 9.49002 15.3502 8.53602 13.2552 8.53602C10.0127 8.53602 8.93522 10.4415 8.93522 13.0255V18.9455C8.93522 21.5195 10.0127 23.435 13.2552 23.435C15.9237 23.435 17.3207 22.193 17.3207 19.494V18.721H13.7442C13.6764 18.7303 13.6073 18.7237 13.5424 18.7019C13.4775 18.68 13.4186 18.6435 13.3702 18.5951C13.3218 18.5466 13.2852 18.4877 13.2634 18.4228C13.2415 18.3579 13.235 18.2889 13.2442 18.221V14.945C13.2388 14.878 13.248 14.8106 13.2712 14.7474C13.2944 14.6843 13.331 14.627 13.3786 14.5794C13.4262 14.5318 13.4835 14.4952 13.5466 14.472C13.6098 14.4488 13.6772 14.4396 13.7442 14.445H21.5107C21.5762 14.4365 21.6427 14.4427 21.7054 14.4631C21.7682 14.4835 21.8256 14.5177 21.8735 14.5631C21.9214 14.6085 21.9585 14.664 21.9823 14.7256C22.006 14.7871 22.0157 14.8532 22.0107 14.919L22.0197 19.8035Z" fill="#27263A"/>
<path d="M34.9292 23.1405C34.9349 23.1505 34.9382 23.1615 34.939 23.1729C34.9397 23.1843 34.9378 23.1957 34.9335 23.2063C34.9291 23.2169 34.9224 23.2263 34.9139 23.2339C34.9054 23.2414 34.8952 23.247 34.8842 23.25L34.5342 23.3595C34.4792 23.3595 34.4492 23.3595 34.4247 23.3145C34.3744 23.1206 34.2572 22.9508 34.0938 22.8349C33.9304 22.719 33.7313 22.6645 33.5317 22.681C33.396 22.6625 33.2579 22.6756 33.1281 22.7193C32.9984 22.763 32.8805 22.8361 32.7836 22.933C32.6868 23.0298 32.6137 23.1477 32.57 23.2775C32.5263 23.4072 32.5132 23.5454 32.5317 23.681V25.003C32.5132 25.1387 32.5263 25.2768 32.57 25.4066C32.6137 25.5364 32.6868 25.6543 32.7836 25.7511C32.8805 25.8479 32.9984 25.9211 33.1281 25.9648C33.2579 26.0085 33.396 26.0216 33.5317 26.003C34.0952 26.003 34.4647 25.7435 34.4647 25.16V24.66H33.6472C33.6022 24.66 33.5772 24.66 33.5772 24.585V24.308C33.5772 24.258 33.5772 24.233 33.6472 24.233H34.9142C34.9246 24.2315 34.9353 24.2323 34.9453 24.2355C34.9554 24.2386 34.9646 24.244 34.9723 24.2512C34.98 24.2584 34.986 24.2673 34.9898 24.2771C34.9936 24.287 34.9951 24.2975 34.9942 24.308V25.226C34.996 25.4125 34.9583 25.5971 34.8836 25.768C34.8089 25.9388 34.699 26.0919 34.5609 26.2172C34.4229 26.3425 34.26 26.4372 34.0827 26.4951C33.9055 26.553 33.7181 26.5727 33.5327 26.553C33.3288 26.577 33.1221 26.555 32.9278 26.4888C32.7335 26.4225 32.5564 26.3137 32.4096 26.1702C32.2628 26.0266 32.1499 25.8521 32.0792 25.6593C32.0086 25.4666 31.9819 25.2604 32.0012 25.056V23.656C31.982 23.4517 32.0087 23.2456 32.0794 23.0529C32.1501 22.8602 32.263 22.6857 32.4098 22.5423C32.5566 22.3988 32.7336 22.29 32.9279 22.2238C33.1222 22.1576 33.3288 22.1356 33.5327 22.1595C33.8414 22.1349 34.149 22.2178 34.4036 22.3942C34.6581 22.5705 34.8438 22.8294 34.9292 23.127M37.6227 25.5115V25.0115C37.3868 24.9966 37.1501 24.9966 36.9142 25.0115C36.4752 25.0615 36.2107 25.216 36.2107 25.58C36.205 25.6564 36.217 25.733 36.2456 25.8041C36.2743 25.8751 36.3188 25.9386 36.3759 25.9896C36.4329 26.0407 36.501 26.078 36.5747 26.0986C36.6485 26.1192 36.7259 26.1226 36.8012 26.1085C36.983 26.1066 37.1597 26.0483 37.307 25.9416C37.4542 25.8349 37.5647 25.6852 37.6232 25.513M38.1232 24.236V26.416C38.1232 26.461 38.1232 26.481 38.0482 26.481H37.6982C37.6482 26.481 37.6232 26.481 37.6232 26.416V26.002C37.5273 26.1643 37.3909 26.2988 37.2273 26.3924C37.0637 26.486 36.8787 26.5355 36.6902 26.536C36.5613 26.5492 36.4311 26.5347 36.3083 26.4934C36.1856 26.4521 36.073 26.385 35.9783 26.2967C35.8836 26.2083 35.8089 26.1007 35.7592 25.981C35.7095 25.8614 35.686 25.7325 35.6902 25.603C35.6902 25.0195 36.0842 24.7 36.8527 24.6405C37.1034 24.6232 37.355 24.6232 37.6057 24.6405V24.273C37.6057 23.854 37.3612 23.6795 36.9672 23.6795C36.827 23.6563 36.6831 23.6864 36.564 23.764C36.4449 23.8415 36.3592 23.9609 36.3237 24.0985C36.3237 24.1535 36.2837 24.1585 36.2237 24.1485L35.8847 24.0535C35.8297 24.0535 35.8147 24.0135 35.8297 23.9685C35.9342 23.5295 36.3297 23.245 36.9797 23.245C37.6297 23.245 38.1172 23.5645 38.1172 24.245M40.4117 23.2375C40.5847 23.2339 40.754 23.2885 40.8923 23.3925C41.0306 23.4964 41.1301 23.6438 41.1747 23.811C41.2671 23.6438 41.4011 23.5032 41.5636 23.4027C41.7261 23.3023 41.9118 23.2454 42.1027 23.2375C42.2245 23.2386 42.3447 23.2654 42.4553 23.3162C42.566 23.367 42.6647 23.4406 42.7448 23.5323C42.825 23.624 42.8848 23.7316 42.9204 23.8481C42.956 23.9645 42.9665 24.0872 42.9512 24.208V26.408C42.9512 26.458 42.9212 26.478 42.8712 26.478H42.5272C42.4722 26.478 42.4472 26.478 42.4472 26.408V24.308C42.4472 23.919 42.2727 23.708 41.9472 23.708C41.7847 23.7267 41.6315 23.7939 41.5078 23.9009C41.3841 24.008 41.2955 24.1499 41.2537 24.308V26.418C41.2537 26.468 41.2537 26.488 41.1837 26.488H40.8012C40.7462 26.488 40.7312 26.488 40.7312 26.418V24.308C40.7312 23.919 40.5617 23.708 40.2312 23.708C40.0703 23.7313 39.9195 23.8002 39.7966 23.9065C39.6737 24.0128 39.5838 24.1522 39.5377 24.308V26.393C39.5377 26.443 39.5377 26.463 39.4677 26.463H39.0887C39.0337 26.463 39.0187 26.463 39.0187 26.393V23.36C39.0187 23.32 39.0187 23.295 39.0887 23.295H39.4577C39.5127 23.295 39.5277 23.32 39.5277 23.36V23.779C39.6178 23.6208 39.7464 23.488 39.9017 23.3929C40.057 23.2979 40.2338 23.2437 40.4157 23.2355M44.3762 24.5275V25.266C44.369 25.3725 44.3844 25.4793 44.4216 25.5793C44.4587 25.6794 44.5167 25.7704 44.5917 25.8463C44.6667 25.9222 44.7569 25.9814 44.8565 26.0198C44.9561 26.0582 45.0627 26.075 45.1692 26.069C45.6282 26.069 45.9027 25.7995 45.9027 25.266V24.5225C45.9027 23.9935 45.6282 23.7095 45.1692 23.7095C45.063 23.7072 44.9574 23.727 44.8592 23.7678C44.7611 23.8086 44.6726 23.8695 44.5993 23.9465C44.5261 24.0235 44.4697 24.115 44.4339 24.215C44.3981 24.3151 44.3835 24.4215 44.3912 24.5275M44.3912 22.143V23.7345C44.4889 23.5753 44.6274 23.445 44.7923 23.3571C44.9572 23.2692 45.1425 23.2269 45.3292 23.2345C45.484 23.2321 45.6375 23.2627 45.7794 23.3244C45.9214 23.386 46.0486 23.4772 46.1525 23.5919C46.2564 23.7067 46.3346 23.8423 46.3819 23.9896C46.4292 24.137 46.4444 24.2928 46.4267 24.4465V25.3295C46.4439 25.4846 46.4276 25.6416 46.3788 25.7898C46.33 25.938 46.2499 26.074 46.1439 26.1885C46.0379 26.303 45.9084 26.3933 45.7644 26.4534C45.6204 26.5134 45.4652 26.5418 45.3092 26.5365C45.1242 26.5424 44.9409 26.4992 44.7779 26.4114C44.6149 26.3236 44.4781 26.1943 44.3812 26.0365V26.4055C44.3812 26.4505 44.3462 26.4655 44.3112 26.4655H43.9422C43.8972 26.4655 43.8722 26.4655 43.8722 26.4055V22.143C43.8714 22.1343 43.8726 22.1255 43.8756 22.1173C43.8786 22.1091 43.8834 22.1016 43.8896 22.0954C43.8958 22.0892 43.9032 22.0844 43.9115 22.0814C43.9197 22.0784 43.9285 22.0773 43.9372 22.078H44.3312C44.3762 22.078 44.3912 22.078 44.3912 22.143ZM47.7632 22.143V26.408C47.7632 26.458 47.7632 26.478 47.6932 26.478H47.3142C47.2542 26.478 47.2392 26.478 47.2392 26.408V22.143C47.2392 22.098 47.2392 22.073 47.3142 22.073H47.6932C47.7028 22.0713 47.7127 22.0718 47.722 22.0747C47.7313 22.0776 47.7398 22.0827 47.7467 22.0896C47.7536 22.0965 47.7587 22.105 47.7615 22.1143C47.7644 22.1236 47.765 22.1335 47.7632 22.143ZM49.1612 23.363V26.413C49.1612 26.458 49.1612 26.478 49.0962 26.478H48.7172C48.6572 26.478 48.6422 26.478 48.6422 26.413V23.363C48.6422 23.318 48.6422 23.298 48.7172 23.298H49.0962C49.1462 23.298 49.1612 23.298 49.1612 23.363ZM49.1612 22.163V22.7215C49.1612 22.7765 49.1612 22.8065 49.0762 22.8065H48.7262C48.7147 22.8082 48.7029 22.8072 48.6918 22.8035C48.6807 22.7998 48.6707 22.7936 48.6624 22.7854C48.6541 22.7771 48.6479 22.767 48.6443 22.756C48.6406 22.7449 48.6395 22.7331 48.6412 22.7215V22.163C48.6395 22.1515 48.6406 22.1397 48.6443 22.1286C48.6479 22.1176 48.6541 22.1075 48.6624 22.0992C48.6707 22.091 48.6807 22.0848 48.6918 22.0811C48.7029 22.0774 48.7147 22.0764 48.7262 22.078H49.0762C49.1412 22.078 49.1612 22.108 49.1612 22.163ZM50.5827 24.333V26.413C50.5827 26.458 50.5827 26.478 50.5177 26.478H50.1587C50.0987 26.478 50.0837 26.478 50.0837 26.413V23.36C50.0837 23.32 50.0837 23.295 50.1537 23.295H50.5227C50.5777 23.295 50.5927 23.32 50.5927 23.36V23.779C50.7022 23.6135 50.8506 23.4774 51.0249 23.3826C51.1993 23.2878 51.3943 23.2373 51.5927 23.2355C51.7265 23.232 51.8594 23.2577 51.9822 23.3108C52.105 23.364 52.2146 23.4434 52.3035 23.5434C52.3924 23.6435 52.4583 23.7617 52.4967 23.8899C52.5351 24.0181 52.545 24.1531 52.5257 24.2855V26.413C52.5257 26.458 52.5257 26.478 52.4507 26.478H52.0717C52.0217 26.478 51.9967 26.478 51.9967 26.413V24.368C51.9967 23.959 51.8122 23.718 51.4132 23.718C51.2336 23.7292 51.0614 23.7935 50.9185 23.9028C50.7755 24.012 50.6682 24.1612 50.6102 24.3315M53.7527 24.3815C53.7446 24.4762 53.7577 24.5715 53.791 24.6604C53.8244 24.7494 53.8771 24.8297 53.9455 24.8957C54.0139 24.9617 54.0961 25.0116 54.1862 25.0417C54.2762 25.0719 54.3719 25.0815 54.4662 25.07C54.5579 25.0821 54.6512 25.073 54.7389 25.0436C54.8266 25.0141 54.9065 24.9651 54.9724 24.9001C55.0383 24.8352 55.0885 24.7561 55.1192 24.6688C55.15 24.5816 55.1604 24.4884 55.1497 24.3965C55.1565 24.3007 55.1435 24.2045 55.1115 24.1139C55.0795 24.0233 55.0291 23.9402 54.9636 23.8699C54.8981 23.7996 54.8188 23.7435 54.7307 23.7052C54.6426 23.6669 54.5476 23.6471 54.4515 23.6471C54.3554 23.6471 54.2603 23.6669 54.1722 23.7052C54.0841 23.7435 54.0048 23.7996 53.9393 23.8699C53.8738 23.9402 53.8235 24.0233 53.7915 24.1139C53.7594 24.2045 53.7464 24.3007 53.7532 24.3965M55.4242 26.791C55.4242 26.5615 55.2947 26.347 54.8242 26.347H54.2407C53.8017 26.347 53.6672 26.5715 53.6672 26.801C53.6672 27.12 53.9172 27.33 54.5302 27.33C55.1432 27.33 55.4232 27.1105 55.4232 26.7915M55.9232 26.7565C55.9232 27.2565 55.5342 27.7095 54.5017 27.7095C53.5487 27.7095 53.1747 27.3505 53.1747 26.8515C53.1769 26.6992 53.2261 26.5513 53.3156 26.428C53.4051 26.3048 53.5305 26.2122 53.6747 26.163C53.6091 26.1171 53.5548 26.0569 53.516 25.9869C53.4771 25.9169 53.4546 25.839 53.4502 25.759C53.4538 25.6604 53.4865 25.5651 53.5441 25.485C53.6018 25.4049 53.6818 25.3437 53.7742 25.309C53.6159 25.2178 53.4855 25.085 53.3974 24.9249C53.3092 24.7648 53.2666 24.5836 53.2742 24.401C53.2666 24.2473 53.293 24.0938 53.3513 23.9514C53.4097 23.8089 53.4986 23.6811 53.6119 23.5768C53.7251 23.4726 53.8599 23.3945 54.0067 23.3482C54.1535 23.3018 54.3086 23.2883 54.4612 23.3085H55.8512C55.8912 23.3085 55.9112 23.3335 55.9112 23.3785V23.663C55.9112 23.718 55.8812 23.738 55.8412 23.738H55.2877C55.3952 23.8266 55.4804 23.939 55.5367 24.0664C55.5929 24.1937 55.6186 24.3325 55.6117 24.4715C55.6117 25.06 55.2177 25.4715 54.4617 25.4715H54.2012C53.9817 25.4715 53.8867 25.5715 53.8867 25.691C53.8867 25.8105 53.9867 25.9105 54.2012 25.9105H54.8847C55.6347 25.9105 55.9272 26.2845 55.9272 26.7485M60.6862 23.057C60.6913 23.0668 60.6938 23.0776 60.6936 23.0885C60.6933 23.0995 60.6903 23.1102 60.6848 23.1197C60.6793 23.1291 60.6716 23.1371 60.6622 23.1427C60.6528 23.1484 60.6422 23.1516 60.6312 23.152L60.3072 23.2765C60.2971 23.2805 60.2862 23.2823 60.2753 23.2819C60.2645 23.2815 60.2538 23.2788 60.2439 23.2742C60.2341 23.2695 60.2253 23.2628 60.2182 23.2547C60.211 23.2465 60.2056 23.2369 60.2022 23.2265C60.147 23.055 60.036 22.9069 59.8868 22.8057C59.7377 22.7045 59.559 22.656 59.3792 22.668C58.8792 22.668 58.5962 22.9025 58.5962 23.2865C58.5962 23.6705 58.8057 23.7865 59.5962 24.1045C60.3867 24.4225 60.7237 24.763 60.7237 25.3545C60.7193 25.5252 60.6794 25.6932 60.6064 25.8475C60.5334 26.0019 60.4291 26.1394 60.2999 26.2511C60.1708 26.3628 60.0197 26.4464 59.8565 26.4964C59.6932 26.5464 59.5213 26.5618 59.3517 26.5415C59.0418 26.5731 58.7309 26.493 58.4748 26.3156C58.2188 26.1383 58.0345 25.8753 57.9552 25.574C57.9552 25.514 57.9552 25.489 58.0052 25.4695L58.3442 25.36C58.4092 25.36 58.4342 25.36 58.4492 25.42C58.4976 25.6167 58.616 25.7889 58.7822 25.9046C58.9484 26.0203 59.151 26.0714 59.3522 26.0485C59.8522 26.0485 60.1752 25.7985 60.1752 25.395C60.1752 24.9915 59.9857 24.845 59.2622 24.567C58.3942 24.223 58.0652 23.8835 58.0652 23.295C58.0715 23.1321 58.1116 22.9723 58.1829 22.8256C58.2542 22.679 58.3552 22.5488 58.4795 22.4433C58.6038 22.3377 58.7487 22.2592 58.9049 22.2126C59.0612 22.166 59.2254 22.1523 59.3872 22.1725C59.673 22.1527 59.9572 22.2288 60.1948 22.3888C60.4325 22.5487 60.61 22.7833 60.6992 23.0555M61.4922 25.495V23.363C61.4922 23.318 61.5172 23.293 61.5672 23.293H61.9462C61.9962 23.293 62.0212 23.318 62.0212 23.363V25.403C62.0212 25.817 62.2057 26.0565 62.5997 26.0565C62.7802 26.046 62.9533 25.9814 63.0966 25.8711C63.2398 25.7608 63.3465 25.6099 63.4027 25.438V23.363C63.4027 23.318 63.4027 23.293 63.4777 23.293H63.8517C63.9117 23.293 63.9267 23.318 63.9267 23.363V26.408C63.9267 26.453 63.9267 26.478 63.8567 26.478H63.4877C63.4781 26.4798 63.4683 26.4793 63.4589 26.4764C63.4496 26.4735 63.4412 26.4684 63.4343 26.4615C63.4274 26.4546 63.4223 26.4461 63.4194 26.4368C63.4165 26.4275 63.4159 26.4176 63.4177 26.408V25.994C63.3098 26.1615 63.1619 26.2995 62.9873 26.3955C62.8127 26.4916 62.617 26.5426 62.4177 26.544C62.2842 26.5468 62.1517 26.5205 62.0293 26.467C61.9069 26.4135 61.7976 26.3341 61.7089 26.2343C61.6202 26.1345 61.5543 26.0166 61.5155 25.8888C61.4768 25.761 61.4663 25.6263 61.4847 25.494M66.8512 25.263V24.5025C66.8675 24.3995 66.8603 24.2941 66.8302 24.1942C66.8001 24.0944 66.7479 24.0026 66.6774 23.9257C66.6069 23.8488 66.5199 23.7888 66.423 23.7502C66.3261 23.7115 66.2218 23.6952 66.1177 23.7025C66.0128 23.6995 65.9084 23.7185 65.8113 23.7582C65.7141 23.7978 65.6263 23.8574 65.5535 23.933C65.4808 24.0086 65.4246 24.0986 65.3886 24.1972C65.3527 24.2958 65.3377 24.4008 65.3447 24.5055V25.2555C65.337 25.3613 65.3515 25.4675 65.3874 25.5673C65.4233 25.6671 65.4797 25.7583 65.553 25.8349C65.6264 25.9116 65.715 25.9719 65.8131 26.0122C65.9112 26.0524 66.0167 26.0716 66.1227 26.0685C66.5817 26.0685 66.8562 25.789 66.8562 25.2605M64.8907 27.64C64.882 27.6408 64.8732 27.6396 64.865 27.6367C64.8567 27.6337 64.8493 27.6289 64.8431 27.6227C64.8369 27.6165 64.8321 27.609 64.8291 27.6008C64.8261 27.5926 64.8249 27.5838 64.8257 27.575V23.36C64.8257 23.315 64.8507 23.295 64.8957 23.295H65.2647C65.2738 23.2935 65.2832 23.294 65.292 23.2966C65.3009 23.2993 65.309 23.3039 65.3158 23.3102C65.3226 23.3165 65.3278 23.3243 65.3311 23.3329C65.3344 23.3415 65.3356 23.3508 65.3347 23.36V23.719C65.4333 23.5629 65.5705 23.4348 65.733 23.3472C65.8956 23.2596 66.0781 23.2154 66.2627 23.219C66.418 23.2139 66.5726 23.2421 66.7161 23.3018C66.8595 23.3614 66.9886 23.4511 67.0945 23.5648C67.2003 23.6785 67.2806 23.8136 67.3299 23.961C67.3792 24.1083 67.3964 24.2645 67.3802 24.419V25.313C67.3971 25.4666 67.3813 25.6221 67.3337 25.7691C67.2861 25.9161 67.2078 26.0514 67.1041 26.1659C67.0004 26.2805 66.8735 26.3717 66.7319 26.4336C66.5903 26.4955 66.4372 26.5267 66.2827 26.525C66.0965 26.5342 65.9112 26.4925 65.7469 26.4044C65.5825 26.3164 65.4452 26.1852 65.3497 26.025V27.5515C65.3505 27.5603 65.3493 27.5691 65.3463 27.5773C65.3433 27.5855 65.3386 27.593 65.3324 27.5992C65.3262 27.6054 65.3187 27.6102 65.3105 27.6132C65.3022 27.6161 65.2934 27.6173 65.2847 27.6165L64.8907 27.64ZM70.2317 25.263V24.5025C70.248 24.3995 70.2408 24.2941 70.2107 24.1942C70.1806 24.0944 70.1284 24.0026 70.0579 23.9257C69.9874 23.8488 69.9004 23.7888 69.8035 23.7502C69.7066 23.7115 69.6023 23.6952 69.4982 23.7025C69.3933 23.6995 69.2889 23.7185 69.1918 23.7582C69.0946 23.7978 69.0068 23.8574 68.934 23.933C68.8613 24.0086 68.8051 24.0986 68.7691 24.1972C68.7332 24.2958 68.7182 24.4008 68.7252 24.5055V25.2555C68.7175 25.3609 68.7319 25.4667 68.7675 25.5661C68.8031 25.6656 68.8591 25.7565 68.9319 25.833C69.0047 25.9096 69.0926 25.9701 69.1902 26.0106C69.2877 26.0512 69.3926 26.0709 69.4982 26.0685C69.9572 26.0685 70.2317 25.789 70.2317 25.2605M68.2662 27.64C68.2575 27.6408 68.2487 27.6396 68.2405 27.6367C68.2322 27.6337 68.2247 27.6289 68.2186 27.6227C68.2124 27.6165 68.2076 27.609 68.2046 27.6008C68.2016 27.5926 68.2004 27.5838 68.2012 27.575V23.36C68.2012 23.315 68.2262 23.295 68.2712 23.295H68.6402C68.6493 23.2935 68.6587 23.294 68.6675 23.2966C68.6764 23.2993 68.6846 23.3039 68.6913 23.3102C68.6981 23.3165 68.7033 23.3243 68.7066 23.3329C68.7099 23.3415 68.7111 23.3508 68.7102 23.36V23.719C68.8088 23.5629 68.946 23.4348 69.1085 23.3472C69.2711 23.2596 69.4536 23.2154 69.6382 23.219C69.7939 23.2132 69.9491 23.2408 70.0931 23.3002C70.2372 23.3595 70.3669 23.4491 70.4733 23.5629C70.5798 23.6767 70.6605 23.812 70.7101 23.9597C70.7597 24.1074 70.7769 24.2641 70.7607 24.419V25.313C70.7776 25.4669 70.7617 25.6225 70.714 25.7697C70.6662 25.9169 70.5878 26.0523 70.4838 26.1669C70.3798 26.2814 70.2526 26.3726 70.1107 26.4344C69.9688 26.4961 69.8154 26.527 69.6607 26.525C69.4746 26.5331 69.2898 26.491 69.1256 26.403C68.9615 26.315 68.824 26.1845 68.7277 26.025V27.5515C68.7285 27.5603 68.7273 27.5691 68.7243 27.5773C68.7213 27.5855 68.7166 27.593 68.7104 27.5992C68.7042 27.6054 68.6967 27.6102 68.6885 27.6132C68.6802 27.6161 68.6714 27.6173 68.6627 27.6165L68.2662 27.64ZM72.0272 24.4975V25.3055C72.0272 25.508 72.1076 25.7021 72.2508 25.8452C72.3939 25.9884 72.588 26.0688 72.7905 26.0688C72.9929 26.0688 73.187 25.9884 73.3302 25.8452C73.4733 25.7021 73.5537 25.508 73.5537 25.3055V24.4975C73.5537 24.2951 73.4733 24.101 73.3302 23.9578C73.187 23.8147 72.9929 23.7343 72.7905 23.7343C72.588 23.7343 72.3939 23.8147 72.2508 23.9578C72.1076 24.101 72.0272 24.2951 72.0272 24.4975ZM74.0772 24.4725V25.3055C74.0772 25.6469 73.9416 25.9742 73.7003 26.2156C73.4589 26.4569 73.1315 26.5925 72.7902 26.5925C72.4489 26.5925 72.1215 26.4569 71.8802 26.2156C71.6388 25.9742 71.5032 25.6469 71.5032 25.3055V24.4875C71.5032 24.1462 71.6388 23.8189 71.8802 23.5775C72.1215 23.3361 72.4489 23.2005 72.7902 23.2005C73.1315 23.2005 73.4589 23.3361 73.7003 23.5775C73.9416 23.8189 74.0772 24.1462 74.0772 24.4875M76.4667 23.3105V23.663C76.4667 23.718 76.4667 23.738 76.3867 23.738H76.3217C76.1222 23.7313 75.9259 23.7893 75.7622 23.9035C75.5985 24.0178 75.4762 24.182 75.4137 24.3715V26.398C75.4137 26.443 75.3837 26.458 75.3487 26.458H74.9547C74.9466 26.4588 74.9385 26.4578 74.9309 26.4551C74.9232 26.4523 74.9163 26.4479 74.9106 26.4422C74.9048 26.4365 74.9004 26.4295 74.8977 26.4219C74.895 26.4143 74.8939 26.4061 74.8947 26.398V23.36C74.8947 23.31 74.8947 23.295 74.9647 23.295H75.3237C75.3737 23.295 75.3987 23.32 75.3987 23.365V23.865C75.4902 23.68 75.6333 23.5255 75.8108 23.4202C75.9883 23.3148 76.1925 23.2632 76.3987 23.2715C76.4737 23.2715 76.4937 23.2715 76.4937 23.3465M77.9902 22.5465V23.3095H78.6687C78.7187 23.3095 78.7387 23.3345 78.7387 23.3895V23.674C78.7387 23.729 78.7387 23.749 78.6687 23.749H77.9902V25.5895C77.9902 25.874 78.1447 26.0035 78.4342 26.0035H78.6637C78.7137 26.0035 78.7387 26.0035 78.7387 26.0735V26.3975C78.7387 26.4525 78.7387 26.4725 78.6637 26.4725H78.3592C78.2459 26.489 78.1303 26.4801 78.0208 26.4464C77.9113 26.4128 77.8107 26.3552 77.7262 26.2779C77.6417 26.2005 77.5754 26.1054 77.5322 25.9993C77.489 25.8933 77.4698 25.7789 77.4762 25.6645V23.754H77.0422C77.0022 23.754 76.9772 23.754 76.9772 23.679V23.3945C76.9772 23.3395 77.0022 23.3145 77.0422 23.3145H77.4812V22.547C77.4812 22.507 77.4812 22.482 77.5562 22.482H77.9152C77.9752 22.482 77.9902 22.4815 77.9902 22.5465ZM83.7067 23.0905C83.7067 23.1505 83.7067 23.1955 83.6217 23.22L83.0632 23.4245C83.0493 23.4318 83.034 23.4359 83.0183 23.4365C83.0027 23.4371 82.987 23.4341 82.9727 23.4279C82.9583 23.4217 82.9455 23.4123 82.9352 23.4005C82.9249 23.3886 82.9174 23.3747 82.9132 23.3595C82.8663 23.2329 82.7786 23.1254 82.6639 23.0541C82.5492 22.9827 82.4141 22.9516 82.2797 22.9655C81.9357 22.9655 81.7112 23.13 81.7112 23.3795C81.7112 23.629 81.8857 23.7335 82.6612 24.003C83.4367 24.2725 83.7487 24.6415 83.7487 25.253C83.7487 25.9865 83.1202 26.545 82.2122 26.545C81.8768 26.5857 81.5379 26.5042 81.2576 26.3156C80.9773 26.1269 80.7743 25.8436 80.6857 25.5175C80.6811 25.5048 80.6792 25.4912 80.68 25.4777C80.6808 25.4642 80.6844 25.451 80.6904 25.4389C80.6965 25.4267 80.705 25.416 80.7154 25.4073C80.7257 25.3985 80.7377 25.392 80.7507 25.388L81.3542 25.188C81.4342 25.163 81.4737 25.188 81.4937 25.268C81.5267 25.4265 81.6188 25.5665 81.7514 25.6594C81.884 25.7523 82.047 25.7912 82.2072 25.768C82.6162 25.768 82.8307 25.5935 82.8307 25.334C82.8307 25.0745 82.6762 24.984 82.0477 24.7655C81.1447 24.4415 80.8007 24.082 80.8007 23.4155C80.8138 23.2382 80.8624 23.0652 80.9434 22.9069C81.0245 22.7486 81.1364 22.6081 81.2726 22.4937C81.4088 22.3794 81.5666 22.2934 81.7365 22.241C81.9065 22.1886 82.0852 22.1708 82.2622 22.1885C82.5719 22.1577 82.883 22.232 83.1454 22.3994C83.4078 22.5668 83.6062 22.8177 83.7087 23.1115M85.5047 22.5925V23.311H86.1047C86.1176 23.3094 86.1306 23.3108 86.1429 23.3149C86.1552 23.3191 86.1663 23.3261 86.1755 23.3353C86.1847 23.3444 86.1916 23.3556 86.1958 23.3678C86.2 23.3801 86.2013 23.3932 86.1997 23.406V23.93C86.2005 23.9425 86.1986 23.955 86.194 23.9666C86.1895 23.9783 86.1824 23.9888 86.1734 23.9974C86.1643 24.006 86.1534 24.0124 86.1416 24.0164C86.1297 24.0203 86.1171 24.0215 86.1047 24.02H85.5047V25.4415C85.5047 25.626 85.6047 25.731 85.8437 25.731H86.1032C86.1632 25.731 86.1982 25.761 86.1982 25.816V26.408C86.1982 26.468 86.1632 26.493 86.1032 26.493H85.7012C84.9827 26.493 84.6437 26.114 84.6437 25.555V24.005H84.2747C84.2623 24.0065 84.2497 24.0053 84.2379 24.0014C84.226 23.9974 84.2151 23.991 84.2061 23.9824C84.197 23.9738 84.1899 23.9633 84.1854 23.9516C84.1808 23.94 84.1789 23.9275 84.1797 23.915V23.39C84.1781 23.3772 84.1794 23.3641 84.1836 23.3518C84.1878 23.3396 84.1948 23.3284 84.2039 23.3193C84.2131 23.3101 84.2242 23.3031 84.2365 23.2989C84.2488 23.2948 84.2618 23.2934 84.2747 23.295H84.6587V22.592C84.6572 22.5803 84.6583 22.5684 84.662 22.5571C84.6656 22.5458 84.6718 22.5355 84.6799 22.5269C84.688 22.5183 84.698 22.5116 84.709 22.5073C84.72 22.503 84.7319 22.5012 84.7437 22.502H85.4222C85.4772 22.502 85.5022 22.537 85.5022 22.592M88.5052 25.3955V25.0955C88.3387 25.0856 88.1717 25.0856 88.0052 25.0955C87.6812 25.1355 87.5052 25.235 87.5052 25.4845C87.5052 25.734 87.6552 25.8345 87.9052 25.8345C88.0425 25.8364 88.1765 25.7929 88.2865 25.7108C88.3966 25.6287 88.4764 25.5126 88.5137 25.3805M89.3667 24.283V26.378C89.3667 26.3896 89.3644 26.4011 89.3598 26.4118C89.3552 26.4224 89.3485 26.432 89.3401 26.44C89.3316 26.4479 89.3217 26.4541 89.3108 26.4581C89.2999 26.462 89.2883 26.4637 89.2767 26.463H88.6382C88.6266 26.4637 88.615 26.462 88.6041 26.4581C88.5932 26.4541 88.5833 26.4479 88.5748 26.44C88.5664 26.432 88.5597 26.4224 88.5551 26.4118C88.5505 26.4011 88.5482 26.3896 88.5482 26.378V26.034C88.459 26.1886 88.3301 26.3164 88.1748 26.4044C88.0196 26.4923 87.8436 26.5371 87.6652 26.534C87.5311 26.5449 87.3963 26.5265 87.27 26.4801C87.1438 26.4337 87.0291 26.3604 86.934 26.2653C86.8389 26.1702 86.7656 26.0555 86.7191 25.9292C86.6727 25.803 86.6543 25.6681 86.6652 25.534C86.6652 24.9505 87.0342 24.606 87.9272 24.534C88.1196 24.5166 88.3133 24.5166 88.5057 24.534V24.308C88.5142 24.2486 88.5087 24.188 88.4896 24.1311C88.4705 24.0742 88.4383 24.0226 88.3956 23.9804C88.3529 23.9382 88.3009 23.9066 88.2438 23.8881C88.1867 23.8697 88.126 23.8648 88.0667 23.874C87.9696 23.8609 87.871 23.8835 87.7893 23.9377C87.7076 23.9919 87.6484 24.0739 87.6227 24.1685C87.5927 24.2385 87.5727 24.2535 87.5082 24.2335L86.8697 24.074C86.8047 24.074 86.7997 24.019 86.8147 23.974C86.8997 23.515 87.3147 23.181 88.0967 23.181C88.8787 23.181 89.3587 23.56 89.3587 24.2785M91.9627 23.311V23.9345C91.9627 24.0095 91.9327 24.0345 91.8582 24.0345H91.7632C91.5809 24.0115 91.3965 24.0554 91.2442 24.1581C91.0919 24.2609 90.9821 24.4154 90.9352 24.593V26.378C90.9366 26.3887 90.9358 26.3995 90.9326 26.4098C90.9295 26.4201 90.9242 26.4296 90.9171 26.4377C90.91 26.4457 90.9012 26.4522 90.8914 26.4565C90.8816 26.4609 90.871 26.4631 90.8602 26.463H90.1317C90.121 26.4631 90.1103 26.4609 90.1005 26.4565C90.0907 26.4522 90.0819 26.4457 90.0748 26.4377C90.0677 26.4296 90.0624 26.4201 90.0593 26.4098C90.0562 26.3995 90.0553 26.3887 90.0567 26.378V23.335C90.0559 23.3239 90.0575 23.3127 90.0616 23.3022C90.0656 23.2918 90.0719 23.2824 90.0801 23.2747C90.0882 23.2671 90.098 23.2613 90.1087 23.2579C90.1193 23.2545 90.1306 23.2535 90.1417 23.255H90.8052C90.817 23.2542 90.8289 23.256 90.8399 23.2603C90.8509 23.2646 90.8609 23.2713 90.869 23.2799C90.8772 23.2885 90.8833 23.2988 90.8869 23.3101C90.8906 23.3214 90.8917 23.3333 90.8902 23.345V23.809C90.9746 23.6349 91.1076 23.489 91.2732 23.389C91.4388 23.289 91.6299 23.2392 91.8232 23.2455C91.9377 23.2455 91.9627 23.2455 91.9627 23.3455M93.6687 22.5925V23.311H94.2687C94.2812 23.3102 94.2937 23.3122 94.3053 23.3167C94.3169 23.3213 94.3274 23.3283 94.336 23.3374C94.3446 23.3465 94.3511 23.3573 94.355 23.3692C94.359 23.3811 94.3602 23.3936 94.3587 23.406V23.93C94.3604 23.9423 94.3592 23.9547 94.3552 23.9663C94.3513 23.978 94.3447 23.9886 94.336 23.9973C94.3273 24.006 94.3167 24.0126 94.305 24.0166C94.2933 24.0205 94.2809 24.0217 94.2687 24.02H93.6687V25.4415C93.6687 25.626 93.7687 25.731 94.0027 25.731H94.2672C94.279 25.7295 94.2909 25.7306 94.3022 25.7343C94.3134 25.738 94.3237 25.7441 94.3323 25.7522C94.3409 25.7604 94.3477 25.7703 94.352 25.7813C94.3563 25.7924 94.358 25.8042 94.3572 25.816V26.408C94.3572 26.468 94.3222 26.493 94.2672 26.493H93.8632C93.1447 26.493 92.8107 26.114 92.8107 25.555V24.005H92.4367C92.4245 24.0067 92.4121 24.0055 92.4004 24.0016C92.3887 23.9976 92.3781 23.991 92.3694 23.9823C92.3607 23.9736 92.3541 23.963 92.3502 23.9513C92.3462 23.9397 92.3451 23.9272 92.3467 23.915V23.39C92.3452 23.3776 92.3465 23.3651 92.3504 23.3532C92.3543 23.3413 92.3608 23.3305 92.3694 23.3214C92.378 23.3123 92.3885 23.3053 92.4001 23.3007C92.4117 23.2962 92.4242 23.2942 92.4367 23.295H92.8207V22.592C92.8191 22.5798 92.8202 22.5674 92.8242 22.5557C92.8281 22.5441 92.8347 22.5335 92.8434 22.5248C92.8521 22.516 92.8627 22.5095 92.8744 22.5055C92.8861 22.5016 92.8985 22.5004 92.9107 22.502H93.5892C93.6006 22.502 93.6119 22.5043 93.6223 22.5089C93.6327 22.5136 93.6421 22.5204 93.6496 22.5289C93.6572 22.5374 93.6629 22.5475 93.6663 22.5583C93.6696 22.5692 93.6706 22.5807 93.6692 22.592M97.4602 23.9835C97.4602 24.0335 97.4602 24.0785 97.3902 24.098L96.8567 24.2875C96.7967 24.2875 96.7667 24.2875 96.7422 24.2225C96.7017 24.1123 96.6257 24.0186 96.5261 23.9563C96.4265 23.8941 96.3091 23.8667 96.1922 23.8785C95.9177 23.8785 95.7582 23.9835 95.7582 24.143C95.7582 24.3025 95.8727 24.3625 96.4867 24.527C97.2002 24.7165 97.4867 25.027 97.4867 25.527C97.4867 26.1455 96.9867 26.527 96.1897 26.527C95.3927 26.527 94.9727 26.2425 94.8077 25.754C94.8077 25.684 94.8077 25.6495 94.8927 25.6145L95.3617 25.385C95.4317 25.35 95.4712 25.385 95.5062 25.455C95.558 25.5817 95.6492 25.6884 95.7662 25.7593C95.8832 25.8302 96.02 25.8617 96.1562 25.849C96.4802 25.849 96.6562 25.744 96.6562 25.5695C96.6562 25.395 96.4767 25.31 95.9032 25.1505C95.1997 24.966 94.9032 24.6505 94.9032 24.1505C94.9032 23.542 95.4032 23.1505 96.1502 23.1505C96.422 23.1231 96.6954 23.1846 96.9293 23.3258C97.1632 23.467 97.3449 23.6802 97.4472 23.9335M102.835 22.313V26.383C102.835 26.433 102.835 26.468 102.745 26.468H102.037C102.025 26.4687 102.014 26.467 102.003 26.4631C101.992 26.4591 101.982 26.4529 101.973 26.445C101.965 26.437 101.958 26.4274 101.954 26.4168C101.949 26.4061 101.947 26.3946 101.947 26.383V24.7765H100.485V26.393C100.486 26.4049 100.484 26.4167 100.48 26.4277C100.476 26.4388 100.469 26.4487 100.46 26.4569C100.452 26.465 100.441 26.4711 100.43 26.4748C100.419 26.4784 100.407 26.4796 100.395 26.478H99.6667C99.6551 26.4787 99.6435 26.477 99.6326 26.4731C99.6217 26.4691 99.6118 26.4629 99.6033 26.455C99.5949 26.447 99.5882 26.4374 99.5836 26.4268C99.579 26.4161 99.5767 26.4046 99.5767 26.393V22.313C99.5766 22.301 99.5791 22.2891 99.584 22.278C99.5889 22.267 99.596 22.2571 99.605 22.2491C99.614 22.2411 99.6246 22.235 99.6361 22.2314C99.6476 22.2278 99.6597 22.2266 99.6717 22.228H100.395C100.407 22.2265 100.419 22.2276 100.43 22.2313C100.441 22.235 100.452 22.2411 100.46 22.2492C100.469 22.2574 100.476 22.2673 100.48 22.2783C100.484 22.2894 100.486 22.3012 100.485 22.313V23.929H101.947V22.313C101.947 22.3014 101.949 22.29 101.954 22.2793C101.958 22.2687 101.965 22.2591 101.973 22.2511C101.982 22.2431 101.992 22.237 102.003 22.233C102.014 22.2291 102.025 22.2274 102.037 22.228H102.76C102.825 22.228 102.85 22.263 102.85 22.313M104.377 24.463V24.5725H105.494V24.463C105.5 24.3859 105.49 24.3084 105.465 24.2353C105.44 24.1623 105.4 24.0952 105.347 24.0384C105.295 23.9816 105.231 23.9363 105.16 23.9053C105.089 23.8743 105.013 23.8583 104.935 23.8583C104.858 23.8583 104.782 23.8743 104.711 23.9053C104.64 23.9363 104.576 23.9816 104.524 24.0384C104.471 24.0952 104.431 24.1623 104.406 24.2353C104.381 24.3084 104.371 24.3859 104.377 24.463ZM104.377 25.1415V25.263C104.364 25.3422 104.37 25.4233 104.395 25.4996C104.419 25.5759 104.462 25.6451 104.52 25.7013C104.577 25.7576 104.647 25.7992 104.723 25.8228C104.8 25.8463 104.881 25.851 104.96 25.8365C105.086 25.8558 105.214 25.833 105.325 25.7717C105.436 25.7103 105.523 25.6139 105.574 25.4975C105.629 25.4075 105.654 25.3975 105.743 25.4375L106.202 25.672C106.297 25.717 106.302 25.762 106.262 25.8515C106.136 26.083 105.946 26.2726 105.713 26.397C105.481 26.5214 105.218 26.5751 104.955 26.5515C104.773 26.5757 104.588 26.5598 104.413 26.5048C104.238 26.4497 104.077 26.357 103.941 26.2331C103.806 26.1092 103.699 25.9571 103.629 25.7875C103.558 25.6179 103.526 25.435 103.534 25.2515V24.5025C103.525 24.3202 103.556 24.1382 103.625 23.9692C103.694 23.8002 103.8 23.6485 103.934 23.5246C104.068 23.4007 104.227 23.3076 104.401 23.252C104.575 23.1964 104.759 23.1795 104.94 23.2025C105.116 23.185 105.294 23.2057 105.461 23.2633C105.629 23.3209 105.782 23.4141 105.91 23.5363C106.038 23.6586 106.138 23.8071 106.203 23.9716C106.268 24.1361 106.297 24.3128 106.287 24.4895V24.9895C106.287 25.0745 106.257 25.134 106.133 25.134L104.377 25.1415ZM108.816 23.311V23.9345C108.816 24.0095 108.791 24.0345 108.711 24.0345H108.621C108.439 24.0115 108.255 24.0554 108.102 24.1581C107.95 24.2609 107.84 24.4154 107.793 24.593V26.378C107.794 26.3886 107.792 26.3991 107.789 26.4091C107.786 26.419 107.78 26.4282 107.773 26.4361C107.766 26.444 107.758 26.4505 107.748 26.4551C107.739 26.4597 107.729 26.4624 107.718 26.463H106.985C106.974 26.4631 106.963 26.4609 106.953 26.4565C106.944 26.4522 106.935 26.4457 106.928 26.4377C106.921 26.4296 106.915 26.4201 106.912 26.4098C106.909 26.3995 106.908 26.3887 106.91 26.378V23.335C106.909 23.3239 106.911 23.3127 106.915 23.3022C106.919 23.2918 106.925 23.2824 106.933 23.2747C106.941 23.2671 106.951 23.2613 106.962 23.2579C106.972 23.2545 106.984 23.2535 106.995 23.255H107.658C107.728 23.255 107.743 23.3 107.743 23.345V23.809C107.828 23.6349 107.961 23.489 108.126 23.389C108.292 23.289 108.483 23.2392 108.676 23.2455C108.796 23.2455 108.816 23.2455 108.816 23.3455M110.083 24.463V24.5725H111.201V24.463C111.207 24.3859 111.197 24.3084 111.172 24.2353C111.147 24.1623 111.107 24.0952 111.054 24.0384C111.002 23.9816 110.938 23.9363 110.867 23.9053C110.796 23.8743 110.72 23.8583 110.642 23.8583C110.565 23.8583 110.489 23.8743 110.418 23.9053C110.347 23.9363 110.283 23.9816 110.231 24.0384C110.178 24.0952 110.138 24.1623 110.113 24.2353C110.088 24.3084 110.078 24.3859 110.084 24.463M110.084 25.1415V25.263C110.071 25.3422 110.077 25.4233 110.102 25.4996C110.126 25.5759 110.169 25.6451 110.227 25.7013C110.284 25.7576 110.354 25.7992 110.43 25.8228C110.507 25.8463 110.588 25.851 110.667 25.8365C110.793 25.8561 110.922 25.8335 111.034 25.7722C111.146 25.7109 111.234 25.6143 111.286 25.4975C111.336 25.4075 111.361 25.3975 111.45 25.4375L111.909 25.672C112.004 25.717 112.009 25.762 111.969 25.8515C111.843 26.083 111.653 26.2726 111.42 26.397C111.188 26.5214 110.925 26.5751 110.662 26.5515C110.481 26.5742 110.297 26.557 110.123 26.5013C109.949 26.4455 109.789 26.3525 109.655 26.2288C109.521 26.1051 109.415 25.9535 109.345 25.7848C109.275 25.616 109.243 25.434 109.251 25.2515V24.5025C109.242 24.3202 109.273 24.1382 109.342 23.9692C109.411 23.8002 109.517 23.6485 109.651 23.5246C109.785 23.4007 109.944 23.3076 110.118 23.252C110.292 23.1964 110.476 23.1795 110.657 23.2025C110.833 23.185 111.011 23.2057 111.178 23.2633C111.346 23.3209 111.499 23.4141 111.627 23.5363C111.755 23.6586 111.855 23.8071 111.92 23.9716C111.985 24.1361 112.014 24.3128 112.004 24.4895V24.9895C112.004 25.0745 111.974 25.134 111.85 25.134L110.084 25.1415Z" fill="#27263A"/>
</g>
</g>
<defs>
<clipPath id="clip0_463_17362">
<rect width="111.997" height="32" fill="white" transform="translate(0.0012207)"/>
</clipPath>
</defs>
</svg>
