<svg width="173" height="57" viewBox="0 0 173 57" fill="none" xmlns="http://www.w3.org/2000/svg">
    <rect width="173" height="57" rx="5" fill="#0A1026"/>
    <path fill-rule="evenodd" clip-rule="evenodd" d="M74.0672 24.039C74.1077 24.1329 74.1051 24.2394 74.06 24.3313C74.015 24.4232 73.9319 24.4918 73.8318 24.5196L71.7475 25.1251C71.4925 25.1972 71.3601 25.1251 71.2571 24.8752C71.0095 23.8502 70.0268 23.1624 68.9571 23.2653C66.9954 23.2653 66.3235 24.4042 66.3235 25.9372V29.4645C66.3235 30.9975 66.9856 32.1364 68.9571 32.1364C70.5803 32.1364 71.4091 31.3963 71.4091 29.7865V29.3059H69.2905C69.2083 29.3127 69.1274 29.2822 69.071 29.2232C69.0146 29.1642 68.9889 29.0831 69.0012 29.0032V27.0905C68.9908 27.011 69.0172 26.931 69.0731 26.8724C69.1291 26.8139 69.2088 26.7828 69.2905 26.7878H74.0083C74.0899 26.7757 74.1726 26.801 74.2329 26.8562C74.2931 26.9115 74.3242 26.9907 74.3173 27.0713V29.9883C74.3173 32.7755 72.2281 34.8755 68.9816 34.8755C65.1318 34.8755 63.332 32.641 63.332 29.5894V25.8603C63.332 22.7896 65.1318 20.5742 68.9816 20.5742C72.0957 20.5742 73.5032 22.3138 74.0672 24.0582V24.039ZM84.6601 27.5278V34.3661C84.6644 34.4426 84.6352 34.5171 84.58 34.5712C84.5248 34.6254 84.4487 34.6539 84.3707 34.6497H82.2423C82.1615 34.6581 82.0809 34.6317 82.0216 34.5773C81.9623 34.5228 81.9301 34.4457 81.9334 34.3661V33.2465C81.318 34.2612 80.1953 34.8754 78.9909 34.8563C76.9802 34.8563 75.6806 33.5876 75.6806 31.6366C75.6806 29.6855 76.9017 28.6043 79.8785 28.3977C80.5217 28.3496 81.1676 28.3496 81.8108 28.3977V27.6192C81.8108 26.5956 81.2713 26.1775 80.3395 26.1775C79.6712 26.0853 79.0385 26.4986 78.8683 27.1386C78.7702 27.3645 78.6966 27.4029 78.4809 27.3452L76.3525 26.8166C76.1416 26.759 76.122 26.6436 76.1612 26.4947C76.4506 24.9953 77.9022 23.8949 80.4523 23.8949C83.1398 23.8949 84.6502 25.1491 84.6502 27.499L84.6601 27.5278ZM81.8059 31.0791V30.1228C81.238 30.1027 80.6693 30.122 80.1041 30.1805C79.0252 30.3103 78.4416 30.6322 78.4416 31.4492C78.4416 32.1844 78.932 32.5833 79.7756 32.5833C80.7164 32.6024 81.5512 31.9957 81.8059 31.108V31.0791ZM92.3399 23.9237C93.5654 23.9017 94.6525 24.6908 94.9881 25.8459C95.7826 24.707 96.7487 23.9237 98.1023 23.9237C99.9756 23.9237 101.045 25.3654 101.045 27.5615V34.3661C101.039 34.4497 100.998 34.5271 100.932 34.5806C100.867 34.6341 100.781 34.659 100.697 34.6497H98.475C98.3901 34.659 98.3049 34.6341 98.2392 34.5806C98.1735 34.5271 98.1329 34.4497 98.1268 34.3661V28.0565C98.1268 27.0953 97.7001 26.5379 96.9449 26.5379C96.1896 26.5379 95.5717 27.1867 95.2824 28.1718V34.3661C95.2878 34.4395 95.2618 34.5118 95.2107 34.5656C95.1595 34.6194 95.0877 34.6499 95.0127 34.6497H92.6096C92.438 34.6497 92.3595 34.5343 92.3595 34.3661V28.0565C92.3595 27.0953 91.9329 26.5379 91.1776 26.5379C90.4224 26.5379 89.7849 27.2203 89.5151 28.191V34.3661C89.5228 34.4434 89.4948 34.52 89.4388 34.5749C89.3828 34.6298 89.3047 34.6572 89.2258 34.6497H86.8669C86.7881 34.6572 86.7099 34.6298 86.6539 34.5749C86.5979 34.52 86.5699 34.4434 86.5776 34.3661V24.4187C86.5774 24.3451 86.6085 24.2748 86.6633 24.2246C86.7183 24.1745 86.792 24.149 86.8669 24.1544H89.1277C89.2029 24.1475 89.2776 24.1724 89.3329 24.2229C89.3882 24.2734 89.4188 24.3446 89.4171 24.4187V25.6104C90.0595 24.7406 90.9864 23.9237 92.3595 23.9237H92.3399ZM113.207 24.1544C113.266 24.3994 113.207 24.5868 112.957 24.6349L110.907 25.2212C110.813 25.2652 110.704 25.2625 110.613 25.214C110.521 25.1655 110.459 25.077 110.446 24.9761C110.152 24.015 109.651 23.2701 108.219 23.2701C106.459 23.2701 105.9 24.409 105.9 25.942V29.4693C105.9 31.0023 106.537 32.1412 108.219 32.1412C109.73 32.1412 110.309 31.305 110.539 30.2622C110.55 30.1588 110.612 30.0673 110.706 30.0182C110.799 29.9691 110.911 29.9686 111.005 30.0171L113.06 30.6707C113.16 30.6991 113.244 30.7669 113.291 30.8579C113.338 30.9489 113.345 31.0551 113.31 31.1512C112.82 33.1984 111.319 34.8611 108.185 34.8611C104.669 34.8611 102.889 32.6265 102.889 29.575V25.8603C102.889 22.7896 104.703 20.5742 108.185 20.5742C111.24 20.5742 112.672 22.1649 113.212 24.1736L113.207 24.1544ZM123.501 27.5278V34.3661C123.505 34.4426 123.476 34.5171 123.421 34.5712C123.365 34.6254 123.289 34.6539 123.211 34.6497H121.083C121.002 34.6581 120.922 34.6317 120.862 34.5773C120.803 34.5228 120.771 34.4457 120.774 34.3661V33.2465C120.159 34.2612 119.036 34.8754 117.832 34.8563C115.821 34.8563 114.526 33.5876 114.526 31.6366C114.526 29.6855 115.742 28.6043 118.719 28.3977C119.364 28.3495 120.011 28.3495 120.656 28.3977V27.6192C120.656 26.5956 120.112 26.1775 119.185 26.1775C118.518 26.0898 117.888 26.5013 117.714 27.1386C117.621 27.3645 117.542 27.4029 117.326 27.3452L115.203 26.8166C114.987 26.759 114.968 26.6436 115.007 26.4947C115.296 24.9953 116.748 23.8949 119.303 23.8949C121.99 23.8949 123.496 25.1491 123.496 27.499L123.501 27.5278ZM120.656 31.0791V30.1228C120.088 30.1025 119.52 30.1218 118.955 30.1805C117.871 30.3103 117.292 30.6322 117.292 31.4492C117.292 32.1844 117.782 32.5833 118.626 32.5833C119.566 32.6006 120.4 31.9947 120.656 31.108V31.0791ZM131.784 24.3418V26.3697C131.784 26.6148 131.686 26.7109 131.436 26.7109H131.122C129.577 26.7109 128.67 27.3933 128.361 28.5322V34.3661C128.366 34.4371 128.342 34.5071 128.294 34.5605C128.246 34.6138 128.178 34.646 128.106 34.6497H125.654C125.581 34.646 125.513 34.6138 125.465 34.5605C125.417 34.5071 125.393 34.4371 125.399 34.3661V24.4187C125.395 24.3441 125.426 24.2719 125.481 24.2211C125.537 24.1702 125.612 24.1458 125.688 24.1544H127.895C128.125 24.1544 128.184 24.3033 128.184 24.4571V25.8603C128.763 24.6896 129.991 23.9626 131.318 24.0054C131.705 24.0054 131.808 24.063 131.808 24.3274L131.784 24.3418ZM135.58 30.2526V30.6515C135.58 31.7519 136.163 32.5256 137.541 32.5256C138.919 32.5256 139.243 32.0451 139.591 31.4107C139.763 31.1272 139.841 31.0888 140.15 31.2185L141.675 31.9778C141.989 32.1316 142.009 32.2805 141.872 32.5641C141.214 34.0057 139.572 34.8563 137.522 34.8563C134.427 34.8563 132.804 33.059 132.804 30.5938V28.191C132.804 25.7882 134.329 23.9237 137.502 23.9237C140.518 23.9237 141.989 25.8027 141.989 28.1333V29.8009C141.989 30.0844 141.891 30.2814 141.499 30.2814L135.58 30.2526ZM135.58 28.0372V28.3977H139.312V28.0372C139.359 27.5423 139.179 27.0524 138.821 26.7004C138.463 26.3485 137.963 26.1709 137.458 26.2159C136.95 26.1703 136.448 26.3468 136.086 26.698C135.724 27.0493 135.538 27.5395 135.58 28.0372Z" fill="white"/>
    <path fill-rule="evenodd" clip-rule="evenodd" d="M44.714 11.6348H31.5571C31.4507 11.6335 31.3482 11.6751 31.2726 11.7506C31.1969 11.826 31.1543 11.9288 31.1543 12.0361V31.3409C31.1567 38.229 36.6922 43.8123 43.52 43.8127H44.714C51.541 43.8127 57.0754 38.2289 57.0754 31.3409V24.1066C57.0754 17.2186 51.541 11.6348 44.714 11.6348V11.6348ZM53.1025 31.5516C53.1025 36.2474 49.6864 39.7942 44.366 39.7942C38.0659 39.7942 35.1223 36.0216 35.1223 30.8743V24.5883C35.1223 19.4109 38.0659 15.6432 44.356 15.6432C49.4527 15.6432 51.7649 18.5831 52.6848 21.523C52.7567 21.6809 52.7569 21.8626 52.6853 22.0206C52.6136 22.1786 52.4773 22.2973 52.3119 22.3457L48.8909 23.3491C48.4831 23.4745 48.2594 23.3491 48.135 22.9327C47.5931 21.1768 46.4544 20.2186 44.366 20.2186C41.1339 20.2186 40.0599 22.135 40.0599 24.7337V30.6887C40.0599 33.2774 41.1339 35.2039 44.366 35.2039C47.0262 35.2039 48.4185 33.9547 48.4185 31.2406V30.463H44.8533C44.7166 30.4814 44.5792 30.4345 44.4817 30.3361C44.3843 30.2377 44.3378 30.0991 44.356 29.9613V26.6652C44.3454 26.5292 44.3944 26.3952 44.49 26.2987C44.5857 26.2022 44.7184 26.1529 44.8533 26.1635H52.5953C52.7272 26.1466 52.8597 26.1903 52.956 26.2827C53.0525 26.3751 53.1026 26.5063 53.0925 26.6401L53.1025 31.5516Z" fill="#2E008B"/>
    <path fill-rule="evenodd" clip-rule="evenodd" d="M66.2166 39.4676C66.2281 39.4867 66.2297 39.5099 66.2211 39.5303C66.2125 39.5508 66.1945 39.5662 66.1725 39.572L65.8292 39.6764C65.7753 39.6764 65.7458 39.6764 65.7213 39.6337C65.6199 39.2525 65.2489 38.9978 64.8435 39.0311C64.574 38.9962 64.303 39.0849 64.1107 39.271C63.9184 39.4571 63.8267 39.7193 63.8627 39.9801V41.2376C63.8267 41.4984 63.9184 41.7606 64.1107 41.9466C64.303 42.1327 64.574 42.2214 64.8435 42.1866C65.3977 42.1866 65.7606 41.9398 65.7606 41.3847V40.9101H64.9563C64.9122 40.9101 64.8877 40.9101 64.8877 40.839V40.578C64.8877 40.5305 64.8877 40.5068 64.9563 40.5068H66.2019C66.2226 40.5038 66.2436 40.5102 66.2589 40.5241C66.2742 40.5379 66.2821 40.5578 66.2804 40.578V41.4511C66.2838 41.8098 66.1289 42.1528 65.8544 42.3939C65.5799 42.635 65.2121 42.7512 64.8435 42.7133C64.4376 42.7595 64.0319 42.6257 63.7396 42.3493C63.4473 42.0729 63.2997 41.6835 63.338 41.2898V39.9564C63.2997 39.5626 63.4473 39.1732 63.7396 38.8968C64.0319 38.6204 64.4376 38.4866 64.8435 38.5328C65.4693 38.4844 66.0436 38.8695 66.2166 39.4534L66.2166 39.4676ZM68.8648 41.7216V41.247C68.6329 41.2329 68.4003 41.2329 68.1684 41.247C67.7369 41.2945 67.4769 41.4416 67.4769 41.788C67.4652 41.935 67.5248 42.0789 67.6382 42.1775C67.7515 42.276 67.9058 42.318 68.0556 42.291C68.4218 42.2879 68.7462 42.0616 68.8648 41.7263V41.7216ZM69.3552 40.5115V42.5852C69.3552 42.6279 69.3552 42.6469 69.2816 42.6469H68.9383C68.8893 42.6469 68.8648 42.6469 68.8648 42.5852V42.1913C68.6729 42.5051 68.3245 42.698 67.9477 42.6991C67.6918 42.7238 67.4373 42.6405 67.2494 42.4706C67.0615 42.3006 66.9586 42.0605 66.9669 41.8117C66.9669 41.2565 67.3543 40.9528 68.1095 40.8959C68.3561 40.8794 68.6035 40.8794 68.8501 40.8959V40.5448C68.8501 40.1462 68.6098 39.9801 68.2223 39.9801C67.9366 39.9343 67.6621 40.1073 67.5897 40.3787C67.5897 40.4309 67.5505 40.4356 67.4917 40.4261L67.1582 40.336C67.1042 40.336 67.0895 40.298 67.1042 40.2553C67.2072 39.8377 67.5946 39.5673 68.2371 39.5673C68.8795 39.5673 69.3552 39.871 69.3552 40.5163V40.5115ZM71.611 39.5578C71.9611 39.5507 72.271 39.776 72.3613 40.1035C72.546 39.7799 72.8917 39.573 73.2734 39.5578C73.7638 39.5578 74.1022 39.9184 74.1022 40.4831V42.5757C74.1022 42.6231 74.0728 42.6421 74.0237 42.6421H73.6853C73.6314 42.6421 73.6069 42.6421 73.6069 42.5757V40.578C73.6069 40.2079 73.4352 40.0086 73.1165 40.0086C72.7899 40.0447 72.5194 40.2706 72.4348 40.578V42.5852C72.4348 42.6326 72.4348 42.6516 72.3662 42.6516H71.9886C71.9346 42.6516 71.9199 42.6516 71.9199 42.5852V40.578C71.9199 40.2079 71.7532 40.0086 71.4295 40.0086C71.1068 40.0531 70.8405 40.2755 70.7479 40.578V42.5615C70.7479 42.6089 70.7479 42.6279 70.6792 42.6279H70.3065C70.2526 42.6279 70.2379 42.6279 70.2379 42.5615V39.6764C70.2379 39.6384 70.2379 39.6147 70.3065 39.6147H70.6694C70.7234 39.6147 70.7381 39.6384 70.7381 39.6764V40.075C70.9179 39.769 71.2475 39.5737 71.611 39.5578V39.5578ZM75.5047 40.7868V41.4891C75.4903 41.6939 75.5675 41.895 75.7166 42.0411C75.8657 42.1872 76.0725 42.2644 76.2844 42.253C76.7356 42.253 77.0053 41.9968 77.0053 41.4891V40.782C77.0053 40.279 76.7356 40.0086 76.2844 40.0086C76.0732 40.004 75.8698 40.0859 75.7241 40.234C75.5785 40.3822 75.5042 40.5828 75.5194 40.7868L75.5047 40.7868ZM75.5194 38.5186V40.0323C75.7149 39.7239 76.0678 39.5423 76.4414 39.5578C76.7492 39.5531 77.0441 39.677 77.2508 39.8978C77.4574 40.1186 77.5555 40.4149 77.5202 40.7108V41.5507C77.5546 41.8493 77.4531 42.1475 77.2423 42.3679C77.0314 42.5883 76.732 42.7092 76.4218 42.6991C76.0517 42.7111 75.7034 42.5299 75.5096 42.2246V42.5757C75.5096 42.6184 75.4753 42.6326 75.441 42.6326H75.0781C75.0339 42.6326 75.0094 42.6326 75.0094 42.5757V38.5186C75.0079 38.5018 75.0141 38.4852 75.0264 38.4733C75.0387 38.4614 75.0558 38.4554 75.0732 38.4569L75.4606 38.4569C75.5047 38.4569 75.5194 38.4569 75.5194 38.5186ZM78.8345 38.5186V42.5757C78.8345 42.6231 78.8345 42.6421 78.7658 42.6421H78.3931C78.3343 42.6421 78.3196 42.6421 78.3196 42.5757V38.5186C78.3196 38.4759 78.3196 38.4521 78.3931 38.4521H78.7658C78.7849 38.4487 78.8045 38.4546 78.8183 38.4678C78.832 38.4811 78.8381 38.5001 78.8345 38.5186ZM80.2076 39.6811V42.5804C80.2076 42.6231 80.2076 42.6421 80.1438 42.6421H79.7711C79.7123 42.6421 79.6976 42.6421 79.6976 42.5804V39.6811C79.6976 39.6384 79.6976 39.6195 79.7711 39.6195H80.1438C80.1929 39.6195 80.2076 39.6195 80.2076 39.6811ZM80.2076 38.5376V39.069C80.2076 39.1212 80.2076 39.1497 80.1242 39.1497H79.781C79.758 39.1529 79.7348 39.1455 79.7184 39.1296C79.702 39.1137 79.6943 39.0912 79.6976 39.069V38.5376C79.6943 38.5153 79.702 38.4929 79.7184 38.477C79.7348 38.4611 79.758 38.4537 79.781 38.4569L80.1242 38.4569C80.188 38.4569 80.2076 38.4854 80.2076 38.5376V38.5376ZM81.6052 40.6017V42.5804C81.6052 42.6231 81.6052 42.6421 81.5415 42.6421H81.1884C81.1295 42.6421 81.1148 42.6421 81.1148 42.5804V39.6764C81.1148 39.6384 81.1148 39.6147 81.1835 39.6147H81.5464C81.6003 39.6147 81.615 39.6384 81.615 39.6764V40.075C81.833 39.7558 82.2005 39.5621 82.5958 39.5578C82.8615 39.551 83.1168 39.6579 83.2935 39.8499C83.4702 40.042 83.5505 40.2997 83.5129 40.5543V42.5804C83.5129 42.6231 83.5129 42.6421 83.4393 42.6421H83.0666C83.0176 42.6421 82.993 42.6421 82.993 42.5804V40.6349C82.993 40.2458 82.8116 40.0181 82.4193 40.0181C82.0582 40.0398 81.7463 40.2703 81.6297 40.6017H81.6052ZM84.7192 40.6492C84.7031 40.8314 84.7727 41.0111 84.9087 41.1381C85.0448 41.2652 85.2328 41.3261 85.4205 41.304C85.6032 41.3271 85.7867 41.2674 85.918 41.1423C86.0492 41.0172 86.1135 40.8405 86.0923 40.6634C86.0923 40.2965 85.785 39.9991 85.4058 39.9991C85.0266 39.9991 84.7192 40.2965 84.7192 40.6634V40.6492ZM86.3621 42.9411C86.3621 42.7228 86.2346 42.5188 85.7736 42.5188H85.1998C84.7683 42.5188 84.6359 42.7323 84.6359 42.9506C84.6359 43.2542 84.8811 43.4535 85.4842 43.4535C86.0874 43.4535 86.3621 43.2447 86.3621 42.9411V42.9411ZM86.8525 42.9079C86.8525 43.3824 86.4699 43.8142 85.4548 43.8142C84.5182 43.8142 84.1504 43.4725 84.1504 42.998C84.1545 42.7014 84.3508 42.4393 84.6408 42.3432C84.5102 42.2546 84.4288 42.1129 84.4201 41.9588C84.4274 41.7672 84.5532 41.5987 84.7388 41.5318C84.4216 41.355 84.2326 41.022 84.2485 40.6681C84.2325 40.3718 84.3539 40.084 84.5796 39.8831C84.8052 39.6821 85.1117 39.589 85.4156 39.6289H86.7838C86.823 39.6289 86.8426 39.6527 86.8426 39.6954V39.9658C86.8426 40.018 86.8132 40.037 86.774 40.037H86.2297C86.4439 40.2077 86.5621 40.4664 86.5484 40.7346C86.5484 41.2945 86.161 41.6836 85.4156 41.6836H85.1606C84.9448 41.6836 84.8516 41.7785 84.8516 41.8924C84.8516 42.0063 84.9497 42.1012 85.1606 42.1012H85.8324C86.568 42.1012 86.8574 42.4571 86.8574 42.8984L86.8525 42.9079ZM91.5357 39.3869C91.5458 39.4057 91.5453 39.4281 91.5343 39.4464C91.5234 39.4646 91.5036 39.4762 91.4818 39.4771L91.163 39.5957C91.1429 39.6033 91.1205 39.6024 91.1009 39.5935C91.0815 39.5845 91.0667 39.5681 91.06 39.5483C90.9483 39.2124 90.6147 38.9933 90.2509 39.0168C89.7605 39.0168 89.481 39.2398 89.481 39.6052C89.481 39.9706 89.6869 40.0797 90.4618 40.3834C91.2366 40.6871 91.5701 41.0098 91.5701 41.5745C91.5614 41.9028 91.4102 42.2124 91.1535 42.4273C90.8969 42.6423 90.5585 42.7426 90.2215 42.7038C89.5919 42.766 89.0093 42.3754 88.8484 41.7833C88.8484 41.7263 88.8484 41.7026 88.8974 41.6836L89.2309 41.5792C89.2946 41.5792 89.3191 41.5792 89.3339 41.6361C89.4323 42.023 89.8123 42.279 90.2215 42.234C90.7119 42.234 91.0306 41.9968 91.0306 41.6124C91.0306 41.2281 90.8443 41.0905 90.1332 40.8247C89.2799 40.4973 88.9562 40.1746 88.9562 39.6147C88.9688 39.3014 89.1167 39.0076 89.3636 38.8046C89.6106 38.6017 89.9342 38.5083 90.2558 38.547C90.8337 38.5083 91.365 38.8543 91.5455 39.3869H91.5357ZM92.3253 41.7073V39.6811C92.3253 39.6384 92.3498 39.6147 92.3988 39.6147H92.7715C92.8206 39.6147 92.8451 39.6384 92.8451 39.6811V41.6219C92.8451 42.0158 93.0265 42.2435 93.4139 42.2435C93.7773 42.2237 94.0908 41.99 94.2035 41.6551V39.6811C94.2035 39.6384 94.2035 39.6147 94.277 39.6147H94.6448C94.7037 39.6147 94.7184 39.6384 94.7184 39.6811V42.5757C94.7184 42.6184 94.7184 42.6421 94.6497 42.6421H94.2868C94.2677 42.6456 94.2481 42.6397 94.2344 42.6264C94.2207 42.6131 94.2146 42.5942 94.2182 42.5757V42.1818C94.0025 42.5041 93.6341 42.7002 93.2374 42.7038C92.9722 42.7089 92.7181 42.6016 92.5417 42.4099C92.3653 42.2183 92.2845 41.9616 92.3204 41.7073H92.3253ZM97.597 41.4843V40.763C97.6288 40.5648 97.5657 40.3633 97.4254 40.2156C97.2851 40.0678 97.083 39.9899 96.8761 40.0038C96.6676 39.998 96.4661 40.0776 96.3214 40.2231C96.1767 40.3685 96.1021 40.5663 96.116 40.7678V41.4796C96.1007 41.6831 96.1751 41.8833 96.3209 42.0308C96.4667 42.1782 96.6702 42.2589 96.881 42.253C97.3322 42.253 97.6019 41.9873 97.6019 41.4843H97.597ZM95.6698 43.7477C95.6524 43.7492 95.6353 43.7432 95.623 43.7313C95.6107 43.7194 95.6045 43.7028 95.606 43.686V39.6764C95.606 39.6337 95.6305 39.6147 95.6747 39.6147H96.0376C96.0556 39.6117 96.0742 39.617 96.0877 39.6291C96.1012 39.6412 96.108 39.6587 96.1062 39.6764L96.1062 40.0181C96.3035 39.7163 96.6494 39.5364 97.0183 39.5435C97.3276 39.5336 97.6261 39.6538 97.8369 39.8732C98.0475 40.0925 98.1496 40.3894 98.1168 40.6871V41.5365C98.1505 41.8321 98.0517 42.1275 97.8455 42.3479C97.6392 42.5683 97.3452 42.6927 97.038 42.6896C96.6652 42.7075 96.3125 42.525 96.1209 42.2151V43.6671C96.1224 43.6839 96.1162 43.7004 96.1039 43.7123C96.0916 43.7242 96.0745 43.7302 96.0572 43.7288L95.6698 43.7477ZM100.922 41.4843V40.763C100.954 40.5648 100.891 40.3633 100.75 40.2156C100.61 40.0678 100.408 39.9899 100.201 40.0038C99.9924 39.998 99.791 40.0776 99.6463 40.2231C99.5016 40.3685 99.427 40.5663 99.4409 40.7678V41.4796C99.4256 41.6822 99.4994 41.8817 99.6442 42.029C99.7889 42.1762 99.9911 42.2576 100.201 42.253C100.652 42.253 100.922 41.9873 100.922 41.4843ZM98.9897 43.7477C98.9724 43.7492 98.9553 43.7432 98.9429 43.7313C98.9307 43.7194 98.9245 43.7028 98.926 43.686V39.6764C98.926 39.6337 98.9505 39.6147 98.9946 39.6147H99.3575C99.3756 39.6117 99.3942 39.617 99.4076 39.6291C99.4211 39.6412 99.428 39.6587 99.4262 39.6764V40.0181C99.6235 39.7163 99.9694 39.5364 100.338 39.5435C100.648 39.5322 100.948 39.6518 101.16 39.8713C101.372 40.0908 101.475 40.3885 101.442 40.6871V41.5365C101.475 41.8329 101.376 42.1291 101.169 42.3497C100.961 42.5703 100.666 42.6941 100.358 42.6896C99.9856 42.7054 99.634 42.5235 99.4409 42.2151V43.6671C99.4424 43.6839 99.4362 43.7004 99.4239 43.7123C99.4116 43.7242 99.3945 43.7302 99.3771 43.7288L98.9897 43.7477ZM102.687 40.7583V41.527C102.687 41.7866 102.83 42.0266 103.062 42.1565C103.294 42.2864 103.581 42.2864 103.813 42.1565C104.045 42.0266 104.188 41.7866 104.188 41.527V40.7583C104.188 40.4987 104.045 40.2587 103.813 40.1288C103.581 39.9989 103.294 39.9989 103.062 40.1288C102.83 40.2587 102.687 40.4987 102.687 40.7583V40.7583ZM104.703 40.7346V41.527C104.703 41.9644 104.462 42.3686 104.07 42.5873C103.679 42.8059 103.196 42.8059 102.805 42.5873C102.414 42.3686 102.172 41.9644 102.172 41.527V40.7488C102.172 40.3114 102.414 39.9073 102.805 39.6886C103.196 39.4699 103.679 39.4699 104.07 39.6886C104.462 39.9073 104.703 40.3114 104.703 40.7488V40.7346ZM107.052 39.6289V39.9659C107.052 40.0181 107.052 40.037 106.973 40.037H106.91C106.507 40.0238 106.143 40.2693 106.017 40.6397V42.5662C106.017 42.6089 105.988 42.6231 105.953 42.6231H105.566C105.55 42.6246 105.534 42.6191 105.523 42.6081C105.511 42.5971 105.506 42.5817 105.507 42.5662V39.6764C105.507 39.6289 105.507 39.6147 105.576 39.6147H105.929C105.978 39.6147 106.002 39.6384 106.002 39.6811V40.1557C106.186 39.7968 106.57 39.5757 106.983 39.591C107.057 39.591 107.076 39.591 107.076 39.6622L107.052 39.6289ZM108.547 38.9029V39.6289H109.214C109.263 39.6289 109.283 39.6527 109.283 39.7049V39.9753C109.283 40.0275 109.283 40.0465 109.214 40.0465H108.547V41.7975C108.547 42.068 108.7 42.1913 108.984 42.1913H109.21C109.259 42.1913 109.283 42.1913 109.283 42.2578V42.5662C109.283 42.6184 109.283 42.6374 109.21 42.6374H108.91C108.685 42.669 108.456 42.601 108.288 42.4521C108.12 42.3031 108.03 42.089 108.042 41.8687V40.0513H107.616C107.576 40.0513 107.552 40.0513 107.552 39.9801V39.7096C107.552 39.6574 107.576 39.6337 107.616 39.6337H108.047V38.9029C108.047 38.865 108.047 38.8412 108.121 38.8412H108.474C108.533 38.8412 108.547 38.8412 108.547 38.9029V38.9029ZM114.167 39.4202C114.167 39.4771 114.167 39.5198 114.084 39.5435L113.535 39.7381C113.507 39.7521 113.474 39.7533 113.446 39.7413C113.418 39.7293 113.396 39.7054 113.388 39.6764C113.293 39.4285 113.037 39.2743 112.765 39.3015C112.426 39.3015 112.206 39.4581 112.206 39.6954C112.206 39.9326 112.377 40.0323 113.138 40.2885C113.898 40.5448 114.207 40.8959 114.207 41.4796C114.207 42.1771 113.589 42.7086 112.696 42.7086C112.015 42.7884 111.376 42.3722 111.196 41.7311C111.186 41.7065 111.188 41.6794 111.2 41.6561C111.212 41.6327 111.234 41.6152 111.259 41.6077L111.853 41.4179C111.931 41.3942 111.97 41.4179 111.99 41.4938C112.064 41.8022 112.289 41.9683 112.691 41.9683C113.093 41.9683 113.304 41.8022 113.304 41.5555C113.304 41.3087 113.152 41.2233 112.534 41.0145C111.647 40.7061 111.308 40.3644 111.308 39.7286C111.334 39.3877 111.502 39.0714 111.772 38.8516C112.043 38.6318 112.394 38.5271 112.745 38.5613C113.372 38.5009 113.96 38.8638 114.167 39.4391V39.4202ZM115.933 38.9456V39.6289H116.521C116.547 39.6258 116.573 39.6343 116.591 39.6519C116.609 39.6696 116.618 39.6944 116.614 39.7191V40.2173C116.616 40.2413 116.607 40.2647 116.588 40.2812C116.571 40.2977 116.546 40.3056 116.521 40.3028H115.933V41.6551C115.933 41.8307 116.031 41.9304 116.266 41.9304H116.521C116.58 41.9304 116.614 41.9588 116.614 42.011V42.5757C116.614 42.6326 116.58 42.6564 116.521 42.6564H116.129C115.423 42.6564 115.089 42.2957 115.089 41.7643V40.2885H114.726C114.702 40.2914 114.677 40.2835 114.659 40.267C114.641 40.2505 114.632 40.2271 114.633 40.2031V39.7049C114.63 39.6801 114.639 39.6553 114.657 39.6377C114.675 39.6201 114.701 39.6116 114.726 39.6147H115.104V38.9456C115.101 38.9231 115.109 38.9004 115.125 38.8838C115.141 38.8673 115.164 38.8586 115.187 38.8602H115.854C115.908 38.8602 115.933 38.8934 115.933 38.9456V38.9456ZM118.885 41.6124V41.3277C118.722 41.3183 118.558 41.3183 118.395 41.3277C118.076 41.3657 117.904 41.4606 117.904 41.6978C117.904 41.9351 118.051 42.03 118.296 42.03C118.574 42.0337 118.819 41.8566 118.895 41.5982L118.885 41.6124ZM119.733 40.5543V42.5472C119.733 42.5695 119.724 42.5907 119.707 42.606C119.691 42.6213 119.668 42.6292 119.645 42.6279H119.017C118.994 42.6292 118.972 42.6213 118.955 42.606C118.938 42.5907 118.929 42.5695 118.929 42.5472V42.2198C118.751 42.5191 118.418 42.7008 118.061 42.6943C117.795 42.7145 117.533 42.6211 117.345 42.4385C117.156 42.256 117.06 42.0027 117.08 41.7453C117.08 41.1901 117.443 40.8627 118.321 40.7963C118.51 40.7796 118.701 40.7796 118.89 40.7963V40.578C118.907 40.4634 118.867 40.3478 118.781 40.2664C118.697 40.185 118.576 40.1474 118.458 40.1652C118.261 40.1393 118.074 40.2591 118.022 40.4451C117.992 40.5115 117.973 40.5258 117.909 40.5068L117.281 40.355C117.218 40.355 117.213 40.3028 117.227 40.2601C117.311 39.8235 117.718 39.5056 118.488 39.5056C119.258 39.5056 119.728 39.8662 119.728 40.5495L119.733 40.5543ZM122.288 39.6289V40.2221C122.288 40.2933 122.259 40.317 122.185 40.317H122.092C121.721 40.2717 121.374 40.4989 121.278 40.8485V42.5472C121.281 42.5677 121.275 42.5883 121.26 42.6038C121.246 42.6193 121.226 42.6281 121.205 42.6279H120.489C120.467 42.6281 120.447 42.6193 120.433 42.6038C120.419 42.5883 120.412 42.5677 120.415 42.5472V39.6527C120.414 39.6312 120.422 39.6102 120.438 39.5954C120.454 39.5807 120.476 39.5738 120.498 39.5767H121.151C121.174 39.5751 121.197 39.5838 121.213 39.6004C121.23 39.6169 121.237 39.6396 121.234 39.6622V40.1035C121.403 39.7647 121.763 39.5544 122.151 39.5673C122.264 39.5673 122.288 39.5673 122.288 39.6622V39.6289ZM123.965 38.9456V39.6289H124.554C124.579 39.6274 124.603 39.6365 124.62 39.654C124.637 39.6714 124.645 39.6953 124.642 39.7191V40.2173C124.646 40.2408 124.637 40.2644 124.62 40.2812C124.602 40.298 124.578 40.3059 124.554 40.3028H123.965V41.6551C123.965 41.8307 124.064 41.9304 124.294 41.9304H124.554C124.577 41.9275 124.601 41.9348 124.618 41.9505C124.635 41.9661 124.644 41.9883 124.642 42.011V42.5757C124.642 42.6326 124.608 42.6564 124.554 42.6564H124.157C123.451 42.6564 123.122 42.2957 123.122 41.7643V40.2885H122.754C122.73 40.2917 122.706 40.2837 122.688 40.267C122.671 40.2502 122.662 40.2266 122.666 40.2031V39.7049C122.663 39.681 122.671 39.6572 122.688 39.6397C122.705 39.6223 122.73 39.6131 122.754 39.6147L123.132 39.6147V38.9456C123.128 38.9222 123.137 38.8985 123.154 38.8818C123.171 38.865 123.196 38.857 123.22 38.8602H123.887C123.91 38.8601 123.931 38.8693 123.946 38.8857C123.962 38.9021 123.968 38.9239 123.965 38.9456V38.9456ZM127.692 40.2695C127.692 40.317 127.692 40.3597 127.624 40.3787L127.099 40.559C127.04 40.559 127.011 40.559 126.986 40.4973C126.905 40.2819 126.683 40.1472 126.447 40.1699C126.177 40.1699 126.02 40.2695 126.02 40.4214C126.02 40.5732 126.133 40.6302 126.736 40.7868C127.437 40.9671 127.717 41.2613 127.717 41.7358C127.717 42.3242 127.227 42.6848 126.442 42.6848C125.657 42.6848 125.245 42.4144 125.084 41.9493C125.084 41.8829 125.084 41.8497 125.167 41.8165L125.628 41.5982C125.697 41.565 125.736 41.5982 125.77 41.6646C125.875 41.9115 126.133 42.0635 126.408 42.0395C126.726 42.0395 126.898 41.9398 126.898 41.7738C126.898 41.6077 126.721 41.527 126.158 41.3752C125.466 41.1996 125.177 40.9006 125.177 40.4261C125.177 39.8472 125.667 39.4771 126.403 39.4771C126.951 39.4235 127.471 39.7271 127.678 40.2221L127.692 40.2695ZM132.974 38.6799V42.552C132.974 42.5994 132.974 42.6326 132.886 42.6326H132.189C132.166 42.6339 132.144 42.626 132.127 42.6108C132.11 42.5955 132.101 42.5742 132.101 42.552V41.024H130.664V42.5615C130.666 42.5842 130.657 42.6064 130.64 42.622C130.623 42.6377 130.6 42.645 130.576 42.6421H129.86C129.837 42.6434 129.815 42.6355 129.798 42.6202C129.781 42.605 129.772 42.5837 129.772 42.5615V38.6799C129.772 38.6568 129.782 38.6347 129.8 38.6192C129.817 38.6038 129.841 38.5965 129.865 38.5992H130.576C130.6 38.5963 130.623 38.6037 130.64 38.6194C130.657 38.635 130.666 38.6572 130.664 38.6799V40.2173H132.101V38.6799C132.101 38.6577 132.11 38.6364 132.127 38.6211C132.144 38.6059 132.166 38.5979 132.189 38.5992H132.9C132.964 38.5992 132.989 38.6325 132.989 38.6799H132.974ZM134.489 40.7251V40.8295H135.588V40.7251C135.607 40.5801 135.556 40.4346 135.45 40.3308C135.344 40.227 135.194 40.1764 135.043 40.1936C134.892 40.1731 134.739 40.2223 134.631 40.3265C134.522 40.4308 134.47 40.5782 134.489 40.7251ZM134.489 41.3704V41.4843C134.463 41.6373 134.515 41.7933 134.629 41.902C134.743 42.0108 134.906 42.0586 135.063 42.03C135.317 42.0677 135.564 41.9351 135.666 41.7073C135.72 41.6219 135.745 41.6124 135.833 41.6504L136.284 41.8734C136.377 41.9161 136.382 41.9588 136.343 42.0442C136.089 42.4933 135.585 42.7542 135.058 42.7086C134.696 42.7553 134.33 42.6441 134.061 42.4051C133.791 42.1661 133.644 41.8237 133.661 41.4701V40.763C133.643 40.4118 133.787 40.0711 134.054 39.8322C134.321 39.5933 134.683 39.4807 135.043 39.5246C135.394 39.4908 135.742 39.6068 135.996 39.8422C136.251 40.0775 136.387 40.4087 136.368 40.7488V41.2233C136.368 41.304 136.338 41.3609 136.216 41.3609L134.489 41.3704ZM138.854 39.6289V40.2221C138.854 40.2933 138.829 40.317 138.751 40.317H138.663C138.292 40.2717 137.944 40.4989 137.849 40.8485V42.5472C137.85 42.5674 137.843 42.5872 137.829 42.6023C137.815 42.6175 137.796 42.6267 137.775 42.6279H137.054C137.033 42.6281 137.012 42.6193 136.998 42.6038C136.984 42.5883 136.978 42.5677 136.981 42.5472V39.6527C136.979 39.6312 136.987 39.6102 137.004 39.5954C137.02 39.5807 137.042 39.5738 137.064 39.5767H137.716C137.785 39.5767 137.799 39.6195 137.799 39.6622V40.1035C137.968 39.7647 138.328 39.5544 138.717 39.5673C138.834 39.5673 138.854 39.5673 138.854 39.6622V39.6289ZM140.099 40.7251V40.8295H141.198V40.7251C141.217 40.5801 141.166 40.4346 141.06 40.3308C140.954 40.227 140.804 40.1764 140.654 40.1936C140.502 40.1731 140.349 40.2223 140.241 40.3265C140.132 40.4308 140.08 40.5782 140.099 40.7251ZM140.099 41.3704V41.4843C140.073 41.6373 140.125 41.7933 140.239 41.902C140.353 42.0108 140.516 42.0586 140.673 42.03C140.928 42.0683 141.178 41.9358 141.281 41.7073C141.33 41.6219 141.355 41.6124 141.443 41.6504L141.894 41.8734C141.987 41.9161 141.992 41.9588 141.953 42.0442C141.7 42.4933 141.195 42.7542 140.668 42.7086C140.307 42.7522 139.945 42.6397 139.677 42.401C139.41 42.1624 139.265 41.8218 139.28 41.4701V40.763C139.263 40.4118 139.407 40.0711 139.674 39.8322C139.941 39.5933 140.303 39.4807 140.663 39.5246C141.014 39.4908 141.362 39.6068 141.616 39.8422C141.871 40.0775 142.007 40.4087 141.987 40.7488V41.2233C141.987 41.304 141.958 41.3609 141.835 41.3609L140.099 41.3704Z" fill="white"/>
</svg>