<svg width="33" height="33" viewBox="0 0 33 33" fill="none" xmlns="http://www.w3.org/2000/svg">
<path d="M29.5 17C29.5 24.4558 23.4558 30.5 16 30.5C8.54416 30.5 2.5 24.4558 2.5 17C2.5 9.54416 8.54416 3.5 16 3.5C23.4558 3.5 29.5 9.54416 29.5 17Z" stroke="url(#paint0_linear_10427_39874)"/>
<path d="M16 29C22.6274 29 28 23.6274 28 17C28 10.3726 22.6274 5 16 5C9.37258 5 4 10.3726 4 17C4 23.6274 9.37258 29 16 29Z" fill="url(#paint1_linear_10427_39874)"/>
<path d="M18.5944 10H13.2889C10.9222 10 9 11.9222 9 14.2889V19.5944C9 21.9611 10.9222 23.8833 13.2889 23.8833H18.5944C20.9611 23.8833 22.8833 21.9611 22.8833 19.5944V14.2889C22.8833 11.9222 20.9611 10 18.5944 10ZM21.3333 19.6C21.3333 21.1111 20.1056 22.3444 18.5889 22.3444H13.2833C11.7722 22.3444 10.5389 21.1167 10.5389 19.6V14.2944C10.5389 12.7833 11.7667 11.55 13.2833 11.55H18.5889C20.1 11.55 21.3333 12.7778 21.3333 14.2944V19.6Z" fill="white"/>
<path d="M15.9367 13.3936C13.9812 13.3936 12.3867 14.988 12.3867 16.9436C12.3867 18.8991 13.9812 20.4936 15.9367 20.4936C17.8923 20.4936 19.4867 18.8991 19.4867 16.9436C19.4867 14.988 17.8923 13.3936 15.9367 13.3936ZM15.9367 19.0991C14.7478 19.0991 13.7812 18.1324 13.7812 16.9436C13.7812 15.7547 14.7478 14.788 15.9367 14.788C17.1256 14.788 18.0923 15.7547 18.0923 16.9436C18.0923 18.1324 17.1256 19.0991 15.9367 19.0991Z" fill="white"/>
<path d="M19.7608 13.7827C20.0878 13.7297 20.31 13.4216 20.257 13.0945C20.2039 12.7675 19.8958 12.5453 19.5688 12.5983C19.2417 12.6514 19.0195 12.9595 19.0726 13.2865C19.1256 13.6136 19.4337 13.8358 19.7608 13.7827Z" fill="white"/>
<defs>
<linearGradient id="paint0_linear_10427_39874" x1="5.34003" y1="27.66" x2="25.2356" y2="7.76442" gradientUnits="userSpaceOnUse">
<stop stop-color="#FEE411"/>
<stop offset="0.0518459" stop-color="#FEDB16"/>
<stop offset="0.1381" stop-color="#FEC125"/>
<stop offset="0.2481" stop-color="#FE983D"/>
<stop offset="0.3762" stop-color="#FE5F5E"/>
<stop offset="0.5" stop-color="#FE2181"/>
<stop offset="1" stop-color="#9000DC"/>
</linearGradient>
<linearGradient id="paint1_linear_10427_39874" x1="6.86288" y1="26.1371" x2="23.9162" y2="9.08379" gradientUnits="userSpaceOnUse">
<stop stop-color="#FEE411"/>
<stop offset="0.0518459" stop-color="#FEDB16"/>
<stop offset="0.1381" stop-color="#FEC125"/>
<stop offset="0.2481" stop-color="#FE983D"/>
<stop offset="0.3762" stop-color="#FE5F5E"/>
<stop offset="0.5" stop-color="#FE2181"/>
<stop offset="1" stop-color="#9000DC"/>
</linearGradient>
</defs>
</svg>
