<svg width="33" height="33" viewBox="0 0 33 33" fill="none" xmlns="http://www.w3.org/2000/svg">
<path d="M29.5 17C29.5 24.4558 23.4558 30.5 16 30.5C8.54416 30.5 2.5 24.4558 2.5 17C2.5 9.54416 8.54416 3.5 16 3.5C23.4558 3.5 29.5 9.54416 29.5 17Z" stroke="white"/>
<path fill-rule="evenodd" clip-rule="evenodd" d="M13.3249 10H18.6751C21.0616 10 23 11.9384 23 14.3249V19.6751C23 22.0616 21.0616 24 18.6751 24H13.3249C10.9384 24 9 22.0616 9 19.6751V14.3249C9 11.9384 10.9384 10 13.3249 10ZM13.7071 11H18.2929C20.3385 11 22 12.6615 22 14.7071V19.2929C22 21.3385 20.3385 23 18.2929 23H13.7071C11.6615 23 10 21.3385 10 19.2929V14.7071C10 12.6615 11.6615 11 13.7071 11Z" fill="white"/>
<path d="M15.8867 13.3936C13.9587 13.3936 12.3867 14.9655 12.3867 16.8936C12.3867 18.8216 13.9587 20.3936 15.8867 20.3936C17.8147 20.3936 19.3867 18.8216 19.3867 16.8936C19.3867 14.9655 17.8147 13.3936 15.8867 13.3936ZM15.8867 19.0187C14.7146 19.0187 13.7615 18.0657 13.7615 16.8936C13.7615 15.7214 14.7146 14.7684 15.8867 14.7684C17.0589 14.7684 18.0119 15.7214 18.0119 16.8936C18.0119 18.0657 17.0589 19.0187 15.8867 19.0187Z" fill="white"/>
<path d="M19.6301 13.6014C19.9027 13.5573 20.0879 13.3005 20.0437 13.0279C19.9995 12.7553 19.7427 12.5701 19.4701 12.6143C19.1975 12.6585 19.0124 12.9153 19.0566 13.1879C19.1008 13.4605 19.3576 13.6456 19.6301 13.6014Z" fill="white"/>
</svg>
