<svg width="190" height="24" viewBox="0 0 190 24" fill="none" xmlns="http://www.w3.org/2000/svg">
<path d="M22.3662 20.297V3.70284L26.069 0H38.549L42.2518 3.70284V20.297L38.549 23.9999H26.069L22.3662 20.297ZM27.3719 4.25141V19.7485H37.2461V4.25141H27.3719Z" fill="white"/>
<path d="M45.6697 20.297V3.70284L49.3725 0H61.6467L58.5616 4.42284H50.6753V19.577H61.9896V23.9999H49.3725L45.6697 20.297Z" fill="white"/>
<path d="M64.7225 23.9999V0H69.5911V9.70281H73.7396L78.9853 0H84.4367L78.0596 11.3142L84.951 23.9999H79.4996L74.1167 13.9542H69.5911V23.9999H64.7225Z" fill="white"/>
<path d="M86.8876 23.9999V0H103.619V4.11426H91.7561V9.73709H101.905V13.7142H91.7561V19.8856H103.962V23.9999H86.8876Z" fill="white"/>
<path d="M112.296 23.9999V4.25141H105.679V0H123.781V4.25141H117.164V23.9999H112.296Z" fill="white"/>
<path fill-rule="evenodd" clip-rule="evenodd" d="M150.033 0.257084V0H144.136L138.445 11.1085L132.754 0H126.856V23.9999H131.622V6.13711L137.279 17.0056H139.611L145.268 6.13711V6.241L145.3 6.17134L147.014 6.17149L150.033 0.257084Z" fill="#FA00FF"/>
<path fill-rule="evenodd" clip-rule="evenodd" d="M174.238 18.4076V7.02878L184.283 24.0001H189.392V0.000244141H184.798V16.9716L174.752 0.000244141H169.644V8.13731L174.238 18.4076Z" fill="#FA00FF"/>
<path fill-rule="evenodd" clip-rule="evenodd" d="M167.735 24H172.833L162.102 0.00012207L155.492 0.000158255L164.936 18.5143H164.947L166.36 21.3055L167.735 24ZM160.393 18.5143L151.473 18.5144L148.731 24H143.622L152.81 3.64854L160.393 18.5143Z" fill="#FA00FF"/>
<path d="M14.1256 3.97712V12.7542H0V23.9999H4.86855V16.7313H11.8285L15.1542 23.9999H20.537L16.3885 15.5314L18.9942 12.9257V3.70284L15.2914 0H0V3.97712H14.1256Z" fill="white"/>
</svg>
