<svg width="355" height="985" viewBox="0 0 355 985" fill="none" xmlns="http://www.w3.org/2000/svg">
<g filter="url(#filter0_dd_1763_20281)">
<path d="M31.3646 272.593L17.6354 285.407C17.2301 285.785 17 286.315 17 286.869V954.172C17 954.702 17.2107 955.211 17.5858 955.586L28.4142 966.414C28.7893 966.789 29.298 967 29.8284 967H158.172C158.702 967 159.211 966.789 159.586 966.414L174.414 951.586C174.789 951.211 175.298 951 175.828 951H249.672C250.202 951 250.711 951.211 251.086 951.586L266.914 967.414C267.289 967.789 267.798 968 268.328 968H332.672C333.202 968 333.711 967.789 334.086 967.414L344.914 956.586C345.289 956.211 345.5 955.702 345.5 955.172V22.8284C345.5 22.298 345.289 21.7893 344.914 21.4142L333.086 9.58579C332.711 9.21071 332.202 9 331.672 9H285.328C284.798 9 284.289 9.21071 283.914 9.58578L267.086 26.4142C266.711 26.7893 266.202 27 265.672 27H96.8284C96.298 27 95.7893 26.7893 95.4142 26.4142L78.5858 9.58579C78.2107 9.21071 77.702 9 77.1716 9H30.8284C30.298 9 29.7893 9.21071 29.4142 9.58579L17.5858 21.4142C17.2107 21.7893 17 22.298 17 22.8284V85.1309C17 85.6853 17.2301 86.2148 17.6354 86.593L31.3646 99.407C31.7699 99.7852 32 100.315 32 100.869V271.131C32 271.685 31.7699 272.215 31.3646 272.593Z" fill="#121120"/>
<path d="M31.3646 272.593L17.6354 285.407C17.2301 285.785 17 286.315 17 286.869V954.172C17 954.702 17.2107 955.211 17.5858 955.586L28.4142 966.414C28.7893 966.789 29.298 967 29.8284 967H158.172C158.702 967 159.211 966.789 159.586 966.414L174.414 951.586C174.789 951.211 175.298 951 175.828 951H249.672C250.202 951 250.711 951.211 251.086 951.586L266.914 967.414C267.289 967.789 267.798 968 268.328 968H332.672C333.202 968 333.711 967.789 334.086 967.414L344.914 956.586C345.289 956.211 345.5 955.702 345.5 955.172V22.8284C345.5 22.298 345.289 21.7893 344.914 21.4142L333.086 9.58579C332.711 9.21071 332.202 9 331.672 9H285.328C284.798 9 284.289 9.21071 283.914 9.58578L267.086 26.4142C266.711 26.7893 266.202 27 265.672 27H96.8284C96.298 27 95.7893 26.7893 95.4142 26.4142L78.5858 9.58579C78.2107 9.21071 77.702 9 77.1716 9H30.8284C30.298 9 29.7893 9.21071 29.4142 9.58579L17.5858 21.4142C17.2107 21.7893 17 22.298 17 22.8284V85.1309C17 85.6853 17.2301 86.2148 17.6354 86.593L31.3646 99.407C31.7699 99.7852 32 100.315 32 100.869V271.131C32 271.685 31.7699 272.215 31.3646 272.593Z" stroke="#FA00FF" stroke-width="2"/>
</g>
<defs>
<filter id="filter0_dd_1763_20281" x="0" y="0" width="354.5" height="985" filterUnits="userSpaceOnUse" colorInterpolationFilters="sRGB">
<feFlood floodOpacity="0" result="BackgroundImageFix"/>
<feColorMatrix in="SourceAlpha" type="matrix" values="0 0 0 0 0 0 0 0 0 0 0 0 0 0 0 0 0 0 127 0" result="hardAlpha"/>
<feOffset dx="-4" dy="4"/>
<feGaussianBlur stdDeviation="6"/>
<feComposite in2="hardAlpha" operator="out"/>
<feColorMatrix type="matrix" values="0 0 0 0 0.980392 0 0 0 0 0 0 0 0 0 1 0 0 0 0.55 0"/>
<feBlend mode="normal" in2="BackgroundImageFix" result="effect1_dropShadow_1763_20281"/>
<feColorMatrix in="SourceAlpha" type="matrix" values="0 0 0 0 0 0 0 0 0 0 0 0 0 0 0 0 0 0 127 0" result="hardAlpha"/>
<feOffset dx="-4" dy="4"/>
<feComposite in2="hardAlpha" operator="out"/>
<feColorMatrix type="matrix" values="0 0 0 0 0.701961 0 0 0 0 0.0117647 0 0 0 0 0.729412 0 0 0 1 0"/>
<feBlend mode="normal" in2="effect1_dropShadow_1763_20281" result="effect2_dropShadow_1763_20281"/>
<feBlend mode="normal" in="SourceGraphic" in2="effect2_dropShadow_1763_20281" result="shape"/>
</filter>
</defs>
</svg>
