<svg width="946" height="507" viewBox="0 0 946 507" fill="none" xmlns="http://www.w3.org/2000/svg">
<g filter="url(#filter0_dd_1688_47871)">
<path d="M31.3646 272.593L17.6354 285.407C17.2301 285.785 17 286.315 17 286.869V475.672C17 476.202 17.2107 476.711 17.5858 477.086L28.4142 487.914C28.7893 488.289 29.298 488.5 29.8284 488.5H158.172C158.702 488.5 159.211 488.289 159.586 487.914L174.414 473.086C174.789 472.711 175.298 472.5 175.828 472.5H841.172C841.702 472.5 842.211 472.711 842.586 473.086L858.414 488.914C858.789 489.289 859.298 489.5 859.828 489.5H924.172C924.702 489.5 925.211 489.289 925.586 488.914L936.414 478.086C936.789 477.711 937 477.202 937 476.672V27.6467C937 27.2263 936.867 26.8166 936.621 26.4757L924.599 9.82902C924.223 9.30839 923.62 9 922.977 9H888.828C888.298 9 887.789 9.21071 887.414 9.58578L870.586 26.4142C870.211 26.7893 869.702 27 869.172 27H598.828C598.298 27 597.789 26.7893 597.414 26.4142L580.586 9.58579C580.211 9.21071 579.702 9 579.172 9H30.8284C30.298 9 29.7893 9.21071 29.4142 9.58579L17.5858 21.4142C17.2107 21.7893 17 22.298 17 22.8284V85.1309C17 85.6853 17.2301 86.2148 17.6354 86.593L31.3646 99.407C31.7699 99.7852 32 100.315 32 100.869V271.131C32 271.685 31.7699 272.215 31.3646 272.593Z" fill="#121120"/>
<path d="M31.3646 272.593L17.6354 285.407C17.2301 285.785 17 286.315 17 286.869V475.672C17 476.202 17.2107 476.711 17.5858 477.086L28.4142 487.914C28.7893 488.289 29.298 488.5 29.8284 488.5H158.172C158.702 488.5 159.211 488.289 159.586 487.914L174.414 473.086C174.789 472.711 175.298 472.5 175.828 472.5H841.172C841.702 472.5 842.211 472.711 842.586 473.086L858.414 488.914C858.789 489.289 859.298 489.5 859.828 489.5H924.172C924.702 489.5 925.211 489.289 925.586 488.914L936.414 478.086C936.789 477.711 937 477.202 937 476.672V27.6467C937 27.2263 936.867 26.8166 936.621 26.4757L924.599 9.82902C924.223 9.30839 923.62 9 922.977 9H888.828C888.298 9 887.789 9.21071 887.414 9.58578L870.586 26.4142C870.211 26.7893 869.702 27 869.172 27H598.828C598.298 27 597.789 26.7893 597.414 26.4142L580.586 9.58579C580.211 9.21071 579.702 9 579.172 9H30.8284C30.298 9 29.7893 9.21071 29.4142 9.58579L17.5858 21.4142C17.2107 21.7893 17 22.298 17 22.8284V85.1309C17 85.6853 17.2301 86.2148 17.6354 86.593L31.3646 99.407C31.7699 99.7852 32 100.315 32 100.869V271.131C32 271.685 31.7699 272.215 31.3646 272.593Z" stroke="#FA00FF" stroke-width="2"/>
</g>
<defs>
<filter id="filter0_dd_1688_47871" x="0" y="0" width="946" height="506.5" filterUnits="userSpaceOnUse" colorInterpolationFilters="sRGB">
<feFlood floodOpacity="0" result="BackgroundImageFix"/>
<feColorMatrix in="SourceAlpha" type="matrix" values="0 0 0 0 0 0 0 0 0 0 0 0 0 0 0 0 0 0 127 0" result="hardAlpha"/>
<feOffset dx="-4" dy="4"/>
<feGaussianBlur stdDeviation="6"/>
<feComposite in2="hardAlpha" operator="out"/>
<feColorMatrix type="matrix" values="0 0 0 0 0.980392 0 0 0 0 0 0 0 0 0 1 0 0 0 0.55 0"/>
<feBlend mode="normal" in2="BackgroundImageFix" result="effect1_dropShadow_1688_47871"/>
<feColorMatrix in="SourceAlpha" type="matrix" values="0 0 0 0 0 0 0 0 0 0 0 0 0 0 0 0 0 0 127 0" result="hardAlpha"/>
<feOffset dx="-4" dy="4"/>
<feComposite in2="hardAlpha" operator="out"/>
<feColorMatrix type="matrix" values="0 0 0 0 0.701961 0 0 0 0 0.0117647 0 0 0 0 0.729412 0 0 0 1 0"/>
<feBlend mode="normal" in2="effect1_dropShadow_1688_47871" result="effect2_dropShadow_1688_47871"/>
<feBlend mode="normal" in="SourceGraphic" in2="effect2_dropShadow_1688_47871" result="shape"/>
</filter>
</defs>
</svg>
