<svg width="33" height="33" viewBox="0 0 33 33" fill="none" xmlns="http://www.w3.org/2000/svg">
<path d="M29.5 17C29.5 24.4558 23.4558 30.5 16 30.5C8.54416 30.5 2.5 24.4558 2.5 17C2.5 9.54416 8.54416 3.5 16 3.5C23.4558 3.5 29.5 9.54416 29.5 17Z" stroke="white"/>
<path d="M10.5122 16.1284L20.2674 12.0499C20.7202 11.8726 21.1156 12.1697 20.9689 12.9121L20.9697 12.9111L19.3087 21.3963C19.1856 21.9978 18.856 22.1441 18.3948 21.8607L15.8653 19.8393L14.6453 21.1138C14.5104 21.26 14.3966 21.3835 14.1352 21.3835L14.3148 18.5923L19.0027 14C19.2067 13.8053 18.9572 13.6956 18.6882 13.8894L12.8949 17.8444L10.3975 16.9997C9.85538 16.8131 9.84357 16.4118 10.5122 16.1284Z" fill="white"/>
</svg>
