<svg width="128" height="12" viewBox="0 0 128 12" fill="none" xmlns="http://www.w3.org/2000/svg">
<path d="M7.59159 8.44283C7.53824 9.38063 6.71651 10.0274 5.78806 9.96271H3.35488V6.80437L5.56395 6.75047C6.78053 6.75047 7.60227 7.39724 7.60227 8.38893V8.44283H7.59159ZM7.25009 3.63521C7.18606 4.46522 6.42837 5.04732 5.61731 4.98264H3.35488V2.17999H5.44656C6.4924 2.17999 7.25009 2.76208 7.25009 3.52742V3.63521ZM7.99712 5.74798C9.16038 5.1659 9.51256 4.57303 9.51256 3.40884C9.51256 2.17999 8.87219 1.1236 7.77302 0.595412C7.18606 0.358259 6.4924 0.304362 4.51811 0.304362H0.0999756V2.17999H0.975064V9.97349H0.0999756V11.8491H6.20426C8.41336 11.8491 9.92873 10.5664 9.92873 8.62608C10.0355 7.33256 9.22437 6.1576 7.99712 5.74798ZM13.3437 6.30851C13.5145 5.38148 14.3149 4.62692 15.2753 4.62692H15.3287C16.2358 4.62692 17.0362 5.38148 17.0362 6.36241L13.3437 6.30851ZM13.2263 7.87155H19.3733C19.4266 6.70735 19.0851 5.60785 18.5196 4.62692C17.7832 3.46274 16.5239 2.82675 15.2113 2.82675C12.8208 2.82675 11.0599 4.74549 11.0599 7.40802C11.0599 10.0705 12.8208 11.9892 15.2113 11.9892C17.2603 11.9892 18.797 10.8251 19.1918 8.91712L17.0255 8.97101C16.8014 9.72557 16.0544 10.3076 15.2646 10.243C14.8804 10.2538 13.4611 10.1352 13.2263 7.87155ZM29.3088 11.8383H30.5787V6.02825L26.5982 6.01747V6.02825L26.5447 7.09541H29.2554C29.2554 7.38646 29.2554 7.69908 29.2021 7.99012C28.9139 9.4992 27.644 10.6526 26.0858 10.7173C24.1222 10.7173 22.6282 8.69075 22.6282 5.90968C22.6282 2.37401 24.6985 1.15594 26.0858 1.15594C27.0037 1.20984 27.9321 1.67335 28.5084 2.42791C28.7965 2.83753 29.0313 3.29027 29.138 3.80769H30.4079V0.304362H29.2021V1.97518C28.5084 0.757101 27.2384 -0.0513569 25.7977 0.00254043C23.2045 0.00254043 21.1235 2.66506 21.1235 6.02825C21.1235 9.39141 23.1938 11.9892 25.8511 11.9892C26.7689 11.9892 27.6973 11.6443 28.4444 11.0083C28.7858 10.6634 29.074 10.34 29.3088 9.93037V11.8383ZM37.6755 8.74465C37.5047 10.0166 36.3948 10.9328 35.1143 10.9975C34.1858 10.9975 33.3641 10.3076 33.3107 9.32673C33.3107 8.22727 34.1858 7.77454 36.8644 7.4188L37.6755 7.30022V8.74465ZM37.6755 11.8383H40.1727L40.0553 10.7712H38.8387V5.98513C38.8387 3.7969 37.3233 2.98844 35.5198 2.98844C34.7087 2.98844 33.8336 3.21482 33.1933 3.743C32.6704 4.20652 32.3182 4.82095 32.2008 5.51083H33.5348C33.7696 4.35743 34.4099 3.96938 35.6265 3.96938C36.8537 3.96938 37.6008 4.60536 37.6008 5.58629V6.44865L36.7897 6.50255C33.3 6.84748 31.8486 7.65596 31.8486 9.32673V9.4992C31.966 10.9436 33.2467 12.097 34.698 11.9784C35.9146 11.9784 37.0779 11.3317 37.6648 10.2322V11.8383H37.6755ZM51.9971 11.8383H54.4089V10.7712H53.203V5.20901C53.203 3.69989 52.456 2.82675 51.1433 2.82675C50.4603 2.82675 49.8306 3.1178 49.3077 3.58131C48.9662 3.92626 48.7315 4.28198 48.5074 4.68082C48.2833 3.46274 47.6536 2.81597 46.501 2.81597C44.9003 2.81597 44.1532 4.09873 43.7477 4.68082L43.6944 2.97766H41.1758V4.04483H42.4351V10.7712H41.1758V11.8383H44.9003V10.7712H43.641V6.42708C43.641 5.61863 44.6122 3.92626 45.9355 3.92626C46.7999 3.92626 47.1947 4.38977 47.1947 5.50005V11.8383H49.7133V10.7712H48.4433V6.31929C48.4433 5.6833 49.2437 3.87236 50.7378 3.87236C51.5915 3.87236 51.9971 4.45445 51.9971 5.67252V11.8383ZM63.1598 7.37568C63.1598 9.53154 62.242 10.8682 60.7586 10.8682C59.3819 10.7496 58.3041 9.58544 58.3041 8.14103L58.2507 6.6319C58.2507 5.34914 59.51 3.9586 60.7693 3.9586C62.1886 3.94782 63.1598 5.23057 63.1598 7.37568ZM64.5364 7.55893C64.5364 5.0042 63.0531 2.97766 61.1001 2.97766C59.6167 2.97766 58.6349 4.23886 58.2934 4.87485V0.00254043H55.8923V1.0697H57.0342V10.7712H55.8282V11.8383H58.2934V10.2322C58.8056 10.9328 59.5527 11.9892 61.1001 11.9892C62.9357 11.9892 64.5364 9.94115 64.5364 7.55893ZM65.2088 11.8383H68.9119V10.7712H67.7593V0.00254043H65.2728V0.994247H66.4894V10.7712H65.2195V11.8383H65.2088ZM71.3344 6.72891C71.3344 6.43787 71.4518 6.14682 71.5052 5.86656C71.7933 4.82095 72.7111 4.07717 73.7996 4.01249C74.3119 3.9586 74.8348 4.18496 75.2403 4.52991C75.8166 5.1659 76.1047 5.92046 76.1047 6.72891H71.3344ZM71.281 7.70986H77.5454C77.5454 4.64848 75.8272 2.96688 73.6929 2.96688C71.5692 2.96688 69.9044 4.92874 69.9044 7.47269C69.9044 10.1352 71.5692 11.9784 73.9276 11.9784C75.0162 11.9784 75.998 11.5149 76.681 10.7065C77.0225 10.2969 77.2573 9.89804 77.3747 9.38063L75.9446 9.43453C75.4857 10.4801 74.8561 10.9328 73.8743 10.9328C73.298 10.9328 72.7218 10.7065 72.2629 10.2969C71.6866 9.73635 71.3984 8.98179 71.281 7.70986ZM85.5817 7.58048H82.5931L84.087 2.44947L85.5817 7.58048ZM86.9046 11.8383H89.4869V10.0058H88.6224L85.4742 0.304362H82.7209L79.6158 10.0058H78.7513V11.8383H81.3979L82.1453 9.33751H86.1678L86.9046 11.8383ZM101.386 4.65926H102.133V2.97766H98.6863V4.65926H99.5509L98.3981 9.83336L96.9677 2.97766H94.7273L93.2863 9.95193L92.0912 4.65926H92.9452V2.97766H89.4975V4.65926H90.2449L92.1336 11.8383H94.4285L95.8052 5.69408L97.2453 11.8383H99.5403L101.386 4.65926ZM108.281 8.58296C108.227 9.62855 107.362 10.437 106.327 10.437C105.463 10.437 104.887 9.97349 104.887 9.28362C104.887 8.06558 106.21 7.89311 108.216 7.72064H108.27V8.52906V8.58296H108.281ZM108.344 11.8383H111.044V10.146H110.297L110.351 6.03903C110.351 4.07717 109.081 2.97766 106.669 2.97766C104.598 2.97766 103.222 4.07717 103.104 5.81266L105.175 5.86656V5.81266C105.228 5.0042 105.634 4.48678 106.722 4.48678C107.811 4.48678 108.27 4.8964 108.27 6.22228C105.505 6.44865 102.635 6.73969 102.635 9.28362C102.635 10.8466 103.958 12 105.687 12C106.722 12 107.704 11.5904 108.333 10.7927V11.8383H108.344ZM117.276 4.88563C117.618 4.88563 117.959 4.93952 118.301 5.0042V2.94533C117.959 2.89143 117.671 2.82675 117.33 2.82675C116.359 2.82675 115.73 3.30105 115.164 4.42211V2.97766H112.25V4.71316H113.104V10.146H112.25V11.8383H116.242V10.146H115.217V6.71813C115.281 5.65096 116.188 4.83173 117.276 4.88563ZM121.011 6.30851C121.182 5.38148 121.983 4.62692 122.943 4.62692H122.997C123.904 4.62692 124.704 5.38148 124.704 6.36241L121.011 6.30851ZM120.948 7.87155H127.094C127.148 6.70735 126.806 5.60785 126.241 4.62692C125.505 3.46274 124.245 2.82675 122.933 2.82675C120.543 2.82675 118.771 4.74549 118.771 7.40802C118.771 10.0705 120.531 11.9892 122.933 11.9892C124.982 11.9892 126.518 10.8251 126.913 8.91712L124.747 8.97101C124.523 9.72557 123.775 10.3076 122.986 10.243C122.602 10.2538 121.182 10.1352 120.948 7.87155Z" fill="white"/>
</svg>
