<svg width="33" height="33" viewBox="0 0 33 33" fill="none" xmlns="http://www.w3.org/2000/svg">
<path d="M29.5 17C29.5 24.4558 23.4558 30.5 16 30.5C8.54416 30.5 2.5 24.4558 2.5 17C2.5 9.54416 8.54416 3.5 16 3.5C23.4558 3.5 29.5 9.54416 29.5 17Z" stroke="white"/>
<path fill-rule="evenodd" clip-rule="evenodd" d="M20.3516 19.1673C20.2353 19.0476 20.119 18.9278 20.0044 18.8061C19.6157 18.3936 19.5909 18.1545 19.904 17.6795C20.0856 17.4026 20.2746 17.1315 20.4636 16.8604C20.6294 16.6227 20.7952 16.3849 20.956 16.1431C20.9673 16.1261 20.9787 16.109 20.99 16.0919C21.3001 15.6257 21.6115 15.1574 21.7746 14.5992C21.882 14.2309 21.7869 14.0685 21.4397 14.0039C21.3795 13.9926 21.3179 13.992 21.2572 13.992L19.1972 13.9893C18.9434 13.9852 18.8035 14.1055 18.7135 14.35C18.5925 14.6807 18.4679 15.0107 18.3234 15.3296C17.9961 16.0529 17.6305 16.7516 17.1175 17.3436C17.1103 17.352 17.1029 17.3605 17.0956 17.3691C16.9881 17.494 16.8675 17.6344 16.6905 17.5709C16.4546 17.4773 16.3846 17.0537 16.3886 16.9108L16.3867 14.3255C16.3409 13.9562 16.2653 13.7917 15.9281 13.7197L13.7889 13.7201C13.5032 13.7201 13.3602 13.8402 13.2076 14.0343C13.1197 14.1466 13.0932 14.2194 13.274 14.2566C13.6289 14.3298 13.8292 14.5799 13.8821 14.9671C13.9672 15.5859 13.9613 16.2069 13.9122 16.8281C13.8978 17.0095 13.8692 17.1904 13.8031 17.3597C13.6996 17.626 13.5325 17.6801 13.3131 17.5164C13.1144 17.3681 12.9748 17.1588 12.8381 16.9488C12.3251 16.1604 11.9157 15.3103 11.5818 14.4168C11.4851 14.1588 11.3187 14.0023 11.0672 13.998C10.4493 13.9873 9.8313 13.9856 9.21333 13.9986C8.84138 14.0062 8.73057 14.2024 8.88204 14.569C9.55503 16.197 10.304 17.7796 11.282 19.2215C11.7843 19.9612 12.3606 20.6145 13.1053 21.0774C13.9494 21.6022 14.8576 21.7601 15.8148 21.7114C16.2628 21.6885 16.3974 21.5616 16.4181 21.0761C16.4324 20.744 16.4668 20.4134 16.6176 20.115C16.7654 19.8218 16.9897 19.7658 17.2478 19.9484C17.3772 20.0395 17.4857 20.1553 17.5887 20.2783C17.6722 20.3774 17.7547 20.4777 17.8372 20.5779C18.0039 20.7806 18.1707 20.9833 18.3459 21.1771C18.674 21.5407 19.0631 21.7552 19.5521 21.7111L21.4455 21.7116C21.5516 21.7039 21.64 21.6497 21.7027 21.5667C21.7292 21.5149 21.7551 21.4628 21.7805 21.4103C21.8243 21.2649 21.8149 21.0851 21.7333 20.9131C21.6104 20.6534 21.4489 20.4224 21.2776 20.1991C20.9938 19.8285 20.6727 19.4979 20.3516 19.1673Z" fill="white"/>
</svg>
