<svg width="137" height="29" viewBox="0 0 137 29" fill="none" xmlns="http://www.w3.org/2000/svg">
<path fill-rule="evenodd" clip-rule="evenodd" d="M41.8405 8.60308C42.999 8.60308 43.9987 8.80933 44.8394 9.21561C45.6837 9.62545 46.3817 10.1775 46.9404 10.8719C47.492 11.5697 47.9025 12.3859 48.1676 13.3202C48.4309 14.2582 48.563 15.2654 48.563 16.3447C48.563 18.0009 48.2586 19.5674 47.6428 21.0432C47.0279 22.5207 46.1925 23.8027 45.1304 24.8962C44.0692 25.9888 42.8161 26.8494 41.3711 27.485C39.9279 28.1225 38.3597 28.4399 36.6755 28.4399C36.4578 28.4399 36.0749 28.4345 35.534 28.4221C34.9931 28.4114 34.371 28.3563 33.6749 28.262C32.9743 28.1651 32.2335 28.0211 31.4507 27.8282C30.6689 27.6388 29.9263 27.373 29.2266 27.0361L35.4796 0.865019L41.0801 0L38.8417 9.28674C39.321 9.07159 39.8038 8.90446 40.2858 8.78355C40.7704 8.6662 41.2872 8.60308 41.8405 8.60308V8.60308ZM37.1424 24.0121C37.9858 24.0121 38.7802 23.8058 39.5272 23.3995C40.276 22.9941 40.9222 22.4456 41.4631 21.7619C42.004 21.0765 42.4333 20.3031 42.7456 19.4389C43.058 18.5757 43.216 17.6751 43.216 16.7372C43.216 15.5859 43.0232 14.6871 42.6376 14.0381C42.2521 13.3909 41.5398 13.0664 40.5045 13.0664C40.1654 13.0664 39.728 13.1304 39.1863 13.2451C38.6427 13.3687 38.1563 13.622 37.7199 14.0034L35.3359 23.8672C35.4796 23.8912 35.6073 23.9161 35.7153 23.9383C35.8215 23.9623 35.9384 23.9801 36.0553 23.9925C36.1794 24.0067 36.3204 24.013 36.4909 24.013C36.6613 24.013 36.8773 24.0121 37.1424 24.0121V24.0121Z" fill="white"/>
<path fill-rule="evenodd" clip-rule="evenodd" d="M54.3732 27.9392H49.0234L53.5414 9.00391H58.9277L54.3732 27.9392V27.9392ZM56.9692 6.69455C56.2222 6.69455 55.5456 6.4723 54.945 6.02956C54.3389 5.58861 54.0391 4.9094 54.0391 3.99459C54.0391 3.4914 54.1417 3.01844 54.3452 2.57393C54.5514 2.12942 54.8218 1.74536 55.1601 1.42087C55.4983 1.09815 55.8893 0.840337 56.3337 0.64564C56.7809 0.4545 57.2566 0.359375 57.7635 0.359375C58.5097 0.359375 59.1835 0.580742 59.786 1.02436C60.3867 1.46976 60.6892 2.14898 60.6892 3.05845C60.6892 3.56341 60.5875 4.03815 60.3813 4.48266C60.1769 4.92718 59.9074 5.30946 59.5691 5.63573C59.2344 5.95844 58.839 6.21537 58.3954 6.40829C57.9483 6.6021 57.4753 6.69455 56.9692 6.69455V6.69455Z" fill="white"/>
<path fill-rule="evenodd" clip-rule="evenodd" d="M63.6129 4.28689L69.2162 3.42187L67.8399 9.00227H73.8403L72.7568 13.3932H66.7921L65.2034 20.0173C65.057 20.5693 64.974 21.085 64.9508 21.5633C64.9249 22.0451 64.9856 22.4585 65.1302 22.8061C65.2739 23.1546 65.5327 23.4231 65.9076 23.6143C66.2807 23.8072 66.8153 23.9041 67.515 23.9041C68.0916 23.9041 68.6539 23.8498 69.1974 23.7405C69.7374 23.6347 70.2854 23.4853 70.8397 23.2906L71.2386 27.397C70.5157 27.6611 69.7329 27.8887 68.8895 28.0798C68.0452 28.2727 67.0447 28.3661 65.8888 28.3661C64.227 28.3661 62.9382 28.1216 62.0207 27.6317C61.104 27.1383 60.4561 26.4653 60.0678 25.6128C59.6849 24.7638 59.5145 23.7841 59.5627 22.6808C59.6126 21.5748 59.7795 20.412 60.0678 19.1878L63.6129 4.28689V4.28689Z" fill="white"/>
<path fill-rule="evenodd" clip-rule="evenodd" d="M73.6094 20.3836C73.6094 18.7522 73.8745 17.2151 74.4046 15.774C74.933 14.3329 75.6952 13.0731 76.6841 11.9912C77.6694 10.9146 78.869 10.062 80.281 9.43703C81.6867 8.81383 83.2602 8.5 84.9953 8.5C86.0806 8.5 87.0507 8.60135 87.904 8.80671C88.7608 9.01297 89.5364 9.28056 90.237 9.61572L88.3922 13.795C87.9102 13.6003 87.4095 13.4287 86.8927 13.2723C86.3751 13.114 85.7432 13.0376 84.9961 13.0376C83.2111 13.0376 81.7991 13.6501 80.7486 14.8716C79.7026 16.0949 79.1751 17.7405 79.1751 19.8057C79.1751 21.0299 79.4402 22.0185 79.9721 22.7759C80.5014 23.5325 81.4787 23.9085 82.8987 23.9085C83.5994 23.9085 84.275 23.8356 84.923 23.6934C85.5754 23.5494 86.1511 23.3689 86.6589 23.1538L87.0579 27.4371C86.3813 27.6993 85.6352 27.9358 84.8167 28.1421C83.9965 28.3421 83.0201 28.4443 81.8875 28.4443C80.3934 28.4443 79.1278 28.2274 78.0934 27.798C77.0581 27.3624 76.2021 26.7836 75.5283 26.0511C74.8509 25.3168 74.3644 24.4589 74.0637 23.4747C73.762 22.4941 73.6094 21.4611 73.6094 20.3836H73.6094Z" fill="white"/>
<path fill-rule="evenodd" clip-rule="evenodd" d="M97.3579 28.4356C96.0807 28.4356 94.9722 28.2427 94.0315 27.8595C93.0934 27.4755 92.3169 26.9376 91.702 26.2398C91.087 25.5454 90.6256 24.7222 90.3105 23.7745C89.9946 22.8277 89.8438 21.7777 89.8438 20.6282C89.8438 19.1854 90.0767 17.7434 90.5462 16.3049C91.0138 14.8647 91.7073 13.5703 92.6266 12.419C93.5379 11.2659 94.6616 10.3236 95.9861 9.58835C97.3079 8.85935 98.8296 8.49219 100.538 8.49219C101.791 8.49219 102.895 8.68599 103.848 9.06916C104.797 9.45322 105.579 9.99464 106.197 10.689C106.809 11.3868 107.274 12.2065 107.586 13.156C107.901 14.101 108.056 15.1536 108.056 16.304C108.056 17.7425 107.826 19.1845 107.371 20.6273C106.915 22.0622 106.239 23.3602 105.347 24.5133C104.456 25.6646 103.342 26.606 102.004 27.3386C100.666 28.0694 99.1161 28.4356 97.3579 28.4356V28.4356ZM99.9192 13.3828C99.1257 13.3828 98.4251 13.6122 97.8244 14.0656C97.222 14.5234 96.7159 15.0995 96.308 15.7938C95.8957 16.4908 95.5895 17.2536 95.3834 18.0795C95.179 18.909 95.0781 19.6922 95.0781 20.4372C95.0781 21.6383 95.2727 22.5735 95.6547 23.2474C96.0429 23.9168 96.7391 24.2538 97.7521 24.2538C98.5482 24.2538 99.2453 24.0262 99.8495 23.5684C100.448 23.1141 100.954 22.538 101.366 21.8419C101.776 21.1484 102.084 20.3839 102.291 19.5562C102.493 18.7294 102.596 17.9417 102.596 17.1985C102.596 16.0001 102.402 15.0631 102.017 14.3901C101.631 13.7189 100.931 13.3828 99.9192 13.3828V13.3828Z" fill="white"/>
<path fill-rule="evenodd" clip-rule="evenodd" d="M113.9 27.9392H108.547L113.065 9.00391H118.454L113.9 27.9392V27.9392ZM116.491 6.69455C115.745 6.69455 115.068 6.4723 114.468 6.02956C113.865 5.58861 113.562 4.9094 113.562 3.99459C113.562 3.4914 113.666 3.01844 113.87 2.57393C114.075 2.12942 114.346 1.74536 114.684 1.42087C115.021 1.09815 115.415 0.840337 115.859 0.64564C116.303 0.4545 116.779 0.359375 117.285 0.359375C118.033 0.359375 118.709 0.580742 119.31 1.02436C119.913 1.46976 120.216 2.14898 120.216 3.05845C120.216 3.56341 120.108 4.03815 119.906 4.48266C119.703 4.92718 119.433 5.30946 119.095 5.63573C118.756 5.95844 118.367 6.21537 117.922 6.40829C117.474 6.6021 117 6.69455 116.491 6.69455V6.69455Z" fill="white"/>
<path fill-rule="evenodd" clip-rule="evenodd" d="M122.296 9.86349C122.702 9.74525 123.156 9.60301 123.649 9.44832C124.145 9.29363 124.697 9.14961 125.315 9.01981C125.926 8.88645 126.615 8.77888 127.374 8.69354C128.132 8.60819 128.995 8.56641 129.957 8.56641C132.777 8.56641 134.723 9.38431 135.796 11.0166C136.868 12.6488 137.055 14.882 136.358 17.7118L133.898 27.9356H128.513L130.898 17.9269C131.043 17.3019 131.158 16.6974 131.242 16.1071C131.328 15.523 131.322 15.0074 131.223 14.5611C131.129 14.1201 130.904 13.7601 130.557 13.48C130.204 13.2036 129.67 13.0666 128.946 13.0666C128.249 13.0666 127.54 13.1413 126.815 13.2853L123.308 27.9356H117.922L122.296 9.86349V9.86349Z" fill="white"/>
<path fill-rule="evenodd" clip-rule="evenodd" d="M14.275 28.4381C22.1588 28.4381 28.5499 22.072 28.5499 14.219C28.5499 6.36608 22.1588 0 14.275 0C6.39112 0 0 6.36608 0 14.219C0 22.072 6.39112 28.4381 14.275 28.4381ZM20.5723 12.1921C20.8561 10.2994 19.4093 9.28232 17.4315 8.6031L18.0732 6.03827L16.5069 5.64888L15.8821 8.14615C15.4707 8.04391 15.0476 7.947 14.6263 7.85188L15.2556 5.33861L13.6901 4.94922L13.0475 7.51316C12.7065 7.43582 12.3718 7.35936 12.047 7.27846L12.0487 7.27046L9.88795 6.73349L9.47114 8.40041C9.47114 8.40041 10.6332 8.66534 10.6091 8.68223C11.2437 8.84047 11.3588 9.25831 11.3392 9.58992L10.6082 12.5104C10.6519 12.521 10.7082 12.5361 10.7715 12.5628C10.7189 12.5486 10.6635 12.5353 10.6055 12.521L9.58092 16.6141C9.50327 16.8052 9.30603 17.0933 8.86244 16.9839C8.87851 17.0062 7.72359 16.7012 7.72359 16.7012L6.94531 18.4882L8.98383 18.994C9.36315 19.0882 9.73533 19.1878 10.1004 19.2812L9.4524 21.8744L11.017 22.2638L11.6596 19.6981C12.0871 19.8128 12.5021 19.9204 12.9082 20.0208L12.2683 22.5741L13.8347 22.9635L14.4835 20.3755C17.1557 20.8787 19.1648 20.676 20.01 18.2686C20.6919 16.3296 19.9761 15.2121 18.5704 14.4831C19.595 14.2484 20.3661 13.5781 20.5723 12.1921V12.1921ZM16.9942 17.1873C16.5095 19.1254 13.234 18.0772 12.1719 17.8141L13.0323 14.3789C14.0944 14.6429 17.5002 15.1657 16.9942 17.1873V17.1873ZM17.4748 12.1641C17.033 13.9262 14.3064 13.0309 13.4219 12.8122L14.2019 9.69531C15.0864 9.91579 17.9345 10.3256 17.4748 12.1641V12.1641Z" fill="#F7931A"/>
</svg>
