<svg width="201" height="48" viewBox="0 0 201 48" fill="none" xmlns="http://www.w3.org/2000/svg">
<path fill-rule="evenodd" clip-rule="evenodd" d="M142.041 16.5876C142.066 16.5874 142.092 16.587 142.121 16.5865C142.689 16.5769 144.078 16.5534 144.683 18.5811C145.112 20.0164 145.794 22.3674 146.73 25.6343H147.112C148.116 22.1901 148.806 19.8391 149.181 18.5811C149.785 16.557 151.241 16.5768 151.947 16.5864C151.992 16.587 152.034 16.5876 152.072 16.5876L157.029 16.5876V31.8973H151.977V22.8751H151.638L148.822 31.8973H145.02L142.204 22.8684H141.865V31.8973H136.812V16.5876L142.041 16.5876ZM164.285 16.5876V25.6166H164.688L168.114 18.1921C168.779 16.7146 170.196 16.5876 170.196 16.5876H175.086V31.8973H169.928V22.8684H169.525L166.166 30.2928C165.501 31.7636 164.016 31.8973 164.016 31.8973H159.127V16.5876H164.285ZM187.433 27.3368C189.935 27.3368 192.194 25.8871 192.914 23.8629H177.119V31.8973H182.024V27.3368H187.433Z" fill="#40A548"/>
<path d="M187.667 16.5869H176.859C177.117 19.9954 180.073 22.9132 183.134 22.9132H193.252C193.836 20.0804 191.826 16.5869 187.667 16.5869Z" fill="#1291D0"/>
<path fill-rule="evenodd" clip-rule="evenodd" d="M94.0074 39.791V41.9325V44.074H93.0662V43.554C92.7676 43.9396 92.3146 44.1816 91.6988 44.1816C90.4849 44.1816 89.5332 43.2412 89.5332 41.9325C89.5332 40.6248 90.4849 39.6833 91.6988 39.6833C92.3146 39.6833 92.7676 39.9254 93.0662 40.311V39.791H94.0074ZM91.8174 40.5612C91.0026 40.5612 90.504 41.1797 90.504 41.9325C90.504 42.6853 91.0026 43.3037 91.8174 43.3037C92.596 43.3037 93.1215 42.7119 93.1215 41.9325C93.1215 41.153 92.596 40.5612 91.8174 40.5612ZM125.817 41.9325C125.817 41.1797 126.316 40.5612 127.131 40.5612C127.91 40.5612 128.435 41.153 128.435 41.9325C128.435 42.7119 127.91 43.3037 127.131 43.3037C126.316 43.3037 125.817 42.6853 125.817 41.9325ZM129.324 38.0711V41.9325V44.074H128.382V43.554C128.083 43.9396 127.63 44.1816 127.014 44.1816C125.8 44.1816 124.849 43.2412 124.849 41.9325C124.849 40.6248 125.8 39.6833 127.014 39.6833C127.63 39.6833 128.083 39.9254 128.382 40.311V38.0711H129.324ZM105.692 40.5172C106.299 40.5172 106.688 40.8936 106.788 41.5562H104.542C104.642 40.9377 105.021 40.5172 105.692 40.5172ZM103.555 41.9325C103.555 40.5972 104.442 39.6833 105.711 39.6833C106.924 39.6833 107.758 40.5972 107.767 41.9325C107.767 42.0576 107.758 42.1745 107.748 42.2904H104.534C104.669 43.0617 105.222 43.3396 105.828 43.3396C106.263 43.3396 106.725 43.1776 107.088 42.8914L107.549 43.5817C107.024 44.0206 106.426 44.1816 105.774 44.1816C104.479 44.1816 103.555 43.2945 103.555 41.9325ZM117.077 41.9325C117.077 41.1797 117.576 40.5613 118.391 40.5613C119.169 40.5613 119.695 41.153 119.695 41.9325C119.695 42.7119 119.169 43.3037 118.391 43.3037C117.576 43.3037 117.077 42.6853 117.077 41.9325ZM120.582 39.791V41.9325V44.074H119.641V43.554C119.341 43.9396 118.889 44.1816 118.274 44.1816C117.06 44.1816 116.108 43.2412 116.108 41.9325C116.108 40.6248 117.06 39.6833 118.274 39.6833C118.889 39.6833 119.341 39.9254 119.641 40.311V39.791H120.582ZM111.76 41.9325C111.76 43.2319 112.675 44.1816 114.07 44.1816C114.722 44.1816 115.156 44.0381 115.627 43.6709L115.175 42.9181C114.822 43.1694 114.45 43.3037 114.042 43.3037C113.29 43.2945 112.738 42.7571 112.738 41.9325C112.738 41.1079 113.29 40.5705 114.042 40.5613C114.45 40.5613 114.822 40.6956 115.175 40.9469L115.627 40.1941C115.156 39.8269 114.722 39.6833 114.07 39.6833C112.675 39.6833 111.76 40.6331 111.76 41.9325ZM122.756 40.311C123 39.9346 123.354 39.6833 123.897 39.6833C124.088 39.6833 124.359 39.7192 124.568 39.8003L124.278 40.6782C124.078 40.5972 123.879 40.5705 123.689 40.5705C123.073 40.5705 122.765 40.9643 122.765 41.673V44.074H121.823V39.791H122.756V40.311ZM98.6645 40.1315C98.2115 39.8362 97.5875 39.6833 96.8991 39.6833C95.8023 39.6833 95.0964 40.2033 95.0964 41.0546C95.0964 41.753 95.622 42.1838 96.5902 42.3181L97.0349 42.3807C97.5512 42.4525 97.7948 42.5868 97.7948 42.8289C97.7948 43.1601 97.4506 43.3489 96.8079 43.3489C96.1558 43.3489 95.6852 43.1427 95.368 42.9007L94.9243 43.6258C95.4406 44.0022 96.0926 44.1816 96.7986 44.1816C98.0488 44.1816 98.7734 43.5991 98.7734 42.7837C98.7734 42.031 98.2032 41.6371 97.2609 41.5028L96.8172 41.4392C96.4098 41.3858 96.0833 41.3058 96.0833 41.0187C96.0833 40.7048 96.3912 40.5172 96.9074 40.5172C97.46 40.5172 97.9949 40.7233 98.2571 40.8843L98.6645 40.1315ZM109.669 40.311C109.913 39.9346 110.266 39.6833 110.809 39.6833C111 39.6833 111.272 39.7192 111.48 39.8003L111.19 40.6782C110.991 40.5972 110.792 40.5705 110.601 40.5705C109.985 40.5705 109.677 40.9643 109.677 41.673V44.074H108.736V39.791H109.669V40.311ZM102.776 39.791H101.237V38.4916H100.285V39.791H99.4071V40.6423H100.285V42.5961C100.285 43.5899 100.675 44.1816 101.788 44.1816C102.197 44.1816 102.667 44.0565 102.966 43.8504L102.694 43.0525C102.413 43.2135 102.106 43.2945 101.861 43.2945C101.39 43.2945 101.237 43.0073 101.237 42.5776V40.6423H102.776V39.791ZM88.7017 41.3858V44.074H87.75V41.6905C87.75 40.9643 87.4422 40.5613 86.7994 40.5613C86.1743 40.5613 85.74 40.9561 85.74 41.6997V44.074H84.7883V41.6905C84.7883 40.9643 84.4721 40.5613 83.847 40.5613C83.2033 40.5613 82.7865 40.9561 82.7865 41.6997V44.074H81.8359V39.791H82.7783V40.3192C83.1318 39.8177 83.5837 39.6834 84.0461 39.6834C84.7075 39.6834 85.1781 39.9705 85.4767 40.4454C85.8758 39.8444 86.4459 39.6741 86.9985 39.6834C88.0496 39.6926 88.7017 40.3736 88.7017 41.3858Z" fill="#B0B0B0"/>
<path d="M112.618 32.5137H98.3516V7.14844H112.618V32.5137Z" fill="#FF5F00"/>
<path d="M99.2541 19.8322C99.2541 14.6867 101.689 10.1033 105.481 7.14956C102.708 4.98964 99.2085 3.70046 95.405 3.70046C86.4006 3.70046 79.1016 10.9228 79.1016 19.8322C79.1016 28.7416 86.4006 35.9639 95.405 35.9639C99.2085 35.9639 102.708 34.6747 105.481 32.5148C101.689 29.561 99.2541 24.9776 99.2541 19.8322" fill="#EB001B"/>
<path d="M131.865 19.8322C131.865 28.7416 124.566 35.9639 115.562 35.9639C111.758 35.9639 108.258 34.6747 105.484 32.5148C109.277 29.561 111.713 24.9776 111.713 19.8322C111.713 14.6867 109.277 10.1033 105.484 7.14956C108.258 4.98964 111.758 3.70046 115.562 3.70046C124.566 3.70046 131.865 10.9228 131.865 19.8322" fill="#F79E1B"/>
<path d="M26.4956 34.63L30.2892 12.4534H36.3571L32.5606 34.63H26.4956ZM54.4833 12.9314C53.2814 12.4821 51.3975 12 49.0451 12C43.0491 12 38.8258 15.0078 38.7897 19.3186C38.7559 22.5052 41.805 24.283 44.1066 25.3437C46.4686 26.431 47.2625 27.1241 47.2512 28.0946C47.236 29.5812 45.365 30.26 43.6207 30.26C41.1922 30.26 39.902 29.9239 37.9091 29.0963L37.127 28.7438L36.2755 33.7082C37.6928 34.3275 40.3135 34.8636 43.0349 34.8915C49.4134 34.8915 53.5542 31.918 53.6013 27.3144C53.6239 24.7916 52.0074 22.8719 48.5065 21.289C46.3856 20.2631 45.0867 19.5785 45.1005 18.5397C45.1005 17.6179 46.1999 16.6322 48.5758 16.6322C50.5597 16.6015 51.9974 17.0326 53.1173 17.4819L53.661 17.7378L54.4833 12.9314ZM70.0983 12.453H65.4096C63.9571 12.453 62.87 12.8479 62.2322 14.2921L53.2205 34.6154H59.5923C59.5923 34.6154 60.6339 31.8828 60.8695 31.2828C61.5658 31.2828 67.7559 31.2923 68.6407 31.2923C68.8222 32.0687 69.379 34.6154 69.379 34.6154H75.0095L70.0983 12.4523V12.453ZM62.659 26.7734C63.161 25.4956 65.0767 20.574 65.0767 20.574C65.041 20.633 65.5749 19.29 65.8812 18.4573L66.2913 20.3694C66.2913 20.3694 67.4531 25.663 67.696 26.773H62.659V26.7734ZM21.3444 12.453L15.4038 27.5765L14.7709 24.5032C13.6649 20.9604 10.2192 17.1219 6.36719 15.2003L11.7993 34.5946L18.2194 34.5875L27.7723 12.4528L21.3444 12.4527" fill="#0E4595"/>
<path d="M9.86218 12.4531H0.0775577L0 12.9145C7.61233 14.7502 12.6491 19.1863 14.7404 24.5172L12.6128 14.3261C12.2456 12.9218 11.1803 12.5026 9.8624 12.4537" fill="#F2AE14"/>
</svg>
