<svg width="128" height="44" viewBox="0 0 128 44" fill="none" xmlns="http://www.w3.org/2000/svg">
<path d="M9.88144 21.7374L4.93933 26.646L0 21.7374L4.93933 16.8288L9.88144 21.7374ZM21.8762 9.81724L30.3432 18.2316L35.2798 13.334L21.8734 0L8.46703 13.334L13.4064 18.2426L21.8762 9.81724ZM38.8102 16.8288L33.8709 21.7374L38.8074 26.646L43.7468 21.7374L38.8102 16.8288ZM21.8762 33.6575L13.4091 25.2431L8.46703 30.1463L21.8734 43.4665L35.2798 30.1463L30.3404 25.2376L21.8762 33.6575ZM21.8762 26.646L26.8155 21.7374L21.8762 16.8288L16.9368 21.7374L21.8762 26.646ZM53.631 9.81448H64.7715C67.5144 9.81448 69.6748 10.5641 71.0448 11.9257C71.5847 12.4528 72.0093 13.0849 72.2923 13.7824C72.5753 14.48 72.7105 15.2281 72.6894 15.9799V16.046C72.6894 18.7387 71.2501 20.2381 69.5361 21.1917C72.3095 22.2473 74.0262 23.8486 74.0262 27.0512V27.1145C74.0262 31.4747 70.4624 33.6548 65.0461 33.6548H53.6282L53.631 9.81448ZM63.64 19.4608C65.9724 19.4608 67.445 18.7139 67.445 16.9418V16.8729C67.445 15.3074 66.2109 14.4199 63.9839 14.4199H58.77V19.4526L63.64 19.4608ZM65.0461 29.0686C67.3785 29.0686 68.7818 28.2418 68.7818 26.4806V26.4117C68.7818 24.8104 67.5837 23.8238 64.8741 23.8238H58.7728V29.0603L65.0461 29.0686ZM79.2345 9.82275H84.1045L95.3477 24.5045V9.81448H100.556V33.6575H96.0632L84.4429 18.499V33.6575H79.2318L79.2345 9.82275ZM107.17 9.82275H118.319C121.062 9.82275 123.223 10.5724 124.593 11.9339C125.132 12.4611 125.557 13.0932 125.84 13.7907C126.123 14.4883 126.258 15.2363 126.237 15.9882V16.0543C126.237 18.747 124.798 20.2463 123.084 21.1999C125.857 22.2555 127.574 23.8568 127.574 27.0594V27.1145C127.574 31.4747 124.01 33.6548 118.594 33.6548H107.168L107.17 9.82275ZM117.179 19.4691C119.512 19.4691 120.984 18.7222 120.984 16.95V16.8811C120.984 15.3157 119.75 14.4282 117.523 14.4282H112.309V19.4526L117.179 19.4691ZM118.597 29.0603C120.929 29.0603 122.332 28.2335 122.332 26.4724V26.4035C122.332 24.8022 121.134 23.8155 118.425 23.8155H112.323V29.0521L118.597 29.0603Z" fill="#F0B90B"/>
</svg>
