<svg width="135" height="45" viewBox="0 0 135 45" fill="none" xmlns="http://www.w3.org/2000/svg">
<path fill-rule="evenodd" clip-rule="evenodd" d="M18.6992 9.99213L15.153 23.1316L12.3432 24.2263L11.3306 27.9676L14.186 27.0097L12.2976 34.7658L32.7471 34.811L33.9904 29.8382H21.5546L23.1668 23.861L26.5292 22.446L27.4962 18.7965L24.2263 19.8912L26.8055 10.1276L18.6992 9.99213ZM22.6142 0.00273662C28.6103 0.00636109 34.3597 2.36723 38.5999 6.56683C42.84 10.7664 45.224 16.4614 45.2284 22.4009C45.2248 28.3408 42.841 34.0365 38.6008 38.2367C34.3606 42.4369 28.6107 44.7981 22.6142 44.8017C16.6177 44.7981 10.8678 42.4369 6.62759 38.2367C2.3874 34.0365 0.00365977 28.3408 0 22.4009C0.0455876 10.0373 10.1329 0 22.6142 0V0.00273662Z" fill="white"/>
<path fill-rule="evenodd" clip-rule="evenodd" d="M61.6397 14.0091C61.6383 14.4064 61.4783 14.7871 61.1947 15.068C60.9111 15.349 60.5268 15.5074 60.1257 15.5089C59.7246 15.5074 59.3403 15.349 59.0567 15.068C58.7731 14.7871 58.6131 14.4064 58.6116 14.0091C58.6131 13.6118 58.7731 13.2311 59.0567 12.9502C59.3403 12.6692 59.7246 12.5108 60.1257 12.5093C60.9739 12.5394 61.6397 13.199 61.6397 14.0091ZM119.408 14.0529C119.406 14.4502 119.246 14.8308 118.962 15.1118C118.679 15.3927 118.295 15.5512 117.893 15.5527C117.492 15.5512 117.108 15.3927 116.824 15.1118C116.541 14.8308 116.381 14.4502 116.379 14.0529C116.381 13.6556 116.541 13.2749 116.824 12.994C117.108 12.713 117.492 12.5545 117.893 12.5531C118.295 12.5545 118.679 12.713 118.962 12.994C119.246 13.2749 119.406 13.6556 119.408 14.0529ZM53.5859 11.6992H55.5835V32.7823H53.5859V11.6992ZM70.4188 19.1379L70.3884 20.9374L67.5426 20.9675V32.8001H65.5451V20.9538H63.1234V19.0927H65.5451V13.994H67.5426V19.0927H70.4188V19.1379ZM76.5662 19.0777C78.5348 18.6877 80.6829 18.9408 82.3186 20.1273C84.4377 21.627 85.2859 24.4159 84.953 26.8735H73.2936C73.4732 28.1626 74.1114 29.3914 75.2 30.1577C77.3495 31.7478 80.8017 31.3277 82.3144 29.1081L82.5866 28.8386C83.2524 28.9289 83.8879 29.1081 84.5247 29.2285C83.8893 30.6681 82.6777 31.8381 81.2093 32.4676C79.4221 33.2347 77.4049 33.2886 75.5785 32.6181C73.8835 31.9886 72.491 30.6394 71.7933 28.959C70.9755 26.9064 71.0363 24.5801 71.9729 22.6013C72.8211 20.7718 74.577 19.454 76.5317 19.0626L76.5662 19.0777ZM74.7192 22.225C73.9318 22.9749 73.4759 24.0245 73.2964 25.0741H82.9664C82.8283 23.3362 81.6347 21.6558 79.9079 21.1152C78.1535 20.5159 76.033 20.9374 74.7303 22.21L74.7192 22.225ZM88.437 21.1768C91.041 18.3278 96.0349 18.1184 98.853 20.7567L97.4301 22.1662C95.4616 20.4557 92.2829 20.4557 90.3157 22.1361C87.9673 24.1148 88.1054 28.2255 90.5575 30.0537C92.526 31.5836 95.5528 31.4933 97.4301 29.8142L98.853 31.1936C96.1869 33.5924 91.6474 33.6841 88.9826 31.314C86.1369 28.7961 85.8937 23.9656 88.437 21.1768ZM124.403 21.3137C125.16 19.7236 127.097 18.8847 128.944 18.8847C129.792 18.8847 130.639 19.0216 131.334 19.3637C132.726 19.963 133.513 21.133 133.907 22.4837C134.149 23.2636 134.239 24.1025 134.239 24.9126L134.208 32.8302H132.24V25.033C132.24 23.863 131.998 22.6041 131.18 21.7488C130.362 20.9387 129.091 20.7294 128.003 20.9688C126.732 21.1467 125.52 21.8993 124.915 23.068C124.552 23.7878 124.4 24.5677 124.4 25.3778V32.8453H122.402V19.1981L124.4 19.2282L124.403 21.3137ZM105.419 19.0476C107.388 18.6877 109.508 18.9874 111.171 20.0971C112.746 21.0865 113.806 22.7655 114.108 24.5664C114.412 26.4548 114.108 28.4663 113.003 30.04C111.732 31.9284 109.431 33.0697 107.129 33.0396C105.191 33.1299 103.224 32.4101 101.862 31.0307C99.5603 28.8413 99.1956 25.1219 100.681 22.3933C101.62 20.624 103.435 19.3938 105.405 19.0339L105.419 19.0476ZM105.599 21.0263C103.993 21.3862 102.631 22.5562 102.087 24.0847C101.3 26.2139 101.965 28.8536 103.873 30.1426C106.114 31.7615 109.626 31.3427 111.261 29.0931C111.842 28.2729 112.184 27.3097 112.248 26.3097C112.312 25.3097 112.096 24.3116 111.624 23.4251C110.519 21.326 107.839 20.4256 105.601 21.0263H105.599ZM59.1269 32.8001V19.1844L61.0333 19.1242L61.0637 32.8001H59.1269ZM118.86 32.8001H116.921L116.951 19.1242H118.858L118.86 32.8001Z" fill="white"/>
</svg>
