<svg width="147" height="45" viewBox="0 0 147 45" fill="none" xmlns="http://www.w3.org/2000/svg">
<path fill-rule="evenodd" clip-rule="evenodd" d="M48.6387 21.5199C48.4595 19.4896 46.8783 17.636 44.7008 17.636C42.5234 17.636 40.9725 19.4896 40.7639 21.5199H48.6377H48.6387ZM49.5326 21.9233C49.5317 22.0355 49.4857 22.1427 49.4047 22.2215C49.3238 22.3004 49.2145 22.3443 49.1008 22.3439H40.7639C40.9725 24.3751 42.5234 26.2287 44.7008 26.2287C46.192 26.2287 47.2963 25.6694 48.1315 24.492C48.2528 24.3316 48.4301 24.2265 48.6626 24.3234C48.7158 24.3469 48.7633 24.3812 48.802 24.4242C48.8408 24.4671 48.8698 24.5177 48.8872 24.5726C48.9045 24.6274 48.9099 24.6853 48.9028 24.7424C48.8958 24.7995 48.8765 24.8544 48.8463 24.9035C48.0121 26.3465 46.3417 27.0517 44.7008 27.0517C41.8977 27.0517 39.8984 24.5809 39.8984 21.9324C39.8984 19.2839 41.8977 16.8121 44.7008 16.8121C47.5022 16.8121 49.5271 19.2775 49.5326 21.9233ZM59.6446 17.0179C59.8835 17.0179 60.0626 17.2245 60.0626 17.4303C60.0626 17.6659 59.8835 17.8418 59.6446 17.8418H57.4074V26.4934C57.405 26.6018 57.3603 26.7051 57.2826 26.7818C57.2049 26.8585 57.1002 26.9026 56.9903 26.9049C56.8802 26.9028 56.7752 26.8588 56.6973 26.7821C56.6194 26.7054 56.5746 26.6019 56.5722 26.4934V17.8418H54.4251C54.3699 17.8431 54.315 17.8334 54.2637 17.8132C54.2124 17.7931 54.1658 17.7628 54.1267 17.7243C54.0876 17.6859 54.0569 17.64 54.0363 17.5894C54.0157 17.5389 54.0058 17.4847 54.007 17.4303C54.007 17.2245 54.1862 17.0179 54.4251 17.0179H56.5722V13.8509C56.5722 13.6515 56.71 13.4666 56.9094 13.4349C57.1869 13.3895 57.4074 13.579 57.4074 13.84V17.0179H59.6446ZM73.2754 21.1964V26.4353C73.2754 26.6701 73.0668 26.8459 72.8574 26.8459C72.8022 26.8472 72.7474 26.8374 72.6963 26.8171C72.6451 26.7969 72.5986 26.7666 72.5596 26.7282C72.5206 26.6897 72.49 26.6439 72.4694 26.5934C72.4489 26.5429 72.439 26.4888 72.4402 26.4344V21.1964C72.4402 19.4307 71.4259 17.665 69.4276 17.665C66.8624 17.665 65.759 19.8721 65.9087 22.1381C65.9087 22.197 65.9381 22.4617 65.9381 22.4916V26.4236C65.9381 26.623 65.8003 26.8079 65.6019 26.8405C65.3235 26.8849 65.103 26.6955 65.103 26.4344V9.2201C65.103 9.01435 65.2821 8.80859 65.5201 8.80859C65.759 8.80859 65.9381 9.01435 65.9381 9.2201V18.9603C66.6548 17.6949 67.9364 16.8411 69.4276 16.8411C71.8734 16.8411 73.2754 18.9603 73.2754 21.1964ZM87.3243 21.5199C87.1451 19.4896 85.5639 17.636 83.3864 17.636C81.209 17.636 79.6581 19.4896 79.4495 21.5199H87.3243ZM88.2182 21.9233C88.2173 22.0355 88.1713 22.1427 88.0903 22.2215C88.0094 22.3004 87.9001 22.3443 87.7864 22.3439H79.4495C79.6581 24.3751 81.209 26.2287 83.3864 26.2287C84.8785 26.2287 85.9819 25.6694 86.8171 24.492C86.9384 24.3316 87.1157 24.2265 87.3482 24.3234C87.4014 24.3469 87.4489 24.3812 87.4876 24.4242C87.5264 24.4671 87.5554 24.5177 87.5728 24.5726C87.5901 24.6274 87.5955 24.6853 87.5884 24.7424C87.5814 24.7995 87.5621 24.8544 87.5319 24.9035C86.6977 26.3465 85.0273 27.0517 83.3864 27.0517C80.5833 27.0517 78.585 24.5809 78.585 21.9324C78.585 19.2839 80.5833 16.8121 83.3864 16.8121C86.1878 16.8121 88.2127 19.2775 88.2182 21.9233ZM98.4496 17.4004C98.4496 17.6659 98.3008 17.8128 98.0619 17.8418C95.6161 18.1953 94.5127 20.1667 94.5127 22.4617V26.3946C94.5127 26.594 94.3749 26.778 94.1755 26.8106C93.898 26.855 93.6766 26.6656 93.6766 26.4045V17.4402C93.6766 17.2408 93.8144 17.0568 94.0138 17.0242C94.2922 16.9798 94.5127 17.1692 94.5127 17.4303V19.2549C95.1981 18.1064 96.5707 17.0188 98.0022 17.0188C98.2107 17.0188 98.4496 17.1656 98.4496 17.4004ZM111.245 21.5199C111.066 19.4896 109.486 17.636 107.308 17.636C105.131 17.636 103.58 19.4896 103.371 21.5199H111.245ZM112.14 21.9233C112.139 22.0354 112.093 22.1425 112.012 22.2213C111.931 22.3 111.822 22.3441 111.708 22.3439H103.371C103.58 24.3751 105.131 26.2287 107.308 26.2287C108.8 26.2287 109.903 25.6694 110.738 24.492C110.86 24.3316 111.038 24.2265 111.27 24.3234C111.331 24.3496 111.385 24.3904 111.426 24.4421C111.467 24.4939 111.495 24.555 111.506 24.6198C111.525 24.7178 111.506 24.8193 111.454 24.9044C110.619 26.3456 108.948 27.0526 107.308 27.0526C104.504 27.0526 102.507 24.5809 102.507 21.9314C102.507 19.2839 104.504 16.8121 107.308 16.8121C110.109 16.8121 112.136 19.2775 112.141 21.9233H112.14ZM125.592 17.5046V26.4934C125.592 26.729 125.383 26.9049 125.175 26.9049C125.12 26.9062 125.065 26.8965 125.013 26.8763C124.962 26.8562 124.915 26.8259 124.876 26.7874C124.837 26.749 124.807 26.7031 124.786 26.6525C124.765 26.602 124.755 26.5478 124.757 26.4934V24.7866C124.071 26.1399 122.848 27.1115 121.297 27.1115C118.821 27.1115 117.45 24.9924 117.45 22.7563V17.4901C117.45 17.2834 117.628 17.0768 117.867 17.0768C118.106 17.0768 118.285 17.2834 118.285 17.4892V22.7563C118.285 24.5219 119.298 26.2876 121.297 26.2876C124.101 26.2876 124.757 23.698 124.757 20.8429V17.4892C124.758 17.4252 124.773 17.3622 124.803 17.3052C124.832 17.2482 124.875 17.1987 124.927 17.1605C124.979 17.1223 125.039 17.0964 125.103 17.0849C125.167 17.0733 125.233 17.0765 125.295 17.094C125.383 17.1217 125.459 17.1767 125.513 17.2507C125.566 17.3247 125.594 17.4137 125.592 17.5046ZM146.679 21.1674V26.4335C146.679 26.6701 146.471 26.8459 146.262 26.8459C146.207 26.8473 146.152 26.8376 146.101 26.8174C146.05 26.7972 146.003 26.767 145.964 26.7285C145.925 26.69 145.894 26.6441 145.873 26.5936C145.853 26.543 145.843 26.4889 145.844 26.4344V21.1674C145.844 19.4017 144.831 17.6659 142.832 17.6659C140.327 17.6659 139.372 20.3135 139.372 22.3738V26.4344C139.372 26.6701 139.164 26.8459 138.954 26.8459C138.899 26.8473 138.844 26.8376 138.793 26.8174C138.742 26.7972 138.695 26.767 138.656 26.7285C138.617 26.69 138.587 26.6441 138.566 26.5935C138.546 26.543 138.536 26.4889 138.537 26.4344V21.1674C138.537 19.4017 137.523 17.6659 135.525 17.6659C132.989 17.6659 131.945 19.6374 132.034 22.2559C132.034 22.3149 132.065 22.4327 132.034 22.4617V26.4245C132.034 26.6239 131.897 26.807 131.698 26.8396C131.42 26.8849 131.199 26.6946 131.199 26.4344V17.4411C131.199 17.2417 131.337 17.0568 131.536 17.0242C131.814 16.9798 132.034 17.1692 132.034 17.4303V18.9304C132.751 17.6659 134.033 16.842 135.526 16.842C137.224 16.842 138.537 17.9007 139.074 19.4606C139.759 17.9306 141.102 16.8411 142.832 16.8411C145.277 16.8411 146.679 18.9304 146.679 21.1674Z" fill="white"/>
<path fill-rule="evenodd" clip-rule="evenodd" d="M0 22.8005L13.9285 30.9236V0L0 22.8005Z" fill="#8C8C8C"/>
<path fill-rule="evenodd" clip-rule="evenodd" d="M13.9219 0V30.9236L27.8504 22.8005L13.9219 0Z" fill="#343434"/>
<path fill-rule="evenodd" clip-rule="evenodd" d="M13.9294 16.5547L0 22.7998L13.9285 30.9229L27.8579 22.8007L13.9294 16.5547Z" fill="#151515"/>
<path fill-rule="evenodd" clip-rule="evenodd" d="M13.9294 16.5547L0 22.7998L13.9285 30.9229L13.9294 16.5547Z" fill="#393939"/>
<path fill-rule="evenodd" clip-rule="evenodd" d="M0 25.4102L13.9285 44.7745V33.5288L0 25.4102Z" fill="#8C8C8C"/>
<path fill-rule="evenodd" clip-rule="evenodd" d="M13.9219 33.5288V44.7754L27.8596 25.4102L13.9219 33.5288Z" fill="#343434"/>
</svg>
