<svg width="154" height="60" viewBox="0 0 154 60" fill="none" xmlns="http://www.w3.org/2000/svg">
<path d="M42.3617 5.89453H2.38975C1.06993 5.89453 0 7.00765 0 8.38076V33.2426C0 34.6157 1.06993 35.7288 2.38975 35.7288H42.3617C43.6815 35.7288 44.7514 34.6157 44.7514 33.2426V8.38076C44.7514 7.00765 43.6815 5.89453 42.3617 5.89453Z" fill="#009A44"/>
<path fill-rule="evenodd" clip-rule="evenodd" d="M7.07064 20.5851H4.99219V18.8438H7.07064V20.5851Z" fill="white"/>
<path fill-rule="evenodd" clip-rule="evenodd" d="M7.19531 16.957H11.3449C11.9083 16.957 12.3693 17.4181 12.3693 17.9814V18.7189H10.1678V24.3323H7.19531V16.957V16.957Z" fill="white"/>
<path fill-rule="evenodd" clip-rule="evenodd" d="M7.07064 24.3322H6.01651C5.45316 24.3322 4.99219 23.8712 4.99219 23.3079V22.5703H7.07064V24.3322V24.3322Z" fill="white"/>
<path fill-rule="evenodd" clip-rule="evenodd" d="M6.01651 16.957H7.07064V18.7189H4.99219V17.9814C4.99219 17.418 5.45316 16.957 6.01651 16.957V16.957Z" fill="white"/>
<path fill-rule="evenodd" clip-rule="evenodd" d="M7.07064 22.4485H4.99219V20.707H7.07064V22.4485Z" fill="white"/>
<path fill-rule="evenodd" clip-rule="evenodd" d="M12.3676 20.5851H10.2891V18.8438H12.3676V20.5851Z" fill="white"/>
<path fill-rule="evenodd" clip-rule="evenodd" d="M12.3676 22.4485H10.2891V20.707H12.3676V22.4485Z" fill="white"/>
<path fill-rule="evenodd" clip-rule="evenodd" d="M10.2891 24.3322H11.3433C11.9065 24.3322 12.3676 23.8712 12.3676 23.3079V22.5703H10.2892V24.3322H10.2891Z" fill="white"/>
<path d="M3.34483 30.2373C3.06573 30.2373 2.85392 30.164 2.70953 30.0189C2.56438 29.8731 2.49219 29.6697 2.49219 29.4087V28.0824C2.49219 27.8208 2.56514 27.6168 2.71028 27.4716C2.85543 27.3265 3.06724 27.2539 3.34483 27.2539C3.62468 27.2539 3.83636 27.3265 3.98088 27.471C4.12527 27.6155 4.19759 27.8196 4.19759 28.0825V29.4088C4.19759 29.6711 4.12527 29.8745 3.98025 30.0196C3.8351 30.1648 3.6233 30.2373 3.34495 30.2373H3.34483ZM3.34483 29.8484C3.49287 29.8484 3.60216 29.8101 3.67298 29.7347C3.74303 29.6594 3.77813 29.5506 3.77813 29.4088V28.0825C3.77813 27.9408 3.74379 27.8326 3.67373 27.7566C3.60367 27.6813 3.49412 27.6437 3.34483 27.6437C3.1954 27.6437 3.0861 27.6813 3.01668 27.7566C2.94662 27.8326 2.91153 27.9408 2.91153 28.0825V29.4088C2.91153 29.5506 2.94649 29.6595 3.0173 29.7347C3.08812 29.8101 3.19679 29.8484 3.34483 29.8484ZM5.58377 30.2373C5.30468 30.2373 5.09287 30.164 4.94848 30.0189C4.80333 29.8731 4.73113 29.6697 4.73113 29.4087V28.0824C4.73113 27.8208 4.80409 27.6168 4.94923 27.4716C5.09438 27.3265 5.30618 27.2539 5.58377 27.2539C5.8635 27.2539 6.07531 27.3265 6.2197 27.471C6.36422 27.6155 6.43641 27.8196 6.43641 28.0825V29.4088C6.43641 29.6711 6.36422 29.8745 6.21907 30.0196C6.07392 30.1648 5.86212 30.2373 5.58377 30.2373V30.2373ZM5.58377 29.8484C5.73169 29.8484 5.84111 29.8101 5.91192 29.7347C5.98198 29.6594 6.01707 29.5506 6.01707 29.4088V28.0825C6.01707 27.9408 5.98274 27.8326 5.91268 27.7566C5.84262 27.6813 5.7332 27.6437 5.5839 27.6437C5.43448 27.6437 5.32518 27.6813 5.25575 27.7566C5.18569 27.8326 5.1506 27.9408 5.1506 28.0825V29.4088C5.1506 29.5506 5.18557 29.6595 5.25638 29.7347C5.32719 29.8101 5.43586 29.8484 5.5839 29.8484H5.58377ZM7.8226 30.2373C7.5435 30.2373 7.33169 30.164 7.1873 30.0189C7.04215 29.8731 6.96996 29.6697 6.96996 29.4087V28.0824C6.96996 27.8208 7.04291 27.6168 7.18805 27.4716C7.3332 27.3265 7.54501 27.2539 7.8226 27.2539C8.10245 27.2539 8.31413 27.3265 8.45865 27.471C8.60316 27.6155 8.67536 27.8196 8.67536 28.0825V29.4088C8.67536 29.6711 8.60316 29.8745 8.45802 30.0196C8.31287 30.1648 8.10106 30.2373 7.82272 30.2373H7.8226ZM7.8226 29.8484C7.97063 29.8484 8.07993 29.8101 8.15075 29.7347C8.2208 29.6594 8.2559 29.5506 8.2559 29.4088V28.0825C8.2559 27.9408 8.22156 27.8326 8.1515 27.7566C8.08144 27.6813 7.97189 27.6437 7.8226 27.6437C7.6733 27.6437 7.56387 27.6813 7.49444 27.7566C7.42439 27.8326 7.3893 27.9408 7.3893 28.0825V29.4088C7.3893 29.5506 7.42426 29.6595 7.4952 29.7347C7.56601 29.8101 7.67468 29.8484 7.8226 29.8484ZM10.0615 30.2373C9.78244 30.2373 9.57064 30.164 9.42625 30.0189C9.2811 29.8731 9.2089 29.6697 9.2089 29.4087V28.0824C9.2089 27.8208 9.28185 27.6168 9.427 27.4716C9.57215 27.3265 9.78395 27.2539 10.0615 27.2539C10.3414 27.2539 10.5531 27.3265 10.6975 27.471C10.842 27.6155 10.9142 27.8196 10.9142 28.0825V29.4088C10.9142 29.6711 10.8419 29.8745 10.6968 30.0196C10.5517 30.1648 10.3399 30.2373 10.0615 30.2373V30.2373ZM10.0615 29.8484C10.2096 29.8484 10.3189 29.8101 10.3897 29.7347C10.4598 29.6594 10.4947 29.5506 10.4947 29.4088V28.0825C10.4947 27.9408 10.4605 27.8326 10.3903 27.7566C10.3203 27.6813 10.2107 27.6437 10.0614 27.6437C9.91212 27.6437 9.80269 27.6813 9.73327 27.7566C9.66321 27.8326 9.62824 27.9408 9.62824 28.0825V29.4088C9.62824 29.5506 9.66321 29.6595 9.73415 29.7347C9.80496 29.8101 9.9135 29.8484 10.0615 29.8484Z" fill="white"/>
<path d="M13.7901 30.2373C13.511 30.2373 13.2992 30.164 13.1548 30.0189C13.0097 29.8731 12.9375 29.6697 12.9375 29.4087V28.0824C12.9375 27.8208 13.0105 27.6168 13.1556 27.4716C13.3007 27.3265 13.5126 27.2539 13.7903 27.2539C14.07 27.2539 14.2818 27.3265 14.4262 27.471C14.5707 27.6155 14.6429 27.8196 14.6429 28.0825V29.4088C14.6429 29.6711 14.5707 29.8745 14.4256 30.0196C14.2804 30.1648 14.0686 30.2373 13.7903 30.2373H13.7901ZM13.7901 29.8484C13.9381 29.8484 14.0475 29.8101 14.1183 29.7347C14.1883 29.6594 14.2234 29.5506 14.2234 29.4088V28.0825C14.2234 27.9408 14.1891 27.8326 14.119 27.7566C14.049 27.6813 13.9396 27.6437 13.7903 27.6437C13.641 27.6437 13.5315 27.6813 13.4621 27.7566C13.3921 27.8326 13.357 27.9408 13.357 28.0825V29.4088C13.357 29.5506 13.3919 29.6595 13.4629 29.7347C13.5337 29.8101 13.6424 29.8484 13.7904 29.8484H13.7901ZM16.029 30.2373C15.7499 30.2373 15.5382 30.164 15.3937 30.0189C15.2485 29.8731 15.1763 29.6697 15.1763 29.4087V28.0824C15.1763 27.8208 15.2493 27.6168 15.3944 27.4716C15.5396 27.3265 15.7514 27.2539 16.029 27.2539C16.3088 27.2539 16.5205 27.3265 16.665 27.471C16.8094 27.6155 16.8817 27.8196 16.8817 28.0825V29.4088C16.8817 29.6711 16.8094 29.8745 16.6644 30.0196C16.5192 30.1648 16.3074 30.2373 16.0291 30.2373H16.029ZM16.029 29.8484C16.177 29.8484 16.2863 29.8101 16.3571 29.7347C16.4272 29.6594 16.4623 29.5506 16.4623 29.4088V28.0825C16.4623 27.9408 16.4279 27.8326 16.3579 27.7566C16.2878 27.6813 16.1783 27.6437 16.029 27.6437C15.8797 27.6437 15.7702 27.6813 15.7008 27.7566C15.6308 27.8326 15.5957 27.9408 15.5957 28.0825V29.4088C15.5957 29.5506 15.6306 29.6595 15.7016 29.7347C15.7724 29.8101 15.881 29.8484 16.029 29.8484ZM18.2679 30.2373C17.9888 30.2373 17.777 30.164 17.6326 30.0189C17.4876 29.8731 17.4153 29.6697 17.4153 29.4087V28.0824C17.4153 27.8208 17.4882 27.6168 17.6334 27.4716C17.7785 27.3265 17.9903 27.2539 18.2679 27.2539C18.5476 27.2539 18.7594 27.3265 18.9038 27.471C19.0484 27.6155 19.1205 27.8196 19.1205 28.0825V29.4088C19.1205 29.6711 19.0482 29.8745 18.9032 30.0196C18.7581 30.1648 18.5463 30.2373 18.2679 30.2373ZM18.2679 29.8484C18.4158 29.8484 18.5252 29.8101 18.5961 29.7347C18.6661 29.6594 18.7012 29.5506 18.7012 29.4088V28.0825C18.7012 27.9408 18.6669 27.8326 18.5968 27.7566C18.5268 27.6813 18.4173 27.6437 18.2679 27.6437C18.1186 27.6437 18.0092 27.6813 17.9398 27.7566C17.8697 27.8326 17.8346 27.9408 17.8346 28.0825V29.4088C17.8346 29.5506 17.8696 29.6595 17.9405 29.7347C18.0113 29.8101 18.12 29.8484 18.268 29.8484H18.2679ZM20.5067 30.2373C20.2276 30.2373 20.016 30.164 19.8714 30.0189C19.7263 29.8731 19.6541 29.6697 19.6541 29.4087V28.0824C19.6541 27.8208 19.727 27.6168 19.8722 27.4716C20.0173 27.3265 20.2291 27.2539 20.5067 27.2539C20.7866 27.2539 20.9983 27.3265 21.1428 27.471C21.2873 27.6155 21.3595 27.8196 21.3595 28.0825V29.4088C21.3595 29.6711 21.2873 29.8745 21.1422 30.0196C20.997 30.1648 20.7852 30.2373 20.5069 30.2373H20.5067ZM20.5067 29.8484C20.6548 29.8484 20.7641 29.8101 20.8349 29.7347C20.9049 29.6594 20.94 29.5506 20.94 29.4088V28.0825C20.94 27.9408 20.9057 27.8326 20.8355 27.7566C20.7655 27.6813 20.656 27.6437 20.5066 27.6437C20.3573 27.6437 20.2479 27.6813 20.1785 27.7566C20.1084 27.8326 20.0733 27.9408 20.0733 28.0825V29.4088C20.0733 29.5506 20.1083 29.6595 20.1792 29.7347C20.25 29.8101 20.3587 29.8484 20.5066 29.8484H20.5067Z" fill="white"/>
<path d="M24.2511 30.2373C23.972 30.2373 23.7603 30.164 23.6158 30.0189C23.4706 29.8731 23.3984 29.6697 23.3984 29.4087V28.0824C23.3984 27.8208 23.4714 27.6168 23.6165 27.4716C23.7617 27.3265 23.9735 27.2539 24.2511 27.2539C24.5309 27.2539 24.7426 27.3265 24.8871 27.471C25.0315 27.6155 25.1038 27.8196 25.1038 28.0825V29.4088C25.1038 29.6711 25.0315 29.8745 24.8865 30.0196C24.7414 30.1648 24.5295 30.2373 24.2512 30.2373H24.2511ZM24.2511 29.8484C24.3991 29.8484 24.5084 29.8101 24.5792 29.7347C24.6493 29.6594 24.6843 29.5506 24.6843 29.4088V28.0825C24.6843 27.9408 24.65 27.8326 24.5799 27.7566C24.5098 27.6813 24.4004 27.6437 24.251 27.6437C24.1017 27.6437 23.9922 27.6813 23.9228 27.7566C23.8527 27.8326 23.8178 27.9408 23.8178 28.0825V29.4088C23.8178 29.5506 23.8527 29.6595 23.9237 29.7347C23.9945 29.8101 24.103 29.8484 24.2511 29.8484ZM26.49 30.2373C26.2109 30.2373 25.9991 30.164 25.8547 30.0189C25.7096 29.8731 25.6374 29.6697 25.6374 29.4087V28.0824C25.6374 27.8208 25.7103 27.6168 25.8555 27.4716C26.0006 27.3265 26.2124 27.2539 26.4901 27.2539C26.7699 27.2539 26.9817 27.3265 27.1261 27.471C27.2706 27.6155 27.3428 27.8196 27.3428 28.0825V29.4088C27.3428 29.6711 27.2706 29.8745 27.1254 30.0196C26.9803 30.1648 26.7685 30.2373 26.4901 30.2373H26.49ZM26.49 29.8484C26.6379 29.8484 26.7474 29.8101 26.8182 29.7347C26.8882 29.6594 26.9233 29.5506 26.9233 29.4088V28.0825C26.9233 27.9408 26.889 27.8326 26.8188 27.7566C26.7487 27.6813 26.6393 27.6437 26.49 27.6437C26.3407 27.6437 26.2313 27.6813 26.1619 27.7566C26.0918 27.8326 26.0567 27.9408 26.0567 28.0825V29.4088C26.0567 29.5506 26.0917 29.6595 26.1626 29.7347C26.2334 29.8101 26.3421 29.8484 26.4901 29.8484H26.49ZM28.7288 30.2373C28.4499 30.2373 28.2381 30.164 28.0935 30.0189C27.9484 29.8731 27.8762 29.6697 27.8762 29.4087V28.0824C27.8762 27.8208 27.9492 27.6168 28.0943 27.4716C28.2394 27.3265 28.4513 27.2539 28.7288 27.2539C29.0087 27.2539 29.2204 27.3265 29.3649 27.471C29.5094 27.6155 29.5816 27.8196 29.5816 28.0825V29.4088C29.5816 29.6711 29.5094 29.8745 29.3643 30.0196C29.2191 30.1648 29.0073 30.2373 28.729 30.2373H28.7288ZM28.7288 29.8484C28.8769 29.8484 28.9862 29.8101 29.057 29.7347C29.1271 29.6594 29.1621 29.5506 29.1621 29.4088V28.0825C29.1621 27.9408 29.1278 27.8326 29.0576 27.7566C28.9876 27.6813 28.8781 27.6437 28.7287 27.6437C28.5794 27.6437 28.47 27.6813 28.4006 27.7566C28.3305 27.8326 28.2954 27.9408 28.2954 28.0825V29.4088C28.2954 29.5506 28.3304 29.6595 28.4013 29.7347C28.4721 29.8101 28.5808 29.8484 28.7287 29.8484H28.7288ZM30.9678 30.2373C30.6887 30.2373 30.4769 30.164 30.3325 30.0189C30.1873 29.8731 30.115 29.6697 30.115 29.4087V28.0824C30.115 27.8208 30.188 27.6168 30.3331 27.4716C30.4783 27.3265 30.6901 27.2539 30.9677 27.2539C31.2474 27.2539 31.4592 27.3265 31.6036 27.471C31.7481 27.6155 31.8203 27.8196 31.8203 28.0825V29.4088C31.8203 29.6711 31.748 29.8745 31.603 30.0196C31.4578 30.1648 31.246 30.2373 30.9677 30.2373H30.9678ZM30.9678 29.8484C31.1157 29.8484 31.2251 29.8101 31.2959 29.7347C31.366 29.6594 31.4011 29.5506 31.4011 29.4088V28.0825C31.4011 27.9408 31.3668 27.8326 31.2967 27.7566C31.2266 27.6813 31.1172 27.6437 30.9678 27.6437C30.8185 27.6437 30.7091 27.6813 30.6396 27.7566C30.5696 27.8326 30.5345 27.9408 30.5345 28.0825V29.4088C30.5345 29.5506 30.5695 29.6595 30.6404 29.7347C30.7112 29.8101 30.8199 29.8484 30.9679 29.8484H30.9678Z" fill="white"/>
<path d="M34.7042 30.2373C34.4252 30.2373 34.2134 30.164 34.0689 30.0189C33.9238 29.8731 33.8516 29.6697 33.8516 29.4087V28.0824C33.8516 27.8208 33.9245 27.6168 34.0697 27.4716C34.2148 27.3265 34.4266 27.2539 34.7042 27.2539C34.9841 27.2539 35.1957 27.3265 35.3403 27.471C35.4848 27.6155 35.557 27.8196 35.557 28.0825V29.4088C35.557 29.6711 35.4848 29.8745 35.3396 30.0196C35.1945 30.1648 34.9827 30.2373 34.7043 30.2373H34.7042ZM34.7042 29.8484C34.8522 29.8484 34.9615 29.8101 35.0324 29.7347C35.1024 29.6594 35.1375 29.5506 35.1375 29.4088V28.0825C35.1375 27.9408 35.1032 27.8326 35.033 27.7566C34.9629 27.6813 34.8535 27.6437 34.7041 27.6437C34.5548 27.6437 34.4454 27.6813 34.3759 27.7566C34.3059 27.8326 34.2708 27.9408 34.2708 28.0825V29.4088C34.2708 29.5506 34.3057 29.6595 34.3767 29.7347C34.4475 29.8101 34.5562 29.8484 34.7041 29.8484H34.7042ZM36.9431 30.2373C36.6642 30.2373 36.4524 30.164 36.3079 30.0189C36.1627 29.8731 36.0904 29.6697 36.0904 29.4087V28.0824C36.0904 27.8208 36.1633 27.6168 36.3085 27.4716C36.4536 27.3265 36.6654 27.2539 36.943 27.2539C37.2229 27.2539 37.4346 27.3265 37.5791 27.471C37.7235 27.6155 37.7958 27.8196 37.7958 28.0825V29.4088C37.7958 29.6711 37.7235 29.8745 37.5784 30.0196C37.4333 30.1648 37.2215 30.2373 36.9431 30.2373V30.2373ZM36.9431 29.8484C37.0912 29.8484 37.2005 29.8101 37.2713 29.7347C37.3414 29.6594 37.3764 29.5506 37.3764 29.4088V28.0825C37.3764 27.9408 37.3421 27.8326 37.2719 27.7566C37.2019 27.6813 37.0924 27.6437 36.943 27.6437C36.7937 27.6437 36.6843 27.6813 36.6149 27.7566C36.5448 27.8326 36.5097 27.9408 36.5097 28.0825V29.4088C36.5097 29.5506 36.5447 29.6595 36.6156 29.7347C36.6864 29.8101 36.795 29.8484 36.943 29.8484H36.9431ZM39.1821 30.2373C38.903 30.2373 38.6912 30.164 38.5468 30.0189C38.4017 29.8731 38.3295 29.6697 38.3295 29.4087V28.0824C38.3295 27.8208 38.4025 27.6168 38.5476 27.4716C38.6927 27.3265 38.9045 27.2539 39.1821 27.2539C39.4618 27.2539 39.6736 27.3265 39.818 27.471C39.9625 27.6155 40.0347 27.8196 40.0347 28.0825V29.4088C40.0347 29.6711 39.9625 29.8745 39.8174 30.0196C39.6722 30.1648 39.4604 30.2373 39.1821 30.2373V30.2373ZM39.1821 29.8484C39.33 29.8484 39.4394 29.8101 39.5102 29.7347C39.5803 29.6594 39.6154 29.5506 39.6154 29.4088V28.0825C39.6154 27.9408 39.5811 27.8326 39.5109 27.7566C39.4408 27.6813 39.3314 27.6437 39.1821 27.6437C39.0328 27.6437 38.9234 27.6813 38.8539 27.7566C38.7839 27.8326 38.7488 27.9408 38.7488 28.0825V29.4088C38.7488 29.5506 38.7838 29.6595 38.8547 29.7347C38.9255 29.8101 39.0342 29.8484 39.1822 29.8484H39.1821ZM41.4209 30.2373C41.1419 30.2373 40.9301 30.164 40.7856 30.0189C40.6405 29.8731 40.5683 29.6697 40.5683 29.4087V28.0824C40.5683 27.8208 40.6412 27.6168 40.7864 27.4716C40.9315 27.3265 41.1433 27.2539 41.4209 27.2539C41.7008 27.2539 41.9125 27.3265 42.057 27.471C42.2015 27.6155 42.2737 27.8196 42.2737 28.0825V29.4088C42.2737 29.6711 42.2014 29.8745 42.0563 30.0196C41.9112 30.1648 41.6994 30.2373 41.421 30.2373H41.4209ZM41.4209 29.8484C41.569 29.8484 41.6783 29.8101 41.7491 29.7347C41.8191 29.6594 41.8542 29.5506 41.8542 29.4088V28.0825C41.8542 27.9408 41.8199 27.8326 41.7497 27.7566C41.6796 27.6813 41.5702 27.6437 41.4208 27.6437C41.2715 27.6437 41.1621 27.6813 41.0926 27.7566C41.0225 27.8326 40.9875 27.9408 40.9875 28.0825V29.4088C40.9875 29.5506 41.0225 29.6595 41.0934 29.7347C41.1642 29.8101 41.2729 29.8484 41.4208 29.8484H41.4209Z" fill="white"/>
<path fill-rule="evenodd" clip-rule="evenodd" d="M34.5127 17.3439C35.513 17.3439 36.3968 17.8418 36.9304 18.6033C37.3218 18.2649 37.8321 18.0603 38.39 18.0603C39.6236 18.0603 40.6237 19.0603 40.6237 20.294C40.6237 21.5277 39.6236 22.5276 38.39 22.5276C37.832 22.5276 37.3218 22.323 36.9304 21.9847C36.3968 22.746 35.513 23.2441 34.5127 23.2441C32.8834 23.2441 31.5625 21.9233 31.5625 20.2938C31.5625 18.6645 32.8833 17.3438 34.5127 17.3438V17.3439Z" fill="white"/>
<path d="M3.23438 9.32098H5.44814V9.81787H3.83225V10.5046H4.63212C4.85296 10.5046 5.03609 10.5316 5.18152 10.5854C5.32695 10.6393 5.45084 10.7389 5.55318 10.8844C5.65686 11.0298 5.70871 11.2001 5.70871 11.3954C5.70871 11.596 5.65686 11.7677 5.55318 11.9104C5.44949 12.0532 5.33099 12.1508 5.19768 12.2033C5.06572 12.2558 4.8772 12.2821 4.63212 12.2821H3.23438V9.32098ZM3.83225 11.7852H4.41397C4.5998 11.7852 4.73042 11.7765 4.80583 11.759C4.88124 11.7401 4.94655 11.6984 5.00175 11.6337C5.05831 11.5691 5.08659 11.4896 5.08659 11.3954C5.08659 11.258 5.03744 11.1584 4.93914 11.0964C4.84219 11.0332 4.67588 11.0015 4.44023 11.0015H3.83225V11.7852Z" fill="white"/>
<path d="M8.7082 12.2821H8.05781L7.79926 11.6095H6.61563L6.37122 12.2821H5.73698L6.89033 9.32098H7.52254L8.7082 12.2821ZM7.60738 11.1106L7.19937 10.0118L6.79943 11.1106H7.60738Z" fill="white"/>
<path d="M9.02936 12.2821V9.32098H9.62724V10.4864H10.7988V9.32098H11.3966V12.2821H10.7988V10.9874H9.62724V12.2821H9.02936Z" fill="white"/>
<path d="M12.0268 9.32098H12.6247V10.5814C12.758 10.5679 12.8482 10.5336 12.8954 10.4784C12.9425 10.4232 13.0152 10.2696 13.1135 10.0178C13.2374 9.69735 13.362 9.49805 13.4872 9.41995C13.6111 9.34185 13.811 9.3028 14.0871 9.3028C14.1006 9.3028 14.1295 9.30213 14.174 9.30078V9.74313L14.0891 9.74111C13.9666 9.74111 13.877 9.7566 13.8205 9.78757C13.7639 9.81719 13.7181 9.86298 13.6831 9.92492C13.6481 9.98686 13.5963 10.1141 13.5276 10.3067C13.4912 10.409 13.4515 10.4945 13.4084 10.5632C13.3667 10.6319 13.2919 10.6965 13.1842 10.7571C13.3175 10.7948 13.4273 10.8709 13.5135 10.9853C13.601 11.0998 13.6966 11.2614 13.8003 11.4701L14.2042 12.2821H13.5013L13.1479 11.5166C13.1425 11.5058 13.131 11.4849 13.1135 11.454C13.1068 11.4432 13.0819 11.3967 13.0388 11.3146C12.962 11.1692 12.8987 11.0783 12.8489 11.0419C12.8004 11.0055 12.7257 10.9867 12.6247 10.9853V12.2821H12.0268V9.32098Z" fill="white"/>
<path fill-rule="evenodd" clip-rule="evenodd" d="M64.1597 5.62676C63.4857 6.79412 62.8117 7.96147 62.1378 9.12883C58.9121 7.1705 53.303 6.56503 48.4843 10.2714C54.5503 9.7386 56.5684 11.0999 59.8286 13.1284L57.6985 16.8179L67.4636 14.9949L64.1597 5.62676Z" fill="#009A44"/>
<path d="M98.8773 24.8281H58.9054C57.5856 24.8281 56.5156 25.9412 56.5156 27.3144V52.1762C56.5156 53.5493 57.5856 54.6624 58.9054 54.6624H98.8773C100.197 54.6624 101.267 53.5493 101.267 52.1762V27.3144C101.267 25.9412 100.197 24.8281 98.8773 24.8281Z" fill="#007FC6"/>
<path fill-rule="evenodd" clip-rule="evenodd" d="M63.5863 39.5187H61.5078V37.7773H63.5863V39.5187Z" fill="white"/>
<path fill-rule="evenodd" clip-rule="evenodd" d="M63.7109 35.8906H67.8606C68.4239 35.8906 68.8849 36.3517 68.8849 36.915V37.6525H66.6834V43.2659H63.7109V35.8906Z" fill="white"/>
<path fill-rule="evenodd" clip-rule="evenodd" d="M63.5863 43.2658H62.5321C61.9688 43.2658 61.5078 42.8048 61.5078 42.2415V41.5039H63.5863V43.2658Z" fill="white"/>
<path fill-rule="evenodd" clip-rule="evenodd" d="M62.5321 35.8906H63.5863V37.6525H61.5078V36.915C61.5078 36.3516 61.9688 35.8906 62.5321 35.8906Z" fill="white"/>
<path fill-rule="evenodd" clip-rule="evenodd" d="M63.5863 41.382H61.5078V39.6406H63.5863V41.382Z" fill="white"/>
<path fill-rule="evenodd" clip-rule="evenodd" d="M68.8831 39.5187H66.8047V37.7773H68.8831V39.5187Z" fill="white"/>
<path fill-rule="evenodd" clip-rule="evenodd" d="M68.8831 41.382H66.8047V39.6406H68.8831V41.382Z" fill="white"/>
<path fill-rule="evenodd" clip-rule="evenodd" d="M66.8047 43.2658H67.8589C68.4222 43.2658 68.8833 42.8048 68.8833 42.2415V41.5039H66.8048V43.2658H66.8047Z" fill="white"/>
<path d="M59.8526 49.1709C59.5735 49.1709 59.3617 49.0976 59.2173 48.9524C59.0722 48.8067 59 48.6033 59 48.3423V47.016C59 46.7544 59.073 46.5504 59.2181 46.4052C59.3632 46.2601 59.5751 46.1875 59.8526 46.1875C60.1325 46.1875 60.3442 46.2601 60.4887 46.4046C60.6331 46.5491 60.7054 46.7532 60.7054 47.0161V48.3424C60.7054 48.6047 60.6331 48.8081 60.4881 48.9532C60.3429 49.0983 60.1311 49.1709 59.8528 49.1709H59.8526ZM59.8526 48.782C60.0007 48.782 60.11 48.7437 60.1808 48.6683C60.2508 48.593 60.2859 48.4842 60.2859 48.3424V47.0161C60.2859 46.8744 60.2516 46.7662 60.1815 46.6902C60.1115 46.6149 60.0019 46.5773 59.8526 46.5773C59.7032 46.5773 59.5939 46.6149 59.5245 46.6902C59.4544 46.7662 59.4193 46.8744 59.4193 47.0161V48.3424C59.4193 48.4842 59.4543 48.5931 59.5251 48.6683C59.5959 48.7437 59.7046 48.782 59.8526 48.782V48.782ZM62.0916 49.1709C61.8125 49.1709 61.6007 49.0976 61.4563 48.9524C61.3111 48.8067 61.2389 48.6033 61.2389 48.3423V47.016C61.2389 46.7544 61.3119 46.5504 61.457 46.4052C61.6022 46.2601 61.814 46.1875 62.0916 46.1875C62.3713 46.1875 62.5831 46.2601 62.7275 46.4046C62.872 46.5491 62.9442 46.7532 62.9442 47.0161V48.3424C62.9442 48.6047 62.872 48.8081 62.7269 48.9532C62.5817 49.0983 62.3699 49.1709 62.0916 49.1709V49.1709ZM62.0916 48.782C62.2395 48.782 62.3489 48.7437 62.4197 48.6683C62.4898 48.593 62.5249 48.4842 62.5249 48.3424V47.0161C62.5249 46.8744 62.4905 46.7662 62.4205 46.6902C62.3504 46.6149 62.241 46.5773 62.0917 46.5773C61.9423 46.5773 61.833 46.6149 61.7636 46.6902C61.6935 46.7662 61.6584 46.8744 61.6584 47.0161V48.3424C61.6584 48.4842 61.6934 48.5931 61.7642 48.6683C61.835 48.7437 61.9437 48.782 62.0917 48.782H62.0916ZM64.3304 49.1709C64.0513 49.1709 63.8395 49.0976 63.6951 48.9524C63.55 48.8067 63.4778 48.6033 63.4778 48.3423V47.016C63.4778 46.7544 63.5507 46.5504 63.6959 46.4052C63.841 46.2601 64.0528 46.1875 64.3304 46.1875C64.6103 46.1875 64.8219 46.2601 64.9665 46.4046C65.111 46.5491 65.1832 46.7532 65.1832 47.0161V48.3424C65.1832 48.6047 65.111 48.8081 64.9658 48.9532C64.8207 49.0983 64.6089 49.1709 64.3305 49.1709H64.3304ZM64.3304 48.782C64.4784 48.782 64.5877 48.7437 64.6586 48.6683C64.7286 48.593 64.7637 48.4842 64.7637 48.3424V47.0161C64.7637 46.8744 64.7294 46.7662 64.6593 46.6902C64.5893 46.6149 64.4797 46.5773 64.3304 46.5773C64.1811 46.5773 64.0717 46.6149 64.0023 46.6902C63.9322 46.7662 63.8971 46.8744 63.8971 47.0161V48.3424C63.8971 48.4842 63.9321 48.5931 64.003 48.6683C64.0738 48.7437 64.1825 48.782 64.3304 48.782ZM66.5694 49.1709C66.2903 49.1709 66.0785 49.0976 65.9341 48.9524C65.7889 48.8067 65.7167 48.6033 65.7167 48.3423V47.016C65.7167 46.7544 65.7897 46.5504 65.9348 46.4052C66.08 46.2601 66.2918 46.1875 66.5694 46.1875C66.8492 46.1875 67.0609 46.2601 67.2053 46.4046C67.3498 46.5491 67.422 46.7532 67.422 47.0161V48.3424C67.422 48.6047 67.3497 48.8081 67.2047 48.9532C67.0595 49.0983 66.8477 49.1709 66.5694 49.1709V49.1709ZM66.5694 48.782C66.7174 48.782 66.8267 48.7437 66.8975 48.6683C66.9676 48.593 67.0025 48.4842 67.0025 48.3424V47.0161C67.0025 46.8744 66.9683 46.7662 66.8981 46.6902C66.8281 46.6149 66.7185 46.5773 66.5692 46.5773C66.4199 46.5773 66.3105 46.6149 66.2411 46.6902C66.171 46.7662 66.1361 46.8744 66.1361 47.0161V48.3424C66.1361 48.4842 66.171 48.5931 66.242 48.6683C66.3128 48.7437 66.4213 48.782 66.5694 48.782Z" fill="white"/>
<path d="M70.3058 49.1709C70.0267 49.1709 69.8149 49.0976 69.6705 48.9524C69.5253 48.8067 69.4531 48.6033 69.4531 48.3423V47.016C69.4531 46.7544 69.5261 46.5504 69.6712 46.4052C69.8164 46.2601 70.0282 46.1875 70.3059 46.1875C70.5856 46.1875 70.7974 46.2601 70.9418 46.4046C71.0863 46.5491 71.1585 46.7532 71.1585 47.0161V48.3424C71.1585 48.6047 71.0863 48.8081 70.9412 48.9532C70.796 49.0983 70.5842 49.1709 70.3059 49.1709H70.3058ZM70.3058 48.782C70.4537 48.782 70.5631 48.7437 70.6339 48.6683C70.704 48.593 70.7391 48.4842 70.7391 48.3424V47.0161C70.7391 46.8744 70.7047 46.7662 70.6347 46.6902C70.5646 46.6149 70.4552 46.5773 70.3059 46.5773C70.1566 46.5773 70.0472 46.6149 69.9777 46.6902C69.9077 46.7662 69.8726 46.8744 69.8726 47.0161V48.3424C69.8726 48.4842 69.9076 48.5931 69.9785 48.6683C70.0493 48.7437 70.158 48.782 70.306 48.782H70.3058ZM72.5446 49.1709C72.2655 49.1709 72.0538 49.0976 71.9093 48.9524C71.7641 48.8067 71.6919 48.6033 71.6919 48.3423V47.016C71.6919 46.7544 71.7649 46.5504 71.91 46.4052C72.0552 46.2601 72.267 46.1875 72.5446 46.1875C72.8244 46.1875 73.0361 46.2601 73.1806 46.4046C73.325 46.5491 73.3974 46.7532 73.3974 47.0161V48.3424C73.3974 48.6047 73.325 48.8081 73.18 48.9532C73.0349 49.0983 72.8231 49.1709 72.5447 49.1709H72.5446ZM72.5446 48.782C72.6926 48.782 72.8019 48.7437 72.8727 48.6683C72.9428 48.593 72.9779 48.4842 72.9779 48.3424V47.0161C72.9779 46.8744 72.9435 46.7662 72.8735 46.6902C72.8034 46.6149 72.6939 46.5773 72.5446 46.5773C72.3953 46.5773 72.2859 46.6149 72.2164 46.6902C72.1464 46.7662 72.1113 46.8744 72.1113 47.0161V48.3424C72.1113 48.4842 72.1463 48.5931 72.2172 48.6683C72.288 48.7437 72.3967 48.782 72.5446 48.782ZM74.7835 49.1709C74.5044 49.1709 74.2926 49.0976 74.1482 48.9524C74.0032 48.8067 73.9309 48.6033 73.9309 48.3423V47.016C73.9309 46.7544 74.0038 46.5504 74.149 46.4052C74.2941 46.2601 74.5059 46.1875 74.7835 46.1875C75.0633 46.1875 75.2751 46.2601 75.4195 46.4046C75.564 46.5491 75.6362 46.7532 75.6362 47.0161V48.3424C75.6362 48.6047 75.5639 48.8081 75.4188 48.9532C75.2737 49.0983 75.0619 49.1709 74.7835 49.1709V49.1709ZM74.7835 48.782C74.9314 48.782 75.0409 48.7437 75.1117 48.6683C75.1817 48.593 75.2168 48.4842 75.2168 48.3424V47.0161C75.2168 46.8744 75.1825 46.7662 75.1124 46.6902C75.0424 46.6149 74.933 46.5773 74.7835 46.5773C74.6342 46.5773 74.5248 46.6149 74.4554 46.6902C74.3853 46.7662 74.3502 46.8744 74.3502 47.0161V48.3424C74.3502 48.4842 74.3852 48.5931 74.4561 48.6683C74.5269 48.7437 74.6356 48.782 74.7837 48.782H74.7835ZM77.0224 49.1709C76.7433 49.1709 76.5316 49.0976 76.3871 48.9524C76.2419 48.8067 76.1697 48.6033 76.1697 48.3423V47.016C76.1697 46.7544 76.2427 46.5504 76.3878 46.4052C76.533 46.2601 76.7448 46.1875 77.0224 46.1875C77.3022 46.1875 77.5139 46.2601 77.6584 46.4046C77.8029 46.5491 77.8751 46.7532 77.8751 47.0161V48.3424C77.8751 48.6047 77.8029 48.8081 77.6578 48.9532C77.5126 49.0983 77.3008 49.1709 77.0225 49.1709H77.0224ZM77.0224 48.782C77.1704 48.782 77.2797 48.7437 77.3505 48.6683C77.4206 48.593 77.4557 48.4842 77.4557 48.3424V47.0161C77.4557 46.8744 77.4213 46.7662 77.3511 46.6902C77.2811 46.6149 77.1717 46.5773 77.0222 46.5773C76.8729 46.5773 76.7635 46.6149 76.6941 46.6902C76.624 46.7662 76.5889 46.8744 76.5889 47.0161V48.3424C76.5889 48.4842 76.6239 48.5931 76.6948 48.6683C76.7656 48.7437 76.8743 48.782 77.0222 48.782H77.0224Z" fill="white"/>
<path d="M80.7589 49.1709C80.4798 49.1709 80.2681 49.0976 80.1236 48.9524C79.9784 48.8067 79.9062 48.6033 79.9062 48.3423V47.016C79.9062 46.7544 79.9792 46.5504 80.1243 46.4052C80.2695 46.2601 80.4813 46.1875 80.7589 46.1875C81.0387 46.1875 81.2504 46.2601 81.3949 46.4046C81.5393 46.5491 81.6117 46.7532 81.6117 47.0161V48.3424C81.6117 48.6047 81.5393 48.8081 81.3943 48.9532C81.2492 49.0983 81.0374 49.1709 80.759 49.1709H80.7589ZM80.7589 48.782C80.9069 48.782 81.0162 48.7437 81.087 48.6683C81.1571 48.593 81.1921 48.4842 81.1921 48.3424V47.0161C81.1921 46.8744 81.1579 46.7662 81.0877 46.6902C81.0176 46.6149 80.9082 46.5773 80.7588 46.5773C80.6095 46.5773 80.5 46.6149 80.4306 46.6902C80.3606 46.7662 80.3256 46.8744 80.3256 47.0161V48.3424C80.3256 48.4842 80.3606 48.5931 80.4315 48.6683C80.5023 48.7437 80.6109 48.782 80.7589 48.782ZM82.9978 49.1709C82.7187 49.1709 82.5069 49.0976 82.3625 48.9524C82.2174 48.8067 82.1452 48.6033 82.1452 48.3423V47.016C82.1452 46.7544 82.2181 46.5504 82.3633 46.4052C82.5084 46.2601 82.7202 46.1875 82.998 46.1875C83.2777 46.1875 83.4895 46.2601 83.6339 46.4046C83.7784 46.5491 83.8506 46.7532 83.8506 47.0161V48.3424C83.8506 48.6047 83.7784 48.8081 83.6333 48.9532C83.4881 49.0983 83.2763 49.1709 82.998 49.1709H82.9978ZM82.9978 48.782C83.1457 48.782 83.2552 48.7437 83.326 48.6683C83.396 48.593 83.4311 48.4842 83.4311 48.3424V47.0161C83.4311 46.8744 83.3968 46.7662 83.3266 46.6902C83.2566 46.6149 83.1471 46.5773 82.9978 46.5773C82.8485 46.5773 82.7391 46.6149 82.6697 46.6902C82.5996 46.7662 82.5645 46.8744 82.5645 47.0161V48.3424C82.5645 48.4842 82.5995 48.5931 82.6704 48.6683C82.7413 48.7437 82.8499 48.782 82.998 48.782H82.9978ZM85.2367 49.1709C84.9577 49.1709 84.7459 49.0976 84.6014 48.9524C84.4562 48.8067 84.384 48.6033 84.384 48.3423V47.016C84.384 46.7544 84.457 46.5504 84.6021 46.4052C84.7473 46.2601 84.9591 46.1875 85.2367 46.1875C85.5165 46.1875 85.7282 46.2601 85.8727 46.4046C86.0172 46.5491 86.0894 46.7532 86.0894 47.0161V48.3424C86.0894 48.6047 86.0172 48.8081 85.8721 48.9532C85.7269 49.0983 85.5151 49.1709 85.2368 49.1709H85.2367ZM85.2367 48.782C85.3847 48.782 85.494 48.7437 85.5648 48.6683C85.6349 48.593 85.67 48.4842 85.67 48.3424V47.0161C85.67 46.8744 85.6356 46.7662 85.5654 46.6902C85.4954 46.6149 85.386 46.5773 85.2365 46.5773C85.0872 46.5773 84.9778 46.6149 84.9084 46.6902C84.8383 46.7662 84.8032 46.8744 84.8032 47.0161V48.3424C84.8032 48.4842 84.8382 48.5931 84.9091 48.6683C84.9799 48.7437 85.0886 48.782 85.2365 48.782H85.2367ZM87.4756 49.1709C87.1965 49.1709 86.9847 49.0976 86.8403 48.9524C86.6952 48.8067 86.6228 48.6033 86.6228 48.3423V47.016C86.6228 46.7544 86.6958 46.5504 86.8409 46.4052C86.9861 46.2601 87.1979 46.1875 87.4755 46.1875C87.7552 46.1875 87.967 46.2601 88.1114 46.4046C88.2559 46.5491 88.3281 46.7532 88.3281 47.0161V48.3424C88.3281 48.6047 88.2558 48.8081 88.1108 48.9532C87.9656 49.0983 87.7538 49.1709 87.4755 49.1709H87.4756ZM87.4756 48.782C87.6235 48.782 87.7329 48.7437 87.8038 48.6683C87.8738 48.593 87.9089 48.4842 87.9089 48.3424V47.0161C87.9089 46.8744 87.8746 46.7662 87.8045 46.6902C87.7344 46.6149 87.625 46.5773 87.4756 46.5773C87.3263 46.5773 87.2169 46.6149 87.1475 46.6902C87.0774 46.7662 87.0423 46.8744 87.0423 47.0161V48.3424C87.0423 48.4842 87.0773 48.5931 87.1482 48.6683C87.219 48.7437 87.3277 48.782 87.4757 48.782H87.4756Z" fill="white"/>
<path d="M91.212 49.1709C90.933 49.1709 90.7212 49.0976 90.5767 48.9524C90.4316 48.8067 90.3594 48.6033 90.3594 48.3423V47.016C90.3594 46.7544 90.4323 46.5504 90.5775 46.4052C90.7226 46.2601 90.9344 46.1875 91.212 46.1875C91.4919 46.1875 91.7036 46.2601 91.8481 46.4046C91.9926 46.5491 92.0648 46.7532 92.0648 47.0161V48.3424C92.0648 48.6047 91.9926 48.8081 91.8474 48.9532C91.7023 49.0983 91.4905 49.1709 91.2121 49.1709H91.212ZM91.212 48.782C91.3601 48.782 91.4694 48.7437 91.5402 48.6683C91.6102 48.593 91.6453 48.4842 91.6453 48.3424V47.0161C91.6453 46.8744 91.611 46.7662 91.5408 46.6902C91.4707 46.6149 91.3613 46.5773 91.2119 46.5773C91.0626 46.5773 90.9532 46.6149 90.8837 46.6902C90.8137 46.7662 90.7786 46.8744 90.7786 47.0161V48.3424C90.7786 48.4842 90.8136 48.5931 90.8845 48.6683C90.9553 48.7437 91.064 48.782 91.2119 48.782H91.212ZM93.451 49.1709C93.172 49.1709 92.9602 49.0976 92.8157 48.9524C92.6705 48.8067 92.5982 48.6033 92.5982 48.3423V47.016C92.5982 46.7544 92.6712 46.5504 92.8163 46.4052C92.9614 46.2601 93.1732 46.1875 93.4508 46.1875C93.7307 46.1875 93.9424 46.2601 94.0869 46.4046C94.2313 46.5491 94.3036 46.7532 94.3036 47.0161V48.3424C94.3036 48.6047 94.2313 48.8081 94.0863 48.9532C93.9411 49.0983 93.7293 49.1709 93.451 49.1709V49.1709ZM93.451 48.782C93.599 48.782 93.7083 48.7437 93.7791 48.6683C93.8492 48.593 93.8843 48.4842 93.8843 48.3424V47.0161C93.8843 46.8744 93.8499 46.7662 93.7797 46.6902C93.7097 46.6149 93.6003 46.5773 93.4508 46.5773C93.3015 46.5773 93.1921 46.6149 93.1227 46.6902C93.0526 46.7662 93.0175 46.8744 93.0175 47.0161V48.3424C93.0175 48.4842 93.0525 48.5931 93.1234 48.6683C93.1943 48.7437 93.3028 48.782 93.4508 48.782H93.451ZM95.6899 49.1709C95.4108 49.1709 95.199 49.0976 95.0546 48.9524C94.9095 48.8067 94.8373 48.6033 94.8373 48.3423V47.016C94.8373 46.7544 94.9104 46.5504 95.0554 46.4052C95.2005 46.2601 95.4123 46.1875 95.6899 46.1875C95.9696 46.1875 96.1814 46.2601 96.3258 46.4046C96.4704 46.5491 96.5425 46.7532 96.5425 47.0161V48.3424C96.5425 48.6047 96.4704 48.8081 96.3252 48.9532C96.1801 49.0983 95.9683 49.1709 95.6899 49.1709ZM95.6899 48.782C95.8378 48.782 95.9473 48.7437 96.0181 48.6683C96.0881 48.593 96.1232 48.4842 96.1232 48.3424V47.0161C96.1232 46.8744 96.0889 46.7662 96.0187 46.6902C95.9486 46.6149 95.8392 46.5773 95.6899 46.5773C95.5406 46.5773 95.4312 46.6149 95.3618 46.6902C95.2917 46.7662 95.2566 46.8744 95.2566 47.0161V48.3424C95.2566 48.4842 95.2916 48.5931 95.3625 48.6683C95.4333 48.7437 95.542 48.782 95.69 48.782H95.6899ZM97.9287 49.1709C97.6498 49.1709 97.438 49.0976 97.2934 48.9524C97.1483 48.8067 97.0761 48.6033 97.0761 48.3423V47.016C97.0761 46.7544 97.149 46.5504 97.2942 46.4052C97.4393 46.2601 97.6511 46.1875 97.9287 46.1875C98.2086 46.1875 98.4203 46.2601 98.5648 46.4046C98.7093 46.5491 98.7815 46.7532 98.7815 47.0161V48.3424C98.7815 48.6047 98.7092 48.8081 98.5642 48.9532C98.419 49.0983 98.2072 49.1709 97.9289 49.1709H97.9287ZM97.9287 48.782C98.0768 48.782 98.1861 48.7437 98.2569 48.6683C98.3269 48.593 98.362 48.4842 98.362 48.3424V47.0161C98.362 46.8744 98.3277 46.7662 98.2575 46.6902C98.1875 46.6149 98.078 46.5773 97.9286 46.5773C97.7793 46.5773 97.6699 46.6149 97.6005 46.6902C97.5303 46.7662 97.4953 46.8744 97.4953 47.0161V48.3424C97.4953 48.4842 97.5303 48.5931 97.6012 48.6683C97.672 48.7437 97.7807 48.782 97.9286 48.782H97.9287Z" fill="white"/>
<path fill-rule="evenodd" clip-rule="evenodd" d="M91.0362 36.2814C92.0365 36.2814 92.9203 36.7793 93.4538 37.5408C93.8452 37.2024 94.3555 36.9978 94.9135 36.9978C96.1471 36.9978 97.1471 37.9978 97.1471 39.2315C97.1471 40.4652 96.1471 41.4651 94.9135 41.4651C94.3554 41.4651 93.8452 41.2605 93.4538 40.9222C92.9203 41.6835 92.0365 42.1816 91.0362 42.1816C89.4068 42.1816 88.0859 40.8608 88.0859 39.2313C88.0859 37.602 89.4067 36.2812 91.0362 36.2812V36.2814Z" fill="white"/>
<path d="M59.75 28.2546H61.9638V28.7515H60.3479V29.4382H61.1477C61.3686 29.4382 61.5517 29.4651 61.6971 29.519C61.8426 29.5729 61.9665 29.6725 62.0688 29.8179C62.1725 29.9634 62.2243 30.1337 62.2243 30.329C62.2243 30.5296 62.1725 30.7013 62.0688 30.844C61.9651 30.9868 61.8466 31.0844 61.7133 31.1369C61.5813 31.1894 61.3928 31.2157 61.1477 31.2157H59.75V28.2546ZM60.3479 30.7188H60.9296C61.1154 30.7188 61.246 30.7101 61.3215 30.6925C61.3969 30.6737 61.4622 30.632 61.5174 30.5673C61.5739 30.5027 61.6022 30.4232 61.6022 30.329C61.6022 30.1916 61.5531 30.092 61.4548 30.03C61.3578 29.9667 61.1915 29.9351 60.9559 29.9351H60.3479V30.7188Z" fill="white"/>
<path d="M65.2238 31.2157H64.5734L64.3149 30.5431H63.1313L62.8868 31.2157H62.2526L63.406 28.2546H64.0382L65.2238 31.2157ZM64.123 30.0442L63.715 28.9454L63.3151 30.0442H64.123Z" fill="white"/>
<path d="M65.545 31.2157V28.2546H66.1429V29.42H67.3144V28.2546H67.9123V31.2157H67.3144V29.921H66.1429V31.2157H65.545Z" fill="white"/>
<path d="M68.5425 28.2546H69.1403V29.515C69.2737 29.5015 69.3639 29.4672 69.411 29.412C69.4581 29.3567 69.5308 29.2032 69.6291 28.9514C69.753 28.6309 69.8776 28.4316 70.0028 28.3535C70.1267 28.2754 70.3267 28.2364 70.6027 28.2364C70.6162 28.2364 70.6451 28.2357 70.6896 28.2344V28.6767L70.6047 28.6747C70.4822 28.6747 70.3927 28.6902 70.3361 28.7212C70.2795 28.7508 70.2338 28.7966 70.1987 28.8585C70.1637 28.9205 70.1119 29.0477 70.0432 29.2403C70.0069 29.3426 69.9671 29.4281 69.924 29.4968C69.8823 29.5655 69.8076 29.6301 69.6998 29.6907C69.8332 29.7284 69.9429 29.8045 70.0291 29.9189C70.1166 30.0334 70.2122 30.195 70.3159 30.4037L70.7199 31.2157H70.017L69.6635 30.4502C69.6581 30.4394 69.6467 30.4185 69.6291 30.3875C69.6224 30.3768 69.5975 30.3303 69.5544 30.2482C69.4777 30.1027 69.4144 30.0119 69.3645 29.9755C69.3161 29.9391 69.2413 29.9203 69.1403 29.9189V31.2157H68.5425V28.2546Z" fill="white"/>
<path fill-rule="evenodd" clip-rule="evenodd" d="M36.5033 54.3507C37.1772 53.1833 37.8512 52.016 38.5252 50.8486C41.7508 52.8069 47.3599 53.4124 52.1787 49.706C46.1127 50.2388 44.0946 48.8775 40.8343 46.8491L42.9645 43.1596L33.1994 44.9825L36.5032 54.3508L36.5033 54.3507Z" fill="#007FC6"/>
<path d="M119.735 22.6906H113.57V37.6746H116.353V33.3506H119.735C123.674 33.3506 126.114 31.3171 126.114 28.0206C126.114 24.7028 123.674 22.6906 119.735 22.6906ZM119.607 30.996H116.353V25.0452H119.607C122.047 25.0452 123.31 26.1369 123.31 28.0206C123.31 29.9043 122.047 30.996 119.607 30.996Z" fill="white"/>
<path d="M131.716 35.32L135.719 31.5098C137.795 29.5618 138.202 28.2347 138.202 26.7791C138.202 24.1248 136.104 22.4766 132.85 22.4766C130.389 22.4766 128.312 23.397 127.157 24.9596L129.104 26.458C129.939 25.3877 131.159 24.8954 132.615 24.8954C134.456 24.8954 135.398 25.6874 135.398 27.0574C135.398 27.8922 135.141 28.7698 133.685 30.1612L127.735 35.8123V37.6746H138.78V35.32H131.716Z" fill="white"/>
<path d="M147.621 22.6906H141.456V37.6746H144.239V33.3506H147.621C151.56 33.3506 154 31.3171 154 28.0206C154 24.7028 151.56 22.6906 147.621 22.6906ZM147.493 30.996H144.239V25.0452H147.493C149.933 25.0452 151.196 26.1369 151.196 28.0206C151.196 29.9043 149.933 30.996 147.493 30.996Z" fill="white"/>
</svg>
