<svg width="182" height="44" viewBox="0 0 182 44" fill="none" xmlns="http://www.w3.org/2000/svg">
<path d="M166.828 0.835227L133.171 9.85346C131.453 10.3139 130.429 12.0865 130.89 13.8048L136.902 36.2425C137.362 37.9608 139.135 38.9842 140.853 38.5238L174.51 29.5056C176.228 29.0452 177.251 27.2725 176.791 25.5542L170.779 3.11655C170.318 1.39827 168.546 0.374817 166.828 0.835227Z" fill="#FF4F19"/>
<path d="M144.932 28.7511L141.816 29.5862C141.128 29.7706 140.42 29.3621 140.235 28.6736L140.068 28.0503C139.884 27.3618 140.292 26.6542 140.981 26.4697L144.097 25.6346C144.786 25.4501 145.494 25.8587 145.678 26.5472L145.845 27.1705C146.03 27.859 145.621 28.5666 144.932 28.7511Z" fill="#B8BAC0"/>
<path d="M153.026 26.5812L149.91 27.4162C149.221 27.6007 148.514 27.1922 148.329 26.5037L148.162 25.8804C147.978 25.1919 148.386 24.4843 149.075 24.2998L152.191 23.4647C152.88 23.2802 153.587 23.6888 153.772 24.3773L153.939 25.0006C154.123 25.6891 153.715 26.3967 153.026 26.5812Z" fill="#B8BAC0"/>
<path d="M161.128 24.4093L158.011 25.2444C157.323 25.4289 156.615 25.0203 156.431 24.3318L156.264 23.7085C156.079 23.02 156.488 22.3124 157.176 22.1279L160.293 21.2928C160.981 21.1083 161.689 21.5169 161.873 22.2054L162.04 22.8287C162.225 23.5172 161.816 24.2248 161.128 24.4093Z" fill="#B8BAC0"/>
<path d="M169.237 22.2384L166.121 23.0735C165.432 23.258 164.725 22.8494 164.54 22.1609L164.373 21.5376C164.189 20.8491 164.597 20.1415 165.286 19.957L168.402 19.1219C169.091 18.9375 169.798 19.346 169.983 20.0345L170.15 20.6578C170.334 21.3463 169.926 22.0539 169.237 22.2384Z" fill="#B8BAC0"/>
<path d="M154.673 30.1515L142.207 33.4917C141.863 33.584 141.509 33.3796 141.417 33.0354C141.325 32.6912 141.529 32.3374 141.873 32.2451L154.339 28.9049C154.684 28.8126 155.037 29.0169 155.129 29.3612C155.222 29.7054 155.018 30.0591 154.673 30.1515Z" fill="#8A8895"/>
<path d="M162.754 27.9827L157.145 29.4858C156.8 29.5781 156.447 29.3738 156.355 29.0295C156.262 28.6853 156.466 28.3316 156.811 28.2392L162.42 26.7361C162.765 26.6438 163.119 26.8482 163.211 27.1924C163.303 27.5366 163.099 27.8904 162.754 27.9827Z" fill="#8A8895"/>
<path d="M167.529 3.81283L167.893 5.1728L168.622 7.89274L168.986 9.25272L135.075 18.3393L133.617 12.8994L167.529 3.81283Z" fill="#151515"/>
<path d="M178.093 13.5303H143.25C141.471 13.5303 140.023 14.9777 140.023 16.7565V39.9857C140.023 41.7646 141.471 43.212 143.25 43.212H178.093C179.872 43.212 181.32 41.7646 181.32 39.9857V16.7565C181.32 14.9777 179.872 13.5303 178.093 13.5303Z" fill="#1570C5"/>
<mask id="mask0_17960_71215" style="mask-type:alpha" maskUnits="userSpaceOnUse" x="140" y="13" width="42" height="31">
<path d="M178.093 13.5303H143.25C141.471 13.5303 140.023 14.9777 140.023 16.7565V39.9857C140.023 41.7646 141.471 43.212 143.25 43.212H178.093C179.872 43.212 181.32 41.7646 181.32 39.9857V16.7565C181.32 14.9777 179.872 13.5303 178.093 13.5303Z" fill="#1570C5"/>
</mask>
<g mask="url(#mask0_17960_71215)">
<circle cx="150.347" cy="48.0621" r="30.9722" fill="#2B87DE"/>
</g>
<path d="M154.221 26.4377H146.478C145.765 26.4377 145.188 25.86 145.188 25.1472V19.9849C145.188 19.2721 145.765 18.6943 146.478 18.6943H154.221C154.934 18.6943 155.512 19.2721 155.512 19.9849V25.1472C155.512 25.86 154.934 26.4377 154.221 26.4377Z" fill="#FFD100"/>
<path d="M149.704 34.825H146.478C145.765 34.825 145.188 34.2473 145.188 33.5345V32.8892C145.188 32.1764 145.765 31.5986 146.478 31.5986H149.704C150.417 31.5986 150.995 32.1764 150.995 32.8892V33.5345C150.995 34.2473 150.417 34.825 149.704 34.825Z" fill="white"/>
<path d="M158.087 34.825H154.861C154.148 34.825 153.57 34.2473 153.57 33.5345V32.8892C153.57 32.1764 154.148 31.5986 154.861 31.5986H158.087C158.8 31.5986 159.378 32.1764 159.378 32.8892V33.5345C159.378 34.2473 158.8 34.825 158.087 34.825Z" fill="white"/>
<path d="M166.478 34.825H163.252C162.539 34.825 161.961 34.2473 161.961 33.5345V32.8892C161.961 32.1764 162.539 31.5986 163.252 31.5986H166.478C167.191 31.5986 167.768 32.1764 167.768 32.8892V33.5345C167.768 34.2473 167.191 34.825 166.478 34.825Z" fill="white"/>
<path d="M174.876 34.825H171.65C170.937 34.825 170.359 34.2473 170.359 33.5345V32.8892C170.359 32.1764 170.937 31.5986 171.65 31.5986H174.876C175.589 31.5986 176.167 32.1764 176.167 32.8892V33.5345C176.167 34.2473 175.589 34.825 174.876 34.825Z" fill="white"/>
<path d="M158.738 38.6949H145.833C145.476 38.6949 145.188 38.4059 145.188 38.0496C145.188 37.6932 145.476 37.4043 145.833 37.4043H158.738C159.095 37.4043 159.384 37.6932 159.384 38.0496C159.384 38.4059 159.095 38.6949 158.738 38.6949Z" fill="#8A8895"/>
<path d="M167.14 38.6949H161.333C160.976 38.6949 160.688 38.4059 160.688 38.0496C160.688 37.6932 160.976 37.4043 161.333 37.4043H167.14C167.497 37.4043 167.786 37.6932 167.786 38.0496C167.786 38.4059 167.497 38.6949 167.14 38.6949Z" fill="#8A8895"/>
<path d="M155.517 23.8566H148.218V21.3645H155.517V20.9862H148.218V18.6943H147.773V26.4377H148.218V24.2126H155.517V23.8566Z" fill="#E78700"/>
<path d="M172.301 26.4377C174.44 26.4377 176.173 24.7043 176.173 22.566C176.173 20.4278 174.44 18.6943 172.301 18.6943C170.163 18.6943 168.43 20.4278 168.43 22.566C168.43 24.7043 170.163 26.4377 172.301 26.4377Z" fill="white"/>
<path d="M37.125 13.5342H42.5606C44.0228 13.5342 45.191 13.9792 46.0652 14.8692C46.9393 15.7593 47.3764 16.991 47.3764 18.5645C47.3764 20.1221 46.9155 21.3459 45.9936 22.2359C45.0877 23.126 43.8798 23.571 42.3699 23.571H38.913V29.7934H37.125V13.5342ZM42.3222 22.0929C43.3871 22.0929 44.1977 21.7989 44.7539 21.2108C45.3102 20.6068 45.5884 19.7247 45.5884 18.5645C45.5884 17.4043 45.3102 16.5222 44.7539 15.9182C44.1977 15.3143 43.3871 15.0123 42.3222 15.0123H38.913V22.0929H42.3222Z" fill="#2195F2"/>
<path d="M50.3602 29.7934V18.636H51.9813V29.7934H50.3602ZM51.1707 16.4666C50.8052 16.4666 50.4953 16.3394 50.241 16.0851C50.0026 15.8308 49.8834 15.5209 49.8834 15.1553C49.8834 14.8057 50.0026 14.5116 50.241 14.2732C50.4953 14.0189 50.8052 13.8918 51.1707 13.8918C51.5204 13.8918 51.8224 14.0189 52.0767 14.2732C52.331 14.5116 52.4581 14.8136 52.4581 15.1792C52.4581 15.5288 52.331 15.8308 52.0767 16.0851C51.8224 16.3394 51.5204 16.4666 51.1707 16.4666Z" fill="#2195F2"/>
<path d="M66.2278 18.636V29.7934H64.6067V28.1484C64.1458 28.7841 63.5816 29.2848 62.914 29.6503C62.2465 30 61.5154 30.1748 60.7207 30.1748C59.6558 30.1748 58.7022 29.9205 57.8598 29.4119C57.0175 28.9033 56.3579 28.196 55.8811 27.2901C55.4043 26.3842 55.1659 25.3511 55.1659 24.1909C55.1659 23.0465 55.3963 22.0293 55.8572 21.1393C56.3341 20.2333 56.9857 19.5261 57.8122 19.0175C58.6545 18.5089 59.6081 18.2546 60.673 18.2546C61.4836 18.2546 62.2226 18.4374 62.8902 18.8029C63.5736 19.1526 64.1458 19.6532 64.6067 20.3049V18.636H66.2278ZM60.673 28.6967C61.4359 28.6967 62.1114 28.506 62.6995 28.1245C63.3034 27.7431 63.7723 27.2106 64.106 26.5272C64.4398 25.8438 64.6067 25.0729 64.6067 24.2147C64.6067 23.3564 64.4398 22.5856 64.106 21.9022C63.7723 21.2187 63.3034 20.6863 62.6995 20.3049C62.1114 19.9234 61.4359 19.7327 60.673 19.7327C59.926 19.7327 59.2585 19.9234 58.6704 20.3049C58.0824 20.6863 57.6214 21.2187 57.2877 21.9022C56.9539 22.5697 56.787 23.3326 56.787 24.1909C56.787 25.065 56.9539 25.8438 57.2877 26.5272C57.6214 27.2106 58.0824 27.7431 58.6704 28.1245C59.2585 28.506 59.926 28.6967 60.673 28.6967Z" fill="#2195F2"/>
<path d="M73.1546 30.1748C72.0738 30.1748 71.1202 29.9443 70.2938 29.4834C69.4832 29.0225 68.8633 28.3709 68.4342 27.5285L69.8885 26.8133C70.4765 28.0689 71.6288 28.6967 73.3453 28.6967C74.1718 28.6967 74.8552 28.5457 75.3956 28.2437C75.936 27.9417 76.2062 27.4729 76.2062 26.8371C76.2062 26.1855 75.9837 25.7007 75.5386 25.3829C75.1095 25.065 74.3466 24.8584 73.25 24.763C71.7242 24.6359 70.6275 24.2942 69.96 23.7379C69.3083 23.1816 68.9825 22.4426 68.9825 21.5207C68.9825 20.4876 69.356 19.685 70.103 19.1128C70.85 18.5407 71.8752 18.2546 73.1784 18.2546C75.3877 18.2546 76.8896 19.1287 77.6843 20.877L76.23 21.5922C75.9598 20.9565 75.5625 20.4876 75.038 20.1857C74.5294 19.8837 73.8698 19.7327 73.0592 19.7327C72.2328 19.7327 71.597 19.8837 71.152 20.1857C70.7229 20.4876 70.5083 20.9168 70.5083 21.473C70.5083 21.9975 70.7388 22.4267 71.1997 22.7604C71.6765 23.0783 72.4871 23.2849 73.6314 23.3803C75.0459 23.5074 76.0949 23.8571 76.7784 24.4293C77.4777 24.9855 77.8273 25.7246 77.8273 26.6464C77.8273 27.3934 77.6128 28.0371 77.1836 28.5775C76.7545 29.102 76.1823 29.4993 75.4671 29.7695C74.7519 30.0397 73.9811 30.1748 73.1546 30.1748Z" fill="#2195F2"/>
<path d="M80.8757 29.7934V20.1141H78.9685V18.636H80.8757V14.9408H82.4969V18.636H85.0717V20.1141H82.4969V29.7934H80.8757Z" fill="#2195F2"/>
<path d="M92.3285 18.2546C92.7099 18.2546 93.0755 18.3102 93.4251 18.4215V19.8996C93.0914 19.7406 92.7258 19.6612 92.3285 19.6612C91.645 19.6612 91.0093 19.8519 90.4212 20.2333C89.8332 20.6148 89.3563 21.1711 88.9908 21.9022C88.6411 22.6174 88.4663 23.4677 88.4663 24.4531V29.7934H86.8452V18.636H88.4663V20.877C88.8954 20.0506 89.4358 19.4069 90.0875 18.946C90.755 18.485 91.502 18.2546 92.3285 18.2546Z" fill="#2195F2"/>
<path d="M95.806 29.7934V18.636H97.4271V29.7934H95.806ZM96.6166 16.4666C96.251 16.4666 95.9411 16.3394 95.6868 16.0851C95.4484 15.8308 95.3292 15.5209 95.3292 15.1553C95.3292 14.8057 95.4484 14.5116 95.6868 14.2732C95.9411 14.0189 96.251 13.8918 96.6166 13.8918C96.9662 13.8918 97.2682 14.0189 97.5225 14.2732C97.7768 14.5116 97.904 14.8136 97.904 15.1792C97.904 15.5288 97.7768 15.8308 97.5225 16.0851C97.2682 16.3394 96.9662 16.4666 96.6166 16.4666Z" fill="#2195F2"/>
<path d="M110.053 29.7934H108.193L105.284 25.1445L102.376 29.7934H100.564L104.14 24.0717L100.779 18.636H102.614L105.308 23.0227L108.145 18.636H109.933L106.429 24.0478L110.053 29.7934Z" fill="#2195F2"/>
<path d="M21.8971 26.0217C24.3212 26.0217 26.2863 24.0701 26.2863 21.6627C26.2863 19.2553 24.3212 17.3037 21.8971 17.3037C19.4729 17.3037 17.5078 19.2553 17.5078 21.6627C17.5078 24.0701 19.4729 26.0217 21.8971 26.0217Z" fill="#FFD833"/>
<path fill-rule="evenodd" clip-rule="evenodd" d="M24.8821 16.8805C23.9897 16.3288 22.9597 16.036 21.9085 16.0353C21.1381 16.0348 20.3757 16.1913 19.6686 16.4951C12.8465 5.3032 22.3919 0.00390625 22.3919 0.00390625C22.3919 0.00390625 32.1483 5.42321 24.8821 16.8805ZM18.4193 17.2271C16.9577 14.8246 16.0965 12.5071 15.8355 10.2747C12.5079 7.85405 8.60836 7.50922 6.66456 7.50922C6.25368 7.50571 5.8429 7.52376 5.43394 7.56331C5.43394 7.56331 3.66546 18.167 16.5163 19.9486C16.8621 18.8728 17.525 17.9247 18.4193 17.2271ZM16.2431 21.3604C16.2346 21.4601 16.2346 21.5599 16.2346 21.6613C16.2343 22.5556 16.4491 23.4371 16.861 24.2323C13.787 26.1323 11.1436 26.8287 8.93092 26.8287C2.89357 26.8287 0 21.6816 0 21.6816C0 21.6816 3.03825 18.6355 7.56243 17.6416C9.66963 19.6041 12.5751 20.8533 16.2431 21.3604ZM17.6876 25.416C14.8145 27.2027 12.0349 28.1561 9.40008 28.2575C6.46055 32.289 6.48438 37.0626 6.48438 37.0626C7.33934 37.2699 8.2171 37.3698 9.0971 37.3601C12.4622 37.3601 18.1182 35.9504 20.2203 27.0337C19.245 26.7304 18.3701 26.1715 17.6876 25.416ZM21.9033 27.2907H21.6429C20.8804 30.5802 19.6004 33.207 17.8047 35.1255C18.6557 39.9448 21.9833 43.2224 21.9833 43.2224C21.9833 43.2224 31.5934 37.869 24.6284 26.5977C23.7935 27.0534 22.856 27.2918 21.9033 27.2907Z" fill="url(#paint0_radial_17960_71215)"/>
<defs>
<radialGradient id="paint0_radial_17960_71215" cx="0" cy="0" r="1" gradientUnits="userSpaceOnUse" gradientTransform="translate(22.1034 21.6131) rotate(-180) scale(13.268 13.2648)">
<stop stop-color="#FFDE51"/>
<stop offset="1" stop-color="#FE4080"/>
</radialGradient>
</defs>
</svg>
