<svg width="156" height="47" viewBox="0 0 156 47" fill="none" xmlns="http://www.w3.org/2000/svg">
<path d="M124.397 17.7761C122.753 17.7761 121.448 17.2825 120.481 16.2953C119.515 15.3033 119.031 13.9104 119.031 12.1168C119.031 10.3868 119.515 9.00862 120.481 7.98233C121.453 6.95114 122.761 6.43555 124.405 6.43555C124.841 6.43555 125.234 6.45998 125.582 6.50885C125.931 6.55773 126.264 6.62615 126.583 6.71411C126.834 6.78742 127.106 6.88761 127.4 7.01467C127.695 7.14174 127.933 7.2517 128.114 7.34455V9.94695H127.835C127.702 9.82966 127.535 9.69038 127.334 9.5291C127.133 9.36294 126.905 9.20167 126.649 9.04528C126.394 8.88889 126.112 8.75694 125.803 8.64942C125.499 8.53702 125.18 8.48081 124.846 8.48081C124.449 8.48081 124.083 8.54435 123.749 8.67141C123.421 8.79359 123.107 9.00862 122.807 9.31651C122.532 9.59508 122.307 9.97139 122.13 10.4454C121.958 10.9195 121.872 11.4791 121.872 12.1242C121.872 12.8035 121.963 13.3753 122.145 13.8396C122.326 14.2989 122.564 14.6704 122.859 14.9538C123.143 15.2275 123.46 15.4254 123.808 15.5476C124.162 15.6698 124.512 15.7309 124.861 15.7309C125.224 15.7309 125.57 15.6722 125.899 15.5549C126.227 15.4328 126.505 15.2984 126.73 15.1518C126.976 15.0003 127.192 14.8463 127.378 14.6899C127.565 14.5335 127.727 14.3942 127.864 14.2721H128.114V16.8378C127.913 16.9307 127.68 17.0382 127.415 17.1604C127.15 17.2777 126.878 17.3778 126.598 17.4609C126.254 17.5636 125.933 17.6418 125.634 17.6955C125.334 17.7493 124.922 17.7761 124.397 17.7761Z" fill="white"/>
<path d="M138.537 14.0741C138.537 14.6068 138.434 15.098 138.228 15.5476C138.027 15.9923 137.749 16.3564 137.396 16.6399C136.974 16.9771 136.518 17.2166 136.027 17.3583C135.541 17.4951 134.947 17.5636 134.246 17.5636H129.741V6.64814H137.705V8.73006H132.479V10.746H134.29C134.947 10.746 135.536 10.7949 136.056 10.8926C136.577 10.9855 137.043 11.1932 137.455 11.5157C137.833 11.809 138.108 12.1779 138.279 12.6227C138.451 13.0625 138.537 13.5463 138.537 14.0741ZM135.696 14.1548C135.696 13.974 135.676 13.8029 135.637 13.6416C135.598 13.4804 135.512 13.3313 135.379 13.1945C135.247 13.0625 135.065 12.9574 134.835 12.8792C134.604 12.801 134.285 12.7619 133.878 12.7619H132.479V15.5403H133.878C134.442 15.5403 134.886 15.4205 135.21 15.1811C135.534 14.9416 135.696 14.5995 135.696 14.1548Z" fill="white"/>
<path d="M149.342 17.5636H146.589V8.73006H142.843V17.5636H140.09V6.64814H149.342V17.5636Z" fill="white"/>
<path d="M122.693 26.5254H121.592V22.992H120.094V26.5254H118.992V22.1593H122.693V26.5254Z" fill="white"/>
<path d="M123.603 26.5254V22.1593H126.568V22.992H124.698V23.7574H126.421V24.5901H124.698V25.6927H126.568V26.5254H123.603Z" fill="white"/>
<path d="M130.687 23.5374C130.687 23.7407 130.655 23.9343 130.59 24.118C130.525 24.3018 130.432 24.4552 130.31 24.5784C130.236 24.6546 130.153 24.725 130.063 24.7895C129.975 24.854 129.876 24.9088 129.768 24.9537C129.66 24.9987 129.543 25.0339 129.415 25.0593C129.29 25.0847 129.148 25.0974 128.991 25.0974H128.414V26.5254H127.313V22.1593H129.015C129.268 22.1593 129.486 22.1827 129.668 22.2296C129.853 22.2746 130.02 22.3469 130.169 22.4466C130.334 22.5561 130.461 22.7027 130.552 22.8865C130.642 23.0683 130.687 23.2853 130.687 23.5374ZM129.556 23.5638C129.556 23.4407 129.527 23.3351 129.468 23.2471C129.409 23.1572 129.339 23.0956 129.256 23.0624C129.152 23.0174 129.052 22.992 128.956 22.9862C128.862 22.9783 128.733 22.9744 128.57 22.9744H128.414V24.2822H128.491C128.595 24.2822 128.693 24.2813 128.785 24.2793C128.877 24.2773 128.958 24.2705 129.026 24.2588C129.085 24.249 129.147 24.2304 129.212 24.2031C129.279 24.1737 129.33 24.1415 129.365 24.1063C129.44 24.034 129.49 23.9587 129.515 23.8805C129.543 23.8023 129.556 23.6968 129.556 23.5638Z" fill="white"/>
<path d="M131.276 26.5254V22.1593H134.241V22.992H132.371V23.7574H134.094V24.5901H132.371V25.6927H134.241V26.5254H131.276Z" fill="white"/>
<path d="M138.492 25.1883C138.492 25.4053 138.451 25.5959 138.369 25.7601C138.286 25.9243 138.175 26.0602 138.036 26.1677C137.871 26.2967 137.689 26.3886 137.491 26.4433C137.295 26.4981 137.045 26.5254 136.74 26.5254H134.986V22.1593H136.534C136.856 22.1593 137.1 22.172 137.264 22.1974C137.431 22.2208 137.587 22.2717 137.733 22.3499C137.89 22.4339 138.006 22.5463 138.083 22.6871C138.162 22.8278 138.201 22.9901 138.201 23.1738C138.201 23.3869 138.147 23.5765 138.039 23.7427C137.933 23.9089 137.786 24.031 137.597 24.1092V24.1327C137.868 24.1894 138.085 24.3057 138.248 24.4816C138.411 24.6556 138.492 24.8912 138.492 25.1883ZM137.082 23.3938C137.082 23.3234 137.063 23.251 137.026 23.1768C136.991 23.1025 136.935 23.0487 136.858 23.0155C136.786 22.9842 136.699 22.9676 136.599 22.9656C136.501 22.9617 136.354 22.9598 136.157 22.9598H136.081V23.8834H136.219C136.408 23.8834 136.539 23.8815 136.614 23.8776C136.69 23.8737 136.769 23.8531 136.849 23.816C136.938 23.7749 136.999 23.7183 137.032 23.6459C137.065 23.5736 137.082 23.4895 137.082 23.3938ZM137.359 25.1678C137.359 25.0329 137.331 24.9273 137.276 24.8511C137.221 24.7749 137.139 24.7172 137.029 24.6781C136.962 24.6527 136.87 24.639 136.752 24.637C136.636 24.6331 136.48 24.6312 136.284 24.6312H136.081V25.7249H136.14C136.426 25.7249 136.625 25.723 136.735 25.7191C136.844 25.7151 136.956 25.6888 137.07 25.6399C137.17 25.5969 137.243 25.5343 137.288 25.4522C137.335 25.3682 137.359 25.2733 137.359 25.1678Z" fill="white"/>
<path d="M143.118 24.3438C143.118 25.0495 142.928 25.6047 142.549 26.0093C142.171 26.414 141.651 26.6163 140.992 26.6163C140.33 26.6163 139.811 26.412 139.434 26.0035C139.058 25.593 138.869 25.0397 138.869 24.3438C138.869 23.642 139.058 23.0878 139.434 22.6812C139.811 22.2726 140.33 22.0684 140.992 22.0684C141.651 22.0684 142.171 22.2717 142.549 22.6783C142.928 23.0829 143.118 23.6381 143.118 24.3438ZM141.981 24.3409C141.981 24.0809 141.954 23.86 141.899 23.6782C141.846 23.4944 141.774 23.3439 141.684 23.2266C141.59 23.1074 141.483 23.0223 141.363 22.9715C141.245 22.9187 141.122 22.8923 140.995 22.8923C140.859 22.8923 140.737 22.9168 140.627 22.9656C140.517 23.0126 140.411 23.0976 140.309 23.2207C140.219 23.3341 140.145 23.4847 140.088 23.6723C140.033 23.86 140.006 24.0838 140.006 24.3438C140.006 24.6116 140.032 24.8345 140.085 25.0124C140.138 25.1883 140.211 25.3359 140.303 25.4551C140.397 25.5763 140.504 25.6633 140.624 25.7161C140.744 25.7669 140.867 25.7924 140.995 25.7924C141.124 25.7924 141.25 25.765 141.372 25.7103C141.493 25.6536 141.598 25.5666 141.687 25.4493C141.781 25.3222 141.854 25.1746 141.905 25.0065C141.956 24.8364 141.981 24.6146 141.981 24.3409Z" fill="white"/>
<path d="M147.823 27.5283H146.813V26.5108H144.363V27.5283H143.353V25.6897H143.648C143.854 25.2636 144.017 24.7455 144.136 24.1356C144.256 23.5237 144.316 22.865 144.316 22.1593H147.407V25.6897H147.823V27.5283ZM146.306 25.6897V22.992H145.346C145.309 23.5198 145.236 24.0154 145.126 24.4787C145.016 24.94 144.877 25.3437 144.711 25.6897H146.306Z" fill="white"/>
<path d="M122.693 33.2525H121.592V29.7191H120.094V33.2525H118.992V28.8864H122.693V33.2525Z" fill="white"/>
<path d="M127.596 31.0709C127.596 31.7766 127.406 32.3318 127.027 32.7364C126.649 33.1411 126.129 33.3434 125.47 33.3434C124.808 33.3434 124.289 33.1391 123.912 32.7306C123.535 32.3201 123.347 31.7668 123.347 31.0709C123.347 30.3691 123.535 29.8149 123.912 29.4083C124.289 28.9997 124.808 28.7955 125.47 28.7955C126.129 28.7955 126.649 28.9988 127.027 29.4054C127.406 29.81 127.596 30.3652 127.596 31.0709ZM126.459 31.068C126.459 30.808 126.432 30.5871 126.377 30.4053C126.324 30.2215 126.252 30.071 126.162 29.9537C126.068 29.8345 125.961 29.7494 125.841 29.6986C125.723 29.6458 125.6 29.6194 125.473 29.6194C125.337 29.6194 125.215 29.6439 125.105 29.6927C124.995 29.7397 124.889 29.8247 124.787 29.9478C124.696 30.0612 124.623 30.2118 124.566 30.3994C124.511 30.5871 124.484 30.8109 124.484 31.0709C124.484 31.3387 124.51 31.5616 124.563 31.7395C124.616 31.9154 124.689 32.063 124.781 32.1822C124.875 32.3034 124.982 32.3904 125.102 32.4432C125.222 32.494 125.345 32.5195 125.473 32.5195C125.602 32.5195 125.728 32.4921 125.85 32.4374C125.971 32.3807 126.076 32.2937 126.165 32.1764C126.259 32.0493 126.332 31.9017 126.383 31.7336C126.434 31.5635 126.459 31.3417 126.459 31.068Z" fill="white"/>
<path d="M133.717 33.2525H132.616V31.3172H131.117V33.2525H130.016V28.8864H131.117V30.4845H132.616V28.8864H133.717V33.2525Z" fill="white"/>
<path d="M138.619 31.0709C138.619 31.7766 138.429 32.3318 138.051 32.7364C137.672 33.1411 137.153 33.3434 136.493 33.3434C135.832 33.3434 135.312 33.1391 134.936 32.7306C134.559 32.3201 134.37 31.7668 134.37 31.0709C134.37 30.3691 134.559 29.8149 134.936 29.4083C135.312 28.9997 135.832 28.7955 136.493 28.7955C137.153 28.7955 137.672 28.9988 138.051 29.4054C138.429 29.81 138.619 30.3652 138.619 31.0709ZM137.482 31.068C137.482 30.808 137.455 30.5871 137.4 30.4053C137.347 30.2215 137.275 30.071 137.185 29.9537C137.091 29.8345 136.984 29.7494 136.864 29.6986C136.746 29.6458 136.624 29.6194 136.496 29.6194C136.361 29.6194 136.238 29.6439 136.128 29.6927C136.018 29.7397 135.912 29.8247 135.81 29.9478C135.72 30.0612 135.646 30.2118 135.589 30.3994C135.534 30.5871 135.507 30.8109 135.507 31.0709C135.507 31.3387 135.533 31.5616 135.586 31.7395C135.639 31.9154 135.712 32.063 135.804 32.1822C135.898 32.3034 136.005 32.3904 136.125 32.4432C136.245 32.494 136.368 32.5195 136.496 32.5195C136.626 32.5195 136.751 32.4921 136.873 32.4374C136.995 32.3807 137.1 32.2937 137.188 32.1764C137.282 32.0493 137.355 31.9017 137.406 31.7336C137.457 31.5635 137.482 31.3417 137.482 31.068Z" fill="white"/>
<path d="M143.751 33.2525H142.655V30.3584L141.858 32.2262H141.107L140.309 30.3584V33.2525H139.272V28.8864H140.541L141.513 31.0416L142.482 28.8864H143.751V33.2525Z" fill="white"/>
<path d="M144.66 33.2525V28.8864H147.625V29.7191H145.756V30.4845H147.478V31.3172H145.756V32.4198H147.625V33.2525H144.66Z" fill="white"/>
<path d="M151.744 30.2645C151.744 30.4678 151.712 30.6614 151.647 30.8451C151.582 31.0289 151.489 31.1823 151.367 31.3055C151.293 31.3817 151.21 31.4521 151.12 31.5166C151.032 31.5811 150.934 31.6359 150.826 31.6808C150.718 31.7258 150.6 31.761 150.472 31.7864C150.347 31.8118 150.205 31.8245 150.048 31.8245H149.471V33.2525H148.37V28.8864H150.072C150.325 28.8864 150.543 28.9098 150.726 28.9567C150.91 29.0017 151.077 29.074 151.226 29.1737C151.391 29.2832 151.519 29.4298 151.609 29.6136C151.699 29.7954 151.744 30.0124 151.744 30.2645ZM150.614 30.2909C150.614 30.1678 150.584 30.0622 150.525 29.9742C150.467 29.8843 150.396 29.8227 150.313 29.7895C150.209 29.7445 150.109 29.7191 150.013 29.7133C149.919 29.7054 149.79 29.7015 149.627 29.7015H149.471V31.0093H149.548C149.652 31.0093 149.75 31.0084 149.842 31.0064C149.935 31.0044 150.015 30.9976 150.084 30.9859C150.143 30.9761 150.204 30.9575 150.269 30.9302C150.336 30.9008 150.387 30.8686 150.422 30.8334C150.497 30.7611 150.547 30.6858 150.573 30.6076C150.6 30.5294 150.614 30.4239 150.614 30.2909Z" fill="white"/>
<path d="M155.955 28.8864L154.491 32.3787C154.405 32.582 154.308 32.7423 154.2 32.8596C154.094 32.9769 153.982 33.0658 153.864 33.1264C153.746 33.187 153.629 33.2281 153.511 33.2496C153.393 33.2691 153.269 33.2789 153.14 33.2789C153.004 33.2789 152.846 33.276 152.666 33.2701C152.487 33.2643 152.368 33.2584 152.307 33.2525V32.3259H152.374C152.392 32.3298 152.42 32.3347 152.457 32.3406C152.494 32.3465 152.541 32.3523 152.598 32.3582C152.645 32.3621 152.696 32.366 152.751 32.3699C152.806 32.3738 152.856 32.3758 152.901 32.3758C153.033 32.3758 153.157 32.3601 153.272 32.3289C153.39 32.2956 153.469 32.2399 153.508 32.1617L151.886 28.8864H153.075L154.014 30.9331L154.809 28.8864H155.955Z" fill="white"/>
<path d="M119.835 39.9797V36.4463H118.539V35.6135H122.231V36.4463H120.936V39.9797H119.835Z" fill="white"/>
<path d="M122.685 39.9797V35.6135H125.649V36.4463H123.78V37.2116H125.502V38.0443H123.78V39.1469H125.649V39.9797H122.685Z" fill="white"/>
<path d="M130.169 39.9797H129.068V36.4463H127.961C127.953 36.6163 127.945 36.7756 127.937 36.9242C127.931 37.0708 127.924 37.2106 127.917 37.3435C127.895 37.7247 127.86 38.0541 127.811 38.3317C127.761 38.6073 127.705 38.8331 127.643 39.0091C127.574 39.1967 127.504 39.3443 127.434 39.4518C127.363 39.5594 127.296 39.6444 127.233 39.707C127.139 39.8008 127.021 39.8751 126.88 39.9298C126.739 39.9826 126.599 40.009 126.462 40.009C126.37 40.009 126.269 40.0051 126.159 39.9972C126.049 39.9894 125.979 39.9836 125.95 39.9797V39.0149H125.991C126.011 39.0169 126.029 39.0188 126.047 39.0208C126.067 39.0228 126.091 39.0237 126.121 39.0237C126.17 39.0237 126.232 39.0159 126.309 39.0003C126.385 38.9846 126.443 38.9582 126.483 38.9211C126.624 38.7882 126.72 38.5829 126.771 38.3053C126.824 38.0258 126.864 37.6231 126.892 37.0972C126.904 36.8568 126.911 36.6408 126.913 36.4492C126.916 36.2576 126.924 35.979 126.936 35.6135H130.169V39.9797Z" fill="white"/>
<path d="M131.076 39.9797V35.6135H134.041V36.4463H132.171V37.2116H133.893V38.0443H132.171V39.1469H134.041V39.9797H131.076Z" fill="white"/>
<path d="M139.452 37.7628C139.452 38.2887 139.273 38.7051 138.916 39.012C138.559 39.317 138.095 39.4939 137.524 39.5427V40.0148H136.428V39.5427C135.857 39.4939 135.393 39.3189 135.036 39.0179C134.678 38.7149 134.5 38.2965 134.5 37.7628C134.5 37.2311 134.674 36.8187 135.021 36.5254C135.368 36.2322 135.838 36.0602 136.428 36.0093V35.5695H137.524V36.0093C138.097 36.0504 138.561 36.2195 138.916 36.5166C139.273 36.8118 139.452 37.2272 139.452 37.7628ZM138.321 37.7453C138.321 37.4696 138.251 37.2448 138.109 37.0708C137.968 36.8949 137.773 36.7844 137.524 36.7395V38.8155C137.812 38.753 138.017 38.6347 138.139 38.4607C138.261 38.2848 138.321 38.0463 138.321 37.7453ZM136.428 38.8155V36.7395C136.169 36.7864 135.971 36.8978 135.834 37.0738C135.698 37.2477 135.63 37.4716 135.63 37.7453C135.63 38.0424 135.694 38.2809 135.822 38.4607C135.949 38.6386 136.152 38.7569 136.428 38.8155Z" fill="white"/>
<path d="M144.066 37.798C144.066 38.5037 143.876 39.0589 143.497 39.4636C143.119 39.8682 142.599 40.0706 141.94 40.0706C141.278 40.0706 140.759 39.8663 140.382 39.4577C140.006 39.0472 139.817 38.494 139.817 37.798C139.817 37.0962 140.006 36.542 140.382 36.1354C140.759 35.7269 141.278 35.5226 141.94 35.5226C142.599 35.5226 143.119 35.7259 143.497 36.1325C143.876 36.5372 144.066 37.0923 144.066 37.798ZM142.929 37.7951C142.929 37.5351 142.902 37.3142 142.847 37.1324C142.794 36.9486 142.722 36.7981 142.632 36.6808C142.538 36.5616 142.431 36.4766 142.311 36.4257C142.193 36.3729 142.07 36.3466 141.943 36.3466C141.807 36.3466 141.685 36.371 141.575 36.4199C141.465 36.4668 141.359 36.5518 141.257 36.675C141.167 36.7884 141.093 36.9389 141.036 37.1265C140.981 37.3142 140.954 37.538 140.954 37.798C140.954 38.0658 140.98 38.2887 141.033 38.4666C141.086 38.6425 141.159 38.7901 141.251 38.9094C141.345 39.0306 141.452 39.1176 141.572 39.1703C141.692 39.2212 141.815 39.2466 141.943 39.2466C142.072 39.2466 142.198 39.2192 142.32 39.1645C142.441 39.1078 142.546 39.0208 142.635 38.9035C142.729 38.7764 142.802 38.6288 142.853 38.4607C142.904 38.2907 142.929 38.0688 142.929 37.7951Z" fill="white"/>
<path d="M148.42 39.9797H147.319V38.0443H145.82V39.9797H144.719V35.6135H145.82V37.2116H147.319V35.6135H148.42V39.9797Z" fill="white"/>
<path d="M148.859 39.9797L150.34 35.6135H151.541L153.022 39.9797H151.889L151.615 39.0882H150.237L149.963 39.9797H148.859ZM151.373 38.2965L150.926 36.8568L150.478 38.2965H151.373Z" fill="white"/>
<path fill-rule="evenodd" clip-rule="evenodd" d="M93.7109 46.4051L115.569 33.7187L104.894 33.4951L99.6656 36.609L93.7109 46.4051Z" fill="#027E35"/>
<path fill-rule="evenodd" clip-rule="evenodd" d="M78.4766 10.1016L115.57 33.7196L104.894 33.496L83.8563 20.1327L78.4766 10.1016Z" fill="#2683C9"/>
<path fill-rule="evenodd" clip-rule="evenodd" d="M78.4752 10.1016L78.0391 35.7861L83.7542 26.1202L83.855 20.1327L78.4752 10.1016Z" fill="#5A58A3"/>
<path fill-rule="evenodd" clip-rule="evenodd" d="M94.0817 26.6312L78.0391 35.7888L83.7542 26.1229L88.7952 23.2734L94.0817 26.6312Z" fill="#964A95"/>
<path fill-rule="evenodd" clip-rule="evenodd" d="M93.7109 46.4054L94.0826 26.6279L99.7773 30.2455L99.6656 36.6093L93.7109 46.4054Z" fill="#62B22F"/>
<path fill-rule="evenodd" clip-rule="evenodd" d="M94.6328 0.253906L115.987 13.9957L105.213 13.7646L100.135 10.6507L94.6328 0.253906Z" fill="#EE7024"/>
<path fill-rule="evenodd" clip-rule="evenodd" d="M94.6304 0.253906L94.2031 20.1178L99.7125 23.6258L100.132 10.6507L94.6304 0.253906Z" fill="#FAB51A"/>
<path fill-rule="evenodd" clip-rule="evenodd" d="M99.7188 23.6249L115.991 13.9948L105.216 13.7637L99.9963 16.862L99.7188 23.6249Z" fill="#DB0954"/>
<path d="M0 0.107422H44.0754V22.5538C44.0754 28.3097 41.0089 33.6164 36.0231 36.5052L22.0377 44.7434L8.06699 36.5052C3.08129 33.6379 0.0213976 28.3097 0.0213976 22.5538V0.107422H0Z" fill="#FFDD2D"/>
<path fill-rule="evenodd" clip-rule="evenodd" d="M11.8672 11.9189V18.8945C12.8301 17.8247 14.5633 17.0971 16.5319 17.0971H18.6931V25.207C18.6931 27.368 18.1154 29.2511 17.2381 30.2996H26.8359C25.9586 29.2511 25.4288 27.368 25.4288 25.207V17.0971H27.5309C29.5209 17.0971 31.2681 17.8247 32.2097 18.8945V11.9189H11.8672Z" fill="#333333"/>
</svg>
