<svg width="180" height="46" viewBox="0 0 180 46" fill="none" xmlns="http://www.w3.org/2000/svg">
<path fill-rule="evenodd" clip-rule="evenodd" d="M174.984 8.88672C176.049 10.2613 176.938 11.7685 177.693 13.3646L157.177 28.4826L148.562 23.0737V16.601L157.133 21.9657L174.984 8.88699V8.88672Z" fill="#21A038"/>
<path fill-rule="evenodd" clip-rule="evenodd" d="M139.813 22.6303C139.813 22.3199 139.813 22.0542 139.857 21.7435L134.662 21.4775C134.662 21.8321 134.617 22.2313 134.617 22.5858C134.617 28.7923 137.148 34.4232 141.234 38.5017L144.919 34.8219C141.766 31.7186 139.813 27.418 139.813 22.63V22.6303Z" fill="url(#paint0_linear_17960_71173)"/>
<path fill-rule="evenodd" clip-rule="evenodd" d="M157.131 5.3413C157.442 5.3413 157.708 5.3413 158.019 5.38572L158.286 0.198716C157.931 0.198716 157.531 0.154297 157.176 0.154297C150.959 0.154297 145.32 2.68158 141.234 6.76L144.92 10.4397C148.028 7.29195 152.38 5.3413 157.131 5.3413H157.131Z" fill="url(#paint1_linear_17960_71173)"/>
<path fill-rule="evenodd" clip-rule="evenodd" d="M157.139 39.9207C156.828 39.9207 156.562 39.9207 156.251 39.8763L155.984 45.0636C156.34 45.0636 156.739 45.1077 157.094 45.1077C163.311 45.1077 168.951 42.5807 173.036 38.502L169.35 34.8223C166.242 38.0142 161.935 39.9207 157.138 39.9207H157.139Z" fill="url(#paint2_linear_17960_71173)"/>
<path fill-rule="evenodd" clip-rule="evenodd" d="M166.894 8.35365L171.291 5.11729C167.427 2.01392 162.498 0.107422 157.125 0.107422V5.2947C160.767 5.33885 164.141 6.44715 166.894 8.35365Z" fill="url(#paint3_linear_17960_71173)"/>
<path fill-rule="evenodd" clip-rule="evenodd" d="M179.697 22.628C179.697 21.2537 179.564 19.9239 179.342 18.5938L174.502 22.1849C174.502 22.3179 174.502 22.4953 174.502 22.6283C174.502 27.7267 172.282 32.2932 168.773 35.441L172.281 39.2982C176.811 35.2195 179.697 29.2343 179.697 22.6283L179.697 22.628Z" fill="#21A038"/>
<path fill-rule="evenodd" clip-rule="evenodd" d="M157.134 39.9201C152.027 39.9201 147.453 37.7035 144.301 34.2012L140.438 37.7035C144.567 42.27 150.518 45.1074 157.134 45.1074V39.9201Z" fill="url(#paint4_linear_17960_71173)"/>
<path fill-rule="evenodd" clip-rule="evenodd" d="M145.541 9.8171L142.033 5.95996C137.459 10.0831 134.617 16.0239 134.617 22.6296H139.813C139.813 17.5755 142.033 12.9649 145.541 9.8171H145.541Z" fill="url(#paint5_linear_17960_71173)"/>
<path d="M38.6641 14.1982H44.325C45.8478 14.1982 47.0644 14.6617 47.9747 15.5886C48.8851 16.5156 49.3403 17.7984 49.3403 19.4371C49.3403 21.0592 48.8603 22.3337 47.9003 23.2606C46.9568 24.1876 45.6988 24.651 44.1263 24.651H40.5262V31.1313H38.6641V14.1982ZM44.0767 23.1117C45.1857 23.1117 46.0298 22.8054 46.6092 22.193C47.1885 21.564 47.4782 20.6454 47.4782 19.4371C47.4782 18.2287 47.1885 17.3101 46.6092 16.6811C46.0298 16.0521 45.1857 15.7376 44.0767 15.7376H40.5262V23.1117H44.0767Z" fill="#2195F2"/>
<path d="M52.4477 31.1313V19.5115H54.1361V31.1313H52.4477ZM53.2919 17.2521C52.9112 17.2521 52.5884 17.1197 52.3236 16.8549C52.0753 16.5901 51.9512 16.2673 51.9512 15.8866C51.9512 15.5224 52.0753 15.2162 52.3236 14.9679C52.5884 14.7031 52.9112 14.5707 53.2919 14.5707C53.6561 14.5707 53.9706 14.7031 54.2354 14.9679C54.5002 15.2162 54.6327 15.5307 54.6327 15.9114C54.6327 16.2756 54.5002 16.5901 54.2354 16.8549C53.9706 17.1197 53.6561 17.2521 53.2919 17.2521Z" fill="#2195F2"/>
<path d="M68.973 19.5115V31.1313H67.2847V29.4181C66.8047 30.0802 66.2171 30.6016 65.5219 30.9823C64.8267 31.3464 64.0653 31.5285 63.2377 31.5285C62.1287 31.5285 61.1355 31.2637 60.2582 30.734C59.381 30.2043 58.694 29.4678 58.1975 28.5243C57.7009 27.5808 57.4526 26.5049 57.4526 25.2966C57.4526 24.1048 57.6926 23.0455 58.1727 22.1185C58.6692 21.175 59.3479 20.4385 60.2086 19.9088C61.0859 19.3791 62.079 19.1143 63.188 19.1143C64.0322 19.1143 64.8019 19.3046 65.4971 19.6853C66.2088 20.0495 66.8047 20.5709 67.2847 21.2495V19.5115H68.973ZM63.188 29.9892C63.9825 29.9892 64.686 29.7905 65.2984 29.3933C65.9274 28.996 66.4157 28.4415 66.7633 27.7298C67.1109 27.018 67.2847 26.2152 67.2847 25.3214C67.2847 24.4276 67.1109 23.6248 66.7633 22.913C66.4157 22.2013 65.9274 21.6468 65.2984 21.2495C64.686 20.8523 63.9825 20.6536 63.188 20.6536C62.41 20.6536 61.7148 20.8523 61.1024 21.2495C60.49 21.6468 60.01 22.2013 59.6624 22.913C59.3148 23.6082 59.141 24.4027 59.141 25.2966C59.141 26.207 59.3148 27.018 59.6624 27.7298C60.01 28.4415 60.49 28.996 61.1024 29.3933C61.7148 29.7905 62.41 29.9892 63.188 29.9892Z" fill="#2195F2"/>
<path d="M76.1869 31.5285C75.0613 31.5285 74.0682 31.2885 73.2075 30.8085C72.3633 30.3285 71.7178 29.6498 71.2708 28.7726L72.7854 28.0277C73.3978 29.3353 74.5979 29.9892 76.3855 29.9892C77.2462 29.9892 77.958 29.8319 78.5208 29.5174C79.0835 29.2029 79.3649 28.7146 79.3649 28.0525C79.3649 27.3739 79.1332 26.869 78.6697 26.538C78.2228 26.207 77.4283 25.9918 76.2862 25.8925C74.6972 25.76 73.5551 25.4042 72.8599 24.8248C72.1812 24.2455 71.8419 23.4758 71.8419 22.5158C71.8419 21.4399 72.2309 20.604 73.0088 20.0081C73.7868 19.4122 74.8544 19.1143 76.2117 19.1143C78.5125 19.1143 80.0767 20.0247 80.9043 21.8454L79.3898 22.5903C79.1084 21.9282 78.6946 21.4399 78.1483 21.1254C77.6187 20.8109 76.9317 20.6536 76.0876 20.6536C75.2268 20.6536 74.5648 20.8109 74.1013 21.1254C73.6544 21.4399 73.4309 21.8868 73.4309 22.4661C73.4309 23.0124 73.6709 23.4593 74.1509 23.8069C74.6475 24.1379 75.4917 24.3531 76.6834 24.4524C78.1566 24.5848 79.2491 24.949 79.9608 25.5449C80.6891 26.1242 81.0533 26.8939 81.0533 27.8539C81.0533 28.6319 80.8298 29.3022 80.3829 29.865C79.936 30.4112 79.3401 30.825 78.5952 31.1064C77.8504 31.3878 77.0476 31.5285 76.1869 31.5285Z" fill="#2195F2"/>
<path d="M84.228 31.1313V21.0509H82.2417V19.5115H84.228V15.6631H85.9163V19.5115H88.5978V21.0509H85.9163V31.1313H84.228Z" fill="#2195F2"/>
<path d="M96.1554 19.1143C96.5526 19.1143 96.9333 19.1722 97.2975 19.2881V20.8274C96.9499 20.6619 96.5692 20.5792 96.1554 20.5792C95.4436 20.5792 94.7815 20.7778 94.1691 21.175C93.5567 21.5723 93.0601 22.1516 92.6794 22.913C92.3152 23.6579 92.1332 24.5434 92.1332 25.5697V31.1313H90.4448V19.5115H92.1332V21.8454C92.5801 20.9847 93.1429 20.3143 93.8215 19.8343C94.5167 19.3543 95.2947 19.1143 96.1554 19.1143Z" fill="#2195F2"/>
<path d="M99.777 31.1313V19.5115H101.465V31.1313H99.777ZM100.621 17.2521C100.241 17.2521 99.9177 17.1197 99.6529 16.8549C99.4046 16.5901 99.2805 16.2673 99.2805 15.8866C99.2805 15.5224 99.4046 15.2162 99.6529 14.9679C99.9177 14.7031 100.241 14.5707 100.621 14.5707C100.985 14.5707 101.3 14.7031 101.565 14.9679C101.83 15.2162 101.962 15.5307 101.962 15.9114C101.962 16.2756 101.83 16.5901 101.565 16.8549C101.3 17.1197 100.985 17.2521 100.621 17.2521Z" fill="#2195F2"/>
<path d="M114.614 31.1313H112.677L109.648 26.2897L106.619 31.1313H104.732L108.457 25.1724L104.956 19.5115H106.868L109.673 24.08L112.628 19.5115H114.49L110.84 25.1476L114.614 31.1313Z" fill="#2195F2"/>
<path d="M22.8055 27.2033C25.3301 27.2033 27.3767 25.1708 27.3767 22.6637C27.3767 20.1565 25.3301 18.124 22.8055 18.124C20.281 18.124 18.2344 20.1565 18.2344 22.6637C18.2344 25.1708 20.281 27.2033 22.8055 27.2033Z" fill="#FFD833"/>
<path fill-rule="evenodd" clip-rule="evenodd" d="M25.9109 17.6835C24.9816 17.1089 23.9089 16.804 22.8141 16.8032C22.0117 16.8027 21.2178 16.9657 20.4813 17.2821C13.3766 5.62634 23.3176 0.107422 23.3176 0.107422C23.3176 0.107422 33.4784 5.75133 25.9109 17.6835ZM19.1796 18.0449C17.6575 15.5428 16.7605 13.1292 16.4887 10.8043C13.0232 8.2834 8.96208 7.92427 6.93773 7.92427C6.50982 7.92062 6.08202 7.93942 5.65611 7.98061C5.65611 7.98061 3.81433 19.0237 17.1978 20.8792C17.5579 19.7588 18.2483 18.7714 19.1796 18.0449ZM16.9163 22.3493C16.9075 22.4531 16.9075 22.557 16.9075 22.6626C16.9072 23.594 17.1308 24.512 17.5598 25.3402C14.3584 27.3189 11.6055 28.0442 9.30105 28.0442C3.01349 28.0442 0 22.6837 0 22.6837C0 22.6837 3.16417 19.5115 7.87585 18.4763C10.0704 20.5202 13.0963 21.8211 16.9163 22.3493ZM18.4175 26.5723C15.4253 28.433 12.5306 29.4259 9.78654 29.5315C6.72519 33.7301 6.75001 38.7016 6.75001 38.7016C7.6404 38.9174 8.55453 39.0215 9.47101 39.0114C12.9755 39.0114 18.866 37.5432 21.0552 28.257C20.0395 27.9411 19.1283 27.3591 18.4175 26.5723ZM22.8076 28.5255H22.5364C21.7422 31.9513 20.4092 34.687 18.5391 36.685C19.4254 41.704 22.8909 45.1174 22.8909 45.1174C22.8909 45.1174 32.8992 39.5422 25.6456 27.8037C24.7761 28.2783 23.7998 28.5266 22.8076 28.5255Z" fill="url(#paint6_radial_17960_71173)"/>
<defs>
<linearGradient id="paint0_linear_17960_71173" x1="140.696" y1="38.5258" x2="138.612" y2="22.1094" gradientUnits="userSpaceOnUse">
<stop stop-color="#F2E913"/>
<stop offset="0.14902" stop-color="#F2E913"/>
<stop offset="0.301961" stop-color="#E7E518"/>
<stop offset="0.580392" stop-color="#CADB26"/>
<stop offset="0.890196" stop-color="#A3CD39"/>
<stop offset="1" stop-color="#A3CD39"/>
</linearGradient>
<linearGradient id="paint1_linear_17960_71173" x1="142.714" y1="6.46451" x2="157.367" y2="4.43613" gradientUnits="userSpaceOnUse">
<stop stop-color="#0FA8E0"/>
<stop offset="0.0588235" stop-color="#0FA8E0"/>
<stop offset="0.541176" stop-color="#0099F9"/>
<stop offset="0.921569" stop-color="#0291EB"/>
<stop offset="1" stop-color="#0291EB"/>
</linearGradient>
<linearGradient id="paint2_linear_17960_71173" x1="155.681" y1="40.6078" x2="172.248" y2="39.2471" gradientUnits="userSpaceOnUse">
<stop stop-color="#A3CD39"/>
<stop offset="0.121569" stop-color="#A3CD39"/>
<stop offset="0.290196" stop-color="#86C339"/>
<stop offset="0.870588" stop-color="#21A038"/>
<stop offset="1" stop-color="#21A038"/>
</linearGradient>
<linearGradient id="paint3_linear_17960_71173" x1="156.058" y1="3.55585" x2="170.224" y2="5.0355" gradientUnits="userSpaceOnUse">
<stop stop-color="#0291EB"/>
<stop offset="0.0509804" stop-color="#0291EB"/>
<stop offset="0.788235" stop-color="#0C8ACB"/>
<stop offset="1" stop-color="#0C8ACB"/>
</linearGradient>
<linearGradient id="paint4_linear_17960_71173" x1="141.758" y1="38.3083" x2="157.177" y2="40.7633" gradientUnits="userSpaceOnUse">
<stop stop-color="#F2E913"/>
<stop offset="0.129412" stop-color="#F2E913"/>
<stop offset="0.301961" stop-color="#EBE716"/>
<stop offset="0.529412" stop-color="#D9E01F"/>
<stop offset="0.8" stop-color="#BBD62D"/>
<stop offset="0.980392" stop-color="#A3CD39"/>
<stop offset="1" stop-color="#A3CD39"/>
</linearGradient>
<linearGradient id="paint5_linear_17960_71173" x1="138.569" y1="21.411" x2="141.228" y2="5.33484" gradientUnits="userSpaceOnUse">
<stop stop-color="#A3CD39"/>
<stop offset="0.0705882" stop-color="#A3CD39"/>
<stop offset="0.258824" stop-color="#81C55F"/>
<stop offset="0.921569" stop-color="#0FA8E0"/>
<stop offset="1" stop-color="#0FA8E0"/>
</linearGradient>
<radialGradient id="paint6_radial_17960_71173" cx="0" cy="0" r="1" gradientUnits="userSpaceOnUse" gradientTransform="translate(23.0176 22.6124) rotate(-180) scale(13.8167 13.8147)">
<stop stop-color="#FFDE51"/>
<stop offset="1" stop-color="#FE4080"/>
</radialGradient>
</defs>
</svg>
