<svg width="159" height="51" viewBox="0 0 159 51" fill="none" xmlns="http://www.w3.org/2000/svg">
<path d="M127.358 19.7761C125.714 19.7761 124.409 19.2825 123.442 18.2953C122.476 17.3033 121.992 15.9104 121.992 14.1168C121.992 12.3868 122.476 11.0086 123.442 9.98233C124.414 8.95114 125.722 8.43555 127.365 8.43555C127.802 8.43555 128.195 8.45998 128.543 8.50885C128.892 8.55773 129.225 8.62615 129.544 8.71411C129.794 8.78742 130.067 8.88761 130.361 9.01467C130.656 9.14174 130.894 9.2517 131.075 9.34455V11.947H130.795C130.663 11.8297 130.496 11.6904 130.295 11.5291C130.094 11.3629 129.866 11.2017 129.61 11.0453C129.355 10.8889 129.073 10.7569 128.764 10.6494C128.46 10.537 128.141 10.4808 127.807 10.4808C127.41 10.4808 127.044 10.5443 126.71 10.6714C126.382 10.7936 126.068 11.0086 125.768 11.3165C125.493 11.5951 125.268 11.9714 125.091 12.4454C124.919 12.9195 124.833 13.4791 124.833 14.1242C124.833 14.8035 124.924 15.3753 125.106 15.8396C125.287 16.2989 125.525 16.6704 125.82 16.9538C126.104 17.2275 126.421 17.4254 126.769 17.5476C127.123 17.6698 127.473 17.7309 127.822 17.7309C128.185 17.7309 128.531 17.6722 128.86 17.5549C129.188 17.4328 129.466 17.2984 129.691 17.1518C129.937 17.0003 130.153 16.8463 130.339 16.6899C130.526 16.5335 130.688 16.3942 130.825 16.2721H131.075V18.8378C130.874 18.9307 130.641 19.0382 130.376 19.1604C130.111 19.2777 129.839 19.3778 129.559 19.4609C129.215 19.5636 128.894 19.6418 128.595 19.6955C128.295 19.7493 127.883 19.7761 127.358 19.7761Z" fill="white"/>
<path d="M141.498 16.0741C141.498 16.6068 141.395 17.098 141.189 17.5476C140.988 17.9923 140.71 18.3564 140.357 18.6399C139.935 18.9771 139.479 19.2166 138.988 19.3583C138.502 19.4951 137.908 19.5636 137.207 19.5636H132.702V8.64814H140.666V10.7301H135.44V12.746H137.251C137.908 12.746 138.497 12.7949 139.017 12.8926C139.537 12.9855 140.004 13.1932 140.416 13.5157C140.794 13.809 141.068 14.1779 141.24 14.6227C141.412 15.0625 141.498 15.5463 141.498 16.0741ZM138.657 16.1548C138.657 15.974 138.637 15.8029 138.598 15.6416C138.559 15.4804 138.473 15.3313 138.34 15.1945C138.208 15.0625 138.026 14.9574 137.795 14.8792C137.565 14.801 137.246 14.7619 136.839 14.7619H135.44V17.5403H136.839C137.403 17.5403 137.847 17.4205 138.171 17.1811C138.495 16.9416 138.657 16.5995 138.657 16.1548Z" fill="white"/>
<path d="M152.303 19.5636H149.55V10.7301H145.804V19.5636H143.051V8.64814H152.303V19.5636Z" fill="white"/>
<path d="M125.654 28.5254H124.553V24.992H123.055V28.5254H121.953V24.1593H125.654V28.5254Z" fill="white"/>
<path d="M126.564 28.5254V24.1593H129.529V24.992H127.659V25.7574H129.382V26.5901H127.659V27.6927H129.529V28.5254H126.564Z" fill="white"/>
<path d="M133.648 25.5374C133.648 25.7407 133.616 25.9343 133.551 26.118C133.486 26.3018 133.393 26.4552 133.271 26.5784C133.197 26.6546 133.114 26.725 133.024 26.7895C132.935 26.854 132.837 26.9088 132.729 26.9537C132.621 26.9987 132.504 27.0339 132.376 27.0593C132.25 27.0847 132.109 27.0974 131.952 27.0974H131.375V28.5254H130.274V24.1593H131.976C132.229 24.1593 132.447 24.1827 132.629 24.2296C132.814 24.2746 132.981 24.3469 133.13 24.4466C133.295 24.5561 133.422 24.7027 133.513 24.8865C133.603 25.0683 133.648 25.2853 133.648 25.5374ZM132.517 25.5638C132.517 25.4407 132.488 25.3351 132.429 25.2471C132.37 25.1572 132.3 25.0956 132.217 25.0624C132.113 25.0174 132.013 24.992 131.917 24.9862C131.823 24.9783 131.694 24.9744 131.531 24.9744H131.375V26.2822H131.452C131.556 26.2822 131.654 26.2813 131.746 26.2793C131.838 26.2773 131.919 26.2705 131.987 26.2588C132.046 26.249 132.108 26.2304 132.173 26.2031C132.24 26.1737 132.291 26.1415 132.326 26.1063C132.401 26.034 132.451 25.9587 132.476 25.8805C132.504 25.8023 132.517 25.6968 132.517 25.5638Z" fill="white"/>
<path d="M134.237 28.5254V24.1593H137.202V24.992H135.332V25.7574H137.054V26.5901H135.332V27.6927H137.202V28.5254H134.237Z" fill="white"/>
<path d="M141.453 27.1883C141.453 27.4053 141.412 27.5959 141.33 27.7601C141.247 27.9243 141.136 28.0602 140.997 28.1677C140.832 28.2967 140.65 28.3886 140.452 28.4433C140.256 28.4981 140.006 28.5254 139.701 28.5254H137.947V24.1593H139.495C139.817 24.1593 140.061 24.172 140.225 24.1974C140.392 24.2208 140.548 24.2717 140.694 24.3499C140.851 24.4339 140.967 24.5463 141.044 24.6871C141.122 24.8278 141.162 24.9901 141.162 25.1738C141.162 25.3869 141.108 25.5765 141 25.7427C140.894 25.9089 140.747 26.031 140.558 26.1092V26.1327C140.829 26.1894 141.046 26.3057 141.209 26.4816C141.372 26.6556 141.453 26.8912 141.453 27.1883ZM140.043 25.3938C140.043 25.3234 140.024 25.251 139.987 25.1768C139.952 25.1025 139.896 25.0487 139.819 25.0155C139.747 24.9842 139.66 24.9676 139.56 24.9656C139.462 24.9617 139.315 24.9598 139.118 24.9598H139.042V25.8834H139.18C139.369 25.8834 139.5 25.8815 139.575 25.8776C139.651 25.8737 139.73 25.8531 139.81 25.816C139.899 25.7749 139.959 25.7183 139.993 25.6459C140.026 25.5736 140.043 25.4895 140.043 25.3938ZM140.32 27.1678C140.32 27.0329 140.292 26.9273 140.237 26.8511C140.182 26.7749 140.1 26.7172 139.99 26.6781C139.923 26.6527 139.831 26.639 139.713 26.637C139.597 26.6331 139.441 26.6312 139.245 26.6312H139.042V27.7249H139.101C139.387 27.7249 139.586 27.723 139.695 27.7191C139.805 27.7151 139.917 27.6888 140.031 27.6399C140.131 27.5969 140.204 27.5343 140.249 27.4522C140.296 27.3682 140.32 27.2733 140.32 27.1678Z" fill="white"/>
<path d="M146.079 26.3438C146.079 27.0495 145.889 27.6047 145.51 28.0093C145.132 28.414 144.612 28.6163 143.953 28.6163C143.291 28.6163 142.772 28.412 142.395 28.0035C142.018 27.593 141.83 27.0397 141.83 26.3438C141.83 25.642 142.018 25.0878 142.395 24.6812C142.772 24.2726 143.291 24.0684 143.953 24.0684C144.612 24.0684 145.132 24.2717 145.51 24.6783C145.889 25.0829 146.079 25.6381 146.079 26.3438ZM144.942 26.3409C144.942 26.0809 144.915 25.86 144.86 25.6782C144.807 25.4944 144.735 25.3439 144.645 25.2266C144.551 25.1074 144.444 25.0223 144.324 24.9715C144.206 24.9187 144.083 24.8923 143.956 24.8923C143.82 24.8923 143.698 24.9168 143.588 24.9656C143.478 25.0126 143.372 25.0976 143.27 25.2207C143.179 25.3341 143.106 25.4847 143.049 25.6723C142.994 25.86 142.967 26.0838 142.967 26.3438C142.967 26.6116 142.993 26.8345 143.046 27.0124C143.099 27.1883 143.172 27.3359 143.264 27.4551C143.358 27.5763 143.465 27.6633 143.585 27.7161C143.705 27.7669 143.828 27.7924 143.956 27.7924C144.085 27.7924 144.211 27.765 144.333 27.7103C144.454 27.6536 144.559 27.5666 144.648 27.4493C144.742 27.3222 144.815 27.1746 144.866 27.0065C144.917 26.8364 144.942 26.6146 144.942 26.3409Z" fill="white"/>
<path d="M150.784 29.5283H149.774V28.5108H147.324V29.5283H146.314V27.6897H146.609C146.815 27.2636 146.978 26.7455 147.097 26.1356C147.217 25.5237 147.277 24.865 147.277 24.1593H150.368V27.6897H150.784V29.5283ZM149.267 27.6897V24.992H148.307C148.27 25.5198 148.197 26.0154 148.087 26.4787C147.977 26.94 147.838 27.3437 147.671 27.6897H149.267Z" fill="white"/>
<path d="M125.654 35.2525H124.553V31.7191H123.055V35.2525H121.953V30.8864H125.654V35.2525Z" fill="white"/>
<path d="M130.557 33.0709C130.557 33.7766 130.367 34.3318 129.988 34.7364C129.609 35.1411 129.09 35.3434 128.431 35.3434C127.769 35.3434 127.25 35.1391 126.873 34.7306C126.496 34.3201 126.308 33.7668 126.308 33.0709C126.308 32.3691 126.496 31.8149 126.873 31.4083C127.25 30.9997 127.769 30.7955 128.431 30.7955C129.09 30.7955 129.609 30.9988 129.988 31.4054C130.367 31.81 130.557 32.3652 130.557 33.0709ZM129.42 33.068C129.42 32.808 129.393 32.5871 129.338 32.4053C129.285 32.2215 129.213 32.071 129.123 31.9537C129.028 31.8345 128.921 31.7494 128.802 31.6986C128.684 31.6458 128.561 31.6194 128.434 31.6194C128.298 31.6194 128.176 31.6439 128.066 31.6927C127.956 31.7397 127.85 31.8247 127.748 31.9478C127.657 32.0612 127.584 32.2118 127.527 32.3994C127.472 32.5871 127.444 32.8109 127.444 33.0709C127.444 33.3387 127.471 33.5616 127.524 33.7395C127.577 33.9154 127.65 34.063 127.742 34.1822C127.836 34.3034 127.943 34.3904 128.063 34.4432C128.182 34.494 128.306 34.5195 128.434 34.5195C128.563 34.5195 128.689 34.4921 128.811 34.4374C128.932 34.3807 129.037 34.2937 129.126 34.1764C129.22 34.0493 129.292 33.9017 129.343 33.7336C129.395 33.5635 129.42 33.3417 129.42 33.068Z" fill="white"/>
<path d="M136.678 35.2525H135.576V33.3172H134.078V35.2525H132.977V30.8864H134.078V32.4845H135.576V30.8864H136.678V35.2525Z" fill="white"/>
<path d="M141.58 33.0709C141.58 33.7766 141.39 34.3318 141.012 34.7364C140.633 35.1411 140.114 35.3434 139.454 35.3434C138.793 35.3434 138.273 35.1391 137.897 34.7306C137.52 34.3201 137.331 33.7668 137.331 33.0709C137.331 32.3691 137.52 31.8149 137.897 31.4083C138.273 30.9997 138.793 30.7955 139.454 30.7955C140.114 30.7955 140.633 30.9988 141.012 31.4054C141.39 31.81 141.58 32.3652 141.58 33.0709ZM140.443 33.068C140.443 32.808 140.416 32.5871 140.361 32.4053C140.308 32.2215 140.236 32.071 140.146 31.9537C140.052 31.8345 139.945 31.7494 139.825 31.6986C139.707 31.6458 139.585 31.6194 139.457 31.6194C139.322 31.6194 139.199 31.6439 139.089 31.6927C138.979 31.7397 138.873 31.8247 138.771 31.9478C138.681 32.0612 138.607 32.2118 138.55 32.3994C138.495 32.5871 138.468 32.8109 138.468 33.0709C138.468 33.3387 138.494 33.5616 138.547 33.7395C138.6 33.9154 138.673 34.063 138.765 34.1822C138.859 34.3034 138.966 34.3904 139.086 34.4432C139.206 34.494 139.329 34.5195 139.457 34.5195C139.587 34.5195 139.712 34.4921 139.834 34.4374C139.956 34.3807 140.061 34.2937 140.149 34.1764C140.243 34.0493 140.316 33.9017 140.367 33.7336C140.418 33.5635 140.443 33.3417 140.443 33.068Z" fill="white"/>
<path d="M146.712 35.2525H145.616V32.3584L144.818 34.2262H144.068L143.27 32.3584V35.2525H142.233V30.8864H143.502L144.474 33.0416L145.443 30.8864H146.712V35.2525Z" fill="white"/>
<path d="M147.621 35.2525V30.8864H150.586V31.7191H148.717V32.4845H150.439V33.3172H148.717V34.4198H150.586V35.2525H147.621Z" fill="white"/>
<path d="M154.705 32.2645C154.705 32.4678 154.673 32.6614 154.608 32.8451C154.543 33.0289 154.45 33.1823 154.328 33.3055C154.254 33.3817 154.171 33.4521 154.081 33.5166C153.993 33.5811 153.895 33.6359 153.787 33.6808C153.679 33.7258 153.561 33.761 153.433 33.7864C153.308 33.8118 153.166 33.8245 153.009 33.8245H152.432V35.2525H151.331V30.8864H153.033C153.286 30.8864 153.504 30.9098 153.687 30.9567C153.871 31.0017 154.038 31.074 154.187 31.1737C154.352 31.2832 154.48 31.4298 154.57 31.6136C154.66 31.7954 154.705 32.0124 154.705 32.2645ZM153.575 32.2909C153.575 32.1678 153.545 32.0622 153.486 31.9742C153.427 31.8843 153.357 31.8227 153.274 31.7895C153.17 31.7445 153.07 31.7191 152.974 31.7133C152.88 31.7054 152.751 31.7015 152.588 31.7015H152.432V33.0093H152.509C152.613 33.0093 152.711 33.0084 152.803 33.0064C152.896 33.0044 152.976 32.9976 153.045 32.9859C153.104 32.9761 153.165 32.9575 153.23 32.9302C153.297 32.9008 153.348 32.8686 153.383 32.8334C153.458 32.7611 153.508 32.6858 153.533 32.6076C153.561 32.5294 153.575 32.4239 153.575 32.2909Z" fill="white"/>
<path d="M158.916 30.8864L157.452 34.3787C157.366 34.582 157.269 34.7423 157.161 34.8596C157.055 34.9769 156.943 35.0658 156.825 35.1264C156.707 35.187 156.59 35.2281 156.472 35.2496C156.354 35.2691 156.23 35.2789 156.101 35.2789C155.965 35.2789 155.807 35.276 155.627 35.2701C155.448 35.2643 155.328 35.2584 155.268 35.2525V34.3259H155.335C155.353 34.3298 155.38 34.3347 155.418 34.3406C155.455 34.3465 155.502 34.3523 155.559 34.3582C155.606 34.3621 155.657 34.366 155.712 34.3699C155.767 34.3738 155.817 34.3758 155.862 34.3758C155.994 34.3758 156.118 34.3601 156.233 34.3289C156.351 34.2956 156.43 34.2399 156.469 34.1617L154.847 30.8864H156.036L156.975 32.9331L157.77 30.8864H158.916Z" fill="white"/>
<path d="M122.795 41.9797V38.4463H121.5V37.6135H125.192V38.4463H123.897V41.9797H122.795Z" fill="white"/>
<path d="M125.646 41.9797V37.6135H128.61V38.4463H126.741V39.2116H128.463V40.0443H126.741V41.1469H128.61V41.9797H125.646Z" fill="white"/>
<path d="M133.13 41.9797H132.029V38.4463H130.922C130.914 38.6163 130.906 38.7756 130.898 38.9242C130.892 39.0708 130.885 39.2106 130.877 39.3435C130.856 39.7247 130.821 40.0541 130.771 40.3317C130.722 40.6073 130.666 40.8331 130.604 41.0091C130.535 41.1967 130.465 41.3443 130.395 41.4518C130.324 41.5594 130.257 41.6444 130.194 41.707C130.1 41.8008 129.982 41.8751 129.841 41.9298C129.7 41.9826 129.56 42.009 129.423 42.009C129.331 42.009 129.23 42.0051 129.12 41.9972C129.01 41.9894 128.94 41.9836 128.911 41.9797V41.0149H128.952C128.972 41.0169 128.99 41.0188 129.008 41.0208C129.027 41.0228 129.052 41.0237 129.081 41.0237C129.131 41.0237 129.193 41.0159 129.27 41.0003C129.346 40.9846 129.404 40.9582 129.444 40.9211C129.585 40.7882 129.681 40.5829 129.732 40.3053C129.785 40.0258 129.825 39.6231 129.853 39.0972C129.865 38.8568 129.871 38.6408 129.873 38.4492C129.877 38.2576 129.885 37.979 129.897 37.6135H133.13V41.9797Z" fill="white"/>
<path d="M134.037 41.9797V37.6135H137.001V38.4463H135.132V39.2116H136.854V40.0443H135.132V41.1469H137.001V41.9797H134.037Z" fill="white"/>
<path d="M142.413 39.7628C142.413 40.2887 142.234 40.7051 141.877 41.012C141.52 41.317 141.056 41.4939 140.485 41.5427V42.0148H139.389V41.5427C138.818 41.4939 138.354 41.3189 137.997 41.0179C137.639 40.7149 137.461 40.2965 137.461 39.7628C137.461 39.2311 137.634 38.8187 137.982 38.5254C138.329 38.2322 138.798 38.0602 139.389 38.0093V37.5695H140.485V38.0093C141.058 38.0504 141.522 38.2195 141.877 38.5166C142.234 38.8118 142.413 39.2272 142.413 39.7628ZM141.282 39.7453C141.282 39.4696 141.212 39.2448 141.07 39.0708C140.929 38.8949 140.734 38.7844 140.485 38.7395V40.8155C140.773 40.753 140.978 40.6347 141.1 40.4607C141.222 40.2848 141.282 40.0463 141.282 39.7453ZM139.389 40.8155V38.7395C139.13 38.7864 138.932 38.8978 138.795 39.0738C138.659 39.2477 138.591 39.4716 138.591 39.7453C138.591 40.0424 138.655 40.2809 138.783 40.4607C138.91 40.6386 139.113 40.7569 139.389 40.8155Z" fill="white"/>
<path d="M147.027 39.798C147.027 40.5037 146.837 41.0589 146.458 41.4636C146.08 41.8682 145.56 42.0706 144.901 42.0706C144.239 42.0706 143.72 41.8663 143.343 41.4577C142.967 41.0472 142.778 40.494 142.778 39.798C142.778 39.0962 142.967 38.542 143.343 38.1354C143.72 37.7269 144.239 37.5226 144.901 37.5226C145.56 37.5226 146.08 37.7259 146.458 38.1325C146.837 38.5372 147.027 39.0923 147.027 39.798ZM145.89 39.7951C145.89 39.5351 145.863 39.3142 145.808 39.1324C145.755 38.9486 145.683 38.7981 145.593 38.6808C145.499 38.5616 145.392 38.4766 145.272 38.4257C145.154 38.3729 145.031 38.3466 144.904 38.3466C144.768 38.3466 144.646 38.371 144.536 38.4199C144.426 38.4668 144.32 38.5518 144.218 38.675C144.128 38.7884 144.054 38.9389 143.997 39.1265C143.942 39.3142 143.915 39.538 143.915 39.798C143.915 40.0658 143.941 40.2887 143.994 40.4666C144.047 40.6425 144.12 40.7901 144.212 40.9094C144.306 41.0306 144.413 41.1176 144.533 41.1703C144.653 41.2212 144.776 41.2466 144.904 41.2466C145.033 41.2466 145.159 41.2192 145.281 41.1645C145.402 41.1078 145.507 41.0208 145.596 40.9035C145.69 40.7764 145.763 40.6288 145.814 40.4607C145.865 40.2907 145.89 40.0688 145.89 39.7951Z" fill="white"/>
<path d="M151.381 41.9797H150.28V40.0443H148.781V41.9797H147.68V37.6135H148.781V39.2116H150.28V37.6135H151.381V41.9797Z" fill="white"/>
<path d="M151.82 41.9797L153.301 37.6135H154.502L155.983 41.9797H154.85L154.576 41.0882H153.198L152.924 41.9797H151.82ZM154.334 40.2965L153.887 38.8568L153.439 40.2965H154.334Z" fill="white"/>
<path fill-rule="evenodd" clip-rule="evenodd" d="M96.6719 48.4051L118.53 35.7187L107.855 35.4951L102.627 38.609L96.6719 48.4051Z" fill="#027E35"/>
<path fill-rule="evenodd" clip-rule="evenodd" d="M81.4375 12.1016L118.531 35.7196L107.855 35.496L86.8173 22.1327L81.4375 12.1016Z" fill="#2683C9"/>
<path fill-rule="evenodd" clip-rule="evenodd" d="M81.4362 12.1016L81 37.7861L86.7151 28.1202L86.8159 22.1327L81.4362 12.1016Z" fill="#5A58A3"/>
<path fill-rule="evenodd" clip-rule="evenodd" d="M97.0427 28.6312L81 37.7888L86.7151 28.1229L91.7562 25.2734L97.0427 28.6312Z" fill="#964A95"/>
<path fill-rule="evenodd" clip-rule="evenodd" d="M96.6719 48.4054L97.0435 28.6279L102.738 32.2455L102.627 38.6093L96.6719 48.4054Z" fill="#62B22F"/>
<path fill-rule="evenodd" clip-rule="evenodd" d="M97.5938 2.25391L118.948 15.9957L108.173 15.7646L103.096 12.6507L97.5938 2.25391Z" fill="#EE7024"/>
<path fill-rule="evenodd" clip-rule="evenodd" d="M97.5913 2.25391L97.1641 22.1178L102.673 25.6258L103.093 12.6507L97.5913 2.25391Z" fill="#FAB51A"/>
<path fill-rule="evenodd" clip-rule="evenodd" d="M102.68 25.6249L118.952 15.9948L108.177 15.7637L102.957 18.862L102.68 25.6249Z" fill="#DB0954"/>
<path fill-rule="evenodd" clip-rule="evenodd" d="M44.7688 9.84473C45.9507 11.3694 46.9361 13.0414 47.7734 14.8118L25.0169 31.5813L15.4609 25.5816V18.4017L24.9673 24.3525L44.7688 9.84503V9.84473Z" fill="#21A038"/>
<path fill-rule="evenodd" clip-rule="evenodd" d="M5.76297 25.0912C5.76297 24.7469 5.76296 24.4521 5.81254 24.1075L0.0492715 23.8125C0.0492715 24.2058 0 24.6486 0 25.0419C0 31.9264 2.80758 38.1724 7.33935 42.6964L11.4277 38.6147C7.93031 35.1723 5.76297 30.402 5.76297 25.0909V25.0912Z" fill="url(#paint0_linear_17960_71134)"/>
<path fill-rule="evenodd" clip-rule="evenodd" d="M24.9769 5.91283C25.3218 5.91283 25.6175 5.91283 25.9624 5.9621L26.258 0.208451C25.8638 0.208451 25.4204 0.15918 25.0268 0.15918C18.1309 0.15918 11.8752 2.96255 7.34375 7.48652L11.4321 11.5682C14.8799 8.07657 19.7073 5.91283 24.9772 5.91283H24.9769Z" fill="url(#paint1_linear_17960_71134)"/>
<path fill-rule="evenodd" clip-rule="evenodd" d="M24.9758 44.2697C24.6312 44.2697 24.3355 44.2697 23.9909 44.2204L23.6953 49.9743C24.0895 49.9743 24.5326 50.0233 24.9265 50.0233C31.8224 50.0233 38.0781 47.2202 42.6096 42.696L38.5212 38.6143C35.0734 42.1549 30.2956 44.2697 24.9755 44.2697H24.9758Z" fill="url(#paint2_linear_17960_71134)"/>
<path fill-rule="evenodd" clip-rule="evenodd" d="M35.8052 9.2545L40.6819 5.66459C36.3964 2.22219 30.9291 0.107422 24.9688 0.107422V5.86137C29.0081 5.91034 32.7512 7.13973 35.8052 9.2545Z" fill="url(#paint3_linear_17960_71134)"/>
<path fill-rule="evenodd" clip-rule="evenodd" d="M50 25.0883C50 23.5639 49.8522 22.0887 49.6061 20.6133L44.237 24.5968C44.237 24.7443 44.237 24.9411 44.237 25.0886C44.237 30.744 41.7744 35.8093 37.8828 39.301L41.7741 43.5795C46.798 39.0553 49.9997 32.4162 49.9997 25.0886L50 25.0883Z" fill="#21A038"/>
<path fill-rule="evenodd" clip-rule="evenodd" d="M24.9732 44.2695C19.3088 44.2695 14.2353 41.8107 10.7382 37.9258L6.45312 41.8107C11.0339 46.8761 17.6345 50.0234 24.9732 50.0234V44.2695Z" fill="url(#paint4_linear_17960_71134)"/>
<path fill-rule="evenodd" clip-rule="evenodd" d="M12.1169 10.8771L8.22564 6.59863C3.15218 11.1722 0 17.7619 0 25.0893H5.76297C5.76297 19.4831 8.22594 14.3688 12.1172 10.8771H12.1169Z" fill="url(#paint5_linear_17960_71134)"/>
<defs>
<linearGradient id="paint0_linear_17960_71134" x1="6.74239" y1="42.7232" x2="4.43173" y2="24.5134" gradientUnits="userSpaceOnUse">
<stop stop-color="#F2E913"/>
<stop offset="0.14902" stop-color="#F2E913"/>
<stop offset="0.301961" stop-color="#E7E518"/>
<stop offset="0.580392" stop-color="#CADB26"/>
<stop offset="0.890196" stop-color="#A3CD39"/>
<stop offset="1" stop-color="#A3CD39"/>
</linearGradient>
<linearGradient id="paint1_linear_17960_71134" x1="8.98503" y1="7.15874" x2="25.2383" y2="4.90877" gradientUnits="userSpaceOnUse">
<stop stop-color="#0FA8E0"/>
<stop offset="0.0588235" stop-color="#0FA8E0"/>
<stop offset="0.541176" stop-color="#0099F9"/>
<stop offset="0.921569" stop-color="#0291EB"/>
<stop offset="1" stop-color="#0291EB"/>
</linearGradient>
<linearGradient id="paint2_linear_17960_71134" x1="23.3588" y1="45.0319" x2="41.7359" y2="43.5225" gradientUnits="userSpaceOnUse">
<stop stop-color="#A3CD39"/>
<stop offset="0.121569" stop-color="#A3CD39"/>
<stop offset="0.290196" stop-color="#86C339"/>
<stop offset="0.870588" stop-color="#21A038"/>
<stop offset="1" stop-color="#21A038"/>
</linearGradient>
<linearGradient id="paint3_linear_17960_71134" x1="23.7856" y1="3.93257" x2="39.4987" y2="5.57386" gradientUnits="userSpaceOnUse">
<stop stop-color="#0291EB"/>
<stop offset="0.0509804" stop-color="#0291EB"/>
<stop offset="0.788235" stop-color="#0C8ACB"/>
<stop offset="1" stop-color="#0C8ACB"/>
</linearGradient>
<linearGradient id="paint4_linear_17960_71134" x1="7.91805" y1="42.4816" x2="25.0216" y2="45.2047" gradientUnits="userSpaceOnUse">
<stop stop-color="#F2E913"/>
<stop offset="0.129412" stop-color="#F2E913"/>
<stop offset="0.301961" stop-color="#EBE716"/>
<stop offset="0.529412" stop-color="#D9E01F"/>
<stop offset="0.8" stop-color="#BBD62D"/>
<stop offset="0.980392" stop-color="#A3CD39"/>
<stop offset="1" stop-color="#A3CD39"/>
</linearGradient>
<linearGradient id="paint5_linear_17960_71134" x1="4.38396" y1="23.7376" x2="7.33335" y2="5.90523" gradientUnits="userSpaceOnUse">
<stop stop-color="#A3CD39"/>
<stop offset="0.0705882" stop-color="#A3CD39"/>
<stop offset="0.258824" stop-color="#81C55F"/>
<stop offset="0.921569" stop-color="#0FA8E0"/>
<stop offset="1" stop-color="#0FA8E0"/>
</linearGradient>
</defs>
</svg>
