<svg width="178" height="39" viewBox="0 0 178 39" fill="none" xmlns="http://www.w3.org/2000/svg">
<path d="M32.1719 11.833H36.8824C38.1496 11.833 39.1619 12.2187 39.9195 12.99C40.677 13.7613 41.0558 14.8287 41.0558 16.1923C41.0558 17.5421 40.6563 18.6027 39.8575 19.374C39.0724 20.1453 38.0256 20.531 36.7171 20.531H33.7214V25.9233H32.1719V11.833ZM36.6758 19.25C37.5986 19.25 38.3011 18.9952 38.7831 18.4856C39.2652 17.9622 39.5062 17.1978 39.5062 16.1923C39.5062 15.1868 39.2652 14.4224 38.7831 13.899C38.3011 13.3756 37.5986 13.1139 36.6758 13.1139H33.7214V19.25H36.6758Z" fill="#2195F2"/>
<path d="M43.6415 25.9233V16.2543H45.0464V25.9233H43.6415ZM44.344 14.3742C44.0272 14.3742 43.7586 14.264 43.5382 14.0436C43.3316 13.8233 43.2283 13.5547 43.2283 13.2379C43.2283 12.9349 43.3316 12.6801 43.5382 12.4735C43.7586 12.2531 44.0272 12.1429 44.344 12.1429C44.647 12.1429 44.9087 12.2531 45.1291 12.4735C45.3494 12.6801 45.4596 12.9418 45.4596 13.2586C45.4596 13.5616 45.3494 13.8233 45.1291 14.0436C44.9087 14.264 44.647 14.3742 44.344 14.3742Z" fill="#2195F2"/>
<path d="M57.3925 16.2543V25.9233H55.9876V24.4977C55.5882 25.0487 55.0992 25.4825 54.5207 25.7993C53.9422 26.1023 53.3087 26.2538 52.62 26.2538C51.6972 26.2538 50.8708 26.0335 50.1408 25.5927C49.4108 25.152 48.8392 24.539 48.426 23.7539C48.0128 22.9689 47.8062 22.0736 47.8062 21.0681C47.8062 20.0764 48.0059 19.1949 48.4053 18.4236C48.8185 17.6385 49.3832 17.0256 50.0994 16.5849C50.8294 16.1441 51.6558 15.9237 52.5787 15.9237C53.2811 15.9237 53.9216 16.0821 54.5001 16.3989C55.0923 16.7019 55.5882 17.1358 55.9876 17.7005V16.2543H57.3925ZM52.5787 24.9729C53.2398 24.9729 53.8252 24.8076 54.3348 24.4771C54.8582 24.1465 55.2645 23.6851 55.5537 23.0928C55.843 22.5006 55.9876 21.8325 55.9876 21.0888C55.9876 20.345 55.843 19.677 55.5537 19.0847C55.2645 18.4925 54.8582 18.0311 54.3348 17.7005C53.8252 17.3699 53.2398 17.2047 52.5787 17.2047C51.9313 17.2047 51.3528 17.3699 50.8432 17.7005C50.3336 18.0311 49.9342 18.4925 49.6449 19.0847C49.3557 19.6632 49.2111 20.3244 49.2111 21.0681C49.2111 21.8257 49.3557 22.5006 49.6449 23.0928C49.9342 23.6851 50.3336 24.1465 50.8432 24.4771C51.3528 24.8076 51.9313 24.9729 52.5787 24.9729Z" fill="#2195F2"/>
<path d="M63.3953 26.2538C62.4587 26.2538 61.6323 26.0541 60.916 25.6547C60.2136 25.2553 59.6764 24.6905 59.3045 23.9605L60.5648 23.3407C61.0744 24.4288 62.073 24.9729 63.5605 24.9729C64.2768 24.9729 64.869 24.8421 65.3373 24.5804C65.8056 24.3187 66.0398 23.9123 66.0398 23.3614C66.0398 22.7967 65.8469 22.3766 65.4613 22.1011C65.0894 21.8257 64.4283 21.6466 63.4779 21.564C62.1556 21.4538 61.2053 21.1576 60.6268 20.6756C60.0621 20.1935 59.7797 19.553 59.7797 18.7542C59.7797 17.8589 60.1034 17.1633 60.7508 16.6675C61.3981 16.1717 62.2865 15.9237 63.4159 15.9237C65.3304 15.9237 66.632 16.6813 67.3207 18.1964L66.0604 18.8162C65.8263 18.2652 65.4819 17.8589 65.0274 17.5972C64.5867 17.3355 64.0151 17.2047 63.3126 17.2047C62.5964 17.2047 62.0455 17.3355 61.6598 17.5972C61.2879 17.8589 61.102 18.2308 61.102 18.7129C61.102 19.1674 61.3017 19.5393 61.7011 19.8285C62.1143 20.104 62.8168 20.283 63.8085 20.3657C65.0343 20.4759 65.9434 20.7789 66.5356 21.2747C67.1416 21.7568 67.4447 22.3973 67.4447 23.1961C67.4447 23.8435 67.2587 24.4013 66.8868 24.8696C66.515 25.3241 66.0191 25.6685 65.3993 25.9026C64.7795 26.1368 64.1115 26.2538 63.3953 26.2538Z" fill="#2195F2"/>
<path d="M70.0864 25.9233V17.5352H68.4336V16.2543H70.0864V13.052H71.4913V16.2543H73.7226V17.5352H71.4913V25.9233H70.0864Z" fill="#2195F2"/>
<path d="M80.0114 15.9237C80.342 15.9237 80.6587 15.9719 80.9618 16.0684V17.3493C80.6725 17.2115 80.3557 17.1427 80.0114 17.1427C79.4191 17.1427 78.8682 17.308 78.3586 17.6385C77.849 17.9691 77.4358 18.4512 77.119 19.0847C76.8159 19.7045 76.6644 20.4414 76.6644 21.2954V25.9233H75.2595V16.2543H76.6644V18.1964C77.0363 17.4801 77.5046 16.9223 78.0693 16.5229C78.6478 16.1234 79.2952 15.9237 80.0114 15.9237Z" fill="#2195F2"/>
<path d="M83.025 25.9233V16.2543H84.4299V25.9233H83.025ZM83.7275 14.3742C83.4107 14.3742 83.1421 14.264 82.9217 14.0436C82.7151 13.8233 82.6118 13.5547 82.6118 13.2379C82.6118 12.9349 82.7151 12.6801 82.9217 12.4735C83.1421 12.2531 83.4107 12.1429 83.7275 12.1429C84.0305 12.1429 84.2922 12.2531 84.5126 12.4735C84.733 12.6801 84.8431 12.9418 84.8431 13.2586C84.8431 13.5616 84.733 13.8233 84.5126 14.0436C84.2922 14.264 84.0305 14.3742 83.7275 14.3742Z" fill="#2195F2"/>
<path d="M95.3711 25.9233H93.7596L91.2391 21.8945L88.7185 25.9233H87.1484L90.2474 20.9648L87.3343 16.2543H88.9251L91.2597 20.0558L93.7183 16.2543H95.2678L92.2308 20.9442L95.3711 25.9233Z" fill="#2195F2"/>
<path d="M18.9756 22.6546C21.0764 22.6546 22.7794 20.9634 22.7794 18.8771C22.7794 16.7909 21.0764 15.0996 18.9756 15.0996C16.8749 15.0996 15.1719 16.7909 15.1719 18.8771C15.1719 20.9634 16.8749 22.6546 18.9756 22.6546Z" fill="#FFD833"/>
<path fill-rule="evenodd" clip-rule="evenodd" d="M21.5619 14.7327C20.7886 14.2546 19.896 14.0009 18.985 14.0003C18.3173 13.9999 17.6566 14.1355 17.0438 14.3988C11.1319 4.69981 19.4039 0.107422 19.4039 0.107422C19.4039 0.107422 27.8589 4.80381 21.5619 14.7327ZM15.9573 15.0333C14.6908 12.9512 13.9444 10.9428 13.7182 9.00824C10.8345 6.91053 7.45516 6.6117 5.77066 6.6117C5.41459 6.60866 5.05861 6.6243 4.7042 6.65858C4.7042 6.65858 3.17163 15.8477 14.3082 17.3917C14.6079 16.4594 15.1824 15.6378 15.9573 15.0333ZM14.0764 18.6153C14.069 18.7017 14.069 18.7882 14.069 18.8761C14.0687 19.6511 14.2548 20.4149 14.6118 21.1041C11.9479 22.7507 9.65712 23.3542 7.73956 23.3542C2.50758 23.3542 0 18.8936 0 18.8936C0 18.8936 2.63296 16.2539 6.55363 15.3926C8.37973 17.0933 10.8976 18.1758 14.0764 18.6153ZM15.3259 22.1299C12.8361 23.6783 10.4273 24.5044 8.14395 24.5923C5.59654 28.0861 5.61719 32.2229 5.61719 32.2229C6.3581 32.4025 7.11877 32.4891 7.88139 32.4807C10.7976 32.4807 15.6991 31.259 17.5208 23.5318C16.6756 23.2689 15.9174 22.7846 15.3259 22.1299ZM18.9816 23.7549H18.7559C18.0951 26.6055 16.9859 28.882 15.4297 30.5446C16.1672 34.721 19.0509 37.5613 19.0509 37.5613C19.0509 37.5613 27.379 32.9221 21.3431 23.1543C20.6196 23.5492 19.8072 23.7558 18.9816 23.7549Z" fill="url(#paint0_radial_17960_71194)"/>
<path d="M151.738 14.6877C150.371 14.6877 149.284 14.277 148.48 13.4555C147.676 12.6299 147.273 11.4709 147.273 9.97848C147.273 8.53888 147.676 7.39208 148.48 6.53808C149.289 5.68001 150.377 5.25098 151.745 5.25098C152.108 5.25098 152.435 5.27131 152.725 5.31198C153.015 5.35264 153.292 5.40958 153.558 5.48278C153.766 5.54378 153.992 5.62714 154.237 5.73288C154.482 5.83861 154.68 5.93011 154.832 6.00738V8.17288H154.599C154.489 8.07528 154.35 7.95938 154.182 7.82518C154.015 7.68691 153.825 7.55271 153.613 7.42258C153.4 7.29244 153.166 7.18264 152.908 7.09318C152.655 6.99964 152.39 6.95288 152.112 6.95288C151.781 6.95288 151.477 7.00574 151.2 7.11148C150.926 7.21314 150.665 7.39208 150.416 7.64828C150.187 7.88008 149.999 8.19321 149.852 8.58768C149.709 8.98215 149.638 9.44778 149.638 9.98458C149.638 10.5498 149.713 11.0256 149.864 11.412C150.015 11.7942 150.213 12.1033 150.458 12.3392C150.695 12.5669 150.959 12.7316 151.248 12.8333C151.542 12.935 151.834 12.9858 152.124 12.9858C152.427 12.9858 152.714 12.937 152.988 12.8394C153.262 12.7377 153.492 12.6259 153.68 12.5039C153.884 12.3778 154.064 12.2497 154.219 12.1196C154.374 11.9894 154.509 11.8735 154.623 11.7719H154.832V13.9069C154.664 13.9842 154.47 14.0736 154.25 14.1753C154.029 14.2729 153.803 14.3563 153.57 14.4254C153.284 14.5108 153.017 14.5759 152.767 14.6206C152.518 14.6653 152.175 14.6877 151.738 14.6877Z" fill="white"/>
<path d="M163.504 11.6072C163.504 12.0504 163.419 12.4591 163.247 12.8333C163.08 13.2034 162.849 13.5063 162.555 13.7422C162.204 14.0228 161.824 14.2221 161.416 14.34C161.012 14.4539 160.518 14.5108 159.934 14.5108H156.185V5.42788H162.812V7.16028H158.464V8.83778H159.97C160.518 8.83778 161.008 8.87845 161.44 8.95978C161.873 9.03705 162.261 9.20988 162.604 9.47828C162.918 9.72228 163.147 10.0293 163.29 10.3994C163.433 10.7654 163.504 11.168 163.504 11.6072ZM161.14 11.6743C161.14 11.5238 161.124 11.3815 161.091 11.2473C161.059 11.1131 160.987 10.989 160.877 10.8752C160.767 10.7654 160.616 10.6779 160.424 10.6129C160.232 10.5478 159.966 10.5153 159.627 10.5153H158.464V12.8272H159.627C160.097 12.8272 160.466 12.7275 160.736 12.5283C161.005 12.329 161.14 12.0443 161.14 11.6743Z" fill="white"/>
<path d="M172.496 14.5108H170.205V7.16028H167.088V14.5108H164.797V5.42788H172.496V14.5108Z" fill="white"/>
<path d="M150.324 21.9686H149.408V19.0284H148.161V21.9686H147.244V18.3354H150.324V21.9686Z" fill="white"/>
<path d="M151.081 21.9686V18.3354H153.548V19.0284H151.993V19.6652H153.426V20.3582H151.993V21.2756H153.548V21.9686H151.081Z" fill="white"/>
<path d="M156.976 19.4822C156.976 19.6514 156.949 19.8124 156.895 19.9653C156.841 20.1182 156.763 20.2459 156.662 20.3484C156.6 20.4118 156.531 20.4704 156.456 20.5241C156.383 20.5778 156.301 20.6233 156.211 20.6607C156.122 20.6981 156.024 20.7274 155.917 20.7486C155.813 20.7697 155.695 20.7803 155.565 20.7803H155.084V21.9686H154.168V18.3354H155.584C155.795 18.3354 155.976 18.3549 156.128 18.394C156.282 18.4314 156.42 18.4916 156.545 18.5745C156.682 18.6656 156.788 18.7876 156.863 18.9405C156.938 19.0918 156.976 19.2724 156.976 19.4822ZM156.035 19.5042C156.035 19.4017 156.01 19.3138 155.961 19.2406C155.912 19.1658 155.854 19.1146 155.785 19.0869C155.698 19.0495 155.615 19.0284 155.535 19.0235C155.457 19.017 155.35 19.0137 155.214 19.0137H155.084V20.102H155.148C155.235 20.102 155.316 20.1012 155.393 20.0995C155.47 20.0979 155.537 20.0922 155.594 20.0824C155.643 20.0743 155.694 20.0589 155.748 20.0361C155.804 20.0117 155.846 19.9848 155.876 19.9556C155.938 19.8954 155.979 19.8328 156.001 19.7677C156.024 19.7026 156.035 19.6148 156.035 19.5042Z" fill="white"/>
<path d="M157.466 21.9686V18.3354H159.933V19.0284H158.377V19.6652H159.81V20.3582H158.377V21.2756H159.933V21.9686H157.466Z" fill="white"/>
<path d="M163.471 20.8559C163.471 21.0365 163.436 21.1951 163.368 21.3317C163.299 21.4684 163.207 21.5814 163.091 21.6709C162.954 21.7782 162.803 21.8547 162.638 21.9002C162.474 21.9458 162.266 21.9686 162.013 21.9686H160.553V18.3354H161.841C162.109 18.3354 162.312 18.346 162.449 18.3671C162.588 18.3866 162.718 18.4289 162.838 18.494C162.969 18.564 163.066 18.6575 163.13 18.7746C163.195 18.8917 163.228 19.0267 163.228 19.1796C163.228 19.357 163.183 19.5147 163.093 19.653C163.005 19.7913 162.883 19.8929 162.726 19.958V19.9775C162.951 20.0247 163.132 20.1215 163.267 20.2679C163.403 20.4127 163.471 20.6087 163.471 20.8559ZM162.297 19.3626C162.297 19.3041 162.282 19.2439 162.25 19.1821C162.221 19.1203 162.175 19.0755 162.111 19.0479C162.05 19.0219 161.979 19.008 161.895 19.0064C161.814 19.0032 161.691 19.0015 161.528 19.0015H161.464V19.7701H161.579C161.736 19.7701 161.845 19.7685 161.908 19.7652C161.971 19.762 162.037 19.7449 162.103 19.714C162.177 19.6798 162.228 19.6327 162.255 19.5725C162.283 19.5123 162.297 19.4424 162.297 19.3626ZM162.527 20.8388C162.527 20.7266 162.504 20.6388 162.459 20.5753C162.413 20.5119 162.344 20.4639 162.253 20.4314C162.197 20.4102 162.121 20.3988 162.023 20.3972C161.926 20.394 161.796 20.3923 161.633 20.3923H161.464V21.3024H161.513C161.752 21.3024 161.916 21.3008 162.008 21.2976C162.099 21.2943 162.193 21.2724 162.287 21.2317C162.371 21.1959 162.431 21.1438 162.469 21.0755C162.508 21.0056 162.527 20.9267 162.527 20.8388Z" fill="white"/>
<path d="M167.319 20.1532C167.319 20.7404 167.162 21.2024 166.847 21.5391C166.531 21.8758 166.099 22.0442 165.551 22.0442C165 22.0442 164.568 21.8742 164.255 21.5342C163.941 21.1926 163.784 20.7323 163.784 20.1532C163.784 19.5692 163.941 19.1081 164.255 18.7697C164.568 18.4298 165 18.2598 165.551 18.2598C166.099 18.2598 166.531 18.4289 166.847 18.7673C167.162 19.104 167.319 19.566 167.319 20.1532ZM166.374 20.1508C166.374 19.9344 166.351 19.7506 166.305 19.5993C166.261 19.4464 166.201 19.3212 166.126 19.2236C166.048 19.1243 165.959 19.0536 165.859 19.0113C165.761 18.9674 165.659 18.9454 165.553 18.9454C165.44 18.9454 165.338 18.9657 165.247 19.0064C165.155 19.0454 165.067 19.1162 164.982 19.2187C164.907 19.313 164.846 19.4383 164.798 19.5944C164.753 19.7506 164.73 19.9369 164.73 20.1532C164.73 20.3761 164.752 20.5615 164.796 20.7095C164.84 20.8559 164.901 20.9787 164.977 21.078C165.056 21.1788 165.145 21.2512 165.244 21.2951C165.344 21.3374 165.447 21.3586 165.553 21.3586C165.661 21.3586 165.765 21.3358 165.867 21.2902C165.968 21.2431 166.055 21.1707 166.129 21.0731C166.207 20.9674 166.268 20.8445 166.31 20.7046C166.353 20.5631 166.374 20.3785 166.374 20.1508Z" fill="white"/>
<path d="M171.235 22.8031H170.394V21.9564H168.356V22.8031H167.515V21.2732H167.76C167.932 20.9186 168.068 20.4875 168.167 19.98C168.267 19.4708 168.317 18.9226 168.317 18.3354H170.889V21.2732H171.235V22.8031ZM169.973 21.2732V19.0284H169.174C169.143 19.4676 169.082 19.8799 168.99 20.2654C168.899 20.6493 168.784 20.9852 168.645 21.2732H169.973Z" fill="white"/>
<path d="M150.324 27.5663H149.408V24.6261H148.161V27.5663H147.244V23.9331H150.324V27.5663Z" fill="white"/>
<path d="M154.403 25.7509C154.403 26.3382 154.246 26.8001 153.93 27.1369C153.615 27.4736 153.183 27.6419 152.634 27.6419C152.084 27.6419 151.652 27.472 151.338 27.132C151.025 26.7904 150.868 26.33 150.868 25.7509C150.868 25.167 151.025 24.7058 151.338 24.3675C151.652 24.0275 152.084 23.8575 152.634 23.8575C153.183 23.8575 153.615 24.0267 153.93 24.365C154.246 24.7017 154.403 25.1637 154.403 25.7509ZM153.458 25.7485C153.458 25.5322 153.435 25.3483 153.389 25.1971C153.345 25.0442 153.285 24.9189 153.21 24.8213C153.132 24.7221 153.043 24.6513 152.943 24.609C152.845 24.5651 152.743 24.5431 152.637 24.5431C152.524 24.5431 152.422 24.5635 152.331 24.6041C152.239 24.6432 152.151 24.7139 152.066 24.8164C151.991 24.9108 151.93 25.036 151.882 25.1922C151.837 25.3483 151.814 25.5346 151.814 25.7509C151.814 25.9738 151.836 26.1592 151.88 26.3073C151.924 26.4537 151.984 26.5765 152.061 26.6757C152.14 26.7766 152.229 26.8489 152.328 26.8929C152.428 26.9352 152.531 26.9563 152.637 26.9563C152.745 26.9563 152.849 26.9335 152.95 26.888C153.052 26.8408 153.139 26.7684 153.213 26.6708C153.291 26.5651 153.351 26.4423 153.394 26.3024C153.436 26.1609 153.458 25.9762 153.458 25.7485Z" fill="white"/>
<path d="M159.497 27.5663H158.58V25.9559H157.333V27.5663H156.417V23.9331H157.333V25.2629H158.58V23.9331H159.497V27.5663Z" fill="white"/>
<path d="M163.576 25.7509C163.576 26.3382 163.418 26.8001 163.103 27.1369C162.788 27.4736 162.356 27.6419 161.807 27.6419C161.257 27.6419 160.825 27.472 160.511 27.132C160.197 26.7904 160.041 26.33 160.041 25.7509C160.041 25.167 160.197 24.7058 160.511 24.3675C160.825 24.0275 161.257 23.8575 161.807 23.8575C162.356 23.8575 162.788 24.0267 163.103 24.365C163.418 24.7017 163.576 25.1637 163.576 25.7509ZM162.63 25.7485C162.63 25.5322 162.607 25.3483 162.562 25.1971C162.518 25.0442 162.458 24.9189 162.383 24.8213C162.304 24.7221 162.215 24.6513 162.116 24.609C162.018 24.5651 161.916 24.5431 161.81 24.5431C161.697 24.5431 161.595 24.5635 161.503 24.6041C161.412 24.6432 161.324 24.7139 161.239 24.8164C161.164 24.9108 161.102 25.036 161.055 25.1922C161.009 25.3483 160.986 25.5346 160.986 25.7509C160.986 25.9738 161.008 26.1592 161.052 26.3073C161.097 26.4537 161.157 26.5765 161.234 26.6757C161.312 26.7766 161.401 26.8489 161.501 26.8929C161.6 26.9352 161.703 26.9563 161.81 26.9563C161.917 26.9563 162.022 26.9335 162.123 26.888C162.224 26.8408 162.312 26.7684 162.385 26.6708C162.464 26.5651 162.524 26.4423 162.567 26.3024C162.609 26.1609 162.63 25.9762 162.63 25.7485Z" fill="white"/>
<path d="M167.846 27.5663H166.935V25.158L166.271 26.7123H165.646L164.982 25.158V27.5663H164.12V23.9331H165.176L165.984 25.7265L166.79 23.9331H167.846V27.5663Z" fill="white"/>
<path d="M168.603 27.5663V23.9331H171.07V24.6261H169.515V25.2629H170.948V25.9559H169.515V26.8733H171.07V27.5663H168.603Z" fill="white"/>
<path d="M174.498 25.0799C174.498 25.2491 174.471 25.4102 174.417 25.5631C174.363 25.716 174.286 25.8437 174.184 25.9461C174.122 26.0096 174.054 26.0681 173.978 26.1218C173.905 26.1755 173.823 26.2211 173.733 26.2585C173.644 26.2959 173.546 26.3252 173.439 26.3463C173.335 26.3675 173.217 26.378 173.087 26.378H172.606V27.5663H171.69V23.9331H173.106C173.317 23.9331 173.498 23.9527 173.65 23.9917C173.804 24.0291 173.943 24.0893 174.067 24.1723C174.204 24.2634 174.31 24.3854 174.385 24.5383C174.46 24.6895 174.498 24.8701 174.498 25.0799ZM173.557 25.1019C173.557 24.9994 173.533 24.9116 173.484 24.8384C173.435 24.7636 173.376 24.7123 173.307 24.6847C173.221 24.6472 173.137 24.6261 173.057 24.6212C172.979 24.6147 172.872 24.6115 172.736 24.6115H172.606V25.6997H172.67C172.757 25.6997 172.838 25.6989 172.915 25.6973C172.992 25.6956 173.059 25.6899 173.116 25.6802C173.165 25.6721 173.217 25.6566 173.27 25.6338C173.326 25.6094 173.368 25.5826 173.398 25.5533C173.46 25.4931 173.502 25.4305 173.523 25.3654C173.546 25.3004 173.557 25.2125 173.557 25.1019Z" fill="white"/>
<path d="M178.001 23.9331L176.784 26.8392C176.712 27.0084 176.631 27.1417 176.541 27.2393C176.453 27.3369 176.36 27.411 176.262 27.4614C176.164 27.5118 176.066 27.546 175.968 27.5639C175.87 27.5801 175.767 27.5883 175.659 27.5883C175.546 27.5883 175.415 27.5858 175.265 27.5809C175.116 27.5761 175.016 27.5712 174.966 27.5663V26.7953H175.022C175.037 26.7985 175.06 26.8026 175.091 26.8075C175.122 26.8123 175.161 26.8172 175.208 26.8221C175.248 26.8254 175.29 26.8286 175.336 26.8319C175.381 26.8351 175.423 26.8367 175.461 26.8367C175.57 26.8367 175.673 26.8237 175.769 26.7977C175.867 26.7701 175.933 26.7237 175.965 26.6586L174.615 23.9331H175.605L176.387 25.6363L177.048 23.9331H178.001Z" fill="white"/>
<path d="M147.945 33.1641V30.2239H146.867V29.5309H149.939V30.2239H148.861V33.1641H147.945Z" fill="white"/>
<path d="M150.317 33.1641V29.5309H152.784V30.2239H151.228V30.8607H152.661V31.5537H151.228V32.4711H152.784V33.1641H150.317Z" fill="white"/>
<path d="M156.545 33.1641H155.628V30.2239H154.707C154.701 30.3654 154.694 30.498 154.687 30.6216C154.683 30.7436 154.677 30.8599 154.67 30.9705C154.652 31.2877 154.623 31.5618 154.582 31.7928C154.541 32.0221 154.495 32.21 154.442 32.3564C154.385 32.5126 154.327 32.6354 154.269 32.7249C154.21 32.8143 154.154 32.8851 154.102 32.9371C154.024 33.0152 153.926 33.077 153.808 33.1226C153.69 33.1665 153.574 33.1885 153.46 33.1885C153.383 33.1885 153.299 33.1852 153.208 33.1787C153.116 33.1722 153.058 33.1673 153.034 33.1641V32.3613H153.068C153.084 32.3629 153.1 32.3646 153.115 32.3662C153.131 32.3678 153.151 32.3686 153.176 32.3686C153.217 32.3686 153.269 32.3621 153.333 32.3491C153.396 32.3361 153.445 32.3141 153.477 32.2832C153.595 32.1726 153.675 32.0018 153.717 31.7708C153.761 31.5382 153.795 31.2031 153.818 30.7655C153.828 30.5655 153.833 30.3857 153.835 30.2263C153.838 30.0669 153.845 29.8351 153.854 29.5309H156.545V33.1641Z" fill="white"/>
<path d="M157.299 33.1641V29.5309H159.766V30.2239H158.211V30.8607H159.644V31.5537H158.211V32.4711H159.766V33.1641H157.299Z" fill="white"/>
<path d="M164.269 31.3194C164.269 31.757 164.121 32.1035 163.823 32.3589C163.526 32.6126 163.14 32.7598 162.665 32.8005V33.1933H161.753V32.8005C161.278 32.7598 160.892 32.6142 160.594 32.3637C160.297 32.1116 160.148 31.7635 160.148 31.3194C160.148 30.877 160.293 30.5337 160.582 30.2897C160.871 30.0457 161.262 29.9026 161.753 29.8603V29.4943H162.665V29.8603C163.141 29.8945 163.528 30.0352 163.823 30.2824C164.121 30.528 164.269 30.8737 164.269 31.3194ZM163.328 31.3048C163.328 31.0754 163.27 30.8884 163.152 30.7436C163.034 30.5972 162.872 30.5053 162.665 30.4679V32.1954C162.905 32.1433 163.075 32.0449 163.177 31.9001C163.278 31.7537 163.328 31.5553 163.328 31.3048ZM161.753 32.1954V30.4679C161.538 30.5069 161.373 30.5996 161.258 30.746C161.146 30.8908 161.089 31.077 161.089 31.3048C161.089 31.552 161.142 31.7505 161.248 31.9001C161.355 32.0482 161.523 32.1466 161.753 32.1954Z" fill="white"/>
<path d="M168.108 31.3487C168.108 31.9359 167.951 32.3979 167.636 32.7346C167.32 33.0713 166.888 33.2397 166.339 33.2397C165.789 33.2397 165.357 33.0697 165.043 32.7297C164.73 32.3881 164.573 31.9278 164.573 31.3487C164.573 30.7647 164.73 30.3036 165.043 29.9652C165.357 29.6252 165.789 29.4553 166.339 29.4553C166.888 29.4553 167.32 29.6244 167.636 29.9628C167.951 30.2995 168.108 30.7615 168.108 31.3487ZM167.163 31.3463C167.163 31.1299 167.14 30.9461 167.094 30.7948C167.05 30.6419 166.99 30.5167 166.915 30.4191C166.837 30.3198 166.748 30.2491 166.648 30.2068C166.55 30.1629 166.448 30.1409 166.342 30.1409C166.229 30.1409 166.127 30.1612 166.036 30.2019C165.944 30.2409 165.856 30.3117 165.771 30.4142C165.696 30.5085 165.635 30.6338 165.587 30.7899C165.542 30.9461 165.519 31.1324 165.519 31.3487C165.519 31.5716 165.541 31.757 165.585 31.905C165.629 32.0514 165.689 32.1742 165.766 32.2735C165.845 32.3743 165.934 32.4467 166.033 32.4906C166.133 32.5329 166.236 32.5541 166.342 32.5541C166.45 32.5541 166.554 32.5313 166.656 32.4857C166.757 32.4386 166.844 32.3662 166.918 32.2686C166.996 32.1628 167.057 32.04 167.099 31.9001C167.141 31.7586 167.163 31.574 167.163 31.3463Z" fill="white"/>
<path d="M171.732 33.1641H170.816V31.5537H169.569V33.1641H168.652V29.5309H169.569V30.8607H170.816V29.5309H171.732V33.1641Z" fill="white"/>
<path d="M172.097 33.1641L173.329 29.5309H174.329L175.561 33.1641H174.618L174.39 32.4223H173.243L173.016 33.1641H172.097ZM174.189 31.7635L173.817 30.5655L173.444 31.7635H174.189Z" fill="white"/>
<path fill-rule="evenodd" clip-rule="evenodd" d="M126.203 38.5102L144.392 27.9536L135.509 27.7676L131.158 30.3587L126.203 38.5102Z" fill="#027E35"/>
<path fill-rule="evenodd" clip-rule="evenodd" d="M113.531 8.30176L144.397 27.9547L135.514 27.7687L118.008 16.6488L113.531 8.30176Z" fill="#2683C9"/>
<path fill-rule="evenodd" clip-rule="evenodd" d="M113.527 8.30176L113.164 29.6743L117.92 21.6311L118.004 16.6488L113.527 8.30176Z" fill="#5A58A3"/>
<path fill-rule="evenodd" clip-rule="evenodd" d="M126.513 22.0568L113.164 29.677L117.92 21.6337L122.114 19.2627L126.513 22.0568Z" fill="#964A95"/>
<path fill-rule="evenodd" clip-rule="evenodd" d="M126.203 38.5109L126.512 22.0537L131.251 25.0639L131.158 30.3593L126.203 38.5109Z" fill="#62B22F"/>
<path fill-rule="evenodd" clip-rule="evenodd" d="M126.969 0.107422L144.738 11.5422L135.772 11.3499L131.547 8.75879L126.969 0.107422Z" fill="#EE7024"/>
<path fill-rule="evenodd" clip-rule="evenodd" d="M126.973 0.107422L126.617 16.6365L131.202 19.5556L131.551 8.75879L126.973 0.107422Z" fill="#FAB51A"/>
<path fill-rule="evenodd" clip-rule="evenodd" d="M131.203 19.5553L144.743 11.5419L135.778 11.3496L131.434 13.9278L131.203 19.5553Z" fill="#DB0954"/>
<defs>
<radialGradient id="paint0_radial_17960_71194" cx="0" cy="0" r="1" gradientUnits="userSpaceOnUse" gradientTransform="translate(19.1541 18.8344) rotate(-180) scale(11.4976 11.4955)">
<stop stop-color="#FFDE51"/>
<stop offset="1" stop-color="#FE4080"/>
</radialGradient>
</defs>
</svg>
