<svg width="142" height="56" viewBox="0 0 142 56" fill="none" xmlns="http://www.w3.org/2000/svg">
<path d="M47.5938 17.3438H54.5615C56.4358 17.3438 57.9333 17.9142 59.0538 19.0551C60.1744 20.196 60.7346 21.775 60.7346 23.792C60.7346 25.7886 60.1438 27.3573 58.9622 28.4982C57.8009 29.6391 56.2525 30.2096 54.317 30.2096H49.8858V38.1858H47.5938V17.3438ZM54.2559 28.3149C55.6209 28.3149 56.66 27.938 57.373 27.1841C58.0861 26.41 58.4426 25.2792 58.4426 23.792C58.4426 22.3047 58.0861 21.174 57.373 20.3998C56.66 19.6256 55.6209 19.2385 54.2559 19.2385H49.8858V28.3149H54.2559Z" fill="#2195F2"/>
<path d="M64.5595 38.1858V23.8836H66.6375V38.1858H64.5595ZM65.5985 21.1027C65.1299 21.1027 64.7326 20.9397 64.4066 20.6137C64.101 20.2877 63.9482 19.8904 63.9482 19.4218C63.9482 18.9736 64.101 18.5967 64.4066 18.2911C64.7326 17.9651 65.1299 17.8022 65.5985 17.8022C66.0467 17.8022 66.4338 17.9651 66.7598 18.2911C67.0858 18.5967 67.2488 18.9838 67.2488 19.4524C67.2488 19.9006 67.0858 20.2877 66.7598 20.6137C66.4338 20.9397 66.0467 21.1027 65.5985 21.1027Z" fill="#2195F2"/>
<path d="M84.8997 23.8836V38.1858H82.8216V36.0772C82.2307 36.8921 81.5075 37.5339 80.6518 38.0025C79.7961 38.4507 78.8589 38.6748 77.8403 38.6748C76.4752 38.6748 75.2528 38.3488 74.173 37.6969C73.0932 37.0449 72.2477 36.1383 71.6365 34.977C71.0253 33.8157 70.7197 32.4914 70.7197 31.0042C70.7197 29.5373 71.0151 28.2334 71.606 27.0925C72.2172 25.9312 73.0525 25.0246 74.1119 24.3726C75.1917 23.7207 76.4141 23.3947 77.7791 23.3947C78.8182 23.3947 79.7656 23.629 80.6212 24.0976C81.4973 24.5458 82.2307 25.1875 82.8216 26.0229V23.8836H84.8997ZM77.7791 36.7801C78.7571 36.7801 79.6229 36.5356 80.3768 36.0466C81.1509 35.5576 81.752 34.8751 82.1798 33.9991C82.6077 33.123 82.8216 32.1349 82.8216 31.0347C82.8216 29.9346 82.6077 28.9464 82.1798 28.0704C81.752 27.1943 81.1509 26.5118 80.3768 26.0229C79.6229 25.5339 78.7571 25.2894 77.7791 25.2894C76.8216 25.2894 75.9659 25.5339 75.2121 26.0229C74.4583 26.5118 73.8674 27.1943 73.4396 28.0704C73.0117 28.9261 72.7978 29.904 72.7978 31.0042C72.7978 32.1247 73.0117 33.123 73.4396 33.9991C73.8674 34.8751 74.4583 35.5576 75.2121 36.0466C75.9659 36.5356 76.8216 36.7801 77.7791 36.7801Z" fill="#2195F2"/>
<path d="M93.7788 38.6748C92.3935 38.6748 91.171 38.3794 90.1116 37.7885C89.0726 37.1977 88.278 36.3624 87.7279 35.2826L89.5921 34.3658C90.3459 35.9753 91.823 36.7801 94.0233 36.7801C95.0828 36.7801 95.9588 36.5865 96.6515 36.1994C97.3442 35.8123 97.6906 35.2113 97.6906 34.3964C97.6906 33.561 97.4053 32.9397 96.8349 32.5322C96.2848 32.1247 95.3069 31.8599 93.9011 31.7376C91.9452 31.5746 90.5395 31.1366 89.6838 30.4235C88.8485 29.7105 88.4308 28.7631 88.4308 27.5814C88.4308 26.2571 88.9096 25.2283 89.8671 24.4948C90.8247 23.7614 92.1388 23.3947 93.8094 23.3947C96.6413 23.3947 98.5666 24.5152 99.5853 26.7563L97.7211 27.6731C97.3748 26.8582 96.8654 26.2571 96.1931 25.8701C95.5412 25.483 94.6957 25.2894 93.6566 25.2894C92.5972 25.2894 91.7822 25.483 91.2118 25.8701C90.6617 26.2571 90.3867 26.8072 90.3867 27.5203C90.3867 28.1926 90.6821 28.7427 91.2729 29.1706C91.8841 29.578 92.9232 29.8429 94.3901 29.9651C96.2033 30.1281 97.5479 30.5763 98.424 31.3098C99.3204 32.0228 99.7687 32.9702 99.7687 34.1519C99.7687 35.1094 99.4936 35.9346 98.9435 36.6273C98.3934 37.2996 97.66 37.8089 96.7432 38.1553C95.8264 38.5016 94.8383 38.6748 93.7788 38.6748Z" fill="#2195F2"/>
<path d="M103.676 38.1858V25.7784H101.231V23.8836H103.676V19.1468H105.754V23.8836H109.055V25.7784H105.754V38.1858H103.676Z" fill="#2195F2"/>
<path d="M118.357 23.3947C118.846 23.3947 119.315 23.466 119.763 23.6086V25.5033C119.335 25.2996 118.866 25.1977 118.357 25.1977C117.481 25.1977 116.666 25.4422 115.912 25.9312C115.159 26.4201 114.547 27.1332 114.079 28.0704C113.63 28.9872 113.406 30.0772 113.406 31.3403V38.1858H111.328V23.8836H113.406V26.7563C113.956 25.6969 114.649 24.8718 115.484 24.2809C116.34 23.6901 117.298 23.3947 118.357 23.3947Z" fill="#2195F2"/>
<path d="M122.815 38.1858V23.8836H124.893V38.1858H122.815ZM123.854 21.1027C123.385 21.1027 122.988 20.9397 122.662 20.6137C122.356 20.2877 122.204 19.8904 122.204 19.4218C122.204 18.9736 122.356 18.5967 122.662 18.2911C122.988 17.9651 123.385 17.8022 123.854 17.8022C124.302 17.8022 124.689 17.9651 125.015 18.2911C125.341 18.5967 125.504 18.9838 125.504 19.4524C125.504 19.9006 125.341 20.2877 125.015 20.6137C124.689 20.9397 124.302 21.1027 123.854 21.1027Z" fill="#2195F2"/>
<path d="M141.077 38.1858H138.693L134.965 32.2266L131.237 38.1858H128.914L133.498 30.8514L129.189 23.8836H131.542L134.996 29.5067L138.632 23.8836H140.924L136.432 30.8208L141.077 38.1858Z" fill="#2195F2"/>
<path d="M28.0717 33.3511C31.1791 33.3511 33.6982 30.8494 33.6982 27.7634C33.6982 24.6775 31.1791 22.1758 28.0717 22.1758C24.9644 22.1758 22.4453 24.6775 22.4453 27.7634C22.4453 30.8494 24.9644 33.3511 28.0717 33.3511Z" fill="#FFD833"/>
<path fill-rule="evenodd" clip-rule="evenodd" d="M31.8881 21.6335C30.7442 20.9263 29.4238 20.551 28.0764 20.5501C27.0887 20.5495 26.1115 20.7501 25.205 21.1395C16.4601 6.79298 28.696 0 28.696 0C28.696 0 41.2025 6.94682 31.8881 21.6335ZM23.6026 22.0787C21.7291 18.9989 20.6251 16.0282 20.2905 13.1666C16.025 10.0637 11.0263 9.62164 8.53465 9.62164C8.00796 9.61714 7.48139 9.64029 6.95716 9.69098C6.95716 9.69098 4.69021 23.2834 21.1633 25.5673C21.6065 24.1882 22.4563 22.9729 23.6026 22.0787ZM20.8215 27.3764C20.8106 27.5042 20.8106 27.6321 20.8106 27.7621C20.8102 28.9085 21.0855 30.0384 21.6135 31.0578C17.6731 33.4933 14.2847 34.386 11.4482 34.386C3.70917 34.386 0 27.7881 0 27.7881C0 27.7881 3.89462 23.8835 9.69401 22.6094C12.3952 25.1251 16.1196 26.7263 20.8215 27.3764ZM22.6657 32.5742C18.9827 34.8645 15.4197 36.0866 12.0422 36.2166C8.27415 41.3845 8.3047 47.5036 8.3047 47.5036C9.40064 47.7693 10.5258 47.8974 11.6539 47.885C15.9674 47.885 23.2177 46.0778 25.9123 34.6479C24.6621 34.259 23.5406 33.5427 22.6657 32.5742ZM28.0742 34.9782H27.7404C26.7629 39.1949 25.1222 42.5621 22.8203 45.0214C23.9112 51.1991 28.1768 55.4005 28.1768 55.4005C28.1768 55.4005 40.4956 48.5382 31.5674 34.0898C30.4972 34.674 29.2955 34.9796 28.0742 34.9782Z" fill="url(#paint0_radial_17960_83298)"/>
<defs>
<radialGradient id="paint0_radial_17960_83298" cx="0" cy="0" r="1" gradientUnits="userSpaceOnUse" gradientTransform="translate(28.3277 27.7003) rotate(-180) scale(17.0042 17.0038)">
<stop stop-color="#FFDE51"/>
<stop offset="1" stop-color="#FE4080"/>
</radialGradient>
</defs>
</svg>
