<svg width="125" height="54" viewBox="0 0 125 54" fill="none" xmlns="http://www.w3.org/2000/svg">
<path d="M50.4817 51.2339C50.2439 50.5861 49.8128 50.1444 49.5006 49.5703C48.7425 48.5838 47.8505 47.7299 46.9586 46.876C46.6464 46.7729 46.5127 46.4785 46.2153 46.3607C46.0221 46.1104 45.7099 45.9779 45.4572 45.7865C44.9518 45.4037 44.4018 45.0798 43.8369 44.7559C42.7666 44.0786 41.4436 43.6517 40.1354 43.21C38.7232 42.8714 37.2367 42.6211 35.6907 42.415C34.1595 42.1941 32.6284 41.988 31.4689 41.3844C30.7999 41.193 30.3094 40.8249 29.7296 40.5304C29.1945 40.1771 28.6147 39.8826 28.1688 39.441C27.6187 39.1171 27.2768 38.5723 26.8457 38.1306C26.6971 37.8362 26.4444 37.6595 26.3255 37.3356C26.1768 37.2767 26.1322 37.1 26.043 36.997C25.939 36.8792 25.939 36.6436 25.7606 36.5994C25.6714 37.2031 25.7011 37.9245 25.7606 38.5429C25.8349 38.8079 25.8646 39.1318 25.939 39.3968C25.9836 39.6324 26.2065 40.0151 26.1173 40.1918C21.4793 39.9563 18.09 38.4987 15.1467 36.5847C13.6899 35.6277 12.4412 34.4646 11.2817 33.2132C10.7763 32.5212 10.2262 31.8587 9.78028 31.0931C9.31946 30.3423 8.93296 29.4883 8.51673 28.6933C7.83292 26.9707 7.19371 25.204 6.95586 23.0397C6.64369 21.0227 6.71801 18.4462 7.17884 16.5764C7.34236 15.5458 7.68426 14.6772 7.98157 13.7791C8.17482 13.3668 8.38294 12.9546 8.56132 12.5276C8.81403 12.1743 8.94782 11.6884 9.25999 11.3793C10.1073 9.80393 11.3709 8.6261 12.6642 7.49245C14.0615 6.47657 15.6521 5.6521 17.5697 5.15152C19.4131 4.73928 21.9253 4.66567 23.9173 5.09263C27.9607 5.91711 31.0081 7.71329 33.5649 10.01C36.1515 12.2626 38.1434 15.1189 39.5111 18.5934C40.9233 21.8914 41.4138 27.0296 40.1503 30.7692C39.63 30.4748 39.1097 30.195 38.5894 29.9153C37.9651 29.7386 37.3556 29.5325 36.6272 29.4589C35.7501 29.4442 34.8879 29.4589 34.323 29.7386C35.4677 29.6208 36.3893 29.93 37.1029 30.195C37.5191 30.357 37.7569 30.46 38.084 30.6514C38.7232 31.0195 39.2881 31.3581 39.7638 31.8587C41.1165 33.0365 42.0828 34.5971 42.5436 36.6583C42.5436 36.7172 42.6179 36.7025 42.6031 36.5994C42.6625 36.5847 42.6923 36.5406 42.722 36.4817C42.7963 36.3933 42.8855 36.305 42.9598 36.2019C43.1085 36.0253 43.2571 35.8486 43.3612 35.6277C43.6734 35.2597 43.9261 34.8474 44.1639 34.4205C44.7139 33.6254 45.1302 32.7126 45.6059 31.844C46.4235 29.9889 47.0924 27.9866 47.5086 25.7193C48.3411 20.6841 47.3451 15.9139 45.6059 12.3951C43.822 8.84695 41.3246 6.00544 38.0988 3.87064C34.8433 1.75055 31.0378 0.189931 25.8052 0.0427033C25.7754 -0.0603563 25.7308 0.0574262 25.6268 0.0427033C22.8618 -0.0456335 20.632 0.33716 18.4171 0.896627C17.3914 1.23525 16.3211 1.52971 15.4143 1.98611C14.3737 2.32474 13.5412 2.88421 12.5898 3.29645C12.2479 3.62035 11.7276 3.7823 11.3709 4.09148C10.9101 4.31232 10.5681 4.66567 10.1073 4.88651C9.36405 5.53431 8.57619 6.1085 7.84778 6.77103C7.13424 7.41883 6.5099 8.15497 5.82609 8.83222C5.72203 9.06779 5.54365 9.22974 5.36526 9.40641C5.24634 9.62726 5.09769 9.81865 4.90444 9.9806C4.83011 10.2456 4.59226 10.3487 4.50307 10.6137C4.30982 10.7609 4.26522 11.0554 4.04224 11.1879C3.84899 11.659 3.50709 11.9976 3.28411 12.4393C3.01653 12.8663 2.80842 13.3374 2.54084 13.7496C2.12461 14.7066 1.67865 15.6342 1.33674 16.6648C0.979973 17.6659 0.682666 18.726 0.47455 19.8743C0.251569 20.9491 0.043454 22.3478 0.0731848 23.4814C-0.0754691 23.8937 0.043454 24.6592 0.0731848 25.1451C0.0731848 25.2334 0.0137233 25.2629 0.0137233 25.3218C0.0137233 25.8665 0.162377 26.529 0.192108 26.8677C0.311031 28.1191 0.534012 29.2822 0.890781 30.2981C1.11376 31.4317 1.58945 32.3151 1.93136 33.331C2.45165 34.1849 2.80842 35.2008 3.43276 35.9664C3.89359 36.8645 4.54767 37.5712 5.17201 38.3073C5.84096 39.014 6.5099 39.7354 7.31263 40.3096C8.7843 41.5758 10.5087 42.5916 12.3966 43.4603C15.9197 45.1534 21.182 46.2576 25.9092 45.9779C27.1133 45.8159 28.3323 45.6687 29.4323 45.4037C30.4432 45.0356 31.6175 44.8148 32.8365 44.6676C35.6163 44.4909 38.0245 44.7412 40.1651 45.3595C42.3355 45.9337 44.2085 46.8024 45.8289 47.936C46.691 48.4366 47.4046 49.0844 48.133 49.7028C48.8763 50.3358 49.4709 51.1161 50.1547 51.8228C50.2439 52.0879 50.4223 52.2792 50.556 52.5148C50.7344 52.7062 50.6452 53.1479 51.0763 53.089C51.3439 52.824 51.0317 52.4412 51.0169 52.1173C50.7493 51.8376 50.6898 51.4695 50.4817 51.2339Z" fill="#FCB316"/>
<path d="M39.6883 35.5673C39.6288 35.5673 39.614 35.6114 39.5694 35.6262C39.4653 35.847 39.5099 36.2004 39.5694 36.4212C39.8815 37.0543 39.9856 37.8788 40.6694 38.1438C40.9964 38.0407 40.9667 37.5696 40.9518 37.1132C40.8032 36.5537 40.5951 36.0531 40.2532 35.6851C40.0153 35.5967 39.8518 35.4495 39.6883 35.5673ZM35.6449 37.1721C35.6449 37.1426 35.6003 37.1132 35.5854 37.1721C35.0206 37.0984 34.8273 37.4076 34.5449 37.6285C34.0543 38.9093 34.8422 40.1608 36.2246 40.1461C36.7747 40.0136 37.1166 39.6602 37.2058 39.0566C37.1314 37.9818 36.6706 37.2898 35.6449 37.1721Z" fill="#FCB316"/>
<path d="M68.9759 33.0929C69.1989 34.0205 69.6746 34.683 70.2097 35.3014C70.7449 35.9197 71.3692 36.435 72.1273 36.8178C72.8409 37.2595 73.6139 37.6276 74.5058 37.8779C74.9369 38.0251 75.3531 38.2018 75.8883 38.2606C76.2599 38.4668 76.7059 38.5698 76.7356 39.0999C76.7207 39.7329 76.2896 39.9685 75.7396 40.0863C75.1896 39.9685 74.5058 39.9832 74.045 39.7771C72.8855 39.6446 71.949 39.2765 70.9678 38.9379C69.0948 38.2165 67.5191 37.1712 66.2109 35.8903C65.9433 35.4486 65.5717 35.0952 65.2893 34.6683C65.0068 34.2413 64.8136 33.726 64.5163 33.2991C62.227 33.0046 60.6661 31.974 59.2985 30.7815C58.035 29.3533 57.0241 27.6455 56.6079 25.3782C56.1173 23.1992 56.266 20.4755 56.8457 18.3701C58.1093 14.2919 60.7553 11.5829 65.7501 11.2148C67.1326 11.259 68.3367 11.421 69.4367 11.8332C70.5516 12.2307 71.6071 12.9669 72.4395 13.7324C72.5138 13.7913 72.5436 13.8061 72.5882 13.8797C72.7666 14.13 73.1976 14.4833 73.4355 14.7925C73.4801 14.8514 73.4652 14.9544 73.5098 15.0281C73.599 15.1606 73.7328 15.2194 73.822 15.3372C73.8666 15.4108 73.8517 15.4992 73.8963 15.5581C73.9558 15.6464 74.0301 15.7789 74.1193 15.9409C74.149 15.9998 74.2531 16.0439 74.268 16.0881C74.4017 16.3384 74.4612 16.6476 74.5801 16.9273C74.6991 17.2218 74.8626 17.472 74.9666 17.7665C75.2639 18.6351 75.4572 19.6657 75.5761 20.7258C75.8734 23.7881 75.2639 26.5266 74.1193 28.5583C73.5841 29.6184 72.8409 30.487 71.9638 31.2231C71.1611 32.0623 70.0611 32.5629 68.9759 33.0929ZM65.2893 13.9238C64.6203 13.968 64.219 14.2772 63.6689 14.4539C63.3122 14.7778 62.8662 15.0281 62.5986 15.4403C62.1527 15.6906 62.0337 16.25 61.677 16.5739C61.3797 17.3101 61.0972 18.1346 60.904 19.0916C60.7256 20.0338 60.6067 21.0939 60.5918 22.1392C60.5769 24.7598 61.1418 27.3658 62.1973 28.9117C62.8216 29.6625 63.5797 30.2809 64.5014 30.7373C65.0365 30.7815 65.4528 30.9581 66.0325 30.9729C66.3596 30.8551 66.8947 30.9729 67.1028 30.7373C67.5785 30.7667 67.6826 30.4576 68.0988 30.4281C68.3218 30.2073 68.5596 30.0306 68.8718 29.8981C69.1543 29.5889 69.4218 29.2797 69.7191 28.9853C69.8678 28.7644 69.957 28.4553 70.18 28.2933C71.5179 25.761 71.6665 21.1233 70.7895 18.1787C70.4624 17.104 70.0016 16.2353 69.4813 15.5139C68.9164 14.9397 68.2475 14.4539 67.4893 14.0711C66.8799 13.9386 66.3001 13.7766 65.4974 13.8502C65.4528 13.8502 65.4082 13.865 65.4231 13.9238C65.3933 13.9238 65.3487 13.9238 65.2893 13.9238ZM81.5074 11.789C82.7115 11.8332 84.1237 11.686 85.194 11.8626C85.4319 12.2307 85.3427 12.6724 85.3427 13.0846C85.4319 18.6646 85.3427 24.6568 85.3427 30.3545C85.3427 30.8109 85.3575 31.282 85.3427 31.7237C85.3278 32.1065 85.4319 32.5188 85.194 32.8721C84.6589 33.0046 83.8859 32.9457 83.2021 32.9457C82.4736 32.9457 81.7601 33.0488 81.2844 32.7985C81.1506 26.0554 81.1506 18.7824 81.2844 12.0246C81.3142 11.9068 81.3885 11.8332 81.5074 11.789ZM90.7239 11.789H94.3362C94.6633 12.2307 94.7673 12.8932 94.8714 13.541C95.9566 17.634 97.0269 21.7417 98.0228 25.9377C98.2607 25.9671 98.1864 25.6874 98.2607 25.5549C98.3648 25.4518 98.3053 25.2015 98.4093 25.0985C98.4539 24.7598 98.6621 24.5832 98.6472 24.1856C98.9148 23.6703 99.004 22.9636 99.2567 22.4336C99.5688 21.1969 99.9851 20.0485 100.342 18.856C100.684 17.6193 101.145 16.5003 101.412 15.2047C101.918 14.1594 102.037 12.7313 102.646 11.789H104.177C104.727 12.8196 104.935 14.1889 105.411 15.2931C105.723 16.5298 106.154 17.6487 106.481 18.8707C107.239 21.2411 108.027 23.582 108.711 26.026C109.023 25.5696 109.023 24.804 109.246 24.274C109.38 23.6703 109.499 23.052 109.707 22.522C110.302 20.1074 110.867 17.6782 111.55 15.3667C111.803 14.1594 112.056 12.9227 112.472 11.8626C113.364 11.7301 114.732 11.7301 115.623 11.8626C115.698 12.7607 115.282 13.7324 115.014 14.5275C114.865 15.4992 114.509 16.25 114.315 17.1923C113.765 18.9149 113.349 20.7405 112.784 22.4483C112.353 24.274 111.773 25.9524 111.327 27.778C111.03 28.6172 110.822 29.5447 110.554 30.4428C110.257 31.2673 110.153 32.2832 109.707 32.9604H107.552C107.002 32.0035 106.808 30.7079 106.318 29.692C105.247 26.3352 104.058 23.1109 103.018 19.7246C102.661 20.0927 102.661 20.8436 102.408 21.3147C102.245 21.8889 102.081 22.4631 101.873 22.9931C101.576 24.1562 101.13 25.1426 100.877 26.3352C100.446 27.3805 100.134 28.5436 99.8067 29.692C99.3607 30.6931 99.1972 31.974 98.6472 32.8868C98.0823 33.0635 97.1904 32.9163 96.4917 32.9604C95.9566 32.3568 95.8971 31.2673 95.5701 30.4428C95.3173 29.5889 95.139 28.6467 94.8119 27.8516C94.3957 25.9965 93.7713 24.3623 93.3551 22.522C92.8051 20.8141 92.3294 19.0327 91.824 17.2659C91.5415 16.4267 91.3334 15.5286 91.051 14.6747C90.9172 13.7619 90.2928 12.9374 90.5158 11.9363C90.5456 11.8626 90.6347 11.8185 90.7239 11.789ZM121.064 11.789C122.268 11.8332 123.666 11.686 124.751 11.8626C125.018 12.6577 124.899 13.5116 124.899 14.3655V30.3398C124.899 31.2084 125.004 32.0476 124.751 32.8574C123.918 32.9457 122.699 32.9899 121.674 32.931C121.376 32.9163 121.02 33.0046 120.826 32.7838C120.559 31.9887 120.678 31.1495 120.678 30.2662V14.4539C120.678 13.4969 120.589 12.5693 120.826 11.9363C120.886 11.8626 120.975 11.8185 121.064 11.789Z" fill="#0269B3"/>
</svg>
