<svg width="92" height="55" viewBox="0 0 92 55" fill="none" xmlns="http://www.w3.org/2000/svg">
<path d="M54.6895 20.6714C52.7502 20.6714 51.2104 20.0891 50.07 18.9245C48.9296 17.7541 48.3594 16.111 48.3594 13.9951C48.3594 11.9542 48.9296 10.3284 50.07 9.11769C51.2162 7.90121 52.7589 7.29297 54.6981 7.29297C55.2134 7.29297 55.6765 7.3218 56.0875 7.37945C56.4985 7.4371 56.8921 7.51782 57.2684 7.62159C57.5636 7.70807 57.8849 7.82626 58.2322 7.97616C58.5796 8.12606 58.8603 8.25577 59.0745 8.36532V11.4353H58.7445C58.5882 11.297 58.3914 11.1327 58.1541 10.9424C57.9167 10.7464 57.6476 10.5561 57.3465 10.3716C57.0455 10.1872 56.7127 10.0315 56.348 9.90465C55.9891 9.77205 55.6128 9.70575 55.2191 9.70575C54.7502 9.70575 54.319 9.7807 53.9253 9.93059C53.5375 10.0747 53.167 10.3284 52.8139 10.6916C52.4897 11.0202 52.2234 11.4642 52.015 12.0234C51.8124 12.5826 51.7111 13.2428 51.7111 14.0038C51.7111 14.8052 51.8182 15.4797 52.0324 16.0274C52.2466 16.5693 52.5273 17.0075 52.8747 17.3419C53.2104 17.6647 53.5838 17.8982 53.9948 18.0424C54.4116 18.1865 54.8255 18.2586 55.2365 18.2586C55.6649 18.2586 56.073 18.1894 56.4609 18.051C56.8487 17.9069 57.1758 17.7483 57.4421 17.5754C57.7315 17.3967 57.9862 17.2151 58.2062 17.0306C58.4262 16.8461 58.6172 16.6818 58.7793 16.5376H59.0745V19.5644C58.8372 19.674 58.5622 19.8008 58.2496 19.9449C57.937 20.0833 57.6157 20.2015 57.2858 20.2995C56.8805 20.4206 56.5014 20.5128 56.1483 20.5762C55.7951 20.6396 55.3089 20.6714 54.6895 20.6714Z" fill="white"/>
<path d="M71.37 16.3041C71.37 16.9326 71.2484 17.512 71.0053 18.0424C70.768 18.567 70.4409 18.9965 70.0241 19.3309C69.5263 19.7287 68.9879 20.0112 68.409 20.1784C67.8359 20.3399 67.1355 20.4206 66.3077 20.4206H60.9935V7.54376H70.3888V9.99978H64.2237V12.378H66.3598C67.1355 12.378 67.8301 12.4356 68.4437 12.5509C69.0574 12.6605 69.6073 12.9055 70.0936 13.286C70.5393 13.6319 70.8635 14.0672 71.0661 14.5918C71.2687 15.1107 71.37 15.6815 71.37 16.3041ZM68.0183 16.3993C68.0183 16.1859 67.9951 15.9842 67.9488 15.7939C67.9025 15.6037 67.8012 15.4278 67.6449 15.2664C67.4886 15.1107 67.2744 14.9868 67.0023 14.8945C66.7302 14.8023 66.354 14.7562 65.8735 14.7562H64.2237V18.0337H65.8735C66.5392 18.0337 67.0631 17.8925 67.4452 17.61C67.8272 17.3275 68.0183 16.9239 68.0183 16.3993Z" fill="white"/>
<path d="M84.117 20.4206H80.8695V9.99978H76.4497V20.4206H73.2022V7.54376H84.117V20.4206Z" fill="white"/>
<path d="M52.6743 30.9923H51.3753V26.824H49.6073V30.9923H48.3083V25.8416H52.6743V30.9923Z" fill="white"/>
<path d="M53.7475 30.9923V25.8416H57.2451V26.824H55.0396V27.7269H57.0715V28.7093H55.0396V30.0099H57.2451V30.9923H53.7475Z" fill="white"/>
<path d="M62.1043 27.4674C62.1043 27.7073 62.0661 27.9356 61.9897 28.1523C61.9132 28.3691 61.8033 28.5501 61.6597 28.6954C61.5717 28.7854 61.4745 28.8684 61.3679 28.9445C61.2637 29.0206 61.148 29.0852 61.0206 29.1382C60.8933 29.1913 60.7543 29.2328 60.6038 29.2627C60.4556 29.2927 60.2889 29.3077 60.1037 29.3077H59.4229V30.9923H58.1239V25.8416H60.1314C60.4301 25.8416 60.6872 25.8693 60.9025 25.9246C61.1202 25.9777 61.317 26.063 61.493 26.1806C61.6875 26.3098 61.838 26.4827 61.9445 26.6995C62.051 26.914 62.1043 27.1699 62.1043 27.4674ZM60.7705 27.4986C60.7705 27.3533 60.7358 27.2287 60.6663 27.125C60.5969 27.0189 60.5135 26.9462 60.4163 26.907C60.2935 26.854 60.1754 26.824 60.062 26.8171C59.9508 26.8079 59.7992 26.8033 59.607 26.8033H59.4229V28.3461H59.5132C59.6359 28.3461 59.7517 28.3449 59.8605 28.3426C59.9694 28.3403 60.0643 28.3322 60.1453 28.3184C60.2148 28.3069 60.2877 28.2849 60.3642 28.2527C60.4429 28.2181 60.5031 28.18 60.5448 28.1385C60.6328 28.0532 60.6918 27.9644 60.7219 27.8721C60.7543 27.7799 60.7705 27.6554 60.7705 27.4986Z" fill="white"/>
<path d="M62.7989 30.9923V25.8416H66.2966V26.824H64.091V27.7269H66.1229V28.7093H64.091V30.0099H66.2966V30.9923H62.7989Z" fill="white"/>
<path d="M71.312 29.4149C71.312 29.6709 71.2634 29.8958 71.1661 30.0895C71.0689 30.2832 70.938 30.4435 70.7736 30.5703C70.5791 30.7225 70.3649 30.8309 70.1311 30.8955C69.8995 30.96 69.6043 30.9923 69.2454 30.9923H67.1753V25.8416H69.0023C69.382 25.8416 69.6691 25.8566 69.8636 25.8866C70.0605 25.9143 70.2445 25.9742 70.4159 26.0665C70.6011 26.1656 70.7389 26.2982 70.8292 26.4643C70.9218 26.6303 70.9681 26.8217 70.9681 27.0385C70.9681 27.2899 70.9045 27.5135 70.7771 27.7096C70.6521 27.9056 70.4784 28.0497 70.2561 28.142V28.1696C70.5757 28.2365 70.8315 28.3737 71.0237 28.5813C71.2159 28.7865 71.312 29.0644 71.312 29.4149ZM69.6483 27.2979C69.6483 27.2149 69.6263 27.1296 69.5823 27.0419C69.5406 26.9543 69.4746 26.8909 69.3843 26.8517C69.2986 26.8148 69.1968 26.7952 69.0787 26.7929C68.9629 26.7883 68.7892 26.786 68.5577 26.786H68.4674V27.8756H68.6306C68.8529 27.8756 69.008 27.8733 69.096 27.8687C69.1863 27.8641 69.279 27.8399 69.3739 27.796C69.4781 27.7476 69.5499 27.6807 69.5892 27.5954C69.6286 27.5101 69.6483 27.4109 69.6483 27.2979ZM69.9748 29.3907C69.9748 29.2316 69.9424 29.1071 69.8775 29.0171C69.8127 28.9272 69.7154 28.8592 69.5858 28.813C69.507 28.7831 69.3982 28.7669 69.2593 28.7646C69.1227 28.76 68.9386 28.7577 68.707 28.7577H68.4674V30.048H68.5368C68.8749 30.048 69.1088 30.0457 69.2384 30.0411C69.3681 30.0364 69.5001 30.0053 69.6344 29.9477C69.7525 29.8969 69.8382 29.8231 69.8914 29.7263C69.947 29.6271 69.9748 29.5153 69.9748 29.3907Z" fill="white"/>
<path d="M76.7686 28.4187C76.7686 29.2512 76.5451 29.9061 76.0982 30.3835C75.6513 30.8609 75.0389 31.0996 74.2608 31.0996C73.4805 31.0996 72.868 30.8586 72.4235 30.3766C71.9789 29.8923 71.7566 29.2397 71.7566 28.4187C71.7566 27.5908 71.9789 26.937 72.4235 26.4573C72.868 25.9754 73.4805 25.7344 74.2608 25.7344C75.0389 25.7344 75.6513 25.9742 76.0982 26.4539C76.5451 26.9313 76.7686 27.5862 76.7686 28.4187ZM75.4279 28.4152C75.4279 28.1085 75.3954 27.8479 75.3306 27.6335C75.2681 27.4167 75.1836 27.2391 75.0771 27.1008C74.9659 26.9601 74.8397 26.8598 74.6985 26.7998C74.5595 26.7375 74.4148 26.7064 74.2643 26.7064C74.1045 26.7064 73.9598 26.7352 73.8301 26.7929C73.7005 26.8482 73.5754 26.9485 73.455 27.0938C73.3485 27.2276 73.2617 27.4052 73.1945 27.6265C73.1297 27.8479 73.0973 28.112 73.0973 28.4187C73.0973 28.7346 73.1285 28.9975 73.1911 29.2074C73.2536 29.4149 73.3393 29.5891 73.4481 29.7297C73.5592 29.8727 73.6854 29.9753 73.8267 30.0376C73.9679 30.0976 74.1138 30.1275 74.2643 30.1275C74.4171 30.1275 74.5653 30.0953 74.7089 30.0307C74.8525 29.9638 74.9763 29.8612 75.0805 29.7228C75.1917 29.5729 75.2774 29.3988 75.3376 29.2005C75.3978 28.9998 75.4279 28.7381 75.4279 28.4152Z" fill="white"/>
<path d="M82.3189 32.1754H81.1276V30.975H78.2378V32.1754H77.0464V30.0065H77.3938C77.6369 29.5037 77.8291 28.8926 77.9703 28.1731C78.1116 27.4513 78.1822 26.6741 78.1822 25.8416H81.8292V30.0065H82.3189V32.1754ZM80.5301 30.0065V26.824H79.3978C79.3539 27.4467 79.267 28.0313 79.1374 28.5778C79.0077 29.1221 78.8444 29.5983 78.6476 30.0065H80.5301Z" fill="white"/>
<path d="M52.6743 38.9282H51.3753V34.7599H49.6073V38.9282H48.3083V33.7775H52.6743V38.9282Z" fill="white"/>
<path d="M58.4573 36.3546C58.4573 37.1871 58.2339 37.842 57.787 38.3194C57.3401 38.7968 56.7276 39.0355 55.9496 39.0355C55.1693 39.0355 54.5568 38.7945 54.1122 38.3125C53.6676 37.8282 53.4453 37.1756 53.4453 36.3546C53.4453 35.5267 53.6676 34.8729 54.1122 34.3932C54.5568 33.9113 55.1693 33.6703 55.9496 33.6703C56.7276 33.6703 57.3401 33.9101 57.787 34.3898C58.2339 34.8671 58.4573 35.5221 58.4573 36.3546ZM57.1166 36.3511C57.1166 36.0444 57.0842 35.7838 57.0194 35.5694C56.9568 35.3526 56.8723 35.175 56.7658 35.0366C56.6547 34.896 56.5285 34.7957 56.3872 34.7357C56.2483 34.6734 56.1036 34.6423 55.9531 34.6423C55.7933 34.6423 55.6486 34.6711 55.5189 34.7288C55.3892 34.7841 55.2642 34.8844 55.1438 35.0297C55.0373 35.1635 54.9504 35.341 54.8833 35.5624C54.8185 35.7838 54.786 36.0479 54.786 36.3546C54.786 36.6705 54.8173 36.9334 54.8798 37.1433C54.9423 37.3508 55.028 37.5249 55.1368 37.6656C55.248 37.8086 55.3742 37.9112 55.5154 37.9735C55.6567 38.0334 55.8026 38.0634 55.9531 38.0634C56.1059 38.0634 56.2541 38.0311 56.3976 37.9666C56.5412 37.8997 56.6651 37.7971 56.7693 37.6587C56.8804 37.5088 56.9661 37.3347 57.0263 37.1364C57.0865 36.9357 57.1166 36.674 57.1166 36.3511Z" fill="white"/>
<path d="M65.6783 38.9282H64.3793V36.6452H62.6114V38.9282H61.3124V33.7775H62.6114V35.6628H64.3793V33.7775H65.6783V38.9282Z" fill="white"/>
<path d="M71.4614 36.3546C71.4614 37.1871 71.2379 37.842 70.791 38.3194C70.3441 38.7968 69.7317 39.0355 68.9536 39.0355C68.1733 39.0355 67.5608 38.7945 67.1163 38.3125C66.6717 37.8282 66.4494 37.1756 66.4494 36.3546C66.4494 35.5267 66.6717 34.8729 67.1163 34.3932C67.5608 33.9113 68.1733 33.6703 68.9536 33.6703C69.7317 33.6703 70.3441 33.9101 70.791 34.3898C71.2379 34.8671 71.4614 35.5221 71.4614 36.3546ZM70.1207 36.3511C70.1207 36.0444 70.0882 35.7838 70.0234 35.5694C69.9609 35.3526 69.8764 35.175 69.7699 35.0366C69.6587 34.896 69.5325 34.7957 69.3913 34.7357C69.2523 34.6734 69.1076 34.6423 68.9571 34.6423C68.7973 34.6423 68.6526 34.6711 68.5229 34.7288C68.3933 34.7841 68.2682 34.8844 68.1478 35.0297C68.0413 35.1635 67.9545 35.341 67.8873 35.5624C67.8225 35.7838 67.7901 36.0479 67.7901 36.3546C67.7901 36.6705 67.8213 36.9334 67.8839 37.1433C67.9464 37.3508 68.032 37.5249 68.1409 37.6656C68.252 37.8086 68.3782 37.9112 68.5195 37.9735C68.6607 38.0334 68.8066 38.0634 68.9571 38.0634C69.1099 38.0634 69.2581 38.0311 69.4017 37.9666C69.5453 37.8997 69.6691 37.7971 69.7733 37.6587C69.8845 37.5088 69.9702 37.3347 70.0304 37.1364C70.0906 36.9357 70.1207 36.674 70.1207 36.3511Z" fill="white"/>
<path d="M77.5153 38.9282H76.2233V35.514L75.282 37.7175H74.3963L73.455 35.514V38.9282H72.2324V33.7775H73.7294L74.8756 36.32L76.0183 33.7775H77.5153V38.9282Z" fill="white"/>
<path d="M78.5886 38.9282V33.7775H82.0862V34.7599H79.8806V35.6628H81.9125V36.6452H79.8806V37.9458H82.0862V38.9282H78.5886Z" fill="white"/>
<path d="M86.9453 35.4033C86.9453 35.6432 86.9071 35.8715 86.8307 36.0882C86.7543 36.305 86.6443 36.486 86.5007 36.6313C86.4128 36.7213 86.3155 36.8043 86.209 36.8804C86.1048 36.9565 85.989 37.0211 85.8617 37.0741C85.7343 37.1271 85.5954 37.1687 85.4449 37.1986C85.2967 37.2286 85.13 37.2436 84.9447 37.2436H84.2639V38.9282H82.9649V33.7775H84.9725C85.2712 33.7775 85.5282 33.8052 85.7436 33.8605C85.9612 33.9136 86.1581 33.9989 86.334 34.1165C86.5285 34.2456 86.679 34.4186 86.7856 34.6354C86.8921 34.8498 86.9453 35.1058 86.9453 35.4033ZM85.6116 35.4344C85.6116 35.2892 85.5769 35.1646 85.5074 35.0609C85.4379 34.9548 85.3546 34.8821 85.2573 34.8429C85.1346 34.7899 85.0165 34.7599 84.903 34.753C84.7919 34.7438 84.6402 34.7392 84.448 34.7392H84.2639V36.2819H84.3542C84.477 36.2819 84.5927 36.2808 84.7016 36.2785C84.8104 36.2762 84.9053 36.2681 84.9864 36.2543C85.0559 36.2427 85.1288 36.2208 85.2052 36.1885C85.2839 36.154 85.3441 36.1159 85.3858 36.0744C85.4738 35.9891 85.5329 35.9003 85.563 35.808C85.5954 35.7158 85.6116 35.5913 85.6116 35.4344Z" fill="white"/>
<path d="M91.9122 33.7775L90.1859 37.8974C90.084 38.1372 89.9694 38.3263 89.8421 38.4647C89.717 38.6031 89.585 38.708 89.4461 38.7795C89.3072 38.851 89.1682 38.8994 89.0293 38.9248C88.8904 38.9478 88.7445 38.9594 88.5917 38.9594C88.4319 38.9594 88.2455 38.9559 88.0325 38.949C87.8218 38.9421 87.6805 38.9351 87.6087 38.9282V37.8351H87.6886C87.7095 37.8397 87.7419 37.8455 87.7859 37.8524C87.8299 37.8593 87.8854 37.8663 87.9526 37.8732C88.0082 37.8778 88.0684 37.8824 88.1332 37.887C88.198 37.8916 88.2571 37.8939 88.3103 37.8939C88.4655 37.8939 88.6114 37.8755 88.748 37.8386C88.8869 37.7994 88.9795 37.7337 89.0258 37.6414L87.1121 33.7775H88.5153L89.6232 36.192L90.561 33.7775H91.9122Z" fill="white"/>
<path d="M49.3017 46.8641V42.6958H47.7734V41.7134H52.129V42.6958H50.6007V46.8641H49.3017Z" fill="white"/>
<path d="M52.6638 46.8641V41.7134H56.1615V42.6958H53.9559V43.5987H55.9878V44.5811H53.9559V45.8817H56.1615V46.8641H52.6638Z" fill="white"/>
<path d="M61.493 46.8641H60.194V42.6958H58.888C58.8787 42.8965 58.8695 43.0844 58.8602 43.2597C58.8533 43.4326 58.8452 43.5975 58.8359 43.7543C58.8104 44.204 58.7688 44.5926 58.7109 44.9201C58.653 45.2452 58.587 45.5116 58.5129 45.7191C58.4318 45.9405 58.3496 46.1147 58.2663 46.2415C58.1829 46.3683 58.1042 46.4686 58.0301 46.5424C57.919 46.6531 57.78 46.7408 57.6133 46.8053C57.4466 46.8676 57.2822 46.8987 57.1201 46.8987C57.0113 46.8987 56.892 46.8941 56.7623 46.8849C56.6327 46.8757 56.5505 46.8688 56.5157 46.8641V45.7261H56.5644C56.5875 45.7284 56.6095 45.7307 56.6304 45.733C56.6535 45.7353 56.6825 45.7364 56.7172 45.7364C56.7751 45.7364 56.8492 45.7272 56.9395 45.7088C57.0298 45.6903 57.0981 45.6592 57.1444 45.6154C57.3111 45.4586 57.4246 45.2164 57.4848 44.8889C57.5473 44.5592 57.5948 44.0841 57.6272 43.4638C57.6411 43.1801 57.6492 42.9253 57.6515 42.6993C57.6561 42.4733 57.6654 42.1447 57.6793 41.7134H61.493V46.8641Z" fill="white"/>
<path d="M62.5628 46.8641V41.7134H66.0604V42.6958H63.8548V43.5987H65.8867V44.5811H63.8548V45.8817H66.0604V46.8641H62.5628Z" fill="white"/>
<path d="M72.4443 44.249C72.4443 44.8693 72.2336 45.3605 71.8122 45.7226C71.3907 46.0824 70.8431 46.2911 70.1693 46.3487V46.9056H68.8772V46.3487C68.2034 46.2911 67.6558 46.0847 67.2343 45.7295C66.8129 45.3721 66.6022 44.8786 66.6022 44.249C66.6022 43.6217 66.8071 43.1351 67.217 42.7892C67.6268 42.4433 68.1802 42.2404 68.8772 42.1804V41.6615H70.1693V42.1804C70.8454 42.2288 71.393 42.4283 71.8122 42.7788C72.2336 43.1271 72.4443 43.6171 72.4443 44.249ZM71.1106 44.2282C71.1106 43.9031 71.0272 43.6379 70.8605 43.4326C70.6938 43.2251 70.4634 43.0948 70.1693 43.0417V45.4908C70.5097 45.417 70.7516 45.2775 70.8952 45.0723C71.0388 44.8647 71.1106 44.5834 71.1106 44.2282ZM68.8772 45.4908V43.0417C68.5716 43.0971 68.3377 43.2285 68.1756 43.4361C68.0158 43.6413 67.936 43.9054 67.936 44.2282C67.936 44.5788 68.0112 44.8601 68.1617 45.0723C68.3122 45.2821 68.5507 45.4217 68.8772 45.4908Z" fill="white"/>
<path d="M77.887 44.2905C77.887 45.123 77.6635 45.778 77.2166 46.2553C76.7697 46.7327 76.1573 46.9714 75.3792 46.9714C74.5989 46.9714 73.9864 46.7304 73.5419 46.2484C73.0973 45.7641 72.875 45.1115 72.875 44.2905C72.875 43.4626 73.0973 42.8088 73.5419 42.3292C73.9864 41.8472 74.5989 41.6062 75.3792 41.6062C76.1573 41.6062 76.7697 41.846 77.2166 42.3257C77.6635 42.8031 77.887 43.458 77.887 44.2905ZM76.5463 44.287C76.5463 43.9803 76.5138 43.7197 76.449 43.5053C76.3865 43.2885 76.302 43.1109 76.1955 42.9726C76.0843 42.8319 75.9581 42.7316 75.8169 42.6716C75.6779 42.6093 75.5332 42.5782 75.3827 42.5782C75.2229 42.5782 75.0782 42.607 74.9485 42.6647C74.8189 42.72 74.6938 42.8204 74.5734 42.9656C74.4669 43.0994 74.3801 43.277 74.3129 43.4984C74.2481 43.7197 74.2157 43.9838 74.2157 44.2905C74.2157 44.6064 74.2469 44.8693 74.3095 45.0792C74.372 45.2868 74.4577 45.4609 74.5665 45.6015C74.6776 45.7445 74.8038 45.8471 74.9451 45.9094C75.0863 45.9694 75.2322 45.9993 75.3827 45.9993C75.5355 45.9993 75.6837 45.9671 75.8273 45.9025C75.9709 45.8356 76.0947 45.733 76.1989 45.5946C76.3101 45.4447 76.3958 45.2706 76.456 45.0723C76.5162 44.8716 76.5463 44.6099 76.5463 44.287Z" fill="white"/>
<path d="M83.024 46.8641H81.725V44.5811H79.957V46.8641H78.658V41.7134H79.957V43.5987H81.725V41.7134H83.024V46.8641Z" fill="white"/>
<path d="M83.5415 46.8641L85.2886 41.7134H86.7057L88.4527 46.8641H87.1155L86.7925 45.8125H85.167L84.844 46.8641H83.5415ZM86.5077 44.8786L85.9798 43.1801L85.4518 44.8786H86.5077Z" fill="white"/>
<path fill-rule="evenodd" clip-rule="evenodd" d="M18.4844 54.4446L44.2704 39.4786L31.6767 39.2148L25.5091 42.8883L18.4844 54.4446Z" fill="#027E35"/>
<path fill-rule="evenodd" clip-rule="evenodd" d="M0.515625 11.6172L44.274 39.4791L31.6803 39.2153L6.86208 23.4508L0.515625 11.6172Z" fill="#2683C9"/>
<path fill-rule="evenodd" clip-rule="evenodd" d="M0.514541 11.6172L0 41.917L6.74207 30.5142L6.86099 23.4508L0.514541 11.6172Z" fill="#5A58A3"/>
<path fill-rule="evenodd" clip-rule="evenodd" d="M18.9254 31.1174L0 41.9205L6.74207 30.5177L12.6889 27.1562L18.9254 31.1174Z" fill="#964A95"/>
<path fill-rule="evenodd" clip-rule="evenodd" d="M18.4844 54.4445L18.9228 31.1133L25.6408 35.3809L25.5091 42.8881L18.4844 54.4445Z" fill="#62B22F"/>
<path fill-rule="evenodd" clip-rule="evenodd" d="M19.5781 0L44.7692 16.2111L32.0589 15.9384L26.0689 12.265L19.5781 0Z" fill="#EE7024"/>
<path fill-rule="evenodd" clip-rule="evenodd" d="M19.5743 0L19.0703 23.4333L25.5696 27.5716L26.065 12.265L19.5743 0Z" fill="#FAB51A"/>
<path fill-rule="evenodd" clip-rule="evenodd" d="M25.5781 27.5706L44.7739 16.2101L32.0636 15.9375L25.9056 19.5926L25.5781 27.5706Z" fill="#DB0954"/>
</svg>
