<svg width="159" height="30" viewBox="0 0 159 30" fill="none" xmlns="http://www.w3.org/2000/svg">
<path d="M57.824 21.0473V7.16919H52.0469V4.96093H66.9387V7.16919H61.1738V21.0473H57.824ZM78.916 20.6432C77.3858 21.0931 75.9354 21.3181 74.5648 21.3181C72.5693 21.3181 70.9955 20.7525 69.8435 19.6214C68.6916 18.4903 68.1156 16.9456 68.1156 14.9872C68.1156 13.1368 68.6417 11.6501 69.6939 10.5272C70.7524 9.39604 72.1484 8.83049 73.8818 8.83049C75.6297 8.83049 76.906 9.38153 77.7105 10.4836C78.5151 11.5857 78.9174 13.33 78.9174 15.7165H71.5089C71.7266 17.9842 72.9775 19.118 75.2615 19.118C76.3499 19.118 77.5681 18.8676 78.916 18.3669V20.6432ZM71.464 13.8987H75.7499C75.7499 11.8605 75.0936 10.8415 73.7811 10.8415C72.4477 10.8415 71.6754 11.8605 71.464 13.8987ZM82.2454 21.0473V3.87109H85.466V21.0473H82.2454ZM99.2366 20.6432C97.7064 21.0931 96.256 21.3181 94.8854 21.3181C92.8899 21.3181 91.3161 20.7525 90.1641 19.6214C89.0121 18.4903 88.4361 16.9456 88.4361 14.9872C88.4361 13.1368 88.9622 11.6501 90.0144 10.5272C91.073 9.39604 92.469 8.83049 94.2024 8.83049C95.9503 8.83049 97.2265 9.38153 98.0311 10.4836C98.8357 11.5857 99.238 13.33 99.238 15.7165H91.8308C92.0485 17.9842 93.2994 19.118 95.5834 19.118C96.6719 19.118 97.8901 18.8676 99.238 18.3669L99.2366 20.6432ZM91.7846 13.8987H96.0705C96.0705 11.8605 95.4142 10.8415 94.1017 10.8415C92.7683 10.8415 91.9959 11.8605 91.7846 13.8987ZM102.653 24.7563L102.914 22.4161C104.241 23.0256 105.511 23.3304 106.724 23.3304C107.903 23.3304 108.763 23.0764 109.302 22.5685C109.832 22.0605 110.097 21.2373 110.097 20.099V18.4663C109.314 20.1852 108.02 21.0446 106.214 21.0446C104.792 21.0446 103.665 20.5153 102.831 19.4568C101.997 18.391 101.58 16.9515 101.58 15.1382C101.58 13.2307 102.047 11.7041 102.981 10.5584C103.915 9.40647 105.159 8.83049 106.712 8.83049C107.93 8.83049 109.057 9.32348 110.094 10.3095L110.432 9.1026H113.326V18.2186C113.326 20.0391 113.213 21.3516 112.988 22.1562C112.771 22.9608 112.343 23.6411 111.705 24.1971C110.632 25.125 109.12 25.589 107.169 25.589C105.784 25.589 104.287 25.306 102.679 24.74L102.653 24.7563ZM110.082 16.5982V12.1939C109.306 11.3168 108.49 10.8782 107.633 10.8782C106.821 10.8782 106.176 11.2483 105.697 11.9884C105.218 12.7286 104.978 13.7264 104.978 14.9818C104.978 17.3166 105.729 18.4839 107.23 18.4839C108.267 18.4839 109.213 17.8603 110.07 16.6131L110.082 16.5982ZM117.274 21.0473V9.10124H120.495V11.353C121.329 9.67043 122.598 8.82912 124.302 8.82912C124.505 8.82912 124.704 8.85089 124.9 8.89443V11.7517C124.443 11.5848 124.019 11.5013 123.628 11.5013C122.345 11.5013 121.3 12.1499 120.495 13.447V21.0296L117.274 21.0473ZM133.264 19.7629C132.191 20.7997 131.042 21.3181 129.816 21.3181C128.773 21.3181 127.925 20.9988 127.272 20.3602C126.619 19.7216 126.292 18.8948 126.292 17.8798C126.292 16.5601 126.818 15.5441 127.87 14.8321C128.929 14.1137 130.441 13.7545 132.407 13.7545H133.267V12.666C133.267 11.4261 132.559 10.8061 131.144 10.8061C129.89 10.8061 128.621 11.1616 127.337 11.8728V9.65501C128.795 9.10351 130.238 8.82776 131.667 8.82776C134.792 8.82776 136.355 10.0714 136.355 12.5585V17.8458C136.355 18.7801 136.642 19.2472 137.215 19.2472C137.346 19.2472 137.527 19.2073 137.759 19.1275V20.997C137.077 21.2002 136.475 21.3018 135.954 21.3018C134.634 21.3018 133.786 20.7834 133.409 19.7466L133.264 19.7629ZM133.264 18.035V15.609H132.502C131.531 15.609 130.766 15.7832 130.207 16.1315C129.655 16.4798 129.379 16.9583 129.379 17.5669C129.379 18.0096 129.528 18.3828 129.826 18.6867C130.13 18.9842 130.504 19.133 130.945 19.133C131.698 19.133 132.471 18.7665 133.263 18.0336L133.264 18.035ZM140.509 21.046V9.09988H143.598V11.3517C144.541 9.66907 145.883 8.82776 147.622 8.82776C148.529 8.82776 149.269 9.04909 149.84 9.49173C150.421 9.93438 150.776 10.5544 150.907 11.3517C152.022 9.66907 153.371 8.82776 154.953 8.82776C157.137 8.82776 158.228 10.0314 158.228 12.4388V21.0432H155.14V13.4919C155.14 12.0769 154.668 11.3694 153.725 11.3694C152.76 11.3694 151.822 12.0655 150.908 13.4579V21.0405H147.82V13.4892C147.82 12.0678 147.345 11.3571 146.395 11.3571C145.445 11.3571 144.513 12.0569 143.599 13.4565V21.0392L140.509 21.046Z" fill="white"/>
<path fill-rule="evenodd" clip-rule="evenodd" d="M27.0784 29.133C27.3119 29.2992 27.5827 29.4056 27.867 29.4429C28.1513 29.4801 28.4403 29.447 28.7089 29.3466C28.9758 29.2458 29.2132 29.0798 29.3995 28.8636C29.5858 28.6475 29.7149 28.3882 29.7753 28.1093C31.0552 22.094 34.1601 6.86855 35.3252 1.3967C35.3683 1.19337 35.3555 0.982147 35.288 0.785534C35.2206 0.588921 35.1011 0.414288 34.9422 0.280242C34.7825 0.144617 34.5896 0.0540146 34.3832 0.0177693C34.1769 -0.018476 33.9646 0.000946047 33.7683 0.0740345C27.5924 2.35999 8.57277 9.49622 0.798768 12.3728C0.55921 12.4606 0.353283 12.6215 0.210046 12.8326C0.0668096 13.0438 -0.00650342 13.2946 0.000452995 13.5497C0.0181279 14.0711 0.36868 14.5232 0.873886 14.675C4.36026 15.7178 8.93657 17.1686 8.93657 17.1686C8.93657 17.1686 11.0752 23.6273 12.1902 26.9119C12.3302 27.3243 12.6527 27.6483 13.0784 27.7603C13.287 27.8145 13.506 27.815 13.7149 27.7617C13.9238 27.7084 14.1158 27.603 14.2729 27.4554L18.833 23.1501C18.833 23.1501 24.0943 27.0076 27.0784 29.133ZM10.8617 16.3526L13.3347 24.5095L13.8841 19.3441L28.8856 5.81395C28.9626 5.74482 29.0105 5.649 29.0195 5.5459C29.0286 5.4428 28.9981 5.34013 28.9342 5.25866C28.8701 5.17702 28.7779 5.12215 28.6755 5.10473C28.5731 5.08731 28.468 5.10858 28.3804 5.1644L10.8617 16.3526Z" fill="#2CA5E0"/>
</svg>
