<svg width="186" height="62" viewBox="0 0 186 62" fill="none" xmlns="http://www.w3.org/2000/svg">
<path d="M135.186 14V4.2H139.778C140.954 4.2 141.85 4.43333 142.466 4.9C143.082 5.35733 143.39 5.97333 143.39 6.748C143.39 7.27067 143.268 7.71867 143.026 8.092C142.783 8.456 142.456 8.74067 142.046 8.946C141.644 9.142 141.206 9.24 140.73 9.24L140.982 8.736C141.532 8.736 142.027 8.83867 142.466 9.044C142.904 9.24 143.25 9.52933 143.502 9.912C143.763 10.2947 143.894 10.7707 143.894 11.34C143.894 12.18 143.572 12.8333 142.928 13.3C142.284 13.7667 141.327 14 140.058 14H135.186ZM137.006 12.572H139.946C140.627 12.572 141.15 12.46 141.514 12.236C141.878 12.012 142.06 11.6527 142.06 11.158C142.06 10.6727 141.878 10.318 141.514 10.094C141.15 9.86067 140.627 9.744 139.946 9.744H136.866V8.33H139.582C140.216 8.33 140.702 8.218 141.038 7.994C141.383 7.77 141.556 7.434 141.556 6.986C141.556 6.52867 141.383 6.188 141.038 5.964C140.702 5.74 140.216 5.628 139.582 5.628H137.006V12.572ZM147.516 8.274H152.388V9.772H147.516V8.274ZM147.656 12.474H153.186V14H145.836V4.2H152.99V5.726H147.656V12.474ZM155.215 14V4.2H159.247C160.115 4.2 160.857 4.34 161.473 4.62C162.098 4.9 162.579 5.30133 162.915 5.824C163.251 6.34667 163.419 6.96733 163.419 7.686C163.419 8.40467 163.251 9.02533 162.915 9.548C162.579 10.0613 162.098 10.458 161.473 10.738C160.857 11.0087 160.115 11.144 159.247 11.144H156.223L157.035 10.318V14H155.215ZM161.627 14L159.149 10.444H161.095L163.587 14H161.627ZM157.035 10.514L156.223 9.646H159.163C159.966 9.646 160.568 9.47333 160.969 9.128C161.38 8.78267 161.585 8.302 161.585 7.686C161.585 7.06067 161.38 6.58 160.969 6.244C160.568 5.908 159.966 5.74 159.163 5.74H156.223L157.035 4.844V10.514ZM168.498 14V12.782L172.39 9.086C172.717 8.778 172.96 8.50733 173.118 8.274C173.277 8.04067 173.38 7.826 173.426 7.63C173.482 7.42467 173.51 7.23333 173.51 7.056C173.51 6.608 173.356 6.26267 173.048 6.02C172.74 5.768 172.288 5.642 171.69 5.642C171.214 5.642 170.78 5.726 170.388 5.894C170.006 6.062 169.674 6.31867 169.394 6.664L168.12 5.684C168.503 5.17067 169.016 4.774 169.66 4.494C170.314 4.20467 171.042 4.06 171.844 4.06C172.554 4.06 173.17 4.17667 173.692 4.41C174.224 4.634 174.63 4.956 174.91 5.376C175.2 5.796 175.344 6.29533 175.344 6.874C175.344 7.19133 175.302 7.50867 175.218 7.826C175.134 8.134 174.976 8.46067 174.742 8.806C174.509 9.15133 174.168 9.53867 173.72 9.968L170.374 13.146L169.996 12.46H175.722V14H168.498ZM180.861 14.14C180.086 14.14 179.386 13.944 178.761 13.552C178.145 13.16 177.66 12.5907 177.305 11.844C176.95 11.088 176.773 10.1733 176.773 9.1C176.773 8.02667 176.95 7.11667 177.305 6.37C177.66 5.614 178.145 5.04 178.761 4.648C179.386 4.256 180.086 4.06 180.861 4.06C181.645 4.06 182.345 4.256 182.961 4.648C183.577 5.04 184.062 5.614 184.417 6.37C184.781 7.11667 184.963 8.02667 184.963 9.1C184.963 10.1733 184.781 11.088 184.417 11.844C184.062 12.5907 183.577 13.16 182.961 13.552C182.345 13.944 181.645 14.14 180.861 14.14ZM180.861 12.558C181.318 12.558 181.715 12.4367 182.051 12.194C182.387 11.942 182.648 11.5593 182.835 11.046C183.031 10.5327 183.129 9.884 183.129 9.1C183.129 8.30667 183.031 7.658 182.835 7.154C182.648 6.64067 182.387 6.26267 182.051 6.02C181.715 5.768 181.318 5.642 180.861 5.642C180.422 5.642 180.03 5.768 179.685 6.02C179.349 6.26267 179.083 6.64067 178.887 7.154C178.7 7.658 178.607 8.30667 178.607 9.1C178.607 9.884 178.7 10.5327 178.887 11.046C179.083 11.5593 179.349 11.942 179.685 12.194C180.03 12.4367 180.422 12.558 180.861 12.558Z" fill="#8C95BF"/>
<path d="M19.5775 61.8787C30.3898 61.8787 39.155 53.0731 39.155 42.2108C39.155 31.3486 30.3898 22.543 19.5775 22.543C8.76514 22.543 0 31.3486 0 42.2108C0 53.0731 8.76514 61.8787 19.5775 61.8787Z" fill="#26A17B"/>
<path d="M21.6693 44.029V44.0258C21.534 44.0353 20.8353 44.0764 19.2804 44.0764C18.0371 44.0764 17.1653 44.0416 16.8568 44.0258V44.029C12.0757 43.8171 8.50962 42.9823 8.50962 41.98C8.50962 40.9808 12.0789 40.1428 16.8568 39.931V43.1973C17.1684 43.2195 18.0654 43.2732 19.3024 43.2732C20.788 43.2732 21.5309 43.21 21.6693 43.1973V39.9341C26.441 40.1491 29.9976 40.9839 29.9976 41.9831C29.9976 42.9823 26.4378 43.8171 21.6693 44.0321M21.6693 39.5958V36.6741H28.3263V32.2188H10.203V36.6741H16.86V39.5958C11.4494 39.8456 7.38281 40.9207 7.38281 42.2108C7.38281 43.5009 11.4525 44.576 16.86 44.829V54.1949H21.6725V44.829C27.0736 44.5792 31.1339 43.5041 31.1339 42.2139C31.1339 40.927 27.0736 39.8487 21.6725 39.5989" fill="white"/>
<path d="M55.7873 33.4307V38.1548H60.3575V41.6994H55.7558V48.8867C55.7558 50.4741 56.6277 51.2488 57.9056 51.2488C58.5445 51.2488 59.2842 51.0464 59.8885 50.7428L61.0311 54.2527C59.857 54.7238 58.8813 54.9262 57.6381 54.961C54.0436 55.0969 51.6924 53.0385 51.6924 48.8867V41.6994H48.6016V38.1548H51.6924V33.8702L55.7873 33.4307ZM134.579 37.9334L134.881 39.8559C136.159 37.7974 137.871 37.4939 139.552 37.4939C141.264 37.4939 142.91 38.1674 143.817 39.0781L141.969 42.6543C141.129 41.946 140.358 41.5729 139.014 41.5729C136.864 41.5729 134.881 42.7207 134.881 45.7911V54.5657H130.783V37.9271L134.579 37.9334ZM124.535 44.3112C124.268 42.1516 122.587 41.0702 120.236 41.0702C118.02 41.0702 116.204 42.1516 115.599 44.3112H124.535ZM115.533 47.7199C115.801 49.7784 117.582 51.2646 120.472 51.2646C121.983 51.2646 123.965 50.6891 124.907 49.712L127.525 52.3112C125.778 54.1325 122.924 55.0116 120.402 55.0116C114.693 55.0116 111.297 51.4669 111.297 46.1357C111.297 41.0733 114.724 37.4275 120.1 37.4275C125.643 37.4275 129.105 40.8709 128.466 47.7199H115.533ZM97.4603 30.9453V40.1911C98.9396 38.2686 100.753 37.6931 102.635 37.6931C107.337 37.6931 109.421 40.8994 109.421 45.7942V54.5689H105.323V45.829C105.323 42.7903 103.743 41.5097 101.558 41.5097C99.1379 41.5097 97.4603 43.5682 97.4603 46.0662V54.572H93.3622V30.9485L97.4603 30.9453ZM86.5762 33.241V37.965H91.1464V41.5097H86.5447V48.697C86.5447 50.2843 87.4197 51.059 88.6945 51.059C89.3334 51.059 90.0731 50.8567 90.6774 50.5531L91.82 54.063C90.6459 54.5341 89.6702 54.7365 88.4269 54.7713C84.8325 54.9072 82.4813 52.8456 82.4813 48.697V41.5097H79.3905V37.965H82.4813V33.6805L86.5762 33.241ZM75.2546 44.3112C74.9871 42.1516 73.3063 41.0702 70.9551 41.0702C68.7393 41.0702 66.9232 42.1516 66.3189 44.3112H75.2546ZM66.2528 47.7199C66.5203 49.7784 68.3018 51.2646 71.1912 51.2646C72.702 51.2646 74.6849 50.6891 75.626 49.712L78.2448 52.3112C76.4979 54.1325 73.6431 55.0116 71.122 55.0116C65.4092 55.0116 62.0162 51.4669 62.0162 46.1357C62.0162 41.0733 65.4439 37.4275 70.8167 37.4275C76.3594 37.4275 79.8185 40.8709 79.1827 47.7199H66.2528Z" fill="white"/>
</svg>
