<svg width="186" height="62" viewBox="0 0 186 62" fill="none" xmlns="http://www.w3.org/2000/svg">
<path d="M137.892 14V5.74H134.644V4.2H142.96V5.74H139.712V14H137.892ZM144.325 14V4.2H148.357C149.225 4.2 149.967 4.34 150.583 4.62C151.209 4.9 151.689 5.30133 152.025 5.824C152.361 6.34667 152.529 6.96733 152.529 7.686C152.529 8.40467 152.361 9.02533 152.025 9.548C151.689 10.0613 151.209 10.458 150.583 10.738C149.967 11.0087 149.225 11.144 148.357 11.144H145.333L146.145 10.318V14H144.325ZM150.737 14L148.259 10.444H150.205L152.697 14H150.737ZM146.145 10.514L145.333 9.646H148.273C149.076 9.646 149.678 9.47333 150.079 9.128C150.49 8.78267 150.695 8.302 150.695 7.686C150.695 7.06067 150.49 6.58 150.079 6.244C149.678 5.908 149.076 5.74 148.273 5.74H145.333L146.145 4.844V10.514ZM159.102 14.14C158.355 14.14 157.66 14.0187 157.016 13.776C156.381 13.524 155.826 13.174 155.35 12.726C154.883 12.2687 154.519 11.732 154.258 11.116C153.996 10.5 153.866 9.828 153.866 9.1C153.866 8.372 153.996 7.7 154.258 7.084C154.519 6.468 154.888 5.936 155.364 5.488C155.84 5.03067 156.395 4.68067 157.03 4.438C157.664 4.186 158.36 4.06 159.116 4.06C159.918 4.06 160.651 4.2 161.314 4.48C161.976 4.75067 162.536 5.15667 162.994 5.698L161.818 6.804C161.463 6.42133 161.066 6.13667 160.628 5.95C160.189 5.754 159.713 5.656 159.2 5.656C158.686 5.656 158.215 5.74 157.786 5.908C157.366 6.076 156.997 6.314 156.68 6.622C156.372 6.93 156.129 7.294 155.952 7.714C155.784 8.134 155.7 8.596 155.7 9.1C155.7 9.604 155.784 10.066 155.952 10.486C156.129 10.906 156.372 11.27 156.68 11.578C156.997 11.886 157.366 12.124 157.786 12.292C158.215 12.46 158.686 12.544 159.2 12.544C159.713 12.544 160.189 12.4507 160.628 12.264C161.066 12.068 161.463 11.774 161.818 11.382L162.994 12.502C162.536 13.034 161.976 13.44 161.314 13.72C160.651 14 159.914 14.14 159.102 14.14ZM167.781 14V12.782L171.673 9.086C171.999 8.778 172.242 8.50733 172.401 8.274C172.559 8.04067 172.662 7.826 172.709 7.63C172.765 7.42467 172.793 7.23333 172.793 7.056C172.793 6.608 172.639 6.26267 172.331 6.02C172.023 5.768 171.57 5.642 170.973 5.642C170.497 5.642 170.063 5.726 169.671 5.894C169.288 6.062 168.957 6.31867 168.677 6.664L167.403 5.684C167.785 5.17067 168.299 4.774 168.943 4.494C169.596 4.20467 170.324 4.06 171.127 4.06C171.836 4.06 172.452 4.17667 172.975 4.41C173.507 4.634 173.913 4.956 174.193 5.376C174.482 5.796 174.627 6.29533 174.627 6.874C174.627 7.19133 174.585 7.50867 174.501 7.826C174.417 8.134 174.258 8.46067 174.025 8.806C173.791 9.15133 173.451 9.53867 173.003 9.968L169.657 13.146L169.279 12.46H175.005V14H167.781ZM180.143 14.14C179.368 14.14 178.668 13.944 178.043 13.552C177.427 13.16 176.942 12.5907 176.587 11.844C176.232 11.088 176.055 10.1733 176.055 9.1C176.055 8.02667 176.232 7.11667 176.587 6.37C176.942 5.614 177.427 5.04 178.043 4.648C178.668 4.256 179.368 4.06 180.143 4.06C180.927 4.06 181.627 4.256 182.243 4.648C182.859 5.04 183.344 5.614 183.699 6.37C184.063 7.11667 184.245 8.02667 184.245 9.1C184.245 10.1733 184.063 11.088 183.699 11.844C183.344 12.5907 182.859 13.16 182.243 13.552C181.627 13.944 180.927 14.14 180.143 14.14ZM180.143 12.558C180.6 12.558 180.997 12.4367 181.333 12.194C181.669 11.942 181.93 11.5593 182.117 11.046C182.313 10.5327 182.411 9.884 182.411 9.1C182.411 8.30667 182.313 7.658 182.117 7.154C181.93 6.64067 181.669 6.26267 181.333 6.02C180.997 5.768 180.6 5.642 180.143 5.642C179.704 5.642 179.312 5.768 178.967 6.02C178.631 6.26267 178.365 6.64067 178.169 7.154C177.982 7.658 177.889 8.30667 177.889 9.1C177.889 9.884 177.982 10.5327 178.169 11.046C178.365 11.5593 178.631 11.942 178.967 12.194C179.312 12.4367 179.704 12.558 180.143 12.558Z" fill="#8C95BF"/>
<path d="M19.5775 61.8787C30.3898 61.8787 39.155 53.0731 39.155 42.2108C39.155 31.3486 30.3898 22.543 19.5775 22.543C8.76514 22.543 0 31.3486 0 42.2108C0 53.0731 8.76514 61.8787 19.5775 61.8787Z" fill="#26A17B"/>
<path d="M21.6693 44.029V44.0258C21.534 44.0353 20.8353 44.0764 19.2804 44.0764C18.0371 44.0764 17.1653 44.0416 16.8568 44.0258V44.029C12.0757 43.8171 8.50962 42.9823 8.50962 41.98C8.50962 40.9808 12.0789 40.1428 16.8568 39.931V43.1973C17.1684 43.2195 18.0654 43.2732 19.3024 43.2732C20.788 43.2732 21.5309 43.21 21.6693 43.1973V39.9341C26.441 40.1491 29.9976 40.9839 29.9976 41.9831C29.9976 42.9823 26.4378 43.8171 21.6693 44.0321M21.6693 39.5958V36.6741H28.3263V32.2188H10.203V36.6741H16.86V39.5958C11.4494 39.8456 7.38281 40.9207 7.38281 42.2108C7.38281 43.5009 11.4525 44.576 16.86 44.829V54.1949H21.6725V44.829C27.0736 44.5792 31.1339 43.5041 31.1339 42.2139C31.1339 40.927 27.0736 39.8487 21.6725 39.5989" fill="white"/>
<path d="M55.7873 33.4307V38.1548H60.3575V41.6994H55.7558V48.8867C55.7558 50.4741 56.6277 51.2488 57.9056 51.2488C58.5445 51.2488 59.2842 51.0464 59.8885 50.7428L61.0311 54.2527C59.857 54.7238 58.8813 54.9262 57.6381 54.961C54.0436 55.0969 51.6924 53.0385 51.6924 48.8867V41.6994H48.6016V38.1548H51.6924V33.8702L55.7873 33.4307ZM134.579 37.9334L134.881 39.8559C136.159 37.7974 137.871 37.4939 139.552 37.4939C141.264 37.4939 142.91 38.1674 143.817 39.0781L141.969 42.6543C141.129 41.946 140.358 41.5729 139.014 41.5729C136.864 41.5729 134.881 42.7207 134.881 45.7911V54.5657H130.783V37.9271L134.579 37.9334ZM124.535 44.3112C124.268 42.1516 122.587 41.0702 120.236 41.0702C118.02 41.0702 116.204 42.1516 115.599 44.3112H124.535ZM115.533 47.7199C115.801 49.7784 117.582 51.2646 120.472 51.2646C121.983 51.2646 123.965 50.6891 124.907 49.712L127.525 52.3112C125.778 54.1325 122.924 55.0116 120.402 55.0116C114.693 55.0116 111.297 51.4669 111.297 46.1357C111.297 41.0733 114.724 37.4275 120.1 37.4275C125.643 37.4275 129.105 40.8709 128.466 47.7199H115.533ZM97.4603 30.9453V40.1911C98.9396 38.2686 100.753 37.6931 102.635 37.6931C107.337 37.6931 109.421 40.8994 109.421 45.7942V54.5689H105.323V45.829C105.323 42.7903 103.743 41.5097 101.558 41.5097C99.1379 41.5097 97.4603 43.5682 97.4603 46.0662V54.572H93.3622V30.9485L97.4603 30.9453ZM86.5762 33.241V37.965H91.1464V41.5097H86.5447V48.697C86.5447 50.2843 87.4197 51.059 88.6945 51.059C89.3334 51.059 90.0731 50.8567 90.6774 50.5531L91.82 54.063C90.6459 54.5341 89.6702 54.7365 88.4269 54.7713C84.8325 54.9072 82.4813 52.8456 82.4813 48.697V41.5097H79.3905V37.965H82.4813V33.6805L86.5762 33.241ZM75.2546 44.3112C74.9871 42.1516 73.3063 41.0702 70.9551 41.0702C68.7393 41.0702 66.9232 42.1516 66.3189 44.3112H75.2546ZM66.2528 47.7199C66.5203 49.7784 68.3018 51.2646 71.1912 51.2646C72.702 51.2646 74.6849 50.6891 75.626 49.712L78.2448 52.3112C76.4979 54.1325 73.6431 55.0116 71.122 55.0116C65.4092 55.0116 62.0162 51.4669 62.0162 46.1357C62.0162 41.0733 65.4439 37.4275 70.8167 37.4275C76.3594 37.4275 79.8185 40.8709 79.1827 47.7199H66.2528Z" fill="white"/>
</svg>
