<svg width="186" height="62" viewBox="0 0 186 62" fill="none" xmlns="http://www.w3.org/2000/svg">
<path d="M137.105 8.274H141.977V9.772H137.105V8.274ZM137.245 12.474H142.775V14H135.425V4.2H142.579V5.726H137.245V12.474ZM144.804 14V4.2H148.836C149.704 4.2 150.446 4.34 151.062 4.62C151.687 4.9 152.168 5.30133 152.504 5.824C152.84 6.34667 153.008 6.96733 153.008 7.686C153.008 8.40467 152.84 9.02533 152.504 9.548C152.168 10.0613 151.687 10.458 151.062 10.738C150.446 11.0087 149.704 11.144 148.836 11.144H145.812L146.624 10.318V14H144.804ZM151.216 14L148.738 10.444H150.684L153.176 14H151.216ZM146.624 10.514L145.812 9.646H148.752C149.555 9.646 150.157 9.47333 150.558 9.128C150.969 8.78267 151.174 8.302 151.174 7.686C151.174 7.06067 150.969 6.58 150.558 6.244C150.157 5.908 149.555 5.74 148.752 5.74H145.812L146.624 4.844V10.514ZM159.58 14.14C158.834 14.14 158.138 14.0187 157.494 13.776C156.86 13.524 156.304 13.174 155.828 12.726C155.362 12.2687 154.998 11.732 154.736 11.116C154.475 10.5 154.344 9.828 154.344 9.1C154.344 8.372 154.475 7.7 154.736 7.084C154.998 6.468 155.366 5.936 155.842 5.488C156.318 5.03067 156.874 4.68067 157.508 4.438C158.143 4.186 158.838 4.06 159.594 4.06C160.397 4.06 161.13 4.2 161.792 4.48C162.455 4.75067 163.015 5.15667 163.472 5.698L162.296 6.804C161.942 6.42133 161.545 6.13667 161.106 5.95C160.668 5.754 160.192 5.656 159.678 5.656C159.165 5.656 158.694 5.74 158.264 5.908C157.844 6.076 157.476 6.314 157.158 6.622C156.85 6.93 156.608 7.294 156.43 7.714C156.262 8.134 156.178 8.596 156.178 9.1C156.178 9.604 156.262 10.066 156.43 10.486C156.608 10.906 156.85 11.27 157.158 11.578C157.476 11.886 157.844 12.124 158.264 12.292C158.694 12.46 159.165 12.544 159.678 12.544C160.192 12.544 160.668 12.4507 161.106 12.264C161.545 12.068 161.942 11.774 162.296 11.382L163.472 12.502C163.015 13.034 162.455 13.44 161.792 13.72C161.13 14 160.392 14.14 159.58 14.14ZM168.259 14V12.782L172.151 9.086C172.478 8.778 172.721 8.50733 172.879 8.274C173.038 8.04067 173.141 7.826 173.187 7.63C173.243 7.42467 173.271 7.23333 173.271 7.056C173.271 6.608 173.117 6.26267 172.809 6.02C172.501 5.768 172.049 5.642 171.451 5.642C170.975 5.642 170.541 5.726 170.149 5.894C169.767 6.062 169.435 6.31867 169.155 6.664L167.881 5.684C168.264 5.17067 168.777 4.774 169.421 4.494C170.075 4.20467 170.803 4.06 171.605 4.06C172.315 4.06 172.931 4.17667 173.453 4.41C173.985 4.634 174.391 4.956 174.671 5.376C174.961 5.796 175.105 6.29533 175.105 6.874C175.105 7.19133 175.063 7.50867 174.979 7.826C174.895 8.134 174.737 8.46067 174.503 8.806C174.27 9.15133 173.929 9.53867 173.481 9.968L170.135 13.146L169.757 12.46H175.483V14H168.259ZM180.622 14.14C179.847 14.14 179.147 13.944 178.522 13.552C177.906 13.16 177.42 12.5907 177.066 11.844C176.711 11.088 176.534 10.1733 176.534 9.1C176.534 8.02667 176.711 7.11667 177.066 6.37C177.42 5.614 177.906 5.04 178.522 4.648C179.147 4.256 179.847 4.06 180.622 4.06C181.406 4.06 182.106 4.256 182.722 4.648C183.338 5.04 183.823 5.614 184.178 6.37C184.542 7.11667 184.724 8.02667 184.724 9.1C184.724 10.1733 184.542 11.088 184.178 11.844C183.823 12.5907 183.338 13.16 182.722 13.552C182.106 13.944 181.406 14.14 180.622 14.14ZM180.622 12.558C181.079 12.558 181.476 12.4367 181.812 12.194C182.148 11.942 182.409 11.5593 182.596 11.046C182.792 10.5327 182.89 9.884 182.89 9.1C182.89 8.30667 182.792 7.658 182.596 7.154C182.409 6.64067 182.148 6.26267 181.812 6.02C181.476 5.768 181.079 5.642 180.622 5.642C180.183 5.642 179.791 5.768 179.446 6.02C179.11 6.26267 178.844 6.64067 178.648 7.154C178.461 7.658 178.368 8.30667 178.368 9.1C178.368 9.884 178.461 10.5327 178.648 11.046C178.844 11.5593 179.11 11.942 179.446 12.194C179.791 12.4367 180.183 12.558 180.622 12.558Z" fill="#8C95BF"/>
<path d="M19.5775 61.8787C30.3898 61.8787 39.155 53.0731 39.155 42.2108C39.155 31.3486 30.3898 22.543 19.5775 22.543C8.76514 22.543 0 31.3486 0 42.2108C0 53.0731 8.76514 61.8787 19.5775 61.8787Z" fill="#26A17B"/>
<path d="M21.6693 44.029V44.0258C21.534 44.0353 20.8353 44.0764 19.2804 44.0764C18.0371 44.0764 17.1653 44.0416 16.8568 44.0258V44.029C12.0757 43.8171 8.50962 42.9823 8.50962 41.98C8.50962 40.9808 12.0789 40.1428 16.8568 39.931V43.1973C17.1684 43.2195 18.0654 43.2732 19.3024 43.2732C20.788 43.2732 21.5309 43.21 21.6693 43.1973V39.9341C26.441 40.1491 29.9976 40.9839 29.9976 41.9831C29.9976 42.9823 26.4378 43.8171 21.6693 44.0321M21.6693 39.5958V36.6741H28.3263V32.2188H10.203V36.6741H16.86V39.5958C11.4494 39.8456 7.38281 40.9207 7.38281 42.2108C7.38281 43.5009 11.4525 44.576 16.86 44.829V54.1949H21.6725V44.829C27.0736 44.5792 31.1339 43.5041 31.1339 42.2139C31.1339 40.927 27.0736 39.8487 21.6725 39.5989" fill="white"/>
<path d="M55.7873 33.4307V38.1548H60.3575V41.6994H55.7558V48.8867C55.7558 50.4741 56.6277 51.2488 57.9056 51.2488C58.5445 51.2488 59.2842 51.0464 59.8885 50.7428L61.0311 54.2527C59.857 54.7238 58.8813 54.9262 57.6381 54.961C54.0436 55.0969 51.6924 53.0385 51.6924 48.8867V41.6994H48.6016V38.1548H51.6924V33.8702L55.7873 33.4307ZM134.579 37.9334L134.881 39.8559C136.159 37.7974 137.871 37.4939 139.552 37.4939C141.264 37.4939 142.91 38.1674 143.817 39.0781L141.969 42.6543C141.129 41.946 140.358 41.5729 139.014 41.5729C136.864 41.5729 134.881 42.7207 134.881 45.7911V54.5657H130.783V37.9271L134.579 37.9334ZM124.535 44.3112C124.268 42.1516 122.587 41.0702 120.236 41.0702C118.02 41.0702 116.204 42.1516 115.599 44.3112H124.535ZM115.533 47.7199C115.801 49.7784 117.582 51.2646 120.472 51.2646C121.983 51.2646 123.965 50.6891 124.907 49.712L127.525 52.3112C125.778 54.1325 122.924 55.0116 120.402 55.0116C114.693 55.0116 111.297 51.4669 111.297 46.1357C111.297 41.0733 114.724 37.4275 120.1 37.4275C125.643 37.4275 129.105 40.8709 128.466 47.7199H115.533ZM97.4603 30.9453V40.1911C98.9396 38.2686 100.753 37.6931 102.635 37.6931C107.337 37.6931 109.421 40.8994 109.421 45.7942V54.5689H105.323V45.829C105.323 42.7903 103.743 41.5097 101.558 41.5097C99.1379 41.5097 97.4603 43.5682 97.4603 46.0662V54.572H93.3622V30.9485L97.4603 30.9453ZM86.5762 33.241V37.965H91.1464V41.5097H86.5447V48.697C86.5447 50.2843 87.4197 51.059 88.6945 51.059C89.3334 51.059 90.0731 50.8567 90.6774 50.5531L91.82 54.063C90.6459 54.5341 89.6702 54.7365 88.4269 54.7713C84.8325 54.9072 82.4813 52.8456 82.4813 48.697V41.5097H79.3905V37.965H82.4813V33.6805L86.5762 33.241ZM75.2546 44.3112C74.9871 42.1516 73.3063 41.0702 70.9551 41.0702C68.7393 41.0702 66.9232 42.1516 66.3189 44.3112H75.2546ZM66.2528 47.7199C66.5203 49.7784 68.3018 51.2646 71.1912 51.2646C72.702 51.2646 74.6849 50.6891 75.626 49.712L78.2448 52.3112C76.4979 54.1325 73.6431 55.0116 71.122 55.0116C65.4092 55.0116 62.0162 51.4669 62.0162 46.1357C62.0162 41.0733 65.4439 37.4275 70.8167 37.4275C76.3594 37.4275 79.8185 40.8709 79.1827 47.7199H66.2528Z" fill="white"/>
</svg>
