<svg width="129" height="39" viewBox="0 0 129 39" fill="none" xmlns="http://www.w3.org/2000/svg">
<path d="M7.35949 19.7392C3.133 9.12941 -0.167138 0.249487 0.00655379 0.0188394C0.238142 -0.154146 7.1279 0.883767 15.2914 2.32531L30.2289 5.03542L34.108 8.89876L37.9292 12.8198L27.1603 25.909C21.1969 33.1167 16.0441 38.9982 15.6967 38.9982C15.3493 39.0559 11.6439 30.349 7.35949 19.7392ZM16.3915 23.6025C16.9125 19.3932 17.2599 15.8758 17.1441 15.7605C17.0283 15.7029 14.7124 13.8 11.9913 11.6089C4.29094 5.32373 4.81202 5.61204 5.73837 7.91851C6.20155 9.01408 8.51744 14.7803 10.8912 20.7194C13.265 26.6009 15.2335 31.3869 15.2914 31.3292C15.3493 31.2715 15.8704 27.8118 16.3915 23.6025ZM25.4813 23.1989C29.1867 18.7589 32.0816 15.0686 32.0237 14.9532C31.85 14.7803 20.56 16.6831 20.2127 16.9138C19.9232 17.0867 18.4179 28.5038 18.36 30.349C18.36 31.0986 18.4757 31.6175 18.5915 31.5022C18.7073 31.3869 21.8338 27.6388 25.4813 23.1989ZM28.9551 12.5315L32.95 11.7818L31.2131 10.052C29.2446 8.09149 29.0709 8.14916 24.7286 11.9548C23.2233 13.2811 22.9917 13.6847 23.8602 13.454C24.4971 13.3387 26.8129 12.8774 28.9551 12.5315ZM22.4707 10.1097C24.4392 8.43746 25.8287 7.05358 25.5392 6.93826C23.6286 6.47696 8.28585 3.88218 7.93847 3.9975C7.47529 4.17049 17.7231 12.9927 18.4757 13.0504C18.6494 13.1081 20.4443 11.7818 22.4707 10.1097Z" fill="#D61719"/>
<path d="M121.073 22.91L114.183 14.8374L114.01 22.0451C113.894 28.7915 113.778 29.2528 112.736 29.2528C111.636 29.2528 111.578 28.7915 111.578 18.5854C111.578 12.7039 111.694 7.91797 111.81 7.91797C111.983 7.91797 115.168 11.4353 118.931 15.76L125.763 23.602L125.937 16.6249C126.052 10.1091 126.168 9.64782 127.21 9.64782C128.31 9.64782 128.368 10.1091 128.368 20.3153C128.368 26.1968 128.31 30.9827 128.195 30.9827C128.079 30.9827 124.894 27.35 121.073 22.91Z" fill="white"/>
<path d="M50.2031 22.3335C50.2031 15.8177 50.261 15.4141 51.3611 15.4141C52.4611 15.4141 52.519 15.8177 52.519 22.3335C52.519 28.8493 52.4611 29.2529 51.3611 29.2529C50.261 29.2529 50.2031 28.8493 50.2031 22.3335Z" fill="white"/>
<path d="M53.6797 22.3335C53.6797 15.8177 53.7376 15.4141 54.8376 15.4141C55.9377 15.4141 55.9956 15.8177 55.9956 22.3335C55.9956 28.8493 55.9377 29.2529 54.8376 29.2529C53.7376 29.2529 53.6797 28.8493 53.6797 22.3335Z" fill="white"/>
<path d="M65.8359 19.4509V9.64844H72.552C76.1995 9.64844 79.7313 9.93675 80.3681 10.2251C80.9471 10.571 81.8735 11.6089 82.3366 12.5315C83.7262 15.184 83.4367 17.4328 81.4682 19.6816L79.6734 21.6998L81.4682 25.1595C82.3945 27.0623 83.2051 28.7922 83.2051 28.9651C83.2051 29.1381 82.6261 29.2535 81.9313 29.2535C80.8892 29.2535 80.1365 28.3885 78.5733 25.5054C76.6627 21.9304 76.4311 21.7574 74.4047 21.7574H72.2046V25.5054C72.2046 28.8498 72.0888 29.2535 71.0467 29.2535C70.0045 29.2535 69.8887 28.8498 69.8887 24.4099V19.6239L74.2889 19.3356C78.8049 19.0473 79.8471 18.4707 80.5997 16.1642C80.8313 15.184 80.5418 14.492 79.4997 13.3965C78.168 12.0702 77.5891 11.9549 73.0731 11.9549H68.1518V20.6042C68.1518 28.8498 68.0939 29.2535 66.9939 29.2535C65.8938 29.2535 65.8359 28.8498 65.8359 19.4509Z" fill="white"/>
<path d="M93.9149 28.3885C87.8936 26.255 85.5198 18.932 89.1674 13.6848C90.9043 11.09 93.857 9.64844 97.4466 9.64844C104.626 9.64844 109.142 17.2021 105.958 23.8909C104.105 27.8696 98.4309 30.0031 93.9149 28.3885ZM102.021 24.6405C105.205 21.6421 105.321 17.0868 102.252 14.2037C97.6203 9.87908 90.0937 12.9352 90.1516 19.0473C90.2095 21.9881 91.1359 23.7756 93.3938 25.2748C95.6518 26.8317 100.052 26.4857 102.021 24.6405Z" fill="white"/>
<path d="M95.9453 19.2219C95.9453 18.011 96.2348 17.7227 97.4506 17.7227C98.6665 17.7227 98.8981 17.9533 98.7244 19.0489C98.6086 19.8561 98.0875 20.3751 97.2769 20.4904C96.1769 20.6634 95.9453 20.4328 95.9453 19.2219Z" fill="white"/>
<path d="M115.047 25.216C115.047 21.5833 115.163 21.1797 116.205 21.1797C117.247 21.1797 117.363 21.5833 117.363 25.216C117.363 28.8487 117.247 29.2523 116.205 29.2523C115.163 29.2523 115.047 28.8487 115.047 25.216Z" fill="white"/>
<path d="M44.4141 10.8017C44.4141 9.7061 44.8193 9.64844 53.0986 9.64844C61.3779 9.64844 61.7832 9.7061 61.7832 10.8017C61.7832 11.8972 61.3779 11.9549 53.0986 11.9549C44.8193 11.9549 44.4141 11.8972 44.4141 10.8017Z" fill="white"/>
</svg>
