<svg width="181" height="38" viewBox="0 0 181 38" fill="none" xmlns="http://www.w3.org/2000/svg">
<path d="M34.4347 0C30.6852 0 27.0198 1.09691 23.9021 3.15202C20.7845 5.20713 18.3546 8.12813 16.9197 11.5457C15.4848 14.9632 15.1093 18.7237 15.8408 22.3517C16.5724 25.9798 18.3779 29.3123 21.0293 31.928C23.6806 34.5436 27.0587 36.3249 30.7362 37.0466C34.4137 37.7682 38.2256 37.3979 41.6897 35.9823C45.1539 34.5667 48.1147 32.1695 50.1979 29.0938C52.281 26.0181 53.3929 22.4021 53.3929 18.703C53.3929 13.7426 51.3955 8.98546 47.8402 5.47797C44.2848 1.97049 39.4628 0 34.4347 0ZM34.4347 25.6904C33.0339 25.6904 31.6645 25.2806 30.4998 24.5128C29.335 23.745 28.4272 22.6537 27.8911 21.3769C27.355 20.1002 27.2148 18.6952 27.4881 17.3398C27.7613 15.9844 28.4359 14.7393 29.4265 13.7621C30.417 12.7849 31.679 12.1194 33.053 11.8498C34.4269 11.5802 35.851 11.7186 37.1452 12.2474C38.4394 12.7763 39.5456 13.6719 40.3238 14.821C41.1021 15.97 41.5175 17.321 41.5175 18.703C41.5135 20.5549 40.766 22.3299 39.4386 23.6395C38.1112 24.949 36.312 25.6865 34.4347 25.6904Z" fill="#8B3FFD"/>
<path d="M15.4774 5.44531V32.6694H8.65251L0 5.44531H15.4774Z" fill="#8B3FFD"/>
<path d="M175.428 10.2998L171.227 20.4742C171.132 20.6157 171.09 20.7845 171.105 20.953L170.984 21.1849L170.87 20.953C170.87 20.8333 170.749 20.5939 170.749 20.4742L166.548 10.2998H161.148L168.231 27.6786L165.198 34.3069H170.628L180.584 10.2773L175.428 10.2998Z" fill="white"/>
<path d="M135.593 11.2216C134.542 10.4591 133.293 10.0076 131.991 9.91992C130.856 9.79773 129.707 9.92559 128.628 10.2943C127.548 10.663 126.566 11.2633 125.75 12.0521V10.1818H120.836V27.583H125.75V18.4634C125.75 16.451 126.114 15.86 126.508 15.3887C126.842 14.9089 127.298 14.5247 127.831 14.2751C128.364 14.0255 128.954 13.9193 129.542 13.9672C130.15 13.9464 130.755 14.0765 131.299 14.3457C131.844 14.615 132.311 15.0147 132.658 15.5084C132.966 16.1786 133.129 16.9047 133.136 17.6405V27.583H138.02V17.042C138.02 14.3263 137.148 12.4261 135.593 11.2216Z" fill="white"/>
<path d="M111.473 10.4153C109.038 9.5865 106.374 9.71511 104.033 10.7744C102.413 11.4888 101.067 12.6944 100.189 14.2157C99.3434 15.6507 98.928 17.2928 98.9905 18.9513C98.9288 20.6098 99.3442 22.2516 100.189 23.6869C100.994 25.0327 102.155 26.137 103.548 26.8814C104.997 27.6183 106.597 28.0224 108.227 28.0634C109.07 28.0485 109.907 27.9201 110.714 27.6818C111.453 27.4541 112.175 27.1766 112.876 26.8514C114.268 26.1062 115.429 25.0021 116.235 23.657C117.079 22.2217 117.495 20.5798 117.433 18.9214C117.522 17.055 116.987 15.2114 115.91 13.6744C114.833 12.1374 113.274 10.9923 111.473 10.4153ZM112.913 19.1757C112.91 20.5479 112.366 21.865 111.397 22.849C110.475 23.5187 109.371 23.8992 108.227 23.9413C107.089 23.9923 105.974 23.6123 105.11 22.8789C104.119 21.9053 103.558 20.5853 103.548 19.2057C103.469 18.4092 103.604 17.6063 103.941 16.8783C104.278 16.1504 104.805 15.5234 105.467 15.0611C106.249 14.5445 107.164 14.259 108.106 14.2382C109.085 14.2559 110.04 14.5408 110.866 15.0611C111.567 15.4851 112.131 16.0972 112.492 16.8259C112.853 17.5545 112.997 18.3696 112.906 19.1757H112.913Z" fill="white"/>
<path d="M93.3488 11.2236C92.2978 10.4611 91.0484 10.0096 89.7468 9.92188H88.9126C87.9368 9.93476 86.9764 10.1648 86.1033 10.5949C85.2301 11.0249 84.4666 11.6439 83.8697 12.4056L83.6347 12.7647H83.1493C82.8072 12.2109 82.359 11.7282 81.8298 11.3433C80.7788 10.5808 79.5294 10.1293 78.2278 10.0416C77.1827 9.90223 76.1189 10.0245 75.1343 10.3971C74.1497 10.7697 73.2759 11.3806 72.5934 12.1737V10.4156H67.6719V27.8169H72.5934V18.4654C72.5934 16.5727 72.8285 16.1013 73.1925 15.5103C73.489 15.0303 73.9166 14.6424 74.4262 14.391C74.9359 14.1396 75.507 14.0349 76.0741 14.0889C76.6466 14.0829 77.2111 14.2213 77.7141 14.491C78.2172 14.7608 78.6419 15.1528 78.9482 15.63C79.3511 16.3506 79.5205 17.1756 79.4335 17.9941V27.6822H84.3475V18.3532C84.3475 16.5727 84.5901 15.9816 84.9541 15.3607C85.2679 14.899 85.6976 14.5254 86.2013 14.2763C86.7049 14.0271 87.2655 13.911 87.8282 13.9393C88.385 13.9344 88.9332 14.0742 89.4178 14.3448C89.9024 14.6153 90.3061 15.007 90.5885 15.4804C90.903 16.0201 91.0702 16.631 91.0738 17.2534V27.585H95.9878V16.9317C95.9934 16.0124 95.8735 15.0964 95.6314 14.2086C95.1973 13.007 94.4008 11.9653 93.3488 11.2236Z" fill="white"/>
<path d="M156.463 22.3739C155.21 23.6097 153.551 24.3632 151.785 24.4985C150.975 24.5835 150.156 24.4899 149.388 24.2247C148.619 23.9595 147.92 23.5292 147.341 22.9649C146.846 22.4161 146.479 21.7677 146.264 21.0647H159.823V20.945C159.963 20.2825 160.045 19.6091 160.065 18.9325C160.03 18.097 159.908 17.2673 159.701 16.4563C159.13 14.5608 157.952 12.8992 156.342 11.7207C155.208 10.8332 153.855 10.2599 152.422 10.0598C150.598 9.76667 148.727 10.0031 147.037 10.7403C145.348 11.4775 143.912 12.6837 142.905 14.2119C141.94 15.7864 141.48 17.6118 141.585 19.4487C141.594 21.5918 142.404 23.6564 143.86 25.2466C146.385 27.9698 149.866 28.0895 150.943 28.2391C155.743 28.3588 158.981 25.3963 159.701 24.8053L156.463 22.3739ZM148.061 15.0348C148.833 14.4968 149.755 14.2092 150.7 14.2119C151.681 14.2296 152.637 14.5172 153.46 15.0423C154.182 15.6115 154.758 16.3391 155.144 17.167H146.507C146.59 16.7202 146.772 16.2972 147.041 15.9284C147.31 15.5597 147.658 15.2545 148.061 15.0348Z" fill="white"/>
</svg>
