<svg width="24" height="19" viewBox="0 0 24 19" fill="none" xmlns="http://www.w3.org/2000/svg">
    <path fill-rule="evenodd" clip-rule="evenodd" d="M2.27588 0.0739377C1.88049 0.181967 1.29655 0.505711 0.999089 0.781785C0.640907 1.1142 0.290984 1.67213 0.130547 2.16661L0 2.56909V9.50156V16.434L0.130547 16.8365C0.434013 17.7719 1.09454 18.4732 2.0299 18.8532L2.34627 18.9817L7.76616 18.9964C11.6066 19.0068 13.2681 18.9952 13.4676 18.9565C13.6224 18.9264 13.9479 18.8019 14.1908 18.6796C14.7842 18.381 15.2552 17.8986 15.5463 17.2914C15.8441 16.6701 15.8825 16.3992 15.8833 14.9153C15.8838 13.7374 15.877 13.6296 15.7923 13.4846C15.5534 13.0756 15.0144 13.0779 14.7762 13.4889C14.6972 13.625 14.6847 13.7862 14.6603 14.9888C14.6453 15.7298 14.6134 16.3912 14.5893 16.4585C14.3524 17.1225 13.814 17.6047 13.1679 17.7317C12.8229 17.7995 3.0379 17.7995 2.69286 17.7317C2.11685 17.6184 1.62001 17.2155 1.36492 16.6545L1.22006 16.3361V9.50156V2.66708L1.36492 2.34862C1.62212 1.78305 2.11943 1.38234 2.70361 1.26995C2.87765 1.23649 4.70911 1.22385 8.10003 1.23276L13.233 1.24629L13.4963 1.3575C13.8439 1.50428 14.1501 1.75909 14.3583 2.07465C14.6529 2.52122 14.6771 2.666 14.6959 4.08787C14.7143 5.48019 14.733 5.58572 14.991 5.7448C15.0644 5.79007 15.2135 5.82711 15.3222 5.82711C15.4893 5.82711 15.5481 5.79766 15.7021 5.63692L15.8843 5.44668V4.10149C15.8843 2.92296 15.8728 2.70941 15.7917 2.37846C15.5691 1.46945 14.9879 0.723876 14.1908 0.324487C13.9479 0.202789 13.6372 0.0793269 13.5005 0.0500782C13.3298 0.0136276 11.5705 -0.00200096 7.8929 0.000203718C3.38778 0.00289832 2.49287 0.0146564 2.27588 0.0739377ZM18.9699 4.68827C18.7891 4.80527 18.6833 5.06022 18.7146 5.30347C18.7381 5.48646 18.8591 5.6255 20.3503 7.18288L21.9606 8.86466L16.2594 8.86485C10.6912 8.865 10.5547 8.86726 10.4082 8.96049C10.203 9.09115 10.0996 9.27238 10.0996 9.50156C10.0996 9.73075 10.203 9.91198 10.4082 10.0426C10.5547 10.1359 10.6912 10.1381 16.2588 10.1383L21.9593 10.1385L20.3295 11.8426L18.6998 13.5467V13.758C18.6998 14.0062 18.8019 14.2089 18.9832 14.3207C19.1433 14.4195 19.4131 14.4241 19.582 14.3309C19.6517 14.2925 20.662 13.2618 21.8272 12.0405C23.4998 10.2873 23.9524 9.78651 23.9777 9.66079C24.0523 9.29085 24.0682 9.31084 21.8275 6.96281C20.6622 5.74162 19.6517 4.71096 19.582 4.6724C19.4122 4.57848 19.128 4.58588 18.9699 4.68827Z" fill="white"/>
</svg>
