<svg width="42" height="43" viewBox="0 0 42 43" fill="none" xmlns="http://www.w3.org/2000/svg">
    <path d="M31.7997 1L41.5 10.2594V32.7406L31.7997 42H10.2003L0.5 32.7406V10.2594L10.2003 1L12 1L31.7997 1Z" fill="#615F77" stroke="#9B99AD"/>
    <g clipPath="url(#clip0_1549_60505)">
        <path d="M24.9375 19.8125C24.9375 18.3207 24.3449 16.8899 23.29 15.835C22.2351 14.7801 20.8043 14.1875 19.3125 14.1875C17.8207 14.1875 16.3899 14.7801 15.335 15.835C14.2801 16.8899 13.6875 18.3207 13.6875 19.8125C13.6875 21.3043 14.2801 22.7351 15.335 23.79C16.3899 24.8449 17.8207 25.4375 19.3125 25.4375C20.8043 25.4375 22.2351 24.8449 23.29 23.79C24.3449 22.7351 24.9375 21.3043 24.9375 19.8125ZM23.8512 25.5465C22.6066 26.5344 21.0281 27.125 19.3125 27.125C15.273 27.125 12 23.852 12 19.8125C12 15.773 15.273 12.5 19.3125 12.5C23.352 12.5 26.625 15.773 26.625 19.8125C26.625 21.5281 26.0344 23.1066 25.0465 24.3512L29.7539 29.0586C30.0844 29.3891 30.0844 29.9234 29.7539 30.2504C29.4234 30.5773 28.8891 30.5809 28.5621 30.2504L23.8512 25.5465Z" fill="white"/>
    </g>
    <defs>
        <clipPath id="clip0_1549_60505">
            <rect width="18" height="18" fill="white" transform="translate(12 12.5)"/>
        </clipPath>
    </defs>
</svg>
