<svg width="18" height="21" viewBox="0 0 18 21" fill="none" xmlns="http://www.w3.org/2000/svg">
<path d="M14.9464 2C14.9885 1.39588 14.9992 1 14.9992 1H3C3 1 3.01062 1.39588 3.05257 2M14.9464 2C14.8541 3.32479 14.611 5.651 13.9992 7C13.7089 7.64015 13.3754 8.2241 13 8.7361M14.9464 2H16.0019C16.5573 2 17.0108 2.45467 16.9736 3.00876C16.739 6.49841 15.3861 7.73883 13 8.7361M13 8.7361C11.9724 10.1376 10.6305 11 8.99826 11C8.54046 11 8.10556 10.9322 7.69408 10.8036M3.05257 2C3.14457 3.32479 3.38726 5.651 3.99909 7C4.28942 7.64015 4.62276 8.2241 4.99798 8.7361M3.05257 2H2.03564C1.46963 2 1.01275 2.47055 1.04981 3.03534C1.23849 5.9109 1.8794 7.43224 4.99798 8.7361M4.99798 8.7361C5.737 9.74451 6.63851 10.4738 7.69408 10.8036M7.69408 10.8036C7.67732 13.2602 7.48637 14.4741 6.00977 15.5M6.00977 15.5H5.00146C4.44825 15.5 4.00015 15.9492 4.00147 16.5024L4.0074 19.0024C4.00871 19.5537 4.45604 20 5.0074 20H13.0098C13.5621 20 14.0098 19.5523 14.0098 19V16.5C14.0098 15.9477 13.5621 15.5 13.0098 15.5H12.0098M6.00977 15.5H12.0098M10.5098 10.8036C10.566 13.4579 10.9386 14.4724 12.0098 15.5" stroke="#757575"/>
</svg>
