    <svg width="43" height="43" viewBox="0 0 43 43" fill="none" xmlns="http://www.w3.org/2000/svg">
    <g filter="url(#filter0_i_0_1)">
    <path d="M0 7.42481C0 3.55881 3.13401 0.424805 7 0.424805L36 0.424805C39.866 0.424805 43 3.55881 43 7.42481V35.4248C43 39.2908 39.866 42.4248 36 42.4248H7C3.13401 42.4248 0 39.2908 0 35.4248V7.42481Z" fill="#724E1E"/>
    </g>
    <g filter="url(#filter1_ii_0_1)">
    <path d="M0 7.4248C0 3.55881 3.13401 0.424805 7 0.424805H36C39.866 0.424805 43 3.55881 43 7.4248V32.4248C43 36.2908 39.866 39.4248 36 39.4248H7C3.13401 39.4248 0 36.2908 0 32.4248V7.4248Z" fill="url(#paint0_linear_0_1)"/>
    </g>
    <mask id="mask0_0_1" style="mask-type:alpha" maskUnits="userSpaceOnUse" x="0" y="0" width="43" height="40">
    <rect y="0.424805" width="43" height="39" rx="7" fill="#D9D9D9"/>
    </mask>
    <g mask="url(#mask0_0_1)">
    <path d="M-1.74757 15.8119L-0.79774 14.1667L1.10193 14.1667L2.05176 15.8119L1.10193 17.457L-0.79774 17.457L-1.74757 15.8119Z" stroke="#C98D47" stroke-width="0.3"/>
    <path d="M-1.74757 9.23179L-0.79774 7.58664L1.10193 7.58664L2.05176 9.23179L1.10193 10.877L-0.79774 10.877L-1.74757 9.23179Z" stroke="#C98D47" stroke-width="0.3"/>
    <path d="M-1.74757 2.65269L-0.79774 1.00753L1.10193 1.00753L2.05176 2.65269L1.10193 4.29785L-0.79774 4.29785L-1.74757 2.65269Z" stroke="#C98D47" stroke-width="0.3"/>
    <path d="M1.0952 17.4574L2.04503 15.8122L3.9447 15.8122L4.89453 17.4574L3.9447 19.1025L2.04503 19.1025L1.0952 17.4574Z" stroke="#C98D47" stroke-width="0.3"/>
    <path d="M1.0952 10.8783L2.04503 9.23312L3.9447 9.23312L4.89453 10.8783L3.9447 12.5234L2.04503 12.5234L1.0952 10.8783Z" stroke="#C98D47" stroke-width="0.3"/>
    <path d="M1.0952 4.29918L2.04503 2.65402L3.9447 2.65402L4.89453 4.29918L3.9447 5.94434L2.04503 5.94434L1.0952 4.29918Z" stroke="#C98D47" stroke-width="0.3"/>
    <path d="M1.0952 14.1673L2.04503 12.5222L3.9447 12.5222L4.89453 14.1673L3.9447 15.8125L2.04503 15.8125L1.0952 14.1673Z" stroke="#C98D47" stroke-width="0.3"/>
    <path d="M1.0952 7.58726L2.04503 5.9421L3.9447 5.9421L4.89453 7.58726L3.9447 9.23242L2.04503 9.23242L1.0952 7.58726Z" stroke="#C98D47" stroke-width="0.3"/>
    <path d="M1.0952 1.00816L2.04503 -0.636997L3.9447 -0.636997L4.89453 1.00816L3.9447 2.65332L2.04503 2.65332L1.0952 1.00816Z" stroke="#C98D47" stroke-width="0.3"/>
    <path d="M-1.74757 19.1019L-0.79774 17.4568L1.10193 17.4568L2.05176 19.1019L1.10193 20.7471L-0.79774 20.7471L-1.74757 19.1019Z" stroke="#C98D47" stroke-width="0.3"/>
    <path d="M-1.74757 12.5228L-0.79774 10.8777L1.10193 10.8777L2.05176 12.5228L1.10193 14.168L-0.79774 14.168L-1.74757 12.5228Z" stroke="#C98D47" stroke-width="0.3"/>
    <path d="M-1.74757 5.94371L-0.79774 4.29855L1.10193 4.29855L2.05176 5.94371L1.10193 7.58887L-0.79774 7.58887L-1.74757 5.94371Z" stroke="#C98D47" stroke-width="0.3"/>
    <path d="M-1.74757 -0.635393L-0.79774 -2.28055L1.10193 -2.28055L2.05176 -0.635393L1.10193 1.00977L-0.79774 1.00977L-1.74757 -0.635393Z" stroke="#C98D47" stroke-width="0.3"/>
    <path d="M3.94481 15.8119L4.89464 14.1667L6.79431 14.1667L7.74414 15.8119L6.79431 17.457L4.89464 17.457L3.94481 15.8119Z" stroke="#C98D47" stroke-width="0.3"/>
    <path d="M3.94481 9.23179L4.89464 7.58664L6.79431 7.58664L7.74414 9.23179L6.79431 10.877L4.89464 10.877L3.94481 9.23179Z" stroke="#C98D47" stroke-width="0.3"/>
    <path d="M3.94481 2.65269L4.89464 1.00753L6.79431 1.00753L7.74414 2.65269L6.79431 4.29785L4.89464 4.29785L3.94481 2.65269Z" stroke="#C98D47" stroke-width="0.3"/>
    <path d="M15.3315 15.8119L16.2814 14.1667L18.181 14.1667L19.1309 15.8119L18.181 17.457L16.2814 17.457L15.3315 15.8119Z" stroke="#C98D47" stroke-width="0.3"/>
    <path d="M15.3315 9.23179L16.2814 7.58664L18.181 7.58664L19.1309 9.23179L18.181 10.877L16.2814 10.877L15.3315 9.23179Z" stroke="#C98D47" stroke-width="0.3"/>
    <path d="M15.3315 2.65269L16.2814 1.00753L18.181 1.00753L19.1309 2.65269L18.181 4.29785L16.2814 4.29785L15.3315 2.65269Z" stroke="#C98D47" stroke-width="0.3"/>
    <path d="M9.63817 15.8119L10.588 14.1667L12.4877 14.1667L13.4375 15.8119L12.4877 17.457L10.588 17.457L9.63817 15.8119Z" stroke="#C98D47" stroke-width="0.3"/>
    <path d="M9.63817 9.23179L10.588 7.58664L12.4877 7.58664L13.4375 9.23179L12.4877 10.877L10.588 10.877L9.63817 9.23179Z" stroke="#C98D47" stroke-width="0.3"/>
    <path d="M9.63817 2.65269L10.588 1.00753L12.4877 1.00753L13.4375 2.65269L12.4877 4.29785L10.588 4.29785L9.63817 2.65269Z" stroke="#C98D47" stroke-width="0.3"/>
    <path d="M6.78856 17.4574L7.73839 15.8122L9.63806 15.8122L10.5879 17.4574L9.63806 19.1025L7.73839 19.1025L6.78856 17.4574Z" stroke="#C98D47" stroke-width="0.3"/>
    <path d="M6.78856 10.8783L7.73839 9.23312L9.63806 9.23312L10.5879 10.8783L9.63806 12.5234L7.73839 12.5234L6.78856 10.8783Z" stroke="#C98D47" stroke-width="0.3"/>
    <path d="M6.78856 4.29918L7.73839 2.65402L9.63806 2.65402L10.5879 4.29918L9.63806 5.94434L7.73839 5.94434L6.78856 4.29918Z" stroke="#C98D47" stroke-width="0.3"/>
    <path d="M18.1753 17.4574L19.1251 15.8122L21.0248 15.8122L21.9746 17.4574L21.0248 19.1025L19.1251 19.1025L18.1753 17.4574Z" stroke="#C98D47" stroke-width="0.3"/>
    <path d="M18.1753 10.8783L19.1251 9.23312L21.0248 9.23312L21.9746 10.8783L21.0248 12.5234L19.1251 12.5234L18.1753 10.8783Z" stroke="#C98D47" stroke-width="0.3"/>
    <path d="M18.1753 4.29918L19.1251 2.65402L21.0248 2.65402L21.9746 4.29918L21.0248 5.94434L19.1251 5.94434L18.1753 4.29918Z" stroke="#C98D47" stroke-width="0.3"/>
    <path d="M12.4819 17.4574L13.4318 15.8122L15.3314 15.8122L16.2813 17.4574L15.3314 19.1025L13.4318 19.1025L12.4819 17.4574Z" stroke="#C98D47" stroke-width="0.3"/>
    <path d="M12.4819 10.8783L13.4318 9.23312L15.3314 9.23312L16.2813 10.8783L15.3314 12.5234L13.4318 12.5234L12.4819 10.8783Z" stroke="#C98D47" stroke-width="0.3"/>
    <path d="M12.4819 4.29918L13.4318 2.65402L15.3314 2.65402L16.2813 4.29918L15.3314 5.94434L13.4318 5.94434L12.4819 4.29918Z" stroke="#C98D47" stroke-width="0.3"/>
    <path d="M6.78856 14.1673L7.73839 12.5222L9.63806 12.5222L10.5879 14.1673L9.63806 15.8125L7.73839 15.8125L6.78856 14.1673Z" stroke="#C98D47" stroke-width="0.3"/>
    <path d="M6.78856 7.58726L7.73839 5.9421L9.63806 5.9421L10.5879 7.58726L9.63806 9.23242L7.73839 9.23242L6.78856 7.58726Z" stroke="#C98D47" stroke-width="0.3"/>
    <path d="M6.78856 1.00816L7.73839 -0.636997L9.63806 -0.636997L10.5879 1.00816L9.63806 2.65332L7.73839 2.65332L6.78856 1.00816Z" stroke="#C98D47" stroke-width="0.3"/>
    <path d="M18.1753 14.1673L19.1251 12.5222L21.0248 12.5222L21.9746 14.1673L21.0248 15.8125L19.1251 15.8125L18.1753 14.1673Z" stroke="#C98D47" stroke-width="0.3"/>
    <path d="M18.1753 7.58726L19.1251 5.9421L21.0248 5.9421L21.9746 7.58726L21.0248 9.23242L19.1251 9.23242L18.1753 7.58726Z" stroke="#C98D47" stroke-width="0.3"/>
    <path d="M18.1753 1.00816L19.1251 -0.636997L21.0248 -0.636997L21.9746 1.00816L21.0248 2.65332L19.1251 2.65332L18.1753 1.00816Z" stroke="#C98D47" stroke-width="0.3"/>
    <path d="M12.4819 14.1673L13.4318 12.5222L15.3314 12.5222L16.2813 14.1673L15.3314 15.8125L13.4318 15.8125L12.4819 14.1673Z" stroke="#C98D47" stroke-width="0.3"/>
    <path d="M12.4819 7.58726L13.4318 5.9421L15.3314 5.9421L16.2813 7.58726L15.3314 9.23242L13.4318 9.23242L12.4819 7.58726Z" stroke="#C98D47" stroke-width="0.3"/>
    <path d="M12.4819 1.00816L13.4318 -0.636997L15.3314 -0.636997L16.2813 1.00816L15.3314 2.65332L13.4318 2.65332L12.4819 1.00816Z" stroke="#C98D47" stroke-width="0.3"/>
    <path d="M3.94481 19.1019L4.89464 17.4568L6.79431 17.4568L7.74414 19.1019L6.79431 20.7471L4.89464 20.7471L3.94481 19.1019Z" stroke="#C98D47" stroke-width="0.3"/>
    <path d="M3.94481 12.5228L4.89464 10.8777L6.79431 10.8777L7.74414 12.5228L6.79431 14.168L4.89464 14.168L3.94481 12.5228Z" stroke="#C98D47" stroke-width="0.3"/>
    <path d="M3.94481 5.94371L4.89464 4.29855L6.79431 4.29855L7.74414 5.94371L6.79431 7.58887L4.89464 7.58887L3.94481 5.94371Z" stroke="#C98D47" stroke-width="0.3"/>
    <path d="M3.94481 -0.635393L4.89464 -2.28055L6.79431 -2.28055L7.74414 -0.635393L6.79431 1.00977L4.89464 1.00977L3.94481 -0.635393Z" stroke="#C98D47" stroke-width="0.3"/>
    <path d="M15.3315 19.1019L16.2814 17.4568L18.181 17.4568L19.1309 19.1019L18.181 20.7471L16.2814 20.7471L15.3315 19.1019Z" stroke="#C98D47" stroke-width="0.3"/>
    <path d="M15.3315 12.5228L16.2814 10.8777L18.181 10.8777L19.1309 12.5228L18.181 14.168L16.2814 14.168L15.3315 12.5228Z" stroke="#C98D47" stroke-width="0.3"/>
    <path d="M15.3315 5.94371L16.2814 4.29855L18.181 4.29855L19.1309 5.94371L18.181 7.58887L16.2814 7.58887L15.3315 5.94371Z" stroke="#C98D47" stroke-width="0.3"/>
    <path d="M15.3315 -0.635393L16.2814 -2.28055L18.181 -2.28055L19.1309 -0.635393L18.181 1.00977L16.2814 1.00977L15.3315 -0.635393Z" stroke="#C98D47" stroke-width="0.3"/>
    <path d="M9.63817 19.1019L10.588 17.4568L12.4877 17.4568L13.4375 19.1019L12.4877 20.7471L10.588 20.7471L9.63817 19.1019Z" stroke="#C98D47" stroke-width="0.3"/>
    <path d="M9.63817 12.5228L10.588 10.8777L12.4877 10.8777L13.4375 12.5228L12.4877 14.168L10.588 14.168L9.63817 12.5228Z" stroke="#C98D47" stroke-width="0.3"/>
    <path d="M9.63817 5.94371L10.588 4.29855L12.4877 4.29855L13.4375 5.94371L12.4877 7.58887L10.588 7.58887L9.63817 5.94371Z" stroke="#C98D47" stroke-width="0.3"/>
    <path d="M9.63817 -0.635393L10.588 -2.28055L12.4877 -2.28055L13.4375 -0.635393L12.4877 1.00977L10.588 1.00977L9.63817 -0.635393Z" stroke="#C98D47" stroke-width="0.3"/>
    <path d="M21.0249 15.8119L21.9747 14.1667L23.8744 14.1667L24.8242 15.8119L23.8744 17.457L21.9747 17.457L21.0249 15.8119Z" stroke="#C98D47" stroke-width="0.3"/>
    <path d="M21.0249 9.23179L21.9747 7.58664L23.8744 7.58664L24.8242 9.23179L23.8744 10.877L21.9747 10.877L21.0249 9.23179Z" stroke="#C98D47" stroke-width="0.3"/>
    <path d="M21.0249 2.65269L21.9747 1.00753L23.8744 1.00753L24.8242 2.65269L23.8744 4.29785L21.9747 4.29785L21.0249 2.65269Z" stroke="#C98D47" stroke-width="0.3"/>
    <path d="M32.4116 15.8119L33.3614 14.1667L35.2611 14.1667L36.2109 15.8119L35.2611 17.457L33.3614 17.457L32.4116 15.8119Z" stroke="#C98D47" stroke-width="0.3"/>
    <path d="M32.4116 9.23179L33.3614 7.58664L35.2611 7.58664L36.2109 9.23179L35.2611 10.877L33.3614 10.877L32.4116 9.23179Z" stroke="#C98D47" stroke-width="0.3"/>
    <path d="M32.4116 2.65269L33.3614 1.00753L35.2611 1.00753L36.2109 2.65269L35.2611 4.29785L33.3614 4.29785L32.4116 2.65269Z" stroke="#C98D47" stroke-width="0.3"/>
    <path d="M26.7182 15.8119L27.6681 14.1667L29.5677 14.1667L30.5176 15.8119L29.5677 17.457L27.6681 17.457L26.7182 15.8119Z" stroke="#C98D47" stroke-width="0.3"/>
    <path d="M26.7182 9.23179L27.6681 7.58664L29.5677 7.58664L30.5176 9.23179L29.5677 10.877L27.6681 10.877L26.7182 9.23179Z" stroke="#C98D47" stroke-width="0.3"/>
    <path d="M26.7182 2.65269L27.6681 1.00753L29.5677 1.00753L30.5176 2.65269L29.5677 4.29785L27.6681 4.29785L26.7182 2.65269Z" stroke="#C98D47" stroke-width="0.3"/>
    <path d="M23.8686 17.4574L24.8185 15.8122L26.7181 15.8122L27.668 17.4574L26.7181 19.1025L24.8185 19.1025L23.8686 17.4574Z" stroke="#C98D47" stroke-width="0.3"/>
    <path d="M23.8686 10.8783L24.8185 9.23312L26.7181 9.23312L27.668 10.8783L26.7181 12.5234L24.8185 12.5234L23.8686 10.8783Z" stroke="#C98D47" stroke-width="0.3"/>
    <path d="M23.8686 4.29918L24.8185 2.65402L26.7181 2.65402L27.668 4.29918L26.7181 5.94434L24.8185 5.94434L23.8686 4.29918Z" stroke="#C98D47" stroke-width="0.3"/>
    <path d="M35.2554 17.4574L36.2052 15.8122L38.1049 15.8122L39.0547 17.4574L38.1049 19.1025L36.2052 19.1025L35.2554 17.4574Z" stroke="#C98D47" stroke-width="0.3"/>
    <path d="M35.2554 10.8783L36.2052 9.23312L38.1049 9.23312L39.0547 10.8783L38.1049 12.5234L36.2052 12.5234L35.2554 10.8783Z" stroke="#C98D47" stroke-width="0.3"/>
    <path d="M35.2554 4.29918L36.2052 2.65402L38.1049 2.65402L39.0547 4.29918L38.1049 5.94434L36.2052 5.94434L35.2554 4.29918Z" stroke="#C98D47" stroke-width="0.3"/>
    <path d="M29.562 17.4574L30.5118 15.8122L32.4115 15.8122L33.3613 17.4574L32.4115 19.1025L30.5118 19.1025L29.562 17.4574Z" stroke="#C98D47" stroke-width="0.3"/>
    <path d="M29.562 10.8783L30.5118 9.23312L32.4115 9.23312L33.3613 10.8783L32.4115 12.5234L30.5118 12.5234L29.562 10.8783Z" stroke="#C98D47" stroke-width="0.3"/>
    <path d="M29.562 4.29918L30.5118 2.65402L32.4115 2.65402L33.3613 4.29918L32.4115 5.94434L30.5118 5.94434L29.562 4.29918Z" stroke="#C98D47" stroke-width="0.3"/>
    <path d="M23.8686 14.1673L24.8185 12.5222L26.7181 12.5222L27.668 14.1673L26.7181 15.8125L24.8185 15.8125L23.8686 14.1673Z" stroke="#C98D47" stroke-width="0.3"/>
    <path d="M23.8686 7.58726L24.8185 5.9421L26.7181 5.9421L27.668 7.58726L26.7181 9.23242L24.8185 9.23242L23.8686 7.58726Z" stroke="#C98D47" stroke-width="0.3"/>
    <path d="M23.8686 1.00816L24.8185 -0.636997L26.7181 -0.636997L27.668 1.00816L26.7181 2.65332L24.8185 2.65332L23.8686 1.00816Z" stroke="#C98D47" stroke-width="0.3"/>
    <path d="M35.2554 14.1673L36.2052 12.5222L38.1049 12.5222L39.0547 14.1673L38.1049 15.8125L36.2052 15.8125L35.2554 14.1673Z" stroke="#C98D47" stroke-width="0.3"/>
    <path d="M35.2554 7.58726L36.2052 5.9421L38.1049 5.9421L39.0547 7.58726L38.1049 9.23242L36.2052 9.23242L35.2554 7.58726Z" stroke="#C98D47" stroke-width="0.3"/>
    <path d="M35.2554 1.00816L36.2052 -0.636997L38.1049 -0.636997L39.0547 1.00816L38.1049 2.65332L36.2052 2.65332L35.2554 1.00816Z" stroke="#C98D47" stroke-width="0.3"/>
    <path d="M29.562 14.1673L30.5118 12.5222L32.4115 12.5222L33.3613 14.1673L32.4115 15.8125L30.5118 15.8125L29.562 14.1673Z" stroke="#C98D47" stroke-width="0.3"/>
    <path d="M29.562 7.58726L30.5118 5.9421L32.4115 5.9421L33.3613 7.58726L32.4115 9.23242L30.5118 9.23242L29.562 7.58726Z" stroke="#C98D47" stroke-width="0.3"/>
    <path d="M29.562 1.00816L30.5118 -0.636997L32.4115 -0.636997L33.3613 1.00816L32.4115 2.65332L30.5118 2.65332L29.562 1.00816Z" stroke="#C98D47" stroke-width="0.3"/>
    <path d="M21.0249 19.1019L21.9747 17.4568L23.8744 17.4568L24.8242 19.1019L23.8744 20.7471L21.9747 20.7471L21.0249 19.1019Z" stroke="#C98D47" stroke-width="0.3"/>
    <path d="M21.0249 12.5228L21.9747 10.8777L23.8744 10.8777L24.8242 12.5228L23.8744 14.168L21.9747 14.168L21.0249 12.5228Z" stroke="#C98D47" stroke-width="0.3"/>
    <path d="M21.0249 5.94371L21.9747 4.29855L23.8744 4.29855L24.8242 5.94371L23.8744 7.58887L21.9747 7.58887L21.0249 5.94371Z" stroke="#C98D47" stroke-width="0.3"/>
    <path d="M21.0249 -0.635393L21.9747 -2.28055L23.8744 -2.28055L24.8242 -0.635393L23.8744 1.00977L21.9747 1.00977L21.0249 -0.635393Z" stroke="#C98D47" stroke-width="0.3"/>
    <path d="M32.4116 19.1019L33.3614 17.4568L35.2611 17.4568L36.2109 19.1019L35.2611 20.7471L33.3614 20.7471L32.4116 19.1019Z" stroke="#C98D47" stroke-width="0.3"/>
    <path d="M32.4116 12.5228L33.3614 10.8777L35.2611 10.8777L36.2109 12.5228L35.2611 14.168L33.3614 14.168L32.4116 12.5228Z" stroke="#C98D47" stroke-width="0.3"/>
    <path d="M32.4116 5.94371L33.3614 4.29855L35.2611 4.29855L36.2109 5.94371L35.2611 7.58887L33.3614 7.58887L32.4116 5.94371Z" stroke="#C98D47" stroke-width="0.3"/>
    <path d="M32.4116 -0.635393L33.3614 -2.28055L35.2611 -2.28055L36.2109 -0.635393L35.2611 1.00977L33.3614 1.00977L32.4116 -0.635393Z" stroke="#C98D47" stroke-width="0.3"/>
    <path d="M26.7182 19.1019L27.6681 17.4568L29.5677 17.4568L30.5176 19.1019L29.5677 20.7471L27.6681 20.7471L26.7182 19.1019Z" stroke="#C98D47" stroke-width="0.3"/>
    <path d="M26.7182 12.5228L27.6681 10.8777L29.5677 10.8777L30.5176 12.5228L29.5677 14.168L27.6681 14.168L26.7182 12.5228Z" stroke="#C98D47" stroke-width="0.3"/>
    <path d="M26.7182 5.94371L27.6681 4.29855L29.5677 4.29855L30.5176 5.94371L29.5677 7.58887L27.6681 7.58887L26.7182 5.94371Z" stroke="#C98D47" stroke-width="0.3"/>
    <path d="M26.7182 -0.635393L27.6681 -2.28055L29.5677 -2.28055L30.5176 -0.635393L29.5677 1.00977L27.6681 1.00977L26.7182 -0.635393Z" stroke="#C98D47" stroke-width="0.3"/>
    <path d="M38.105 15.8119L39.0548 14.1667L40.9545 14.1667L41.9043 15.8119L40.9545 17.457L39.0548 17.457L38.105 15.8119Z" stroke="#C98D47" stroke-width="0.3"/>
    <path d="M38.105 9.23179L39.0548 7.58664L40.9545 7.58664L41.9043 9.23179L40.9545 10.877L39.0548 10.877L38.105 9.23179Z" stroke="#C98D47" stroke-width="0.3"/>
    <path d="M38.105 2.65269L39.0548 1.00753L40.9545 1.00753L41.9043 2.65269L40.9545 4.29785L39.0548 4.29785L38.105 2.65269Z" stroke="#C98D47" stroke-width="0.3"/>
    <path d="M40.9487 17.4574L41.8985 15.8122L43.7982 15.8122L44.748 17.4574L43.7982 19.1025L41.8985 19.1025L40.9487 17.4574Z" stroke="#C98D47" stroke-width="0.3"/>
    <path d="M40.9487 10.8783L41.8985 9.23312L43.7982 9.23312L44.748 10.8783L43.7982 12.5234L41.8985 12.5234L40.9487 10.8783Z" stroke="#C98D47" stroke-width="0.3"/>
    <path d="M40.9487 4.29918L41.8985 2.65402L43.7982 2.65402L44.748 4.29918L43.7982 5.94434L41.8985 5.94434L40.9487 4.29918Z" stroke="#C98D47" stroke-width="0.3"/>
    <path d="M40.9487 14.1673L41.8985 12.5222L43.7982 12.5222L44.748 14.1673L43.7982 15.8125L41.8985 15.8125L40.9487 14.1673Z" stroke="#C98D47" stroke-width="0.3"/>
    <path d="M40.9487 7.58726L41.8985 5.9421L43.7982 5.9421L44.748 7.58726L43.7982 9.23242L41.8985 9.23242L40.9487 7.58726Z" stroke="#C98D47" stroke-width="0.3"/>
    <path d="M40.9487 1.00816L41.8985 -0.636997L43.7982 -0.636997L44.748 1.00816L43.7982 2.65332L41.8985 2.65332L40.9487 1.00816Z" stroke="#C98D47" stroke-width="0.3"/>
    <path d="M38.105 19.1019L39.0548 17.4568L40.9545 17.4568L41.9043 19.1019L40.9545 20.7471L39.0548 20.7471L38.105 19.1019Z" stroke="#C98D47" stroke-width="0.3"/>
    <path d="M38.105 12.5228L39.0548 10.8777L40.9545 10.8777L41.9043 12.5228L40.9545 14.168L39.0548 14.168L38.105 12.5228Z" stroke="#C98D47" stroke-width="0.3"/>
    <path d="M38.105 5.94371L39.0548 4.29855L40.9545 4.29855L41.9043 5.94371L40.9545 7.58887L39.0548 7.58887L38.105 5.94371Z" stroke="#C98D47" stroke-width="0.3"/>
    <path d="M38.105 -0.635393L39.0548 -2.28055L40.9545 -2.28055L41.9043 -0.635393L40.9545 1.00977L39.0548 1.00977L38.105 -0.635393Z" stroke="#C98D47" stroke-width="0.3"/>
    <path d="M-1.74757 35.5502L-0.79774 33.905L1.10193 33.905L2.05176 35.5502L1.10193 37.1953L-0.79774 37.1953L-1.74757 35.5502Z" stroke="#C98D47" stroke-width="0.3"/>
    <path d="M-1.74757 28.9711L-0.79774 27.3259L1.10193 27.3259L2.05176 28.9711L1.10193 30.6162L-0.79774 30.6162L-1.74757 28.9711Z" stroke="#C98D47" stroke-width="0.3"/>
    <path d="M-1.74757 22.392L-0.79774 20.7468L1.10193 20.7468L2.05176 22.392L1.10193 24.0371L-0.79774 24.0371L-1.74757 22.392Z" stroke="#C98D47" stroke-width="0.3"/>
    <path d="M1.0952 37.1966L2.04503 35.5515L3.9447 35.5515L4.89453 37.1966L3.9447 38.8418L2.04503 38.8418L1.0952 37.1966Z" stroke="#C98D47" stroke-width="0.3"/>
    <path d="M1.0952 30.6175L2.04503 28.9724L3.9447 28.9724L4.89453 30.6175L3.9447 32.2627L2.04503 32.2627L1.0952 30.6175Z" stroke="#C98D47" stroke-width="0.3"/>
    <path d="M1.0952 24.0384L2.04503 22.3933L3.9447 22.3933L4.89453 24.0384L3.9447 25.6836L2.04503 25.6836L1.0952 24.0384Z" stroke="#C98D47" stroke-width="0.3"/>
    <path d="M1.0952 40.4847L2.04503 38.8396L3.9447 38.8396L4.89453 40.4847L3.9447 42.1299L2.04503 42.1299L1.0952 40.4847Z" stroke="#C98D47" stroke-width="0.3"/>
    <path d="M1.0952 33.9056L2.04503 32.2605L3.9447 32.2605L4.89453 33.9056L3.9447 35.5508L2.04503 35.5508L1.0952 33.9056Z" stroke="#C98D47" stroke-width="0.3"/>
    <path d="M1.0952 27.3265L2.04503 25.6814L3.9447 25.6814L4.89453 27.3265L3.9447 28.9717L2.04503 28.9717L1.0952 27.3265Z" stroke="#C98D47" stroke-width="0.3"/>
    <path d="M1.0952 20.7474L2.04503 19.1023L3.9447 19.1023L4.89453 20.7474L3.9447 22.3926L2.04503 22.3926L1.0952 20.7474Z" stroke="#C98D47" stroke-width="0.3"/>
    <path d="M-1.74757 38.8412L-0.79774 37.196L1.10193 37.196L2.05176 38.8412L1.10193 40.4863L-0.79774 40.4863L-1.74757 38.8412Z" stroke="#C98D47" stroke-width="0.3"/>
    <path d="M-1.74757 32.2621L-0.79774 30.6169L1.10193 30.6169L2.05176 32.2621L1.10193 33.9072L-0.79774 33.9072L-1.74757 32.2621Z" stroke="#C98D47" stroke-width="0.3"/>
    <path d="M-1.74757 25.683L-0.79774 24.0378L1.10193 24.0378L2.05176 25.683L1.10193 27.3281L-0.79774 27.3281L-1.74757 25.683Z" stroke="#C98D47" stroke-width="0.3"/>
    <path d="M3.94481 35.5502L4.89464 33.905L6.79431 33.905L7.74414 35.5502L6.79431 37.1953L4.89464 37.1953L3.94481 35.5502Z" stroke="#C98D47" stroke-width="0.3"/>
    <path d="M3.94481 28.9711L4.89464 27.3259L6.79431 27.3259L7.74414 28.9711L6.79431 30.6162L4.89464 30.6162L3.94481 28.9711Z" stroke="#C98D47" stroke-width="0.3"/>
    <path d="M3.94481 22.392L4.89464 20.7468L6.79431 20.7468L7.74414 22.392L6.79431 24.0371L4.89464 24.0371L3.94481 22.392Z" stroke="#C98D47" stroke-width="0.3"/>
    <path d="M15.3315 35.5502L16.2814 33.905L18.181 33.905L19.1309 35.5502L18.181 37.1953L16.2814 37.1953L15.3315 35.5502Z" stroke="#C98D47" stroke-width="0.3"/>
    <path d="M15.3315 28.9711L16.2814 27.3259L18.181 27.3259L19.1309 28.9711L18.181 30.6162L16.2814 30.6162L15.3315 28.9711Z" stroke="#C98D47" stroke-width="0.3"/>
    <path d="M15.3315 22.392L16.2814 20.7468L18.181 20.7468L19.1309 22.392L18.181 24.0371L16.2814 24.0371L15.3315 22.392Z" stroke="#C98D47" stroke-width="0.3"/>
    <path d="M9.63817 35.5502L10.588 33.905L12.4877 33.905L13.4375 35.5502L12.4877 37.1953L10.588 37.1953L9.63817 35.5502Z" stroke="#C98D47" stroke-width="0.3"/>
    <path d="M9.63817 28.9711L10.588 27.3259L12.4877 27.3259L13.4375 28.9711L12.4877 30.6162L10.588 30.6162L9.63817 28.9711Z" stroke="#C98D47" stroke-width="0.3"/>
    <path d="M9.63817 22.392L10.588 20.7468L12.4877 20.7468L13.4375 22.392L12.4877 24.0371L10.588 24.0371L9.63817 22.392Z" stroke="#C98D47" stroke-width="0.3"/>
    <path d="M6.78856 37.1966L7.73839 35.5515L9.63806 35.5515L10.5879 37.1966L9.63806 38.8418L7.73839 38.8418L6.78856 37.1966Z" stroke="#C98D47" stroke-width="0.3"/>
    <path d="M6.78856 30.6175L7.73839 28.9724L9.63806 28.9724L10.5879 30.6175L9.63806 32.2627L7.73839 32.2627L6.78856 30.6175Z" stroke="#C98D47" stroke-width="0.3"/>
    <path d="M6.78856 24.0384L7.73839 22.3933L9.63806 22.3933L10.5879 24.0384L9.63806 25.6836L7.73839 25.6836L6.78856 24.0384Z" stroke="#C98D47" stroke-width="0.3"/>
    <path d="M18.1753 37.1966L19.1251 35.5515L21.0248 35.5515L21.9746 37.1966L21.0248 38.8418L19.1251 38.8418L18.1753 37.1966Z" stroke="#C98D47" stroke-width="0.3"/>
    <path d="M18.1753 30.6175L19.1251 28.9724L21.0248 28.9724L21.9746 30.6175L21.0248 32.2627L19.1251 32.2627L18.1753 30.6175Z" stroke="#C98D47" stroke-width="0.3"/>
    <path d="M18.1753 24.0384L19.1251 22.3933L21.0248 22.3933L21.9746 24.0384L21.0248 25.6836L19.1251 25.6836L18.1753 24.0384Z" stroke="#C98D47" stroke-width="0.3"/>
    <path d="M12.4819 37.1966L13.4318 35.5515L15.3314 35.5515L16.2813 37.1966L15.3314 38.8418L13.4318 38.8418L12.4819 37.1966Z" stroke="#C98D47" stroke-width="0.3"/>
    <path d="M12.4819 30.6175L13.4318 28.9724L15.3314 28.9724L16.2813 30.6175L15.3314 32.2627L13.4318 32.2627L12.4819 30.6175Z" stroke="#C98D47" stroke-width="0.3"/>
    <path d="M12.4819 24.0384L13.4318 22.3933L15.3314 22.3933L16.2813 24.0384L15.3314 25.6836L13.4318 25.6836L12.4819 24.0384Z" stroke="#C98D47" stroke-width="0.3"/>
    <path d="M6.78856 40.4847L7.73839 38.8396L9.63806 38.8396L10.5879 40.4847L9.63806 42.1299L7.73839 42.1299L6.78856 40.4847Z" stroke="#C98D47" stroke-width="0.3"/>
    <path d="M6.78856 33.9056L7.73839 32.2605L9.63806 32.2605L10.5879 33.9056L9.63806 35.5508L7.73839 35.5508L6.78856 33.9056Z" stroke="#C98D47" stroke-width="0.3"/>
    <path d="M6.78856 27.3265L7.73839 25.6814L9.63806 25.6814L10.5879 27.3265L9.63806 28.9717L7.73839 28.9717L6.78856 27.3265Z" stroke="#C98D47" stroke-width="0.3"/>
    <path d="M6.78856 20.7474L7.73839 19.1023L9.63806 19.1023L10.5879 20.7474L9.63806 22.3926L7.73839 22.3926L6.78856 20.7474Z" stroke="#C98D47" stroke-width="0.3"/>
    <path d="M18.1753 40.4847L19.1251 38.8396L21.0248 38.8396L21.9746 40.4847L21.0248 42.1299L19.1251 42.1299L18.1753 40.4847Z" stroke="#C98D47" stroke-width="0.3"/>
    <path d="M18.1753 33.9056L19.1251 32.2605L21.0248 32.2605L21.9746 33.9056L21.0248 35.5508L19.1251 35.5508L18.1753 33.9056Z" stroke="#C98D47" stroke-width="0.3"/>
    <path d="M18.1753 27.3265L19.1251 25.6814L21.0248 25.6814L21.9746 27.3265L21.0248 28.9717L19.1251 28.9717L18.1753 27.3265Z" stroke="#C98D47" stroke-width="0.3"/>
    <path d="M18.1753 20.7474L19.1251 19.1023L21.0248 19.1023L21.9746 20.7474L21.0248 22.3926L19.1251 22.3926L18.1753 20.7474Z" stroke="#C98D47" stroke-width="0.3"/>
    <path d="M12.4819 40.4847L13.4318 38.8396L15.3314 38.8396L16.2813 40.4847L15.3314 42.1299L13.4318 42.1299L12.4819 40.4847Z" stroke="#C98D47" stroke-width="0.3"/>
    <path d="M12.4819 33.9056L13.4318 32.2605L15.3314 32.2605L16.2813 33.9056L15.3314 35.5508L13.4318 35.5508L12.4819 33.9056Z" stroke="#C98D47" stroke-width="0.3"/>
    <path d="M12.4819 27.3265L13.4318 25.6814L15.3314 25.6814L16.2813 27.3265L15.3314 28.9717L13.4318 28.9717L12.4819 27.3265Z" stroke="#C98D47" stroke-width="0.3"/>
    <path d="M12.4819 20.7474L13.4318 19.1023L15.3314 19.1023L16.2813 20.7474L15.3314 22.3926L13.4318 22.3926L12.4819 20.7474Z" stroke="#C98D47" stroke-width="0.3"/>
    <path d="M3.94481 38.8412L4.89464 37.196L6.79431 37.196L7.74414 38.8412L6.79431 40.4863L4.89464 40.4863L3.94481 38.8412Z" stroke="#C98D47" stroke-width="0.3"/>
    <path d="M3.94481 32.2621L4.89464 30.6169L6.79431 30.6169L7.74414 32.2621L6.79431 33.9072L4.89464 33.9072L3.94481 32.2621Z" stroke="#C98D47" stroke-width="0.3"/>
    <path d="M3.94481 25.683L4.89464 24.0378L6.79431 24.0378L7.74414 25.683L6.79431 27.3281L4.89464 27.3281L3.94481 25.683Z" stroke="#C98D47" stroke-width="0.3"/>
    <path d="M15.3315 38.8412L16.2814 37.196L18.181 37.196L19.1309 38.8412L18.181 40.4863L16.2814 40.4863L15.3315 38.8412Z" stroke="#C98D47" stroke-width="0.3"/>
    <path d="M15.3315 32.2621L16.2814 30.6169L18.181 30.6169L19.1309 32.2621L18.181 33.9072L16.2814 33.9072L15.3315 32.2621Z" stroke="#C98D47" stroke-width="0.3"/>
    <path d="M15.3315 25.683L16.2814 24.0378L18.181 24.0378L19.1309 25.683L18.181 27.3281L16.2814 27.3281L15.3315 25.683Z" stroke="#C98D47" stroke-width="0.3"/>
    <path d="M9.63817 38.8412L10.588 37.196L12.4877 37.196L13.4375 38.8412L12.4877 40.4863L10.588 40.4863L9.63817 38.8412Z" stroke="#C98D47" stroke-width="0.3"/>
    <path d="M9.63817 32.2621L10.588 30.6169L12.4877 30.6169L13.4375 32.2621L12.4877 33.9072L10.588 33.9072L9.63817 32.2621Z" stroke="#C98D47" stroke-width="0.3"/>
    <path d="M9.63817 25.683L10.588 24.0378L12.4877 24.0378L13.4375 25.683L12.4877 27.3281L10.588 27.3281L9.63817 25.683Z" stroke="#C98D47" stroke-width="0.3"/>
    <path d="M21.0249 35.5502L21.9747 33.905L23.8744 33.905L24.8242 35.5502L23.8744 37.1953L21.9747 37.1953L21.0249 35.5502Z" stroke="#C98D47" stroke-width="0.3"/>
    <path d="M21.0249 28.9711L21.9747 27.3259L23.8744 27.3259L24.8242 28.9711L23.8744 30.6162L21.9747 30.6162L21.0249 28.9711Z" stroke="#C98D47" stroke-width="0.3"/>
    <path d="M21.0249 22.392L21.9747 20.7468L23.8744 20.7468L24.8242 22.392L23.8744 24.0371L21.9747 24.0371L21.0249 22.392Z" stroke="#C98D47" stroke-width="0.3"/>
    <path d="M32.4116 35.5502L33.3614 33.905L35.2611 33.905L36.2109 35.5502L35.2611 37.1953L33.3614 37.1953L32.4116 35.5502Z" stroke="#C98D47" stroke-width="0.3"/>
    <path d="M32.4116 28.9711L33.3614 27.3259L35.2611 27.3259L36.2109 28.9711L35.2611 30.6162L33.3614 30.6162L32.4116 28.9711Z" stroke="#C98D47" stroke-width="0.3"/>
    <path d="M32.4116 22.392L33.3614 20.7468L35.2611 20.7468L36.2109 22.392L35.2611 24.0371L33.3614 24.0371L32.4116 22.392Z" stroke="#C98D47" stroke-width="0.3"/>
    <path d="M26.7182 35.5502L27.6681 33.905L29.5677 33.905L30.5176 35.5502L29.5677 37.1953L27.6681 37.1953L26.7182 35.5502Z" stroke="#C98D47" stroke-width="0.3"/>
    <path d="M26.7182 28.9711L27.6681 27.3259L29.5677 27.3259L30.5176 28.9711L29.5677 30.6162L27.6681 30.6162L26.7182 28.9711Z" stroke="#C98D47" stroke-width="0.3"/>
    <path d="M26.7182 22.392L27.6681 20.7468L29.5677 20.7468L30.5176 22.392L29.5677 24.0371L27.6681 24.0371L26.7182 22.392Z" stroke="#C98D47" stroke-width="0.3"/>
    <path d="M23.8686 37.1966L24.8185 35.5515L26.7181 35.5515L27.668 37.1966L26.7181 38.8418L24.8185 38.8418L23.8686 37.1966Z" stroke="#C98D47" stroke-width="0.3"/>
    <path d="M23.8686 30.6175L24.8185 28.9724L26.7181 28.9724L27.668 30.6175L26.7181 32.2627L24.8185 32.2627L23.8686 30.6175Z" stroke="#C98D47" stroke-width="0.3"/>
    <path d="M23.8686 24.0384L24.8185 22.3933L26.7181 22.3933L27.668 24.0384L26.7181 25.6836L24.8185 25.6836L23.8686 24.0384Z" stroke="#C98D47" stroke-width="0.3"/>
    <path d="M35.2554 37.1966L36.2052 35.5515L38.1049 35.5515L39.0547 37.1966L38.1049 38.8418L36.2052 38.8418L35.2554 37.1966Z" stroke="#C98D47" stroke-width="0.3"/>
    <path d="M35.2554 30.6175L36.2052 28.9724L38.1049 28.9724L39.0547 30.6175L38.1049 32.2627L36.2052 32.2627L35.2554 30.6175Z" stroke="#C98D47" stroke-width="0.3"/>
    <path d="M35.2554 24.0384L36.2052 22.3933L38.1049 22.3933L39.0547 24.0384L38.1049 25.6836L36.2052 25.6836L35.2554 24.0384Z" stroke="#C98D47" stroke-width="0.3"/>
    <path d="M29.562 37.1966L30.5118 35.5515L32.4115 35.5515L33.3613 37.1966L32.4115 38.8418L30.5118 38.8418L29.562 37.1966Z" stroke="#C98D47" stroke-width="0.3"/>
    <path d="M29.562 30.6175L30.5118 28.9724L32.4115 28.9724L33.3613 30.6175L32.4115 32.2627L30.5118 32.2627L29.562 30.6175Z" stroke="#C98D47" stroke-width="0.3"/>
    <path d="M29.562 24.0384L30.5118 22.3933L32.4115 22.3933L33.3613 24.0384L32.4115 25.6836L30.5118 25.6836L29.562 24.0384Z" stroke="#C98D47" stroke-width="0.3"/>
    <path d="M23.8686 40.4847L24.8185 38.8396L26.7181 38.8396L27.668 40.4847L26.7181 42.1299L24.8185 42.1299L23.8686 40.4847Z" stroke="#C98D47" stroke-width="0.3"/>
    <path d="M23.8686 33.9056L24.8185 32.2605L26.7181 32.2605L27.668 33.9056L26.7181 35.5508L24.8185 35.5508L23.8686 33.9056Z" stroke="#C98D47" stroke-width="0.3"/>
    <path d="M23.8686 27.3265L24.8185 25.6814L26.7181 25.6814L27.668 27.3265L26.7181 28.9717L24.8185 28.9717L23.8686 27.3265Z" stroke="#C98D47" stroke-width="0.3"/>
    <path d="M23.8686 20.7474L24.8185 19.1023L26.7181 19.1023L27.668 20.7474L26.7181 22.3926L24.8185 22.3926L23.8686 20.7474Z" stroke="#C98D47" stroke-width="0.3"/>
    <path d="M35.2554 40.4847L36.2052 38.8396L38.1049 38.8396L39.0547 40.4847L38.1049 42.1299L36.2052 42.1299L35.2554 40.4847Z" stroke="#C98D47" stroke-width="0.3"/>
    <path d="M35.2554 33.9056L36.2052 32.2605L38.1049 32.2605L39.0547 33.9056L38.1049 35.5508L36.2052 35.5508L35.2554 33.9056Z" stroke="#C98D47" stroke-width="0.3"/>
    <path d="M35.2554 27.3265L36.2052 25.6814L38.1049 25.6814L39.0547 27.3265L38.1049 28.9717L36.2052 28.9717L35.2554 27.3265Z" stroke="#C98D47" stroke-width="0.3"/>
    <path d="M35.2554 20.7474L36.2052 19.1023L38.1049 19.1023L39.0547 20.7474L38.1049 22.3926L36.2052 22.3926L35.2554 20.7474Z" stroke="#C98D47" stroke-width="0.3"/>
    <path d="M29.562 40.4847L30.5118 38.8396L32.4115 38.8396L33.3613 40.4847L32.4115 42.1299L30.5118 42.1299L29.562 40.4847Z" stroke="#C98D47" stroke-width="0.3"/>
    <path d="M29.562 33.9056L30.5118 32.2605L32.4115 32.2605L33.3613 33.9056L32.4115 35.5508L30.5118 35.5508L29.562 33.9056Z" stroke="#C98D47" stroke-width="0.3"/>
    <path d="M29.562 27.3265L30.5118 25.6814L32.4115 25.6814L33.3613 27.3265L32.4115 28.9717L30.5118 28.9717L29.562 27.3265Z" stroke="#C98D47" stroke-width="0.3"/>
    <path d="M29.562 20.7474L30.5118 19.1023L32.4115 19.1023L33.3613 20.7474L32.4115 22.3926L30.5118 22.3926L29.562 20.7474Z" stroke="#C98D47" stroke-width="0.3"/>
    <path d="M21.0249 38.8412L21.9747 37.196L23.8744 37.196L24.8242 38.8412L23.8744 40.4863L21.9747 40.4863L21.0249 38.8412Z" stroke="#C98D47" stroke-width="0.3"/>
    <path d="M21.0249 32.2621L21.9747 30.6169L23.8744 30.6169L24.8242 32.2621L23.8744 33.9072L21.9747 33.9072L21.0249 32.2621Z" stroke="#C98D47" stroke-width="0.3"/>
    <path d="M21.0249 25.683L21.9747 24.0378L23.8744 24.0378L24.8242 25.683L23.8744 27.3281L21.9747 27.3281L21.0249 25.683Z" stroke="#C98D47" stroke-width="0.3"/>
    <path d="M32.4116 38.8412L33.3614 37.196L35.2611 37.196L36.2109 38.8412L35.2611 40.4863L33.3614 40.4863L32.4116 38.8412Z" stroke="#C98D47" stroke-width="0.3"/>
    <path d="M32.4116 32.2621L33.3614 30.6169L35.2611 30.6169L36.2109 32.2621L35.2611 33.9072L33.3614 33.9072L32.4116 32.2621Z" stroke="#C98D47" stroke-width="0.3"/>
    <path d="M32.4116 25.683L33.3614 24.0378L35.2611 24.0378L36.2109 25.683L35.2611 27.3281L33.3614 27.3281L32.4116 25.683Z" stroke="#C98D47" stroke-width="0.3"/>
    <path d="M26.7182 38.8412L27.6681 37.196L29.5677 37.196L30.5176 38.8412L29.5677 40.4863L27.6681 40.4863L26.7182 38.8412Z" stroke="#C98D47" stroke-width="0.3"/>
    <path d="M26.7182 32.2621L27.6681 30.6169L29.5677 30.6169L30.5176 32.2621L29.5677 33.9072L27.6681 33.9072L26.7182 32.2621Z" stroke="#C98D47" stroke-width="0.3"/>
    <path d="M26.7182 25.683L27.6681 24.0378L29.5677 24.0378L30.5176 25.683L29.5677 27.3281L27.6681 27.3281L26.7182 25.683Z" stroke="#C98D47" stroke-width="0.3"/>
    <path d="M38.105 35.5502L39.0548 33.905L40.9545 33.905L41.9043 35.5502L40.9545 37.1953L39.0548 37.1953L38.105 35.5502Z" stroke="#C98D47" stroke-width="0.3"/>
    <path d="M38.105 28.9711L39.0548 27.3259L40.9545 27.3259L41.9043 28.9711L40.9545 30.6162L39.0548 30.6162L38.105 28.9711Z" stroke="#C98D47" stroke-width="0.3"/>
    <path d="M38.105 22.392L39.0548 20.7468L40.9545 20.7468L41.9043 22.392L40.9545 24.0371L39.0548 24.0371L38.105 22.392Z" stroke="#C98D47" stroke-width="0.3"/>
    <path d="M40.9487 37.1966L41.8985 35.5515L43.7982 35.5515L44.748 37.1966L43.7982 38.8418L41.8985 38.8418L40.9487 37.1966Z" stroke="#C98D47" stroke-width="0.3"/>
    <path d="M40.9487 30.6175L41.8985 28.9724L43.7982 28.9724L44.748 30.6175L43.7982 32.2627L41.8985 32.2627L40.9487 30.6175Z" stroke="#C98D47" stroke-width="0.3"/>
    <path d="M40.9487 24.0384L41.8985 22.3933L43.7982 22.3933L44.748 24.0384L43.7982 25.6836L41.8985 25.6836L40.9487 24.0384Z" stroke="#C98D47" stroke-width="0.3"/>
    <path d="M40.9487 40.4847L41.8985 38.8396L43.7982 38.8396L44.748 40.4847L43.7982 42.1299L41.8985 42.1299L40.9487 40.4847Z" stroke="#C98D47" stroke-width="0.3"/>
    <path d="M40.9487 33.9056L41.8985 32.2605L43.7982 32.2605L44.748 33.9056L43.7982 35.5508L41.8985 35.5508L40.9487 33.9056Z" stroke="#C98D47" stroke-width="0.3"/>
    <path d="M40.9487 27.3265L41.8985 25.6814L43.7982 25.6814L44.748 27.3265L43.7982 28.9717L41.8985 28.9717L40.9487 27.3265Z" stroke="#C98D47" stroke-width="0.3"/>
    <path d="M40.9487 20.7474L41.8985 19.1023L43.7982 19.1023L44.748 20.7474L43.7982 22.3926L41.8985 22.3926L40.9487 20.7474Z" stroke="#C98D47" stroke-width="0.3"/>
    <path d="M38.105 38.8412L39.0548 37.196L40.9545 37.196L41.9043 38.8412L40.9545 40.4863L39.0548 40.4863L38.105 38.8412Z" stroke="#C98D47" stroke-width="0.3"/>
    <path d="M38.105 32.2621L39.0548 30.6169L40.9545 30.6169L41.9043 32.2621L40.9545 33.9072L39.0548 33.9072L38.105 32.2621Z" stroke="#C98D47" stroke-width="0.3"/>
    <path d="M38.105 25.683L39.0548 24.0378L40.9545 24.0378L41.9043 25.683L40.9545 27.3281L39.0548 27.3281L38.105 25.683Z" stroke="#C98D47" stroke-width="0.3"/>
    </g>
    <path d="M16 24.9248L21 19.9248L16 14.9248" stroke="#2D1700" stroke-width="2" stroke-linecap="round" stroke-linejoin="round"/>
    <path d="M23 24.9248L28 19.9248L23 14.9248" stroke="#2D1700" stroke-width="2" stroke-linecap="round" stroke-linejoin="round"/>
    <defs>
    <filter id="filter0_i_0_1" x="0" y="-0.575195" width="43" height="43" filterUnits="userSpaceOnUse" colorInterpolationFilters="sRGB">
    <feFlood floodOpacity="0" result="BackgroundImageFix"/>
    <feBlend mode="normal" in="SourceGraphic" in2="BackgroundImageFix" result="shape"/>
    <feColorMatrix in="SourceAlpha" type="matrix" values="0 0 0 0 0 0 0 0 0 0 0 0 0 0 0 0 0 0 127 0" result="hardAlpha"/>
    <feOffset dy="-1"/>
    <feGaussianBlur stdDeviation="0.5"/>
    <feComposite in2="hardAlpha" operator="arithmetic" k2="-1" k3="1"/>
    <feColorMatrix type="matrix" values="0 0 0 0 0 0 0 0 0 0 0 0 0 0 0 0 0 0 0.25 0"/>
    <feBlend mode="normal" in2="shape" result="effect1_innerShadow_0_1"/>
    </filter>
    <filter id="filter1_ii_0_1" x="0" y="-0.575195" width="44" height="41" filterUnits="userSpaceOnUse" colorInterpolationFilters="sRGB">
    <feFlood floodOpacity="0" result="BackgroundImageFix"/>
    <feBlend mode="normal" in="SourceGraphic" in2="BackgroundImageFix" result="shape"/>
    <feColorMatrix in="SourceAlpha" type="matrix" values="0 0 0 0 0 0 0 0 0 0 0 0 0 0 0 0 0 0 127 0" result="hardAlpha"/>
    <feOffset dy="-1"/>
    <feGaussianBlur stdDeviation="1"/>
    <feComposite in2="hardAlpha" operator="arithmetic" k2="-1" k3="1"/>
    <feColorMatrix type="matrix" values="0 0 0 0 0.941176 0 0 0 0 0.772549 0 0 0 0 0.521569 0 0 0 0.5 0"/>
    <feBlend mode="normal" in2="shape" result="effect1_innerShadow_0_1"/>
    <feColorMatrix in="SourceAlpha" type="matrix" values="0 0 0 0 0 0 0 0 0 0 0 0 0 0 0 0 0 0 127 0" result="hardAlpha"/>
    <feOffset dx="1" dy="1"/>
    <feGaussianBlur stdDeviation="1"/>
    <feComposite in2="hardAlpha" operator="arithmetic" k2="-1" k3="1"/>
    <feColorMatrix type="matrix" values="0 0 0 0 0.941667 0 0 0 0 0.772263 0 0 0 0 0.52184 0 0 0 1 0"/>
    <feBlend mode="normal" in2="effect1_innerShadow_0_1" result="effect2_innerShadow_0_1"/>
    </filter>
    <linearGradient id="paint0_linear_0_1" x1="45.1384" y1="40.7984" x2="-8.05946" y2="24.9967" gradientUnits="userSpaceOnUse" fill-opacity="50%">
    <stop stop-color="#C68C43"/>
    <stop offset="0.0001" stop-color="#8C4E00"/>
    <stop offset="0.494792" stop-color="#FFC782"/>
    <stop offset="1" stop-color="#AA722C"/>
    </linearGradient>
    </defs>
    </svg>
