<svg width="17" height="17" viewBox="0 0 17 17" fill="none" xmlns="http://www.w3.org/2000/svg">
    <path d="M16.3359 11.6875C16.7027 11.6875 17 11.3902 17 11.0234V3.98438C17 2.51972 15.8084 1.32812 14.3438 1.32812H13.4805V0.664062C13.4805 0.297301 13.1832 0 12.8164 0C12.4496 0 12.1523 0.297301 12.1523 0.664062V1.32812H9.13086V0.664062C9.13086 0.297301 8.83356 0 8.4668 0C8.10003 0 7.80273 0.297301 7.80273 0.664062V1.32812H4.81445V0.664062C4.81445 0.297301 4.51715 0 4.15039 0C3.78363 0 3.48633 0.297301 3.48633 0.664062V1.32812H2.65625C1.19159 1.32812 0 2.51972 0 3.98438V14.3438C0 15.8084 1.19159 17 2.65625 17H14.3438C15.8084 17 17 15.8084 17 14.3438C17 13.977 16.7027 13.6797 16.3359 13.6797C15.9692 13.6797 15.6719 13.977 15.6719 14.3438C15.6719 15.0761 15.0761 15.6719 14.3438 15.6719H2.65625C1.92392 15.6719 1.32812 15.0761 1.32812 14.3438V3.98438C1.32812 3.25205 1.92392 2.65625 2.65625 2.65625H3.48633V3.32031C3.48633 3.68707 3.78363 3.98438 4.15039 3.98438C4.51715 3.98438 4.81445 3.68707 4.81445 3.32031V2.65625H7.80273V3.32031C7.80273 3.68707 8.10003 3.98438 8.4668 3.98438C8.83356 3.98438 9.13086 3.68707 9.13086 3.32031V2.65625H12.1523V3.32031C12.1523 3.68707 12.4496 3.98438 12.8164 3.98438C13.1832 3.98438 13.4805 3.68707 13.4805 3.32031V2.65625H14.3438C15.0761 2.65625 15.6719 3.25205 15.6719 3.98438V11.0234C15.6719 11.3902 15.9692 11.6875 16.3359 11.6875Z" fill="#4B516D"/>
    <path d="M4.14844 7.63672C4.51519 7.63672 4.8125 7.33941 4.8125 6.97266C4.8125 6.6059 4.51519 6.30859 4.14844 6.30859C3.78169 6.30859 3.48438 6.6059 3.48438 6.97266C3.48438 7.33941 3.78169 7.63672 4.14844 7.63672Z" fill="#4B516D"/>
    <path d="M9.92969 7.63672C10.2964 7.63672 10.5938 7.33941 10.5938 6.97266C10.5938 6.6059 10.2964 6.30859 9.92969 6.30859C9.56294 6.30859 9.26562 6.6059 9.26562 6.97266C9.26562 7.33941 9.56294 7.63672 9.92969 7.63672Z" fill="#4B516D"/>
    <path d="M12.8164 7.63672C13.1832 7.63672 13.4805 7.33941 13.4805 6.97266C13.4805 6.6059 13.1832 6.30859 12.8164 6.30859C12.4497 6.30859 12.1523 6.6059 12.1523 6.97266C12.1523 7.33941 12.4497 7.63672 12.8164 7.63672Z" fill="#4B516D"/>
    <path d="M4.14844 10.5234C4.51519 10.5234 4.8125 10.2261 4.8125 9.85938C4.8125 9.49262 4.51519 9.19531 4.14844 9.19531C3.78169 9.19531 3.48438 9.49262 3.48438 9.85938C3.48438 10.2261 3.78169 10.5234 4.14844 10.5234Z" fill="#4B516D"/>
    <path d="M4.14844 13.4141C4.51519 13.4141 4.8125 13.1168 4.8125 12.75C4.8125 12.3832 4.51519 12.0859 4.14844 12.0859C3.78169 12.0859 3.48438 12.3832 3.48438 12.75C3.48438 13.1168 3.78169 13.4141 4.14844 13.4141Z" fill="#4B516D"/>
    <path d="M7.03906 7.63672C7.40581 7.63672 7.70312 7.33941 7.70312 6.97266C7.70312 6.6059 7.40581 6.30859 7.03906 6.30859C6.67231 6.30859 6.375 6.6059 6.375 6.97266C6.375 7.33941 6.67231 7.63672 7.03906 7.63672Z" fill="#4B516D"/>
    <path d="M7.03906 10.5234C7.40581 10.5234 7.70312 10.2261 7.70312 9.85938C7.70312 9.49262 7.40581 9.19531 7.03906 9.19531C6.67231 9.19531 6.375 9.49262 6.375 9.85938C6.375 10.2261 6.67231 10.5234 7.03906 10.5234Z" fill="#4B516D"/>
    <path d="M7.03906 13.4141C7.40581 13.4141 7.70312 13.1168 7.70312 12.75C7.70312 12.3832 7.40581 12.0859 7.03906 12.0859C6.67231 12.0859 6.375 12.3832 6.375 12.75C6.375 13.1168 6.67231 13.4141 7.03906 13.4141Z" fill="#4B516D"/>
    <path d="M9.92969 10.5234C10.2964 10.5234 10.5938 10.2261 10.5938 9.85938C10.5938 9.49262 10.2964 9.19531 9.92969 9.19531C9.56294 9.19531 9.26562 9.49262 9.26562 9.85938C9.26562 10.2261 9.56294 10.5234 9.92969 10.5234Z" fill="#4B516D"/>
    <path d="M12.8164 10.5234C13.1832 10.5234 13.4805 10.2261 13.4805 9.85938C13.4805 9.49262 13.1832 9.19531 12.8164 9.19531C12.4497 9.19531 12.1523 9.49262 12.1523 9.85938C12.1523 10.2261 12.4497 10.5234 12.8164 10.5234Z" fill="#4B516D"/>
    <path d="M9.92969 13.4141C10.2964 13.4141 10.5938 13.1168 10.5938 12.75C10.5938 12.3832 10.2964 12.0859 9.92969 12.0859C9.56294 12.0859 9.26562 12.3832 9.26562 12.75C9.26562 13.1168 9.56294 13.4141 9.92969 13.4141Z" fill="#4B516D"/>
</svg>
