<svg width="43" height="40" viewBox="0 0 43 40" fill="none" xmlns="http://www.w3.org/2000/svg">
<mask id="mask0_1716_28746" style="mask-type:alpha" maskUnits="userSpaceOnUse" x="0" y="0" width="43" height="40">
<rect y="0.708008" width="43" height="39" rx="7" fill="#D9D9D9"/>
</mask>
<g mask="url(#mask0_1716_28746)">
<path d="M-1.74757 16.0951L-0.79774 14.4499L1.10193 14.4499L2.05176 16.0951L1.10193 17.7402L-0.79774 17.7402L-1.74757 16.0951Z" stroke="#C98D47" stroke-width="0.3"/>
<path d="M-1.74757 9.515L-0.79774 7.86984L1.10193 7.86984L2.05176 9.515L1.10193 11.1602L-0.79774 11.1602L-1.74757 9.515Z" stroke="#C98D47" stroke-width="0.3"/>
<path d="M-1.74757 2.9359L-0.79774 1.29074L1.10193 1.29074L2.05176 2.9359L1.10193 4.58105L-0.79774 4.58105L-1.74757 2.9359Z" stroke="#C98D47" stroke-width="0.3"/>
<path d="M1.0952 17.7406L2.04503 16.0954L3.9447 16.0954L4.89453 17.7406L3.9447 19.3857L2.04503 19.3857L1.0952 17.7406Z" stroke="#C98D47" stroke-width="0.3"/>
<path d="M1.0952 11.1615L2.04503 9.51632L3.9447 9.51632L4.89453 11.1615L3.9447 12.8066L2.04503 12.8066L1.0952 11.1615Z" stroke="#C98D47" stroke-width="0.3"/>
<path d="M1.0952 4.58238L2.04503 2.93722L3.9447 2.93722L4.89453 4.58238L3.9447 6.22754L2.04503 6.22754L1.0952 4.58238Z" stroke="#C98D47" stroke-width="0.3"/>
<path d="M1.0952 14.4505L2.04503 12.8054L3.9447 12.8054L4.89453 14.4505L3.9447 16.0957L2.04503 16.0957L1.0952 14.4505Z" stroke="#C98D47" stroke-width="0.3"/>
<path d="M1.0952 7.87047L2.04503 6.22531L3.9447 6.22531L4.89453 7.87047L3.9447 9.51562L2.04503 9.51562L1.0952 7.87047Z" stroke="#C98D47" stroke-width="0.3"/>
<path d="M1.0952 1.29136L2.04503 -0.353794L3.9447 -0.353794L4.89453 1.29137L3.9447 2.93652L2.04503 2.93652L1.0952 1.29136Z" stroke="#C98D47" stroke-width="0.3"/>
<path d="M-1.74757 19.3851L-0.79774 17.74L1.10193 17.74L2.05176 19.3851L1.10193 21.0303L-0.79774 21.0303L-1.74757 19.3851Z" stroke="#C98D47" stroke-width="0.3"/>
<path d="M-1.74757 12.806L-0.79774 11.1609L1.10193 11.1609L2.05176 12.806L1.10193 14.4512L-0.79774 14.4512L-1.74757 12.806Z" stroke="#C98D47" stroke-width="0.3"/>
<path d="M-1.74757 6.22691L-0.79774 4.58175L1.10193 4.58175L2.05176 6.22691L1.10193 7.87207L-0.79774 7.87207L-1.74757 6.22691Z" stroke="#C98D47" stroke-width="0.3"/>
<path d="M-1.74757 -0.35219L-0.79774 -1.99735L1.10193 -1.99735L2.05176 -0.35219L1.10193 1.29297L-0.79774 1.29297L-1.74757 -0.35219Z" stroke="#C98D47" stroke-width="0.3"/>
<path d="M3.94481 16.0951L4.89464 14.4499L6.79431 14.4499L7.74414 16.0951L6.79431 17.7402L4.89464 17.7402L3.94481 16.0951Z" stroke="#C98D47" stroke-width="0.3"/>
<path d="M3.94481 9.515L4.89464 7.86984L6.79431 7.86984L7.74414 9.515L6.79431 11.1602L4.89464 11.1602L3.94481 9.515Z" stroke="#C98D47" stroke-width="0.3"/>
<path d="M3.94481 2.9359L4.89464 1.29074L6.79431 1.29074L7.74414 2.9359L6.79431 4.58105L4.89464 4.58105L3.94481 2.9359Z" stroke="#C98D47" stroke-width="0.3"/>
<path d="M15.3315 16.0951L16.2814 14.4499L18.181 14.4499L19.1309 16.0951L18.181 17.7402L16.2814 17.7402L15.3315 16.0951Z" stroke="#C98D47" stroke-width="0.3"/>
<path d="M15.3315 9.515L16.2814 7.86984L18.181 7.86984L19.1309 9.515L18.181 11.1602L16.2814 11.1602L15.3315 9.515Z" stroke="#C98D47" stroke-width="0.3"/>
<path d="M15.3315 2.9359L16.2814 1.29074L18.181 1.29074L19.1309 2.9359L18.181 4.58105L16.2814 4.58105L15.3315 2.9359Z" stroke="#C98D47" stroke-width="0.3"/>
<path d="M9.63817 16.0951L10.588 14.4499L12.4877 14.4499L13.4375 16.0951L12.4877 17.7402L10.588 17.7402L9.63817 16.0951Z" stroke="#C98D47" stroke-width="0.3"/>
<path d="M9.63817 9.515L10.588 7.86984L12.4877 7.86984L13.4375 9.515L12.4877 11.1602L10.588 11.1602L9.63817 9.515Z" stroke="#C98D47" stroke-width="0.3"/>
<path d="M9.63817 2.9359L10.588 1.29074L12.4877 1.29074L13.4375 2.9359L12.4877 4.58105L10.588 4.58105L9.63817 2.9359Z" stroke="#C98D47" stroke-width="0.3"/>
<path d="M6.78856 17.7406L7.73839 16.0954L9.63806 16.0954L10.5879 17.7406L9.63806 19.3857L7.73839 19.3857L6.78856 17.7406Z" stroke="#C98D47" stroke-width="0.3"/>
<path d="M6.78856 11.1615L7.73839 9.51632L9.63806 9.51632L10.5879 11.1615L9.63806 12.8066L7.73839 12.8066L6.78856 11.1615Z" stroke="#C98D47" stroke-width="0.3"/>
<path d="M6.78856 4.58238L7.73839 2.93722L9.63806 2.93722L10.5879 4.58238L9.63806 6.22754L7.73839 6.22754L6.78856 4.58238Z" stroke="#C98D47" stroke-width="0.3"/>
<path d="M18.1753 17.7406L19.1251 16.0954L21.0248 16.0954L21.9746 17.7406L21.0248 19.3857L19.1251 19.3857L18.1753 17.7406Z" stroke="#C98D47" stroke-width="0.3"/>
<path d="M18.1753 11.1615L19.1251 9.51632L21.0248 9.51632L21.9746 11.1615L21.0248 12.8066L19.1251 12.8066L18.1753 11.1615Z" stroke="#C98D47" stroke-width="0.3"/>
<path d="M18.1753 4.58238L19.1251 2.93722L21.0248 2.93722L21.9746 4.58238L21.0248 6.22754L19.1251 6.22754L18.1753 4.58238Z" stroke="#C98D47" stroke-width="0.3"/>
<path d="M12.4819 17.7406L13.4318 16.0954L15.3314 16.0954L16.2813 17.7406L15.3314 19.3857L13.4318 19.3857L12.4819 17.7406Z" stroke="#C98D47" stroke-width="0.3"/>
<path d="M12.4819 11.1615L13.4318 9.51632L15.3314 9.51632L16.2813 11.1615L15.3314 12.8066L13.4318 12.8066L12.4819 11.1615Z" stroke="#C98D47" stroke-width="0.3"/>
<path d="M12.4819 4.58238L13.4318 2.93722L15.3314 2.93722L16.2813 4.58238L15.3314 6.22754L13.4318 6.22754L12.4819 4.58238Z" stroke="#C98D47" stroke-width="0.3"/>
<path d="M6.78856 14.4505L7.73839 12.8054L9.63806 12.8054L10.5879 14.4505L9.63806 16.0957L7.73839 16.0957L6.78856 14.4505Z" stroke="#C98D47" stroke-width="0.3"/>
<path d="M6.78856 7.87047L7.73839 6.22531L9.63806 6.22531L10.5879 7.87047L9.63806 9.51562L7.73839 9.51562L6.78856 7.87047Z" stroke="#C98D47" stroke-width="0.3"/>
<path d="M6.78856 1.29136L7.73839 -0.353794L9.63806 -0.353794L10.5879 1.29137L9.63806 2.93652L7.73839 2.93652L6.78856 1.29136Z" stroke="#C98D47" stroke-width="0.3"/>
<path d="M18.1753 14.4505L19.1251 12.8054L21.0248 12.8054L21.9746 14.4505L21.0248 16.0957L19.1251 16.0957L18.1753 14.4505Z" stroke="#C98D47" stroke-width="0.3"/>
<path d="M18.1753 7.87047L19.1251 6.22531L21.0248 6.22531L21.9746 7.87047L21.0248 9.51562L19.1251 9.51562L18.1753 7.87047Z" stroke="#C98D47" stroke-width="0.3"/>
<path d="M18.1753 1.29136L19.1251 -0.353794L21.0248 -0.353794L21.9746 1.29137L21.0248 2.93652L19.1251 2.93652L18.1753 1.29136Z" stroke="#C98D47" stroke-width="0.3"/>
<path d="M12.4819 14.4505L13.4318 12.8054L15.3314 12.8054L16.2813 14.4505L15.3314 16.0957L13.4318 16.0957L12.4819 14.4505Z" stroke="#C98D47" stroke-width="0.3"/>
<path d="M12.4819 7.87047L13.4318 6.22531L15.3314 6.22531L16.2813 7.87047L15.3314 9.51562L13.4318 9.51562L12.4819 7.87047Z" stroke="#C98D47" stroke-width="0.3"/>
<path d="M12.4819 1.29136L13.4318 -0.353794L15.3314 -0.353794L16.2813 1.29137L15.3314 2.93652L13.4318 2.93652L12.4819 1.29136Z" stroke="#C98D47" stroke-width="0.3"/>
<path d="M3.94481 19.3851L4.89464 17.74L6.79431 17.74L7.74414 19.3851L6.79431 21.0303L4.89464 21.0303L3.94481 19.3851Z" stroke="#C98D47" stroke-width="0.3"/>
<path d="M3.94481 12.806L4.89464 11.1609L6.79431 11.1609L7.74414 12.806L6.79431 14.4512L4.89464 14.4512L3.94481 12.806Z" stroke="#C98D47" stroke-width="0.3"/>
<path d="M3.94481 6.22691L4.89464 4.58175L6.79431 4.58175L7.74414 6.22691L6.79431 7.87207L4.89464 7.87207L3.94481 6.22691Z" stroke="#C98D47" stroke-width="0.3"/>
<path d="M3.94481 -0.35219L4.89464 -1.99735L6.79431 -1.99735L7.74414 -0.35219L6.79431 1.29297L4.89464 1.29297L3.94481 -0.35219Z" stroke="#C98D47" stroke-width="0.3"/>
<path d="M15.3315 19.3851L16.2814 17.74L18.181 17.74L19.1309 19.3851L18.181 21.0303L16.2814 21.0303L15.3315 19.3851Z" stroke="#C98D47" stroke-width="0.3"/>
<path d="M15.3315 12.806L16.2814 11.1609L18.181 11.1609L19.1309 12.806L18.181 14.4512L16.2814 14.4512L15.3315 12.806Z" stroke="#C98D47" stroke-width="0.3"/>
<path d="M15.3315 6.22691L16.2814 4.58175L18.181 4.58175L19.1309 6.22691L18.181 7.87207L16.2814 7.87207L15.3315 6.22691Z" stroke="#C98D47" stroke-width="0.3"/>
<path d="M15.3315 -0.35219L16.2814 -1.99735L18.181 -1.99735L19.1309 -0.35219L18.181 1.29297L16.2814 1.29297L15.3315 -0.35219Z" stroke="#C98D47" stroke-width="0.3"/>
<path d="M9.63817 19.3851L10.588 17.74L12.4877 17.74L13.4375 19.3851L12.4877 21.0303L10.588 21.0303L9.63817 19.3851Z" stroke="#C98D47" stroke-width="0.3"/>
<path d="M9.63817 12.806L10.588 11.1609L12.4877 11.1609L13.4375 12.806L12.4877 14.4512L10.588 14.4512L9.63817 12.806Z" stroke="#C98D47" stroke-width="0.3"/>
<path d="M9.63817 6.22691L10.588 4.58175L12.4877 4.58175L13.4375 6.22691L12.4877 7.87207L10.588 7.87207L9.63817 6.22691Z" stroke="#C98D47" stroke-width="0.3"/>
<path d="M9.63817 -0.35219L10.588 -1.99735L12.4877 -1.99735L13.4375 -0.35219L12.4877 1.29297L10.588 1.29297L9.63817 -0.35219Z" stroke="#C98D47" stroke-width="0.3"/>
<path d="M21.0249 16.0951L21.9747 14.4499L23.8744 14.4499L24.8242 16.0951L23.8744 17.7402L21.9747 17.7402L21.0249 16.0951Z" stroke="#C98D47" stroke-width="0.3"/>
<path d="M21.0249 9.515L21.9747 7.86984L23.8744 7.86984L24.8242 9.515L23.8744 11.1602L21.9747 11.1602L21.0249 9.515Z" stroke="#C98D47" stroke-width="0.3"/>
<path d="M21.0249 2.9359L21.9747 1.29074L23.8744 1.29074L24.8242 2.9359L23.8744 4.58105L21.9747 4.58105L21.0249 2.9359Z" stroke="#C98D47" stroke-width="0.3"/>
<path d="M32.4116 16.0951L33.3614 14.4499L35.2611 14.4499L36.2109 16.0951L35.2611 17.7402L33.3614 17.7402L32.4116 16.0951Z" stroke="#C98D47" stroke-width="0.3"/>
<path d="M32.4116 9.515L33.3614 7.86984L35.2611 7.86984L36.2109 9.515L35.2611 11.1602L33.3614 11.1602L32.4116 9.515Z" stroke="#C98D47" stroke-width="0.3"/>
<path d="M32.4116 2.9359L33.3614 1.29074L35.2611 1.29074L36.2109 2.9359L35.2611 4.58105L33.3614 4.58105L32.4116 2.9359Z" stroke="#C98D47" stroke-width="0.3"/>
<path d="M26.7182 16.0951L27.6681 14.4499L29.5677 14.4499L30.5176 16.0951L29.5677 17.7402L27.6681 17.7402L26.7182 16.0951Z" stroke="#C98D47" stroke-width="0.3"/>
<path d="M26.7182 9.515L27.6681 7.86984L29.5677 7.86984L30.5176 9.515L29.5677 11.1602L27.6681 11.1602L26.7182 9.515Z" stroke="#C98D47" stroke-width="0.3"/>
<path d="M26.7182 2.9359L27.6681 1.29074L29.5677 1.29074L30.5176 2.9359L29.5677 4.58105L27.6681 4.58105L26.7182 2.9359Z" stroke="#C98D47" stroke-width="0.3"/>
<path d="M23.8686 17.7406L24.8185 16.0954L26.7181 16.0954L27.668 17.7406L26.7181 19.3857L24.8185 19.3857L23.8686 17.7406Z" stroke="#C98D47" stroke-width="0.3"/>
<path d="M23.8686 11.1615L24.8185 9.51632L26.7181 9.51632L27.668 11.1615L26.7181 12.8066L24.8185 12.8066L23.8686 11.1615Z" stroke="#C98D47" stroke-width="0.3"/>
<path d="M23.8686 4.58238L24.8185 2.93722L26.7181 2.93722L27.668 4.58238L26.7181 6.22754L24.8185 6.22754L23.8686 4.58238Z" stroke="#C98D47" stroke-width="0.3"/>
<path d="M35.2554 17.7406L36.2052 16.0954L38.1049 16.0954L39.0547 17.7406L38.1049 19.3857L36.2052 19.3857L35.2554 17.7406Z" stroke="#C98D47" stroke-width="0.3"/>
<path d="M35.2554 11.1615L36.2052 9.51632L38.1049 9.51632L39.0547 11.1615L38.1049 12.8066L36.2052 12.8066L35.2554 11.1615Z" stroke="#C98D47" stroke-width="0.3"/>
<path d="M35.2554 4.58238L36.2052 2.93722L38.1049 2.93722L39.0547 4.58238L38.1049 6.22754L36.2052 6.22754L35.2554 4.58238Z" stroke="#C98D47" stroke-width="0.3"/>
<path d="M29.562 17.7406L30.5118 16.0954L32.4115 16.0954L33.3613 17.7406L32.4115 19.3857L30.5118 19.3857L29.562 17.7406Z" stroke="#C98D47" stroke-width="0.3"/>
<path d="M29.562 11.1615L30.5118 9.51632L32.4115 9.51632L33.3613 11.1615L32.4115 12.8066L30.5118 12.8066L29.562 11.1615Z" stroke="#C98D47" stroke-width="0.3"/>
<path d="M29.562 4.58238L30.5118 2.93722L32.4115 2.93722L33.3613 4.58238L32.4115 6.22754L30.5118 6.22754L29.562 4.58238Z" stroke="#C98D47" stroke-width="0.3"/>
<path d="M23.8686 14.4505L24.8185 12.8054L26.7181 12.8054L27.668 14.4505L26.7181 16.0957L24.8185 16.0957L23.8686 14.4505Z" stroke="#C98D47" stroke-width="0.3"/>
<path d="M23.8686 7.87047L24.8185 6.22531L26.7181 6.22531L27.668 7.87047L26.7181 9.51562L24.8185 9.51562L23.8686 7.87047Z" stroke="#C98D47" stroke-width="0.3"/>
<path d="M23.8686 1.29136L24.8185 -0.353794L26.7181 -0.353794L27.668 1.29137L26.7181 2.93652L24.8185 2.93652L23.8686 1.29136Z" stroke="#C98D47" stroke-width="0.3"/>
<path d="M35.2554 14.4505L36.2052 12.8054L38.1049 12.8054L39.0547 14.4505L38.1049 16.0957L36.2052 16.0957L35.2554 14.4505Z" stroke="#C98D47" stroke-width="0.3"/>
<path d="M35.2554 7.87047L36.2052 6.22531L38.1049 6.22531L39.0547 7.87047L38.1049 9.51562L36.2052 9.51562L35.2554 7.87047Z" stroke="#C98D47" stroke-width="0.3"/>
<path d="M35.2554 1.29136L36.2052 -0.353794L38.1049 -0.353794L39.0547 1.29137L38.1049 2.93652L36.2052 2.93652L35.2554 1.29136Z" stroke="#C98D47" stroke-width="0.3"/>
<path d="M29.562 14.4505L30.5118 12.8054L32.4115 12.8054L33.3613 14.4505L32.4115 16.0957L30.5118 16.0957L29.562 14.4505Z" stroke="#C98D47" stroke-width="0.3"/>
<path d="M29.562 7.87047L30.5118 6.22531L32.4115 6.22531L33.3613 7.87047L32.4115 9.51562L30.5118 9.51562L29.562 7.87047Z" stroke="#C98D47" stroke-width="0.3"/>
<path d="M29.562 1.29136L30.5118 -0.353794L32.4115 -0.353794L33.3613 1.29137L32.4115 2.93652L30.5118 2.93652L29.562 1.29136Z" stroke="#C98D47" stroke-width="0.3"/>
<path d="M21.0249 19.3851L21.9747 17.74L23.8744 17.74L24.8242 19.3851L23.8744 21.0303L21.9747 21.0303L21.0249 19.3851Z" stroke="#C98D47" stroke-width="0.3"/>
<path d="M21.0249 12.806L21.9747 11.1609L23.8744 11.1609L24.8242 12.806L23.8744 14.4512L21.9747 14.4512L21.0249 12.806Z" stroke="#C98D47" stroke-width="0.3"/>
<path d="M21.0249 6.22691L21.9747 4.58175L23.8744 4.58175L24.8242 6.22691L23.8744 7.87207L21.9747 7.87207L21.0249 6.22691Z" stroke="#C98D47" stroke-width="0.3"/>
<path d="M21.0249 -0.35219L21.9747 -1.99735L23.8744 -1.99735L24.8242 -0.35219L23.8744 1.29297L21.9747 1.29297L21.0249 -0.35219Z" stroke="#C98D47" stroke-width="0.3"/>
<path d="M32.4116 19.3851L33.3614 17.74L35.2611 17.74L36.2109 19.3851L35.2611 21.0303L33.3614 21.0303L32.4116 19.3851Z" stroke="#C98D47" stroke-width="0.3"/>
<path d="M32.4116 12.806L33.3614 11.1609L35.2611 11.1609L36.2109 12.806L35.2611 14.4512L33.3614 14.4512L32.4116 12.806Z" stroke="#C98D47" stroke-width="0.3"/>
<path d="M32.4116 6.22691L33.3614 4.58175L35.2611 4.58175L36.2109 6.22691L35.2611 7.87207L33.3614 7.87207L32.4116 6.22691Z" stroke="#C98D47" stroke-width="0.3"/>
<path d="M32.4116 -0.35219L33.3614 -1.99735L35.2611 -1.99735L36.2109 -0.35219L35.2611 1.29297L33.3614 1.29297L32.4116 -0.35219Z" stroke="#C98D47" stroke-width="0.3"/>
<path d="M26.7182 19.3851L27.6681 17.74L29.5677 17.74L30.5176 19.3851L29.5677 21.0303L27.6681 21.0303L26.7182 19.3851Z" stroke="#C98D47" stroke-width="0.3"/>
<path d="M26.7182 12.806L27.6681 11.1609L29.5677 11.1609L30.5176 12.806L29.5677 14.4512L27.6681 14.4512L26.7182 12.806Z" stroke="#C98D47" stroke-width="0.3"/>
<path d="M26.7182 6.22691L27.6681 4.58175L29.5677 4.58175L30.5176 6.22691L29.5677 7.87207L27.6681 7.87207L26.7182 6.22691Z" stroke="#C98D47" stroke-width="0.3"/>
<path d="M26.7182 -0.35219L27.6681 -1.99735L29.5677 -1.99735L30.5176 -0.35219L29.5677 1.29297L27.6681 1.29297L26.7182 -0.35219Z" stroke="#C98D47" stroke-width="0.3"/>
<path d="M38.105 16.0951L39.0548 14.4499L40.9545 14.4499L41.9043 16.0951L40.9545 17.7402L39.0548 17.7402L38.105 16.0951Z" stroke="#C98D47" stroke-width="0.3"/>
<path d="M38.105 9.515L39.0548 7.86984L40.9545 7.86984L41.9043 9.515L40.9545 11.1602L39.0548 11.1602L38.105 9.515Z" stroke="#C98D47" stroke-width="0.3"/>
<path d="M38.105 2.9359L39.0548 1.29074L40.9545 1.29074L41.9043 2.9359L40.9545 4.58105L39.0548 4.58105L38.105 2.9359Z" stroke="#C98D47" stroke-width="0.3"/>
<path d="M40.9487 17.7406L41.8985 16.0954L43.7982 16.0954L44.748 17.7406L43.7982 19.3857L41.8985 19.3857L40.9487 17.7406Z" stroke="#C98D47" stroke-width="0.3"/>
<path d="M40.9487 11.1615L41.8985 9.51632L43.7982 9.51632L44.748 11.1615L43.7982 12.8066L41.8985 12.8066L40.9487 11.1615Z" stroke="#C98D47" stroke-width="0.3"/>
<path d="M40.9487 4.58238L41.8985 2.93722L43.7982 2.93722L44.748 4.58238L43.7982 6.22754L41.8985 6.22754L40.9487 4.58238Z" stroke="#C98D47" stroke-width="0.3"/>
<path d="M40.9487 14.4505L41.8985 12.8054L43.7982 12.8054L44.748 14.4505L43.7982 16.0957L41.8985 16.0957L40.9487 14.4505Z" stroke="#C98D47" stroke-width="0.3"/>
<path d="M40.9487 7.87047L41.8985 6.22531L43.7982 6.22531L44.748 7.87047L43.7982 9.51562L41.8985 9.51562L40.9487 7.87047Z" stroke="#C98D47" stroke-width="0.3"/>
<path d="M40.9487 1.29136L41.8985 -0.353794L43.7982 -0.353794L44.748 1.29137L43.7982 2.93652L41.8985 2.93652L40.9487 1.29136Z" stroke="#C98D47" stroke-width="0.3"/>
<path d="M38.105 19.3851L39.0548 17.74L40.9545 17.74L41.9043 19.3851L40.9545 21.0303L39.0548 21.0303L38.105 19.3851Z" stroke="#C98D47" stroke-width="0.3"/>
<path d="M38.105 12.806L39.0548 11.1609L40.9545 11.1609L41.9043 12.806L40.9545 14.4512L39.0548 14.4512L38.105 12.806Z" stroke="#C98D47" stroke-width="0.3"/>
<path d="M38.105 6.22691L39.0548 4.58175L40.9545 4.58175L41.9043 6.22691L40.9545 7.87207L39.0548 7.87207L38.105 6.22691Z" stroke="#C98D47" stroke-width="0.3"/>
<path d="M38.105 -0.35219L39.0548 -1.99735L40.9545 -1.99735L41.9043 -0.35219L40.9545 1.29297L39.0548 1.29297L38.105 -0.35219Z" stroke="#C98D47" stroke-width="0.3"/>
<path d="M-1.74757 35.8334L-0.79774 34.1882L1.10193 34.1882L2.05176 35.8334L1.10193 37.4785L-0.79774 37.4785L-1.74757 35.8334Z" stroke="#C98D47" stroke-width="0.3"/>
<path d="M-1.74757 29.2543L-0.79774 27.6091L1.10193 27.6091L2.05176 29.2543L1.10193 30.8994L-0.79774 30.8994L-1.74757 29.2543Z" stroke="#C98D47" stroke-width="0.3"/>
<path d="M-1.74757 22.6752L-0.79774 21.03L1.10193 21.03L2.05176 22.6752L1.10193 24.3203L-0.79774 24.3203L-1.74757 22.6752Z" stroke="#C98D47" stroke-width="0.3"/>
<path d="M1.0952 37.4798L2.04503 35.8347L3.9447 35.8347L4.89453 37.4798L3.9447 39.125L2.04503 39.125L1.0952 37.4798Z" stroke="#C98D47" stroke-width="0.3"/>
<path d="M1.0952 30.9007L2.04503 29.2556L3.9447 29.2556L4.89453 30.9007L3.9447 32.5459L2.04503 32.5459L1.0952 30.9007Z" stroke="#C98D47" stroke-width="0.3"/>
<path d="M1.0952 24.3216L2.04503 22.6765L3.9447 22.6765L4.89453 24.3216L3.9447 25.9668L2.04503 25.9668L1.0952 24.3216Z" stroke="#C98D47" stroke-width="0.3"/>
<path d="M1.0952 40.7679L2.04503 39.1228L3.9447 39.1228L4.89453 40.7679L3.9447 42.4131L2.04503 42.4131L1.0952 40.7679Z" stroke="#C98D47" stroke-width="0.3"/>
<path d="M1.0952 34.1888L2.04503 32.5437L3.9447 32.5437L4.89453 34.1888L3.9447 35.834L2.04503 35.834L1.0952 34.1888Z" stroke="#C98D47" stroke-width="0.3"/>
<path d="M1.0952 27.6097L2.04503 25.9646L3.9447 25.9646L4.89453 27.6097L3.9447 29.2549L2.04503 29.2549L1.0952 27.6097Z" stroke="#C98D47" stroke-width="0.3"/>
<path d="M1.0952 21.0306L2.04503 19.3855L3.9447 19.3855L4.89453 21.0306L3.9447 22.6758L2.04503 22.6758L1.0952 21.0306Z" stroke="#C98D47" stroke-width="0.3"/>
<path d="M-1.74757 39.1244L-0.79774 37.4792L1.10193 37.4792L2.05176 39.1244L1.10193 40.7695L-0.79774 40.7695L-1.74757 39.1244Z" stroke="#C98D47" stroke-width="0.3"/>
<path d="M-1.74757 32.5453L-0.79774 30.9001L1.10193 30.9001L2.05176 32.5453L1.10193 34.1904L-0.79774 34.1904L-1.74757 32.5453Z" stroke="#C98D47" stroke-width="0.3"/>
<path d="M-1.74757 25.9662L-0.79774 24.321L1.10193 24.321L2.05176 25.9662L1.10193 27.6113L-0.79774 27.6113L-1.74757 25.9662Z" stroke="#C98D47" stroke-width="0.3"/>
<path d="M3.94481 35.8334L4.89464 34.1882L6.79431 34.1882L7.74414 35.8334L6.79431 37.4785L4.89464 37.4785L3.94481 35.8334Z" stroke="#C98D47" stroke-width="0.3"/>
<path d="M3.94481 29.2543L4.89464 27.6091L6.79431 27.6091L7.74414 29.2543L6.79431 30.8994L4.89464 30.8994L3.94481 29.2543Z" stroke="#C98D47" stroke-width="0.3"/>
<path d="M3.94481 22.6752L4.89464 21.03L6.79431 21.03L7.74414 22.6752L6.79431 24.3203L4.89464 24.3203L3.94481 22.6752Z" stroke="#C98D47" stroke-width="0.3"/>
<path d="M15.3315 35.8334L16.2814 34.1882L18.181 34.1882L19.1309 35.8334L18.181 37.4785L16.2814 37.4785L15.3315 35.8334Z" stroke="#C98D47" stroke-width="0.3"/>
<path d="M15.3315 29.2543L16.2814 27.6091L18.181 27.6091L19.1309 29.2543L18.181 30.8994L16.2814 30.8994L15.3315 29.2543Z" stroke="#C98D47" stroke-width="0.3"/>
<path d="M15.3315 22.6752L16.2814 21.03L18.181 21.03L19.1309 22.6752L18.181 24.3203L16.2814 24.3203L15.3315 22.6752Z" stroke="#C98D47" stroke-width="0.3"/>
<path d="M9.63817 35.8334L10.588 34.1882L12.4877 34.1882L13.4375 35.8334L12.4877 37.4785L10.588 37.4785L9.63817 35.8334Z" stroke="#C98D47" stroke-width="0.3"/>
<path d="M9.63817 29.2543L10.588 27.6091L12.4877 27.6091L13.4375 29.2543L12.4877 30.8994L10.588 30.8994L9.63817 29.2543Z" stroke="#C98D47" stroke-width="0.3"/>
<path d="M9.63817 22.6752L10.588 21.03L12.4877 21.03L13.4375 22.6752L12.4877 24.3203L10.588 24.3203L9.63817 22.6752Z" stroke="#C98D47" stroke-width="0.3"/>
<path d="M6.78856 37.4798L7.73839 35.8347L9.63806 35.8347L10.5879 37.4798L9.63806 39.125L7.73839 39.125L6.78856 37.4798Z" stroke="#C98D47" stroke-width="0.3"/>
<path d="M6.78856 30.9007L7.73839 29.2556L9.63806 29.2556L10.5879 30.9007L9.63806 32.5459L7.73839 32.5459L6.78856 30.9007Z" stroke="#C98D47" stroke-width="0.3"/>
<path d="M6.78856 24.3216L7.73839 22.6765L9.63806 22.6765L10.5879 24.3216L9.63806 25.9668L7.73839 25.9668L6.78856 24.3216Z" stroke="#C98D47" stroke-width="0.3"/>
<path d="M18.1753 37.4798L19.1251 35.8347L21.0248 35.8347L21.9746 37.4798L21.0248 39.125L19.1251 39.125L18.1753 37.4798Z" stroke="#C98D47" stroke-width="0.3"/>
<path d="M18.1753 30.9007L19.1251 29.2556L21.0248 29.2556L21.9746 30.9007L21.0248 32.5459L19.1251 32.5459L18.1753 30.9007Z" stroke="#C98D47" stroke-width="0.3"/>
<path d="M18.1753 24.3216L19.1251 22.6765L21.0248 22.6765L21.9746 24.3216L21.0248 25.9668L19.1251 25.9668L18.1753 24.3216Z" stroke="#C98D47" stroke-width="0.3"/>
<path d="M12.4819 37.4798L13.4318 35.8347L15.3314 35.8347L16.2813 37.4798L15.3314 39.125L13.4318 39.125L12.4819 37.4798Z" stroke="#C98D47" stroke-width="0.3"/>
<path d="M12.4819 30.9007L13.4318 29.2556L15.3314 29.2556L16.2813 30.9007L15.3314 32.5459L13.4318 32.5459L12.4819 30.9007Z" stroke="#C98D47" stroke-width="0.3"/>
<path d="M12.4819 24.3216L13.4318 22.6765L15.3314 22.6765L16.2813 24.3216L15.3314 25.9668L13.4318 25.9668L12.4819 24.3216Z" stroke="#C98D47" stroke-width="0.3"/>
<path d="M6.78856 40.7679L7.73839 39.1228L9.63806 39.1228L10.5879 40.7679L9.63806 42.4131L7.73839 42.4131L6.78856 40.7679Z" stroke="#C98D47" stroke-width="0.3"/>
<path d="M6.78856 34.1888L7.73839 32.5437L9.63806 32.5437L10.5879 34.1888L9.63806 35.834L7.73839 35.834L6.78856 34.1888Z" stroke="#C98D47" stroke-width="0.3"/>
<path d="M6.78856 27.6097L7.73839 25.9646L9.63806 25.9646L10.5879 27.6097L9.63806 29.2549L7.73839 29.2549L6.78856 27.6097Z" stroke="#C98D47" stroke-width="0.3"/>
<path d="M6.78856 21.0306L7.73839 19.3855L9.63806 19.3855L10.5879 21.0306L9.63806 22.6758L7.73839 22.6758L6.78856 21.0306Z" stroke="#C98D47" stroke-width="0.3"/>
<path d="M18.1753 40.7679L19.1251 39.1228L21.0248 39.1228L21.9746 40.7679L21.0248 42.4131L19.1251 42.4131L18.1753 40.7679Z" stroke="#C98D47" stroke-width="0.3"/>
<path d="M18.1753 34.1888L19.1251 32.5437L21.0248 32.5437L21.9746 34.1888L21.0248 35.834L19.1251 35.834L18.1753 34.1888Z" stroke="#C98D47" stroke-width="0.3"/>
<path d="M18.1753 27.6097L19.1251 25.9646L21.0248 25.9646L21.9746 27.6097L21.0248 29.2549L19.1251 29.2549L18.1753 27.6097Z" stroke="#C98D47" stroke-width="0.3"/>
<path d="M18.1753 21.0306L19.1251 19.3855L21.0248 19.3855L21.9746 21.0306L21.0248 22.6758L19.1251 22.6758L18.1753 21.0306Z" stroke="#C98D47" stroke-width="0.3"/>
<path d="M12.4819 40.7679L13.4318 39.1228L15.3314 39.1228L16.2813 40.7679L15.3314 42.4131L13.4318 42.4131L12.4819 40.7679Z" stroke="#C98D47" stroke-width="0.3"/>
<path d="M12.4819 34.1888L13.4318 32.5437L15.3314 32.5437L16.2813 34.1888L15.3314 35.834L13.4318 35.834L12.4819 34.1888Z" stroke="#C98D47" stroke-width="0.3"/>
<path d="M12.4819 27.6097L13.4318 25.9646L15.3314 25.9646L16.2813 27.6097L15.3314 29.2549L13.4318 29.2549L12.4819 27.6097Z" stroke="#C98D47" stroke-width="0.3"/>
<path d="M12.4819 21.0306L13.4318 19.3855L15.3314 19.3855L16.2813 21.0306L15.3314 22.6758L13.4318 22.6758L12.4819 21.0306Z" stroke="#C98D47" stroke-width="0.3"/>
<path d="M3.94481 39.1244L4.89464 37.4792L6.79431 37.4792L7.74414 39.1244L6.79431 40.7695L4.89464 40.7695L3.94481 39.1244Z" stroke="#C98D47" stroke-width="0.3"/>
<path d="M3.94481 32.5453L4.89464 30.9001L6.79431 30.9001L7.74414 32.5453L6.79431 34.1904L4.89464 34.1904L3.94481 32.5453Z" stroke="#C98D47" stroke-width="0.3"/>
<path d="M3.94481 25.9662L4.89464 24.321L6.79431 24.321L7.74414 25.9662L6.79431 27.6113L4.89464 27.6113L3.94481 25.9662Z" stroke="#C98D47" stroke-width="0.3"/>
<path d="M15.3315 39.1244L16.2814 37.4792L18.181 37.4792L19.1309 39.1244L18.181 40.7695L16.2814 40.7695L15.3315 39.1244Z" stroke="#C98D47" stroke-width="0.3"/>
<path d="M15.3315 32.5453L16.2814 30.9001L18.181 30.9001L19.1309 32.5453L18.181 34.1904L16.2814 34.1904L15.3315 32.5453Z" stroke="#C98D47" stroke-width="0.3"/>
<path d="M15.3315 25.9662L16.2814 24.321L18.181 24.321L19.1309 25.9662L18.181 27.6113L16.2814 27.6113L15.3315 25.9662Z" stroke="#C98D47" stroke-width="0.3"/>
<path d="M9.63817 39.1244L10.588 37.4792L12.4877 37.4792L13.4375 39.1244L12.4877 40.7695L10.588 40.7695L9.63817 39.1244Z" stroke="#C98D47" stroke-width="0.3"/>
<path d="M9.63817 32.5453L10.588 30.9001L12.4877 30.9001L13.4375 32.5453L12.4877 34.1904L10.588 34.1904L9.63817 32.5453Z" stroke="#C98D47" stroke-width="0.3"/>
<path d="M9.63817 25.9662L10.588 24.321L12.4877 24.321L13.4375 25.9662L12.4877 27.6113L10.588 27.6113L9.63817 25.9662Z" stroke="#C98D47" stroke-width="0.3"/>
<path d="M21.0249 35.8334L21.9747 34.1882L23.8744 34.1882L24.8242 35.8334L23.8744 37.4785L21.9747 37.4785L21.0249 35.8334Z" stroke="#C98D47" stroke-width="0.3"/>
<path d="M21.0249 29.2543L21.9747 27.6091L23.8744 27.6091L24.8242 29.2543L23.8744 30.8994L21.9747 30.8994L21.0249 29.2543Z" stroke="#C98D47" stroke-width="0.3"/>
<path d="M21.0249 22.6752L21.9747 21.03L23.8744 21.03L24.8242 22.6752L23.8744 24.3203L21.9747 24.3203L21.0249 22.6752Z" stroke="#C98D47" stroke-width="0.3"/>
<path d="M32.4116 35.8334L33.3614 34.1882L35.2611 34.1882L36.2109 35.8334L35.2611 37.4785L33.3614 37.4785L32.4116 35.8334Z" stroke="#C98D47" stroke-width="0.3"/>
<path d="M32.4116 29.2543L33.3614 27.6091L35.2611 27.6091L36.2109 29.2543L35.2611 30.8994L33.3614 30.8994L32.4116 29.2543Z" stroke="#C98D47" stroke-width="0.3"/>
<path d="M32.4116 22.6752L33.3614 21.03L35.2611 21.03L36.2109 22.6752L35.2611 24.3203L33.3614 24.3203L32.4116 22.6752Z" stroke="#C98D47" stroke-width="0.3"/>
<path d="M26.7182 35.8334L27.6681 34.1882L29.5677 34.1882L30.5176 35.8334L29.5677 37.4785L27.6681 37.4785L26.7182 35.8334Z" stroke="#C98D47" stroke-width="0.3"/>
<path d="M26.7182 29.2543L27.6681 27.6091L29.5677 27.6091L30.5176 29.2543L29.5677 30.8994L27.6681 30.8994L26.7182 29.2543Z" stroke="#C98D47" stroke-width="0.3"/>
<path d="M26.7182 22.6752L27.6681 21.03L29.5677 21.03L30.5176 22.6752L29.5677 24.3203L27.6681 24.3203L26.7182 22.6752Z" stroke="#C98D47" stroke-width="0.3"/>
<path d="M23.8686 37.4798L24.8185 35.8347L26.7181 35.8347L27.668 37.4798L26.7181 39.125L24.8185 39.125L23.8686 37.4798Z" stroke="#C98D47" stroke-width="0.3"/>
<path d="M23.8686 30.9007L24.8185 29.2556L26.7181 29.2556L27.668 30.9007L26.7181 32.5459L24.8185 32.5459L23.8686 30.9007Z" stroke="#C98D47" stroke-width="0.3"/>
<path d="M23.8686 24.3216L24.8185 22.6765L26.7181 22.6765L27.668 24.3216L26.7181 25.9668L24.8185 25.9668L23.8686 24.3216Z" stroke="#C98D47" stroke-width="0.3"/>
<path d="M35.2554 37.4798L36.2052 35.8347L38.1049 35.8347L39.0547 37.4798L38.1049 39.125L36.2052 39.125L35.2554 37.4798Z" stroke="#C98D47" stroke-width="0.3"/>
<path d="M35.2554 30.9007L36.2052 29.2556L38.1049 29.2556L39.0547 30.9007L38.1049 32.5459L36.2052 32.5459L35.2554 30.9007Z" stroke="#C98D47" stroke-width="0.3"/>
<path d="M35.2554 24.3216L36.2052 22.6765L38.1049 22.6765L39.0547 24.3216L38.1049 25.9668L36.2052 25.9668L35.2554 24.3216Z" stroke="#C98D47" stroke-width="0.3"/>
<path d="M29.562 37.4798L30.5118 35.8347L32.4115 35.8347L33.3613 37.4798L32.4115 39.125L30.5118 39.125L29.562 37.4798Z" stroke="#C98D47" stroke-width="0.3"/>
<path d="M29.562 30.9007L30.5118 29.2556L32.4115 29.2556L33.3613 30.9007L32.4115 32.5459L30.5118 32.5459L29.562 30.9007Z" stroke="#C98D47" stroke-width="0.3"/>
<path d="M29.562 24.3216L30.5118 22.6765L32.4115 22.6765L33.3613 24.3216L32.4115 25.9668L30.5118 25.9668L29.562 24.3216Z" stroke="#C98D47" stroke-width="0.3"/>
<path d="M23.8686 40.7679L24.8185 39.1228L26.7181 39.1228L27.668 40.7679L26.7181 42.4131L24.8185 42.4131L23.8686 40.7679Z" stroke="#C98D47" stroke-width="0.3"/>
<path d="M23.8686 34.1888L24.8185 32.5437L26.7181 32.5437L27.668 34.1888L26.7181 35.834L24.8185 35.834L23.8686 34.1888Z" stroke="#C98D47" stroke-width="0.3"/>
<path d="M23.8686 27.6097L24.8185 25.9646L26.7181 25.9646L27.668 27.6097L26.7181 29.2549L24.8185 29.2549L23.8686 27.6097Z" stroke="#C98D47" stroke-width="0.3"/>
<path d="M23.8686 21.0306L24.8185 19.3855L26.7181 19.3855L27.668 21.0306L26.7181 22.6758L24.8185 22.6758L23.8686 21.0306Z" stroke="#C98D47" stroke-width="0.3"/>
<path d="M35.2554 40.7679L36.2052 39.1228L38.1049 39.1228L39.0547 40.7679L38.1049 42.4131L36.2052 42.4131L35.2554 40.7679Z" stroke="#C98D47" stroke-width="0.3"/>
<path d="M35.2554 34.1888L36.2052 32.5437L38.1049 32.5437L39.0547 34.1888L38.1049 35.834L36.2052 35.834L35.2554 34.1888Z" stroke="#C98D47" stroke-width="0.3"/>
<path d="M35.2554 27.6097L36.2052 25.9646L38.1049 25.9646L39.0547 27.6097L38.1049 29.2549L36.2052 29.2549L35.2554 27.6097Z" stroke="#C98D47" stroke-width="0.3"/>
<path d="M35.2554 21.0306L36.2052 19.3855L38.1049 19.3855L39.0547 21.0306L38.1049 22.6758L36.2052 22.6758L35.2554 21.0306Z" stroke="#C98D47" stroke-width="0.3"/>
<path d="M29.562 40.7679L30.5118 39.1228L32.4115 39.1228L33.3613 40.7679L32.4115 42.4131L30.5118 42.4131L29.562 40.7679Z" stroke="#C98D47" stroke-width="0.3"/>
<path d="M29.562 34.1888L30.5118 32.5437L32.4115 32.5437L33.3613 34.1888L32.4115 35.834L30.5118 35.834L29.562 34.1888Z" stroke="#C98D47" stroke-width="0.3"/>
<path d="M29.562 27.6097L30.5118 25.9646L32.4115 25.9646L33.3613 27.6097L32.4115 29.2549L30.5118 29.2549L29.562 27.6097Z" stroke="#C98D47" stroke-width="0.3"/>
<path d="M29.562 21.0306L30.5118 19.3855L32.4115 19.3855L33.3613 21.0306L32.4115 22.6758L30.5118 22.6758L29.562 21.0306Z" stroke="#C98D47" stroke-width="0.3"/>
<path d="M21.0249 39.1244L21.9747 37.4792L23.8744 37.4792L24.8242 39.1244L23.8744 40.7695L21.9747 40.7695L21.0249 39.1244Z" stroke="#C98D47" stroke-width="0.3"/>
<path d="M21.0249 32.5453L21.9747 30.9001L23.8744 30.9001L24.8242 32.5453L23.8744 34.1904L21.9747 34.1904L21.0249 32.5453Z" stroke="#C98D47" stroke-width="0.3"/>
<path d="M21.0249 25.9662L21.9747 24.321L23.8744 24.321L24.8242 25.9662L23.8744 27.6113L21.9747 27.6113L21.0249 25.9662Z" stroke="#C98D47" stroke-width="0.3"/>
<path d="M32.4116 39.1244L33.3614 37.4792L35.2611 37.4792L36.2109 39.1244L35.2611 40.7695L33.3614 40.7695L32.4116 39.1244Z" stroke="#C98D47" stroke-width="0.3"/>
<path d="M32.4116 32.5453L33.3614 30.9001L35.2611 30.9001L36.2109 32.5453L35.2611 34.1904L33.3614 34.1904L32.4116 32.5453Z" stroke="#C98D47" stroke-width="0.3"/>
<path d="M32.4116 25.9662L33.3614 24.321L35.2611 24.321L36.2109 25.9662L35.2611 27.6113L33.3614 27.6113L32.4116 25.9662Z" stroke="#C98D47" stroke-width="0.3"/>
<path d="M26.7182 39.1244L27.6681 37.4792L29.5677 37.4792L30.5176 39.1244L29.5677 40.7695L27.6681 40.7695L26.7182 39.1244Z" stroke="#C98D47" stroke-width="0.3"/>
<path d="M26.7182 32.5453L27.6681 30.9001L29.5677 30.9001L30.5176 32.5453L29.5677 34.1904L27.6681 34.1904L26.7182 32.5453Z" stroke="#C98D47" stroke-width="0.3"/>
<path d="M26.7182 25.9662L27.6681 24.321L29.5677 24.321L30.5176 25.9662L29.5677 27.6113L27.6681 27.6113L26.7182 25.9662Z" stroke="#C98D47" stroke-width="0.3"/>
<path d="M38.105 35.8334L39.0548 34.1882L40.9545 34.1882L41.9043 35.8334L40.9545 37.4785L39.0548 37.4785L38.105 35.8334Z" stroke="#C98D47" stroke-width="0.3"/>
<path d="M38.105 29.2543L39.0548 27.6091L40.9545 27.6091L41.9043 29.2543L40.9545 30.8994L39.0548 30.8994L38.105 29.2543Z" stroke="#C98D47" stroke-width="0.3"/>
<path d="M38.105 22.6752L39.0548 21.03L40.9545 21.03L41.9043 22.6752L40.9545 24.3203L39.0548 24.3203L38.105 22.6752Z" stroke="#C98D47" stroke-width="0.3"/>
<path d="M40.9487 37.4798L41.8985 35.8347L43.7982 35.8347L44.748 37.4798L43.7982 39.125L41.8985 39.125L40.9487 37.4798Z" stroke="#C98D47" stroke-width="0.3"/>
<path d="M40.9487 30.9007L41.8985 29.2556L43.7982 29.2556L44.748 30.9007L43.7982 32.5459L41.8985 32.5459L40.9487 30.9007Z" stroke="#C98D47" stroke-width="0.3"/>
<path d="M40.9487 24.3216L41.8985 22.6765L43.7982 22.6765L44.748 24.3216L43.7982 25.9668L41.8985 25.9668L40.9487 24.3216Z" stroke="#C98D47" stroke-width="0.3"/>
<path d="M40.9487 40.7679L41.8985 39.1228L43.7982 39.1228L44.748 40.7679L43.7982 42.4131L41.8985 42.4131L40.9487 40.7679Z" stroke="#C98D47" stroke-width="0.3"/>
<path d="M40.9487 34.1888L41.8985 32.5437L43.7982 32.5437L44.748 34.1888L43.7982 35.834L41.8985 35.834L40.9487 34.1888Z" stroke="#C98D47" stroke-width="0.3"/>
<path d="M40.9487 27.6097L41.8985 25.9646L43.7982 25.9646L44.748 27.6097L43.7982 29.2549L41.8985 29.2549L40.9487 27.6097Z" stroke="#C98D47" stroke-width="0.3"/>
<path d="M40.9487 21.0306L41.8985 19.3855L43.7982 19.3855L44.748 21.0306L43.7982 22.6758L41.8985 22.6758L40.9487 21.0306Z" stroke="#C98D47" stroke-width="0.3"/>
<path d="M38.105 39.1244L39.0548 37.4792L40.9545 37.4792L41.9043 39.1244L40.9545 40.7695L39.0548 40.7695L38.105 39.1244Z" stroke="#C98D47" stroke-width="0.3"/>
<path d="M38.105 32.5453L39.0548 30.9001L40.9545 30.9001L41.9043 32.5453L40.9545 34.1904L39.0548 34.1904L38.105 32.5453Z" stroke="#C98D47" stroke-width="0.3"/>
<path d="M38.105 25.9662L39.0548 24.321L40.9545 24.321L41.9043 25.9662L40.9545 27.6113L39.0548 27.6113L38.105 25.9662Z" stroke="#C98D47" stroke-width="0.3"/>
</g>
</svg>
