<svg width="24" height="24" viewBox="0 0 24 24" fill="none" xmlns="http://www.w3.org/2000/svg">
<path d="M0 1C0 0.447716 0.447715 0 1 0H18.4854C18.8083 0 19.1114 0.155966 19.2991 0.418762L23.8137 6.73923C23.9349 6.90883 24 7.11204 24 7.32047V23C24 23.5523 23.5523 24 23 24H1C0.447716 24 0 23.5523 0 23V1Z" fill="#FA00FF"/>
<path d="M0.5 1C0.5 0.723858 0.723858 0.5 1 0.5H18.4854C18.6469 0.5 18.7984 0.577983 18.8923 0.709381L23.4069 7.02985C23.4674 7.11465 23.5 7.21625 23.5 7.32047V23C23.5 23.2761 23.2761 23.5 23 23.5H1C0.723858 23.5 0.5 23.2761 0.5 23V1Z" stroke="white" stroke-opacity="0.45"/>
<g clipPath="url(#clip0_1605_6526)">
<path d="M18.4609 7.68242C18.7266 7.92721 18.7266 8.32305 18.4609 8.5444L11.5859 15.4194C11.3646 15.685 10.9688 15.685 10.724 15.4194L7.18305 11.8777C6.93898 11.6564 6.93898 11.2605 7.18305 11.0158C7.42708 10.7736 7.82292 10.7736 8.06693 11.0158L11.1667 14.1173L17.599 7.68242C17.8438 7.43919 18.2396 7.43919 18.4609 7.68242Z" fill="white"/>
</g>
<defs>
<clipPath id="clip0_1605_6526">
<rect width="11.6667" height="13.3333" fill="white" transform="translate(7 5)"/>
</clipPath>
</defs>
</svg>
