<svg xmlns="http://www.w3.org/2000/svg" width="7" height="7" viewBox="0 0 7 7" fill="none">
    <path d="M4.655 3.50022L6.82055 1.33468C7.05982 1.09541 7.05982 0.707492 6.82055 0.468596L6.53185 0.179901C6.29251 -0.0594437 5.90459 -0.0594437 5.66569 0.179901L3.50022 2.34537L1.33468 0.179453C1.09541 -0.0598176 0.707492 -0.0598176 0.468596 0.179453L0.179453 0.468147C-0.0598176 0.707492 -0.0598176 1.09541 0.179453 1.33431L2.34537 3.50022L0.179901 5.66569C-0.0594437 5.90504 -0.0594437 6.29296 0.179901 6.53185L0.468596 6.82055C0.707866 7.05982 1.09578 7.05982 1.33468 6.82055L3.50022 4.655L5.66569 6.82055C5.90504 7.05982 6.29296 7.05982 6.53185 6.82055L6.82055 6.53185C7.05982 6.29251 7.05982 5.90459 6.82055 5.66569L4.655 3.50022Z" fill="#6E7282"/>
</svg>