<svg width="18" height="20" viewBox="0 0 18 20" fill="none" xmlns="http://www.w3.org/2000/svg">
<g clip-path="url(#clip0_744_93476)">
<path d="M5.5 0C6.19141 0 6.75 0.558594 6.75 1.25V2.5H11.75V1.25C11.75 0.558594 12.3086 0 13 0C13.6914 0 14.25 0.558594 14.25 1.25V2.5H16.125C17.1602 2.5 18 3.33984 18 4.375V6.25H0.5V4.375C0.5 3.33984 1.33984 2.5 2.375 2.5H4.25V1.25C4.25 0.558594 4.80859 0 5.5 0ZM0.5 7.5H18V18.125C18 19.1602 17.1602 20 16.125 20H2.375C1.33984 20 0.5 19.1602 0.5 18.125V7.5ZM3 10.625V11.875C3 12.2188 3.28125 12.5 3.625 12.5H4.875C5.21875 12.5 5.5 12.2188 5.5 11.875V10.625C5.5 10.2812 5.21875 10 4.875 10H3.625C3.28125 10 3 10.2812 3 10.625ZM8 10.625V11.875C8 12.2188 8.28125 12.5 8.625 12.5H9.875C10.2188 12.5 10.5 12.2188 10.5 11.875V10.625C10.5 10.2812 10.2188 10 9.875 10H8.625C8.28125 10 8 10.2812 8 10.625ZM13.625 10C13.2812 10 13 10.2812 13 10.625V11.875C13 12.2188 13.2812 12.5 13.625 12.5H14.875C15.2188 12.5 15.5 12.2188 15.5 11.875V10.625C15.5 10.2812 15.2188 10 14.875 10H13.625ZM3 15.625V16.875C3 17.2188 3.28125 17.5 3.625 17.5H4.875C5.21875 17.5 5.5 17.2188 5.5 16.875V15.625C5.5 15.2812 5.21875 15 4.875 15H3.625C3.28125 15 3 15.2812 3 15.625ZM8.625 15C8.28125 15 8 15.2812 8 15.625V16.875C8 17.2188 8.28125 17.5 8.625 17.5H9.875C10.2188 17.5 10.5 17.2188 10.5 16.875V15.625C10.5 15.2812 10.2188 15 9.875 15H8.625ZM13 15.625V16.875C13 17.2188 13.2812 17.5 13.625 17.5H14.875C15.2188 17.5 15.5 17.2188 15.5 16.875V15.625C15.5 15.2812 15.2188 15 14.875 15H13.625C13.2812 15 13 15.2812 13 15.625Z" fill="#615F77"/>
</g>
<defs>
<clipPath id="clip0_744_93476">
<rect width="17.5" height="20" fill="white" transform="translate(0.5)"/>
</clipPath>
</defs>
</svg>
