<svg width="16" height="15" viewBox="0 0 16 15" fill="none" xmlns="http://www.w3.org/2000/svg">
<path d="M6.28844 3.95924C6.86995 3.75712 7.44556 3.65469 7.9998 3.65469C11.1436 3.65469 13.9107 6.91045 14.7447 7.994C14.4462 8.38331 13.9 9.05126 13.1796 9.74432C12.9533 9.96253 12.9356 10.3346 13.1402 10.5759C13.2496 10.7043 13.3996 10.7698 13.5503 10.7698C13.6826 10.7698 13.8153 10.7196 13.921 10.6179C15.1272 9.45666 15.8635 8.3841 15.8944 8.33896C16.0352 8.13293 16.0352 7.85351 15.8944 7.64708C15.7503 7.43673 12.3188 2.47735 7.9998 2.47735C7.32911 2.47735 6.63816 2.5994 5.94572 2.83997C5.65534 2.94083 5.49688 3.27323 5.59195 3.58209C5.68629 3.89173 5.99916 4.06088 6.28844 3.95924ZM0.915913 0.144631C0.685962 -0.0684684 0.336613 -0.0433517 0.136143 0.201929C-0.0646956 0.446817 -0.0403739 0.818466 0.189577 1.03235L3.53824 4.14015C1.50406 5.62047 0.165992 7.55917 0.105557 7.64786C-0.0348462 7.8539 -0.0348462 8.13332 0.105557 8.33975C0.249276 8.5505 3.68085 13.5099 7.9998 13.5099C9.33382 13.5099 10.7143 13.0291 12.1069 12.0923L15.0837 14.8552C15.1884 14.9525 15.3177 15 15.4463 15C15.6007 15 15.754 14.9317 15.8635 14.7979C16.0639 14.553 16.04 14.181 15.8097 13.9675L0.915913 0.144631ZM6.53645 6.92222L9.01726 9.22472C8.72725 9.45862 8.37126 9.59284 7.9998 9.59284C7.07042 9.59284 6.31387 8.78714 6.31387 7.79739C6.31387 7.48343 6.39604 7.18713 6.53645 6.92222ZM7.9998 12.3325C4.85604 12.3325 2.08925 9.07716 1.25531 7.99322C1.74396 7.35706 2.90145 5.97799 4.40535 4.94467L5.68629 6.13379C5.376 6.62043 5.20796 7.19301 5.20796 7.79739C5.20796 9.43664 6.46017 10.7702 7.99944 10.7702C8.69187 10.7702 9.35335 10.4915 9.86079 10.008L11.2342 11.2827C10.1206 11.9778 9.03458 12.3325 7.9998 12.3325Z" fill="#54565E"/>
</svg>
