<svg width="20" height="18" viewBox="0 0 20 18" fill="none" xmlns="http://www.w3.org/2000/svg">
<g clipPath="url(#clip0_418_75212)">
<path d="M9.99913 1.22223C7.19358 1.22223 4.94705 2.50001 3.31163 4.02084C1.68663 5.52778 0.599826 7.33334 0.0859375 8.57292C-0.0286458 8.84723 -0.0286458 9.15278 0.0859375 9.42709C0.599826 10.6667 1.68663 12.4722 3.31163 13.9792C4.94705 15.5 7.19358 16.7778 9.99913 16.7778C12.8047 16.7778 15.0512 15.5 16.6866 13.9792C18.3116 12.4688 19.3984 10.6667 19.9158 9.42709C20.0304 9.15278 20.0304 8.84723 19.9158 8.57292C19.3984 7.33334 18.3116 5.52778 16.6866 4.02084C15.0512 2.50001 12.8047 1.22223 9.99913 1.22223ZM14.9991 9.00001C14.9991 11.7604 12.7595 14 9.99913 14C7.23872 14 4.99913 11.7604 4.99913 9.00001C4.99913 6.23959 7.23872 4.00001 9.99913 4.00001C12.7595 4.00001 14.9991 6.23959 14.9991 9.00001ZM9.99913 6.77778C9.99913 8.00348 9.0026 9.00001 7.77691 9.00001C7.3776 9.00001 7.0026 8.89584 6.67969 8.70834C6.67274 8.80556 6.6658 8.89931 6.6658 9.00001C6.6658 10.8403 8.15885 12.3333 9.99913 12.3333C11.8394 12.3333 13.3325 10.8403 13.3325 9.00001C13.3325 7.15973 11.8394 5.66667 9.99913 5.66667C9.90191 5.66667 9.80469 5.67015 9.70747 5.68056C9.89149 6.00348 9.99913 6.37848 9.99913 6.77778Z" fill="#615F77"/>
</g>
<defs>
<clipPath id="clip0_418_75212">
<rect width="20" height="17.7778" fill="white" transform="translate(0 0.111115)"/>
</clipPath>
</defs>
</svg>
