<svg width="32" height="32" viewBox="0 0 32 32" fill="none" xmlns="http://www.w3.org/2000/svg">
<g filter="url(#filter0_ii_1627_10883)">
<circle cx="16" cy="16" r="16" fill="#131627"/>
</g>
<circle cx="16" cy="16" r="15.5" stroke="#6E85CF"/>
<g filter="url(#filter1_d_1627_10883)">
<path d="M16.8355 11.6602C16.5875 11.6602 16.3509 11.618 16.1255 11.5335C15.9001 11.442 15.7047 11.3188 15.5394 11.1639C15.3741 11.0161 15.2426 10.8366 15.145 10.6254C15.0548 10.4142 15.0097 10.1925 15.0097 9.96019C15.0097 9.72789 15.0548 9.50616 15.145 9.29498C15.2426 9.0838 15.3741 8.89725 15.5394 8.73535C15.7047 8.57344 15.9001 8.45025 16.1255 8.36578C16.3509 8.27427 16.5875 8.22852 16.8355 8.22852C17.0834 8.22852 17.3201 8.27427 17.5455 8.36578C17.7709 8.45025 17.97 8.57344 18.1428 8.73535C18.3156 8.89725 18.4471 9.0838 18.5373 9.29498C18.6349 9.50616 18.6838 9.72789 18.6838 9.96019C18.6838 10.1925 18.6349 10.4142 18.5373 10.6254C18.4471 10.8366 18.3156 11.0161 18.1428 11.1639C17.97 11.3188 17.7709 11.442 17.5455 11.5335C17.3201 11.618 17.0834 11.6602 16.8355 11.6602ZM15.2689 23.7714C14.5326 23.7714 13.9503 23.5672 13.5221 23.159C13.0412 22.7084 12.8008 22.0503 12.8008 21.1844C12.8008 20.7761 12.8609 20.3045 12.9811 19.7695L14.5476 12.8322H17.8723L16.2156 20.1813C16.1555 20.3643 16.1255 20.5966 16.1255 20.8782C16.1255 21.1739 16.1968 21.3815 16.3396 21.5012C16.4899 21.6209 16.7303 21.6807 17.0609 21.6807C17.2863 21.6807 17.5042 21.6349 17.7145 21.5434C17.9324 21.4449 18.1315 21.3111 18.3119 21.1422C18.68 20.7973 18.958 20.3397 19.1458 19.7695H20.1151C19.7018 20.8606 19.1834 21.73 18.5598 22.3776C18.0339 22.9055 17.4403 23.2857 16.7791 23.518C16.2983 23.6869 15.7949 23.7714 15.2689 23.7714Z" fill="white"/>
</g>
<defs>
<filter id="filter0_ii_1627_10883" x="-2" y="-3" width="35" height="37" filterUnits="userSpaceOnUse" colorInterpolationFilters="sRGB">
<feFlood floodOpacity="0" result="BackgroundImageFix"/>
<feBlend mode="normal" in="SourceGraphic" in2="BackgroundImageFix" result="shape"/>
<feColorMatrix in="SourceAlpha" type="matrix" values="0 0 0 0 0 0 0 0 0 0 0 0 0 0 0 0 0 0 127 0" result="hardAlpha"/>
<feOffset dx="-2" dy="-3"/>
<feGaussianBlur stdDeviation="2"/>
<feComposite in2="hardAlpha" operator="arithmetic" k2="-1" k3="1"/>
<feColorMatrix type="matrix" values="0 0 0 0 0.132917 0 0 0 0 0.166607 0 0 0 0 0.275 0 0 0 1 0"/>
<feBlend mode="normal" in2="shape" result="effect1_innerShadow_1627_10883"/>
<feColorMatrix in="SourceAlpha" type="matrix" values="0 0 0 0 0 0 0 0 0 0 0 0 0 0 0 0 0 0 127 0" result="hardAlpha"/>
<feOffset dx="1" dy="2"/>
<feGaussianBlur stdDeviation="3"/>
<feComposite in2="hardAlpha" operator="arithmetic" k2="-1" k3="1"/>
<feColorMatrix type="matrix" values="0 0 0 0 0 0 0 0 0 0 0 0 0 0 0 0 0 0 1 0"/>
<feBlend mode="normal" in2="effect1_innerShadow_1627_10883" result="effect2_innerShadow_1627_10883"/>
</filter>
<filter id="filter1_d_1627_10883" x="8.80078" y="8.22852" width="15.3125" height="23.5428" filterUnits="userSpaceOnUse" colorInterpolationFilters="sRGB">
<feFlood floodOpacity="0" result="BackgroundImageFix"/>
<feColorMatrix in="SourceAlpha" type="matrix" values="0 0 0 0 0 0 0 0 0 0 0 0 0 0 0 0 0 0 127 0" result="hardAlpha"/>
<feOffset dy="4"/>
<feGaussianBlur stdDeviation="2"/>
<feComposite in2="hardAlpha" operator="out"/>
<feColorMatrix type="matrix" values="0 0 0 0 0 0 0 0 0 0 0 0 0 0 0 0 0 0 0.5 0"/>
<feBlend mode="normal" in2="BackgroundImageFix" result="effect1_dropShadow_1627_10883"/>
<feBlend mode="normal" in="SourceGraphic" in2="effect1_dropShadow_1627_10883" result="shape"/>
</filter>
</defs>
</svg>
