<svg width="139" height="18" viewBox="0 0 139 18" fill="none" xmlns="http://www.w3.org/2000/svg">
<path d="M16.3086 15.0499V2.94999L19.0086 0.25H28.1085L30.8085 2.94999V15.0499L28.1085 17.7499H19.0086L16.3086 15.0499ZM19.9586 3.34998V14.6499H27.1585V3.34998H19.9586Z" fill="white"/>
<path d="M33.3007 15.0499V2.94999L36.0007 0.25H44.9506L42.701 3.47498H36.9507V14.5249H45.2006V17.7499H36.0007L33.3007 15.0499Z" fill="white"/>
<path d="M47.1934 17.7499V0.25H50.7434V7.32497H53.7684L57.5933 0.25H61.5683L56.9183 8.49996L61.9433 17.7499H57.9683L54.0434 10.425H50.7434V17.7499H47.1934Z" fill="white"/>
<path d="M63.3554 17.7499V0.25H75.5554V3.24998H66.9054V7.34997H74.3054V10.25H66.9054V14.7499H75.8054V17.7499H63.3554Z" fill="white"/>
<path d="M81.8823 17.7499V3.34998H77.0573V0.25H90.2572V3.34998H85.4323V17.7499H81.8823Z" fill="white"/>
<path fill-rule="evenodd" clip-rule="evenodd" d="M109.4 0.436865V0.25H105.1L100.95 8.34996L96.8 0.25H92.5V17.7499H95.975V4.72498L100.1 12.6499H101.8L105.925 4.72498V4.80007L105.948 4.74995L107.198 4.75006L109.4 0.436865Z" fill="#FA00FF"/>
<path fill-rule="evenodd" clip-rule="evenodd" d="M127.048 13.6721V5.3751L134.373 17.75H138.098V0.250122H134.748V12.6251L127.423 0.250122H123.698V6.1834L127.048 13.6721Z" fill="#FA00FF"/>
<path fill-rule="evenodd" clip-rule="evenodd" d="M122.306 17.75H126.024L118.2 0.250061L113.379 0.250087L120.266 13.75H120.274L121.369 15.9132L122.306 17.75ZM116.953 13.75L110.45 13.75L108.45 17.75H104.725L111.424 2.91088L116.953 13.75Z" fill="#FA00FF"/>
<path d="M10.2999 3.14999V9.54995H0V17.7499H3.54998V12.4499H8.62496L11.0499 17.7499H14.9749L11.9499 11.5749L13.8499 9.67495V2.94999L11.1499 0.25H0V3.14999H10.2999Z" fill="white"/>
</svg>
