<svg width="373" height="370" viewBox="0 0 373 370" fill="none" xmlns="http://www.w3.org/2000/svg">
<g filter="url(#filter0_f_6456_58422)">
<g filter="url(#filter1_b_6456_58422)">
<path d="M196.171 333.639C194.251 335.624 191.086 335.678 189.1 333.759L37.3529 187.061C35.3675 185.142 35.3139 181.977 37.2332 179.991L58.2622 158.238L217.199 311.886L196.171 333.639Z" fill="url(#paint0_linear_6456_58422)"/>
<path d="M195.452 332.944C193.916 334.532 191.384 334.575 189.796 333.04L38.0479 186.342C36.4596 184.807 36.4168 182.275 37.9522 180.686L58.2861 159.652L215.785 311.91L195.452 332.944Z" stroke="url(#paint1_linear_6456_58422)" stroke-width="2"/>
</g>
<g filter="url(#filter2_b_6456_58422)">
<path d="M175.982 36.4654C177.901 34.4801 181.066 34.4265 183.052 36.3458L334.799 183.043C336.785 184.962 336.838 188.128 334.919 190.113L313.89 211.866L154.953 58.2184L175.982 36.4654Z" fill="url(#paint2_linear_6456_58422)"/>
<path d="M176.701 37.1605C178.236 35.5722 180.769 35.5293 182.357 37.0648L334.104 183.762C335.693 185.297 335.736 187.83 334.2 189.418L313.866 210.452L156.367 58.1944L176.701 37.1605Z" stroke="url(#paint3_linear_6456_58422)" stroke-width="2"/>
</g>
<mask id="path-5-inside-1_6456_58422" fill="white">
<path fill-rule="evenodd" clip-rule="evenodd" d="M10.1897 164.777C6.21894 160.938 6.11182 154.608 9.95043 150.637L145.724 10.1895C149.562 6.21876 155.893 6.11163 159.864 9.95024L232.05 79.7337C234.403 82.0089 235.494 85.2919 234.97 88.5233L234.599 90.8117C234.076 94.043 235.167 97.326 237.52 99.6012L252.946 114.513C252.946 114.513 252.946 114.514 252.946 114.514C252.946 114.514 252.946 114.514 252.946 114.514L270.426 131.413C272.78 133.688 276.098 134.667 279.31 134.034L281.585 133.586C284.796 132.953 288.114 133.933 290.468 136.208L361.968 205.328C365.939 209.167 366.046 215.498 362.207 219.468L226.434 359.916C222.595 363.886 216.265 363.994 212.294 360.155L140.793 291.034C138.44 288.759 137.349 285.476 137.873 282.245L138.243 279.957C138.767 276.726 137.676 273.443 135.323 271.168L117.842 254.269C117.842 254.269 117.842 254.269 117.842 254.269C117.842 254.269 117.842 254.269 117.842 254.269L102.417 239.357C100.063 237.082 96.7449 236.102 93.5332 236.735L91.2597 237.183C88.0479 237.816 84.7298 236.836 82.3763 234.561L10.1897 164.777Z"/>
</mask>
<g filter="url(#filter3_i_6456_58422)">
<path fill-rule="evenodd" clip-rule="evenodd" d="M10.1897 164.777C6.21894 160.938 6.11182 154.608 9.95043 150.637L145.724 10.1895C149.562 6.21876 155.893 6.11163 159.864 9.95024L232.05 79.7337C234.403 82.0089 235.494 85.2919 234.97 88.5233L234.599 90.8117C234.076 94.043 235.167 97.326 237.52 99.6012L252.946 114.513C252.946 114.513 252.946 114.514 252.946 114.514C252.946 114.514 252.946 114.514 252.946 114.514L270.426 131.413C272.78 133.688 276.098 134.667 279.31 134.034L281.585 133.586C284.796 132.953 288.114 133.933 290.468 136.208L361.968 205.328C365.939 209.167 366.046 215.498 362.207 219.468L226.434 359.916C222.595 363.886 216.265 363.994 212.294 360.155L140.793 291.034C138.44 288.759 137.349 285.476 137.873 282.245L138.243 279.957C138.767 276.726 137.676 273.443 135.323 271.168L117.842 254.269C117.842 254.269 117.842 254.269 117.842 254.269C117.842 254.269 117.842 254.269 117.842 254.269L102.417 239.357C100.063 237.082 96.7449 236.102 93.5332 236.735L91.2597 237.183C88.0479 237.816 84.7298 236.836 82.3763 234.561L10.1897 164.777Z" fill="#090E1C"/>
</g>
<path d="M91.2597 237.183L90.8731 235.221L91.2597 237.183ZM93.5332 236.735L93.9198 238.697L93.5332 236.735ZM117.842 254.269L119.232 252.831L117.842 254.269ZM117.842 254.269L119.232 252.831L117.842 254.269ZM138.243 279.957L136.269 279.637L138.243 279.957ZM137.873 282.245L139.847 282.565L137.873 282.245ZM281.585 133.586L281.198 131.624L281.585 133.586ZM279.31 134.034L279.696 135.997L279.31 134.034ZM234.599 90.8117L236.574 91.1317L234.599 90.8117ZM234.97 88.5233L232.996 88.2033L234.97 88.5233ZM144.286 8.79944L8.51249 149.247L11.3884 152.027L147.162 11.5796L144.286 8.79944ZM233.44 78.2958L161.254 8.5123L158.474 11.3882L230.66 81.1716L233.44 78.2958ZM236.574 91.1317L236.945 88.8432L232.996 88.2033L232.625 90.4917L236.574 91.1317ZM254.336 113.076L238.91 98.1633L236.13 101.039L251.556 115.951L254.336 113.076ZM271.816 129.975L254.336 113.076L251.556 115.952L269.036 132.85L271.816 129.975ZM281.198 131.624L278.923 132.072L279.696 135.997L281.971 135.548L281.198 131.624ZM363.358 203.89L291.858 134.77L289.078 137.646L360.578 206.766L363.358 203.89ZM227.872 361.306L363.645 220.858L360.769 218.078L224.996 358.526L227.872 361.306ZM139.403 292.472L210.904 361.593L213.684 358.717L142.184 289.596L139.403 292.472ZM139.847 282.565L140.218 280.277L136.269 279.637L135.898 281.925L139.847 282.565ZM136.713 269.73L119.232 252.831L116.452 255.707L133.933 272.605L136.713 269.73ZM119.232 252.831L103.807 237.919L101.026 240.795L116.452 255.707L119.232 252.831ZM93.1466 234.773L90.8731 235.221L91.6462 239.145L93.9198 238.697L93.1466 234.773ZM8.79961 166.215L80.9862 235.999L83.7664 233.123L11.5798 163.339L8.79961 166.215ZM90.8731 235.221C88.3037 235.727 85.6492 234.943 83.7664 233.123L80.9862 235.999C83.8105 238.729 87.7922 239.905 91.6462 239.145L90.8731 235.221ZM103.807 237.919C100.982 235.189 97.0007 234.014 93.1466 234.773L93.9198 238.697C96.4892 238.191 99.1436 238.975 101.026 240.795L103.807 237.919ZM116.404 252.879C117.172 252.085 118.438 252.063 119.232 252.831L116.452 255.707C117.246 256.474 118.512 256.453 119.28 255.659L116.404 252.879ZM119.232 252.831C118.424 252.049 117.158 252.099 116.404 252.879L119.28 255.659C118.526 256.438 117.261 256.488 116.452 255.707L119.232 252.831ZM140.218 280.277C140.846 276.399 139.537 272.46 136.713 269.73L133.933 272.605C135.815 274.426 136.688 277.052 136.269 279.637L140.218 280.277ZM142.184 289.596C140.301 287.776 139.428 285.15 139.847 282.565L135.898 281.925C135.27 285.802 136.579 289.742 139.403 292.472L142.184 289.596ZM224.996 358.526C221.925 361.702 216.861 361.788 213.684 358.717L210.904 361.593C215.669 366.199 223.266 366.071 227.872 361.306L224.996 358.526ZM360.578 206.766C363.754 209.837 363.84 214.902 360.769 218.078L363.645 220.858C368.251 216.093 368.123 208.497 363.358 203.89L360.578 206.766ZM281.971 135.548C284.541 135.042 287.195 135.826 289.078 137.646L291.858 134.77C289.034 132.04 285.052 130.864 281.198 131.624L281.971 135.548ZM269.036 132.85C271.861 135.581 275.842 136.756 279.696 135.997L278.923 132.072C276.354 132.578 273.699 131.795 271.816 129.975L269.036 132.85ZM251.508 113.124C250.74 113.918 250.762 115.184 251.556 115.952L254.336 113.076C255.13 113.844 255.151 115.11 254.384 115.904L251.508 113.124ZM251.556 115.951C250.762 115.184 250.74 113.918 251.508 113.124L254.384 115.904C255.152 115.109 255.13 113.843 254.336 113.076L251.556 115.951ZM232.625 90.4917C231.997 94.3693 233.306 98.3089 236.13 101.039L238.91 98.1633C237.028 96.3432 236.155 93.7167 236.574 91.1317L232.625 90.4917ZM230.66 81.1716C232.542 82.9918 233.415 85.6182 232.996 88.2033L236.945 88.8432C237.573 84.9657 236.264 81.026 233.44 78.2958L230.66 81.1716ZM8.51249 149.247C3.90616 154.012 4.0347 161.609 8.79961 166.215L11.5798 163.339C8.40317 160.268 8.31748 155.204 11.3884 152.027L8.51249 149.247ZM147.162 11.5796C150.232 8.403 155.297 8.31729 158.474 11.3882L161.254 8.5123C156.489 3.90597 148.892 4.03453 144.286 8.79944L147.162 11.5796Z" fill="url(#paint4_linear_6456_58422)" mask="url(#path-5-inside-1_6456_58422)"/>
<mask id="mask0_6456_58422" style="mask-type:alpha" maskUnits="userSpaceOnUse" x="9" y="9" width="354" height="352">
<path fill-rule="evenodd" clip-rule="evenodd" d="M12.885 164.732C8.91425 160.893 8.80712 154.562 12.6457 150.592L145.77 12.8844C149.608 8.91364 155.939 8.8065 159.91 12.6451L231.055 81.422C233.402 83.6913 234.494 86.9636 233.979 90.1878L233.641 92.3046C233.127 95.5288 234.218 98.8012 236.566 101.07L253.789 117.72C253.789 117.72 253.789 117.72 253.789 117.72C253.789 117.72 253.789 117.72 253.789 117.72L268.982 132.407C271.329 134.677 274.637 135.657 277.842 135.034L279.946 134.624C283.15 134.001 286.458 134.981 288.805 137.251L359.274 205.374C363.245 209.212 363.352 215.543 359.513 219.514L226.389 357.221C222.55 361.192 216.22 361.299 212.249 357.46L141.781 289.338C139.434 287.069 138.342 283.797 138.857 280.572L139.195 278.454C139.709 275.23 138.618 271.958 136.27 269.688L119.048 253.039C119.048 253.039 119.047 253.039 119.047 253.039C119.047 253.039 119.047 253.039 119.047 253.039L103.854 238.352C101.507 236.082 98.1995 235.102 94.9946 235.725L92.8895 236.135C89.6845 236.758 86.3771 235.778 84.0297 233.509L12.885 164.732Z" fill="#090E1C"/>
</mask>
<g mask="url(#mask0_6456_58422)">
<rect x="220.832" y="367.083" width="302.055" height="107.673" transform="rotate(-135.969 220.832 367.083)" fill="#060911"/>
<g style="mix-blend-mode:hard-light" opacity="0.2">
<path style="mix-blend-mode:multiply" opacity="0.5" d="M164.158 163.25L144.106 231.909L101.818 174.194L30.3433 176.307L72.1081 118.286L48.0004 50.9582L116.105 72.7741L172.732 29.016L172.986 100.575L232.099 140.886L164.158 163.25Z" fill="url(#paint5_linear_6456_58422)"/>
<path d="M169.292 36.0348L142.002 57.1256L134.55 62.8875L116.811 76.5858L53.571 56.3358L76.0014 118.8L37.197 172.678L103.517 170.705L142.756 224.218L161.35 160.528L224.375 139.789L169.564 102.383L169.292 36.0348Z" fill="url(#paint6_linear_6456_58422)"/>
<path style="mix-blend-mode:multiply" opacity="0.5" d="M36.9961 172.892L122.355 120.938L103.316 170.919L36.9961 172.892Z" fill="url(#paint7_linear_6456_58422)"/>
<path style="mix-blend-mode:multiply" opacity="0.5" d="M169.082 36.2569L122.345 120.946L169.354 102.605L169.082 36.2569Z" fill="url(#paint8_linear_6456_58422)"/>
<path style="mix-blend-mode:multiply" opacity="0.5" d="M161.138 160.751L122.343 120.947L142.492 224.495L161.138 160.751Z" fill="url(#paint9_linear_6456_58422)"/>
<path style="mix-blend-mode:multiply" opacity="0.5" d="M224.168 140.007L122.349 120.941L161.143 160.745L224.168 140.007Z" fill="url(#paint10_linear_6456_58422)"/>
<path style="mix-blend-mode:color-dodge" opacity="0.5" d="M53.3633 56.5522L122.348 120.94L116.551 76.8563L53.3633 56.5522Z" fill="url(#paint11_linear_6456_58422)"/>
<path style="mix-blend-mode:color-dodge" opacity="0.5" d="M169.083 36.2568L122.346 120.946L116.549 76.8619L169.083 36.2568Z" fill="url(#paint12_linear_6456_58422)"/>
<path style="mix-blend-mode:color-dodge" opacity="0.5" d="M169.083 36.2568L122.346 120.946L116.549 76.8619L169.083 36.2568Z" fill="url(#paint13_linear_6456_58422)"/>
<path style="mix-blend-mode:color-dodge" opacity="0.5" d="M75.7457 119.069L122.352 120.938L36.9935 172.892L75.7457 119.069Z" fill="url(#paint14_linear_6456_58422)"/>
<g style="mix-blend-mode:color-dodge" opacity="0.8">
<path d="M131.262 91.3881C130.838 97.7754 135.71 96.6296 135.71 96.6296L148.244 73.8213C143.909 74.554 139.923 76.6543 136.867 79.815C133.812 82.9758 131.848 87.0311 131.262 91.3881Z" fill="white"/>
</g>
<path style="mix-blend-mode:multiply" opacity="0.5" d="M142.758 224.22C142.758 224.22 158.611 177.642 164.271 163.351L224.482 139.683L161.457 160.421L142.758 224.22Z" fill="url(#paint15_linear_6456_58422)"/>
<g style="mix-blend-mode:soft-light" opacity="0.4">
<path d="M73.7668 106.296C81.8617 122.801 107.128 114.079 105.485 108.099C103.842 102.119 81.133 82.8843 75.3926 82.9814C69.6521 83.0786 70.4625 99.5468 73.7668 106.296Z" fill="#F7FFFF"/>
</g>
<g style="mix-blend-mode:soft-light" opacity="0.4">
<path d="M124.068 182.006C134.088 174.02 128.676 158.959 123.529 150.114C114.889 136.012 105.861 196.297 124.068 182.006Z" fill="#F7FFFF"/>
</g>
</g>
</g>
<g filter="url(#filter4_f_6456_58422)">
<ellipse cx="186.411" cy="184.71" rx="52.8835" ry="49.5485" transform="rotate(-45.9695 186.411 184.71)" fill="#6E85CF"/>
</g>
<path d="M109.571 119.107L111.067 120.553L107.341 124.406L115.796 132.58L114.295 134.133L104.345 124.514L109.571 119.107ZM113.492 115.051C114.558 113.949 115.633 113.393 116.717 113.384C117.792 113.366 118.823 113.834 119.81 114.788L120.745 115.692C121.732 116.647 122.235 117.661 122.253 118.736C122.272 119.81 121.748 120.899 120.682 122.001L119.361 123.367L122.122 126.036L120.621 127.589L110.67 117.97L113.492 115.051ZM117.895 121.95L119.215 120.584C120.337 119.424 120.346 118.311 119.244 117.245L118.309 116.341C117.763 115.813 117.211 115.559 116.655 115.577C116.099 115.577 115.534 115.875 114.959 116.469L113.638 117.835L117.895 121.95ZM134.272 113.468L132.729 115.064L129.917 113.514L126.831 116.706L128.476 119.464L126.933 121.06L119.693 108.637L121.653 106.61L134.272 113.468ZM121.902 108.826L125.67 115L128.186 112.397L121.902 108.826ZM133.644 135.181L132.293 133.874L133.78 132.336L135.132 133.642C136.341 132.66 137.583 132.191 138.856 132.236C140.13 132.28 141.318 132.835 142.42 133.901C143.523 134.967 144.123 136.14 144.22 137.421C144.317 138.702 143.895 139.963 142.954 141.205L144.306 142.511L142.818 144.05L141.467 142.743C140.258 143.725 139.011 144.19 137.728 144.136C136.445 144.082 135.252 143.523 134.149 142.457C133.047 141.391 132.452 140.222 132.365 138.951C132.277 137.679 132.704 136.423 133.644 135.181ZM135.47 141.091C136.189 141.786 136.959 142.159 137.78 142.211C138.602 142.264 139.417 141.986 140.227 141.378L135.051 136.374C134.461 137.195 134.206 138.015 134.286 138.834C134.356 139.643 134.751 140.396 135.47 141.091ZM141.1 135.267C140.381 134.572 139.616 134.203 138.804 134.16C137.992 134.117 137.191 134.4 136.4 135.007L141.547 139.984C142.128 139.172 142.378 138.357 142.298 137.538C142.218 136.719 141.819 135.962 141.1 135.267Z" fill="#C0D0FF"/>
<path d="M94.601 124.14L88.5617 118.302L90.9638 115.817C91.4809 115.282 92.0092 114.908 92.5487 114.696C93.0938 114.477 93.6275 114.42 94.1498 114.524C94.672 114.629 95.1546 114.895 95.5975 115.323C96.0404 115.751 96.3228 116.224 96.4447 116.743C96.5666 117.261 96.5276 117.797 96.3276 118.349C96.1332 118.895 95.7774 119.436 95.2603 119.971L93.4588 121.834L93.4162 120.825L95.6853 123.019L94.601 124.14ZM93.537 120.942L92.5097 120.917L94.2612 119.105C94.7394 118.61 94.9945 118.139 95.0266 117.692C95.0584 117.233 94.8845 116.82 94.5049 116.453C94.1195 116.081 93.701 115.921 93.2493 115.974C92.8031 116.021 92.3409 116.292 91.8628 116.786L90.1112 118.598L90.0428 117.564L93.537 120.942ZM101.911 116.578L98.4993 108.022L99.5669 106.918L108.242 110.03L107.108 111.203L99.4033 108.278L99.837 107.83L103.029 115.422L101.911 116.578ZM101.723 113.976L101.135 112.823L104.288 109.562L105.46 110.111L101.723 113.976ZM109.634 96.5042L110.718 95.3826L116.758 101.221L115.673 102.343L109.634 96.5042ZM112.654 105.466L111.57 106.587L105.53 100.749L106.615 99.6274L112.654 105.466ZM113.168 99.7541L109.974 103.058L109.016 102.133L112.211 98.8283L113.168 99.7541ZM103.956 133.167L97.9166 127.329L101.878 123.231L102.819 124.157L99.6747 127.409L99.6575 126.892L105.024 132.063L103.956 133.167Z" fill="white"/>
<path d="M238.99 292.581L240.299 293.846L241.661 292.437L247.399 297.983L248.975 296.353L241.929 289.541L238.99 292.581ZM249.191 292.383C248.656 292.936 248.63 293.729 249.213 294.293C249.626 294.692 250.142 294.782 250.594 294.577L251.767 296.567L252.73 295.57L251.835 293.595C251.505 292.829 251.353 292.604 251.091 292.351C250.518 291.796 249.736 291.819 249.191 292.383ZM255.621 289.719C257.305 287.978 257.222 285.425 254.897 283.177C252.572 280.929 250.017 280.933 248.334 282.674C246.66 284.406 246.733 286.969 249.058 289.216C251.384 291.464 253.948 291.451 255.621 289.719ZM254.242 288.386C253.464 289.191 252.255 289.113 250.654 287.566C249.054 286.019 248.934 284.813 249.713 284.007C250.501 283.192 251.71 283.271 253.311 284.818C254.911 286.365 255.03 287.571 254.242 288.386ZM262.226 282.888C263.909 281.146 263.826 278.593 261.501 276.345C259.176 274.098 256.621 274.101 254.938 275.843C253.264 277.574 253.337 280.137 255.663 282.385C257.988 284.633 260.552 284.619 262.226 282.888ZM260.847 281.555C260.068 282.36 258.859 282.281 257.258 280.734C255.658 279.187 255.539 277.981 256.317 277.176C257.105 276.36 258.314 276.439 259.915 277.986C261.515 279.533 261.635 280.739 260.847 281.555ZM268.83 276.056C270.513 274.315 270.43 271.762 268.105 269.514C265.78 267.266 263.226 267.27 261.542 269.011C259.869 270.742 259.942 273.305 262.267 275.553C264.592 277.801 267.156 277.787 268.83 276.056ZM267.451 274.723C266.672 275.528 265.463 275.45 263.863 273.902C262.262 272.355 262.143 271.149 262.921 270.344C263.709 269.529 264.919 269.607 266.519 271.155C268.12 272.702 268.239 273.908 267.451 274.723ZM271.303 269.509C270.768 270.063 270.742 270.855 271.326 271.42C271.738 271.819 272.255 271.909 272.707 271.703L273.879 273.693L274.842 272.697L273.948 270.722C273.618 269.955 273.465 269.73 273.204 269.477C272.63 268.922 271.848 268.945 271.303 269.509ZM277.734 266.846C279.417 265.104 279.334 262.551 277.009 260.303C274.684 258.056 272.13 258.059 270.446 259.801C268.773 261.532 268.846 264.095 271.171 266.343C273.496 268.591 276.06 268.577 277.734 266.846ZM276.355 265.513C275.576 266.318 274.367 266.239 272.767 264.692C271.166 263.145 271.047 261.939 271.825 261.134C272.613 260.318 273.823 260.397 275.423 261.944C277.023 263.491 277.143 264.697 276.355 265.513ZM284.338 260.014C286.021 258.273 285.938 255.72 283.613 253.472C281.288 251.224 278.734 251.228 277.05 252.969C275.377 254.7 275.45 257.263 277.775 259.511C280.1 261.759 282.664 261.745 284.338 260.014ZM282.959 258.681C282.18 259.486 280.971 259.408 279.371 257.86C277.77 256.313 277.651 255.107 278.429 254.302C279.218 253.487 280.427 253.565 282.027 255.113C283.628 256.66 283.747 257.866 282.959 258.681ZM290.942 253.182C292.626 251.441 292.543 248.888 290.218 246.64C287.892 244.392 285.338 244.396 283.655 246.137C281.981 247.869 282.054 250.432 284.379 252.68C286.704 254.927 289.268 254.914 290.942 253.182ZM289.563 251.849C288.785 252.655 287.575 252.576 285.975 251.029C284.375 249.482 284.255 248.276 285.034 247.471C285.822 246.655 287.031 246.734 288.631 248.281C290.232 249.828 290.351 251.034 289.563 251.849ZM298.762 240.239C300.581 238.357 300.925 236.41 299.354 234.893C297.774 233.365 295.841 233.774 294.021 235.656L291.073 238.706L296.377 243.834L295.433 244.81L296.269 245.618L297.213 244.642L298.118 245.517L299.705 243.877L298.799 243.001L300.9 240.827L300.065 240.019L297.963 242.193L297.4 241.648L298.762 240.239ZM297.769 236.553C298.463 237.224 298.35 238.108 297.474 239.013L296.121 240.413L293.987 238.35L295.34 236.951C296.216 236.045 297.084 235.891 297.769 236.553Z" fill="white"/>
<path d="M265.913 299.205L260.578 294.047L257.912 296.805L259.111 298.062C259.562 298.537 259.979 298.998 260.362 299.447C260.746 299.883 261.07 300.306 261.334 300.718C261.605 301.122 261.79 301.502 261.888 301.857C261.987 302.212 261.979 302.522 261.864 302.788L260.301 304.003C260.561 303.761 260.675 303.468 260.642 303.125C260.617 302.776 260.482 302.392 260.237 301.974C259.992 301.556 259.668 301.106 259.264 300.624C258.853 300.136 258.392 299.626 257.881 299.093L255.724 296.852L260.716 291.689L267.158 297.916L265.913 299.205ZM262.674 306.764L260.077 304.234L267.638 296.413L270.245 298.933L269.077 300.141L267.577 298.691L262.352 304.097L263.852 305.546L262.674 306.764ZM272.198 294.052C271.621 294.65 270.997 295.059 270.328 295.282C269.658 295.491 268.995 295.519 268.339 295.365C267.69 295.205 267.1 294.868 266.57 294.356C266.033 293.837 265.673 293.262 265.491 292.631C265.308 291.987 265.301 291.344 265.468 290.701C265.642 290.051 265.988 289.458 266.507 288.921C267.013 288.398 267.578 288.041 268.202 287.853C268.826 287.664 269.46 287.653 270.103 287.821C270.746 287.988 271.349 288.344 271.913 288.889C271.966 288.941 272.024 289.003 272.084 289.074C272.151 289.139 272.212 289.204 272.266 289.269L267.936 293.748L267.1 292.941L270.788 289.126L270.573 289.872C270.271 289.567 269.937 289.368 269.573 289.275C269.208 289.182 268.845 289.188 268.484 289.293C268.129 289.392 267.806 289.592 267.514 289.894C267.216 290.203 267.02 290.539 266.927 290.904C266.841 291.262 266.854 291.625 266.965 291.992C267.077 292.347 267.294 292.68 267.616 292.991L267.817 293.186C268.139 293.497 268.496 293.699 268.887 293.792C269.278 293.884 269.67 293.861 270.064 293.722C270.458 293.583 270.823 293.34 271.16 292.991C271.452 292.689 271.668 292.372 271.808 292.039C271.947 291.707 272.007 291.349 271.988 290.967L273.415 291.042C273.463 291.556 273.386 292.072 273.183 292.59C272.981 293.095 272.652 293.583 272.198 294.052ZM275.9 290.082L270.525 284.886L275.507 279.732L280.883 284.928L279.676 286.176L275.076 281.729L275.65 281.72L272.527 284.951L272.517 284.377L277.117 288.823L275.9 290.082ZM284.91 280.903C284.378 281.453 283.787 281.829 283.137 282.032C282.48 282.228 281.824 282.249 281.168 282.095C280.512 281.941 279.919 281.608 279.389 281.095C278.852 280.576 278.499 279.995 278.329 279.351C278.153 278.7 278.155 278.047 278.336 277.39C278.516 276.734 278.872 276.131 279.404 275.58C279.943 275.023 280.537 274.644 281.187 274.441C281.843 274.232 282.493 274.205 283.136 274.359C283.785 274.506 284.382 274.843 284.925 275.368C285.455 275.88 285.808 276.462 285.985 277.112C286.167 277.756 286.168 278.413 285.988 279.083C285.808 279.739 285.448 280.346 284.91 280.903ZM283.833 279.862C284.131 279.553 284.33 279.213 284.43 278.842C284.529 278.47 284.516 278.094 284.391 277.714C284.272 277.326 284.041 276.967 283.699 276.636C283.35 276.299 282.984 276.081 282.599 275.982C282.214 275.869 281.838 275.869 281.47 275.981C281.103 276.093 280.773 276.3 280.481 276.602C280.182 276.91 279.984 277.25 279.884 277.622C279.791 277.986 279.804 278.362 279.923 278.75C280.035 279.131 280.266 279.49 280.615 279.827C280.957 280.158 281.324 280.376 281.715 280.482C282.106 280.587 282.482 280.588 282.844 280.482C283.211 280.371 283.541 280.164 283.833 279.862ZM290.473 275.188C290.953 274.692 291.308 274.184 291.537 273.665C291.772 273.14 291.873 272.646 291.838 272.185C291.797 271.717 291.613 271.324 291.284 271.006C290.874 270.611 290.387 270.47 289.821 270.585C289.249 270.694 288.674 271.047 288.097 271.644L288.329 271.947C288.667 271.598 288.908 271.235 289.054 270.856C289.205 270.47 289.255 270.103 289.203 269.754C289.151 269.392 288.997 269.088 288.742 268.841C288.434 268.543 288.058 268.394 287.616 268.395C287.174 268.396 286.707 268.529 286.217 268.795C285.726 269.061 285.254 269.448 284.801 269.958C284.496 270.286 284.228 270.657 283.998 271.07C283.767 271.47 283.563 271.916 283.387 272.407L284.624 272.98C284.782 272.562 284.964 272.179 285.169 271.833C285.381 271.479 285.617 271.168 285.876 270.9C286.123 270.645 286.36 270.453 286.589 270.323C286.811 270.188 287.018 270.121 287.21 270.125C287.401 270.115 287.56 270.172 287.688 270.295C287.815 270.418 287.887 270.565 287.903 270.737C287.919 270.908 287.876 271.094 287.774 271.293C287.678 271.486 287.526 271.69 287.319 271.905L286.414 272.841L287.259 273.659L288.262 272.622C288.593 272.28 288.903 272.073 289.192 272.002C289.481 271.918 289.733 271.98 289.947 272.187C290.095 272.33 290.171 272.514 290.175 272.738C290.185 272.956 290.123 273.194 289.989 273.454C289.848 273.707 289.641 273.975 289.369 274.256C289.051 274.585 288.693 274.875 288.294 275.126C287.896 275.377 287.496 275.562 287.096 275.681L287.691 276.938C288.184 276.791 288.672 276.569 289.155 276.27C289.638 275.958 290.078 275.598 290.473 275.188ZM294.117 271.238L288.742 266.042L289.958 264.784L293.501 268.209L292.829 261.815L293.938 260.667L299.313 265.863L298.097 267.121L294.554 263.696L295.236 270.081L294.117 271.238ZM302.029 263.053L297.419 258.597L298.003 258.597L295.892 260.781L294.825 259.75L299.69 254.717L300.757 255.748L298.655 257.922L298.635 257.339L303.246 261.795L302.029 263.053ZM309.1 255.739L308.013 254.688L307.713 254.535L305.811 252.696C305.442 252.339 305.05 252.174 304.634 252.201C304.212 252.221 303.784 252.456 303.349 252.906C303.057 253.208 302.816 253.552 302.624 253.938C302.439 254.317 302.333 254.689 302.306 255.052L300.914 254.66C300.971 254.157 301.138 253.656 301.413 253.156C301.688 252.643 302.033 252.172 302.448 251.743C303.201 250.964 303.969 250.545 304.754 250.486C305.538 250.413 306.319 250.753 307.098 251.506L310.248 254.551L309.1 255.739ZM307.536 257.498C307.147 257.901 306.739 258.188 306.313 258.36C305.88 258.526 305.462 258.576 305.058 258.51C304.654 258.431 304.298 258.243 303.989 257.944C303.687 257.652 303.483 257.319 303.378 256.945C303.279 256.564 303.318 256.14 303.495 255.675C303.672 255.21 304.023 254.706 304.549 254.163L306.057 252.602L306.892 253.41L305.472 254.88C305.057 255.309 304.848 255.666 304.846 255.95C304.838 256.227 304.934 256.463 305.136 256.658C305.364 256.878 305.632 256.963 305.942 256.911C306.251 256.86 306.561 256.673 306.873 256.351C307.171 256.042 307.367 255.699 307.459 255.321C307.559 254.937 307.522 254.558 307.351 254.184L308.31 254.703C308.509 255.129 308.543 255.583 308.413 256.067C308.289 256.545 307.996 257.022 307.536 257.498Z" fill="#7D7D7D"/>
<path d="M245.401 259.9L246.71 261.165L248.072 259.756L253.809 265.303L255.386 263.672L248.34 256.86L245.401 259.9ZM259.609 259.545C261.292 257.804 261.21 255.251 258.884 253.003C256.559 250.755 254.005 250.759 252.322 252.5C250.648 254.231 250.721 256.794 253.046 259.042C255.371 261.29 257.935 261.276 259.609 259.545ZM258.23 258.212C257.452 259.017 256.242 258.939 254.642 257.391C253.041 255.844 252.922 254.638 253.701 253.833C254.489 253.018 255.698 253.096 257.298 254.644C258.899 256.191 259.018 257.397 258.23 258.212ZM261.509 250.852C262.501 249.826 262.447 248.391 261.249 247.233C260.051 246.075 258.616 246.07 257.623 247.096C256.631 248.123 256.685 249.578 257.873 250.726C259.061 251.874 260.516 251.879 261.509 250.852ZM264.156 254.6L265.314 253.402L262.919 241.779L261.761 242.977L264.156 254.6ZM260.683 250.055C260.265 250.487 259.6 250.429 258.856 249.709C258.111 248.989 258.03 248.327 258.449 247.894C258.877 247.451 259.521 247.51 260.276 248.24C261.031 248.969 261.111 249.612 260.683 250.055ZM269.452 249.282C270.445 248.256 270.39 246.801 269.203 245.653C268.015 244.505 266.559 244.5 265.567 245.526C264.584 246.543 264.638 247.998 265.826 249.146C267.014 250.294 268.469 250.299 269.452 249.282ZM268.627 248.484C268.208 248.917 267.554 248.869 266.799 248.139C266.044 247.409 265.974 246.757 266.392 246.324C266.82 245.881 267.475 245.95 268.22 246.67C268.965 247.39 269.055 248.042 268.627 248.484Z" fill="white"/>
<path d="M252.346 288.599C251.827 289.136 251.257 289.551 250.635 289.846C250.012 290.127 249.375 290.283 248.722 290.314C248.069 290.332 247.43 290.22 246.805 289.98C246.181 289.74 245.607 289.367 245.083 288.861C244.56 288.355 244.168 287.794 243.906 287.178C243.645 286.562 243.519 285.927 243.528 285.273C243.53 284.613 243.664 283.97 243.931 283.345C244.191 282.714 244.583 282.127 245.109 281.583C245.667 281.006 246.276 280.576 246.938 280.295C247.594 280.006 248.275 279.886 248.982 279.933L248.96 281.548C248.438 281.537 247.958 281.624 247.518 281.81C247.073 281.989 246.671 282.263 246.315 282.632C245.958 283.001 245.691 283.398 245.513 283.824C245.342 284.242 245.257 284.673 245.258 285.115C245.265 285.551 245.358 285.978 245.537 286.397C245.722 286.81 245.996 287.192 246.358 287.542C246.72 287.892 247.111 288.153 247.53 288.324C247.955 288.489 248.385 288.567 248.821 288.56C249.263 288.546 249.69 288.446 250.103 288.261C250.522 288.069 250.91 287.788 251.267 287.419C251.624 287.05 251.887 286.643 252.058 286.198C252.222 285.746 252.286 285.257 252.251 284.729L253.874 284.662C253.938 285.361 253.841 286.046 253.582 286.717C253.322 287.388 252.911 288.015 252.346 288.599ZM259.2 281.308L258.113 280.257L257.813 280.104L255.911 278.265C255.542 277.908 255.149 277.743 254.734 277.77C254.312 277.79 253.884 278.025 253.449 278.475C253.157 278.777 252.915 279.121 252.724 279.507C252.539 279.886 252.433 280.258 252.406 280.621L251.013 280.229C251.071 279.726 251.237 279.225 251.513 278.725C251.788 278.212 252.133 277.741 252.548 277.312C253.301 276.533 254.069 276.114 254.853 276.055C255.638 275.982 256.419 276.322 257.197 277.075L260.348 280.12L259.2 281.308ZM257.635 283.067C257.246 283.47 256.839 283.757 256.412 283.93C255.98 284.095 255.561 284.145 255.158 284.079C254.754 284 254.397 283.812 254.089 283.513C253.787 283.221 253.583 282.888 253.478 282.514C253.379 282.133 253.418 281.71 253.595 281.245C253.772 280.779 254.123 280.275 254.648 279.732L256.157 278.172L256.992 278.979L255.571 280.449C255.156 280.878 254.948 281.235 254.946 281.519C254.937 281.796 255.034 282.032 255.235 282.227C255.463 282.447 255.732 282.532 256.041 282.48C256.351 282.429 256.661 282.242 256.973 281.92C257.271 281.611 257.466 281.268 257.559 280.89C257.658 280.506 257.622 280.127 257.451 279.754L258.41 280.272C258.609 280.698 258.643 281.153 258.512 281.637C258.388 282.114 258.096 282.591 257.635 283.067ZM263.585 276.913C263.15 277.363 262.675 277.74 262.159 278.046C261.642 278.339 261.183 278.525 260.782 278.604L260.293 277.196C260.681 277.104 261.087 276.939 261.512 276.7C261.937 276.462 262.312 276.175 262.636 275.84C263.019 275.444 263.241 275.107 263.302 274.829C263.37 274.544 263.313 274.314 263.132 274.138C262.984 273.996 262.815 273.949 262.625 273.998C262.427 274.041 262.215 274.141 261.986 274.296C261.758 274.452 261.51 274.635 261.243 274.844C260.982 275.046 260.709 275.242 260.421 275.432C260.134 275.608 259.842 275.742 259.547 275.833C259.245 275.917 258.941 275.929 258.637 275.868C258.332 275.807 258.025 275.627 257.717 275.329C257.374 274.998 257.173 274.615 257.113 274.181C257.046 273.74 257.114 273.28 257.317 272.801C257.52 272.309 257.855 271.822 258.322 271.339C258.673 270.976 259.066 270.649 259.504 270.358C259.941 270.067 260.35 269.872 260.731 269.773L261.221 271.181C260.82 271.286 260.466 271.444 260.159 271.654C259.852 271.851 259.576 272.077 259.329 272.332C258.959 272.714 258.741 273.054 258.673 273.352C258.612 273.644 258.669 273.874 258.843 274.043C259.004 274.198 259.184 274.255 259.381 274.212C259.578 274.169 259.794 274.073 260.029 273.924C260.265 273.774 260.512 273.599 260.773 273.396C261.033 273.181 261.307 272.984 261.595 272.808C261.882 272.632 262.174 272.498 262.469 272.407C262.764 272.303 263.064 272.281 263.369 272.342C263.674 272.403 263.977 272.58 264.279 272.872C264.614 273.196 264.809 273.579 264.863 274.02C264.923 274.455 264.848 274.921 264.639 275.42C264.423 275.912 264.072 276.41 263.585 276.913ZM264.43 265.021C264.845 264.592 265.299 264.29 265.791 264.117C266.289 263.937 266.807 263.918 267.344 264.061C267.875 264.197 268.411 264.528 268.955 265.053L272.035 268.031L270.819 269.289L267.9 266.467C267.423 266.007 266.957 265.777 266.502 265.778C266.053 265.772 265.634 265.971 265.245 266.374C264.959 266.669 264.767 266.989 264.667 267.334C264.567 267.679 264.576 268.032 264.695 268.393C264.813 268.741 265.053 269.09 265.415 269.44L268.133 272.067L266.917 273.325L259.448 266.105L260.664 264.847L264.208 268.272L263.502 268.116C263.341 267.597 263.342 267.072 263.505 266.542C263.667 265.998 263.976 265.491 264.43 265.021ZM276.529 263.523C276.088 263.98 275.595 264.288 275.049 264.45C274.504 264.611 273.93 264.6 273.326 264.419C272.722 264.225 272.108 263.826 271.484 263.223C270.853 262.613 270.437 262.009 270.236 261.412C270.041 260.808 270.018 260.234 270.167 259.691C270.316 259.134 270.601 258.637 271.023 258.201C271.535 257.671 272.1 257.315 272.718 257.133C273.342 256.944 273.972 256.93 274.608 257.091C275.251 257.245 275.851 257.591 276.408 258.13C276.965 258.668 277.331 259.256 277.507 259.893C277.689 260.524 277.7 261.157 277.539 261.794C277.378 262.417 277.041 262.993 276.529 263.523ZM273.578 266.435L266.109 259.215L267.326 257.957L270.667 261.187L272 262.669L273.468 264.011L274.736 265.237L273.578 266.435ZM275.316 262.623C275.607 262.321 275.8 261.988 275.893 261.623C275.992 261.252 275.982 260.873 275.864 260.485C275.745 260.098 275.514 259.739 275.172 259.408C274.823 259.071 274.456 258.852 274.072 258.753C273.681 258.648 273.301 258.651 272.933 258.763C272.572 258.868 272.246 259.071 271.954 259.373C271.662 259.675 271.466 260.012 271.367 260.383C271.267 260.754 271.277 261.134 271.396 261.521C271.508 261.902 271.738 262.261 272.087 262.599C272.43 262.93 272.796 263.148 273.188 263.253C273.579 263.359 273.958 263.356 274.326 263.244C274.694 263.132 275.024 262.925 275.316 262.623ZM283.384 256.292L282.297 255.241L281.997 255.087L280.095 253.248C279.726 252.891 279.333 252.727 278.918 252.753C278.496 252.774 278.067 253.009 277.633 253.458C277.341 253.76 277.099 254.104 276.908 254.49C276.723 254.87 276.617 255.241 276.59 255.605L275.197 255.212C275.255 254.71 275.421 254.209 275.696 253.709C275.972 253.196 276.317 252.725 276.732 252.295C277.484 251.517 278.253 251.098 279.037 251.038C279.822 250.966 280.603 251.306 281.381 252.058L284.532 255.104L283.384 256.292ZM281.819 258.051C281.43 258.453 281.022 258.741 280.596 258.913C280.164 259.079 279.745 259.129 279.341 259.063C278.938 258.984 278.581 258.795 278.273 258.497C277.971 258.205 277.767 257.872 277.662 257.497C277.563 257.116 277.602 256.693 277.779 256.228C277.956 255.763 278.307 255.259 278.832 254.715L280.341 253.155L281.176 253.963L279.755 255.432C279.34 255.862 279.132 256.218 279.13 256.502C279.121 256.78 279.218 257.016 279.419 257.21C279.647 257.431 279.916 257.515 280.225 257.464C280.535 257.412 280.845 257.226 281.156 256.904C281.455 256.595 281.65 256.252 281.743 255.874C281.842 255.489 281.806 255.11 281.635 254.737L282.594 255.255C282.792 255.681 282.827 256.136 282.696 256.62C282.572 257.097 282.28 257.574 281.819 258.051ZM288.557 251.081C288.012 251.645 287.408 252.035 286.745 252.251C286.082 252.453 285.422 252.478 284.766 252.324C284.11 252.17 283.517 251.837 282.987 251.324C282.45 250.805 282.097 250.224 281.928 249.58C281.751 248.929 281.757 248.272 281.944 247.609C282.137 246.939 282.506 246.322 283.051 245.759C283.557 245.235 284.109 244.879 284.706 244.691C285.303 244.49 285.907 244.483 286.518 244.67L286.147 246.182C285.737 246.096 285.357 246.112 285.009 246.231C284.668 246.342 284.368 246.532 284.108 246.8C283.81 247.109 283.608 247.452 283.502 247.83C283.396 248.208 283.403 248.591 283.521 248.978C283.633 249.359 283.864 249.719 284.213 250.056C284.562 250.393 284.932 250.615 285.323 250.72C285.708 250.819 286.087 250.81 286.461 250.691C286.835 250.573 287.172 250.359 287.47 250.05C287.73 249.782 287.909 249.475 288.009 249.13C288.115 248.779 288.119 248.399 288.019 247.991L289.517 247.57C289.719 248.167 289.736 248.774 289.568 249.391C289.4 249.994 289.063 250.558 288.557 251.081ZM291.504 245.495L289.952 243.937L290.07 238.618L291.53 237.109L291.619 241.81L291.531 243.01L291.504 245.495ZM291.709 247.68L284.24 240.46L285.457 239.202L292.925 246.422L291.709 247.68ZM295.63 243.623L291.307 243.241L291.069 241.473L297.109 242.093L295.63 243.623Z" fill="#7D7D7D"/>
<rect x="134.426" y="39.6978" width="24.7743" height="24.7743" rx="12.3871" transform="rotate(-45.9695 134.426 39.6978)" fill="#151C30"/>
<rect x="135.133" y="39.6858" width="23.7743" height="23.7743" rx="11.8871" transform="rotate(-45.9695 135.133 39.6858)" stroke="#C68C43"/>
<path d="M156.447 39.3128C156.355 40.0981 155.934 40.6996 155.934 40.6996C156.022 40.0714 155.957 38.6303 154.74 38.253C153.523 37.8758 151.467 38.9416 151.467 38.9416C151.467 38.9416 150.473 41.0309 150.89 42.2353C151.307 43.4397 152.751 43.4553 153.376 43.3457C153.376 43.3457 152.788 43.7869 152.007 43.9052C152.007 43.9052 151.908 45.9504 152.909 47.1646C152.909 47.1646 153.139 45.4308 155.575 42.9117C158.01 40.3927 159.735 40.1036 159.735 40.1036C158.488 39.1444 156.447 39.3128 156.447 39.3128ZM154.399 41.4179L154.528 41.899L154.043 41.7869C152.803 42.8901 151.706 42.2479 151.706 42.2479L151.933 41.3232L151.497 41.2119L153.319 40.7333L153.737 38.8949L153.863 39.3268L154.78 39.0687C154.78 39.0687 155.459 40.1428 154.399 41.4187L154.399 41.4179Z" fill="white"/>
<path d="M151.544 32.7184C151.544 32.7184 152.672 31.7932 153.656 31.7824C153.656 31.7824 151.473 31.1613 149.899 32.7896C148.325 34.4179 148.466 36.0428 148.466 36.0428C148.466 36.0428 146.837 35.957 145.263 37.585C143.689 39.2131 144.384 41.3736 144.384 41.3736C144.36 40.3915 145.248 39.2315 145.248 39.2315C144.691 40.2927 145.063 41.884 146.253 43.0207C147.443 44.1574 148.732 44.5191 149.278 44.1727C149.823 43.8264 149.623 43.1658 149.637 41.8746C149.651 40.5834 150.214 39.8 150.214 39.8C149.251 40.1849 148.993 40.8091 148.702 41.4021C148.412 41.9951 148.107 42.4132 147.326 42.1634C146.546 41.9137 146.446 40.8573 146.446 40.8573C146.22 41.1805 146.185 41.6628 146.185 41.6628C145.826 40.8237 145.974 40.3393 146.465 39.7932C146.956 39.2471 147.33 39.1402 148.177 38.8888C149.024 38.6374 149.854 38.5042 149.895 37.9901C149.937 37.4759 148.729 37.1333 148.729 37.1333C149.234 37.0187 149.777 37.31 149.777 37.31C149.777 37.31 149.468 36.7769 149.565 36.2684C149.565 36.2684 149.947 37.4649 150.461 37.4052C150.974 37.3454 151.078 36.5123 151.301 35.6575C151.524 34.8027 151.617 34.4257 152.147 33.9161C152.676 33.4065 153.157 33.2442 154.006 33.5743C154.006 33.5743 153.525 33.6262 153.21 33.8627C153.21 33.8627 154.269 33.9265 154.545 34.6981C154.821 35.4696 154.414 35.789 153.83 36.0989C153.247 36.4088 152.633 36.6885 152.28 37.6645C152.28 37.6645 153.046 37.076 154.334 37.0171C155.622 36.9582 156.289 37.1352 156.619 36.5802C156.949 36.0252 156.542 34.7486 155.365 33.5962C154.188 32.4438 152.586 32.1262 151.544 32.7184Z" fill="white"/>
<path d="M149.9 32.7872C148.324 34.4172 148.47 36.0495 148.47 36.0495C148.47 36.0495 146.834 35.9583 145.258 37.5883C144.085 38.8018 144.176 40.3145 144.298 41.0072C144.289 39.7709 144.74 36.9276 149.021 36.5807C149.223 32.2902 152.05 31.743 153.286 31.7102C152.588 31.613 151.073 31.5738 149.9 32.7872Z" fill="#C4C4C4"/>
<path d="M148.673 41.4208C148.383 42.0157 148.077 42.4346 147.294 42.1834C146.511 41.9322 146.41 40.8724 146.41 40.8724C146.228 41.1319 146.169 41.4936 146.153 41.6273C146.314 42.2236 146.852 43.0481 148.505 43.6096C148.505 43.6096 147.926 43.9373 146.789 43.5279C147.802 44.2824 148.791 44.493 149.252 44.1993C149.797 43.8504 149.597 43.1894 149.61 41.8941C149.623 40.5987 150.188 39.8133 150.188 39.8133C149.223 40.2001 148.964 40.8262 148.673 41.4208Z" fill="#C4C4C4"/>
<path d="M155.991 35.8667C155.367 34.2158 154.513 33.7127 153.912 33.5783C153.76 33.6044 153.432 33.6778 153.196 33.8549C153.196 33.8549 154.258 33.9199 154.536 34.6938C154.814 35.4677 154.405 35.7874 153.821 36.0976C153.237 36.4077 152.621 36.6875 152.268 37.6657C152.268 37.6657 153.036 37.0765 154.327 37.0187C155.619 36.9609 156.288 37.139 156.618 36.5829C156.897 36.1088 156.645 35.1123 155.837 34.1147C156.307 35.2631 155.991 35.8667 155.991 35.8667Z" fill="#C4C4C4"/>
<path d="M159.716 40.0926C159.012 40.1978 157.369 40.6126 155.637 42.2617C153.337 44.4498 153.506 45.0199 152.933 44.9636C152.359 44.9072 153.377 43.3503 153.377 43.3503C153.377 43.3503 152.79 43.7918 152.009 43.9111C152.009 43.9111 151.907 45.9535 152.905 47.1644C152.905 47.1644 153.138 45.4328 155.573 42.9137C158.008 40.3946 159.731 40.1034 159.731 40.1034C159.728 40.1003 159.721 40.0964 159.716 40.0926Z" fill="#C4C4C4"/>
<g style="mix-blend-mode:soft-light">
<mask id="mask1_6456_58422" style="mask-type:alpha" maskUnits="userSpaceOnUse" x="139" y="27" width="26" height="25">
<rect x="134.426" y="39.6978" width="24.7743" height="24.7743" rx="12.3871" transform="rotate(-45.9695 134.426 39.6978)" fill="#101520"/>
</mask>
<g mask="url(#mask1_6456_58422)">
<g filter="url(#filter5_f_6456_58422)">
<path d="M152.357 61.8201L151.61 17.681" stroke="white" stroke-width="0.52"/>
</g>
<g filter="url(#filter6_f_6456_58422)">
<path d="M152.46 68.0915L151.501 11.4112" stroke="white" stroke-width="1.3"/>
</g>
<g filter="url(#filter7_f_6456_58422)">
<path d="M152.46 68.0915L151.501 11.4112" stroke="white" stroke-width="1.3"/>
</g>
<g opacity="0.5" filter="url(#filter8_f_6456_58422)">
<path d="M145.509 62.0941L144.763 17.9549" stroke="white" stroke-width="0.52"/>
</g>
<g opacity="0.5" filter="url(#filter9_f_6456_58422)">
<path d="M159.381 63.8216L158.634 19.6824" stroke="white" stroke-width="0.26"/>
</g>
</g>
</g>
<path d="M172.917 240.34C173.139 240.725 155.734 249.576 155.734 249.576C147.506 248.139 139.477 245.791 131.793 242.576L153.701 219.913L172.917 240.34Z" fill="url(#paint16_linear_6456_58422)"/>
<path d="M135.973 238.252C135.973 238.252 151.839 243.357 153.955 243.514L165.32 232.354L164.551 231.611C164.551 231.611 154.504 242.176 153.487 242.345C152.469 242.513 136.624 237.579 136.624 237.579L135.973 238.252Z" fill="#394773"/>
<path d="M135.973 238.252L153.955 243.514C150.73 243.026 147.543 242.334 144.412 241.445C140.305 240.175 135.973 238.252 135.973 238.252Z" fill="white"/>
<g style="mix-blend-mode:soft-light" opacity="0.5">
<path d="M138.271 237.338C141.696 238.93 150.906 241.112 151.604 240.39C152.303 239.668 160.292 231.115 159.845 229.193C159.399 227.27 154.285 221.023 153.519 221.585C152.752 222.147 136.702 236.576 138.271 237.338Z" fill="white"/>
</g>
<g style="mix-blend-mode:soft-light" opacity="0.5">
<path d="M132.955 242.262C136.529 243.621 145.844 246.811 146.459 246.329C147.073 245.847 149.106 244.206 148.338 243.463C147.108 242.274 136.6 238.818 135.681 239.441C134.763 240.064 132.085 241.931 132.955 242.262Z" fill="white"/>
</g>
<path style="mix-blend-mode:multiply" opacity="0.5" d="M147.823 246.59C148.526 247.459 155.554 248.4 156.371 248.227C157.189 248.054 170.258 240.996 170.438 239.886C170.619 238.777 162.503 230.232 161.715 230.547C160.927 230.862 147.062 245.628 147.823 246.59Z" fill="url(#paint17_linear_6456_58422)"/>
<path style="mix-blend-mode:multiply" opacity="0.5" d="M146.343 227.526C153.551 232.376 160.256 237.928 166.362 244.103L172.918 240.34L153.683 219.857L146.343 227.526Z" fill="url(#paint18_linear_6456_58422)"/>
<path d="M240.879 170.039C241.281 170.239 249.567 152.515 249.567 152.515C247.848 144.322 245.22 136.361 241.731 128.777L219.785 151.479L240.879 170.039Z" fill="url(#paint19_linear_6456_58422)"/>
<path d="M237.552 133.177C237.552 133.177 243.181 148.871 243.419 150.97L232.64 162.717L231.872 161.973C231.872 161.973 242.101 151.565 242.234 150.542C242.368 149.52 236.901 133.85 236.901 133.85L237.552 133.177Z" fill="#394773"/>
<path d="M237.553 133.177L243.421 150.971C242.823 147.767 242.022 144.608 241.02 141.513C239.612 137.451 237.553 133.177 237.553 133.177Z" fill="white"/>
<g style="mix-blend-mode:soft-light" opacity="0.5">
<path d="M236.717 135.503C238.433 138.862 240.907 147.994 240.199 148.726C239.492 149.458 231.233 157.712 229.287 157.341C227.341 156.97 220.943 152.05 221.469 151.275C221.996 150.5 235.902 133.961 236.717 135.503Z" fill="white"/>
</g>
<g style="mix-blend-mode:soft-light" opacity="0.5">
<path d="M241.446 130.032C242.926 133.558 246.438 142.75 245.978 143.381C245.517 144.011 243.936 146.108 243.139 145.394C241.909 144.205 238.1 133.82 238.691 132.882C239.283 131.943 241.067 129.193 241.446 130.032Z" fill="white"/>
</g>
<path style="mix-blend-mode:multiply" opacity="0.5" d="M246.278 144.746C247.18 145.41 248.348 152.412 248.213 153.225C248.077 154.038 241.465 167.339 240.343 167.576C239.222 167.813 230.473 159.922 230.724 159.164C230.974 158.405 245.3 144.008 246.278 144.746Z" fill="url(#paint20_linear_6456_58422)"/>
<path style="mix-blend-mode:multiply" opacity="0.5" d="M227.184 143.903C232.275 150.943 238.051 157.456 244.429 163.349L240.88 170.039L219.758 151.508L227.184 143.903Z" fill="url(#paint21_linear_6456_58422)"/>
<path d="M140.32 140.535L125.548 198.022L175.86 246.66L232.805 229.942L247.586 172.465L197.274 123.827L140.32 140.535Z" fill="url(#paint22_linear_6456_58422)"/>
<path d="M178.529 236.267L135.837 194.996L147.951 147.911L194.59 134.221L237.282 175.492L225.177 222.567L178.529 236.267Z" fill="url(#paint23_linear_6456_58422)"/>
<path d="M179.41 232.796L139.274 193.996L150.486 150.363L193.705 137.691L233.841 176.491L222.639 220.114L179.41 232.796Z" fill="#736FA8"/>
<g style="mix-blend-mode:soft-light" opacity="0.5">
<path d="M126.572 197.216C127.484 198.984 132.958 196.648 135.041 193.3C137.125 189.953 147.297 149.261 146.556 147.335C144.858 145.325 142.963 143.493 140.896 141.864C140.019 142.772 126.136 196.359 126.572 197.216Z" fill="white"/>
</g>
<g style="mix-blend-mode:soft-light" opacity="0.5">
<path d="M196.333 125.051C198.132 125.902 195.982 131.452 192.697 133.657C189.413 135.863 149.199 147.003 147.148 146.72C146.08 146.575 140.894 141.864 141.489 141.249C142.376 140.332 195.463 124.643 196.333 125.051Z" fill="white"/>
</g>
<path style="mix-blend-mode:multiply" opacity="0.5" d="M155.148 224.918C156.412 226.63 174.871 245.646 175.846 244.927C176.82 244.207 177.998 237.567 176.937 236.107C175.876 234.647 162.922 221.973 161.38 221.068C159.838 220.163 153.037 222.084 155.148 224.918Z" fill="url(#paint24_linear_6456_58422)"/>
<path style="mix-blend-mode:multiply" opacity="0.5" d="M225.013 152.645C226.758 153.86 246.397 171.656 245.711 172.654C245.024 173.652 238.428 175.054 236.933 174.043C235.438 173.032 222.332 160.514 221.376 159.004C220.419 157.494 222.1 150.64 225.013 152.645Z" fill="url(#paint25_linear_6456_58422)"/>
<path style="mix-blend-mode:multiply" opacity="0.5" d="M177.261 244.5C178.349 244.683 230.103 230.066 230.584 229.568C230.829 229.315 226.346 224.338 225.779 223.79C224.27 222.332 180.269 236.948 179.625 237.326C178.677 237.882 176.164 244.308 177.261 244.5Z" fill="url(#paint26_linear_6456_58422)"/>
<path style="mix-blend-mode:multiply" opacity="0.5" d="M246.034 174.379C246.253 175.46 232.734 228.229 232.243 228.736C230.044 226.852 227.997 224.797 226.12 222.591C226.092 220.486 237.899 177.334 238.236 176.697C238.76 175.731 245.814 173.28 246.034 174.379Z" fill="url(#paint27_linear_6456_58422)"/>
<path style="mix-blend-mode:multiply" opacity="0.5" d="M179.59 230.477C166.586 221.682 166.922 219.93 175.772 201.372C184.622 182.815 195.423 147.395 202.718 150.425C210.012 153.455 231.683 175.783 232.412 177.394C233.141 179.005 223.373 216.915 221.458 218.972C219.543 221.03 181.056 231.46 179.59 230.477Z" fill="url(#paint28_linear_6456_58422)"/>
<g style="mix-blend-mode:soft-light" opacity="0.3">
<path d="M193.399 138.565C192.803 138.932 153.734 150.387 152.491 151.885C151.247 153.383 142.299 178.964 141.429 192.17C141.185 195.711 166.444 218.731 167.719 216.509C168.994 214.286 160.361 203.353 173.818 178.28C187.089 153.688 199.912 149.827 202.824 148.526C203.611 148.135 194.763 137.693 193.399 138.565Z" fill="white"/>
</g>
<path style="mix-blend-mode:multiply" opacity="0.5" d="M178.527 236.266L135.835 194.995L147.92 147.883L194.587 134.22L237.279 175.492L233.831 176.482C233.831 176.482 196.863 140.48 194.918 140.166C187.936 139.081 156.137 151.766 153.694 156.542C151.252 161.318 140.271 189.522 141.618 195.167C142.083 197.07 179.41 232.796 179.41 232.796L178.527 236.266Z" fill="url(#paint29_linear_6456_58422)"/>
<g style="mix-blend-mode:soft-light" opacity="0.2">
<path d="M176.561 164.579C187.275 160.303 198.362 148.95 198.719 147.274C199.075 145.598 194.969 140.288 192.577 141.148C190.184 142.007 170.804 148.421 168.223 152.553C165.641 156.685 174.635 165.322 176.561 164.579Z" fill="white"/>
</g>
<path d="M140.875 212.838C140.759 212.727 126.994 198.796 126.617 197.167C126.24 195.538 140.786 142.534 141.488 141.25C142.191 139.965 162.186 134.126 162.186 134.126L140.32 140.535L125.606 198.059L140.875 212.838Z" fill="url(#paint30_linear_6456_58422)"/>
<path d="M168.316 141.939C168.316 141.939 193.201 134.465 194.447 135.234C195.692 136.003 223.628 162.311 223.628 162.311C223.628 162.311 195.913 135.217 194.58 134.23C193.247 133.244 168.316 141.939 168.316 141.939Z" fill="white"/>
<path d="M159.233 217.614C159.233 217.614 135.652 195.857 135.148 194.841C134.643 193.825 147.949 147.911 147.949 147.911C147.949 147.911 136.095 193.207 136.557 194.825C137.02 196.443 159.233 217.614 159.233 217.614Z" fill="white"/>
<path style="mix-blend-mode:multiply" d="M175.861 246.66L232.796 229.952L247.567 172.484L236.104 161.403C236.104 161.403 245.805 171.385 246.318 173.354C246.831 175.322 233.759 226.918 232.242 228.737C230.725 230.556 178.03 245.32 175.845 244.926C173.66 244.532 150.215 221.867 150.215 221.867L175.861 246.66Z" fill="url(#paint31_linear_6456_58422)"/>
<path d="M167.63 225.733C167.63 225.733 177.366 235.352 178.73 235.595C180.094 235.837 202.226 229.346 202.226 229.346C202.226 229.346 179.183 237.279 178.523 236.924C177.863 236.569 167.63 225.733 167.63 225.733Z" fill="white"/>
<g style="mix-blend-mode:soft-light" opacity="0.5">
<path d="M199.627 232.381C198.57 233.474 196.818 237.709 198.162 237.743C199.505 237.776 227.996 229.955 230.784 228.629C231.695 228.187 227.343 224.113 225.082 223.683C224.118 223.507 202.901 228.975 199.627 232.381Z" fill="white"/>
</g>
<path d="M161.247 135.502C160.628 136.622 167.196 137.213 168.89 136.113C170.585 135.014 171.473 132.115 170.149 132.138C168.826 132.161 162.221 133.763 161.247 135.502Z" fill="white"/>
<path d="M171.285 132.444C170.338 134.134 178.577 137.284 180.643 137.223C182.709 137.163 193.715 129.469 191.788 128.04C189.861 126.611 172.625 130.057 171.285 132.444Z" fill="white"/>
<path style="mix-blend-mode:multiply" opacity="0.5" d="M233.509 197.525C236.166 201.641 238.316 203.474 238.769 203.044C239.223 202.614 245.276 177.085 245.297 176.256C245.318 175.426 239.606 175.777 238.581 177.222C237.557 178.667 232.505 195.987 233.509 197.525Z" fill="url(#paint32_linear_6456_58422)"/>
<path style="mix-blend-mode:multiply" opacity="0.5" d="M138.723 193.972C137.192 193.247 136.041 194.457 137.225 195.809C138.409 197.161 162.137 220.477 162.637 220.036C163.138 219.595 162.938 217.456 162.428 216.888C161.918 216.319 139.459 194.325 138.723 193.972Z" fill="url(#paint33_linear_6456_58422)"/>
<path style="mix-blend-mode:multiply" opacity="0.5" d="M193.827 137.278C194.212 137.783 216.596 159.874 216.888 159.571C217.181 159.269 217.407 156.901 216.859 156.371C216.311 155.842 194.63 135.543 194.383 135.587C194.136 135.632 193.499 136.867 193.827 137.278Z" fill="url(#paint34_linear_6456_58422)"/>
<path style="mix-blend-mode:multiply" opacity="0.5" d="M150.123 150.01C150.565 150.437 145.263 170.612 144.971 170.915C144.678 171.217 142.803 169.197 142.939 168.517C143.076 167.837 147.8 147.952 148.144 148.096C148.845 148.689 149.507 149.329 150.123 150.01Z" fill="url(#paint35_linear_6456_58422)"/>
<path d="M235.7 180.551C234.898 181.381 233.756 185.734 234.752 186.281C235.747 186.828 238.282 185.917 238.255 185.022C238.228 184.128 236.247 180.023 235.7 180.551Z" fill="#394773"/>
<path d="M237.302 180.006C237.279 180.55 237.597 182.066 238.624 181.907C239.652 181.749 240.158 178.84 239.558 178.769C238.957 178.698 237.315 179.32 237.302 180.006Z" fill="#394773"/>
<path style="mix-blend-mode:multiply" opacity="0.5" d="M234.395 185.051C234.686 186.673 238.027 184.39 237.607 183.267C237.187 182.143 236.119 179.94 235.744 180.502C235.022 181.928 234.565 183.47 234.395 185.051Z" fill="url(#paint36_linear_6456_58422)"/>
<path d="M234.53 186.049C235.259 186.372 236.082 186.426 236.855 186.201C237.881 185.909 238.342 185.259 238.214 184.795C238.246 185.148 238.158 185.502 237.964 185.801C237.769 186.1 237.48 186.326 237.143 186.441C235.226 187.213 234.53 186.049 234.53 186.049Z" fill="#DAE1EF"/>
<path style="mix-blend-mode:multiply" opacity="0.5" d="M237.624 179.712C237.683 181.016 239.154 181.475 239.446 181.058C239.737 180.641 240.083 178.88 239.558 178.769C239.033 178.658 237.612 179.436 237.624 179.712Z" fill="url(#paint37_linear_6456_58422)"/>
<path d="M237.303 180.007C237.303 180.007 237.525 181.373 238.213 181.585C238.9 181.796 239.23 181.455 239.23 181.455C239.23 181.455 238.927 182.634 238.276 182.288C237.147 181.668 237.303 180.007 237.303 180.007Z" fill="#DAE1EF"/>
<path d="M146.173 153.594C143.767 155.044 143.431 157.929 143.562 159.755C143.693 161.581 144.76 161.65 145.634 160.361C146.508 159.073 147.214 152.958 146.173 153.594Z" fill="#394773"/>
<path style="mix-blend-mode:multiply" opacity="0.5" d="M146.174 153.594C145.442 154.102 144.83 154.766 144.384 155.537C143.938 156.308 143.668 157.166 143.595 158.049C143.547 159.041 145.892 159.269 146.312 158.277C146.731 157.286 146.979 153.164 146.174 153.594Z" fill="url(#paint38_linear_6456_58422)"/>
<path d="M143.544 158.756C143.544 158.756 142.825 162.423 143.781 162.875C144.738 163.328 146.016 159.371 146.016 159.371C146.016 159.371 145.109 161.213 144.183 160.941C143.256 160.669 143.544 158.756 143.544 158.756Z" fill="white"/>
<path d="M180.072 235.247C179.303 236.562 184.483 235.471 185.316 234.841C186.148 234.211 183.557 233.141 182.891 233.177C181.792 233.615 180.821 234.328 180.072 235.247Z" fill="white"/>
<path d="M210.226 208.169L151.217 225.214C152.395 228.105 153.967 230.813 155.891 233.263L162.467 234.786L220.353 217.96L235.212 159.538L233.24 153.251C230.966 151.184 228.339 149.54 225.481 148.394L210.226 208.169Z" fill="url(#paint39_linear_6456_58422)"/>
<path d="M162.467 234.787L155.891 233.263L217.816 215.508L233.239 153.252L235.211 159.538L220.353 217.961L162.467 234.787Z" fill="url(#paint40_linear_6456_58422)"/>
<path style="mix-blend-mode:multiply" opacity="0.5" d="M155.891 233.263L162.467 234.787L163.36 234.555L164.59 235.744C164.59 235.744 167.751 234.647 174.114 232.641C174.323 232.579 179.361 232.597 179.361 232.597C179.361 232.597 221.686 221.1 222.639 220.114C223.857 218.855 233.361 176.008 233.361 176.008C233.361 176.008 233.651 172.247 233.734 171.931L236.719 161.959L235.009 160.305L235.211 159.538L233.239 153.252L217.816 215.508L155.891 233.263Z" fill="url(#paint41_linear_6456_58422)"/>
<path style="mix-blend-mode:multiply" opacity="0.5" d="M210.227 208.17L217.818 215.509L233.241 153.252C230.936 151.226 228.317 149.586 225.482 148.395L210.227 208.17Z" fill="url(#paint42_linear_6456_58422)"/>
<g style="mix-blend-mode:soft-light" opacity="0.5">
<path d="M154.787 224.85C154.079 225.582 161.045 231.164 164.656 230.351C170.416 229.065 203.38 219.714 204.748 218.337C205.692 217.361 200.216 212.181 199.519 212.074C198.193 211.85 155.844 223.757 154.787 224.85Z" fill="white"/>
</g>
<g style="mix-blend-mode:soft-light" opacity="0.5">
<path d="M215.157 190.034C215.184 190.947 221.208 196.657 221.799 195.7C224.939 186.292 227.398 176.679 229.156 166.938C230.535 157.282 225.898 151.252 224.778 152.642C224.663 152.569 215.12 188.148 215.157 190.034Z" fill="white"/>
</g>
<path d="M187.734 224.169C187.734 224.169 216.283 216.309 217.434 215.118C218.585 213.927 223.965 190.845 223.965 190.845C223.965 190.845 218.723 215.496 218.317 215.915C217.911 216.335 187.734 224.169 187.734 224.169Z" fill="white"/>
<path d="M162.593 162.125L147.565 221.686C144.636 220.606 141.876 219.125 139.362 217.287L137.617 210.766L152.475 152.344L210.362 135.518L216.711 137.275C218.853 139.479 220.585 142.048 221.828 144.865L162.593 162.125Z" fill="url(#paint43_linear_6456_58422)"/>
<path d="M137.617 210.766L139.362 217.287L155.002 154.787L216.711 137.275L210.362 135.518L152.475 152.344L137.617 210.766Z" fill="url(#paint44_linear_6456_58422)"/>
<path style="mix-blend-mode:multiply" opacity="0.5" d="M162.595 162.124L155.004 154.786L216.713 137.275C218.815 139.51 220.543 142.072 221.83 144.865L162.595 162.124Z" fill="url(#paint45_linear_6456_58422)"/>
<g style="mix-blend-mode:soft-light" opacity="0.5">
<path d="M147.801 218.097C147.094 218.829 141.289 212.066 141.97 208.419C143.06 202.619 151.29 169.358 152.63 167.953C153.573 166.977 158.927 172.266 159.066 172.967C159.336 174.285 148.858 217.004 147.801 218.097Z" fill="white"/>
</g>
<g style="mix-blend-mode:soft-light" opacity="0.5">
<path d="M180.566 156.593C179.651 156.596 173.741 150.769 174.688 150.155C183.98 146.687 193.505 143.904 203.184 141.829C212.778 140.115 218.962 144.545 217.611 145.712C217.678 145.815 182.499 156.612 180.566 156.593Z" fill="white"/>
</g>
<path d="M147.376 185.154C147.376 185.154 154.275 156.366 155.426 155.175C156.577 153.984 179.455 147.817 179.455 147.817C179.455 147.817 154.996 153.89 154.59 154.31C154.184 154.729 147.376 185.154 147.376 185.154Z" fill="white"/>
<path style="mix-blend-mode:multiply" opacity="0.5" d="M148.055 219.776L162.596 162.124L220.102 145.364L221.587 147.328L212.312 151.654L211.309 154.46L168.407 167.439L157.494 211.55L154.572 212.804L150.217 221.866L148.055 219.776Z" fill="url(#paint46_linear_6456_58422)"/>
<path style="mix-blend-mode:multiply" opacity="0.5" d="M173.165 206.724L171.455 212.473L167.964 207.682L162.004 207.905L165.521 203.036L163.556 197.435L169.22 199.21L173.968 195.53L173.946 201.494L178.852 204.821L173.165 206.724Z" fill="url(#paint47_linear_6456_58422)"/>
<path d="M173.658 196.156L171.388 197.927L170.755 198.409L169.279 199.551L164.055 197.917L165.864 203.084L162.619 207.575L168.112 207.372L171.334 211.789L172.924 206.491L178.155 204.733L173.632 201.663L173.658 196.156Z" fill="url(#paint48_linear_6456_58422)"/>
<path style="mix-blend-mode:multiply" opacity="0.5" d="M162.602 207.594L169.714 203.236L168.105 207.382L162.602 207.594Z" fill="url(#paint49_linear_6456_58422)"/>
<path style="mix-blend-mode:multiply" opacity="0.5" d="M173.64 196.175L169.714 203.236L173.614 201.682L173.64 196.175Z" fill="url(#paint50_linear_6456_58422)"/>
<path style="mix-blend-mode:multiply" opacity="0.5" d="M172.905 206.511L169.713 203.237L171.315 211.809L172.905 206.511Z" fill="url(#paint51_linear_6456_58422)"/>
<path style="mix-blend-mode:multiply" opacity="0.5" d="M178.135 204.752L169.712 203.236L172.903 206.511L178.135 204.752Z" fill="url(#paint52_linear_6456_58422)"/>
<path style="mix-blend-mode:color-dodge" opacity="0.5" d="M164.035 197.938L169.712 203.237L169.26 199.571L164.035 197.938Z" fill="url(#paint53_linear_6456_58422)"/>
<path style="mix-blend-mode:color-dodge" opacity="0.5" d="M173.641 196.175L169.714 203.236L169.262 199.57L173.641 196.175Z" fill="url(#paint54_linear_6456_58422)"/>
<path style="mix-blend-mode:color-dodge" opacity="0.5" d="M173.641 196.175L169.714 203.236L169.262 199.57L173.641 196.175Z" fill="url(#paint55_linear_6456_58422)"/>
<path style="mix-blend-mode:color-dodge" opacity="0.5" d="M165.843 203.103L169.711 203.236L162.598 207.594L165.843 203.103Z" fill="url(#paint56_linear_6456_58422)"/>
<g style="mix-blend-mode:color-dodge" opacity="0.8">
<path d="M170.53 200.721C170.487 201.246 170.886 201.16 170.886 201.16L171.945 199.257C171.586 199.32 171.254 199.496 170.999 199.759C170.744 200.023 170.58 200.36 170.53 200.721Z" fill="white"/>
</g>
<path style="mix-blend-mode:multiply" opacity="0.5" d="M171.345 211.78C171.345 211.78 172.691 207.908 173.166 206.724L178.157 204.733L172.926 206.492L171.345 211.78Z" fill="url(#paint57_linear_6456_58422)"/>
<path style="mix-blend-mode:multiply" opacity="0.5" d="M162.602 207.594L169.714 203.236L169.329 209.038L162.602 207.594Z" fill="url(#paint58_linear_6456_58422)"/>
<path style="mix-blend-mode:multiply" opacity="0.5" d="M173.64 196.175L169.714 203.236L175.76 203.096L173.64 196.175Z" fill="url(#paint59_linear_6456_58422)"/>
<path style="mix-blend-mode:multiply" opacity="0.5" d="M171.335 211.789L169.714 203.236L178.156 204.733L174.202 207.726L171.335 211.789Z" fill="url(#paint60_linear_6456_58422)"/>
<g style="mix-blend-mode:soft-light" opacity="0.4">
<path d="M165.691 202.05C166.361 203.414 168.45 202.677 168.321 202.175C167.709 201.27 166.855 200.556 165.855 200.112C165.379 200.123 165.438 201.465 165.691 202.05Z" fill="#F7FFFF"/>
</g>
<g style="mix-blend-mode:soft-light" opacity="0.4">
<path d="M169.817 208.283C170.649 207.634 170.209 206.378 169.774 205.655C169.087 204.481 168.295 209.493 169.817 208.283Z" fill="#F7FFFF"/>
</g>
<path style="mix-blend-mode:multiply" opacity="0.5" d="M207.583 171.12L205.873 176.869L202.382 172.078L196.422 172.301L199.939 167.432L197.974 161.831L203.638 163.606L208.386 159.926L208.364 165.89L213.27 169.217L207.583 171.12Z" fill="url(#paint61_linear_6456_58422)"/>
<path d="M208.076 160.552L205.797 162.333L205.173 162.806L203.697 163.947L198.473 162.314L200.282 167.48L197.037 171.971L202.53 171.769L205.752 176.186L207.342 170.888L212.573 169.129L208.05 166.059L208.076 160.552Z" fill="url(#paint62_linear_6456_58422)"/>
<path style="mix-blend-mode:multiply" opacity="0.5" d="M197.02 171.99L204.132 167.632L202.513 171.788L197.02 171.99Z" fill="url(#paint63_linear_6456_58422)"/>
<path style="mix-blend-mode:multiply" opacity="0.5" d="M208.058 160.572L204.132 167.633L208.032 166.079L208.058 160.572Z" fill="url(#paint64_linear_6456_58422)"/>
<path style="mix-blend-mode:multiply" opacity="0.5" d="M207.323 170.907L204.131 167.633L205.733 176.205L207.323 170.907Z" fill="url(#paint65_linear_6456_58422)"/>
<path style="mix-blend-mode:multiply" opacity="0.5" d="M212.557 169.148L204.133 167.632L207.325 170.907L212.557 169.148Z" fill="url(#paint66_linear_6456_58422)"/>
<path style="mix-blend-mode:color-dodge" opacity="0.5" d="M198.457 162.333L204.134 167.632L203.682 163.966L198.457 162.333Z" fill="url(#paint67_linear_6456_58422)"/>
<path style="mix-blend-mode:color-dodge" opacity="0.5" d="M208.058 160.571L204.132 167.632L203.68 163.966L208.058 160.571Z" fill="url(#paint68_linear_6456_58422)"/>
<path style="mix-blend-mode:color-dodge" opacity="0.5" d="M208.058 160.571L204.132 167.632L203.68 163.966L208.058 160.571Z" fill="url(#paint69_linear_6456_58422)"/>
<path style="mix-blend-mode:color-dodge" opacity="0.5" d="M200.265 167.499L204.133 167.632L197.02 171.99L200.265 167.499Z" fill="url(#paint70_linear_6456_58422)"/>
<g style="mix-blend-mode:color-dodge" opacity="0.8">
<path d="M204.899 165.165C204.856 165.69 205.302 165.555 205.302 165.555L206.361 163.652C205.987 163.71 205.641 163.89 205.377 164.164C205.112 164.437 204.944 164.79 204.899 165.165Z" fill="white"/>
</g>
<path style="mix-blend-mode:multiply" opacity="0.5" d="M205.724 176.215C205.724 176.215 207.079 172.332 207.554 171.149L212.546 169.158L207.314 170.917L205.724 176.215Z" fill="url(#paint71_linear_6456_58422)"/>
<path style="mix-blend-mode:multiply" opacity="0.5" d="M197.02 171.99L204.132 167.632L203.747 173.434L197.02 171.99Z" fill="url(#paint72_linear_6456_58422)"/>
<path style="mix-blend-mode:multiply" opacity="0.5" d="M208.058 160.572L204.132 167.633L210.178 167.493L208.058 160.572Z" fill="url(#paint73_linear_6456_58422)"/>
<path style="mix-blend-mode:multiply" opacity="0.5" d="M205.753 176.185L204.132 167.632L212.574 169.129L208.62 172.123L205.753 176.185Z" fill="url(#paint74_linear_6456_58422)"/>
<g style="mix-blend-mode:soft-light" opacity="0.4">
<path d="M200.113 166.446C200.783 167.811 202.871 167.073 202.743 166.572C202.131 165.664 201.273 164.952 200.267 164.518C199.8 164.52 199.841 165.881 200.113 166.446Z" fill="#F7FFFF"/>
</g>
<g style="mix-blend-mode:soft-light" opacity="0.4">
<path d="M204.227 172.689C205.068 172.029 204.628 170.773 204.193 170.051C203.506 168.877 202.714 173.888 204.227 172.689Z" fill="#F7FFFF"/>
</g>
<path style="mix-blend-mode:multiply" opacity="0.5" d="M190.196 189.107L188.487 194.856L184.995 190.065L179.035 190.288L182.553 185.419L180.587 179.818L186.251 181.593L190.999 177.913L190.977 183.877L195.874 187.214L190.196 189.107Z" fill="url(#paint75_linear_6456_58422)"/>
<path d="M190.68 178.549L188.41 180.32L187.786 180.793L186.301 181.944L181.086 180.301L182.895 185.468L179.65 189.959L185.144 189.756L188.365 194.173L189.955 188.875L195.187 187.117L190.663 184.047L190.68 178.549Z" fill="url(#paint76_linear_6456_58422)"/>
<path style="mix-blend-mode:multiply" opacity="0.5" d="M179.629 189.978L186.742 185.62L185.122 189.776L179.629 189.978Z" fill="url(#paint77_linear_6456_58422)"/>
<path style="mix-blend-mode:multiply" opacity="0.5" d="M190.662 178.569L186.745 185.62L190.645 184.066L190.662 178.569Z" fill="url(#paint78_linear_6456_58422)"/>
<path style="mix-blend-mode:multiply" opacity="0.5" d="M189.936 188.894L186.744 185.62L188.346 194.192L189.936 188.894Z" fill="url(#paint79_linear_6456_58422)"/>
<path style="mix-blend-mode:multiply" opacity="0.5" d="M195.166 187.135L186.743 185.619L189.935 188.894L195.166 187.135Z" fill="url(#paint80_linear_6456_58422)"/>
<path style="mix-blend-mode:color-dodge" opacity="0.5" d="M181.066 180.321L186.743 185.62L186.282 181.964L181.066 180.321Z" fill="url(#paint81_linear_6456_58422)"/>
<path style="mix-blend-mode:color-dodge" opacity="0.5" d="M190.658 178.569L186.742 185.62L186.28 181.964L190.658 178.569Z" fill="url(#paint82_linear_6456_58422)"/>
<path style="mix-blend-mode:color-dodge" opacity="0.5" d="M190.658 178.569L186.742 185.62L186.28 181.964L190.658 178.569Z" fill="url(#paint83_linear_6456_58422)"/>
<path style="mix-blend-mode:color-dodge" opacity="0.5" d="M182.874 185.486L186.742 185.619L179.629 189.977L182.874 185.486Z" fill="url(#paint84_linear_6456_58422)"/>
<g style="mix-blend-mode:color-dodge" opacity="0.8">
<path d="M187.512 183.153C187.469 183.678 187.916 183.543 187.916 183.543L188.975 181.64C188.601 181.698 188.254 181.877 187.99 182.151C187.725 182.425 187.557 182.777 187.512 183.153Z" fill="white"/>
</g>
<path style="mix-blend-mode:multiply" opacity="0.5" d="M188.365 194.173C188.365 194.173 189.71 190.3 190.195 189.107L195.186 187.116L189.955 188.875L188.365 194.173Z" fill="url(#paint85_linear_6456_58422)"/>
<path style="mix-blend-mode:multiply" opacity="0.5" d="M179.629 189.978L186.742 185.62L186.357 191.422L179.629 189.978Z" fill="url(#paint86_linear_6456_58422)"/>
<path style="mix-blend-mode:multiply" opacity="0.5" d="M190.662 178.569L186.745 185.62L192.792 185.481L190.662 178.569Z" fill="url(#paint87_linear_6456_58422)"/>
<path style="mix-blend-mode:multiply" opacity="0.5" d="M188.366 194.173L186.745 185.62L195.187 187.116L191.234 190.11L188.366 194.173Z" fill="url(#paint88_linear_6456_58422)"/>
<g style="mix-blend-mode:soft-light" opacity="0.4">
<path d="M182.723 184.434C183.392 185.799 185.481 185.061 185.352 184.559C184.741 183.652 183.882 182.94 182.876 182.506C182.41 182.508 182.422 183.898 182.723 184.434Z" fill="#F7FFFF"/>
</g>
<g style="mix-blend-mode:soft-light" opacity="0.4">
<path d="M186.836 190.676C187.678 190.017 187.238 188.761 186.803 188.038C186.116 186.864 185.323 191.876 186.836 190.676Z" fill="#F7FFFF"/>
</g>
<path d="M60.6641 100.92L77.9751 104.384C79.644 104.718 81.3681 104.18 82.551 102.957L101.852 82.9916C103.035 81.768 103.514 80.0267 103.124 78.3701L99.076 61.1861L60.6641 100.92Z" fill="url(#paint89_linear_6456_58422)"/>
<path d="M83.4902 83.2823L86.4211 90.3218L79.3157 87.6005L77.6129 89.362L87.5974 93.1336L89.1543 91.5231L85.0568 81.6618L83.4902 83.2823ZM92.6714 87.8849L94.2477 86.2543L87.2018 79.4429L85.6255 81.0735L92.6714 87.8849ZM93.8327 94.1652L90.8843 97.2151L97.9302 104.026L99.5066 102.396L97.5639 100.518L98.9359 99.0986C100.756 97.2163 100.918 95.0948 99.3474 93.5768C97.7671 92.0491 95.6523 92.2829 93.8327 94.1652ZM97.5197 97.9048L96.2353 99.2334L93.7893 96.8689L95.0738 95.5402C96.0371 94.5437 96.9766 94.4783 97.7516 95.2276C98.5166 95.9671 98.483 96.9083 97.5197 97.9048Z" fill="white"/>
<path d="M31.9274 156.307L33.3286 154.858L42.7022 160.389L36.8316 151.234L38.2328 149.785L44.9364 160.772L43.1598 162.609L31.9274 156.307Z" fill="white"/>
<g style="mix-blend-mode:overlay">
<g style="mix-blend-mode:color-dodge">
<path fill-rule="evenodd" clip-rule="evenodd" d="M12.885 164.732C8.91425 160.893 8.80712 154.562 12.6457 150.592L145.77 12.8844C149.608 8.91364 155.939 8.8065 159.91 12.6451L233.944 84.2153C236.036 86.2372 237.005 89.1548 236.54 92.0264C236.074 94.8979 237.044 97.8155 239.135 99.8374L254.979 115.154C254.979 115.154 254.979 115.154 254.979 115.154C254.979 115.154 254.979 115.154 254.979 115.154L272.878 132.457C274.969 134.479 277.918 135.349 280.772 134.787C283.627 134.225 286.575 135.095 288.667 137.117L359.274 205.374C363.245 209.212 363.352 215.543 359.513 219.514L226.389 357.221C222.55 361.192 216.22 361.299 212.249 357.46L143.012 290.528C140.659 288.253 139.568 284.97 140.092 281.739L140.277 280.597C140.8 277.365 139.709 274.082 137.356 271.807L121.93 256.895C121.93 256.895 121.93 256.895 121.93 256.895C121.93 256.895 121.93 256.894 121.93 256.894L104.45 239.996C102.096 237.72 98.7782 236.741 95.5665 237.374L94.4309 237.598C91.2192 238.23 87.9011 237.251 85.5476 234.976L12.885 164.732Z" fill="url(#paint90_linear_6456_58422)"/>
</g>
</g>
</g>
<defs>
<filter id="filter0_f_6456_58422" x="0.140625" y="0.140137" width="371.875" height="369.825" filterUnits="userSpaceOnUse" colorInterpolationFilters="sRGB">
<feFlood floodOpacity="0" result="BackgroundImageFix"/>
<feBlend mode="normal" in="SourceGraphic" in2="BackgroundImageFix" result="shape"/>
<feGaussianBlur stdDeviation="3.5" result="effect1_foregroundBlur_6456_58422"/>
</filter>
<filter id="filter1_b_6456_58422" x="9.82812" y="132.238" width="233.371" height="228.926" filterUnits="userSpaceOnUse" colorInterpolationFilters="sRGB">
<feFlood floodOpacity="0" result="BackgroundImageFix"/>
<feGaussianBlur in="BackgroundImageFix" stdDeviation="13"/>
<feComposite in2="SourceAlpha" operator="in" result="effect1_backgroundBlur_6456_58422"/>
<feBlend mode="normal" in="SourceGraphic" in2="effect1_backgroundBlur_6456_58422" result="shape"/>
</filter>
<filter id="filter2_b_6456_58422" x="128.953" y="8.94043" width="233.371" height="228.926" filterUnits="userSpaceOnUse" colorInterpolationFilters="sRGB">
<feFlood floodOpacity="0" result="BackgroundImageFix"/>
<feGaussianBlur in="BackgroundImageFix" stdDeviation="13"/>
<feComposite in2="SourceAlpha" operator="in" result="effect1_backgroundBlur_6456_58422"/>
<feBlend mode="normal" in="SourceGraphic" in2="effect1_backgroundBlur_6456_58422" result="shape"/>
</filter>
<filter id="filter3_i_6456_58422" x="7.14062" y="7.14014" width="357.875" height="359.825" filterUnits="userSpaceOnUse" colorInterpolationFilters="sRGB">
<feFlood floodOpacity="0" result="BackgroundImageFix"/>
<feBlend mode="normal" in="SourceGraphic" in2="BackgroundImageFix" result="shape"/>
<feColorMatrix in="SourceAlpha" type="matrix" values="0 0 0 0 0 0 0 0 0 0 0 0 0 0 0 0 0 0 127 0" result="hardAlpha"/>
<feOffset dy="5"/>
<feGaussianBlur stdDeviation="2"/>
<feComposite in2="hardAlpha" operator="arithmetic" k2="-1" k3="1"/>
<feColorMatrix type="matrix" values="0 0 0 0 0 0 0 0 0 0 0 0 0 0 0 0 0 0 0.25 0"/>
<feBlend mode="normal" in2="shape" result="effect1_innerShadow_6456_58422"/>
</filter>
<filter id="filter4_f_6456_58422" x="60.2227" y="58.4102" width="252.375" height="252.6" filterUnits="userSpaceOnUse" colorInterpolationFilters="sRGB">
<feFlood floodOpacity="0" result="BackgroundImageFix"/>
<feBlend mode="normal" in="SourceGraphic" in2="BackgroundImageFix" result="shape"/>
<feGaussianBlur stdDeviation="37.5" result="effect1_foregroundBlur_6456_58422"/>
</filter>
<filter id="filter5_f_6456_58422" x="149.168" y="15.4928" width="5.63363" height="48.5159" filterUnits="userSpaceOnUse" colorInterpolationFilters="sRGB">
<feFlood floodOpacity="0" result="BackgroundImageFix"/>
<feBlend mode="normal" in="SourceGraphic" in2="BackgroundImageFix" result="shape"/>
<feGaussianBlur stdDeviation="1.092" result="effect1_foregroundBlur_6456_58422"/>
</filter>
<filter id="filter6_f_6456_58422" x="148.668" y="9.21639" width="6.62581" height="61.0701" filterUnits="userSpaceOnUse" colorInterpolationFilters="sRGB">
<feFlood floodOpacity="0" result="BackgroundImageFix"/>
<feBlend mode="normal" in="SourceGraphic" in2="BackgroundImageFix" result="shape"/>
<feGaussianBlur stdDeviation="1.092" result="effect1_foregroundBlur_6456_58422"/>
</filter>
<filter id="filter7_f_6456_58422" x="148.668" y="9.21639" width="6.62581" height="61.0701" filterUnits="userSpaceOnUse" colorInterpolationFilters="sRGB">
<feFlood floodOpacity="0" result="BackgroundImageFix"/>
<feBlend mode="normal" in="SourceGraphic" in2="BackgroundImageFix" result="shape"/>
<feGaussianBlur stdDeviation="1.092" result="effect1_foregroundBlur_6456_58422"/>
</filter>
<filter id="filter8_f_6456_58422" x="142.32" y="15.7667" width="5.63363" height="48.5159" filterUnits="userSpaceOnUse" colorInterpolationFilters="sRGB">
<feFlood floodOpacity="0" result="BackgroundImageFix"/>
<feBlend mode="normal" in="SourceGraphic" in2="BackgroundImageFix" result="shape"/>
<feGaussianBlur stdDeviation="1.092" result="effect1_foregroundBlur_6456_58422"/>
</filter>
<filter id="filter9_f_6456_58422" x="156.32" y="17.4962" width="5.37581" height="48.5116" filterUnits="userSpaceOnUse" colorInterpolationFilters="sRGB">
<feFlood floodOpacity="0" result="BackgroundImageFix"/>
<feBlend mode="normal" in="SourceGraphic" in2="BackgroundImageFix" result="shape"/>
<feGaussianBlur stdDeviation="1.092" result="effect1_foregroundBlur_6456_58422"/>
</filter>
<linearGradient id="paint0_linear_6456_58422" x1="181.018" y1="335.222" x2="66.2399" y2="123.858" gradientUnits="userSpaceOnUse">
<stop stop-color="#060913"/>
<stop offset="0.136764" stop-color="#070A16"/>
<stop offset="0.197268" stop-color="#0D142E"/>
<stop offset="0.309253" stop-color="#070B17"/>
<stop offset="0.490764" stop-color="#080C1A"/>
<stop offset="0.661458" stop-color="#0B1125"/>
<stop offset="1" stop-color="#101010"/>
</linearGradient>
<linearGradient id="paint1_linear_6456_58422" x1="215.291" y1="327.933" x2="241.22" y2="269.655" gradientUnits="userSpaceOnUse">
<stop stop-color="#EECCA2"/>
<stop offset="0.260417" stop-color="#624A2C"/>
<stop offset="0.6875" stop-color="#FFDAAB"/>
<stop offset="1" stop-color="#C68C43"/>
</linearGradient>
<linearGradient id="paint2_linear_6456_58422" x1="191.134" y1="34.8823" x2="305.912" y2="246.247" gradientUnits="userSpaceOnUse">
<stop stop-color="#060913"/>
<stop offset="0.136764" stop-color="#070A16"/>
<stop offset="0.197268" stop-color="#0D142E"/>
<stop offset="0.309253" stop-color="#070B17"/>
<stop offset="0.490764" stop-color="#080C1A"/>
<stop offset="0.661458" stop-color="#0B1125"/>
<stop offset="1" stop-color="#101010"/>
</linearGradient>
<linearGradient id="paint3_linear_6456_58422" x1="156.861" y1="42.1713" x2="130.933" y2="100.45" gradientUnits="userSpaceOnUse">
<stop stop-color="#EECCA2"/>
<stop offset="0.260417" stop-color="#624A2C"/>
<stop offset="0.6875" stop-color="#FFDAAB"/>
<stop offset="1" stop-color="#C68C43"/>
</linearGradient>
<linearGradient id="paint4_linear_6456_58422" x1="96.4616" y1="26.1887" x2="232.168" y2="399.91" gradientUnits="userSpaceOnUse">
<stop stop-color="#C68C43"/>
<stop offset="0.119792" stop-color="#F5BA6E"/>
<stop offset="0.286458" stop-color="#C68C43"/>
<stop offset="0.5625" stop-color="#C68C43"/>
<stop offset="0.770833" stop-color="#EEB873"/>
<stop offset="1" stop-color="#C68C43"/>
</linearGradient>
<linearGradient id="paint5_linear_6456_58422" x1="46.8831" y1="192.296" x2="189.272" y2="45.0054" gradientUnits="userSpaceOnUse">
<stop stop-color="#8980EB"/>
<stop offset="1" stop-color="#705AB8"/>
</linearGradient>
<linearGradient id="paint6_linear_6456_58422" x1="185.998" y1="184.355" x2="31.572" y2="35.0689" gradientUnits="userSpaceOnUse">
<stop stop-color="#86759D"/>
<stop offset="0.39" stop-color="#98ABD2"/>
<stop offset="1" stop-color="#DAE1EF"/>
</linearGradient>
<linearGradient id="paint7_linear_6456_58422" x1="53.644" y1="188.985" x2="120.841" y2="119.475" gradientUnits="userSpaceOnUse">
<stop stop-color="#705AB8"/>
<stop offset="1" stop-color="white"/>
</linearGradient>
<linearGradient id="paint8_linear_6456_58422" x1="120.832" y1="119.483" x2="185.73" y2="52.3508" gradientUnits="userSpaceOnUse">
<stop stop-color="#705AB8"/>
<stop offset="1" stop-color="white"/>
</linearGradient>
<linearGradient id="paint9_linear_6456_58422" x1="111.412" y1="194.45" x2="153.423" y2="150.992" gradientUnits="userSpaceOnUse">
<stop stop-color="#705AB8"/>
<stop offset="1" stop-color="white"/>
</linearGradient>
<linearGradient id="paint10_linear_6456_58422" x1="152.279" y1="152.176" x2="193.088" y2="109.961" gradientUnits="userSpaceOnUse">
<stop stop-color="#705AB8"/>
<stop offset="1" stop-color="white"/>
</linearGradient>
<linearGradient id="paint11_linear_6456_58422" x1="69.5881" y1="60.2121" x2="165.431" y2="134.567" gradientUnits="userSpaceOnUse">
<stop stop-color="#BFD7FF"/>
<stop offset="1"/>
</linearGradient>
<linearGradient id="paint12_linear_6456_58422" x1="109.86" y1="108.876" x2="174.758" y2="41.7433" gradientUnits="userSpaceOnUse">
<stop stop-color="#BFD7FF"/>
<stop offset="1"/>
</linearGradient>
<linearGradient id="paint13_linear_6456_58422" x1="89.3077" y1="34.842" x2="185.097" y2="109.144" gradientUnits="userSpaceOnUse">
<stop stop-color="#BFD7FF"/>
<stop offset="1"/>
</linearGradient>
<linearGradient id="paint14_linear_6456_58422" x1="31.4007" y1="109.451" x2="127.19" y2="183.754" gradientUnits="userSpaceOnUse">
<stop stop-color="#BFD7FF"/>
<stop offset="1"/>
</linearGradient>
<linearGradient id="paint15_linear_6456_58422" x1="131.678" y1="213.508" x2="213.297" y2="129.079" gradientUnits="userSpaceOnUse">
<stop stop-color="#8980EB"/>
<stop offset="1" stop-color="#705AB8"/>
</linearGradient>
<linearGradient id="paint16_linear_6456_58422" x1="162.839" y1="250.668" x2="142.891" y2="231.384" gradientUnits="userSpaceOnUse">
<stop offset="0.21" stop-color="#98ABD2"/>
<stop offset="0.49" stop-color="#72719D"/>
<stop offset="1" stop-color="#DAE1EF"/>
</linearGradient>
<linearGradient id="paint17_linear_6456_58422" x1="163.192" y1="246.325" x2="153.76" y2="237.353" gradientUnits="userSpaceOnUse">
<stop stop-color="#705AB8"/>
<stop offset="1" stop-color="white"/>
</linearGradient>
<linearGradient id="paint18_linear_6456_58422" x1="156.413" y1="237.261" x2="163.773" y2="229.649" gradientUnits="userSpaceOnUse">
<stop stop-color="#8980EB"/>
<stop offset="1" stop-color="#705AB8"/>
</linearGradient>
<linearGradient id="paint19_linear_6456_58422" x1="250.86" y1="159.618" x2="230.912" y2="140.334" gradientUnits="userSpaceOnUse">
<stop offset="0.21" stop-color="#98ABD2"/>
<stop offset="0.49" stop-color="#72719D"/>
<stop offset="1" stop-color="#DAE1EF"/>
</linearGradient>
<linearGradient id="paint20_linear_6456_58422" x1="246.533" y1="160.116" x2="237.256" y2="150.983" gradientUnits="userSpaceOnUse">
<stop stop-color="#705AB8"/>
<stop offset="1" stop-color="white"/>
</linearGradient>
<linearGradient id="paint21_linear_6456_58422" x1="237.254" y1="153.638" x2="229.895" y2="161.251" gradientUnits="userSpaceOnUse">
<stop stop-color="#8980EB"/>
<stop offset="1" stop-color="#705AB8"/>
</linearGradient>
<linearGradient id="paint22_linear_6456_58422" x1="234.39" y1="231.475" x2="155.089" y2="154.813" gradientUnits="userSpaceOnUse">
<stop offset="0.21" stop-color="#98ABD2"/>
<stop offset="0.49" stop-color="#72719D"/>
<stop offset="1" stop-color="#DAE1EF"/>
</linearGradient>
<linearGradient id="paint23_linear_6456_58422" x1="152.727" y1="152.528" x2="224.976" y2="222.372" gradientUnits="userSpaceOnUse">
<stop offset="0.21" stop-color="#98ABD2"/>
<stop offset="0.49" stop-color="#72719D"/>
<stop offset="1" stop-color="#DAE1EF"/>
</linearGradient>
<linearGradient id="paint24_linear_6456_58422" x1="187.66" y1="251.646" x2="143.94" y2="209.381" gradientUnits="userSpaceOnUse">
<stop stop-color="#705AB8"/>
<stop offset="1" stop-color="white"/>
</linearGradient>
<linearGradient id="paint25_linear_6456_58422" x1="252.826" y1="184.234" x2="209.106" y2="141.969" gradientUnits="userSpaceOnUse">
<stop stop-color="#705AB8"/>
<stop offset="1" stop-color="white"/>
</linearGradient>
<linearGradient id="paint26_linear_6456_58422" x1="177.883" y1="229.109" x2="223.771" y2="239.509" gradientUnits="userSpaceOnUse">
<stop stop-color="#705AB8"/>
<stop offset="1" stop-color="white"/>
</linearGradient>
<linearGradient id="paint27_linear_6456_58422" x1="220.171" y1="192.595" x2="269.912" y2="216.504" gradientUnits="userSpaceOnUse">
<stop stop-color="#705AB8"/>
<stop offset="1" stop-color="white"/>
</linearGradient>
<linearGradient id="paint28_linear_6456_58422" x1="227.532" y1="224.995" x2="167.083" y2="166.558" gradientUnits="userSpaceOnUse">
<stop stop-color="#705AB8"/>
<stop offset="1" stop-color="white"/>
</linearGradient>
<linearGradient id="paint29_linear_6456_58422" x1="148.547" y1="207.285" x2="207.3" y2="146.51" gradientUnits="userSpaceOnUse">
<stop stop-color="#8980EB"/>
<stop offset="1" stop-color="#705AB8"/>
</linearGradient>
<linearGradient id="paint30_linear_6456_58422" x1="122.666" y1="195.236" x2="172.294" y2="143.898" gradientUnits="userSpaceOnUse">
<stop stop-color="#728EE3"/>
<stop offset="1" stop-color="#836888"/>
</linearGradient>
<linearGradient id="paint31_linear_6456_58422" x1="173.584" y1="244.458" x2="245.309" y2="170.263" gradientUnits="userSpaceOnUse">
<stop stop-color="#728EE3"/>
<stop offset="1" stop-color="#836888"/>
</linearGradient>
<linearGradient id="paint32_linear_6456_58422" x1="231.915" y1="197.116" x2="248.851" y2="179.597" gradientUnits="userSpaceOnUse">
<stop stop-color="#8980EB"/>
<stop offset="1" stop-color="#705AB8"/>
</linearGradient>
<linearGradient id="paint33_linear_6456_58422" x1="149.219" y1="207.669" x2="151.078" y2="205.746" gradientUnits="userSpaceOnUse">
<stop stop-color="#8980EB"/>
<stop offset="1" stop-color="#705AB8"/>
</linearGradient>
<linearGradient id="paint34_linear_6456_58422" x1="204.899" y1="148.264" x2="206.626" y2="146.478" gradientUnits="userSpaceOnUse">
<stop stop-color="#8980EB"/>
<stop offset="1" stop-color="#705AB8"/>
</linearGradient>
<linearGradient id="paint35_linear_6456_58422" x1="139.92" y1="166.372" x2="153.063" y2="152.776" gradientUnits="userSpaceOnUse">
<stop stop-color="#8980EB"/>
<stop offset="1" stop-color="#705AB8"/>
</linearGradient>
<linearGradient id="paint36_linear_6456_58422" x1="201.124" y1="182.196" x2="203.91" y2="183.011" gradientUnits="userSpaceOnUse">
<stop stop-color="#8980EB"/>
<stop offset="1" stop-color="#705AB8"/>
</linearGradient>
<linearGradient id="paint37_linear_6456_58422" x1="203.999" y1="178.849" x2="206.105" y2="179.465" gradientUnits="userSpaceOnUse">
<stop stop-color="#8980EB"/>
<stop offset="1" stop-color="#705AB8"/>
</linearGradient>
<linearGradient id="paint38_linear_6456_58422" x1="143.971" y1="155.557" x2="146.648" y2="156.386" gradientUnits="userSpaceOnUse">
<stop stop-color="#8980EB"/>
<stop offset="1" stop-color="#705AB8"/>
</linearGradient>
<linearGradient id="paint39_linear_6456_58422" x1="162.02" y1="161.795" x2="219.5" y2="217.362" gradientUnits="userSpaceOnUse">
<stop offset="0.21" stop-color="#98ABD2"/>
<stop offset="0.49" stop-color="#72719D"/>
<stop offset="1" stop-color="#DAE1EF"/>
</linearGradient>
<linearGradient id="paint40_linear_6456_58422" x1="168.728" y1="245.673" x2="246.077" y2="165.662" gradientUnits="userSpaceOnUse">
<stop offset="0.21" stop-color="#98ABD2"/>
<stop offset="0.49" stop-color="#72719D"/>
<stop offset="1" stop-color="#DAE1EF"/>
</linearGradient>
<linearGradient id="paint41_linear_6456_58422" x1="222.978" y1="220.725" x2="199.024" y2="197.567" gradientUnits="userSpaceOnUse">
<stop stop-color="#8980EB"/>
<stop offset="1" stop-color="#705AB8"/>
</linearGradient>
<linearGradient id="paint42_linear_6456_58422" x1="210.173" y1="224.821" x2="177.953" y2="198.536" gradientUnits="userSpaceOnUse">
<stop stop-color="#705AB8"/>
<stop offset="1" stop-color="white"/>
</linearGradient>
<linearGradient id="paint43_linear_6456_58422" x1="126.498" y1="211.346" x2="224.406" y2="110.068" gradientUnits="userSpaceOnUse">
<stop offset="0.21" stop-color="#98ABD2"/>
<stop offset="0.49" stop-color="#72719D"/>
<stop offset="1" stop-color="#DAE1EF"/>
</linearGradient>
<linearGradient id="paint44_linear_6456_58422" x1="193.382" y1="192.116" x2="149.47" y2="149.665" gradientUnits="userSpaceOnUse">
<stop offset="0.21" stop-color="#98ABD2"/>
<stop offset="0.49" stop-color="#72719D"/>
<stop offset="1" stop-color="#DAE1EF"/>
</linearGradient>
<linearGradient id="paint45_linear_6456_58422" x1="145.956" y1="162.742" x2="173.316" y2="194.054" gradientUnits="userSpaceOnUse">
<stop stop-color="#705AB8"/>
<stop offset="1" stop-color="white"/>
</linearGradient>
<linearGradient id="paint46_linear_6456_58422" x1="186.615" y1="185.023" x2="166.504" y2="165.581" gradientUnits="userSpaceOnUse">
<stop stop-color="#8980EB"/>
<stop offset="1" stop-color="#705AB8"/>
</linearGradient>
<linearGradient id="paint47_linear_6456_58422" x1="175.365" y1="208.852" x2="161.596" y2="195.54" gradientUnits="userSpaceOnUse">
<stop stop-color="#8980EB"/>
<stop offset="1" stop-color="#705AB8"/>
</linearGradient>
<linearGradient id="paint48_linear_6456_58422" x1="174.951" y1="208.451" x2="162.248" y2="196.171" gradientUnits="userSpaceOnUse">
<stop stop-color="#86759D"/>
<stop offset="0.39" stop-color="#98ABD2"/>
<stop offset="1" stop-color="#DAE1EF"/>
</linearGradient>
<linearGradient id="paint49_linear_6456_58422" x1="163.976" y1="208.923" x2="169.589" y2="203.115" gradientUnits="userSpaceOnUse">
<stop stop-color="#705AB8"/>
<stop offset="1" stop-color="white"/>
</linearGradient>
<linearGradient id="paint50_linear_6456_58422" x1="169.589" y1="203.115" x2="175.014" y2="197.503" gradientUnits="userSpaceOnUse">
<stop stop-color="#705AB8"/>
<stop offset="1" stop-color="white"/>
</linearGradient>
<linearGradient id="paint51_linear_6456_58422" x1="168.759" y1="209.338" x2="172.269" y2="205.707" gradientUnits="userSpaceOnUse">
<stop stop-color="#705AB8"/>
<stop offset="1" stop-color="white"/>
</linearGradient>
<linearGradient id="paint52_linear_6456_58422" x1="172.173" y1="205.805" x2="175.579" y2="202.282" gradientUnits="userSpaceOnUse">
<stop stop-color="#705AB8"/>
<stop offset="1" stop-color="white"/>
</linearGradient>
<linearGradient id="paint53_linear_6456_58422" x1="165.381" y1="198.238" x2="173.245" y2="204.357" gradientUnits="userSpaceOnUse">
<stop stop-color="#BFD7FF"/>
<stop offset="1"/>
</linearGradient>
<linearGradient id="paint54_linear_6456_58422" x1="168.686" y1="202.242" x2="174.111" y2="196.63" gradientUnits="userSpaceOnUse">
<stop stop-color="#BFD7FF"/>
<stop offset="1"/>
</linearGradient>
<linearGradient id="paint55_linear_6456_58422" x1="167.03" y1="196.11" x2="174.904" y2="202.238" gradientUnits="userSpaceOnUse">
<stop stop-color="#BFD7FF"/>
<stop offset="1"/>
</linearGradient>
<linearGradient id="paint56_linear_6456_58422" x1="162.179" y1="202.336" x2="170.052" y2="208.465" gradientUnits="userSpaceOnUse">
<stop stop-color="#BFD7FF"/>
<stop offset="1"/>
</linearGradient>
<linearGradient id="paint57_linear_6456_58422" x1="170.432" y1="210.898" x2="177.244" y2="203.851" gradientUnits="userSpaceOnUse">
<stop stop-color="#8980EB"/>
<stop offset="1" stop-color="#705AB8"/>
</linearGradient>
<linearGradient id="paint58_linear_6456_58422" x1="164.706" y1="209.629" x2="170.32" y2="203.821" gradientUnits="userSpaceOnUse">
<stop stop-color="#8980EB"/>
<stop offset="1" stop-color="#705AB8"/>
</linearGradient>
<linearGradient id="paint59_linear_6456_58422" x1="170.492" y1="203.989" x2="175.917" y2="198.377" gradientUnits="userSpaceOnUse">
<stop stop-color="#8980EB"/>
<stop offset="1" stop-color="#705AB8"/>
</linearGradient>
<linearGradient id="paint60_linear_6456_58422" x1="168.788" y1="209.308" x2="175.6" y2="202.262" gradientUnits="userSpaceOnUse">
<stop stop-color="#8980EB"/>
<stop offset="1" stop-color="#705AB8"/>
</linearGradient>
<linearGradient id="paint61_linear_6456_58422" x1="209.783" y1="173.248" x2="196.014" y2="159.936" gradientUnits="userSpaceOnUse">
<stop stop-color="#8980EB"/>
<stop offset="1" stop-color="#705AB8"/>
</linearGradient>
<linearGradient id="paint62_linear_6456_58422" x1="209.369" y1="172.848" x2="196.666" y2="160.568" gradientUnits="userSpaceOnUse">
<stop stop-color="#86759D"/>
<stop offset="0.39" stop-color="#98ABD2"/>
<stop offset="1" stop-color="#DAE1EF"/>
</linearGradient>
<linearGradient id="paint63_linear_6456_58422" x1="198.394" y1="173.319" x2="204.007" y2="167.511" gradientUnits="userSpaceOnUse">
<stop stop-color="#705AB8"/>
<stop offset="1" stop-color="white"/>
</linearGradient>
<linearGradient id="paint64_linear_6456_58422" x1="204.007" y1="167.512" x2="209.432" y2="161.9" gradientUnits="userSpaceOnUse">
<stop stop-color="#705AB8"/>
<stop offset="1" stop-color="white"/>
</linearGradient>
<linearGradient id="paint65_linear_6456_58422" x1="203.177" y1="173.735" x2="206.687" y2="170.104" gradientUnits="userSpaceOnUse">
<stop stop-color="#705AB8"/>
<stop offset="1" stop-color="white"/>
</linearGradient>
<linearGradient id="paint66_linear_6456_58422" x1="206.595" y1="170.201" x2="210.001" y2="166.678" gradientUnits="userSpaceOnUse">
<stop stop-color="#705AB8"/>
<stop offset="1" stop-color="white"/>
</linearGradient>
<linearGradient id="paint67_linear_6456_58422" x1="199.803" y1="162.633" x2="207.666" y2="168.752" gradientUnits="userSpaceOnUse">
<stop stop-color="#BFD7FF"/>
<stop offset="1"/>
</linearGradient>
<linearGradient id="paint68_linear_6456_58422" x1="203.104" y1="166.638" x2="208.529" y2="161.027" gradientUnits="userSpaceOnUse">
<stop stop-color="#BFD7FF"/>
<stop offset="1"/>
</linearGradient>
<linearGradient id="paint69_linear_6456_58422" x1="201.448" y1="160.506" x2="209.322" y2="166.635" gradientUnits="userSpaceOnUse">
<stop stop-color="#BFD7FF"/>
<stop offset="1"/>
</linearGradient>
<linearGradient id="paint70_linear_6456_58422" x1="196.601" y1="166.733" x2="204.474" y2="172.861" gradientUnits="userSpaceOnUse">
<stop stop-color="#BFD7FF"/>
<stop offset="1"/>
</linearGradient>
<linearGradient id="paint71_linear_6456_58422" x1="204.84" y1="175.303" x2="211.661" y2="168.246" gradientUnits="userSpaceOnUse">
<stop stop-color="#8980EB"/>
<stop offset="1" stop-color="#705AB8"/>
</linearGradient>
<linearGradient id="paint72_linear_6456_58422" x1="199.124" y1="174.025" x2="204.738" y2="168.217" gradientUnits="userSpaceOnUse">
<stop stop-color="#8980EB"/>
<stop offset="1" stop-color="#705AB8"/>
</linearGradient>
<linearGradient id="paint73_linear_6456_58422" x1="204.91" y1="168.385" x2="210.335" y2="162.773" gradientUnits="userSpaceOnUse">
<stop stop-color="#8980EB"/>
<stop offset="1" stop-color="#705AB8"/>
</linearGradient>
<linearGradient id="paint74_linear_6456_58422" x1="203.197" y1="173.715" x2="210.018" y2="166.658" gradientUnits="userSpaceOnUse">
<stop stop-color="#8980EB"/>
<stop offset="1" stop-color="#705AB8"/>
</linearGradient>
<linearGradient id="paint75_linear_6456_58422" x1="192.397" y1="191.234" x2="178.627" y2="177.923" gradientUnits="userSpaceOnUse">
<stop stop-color="#8980EB"/>
<stop offset="1" stop-color="#705AB8"/>
</linearGradient>
<linearGradient id="paint76_linear_6456_58422" x1="191.982" y1="190.835" x2="179.279" y2="178.555" gradientUnits="userSpaceOnUse">
<stop stop-color="#86759D"/>
<stop offset="0.39" stop-color="#98ABD2"/>
<stop offset="1" stop-color="#DAE1EF"/>
</linearGradient>
<linearGradient id="paint77_linear_6456_58422" x1="181.003" y1="191.306" x2="186.617" y2="185.499" gradientUnits="userSpaceOnUse">
<stop stop-color="#705AB8"/>
<stop offset="1" stop-color="white"/>
</linearGradient>
<linearGradient id="paint78_linear_6456_58422" x1="186.62" y1="185.5" x2="192.036" y2="179.898" gradientUnits="userSpaceOnUse">
<stop stop-color="#705AB8"/>
<stop offset="1" stop-color="white"/>
</linearGradient>
<linearGradient id="paint79_linear_6456_58422" x1="185.79" y1="191.721" x2="189.3" y2="188.091" gradientUnits="userSpaceOnUse">
<stop stop-color="#705AB8"/>
<stop offset="1" stop-color="white"/>
</linearGradient>
<linearGradient id="paint80_linear_6456_58422" x1="189.204" y1="188.188" x2="192.61" y2="184.664" gradientUnits="userSpaceOnUse">
<stop stop-color="#705AB8"/>
<stop offset="1" stop-color="white"/>
</linearGradient>
<linearGradient id="paint81_linear_6456_58422" x1="182.412" y1="180.621" x2="190.276" y2="186.74" gradientUnits="userSpaceOnUse">
<stop stop-color="#BFD7FF"/>
<stop offset="1"/>
</linearGradient>
<linearGradient id="paint82_linear_6456_58422" x1="185.714" y1="184.626" x2="191.129" y2="179.024" gradientUnits="userSpaceOnUse">
<stop stop-color="#BFD7FF"/>
<stop offset="1"/>
</linearGradient>
<linearGradient id="paint83_linear_6456_58422" x1="184.058" y1="178.494" x2="191.931" y2="184.622" gradientUnits="userSpaceOnUse">
<stop stop-color="#BFD7FF"/>
<stop offset="1"/>
</linearGradient>
<linearGradient id="paint84_linear_6456_58422" x1="179.21" y1="184.719" x2="187.083" y2="190.848" gradientUnits="userSpaceOnUse">
<stop stop-color="#BFD7FF"/>
<stop offset="1"/>
</linearGradient>
<linearGradient id="paint85_linear_6456_58422" x1="187.452" y1="193.29" x2="194.273" y2="186.234" gradientUnits="userSpaceOnUse">
<stop stop-color="#8980EB"/>
<stop offset="1" stop-color="#705AB8"/>
</linearGradient>
<linearGradient id="paint86_linear_6456_58422" x1="181.733" y1="192.012" x2="187.347" y2="186.205" gradientUnits="userSpaceOnUse">
<stop stop-color="#8980EB"/>
<stop offset="1" stop-color="#705AB8"/>
</linearGradient>
<linearGradient id="paint87_linear_6456_58422" x1="187.523" y1="186.373" x2="192.939" y2="180.771" gradientUnits="userSpaceOnUse">
<stop stop-color="#8980EB"/>
<stop offset="1" stop-color="#705AB8"/>
</linearGradient>
<linearGradient id="paint88_linear_6456_58422" x1="185.81" y1="191.702" x2="192.631" y2="184.645" gradientUnits="userSpaceOnUse">
<stop stop-color="#8980EB"/>
<stop offset="1" stop-color="#705AB8"/>
</linearGradient>
<linearGradient id="paint89_linear_6456_58422" x1="89.7471" y1="67.4088" x2="76.0326" y2="113.127" gradientUnits="userSpaceOnUse">
<stop stop-color="#C68C43"/>
<stop offset="0.119792" stop-color="#F5BA6E"/>
<stop offset="0.286458" stop-color="#C68C43"/>
<stop offset="0.5625" stop-color="#C68C43"/>
<stop offset="0.770833" stop-color="#EEB873"/>
<stop offset="1" stop-color="#C68C43"/>
</linearGradient>
<linearGradient id="paint90_linear_6456_58422" x1="89.1512" y1="151.652" x2="89.325" y2="221.394" gradientUnits="userSpaceOnUse">
<stop stop-color="white" stop-opacity="0"/>
<stop offset="0.440223" stop-color="white"/>
<stop offset="1" stop-color="white" stop-opacity="0"/>
</linearGradient>
</defs>
</svg>
