<svg width="354" height="387" viewBox="0 0 354 387" fill="none" xmlns="http://www.w3.org/2000/svg">
<g filter="url(#filter0_b_6456_57840)">
<path d="M143.928 346.291C141.536 347.672 138.478 346.852 137.098 344.461L26.0976 152.203C24.7169 149.812 25.5363 146.754 27.9278 145.373L55.6406 129.373L171.641 330.291L143.928 346.291Z" fill="url(#paint0_linear_6456_57840)"/>
<path d="M143.428 345.425C141.515 346.53 139.068 345.874 137.964 343.961L26.9637 151.703C25.8591 149.79 26.5146 147.344 28.4278 146.239L55.2746 130.739L170.275 329.925L143.428 345.425Z" stroke="url(#paint1_linear_6456_57840)" stroke-width="2"/>
</g>
<g filter="url(#filter1_b_6456_57840)">
<path d="M209.795 40.373C212.186 38.9923 215.244 39.8117 216.625 42.2032L327.625 234.461C329.006 236.852 328.186 239.91 325.795 241.291L298.082 257.291L182.082 56.3731L209.795 40.373Z" fill="url(#paint2_linear_6456_57840)"/>
<path d="M210.295 41.2391C212.208 40.1345 214.654 40.79 215.759 42.7032L326.759 234.961C327.864 236.874 327.208 239.32 325.295 240.425L298.448 255.925L183.448 56.7391L210.295 41.2391Z" stroke="url(#paint3_linear_6456_57840)" stroke-width="2"/>
</g>
<mask id="path-5-inside-1_6456_57840" fill="white">
<path fill-rule="evenodd" clip-rule="evenodd" d="M5 121.66C2.23858 116.877 3.87733 110.761 8.66026 108L187.061 5C191.844 2.23858 197.96 3.87733 200.722 8.66025L253.783 100.565C255.42 103.4 255.565 106.857 254.173 109.819L252.918 112.488C251.526 115.451 251.671 118.907 253.308 121.742L264.695 141.466L266.195 144.064L277.583 163.788C279.22 166.623 282.14 168.477 285.402 168.752L288.341 169C291.603 169.276 294.524 171.13 296.16 173.965L348.722 265.004C351.483 269.787 349.844 275.903 345.061 278.664L166.66 381.664C161.877 384.425 155.761 382.787 153 378.004L100.439 286.965C98.8019 284.13 98.6563 280.673 100.049 277.711L101.304 275.042C102.696 272.079 102.55 268.623 100.914 265.788L89.5263 246.064L88.0263 243.466L76.6389 223.742C75.0021 220.907 72.0815 219.053 68.8196 218.778L65.8806 218.53C62.6187 218.254 59.6981 216.4 58.0613 213.565L5 121.66Z"/>
</mask>
<g filter="url(#filter2_i_6456_57840)">
<path fill-rule="evenodd" clip-rule="evenodd" d="M5 121.66C2.23858 116.877 3.87733 110.761 8.66026 108L187.061 5C191.844 2.23858 197.96 3.87733 200.722 8.66025L253.783 100.565C255.42 103.4 255.565 106.857 254.173 109.819L252.918 112.488C251.526 115.451 251.671 118.907 253.308 121.742L264.695 141.466L266.195 144.064L277.583 163.788C279.22 166.623 282.14 168.477 285.402 168.752L288.341 169C291.603 169.276 294.524 171.13 296.16 173.965L348.722 265.004C351.483 269.787 349.844 275.903 345.061 278.664L166.66 381.664C161.877 384.425 155.761 382.787 153 378.004L100.439 286.965C98.8019 284.13 98.6563 280.673 100.049 277.711L101.304 275.042C102.696 272.079 102.55 268.623 100.914 265.788L89.5263 246.064L88.0263 243.466L76.6389 223.742C75.0021 220.907 72.0815 219.053 68.8196 218.778L65.8806 218.53C62.6187 218.254 59.6981 216.4 58.0613 213.565L5 121.66Z" fill="#090E1C"/>
</g>
<path d="M264.695 141.466L262.963 142.466L264.695 141.466ZM89.5263 246.064L91.2583 245.064L89.5263 246.064ZM88.0263 243.466L86.2942 244.466L88.0263 243.466ZM65.8806 218.53L66.0488 216.537L65.8806 218.53ZM288.341 169L288.173 170.993L288.341 169ZM68.8196 218.778L68.6514 220.771L68.8196 218.778ZM252.918 112.488L254.728 113.339L252.918 112.488ZM253.308 121.742L251.576 122.742L253.308 121.742ZM253.783 100.565L255.515 99.5652L253.783 100.565ZM254.173 109.819L252.363 108.968L254.173 109.819ZM285.402 168.752L285.57 166.759L285.402 168.752ZM101.304 275.042L99.4935 274.191L101.304 275.042ZM200.722 8.66025L198.99 9.66025L200.722 8.66025ZM186.061 3.26795L7.66026 106.268L9.66026 109.732L188.061 6.73205L186.061 3.26795ZM255.515 99.5652L202.454 7.66025L198.99 9.66025L252.051 101.565L255.515 99.5652ZM254.728 113.339L255.983 110.67L252.363 108.968L251.108 111.638L254.728 113.339ZM266.428 140.466L255.04 120.742L251.576 122.742L262.963 142.466L266.428 140.466ZM267.928 143.064L266.428 140.466L262.963 142.466L264.463 145.064L267.928 143.064ZM279.315 162.788L267.928 143.064L264.463 145.064L275.851 164.788L279.315 162.788ZM288.509 167.007L285.57 166.759L285.234 170.745L288.173 170.993L288.509 167.007ZM350.454 264.004L297.892 172.965L294.428 174.965L346.99 266.004L350.454 264.004ZM167.66 383.396L346.061 280.396L344.061 276.932L165.66 379.932L167.66 383.396ZM98.7066 287.965L151.268 379.004L154.732 377.004L102.171 285.965L98.7066 287.965ZM101.859 278.562L103.114 275.892L99.4935 274.191L98.2388 276.86L101.859 278.562ZM102.646 264.788L91.2583 245.064L87.7942 247.064L99.1817 266.788L102.646 264.788ZM91.2583 245.064L89.7583 242.466L86.2942 244.466L87.7942 247.064L91.2583 245.064ZM89.7583 242.466L78.3709 222.742L74.9068 224.742L86.2942 244.466L89.7583 242.466ZM68.9879 216.785L66.0488 216.537L65.7123 220.523L68.6514 220.771L68.9879 216.785ZM3.26795 122.66L56.3293 214.565L59.7934 212.565L6.73205 120.66L3.26795 122.66ZM66.0488 216.537C63.4393 216.317 61.1028 214.833 59.7934 212.565L56.3293 214.565C58.2934 217.967 61.7981 220.192 65.7123 220.523L66.0488 216.537ZM102.171 285.965C100.861 283.697 100.745 280.932 101.859 278.562L98.2388 276.86C96.5678 280.415 96.7425 284.563 98.7066 287.965L102.171 285.965ZM165.66 379.932C161.834 382.141 156.941 380.83 154.732 377.004L151.268 379.004C154.582 384.743 161.921 386.71 167.66 383.396L165.66 379.932ZM346.99 266.004C349.199 269.83 347.888 274.723 344.061 276.932L346.061 280.396C351.801 277.082 353.767 269.743 350.454 264.004L346.99 266.004ZM288.173 170.993C290.782 171.213 293.119 172.697 294.428 174.965L297.892 172.965C295.928 169.563 292.424 167.338 288.509 167.007L288.173 170.993ZM78.3709 222.742C76.4068 219.341 72.9021 217.115 68.9879 216.785L68.6514 220.771C71.2609 220.991 73.5974 222.474 74.9068 224.742L78.3709 222.742ZM251.108 111.638C249.437 115.193 249.612 119.34 251.576 122.742L255.04 120.742C253.731 118.474 253.614 115.709 254.728 113.339L251.108 111.638ZM252.051 101.565C253.36 103.833 253.477 106.598 252.363 108.968L255.983 110.67C257.654 107.115 257.479 102.967 255.515 99.5652L252.051 101.565ZM275.851 164.788C277.815 168.19 281.32 170.415 285.234 170.745L285.57 166.759C282.961 166.539 280.624 165.056 279.315 162.788L275.851 164.788ZM7.66026 106.268C1.92075 109.582 -0.0457596 116.921 3.26795 122.66L6.73205 120.66C4.52291 116.834 5.83392 111.941 9.66026 109.732L7.66026 106.268ZM103.114 275.892C104.785 272.337 104.61 268.19 102.646 264.788L99.1817 266.788C100.491 269.056 100.608 271.821 99.4935 274.191L103.114 275.892ZM188.061 6.73205C191.888 4.52291 196.781 5.83391 198.99 9.66025L202.454 7.66025C199.14 1.92074 191.801 -0.0457562 186.061 3.26795L188.061 6.73205Z" fill="url(#paint4_linear_6456_57840)" mask="url(#path-5-inside-1_6456_57840)"/>
<mask id="mask0_6456_57840" style="mask-type:alpha" maskUnits="userSpaceOnUse" x="6" y="6" width="342" height="375">
<path fill-rule="evenodd" clip-rule="evenodd" d="M7.73047 122.392C4.96904 117.609 6.60779 111.493 11.3907 108.732L186.328 7.73193C191.111 4.97051 197.227 6.60926 199.988 11.3922L252.289 101.98C253.922 104.808 254.071 108.254 252.689 111.213L251.519 113.717C250.138 116.675 250.287 120.122 251.919 122.949L263.137 142.379L264.618 144.944L275.836 164.374C277.469 167.202 280.379 169.054 283.631 169.337L286.385 169.576C289.638 169.858 292.548 171.711 294.181 174.538L345.988 264.272C348.75 269.055 347.111 275.17 342.328 277.932L167.391 378.932C162.608 381.693 156.492 380.055 153.73 375.272L101.924 285.54C100.291 282.712 100.142 279.266 101.524 276.307L102.695 273.801C104.076 270.843 103.927 267.396 102.294 264.569L89.5956 242.574L78.3778 223.144C76.7453 220.316 73.8352 218.464 70.5825 218.181L67.8262 217.942C64.5735 217.659 61.6634 215.807 60.0309 212.979L7.73047 122.392Z" fill="#090E1C"/>
</mask>
<g mask="url(#mask0_6456_57840)">
<rect x="159.363" y="387.03" width="317" height="113" transform="rotate(-120 159.363 387.03)" fill="#060911"/>
<g style="mix-blend-mode:hard-light" opacity="0.2">
<path style="mix-blend-mode:multiply" opacity="0.5" d="M161.036 165.002L120.979 228.489L94.9766 158.045L22.2504 139.54L81.143 93.0568L76.2589 18.1643L138.676 59.8403L208.446 32.0399L188.04 104.315L236.045 162.056L161.036 165.002Z" fill="url(#paint5_linear_6456_57840)"/>
<path d="M202.95 38.1295L169.325 51.5299L160.142 55.1918L138.289 63.8912L80.3283 25.1998L84.9242 94.7013L30.2151 137.858L97.6996 155.016L121.84 220.34L158.991 161.447L228.569 158.72L184.067 105.152L202.95 38.1295Z" fill="url(#paint6_linear_6456_57840)"/>
<path style="mix-blend-mode:multiply" opacity="0.5" d="M29.9492 138.014L131.075 110.24L97.4338 155.172L29.9492 138.014Z" fill="url(#paint7_linear_6456_57840)"/>
<path style="mix-blend-mode:multiply" opacity="0.5" d="M202.673 38.2913L131.064 110.246L183.79 105.314L202.673 38.2913Z" fill="url(#paint8_linear_6456_57840)"/>
<path style="mix-blend-mode:multiply" opacity="0.5" d="M158.711 161.609L131.061 110.246L121.492 220.542L158.711 161.609Z" fill="url(#paint9_linear_6456_57840)"/>
<path style="mix-blend-mode:multiply" opacity="0.5" d="M228.298 158.878L131.07 110.242L158.72 161.605L228.298 158.878Z" fill="url(#paint10_linear_6456_57840)"/>
<path style="mix-blend-mode:color-dodge" opacity="0.5" d="M80.0547 25.3569L131.067 110.241L137.947 64.0879L80.0547 25.3569Z" fill="url(#paint11_linear_6456_57840)"/>
<path style="mix-blend-mode:color-dodge" opacity="0.5" d="M202.671 38.2918L131.062 110.247L137.942 64.0929L202.671 38.2918Z" fill="url(#paint12_linear_6456_57840)"/>
<path style="mix-blend-mode:color-dodge" opacity="0.5" d="M202.671 38.2918L131.062 110.247L137.942 64.0929L202.671 38.2918Z" fill="url(#paint13_linear_6456_57840)"/>
<path style="mix-blend-mode:color-dodge" opacity="0.5" d="M84.5884 94.897L131.073 110.24L29.9476 138.014L84.5884 94.897Z" fill="url(#paint14_linear_6456_57840)"/>
<g style="mix-blend-mode:color-dodge" opacity="0.8">
<path d="M148.593 82.9972C146.321 89.3195 151.568 89.5701 151.568 89.5701L170.8 70.1761C166.215 69.6638 161.586 70.6319 157.59 72.9387C153.595 75.2456 150.442 78.7702 148.593 82.9972Z" fill="white"/>
</g>
<path style="mix-blend-mode:multiply" opacity="0.5" d="M121.839 220.341C121.839 220.341 151.283 177.924 161.12 165.138L228.705 158.642L159.126 161.369L121.839 220.341Z" fill="url(#paint15_linear_6456_57840)"/>
<g style="mix-blend-mode:soft-light" opacity="0.4">
<path d="M86.2765 81.4383C89.6787 100.428 117.69 98.9236 117.759 92.4154C117.828 85.9072 100.469 59.9431 94.6489 58.3836C88.8288 56.8241 84.8915 73.6741 86.2765 81.4383Z" fill="#F7FFFF"/>
</g>
<g style="mix-blend-mode:soft-light" opacity="0.4">
<path d="M115.172 172.351C127.588 167.188 126.476 150.429 123.836 140.018C119.191 123.294 92.675 181.514 115.172 172.351Z" fill="#F7FFFF"/>
</g>
</g>
</g>
<g filter="url(#filter3_f_6456_57840)">
<ellipse cx="177.295" cy="193.082" rx="55.5" ry="52" transform="rotate(-30 177.295 193.082)" fill="#6E85CF"/>
</g>
<path d="M113.389 107.765L114.429 109.566L109.787 112.246L115.667 122.43L113.797 123.51L106.877 111.525L113.389 107.765ZM118.275 104.944C119.603 104.177 120.789 103.939 121.834 104.228C122.872 104.507 123.735 105.24 124.421 106.43L125.071 107.556C125.758 108.745 125.962 109.859 125.684 110.897C125.406 111.935 124.603 112.837 123.275 113.604L121.629 114.554L123.549 117.88L121.679 118.96L114.759 106.974L118.275 104.944ZM120.609 112.787L122.255 111.837C123.652 111.031 123.967 109.963 123.201 108.636L122.551 107.51C122.171 106.852 121.711 106.455 121.171 106.32C120.636 106.167 120.011 106.297 119.295 106.711L117.649 107.661L120.609 112.787ZM138.688 109.139L136.766 110.249L134.488 107.985L130.643 110.205L131.466 113.309L129.543 114.419L126.001 100.483L128.443 99.0734L138.688 109.139ZM128.073 101.273L129.997 108.245L133.132 106.435L128.073 101.273ZM137.166 95.7459L136.226 94.1178L138.08 93.0478L139.02 94.6759C140.452 94.0642 141.775 93.955 142.987 94.3481C144.2 94.7413 145.189 95.6019 145.956 96.9298C146.722 98.2577 146.976 99.5506 146.717 100.809C146.458 102.067 145.706 103.163 144.46 104.098L145.4 105.726L143.546 106.796L142.606 105.168C141.173 105.78 139.848 105.883 138.629 105.479C137.41 105.074 136.417 104.208 135.65 102.88C134.883 101.552 134.633 100.265 134.899 99.0181C135.164 97.7716 135.92 96.6809 137.166 95.7459ZM137.295 101.93C137.795 102.796 138.433 103.367 139.208 103.643C139.983 103.919 140.844 103.876 141.79 103.515L138.19 97.2794C137.397 97.9064 136.927 98.6246 136.778 99.434C136.623 100.232 136.795 101.064 137.295 101.93ZM144.31 97.8798C143.81 97.0137 143.176 96.4485 142.407 96.184C141.639 95.9195 140.791 95.9704 139.863 96.3367L143.443 102.537C144.224 101.917 144.689 101.202 144.837 100.393C144.986 99.5835 144.81 98.7458 144.31 97.8798Z" fill="#C0D0FF"/>
<path d="M101.827 105.017L97.627 97.7423L100.62 96.0143C101.264 95.6423 101.875 95.4282 102.452 95.372C103.037 95.3119 103.565 95.4038 104.039 95.6478C104.512 95.8918 104.903 96.2805 105.211 96.814C105.519 97.3474 105.66 97.8802 105.635 98.4121C105.609 98.9441 105.425 99.448 105.08 99.9239C104.743 100.396 104.252 100.818 103.608 101.19L101.363 102.486L101.6 101.504L103.178 104.237L101.827 105.017ZM101.684 101.649L100.703 101.342L102.886 100.082C103.481 99.7385 103.856 99.3558 104.01 98.9344C104.167 98.502 104.114 98.0572 103.85 97.6C103.582 97.1358 103.223 96.867 102.774 96.7936C102.332 96.7161 101.813 96.8494 101.218 97.1934L99.0353 98.4534L99.254 97.4403L101.684 101.649ZM110.936 99.7579L110.009 90.5933L111.34 89.8253L118.824 95.2039L117.41 96.0199L110.808 91.0884L111.348 90.7764L112.328 98.9539L110.936 99.7579ZM111.471 97.2044L111.222 95.9344L115.151 93.6664L116.126 94.5164L111.471 97.2044ZM123.883 82.5832L125.234 81.8032L129.434 89.0779L128.083 89.8579L123.883 82.5832ZM124.321 92.0299L122.97 92.8099L118.77 85.5352L120.121 84.7552L124.321 92.0299ZM126.387 86.6802L122.407 88.9782L121.741 87.8246L125.721 85.5266L126.387 86.6802ZM134.516 86.1437L130.316 78.8691L135.253 76.0191L135.902 77.1682L131.984 79.4302L132.11 78.9281L135.847 85.3757L134.516 86.1437Z" fill="white"/>
<path d="M171.546 332.886L176.446 341.373L174.482 342.507L170.492 335.596L168.795 336.576L167.885 335L171.546 332.886ZM177.746 337.616C178.086 337.42 178.428 337.368 178.772 337.46C179.111 337.544 179.381 337.76 179.582 338.108C179.745 338.391 179.87 338.858 179.955 339.509L180.272 341.654L179.071 342.347L178.492 340.111C177.957 340.194 177.541 339.976 177.242 339.459C177.041 339.111 176.991 338.763 177.092 338.414C177.189 338.078 177.407 337.812 177.746 337.616ZM184.815 336.735C183.74 337.356 182.656 337.476 181.563 337.094C180.405 336.695 179.432 335.812 178.644 334.446C177.855 333.08 177.577 331.797 177.811 330.595C178.027 329.457 178.672 328.578 179.747 327.957C180.822 327.337 181.91 327.215 183.012 327.592C184.161 327.996 185.13 328.88 185.918 330.246C186.707 331.612 186.989 332.894 186.764 334.091C186.54 335.233 185.89 336.115 184.815 336.735ZM183.856 335.074C184.963 334.435 184.992 333.206 183.942 331.387C182.892 329.569 181.813 328.979 180.706 329.618C179.607 330.253 179.582 331.48 180.632 333.298C181.682 335.117 182.757 335.709 183.856 335.074ZM193.044 331.984C191.969 332.605 190.885 332.725 189.791 332.343C188.634 331.944 187.661 331.061 186.873 329.695C186.084 328.329 185.806 327.046 186.039 325.844C186.255 324.706 186.901 323.827 187.976 323.206C189.051 322.586 190.139 322.464 191.241 322.841C192.39 323.245 193.359 324.129 194.147 325.495C194.936 326.861 195.218 328.143 194.993 329.34C194.769 330.482 194.119 331.364 193.044 331.984ZM192.085 330.323C193.192 329.684 193.221 328.455 192.171 326.636C191.121 324.818 190.042 324.228 188.935 324.867C187.836 325.502 187.811 326.729 188.861 328.547C189.911 330.366 190.986 330.958 192.085 330.323ZM201.273 327.233C200.198 327.854 199.114 327.974 198.02 327.592C196.863 327.193 195.89 326.31 195.102 324.944C194.313 323.578 194.035 322.295 194.268 321.093C194.484 319.955 195.13 319.076 196.205 318.455C197.28 317.835 198.368 317.713 199.47 318.09C200.619 318.494 201.588 319.378 202.376 320.744C203.165 322.11 203.447 323.392 203.222 324.589C202.998 325.731 202.348 326.613 201.273 327.233ZM200.314 325.572C201.421 324.933 201.45 323.704 200.4 321.885C199.35 320.067 198.271 319.477 197.164 320.116C196.065 320.751 196.04 321.978 197.09 323.796C198.14 325.615 199.215 326.207 200.314 325.572ZM205.606 321.531C205.946 321.335 206.288 321.283 206.632 321.375C206.971 321.459 207.241 321.675 207.442 322.023C207.605 322.306 207.73 322.773 207.815 323.424L208.132 325.569L206.931 326.262L206.352 324.026C205.817 324.109 205.401 323.891 205.102 323.374C204.901 323.026 204.851 322.678 204.952 322.329C205.049 321.993 205.267 321.727 205.606 321.531ZM212.675 320.65C211.6 321.271 210.516 321.391 209.422 321.009C208.265 320.61 207.292 319.727 206.504 318.361C205.715 316.995 205.437 315.712 205.67 314.51C205.887 313.372 206.532 312.493 207.607 311.872C208.682 311.252 209.77 311.13 210.872 311.507C212.021 311.911 212.99 312.795 213.778 314.161C214.567 315.527 214.849 316.809 214.624 318.006C214.4 319.148 213.75 320.03 212.675 320.65ZM211.716 318.989C212.823 318.35 212.852 317.121 211.802 315.302C210.752 313.484 209.673 312.894 208.566 313.533C207.467 314.168 207.442 315.395 208.492 317.213C209.542 319.032 210.617 319.624 211.716 318.989ZM220.904 315.899C219.829 316.52 218.745 316.64 217.651 316.258C216.494 315.859 215.521 314.976 214.733 313.61C213.944 312.244 213.666 310.961 213.899 309.759C214.115 308.621 214.761 307.742 215.836 307.121C216.911 306.501 217.999 306.379 219.101 306.756C220.25 307.16 221.219 308.044 222.007 309.41C222.796 310.776 223.078 312.058 222.853 313.255C222.629 314.397 221.979 315.279 220.904 315.899ZM219.945 314.238C221.052 313.599 221.081 312.37 220.031 310.551C218.981 308.733 217.902 308.143 216.795 308.782C215.696 309.417 215.671 310.644 216.721 312.462C217.771 314.281 218.846 314.873 219.945 314.238ZM229.133 311.148C228.058 311.769 226.974 311.889 225.88 311.507C224.723 311.108 223.75 310.225 222.962 308.859C222.173 307.493 221.895 306.21 222.128 305.008C222.344 303.87 222.99 302.991 224.065 302.37C225.14 301.75 226.228 301.628 227.33 302.005C228.479 302.409 229.448 303.293 230.236 304.659C231.025 306.025 231.307 307.307 231.082 308.504C230.858 309.646 230.208 310.528 229.133 311.148ZM228.174 309.487C229.281 308.848 229.31 307.619 228.26 305.8C227.21 303.982 226.131 303.392 225.024 304.032C223.925 304.666 223.9 305.893 224.95 307.711C226 309.53 227.075 310.122 228.174 309.487ZM238.514 301.836L238.906 302.515L241.525 301.003L242.106 302.009L239.487 303.521L240.117 304.613L238.141 305.754L237.511 304.662L236.335 305.341L235.754 304.335L236.93 303.656L233.241 297.267L236.915 295.146C238.071 294.478 239.106 294.199 240.019 294.307C240.967 294.417 241.711 294.941 242.253 295.879C242.789 296.808 242.869 297.711 242.49 298.587C242.127 299.432 241.368 300.189 240.212 300.856L238.514 301.836ZM240.271 297.039C239.781 296.19 238.966 296.095 237.827 296.753L236.141 297.726L237.625 300.296L239.311 299.323C240.45 298.665 240.771 297.904 240.271 297.039Z" fill="white"/>
<path d="M257.056 293.055L252.926 285.902L246.706 289.493L248.163 292.24C249.513 294.775 250.347 296.863 249.224 297.577L248.86 297.787L250.661 300.934L252.128 300.087L251.085 298.281L257.596 294.522L258.639 296.328L260.093 295.488L258.28 292.348L257.056 293.055ZM249.629 291.588L248.822 290.049L252.144 288.131L255.504 293.951L251.2 296.436C251.463 295.379 250.67 293.557 249.629 291.588ZM264.461 286.29C263.292 284.266 261.146 283.742 259.255 284.834C257.327 285.947 256.707 288.148 257.82 290.076C258.933 292.004 261.144 292.586 263.314 291.333C264.43 290.689 265.129 289.8 265.312 288.773L263.961 288.309C263.773 289.047 263.336 289.607 262.609 290.027C261.481 290.678 260.343 290.527 259.615 289.686L264.695 286.753C264.623 286.6 264.531 286.412 264.461 286.29ZM259.955 286.046C260.949 285.472 262.036 285.702 262.696 286.566L259.022 288.687C258.622 287.657 258.973 286.613 259.955 286.046ZM264.228 282.06L267.966 288.534L269.482 287.659L266.486 282.47L269.674 280.629L272.67 285.818L274.174 284.95L270.436 278.476L264.228 282.06ZM279.153 282.188C281.166 281.026 281.811 278.811 280.691 276.871C279.571 274.931 277.337 274.394 275.324 275.556C273.336 276.704 272.672 278.914 273.792 280.854C274.912 282.794 277.165 283.336 279.153 282.188ZM278.404 280.891C277.313 281.521 276.034 281.209 275.32 279.972C274.606 278.736 274.975 277.471 276.066 276.841C277.17 276.204 278.449 276.517 279.163 277.753C279.877 278.99 279.508 280.254 278.404 280.891ZM285.884 273.695C286.397 273.043 286.52 272.277 286.156 271.647C285.54 270.58 283.915 270.564 282.254 271.523C281.405 272.013 280.673 272.678 280.026 273.601L281.058 274.493C281.592 273.765 282.18 273.215 282.834 272.837C283.744 272.312 284.457 272.288 284.73 272.761C285.003 273.234 284.709 273.759 283.945 274.2L282.805 274.858L283.393 275.877L284.654 275.149C285.466 274.68 286.088 274.693 286.382 275.202C286.704 275.76 286.275 276.444 285.268 277.025C284.468 277.487 283.525 277.757 282.691 277.769L282.906 279.149C283.934 279.137 285.068 278.806 286.062 278.232C287.869 277.189 288.697 275.628 288.004 274.427C287.591 273.712 286.817 273.464 285.884 273.695ZM290.664 275.43L292.058 274.625L293.159 268.299L295.623 272.567L297.138 271.692L293.4 265.217L292.018 266.015L290.905 272.348L288.441 268.08L286.926 268.955L290.664 275.43ZM300.568 261.079L294.505 264.579L295.247 265.864L297.527 264.548L300.523 269.738L302.038 268.863L299.042 263.673L301.31 262.364L300.568 261.079ZM304.038 258.979C302.995 259.581 302.143 260.428 301.76 261.361L302.991 262.121C303.245 261.441 303.856 260.765 304.584 260.345C305.663 259.722 306.497 259.935 307.008 260.82L307.064 260.917L305.391 261.883C303.427 263.017 303.19 264.286 303.813 265.365C304.464 266.492 305.866 266.766 307.345 265.912C308.315 265.352 308.836 264.631 308.878 263.863L309.333 264.651L310.764 263.825L308.573 260.03C307.495 258.163 305.905 257.901 304.038 258.979ZM307.024 264.626C306.248 265.074 305.584 264.989 305.269 264.443C304.996 263.97 305.051 263.421 306.081 262.826L307.645 261.923L308.079 262.675C308.21 263.489 307.763 264.199 307.024 264.626Z" fill="#7D7D7D"/>
<path d="M187.05 301.995L191.95 310.482L189.986 311.616L185.996 304.705L184.299 305.685L183.389 304.109L187.05 301.995ZM197.146 307.676C196.071 308.297 194.987 308.416 193.894 308.034C192.736 307.635 191.763 306.753 190.975 305.387C190.186 304.021 189.908 302.737 190.142 301.535C190.358 300.398 191.003 299.518 192.078 298.898C193.153 298.277 194.241 298.155 195.343 298.532C196.492 298.936 197.461 299.821 198.249 301.187C199.038 302.553 199.32 303.834 199.095 305.031C198.871 306.174 198.221 307.055 197.146 307.676ZM196.187 306.015C197.294 305.375 197.323 304.146 196.273 302.328C195.223 300.509 194.144 299.92 193.037 300.559C191.938 301.194 191.913 302.42 192.963 304.239C194.013 306.057 195.088 306.649 196.187 306.015ZM201.364 299.841C200.742 300.201 200.115 300.282 199.484 300.086C198.841 299.886 198.314 299.431 197.903 298.719C197.493 298.008 197.362 297.324 197.51 296.667C197.656 296.022 198.04 295.521 198.662 295.161C199.284 294.802 199.911 294.72 200.541 294.917C201.177 295.121 201.7 295.579 202.11 296.29C202.521 297.002 202.656 297.683 202.515 298.336C202.37 298.98 201.986 299.482 201.364 299.841ZM203.774 292.339L205.217 291.506L204.321 303.339L202.878 304.172L203.774 292.339ZM200.79 298.847C201.38 298.506 201.416 297.888 200.898 296.99C200.38 296.093 199.826 295.815 199.236 296.156C198.646 296.496 198.61 297.115 199.128 298.012C199.646 298.91 200.2 299.188 200.79 298.847ZM209.433 300.517C208.811 300.877 208.188 300.956 207.566 300.755C206.922 300.555 206.395 300.1 205.984 299.388C205.574 298.677 205.443 297.993 205.592 297.336C205.729 296.696 206.109 296.197 206.731 295.837C207.353 295.478 207.98 295.397 208.611 295.593C209.254 295.793 209.781 296.248 210.192 296.959C210.602 297.671 210.733 298.355 210.585 299.012C210.439 299.656 210.055 300.158 209.433 300.517ZM208.859 299.523C209.449 299.183 209.485 298.564 208.967 297.666C208.449 296.769 207.895 296.491 207.305 296.832C206.715 297.172 206.679 297.791 207.197 298.688C207.715 299.586 208.269 299.864 208.859 299.523Z" fill="white"/>
<path d="M220.385 294.227C221.779 293.422 222.681 292.238 222.937 290.862L221.358 290.48C221.132 291.516 220.557 292.284 219.672 292.795C217.914 293.81 215.927 293.309 214.919 291.563C213.911 289.817 214.47 287.845 216.228 286.83C217.113 286.319 218.066 286.206 219.069 286.515L219.535 284.97C218.215 284.503 216.739 284.692 215.357 285.49C212.75 286.995 211.868 289.946 213.331 292.48C214.794 295.014 217.79 295.725 220.385 294.227ZM223.685 283.43C222.642 284.032 221.79 284.88 221.406 285.813L222.638 286.573C222.891 285.893 223.503 285.216 224.231 284.796C225.31 284.173 226.144 284.387 226.655 285.272L226.711 285.369L225.038 286.335C223.074 287.469 222.836 288.737 223.459 289.816C224.11 290.944 225.513 291.217 226.992 290.363C227.962 289.803 228.483 289.082 228.525 288.314L228.98 289.103L230.411 288.277L228.22 284.482C227.142 282.614 225.552 282.352 223.685 283.43ZM226.67 289.078C225.894 289.526 225.231 289.44 224.916 288.895C224.643 288.422 224.698 287.873 225.728 287.278L227.292 286.375L227.726 287.127C227.857 287.941 227.41 288.651 226.67 289.078ZM234.405 286.083C236.224 285.033 236.884 283.601 236.184 282.389C234.721 279.855 231.392 283.329 230.636 282.019C230.391 281.595 230.653 281.04 231.574 280.508C232.193 280.151 232.881 279.915 233.709 279.922L233.626 278.434C232.841 278.419 231.74 278.779 230.879 279.276C229.133 280.284 228.492 281.722 229.199 282.946C230.69 285.529 234.019 282.055 234.733 283.291C234.992 283.74 234.746 284.238 233.788 284.791C232.976 285.26 231.949 285.497 231.162 285.45L231.245 286.938C232.065 287.014 233.326 286.706 234.405 286.083ZM238.489 274.883C237.592 275.401 236.996 276.133 236.807 276.953L234.917 273.68L233.402 274.555L238.596 283.551L240.111 282.676L238.221 279.402C237.472 278.105 237.822 277.03 238.901 276.407C239.871 275.847 240.762 276.076 241.427 277.228L243.457 280.744L244.973 279.869L242.831 276.159C241.704 274.207 240.041 273.987 238.489 274.883ZM246.704 270.14C245.88 270.616 245.313 271.315 245.128 272.198L243.217 268.888L241.702 269.763L246.896 278.759L248.338 277.926L247.855 277.089C248.722 277.414 249.648 277.283 250.533 276.772C252.425 275.68 253.063 273.565 251.901 271.553C250.739 269.54 248.596 269.048 246.704 270.14ZM249.615 275.573C248.523 276.203 247.232 275.898 246.518 274.661C245.804 273.424 246.185 272.153 247.277 271.523C248.368 270.893 249.647 271.205 250.361 272.442C251.075 273.679 250.706 274.943 249.615 275.573ZM253.818 266.033C252.775 266.635 251.923 267.483 251.54 268.415L252.771 269.175C253.025 268.495 253.636 267.819 254.364 267.399C255.443 266.776 256.277 266.989 256.788 267.874L256.844 267.971L255.171 268.937C253.207 270.071 252.97 271.34 253.593 272.419C254.244 273.547 255.646 273.82 257.125 272.966C258.095 272.406 258.617 271.685 258.658 270.917L259.113 271.705L260.544 270.879L258.353 267.084C257.275 265.217 255.685 264.955 253.818 266.033ZM256.804 271.681C256.028 272.129 255.364 272.043 255.049 271.497C254.776 271.025 254.831 270.476 255.861 269.881L257.425 268.978L257.859 269.729C257.99 270.543 257.543 271.254 256.804 271.681ZM265.568 268.092C266.829 267.364 267.52 266.237 267.457 264.98L265.901 264.973C265.87 265.816 265.449 266.43 264.807 266.801C263.691 267.445 262.401 267.172 261.673 265.911C260.952 264.662 261.353 263.396 262.469 262.752C263.111 262.381 263.854 262.324 264.599 262.718L265.371 261.367C264.307 260.672 263 260.732 261.739 261.46C259.69 262.643 259.026 264.853 260.146 266.793C261.266 268.733 263.519 269.275 265.568 268.092ZM274.42 262.868L276.263 261.804L271.135 259.753L272.27 255.476L270.452 256.526L268.991 261.249L265.855 255.817L264.34 256.692L269.534 265.689L271.049 264.814L270.062 263.104L270.574 261.386L274.42 262.868Z" fill="#7D7D7D"/>
<rect x="166.715" y="31.7583" width="26" height="26" rx="13" transform="rotate(-30 166.715 31.7583)" fill="#151C30"/>
<rect x="167.398" y="31.9413" width="25" height="25" rx="12.5" transform="rotate(-30 167.398 31.9413)" stroke="#C68C43"/>
<path d="M189.044 37.7267C188.724 38.4924 188.125 38.9777 188.125 38.9777C188.396 38.3693 188.746 36.8965 187.627 36.1645C186.508 35.4324 184.127 35.9143 184.127 35.9143C184.127 35.9143 182.52 37.7354 182.593 39.0709C182.666 40.4065 184.118 40.8391 184.781 40.9089C184.781 40.9089 184.06 41.1845 183.238 41.0783C183.238 41.0783 182.547 43.1132 183.207 44.6274C183.207 44.6274 183.94 42.9446 187.124 41.106C190.309 39.2675 192.133 39.4739 192.133 39.4739C191.152 38.146 189.044 37.7267 189.044 37.7267ZM186.37 39.2594L186.36 39.7819L185.903 39.5288C184.335 40.284 183.413 39.3193 183.413 39.3193L183.909 38.4518L183.501 38.2137L185.478 38.2568L186.43 36.5226L186.433 36.9948L187.432 36.999C187.432 36.999 187.808 38.2789 186.369 39.26L186.37 39.2594Z" fill="white"/>
<path d="M186.004 29.658C186.004 29.658 187.41 29.0503 188.405 29.3234C188.405 29.3234 186.382 28.0664 184.324 29.2548C182.265 30.4433 181.938 32.1235 181.938 32.1235C181.938 32.1235 180.32 31.5666 178.262 32.7548C176.204 33.943 176.28 36.3235 176.28 36.3235C176.54 35.3257 177.771 34.4116 177.771 34.4116C176.903 35.3215 176.818 37.0346 177.691 38.525C178.563 40.0153 179.76 40.7527 180.41 40.5607C181.06 40.3687 181.049 39.6444 181.436 38.3457C181.823 37.0469 182.617 36.4192 182.617 36.4192C181.534 36.5293 181.093 37.0846 180.629 37.599C180.165 38.1135 179.736 38.4472 179.021 37.9699C178.306 37.4927 178.51 36.398 178.51 36.398C178.189 36.6588 178.014 37.1352 178.014 37.1352C177.894 36.185 178.184 35.739 178.837 35.3298C179.49 34.9206 179.898 34.9208 180.825 34.9116C181.752 34.9023 182.628 35.0077 182.818 34.5009C183.008 33.994 181.889 33.2996 181.889 33.2996C182.431 33.3298 182.895 33.7805 182.895 33.7805C182.895 33.7805 182.737 33.1533 182.982 32.6684C182.982 32.6684 183.022 33.986 183.558 34.074C184.093 34.1619 184.438 33.3512 184.91 32.5532C185.382 31.7552 185.585 31.4018 186.266 31.0404C186.948 30.6791 187.479 30.6541 188.241 31.2323C188.241 31.2323 187.74 31.1458 187.354 31.2935C187.354 31.2935 188.404 31.6635 188.46 32.5218C188.516 33.3801 188.013 33.5846 187.335 33.729C186.657 33.8733 185.956 33.978 185.319 34.861C185.319 34.861 186.261 34.4884 187.578 34.8009C188.895 35.1134 189.517 35.4845 190.009 35.0197C190.502 34.5549 190.461 33.1496 189.606 31.647C188.751 30.1444 187.226 29.3613 186.004 29.658Z" fill="white"/>
<path d="M184.324 29.2538C182.263 30.4434 181.94 32.1327 181.94 32.1327C181.94 32.1327 180.315 31.5682 178.255 32.7579C176.721 33.6435 176.375 35.1959 176.299 35.9302C176.647 34.6802 177.923 31.9416 182.342 32.8278C183.785 28.557 186.795 28.8211 188.051 29.1449C187.375 28.8452 185.858 28.3682 184.324 29.2538Z" fill="#C4C4C4"/>
<path d="M180.594 37.6104C180.129 38.1268 179.699 38.4611 178.982 37.9815C178.264 37.502 178.469 36.4035 178.469 36.4035C178.21 36.6128 178.047 36.961 177.992 37.0913C177.982 37.7392 178.287 38.7266 179.793 39.7703C179.793 39.7703 179.114 39.9338 178.084 39.1922C178.889 40.2462 179.826 40.7441 180.376 40.5809C181.026 40.3863 181.016 39.6618 181.403 38.3585C181.79 37.0553 182.586 36.4258 182.586 36.4258C181.501 36.5375 181.059 37.0944 180.594 37.6104Z" fill="#C4C4C4"/>
<path d="M189.581 34.1187C189.428 32.2728 188.712 31.5185 188.144 31.2094C187.984 31.192 187.631 31.1712 187.342 31.2819C187.342 31.2819 188.395 31.654 188.451 32.5151C188.508 33.3761 188.004 33.5809 187.325 33.7251C186.646 33.8693 185.943 33.9736 185.305 34.8589C185.305 34.8589 186.25 34.486 187.57 34.8006C188.889 35.1153 189.513 35.4881 190.006 35.0223C190.425 34.6245 190.458 33.5463 189.931 32.3064C190.074 33.6008 189.581 34.1187 189.581 34.1187Z" fill="#C4C4C4"/>
<path d="M192.122 39.4588C191.381 39.3616 189.604 39.3058 187.38 40.4696C184.428 42.0132 184.434 42.6373 183.871 42.4148C183.308 42.1922 184.785 40.9153 184.785 40.9153C184.785 40.9153 184.065 41.1912 183.243 41.0863C183.243 41.0863 182.551 43.1176 183.208 44.6274C183.208 44.6274 183.943 42.9475 187.127 41.1089C190.312 39.2704 192.134 39.474 192.134 39.474C192.131 39.4698 192.126 39.4641 192.122 39.4588Z" fill="#C4C4C4"/>
<g style="mix-blend-mode:soft-light">
<mask id="mask1_6456_57840" style="mask-type:alpha" maskUnits="userSpaceOnUse" x="171" y="23" width="27" height="27">
<rect x="166.715" y="31.7583" width="26" height="26" rx="13" transform="rotate(-30 166.715 31.7583)" fill="#101520"/>
</mask>
<g mask="url(#mask1_6456_57840)">
<g filter="url(#filter4_f_6456_57840)">
<path d="M178.419 59.2567L190.41 14.5057" stroke="white" stroke-width="0.52"/>
</g>
<g filter="url(#filter5_f_6456_57840)">
<path d="M176.714 65.6146L192.112 8.14862" stroke="white" stroke-width="1.3"/>
</g>
<g filter="url(#filter6_f_6456_57840)">
<path d="M176.714 65.6146L192.112 8.14862" stroke="white" stroke-width="1.3"/>
</g>
<g opacity="0.5" filter="url(#filter7_f_6456_57840)">
<path d="M171.431 57.556L183.422 12.8051" stroke="white" stroke-width="0.52"/>
</g>
<g opacity="0.5" filter="url(#filter8_f_6456_57840)">
<path d="M184.927 63.3041L196.918 18.5531" stroke="white" stroke-width="0.26"/>
</g>
</g>
</g>
<path d="M147.619 245.314C147.732 245.766 127.615 249.672 127.615 249.672C119.728 245.846 112.305 241.158 105.48 235.696L134.129 219.156L147.619 245.314Z" fill="url(#paint16_linear_6456_57840)"/>
<path d="M110.945 232.541C110.945 232.541 125.48 242.272 127.569 243.042L142.259 235.063L141.698 234.091C141.698 234.091 128.51 241.851 127.435 241.726C126.36 241.602 111.797 232.049 111.797 232.049L110.945 232.541Z" fill="#394773"/>
<path d="M110.945 232.541L127.569 243.042C124.457 241.618 121.441 240 118.538 238.198C114.761 235.731 110.945 232.541 110.945 232.541Z" fill="white"/>
<g style="mix-blend-mode:soft-light" opacity="0.5">
<path d="M113.526 232.281C116.522 234.876 125.185 239.738 126.098 239.211C127.011 238.684 137.541 232.361 137.646 230.292C137.751 228.223 134.394 220.444 133.459 220.789C132.523 221.135 112.163 231.06 113.526 232.281Z" fill="white"/>
</g>
<g style="mix-blend-mode:soft-light" opacity="0.5">
<path d="M106.739 235.713C109.953 238.117 118.431 244.025 119.19 243.716C119.95 243.408 122.475 242.339 121.914 241.367C121.016 239.812 111.411 233.291 110.305 233.655C109.199 234.018 105.958 235.128 106.739 235.713Z" fill="white"/>
</g>
<path style="mix-blend-mode:multiply" opacity="0.5" d="M120.493 244.375C120.952 245.454 127.771 248.432 128.646 248.494C129.52 248.556 144.745 245.208 145.247 244.141C145.75 243.073 140.028 232.108 139.142 232.198C138.257 232.289 120.003 243.184 120.493 244.375Z" fill="url(#paint17_linear_6456_57840)"/>
<path style="mix-blend-mode:multiply" opacity="0.5" d="M124.505 224.712C130.377 231.687 135.539 239.225 139.916 247.218L147.618 245.314L134.125 219.093L124.505 224.712Z" fill="url(#paint18_linear_6456_57840)"/>
<path d="M236.487 194.005C236.834 194.322 250.313 178.832 250.313 178.832C250.944 170.069 250.591 161.277 249.26 152.619L220.562 169.188L236.487 194.005Z" fill="url(#paint19_linear_6456_57840)"/>
<path d="M243.773 155.852C243.773 155.852 244.921 173.312 244.555 175.499L230.288 184.238L229.727 183.267C229.727 183.267 243.053 175.718 243.483 174.725C243.913 173.732 242.921 156.343 242.921 156.343L243.773 155.852Z" fill="#394773"/>
<path d="M243.772 155.852L244.555 175.499C244.877 172.094 244.98 168.675 244.863 165.263C244.615 160.758 243.772 155.852 243.772 155.852Z" fill="white"/>
<g style="mix-blend-mode:soft-light" opacity="0.5">
<path d="M242.26 157.957C243.023 161.841 242.882 171.77 241.957 172.304C241.031 172.838 230.315 178.782 228.459 177.846C226.602 176.909 221.568 170.099 222.323 169.468C223.077 168.838 241.884 156.166 242.26 157.957Z" fill="white"/>
</g>
<g style="mix-blend-mode:soft-light" opacity="0.5">
<path d="M248.612 153.803C249.087 157.789 249.977 168.078 249.33 168.581C248.683 169.084 246.482 170.743 245.884 169.793C244.987 168.238 244.142 156.66 245.01 155.883C245.878 155.107 248.472 152.848 248.612 153.803Z" fill="white"/>
</g>
<path style="mix-blend-mode:multiply" opacity="0.5" d="M249.238 170.043C249.956 170.973 249.113 178.375 248.742 179.157C248.37 179.938 237.859 191.449 236.658 191.364C235.458 191.28 228.909 180.792 229.381 180.099C229.853 179.406 248.464 169.016 249.238 170.043Z" fill="url(#paint20_linear_6456_57840)"/>
<path style="mix-blend-mode:multiply" opacity="0.5" d="M230.216 163.68C233.32 172.253 237.267 180.492 242 188.28L236.488 194.005L220.527 169.209L230.216 163.68Z" fill="url(#paint21_linear_6456_57840)"/>
<path d="M143.544 135.201L112.042 188.939L148.762 252.54L211.044 252.115L242.554 198.389L205.834 134.788L143.544 135.201Z" fill="url(#paint22_linear_6456_57840)"/>
<path d="M154.456 242.824L123.298 188.856L149.115 144.846L200.125 144.499L231.284 198.468L205.479 242.47L154.456 242.824Z" fill="url(#paint23_linear_6456_57840)"/>
<path d="M156.348 239.577L127.055 188.84L150.966 148.052L198.232 147.746L227.525 198.483L203.626 239.263L156.348 239.577Z" fill="#736FA8"/>
<g style="mix-blend-mode:soft-light" opacity="0.5">
<path d="M113.306 188.42C113.715 190.468 119.913 189.691 122.982 186.915C126.051 184.139 148.064 146.019 147.872 143.862C146.739 141.344 145.356 138.948 143.741 136.708C142.594 137.37 113.113 187.43 113.306 188.42Z" fill="white"/>
</g>
<g style="mix-blend-mode:soft-light" opacity="0.5">
<path d="M204.533 135.751C206.102 137.129 202.331 142.108 198.38 143.385C194.429 144.662 150.637 144.291 148.65 143.414C147.614 142.959 143.742 136.708 144.519 136.259C145.679 135.59 203.773 135.089 204.533 135.751Z" fill="white"/>
</g>
<path style="mix-blend-mode:multiply" opacity="0.5" d="M134.142 224.622C134.922 226.714 148.057 251.231 149.248 250.786C150.439 250.342 153.544 243.981 152.896 242.202C152.247 240.423 142.836 223.895 141.541 222.536C140.247 221.178 132.83 221.152 134.142 224.622Z" fill="url(#paint24_linear_6456_57840)"/>
<path style="mix-blend-mode:multiply" opacity="0.5" d="M225.503 171.874C226.912 173.603 241.589 197.23 240.609 198.039C239.628 198.848 232.567 198.357 231.351 196.905C230.134 195.454 220.526 179.039 219.997 177.24C219.468 175.44 223.142 169.01 225.503 171.874Z" fill="url(#paint25_linear_6456_57840)"/>
<path style="mix-blend-mode:multiply" opacity="0.5" d="M150.8 250.765C151.844 251.264 208.283 251.459 208.912 251.096C209.233 250.91 206.146 244.595 205.732 243.878C204.631 241.971 156.015 244.013 155.256 244.209C154.139 244.497 149.748 250.255 150.8 250.765Z" fill="url(#paint26_linear_6456_57840)"/>
<path style="mix-blend-mode:multiply" opacity="0.5" d="M240.435 199.873C240.345 201.027 211.468 250.366 210.826 250.736C209.152 248.2 207.679 245.535 206.423 242.767C207.002 240.635 231.374 200.505 231.898 199.959C232.706 199.137 240.531 198.7 240.435 199.873Z" fill="url(#paint27_linear_6456_57840)"/>
<path style="mix-blend-mode:multiply" opacity="0.5" d="M157.198 237.289C146.616 224.66 147.461 222.989 161.749 206.821C176.037 190.652 197.162 158.032 203.647 163.196C210.132 168.359 225.551 197.145 225.821 198.981C226.092 200.817 205.289 236.246 202.763 237.769C200.237 239.293 158.393 238.704 157.198 237.289Z" fill="url(#paint28_linear_6456_57840)"/>
<g style="mix-blend-mode:soft-light" opacity="0.3">
<path d="M197.671 148.54C196.963 148.738 154.236 149.015 152.549 150.167C150.862 151.319 134.448 174.547 129.757 187.62C128.488 191.122 147.326 221.642 149.255 219.768C151.183 217.893 145.629 204.37 166.447 182.957C186.938 161.976 200.99 161.782 204.304 161.311C205.211 161.143 199.298 148.053 197.671 148.54Z" fill="white"/>
</g>
<path style="mix-blend-mode:multiply" opacity="0.5" d="M154.454 242.824L123.295 188.856L149.092 144.809L200.123 144.499L231.282 198.468L227.516 198.471C227.516 198.471 200.612 151.472 198.739 150.594C192.008 147.483 156.261 151.101 152.418 155.214C148.574 159.328 129.351 184.614 129.08 190.698C129 192.753 156.347 239.577 156.347 239.577L154.454 242.824Z" fill="url(#paint29_linear_6456_57840)"/>
<g style="mix-blend-mode:soft-light" opacity="0.2">
<path d="M173.167 169.925C185.211 168.705 199.676 160.451 200.52 158.862C201.363 157.274 198.754 150.731 196.092 150.908C193.43 151.084 172.024 151.96 168.226 155.384C164.428 158.807 171.009 170.119 173.167 169.925Z" fill="white"/>
</g>
<path d="M123.228 208.313C123.144 208.168 113.277 190.137 113.367 188.385C113.457 186.632 143.437 137.352 144.517 136.259C145.597 135.166 167.457 135.048 167.457 135.048L143.544 135.201L112.089 188.993L123.228 208.313Z" fill="url(#paint30_linear_6456_57840)"/>
<path d="M171.387 144.701C171.387 144.701 198.653 144.344 199.687 145.48C200.722 146.616 221.312 181.226 221.312 181.226C221.312 181.226 201.172 145.886 200.112 144.506C199.052 143.126 171.387 144.701 171.387 144.701Z" fill="white"/>
<path d="M140.372 218.433C140.372 218.433 122.862 189.672 122.646 188.501C122.431 187.33 149.113 144.846 149.113 144.846C149.113 144.846 124.074 187.126 124.073 188.892C124.073 190.658 140.372 218.433 140.372 218.433Z" fill="white"/>
<path style="mix-blend-mode:multiply" d="M148.765 252.54L211.035 252.122L242.532 198.403L234.165 183.912C234.165 183.912 241.071 196.785 241.02 198.92C240.97 201.054 212.882 249.338 210.827 250.736C208.771 252.133 151.34 251.815 149.249 250.786C147.159 249.758 130.047 220.12 130.047 220.12L148.765 252.54Z" fill="url(#paint31_linear_6456_57840)"/>
<path d="M146.502 229.05C146.502 229.05 153.547 241.566 154.854 242.205C156.16 242.843 180.365 242.684 180.365 242.684C180.365 242.684 154.825 244.035 154.261 243.486C153.697 242.937 146.502 229.05 146.502 229.05Z" fill="white"/>
<g style="mix-blend-mode:soft-light" opacity="0.5">
<path d="M176.864 244.996C175.482 245.794 172.492 249.561 173.837 249.983C175.183 250.405 206.188 250.74 209.384 250.207C210.43 250.024 207.216 244.656 205.059 243.57C204.138 243.114 181.151 242.505 176.864 244.996Z" fill="white"/>
</g>
<path d="M166.114 136.165C165.166 137.117 171.622 139.609 173.65 138.989C175.677 138.369 177.41 135.7 176.068 135.342C174.726 134.983 167.599 134.692 166.114 136.165Z" fill="white"/>
<path d="M177.125 135.978C175.681 137.41 183.084 142.967 185.187 143.502C187.289 144.038 200.615 139.453 199.083 137.455C197.551 135.457 179.166 133.957 177.125 135.978Z" fill="white"/>
<path style="mix-blend-mode:multiply" opacity="0.5" d="M221.116 219.609C222.608 224.53 224.248 227 224.83 226.697C225.411 226.394 238.89 202.384 239.15 201.553C239.411 200.722 233.547 199.427 232.096 200.589C230.644 201.751 220.546 217.768 221.116 219.609Z" fill="url(#paint32_linear_6456_57840)"/>
<path style="mix-blend-mode:multiply" opacity="0.5" d="M126.504 188.656C125.169 187.483 123.658 188.371 124.462 190.077C125.266 191.783 142.475 222.159 143.107 221.859C143.74 221.558 144.155 219.343 143.805 218.622C143.454 217.901 127.145 189.225 126.504 188.656Z" fill="url(#paint33_linear_6456_57840)"/>
<path style="mix-blend-mode:multiply" opacity="0.5" d="M198.473 147.364C198.716 147.985 214.922 176.738 215.304 176.517C215.687 176.296 216.599 173.972 216.199 173.279C215.799 172.587 199.784 145.846 199.522 145.819C199.26 145.793 198.261 146.855 198.473 147.364Z" fill="url(#paint34_linear_6456_57840)"/>
<path style="mix-blend-mode:multiply" opacity="0.5" d="M150.7 147.591C151.022 148.15 139.848 166.975 139.465 167.196C139.083 167.417 137.774 164.836 138.108 164.19C138.442 163.543 148.949 144.844 149.255 145.089C149.792 145.89 150.274 146.726 150.7 147.591Z" fill="url(#paint35_linear_6456_57840)"/>
<path d="M228.225 203.115C227.176 203.721 224.768 207.784 225.614 208.623C226.461 209.462 229.281 209.276 229.512 208.365C229.743 207.454 228.93 202.741 228.225 203.115Z" fill="#394773"/>
<path d="M230.002 203.03C229.821 203.571 229.705 205.193 230.787 205.33C231.869 205.466 233.22 202.678 232.635 202.433C232.049 202.188 230.213 202.341 230.002 203.03Z" fill="#394773"/>
<path style="mix-blend-mode:multiply" opacity="0.5" d="M225.613 207.281C225.439 209.001 229.469 207.662 229.37 206.407C229.271 205.153 228.829 202.622 228.288 203.08C227.149 204.311 226.242 205.734 225.613 207.281Z" fill="url(#paint36_linear_6456_57840)"/>
<path d="M225.457 208.325C226.099 208.861 226.915 209.153 227.76 209.15C228.879 209.151 229.532 208.629 229.536 208.124C229.467 208.489 229.276 208.821 228.993 209.067C228.711 209.312 228.354 209.456 227.981 209.475C225.824 209.7 225.457 208.325 225.457 208.325Z" fill="#DAE1EF"/>
<path style="mix-blend-mode:multiply" opacity="0.5" d="M230.411 202.826C230.094 204.158 231.446 205.046 231.86 204.71C232.275 204.373 233.132 202.696 232.635 202.433C232.137 202.169 230.478 202.544 230.411 202.826Z" fill="url(#paint37_linear_6456_57840)"/>
<path d="M230.001 203.03C230.001 203.03 229.831 204.472 230.464 204.884C231.096 205.296 231.528 205.047 231.528 205.047C231.528 205.047 230.881 206.149 230.325 205.612C229.364 204.661 230.001 203.03 230.001 203.03Z" fill="#DAE1EF"/>
<path d="M145.679 150.068C142.833 150.836 141.661 153.651 141.266 155.531C140.871 157.411 141.928 157.789 143.182 156.741C144.436 155.693 146.914 149.727 145.679 150.068Z" fill="#394773"/>
<path style="mix-blend-mode:multiply" opacity="0.5" d="M145.681 150.068C144.796 150.369 143.987 150.862 143.314 151.512C142.642 152.161 142.122 152.949 141.793 153.819C141.458 154.806 143.758 155.713 144.468 154.833C145.178 153.954 146.618 149.867 145.681 150.068Z" fill="url(#paint38_linear_6456_57840)"/>
<path d="M141.538 154.517C141.538 154.517 139.754 158.008 140.588 158.741C141.422 159.474 143.854 155.851 143.854 155.851C143.854 155.851 142.407 157.448 141.551 156.906C140.695 156.363 141.538 154.517 141.538 154.517Z" fill="white"/>
<path d="M156.307 242.241C155.152 243.346 160.694 243.741 161.715 243.346C162.737 242.95 160.432 241.123 159.749 240.966C158.514 241.091 157.328 241.53 156.307 242.241Z" fill="white"/>
<path d="M194.548 223.627L130.088 223.787C130.441 227.044 131.246 230.231 132.48 233.258L138.675 236.694L201.939 236.43L233.8 181.773L233.625 174.861C231.927 172.119 229.752 169.702 227.199 167.72L194.548 223.627Z" fill="url(#paint39_linear_6456_57840)"/>
<path d="M138.676 236.693L132.48 233.257L200.089 233.223L233.626 174.861L233.8 181.773L201.94 236.43L138.676 236.693Z" fill="url(#paint40_linear_6456_57840)"/>
<path style="mix-blend-mode:multiply" opacity="0.5" d="M132.48 233.257L138.676 236.693L139.644 236.718L140.541 238.272C140.541 238.272 144.048 238.078 151.047 237.891C151.276 237.889 156.354 239.362 156.354 239.362C156.354 239.362 202.379 239.983 203.625 239.263C205.217 238.344 227.178 197.857 227.178 197.857C227.178 197.857 228.556 194.146 228.731 193.85L234.623 184.651L233.374 182.489L233.8 181.773L233.626 174.861L200.089 233.223L132.48 233.257Z" fill="url(#paint41_linear_6456_57840)"/>
<path style="mix-blend-mode:multiply" opacity="0.5" d="M194.55 223.627L200.09 233.223L233.627 174.861C231.886 172.152 229.717 169.741 227.201 167.72L194.55 223.627Z" fill="url(#paint42_linear_6456_57840)"/>
<g style="mix-blend-mode:soft-light" opacity="0.5">
<path d="M133.797 224.449C132.872 224.984 138.288 232.627 142.167 232.849C148.35 233.215 184.309 233.298 186.087 232.304C187.321 231.591 183.292 224.783 182.62 224.475C181.347 223.865 135.179 223.652 133.797 224.449Z" fill="white"/>
</g>
<g style="mix-blend-mode:soft-light" opacity="0.5">
<path d="M204.76 206.751C204.524 207.681 208.953 215.182 209.826 214.386C215.711 205.8 220.967 196.812 225.554 187.49C229.733 178.146 226.796 170.723 225.264 171.802C225.169 171.695 205.268 204.838 204.76 206.751Z" fill="white"/>
</g>
<path d="M167.234 233.275C167.234 233.275 198.308 233.587 199.814 232.718C201.319 231.849 213.412 210.113 213.412 210.113C213.412 210.113 201.005 233.472 200.475 233.778C199.944 234.084 167.234 233.275 167.234 233.275Z" fill="white"/>
<path d="M159.785 163.416L127.424 219.171C124.781 217.236 122.424 214.946 120.418 212.365L120.54 205.282L152.4 150.625L215.665 150.362L221.564 153.969C223.088 156.811 224.094 159.903 224.535 163.104L159.785 163.416Z" fill="url(#paint43_linear_6456_57840)"/>
<path d="M120.54 205.282L120.418 212.365L154.245 153.82L221.564 153.969L215.665 150.362L152.4 150.625L120.54 205.282Z" fill="url(#paint44_linear_6456_57840)"/>
<path style="mix-blend-mode:multiply" opacity="0.5" d="M159.786 163.415L154.246 153.819L221.565 153.968C223.041 156.831 224.044 159.915 224.536 163.104L159.786 163.415Z" fill="url(#paint45_linear_6456_57840)"/>
<g style="mix-blend-mode:soft-light" opacity="0.5">
<path d="M128.697 215.619C127.772 216.153 123.868 207.653 125.608 204.17C128.382 198.633 146.29 167.45 148.047 166.419C149.281 165.707 153.155 172.588 153.094 173.336C152.985 174.743 130.079 214.821 128.697 215.619Z" fill="white"/>
</g>
<g style="mix-blend-mode:soft-light" opacity="0.5">
<path d="M179.515 163.022C178.592 162.762 174.311 155.176 175.443 154.83C185.821 154.014 196.234 153.956 206.599 154.657C216.775 155.698 221.735 161.953 220.034 162.74C220.073 162.864 181.461 163.6 179.515 163.022Z" fill="white"/>
</g>
<path d="M137.782 182.258C137.782 182.258 153.055 155.204 154.561 154.335C156.066 153.465 180.93 153.849 180.93 153.849C180.93 153.849 154.497 152.914 153.967 153.22C153.436 153.526 137.782 182.258 137.782 182.258Z" fill="white"/>
<path style="mix-blend-mode:multiply" opacity="0.5" d="M128.467 217.387L159.785 163.416L222.646 163.11L223.577 165.52L212.97 167.206L211.147 169.749L164.113 170.456L140.366 211.813L137.056 212.234L130.044 220.12L128.467 217.387Z" fill="url(#paint46_linear_6456_57840)"/>
<path style="mix-blend-mode:multiply" opacity="0.5" d="M157.573 211.467L154.189 216.774L152.049 210.931L145.971 209.436L150.926 205.539L150.56 199.32L155.763 202.746L161.616 200.404L159.872 206.415L163.862 211.189L157.573 211.467Z" fill="url(#paint47_linear_6456_57840)"/>
<path d="M161.123 200.947L158.321 202.078L157.543 202.382L155.725 203.108L150.925 199.952L151.258 205.687L146.688 209.281L152.289 210.663L154.264 216.05L157.398 211.163L163.184 210.9L159.507 206.496L161.123 200.947Z" fill="url(#paint48_linear_6456_57840)"/>
<path style="mix-blend-mode:multiply" opacity="0.5" d="M146.66 209.295L155.095 206.952L152.274 210.67L146.66 209.295Z" fill="url(#paint49_linear_6456_57840)"/>
<path style="mix-blend-mode:multiply" opacity="0.5" d="M161.098 200.961L155.098 206.952L159.482 206.51L161.098 200.961Z" fill="url(#paint50_linear_6456_57840)"/>
<path style="mix-blend-mode:multiply" opacity="0.5" d="M157.373 211.178L155.097 206.952L154.239 216.064L157.373 211.178Z" fill="url(#paint51_linear_6456_57840)"/>
<path style="mix-blend-mode:multiply" opacity="0.5" d="M163.158 210.914L155.096 206.952L157.371 211.178L163.158 210.914Z" fill="url(#paint52_linear_6456_57840)"/>
<path style="mix-blend-mode:color-dodge" opacity="0.5" d="M150.898 199.966L155.096 206.952L155.698 203.122L150.898 199.966Z" fill="url(#paint53_linear_6456_57840)"/>
<path style="mix-blend-mode:color-dodge" opacity="0.5" d="M161.098 200.961L155.098 206.952L155.7 203.122L161.098 200.961Z" fill="url(#paint54_linear_6456_57840)"/>
<path style="mix-blend-mode:color-dodge" opacity="0.5" d="M161.098 200.961L155.098 206.952L155.7 203.122L161.098 200.961Z" fill="url(#paint55_linear_6456_57840)"/>
<path style="mix-blend-mode:color-dodge" opacity="0.5" d="M151.234 205.701L155.099 206.952L146.664 209.296L151.234 205.701Z" fill="url(#paint56_linear_6456_57840)"/>
<g style="mix-blend-mode:color-dodge" opacity="0.8">
<path d="M156.645 204.649C156.45 205.166 156.878 205.194 156.878 205.194L158.496 203.58C158.115 203.539 157.73 203.621 157.397 203.814C157.063 204.006 156.8 204.299 156.645 204.649Z" fill="white"/>
</g>
<path style="mix-blend-mode:multiply" opacity="0.5" d="M154.274 216.043C154.274 216.043 156.75 212.524 157.571 211.467L163.182 210.9L157.395 211.163L154.274 216.043Z" fill="url(#paint57_linear_6456_57840)"/>
<path style="mix-blend-mode:multiply" opacity="0.5" d="M146.66 209.295L155.095 206.952L153.031 212.695L146.66 209.295Z" fill="url(#paint58_linear_6456_57840)"/>
<path style="mix-blend-mode:multiply" opacity="0.5" d="M161.098 200.961L155.098 206.952L161.239 208.557L161.098 200.961Z" fill="url(#paint59_linear_6456_57840)"/>
<path style="mix-blend-mode:multiply" opacity="0.5" d="M154.262 216.05L155.096 206.952L163.182 210.9L158.329 212.779L154.262 216.05Z" fill="url(#paint60_linear_6456_57840)"/>
<g style="mix-blend-mode:soft-light" opacity="0.4">
<path d="M151.383 204.594C151.665 206.164 153.985 206.023 154.001 205.48C153.644 204.39 152.989 203.423 152.108 202.686C151.624 202.56 151.297 203.931 151.383 204.594Z" fill="#F7FFFF"/>
</g>
<g style="mix-blend-mode:soft-light" opacity="0.4">
<path d="M153.743 212.074C154.77 211.659 154.689 210.264 154.458 209.409C154.104 208.027 151.857 212.854 153.743 212.074Z" fill="#F7FFFF"/>
</g>
<path style="mix-blend-mode:multiply" opacity="0.5" d="M202.581 185.481L199.197 190.788L197.057 184.946L190.979 183.45L195.934 179.553L195.568 173.334L200.771 176.761L206.623 174.418L204.879 180.429L208.869 185.203L202.581 185.481Z" fill="url(#paint61_linear_6456_57840)"/>
<path d="M206.131 174.962L203.317 176.1L202.551 176.397L200.732 177.123L195.932 173.966L196.266 179.701L191.695 183.296L197.297 184.678L199.272 190.064L202.405 185.178L208.192 184.914L204.514 180.51L206.131 174.962Z" fill="url(#paint62_linear_6456_57840)"/>
<path style="mix-blend-mode:multiply" opacity="0.5" d="M191.672 183.31L200.107 180.967L197.273 184.692L191.672 183.31Z" fill="url(#paint63_linear_6456_57840)"/>
<path style="mix-blend-mode:multiply" opacity="0.5" d="M206.106 174.976L200.106 180.967L204.49 180.525L206.106 174.976Z" fill="url(#paint64_linear_6456_57840)"/>
<path style="mix-blend-mode:multiply" opacity="0.5" d="M202.38 185.192L200.105 180.966L199.247 190.078L202.38 185.192Z" fill="url(#paint65_linear_6456_57840)"/>
<path style="mix-blend-mode:multiply" opacity="0.5" d="M208.165 184.928L200.104 180.966L202.379 185.192L208.165 184.928Z" fill="url(#paint66_linear_6456_57840)"/>
<path style="mix-blend-mode:color-dodge" opacity="0.5" d="M195.906 173.98L200.104 180.967L200.706 177.137L195.906 173.98Z" fill="url(#paint67_linear_6456_57840)"/>
<path style="mix-blend-mode:color-dodge" opacity="0.5" d="M206.106 174.976L200.105 180.967L200.707 177.137L206.106 174.976Z" fill="url(#paint68_linear_6456_57840)"/>
<path style="mix-blend-mode:color-dodge" opacity="0.5" d="M206.106 174.976L200.105 180.967L200.707 177.137L206.106 174.976Z" fill="url(#paint69_linear_6456_57840)"/>
<path style="mix-blend-mode:color-dodge" opacity="0.5" d="M196.242 179.715L200.107 180.966L191.672 183.31L196.242 179.715Z" fill="url(#paint70_linear_6456_57840)"/>
<g style="mix-blend-mode:color-dodge" opacity="0.8">
<path d="M201.592 178.699C201.397 179.216 201.886 179.209 201.886 179.209L203.504 177.595C203.11 177.545 202.709 177.626 202.363 177.826C202.017 178.026 201.746 178.333 201.592 178.699Z" fill="white"/>
</g>
<path style="mix-blend-mode:multiply" opacity="0.5" d="M199.235 190.086C199.235 190.086 201.723 186.56 202.544 185.503L208.155 184.936L202.369 185.199L199.235 190.086Z" fill="url(#paint71_linear_6456_57840)"/>
<path style="mix-blend-mode:multiply" opacity="0.5" d="M191.672 183.31L200.107 180.967L198.043 186.709L191.672 183.31Z" fill="url(#paint72_linear_6456_57840)"/>
<path style="mix-blend-mode:multiply" opacity="0.5" d="M206.106 174.976L200.106 180.967L206.247 182.571L206.106 174.976Z" fill="url(#paint73_linear_6456_57840)"/>
<path style="mix-blend-mode:multiply" opacity="0.5" d="M199.27 190.064L200.104 180.966L208.19 184.914L203.337 186.793L199.27 190.064Z" fill="url(#paint74_linear_6456_57840)"/>
<g style="mix-blend-mode:soft-light" opacity="0.4">
<path d="M196.391 178.608C196.673 180.179 198.993 180.037 199.008 179.494C198.653 178.402 197.993 177.436 197.103 176.707C196.632 176.574 196.28 177.96 196.391 178.608Z" fill="#F7FFFF"/>
</g>
<g style="mix-blend-mode:soft-light" opacity="0.4">
<path d="M198.741 186.095C199.78 185.673 199.699 184.279 199.469 183.424C199.115 182.041 196.868 186.869 198.741 186.095Z" fill="#F7FFFF"/>
</g>
<path style="mix-blend-mode:multiply" opacity="0.5" d="M179.843 198.61L176.458 203.916L174.319 198.074L168.241 196.579L173.196 192.681L172.83 186.463L178.032 189.889L183.885 187.546L182.141 193.558L186.119 198.339L179.843 198.61Z" fill="url(#paint75_linear_6456_57840)"/>
<path d="M183.38 188.097L180.579 189.228L179.812 189.525L177.982 190.258L173.194 187.094L173.528 192.829L168.957 196.424L174.558 197.806L176.533 203.192L179.667 198.306L185.454 198.042L181.776 193.638L183.38 188.097Z" fill="url(#paint76_linear_6456_57840)"/>
<path style="mix-blend-mode:multiply" opacity="0.5" d="M168.934 196.438L177.369 194.095L174.535 197.82L168.934 196.438Z" fill="url(#paint77_linear_6456_57840)"/>
<path style="mix-blend-mode:multiply" opacity="0.5" d="M183.355 188.111L177.367 194.095L181.751 193.653L183.355 188.111Z" fill="url(#paint78_linear_6456_57840)"/>
<path style="mix-blend-mode:multiply" opacity="0.5" d="M179.642 198.32L177.367 194.095L176.508 203.207L179.642 198.32Z" fill="url(#paint79_linear_6456_57840)"/>
<path style="mix-blend-mode:multiply" opacity="0.5" d="M185.427 198.057L177.366 194.095L179.641 198.32L185.427 198.057Z" fill="url(#paint80_linear_6456_57840)"/>
<path style="mix-blend-mode:color-dodge" opacity="0.5" d="M173.168 187.108L177.366 194.094L177.956 190.272L173.168 187.108Z" fill="url(#paint81_linear_6456_57840)"/>
<path style="mix-blend-mode:color-dodge" opacity="0.5" d="M183.355 188.111L177.367 194.094L177.957 190.272L183.355 188.111Z" fill="url(#paint82_linear_6456_57840)"/>
<path style="mix-blend-mode:color-dodge" opacity="0.5" d="M183.355 188.111L177.367 194.094L177.957 190.272L183.355 188.111Z" fill="url(#paint83_linear_6456_57840)"/>
<path style="mix-blend-mode:color-dodge" opacity="0.5" d="M173.504 192.843L177.368 194.094L168.933 196.438L173.504 192.843Z" fill="url(#paint84_linear_6456_57840)"/>
<g style="mix-blend-mode:color-dodge" opacity="0.8">
<path d="M178.853 191.827C178.659 192.344 179.148 192.337 179.148 192.337L180.766 190.723C180.372 190.673 179.971 190.755 179.625 190.955C179.279 191.154 179.008 191.461 178.853 191.827Z" fill="white"/>
</g>
<path style="mix-blend-mode:multiply" opacity="0.5" d="M176.532 203.192C176.532 203.192 179.008 199.673 179.841 198.609L185.452 198.042L179.666 198.306L176.532 203.192Z" fill="url(#paint85_linear_6456_57840)"/>
<path style="mix-blend-mode:multiply" opacity="0.5" d="M168.934 196.438L177.369 194.095L175.305 199.837L168.934 196.438Z" fill="url(#paint86_linear_6456_57840)"/>
<path style="mix-blend-mode:multiply" opacity="0.5" d="M183.355 188.111L177.367 194.095L183.509 195.699L183.355 188.111Z" fill="url(#paint87_linear_6456_57840)"/>
<path style="mix-blend-mode:multiply" opacity="0.5" d="M176.532 203.193L177.366 194.095L185.452 198.042L180.598 199.922L176.532 203.193Z" fill="url(#paint88_linear_6456_57840)"/>
<g style="mix-blend-mode:soft-light" opacity="0.4">
<path d="M173.653 191.737C173.934 193.307 176.255 193.166 176.27 192.623C175.915 191.53 175.254 190.564 174.365 189.836C173.893 189.703 173.505 191.11 173.653 191.737Z" fill="#F7FFFF"/>
</g>
<g style="mix-blend-mode:soft-light" opacity="0.4">
<path d="M176.003 199.224C177.042 198.802 176.961 197.407 176.73 196.552C176.376 195.169 174.13 199.997 176.003 199.224Z" fill="#F7FFFF"/>
</g>
<path d="M74.6133 72.2319L91.1996 80.7873C92.7122 81.5675 94.5178 81.5247 95.9917 80.6737L121.464 65.9671C122.938 65.1161 123.878 63.5738 123.959 61.8738L124.843 43.2319L74.6133 72.2319Z" fill="url(#paint89_linear_6456_57840)"/>
<path d="M100.041 62.4007L101.267 73.0087L99.3273 74.1287L90.7658 67.7557L92.8875 66.5307L98.97 71.1018L98.0889 63.5277L100.041 62.4007ZM100.927 61.889L102.891 60.755L107.791 69.2421L105.827 70.3761L100.927 61.889ZM108.579 57.4711C109.711 56.8178 110.767 56.5746 111.747 56.7416C112.727 56.9086 113.492 57.4689 114.043 58.4227C114.589 59.3684 114.689 60.3074 114.344 61.2397C113.998 62.172 113.26 62.9649 112.128 63.6182L110.419 64.6052L111.77 66.9452L109.805 68.0792L104.905 59.5921L108.579 57.4711ZM111.095 62.0808C112.299 61.3854 112.619 60.5488 112.055 59.5707C111.485 58.5846 110.598 58.4392 109.394 59.1346L107.794 60.0586L109.495 63.0048L111.095 62.0808Z" fill="white"/>
<path d="M29.7319 119.556L31.4778 118.548L38.9678 126.445L35.8426 116.028L37.5885 115.02L41.0106 127.427L38.797 128.705L29.7319 119.556Z" fill="white"/>
<g style="mix-blend-mode:overlay">
<g style="mix-blend-mode:color-dodge">
<path fill-rule="evenodd" clip-rule="evenodd" d="M7.73047 122.392C4.96905 117.609 6.60779 111.493 11.3907 108.732L186.328 7.73193C191.111 4.97051 197.227 6.60926 199.988 11.3922L254.269 105.41C255.795 108.053 255.931 111.277 254.633 114.039C253.334 116.802 253.47 120.025 254.996 122.669L266.56 142.698L268.06 145.296L279.624 165.325C281.15 167.969 283.873 169.698 286.915 169.955C289.957 170.211 292.681 171.941 294.207 174.584L345.988 264.272C348.75 269.055 347.111 275.17 342.328 277.932L167.391 378.932C162.608 381.693 156.492 380.055 153.73 375.272L102.821 287.094C101.185 284.259 101.039 280.803 102.431 277.84L103.168 276.274C104.56 273.311 104.415 269.855 102.778 267.02L91.3907 247.296L89.8907 244.698L78.5033 224.974C76.8666 222.139 73.946 220.285 70.6841 220.01L68.9588 219.864C65.697 219.589 62.7764 217.734 61.1396 214.9L7.73047 122.392Z" fill="url(#paint90_linear_6456_57840)"/>
</g>
</g>
<defs>
<filter id="filter0_b_6456_57840" x="-0.574219" y="103.373" width="198.215" height="269.589" filterUnits="userSpaceOnUse" colorInterpolationFilters="sRGB">
<feFlood floodOpacity="0" result="BackgroundImageFix"/>
<feGaussianBlur in="BackgroundImageFix" stdDeviation="13"/>
<feComposite in2="SourceAlpha" operator="in" result="effect1_backgroundBlur_6456_57840"/>
<feBlend mode="normal" in="SourceGraphic" in2="effect1_backgroundBlur_6456_57840" result="shape"/>
</filter>
<filter id="filter1_b_6456_57840" x="156.082" y="13.7021" width="198.215" height="269.589" filterUnits="userSpaceOnUse" colorInterpolationFilters="sRGB">
<feFlood floodOpacity="0" result="BackgroundImageFix"/>
<feGaussianBlur in="BackgroundImageFix" stdDeviation="13"/>
<feComposite in2="SourceAlpha" operator="in" result="effect1_backgroundBlur_6456_57840"/>
<feBlend mode="normal" in="SourceGraphic" in2="effect1_backgroundBlur_6456_57840" result="shape"/>
</filter>
<filter id="filter2_i_6456_57840" x="3.66016" y="3.65869" width="346.402" height="383.347" filterUnits="userSpaceOnUse" colorInterpolationFilters="sRGB">
<feFlood floodOpacity="0" result="BackgroundImageFix"/>
<feBlend mode="normal" in="SourceGraphic" in2="BackgroundImageFix" result="shape"/>
<feColorMatrix in="SourceAlpha" type="matrix" values="0 0 0 0 0 0 0 0 0 0 0 0 0 0 0 0 0 0 127 0" result="hardAlpha"/>
<feOffset dy="5"/>
<feGaussianBlur stdDeviation="2"/>
<feComposite in2="hardAlpha" operator="arithmetic" k2="-1" k3="1"/>
<feColorMatrix type="matrix" values="0 0 0 0 0 0 0 0 0 0 0 0 0 0 0 0 0 0 0.25 0"/>
<feBlend mode="normal" in2="shape" result="effect1_innerShadow_6456_57840"/>
</filter>
<filter id="filter3_f_6456_57840" x="47.6367" y="65.1782" width="259.316" height="255.808" filterUnits="userSpaceOnUse" colorInterpolationFilters="sRGB">
<feFlood floodOpacity="0" result="BackgroundImageFix"/>
<feBlend mode="normal" in="SourceGraphic" in2="BackgroundImageFix" result="shape"/>
<feGaussianBlur stdDeviation="37.5" result="effect1_foregroundBlur_6456_57840"/>
</filter>
<filter id="filter4_f_6456_57840" x="175.984" y="12.2545" width="16.8602" height="49.2537" filterUnits="userSpaceOnUse" colorInterpolationFilters="sRGB">
<feFlood floodOpacity="0" result="BackgroundImageFix"/>
<feBlend mode="normal" in="SourceGraphic" in2="BackgroundImageFix" result="shape"/>
<feGaussianBlur stdDeviation="1.092" result="effect1_foregroundBlur_6456_57840"/>
</filter>
<filter id="filter5_f_6456_57840" x="173.902" y="5.79647" width="21.0203" height="62.1702" filterUnits="userSpaceOnUse" colorInterpolationFilters="sRGB">
<feFlood floodOpacity="0" result="BackgroundImageFix"/>
<feBlend mode="normal" in="SourceGraphic" in2="BackgroundImageFix" result="shape"/>
<feGaussianBlur stdDeviation="1.092" result="effect1_foregroundBlur_6456_57840"/>
</filter>
<filter id="filter6_f_6456_57840" x="173.902" y="5.79647" width="21.0203" height="62.1702" filterUnits="userSpaceOnUse" colorInterpolationFilters="sRGB">
<feFlood floodOpacity="0" result="BackgroundImageFix"/>
<feBlend mode="normal" in="SourceGraphic" in2="BackgroundImageFix" result="shape"/>
<feGaussianBlur stdDeviation="1.092" result="effect1_foregroundBlur_6456_57840"/>
</filter>
<filter id="filter7_f_6456_57840" x="168.996" y="10.5538" width="16.8602" height="49.2537" filterUnits="userSpaceOnUse" colorInterpolationFilters="sRGB">
<feFlood floodOpacity="0" result="BackgroundImageFix"/>
<feBlend mode="normal" in="SourceGraphic" in2="BackgroundImageFix" result="shape"/>
<feGaussianBlur stdDeviation="1.092" result="effect1_foregroundBlur_6456_57840"/>
</filter>
<filter id="filter8_f_6456_57840" x="182.617" y="16.3355" width="16.6102" height="49.1864" filterUnits="userSpaceOnUse" colorInterpolationFilters="sRGB">
<feFlood floodOpacity="0" result="BackgroundImageFix"/>
<feBlend mode="normal" in="SourceGraphic" in2="BackgroundImageFix" result="shape"/>
<feGaussianBlur stdDeviation="1.092" result="effect1_foregroundBlur_6456_57840"/>
</filter>
<linearGradient id="paint0_linear_6456_57840" x1="128.396" y1="343.39" x2="73.6169" y2="96.9871" gradientUnits="userSpaceOnUse">
<stop stop-color="#060913"/>
<stop offset="0.136764" stop-color="#070A16"/>
<stop offset="0.197268" stop-color="#0D142E"/>
<stop offset="0.309253" stop-color="#070B17"/>
<stop offset="0.490764" stop-color="#080C1A"/>
<stop offset="0.661458" stop-color="#0B1125"/>
<stop offset="1" stop-color="#101010"/>
</linearGradient>
<linearGradient id="paint1_linear_6456_57840" x1="165.082" y1="345.931" x2="208.07" y2="294.616" gradientUnits="userSpaceOnUse">
<stop stop-color="#EECCA2"/>
<stop offset="0.260417" stop-color="#624A2C"/>
<stop offset="0.6875" stop-color="#FFDAAB"/>
<stop offset="1" stop-color="#C68C43"/>
</linearGradient>
<linearGradient id="paint2_linear_6456_57840" x1="225.326" y1="43.2745" x2="280.106" y2="289.677" gradientUnits="userSpaceOnUse">
<stop stop-color="#060913"/>
<stop offset="0.136764" stop-color="#070A16"/>
<stop offset="0.197268" stop-color="#0D142E"/>
<stop offset="0.309253" stop-color="#070B17"/>
<stop offset="0.490764" stop-color="#080C1A"/>
<stop offset="0.661458" stop-color="#0B1125"/>
<stop offset="1" stop-color="#101010"/>
</linearGradient>
<linearGradient id="paint3_linear_6456_57840" x1="188.641" y1="40.7329" x2="145.652" y2="92.0479" gradientUnits="userSpaceOnUse">
<stop stop-color="#EECCA2"/>
<stop offset="0.260417" stop-color="#624A2C"/>
<stop offset="0.6875" stop-color="#FFDAAB"/>
<stop offset="1" stop-color="#C68C43"/>
</linearGradient>
<linearGradient id="paint4_linear_6456_57840" x1="132.309" y1="7.16635" x2="161.327" y2="423.426" gradientUnits="userSpaceOnUse">
<stop stop-color="#C68C43"/>
<stop offset="0.119792" stop-color="#F5BA6E"/>
<stop offset="0.286458" stop-color="#C68C43"/>
<stop offset="0.5625" stop-color="#C68C43"/>
<stop offset="0.770833" stop-color="#EEB873"/>
<stop offset="1" stop-color="#C68C43"/>
</linearGradient>
<linearGradient id="paint5_linear_6456_57840" x1="34.3219" y1="160.448" x2="220.517" y2="52.9484" gradientUnits="userSpaceOnUse">
<stop stop-color="#8980EB"/>
<stop offset="1" stop-color="#705AB8"/>
</linearGradient>
<linearGradient id="paint6_linear_6456_57840" x1="176.98" y1="192.605" x2="64.2723" y2="-2.61" gradientUnits="userSpaceOnUse">
<stop stop-color="#86759D"/>
<stop offset="0.39" stop-color="#98ABD2"/>
<stop offset="1" stop-color="#DAE1EF"/>
</linearGradient>
<linearGradient id="paint7_linear_6456_57840" x1="42.0997" y1="159.059" x2="129.97" y2="108.327" gradientUnits="userSpaceOnUse">
<stop stop-color="#705AB8"/>
<stop offset="1" stop-color="white"/>
</linearGradient>
<linearGradient id="paint8_linear_6456_57840" x1="129.959" y1="108.333" x2="214.823" y2="59.3365" gradientUnits="userSpaceOnUse">
<stop stop-color="#705AB8"/>
<stop offset="1" stop-color="white"/>
</linearGradient>
<linearGradient id="paint9_linear_6456_57840" x1="98.8085" y1="181.253" x2="153.745" y2="149.535" gradientUnits="userSpaceOnUse">
<stop stop-color="#705AB8"/>
<stop offset="1" stop-color="white"/>
</linearGradient>
<linearGradient id="paint10_linear_6456_57840" x1="152.25" y1="150.399" x2="205.615" y2="119.589" gradientUnits="userSpaceOnUse">
<stop stop-color="#705AB8"/>
<stop offset="1" stop-color="white"/>
</linearGradient>
<linearGradient id="paint11_linear_6456_57840" x1="95.3684" y1="33.7343" x2="170.603" y2="136.43" gradientUnits="userSpaceOnUse">
<stop stop-color="#BFD7FF"/>
<stop offset="1"/>
</linearGradient>
<linearGradient id="paint12_linear_6456_57840" x1="121.949" y1="94.4626" x2="206.813" y2="45.4663" gradientUnits="userSpaceOnUse">
<stop stop-color="#BFD7FF"/>
<stop offset="1"/>
</linearGradient>
<linearGradient id="paint13_linear_6456_57840" x1="122.588" y1="13.8302" x2="197.783" y2="116.457" gradientUnits="userSpaceOnUse">
<stop stop-color="#BFD7FF"/>
<stop offset="1"/>
</linearGradient>
<linearGradient id="paint14_linear_6456_57840" x1="42.6223" y1="72.3893" x2="117.817" y2="175.016" gradientUnits="userSpaceOnUse">
<stop stop-color="#BFD7FF"/>
<stop offset="1"/>
</linearGradient>
<linearGradient id="paint15_linear_6456_57840" x1="113.752" y1="206.334" x2="220.481" y2="144.714" gradientUnits="userSpaceOnUse">
<stop stop-color="#8980EB"/>
<stop offset="1" stop-color="#705AB8"/>
</linearGradient>
<linearGradient id="paint16_linear_6456_57840" x1="134.469" y1="252.825" x2="119.91" y2="227.608" gradientUnits="userSpaceOnUse">
<stop offset="0.21" stop-color="#98ABD2"/>
<stop offset="0.49" stop-color="#72719D"/>
<stop offset="1" stop-color="#DAE1EF"/>
</linearGradient>
<linearGradient id="paint17_linear_6456_57840" x1="136.077" y1="248.544" x2="129.151" y2="236.768" gradientUnits="userSpaceOnUse">
<stop stop-color="#705AB8"/>
<stop offset="1" stop-color="white"/>
</linearGradient>
<linearGradient id="paint18_linear_6456_57840" x1="131.854" y1="237.442" x2="141.478" y2="231.886" gradientUnits="userSpaceOnUse">
<stop stop-color="#8980EB"/>
<stop offset="1" stop-color="#705AB8"/>
</linearGradient>
<linearGradient id="paint19_linear_6456_57840" x1="249.567" y1="186.372" x2="235.008" y2="161.155" gradientUnits="userSpaceOnUse">
<stop offset="0.21" stop-color="#98ABD2"/>
<stop offset="0.49" stop-color="#72719D"/>
<stop offset="1" stop-color="#DAE1EF"/>
</linearGradient>
<linearGradient id="paint20_linear_6456_57840" x1="245.057" y1="185.624" x2="238.334" y2="173.731" gradientUnits="userSpaceOnUse">
<stop stop-color="#705AB8"/>
<stop offset="1" stop-color="white"/>
</linearGradient>
<linearGradient id="paint21_linear_6456_57840" x1="237.566" y1="176.41" x2="227.942" y2="181.966" gradientUnits="userSpaceOnUse">
<stop stop-color="#8980EB"/>
<stop offset="1" stop-color="#705AB8"/>
</linearGradient>
<linearGradient id="paint22_linear_6456_57840" x1="212.202" y1="254.119" x2="154.323" y2="153.871" gradientUnits="userSpaceOnUse">
<stop offset="0.21" stop-color="#98ABD2"/>
<stop offset="0.49" stop-color="#72719D"/>
<stop offset="1" stop-color="#DAE1EF"/>
</linearGradient>
<linearGradient id="paint23_linear_6456_57840" x1="152.601" y1="150.883" x2="205.331" y2="242.215" gradientUnits="userSpaceOnUse">
<stop offset="0.21" stop-color="#98ABD2"/>
<stop offset="0.49" stop-color="#72719D"/>
<stop offset="1" stop-color="#DAE1EF"/>
</linearGradient>
<linearGradient id="paint24_linear_6456_57840" x1="159.228" y1="260.977" x2="127.319" y2="205.709" gradientUnits="userSpaceOnUse">
<stop stop-color="#705AB8"/>
<stop offset="1" stop-color="white"/>
</linearGradient>
<linearGradient id="paint25_linear_6456_57840" x1="244.444" y1="211.777" x2="212.535" y2="156.509" gradientUnits="userSpaceOnUse">
<stop stop-color="#705AB8"/>
<stop offset="1" stop-color="white"/>
</linearGradient>
<linearGradient id="paint26_linear_6456_57840" x1="155.871" y1="235.415" x2="199.168" y2="259.158" gradientUnits="userSpaceOnUse">
<stop stop-color="#705AB8"/>
<stop offset="1" stop-color="white"/>
</linearGradient>
<linearGradient id="paint27_linear_6456_57840" x1="209.08" y1="210.785" x2="252.366" y2="249.27" gradientUnits="userSpaceOnUse">
<stop stop-color="#705AB8"/>
<stop offset="1" stop-color="white"/>
</linearGradient>
<linearGradient id="paint28_linear_6456_57840" x1="207.153" y1="245.6" x2="163.034" y2="169.185" gradientUnits="userSpaceOnUse">
<stop stop-color="#705AB8"/>
<stop offset="1" stop-color="white"/>
</linearGradient>
<linearGradient id="paint29_linear_6456_57840" x1="132.573" y1="204.926" x2="209.401" y2="160.569" gradientUnits="userSpaceOnUse">
<stop stop-color="#8980EB"/>
<stop offset="1" stop-color="#705AB8"/>
</linearGradient>
<linearGradient id="paint30_linear_6456_57840" x1="109.938" y1="185.295" x2="174.835" y2="147.827" gradientUnits="userSpaceOnUse">
<stop stop-color="#728EE3"/>
<stop offset="1" stop-color="#836888"/>
</linearGradient>
<linearGradient id="paint31_linear_6456_57840" x1="147.102" y1="249.661" x2="240.895" y2="195.51" gradientUnits="userSpaceOnUse">
<stop stop-color="#728EE3"/>
<stop offset="1" stop-color="#836888"/>
</linearGradient>
<linearGradient id="paint32_linear_6456_57840" x1="219.625" y1="218.737" x2="241.772" y2="205.951" gradientUnits="userSpaceOnUse">
<stop stop-color="#8980EB"/>
<stop offset="1" stop-color="#705AB8"/>
</linearGradient>
<linearGradient id="paint33_linear_6456_57840" x1="133.14" y1="205.506" x2="135.57" y2="204.103" gradientUnits="userSpaceOnUse">
<stop stop-color="#8980EB"/>
<stop offset="1" stop-color="#705AB8"/>
</linearGradient>
<linearGradient id="paint34_linear_6456_57840" x1="206.472" y1="161.647" x2="208.73" y2="160.343" gradientUnits="userSpaceOnUse">
<stop stop-color="#8980EB"/>
<stop offset="1" stop-color="#705AB8"/>
</linearGradient>
<linearGradient id="paint35_linear_6456_57840" x1="135.681" y1="161.154" x2="152.867" y2="151.231" gradientUnits="userSpaceOnUse">
<stop stop-color="#8980EB"/>
<stop offset="1" stop-color="#705AB8"/>
</linearGradient>
<linearGradient id="paint36_linear_6456_57840" x1="192.868" y1="194.794" x2="195.445" y2="196.42" gradientUnits="userSpaceOnUse">
<stop stop-color="#8980EB"/>
<stop offset="1" stop-color="#705AB8"/>
</linearGradient>
<linearGradient id="paint37_linear_6456_57840" x1="196.733" y1="192.246" x2="198.681" y2="193.476" gradientUnits="userSpaceOnUse">
<stop stop-color="#8980EB"/>
<stop offset="1" stop-color="#705AB8"/>
</linearGradient>
<linearGradient id="paint38_linear_6456_57840" x1="142.892" y1="151.413" x2="145.353" y2="153.022" gradientUnits="userSpaceOnUse">
<stop stop-color="#8980EB"/>
<stop offset="1" stop-color="#705AB8"/>
</linearGradient>
<linearGradient id="paint39_linear_6456_57840" x1="159.3" y1="162.918" x2="201.251" y2="235.58" gradientUnits="userSpaceOnUse">
<stop offset="0.21" stop-color="#98ABD2"/>
<stop offset="0.49" stop-color="#72719D"/>
<stop offset="1" stop-color="#DAE1EF"/>
</linearGradient>
<linearGradient id="paint40_linear_6456_57840" x1="141.85" y1="249.486" x2="242.995" y2="191.089" gradientUnits="userSpaceOnUse">
<stop offset="0.21" stop-color="#98ABD2"/>
<stop offset="0.49" stop-color="#72719D"/>
<stop offset="1" stop-color="#DAE1EF"/>
</linearGradient>
<linearGradient id="paint41_linear_6456_57840" x1="203.791" y1="239.977" x2="186.307" y2="209.695" gradientUnits="userSpaceOnUse">
<stop stop-color="#8980EB"/>
<stop offset="1" stop-color="#705AB8"/>
</linearGradient>
<linearGradient id="paint42_linear_6456_57840" x1="189.687" y1="240.412" x2="164.768" y2="204.588" gradientUnits="userSpaceOnUse">
<stop stop-color="#705AB8"/>
<stop offset="1" stop-color="white"/>
</linearGradient>
<linearGradient id="paint43_linear_6456_57840" x1="109.154" y1="202.656" x2="237.184" y2="128.739" gradientUnits="userSpaceOnUse">
<stop offset="0.21" stop-color="#98ABD2"/>
<stop offset="0.49" stop-color="#72719D"/>
<stop offset="1" stop-color="#DAE1EF"/>
</linearGradient>
<linearGradient id="paint44_linear_6456_57840" x1="182.191" y1="202.565" x2="150.141" y2="147.054" gradientUnits="userSpaceOnUse">
<stop offset="0.21" stop-color="#98ABD2"/>
<stop offset="0.49" stop-color="#72719D"/>
<stop offset="1" stop-color="#DAE1EF"/>
</linearGradient>
<linearGradient id="paint45_linear_6456_57840" x1="142.819" y1="159.234" x2="161.384" y2="198.727" gradientUnits="userSpaceOnUse">
<stop stop-color="#705AB8"/>
<stop offset="1" stop-color="white"/>
</linearGradient>
<linearGradient id="paint46_linear_6456_57840" x1="177.408" y1="193.455" x2="162.73" y2="168.032" gradientUnits="userSpaceOnUse">
<stop stop-color="#8980EB"/>
<stop offset="1" stop-color="#705AB8"/>
</linearGradient>
<linearGradient id="paint47_linear_6456_57840" x1="159.179" y1="214.249" x2="149.13" y2="196.842" gradientUnits="userSpaceOnUse">
<stop stop-color="#8980EB"/>
<stop offset="1" stop-color="#705AB8"/>
</linearGradient>
<linearGradient id="paint48_linear_6456_57840" x1="158.877" y1="213.726" x2="149.606" y2="197.668" gradientUnits="userSpaceOnUse">
<stop stop-color="#86759D"/>
<stop offset="0.39" stop-color="#98ABD2"/>
<stop offset="1" stop-color="#DAE1EF"/>
</linearGradient>
<linearGradient id="paint49_linear_6456_57840" x1="147.663" y1="211.032" x2="155.004" y2="206.794" gradientUnits="userSpaceOnUse">
<stop stop-color="#705AB8"/>
<stop offset="1" stop-color="white"/>
</linearGradient>
<linearGradient id="paint50_linear_6456_57840" x1="155.007" y1="206.794" x2="162.101" y2="202.698" gradientUnits="userSpaceOnUse">
<stop stop-color="#705AB8"/>
<stop offset="1" stop-color="white"/>
</linearGradient>
<linearGradient id="paint51_linear_6456_57840" x1="152.373" y1="212.833" x2="156.963" y2="210.183" gradientUnits="userSpaceOnUse">
<stop stop-color="#705AB8"/>
<stop offset="1" stop-color="white"/>
</linearGradient>
<linearGradient id="paint52_linear_6456_57840" x1="156.838" y1="210.255" x2="161.292" y2="207.683" gradientUnits="userSpaceOnUse">
<stop stop-color="#705AB8"/>
<stop offset="1" stop-color="white"/>
</linearGradient>
<linearGradient id="paint53_linear_6456_57840" x1="152.169" y1="200.657" x2="158.337" y2="209.102" gradientUnits="userSpaceOnUse">
<stop stop-color="#BFD7FF"/>
<stop offset="1"/>
</linearGradient>
<linearGradient id="paint54_linear_6456_57840" x1="154.347" y1="205.652" x2="161.441" y2="201.556" gradientUnits="userSpaceOnUse">
<stop stop-color="#BFD7FF"/>
<stop offset="1"/>
</linearGradient>
<linearGradient id="paint55_linear_6456_57840" x1="154.447" y1="198.987" x2="160.622" y2="207.443" gradientUnits="userSpaceOnUse">
<stop stop-color="#BFD7FF"/>
<stop offset="1"/>
</linearGradient>
<linearGradient id="paint56_linear_6456_57840" x1="147.759" y1="203.87" x2="153.933" y2="212.326" gradientUnits="userSpaceOnUse">
<stop stop-color="#BFD7FF"/>
<stop offset="1"/>
</linearGradient>
<linearGradient id="paint57_linear_6456_57840" x1="153.608" y1="214.889" x2="162.516" y2="209.746" gradientUnits="userSpaceOnUse">
<stop stop-color="#8980EB"/>
<stop offset="1" stop-color="#705AB8"/>
</linearGradient>
<linearGradient id="paint58_linear_6456_57840" x1="148.196" y1="211.956" x2="155.537" y2="207.717" gradientUnits="userSpaceOnUse">
<stop stop-color="#8980EB"/>
<stop offset="1" stop-color="#705AB8"/>
</linearGradient>
<linearGradient id="paint59_linear_6456_57840" x1="155.666" y1="207.936" x2="162.76" y2="203.84" gradientUnits="userSpaceOnUse">
<stop stop-color="#8980EB"/>
<stop offset="1" stop-color="#705AB8"/>
</linearGradient>
<linearGradient id="paint60_linear_6456_57840" x1="152.409" y1="212.812" x2="161.317" y2="207.669" gradientUnits="userSpaceOnUse">
<stop stop-color="#8980EB"/>
<stop offset="1" stop-color="#705AB8"/>
</linearGradient>
<linearGradient id="paint61_linear_6456_57840" x1="204.187" y1="188.263" x2="194.138" y2="170.856" gradientUnits="userSpaceOnUse">
<stop stop-color="#8980EB"/>
<stop offset="1" stop-color="#705AB8"/>
</linearGradient>
<linearGradient id="paint62_linear_6456_57840" x1="203.885" y1="187.741" x2="194.614" y2="171.683" gradientUnits="userSpaceOnUse">
<stop stop-color="#86759D"/>
<stop offset="0.39" stop-color="#98ABD2"/>
<stop offset="1" stop-color="#DAE1EF"/>
</linearGradient>
<linearGradient id="paint63_linear_6456_57840" x1="192.675" y1="185.047" x2="200.016" y2="180.809" gradientUnits="userSpaceOnUse">
<stop stop-color="#705AB8"/>
<stop offset="1" stop-color="white"/>
</linearGradient>
<linearGradient id="paint64_linear_6456_57840" x1="200.015" y1="180.809" x2="207.109" y2="176.713" gradientUnits="userSpaceOnUse">
<stop stop-color="#705AB8"/>
<stop offset="1" stop-color="white"/>
</linearGradient>
<linearGradient id="paint65_linear_6456_57840" x1="197.381" y1="186.847" x2="201.971" y2="184.197" gradientUnits="userSpaceOnUse">
<stop stop-color="#705AB8"/>
<stop offset="1" stop-color="white"/>
</linearGradient>
<linearGradient id="paint66_linear_6456_57840" x1="201.846" y1="184.269" x2="206.3" y2="181.697" gradientUnits="userSpaceOnUse">
<stop stop-color="#705AB8"/>
<stop offset="1" stop-color="white"/>
</linearGradient>
<linearGradient id="paint67_linear_6456_57840" x1="197.177" y1="174.672" x2="203.345" y2="183.116" gradientUnits="userSpaceOnUse">
<stop stop-color="#BFD7FF"/>
<stop offset="1"/>
</linearGradient>
<linearGradient id="paint68_linear_6456_57840" x1="199.355" y1="179.667" x2="206.449" y2="175.571" gradientUnits="userSpaceOnUse">
<stop stop-color="#BFD7FF"/>
<stop offset="1"/>
</linearGradient>
<linearGradient id="paint69_linear_6456_57840" x1="199.455" y1="173.001" x2="205.629" y2="181.458" gradientUnits="userSpaceOnUse">
<stop stop-color="#BFD7FF"/>
<stop offset="1"/>
</linearGradient>
<linearGradient id="paint70_linear_6456_57840" x1="192.767" y1="177.884" x2="198.941" y2="186.341" gradientUnits="userSpaceOnUse">
<stop stop-color="#BFD7FF"/>
<stop offset="1"/>
</linearGradient>
<linearGradient id="paint71_linear_6456_57840" x1="198.606" y1="188.91" x2="207.526" y2="183.76" gradientUnits="userSpaceOnUse">
<stop stop-color="#8980EB"/>
<stop offset="1" stop-color="#705AB8"/>
</linearGradient>
<linearGradient id="paint72_linear_6456_57840" x1="193.208" y1="185.97" x2="200.549" y2="181.732" gradientUnits="userSpaceOnUse">
<stop stop-color="#8980EB"/>
<stop offset="1" stop-color="#705AB8"/>
</linearGradient>
<linearGradient id="paint73_linear_6456_57840" x1="200.674" y1="181.951" x2="207.768" y2="177.855" gradientUnits="userSpaceOnUse">
<stop stop-color="#8980EB"/>
<stop offset="1" stop-color="#705AB8"/>
</linearGradient>
<linearGradient id="paint74_linear_6456_57840" x1="197.405" y1="186.833" x2="206.325" y2="181.683" gradientUnits="userSpaceOnUse">
<stop stop-color="#8980EB"/>
<stop offset="1" stop-color="#705AB8"/>
</linearGradient>
<linearGradient id="paint75_linear_6456_57840" x1="181.449" y1="201.391" x2="171.399" y2="183.985" gradientUnits="userSpaceOnUse">
<stop stop-color="#8980EB"/>
<stop offset="1" stop-color="#705AB8"/>
</linearGradient>
<linearGradient id="paint76_linear_6456_57840" x1="181.147" y1="200.869" x2="171.876" y2="184.811" gradientUnits="userSpaceOnUse">
<stop stop-color="#86759D"/>
<stop offset="0.39" stop-color="#98ABD2"/>
<stop offset="1" stop-color="#DAE1EF"/>
</linearGradient>
<linearGradient id="paint77_linear_6456_57840" x1="169.936" y1="198.175" x2="177.277" y2="193.937" gradientUnits="userSpaceOnUse">
<stop stop-color="#705AB8"/>
<stop offset="1" stop-color="white"/>
</linearGradient>
<linearGradient id="paint78_linear_6456_57840" x1="177.276" y1="193.937" x2="184.358" y2="189.848" gradientUnits="userSpaceOnUse">
<stop stop-color="#705AB8"/>
<stop offset="1" stop-color="white"/>
</linearGradient>
<linearGradient id="paint79_linear_6456_57840" x1="174.643" y1="199.976" x2="179.232" y2="197.326" gradientUnits="userSpaceOnUse">
<stop stop-color="#705AB8"/>
<stop offset="1" stop-color="white"/>
</linearGradient>
<linearGradient id="paint80_linear_6456_57840" x1="179.108" y1="197.397" x2="183.562" y2="194.826" gradientUnits="userSpaceOnUse">
<stop stop-color="#705AB8"/>
<stop offset="1" stop-color="white"/>
</linearGradient>
<linearGradient id="paint81_linear_6456_57840" x1="174.439" y1="187.8" x2="180.607" y2="196.244" gradientUnits="userSpaceOnUse">
<stop stop-color="#BFD7FF"/>
<stop offset="1"/>
</linearGradient>
<linearGradient id="paint82_linear_6456_57840" x1="176.617" y1="192.795" x2="183.699" y2="188.706" gradientUnits="userSpaceOnUse">
<stop stop-color="#BFD7FF"/>
<stop offset="1"/>
</linearGradient>
<linearGradient id="paint83_linear_6456_57840" x1="176.717" y1="186.129" x2="182.891" y2="194.586" gradientUnits="userSpaceOnUse">
<stop stop-color="#BFD7FF"/>
<stop offset="1"/>
</linearGradient>
<linearGradient id="paint84_linear_6456_57840" x1="170.028" y1="191.012" x2="176.203" y2="199.468" gradientUnits="userSpaceOnUse">
<stop stop-color="#BFD7FF"/>
<stop offset="1"/>
</linearGradient>
<linearGradient id="paint85_linear_6456_57840" x1="175.865" y1="202.038" x2="184.786" y2="196.888" gradientUnits="userSpaceOnUse">
<stop stop-color="#8980EB"/>
<stop offset="1" stop-color="#705AB8"/>
</linearGradient>
<linearGradient id="paint86_linear_6456_57840" x1="170.469" y1="199.098" x2="177.81" y2="194.86" gradientUnits="userSpaceOnUse">
<stop stop-color="#8980EB"/>
<stop offset="1" stop-color="#705AB8"/>
</linearGradient>
<linearGradient id="paint87_linear_6456_57840" x1="177.936" y1="195.079" x2="185.017" y2="190.99" gradientUnits="userSpaceOnUse">
<stop stop-color="#8980EB"/>
<stop offset="1" stop-color="#705AB8"/>
</linearGradient>
<linearGradient id="paint88_linear_6456_57840" x1="174.666" y1="199.962" x2="183.586" y2="194.811" gradientUnits="userSpaceOnUse">
<stop stop-color="#8980EB"/>
<stop offset="1" stop-color="#705AB8"/>
</linearGradient>
<linearGradient id="paint89_linear_6456_57840" x1="113.633" y1="46.8169" x2="86.5953" y2="88.9855" gradientUnits="userSpaceOnUse">
<stop stop-color="#C68C43"/>
<stop offset="0.119792" stop-color="#F5BA6E"/>
<stop offset="0.286458" stop-color="#C68C43"/>
<stop offset="0.5625" stop-color="#C68C43"/>
<stop offset="0.770833" stop-color="#EEB873"/>
<stop offset="1" stop-color="#C68C43"/>
</linearGradient>
<linearGradient id="paint90_linear_6456_57840" x1="88.7051" y1="131.644" x2="68.7433" y2="202.063" gradientUnits="userSpaceOnUse">
<stop stop-color="white" stop-opacity="0"/>
<stop offset="0.440223" stop-color="white"/>
<stop offset="1" stop-color="white" stop-opacity="0"/>
</linearGradient>
</defs>
</svg>
