<svg width="321" height="375" viewBox="0 0 321 375" fill="none" xmlns="http://www.w3.org/2000/svg">
<g filter="url(#filter0_b_6434_47486)">
<path d="M21.9044 260.155C19.3101 259.209 17.9741 256.339 18.9202 253.745L94.9861 45.1828C95.9322 42.5886 98.8023 41.2525 101.397 42.1987L131.46 53.1631L51.9673 271.12L21.9044 260.155Z" fill="url(#paint0_linear_6434_47486)"/>
<path d="M22.247 259.216C20.1716 258.459 19.1028 256.163 19.8597 254.087L95.9255 45.5255C96.6825 43.4501 98.9785 42.3812 101.054 43.1382L130.177 53.76L51.3705 269.837L22.247 259.216Z" stroke="url(#paint1_linear_6434_47486)" stroke-width="2"/>
</g>
<g filter="url(#filter1_b_6434_47486)">
<path d="M298.685 114.153C301.28 115.099 302.616 117.969 301.67 120.563L225.604 329.125C224.658 331.719 221.788 333.055 219.193 332.109L189.13 321.144L268.623 103.188L298.685 114.153Z" fill="url(#paint2_linear_6434_47486)"/>
<path d="M298.343 115.092C300.418 115.849 301.487 118.145 300.73 120.22L224.664 328.782C223.907 330.858 221.611 331.926 219.536 331.169L190.412 320.548L269.219 104.47L298.343 115.092Z" stroke="url(#paint3_linear_6434_47486)" stroke-width="2"/>
</g>
<mask id="path-5-inside-1_6434_47486" fill="white">
<path fill-rule="evenodd" clip-rule="evenodd" d="M104.847 9.39467C106.739 4.20614 112.48 1.53405 117.668 3.42639L311.198 74.01C316.387 75.9023 319.059 81.6425 317.167 86.8311L280.805 186.53C279.683 189.605 277.127 191.937 273.962 192.772L271.111 193.525C267.946 194.361 265.39 196.692 264.268 199.767L256.465 221.164L255.437 223.982L247.633 245.378C246.511 248.454 246.966 251.883 248.85 254.56L250.548 256.972C252.432 259.649 252.886 263.079 251.765 266.154L215.746 364.913C213.853 370.102 208.113 372.774 202.924 370.882L9.39421 300.298C4.20568 298.406 1.53359 292.666 3.42593 287.477L39.445 188.718C40.5667 185.642 43.1224 183.311 46.2875 182.475L49.1394 181.722C52.3044 180.887 54.8602 178.555 55.9818 175.48L63.7854 154.084L64.8133 151.265L72.6168 129.869C73.7384 126.794 73.2839 123.364 71.3999 120.687L69.7023 118.275C67.8182 115.598 67.3637 112.169 68.4853 109.093L104.847 9.39467Z"/>
</mask>
<g filter="url(#filter2_i_6434_47486)">
<path fill-rule="evenodd" clip-rule="evenodd" d="M104.847 9.39467C106.739 4.20614 112.48 1.53405 117.668 3.42639L311.198 74.01C316.387 75.9023 319.059 81.6425 317.167 86.8311L280.805 186.53C279.683 189.605 277.127 191.937 273.962 192.772L271.111 193.525C267.946 194.361 265.39 196.692 264.268 199.767L256.465 221.164L255.437 223.982L247.633 245.378C246.511 248.454 246.966 251.883 248.85 254.56L250.548 256.972C252.432 259.649 252.886 263.079 251.765 266.154L215.746 364.913C213.853 370.102 208.113 372.774 202.924 370.882L9.39421 300.298C4.20568 298.406 1.53359 292.666 3.42593 287.477L39.445 188.718C40.5667 185.642 43.1224 183.311 46.2875 182.475L49.1394 181.722C52.3044 180.887 54.8602 178.555 55.9818 175.48L63.7854 154.084L64.8133 151.265L72.6168 129.869C73.7384 126.794 73.2839 123.364 71.3999 120.687L69.7023 118.275C67.8182 115.598 67.3637 112.169 68.4853 109.093L104.847 9.39467Z" fill="#090E1C"/>
</g>
<path d="M63.7854 154.084L65.6643 154.769L63.7854 154.084ZM64.8133 151.265L62.9343 150.58L64.8133 151.265ZM69.7023 118.275L71.3378 117.124L69.7023 118.275ZM46.2875 182.475L45.7771 180.541L46.2875 182.475ZM250.548 256.972L248.912 258.123L250.548 256.972ZM71.3999 120.687L69.7643 121.838L71.3999 120.687ZM271.111 193.525L270.6 191.591L271.111 193.525ZM273.962 192.772L274.473 194.706L273.962 192.772ZM248.85 254.56L250.486 253.409L248.85 254.56ZM49.1394 181.722L49.6498 183.656L49.1394 181.722ZM311.884 72.1311L118.353 1.54746L116.983 5.30532L310.513 75.8889L311.884 72.1311ZM282.684 187.215L319.046 87.5163L315.288 86.1458L278.926 185.845L282.684 187.215ZM271.621 195.459L274.473 194.706L273.452 190.839L270.6 191.591L271.621 195.459ZM258.344 221.849L266.147 200.453L262.389 199.082L254.586 220.478L258.344 221.849ZM257.316 224.667L258.344 221.849L254.586 220.478L253.558 223.297L257.316 224.667ZM249.512 246.064L257.316 224.667L253.558 223.297L245.754 244.693L249.512 246.064ZM252.183 255.821L250.486 253.409L247.215 255.711L248.912 258.123L252.183 255.821ZM217.624 365.599L253.644 266.839L249.886 265.469L213.867 364.228L217.624 365.599ZM8.70894 302.177L202.239 372.761L203.61 369.003L10.0795 298.419L8.70894 302.177ZM37.5661 188.032L1.547 286.792L5.30487 288.162L41.324 189.403L37.5661 188.032ZM46.7979 184.409L49.6498 183.656L48.6289 179.789L45.7771 180.541L46.7979 184.409ZM57.8607 176.165L65.6643 154.769L61.9064 153.399L54.1029 174.795L57.8607 176.165ZM65.6643 154.769L66.6922 151.951L62.9343 150.58L61.9064 153.399L65.6643 154.769ZM66.6922 151.951L74.4958 130.554L70.7379 129.184L62.9343 150.58L66.6922 151.951ZM73.0354 119.536L71.3378 117.124L68.0667 119.426L69.7643 121.838L73.0354 119.536ZM102.968 8.70939L66.6064 108.408L70.3642 109.779L106.726 10.0799L102.968 8.70939ZM71.3378 117.124C69.8306 114.983 69.4669 112.239 70.3642 109.779L66.6064 108.408C65.2604 112.099 65.8059 116.214 68.0667 119.426L71.3378 117.124ZM41.324 189.403C42.2213 186.943 44.2659 185.077 46.7979 184.409L45.7771 180.541C41.979 181.544 38.9121 184.342 37.5661 188.032L41.324 189.403ZM10.0795 298.419C5.92866 296.905 3.79099 292.313 5.30487 288.162L1.547 286.792C-0.723812 293.018 2.4827 299.906 8.70894 302.177L10.0795 298.419ZM213.867 364.228C212.353 368.379 207.761 370.517 203.61 369.003L202.239 372.761C208.465 375.031 215.354 371.825 217.624 365.599L213.867 364.228ZM248.912 258.123C250.419 260.265 250.783 263.009 249.886 265.469L253.644 266.839C254.99 263.149 254.444 259.033 252.183 255.821L248.912 258.123ZM74.4958 130.554C75.8417 126.864 75.2962 122.749 73.0354 119.536L69.7643 121.838C71.2715 123.98 71.6352 126.724 70.7379 129.184L74.4958 130.554ZM270.6 191.591C266.802 192.594 263.735 195.392 262.389 199.082L266.147 200.453C267.044 197.993 269.089 196.127 271.621 195.459L270.6 191.591ZM278.926 185.845C278.029 188.305 275.984 190.17 273.452 190.839L274.473 194.706C278.271 193.703 281.338 190.905 282.684 187.215L278.926 185.845ZM245.754 244.693C244.408 248.383 244.954 252.499 247.215 255.711L250.486 253.409C248.978 251.268 248.615 248.524 249.512 246.064L245.754 244.693ZM118.353 1.54746C112.127 -0.723354 105.239 2.48315 102.968 8.70939L106.726 10.0799C108.24 5.92912 112.832 3.79145 116.983 5.30532L118.353 1.54746ZM49.6498 183.656C53.4479 182.654 56.5148 179.856 57.8607 176.165L54.1029 174.795C53.2056 177.255 51.161 179.12 48.6289 179.789L49.6498 183.656ZM310.513 75.8889C314.664 77.4028 316.802 81.995 315.288 86.1458L319.046 87.5163C321.316 81.2901 318.11 74.4019 311.884 72.1311L310.513 75.8889Z" fill="url(#paint4_linear_6434_47486)" mask="url(#path-5-inside-1_6434_47486)"/>
<mask id="mask0_6434_47486" style="mask-type:alpha" maskUnits="userSpaceOnUse" x="5" y="5" width="311" height="364">
<path fill-rule="evenodd" clip-rule="evenodd" d="M106.042 11.9591C107.935 6.77059 113.675 4.0985 118.863 5.99084L308.636 75.2039C313.824 77.0962 316.496 82.8364 314.604 88.025L278.763 186.295C277.645 189.363 275.099 191.691 271.944 192.532L269.273 193.244C266.118 194.084 263.573 196.413 262.454 199.48L254.766 220.558L253.752 223.34L246.064 244.418C244.945 247.485 245.395 250.906 247.267 253.58L248.853 255.844C250.726 258.519 251.175 261.939 250.056 265.007L214.554 362.349C212.661 367.538 206.921 370.21 201.732 368.318L11.9601 299.105C6.77155 297.212 4.09945 291.472 5.9918 286.284L41.4939 188.942C42.6126 185.875 45.1583 183.547 48.3131 182.706L50.9864 181.993C54.1412 181.152 56.6869 178.824 57.8056 175.757L66.5079 151.897L74.1952 130.819C75.3139 127.752 74.8648 124.331 72.992 121.657L71.4052 119.39C69.5324 116.716 69.0833 113.296 70.202 110.228L106.042 11.9591Z" fill="#090E1C"/>
</mask>
<g mask="url(#mask0_6434_47486)">
<rect x="0.597656" y="298.154" width="317" height="113" transform="rotate(-69.9623 0.597656 298.154)" fill="#060911"/>
<g style="mix-blend-mode:hard-light" opacity="0.2">
<path style="mix-blend-mode:multiply" opacity="0.5" d="M171.848 156.83L97.4604 166.904L134.752 101.729L102.225 34.1016L175.678 49.3856L229.944 -2.46011L238.09 72.1482L304.21 107.769L235.708 138.55L222.284 212.43L171.848 156.83Z" fill="url(#paint5_linear_6434_47486)"/>
<path d="M296.012 107.467L264.144 90.3016L255.439 85.6152L234.736 74.4529L227.164 5.17718L176.845 53.3395L108.629 39.1255L138.821 101.871L104.258 162.33L173.259 152.979L220.038 204.557L232.513 136.042L296.012 107.467Z" fill="url(#paint6_linear_6434_47486)"/>
<path style="mix-blend-mode:multiply" opacity="0.5" d="M108.34 39.021L194.579 98.692L138.533 101.766L108.34 39.021Z" fill="url(#paint7_linear_6434_47486)"/>
<path style="mix-blend-mode:multiply" opacity="0.5" d="M295.709 107.359L194.565 98.6881L232.211 135.933L295.709 107.359Z" fill="url(#paint8_linear_6434_47486)"/>
<path style="mix-blend-mode:multiply" opacity="0.5" d="M172.955 152.869L194.564 98.6869L103.88 162.193L172.955 152.869Z" fill="url(#paint9_linear_6434_47486)"/>
<path style="mix-blend-mode:multiply" opacity="0.5" d="M219.743 204.45L194.572 98.6895L172.963 152.872L219.743 204.45Z" fill="url(#paint10_linear_6434_47486)"/>
<path style="mix-blend-mode:color-dodge" opacity="0.5" d="M226.871 5.06934L194.574 98.6886L234.368 74.318L226.871 5.06934Z" fill="url(#paint11_linear_6434_47486)"/>
<path style="mix-blend-mode:color-dodge" opacity="0.5" d="M295.71 107.359L194.565 98.6881L234.359 74.3176L295.71 107.359Z" fill="url(#paint12_linear_6434_47486)"/>
<path style="mix-blend-mode:color-dodge" opacity="0.5" d="M295.71 107.359L194.565 98.6881L234.359 74.3176L295.71 107.359Z" fill="url(#paint13_linear_6434_47486)"/>
<path style="mix-blend-mode:color-dodge" opacity="0.5" d="M176.479 53.2085L194.575 98.6925L108.336 39.0215L176.479 53.2085Z" fill="url(#paint14_linear_6434_47486)"/>
<g style="mix-blend-mode:color-dodge" opacity="0.8">
<path d="M226.71 94.6222C220.405 96.9417 223.583 101.124 223.583 101.124L250.8 103.408C248.248 99.5648 244.533 96.6387 240.198 95.0579C235.864 93.4771 231.137 93.3244 226.71 94.6222Z" fill="white"/>
</g>
<path style="mix-blend-mode:multiply" opacity="0.5" d="M104.256 162.331C104.256 162.331 155.68 157.655 171.797 156.983L220.185 204.612L173.406 153.034L104.256 162.331Z" fill="url(#paint15_linear_6434_47486)"/>
<g style="mix-blend-mode:soft-light" opacity="0.4">
<path d="M187.88 45.8588C175.51 60.6633 194.655 81.1669 199.687 77.0396C204.72 72.9122 213.471 42.9308 210.928 37.4683C208.386 32.0058 192.942 39.8104 187.88 45.8588Z" fill="#F7FFFF"/>
</g>
<g style="mix-blend-mode:soft-light" opacity="0.4">
<path d="M136.759 126.397C148.691 132.597 160.822 120.98 167.106 112.27C176.941 97.9691 115.287 115.039 136.759 126.397Z" fill="#F7FFFF"/>
</g>
</g>
</g>
<g filter="url(#filter3_f_6434_47486)">
<ellipse cx="160.765" cy="187.325" rx="55.5" ry="52" transform="rotate(20.0377 160.765 187.325)" fill="#6E85CF"/>
</g>
<path d="M185.113 83.5454L184.4 85.4995L179.364 83.663L175.335 94.7111L173.306 93.971L178.048 80.9688L185.113 83.5454ZM190.413 85.4784C191.853 86.0038 192.798 86.76 193.247 87.7469C193.701 88.7213 193.692 89.8536 193.221 91.1438L192.776 92.3651C192.305 93.6553 191.583 94.5272 190.609 94.9808C189.634 95.4344 188.427 95.3985 186.986 94.8731L185.201 94.2221L183.886 97.8296L181.856 97.0895L186.598 84.0873L190.413 85.4784ZM185.9 92.3056L187.685 92.9566C189.201 93.5094 190.221 93.0655 190.747 91.625L191.192 90.4037C191.453 89.6897 191.461 89.0825 191.218 88.5822C190.992 88.0739 190.49 87.6782 189.714 87.3949L187.929 86.7439L185.9 92.3056ZM200.308 103.819L198.223 103.059L198.496 99.8585L194.324 98.3371L192.473 100.962L190.388 100.201L198.794 88.5351L201.443 89.5013L200.308 103.819ZM199.519 90.6307L195.411 96.5833L198.812 97.8237L199.519 90.6307ZM209.596 94.0503L210.24 92.2841L212.251 93.0174L211.607 94.7836C212.996 95.4889 213.929 96.4324 214.406 97.6142C214.884 98.7959 214.86 100.107 214.334 101.548C213.809 102.988 212.981 104.013 211.85 104.623C210.72 105.232 209.396 105.36 207.879 105.005L207.235 106.771L205.224 106.038L205.868 104.272C204.479 103.566 203.548 102.617 203.076 101.422C202.603 100.228 202.629 98.9107 203.154 97.4702C203.68 96.0297 204.506 95.0109 205.632 94.4139C206.758 93.817 208.079 93.6958 209.596 94.0503ZM204.939 98.1212C204.597 99.0607 204.569 99.9161 204.855 100.688C205.141 101.459 205.727 102.091 206.611 102.584L209.078 95.8201C208.089 95.6152 207.236 95.7158 206.52 96.1218C205.809 96.5153 205.282 97.1817 204.939 98.1212ZM212.549 100.897C212.892 99.9571 212.918 99.1079 212.627 98.3489C212.336 97.59 211.752 96.9726 210.875 96.4967L208.422 103.223C209.399 103.424 210.246 103.321 210.962 102.915C211.677 102.509 212.206 101.836 212.549 100.897Z" fill="#C0D0FF"/>
<path d="M179.793 72.9197L182.671 65.0282L185.918 66.2123C186.617 66.4673 187.173 66.7979 187.587 67.2043C188.008 67.6134 188.277 68.0778 188.395 68.5973C188.512 69.1169 188.465 69.666 188.254 70.2447C188.042 70.8235 187.725 71.2739 187.301 71.5961C186.877 71.9183 186.372 72.1003 185.786 72.1421C185.208 72.1867 184.569 72.0815 183.87 71.8266L181.435 70.9385L182.34 70.4893L181.258 73.4542L179.793 72.9197ZM182.282 70.6471L181.887 69.6984L184.255 70.5618C184.901 70.7976 185.435 70.8391 185.857 70.6864C186.289 70.5289 186.596 70.2022 186.777 69.7061C186.96 69.2026 186.936 68.7552 186.704 68.364C186.48 67.9756 186.044 67.6635 185.398 67.4278L183.03 66.5643L183.947 66.0813L182.282 70.6471ZM189.674 76.5236L196.103 69.9272L197.546 70.4535L198.231 79.6443L196.698 79.0851L196.237 70.8572L196.823 71.071L191.185 77.0745L189.674 76.5236ZM191.975 75.2934L192.789 74.2874L197.05 75.8416L197.025 77.1354L191.975 75.2934ZM211.154 75.4163L212.619 75.9508L209.741 83.8424L208.276 83.3078L211.154 75.4163ZM204.195 81.8194L202.729 81.2849L205.607 73.3934L207.073 73.9279L204.195 81.8194ZM209.622 79.9669L205.304 78.3921L205.76 77.1407L210.078 78.7155L209.622 79.9669ZM215.254 85.8531L218.132 77.9616L223.487 79.9146L223.024 81.1506L218.774 79.6005L219.239 79.3743L216.697 86.3794L215.254 85.8531Z" fill="white"/>
<path d="M49.9196 272.713L46.5618 281.92L44.4311 281.143L47.1653 273.646L45.324 272.974L45.9476 271.265L49.9196 272.713ZM50.2765 280.503C50.6448 280.637 50.9042 280.866 51.0546 281.189C51.2082 281.504 51.2162 281.849 51.0787 282.226C50.9668 282.533 50.6885 282.928 50.2439 283.412L48.8034 285.033L47.5013 284.558L48.8427 282.677C48.4364 282.321 48.3356 281.862 48.5402 281.3C48.6778 280.923 48.9124 280.661 49.2443 280.514C49.5642 280.372 49.9083 280.369 50.2765 280.503ZM55.4916 285.356C54.3254 284.93 53.5375 284.176 53.1279 283.093C52.6904 281.95 52.7419 280.637 53.2823 279.155C53.8228 277.674 54.6284 276.636 55.699 276.043C56.7099 275.478 57.7984 275.408 58.9646 275.833C60.1308 276.259 60.9231 277.015 61.3415 278.101C61.7702 279.241 61.7143 280.552 61.1739 282.034C60.6334 283.515 59.8322 284.555 58.7703 285.151C57.7507 285.713 56.6578 285.781 55.4916 285.356ZM56.1488 283.554C57.35 283.992 58.3104 283.225 59.03 281.252C59.7495 279.279 59.5087 278.073 58.3074 277.635C57.1149 277.2 56.1589 277.969 55.4393 279.942C54.7198 281.915 54.9563 283.119 56.1488 283.554ZM64.4184 288.611C63.2522 288.186 62.4643 287.432 62.0546 286.349C61.6172 285.206 61.6686 283.893 62.2091 282.411C62.7496 280.929 63.5551 279.892 64.6258 279.299C65.6366 278.734 66.7252 278.664 67.8914 279.089C69.0576 279.514 69.8498 280.27 70.2682 281.357C70.697 282.497 70.6411 283.807 70.1006 285.289C69.5602 286.771 68.759 287.81 67.6971 288.406C66.6775 288.968 65.5846 289.037 64.4184 288.611ZM65.0756 286.81C66.2768 287.248 67.2372 286.48 67.9568 284.507C68.6763 282.535 68.4354 281.329 67.2342 280.891C66.0417 280.456 65.0857 281.225 64.3661 283.198C63.6466 285.171 63.8831 286.375 65.0756 286.81ZM73.3451 291.867C72.179 291.442 71.391 290.688 70.9814 289.604C70.5439 288.461 70.5954 287.149 71.1359 285.667C71.6763 284.185 72.4819 283.148 73.5526 282.555C74.5634 281.989 75.6519 281.919 76.8181 282.345C77.9843 282.77 78.7766 283.526 79.195 284.612C79.6237 285.752 79.5679 287.063 79.0274 288.545C78.4869 290.027 77.6858 291.066 76.6239 291.662C75.6042 292.224 74.5113 292.293 73.3451 291.867ZM74.0023 290.065C75.2036 290.503 76.164 289.736 76.8835 287.763C77.6031 285.79 77.3622 284.585 76.161 284.147C74.9685 283.712 74.0124 284.481 73.2929 286.454C72.5734 288.427 72.8098 289.63 74.0023 290.065ZM80.4991 291.526C80.8674 291.66 81.1267 291.889 81.2771 292.212C81.4307 292.526 81.4388 292.872 81.3013 293.249C81.1893 293.556 80.9111 293.951 80.4665 294.435L79.026 296.055L77.7239 295.58L79.0653 293.7C78.659 293.343 78.5582 292.884 78.7628 292.323C78.9003 291.946 79.135 291.684 79.4669 291.537C79.7868 291.395 80.1309 291.391 80.4991 291.526ZM85.7142 296.378C84.548 295.953 83.7601 295.199 83.3505 294.116C82.913 292.972 82.9645 291.66 83.5049 290.178C84.0454 288.696 84.8509 287.659 85.9216 287.066C86.9325 286.501 88.021 286.431 89.1872 286.856C90.3534 287.281 91.1457 288.037 91.5641 289.124C91.9928 290.264 91.9369 291.574 91.3964 293.056C90.856 294.538 90.0548 295.577 88.9929 296.173C87.9733 296.735 86.8804 296.804 85.7142 296.378ZM86.3714 294.577C87.5726 295.015 88.533 294.247 89.2526 292.274C89.9721 290.301 89.7313 289.096 88.53 288.658C87.3375 288.223 86.3815 288.992 85.6619 290.965C84.9424 292.938 85.1789 294.142 86.3714 294.577ZM94.641 299.634C93.4748 299.209 92.6869 298.455 92.2772 297.371C91.8397 296.228 91.8912 294.916 92.4317 293.434C92.9721 291.952 93.7777 290.915 94.8484 290.322C95.8592 289.756 96.9478 289.686 98.1139 290.112C99.2801 290.537 100.072 291.293 100.491 292.379C100.92 293.519 100.864 294.83 100.323 296.312C99.7828 297.794 98.9816 298.833 97.9197 299.429C96.9001 299.991 95.8071 300.059 94.641 299.634ZM95.2981 297.832C96.4994 298.27 97.4598 297.503 98.1793 295.53C98.8989 293.557 98.658 292.352 97.4568 291.914C96.2643 291.479 95.3082 292.248 94.5887 294.221C93.8692 296.193 94.1056 297.397 95.2981 297.832ZM103.568 302.89C102.402 302.465 101.614 301.71 101.204 300.627C100.767 299.484 100.818 298.171 101.358 296.69C101.899 295.208 102.704 294.17 103.775 293.577C104.786 293.012 105.875 292.942 107.041 293.367C108.207 293.793 108.999 294.549 109.418 295.635C109.846 296.775 109.79 298.086 109.25 299.568C108.71 301.05 107.908 302.089 106.846 302.685C105.827 303.247 104.734 303.315 103.568 302.89ZM104.225 301.088C105.426 301.526 106.387 300.759 107.106 298.786C107.826 296.813 107.585 295.607 106.384 295.169C105.191 294.734 104.235 295.503 103.515 297.476C102.796 299.449 103.032 300.653 104.225 301.088ZM116.731 304.099L116.462 304.836L119.303 305.872L118.905 306.964L116.064 305.928L115.632 307.111L113.489 306.329L113.92 305.146L112.644 304.68L113.043 303.589L114.318 304.054L116.846 297.123L120.832 298.576C122.086 299.033 122.964 299.647 123.468 300.417C123.992 301.214 124.069 302.121 123.698 303.138C123.33 304.147 122.689 304.787 121.775 305.06C120.894 305.325 119.826 305.228 118.572 304.771L116.731 304.099ZM121.536 302.365C121.872 301.444 121.422 300.758 120.185 300.307L118.357 299.641L117.34 302.429L119.168 303.096C120.405 303.547 121.194 303.303 121.536 302.365Z" fill="white"/>
<path d="M135.37 312.671L138.201 304.911L131.453 302.45L130.283 305.331C129.208 307.994 128.142 309.975 126.874 309.572L126.479 309.428L125.224 312.83L126.815 313.41L127.53 311.45L134.593 314.026L133.878 315.986L135.456 316.562L136.699 313.155L135.37 312.671ZM131.725 306.036L132.386 304.429L135.989 305.744L133.687 312.057L129.018 310.354C129.996 309.876 130.883 308.099 131.725 306.036ZM145.311 314.001C146.112 311.805 145.136 309.824 143.084 309.076C140.993 308.313 138.907 309.252 138.144 311.343C137.381 313.434 138.356 315.503 140.71 316.362C141.92 316.803 143.05 316.768 143.955 316.249L143.443 314.915C142.756 315.245 142.047 315.27 141.258 314.982C140.035 314.536 139.42 313.566 139.596 312.469L145.107 314.478C145.178 314.325 145.263 314.133 145.311 314.001ZM142.604 310.391C143.683 310.785 144.204 311.765 143.967 312.826L139.981 311.372C140.513 310.404 141.539 310.003 142.604 310.391ZM148.404 311.106L145.843 318.13L147.487 318.729L149.54 313.1L152.999 314.361L150.946 319.991L152.577 320.586L155.139 313.562L148.404 311.106ZM157.892 322.628C160.075 323.425 162.187 322.496 162.955 320.392C163.722 318.287 162.699 316.23 160.516 315.434C158.359 314.647 156.239 315.558 155.471 317.662C154.704 319.767 155.735 321.842 157.892 322.628ZM158.405 321.221C157.222 320.789 156.639 319.608 157.128 318.267C157.618 316.925 158.824 316.396 160.008 316.828C161.204 317.265 161.787 318.446 161.298 319.787C160.808 321.129 159.602 321.658 158.405 321.221ZM168.725 322.332C169.554 322.307 170.22 321.909 170.47 321.225C170.892 320.068 169.86 318.812 168.058 318.155C167.137 317.819 166.158 317.685 165.034 317.782L165.014 319.146C165.915 319.087 166.713 319.184 167.424 319.443C168.41 319.803 168.887 320.335 168.7 320.848C168.513 321.361 167.921 321.473 167.092 321.17L165.856 320.719L165.453 321.824L166.821 322.323C167.702 322.645 168.091 323.129 167.89 323.682C167.669 324.287 166.869 324.397 165.777 323.999C164.909 323.682 164.096 323.133 163.551 322.502L162.632 323.552C163.301 324.333 164.283 324.989 165.362 325.383C167.322 326.097 169.05 325.729 169.525 324.427C169.808 323.651 169.502 322.899 168.725 322.332ZM170.465 327.11L171.978 327.661L177.533 324.442L175.845 329.072L177.489 329.671L180.05 322.648L178.551 322.101L172.982 325.316L174.671 320.686L173.027 320.086L170.465 327.11ZM187.826 325.484L181.249 323.085L180.741 324.479L183.213 325.381L181.16 331.01L182.804 331.61L184.858 325.981L187.317 326.878L187.826 325.484ZM191.664 326.794C190.533 326.382 189.336 326.273 188.375 326.578L188.583 328.01C189.267 327.768 190.179 327.802 190.968 328.09C192.139 328.517 192.511 329.294 192.161 330.254L192.123 330.359L190.307 329.697C188.177 328.92 187.052 329.553 186.625 330.723C186.179 331.947 186.87 333.197 188.475 333.782C189.527 334.166 190.414 334.102 191.03 333.641L190.718 334.496L192.27 335.062L193.771 330.945C194.51 328.92 193.69 327.533 191.664 326.794ZM189.253 332.71C188.411 332.403 188.051 331.839 188.267 331.248C188.454 330.735 188.91 330.424 190.028 330.832L191.724 331.451L191.427 332.266C190.887 332.889 190.056 333.003 189.253 332.71Z" fill="#7D7D7D"/>
<path d="M83.5552 264.757L80.1973 273.964L78.0666 273.187L80.8009 265.69L78.9595 265.018L79.5831 263.308L83.5552 264.757ZM85.6849 276.144C84.5187 275.719 83.7308 274.964 83.3212 273.881C82.8837 272.738 82.9352 271.426 83.4756 269.944C84.0161 268.462 84.8216 267.424 85.8923 266.831C86.9032 266.266 87.9917 266.196 89.1579 266.622C90.3241 267.047 91.1164 267.803 91.5348 268.889C91.9635 270.029 91.9076 271.34 91.3671 272.822C90.8267 274.304 90.0255 275.343 88.9636 275.939C87.944 276.501 86.8511 276.569 85.6849 276.144ZM86.3421 274.342C87.5433 274.78 88.5037 274.013 89.2233 272.04C89.9428 270.067 89.702 268.862 88.5007 268.424C87.3082 267.989 86.3522 268.758 85.6326 270.73C84.9131 272.703 85.1496 273.907 86.3421 274.342ZM94.3988 274.345C93.7236 274.099 93.2587 273.671 93.0042 273.061C92.744 272.44 92.7546 271.743 93.0361 270.972C93.3175 270.2 93.7578 269.66 94.3569 269.352C94.9441 269.05 95.5752 269.022 96.2504 269.268C96.9256 269.514 97.3904 269.942 97.645 270.552C97.8964 271.17 97.8814 271.865 97.6 272.636C97.3186 273.408 96.8827 273.949 96.2923 274.261C95.7051 274.563 95.074 274.591 94.3988 274.345ZM101.697 271.374L103.262 271.944L93.617 278.858L92.0519 278.287L101.697 271.374ZM94.7921 273.266C95.4322 273.5 95.9298 273.13 96.2847 272.157C96.6397 271.183 96.4972 270.58 95.8571 270.346C95.217 270.113 94.7194 270.483 94.3645 271.456C94.0095 272.43 94.152 273.033 94.7921 273.266ZM99.0633 280.964C98.3881 280.718 97.9276 280.291 97.6818 279.685C97.4216 279.064 97.4323 278.367 97.7137 277.595C97.9951 276.824 98.4354 276.284 99.0345 275.976C99.6129 275.67 100.24 275.641 100.915 275.887C101.59 276.133 102.055 276.561 102.31 277.17C102.57 277.792 102.559 278.488 102.278 279.26C101.996 280.032 101.556 280.571 100.957 280.879C100.37 281.182 99.7384 281.21 99.0633 280.964ZM99.4566 279.885C100.097 280.119 100.594 279.749 100.949 278.775C101.304 277.802 101.162 277.199 100.522 276.965C99.8814 276.732 99.3839 277.102 99.0289 278.075C98.674 279.048 98.8165 279.652 99.4566 279.885Z" fill="white"/>
<path d="M110.919 285.318C112.432 285.869 113.917 285.8 115.137 285.112L114.416 283.657C113.476 284.149 112.518 284.202 111.558 283.852C109.651 283.156 108.759 281.311 109.45 279.417C110.141 277.523 112.011 276.685 113.918 277.381C114.878 277.731 115.578 278.388 115.984 279.356L117.468 278.72C116.978 277.409 115.886 276.399 114.386 275.853C111.558 274.821 108.73 276.04 107.727 278.789C106.725 281.538 108.105 284.291 110.919 285.318ZM121.313 280.912C120.182 280.5 118.985 280.391 118.024 280.696L118.232 282.128C118.917 281.886 119.828 281.921 120.617 282.208C121.788 282.635 122.16 283.412 121.81 284.372L121.772 284.477L119.957 283.815C117.826 283.038 116.701 283.671 116.274 284.842C115.828 286.065 116.519 287.315 118.124 287.901C119.176 288.284 120.064 288.221 120.679 287.759L120.367 288.614L121.919 289.18L123.421 285.064C124.159 283.038 123.339 281.651 121.313 280.912ZM118.902 286.828C118.061 286.521 117.7 285.958 117.916 285.366C118.103 284.853 118.559 284.542 119.677 284.95L121.374 285.569L121.076 286.384C120.536 287.007 119.705 287.121 118.902 286.828ZM126.166 290.834C128.139 291.553 129.66 291.139 130.14 289.824C131.143 287.075 126.342 286.755 126.86 285.335C127.028 284.874 127.621 284.718 128.621 285.083C129.292 285.327 129.914 285.703 130.441 286.343L131.528 285.323C131.036 284.712 130.052 284.1 129.118 283.759C127.224 283.068 125.711 283.5 125.226 284.828C124.205 287.63 129.006 287.95 128.516 289.292C128.339 289.778 127.799 289.909 126.76 289.53C125.879 289.209 125.038 288.574 124.568 287.941L123.481 288.96C123.949 289.638 124.995 290.407 126.166 290.834ZM137.374 286.77C136.4 286.415 135.457 286.428 134.706 286.81L136.001 283.259L134.357 282.66L130.798 292.419L132.442 293.018L133.737 289.467C134.251 288.06 135.299 287.637 136.469 288.064C137.522 288.448 137.919 289.279 137.463 290.528L136.072 294.342L137.716 294.942L139.184 290.917C139.956 288.8 139.057 287.384 137.374 286.77ZM146.285 290.02C145.391 289.694 144.492 289.709 143.696 290.134L145.005 286.543L143.361 285.943L139.802 295.703L141.367 296.273L141.698 295.366C142.006 296.238 142.701 296.864 143.661 297.215C145.713 297.963 147.744 297.094 148.54 294.911C149.336 292.727 148.337 290.768 146.285 290.02ZM143.991 295.74C142.807 295.308 142.211 294.122 142.7 292.781C143.19 291.439 144.409 290.915 145.593 291.347C146.776 291.779 147.359 292.96 146.87 294.301C146.38 295.643 145.174 296.172 143.991 295.74ZM154.002 292.835C152.871 292.422 151.674 292.313 150.713 292.618L150.921 294.05C151.605 293.808 152.517 293.843 153.306 294.13C154.477 294.557 154.849 295.334 154.499 296.294L154.46 296.399L152.645 295.737C150.515 294.96 149.39 295.593 148.963 296.764C148.517 297.987 149.208 299.237 150.813 299.823C151.865 300.206 152.752 300.143 153.368 299.682L153.056 300.536L154.608 301.103L156.109 296.986C156.848 294.96 156.028 293.573 154.002 292.835ZM151.591 298.751C150.749 298.444 150.389 297.88 150.605 297.288C150.792 296.775 151.248 296.464 152.366 296.872L154.062 297.491L153.765 298.306C153.225 298.929 152.393 299.043 151.591 298.751ZM159.971 303.163C161.339 303.662 162.646 303.468 163.569 302.612L162.575 301.415C161.91 301.933 161.168 302.005 160.471 301.751C159.261 301.309 158.642 300.145 159.141 298.777C159.635 297.422 160.863 296.916 162.073 297.358C162.77 297.612 163.291 298.145 163.467 298.969L164.999 298.693C164.848 297.431 163.963 296.467 162.595 295.968C160.372 295.158 158.252 296.068 157.484 298.173C156.717 300.277 157.748 302.352 159.971 303.163ZM169.661 306.593L171.66 307.322L169.938 302.074L173.945 300.197L171.972 299.478L167.414 301.392L169.564 295.5L167.919 294.9L164.36 304.659L166.004 305.259L166.681 303.404L168.326 302.693L169.661 306.593Z" fill="#7D7D7D"/>
<rect x="277.621" y="75.6011" width="26" height="26" rx="13" transform="rotate(20.0377 277.621 75.6011)" fill="#151C30"/>
<rect x="277.92" y="76.2421" width="25" height="25" rx="12.5" transform="rotate(20.0377 277.92 76.2421)" stroke="#C68C43"/>
<path d="M287.387 96.5475C286.595 96.7944 285.839 96.6473 285.839 96.6473C286.479 96.4638 287.833 95.7865 287.675 94.4586C287.517 93.1307 285.618 91.6147 285.618 91.6147C285.618 91.6147 283.191 91.5532 282.214 92.4669C281.237 93.3805 281.838 94.7713 282.21 95.3239C282.21 95.3239 281.536 94.9489 281.089 94.2502C281.089 94.2502 279.086 95.028 278.349 96.5062C278.349 96.5062 280.11 95.9872 283.564 97.2471C287.019 98.507 288.032 100.038 288.032 100.038C288.42 98.4325 287.387 96.5475 287.387 96.5475ZM284.495 95.4828L284.089 95.811L283.989 95.2982C282.403 94.5807 282.55 93.2549 282.55 93.2549L283.534 93.0779L283.454 92.6124L284.691 94.1548L286.632 93.7713L286.271 94.0764L286.91 94.845C286.91 94.845 286.17 95.9548 284.494 95.4824L284.495 95.4828Z" fill="white"/>
<path d="M291.619 89.0352C291.619 89.0352 292.988 89.7221 293.418 90.6605C293.418 90.6605 293.082 88.3028 290.849 87.4884C288.616 86.674 287.118 87.5025 287.118 87.5025C287.118 87.5025 286.505 85.9042 284.273 85.0899C282.04 84.2756 280.265 85.8634 280.265 85.8634C281.197 85.4217 282.687 85.7777 282.687 85.7777C281.432 85.6968 280.065 86.7326 279.483 88.3583C278.901 89.984 279.105 91.3749 279.669 91.75C280.234 92.1251 280.782 91.6515 282.026 91.1138C283.27 90.5762 284.262 90.782 284.262 90.782C283.482 90.0226 282.773 90.0412 282.08 90.016C281.388 89.9907 280.857 89.8763 280.763 89.0217C280.67 88.167 281.64 87.6206 281.64 87.6206C281.234 87.5417 280.756 87.7137 280.756 87.7137C281.408 87.0114 281.935 86.9467 282.668 87.1846C283.402 87.4225 283.664 87.7354 284.266 88.4399C284.868 89.1445 285.35 89.8836 285.861 89.7038C286.372 89.524 286.185 88.2198 286.185 88.2198C286.51 88.6551 286.462 89.3 286.462 89.3C286.462 89.3 286.842 88.776 287.371 88.6524C287.371 88.6524 286.387 89.5295 286.663 89.9964C286.939 90.4632 287.782 90.2068 288.697 90.0561C289.612 89.9053 290.013 89.8339 290.728 90.124C291.442 90.4141 291.803 90.8058 291.849 91.7606C291.849 91.7606 291.594 91.3215 291.233 91.1204C291.233 91.1204 291.623 92.1628 291.001 92.7569C290.38 93.3511 289.899 93.0966 289.353 92.6698C288.808 92.243 288.277 91.7728 287.191 91.8516C287.191 91.8516 288.082 92.3349 288.688 93.5448C289.294 94.7547 289.409 95.4697 290.082 95.5489C290.755 95.628 291.805 94.6938 292.408 93.0734C293.011 91.4531 292.631 89.7813 291.619 89.0352Z" fill="white"/>
<path d="M290.849 87.489C288.614 86.6738 287.111 87.5106 287.111 87.5106C287.111 87.5106 286.5 85.903 284.265 85.0878C282.601 84.4809 281.189 85.2131 280.577 85.6261C281.759 85.0898 284.678 84.3091 286.837 88.2657C291.037 86.6285 292.768 89.105 293.327 90.276C293.122 89.5652 292.513 88.0959 290.849 87.489Z" fill="#C4C4C4"/>
<path d="M282.051 89.9973C281.357 89.9727 280.824 89.8578 280.731 88.9998C280.638 88.1419 281.611 87.5928 281.611 87.5928C281.285 87.5293 280.913 87.6277 280.778 87.6694C280.275 88.0779 279.714 88.9458 279.881 90.7701C279.881 90.7701 279.319 90.3547 279.227 89.0894C278.936 90.3833 279.156 91.4209 279.634 91.7376C280.201 92.1113 280.75 91.6381 281.997 91.0977C283.245 90.5574 284.239 90.7634 284.239 90.7634C283.456 90.0032 282.745 90.0223 282.051 89.9973Z" fill="#C4C4C4"/>
<path d="M290.496 94.6407C291.812 93.3378 291.93 92.3041 291.802 91.6704C291.713 91.5364 291.502 91.2528 291.232 91.1024C291.232 91.1024 291.623 92.1482 290.999 92.7448C290.376 93.3414 289.895 93.0864 289.348 92.6585C288.802 92.2306 288.27 91.7591 287.182 91.8388C287.182 91.8388 288.075 92.3232 288.681 93.5369C289.288 94.7505 289.402 95.4679 290.076 95.5469C290.65 95.6123 291.498 94.9453 292.11 93.7448C291.209 94.6857 290.496 94.6407 290.496 94.6407Z" fill="#C4C4C4"/>
<path d="M288.037 100.019C287.635 99.3886 286.536 97.9901 284.216 97.0333C281.137 95.7618 280.662 96.1674 280.472 95.5932C280.281 95.019 282.208 95.3307 282.208 95.3307C282.208 95.3307 281.534 94.9561 281.087 94.2587C281.087 94.2587 279.085 95.0326 278.35 96.5062C278.35 96.5062 280.109 95.9902 283.564 97.2501C287.018 98.51 288.033 100.038 288.033 100.038C288.034 100.033 288.035 100.025 288.037 100.019Z" fill="#C4C4C4"/>
<g style="mix-blend-mode:soft-light">
<mask id="mask1_6434_47486" style="mask-type:alpha" maskUnits="userSpaceOnUse" x="272" y="79" width="27" height="27">
<rect x="277.621" y="75.6011" width="26" height="26" rx="13" transform="rotate(20.0377 277.621 75.6011)" fill="#101520"/>
</mask>
<g mask="url(#mask1_6434_47486)">
<g filter="url(#filter4_f_6434_47486)">
<path d="M264.06 102.233L306.062 82.6809" stroke="white" stroke-width="0.52"/>
</g>
<g filter="url(#filter5_f_6434_47486)">
<path d="M258.094 105.011L312.029 79.9034" stroke="white" stroke-width="1.3"/>
</g>
<g filter="url(#filter6_f_6434_47486)">
<path d="M258.094 105.011L312.029 79.9034" stroke="white" stroke-width="1.3"/>
</g>
<g opacity="0.5" filter="url(#filter7_f_6434_47486)">
<path d="M260.877 95.7857L302.879 76.2336" stroke="white" stroke-width="0.52"/>
</g>
<g opacity="0.5" filter="url(#filter8_f_6434_47486)">
<path d="M265.138 109.822L307.14 90.2698" stroke="white" stroke-width="0.26"/>
</g>
</g>
</g>
<path d="M101.674 198.127C101.399 198.505 85.4846 185.594 85.4846 185.594C83.3519 177.092 82.1767 168.391 81.9805 159.652L113.058 170.987L101.674 198.127Z" fill="url(#paint16_linear_6434_47486)"/>
<path d="M87.9062 161.815C87.9062 161.815 89.7827 179.206 90.5348 181.301L106.085 187.436L106.47 186.382C106.47 186.382 92.0521 181.258 91.4567 180.354C90.8613 179.45 88.8298 162.152 88.8298 162.152L87.9062 161.815Z" fill="#394773"/>
<path d="M87.9062 161.815L90.5348 181.301C89.6274 178.001 88.93 174.651 88.4466 171.268C87.912 166.789 87.9062 161.815 87.9062 161.815Z" fill="white"/>
<g style="mix-blend-mode:soft-light" opacity="0.5">
<path d="M89.7644 163.626C89.6992 167.589 91.5372 177.351 92.5276 177.713C93.518 178.074 105.127 182.084 106.78 180.836C108.434 179.587 112.241 172.018 111.375 171.523C110.509 171.028 89.825 161.797 89.7644 163.626Z" fill="white"/>
</g>
<g style="mix-blend-mode:soft-light" opacity="0.5">
<path d="M82.7743 160.63C82.9959 164.637 83.9128 174.929 84.6372 175.313C85.3616 175.697 87.8027 176.945 88.1871 175.891C88.8023 174.205 87.6313 162.655 86.6423 162.04C85.6532 161.426 82.7205 159.654 82.7743 160.63Z" fill="white"/>
</g>
<path style="mix-blend-mode:multiply" opacity="0.5" d="M84.9697 176.733C84.437 177.778 86.534 184.918 87.0484 185.628C87.5628 186.338 99.9076 195.857 101.048 195.556C102.189 195.255 106.918 183.827 106.28 183.206C105.642 182.585 85.5677 175.592 84.9697 176.733Z" fill="url(#paint17_linear_6434_47486)"/>
<path style="mix-blend-mode:multiply" opacity="0.5" d="M102.617 167.18C101.043 176.16 98.5811 184.958 95.2664 193.447L101.672 198.128L113.103 170.944L102.617 167.18Z" fill="url(#paint18_linear_6434_47486)"/>
<path d="M198.077 233.288C198.057 233.759 218.587 234.14 218.587 234.14C225.709 228.996 232.22 223.078 238.003 216.497L206.871 205.143L198.077 233.288Z" fill="url(#paint19_linear_6434_47486)"/>
<path d="M232.001 214.368C232.001 214.368 219.356 226.462 217.444 227.587L201.582 222.264L201.967 221.21C201.967 221.21 216.311 226.576 217.349 226.268C218.386 225.96 231.077 214.031 231.077 214.031L232.001 214.368Z" fill="#394773"/>
<path d="M232.003 214.368L217.446 227.586C220.263 225.647 222.95 223.53 225.49 221.249C228.783 218.165 232.003 214.368 232.003 214.368Z" fill="white"/>
<g style="mix-blend-mode:soft-light" opacity="0.5">
<path d="M229.414 214.559C226.926 217.638 219.226 223.907 218.222 223.541C217.218 223.175 205.78 218.779 205.305 216.755C204.831 214.73 206.817 206.497 207.785 206.671C208.753 206.844 230.545 213.12 229.414 214.559Z" fill="white"/>
</g>
<g style="mix-blend-mode:soft-light" opacity="0.5">
<path d="M236.679 216.761C233.929 219.684 226.615 226.975 225.814 226.802C225.012 226.629 222.327 226.008 222.672 224.939C223.287 223.253 231.618 215.169 232.771 215.335C233.923 215.502 237.321 216.039 236.679 216.761Z" fill="white"/>
</g>
<path style="mix-blend-mode:multiply" opacity="0.5" d="M224.633 227.67C224.381 228.818 218.167 232.926 217.329 233.143C216.492 233.36 200.917 232.697 200.211 231.722C199.505 230.748 203.337 218.993 204.172 218.909C205.006 218.825 224.923 226.418 224.633 227.67Z" fill="url(#paint20_linear_6434_47486)"/>
<path style="mix-blend-mode:multiply" opacity="0.5" d="M217.293 209.003C212.715 216.889 208.935 225.206 206.007 233.836L198.078 233.288L206.832 205.128L217.293 209.003Z" fill="url(#paint21_linear_6434_47486)"/>
<path d="M183.455 124.283L122.033 134.652L96.8698 203.646L137.199 251.111L198.616 240.755L223.779 171.76L183.455 124.283Z" fill="url(#paint22_linear_6434_47486)"/>
<path d="M107.972 201.769L129.325 143.223L179.639 134.745L212.668 173.62L191.315 232.165L141.014 240.648L107.972 201.769Z" fill="url(#paint23_linear_6434_47486)"/>
<path d="M111.677 201.134L131.751 146.094L178.371 138.224L208.964 174.255L188.89 229.295L142.284 237.17L111.677 201.134Z" fill="#736FA8"/>
<g style="mix-blend-mode:soft-light" opacity="0.5">
<path d="M123.24 135.287C121.933 136.916 126.509 141.167 130.608 141.737C134.707 142.306 178.063 134.694 179.593 133.162C180.796 130.676 181.744 128.076 182.423 125.4C181.179 124.946 123.875 134.503 123.24 135.287Z" fill="white"/>
</g>
<g style="mix-blend-mode:soft-light" opacity="0.5">
<path d="M222.201 171.38C222.153 173.467 215.914 173.775 212.398 171.567C208.881 169.359 181.039 135.555 180.435 133.469C180.119 132.383 182.423 125.4 183.266 125.708C184.524 126.167 222.22 170.372 222.201 171.38Z" fill="white"/>
</g>
<path style="mix-blend-mode:multiply" opacity="0.5" d="M108.875 174.508C107.773 176.45 97.4177 202.264 98.5235 202.891C99.6292 203.519 106.499 201.814 107.446 200.174C108.393 198.533 115.016 180.704 115.226 178.84C115.436 176.976 110.692 171.274 108.875 174.508Z" fill="url(#paint24_linear_6434_47486)"/>
<path style="mix-blend-mode:multiply" opacity="0.5" d="M207.983 210.655C207.563 212.846 198.881 239.27 197.631 239.038C196.382 238.806 192.223 233.079 192.554 231.214C192.885 229.35 199.295 211.443 200.335 209.881C201.374 208.319 208.662 207.006 207.983 210.655Z" fill="url(#paint25_linear_6434_47486)"/>
<path style="mix-blend-mode:multiply" opacity="0.5" d="M99.5356 204.067C99.8245 205.187 135.925 248.571 136.607 248.82C136.955 248.947 139.813 242.525 140.097 241.747C140.851 239.679 108.061 203.727 107.423 203.271C106.485 202.6 99.2516 202.933 99.5356 204.067Z" fill="url(#paint26_linear_6434_47486)"/>
<path style="mix-blend-mode:multiply" opacity="0.5" d="M196.117 240.082C195.174 240.754 138.811 250.31 138.115 250.056C138.983 247.143 140.079 244.304 141.394 241.563C143.4 240.637 189.813 233.543 190.567 233.594C191.717 233.685 197.078 239.402 196.117 240.082Z" fill="url(#paint27_linear_6434_47486)"/>
<path style="mix-blend-mode:multiply" opacity="0.5" d="M113.977 200.316C116.861 184.094 118.684 183.669 140.253 184.235C161.823 184.801 200.393 180.042 200.601 188.329C200.808 196.616 188.648 226.922 187.415 228.309C186.181 229.695 145.664 236.507 142.875 235.549C140.085 234.591 113.66 202.141 113.977 200.316Z" fill="url(#paint28_linear_6434_47486)"/>
<g style="mix-blend-mode:soft-light" opacity="0.3">
<path d="M207.992 174.334C207.385 173.919 179.731 141.348 177.764 140.795C175.797 140.242 147.451 142.579 134.418 147.381C130.919 148.658 119.626 182.699 122.301 182.973C124.976 183.247 131.774 170.304 161.558 172.507C190.8 174.737 199.974 185.384 202.464 187.621C203.174 188.208 209.41 175.269 207.992 174.334Z" fill="white"/>
</g>
<path style="mix-blend-mode:multiply" opacity="0.5" d="M107.97 201.769L129.322 143.223L179.651 134.706L212.665 173.62L191.313 232.165L188.892 229.281C188.892 229.281 207.634 178.474 207.105 176.474C205.166 169.317 179.433 144.241 173.812 143.938C168.19 143.634 136.463 145.141 131.626 148.841C129.999 150.099 111.674 201.134 111.674 201.134L107.97 201.769Z" fill="url(#paint29_linear_6434_47486)"/>
<g style="mix-blend-mode:soft-light" opacity="0.2">
<path d="M175.864 169.29C184.536 177.737 200.153 183.523 201.912 183.149C203.671 182.775 207.01 176.573 205.165 174.646C203.32 172.719 188.9 156.875 183.837 156.163C178.774 155.451 174.33 167.76 175.864 169.29Z" fill="white"/>
</g>
<path d="M114.368 155.669C114.426 155.511 121.908 136.368 123.309 135.311C124.71 134.255 181.738 125.582 183.269 125.708C184.8 125.833 198.931 142.513 198.931 142.513L183.455 124.283L122.023 134.723L114.368 155.669Z" fill="url(#paint30_linear_6434_47486)"/>
<path d="M194.055 151.723C194.055 151.723 211.841 172.393 211.634 173.915C211.428 175.438 198.125 213.449 198.125 213.449C198.125 213.449 212.277 175.314 212.654 173.615C213.03 171.916 194.055 151.723 194.055 151.723Z" fill="white"/>
<path d="M117.622 175.309C117.622 175.309 128.419 143.416 129.179 142.499C129.938 141.581 179.638 134.745 179.638 134.745C179.638 134.745 131.149 142.71 129.795 143.843C128.442 144.977 117.622 175.309 117.622 175.309Z" fill="white"/>
<path style="mix-blend-mode:multiply" d="M96.8685 203.646L137.184 251.106L198.588 240.745L204.321 225.025C204.321 225.025 198.89 238.586 197.221 239.918C195.552 241.25 140.504 250.734 138.113 250.056C135.722 249.378 99.0785 205.154 98.5238 202.891C97.9691 200.629 109.695 168.477 109.695 168.477L96.8685 203.646Z" fill="url(#paint31_linear_6434_47486)"/>
<path d="M113.42 186.826C113.42 186.826 108.352 200.266 108.701 201.677C109.051 203.089 124.72 221.538 124.72 221.538C124.72 221.538 107.28 202.831 107.338 202.046C107.397 201.261 113.42 186.826 113.42 186.826Z" fill="white"/>
<g style="mix-blend-mode:soft-light" opacity="0.5">
<path d="M120.699 220.34C119.2 219.793 114.391 219.921 114.933 221.223C115.474 222.525 135.131 246.505 137.592 248.612C138.404 249.297 140.454 243.386 139.901 241.034C139.659 240.035 125.361 222.026 120.699 220.34Z" fill="white"/>
</g>
<path d="M197.209 142.199C195.871 142.084 198.108 148.633 199.885 149.789C201.663 150.944 204.821 150.559 204.234 149.299C203.647 148.04 199.293 142.391 197.209 142.199Z" fill="white"/>
<path d="M204.425 150.519C202.4 150.333 202.896 159.576 203.836 161.531C204.775 163.487 216.849 170.756 217.396 168.299C217.944 165.841 207.285 150.786 204.425 150.519Z" fill="white"/>
<path style="mix-blend-mode:multiply" opacity="0.5" d="M168.58 237.952C165.767 242.256 164.927 245.1 165.533 245.351C166.139 245.602 193.199 240.512 194.003 240.178C194.807 239.844 192.034 234.518 190.211 234.152C188.388 233.785 169.626 236.333 168.58 237.952Z" fill="url(#paint32_linear_6434_47486)"/>
<path style="mix-blend-mode:multiply" opacity="0.5" d="M131.537 145.554C131.578 143.777 129.927 143.19 129.136 144.902C128.345 146.614 116.115 179.314 116.752 179.606C117.388 179.898 119.353 178.793 119.681 178.061C120.008 177.33 131.512 146.411 131.537 145.554Z" fill="url(#paint33_linear_6434_47486)"/>
<path style="mix-blend-mode:multiply" opacity="0.5" d="M209.409 174.194C209.09 174.779 197.461 205.667 197.875 205.818C198.29 205.97 200.657 205.176 200.931 204.425C201.205 203.674 211.415 174.224 211.268 174.006C211.12 173.787 209.664 173.704 209.409 174.194Z" fill="url(#paint34_linear_6434_47486)"/>
<path style="mix-blend-mode:multiply" opacity="0.5" d="M178.55 137.723C178.329 138.329 156.723 141.856 156.308 141.704C155.893 141.553 157.03 138.892 157.741 138.733C158.451 138.574 179.532 134.617 179.54 135.009C179.271 135.935 178.941 136.841 178.55 137.723Z" fill="url(#paint35_linear_6434_47486)"/>
<path d="M185.79 232.807C184.652 232.392 179.991 233.156 179.891 234.344C179.792 235.531 181.746 237.573 182.593 237.165C183.439 236.757 186.53 233.107 185.79 232.807Z" fill="#394773"/>
<path d="M186.995 234.113C186.463 234.323 185.145 235.275 185.736 236.192C186.327 237.109 189.332 236.354 189.143 235.748C188.955 235.142 187.658 233.833 186.995 234.113Z" fill="#394773"/>
<path style="mix-blend-mode:multiply" opacity="0.5" d="M180.917 233.479C179.486 234.45 183.101 236.68 183.999 235.798C184.897 234.916 186.553 232.952 185.854 232.832C184.179 232.749 182.506 232.968 180.917 233.479Z" fill="url(#paint36_linear_6434_47486)"/>
<path d="M180.018 234.032C180.019 234.869 180.319 235.681 180.864 236.327C181.582 237.186 182.402 237.35 182.792 237.03C182.468 237.211 182.09 237.278 181.72 237.219C181.351 237.16 181.011 236.979 180.757 236.705C179.199 235.197 180.018 234.032 180.018 234.032Z" fill="#DAE1EF"/>
<path style="mix-blend-mode:multiply" opacity="0.5" d="M187.414 234.296C186.19 234.909 186.377 236.515 186.901 236.617C187.425 236.718 189.262 236.298 189.144 235.748C189.027 235.197 187.674 234.166 187.414 234.296Z" fill="url(#paint37_linear_6434_47486)"/>
<path d="M186.994 234.113C186.994 234.113 185.779 234.909 185.869 235.659C185.96 236.408 186.428 236.579 186.428 236.579C186.428 236.579 185.168 236.791 185.222 236.02C185.334 234.672 186.994 234.113 186.994 234.113Z" fill="#DAE1EF"/>
<path d="M173.432 135.467C171.015 133.78 168.105 134.689 166.41 135.594C164.715 136.498 165.105 137.551 166.713 137.839C168.322 138.127 174.486 136.195 173.432 135.467Z" fill="#394773"/>
<path style="mix-blend-mode:multiply" opacity="0.5" d="M173.429 135.467C172.629 134.982 171.732 134.679 170.802 134.58C169.873 134.481 168.935 134.589 168.057 134.896C167.085 135.273 167.867 137.619 168.997 137.598C170.127 137.577 174.185 136.056 173.429 135.467Z" fill="url(#paint38_linear_6434_47486)"/>
<path d="M167.361 135.149C167.361 135.149 163.538 136.024 163.513 137.135C163.487 138.245 167.826 137.782 167.826 137.782C167.826 137.782 165.673 137.699 165.538 136.694C165.404 135.69 167.361 135.149 167.361 135.149Z" fill="white"/>
<path d="M109.609 202.813C108.02 202.637 111.277 207.139 112.236 207.668C113.196 208.197 113.116 205.257 112.797 204.633C111.909 203.766 110.81 203.139 109.609 202.813Z" fill="white"/>
<path d="M148.436 220.17L106.913 170.866C104.643 173.229 102.718 175.892 101.19 178.782L102.536 185.737L143.371 234.058L205.727 223.373L210.913 218.8C211.924 215.737 212.38 212.518 212.259 209.288L148.436 220.17Z" fill="url(#paint39_linear_6434_47486)"/>
<path d="M102.537 185.737L101.191 178.782L144.641 230.58L210.914 218.8L205.728 223.373L143.372 234.058L102.537 185.737Z" fill="url(#paint40_linear_6434_47486)"/>
<path style="mix-blend-mode:multiply" opacity="0.5" d="M101.191 178.782L102.537 185.737L103.14 186.495L102.525 188.182C102.525 188.182 104.926 190.745 109.565 195.989C109.713 196.163 111.846 201.002 111.846 201.002C111.846 201.002 140.931 236.677 142.283 237.17C144.01 237.799 189.148 228.628 189.148 228.628C189.148 228.628 192.877 227.3 193.216 227.245L204.051 225.852L204.906 223.506L205.728 223.373L210.914 218.8L144.641 230.58L101.191 178.782Z" fill="url(#paint41_linear_6434_47486)"/>
<path style="mix-blend-mode:multiply" opacity="0.5" d="M148.438 220.17L144.641 230.58L210.915 218.8C211.873 215.725 212.328 212.514 212.261 209.288L148.438 220.17Z" fill="url(#paint42_linear_6434_47486)"/>
<g style="mix-blend-mode:soft-light" opacity="0.5">
<path d="M108.786 174.132C107.782 173.766 105.403 182.827 107.724 185.942C111.414 190.916 134.447 218.531 136.351 219.256C137.689 219.744 140.319 212.283 140.125 211.57C139.774 210.203 110.285 174.679 108.786 174.132Z" fill="white"/>
</g>
<g style="mix-blend-mode:soft-light" opacity="0.5">
<path d="M167.931 217.157C167.067 217.573 164.163 225.785 165.333 225.943C175.694 224.94 185.959 223.195 196.05 220.723C205.896 217.925 209.699 210.906 207.888 210.425C207.91 210.284 169.724 216.318 167.931 217.157Z" fill="white"/>
</g>
<path d="M123.5 205.431C123.5 205.431 143.219 229.449 144.852 230.044C146.485 230.64 170.912 225.948 170.912 225.948C170.912 225.948 145.04 231.442 144.464 231.232C143.889 231.022 123.5 205.431 123.5 205.431Z" fill="white"/>
<path d="M172.258 154.852L108.739 165.859C108.525 162.591 108.766 159.313 109.456 156.118L114.963 151.662L177.319 140.977L218.154 189.298L219.179 196.136C217.979 199.129 216.255 201.886 214.085 204.281L172.258 154.852Z" fill="url(#paint43_linear_6434_47486)"/>
<path d="M114.963 151.662L109.456 156.118L176.055 144.442L219.179 196.136L218.154 189.298L177.319 140.977L114.963 151.662Z" fill="url(#paint44_linear_6434_47486)"/>
<path style="mix-blend-mode:multiply" opacity="0.5" d="M172.258 154.852L176.055 144.442L219.178 196.135C217.932 199.105 216.213 201.855 214.085 204.281L172.258 154.852Z" fill="url(#paint45_linear_6434_47486)"/>
<g style="mix-blend-mode:soft-light" opacity="0.5">
<path d="M112.279 164.553C111.275 164.187 115.283 155.735 119.07 154.832C125.096 153.402 160.498 147.099 162.417 147.784C163.756 148.272 160.97 155.661 160.357 156.095C159.208 156.915 113.778 165.099 112.279 164.553Z" fill="white"/>
</g>
<g style="mix-blend-mode:soft-light" opacity="0.5">
<path d="M185.23 169.72C184.836 168.845 187.901 160.691 188.894 161.337C196.185 168.766 202.918 176.711 209.037 185.106C214.775 193.574 213.166 201.393 211.471 200.595C211.401 200.704 186.037 171.582 185.23 169.72Z" fill="white"/>
</g>
<path d="M143.683 150.088C143.683 150.088 174.23 144.418 175.863 145.014C177.496 145.609 193.172 164.913 193.172 164.913C193.172 164.913 176.911 144.052 176.336 143.842C175.76 143.632 143.683 150.088 143.683 150.088Z" fill="white"/>
<path style="mix-blend-mode:multiply" opacity="0.5" d="M110.776 165.512L172.259 154.852L212.868 202.836L211.618 205.098L203.513 198.051L200.394 198.287L169.642 162.691L122.692 171.052L120.243 168.786L109.695 168.477L110.776 165.512Z" fill="url(#paint46_linear_6434_47486)"/>
<path style="mix-blend-mode:multiply" opacity="0.5" d="M134.008 184.018L127.766 184.832L130.87 179.44L128.113 173.821L134.282 175.115L138.814 170.841L139.529 177.029L145.084 180.01L139.356 182.535L138.26 188.659L134.008 184.018Z" fill="url(#paint47_linear_6434_47486)"/>
<path d="M144.351 179.982L141.685 178.561L140.952 178.16L139.228 177.232L138.564 171.526L134.383 175.465L128.692 174.271L131.23 179.451L128.37 184.425L134.128 183.688L138.047 187.954L139.06 182.307L144.351 179.982Z" fill="url(#paint48_linear_6434_47486)"/>
<path style="mix-blend-mode:multiply" opacity="0.5" d="M128.664 174.261L135.878 179.221L131.216 179.446L128.664 174.261Z" fill="url(#paint49_linear_6434_47486)"/>
<path style="mix-blend-mode:multiply" opacity="0.5" d="M144.325 179.972L135.879 179.221L139.034 182.298L144.325 179.972Z" fill="url(#paint50_linear_6434_47486)"/>
<path style="mix-blend-mode:multiply" opacity="0.5" d="M134.1 183.678L135.877 179.221L128.342 184.415L134.1 183.678Z" fill="url(#paint51_linear_6434_47486)"/>
<path style="mix-blend-mode:multiply" opacity="0.5" d="M138.021 187.944L135.88 179.221L134.102 183.678L138.021 187.944Z" fill="url(#paint52_linear_6434_47486)"/>
<path style="mix-blend-mode:color-dodge" opacity="0.5" d="M138.535 171.516L135.877 179.221L139.199 177.222L138.535 171.516Z" fill="url(#paint53_linear_6434_47486)"/>
<path style="mix-blend-mode:color-dodge" opacity="0.5" d="M144.322 179.972L135.877 179.221L139.199 177.222L144.322 179.972Z" fill="url(#paint54_linear_6434_47486)"/>
<path style="mix-blend-mode:color-dodge" opacity="0.5" d="M144.322 179.972L135.877 179.221L139.199 177.222L144.322 179.972Z" fill="url(#paint55_linear_6434_47486)"/>
<path style="mix-blend-mode:color-dodge" opacity="0.5" d="M134.356 175.455L135.88 179.221L128.666 174.261L134.356 175.455Z" fill="url(#paint56_linear_6434_47486)"/>
<g style="mix-blend-mode:color-dodge" opacity="0.8">
<path d="M138.637 178.929C138.116 179.111 138.368 179.458 138.368 179.458L140.645 179.661C140.432 179.343 140.121 179.1 139.76 178.968C139.399 178.837 139.005 178.823 138.637 178.929Z" fill="white"/>
</g>
<path style="mix-blend-mode:multiply" opacity="0.5" d="M128.384 184.43C128.384 184.43 132.671 184.068 134.008 184.018L138.047 187.954L134.129 183.688L128.384 184.43Z" fill="url(#paint57_linear_6434_47486)"/>
<path style="mix-blend-mode:multiply" opacity="0.5" d="M128.664 174.261L135.878 179.221L130.151 181.327L128.664 174.261Z" fill="url(#paint58_linear_6434_47486)"/>
<path style="mix-blend-mode:multiply" opacity="0.5" d="M144.325 179.972L135.879 179.221L138.594 184.959L144.325 179.972Z" fill="url(#paint59_linear_6434_47486)"/>
<path style="mix-blend-mode:multiply" opacity="0.5" d="M128.369 184.425L135.878 179.221L138.046 187.954L133.488 185.441L128.369 184.425Z" fill="url(#paint60_linear_6434_47486)"/>
<g style="mix-blend-mode:soft-light" opacity="0.4">
<path d="M135.301 174.86C134.278 176.084 135.877 177.772 136.303 177.435C136.91 176.461 137.23 175.338 137.229 174.189C137.014 173.738 135.753 174.368 135.301 174.86Z" fill="#F7FFFF"/>
</g>
<g style="mix-blend-mode:soft-light" opacity="0.4">
<path d="M131.084 181.473C132.061 181.994 133.078 181.036 133.585 180.31C134.418 179.151 129.274 180.53 131.084 181.473Z" fill="#F7FFFF"/>
</g>
<path style="mix-blend-mode:multiply" opacity="0.5" d="M182.832 201.825L176.591 202.639L179.695 197.247L176.937 191.628L183.107 192.923L187.638 188.648L188.353 194.836L193.908 197.817L188.18 200.342L187.084 206.466L182.832 201.825Z" fill="url(#paint61_linear_6434_47486)"/>
<path d="M193.176 197.789L190.496 196.364L189.776 195.967L188.052 195.039L187.388 189.333L183.207 193.272L177.516 192.078L180.055 197.259L177.194 202.232L182.952 201.495L186.871 205.761L187.884 200.114L193.176 197.789Z" fill="url(#paint62_linear_6434_47486)"/>
<path style="mix-blend-mode:multiply" opacity="0.5" d="M177.488 192.068L184.702 197.028L180.027 197.249L177.488 192.068Z" fill="url(#paint63_linear_6434_47486)"/>
<path style="mix-blend-mode:multiply" opacity="0.5" d="M193.149 197.779L184.703 197.028L187.858 200.105L193.149 197.779Z" fill="url(#paint64_linear_6434_47486)"/>
<path style="mix-blend-mode:multiply" opacity="0.5" d="M182.928 201.486L184.705 197.028L177.17 202.223L182.928 201.486Z" fill="url(#paint65_linear_6434_47486)"/>
<path style="mix-blend-mode:multiply" opacity="0.5" d="M186.845 205.752L184.704 197.028L182.927 201.486L186.845 205.752Z" fill="url(#paint66_linear_6434_47486)"/>
<path style="mix-blend-mode:color-dodge" opacity="0.5" d="M187.363 189.324L184.705 197.028L188.027 195.03L187.363 189.324Z" fill="url(#paint67_linear_6434_47486)"/>
<path style="mix-blend-mode:color-dodge" opacity="0.5" d="M193.151 197.78L184.705 197.028L188.027 195.03L193.151 197.78Z" fill="url(#paint68_linear_6434_47486)"/>
<path style="mix-blend-mode:color-dodge" opacity="0.5" d="M193.151 197.78L184.705 197.028L188.027 195.03L193.151 197.78Z" fill="url(#paint69_linear_6434_47486)"/>
<path style="mix-blend-mode:color-dodge" opacity="0.5" d="M183.181 193.263L184.704 197.028L177.49 192.068L183.181 193.263Z" fill="url(#paint70_linear_6434_47486)"/>
<g style="mix-blend-mode:color-dodge" opacity="0.8">
<path d="M187.395 196.712C186.874 196.895 187.194 197.265 187.194 197.265L189.47 197.468C189.255 197.134 188.935 196.879 188.559 196.742C188.184 196.605 187.775 196.595 187.395 196.712Z" fill="white"/>
</g>
<path style="mix-blend-mode:multiply" opacity="0.5" d="M177.153 202.217C177.153 202.217 181.454 201.86 182.791 201.81L186.83 205.747L182.911 201.481L177.153 202.217Z" fill="url(#paint71_linear_6434_47486)"/>
<path style="mix-blend-mode:multiply" opacity="0.5" d="M177.488 192.068L184.702 197.028L178.975 199.135L177.488 192.068Z" fill="url(#paint72_linear_6434_47486)"/>
<path style="mix-blend-mode:multiply" opacity="0.5" d="M193.149 197.779L184.703 197.028L187.418 202.766L193.149 197.779Z" fill="url(#paint73_linear_6434_47486)"/>
<path style="mix-blend-mode:multiply" opacity="0.5" d="M177.193 202.232L184.702 197.028L186.87 205.762L182.312 203.248L177.193 202.232Z" fill="url(#paint74_linear_6434_47486)"/>
<g style="mix-blend-mode:soft-light" opacity="0.4">
<path d="M184.125 192.667C183.102 193.891 184.701 195.579 185.127 195.242C185.736 194.268 186.053 193.141 186.04 191.992C185.839 191.545 184.551 192.165 184.125 192.667Z" fill="#F7FFFF"/>
</g>
<g style="mix-blend-mode:soft-light" opacity="0.4">
<path d="M179.894 199.276C180.885 199.801 181.902 198.843 182.409 198.118C183.241 196.958 178.098 198.337 179.894 199.276Z" fill="#F7FFFF"/>
</g>
<path style="mix-blend-mode:multiply" opacity="0.5" d="M158.164 192.829L151.923 193.643L155.027 188.251L152.269 182.632L158.439 183.926L162.97 179.652L163.685 185.84L169.24 188.821L163.512 191.346L162.402 197.465L158.164 192.829Z" fill="url(#paint75_linear_6434_47486)"/>
<path d="M168.494 188.788L165.828 187.368L165.108 186.971L163.371 186.038L162.72 180.337L158.539 184.276L152.848 183.082L155.387 188.262L152.526 193.236L158.285 192.499L162.203 196.765L163.216 191.118L168.494 188.788Z" fill="url(#paint76_linear_6434_47486)"/>
<path style="mix-blend-mode:multiply" opacity="0.5" d="M152.824 183.072L160.038 188.032L155.363 188.253L152.824 183.072Z" fill="url(#paint77_linear_6434_47486)"/>
<path style="mix-blend-mode:multiply" opacity="0.5" d="M168.468 188.778L160.035 188.032L163.19 191.108L168.468 188.778Z" fill="url(#paint78_linear_6434_47486)"/>
<path style="mix-blend-mode:multiply" opacity="0.5" d="M158.26 192.489L160.037 188.032L152.502 193.226L158.26 192.489Z" fill="url(#paint79_linear_6434_47486)"/>
<path style="mix-blend-mode:multiply" opacity="0.5" d="M162.177 196.755L160.036 188.032L158.259 192.489L162.177 196.755Z" fill="url(#paint80_linear_6434_47486)"/>
<path style="mix-blend-mode:color-dodge" opacity="0.5" d="M162.695 180.327L160.037 188.032L163.346 186.029L162.695 180.327Z" fill="url(#paint81_linear_6434_47486)"/>
<path style="mix-blend-mode:color-dodge" opacity="0.5" d="M168.469 188.778L160.037 188.032L163.346 186.029L168.469 188.778Z" fill="url(#paint82_linear_6434_47486)"/>
<path style="mix-blend-mode:color-dodge" opacity="0.5" d="M168.469 188.778L160.037 188.032L163.346 186.029L168.469 188.778Z" fill="url(#paint83_linear_6434_47486)"/>
<path style="mix-blend-mode:color-dodge" opacity="0.5" d="M158.513 184.267L160.036 188.032L152.822 183.072L158.513 184.267Z" fill="url(#paint84_linear_6434_47486)"/>
<g style="mix-blend-mode:color-dodge" opacity="0.8">
<path d="M162.731 187.715C162.21 187.898 162.529 188.268 162.529 188.268L164.806 188.472C164.591 188.138 164.271 187.883 163.895 187.746C163.52 187.609 163.111 187.598 162.731 187.715Z" fill="white"/>
</g>
<path style="mix-blend-mode:multiply" opacity="0.5" d="M152.528 193.236C152.528 193.236 156.815 192.874 158.166 192.829L162.205 196.765L158.286 192.499L152.528 193.236Z" fill="url(#paint85_linear_6434_47486)"/>
<path style="mix-blend-mode:multiply" opacity="0.5" d="M152.824 183.072L160.038 188.032L154.311 190.138L152.824 183.072Z" fill="url(#paint86_linear_6434_47486)"/>
<path style="mix-blend-mode:multiply" opacity="0.5" d="M168.468 188.778L160.035 188.032L162.75 193.769L168.468 188.778Z" fill="url(#paint87_linear_6434_47486)"/>
<path style="mix-blend-mode:multiply" opacity="0.5" d="M152.529 193.236L160.038 188.032L162.206 196.765L157.648 194.252L152.529 193.236Z" fill="url(#paint88_linear_6434_47486)"/>
<g style="mix-blend-mode:soft-light" opacity="0.4">
<path d="M159.457 183.671C158.435 184.895 160.033 186.583 160.459 186.246C161.068 185.272 161.385 184.145 161.372 182.995C161.171 182.549 159.843 183.154 159.457 183.671Z" fill="#F7FFFF"/>
</g>
<g style="mix-blend-mode:soft-light" opacity="0.4">
<path d="M155.23 190.28C156.221 190.805 157.237 189.847 157.745 189.122C158.577 187.962 153.434 189.341 155.23 190.28Z" fill="#F7FFFF"/>
</g>
<path d="M187.441 31.0034L191.537 49.2113C191.911 50.8717 193.103 52.2281 194.702 52.8113L222.335 62.8894C223.934 63.4726 225.719 63.2023 227.074 62.1722L241.931 50.8765L187.441 31.0034Z" fill="url(#paint89_linear_6434_47486)"/>
<path d="M211.312 44.1787L203.969 51.932L201.864 51.1645L201.25 40.5091L203.552 41.3485L203.955 48.9465L209.194 43.4064L211.312 44.1787ZM212.273 44.5293L214.404 45.3064L211.046 54.5132L208.915 53.7361L212.273 44.5293ZM220.574 47.5568C221.802 48.0045 222.666 48.6576 223.168 49.5161C223.669 50.3746 223.731 51.3212 223.354 52.3558C222.98 53.3817 222.325 54.0617 221.388 54.3957C220.452 54.7297 219.37 54.6729 218.142 54.2252L216.288 53.5488L215.362 56.0872L213.231 55.3101L216.589 46.1033L220.574 47.5568ZM218.657 52.4458C219.963 52.9223 220.81 52.6301 221.197 51.5691C221.587 50.4994 221.129 49.7263 219.823 49.2498L218.086 48.6166L216.921 51.8126L218.657 52.4458Z" fill="white"/>
<path d="M122.347 27.0001L124.241 27.6909L122.999 38.5038L128.976 29.4178L130.87 30.1086L123.558 40.7004L121.156 39.8246L122.347 27.0001Z" fill="white"/>
<g style="mix-blend-mode:overlay">
<g style="mix-blend-mode:color-dodge">
<path fill-rule="evenodd" clip-rule="evenodd" d="M106.042 11.9591C107.935 6.77059 113.675 4.0985 118.863 5.99084L308.636 75.2039C313.824 77.0962 316.496 82.8364 314.604 88.025L277.406 190.016C276.361 192.883 273.977 195.058 271.026 195.837C268.074 196.616 265.691 198.79 264.645 201.658L256.72 223.386L255.693 226.204L247.768 247.931C246.722 250.799 247.146 253.997 248.903 256.494C250.66 258.99 251.084 262.188 250.038 265.056L214.554 362.349C212.661 367.538 206.921 370.21 201.732 368.318L11.9601 299.105C6.77155 297.212 4.09945 291.472 5.9918 286.284L40.8787 190.629C42.0003 187.553 44.5561 185.222 47.7212 184.386L49.3952 183.944C52.5603 183.109 55.116 180.777 56.2376 177.702L64.0412 156.306L65.0691 153.487L72.8727 132.091C73.9943 129.016 73.5397 125.586 71.6557 122.909L70.6592 121.493C68.7752 118.816 68.3206 115.387 69.4422 112.311L106.042 11.9591Z" fill="url(#paint90_linear_6434_47486)"/>
</g>
</g>
<defs>
<filter id="filter0_b_6434_47486" x="-7.38281" y="15.8945" width="164.844" height="281.225" filterUnits="userSpaceOnUse" colorInterpolationFilters="sRGB">
<feFlood floodOpacity="0" result="BackgroundImageFix"/>
<feGaussianBlur in="BackgroundImageFix" stdDeviation="13"/>
<feComposite in2="SourceAlpha" operator="in" result="effect1_backgroundBlur_6434_47486"/>
<feBlend mode="normal" in="SourceGraphic" in2="effect1_backgroundBlur_6434_47486" result="shape"/>
</filter>
<filter id="filter1_b_6434_47486" x="163.129" y="77.188" width="164.844" height="281.225" filterUnits="userSpaceOnUse" colorInterpolationFilters="sRGB">
<feFlood floodOpacity="0" result="BackgroundImageFix"/>
<feGaussianBlur in="BackgroundImageFix" stdDeviation="13"/>
<feComposite in2="SourceAlpha" operator="in" result="effect1_backgroundBlur_6434_47486"/>
<feBlend mode="normal" in="SourceGraphic" in2="effect1_backgroundBlur_6434_47486" result="shape"/>
</filter>
<filter id="filter2_i_6434_47486" x="2.81641" y="2.81836" width="314.957" height="372.671" filterUnits="userSpaceOnUse" colorInterpolationFilters="sRGB">
<feFlood floodOpacity="0" result="BackgroundImageFix"/>
<feBlend mode="normal" in="SourceGraphic" in2="BackgroundImageFix" result="shape"/>
<feColorMatrix in="SourceAlpha" type="matrix" values="0 0 0 0 0 0 0 0 0 0 0 0 0 0 0 0 0 0 127 0" result="hardAlpha"/>
<feOffset dy="5"/>
<feGaussianBlur stdDeviation="2"/>
<feComposite in2="hardAlpha" operator="arithmetic" k2="-1" k3="1"/>
<feColorMatrix type="matrix" values="0 0 0 0 0 0 0 0 0 0 0 0 0 0 0 0 0 0 0.25 0"/>
<feBlend mode="normal" in2="shape" result="effect1_innerShadow_6434_47486"/>
</filter>
<filter id="filter3_f_6434_47486" x="30.6484" y="59.8882" width="260.23" height="254.874" filterUnits="userSpaceOnUse" colorInterpolationFilters="sRGB">
<feFlood floodOpacity="0" result="BackgroundImageFix"/>
<feBlend mode="normal" in="SourceGraphic" in2="BackgroundImageFix" result="shape"/>
<feGaussianBlur stdDeviation="37.5" result="effect1_foregroundBlur_6434_47486"/>
</filter>
<filter id="filter4_f_6434_47486" x="261.765" y="80.2613" width="46.5907" height="24.3914" filterUnits="userSpaceOnUse" colorInterpolationFilters="sRGB">
<feFlood floodOpacity="0" result="BackgroundImageFix"/>
<feBlend mode="normal" in="SourceGraphic" in2="BackgroundImageFix" result="shape"/>
<feGaussianBlur stdDeviation="1.092" result="effect1_foregroundBlur_6434_47486"/>
</filter>
<filter id="filter5_f_6434_47486" x="255.636" y="77.13" width="58.8524" height="30.6541" filterUnits="userSpaceOnUse" colorInterpolationFilters="sRGB">
<feFlood floodOpacity="0" result="BackgroundImageFix"/>
<feBlend mode="normal" in="SourceGraphic" in2="BackgroundImageFix" result="shape"/>
<feGaussianBlur stdDeviation="1.092" result="effect1_foregroundBlur_6434_47486"/>
</filter>
<filter id="filter6_f_6434_47486" x="255.636" y="77.13" width="58.8524" height="30.6541" filterUnits="userSpaceOnUse" colorInterpolationFilters="sRGB">
<feFlood floodOpacity="0" result="BackgroundImageFix"/>
<feBlend mode="normal" in="SourceGraphic" in2="BackgroundImageFix" result="shape"/>
<feGaussianBlur stdDeviation="1.092" result="effect1_foregroundBlur_6434_47486"/>
</filter>
<filter id="filter7_f_6434_47486" x="258.582" y="73.814" width="46.5907" height="24.3914" filterUnits="userSpaceOnUse" colorInterpolationFilters="sRGB">
<feFlood floodOpacity="0" result="BackgroundImageFix"/>
<feBlend mode="normal" in="SourceGraphic" in2="BackgroundImageFix" result="shape"/>
<feGaussianBlur stdDeviation="1.092" result="effect1_foregroundBlur_6434_47486"/>
</filter>
<filter id="filter8_f_6434_47486" x="262.898" y="87.9679" width="46.4813" height="24.1561" filterUnits="userSpaceOnUse" colorInterpolationFilters="sRGB">
<feFlood floodOpacity="0" result="BackgroundImageFix"/>
<feBlend mode="normal" in="SourceGraphic" in2="BackgroundImageFix" result="shape"/>
<feGaussianBlur stdDeviation="1.092" result="effect1_foregroundBlur_6434_47486"/>
</filter>
<linearGradient id="paint0_linear_6434_47486" x1="14.1526" y1="246.387" x2="167.828" y2="46.1404" gradientUnits="userSpaceOnUse">
<stop stop-color="#060913"/>
<stop offset="0.136764" stop-color="#070A16"/>
<stop offset="0.197268" stop-color="#0D142E"/>
<stop offset="0.309253" stop-color="#070B17"/>
<stop offset="0.490764" stop-color="#080C1A"/>
<stop offset="0.661458" stop-color="#0B1125"/>
<stop offset="1" stop-color="#101010"/>
</linearGradient>
<linearGradient id="paint1_linear_6434_47486" x1="35.7672" y1="276.138" x2="102.709" y2="276.128" gradientUnits="userSpaceOnUse">
<stop stop-color="#EECCA2"/>
<stop offset="0.260417" stop-color="#624A2C"/>
<stop offset="0.6875" stop-color="#FFDAAB"/>
<stop offset="1" stop-color="#C68C43"/>
</linearGradient>
<linearGradient id="paint2_linear_6434_47486" x1="306.437" y1="127.92" x2="152.762" y2="328.167" gradientUnits="userSpaceOnUse">
<stop stop-color="#060913"/>
<stop offset="0.136764" stop-color="#070A16"/>
<stop offset="0.197268" stop-color="#0D142E"/>
<stop offset="0.309253" stop-color="#070B17"/>
<stop offset="0.490764" stop-color="#080C1A"/>
<stop offset="0.661458" stop-color="#0B1125"/>
<stop offset="1" stop-color="#101010"/>
</linearGradient>
<linearGradient id="paint3_linear_6434_47486" x1="284.823" y1="98.1696" x2="217.881" y2="98.1794" gradientUnits="userSpaceOnUse">
<stop stop-color="#EECCA2"/>
<stop offset="0.260417" stop-color="#624A2C"/>
<stop offset="0.6875" stop-color="#FFDAAB"/>
<stop offset="1" stop-color="#C68C43"/>
</linearGradient>
<linearGradient id="paint4_linear_6434_47486" x1="274.371" y1="33.4356" x2="-26.0406" y2="323.033" gradientUnits="userSpaceOnUse">
<stop stop-color="#C68C43"/>
<stop offset="0.119792" stop-color="#F5BA6E"/>
<stop offset="0.286458" stop-color="#C68C43"/>
<stop offset="0.5625" stop-color="#C68C43"/>
<stop offset="0.770833" stop-color="#EEB873"/>
<stop offset="1" stop-color="#C68C43"/>
</linearGradient>
<linearGradient id="paint5_linear_6434_47486" x1="93.9524" y1="56.7833" x2="295.938" y2="130.451" gradientUnits="userSpaceOnUse">
<stop stop-color="#8980EB"/>
<stop offset="1" stop-color="#705AB8"/>
</linearGradient>
<linearGradient id="paint6_linear_6434_47486" x1="160.931" y1="186.779" x2="238.167" y2="-24.9909" gradientUnits="userSpaceOnUse">
<stop stop-color="#86759D"/>
<stop offset="0.39" stop-color="#98ABD2"/>
<stop offset="1" stop-color="#DAE1EF"/>
</linearGradient>
<linearGradient id="paint7_linear_6434_47486" x1="100.013" y1="61.8509" x2="195.336" y2="96.6165" gradientUnits="userSpaceOnUse">
<stop stop-color="#705AB8"/>
<stop offset="1" stop-color="white"/>
</linearGradient>
<linearGradient id="paint8_linear_6434_47486" x1="195.322" y1="96.6126" x2="287.383" y2="130.189" gradientUnits="userSpaceOnUse">
<stop stop-color="#705AB8"/>
<stop offset="1" stop-color="white"/>
</linearGradient>
<linearGradient id="paint9_linear_6434_47486" x1="119.424" y1="119.572" x2="179.019" y2="141.308" gradientUnits="userSpaceOnUse">
<stop stop-color="#705AB8"/>
<stop offset="1" stop-color="white"/>
</linearGradient>
<linearGradient id="paint10_linear_6434_47486" x1="177.397" y1="140.716" x2="235.287" y2="161.829" gradientUnits="userSpaceOnUse">
<stop stop-color="#705AB8"/>
<stop offset="1" stop-color="white"/>
</linearGradient>
<linearGradient id="paint11_linear_6434_47486" x1="230.286" y1="22.1875" x2="199.895" y2="145.812" gradientUnits="userSpaceOnUse">
<stop stop-color="#BFD7FF"/>
<stop offset="1"/>
</linearGradient>
<linearGradient id="paint12_linear_6434_47486" x1="200.81" y1="81.5657" x2="292.871" y2="115.142" gradientUnits="userSpaceOnUse">
<stop stop-color="#BFD7FF"/>
<stop offset="1"/>
</linearGradient>
<linearGradient id="paint13_linear_6434_47486" x1="263.023" y1="30.2668" x2="232.659" y2="153.817" gradientUnits="userSpaceOnUse">
<stop stop-color="#BFD7FF"/>
<stop offset="1"/>
</linearGradient>
<linearGradient id="paint14_linear_6434_47486" x1="166.776" y1="6.58657" x2="136.412" y2="130.137" gradientUnits="userSpaceOnUse">
<stop stop-color="#BFD7FF"/>
<stop offset="1"/>
</linearGradient>
<linearGradient id="paint15_linear_6434_47486" x1="109.798" y1="147.136" x2="225.578" y2="189.363" gradientUnits="userSpaceOnUse">
<stop stop-color="#8980EB"/>
<stop offset="1" stop-color="#705AB8"/>
</linearGradient>
<linearGradient id="paint16_linear_6434_47486" x1="87.4704" y1="192.873" x2="97.4473" y2="165.517" gradientUnits="userSpaceOnUse">
<stop offset="0.21" stop-color="#98ABD2"/>
<stop offset="0.49" stop-color="#72719D"/>
<stop offset="1" stop-color="#DAE1EF"/>
</linearGradient>
<linearGradient id="paint17_linear_6434_47486" x1="91.7832" y1="191.356" x2="96.3604" y2="178.483" gradientUnits="userSpaceOnUse">
<stop stop-color="#705AB8"/>
<stop offset="1" stop-color="white"/>
</linearGradient>
<linearGradient id="paint18_linear_6434_47486" x1="97.581" y1="180.989" x2="108.021" y2="184.797" gradientUnits="userSpaceOnUse">
<stop stop-color="#8980EB"/>
<stop offset="1" stop-color="#705AB8"/>
</linearGradient>
<linearGradient id="paint19_linear_6434_47486" x1="212.328" y1="238.411" x2="222.305" y2="211.056" gradientUnits="userSpaceOnUse">
<stop offset="0.21" stop-color="#98ABD2"/>
<stop offset="0.49" stop-color="#72719D"/>
<stop offset="1" stop-color="#DAE1EF"/>
</linearGradient>
<linearGradient id="paint20_linear_6434_47486" x1="210.005" y1="234.473" x2="214.803" y2="221.681" gradientUnits="userSpaceOnUse">
<stop stop-color="#705AB8"/>
<stop offset="1" stop-color="white"/>
</linearGradient>
<linearGradient id="paint21_linear_6434_47486" x1="212.256" y1="222.813" x2="201.816" y2="219.005" gradientUnits="userSpaceOnUse">
<stop stop-color="#8980EB"/>
<stop offset="1" stop-color="#705AB8"/>
</linearGradient>
<linearGradient id="paint22_linear_6434_47486" x1="136.406" y1="253.285" x2="176.068" y2="144.536" gradientUnits="userSpaceOnUse">
<stop offset="0.21" stop-color="#98ABD2"/>
<stop offset="0.49" stop-color="#72719D"/>
<stop offset="1" stop-color="#DAE1EF"/>
</linearGradient>
<linearGradient id="paint23_linear_6434_47486" x1="177.251" y1="141.294" x2="141.115" y2="240.371" gradientUnits="userSpaceOnUse">
<stop offset="0.21" stop-color="#98ABD2"/>
<stop offset="0.49" stop-color="#72719D"/>
<stop offset="1" stop-color="#DAE1EF"/>
</linearGradient>
<linearGradient id="paint24_linear_6434_47486" x1="97.1223" y1="217.086" x2="118.989" y2="157.131" gradientUnits="userSpaceOnUse">
<stop stop-color="#705AB8"/>
<stop offset="1" stop-color="white"/>
</linearGradient>
<linearGradient id="paint25_linear_6434_47486" x1="189.565" y1="250.802" x2="211.432" y2="190.847" gradientUnits="userSpaceOnUse">
<stop stop-color="#705AB8"/>
<stop offset="1" stop-color="white"/>
</linearGradient>
<linearGradient id="paint26_linear_6434_47486" x1="114.558" y1="198.095" x2="124.169" y2="246.53" gradientUnits="userSpaceOnUse">
<stop stop-color="#705AB8"/>
<stop offset="1" stop-color="white"/>
</linearGradient>
<linearGradient id="paint27_linear_6434_47486" x1="167.614" y1="223.058" x2="165.918" y2="280.953" gradientUnits="userSpaceOnUse">
<stop stop-color="#705AB8"/>
<stop offset="1" stop-color="white"/>
</linearGradient>
<linearGradient id="paint28_linear_6434_47486" x1="139.692" y1="243.943" x2="169.925" y2="161.047" gradientUnits="userSpaceOnUse">
<stop stop-color="#705AB8"/>
<stop offset="1" stop-color="white"/>
</linearGradient>
<linearGradient id="paint29_linear_6434_47486" x1="122.964" y1="160.656" x2="206.307" y2="191.053" gradientUnits="userSpaceOnUse">
<stop stop-color="#8980EB"/>
<stop offset="1" stop-color="#705AB8"/>
</linearGradient>
<linearGradient id="paint30_linear_6434_47486" x1="123.475" y1="130.699" x2="193.875" y2="156.375" gradientUnits="userSpaceOnUse">
<stop stop-color="#728EE3"/>
<stop offset="1" stop-color="#836888"/>
</linearGradient>
<linearGradient id="paint31_linear_6434_47486" x1="98.0075" y1="200.523" x2="199.753" y2="237.632" gradientUnits="userSpaceOnUse">
<stop stop-color="#728EE3"/>
<stop offset="1" stop-color="#836888"/>
</linearGradient>
<linearGradient id="paint32_linear_6434_47486" x1="168.292" y1="236.25" x2="192.316" y2="245.012" gradientUnits="userSpaceOnUse">
<stop stop-color="#8980EB"/>
<stop offset="1" stop-color="#705AB8"/>
</linearGradient>
<linearGradient id="paint33_linear_6434_47486" x1="122.883" y1="161.463" x2="125.52" y2="162.425" gradientUnits="userSpaceOnUse">
<stop stop-color="#8980EB"/>
<stop offset="1" stop-color="#705AB8"/>
</linearGradient>
<linearGradient id="paint34_linear_6434_47486" x1="203.6" y1="189.498" x2="206.05" y2="190.391" gradientUnits="userSpaceOnUse">
<stop stop-color="#8980EB"/>
<stop offset="1" stop-color="#705AB8"/>
</linearGradient>
<linearGradient id="paint35_linear_6434_47486" x1="158.509" y1="134.922" x2="177.153" y2="141.722" gradientUnits="userSpaceOnUse">
<stop stop-color="#8980EB"/>
<stop offset="1" stop-color="#705AB8"/>
</linearGradient>
<linearGradient id="paint36_linear_6434_47486" x1="169.456" y1="200.361" x2="169.864" y2="203.38" gradientUnits="userSpaceOnUse">
<stop stop-color="#8980EB"/>
<stop offset="1" stop-color="#705AB8"/>
</linearGradient>
<linearGradient id="paint37_linear_6434_47486" x1="173.893" y1="201.688" x2="174.201" y2="203.97" gradientUnits="userSpaceOnUse">
<stop stop-color="#8980EB"/>
<stop offset="1" stop-color="#705AB8"/>
</linearGradient>
<linearGradient id="paint38_linear_6434_47486" x1="170.606" y1="134.193" x2="170.954" y2="137.113" gradientUnits="userSpaceOnUse">
<stop stop-color="#8980EB"/>
<stop offset="1" stop-color="#705AB8"/>
</linearGradient>
<linearGradient id="paint39_linear_6434_47486" x1="172.329" y1="154.161" x2="143.581" y2="232.985" gradientUnits="userSpaceOnUse">
<stop offset="0.21" stop-color="#98ABD2"/>
<stop offset="0.49" stop-color="#72719D"/>
<stop offset="1" stop-color="#DAE1EF"/>
</linearGradient>
<linearGradient id="paint40_linear_6434_47486" x1="94.7708" y1="196.387" x2="204.494" y2="236.404" gradientUnits="userSpaceOnUse">
<stop offset="0.21" stop-color="#98ABD2"/>
<stop offset="0.49" stop-color="#72719D"/>
<stop offset="1" stop-color="#DAE1EF"/>
</linearGradient>
<linearGradient id="paint41_linear_6434_47486" x1="141.842" y1="237.755" x2="153.823" y2="204.905" gradientUnits="userSpaceOnUse">
<stop stop-color="#8980EB"/>
<stop offset="1" stop-color="#705AB8"/>
</linearGradient>
<linearGradient id="paint42_linear_6434_47486" x1="132.45" y1="227.223" x2="143.903" y2="185.114" gradientUnits="userSpaceOnUse">
<stop stop-color="#705AB8"/>
<stop offset="1" stop-color="white"/>
</linearGradient>
<linearGradient id="paint43_linear_6434_47486" x1="109.662" y1="141.249" x2="248.549" y2="191.903" gradientUnits="userSpaceOnUse">
<stop offset="0.21" stop-color="#98ABD2"/>
<stop offset="0.49" stop-color="#72719D"/>
<stop offset="1" stop-color="#DAE1EF"/>
</linearGradient>
<linearGradient id="paint44_linear_6434_47486" x1="156.642" y1="197.17" x2="178.605" y2="136.952" gradientUnits="userSpaceOnUse">
<stop offset="0.21" stop-color="#98ABD2"/>
<stop offset="0.49" stop-color="#72719D"/>
<stop offset="1" stop-color="#DAE1EF"/>
</linearGradient>
<linearGradient id="paint45_linear_6434_47486" x1="164.565" y1="139.162" x2="146.219" y2="178.756" gradientUnits="userSpaceOnUse">
<stop stop-color="#705AB8"/>
<stop offset="1" stop-color="white"/>
</linearGradient>
<linearGradient id="paint46_linear_6434_47486" x1="160.553" y1="187.653" x2="170.612" y2="160.074" gradientUnits="userSpaceOnUse">
<stop stop-color="#8980EB"/>
<stop offset="1" stop-color="#705AB8"/>
</linearGradient>
<linearGradient id="paint47_linear_6434_47486" x1="132.907" y1="187.035" x2="139.794" y2="168.153" gradientUnits="userSpaceOnUse">
<stop stop-color="#8980EB"/>
<stop offset="1" stop-color="#705AB8"/>
</linearGradient>
<linearGradient id="paint48_linear_6434_47486" x1="133.114" y1="186.469" x2="139.468" y2="169.049" gradientUnits="userSpaceOnUse">
<stop stop-color="#86759D"/>
<stop offset="0.39" stop-color="#98ABD2"/>
<stop offset="1" stop-color="#DAE1EF"/>
</linearGradient>
<linearGradient id="paint49_linear_6434_47486" x1="127.977" y1="176.145" x2="135.94" y2="179.049" gradientUnits="userSpaceOnUse">
<stop stop-color="#705AB8"/>
<stop offset="1" stop-color="white"/>
</linearGradient>
<linearGradient id="paint50_linear_6434_47486" x1="135.942" y1="179.05" x2="143.638" y2="181.857" gradientUnits="userSpaceOnUse">
<stop stop-color="#705AB8"/>
<stop offset="1" stop-color="white"/>
</linearGradient>
<linearGradient id="paint51_linear_6434_47486" x1="129.62" y1="180.91" x2="134.599" y2="182.726" gradientUnits="userSpaceOnUse">
<stop stop-color="#705AB8"/>
<stop offset="1" stop-color="white"/>
</linearGradient>
<linearGradient id="paint52_linear_6434_47486" x1="134.468" y1="182.677" x2="139.299" y2="184.439" gradientUnits="userSpaceOnUse">
<stop stop-color="#705AB8"/>
<stop offset="1" stop-color="white"/>
</linearGradient>
<linearGradient id="paint53_linear_6434_47486" x1="138.822" y1="172.934" x2="136.31" y2="183.085" gradientUnits="userSpaceOnUse">
<stop stop-color="#BFD7FF"/>
<stop offset="1"/>
</linearGradient>
<linearGradient id="paint54_linear_6434_47486" x1="136.391" y1="177.811" x2="144.087" y2="180.618" gradientUnits="userSpaceOnUse">
<stop stop-color="#BFD7FF"/>
<stop offset="1"/>
</linearGradient>
<linearGradient id="paint55_linear_6434_47486" x1="141.564" y1="173.606" x2="139.048" y2="183.77" gradientUnits="userSpaceOnUse">
<stop stop-color="#BFD7FF"/>
<stop offset="1"/>
</linearGradient>
<linearGradient id="paint56_linear_6434_47486" x1="133.528" y1="171.615" x2="131.012" y2="181.779" gradientUnits="userSpaceOnUse">
<stop stop-color="#BFD7FF"/>
<stop offset="1"/>
</linearGradient>
<linearGradient id="paint57_linear_6434_47486" x1="128.84" y1="183.178" x2="138.504" y2="186.702" gradientUnits="userSpaceOnUse">
<stop stop-color="#8980EB"/>
<stop offset="1" stop-color="#705AB8"/>
</linearGradient>
<linearGradient id="paint58_linear_6434_47486" x1="127.612" y1="177.146" x2="135.575" y2="180.051" gradientUnits="userSpaceOnUse">
<stop stop-color="#8980EB"/>
<stop offset="1" stop-color="#705AB8"/>
</linearGradient>
<linearGradient id="paint59_linear_6434_47486" x1="135.49" y1="180.288" x2="143.186" y2="183.095" gradientUnits="userSpaceOnUse">
<stop stop-color="#8980EB"/>
<stop offset="1" stop-color="#705AB8"/>
</linearGradient>
<linearGradient id="paint60_linear_6434_47486" x1="129.661" y1="180.925" x2="139.324" y2="184.449" gradientUnits="userSpaceOnUse">
<stop stop-color="#8980EB"/>
<stop offset="1" stop-color="#705AB8"/>
</linearGradient>
<linearGradient id="paint61_linear_6434_47486" x1="181.731" y1="204.842" x2="188.618" y2="185.96" gradientUnits="userSpaceOnUse">
<stop stop-color="#8980EB"/>
<stop offset="1" stop-color="#705AB8"/>
</linearGradient>
<linearGradient id="paint62_linear_6434_47486" x1="181.938" y1="204.276" x2="188.292" y2="186.856" gradientUnits="userSpaceOnUse">
<stop stop-color="#86759D"/>
<stop offset="0.39" stop-color="#98ABD2"/>
<stop offset="1" stop-color="#DAE1EF"/>
</linearGradient>
<linearGradient id="paint63_linear_6434_47486" x1="176.801" y1="193.953" x2="184.765" y2="196.857" gradientUnits="userSpaceOnUse">
<stop stop-color="#705AB8"/>
<stop offset="1" stop-color="white"/>
</linearGradient>
<linearGradient id="paint64_linear_6434_47486" x1="184.766" y1="196.857" x2="192.462" y2="199.664" gradientUnits="userSpaceOnUse">
<stop stop-color="#705AB8"/>
<stop offset="1" stop-color="white"/>
</linearGradient>
<linearGradient id="paint65_linear_6434_47486" x1="178.448" y1="198.717" x2="183.427" y2="200.533" gradientUnits="userSpaceOnUse">
<stop stop-color="#705AB8"/>
<stop offset="1" stop-color="white"/>
</linearGradient>
<linearGradient id="paint66_linear_6434_47486" x1="183.292" y1="200.485" x2="188.124" y2="202.247" gradientUnits="userSpaceOnUse">
<stop stop-color="#705AB8"/>
<stop offset="1" stop-color="white"/>
</linearGradient>
<linearGradient id="paint67_linear_6434_47486" x1="187.65" y1="190.742" x2="185.138" y2="200.893" gradientUnits="userSpaceOnUse">
<stop stop-color="#BFD7FF"/>
<stop offset="1"/>
</linearGradient>
<linearGradient id="paint68_linear_6434_47486" x1="185.219" y1="195.618" x2="192.915" y2="198.425" gradientUnits="userSpaceOnUse">
<stop stop-color="#BFD7FF"/>
<stop offset="1"/>
</linearGradient>
<linearGradient id="paint69_linear_6434_47486" x1="190.392" y1="191.414" x2="187.876" y2="201.578" gradientUnits="userSpaceOnUse">
<stop stop-color="#BFD7FF"/>
<stop offset="1"/>
</linearGradient>
<linearGradient id="paint70_linear_6434_47486" x1="182.352" y1="189.422" x2="179.836" y2="199.586" gradientUnits="userSpaceOnUse">
<stop stop-color="#BFD7FF"/>
<stop offset="1"/>
</linearGradient>
<linearGradient id="paint71_linear_6434_47486" x1="177.65" y1="200.98" x2="187.327" y2="204.51" gradientUnits="userSpaceOnUse">
<stop stop-color="#8980EB"/>
<stop offset="1" stop-color="#705AB8"/>
</linearGradient>
<linearGradient id="paint72_linear_6434_47486" x1="176.436" y1="194.954" x2="184.399" y2="197.859" gradientUnits="userSpaceOnUse">
<stop stop-color="#8980EB"/>
<stop offset="1" stop-color="#705AB8"/>
</linearGradient>
<linearGradient id="paint73_linear_6434_47486" x1="184.314" y1="198.096" x2="192.01" y2="200.902" gradientUnits="userSpaceOnUse">
<stop stop-color="#8980EB"/>
<stop offset="1" stop-color="#705AB8"/>
</linearGradient>
<linearGradient id="paint74_linear_6434_47486" x1="178.472" y1="198.727" x2="188.148" y2="202.256" gradientUnits="userSpaceOnUse">
<stop stop-color="#8980EB"/>
<stop offset="1" stop-color="#705AB8"/>
</linearGradient>
<linearGradient id="paint75_linear_6434_47486" x1="157.064" y1="195.846" x2="163.95" y2="176.964" gradientUnits="userSpaceOnUse">
<stop stop-color="#8980EB"/>
<stop offset="1" stop-color="#705AB8"/>
</linearGradient>
<linearGradient id="paint76_linear_6434_47486" x1="157.27" y1="195.28" x2="163.624" y2="177.86" gradientUnits="userSpaceOnUse">
<stop stop-color="#86759D"/>
<stop offset="0.39" stop-color="#98ABD2"/>
<stop offset="1" stop-color="#DAE1EF"/>
</linearGradient>
<linearGradient id="paint77_linear_6434_47486" x1="152.137" y1="184.956" x2="160.101" y2="187.861" gradientUnits="userSpaceOnUse">
<stop stop-color="#705AB8"/>
<stop offset="1" stop-color="white"/>
</linearGradient>
<linearGradient id="paint78_linear_6434_47486" x1="160.098" y1="187.86" x2="167.78" y2="190.662" gradientUnits="userSpaceOnUse">
<stop stop-color="#705AB8"/>
<stop offset="1" stop-color="white"/>
</linearGradient>
<linearGradient id="paint79_linear_6434_47486" x1="153.78" y1="189.721" x2="158.759" y2="191.537" gradientUnits="userSpaceOnUse">
<stop stop-color="#705AB8"/>
<stop offset="1" stop-color="white"/>
</linearGradient>
<linearGradient id="paint80_linear_6434_47486" x1="158.624" y1="191.488" x2="163.456" y2="193.25" gradientUnits="userSpaceOnUse">
<stop stop-color="#705AB8"/>
<stop offset="1" stop-color="white"/>
</linearGradient>
<linearGradient id="paint81_linear_6434_47486" x1="162.982" y1="181.745" x2="160.471" y2="191.896" gradientUnits="userSpaceOnUse">
<stop stop-color="#BFD7FF"/>
<stop offset="1"/>
</linearGradient>
<linearGradient id="paint82_linear_6434_47486" x1="160.551" y1="186.622" x2="168.234" y2="189.424" gradientUnits="userSpaceOnUse">
<stop stop-color="#BFD7FF"/>
<stop offset="1"/>
</linearGradient>
<linearGradient id="paint83_linear_6434_47486" x1="165.724" y1="182.417" x2="163.208" y2="192.581" gradientUnits="userSpaceOnUse">
<stop stop-color="#BFD7FF"/>
<stop offset="1"/>
</linearGradient>
<linearGradient id="paint84_linear_6434_47486" x1="157.684" y1="180.426" x2="155.168" y2="190.59" gradientUnits="userSpaceOnUse">
<stop stop-color="#BFD7FF"/>
<stop offset="1"/>
</linearGradient>
<linearGradient id="paint85_linear_6434_47486" x1="152.985" y1="191.984" x2="162.662" y2="195.513" gradientUnits="userSpaceOnUse">
<stop stop-color="#8980EB"/>
<stop offset="1" stop-color="#705AB8"/>
</linearGradient>
<linearGradient id="paint86_linear_6434_47486" x1="151.772" y1="185.958" x2="159.735" y2="188.862" gradientUnits="userSpaceOnUse">
<stop stop-color="#8980EB"/>
<stop offset="1" stop-color="#705AB8"/>
</linearGradient>
<linearGradient id="paint87_linear_6434_47486" x1="159.646" y1="189.099" x2="167.329" y2="191.901" gradientUnits="userSpaceOnUse">
<stop stop-color="#8980EB"/>
<stop offset="1" stop-color="#705AB8"/>
</linearGradient>
<linearGradient id="paint88_linear_6434_47486" x1="153.808" y1="189.731" x2="163.484" y2="193.26" gradientUnits="userSpaceOnUse">
<stop stop-color="#8980EB"/>
<stop offset="1" stop-color="#705AB8"/>
</linearGradient>
<linearGradient id="paint89_linear_6434_47486" x1="231.983" y1="44.5875" x2="182.296" y2="50.9478" gradientUnits="userSpaceOnUse">
<stop stop-color="#C68C43"/>
<stop offset="0.119792" stop-color="#F5BA6E"/>
<stop offset="0.286458" stop-color="#C68C43"/>
<stop offset="0.5625" stop-color="#C68C43"/>
<stop offset="0.770833" stop-color="#EEB873"/>
<stop offset="1" stop-color="#C68C43"/>
</linearGradient>
<linearGradient id="paint90_linear_6434_47486" x1="150.959" y1="79.9661" x2="84.1648" y2="109.895" gradientUnits="userSpaceOnUse">
<stop stop-color="white" stop-opacity="0"/>
<stop offset="0.440223" stop-color="white"/>
<stop offset="1" stop-color="white" stop-opacity="0"/>
</linearGradient>
</defs>
</svg>
