<svg width="703" height="699" viewBox="0 0 703 699" fill="none" xmlns="http://www.w3.org/2000/svg">
<g filter="url(#filter0_f_6456_58034)">
<g filter="url(#filter1_b_6456_58034)">
<path d="M367.28 629.788C365.361 631.773 362.195 631.827 360.21 629.908L70.9643 350.289C68.9789 348.369 68.9254 345.204 70.8447 343.218L113.072 299.537L409.508 586.106L367.28 629.788Z" fill="url(#paint0_linear_6456_58034)"/>
<path d="M366.561 629.093C365.025 630.681 362.493 630.724 360.905 629.189L71.6593 349.57C70.071 348.034 70.0282 345.502 71.5636 343.914L113.096 300.951L408.094 586.13L366.561 629.093Z" stroke="url(#paint1_linear_6456_58034)" stroke-width="2"/>
</g>
<g filter="url(#filter2_b_6456_58034)">
<path d="M335.646 69.3068C337.565 67.3214 340.731 67.2678 342.716 69.1871L631.961 348.806C633.947 350.726 634 353.891 632.081 355.876L589.853 399.558L293.418 112.988L335.646 69.3068Z" fill="url(#paint2_linear_6456_58034)"/>
<path d="M336.365 70.0018C337.9 68.4135 340.433 68.3706 342.021 69.9061L631.266 349.525C632.855 351.061 632.898 353.593 631.362 355.181L589.829 398.144L294.832 112.964L336.365 70.0018Z" stroke="url(#paint3_linear_6456_58034)" stroke-width="2"/>
</g>
<mask id="path-5-inside-1_6456_58034" fill="white">
<path fill-rule="evenodd" clip-rule="evenodd" d="M17.1897 305.719C13.2189 301.88 13.1118 295.55 16.9504 291.579L282.208 17.1895C286.046 13.2187 292.377 13.1116 296.348 16.9502L440.452 156.259C442.806 158.534 443.897 161.817 443.373 165.048L441.235 178.24C440.711 181.472 441.802 184.755 444.156 187.03L476.176 217.985L512.029 252.645C514.383 254.92 517.701 255.899 520.913 255.266L534.025 252.683C537.237 252.05 540.555 253.03 542.908 255.305L685.734 393.377C689.704 397.215 689.812 403.546 685.973 407.517L420.716 681.906C416.877 685.877 410.546 685.984 406.576 682.146L263.749 544.073C261.395 541.797 260.305 538.514 260.828 535.283L262.966 522.093C263.49 518.862 262.399 515.579 260.045 513.303L228.025 482.349L192.172 447.689C189.818 445.414 186.5 444.434 183.288 445.067L170.178 447.65C166.967 448.283 163.648 447.303 161.295 445.028L17.1897 305.719Z"/>
</mask>
<g filter="url(#filter3_i_6456_58034)">
<path fill-rule="evenodd" clip-rule="evenodd" d="M17.1897 305.719C13.2189 301.88 13.1118 295.55 16.9504 291.579L282.208 17.1895C286.046 13.2187 292.377 13.1116 296.348 16.9502L440.452 156.259C442.806 158.534 443.897 161.817 443.373 165.048L441.235 178.24C440.711 181.472 441.802 184.755 444.156 187.03L476.176 217.985L512.029 252.645C514.383 254.92 517.701 255.899 520.913 255.266L534.025 252.683C537.237 252.05 540.555 253.03 542.908 255.305L685.734 393.377C689.704 397.215 689.812 403.546 685.973 407.517L420.716 681.906C416.877 685.877 410.546 685.984 406.576 682.146L263.749 544.073C261.395 541.797 260.305 538.514 260.828 535.283L262.966 522.093C263.49 518.862 262.399 515.579 260.045 513.303L228.025 482.349L192.172 447.689C189.818 445.414 186.5 444.434 183.288 445.067L170.178 447.65C166.967 448.283 163.648 447.303 161.295 445.028L17.1897 305.719Z" fill="#090E1C"/>
</g>
<path d="M476.176 217.985L477.566 216.547L476.176 217.985ZM228.025 482.349L226.635 483.787L228.025 482.349ZM262.966 522.093L264.94 522.413L262.966 522.093ZM260.828 535.283L258.854 534.963L260.828 535.283ZM534.025 252.683L533.639 250.721L534.025 252.683ZM441.235 178.24L443.209 178.56L441.235 178.24ZM443.373 165.048L441.399 164.728L443.373 165.048ZM183.288 445.067L183.675 447.029L183.288 445.067ZM512.029 252.645L513.419 251.207L512.029 252.645ZM520.913 255.266L520.526 253.304L520.913 255.266ZM280.77 15.7994L15.5125 290.189L18.3884 292.969L283.646 18.5796L280.77 15.7994ZM441.842 154.821L297.738 15.5123L294.958 18.3881L439.062 157.697L441.842 154.821ZM443.209 178.56L445.347 165.368L441.399 164.728L439.261 177.92L443.209 178.56ZM477.566 216.547L445.546 185.592L442.766 188.468L474.786 219.423L477.566 216.547ZM513.419 251.207L477.566 216.547L474.786 219.423L510.639 254.083L513.419 251.207ZM533.639 250.721L520.526 253.304L521.299 257.229L534.412 254.645L533.639 250.721ZM687.124 391.939L544.299 253.867L541.518 256.743L684.344 394.815L687.124 391.939ZM422.154 683.296L687.411 408.907L684.535 406.127L419.278 680.516L422.154 683.296ZM262.359 545.51L405.185 683.584L407.966 680.708L265.139 542.635L262.359 545.51ZM262.802 535.603L264.94 522.413L260.992 521.773L258.854 534.963L262.802 535.603ZM261.435 511.866L229.415 480.911L226.635 483.787L258.655 514.741L261.435 511.866ZM229.415 480.911L193.562 446.251L190.782 449.127L226.635 483.787L229.415 480.911ZM182.902 443.105L169.792 445.688L170.565 449.612L183.675 447.029L182.902 443.105ZM15.7996 307.157L159.905 446.466L162.685 443.59L18.5798 304.281L15.7996 307.157ZM169.792 445.688C167.222 446.194 164.568 445.41 162.685 443.59L159.905 446.466C162.729 449.196 166.711 450.372 170.565 449.612L169.792 445.688ZM264.94 522.413C265.569 518.535 264.26 514.596 261.435 511.866L258.655 514.741C260.538 516.562 261.411 519.188 260.992 521.773L264.94 522.413ZM265.139 542.635C263.256 540.814 262.384 538.188 262.802 535.603L258.854 534.963C258.226 538.841 259.535 542.78 262.359 545.51L265.139 542.635ZM419.278 680.516C416.207 683.693 411.142 683.779 407.966 680.708L405.185 683.584C409.95 688.19 417.547 688.061 422.154 683.296L419.278 680.516ZM684.344 394.815C687.52 397.886 687.606 402.95 684.535 406.127L687.411 408.907C692.017 404.142 691.889 396.545 687.124 391.939L684.344 394.815ZM534.412 254.645C536.981 254.139 539.636 254.923 541.518 256.743L544.299 253.867C541.474 251.137 537.493 249.962 533.639 250.721L534.412 254.645ZM439.261 177.92C438.632 181.798 439.941 185.738 442.766 188.468L445.546 185.592C443.663 183.772 442.79 181.145 443.209 178.56L439.261 177.92ZM439.062 157.697C440.945 159.517 441.818 162.143 441.399 164.728L445.347 165.368C445.976 161.491 444.667 157.551 441.842 154.821L439.062 157.697ZM193.562 446.251C190.738 443.521 186.756 442.346 182.902 443.105L183.675 447.029C186.244 446.523 188.899 447.307 190.782 449.127L193.562 446.251ZM15.5125 290.189C10.9061 294.954 11.0347 302.551 15.7996 307.157L18.5798 304.281C15.4032 301.21 15.3175 296.146 18.3884 292.969L15.5125 290.189ZM510.639 254.083C513.463 256.813 517.445 257.988 521.299 257.229L520.526 253.304C517.957 253.81 515.302 253.027 513.419 251.207L510.639 254.083ZM283.646 18.5796C286.717 15.403 291.781 15.3172 294.958 18.3881L297.738 15.5123C292.973 10.9059 285.376 11.0345 280.77 15.7994L283.646 18.5796Z" fill="url(#paint4_linear_6456_58034)" mask="url(#path-5-inside-1_6456_58034)"/>
<mask id="mask0_6456_58034" style="mask-type:alpha" maskUnits="userSpaceOnUse" x="19" y="19" width="665" height="661">
<path fill-rule="evenodd" clip-rule="evenodd" d="M22.217 305.635C18.2463 301.796 18.1391 295.466 21.9778 291.495L282.294 22.2164C286.133 18.2456 292.464 18.1385 296.434 21.9771L438.588 159.399C440.935 161.669 442.027 164.941 441.512 168.165L439.461 181.015C438.947 184.239 440.038 187.511 442.386 189.78L477.749 223.966C477.749 223.966 477.749 223.966 477.749 223.966C477.749 223.966 477.749 223.966 477.749 223.966L509.326 254.492C511.674 256.762 514.981 257.742 518.186 257.119L530.958 254.634C534.163 254.011 537.471 254.991 539.818 257.261L680.709 393.463C684.68 397.301 684.787 403.632 680.949 407.603L420.632 676.881C416.793 680.852 410.463 680.959 406.492 677.121L265.602 540.92C263.255 538.651 262.163 535.378 262.678 532.154L264.729 519.302C265.243 516.078 264.152 512.806 261.804 510.536L226.442 476.351C226.442 476.351 226.441 476.351 226.441 476.351C226.441 476.351 226.441 476.351 226.441 476.351L194.864 445.824C192.516 443.555 189.209 442.575 186.004 443.198L173.229 445.683C170.024 446.306 166.717 445.326 164.37 443.057L22.217 305.635Z" fill="#090E1C"/>
</mask>
<g mask="url(#mask0_6456_58034)">
<rect x="416.277" y="689.054" width="563.366" height="200.821" transform="rotate(-135.969 416.277 689.054)" fill="#060911"/>
<g style="mix-blend-mode:hard-light" opacity="0.2">
<path style="mix-blend-mode:multiply" opacity="0.5" d="M310.574 308.884L273.175 436.942L194.303 329.296L60.9957 333.238L138.892 225.021L93.9281 99.4485L220.951 140.137L326.567 58.5239L327.04 191.989L437.293 267.174L310.574 308.884Z" fill="url(#paint5_linear_6456_58034)"/>
<path d="M320.151 71.6153L269.252 110.952L255.353 121.698L222.268 147.247L104.319 109.479L146.154 225.982L73.7794 326.469L197.473 322.789L270.658 422.598L305.339 303.809L422.886 265.129L320.659 195.362L320.151 71.6153Z" fill="url(#paint6_linear_6456_58034)"/>
<path style="mix-blend-mode:multiply" opacity="0.5" d="M73.4023 326.867L232.605 229.968L197.096 323.187L73.4023 326.867Z" fill="url(#paint7_linear_6456_58034)"/>
<path style="mix-blend-mode:multiply" opacity="0.5" d="M319.757 72.0293L232.588 229.984L320.264 195.776L319.757 72.0293Z" fill="url(#paint8_linear_6456_58034)"/>
<path style="mix-blend-mode:multiply" opacity="0.5" d="M304.942 304.223L232.586 229.984L270.165 423.113L304.942 304.223Z" fill="url(#paint9_linear_6456_58034)"/>
<path style="mix-blend-mode:multiply" opacity="0.5" d="M422.501 265.534L232.597 229.975L304.953 304.213L422.501 265.534Z" fill="url(#paint10_linear_6456_58034)"/>
<path style="mix-blend-mode:color-dodge" opacity="0.5" d="M103.93 109.882L232.593 229.973L221.781 147.752L103.93 109.882Z" fill="url(#paint11_linear_6456_58034)"/>
<path style="mix-blend-mode:color-dodge" opacity="0.5" d="M319.759 72.028L232.59 229.983L221.778 147.761L319.759 72.028Z" fill="url(#paint12_linear_6456_58034)"/>
<path style="mix-blend-mode:color-dodge" opacity="0.5" d="M319.759 72.028L232.59 229.983L221.778 147.761L319.759 72.028Z" fill="url(#paint13_linear_6456_58034)"/>
<path style="mix-blend-mode:color-dodge" opacity="0.5" d="M145.678 226.482L232.604 229.969L73.4008 326.868L145.678 226.482Z" fill="url(#paint14_linear_6456_58034)"/>
<g style="mix-blend-mode:color-dodge" opacity="0.8">
<path d="M249.218 174.855C248.428 186.768 257.515 184.631 257.515 184.631L280.891 142.091C272.807 143.458 265.371 147.375 259.673 153.27C253.974 159.165 250.31 166.729 249.218 174.855Z" fill="white"/>
</g>
<path style="mix-blend-mode:multiply" opacity="0.5" d="M270.66 422.6C270.66 422.6 300.228 335.728 310.784 309.073L423.084 264.929L305.536 303.609L270.66 422.6Z" fill="url(#paint15_linear_6456_58034)"/>
<g style="mix-blend-mode:soft-light" opacity="0.4">
<path d="M141.985 202.66C157.083 233.443 204.207 217.176 201.143 206.022C198.078 194.869 155.724 158.994 145.017 159.175C134.311 159.356 135.822 190.071 141.985 202.66Z" fill="#F7FFFF"/>
</g>
<g style="mix-blend-mode:soft-light" opacity="0.4">
<path d="M235.802 343.865C254.49 328.972 244.396 300.881 234.796 284.385C218.683 258.081 201.843 370.52 235.802 343.865Z" fill="#F7FFFF"/>
</g>
</g>
</g>
<g filter="url(#filter4_f_6456_58034)">
<ellipse cx="352.079" cy="348.91" rx="98.6335" ry="92.4133" transform="rotate(-45.9695 352.079 348.91)" fill="#6E85CF"/>
</g>
<path d="M207.937 227.209L209.432 228.654L205.707 232.508L214.162 240.682L212.661 242.235L202.71 232.615L207.937 227.209ZM211.858 223.153C212.924 222.05 213.999 221.495 215.083 221.486C216.158 221.467 217.189 221.936 218.176 222.89L219.111 223.794C220.098 224.748 220.601 225.763 220.619 226.837C220.637 227.912 220.114 229.001 219.048 230.103L217.727 231.469L220.488 234.138L218.987 235.691L209.036 226.072L211.858 223.153ZM216.261 230.051L217.581 228.685C218.702 227.525 218.712 226.412 217.61 225.347L216.675 224.443C216.128 223.915 215.577 223.66 215.021 223.679C214.465 223.679 213.899 223.976 213.325 224.571L212.004 225.937L216.261 230.051ZM232.638 221.57L231.095 223.166L228.282 221.615L225.196 224.807L226.841 227.566L225.298 229.162L218.059 216.739L220.019 214.711L232.638 221.57ZM220.268 216.928L224.036 223.102L226.552 220.499L220.268 216.928ZM227.49 209.112L226.138 207.805L227.626 206.267L228.977 207.574C230.186 206.591 231.428 206.122 232.702 206.167C233.975 206.211 235.163 206.766 236.266 207.832C237.368 208.898 237.968 210.071 238.065 211.352C238.162 212.633 237.74 213.894 236.8 215.136L238.151 216.442L236.664 217.981L235.312 216.674C234.103 217.656 232.857 218.121 231.573 218.067C230.29 218.013 229.097 217.454 227.995 216.388C226.892 215.322 226.297 214.154 226.21 212.882C226.122 211.611 226.549 210.354 227.49 209.112ZM229.315 215.022C230.034 215.717 230.805 216.09 231.626 216.143C232.447 216.195 233.263 215.917 234.073 215.309L228.896 210.305C228.307 211.126 228.052 211.946 228.132 212.765C228.202 213.574 228.596 214.327 229.315 215.022ZM234.945 209.198C234.226 208.503 233.461 208.134 232.649 208.091C231.838 208.049 231.036 208.331 230.245 208.938L235.393 213.915C235.973 213.103 236.223 212.288 236.144 211.469C236.064 210.65 235.664 209.893 234.945 209.198Z" fill="#C0D0FF"/>
<path d="M173.296 230.058L167.257 224.219L169.659 221.735C170.176 221.2 170.704 220.826 171.244 220.613C171.789 220.395 172.323 220.337 172.845 220.442C173.367 220.546 173.85 220.812 174.293 221.24C174.736 221.669 175.018 222.142 175.14 222.66C175.262 223.179 175.223 223.714 175.023 224.266C174.829 224.813 174.473 225.353 173.956 225.888L172.154 227.752L172.112 226.743L174.381 228.936L173.296 230.058ZM172.232 226.859L171.205 226.834L172.957 225.023C173.435 224.528 173.69 224.057 173.722 223.609C173.754 223.15 173.58 222.738 173.2 222.371C172.815 221.998 172.396 221.838 171.945 221.891C171.498 221.938 171.036 222.209 170.558 222.704L168.807 224.516L168.738 223.481L172.232 226.859ZM180.607 222.496L177.195 213.94L178.262 212.835L186.937 215.947L185.803 217.121L178.099 214.196L178.532 213.747L181.724 221.34L180.607 222.496ZM180.418 219.894L179.83 218.741L182.983 215.48L184.155 216.028L180.418 219.894ZM188.329 202.422L189.414 201.3L195.453 207.138L194.369 208.26L188.329 202.422ZM191.349 211.383L190.265 212.505L184.226 206.666L185.31 205.545L191.349 211.383ZM191.864 205.672L188.669 208.976L187.712 208.05L190.906 204.746L191.864 205.672ZM199.532 202.919L193.492 197.081L197.454 192.983L198.395 193.909L195.25 197.161L195.233 196.644L200.599 201.815L199.532 202.919Z" fill="white"/>
<path d="M447.063 549.309L448.371 550.574L449.733 549.165L455.471 554.711L457.047 553.08L450.001 546.269L447.063 549.309ZM457.263 549.11C456.728 549.664 456.702 550.457 457.286 551.021C457.698 551.42 458.215 551.51 458.667 551.305L459.839 553.295L460.802 552.298L459.907 550.323C459.578 549.556 459.425 549.331 459.164 549.078C458.59 548.524 457.808 548.547 457.263 549.11ZM463.693 546.447C465.377 544.706 465.294 542.153 462.969 539.905C460.644 537.657 458.089 537.661 456.406 539.402C454.732 541.133 454.805 543.696 457.131 545.944C459.456 548.192 462.02 548.178 463.693 546.447ZM462.314 545.114C461.536 545.919 460.327 545.841 458.726 544.293C457.126 542.746 457.007 541.54 457.785 540.735C458.573 539.92 459.782 539.998 461.383 541.546C462.983 543.093 463.103 544.299 462.314 545.114ZM470.298 539.615C471.981 537.874 471.898 535.321 469.573 533.073C467.248 530.825 464.694 530.829 463.01 532.57C461.337 534.302 461.41 536.865 463.735 539.113C466.06 541.36 468.624 541.347 470.298 539.615ZM468.919 538.282C468.14 539.088 466.931 539.009 465.331 537.462C463.73 535.915 463.611 534.709 464.389 533.904C465.177 533.088 466.387 533.167 467.987 534.714C469.588 536.261 469.707 537.467 468.919 538.282ZM476.902 532.784C478.585 531.042 478.503 528.489 476.177 526.242C473.852 523.994 471.298 523.997 469.615 525.739C467.941 527.47 468.014 530.033 470.339 532.281C472.664 534.529 475.228 534.515 476.902 532.784ZM475.523 531.451C474.745 532.256 473.535 532.177 471.935 530.63C470.334 529.083 470.215 527.877 470.993 527.072C471.782 526.257 472.991 526.335 474.591 527.882C476.192 529.429 476.311 530.635 475.523 531.451ZM479.375 526.237C478.84 526.79 478.814 527.583 479.398 528.147C479.811 528.546 480.327 528.637 480.779 528.431L481.951 530.421L482.915 529.424L482.02 527.45C481.69 526.683 481.538 526.458 481.276 526.205C480.702 525.65 479.92 525.673 479.375 526.237ZM485.806 523.573C487.489 521.832 487.406 519.279 485.081 517.031C482.756 514.783 480.202 514.787 478.518 516.528C476.845 518.26 476.918 520.823 479.243 523.071C481.568 525.318 484.132 525.305 485.806 523.573ZM484.427 522.24C483.648 523.046 482.439 522.967 480.839 521.42C479.238 519.873 479.119 518.667 479.897 517.862C480.686 517.046 481.895 517.125 483.495 518.672C485.096 520.219 485.215 521.425 484.427 522.24ZM492.41 516.742C494.093 515 494.011 512.447 491.686 510.2C489.36 507.952 486.806 507.955 485.123 509.697C483.449 511.428 483.522 513.991 485.847 516.239C488.172 518.487 490.736 518.473 492.41 516.742ZM491.031 515.409C490.253 516.214 489.043 516.135 487.443 514.588C485.843 513.041 485.723 511.835 486.502 511.03C487.29 510.215 488.499 510.293 490.099 511.84C491.7 513.387 491.819 514.593 491.031 515.409ZM499.014 509.91C500.698 508.169 500.615 505.616 498.29 503.368C495.965 501.12 493.41 501.124 491.727 502.865C490.053 504.596 490.126 507.16 492.451 509.407C494.777 511.655 497.341 511.641 499.014 509.91ZM497.635 508.577C496.857 509.382 495.648 509.304 494.047 507.757C492.447 506.209 492.327 505.004 493.106 504.198C493.894 503.383 495.103 503.462 496.704 505.009C498.304 506.556 498.424 507.762 497.635 508.577ZM506.834 496.967C508.654 495.085 508.997 493.138 507.427 491.62C505.846 490.093 503.913 490.502 502.093 492.384L499.145 495.434L504.449 500.562L503.505 501.538L504.341 502.346L505.285 501.369L506.191 502.245L507.777 500.604L506.871 499.729L508.973 497.554L508.137 496.747L506.035 498.921L505.472 498.376L506.834 496.967ZM505.841 493.281C506.535 493.952 506.422 494.835 505.546 495.741L504.193 497.14L502.059 495.077L503.412 493.678C504.288 492.772 505.156 492.619 505.841 493.281Z" fill="white"/>
<path d="M520.139 486.607L514.805 481.45L512.139 484.208L513.338 485.465C513.788 485.939 514.205 486.401 514.589 486.85C514.973 487.286 515.297 487.709 515.561 488.121C515.832 488.525 516.017 488.905 516.115 489.26C516.214 489.614 516.206 489.925 516.091 490.191L514.528 491.405C514.788 491.163 514.901 490.871 514.869 490.528C514.844 490.179 514.708 489.795 514.464 489.377C514.219 488.958 513.894 488.509 513.49 488.027C513.079 487.539 512.619 487.028 512.108 486.496L509.951 484.255L514.943 479.091L521.385 485.319L520.139 486.607ZM516.901 494.167L514.304 491.637L521.865 483.816L524.471 486.336L523.304 487.544L521.804 486.094L516.579 491.499L518.079 492.949L516.901 494.167ZM526.425 481.455C525.848 482.052 525.224 482.462 524.555 482.685C523.885 482.894 523.222 482.922 522.566 482.768C521.916 482.607 521.327 482.271 520.796 481.758C520.26 481.239 519.9 480.665 519.718 480.034C519.535 479.39 519.528 478.747 519.695 478.104C519.869 477.454 520.215 476.861 520.734 476.324C521.24 475.8 521.805 475.444 522.429 475.256C523.053 475.067 523.686 475.056 524.329 475.223C524.972 475.391 525.576 475.747 526.14 476.292C526.193 476.344 526.25 476.405 526.311 476.477C526.378 476.542 526.439 476.607 526.493 476.672L522.162 481.151L521.327 480.343L525.015 476.529L524.8 477.275C524.498 476.97 524.164 476.771 523.8 476.678C523.435 476.585 523.072 476.591 522.711 476.696C522.356 476.795 522.033 476.995 521.741 477.297C521.442 477.606 521.247 477.942 521.154 478.307C521.068 478.665 521.08 479.027 521.192 479.395C521.304 479.75 521.521 480.083 521.843 480.394L522.044 480.589C522.366 480.9 522.723 481.102 523.114 481.194C523.505 481.287 523.897 481.264 524.291 481.125C524.684 480.986 525.05 480.742 525.387 480.394C525.679 480.092 525.895 479.774 526.034 479.442C526.174 479.11 526.234 478.752 526.214 478.37L527.641 478.445C527.69 478.959 527.613 479.475 527.41 479.993C527.207 480.498 526.879 480.985 526.425 481.455ZM530.127 477.484L524.752 472.288L529.734 467.135L535.109 472.331L533.903 473.579L529.303 469.132L529.877 469.122L526.753 472.353L526.744 471.779L531.344 476.226L530.127 477.484ZM539.137 468.306C538.605 468.856 538.014 469.232 537.364 469.435C536.707 469.631 536.051 469.652 535.395 469.498C534.739 469.344 534.145 469.011 533.615 468.498C533.079 467.979 532.725 467.398 532.556 466.754C532.38 466.103 532.382 465.45 532.563 464.793C532.743 464.137 533.099 463.533 533.631 462.983C534.169 462.426 534.764 462.046 535.414 461.844C536.07 461.635 536.72 461.607 537.363 461.762C538.012 461.909 538.609 462.245 539.152 462.771C539.682 463.283 540.035 463.865 540.211 464.515C540.394 465.159 540.395 465.816 540.215 466.485C540.035 467.142 539.675 467.749 539.137 468.306ZM538.06 467.265C538.358 466.956 538.557 466.616 538.656 466.245C538.756 465.873 538.743 465.497 538.617 465.116C538.499 464.729 538.268 464.37 537.926 464.039C537.577 463.702 537.21 463.484 536.826 463.384C536.441 463.272 536.065 463.272 535.697 463.384C535.329 463.496 535 463.702 534.708 464.004C534.409 464.313 534.21 464.653 534.111 465.024C534.018 465.389 534.031 465.765 534.15 466.152C534.262 466.533 534.492 466.893 534.841 467.23C535.184 467.561 535.55 467.779 535.942 467.885C536.333 467.99 536.709 467.99 537.07 467.885C537.438 467.773 537.768 467.566 538.06 467.265ZM544.7 462.591C545.18 462.095 545.535 461.587 545.763 461.068C545.999 460.543 546.099 460.049 546.065 459.588C546.024 459.12 545.839 458.727 545.511 458.409C545.101 458.013 544.614 457.873 544.048 457.988C543.476 458.097 542.901 458.45 542.323 459.047L542.556 459.35C542.894 459.001 543.135 458.637 543.28 458.259C543.432 457.873 543.482 457.506 543.43 457.157C543.378 456.795 543.224 456.491 542.969 456.244C542.66 455.946 542.285 455.797 541.843 455.798C541.4 455.799 540.934 455.932 540.443 456.198C539.953 456.464 539.481 456.851 539.028 457.36C538.723 457.689 538.455 458.06 538.225 458.473C537.994 458.873 537.79 459.319 537.614 459.81L538.851 460.383C539.009 459.965 539.191 459.582 539.396 459.235C539.608 458.882 539.843 458.571 540.103 458.303C540.349 458.048 540.587 457.855 540.816 457.726C541.038 457.59 541.245 457.524 541.436 457.528C541.628 457.518 541.787 457.574 541.914 457.698C542.042 457.821 542.114 457.968 542.13 458.14C542.146 458.311 542.103 458.496 542.001 458.696C541.905 458.889 541.753 459.093 541.546 459.308L540.641 460.244L541.486 461.061L542.488 460.025C542.819 459.682 543.129 459.476 543.419 459.405C543.708 459.321 543.959 459.383 544.174 459.59C544.322 459.733 544.397 459.916 544.401 460.141C544.412 460.358 544.35 460.597 544.215 460.857C544.074 461.11 543.868 461.377 543.595 461.659C543.277 461.988 542.919 462.278 542.521 462.529C542.123 462.78 541.723 462.965 541.322 463.084L541.918 464.341C542.41 464.194 542.898 463.971 543.382 463.673C543.865 463.361 544.304 463 544.7 462.591ZM548.344 458.641L542.969 453.445L544.185 452.187L547.728 455.612L547.055 449.217L548.165 448.07L553.54 453.266L552.323 454.524L548.78 451.099L549.463 457.483L548.344 458.641ZM556.256 450.456L551.646 446L552.23 446L550.119 448.184L549.052 447.152L553.917 442.12L554.984 443.151L552.882 445.325L552.862 444.741L557.472 449.198L556.256 450.456ZM563.327 443.142L562.24 442.091L561.94 441.938L560.038 440.098C559.669 439.742 559.276 439.577 558.861 439.604C558.439 439.624 558.011 439.859 557.576 440.308C557.284 440.61 557.042 440.954 556.851 441.341C556.666 441.72 556.56 442.091 556.533 442.455L555.14 442.063C555.198 441.56 555.364 441.059 555.64 440.559C555.915 440.046 556.26 439.575 556.675 439.146C557.428 438.367 558.196 437.948 558.981 437.889C559.765 437.816 560.546 438.156 561.325 438.908L564.475 441.954L563.327 443.142ZM561.763 444.901C561.373 445.304 560.966 445.591 560.54 445.763C560.107 445.929 559.688 445.979 559.285 445.913C558.881 445.834 558.524 445.646 558.216 445.347C557.914 445.055 557.71 444.722 557.605 444.348C557.506 443.966 557.545 443.543 557.722 443.078C557.899 442.613 558.25 442.109 558.775 441.565L560.284 440.005L561.119 440.813L559.699 442.282C559.283 442.712 559.075 443.069 559.073 443.352C559.065 443.63 559.161 443.866 559.362 444.06C559.59 444.281 559.859 444.366 560.169 444.314C560.478 444.263 560.788 444.076 561.1 443.754C561.398 443.445 561.594 443.102 561.686 442.724C561.785 442.34 561.749 441.961 561.578 441.587L562.537 442.106C562.736 442.531 562.77 442.986 562.639 443.47C562.515 443.948 562.223 444.425 561.763 444.901Z" fill="#7D7D7D"/>
<path d="M442.417 505.532L443.725 506.797L445.087 505.388L450.825 510.934L452.401 509.304L445.355 502.492L442.417 505.532ZM456.624 505.177C458.308 503.436 458.225 500.883 455.9 498.635C453.575 496.387 451.02 496.391 449.337 498.132C447.663 499.863 447.736 502.426 450.061 504.674C452.387 506.922 454.951 506.908 456.624 505.177ZM455.245 503.844C454.467 504.649 453.258 504.57 451.657 503.023C450.057 501.476 449.937 500.27 450.716 499.465C451.504 498.65 452.713 498.728 454.314 500.275C455.914 501.823 456.034 503.028 455.245 503.844ZM458.524 496.484C459.516 495.458 459.462 494.023 458.265 492.865C457.067 491.707 455.631 491.702 454.639 492.728C453.646 493.755 453.7 495.21 454.888 496.358C456.076 497.506 457.531 497.511 458.524 496.484ZM461.171 500.232L462.329 499.034L459.935 487.411L458.777 488.609L461.171 500.232ZM457.699 495.686C457.28 496.119 456.616 496.061 455.871 495.341C455.126 494.621 455.046 493.959 455.464 493.526C455.892 493.083 456.537 493.142 457.292 493.872C458.046 494.601 458.127 495.244 457.699 495.686ZM466.468 494.914C467.46 493.888 467.406 492.433 466.218 491.285C465.03 490.137 463.575 490.132 462.582 491.158C461.599 492.175 461.654 493.629 462.842 494.778C464.029 495.926 465.485 495.931 466.468 494.914ZM465.642 494.116C465.224 494.549 464.569 494.501 463.815 493.771C463.06 493.041 462.989 492.389 463.408 491.956C463.836 491.513 464.49 491.581 465.235 492.301C465.98 493.022 466.07 493.673 465.642 494.116Z" fill="white"/>
<path d="M475.266 485.853C474.747 486.39 474.177 486.805 473.555 487.1C472.932 487.381 472.295 487.537 471.642 487.568C470.989 487.585 470.35 487.474 469.725 487.234C469.101 486.994 468.527 486.62 468.003 486.115C467.48 485.609 467.088 485.048 466.826 484.431C466.565 483.815 466.439 483.181 466.448 482.527C466.45 481.867 466.584 481.224 466.851 480.599C467.111 479.968 467.503 479.38 468.029 478.837C468.587 478.26 469.196 477.83 469.858 477.549C470.514 477.26 471.195 477.14 471.902 477.187L471.88 478.801C471.358 478.79 470.878 478.878 470.438 479.063C469.993 479.243 469.591 479.517 469.235 479.886C468.878 480.255 468.611 480.652 468.433 481.078C468.262 481.496 468.177 481.927 468.178 482.369C468.185 482.805 468.278 483.232 468.457 483.651C468.642 484.064 468.916 484.446 469.278 484.796C469.64 485.146 470.031 485.407 470.45 485.578C470.875 485.742 471.305 485.821 471.741 485.814C472.183 485.8 472.61 485.7 473.023 485.515C473.442 485.323 473.83 485.042 474.187 484.673C474.544 484.304 474.807 483.897 474.978 483.452C475.142 483 475.206 482.511 475.171 481.983L476.794 481.916C476.858 482.615 476.761 483.3 476.502 483.971C476.242 484.642 475.831 485.269 475.266 485.853ZM482.12 478.562L481.033 477.511L480.733 477.358L478.831 475.519C478.462 475.162 478.069 474.997 477.654 475.024C477.232 475.044 476.804 475.279 476.369 475.729C476.077 476.031 475.835 476.375 475.644 476.761C475.459 477.14 475.353 477.512 475.326 477.875L473.933 477.483C473.991 476.98 474.157 476.479 474.433 475.979C474.708 475.466 475.053 474.995 475.468 474.566C476.221 473.787 476.989 473.368 477.774 473.309C478.558 473.236 479.339 473.576 480.117 474.329L483.268 477.374L482.12 478.562ZM480.556 480.321C480.166 480.724 479.759 481.011 479.332 481.183C478.9 481.349 478.481 481.399 478.078 481.333C477.674 481.254 477.317 481.066 477.009 480.767C476.707 480.475 476.503 480.142 476.398 479.768C476.299 479.387 476.338 478.963 476.515 478.498C476.692 478.033 477.043 477.529 477.568 476.986L479.077 475.425L479.912 476.233L478.491 477.703C478.076 478.132 477.868 478.489 477.866 478.773C477.857 479.05 477.954 479.286 478.155 479.481C478.383 479.701 478.652 479.786 478.961 479.734C479.271 479.683 479.581 479.496 479.893 479.174C480.191 478.865 480.386 478.522 480.479 478.144C480.578 477.76 480.542 477.381 480.371 477.007L481.33 477.526C481.529 477.952 481.563 478.406 481.432 478.89C481.308 479.368 481.016 479.845 480.556 480.321ZM486.505 474.167C486.07 474.616 485.595 474.994 485.079 475.3C484.562 475.592 484.103 475.778 483.702 475.858L483.213 474.45C483.601 474.358 484.007 474.193 484.432 473.954C484.857 473.716 485.232 473.429 485.556 473.094C485.939 472.698 486.161 472.361 486.222 472.083C486.29 471.798 486.233 471.567 486.052 471.392C485.904 471.25 485.735 471.203 485.545 471.252C485.348 471.295 485.135 471.395 484.906 471.55C484.678 471.706 484.43 471.888 484.163 472.098C483.902 472.3 483.629 472.496 483.341 472.686C483.054 472.862 482.762 472.996 482.467 473.087C482.165 473.171 481.861 473.183 481.557 473.122C481.252 473.061 480.945 472.881 480.637 472.583C480.294 472.252 480.093 471.869 480.033 471.435C479.966 470.994 480.034 470.534 480.237 470.055C480.44 469.563 480.775 469.076 481.242 468.593C481.593 468.23 481.987 467.903 482.424 467.612C482.861 467.321 483.27 467.126 483.652 467.027L484.141 468.435C483.74 468.54 483.386 468.698 483.079 468.908C482.773 469.105 482.496 469.33 482.249 469.585C481.88 469.968 481.661 470.308 481.593 470.606C481.532 470.898 481.589 471.128 481.763 471.297C481.924 471.452 482.104 471.509 482.301 471.466C482.498 471.423 482.714 471.327 482.949 471.178C483.185 471.028 483.432 470.853 483.693 470.65C483.953 470.434 484.227 470.238 484.515 470.062C484.802 469.885 485.094 469.752 485.389 469.661C485.684 469.557 485.984 469.535 486.289 469.596C486.594 469.657 486.897 469.834 487.199 470.125C487.535 470.45 487.729 470.833 487.783 471.274C487.843 471.709 487.768 472.175 487.559 472.674C487.343 473.166 486.992 473.664 486.505 474.167ZM487.35 462.275C487.765 461.845 488.219 461.544 488.711 461.371C489.209 461.191 489.727 461.172 490.264 461.315C490.795 461.451 491.332 461.782 491.875 462.307L494.955 465.285L493.739 466.543L490.82 463.721C490.343 463.261 489.877 463.031 489.422 463.032C488.973 463.026 488.554 463.225 488.165 463.627C487.879 463.923 487.687 464.243 487.587 464.588C487.487 464.933 487.496 465.286 487.615 465.647C487.733 465.994 487.973 466.344 488.335 466.694L491.053 469.321L489.837 470.579L482.368 463.359L483.584 462.101L487.128 465.526L486.422 465.37C486.261 464.851 486.262 464.326 486.425 463.796C486.587 463.252 486.896 462.745 487.35 462.275ZM499.449 460.777C499.008 461.234 498.515 461.542 497.969 461.703C497.424 461.864 496.85 461.854 496.246 461.673C495.642 461.479 495.028 461.08 494.404 460.477C493.773 459.867 493.357 459.263 493.156 458.666C492.961 458.062 492.938 457.488 493.087 456.945C493.236 456.388 493.521 455.891 493.943 455.455C494.455 454.925 495.02 454.569 495.638 454.387C496.262 454.198 496.892 454.184 497.528 454.345C498.171 454.499 498.771 454.845 499.328 455.383C499.885 455.922 500.251 456.51 500.427 457.147C500.609 457.778 500.62 458.411 500.459 459.047C500.298 459.671 499.961 460.247 499.449 460.777ZM496.498 463.689L489.029 456.469L490.246 455.21L493.588 458.441L494.92 459.923L496.388 461.265L497.656 462.491L496.498 463.689ZM498.236 459.877C498.527 459.575 498.72 459.242 498.813 458.877C498.912 458.506 498.902 458.127 498.784 457.739C498.665 457.352 498.434 456.993 498.092 456.662C497.743 456.324 497.376 456.106 496.992 456.007C496.601 455.902 496.221 455.905 495.853 456.017C495.492 456.122 495.166 456.325 494.874 456.627C494.582 456.929 494.386 457.266 494.287 457.637C494.187 458.008 494.197 458.388 494.316 458.775C494.428 459.156 494.659 459.515 495.007 459.853C495.35 460.183 495.716 460.402 496.108 460.507C496.499 460.613 496.878 460.61 497.246 460.498C497.614 460.386 497.944 460.179 498.236 459.877ZM506.304 453.546L505.217 452.495L504.917 452.341L503.015 450.502C502.646 450.145 502.253 449.98 501.838 450.007C501.416 450.028 500.987 450.263 500.553 450.712C500.261 451.014 500.019 451.358 499.828 451.744C499.643 452.124 499.537 452.495 499.51 452.859L498.117 452.466C498.175 451.964 498.341 451.462 498.617 450.963C498.892 450.45 499.237 449.979 499.652 449.549C500.404 448.771 501.173 448.352 501.957 448.292C502.742 448.22 503.523 448.56 504.301 449.312L507.452 452.358L506.304 453.546ZM504.739 455.305C504.35 455.707 503.943 455.995 503.516 456.167C503.084 456.333 502.665 456.383 502.262 456.317C501.858 456.238 501.501 456.049 501.193 455.751C500.891 455.459 500.687 455.126 500.582 454.751C500.483 454.37 500.522 453.947 500.699 453.482C500.876 453.017 501.227 452.513 501.752 451.969L503.261 450.409L504.096 451.217L502.675 452.686C502.26 453.116 502.052 453.472 502.05 453.756C502.041 454.033 502.138 454.269 502.339 454.464C502.567 454.685 502.836 454.769 503.145 454.718C503.455 454.666 503.765 454.48 504.076 454.157C504.375 453.849 504.57 453.506 504.663 453.128C504.762 452.743 504.726 452.364 504.555 451.991L505.514 452.509C505.713 452.935 505.747 453.39 505.616 453.874C505.492 454.351 505.2 454.828 504.739 455.305ZM511.477 448.335C510.932 448.899 510.328 449.289 509.665 449.505C509.002 449.707 508.342 449.732 507.686 449.578C507.03 449.424 506.437 449.091 505.907 448.578C505.37 448.059 505.017 447.478 504.848 446.834C504.672 446.183 504.677 445.526 504.864 444.863C505.057 444.193 505.426 443.576 505.971 443.013C506.477 442.489 507.029 442.133 507.626 441.945C508.223 441.744 508.827 441.737 509.438 441.924L509.067 443.435C508.657 443.35 508.277 443.366 507.929 443.484C507.588 443.596 507.288 443.786 507.028 444.054C506.73 444.363 506.528 444.706 506.422 445.084C506.316 445.462 506.323 445.845 506.441 446.232C506.553 446.613 506.784 446.972 507.133 447.31C507.482 447.647 507.852 447.869 508.243 447.974C508.628 448.073 509.007 448.064 509.381 447.945C509.755 447.826 510.092 447.613 510.39 447.304C510.65 447.036 510.829 446.729 510.929 446.384C511.035 446.033 511.039 445.653 510.939 445.245L512.437 444.824C512.639 445.421 512.656 446.028 512.488 446.645C512.32 447.248 511.983 447.812 511.477 448.335ZM514.424 442.749L512.873 441.191L512.99 435.872L514.45 434.363L514.539 439.064L514.451 440.264L514.424 442.749ZM514.629 444.934L507.16 437.714L508.377 436.455L515.845 443.676L514.629 444.934ZM518.55 440.877L514.227 440.495L513.989 438.727L520.029 439.347L518.55 440.877Z" fill="#7D7D7D"/>
<rect x="255.125" y="78.4443" width="46.2067" height="46.2067" rx="15.4762" transform="rotate(-45.9695 255.125 78.4443)" fill="#151C30"/>
<rect x="255.832" y="78.4324" width="45.2067" height="45.2067" rx="14.9762" transform="rotate(-45.9695 255.832 78.4324)" stroke="#C68C43"/>
<path d="M296.195 77.726C296.024 79.1906 295.238 80.3126 295.238 80.3126C295.403 79.1409 295.281 76.453 293.012 75.7494C290.742 75.0459 286.908 77.0337 286.908 77.0337C286.908 77.0337 285.054 80.9305 285.831 83.1768C286.609 85.4231 289.301 85.4523 290.467 85.2478C290.467 85.2478 289.372 86.0707 287.914 86.2914C287.914 86.2914 287.729 90.1059 289.597 92.3704C289.597 92.3704 290.027 89.1368 294.569 84.4385C299.111 79.7401 302.328 79.2009 302.328 79.2009C300.002 77.4119 296.195 77.726 296.195 77.726ZM292.377 81.6522L292.616 82.5496L291.711 82.3405C289.4 84.398 287.354 83.2003 287.354 83.2003L287.777 81.4756L286.964 81.2681L290.362 80.3754L291.142 76.9465L291.377 77.7521L293.086 77.2708C293.086 77.2708 294.353 79.274 292.375 81.6537L292.377 81.6522Z" fill="white"/>
<path d="M287.053 65.4256C287.053 65.4256 289.158 63.6999 290.992 63.6799C290.992 63.6799 286.921 62.5213 283.985 65.5583C281.05 68.5953 281.312 71.6259 281.312 71.6259C281.312 71.6259 278.275 71.4658 275.339 74.5023C272.404 77.5388 273.699 81.5685 273.699 81.5685C273.655 79.7366 275.31 77.5731 275.31 77.5731C274.272 79.5523 274.966 82.5204 277.185 84.6404C279.404 86.7604 281.809 87.4351 282.826 86.7891C283.843 86.1431 283.47 84.911 283.496 82.5028C283.522 80.0946 284.573 78.6335 284.573 78.6335C282.776 79.3513 282.294 80.5156 281.753 81.6215C281.212 82.7275 280.642 83.5073 279.187 83.0415C277.732 82.5757 277.545 80.6054 277.545 80.6054C277.124 81.2082 277.058 82.1077 277.058 82.1077C276.389 80.5427 276.665 79.6393 277.581 78.6208C278.497 77.6023 279.194 77.4029 280.773 76.934C282.353 76.465 283.901 76.2167 283.978 75.2577C284.055 74.2987 281.803 73.6598 281.803 73.6598C282.744 73.4461 283.757 73.9893 283.757 73.9893C283.757 73.9893 283.18 72.9951 283.362 72.0466C283.362 72.0466 284.075 74.2783 285.033 74.1668C285.99 74.0554 286.183 72.5016 286.6 70.9073C287.016 69.313 287.19 68.6099 288.177 67.6593C289.165 66.7088 290.061 66.4061 291.645 67.0218C291.645 67.0218 290.747 67.1186 290.16 67.5598C290.16 67.5598 292.135 67.6787 292.65 69.1178C293.165 70.5569 292.405 71.1525 291.318 71.7305C290.23 72.3086 289.083 72.8302 288.426 74.6506C288.426 74.6506 289.855 73.553 292.257 73.4431C294.66 73.3332 295.904 73.6632 296.519 72.6282C297.133 71.5931 296.376 69.2121 294.18 67.0627C291.985 64.9134 288.996 64.321 287.053 65.4256Z" fill="white"/>
<path d="M283.989 65.5545C281.051 68.5945 281.323 71.6391 281.323 71.6391C281.323 71.6391 278.272 71.469 275.333 74.509C273.145 76.7723 273.314 79.5937 273.542 80.8857C273.525 78.5798 274.367 73.2767 282.351 72.6298C282.728 64.6275 288 63.6069 290.305 63.5458C289.003 63.3644 286.177 63.2912 283.989 65.5545Z" fill="#C4C4C4"/>
<path d="M281.699 81.6572C281.158 82.7667 280.586 83.5481 279.126 83.0796C277.666 82.611 277.477 80.6343 277.477 80.6343C277.138 81.1183 277.029 81.793 277 82.0424C277.299 83.1545 278.303 84.6923 281.386 85.7395C281.386 85.7395 280.306 86.3508 278.184 85.5871C280.075 86.9945 281.918 87.3871 282.778 86.8393C283.795 86.1888 283.423 84.9558 283.447 82.5399C283.471 80.124 284.524 78.6591 284.524 78.6591C282.724 79.3805 282.242 80.5482 281.699 81.6572Z" fill="#C4C4C4"/>
<path d="M295.343 71.2986C294.179 68.2196 292.586 67.2811 291.465 67.0306C291.182 67.0792 290.57 67.2161 290.13 67.5464C290.13 67.5464 292.11 67.6676 292.629 69.111C293.147 70.5544 292.385 71.1508 291.295 71.7292C290.206 72.3077 289.056 72.8295 288.399 74.654C288.399 74.654 289.831 73.555 292.239 73.4472C294.648 73.3395 295.896 73.6717 296.511 72.6345C297.032 71.7502 296.562 69.8916 295.055 68.0309C295.932 70.1728 295.343 71.2986 295.343 71.2986Z" fill="#C4C4C4"/>
<path d="M302.299 79.1797C300.985 79.3758 297.921 80.1496 294.691 83.2254C290.401 87.3064 290.716 88.3697 289.646 88.2646C288.576 88.1595 290.475 85.2557 290.475 85.2557C290.475 85.2557 289.379 86.0791 287.924 86.3017C287.924 86.3017 287.734 90.111 289.595 92.3694C289.595 92.3694 290.029 89.1398 294.571 84.4414C299.113 79.7431 302.326 79.1998 302.326 79.1998C302.319 79.194 302.308 79.1869 302.299 79.1797Z" fill="#C4C4C4"/>
<g style="mix-blend-mode:soft-light">
<mask id="mask1_6456_58034" style="mask-type:alpha" maskUnits="userSpaceOnUse" x="261" y="51" width="54" height="54">
<rect x="255.125" y="78.4443" width="46.2067" height="46.2067" rx="15.4762" transform="rotate(-45.9695 255.125 78.4443)" fill="#101520"/>
</mask>
<g mask="url(#mask1_6456_58034)">
<g filter="url(#filter5_f_6456_58034)">
<path d="M288.566 119.705L287.173 37.3806" stroke="white" stroke-width="0.52"/>
</g>
<g filter="url(#filter6_f_6456_58034)">
<path d="M288.764 131.401L286.975 25.6866" stroke="white" stroke-width="1.3"/>
</g>
<g filter="url(#filter7_f_6456_58034)">
<path d="M288.764 131.401L286.975 25.6866" stroke="white" stroke-width="1.3"/>
</g>
<g opacity="0.5" filter="url(#filter8_f_6456_58034)">
<path d="M275.796 120.216L274.403 37.8913" stroke="white" stroke-width="0.52"/>
</g>
<g opacity="0.5" filter="url(#filter9_f_6456_58034)">
<path d="M301.667 123.438L300.274 41.1135" stroke="white" stroke-width="0.26"/>
</g>
</g>
</g>
<path d="M326.915 452.663C327.33 453.381 294.867 469.891 294.867 469.891C279.521 467.21 264.546 462.831 250.215 456.834L291.076 414.566L326.915 452.663Z" fill="url(#paint16_linear_6456_58034)"/>
<path d="M258.012 448.771C258.012 448.771 287.604 458.292 291.55 458.585L312.747 437.77L311.314 436.384C311.314 436.384 292.575 456.09 290.677 456.403C288.78 456.717 259.226 447.515 259.226 447.515L258.012 448.771Z" fill="#394773"/>
<path d="M258.012 448.771L291.55 458.585C285.536 457.674 279.592 456.384 273.751 454.725C266.091 452.356 258.012 448.771 258.012 448.771Z" fill="white"/>
<g style="mix-blend-mode:soft-light" opacity="0.5">
<path d="M262.295 447.065C268.682 450.034 285.861 454.105 287.163 452.758C288.465 451.411 303.365 435.46 302.533 431.873C301.701 428.287 292.162 416.636 290.733 417.684C289.304 418.732 259.369 445.645 262.295 447.065Z" fill="white"/>
</g>
<g style="mix-blend-mode:soft-light" opacity="0.5">
<path d="M252.376 456.249C259.043 458.785 276.416 464.734 277.563 463.835C278.709 462.936 282.5 459.875 281.067 458.489C278.773 456.271 259.174 449.826 257.462 450.988C255.749 452.15 250.754 455.631 252.376 456.249Z" fill="white"/>
</g>
<path style="mix-blend-mode:multiply" opacity="0.5" d="M280.109 464.322C281.421 465.942 294.528 467.697 296.053 467.375C297.578 467.053 321.953 453.888 322.29 451.819C322.626 449.75 307.488 433.813 306.019 434.4C304.55 434.987 278.689 462.527 280.109 464.322Z" fill="url(#paint17_linear_6456_58034)"/>
<path style="mix-blend-mode:multiply" opacity="0.5" d="M277.349 428.766C290.793 437.811 303.298 448.167 314.686 459.683L326.914 452.664L291.039 414.461L277.349 428.766Z" fill="url(#paint18_linear_6456_58034)"/>
<path d="M453.67 321.547C454.42 321.919 469.874 288.861 469.874 288.861C466.668 273.581 461.767 258.732 455.26 244.589L414.328 286.93L453.67 321.547Z" fill="url(#paint19_linear_6456_58034)"/>
<path d="M447.465 252.794C447.465 252.794 457.964 282.066 458.408 285.981L438.304 307.889L436.87 306.503C436.87 306.503 455.949 287.09 456.198 285.183C456.447 283.276 446.251 254.05 446.251 254.05L447.465 252.794Z" fill="#394773"/>
<path d="M447.466 252.794L458.409 285.981C457.295 280.006 455.799 274.114 453.931 268.341C451.304 260.766 447.466 252.794 447.466 252.794Z" fill="white"/>
<g style="mix-blend-mode:soft-light" opacity="0.5">
<path d="M445.906 257.133C449.108 263.397 453.722 280.429 452.402 281.794C451.082 283.16 435.679 298.555 432.049 297.862C428.419 297.17 416.487 287.995 417.469 286.549C418.45 285.104 444.388 254.256 445.906 257.133Z" fill="white"/>
</g>
<g style="mix-blend-mode:soft-light" opacity="0.5">
<path d="M454.729 246.928C457.489 253.505 464.041 270.649 463.181 271.825C462.321 273.002 459.373 276.912 457.886 275.581C455.592 273.363 448.488 253.994 449.591 252.243C450.694 250.492 454.022 245.364 454.729 246.928Z" fill="white"/>
</g>
<path style="mix-blend-mode:multiply" opacity="0.5" d="M463.739 274.371C465.42 275.609 467.6 288.668 467.347 290.185C467.094 291.701 454.762 316.508 452.67 316.951C450.578 317.394 434.261 302.676 434.728 301.261C435.194 299.846 461.914 272.995 463.739 274.371Z" fill="url(#paint20_linear_6456_58034)"/>
<path style="mix-blend-mode:multiply" opacity="0.5" d="M428.124 272.799C437.619 285.928 448.392 298.076 460.287 309.068L453.668 321.545L414.273 286.982L428.124 272.799Z" fill="url(#paint21_linear_6456_58034)"/>
<path d="M266.118 266.518L238.568 373.737L332.405 464.451L438.613 433.272L466.181 326.07L372.344 235.356L266.118 266.518Z" fill="url(#paint22_linear_6456_58034)"/>
<path d="M337.381 445.068L257.756 368.093L280.349 280.274L367.335 254.741L446.96 331.716L424.384 419.516L337.381 445.068Z" fill="url(#paint23_linear_6456_58034)"/>
<path d="M339.024 438.594L264.166 366.227L285.077 284.847L365.686 261.213L440.544 333.58L419.65 414.941L339.024 438.594Z" fill="#736FA8"/>
<g style="mix-blend-mode:soft-light" opacity="0.5">
<path d="M240.474 372.233C242.173 375.531 252.383 371.175 256.27 364.931C260.156 358.687 279.128 282.792 277.745 279.201C274.58 275.452 271.044 272.034 267.19 268.997C265.553 270.69 239.66 370.636 240.474 372.233Z" fill="white"/>
</g>
<g style="mix-blend-mode:soft-light" opacity="0.5">
<path d="M370.587 237.637C373.941 239.225 369.932 249.576 363.806 253.69C357.679 257.803 282.676 278.581 278.852 278.054C276.86 277.783 267.187 268.996 268.296 267.849C269.95 266.138 368.963 236.878 370.587 237.637Z" fill="white"/>
</g>
<path style="mix-blend-mode:multiply" opacity="0.5" d="M293.771 423.901C296.127 427.094 330.557 462.561 332.374 461.219C334.192 459.877 336.388 447.491 334.409 444.769C332.43 442.046 308.269 418.407 305.394 416.719C302.519 415.031 289.833 418.614 293.771 423.901Z" fill="url(#paint24_linear_6456_58034)"/>
<path style="mix-blend-mode:multiply" opacity="0.5" d="M424.082 289.104C427.336 291.369 463.965 324.561 462.685 326.422C461.405 328.284 449.101 330.898 446.313 329.013C443.525 327.127 419.082 303.78 417.298 300.963C415.514 298.147 418.648 285.365 424.082 289.104Z" fill="url(#paint25_linear_6456_58034)"/>
<path style="mix-blend-mode:multiply" opacity="0.5" d="M335.014 460.424C337.042 460.765 433.569 433.503 434.467 432.575C434.924 432.102 426.562 422.82 425.504 421.798C422.691 419.078 340.623 446.338 339.422 447.043C337.655 448.081 332.968 460.066 335.014 460.424Z" fill="url(#paint26_linear_6456_58034)"/>
<path style="mix-blend-mode:multiply" opacity="0.5" d="M463.282 329.64C463.691 331.656 438.477 430.075 437.561 431.022C433.459 427.507 429.641 423.675 426.142 419.56C426.088 415.634 448.109 335.151 448.738 333.962C449.716 332.161 462.872 327.59 463.282 329.64Z" fill="url(#paint27_linear_6456_58034)"/>
<path style="mix-blend-mode:multiply" opacity="0.5" d="M339.361 434.269C315.107 417.865 315.734 414.598 332.24 379.986C348.747 345.374 368.892 279.311 382.497 284.963C396.102 290.614 436.521 332.258 437.881 335.263C439.24 338.268 421.02 408.974 417.449 412.811C413.878 416.649 342.096 436.103 339.361 434.269Z" fill="url(#paint28_linear_6456_58034)"/>
<g style="mix-blend-mode:soft-light" opacity="0.3">
<path d="M365.118 262.844C364.005 263.529 291.139 284.893 288.819 287.687C286.5 290.48 269.811 338.192 268.188 362.823C267.734 369.426 314.843 412.362 317.221 408.217C319.599 404.071 303.497 383.681 328.597 336.916C353.349 291.049 377.264 283.848 382.695 281.421C384.163 280.692 367.661 261.217 365.118 262.844Z" fill="white"/>
</g>
<path style="mix-blend-mode:multiply" opacity="0.5" d="M337.38 445.067L257.755 368.092L280.295 280.222L367.334 254.74L446.959 331.715L440.528 333.562C440.528 333.562 371.58 266.415 367.95 265.83C354.929 263.807 295.619 287.465 291.064 296.373C286.509 305.281 266.028 357.884 268.54 368.412C269.407 371.962 339.026 438.594 339.026 438.594L337.38 445.067Z" fill="url(#paint29_linear_6456_58034)"/>
<g style="mix-blend-mode:soft-light" opacity="0.2">
<path d="M333.71 311.363C353.693 303.388 374.372 282.213 375.036 279.087C375.7 275.961 368.043 266.058 363.581 267.661C359.119 269.264 322.973 281.227 318.158 288.933C313.343 296.639 330.117 312.749 333.71 311.363Z" fill="white"/>
</g>
<path d="M267.153 401.371C266.938 401.163 241.264 375.181 240.561 372.142C239.858 369.103 266.987 270.245 268.298 267.85C269.608 265.454 306.901 254.564 306.901 254.564L266.118 266.518L238.675 373.805L267.153 401.371Z" fill="url(#paint30_linear_6456_58034)"/>
<path d="M318.332 269.136C318.332 269.136 364.745 255.195 367.068 256.63C369.39 258.065 421.494 307.132 421.494 307.132C421.494 307.132 369.803 256.598 367.317 254.758C364.831 252.919 318.332 269.136 318.332 269.136Z" fill="white"/>
<path d="M301.392 410.279C301.392 410.279 257.413 369.7 256.472 367.804C255.531 365.908 280.347 280.274 280.347 280.274C280.347 280.274 258.238 364.758 259.101 367.775C259.963 370.792 301.392 410.279 301.392 410.279Z" fill="white"/>
<path style="mix-blend-mode:multiply" d="M332.407 464.451L438.597 433.289L466.147 326.106L444.767 305.437C444.767 305.437 462.86 324.055 463.817 327.727C464.775 331.399 440.393 427.63 437.564 431.023C434.735 434.415 336.452 461.952 332.377 461.218C328.303 460.483 284.574 418.21 284.574 418.21L332.407 464.451Z" fill="url(#paint31_linear_6456_58034)"/>
<path d="M317.056 425.42C317.056 425.42 335.214 443.361 337.758 443.814C340.303 444.266 381.581 432.158 381.581 432.158C381.581 432.158 338.604 446.955 337.372 446.293C336.141 445.63 317.056 425.42 317.056 425.42Z" fill="white"/>
<g style="mix-blend-mode:soft-light" opacity="0.5">
<path d="M376.731 437.822C374.76 439.86 371.492 447.759 373.998 447.822C376.503 447.884 429.642 433.297 434.842 430.823C436.54 430 428.424 422.4 424.207 421.598C422.41 421.269 382.837 431.469 376.731 437.822Z" fill="white"/>
</g>
<path d="M305.147 257.131C303.994 259.22 316.243 260.321 319.404 258.271C322.565 256.22 324.221 250.813 321.752 250.857C319.283 250.9 306.965 253.888 305.147 257.131Z" fill="white"/>
<path d="M323.871 251.426C322.105 254.579 337.471 260.454 341.325 260.341C345.178 260.228 365.706 245.879 362.112 243.213C358.517 240.548 326.37 246.976 323.871 251.426Z" fill="white"/>
<path style="mix-blend-mode:multiply" opacity="0.5" d="M439.927 372.809C444.882 380.487 448.892 383.906 449.737 383.103C450.583 382.301 461.872 334.687 461.911 333.14C461.951 331.593 451.298 332.248 449.387 334.942C447.475 337.637 438.053 369.942 439.927 372.809Z" fill="url(#paint32_linear_6456_58034)"/>
<path style="mix-blend-mode:multiply" opacity="0.5" d="M263.136 366.182C260.281 364.832 258.135 367.088 260.343 369.61C262.55 372.131 306.805 415.618 307.739 414.795C308.673 413.972 308.299 409.984 307.348 408.923C306.397 407.863 264.509 366.841 263.136 366.182Z" fill="url(#paint33_linear_6456_58034)"/>
<path style="mix-blend-mode:multiply" opacity="0.5" d="M365.911 260.443C366.631 261.384 408.378 302.587 408.923 302.023C409.469 301.459 409.89 297.042 408.869 296.054C407.847 295.067 367.41 257.207 366.948 257.29C366.487 257.372 365.3 259.676 365.911 260.443Z" fill="url(#paint34_linear_6456_58034)"/>
<path style="mix-blend-mode:multiply" opacity="0.5" d="M284.399 284.189C285.223 284.986 275.334 322.614 274.789 323.179C274.243 323.743 270.745 319.974 271 318.706C271.255 317.438 280.065 280.351 280.707 280.62C282.015 281.726 283.249 282.918 284.399 284.189Z" fill="url(#paint35_linear_6456_58034)"/>
<path d="M444.008 341.151C442.512 342.699 440.384 350.818 442.241 351.838C444.097 352.858 448.825 351.16 448.774 349.491C448.723 347.822 445.03 340.167 444.008 341.151Z" fill="#394773"/>
<path d="M447 340.136C446.956 341.15 447.55 343.978 449.466 343.682C451.382 343.386 452.327 337.961 451.207 337.828C450.087 337.696 447.024 338.856 447 340.136Z" fill="#394773"/>
<path style="mix-blend-mode:multiply" opacity="0.5" d="M441.578 349.545C442.12 352.57 448.352 348.311 447.569 346.216C446.786 344.121 444.795 340.013 444.094 341.061C442.749 343.72 441.896 346.595 441.578 349.545Z" fill="url(#paint36_linear_6456_58034)"/>
<path d="M441.827 351.404C443.186 352.007 444.722 352.108 446.164 351.688C448.077 351.143 448.937 349.932 448.698 349.067C448.759 349.724 448.594 350.385 448.231 350.943C447.868 351.501 447.329 351.922 446.701 352.137C443.126 353.576 441.827 351.404 441.827 351.404Z" fill="#DAE1EF"/>
<path style="mix-blend-mode:multiply" opacity="0.5" d="M447.601 339.588C447.712 342.019 450.455 342.875 450.999 342.098C451.543 341.32 452.188 338.035 451.209 337.828C450.23 337.621 447.579 339.073 447.601 339.588Z" fill="url(#paint37_linear_6456_58034)"/>
<path d="M447.002 340.137C447.002 340.137 447.416 342.685 448.699 343.08C449.981 343.475 450.597 342.838 450.597 342.838C450.597 342.838 450.031 345.037 448.817 344.392C446.711 343.236 447.002 340.137 447.002 340.137Z" fill="#DAE1EF"/>
<path d="M277.036 290.873C272.549 293.578 271.923 298.96 272.167 302.365C272.412 305.771 274.402 305.899 276.032 303.496C277.662 301.092 278.979 289.688 277.036 290.873Z" fill="#394773"/>
<path style="mix-blend-mode:multiply" opacity="0.5" d="M277.036 290.873C275.671 291.821 274.53 293.059 273.698 294.497C272.866 295.935 272.363 297.536 272.227 299.183C272.137 301.033 276.511 301.458 277.293 299.609C278.076 297.759 278.539 290.072 277.036 290.873Z" fill="url(#paint38_linear_6456_58034)"/>
<path d="M272.131 300.502C272.131 300.502 270.79 307.341 272.574 308.185C274.358 309.029 276.742 301.65 276.742 301.65C276.742 301.65 275.051 305.085 273.323 304.577C271.595 304.069 272.131 300.502 272.131 300.502Z" fill="white"/>
<path d="M340.257 443.166C338.823 445.618 348.485 443.585 350.038 442.409C351.59 441.233 346.758 439.238 345.515 439.305C343.466 440.121 341.654 441.451 340.257 443.166Z" fill="white"/>
<path d="M396.5 392.663L286.443 424.453C288.638 429.845 291.572 434.896 295.16 439.465L307.425 442.306L415.389 410.924L443.101 301.959L439.424 290.234C435.182 286.38 430.284 283.313 424.953 281.175L396.5 392.663Z" fill="url(#paint39_linear_6456_58034)"/>
<path d="M307.425 442.308L295.16 439.466L410.658 406.351L439.424 290.235L443.101 301.96L415.39 410.925L307.425 442.308Z" fill="url(#paint40_linear_6456_58034)"/>
<path style="mix-blend-mode:multiply" opacity="0.5" d="M295.16 439.466L307.425 442.308L309.091 441.875L311.385 444.093C311.385 444.093 317.281 442.046 329.149 438.306C329.539 438.189 338.936 438.224 338.936 438.224C338.936 438.224 417.877 416.78 419.654 414.942C421.924 412.593 439.651 332.678 439.651 332.678C439.651 332.678 440.191 325.664 440.346 325.074L445.914 306.475L442.724 303.391L443.101 301.96L439.424 290.235L410.658 406.351L295.16 439.466Z" fill="url(#paint41_linear_6456_58034)"/>
<path style="mix-blend-mode:multiply" opacity="0.5" d="M396.501 392.665L410.659 406.351L439.424 290.236C435.125 286.458 430.24 283.399 424.953 281.177L396.501 392.665Z" fill="url(#paint42_linear_6456_58034)"/>
<g style="mix-blend-mode:soft-light" opacity="0.5">
<path d="M293.097 423.775C291.778 425.14 304.769 435.551 311.505 434.034C322.248 431.636 383.728 414.196 386.28 411.627C388.04 409.807 377.827 400.145 376.528 399.946C374.055 399.527 295.068 421.736 293.097 423.775Z" fill="white"/>
</g>
<g style="mix-blend-mode:soft-light" opacity="0.5">
<path d="M405.695 358.838C405.746 360.542 416.981 371.192 418.084 369.406C423.941 351.859 428.527 333.931 431.806 315.762C434.377 297.752 425.73 286.506 423.64 289.098C423.425 288.961 405.628 355.321 405.695 358.838Z" fill="white"/>
</g>
<path d="M354.547 422.503C354.547 422.503 407.792 407.843 409.939 405.622C412.086 403.401 422.121 360.349 422.121 360.349C422.121 360.349 412.344 406.326 411.587 407.109C410.83 407.892 354.547 422.503 354.547 422.503Z" fill="white"/>
<path d="M307.66 306.785L279.63 417.871C274.168 415.857 269.02 413.096 264.332 409.668L261.077 397.506L288.788 288.541L396.753 257.159L408.595 260.437C412.59 264.547 415.82 269.339 418.139 274.593L307.66 306.785Z" fill="url(#paint43_linear_6456_58034)"/>
<path d="M261.077 397.506L264.332 409.668L293.502 293.098L408.595 260.437L396.753 257.159L288.788 288.541L261.077 397.506Z" fill="url(#paint44_linear_6456_58034)"/>
<path style="mix-blend-mode:multiply" opacity="0.5" d="M307.662 306.783L293.504 293.097L408.598 260.436C412.519 264.605 415.741 269.384 418.141 274.592L307.662 306.783Z" fill="url(#paint45_linear_6456_58034)"/>
<g style="mix-blend-mode:soft-light" opacity="0.5">
<path d="M280.068 411.179C278.748 412.544 267.922 399.93 269.192 393.129C271.225 382.311 286.575 320.276 289.073 317.656C290.833 315.835 300.817 325.699 301.078 327.007C301.58 329.464 282.039 409.14 280.068 411.179Z" fill="white"/>
</g>
<g style="mix-blend-mode:soft-light" opacity="0.5">
<path d="M341.175 296.467C339.47 296.474 328.446 285.606 330.212 284.46C347.544 277.991 365.308 272.801 383.361 268.932C401.255 265.735 412.788 273.997 410.268 276.173C410.394 276.366 344.782 296.502 341.175 296.467Z" fill="white"/>
</g>
<path d="M279.277 349.738C279.277 349.738 292.145 296.044 294.292 293.823C296.439 291.602 339.109 280.1 339.109 280.1C339.109 280.1 293.489 291.427 292.732 292.209C291.975 292.992 279.277 349.738 279.277 349.738Z" fill="white"/>
<path style="mix-blend-mode:multiply" opacity="0.5" d="M280.542 414.311L307.663 306.783L414.918 275.524L417.687 279.187L400.388 287.255L398.517 292.49L318.501 316.696L298.148 398.968L292.698 401.307L284.575 418.209L280.542 414.311Z" fill="url(#paint46_linear_6456_58034)"/>
<path style="mix-blend-mode:multiply" opacity="0.5" d="M327.375 389.967L324.187 400.689L317.675 391.753L306.559 392.17L313.119 383.088L309.454 372.642L320.018 375.952L328.872 369.088L328.832 380.212L337.983 386.418L327.375 389.967Z" fill="url(#paint47_linear_6456_58034)"/>
<path d="M328.296 370.256L324.062 373.559L322.88 374.459L320.129 376.588L310.384 373.542L313.758 383.177L307.706 391.554L317.953 391.176L323.961 399.414L326.926 389.533L336.684 386.253L328.247 380.527L328.296 370.256Z" fill="url(#paint48_linear_6456_58034)"/>
<path style="mix-blend-mode:multiply" opacity="0.5" d="M307.672 391.591L320.938 383.463L317.936 391.195L307.672 391.591Z" fill="url(#paint49_linear_6456_58034)"/>
<path style="mix-blend-mode:multiply" opacity="0.5" d="M328.259 370.292L320.936 383.462L328.211 380.564L328.259 370.292Z" fill="url(#paint50_linear_6456_58034)"/>
<path style="mix-blend-mode:multiply" opacity="0.5" d="M326.89 389.57L320.937 383.463L323.925 399.451L326.89 389.57Z" fill="url(#paint51_linear_6456_58034)"/>
<path style="mix-blend-mode:multiply" opacity="0.5" d="M336.649 386.29L320.938 383.462L326.891 389.569L336.649 386.29Z" fill="url(#paint52_linear_6456_58034)"/>
<path style="mix-blend-mode:color-dodge" opacity="0.5" d="M310.348 373.58L320.936 383.463L320.092 376.626L310.348 373.58Z" fill="url(#paint53_linear_6456_58034)"/>
<path style="mix-blend-mode:color-dodge" opacity="0.5" d="M328.262 370.292L320.939 383.462L320.095 376.624L328.262 370.292Z" fill="url(#paint54_linear_6456_58034)"/>
<path style="mix-blend-mode:color-dodge" opacity="0.5" d="M328.262 370.292L320.939 383.462L320.095 376.624L328.262 370.292Z" fill="url(#paint55_linear_6456_58034)"/>
<path style="mix-blend-mode:color-dodge" opacity="0.5" d="M313.723 383.214L320.937 383.462L307.671 391.591L313.723 383.214Z" fill="url(#paint56_linear_6456_58034)"/>
<g style="mix-blend-mode:color-dodge" opacity="0.8">
<path d="M322.457 378.77C322.377 379.75 323.122 379.589 323.122 379.589L325.097 376.04C324.427 376.156 323.809 376.485 323.334 376.976C322.858 377.468 322.551 378.097 322.457 378.77Z" fill="white"/>
</g>
<path style="mix-blend-mode:multiply" opacity="0.5" d="M323.979 399.397C323.979 399.397 326.489 392.174 327.375 389.967L336.685 386.254L326.927 389.534L323.979 399.397Z" fill="url(#paint57_linear_6456_58034)"/>
<path style="mix-blend-mode:multiply" opacity="0.5" d="M307.672 391.591L320.938 383.463L320.22 394.283L307.672 391.591Z" fill="url(#paint58_linear_6456_58034)"/>
<path style="mix-blend-mode:multiply" opacity="0.5" d="M328.259 370.292L320.936 383.462L332.214 383.201L328.259 370.292Z" fill="url(#paint59_linear_6456_58034)"/>
<path style="mix-blend-mode:multiply" opacity="0.5" d="M323.96 399.414L320.937 383.462L336.683 386.253L329.309 391.837L323.96 399.414Z" fill="url(#paint60_linear_6456_58034)"/>
<g style="mix-blend-mode:soft-light" opacity="0.4">
<path d="M313.44 381.249C314.689 383.794 318.585 382.419 318.345 381.483C317.203 379.794 315.61 378.462 313.745 377.634C312.857 377.656 312.969 380.159 313.44 381.249Z" fill="#F7FFFF"/>
</g>
<g style="mix-blend-mode:soft-light" opacity="0.4">
<path d="M321.131 392.875C322.683 391.664 321.863 389.321 321.051 387.973C319.77 385.784 318.292 395.131 321.131 392.875Z" fill="#F7FFFF"/>
</g>
<path style="mix-blend-mode:multiply" opacity="0.5" d="M391.57 323.562L388.382 334.284L381.87 325.347L370.754 325.764L377.315 316.682L373.649 306.236L384.213 309.547L393.068 302.682L393.027 313.806L402.178 320.012L391.57 323.562Z" fill="url(#paint61_linear_6456_58034)"/>
<path d="M392.491 303.851L388.24 307.173L387.076 308.054L384.324 310.183L374.58 307.137L377.954 316.773L371.902 325.149L382.148 324.772L388.156 333.01L391.121 323.128L400.879 319.849L392.442 314.123L392.491 303.851Z" fill="url(#paint62_linear_6456_58034)"/>
<path style="mix-blend-mode:multiply" opacity="0.5" d="M371.867 325.185L385.133 317.057L382.113 324.807L371.867 325.185Z" fill="url(#paint63_linear_6456_58034)"/>
<path style="mix-blend-mode:multiply" opacity="0.5" d="M392.454 303.888L385.132 317.058L392.406 314.159L392.454 303.888Z" fill="url(#paint64_linear_6456_58034)"/>
<path style="mix-blend-mode:multiply" opacity="0.5" d="M391.085 323.166L385.132 317.058L388.12 333.047L391.085 323.166Z" fill="url(#paint65_linear_6456_58034)"/>
<path style="mix-blend-mode:multiply" opacity="0.5" d="M400.844 319.884L385.133 317.056L391.086 323.163L400.844 319.884Z" fill="url(#paint66_linear_6456_58034)"/>
<path style="mix-blend-mode:color-dodge" opacity="0.5" d="M374.543 307.172L385.131 317.056L384.287 310.219L374.543 307.172Z" fill="url(#paint67_linear_6456_58034)"/>
<path style="mix-blend-mode:color-dodge" opacity="0.5" d="M392.457 303.888L385.134 317.057L384.29 310.22L392.457 303.888Z" fill="url(#paint68_linear_6456_58034)"/>
<path style="mix-blend-mode:color-dodge" opacity="0.5" d="M392.457 303.888L385.134 317.057L384.29 310.22L392.457 303.888Z" fill="url(#paint69_linear_6456_58034)"/>
<path style="mix-blend-mode:color-dodge" opacity="0.5" d="M377.918 316.808L385.132 317.057L371.866 325.185L377.918 316.808Z" fill="url(#paint70_linear_6456_58034)"/>
<g style="mix-blend-mode:color-dodge" opacity="0.8">
<path d="M386.567 312.455C386.487 313.434 387.32 313.183 387.32 313.183L389.295 309.634C388.597 309.742 387.951 310.077 387.458 310.587C386.964 311.098 386.651 311.754 386.567 312.455Z" fill="white"/>
</g>
<path style="mix-blend-mode:multiply" opacity="0.5" d="M388.104 333.064C388.104 333.064 390.632 325.823 391.518 323.616L400.827 319.903L391.069 323.183L388.104 333.064Z" fill="url(#paint71_linear_6456_58034)"/>
<path style="mix-blend-mode:multiply" opacity="0.5" d="M371.867 325.185L385.133 317.057L384.415 327.878L371.867 325.185Z" fill="url(#paint72_linear_6456_58034)"/>
<path style="mix-blend-mode:multiply" opacity="0.5" d="M392.454 303.888L385.132 317.058L396.409 316.797L392.454 303.888Z" fill="url(#paint73_linear_6456_58034)"/>
<path style="mix-blend-mode:multiply" opacity="0.5" d="M388.155 333.01L385.132 317.058L400.878 319.849L393.504 325.433L388.155 333.01Z" fill="url(#paint74_linear_6456_58034)"/>
<g style="mix-blend-mode:soft-light" opacity="0.4">
<path d="M377.636 314.845C378.885 317.39 382.78 316.014 382.54 315.079C381.4 313.386 379.799 312.058 377.923 311.248C377.052 311.252 377.129 313.791 377.636 314.845Z" fill="#F7FFFF"/>
</g>
<g style="mix-blend-mode:soft-light" opacity="0.4">
<path d="M385.307 326.488C386.876 325.258 386.056 322.915 385.244 321.567C383.963 319.378 382.485 328.725 385.307 326.488Z" fill="#F7FFFF"/>
</g>
<path style="mix-blend-mode:multiply" opacity="0.5" d="M359.137 357.11L355.948 367.832L349.437 358.896L338.32 359.313L344.881 350.231L341.215 339.785L351.779 343.096L360.634 336.231L360.593 347.355L369.727 353.579L359.137 357.11Z" fill="url(#paint75_linear_6456_58034)"/>
<path d="M360.04 337.418L355.807 340.721L354.642 341.603L351.873 343.75L342.146 340.686L345.52 350.321L339.468 358.698L349.714 358.32L355.722 366.558L358.688 356.677L368.445 353.397L360.009 347.671L360.04 337.418Z" fill="url(#paint76_linear_6456_58034)"/>
<path style="mix-blend-mode:multiply" opacity="0.5" d="M339.434 358.733L352.7 350.605L349.68 358.356L339.434 358.733Z" fill="url(#paint77_linear_6456_58034)"/>
<path style="mix-blend-mode:multiply" opacity="0.5" d="M360.007 337.455L352.702 350.606L359.976 347.708L360.007 337.455Z" fill="url(#paint78_linear_6456_58034)"/>
<path style="mix-blend-mode:multiply" opacity="0.5" d="M358.656 356.713L352.702 350.605L355.691 366.594L358.656 356.713Z" fill="url(#paint79_linear_6456_58034)"/>
<path style="mix-blend-mode:multiply" opacity="0.5" d="M368.41 353.432L352.699 350.605L358.653 356.712L368.41 353.432Z" fill="url(#paint80_linear_6456_58034)"/>
<path style="mix-blend-mode:color-dodge" opacity="0.5" d="M342.113 340.722L352.702 350.606L351.84 343.787L342.113 340.722Z" fill="url(#paint81_linear_6456_58034)"/>
<path style="mix-blend-mode:color-dodge" opacity="0.5" d="M360.006 337.454L352.701 350.606L351.839 343.786L360.006 337.454Z" fill="url(#paint82_linear_6456_58034)"/>
<path style="mix-blend-mode:color-dodge" opacity="0.5" d="M360.006 337.454L352.701 350.606L351.839 343.786L360.006 337.454Z" fill="url(#paint83_linear_6456_58034)"/>
<path style="mix-blend-mode:color-dodge" opacity="0.5" d="M345.484 350.357L352.699 350.605L339.432 358.733L345.484 350.357Z" fill="url(#paint84_linear_6456_58034)"/>
<g style="mix-blend-mode:color-dodge" opacity="0.8">
<path d="M354.133 346.004C354.053 346.983 354.886 346.731 354.886 346.731L356.861 343.182C356.163 343.29 355.518 343.625 355.024 344.136C354.531 344.646 354.218 345.303 354.133 346.004Z" fill="white"/>
</g>
<path style="mix-blend-mode:multiply" opacity="0.5" d="M355.725 366.558C355.725 366.558 358.235 359.335 359.139 357.11L368.448 353.397L358.691 356.677L355.725 366.558Z" fill="url(#paint85_linear_6456_58034)"/>
<path style="mix-blend-mode:multiply" opacity="0.5" d="M339.434 358.733L352.7 350.605L351.981 361.426L339.434 358.733Z" fill="url(#paint86_linear_6456_58034)"/>
<path style="mix-blend-mode:multiply" opacity="0.5" d="M360.007 337.455L352.702 350.606L363.979 350.345L360.007 337.455Z" fill="url(#paint87_linear_6456_58034)"/>
<path style="mix-blend-mode:multiply" opacity="0.5" d="M355.722 366.557L352.699 350.605L368.445 353.396L361.071 358.98L355.722 366.557Z" fill="url(#paint88_linear_6456_58034)"/>
<g style="mix-blend-mode:soft-light" opacity="0.4">
<path d="M345.202 348.393C346.451 350.938 350.346 349.563 350.107 348.627C348.966 346.934 347.365 345.607 345.489 344.797C344.619 344.8 344.642 347.394 345.202 348.393Z" fill="#F7FFFF"/>
</g>
<g style="mix-blend-mode:soft-light" opacity="0.4">
<path d="M352.877 360.036C354.447 358.807 353.626 356.464 352.814 355.116C351.533 352.927 350.055 362.274 352.877 360.036Z" fill="#F7FFFF"/>
</g>
<path d="M117.547 192.632L152.151 199.556C153.819 199.89 155.543 199.353 156.726 198.129L196.008 157.495C197.191 156.271 197.67 154.53 197.28 152.873L189.189 118.524L117.547 192.632Z" fill="url(#paint89_linear_6456_58034)"/>
<path d="M154.019 162.065L156.95 169.105L149.845 166.383L148.142 168.145L158.127 171.916L159.684 170.306L155.586 160.445L154.019 162.065ZM163.201 166.668L164.777 165.037L157.731 158.226L156.155 159.856L163.201 166.668ZM162.296 153.504L159.348 156.554L166.394 163.365L167.97 161.734L166.027 159.856L167.399 158.437C169.219 156.555 169.381 154.433 167.811 152.915C166.23 151.388 164.116 151.621 162.296 153.504ZM165.983 157.243L164.699 158.572L162.253 156.207L163.537 154.879C164.5 153.882 165.44 153.817 166.215 154.566C166.98 155.306 166.946 156.247 165.983 157.243Z" fill="white"/>
<path d="M64.4718 290.987L65.873 289.538L75.2466 295.07L69.376 285.914L70.7772 284.465L77.4808 295.452L75.7042 297.29L64.4718 290.987Z" fill="white"/>
<g style="mix-blend-mode:overlay">
<g style="mix-blend-mode:color-dodge">
<path fill-rule="evenodd" clip-rule="evenodd" d="M22.217 305.635C18.2463 301.796 18.1391 295.466 21.9778 291.495L282.294 22.2164C286.133 18.2456 292.464 18.1385 296.434 21.9771L443.206 163.864C445.56 166.139 446.651 169.422 446.127 172.654L445.028 179.435C444.504 182.666 445.595 185.949 447.949 188.224L479.969 219.179L515.822 253.839C518.175 256.114 521.494 257.094 524.705 256.461L531.446 255.133C534.657 254.5 537.976 255.479 540.329 257.755L680.709 393.463C684.68 397.301 684.787 403.632 680.949 407.603L420.632 676.881C416.793 680.852 410.463 680.959 406.492 677.121L267.888 543.13C265.535 540.855 264.444 537.572 264.968 534.341L266.759 523.285C267.283 520.054 266.192 516.771 263.839 514.496L231.818 483.541L195.965 448.881C193.612 446.606 190.294 445.627 187.082 446.259L176.093 448.424C172.882 449.057 169.563 448.078 167.21 445.802L22.217 305.635Z" fill="url(#paint90_linear_6456_58034)"/>
</g>
</g>
</g>
<defs>
<filter id="filter0_f_6456_58034" x="0.140625" y="0.139648" width="702.645" height="698.816" filterUnits="userSpaceOnUse" colorInterpolationFilters="sRGB">
<feFlood floodOpacity="0" result="BackgroundImageFix"/>
<feBlend mode="normal" in="SourceGraphic" in2="BackgroundImageFix" result="shape"/>
<feGaussianBlur stdDeviation="7" result="effect1_foregroundBlur_6456_58034"/>
</filter>
<filter id="filter1_b_6456_58034" x="43.4414" y="273.537" width="392.066" height="383.776" filterUnits="userSpaceOnUse" colorInterpolationFilters="sRGB">
<feFlood floodOpacity="0" result="BackgroundImageFix"/>
<feGaussianBlur in="BackgroundImageFix" stdDeviation="13"/>
<feComposite in2="SourceAlpha" operator="in" result="effect1_backgroundBlur_6456_58034"/>
<feBlend mode="normal" in="SourceGraphic" in2="effect1_backgroundBlur_6456_58034" result="shape"/>
</filter>
<filter id="filter2_b_6456_58034" x="267.418" y="41.7817" width="392.066" height="383.776" filterUnits="userSpaceOnUse" colorInterpolationFilters="sRGB">
<feFlood floodOpacity="0" result="BackgroundImageFix"/>
<feGaussianBlur in="BackgroundImageFix" stdDeviation="13"/>
<feComposite in2="SourceAlpha" operator="in" result="effect1_backgroundBlur_6456_58034"/>
<feBlend mode="normal" in="SourceGraphic" in2="effect1_backgroundBlur_6456_58034" result="shape"/>
</filter>
<filter id="filter3_i_6456_58034" x="14.1406" y="14.1396" width="674.645" height="674.816" filterUnits="userSpaceOnUse" colorInterpolationFilters="sRGB">
<feFlood floodOpacity="0" result="BackgroundImageFix"/>
<feBlend mode="normal" in="SourceGraphic" in2="BackgroundImageFix" result="shape"/>
<feColorMatrix in="SourceAlpha" type="matrix" values="0 0 0 0 0 0 0 0 0 0 0 0 0 0 0 0 0 0 127 0" result="hardAlpha"/>
<feOffset dy="5"/>
<feGaussianBlur stdDeviation="2"/>
<feComposite in2="hardAlpha" operator="arithmetic" k2="-1" k3="1"/>
<feColorMatrix type="matrix" values="0 0 0 0 0 0 0 0 0 0 0 0 0 0 0 0 0 0 0.25 0"/>
<feBlend mode="normal" in2="shape" result="effect1_innerShadow_6456_58034"/>
</filter>
<filter id="filter4_f_6456_58034" x="181.609" y="178.23" width="340.938" height="341.36" filterUnits="userSpaceOnUse" colorInterpolationFilters="sRGB">
<feFlood floodOpacity="0" result="BackgroundImageFix"/>
<feBlend mode="normal" in="SourceGraphic" in2="BackgroundImageFix" result="shape"/>
<feGaussianBlur stdDeviation="37.5" result="effect1_foregroundBlur_6456_58034"/>
</filter>
<filter id="filter5_f_6456_58034" x="284.73" y="35.192" width="6.27816" height="86.7015" filterUnits="userSpaceOnUse" colorInterpolationFilters="sRGB">
<feFlood floodOpacity="0" result="BackgroundImageFix"/>
<feBlend mode="normal" in="SourceGraphic" in2="BackgroundImageFix" result="shape"/>
<feGaussianBlur stdDeviation="1.092" result="effect1_foregroundBlur_6456_58034"/>
</filter>
<filter id="filter6_f_6456_58034" x="284.14" y="23.4918" width="7.45784" height="110.105" filterUnits="userSpaceOnUse" colorInterpolationFilters="sRGB">
<feFlood floodOpacity="0" result="BackgroundImageFix"/>
<feBlend mode="normal" in="SourceGraphic" in2="BackgroundImageFix" result="shape"/>
<feGaussianBlur stdDeviation="1.092" result="effect1_foregroundBlur_6456_58034"/>
</filter>
<filter id="filter7_f_6456_58034" x="284.14" y="23.4918" width="7.45784" height="110.105" filterUnits="userSpaceOnUse" colorInterpolationFilters="sRGB">
<feFlood floodOpacity="0" result="BackgroundImageFix"/>
<feBlend mode="normal" in="SourceGraphic" in2="BackgroundImageFix" result="shape"/>
<feGaussianBlur stdDeviation="1.092" result="effect1_foregroundBlur_6456_58034"/>
</filter>
<filter id="filter8_f_6456_58034" x="271.961" y="35.7027" width="6.27816" height="86.7015" filterUnits="userSpaceOnUse" colorInterpolationFilters="sRGB">
<feFlood floodOpacity="0" result="BackgroundImageFix"/>
<feBlend mode="normal" in="SourceGraphic" in2="BackgroundImageFix" result="shape"/>
<feGaussianBlur stdDeviation="1.092" result="effect1_foregroundBlur_6456_58034"/>
</filter>
<filter id="filter9_f_6456_58034" x="297.961" y="38.9273" width="6.02034" height="86.6966" filterUnits="userSpaceOnUse" colorInterpolationFilters="sRGB">
<feFlood floodOpacity="0" result="BackgroundImageFix"/>
<feBlend mode="normal" in="SourceGraphic" in2="BackgroundImageFix" result="shape"/>
<feGaussianBlur stdDeviation="1.092" result="effect1_foregroundBlur_6456_58034"/>
</filter>
<linearGradient id="paint0_linear_6456_58034" x1="342.025" y1="629.631" x2="127.952" y2="235.413" gradientUnits="userSpaceOnUse">
<stop stop-color="#060913"/>
<stop offset="0.136764" stop-color="#070A16"/>
<stop offset="0.197268" stop-color="#0D142E"/>
<stop offset="0.309253" stop-color="#070B17"/>
<stop offset="0.490764" stop-color="#080C1A"/>
<stop offset="0.661458" stop-color="#0B1125"/>
<stop offset="1" stop-color="#101010"/>
</linearGradient>
<linearGradient id="paint1_linear_6456_58034" x1="405.949" y1="616.036" x2="454.308" y2="507.34" gradientUnits="userSpaceOnUse">
<stop stop-color="#EECCA2"/>
<stop offset="0.260417" stop-color="#624A2C"/>
<stop offset="0.6875" stop-color="#FFDAAB"/>
<stop offset="1" stop-color="#C68C43"/>
</linearGradient>
<linearGradient id="paint2_linear_6456_58034" x1="360.901" y1="69.4639" x2="574.974" y2="463.682" gradientUnits="userSpaceOnUse">
<stop stop-color="#060913"/>
<stop offset="0.136764" stop-color="#070A16"/>
<stop offset="0.197268" stop-color="#0D142E"/>
<stop offset="0.309253" stop-color="#070B17"/>
<stop offset="0.490764" stop-color="#080C1A"/>
<stop offset="0.661458" stop-color="#0B1125"/>
<stop offset="1" stop-color="#101010"/>
</linearGradient>
<linearGradient id="paint3_linear_6456_58034" x1="296.977" y1="83.0587" x2="248.618" y2="191.754" gradientUnits="userSpaceOnUse">
<stop stop-color="#EECCA2"/>
<stop offset="0.260417" stop-color="#624A2C"/>
<stop offset="0.6875" stop-color="#FFDAAB"/>
<stop offset="1" stop-color="#C68C43"/>
</linearGradient>
<linearGradient id="paint4_linear_6456_58034" x1="184.316" y1="53.2495" x2="437.424" y2="750.281" gradientUnits="userSpaceOnUse">
<stop stop-color="#C68C43"/>
<stop offset="0.119792" stop-color="#F5BA6E"/>
<stop offset="0.286458" stop-color="#C68C43"/>
<stop offset="0.5625" stop-color="#C68C43"/>
<stop offset="0.770833" stop-color="#EEB873"/>
<stop offset="1" stop-color="#C68C43"/>
</linearGradient>
<linearGradient id="paint5_linear_6456_58034" x1="91.8442" y1="363.059" x2="357.415" y2="88.3458" gradientUnits="userSpaceOnUse">
<stop stop-color="#8980EB"/>
<stop offset="1" stop-color="#705AB8"/>
</linearGradient>
<linearGradient id="paint6_linear_6456_58034" x1="351.309" y1="348.249" x2="63.2881" y2="69.8139" gradientUnits="userSpaceOnUse">
<stop stop-color="#86759D"/>
<stop offset="0.39" stop-color="#98ABD2"/>
<stop offset="1" stop-color="#DAE1EF"/>
</linearGradient>
<linearGradient id="paint7_linear_6456_58034" x1="104.453" y1="356.884" x2="229.783" y2="227.239" gradientUnits="userSpaceOnUse">
<stop stop-color="#705AB8"/>
<stop offset="1" stop-color="white"/>
</linearGradient>
<linearGradient id="paint8_linear_6456_58034" x1="229.765" y1="227.255" x2="350.807" y2="102.046" gradientUnits="userSpaceOnUse">
<stop stop-color="#705AB8"/>
<stop offset="1" stop-color="white"/>
</linearGradient>
<linearGradient id="paint9_linear_6456_58034" x1="212.198" y1="367.075" x2="290.553" y2="286.022" gradientUnits="userSpaceOnUse">
<stop stop-color="#705AB8"/>
<stop offset="1" stop-color="white"/>
</linearGradient>
<linearGradient id="paint10_linear_6456_58034" x1="288.42" y1="288.23" x2="364.534" y2="209.496" gradientUnits="userSpaceOnUse">
<stop stop-color="#705AB8"/>
<stop offset="1" stop-color="white"/>
</linearGradient>
<linearGradient id="paint11_linear_6456_58034" x1="134.191" y1="116.708" x2="312.949" y2="255.388" gradientUnits="userSpaceOnUse">
<stop stop-color="#BFD7FF"/>
<stop offset="1"/>
</linearGradient>
<linearGradient id="paint12_linear_6456_58034" x1="209.303" y1="207.47" x2="330.344" y2="82.261" gradientUnits="userSpaceOnUse">
<stop stop-color="#BFD7FF"/>
<stop offset="1"/>
</linearGradient>
<linearGradient id="paint13_linear_6456_58034" x1="170.97" y1="69.3893" x2="349.627" y2="207.971" gradientUnits="userSpaceOnUse">
<stop stop-color="#BFD7FF"/>
<stop offset="1"/>
</linearGradient>
<linearGradient id="paint14_linear_6456_58034" x1="62.9697" y1="208.545" x2="241.627" y2="347.127" gradientUnits="userSpaceOnUse">
<stop stop-color="#BFD7FF"/>
<stop offset="1"/>
</linearGradient>
<linearGradient id="paint15_linear_6456_58034" x1="249.994" y1="402.621" x2="402.222" y2="245.152" gradientUnits="userSpaceOnUse">
<stop stop-color="#8980EB"/>
<stop offset="1" stop-color="#705AB8"/>
</linearGradient>
<linearGradient id="paint16_linear_6456_58034" x1="308.119" y1="471.927" x2="270.914" y2="435.96" gradientUnits="userSpaceOnUse">
<stop offset="0.21" stop-color="#98ABD2"/>
<stop offset="0.49" stop-color="#72719D"/>
<stop offset="1" stop-color="#DAE1EF"/>
</linearGradient>
<linearGradient id="paint17_linear_6456_58034" x1="308.775" y1="463.827" x2="291.183" y2="447.093" gradientUnits="userSpaceOnUse">
<stop stop-color="#705AB8"/>
<stop offset="1" stop-color="white"/>
</linearGradient>
<linearGradient id="paint18_linear_6456_58034" x1="296.131" y1="446.922" x2="309.857" y2="432.724" gradientUnits="userSpaceOnUse">
<stop stop-color="#8980EB"/>
<stop offset="1" stop-color="#705AB8"/>
</linearGradient>
<linearGradient id="paint19_linear_6456_58034" x1="472.287" y1="302.11" x2="435.082" y2="266.143" gradientUnits="userSpaceOnUse">
<stop offset="0.21" stop-color="#98ABD2"/>
<stop offset="0.49" stop-color="#72719D"/>
<stop offset="1" stop-color="#DAE1EF"/>
</linearGradient>
<linearGradient id="paint20_linear_6456_58034" x1="464.214" y1="303.037" x2="446.911" y2="286.004" gradientUnits="userSpaceOnUse">
<stop stop-color="#705AB8"/>
<stop offset="1" stop-color="white"/>
</linearGradient>
<linearGradient id="paint21_linear_6456_58034" x1="446.906" y1="290.955" x2="433.18" y2="305.154" gradientUnits="userSpaceOnUse">
<stop stop-color="#8980EB"/>
<stop offset="1" stop-color="#705AB8"/>
</linearGradient>
<linearGradient id="paint22_linear_6456_58034" x1="441.57" y1="436.13" x2="293.664" y2="293.146" gradientUnits="userSpaceOnUse">
<stop offset="0.21" stop-color="#98ABD2"/>
<stop offset="0.49" stop-color="#72719D"/>
<stop offset="1" stop-color="#DAE1EF"/>
</linearGradient>
<linearGradient id="paint23_linear_6456_58034" x1="289.256" y1="288.885" x2="424.008" y2="419.152" gradientUnits="userSpaceOnUse">
<stop offset="0.21" stop-color="#98ABD2"/>
<stop offset="0.49" stop-color="#72719D"/>
<stop offset="1" stop-color="#DAE1EF"/>
</linearGradient>
<linearGradient id="paint24_linear_6456_58034" x1="354.409" y1="473.751" x2="272.866" y2="394.922" gradientUnits="userSpaceOnUse">
<stop stop-color="#705AB8"/>
<stop offset="1" stop-color="white"/>
</linearGradient>
<linearGradient id="paint25_linear_6456_58034" x1="475.956" y1="348.02" x2="394.413" y2="269.191" gradientUnits="userSpaceOnUse">
<stop stop-color="#705AB8"/>
<stop offset="1" stop-color="white"/>
</linearGradient>
<linearGradient id="paint26_linear_6456_58034" x1="336.173" y1="431.718" x2="421.76" y2="451.115" gradientUnits="userSpaceOnUse">
<stop stop-color="#705AB8"/>
<stop offset="1" stop-color="white"/>
</linearGradient>
<linearGradient id="paint27_linear_6456_58034" x1="415.044" y1="363.615" x2="507.818" y2="408.207" gradientUnits="userSpaceOnUse">
<stop stop-color="#705AB8"/>
<stop offset="1" stop-color="white"/>
</linearGradient>
<linearGradient id="paint28_linear_6456_58034" x1="428.778" y1="424.045" x2="316.034" y2="315.053" gradientUnits="userSpaceOnUse">
<stop stop-color="#705AB8"/>
<stop offset="1" stop-color="white"/>
</linearGradient>
<linearGradient id="paint29_linear_6456_58034" x1="281.465" y1="391.013" x2="391.044" y2="277.661" gradientUnits="userSpaceOnUse">
<stop stop-color="#8980EB"/>
<stop offset="1" stop-color="#705AB8"/>
</linearGradient>
<linearGradient id="paint30_linear_6456_58034" x1="233.192" y1="368.54" x2="325.754" y2="272.79" gradientUnits="userSpaceOnUse">
<stop stop-color="#728EE3"/>
<stop offset="1" stop-color="#836888"/>
</linearGradient>
<linearGradient id="paint31_linear_6456_58034" x1="328.159" y1="460.345" x2="461.935" y2="321.963" gradientUnits="userSpaceOnUse">
<stop stop-color="#728EE3"/>
<stop offset="1" stop-color="#836888"/>
</linearGradient>
<linearGradient id="paint32_linear_6456_58034" x1="436.953" y1="372.048" x2="468.541" y2="339.373" gradientUnits="userSpaceOnUse">
<stop stop-color="#8980EB"/>
<stop offset="1" stop-color="#705AB8"/>
</linearGradient>
<linearGradient id="paint33_linear_6456_58034" x1="282.713" y1="391.729" x2="286.18" y2="388.143" gradientUnits="userSpaceOnUse">
<stop stop-color="#8980EB"/>
<stop offset="1" stop-color="#705AB8"/>
</linearGradient>
<linearGradient id="paint34_linear_6456_58034" x1="386.562" y1="280.934" x2="389.782" y2="277.603" gradientUnits="userSpaceOnUse">
<stop stop-color="#8980EB"/>
<stop offset="1" stop-color="#705AB8"/>
</linearGradient>
<linearGradient id="paint35_linear_6456_58034" x1="265.368" y1="314.705" x2="289.881" y2="289.348" gradientUnits="userSpaceOnUse">
<stop stop-color="#8980EB"/>
<stop offset="1" stop-color="#705AB8"/>
</linearGradient>
<linearGradient id="paint36_linear_6456_58034" x1="379.524" y1="344.22" x2="384.721" y2="345.74" gradientUnits="userSpaceOnUse">
<stop stop-color="#8980EB"/>
<stop offset="1" stop-color="#705AB8"/>
</linearGradient>
<linearGradient id="paint37_linear_6456_58034" x1="384.888" y1="337.978" x2="388.816" y2="339.126" gradientUnits="userSpaceOnUse">
<stop stop-color="#8980EB"/>
<stop offset="1" stop-color="#705AB8"/>
</linearGradient>
<linearGradient id="paint38_linear_6456_58034" x1="272.928" y1="294.536" x2="277.921" y2="296.082" gradientUnits="userSpaceOnUse">
<stop stop-color="#8980EB"/>
<stop offset="1" stop-color="#705AB8"/>
</linearGradient>
<linearGradient id="paint39_linear_6456_58034" x1="306.592" y1="306.17" x2="413.798" y2="409.808" gradientUnits="userSpaceOnUse">
<stop offset="0.21" stop-color="#98ABD2"/>
<stop offset="0.49" stop-color="#72719D"/>
<stop offset="1" stop-color="#DAE1EF"/>
</linearGradient>
<linearGradient id="paint40_linear_6456_58034" x1="319.103" y1="462.612" x2="463.367" y2="313.382" gradientUnits="userSpaceOnUse">
<stop offset="0.21" stop-color="#98ABD2"/>
<stop offset="0.49" stop-color="#72719D"/>
<stop offset="1" stop-color="#DAE1EF"/>
</linearGradient>
<linearGradient id="paint41_linear_6456_58034" x1="420.286" y1="416.081" x2="375.608" y2="372.889" gradientUnits="userSpaceOnUse">
<stop stop-color="#8980EB"/>
<stop offset="1" stop-color="#705AB8"/>
</linearGradient>
<linearGradient id="paint42_linear_6456_58034" x1="396.399" y1="423.72" x2="336.306" y2="374.696" gradientUnits="userSpaceOnUse">
<stop stop-color="#705AB8"/>
<stop offset="1" stop-color="white"/>
</linearGradient>
<linearGradient id="paint43_linear_6456_58034" x1="240.339" y1="398.587" x2="422.947" y2="209.692" gradientUnits="userSpaceOnUse">
<stop offset="0.21" stop-color="#98ABD2"/>
<stop offset="0.49" stop-color="#72719D"/>
<stop offset="1" stop-color="#DAE1EF"/>
</linearGradient>
<linearGradient id="paint44_linear_6456_58034" x1="365.084" y1="362.721" x2="283.183" y2="283.545" gradientUnits="userSpaceOnUse">
<stop offset="0.21" stop-color="#98ABD2"/>
<stop offset="0.49" stop-color="#72719D"/>
<stop offset="1" stop-color="#DAE1EF"/>
</linearGradient>
<linearGradient id="paint45_linear_6456_58034" x1="276.628" y1="307.936" x2="327.657" y2="366.335" gradientUnits="userSpaceOnUse">
<stop stop-color="#705AB8"/>
<stop offset="1" stop-color="white"/>
</linearGradient>
<linearGradient id="paint46_linear_6456_58034" x1="352.462" y1="349.492" x2="314.952" y2="313.23" gradientUnits="userSpaceOnUse">
<stop stop-color="#8980EB"/>
<stop offset="1" stop-color="#705AB8"/>
</linearGradient>
<linearGradient id="paint47_linear_6456_58034" x1="331.479" y1="393.935" x2="305.798" y2="369.108" gradientUnits="userSpaceOnUse">
<stop stop-color="#8980EB"/>
<stop offset="1" stop-color="#705AB8"/>
</linearGradient>
<linearGradient id="paint48_linear_6456_58034" x1="330.707" y1="393.188" x2="307.015" y2="370.284" gradientUnits="userSpaceOnUse">
<stop stop-color="#86759D"/>
<stop offset="0.39" stop-color="#98ABD2"/>
<stop offset="1" stop-color="#DAE1EF"/>
</linearGradient>
<linearGradient id="paint49_linear_6456_58034" x1="310.235" y1="394.068" x2="320.705" y2="383.237" gradientUnits="userSpaceOnUse">
<stop stop-color="#705AB8"/>
<stop offset="1" stop-color="white"/>
</linearGradient>
<linearGradient id="paint50_linear_6456_58034" x1="320.703" y1="383.237" x2="330.822" y2="372.77" gradientUnits="userSpaceOnUse">
<stop stop-color="#705AB8"/>
<stop offset="1" stop-color="white"/>
</linearGradient>
<linearGradient id="paint51_linear_6456_58034" x1="319.158" y1="394.843" x2="325.704" y2="388.071" gradientUnits="userSpaceOnUse">
<stop stop-color="#705AB8"/>
<stop offset="1" stop-color="white"/>
</linearGradient>
<linearGradient id="paint52_linear_6456_58034" x1="325.529" y1="388.253" x2="331.882" y2="381.681" gradientUnits="userSpaceOnUse">
<stop stop-color="#705AB8"/>
<stop offset="1" stop-color="white"/>
</linearGradient>
<linearGradient id="paint53_linear_6456_58034" x1="312.857" y1="374.139" x2="327.524" y2="385.552" gradientUnits="userSpaceOnUse">
<stop stop-color="#BFD7FF"/>
<stop offset="1"/>
</linearGradient>
<linearGradient id="paint54_linear_6456_58034" x1="319.021" y1="381.608" x2="329.14" y2="371.141" gradientUnits="userSpaceOnUse">
<stop stop-color="#BFD7FF"/>
<stop offset="1"/>
</linearGradient>
<linearGradient id="paint55_linear_6456_58034" x1="315.933" y1="370.171" x2="330.618" y2="381.601" gradientUnits="userSpaceOnUse">
<stop stop-color="#BFD7FF"/>
<stop offset="1"/>
</linearGradient>
<linearGradient id="paint56_linear_6456_58034" x1="306.888" y1="381.784" x2="321.573" y2="393.214" gradientUnits="userSpaceOnUse">
<stop stop-color="#BFD7FF"/>
<stop offset="1"/>
</linearGradient>
<linearGradient id="paint57_linear_6456_58034" x1="322.277" y1="397.751" x2="334.982" y2="384.608" gradientUnits="userSpaceOnUse">
<stop stop-color="#8980EB"/>
<stop offset="1" stop-color="#705AB8"/>
</linearGradient>
<linearGradient id="paint58_linear_6456_58034" x1="311.597" y1="395.385" x2="322.067" y2="384.554" gradientUnits="userSpaceOnUse">
<stop stop-color="#8980EB"/>
<stop offset="1" stop-color="#705AB8"/>
</linearGradient>
<linearGradient id="paint59_linear_6456_58034" x1="322.388" y1="384.865" x2="332.507" y2="374.398" gradientUnits="userSpaceOnUse">
<stop stop-color="#8980EB"/>
<stop offset="1" stop-color="#705AB8"/>
</linearGradient>
<linearGradient id="paint60_linear_6456_58034" x1="319.211" y1="394.788" x2="331.916" y2="381.645" gradientUnits="userSpaceOnUse">
<stop stop-color="#8980EB"/>
<stop offset="1" stop-color="#705AB8"/>
</linearGradient>
<linearGradient id="paint61_linear_6456_58034" x1="395.675" y1="327.529" x2="369.993" y2="302.702" gradientUnits="userSpaceOnUse">
<stop stop-color="#8980EB"/>
<stop offset="1" stop-color="#705AB8"/>
</linearGradient>
<linearGradient id="paint62_linear_6456_58034" x1="394.903" y1="326.784" x2="371.21" y2="303.88" gradientUnits="userSpaceOnUse">
<stop stop-color="#86759D"/>
<stop offset="0.39" stop-color="#98ABD2"/>
<stop offset="1" stop-color="#DAE1EF"/>
</linearGradient>
<linearGradient id="paint63_linear_6456_58034" x1="374.43" y1="327.663" x2="384.9" y2="316.832" gradientUnits="userSpaceOnUse">
<stop stop-color="#705AB8"/>
<stop offset="1" stop-color="white"/>
</linearGradient>
<linearGradient id="paint64_linear_6456_58034" x1="384.899" y1="316.832" x2="395.017" y2="306.366" gradientUnits="userSpaceOnUse">
<stop stop-color="#705AB8"/>
<stop offset="1" stop-color="white"/>
</linearGradient>
<linearGradient id="paint65_linear_6456_58034" x1="383.353" y1="328.439" x2="389.899" y2="321.667" gradientUnits="userSpaceOnUse">
<stop stop-color="#705AB8"/>
<stop offset="1" stop-color="white"/>
</linearGradient>
<linearGradient id="paint66_linear_6456_58034" x1="389.724" y1="321.847" x2="396.077" y2="315.275" gradientUnits="userSpaceOnUse">
<stop stop-color="#705AB8"/>
<stop offset="1" stop-color="white"/>
</linearGradient>
<linearGradient id="paint67_linear_6456_58034" x1="377.053" y1="307.732" x2="391.719" y2="319.145" gradientUnits="userSpaceOnUse">
<stop stop-color="#BFD7FF"/>
<stop offset="1"/>
</linearGradient>
<linearGradient id="paint68_linear_6456_58034" x1="383.217" y1="315.204" x2="393.335" y2="304.737" gradientUnits="userSpaceOnUse">
<stop stop-color="#BFD7FF"/>
<stop offset="1"/>
</linearGradient>
<linearGradient id="paint69_linear_6456_58034" x1="380.128" y1="303.766" x2="394.813" y2="315.196" gradientUnits="userSpaceOnUse">
<stop stop-color="#BFD7FF"/>
<stop offset="1"/>
</linearGradient>
<linearGradient id="paint70_linear_6456_58034" x1="371.084" y1="315.378" x2="385.768" y2="326.808" gradientUnits="userSpaceOnUse">
<stop stop-color="#BFD7FF"/>
<stop offset="1"/>
</linearGradient>
<linearGradient id="paint71_linear_6456_58034" x1="386.455" y1="331.364" x2="399.178" y2="318.203" gradientUnits="userSpaceOnUse">
<stop stop-color="#8980EB"/>
<stop offset="1" stop-color="#705AB8"/>
</linearGradient>
<linearGradient id="paint72_linear_6456_58034" x1="375.792" y1="328.979" x2="386.262" y2="318.148" gradientUnits="userSpaceOnUse">
<stop stop-color="#8980EB"/>
<stop offset="1" stop-color="#705AB8"/>
</linearGradient>
<linearGradient id="paint73_linear_6456_58034" x1="386.583" y1="318.461" x2="396.702" y2="307.994" gradientUnits="userSpaceOnUse">
<stop stop-color="#8980EB"/>
<stop offset="1" stop-color="#705AB8"/>
</linearGradient>
<linearGradient id="paint74_linear_6456_58034" x1="383.388" y1="328.401" x2="396.111" y2="315.24" gradientUnits="userSpaceOnUse">
<stop stop-color="#8980EB"/>
<stop offset="1" stop-color="#705AB8"/>
</linearGradient>
<linearGradient id="paint75_linear_6456_58034" x1="363.241" y1="361.078" x2="337.559" y2="336.251" gradientUnits="userSpaceOnUse">
<stop stop-color="#8980EB"/>
<stop offset="1" stop-color="#705AB8"/>
</linearGradient>
<linearGradient id="paint76_linear_6456_58034" x1="362.469" y1="360.332" x2="338.777" y2="337.428" gradientUnits="userSpaceOnUse">
<stop stop-color="#86759D"/>
<stop offset="0.39" stop-color="#98ABD2"/>
<stop offset="1" stop-color="#DAE1EF"/>
</linearGradient>
<linearGradient id="paint77_linear_6456_58034" x1="341.996" y1="361.211" x2="352.467" y2="350.38" gradientUnits="userSpaceOnUse">
<stop stop-color="#705AB8"/>
<stop offset="1" stop-color="white"/>
</linearGradient>
<linearGradient id="paint78_linear_6456_58034" x1="352.469" y1="350.381" x2="362.57" y2="339.932" gradientUnits="userSpaceOnUse">
<stop stop-color="#705AB8"/>
<stop offset="1" stop-color="white"/>
</linearGradient>
<linearGradient id="paint79_linear_6456_58034" x1="350.923" y1="361.985" x2="357.47" y2="355.214" gradientUnits="userSpaceOnUse">
<stop stop-color="#705AB8"/>
<stop offset="1" stop-color="white"/>
</linearGradient>
<linearGradient id="paint80_linear_6456_58034" x1="357.291" y1="355.395" x2="363.643" y2="348.824" gradientUnits="userSpaceOnUse">
<stop stop-color="#705AB8"/>
<stop offset="1" stop-color="white"/>
</linearGradient>
<linearGradient id="paint81_linear_6456_58034" x1="344.623" y1="341.282" x2="359.29" y2="352.695" gradientUnits="userSpaceOnUse">
<stop stop-color="#BFD7FF"/>
<stop offset="1"/>
</linearGradient>
<linearGradient id="paint82_linear_6456_58034" x1="350.783" y1="348.752" x2="360.884" y2="338.303" gradientUnits="userSpaceOnUse">
<stop stop-color="#BFD7FF"/>
<stop offset="1"/>
</linearGradient>
<linearGradient id="paint83_linear_6456_58034" x1="347.695" y1="337.315" x2="362.379" y2="348.745" gradientUnits="userSpaceOnUse">
<stop stop-color="#BFD7FF"/>
<stop offset="1"/>
</linearGradient>
<linearGradient id="paint84_linear_6456_58034" x1="338.65" y1="348.927" x2="353.335" y2="360.357" gradientUnits="userSpaceOnUse">
<stop stop-color="#BFD7FF"/>
<stop offset="1"/>
</linearGradient>
<linearGradient id="paint85_linear_6456_58034" x1="354.023" y1="364.912" x2="366.746" y2="351.751" gradientUnits="userSpaceOnUse">
<stop stop-color="#8980EB"/>
<stop offset="1" stop-color="#705AB8"/>
</linearGradient>
<linearGradient id="paint86_linear_6456_58034" x1="343.358" y1="362.528" x2="353.829" y2="351.697" gradientUnits="userSpaceOnUse">
<stop stop-color="#8980EB"/>
<stop offset="1" stop-color="#705AB8"/>
</linearGradient>
<linearGradient id="paint87_linear_6456_58034" x1="354.154" y1="352.009" x2="364.255" y2="341.561" gradientUnits="userSpaceOnUse">
<stop stop-color="#8980EB"/>
<stop offset="1" stop-color="#705AB8"/>
</linearGradient>
<linearGradient id="paint88_linear_6456_58034" x1="350.955" y1="361.948" x2="363.678" y2="348.787" gradientUnits="userSpaceOnUse">
<stop stop-color="#8980EB"/>
<stop offset="1" stop-color="#705AB8"/>
</linearGradient>
<linearGradient id="paint89_linear_6456_58034" x1="171.79" y1="130.129" x2="146.211" y2="215.399" gradientUnits="userSpaceOnUse">
<stop stop-color="#C68C43"/>
<stop offset="0.119792" stop-color="#F5BA6E"/>
<stop offset="0.286458" stop-color="#C68C43"/>
<stop offset="0.5625" stop-color="#C68C43"/>
<stop offset="0.770833" stop-color="#EEB873"/>
<stop offset="1" stop-color="#C68C43"/>
</linearGradient>
<linearGradient id="paint90_linear_6456_58034" x1="170.682" y1="287.253" x2="171.006" y2="417.33" gradientUnits="userSpaceOnUse">
<stop stop-color="white" stop-opacity="0"/>
<stop offset="0.440223" stop-color="white"/>
<stop offset="1" stop-color="white" stop-opacity="0"/>
</linearGradient>
</defs>
</svg>
