<svg width="518" height="565" viewBox="0 0 518 565" fill="none" xmlns="http://www.w3.org/2000/svg">
<g filter="url(#filter0_f_6456_58228)">
<g filter="url(#filter1_b_6456_58228)">
<path d="M48.4512 348.678C46.0598 347.298 45.2404 344.24 46.6211 341.848L204.444 68.491C205.825 66.0995 208.883 65.2802 211.274 66.6609L251.921 90.1283L89.098 372.146L48.4512 348.678Z" fill="url(#paint0_linear_6456_58228)"/>
<path d="M48.9512 347.812C47.0381 346.708 46.3826 344.261 47.4871 342.348L205.31 68.991C206.414 67.0778 208.861 66.4223 210.774 67.5269L250.555 90.4943L88.732 370.78L48.9512 347.812Z" stroke="url(#paint1_linear_6456_58228)" stroke-width="2"/>
</g>
<g filter="url(#filter2_b_6456_58228)">
<path d="M470.049 216.061C472.44 217.442 473.26 220.5 471.879 222.891L314.056 496.248C312.675 498.64 309.617 499.459 307.226 498.078L266.579 474.611L429.402 192.594L470.049 216.061Z" fill="url(#paint2_linear_6456_58228)"/>
<path d="M469.549 216.927C471.462 218.032 472.117 220.478 471.013 222.391L313.19 495.748C312.085 497.661 309.639 498.317 307.726 497.212L267.945 474.245L429.768 193.96L469.549 216.927Z" stroke="url(#paint3_linear_6456_58228)" stroke-width="2"/>
</g>
<mask id="path-5-inside-1_6456_58228" fill="white">
<path fill-rule="evenodd" clip-rule="evenodd" d="M227.777 19.6603C230.539 14.8773 236.655 13.2386 241.438 16L498.841 164.612C503.624 167.373 505.263 173.489 502.501 178.272L424.949 312.597C423.312 315.432 420.391 317.286 417.129 317.562L408.8 318.265C405.538 318.54 402.618 320.394 400.981 323.229L383.942 352.741L364.798 385.899C363.162 388.734 363.016 392.19 364.408 395.153L367.964 402.718C369.357 405.681 369.211 409.137 367.574 411.972L290.725 545.079C287.964 549.862 281.848 551.5 277.065 548.739L19.6617 400.127C14.8788 397.366 13.24 391.25 16.0015 386.467L92.8514 253.359C94.4881 250.524 97.4087 248.67 100.671 248.394L108.998 247.691C112.26 247.416 115.181 245.562 116.817 242.727L133.856 213.215C133.856 213.215 133.856 213.215 133.856 213.215C133.856 213.215 133.856 213.215 133.856 213.215L153 180.057C154.637 177.222 154.782 173.766 153.39 170.803L149.835 163.24C148.442 160.277 148.588 156.821 150.225 153.986L227.777 19.6603Z"/>
</mask>
<g filter="url(#filter3_i_6456_58228)">
<path fill-rule="evenodd" clip-rule="evenodd" d="M227.777 19.6603C230.539 14.8773 236.655 13.2386 241.438 16L498.841 164.612C503.624 167.373 505.263 173.489 502.501 178.272L424.949 312.597C423.312 315.432 420.391 317.286 417.129 317.562L408.8 318.265C405.538 318.54 402.618 320.394 400.981 323.229L383.942 352.741L364.798 385.899C363.162 388.734 363.016 392.19 364.408 395.153L367.964 402.718C369.357 405.681 369.211 409.137 367.574 411.972L290.725 545.079C287.964 549.862 281.848 551.5 277.065 548.739L19.6617 400.127C14.8788 397.366 13.24 391.25 16.0015 386.467L92.8514 253.359C94.4881 250.524 97.4087 248.67 100.671 248.394L108.998 247.691C112.26 247.416 115.181 245.562 116.817 242.727L133.856 213.215C133.856 213.215 133.856 213.215 133.856 213.215C133.856 213.215 133.856 213.215 133.856 213.215L153 180.057C154.637 177.222 154.782 173.766 153.39 170.803L149.835 163.24C148.442 160.277 148.588 156.821 150.225 153.986L227.777 19.6603Z" fill="#090E1C"/>
</g>
<path d="M383.942 352.741L385.674 353.741L385.674 353.741L383.942 352.741ZM149.835 163.24L151.645 162.389L149.835 163.24ZM153 180.057L151.268 179.057L153 180.057ZM153.39 170.803L155.2 169.952L153.39 170.803ZM133.856 213.215L132.124 212.215L133.856 213.215ZM108.998 247.691L108.83 245.698L108.998 247.691ZM100.671 248.394L100.502 246.401L100.671 248.394ZM367.964 402.718L366.154 403.569L367.964 402.718ZM408.8 318.265L408.632 316.272L408.8 318.265ZM400.981 323.229L402.713 324.229L400.981 323.229ZM424.949 312.597L423.217 311.597L424.949 312.597ZM417.129 317.562L417.298 319.555L417.129 317.562ZM364.798 385.899L363.066 384.899L364.798 385.899ZM364.408 395.153L362.598 396.004L364.408 395.153ZM133.856 213.215L135.588 214.215L133.856 213.215ZM502.501 178.272L500.769 177.272L502.501 178.272ZM499.841 162.88L242.438 14.268L240.438 17.7321L497.841 166.344L499.841 162.88ZM426.681 313.597L504.233 179.272L500.769 177.272L423.217 311.597L426.681 313.597ZM408.968 320.258L417.298 319.555L416.961 315.569L408.632 316.272L408.968 320.258ZM385.674 353.741L402.713 324.229L399.249 322.229L382.21 351.741L385.674 353.741ZM366.53 386.899L385.674 353.741L382.21 351.741L363.066 384.899L366.53 386.899ZM369.774 401.867L366.218 394.302L362.598 396.004L366.154 403.569L369.774 401.867ZM292.457 546.079L369.307 412.972L365.842 410.972L288.993 544.079L292.457 546.079ZM18.6617 401.859L276.065 550.471L278.065 547.007L20.6617 398.395L18.6617 401.859ZM91.1193 252.359L14.2694 385.467L17.7335 387.467L94.5834 254.359L91.1193 252.359ZM100.839 250.387L109.166 249.684L108.83 245.698L100.502 246.401L100.839 250.387ZM118.549 243.727L135.588 214.215L132.124 212.215L115.085 241.727L118.549 243.727ZM135.588 214.215L154.732 181.057L151.268 179.057L132.124 212.215L135.588 214.215ZM155.2 169.952L151.645 162.389L148.025 164.09L151.58 171.654L155.2 169.952ZM226.045 18.6603L148.492 152.986L151.957 154.986L229.509 20.6603L226.045 18.6603ZM151.645 162.389C150.531 160.019 150.647 157.254 151.957 154.986L148.492 152.986C146.528 156.388 146.354 160.535 148.025 164.09L151.645 162.389ZM154.732 181.057C156.696 177.655 156.871 173.507 155.2 169.952L151.58 171.654C152.694 174.024 152.577 176.789 151.268 179.057L154.732 181.057ZM132.856 214.947C133.813 215.5 135.036 215.172 135.588 214.215L132.124 212.215C132.676 211.259 133.899 210.931 134.856 211.483L132.856 214.947ZM109.166 249.684C113.081 249.354 116.585 247.129 118.549 243.727L115.085 241.727C113.776 243.995 111.439 245.478 108.83 245.698L109.166 249.684ZM94.5834 254.359C95.8928 252.091 98.2293 250.607 100.839 250.387L100.502 246.401C96.5882 246.732 93.0834 248.957 91.1193 252.359L94.5834 254.359ZM20.6617 398.395C16.8354 396.186 15.5244 391.293 17.7335 387.467L14.2694 385.467C10.9557 391.206 12.9222 398.545 18.6617 401.859L20.6617 398.395ZM288.993 544.079C286.784 547.905 281.891 549.216 278.065 547.007L276.065 550.471C281.804 553.785 289.144 551.818 292.457 546.079L288.993 544.079ZM366.154 403.569C367.268 405.939 367.152 408.704 365.842 410.972L369.307 412.972C371.271 409.57 371.445 405.422 369.774 401.867L366.154 403.569ZM408.632 316.272C404.718 316.602 401.213 318.827 399.249 322.229L402.713 324.229C404.022 321.961 406.359 320.478 408.968 320.258L408.632 316.272ZM423.217 311.597C421.907 313.865 419.571 315.348 416.961 315.569L417.298 319.555C421.212 319.224 424.717 316.999 426.681 313.597L423.217 311.597ZM242.438 14.268C236.698 10.9542 229.359 12.9207 226.045 18.6603L229.509 20.6603C231.719 16.8339 236.611 15.5229 240.438 17.7321L242.438 14.268ZM363.066 384.899C361.102 388.301 360.927 392.449 362.598 396.004L366.218 394.302C365.104 391.932 365.221 389.167 366.53 386.899L363.066 384.899ZM135.588 214.215C135.047 215.152 133.832 215.511 132.856 214.947L134.856 211.483C133.88 210.919 132.665 211.279 132.124 212.215L135.588 214.215ZM497.841 166.344C501.667 168.553 502.978 173.446 500.769 177.272L504.233 179.272C507.547 173.533 505.58 166.194 499.841 162.88L497.841 166.344Z" fill="url(#paint4_linear_6456_58228)" mask="url(#path-5-inside-1_6456_58228)"/>
<mask id="mask0_6456_58228" style="mask-type:alpha" maskUnits="userSpaceOnUse" x="18" y="18" width="483" height="529">
<path fill-rule="evenodd" clip-rule="evenodd" d="M228.805 23.4952C231.566 18.7123 237.682 17.0735 242.465 19.835L495.006 165.64C499.789 168.401 501.428 174.517 498.666 179.3L422.184 311.771C420.552 314.598 417.642 316.451 414.389 316.733L406.332 317.433C403.079 317.715 400.169 319.568 398.537 322.395L381.739 351.489L362.863 384.183C361.231 387.011 361.081 390.457 362.463 393.415L365.886 400.743C367.268 403.701 367.118 407.147 365.486 409.975L289.698 541.244C286.936 546.027 280.82 547.666 276.037 544.904L23.4963 399.1C18.7134 396.338 17.0747 390.222 19.8361 385.439L95.6243 254.17C97.2568 251.343 100.167 249.49 103.42 249.208L111.478 248.508C114.731 248.226 117.641 246.373 119.273 243.546L136.07 214.452C136.07 214.452 136.07 214.452 136.07 214.452C136.07 214.452 136.071 214.452 136.071 214.452L154.947 181.758C156.579 178.93 156.728 175.484 155.347 172.526L151.923 165.197C150.542 162.239 150.691 158.792 152.323 155.965L228.805 23.4952Z" fill="#090E1C"/>
</mask>
<g mask="url(#mask0_6456_58228)">
<rect x="11.5156" y="397.044" width="444.955" height="158.612" transform="rotate(-60 11.5156 397.044)" fill="#060911"/>
<g style="mix-blend-mode:hard-light" opacity="0.2">
<path style="mix-blend-mode:multiply" opacity="0.5" d="M282.581 243.252L177.295 239.116L244.676 158.068L216.13 56.6751L313.966 95.6417L401.577 37.1433L394.722 142.266L477.482 207.567L375.304 233.486L338.806 332.364L282.581 243.252Z" fill="url(#paint5_linear_6456_58228)"/>
<path d="M466.223 205.159L426.334 173.69L415.438 165.097L389.526 144.638L395.881 47.0268L314.621 101.391L223.764 65.1756L250.269 159.251L187.804 234.442L285.467 238.27L337.614 320.935L371.498 229.243L466.223 205.159Z" fill="url(#paint6_linear_6456_58228)"/>
<path style="mix-blend-mode:multiply" opacity="0.5" d="M223.387 64.9604L328.12 168.396L249.891 159.036L223.387 64.9604Z" fill="url(#paint7_linear_6456_58228)"/>
<path style="mix-blend-mode:multiply" opacity="0.5" d="M465.83 204.936L328.106 168.388L371.106 229.02L465.83 204.936Z" fill="url(#paint8_linear_6456_58228)"/>
<path style="mix-blend-mode:multiply" opacity="0.5" d="M285.072 238.044L328.103 168.385L187.313 234.161L285.072 238.044Z" fill="url(#paint9_linear_6456_58228)"/>
<path style="mix-blend-mode:multiply" opacity="0.5" d="M337.23 320.715L328.114 168.392L285.083 238.05L337.23 320.715Z" fill="url(#paint10_linear_6456_58228)"/>
<path style="mix-blend-mode:color-dodge" opacity="0.5" d="M395.496 46.8066L328.113 168.391L389.045 144.362L395.496 46.8066Z" fill="url(#paint11_linear_6456_58228)"/>
<path style="mix-blend-mode:color-dodge" opacity="0.5" d="M465.829 204.936L328.104 168.388L389.037 144.36L465.829 204.936Z" fill="url(#paint12_linear_6456_58228)"/>
<path style="mix-blend-mode:color-dodge" opacity="0.5" d="M465.829 204.936L328.104 168.388L389.037 144.36L465.829 204.936Z" fill="url(#paint13_linear_6456_58228)"/>
<path style="mix-blend-mode:color-dodge" opacity="0.5" d="M314.147 101.122L328.119 168.397L223.386 64.9612L314.147 101.122Z" fill="url(#paint14_linear_6456_58228)"/>
<g style="mix-blend-mode:color-dodge" opacity="0.8">
<path d="M373.534 170.572C364.254 172.248 367.632 178.802 367.632 178.802L404.704 188.569C402.109 182.635 397.684 177.688 392.075 174.45C386.467 171.212 379.97 169.853 373.534 170.572Z" fill="white"/>
</g>
<path style="mix-blend-mode:multiply" opacity="0.5" d="M187.804 234.444C187.804 234.444 260.031 240.466 282.477 243.45L337.806 321.047L285.659 238.382L187.804 234.444Z" fill="url(#paint15_linear_6456_58228)"/>
<g style="mix-blend-mode:soft-light" opacity="0.4">
<path d="M331.693 93.7289C310.997 111.192 332.485 144.187 340.445 139.703C348.405 135.219 367.783 95.8951 365.594 87.7258C363.405 79.5566 340.159 86.5961 331.693 93.7289Z" fill="#F7FFFF"/>
</g>
<g style="mix-blend-mode:soft-light" opacity="0.4">
<path d="M241.459 192.658C256.45 204.126 276.042 191.012 286.844 180.497C303.914 163.114 214.533 171.741 241.459 192.658Z" fill="#F7FFFF"/>
</g>
</g>
</g>
<g filter="url(#filter4_f_6456_58228)">
<ellipse cx="259.857" cy="282.721" rx="77.9023" ry="72.9895" transform="rotate(30 259.857 282.721)" fill="#6E85CF"/>
</g>
<path d="M323.186 147.663L322.146 149.465L317.504 146.785L311.624 156.969L309.754 155.889L316.674 143.903L323.186 147.663ZM328.072 150.484C329.4 151.251 330.2 152.159 330.471 153.209C330.749 154.247 330.545 155.36 329.858 156.55L329.208 157.676C328.522 158.865 327.659 159.599 326.621 159.877C325.583 160.155 324.4 159.911 323.072 159.144L321.426 158.194L319.506 161.52L317.636 160.44L324.556 148.454L328.072 150.484ZM322.446 156.428L324.092 157.378C325.489 158.184 326.571 157.924 327.338 156.596L327.988 155.47C328.368 154.812 328.481 154.215 328.328 153.68C328.193 153.141 327.768 152.664 327.052 152.251L325.406 151.301L322.446 156.428ZM334.645 170.26L332.723 169.15L333.545 166.046L329.7 163.826L327.423 166.09L325.5 164.98L335.798 154.944L338.24 156.354L334.645 170.26ZM336.15 157.134L331.074 162.286L334.209 164.096L336.15 157.134ZM345.483 162.245L346.423 160.617L348.277 161.687L347.337 163.315C348.583 164.25 349.339 165.341 349.604 166.588C349.87 167.834 349.619 169.121 348.853 170.449C348.086 171.777 347.093 172.643 345.874 173.048C344.655 173.453 343.329 173.349 341.897 172.738L340.957 174.366L339.103 173.296L340.043 171.668C338.797 170.733 338.045 169.636 337.786 168.378C337.527 167.12 337.78 165.827 338.547 164.499C339.314 163.171 340.303 162.311 341.516 161.918C342.728 161.524 344.051 161.634 345.483 162.245ZM340.193 165.449C339.693 166.315 339.517 167.153 339.665 167.962C339.814 168.772 340.281 169.496 341.067 170.134L344.667 163.899C343.728 163.526 342.871 163.477 342.095 163.753C341.327 164.018 340.693 164.583 340.193 165.449ZM347.207 169.499C347.707 168.633 347.88 167.801 347.725 167.003C347.569 166.206 347.101 165.497 346.32 164.876L342.74 171.077C343.668 171.443 344.519 171.488 345.295 171.212C346.07 170.936 346.707 170.365 347.207 169.499Z" fill="#C0D0FF"/>
<path d="M315.753 125.095L319.953 117.82L322.946 119.548C323.59 119.92 324.081 120.342 324.418 120.814C324.762 121.29 324.947 121.794 324.973 122.326C324.998 122.858 324.857 123.39 324.549 123.924C324.241 124.457 323.85 124.846 323.377 125.09C322.903 125.334 322.374 125.426 321.79 125.366C321.213 125.31 320.602 125.096 319.958 124.724L317.713 123.428L318.682 123.142L317.104 125.875L315.753 125.095ZM318.598 123.287L318.373 122.284L320.555 123.544C321.151 123.888 321.67 124.022 322.112 123.944C322.565 123.864 322.923 123.595 323.187 123.138C323.455 122.674 323.509 122.229 323.348 121.803C323.194 121.382 322.819 120.999 322.223 120.655L320.041 119.395L321.028 119.078L318.598 123.287ZM324.862 130.354L332.335 124.969L333.665 125.737L332.749 134.908L331.336 134.092L332.306 125.908L332.846 126.22L326.254 131.158L324.862 130.354ZM327.341 129.54L328.316 128.69L332.245 130.958L331.996 132.228L327.341 129.54ZM346.209 132.979L347.56 133.759L343.36 141.034L342.009 140.254L346.209 132.979ZM338.247 138.082L336.896 137.302L341.096 130.027L342.447 130.807L338.247 138.082ZM343.913 137.196L339.933 134.898L340.599 133.745L344.579 136.043L343.913 137.196ZM348.442 143.968L352.642 136.693L357.578 139.543L356.908 140.68L352.99 138.418L353.488 138.276L349.772 144.736L348.442 143.968Z" fill="white"/>
<path d="M109.622 386.066L108.712 387.642L110.41 388.622L106.42 395.533L108.384 396.667L113.284 388.18L109.622 386.066ZM112.288 395.914C111.621 395.529 110.846 395.695 110.44 396.399C110.153 396.896 110.19 397.419 110.499 397.807L108.853 399.427L110.053 400.12L111.752 398.773C112.416 398.267 112.598 398.065 112.78 397.75C113.179 397.058 112.967 396.306 112.288 395.914ZM116.431 401.506C118.528 402.717 120.985 402.018 122.602 399.217C124.219 396.417 123.596 393.939 121.499 392.728C119.413 391.524 116.944 392.217 115.327 395.017C113.71 397.818 114.345 400.302 116.431 401.506ZM117.39 399.845C116.42 399.285 116.203 398.093 117.316 396.165C118.429 394.238 119.57 393.829 120.54 394.389C121.522 394.956 121.739 396.149 120.626 398.076C119.513 400.004 118.372 400.412 117.39 399.845ZM124.66 406.257C126.757 407.468 129.214 406.769 130.831 403.968C132.448 401.168 131.825 398.69 129.728 397.479C127.642 396.275 125.173 396.968 123.556 399.768C121.939 402.569 122.574 405.053 124.66 406.257ZM125.619 404.596C124.649 404.036 124.432 402.844 125.545 400.916C126.658 398.989 127.799 398.58 128.769 399.14C129.751 399.707 129.968 400.9 128.855 402.827C127.742 404.755 126.601 405.163 125.619 404.596ZM132.888 411.008C134.986 412.219 137.443 411.52 139.06 408.719C140.677 405.919 140.054 403.441 137.956 402.23C135.871 401.026 133.402 401.719 131.785 404.519C130.168 407.32 130.803 409.804 132.888 411.008ZM133.847 409.347C132.878 408.787 132.661 407.595 133.774 405.667C134.887 403.74 136.028 403.331 136.997 403.891C137.98 404.458 138.197 405.651 137.084 407.578C135.971 409.506 134.83 409.914 133.847 409.347ZM139.84 411.821C139.173 411.436 138.398 411.603 137.992 412.306C137.705 412.803 137.742 413.326 138.051 413.714L136.405 415.334L137.605 416.027L139.304 414.68C139.968 414.174 140.15 413.972 140.332 413.657C140.731 412.966 140.519 412.213 139.84 411.821ZM143.983 417.414C146.08 418.625 148.537 417.925 150.154 415.125C151.771 412.324 151.148 409.847 149.051 408.636C146.965 407.432 144.496 408.124 142.879 410.925C141.262 413.725 141.897 416.21 143.983 417.414ZM144.942 415.753C143.972 415.193 143.755 414 144.868 412.073C145.981 410.145 147.122 409.737 148.092 410.297C149.074 410.864 149.291 412.056 148.178 413.984C147.065 415.911 145.924 416.32 144.942 415.753ZM152.212 422.165C154.309 423.376 156.766 422.676 158.383 419.876C160 417.075 159.377 414.598 157.28 413.387C155.194 412.183 152.725 412.875 151.108 415.676C149.491 418.476 150.126 420.961 152.212 422.165ZM153.171 420.504C152.201 419.944 151.984 418.751 153.097 416.824C154.21 414.896 155.351 414.488 156.321 415.048C157.303 415.615 157.52 416.807 156.407 418.735C155.294 420.662 154.153 421.071 153.171 420.504ZM160.441 426.916C162.538 428.127 164.995 427.427 166.612 424.627C168.229 421.826 167.606 419.349 165.509 418.138C163.423 416.934 160.954 417.626 159.337 420.427C157.72 423.227 158.355 425.712 160.441 426.916ZM161.4 425.255C160.43 424.695 160.213 423.502 161.326 421.575C162.439 419.647 163.58 419.239 164.55 419.799C165.532 420.366 165.749 421.558 164.636 423.486C163.523 425.413 162.382 425.822 161.4 425.255ZM174.893 431.364C177.161 432.673 179.132 432.534 180.224 430.643C181.323 428.739 180.458 426.962 178.19 425.653L174.517 423.532L170.828 429.922L169.652 429.243L169.071 430.249L170.247 430.928L169.617 432.02L171.593 433.161L172.223 432.069L174.842 433.581L175.423 432.575L172.804 431.063L173.196 430.384L174.893 431.364ZM178.229 429.507C177.746 430.344 176.862 430.447 175.77 429.817L174.085 428.844L175.569 426.274L177.254 427.247C178.346 427.877 178.705 428.682 178.229 429.507Z" fill="white"/>
<path d="M188.17 441.761L191.88 435.335L188.558 433.417L187.629 434.886C187.278 435.437 186.931 435.954 186.589 436.435C186.259 436.913 185.927 437.33 185.592 437.686C185.265 438.047 184.941 438.318 184.621 438.5C184.301 438.681 183.998 438.749 183.712 438.702L182.154 437.48C182.452 437.673 182.763 437.713 183.088 437.599C183.421 437.489 183.76 437.265 184.107 436.926C184.453 436.587 184.811 436.163 185.181 435.654C185.554 435.137 185.938 434.567 186.331 433.942L187.982 431.306L194.202 434.897L189.722 442.657L188.17 441.761ZM180.05 440.452L181.875 437.319L191.296 442.758L189.483 445.898L188.028 445.058L189.071 443.252L182.56 439.493L181.517 441.299L180.05 440.452ZM194.692 446.61C193.973 446.195 193.424 445.689 193.046 445.094C192.68 444.495 192.493 443.858 192.483 443.184C192.481 442.515 192.665 441.861 193.033 441.223C193.407 440.576 193.877 440.088 194.445 439.758C195.025 439.425 195.647 439.262 196.312 439.268C196.984 439.279 197.644 439.472 198.291 439.845C198.921 440.209 199.404 440.671 199.738 441.23C200.072 441.79 200.236 442.402 200.23 443.066C200.223 443.73 200.024 444.402 199.632 445.081C199.595 445.146 199.549 445.216 199.494 445.292C199.447 445.373 199.399 445.448 199.349 445.516L193.954 442.401L194.535 441.394L199.13 444.047L198.354 444.02C198.576 443.653 198.689 443.281 198.69 442.905C198.692 442.528 198.598 442.178 198.409 441.853C198.227 441.532 197.954 441.267 197.591 441.057C197.219 440.843 196.845 440.734 196.469 440.733C196.1 440.736 195.752 440.836 195.422 441.034C195.105 441.228 194.835 441.519 194.611 441.907L194.471 442.15C194.247 442.538 194.137 442.932 194.142 443.334C194.147 443.736 194.265 444.111 194.495 444.459C194.725 444.808 195.05 445.103 195.47 445.346C195.834 445.556 196.194 445.688 196.55 445.743C196.907 445.798 197.268 445.769 197.634 445.657L197.908 447.06C197.421 447.232 196.901 447.282 196.349 447.211C195.81 447.137 195.258 446.937 194.692 446.61ZM199.442 449.239L203.18 442.765L209.388 446.349L205.65 452.823L204.146 451.955L207.345 446.414L207.494 446.969L203.602 444.722L204.156 444.573L200.957 450.114L199.442 449.239ZM210.531 455.755C209.868 455.372 209.36 454.89 209.006 454.308C208.657 453.719 208.477 453.087 208.467 452.413C208.458 451.739 208.637 451.083 209.006 450.444C209.379 449.798 209.858 449.314 210.441 448.994C211.03 448.665 211.664 448.509 212.345 448.525C213.026 448.541 213.697 448.74 214.36 449.123C215.031 449.51 215.543 449.994 215.897 450.576C216.259 451.162 216.444 451.786 216.45 452.447C216.464 453.113 216.283 453.773 215.905 454.427C215.536 455.066 215.057 455.55 214.469 455.878C213.889 456.211 213.252 456.372 212.558 456.359C211.878 456.343 211.202 456.142 210.531 455.755ZM211.28 454.457C211.652 454.672 212.03 454.782 212.414 454.789C212.799 454.795 213.16 454.691 213.499 454.478C213.846 454.268 214.139 453.958 214.377 453.545C214.62 453.125 214.742 452.716 214.745 452.319C214.761 451.919 214.67 451.554 214.472 451.224C214.275 450.895 213.994 450.625 213.63 450.415C213.258 450.2 212.88 450.09 212.496 450.083C212.12 450.082 211.758 450.185 211.411 450.394C211.069 450.595 210.776 450.906 210.533 451.326C210.295 451.739 210.173 452.147 210.165 452.553C210.157 452.958 210.248 453.323 210.438 453.648C210.636 453.977 210.916 454.247 211.28 454.457ZM217.424 459.767C218.022 460.112 218.601 460.333 219.159 460.429C219.726 460.53 220.229 460.508 220.669 460.363C221.113 460.21 221.449 459.935 221.678 459.539C221.962 459.046 221.98 458.539 221.731 458.018C221.487 457.489 221.005 457.017 220.286 456.601L220.048 456.901C220.469 457.143 220.88 457.289 221.283 457.339C221.694 457.393 222.062 457.352 222.388 457.217C222.727 457.078 222.985 456.855 223.162 456.548C223.377 456.176 223.43 455.776 223.322 455.347C223.214 454.919 222.971 454.498 222.595 454.087C222.218 453.675 221.727 453.311 221.123 452.995C220.731 452.779 220.306 452.609 219.849 452.486C219.405 452.359 218.924 452.269 218.404 452.217L218.148 453.557C218.592 453.608 219.008 453.692 219.394 453.807C219.788 453.927 220.147 454.08 220.47 454.267C220.777 454.444 221.021 454.628 221.202 454.819C221.388 455.001 221.502 455.186 221.545 455.372C221.601 455.556 221.585 455.724 221.496 455.878C221.407 456.031 221.282 456.136 221.12 456.194C220.957 456.251 220.767 456.254 220.548 456.203C220.338 456.157 220.103 456.059 219.844 455.91L218.717 455.259L218.129 456.278L219.378 456.999C219.79 457.237 220.066 457.487 220.204 457.751C220.356 458.011 220.357 458.27 220.208 458.529C220.105 458.706 219.946 458.824 219.729 458.882C219.52 458.945 219.274 458.943 218.989 458.876C218.709 458.8 218.4 458.665 218.06 458.469C217.664 458.24 217.296 457.963 216.956 457.637C216.616 457.312 216.34 456.969 216.127 456.609L215.052 457.492C215.314 457.934 215.648 458.353 216.055 458.75C216.475 459.143 216.931 459.482 217.424 459.767ZM222.14 462.344L225.878 455.869L227.393 456.744L224.929 461.012L230.97 458.809L232.352 459.607L228.614 466.082L227.098 465.207L229.562 460.939L223.534 463.149L222.14 462.344ZM231.998 468.036L235.204 462.483L235.346 463.049L232.715 461.53L233.457 460.245L239.519 463.745L238.777 465.03L236.158 463.518L236.72 463.358L233.514 468.911L231.998 468.036ZM240.809 473.122L241.565 471.813L241.641 471.485L242.964 469.193C243.221 468.749 243.286 468.328 243.159 467.932C243.037 467.527 242.705 467.169 242.163 466.856C241.8 466.646 241.407 466.495 240.986 466.403C240.573 466.315 240.187 466.303 239.828 466.365L239.871 464.918C240.373 464.852 240.899 464.892 241.451 465.038C242.015 465.181 242.556 465.401 243.073 465.7C244.011 466.241 244.604 466.885 244.852 467.632C245.112 468.375 244.972 469.216 244.431 470.153L242.24 473.948L240.809 473.122ZM238.723 472.031C238.238 471.751 237.86 471.425 237.59 471.054C237.324 470.674 237.174 470.28 237.14 469.873C237.119 469.462 237.216 469.07 237.43 468.698C237.64 468.335 237.914 468.056 238.252 467.863C238.598 467.675 239.018 467.61 239.512 467.669C240.006 467.728 240.58 467.946 241.235 468.324L243.114 469.409L242.533 470.416L240.763 469.394C240.246 469.095 239.849 468.979 239.573 469.046C239.302 469.105 239.097 469.256 238.957 469.499C238.798 469.773 238.781 470.055 238.906 470.342C239.031 470.63 239.287 470.886 239.675 471.11C240.047 471.324 240.427 471.431 240.816 471.429C241.213 471.432 241.572 471.305 241.893 471.049L241.623 472.105C241.258 472.401 240.825 472.544 240.324 472.535C239.83 472.53 239.297 472.362 238.723 472.031Z" fill="#7D7D7D"/>
<path d="M147.58 377.186L146.67 378.763L148.367 379.743L144.377 386.654L146.341 387.788L151.241 379.3L147.58 377.186ZM151.369 390.884C153.466 392.095 155.923 391.396 157.54 388.595C159.157 385.794 158.534 383.317 156.437 382.106C154.351 380.902 151.882 381.594 150.265 384.395C148.648 387.196 149.283 389.68 151.369 390.884ZM152.328 389.223C151.358 388.663 151.141 387.471 152.254 385.543C153.367 383.615 154.508 383.207 155.478 383.767C156.46 384.334 156.677 385.526 155.564 387.454C154.451 389.382 153.31 389.79 152.328 389.223ZM160.263 390.62C161.499 391.334 162.878 390.933 163.711 389.491C164.544 388.048 164.201 386.654 162.965 385.94C161.728 385.226 160.33 385.631 159.504 387.062C158.678 388.492 159.026 389.906 160.263 390.62ZM157.269 394.097L158.712 394.93L169.407 389.789L167.964 388.956L157.269 394.097ZM160.837 389.625C160.315 389.324 160.21 388.666 160.728 387.769C161.246 386.871 161.869 386.633 162.391 386.934C162.924 387.242 163.024 387.881 162.499 388.791C161.974 389.7 161.37 389.933 160.837 389.625ZM163.712 397.946C164.948 398.66 166.346 398.254 167.172 396.824C167.998 395.393 167.65 393.98 166.414 393.266C165.189 392.559 163.791 392.964 162.965 394.395C162.139 395.825 162.487 397.239 163.712 397.946ZM164.286 396.951C163.764 396.65 163.653 396.004 164.178 395.095C164.703 394.185 165.318 393.959 165.84 394.26C166.373 394.568 166.466 395.219 165.948 396.117C165.43 397.014 164.819 397.259 164.286 396.951Z" fill="white"/>
<path d="M174.636 404.285C173.989 403.912 173.448 403.459 173.011 402.927C172.588 402.391 172.282 401.81 172.093 401.184C171.918 400.555 171.871 399.908 171.953 399.244C172.034 398.58 172.257 397.933 172.621 397.302C172.985 396.672 173.434 396.155 173.969 395.752C174.503 395.35 175.088 395.073 175.724 394.923C176.365 394.765 177.021 394.74 177.692 394.847C178.368 394.946 179.033 395.185 179.688 395.563C180.383 395.964 180.947 396.451 181.381 397.025C181.82 397.591 182.102 398.223 182.227 398.92L180.656 399.29C180.54 398.781 180.339 398.336 180.052 397.955C179.77 397.566 179.407 397.243 178.963 396.987C178.518 396.73 178.068 396.567 177.612 396.498C177.164 396.433 176.726 396.455 176.297 396.563C175.876 396.676 175.484 396.87 175.121 397.145C174.765 397.425 174.461 397.783 174.209 398.219C173.957 398.656 173.799 399.098 173.735 399.546C173.678 399.998 173.706 400.435 173.819 400.855C173.94 401.281 174.14 401.671 174.42 402.027C174.708 402.387 175.074 402.695 175.519 402.952C175.963 403.209 176.422 403.366 176.895 403.423C177.373 403.473 177.864 403.417 178.367 403.255L178.825 404.812C178.163 405.045 177.475 405.116 176.761 405.027C176.047 404.938 175.339 404.691 174.636 404.285ZM183.371 409.167L184.127 407.857L184.203 407.529L185.526 405.238C185.783 404.793 185.847 404.373 185.721 403.976C185.599 403.572 185.267 403.213 184.725 402.9C184.362 402.69 183.969 402.539 183.548 402.447C183.135 402.36 182.749 402.347 182.39 402.409L182.433 400.963C182.935 400.897 183.461 400.937 184.013 401.083C184.577 401.225 185.118 401.446 185.635 401.744C186.573 402.286 187.166 402.93 187.413 403.676C187.674 404.42 187.534 405.26 186.992 406.198L184.801 409.993L183.371 409.167ZM181.285 408.075C180.8 407.795 180.422 407.47 180.152 407.098C179.886 406.718 179.736 406.325 179.702 405.917C179.681 405.506 179.777 405.114 179.992 404.743C180.202 404.379 180.476 404.1 180.814 403.907C181.16 403.719 181.579 403.654 182.074 403.713C182.568 403.772 183.142 403.991 183.797 404.369L185.676 405.454L185.095 406.46L183.325 405.438C182.807 405.139 182.411 405.024 182.135 405.091C181.864 405.15 181.658 405.3 181.518 405.543C181.36 405.818 181.343 406.099 181.468 406.387C181.593 406.674 181.849 406.93 182.237 407.154C182.609 407.369 182.989 407.475 183.378 407.473C183.775 407.476 184.134 407.35 184.455 407.093L184.184 408.149C183.82 408.445 183.387 408.588 182.885 408.579C182.392 408.575 181.859 408.407 181.285 408.075ZM188.698 412.355C188.156 412.043 187.675 411.673 187.253 411.246C186.844 410.816 186.552 410.416 186.378 410.046L187.625 409.23C187.808 409.584 188.067 409.938 188.401 410.293C188.736 410.647 189.105 410.941 189.509 411.175C189.986 411.45 190.367 411.584 190.651 411.576C190.944 411.572 191.154 411.462 191.28 411.243C191.382 411.066 191.387 410.89 191.293 410.717C191.203 410.536 191.055 410.354 190.849 410.17C190.642 409.986 190.405 409.79 190.138 409.582C189.878 409.378 189.621 409.16 189.368 408.927C189.127 408.691 188.927 408.441 188.767 408.176C188.612 407.903 188.527 407.612 188.512 407.301C188.497 406.991 188.597 406.65 188.812 406.278C189.05 405.866 189.372 405.578 189.779 405.414C190.191 405.242 190.654 405.197 191.167 405.278C191.694 405.356 192.248 405.562 192.83 405.898C193.266 406.15 193.679 406.453 194.068 406.807C194.456 407.161 194.745 407.51 194.933 407.856L193.686 408.672C193.486 408.309 193.247 408.004 192.969 407.757C192.704 407.507 192.418 407.293 192.111 407.116C191.65 406.85 191.267 406.72 190.961 406.727C190.664 406.738 190.454 406.849 190.333 407.059C190.221 407.253 190.21 407.441 190.299 407.622C190.389 407.803 190.534 407.989 190.736 408.181C190.938 408.373 191.168 408.571 191.428 408.775C191.7 408.975 191.957 409.193 192.198 409.429C192.439 409.665 192.639 409.916 192.799 410.18C192.971 410.442 193.065 410.727 193.08 411.038C193.095 411.348 192.997 411.685 192.787 412.049C192.554 412.453 192.229 412.735 191.814 412.894C191.407 413.057 190.936 413.098 190.402 413.016C189.872 412.926 189.304 412.705 188.698 412.355ZM200.44 410.292C200.957 410.591 201.36 410.958 201.647 411.393C201.943 411.833 202.086 412.331 202.078 412.887C202.074 413.434 201.884 414.035 201.506 414.69L199.364 418.4L197.848 417.525L199.878 414.009C200.209 413.435 200.319 412.927 200.208 412.486C200.104 412.049 199.81 411.69 199.325 411.41C198.97 411.205 198.612 411.096 198.254 411.083C197.895 411.07 197.555 411.164 197.233 411.366C196.924 411.565 196.644 411.883 196.392 412.319L194.502 415.593L192.986 414.718L198.18 405.722L199.696 406.597L197.232 410.865L197.212 410.142C197.677 409.861 198.186 409.734 198.74 409.763C199.308 409.789 199.874 409.965 200.44 410.292ZM204.826 421.667C204.276 421.35 203.857 420.946 203.569 420.456C203.281 419.966 203.151 419.407 203.18 418.777C203.223 418.144 203.461 417.452 203.895 416.7C204.333 415.94 204.818 415.39 205.349 415.05C205.887 414.714 206.438 414.553 207.002 414.566C207.579 414.575 208.13 414.732 208.655 415.035C209.294 415.404 209.776 415.865 210.102 416.42C210.437 416.98 210.603 417.588 210.601 418.244C210.607 418.905 210.417 419.571 210.03 420.242C209.642 420.913 209.161 421.411 208.585 421.736C208.018 422.065 207.406 422.229 206.749 422.228C206.106 422.223 205.465 422.036 204.826 421.667ZM201.286 419.51L206.48 410.514L207.996 411.389L205.672 415.414L204.556 417.066L203.611 418.815L202.729 420.343L201.286 419.51ZM205.405 420.272C205.769 420.482 206.139 420.587 206.515 420.589C206.899 420.595 207.265 420.494 207.612 420.285C207.959 420.076 208.252 419.765 208.49 419.353C208.733 418.933 208.855 418.524 208.858 418.127C208.866 417.722 208.771 417.354 208.573 417.025C208.384 416.7 208.107 416.432 207.743 416.222C207.379 416.012 207.005 415.904 206.621 415.898C206.237 415.891 205.871 415.993 205.524 416.202C205.182 416.403 204.889 416.714 204.646 417.134C204.408 417.546 204.286 417.955 204.278 418.36C204.27 418.765 204.365 419.132 204.563 419.462C204.761 419.792 205.041 420.062 205.405 420.272ZM213.504 426.564L214.26 425.255L214.336 424.927L215.659 422.635C215.916 422.191 215.981 421.77 215.854 421.374C215.732 420.969 215.4 420.61 214.859 420.298C214.495 420.088 214.102 419.937 213.682 419.845C213.269 419.757 212.883 419.744 212.523 419.806L212.566 418.36C213.068 418.294 213.594 418.334 214.146 418.48C214.71 418.623 215.251 418.843 215.768 419.142C216.706 419.683 217.299 420.327 217.547 421.074C217.807 421.817 217.667 422.657 217.126 423.595L214.935 427.39L213.504 426.564ZM211.418 425.473C210.933 425.193 210.555 424.867 210.285 424.495C210.019 424.116 209.869 423.722 209.835 423.314C209.814 422.903 209.911 422.512 210.125 422.14C210.335 421.776 210.609 421.498 210.947 421.305C211.293 421.117 211.713 421.052 212.207 421.111C212.701 421.17 213.275 421.388 213.93 421.766L215.809 422.851L215.228 423.858L213.458 422.836C212.941 422.537 212.544 422.421 212.268 422.488C211.997 422.547 211.792 422.698 211.652 422.94C211.493 423.215 211.476 423.496 211.601 423.784C211.726 424.072 211.982 424.328 212.37 424.552C212.742 424.766 213.123 424.873 213.512 424.871C213.909 424.874 214.267 424.747 214.588 424.49L214.318 425.547C213.953 425.842 213.52 425.986 213.019 425.977C212.526 425.972 211.992 425.804 211.418 425.473ZM219.813 430.32C219.134 429.928 218.609 429.436 218.239 428.845C217.882 428.251 217.698 427.617 217.689 426.943C217.679 426.269 217.858 425.613 218.227 424.975C218.6 424.328 219.079 423.844 219.663 423.524C220.251 423.196 220.89 423.042 221.578 423.062C222.275 423.087 222.963 423.296 223.642 423.688C224.272 424.052 224.751 424.501 225.079 425.035C225.419 425.565 225.572 426.149 225.538 426.787L223.982 426.794C223.966 426.375 223.858 426.011 223.659 425.702C223.468 425.398 223.211 425.153 222.888 424.966C222.516 424.751 222.134 424.638 221.742 424.627C221.349 424.616 220.979 424.715 220.632 424.925C220.29 425.126 219.997 425.436 219.755 425.857C219.512 426.277 219.387 426.69 219.379 427.095C219.376 427.492 219.478 427.858 219.684 428.192C219.889 428.526 220.178 428.801 220.55 429.015C220.873 429.202 221.214 429.302 221.573 429.315C221.94 429.333 222.309 429.244 222.68 429.049L223.452 430.4C222.922 430.74 222.337 430.904 221.698 430.891C221.072 430.874 220.443 430.684 219.813 430.32ZM225.947 431.824L227.082 429.942L232.271 428.767L234.09 429.817L229.55 431.043L228.365 431.248L225.947 431.824ZM223.877 432.553L229.071 423.557L230.587 424.432L225.393 433.428L223.877 432.553ZM228.763 435.374L228.086 431.087L229.744 430.428L230.606 436.438L228.763 435.374Z" fill="#7D7D7D"/>
<rect x="448.539" y="156.641" width="36.4948" height="36.4948" rx="15.4762" transform="rotate(30 448.539 156.641)" fill="#151C30"/>
<rect x="448.722" y="157.324" width="35.4948" height="35.4948" rx="14.9762" transform="rotate(30 448.722 157.324)" stroke="#C68C43"/>
<path d="M456.953 187.971C455.798 188.12 454.788 187.733 454.788 187.733C455.717 187.635 457.754 187.027 457.858 185.153C457.962 183.279 455.705 180.722 455.705 180.722C455.705 180.722 452.364 180.047 450.792 181.073C449.219 182.099 449.713 184.168 450.093 185.022C450.093 185.022 449.252 184.34 448.804 183.266C448.804 183.266 445.846 183.854 444.468 185.719C444.468 185.719 447.028 185.429 451.498 188.01C455.968 190.59 456.997 192.953 456.997 192.953C457.923 190.828 456.953 187.971 456.953 187.971ZM453.213 185.797L452.572 186.152L452.559 185.419C450.539 184.041 451.065 182.244 451.065 182.244L452.468 182.238L452.471 181.576L453.806 184.008L456.583 183.949L456.01 184.284L456.707 185.501C456.707 185.501 455.414 186.856 453.212 185.796L453.213 185.797Z" fill="white"/>
<path d="M464.629 178.613C464.629 178.613 466.354 179.895 466.721 181.296C466.721 181.296 466.829 177.955 463.94 176.287C461.05 174.619 458.778 175.401 458.778 175.401C458.778 175.401 458.319 173.042 455.431 171.374C452.542 169.707 449.702 171.471 449.702 171.471C451.097 171.086 453.072 171.94 453.072 171.94C451.357 171.524 449.215 172.624 448.016 174.73C446.816 176.836 446.76 178.808 447.449 179.464C448.139 180.12 449.012 179.598 450.862 179.157C452.712 178.716 454.033 179.241 454.033 179.241C453.139 178.002 452.155 177.855 451.204 177.652C450.252 177.449 449.546 177.162 449.624 175.958C449.702 174.754 451.176 174.234 451.176 174.234C450.634 174.026 449.932 174.148 449.932 174.148C451.003 173.335 451.748 173.374 452.704 173.881C453.66 174.388 453.946 174.884 454.608 176.004C455.27 177.125 455.756 178.263 456.506 178.139C457.256 178.014 457.314 176.166 457.314 176.166C457.658 176.847 457.436 177.727 457.436 177.727C457.436 177.727 458.087 177.094 458.849 177.052C458.849 177.052 457.275 178.025 457.544 178.738C457.813 179.451 459.04 179.301 460.341 179.314C461.643 179.328 462.215 179.327 463.132 179.902C464.05 180.476 464.453 181.105 464.285 182.436C464.285 182.436 464.039 181.767 463.588 181.402C463.588 181.402 463.875 182.938 462.871 183.608C461.867 184.278 461.265 183.81 460.614 183.087C459.963 182.365 459.344 181.586 457.823 181.431C457.823 181.431 458.938 182.315 459.482 184.135C460.026 185.955 460.011 186.972 460.922 187.244C461.833 187.517 463.512 186.481 464.739 184.387C465.965 182.293 465.847 179.89 464.629 178.613Z" fill="white"/>
<path d="M463.944 176.288C461.052 174.619 458.771 175.411 458.771 175.411C458.771 175.411 458.317 173.04 455.425 171.37C453.272 170.127 451.142 170.796 450.196 171.219C451.959 170.764 456.184 170.394 458.209 176.388C464.413 175.144 466.204 178.988 466.692 180.743C466.582 179.711 466.097 177.532 463.944 176.288Z" fill="#C4C4C4"/>
<path d="M451.167 177.618C450.213 177.416 449.505 177.128 449.585 175.919C449.664 174.71 451.143 174.187 451.143 174.187C450.707 174.02 450.169 174.066 449.972 174.091C449.177 174.533 448.191 175.597 447.979 178.16C447.979 178.16 447.304 177.449 447.483 175.677C446.767 177.395 446.819 178.883 447.403 179.437C448.096 180.092 448.97 179.571 450.826 179.127C452.681 178.682 454.005 179.209 454.005 179.209C453.108 177.968 452.121 177.821 451.167 177.618Z" fill="#C4C4C4"/>
<path d="M461.715 186.089C463.851 184.608 464.265 183.207 464.242 182.3C464.151 182.093 463.929 181.65 463.592 181.376C463.592 181.376 463.878 182.917 462.871 183.59C461.864 184.264 461.262 183.795 460.61 183.07C459.958 182.346 459.338 181.565 457.814 181.411C457.814 181.411 458.93 182.297 459.474 184.123C460.018 185.948 460.002 186.967 460.915 187.24C461.692 187.47 463.026 186.754 464.163 185.243C462.69 186.325 461.715 186.089 461.715 186.089Z" fill="#C4C4C4"/>
<path d="M457.009 192.927C456.607 191.958 455.427 189.758 452.452 187.872C448.503 185.366 447.749 185.812 447.624 184.972C447.5 184.132 450.089 185.031 450.089 185.031C450.089 185.031 449.248 184.349 448.799 183.276C448.799 183.276 445.844 183.86 444.469 185.719C444.469 185.719 447.027 185.433 451.497 188.013C455.967 190.594 456.998 192.952 456.998 192.952C457.002 192.946 457.005 192.936 457.009 192.927Z" fill="#C4C4C4"/>
<g style="mix-blend-mode:soft-light">
<mask id="mask1_6456_58228" style="mask-type:alpha" maskUnits="userSpaceOnUse" x="435" y="162" width="40" height="39">
<rect x="448.539" y="156.64" width="36.4948" height="36.4948" rx="15.4762" transform="rotate(30 448.539 156.64)" fill="#101520"/>
</mask>
<g mask="url(#mask1_6456_58228)">
<g filter="url(#filter5_f_6456_58228)">
<path d="M423.325 190.165L486.139 173.334" stroke="white" stroke-width="0.52"/>
</g>
<g filter="url(#filter6_f_6456_58228)">
<path d="M414.402 192.556L495.063 170.943" stroke="white" stroke-width="1.3"/>
</g>
<g filter="url(#filter7_f_6456_58228)">
<path d="M414.402 192.556L495.063 170.943" stroke="white" stroke-width="1.3"/>
</g>
<g opacity="0.5" filter="url(#filter8_f_6456_58228)">
<path d="M420.489 180.48L483.303 163.648" stroke="white" stroke-width="0.52"/>
</g>
<g opacity="0.5" filter="url(#filter9_f_6456_58228)">
<path d="M422.973 200.919L485.788 184.088" stroke="white" stroke-width="0.26"/>
</g>
</g>
</g>
<path d="M175.539 283.305C175.068 283.76 156.201 262.047 156.201 262.047C155.317 249.774 155.805 237.461 157.656 225.332L197.868 248.548L175.539 283.305Z" fill="url(#paint16_linear_6456_58228)"/>
<path d="M165.328 229.761C165.328 229.761 163.699 254.259 164.23 257.339L184.239 269.596L185.026 268.232C185.026 268.232 166.338 257.647 165.735 256.253C165.131 254.859 166.523 230.451 166.523 230.451L165.328 229.761Z" fill="#394773"/>
<path d="M165.328 229.761L164.23 257.339C163.777 252.557 163.627 247.755 163.78 242.962C164.128 236.639 165.328 229.761 165.328 229.761Z" fill="white"/>
<g style="mix-blend-mode:soft-light" opacity="0.5">
<path d="M167.454 232.716C166.401 238.179 166.572 252.121 167.853 252.861C169.135 253.601 184.21 261.964 186.799 260.64C189.388 259.316 196.489 249.776 195.412 248.881C194.336 247.987 167.982 230.202 167.454 232.716Z" fill="white"/>
</g>
<g style="mix-blend-mode:soft-light" opacity="0.5">
<path d="M158.521 226.875C157.854 232.469 156.622 246.921 157.531 247.627C158.439 248.334 161.51 250.653 162.298 249.289C163.558 247.106 164.744 230.855 163.526 229.765C162.308 228.675 158.683 225.514 158.521 226.875Z" fill="white"/>
</g>
<path style="mix-blend-mode:multiply" opacity="0.5" d="M157.641 249.671C156.651 250.986 157.816 261.366 158.355 262.473C158.894 263.579 173.649 279.736 175.299 279.598C176.949 279.459 186.262 264.808 185.531 263.795C184.8 262.782 158.745 248.239 157.641 249.671Z" fill="url(#paint17_linear_6456_58228)"/>
<path style="mix-blend-mode:multiply" opacity="0.5" d="M184.359 240.749C180.002 252.783 174.462 264.348 167.818 275.279L175.537 283.305L197.941 248.5L184.359 240.749Z" fill="url(#paint18_linear_6456_58228)"/>
<path d="M300.277 355.324C300.136 355.969 328.426 361.482 328.426 361.482C339.52 356.099 349.959 349.5 359.551 341.806L319.27 318.549L300.277 355.324Z" fill="url(#paint19_linear_6456_58228)"/>
<path d="M351.774 337.405C351.774 337.405 331.355 351.054 328.439 352.145L307.803 340.935L308.59 339.571C308.59 339.571 327.119 350.473 328.628 350.298C330.137 350.124 350.579 336.715 350.579 336.715L351.774 337.405Z" fill="#394773"/>
<path d="M351.774 337.404L328.44 352.144C332.805 350.147 337.034 347.872 341.099 345.336C346.401 341.872 351.774 337.404 351.774 337.404Z" fill="white"/>
<g style="mix-blend-mode:soft-light" opacity="0.5">
<path d="M348.148 337.041C343.961 340.693 331.794 347.49 330.495 346.74C329.196 345.99 314.451 337.136 314.286 334.222C314.121 331.308 318.867 320.408 320.163 320.883C321.458 321.359 350.062 335.327 348.148 337.041Z" fill="white"/>
</g>
<g style="mix-blend-mode:soft-light" opacity="0.5">
<path d="M357.66 341.848C353.149 345.223 341.266 353.525 340.2 353.092C339.134 352.658 335.573 351.148 336.309 349.754C337.569 347.571 351.05 338.419 352.603 338.929C354.156 339.439 358.723 341.007 357.66 341.848Z" fill="white"/>
</g>
<path style="mix-blend-mode:multiply" opacity="0.5" d="M338.355 354.005C337.728 355.53 328.139 359.701 326.929 359.798C325.718 359.895 304.348 355.195 303.609 353.677C302.869 352.159 311.022 336.838 312.195 336.924C313.369 337.011 339.06 352.344 338.355 354.005Z" fill="url(#paint20_linear_6456_58228)"/>
<path style="mix-blend-mode:multiply" opacity="0.5" d="M332.739 326.416C324.497 336.206 317.251 346.787 311.107 358.006L300.279 355.324L319.219 318.519L332.739 326.416Z" fill="url(#paint21_linear_6456_58228)"/>
<path d="M306.532 201.075L219.1 200.495L167.558 289.768L211.786 365.18L299.209 365.777L350.751 276.504L306.532 201.075Z" fill="url(#paint22_linear_6456_58228)"/>
<path d="M183.364 289.868L227.1 214.116L298.717 214.612L334.938 276.376L291.203 352.129L219.603 351.642L183.364 289.868Z" fill="url(#paint23_linear_6456_58228)"/>
<path d="M188.639 289.89L229.757 218.673L296.118 219.114L329.664 276.354L288.546 347.572L222.202 347.141L188.639 289.89Z" fill="#736FA8"/>
<g style="mix-blend-mode:soft-light" opacity="0.5">
<path d="M220.619 201.667C218.417 203.601 223.711 210.59 229.239 212.372C234.768 214.155 296.555 214.16 299.042 212.412C301.308 209.269 303.251 205.905 304.84 202.37C303.229 201.44 221.687 200.737 220.619 201.667Z" fill="white"/>
</g>
<g style="mix-blend-mode:soft-light" opacity="0.5">
<path d="M348.666 275.596C348.092 278.47 339.392 277.38 335.067 273.473C330.742 269.567 300.459 216.074 300.131 213.042C299.957 211.464 304.838 202.37 305.929 203C307.557 203.94 348.937 274.206 348.666 275.596Z" fill="white"/>
</g>
<path style="mix-blend-mode:multiply" opacity="0.5" d="M191.232 252.401C189.236 254.818 168.652 287.991 170.028 289.127C171.405 290.263 181.316 289.574 183.023 287.536C184.731 285.498 198.217 262.459 198.96 259.932C199.703 257.406 194.528 248.371 191.232 252.401Z" fill="url(#paint24_linear_6456_58228)"/>
<path style="mix-blend-mode:multiply" opacity="0.5" d="M319.474 326.44C318.361 329.367 299.942 363.789 298.27 363.165C296.599 362.541 292.24 353.614 293.151 351.116C294.062 348.618 307.271 325.419 309.088 323.512C310.904 321.606 321.298 321.56 319.474 326.44Z" fill="url(#paint25_linear_6456_58228)"/>
<path style="mix-blend-mode:multiply" opacity="0.5" d="M171.144 290.997C171.271 292.617 210.644 361.361 211.527 361.87C211.978 362.13 217.488 353.945 218.069 352.939C219.614 350.263 183.012 292.598 182.242 291.812C181.108 290.657 171.027 289.361 171.144 290.997Z" fill="url(#paint26_linear_6456_58228)"/>
<path style="mix-blend-mode:multiply" opacity="0.5" d="M295.919 364.24C294.453 364.939 214.21 364.464 213.31 363.944C215.218 360.128 217.423 356.469 219.906 352.999C222.904 352.206 288.791 353.669 289.822 353.923C291.389 354.328 297.412 363.533 295.919 364.24Z" fill="url(#paint27_linear_6456_58228)"/>
<path style="mix-blend-mode:multiply" opacity="0.5" d="M192.019 289.318C199.944 267.592 202.568 267.447 232.25 273.467C261.932 279.488 316.41 282.274 314.685 293.781C312.96 305.288 288.789 344.234 286.747 345.851C284.705 347.468 227.038 347.046 223.414 345.044C219.789 343.043 191.137 291.764 192.019 289.318Z" fill="url(#paint28_linear_6456_58228)"/>
<g style="mix-blend-mode:soft-light" opacity="0.3">
<path d="M328.304 276.229C327.566 275.508 297.243 223.764 294.658 222.522C292.074 221.28 252.319 217.628 233.135 221.101C227.988 222.017 204.109 266.336 207.74 267.364C211.372 268.393 223.913 252.15 264.553 262.428C304.439 272.612 314.536 289.558 317.435 293.255C318.275 294.24 330.038 277.866 328.304 276.229Z" fill="white"/>
</g>
<path style="mix-blend-mode:multiply" opacity="0.5" d="M183.366 289.868L227.102 214.116L298.748 214.561L334.94 276.376L291.204 352.129L288.558 347.554C288.558 347.554 326.807 281.865 326.561 278.972C325.618 268.607 296.132 227.691 288.434 225.906C280.736 224.122 236.508 218.5 228.922 222.441C226.368 223.785 188.641 289.89 188.641 289.89L183.366 289.868Z" fill="url(#paint29_linear_6456_58228)"/>
<g style="mix-blend-mode:soft-light" opacity="0.2">
<path d="M285.111 261.454C295.047 275.238 315.233 287.029 317.755 286.939C320.278 286.85 326.4 279.086 324.317 275.974C322.234 272.862 306.146 247.456 299.32 245.242C292.493 243.028 283.361 258.966 285.111 261.454Z" fill="white"/>
</g>
<path d="M203.399 227.69C203.517 227.485 218.51 202.837 220.704 201.717C222.898 200.596 303.843 202.455 305.929 203C308.016 203.545 323.501 230.036 323.501 230.036L306.532 201.075L219.068 200.59L203.399 227.69Z" fill="url(#paint30_linear_6456_58228)"/>
<path d="M314.523 241.585C314.523 241.585 334.093 274.48 333.438 276.534C332.783 278.588 305.162 327.909 305.162 327.909C305.162 327.909 333.986 278.624 334.92 276.367C335.854 274.11 314.523 241.585 314.523 241.585Z" fill="white"/>
<path d="M203.13 255.632C203.13 255.632 225.803 214.163 227.075 213.079C228.347 211.995 298.717 214.613 298.717 214.613C298.717 214.613 229.748 213.849 227.601 215.087C225.454 216.326 203.13 255.632 203.13 255.632Z" fill="white"/>
<path style="mix-blend-mode:multiply" d="M167.559 289.768L211.77 365.169L299.175 365.756L310.919 345.416C310.919 345.416 300.117 362.845 297.487 364.281C294.856 365.718 216.45 365.462 213.309 363.944C210.168 362.426 170.248 292.389 170.031 289.126C169.813 285.863 193.832 244.262 193.832 244.262L167.559 289.768Z" fill="url(#paint31_linear_6456_58228)"/>
<path d="M194.526 270.534C194.526 270.534 184.255 287.883 184.396 289.919C184.536 291.955 201.718 321.267 201.718 321.267C201.718 321.267 182.15 291.169 182.422 290.098C182.694 289.027 194.526 270.534 194.526 270.534Z" fill="white"/>
<g style="mix-blend-mode:soft-light" opacity="0.5">
<path d="M196.452 318.634C194.512 317.514 187.834 316.523 188.266 318.454C188.698 320.386 210.05 358.311 212.942 361.822C213.898 362.965 218.167 355.291 217.974 351.906C217.882 350.466 202.489 322.096 196.452 318.634Z" fill="white"/>
</g>
<path d="M321.198 229.184C319.376 228.7 320.878 238.297 323.054 240.326C325.231 242.356 329.691 242.589 329.185 240.706C328.679 238.823 324.031 229.956 321.198 229.184Z" fill="white"/>
<path d="M329.155 242.439C326.401 241.69 324.842 254.589 325.666 257.52C326.491 260.451 341.417 273.433 342.77 270.168C344.124 266.904 333.044 243.502 329.155 242.439Z" fill="white"/>
<path style="mix-blend-mode:multiply" opacity="0.5" d="M258.365 354.61C253.431 359.876 251.579 363.604 252.356 364.098C253.133 364.592 291.779 364.126 292.971 363.859C294.164 363.593 291.623 355.556 289.192 354.608C286.761 353.659 260.204 352.625 258.365 354.61Z" fill="url(#paint32_linear_6456_58228)"/>
<path style="mix-blend-mode:multiply" opacity="0.5" d="M229.593 217.874C230.082 215.429 227.942 214.216 226.432 216.39C224.923 218.565 200.075 260.802 200.885 261.36C201.694 261.919 204.679 260.868 205.309 259.936C205.939 259.005 229.352 219.053 229.593 217.874Z" fill="url(#paint33_linear_6456_58228)"/>
<path style="mix-blend-mode:multiply" opacity="0.5" d="M330.295 276.379C329.712 277.11 306.134 316.988 306.67 317.298C307.207 317.608 310.673 317.085 311.234 316.114C311.795 315.142 333.061 276.907 332.91 276.569C332.758 276.232 330.766 275.764 330.295 276.379Z" fill="url(#paint34_linear_6456_58228)"/>
<path style="mix-blend-mode:multiply" opacity="0.5" d="M296.492 218.466C296.039 219.25 265.312 218.879 264.776 218.569C264.239 218.259 266.457 214.856 267.477 214.809C268.498 214.761 298.602 214.411 298.52 214.954C297.923 216.168 297.245 217.342 296.492 218.466Z" fill="url(#paint35_linear_6456_58228)"/>
<path d="M283.406 351.674C281.934 350.824 275.304 350.748 274.878 352.366C274.452 353.984 276.659 357.281 277.928 356.923C279.197 356.564 284.356 352.268 283.406 351.674Z" fill="#394773"/>
<path d="M284.759 353.773C283.973 353.933 281.92 354.93 282.514 356.342C283.107 357.753 287.445 357.438 287.332 356.555C287.219 355.671 285.744 353.546 284.759 353.773Z" fill="#394773"/>
<path style="mix-blend-mode:multiply" opacity="0.5" d="M276.512 351.421C274.298 352.416 278.754 356.375 280.209 355.374C281.665 354.373 284.432 352.06 283.495 351.724C281.199 351.202 278.833 351.1 276.512 351.421Z" fill="url(#paint36_linear_6456_58228)"/>
<path d="M275.131 351.967C274.929 353.124 275.146 354.32 275.744 355.344C276.528 356.706 277.621 357.133 278.238 356.784C277.746 356.957 277.208 356.957 276.711 356.786C276.214 356.615 275.788 356.282 275.503 355.842C273.716 353.378 275.131 351.967 275.131 351.967Z" fill="#DAE1EF"/>
<path style="mix-blend-mode:multiply" opacity="0.5" d="M285.292 354.127C283.45 354.678 283.319 356.944 284.019 357.211C284.719 357.479 287.36 357.344 287.331 356.554C287.302 355.765 285.682 354.011 285.292 354.127Z" fill="url(#paint37_linear_6456_58228)"/>
<path d="M284.759 353.773C284.759 353.773 282.885 354.579 282.828 355.637C282.771 356.695 283.378 357.045 283.378 357.045C283.378 357.045 281.584 357.033 281.846 355.979C282.328 354.143 284.759 353.773 284.759 353.773Z" fill="#DAE1EF"/>
<path d="M289.961 214.103C287.029 211.183 282.786 211.733 280.223 212.573C277.66 213.412 277.943 214.962 280.097 215.751C282.251 216.54 291.242 215.365 289.961 214.103Z" fill="#394773"/>
<path style="mix-blend-mode:multiply" opacity="0.5" d="M289.959 214.103C288.971 213.239 287.804 212.602 286.543 212.239C285.281 211.877 283.958 211.798 282.67 212.009C281.235 212.295 281.747 215.728 283.314 215.973C284.881 216.218 290.86 215.101 289.959 214.103Z" fill="url(#paint38_linear_6456_58228)"/>
<path d="M281.643 212.189C281.643 212.189 276.147 212.471 275.841 214C275.536 215.529 281.647 215.943 281.647 215.943C281.647 215.943 278.69 215.304 278.749 213.883C278.807 212.462 281.643 212.189 281.643 212.189Z" fill="white"/>
<path d="M185.371 291.709C183.217 291.08 186.626 298.095 187.824 299.059C189.022 300.023 189.625 295.939 189.336 294.999C188.318 293.585 186.952 292.452 185.371 291.709Z" fill="white"/>
<path d="M234.839 325.134L189.406 246.89C185.695 249.604 182.386 252.819 179.573 256.443L179.744 266.386L224.464 343.104L313.265 343.474L321.545 338.411C323.686 334.423 325.098 330.082 325.716 325.588L234.839 325.134Z" fill="url(#paint39_linear_6456_58228)"/>
<path d="M179.741 266.386L179.57 256.443L227.061 338.603L321.543 338.411L313.262 343.474L224.462 343.104L179.741 266.386Z" fill="url(#paint40_linear_6456_58228)"/>
<path style="mix-blend-mode:multiply" opacity="0.5" d="M179.57 256.443L179.741 266.386L180.391 267.579L179.131 269.762C179.131 269.762 181.829 273.888 186.968 282.265C187.131 282.542 188.904 289.749 188.904 289.749C188.904 289.749 220.451 346.131 222.2 347.141C224.434 348.431 289.064 346.712 289.064 346.712C289.064 346.712 294.542 345.783 295.024 345.788L310.342 346.493L312.094 343.459L313.262 343.474L321.543 338.411L227.061 338.603L179.57 256.443Z" fill="url(#paint41_linear_6456_58228)"/>
<path style="mix-blend-mode:multiply" opacity="0.5" d="M234.837 325.134L227.06 338.603L321.542 338.411C323.614 334.394 325.022 330.065 325.713 325.588L234.837 325.134Z" fill="url(#paint42_linear_6456_58228)"/>
<g style="mix-blend-mode:soft-light" opacity="0.5">
<path d="M191.198 251.86C189.899 251.11 184.41 263.058 186.862 267.929C190.756 275.702 215.892 319.472 218.349 320.935C220.081 321.935 225.529 312.259 225.433 311.226C225.28 309.251 193.138 252.979 191.198 251.86Z" fill="white"/>
</g>
<g style="mix-blend-mode:soft-light" opacity="0.5">
<path d="M262.518 325.703C261.222 326.068 255.212 336.716 256.792 337.219C271.359 338.347 285.975 338.428 300.525 337.461C314.817 335.983 321.779 327.204 319.392 326.099C319.456 325.908 265.199 324.978 262.518 325.703Z" fill="white"/>
</g>
<path d="M203.941 298.702C203.941 298.702 225.371 336.694 227.483 337.914C229.596 339.134 264.506 338.579 264.506 338.579C264.506 338.579 227.404 339.891 226.659 339.461C225.915 339.031 203.941 298.702 203.941 298.702Z" fill="white"/>
<path d="M283.633 240.618L193.145 240.411C193.643 235.84 194.773 231.367 196.502 227.118L205.198 222.295L293.999 222.664L338.719 299.383L338.474 309.085C336.09 312.933 333.037 316.326 329.455 319.109L283.633 240.618Z" fill="url(#paint43_linear_6456_58228)"/>
<path d="M205.198 222.295L196.502 227.118L291.41 227.148L338.474 309.085L338.719 299.383L293.999 222.664L205.198 222.295Z" fill="url(#paint44_linear_6456_58228)"/>
<path style="mix-blend-mode:multiply" opacity="0.5" d="M283.634 240.618L291.41 227.149L338.475 309.086C336.031 312.889 332.986 316.273 329.455 319.11L283.634 240.618Z" fill="url(#paint45_linear_6456_58228)"/>
<g style="mix-blend-mode:soft-light" opacity="0.5">
<path d="M198.355 239.464C197.056 238.715 204.649 228.003 210.103 227.674C218.782 227.161 269.255 227.044 271.742 228.457C273.474 229.457 267.828 238.996 266.875 239.446C265.088 240.301 200.294 240.584 198.355 239.464Z" fill="white"/>
</g>
<g style="mix-blend-mode:soft-light" opacity="0.5">
<path d="M297.955 264.323C297.623 263.017 303.84 252.489 305.056 253.623C313.332 265.665 320.71 278.283 327.132 291.375C333.008 304.475 328.886 314.894 326.735 313.379C326.612 313.513 298.619 267.093 297.955 264.323Z" fill="white"/>
</g>
<path d="M245.284 227.092C245.284 227.092 288.891 226.672 291.004 227.891C293.117 229.111 310.101 259.604 310.101 259.604C310.101 259.604 292.686 226.817 291.942 226.387C291.197 225.957 245.284 227.092 245.284 227.092Z" fill="white"/>
<path style="mix-blend-mode:multiply" opacity="0.5" d="M196.046 240.426L283.633 240.617L328.122 316.816L325.846 319.64L316.351 307.929L311.982 307.498L278.112 250.82L211.173 250.978L208.338 247.25L193.831 244.262L196.046 240.426Z" fill="url(#paint46_linear_6456_58228)"/>
<path style="mix-blend-mode:multiply" opacity="0.5" d="M223.667 271.651L214.841 271.261L220.441 264.56L217.993 256.122L226.209 259.41L233.511 254.601L232.997 263.329L239.952 268.8L231.421 270.899L228.418 279.099L223.667 271.651Z" fill="url(#paint47_linear_6456_58228)"/>
<path d="M238.949 268.582L235.608 265.971L234.692 265.238L232.534 263.537L233.002 255.487L226.265 259.917L218.688 256.884L220.939 264.663L215.777 270.844L223.916 271.224L228.298 278.073L231.07 270.512L238.949 268.582Z" fill="url(#paint48_linear_6456_58228)"/>
<path style="mix-blend-mode:multiply" opacity="0.5" d="M218.652 256.864L227.421 265.473L220.921 264.653L218.652 256.864Z" fill="url(#paint49_linear_6456_58228)"/>
<path style="mix-blend-mode:multiply" opacity="0.5" d="M238.915 268.563L227.421 265.473L231.035 270.492L238.915 268.563Z" fill="url(#paint50_linear_6456_58228)"/>
<path style="mix-blend-mode:multiply" opacity="0.5" d="M223.879 271.204L227.419 265.473L215.74 270.824L223.879 271.204Z" fill="url(#paint51_linear_6456_58228)"/>
<path style="mix-blend-mode:multiply" opacity="0.5" d="M228.261 278.053L227.419 265.473L223.88 271.204L228.261 278.053Z" fill="url(#paint52_linear_6456_58228)"/>
<path style="mix-blend-mode:color-dodge" opacity="0.5" d="M232.965 255.467L227.419 265.473L232.497 263.517L232.965 255.467Z" fill="url(#paint53_linear_6456_58228)"/>
<path style="mix-blend-mode:color-dodge" opacity="0.5" d="M238.912 268.563L227.419 265.473L232.497 263.517L238.912 268.563Z" fill="url(#paint54_linear_6456_58228)"/>
<path style="mix-blend-mode:color-dodge" opacity="0.5" d="M238.912 268.563L227.419 265.473L232.497 263.517L238.912 268.563Z" fill="url(#paint55_linear_6456_58228)"/>
<path style="mix-blend-mode:color-dodge" opacity="0.5" d="M226.227 259.897L227.418 265.473L218.65 256.864L226.227 259.897Z" fill="url(#paint56_linear_6456_58228)"/>
<g style="mix-blend-mode:color-dodge" opacity="0.8">
<path d="M231.305 265.74C230.539 265.866 230.805 266.406 230.805 266.406L233.903 267.239C233.685 266.748 233.315 266.337 232.848 266.067C232.38 265.797 231.839 265.682 231.305 265.74Z" fill="white"/>
</g>
<path style="mix-blend-mode:multiply" opacity="0.5" d="M215.794 270.854C215.794 270.854 221.809 271.394 223.67 271.65L228.297 278.073L223.916 271.224L215.794 270.854Z" fill="url(#paint57_linear_6456_58228)"/>
<path style="mix-blend-mode:multiply" opacity="0.5" d="M218.652 256.864L227.421 265.473L218.992 266.995L218.652 256.864Z" fill="url(#paint58_linear_6456_58228)"/>
<path style="mix-blend-mode:multiply" opacity="0.5" d="M238.915 268.563L227.421 265.473L229.781 274.065L238.915 268.563Z" fill="url(#paint59_linear_6456_58228)"/>
<path style="mix-blend-mode:multiply" opacity="0.5" d="M215.775 270.844L227.419 265.473L228.296 278.073L222.605 273.492L215.775 270.844Z" fill="url(#paint60_linear_6456_58228)"/>
<g style="mix-blend-mode:soft-light" opacity="0.4">
<path d="M227.68 259.304C225.969 260.748 227.769 263.47 228.44 263.107C229.515 261.908 230.231 260.433 230.508 258.845C230.321 258.169 228.425 258.734 227.68 259.304Z" fill="#F7FFFF"/>
</g>
<g style="mix-blend-mode:soft-light" opacity="0.4">
<path d="M220.245 267.423C221.47 268.381 223.108 267.303 223.986 266.423C225.418 265.022 217.973 265.679 220.245 267.423Z" fill="#F7FFFF"/>
</g>
<path style="mix-blend-mode:multiply" opacity="0.5" d="M286.843 308.125L278.017 307.735L283.617 301.034L281.169 292.596L289.384 295.884L296.687 291.075L296.173 299.804L303.128 305.274L294.597 307.373L291.594 315.574L286.843 308.125Z" fill="url(#paint61_linear_6456_58228)"/>
<path d="M302.125 305.057L298.766 302.436L297.868 301.712L295.71 300.011L296.178 291.961L289.44 296.392L281.863 293.358L284.115 301.137L278.953 307.318L287.092 307.698L291.474 314.547L294.246 306.986L302.125 305.057Z" fill="url(#paint62_linear_6456_58228)"/>
<path style="mix-blend-mode:multiply" opacity="0.5" d="M281.828 293.339L290.597 301.948L284.079 301.118L281.828 293.339Z" fill="url(#paint63_linear_6456_58228)"/>
<path style="mix-blend-mode:multiply" opacity="0.5" d="M302.087 305.037L290.593 301.948L294.207 306.967L302.087 305.037Z" fill="url(#paint64_linear_6456_58228)"/>
<path style="mix-blend-mode:multiply" opacity="0.5" d="M287.055 307.679L290.595 301.948L278.915 307.299L287.055 307.679Z" fill="url(#paint65_linear_6456_58228)"/>
<path style="mix-blend-mode:multiply" opacity="0.5" d="M291.437 314.528L290.595 301.948L287.055 307.679L291.437 314.528Z" fill="url(#paint66_linear_6456_58228)"/>
<path style="mix-blend-mode:color-dodge" opacity="0.5" d="M296.141 291.942L290.595 301.948L295.672 299.992L296.141 291.942Z" fill="url(#paint67_linear_6456_58228)"/>
<path style="mix-blend-mode:color-dodge" opacity="0.5" d="M302.088 305.037L290.595 301.948L295.672 299.992L302.088 305.037Z" fill="url(#paint68_linear_6456_58228)"/>
<path style="mix-blend-mode:color-dodge" opacity="0.5" d="M302.088 305.037L290.595 301.948L295.672 299.992L302.088 305.037Z" fill="url(#paint69_linear_6456_58228)"/>
<path style="mix-blend-mode:color-dodge" opacity="0.5" d="M289.403 296.372L290.594 301.948L281.825 293.339L289.403 296.372Z" fill="url(#paint70_linear_6456_58228)"/>
<g style="mix-blend-mode:color-dodge" opacity="0.8">
<path d="M294.397 302.164C293.631 302.291 293.983 302.88 293.983 302.88L297.081 303.714C296.865 303.2 296.484 302.77 295.999 302.489C295.513 302.209 294.95 302.095 294.397 302.164Z" fill="white"/>
</g>
<path style="mix-blend-mode:multiply" opacity="0.5" d="M278.899 307.289C278.899 307.289 284.931 307.839 286.793 308.095L291.42 314.518L287.039 307.669L278.899 307.289Z" fill="url(#paint71_linear_6456_58228)"/>
<path style="mix-blend-mode:multiply" opacity="0.5" d="M281.828 293.339L290.597 301.948L282.168 303.469L281.828 293.339Z" fill="url(#paint72_linear_6456_58228)"/>
<path style="mix-blend-mode:multiply" opacity="0.5" d="M302.087 305.037L290.593 301.948L292.953 310.539L302.087 305.037Z" fill="url(#paint73_linear_6456_58228)"/>
<path style="mix-blend-mode:multiply" opacity="0.5" d="M278.951 307.319L290.595 301.948L291.471 314.548L285.781 309.967L278.951 307.319Z" fill="url(#paint74_linear_6456_58228)"/>
<g style="mix-blend-mode:soft-light" opacity="0.4">
<path d="M290.856 295.779C289.145 297.223 290.945 299.945 291.616 299.582C292.694 298.384 293.405 296.903 293.667 295.31C293.497 294.644 291.566 295.188 290.856 295.779Z" fill="#F7FFFF"/>
</g>
<g style="mix-blend-mode:soft-light" opacity="0.4">
<path d="M283.401 303.888C284.643 304.855 286.281 303.778 287.159 302.898C288.591 301.497 281.146 302.154 283.401 303.888Z" fill="#F7FFFF"/>
</g>
<path style="mix-blend-mode:multiply" opacity="0.5" d="M254.929 289.698L246.103 289.308L251.703 282.607L249.255 274.169L257.47 277.457L264.773 272.648L264.259 281.377L271.214 286.847L262.683 288.946L259.662 297.137L254.929 289.698Z" fill="url(#paint75_linear_6456_58228)"/>
<path d="M270.19 286.62L266.849 284.009L265.95 283.285L263.774 281.575L264.26 273.535L257.523 277.965L249.945 274.932L252.197 282.711L247.035 288.892L255.174 289.272L259.556 296.121L262.328 288.56L270.19 286.62Z" fill="url(#paint76_linear_6456_58228)"/>
<path style="mix-blend-mode:multiply" opacity="0.5" d="M249.91 274.912L258.679 283.521L252.162 282.69L249.91 274.912Z" fill="url(#paint77_linear_6456_58228)"/>
<path style="mix-blend-mode:multiply" opacity="0.5" d="M270.155 286.6L258.679 283.521L262.293 288.54L270.155 286.6Z" fill="url(#paint78_linear_6456_58228)"/>
<path style="mix-blend-mode:multiply" opacity="0.5" d="M255.141 289.252L258.681 283.521L247.001 288.872L255.141 289.252Z" fill="url(#paint79_linear_6456_58228)"/>
<path style="mix-blend-mode:multiply" opacity="0.5" d="M259.523 296.1L258.681 283.52L255.141 289.251L259.523 296.1Z" fill="url(#paint80_linear_6456_58228)"/>
<path style="mix-blend-mode:color-dodge" opacity="0.5" d="M264.223 273.515L258.677 283.521L263.737 281.555L264.223 273.515Z" fill="url(#paint81_linear_6456_58228)"/>
<path style="mix-blend-mode:color-dodge" opacity="0.5" d="M270.157 286.6L258.68 283.52L263.741 281.554L270.157 286.6Z" fill="url(#paint82_linear_6456_58228)"/>
<path style="mix-blend-mode:color-dodge" opacity="0.5" d="M270.157 286.6L258.68 283.52L263.741 281.554L270.157 286.6Z" fill="url(#paint83_linear_6456_58228)"/>
<path style="mix-blend-mode:color-dodge" opacity="0.5" d="M257.489 277.945L258.68 283.521L249.911 274.912L257.489 277.945Z" fill="url(#paint84_linear_6456_58228)"/>
<g style="mix-blend-mode:color-dodge" opacity="0.8">
<path d="M262.479 283.737C261.713 283.863 262.066 284.453 262.066 284.453L265.163 285.286C264.947 284.773 264.566 284.342 264.081 284.062C263.595 283.781 263.032 283.667 262.479 283.737Z" fill="white"/>
</g>
<path style="mix-blend-mode:multiply" opacity="0.5" d="M247.036 288.891C247.036 288.891 253.051 289.431 254.929 289.698L259.557 296.12L255.175 289.271L247.036 288.891Z" fill="url(#paint85_linear_6456_58228)"/>
<path style="mix-blend-mode:multiply" opacity="0.5" d="M249.91 274.912L258.679 283.521L250.25 285.042L249.91 274.912Z" fill="url(#paint86_linear_6456_58228)"/>
<path style="mix-blend-mode:multiply" opacity="0.5" d="M270.155 286.6L258.679 283.521L261.039 292.112L270.155 286.6Z" fill="url(#paint87_linear_6456_58228)"/>
<path style="mix-blend-mode:multiply" opacity="0.5" d="M247.033 288.891L258.677 283.52L259.554 296.12L253.863 291.539L247.033 288.891Z" fill="url(#paint88_linear_6456_58228)"/>
<g style="mix-blend-mode:soft-light" opacity="0.4">
<path d="M258.938 277.351C257.227 278.795 259.027 281.517 259.698 281.154C260.777 279.956 261.487 278.475 261.749 276.882C261.579 276.216 259.597 276.731 258.938 277.351Z" fill="#F7FFFF"/>
</g>
<g style="mix-blend-mode:soft-light" opacity="0.4">
<path d="M251.487 285.46C252.729 286.428 254.367 285.35 255.245 284.47C256.677 283.069 249.232 283.727 251.487 285.46Z" fill="#F7FFFF"/>
</g>
<path d="M334.699 73.0864L335.992 100.354C336.073 102.054 337.013 103.596 338.487 104.447L376.15 126.193C377.624 127.043 379.43 127.086 380.943 126.306L405.204 113.792L334.699 73.0864Z" fill="url(#paint89_linear_6456_58228)"/>
<path d="M363.999 95.3188L357.88 99.8689L358.797 92.3158L356.676 91.0908L355.437 101.692L357.377 102.812L365.951 96.4458L363.999 95.3188ZM361.759 105.342L363.723 106.476L368.623 97.9889L366.659 96.8549L361.759 105.342ZM374.311 101.273L370.638 99.1518L365.738 107.639L367.702 108.773L369.053 106.433L370.762 107.42C373.029 108.729 375.127 108.372 376.219 106.48C377.318 104.577 376.578 102.582 374.311 101.273ZM371.577 105.756L369.977 104.832L371.678 101.886L373.278 102.81C374.478 103.503 374.77 104.399 374.231 105.332C373.699 106.254 372.777 106.449 371.577 105.756Z" fill="white"/>
<path d="M247.975 51.42L249.721 52.428L246.627 62.863L254.085 54.948L255.831 55.956L246.797 65.1232L244.584 63.8452L247.975 51.42Z" fill="white"/>
<g style="mix-blend-mode:overlay">
<g style="mix-blend-mode:color-dodge">
<path fill-rule="evenodd" clip-rule="evenodd" d="M228.805 23.4952C231.566 18.7123 237.682 17.0735 242.465 19.835L495.006 165.64C499.789 168.401 501.428 174.517 498.666 179.3L419.649 316.161C418.012 318.996 415.092 320.85 411.83 321.126L408.613 321.397C405.351 321.673 402.431 323.527 400.794 326.362L383.755 355.874L364.611 389.032C362.975 391.867 362.829 395.323 364.222 398.286L365.595 401.207C366.987 404.17 366.842 407.626 365.205 410.461L289.698 541.244C286.936 546.027 280.82 547.666 276.037 544.904L23.4963 399.1C18.7134 396.338 17.0747 390.222 19.8361 385.439L94.3671 256.348C96.0039 253.513 98.9245 251.659 102.186 251.383L108.811 250.824C112.073 250.549 114.994 248.694 116.63 245.86L133.669 216.348C133.669 216.348 133.669 216.348 133.669 216.348C133.669 216.348 133.669 216.348 133.669 216.348L152.813 183.19C154.45 180.355 154.595 176.898 153.203 173.936L150.375 167.919C148.982 164.956 149.128 161.5 150.765 158.665L228.805 23.4952Z" fill="url(#paint90_linear_6456_58228)"/>
</g>
</g>
</g>
<defs>
<filter id="filter0_f_6456_58228" x="0.660156" y="0.658691" width="517.184" height="563.422" filterUnits="userSpaceOnUse" colorInterpolationFilters="sRGB">
<feFlood floodOpacity="0" result="BackgroundImageFix"/>
<feBlend mode="normal" in="SourceGraphic" in2="BackgroundImageFix" result="shape"/>
<feGaussianBlur stdDeviation="7" result="effect1_foregroundBlur_6456_58228"/>
</filter>
<filter id="filter1_b_6456_58228" x="19.9492" y="39.9902" width="257.973" height="358.155" filterUnits="userSpaceOnUse" colorInterpolationFilters="sRGB">
<feFlood floodOpacity="0" result="BackgroundImageFix"/>
<feGaussianBlur in="BackgroundImageFix" stdDeviation="13"/>
<feComposite in2="SourceAlpha" operator="in" result="effect1_backgroundBlur_6456_58228"/>
<feBlend mode="normal" in="SourceGraphic" in2="effect1_backgroundBlur_6456_58228" result="shape"/>
</filter>
<filter id="filter2_b_6456_58228" x="240.578" y="166.594" width="257.973" height="358.155" filterUnits="userSpaceOnUse" colorInterpolationFilters="sRGB">
<feFlood floodOpacity="0" result="BackgroundImageFix"/>
<feGaussianBlur in="BackgroundImageFix" stdDeviation="13"/>
<feComposite in2="SourceAlpha" operator="in" result="effect1_backgroundBlur_6456_58228"/>
<feBlend mode="normal" in="SourceGraphic" in2="effect1_backgroundBlur_6456_58228" result="shape"/>
</filter>
<filter id="filter3_i_6456_58228" x="14.6602" y="14.6587" width="489.184" height="539.422" filterUnits="userSpaceOnUse" colorInterpolationFilters="sRGB">
<feFlood floodOpacity="0" result="BackgroundImageFix"/>
<feBlend mode="normal" in="SourceGraphic" in2="BackgroundImageFix" result="shape"/>
<feColorMatrix in="SourceAlpha" type="matrix" values="0 0 0 0 0 0 0 0 0 0 0 0 0 0 0 0 0 0 127 0" result="hardAlpha"/>
<feOffset dy="5"/>
<feGaussianBlur stdDeviation="2"/>
<feComposite in2="hardAlpha" operator="arithmetic" k2="-1" k3="1"/>
<feColorMatrix type="matrix" values="0 0 0 0 0 0 0 0 0 0 0 0 0 0 0 0 0 0 0.25 0"/>
<feBlend mode="normal" in2="shape" result="effect1_innerShadow_6456_58228"/>
</filter>
<filter id="filter4_f_6456_58228" x="108.141" y="133.462" width="303.434" height="298.517" filterUnits="userSpaceOnUse" colorInterpolationFilters="sRGB">
<feFlood floodOpacity="0" result="BackgroundImageFix"/>
<feBlend mode="normal" in="SourceGraphic" in2="BackgroundImageFix" result="shape"/>
<feGaussianBlur stdDeviation="37.5" result="effect1_foregroundBlur_6456_58228"/>
</filter>
<filter id="filter5_f_6456_58228" x="421.074" y="170.899" width="67.3172" height="21.701" filterUnits="userSpaceOnUse" colorInterpolationFilters="sRGB">
<feFlood floodOpacity="0" result="BackgroundImageFix"/>
<feBlend mode="normal" in="SourceGraphic" in2="BackgroundImageFix" result="shape"/>
<feGaussianBlur stdDeviation="1.092" result="effect1_foregroundBlur_6456_58228"/>
</filter>
<filter id="filter6_f_6456_58228" x="412.05" y="168.131" width="85.3641" height="27.2367" filterUnits="userSpaceOnUse" colorInterpolationFilters="sRGB">
<feFlood floodOpacity="0" result="BackgroundImageFix"/>
<feBlend mode="normal" in="SourceGraphic" in2="BackgroundImageFix" result="shape"/>
<feGaussianBlur stdDeviation="1.092" result="effect1_foregroundBlur_6456_58228"/>
</filter>
<filter id="filter7_f_6456_58228" x="412.05" y="168.131" width="85.3641" height="27.2367" filterUnits="userSpaceOnUse" colorInterpolationFilters="sRGB">
<feFlood floodOpacity="0" result="BackgroundImageFix"/>
<feBlend mode="normal" in="SourceGraphic" in2="BackgroundImageFix" result="shape"/>
<feGaussianBlur stdDeviation="1.092" result="effect1_foregroundBlur_6456_58228"/>
</filter>
<filter id="filter8_f_6456_58228" x="418.238" y="161.213" width="67.3172" height="21.701" filterUnits="userSpaceOnUse" colorInterpolationFilters="sRGB">
<feFlood floodOpacity="0" result="BackgroundImageFix"/>
<feBlend mode="normal" in="SourceGraphic" in2="BackgroundImageFix" result="shape"/>
<feGaussianBlur stdDeviation="1.092" result="effect1_foregroundBlur_6456_58228"/>
</filter>
<filter id="filter9_f_6456_58228" x="420.757" y="181.779" width="67.2469" height="21.45" filterUnits="userSpaceOnUse" colorInterpolationFilters="sRGB">
<feFlood floodOpacity="0" result="BackgroundImageFix"/>
<feBlend mode="normal" in="SourceGraphic" in2="BackgroundImageFix" result="shape"/>
<feGaussianBlur stdDeviation="1.092" result="effect1_foregroundBlur_6456_58228"/>
</filter>
<linearGradient id="paint0_linear_6456_58228" x1="42.8256" y1="328.771" x2="303.905" y2="89.251" gradientUnits="userSpaceOnUse">
<stop stop-color="#060913"/>
<stop offset="0.136764" stop-color="#070A16"/>
<stop offset="0.197268" stop-color="#0D142E"/>
<stop offset="0.309253" stop-color="#070B17"/>
<stop offset="0.490764" stop-color="#080C1A"/>
<stop offset="0.661458" stop-color="#0B1125"/>
<stop offset="1" stop-color="#101010"/>
</linearGradient>
<linearGradient id="paint1_linear_6456_58228" x1="65.483" y1="375.15" x2="158.031" y2="391.392" gradientUnits="userSpaceOnUse">
<stop stop-color="#EECCA2"/>
<stop offset="0.260417" stop-color="#624A2C"/>
<stop offset="0.6875" stop-color="#FFDAAB"/>
<stop offset="1" stop-color="#C68C43"/>
</linearGradient>
<linearGradient id="paint2_linear_6456_58228" x1="475.674" y1="235.968" x2="214.595" y2="475.488" gradientUnits="userSpaceOnUse">
<stop stop-color="#060913"/>
<stop offset="0.136764" stop-color="#070A16"/>
<stop offset="0.197268" stop-color="#0D142E"/>
<stop offset="0.309253" stop-color="#070B17"/>
<stop offset="0.490764" stop-color="#080C1A"/>
<stop offset="0.661458" stop-color="#0B1125"/>
<stop offset="1" stop-color="#101010"/>
</linearGradient>
<linearGradient id="paint3_linear_6456_58228" x1="453.017" y1="189.59" x2="360.469" y2="173.348" gradientUnits="userSpaceOnUse">
<stop stop-color="#EECCA2"/>
<stop offset="0.260417" stop-color="#624A2C"/>
<stop offset="0.6875" stop-color="#FFDAAB"/>
<stop offset="1" stop-color="#C68C43"/>
</linearGradient>
<linearGradient id="paint4_linear_6456_58228" x1="454.285" y1="97.5576" x2="-31.3513" y2="424.971" gradientUnits="userSpaceOnUse">
<stop stop-color="#C68C43"/>
<stop offset="0.119792" stop-color="#F5BA6E"/>
<stop offset="0.286458" stop-color="#C68C43"/>
<stop offset="0.5625" stop-color="#C68C43"/>
<stop offset="0.770833" stop-color="#EEB873"/>
<stop offset="1" stop-color="#C68C43"/>
</linearGradient>
<linearGradient id="paint5_linear_6456_58228" x1="199.186" y1="86.0233" x2="460.538" y2="236.915" gradientUnits="userSpaceOnUse">
<stop stop-color="#8980EB"/>
<stop offset="1" stop-color="#705AB8"/>
</linearGradient>
<linearGradient id="paint6_linear_6456_58228" x1="260.217" y1="282.004" x2="418.418" y2="7.99181" gradientUnits="userSpaceOnUse">
<stop stop-color="#86759D"/>
<stop offset="0.39" stop-color="#98ABD2"/>
<stop offset="1" stop-color="#DAE1EF"/>
</linearGradient>
<linearGradient id="paint7_linear_6456_58228" x1="206.332" y1="94.5005" x2="329.671" y2="165.71" gradientUnits="userSpaceOnUse">
<stop stop-color="#705AB8"/>
<stop offset="1" stop-color="white"/>
</linearGradient>
<linearGradient id="paint8_linear_6456_58228" x1="329.656" y1="165.702" x2="448.775" y2="234.476" gradientUnits="userSpaceOnUse">
<stop stop-color="#705AB8"/>
<stop offset="1" stop-color="white"/>
</linearGradient>
<linearGradient id="paint9_linear_6456_58228" x1="219.153" y1="179.013" x2="296.264" y2="223.533" gradientUnits="userSpaceOnUse">
<stop stop-color="#705AB8"/>
<stop offset="1" stop-color="white"/>
</linearGradient>
<linearGradient id="paint10_linear_6456_58228" x1="294.164" y1="222.321" x2="369.069" y2="265.567" gradientUnits="userSpaceOnUse">
<stop stop-color="#705AB8"/>
<stop offset="1" stop-color="white"/>
</linearGradient>
<linearGradient id="paint11_linear_6456_58228" x1="396.06" y1="71.3014" x2="324.026" y2="234.83" gradientUnits="userSpaceOnUse">
<stop stop-color="#BFD7FF"/>
<stop offset="1"/>
</linearGradient>
<linearGradient id="paint12_linear_6456_58228" x1="340.896" y1="146.233" x2="460.015" y2="215.007" gradientUnits="userSpaceOnUse">
<stop stop-color="#BFD7FF"/>
<stop offset="1"/>
</linearGradient>
<linearGradient id="paint13_linear_6456_58228" x1="439.36" y1="90.4207" x2="367.381" y2="253.853" gradientUnits="userSpaceOnUse">
<stop stop-color="#BFD7FF"/>
<stop offset="1"/>
</linearGradient>
<linearGradient id="paint14_linear_6456_58228" x1="312.054" y1="34.3115" x2="240.075" y2="197.744" gradientUnits="userSpaceOnUse">
<stop stop-color="#BFD7FF"/>
<stop offset="1"/>
</linearGradient>
<linearGradient id="paint15_linear_6456_58228" x1="199.156" y1="214.782" x2="348.966" y2="301.275" gradientUnits="userSpaceOnUse">
<stop stop-color="#8980EB"/>
<stop offset="1" stop-color="#705AB8"/>
</linearGradient>
<linearGradient id="paint16_linear_6456_58228" x1="157.179" y1="272.591" x2="177.615" y2="237.196" gradientUnits="userSpaceOnUse">
<stop offset="0.21" stop-color="#98ABD2"/>
<stop offset="0.49" stop-color="#72719D"/>
<stop offset="1" stop-color="#DAE1EF"/>
</linearGradient>
<linearGradient id="paint17_linear_6456_58228" x1="163.51" y1="271.541" x2="172.963" y2="254.857" gradientUnits="userSpaceOnUse">
<stop stop-color="#705AB8"/>
<stop offset="1" stop-color="white"/>
</linearGradient>
<linearGradient id="paint18_linear_6456_58228" x1="174.043" y1="258.618" x2="187.551" y2="266.416" gradientUnits="userSpaceOnUse">
<stop stop-color="#8980EB"/>
<stop offset="1" stop-color="#705AB8"/>
</linearGradient>
<linearGradient id="paint19_linear_6456_58228" x1="318.736" y1="365.867" x2="339.171" y2="330.472" gradientUnits="userSpaceOnUse">
<stop offset="0.21" stop-color="#98ABD2"/>
<stop offset="0.49" stop-color="#72719D"/>
<stop offset="1" stop-color="#DAE1EF"/>
</linearGradient>
<linearGradient id="paint20_linear_6456_58228" x1="316.48" y1="359.858" x2="326.219" y2="343.339" gradientUnits="userSpaceOnUse">
<stop stop-color="#705AB8"/>
<stop offset="1" stop-color="white"/>
</linearGradient>
<linearGradient id="paint21_linear_6456_58228" x1="322.423" y1="344.284" x2="308.915" y2="336.485" gradientUnits="userSpaceOnUse">
<stop stop-color="#8980EB"/>
<stop offset="1" stop-color="#705AB8"/>
</linearGradient>
<linearGradient id="paint22_linear_6456_58228" x1="210.162" y1="367.993" x2="291.403" y2="227.281" gradientUnits="userSpaceOnUse">
<stop offset="0.21" stop-color="#98ABD2"/>
<stop offset="0.49" stop-color="#72719D"/>
<stop offset="1" stop-color="#DAE1EF"/>
</linearGradient>
<linearGradient id="paint23_linear_6456_58228" x1="293.825" y1="223.086" x2="219.81" y2="351.284" gradientUnits="userSpaceOnUse">
<stop offset="0.21" stop-color="#98ABD2"/>
<stop offset="0.49" stop-color="#72719D"/>
<stop offset="1" stop-color="#DAE1EF"/>
</linearGradient>
<linearGradient id="paint24_linear_6456_58228" x1="164.644" y1="308.411" x2="209.434" y2="230.834" gradientUnits="userSpaceOnUse">
<stop stop-color="#705AB8"/>
<stop offset="1" stop-color="white"/>
</linearGradient>
<linearGradient id="paint25_linear_6456_58228" x1="284.262" y1="377.47" x2="329.051" y2="299.893" gradientUnits="userSpaceOnUse">
<stop stop-color="#705AB8"/>
<stop offset="1" stop-color="white"/>
</linearGradient>
<linearGradient id="paint26_linear_6456_58228" x1="193.362" y1="286.389" x2="194.888" y2="355.684" gradientUnits="userSpaceOnUse">
<stop stop-color="#705AB8"/>
<stop offset="1" stop-color="white"/>
</linearGradient>
<linearGradient id="paint27_linear_6456_58228" x1="260.649" y1="333.783" x2="244.245" y2="413.41" gradientUnits="userSpaceOnUse">
<stop stop-color="#705AB8"/>
<stop offset="1" stop-color="white"/>
</linearGradient>
<linearGradient id="paint28_linear_6456_58228" x1="216.975" y1="355.876" x2="278.902" y2="248.616" gradientUnits="userSpaceOnUse">
<stop stop-color="#705AB8"/>
<stop offset="1" stop-color="white"/>
</linearGradient>
<linearGradient id="paint29_linear_6456_58228" x1="214.078" y1="236.673" x2="321.917" y2="298.933" gradientUnits="userSpaceOnUse">
<stop stop-color="#8980EB"/>
<stop offset="1" stop-color="#705AB8"/>
</linearGradient>
<linearGradient id="paint30_linear_6456_58228" x1="222.053" y1="195.38" x2="313.145" y2="247.972" gradientUnits="userSpaceOnUse">
<stop stop-color="#728EE3"/>
<stop offset="1" stop-color="#836888"/>
</linearGradient>
<linearGradient id="paint31_linear_6456_58228" x1="169.892" y1="285.727" x2="301.543" y2="361.736" gradientUnits="userSpaceOnUse">
<stop stop-color="#728EE3"/>
<stop offset="1" stop-color="#836888"/>
</linearGradient>
<linearGradient id="paint32_linear_6456_58228" x1="258.379" y1="352.185" x2="289.465" y2="370.133" gradientUnits="userSpaceOnUse">
<stop stop-color="#8980EB"/>
<stop offset="1" stop-color="#705AB8"/>
</linearGradient>
<linearGradient id="paint33_linear_6456_58228" x1="213.767" y1="237.767" x2="217.179" y2="239.737" gradientUnits="userSpaceOnUse">
<stop stop-color="#8980EB"/>
<stop offset="1" stop-color="#705AB8"/>
</linearGradient>
<linearGradient id="paint34_linear_6456_58228" x1="318.548" y1="296.126" x2="321.717" y2="297.955" gradientUnits="userSpaceOnUse">
<stop stop-color="#8980EB"/>
<stop offset="1" stop-color="#705AB8"/>
</linearGradient>
<linearGradient id="paint35_linear_6456_58228" x1="269.464" y1="209.727" x2="293.588" y2="223.655" gradientUnits="userSpaceOnUse">
<stop stop-color="#8980EB"/>
<stop offset="1" stop-color="#705AB8"/>
</linearGradient>
<linearGradient id="paint36_linear_6456_58228" x1="268.709" y1="302.852" x2="268.541" y2="307.126" gradientUnits="userSpaceOnUse">
<stop stop-color="#8980EB"/>
<stop offset="1" stop-color="#705AB8"/>
</linearGradient>
<linearGradient id="paint37_linear_6456_58228" x1="274.517" y1="305.764" x2="274.389" y2="308.994" gradientUnits="userSpaceOnUse">
<stop stop-color="#8980EB"/>
<stop offset="1" stop-color="#705AB8"/>
</linearGradient>
<linearGradient id="paint38_linear_6456_58228" x1="286.366" y1="211.657" x2="286.137" y2="215.778" gradientUnits="userSpaceOnUse">
<stop stop-color="#8980EB"/>
<stop offset="1" stop-color="#705AB8"/>
</linearGradient>
<linearGradient id="paint39_linear_6456_58228" x1="283.9" y1="239.679" x2="225.014" y2="341.672" gradientUnits="userSpaceOnUse">
<stop offset="0.21" stop-color="#98ABD2"/>
<stop offset="0.49" stop-color="#72719D"/>
<stop offset="1" stop-color="#DAE1EF"/>
</linearGradient>
<linearGradient id="paint40_linear_6456_58228" x1="166.419" y1="279.222" x2="308.391" y2="361.19" gradientUnits="userSpaceOnUse">
<stop offset="0.21" stop-color="#98ABD2"/>
<stop offset="0.49" stop-color="#72719D"/>
<stop offset="1" stop-color="#DAE1EF"/>
</linearGradient>
<linearGradient id="paint41_linear_6456_58228" x1="221.448" y1="347.844" x2="245.989" y2="305.338" gradientUnits="userSpaceOnUse">
<stop stop-color="#8980EB"/>
<stop offset="1" stop-color="#705AB8"/>
</linearGradient>
<linearGradient id="paint42_linear_6456_58228" x1="211.021" y1="331.003" x2="237.08" y2="275.569" gradientUnits="userSpaceOnUse">
<stop stop-color="#705AB8"/>
<stop offset="1" stop-color="white"/>
</linearGradient>
<linearGradient id="paint43_linear_6456_58228" x1="200.398" y1="206.611" x2="380.106" y2="310.366" gradientUnits="userSpaceOnUse">
<stop offset="0.21" stop-color="#98ABD2"/>
<stop offset="0.49" stop-color="#72719D"/>
<stop offset="1" stop-color="#DAE1EF"/>
</linearGradient>
<linearGradient id="paint44_linear_6456_58228" x1="251.768" y1="295.33" x2="296.754" y2="217.412" gradientUnits="userSpaceOnUse">
<stop offset="0.21" stop-color="#98ABD2"/>
<stop offset="0.49" stop-color="#72719D"/>
<stop offset="1" stop-color="#DAE1EF"/>
</linearGradient>
<linearGradient id="paint45_linear_6456_58228" x1="276.808" y1="217.059" x2="241.831" y2="267.343" gradientUnits="userSpaceOnUse">
<stop stop-color="#705AB8"/>
<stop offset="1" stop-color="white"/>
</linearGradient>
<linearGradient id="paint46_linear_6456_58228" x1="259.485" y1="283.122" x2="280.088" y2="247.437" gradientUnits="userSpaceOnUse">
<stop stop-color="#8980EB"/>
<stop offset="1" stop-color="#705AB8"/>
</linearGradient>
<linearGradient id="paint47_linear_6456_58228" x1="221.413" y1="275.555" x2="235.519" y2="251.123" gradientUnits="userSpaceOnUse">
<stop stop-color="#8980EB"/>
<stop offset="1" stop-color="#705AB8"/>
</linearGradient>
<linearGradient id="paint48_linear_6456_58228" x1="221.839" y1="274.821" x2="234.853" y2="252.281" gradientUnits="userSpaceOnUse">
<stop stop-color="#86759D"/>
<stop offset="0.39" stop-color="#98ABD2"/>
<stop offset="1" stop-color="#DAE1EF"/>
</linearGradient>
<linearGradient id="paint49_linear_6456_58228" x1="217.245" y1="259.302" x2="227.549" y2="265.251" gradientUnits="userSpaceOnUse">
<stop stop-color="#705AB8"/>
<stop offset="1" stop-color="white"/>
</linearGradient>
<linearGradient id="paint50_linear_6456_58228" x1="227.549" y1="265.252" x2="237.507" y2="271.001" gradientUnits="userSpaceOnUse">
<stop stop-color="#705AB8"/>
<stop offset="1" stop-color="white"/>
</linearGradient>
<linearGradient id="paint51_linear_6456_58228" x1="218.358" y1="266.289" x2="224.8" y2="270.009" gradientUnits="userSpaceOnUse">
<stop stop-color="#705AB8"/>
<stop offset="1" stop-color="white"/>
</linearGradient>
<linearGradient id="paint52_linear_6456_58228" x1="224.628" y1="269.908" x2="230.879" y2="273.518" gradientUnits="userSpaceOnUse">
<stop stop-color="#705AB8"/>
<stop offset="1" stop-color="white"/>
</linearGradient>
<linearGradient id="paint53_linear_6456_58228" x1="233.016" y1="257.498" x2="227.08" y2="270.921" gradientUnits="userSpaceOnUse">
<stop stop-color="#BFD7FF"/>
<stop offset="1"/>
</linearGradient>
<linearGradient id="paint54_linear_6456_58228" x1="228.472" y1="263.649" x2="238.43" y2="269.398" gradientUnits="userSpaceOnUse">
<stop stop-color="#BFD7FF"/>
<stop offset="1"/>
</linearGradient>
<linearGradient id="paint55_linear_6456_58228" x1="236.645" y1="259.092" x2="230.698" y2="272.533" gradientUnits="userSpaceOnUse">
<stop stop-color="#BFD7FF"/>
<stop offset="1"/>
</linearGradient>
<linearGradient id="paint56_linear_6456_58228" x1="226.014" y1="254.387" x2="220.068" y2="267.828" gradientUnits="userSpaceOnUse">
<stop stop-color="#BFD7FF"/>
<stop offset="1"/>
</linearGradient>
<linearGradient id="paint57_linear_6456_58228" x1="216.729" y1="269.234" x2="229.232" y2="276.453" gradientUnits="userSpaceOnUse">
<stop stop-color="#8980EB"/>
<stop offset="1" stop-color="#705AB8"/>
</linearGradient>
<linearGradient id="paint58_linear_6456_58228" x1="216.497" y1="260.598" x2="226.801" y2="266.547" gradientUnits="userSpaceOnUse">
<stop stop-color="#8980EB"/>
<stop offset="1" stop-color="#705AB8"/>
</linearGradient>
<linearGradient id="paint59_linear_6456_58228" x1="226.624" y1="266.854" x2="236.582" y2="272.603" gradientUnits="userSpaceOnUse">
<stop stop-color="#8980EB"/>
<stop offset="1" stop-color="#705AB8"/>
</linearGradient>
<linearGradient id="paint60_linear_6456_58228" x1="218.411" y1="266.319" x2="230.914" y2="273.538" gradientUnits="userSpaceOnUse">
<stop stop-color="#8980EB"/>
<stop offset="1" stop-color="#705AB8"/>
</linearGradient>
<linearGradient id="paint61_linear_6456_58228" x1="284.589" y1="312.03" x2="298.695" y2="287.597" gradientUnits="userSpaceOnUse">
<stop stop-color="#8980EB"/>
<stop offset="1" stop-color="#705AB8"/>
</linearGradient>
<linearGradient id="paint62_linear_6456_58228" x1="285.015" y1="311.296" x2="298.028" y2="288.756" gradientUnits="userSpaceOnUse">
<stop stop-color="#86759D"/>
<stop offset="0.39" stop-color="#98ABD2"/>
<stop offset="1" stop-color="#DAE1EF"/>
</linearGradient>
<linearGradient id="paint63_linear_6456_58228" x1="280.42" y1="295.777" x2="290.725" y2="301.726" gradientUnits="userSpaceOnUse">
<stop stop-color="#705AB8"/>
<stop offset="1" stop-color="white"/>
</linearGradient>
<linearGradient id="paint64_linear_6456_58228" x1="290.721" y1="301.726" x2="300.679" y2="307.475" gradientUnits="userSpaceOnUse">
<stop stop-color="#705AB8"/>
<stop offset="1" stop-color="white"/>
</linearGradient>
<linearGradient id="paint65_linear_6456_58228" x1="281.534" y1="302.764" x2="287.976" y2="306.483" gradientUnits="userSpaceOnUse">
<stop stop-color="#705AB8"/>
<stop offset="1" stop-color="white"/>
</linearGradient>
<linearGradient id="paint66_linear_6456_58228" x1="287.803" y1="306.383" x2="294.055" y2="309.992" gradientUnits="userSpaceOnUse">
<stop stop-color="#705AB8"/>
<stop offset="1" stop-color="white"/>
</linearGradient>
<linearGradient id="paint67_linear_6456_58228" x1="296.192" y1="293.972" x2="290.256" y2="307.396" gradientUnits="userSpaceOnUse">
<stop stop-color="#BFD7FF"/>
<stop offset="1"/>
</linearGradient>
<linearGradient id="paint68_linear_6456_58228" x1="291.648" y1="300.124" x2="301.606" y2="305.873" gradientUnits="userSpaceOnUse">
<stop stop-color="#BFD7FF"/>
<stop offset="1"/>
</linearGradient>
<linearGradient id="paint69_linear_6456_58228" x1="299.82" y1="295.567" x2="293.874" y2="309.008" gradientUnits="userSpaceOnUse">
<stop stop-color="#BFD7FF"/>
<stop offset="1"/>
</linearGradient>
<linearGradient id="paint70_linear_6456_58228" x1="289.19" y1="290.862" x2="283.243" y2="304.303" gradientUnits="userSpaceOnUse">
<stop stop-color="#BFD7FF"/>
<stop offset="1"/>
</linearGradient>
<linearGradient id="paint71_linear_6456_58228" x1="279.886" y1="305.699" x2="292.407" y2="312.928" gradientUnits="userSpaceOnUse">
<stop stop-color="#8980EB"/>
<stop offset="1" stop-color="#705AB8"/>
</linearGradient>
<linearGradient id="paint72_linear_6456_58228" x1="279.672" y1="297.073" x2="289.977" y2="303.022" gradientUnits="userSpaceOnUse">
<stop stop-color="#8980EB"/>
<stop offset="1" stop-color="#705AB8"/>
</linearGradient>
<linearGradient id="paint73_linear_6456_58228" x1="289.796" y1="303.329" x2="299.754" y2="309.078" gradientUnits="userSpaceOnUse">
<stop stop-color="#8980EB"/>
<stop offset="1" stop-color="#705AB8"/>
</linearGradient>
<linearGradient id="paint74_linear_6456_58228" x1="281.569" y1="302.784" x2="294.09" y2="310.013" gradientUnits="userSpaceOnUse">
<stop stop-color="#8980EB"/>
<stop offset="1" stop-color="#705AB8"/>
</linearGradient>
<linearGradient id="paint75_linear_6456_58228" x1="252.675" y1="293.602" x2="266.781" y2="269.17" gradientUnits="userSpaceOnUse">
<stop stop-color="#8980EB"/>
<stop offset="1" stop-color="#705AB8"/>
</linearGradient>
<linearGradient id="paint76_linear_6456_58228" x1="253.097" y1="292.869" x2="266.111" y2="270.329" gradientUnits="userSpaceOnUse">
<stop stop-color="#86759D"/>
<stop offset="0.39" stop-color="#98ABD2"/>
<stop offset="1" stop-color="#DAE1EF"/>
</linearGradient>
<linearGradient id="paint77_linear_6456_58228" x1="248.503" y1="277.35" x2="258.807" y2="283.299" gradientUnits="userSpaceOnUse">
<stop stop-color="#705AB8"/>
<stop offset="1" stop-color="white"/>
</linearGradient>
<linearGradient id="paint78_linear_6456_58228" x1="258.807" y1="283.299" x2="268.748" y2="289.038" gradientUnits="userSpaceOnUse">
<stop stop-color="#705AB8"/>
<stop offset="1" stop-color="white"/>
</linearGradient>
<linearGradient id="paint79_linear_6456_58228" x1="249.62" y1="284.337" x2="256.062" y2="288.056" gradientUnits="userSpaceOnUse">
<stop stop-color="#705AB8"/>
<stop offset="1" stop-color="white"/>
</linearGradient>
<linearGradient id="paint80_linear_6456_58228" x1="255.889" y1="287.956" x2="262.141" y2="291.565" gradientUnits="userSpaceOnUse">
<stop stop-color="#705AB8"/>
<stop offset="1" stop-color="white"/>
</linearGradient>
<linearGradient id="paint81_linear_6456_58228" x1="264.274" y1="275.545" x2="258.338" y2="288.969" gradientUnits="userSpaceOnUse">
<stop stop-color="#BFD7FF"/>
<stop offset="1"/>
</linearGradient>
<linearGradient id="paint82_linear_6456_58228" x1="259.734" y1="281.696" x2="269.674" y2="287.435" gradientUnits="userSpaceOnUse">
<stop stop-color="#BFD7FF"/>
<stop offset="1"/>
</linearGradient>
<linearGradient id="paint83_linear_6456_58228" x1="267.906" y1="277.139" x2="261.96" y2="290.58" gradientUnits="userSpaceOnUse">
<stop stop-color="#BFD7FF"/>
<stop offset="1"/>
</linearGradient>
<linearGradient id="paint84_linear_6456_58228" x1="257.276" y1="272.435" x2="251.329" y2="285.875" gradientUnits="userSpaceOnUse">
<stop stop-color="#BFD7FF"/>
<stop offset="1"/>
</linearGradient>
<linearGradient id="paint85_linear_6456_58228" x1="247.971" y1="287.272" x2="260.492" y2="294.501" gradientUnits="userSpaceOnUse">
<stop stop-color="#8980EB"/>
<stop offset="1" stop-color="#705AB8"/>
</linearGradient>
<linearGradient id="paint86_linear_6456_58228" x1="247.754" y1="278.646" x2="258.059" y2="284.595" gradientUnits="userSpaceOnUse">
<stop stop-color="#8980EB"/>
<stop offset="1" stop-color="#705AB8"/>
</linearGradient>
<linearGradient id="paint87_linear_6456_58228" x1="257.882" y1="284.902" x2="267.822" y2="290.641" gradientUnits="userSpaceOnUse">
<stop stop-color="#8980EB"/>
<stop offset="1" stop-color="#705AB8"/>
</linearGradient>
<linearGradient id="paint88_linear_6456_58228" x1="249.651" y1="284.356" x2="262.172" y2="291.585" gradientUnits="userSpaceOnUse">
<stop stop-color="#8980EB"/>
<stop offset="1" stop-color="#705AB8"/>
</linearGradient>
<linearGradient id="paint89_linear_6456_58228" x1="392.979" y1="102.682" x2="322.743" y2="99.4097" gradientUnits="userSpaceOnUse">
<stop stop-color="#C68C43"/>
<stop offset="0.119792" stop-color="#F5BA6E"/>
<stop offset="0.286458" stop-color="#C68C43"/>
<stop offset="0.5625" stop-color="#C68C43"/>
<stop offset="0.770833" stop-color="#EEB873"/>
<stop offset="1" stop-color="#C68C43"/>
</linearGradient>
<linearGradient id="paint90_linear_6456_58228" x1="272.369" y1="131.916" x2="172.759" y2="157.072" gradientUnits="userSpaceOnUse">
<stop stop-color="white" stop-opacity="0"/>
<stop offset="0.440223" stop-color="white"/>
<stop offset="1" stop-color="white" stop-opacity="0"/>
</linearGradient>
</defs>
</svg>
