<svg width="206" height="70" viewBox="0 0 206 70" fill="none" xmlns="http://www.w3.org/2000/svg">
<path d="M0.785156 0H188.896C198.224 0 205.785 7.56162 205.785 16.8894V70H43.4586C33.2192 70 24.0695 63.6059 20.5496 53.9906L0.785156 0Z" fill="#0B0E15"/>
<path d="M171.675 20H151L149.493 28.8825L149.787 30.135L151.418 21.8004L154.473 33.9702L151.25 48.7218L149.534 39.3692L149.199 41.208L150.79 50.326H171.843L177.325 33.9692L171.675 20ZM159.161 21.956L165.941 26.1036L164.351 21.956H168.871L172.512 31.3086H168.536L161.63 26.9649L162.97 31.2692H158.199L155.437 21.956H159.161ZM171.298 49.6215H151.92L155.31 34.0086H176.529L171.298 49.6215Z" fill="url(#paint0_linear_5796_44948)"/>
<path d="M167.864 36.5137L166.357 41.4053L162.298 36.5137H158.196L155.602 47.1965H160.206L161.504 42.501L165.563 47.1965H169.33L172.761 36.5137H167.864Z" fill="url(#paint1_linear_5796_44948)"/>
<path d="M147.23 20.1582H126.472L126.137 31.0362L126.847 23.8357L127.392 33.9313L127.015 44.8092L126.137 38.744L126.764 50.3276H147.271L150.326 33.9707L147.23 20.1582ZM139.612 22.0364L141.077 31.2717H136.264L134.966 22.0758L139.612 22.0364ZM146.644 49.5836H127.685L128.23 33.9707H149.533L146.644 49.5836Z" fill="url(#paint2_linear_5796_44948)"/>
<path d="M135.219 47.5111H139.865L141.246 36.7109H136.349L135.219 47.5111Z" fill="url(#paint3_linear_5796_44948)"/>
<path d="M101.985 20.1582L99.9336 34.0496L102.152 50.3276H122.702L122.87 33.6968L122.702 20.1582H101.985ZM106.296 22.1142H113.997C113.997 22.1142 118.977 22.466 119.019 25.44C119.061 28.414 113.243 28.9224 113.243 28.9224H110.314L110.062 31.3091H105.124L106.296 22.1142ZM121.865 49.623H102.78L100.687 34.1274L122.032 34.1668L121.865 49.623Z" fill="url(#paint4_linear_5796_44948)"/>
<path d="M114.212 25.3607C114.212 24.3438 112.872 24.3438 112.872 24.3438H110.655L110.488 26.5737H112.832C112.832 26.5353 114.212 26.3392 114.212 25.3607Z" fill="url(#paint5_linear_5796_44948)"/>
<path d="M106.757 47.3528H110.607L112.072 43.0485L113.955 47.3528H117.722L121.112 36.6699H116.927L115.587 41.5221L113.411 36.6699H110.105L108.388 41.4048L106.757 36.6699H102.194H102.152L106.757 47.3528Z" fill="url(#paint6_linear_5796_44948)"/>
<path d="M95.1617 36.5151L97.4216 23.3667L99.5145 32.3665L97.841 20.1582H76.8305L72.6875 36.5151L77.7935 50.0152L98.4274 49.8191L99.8922 36.8274L97.8827 48.3321L95.1617 36.5151ZM82.6481 28.6889C81.7279 28.415 80.1786 27.7104 80.1786 26.3801C80.1786 25.0498 81.3085 23.9146 81.9783 23.5234C82.6481 23.1322 84.3644 22.2325 87.4192 22.2325C90.4741 22.2325 92.6087 23.1716 92.6087 23.1716L90.7255 25.7149C90.7255 25.7149 90.3906 25.5977 90.014 25.441C89.6373 25.3237 88.4657 24.9325 86.8746 24.8931C85.2429 24.8527 84.9497 25.4794 84.9497 25.5967C84.9079 25.7139 84.8245 26.1051 86.7494 26.3397C88.6326 26.5742 90.014 26.9654 90.6421 27.2009C91.2702 27.4749 92.1069 28.2967 92.1069 29.157C92.1069 30.0182 91.8982 30.6834 90.9352 31.583C89.9722 32.4827 88.2988 33.3045 84.5313 33.344C80.7649 33.3834 78.5885 32.327 78.5885 32.327C78.5885 32.327 80.7649 29.627 80.8066 29.627C80.8066 29.627 81.2667 29.8615 82.0618 30.1749C82.8568 30.4883 84.6148 30.7228 85.1583 30.7228C85.703 30.7228 87.0415 30.6834 87.293 29.9798C87.5027 29.2752 83.5683 28.9629 82.6481 28.6889ZM78.3788 49.3106L73.5242 36.5929L94.325 36.5151L97.2547 49.1145L78.3788 49.3106Z" fill="url(#paint7_linear_5796_44948)"/>
<path d="M93.5315 43.8299H91.7735L91.3551 42.4602H86.8772L87.1704 43.8299L85.4124 43.7905L89.305 38.7422H84.2824L79.9297 44.2989L80.5995 46.1771L87.7985 46.2165L88.2586 47.7035H92.7793L92.4027 46.1771H94.2024L93.5315 43.8299Z" fill="url(#paint8_linear_5796_44948)"/>
<path d="M76.1662 46.4525L75.7479 48.2912L69.0508 41.9127L72.0221 22.1522L74.9518 26.4959L75.2032 25.5174L72.0639 20.8613L50.2594 21.0564L46.7852 41.8743L56.0342 48.7613L76.3749 48.9574L76.6681 47.7444L76.1662 46.4525ZM56.7458 24.0698L56.7875 24.0304H63.9864L62.0605 37.8823H57.1224L58.63 27.5917H56.2011L56.7458 24.0698ZM56.3274 47.9789L48.082 41.8743H67.9208L74.5752 48.2134L56.3274 47.9789Z" fill="url(#paint9_linear_5796_44948)"/>
<path d="M63.8161 44.4167L59.1702 42.8125L58.3752 44.4167L53.6875 44.7301L58.8353 46.0604L60.1332 47.6647L63.9413 46.9207L69.3822 47.7031L66.9544 46.02L69.3405 44.7291L63.8161 44.4167Z" fill="url(#paint10_linear_5796_44948)"/>
<defs>
<linearGradient id="paint0_linear_5796_44948" x1="162.279" y1="50.745" x2="163.827" y2="21.0964" gradientUnits="userSpaceOnUse">
<stop stop-color="white"/>
<stop offset="0.5045" stop-color="#D6DADD"/>
<stop offset="1" stop-color="white"/>
</linearGradient>
<linearGradient id="paint1_linear_5796_44948" x1="162.71" y1="48.9822" x2="164.669" y2="38.3456" gradientUnits="userSpaceOnUse">
<stop stop-color="#FEFE00"/>
<stop offset="1" stop-color="#F8AD00"/>
</linearGradient>
<linearGradient id="paint2_linear_5796_44948" x1="138.351" y1="50.159" x2="138.122" y2="20.5877" gradientUnits="userSpaceOnUse">
<stop stop-color="white"/>
<stop offset="0.5045" stop-color="#D6DADD"/>
<stop offset="1" stop-color="white"/>
</linearGradient>
<linearGradient id="paint3_linear_5796_44948" x1="137.554" y1="48.8961" x2="138.503" y2="38.2662" gradientUnits="userSpaceOnUse">
<stop stop-color="#FEFE00"/>
<stop offset="1" stop-color="#F8AD00"/>
</linearGradient>
<linearGradient id="paint4_linear_5796_44948" x1="111.113" y1="50.5985" x2="111.817" y2="18.2403" gradientUnits="userSpaceOnUse">
<stop stop-color="white"/>
<stop offset="0.5045" stop-color="#D6DADD"/>
<stop offset="1" stop-color="white"/>
</linearGradient>
<linearGradient id="paint5_linear_5796_44948" x1="112.253" y1="50.8729" x2="112.363" y2="19.1491" gradientUnits="userSpaceOnUse">
<stop stop-color="white"/>
<stop offset="0.5045" stop-color="#D6DADD"/>
<stop offset="1" stop-color="white"/>
</linearGradient>
<linearGradient id="paint6_linear_5796_44948" x1="111.952" y1="49.4555" x2="111.705" y2="38.4295" gradientUnits="userSpaceOnUse">
<stop stop-color="#FEFE00"/>
<stop offset="1" stop-color="#F8AD00"/>
</linearGradient>
<linearGradient id="paint7_linear_5796_44948" x1="86.2021" y1="50.7954" x2="86.374" y2="19.7341" gradientUnits="userSpaceOnUse">
<stop stop-color="white"/>
<stop offset="0.5045" stop-color="#D6DADD"/>
<stop offset="1" stop-color="white"/>
</linearGradient>
<linearGradient id="paint8_linear_5796_44948" x1="88.5266" y1="50.3571" x2="86.07" y2="40.7029" gradientUnits="userSpaceOnUse">
<stop stop-color="#FEFE00"/>
<stop offset="1" stop-color="#F8AD00"/>
</linearGradient>
<linearGradient id="paint9_linear_5796_44948" x1="61.6333" y1="49.4646" x2="62.1342" y2="21.499" gradientUnits="userSpaceOnUse">
<stop stop-color="#FEFE00"/>
<stop offset="0.2698" stop-color="#F8AD00"/>
<stop offset="0.799" stop-color="#F9BE00"/>
<stop offset="1" stop-color="#FDF400"/>
</linearGradient>
<linearGradient id="paint10_linear_5796_44948" x1="61.9297" y1="48.8783" x2="59.383" y2="20.4315" gradientUnits="userSpaceOnUse">
<stop stop-color="#FEFE00"/>
<stop offset="0.3763" stop-color="#F8AD00"/>
<stop offset="0.799" stop-color="#F9BE00"/>
<stop offset="1" stop-color="#FDF400"/>
</linearGradient>
</defs>
</svg>
