<svg width="206" height="70" viewBox="0 0 206 70" fill="none" xmlns="http://www.w3.org/2000/svg">
<path d="M0.785156 0H188.896C198.224 0 205.785 7.56162 205.785 16.8894V70H43.4586C33.2192 70 24.0695 63.6059 20.5496 53.9906L0.785156 0Z" fill="#0B0E15"/>
<path d="M144.512 22.1367C143.927 22.1367 143.459 22.3624 143.108 22.7008C142.757 23.0393 142.523 23.4906 142.523 24.0547C142.523 24.6188 142.757 25.0701 143.108 25.4085C143.459 25.747 143.927 25.9726 144.512 25.9726C145.097 25.9726 145.565 25.747 145.916 25.4085C146.267 25.0701 146.501 24.6188 146.501 24.0547C146.501 23.4906 146.267 23.0393 145.916 22.7008C145.565 22.2495 145.097 22.1367 144.512 22.1367Z" fill="#009344"/>
<path d="M146.264 26.875H142.871V38.0442H146.264V26.875Z" fill="white"/>
<path d="M157.148 28.1185C156.797 27.6673 156.446 27.3288 155.861 26.9903C155.276 26.7647 154.574 26.5391 153.755 26.5391C153.287 26.5391 152.936 26.5391 152.585 26.6519C152.234 26.7647 151.883 26.8775 151.649 27.1032C151.415 27.216 151.181 27.4416 150.947 27.6673C150.713 27.8929 150.596 28.1186 150.479 28.3442V26.8775H147.203V38.0468H150.596V32.5185C150.596 32.1801 150.596 31.8416 150.713 31.5032C150.713 31.1647 150.83 30.8262 150.947 30.6006C151.064 30.375 151.298 30.1493 151.532 29.9237C151.766 29.698 152.117 29.698 152.585 29.698C153.053 29.698 153.404 29.8109 153.638 29.9237C153.872 30.1493 154.106 30.375 154.106 30.6006C154.223 30.9391 154.34 31.1647 154.34 31.5032C154.34 31.8416 154.34 32.1801 154.34 32.5185V37.9339H157.733V31.8416C157.733 31.0519 157.733 30.375 157.616 29.8109C157.733 29.1339 157.499 28.5698 157.148 28.1185Z" fill="white"/>
<path d="M166.858 26.878V28.3447C166.741 28.119 166.507 28.0062 166.39 27.7805C166.156 27.5549 165.922 27.4421 165.571 27.2164C165.22 27.1036 164.986 26.878 164.518 26.7652C164.05 26.6523 163.699 26.6523 163.231 26.6523C162.529 26.6523 161.827 26.7652 161.242 27.1036C160.657 27.4421 160.189 27.8934 159.721 28.3447C159.37 28.9088 159.019 29.4729 158.785 30.1498C158.551 30.8267 158.434 31.5036 158.434 32.1805C158.434 32.9703 158.551 33.76 158.785 34.437C159.019 35.1139 159.37 35.678 159.838 36.2421C160.306 36.8062 160.774 37.1447 161.476 37.3703C162.178 37.5959 162.763 37.8216 163.582 37.8216C164.05 37.8216 164.635 37.7088 165.103 37.4831C165.571 37.2575 166.156 36.919 166.507 36.3549V37.3703C166.507 38.16 166.273 38.7241 165.805 39.2882C165.454 39.7395 164.869 40.078 163.933 40.078C163.231 40.078 162.529 40.078 161.944 39.8523C161.359 39.6267 160.891 39.5139 160.306 39.0626L159.721 41.7703C160.657 42.2216 160.423 42.2216 161.359 42.4472C162.295 42.6729 163.348 42.7857 164.284 42.7857C166.273 42.7857 167.443 42.3344 168.379 41.2062C169.315 40.1908 169.9 38.6113 169.9 36.5805V26.7652H166.858V26.878ZM166.39 33.5344C166.273 33.8729 166.156 34.2113 165.922 34.437C165.688 34.6626 165.454 34.8882 165.22 35.1139C164.986 35.2267 164.635 35.3395 164.284 35.3395C163.933 35.3395 163.699 35.2267 163.348 35.1139C163.114 35.0011 162.88 34.7754 162.646 34.437C162.412 34.2113 162.295 33.8729 162.178 33.5344C162.061 33.1959 162.061 32.8575 162.061 32.4062C162.061 31.9549 162.061 31.6164 162.178 31.278C162.295 30.9395 162.412 30.6011 162.646 30.3754C162.88 30.1498 163.114 29.9241 163.348 29.6985C163.582 29.5857 163.933 29.4729 164.284 29.4729C164.635 29.4729 164.869 29.5857 165.22 29.6985C165.571 29.8113 165.688 30.037 165.922 30.3754C166.156 30.6011 166.273 30.9395 166.39 31.278C166.507 31.6164 166.507 31.9549 166.507 32.4062C166.624 32.8575 166.507 33.1959 166.39 33.5344Z" fill="white"/>
<path d="M140.888 28.0062C140.654 27.5549 140.186 27.2164 139.718 26.9908C139.25 26.7652 138.548 26.6523 137.846 26.6523C137.027 26.6523 136.325 26.7652 135.857 27.1036C135.272 27.4421 134.804 27.8934 134.453 28.6831C134.102 28.0062 133.751 27.4421 133.166 27.2164C132.581 26.878 131.879 26.7652 131.177 26.7652C130.826 26.7652 130.358 26.7652 130.007 26.878C129.656 26.9908 129.305 27.1036 129.071 27.3293C128.837 27.5549 128.603 27.6677 128.369 27.8934C128.135 28.119 128.018 28.3447 127.901 28.5703V27.1036H124.625V38.2729H128.018V32.7447C128.018 32.4062 128.018 32.0677 128.135 31.7293C128.135 31.3908 128.252 31.0523 128.369 30.8267C128.486 30.6011 128.72 30.3754 128.954 30.1498C129.188 29.9241 129.539 29.9241 130.007 29.9241C130.358 29.9241 130.709 30.037 130.943 30.1498C131.177 30.3754 131.294 30.6011 131.411 30.8267C131.528 31.0523 131.528 31.3908 131.528 31.6164C131.528 31.9549 131.528 32.1805 131.528 32.4062V38.2729H134.921V32.1805C134.921 31.8421 134.921 31.5036 135.038 31.1652C135.155 30.8267 135.272 30.6011 135.389 30.3754C135.506 30.1498 135.74 29.9241 135.974 29.8113C136.208 29.6985 136.559 29.5857 136.91 29.5857C137.495 29.5857 137.846 29.8113 138.08 30.1498C138.314 30.4882 138.431 30.9395 138.431 31.5036V38.0472H141.707V31.5036C141.707 30.8267 141.59 30.1498 141.473 29.5857C141.356 29.0216 141.122 28.4575 140.888 28.0062Z" fill="white"/>
<path d="M89.6414 17.8516L83.5574 26.0875H84.8444L78.2924 34.7746L84.8444 44.0259H80.1644L75.8354 38.0464L71.2724 44.0259H70.3364L63.3164 53.6157C66.8264 55.7593 70.9214 57.0003 75.3674 57.0003C87.8864 57.0003 98.0654 47.1849 98.0654 35.1131V34.7746C98.0654 28.0054 94.7894 21.8003 89.6414 17.8516ZM95.6084 30.0362C95.6084 31.5028 95.7254 32.1798 95.0234 33.1952C94.3214 34.2105 93.5024 34.6618 92.3324 35.5644C91.1624 36.4669 89.2904 38.0464 89.2904 38.949C89.2904 39.1746 89.2904 39.6259 89.2904 40.4157H95.3744V42.6721H85.1954C85.1954 41.2054 85.1954 40.19 85.1954 39.6259C85.1954 38.7234 85.1954 38.3849 85.1954 38.0464C85.1954 37.708 85.8974 36.6926 86.8334 35.79C87.6524 35.0003 88.8224 34.0977 89.6414 33.4208C90.6944 32.631 91.5134 31.8413 91.6304 31.6157C91.6304 31.2772 91.6304 31.0516 91.6304 30.7131C91.6304 30.149 91.6304 29.4721 91.6304 29.3593C91.6304 28.3439 90.8114 28.3439 90.3434 28.3439C89.5244 28.3439 89.0564 28.7952 89.0564 29.3593C89.0564 29.8105 89.0564 30.2618 89.0564 30.7131L85.0784 33.5336C85.0784 31.39 85.0784 30.3746 85.0784 30.2618C85.0784 29.8105 85.0784 28.0054 86.2484 27.2157C87.3014 26.4259 87.7694 26.0875 90.1094 26.0875C92.5664 26.0875 93.9704 26.5387 94.5554 27.2157C95.2574 27.8926 95.6084 28.5695 95.6084 30.0362Z" fill="#939597"/>
<path d="M122.513 28.119C122.162 27.6677 121.694 27.2164 121.109 26.9908C120.524 26.7652 119.705 26.6523 118.769 26.6523C117.95 26.6523 117.248 26.6523 116.195 26.878C115.142 27.1036 115.025 27.2164 114.089 27.6677L114.908 29.6985C115.61 29.4729 116.312 29.1344 116.897 29.0216C117.482 28.9088 117.716 28.9088 118.184 28.9088C118.769 28.9088 119.237 29.0216 119.588 29.36C119.939 29.6985 120.056 30.1498 120.056 30.7139C119.588 30.7139 119.588 30.8267 119.003 30.8267C118.418 30.8267 118.067 31.0523 117.599 31.0523C117.131 31.1652 116.546 31.278 116.078 31.3908C115.61 31.5036 115.142 31.8421 114.791 32.1805C114.44 32.519 114.089 32.8575 113.855 33.3088C113.621 33.76 113.621 34.2113 113.621 34.8882C113.621 35.4523 113.738 35.9036 113.972 36.3549C114.206 36.8062 114.44 37.1447 114.791 37.4831C115.142 37.8216 115.493 37.9344 115.961 38.16C116.429 38.2729 116.897 38.3857 117.365 38.3857C118.067 38.3857 118.652 38.2729 119.237 38.0472C119.822 37.8216 120.29 37.3703 120.641 36.8062V38.16H123.566V32.519C123.566 31.6164 123.449 30.8267 123.332 30.037C123.215 29.2472 122.981 28.5703 122.513 28.119ZM120.173 33.6472C120.173 33.9857 120.173 34.3241 120.056 34.6626C119.939 35.0011 119.822 35.2267 119.588 35.3395C119.354 35.5652 119.12 35.678 118.886 35.7908C118.652 35.9036 118.418 35.9036 118.067 35.9036C117.716 35.9036 117.482 35.7908 117.248 35.5652C117.014 35.3395 116.78 35.0011 116.78 34.5498C116.78 34.0985 116.897 33.76 117.131 33.5344C117.365 33.3088 117.599 33.0831 117.833 32.9703C118.067 32.8575 118.418 32.7447 118.769 32.7447C119.12 32.7447 119.354 32.7447 119.588 32.7447H120.29L120.173 33.6472Z" fill="white"/>
<path d="M66.2402 44.1379L72.7922 35.4508L66.1232 26.1995H71.0372L75.3662 32.179L79.9292 26.1995H80.8652L87.8852 16.6097C84.3752 14.3533 80.1632 13.1123 75.6002 13.1123C62.9642 12.9995 52.7852 22.8149 52.7852 34.8867V35.2251C52.7852 42.22 56.1782 48.4251 61.4432 52.3738L67.5272 44.1379H66.2402ZM65.1872 42.7841H60.0392V29.4713C60.0392 28.6815 59.3372 28.1174 58.6352 28.1174H57.4652V26.0867H61.7942C63.6662 26.0867 65.1872 27.5533 65.1872 29.3584V42.7841Z" fill="#009344"/>
<path d="M110.119 28.3447C110.002 28.119 109.768 28.0062 109.534 27.7805C109.3 27.5549 109.066 27.4421 108.715 27.2164C108.364 27.1036 108.13 26.878 107.662 26.7652C107.311 26.6523 106.843 26.6523 106.375 26.6523C105.673 26.6523 104.971 26.7652 104.386 27.1036C103.801 27.4421 103.333 27.8934 102.865 28.3447C102.514 28.9088 102.163 29.4729 101.929 30.1498C101.695 30.8267 101.578 31.5036 101.578 32.1805C101.578 32.9703 101.695 33.76 101.929 34.437C102.163 35.1139 102.514 35.678 102.982 36.2421C103.45 36.8062 103.918 37.1447 104.62 37.3703C105.205 37.5959 105.907 37.8216 106.726 37.8216C107.194 37.8216 107.779 37.7088 108.247 37.4831C108.832 37.2575 109.3 36.919 109.651 36.3549V37.3703C109.651 38.16 109.417 38.7241 108.949 39.2882C108.481 39.7395 108.013 40.078 106.96 40.078C106.258 40.078 105.556 40.078 104.971 39.8523C104.386 39.6267 103.918 39.5139 103.333 39.0626L102.748 41.7703C103.684 42.2216 103.45 42.2216 104.386 42.4472C105.322 42.6729 106.375 42.7857 107.311 42.7857C109.3 42.7857 110.47 42.3344 111.406 41.2062C112.342 40.1908 112.927 38.6113 112.927 36.5805V26.7652H110.119V28.3447ZM109.651 33.5344C109.534 33.8729 109.417 34.2113 109.183 34.437C108.949 34.6626 108.715 34.8882 108.481 35.1139C108.247 35.2267 107.896 35.3395 107.545 35.3395C107.194 35.3395 106.96 35.2267 106.609 35.1139C106.375 35.0011 106.141 34.7754 105.907 34.437C105.673 34.2113 105.556 33.8729 105.439 33.5344C105.322 33.1959 105.322 32.8575 105.322 32.4062C105.322 31.9549 105.322 31.6164 105.439 31.278C105.556 30.9395 105.673 30.6011 105.907 30.3754C106.141 30.1498 106.375 29.9241 106.609 29.6985C106.843 29.4729 107.194 29.4729 107.545 29.4729C107.896 29.4729 108.13 29.5857 108.481 29.6985C108.832 29.8113 108.949 30.037 109.183 30.3754C109.417 30.6011 109.534 30.9395 109.651 31.278C109.768 31.6164 109.768 31.9549 109.768 32.4062C109.768 32.8575 109.768 33.1959 109.651 33.5344Z" fill="white"/>
</svg>
