<svg width="206" height="70" viewBox="0 0 206 70" fill="none" xmlns="http://www.w3.org/2000/svg">
<path d="M0.785156 0H188.896C198.224 0 205.785 7.56162 205.785 16.8894V70H43.4586C33.2192 70 24.0695 63.6059 20.5496 53.9906L0.785156 0Z" fill="#0B0E15"/>
<path d="M59.7031 30.16H50.8515L49.5231 34.0642C49.0816 34.8855 48.8603 35.7068 48.8603 36.1186C48.8603 36.528 49.0816 36.9399 49.303 37.1459C49.7445 37.3518 50.4087 37.5553 51.5156 37.7612V38.379H44.4351V37.7612C45.3206 37.5553 45.9835 37.3518 46.2049 36.9399C46.8691 36.3246 47.5332 35.2949 48.1974 33.4464L55.9408 13.3125H56.605L64.3497 33.6523C64.7925 35.2949 65.4566 36.3221 65.8981 36.9399C66.5623 37.3493 67.2265 37.5553 68.1107 37.7612V38.3778H59.259V37.7612C60.1446 37.5553 60.8088 37.5553 61.0302 37.1459C61.4729 36.9399 61.4729 36.528 61.4729 36.1186C61.4729 35.7068 61.2515 34.8855 60.8088 33.6523L59.7031 30.16ZM59.039 28.9268L55.2779 19.0652L51.5156 28.9268H59.039ZM78.7335 19.8877L84.0442 33.4464L89.1336 19.8877H94.6657V20.5031C94.0029 20.5031 93.5601 20.7078 93.3387 20.7078C92.8959 20.9137 92.6745 21.1184 92.4531 21.5291C92.2317 21.735 92.2317 22.1457 92.2317 22.5563V35.4984C92.2317 35.9102 92.2317 36.3221 92.4531 36.5256C92.6745 36.9375 92.8959 37.1434 93.1173 37.3493C93.5601 37.5528 94.0029 37.5528 94.6657 37.5528V38.3766H86.921V37.5528C87.5852 37.5528 88.0279 37.5528 88.2493 37.3493C88.4707 37.1434 88.6921 36.7315 88.9135 36.5256C89.1349 36.1162 89.1349 35.7043 89.1349 35.2924V22.5575L83.3814 38.3766H82.7172L77.1851 23.38H76.9637V34.4736C76.9637 35.2949 76.9637 35.7068 77.1851 36.1186C77.1851 36.528 77.4065 36.9399 77.6279 37.1459C77.8492 37.3518 78.0706 37.3518 78.5121 37.5553H79.8404V38.379H73.4241V37.5553C74.0869 37.5553 74.5297 37.5553 74.9725 37.3518L75.6367 36.734C75.858 36.3246 75.858 36.1186 75.858 35.7068V24.8191V22.9682C75.858 22.3516 75.858 21.941 75.6367 21.5303C75.4153 21.3256 75.1939 20.915 74.9725 20.709C74.5297 20.709 74.0869 20.5043 73.4241 20.5043V19.8877H78.7335ZM100.641 38.3766V37.554H101.305C101.526 37.554 101.748 37.3481 101.969 37.1446C102.19 36.9387 102.412 36.5268 102.633 36.1174C102.853 35.7055 103.296 35.0877 103.517 34.2664L109.05 19.2687H109.492L115.687 35.2937C115.907 35.9115 116.13 36.3209 116.351 36.5268C116.573 36.9387 116.794 37.1446 117.016 37.3481C117.237 37.3481 117.458 37.554 117.68 37.554H118.344V38.3766H111.485V37.554H112.372L112.814 37.1446C112.814 37.1446 113.035 36.9387 113.035 36.7328C113.035 36.5268 113.035 36.1174 112.814 35.9115C112.814 35.7055 112.592 35.2937 112.592 35.0877L111.485 32.6226H105.51L104.624 35.0877C104.624 35.2937 104.403 35.4996 104.403 35.7055V36.3209C104.403 36.5268 104.403 36.7328 104.624 36.9387C104.624 37.1446 104.846 37.3481 105.067 37.3481C105.067 37.3481 105.289 37.554 105.51 37.554H105.953V38.3766H100.641ZM105.951 31.3919H111.041L108.385 24.612L105.951 31.3919ZM135.823 19.8877L136.046 24.2026H135.382C135.382 23.586 135.162 22.9694 135.162 22.5588C134.939 22.1481 134.719 21.9422 134.496 21.5315C134.053 21.3268 133.832 21.3268 133.611 21.1209H129.848V34.476C129.848 34.8879 129.848 35.2973 130.071 35.7092C130.071 36.1211 130.071 36.5305 130.291 36.7364C130.515 36.9424 130.735 37.1483 131.178 37.3518C131.398 37.5577 131.841 37.5577 132.506 37.5577V38.3802H124.319V37.5565C124.983 37.5565 125.426 37.5565 125.869 37.3506L126.533 36.7352C126.755 36.5293 126.755 36.1199 126.755 35.708C126.976 35.2961 126.976 34.8867 126.976 34.4748V21.1197H124.543C123.877 21.1197 123.435 21.1197 122.992 21.3244C122.549 21.3244 122.329 21.5291 122.106 21.941C121.886 22.1457 121.664 22.5575 121.664 22.9682C121.443 23.3788 121.443 23.7895 121.443 24.2013H120.778L121.001 19.8865L135.823 19.8877ZM150.651 38.3766H142.686V37.554C143.349 37.554 143.792 37.554 144.012 37.3481C144.455 37.3481 144.679 37.1446 144.679 36.7328C144.899 36.5268 145.122 36.3209 145.122 35.9115V23.5848V22.5575C145.122 22.1469 145.122 21.7362 144.899 21.5303C144.679 21.1197 144.455 20.915 144.235 20.709C143.792 20.709 143.349 20.5043 142.686 20.5043V19.8877H150.651V20.5031C149.987 20.5031 149.544 20.7078 149.101 20.7078C148.88 20.9137 148.657 21.1184 148.437 21.5291C148.215 21.735 148.215 22.1457 148.215 22.5563V35.9102C148.215 36.3221 148.437 36.5256 148.437 36.7315C148.657 37.1434 148.88 37.3493 149.323 37.3493C149.544 37.5528 149.987 37.5528 150.651 37.5528V38.3766ZM173.885 25.8451H173.22C173.22 25.6392 173 25.4345 173 25.0226C173 24.8179 172.777 24.612 172.557 24.2013C172.557 23.9954 172.334 23.7907 172.114 23.38C172.114 23.1741 171.894 22.9694 171.671 22.5588C171.227 22.3528 171.007 21.9422 170.564 21.7375C170.122 21.5315 169.899 21.1209 169.456 21.1209L168.132 20.5043H166.802C166.138 20.5043 165.252 20.709 164.591 21.1209C163.925 21.5315 163.263 21.9422 162.82 22.7647C162.154 23.586 161.712 24.4085 161.491 25.4357C161.269 26.463 161.049 27.6961 161.049 28.928C161.049 30.1612 161.269 31.1884 161.491 32.2144C161.491 33.037 161.934 33.8607 162.154 34.476C162.597 35.0914 162.82 35.5033 163.263 35.9151C163.705 36.3246 164.148 36.7364 164.591 36.9424C165.034 37.1483 165.476 37.3518 165.919 37.3518C166.362 37.5577 166.805 37.5577 167.248 37.5577C167.913 37.5577 168.576 37.5577 169.24 37.1483C169.903 36.9424 170.788 36.5305 171.453 35.9151C171.673 35.7092 171.895 35.2973 172.116 35.0914C172.336 34.8879 172.336 34.682 172.558 34.476C172.778 34.0642 173.001 33.8607 173.001 33.6548C173.221 33.2429 173.221 33.0369 173.444 32.6275L174.108 33.0369C173.887 33.2429 173.887 33.6548 173.665 33.8607L173.001 35.0914C172.778 35.5033 172.558 35.9151 172.116 36.3246C171.673 36.9424 171.229 37.1483 170.786 37.5577C170.123 37.9696 169.458 38.1755 168.793 38.3802C168.131 38.7909 167.465 38.7909 166.582 38.7909C165.254 38.7909 164.371 38.585 163.265 38.1755C162.156 37.5577 161.273 36.9424 160.387 36.1211C159.724 35.2973 159.059 34.2701 158.395 33.2429C157.952 32.0097 157.73 30.7766 157.73 29.3387C157.73 27.9008 157.952 26.6677 158.395 25.4357C158.837 24.2038 159.502 23.1753 160.387 22.1481C161.053 21.3268 162.158 20.7102 163.041 20.0937C164.148 19.683 165.254 19.2724 166.582 19.2724C167.469 19.2724 168.132 19.4771 168.793 19.683L170.123 20.2996C170.343 20.2996 170.566 20.5043 170.786 20.5043C171.009 20.709 171.229 20.709 171.229 20.709H171.453L171.673 20.915C171.673 20.915 171.673 20.709 171.895 20.709C171.895 20.709 172.116 20.709 172.116 20.5043C172.336 20.5043 172.336 20.2996 172.336 20.0937C172.558 19.889 172.558 19.683 172.558 19.2724H173.221L173.885 25.8451ZM43.5495 43.9258H44.6565V49.882H43.5495V43.9258ZM56.605 43.9258H57.2691L58.8176 48.0347V47.624V47.2122V46.8015V43.9258H59.7031V49.882H58.8176L57.2691 46.1825V46.8003C57.4905 47.0038 57.4905 47.2097 57.4905 47.4157V49.882H56.605V43.9258ZM71.6529 43.9258H72.5385C72.7599 43.9258 72.9813 43.9258 73.2027 44.1293H73.6455C73.6455 44.1293 73.8668 44.1293 74.0869 44.3352C74.0869 44.3352 74.3083 44.5411 74.3083 44.7471C74.5297 44.7471 74.5297 44.953 74.7511 45.1565V48.6513C74.5297 49.0631 74.5297 49.2679 74.3083 49.2679C74.3083 49.4726 74.0869 49.6785 74.0869 49.6785C73.8668 49.6785 73.6455 49.8844 73.6455 49.8844H71.6529V43.9258ZM72.7586 49.2654H73.2014C73.4228 49.2654 73.4228 49.0607 73.6441 49.0607V48.6488V46.1825V45.3612V44.9493C73.4228 44.9493 73.4228 44.7459 73.2014 44.7459H72.5372V49.2654H72.7586ZM86.4782 43.9258H87.3638V48.8548C87.3638 49.0607 87.5852 49.0607 87.5852 49.0607C87.5852 49.2654 87.5852 49.2654 87.8066 49.2654H88.2493L88.4707 49.0607V48.8548V43.9258H89.5777V48.2406C89.5777 48.4453 89.3563 48.6513 89.3563 48.8572C89.3563 49.0631 89.3563 49.2679 89.1349 49.4726C89.1349 49.4726 89.1349 49.6785 88.9135 49.6785C88.9135 49.8844 88.6921 49.8844 88.6921 49.8844C88.4707 49.8844 88.4707 50.0904 88.2493 50.0904H87.5852L87.3638 49.8844C87.1424 49.8844 87.1424 49.8844 86.921 49.6785L86.6996 49.4726C86.6996 49.2679 86.4782 49.0631 86.4782 48.8572V43.9258ZM101.083 48.8548V48.4429C101.083 48.2382 101.305 48.2382 101.305 48.0322H101.969V48.8548L102.19 49.0607C102.19 49.2654 102.19 49.2654 102.412 49.2654H103.075C103.075 49.0607 103.296 49.0607 103.296 48.8548C103.296 48.6488 103.296 48.6488 103.075 48.4429V48.2382V48.0322C102.853 48.0322 102.853 47.8275 102.853 47.8275L101.748 46.5944C101.526 46.3884 101.526 46.1825 101.305 45.9766C101.305 45.7731 101.083 45.5671 101.083 45.3612C101.083 45.1553 101.305 44.9493 101.305 44.7459C101.305 44.5399 101.526 44.5399 101.526 44.334C101.748 44.128 101.748 44.128 101.969 44.128C102.19 43.9221 102.412 43.9221 102.633 43.9221C102.853 43.9221 103.075 43.9221 103.296 44.128C103.517 44.128 103.739 44.334 103.739 44.334C103.96 44.5399 103.96 44.5399 103.96 44.7459C104.182 44.9493 104.182 45.1553 104.182 45.1553V45.5671C103.96 45.7731 103.96 45.7731 103.96 45.9766H103.296V45.5671C103.296 45.3612 103.296 45.1553 103.075 44.9493C103.075 44.7459 102.853 44.7459 102.633 44.7459H102.19V45.7731C102.412 45.7731 102.412 45.9766 102.412 45.9766L103.517 47.2097C103.739 47.4157 103.96 47.6216 103.96 47.8275C104.182 48.2382 104.182 48.4429 104.182 48.6488C104.182 48.8548 104.182 49.0607 103.96 49.2654C103.96 49.4701 103.96 49.4701 103.739 49.676C103.517 49.676 103.517 49.882 103.296 49.882C103.075 50.0879 102.853 50.0879 102.633 50.0879C102.412 50.0879 102.19 50.0879 101.969 49.882C101.748 49.882 101.526 49.676 101.526 49.676C101.305 49.4701 101.305 49.4701 101.305 49.2654C101.083 49.0607 101.083 48.8548 101.083 48.8548ZM116.351 44.7459H115.465V43.9221H118.343V44.7459H117.456V49.8795H116.349L116.351 44.7459ZM129.85 43.9258H130.958C131.178 43.9258 131.178 43.9258 131.401 44.1293H131.844C131.844 44.1293 132.064 44.1293 132.286 44.3352C132.286 44.3352 132.508 44.3352 132.508 44.5411C132.729 44.7471 132.729 44.7471 132.729 44.953C132.95 45.1565 132.95 45.3624 132.95 45.7743C132.95 46.3897 132.95 46.5956 132.729 47.0075L132.064 47.624L133.172 49.8844H132.064L131.178 47.83H130.958V49.8844H129.85V43.9258ZM130.958 47.0038H131.401C131.621 47.0038 131.621 47.0038 131.844 46.8003V46.5944V45.5671V45.1553V44.9493C131.621 44.7459 131.621 44.7459 131.401 44.7459H130.958V47.0038ZM144.676 43.9258H145.562V49.882H144.676V43.9258ZM157.51 43.9258H159.943V44.7471H158.615V46.5956H159.723V47.2122H158.615V49.2679H159.943V49.8844H157.51V43.9258ZM171.23 48.8548C171.23 48.6488 171.23 48.4429 171.453 48.4429V48.0322H172.116V48.8548L172.338 49.0607C172.338 49.2654 172.338 49.2654 172.558 49.2654H173.224C173.224 49.0607 173.445 49.0607 173.445 48.8548V48.4429C173.445 48.4429 173.224 48.4429 173.224 48.2382V48.0322C173.001 48.0322 173.001 47.8275 173.001 47.8275L171.895 46.5944C171.673 46.3884 171.673 46.1825 171.453 45.9766V45.3612V44.7459C171.453 44.5399 171.673 44.5399 171.673 44.334C171.895 44.128 172.116 44.128 172.116 44.128C172.338 43.9221 172.558 43.9221 172.781 43.9221C173.001 43.9221 173.445 43.9221 173.445 44.128C173.667 44.128 173.888 44.334 173.888 44.334L174.328 44.7459V45.5671C174.328 45.7731 174.107 45.7731 174.107 45.9766H173.443V45.5671C173.443 45.3612 173.443 45.1553 173.22 44.9493C173.22 44.7459 173 44.7459 172.777 44.7459H172.334V45.7731C172.557 45.7731 172.557 45.9766 172.557 45.9766L173.664 47.2097C173.885 47.4157 174.107 47.6216 174.107 47.8275C174.328 48.2382 174.328 48.4429 174.328 48.6488V49.2654L173.885 49.676C173.885 49.676 173.664 49.882 173.443 49.882C173.22 50.0879 173 50.0879 172.777 50.0879C172.557 50.0879 172.334 50.0879 172.114 49.882C171.894 49.882 171.671 49.676 171.671 49.676C171.451 49.4701 171.451 49.4701 171.451 49.2654C171.451 49.0607 171.23 48.8548 171.23 48.8548ZM43.3281 40.6369H174.328V41.4595H43.3281V40.6369Z" fill="white"/>
</svg>
