<svg width="206" height="70" viewBox="0 0 206 70" fill="none" xmlns="http://www.w3.org/2000/svg">
<path d="M0.785156 0H188.896C198.224 0 205.785 7.56162 205.785 16.8894V70H43.4586C33.2192 70 24.0695 63.6059 20.5496 53.9906L0.785156 0Z" fill="#0B0E15"/>
<path d="M86.6932 30.5803L90.7434 39.5448H87.2777L86.5964 38.0334H82.141L81.4597 39.5439H77.9994L82.0361 30.5803H86.6932ZM83.1952 35.4472H85.5224L84.3508 33.0895L83.1952 35.4472ZM89.4435 30.5606H101.365V33.5189H96.9101V39.5439H93.9392V33.5189H89.4435V30.5606ZM110.729 39.5439H108.253L106.025 35.5996V39.5439H103.029V30.5606H106.609L109.53 35.5359L112.449 30.5606H116.039V39.5439H113.045V35.5753L110.729 39.5439ZM123.55 30.4127C124.272 30.4064 124.993 30.4521 125.709 30.548C126.302 30.6287 126.885 30.7811 127.441 31.0016C127.93 31.1872 128.375 31.4732 128.746 31.8407C129.101 32.2145 129.371 32.661 129.536 33.1495C129.737 33.7448 129.834 34.3705 129.821 34.998C129.835 35.6139 129.752 36.228 129.573 36.8178C129.425 37.2956 129.181 37.7376 128.855 38.1177C128.512 38.4915 128.089 38.7855 127.617 38.9747C127.062 39.206 126.48 39.3638 125.884 39.4435C125.139 39.5439 124.387 39.5906 123.636 39.5834C121.507 39.5834 119.961 39.1979 118.997 38.4252C118.033 37.6524 117.551 36.4548 117.551 34.8304C117.551 33.3288 118.047 32.2163 119.036 31.4956C120.027 30.7739 121.531 30.4127 123.55 30.4127ZM123.664 37.2168C124.575 37.2168 125.278 37.0339 125.775 36.6672C126.271 36.2979 126.518 35.7403 126.518 34.9882C126.554 34.3391 126.259 33.7161 125.733 33.3315C125.211 32.9496 124.496 32.7596 123.624 32.7596C123.212 32.7542 122.802 32.8026 122.403 32.9057C122.085 32.9882 121.788 33.1397 121.534 33.3495C121.311 33.5395 121.137 33.7815 121.027 34.0541C120.911 34.3517 120.853 34.669 120.859 34.9882C120.835 35.6067 121.095 36.2038 121.567 36.6081C122.039 37.0249 122.74 37.2168 123.664 37.2168ZM136.705 30.5803C137.512 30.5803 138.202 30.5982 138.776 30.6368C139.291 30.6673 139.802 30.7381 140.305 30.8492C140.679 30.9254 141.042 31.0518 141.381 31.2258C141.648 31.3737 141.877 31.5825 142.047 31.8353C142.225 32.0917 142.35 32.3813 142.416 32.6861C142.492 33.0644 142.527 33.449 142.52 33.8344H139.328C139.335 33.7233 139.31 33.6112 139.259 33.5117C139.176 33.4104 139.067 33.3324 138.943 33.2876C138.695 33.198 138.435 33.146 138.17 33.1352C137.821 33.1047 137.356 33.0904 136.782 33.0904C136.02 33.0904 135.462 33.1065 135.111 33.1397C134.882 33.1478 134.657 33.1917 134.442 33.2706C134.346 33.3244 134.291 33.4292 134.301 33.5395C134.301 33.6498 134.427 33.7242 134.653 33.7636C134.878 33.8031 135.563 33.8667 136.705 33.9608C136.719 33.9599 136.732 33.9644 136.742 33.9725C139.007 34.1518 140.443 34.3158 141.052 34.4655C141.849 34.6538 142.364 34.9738 142.597 35.4274C142.772 35.8488 142.851 36.3033 142.827 36.7587C142.834 37.0975 142.806 37.4364 142.743 37.769C142.689 38.0379 142.574 38.2907 142.409 38.5085C142.238 38.7273 142.016 38.9012 141.763 39.0141C141.408 39.163 141.037 39.2687 140.656 39.3279C140.123 39.4202 139.583 39.4776 139.042 39.5C138.438 39.5323 137.685 39.5448 136.783 39.5448C136.168 39.5448 135.633 39.5448 135.185 39.5197C134.737 39.4946 134.314 39.4731 133.925 39.431C133.597 39.3978 133.272 39.3431 132.952 39.266C132.71 39.2015 132.477 39.1065 132.259 38.9819C131.883 38.7882 131.605 38.4503 131.486 38.0451C131.408 37.8183 131.356 37.5825 131.333 37.3432C131.308 37.0966 131.296 36.8008 131.296 36.4575H134.393C134.386 36.574 134.41 36.6878 134.464 36.7909C134.549 36.894 134.67 36.9631 134.804 36.9828C135.046 37.0446 135.296 37.0796 135.546 37.0868C135.869 37.1038 136.326 37.1137 136.915 37.1137H137.224C137.819 37.128 138.413 37.1101 139.005 37.0599C139.217 37.024 139.321 36.9138 139.321 36.7264C139.321 36.6188 139.25 36.5444 139.103 36.5095C138.703 36.4503 138.298 36.4126 137.893 36.3965C137.413 36.3615 137.016 36.332 136.697 36.3051C136.202 36.2629 135.804 36.2289 135.534 36.2011C135.265 36.1742 134.93 36.1401 134.531 36.0953C134.133 36.0505 133.83 35.9994 133.622 35.9519C133.415 35.9052 133.174 35.8461 132.893 35.7726C132.668 35.7251 132.452 35.6417 132.254 35.526C132.113 35.4319 131.96 35.3217 131.791 35.1935C131.639 35.0769 131.518 34.9263 131.44 34.7515C131.359 34.5722 131.295 34.3858 131.246 34.1948C131.189 33.9707 131.161 33.7403 131.162 33.509C131.16 33.2392 131.181 32.9694 131.226 32.7031C131.265 32.4844 131.325 32.2692 131.407 32.0622C131.483 31.8793 131.592 31.7125 131.729 31.5691C131.861 31.4275 132.007 31.3011 132.168 31.1926C132.35 31.0707 132.551 30.9792 132.764 30.9237C133.008 30.8492 133.256 30.791 133.507 30.748C133.754 30.7058 134.054 30.6718 134.415 30.6449C134.776 30.618 135.126 30.6027 135.475 30.5956C135.824 30.5875 136.228 30.5803 136.705 30.5803ZM144.486 30.5409H154.173V33.2724H147.489V34.1428H152.722V36.7811H147.493V39.5439H144.486V30.5409ZM155.958 30.5606H165.924V33.0509H158.954V33.8443H165.486V36.2307H158.954V37.0375H165.924V39.5439H155.958V30.5606ZM167.837 30.5606H174.475C174.646 30.5606 174.809 30.5606 174.97 30.5731C175.132 30.5857 175.342 30.6099 175.619 30.6565C175.878 30.6995 176.131 30.7641 176.379 30.8519C176.635 30.9443 176.879 31.0689 177.105 31.2213C177.349 31.3755 177.567 31.5691 177.748 31.7932C177.941 32.055 178.09 32.3481 178.186 32.6592C178.306 33.0438 178.365 33.4445 178.359 33.847C178.359 35.267 177.807 36.2791 176.701 36.8842L178.553 39.5341H175.087L173.545 37.4185H170.821V39.5439H167.838V30.5615L167.837 30.5606ZM174.193 34.7936C174.937 34.7936 175.309 34.5122 175.309 33.9483C175.309 33.4355 174.92 33.1791 174.141 33.1791H170.836V34.7936H174.193ZM187.965 30.5803L192.017 39.5448H188.552L187.868 38.0334H183.412L182.728 39.5439H179.273L183.31 30.5803H187.965ZM184.467 35.4472H186.794L185.625 33.0895L184.467 35.4472Z" fill="white"/>
<path d="M65.1591 38.696L63.6979 35.4499C59.6603 35.2231 55.5832 35.1075 51.4667 35.1048C47.3502 35.1012 43.2525 35.2177 39.1728 35.4544L37.7098 38.696C42.2189 38.41 46.8043 38.2657 51.4667 38.2603C56.1014 38.2603 60.6652 38.4055 65.1591 38.696ZM58.5702 24.0623L57.9875 22.7732C55.8244 22.7059 53.6514 22.6719 51.4676 22.6719C49.2839 22.6719 47.0902 22.7068 44.885 22.7759L44.3032 24.0623C46.6752 23.9834 49.0615 23.9341 51.4676 23.9341C53.8737 23.9341 56.2188 23.9834 58.5702 24.0623ZM62.5039 32.7991L59.6047 26.3697C56.9082 26.2711 54.1955 26.22 51.4676 26.2173C48.7397 26.2138 46.0064 26.2649 43.2687 26.3697L40.3695 32.8045C44.0333 32.6117 47.733 32.5158 51.4676 32.5158C55.2022 32.5158 58.8813 32.6099 62.5039 32.7991ZM68.156 45.353C64.9108 45.0975 61.6316 44.9191 58.3174 44.8152L59.1619 46.7336C62.4958 46.8519 65.7893 47.0473 69.0417 47.3198L68.156 45.353ZM66.2152 41.0384C61.3609 40.7094 56.4456 40.5453 51.4676 40.5453C46.4896 40.5453 41.5529 40.7112 36.6582 41.0438L35.7752 43.016C40.9146 42.6296 46.1454 42.4333 51.4676 42.4288C56.7701 42.4288 61.9803 42.6197 67.0982 43.0007L66.2152 41.0384ZM33.8281 47.3252C37.076 47.0536 40.366 46.8573 43.6981 46.7354L44.5524 44.8169C41.2516 44.9209 37.9724 45.0993 34.7165 45.353L33.8281 47.3252Z" fill="url(#paint0_linear_5797_44957)"/>
<defs>
<linearGradient id="paint0_linear_5797_44957" x1="574.004" y1="2123.21" x2="2395.39" y2="309.575" gradientUnits="userSpaceOnUse">
<stop stop-color="#F507EC"/>
<stop offset="0.09" stop-color="#EE0CEC"/>
<stop offset="0.22" stop-color="#DA19ED"/>
<stop offset="0.38" stop-color="#B92FEF"/>
<stop offset="0.57" stop-color="#8B4DF1"/>
<stop offset="0.77" stop-color="#5173F4"/>
<stop offset="0.98" stop-color="#0AA2F8"/>
<stop offset="1" stop-color="#02A7F8"/>
</linearGradient>
</defs>
</svg>
