<svg width="205" height="70" viewBox="0 0 205 70" fill="none" xmlns="http://www.w3.org/2000/svg">
<path d="M0 0H188.111C197.438 0 205 7.56162 205 16.8894V70H42.6734C32.434 70 23.2843 63.6059 19.7644 53.9906L0 0Z" fill="#0B0E15"/>
<g clipPath="url(#clip0_9361_42654)">
<path d="M41.5 47.3L54.1 23.1L59.9 19L72.2 48.3L57.6 30.1L41.5 47.3Z" fill="#F9FAFB"/>
<path d="M52.2031 42.8016L57.3031 47.1016L76.2031 29.6016L57.6031 51.0016L52.2031 42.8016Z" fill="#7CD6FB"/>
<path fill-rule="evenodd" clip-rule="evenodd" d="M101.602 31.5992L102.702 29.6992H100.302L99.2016 31.5992L96.6016 36.1992L94.0016 31.5992L92.9016 29.6992H90.5016L91.6016 31.5992L96.6016 40.2992L101.602 31.5992ZM91.4016 40.2992H93.8016L92.7016 38.3992L87.7016 29.6992L82.7016 38.3992L81.6016 40.2992H84.0016L85.1016 38.3992L87.7016 33.7992L90.3016 38.3992L91.4016 40.2992ZM111.702 40.2992H109.302L108.202 38.3992L105.602 33.7992L103.002 38.3992L101.902 40.2992H99.5016L100.602 38.3992L105.602 29.6992L110.602 38.3992L111.702 40.2992ZM121.302 31.5992V29.6992H109.302V31.5992H114.202V40.2992H116.302V31.5992H121.302ZM131.202 40.2992H128.802L127.702 38.3992L125.102 33.7992L122.502 38.3992L121.402 40.2992H119.002L120.102 38.3992L125.102 29.6992L130.102 38.3992L131.202 40.2992ZM143.102 40.2992L142.002 38.3992L140.302 35.3992C140.602 35.3992 140.902 35.2992 141.202 35.1992C142.302 34.6992 143.102 33.6992 143.102 32.5992C143.102 31.7992 142.702 31.0992 142.202 30.5992C141.602 30.0992 140.802 29.7992 139.902 29.7992H132.302V40.3992H134.402V35.4992H136.502C137.302 35.4992 137.902 35.8992 138.302 36.3992L138.402 36.4992L139.602 38.4992L140.702 40.3992L143.102 40.2992ZM140.302 33.3992C140.202 33.4992 140.002 33.4992 139.902 33.4992H134.502V31.4992H139.902C140.302 31.4992 140.502 31.6992 140.702 31.7992C140.802 31.8992 141.002 32.0992 141.002 32.4992C140.902 32.8992 140.702 33.2992 140.302 33.3992Z" fill="#F9FAFB"/>
<path fill-rule="evenodd" clip-rule="evenodd" d="M165.305 37.8992V29.6992H164.405V37.8992C164.405 38.6992 163.805 39.2992 163.105 39.2992H153.505C152.805 39.2992 152.205 38.6992 152.205 37.8992V29.6992H151.305V37.8992C151.305 39.1992 152.305 40.2992 153.505 40.2992H163.105C164.305 40.2992 165.305 39.2992 165.305 37.8992ZM181.505 40.2992L175.305 34.9992L181.505 29.6992H180.105L174.605 34.3992L169.105 29.6992H167.705L173.905 34.9992L167.705 40.2992H169.105L174.605 35.5992L180.105 40.2992H181.505Z" fill="#7CD6FB"/>
</g>
<defs>
<clipPath id="clip0_9361_42654">
<rect width="141" height="32" fill="white" transform="translate(41 19)"/>
</clipPath>
</defs>
</svg>
