<svg width="206" height="70" viewBox="0 0 206 70" fill="none" xmlns="http://www.w3.org/2000/svg">
<path d="M0.785156 0H188.896C198.224 0 205.785 7.56162 205.785 16.8894V70H43.4586C33.2192 70 24.0695 63.6059 20.5496 53.9906L0.785156 0Z" fill="#0B0E15"/>
<path d="M151.946 36.2226C151.328 36.3718 150.864 36.6659 150.4 37.1108C149.936 37.5541 149.626 37.9975 149.626 38.7364C149.626 39.1797 149.626 39.4753 149.781 39.7709C149.937 40.0664 150.09 40.3605 150.4 40.5098C150.709 40.6576 151.018 40.8053 151.328 40.9531C151.637 41.1009 152.101 41.1009 152.411 41.1009C152.875 41.1009 153.493 40.9531 153.957 40.8068C154.421 40.6561 154.885 40.3605 155.195 39.9172L155.04 40.9516H157.515L158.134 36.8137C158.288 36.0748 158.288 35.4837 158.288 35.0403C158.288 34.597 158.134 34.1536 157.824 33.7103C157.515 33.4147 157.206 33.1191 156.742 32.9713C156.278 32.8236 155.659 32.6758 154.885 32.6758C154.112 32.6758 153.493 32.8236 152.875 32.9713C152.256 33.1191 151.637 33.5625 151.018 34.0058L152.256 35.3359C152.565 35.0403 152.873 34.7447 153.339 34.597C153.803 34.4477 154.112 34.3014 154.576 34.3014C155.04 34.3014 155.349 34.4492 155.659 34.7447C155.967 35.0403 156.123 35.3359 155.967 35.7792C155.349 35.7792 154.885 35.7792 154.112 35.7792C153.184 35.927 152.565 36.0748 151.946 36.2226ZM154.731 37.4048H155.349V37.996C155.349 38.2915 155.193 38.4393 155.04 38.7349C154.885 38.8827 154.731 39.0305 154.576 39.1782C154.421 39.326 154.112 39.326 153.957 39.4738C153.803 39.6216 153.493 39.6216 153.184 39.6216C153.029 39.6216 152.875 39.6216 152.72 39.6216C152.565 39.6216 152.411 39.4738 152.411 39.4738C152.256 39.326 152.256 39.326 152.101 39.1782C152.101 39.0305 152.101 38.8827 152.101 38.7349C152.101 38.4393 152.257 38.2915 152.411 38.1438C152.567 37.996 152.875 37.8497 153.184 37.8497C153.493 37.7004 153.803 37.7004 154.112 37.7004C154.421 37.4048 154.576 37.4048 154.731 37.4048Z" fill="#3E6FFB"/>
<path d="M187.214 39.181C186.905 39.3288 186.75 39.3288 186.441 39.3288C185.977 39.3288 185.668 39.1795 185.358 39.0332C185.049 38.8855 184.894 38.7377 184.585 38.4421L182.729 40.0677C183.036 40.5111 183.502 40.8066 184.119 40.9544C184.738 41.1022 185.357 41.25 185.822 41.25C186.286 41.25 186.75 41.25 187.213 41.1007C187.677 40.9529 188.143 40.8066 188.605 40.6574C189.069 40.5096 189.378 40.214 189.688 39.7707C189.996 39.3273 190.152 39.0318 190.305 38.4406C190.305 37.9973 190.305 37.5539 190.15 37.2584C189.994 36.9628 189.686 36.6672 189.377 36.5194C189.068 36.3717 188.758 36.2239 188.294 36.0761C187.988 35.9298 187.524 35.9298 187.214 35.782C186.905 35.782 186.597 35.6342 186.441 35.4864C186.286 35.3387 186.132 35.1909 186.132 35.0431C186.132 34.7475 186.288 34.5997 186.441 34.5997C186.597 34.5997 186.905 34.4505 187.06 34.4505C187.677 34.4505 188.143 34.746 188.45 35.1894L190.307 33.7116C189.997 33.2682 189.533 32.9726 188.916 32.8249C188.297 32.6771 187.833 32.5293 187.213 32.5293C186.749 32.5293 186.285 32.5293 185.822 32.6771C185.358 32.8263 185.049 32.9741 184.585 33.1219C184.277 33.2697 183.968 33.5653 183.657 34.0086C183.347 34.3042 183.193 34.7475 183.193 35.1909C183.038 35.6342 183.193 36.0776 183.347 36.3731C183.504 36.6672 183.811 36.9628 184.121 37.1121C184.43 37.2598 184.74 37.4061 185.204 37.5554C185.513 37.7032 185.977 37.7032 186.286 37.851C186.596 37.851 186.904 37.9988 187.06 38.1451C187.214 38.2943 187.369 38.4406 187.369 38.5899C187.524 38.8855 187.369 39.0332 187.214 39.181Z" fill="#3E6FFB"/>
<path d="M161.995 36.9621C161.995 36.6666 162.149 36.3725 162.149 36.2232C162.149 36.0755 162.306 35.7799 162.459 35.6336C162.614 35.4843 162.768 35.3365 163.078 35.1888C163.232 35.041 163.542 35.041 163.851 35.041C164.16 35.041 164.315 35.041 164.468 35.1888C164.624 35.3365 164.624 35.4843 164.779 35.6321C164.779 35.7799 164.779 36.0754 164.779 36.2218C164.779 36.371 164.779 36.6651 164.779 36.8129L164.16 41.1001H166.79L167.409 36.8144C167.409 36.5188 167.563 36.371 167.563 36.0754C167.72 35.7799 167.72 35.6321 167.873 35.4843C168.029 35.3365 168.182 35.1888 168.491 35.041C168.801 34.8932 168.956 34.8932 169.265 34.8932C169.729 34.8932 170.038 35.041 170.038 35.3365C170.193 35.6321 170.193 35.9262 170.193 36.371L169.574 41.1001H172.049L172.823 36.3725C172.823 35.9277 172.977 35.4843 172.823 35.0424C172.823 34.5991 172.668 34.3035 172.513 33.8602C172.359 33.4168 172.049 33.269 171.74 33.1213C171.43 32.972 170.966 32.8242 170.348 32.8242C169.729 32.8242 169.109 32.972 168.645 33.1198C168.182 33.4154 167.718 33.7109 167.409 34.3021C167.254 33.8587 166.945 33.4154 166.481 33.2676C166.015 32.972 165.551 32.972 164.934 32.972C164.624 32.972 164.315 32.972 164.004 33.1213C163.695 33.269 163.54 33.269 163.231 33.4168C163.078 33.5631 162.768 33.7109 162.614 33.8587C162.459 34.0065 162.304 34.1543 162.149 34.3021L162.306 33.2676H159.829L158.592 41.3956H161.221L161.995 36.9621Z" fill="#3E6FFB"/>
<path d="M111.888 28.9818C108.64 33.2675 108.176 38.2922 112.198 41.2478C115.291 43.4646 119.159 42.7257 123.644 38.8818C127.821 42.7257 131.688 43.6109 135.4 41.2478C140.041 37.5533 137.877 31.1986 134.783 27.9474C132.771 25.7306 128.904 22.1838 123.644 17.1592C122.562 18.1937 121.479 19.2281 120.551 20.2626L117.302 17.1592C116.993 16.8636 116.374 16.8636 115.91 17.1592L108.331 24.4006C108.021 24.6961 108.021 25.2873 108.331 25.7306L111.888 28.9818ZM109.259 24.5483L116.374 17.8981C116.529 17.7503 116.838 17.7503 116.993 17.8981L124.108 24.5483C124.263 24.6961 124.263 24.9917 124.108 25.1395L116.993 31.7897C116.837 31.9375 116.527 31.9375 116.374 31.7897L109.259 25.1395C109.104 24.9917 109.104 24.6961 109.259 24.5483Z" fill="white"/>
<path d="M174.531 40.0664C174.841 40.5098 175.305 40.6561 175.923 40.9531C176.542 41.1009 177.006 41.2487 177.78 41.2487C178.397 41.2487 179.17 41.0994 179.79 40.8053C180.409 40.5098 181.028 40.0664 181.492 39.6216L179.79 38.293C179.481 38.5886 179.172 38.8827 178.862 39.0319C178.553 39.1797 178.244 39.3275 177.78 39.3275C177.316 39.3275 176.852 39.1797 176.542 38.8842C176.233 38.5886 176.078 38.293 176.078 37.7019H182.111L182.265 36.963C182.422 36.3733 182.422 35.7807 182.265 35.1896C182.111 34.5984 181.956 34.1551 181.647 33.8595C181.337 33.4162 181.028 33.2684 180.564 32.9713C180.1 32.8236 179.636 32.6758 179.017 32.6758C178.398 32.6758 177.78 32.8236 177.161 32.9713C176.542 33.1206 176.078 33.4162 175.614 33.8595C175.15 34.3029 174.686 34.7462 174.377 35.1881C174.067 35.7792 173.913 36.2226 173.758 36.9615C173.603 37.5526 173.758 38.1438 173.914 38.7349C174.067 39.3275 174.222 39.6231 174.531 40.0664ZM176.542 35.4851C176.697 35.3374 176.85 35.1896 177.006 35.0418C177.161 34.894 177.316 34.7462 177.623 34.7462C177.78 34.5984 178.089 34.5984 178.397 34.5984C178.862 34.5984 179.17 34.7462 179.48 35.0418C179.789 35.3374 179.789 35.6329 179.789 36.0763H176.386C176.387 35.9285 176.387 35.6329 176.542 35.4851Z" fill="#3E6FFB"/>
<path d="M79.4004 41.8383H81.7206V32.9713H85.5877V30.9023H75.688V32.9713H79.4004V41.8383Z" fill="white"/>
<path d="M68.1108 41.8388L69.3483 39.3279H73.6794L74.7622 41.8388H77.5464L72.906 30.9043H70.2764L65.3265 41.8388H68.1108ZM71.3591 33.7107L72.906 37.4053H69.8123L71.3591 33.7107Z" fill="white"/>
<path d="M60.5316 41.837H65.0174V39.9158H61.305C60.3769 39.9158 59.7582 39.1769 59.7582 38.438V31.0488H57.2833V38.7336C57.1286 40.3592 58.6754 41.837 60.5316 41.837Z" fill="white"/>
<path d="M121.472 43.6112C122.555 43.6112 124.875 43.6112 125.803 43.6112C125.029 42.5768 124.256 41.2467 123.639 39.6211C123.328 40.8034 122.709 42.1334 121.472 43.6112Z" fill="white"/>
<path d="M51.4007 41.8383C52.6382 41.8383 54.185 41.8383 56.0412 41.8383V39.9171H52.1741C50.782 39.9171 49.5445 38.7349 49.5445 37.4048H56.0412V35.4836H49.5445C49.5445 34.1551 50.782 32.9713 52.1741 32.9713H56.0412V30.9023C54.4944 30.9023 52.9475 30.9023 51.4007 30.9023C49.0805 30.9023 46.7603 33.1191 46.7603 36.3703C46.7603 39.6216 48.7711 41.8383 51.4007 41.8383Z" fill="white"/>
<path d="M46.1426 39.0317C46.1426 37.7017 45.5239 36.815 44.4411 36.2238C45.5239 35.4849 46.1426 34.5982 46.1426 33.7115C46.1426 32.383 45.2145 30.7559 42.8943 30.7559C41.6568 30.7559 39.3366 30.7559 35.9336 30.7559V41.6918C39.646 41.6918 42.1209 41.6918 43.2037 41.6918C45.5239 41.8396 46.1426 40.0662 46.1426 39.0317ZM38.2538 32.8248C39.8007 32.8248 41.1928 32.8248 42.1209 32.8248C43.2037 32.8248 43.513 33.5637 43.3583 34.1549C43.3583 34.746 42.8943 35.4849 42.1209 35.4849C41.5022 35.4849 40.2647 35.4849 38.2538 35.4849V32.8248ZM38.2538 39.7706V37.2583C39.9553 37.2583 41.1928 37.2583 42.2756 37.2583C43.3583 37.2583 43.6677 37.8495 43.6677 38.5884C43.6677 39.1795 43.2037 39.9184 42.2756 39.9184C41.6568 39.7706 40.4194 39.7706 38.2538 39.7706Z" fill="white"/>
<path d="M88.5242 37.7019C88.9883 37.7019 89.607 37.7019 90.5351 37.7019C92.546 37.7019 93.3194 38.8841 93.4741 39.7708C93.6287 40.3605 93.7834 41.0994 93.7834 41.8383H96.413C96.2583 40.9531 96.2583 40.2142 96.1037 39.4753C95.949 38.4408 95.3303 37.7019 94.2475 37.1107C95.6396 36.6659 96.2583 35.6329 96.2583 34.0058C96.2583 32.6757 95.3303 30.9023 93.01 30.9023C91.7726 30.9023 89.4523 30.9023 86.0493 30.9023V41.8398H88.5242V37.7019ZM88.5242 32.825C90.0711 32.825 91.4632 32.825 92.3913 32.825C93.4741 32.825 93.7834 33.5639 93.6287 34.3028C93.6287 35.0418 93.1647 35.7807 92.3913 35.7807C91.7726 35.7807 90.5351 35.7807 88.5242 35.7807V32.825Z" fill="white"/>
<path d="M100.743 39.326H105.074L106.157 41.8368H108.941L104.301 30.9023H101.671L96.8761 41.8383H99.5057L100.743 39.326ZM102.909 33.7102L104.456 37.4048H101.362L102.909 33.7102Z" fill="white"/>
<path d="M144.677 44.794C144.987 44.6462 145.607 44.4999 146.07 44.3507C146.379 44.2029 146.687 44.0551 146.998 43.761C147.927 43.0221 148.545 41.8383 148.701 40.3605L149.782 32.9713H147.307L147.152 34.0058C146.996 33.858 146.996 33.7103 146.843 33.5625C146.687 33.4147 146.534 33.2669 146.224 33.1191C146.07 32.9713 145.76 32.9713 145.451 32.8236C145.142 32.6758 144.834 32.6758 144.368 32.6758C143.749 32.6758 143.285 32.8236 142.667 32.9713C142.203 33.2669 141.739 33.5625 141.274 33.8595C140.81 34.1551 140.501 34.7462 140.346 35.1881C140.037 35.6329 139.882 36.2226 139.882 36.8152C139.726 37.4048 139.726 37.9975 139.882 38.4408C140.037 38.8842 140.192 39.329 140.5 39.7709C140.809 40.2142 141.273 40.3605 141.739 40.6576C142.203 40.8068 142.82 40.9531 143.44 40.9531C143.904 40.9531 144.213 40.8053 144.677 40.6576C145.142 40.5098 145.607 40.2142 145.915 39.7709L145.76 40.5083C145.606 41.0979 145.451 41.5428 144.987 41.9861C144.523 42.4295 143.904 42.5773 143.131 42.5773C142.667 42.5773 142.048 42.4295 141.74 42.2832C141.274 42.1339 140.965 41.8383 140.501 41.5428L138.8 43.6117C139.109 43.9073 139.418 44.0551 139.728 44.2029H139.573C140.346 44.4984 141.893 44.9418 142.357 44.9418C143.285 45.0896 144.059 44.9418 144.677 44.794ZM145.915 38.2915C145.76 38.4393 145.451 38.5871 145.142 38.7349C144.834 38.8827 144.524 38.8827 144.368 38.8827C144.06 38.8827 143.751 38.8827 143.595 38.7349C143.287 38.5871 143.131 38.4393 142.978 38.2915C142.821 38.1438 142.667 37.8482 142.667 37.7004C142.667 37.5526 142.512 37.2571 142.667 36.9615C142.667 36.6659 142.821 36.5181 142.976 36.2226C143.131 35.927 143.285 35.7792 143.44 35.6329C143.595 35.4837 143.904 35.3374 144.213 35.1881C144.523 35.0403 144.832 35.0403 145.142 35.0403C145.451 35.0403 145.76 35.0403 145.915 35.1881C146.07 35.3359 146.379 35.4837 146.534 35.6314C146.688 35.7792 146.843 36.0748 146.843 36.2211C146.843 36.5167 146.998 36.6645 146.843 36.96C146.843 37.2556 146.687 37.4034 146.534 37.6989C146.381 37.9945 146.224 38.1438 145.915 38.2915Z" fill="#3E6FFB"/>
<path d="M145.913 44.3516C145.913 44.3516 146.067 44.3516 145.913 44.3516C145.449 44.5008 144.985 44.7949 144.675 44.7949C144.057 44.9427 143.283 44.9427 142.51 45.0905C142.046 45.0905 140.499 44.6471 139.725 44.3516H35.9336V46.2727H190.616V44.3516H145.913Z" fill="url(#paint0_linear_5797_44959)"/>
<defs>
<linearGradient id="paint0_linear_5797_44959" x1="35.9336" y1="45.3117" x2="190.617" y2="45.3117" gradientUnits="userSpaceOnUse">
<stop stop-color="#DB42FB"/>
<stop offset="0.2519" stop-color="#2F54FB"/>
<stop offset="0.5697" stop-color="#05002A"/>
</linearGradient>
</defs>
</svg>
