<svg width="206" height="70" viewBox="0 0 206 70" fill="none" xmlns="http://www.w3.org/2000/svg">
<path d="M0.785156 0H188.896C198.224 0 205.785 7.56162 205.785 16.8894V70H43.4586C33.2192 70 24.0695 63.6059 20.5496 53.9906L0.785156 0Z" fill="#0B0E15"/>
<path d="M66.8743 50.7002C66.8743 45.6604 66.8743 40.7175 66.8743 35.6777C67.0785 35.6777 67.1806 35.6777 67.3848 35.6777C70.3459 35.6777 73.3071 35.6777 76.2682 35.6777C76.6766 35.6777 76.8808 35.7747 76.983 36.0654C77.1872 36.7438 77.4935 37.5192 77.4935 38.1976C77.5956 40.7175 77.4935 43.1405 77.4935 45.6604C77.4935 48.4711 74.9408 50.7971 72.1839 50.7002C70.448 50.7002 68.7122 50.7002 66.8743 50.7002ZM70.448 36.7438C70.448 40.3299 70.448 43.8189 70.448 47.308C71.0607 47.308 71.5712 47.308 72.0818 47.308C73.205 47.308 73.9197 46.6296 73.9197 45.5635C73.9197 44.3035 73.9197 43.0436 73.9197 41.7836C73.9197 40.6206 73.9197 39.5545 73.9197 38.3915C73.9197 37.4223 73.3071 36.7438 72.4902 36.6469C71.8776 36.7438 71.1628 36.7438 70.448 36.7438Z" fill="white"/>
<path d="M66.8675 19.3008C67.0717 19.3008 67.1738 19.3008 67.378 19.3008C68.8075 19.3008 70.3392 19.3008 71.7687 19.3008C74.5256 19.3008 76.6699 21.0453 77.1804 23.6621C77.1804 23.856 77.1804 24.0498 77.1804 24.2437C77.1804 26.7636 77.1804 29.2835 77.1804 31.8034C77.1804 32.6756 76.8741 33.451 76.4656 34.2263C76.3635 34.3233 76.1593 34.5171 76.0572 34.5171C72.994 34.5171 70.0328 34.5171 66.9696 34.5171C66.9696 34.5171 66.8675 34.5171 66.7654 34.4202C66.8675 29.3804 66.8675 24.3406 66.8675 19.3008ZM70.4413 33.3541C71.0539 33.3541 71.6666 33.3541 72.2792 33.2571C72.994 33.1602 73.6066 32.4818 73.6066 31.7064C73.6066 29.2835 73.6066 26.8605 73.6066 24.3406C73.6066 23.5652 73.0961 22.8868 72.2792 22.693C71.8708 22.596 71.4623 22.693 71.0539 22.596C70.6455 22.4991 70.4413 22.693 70.4413 23.1775C70.4413 26.3759 70.4413 29.5742 70.4413 32.6756C70.4413 32.9664 70.4413 33.0633 70.4413 33.3541Z" fill="white"/>
<path d="M128.138 34.321C126.912 34.321 125.891 34.321 124.666 34.321C124.666 34.1272 124.666 33.9333 124.666 33.7395C124.666 30.735 124.666 27.7305 124.666 24.726C124.666 23.4661 123.951 22.6907 122.828 22.6907C121.909 22.6907 121.092 23.3691 121.092 24.2414C121.092 25.1137 121.092 25.986 121.092 26.7613C121.092 29.0874 121.092 31.3165 121.092 33.6426C121.092 33.8364 121.092 34.0302 121.092 34.2241C119.867 34.2241 118.744 34.2241 117.518 34.2241C117.518 34.0302 117.518 33.8364 117.518 33.6426C117.518 30.5412 117.416 27.5367 117.518 24.4352C117.62 22.2061 118.948 20.2677 121.296 19.5893C123.951 18.8139 126.708 20.0739 127.729 22.4969C128.035 23.0784 128.138 23.7568 128.138 24.4352C128.138 27.5367 128.138 30.735 128.138 33.8364C128.24 33.9333 128.138 34.1272 128.138 34.321Z" fill="#FFBD19"/>
<path d="M128.238 35.679C128.238 37.7143 128.238 39.5557 128.238 41.3972C128.238 43.1417 128.341 44.8863 128.136 46.5339C127.932 48.3754 126.707 49.7322 124.971 50.3137C122.622 51.186 120.172 50.7014 118.538 48.4723C117.823 47.6 117.517 46.5339 117.517 45.4678C117.517 42.4633 117.517 39.3619 117.517 36.3574C117.517 35.582 117.517 35.582 118.334 35.582C118.947 35.582 119.661 35.582 120.274 35.582C120.989 35.582 120.989 35.582 120.989 36.2605C120.989 39.265 120.989 42.3664 120.989 45.3709C120.989 45.8555 121.091 46.3401 121.499 46.8247C122.112 47.4062 122.929 47.4062 123.541 47.1154C124.154 46.9216 124.563 46.3401 124.563 45.6616C124.563 44.8863 124.563 44.2078 124.563 43.4325C124.563 41.0095 124.563 38.5865 124.563 36.1635C124.563 35.679 124.665 35.582 125.175 35.582C126.196 35.679 127.217 35.679 128.238 35.679Z" fill="#FFBD19"/>
<path d="M108.014 35.7747C108.525 35.7747 108.831 35.6777 109.239 35.6777C110.567 35.6777 111.996 35.6777 113.324 35.6777C113.732 35.6777 113.936 35.7747 114.141 36.0654C114.957 37.2284 115.366 38.4884 115.468 39.8453C115.468 41.7836 115.468 43.722 115.468 45.7573C115.57 47.7926 113.63 50.0218 111.69 50.5064C110.465 50.7971 109.239 50.7971 108.116 50.4095C106.993 50.0218 106.176 49.2464 105.461 48.1803C104.951 47.308 104.747 46.4358 104.747 45.4666C104.747 44.8851 104.747 44.3035 104.747 43.722C104.747 43.4313 104.849 43.2374 105.155 43.2374C106.074 43.2374 106.891 43.2374 107.81 43.2374C108.218 43.2374 108.32 43.4313 108.32 43.722C108.32 44.4005 108.218 45.0789 108.32 45.7573C108.422 46.8234 109.239 47.308 110.056 47.308C111.281 47.308 111.894 46.6296 111.894 45.6604C111.996 44.0128 111.894 42.4621 111.792 40.8145C111.69 39.1668 110.771 37.81 109.444 36.8408C109.035 36.4531 108.525 36.1623 108.014 35.7747Z" fill="#FFBD19"/>
<path d="M111.996 34.3214C111.486 34.3214 110.975 34.3214 110.465 34.3214C109.239 34.3214 107.912 34.3214 106.687 34.3214C106.482 34.3214 106.278 34.2244 106.176 34.0306C105.257 32.7707 104.747 31.3169 104.747 29.6692C104.747 27.7309 104.747 25.7925 104.747 23.8541C104.747 22.3034 106.176 20.365 107.708 19.7835C108.831 19.2989 109.954 19.1051 111.179 19.2989C113.528 19.8804 115.468 21.8188 115.468 24.0479C115.468 24.8233 115.468 25.5986 115.468 26.374C115.468 26.4709 115.264 26.7617 115.059 26.7617C114.141 26.7617 113.119 26.7617 112.2 26.7617C112.098 26.7617 111.996 26.7617 111.894 26.6647C111.894 25.8894 111.894 25.114 111.894 24.2418C111.792 23.2726 111.179 22.6911 110.056 22.6911C109.239 22.6911 108.32 23.3695 108.32 24.1448C108.32 25.4048 108.32 26.6647 108.32 27.9247C108.32 28.797 108.422 29.7662 108.729 30.5415C109.035 31.7045 109.954 32.4799 110.873 33.2553C111.281 33.546 111.69 33.8368 111.996 34.1275C112.098 34.3214 111.996 34.3214 111.996 34.3214Z" fill="#FFBD19"/>
<path d="M80.2509 35.6777C83.3141 35.6777 86.3773 35.6777 89.5427 35.6777C89.5427 36.0654 89.5427 36.3562 89.5427 36.7438C87.7047 36.7438 85.7647 36.7438 83.9267 36.7438C83.9267 40.3299 83.9267 43.8189 83.9267 47.308C85.7647 47.308 87.7047 47.308 89.5427 47.308C89.5427 48.4711 89.5427 49.5372 89.5427 50.7002C86.4794 50.7002 83.4162 50.7002 80.2509 50.7002C80.2509 45.7573 80.2509 40.7175 80.2509 35.6777Z" fill="white"/>
<path d="M140.083 22.693C138.245 22.693 136.612 22.693 134.876 22.693C134.365 22.693 134.263 22.7899 134.263 23.2745C134.263 26.4728 134.263 29.6711 134.263 32.8695C134.263 33.2571 134.365 33.3541 134.774 33.3541C136.51 33.3541 138.245 33.3541 139.981 33.3541C139.981 33.451 140.083 33.451 140.083 33.451C140.185 34.3233 140.185 34.3233 139.266 34.3233C136.407 34.3233 133.651 34.3233 130.792 34.3233C130.792 34.1294 130.792 33.9356 130.792 33.7417C130.792 29.0896 130.792 24.4375 130.792 19.7854C130.792 19.3977 130.894 19.3008 131.302 19.3008C134.059 19.3008 136.816 19.3008 139.573 19.3008C140.185 19.3008 140.185 19.3008 140.185 19.8823C139.981 20.8515 140.083 21.7238 140.083 22.693Z" fill="#FFBD19"/>
<path d="M80.2474 19.3008C83.3106 19.3008 86.3738 19.3008 89.4371 19.3008C89.4371 20.4638 89.4371 21.5299 89.4371 22.693C87.5991 22.693 85.6591 22.693 83.8211 22.693C83.8211 26.182 83.8211 29.6711 83.8211 33.2571C85.6591 33.2571 87.5991 33.2571 89.4371 33.2571C89.4371 33.6448 89.4371 33.9356 89.4371 34.3233C86.3738 34.3233 83.3106 34.3233 80.1453 34.3233C80.2474 29.3804 80.2474 24.3406 80.2474 19.3008Z" fill="white"/>
<path d="M151.723 19.3C151.723 20.3662 151.723 21.5292 151.723 22.6922C150.906 22.6922 150.09 22.6922 149.273 22.6922C148.456 22.6922 148.456 22.6922 148.456 23.4676C148.456 26.569 148.456 29.6704 148.456 32.7718C148.456 33.2564 148.456 33.8379 148.456 34.3225C147.23 34.3225 146.107 34.3225 144.882 34.3225C144.882 30.4458 144.882 26.6659 144.882 22.6922C143.657 22.6922 142.534 22.6922 141.308 22.6922C141.308 22.3045 141.308 21.9169 141.308 21.5292C141.308 20.9477 141.308 20.3662 141.308 19.7846C141.308 19.397 141.41 19.2031 141.819 19.2031C143.248 19.2031 144.678 19.2031 146.005 19.2031C147.741 19.2031 149.579 19.2031 151.315 19.2031C151.519 19.3 151.621 19.3 151.723 19.3Z" fill="#FFBD19"/>
<path d="M95.5602 34.3233C95.5602 34.1294 95.5602 33.9356 95.5602 33.6448C95.5602 30.1557 95.5602 26.6666 95.5602 23.1775C95.5602 22.7899 95.4581 22.693 95.0496 22.693C94.0286 22.693 93.1096 22.693 92.0885 22.693C92.0885 21.5299 92.0885 20.4638 92.0885 19.3008C95.4581 19.3008 98.9297 19.3008 102.299 19.3008C102.299 20.3669 102.299 21.5299 102.299 22.693C101.278 22.693 100.257 22.693 99.134 22.693C99.134 26.5697 99.134 30.4465 99.134 34.3233C97.9087 34.3233 96.7855 34.3233 95.5602 34.3233Z" fill="white"/>
<path d="M130.689 35.7754C133.855 35.7754 136.918 35.7754 140.083 35.7754C140.083 36.0661 140.083 36.4538 140.083 36.8415C139.675 36.8415 139.368 36.8415 139.062 36.8415C137.633 36.8415 136.203 36.8415 134.876 36.8415C134.467 36.8415 134.365 36.9384 134.365 37.3261C134.365 41.5905 134.365 45.7581 134.365 50.0225C134.365 50.7979 134.365 50.7979 133.548 50.7979C132.834 50.7979 132.221 50.7979 131.506 50.7979C131.302 50.7979 131.098 50.7979 130.791 50.701C130.689 45.6612 130.689 40.7183 130.689 35.7754Z" fill="#FFBD19"/>
<path d="M95.5646 35.6777C96.7899 35.6777 97.9131 35.6777 99.0362 35.6777C99.0362 40.7175 99.0362 45.6604 99.0362 50.7002C97.9131 50.7002 96.6878 50.7002 95.5646 50.7002C95.5646 45.7573 95.5646 40.7175 95.5646 35.6777Z" fill="white"/>
<path d="M148.46 50.7017C147.848 50.7017 147.337 50.7017 146.826 50.7017C146.418 50.7017 145.907 50.7017 145.499 50.7017C145.091 50.7017 144.989 50.6048 144.989 50.2171C144.989 48.3757 144.989 46.5342 144.989 44.6927C144.989 41.8821 144.989 39.1684 144.989 36.3577C144.989 35.8731 145.091 35.6793 145.601 35.7762C146.418 35.7762 147.133 35.7762 147.95 35.7762C148.154 35.7762 148.256 35.8731 148.46 35.8731C148.46 40.7191 148.46 45.6619 148.46 50.7017Z" fill="#FFBD19"/>
<path d="M57.2734 40.8178C57.2734 36.941 57.2734 33.1612 57.2734 29.1875C57.6819 29.5752 58.0903 29.8659 58.4987 30.2536C60.1325 31.7074 61.6641 33.2581 63.2978 34.7119C63.502 34.9057 63.7062 35.0996 63.3999 35.2934C61.4599 37.038 59.5198 38.8794 57.5798 40.624C57.4777 40.7209 57.3755 40.7209 57.2734 40.8178Z" fill="#FFBD19"/>
<path d="M159.382 40.8154C157.952 39.5554 156.625 38.2955 155.297 37.0355C154.685 36.454 154.072 35.8725 153.459 35.3879C153.153 35.0971 153.051 35.0002 153.459 34.7095C154.583 33.7403 155.604 32.7711 156.625 31.8019C157.34 31.1235 158.054 30.445 158.769 29.7666C158.871 29.6697 159.075 29.5727 159.28 29.3789C159.382 33.1588 159.382 36.9386 159.382 40.8154Z" fill="#FFBD19"/>
</svg>
