<svg width="206" height="70" viewBox="0 0 206 70" fill="none" xmlns="http://www.w3.org/2000/svg">
<path d="M0.785156 0H188.896C198.224 0 205.785 7.56162 205.785 16.8894V70H43.4586C33.2192 70 24.0695 63.6059 20.5496 53.9906L0.785156 0Z" fill="#0B0E15"/>
<path fill-rule="evenodd" clip-rule="evenodd" d="M40.7148 22.6738H61.6943V47.3255H40.7148V22.6738ZM45.8527 43.5741V27.095H50.9905C52.8458 27.095 54.273 27.497 55.272 28.1669C56.271 28.8367 56.8419 30.0425 56.8419 31.5163C56.8419 32.3201 56.6992 32.99 56.271 33.6599C55.8429 34.3298 55.272 34.7317 54.5584 34.9996C55.5574 35.1336 56.1283 35.6695 56.5565 36.3394C56.9846 37.0093 57.2701 37.8131 57.2701 38.751C57.2701 40.3587 56.8419 41.5645 55.8429 42.3683C54.8439 43.1722 53.5594 43.5741 51.7041 43.5741H45.8527ZM48.9924 36.3394V41.0286H51.4186C52.1322 41.0286 52.7031 40.8946 52.9885 40.4927C53.274 40.0907 53.5594 39.5548 53.5594 38.751C53.5594 37.9471 53.4167 37.4112 53.1312 37.0093C52.8458 36.6074 52.2749 36.3394 51.7041 36.3394H48.9924ZM48.9924 34.0618H50.8478C51.5614 34.0618 52.1322 33.7939 52.4177 33.5259C52.7031 33.258 52.9885 32.5881 52.9885 31.9182C52.9885 31.1143 52.8458 30.5784 52.4177 30.1765C51.9895 29.7746 51.4186 29.6406 50.7051 29.6406H48.9924V34.0618Z" fill="#FFCC29"/>
<path d="M77.1112 40.8941C76.6831 41.5639 76.1122 42.0998 75.1132 42.6357C74.2569 43.1717 73.1152 43.4396 71.688 43.4396C69.8327 43.4396 68.4055 42.9037 67.2638 41.8319C66.122 40.7601 65.5511 39.2863 65.5511 37.4107V32.5875C65.5511 30.7119 66.122 29.2381 67.121 28.1663C68.1201 27.0945 69.5472 26.5586 71.4026 26.5586C73.2579 26.5586 74.5423 26.9605 75.5414 27.7644C76.5404 28.5682 76.9685 29.774 77.1112 31.3817V31.5157H74.8278C74.8278 30.4439 74.5423 29.774 73.9715 29.1041C73.4006 28.5682 72.687 28.3003 71.5453 28.3003C70.4035 28.3003 69.6899 28.7022 68.9764 29.3721C68.4055 30.042 68.1201 31.1138 68.1201 32.5875V37.5446C68.1201 38.8844 68.4055 39.9562 69.1191 40.7601C69.8327 41.5639 70.689 41.8319 71.8307 41.8319C72.687 41.8319 73.2579 41.6979 73.8287 41.43C74.2569 41.162 74.685 40.7601 74.8278 40.3581V36.6068H71.8307V34.9991H77.254L77.1112 40.8941Z" fill="white"/>
<path d="M83.1005 47.3255H81.816V22.6738H83.1005V47.3255ZM104.508 47.3255H103.224V22.6738H104.508V47.3255ZM125.773 47.3255H124.631V22.6738H125.773V47.3255ZM168.588 47.3255H167.304V22.6738H168.588V47.3255ZM147.181 47.3255H145.896V22.6738H147.181V47.3255Z" fill="white"/>
<path d="M90.6643 37.5459H95.0886L92.9478 30.3111H92.8051L90.6643 37.5459ZM95.8021 39.4215H90.2362L88.9517 43.5748H86.3828L91.8061 27.0957H94.0895L99.5128 43.5748H97.0866L95.8021 39.4215Z" fill="white"/>
<path d="M110.36 27.0957L114.499 40.4933L118.638 27.0957H121.777V43.5748H119.351V37.2779L119.637 30.847H119.494L115.355 43.5748H113.642L109.504 30.847H109.361L109.646 37.2779V43.5748H107.22V27.0957H110.36Z" fill="white"/>
<path d="M137.053 43.5748H134.627V27.0957H137.053V43.5748Z" fill="white"/>
<path d="M163.307 43.5748H160.881L154.316 31.249H154.173V43.5748H151.747V27.0957H154.173L160.881 39.2875V27.0957H163.307V43.5748Z" fill="white"/>
<path d="M183.857 41.028C183.429 41.6979 182.858 42.2338 181.859 42.7697C181.003 43.3056 179.861 43.5736 178.434 43.5736C176.579 43.5736 175.151 43.0377 174.01 41.9659C172.868 40.8941 172.297 39.4203 172.297 37.5447V32.5875C172.297 30.7119 172.868 29.2381 173.867 28.1663C174.866 27.0945 176.436 26.5586 178.149 26.5586C179.861 26.5586 181.288 26.9605 182.287 27.7644C183.286 28.5682 183.714 29.774 183.857 31.3817V31.5157H181.574C181.574 30.4439 181.288 29.64 180.717 29.1041C180.147 28.5682 179.433 28.3003 178.291 28.3003C177.149 28.3003 176.436 28.7022 175.722 29.3721C175.151 30.042 174.723 31.1138 174.723 32.5875V37.5447C174.723 39.0184 175.009 40.0902 175.722 40.7601C176.436 41.43 177.292 41.8319 178.434 41.8319C179.29 41.8319 179.861 41.6979 180.432 41.43C180.86 41.162 181.288 40.7601 181.431 40.3582V36.6068H178.434V34.8651H183.857V41.028Z" fill="white"/>
</svg>
