<svg width="206" height="70" viewBox="0 0 206 70" fill="none" xmlns="http://www.w3.org/2000/svg">
<path d="M0.785156 0H188.896C198.224 0 205.785 7.56162 205.785 16.8894V70H43.4586C33.2192 70 24.0695 63.6059 20.5496 53.9906L0.785156 0Z" fill="#0B0E15"/>
<path d="M124.43 36.3876C124.43 36.6413 124.43 36.7695 124.43 36.8951C124.43 38.4176 124.43 39.9401 124.43 41.3358C124.43 42.4777 123.394 43.3658 122.49 43.2389C121.972 43.2389 121.584 43.2389 121.067 43.2389C120.937 43.2389 120.808 43.2389 120.808 42.9852C120.808 38.7982 120.808 34.6113 120.808 30.4256C120.808 29.5375 120.808 28.5225 121.197 27.6343C121.584 26.4912 122.231 25.603 123.266 24.9687C125.336 24.0805 127.405 23.573 129.604 24.0805C130.381 24.2074 131.157 24.588 131.933 25.0955C132.838 25.7299 133.357 26.6181 133.742 27.6331C134.389 29.2825 134.52 31.0587 134.26 32.835C134.131 34.1038 133.742 35.2457 132.966 36.2607C131.415 38.5445 128.828 38.9251 126.628 38.1638C125.853 37.9101 125.206 37.4026 124.818 36.6413C124.559 36.5144 124.559 36.5144 124.43 36.3876ZM130.51 31.1856C130.639 31.1856 130.639 31.1856 130.51 31.1856C130.51 30.5512 130.381 29.9169 130.252 29.4093C130.123 28.6481 129.735 28.0137 129.088 27.5062C127.405 26.3643 125.206 27.2524 124.689 29.1556C124.43 30.1706 124.43 31.3125 124.559 32.4544C124.689 33.3425 124.949 34.1038 125.596 34.6113C127.019 35.8801 129.346 35.3726 130.123 33.5963C130.51 32.835 130.639 32.0738 130.51 31.1856Z" fill="white"/>
<path d="M152.505 33.471C152.505 34.9935 152.505 36.3892 152.505 37.9117C152.505 38.1655 152.505 38.1654 152.247 38.1654C151.211 38.1654 150.178 38.1654 149.143 38.1654C148.755 38.1654 148.755 38.1654 148.755 37.7848C148.755 35.2473 148.755 32.5816 148.755 30.0441C148.755 29.2828 148.885 28.5228 149.013 27.8884C149.271 26.3659 150.307 25.3509 151.73 24.7165C154.188 23.5746 156.775 23.7002 159.103 25.0971C160.138 25.6034 160.656 26.4928 160.785 27.6347C160.913 28.2691 161.042 29.0303 161.042 29.7916C161.042 32.5816 161.042 35.2473 161.042 38.0386C161.042 38.1655 161.042 38.2911 160.784 38.2911C160.266 38.2911 159.749 38.2911 159.233 38.2911C158.068 38.2911 157.422 37.5298 157.422 36.5161C157.422 34.2323 157.422 31.9472 157.422 29.5378C157.422 29.0303 157.422 28.6497 157.163 28.1409C156.774 27.5078 156.256 27.254 155.609 27.0003C155.092 26.8721 154.575 26.8721 154.186 27.0003C153.022 27.3809 152.505 28.0153 152.505 29.1572C152.505 30.5528 152.505 32.0754 152.505 33.471Z" fill="white"/>
<path d="M162.203 28.1424C162.203 25.6049 162.203 23.1955 162.203 20.658C162.203 20.2773 162.203 20.2773 162.721 20.2773C163.238 20.2773 163.626 20.2773 164.144 20.2773C165.051 20.2773 165.955 21.0386 165.955 22.0524C165.955 22.8149 165.955 23.4493 165.955 24.2093C165.955 24.463 165.955 24.463 166.213 24.463C166.73 24.463 167.376 24.463 167.895 24.463C168.024 24.463 168.154 24.5899 168.154 24.5899C168.154 24.9705 168.154 25.3524 168.154 25.6049C167.895 26.3674 167.248 26.8737 166.344 26.8737C165.955 26.8737 165.955 26.8737 165.955 27.2543C165.955 29.6637 165.955 32.0756 165.955 34.485C165.955 35.1194 166.213 35.5013 166.991 35.5013C167.378 35.5013 167.638 35.5013 168.024 35.5013C168.155 35.5013 168.284 35.5013 168.284 35.7538C168.284 36.5163 168.284 37.2763 168.284 38.0388C168.284 38.1657 168.284 38.2913 168.024 38.2913C166.731 38.2913 165.437 38.2913 164.274 38.1644C163.24 38.1644 162.593 37.4032 162.465 36.515C162.465 36.1344 162.334 35.8807 162.334 35.5C162.203 32.9638 162.203 30.5531 162.203 28.1424Z" fill="white"/>
<path d="M134.911 34.2323C134.911 33.216 134.911 32.0754 134.911 31.0604C134.911 30.0454 135.041 29.0304 135.558 28.0154C136.205 26.4928 137.369 25.351 139.051 24.8434C140.086 24.4628 141.122 24.3359 142.154 24.3359C142.414 24.3359 142.543 24.3359 142.801 24.3359C143.061 24.3359 143.061 24.3359 143.061 24.5897C143.061 25.7316 143.061 26.7466 143.061 27.8898C143.061 28.0166 143.061 28.1422 142.801 28.1422C142.285 28.1422 141.638 28.1422 141.12 28.1422C139.697 28.2691 138.921 29.0304 138.792 30.426C138.792 30.6785 138.792 30.8067 138.792 31.0604C138.792 33.3442 138.792 35.7536 138.792 38.0386C138.792 38.1655 138.792 38.2911 138.535 38.2911C137.498 38.2911 136.334 38.2911 135.301 38.2911C135.17 38.2924 135.041 38.2924 135.041 38.0386C134.911 36.643 134.911 35.5011 134.911 34.2323Z" fill="white"/>
<path d="M144.095 31.1872C144.095 28.9034 144.095 26.7465 144.095 24.4627C144.095 24.3346 144.095 24.209 144.355 24.209C144.871 24.209 145.518 24.209 146.036 24.209C147.072 24.209 147.847 24.9702 147.847 25.9853C147.847 29.9184 147.847 33.8504 147.847 37.9104C147.847 38.0386 147.847 38.1642 147.589 38.1642C146.553 38.1642 145.389 38.1642 144.355 38.1642C144.225 38.1654 144.095 38.1654 144.095 37.9117C144.095 35.7548 144.095 33.471 144.095 31.1872Z" fill="white"/>
<path d="M148.364 44.2543C148.235 44.5081 148.105 44.8887 148.105 45.1425C147.589 46.665 147.07 48.0606 146.553 49.5832C146.553 49.71 146.424 49.71 146.296 49.71C146.036 49.71 145.778 49.71 145.518 49.71C145.387 49.71 145.259 49.5832 145.259 49.4576C144.742 48.0606 144.225 46.665 143.836 45.2693C143.707 44.8887 143.578 44.635 143.447 44.2543C143.447 44.1275 143.447 44.1275 143.318 44.1275V44.2543C143.318 45.9037 143.318 47.68 143.447 49.3294C143.447 49.4576 143.447 49.5832 143.19 49.5832C142.8 49.5832 142.414 49.5832 142.025 49.5832C141.896 49.5832 141.768 49.4563 141.768 49.3294C141.768 46.92 141.768 44.3825 141.768 41.9706C141.768 41.7168 141.897 41.7168 142.025 41.7168C142.543 41.7168 143.062 41.7168 143.578 41.7168C143.708 41.7168 143.836 41.7168 143.966 41.9706C144.355 42.9856 144.613 44.0006 145.002 44.8887C145.259 45.6512 145.518 46.4112 145.778 47.2994C145.778 47.2994 145.778 47.2994 145.907 47.4263C145.907 47.2994 146.037 47.2994 146.037 47.1725C146.684 45.3975 147.33 43.7481 147.848 41.9706C147.848 41.8437 147.977 41.7168 148.107 41.7168C148.623 41.7168 149.141 41.7168 149.788 41.7168C149.918 41.7168 150.047 41.8449 150.047 41.9706C150.047 44.5081 150.047 46.9187 150.047 49.4563C150.047 49.5832 150.047 49.7088 149.788 49.7088C149.4 49.7088 149.012 49.7088 148.624 49.7088C148.495 49.7088 148.367 49.7088 148.367 49.5819C148.367 48.0594 148.367 46.5368 148.367 45.0143C148.364 44.7618 148.364 44.5081 148.364 44.2543Z" fill="white"/>
<path d="M134.001 44.1281C133.611 44.1281 133.354 44.1281 132.964 44.1281H132.835C132.446 44.1281 132.059 44 131.799 43.7475C130.636 42.7325 128.696 43.24 128.049 44.7625C127.402 46.1581 128.179 47.8063 129.601 48.1882C130.636 48.5688 131.93 48.0613 132.447 47.0463V46.9194C132.318 46.9194 132.318 46.9194 132.19 46.9194C131.284 46.9194 130.379 46.9194 129.473 46.9194C129.342 46.9194 129.213 46.9194 129.213 46.6656C129.213 46.4119 129.213 46.1581 129.213 45.7775C129.213 45.5237 129.213 45.5237 129.473 45.5237C131.024 45.5237 132.576 45.5237 134.001 45.5237C134.13 45.5237 134.258 45.6519 134.258 45.7775C134.387 47.9344 132.447 49.8376 130.377 49.8376C128.179 49.9644 126.626 48.4406 126.108 46.7925C125.462 44.3819 127.273 41.8443 129.86 41.5906C131.153 41.4624 132.318 41.8443 133.094 42.7312C133.611 43.24 133.74 43.6206 134.001 44.1281Z" fill="white"/>
<path d="M167.636 44.1279C166.989 44.1279 166.472 44.1279 165.825 44.1279C165.696 44.1279 165.696 43.9998 165.566 43.9998C164.789 43.2398 163.883 43.1129 162.978 43.4935C162.072 43.8742 161.425 44.6354 161.425 45.5236C161.296 46.7923 162.072 47.8074 163.236 48.1893C164.401 48.5699 165.565 48.0611 166.081 47.0474V46.9205C165.952 46.9205 165.952 46.9205 165.952 46.9205C165.047 46.9205 164.141 46.9205 163.235 46.9205C163.106 46.9205 162.976 46.9205 162.976 46.6667C162.976 46.413 162.976 46.1592 162.976 45.7786C162.976 45.6517 162.976 45.5248 163.235 45.5248C164.786 45.5248 166.34 45.5248 167.763 45.5248C167.892 45.5248 168.02 45.653 168.02 45.7786C168.151 47.8086 166.469 49.7118 164.399 49.8386C162.59 49.9643 161.037 49.0761 160.261 47.5536C159.228 45.3967 160.132 42.8592 162.332 41.971C164.403 41.0829 166.729 41.971 167.637 43.8742C167.636 44.001 167.636 44.1279 167.636 44.1279Z" fill="white"/>
<path d="M154.567 44.6338C154.567 45.1413 154.567 45.5219 154.567 46.0307C154.567 47.1713 154.567 48.3145 154.567 49.4564C154.567 49.7088 154.567 49.7088 154.308 49.7088C153.92 49.7088 153.661 49.7088 153.273 49.7088C153.142 49.7088 153.014 49.7088 153.014 49.4564C153.014 47.0457 153.014 44.5082 153.014 42.0962C153.014 41.8437 153.014 41.8438 153.273 41.8438C153.532 41.8438 153.92 41.8438 154.178 41.8438C154.436 41.8438 154.567 41.9706 154.696 42.0962C155.343 42.9844 155.859 43.8725 156.506 44.7619C156.894 45.3963 157.283 46.0307 157.799 46.6651C157.799 46.6651 157.93 46.6651 157.93 46.7919C157.93 46.6651 157.93 46.5382 157.93 46.4113C157.93 45.0157 157.93 43.4931 157.93 42.0975C157.93 41.9706 157.93 41.845 158.187 41.845C158.577 41.845 158.963 41.845 159.223 41.845C159.481 41.845 159.481 41.9719 159.481 42.0975C159.481 43.8738 159.481 45.7769 159.481 47.5545C159.481 48.1889 159.481 48.8232 159.481 49.4576C159.481 49.5845 159.481 49.7101 159.223 49.7101C158.834 49.7101 158.577 49.7101 158.187 49.7101C158.058 49.7101 157.93 49.5832 157.93 49.5832C156.895 48.0594 155.86 46.41 154.825 44.8875C154.697 44.7606 154.697 44.7606 154.567 44.6338Z" fill="white"/>
<path d="M133.743 49.7104C134.003 49.076 134.26 48.4416 134.52 47.8072C135.297 45.9041 136.072 44.0009 136.719 42.0978C136.848 41.8453 136.976 41.7171 137.236 41.8453C137.494 41.8453 137.753 41.8453 138.013 41.8453C138.142 41.8453 138.27 41.8453 138.27 42.0978C138.787 43.4934 139.305 44.889 139.952 46.2847C140.34 47.4253 140.856 48.4403 141.245 49.5835V49.7104C141.116 49.7104 141.116 49.7104 141.116 49.7104C140.727 49.7104 140.209 49.7104 139.822 49.7104C139.692 49.7104 139.562 49.7104 139.562 49.4579C139.434 49.076 139.305 48.6953 139.046 48.1878C139.046 48.0597 138.916 47.9341 138.787 47.9341C138.011 47.9341 137.106 47.9341 136.33 47.9341C136.2 47.9341 136.072 48.061 136.072 48.1878C135.943 48.5685 135.814 48.9491 135.683 49.3285C135.554 49.4566 135.554 49.5822 135.296 49.5822C134.649 49.7104 134.131 49.7104 133.743 49.7104ZM137.494 44.2547C137.106 45.0172 136.847 45.9041 136.459 46.6653C137.106 46.6653 137.753 46.6653 138.399 46.6653C138.141 45.7772 137.753 45.0159 137.494 44.2547Z" fill="white"/>
<path d="M150.687 45.7757C150.687 44.5069 150.687 43.2381 150.687 42.0962C150.687 41.8437 150.818 41.8438 150.946 41.8438C151.334 41.8438 151.593 41.8438 151.981 41.8438C152.369 41.8438 152.369 41.8437 152.369 42.0962C152.369 43.6188 152.369 45.1413 152.369 46.5369C152.369 47.4251 152.369 48.4401 152.369 49.3282C152.369 49.4564 152.369 49.582 152.111 49.582C151.722 49.582 151.334 49.582 151.075 49.582C150.946 49.582 150.818 49.582 150.818 49.3282C150.687 48.3132 150.687 47.0444 150.687 45.7757Z" fill="white"/>
<path d="M145.901 23.0666C145.383 23.0666 144.866 23.0666 144.219 23.0666C143.96 23.0666 143.96 23.0666 143.96 22.8141C143.96 22.0516 143.96 21.1635 143.96 20.4035C143.96 20.2766 143.96 20.1497 144.219 20.1497C144.736 20.1484 145.383 20.1484 145.901 20.1484C146.937 20.1484 147.712 20.911 147.712 21.9247C147.712 22.1785 147.712 22.431 147.712 22.8128C147.712 22.9397 147.712 23.0653 147.453 23.0653C146.937 23.0666 146.418 23.0666 145.901 23.0666Z" fill="white"/>
<path d="M170.098 40.0681C170.098 40.3218 170.098 40.4487 170.098 40.7024C170.098 41.0831 170.098 41.4637 170.098 41.8443C170.098 41.9712 169.969 41.9712 169.969 42.0981C169.969 41.9712 169.839 41.9712 169.839 41.8456C169.839 41.2112 169.839 40.4487 169.839 39.8143C169.839 39.6874 169.839 39.5605 169.969 39.5605C170.099 39.5605 170.229 39.5605 170.229 39.6887C170.486 40.3231 170.745 40.8293 170.875 41.4637L171.005 41.5918L171.134 41.4637C171.393 40.8293 171.652 40.3231 171.91 39.6887C171.91 39.5605 172.041 39.5605 172.17 39.5605L172.3 39.6887C172.3 40.45 172.3 41.0843 172.3 41.8456L172.17 41.9725C172.17 41.8456 172.04 41.8456 172.04 41.7187C172.04 41.2125 172.04 40.5781 172.04 40.0693C172.04 40.0693 172.04 39.9424 172.04 39.8156C172.04 39.9437 171.909 39.9437 171.909 40.0693C171.65 40.5756 171.522 41.2099 171.262 41.7175C171.262 41.8456 171.133 41.8456 171.133 41.9712C171.004 41.8443 171.004 41.8443 170.875 41.7175C170.615 41.2099 170.486 40.5756 170.098 40.0681C170.229 40.0681 170.229 40.0681 170.098 40.0681C170.229 40.0681 170.229 40.0681 170.098 40.0681Z" fill="white"/>
<path d="M169.188 40.9555C169.188 41.2093 169.188 41.5899 169.188 41.8436C169.188 41.9705 169.059 41.9705 169.059 42.0961C169.059 41.9693 168.929 41.9693 168.929 41.8436C168.929 41.2093 168.929 40.7018 168.929 40.0674C168.929 39.9405 168.929 39.8136 168.669 39.8136H168.54L168.411 39.6867L168.54 39.5586C168.929 39.5586 169.187 39.5586 169.576 39.5586L169.706 39.6867C169.706 39.6867 169.706 39.8136 169.576 39.8136C169.576 39.8136 169.446 39.8136 169.316 39.8136C169.187 39.8136 169.059 39.8136 169.059 40.0674C169.188 40.3211 169.188 40.5749 169.188 40.9555Z" fill="white"/>
<path d="M58.4628 43.2389C62.7493 43.2389 66.2242 39.8306 66.2242 35.6263C66.2242 31.422 62.7493 28.0137 58.4628 28.0137C54.1763 28.0137 50.7014 31.422 50.7014 35.6263C50.7014 39.8306 54.1763 43.2389 58.4628 43.2389Z" fill="url(#paint0_linear_5797_44963)"/>
<path d="M73.2061 32.4559C70.8776 32.329 68.5492 32.2021 66.0914 32.0752C67.6437 30.0439 69.0667 28.2689 70.4896 26.3658C68.1612 27.2539 65.9621 28.2689 63.6337 29.2839C64.1511 27.2539 64.6685 25.2239 65.186 23.1939C63.8924 24.3345 62.7282 25.4776 61.3053 26.6195C61.1759 24.5895 61.0465 22.6864 60.9172 20.7832C60.7878 20.7832 60.7878 20.7832 60.7878 20.7832C59.6236 22.8145 58.33 24.9701 57.1658 27.0002C55.8723 25.2239 54.7081 23.4476 53.5438 21.6713C53.4145 21.6713 53.4145 21.6713 53.4145 21.6713C53.5438 23.8282 53.8026 25.9852 53.9319 28.2689C52.1209 27.0002 50.0512 25.4776 48.1109 24.082C49.0164 26.112 49.7925 28.1421 50.8274 30.1721C48.887 29.7915 47.076 29.4108 45.265 29.0302C46.9467 30.5527 48.4989 32.2021 50.3099 33.7246C47.8522 34.1053 45.5237 34.6128 43.1953 34.9934C43.1953 35.1203 43.1953 35.1203 43.1953 35.1203C45.265 35.7547 47.2054 36.5159 49.2751 37.1503C47.4641 38.1653 45.7824 39.1803 44.1008 40.1953C44.1008 40.3235 44.1008 40.3235 44.1008 40.3235C46.2999 40.0697 48.6283 39.816 51.0861 39.561C49.6631 41.4641 48.2402 43.2404 46.6879 45.0167C48.7577 44.0016 51.0861 42.9866 53.2851 41.8447C52.8971 44.2554 52.509 46.5392 52.1209 48.9498C52.2503 48.9498 52.2503 48.9498 52.2503 48.9498C53.5438 47.4273 54.8374 45.7779 56.2603 44.2554C56.7778 45.9048 57.2952 47.4273 57.942 49.0767C58.0713 49.0767 58.0713 49.0767 58.0713 49.0767C58.5888 47.4273 59.2355 45.9048 59.753 44.2554C61.0465 45.9048 62.5988 47.6811 63.8924 49.3305C63.763 46.9211 63.5043 44.3836 63.2456 41.9716C65.3153 43.2404 67.2557 44.3823 69.196 45.651C68.2905 43.4941 67.385 41.2104 66.4795 39.0535C68.5492 39.0535 70.6189 38.9253 72.6886 38.9253C72.6886 38.7984 72.6886 38.7984 72.6886 38.7984C70.7483 37.9103 68.8079 37.149 66.7382 36.3878C68.8079 35.374 71.007 33.8515 73.2061 32.4559ZM58.33 43.1135C54.32 42.9866 50.5686 39.6878 50.8274 35.1203C50.9567 31.314 54.1906 28.0152 58.4594 28.0152C62.7282 28.0152 66.0914 31.4409 66.0914 35.5009C66.0914 39.561 62.7282 42.9866 58.33 43.1135Z" fill="#FFCC00"/>
<path d="M63.4992 37.4035C63.3699 37.1498 63.2405 36.7691 62.9818 36.5154C62.8524 36.3885 62.8524 36.3885 62.8524 36.3885C62.8524 36.5167 62.8524 36.5167 62.8524 36.5167C62.9818 36.6435 62.9818 36.8973 62.9818 37.0229C61.3002 37.6573 55.7378 37.5304 53.5388 36.896C53.6681 36.7691 53.9268 36.3885 53.7975 36.1348C53.4094 36.641 53.0213 37.1498 52.5039 37.5304C52.892 37.5304 53.0213 37.2767 53.28 37.1498C53.7975 37.7842 54.1855 38.4185 54.8323 39.0529C55.9965 40.1936 57.2901 40.7023 58.8424 40.5755C59.8772 40.4473 60.7827 40.0679 61.5589 39.3067C62.2057 38.7992 62.8524 38.0379 63.2405 37.2754C63.3699 37.4035 63.4992 37.5291 63.7579 37.7829H63.8873C63.7579 37.6573 63.7579 37.6573 63.7579 37.6573C63.6286 37.6573 63.4992 37.5304 63.4992 37.4035ZM62.2057 38.4185C61.5589 39.1798 60.7827 39.8142 59.7479 40.1936C58.1956 40.7011 56.902 40.4473 55.4791 39.5592C54.8323 39.0529 53.9268 38.0379 53.6681 37.4035C56.7727 38.0379 59.7479 38.0379 62.7231 37.5304C62.5937 37.7842 62.335 38.0379 62.2057 38.4185Z" fill="#242422"/>
<path d="M61.6962 34.6111C61.8255 34.4831 61.9547 34.4831 61.9547 34.4831C61.9547 34.2309 61.9547 33.9774 62.0839 33.7227C61.8255 33.7239 61.567 34.2309 61.6962 34.6111Z" fill="white"/>
<path d="M62.6011 33.8513C62.4718 33.5975 62.4718 33.3438 62.0837 33.3438C61.9543 33.3438 61.6956 33.4706 61.5663 33.7244C61.0488 34.6125 61.3075 35.3738 61.4369 35.3738C61.5663 35.7544 61.9543 35.8813 62.213 35.5019C62.7305 35.12 62.7305 34.4856 62.6011 33.8513ZM61.9543 34.4856C61.9543 34.6138 61.825 34.6138 61.6956 34.6138C61.5663 34.1063 61.825 33.7256 62.0837 33.7256C61.9543 33.8513 61.9543 34.2319 61.9543 34.4856Z" fill="#242422"/>
<path d="M53.8047 32.9643C53.6753 32.8374 53.2873 33.0911 53.2873 33.218C53.1579 33.5987 53.0286 33.9793 53.0286 34.3599C53.0286 34.4868 53.0286 34.4868 53.0286 34.4868C53.0286 34.7405 53.1579 35.1212 53.546 35.1212C53.6753 35.1212 54.0634 34.9943 54.0634 34.6149C54.1928 34.2343 54.3221 33.7268 54.1928 33.3462C54.1928 33.218 54.0634 33.0911 53.8047 32.9643ZM53.4166 34.1062C53.4166 34.233 53.2873 34.233 53.1579 34.233C53.0286 33.7255 53.2873 33.3449 53.6753 33.3449C53.546 33.5987 53.546 33.8524 53.4166 34.1062Z" fill="#242422"/>
<path d="M57.2947 35.3761C57.6827 35.3761 57.9414 35.3761 58.3295 35.3761C58.3295 35.5042 58.3295 35.5042 58.3295 35.6298C58.3295 35.7554 58.3295 35.7567 58.3295 35.7567C58.4589 35.7567 58.4589 35.7567 58.4589 35.7567C58.4589 35.6298 58.5882 35.6298 58.5882 35.6298C58.7176 35.3761 58.5882 35.1223 58.3295 35.1223C57.9414 35.1223 57.6827 35.1223 57.2947 35.1223C56.7772 35.1223 56.3892 34.8698 56.3892 34.3611C56.2598 33.8536 56.3892 33.3461 56.7772 32.9654C57.1653 32.4579 57.6827 32.2029 58.3295 32.0773C58.4589 32.0773 58.4589 31.9491 58.5882 31.9491C58.4589 31.8223 58.3295 31.8223 58.2002 31.8223C57.6827 31.9491 57.1653 32.2029 56.7772 32.5835C56.3892 32.9654 56.1304 33.3461 56.1304 33.8536C55.8717 34.8686 56.5185 35.3761 57.2947 35.3761Z" fill="#242422"/>
<path d="M53.931 32.0747C54.7072 32.2016 54.8365 32.836 54.9659 33.4703C55.0952 32.5822 54.5778 31.8209 53.931 31.8209C53.0255 31.6941 52.5081 32.3284 52.2494 33.0897C52.6375 32.4553 53.0255 31.9478 53.931 32.0747Z" fill="#242422"/>
<path d="M62.3415 32.4555C63.1176 32.5824 63.5057 33.2168 63.635 33.9781C63.635 33.0899 63.1176 32.3287 62.3415 32.2018C61.436 32.0749 61.0479 32.7093 60.7892 33.4706C61.1773 32.8362 61.5653 32.3287 62.3415 32.4555Z" fill="#242422"/>
<path d="M58.4628 43.2389C62.7493 43.2389 66.2242 39.8306 66.2242 35.6263C66.2242 31.422 62.7493 28.0137 58.4628 28.0137C54.1763 28.0137 50.7014 31.422 50.7014 35.6263C50.7014 39.8306 54.1763 43.2389 58.4628 43.2389Z" fill="url(#paint1_linear_5797_44963)"/>
<path d="M73.2061 32.4559C70.8776 32.329 68.5492 32.2021 66.0914 32.0752C67.6437 30.0439 69.0667 28.2689 70.4896 26.3658C68.1612 27.2539 65.9621 28.2689 63.6337 29.2839C64.1511 27.2539 64.6685 25.2239 65.186 23.1939C63.8924 24.3345 62.7282 25.4776 61.3053 26.6195C61.1759 24.5895 61.0465 22.6864 60.9172 20.7832C60.7878 20.7832 60.7878 20.7832 60.7878 20.7832C59.6236 22.8145 58.33 24.9701 57.1658 27.0002C55.8723 25.2239 54.7081 23.4476 53.5438 21.6713C53.4145 21.6713 53.4145 21.6713 53.4145 21.6713C53.5438 23.8282 53.8026 25.9852 53.9319 28.2689C52.1209 27.0002 50.0512 25.4776 48.1109 24.082C49.0164 26.112 49.7925 28.1421 50.8274 30.1721C48.887 29.7915 47.076 29.4108 45.265 29.0302C46.9467 30.5527 48.4989 32.2021 50.3099 33.7246C47.8522 34.1053 45.5237 34.6128 43.1953 34.9934C43.1953 35.1203 43.1953 35.1203 43.1953 35.1203C45.265 35.7547 47.2054 36.5159 49.2751 37.1503C47.4641 38.1653 45.7824 39.1803 44.1008 40.1953C44.1008 40.3235 44.1008 40.3235 44.1008 40.3235C46.2999 40.0697 48.6283 39.816 51.0861 39.561C49.6631 41.4641 48.2402 43.2404 46.6879 45.0167C48.7577 44.0016 51.0861 42.9866 53.2851 41.8447C52.8971 44.2554 52.509 46.5392 52.1209 48.9498C52.2503 48.9498 52.2503 48.9498 52.2503 48.9498C53.5438 47.4273 54.8374 45.7779 56.2603 44.2554C56.7778 45.9048 57.2952 47.4273 57.942 49.0767C58.0713 49.0767 58.0713 49.0767 58.0713 49.0767C58.5888 47.4273 59.2355 45.9048 59.753 44.2554C61.0465 45.9048 62.5988 47.6811 63.8924 49.3305C63.763 46.9211 63.5043 44.3836 63.2456 41.9716C65.3153 43.2404 67.2557 44.3823 69.196 45.651C68.2905 43.4941 67.385 41.2104 66.4795 39.0535C68.5492 39.0535 70.6189 38.9253 72.6886 38.9253C72.6886 38.7984 72.6886 38.7984 72.6886 38.7984C70.7483 37.9103 68.8079 37.149 66.7382 36.3878C68.8079 35.374 71.007 33.8515 73.2061 32.4559ZM58.33 43.1135C54.32 42.9866 50.5686 39.6878 50.8274 35.1203C50.9567 31.314 54.1906 28.0152 58.4594 28.0152C62.7282 28.0152 66.0914 31.4409 66.0914 35.5009C66.0914 39.561 62.7282 42.9866 58.33 43.1135Z" fill="#FFCC00"/>
<path d="M63.4992 37.4035C63.3699 37.1498 63.2405 36.7691 62.9818 36.5154C62.8524 36.3885 62.8524 36.3885 62.8524 36.3885C62.8524 36.5167 62.8524 36.5167 62.8524 36.5167C62.9818 36.6435 62.9818 36.8973 62.9818 37.0229C61.3002 37.6573 55.7378 37.5304 53.5388 36.896C53.6681 36.7691 53.9268 36.3885 53.7975 36.1348C53.4094 36.641 53.0213 37.1498 52.5039 37.5304C52.892 37.5304 53.0213 37.2767 53.28 37.1498C53.7975 37.7842 54.1855 38.4185 54.8323 39.0529C55.9965 40.1936 57.2901 40.7023 58.8424 40.5755C59.8772 40.4473 60.7827 40.0679 61.5589 39.3067C62.2057 38.7992 62.8524 38.0379 63.2405 37.2754C63.3699 37.4035 63.4992 37.5291 63.7579 37.7829H63.8873C63.7579 37.6573 63.7579 37.6573 63.7579 37.6573C63.6286 37.6573 63.4992 37.5304 63.4992 37.4035ZM62.2057 38.4185C61.5589 39.1798 60.7827 39.8142 59.7479 40.1936C58.1956 40.7011 56.902 40.4473 55.4791 39.5592C54.8323 39.0529 53.9268 38.0379 53.6681 37.4035C56.7727 38.0379 59.7479 38.0379 62.7231 37.5304C62.5937 37.7842 62.335 38.0379 62.2057 38.4185Z" fill="#242422"/>
<path d="M61.6962 34.6111C61.8255 34.4831 61.9547 34.4831 61.9547 34.4831C61.9547 34.2309 61.9547 33.9774 62.0839 33.7227C61.8255 33.7239 61.567 34.2309 61.6962 34.6111Z" fill="white"/>
<path d="M62.6011 33.8513C62.4718 33.5975 62.4718 33.3438 62.0837 33.3438C61.9543 33.3438 61.6956 33.4706 61.5663 33.7244C61.0488 34.6125 61.3075 35.3738 61.4369 35.3738C61.5663 35.7544 61.9543 35.8813 62.213 35.5019C62.7305 35.12 62.7305 34.4856 62.6011 33.8513ZM61.9543 34.4856C61.9543 34.6138 61.825 34.6138 61.6956 34.6138C61.5663 34.1063 61.825 33.7256 62.0837 33.7256C61.9543 33.8513 61.9543 34.2319 61.9543 34.4856Z" fill="#242422"/>
<path d="M53.8047 32.9643C53.6753 32.8374 53.2873 33.0911 53.2873 33.218C53.1579 33.5987 53.0286 33.9793 53.0286 34.3599C53.0286 34.4868 53.0286 34.4868 53.0286 34.4868C53.0286 34.7405 53.1579 35.1212 53.546 35.1212C53.6753 35.1212 54.0634 34.9943 54.0634 34.6149C54.1928 34.2343 54.3221 33.7268 54.1928 33.3462C54.1928 33.218 54.0634 33.0911 53.8047 32.9643ZM53.4166 34.1062C53.4166 34.233 53.2873 34.233 53.1579 34.233C53.0286 33.7255 53.2873 33.3449 53.6753 33.3449C53.546 33.5987 53.546 33.8524 53.4166 34.1062Z" fill="#242422"/>
<path d="M57.2947 35.3761C57.6827 35.3761 57.9414 35.3761 58.3295 35.3761C58.3295 35.5042 58.3295 35.5042 58.3295 35.6298C58.3295 35.7554 58.3295 35.7567 58.3295 35.7567C58.4589 35.7567 58.4589 35.7567 58.4589 35.7567C58.4589 35.6298 58.5882 35.6298 58.5882 35.6298C58.7176 35.3761 58.5882 35.1223 58.3295 35.1223C57.9414 35.1223 57.6827 35.1223 57.2947 35.1223C56.7772 35.1223 56.3892 34.8698 56.3892 34.3611C56.2598 33.8536 56.3892 33.3461 56.7772 32.9654C57.1653 32.4579 57.6827 32.2029 58.3295 32.0773C58.4589 32.0773 58.4589 31.9491 58.5882 31.9491C58.4589 31.8223 58.3295 31.8223 58.2002 31.8223C57.6827 31.9491 57.1653 32.2029 56.7772 32.5835C56.3892 32.9654 56.1304 33.3461 56.1304 33.8536C55.8717 34.8686 56.5185 35.3761 57.2947 35.3761Z" fill="#242422"/>
<path d="M53.931 32.0747C54.7072 32.2016 54.8365 32.836 54.9659 33.4703C55.0952 32.5822 54.5778 31.8209 53.931 31.8209C53.0255 31.6941 52.5081 32.3284 52.2494 33.0897C52.6375 32.4553 53.0255 31.9478 53.931 32.0747Z" fill="#242422"/>
<path d="M62.3415 32.4555C63.1176 32.5824 63.5057 33.2168 63.635 33.9781C63.635 33.0899 63.1176 32.3287 62.3415 32.2018C61.436 32.0749 61.0479 32.7093 60.7892 33.4706C61.1773 32.8362 61.5653 32.3287 62.3415 32.4555Z" fill="#242422"/>
<path d="M92.8743 38.1649C93.133 38.1649 93.133 38.0381 93.133 37.9112C93.133 32.4555 93.133 27.1267 93.133 21.7978C93.133 20.9097 92.3569 20.1484 91.4514 20.1484C90.934 20.1484 90.2872 20.1484 89.6404 20.1484C89.3817 20.1484 89.3817 20.2766 89.3817 20.4022C89.3817 23.3204 89.3817 26.2385 89.3817 29.1567C89.3817 32.0749 89.3817 34.993 89.2523 37.9099C89.2523 38.1637 89.3817 38.1637 89.511 38.1637C90.6752 38.1649 91.7101 38.1649 92.8743 38.1649Z" fill="url(#paint2_linear_5797_44963)"/>
<path d="M98.0418 24.7166C98.0418 24.4629 97.9125 24.4629 97.7831 24.4629C96.6189 24.4629 95.5841 24.4629 94.4198 24.4629C94.1611 24.4629 94.1611 24.5898 94.1611 24.7166C94.1611 27.3811 94.1611 29.9186 94.1611 32.5817C94.1611 33.2161 94.1611 33.9786 94.2905 34.613C94.5492 35.8818 95.196 37.0224 96.4896 37.6568C98.6886 38.7987 101.017 38.9256 103.475 38.0387C104.51 37.6568 105.415 37.0224 105.933 35.8818C106.321 35.1193 106.45 34.3593 106.45 33.4711C106.45 30.553 106.45 27.6348 106.45 24.7179C106.45 24.4642 106.321 24.4642 106.191 24.4642C105.674 24.4642 105.027 24.4642 104.51 24.4642C104.251 24.4642 103.992 24.591 103.863 24.591C103.216 24.7166 102.699 25.4779 102.699 26.2392C102.699 28.5242 102.699 30.808 102.699 33.0905C102.699 33.2174 102.699 33.4711 102.699 33.7249C102.699 34.2324 102.44 34.7399 101.923 35.1205C101.017 35.7549 100.112 35.8818 99.206 35.5012C98.5593 35.2474 98.0418 34.8668 97.9125 34.1043C97.7831 33.7236 97.7831 33.4699 97.7831 33.0892C97.7831 31.6936 97.7831 30.298 97.7831 28.9023C97.7831 27.3811 97.7831 25.9854 98.0418 24.7166Z" fill="url(#paint3_linear_5797_44963)"/>
<path d="M77.0895 20.2754C76.5721 20.2754 75.9253 20.2754 75.4079 20.2754C75.1492 20.2754 75.1492 20.4023 75.1492 20.5279C75.1492 24.4623 75.1492 28.3942 75.1492 32.3287C75.1492 33.0899 75.2785 33.8499 75.4079 34.6125C75.6666 35.7531 76.3134 36.6425 77.3482 37.2769C79.5473 38.6738 82.0051 38.9263 84.4628 38.2919C85.3683 38.0394 86.0151 37.7857 86.6619 37.1513C87.3087 36.3887 87.8261 35.5019 88.0848 34.6137C88.6023 33.345 88.7316 31.9481 88.6023 30.6793C88.4729 29.2836 88.2142 28.0149 87.5674 26.873C86.4032 24.9698 84.8509 23.8279 82.6519 23.9548C81.0996 23.9548 79.9354 24.5892 78.9005 25.9861C78.7712 24.4636 78.9005 23.1948 78.7712 22.0517C78.7712 21.0367 77.995 20.2754 77.0895 20.2754ZM79.1592 28.903C79.5473 27.7611 80.4528 27.1267 81.7464 27.1267C83.0399 26.9999 83.9454 27.6342 84.4628 28.7761C84.7216 29.5374 84.8509 30.2987 84.8509 31.1868C84.8509 31.9481 84.8509 32.8362 84.4628 33.5975C84.0748 34.7393 83.0399 35.3737 81.7464 35.3737C80.4528 35.3737 79.5473 34.7393 79.1592 33.5987C78.6418 31.9481 78.6418 30.4255 79.1592 28.903Z" fill="url(#paint4_linear_5797_44963)"/>
<path d="M116.156 24.336C114.863 23.9554 113.569 23.8298 112.276 24.0836C110.078 24.336 108.654 25.6048 107.877 27.6348C106.972 29.9186 107.101 32.0755 107.748 34.3593C108.265 36.1356 109.431 37.4043 111.241 38.0387C112.534 38.545 113.828 38.545 115.121 38.2912C116.803 38.0387 118.225 37.2762 119.261 35.7537C119.649 35.1193 119.908 34.4849 120.037 33.8505C119.908 33.8505 119.908 33.8505 119.908 33.8505C119.131 33.8505 118.485 33.8505 117.708 33.8505C117.062 33.8505 116.415 34.1043 116.027 34.6131C115.768 34.9937 115.251 35.2474 114.733 35.3743C113.569 35.5012 112.534 35.5012 111.758 34.4862C111.371 33.9799 111.111 33.3456 111.111 32.583C110.982 32.2024 110.982 32.2024 111.371 32.2024C114.216 32.2024 117.192 32.2024 120.037 32.2024C120.166 32.2024 120.296 32.0755 120.296 31.9486C120.296 31.4424 120.296 31.0618 120.296 30.553C120.296 29.4111 120.037 28.3961 119.649 27.3811C118.873 25.8586 117.839 24.8435 116.156 24.336ZM116.027 29.7917C115.251 29.7917 114.475 29.7917 113.697 29.7917C112.793 29.7917 112.017 29.7917 111.241 29.7917C110.982 29.7917 110.982 29.7917 110.982 29.538C111.111 28.6498 111.371 27.8886 112.146 27.3811C113.05 26.7467 114.604 26.7467 115.509 27.508C116.156 28.0155 116.286 28.6498 116.415 29.2842C116.546 29.7917 116.546 29.7917 116.027 29.7917Z" fill="url(#paint5_linear_5797_44963)"/>
<defs>
<linearGradient id="paint0_linear_5797_44963" x1="52.8753" y1="30.1441" x2="63.6787" y2="41.1589" gradientUnits="userSpaceOnUse">
<stop stop-color="white"/>
<stop offset="1" stop-color="#FFF2A9"/>
</linearGradient>
<linearGradient id="paint1_linear_5797_44963" x1="52.8753" y1="30.1441" x2="63.6787" y2="41.1589" gradientUnits="userSpaceOnUse">
<stop stop-color="white"/>
<stop offset="1" stop-color="#FFF2A9"/>
</linearGradient>
<linearGradient id="paint2_linear_5797_44963" x1="91.1928" y1="39.6517" x2="91.1928" y2="18.8795" gradientUnits="userSpaceOnUse">
<stop stop-color="#40C6F3"/>
<stop offset="1" stop-color="#4098D3"/>
</linearGradient>
<linearGradient id="paint3_linear_5797_44963" x1="100.305" y1="39.6523" x2="100.305" y2="18.8823" gradientUnits="userSpaceOnUse">
<stop stop-color="#40C6F3"/>
<stop offset="1" stop-color="#4098D3"/>
</linearGradient>
<linearGradient id="paint4_linear_5797_44963" x1="81.8996" y1="39.6518" x2="81.8996" y2="18.8781" gradientUnits="userSpaceOnUse">
<stop stop-color="#40C6F3"/>
<stop offset="1" stop-color="#4098D3"/>
</linearGradient>
<linearGradient id="paint5_linear_5797_44963" x1="113.763" y1="39.6536" x2="113.763" y2="18.88" gradientUnits="userSpaceOnUse">
<stop stop-color="#40C6F3"/>
<stop offset="1" stop-color="#4098D3"/>
</linearGradient>
</defs>
</svg>
