<svg width="206" height="70" viewBox="0 0 206 70" fill="none" xmlns="http://www.w3.org/2000/svg">
<path d="M0.785156 0H188.896C198.224 0 205.785 7.56162 205.785 16.8894V70H43.4586C33.2192 70 24.0695 63.6059 20.5496 53.9906L0.785156 0Z" fill="#0B0E15"/>
<path d="M91.399 36.6066L85.2466 51.7345H88.1609C88.4847 51.7345 88.7006 51.6299 88.9164 51.5273C89.1323 51.3201 89.2402 51.2165 89.3482 51.0092L90.3196 48.3142H96.3641L97.3355 50.9046C97.4434 51.1118 97.5514 51.319 97.7672 51.4227C97.9831 51.5273 98.199 51.6299 98.5228 51.6299H101.329L95.1768 36.502H91.399V36.6066ZM91.0752 45.932L92.4783 41.7874C92.5863 41.4766 92.6942 41.1657 92.8021 40.8559C92.9101 40.544 93.018 40.1306 93.126 39.7151C93.2339 40.1295 93.3418 40.544 93.4498 40.8559C93.5577 41.1667 93.6656 41.4776 93.7736 41.7874L95.2847 45.932H91.0752Z" fill="white"/>
<path d="M75.6391 40.6464C76.0709 40.2319 76.5026 39.9211 77.0423 39.7138C77.582 39.5066 78.2296 39.403 78.8772 39.403C79.201 39.403 79.6328 39.403 79.8487 39.5066C80.0645 39.6113 80.3883 39.6113 80.7122 39.7138C81.036 39.8185 81.2518 39.9211 81.4677 40.0247C81.6836 40.1283 82.0074 40.3355 82.3312 40.4392C82.655 40.6464 82.8709 40.6464 83.1947 40.6464C83.4106 40.5417 83.6264 40.4392 83.8423 40.2319L84.9217 38.6777C84.5979 38.3668 84.2741 38.1596 83.8423 37.8488C83.4106 37.6415 82.9788 37.4343 82.5471 37.2271C82.1153 37.0198 81.5757 36.9152 80.928 36.8126C80.3883 36.709 79.7407 36.709 79.0931 36.709C77.7979 36.709 76.6106 36.9152 75.6391 37.3307C74.6677 37.7451 73.6963 38.2632 73.0487 38.8849C72.2931 39.6102 71.7534 40.3355 71.3217 41.3717C70.8899 42.4079 70.782 43.3394 70.782 44.4802C70.782 45.62 70.9979 46.6561 71.4296 47.5887C71.8613 48.5202 72.401 49.3491 73.1566 50.0744C73.9121 50.7997 74.8836 51.3178 75.855 51.7333C76.8264 52.1467 78.1217 52.355 79.4169 52.355C80.3883 52.355 81.3598 52.2514 82.3312 51.9405C83.3026 51.7343 84.1661 51.3188 84.9217 50.6982V44.274H79.309V46.2417C79.309 46.4489 79.4169 46.5535 79.5249 46.6561C79.6328 46.7587 79.8487 46.8634 80.0645 46.8634H81.6836V49.1429C81.3598 49.2465 81.036 49.3491 80.6042 49.4538C80.2804 49.5574 79.8487 49.5574 79.4169 49.5574C78.6614 49.5574 78.0137 49.4537 77.4741 49.2465C76.9344 49.0393 76.3947 48.7284 75.9629 48.314C75.5312 47.9005 75.2074 47.3825 74.9915 46.7597C74.7756 46.138 74.6677 45.4127 74.6677 44.5838C74.6677 43.8585 74.7756 43.2368 74.9915 42.6151C74.9915 41.5789 75.3153 41.0609 75.6391 40.6464Z" fill="white"/>
<path d="M118.817 17.8517C118.709 17.8517 118.601 17.8517 118.493 17.9553C118.385 17.9553 118.277 18.0589 118.277 18.1625C118.169 18.2661 118.169 18.3697 118.061 18.4734L113.96 25.9337C113.852 26.2446 113.636 26.4518 113.528 26.7626C113.419 27.0735 113.312 27.3843 113.096 27.6952C112.988 27.3843 112.88 27.0735 112.665 26.8663C112.557 26.5554 112.341 26.3482 112.233 26.0373L108.239 18.3697C108.131 18.2661 108.131 18.1625 108.023 18.0589C107.915 17.9553 107.915 17.9553 107.807 17.8517C107.699 17.8517 107.592 17.748 107.484 17.748C107.376 17.748 107.268 17.748 107.052 17.748H104.245V32.876H107.484V24.2759C107.484 24.0686 107.484 23.8614 107.484 23.6542C107.484 23.4469 107.484 23.1361 107.376 22.9288L111.584 30.7C111.693 30.9073 111.909 31.1145 112.124 31.2181C112.34 31.3217 112.556 31.4254 112.879 31.4254H113.419C113.743 31.4254 113.959 31.3217 114.175 31.2181C114.39 31.1145 114.606 30.9073 114.714 30.7L118.925 22.8252C118.925 23.0325 118.925 23.3433 118.816 23.5505C118.816 23.7578 118.816 23.965 118.816 24.1722V32.876H122.054V17.8517H119.248C119.141 17.8517 118.925 17.8517 118.817 17.8517Z" fill="#D13832"/>
<path d="M75.641 32.7725C75.7489 32.7725 76.5045 32.7725 76.8283 32.7725C77.1521 32.7725 77.4759 32.6688 77.7997 32.5652C78.2315 32.4616 78.6632 32.2544 78.6632 32.2544C78.6632 32.2544 78.6632 32.2544 78.7712 32.2544C78.8791 32.2544 78.987 32.1508 79.095 32.1508C79.095 32.1508 79.2029 32.1508 79.2029 32.0472C79.3109 32.0472 79.4188 31.9435 79.5267 31.9435C79.5267 31.9435 79.6347 31.9435 79.6347 31.8399C79.9585 31.7363 80.1743 31.5291 80.4982 31.3218L80.6061 31.2182C80.714 31.1146 80.822 31.1146 80.9299 31.011L81.0378 30.9074C81.1458 30.8038 81.2537 30.8038 81.3617 30.7001L81.4696 30.5965C81.5775 30.4929 81.6855 30.3893 81.7934 30.3893C81.7934 30.3893 81.9013 30.3893 81.9013 30.2857C81.9013 30.2857 81.9013 30.2857 82.0093 30.2857C82.2251 30.1821 82.3331 29.9748 82.549 29.8712L82.6569 29.7676C82.7648 29.664 82.9807 29.5604 83.0886 29.4568C83.1966 29.3531 83.1966 29.3531 83.3045 29.3531C83.3045 29.3531 83.4125 29.3531 83.4125 29.2495C83.5204 29.1459 83.6283 29.0423 83.7363 28.9387C83.8442 28.8351 85.3553 27.3844 86.4347 26.141C87.514 24.8976 88.7013 23.447 89.8887 22.1C90.8601 21.0639 92.1553 20.4422 93.7744 20.4422C94.9617 20.4422 96.149 20.8566 97.0125 21.5819L95.8252 22.4109L101.438 24.8976L100.898 19.0952L99.495 20.0277C97.9839 18.4735 96.041 17.6445 93.8823 17.6445C91.3998 17.6445 89.241 18.6807 87.8379 20.3385C87.7299 20.4422 83.4124 25.5193 81.5775 27.1772C81.4696 27.2808 81.3617 27.3844 81.2537 27.3844C81.2537 27.3844 81.2537 27.3844 81.1458 27.3844C81.0378 27.488 80.9299 27.5917 80.714 27.6953C80.714 27.6953 80.6061 27.6953 80.6061 27.7989C80.4982 27.9025 80.3902 28.0061 80.2823 28.1097C80.2823 28.1097 80.1743 28.1097 80.1743 28.2134C80.0664 28.317 80.0664 28.317 79.9585 28.4206C79.9585 28.4206 79.8505 28.4206 79.8505 28.5242C79.8505 28.5242 79.7426 28.5242 79.7426 28.6278C79.6347 28.7314 79.5267 28.7314 79.4188 28.8351C79.4188 28.8351 79.3109 28.8351 79.3109 28.9387L79.2029 29.0423C79.2029 29.0423 79.2029 29.0423 79.095 29.0423C78.987 29.1459 78.8791 29.1459 78.8791 29.1459C78.8791 29.1459 78.7712 29.1459 78.7712 29.2495C78.6632 29.2495 78.6632 29.3531 78.5553 29.3531C78.0156 29.664 77.5839 29.7676 77.2601 29.8712C76.9362 29.9748 76.5045 30.0784 75.9648 30.0784C73.1585 29.9748 70.8918 27.5917 71.1077 24.8976C71.3235 22.5145 73.3743 20.5458 75.8569 20.4422C77.4759 20.3385 78.8791 20.9602 79.9585 21.9964C80.1743 22.2036 81.5775 23.6543 81.9013 23.9651C82.441 23.447 83.7363 21.9964 83.8442 21.8928C83.6283 21.5819 82.549 20.4422 82.441 20.4422C80.9299 18.7843 78.6632 17.7481 76.1807 17.7481C72.0791 17.8518 68.6251 20.9602 68.4092 24.8976C68.0854 29.0423 71.4315 32.5652 75.641 32.7725Z" fill="#D13832"/>
<path d="M117.083 36.6055C116.974 36.6055 116.867 36.6055 116.76 36.7101C116.65 36.7101 116.544 36.8137 116.544 36.9163C116.436 37.0199 116.436 37.1235 116.328 37.2272L112.226 44.8947C112.117 45.2056 111.902 45.4128 111.794 45.7237C111.686 46.0345 111.579 46.3454 111.363 46.6562C111.254 46.3454 111.147 46.0345 110.931 45.8273C110.823 45.5164 110.607 45.3092 110.499 44.9984L106.398 37.3308C106.29 37.2272 106.29 37.1236 106.182 37.0199C106.074 36.9163 106.074 36.9163 105.966 36.8127C105.858 36.8127 105.75 36.7091 105.642 36.7091C105.534 36.7091 105.426 36.7091 105.21 36.7091H102.404V51.837H105.642V43.1333C105.642 42.9271 105.642 42.7198 105.642 42.5116C105.642 42.3033 105.642 41.9935 105.534 41.7863L109.744 49.5575C109.852 49.7647 110.067 49.9719 110.283 50.0755C110.499 50.1792 110.715 50.2828 111.039 50.2828H111.579C111.903 50.2828 112.118 50.1792 112.334 50.0755C112.55 49.9719 112.766 49.7647 112.874 49.5575L117.083 41.7863C117.083 41.9935 117.083 42.3043 116.974 42.5116C116.866 42.7188 116.974 42.926 116.974 43.1333V51.837H120.212V36.6055H117.406C117.407 36.6055 117.299 36.6055 117.083 36.6055Z" fill="white"/>
<path d="M93.883 30.08H93.775C93.4512 30.08 93.0195 30.08 92.0481 29.6655C91.0766 29.2511 90.8607 29.0438 90.2131 28.5257C89.7814 28.2149 89.2417 27.6968 88.702 27.1787C88.1623 27.8004 86.8671 29.1474 86.7592 29.2511C87.2988 29.7691 88.4861 30.7017 88.9179 31.1161L88.81 31.0125C89.8893 31.8415 91.1846 32.4632 92.5877 32.6704C93.0195 32.774 93.4512 32.774 93.775 32.774C94.2068 32.774 94.5306 32.774 94.8544 32.6704C97.9846 32.2559 100.683 30.1836 101.546 27.2824L98.956 26.1426C98.4163 28.4221 96.3655 30.08 93.883 30.08Z" fill="#D13832"/>
<path d="M156.481 26.97C156.481 27.1772 156.589 27.2808 156.697 27.3844C156.805 27.488 157.021 27.5917 157.237 27.5917H158.856V29.8712C158.531 29.9748 158.207 30.0784 157.777 30.1821C157.452 30.2857 157.021 30.2857 156.588 30.2857C155.833 30.2857 155.185 30.1821 154.645 29.9748C154.106 29.7676 153.566 29.4568 153.134 29.0423C152.704 28.6278 152.38 28.1097 152.164 27.488C151.948 26.8664 151.84 26.141 151.84 25.3121C151.84 24.5868 151.948 23.9651 152.164 23.3434C152.272 22.8253 152.488 22.3072 152.92 21.8928C153.35 21.4783 153.783 21.1675 154.323 20.9602C154.862 20.753 155.51 20.6494 156.158 20.6494C156.481 20.6494 156.912 20.6494 157.128 20.753C157.344 20.8566 157.668 20.8566 157.991 20.9602C158.316 21.0639 158.531 21.1675 158.747 21.2711C158.963 21.3747 159.287 21.5819 159.611 21.6856C159.935 21.8928 160.151 21.8928 160.475 21.8928C160.691 21.7892 160.907 21.6856 161.123 21.4783L162.202 19.9241C161.878 19.6132 161.554 19.406 161.123 19.0952C160.691 18.8879 160.259 18.6807 159.828 18.4735C159.396 18.2662 158.856 18.1626 158.208 18.059C157.561 17.7481 157.021 17.6445 156.266 17.6445C154.97 17.6445 153.783 17.8518 152.812 18.2662C151.732 18.6807 150.869 19.1988 150.222 19.8205C149.467 20.5458 148.927 21.2711 148.494 22.3072C148.063 23.2398 147.954 24.276 147.954 25.4157C147.954 26.5555 148.17 27.5917 148.603 28.5242C149.034 29.4568 149.574 30.2857 150.33 31.011C151.086 31.7363 152.057 32.2544 153.029 32.6688C154.108 33.0833 155.295 33.2905 156.59 33.2905C157.562 33.2905 158.533 33.1869 159.505 32.8761C160.476 32.6688 161.34 32.2544 162.095 31.6327V25.1049H156.483V26.97H156.481Z" fill="#D13832"/>
<path d="M128.85 17.8516H125.181V32.9795H128.85V17.8516Z" fill="#D13832"/>
<path d="M63.4402 25.1047C63.9799 24.8974 64.4117 24.6902 64.7355 24.483C65.0593 24.2758 65.3831 23.9649 65.599 23.7577C65.8149 23.4468 65.9228 23.136 66.0307 22.8251C66.1387 22.5143 66.1387 22.2034 66.1387 21.8926C66.1387 21.2709 66.0307 20.7528 65.8149 20.2347C65.599 19.7167 65.2752 19.3022 64.7355 18.9913C64.3037 18.5769 63.6561 18.266 62.9006 18.0588C62.145 17.8516 61.1736 17.8516 60.0942 17.8516H54.2656V32.9795H60.6339C61.6053 32.9795 62.4688 32.8759 63.1164 32.6686C63.872 32.4614 64.5196 32.1506 64.9514 31.7361C65.491 31.3216 65.8149 30.8036 66.1387 30.2855C66.3545 29.7674 66.5704 29.1457 66.5704 28.524C66.5704 27.6951 66.3545 26.9698 65.8149 26.4517C65.2752 25.7264 64.5196 25.3119 63.4402 25.1047ZM57.9355 20.442H60.0942C60.526 20.442 60.8498 20.442 61.1736 20.5456C61.4974 20.6492 61.7133 20.7528 61.9291 20.8564C62.145 20.96 62.2529 21.1673 62.3609 21.4781C62.4688 21.6854 62.4688 21.9962 62.4688 22.4107C62.4688 22.8251 62.3609 23.0324 62.2529 23.3432C62.145 23.4468 62.0371 23.6541 61.8212 23.7577C61.6053 23.9649 61.2815 24.0685 60.9577 24.0685C60.6339 24.0685 60.3101 24.1721 59.8783 24.1721H57.9355V20.442ZM62.7926 29.0421C62.6847 29.2493 62.5767 29.4566 62.4688 29.6638C62.2529 29.871 62.0371 29.9746 61.7133 30.0782C61.3894 30.1819 60.9577 30.2855 60.526 30.2855H57.9355V26.5553H60.526C60.9577 26.5553 61.3894 26.5553 61.7133 26.6589C61.9291 26.7625 62.2529 26.8662 62.3609 26.9698C62.5768 27.0734 62.6847 27.2806 62.7926 27.4878C62.9006 27.7987 62.9006 28.0059 62.9006 28.3168C62.9006 28.524 62.9006 28.7312 62.7926 29.0421Z" fill="#D13832"/>
<path d="M135.222 24.794C135.222 24.5868 135.222 24.3796 135.222 24.0687C135.222 23.7579 135.222 23.5506 135.114 23.2398L142.56 32.2544C142.776 32.4616 142.992 32.6688 143.1 32.6688C143.316 32.7725 143.532 32.7725 143.856 32.7725H145.798V17.8518H142.56V25.8302C142.56 26.0374 142.56 26.3483 142.56 26.5555C142.56 26.8664 142.56 27.0736 142.669 27.3844L135.114 18.2662C135.006 18.1626 134.898 18.059 134.79 17.9554C134.682 17.8518 134.682 17.8518 134.575 17.7481C134.466 17.7481 134.358 17.6445 134.25 17.6445C134.142 17.6445 134.034 17.6445 133.818 17.6445H131.876V32.7725H135.114V24.794H135.222Z" fill="#D13832"/>
<path d="M144.718 44.0661C144.395 43.7553 143.963 43.4444 143.531 43.3408C143.099 43.1336 142.668 42.9274 142.236 42.8227C141.804 42.7191 141.372 42.5119 140.941 42.4093C140.51 42.3046 140.185 42.2021 139.753 41.9948C139.322 41.7876 139.105 41.684 138.998 41.4768C138.782 41.2695 138.674 41.0623 138.674 40.7514C138.674 40.2334 138.89 39.9225 139.214 39.6117C139.537 39.3008 140.077 39.1972 140.724 39.1972C141.155 39.1972 141.479 39.3019 141.803 39.3019C142.128 39.4034 142.344 39.507 142.668 39.6106C142.882 39.7142 143.098 39.8179 143.315 39.9215C143.532 40.0251 143.639 40.0251 143.855 40.0251C144.071 40.0251 144.179 40.0251 144.287 39.9215C144.395 39.8179 144.501 39.7142 144.61 39.507L145.581 37.8492C145.258 37.6419 144.934 37.3311 144.61 37.2275C144.287 37.1238 143.855 36.813 143.423 36.7094C142.991 36.6058 142.56 36.5022 142.128 36.3985C141.696 36.2949 141.156 36.2949 140.725 36.2949C139.861 36.2949 139.106 36.3985 138.458 36.7094C137.81 36.9156 137.163 37.3311 136.731 37.7455C136.299 38.16 135.868 38.6781 135.652 39.1962C135.436 39.7142 135.328 40.3359 135.328 40.854C135.328 41.5783 135.437 42.201 135.653 42.6145C135.868 43.1336 136.083 43.548 136.407 43.8589C136.732 44.1697 137.163 44.4816 137.487 44.5842C137.812 44.6878 138.351 44.895 138.782 45.1023C139.214 45.2059 139.645 45.3095 140.077 45.5167C140.509 45.6204 140.833 45.7229 141.156 45.9302C141.48 46.0348 141.804 46.241 141.912 46.4483C142.02 46.6555 142.236 46.9663 142.236 47.2772C142.236 47.8999 142.02 48.3133 141.696 48.6252C141.372 48.9361 140.833 49.0387 140.185 49.0387C139.645 49.0387 139.215 48.935 138.891 48.8314C138.566 48.7288 138.242 48.5216 137.918 48.418C137.595 48.2108 137.379 48.1071 137.163 48.0035C136.947 47.8999 136.732 47.7963 136.515 47.7963C136.298 47.7963 136.191 47.7963 136.083 47.9009C135.976 48.0046 135.868 48.1082 135.76 48.2118L134.68 49.8697C135.004 50.1815 135.328 50.3877 135.76 50.6996C136.191 50.9058 136.623 51.113 137.163 51.3213C137.595 51.5285 138.134 51.6322 138.674 51.7358C139.214 51.8373 139.645 51.8373 140.185 51.8373C141.05 51.8373 141.913 51.7337 142.56 51.4229C143.315 51.2167 143.855 50.8012 144.395 50.3867C144.826 49.9733 145.258 49.4552 145.474 48.8325C145.69 48.2108 145.906 47.5901 145.906 46.8648C145.906 46.2421 145.798 45.724 145.582 45.2059C145.258 44.7914 145.042 44.377 144.718 44.0661Z" fill="white"/>
<path d="M123.458 51.6298H133.604V48.9358H127.128V45.4128H132.093V42.8224H127.128V39.2995H133.604V36.6055H123.458V51.6298Z" fill="white"/>
</svg>
