<svg width="206" height="70" viewBox="0 0 206 70" fill="none" xmlns="http://www.w3.org/2000/svg">
<path d="M0.785156 0H188.896C198.224 0 205.785 7.56162 205.785 16.8894V70H43.4586C33.2192 70 24.0695 63.6059 20.5496 53.9906L0.785156 0Z" fill="#0B0E15"/>
<path d="M52.625 22.9709C55.0499 24.6494 56.8686 25.3208 59.8997 26.6636C62.0821 27.5588 66.2044 29.0135 69.3567 30.4682C65.3557 28.2302 60.6271 25.4327 60.6271 20.5092C60.6271 12.7881 82.2086 13.3476 92.5144 20.5092C92.5144 20.5092 85.8459 11.4453 70.9329 11.4453C61.1121 11.4453 53.11 15.6975 50.4426 19.2783L50.5639 19.5021C50.5639 19.3902 50.2001 21.2925 52.625 22.9709Z" fill="url(#paint0_linear_5799_44968)"/>
<path d="M60.749 49.4902C60.749 45.0142 64.6288 42.3286 68.2661 40.3145C63.9013 42.3286 56.5054 44.9023 54.808 45.7975C53.1106 46.6927 52.1406 46.8046 51.4132 48.1474C50.9282 48.9307 50.6857 50.1616 50.5645 50.9449C53.3531 54.5257 61.2339 58.554 71.0547 58.554C85.9678 58.554 92.6362 49.4902 92.6362 49.4902C82.4517 56.6517 60.749 57.2112 60.749 49.4902Z" fill="url(#paint1_linear_5799_44968)"/>
<path d="M54.8074 45.7994C56.5048 44.9031 63.9007 42.3294 68.2655 40.3164C71.5391 38.4141 74.6914 36.9594 74.6914 35.0571C74.6914 33.3786 72.2666 32.0358 69.4779 30.4692C66.3256 29.0145 62.082 27.5598 60.0209 26.6647C56.9898 25.3219 55.1711 24.6505 52.7462 22.972C50.3214 21.2935 50.6851 19.5031 50.6851 19.5031L50.4426 19.2793C49.8364 20.0626 49.4727 20.9578 49.4727 21.6292C49.4727 25.9933 58.8085 28.2312 58.8085 34.9452C58.8085 41.5473 49.4727 44.009 49.4727 48.2612C49.4727 49.0445 49.8364 49.9397 50.5639 50.836C50.6851 50.0516 50.8063 48.8207 51.2913 48.0374C52.14 46.8065 53.11 46.6946 54.8074 45.7994Z" fill="url(#paint2_linear_5799_44968)"/>
<path d="M72.0235 33.1544C72.0235 33.1544 73.3572 33.9377 73.5997 34.6091C73.8422 35.2805 72.9935 36.3995 72.266 36.847C71.5385 37.2935 70.4473 37.4065 70.3261 37.1827C69.9624 36.5102 71.781 36.0638 71.5385 35.0567C71.296 34.0496 70.5686 33.602 70.0836 33.2663C69.7199 32.8187 69.2349 32.3711 69.4774 32.2592C69.5986 31.9235 72.0235 33.1544 72.0235 33.1544Z" fill="url(#paint3_linear_5799_44968)"/>
<path fill-rule="evenodd" clip-rule="evenodd" d="M104.754 32.0448C104.754 31.6274 104.754 31.2537 104.754 30.8811C104.754 30.5174 104.754 30.1537 104.754 29.7878C104.754 29.4185 104.753 29.0481 104.754 28.6699C104.961 28.7203 105.138 28.7751 105.32 28.802C105.524 28.8311 105.732 28.8322 105.937 28.8523C106.085 28.8657 106.232 28.8792 106.376 28.9004C106.647 28.9407 106.812 29.0985 106.913 29.3223C107.002 29.5181 107.031 29.7251 107.047 29.9344C107.054 30.044 107.053 30.1526 107.053 30.2634C107.053 32.9478 107.053 35.6323 107.053 38.319C107.053 38.3649 107.05 38.4096 107.053 38.4544C107.059 38.5417 107.022 38.6099 106.968 38.6782C106.722 38.9915 106.39 39.1952 106.01 39.3418C105.633 39.4883 105.235 39.5488 104.834 39.598C104.04 39.6976 103.242 39.7233 102.443 39.6562C101.911 39.6103 101.391 39.5197 100.891 39.335C100.095 39.043 99.5441 38.5305 99.2337 37.7931C99.0531 37.3656 98.9512 36.9225 98.9052 36.4671C98.8579 35.9971 98.8336 35.5238 98.8858 35.0515C98.9379 34.5648 99.0604 34.1004 99.2774 33.6562C99.5538 33.0899 99.9927 32.6591 100.56 32.3357C101.069 32.0437 101.621 31.8602 102.218 31.7874C102.769 31.7181 103.317 31.7147 103.868 31.7874C104.114 31.8188 104.348 31.8803 104.573 31.9799C104.618 32 104.664 32.0135 104.754 32.0448ZM104.737 37.6073C104.743 37.5391 104.758 37.4686 104.758 37.3969C104.758 36.2231 104.755 35.0515 104.752 33.8755C104.752 33.824 104.738 33.7714 104.73 33.7199C104.674 33.6964 104.629 33.6763 104.583 33.6651C104.081 33.5487 103.571 33.4995 103.058 33.5487C102.416 33.6148 101.634 33.9247 101.36 34.8277C101.235 35.2373 101.215 35.6524 101.249 36.0709C101.266 36.2813 101.324 36.4827 101.408 36.6786C101.621 37.1787 102.009 37.4943 102.568 37.6454C103.052 37.7763 103.54 37.7897 104.033 37.7405C104.264 37.7192 104.503 37.7047 104.737 37.6073Z" fill="white"/>
<path fill-rule="evenodd" clip-rule="evenodd" d="M130.032 39.4452C130.018 39.8235 130.025 40.1782 130.024 40.5329C130.023 40.8954 130.024 41.2602 130.024 41.6261C130.024 41.9798 130.024 42.3345 130.024 42.6847C129.985 42.6892 129.961 42.6993 129.947 42.6925C129.601 42.5359 129.226 42.5191 128.851 42.5034C128.752 42.4978 128.655 42.4967 128.557 42.4967C128.357 42.4978 128.194 42.4206 128.06 42.2897C127.918 42.1543 127.829 41.9909 127.793 41.8097C127.76 41.6228 127.732 41.4303 127.729 41.2412C127.719 40.7959 127.724 40.3483 127.724 39.9029C127.724 37.6168 127.727 35.3318 127.72 33.0446C127.719 32.8398 127.78 32.682 127.932 32.5343C128.245 32.2277 128.629 32.0285 129.062 31.9155C129.356 31.8406 129.658 31.7913 129.959 31.751C130.745 31.647 131.534 31.638 132.324 31.6951C132.855 31.7343 133.375 31.8305 133.874 32.014C134.671 32.3049 135.224 32.8163 135.536 33.5537C135.732 34.0148 135.834 34.4959 135.877 34.9872C135.917 35.4213 135.926 35.8611 135.887 36.2964C135.84 36.8458 135.694 37.3729 135.415 37.8641C135.157 38.3173 134.801 38.6821 134.33 38.9596C133.666 39.3524 132.941 39.5616 132.16 39.6064C131.635 39.6355 131.114 39.6299 130.595 39.5493C130.423 39.5224 130.25 39.4855 130.032 39.4452ZM130.043 37.6425C130.107 37.6627 130.161 37.6851 130.217 37.6996C130.514 37.7723 130.819 37.7902 131.121 37.8283C131.71 37.9021 132.233 37.7578 132.725 37.4747C132.929 37.3561 133.097 37.2017 133.205 37.0036C133.286 36.8581 133.357 36.7071 133.413 36.5526C133.545 36.1744 133.554 35.7828 133.537 35.39C133.519 35.0095 133.387 34.6615 133.164 34.3404C132.982 34.0774 132.735 33.8894 132.417 33.7876C132.034 33.6656 131.639 33.5694 131.231 33.5963C130.887 33.6198 130.545 33.6656 130.201 33.7037C130.145 33.7115 130.094 33.7406 130.046 33.7574C130.015 33.9734 130.012 37.299 130.043 37.6425Z" fill="white"/>
<path fill-rule="evenodd" clip-rule="evenodd" d="M140.444 31.9363C140.478 31.9318 140.519 31.933 140.553 31.9229C141.066 31.7741 141.597 31.7315 142.129 31.7036C142.494 31.6846 142.86 31.6834 143.224 31.6957C143.786 31.7148 144.31 31.8591 144.79 32.1355C145.099 32.3134 145.344 32.5428 145.512 32.8449C145.755 33.2881 145.915 33.7525 145.913 34.256C145.911 35.6581 145.911 37.0602 145.907 38.4634C145.907 38.7723 145.907 39.0833 145.907 39.3911C145.907 39.4537 145.897 39.5164 145.891 39.588C145.591 39.6563 145.298 39.6674 145.004 39.6361C144.821 39.6149 144.63 39.5869 144.456 39.5321C144.022 39.3944 143.745 39.1135 143.658 38.6928C143.629 38.5417 143.612 38.3862 143.609 38.2329C143.603 37.3858 143.605 36.5387 143.6 35.6917C143.596 35.2821 143.548 34.8759 143.494 34.4686C143.438 34.0311 143.161 33.8073 142.724 33.7133C142.259 33.6126 141.786 33.6081 141.313 33.673C141.012 33.7133 140.712 33.7659 140.416 33.9046C140.412 34.0087 140.407 34.115 140.407 34.2235C140.407 35.5619 140.407 36.9002 140.406 38.2385C140.406 38.3672 140.407 38.4947 140.392 38.6201C140.338 39.0263 140.125 39.3239 139.69 39.4492C139.502 39.503 139.309 39.5455 139.115 39.5757C138.794 39.626 138.469 39.6104 138.132 39.5992C138.121 39.5343 138.106 39.4828 138.104 39.4302C138.1 39.3586 138.102 39.2848 138.102 39.2131C138.102 35.77 138.102 32.3269 138.102 28.886C138.102 28.7774 138.102 28.6689 138.102 28.5626C138.139 28.557 138.161 28.5447 138.175 28.5503C138.495 28.689 138.837 28.7248 139.184 28.736C139.302 28.7405 139.42 28.7472 139.538 28.745C139.812 28.736 140.008 28.858 140.164 29.0527C140.313 29.244 140.367 29.4667 140.39 29.6939C140.406 29.8472 140.406 30.0016 140.406 30.1571C140.409 30.6584 140.406 31.1597 140.409 31.6599C140.407 31.7495 140.384 31.8412 140.444 31.9363Z" fill="white"/>
<path fill-rule="evenodd" clip-rule="evenodd" d="M81.1741 36.891C81.1632 37.1596 81.3014 37.3375 81.5173 37.4729C81.6991 37.587 81.9052 37.6553 82.1186 37.6933C82.3114 37.728 82.509 37.7549 82.7042 37.7605C83.3953 37.7806 84.0852 37.7538 84.7702 37.6631C85.2188 37.6038 85.6687 37.5501 86.1185 37.4975C86.1767 37.4908 86.2361 37.4964 86.3076 37.4964C86.3173 37.5479 86.3343 37.5993 86.3367 37.6508C86.3476 37.972 86.3173 38.2864 86.213 38.5953C86.0627 39.0428 85.7584 39.3506 85.2746 39.5061C84.8891 39.6326 84.4914 39.6941 84.0876 39.712C83.4365 39.7411 82.7855 39.7433 82.138 39.6605C81.6288 39.5956 81.1317 39.4882 80.6564 39.3002C79.8089 38.9645 79.2415 38.395 78.9457 37.5915C78.7868 37.1573 78.6995 36.7097 78.6656 36.2543C78.6171 35.5997 78.6268 34.9462 78.7674 34.2972C78.8499 33.9201 78.9772 33.5587 79.1809 33.2196C79.3846 32.8794 79.661 32.6019 80.0138 32.3848C80.523 32.0726 81.0868 31.8902 81.6882 31.8052C82.3841 31.7056 83.0837 31.6967 83.7833 31.7548C84.2064 31.7895 84.6199 31.8735 85.0176 32.0212C85.7705 32.2987 86.2664 32.7955 86.5089 33.5094C86.698 34.0656 86.732 34.6363 86.6823 35.2114C86.6665 35.3837 86.6119 35.5505 86.5307 35.7071C86.3597 36.0372 86.0918 36.2633 85.7111 36.3729C85.408 36.458 85.0976 36.5095 84.7836 36.5363C84.3519 36.5732 83.9191 36.59 83.4838 36.5766C82.8231 36.5564 82.1647 36.6068 81.5197 36.7657C81.4045 36.7881 81.2857 36.8037 81.1741 36.891ZM81.105 35.3256C81.1317 35.3233 81.1632 35.3256 81.1887 35.3144C81.5015 35.1902 81.8313 35.1465 82.1683 35.1286C82.503 35.1118 82.8376 35.0939 83.1734 35.0771C83.462 35.0637 83.7324 34.9921 83.9943 34.8746C84.3847 34.6989 84.5835 34.1215 84.0513 33.8048C83.867 33.6952 83.6693 33.6169 83.4596 33.5598C82.92 33.4121 82.3878 33.4333 81.8713 33.6459C81.6312 33.7455 81.4312 33.8899 81.2857 34.0913C81.0529 34.4147 80.9777 34.9182 81.105 35.3256Z" fill="white"/>
<path fill-rule="evenodd" clip-rule="evenodd" d="M117.96 35.6485C117.96 35.803 117.96 35.9574 117.96 36.1118C117.962 36.5337 117.896 36.9488 117.767 37.3505C117.474 38.2681 116.87 38.9361 115.884 39.2864C115.402 39.4576 114.901 39.5572 114.387 39.584C113.456 39.6322 112.535 39.5628 111.632 39.33C111.118 39.1969 110.672 38.9619 110.3 38.6049C109.984 38.3039 109.755 37.9604 109.621 37.5598C109.467 37.0988 109.366 36.6254 109.315 36.1443C109.307 36.0626 109.301 35.9809 109.289 35.8992C109.192 35.2838 109.274 34.6829 109.466 34.0909C109.62 33.6142 109.891 33.1912 110.249 32.8186C110.575 32.4773 110.979 32.2401 111.432 32.0678C112.041 31.835 112.679 31.7287 113.333 31.7019C114.047 31.6739 114.751 31.7343 115.443 31.9078C116.129 32.079 116.7 32.4191 117.163 32.916C117.277 33.0391 117.386 33.1745 117.465 33.3188C117.734 33.81 117.917 34.327 117.947 34.882C117.96 35.1372 117.971 35.3923 117.983 35.6452C117.976 35.6474 117.967 35.6485 117.96 35.6485ZM115.757 35.7873C115.774 35.4068 115.73 35.0309 115.581 34.6672C115.393 34.205 115.045 33.894 114.538 33.7328C114.312 33.6612 114.078 33.6288 113.842 33.6187C113.322 33.5941 112.819 33.6511 112.351 33.8761C112.089 34.0025 111.886 34.1804 111.764 34.4322C111.659 34.6482 111.575 34.8764 111.558 35.1114C111.522 35.6027 111.542 36.095 111.687 36.5717C111.833 37.054 112.126 37.4289 112.679 37.5676C113.247 37.7109 113.825 37.7556 114.405 37.6381C115.027 37.5117 115.466 37.1872 115.654 36.6008C115.739 36.3345 115.77 36.0682 115.757 35.7873Z" fill="white"/>
<path fill-rule="evenodd" clip-rule="evenodd" d="M163.464 33.6539C163.396 33.1548 163.47 32.7128 163.742 32.3122C163.958 31.9877 164.302 31.8333 164.685 31.7516C164.855 31.7135 165.036 31.6967 165.211 31.6945C165.972 31.6833 166.731 31.6777 167.488 31.7404C168.067 31.7874 168.618 31.9261 169.125 32.1779C169.735 32.48 170.124 32.9634 170.359 33.5576C170.505 33.9269 170.584 34.3141 170.59 34.708C170.601 35.4443 170.601 36.1806 170.593 36.9191C170.587 37.257 170.515 37.5871 170.397 37.9094C170.089 38.771 169.438 39.2846 168.489 39.4872C168.11 39.5644 167.731 39.6036 167.344 39.5991C166.704 39.5935 166.06 39.5957 165.421 39.5991C165.123 39.6002 164.833 39.5588 164.541 39.5017C164.197 39.4346 163.892 39.2914 163.61 39.1C163.173 38.8024 162.945 38.3839 162.858 37.9038C162.757 37.3566 162.813 36.8139 162.976 36.2824C163.147 35.7229 163.523 35.3268 164.095 35.0806C164.506 34.9071 164.939 34.8344 165.385 34.8076C165.661 34.793 165.936 34.7975 166.213 34.7896C166.637 34.7796 167.062 34.7695 167.48 34.6968C167.623 34.6722 167.767 34.6319 167.904 34.5804C167.992 34.5491 168.078 34.4942 168.149 34.4327C168.34 34.2592 168.354 34.0052 168.176 33.8161C168.106 33.7445 168.016 33.6785 167.92 33.6382C167.768 33.5722 167.608 33.5174 167.447 33.4827C166.828 33.3573 166.201 33.3159 165.565 33.3484C165.024 33.3752 164.485 33.4289 163.955 33.5386C163.8 33.5711 163.651 33.6102 163.464 33.6539ZM168.354 35.9142C168.298 35.9232 168.274 35.9209 168.264 35.9299C167.799 36.2757 167.273 36.4379 166.675 36.4346C166.451 36.4334 166.223 36.4614 165.998 36.495C165.774 36.5286 165.558 36.5923 165.365 36.7098C165.174 36.8262 165.096 36.9896 165.128 37.2011C165.161 37.4294 165.296 37.5938 165.516 37.6811C165.669 37.7415 165.835 37.7807 165.997 37.802C166.459 37.8624 166.923 37.859 167.387 37.8434C167.465 37.8411 167.543 37.8311 167.619 37.8176C168.016 37.7416 168.217 37.5491 168.29 37.1832C168.373 36.7691 168.363 36.3518 168.354 35.9142Z" fill="white"/>
<path fill-rule="evenodd" clip-rule="evenodd" d="M91.1501 33.793C91.1428 33.84 91.1319 33.8657 91.1331 33.8926C91.1404 34.5752 91.1525 35.2589 91.1574 35.9414C91.1622 36.7337 91.1634 37.5248 91.1622 38.3182C91.1622 38.4435 91.1501 38.5744 91.1234 38.6986C91.047 39.0522 90.8385 39.3163 90.459 39.4372C90.2735 39.4976 90.0807 39.5401 89.888 39.5759C89.6297 39.6229 89.129 39.614 88.8719 39.5703C88.8659 39.4954 88.8549 39.4148 88.8549 39.3353C88.8537 37.15 88.8562 34.9646 88.8501 32.7803C88.8501 32.4569 88.998 32.2432 89.2914 32.0955C89.6176 31.9332 89.9716 31.8538 90.3329 31.8C91.3308 31.6535 92.3359 31.6311 93.3422 31.6982C93.8732 31.734 94.3982 31.8235 94.8966 32.0104C95.0505 32.0697 95.2057 32.1313 95.3512 32.2062C96.1442 32.6192 96.5612 33.2536 96.64 34.0839C96.6558 34.2383 96.6582 34.3928 96.6582 34.5483C96.6594 36.1126 96.6594 37.6792 96.6582 39.2458C96.6582 39.3533 96.6752 39.4629 96.6267 39.5815C96.5709 39.5882 96.5139 39.6006 96.457 39.6017C96.1223 39.6039 95.7853 39.6218 95.4555 39.5468C95.3112 39.5133 95.1681 39.4775 95.0299 39.4305C94.6868 39.3141 94.4831 39.0802 94.4079 38.7546C94.3728 38.6046 94.357 38.448 94.3558 38.2936C94.3534 37.0929 94.3558 35.8911 94.3546 34.6893C94.3546 34.564 94.3485 34.433 94.3109 34.3122C94.2297 34.0559 94.0418 33.8702 93.7811 33.7527C93.5556 33.6509 93.3155 33.6061 93.067 33.5904C92.6511 33.5669 92.2401 33.6139 91.8303 33.671C91.6084 33.7035 91.3817 33.7158 91.1501 33.793Z" fill="white"/>
<path fill-rule="evenodd" clip-rule="evenodd" d="M155.108 33.8018C155.103 33.8388 155.092 33.8645 155.092 33.8914C155.103 34.1991 155.124 34.5102 155.124 34.8179C155.13 35.9738 155.13 37.1308 155.124 38.2868C155.124 38.4412 155.107 38.5978 155.072 38.7478C154.992 39.0813 154.776 39.3162 154.426 39.4393C154.186 39.5255 153.936 39.5814 153.679 39.5949C153.444 39.6083 153.206 39.6016 152.968 39.6005C152.932 39.6005 152.894 39.5882 152.852 39.5803C152.812 39.4662 152.825 39.3576 152.825 39.2502C152.825 37.5191 152.825 35.7892 152.825 34.0592C152.825 33.6217 152.836 33.1853 152.822 32.7478C152.812 32.4557 152.951 32.2632 153.208 32.1211C153.448 31.9868 153.713 31.9152 153.982 31.8582C154.407 31.7653 154.838 31.7183 155.271 31.697C155.902 31.6623 156.533 31.6444 157.166 31.6869C157.698 31.7216 158.222 31.8022 158.729 31.9633C159.009 32.0529 159.275 32.1692 159.521 32.3237C160.128 32.7041 160.472 33.2368 160.579 33.9003C160.613 34.1163 160.627 34.3367 160.627 34.5538C160.631 36.1193 160.63 37.6848 160.628 39.2536C160.628 39.361 160.648 39.4707 160.593 39.587C160.039 39.6262 159.494 39.6195 158.966 39.4225C158.605 39.286 158.417 39.0219 158.353 38.6751C158.33 38.5598 158.326 38.4401 158.326 38.3226C158.326 37.1197 158.328 35.9179 158.328 34.7161C158.328 34.6254 158.332 34.5337 158.314 34.4441C158.248 34.1308 158.06 33.8981 157.745 33.7537C157.52 33.6508 157.281 33.6071 157.031 33.5915C156.625 33.568 156.225 33.615 155.825 33.6664C155.628 33.6911 155.436 33.7246 155.242 33.756C155.195 33.7649 155.151 33.7884 155.108 33.8018Z" fill="white"/>
<path fill-rule="evenodd" clip-rule="evenodd" d="M125.807 31.7127C125.879 32.1861 125.865 32.637 125.7 33.0734C125.569 33.4203 125.276 33.587 124.904 33.6452C124.767 33.6676 124.626 33.662 124.488 33.6687C124.221 33.681 123.957 33.6911 123.691 33.7045C123.472 33.718 123.266 33.775 123.072 33.869C122.811 33.9966 122.644 34.1902 122.581 34.4543C122.546 34.5941 122.525 34.7396 122.513 34.8851C122.5 35.0485 122.501 35.2129 122.501 35.3763C122.5 36.7404 122.501 38.1055 122.5 39.4718C122.5 39.567 122.495 39.6654 122.491 39.7594C122.45 39.7628 122.424 39.7728 122.412 39.7661C121.99 39.5569 121.524 39.4785 121.062 39.3879C120.84 39.3443 120.654 39.257 120.5 39.1059C120.329 38.9414 120.243 38.7411 120.217 38.5196C120.202 38.4121 120.2 38.3014 120.2 38.1928C120.2 36.9373 120.2 35.6807 120.2 34.4252C120.2 34.1879 120.213 33.953 120.266 33.7202C120.491 32.7288 121.106 32.0764 122.177 31.809C122.455 31.7407 122.74 31.7027 123.023 31.7015C123.904 31.6971 124.78 31.7004 125.657 31.7004C125.697 31.7004 125.736 31.7071 125.807 31.7127Z" fill="white"/>
<path fill-rule="evenodd" clip-rule="evenodd" d="M148.215 31.5957C148.37 31.6461 148.488 31.6919 148.609 31.7199C148.734 31.7501 148.861 31.7691 148.989 31.7781C149.196 31.7949 149.402 31.8061 149.611 31.8027C149.973 31.7971 150.201 31.9683 150.355 32.2492C150.456 32.4316 150.487 32.6319 150.505 32.8322C150.515 32.9486 150.515 33.0683 150.515 33.1869C150.515 34.8889 150.518 36.592 150.513 38.2951C150.513 38.4574 150.496 38.623 150.459 38.783C150.388 39.0997 150.172 39.3145 149.846 39.4298C149.567 39.5305 149.274 39.5775 148.979 39.5954C148.734 39.6111 148.49 39.6178 148.248 39.5909C148.233 39.5484 148.216 39.5227 148.216 39.498C148.215 36.8762 148.215 34.2556 148.215 31.5957Z" fill="white"/>
<path fill-rule="evenodd" clip-rule="evenodd" d="M149.385 31.1923C148.707 31.2113 148.153 30.6899 148.152 30.0532C148.149 29.5328 148.633 28.9308 149.378 28.9297C150.04 28.9275 150.62 29.4221 150.612 30.0733C150.602 30.785 149.94 31.2214 149.385 31.1923Z" fill="white"/>
<defs>
<linearGradient id="paint0_linear_5799_44968" x1="71.4779" y1="30.429" x2="71.4779" y2="11.4966" gradientUnits="userSpaceOnUse">
<stop stop-color="#161B60"/>
<stop offset="0.0355" stop-color="#14266B"/>
<stop offset="0.1871" stop-color="#0E4F93"/>
<stop offset="0.3423" stop-color="#0971B4"/>
<stop offset="0.4995" stop-color="#058CCE"/>
<stop offset="0.6595" stop-color="#029FE0"/>
<stop offset="0.824" stop-color="#01AAEB"/>
<stop offset="1" stop-color="#00AEEF"/>
</linearGradient>
<linearGradient id="paint1_linear_5799_44968" x1="71.6009" y1="40.2407" x2="71.6009" y2="58.4801" gradientUnits="userSpaceOnUse">
<stop stop-color="#4E0900"/>
<stop offset="0.0923" stop-color="#6D2505"/>
<stop offset="0.2404" stop-color="#984B0C"/>
<stop offset="0.3908" stop-color="#BC6B11"/>
<stop offset="0.5415" stop-color="#D78415"/>
<stop offset="0.6928" stop-color="#EB9619"/>
<stop offset="0.8451" stop-color="#F7A01A"/>
<stop offset="1" stop-color="#FBA41B"/>
</linearGradient>
<linearGradient id="paint2_linear_5799_44968" x1="62.0814" y1="50.9265" x2="62.0813" y2="19.2481" gradientUnits="userSpaceOnUse">
<stop stop-color="#660308"/>
<stop offset="0.4381" stop-color="#DE1A23"/>
<stop offset="0.6237" stop-color="#DE1A23"/>
<stop offset="1" stop-color="#660308"/>
</linearGradient>
<linearGradient id="paint3_linear_5799_44968" x1="71.527" y1="37.3283" x2="71.527" y2="32.111" gradientUnits="userSpaceOnUse">
<stop stop-color="#DE1A22"/>
<stop offset="1" stop-color="#F9D7D8"/>
</linearGradient>
</defs>
</svg>
