<svg width="206" height="70" viewBox="0 0 206 70" fill="none" xmlns="http://www.w3.org/2000/svg">
<path d="M0.785156 0H188.896C198.224 0 205.785 7.56162 205.785 16.8894V70H43.4586C33.2192 70 24.0695 63.6059 20.5496 53.9906L0.785156 0Z" fill="#0B0E15"/>
<path d="M47.2429 27.3779H58.0389L58.3184 30.8919H57.6792C57.4398 29.4259 57.3997 29.1536 56.8392 28.5747C56.2802 27.9943 55.201 28.072 54.3208 28.072H51.5616C51.3609 28.072 51.2019 28.1094 51.0428 28.265C50.9224 28.4206 50.8421 28.6121 50.8822 28.805V33.2839H52.082C52.6811 33.2839 53.2802 33.052 53.6399 32.6271C54.08 32.0482 54.3193 31.3152 54.2807 30.5418H54.9199V36.8337H54.2807C54.2406 35.7925 54.0414 35.058 53.6399 34.5958C53.1999 34.1291 52.6008 33.9002 51.9615 33.9002H50.8421V38.9549C50.8421 39.1105 50.9224 39.3005 51.0428 39.4202C51.242 39.5354 51.4829 39.6131 51.7222 39.5757H53.9209C56.2787 39.5757 57.639 38.8427 58.0389 35.9077H58.7183L58.479 40.2699H47.2445V39.5757H47.8451C48.1246 39.6116 48.4056 39.5368 48.6449 39.3813C48.8055 39.2257 48.8842 39.0357 48.8842 38.8427V28.7662C48.8842 28.5732 48.8441 28.3787 48.6851 28.2276C48.5245 28.1109 48.2852 28.0346 48.0443 28.0346H47.2445L47.2429 27.3779Z" fill="white"/>
<path d="M57.8368 31.6629H62.7144V32.2807C62.3547 32.2433 61.9548 32.3166 61.595 32.4363C61.4344 32.5126 61.3541 32.6667 61.3541 32.8223C61.3541 32.9389 61.3943 33.0945 61.4344 33.2112L63.7937 38.3048L65.9925 33.3638C66.0326 33.2875 66.0326 33.2097 66.0326 33.093C66.0326 32.6278 65.5926 32.3615 64.6738 32.2448V31.624H68.3919V32.2418C68.0708 32.2418 67.7511 32.3585 67.5118 32.5515C67.2725 32.7041 67.1119 32.9375 66.9915 33.2067L63.7134 40.5383H63.1931L59.6758 33.0108C59.5955 32.7819 59.4364 32.5889 59.1956 32.4318C58.7555 32.3151 58.3154 32.2389 57.8769 32.2762L57.8368 31.6629Z" fill="white"/>
<path d="M71.8366 31.3887C72.9947 31.3528 74.0739 31.8135 74.8753 32.6647C75.7137 33.5533 76.1553 34.7515 76.1152 35.9842C76.1553 36.8324 75.9546 37.6432 75.5562 38.4151C75.198 39.0718 74.6777 39.6133 73.9967 40.0007C73.3189 40.3867 72.5577 40.5797 71.798 40.5797C70.6786 40.5797 69.5993 40.1159 68.8396 39.3036C67.24 37.3739 67.24 34.6333 68.8396 32.7021C69.5977 31.8539 70.677 31.3887 71.8366 31.3887ZM71.8366 32.0469C71.1171 32.0469 70.4763 32.3924 70.0764 32.9729C69.6363 33.5907 69.397 34.5944 69.397 35.9049C69.397 37.2542 69.6363 38.2595 70.0764 38.9162C70.4362 39.4951 71.1155 39.8841 71.8366 39.8841C72.5577 39.8841 73.2355 39.537 73.637 38.9177C74.1172 38.3014 74.3148 37.2602 74.3148 35.8316C74.3148 34.4808 74.077 33.5548 73.637 32.937C73.2371 32.3939 72.5561 32.0469 71.8366 32.0469Z" fill="white"/>
<path d="M79.0236 27.2227V39.033C79.0236 39.1871 79.0637 39.3023 79.1841 39.419C79.3447 39.5342 79.5424 39.6119 79.7848 39.6119H80.3453V40.3061H76.0266V39.6119H76.5454C76.7862 39.6119 77.0256 39.576 77.1861 39.419C77.3467 39.2634 77.4255 39.0734 77.3853 38.84V28.9968C77.4255 28.7665 77.3066 28.4957 77.146 28.3416C76.9051 28.1486 76.5886 28.0349 76.269 28.0349H75.4661V27.3363L79.0236 27.2227Z" fill="white"/>
<path d="M83.5879 31.5052V37.2181C83.5462 37.7971 83.7485 38.373 84.1453 38.8397C84.5035 39.2257 85.0254 39.4186 85.5457 39.4186C86.2653 39.4186 86.9045 39.109 87.3446 38.5705C87.8634 37.99 88.1042 37.2585 88.1042 36.4851V33.2434C88.1042 32.9727 87.9838 32.7019 87.7846 32.5493C87.3832 32.3564 86.9462 32.2397 86.503 32.2771V31.6219L89.6622 31.4678V38.569C89.6622 38.8412 89.7425 39.1075 89.9432 39.3409C90.1825 39.5353 90.462 39.6131 90.7415 39.6131H91.302V40.2279L88.305 40.3057L88.1058 38.6064C87.6657 39.1464 87.1068 39.6116 86.5046 39.9976C86.0244 40.3057 85.4268 40.4643 84.8648 40.4643C84.1067 40.5002 83.3856 40.192 82.8282 39.6894C82.2677 39.1868 81.9867 38.2997 81.9867 37.064V33.3197C82.0268 33.0101 81.8694 32.7004 81.5883 32.5478C81.227 32.3923 80.8287 32.3145 80.4303 32.3549V31.6981L83.5879 31.5052Z" fill="white"/>
<path d="M93.1047 28.1465H93.744V31.6604H99.1806V32.5071H93.744V38.0271C93.7054 38.4131 93.8258 38.799 94.1037 39.1461C94.3431 39.4183 94.6627 39.5335 94.9823 39.5335C95.4224 39.5335 95.8207 39.3016 96.1017 38.9531C96.46 38.3727 96.6622 37.7189 96.6205 37.0248H97.2598C97.2212 38.1797 96.9402 39.0324 96.46 39.5724C95.9813 40.1109 95.2618 40.4176 94.5006 40.4176C93.8598 40.458 93.2591 40.2246 92.7836 39.8387C92.3435 39.4168 92.1428 38.8753 92.1428 38.2979V32.5071H90.5848V31.8534C91.2241 31.7756 91.783 31.4674 92.1829 31.0037C92.8237 30.1555 93.1433 29.1503 93.1047 28.1465Z" fill="white"/>
<path d="M97.254 31.6602L100.813 31.5451V38.9559C100.813 39.1115 100.853 39.2656 100.974 39.3807C101.134 39.4944 101.332 39.5752 101.531 39.5752H102.17V40.2693H97.8129V39.5737H98.3734C98.6127 39.6096 98.8135 39.5348 98.974 39.3792C99.1346 39.2237 99.1732 39.0337 99.1732 38.7973V33.5511C99.2118 33.2818 99.0914 32.9722 98.8536 32.7792C98.6127 32.5862 98.253 32.5054 97.9334 32.5054H97.2123V31.6602H97.254ZM99.7337 27.5674C100.013 27.5674 100.291 27.6826 100.492 27.877C100.693 28.07 100.813 28.3408 100.813 28.61C100.813 28.8793 100.693 29.1486 100.492 29.3431C100.053 29.729 99.4141 29.729 98.974 29.3431C98.5726 28.9182 98.5726 28.3004 98.974 27.877C99.2134 27.6826 99.4527 27.5674 99.7337 27.5674Z" fill="white"/>
<path d="M106.65 31.3887C107.808 31.3528 108.889 31.8135 109.689 32.6647C110.527 33.5533 110.967 34.7515 110.928 35.9842C110.965 36.8324 110.768 37.6432 110.368 38.4151C110.008 39.0718 109.489 39.6133 108.808 40.0007C108.131 40.3867 107.369 40.5797 106.61 40.5797C105.49 40.5797 104.409 40.1159 103.651 39.3036C102.053 37.3739 102.053 34.6333 103.651 32.7021C104.408 31.8539 105.529 31.3887 106.65 31.3887ZM106.65 32.0469C105.927 32.0469 105.29 32.3924 104.89 32.9729C104.447 33.5907 104.21 34.5944 104.21 35.9049C104.21 37.2542 104.45 38.2595 104.89 38.9162C105.249 39.4951 105.927 39.8841 106.65 39.8841C107.369 39.8841 108.047 39.537 108.449 38.9177C108.929 38.3014 109.127 37.2602 109.127 35.8316C109.127 34.4808 108.889 33.5548 108.449 32.937C108.087 32.3939 107.368 32.0469 106.65 32.0469Z" fill="white"/>
<path d="M110.728 31.6612L113.689 31.4697C113.805 32.086 113.925 32.7428 113.97 33.3606C114.324 32.7817 114.808 32.3179 115.369 31.9709C115.925 31.6612 116.564 31.5056 117.206 31.5056C117.725 31.5056 118.247 31.6208 118.684 31.8527C119.124 32.1234 119.444 32.469 119.646 32.9342C119.882 33.4354 120 34.0173 120 34.5543V38.7624C119.962 38.9928 120.041 39.265 120.202 39.4176C120.401 39.5732 120.684 39.648 120.921 39.6106H121.161V40.3047H117.279V39.6121H117.361C117.68 39.6495 117.963 39.5762 118.244 39.4191C118.405 39.2635 118.519 39.0735 118.479 38.8402V35.1348C118.517 34.5169 118.361 33.9006 118.08 33.3576C117.722 32.8176 117.121 32.5079 116.441 32.5483C115.719 32.5483 115.08 32.855 114.64 33.395C114.121 34.0128 113.882 34.7862 113.919 35.5955V38.7983C113.882 39.0317 113.959 39.3009 114.158 39.455C114.359 39.6091 114.64 39.6839 114.918 39.648H115.159V40.3436H111.16V39.6495H111.398C111.639 39.6495 111.92 39.6121 112.119 39.4565C112.279 39.3398 112.357 39.1842 112.357 38.9913V33.3591C112.398 33.0509 112.278 32.7413 112.037 32.5094C111.799 32.3164 111.479 32.2027 111.16 32.2401H110.718V31.6612H110.728Z" fill="white"/>
<path d="M132.798 28.4558L133.598 27.1064H134.237L134.595 32.5516H133.996C133.513 31.0063 132.952 29.8485 132.316 29.1544C131.64 28.3436 130.598 27.8409 129.478 27.805C128.677 27.805 127.88 28.0369 127.238 28.5007C126.561 29.0018 126.039 29.6974 125.757 30.5082C125.359 31.5897 125.201 32.785 125.238 33.9428C125.201 35.0633 125.359 36.2197 125.757 37.3012C126.039 38.0746 126.52 38.7672 127.201 39.2699C127.843 39.6932 128.561 39.9251 129.358 39.8877C130.316 39.9655 131.237 39.6154 131.956 38.9976C132.557 38.3798 132.914 37.5316 132.88 36.6819V35.4059C132.88 35.2129 132.798 35.0603 132.639 34.9421C132.398 34.8254 132.117 34.7492 131.836 34.7866H130.639V34.1298H136.076V34.7866H135.676C135.39 34.7492 135.157 34.8225 134.918 34.9795C134.757 35.0947 134.677 35.2892 134.677 35.5196V40.6925H134.035C133.797 39.8817 133.556 39.1068 133.317 38.3738C132.914 39.0709 132.319 39.6498 131.598 40.0747C130.917 40.4621 130.159 40.6536 129.361 40.6536C128.2 40.6536 127.042 40.3454 126.041 39.7665C122.883 37.8353 121.843 33.8606 123.64 30.6952C124.201 29.6555 125.042 28.7654 126.08 28.1476C127 27.5298 128.079 27.2231 129.199 27.1812C129.804 27.1812 130.36 27.259 130.917 27.4909C131.593 27.645 132.233 27.9935 132.798 28.4558Z" fill="white"/>
<path d="M145.596 39.6123L145.757 39.8845C145.757 40.3857 145.159 40.3064 144.596 40.3064C144.159 40.3064 143.279 40.2705 143.001 40.0775C142.72 39.8845 142.599 39.6123 142.362 39.0363C141.921 39.5375 141.358 39.9623 140.76 40.2705C140.238 40.5008 139.681 40.5786 139.119 40.5786C138.359 40.616 137.641 40.4231 137.044 39.9982C136.559 39.6527 136.318 39.1096 136.318 38.5337C136.318 37.6451 136.877 36.8747 137.959 36.2943C139.317 35.6406 140.797 35.2142 142.32 35.099V33.7856C142.32 33.3204 142.116 32.897 141.715 32.5889C141.312 32.2418 140.793 32.0862 140.234 32.0862C139.755 32.0862 139.236 32.2014 138.793 32.4318C138.512 32.5874 138.353 32.7789 138.353 32.9344C138.392 33.09 138.474 33.2426 138.594 33.3578C138.755 33.5508 138.835 33.7826 138.877 34.013C138.877 34.2838 138.793 34.5141 138.594 34.7086C138.392 34.9031 138.154 34.9794 137.876 34.9794C137.553 34.9794 137.272 34.8642 137.076 34.6697C136.874 34.4393 136.754 34.1686 136.754 33.8604C136.754 33.2426 137.115 32.7011 137.836 32.2014C138.674 31.6614 139.633 31.3891 140.632 31.428C141.512 31.3891 142.354 31.621 143.072 32.0833C143.594 32.4692 143.91 33.087 143.91 33.7048V38.3736C143.91 38.6459 143.952 38.9541 144.112 39.1844C144.233 39.34 144.393 39.4926 144.631 39.5315C144.915 39.5749 145.281 39.6123 145.596 39.6123ZM142.277 35.7154C140.675 35.9457 139.517 36.2928 138.838 36.755C138.316 37.1425 138.038 37.7214 138.078 38.3407C138.041 38.7641 138.196 39.15 138.477 39.4597C138.759 39.7304 139.116 39.8456 139.477 39.8456C140.234 39.8456 140.916 39.5375 141.435 39.0363C141.996 38.4948 142.277 37.7229 142.277 36.9495V35.7154Z" fill="white"/>
<path d="M145.281 31.6609L147.836 31.5053C147.954 32.1231 148.073 32.7394 148.116 33.3572C148.473 32.7783 148.995 32.3146 149.558 31.9301C150.038 31.6579 150.599 31.5053 151.156 31.5053C151.717 31.4694 152.235 31.6609 152.674 31.9705C153.156 32.3939 153.475 32.8965 153.596 33.5128C153.952 32.9339 154.434 32.3939 154.99 32.0079C155.513 31.6983 156.114 31.5053 156.712 31.5053C157.388 31.4694 158.069 31.6983 158.549 32.2009C159.11 32.8965 159.388 33.7073 159.35 34.5959V38.8802C159.31 39.0732 159.388 39.2662 159.55 39.4188C159.791 39.5743 160.072 39.6491 160.351 39.6117H160.752V40.3058H156.275V39.6117H156.715C156.993 39.6491 157.272 39.5758 157.515 39.4188C157.675 39.2632 157.755 39.0732 157.755 38.8802V34.5555C157.794 34.0184 157.635 33.4754 157.272 33.0506C156.953 32.702 156.471 32.5091 155.994 32.5091C155.595 32.5091 155.234 32.6257 154.914 32.8187C154.595 33.0506 154.314 33.3587 154.155 33.7088C153.914 34.1306 153.793 34.5974 153.753 35.0985V38.8024C153.753 38.9969 153.792 39.2288 153.956 39.3843C154.155 39.498 154.357 39.5788 154.595 39.5788H155.195V40.2729H150.639V39.5758H151.158C151.399 39.5758 151.68 39.5369 151.88 39.3814C152.041 39.2662 152.117 39.1091 152.117 38.9161V34.9803C152.155 34.3251 151.996 33.7058 151.639 33.1284C151.355 32.7409 150.877 32.5494 150.397 32.5494C149.796 32.5091 149.238 32.7798 148.837 33.2047C148.318 33.8225 148.036 34.5959 148.077 35.4052V38.8413C148.039 39.0343 148.116 39.2273 148.28 39.3799C148.514 39.5354 148.795 39.6102 149.079 39.5743H149.561V40.3043H145.042V39.6102H145.72C145.919 39.6102 146.16 39.5743 146.32 39.4173C146.438 39.3006 146.519 39.1076 146.519 38.952V33.2824C146.558 33.0087 146.438 32.7798 146.283 32.5868C146.001 32.3924 145.641 32.2772 145.286 32.2772V31.6609H145.281Z" fill="white"/>
<path d="M160.981 31.6602L164.172 31.5451V38.9559C164.172 39.1115 164.214 39.2656 164.333 39.3807C164.493 39.4944 164.691 39.5752 164.893 39.5752H165.891V40.3052H160.456V39.6111H161.774C162.01 39.6485 162.21 39.5752 162.372 39.4181C162.532 39.2626 162.576 39.0726 162.576 38.8392V33.3955C162.613 33.1248 162.492 32.8151 162.253 32.6221C162.015 32.4292 161.654 32.3529 161.331 32.3529H160.977V31.6602H160.981ZM163.096 27.5674C163.377 27.5674 163.658 27.6826 163.857 27.877C164.058 28.07 164.174 28.3408 164.174 28.61C164.174 28.8793 164.058 29.1486 163.857 29.3431C163.419 29.729 162.779 29.729 162.339 29.3431C161.941 28.9182 161.941 28.3004 162.339 27.877C162.58 27.6826 162.819 27.5674 163.096 27.5674Z" fill="white"/>
<path d="M165.655 31.6612L168.613 31.4697C168.734 32.086 168.854 32.7428 168.896 33.3606C169.256 32.7817 169.737 32.3179 170.295 31.9709C170.854 31.6612 171.493 31.5056 172.132 31.5056C172.651 31.5056 173.173 31.6208 173.61 31.8527C174.051 32.1234 174.371 32.469 174.572 32.9342C174.808 33.4354 174.928 34.0173 174.928 34.5543V38.7624C174.89 38.9943 174.969 39.265 175.131 39.4191C175.33 39.5747 175.612 39.6495 175.849 39.6121H176.131V40.3062H172.174V39.6121H172.253C172.572 39.6495 172.855 39.5762 173.133 39.4191C173.293 39.2635 173.414 39.0735 173.374 38.8402V35.1348C173.412 34.5169 173.253 33.9006 172.972 33.3576C172.611 32.8176 172.013 32.5079 171.329 32.5483C170.611 32.5483 169.975 32.855 169.532 33.395C169.013 34.0128 168.775 34.7862 168.814 35.5955V38.7983C168.775 39.0317 168.853 39.3009 169.055 39.455C169.254 39.6106 169.532 39.6839 169.773 39.648H170.014V40.3436H165.653V39.6495H166.257C166.495 39.6495 166.776 39.6121 166.975 39.4565C167.136 39.3398 167.216 39.1842 167.216 38.9913V33.3591C167.254 33.0509 167.134 32.7413 166.896 32.5094C166.655 32.3164 166.333 32.2027 166.016 32.2401H165.533L165.655 31.6612Z" fill="white"/>
<path d="M182.937 32.1234C183.576 31.5056 185.336 30.5796 185.931 30.5796C186.253 30.5422 186.573 30.617 186.851 30.81C187.053 31.003 186.693 31.4667 186.693 31.736C186.693 31.9305 186.615 32.1608 186.494 32.3149C186.374 32.4705 186.171 32.5483 185.972 32.5483C185.614 32.5483 185.372 32.3149 185.251 31.8916C185.213 31.6986 185.134 31.6208 185.013 31.6208C184.456 31.8138 183.894 32.1234 183.454 32.5079C183.695 32.7816 183.894 33.1272 184.011 33.4743C184.13 33.7435 184.172 34.0532 184.172 34.321C184.172 34.8221 184.055 35.3262 183.774 35.7496C183.454 36.2133 182.972 36.5978 182.455 36.8311C181.899 37.1393 181.294 37.2949 180.655 37.2949H179.617C179.095 37.259 178.615 37.3323 178.136 37.5252C177.897 37.6808 177.776 37.9142 177.776 38.1805C177.776 38.4108 177.897 38.6038 178.057 38.7205C178.419 38.8761 178.775 38.9509 179.177 38.9135L181.538 38.8776C182.737 38.8776 183.576 39.0705 184.095 39.4565C184.617 39.802 184.933 40.4214 184.894 41.0407C184.894 41.7722 184.575 42.4319 184.014 42.8926C183.176 43.5882 181.939 43.9742 180.299 43.9742C178.939 43.9742 177.898 43.7438 177.259 43.2397C176.779 42.9689 176.503 42.4693 176.459 41.9652C176.459 41.5807 176.659 41.2337 176.978 40.9614C177.461 40.6158 178.057 40.3825 178.658 40.3062C178.139 40.1925 177.658 39.998 177.219 39.651C176.899 39.3802 176.736 38.9957 176.736 38.5694C176.736 38.182 176.898 37.8364 177.139 37.5267C177.499 37.1827 177.977 36.9104 178.457 36.7533C177.974 36.5245 177.536 36.1385 177.259 35.7137C176.977 35.2903 176.856 34.7877 176.856 34.3225C176.856 33.5117 177.216 32.7383 177.855 32.2371C178.612 31.6567 179.537 31.3485 180.494 31.3874C180.931 31.3874 181.374 31.4682 181.776 31.5804C182.179 31.6971 182.58 31.8901 182.937 32.1234ZM180.979 40.3047C179.818 40.3047 178.979 40.4603 178.46 40.7699C178.02 41.0018 177.739 41.4251 177.702 41.8904C177.702 42.2763 177.901 42.6623 178.261 42.8552C178.897 43.2008 179.656 43.3953 180.378 43.3205C181.22 43.3564 182.095 43.2038 182.858 42.7804C183.415 42.4364 183.696 42.0474 183.696 41.6256C183.696 41.3533 183.614 41.1215 183.455 40.9285C183.256 40.6996 182.975 40.5051 182.656 40.4258C182.095 40.3436 181.539 40.2658 180.979 40.3047ZM180.418 31.9694C179.896 31.9694 179.378 32.1623 179.016 32.5872C178.615 33.0509 178.419 33.6687 178.46 34.2851C178.423 34.9403 178.619 35.5596 179.016 36.0981C179.656 36.8311 180.855 36.9463 181.621 36.2911C181.701 36.2133 181.782 36.1759 181.822 36.0981C182.22 35.597 182.422 34.9418 182.378 34.3225C182.418 33.7061 182.217 33.0883 181.822 32.6231C181.502 32.1997 180.979 31.9694 180.418 31.9694Z" fill="white"/>
<path d="M186.25 30.6572C186.532 30.6572 186.807 30.7724 187.009 30.9669C187.208 31.1599 187.329 31.4306 187.329 31.6984C187.329 31.9692 187.208 32.2384 187.009 32.4314C186.569 32.8173 185.927 32.8173 185.491 32.4314C185.088 32.0081 185.088 31.3887 185.491 30.9669C185.731 30.7724 185.969 30.6572 186.25 30.6572Z" fill="white"/>
<path d="M43.447 40.3835H43.2478V40.0754H43.3281C43.4084 40.0754 43.447 40.0754 43.5273 40.0754C43.5674 40.1143 43.6076 40.1532 43.6076 40.1921C43.6477 40.3057 43.5674 40.3835 43.447 40.3835ZM43.8083 40.228C43.8083 40.1517 43.7682 40.035 43.6879 39.9976C43.6076 39.9198 43.4871 39.9198 43.3683 39.9198H43.0471V40.9236H43.2478V40.5376H43.4084L43.6076 40.9236H43.8083L43.5674 40.5376C43.7682 40.4613 43.8485 40.3446 43.8083 40.228ZM43.447 41.1943C43.0069 41.1943 42.6472 40.8473 42.6472 40.4194C42.6472 39.9961 43.0069 39.6475 43.447 39.6475C43.8871 39.6475 44.2484 39.9931 44.2484 40.4194C44.2484 40.8458 43.8871 41.1943 43.447 41.1943ZM43.447 39.4561C42.8881 39.4561 42.448 39.8809 42.448 40.4209C42.448 40.961 42.8881 41.3873 43.447 41.3873C44.0075 41.3873 44.4475 40.9625 44.4475 40.4209C44.4475 39.8839 43.9673 39.4561 43.447 39.4561Z" fill="#A3A3A3"/>
<path d="M32.9336 26.9511C37.6924 24.4828 43.8485 27.0663 44.2885 33.3208C35.4921 33.9745 34.4128 30.1554 32.9336 26.9511Z" fill="url(#paint0_linear_5799_44970)"/>
<path d="M32.9336 40.3074C37.6924 42.7772 43.8083 40.1534 44.2885 33.9393C35.4921 33.2452 34.4128 37.1032 32.9336 40.3074Z" fill="url(#paint1_linear_5799_44970)"/>
<path d="M42.6488 28.8817C40.3697 26.0245 36.2116 25.1763 32.9336 26.952C34.2522 29.8062 35.2512 33.208 41.7687 33.3995C42.5685 32.0471 42.8881 30.4644 42.6488 28.8817ZM34.5317 37.1423C34.7309 37.1423 34.8914 37.1812 35.0906 37.1812C37.6491 37.1812 40.0084 35.9455 41.449 33.9006C37.5302 34.0936 35.6913 35.4444 34.5317 37.1423Z" fill="url(#paint2_radial_5799_44970)"/>
<defs>
<linearGradient id="paint0_linear_5799_44970" x1="38.5366" y1="30.7961" x2="37.646" y2="39.3853" gradientUnits="userSpaceOnUse">
<stop stop-color="#DADCDF"/>
<stop offset="1" stop-color="#A8A8A8"/>
</linearGradient>
<linearGradient id="paint1_linear_5799_44970" x1="39.3042" y1="30.875" x2="38.4134" y2="39.4676" gradientUnits="userSpaceOnUse">
<stop stop-color="#DADCDF"/>
<stop offset="1" stop-color="#A8A8A8"/>
</linearGradient>
<radialGradient id="paint2_radial_5799_44970" cx="0" cy="0" r="1" gradientUnits="userSpaceOnUse" gradientTransform="translate(35.903 31.8627) scale(9.07975 8.76594)">
<stop stop-color="#C2C2C2"/>
<stop offset="0.22" stop-color="#BDBDBD"/>
<stop offset="0.46" stop-color="#B0B0B0"/>
<stop offset="0.72" stop-color="#999999"/>
<stop offset="0.99" stop-color="#7A7A7A"/>
<stop offset="1" stop-color="#787878"/>
</radialGradient>
</defs>
</svg>
