<svg width="206" height="70" viewBox="0 0 206 70" fill="none" xmlns="http://www.w3.org/2000/svg">
<path d="M0.785156 0H188.896C198.224 0 205.785 7.56162 205.785 16.8894V70H43.4586C33.2192 70 24.0695 63.6059 20.5496 53.9906L0.785156 0Z" fill="#0B0E15"/>
<path d="M54.7969 33.7985C56.2471 34.6028 57.6973 35.4085 59.1476 36.2115C60.5978 37.1485 62.193 37.9542 63.4982 39.0267C64.6584 39.9651 65.2385 41.441 65.2385 42.9143C65.2385 45.7295 62.338 47.4722 59.5826 46.3998C59.4376 46.2657 59.1476 46.2657 59.0025 46.133C58.4239 47.3382 57.8424 48.4106 56.3922 48.8141C53.7818 49.6185 51.3164 48.1439 50.4463 45.3273C49.8662 43.4519 50.4463 41.5737 51.0249 39.8297C51.4614 38.6245 51.7515 37.4193 52.1865 36.2115C52.0401 36.2115 52.0401 36.2115 51.8965 36.0774C51.4614 37.2839 50.8813 38.4904 50.4463 39.6969C49.4311 42.5121 48.416 45.3273 47.5459 48.1439C47.2558 48.9468 47.4008 49.8853 47.2558 50.6896C47.2558 51.4953 46.8207 51.628 46.0956 51.628C45.3705 51.628 45.2255 51.2258 45.2255 50.5555C45.2255 47.7403 46.2407 45.3287 47.6909 42.9156C48.9961 40.7707 50.3013 38.4904 51.6065 36.3469C53.2017 33.5317 51.8965 31.3868 49.2861 30.4484C47.9809 29.9122 46.5307 29.51 45.2241 29.1078C43.9203 28.7043 42.6151 28.3021 41.0199 27.7659C43.6303 24.2804 45.5156 20.6609 46.8207 16.3711C50.5913 18.7841 54.6519 20.6609 59.1476 21.7334C56.9722 24.6826 55.087 27.6318 54.3619 30.9833C54.5069 30.8492 54.7969 30.5811 54.9405 30.447C56.2471 28.4362 57.6973 26.2913 59.0025 24.2804C60.0177 22.9399 61.3243 22.0015 63.0646 21.5993C66.11 20.929 69.154 22.9399 68.2854 26.5594C69.0105 26.2913 69.0105 26.2913 70.4607 23.208C70.8957 24.1464 71.3308 25.0848 71.6208 26.0232C72.0559 26.9616 72.3459 27.7659 72.781 28.7043C71.4744 28.3021 70.3142 27.9 69.009 27.4978C69.7341 28.5702 70.4592 29.3746 70.8943 30.1789C71.4744 31.7876 70.6042 33.6644 69.154 34.4687C66.8337 35.8093 64.3683 35.6752 61.903 35.005C59.7276 34.4687 57.6973 33.9325 55.522 33.2622C54.7969 33.6644 54.7969 33.7985 54.7969 33.7985Z" fill="#BC1515"/>
<path d="M119.627 24.0121C119.627 26.6932 119.627 29.3744 119.627 32.0555C118.902 30.3128 118.612 28.3019 115.712 28.57C115.712 30.5809 115.712 32.4577 115.712 34.4685C115.712 34.738 116.437 35.2729 116.872 35.2729C120.352 35.541 122.963 35.0048 124.123 31.5193C124.123 31.3852 124.268 31.3852 124.558 31.2512C124.268 32.8598 124.123 34.3345 123.833 35.9431C119.047 35.9431 114.116 35.9431 109.041 35.9431C109.766 35.8078 110.202 35.8077 110.491 35.675C110.927 35.2729 111.506 34.8707 111.506 34.3345C111.652 30.1787 111.506 26.157 111.506 22.0013C111.506 21.0629 110.927 20.7947 110.056 20.6607C109.766 20.6607 109.477 20.6607 109.186 20.3926C113.826 20.3926 118.466 20.3926 123.253 20.3926C123.253 21.8672 123.253 23.3418 123.253 24.8164C122.673 23.4759 122.238 22.0013 120.497 21.5991C119.047 21.1969 117.307 21.1969 115.712 20.9288C115.712 23.3418 115.712 25.4867 115.712 27.7657C116.872 27.8997 117.887 27.6316 118.466 26.6932C118.902 25.8889 119.192 24.8164 119.627 24.0121Z" fill="#BC1515"/>
<path d="M173.713 26.8273C175.454 29.2403 177.049 31.3852 178.789 33.6642C179.514 34.4685 180.384 35.2729 180.964 35.9431C178.499 35.9431 175.889 35.9431 173.278 35.9431C173.278 35.8078 173.278 35.8077 173.423 35.8077C175.019 35.2729 175.019 35.1375 174.148 33.7969C173.278 32.4563 172.263 31.2498 171.103 29.6411C169.798 31.2498 168.638 32.7244 167.477 34.1991C167.041 34.8694 167.622 35.2715 168.056 35.4069C168.493 35.675 168.928 35.675 169.798 35.9431C167.477 35.9431 165.447 35.9431 163.272 35.9431C163.997 35.541 165.012 35.2729 165.447 34.6026C167.187 32.8598 168.783 31.1171 170.378 29.3744C170.523 29.2403 170.523 28.8381 170.378 28.57C168.638 26.157 166.897 23.744 165.156 21.465C164.867 21.0629 164.287 20.7947 163.562 20.3926C166.462 20.3926 169.073 20.3926 171.828 20.3926V20.5266C169.798 20.7947 169.943 21.465 170.813 22.6715C171.683 23.744 172.408 24.9505 173.278 26.157C174.148 25.0846 175.164 24.0121 176.034 22.9397C177.049 21.7331 176.614 20.9288 175.019 20.6607C174.874 20.6607 174.874 20.5266 174.584 20.3926C176.759 20.3926 178.789 20.3926 180.819 20.3926C179.081 20.7947 178.209 22.0013 177.194 23.0737C176.034 24.2802 174.874 25.4867 173.713 26.8273Z" fill="#BC1515"/>
<path d="M43.9217 32.7254C45.2269 31.787 46.6771 31.5189 47.9823 32.4573C49.1425 33.2616 49.4325 34.2 49.2875 35.4079C48.9975 37.1493 47.5473 37.6855 45.807 37.8196C46.2421 39.8304 45.662 41.0369 44.2118 41.7072C43.0516 42.2434 41.4564 42.1107 40.4412 41.171C39.4261 40.2339 39.281 38.7593 40.1512 37.1493C39.281 37.5514 39.281 37.5514 37.8308 40.2326C37.2507 38.6239 36.6707 37.1479 35.9456 35.4065C37.2507 36.0782 38.2659 36.8812 40.0062 36.479C38.1209 35.6747 37.2507 34.6035 37.6858 32.8595C37.9744 31.653 39.136 30.7146 40.2962 30.5805C42.0365 30.3124 42.9066 30.9827 43.9217 32.7254Z" fill="#BC1515"/>
<path d="M96.7107 27.6324C99.176 27.9005 99.9011 27.4983 101.061 24.1469C101.061 26.9621 101.061 29.5092 101.061 32.0562C100.626 31.2519 100.336 30.1794 99.6111 29.5092C98.886 28.7048 97.7258 28.4367 96.5656 28.7048C96.5656 30.7157 96.5656 32.7265 96.5656 34.7374C96.5656 35.4076 97.2908 35.8085 98.741 36.0779C95.8405 36.0779 93.0851 36.0779 90.1847 36.0779C90.1847 36.0779 90.1847 36.0779 90.1847 35.9425C90.4748 35.9425 90.7648 35.8071 91.0563 35.8071C91.9264 35.6731 92.5065 35.1369 92.5065 34.1985C92.5065 30.3108 92.5065 26.4232 92.5065 22.5355C92.5065 21.0609 92.0714 20.7928 90.4762 20.6587C90.3312 20.6587 90.1862 20.6587 90.0411 20.3906C94.8268 20.3906 99.4675 20.3906 104.253 20.3906C104.253 21.8652 104.253 23.2058 104.253 24.6804C103.093 20.7928 100.049 21.0609 96.5671 21.195C96.7107 23.3426 96.7107 25.4875 96.7107 27.6324Z" fill="#BC1515"/>
<path d="M129.627 20.3926C132.528 20.3926 135.575 20.3926 138.475 20.3926V20.5266C138.329 20.5266 138.039 20.6607 137.895 20.6607C136.445 20.7947 136.01 21.1969 135.865 22.5375C135.865 26.2911 135.865 30.0447 135.865 33.6642C135.865 34.6026 136.301 35.2729 137.461 35.1388C138.622 35.1388 139.782 35.1388 140.94 35.0048C142.681 34.738 143.552 33.5301 144.277 32.1896C144.566 31.6533 144.712 30.9831 145.002 30.4468C145.148 30.4468 145.147 30.4468 145.291 30.5809C145.146 32.3236 144.856 34.0664 144.712 35.9431C139.637 35.9431 134.706 35.9431 129.775 35.9431V35.8091C131.804 35.4083 131.951 35.2742 131.951 33.3974C131.951 30.1801 131.951 26.9627 131.951 23.7453C132.093 21.1969 132.093 21.1969 129.627 20.3926Z" fill="#BC1515"/>
<path d="M159.064 20.3926C156.453 21.1969 156.453 21.1969 156.453 23.8781C156.453 27.0954 156.453 30.3128 156.453 33.5301C156.453 35.2729 156.743 35.541 158.629 36.0785C157.325 36.0785 155.875 36.0785 154.568 36.0785C153.118 36.0785 151.813 36.0785 150.363 36.0785C150.943 35.8091 151.813 35.5423 152.103 35.1388C152.538 34.6039 152.393 33.7982 152.393 33.128C152.393 29.9106 152.393 26.5592 152.393 23.3418C152.393 21.1969 152.248 21.0629 150.073 20.5266C153.118 20.3926 156.018 20.3926 159.064 20.3926Z" fill="#BC1515"/>
<path d="M130.356 47.3389C131.371 45.1927 132.241 43.1818 132.966 41.3064C133.256 40.7715 133.546 40.5007 134.128 40.6361C135.142 40.6361 136.303 40.6361 137.463 40.7715C136.013 40.7715 136.158 41.5758 136.158 42.3788C136.158 44.6578 136.158 46.9368 136.158 49.0817C136.158 49.752 136.305 50.2882 137.173 50.5563C135.723 50.5563 134.273 50.5563 132.968 50.5563C133.114 50.1555 133.548 49.6192 133.548 49.0817C133.548 46.6686 133.548 44.2556 133.403 41.7086C132.098 44.6578 130.791 47.4743 129.341 50.6903C127.891 47.607 126.587 44.6578 124.99 41.5745C124.845 42.1107 124.845 42.3788 124.845 42.5116C124.845 44.6578 124.845 46.6687 124.845 48.8136C124.845 49.6179 124.99 50.2882 126.005 50.555C125.135 50.555 124.265 50.555 123.105 50.555C124.12 50.1541 124.41 49.6179 124.41 48.8136C124.41 46.6687 124.41 44.5237 124.41 42.5129C124.41 41.1723 124.264 41.1723 122.96 40.7715C124.264 40.7715 125.57 40.7715 127.02 40.7715C127.31 40.7715 127.455 41.3064 127.601 41.5758C128.471 43.3172 129.341 45.194 130.356 47.3389Z" fill="#BC1515"/>
<path d="M100.765 40.5029C100.765 41.5767 100.765 42.6492 100.765 43.8543C100.185 43.1841 99.8936 42.5138 99.315 41.9789C98.2998 40.9064 96.9932 40.6383 95.543 40.9064C94.0927 41.3086 93.5141 42.3811 93.2226 43.5876C92.9326 45.0622 92.9326 46.6709 93.3676 48.1455C94.0927 50.1563 95.833 50.4231 97.5733 50.1563C97.8633 50.1563 98.1519 49.7528 98.1519 49.4861C98.2984 48.9498 98.1519 48.4123 98.1519 47.876C98.1519 47.0717 97.8633 46.6709 97.1382 46.5355C98.7334 46.5355 100.184 46.5355 101.777 46.5355C100.91 46.8049 100.765 47.3398 100.765 48.0101C100.765 50.1563 100.765 50.2891 98.4434 50.6912C96.5581 50.9593 94.6728 51.0934 92.789 50.1563C90.7587 49.0826 89.5985 46.9376 90.1786 44.9268C90.7587 42.5124 92.7905 40.637 95.1093 40.637C96.4145 40.637 97.5747 40.7724 98.8799 41.0392C99.605 41.0392 100.185 41.3073 100.765 40.5029Z" fill="#BC1515"/>
<path d="M180.093 40.7707C180.093 41.575 180.093 42.6461 180.093 43.8527C179.803 43.3164 179.658 43.0483 179.368 42.6462C178.497 41.3056 177.192 40.6353 175.453 40.7707C174.148 40.9048 173.132 41.7078 172.842 42.7815C172.407 44.2562 172.406 45.7295 172.406 47.07C172.406 47.7403 172.697 48.4106 172.987 48.9468C173.712 50.2874 175.597 50.8236 177.047 50.1533C177.192 50.1533 177.337 50.0179 177.482 50.0179C178.207 49.3476 177.482 46.9346 176.179 46.5311C177.917 46.5311 179.514 46.5311 181.108 46.5311C180.238 46.6678 180.093 47.3381 180.093 48.0084C180.093 50.0193 180.093 50.1547 177.917 50.5541C175.887 50.9577 173.712 50.9577 171.826 49.7511C169.94 48.5446 169.071 46.3997 169.651 44.1221C170.086 42.244 172.261 40.5012 174.292 40.3672C175.597 40.3672 177.047 40.6353 178.354 40.7707C178.787 40.9034 179.368 40.7707 180.093 40.7707Z" fill="#BC1515"/>
<path d="M153.41 50.5563C154.28 50.2895 154.57 49.886 154.57 49.0817C154.57 46.804 154.57 44.5237 154.57 42.3788C154.57 41.4418 153.99 41.0383 153.265 40.7715C154.28 40.7715 155.44 40.7715 156.455 40.7715C156.745 40.7715 157.18 41.1723 157.47 41.4418C159.065 43.1832 160.516 45.06 162.256 47.0708C162.256 45.194 162.256 43.5853 162.256 41.8426C162.256 41.4418 161.531 41.0383 161.241 40.7715C162.112 40.7715 163.128 40.7715 164.141 40.7715C162.981 40.9042 162.836 41.7085 162.836 42.6469C162.836 45.3281 162.836 48.1446 162.546 50.9584C160.081 48.1433 157.76 45.4621 155.295 42.6469C155.15 42.6469 155.15 42.6469 155.005 42.6469C155.005 43.4526 155.005 44.2556 155.005 45.06C155.005 46.2665 155.005 47.4743 155.005 48.5454C155.005 49.3511 155.005 50.2895 156.31 50.4222C155.295 50.5563 154.28 50.5563 153.41 50.5563Z" fill="#BC1515"/>
<path d="M113.39 50.5555C114.26 50.2874 114.26 49.8852 113.97 49.2149C113.535 48.0098 112.955 47.6076 111.65 47.7403C111.36 47.7403 110.925 47.7403 110.488 47.7403C109.475 47.6062 109.038 48.0084 108.75 48.8141C108.46 49.8852 108.46 50.1547 109.765 50.5555C108.751 50.5555 107.736 50.5555 107.011 50.5555C107.446 49.8852 108.026 49.2149 108.461 48.4106C109.765 45.7294 111.071 43.1824 112.377 40.3672C114.262 43.8527 115.422 47.4735 117.452 50.5555C116.291 50.5555 114.841 50.5555 113.39 50.5555ZM109.62 47.2041C110.925 47.2041 111.94 47.2041 113.1 47.2041C112.52 45.9976 111.94 44.9251 111.36 43.5845C110.635 44.9251 110.2 45.9976 109.62 47.2041Z" fill="#BC1515"/>
<path d="M80.6143 19.1875C80.7594 19.3216 81.0494 19.5897 81.1944 19.7237C81.3395 19.8578 81.1944 19.9918 81.1944 20.26C81.1944 30.4483 81.1944 40.6366 81.1944 50.8262C81.1944 51.093 81.1944 51.227 81.1944 51.4965C80.1793 51.8973 80.3243 51.227 80.3243 50.8262C80.3243 47.3394 80.3243 43.988 80.3243 40.5025C80.3243 33.7997 80.3243 26.9628 80.3243 20.26C80.3243 19.9918 80.3243 19.5897 80.3243 19.3216C80.4693 19.3216 80.4693 19.3216 80.6143 19.1875Z" fill="#BC1515"/>
<path d="M142.969 50.5547C143.839 50.4206 144.129 49.7503 143.984 49.0801C143.984 46.8024 143.984 44.5221 143.984 42.2432C143.984 41.4388 143.838 40.7686 142.679 40.7686C144.276 40.7686 145.87 40.7686 147.465 40.7686C146.305 40.9026 146.45 41.7069 146.45 42.3772C146.45 44.6562 146.45 46.9352 146.45 49.2141C146.45 49.7503 146.885 50.1539 147.028 50.5547C146.015 50.5547 144.564 50.5547 142.969 50.5547Z" fill="#BC1515"/>
</svg>
