<svg width="206" height="70" viewBox="0 0 206 70" fill="none" xmlns="http://www.w3.org/2000/svg">
<path d="M0.785156 0H188.896C198.224 0 205.785 7.56163 205.785 16.8894V70H43.4586C33.2192 70 24.0695 63.6059 20.5496 53.9906L0.785156 0Z" fill="#0B0E15"/>
<path d="M83.282 46.318C83.282 46.318 83.282 46.4531 83.282 46.5883V46.7234L83.1398 48.2097C82.9976 48.3449 82.7133 48.3449 82.7133 48.3449C82.5711 48.3449 82.4289 48.3449 82.2867 48.3449C81.8602 48.3449 81.5758 48.2084 81.2915 47.8044C81.0071 47.399 80.8649 46.9936 80.8649 46.4531C80.8649 45.6424 81.0071 45.1019 81.4337 44.6966C81.718 44.2912 82.1445 44.021 82.7133 44.021C83.1398 44.021 83.4242 44.1561 83.7085 44.2912C83.8507 44.2912 83.8507 44.4263 83.8507 44.4263C83.9929 44.5628 83.9929 44.6966 84.135 44.6966V43.6156H83.8507H83.7085L83.282 43.4805H82.9976H82.7133C82.0024 43.4805 81.2915 43.7507 80.8649 44.2926C80.2962 44.8317 80.1541 45.5073 80.1541 46.1829C80.1541 46.8585 80.2962 47.399 80.7228 47.8044C81.1493 48.2097 81.5758 48.3449 82.2867 48.3449C82.5711 48.3449 82.8554 48.3449 82.9976 48.3449C83.282 48.3449 83.5663 48.2084 83.8507 48.2084L84.135 48.0733C84.135 48.0733 84.135 47.9381 84.135 47.803V47.6679L84.2772 46.3167C84.2772 46.1802 84.2772 46.0464 84.4194 46.0464C84.4194 45.9113 84.5616 45.7762 84.5616 45.7762H83.282V46.318Z" fill="#232020"/>
<path d="M83.1381 45.2377C82.9959 45.1025 82.9959 45.1025 82.7116 45.1025C82.5694 45.1025 82.4272 45.1025 82.285 45.239H83.1381C83.2803 45.2377 83.2803 45.2377 83.1381 45.2377Z" fill="#232020"/>
<path d="M81.8629 46.5883C81.8629 46.9937 81.8629 47.2639 82.0051 47.3991C82.0051 47.3991 82.1473 47.5342 82.2894 47.5342L82.4316 46.5897L82.0051 45.9141C82.0051 46.183 81.8629 46.4532 81.8629 46.5883Z" fill="#232020"/>
<path d="M86.8398 47.1269C86.8398 47.2633 86.8398 47.2633 86.8398 47.3971C86.8398 47.3971 86.8398 47.262 86.8398 47.1269L87.2664 46.0459C86.982 46.3161 86.8398 46.7215 86.8398 47.1269Z" fill="#232020"/>
<path d="M73.3372 44.6963C73.1951 44.6963 73.0529 44.6963 72.9107 44.6963L72.6264 44.8314L72.342 44.9665L72.0576 45.2368L72.1998 44.6963H71.2046C71.2046 44.8314 71.3468 44.9665 71.3468 45.1017V45.3719L70.9202 48.0743C70.9202 48.2095 70.9202 48.3446 70.778 48.4797C70.778 48.6162 70.6359 48.6162 70.6359 48.7499H71.7733L71.6311 48.6148V48.4797V48.2095L71.9155 46.3191C71.9155 46.0489 72.0576 45.7786 72.1998 45.6435C72.342 45.507 72.4842 45.3732 72.7685 45.3732C72.9107 45.3732 73.0529 45.3732 73.0529 45.5084C73.1951 45.5084 73.1951 45.6448 73.3372 45.7786V44.6963Z" fill="#232020"/>
<path d="M75.6061 44.5625C74.8952 44.5625 74.3265 44.8314 73.9 45.2381C73.4734 45.7772 73.1891 46.3191 73.1891 46.9947C73.1891 47.5338 73.3313 47.9405 73.6156 48.2094C73.9 48.4797 74.3265 48.6162 74.8952 48.6162C75.3218 48.6162 75.7483 48.4797 76.1748 48.2094L76.4592 48.0743L76.7435 47.3987C76.6014 47.5338 76.6014 47.5338 76.4592 47.669L76.1748 47.8041C75.7483 47.9405 75.4639 48.0743 75.1796 48.0743C74.4687 48.0743 74.0422 47.669 74.0422 46.8582V46.4529L74.1843 45.9137H77.1701V45.6435C77.1701 45.2381 77.0279 44.9679 76.7435 44.6976C76.4592 44.6976 76.0326 44.5625 75.6061 44.5625ZM76.1748 45.7786L76.0326 45.9137H74.1843L74.3265 45.507C74.4687 45.3719 74.4687 45.3719 74.6109 45.2381C74.8952 44.9679 75.1796 44.9679 75.4639 44.9679C75.7483 44.9679 75.8905 44.9679 76.0326 45.103C76.1748 45.2395 76.317 45.3732 76.317 45.5084C76.317 45.6435 76.317 45.7786 76.1748 45.7786Z" fill="#232020"/>
<path d="M75.0395 47.3985H75.1817C75.3239 47.3985 75.466 47.3985 75.7504 47.2634L76.0348 47.127H75.0395C74.8973 47.2634 75.0395 47.3985 75.0395 47.3985Z" fill="#232020"/>
<path d="M101.346 44.5625C100.92 44.5625 100.493 44.6976 100.209 44.9679L99.9245 45.103L100.067 44.6976H99.0714C99.0714 44.8327 99.2136 44.9679 99.2136 45.103V45.3732L98.787 48.0757C98.787 48.2108 98.787 48.3459 98.6449 48.481C98.6449 48.481 98.5027 48.6175 98.5027 48.7513H99.6401C99.4979 48.6162 99.4979 48.481 99.4979 48.481V48.2108L99.7823 46.3204C99.7823 46.0502 99.9245 45.9151 99.9245 45.78C99.9245 45.6448 100.067 45.5097 100.209 45.5097L100.351 45.3746L100.635 45.2395H100.92H101.204C101.631 45.2395 101.915 45.3746 101.915 45.9151V46.3204L101.631 47.6717C101.631 47.9419 101.488 48.077 101.488 48.3473L101.346 48.8864H102.341L102.199 48.7513V48.6162V48.3459L102.626 46.1826V45.7772C102.626 45.507 102.484 45.3719 102.341 45.2381C102.199 45.103 101.631 44.5625 101.346 44.5625Z" fill="#232020"/>
<path d="M100.629 46.0459C100.629 46.181 100.629 46.181 100.629 46.3161L100.344 48.0727V47.9376C100.344 47.8011 100.487 47.5309 100.487 47.3971L100.629 46.0459Z" fill="#232020"/>
<path d="M98.5039 43.3462C98.5039 43.211 98.5039 43.0759 98.3617 42.9408C98.2196 42.8057 98.2195 42.8057 98.0774 42.8057C97.9352 42.8057 97.793 42.8057 97.6508 42.9421C97.5087 43.0773 97.5087 43.2124 97.5087 43.3475C97.5087 43.4826 97.5087 43.6177 97.6508 43.6177C97.793 43.7529 97.793 43.7529 97.9352 43.7529C98.0774 43.7529 98.0774 43.7529 98.2196 43.7529C98.2196 43.7529 98.3617 43.7529 98.3617 43.6177C98.5039 43.6164 98.5039 43.4813 98.5039 43.3462Z" fill="#232020"/>
<path d="M70.2017 44.6963H69.2064C69.2064 44.8314 69.3486 44.9665 69.3486 45.1017V45.3719L69.0643 47.2636C69.0643 47.5325 68.9221 47.669 68.9221 47.669C68.9221 47.8041 68.7799 47.8041 68.7799 47.9392C68.6377 48.0743 68.4956 48.0743 68.3534 48.2081C68.2112 48.2081 68.069 48.3446 67.7847 48.3446C67.2159 48.3446 66.9316 48.0743 66.9316 47.669V47.3987V47.1285L67.3581 44.6963H66.3629C66.5051 44.8314 66.5051 44.9665 66.5051 45.1017V45.3719L66.2207 47.3987C66.2207 47.5338 66.2207 47.669 66.2207 47.8041C66.2207 47.8041 66.2207 47.9406 66.2207 48.0743C66.2207 48.3446 66.3629 48.4797 66.5051 48.6148C66.7894 48.7499 67.0738 48.8851 67.3581 48.8851C67.9268 48.8851 68.2112 48.7499 68.4955 48.4797L68.7799 48.2095V48.6148H69.7752C69.633 48.4783 69.633 48.3446 69.633 48.3446V48.0743L70.2017 44.6963Z" fill="#232020"/>
<path d="M88.3977 44.6963C88.2555 44.6963 87.9711 44.6963 87.829 44.6963C86.9759 44.6963 86.4072 44.9665 85.8385 45.3719C85.2697 45.9124 85.1276 46.4529 85.1276 47.2636C85.1276 47.8027 85.2697 48.0743 85.5541 48.3446C85.8385 48.6148 86.1228 48.7499 86.5493 48.7499C86.6915 48.7499 86.6915 48.7499 86.8337 48.7499C86.9759 48.7499 86.9759 48.7499 87.1181 48.6148C87.2602 48.4784 87.5446 48.4784 87.6868 48.3446L87.829 48.2081L87.9711 48.073C87.9711 48.2081 87.9711 48.2081 87.9711 48.3432V48.6135H88.682C88.682 48.6135 88.682 48.6135 88.682 48.477V48.2068L89.1086 45.5043L89.2507 45.099C89.2507 45.099 89.2507 44.9638 89.3929 44.9638C89.3929 44.9638 89.3929 44.9638 89.3929 44.8274H89.1086L88.3977 44.6963ZM88.2555 45.6421L87.9711 47.1285C87.9711 47.3987 87.829 47.5339 87.829 47.669C87.829 47.8041 87.6868 47.8041 87.6868 47.9392C87.4024 48.2081 87.1181 48.3446 86.8337 48.3446C86.5493 48.3446 86.265 48.2081 86.1228 48.0743C85.9806 47.9392 85.8385 47.5338 85.8385 47.1285C85.8385 46.5893 85.9806 46.0475 86.4072 45.6421C86.6915 45.2368 87.1181 44.9665 87.6868 44.9665C88.1133 44.9665 88.2555 45.1017 88.2555 45.3719V45.6421Z" fill="#232020"/>
<path d="M98.2113 44.6963H97.2161C97.2161 44.6963 97.2161 44.8314 97.3582 44.8314V44.9665V45.2368L96.9317 47.9392C96.9317 48.2081 96.7895 48.3446 96.6473 48.6148H97.7848C97.6426 48.4783 97.6426 48.3446 97.6426 48.3446V48.0743L98.2113 44.6963Z" fill="#232020"/>
<path d="M94.9449 44.559C94.5183 44.559 94.0918 44.6941 93.6652 44.9643L93.3809 45.2346C93.2387 45.0981 93.2387 44.9643 93.0965 44.8279C93.0965 44.8279 93.0965 44.6927 92.9544 44.6927C92.8122 44.6927 92.67 44.5576 92.3856 44.5576C91.9591 44.5576 91.6748 44.6927 91.2482 44.8265L90.9639 45.0968L91.106 44.6914H90.1108C90.1108 44.8265 90.253 44.9616 90.253 45.0968V45.367L89.8264 48.0694C89.8264 48.2046 89.8264 48.3397 89.6843 48.3397L89.5421 48.4748C89.5421 48.4748 89.5421 48.6113 89.3999 48.6113H90.5373L90.3952 48.4775V48.3424V48.0721L90.6795 46.0453C90.6795 45.7751 90.8217 45.6399 90.8217 45.6399C90.8217 45.5035 90.9639 45.5035 91.106 45.3697C91.3904 45.2346 91.6748 45.0995 91.9591 45.0995C92.3856 45.0995 92.67 45.3697 92.67 45.7751V46.3156L92.3856 47.6668L92.1013 48.7478H93.0965L92.9544 48.6126V48.4775V48.2073L93.2387 46.1804C93.2387 45.9115 93.3809 45.6413 93.6652 45.3697C93.9496 45.2346 94.0918 45.0995 94.5183 45.0995C94.6605 45.0995 94.9449 45.0995 95.087 45.2359C95.2292 45.3711 95.2292 45.5048 95.2292 45.7751V46.1804L94.9449 47.5317L94.8027 48.0721L94.6605 48.7478H95.7979C95.6557 48.6126 95.6557 48.4775 95.6557 48.3424V48.0721L96.0823 45.9102V45.3697C96.0823 45.0995 95.9401 44.9643 95.7979 44.8292C95.6557 44.6941 95.3714 44.559 94.9449 44.559Z" fill="#232020"/>
<path d="M65.5148 43.6143L64.6617 43.8845L64.5196 44.6952H64.2352L64.093 45.1006H64.5196L64.093 47.6679V48.2084C64.093 48.3449 64.093 48.4786 64.2352 48.6151C64.3774 48.7489 64.5196 48.7489 64.8039 48.7489C65.0883 48.7489 65.3726 48.6138 65.657 48.4786L65.7992 47.9395C65.657 48.0746 65.5148 48.2084 65.2304 48.2084C65.0883 48.2084 64.9461 48.0733 64.9461 47.9395V47.6693L65.3726 44.9668H65.9413L66.0835 44.5615H65.2304L65.5148 43.6143Z" fill="#232020"/>
<path d="M65.2288 38.6155C68.9255 38.6155 72.7643 38.6155 76.4609 38.6155C79.3045 38.6155 80.7263 37.5345 81.295 34.8321C81.4372 34.2916 81.4372 33.7511 81.5793 33.3444C82.148 30.1028 82.7168 26.8585 83.4276 23.4805H80.4419C80.2997 23.8858 80.2997 24.2912 80.1575 24.6966C79.5888 27.9395 78.8779 31.3175 78.3092 34.5605C78.1671 35.5063 77.5983 36.317 76.6031 36.317C72.9065 36.317 69.2098 36.317 65.6554 36.317C64.6601 36.317 64.2336 35.7779 64.3758 34.8307C64.6601 33.343 64.9445 31.858 65.2288 30.5068C65.6554 28.2097 66.0819 25.9127 66.5084 23.4805H63.5227C63.3805 23.6156 63.3805 23.8858 63.3805 24.021C62.8118 27.399 62.2431 30.9122 61.5322 34.2902C60.6791 36.994 61.8166 38.4804 65.2288 38.6155Z" fill="#232020"/>
<path d="M104.899 47.1285C104.899 47.2649 104.899 47.3987 104.899 47.3987C104.899 47.3987 104.899 47.2636 104.899 47.1285L105.043 46.1826C104.899 46.3177 104.899 46.588 104.899 47.1285Z" fill="#232020"/>
<path d="M57.1241 30.1034H44.6124C44.8968 28.4819 45.1812 27.1307 45.4655 25.6444C46.0342 25.6444 46.4608 25.6444 46.8873 25.6444C50.1574 25.6444 53.4275 25.6444 56.6976 25.6444C59.399 25.6444 58.6881 26.0497 59.1146 23.4824H42.9063C41.9111 28.4819 41.058 33.4814 40.0627 38.6161H43.0485C43.475 36.5892 43.7594 34.5624 44.1859 32.4005H56.6976C56.9819 31.5897 56.9819 30.9141 57.1241 30.1034Z" fill="#232020"/>
<path d="M109.018 38.6148H109.16C110.155 38.6148 110.866 38.2095 111.577 37.2636C112.857 35.9124 113.994 34.4261 115.275 33.0748C117.123 30.9129 119.114 28.7509 120.962 26.589C121.247 27.1295 121.389 27.5349 121.673 27.9402C123.379 31.1831 124.943 34.5612 126.649 37.8041C126.791 38.073 127.217 38.6148 127.502 38.6148C128.357 38.75 129.351 38.6148 130.346 38.6148C130.204 38.3446 130.062 38.0744 130.062 37.9392C127.787 33.4802 125.513 29.0212 123.237 24.5622C122.526 23.0758 120.962 22.9407 119.826 24.1568C115.844 28.7509 111.722 33.21 107.741 37.8055C107.599 38.0744 107.315 38.3446 107.03 38.6162C107.738 38.6148 108.876 38.6148 109.018 38.6148Z" fill="#232020"/>
<path d="M88.9782 38.3442C91.2531 38.6145 93.3857 38.6145 95.6606 38.6145C97.5089 38.6145 99.2151 38.6145 101.063 38.3442C102.485 38.2091 103.907 37.5335 104.333 36.0472C104.902 34.1568 105.187 32.2637 105.613 30.2369C104.902 30.2369 104.333 30.2369 103.765 30.2369C102.912 30.1018 102.343 30.372 102.343 31.3179C102.201 32.2637 102.059 33.3447 101.774 34.2906C101.49 35.7783 101.063 36.1823 99.4994 36.1823C96.5137 36.1823 93.5279 36.1823 90.6844 36.1823C89.2626 36.1823 88.9782 35.7769 89.2626 34.4257C89.6891 32.2624 90.1156 29.9667 90.5422 27.8047C90.9687 25.7779 91.2531 25.5077 93.5279 25.5077C97.0824 25.5077 100.637 25.5077 104.191 25.5077C106.466 25.5077 106.466 25.5077 106.608 23.3457C106.466 23.3457 106.182 23.3457 106.04 23.3457C101.774 23.3457 97.6511 23.3457 93.3857 23.3457C92.2483 23.3457 91.2531 23.6159 90.2578 24.0213C88.836 24.4267 88.1252 25.5077 87.8408 26.8589C87.4143 29.4262 86.8456 31.9935 86.419 34.6959C85.8503 36.993 86.5612 38.074 88.9782 38.3442Z" fill="#232020"/>
<path d="M61.2437 47.399C61.2437 47.399 61.2437 47.2639 61.2437 47.1287L61.528 45.2384V45.1019C61.528 45.1019 61.528 45.1019 61.528 44.9668L61.2437 47.399Z" fill="#232020"/>
<path d="M68.0759 47.399C68.0759 47.399 68.0759 47.2639 68.0759 47.1287L68.3603 45.2384V45.1019C68.3603 45.1019 68.3603 45.1019 68.3603 44.9668L68.0759 47.399Z" fill="#232020"/>
<path d="M63.5192 44.6963H62.524C62.524 44.8314 62.6661 44.9665 62.6661 45.1017V45.3719L62.3818 47.2636C62.3818 47.5325 62.2396 47.669 62.2396 47.669C62.2396 47.669 62.0974 47.8041 62.0974 47.9392C61.9552 48.0743 61.8131 48.0743 61.6709 48.2081C61.5287 48.2081 61.3865 48.3446 61.1022 48.3446C60.5335 48.3446 60.2491 48.0743 60.2491 47.669V47.3987V47.1285L60.6756 44.6963H59.6804C59.8226 44.8314 59.8226 44.9665 59.8226 45.1017V45.3719L59.5382 47.3987C59.5382 47.5338 59.5382 47.669 59.5382 47.8041C59.5382 47.8041 59.5382 47.9406 59.5382 48.0743C59.5382 48.3446 59.6804 48.4797 59.8226 48.6148C60.1069 48.7499 60.3913 48.8837 60.6756 48.8837C61.2443 48.8837 61.5287 48.7486 61.8131 48.4783L62.0974 48.2081L61.9552 48.7499H63.0927C62.9505 48.6148 62.9505 48.4797 62.9505 48.4797V48.2095L63.5192 44.6963Z" fill="#232020"/>
<path d="M55.8476 42.2627H55.9898H56.132C56.132 42.2627 56.132 42.2627 56.2742 42.2627H56.4163C56.5585 42.2627 56.5585 42.2627 56.7007 42.1262C56.8429 42.1262 56.9851 42.1262 57.1272 41.9911H57.2694L57.5538 41.856V41.5857V41.4519C57.5538 41.3168 57.5538 41.3168 57.5538 41.183C57.5538 40.9128 57.5538 40.7763 57.5538 40.5074C57.5538 40.2372 57.5538 39.9669 57.5538 39.6954C57.5538 39.4238 57.5538 39.1562 57.5538 38.8846C57.5538 38.613 57.5538 38.3441 57.5538 38.0725C57.5538 37.8036 57.5538 37.5334 57.5538 37.2618C57.5538 37.1267 57.5538 37.1267 57.5538 36.9916V36.8564C57.6959 36.8564 57.696 36.72 57.8381 36.72C57.9803 36.5848 58.1225 36.4511 58.1225 36.3146C58.1225 36.0444 58.1225 35.9092 57.9803 35.639C57.8381 35.3687 57.5538 35.2363 57.2694 35.2363C57.1272 35.2363 56.9851 35.2363 56.8429 35.3715C56.7007 35.5079 56.7007 35.5079 56.5585 35.6417C56.4163 35.9119 56.4163 36.1822 56.4163 36.4538C56.4163 36.4538 56.4163 36.5889 56.5585 36.5889C56.5585 36.5889 56.5585 36.5889 56.5585 36.724C56.5585 36.724 56.5585 36.8605 56.4163 36.8605C56.2742 36.9956 56.132 37.1307 55.9898 37.3996C55.8476 37.5361 55.8476 37.5361 55.7055 37.6699C55.7055 37.6699 55.7055 37.6699 55.5633 37.6699C55.4211 37.6699 55.4211 37.6699 55.2789 37.5348C55.1367 37.3983 55.1367 37.3983 55.1367 37.2645C55.1367 37.2645 55.1367 37.2645 55.1367 37.1294L54.9946 36.9929C54.9946 36.8578 54.9946 36.8578 54.8524 36.7227C54.8524 36.7227 54.9946 36.5875 54.9946 36.4538C54.9946 36.3173 55.1367 36.1835 55.1367 36.0471C55.1367 35.9119 55.1367 35.6417 54.9946 35.6417C54.8524 35.5066 54.7102 35.3715 54.4259 35.3715C54.1415 35.3715 53.9993 35.3715 53.8571 35.5079C53.715 35.643 53.5728 35.7782 53.4306 36.0471C53.4306 36.1835 53.4306 36.1835 53.4306 36.3173C53.4306 36.4538 53.4306 36.4538 53.5728 36.5875C53.5728 36.7227 53.715 36.7227 53.8571 36.8578C53.8571 36.9929 53.8571 36.9929 53.8571 37.128C53.8571 37.2632 53.715 37.3969 53.715 37.5334C53.715 37.6685 53.5728 37.6685 53.5728 37.8036C53.5728 37.8036 53.5728 37.8036 53.4306 37.8036H53.2884C53.1462 37.8036 53.1462 37.6672 53.0041 37.5334C52.8619 37.3969 52.7197 37.2632 52.5775 37.128C52.2932 36.8578 52.151 36.7227 52.0088 36.5875C52.0088 36.4524 51.8666 36.4524 51.8666 36.3173V36.1822C51.8666 35.9119 51.8666 35.7768 51.7245 35.5066C51.0136 35.3715 50.8714 35.2363 50.587 35.2363C50.4449 35.2363 50.3027 35.2363 50.1605 35.3715C50.1605 35.3715 50.1605 35.3715 50.0183 35.3715C49.8762 35.3715 49.8762 35.5079 49.8762 35.5079C49.734 35.643 49.734 35.7782 49.5918 35.9133C49.5918 36.0484 49.5918 36.1835 49.5918 36.3187C49.5918 36.4551 49.734 36.5889 49.8762 36.724C50.0183 36.8578 50.0183 36.8578 50.1605 36.8578C50.1605 36.8578 50.1605 36.8578 50.1605 36.9929C50.1605 37.1294 50.1605 37.1294 50.3027 37.2632C50.3027 37.5334 50.4449 37.6685 50.4449 37.8036C50.4449 38.209 50.4449 38.4793 50.4449 38.7481C50.4449 38.8846 50.4449 38.8846 50.4449 39.0184C50.4449 39.1549 50.3027 39.1549 50.3027 39.1549C50.1605 39.1549 50.1605 39.1549 50.0183 39.1549H49.8762H49.734C49.5918 39.1549 49.4496 39.0184 49.3074 39.0184C49.1653 39.0184 49.1653 38.8833 49.0231 38.8833C49.0231 38.7468 49.0231 38.613 48.8809 38.4779C48.8809 38.3441 48.8809 38.3441 48.8809 38.209C48.8809 38.0739 48.7387 38.0739 48.7387 38.0739C48.5965 37.9388 48.4544 37.9388 48.3122 37.9388C48.17 37.9388 47.8857 37.9388 47.7435 38.0739C47.4591 38.209 47.3169 38.4793 47.3169 38.7495C47.3169 38.886 47.3169 39.1562 47.6013 39.29C47.7435 39.4251 47.8857 39.5602 48.0278 39.5602C48.17 39.5602 48.17 39.5602 48.3122 39.5602C48.3122 39.5602 48.3122 39.6954 48.4544 39.6954C48.4544 39.6954 48.4544 39.8318 48.5965 39.8318C48.5965 39.8318 48.5965 39.8318 48.5965 39.9669C48.5965 39.9669 48.5965 39.9669 48.5965 40.1021V40.2358C48.5965 40.371 48.5965 40.371 48.5965 40.5061C48.5965 40.5061 48.5965 40.6412 48.4544 40.6412C48.4544 40.6412 48.3122 40.6412 48.3122 40.7763C48.3122 40.7763 48.3122 40.7763 48.17 40.7763C47.8857 40.7763 47.7435 40.7763 47.6013 40.7763C47.4591 40.7763 47.1748 40.7763 47.0326 40.6412C47.0326 40.5061 46.8904 40.371 46.7482 40.2358C46.4639 40.1007 46.3217 40.1007 46.0373 40.1007C45.8952 40.1007 45.6108 40.2372 45.6108 40.5074C45.4686 40.6412 45.4686 40.7763 45.4686 41.0466C45.4686 41.183 45.4686 41.3168 45.6108 41.4519C45.753 41.5871 45.8952 41.7222 46.1795 41.8573C46.3217 41.8573 46.4639 41.8573 46.6061 41.8573L46.8904 42.1275L47.1748 41.9924L47.3169 42.1275L47.4591 42.2627L47.6013 42.3978L47.7435 42.5329L47.8857 42.668L48.0278 42.8032L48.17 42.9383L48.3122 43.0734L48.4544 43.2085C48.7387 43.3436 48.7387 43.4788 48.8809 43.4788L49.0231 43.6139L49.1653 43.749L49.3074 43.8841L49.4496 44.0193L49.5918 44.1544L49.734 44.2895C49.8762 44.2895 49.8762 44.4246 50.0183 44.4246L50.1605 44.5597L50.3027 44.6949C50.4449 44.83 50.587 44.83 50.7292 44.83C50.7292 44.83 50.7292 44.83 50.8714 44.83C50.8714 44.83 50.8714 44.83 51.0136 44.83L51.1558 44.6949C51.2979 44.5597 51.4401 44.5597 51.5823 44.4246C51.7245 44.2895 51.8666 44.2895 52.0088 44.1544L51.7245 44.0193C51.8666 43.8841 51.8666 43.8841 52.0088 43.8841C52.151 43.8841 52.2932 43.7477 52.4354 43.7477C52.5775 43.7477 52.5775 43.6125 52.7197 43.6125C52.7197 43.6125 52.8619 43.4761 53.0041 43.4761H53.1462C53.2884 43.4761 53.4306 43.3409 53.4306 43.3409C53.5728 43.3409 53.715 43.2058 53.8571 43.2058L53.9993 43.0693H54.1415C54.2837 43.0693 54.4259 42.9342 54.568 42.9342C54.568 42.9342 54.568 42.9342 54.7102 42.9342C54.8524 42.9342 54.8524 42.7978 54.9946 42.7978H55.1367H55.2789H55.4211H55.5633H55.7055C55.7055 42.3978 55.7055 42.3978 55.8476 42.2627C55.8476 42.3978 55.8476 42.2627 55.8476 42.2627ZM55.7055 41.7222C55.5633 41.7222 55.7055 41.7222 55.7055 41.7222C55.5633 41.7222 55.5633 41.7222 55.5633 41.7222H55.4211H55.2789H55.1367H54.9946H54.8524L54.568 42.1275H54.4259C54.2837 42.1275 54.1415 42.264 53.9993 42.264H53.8571L53.715 42.3991C53.5728 42.3991 53.4306 42.5356 53.2884 42.5356C53.1462 42.5356 53.0041 42.6707 52.8619 42.6707H52.7197C52.5775 42.6707 52.5775 42.8059 52.4354 42.8059C52.2932 42.8059 52.2932 42.9423 52.151 42.9423C52.0088 43.2085 51.8666 43.3436 51.7245 43.3436C51.5823 43.3436 51.5823 43.4788 51.4401 43.4788C51.4401 43.4788 51.2979 43.4788 51.2979 43.6152C51.1558 43.7504 51.0136 43.7504 50.8714 43.8855C50.7292 44.0206 50.587 44.0206 50.4449 44.1544C50.3027 44.1544 50.3027 44.0193 50.1605 44.0193L50.0183 43.8841L49.8762 43.749L49.734 43.6139L49.5918 43.4788L49.4496 43.3436L49.3074 43.2085C49.1653 43.0734 49.1653 43.0734 49.0231 42.9383L48.8809 42.8032L48.7387 42.668L48.5965 42.5329L48.4544 42.3978L48.3122 42.2627L48.0278 41.9924L47.8857 41.8573L47.7435 41.7222L47.6013 41.5871L47.4591 41.4519L47.3169 41.3168C47.4591 41.3168 47.6013 41.3168 47.7435 41.3168C47.8857 41.3168 48.17 41.3168 48.3122 41.3168C48.4544 41.3168 48.5965 41.3168 48.5965 41.3168C48.5965 41.3168 48.5965 41.3168 48.7387 41.3168C48.8809 41.3168 48.8809 41.1817 49.0231 41.1817C49.1653 41.0466 49.3074 40.9114 49.3074 40.6412C49.3074 40.5061 49.3074 40.2358 49.3074 40.2358V40.1007C49.3074 40.1007 49.3074 40.1007 49.3074 39.9656V39.8305C49.3074 39.8305 49.3074 39.8305 49.3074 39.694C49.3074 39.5589 49.3074 39.5589 49.1653 39.4238H49.3074C49.4496 39.5602 49.734 39.5602 49.8762 39.5602C49.8762 39.5602 49.8762 39.5602 50.0183 39.5602H50.1605C50.4449 39.5602 50.587 39.5602 50.7292 39.5602C50.8714 39.4251 51.0136 39.29 51.1558 39.1549C51.1558 39.0184 51.2979 38.8846 51.2979 38.7481C51.2979 38.4793 51.2979 38.0725 51.2979 37.6672C51.2979 37.3969 51.2979 37.2618 51.1558 37.128C51.1558 36.9916 51.1558 36.9916 51.1558 36.8578C51.1558 36.8578 51.1558 36.9929 51.2979 36.9929C51.4401 37.1294 51.5823 37.3983 51.8666 37.6685C51.7245 37.9388 51.8666 38.0739 52.0088 38.209C52.151 38.3441 52.2932 38.4793 52.5775 38.4793C52.7197 38.4793 52.8619 38.6144 53.1462 38.4793H53.2884C53.4306 38.4793 53.4306 38.3428 53.5728 38.3428C53.715 38.2077 53.8571 38.0725 53.8571 37.9374C53.8571 37.8023 53.9993 37.6672 53.9993 37.532C53.9993 37.3956 53.9993 37.3956 54.1415 37.2618C54.1415 37.2618 54.1415 37.3969 54.2837 37.3969C54.2837 37.5334 54.4259 37.5334 54.4259 37.6672C54.4259 37.6672 54.4259 37.6672 54.4259 37.8036C54.568 37.9388 54.568 38.0739 54.7102 38.209C54.8524 38.3441 55.1367 38.4793 55.4211 38.4793C55.5633 38.4793 55.7055 38.4793 55.7055 38.4793C55.9898 38.3428 56.132 38.209 56.132 38.0725C56.2742 37.8036 56.5585 37.6672 56.5585 37.3969C56.5585 37.3969 56.5585 37.2618 56.7007 37.2618C56.7007 37.3969 56.7007 37.532 56.7007 37.532C56.7007 37.8023 56.7007 38.0712 56.7007 38.3428C56.7007 38.6144 56.7007 38.8833 56.7007 39.1549C56.7007 39.4238 56.7007 39.694 56.7007 40.0994C56.7007 40.3696 56.7007 40.6399 56.7007 40.9114C56.7007 41.183 56.7007 41.3168 56.7007 41.5871V41.7222C56.5585 41.7222 56.4163 41.7222 56.4163 41.8587C56.2742 41.8587 56.132 41.8587 56.132 41.9938H55.9898C55.9898 41.9938 55.9898 41.9938 55.8476 41.9938C55.8476 41.9938 55.8476 41.9938 55.7055 41.9938C55.8476 41.7222 55.7055 41.7222 55.7055 41.7222Z" fill="#232020"/>
<path d="M56.2772 44.1557C56.2772 44.2922 56.2772 44.2922 56.2772 44.4259V44.561L55.9929 48.0742C55.9929 48.2093 55.9929 48.3445 55.8507 48.4796L55.7085 48.7498H56.9881L56.8459 48.4796C56.8459 48.3445 56.8459 48.3445 56.8459 48.2093V48.0742L56.9881 46.4528H57.5568C57.8412 46.4528 57.9833 46.4528 58.1255 46.5892C58.2677 46.5892 58.4099 46.7243 58.4099 46.8581L58.5521 45.7771L58.4099 45.9123C58.4099 45.9123 58.2677 46.0474 58.1255 46.0474L57.8412 46.1825H57.4146H56.8459L56.9881 44.5624H57.699C57.9833 44.5624 58.2677 44.5624 58.4099 44.6975C58.5521 44.8326 58.6942 44.9678 58.8364 45.1029L58.9786 44.2922H55.9929C56.2772 44.0206 56.2772 44.1557 56.2772 44.1557Z" fill="#232020"/>
<path d="M116.407 44.5625C116.123 44.5625 115.838 44.5625 115.412 44.6976C115.128 44.8327 114.845 44.9679 114.559 45.103C113.99 45.5084 113.706 46.0488 113.706 46.5893V46.8596C113.706 47.4001 113.849 47.8054 114.275 48.2108C114.559 48.481 115.128 48.7513 115.696 48.7513C116.407 48.7513 116.976 48.481 117.545 48.0757C118.113 47.6703 118.256 46.9947 118.256 46.3191C118.256 45.7786 118.113 45.3732 117.688 45.103C117.402 44.6976 116.834 44.5625 116.407 44.5625ZM116.834 47.9405C116.549 48.3459 116.123 48.481 115.696 48.481C115.412 48.481 115.128 48.3459 114.985 48.2108C114.843 47.9405 114.701 47.6703 114.559 47.2649V46.9947C114.559 46.3191 114.701 45.9137 114.985 45.507C115.27 45.1016 115.696 44.8314 116.123 44.8314C116.549 44.8314 116.692 44.9679 116.976 45.2381C117.118 45.5084 117.26 45.9137 117.26 46.3191C117.402 46.9947 117.118 47.5352 116.834 47.9405Z" fill="#232020"/>
<path d="M131.631 44.5625C131.346 44.5625 131.062 44.5625 130.636 44.6976C130.351 44.8327 130.067 44.9679 129.783 45.103C129.214 45.5084 128.929 46.0488 128.929 46.5893V46.8596C128.929 47.4001 129.073 47.8054 129.498 48.2108C129.783 48.481 130.351 48.7513 130.92 48.7513C131.631 48.7513 132.198 48.481 132.768 48.0757C133.337 47.5352 133.479 46.9947 133.479 46.3191C133.479 45.7786 133.337 45.3732 132.91 45.103C132.626 44.6976 132.2 44.5625 131.631 44.5625ZM132.2 47.9405C131.915 48.3459 131.489 48.481 131.062 48.481C130.778 48.481 130.495 48.3459 130.351 48.2108C130.209 47.9405 130.067 47.6703 129.925 47.2649V46.9947C129.925 46.3191 130.067 45.9137 130.351 45.507C130.636 45.1016 131.062 44.8314 131.489 44.8314C131.917 44.8314 132.057 44.9679 132.343 45.2381C132.485 45.507 132.627 45.9137 132.627 46.3191C132.626 46.9947 132.484 47.5352 132.2 47.9405Z" fill="#232020"/>
<path d="M136.175 46.0459C136.175 46.181 136.175 46.181 136.175 46.3161L135.891 48.0727V47.9376C135.891 47.8011 136.033 47.5309 136.033 47.3971L136.175 46.0459Z" fill="#232020"/>
<path d="M131.628 45.7764C131.485 45.7764 131.344 45.7764 131.202 46.0466C131.058 46.3169 130.917 46.5871 130.917 46.9925V47.1276C130.917 47.2641 130.917 47.3978 131.06 47.533C131.203 47.533 131.344 47.533 131.486 47.2641C131.63 46.9938 131.771 46.7236 131.771 46.3182C131.771 46.0466 131.628 45.7764 131.628 45.7764Z" fill="#232020"/>
<path d="M136.745 44.5625C136.318 44.5625 135.891 44.6976 135.607 44.9679L135.323 45.103L135.465 44.6976H134.47C134.47 44.8327 134.612 44.9679 134.612 45.103V45.3732L134.185 48.0757C134.185 48.2108 134.185 48.3459 134.043 48.481C134.043 48.481 133.9 48.6175 133.9 48.7513H135.037C134.895 48.6162 134.895 48.481 134.895 48.481V48.2108L135.179 46.3204C135.179 46.0502 135.321 45.9151 135.321 45.78C135.321 45.6448 135.465 45.5097 135.606 45.5097L135.748 45.3746L136.032 45.2395H136.317H136.601C137.027 45.2395 137.312 45.3746 137.312 45.9151V46.3204L137.027 47.6717C137.027 47.9419 136.885 48.077 136.885 48.3473L136.745 48.8864H137.74L137.598 48.7513V48.6162V48.3459L138.024 46.1826V45.7772C138.024 45.507 137.881 45.3719 137.74 45.2381C137.455 44.6976 137.171 44.5625 136.745 44.5625Z" fill="#232020"/>
<path d="M128.497 42.9395C128.355 42.9395 128.213 42.9395 128.071 43.0746C127.929 43.2097 127.929 43.3448 127.929 43.4799C127.929 43.6164 127.929 43.7502 128.072 43.7502C128.214 43.8867 128.214 43.8867 128.357 43.8867C128.499 43.8867 128.499 43.8867 128.639 43.8867C128.639 43.8867 128.783 43.8867 128.783 43.7502C128.925 43.6151 128.925 43.4799 128.925 43.3448C128.925 43.2097 128.925 43.0746 128.783 42.9395C128.782 42.9395 128.639 42.9395 128.497 42.9395Z" fill="#232020"/>
<path d="M128.641 44.6963H127.646C127.646 44.6963 127.646 44.8314 127.788 44.8314V44.9665V45.2368L127.362 47.9392C127.362 48.2081 127.218 48.3446 127.078 48.6148H128.357C128.215 48.4797 128.215 48.3446 128.215 48.3446V48.0743L128.641 44.6963Z" fill="#232020"/>
<path d="M176.127 23.481C172.146 23.3458 168.165 23.481 164.184 23.481C161.624 23.481 159.776 24.5619 159.351 26.4536C158.64 29.4263 158.071 32.5341 157.645 35.6419C157.503 36.9931 158.213 37.939 159.493 38.3444C160.204 38.6146 160.915 38.6146 161.769 38.7497C163.618 38.7497 165.466 38.7497 167.313 38.7497C169.303 38.7497 171.152 38.7497 173.144 38.7497C176.129 38.7497 177.976 37.3985 178.403 34.8325C178.828 32.5341 179.254 30.1019 179.681 27.6697C180.25 24.8322 179.112 23.481 176.127 23.481ZM176.695 27.2644C176.269 29.6966 175.842 32.2639 175.416 34.6961C175.273 35.777 174.42 36.1824 173.283 36.1824C171.435 36.1824 169.586 36.1824 167.738 36.1824C165.89 36.1824 164.041 36.1824 162.335 36.1824C161.057 36.1824 160.629 35.6419 160.771 34.5609C161.198 32.1288 161.767 29.6966 162.193 27.2644C162.335 26.0483 163.188 25.6429 164.326 25.6429C168.022 25.6429 171.719 25.6429 175.416 25.6429C176.553 25.6429 176.98 26.0483 176.695 27.2644Z" fill="#232020"/>
<path d="M125.933 47.9389V47.6686L126.36 44.9662H127.071L127.213 44.5608H126.36L126.502 43.4785L125.649 43.7501L125.791 44.696H125.507L125.364 45.1013H125.649L125.222 47.6686V48.2091C125.222 48.3456 125.222 48.4794 125.364 48.6159C125.507 48.7496 125.649 48.7496 125.933 48.7496C126.218 48.7496 126.5 48.6145 126.786 48.4794L126.928 47.9389C126.786 48.074 126.644 48.2091 126.36 48.2091C126.075 48.3443 125.933 48.2091 125.933 47.9389Z" fill="#232020"/>
<path d="M140.872 44.6963C140.729 44.6963 140.729 44.6963 140.588 44.6963H140.446C140.019 44.6963 139.593 44.8314 139.308 45.1017C139.025 45.3719 138.882 45.6421 138.882 46.0475C138.882 46.1826 139.025 46.4529 139.166 46.588C139.308 46.7231 139.593 46.8569 139.877 47.1271L140.304 47.3974L140.447 47.5325C140.589 47.669 140.589 47.8027 140.589 47.9392C140.589 48.2081 140.447 48.3446 140.305 48.4783C140.161 48.6148 140.019 48.7499 139.735 48.7499C139.45 48.7499 139.307 48.6148 139.166 48.4797C139.024 48.3446 138.882 48.0743 138.74 47.8041L138.597 48.7499C138.882 48.8851 139.025 49.0202 139.308 49.0202C139.452 49.0202 139.593 49.0202 139.736 49.0202C140.163 49.0202 140.589 48.8837 141.014 48.6148C141.299 48.3446 141.583 47.9392 141.583 47.5325C141.583 47.3974 141.583 47.1271 141.44 46.9934C141.299 46.8582 141.157 46.7231 140.872 46.588L140.588 46.4529C140.446 46.3178 140.304 46.1826 140.161 46.1826C140.019 46.0475 140.019 46.0475 140.019 45.9124C140.019 45.7759 140.163 45.5057 140.304 45.3719C140.447 45.2368 140.73 45.1017 140.872 45.1017C141.157 45.1017 141.299 45.2381 141.44 45.3719C141.583 45.507 141.583 45.6421 141.724 45.7773L141.868 44.9665C141.299 44.6963 141.157 44.6963 141.157 44.6963C141.014 44.6963 141.014 44.6963 140.872 44.6963Z" fill="#232020"/>
<path d="M139.729 23.4808C136.458 23.6159 134.895 25.2374 134.609 28.3452C134.467 29.8316 135.178 30.9125 136.742 31.3179C137.453 31.453 138.164 31.5881 138.875 31.5881C141.862 31.5881 144.705 31.5881 147.69 31.5881C150.391 31.5881 150.533 31.8584 150.107 34.2906C149.822 35.912 149.396 36.3174 147.547 36.3174C143.849 36.3174 140.154 36.3174 136.456 36.3174H133.758C133.615 37.1281 133.473 37.9389 133.331 38.6145C133.473 38.6145 135.179 38.6145 137.739 38.6145C140.013 38.6145 142.999 38.6145 145.416 38.6145C146.127 38.6145 146.838 38.6145 147.405 38.6145C147.69 38.6145 147.832 38.6145 148.116 38.6145C151.103 38.4794 152.666 37.1281 153.092 34.2906C153.092 34.0203 153.236 33.7514 153.236 33.4798C153.663 30.9125 152.667 29.5613 149.964 29.4262C146.554 29.2911 143.284 29.2911 139.871 29.2911C137.881 29.2911 137.312 28.7506 138.023 26.8589C138.307 25.7779 139.301 25.6428 140.298 25.6428C144.279 25.6428 148.118 25.6428 152.099 25.6428C154.231 25.6428 154.231 25.5077 154.089 23.3457C149.255 23.3457 144.563 23.3457 139.729 23.4808Z" fill="#232020"/>
<path d="M122.525 47.399C122.525 47.399 122.525 47.2639 122.525 47.1287L122.809 45.237V45.1019C122.809 45.1019 122.809 45.1019 122.809 44.9668L122.525 47.399C122.525 47.399 122.382 47.399 122.525 47.399Z" fill="#232020"/>
<path d="M112.715 44.0209L112.289 43.8857C112.147 43.8857 112.006 43.8857 111.862 43.8857C111.436 43.8857 111.009 44.0209 110.725 44.2911C110.441 44.5614 110.298 44.8302 110.298 45.237C110.298 45.5059 110.298 45.6423 110.441 45.9126C110.583 46.0477 110.867 46.3179 111.152 46.5882L111.578 46.8571L111.72 46.9936L111.862 47.1287C112.005 47.2638 112.005 47.3989 112.005 47.6692C112.005 47.9394 111.862 48.2096 111.72 48.3448C111.577 48.4799 111.294 48.615 111.009 48.615C110.725 48.615 110.441 48.4785 110.298 48.3448C110.156 48.2083 110.156 48.2083 110.156 48.0745C110.156 48.0745 110.156 47.9394 110.014 47.9394C110.014 47.9394 110.014 47.8029 109.872 47.6692L109.73 48.615L110.156 48.7501L110.583 48.8853C110.725 48.8853 110.867 48.8853 111.152 48.8853C111.72 48.8853 112.147 48.7501 112.431 48.4799C112.858 48.2096 113 47.8043 113 47.3989C113 47.2638 113 46.9935 112.858 46.8584C112.715 46.7233 112.573 46.4531 112.289 46.3193L111.862 46.0477C111.578 45.9126 111.436 45.6423 111.295 45.5072C111.152 45.3721 111.152 45.237 111.152 45.1018C111.152 44.8316 111.295 44.6965 111.436 44.5627C111.578 44.4262 111.72 44.4262 112.005 44.4262C112.573 44.4262 112.858 44.6965 113 45.237L113.142 44.156C112.998 44.156 112.998 44.156 112.998 44.156H112.715V44.0209Z" fill="#232020"/>
<path d="M116.272 45.7764C116.128 45.7764 115.988 45.7764 115.844 46.0466C115.703 46.3169 115.561 46.5871 115.561 46.9925V47.1276C115.561 47.2641 115.561 47.3978 115.703 47.533C115.846 47.533 115.988 47.533 116.13 47.2641C116.273 46.9938 116.414 46.7236 116.414 46.3182C116.414 46.0466 116.272 45.7764 116.272 45.7764Z" fill="#232020"/>
<path d="M123.802 45.1017V45.3719L123.518 47.2636C123.518 47.5325 123.376 47.669 123.376 47.669C123.376 47.669 123.233 47.8041 123.233 47.9392C123.091 48.0743 122.949 48.0743 122.807 48.2081C122.665 48.2081 122.523 48.3446 122.238 48.3446C121.671 48.3446 121.385 48.0743 121.385 47.669V47.3987V47.1285L121.812 44.6963H120.816C120.96 44.8314 120.96 44.9665 120.96 45.1017V45.3719L120.674 47.3987C120.674 47.5338 120.674 47.669 120.674 47.8041C120.674 47.8041 120.674 47.9406 120.674 48.0743C120.674 48.3446 120.816 48.4797 120.959 48.6148C121.243 48.7499 121.527 48.8851 121.812 48.8851C122.38 48.8851 122.666 48.7499 122.949 48.4797L123.233 48.2095L123.091 48.7499H124.229C124.086 48.6148 124.086 48.4797 124.086 48.4797V48.2095L124.654 44.8314H123.659C123.802 44.8314 123.802 44.9665 123.802 45.1017Z" fill="#232020"/>
<path d="M106.317 44.6963C106.174 44.6963 105.89 44.6963 105.748 44.6963C104.895 44.6963 104.326 44.9665 103.757 45.3719C103.189 45.7773 103.046 46.4529 103.046 47.2636C103.046 47.669 103.189 48.0743 103.473 48.3446C103.757 48.6148 104.042 48.7499 104.468 48.7499C104.895 48.7499 105.321 48.6148 105.606 48.3446L105.89 48.0743L105.606 49.2904C105.606 49.6958 105.321 49.966 105.179 50.2349C104.895 50.5065 104.61 50.6417 104.326 50.6417C103.9 50.6417 103.615 50.3714 103.615 49.8296L102.904 50.3714C103.046 50.5065 103.189 50.6417 103.331 50.7768C103.331 50.7768 103.473 50.7768 103.473 50.9119C103.473 50.9119 103.615 50.9119 103.757 51.0484C103.9 51.0484 104.184 51.1835 104.326 51.1835C104.895 51.1835 105.321 51.0484 105.748 50.6444C106.174 50.2376 106.459 49.6985 106.459 49.1567L107.027 45.7786L107.17 45.3732L107.312 45.103H107.027L106.317 44.6963ZM106.174 45.6421L105.89 47.1285C105.89 47.3987 105.748 47.5338 105.748 47.669C105.748 47.8041 105.606 47.8041 105.464 47.9392C105.179 48.2081 104.895 48.3446 104.61 48.3446C104.326 48.3446 104.042 48.2081 103.9 48.0743C103.757 47.9392 103.615 47.5338 103.615 47.1285C103.615 46.5893 103.757 46.0475 104.184 45.6421C104.61 45.2368 104.895 44.9665 105.464 44.9665C105.89 44.9665 106.032 45.1017 106.032 45.5057L106.174 45.6421Z" fill="#232020"/>
<path d="M111.012 47.3974C111.012 47.3974 111.012 47.5321 111.012 47.3974C111.012 47.5321 111.012 47.5321 111.012 47.3974C111.154 47.5321 111.154 47.5321 111.154 47.3974H111.012L110.87 47.2627C110.87 47.2627 111.012 47.2627 111.012 47.3974Z" fill="#232020"/>
<path d="M120.394 42.3975H119.399C119.399 42.5339 119.399 42.5339 119.543 42.6677V42.8028V43.0731L118.688 47.9375C118.688 48.0726 118.546 48.2064 118.546 48.3428C118.546 48.478 118.404 48.4779 118.404 48.6131H119.541C119.541 48.4766 119.398 48.3428 119.398 48.3428V48.0726L120.394 42.3975Z" fill="#232020"/>
<path d="M175.277 25.6426C171.579 25.6426 167.884 25.6426 164.186 25.6426C163.048 25.6426 162.337 26.1831 162.053 27.264C161.627 29.6962 161.059 32.1284 160.631 34.5606C160.489 35.7767 160.775 36.1821 162.197 36.1821C164.045 36.1821 165.893 36.1821 167.599 36.1821C169.448 36.1821 171.296 36.1821 173.144 36.1821C174.282 36.1821 174.993 35.7767 175.277 34.6944C175.704 32.2622 176.13 29.6949 176.555 27.2627C176.983 26.0479 176.557 25.6426 175.277 25.6426ZM175.846 27.1289C175.419 29.426 174.993 31.8582 174.568 34.5606C174.424 35.1011 174.283 35.3714 173.429 35.3714C172.151 35.3714 170.87 35.3714 169.448 35.3714H167.742C167.174 35.3714 166.604 35.3714 166.037 35.3714C164.757 35.3714 163.476 35.3714 162.198 35.3714C161.772 35.3714 161.629 35.3714 161.629 35.2362C161.629 35.2362 161.629 35.1011 161.629 34.6957C161.773 33.6148 162.056 32.5338 162.198 31.4542C162.482 30.103 162.765 28.7517 162.909 27.4005C163.051 26.7249 163.336 26.4547 164.046 26.4547H165.61C168.738 26.4547 171.866 26.4547 174.996 26.4547C175.28 26.4547 175.563 26.4547 175.563 26.4547C175.846 26.7236 175.846 26.8587 175.846 27.1289Z" fill="#DCDCDC"/>
<path d="M179.963 23.8871C179.252 23.0764 177.973 22.5359 176.124 22.5359C172.712 22.4008 168.873 22.4008 164.182 22.5359C161.055 22.5359 158.922 23.8871 158.494 26.1842C157.784 29.4271 157.216 32.6701 156.79 35.5076C156.505 37.1291 157.501 38.6154 159.349 39.1559C160.202 39.4248 161.055 39.5613 161.766 39.5613C163.044 39.5613 164.466 39.5613 165.747 39.5613C166.884 39.5613 168.022 39.5613 169.158 39.5613C169.726 39.5613 170.297 39.5613 171.008 39.5613C171.718 39.5613 172.571 39.5613 173.282 39.5613C176.695 39.5613 178.827 37.8047 179.396 34.9671C179.965 32.1296 180.391 29.9676 180.676 27.8057C180.959 26.0491 180.674 24.833 179.963 23.8871ZM179.821 27.6705C179.395 30.1027 178.968 32.3998 178.543 34.832C178.115 37.3993 176.267 38.6154 173.281 38.7505C171.29 38.7505 169.442 38.7505 167.452 38.7505C165.602 38.7505 163.754 38.7505 161.907 38.7505C161.196 38.7505 160.343 38.6154 159.632 38.3452C158.352 37.9398 157.499 36.9939 157.782 35.6427C158.21 32.5349 158.777 29.4271 159.488 26.4544C159.915 24.5627 161.765 23.4818 164.322 23.4818C168.303 23.4818 172.284 23.3466 176.264 23.4818C179.11 23.4818 180.248 24.833 179.821 27.6705Z" fill="#DCDCDC"/>
<path d="M154.943 22.5361H154.09C152.668 22.5361 151.246 22.5361 149.824 22.5361C146.554 22.5361 143.142 22.5361 139.73 22.5361C136.031 22.6713 134.042 24.563 133.758 28.2113C133.614 30.2381 134.611 31.5893 136.602 32.1298C137.313 32.2649 138.166 32.4 139.019 32.4C141.151 32.4 143.284 32.4 145.417 32.4C146.27 32.4 146.981 32.4 147.832 32.4C148.117 32.4 149.112 32.4 149.398 32.5352C149.398 32.8054 149.254 33.7513 149.254 34.0215C149.112 34.6971 148.971 34.9673 148.828 35.1038C148.687 35.2376 148.26 35.2376 147.549 35.2376C144.989 35.2376 142.289 35.2376 139.73 35.2376C138.591 35.2376 137.597 35.2376 136.458 35.2376H133.047L132.336 38.8859L132.194 39.2913C133.049 39.2913 133.616 39.2913 133.759 39.2913C135.038 39.2913 136.459 39.2913 137.74 39.2913C139.304 39.2913 140.868 39.2913 142.432 39.2913C144.281 39.2913 146.13 39.2913 147.977 39.2913C151.388 39.1561 153.38 37.5347 153.949 34.2917C153.949 34.1566 153.949 34.0215 153.949 33.8864C153.949 33.7513 153.949 33.6161 154.091 33.481C154.375 31.8595 154.233 30.6434 153.38 29.8327C152.669 29.022 151.532 28.4815 149.968 28.4815C147.549 28.4815 145.132 28.4815 142.715 28.4815C141.72 28.4815 140.867 28.4815 139.872 28.4815C138.876 28.4815 138.734 28.3464 138.734 28.3464C138.734 28.3464 138.591 28.0761 138.876 27.2654C139.02 26.86 139.161 26.7249 140.156 26.7249C143.142 26.7249 146.128 26.7249 149.113 26.7249H151.957C152.952 26.7249 153.947 26.7249 154.516 26.1844C155.085 25.6439 155.085 24.6981 154.943 23.6171V22.5361ZM151.957 25.6439C147.976 25.6439 144.137 25.6439 140.156 25.6439C139.161 25.6439 138.308 25.7791 137.88 26.86C137.313 28.6166 137.738 29.2922 139.73 29.2922C143.14 29.2922 146.554 29.2922 149.824 29.4274C152.526 29.5625 153.521 30.9137 153.094 33.481C153.094 33.7513 152.952 34.0201 152.952 34.2917C152.526 37.1306 150.962 38.4819 147.976 38.6156C147.692 38.6156 147.549 38.6156 147.265 38.6156C146.554 38.6156 145.843 38.6156 145.274 38.6156C142.857 38.6156 140.014 38.6156 137.598 38.6156C135.181 38.6156 133.333 38.6156 133.189 38.6156C133.333 37.94 133.474 37.1293 133.616 36.3186H136.317C140.014 36.3186 143.711 36.3186 147.407 36.3186C149.113 36.3186 149.683 35.9132 149.966 34.2917C150.394 31.8595 150.251 31.5893 147.551 31.5893C144.707 31.5893 141.72 31.5893 138.736 31.5893C138.025 31.5893 137.314 31.4542 136.603 31.3191C135.038 30.9137 134.327 29.8327 134.469 28.3464C134.753 25.2386 136.317 23.482 139.587 23.482C144.279 23.3469 149.113 23.482 153.949 23.482C154.232 25.5088 154.09 25.6439 151.957 25.6439Z" fill="#DCDCDC"/>
<path d="M88.9647 39.2912C90.9552 39.4264 92.8035 39.5615 94.794 39.5615C95.0784 39.5615 95.2205 39.5615 95.5049 39.5615H95.7892C97.3532 39.5615 99.3437 39.5615 101.334 39.2912C103.467 39.021 105.031 38.0751 105.457 36.4537C105.884 35.1025 106.026 33.8864 106.31 32.4C106.453 31.8595 106.595 31.1839 106.737 30.5083L107.021 29.4273H105.884C105.742 29.4273 104.604 29.4273 103.751 29.4273C103.609 29.4273 103.325 29.4273 103.04 29.5625C102.756 29.6976 102.472 29.6976 102.329 29.9678C101.903 30.3732 101.619 30.7786 101.619 31.5893C101.619 32.2649 101.476 32.9405 101.334 33.6161C101.334 33.8864 101.192 34.1566 101.192 34.4282C101.192 34.6971 101.05 35.2389 100.908 35.3727C100.765 35.5078 100.481 35.5078 99.9124 35.5078C96.9267 35.5078 93.9409 35.5078 91.0974 35.5078C90.6708 35.5078 90.5286 35.5078 90.5286 35.5078C90.5286 35.3714 90.5286 35.2376 90.5286 34.8322C90.9552 32.6703 91.3817 30.3732 91.8083 28.2113C91.9504 27.6708 92.0926 26.9952 92.2348 26.86C92.5191 26.7249 93.23 26.7249 93.7987 26.7249C96.2158 26.7249 98.775 26.7249 101.192 26.7249H104.462C105.742 26.7249 106.595 26.7249 107.163 26.1844C107.732 25.6439 107.732 24.9683 107.874 23.6171L108.017 22.5361C107.021 22.5361 106.453 22.5361 106.31 22.5361C105.315 22.5361 104.178 22.5361 103.183 22.5361C100.055 22.5361 96.7845 22.5361 93.6566 22.5361C92.377 22.5361 91.0974 22.9415 90.2443 23.2117C88.5382 23.7522 87.5429 24.9683 87.2586 26.7249C86.9742 28.6166 86.5477 30.5083 86.2633 32.4C86.1211 33.0756 85.9789 33.7512 85.8368 34.4269C85.5524 35.9132 85.6946 36.9928 86.4055 37.8049C86.4055 38.6156 87.4007 39.1561 88.9647 39.2912ZM86.2633 34.6971C86.6898 32.1311 87.2586 29.5625 87.6851 26.86C87.9694 25.5088 88.6803 24.4278 90.1021 24.0225C91.0974 23.7522 92.2348 23.3469 93.23 23.3469C97.4954 23.2117 101.619 23.3469 105.884 23.3469C106.026 23.3469 106.31 23.3469 106.453 23.3469C106.31 25.5088 106.31 25.5088 104.036 25.5088C100.481 25.5088 96.9267 25.5088 93.3722 25.5088C91.2395 25.5088 90.813 25.7791 90.3865 27.8059C89.9599 29.9678 89.5334 32.2649 89.1069 34.4269C88.8225 35.6416 89.1069 36.1834 90.5286 36.1834C93.5144 36.1834 96.5001 36.1834 99.3437 36.1834C100.908 36.1834 101.334 35.7781 101.619 34.2917C101.761 33.3459 102.045 32.2649 102.187 31.3191C102.187 30.3732 102.756 30.103 103.609 30.2381C104.178 30.2381 104.746 30.2381 105.457 30.2381C105.031 32.2649 104.746 34.1566 104.178 36.0483C103.751 37.536 102.329 38.0751 100.908 38.3454C99.0593 38.6156 97.3532 38.6156 95.5049 38.6156C93.23 38.6156 91.0974 38.6156 88.8225 38.3454C86.5477 38.0751 85.8368 36.9942 86.2633 34.6971Z" fill="#DCDCDC"/>
<path d="M60.9674 37.9405C61.8205 38.8863 63.2423 39.4268 65.2328 39.4268C66.9389 39.4268 68.5029 39.4268 70.209 39.4268C72.0573 39.4268 73.7635 39.4268 75.6118 39.4268H76.607C79.8771 39.4268 81.5833 38.0756 82.2942 34.9678C82.4363 34.5624 82.4363 34.022 82.5785 33.6166V33.3464C83.0051 30.9142 83.4316 28.482 83.8581 26.0511L84.569 22.4028H79.735L79.5928 23.0771C79.5928 23.2122 79.5928 23.3473 79.4506 23.4825C79.4506 23.7527 79.3084 24.0229 79.3084 24.2932L78.8819 26.1849C78.4554 28.7522 77.8866 31.5898 77.4601 34.1571C77.3179 35.1029 76.8914 35.1029 76.607 35.1029C73.0526 35.1029 69.356 35.1029 65.6593 35.1029C65.375 35.1029 65.2328 35.1029 65.2328 34.9665C65.2328 34.9665 65.2328 34.8313 65.2328 34.5611C65.5171 33.2099 65.8015 31.7235 66.0859 30.2372C66.3702 28.6157 66.6546 26.9943 66.9389 25.3728C67.0811 24.6972 67.2233 24.0216 67.3655 23.2109L67.5076 22.1299H62.5314L62.247 23.346C62.1049 24.427 61.8205 25.5079 61.6783 26.5889C61.2518 28.886 60.8253 31.3182 60.2565 33.6152C59.9722 35.6434 60.2565 36.9946 60.9674 37.9405ZM61.2518 34.1571C62.1049 30.779 62.5314 27.2659 63.1001 23.8878C63.1001 23.7527 63.1001 23.4825 63.2423 23.3473H66.228C65.8015 25.6444 65.375 27.9415 64.9484 30.3737C64.6641 31.86 64.3797 33.3464 64.0954 34.6976C63.9532 35.6434 64.3797 36.1853 65.375 36.1853C69.0716 36.1853 72.7682 36.1853 76.3227 36.1853C77.4601 36.1853 77.8866 35.3732 78.0288 34.4287C78.5975 31.0506 79.3084 27.8077 79.8771 24.5648C80.0193 24.1594 80.0193 23.754 80.1615 23.3487H83.1472C82.5785 26.7267 82.0098 29.9697 81.2989 33.2126C81.1567 33.7531 81.1567 34.2936 81.0146 34.6989C80.4459 37.4014 79.1663 38.4837 76.1805 38.4837C72.4839 38.4837 68.6451 38.4837 64.9484 38.4837C61.8205 38.481 60.6831 36.9946 61.2518 34.1571Z" fill="#DCDCDC"/>
<path d="M57.6933 33.2108L58.262 29.1571H45.7503L46.1769 26.5898H46.8878C47.883 26.5898 48.8783 26.5898 49.8735 26.5898C52.1484 26.5898 54.4232 26.5898 56.8402 26.5898C57.2668 26.5898 57.5511 26.5898 57.8355 26.5898C58.5464 26.5898 59.1151 26.5898 59.5416 26.3195C59.9682 25.9142 60.1103 25.5088 60.1103 24.6981C60.1103 24.4278 60.2525 24.0225 60.2525 23.6171L60.3947 22.5361H42.0537L38.9258 39.4264H43.902L45.0394 33.2108H57.6933ZM43.0489 38.4805H40.0632C41.0585 33.481 41.9115 28.3464 42.9068 23.3469H59.3994C58.9729 25.9142 59.5416 25.5088 56.9824 25.5088C53.7123 25.5088 50.4422 25.5088 47.1721 25.5088C46.7456 25.5088 46.319 25.5088 45.7503 25.5088C45.1816 27.1303 44.8973 28.4815 44.6129 30.103H57.1246C56.9824 30.9137 56.8402 31.5893 56.8402 32.4H44.1864C43.902 34.562 43.4755 36.4537 43.0489 38.4805Z" fill="#DCDCDC"/>
<path d="M105.039 39.4276H107.029C107.314 39.4276 108.735 39.4276 109.02 39.4276C110.299 39.4276 111.296 38.8885 112.148 37.8075C113.001 36.8617 113.854 35.7807 114.707 34.8349C115.133 34.4295 115.418 34.0228 115.844 33.6188L120.678 28.2139C120.678 28.2139 120.678 28.2139 120.678 28.349C121.105 29.1597 121.531 29.9705 121.958 30.7812C123.236 33.2134 124.374 35.6456 125.655 38.2129C125.939 38.6183 126.508 39.4276 127.218 39.5641C127.929 39.6992 128.64 39.6992 129.351 39.5641C129.636 39.5641 129.92 39.5641 130.206 39.5641H131.627L131.343 38.2129C131.343 38.0764 131.201 37.9427 131.201 37.9427C131.057 37.8062 131.057 37.6711 131.057 37.5359L129.92 35.5091C128.072 31.7257 126.081 27.9423 124.091 24.1589C123.664 23.213 122.811 22.5374 121.816 22.4023C120.82 22.2672 119.825 22.6725 119.114 23.6184C115.56 27.672 106.46 37.9413 106.318 38.0764L105.039 39.4276ZM107.74 37.8062C111.721 33.212 115.844 28.753 119.825 24.1575C120.963 22.9414 122.525 23.0765 123.236 24.5629C125.512 29.0219 127.786 33.4809 130.061 37.94C130.204 38.0751 130.204 38.3453 130.345 38.6156C129.35 38.6156 128.356 38.7507 127.501 38.6156C127.217 38.6156 126.791 38.2102 126.648 37.8048C124.942 34.5619 123.378 31.1839 121.672 27.9409C121.529 27.5356 121.246 27.1302 120.961 26.5897C118.971 28.7517 117.122 30.9136 115.274 33.0756C113.995 34.4268 112.857 35.9131 111.576 37.2643C110.865 38.0751 110.154 38.6156 109.159 38.6156H109.017C108.875 38.6156 107.737 38.6156 107.026 38.4804C107.314 38.2116 107.598 37.9413 107.74 37.8062Z" fill="#DCDCDC"/>
<path d="M55.9851 41.7245C56.1272 41.7245 56.1272 41.7245 56.2694 41.5894C56.4116 41.5894 56.5538 41.5894 56.5538 41.4529C56.6959 41.4529 56.8381 41.4529 56.8381 41.3178V41.1827C56.8381 40.9124 56.8381 40.776 56.8381 40.5071C56.8381 40.2368 56.8381 39.9666 56.8381 39.695C56.8381 39.4234 56.8381 39.1558 56.8381 38.7491C56.8381 38.4802 56.8381 38.21 56.8381 37.9384C56.8381 37.6668 56.8381 37.3979 56.8381 37.1277C56.8381 36.9912 56.8381 36.8574 56.8381 36.8574C56.8381 36.8574 56.8381 36.9925 56.6959 36.9925C56.5538 37.129 56.4116 37.3979 56.2694 37.6682C56.1272 37.806 55.9851 37.9411 55.8429 38.0762C55.7007 38.0762 55.5585 38.0762 55.5585 38.0762C55.2742 38.0762 55.132 37.9411 54.8476 37.8073C54.7055 37.6709 54.5633 37.5357 54.5633 37.4006C54.5633 37.4006 54.5633 37.4006 54.5633 37.2655C54.5633 37.1304 54.4211 37.1304 54.4211 36.9952C54.4211 36.9952 54.4211 36.8601 54.2789 36.8601C54.2789 36.9952 54.2789 36.9952 54.1367 37.1304C54.1367 37.2655 53.9946 37.3993 53.9946 37.5357C53.8524 37.6709 53.8524 37.806 53.7102 37.9411C53.568 38.0762 53.568 38.0762 53.4258 38.0762H53.2837C53.1415 38.0762 52.9993 38.0762 52.715 38.0762C52.4306 37.9411 52.2884 37.806 52.1462 37.806C51.8619 38.0762 51.7197 37.9411 51.5775 37.6709C51.2932 37.4006 51.151 37.2655 51.0088 36.9952C51.0088 36.9952 51.0088 36.8601 50.8666 36.8601C50.8666 36.9952 50.8666 36.9952 50.8666 37.1304C50.8666 37.2655 51.0088 37.5357 51.0088 37.6695C51.0088 38.0749 51.0088 38.3451 51.0088 38.7505C51.0088 38.887 51.0088 39.0207 50.8666 39.1572C50.7245 39.2923 50.5823 39.4274 50.4401 39.5626C50.2979 39.6977 50.0136 39.6977 49.8714 39.5626H49.7292H49.587C49.4449 39.5626 49.1605 39.4261 49.0183 39.4261H48.8761C48.8761 39.5626 49.0183 39.5626 49.0183 39.6977C49.0183 39.6977 49.0183 39.6977 49.0183 39.8342V39.9693C49.0183 39.9693 49.0183 39.9693 49.0183 40.1044V40.2382C49.0183 40.3733 49.1605 40.5084 49.0183 40.6435C49.0183 40.9138 48.8761 41.0489 48.734 41.184C48.5918 41.184 48.5918 41.3191 48.4496 41.3191C48.4496 41.3191 48.4496 41.3191 48.3074 41.3191C48.3074 41.3191 48.1653 41.3191 48.0231 41.3191C47.7387 41.3191 47.5965 41.3191 47.4544 41.3191C47.3122 41.3191 47.17 41.3191 47.0278 41.3191L47.4544 41.4543V41.5894L47.5965 41.7245L47.7387 41.8596L47.8809 41.9948L48.0231 42.1299L48.1653 42.265L48.3074 42.4001L48.4496 42.5352L48.8761 42.6704L49.0183 42.8055C49.1605 42.9406 49.1605 42.9406 49.3027 43.0757L49.4449 43.2109L49.587 43.346L49.7292 43.4811L49.8714 43.6162L50.0136 43.7513L50.1558 43.8865C50.2979 43.8865 50.2979 44.0216 50.4401 44.0216C50.5823 43.8865 50.7245 43.8865 50.8666 43.7513C51.0088 43.6162 51.151 43.6162 51.2932 43.4811C51.2932 43.4811 51.4354 43.4811 51.4354 43.346C51.5775 43.4811 51.7197 43.4811 51.7197 43.346C51.8619 43.346 52.0041 43.2109 52.1462 43.0757C52.2884 43.0757 52.4306 42.9406 52.4306 42.9406C52.5728 42.9406 52.5728 42.8041 52.715 42.8041H52.8571C52.9993 42.8041 53.1415 42.669 53.2837 42.669C53.4258 42.669 53.568 42.5339 53.7102 42.5339L53.8524 42.3974H53.9946C54.1367 42.3974 54.2789 42.2623 54.4211 42.2623H54.5633L54.8476 42.1258H54.9898H55.132H55.2742H55.4163H55.5585C55.5585 42.1258 55.5585 42.1258 55.7007 42.1258H55.8429C55.7007 41.7245 55.8429 41.7245 55.9851 41.7245ZM55.5585 40.9138H55.4163H55.2742L54.9898 41.0489H54.8476L54.2789 41.3191H54.1367C53.9946 41.3191 53.8524 41.4543 53.7102 41.4543L53.4258 41.5894C53.2837 41.5894 53.1415 41.7245 52.9993 41.7245C52.715 41.9948 52.5728 41.9948 52.4306 41.9948H52.2884C52.1462 41.9948 52.1462 42.1299 52.0041 42.1299C51.8619 42.1299 51.7197 42.265 51.7197 42.265C51.5775 42.4001 51.4354 42.4001 51.2932 42.5352C51.151 42.5352 51.0088 42.6704 51.0088 42.8041L50.8666 42.9406C50.7245 42.9406 50.7245 43.0757 50.5823 43.0757L50.4401 42.9406L50.0136 42.5352C49.8714 42.4001 49.8714 42.4001 49.7292 42.265L49.587 42.1299L49.4449 41.9948C49.587 41.9948 49.587 41.8596 49.7292 41.8596C50.0136 41.5894 50.2979 41.184 50.2979 40.7787C50.5823 40.7787 50.8666 40.7787 51.0088 40.6435C51.4354 40.5084 51.7197 40.2382 51.8619 39.8328C52.0041 39.6977 52.0041 39.4274 52.0041 39.2923C52.0041 39.2923 52.1462 39.2923 52.2884 39.2923C52.5728 39.4274 52.9993 39.4274 53.2837 39.4274C53.4258 39.4274 53.568 39.4274 53.7102 39.2923C53.8524 39.1572 54.1367 39.0221 54.2789 38.887C54.2789 38.887 54.2789 38.887 54.4211 38.7505C54.7055 39.0207 54.9898 39.0207 55.4163 39.1572C55.5585 39.1572 55.8429 39.1572 55.9851 39.0207C55.9851 39.291 55.9851 39.5612 55.9851 39.6963C55.9851 39.9666 55.9851 40.2368 55.9851 40.5084C55.9851 40.5084 55.9851 40.5084 55.9851 40.6435H55.8429L55.5585 40.9138Z" fill="#DCDCDC"/>
<path d="M78.0246 45.776C78.0246 45.6409 78.0246 45.5058 77.8824 45.1004C77.8824 44.9653 77.7403 44.8302 77.5981 44.695C77.4559 44.5599 77.3137 44.4248 77.3137 44.2897C76.8872 43.8843 76.3185 43.7492 75.6076 43.7492H69.9205H66.5082L66.7925 42.398L63.949 43.2101L63.8068 43.7492H60.2524L60.3945 43.0736H59.968H59.5415H56.6979H56.8401C56.9823 43.0736 56.9823 43.0736 57.1244 42.9385C57.2666 42.9385 57.4088 42.9385 57.551 42.802H57.6931L58.2619 42.6669C58.5462 42.6669 58.8306 42.3966 58.6884 42.1264V41.1819C58.6884 41.0454 58.6884 40.7752 58.6884 40.6414C58.6884 40.3711 58.6884 40.1009 58.6884 39.8307C58.6884 39.5604 58.6884 39.2902 58.6884 39.0186C58.6884 38.747 58.6884 38.4794 58.6884 38.2078C58.6884 37.9362 58.6884 37.8025 58.6884 37.5322C58.9727 37.262 59.1149 36.9917 59.1149 36.5864C59.1149 36.181 59.1149 35.6405 58.8306 35.3703C58.6884 35.1014 58.404 34.9649 58.1197 34.8311L57.4088 34.696H57.2666C56.9823 34.696 56.5557 34.8325 56.2714 34.9663C55.987 35.1027 55.8448 35.3716 55.7027 35.5068C55.4183 35.2365 54.9918 34.9663 54.5652 34.8311C54.423 34.8311 54.423 34.8311 54.2809 34.8311H53.9965C53.7122 34.8311 53.57 34.9663 53.2856 35.1014C52.8591 35.3703 52.5747 35.777 52.5747 36.1824C52.5747 36.3175 52.5747 36.4526 52.5747 36.4526C52.5747 36.3161 52.5747 36.3161 52.5747 36.1824C52.5747 35.9121 52.4326 35.6419 52.4326 35.5068L51.7217 34.8311C51.4373 34.5609 51.1529 34.4258 50.7264 34.4258C50.5842 34.4258 50.4421 34.4258 50.2999 34.4258C50.1577 34.4258 49.8733 34.4258 49.7312 34.5609L49.4468 34.8311L49.3046 34.9663C49.0203 35.2365 48.8781 35.5068 48.8781 35.777C48.8781 35.9121 48.8781 35.9121 48.8781 36.0459V36.1824C48.8781 36.3175 48.8781 36.4526 48.8781 36.4526V36.9931C49.0203 37.1296 49.0203 37.2633 49.1625 37.3985C49.1625 37.3985 49.1625 37.3985 49.0203 37.3985C48.8781 37.2633 48.7359 37.2633 48.4516 37.2633C48.025 37.1282 47.4563 37.2633 47.172 37.5336L47.0298 37.6687L46.8876 37.8038C46.6032 38.0741 46.4611 38.4794 46.4611 39.0199C46.4611 39.1564 46.4611 39.2902 46.4611 39.5604C46.1767 39.5604 46.0345 39.5604 45.7502 39.6955C45.3236 39.832 45.0393 40.1009 44.7549 40.3711L44.6128 40.236C44.6128 40.5063 44.4706 40.7752 44.6128 41.0468C44.6128 41.317 44.7549 41.5872 44.8971 41.7224C45.1815 42.1277 45.608 42.398 46.0345 42.398C46.1767 42.398 46.3189 42.398 46.4611 42.398L47.172 43.0736L47.3141 43.2087L47.4563 43.4789L47.7407 43.7492L47.8828 43.8843C48.025 43.8843 48.025 44.0194 48.1672 44.0194L49.589 45.2355C49.8733 45.5044 50.1577 45.6409 50.4421 45.6409C50.5842 45.6409 50.7264 45.6409 50.8686 45.5044C51.0108 45.5044 51.0108 45.3693 51.1529 45.3693L51.2951 45.2342C51.4373 45.1004 51.5795 45.1004 51.5795 44.9653C51.7217 44.8302 51.8638 44.8302 52.006 44.695L52.1482 44.5599C52.4326 44.695 52.4326 44.695 52.5747 44.695C52.7169 44.695 52.8591 44.5599 52.8591 44.5599C53.0013 44.5599 53.0013 44.4234 53.1434 44.4234C53.1434 44.4234 53.2856 44.4234 53.2856 44.2883H53.4278C53.57 44.2883 53.57 44.1519 53.7122 44.1519C53.8543 44.1519 53.9965 44.0167 54.1387 44.0167L54.423 43.8816C54.5652 43.8816 54.7074 43.7451 54.8496 43.7451L55.4183 44.5572V44.695L55.1339 48.0731L53.8543 49.5594H58.8306L57.8353 48.0731V47.2624L58.6884 48.6136C58.8306 48.7487 58.9727 48.8825 59.1149 49.0189C59.5415 49.2892 59.968 49.4243 60.5367 49.4243C60.8211 49.4243 61.1054 49.4243 61.2476 49.2892H63.949C64.0912 49.2892 64.2333 49.4243 64.5177 49.4243C64.9442 49.4243 65.3708 49.2892 65.7973 49.0189C66.2238 49.2892 66.6504 49.4243 67.2191 49.4243C67.5034 49.4243 67.7878 49.4243 67.93 49.2892H68.0722H71.2001H73.0484L72.4797 48.0731C72.6219 48.3433 72.764 48.4785 72.9062 48.7487C73.1906 49.0189 73.9015 49.4243 74.8967 49.4243C75.4654 49.4243 76.0341 49.4243 76.745 49.0189C77.0294 48.8825 77.3137 48.3433 77.7403 47.6677L77.8824 47.1272L78.309 45.9125L78.0246 46.1814C78.0246 46.1814 78.0246 45.9111 78.0246 45.776ZM55.5605 42.398H55.4183H55.2761H55.1339H54.9918C54.8496 42.398 54.8496 42.5344 54.7074 42.5344C54.7074 42.5344 54.7074 42.5344 54.5652 42.5344C54.423 42.5344 54.2809 42.6696 54.1387 42.6696H53.9965L53.8543 42.8047C53.7122 42.8047 53.57 42.9412 53.4278 42.9412C53.2856 42.9412 53.1434 43.0763 53.1434 43.0763H53.0013C52.8591 43.0763 52.8591 43.2128 52.7169 43.2128C52.5747 43.2128 52.5747 43.3479 52.4326 43.3479C52.2904 43.483 52.1482 43.483 52.006 43.483C51.8638 43.4789 51.8638 43.6141 51.7217 43.6141V44.1546C51.5795 44.2897 51.4373 44.2897 51.2951 44.4248C51.1529 44.5599 51.0108 44.5599 50.8686 44.695L50.7264 44.8302C50.7264 44.8302 50.7264 44.8302 50.5842 44.8302C50.5842 44.8302 50.5842 44.8302 50.4421 44.8302C50.4421 44.8302 50.1577 44.9666 50.0155 44.695H50.1577C50.1577 44.695 50.0155 44.695 50.0155 44.5599C49.8733 44.5599 49.8733 44.4234 49.7312 44.4234L49.589 44.2883L49.4468 44.1546L49.3046 44.0194L49.1625 43.8843L49.0203 43.7492L48.8781 43.4789C48.7359 43.4789 48.7359 43.3438 48.5937 43.3438L48.4516 43.2087L48.3094 43.0736L48.1672 42.9385L48.025 42.8033L47.8828 42.6682L47.7407 42.5331L47.4563 42.2629L47.3141 42.1277L47.172 41.9926L47.0298 41.8575L46.7454 41.5872C46.6032 41.5872 46.4611 41.7224 46.3189 41.5872C46.0345 41.5872 45.8924 41.4508 45.7502 41.1819C45.608 41.0468 45.608 40.9116 45.608 40.7765C45.608 40.6414 45.608 40.5076 45.7502 40.2374C45.8924 40.1009 46.0345 39.9658 46.1767 39.8307C46.4611 39.6942 46.7454 39.8307 46.8876 39.9658C47.0298 40.1009 47.172 40.236 47.172 40.3711C47.3141 40.3711 47.5985 40.3711 47.7407 40.5076C47.8828 40.5076 48.025 40.5076 48.3094 40.5076C48.3094 40.5076 48.3094 40.5076 48.4516 40.5076C48.4516 40.5076 48.5937 40.5076 48.5937 40.3711L48.7359 40.236C48.7359 40.236 48.7359 40.0995 48.7359 39.9658V39.8307C48.7359 39.8307 48.7359 39.8307 48.7359 39.6942C48.7359 39.6942 48.7359 39.6942 48.7359 39.5591C48.7359 39.5591 48.7359 39.4226 48.5937 39.4226C48.5937 39.4226 48.5937 39.2875 48.4516 39.2875C48.3094 39.2875 48.3094 39.2875 48.1672 39.2875C48.025 39.2875 47.8828 39.1523 47.7407 39.0172C47.5985 38.8848 47.4563 38.6146 47.4563 38.4794C47.4563 38.2092 47.5985 37.939 47.8828 37.8038C47.8828 37.939 48.1672 37.939 48.3094 37.939C48.4516 37.939 48.4516 37.939 48.5937 38.0741C48.7359 38.0741 48.7359 38.2105 48.7359 38.2105C48.7359 38.3457 48.8781 38.3457 48.8781 38.4808C48.8781 38.6159 49.0203 38.7497 49.0203 38.8862C49.1625 39.0213 49.1625 39.0213 49.3046 39.0213C49.4468 39.0213 49.589 39.1578 49.7312 39.1578H49.8733H50.0155C50.1577 39.1578 50.1577 39.1578 50.2999 39.1578C50.2999 39.1578 50.4421 39.1578 50.4421 39.0213C50.4421 38.8862 50.4421 38.8862 50.4421 38.751C50.4421 38.4821 50.4421 38.2119 50.4421 37.8065C50.4421 37.6701 50.4421 37.3998 50.2999 37.266C50.2999 37.1309 50.2999 37.1309 50.1577 36.9958C50.1577 36.9958 50.1577 36.9958 50.1577 36.8607C50.0155 36.8607 49.8733 36.7242 49.8733 36.7242C49.7312 36.5877 49.589 36.4526 49.589 36.3175C49.589 36.1824 49.589 36.0472 49.589 35.9121C49.589 35.777 49.7312 35.6419 49.8733 35.5068L50.0155 35.3716C50.0155 35.3716 50.0155 35.3716 50.1577 35.3716C50.2999 35.2365 50.4421 35.2365 50.5842 35.2365C50.8686 35.2365 51.0108 35.3716 51.1529 35.6419C51.2951 35.7784 51.2951 36.0472 51.2951 36.3175C51.2951 36.454 51.2951 36.454 51.2951 36.454C51.2951 36.5877 51.4373 36.5877 51.4373 36.7229C51.5795 36.858 51.7217 37.1282 52.006 37.2633C52.1482 37.3985 52.2904 37.5336 52.4326 37.6687C52.5747 37.8038 52.7169 37.939 52.7169 37.939H52.8591H53.0013C53.1434 37.8038 53.1434 37.8038 53.1434 37.6687C53.1434 37.5336 53.2856 37.3985 53.2856 37.2633C53.2856 37.1282 53.2856 37.1282 53.2856 36.9931C53.1434 36.9931 53.1434 36.858 53.0013 36.7229C53.0013 36.5877 52.8591 36.5877 52.8591 36.4526C52.8591 36.3161 52.8591 36.1824 52.8591 36.1824C52.8591 35.9121 53.0013 35.777 53.2856 35.6419C53.4278 35.5068 53.7122 35.5068 53.8543 35.5068C54.1387 35.5068 54.2809 35.6419 54.423 35.777C54.5652 35.9121 54.5652 36.0472 54.5652 36.1824C54.5652 36.3175 54.5652 36.4526 54.423 36.5877C54.423 36.7229 54.2809 36.7229 54.2809 36.858C54.2809 36.9931 54.2809 36.9931 54.423 37.1282C54.423 37.1282 54.423 37.2633 54.5652 37.2633C54.5652 37.2633 54.5652 37.2633 54.5652 37.3985C54.5652 37.5349 54.7074 37.5349 54.7074 37.6687C54.8496 37.8052 54.8496 37.8052 54.9918 37.8052C54.9918 37.8052 54.9918 37.8052 55.1339 37.8052C55.2761 37.8052 55.2761 37.6687 55.4183 37.5349C55.5605 37.2647 55.7026 37.1296 55.8448 36.9944C55.8448 36.9944 55.8448 36.8593 55.987 36.8593C55.987 36.8593 55.987 36.8593 55.987 36.7229L55.8448 36.5877C55.7026 36.3175 55.7026 36.0472 55.987 35.777C55.987 35.6405 56.1292 35.6405 56.2714 35.5068C56.4135 35.3703 56.5557 35.3703 56.6979 35.3703C56.9823 35.3703 57.2666 35.5068 57.4088 35.777C57.551 35.9121 57.551 36.1824 57.551 36.4526C57.551 36.5877 57.4088 36.7215 57.2666 36.858C57.1244 36.858 57.1244 36.9931 56.9823 36.9931V37.1282C56.9823 37.2633 56.9823 37.2633 56.9823 37.3971C56.9823 37.6674 56.9823 37.9376 56.9823 38.2092C56.9823 38.4808 56.9823 38.7483 56.9823 39.0199C56.9823 39.2915 56.9823 39.5604 56.9823 39.832C56.9823 40.1009 56.9823 40.3711 56.9823 40.6427C56.9823 40.9143 56.9823 41.0481 56.9823 41.3183C56.9823 41.4535 56.9823 41.4535 56.9823 41.5886V41.7237V41.9926H57.2666H57.1244C56.9823 41.9926 56.8401 41.9926 56.6979 42.1277C56.5557 42.1277 56.4135 42.1277 56.4135 42.2642H56.2714C56.2714 42.2642 56.2714 42.2642 56.1292 42.2642H55.987H55.8448C55.8448 42.2642 55.8448 42.2642 55.7027 42.2642C55.7027 42.2642 55.7026 42.2642 55.5605 42.2642V42.398ZM59.1149 44.8302C58.9727 44.695 58.8306 44.5599 58.6884 44.4248C58.5462 44.2897 58.2619 44.2897 57.9775 44.2897H57.2666L57.1244 45.9111H57.6931H58.1197L58.404 45.7747C58.5462 45.7747 58.5462 45.6395 58.6884 45.6395L58.8306 45.5058L58.6884 46.5868C58.5462 46.4503 58.5462 46.3165 58.404 46.3165C58.2619 46.3165 58.1197 46.18 57.8353 46.18H57.2666L57.1244 47.8015V47.938C57.1244 48.0731 57.1244 48.2069 57.1244 48.2069L57.2666 48.4771H55.987L56.1292 48.2069C56.1292 48.0717 56.2714 47.938 56.2714 47.8015L56.5557 44.4234V44.2883C56.5557 44.1519 56.5557 44.1519 56.5557 44.0181C56.5557 43.8843 56.4135 43.883 56.4135 43.7478H59.3993L59.1149 44.8302ZM63.0959 48.6136H62.1007L62.2428 48.0731L61.9585 48.3433C61.6741 48.6136 61.2476 48.7487 60.8211 48.7487C60.3945 48.7487 60.1102 48.6136 59.968 48.4785C59.6836 48.3433 59.6836 48.0731 59.6836 47.9393C59.6836 47.8028 59.6836 47.8028 59.6836 47.6691C59.6836 47.6691 59.6836 47.5326 59.6836 47.2637L59.968 45.2369V44.9666C59.968 44.8302 59.968 44.6964 59.8258 44.5613H60.8211L60.3945 46.9935V47.2637V47.5326C60.3945 47.9393 60.6789 48.2082 61.2476 48.2082C61.3898 48.2082 61.6741 48.2082 61.8163 48.0731C61.9585 48.0731 62.1007 47.938 62.2428 47.8028C62.385 47.6677 62.385 47.6677 62.385 47.5326C62.385 47.3975 62.5272 47.2637 62.5272 47.1272L62.8116 45.2369V44.9666C62.8116 44.8302 62.8116 44.6964 62.6694 44.5613H63.6646L63.0959 47.938V48.2082C62.9537 48.3433 62.9537 48.4785 63.0959 48.6136ZM65.9395 45.1004H65.2286L64.8021 47.8028V48.0731C64.8021 48.2082 64.9442 48.3433 65.0864 48.3433C65.2286 48.3433 65.3708 48.2069 65.6551 48.0731L65.5129 48.6136C65.2286 48.7487 64.9442 48.8838 64.6599 48.8838C64.3755 48.8838 64.2333 48.8838 64.0912 48.7487C63.949 48.6136 63.949 48.4785 63.949 48.3433V47.8028L64.3755 45.2369H63.949L64.0912 44.8302H64.5177L64.6599 44.0194L65.5129 43.7492L65.3708 44.695H66.2238L65.9395 45.1004ZM69.7783 48.6136H68.783L68.9252 48.0731L68.6409 48.3433C68.3565 48.6136 67.93 48.7487 67.3613 48.7487C66.9347 48.7487 66.6504 48.6136 66.5082 48.4785C66.2238 48.3433 66.2238 48.0731 66.2238 47.9393C66.2238 47.8028 66.2238 47.8028 66.2238 47.6691C66.2238 47.6691 66.2238 47.5326 66.2238 47.2637L66.5082 45.2369V44.9666C66.5082 44.8302 66.5082 44.6964 66.366 44.5613H67.3613L66.9347 46.9935V47.2637V47.5326C66.9347 47.9393 67.2191 48.2082 67.7878 48.2082C67.93 48.2082 68.2143 48.2082 68.3565 48.0731C68.4987 48.0731 68.6409 47.938 68.783 47.8028C68.9252 47.6677 68.9252 47.6677 68.9252 47.5326C68.9252 47.3975 69.0674 47.2637 69.0674 47.1272L69.3518 45.2369V44.9666C69.3518 44.8302 69.3518 44.6964 69.2096 44.5613H70.2048L69.6361 47.9393V48.2082C69.6361 48.3433 69.6361 48.4785 69.7783 48.6136ZM72.6219 45.2355C72.3375 45.2355 72.1953 45.3707 72.0531 45.5044C71.911 45.6409 71.7688 45.9111 71.7688 46.18L71.4844 48.0717V48.342V48.4771L71.6266 48.6136H70.4892C70.6314 48.4771 70.6314 48.3433 70.6314 48.3433C70.6314 48.2069 70.6314 48.2069 70.7735 47.938L71.2001 45.2355V44.9653C71.2001 44.8288 71.2001 44.695 71.0579 44.5599H72.0531L71.911 45.1004L72.1953 44.8302L72.4797 44.695L72.764 44.5599C72.9062 44.5599 73.0484 44.5599 73.1906 44.5599L73.0484 45.6409C72.9062 45.5044 72.9062 45.3707 72.764 45.3707C72.9062 45.2355 72.764 45.2355 72.6219 45.2355ZM77.1716 46.1814H74.1858L74.0436 46.7219V47.1272C74.0436 47.9393 74.4702 48.3433 75.1811 48.3433C75.4654 48.3433 75.892 48.2069 76.1763 48.0731L76.4607 47.938C76.6028 47.938 76.6028 47.8015 76.745 47.6677L76.4607 48.3433L76.1763 48.4785C75.7498 48.7487 75.3232 48.8838 74.8967 48.8838C74.328 48.8838 73.9015 48.7487 73.6171 48.4785C73.3327 48.2082 73.1906 47.8028 73.1906 47.2637C73.1906 46.5881 73.4749 46.0476 73.9015 45.5058C74.328 44.9666 74.8967 44.8302 75.6076 44.8302C76.0341 44.8302 76.4607 44.9666 76.745 45.2369C77.0294 45.5058 77.1716 45.776 77.1716 46.1814Z" fill="#DCDCDC"/>
<path d="M75.4627 44.9668C75.1784 44.9668 74.894 45.1019 74.6096 45.237C74.4675 45.3722 74.4675 45.3722 74.3253 45.5073L74.1831 45.9127H76.0314C76.1736 45.9127 76.1736 45.9127 76.1736 45.7762C76.1736 45.7762 76.3158 45.6411 76.3158 45.5059C76.3158 45.3708 76.1736 45.1006 76.0314 45.1006C76.0314 44.9668 75.7471 44.9668 75.4627 44.9668Z" fill="#DCDCDC"/>
<path d="M87.6941 44.8301C87.2676 44.8301 86.8411 45.1003 86.4145 45.5057C86.1302 45.9111 85.8458 46.4515 85.8458 46.992C85.8458 47.3974 85.988 47.6676 86.1302 47.9379C86.2724 48.2068 86.5567 48.2068 86.8411 48.2068C87.1254 48.2068 87.4098 48.0716 87.6941 47.8014C87.8363 47.6663 87.8363 47.5312 87.8363 47.5312C87.8363 47.396 87.9785 47.2623 87.9785 46.992L88.2629 45.5043V45.2354C88.2629 44.9652 88.1207 44.8301 87.6941 44.8301Z" fill="#DCDCDC"/>
<path d="M105.604 44.8301C105.177 44.8301 104.751 45.1003 104.324 45.5057C103.898 45.9124 103.755 46.4515 103.755 46.9934C103.755 47.3987 103.898 47.669 104.04 47.9392C104.182 48.2081 104.466 48.2081 104.751 48.2081C105.035 48.2081 105.319 48.073 105.604 47.8028C105.746 47.6676 105.746 47.5325 105.888 47.5325C105.888 47.3974 105.888 47.2636 106.03 46.9934L106.315 45.5057V45.2354C106.172 44.9652 106.03 44.8301 105.604 44.8301Z" fill="#DCDCDC"/>
<path d="M106.601 43.7497C106.317 43.7497 106.032 43.6146 105.89 43.6146C104.895 43.6146 104.042 43.8849 103.331 44.5605C103.189 44.2902 103.047 44.1538 102.762 44.02C102.336 43.7497 101.909 43.6146 101.341 43.6146C101.056 43.6146 100.914 43.6146 100.63 43.7497H99.3501C99.3501 43.6146 99.3501 43.4795 99.3501 43.3444C99.3501 42.939 99.2079 42.6688 98.9236 42.3985C98.6392 42.1283 98.3549 41.9932 97.9283 41.9932C97.5018 41.9932 97.2174 42.1283 96.9331 42.3985C96.6487 42.6688 96.5065 43.0741 96.5065 43.3444C96.5065 43.4795 96.5065 43.6146 96.5065 43.7497H95.5113C95.3691 43.7497 95.0848 43.6146 94.8004 43.6146C94.3739 43.6146 93.8052 43.7497 93.3786 43.8849C93.2364 43.7497 93.0943 43.7497 92.9521 43.7497C92.5255 43.6146 91.9568 43.6146 91.3881 43.7497H88.6867H88.5446C88.2602 43.7497 87.9758 43.7497 87.8337 43.7497C86.8384 43.7497 85.8432 44.02 85.2745 44.6956C85.2745 44.6956 85.2745 44.6956 85.1323 44.8307L85.2745 42.9404L83.9949 43.0755L83.284 42.9404H82.8574C81.8622 42.9404 81.0091 43.3457 80.2982 44.0213C79.5873 44.697 79.303 45.6428 79.303 46.5887C79.303 47.5332 79.5873 48.2088 80.156 48.7506C80.7248 49.2924 81.4357 49.5613 82.4309 49.5613C82.7153 49.5613 82.9996 49.5613 83.284 49.5613C83.5683 49.5613 83.8527 49.4262 84.137 49.4262L85.1323 49.156C85.5588 49.5613 85.9854 49.6965 86.5541 49.6965C86.6962 49.6965 86.8384 49.6965 87.1228 49.6965H87.265H88.118H92.2412H95.0848H96.5065H99.4923H102.62L101.483 50.2356L102.051 50.9112C102.336 51.1815 102.478 51.3179 102.62 51.4517C102.762 51.4517 102.905 51.5868 102.905 51.5868C103.047 51.5868 103.189 51.7233 103.189 51.7233C103.473 51.8584 103.758 51.8584 104.042 51.8584C104.895 51.8584 105.606 51.5882 106.175 51.0477C106.743 50.5072 107.028 49.8316 107.17 49.0209L107.739 45.6428V45.3726L108.45 44.1565L107.17 43.8849L106.601 43.7497ZM84.2792 46.4522C84.2792 46.5887 84.2792 46.7224 84.137 46.7224L83.9949 48.0736V48.2088C83.9949 48.3452 83.9949 48.3452 83.9949 48.479L83.7105 48.6141C83.4261 48.7493 83.1418 48.7493 82.8574 48.7493C82.5731 48.7493 82.2887 48.7493 82.1465 48.7493C81.4357 48.7493 81.0091 48.6141 80.5826 48.2088C80.156 47.8034 80.0139 47.2629 80.0139 46.5873C80.0139 45.7752 80.2982 45.2361 80.7248 44.6956C81.2935 44.1551 81.8622 43.8849 82.5731 43.8849H82.9996H83.284L83.7105 44.02H83.8527H84.137V45.101C84.137 44.9658 83.9949 44.8307 83.8527 44.8307C83.8527 44.6956 83.7105 44.6956 83.7105 44.6956C83.4261 44.5605 83.1418 44.4254 82.7153 44.4254C82.1465 44.4254 81.72 44.6956 81.4357 45.101C81.1513 45.5063 80.8669 46.1819 80.8669 46.8576C80.8669 47.398 81.0091 47.8034 81.2935 48.2088C81.5778 48.6141 81.8622 48.7493 82.2887 48.7493C82.4309 48.7493 82.5731 48.7493 82.7153 48.7493C82.8574 48.7493 82.9996 48.6141 83.1418 48.6141L83.284 47.1264V46.9913C83.284 46.8548 83.284 46.7211 83.284 46.7211L83.1418 46.4508H84.4214C84.4214 46.1819 84.2792 46.3171 84.2792 46.4522ZM89.2555 44.9658C89.2555 44.9658 89.2554 45.101 89.1133 45.101L88.9711 45.5063L88.5446 48.2088V48.479V48.6141H87.6915V48.3439C87.6915 48.2074 87.6915 48.2074 87.6915 48.0736L87.5493 48.2088L87.4071 48.3439C87.265 48.479 87.1228 48.6141 86.8384 48.6141C86.6962 48.6141 86.6962 48.6141 86.5541 48.7493C86.4119 48.7493 86.4119 48.7493 86.2697 48.7493C85.8432 48.7493 85.5588 48.6141 85.2745 48.3439C84.9901 48.0737 84.8479 47.6683 84.8479 47.2629C84.8479 46.5873 85.1323 45.9117 85.5588 45.3712C86.1275 44.8307 86.6962 44.6956 87.5493 44.6956C87.6915 44.6956 87.9758 44.6956 88.118 44.6956L88.6867 44.8307L89.2555 44.9658C89.2555 44.9658 89.2555 44.8307 89.2555 44.9658ZM96.08 45.9117L95.7956 48.0736V48.3439C95.7956 48.479 95.7956 48.6141 95.9378 48.7493H94.8004L94.9426 48.0736L95.0848 47.5332L95.3691 46.1819V45.7766C95.3691 45.6415 95.3691 45.3712 95.2269 45.2374C95.0848 45.101 94.9426 45.101 94.6582 45.101C94.3739 45.101 94.0895 45.2374 93.8051 45.3712C93.5208 45.5063 93.5208 45.7766 93.3786 46.1819L93.0943 48.2088V48.479V48.6141L93.2364 48.7493H92.2412L92.5255 47.6683L92.8099 46.3171V45.7766C92.8099 45.3712 92.5255 45.101 92.099 45.101C91.8147 45.101 91.5303 45.2374 91.2459 45.3712C91.1038 45.5063 91.1038 45.5063 90.9616 45.6415C90.9616 45.7766 90.8194 45.9117 90.8194 46.0468L90.5351 48.0736V48.3439V48.479L90.6772 48.6155H89.5398C89.5398 48.6155 89.5398 48.479 89.682 48.479L89.8242 48.3439C89.8242 48.3439 89.8242 48.2074 89.9663 48.0736L90.3929 45.3712V45.101C90.3929 44.9658 90.3929 44.9658 90.2507 44.6956H91.2459L91.1038 45.101L91.3881 44.8307C91.6725 44.6956 92.099 44.5618 92.5255 44.5618C92.6677 44.5618 92.8099 44.5618 93.0943 44.697C93.2364 44.697 93.3786 44.8321 93.3786 44.8321C93.5208 44.9685 93.5208 44.9685 93.663 45.2388L93.9473 44.9685C94.3739 44.6983 94.6582 44.5632 95.2269 44.5632C95.5113 44.5632 95.7956 44.6983 96.08 44.8321C96.3644 44.9685 96.3644 45.1023 96.3644 45.3726L96.08 45.9117ZM97.644 48.6141H96.5065C96.6487 48.4777 96.7909 48.2074 96.7909 47.9385L97.2174 45.2361V44.9658V44.8307C97.2174 44.8307 97.2174 44.6956 97.0753 44.6956H98.0705L97.5018 48.0736V48.3439C97.5018 48.479 97.644 48.479 97.644 48.6141ZM97.9283 43.8849C97.7861 43.8849 97.644 43.8849 97.644 43.7484C97.5018 43.6133 97.5018 43.6133 97.5018 43.4782C97.5018 43.343 97.5018 43.2093 97.644 43.0728C97.7861 42.9377 97.9283 42.9377 98.0705 42.9377C98.2127 42.9377 98.3549 42.9377 98.3549 43.0728C98.497 43.2093 98.497 43.2093 98.497 43.4782C98.497 43.6146 98.497 43.7484 98.3549 43.8849L98.2127 44.02C98.0705 43.8849 98.0705 43.8849 97.9283 43.8849ZM102.478 45.9117L102.051 48.0736V48.3439C102.051 48.479 102.051 48.479 102.051 48.479L102.194 48.6155H101.198L101.341 48.075C101.341 47.8048 101.483 47.6696 101.483 47.3994L101.767 46.0482V45.6428C101.767 45.2374 101.483 44.9672 101.056 44.9672H100.772H100.488L100.203 45.1023L100.061 45.2361C99.9188 45.3712 99.9188 45.3712 99.7766 45.505C99.7766 45.6415 99.6345 45.7752 99.6345 46.0455L99.3501 47.9372V48.2088C99.3501 48.2088 99.3501 48.3452 99.4923 48.479H98.3549C98.497 48.3439 98.497 48.2088 98.497 48.2088C98.497 48.2088 98.497 48.0736 98.6392 47.8034L99.0657 45.101V44.8307C99.0657 44.6956 99.0657 44.5618 98.9236 44.4254H99.9188L99.7766 44.8307L100.061 44.6956C100.345 44.4254 100.772 44.2902 101.198 44.2902C101.625 44.2902 101.909 44.4254 102.051 44.5605C102.194 44.6956 102.336 44.9658 102.336 45.0996L102.478 45.9117ZM107.028 45.101L106.886 45.5063L106.317 48.8844C106.175 49.56 106.032 49.9667 105.606 50.3721C105.179 50.7774 104.753 50.9112 104.184 50.9112C104.042 50.9112 103.758 50.9112 103.615 50.7761C103.473 50.7761 103.473 50.7761 103.331 50.641C103.331 50.641 103.189 50.641 103.189 50.5045C103.047 50.5045 103.047 50.3694 102.762 50.0991L103.473 49.5586C103.473 50.0991 103.758 50.3707 104.184 50.3707C104.469 50.3707 104.753 50.2343 105.037 49.9654C105.322 49.6951 105.464 49.4249 105.464 49.0195L105.748 47.8034L105.464 48.0736C105.179 48.3439 104.753 48.479 104.326 48.479C103.9 48.479 103.615 48.3439 103.331 48.0736C103.047 47.8034 102.905 47.398 102.905 46.9927C102.905 46.1806 103.189 45.6415 103.615 45.101C104.042 44.5618 104.753 44.4254 105.606 44.4254C105.748 44.4254 106.032 44.4254 106.175 44.4254L106.743 44.5618H107.028V45.101Z" fill="#DCDCDC"/>
<path d="M116.271 44.8301C115.843 44.8301 115.416 45.1003 115.132 45.5057C114.849 45.9111 114.707 46.4515 114.707 46.992V47.2623C114.707 47.6676 114.85 47.9379 115.133 48.2068C115.277 48.477 115.561 48.477 115.844 48.477C116.272 48.477 116.699 48.3419 116.983 47.9379C117.266 47.5312 117.409 46.992 117.409 46.4502C117.409 45.9111 117.266 45.6395 117.125 45.3692C116.839 44.9652 116.555 44.8301 116.271 44.8301Z" fill="#DCDCDC"/>
<path d="M131.63 44.8301C131.204 44.8301 130.776 45.1003 130.493 45.5057C130.209 45.9111 130.066 46.4515 130.066 46.992V47.2623C130.066 47.6676 130.21 47.9379 130.494 48.2068C130.637 48.477 130.921 48.477 131.205 48.477C131.632 48.477 132.058 48.3419 132.343 47.9379C132.626 47.5325 132.768 46.992 132.768 46.4515C132.768 45.9124 132.626 45.6408 132.483 45.3706C132.199 44.9652 131.915 44.8301 131.63 44.8301Z" fill="#DCDCDC"/>
<path d="M141.72 44.0211C141.577 44.0211 141.435 43.8859 141.293 43.8859C141.151 43.8859 141.151 43.8859 141.009 43.7495C140.867 43.7495 140.724 43.7495 140.582 43.7495H140.44C139.729 43.7495 139.16 43.8859 138.59 44.29C138.59 44.29 138.448 44.29 138.448 44.4251C138.306 44.29 138.164 44.1548 138.164 44.1548C137.737 43.8859 137.311 43.7495 136.742 43.7495C136.6 43.7495 135.32 43.7495 133.045 43.8859L133.188 44.1548C132.761 43.8859 132.192 43.7495 131.624 43.7495C131.197 43.7495 130.769 43.8859 130.344 44.0197C130.06 44.1548 129.777 44.29 129.633 44.4251V44.29C129.919 43.8859 129.919 43.6157 129.919 43.3455C129.919 42.9401 129.777 42.6698 129.492 42.3996C129.208 42.1294 128.924 41.9942 128.497 41.9942C128.071 41.9942 127.786 42.1294 127.502 42.3996C127.502 42.3996 127.502 42.3996 127.36 42.5361L124.943 43.2117L124.8 43.7508H121.104L121.53 41.5889H118.118L118.687 42.805C118.687 42.805 118.687 42.805 118.687 42.9414V43.0766L118.402 44.5615C117.834 44.0211 117.264 43.8859 116.412 43.8859C115.985 43.8859 115.559 44.0211 115.132 44.1548C114.706 44.2913 114.421 44.5615 113.995 44.6967L114.138 42.5347L112.717 43.2103H112.432C112.148 43.2103 112.006 43.0739 111.721 43.0739C111.011 43.0739 110.442 43.2103 110.015 43.6143C109.873 43.7495 109.731 44.0197 109.589 44.29C109.447 44.8291 109.447 45.6412 109.447 46.9924L109.02 46.4519L108.736 49.1543L109.731 49.6948L110.157 49.8299C110.442 49.8299 110.584 49.9664 110.868 49.9664C111.579 49.9664 112.148 49.6962 112.718 49.2908L113 48.8854C113 49.0219 113.143 49.0219 113.284 49.1557C113.853 49.6962 114.564 49.9678 115.274 49.9678C115.559 49.9678 115.842 49.9678 116.128 49.8313H120.677H120.819C121.104 49.8313 121.247 49.9678 121.53 49.9678C121.815 49.9678 122.099 49.9678 122.241 49.8313H124.232H124.943C125.085 49.8313 125.227 49.9678 125.511 49.9678C125.653 49.9678 125.938 49.9678 126.079 49.8313H129.349H129.633C129.919 49.9664 130.203 49.9664 130.488 49.9664C130.77 49.9664 131.055 49.9664 131.341 49.8299H138.023C138.165 49.8299 138.165 49.8299 138.307 49.8299C138.59 49.8299 138.734 49.8299 139.018 49.8299C139.729 49.8299 140.296 49.5597 140.867 49.1543C141.009 49.0192 141.151 49.0192 141.151 48.8841L141.293 48.7503C141.577 48.345 141.72 47.9396 141.72 47.5342C141.72 47.3991 141.72 47.1289 141.577 46.9951L142.004 44.4278L141.72 44.0211ZM113 44.9669C112.857 44.4264 112.573 44.1562 112.004 44.1562C111.72 44.1562 111.576 44.1562 111.436 44.2927C111.293 44.4278 111.151 44.5629 111.151 44.8318C111.151 44.9683 111.151 45.102 111.295 45.2385C111.436 45.3723 111.578 45.5074 111.862 45.7776L112.289 46.0479C112.573 46.183 112.717 46.3181 112.857 46.5884C113 46.7235 113 46.9937 113 47.1275C113 47.5329 112.857 47.9396 112.432 48.2085C112.004 48.4801 111.578 48.6152 111.151 48.6152C111.009 48.6152 110.867 48.6152 110.583 48.6152L110.156 48.4801L109.73 48.345L110.014 47.3991C110.014 47.5342 110.014 47.5342 110.156 47.6694C110.156 47.6694 110.156 47.8045 110.298 47.8045C110.298 47.9409 110.44 47.9409 110.44 48.0747C110.583 48.2098 110.867 48.345 111.151 48.345C111.436 48.345 111.72 48.2085 111.862 48.0747C112.006 47.9396 112.147 47.6694 112.147 47.3991C112.147 47.264 112.147 46.9937 112.004 46.8586L111.862 46.7235L111.72 46.5884L111.294 46.3181C111.009 46.0479 110.725 45.9128 110.583 45.6425C110.44 45.5061 110.44 45.2372 110.44 44.9669C110.44 44.5615 110.583 44.2913 110.867 44.0211C111.151 43.7508 111.578 43.6157 112.006 43.6157C112.148 43.6157 112.289 43.6157 112.432 43.6157L112.859 43.7508H113.001V44.9669H113ZM117.407 48.0747C116.981 48.4801 116.412 48.7503 115.701 48.7503C115.132 48.7503 114.706 48.6152 114.279 48.2098C113.853 47.9409 113.711 47.3991 113.711 46.8586V46.5884C113.853 46.0479 114.137 45.5074 114.564 45.102C114.848 44.9669 115.131 44.6967 115.417 44.6967C115.701 44.5615 115.985 44.5615 116.412 44.5615C116.981 44.5615 117.407 44.6967 117.692 45.1007C117.974 45.3709 118.259 45.7763 118.259 46.3168C118.26 46.9937 117.976 47.5342 117.407 48.0747ZM119.54 48.6152H118.402C118.545 48.4801 118.545 48.4801 118.545 48.345C118.545 48.2085 118.545 48.2085 118.687 47.9396L119.54 43.0752V42.805V42.6698C119.54 42.5347 119.54 42.5347 119.396 42.3996H120.391L119.54 47.9396V48.2098C119.54 48.345 119.54 48.4801 119.54 48.6152ZM124.09 48.0747V48.345C124.09 48.4801 124.09 48.4801 124.232 48.6152H123.236L123.38 48.0747L123.096 48.345C122.81 48.6152 122.383 48.7503 121.815 48.7503C121.388 48.7503 121.104 48.6152 120.962 48.4801C120.677 48.345 120.677 48.0747 120.677 47.9409C120.677 47.8045 120.677 47.8045 120.677 47.6707C120.677 47.6707 120.677 47.5342 120.677 47.2653L120.962 45.2385V44.9683C120.962 44.8318 120.962 44.698 120.818 44.5629H121.813L121.388 46.9937V47.264V47.5342C121.388 47.9409 121.672 48.2098 122.241 48.2098C122.385 48.2098 122.669 48.2098 122.81 48.0747C122.952 48.0747 123.094 47.9396 123.236 47.8045C123.38 47.6693 123.38 47.6694 123.38 47.5342C123.38 47.3991 123.522 47.2653 123.522 47.1289L123.807 45.2385V44.9683C123.807 44.8318 123.807 44.698 123.663 44.5629H124.658L124.09 48.0747ZM126.649 48.4801C126.364 48.6152 126.08 48.7503 125.796 48.7503C125.513 48.7503 125.369 48.7503 125.228 48.6152C125.085 48.4801 125.085 48.345 125.085 48.2098V47.6694L125.513 45.102H125.085L125.227 44.6967H125.511L125.653 43.8859L126.507 43.6157V44.6967H127.36L127.217 45.102H126.507L126.08 47.8045V48.0747C126.08 48.2098 126.224 48.345 126.364 48.345C126.505 48.345 126.649 48.2085 126.933 48.0747L126.649 48.4801ZM128.213 48.6152H126.933C127.075 48.4801 127.217 48.2098 127.217 47.9396L127.645 45.2372V44.9669V44.8318C127.645 44.8318 127.645 44.6967 127.502 44.6967H128.497L127.928 48.0747V48.345C128.071 48.4801 128.071 48.4801 128.213 48.6152ZM128.781 43.7508L128.639 43.8859C128.497 43.8859 128.497 43.8859 128.356 43.8859C128.213 43.8859 128.072 43.8859 128.072 43.7495C127.928 43.6157 127.928 43.6157 127.928 43.4806C127.928 43.3455 127.928 43.2117 128.072 43.0752C128.214 42.9401 128.356 42.9401 128.498 42.9401C128.641 42.9401 128.783 42.9401 128.783 43.0752C128.925 43.2117 128.925 43.2117 128.925 43.4806C129.066 43.4806 128.924 43.6157 128.781 43.7508ZM132.762 48.0747C132.194 48.6152 131.625 48.7503 130.914 48.7503C130.345 48.7503 129.919 48.6152 129.492 48.2098C129.066 47.9409 128.924 47.3991 128.924 46.8586V46.5884C129.066 46.0479 129.35 45.5074 129.777 45.102C130.061 44.9669 130.345 44.6967 130.63 44.6967C130.914 44.5615 131.198 44.5615 131.625 44.5615C132.192 44.5615 132.62 44.6967 132.903 45.1007C133.188 45.3709 133.472 45.7763 133.472 46.3168C133.615 46.9937 133.331 47.5342 132.762 48.0747ZM138.023 45.9128L137.596 48.0747V48.345C137.596 48.4801 137.596 48.4801 137.596 48.4801L137.739 48.6166H136.743L136.887 48.0761C136.887 47.8058 137.029 47.6707 137.029 47.4005L137.314 46.0492V45.6439C137.314 45.2385 137.029 44.9683 136.603 44.9683H136.318H136.034L135.75 45.1034L135.606 45.2372C135.464 45.3723 135.464 45.3723 135.322 45.5061C135.322 45.6425 135.179 45.7763 135.179 46.0465L134.895 47.9382V48.2098C134.895 48.2098 134.895 48.3463 135.037 48.4801H133.9C134.043 48.345 134.043 48.2098 134.043 48.2098C134.043 48.2098 134.043 48.0747 134.186 47.8045L134.612 45.102V44.8318C134.612 44.6967 134.612 44.5629 134.47 44.4264H135.465L135.322 44.8318L135.606 44.6967C135.89 44.4264 136.317 44.2913 136.743 44.2913C137.17 44.2913 137.454 44.4264 137.598 44.5615C137.881 44.6967 137.881 44.9669 137.881 45.102L138.023 45.9128ZM141.293 45.6425C141.151 45.5061 141.151 45.2372 141.009 45.2372C140.867 45.1007 140.582 44.9669 140.441 44.9669C140.298 44.9669 140.013 45.102 139.873 45.2372C139.731 45.3723 139.588 45.506 139.588 45.7763C139.588 45.9128 139.588 46.0465 139.732 46.0465C139.874 46.1817 140.015 46.1817 140.159 46.3168L140.443 46.4519C140.724 46.5884 141.009 46.7235 141.009 46.8586C141.151 46.9937 141.151 47.1289 141.151 47.3991C141.151 47.8045 141.007 48.2098 140.582 48.4801C140.298 48.7503 139.871 48.8854 139.303 48.8854C139.16 48.8854 139.02 48.8854 138.876 48.8854C138.734 48.8854 138.45 48.7503 138.165 48.6166L138.309 47.6707C138.451 47.9409 138.592 48.2098 138.735 48.3463C138.877 48.4814 139.162 48.6166 139.303 48.6166C139.587 48.6166 139.731 48.4801 139.871 48.3463C140.013 48.2098 140.156 47.9409 140.156 47.8058C140.156 47.6707 140.156 47.5356 140.012 47.4005L139.871 47.264L139.445 46.9937C139.16 46.8573 138.876 46.5884 138.734 46.4533C138.592 46.3181 138.45 46.0479 138.45 45.9128C138.45 45.506 138.592 45.2372 138.876 44.9669C139.16 44.6967 139.587 44.5615 140.013 44.5615H140.156C140.298 44.5615 140.298 44.5615 140.44 44.5615C140.582 44.5615 140.582 44.5615 140.723 44.5615C140.867 44.5615 140.867 44.5615 141.007 44.6967L141.293 45.6425Z" fill="#DCDCDC"/>
</svg>
