<svg width="206" height="70" viewBox="0 0 206 70" fill="none" xmlns="http://www.w3.org/2000/svg">
<path d="M0.785156 0H188.896C198.224 0 205.785 7.56162 205.785 16.8894V70H43.4586C33.2192 70 24.0695 63.6059 20.5496 53.9906L0.785156 0Z" fill="#0B0E15"/>
<path d="M145.764 28.3321C145.379 28.0581 144.995 27.6928 144.705 27.4188C144.225 26.9621 143.841 26.6881 143.553 26.6881C142.88 26.6881 142.592 26.7794 142.303 27.4188C142.015 28.1494 141.822 28.1494 141.342 30.2501H144.322L145.764 28.3321ZM142.304 31.8941C141.92 31.8941 141.44 31.8941 140.862 31.8941L138.46 40.5708C137.979 42.6715 137.21 44.3155 136.153 45.4115C135.096 46.5075 134.423 46.9642 132.982 46.9642C131.54 46.9642 131.636 46.9642 131.06 46.6902C130.387 46.4162 129.906 46.1422 129.906 45.5942C129.906 45.1375 129.906 44.5895 130.099 44.3164C130.29 44.0424 130.963 43.8598 131.348 43.9511C131.731 44.0434 132.405 44.4078 132.597 44.6818C132.79 44.9567 133.27 45.1384 133.558 45.1384C133.847 45.1384 133.943 44.8644 134.135 44.4078C134.327 43.9511 134.519 43.3118 134.616 42.4898C136.154 36.0964 136.827 32.717 136.827 32.443C136.827 32.169 136.538 31.895 135.962 31.4384C135.77 31.1644 135.578 30.9817 135.578 30.799C135.578 30.6164 135.962 30.4337 135.962 30.4337C136.827 30.3424 137.115 30.525 137.404 30.4337C137.692 30.3424 137.788 29.977 137.788 29.8857C138.268 28.1504 138.171 27.511 139.421 26.2323C140.671 24.9537 142.304 24.8623 144.035 24.8623C144.706 24.8623 145.379 24.9537 145.957 25.4103C146.34 25.7757 146.918 26.5977 147.301 27.237C147.59 27.3283 148.166 27.511 148.551 27.511C149.031 27.6023 148.648 28.333 148.648 28.4244L147.687 29.977C147.783 30.251 147.879 30.3424 147.975 30.4337C148.167 30.525 148.359 30.6164 148.648 30.6164C148.744 30.6164 149.128 30.6164 149.128 30.7077C149.128 30.799 149.32 31.073 149.32 31.073C149.32 31.2557 149.32 31.347 149.128 31.5297C149.031 31.7124 148.455 31.7124 148.359 31.7124C147.687 31.895 147.206 31.9864 147.109 32.169C147.013 32.3517 146.532 34.0871 145.86 37.4664C145.764 37.6491 145.667 37.8308 145.86 37.9231C146.052 38.0144 146.148 37.8308 146.244 37.8308C146.34 37.8308 147.108 37.8308 147.493 38.0135C147.686 38.1057 147.59 38.5624 147.59 38.6528C147.59 38.7432 147.398 39.1095 147.109 39.6575C146.725 40.2055 146.34 40.4795 145.86 40.7535C145.379 41.0275 144.899 41.1188 144.322 41.1188C143.649 41.1188 143.264 41.1188 142.592 40.4795C141.919 39.9315 142.015 39.1095 142.112 38.1962L143.744 32.1681L142.304 31.8941ZM81.0859 26.4141C80.9898 26.8708 79.8366 26.7794 79.5483 26.9621C79.3561 27.2361 79.0678 27.6928 78.9717 28.2408C77.2418 35.0908 76.3769 38.5615 76.3769 38.6528C76.3769 38.9268 76.473 39.2922 76.6652 39.3835C76.8574 39.5662 77.5301 39.8402 77.5301 40.2055C77.5301 40.5699 76.7613 40.6622 75.8964 40.9362C75.0314 41.1188 74.8392 41.2102 73.5899 41.0275C72.4366 40.9362 70.2263 40.5708 70.2263 40.0228C70.2263 39.4748 71.4756 39.3835 71.6678 39.1095C71.86 38.8355 72.2444 38.2875 72.4366 37.6482L74.8392 28.2408C74.8392 28.1494 75.2236 27.3274 74.7431 26.9621C74.2626 26.5968 73.8782 26.3228 73.8782 26.0488C73.8782 25.7748 74.5509 25.5008 75.5119 25.4094C76.473 25.3181 77.0496 25.3181 77.6262 25.3181C78.2028 25.3181 78.7795 25.3181 79.6444 25.4094C80.3171 25.6834 81.182 25.8661 81.0859 26.4141ZM102.325 32.4421C102.901 31.7115 103.478 31.3461 104.535 30.7981C105.592 30.2501 106.553 30.2501 107.707 30.2501C109.34 30.2501 110.109 30.7068 110.974 31.2548C111.839 31.8941 112.32 32.5335 112.416 33.6295C112.512 34.4515 112.512 35.3648 112.223 36.2782C111.935 37.1915 111.647 37.9222 111.07 38.5615C110.494 39.2922 109.726 39.8393 108.956 40.3882C108.187 40.8448 107.418 40.9362 106.169 41.1188C104.823 41.2102 103.286 40.7535 102.517 40.1133C101.652 39.4748 101.172 38.6519 101.075 37.5559C100.979 36.6426 100.979 35.4552 101.268 34.6332C101.268 34.5419 101.364 34.4506 101.364 34.2679C101.268 33.9939 101.172 33.7199 100.979 33.7199C100.691 33.7199 100.211 33.8112 99.8261 33.7199C99.4417 33.6286 99.1534 33.6286 98.9612 33.6286C98.4807 33.6286 97.5196 35.1812 96.943 36.1859C96.3664 37.1915 95.8859 38.8346 95.2132 40.6613C95.2132 40.7526 94.4443 41.0257 93.9638 41.1179C93.4833 41.2093 93.0028 41.1179 92.8106 41.1179C92.33 40.9353 92.0417 40.8439 91.9456 40.6613C91.7534 40.4786 91.7534 39.1086 91.9456 38.5606C92.4262 36.8252 93.2911 35.0899 93.195 34.4506C92.9067 33.3546 91.5612 33.2632 91.4651 33.2632C91.369 33.2632 91.2729 33.2632 91.1768 33.1719L89.543 33.2632C89.543 34.9986 89.0625 36.2772 88.1015 37.0079C87.0444 37.7386 85.6989 38.1952 83.8729 38.1952C83.3924 38.1952 83.6807 38.7432 84.4496 38.9259C85.2184 39.1999 85.6989 39.1999 86.2755 39.2913C87.0444 39.4739 87.7171 39.7479 88.3898 40.2046C89.0625 40.6613 89.4469 41.5746 89.4469 42.3053C89.4469 43.4013 88.582 44.68 87.3327 45.502C86.0833 46.324 84.7379 46.6893 83.3924 46.6893C81.6626 46.6893 80.4132 46.2326 79.3561 45.6846C78.2989 45.1375 77.7223 44.5895 77.7223 43.7675C77.7223 42.9464 77.8184 42.3975 78.2989 42.0331C78.7795 41.6678 79.0678 41.2111 80.1249 40.7544C79.8366 40.2064 79.7405 40.2064 79.5483 39.7498C79.3561 39.2008 79.1639 38.8364 79.7405 38.2875C80.3171 37.7395 80.4132 37.7395 81.2782 37.1002C80.6054 36.8262 80.0288 34.9995 80.0288 34.3601C80.0288 32.9901 80.3171 32.2595 81.5665 31.1635C82.8158 30.0674 83.8729 30.1588 85.2184 30.1588C86.1794 30.1588 87.2366 30.6155 87.8132 30.8895C88.1976 30.8895 88.582 30.6155 88.9664 30.5241C89.1586 30.4328 89.543 30.3415 89.9275 30.1588C90.0236 30.1588 91.8495 31.2548 91.9456 31.3461C91.9456 31.3461 91.9456 31.4375 92.0417 31.4375L92.1378 31.3461C93.0028 30.6155 93.7716 30.1588 94.6365 30.1588C95.3093 30.1588 95.8859 30.3415 96.2703 30.6155C96.6547 30.9808 96.5586 31.2548 96.5586 31.8941C96.5586 31.9855 97.0391 32.2595 96.943 32.3508C97.2313 32.0768 97.6157 31.7115 98.0002 31.2548C98.5768 30.5241 99.5378 30.0674 100.114 30.0674C100.691 30.0674 101.172 30.4328 101.46 30.7981C101.844 31.2548 102.133 31.8941 102.325 32.4421ZM86.4677 32.8988C86.5638 32.6248 86.4677 32.4421 86.4677 32.2595C86.3716 32.0768 86.2755 31.9855 86.0833 31.8941C85.6989 31.8028 85.2184 32.1681 84.5457 32.9901C83.8729 33.8121 83.4885 34.6341 83.2963 35.6388C83.2002 35.9128 83.2963 36.0955 83.2963 36.2782C83.3924 36.4599 83.4885 36.5522 83.7768 36.6426C84.2574 36.7348 84.834 36.3686 85.4106 35.5466C85.8911 34.6341 86.2755 33.8121 86.4677 32.8988ZM85.9872 43.2195C85.9872 42.6715 85.6028 42.3062 84.9301 42.0322C84.1613 41.8495 84.0652 41.8495 82.8158 41.8495C82.2392 42.0322 81.4704 42.3975 81.0859 42.6715C80.7976 42.9455 80.3171 43.3099 80.3171 43.5849C80.3171 43.8589 80.5093 44.3155 80.9898 44.5895C81.4704 44.9549 82.047 44.9549 83.008 44.9549C83.8729 44.9549 84.4496 44.5895 84.9301 44.2233C85.5067 44.0415 85.9872 43.6762 85.9872 43.2195ZM107.707 31.8941C107.322 31.8941 106.938 32.1681 106.457 32.6248C106.073 33.0815 105.785 33.8121 105.4 34.6341C105.016 35.3648 104.92 35.9128 104.727 37.0088C104.535 38.1048 104.823 39.3835 105.016 39.5662C105.208 39.7488 105.592 39.7488 105.785 39.7488C106.265 39.6566 106.553 39.4748 107.034 38.9268C107.514 38.3788 107.61 38.1057 107.995 37.3742C108.379 36.6435 108.572 35.9128 108.668 34.9081C108.668 33.8121 108.379 31.8941 107.707 31.8941ZM122.218 31.9855C122.218 32.3508 122.218 33.0815 122.218 33.4468C122.218 33.8121 122.218 34.0861 121.449 34.0861C120.777 34.0861 120.68 33.6295 120.584 33.2641C120.489 32.8988 120.584 32.6248 120.392 32.3508C120.2 32.0768 119.72 31.8028 119.143 31.8028C118.566 31.8028 118.182 31.9855 117.605 32.4421C117.125 32.9901 117.413 33.2641 117.797 33.6295C118.181 33.9948 119.335 34.3601 119.816 34.6341C120.392 34.9995 121.065 35.2735 121.449 35.9128C121.833 36.6435 121.833 37.0088 121.833 37.9222C121.833 38.8355 121.064 39.7488 120.199 40.3882C119.335 41.0266 117.797 41.1188 116.547 41.1188C115.971 41.1188 114.722 40.9362 112.991 40.5699C113.088 39.3826 113.184 38.5615 113.184 38.1952C113.281 37.5559 113.087 37.1906 113.281 37.1906C113.857 37.1002 114.146 37.4655 114.434 37.7395C114.723 38.0135 114.914 38.2875 115.107 38.5615C115.299 38.8355 115.684 39.0182 115.875 39.2922C116.068 39.5662 117.029 39.5662 117.317 39.3835C117.797 39.1095 118.375 38.5624 118.375 38.2875C118.375 38.0135 118.278 37.8308 117.702 37.4664C117.222 37.1011 116.933 36.9175 116.357 36.6444C115.78 36.3704 115.012 35.7311 114.724 35.1831C114.34 34.7264 114.244 34.2697 114.244 33.813C114.244 32.991 114.435 31.9864 115.205 31.2557C115.973 30.525 116.454 30.0684 118.471 30.1597C119.336 30.251 121.066 30.7077 121.932 30.7077C122.218 31.4375 122.218 31.5288 122.218 31.9855ZM134.135 34.1775C134.135 34.9995 134.039 36.3695 133.752 37.1915C133.462 38.0135 132.693 38.9268 132.117 39.4748C131.444 40.1133 130.771 40.3882 130.003 40.8448C129.234 41.2102 128.177 41.3928 126.831 41.3015C125.486 41.2093 124.621 40.4795 123.852 39.7488C123.083 39.0182 122.795 38.1962 122.795 37.1915C122.795 36.3695 122.987 35.5466 123.275 34.8159C123.564 34.0852 124.044 33.3546 124.717 32.6239C125.294 31.9845 126.062 31.4365 126.927 31.0712C127.792 30.7059 128.753 30.4319 129.907 30.4319C131.157 30.4319 132.213 30.7972 132.887 31.4365C133.558 32.0768 134.135 33.1728 134.135 34.1775ZM130.387 32.3508C130.29 31.9855 130.195 31.8941 130.003 31.8941C129.619 31.8941 129.042 32.2595 128.561 32.7161C128.177 33.1728 127.696 33.6295 127.312 34.3601C126.927 35.0908 126.735 35.8224 126.543 36.5522C126.351 37.2819 126.543 39.1095 126.639 39.2922C126.736 39.4748 126.927 39.7488 127.217 39.7488C127.6 39.7488 128.178 39.4748 128.658 39.0182C129.139 38.5615 129.522 37.9222 129.907 37.1915C130.196 36.4599 130.388 36.2782 130.484 35.2726C130.483 34.0861 130.483 32.7161 130.387 32.3508ZM110.013 12.166C141.823 12.166 158.065 24.2221 158.065 34.9995C158.065 45.7769 139.036 57.8329 110.397 57.8329C81.7587 57.8329 62.0575 46.5075 61.9614 34.9995C61.8653 23.4914 78.2028 12.166 110.013 12.166ZM110.205 15.2714C79.8366 15.2714 63.6912 26.2314 63.9795 35.6388C64.2678 45.0462 82.8158 54.6363 110.205 54.6363C137.595 54.6363 155.854 43.9502 155.854 34.9995C155.854 26.0488 140.67 15.2714 110.205 15.2714ZM155.758 19.1987C156.239 18.6507 156.527 17.92 156.527 17.098C156.527 15.2714 154.989 13.81 153.066 13.81C152.298 13.81 151.625 14.084 151.048 14.4494C153.739 14.2667 155.085 14.8147 155.085 16.002C155.085 17.1894 154.7 16.7327 154.7 17.7374C154.701 18.194 155.086 18.7421 155.758 19.1987ZM154.509 20.2034C154.125 19.5641 153.836 19.1987 153.644 18.9247C153.356 18.6507 153.067 18.4681 152.587 18.1027C152.395 18.6507 152.299 19.0161 152.203 19.2901C152.106 19.5641 151.914 19.7467 151.626 20.1121C152.106 20.3861 152.683 20.4774 153.26 20.4774C153.548 20.4774 154.028 20.3861 154.509 20.2034ZM150.184 19.0161C150.473 18.7421 150.665 18.2854 150.665 17.8287C150.762 17.2807 150.665 16.276 150.473 14.906C149.896 15.454 149.512 16.276 149.512 17.1894C149.512 17.8287 149.8 18.4681 150.184 19.0161ZM153.067 12.166C155.854 12.166 158.065 14.2667 158.065 16.9154C158.065 19.5641 155.854 21.6647 153.067 21.6647C150.281 21.6647 148.07 19.5641 148.07 16.9154C148.07 14.2667 150.28 12.166 153.067 12.166ZM152.395 15.728V16.7327C152.971 16.6414 153.26 16.4587 153.26 16.0934C153.26 15.728 152.971 15.6367 152.395 15.728Z" fill="white"/>
</svg>
