<svg width="206" height="70" viewBox="0 0 206 70" fill="none" xmlns="http://www.w3.org/2000/svg">
<path d="M0.785156 0H188.896C198.224 0 205.785 7.56162 205.785 16.8894V70H43.4586C33.2192 70 24.0695 63.6059 20.5496 53.9906L0.785156 0Z" fill="#0B0E15"/>
<path d="M51.2079 18.8596V29.5701H48.1623V16.5909V16.5584H53.2665C54.948 16.5584 55.9955 17.1222 56.6287 17.7056C57.1828 18.2301 57.7761 19.1831 57.7761 20.622C57.7761 21.4389 57.5985 22.448 56.7478 23.265C56.2929 23.6927 55.6404 24.0771 54.9087 24.2524L58.9627 29.5532H55.2446L51.6725 24.4771V22.379H52.3773C52.9313 22.379 53.6829 22.3506 54.1971 21.845C54.4146 21.6311 54.6912 21.2528 54.6912 20.6112C54.6912 19.8721 54.3354 19.4308 54.078 19.2366C53.5838 18.867 52.793 18.8596 52.3972 18.8596H51.2079ZM47.2414 16.5686V29.5701H44.1957V16.5686H47.2414ZM76.0168 16.5625H78.988V29.5695H76.4008L72.1122 24.7411C71.8272 25.9079 71.2243 27.0274 70.2531 27.9559C69.0273 29.1228 67.3658 29.8618 65.151 29.8618C62.6787 29.8618 60.9986 28.8893 60.0095 27.9559C58.7438 26.7891 57.9537 25.0389 57.9537 23.133C57.9537 21.2656 58.8064 19.3794 59.993 18.2125C60.883 17.3374 62.5286 16.3066 65.1592 16.3066C67.2165 16.3066 68.9138 16.9618 70.271 18.1929C70.9641 18.8224 76.0168 24.4067 76.0168 24.4067V16.5625ZM68.0383 25.9918C68.5524 25.5059 69.1856 24.5915 69.1849 23.0944C69.1849 21.753 68.6309 20.7607 68.0376 20.1773C67.3851 19.5547 66.3369 19.0687 65.1303 19.0687C63.9836 19.0687 62.9547 19.4775 62.243 20.1773C61.6697 20.7222 61.0764 21.6751 61.0764 23.114C61.0764 24.3005 61.4721 25.2534 62.2829 26.0311C63.1336 26.8284 64.0828 27.1005 65.111 27.1005C66.4559 27.1005 67.4051 26.6145 68.0383 25.9918ZM72.9402 37.7427V37.742H79.8917V37.8882C79.8917 39.5592 79.3088 42.0973 77.756 43.6857C76.2033 45.2742 74.4454 45.5632 72.7881 45.5632C71.1094 45.5632 69.3054 45.2952 67.6687 43.6445C67.4505 43.4245 67.2034 43.1443 66.957 42.8005C66.9556 42.8025 66.9542 42.8039 66.9529 42.8059L66.9522 42.7937C66.9474 42.7876 66.9432 42.7808 66.9384 42.7741C66.7374 43.0698 66.5186 43.3385 66.2832 43.5626C64.8777 44.904 63.0524 45.5639 60.8706 45.5639C58.0803 45.5639 56.3397 44.4695 55.3947 43.5423C55.1373 43.2898 54.8977 43.0143 54.6768 42.7199C54.5398 42.8844 54.396 43.0421 54.2439 43.1917C52.3139 45.1104 49.9009 45.2553 48.726 45.2553H44.1703V31.516H48.622C50.468 31.516 52.4193 31.7718 54.1399 33.4016C54.3471 33.5992 54.5412 33.7955 54.7215 34.0175C54.7208 34.0182 54.7208 34.0188 54.7202 34.0195L54.7215 34.0202L54.7498 34.0689C54.9507 33.7271 55.1662 33.4307 55.3954 33.206C56.3404 32.2787 58.081 31.1843 60.8713 31.1843C63.0531 31.1843 64.8784 31.8449 66.2839 33.1857C66.5192 33.4097 66.7374 33.6777 66.9384 33.9735L66.9529 33.9532L66.9536 33.941C66.9549 33.943 66.9563 33.9444 66.9577 33.9464C67.2041 33.6026 67.4512 33.3224 67.6694 33.1024C69.3061 31.4517 71.11 31.1837 72.7887 31.1837C74.4461 31.1837 76.2212 31.4727 77.7739 33.0611C78.2826 33.5816 78.6879 34.2043 79.0046 34.8648L76.2817 36.1643C75.9796 35.3393 75.4634 34.8946 75.3691 34.8209C75.0545 34.5528 74.3202 34.075 72.9353 34.075C71.8658 34.075 70.9421 34.341 70.1031 35.1464C69.0576 36.1501 68.6887 37.3954 68.5214 38.3741C68.6887 39.3535 69.0576 40.6002 70.1031 41.6039C70.9414 42.4086 71.8651 42.678 72.9353 42.678C74.3202 42.678 75.0545 42.2062 75.3691 41.9382C75.4737 41.8556 76.1035 41.3298 76.376 40.3145H72.9402V37.7427ZM52.8253 39.2993C52.8756 39.1599 52.9361 38.9636 53.0064 38.7247C52.9816 38.5846 52.9589 38.4438 52.9396 38.3017C52.7276 36.8581 52.23 35.878 51.6842 35.3413C50.6352 34.3099 49.2718 34.1555 48.2855 34.1555H47.4052V42.548H48.2855C48.9572 42.548 50.4267 42.4993 51.4743 41.6316C52.3091 40.9406 52.6932 39.6601 52.8253 39.2993ZM64.6024 40.5697C64.7841 40.2746 65.1317 39.6614 65.3347 38.8181C65.3705 38.6699 65.4036 38.5217 65.4352 38.3734C65.4036 38.2252 65.3705 38.077 65.3347 37.9288C65.1317 37.0855 64.7841 36.4723 64.6024 36.1772C64.4056 35.8212 64.1729 35.5241 63.9341 35.2892C63.2417 34.6286 62.1294 34.1129 60.8499 34.1129C59.6324 34.1129 58.5415 34.5467 57.7864 35.2892C57.6371 35.4313 57.487 35.6005 57.3445 35.7961L57.3507 35.7975C57.3507 35.7975 56.701 36.7139 56.2812 38.3741C56.701 40.0337 57.3507 40.9501 57.3507 40.9501L57.3445 40.9507C57.487 41.1463 57.6371 41.3155 57.7864 41.4577C58.5421 42.2008 59.6331 42.634 60.8499 42.634C62.1294 42.634 63.2417 42.1176 63.9341 41.4577C64.1729 41.2235 64.4056 40.9257 64.6024 40.5697ZM47.2193 48.5608C47.1333 48.3916 46.9901 48.2041 46.847 48.0918C46.7231 47.9977 46.4939 47.8759 46.1312 47.8759C45.5014 47.8759 45.0623 48.2603 45.0623 48.8424C45.0623 49.086 45.129 49.2268 45.3004 49.3865C45.4911 49.574 45.7299 49.6776 45.9681 49.7804L46.5786 50.043C46.9509 50.2028 47.2944 50.3713 47.5614 50.6339C47.8856 50.9527 48.0191 51.3188 48.0191 51.7689C48.0191 52.9229 47.1505 53.6924 46.0059 53.6924C45.5861 53.6924 45.0616 53.6078 44.6225 53.1855C44.3072 52.885 44.1166 52.4539 44.0312 52.0782L44.7181 51.8907C44.7656 52.219 44.9184 52.5006 45.0995 52.688C45.3761 52.9601 45.6907 53.0352 46.0155 53.0352C46.8841 53.0352 47.2944 52.4254 47.2944 51.7967C47.2944 51.5151 47.2083 51.2715 46.9791 51.065C46.7981 50.8958 46.5496 50.7835 46.2158 50.6332L45.6432 50.3706C45.3954 50.2583 45.0802 50.127 44.7939 49.8549C44.5172 49.5923 44.3547 49.3013 44.3547 48.8322C44.3547 47.8657 45.1084 47.2187 46.1387 47.2187C46.5297 47.2187 46.8449 47.2938 47.1595 47.5003C47.4169 47.6695 47.6364 47.9226 47.7796 48.1947L47.2193 48.5608ZM51.5321 47.9788V53.5801H50.8259V47.9788H49.28V47.3223H53.0772V47.9788H51.5321ZM55.7877 51.1591C55.7877 51.6843 55.7877 52.2569 56.2936 52.6792C56.551 52.8951 56.9901 53.0359 57.3432 53.0359C57.6963 53.0359 58.1354 52.8951 58.3928 52.6792C58.8987 52.2569 58.8987 51.685 58.8987 51.1591V47.3216H59.6048V51.3466C59.6048 51.8718 59.5477 52.3787 59.2043 52.8478C58.823 53.3635 58.1546 53.6924 57.3439 53.6924C56.5331 53.6924 55.8648 53.3642 55.4835 52.8478C55.14 52.3787 55.0829 51.8718 55.0829 51.3466V47.3216H55.789V51.1591H55.7877ZM62.2946 47.3223H63.592C64.2314 47.3223 65.1379 47.3879 65.939 48.0539C66.5213 48.5324 67.0265 49.3297 67.0265 50.4559C67.0265 51.7696 66.3678 52.4728 65.9101 52.8579C65.3278 53.3459 64.7173 53.5801 63.5824 53.5801H62.2946V47.3223ZM63.0008 52.9236H63.6209C64.1268 52.9236 64.8233 52.8674 65.4435 52.3605C65.9205 51.9666 66.3024 51.3473 66.3024 50.4559C66.3024 48.9547 65.2336 47.9788 63.6216 47.9788H63.0015V52.9236H63.0008ZM70.0804 47.3223V53.5801H69.3742V47.3223H70.0804ZM72.4274 50.4559C72.4274 48.5886 73.9065 47.2187 75.738 47.2187C77.5695 47.2187 79.0486 48.5886 79.0486 50.4559C79.0486 52.3138 77.5791 53.6931 75.738 53.6931C73.8969 53.6931 72.4274 52.3138 72.4274 50.4559ZM73.1522 50.4559C73.1522 51.8914 74.3064 53.0359 75.738 53.0359C77.1696 53.0359 78.3238 51.8914 78.3238 50.4559C78.3238 49.0204 77.1696 47.8759 75.738 47.8759C74.3064 47.8759 73.1522 49.0204 73.1522 50.4559Z" fill="white"/>
<path d="M99.4823 36.1113H102.398V23.5113H99.4823V36.1113ZM116.549 36.1113L113.723 32.0613C115.361 31.3593 116.315 29.9733 116.315 28.0833C116.315 25.2573 114.209 23.5113 110.843 23.5113H105.389V36.1113H108.305V32.6013H110.843H110.987L113.417 36.1113H116.549ZM113.363 28.0833C113.363 29.4513 112.463 30.2793 110.681 30.2793H108.305V25.8873H110.681C112.463 25.8873 113.363 26.6973 113.363 28.0833ZM124.727 36.3273C128.687 36.3273 131.621 33.5733 131.621 29.8113C131.621 26.0493 128.687 23.2953 124.727 23.2953C120.749 23.2953 117.833 26.0673 117.833 29.8113C117.833 33.5553 120.749 36.3273 124.727 36.3273ZM124.727 33.8433C122.477 33.8433 120.785 32.2053 120.785 29.8113C120.785 27.4173 122.477 25.7793 124.727 25.7793C126.977 25.7793 128.669 27.4173 128.669 29.8113C128.669 32.2053 126.977 33.8433 124.727 33.8433ZM142.488 23.5113V31.1613L136.224 23.5113H133.812V36.1113H136.692V28.4613L142.974 36.1113H145.368V23.5113H142.488ZM148.349 36.1113H154.073C158.195 36.1113 161.021 33.6273 161.021 29.8113C161.021 25.9953 158.195 23.5113 154.073 23.5113H148.349V36.1113ZM151.265 33.7173V25.9053H153.929C156.431 25.9053 158.069 27.3993 158.069 29.8113C158.069 32.2233 156.431 33.7173 153.929 33.7173H151.265ZM169.323 36.3273C173.283 36.3273 176.217 33.5733 176.217 29.8113C176.217 26.0493 173.283 23.2953 169.323 23.2953C165.345 23.2953 162.429 26.0673 162.429 29.8113C162.429 33.5553 165.345 36.3273 169.323 36.3273ZM169.323 33.8433C167.073 33.8433 165.381 32.2053 165.381 29.8113C165.381 27.4173 167.073 25.7793 169.323 25.7793C171.573 25.7793 173.265 27.4173 173.265 29.8113C173.265 32.2053 171.573 33.8433 169.323 33.8433ZM186.922 33.3033C186.184 33.6993 185.446 33.8433 184.654 33.8433C182.242 33.8433 180.568 32.1693 180.568 29.8113C180.568 27.4173 182.242 25.7793 184.69 25.7793C185.968 25.7793 187.03 26.2293 187.948 27.2013L189.82 25.4733C188.596 24.0513 186.76 23.2953 184.546 23.2953C180.532 23.2953 177.616 26.0133 177.616 29.8113C177.616 33.6093 180.532 36.3273 184.492 36.3273C186.292 36.3273 188.2 35.7693 189.586 34.7253V29.6133H186.922V33.3033Z" fill="white"/>
<path d="M101.058 48.9487C100.538 48.9487 100.038 48.8653 99.5583 48.6987C99.0849 48.532 98.7183 48.312 98.4583 48.0387L98.7483 47.4687C99.0016 47.722 99.3383 47.9287 99.7583 48.0887C100.178 48.242 100.612 48.3187 101.058 48.3187C101.685 48.3187 102.155 48.2053 102.468 47.9787C102.782 47.7453 102.938 47.4453 102.938 47.0787C102.938 46.7987 102.852 46.5753 102.678 46.4087C102.512 46.242 102.305 46.1153 102.058 46.0287C101.812 45.9353 101.468 45.8353 101.028 45.7287C100.502 45.5953 100.082 45.4687 99.7683 45.3487C99.4549 45.222 99.1849 45.032 98.9583 44.7787C98.7383 44.5253 98.6283 44.182 98.6283 43.7487C98.6283 43.3953 98.7216 43.0753 98.9083 42.7887C99.0949 42.4953 99.3816 42.262 99.7683 42.0887C100.155 41.9153 100.635 41.8287 101.208 41.8287C101.608 41.8287 101.998 41.8853 102.378 41.9987C102.765 42.1053 103.098 42.2553 103.378 42.4487L103.128 43.0387C102.835 42.8453 102.522 42.702 102.188 42.6087C101.855 42.5087 101.528 42.4587 101.208 42.4587C100.595 42.4587 100.132 42.5787 99.8183 42.8187C99.5116 43.052 99.3583 43.3553 99.3583 43.7287C99.3583 44.0087 99.4416 44.2353 99.6083 44.4087C99.7816 44.5753 99.9949 44.7053 100.248 44.7987C100.508 44.8853 100.855 44.982 101.288 45.0887C101.802 45.2153 102.215 45.342 102.528 45.4687C102.848 45.5887 103.118 45.7753 103.338 46.0287C103.558 46.2753 103.668 46.612 103.668 47.0387C103.668 47.392 103.572 47.7153 103.378 48.0087C103.192 48.2953 102.902 48.5253 102.508 48.6987C102.115 48.8653 101.632 48.9487 101.058 48.9487ZM106.543 42.5287H104.083V41.8887H109.743V42.5287H107.283V48.8887H106.543V42.5287ZM113.608 48.9487C112.702 48.9487 111.995 48.6887 111.488 48.1687C110.982 47.6487 110.728 46.892 110.728 45.8987V41.8887H111.468V45.8687C111.468 46.682 111.652 47.2887 112.018 47.6887C112.385 48.0887 112.915 48.2887 113.608 48.2887C114.308 48.2887 114.842 48.0887 115.208 47.6887C115.575 47.2887 115.758 46.682 115.758 45.8687V41.8887H116.478V45.8987C116.478 46.892 116.225 47.6487 115.718 48.1687C115.218 48.6887 114.515 48.9487 113.608 48.9487ZM118.708 41.8887H121.558C122.298 41.8887 122.952 42.0387 123.518 42.3387C124.085 42.632 124.525 43.0453 124.838 43.5787C125.152 44.1053 125.308 44.7087 125.308 45.3887C125.308 46.0687 125.152 46.6753 124.838 47.2087C124.525 47.7353 124.085 48.1487 123.518 48.4487C122.952 48.742 122.298 48.8887 121.558 48.8887H118.708V41.8887ZM121.518 48.2487C122.132 48.2487 122.668 48.1287 123.128 47.8887C123.588 47.642 123.945 47.3053 124.198 46.8787C124.452 46.4453 124.578 45.9487 124.578 45.3887C124.578 44.8287 124.452 44.3353 124.198 43.9087C123.945 43.4753 123.588 43.1387 123.128 42.8987C122.668 42.652 122.132 42.5287 121.518 42.5287H119.448V48.2487H121.518ZM126.97 41.8887H127.71V48.8887H126.97V41.8887ZM133.048 48.9487C132.354 48.9487 131.724 48.7953 131.158 48.4887C130.598 48.1753 130.158 47.7487 129.838 47.2087C129.524 46.6687 129.368 46.062 129.368 45.3887C129.368 44.7153 129.524 44.1087 129.838 43.5687C130.158 43.0287 130.598 42.6053 131.158 42.2987C131.724 41.9853 132.354 41.8287 133.048 41.8287C133.741 41.8287 134.364 41.982 134.918 42.2887C135.478 42.5953 135.918 43.022 136.238 43.5687C136.558 44.1087 136.718 44.7153 136.718 45.3887C136.718 46.062 136.558 46.672 136.238 47.2187C135.918 47.7587 135.478 48.182 134.918 48.4887C134.364 48.7953 133.741 48.9487 133.048 48.9487ZM133.048 48.2887C133.601 48.2887 134.101 48.1653 134.548 47.9187C134.994 47.6653 135.344 47.3187 135.598 46.8787C135.851 46.432 135.978 45.9353 135.978 45.3887C135.978 44.842 135.851 44.3487 135.598 43.9087C135.344 43.462 134.994 43.1153 134.548 42.8687C134.101 42.6153 133.601 42.4887 133.048 42.4887C132.494 42.4887 131.991 42.6153 131.538 42.8687C131.091 43.1153 130.738 43.462 130.478 43.9087C130.224 44.3487 130.098 44.842 130.098 45.3887C130.098 45.9353 130.224 46.432 130.478 46.8787C130.738 47.3187 131.091 47.6653 131.538 47.9187C131.991 48.1653 132.494 48.2887 133.048 48.2887Z" fill="white"/>
</svg>
