<svg width="206" height="70" viewBox="0 0 206 70" fill="none" xmlns="http://www.w3.org/2000/svg">
<path d="M0.785156 0H188.896C198.224 0 205.785 7.56162 205.785 16.8894V70H43.4586C33.2192 70 24.0695 63.6059 20.5496 53.9906L0.785156 0Z" fill="#0B0E15"/>
<path d="M92.8845 20.5059H96.8129L101.003 27.6929H101.134L105.324 20.5059H109.253V34.6322H106.765V23.6037H106.634L102.313 30.6669H99.9556L95.6344 23.7277H95.5034V34.6322H93.0155L92.8845 20.5059Z" fill="white"/>
<path d="M109.384 34.7561H106.634V23.7277L102.313 30.7908H99.8247L95.6344 23.7277V34.6322H92.8845V20.5059H96.9438L101.134 27.6929L105.324 20.5059H109.384V34.7561ZM106.896 34.5083H109.253V20.6298H105.455L101.265 27.8169H101.003L96.8129 20.6298H93.0155V34.5083H95.3725V23.6037H95.6344L99.9556 30.6669H102.182L106.503 23.6037H106.765L106.896 34.5083Z" fill="white"/>
<path d="M114.622 34.7563C113.575 34.7563 112.92 34.5085 112.396 34.0128C111.872 33.3932 111.611 32.6498 111.611 31.9063C111.611 30.9149 112.003 30.1715 112.658 29.5519C113.313 29.0562 114.36 28.6845 115.801 28.5606L118.289 28.4366V28.0649C118.289 27.6932 118.289 27.4453 118.158 27.0736C118.158 26.8257 118.027 26.5779 117.765 26.454C117.503 26.3301 117.241 26.2062 116.979 26.0823C116.587 25.9583 116.194 25.9583 115.801 25.9583C115.277 25.9583 114.753 25.9583 114.23 26.0823C113.706 26.2062 113.051 26.2062 112.396 26.3301L112.265 24.4714C113.575 24.2235 114.884 24.0996 116.325 24.0996C117.896 24.0996 119.075 24.3474 119.86 24.967C120.646 25.4627 121.039 26.454 121.039 27.5692V34.5085H118.813L118.551 33.2693H118.42C117.241 34.2607 115.932 34.7563 114.622 34.7563ZM115.801 32.8976C116.194 32.8976 116.717 32.7737 117.11 32.6498C117.503 32.5258 117.896 32.278 118.289 32.0302V29.9236L116.587 30.0475C115.801 30.1715 115.277 30.2954 114.884 30.5432C114.491 30.791 114.36 31.2867 114.36 31.6584C114.36 32.4019 114.753 32.8976 115.801 32.8976Z" fill="white"/>
<path d="M114.624 34.8795C113.577 34.8795 112.791 34.6316 112.267 34.136C111.744 33.6403 111.482 32.8968 111.482 31.9055C111.482 30.9142 111.875 30.0468 112.529 29.5511C113.184 29.0555 114.232 28.6837 115.672 28.5598L118.16 28.4359V28.1881C118.16 27.9402 118.16 27.5685 118.029 27.3206C118.029 27.0728 117.898 26.9489 117.636 26.825C117.374 26.7011 117.243 26.5772 116.981 26.5772C116.065 26.4532 115.148 26.4532 114.232 26.5772C113.708 26.5772 113.053 26.7011 112.398 26.825H112.267L112.136 24.7184H112.267C113.577 24.4706 115.017 24.3467 116.327 24.3467C117.898 24.3467 119.207 24.5945 119.993 25.2141C120.779 25.8337 121.172 26.7011 121.172 27.9402V35.0034H118.684L118.422 33.7642C117.243 34.3838 115.934 34.7556 114.624 34.8795ZM115.803 26.0815C116.196 26.0815 116.589 26.0815 116.981 26.2054C117.243 26.2054 117.505 26.3293 117.767 26.5772C118.029 26.7011 118.16 26.9489 118.16 27.1967C118.291 27.5685 118.291 27.8163 118.291 28.1881V28.5598L115.672 28.6837C114.232 28.8076 113.184 29.0555 112.66 29.5511C112.005 30.0468 111.744 30.7903 111.744 31.7816C111.744 32.5251 112.005 33.2686 112.529 33.8882C113.053 34.3838 113.708 34.6316 114.755 34.6316C116.065 34.6316 117.374 34.136 118.422 33.2686H118.684L118.946 34.5077H121.041V27.5685C121.041 26.4532 120.648 25.5858 119.862 25.0902C119.077 24.5945 117.898 24.3467 116.196 24.3467C114.886 24.3467 113.577 24.4706 112.267 24.7184L112.398 26.4532C112.922 26.3293 113.577 26.3293 114.101 26.2054C114.755 26.0815 115.279 26.0815 115.803 26.0815ZM115.803 33.0207C114.886 33.0207 114.362 32.5251 114.362 31.6577C114.362 31.162 114.493 30.7903 114.886 30.5424C115.148 30.2946 115.803 30.1707 116.589 30.0468L118.422 29.9229V32.1533C118.029 32.4012 117.636 32.649 117.243 32.7729C116.589 32.8968 116.196 32.8968 115.803 33.0207ZM118.16 30.0468L116.589 30.1707C115.803 30.1707 115.279 30.4185 115.017 30.5424C114.755 30.7903 114.493 31.162 114.624 31.5338C114.624 32.2773 115.017 32.7729 115.934 32.7729C116.327 32.7729 116.72 32.649 117.112 32.5251C117.505 32.4012 117.898 32.1533 118.291 31.9055L118.16 30.0468Z" fill="white"/>
<path d="M123.66 24.3466H126.017L126.148 25.5857H126.279C127.064 25.214 127.981 24.8422 128.898 24.5944C129.552 24.3466 130.207 24.2227 130.862 24.2227C131.647 24.2227 132.433 24.4705 133.088 24.9661C133.612 25.4618 133.874 26.2053 133.874 27.0727V34.6315H130.993V27.9401C130.993 27.4445 130.993 27.0727 130.731 26.701C130.469 26.4531 130.076 26.3292 129.683 26.3292C129.16 26.3292 128.636 26.4531 128.243 26.577C127.588 26.701 127.064 26.9488 126.541 27.1966V34.6315H123.791L123.66 24.3466Z" fill="white"/>
<path d="M133.871 34.7563H130.99V27.941C130.99 27.5692 130.859 27.0736 130.728 26.7018C130.466 26.454 130.073 26.3301 129.68 26.3301C129.157 26.3301 128.764 26.454 128.24 26.5779C127.716 26.7018 127.061 26.9497 126.538 27.1975V34.7563H123.526V24.2235H126.014L126.145 25.4627C126.93 25.0909 127.847 24.7192 128.764 24.4714C129.418 24.2235 130.073 24.0996 130.859 24.0996C131.645 24.0996 132.561 24.3474 133.085 24.8431C133.609 25.3388 133.871 26.0823 133.871 27.0736V34.7563ZM131.121 34.5085H133.74V26.9497C133.74 26.0823 133.478 25.3388 132.954 24.8431C132.43 24.3474 131.645 24.0996 130.859 24.0996C130.204 24.0996 129.549 24.2235 128.895 24.3474C127.978 24.5953 127.061 24.967 126.276 25.3388H126.014L125.883 24.0996H123.788V34.1367H126.407V26.7018C126.93 26.454 127.585 26.2062 128.109 26.0823C128.633 25.9583 129.157 25.8344 129.549 25.8344C129.942 25.8344 130.335 25.9583 130.728 26.2062C130.99 26.5779 131.121 27.0736 131.121 27.5692V34.5085Z" fill="white"/>
<path d="M141.336 34.7563C137.669 34.7563 135.967 33.0215 135.967 29.428C135.967 25.8344 137.8 24.0996 141.336 24.0996C141.859 24.0996 142.383 24.0996 142.907 24.2235C143.431 24.2235 143.824 24.3474 144.347 24.4714V26.5779C143.824 26.454 143.431 26.454 142.907 26.454C142.514 26.454 141.99 26.3301 141.597 26.3301C140.55 26.3301 139.895 26.5779 139.371 27.0736C138.979 27.5692 138.717 28.3127 138.717 29.428C138.717 30.5432 138.979 31.4106 139.371 31.7824C139.764 32.278 140.55 32.5258 141.597 32.5258C142.121 32.5258 142.645 32.5258 143.038 32.5258C143.431 32.5258 143.955 32.4019 144.347 32.4019V34.5085C143.955 34.6324 143.431 34.7563 142.907 34.7563C142.383 34.7563 141.859 34.7563 141.336 34.7563Z" fill="white"/>
<path d="M141.333 34.8802C137.666 34.8802 135.833 33.0215 135.833 29.428C135.833 25.8344 137.666 24.0996 141.333 24.0996C141.856 24.0996 142.38 24.0996 142.904 24.2235C143.428 24.2235 143.952 24.3474 144.344 24.4714H144.475V26.7018H144.344C143.821 26.5779 143.428 26.5779 142.904 26.5779C142.511 26.5779 141.987 26.454 141.594 26.454C140.547 26.454 139.892 26.7018 139.499 27.1975C139.107 27.6932 138.845 28.4366 138.845 29.5519C138.845 30.6671 139.107 31.4106 139.499 31.9063C139.892 32.4019 140.678 32.6498 141.594 32.6498C142.118 32.6498 142.642 32.6498 143.035 32.6498C143.428 32.6498 143.952 32.5258 144.344 32.5258H144.475V34.7563H144.344C143.821 34.8802 143.428 35.0041 142.904 35.0041C142.38 34.8802 141.856 34.8802 141.333 34.8802ZM141.333 24.2235C137.797 24.2235 135.964 25.9583 135.964 29.428C135.964 32.8976 137.666 34.6324 141.333 34.6324C141.856 34.6324 142.38 34.6324 142.904 34.5085C143.297 34.5085 143.821 34.3846 144.213 34.2607V32.4019C143.821 32.5258 143.428 32.5258 143.035 32.5258C142.642 32.5258 142.118 32.5258 141.594 32.5258C140.547 32.5258 139.761 32.278 139.368 31.7824C138.845 31.2867 138.714 30.4193 138.714 29.304C138.714 28.1888 138.976 27.3214 139.368 26.8257C139.761 26.3301 140.547 26.0823 141.594 26.0823C141.987 26.0823 142.511 26.0823 142.904 26.2062C143.428 26.2062 143.821 26.3301 144.213 26.3301V24.5953C143.821 24.4714 143.297 24.4714 142.904 24.3474C142.38 24.3474 141.856 24.2235 141.333 24.2235Z" fill="white"/>
<path d="M148.929 34.7563C147.882 34.7563 147.227 34.5085 146.703 34.0128C146.18 33.5172 145.918 32.7737 145.918 31.9063C145.918 30.9149 146.311 30.1715 146.965 29.5519C147.62 29.0562 148.668 28.6845 150.108 28.5606L152.596 28.4366V28.0649C152.596 27.6932 152.596 27.4453 152.465 27.0736C152.465 26.8257 152.334 26.5779 152.072 26.454C151.81 26.3301 151.548 26.2062 151.287 26.0823C150.894 25.9583 150.501 25.9583 150.108 25.9583C149.584 25.9583 149.06 25.9583 148.537 26.0823C147.882 26.0823 147.358 26.2062 146.703 26.3301L146.572 24.4714C147.882 24.2235 149.191 24.0996 150.632 24.0996C152.203 24.0996 153.382 24.3474 154.167 24.967C154.953 25.4627 155.346 26.454 155.346 27.5692V34.5085H152.989L152.727 33.2693H152.596C151.548 34.2607 150.239 34.7563 148.929 34.7563ZM150.108 32.8976C150.501 32.8976 151.025 32.7737 151.417 32.6498C151.81 32.5258 152.203 32.278 152.596 32.0302V29.9236L150.894 30.0475C150.108 30.1715 149.584 30.2954 149.191 30.5432C148.799 30.791 148.668 31.2867 148.668 31.6584C148.668 32.4019 149.191 32.8976 150.108 32.8976Z" fill="white"/>
<path d="M148.926 34.8802C147.879 34.8802 147.093 34.6324 146.569 34.1367C146.046 33.6411 145.784 32.8976 145.784 31.9063C145.784 30.9149 146.177 30.0475 146.831 29.5519C147.486 29.0562 148.534 28.6845 149.974 28.5606L152.462 28.4366V28.1888C152.462 27.941 152.462 27.5692 152.331 27.3214C152.331 27.0736 152.2 26.9497 151.938 26.8257C151.676 26.7018 151.545 26.5779 151.283 26.5779C150.367 26.454 149.45 26.454 148.534 26.5779C148.01 26.5779 147.355 26.7018 146.7 26.8257V26.5779L146.569 24.4714H146.7C148.01 24.2235 149.45 24.0996 150.76 24.0996C152.331 24.0996 153.64 24.3474 154.426 24.967C155.212 25.5866 155.605 26.454 155.605 27.6932V34.7563H153.117L152.855 33.5172C151.545 34.3846 150.236 34.7563 148.926 34.8802ZM150.105 26.0823C150.498 26.0823 150.891 26.0823 151.283 26.2062C151.545 26.2062 151.807 26.3301 152.069 26.5779C152.331 26.7018 152.462 26.9497 152.462 27.1975C152.593 27.5692 152.593 27.8171 152.593 28.1888V28.5606L149.974 28.6845C148.534 28.8084 147.486 29.0562 146.962 29.5519C146.307 30.0475 146.046 30.791 146.046 31.7824C146.046 32.5258 146.307 33.2693 146.831 33.765C147.355 34.2607 148.01 34.5085 149.057 34.5085C150.367 34.5085 151.676 34.0128 152.724 33.1454H152.986L153.248 34.3846H155.343V27.4453C155.343 26.3301 154.95 25.4627 154.164 24.967C153.379 24.4714 152.2 24.0996 150.629 24.0996C149.319 24.0996 148.01 24.2235 146.7 24.4714L146.831 26.2062C147.355 26.0823 148.01 26.0823 148.534 25.9583C149.057 26.0823 149.581 26.0823 150.105 26.0823ZM150.105 33.0215C149.188 33.0215 148.665 32.5258 148.665 31.6584C148.665 31.1628 148.795 30.791 149.188 30.5432C149.45 30.2954 150.105 30.1715 150.891 30.0475L152.724 29.9236V32.1541C152.331 32.4019 151.938 32.6498 151.545 32.7737C150.891 32.8976 150.498 32.8976 150.105 33.0215ZM152.462 30.0475L150.891 30.1715C150.105 30.1715 149.581 30.4193 149.319 30.5432C149.057 30.791 148.795 31.1628 148.926 31.5345C148.926 32.278 149.319 32.7737 150.236 32.7737C150.629 32.7737 151.022 32.6498 151.414 32.5258C151.807 32.4019 152.2 32.1541 152.593 31.9063L152.462 30.0475Z" fill="white"/>
<path d="M157.967 19.2666H160.717V34.6321H157.967V19.2666Z" fill="white"/>
<path d="M160.845 34.7559H157.833V19.1426H160.845V34.7559ZM158.095 34.5081H160.714V19.3904H158.095V34.5081Z" fill="white"/>
<path d="M165.82 34.7563C164.773 34.7563 164.118 34.5085 163.594 34.0128C163.07 33.3932 162.808 32.6498 162.808 31.9063C162.808 30.9149 163.07 30.1715 163.856 29.5519C164.511 29.0562 165.558 28.6845 166.999 28.5606L169.618 28.4366V28.0649C169.618 27.6932 169.618 27.4453 169.487 27.0736C169.487 26.8257 169.356 26.5779 169.094 26.454C168.832 26.3301 168.57 26.2062 168.308 26.0823C167.915 25.9583 167.522 25.9583 167.13 25.9583C166.606 25.9583 166.082 25.9583 165.558 26.0823C165.034 26.2062 164.38 26.2062 163.725 26.3301L163.594 24.4714C164.903 24.2235 166.213 24.0996 167.653 24.0996C169.225 24.0996 170.403 24.3474 171.189 24.967C171.975 25.4627 172.367 26.454 172.367 27.5692V34.5085H170.141L169.879 33.2693H169.748C168.439 34.2607 167.13 34.7563 165.82 34.7563ZM166.999 32.8976C167.391 32.8976 167.915 32.7737 168.308 32.6498C168.701 32.5258 169.094 32.278 169.487 32.0302V29.9236L167.784 30.0475C166.999 30.1715 166.475 30.2954 166.082 30.5432C165.689 30.791 165.558 31.2867 165.558 31.6584C165.558 32.4019 166.082 32.8976 166.999 32.8976Z" fill="white"/>
<path d="M165.827 34.8794C164.779 34.8794 163.994 34.6315 163.47 34.1359C162.946 33.6402 162.684 32.8967 162.684 31.9054C162.684 30.9141 163.077 30.0467 163.732 29.551C164.387 29.0553 165.434 28.6836 166.875 28.5597L169.363 28.4358V28.1879C169.363 27.9401 169.363 27.5684 169.232 27.3205C169.232 27.0727 169.101 26.9488 168.839 26.8249C168.577 26.701 168.446 26.577 168.184 26.577C167.267 26.4531 166.351 26.4531 165.434 26.577C164.91 26.577 164.256 26.701 163.601 26.8249H163.47L163.339 24.7183H163.47C164.779 24.4705 166.22 24.3466 167.529 24.3466C169.101 24.3466 170.41 24.5944 171.196 25.214C171.981 25.8336 172.374 26.701 172.374 27.9401V35.0033H169.886L169.624 33.7641C168.577 34.2598 167.136 34.7554 165.827 34.8794ZM167.006 26.0814C167.398 26.0814 167.791 26.0814 168.184 26.2053C168.446 26.2053 168.708 26.3292 168.97 26.577C169.232 26.701 169.363 26.9488 169.363 27.1966C169.494 27.5684 169.494 27.8162 169.494 28.1879V28.5597L166.875 28.6836C165.434 28.8075 164.387 29.0553 163.863 29.551C163.208 30.0467 162.946 30.7902 162.946 31.7815C162.946 32.525 163.208 33.2685 163.732 33.888C164.256 34.3837 164.91 34.6315 165.958 34.6315C167.267 34.6315 168.577 34.1359 169.624 33.2685H169.886L170.148 34.5076H172.243V27.5684C172.243 26.4531 171.851 25.5857 171.065 25.0901C170.279 24.5944 169.101 24.2227 167.529 24.2227C166.22 24.2227 164.91 24.3466 163.601 24.5944L163.732 26.3292C164.256 26.2053 164.91 26.2053 165.434 26.0814C165.958 26.0814 166.482 26.0814 167.006 26.0814ZM167.006 33.0206C166.089 33.0206 165.565 32.525 165.565 31.6576C165.565 31.1619 165.696 30.7902 166.089 30.5423C166.351 30.2945 167.006 30.1706 167.791 30.0467L169.624 29.9228V32.1532C169.232 32.4011 168.839 32.6489 168.446 32.7728C167.791 32.8967 167.398 32.8967 167.006 33.0206ZM169.363 30.0467L167.791 30.1706C167.006 30.1706 166.482 30.4184 166.22 30.5423C165.958 30.7902 165.696 31.1619 165.827 31.5337C165.827 32.2771 166.22 32.7728 167.136 32.7728C167.529 32.7728 167.922 32.6489 168.315 32.525C168.708 32.4011 169.101 32.1532 169.494 31.9054L169.363 30.0467Z" fill="white"/>
<path d="M78.6124 41.1993C74.4222 40.9514 71.8032 38.4731 71.8032 34.5078C71.8032 30.5426 74.4222 28.0643 78.6124 27.8164C81.3623 27.6925 83.4574 25.7099 83.3265 23.2316C83.1955 20.8772 81.2313 18.8945 78.6124 18.8945C75.9935 18.8945 73.7674 20.7533 73.8984 23.2316C74.0293 26.3294 72.5889 28.1882 69.7081 29.1795C66.6964 30.2947 64.0774 29.6752 61.5895 27.8164C60.411 26.949 59.8872 25.7099 59.8872 24.2229C59.8872 23.3555 59.7562 22.4881 59.4943 21.7446C58.7087 19.638 56.3516 18.5228 53.9946 19.0184C51.5066 19.638 49.9353 21.9924 50.4591 24.4707C50.9829 26.3294 52.8161 27.8164 54.9112 27.8164C57.792 27.9403 60.0181 29.0556 61.3276 31.5339C62.3751 33.3926 62.3751 35.6231 61.3276 37.4818C60.0181 39.9601 57.6611 41.0754 54.9112 41.1993C52.2923 41.3232 50.3281 43.3058 50.3281 45.7841C50.4591 47.7668 51.8995 49.5016 53.9946 49.9972C56.3516 50.6168 58.7087 49.3777 59.4943 47.2711C59.7562 46.4037 59.8872 45.6602 59.8872 44.7928C59.8872 43.3058 60.411 42.0667 61.5895 41.1993C64.0774 39.3405 66.6964 38.721 69.7081 39.8362C72.5889 40.8275 74.0293 42.6863 73.8984 45.7841C73.7674 48.3864 75.9935 50.2451 78.6124 50.1212C81.1004 50.1212 83.1955 48.1385 83.3265 45.7841C83.3265 43.3058 81.3623 41.3232 78.6124 41.1993Z" fill="url(#paint0_linear_5800_44992)"/>
<path d="M66.8284 41.1992C64.2095 41.1992 62.1144 43.3058 62.1144 45.6602C62.1144 48.1385 64.3405 50.1211 66.8284 50.1211C69.3164 50.1211 71.5425 48.0146 71.5425 45.6602C71.5425 43.1819 69.4473 41.1992 66.8284 41.1992Z" fill="white"/>
<path d="M55.1712 30.0469C52.5523 30.0469 50.4572 32.0295 50.4572 34.5078C50.4572 36.9861 52.5523 38.9688 55.1712 38.9688C57.7901 38.9688 59.8853 36.9861 59.8853 34.5078V34.3839C59.8853 32.0295 57.7901 30.0469 55.1712 30.0469Z" fill="white"/>
<path d="M83.3296 34.3839C83.1986 31.9056 81.1035 30.0469 78.4846 30.0469C75.8656 30.1708 73.7705 32.2773 73.9015 34.7557C74.0324 37.11 75.9966 38.9688 78.4846 39.0927C81.1035 39.0927 83.1986 37.234 83.3296 34.7557V34.3839Z" fill="white"/>
<path d="M66.8292 27.8161C69.4482 27.8161 71.5433 25.7095 71.5433 23.3551C71.5433 21.0007 69.4482 19.0181 66.9602 18.8942C64.3413 18.7703 62.1152 20.7529 62.1152 23.2312C61.9843 25.7095 64.0794 27.8161 66.6983 27.8161H66.8292Z" fill="white"/>
<path d="M100.219 47.0228C99.8266 47.5185 99.3029 47.8902 98.6481 48.0141C97.8625 48.262 97.2077 48.3859 96.422 48.3859C95.6364 48.3859 94.8507 48.262 94.196 47.8902C93.5412 47.5185 93.0175 47.0228 92.6246 46.2793C92.2318 45.5358 92.1008 44.6684 92.1008 43.9249V43.1814C92.1008 41.6945 92.4937 40.5792 93.2793 39.7118C94.065 38.8444 95.1126 38.4727 96.422 38.4727C97.6006 38.4727 98.5172 38.7205 99.1719 39.2161C99.8266 39.8357 100.35 40.5792 100.35 41.5705H98.6481C98.3862 40.4553 97.7315 39.8357 96.553 39.8357C95.8983 39.8357 95.1126 40.0836 94.7198 40.7031C94.3269 41.1988 94.065 42.0662 94.065 43.0575V43.801C94.065 44.7923 94.3269 45.6597 94.7198 46.2793C95.2435 46.8989 95.8983 47.1467 96.6839 47.1467C97.6006 47.1467 98.2553 46.8989 98.6481 46.5271V44.6684H96.553V43.4293H100.481L100.219 47.0228Z" fill="white"/>
<path d="M106.768 48.263C106.637 48.0152 106.637 47.7674 106.506 47.6435C105.982 48.1391 105.327 48.5109 104.542 48.5109C103.887 48.5109 103.232 48.263 102.708 47.8913C102.185 47.5195 101.923 46.9 101.923 46.4043C101.923 45.6608 102.185 45.0412 102.839 44.6695C103.494 44.2978 104.28 44.0499 105.458 44.0499H106.506V43.5543C106.506 43.1825 106.375 42.9347 106.244 42.6869C105.982 42.439 105.589 42.3151 105.196 42.3151C104.804 42.3151 104.542 42.439 104.28 42.5629C104.018 42.6869 103.887 42.9347 103.887 43.3064H102.185C102.185 42.9347 102.316 42.5629 102.577 42.1912C102.839 41.8194 103.232 41.5716 103.756 41.3238C104.28 41.076 104.804 40.952 105.327 41.076C106.113 41.076 106.899 41.3238 107.422 41.6955C107.946 42.1912 108.208 42.8108 108.208 43.4303V46.6521C108.208 47.1478 108.339 47.7674 108.47 48.263V48.387L106.768 48.263ZM104.934 47.0239C105.327 47.0239 105.589 46.9 105.851 46.7761C106.113 46.6521 106.375 46.4043 106.506 46.1565V44.7934H105.589C105.065 44.7934 104.542 44.9173 104.149 45.0412C103.887 45.2891 103.625 45.5369 103.625 45.9086C103.625 46.1565 103.756 46.4043 103.887 46.6521C104.28 47.0239 104.542 47.1478 104.934 47.0239Z" fill="white"/>
<path d="M111.741 41.0741V41.8176C112.265 41.198 113.051 40.9502 113.968 40.9502C115.015 40.9502 115.67 41.3219 116.063 42.0654C116.586 41.3219 117.503 40.9502 118.42 40.9502C119.205 40.9502 119.86 41.198 120.253 41.5698C120.646 42.0654 120.908 42.685 120.908 43.5524V48.2612H119.205V43.5524C119.205 43.1807 119.074 42.8089 118.943 42.5611C118.682 42.3133 118.289 42.1893 117.896 42.1893C117.503 42.1893 117.241 42.3133 116.979 42.4372C116.717 42.685 116.586 42.9328 116.455 43.1807V48.1373H114.753V43.4285C114.753 42.5611 114.229 42.1893 113.444 42.1893C112.789 42.1893 112.265 42.4372 112.003 42.9328V48.1373H110.301V40.9502L111.741 41.0741Z" fill="white"/>
<path d="M122.871 39.093C122.871 38.8452 123.002 38.5973 123.133 38.4734C123.264 38.3495 123.526 38.2256 123.788 38.2256C124.05 38.2256 124.311 38.3495 124.573 38.4734C124.704 38.5973 124.835 38.8452 124.835 39.093C124.835 39.3408 124.704 39.5887 124.573 39.7126C124.442 39.8365 124.181 39.9604 123.788 39.9604C123.526 39.9604 123.264 39.8365 123.133 39.7126C123.002 39.5887 122.871 39.3408 122.871 39.093ZM124.704 48.2627H123.002V41.0756H124.704V48.2627Z" fill="white"/>
<path d="M128.371 41.0741V41.9415C128.895 41.3219 129.681 40.9502 130.597 40.9502C132.169 40.9502 132.954 41.8176 133.085 43.5524V48.3851H131.383V43.6763C131.383 43.3046 131.252 42.9328 131.121 42.685C130.859 42.4372 130.466 42.3133 130.073 42.3133C129.419 42.3133 128.764 42.685 128.502 43.1807V48.2612H126.8V41.0741C126.8 41.0741 128.371 41.0741 128.371 41.0741Z" fill="white"/>
<path d="M134.657 44.5446C134.657 43.4294 134.919 42.562 135.443 41.8185C135.967 41.1989 136.752 40.8271 137.669 40.8271C138.455 40.8271 139.24 41.075 139.764 41.6946L139.895 40.9511H141.466V48.0142C141.466 48.8816 141.205 49.6251 140.55 50.2447C139.895 50.8643 138.978 51.1121 138.062 51.1121C137.538 51.1121 136.883 50.9882 136.36 50.7404C135.836 50.6164 135.443 50.2447 135.181 49.873L135.967 48.8816C136.49 49.5012 137.145 49.749 137.931 49.749C138.455 49.749 138.847 49.6251 139.24 49.2534C139.633 48.8816 139.764 48.386 139.764 48.0142V47.6425C139.24 48.1381 138.586 48.5099 137.8 48.386C136.883 48.386 136.098 48.0142 135.574 47.3947C134.919 46.6512 134.657 45.7838 134.657 44.5446ZM136.36 44.6685C136.36 45.2881 136.49 45.9077 136.883 46.4033C137.145 46.7751 137.669 47.0229 138.193 47.0229C138.847 47.0229 139.371 46.7751 139.764 46.1555V43.0576C139.502 42.562 138.847 42.1902 138.193 42.1902C137.669 42.1902 137.145 42.438 136.883 42.8098C136.36 43.4294 136.229 44.0489 136.36 44.6685Z" fill="white"/>
<defs>
<linearGradient id="paint0_linear_5800_44992" x1="51.7697" y1="20.2427" x2="80.2936" y2="50.3849" gradientUnits="userSpaceOnUse">
<stop offset="0.02" stop-color="#FFCE00"/>
<stop offset="0.44" stop-color="#FF1C03"/>
<stop offset="1" stop-color="#DE0021"/>
</linearGradient>
</defs>
</svg>
