<svg width="206" height="70" viewBox="0 0 206 70" fill="none" xmlns="http://www.w3.org/2000/svg">
<path d="M0.785156 0H188.896C198.224 0 205.785 7.56162 205.785 16.8894V70H43.4586C33.2192 70 24.0695 63.6059 20.5496 53.9906L0.785156 0Z" fill="#0B0E15"/>
<path d="M51.699 53.9989C51.699 53.6697 51.699 53.4505 51.699 53.231C51.699 48.5127 51.699 43.7944 51.699 39.0759C51.699 33.8091 56.0085 29.8589 61.5991 30.1881C62.9968 30.2978 64.3945 30.9562 65.7922 31.3951C66.3745 31.6146 66.491 31.9438 66.2581 32.4924C66.0251 33.1508 65.6757 33.6994 65.4427 34.4675C63.6957 33.2605 61.9486 32.7119 59.8521 33.041C56.9402 33.5897 54.7273 35.894 54.6108 38.7469C54.4943 42.6971 54.6108 46.6472 54.6108 50.7073C65.6757 50.7073 76.7405 50.7073 87.8054 50.7073C87.8054 50.378 87.8054 50.1586 87.8054 49.8294C87.8054 46.5374 87.8054 43.136 87.8054 39.8441C87.8054 39.4052 88.0384 38.9663 88.3878 38.6371C88.9701 37.9788 89.669 37.3204 90.3678 36.5523C90.4843 37.5399 90.7172 38.308 90.7172 39.0759C90.7172 43.904 90.7172 48.8417 90.7172 53.6697C90.7172 53.7795 90.7172 53.8892 90.7172 54.1087C77.6723 53.9989 64.6274 53.9989 51.699 53.9989Z" fill="white"/>
<path d="M90.4831 16.8015C90.4831 17.0209 90.4831 17.2404 90.4831 17.3501C90.4831 21.9587 90.4831 26.5673 90.4831 31.1758C90.3667 37.8692 82.796 42.0388 76.5064 38.747C75.8076 38.4179 75.6911 38.0887 75.9241 37.4303C76.157 36.8817 76.5064 36.333 76.7394 35.6747C78.2535 36.7719 79.7677 37.2109 81.5148 37.1011C84.543 36.9914 87.4549 34.5774 87.4549 31.7245C87.5713 27.6645 87.4549 23.7143 87.4549 19.6544C87.4549 19.6544 87.4549 19.5447 87.3384 19.435C76.39 19.435 65.3251 19.435 54.2602 19.435C54.2602 19.7641 54.2602 20.0933 54.2602 20.3128C54.2602 23.6046 54.2602 27.0062 54.2602 30.298C54.2602 30.6272 54.0272 31.0661 53.7943 31.3953C53.2119 32.0536 52.5131 32.712 51.8143 33.4801C51.6978 32.6023 51.4648 31.8342 51.4648 31.0661C51.4648 26.3478 51.4648 21.6295 51.4648 16.9112C51.4648 16.8015 51.4648 16.8015 51.5813 16.582C64.6262 16.8015 77.5547 16.8015 90.4831 16.8015Z" fill="white"/>
<path d="M56.5902 35.7839C61.2491 38.8563 65.5586 36.4423 66.9562 33.5894C68.4704 30.4073 66.8398 26.6765 63.462 25.5792C62.7632 26.0182 62.2973 26.4571 61.715 26.5668C60.8997 26.896 59.9679 26.6765 59.6185 26.0182C58.9196 24.8112 56.8231 24.3722 57.4055 22.6166C57.5219 22.068 57.9878 21.4096 58.4537 21.2999C59.6185 20.861 60.8997 20.6415 62.1808 20.5318C63.2291 20.422 64.0444 21.2999 64.0444 22.2874C64.0444 22.7263 64.1609 22.9458 64.6268 23.1652C69.6351 25.2501 71.7316 30.7365 69.2857 35.2353C66.8398 39.6243 60.8997 41.2704 56.2407 38.7466C55.7749 38.5271 55.5419 38.1979 55.7749 37.759C56.0078 37.1007 56.2407 36.4423 56.5902 35.7839Z" fill="white"/>
<path d="M78.9522 44.5616C80.5828 42.806 81.9805 43.0255 83.2617 44.7811C83.3782 45.0005 83.6111 45.1103 83.8441 45.22C84.6594 45.7687 85.1252 46.6464 84.7758 47.634C84.4264 48.6217 83.6111 49.1701 82.5629 49.1701C82.2134 49.1701 81.864 49.2799 81.5146 49.3896C80.1169 50.048 78.3698 49.2799 78.2534 47.8535C78.1369 47.1951 77.7875 46.9756 77.3216 46.7561C73.7108 45.0005 71.8473 42.2573 71.9638 38.5266C72.0802 34.9056 74.0603 32.3818 77.5545 30.8457C80.3499 29.6387 83.1452 29.8581 85.9406 31.1748C86.6394 31.504 86.7559 31.9429 86.5229 32.4916C86.29 33.0402 85.9406 33.5889 85.7076 34.2472C83.0287 32.4916 80.3499 32.1624 77.7875 33.8083C75.5745 35.125 74.6426 37.2099 74.992 39.6238C75.1085 42.0378 76.6228 43.5742 78.9522 44.5616Z" fill="white"/>
<path d="M72.3162 33.5886C70.9185 29.5286 73.1315 25.0298 77.3246 23.1644C77.9069 22.945 78.1399 22.7255 78.1399 22.1769C78.2563 20.7504 80.0034 19.9823 81.4011 20.6407C81.7505 20.7504 82.0999 20.8601 82.4494 20.8601C83.4976 20.8601 84.4294 21.5185 84.6623 22.3963C84.8953 23.2742 84.5459 24.2617 83.7306 24.8103C83.4976 24.9201 83.2647 25.0298 83.1482 25.2493C81.867 27.1146 80.3529 27.2243 78.8387 25.4687C76.3928 26.4563 75.1115 28.1022 74.6456 30.5162C74.5291 30.8454 74.2962 31.2843 74.0632 31.5037C73.5974 32.2718 73.015 32.9302 72.3162 33.5886Z" fill="white"/>
<path d="M63.3478 44.5625C65.6773 43.5751 67.075 41.9291 67.5409 39.515C67.6573 39.0761 67.8903 38.6373 68.2397 38.3081C68.8221 37.6497 69.4044 36.9914 70.1032 36.333C70.9186 38.747 70.5691 40.9416 69.2879 43.1362C68.3562 44.782 66.842 45.9891 64.9785 46.7571C64.5126 46.9765 64.1631 47.196 64.1631 47.7447C64.0467 49.1711 62.2996 49.9392 60.9019 49.3906C60.5525 49.2808 60.0866 49.1711 59.7372 49.1711C58.6889 49.1711 57.7572 48.5129 57.5242 47.635C57.2913 46.7571 57.6407 45.7697 58.456 45.221C58.6889 45.1112 58.9219 45.0015 59.0384 44.782C60.2031 43.0264 61.7172 42.9167 63.3478 44.5625Z" fill="white"/>
<path d="M104 32V20H106.077L110 28.0769L113.923 20H116V32H113.923V24.8462L110.462 32H109.769L106.077 24.8462V32H104Z" fill="white"/>
<path d="M118 32L121.745 20H125.255L129 32H126.66L123.383 21.3846H123.851L120.574 32H118ZM120.34 29.4615V27.3846H126.894V29.4615H120.34Z" fill="white"/>
<path d="M135.072 31.9975C134.119 31.9975 133.571 31.9066 132.857 31.6861C132.143 31.4657 131.429 31.0247 130.952 30.3632C130.476 29.7017 130.238 29.0402 130 28.3787L132.381 27.9378C132.619 28.5993 132.857 29.0402 133.571 29.4812C134.048 29.9222 134.762 29.9222 135.476 29.9222C135.952 29.9222 136.19 29.9222 136.667 29.7017C137.143 29.4812 137.381 29.4812 137.619 29.2607C137.857 29.0402 137.857 28.8197 137.857 28.3787C137.857 28.1583 137.857 28.1583 137.857 27.9378C137.857 27.9378 137.808 27.8173 137.619 27.7173C137.43 27.6173 137.353 27.5673 137.143 27.4968C136.893 27.4128 136.429 27.2763 136.429 27.2763L133.095 26.3943C132.857 26.3943 132.143 26.1738 132.143 26.1738C132.143 26.1738 131.429 25.9533 131.19 25.7329C130.952 25.5123 130.714 25.2918 130.476 24.8508C130.238 24.4099 130.238 23.9689 130.238 23.5279C130.238 22.6459 130.476 22.205 130.952 21.5435C131.429 20.882 131.905 20.6615 132.619 20.441C133.333 20.2205 134.048 20 135 20C135.952 20 136.667 20.2205 137.381 20.441C138.095 20.6615 138.571 21.1025 139.048 21.5435C139.524 21.9844 139.762 22.6459 140 23.3074L137.381 23.7484C137.381 23.3074 137.143 23.0869 136.905 22.8664C136.667 22.6459 136.429 22.4254 135.952 22.205C135.714 21.9844 135.238 21.9844 134.762 21.9844C134.286 21.9844 134.048 21.9844 133.81 22.205C133.571 22.205 133.333 22.4254 133.095 22.6459C132.857 22.8664 132.857 23.0869 132.857 23.3074C132.857 23.5279 132.857 23.7484 133.095 23.9689C133.333 24.1894 133.571 24.1894 133.81 24.4099C134.048 24.4099 134.286 24.6304 134.524 24.6304L136.667 25.0714C136.905 25.0714 137.381 25.2918 137.619 25.2918C138.095 25.5123 138.333 25.5123 138.81 25.7329C139.286 25.9533 139.524 26.1738 139.762 26.6148C140 27.0558 140 27.4968 140 28.1583C140 28.8197 139.762 29.2607 139.524 29.7017C139.286 30.1427 138.842 30.5164 138.349 30.827C137.895 31.1133 137.735 31.2155 136.827 31.6346C135.919 32.0537 135.548 31.9975 135.072 31.9975Z" fill="white"/>
<path d="M147 32C145.8 32 144.6 31.7778 143.64 31.3333C142.68 30.8889 141.96 30.2222 141.48 29.1111C141.24 28.2222 141 27.1111 141 26C141 24.8889 141.24 23.7778 141.72 22.8889C142.2 22 142.92 21.3333 143.88 20.6667C144.84 20.2222 145.8 20 147.24 20C148.68 20 149.88 20.2222 150.84 20.8889C151.8 21.5556 152.52 22.4444 153 23.5556L150.6 24.2222C150.36 23.5556 149.88 22.8889 149.4 22.6666C148.92 22.2222 148.2 22 147.24 22C146.52 22 145.8 22.2222 145.32 22.4444C144.84 22.6666 144.36 23.3333 144.12 23.7778C143.88 24.4444 143.64 25.1111 143.64 25.7778C143.64 26.4444 143.88 27.3333 144.12 27.7778C144.36 28.4444 144.84 28.8889 145.32 29.1111C145.8 29.3333 146.52 29.5556 147.24 29.5556C148.2 29.5556 148.92 29.3333 149.4 28.8889C149.88 28.4444 150.36 28 150.6 27.3333L153 28C152.52 29.1111 151.8 30 150.84 30.6666C149.88 31.3333 148.44 32 147 32Z" fill="white"/>
<path d="M160.5 32C159.25 32 158 31.7778 157 31.3333C156 30.8889 155.25 30.2222 154.75 29.1111C154.25 28.2222 154 27.1111 154 26C154 24.8889 154.25 23.7778 154.75 22.8889C155.25 22 156 21.3333 157 20.6667C158 20.2222 159 20 160.5 20C161.75 20 163 20.2222 164 20.6667C165 21.1111 165.75 21.7778 166.25 22.8889C166.75 23.7778 167 24.8889 167 26C167 27.1111 166.75 28.2222 166.25 29.1111C165.75 30 165 30.6666 164 31.3333C163 31.7778 162 32 160.5 32ZM160.5 30C161.25 30 162 29.7778 162.5 29.5556C163 29.3333 163.5 28.6666 163.75 28.2222C164 27.5556 164.25 26.8889 164.25 26C164.25 25.1111 164 24.4444 163.75 24C163.5 23.3333 163 22.8889 162.5 22.6666C162 22.4444 161.25 22.2222 160.5 22.2222C159.75 22.2222 159 22.4444 158.5 22.6666C158 22.8889 157.5 23.5556 157.25 24C157 24.6666 156.75 25.3333 156.75 26.2222C156.75 27.1111 157 27.7778 157.25 28.2222C157.5 28.6666 158 29.3333 158.5 29.5556C159 29.7778 159.75 30 160.5 30Z" fill="white"/>
<path d="M170.953 32V22.0769H167V20H177V22.0769H173.279V32H170.953Z" fill="white"/>
<path d="M108.76 51C108.04 51 107.32 50.7818 106.6 50.5636C105.88 50.3455 105.16 49.9091 104.68 49.4728C104.2 49.0364 103.72 48.3818 103.48 47.5091C103.24 46.8546 103 45.9818 103 44.8909C103 43.5818 103.24 42.4909 103.72 41.6182C104.2 40.7455 104.92 40.0909 105.88 39.6546C106.84 39.2182 107.8 39 108.76 39C110.44 39 111.64 39.4364 112.6 40.0909C113.56 40.7455 114.04 41.8364 114.52 42.9273L112.12 43.1455C111.88 42.4909 111.64 42.0546 110.92 41.6182C110.44 41.1818 109.72 40.9636 109 40.9636C108.28 40.9636 107.56 41.1818 107.08 41.4C106.6 41.6182 106.12 42.2727 105.88 42.7091C105.64 43.3636 105.4 44.0182 105.4 44.8909C105.4 45.7636 105.64 46.4182 105.88 46.8546C106.12 47.2909 106.6 47.9455 107.08 48.1636C107.56 48.3818 108.28 48.6 109 48.6C109.48 48.6 109.96 48.6 110.44 48.3818C110.92 48.1636 111.16 47.9455 111.64 47.5091C112.12 47.0728 112.12 46.6364 112.36 45.9818H110.44V44.2364H115C115 44.2364 115 44.4546 115 44.6727C115 44.8909 115 44.8909 115 44.8909C115 45.9818 114.76 46.8546 114.28 47.7273C113.8 48.6 113.08 49.2546 112.12 49.6909C110.92 50.7818 109.96 51 108.76 51Z" fill="white"/>
<path d="M115 51L118.745 39H122.255L126 51H123.66L120.383 40.3846H120.617L117.34 51H115ZM117.34 48.4615V46.3846H123.894V48.4615H117.34Z" fill="white"/>
<path d="M128 51V39H130.077L134 47.0769L137.923 39H140V51H137.923V43.8462L134.462 51H133.769L130.077 43.8462V51H128Z" fill="white"/>
<path d="M143 51V39H145V51H143Z" fill="white"/>
<path d="M148 51V39H150.326L155.674 47.0769V39H158V51H155.674L150.326 42.9231V51H148Z" fill="white"/>
<path d="M165.76 51C165.04 51 164.32 50.7818 163.6 50.5636C162.88 50.3455 162.16 49.9091 161.68 49.4728C161.2 49.0364 160.72 48.3818 160.48 47.5091C160.24 46.8546 160 45.9818 160 44.8909C160 43.5818 160.24 42.4909 160.72 41.6182C161.2 40.7455 161.92 40.0909 162.88 39.6546C163.84 39.2182 164.8 39 165.76 39C167.44 39 168.64 39.4364 169.6 40.0909C170.56 40.7455 171.04 41.8364 171.52 42.9273L169.12 43.1455C168.88 42.4909 168.64 42.0546 167.92 41.6182C167.44 41.1818 166.72 40.9636 166 40.9636C165.28 40.9636 164.56 41.1818 164.08 41.4C163.6 41.6182 163.12 42.2727 162.88 42.7091C162.64 43.3636 162.4 44.0182 162.4 44.8909C162.4 45.7636 162.64 46.4182 162.88 46.8546C163.12 47.2909 163.6 47.9455 164.08 48.1636C164.56 48.3818 165.28 48.6 166 48.6C166.48 48.6 166.96 48.6 167.44 48.3818C167.92 48.1636 168.16 47.9455 168.64 47.5091C169.12 47.0728 169.12 46.6364 169.36 45.9818H167.44V44.2364H172C172 44.2364 172 44.4546 172 44.6727C172 44.8909 172 44.8909 172 44.8909C172 45.9818 171.76 46.8546 171.28 47.7273C170.8 48.6 170.08 49.2546 169.12 49.6909C167.92 50.7818 166.96 51 165.76 51Z" fill="white"/>
</svg>
