<svg width="206" height="70" viewBox="0 0 206 70" fill="none" xmlns="http://www.w3.org/2000/svg">
<path d="M0.785156 0H188.896C198.224 0 205.785 7.56162 205.785 16.8894V70H43.4586C33.2192 70 24.0695 63.6059 20.5496 53.9906L0.785156 0Z" fill="#0B0E15"/>
<path d="M65.3679 42.4742C70.7758 42.4742 75.1598 38.4344 75.1598 33.451C75.1598 28.4676 70.7758 24.4277 65.3679 24.4277C59.9599 24.4277 55.5759 28.4676 55.5759 33.451C55.5759 38.4344 59.9599 42.4742 65.3679 42.4742Z" fill="url(#paint0_linear_5800_44993)"/>
<path d="M83.9698 29.7292C81.0322 29.6164 78.0946 29.3908 75.0347 29.278C76.993 26.9094 78.829 24.7664 80.665 22.5106C77.7274 23.6385 74.9123 24.7664 71.9747 26.0071C72.7091 23.5257 73.3211 21.1571 73.9331 18.7885C72.3419 20.142 70.7507 21.4955 69.0371 22.849C68.9147 20.4804 68.6699 18.2246 68.5475 15.9688C68.4251 15.9688 68.4251 15.9688 68.4251 15.9688C66.9563 18.4501 65.3651 20.9315 63.8963 23.4129C62.3051 21.2699 60.7139 19.1269 59.2452 17.0967C59.1228 17.0967 59.1228 17.0967 59.1228 17.0967C59.3676 19.6908 59.6124 22.285 59.8572 24.8792C57.4092 23.1873 54.8388 21.4955 52.3908 19.8036C53.4924 22.285 54.594 24.6536 55.818 27.0222C53.37 26.5711 51.0444 26.1199 48.7188 25.6687C50.7996 27.4734 52.8804 29.3908 55.0836 31.3083C52.0236 31.7594 49.086 32.3234 46.1484 32.8873C46.1484 33.0001 46.1484 33.0001 46.1484 33.0001C48.7188 33.7896 51.2892 34.692 53.8596 35.4815C51.534 36.7222 49.4532 37.8501 47.25 39.0908C47.25 39.2036 47.25 39.2036 47.25 39.2036C50.0652 38.8652 53.0028 38.6396 56.0628 38.3013C54.2268 40.5571 52.3908 42.699 50.5548 44.8431C53.2476 43.6024 56.0628 42.3617 58.878 41.121C58.3884 43.9408 57.8988 46.7605 57.4092 49.5803C57.5316 49.5803 57.5316 49.5803 57.5316 49.5803C59.1228 47.7745 60.8363 45.8582 62.5499 43.9408C63.2843 45.8582 63.8963 47.7745 64.6307 49.6931C64.7531 49.6931 64.7531 49.6931 64.7531 49.6931C65.4875 47.7757 66.2219 45.8594 66.9563 43.9408C68.6699 45.971 70.5059 48.0012 72.2195 50.0303C71.9747 47.0989 71.7299 44.1664 71.3627 41.3466C73.9331 42.8129 76.381 44.2792 78.829 45.7443C77.7274 43.1501 76.5034 40.4432 75.4019 37.849C77.9722 37.849 80.665 37.7362 83.2354 37.7362C83.2354 37.6223 83.2354 37.6223 83.2354 37.6223C80.7874 36.6083 78.3394 35.706 75.7691 34.6897C78.4618 33.1106 81.277 31.4188 83.9698 29.8397C83.9698 29.7292 83.9698 29.7292 83.9698 29.7292ZM65.2427 42.3617C60.1019 42.2489 55.4508 38.3013 55.6956 32.8873C55.9404 28.3757 59.9796 24.428 65.3651 24.428C70.7507 24.428 75.0347 28.4885 75.0347 33.3385C75.0347 38.1885 70.7507 42.2489 65.2427 42.3617Z" fill="#FFCC00"/>
<path d="M71.7289 35.5952C71.4841 35.2568 71.3617 34.8056 71.1169 34.4673C70.9945 34.3545 70.9945 34.3545 70.8721 34.2417C70.8721 34.3556 70.8721 34.3556 70.8721 34.4673C70.9945 34.6929 70.9945 34.9184 71.1169 35.1451C69.0361 35.9336 61.937 35.8208 59.1218 35.0312C59.2442 34.8056 59.6114 34.4673 59.489 34.1289C58.9994 34.8056 58.5098 35.3696 57.7754 35.8208C58.265 35.8208 58.5098 35.4824 58.7546 35.3696C59.3666 36.1591 59.9786 36.9487 60.713 37.6254C62.1818 38.9789 63.773 39.6568 65.8537 39.4312C67.2001 39.2056 68.3017 38.7533 69.2809 37.9649C70.1377 37.287 70.8721 36.4975 71.3617 35.5952C71.6065 35.8208 71.7289 35.9336 71.9737 36.1591C71.9737 36.1591 72.0961 36.1591 72.2185 36.1591C72.0961 36.0463 72.0961 36.0463 72.0961 35.9336C71.9737 35.8208 71.8513 35.708 71.7289 35.5952ZM70.1377 36.7231C69.2809 37.6254 68.3017 38.4149 67.0777 38.8661C65.1193 39.5428 63.4058 39.2045 61.6922 38.0766C60.8354 37.3998 59.7338 36.2719 59.3666 35.4824C63.2834 36.2719 67.0777 36.2719 70.8721 35.708C70.6273 36.0463 70.3825 36.3847 70.1377 36.7231Z" fill="#242422"/>
<path d="M69.5258 32.3232C69.6482 32.2104 69.893 32.2104 69.893 32.0976C69.893 31.7593 69.893 31.4209 70.0154 31.1953C69.6482 31.1953 69.281 31.7593 69.5258 32.3232Z" fill="white"/>
<path d="M70.6353 31.3091C70.5129 30.9707 70.3905 30.7451 70.0233 30.7451C69.7785 30.7451 69.5337 30.9707 69.4113 31.1963C68.7994 32.2114 69.0441 33.1137 69.1665 33.2265C69.2889 33.6765 69.7785 33.7905 70.1457 33.4521C70.7577 32.8881 70.8801 32.0986 70.6353 31.3091ZM69.9009 32.0986C69.9009 32.2114 69.6561 32.2114 69.5337 32.3242C69.2889 31.7602 69.6561 31.1963 70.0233 31.1963C69.9009 31.4219 69.9009 31.7602 69.9009 32.0986Z" fill="#242422"/>
<path d="M59.492 30.2937C59.2472 30.1809 58.88 30.4065 58.7576 30.632C58.5128 31.0832 58.3904 31.5344 58.3904 31.9855C58.3904 32.0983 58.3904 32.2111 58.3904 32.2111C58.3904 32.5495 58.6352 33.0006 59.0024 33.0006C59.2472 33.0006 59.6144 32.7751 59.7368 32.4367C59.9816 31.9855 60.104 31.4216 59.9816 30.8576C59.9816 30.632 59.8592 30.4065 59.492 30.2937ZM59.1248 31.6472C59.1248 31.7599 58.88 31.7599 58.7576 31.8727C58.6352 31.196 58.88 30.7448 59.3696 30.7448C59.2472 31.0832 59.2472 31.3088 59.1248 31.6472Z" fill="#242422"/>
<path d="M64.0191 33.226C64.5087 33.226 64.8759 33.226 65.3655 33.226C65.3655 33.3388 65.3655 33.4516 65.3655 33.5644C65.3655 33.6771 65.3655 33.6771 65.3655 33.7899C65.4879 33.7899 65.4879 33.7899 65.4879 33.7899C65.4879 33.676 65.6103 33.676 65.6103 33.5644C65.7327 33.226 65.6103 33.0004 65.2431 33.0004C64.7535 33.0004 64.3863 33.0004 63.8967 33.0004C63.2847 33.0004 62.7951 32.662 62.6727 32.0981C62.4279 31.4213 62.6727 30.8574 63.1623 30.4062C63.6519 29.8423 64.3863 29.5039 65.1207 29.2783C65.2431 29.2783 65.3655 29.1655 65.4879 29.1655C65.2431 29.0527 65.1207 29.0527 64.9983 29.0527C64.3863 29.2783 63.6519 29.5039 63.1623 29.9551C62.6727 30.4062 62.3055 30.8574 62.3055 31.5341C62.1831 32.5492 62.9175 33.226 64.0191 33.226Z" fill="#242422"/>
<path d="M59.7331 29.2797C60.7123 29.5052 60.9571 30.182 61.0795 30.9715C61.2019 29.8436 60.5899 29.0541 59.7331 28.9413C58.6315 28.7157 57.8971 29.5052 57.6523 30.4076C58.1419 29.7308 58.6315 29.0541 59.7331 29.2797Z" fill="#242422"/>
<path d="M70.2634 29.73C71.2426 29.9556 71.7322 30.6324 71.977 31.5347C71.977 30.4068 71.2426 29.5045 70.2634 29.3917C69.1618 29.2789 68.5499 30.0684 68.3051 30.8579C68.7947 30.1812 69.2842 29.6172 70.2634 29.73Z" fill="#242422"/>
<path d="M95.9623 24.9936C96.6967 24.2041 97.4311 23.4145 98.1654 22.625C98.2878 22.5122 98.655 22.3994 98.8998 22.2866C100.001 22.2866 101.103 22.2866 102.327 22.2866C102.694 22.2866 102.817 22.3994 102.817 22.7378C102.817 25.8959 102.817 28.9413 102.817 32.0994C102.817 32.4378 102.694 32.5506 102.327 32.5506C101.225 32.5506 100.246 32.5506 99.1446 32.5506C98.7774 32.5506 98.655 32.4378 98.655 32.0994C98.655 30.0692 98.655 28.0389 98.655 26.0087C98.655 26.0087 98.655 25.8959 98.655 25.7831C97.7983 26.6854 96.9415 27.7006 95.9623 28.6029C95.1055 27.7006 94.2487 26.7982 93.2695 25.7831C93.2695 26.1215 93.2695 26.2343 93.2695 26.3471C93.2695 28.2645 93.2695 30.182 93.2695 31.9866C93.2695 32.325 93.1471 32.4378 92.7799 32.4378C91.6783 32.4378 90.6991 32.4378 89.5975 32.4378C89.2303 32.4378 89.1079 32.325 89.1079 31.9866C89.1079 28.8285 89.1079 25.7831 89.1079 22.625C89.1079 22.2866 89.2303 22.1738 89.5975 22.1738C90.6991 22.1738 91.9231 22.1738 93.0247 22.1738C93.2695 22.1738 93.5143 22.2866 93.6367 22.3994C94.3711 23.0762 94.9831 23.7529 95.5951 24.5424C95.7175 24.8808 95.8399 24.8808 95.9623 24.9936Z" fill="white"/>
<path d="M160.469 32.4378C159.122 32.4378 157.898 32.4378 156.674 32.4378C156.306 32.4378 156.306 32.2122 156.306 31.9866C156.306 30.7459 156.306 29.3924 156.306 28.1517C156.306 26.3471 156.306 24.5424 156.306 22.7378C156.306 22.625 156.306 22.3994 156.306 22.1738C156.551 22.1738 156.674 22.1738 156.918 22.1738C159.122 22.1738 161.202 22.1738 163.406 22.1738C164.141 22.1738 164.874 22.2866 165.609 22.5122C166.833 22.8506 167.445 23.7529 167.568 24.8808C167.691 25.5575 167.323 26.2343 166.833 26.7982C166.589 27.0238 166.344 27.2494 165.977 27.5878C167.323 28.9413 167.935 30.5203 168.425 32.325C167.813 32.325 167.201 32.325 166.711 32.325C166.099 32.325 165.365 32.325 164.753 32.325C164.508 32.325 164.263 32.325 164.263 31.9866C163.775 30.2947 162.672 29.054 160.836 28.2645C160.836 28.2645 160.714 28.2645 160.591 28.1517C160.469 29.7308 160.469 31.0843 160.469 32.4378ZM160.591 23.5273C160.591 24.5424 160.591 25.5575 160.591 26.6854C161.448 26.911 162.184 26.6854 162.672 26.0087C163.039 25.4448 163.039 24.8808 162.672 24.3168C162.182 23.6401 161.448 23.4145 160.591 23.5273Z" fill="white"/>
<path d="M128.027 32.4373C126.559 32.4373 125.212 32.4373 123.866 32.4373C123.254 30.5198 122.154 29.0536 120.072 28.264C120.072 29.7303 120.072 31.0838 120.072 32.4373C118.725 32.4373 117.379 32.4373 116.032 32.4373C116.032 29.0536 116.032 25.6698 116.032 22.2861C116.155 22.2861 116.277 22.2861 116.4 22.2861C118.603 22.2861 120.928 22.2861 123.132 22.2861C123.866 22.2861 124.723 22.5117 125.457 22.7373C126.681 23.0757 127.169 24.0908 127.169 25.1059C127.169 25.6698 126.925 26.3466 126.435 26.7978C126.311 26.9105 126.19 27.0233 126.068 27.2489C125.578 27.7001 125.456 27.5873 126.068 28.1512C126.923 29.0536 127.292 30.0687 127.659 31.1966C127.783 31.5349 127.905 31.9861 128.027 32.4373ZM120.194 26.685C120.439 26.685 120.562 26.685 120.806 26.685C121.542 26.7978 122.03 26.3466 122.275 25.8954C122.642 25.3315 122.642 24.7675 122.152 24.2036C121.663 23.6396 121.051 23.414 120.316 23.5268C120.193 23.5268 120.072 23.6396 120.072 23.7524C120.194 24.6547 120.194 25.6698 120.194 26.685Z" fill="white"/>
<path d="M129.623 22.4004C130.847 22.4004 132.071 22.4004 133.418 22.4004C133.541 22.4004 133.662 22.626 133.662 22.7388C133.662 23.7539 133.662 24.6562 133.662 25.6713C133.662 25.7841 133.662 26.0097 133.662 26.1225C134.763 26.2353 135.498 25.7841 136.11 25.2202C136.844 24.5434 137.334 23.6411 137.701 22.8516C137.823 22.5132 137.946 22.5132 138.313 22.5132C139.413 22.5132 140.516 22.5132 141.616 22.5132C141.985 22.5132 142.106 22.626 141.985 22.9643C141.616 24.3178 140.883 25.6713 140.025 26.7992C139.168 27.8143 139.168 27.3632 140.025 28.3783C141.004 29.619 141.739 30.8597 142.351 32.326C142.473 32.5515 142.351 32.6643 142.106 32.6643C140.882 32.6643 139.658 32.6643 138.312 32.6643C138.188 32.6643 137.943 32.4387 137.822 32.326C137.455 31.0853 136.843 29.9574 135.741 29.055C135.007 28.4911 134.884 28.3783 133.783 28.4911C133.783 29.8446 133.783 31.198 133.783 32.6643C132.435 32.6643 131.09 32.6643 129.744 32.6643C129.623 29.1678 129.623 25.7841 129.623 22.4004Z" fill="white"/>
<path d="M143.453 22.3989C144.677 22.3989 145.901 22.3989 147.125 22.3989C147.494 22.3989 147.37 22.6245 147.37 22.8501C147.37 24.5419 147.37 26.2338 147.37 27.9257C147.37 28.4896 147.737 28.9408 148.349 29.0536C149.206 29.1664 149.818 28.9408 150.063 28.264C150.063 28.1512 150.063 27.9257 150.063 27.8129C150.063 26.121 150.063 24.5419 150.063 22.8501C150.063 22.5117 150.185 22.2861 150.675 22.2861C151.654 22.2861 152.756 22.2861 153.735 22.2861C154.102 22.2861 154.224 22.3989 154.224 22.7373C154.224 24.7675 154.224 26.7978 154.101 28.828C153.978 30.5198 152.632 32.0989 150.552 32.4373C149.817 32.5501 148.96 32.6629 148.104 32.5501C145.533 32.4373 143.943 31.3094 143.331 28.9408C143.331 28.828 143.331 28.7152 143.331 28.6024C143.331 26.5722 143.331 24.6547 143.331 22.6245C143.453 22.6245 143.453 22.5117 143.453 22.3989Z" fill="white"/>
<path d="M105.016 32.4373C105.016 29.0536 105.016 25.6698 105.016 22.2861C105.138 22.2861 105.383 22.2861 105.505 22.2861C108.076 22.2861 110.768 22.2861 113.339 22.2861C113.706 22.2861 113.828 22.3989 113.951 22.7373C113.951 23.8652 113.951 23.8652 112.727 23.8652C111.625 23.8652 110.646 23.8652 109.544 23.8652C109.176 23.8652 109.055 23.978 109.055 24.3164C109.055 24.9931 109.055 25.6698 109.055 26.3466C109.055 26.685 109.177 26.7978 109.544 26.7978C110.4 26.7978 111.136 26.7978 111.992 26.7978C112.236 26.7978 112.36 26.9105 112.36 27.1361C112.36 28.4896 112.604 28.264 111.136 28.264C110.524 28.264 110.034 28.264 109.422 28.264C109.055 28.264 108.934 28.3768 108.934 28.6024C108.934 29.2791 108.934 29.9559 108.934 30.6326C108.934 30.971 109.056 31.0838 109.422 31.0838C110.646 31.0838 111.994 31.0838 113.218 31.0838C113.585 31.0838 113.706 31.1966 113.706 31.535C113.706 32.5501 113.706 32.5501 112.606 32.5501C110.28 32.5501 107.832 32.5501 105.506 32.5501C105.505 32.4373 105.26 32.4373 105.016 32.4373Z" fill="white"/>
<path d="M127.662 37.2874C127.417 37.7385 127.173 38.0769 127.05 38.5292C126.561 39.5432 126.193 40.4455 125.826 41.4618C125.337 42.4769 124.969 43.3792 124.479 44.3943C124.235 44.8443 123.99 45.2955 123.868 45.7467C123.745 46.085 123.501 46.3106 123.256 46.1978C122.889 46.0839 122.521 45.9722 122.4 45.7467C121.911 44.8443 121.543 43.8292 121.176 42.8141C120.685 41.799 120.318 40.8967 119.829 39.8816C119.584 39.3176 119.34 38.7537 119.094 38.1897C118.972 38.0769 118.972 37.8513 118.849 37.7385C118.237 37.9641 118.237 38.1897 118.237 38.5281C118.237 40.67 118.237 42.9258 118.237 45.0699C118.237 45.2955 118.237 45.4083 118.237 45.6339C118.237 45.9722 117.993 46.1978 117.625 46.1978C117.258 46.1978 117.136 45.9722 117.136 45.6339C117.136 44.8443 117.136 44.0548 117.136 43.2641C117.136 41.0083 117.136 38.8664 117.136 36.6106C117.136 35.7083 117.504 35.4827 118.36 35.7083C118.483 35.7083 118.728 35.8211 118.849 36.0467C119.217 36.8362 119.584 37.6246 119.951 38.4153C120.439 39.4304 120.93 40.4455 121.297 41.4606C121.542 42.0246 121.787 42.4757 122.032 43.0397C122.277 43.6036 122.521 44.1676 122.767 44.6176C122.767 44.6176 122.89 44.7315 123.012 44.8432C123.256 44.6176 123.501 44.5048 123.624 44.1665C123.868 43.7153 123.991 43.263 124.236 42.813C124.848 41.3467 125.583 39.7676 126.195 38.3014C126.439 37.7374 126.684 37.1735 126.929 36.4956C127.174 35.8188 127.786 35.4816 128.643 35.7072C128.765 35.7072 128.887 35.82 129.01 35.9316C129.131 36.1595 129.131 36.2723 129.131 36.4978C129.131 39.5432 129.131 42.5885 129.131 45.635C129.131 45.9734 129.131 46.199 128.763 46.3117C128.274 46.4234 128.029 46.1978 128.029 45.6339C128.029 44.1676 128.029 42.5885 128.029 41.1223C128.029 40.1071 128.029 39.092 128.029 38.0769C128.029 37.8513 127.907 37.6258 127.907 37.4002C127.785 37.2874 127.662 37.2874 127.662 37.2874Z" fill="white"/>
<path d="M146.145 37.4005C146.145 37.625 146.023 37.8506 146.023 38.0773C146.023 40.4459 146.023 42.8145 146.023 45.1831C146.023 45.297 146.023 45.5214 146.023 45.6342C146.023 45.9726 145.899 46.1982 145.533 46.1982C145.167 46.1982 144.921 45.9726 144.921 45.6342C144.921 42.4761 144.921 39.4308 144.921 36.2726C144.921 36.047 145.166 35.7087 145.289 35.5948C145.656 35.3703 146.023 35.3703 146.39 35.7087C146.757 36.1587 147.002 36.4971 147.369 36.9494C148.349 38.5284 149.329 39.9947 150.185 41.5738C150.674 42.4761 151.286 43.2656 151.776 44.168C151.776 44.168 151.898 44.2808 152.019 44.3924C152.143 44.054 152.143 43.7157 152.143 43.4901C152.143 41.1215 152.143 38.8657 152.143 36.4971C152.143 36.2726 152.143 36.047 152.265 35.8203C152.389 35.7075 152.633 35.5948 152.755 35.5948C152.877 35.5948 153.122 35.8203 153.122 35.9331C153.245 36.1587 153.245 36.2726 153.245 36.4971C153.245 39.5424 153.245 42.4761 153.245 45.5203C153.245 45.8598 153.245 46.0843 152.877 46.1982C152.389 46.311 151.777 46.1982 151.653 45.8598C150.797 44.3924 149.817 42.9261 148.961 41.461C148.226 40.3331 147.493 39.2052 146.757 38.0773C146.635 37.8517 146.39 37.6261 146.145 37.4005C146.268 37.4005 146.145 37.4005 146.145 37.4005Z" fill="white"/>
<path d="M168.423 43.2645C168.423 43.8284 168.423 44.5063 168.423 45.0702C168.423 45.6342 168.178 45.9726 167.566 46.0842C165.854 46.4237 164.262 46.6482 162.548 46.0842C161.324 45.6342 160.345 44.9563 159.733 43.8284C158.754 42.2494 158.754 40.5575 159.366 38.7528C159.734 37.7389 160.467 36.8365 161.446 36.1587C162.794 35.3691 164.262 35.1447 165.73 35.2563C166.342 35.3691 166.954 35.4819 167.444 35.7075C167.811 35.8203 167.811 36.1575 167.689 36.3842C167.565 36.7226 167.32 36.6098 167.077 36.497C165.117 35.9331 163.281 35.9331 161.569 37.2866C160.833 37.8505 160.345 38.5284 160.345 39.4296C160.222 40.1063 160.222 40.7831 160.222 41.4598C160.346 44.054 162.303 45.1819 164.751 45.2947C165.486 45.2947 166.22 45.1808 166.832 44.9552C166.954 44.9552 167.199 44.6168 167.199 44.5052C167.199 43.6028 167.199 42.5877 167.199 41.6854C167.199 41.347 166.954 41.1214 166.587 41.1214C166.098 41.1214 165.608 41.1214 164.996 41.1214C164.872 41.1214 164.506 40.8959 164.506 40.7831C164.506 40.5575 164.63 40.2191 164.996 40.2191C165.853 40.2191 166.832 40.2191 167.689 40.2191C168.177 40.2191 168.301 40.6692 168.301 41.0075C168.423 41.911 168.423 42.5877 168.423 43.2645Z" fill="white"/>
<path d="M98.0432 43.2649C98.0432 43.8288 98.0432 44.5067 98.0432 45.0706C98.0432 45.6346 97.676 45.9729 97.1864 46.0846C95.4728 46.4241 93.7592 46.6486 92.168 46.0846C90.8217 45.6346 89.8425 44.8439 89.2305 43.716C88.4961 42.2497 88.4961 40.7835 88.8633 39.2044C89.1081 38.0765 89.9649 37.0614 91.0665 36.3846C92.4128 35.5951 93.7592 35.3695 95.3504 35.4823C95.9624 35.5951 96.5744 35.7079 97.1864 35.9323C97.5536 36.0463 97.676 36.2718 97.4312 36.6102C97.3088 36.9486 97.064 36.8358 96.6968 36.8358C94.7384 36.2718 92.78 36.3846 91.1889 37.6242C90.5769 38.1882 90.0873 38.866 89.9649 39.6556C89.7201 41.0079 89.5977 42.2497 90.4545 43.4893C90.9441 44.2788 91.6784 44.9556 92.78 45.2951C94.004 45.6334 95.228 45.7451 96.452 45.4079C96.9416 45.2951 97.1864 45.0695 97.1864 44.6183C97.1864 43.8288 97.1864 43.0404 97.1864 42.2497C97.1864 41.6858 96.9416 41.4602 96.3296 41.4602C95.84 41.4602 95.3504 41.4602 94.8608 41.4602C94.7384 41.4602 94.4936 41.2346 94.3712 41.1218C94.4936 41.0079 94.616 40.6707 94.8608 40.6707C95.228 40.5579 95.7176 40.5579 96.0848 40.5579C96.452 40.5579 96.9416 40.5579 97.3088 40.5579C97.9208 40.5579 98.1656 40.7835 98.1656 41.3474C98.0432 41.9114 98.0432 42.5881 98.0432 43.2649Z" fill="white"/>
<path d="M111.753 46.3097C111.508 46.0841 111.264 45.8597 111.141 45.5202C110.896 44.9562 110.652 44.3923 110.529 43.8283C110.407 43.3771 110.162 43.2644 109.672 43.2644C108.081 43.2644 106.49 43.2644 104.899 43.2644C104.532 43.2644 104.287 43.4899 104.164 43.8283C103.92 44.5051 103.552 45.1818 103.185 45.8585C103.063 46.083 102.818 46.3086 102.451 46.1969C102.206 46.083 102.084 45.9713 102.206 45.7457C102.94 44.2795 103.552 42.7004 104.164 41.2341C104.776 39.8806 105.388 38.5283 106.123 37.0609C106.368 36.6108 106.49 36.1586 106.857 35.8202C107.102 35.4818 107.592 35.4818 107.836 35.8202C108.081 36.0458 108.204 36.3841 108.326 36.7225C108.814 37.7376 109.305 38.7527 109.672 39.7679C109.917 40.219 110.04 40.6702 110.284 41.1213C110.774 42.2492 111.386 43.4899 111.876 44.6178C111.999 44.9562 112.12 45.2957 112.365 45.633C112.488 46.0841 112.243 46.1969 111.753 46.3097ZM107.224 42.4748C107.714 42.4748 108.326 42.4748 108.816 42.4748C109.305 42.4748 109.551 42.2492 109.428 41.797C109.305 41.3469 109.06 40.8946 108.816 40.4435C108.448 39.5411 108.081 38.5272 107.592 37.6237C107.469 37.512 107.224 37.3993 107.102 37.2865C106.98 37.2865 106.857 37.512 106.735 37.6248C106.612 37.8504 106.612 38.076 106.49 38.1888C106 39.3167 105.511 40.5585 104.899 41.6864C104.654 42.2504 104.776 42.3632 105.388 42.476C106.123 42.4748 106.735 42.4748 107.224 42.4748Z" fill="white"/>
<path d="M136.473 41.009C136.473 39.5427 136.473 38.0765 136.473 36.6113C136.473 36.3857 136.473 36.1601 136.595 36.0474C136.718 35.9334 136.963 35.709 137.085 35.709C137.207 35.709 137.452 35.9334 137.573 36.0474C137.697 36.159 137.697 36.3846 137.697 36.4974C137.697 39.5427 137.697 42.5881 137.697 45.5206C137.697 45.8601 137.697 46.0846 137.207 46.1985C136.718 46.3102 136.595 46.0846 136.595 45.6334C136.473 44.0544 136.473 42.4753 136.473 41.009Z" fill="white"/>
<defs>
<linearGradient id="paint0_linear_5800_44993" x1="58.3692" y1="27" x2="71.1385" y2="40.8571" gradientUnits="userSpaceOnUse">
<stop stop-color="white"/>
<stop offset="1" stop-color="#FFF2A9"/>
</linearGradient>
</defs>
</svg>
