<svg width="206" height="70" viewBox="0 0 206 70" fill="none" xmlns="http://www.w3.org/2000/svg">
<path d="M0.785156 0H188.896C198.224 0 205.785 7.56162 205.785 16.8894V70H43.4586C33.2192 70 24.0695 63.6059 20.5496 53.9906L0.785156 0Z" fill="#0B0E15"/>
<path d="M111.793 13.8877H110.524V56.1125H111.793V47.963H127.98V43.0568H115.548V37.4083H126.175V32.4554H115.548V26.9446H127.98V21.9917H111.793V13.8877Z" fill="#77BD1F"/>
<path d="M61.3782 37.9176L56.7943 30.8804L50.8462 22.0844L50.7971 21.9922H45.9219V47.9635H51.3329V32.0393L55.381 38.2433L61.9128 47.9635H66.8384V21.9922H61.3782V37.9176Z" fill="white"/>
<path d="M69.9141 47.9635H87.8049V43.0573H75.325V37.4088H86.002V32.4559H75.325V26.9451H87.8049V21.9922H69.9141V47.9635Z" fill="white"/>
<path d="M89.9912 26.9918H96.2809V47.9635H101.741V26.9918H107.935V21.9922H89.9912V26.9918Z" fill="white"/>
<path d="M146.163 37.9637L141.58 30.9265L135.681 22.1293L135.583 22.0371H130.709V48.012H136.12V32.0387L140.166 38.287L146.699 48.012H151.624V22.0371H146.163V37.9637Z" fill="#77BD1F"/>
<path d="M153.871 22.0371V27.0367H160.11V48.012H165.573V27.0367H171.812V22.0371H153.871Z" fill="#77BD1F"/>
</svg>
