<svg width="206" height="70" viewBox="0 0 206 70" fill="none" xmlns="http://www.w3.org/2000/svg">
<path d="M0.785156 0H188.896C198.224 0 205.785 7.56162 205.785 16.8894V70H43.4586C33.2192 70 24.0695 63.6059 20.5496 53.9906L0.785156 0Z" fill="#0B0E15"/>
<path d="M142.53 27.0536C142.081 27.0536 141.633 27.0536 141.184 27.0536C140.587 27.0536 140.587 27.0536 140.587 26.4744C140.436 25.6056 140.138 24.8816 139.688 24.3024C139.091 23.4337 138.043 22.9993 136.995 22.8545C135.948 22.7097 134.903 22.8545 134.004 23.2889C132.807 23.8681 132.059 24.8816 131.911 26.1848C131.76 27.0536 131.76 27.0536 130.864 27.0536C129.965 27.0536 129.217 27.0536 128.321 27.0536C128.022 27.0536 127.872 26.9088 127.872 26.6192C127.721 25.6056 127.274 24.592 126.376 23.7233C125.329 22.8545 124.132 22.5649 122.786 22.7097C120.542 22.9993 119.345 24.3024 119.046 26.3296C118.897 26.9088 118.897 26.9088 118.298 26.9088C117.401 26.9088 116.503 26.9088 115.458 26.9088C115.158 26.9088 115.007 26.764 115.158 26.4744C115.458 25.1712 115.755 23.8681 116.503 22.7097C117.402 21.2617 118.597 20.1033 120.243 19.5241C122.186 18.8001 124.131 18.6553 125.926 19.3793C127.123 19.8137 128.019 20.5377 128.918 21.4065C129.215 21.6961 129.366 21.9857 129.666 22.1305C129.815 22.4201 129.963 22.2753 130.262 22.1305C131.01 21.2617 131.758 20.5377 132.657 19.9585C134.153 19.0897 135.649 18.8001 137.295 18.9449C138.342 19.0897 139.239 19.2345 140.137 19.6689C141.482 20.2481 142.53 21.2617 143.278 22.5649C144.026 23.7233 144.325 25.1712 144.624 26.4744C144.624 26.764 144.624 26.9088 144.174 26.9088C143.577 27.0536 143.129 27.0536 142.53 27.0536Z" fill="#FFFE00"/>
<path d="M67.2949 28.2121C67.7437 28.2121 68.3421 28.2121 68.7908 28.2121C69.09 28.2121 69.2396 28.3569 69.2396 28.6465C69.2396 29.3705 69.3892 30.2393 69.5388 30.9633C69.9875 32.8457 72.0818 34.4384 74.0265 34.4384C75.2232 34.4384 76.4199 34.4384 77.467 34.004C78.9629 33.4248 80.01 32.4113 80.6084 30.9633C80.9076 30.2393 80.9076 29.5153 80.9076 28.6465C80.9076 28.3569 80.9076 28.2121 81.3563 28.2121C82.4035 28.2121 83.301 28.2121 84.3481 28.2121C84.6473 28.2121 84.6473 28.3569 84.7969 28.6465C84.9465 30.8185 84.3481 32.8457 83.1514 34.728C82.1043 36.3208 80.6084 37.3344 78.6637 37.7688C75.9711 38.4928 73.2785 38.4928 70.5859 37.3344C68.9404 36.6104 67.7437 35.452 66.8462 34.004C65.799 32.4113 65.3503 30.5289 65.4998 28.6465C65.4998 28.3569 65.6494 28.2121 65.9486 28.2121C66.2478 28.2121 66.8462 28.0673 67.2949 28.2121C67.2949 28.0673 67.2949 28.0673 67.2949 28.2121Z" fill="#FFFE00"/>
<path d="M82.8525 27.0538C82.4037 27.0538 81.9549 27.0538 81.5062 27.0538C81.207 27.0538 80.9078 26.909 80.9078 26.6194C80.7582 25.6058 80.1599 24.737 79.4119 24.013C78.664 23.4339 77.916 23.1443 77.0185 22.8547C75.5226 22.5651 73.8771 22.5651 72.3812 23.1443C70.8853 23.7235 69.8382 24.8818 69.3894 26.4746C69.2398 26.909 69.0902 27.0538 68.6415 27.0538C67.7439 27.0538 66.6968 27.0538 65.7993 27.0538C65.5001 27.0538 65.3505 26.909 65.5001 26.6194C65.7993 25.461 66.0984 24.1578 66.8464 23.1443C67.7439 21.6963 68.9406 20.5379 70.5861 19.9587C72.3812 19.2347 74.3259 18.9451 76.2705 19.0899C78.3648 19.2347 80.3095 19.8139 81.8054 21.2619C82.7029 22.1307 83.6004 23.1443 84.0492 24.3026C84.3484 25.0266 84.498 25.8954 84.7971 26.6194C84.9467 27.0538 84.7971 27.0538 84.3484 27.0538C83.75 27.0538 83.3012 27.0538 82.8525 27.0538Z" fill="#FFFE00"/>
<path d="M50.0892 19.2346C51.286 19.2346 52.4827 19.2346 53.6794 19.2346C55.7737 19.3794 57.5687 20.1034 59.0646 21.4066C60.7101 22.8546 61.3085 24.5922 61.4581 26.6193C61.4581 26.9089 61.3085 27.0537 61.0093 27.0537C59.9622 27.0537 59.0646 27.0537 58.0175 27.0537C57.7183 27.0537 57.5687 26.9089 57.5687 26.6193C57.4191 25.461 57.12 24.4474 56.0728 23.7234C55.4745 23.289 54.7265 22.9994 53.9786 22.8546C52.6323 22.8546 51.286 22.8546 49.9397 22.8546C49.6405 22.8546 49.4909 22.9994 49.4909 23.289C49.4909 24.3026 49.4909 25.461 49.4909 26.4745C49.4909 27.0537 49.4909 27.0537 48.8925 27.0537C47.995 27.0537 47.0975 27.0537 46.0503 27.0537C45.7512 27.0537 45.6016 26.9089 45.6016 26.6193C45.6016 24.3026 45.6016 21.9858 45.6016 19.669C45.6016 19.2346 45.7512 19.0898 46.0503 19.0898C47.5462 19.2346 48.8925 19.2346 50.0892 19.2346Z" fill="#FFFE00"/>
<path d="M94.9617 38.057C93.1667 38.057 91.3716 38.057 89.5765 38.057C88.9781 38.057 88.9781 38.057 88.9781 37.4793C88.9781 34.4371 88.9781 31.5411 88.9781 28.5018C88.9781 28.2122 89.1277 28.0674 89.4269 28.0674C90.474 28.0674 91.5212 28.0674 92.4187 28.0674C92.7179 28.0674 92.7179 28.2122 92.7179 28.357C92.7179 30.0946 92.7179 31.8321 92.7179 33.7145C92.7179 34.2937 92.7179 34.2937 93.3162 34.2937C95.7097 34.2937 97.9535 34.2937 100.347 34.2937C100.646 34.2937 100.796 34.4385 100.796 34.7281C100.796 35.7417 100.796 36.7553 100.796 37.6241C100.796 37.9137 100.646 38.0585 100.347 38.0585C98.7015 38.057 96.7568 38.057 94.9617 38.057Z" fill="#FFFE00"/>
<path d="M163.93 19.0898C165.875 19.0898 167.969 19.0898 169.914 19.0898C170.213 19.0898 170.363 19.2346 170.213 19.5242C170.213 20.5378 170.213 21.5514 170.213 22.565C170.213 22.8546 170.063 22.9994 169.764 22.9994C168.568 22.9994 167.369 22.9994 166.174 22.9994C165.875 22.9994 165.725 23.1442 165.725 23.4338C165.725 24.4474 165.725 25.6058 165.725 26.6193C165.725 27.1985 165.725 27.1985 165.127 27.1985C164.229 27.1985 163.333 27.1985 162.286 27.1985C161.987 27.1985 161.838 27.0537 161.838 26.7641C161.838 25.6058 161.838 24.4474 161.838 23.289C161.838 22.9994 161.837 22.8546 161.387 22.8546C160.191 22.8546 158.846 22.8546 157.647 22.8546C157.35 22.8546 157.199 22.7098 157.199 22.4202C157.199 21.5514 157.199 20.5378 157.199 19.669C157.199 19.0898 157.199 19.0898 157.797 19.0898C160.041 19.0898 161.986 19.0898 163.93 19.0898Z" fill="#FFFE00"/>
<path d="M161.984 33.1353C161.984 31.6873 161.984 30.0946 161.984 28.6466C161.984 28.2122 162.133 28.0674 162.433 28.0674C163.48 28.0674 164.377 28.0674 165.424 28.0674C165.724 28.0674 165.873 28.2122 165.873 28.5018C165.873 31.5425 165.873 34.5833 165.873 37.6241C165.873 37.9137 165.724 38.0585 165.424 38.0585C164.527 38.0585 163.48 38.0585 162.584 38.0585C162.285 38.0585 162.133 37.9137 162.133 37.6241C161.984 36.1761 161.984 34.5833 161.984 33.1353Z" fill="#FFFE00"/>
<path d="M105.881 33.1353C105.881 31.6873 105.881 30.2394 105.881 28.6466C105.881 28.2122 106.031 28.0674 106.48 28.0674C107.377 28.0674 108.424 28.0674 109.322 28.0674C109.621 28.0674 109.771 28.2122 109.771 28.5018C109.771 31.5425 109.771 34.5833 109.771 37.6241C109.771 37.9137 109.621 38.0585 109.322 38.0585C108.424 38.0585 107.377 38.0585 106.48 38.0585C106.031 38.0585 106.031 37.9137 106.031 37.6241C105.881 36.0313 105.881 34.5833 105.881 33.1353Z" fill="#FFFE00"/>
<path d="M115.011 33.1353C115.011 31.5425 115.011 30.0946 115.011 28.5018C115.011 28.2122 115.162 28.0674 115.462 28.0674C116.507 28.0674 117.554 28.0674 118.453 28.0674C118.751 28.0674 118.751 28.2122 118.751 28.357C118.751 28.6466 118.751 29.081 118.751 29.3706C118.751 31.9769 118.751 34.4385 118.751 37.0449C118.751 37.1911 118.751 37.4807 118.751 37.6241C118.751 37.9137 118.602 37.9137 118.302 37.9137C117.255 37.9137 116.358 37.9137 115.311 37.9137C115.011 37.9137 114.862 37.7674 114.862 37.4793C115.011 36.1761 115.011 34.5833 115.011 33.1353Z" fill="#FFFE00"/>
<path d="M149.27 33.1353C149.27 31.5425 149.27 30.0946 149.27 28.5018C149.27 28.2122 149.27 28.0674 149.719 28.0674C150.766 28.0674 151.813 28.0674 152.862 28.0674C153.159 28.0674 153.159 28.2122 153.159 28.357C153.159 28.6466 153.159 28.9362 153.159 29.3706C153.159 32.1217 153.159 34.8729 153.159 37.6241C153.159 38.0585 153.01 38.0585 152.711 38.0585C151.813 38.0585 150.766 38.0585 149.87 38.0585C149.571 38.0585 149.42 37.9137 149.42 37.6241C149.27 36.1761 149.27 34.5833 149.27 33.1353Z" fill="#FFFE00"/>
<path d="M127.88 33.1341C127.88 31.6861 127.88 30.0933 127.88 28.6453C127.88 28.2109 128.029 28.2109 128.328 28.2109C129.376 28.2109 130.273 28.2109 131.32 28.2109C131.619 28.2109 131.769 28.3557 131.769 28.6453C131.769 29.2245 131.769 29.6589 131.769 30.2381C131.769 32.6997 131.769 35.1612 131.769 37.6228C131.769 38.0572 131.769 38.202 131.172 38.202C130.273 38.202 129.377 38.202 128.478 38.202C128.029 38.202 127.88 38.0572 127.88 37.6228C127.88 36.03 127.88 34.5821 127.88 33.1341Z" fill="#FFFE00"/>
<path d="M144.479 32.9893C144.479 34.5835 144.479 36.0315 144.479 37.6228C144.479 38.0572 144.33 38.0572 144.03 38.0572C143.133 38.0572 142.086 38.0572 141.188 38.0572C140.89 38.0572 140.739 37.9124 140.739 37.6228C140.739 34.8716 140.739 32.1205 140.739 29.3693C140.739 29.0797 140.739 28.7901 140.739 28.5005C140.739 28.2109 140.89 28.2109 141.039 28.2109C142.086 28.2109 143.133 28.2109 144.18 28.2109C144.479 28.2109 144.479 28.3557 144.479 28.6453C144.479 29.9485 144.479 31.5413 144.479 32.9893Z" fill="#FFFE00"/>
<path d="M57.5651 33.1358C57.5651 31.6878 57.5651 30.2398 57.5651 28.7918C57.5651 28.5022 57.7147 28.3574 58.0139 28.3574C58.9114 28.3574 59.9585 28.3574 60.8561 28.3574C61.1553 28.3574 61.3049 28.5022 61.3049 28.7918C61.3049 31.6878 61.3049 34.5837 61.3049 37.4797C61.3049 38.2037 61.4544 38.3485 60.4073 38.3485C59.5098 38.3485 58.7618 38.3485 57.8643 38.3485C57.5651 38.3485 57.4155 38.2037 57.4155 37.9141C57.7147 36.1765 57.5651 34.5837 57.5651 33.1358Z" fill="#FFFE00"/>
<path d="M49.6393 33.1339C49.6393 34.5818 49.6393 36.0298 49.6393 37.6226C49.6393 38.057 49.4897 38.057 49.1905 38.057C48.293 38.057 47.2458 38.057 46.3483 38.057C45.8995 38.057 45.8995 37.9122 45.8995 37.4793C45.8995 34.437 45.8995 31.5411 45.8995 28.5018C45.8995 28.2122 46.0491 28.0674 46.3483 28.0674C47.2458 28.0674 48.293 28.0674 49.1905 28.0674C49.6393 28.0674 49.6393 28.2122 49.6393 28.6466C49.6393 30.0931 49.6393 31.5411 49.6393 33.1339Z" fill="#FFFE00"/>
<path d="M105.881 23.1442C105.881 21.9858 105.881 20.8274 105.881 19.5242C105.881 19.2346 106.031 19.0898 106.33 19.0898C107.377 19.0898 108.275 19.0898 109.322 19.0898C109.621 19.0898 109.771 19.2346 109.771 19.5242C109.771 21.9858 109.771 24.3026 109.771 26.7641C109.771 27.0537 109.621 27.1985 109.322 27.1985C108.275 27.1985 107.228 27.1985 106.18 27.1985C105.881 27.1985 105.881 27.0537 105.881 26.7641C105.881 25.461 105.881 24.3026 105.881 23.1442Z" fill="#FFFE00"/>
<path d="M149.27 22.9994C149.27 21.841 149.27 20.6826 149.27 19.5242C149.27 19.2346 149.42 19.0898 149.719 19.0898C150.618 19.0898 151.663 19.0898 152.561 19.0898C153.01 19.0898 153.159 19.2346 153.159 19.5242C153.159 21.5514 153.159 23.5786 153.159 25.6058C153.159 25.8954 153.159 26.3298 153.159 26.6193C153.159 26.9089 153.01 27.0537 152.711 27.0537C151.663 27.0537 150.766 27.0537 149.719 27.0537C149.42 27.0537 149.27 26.9089 149.27 26.6193C149.27 25.461 149.27 24.3026 149.27 22.9994Z" fill="#FFFE00"/>
<path d="M88.9878 23.1442C88.9878 21.9858 88.9878 20.6826 88.9878 19.5242C88.9878 19.2346 89.1374 19.0898 89.4366 19.0898C90.4837 19.0898 91.5309 19.0898 92.4284 19.0898C92.7276 19.0898 92.7276 19.2346 92.7276 19.3794C92.7276 21.841 92.7276 24.1578 92.7276 26.6193C92.7276 26.9089 92.578 27.0537 92.2788 27.0537C91.2317 27.0537 90.3342 27.0537 89.287 27.0537C88.9879 27.0537 88.8383 26.9089 88.8383 26.6193C88.9878 25.461 88.9878 24.3026 88.9878 23.1442Z" fill="#FFFE00"/>
<path d="M77.3135 49.7852C77.3135 50.0733 77.3135 50.3629 77.3135 50.654C77.3135 50.7988 77.1639 50.7988 77.1639 50.7988C75.9672 51.0884 74.7704 51.2332 73.7233 50.5092C73.2746 50.2196 72.9754 49.6389 72.8258 49.206C72.377 47.9028 72.377 46.5996 73.2746 45.4412C73.7233 44.7173 74.4713 44.4277 75.3688 44.2814C76.1168 44.1366 76.8647 44.2814 77.4631 44.571H77.6126C77.9118 45.0054 77.4631 45.295 77.4631 45.5846C77.4631 45.5846 77.1639 45.7294 77.0143 45.7294C76.5655 45.7294 76.1168 45.4412 75.8176 45.4412C75.0696 45.4412 74.4713 46.019 74.3217 46.743C74.1721 47.467 74.1721 48.191 74.4713 48.9149C74.6209 49.3493 75.2192 49.7852 75.668 49.7852C75.9672 49.93 76.5655 49.93 77.3135 49.7852Z" fill="white"/>
<path d="M139.4 47.1807C139.549 46.8911 139.699 46.7463 139.699 46.6015C139.998 46.0223 140.297 45.4431 140.598 44.8639C140.748 44.7191 140.897 44.5743 141.047 44.5743C141.346 44.5743 141.645 44.5743 141.944 44.5743C142.243 44.5743 142.243 44.7206 142.095 44.8639C141.497 45.8775 140.899 47.0359 140.3 48.0495C140.151 48.3391 140.001 48.6272 140.001 49.0631C140.001 49.6408 140.001 50.2215 140.001 50.6559C140.001 50.9455 139.852 51.0902 139.552 51.0902C138.505 51.0902 138.505 51.0902 138.505 50.0767C138.656 48.9183 138.356 48.0509 137.757 47.0359C137.308 46.3119 136.86 45.5879 136.561 44.8639C136.411 44.5743 136.411 44.4295 136.86 44.4295H137.009C137.908 44.2833 138.206 44.7191 138.505 45.4431C138.656 45.8775 138.954 46.3119 139.253 46.7449C139.101 46.8911 139.25 47.0359 139.4 47.1807Z" fill="white"/>
<path d="M116.208 48.3385C116.208 47.6145 116.208 46.7442 116.208 46.0202C116.208 45.7307 116.057 45.7307 115.909 45.7307C115.61 45.7307 115.161 45.7307 114.862 45.7307C114.563 45.7307 114.413 45.7307 114.413 45.4425C114.413 44.5723 114.262 44.5723 115.311 44.5723C116.657 44.5723 117.854 44.5723 119.202 44.5723C119.499 44.5723 119.65 44.7185 119.65 45.0067C119.65 45.7307 119.65 45.7307 118.903 45.7307C117.855 45.7307 117.855 45.7307 117.855 46.7442C117.855 48.0474 117.855 49.4954 117.855 50.7986C117.855 51.0882 117.706 51.0882 117.556 51.0882C117.407 51.0882 117.407 51.0882 117.257 51.0882C116.509 51.0882 116.509 51.0882 116.509 50.3642C116.208 49.6416 116.208 49.0625 116.208 48.3385Z" fill="white"/>
<path d="M96.7609 47.7608C96.7609 48.7743 96.7609 49.6431 96.7609 50.6567C96.7609 50.9463 96.6113 51.0911 96.3121 51.0911C95.1154 51.0911 95.265 51.2374 95.265 50.0775C95.265 48.3414 95.265 46.6038 95.265 44.8648C95.265 44.5752 95.4146 44.5752 95.5642 44.5752C95.7138 44.5752 95.8634 44.5752 96.1626 44.5752C96.7609 44.5752 96.7609 44.5752 96.7609 45.1544C96.7609 46.0232 96.7609 46.892 96.7609 47.7608Z" fill="white"/>
</svg>
