<svg width="206" height="71" viewBox="0 0 206 71" fill="none" xmlns="http://www.w3.org/2000/svg">
<path d="M0.785156 0.552734H188.896C198.224 0.552734 205.785 8.11436 205.785 17.4421V70.5527H43.4586C33.2192 70.5527 24.0695 64.1586 20.5496 54.5433L0.785156 0.552734Z" fill="#0B0E15"/>
<path d="M67.8294 31.916C67.8294 38.7688 62.1393 44.2167 55.2837 44.2167C48.4282 44.2167 42.7382 38.7688 42.7382 31.916C42.7382 25.0632 48.4282 19.6152 55.2837 19.6152C62.1393 19.6152 67.8294 25.0632 67.8294 31.916ZM48.5654 31.916C48.5654 35.5137 51.5818 38.8716 55.2837 38.8716C58.9857 38.8716 62.0022 35.5137 62.0022 31.916C62.0022 28.3183 58.9857 24.9604 55.2837 24.9604C51.5818 24.9604 48.5654 28.3183 48.5654 31.916Z" fill="url(#paint0_linear_5800_44999)"/>
<path d="M75.0632 28.113H75.1318C76.5028 26.0572 78.251 25.4404 79.7249 25.4404C84.5581 25.4404 86.1691 28.5242 86.1691 32.91V43.3947L80.8219 43.943V33.2869C80.8219 31.231 79.7593 30.2373 78.1482 30.2373C76.5372 30.2373 75.4745 31.231 75.4745 33.2869V43.3947L70.1272 43.943V25.9887L75.0632 25.4404V28.113Z" fill="url(#paint1_linear_5800_44999)"/>
<path d="M95.1135 19.2383V43.3943L89.7662 43.9426V19.7865L95.1135 19.2383Z" fill="url(#paint2_linear_5800_44999)"/>
<path d="M105.774 35.9252L110.025 25.4404L115.166 26.7425L104.78 49.9734L99.1929 49.4252L102.998 41.7843L96.2793 26.7082L101.489 25.4404L105.774 35.9252Z" fill="url(#paint3_linear_5800_44999)"/>
<path d="M120.824 49.4252L115.477 49.9734V25.9887L120.482 25.4404V28.6612H120.55C121.51 26.6739 123.704 25.4404 125.898 25.4404C131.039 25.4404 134.604 30.1689 134.604 35.0343C134.604 39.8313 130.422 44.2171 125.623 44.2171C123.875 44.2171 121.853 43.7717 120.893 42.1955H120.824V49.4252ZM124.904 39.4201C127.406 39.4201 129.257 37.1244 129.257 34.8288C129.257 32.5331 127.406 30.2373 124.904 30.2373C122.401 30.2373 120.55 32.5331 120.55 34.8288C120.55 37.1244 122.401 39.4201 124.904 39.4201Z" fill="url(#paint4_linear_5800_44999)"/>
<path d="M142.727 19.2383V43.3943L137.38 43.9426V19.7865L142.727 19.2383Z" fill="url(#paint5_linear_5800_44999)"/>
<path d="M148.347 26.2285C149.718 25.7488 151.707 25.4404 153.18 25.4404C157.568 25.4404 160.584 27.2564 160.584 31.6079V43.3947L155.923 43.943V42.1955H155.854C154.825 43.7717 153.283 44.2171 151.467 44.2171C147.49 44.2171 145.33 41.613 145.33 37.844C145.33 34.2805 148.244 32.0534 151.638 32.0534C152.974 32.0534 154.483 32.5673 155.614 33.3897C155.648 33.2183 155.648 33.047 155.648 32.8415C155.648 30.4087 154.517 29.8947 152.22 29.8947C150.644 29.8947 149.033 30.3059 147.593 30.9569L148.347 26.2285ZM152.974 40.1054C154.414 40.1054 155.614 39.2488 155.614 37.7754C155.614 36.3363 154.414 35.4797 152.974 35.4797C151.5 35.4797 150.3 36.3363 150.3 37.7754C150.3 39.2488 151.5 40.1054 152.974 40.1054Z" fill="url(#paint6_linear_5800_44999)"/>
<path d="M170.525 35.9252L174.776 25.4404L179.918 26.7425L169.531 49.9734L163.944 49.4252L167.749 41.7843L161.03 26.7082L166.241 25.4404L170.525 35.9252Z" fill="url(#paint7_linear_5800_44999)"/>
<defs>
<linearGradient id="paint0_linear_5800_44999" x1="111.328" y1="19.238" x2="111.328" y2="49.9733" gradientUnits="userSpaceOnUse">
<stop stop-color="#FFC000"/>
<stop offset="1" stop-color="#D200FF"/>
</linearGradient>
<linearGradient id="paint1_linear_5800_44999" x1="111.329" y1="19.2384" x2="111.329" y2="49.9735" gradientUnits="userSpaceOnUse">
<stop stop-color="#FFC000"/>
<stop offset="1" stop-color="#D200FF"/>
</linearGradient>
<linearGradient id="paint2_linear_5800_44999" x1="111.327" y1="19.238" x2="111.327" y2="49.9732" gradientUnits="userSpaceOnUse">
<stop stop-color="#FFC000"/>
<stop offset="1" stop-color="#D200FF"/>
</linearGradient>
<linearGradient id="paint3_linear_5800_44999" x1="111.327" y1="19.2384" x2="111.327" y2="49.9735" gradientUnits="userSpaceOnUse">
<stop stop-color="#FFC000"/>
<stop offset="1" stop-color="#D200FF"/>
</linearGradient>
<linearGradient id="paint4_linear_5800_44999" x1="111.33" y1="19.2384" x2="111.33" y2="49.9735" gradientUnits="userSpaceOnUse">
<stop stop-color="#FFC000"/>
<stop offset="1" stop-color="#D200FF"/>
</linearGradient>
<linearGradient id="paint5_linear_5800_44999" x1="111.329" y1="19.238" x2="111.329" y2="49.9732" gradientUnits="userSpaceOnUse">
<stop stop-color="#FFC000"/>
<stop offset="1" stop-color="#D200FF"/>
</linearGradient>
<linearGradient id="paint6_linear_5800_44999" x1="111.327" y1="19.2384" x2="111.327" y2="49.9735" gradientUnits="userSpaceOnUse">
<stop stop-color="#FFC000"/>
<stop offset="1" stop-color="#D200FF"/>
</linearGradient>
<linearGradient id="paint7_linear_5800_44999" x1="111.328" y1="19.2384" x2="111.328" y2="49.9735" gradientUnits="userSpaceOnUse">
<stop stop-color="#FFC000"/>
<stop offset="1" stop-color="#D200FF"/>
</linearGradient>
</defs>
</svg>
