<svg width="206" height="71" viewBox="0 0 206 71" fill="none" xmlns="http://www.w3.org/2000/svg">
<path d="M0.785156 0.0996094H188.896C198.224 0.0996094 205.785 7.66123 205.785 16.989V70.0996H43.4586C33.2192 70.0996 24.0695 63.7055 20.5496 54.0902L0.785156 0.0996094Z" fill="#0B0E15"/>
<path d="M171.437 10.0205V49.6938C171.437 51.4158 170.06 52.8622 168.269 52.8622H52.0043C50.2135 52.8622 48.8359 51.4158 48.8359 49.6938V20.2143C48.8359 18.4924 50.2135 17.1149 52.0043 17.1149H164.274L170.818 10.0205H171.437Z" fill="#FF4040"/>
<path d="M72.4619 30.9592C72.4619 34.6097 69.7068 37.2959 65.9875 37.2959H63.3701V42.1174H58.5487V24.6914H65.9875C69.7068 24.6914 72.4619 27.3087 72.4619 30.9592ZM67.5028 30.9592C67.5028 29.7194 66.6762 28.8929 65.4364 28.8929H63.3701V33.0944H65.4364C66.6762 33.0944 67.5028 32.199 67.5028 30.9592Z" fill="white"/>
<path d="M74.3905 23.7959H79.0742V42.1173H74.3905V23.7959Z" fill="white"/>
<path d="M96.2924 28.6174V42.1173H92.7108L92.2975 41.153C91.1955 42.0484 89.8179 42.5306 88.2337 42.5306C84.17 42.5306 81.2083 39.5689 81.2083 35.3673C81.2083 31.1658 84.17 28.2041 88.2337 28.2041C89.8179 28.2041 91.2643 28.7551 92.3664 29.6505L92.8485 28.6174H96.2924ZM91.8842 35.3673C91.8842 33.6454 90.6444 32.3367 88.9225 32.3367C87.1317 32.3367 85.8919 33.6454 85.8919 35.3673C85.8919 37.1581 87.2006 38.4668 88.9225 38.4668C90.6444 38.4668 91.8842 37.1581 91.8842 35.3673Z" fill="white"/>
<path d="M108.276 38.0536V42.1174H105.108C102.146 42.1174 100.356 40.3265 100.356 37.2959V32.199H97.876V31.1659L103.937 24.6914H104.833V28.6863H108.208V32.199H104.97V36.5383C104.97 37.5026 105.521 38.0536 106.555 38.0536H108.276Z" fill="white"/>
<path d="M110.481 28.686H115.096V42.1171H110.481V28.686ZM110.481 23.0381H115.096V26.9641H110.481V23.0381Z" fill="white"/>
<path d="M132.934 35.3673C132.934 39.5689 130.041 42.5995 125.909 42.5995C124.669 42.5995 123.567 42.2551 122.602 41.7041V47.0076H117.988V28.6862H121.156L121.776 29.7194C122.878 28.7551 124.256 28.2041 125.909 28.2041C130.041 28.2041 132.934 31.1658 132.934 35.3673ZM128.319 35.3673C128.319 33.6454 127.011 32.3367 125.289 32.3367C123.567 32.3367 122.258 33.6454 122.258 35.3673C122.258 37.1581 123.567 38.4668 125.289 38.4668C127.011 38.4668 128.319 37.1581 128.319 35.3673Z" fill="white"/>
<path d="M134.932 36.3319V28.6865H139.547V36.1253C139.547 37.5717 140.305 38.3982 141.545 38.3982C142.785 38.3982 143.542 37.5717 143.542 36.1253V28.6865H148.226V36.3319C148.226 40.1202 145.54 42.5997 141.545 42.5997C137.55 42.5309 134.932 40.1202 134.932 36.3319Z" fill="white"/>
<path d="M156.148 42.5306C152.428 42.5306 150.224 40.602 150.156 37.7092H154.633C154.633 38.6734 155.321 39.1556 156.217 39.1556C156.905 39.1556 157.525 38.8112 157.525 38.1224C157.525 37.2959 156.492 37.0893 155.184 36.8826C153.117 36.5383 150.362 35.9184 150.362 32.6811C150.362 29.926 152.635 28.2041 156.148 28.2041C159.523 28.2041 161.796 30.0638 161.796 32.75H157.457C157.457 31.9235 156.905 31.5102 156.01 31.5102C155.321 31.5102 154.77 31.8546 154.77 32.4745C154.77 33.2321 155.803 33.4388 157.112 33.6454C159.247 34.0587 162.071 34.4719 162.071 37.9158C162.071 40.7398 159.661 42.5306 156.148 42.5306Z" fill="white"/>
</svg>
