<svg width="206" height="71" viewBox="0 0 206 71" fill="none" xmlns="http://www.w3.org/2000/svg">
<path d="M0.785156 0.776367H188.896C198.224 0.776367 205.785 8.33799 205.785 17.6657V70.7764H43.4586C33.2192 70.7764 24.0695 64.3823 20.5496 54.7669L0.785156 0.776367Z" fill="#0B0E15"/>
<path d="M92.4212 35.7264L87.3841 29.9043H85.7505L91.6044 37.4083V41.9366H93.1019V37.4083L99.0919 29.9043H97.3221L92.4212 35.7264Z" fill="white"/>
<path d="M110.94 29.9043H102.363C101.819 29.9043 101.274 30.1631 100.866 30.5512C100.457 30.9393 100.185 31.4569 100.185 31.9744V34.6914C100.185 35.2089 100.457 35.7264 100.866 36.1145C101.274 36.5027 101.819 36.7614 102.363 36.7614H110.94C111.076 36.7614 111.348 36.7614 111.484 36.8908C111.62 37.0202 111.757 37.1496 111.757 37.4083V40.1253C111.757 40.2547 111.62 40.5135 111.484 40.6416C111.348 40.7722 111.212 40.7722 110.94 40.7722H102.363C102.227 40.7722 101.955 40.7722 101.819 40.6416C101.682 40.5122 101.546 40.3828 101.546 40.1253V39.6078H100.049V40.1253C100.049 40.6415 100.321 41.1604 100.73 41.5485C101.138 41.9366 101.682 42.1954 102.227 42.1954H110.804C111.348 42.1954 111.893 41.9366 112.301 41.5485C112.711 41.1604 112.982 40.6428 112.982 40.1253V37.4083C112.982 36.8908 112.711 36.3733 112.301 35.9852C111.893 35.597 111.348 35.3383 110.804 35.3383H102.227C102.091 35.3383 101.819 35.3383 101.682 35.2089C101.546 35.0795 101.41 34.9501 101.41 34.6914V31.845C101.41 31.7156 101.546 31.4569 101.682 31.3275C101.819 31.1981 102.091 31.1981 102.363 31.1981H110.94C111.076 31.1981 111.348 31.1981 111.484 31.3275C111.62 31.4569 111.757 31.5862 111.757 31.845V32.3625H113.254V31.845C113.254 31.3275 112.982 30.81 112.573 30.4218C112.165 30.0337 111.62 29.9043 110.94 29.9043Z" fill="white"/>
<path d="M59.0683 29.9043H57.7069V41.9366H70.6399V40.6428H59.0683V29.9043Z" fill="white"/>
<path d="M82.4835 29.9043H73.9069C73.3624 29.9043 72.8179 30.1631 72.4094 30.5512C72.001 30.9393 71.7288 31.4569 71.7288 31.9744V42.066H73.2263V37.6671H83.3004V42.066H84.7979V31.845C84.7979 31.3275 84.5256 30.81 84.1172 30.4218C83.7088 30.0337 83.0281 29.9043 82.4835 29.9043ZM83.1642 36.2439H73.0901V31.845C73.0901 31.7156 73.2263 31.4569 73.3624 31.3275C73.4985 31.1981 73.6347 31.1981 73.7708 31.1981H82.3474C82.4835 31.1981 82.7558 31.1981 82.892 31.3275C83.0281 31.4569 83.1642 31.5862 83.1642 31.845V36.2439Z" fill="white"/>
<path d="M54.1688 29.9023H43.4141V41.9347H44.9116V37.4064C45.32 37.4064 45.4561 37.5371 45.5922 37.5371H54.1688C54.7134 37.5371 55.2579 37.2783 55.6663 36.8902C56.0748 36.502 56.347 35.9845 56.347 35.467V31.843C56.347 31.3255 56.0748 30.808 55.6663 30.4199C55.2579 30.0317 54.8495 29.9023 54.1688 29.9023ZM54.9857 35.4657C54.9857 35.5951 54.8495 35.8538 54.7134 35.9832C54.5773 35.9832 54.4411 36.1126 54.1688 36.1126H45.5922C45.4561 36.1126 45.1838 36.1126 45.0477 35.9832C44.9116 35.7244 44.9116 35.5951 44.9116 35.4657V31.843C44.9116 31.7137 45.0477 31.4549 45.1838 31.3255C45.1838 31.3255 45.32 31.1961 45.5922 31.1961H54.1688C54.305 31.1961 54.5773 31.1961 54.7134 31.3255C54.8495 31.4549 54.9857 31.5843 54.9857 31.843V35.4657Z" fill="white"/>
<path d="M149.053 49.311L159.263 45.0415L149.053 40.6426V49.311Z" fill="#FFA110"/>
<path d="M149.053 32.1035V40.6426L159.263 36.3731L149.053 32.1035Z" fill="#FF0004"/>
<path d="M159.268 45.0415L169.342 40.6426L159.268 36.373V45.0415Z" fill="#00AA95"/>
<path d="M169.339 32.1035V40.6426L179.549 36.3731L169.339 32.1035Z" fill="#FFE400"/>
<path d="M169.342 32.103L159.268 27.7041V36.3726L169.342 32.103Z" fill="#009FEE"/>
<path d="M125.773 29.9043H117.196C116.652 29.9043 116.107 30.1631 115.698 30.5512C115.289 30.9393 115.017 31.4569 115.017 31.9744V39.9959C115.017 40.5135 115.289 41.031 115.698 41.4204C116.107 41.8086 116.65 42.0673 117.196 42.0673H125.773C126.318 42.0673 126.862 41.8086 127.27 41.4204C127.68 41.031 127.951 40.5148 127.951 39.9959V31.845C127.951 31.3275 127.68 30.81 127.27 30.4218C126.862 30.0337 126.454 29.9043 125.773 29.9043ZM126.454 39.9959C126.454 40.1266 126.318 40.3841 126.181 40.5135C126.045 40.6428 125.909 40.6428 125.638 40.6428H117.06C116.924 40.6428 116.652 40.6428 116.517 40.5135C116.38 40.3841 116.243 40.2547 116.243 39.9959V31.845C116.243 31.7156 116.38 31.4569 116.516 31.3275C116.788 31.3275 116.924 31.1981 117.196 31.1981H125.773C125.909 31.1981 126.181 31.1981 126.318 31.3275C126.454 31.5862 126.454 31.7156 126.454 31.845V39.9959Z" fill="white"/>
<path d="M141.429 40.3841L131.9 29.9043H129.858V41.9366H131.355V31.4569L140.885 41.9366H142.927V29.9043H141.429V40.3841Z" fill="white"/>
<path d="M149.053 23.4346V32.103L159.263 27.7041L149.053 23.4346Z" fill="#FF007B"/>
</svg>
