<svg width="206" height="71" viewBox="0 0 206 71" fill="none" xmlns="http://www.w3.org/2000/svg">
<path d="M0.785156 0.162109H188.896C198.224 0.162109 205.785 7.72373 205.785 17.0515V70.1621H43.4586C33.2192 70.1621 24.0695 63.768 20.5496 54.1527L0.785156 0.162109Z" fill="#0B0E15"/>
<path d="M95.8329 36.8803C95.5571 37.2626 95.4191 37.6449 95.1433 38.0272C94.1778 39.5565 92.9365 40.8308 91.4194 41.7229C89.6264 42.7424 87.0058 43.2521 84.937 41.9778C84.937 42.1065 84.7991 42.2326 84.7991 42.3614C84.5232 43.507 84.1095 44.5265 83.8336 45.6734C83.6957 45.9283 83.6957 46.1832 83.6957 46.4381C83.6957 47.0752 83.9715 47.3301 84.6611 47.4588C84.937 47.4588 85.3508 47.5863 85.6266 47.5863C85.7645 48.2235 85.7645 48.2235 85.0749 48.2235C82.4544 48.2235 79.6959 48.2235 77.0754 48.2235C76.7995 48.2235 76.5237 48.3509 76.5237 47.9686C76.5237 47.5863 76.6616 47.4601 76.9374 47.4601C77.9029 47.4601 78.3167 46.9504 78.5925 46.1857C78.8684 45.0388 79.2821 44.0193 79.558 42.8711C79.8338 41.8516 80.2476 40.7047 80.5235 39.6852C81.2131 37.1364 81.9027 34.5877 82.5923 32.039C82.7302 31.9103 82.7302 31.6554 82.8681 31.4005C83.144 30.5084 82.7302 29.9987 81.7648 29.9987C81.4889 29.9987 81.2131 29.9987 81.2131 29.6164C81.2131 29.3615 81.351 29.2341 81.6268 29.2341C82.7302 29.1066 83.9715 29.1066 85.0749 28.9792C86.1783 28.8518 87.4196 28.7243 88.6609 28.4695C88.3851 29.3615 88.1092 30.2536 87.8334 31.1456C87.8334 31.1456 87.8334 31.1456 87.9713 31.1456C88.1092 31.0182 88.2471 30.8908 88.2471 30.7633C89.0747 29.7438 90.0401 28.8518 91.4194 28.342C92.9365 27.7048 94.5916 27.7048 95.9708 28.7243C96.7984 29.3615 97.0742 30.1261 97.2122 31.0182C97.2122 31.5279 97.3501 31.9103 97.3501 32.42C97.488 32.2926 97.488 32.1651 97.488 32.1651C98.1776 29.7438 98.8672 27.45 99.5568 25.0287C99.6948 24.5189 99.8327 24.0092 99.8327 23.4994C99.8327 22.9897 99.5568 22.7348 99.0051 22.6074C98.8672 22.6074 98.5914 22.4799 98.4535 22.4799C98.1776 22.4799 98.0397 22.3525 98.0397 22.0976C98.0397 21.8427 98.1776 21.7153 98.4535 21.7153C100.246 21.4604 102.039 21.333 103.832 21.0781C104.384 20.9507 104.936 20.9507 105.488 20.8232C105.35 21.4604 105.074 22.0976 104.936 22.7348C104.246 25.0287 103.695 27.3225 103.005 29.6164C102.729 30.6359 102.453 31.6554 102.039 32.6749C101.488 34.7139 100.798 36.7529 100.246 38.7918C100.246 38.9206 100.246 39.0467 100.246 39.1754C100.246 39.6839 100.798 39.9401 101.212 39.5577C101.902 39.048 102.453 38.4108 102.453 37.5175C102.591 36.2431 103.005 34.9687 103.695 33.6944C104.798 31.6554 106.315 29.8713 108.384 28.5969C109.487 27.8323 110.867 27.45 112.246 27.7048C113.349 27.8323 114.177 28.4695 114.453 29.489C114.453 29.6164 114.59 29.6164 114.59 29.7438C114.728 29.2341 114.866 28.8518 115.004 28.4695C115.004 28.2146 115.279 28.0871 115.555 28.0871C116.796 28.0871 118.037 28.0871 119.278 28.0871C119.416 28.0871 119.554 28.2146 119.692 28.2146C119.832 28.2146 119.832 28.342 119.969 28.342C121.349 28.5969 122.59 28.4695 123.693 28.342C124.521 28.2146 124.933 28.342 125.211 29.1066C125.762 30.7633 126.176 32.42 126.59 34.0767C126.866 35.4785 127.141 36.8803 127.555 38.2821C127.555 38.2821 127.555 38.4095 127.693 38.537C127.969 38.0272 128.245 37.6449 128.383 37.2626C128.934 36.1157 129.624 34.9687 130.038 33.6944C130.452 32.6749 130.314 32.2926 129.348 31.6554C128.107 30.8908 128.245 29.3615 129.072 28.7243C129.901 28.0871 130.727 28.0871 131.831 28.2146C132.107 28.2146 132.383 28.342 132.66 28.2146C135.141 27.5774 136.658 26.1756 137.899 24.264C138.037 24.1366 138.175 23.8817 138.313 23.7543C138.727 23.1171 138.727 23.1171 139.555 23.2445C139.279 24.3915 139.003 25.411 138.589 26.5579C138.451 26.9402 138.313 27.45 138.175 27.8323C138.036 28.0871 138.175 28.2146 138.589 28.2146C139.279 28.2146 140.106 28.2146 140.796 28.2146C140.796 28.342 140.796 28.342 140.796 28.342C140.52 29.3615 140.658 29.1066 139.692 29.1066C139.142 29.1066 138.727 29.1066 138.175 29.1066C137.899 29.1066 137.624 29.2341 137.624 29.489C137.21 30.8908 136.796 32.1651 136.382 33.5669C135.969 34.9687 135.555 36.3705 135.141 37.7724C135.003 38.4095 134.865 39.0467 134.727 39.5565C134.588 39.9388 134.727 40.3211 135.141 40.576C135.555 40.8308 135.969 40.7034 136.244 40.576C137.21 40.0662 137.899 39.3016 138.589 38.537C138.727 38.4083 138.727 38.2821 138.727 38.1534C138.727 35.9882 139.692 34.0754 140.935 32.4187C142.039 31.0169 143.28 29.87 145.073 29.1054C146.866 28.2133 148.797 27.831 150.728 28.4682C151.693 28.7231 152.383 29.2328 152.659 30.1249C152.934 31.2718 152.659 32.2913 151.83 33.1833C150.59 34.4577 149.071 35.2223 147.418 35.7321C146.038 36.1144 144.52 36.4967 143.004 36.4967C142.175 36.498 142.175 36.6254 142.037 37.39C141.899 38.1547 141.761 38.9193 142.175 39.8113C142.589 40.8308 143.968 41.468 145.071 41.2131C147.278 40.8308 148.933 39.6839 150.726 38.537C151.14 38.2821 151.14 38.0272 151.14 37.6449C151.14 35.6046 151.969 33.8218 153.209 32.1651C154.45 30.6359 155.967 29.489 157.762 28.7243C159.415 28.0871 161.071 27.9597 162.726 28.342C163.967 28.5969 165.208 29.6164 165.07 31.0182C164.931 32.1651 163.552 32.9297 162.45 32.5474C161.76 32.2926 161.484 31.4005 161.76 30.7633C161.899 30.5084 162.036 30.2536 162.174 30.1261C162.45 29.6164 162.312 29.2341 161.622 29.2341C160.657 29.1066 159.829 29.2341 158.864 29.6164C157.622 30.2536 156.795 31.1456 155.966 32.1651C155.138 33.3121 154.587 34.5864 154.312 35.8608C154.036 37.0077 154.036 38.1547 154.587 39.3016C155.416 40.9583 157.345 41.5955 159.14 40.9583C160.933 40.3211 162.312 39.0467 163.552 37.6449C164.241 36.879 164.381 35.8608 164.793 34.8413C165.759 31.9103 166.724 28.8518 167.689 25.9207C167.829 25.411 167.967 24.9012 168.105 24.3915C168.243 23.6269 167.965 23.1171 167 23.1171C166.31 23.1171 165.76 23.1171 165.07 23.1171C165.07 22.3525 165.07 22.3525 165.898 22.3525C167.416 22.225 168.932 21.9702 170.311 21.5879C170.725 21.4604 171.139 21.4604 171.691 21.333C170.311 25.5384 169.07 29.6164 167.829 33.6944C167.829 33.6944 167.967 33.6944 167.967 33.8218C168.243 33.5669 168.518 33.4395 168.796 33.1846C170.587 31.6554 172.518 30.2536 174.587 29.1066C175.416 28.7243 176.381 28.342 177.345 28.2146C178.725 28.2146 179.14 28.9792 178.864 29.9987C178.312 31.9103 177.623 33.6944 177.071 35.6046C176.656 37.0077 176.106 38.4083 175.692 39.8113C175.692 40.0649 175.692 40.1937 175.692 40.4485C175.69 40.9583 176.242 41.2131 176.656 40.9583C177.345 40.4498 178.035 39.9388 178.725 39.429C178.864 39.429 178.864 39.3016 179.001 39.1754C179.14 39.3029 179.276 39.429 179.552 39.5577C179.001 40.0662 178.449 40.5772 177.897 41.087C176.932 41.8516 175.966 42.615 174.725 42.7437C174.311 42.7437 173.759 42.7437 173.346 42.615C172.656 42.4875 172.38 41.8503 172.656 41.2131C172.932 40.3211 173.206 39.429 173.484 38.537C174.311 36.2431 175.001 33.8218 175.828 31.5279C176.104 30.7633 175.552 30.2536 174.725 30.5084C174.035 30.7633 173.208 31.0182 172.656 31.4005C171.277 32.2926 170.036 33.3121 168.794 34.3316C167.689 35.2236 167.139 36.3705 166.725 37.6449C166.31 38.9193 165.896 40.1937 165.484 41.468C165.484 41.5955 165.484 41.5955 165.346 41.7229C164.932 43.1247 165.208 42.7424 163.829 42.7424C163.415 42.7424 162.864 42.7424 162.312 42.7424C162.588 41.8503 162.862 40.9583 163.139 40.0649C163.139 40.0649 163.139 40.0649 163.001 40.0649C162.864 40.1937 162.726 40.3211 162.588 40.4485C161.346 41.5955 159.967 42.3601 158.312 42.7424C156.105 43.1247 154.036 42.9973 152.519 41.3393C152.106 40.8308 151.692 40.3211 151.278 39.6839C151.002 39.9388 150.588 40.1937 150.175 40.4498C148.656 41.4693 147.001 42.3614 145.071 42.7437C143.692 42.9985 142.451 43.126 141.072 42.615C139.832 42.2326 139.142 41.3406 138.865 40.1949C138.865 40.0662 138.865 40.0662 138.726 39.9401C138.726 39.9401 138.726 39.9401 138.588 39.9401C138.45 40.0675 138.174 40.3224 138.036 40.4498C137.072 41.3406 136.106 42.2326 134.865 42.615C133.486 43.1247 132.383 42.615 131.969 41.5955C131.693 40.9583 131.829 40.1937 131.969 39.5565C132.52 37.5175 133.21 35.4785 133.762 33.4395C134.176 32.1651 134.451 30.7633 134.865 29.489C134.865 29.2341 135.004 29.1066 134.589 29.1066C134.039 29.1066 133.349 29.1066 132.796 29.1066C132.796 29.2341 132.658 29.2341 132.796 29.2341C133.21 30.5084 132.796 31.5279 132.246 32.6749C131.003 35.6059 129.348 38.4095 127.555 41.0857C126.314 42.9973 124.935 44.9088 123.142 46.4368C122.176 47.3301 121.073 48.0947 119.832 48.4771C118.866 48.7319 118.037 48.7319 117.073 48.4771C115.832 48.0947 115.418 47.3301 115.555 46.1832C115.694 45.4186 116.659 44.7814 117.763 44.7814C118.452 44.7814 119.142 45.0363 119.832 45.4186C120.106 45.5473 120.245 45.6734 120.521 45.8009C120.935 46.0558 121.349 46.0557 121.761 45.6734C122.727 44.9088 123.28 44.0168 123.14 42.7424C122.864 41.3393 122.727 39.8113 122.451 38.4095C122.175 37.0077 121.9 35.4785 121.623 34.0767C121.349 33.0572 121.073 32.0377 120.797 31.0182C120.659 30.7633 120.521 30.5084 120.245 30.2536C119.694 29.7438 119.556 29.7438 119.418 30.1261C119.142 31.1456 118.728 32.1651 118.452 33.1846C117.901 34.8413 117.487 36.498 116.935 38.1547C116.797 38.5382 116.659 38.9206 116.659 39.3016C116.521 39.6839 116.659 39.9388 116.935 40.1937C117.211 40.4485 117.625 40.1937 117.764 40.0649C118.178 39.6826 118.454 39.3003 118.867 38.9193C119.005 38.7906 119.143 38.537 119.281 38.2821C119.557 38.4095 119.695 38.537 119.971 38.7906C119.28 39.8113 118.452 40.8308 117.487 41.7229C116.521 42.4875 115.418 42.8686 114.039 42.7424C113.073 42.6137 112.246 42.4875 111.97 41.468C111.831 40.8308 111.97 40.1937 111.97 39.6839C111.97 39.5565 111.97 39.3016 111.97 39.1754C111.694 39.5577 111.28 40.0662 111.004 40.4498C109.763 41.8516 108.246 42.8698 106.177 42.7437C104.384 42.7437 103.005 41.7242 102.591 40.3224C102.591 40.3224 102.591 40.1949 102.453 40.1949C102.315 40.3224 102.177 40.4498 102.039 40.5772C101.212 41.4693 100.109 42.3614 98.7293 42.6162C97.9018 42.7424 97.0742 42.7424 96.3846 42.4875C95.4192 42.1052 94.8675 40.8308 95.1433 39.8113C95.2812 39.3016 95.4191 38.7906 95.5571 38.2821C95.695 37.8998 95.8329 37.39 95.8329 36.8803C95.9708 36.8803 95.8329 36.8803 95.8329 36.8803ZM91.8331 32.2926C91.6952 32.2926 91.8331 32.2926 91.8331 32.2926C91.6952 32.0377 91.6952 31.9103 91.6952 31.6554C91.5573 30.6359 90.7298 30.2536 89.7643 30.6359C89.4885 30.7633 89.2126 30.8908 88.9368 31.1456C88.1092 31.9103 87.5575 32.9297 87.2817 33.9492C86.5921 35.8608 86.0404 37.9011 85.3508 39.8126C85.0749 40.8321 85.6266 41.5955 86.5921 41.4693C86.8679 41.4693 87.2817 41.3406 87.5575 41.087C88.1092 40.5772 88.7988 39.9401 89.2126 39.3029C89.9022 37.9011 90.5918 36.4993 91.1435 35.0975C91.4194 34.2041 91.5573 33.3121 91.8331 32.2926ZM113.901 31.2731C113.901 31.0182 113.901 30.8908 113.763 30.7633C113.625 29.9987 112.935 29.489 112.108 29.8713C111.694 29.9987 111.28 30.2536 111.004 30.6359C109.625 32.2926 108.66 34.0767 107.97 36.1157C107.694 37.0077 107.418 38.0272 107.418 38.9193C107.418 39.4278 107.556 39.9388 108.108 40.1937C108.66 40.4485 109.211 40.3211 109.625 39.9388C110.177 39.429 110.729 38.9193 111.142 38.4095C112.247 36.7529 112.797 34.9687 113.351 33.1846C113.763 32.5474 113.763 31.9103 113.901 31.2731ZM142.175 35.4785C142.314 35.4785 142.451 35.4785 142.59 35.4785C143.141 35.3511 143.83 35.3511 144.383 35.2236C146.313 34.8413 147.969 34.0767 149.211 32.6749C149.761 32.1651 150.038 31.4005 150.038 30.7633C150.177 29.8713 149.624 29.2341 148.521 29.2341C147.142 29.2341 146.176 29.7438 145.211 30.5084C143.83 31.9103 142.865 33.5669 142.175 35.4785Z" fill="white"/>
<path d="M51.8352 48.0954C49.4905 48.0954 47.2838 47.8405 45.2149 46.9485C43.4219 46.1839 42.1806 45.0369 41.6289 43.2528C41.2151 41.851 41.491 40.4505 42.0427 39.0474C42.8702 37.0084 44.3874 35.4791 46.0424 33.9499C47.8354 32.4207 49.7664 31.0189 51.9731 29.8719C52.249 29.8719 52.3869 29.7445 52.3869 29.3622C52.3869 28.3427 52.3869 27.3232 52.3869 26.3037C52.3869 25.0293 53.7661 24.2647 55.1454 24.9019C56.3867 25.5391 57.628 26.3037 58.8693 26.9409C59.0072 27.0683 59.2831 27.0683 59.421 26.9409C60.6623 26.686 62.0415 26.3037 63.2828 26.0488C65.4896 25.5391 67.8343 25.4116 70.179 25.5391C72.2478 25.6665 74.4546 25.9214 76.2476 27.0683C78.1785 28.2152 79.144 29.9994 79.0061 32.1658C78.8681 33.8225 78.0406 35.3517 76.9372 36.7535C74.8684 39.4297 72.1099 41.4687 69.0756 43.2528C65.9034 45.0369 62.5932 46.3113 59.0072 47.2034C56.5246 47.7131 54.1799 48.0954 51.8352 48.0954ZM63.4208 29.617C63.5587 29.7445 63.5587 29.7445 63.6966 29.8719C65.4896 30.764 67.2826 31.656 69.0756 32.5481C69.6273 32.803 70.0411 33.3127 70.0411 33.9499C70.0411 34.5871 69.6273 34.9694 69.0756 35.3517C67.6964 36.1163 66.4551 36.7535 65.0758 37.5181C61.7657 39.3023 58.4555 41.0876 55.1454 42.8705C54.4558 43.2528 53.9041 43.3802 53.2145 42.9992C52.5248 42.6156 52.3869 41.9784 52.3869 41.3412C52.3869 39.6846 52.3869 38.1553 52.3869 36.4986C52.3869 36.3712 52.3869 36.2438 52.3869 35.9902C52.249 36.1163 52.1111 36.1163 51.9731 36.2438C50.8698 37.5181 49.9043 38.9212 49.4905 40.7041C49.2147 42.1071 49.9043 43.5077 51.2835 44.1449C52.6628 44.782 54.042 44.782 55.5591 44.6546C57.2142 44.5259 58.8693 44.0174 60.5244 43.3802C63.6966 42.1059 66.4551 40.4492 68.7998 38.154C70.179 36.7522 71.2824 35.3504 71.8341 33.4389C72.3858 31.145 71.2824 29.6158 69.0756 29.106C67.8343 28.8512 66.593 28.8512 65.3517 28.9786C64.8 29.2347 64.1104 29.4896 63.4208 29.617ZM54.3178 33.8225C54.4558 33.8225 54.4558 33.8225 54.3178 33.8225C54.3178 35.4791 54.3178 37.1358 54.3178 38.9199C54.3178 39.4284 54.4558 39.812 55.0075 40.0656C55.5591 40.3205 55.9729 40.1943 56.3867 39.9382C58.1797 39.0461 59.8348 38.0266 61.6278 37.1346C63.007 36.3699 64.5241 35.6053 65.9034 34.8407C66.7309 34.4584 66.7309 33.4389 65.9034 33.0566C62.7311 31.2725 59.5589 29.6158 56.3867 27.8317C55.9729 27.5768 55.5591 27.4493 55.0075 27.7042C54.4558 27.9591 54.3178 28.3414 54.3178 28.9786C54.4558 30.3817 54.3178 32.0383 54.3178 33.8225ZM46.0424 40.9589C45.9045 41.4687 45.7666 41.9784 45.7666 42.362C45.7666 43.7638 46.1804 45.0382 47.5596 45.9303C48.8009 46.8223 50.3181 47.0759 51.8352 47.0759C53.7661 47.0759 55.6971 46.8223 57.4901 46.1851C59.1451 45.6754 60.6623 45.0382 62.3174 44.401C62.7311 44.2736 63.2828 43.8913 63.6966 43.6364V43.5077C63.5587 43.5077 63.4208 43.6364 63.2828 43.6364C62.1795 44.0187 61.214 44.401 60.1106 44.6559C58.7314 44.9108 57.2142 45.1644 55.6971 45.4205C53.7661 45.6741 51.9731 45.5467 50.1801 45.0369C48.8009 44.6546 47.5596 44.0174 46.87 42.7431C46.4562 42.2333 46.3183 41.5961 46.0424 40.9589ZM74.8684 31.1463C75.0063 30.8914 74.8684 30.6365 74.8684 30.3817C74.5925 28.8524 73.6271 27.8329 72.1099 27.1957C70.3169 26.5586 68.5239 26.5586 66.7309 26.686C65.9034 26.8134 65.0758 26.9409 64.2483 27.1957C63.1449 27.4506 62.1795 27.8329 61.0761 28.0878V28.2152C61.4898 28.3427 61.7657 28.725 62.3174 28.725C63.1449 28.5976 63.8345 28.4701 64.6621 28.3427C66.593 28.0878 68.5239 28.0878 70.5928 28.4701C71.8341 28.725 72.9375 29.1073 73.765 29.9994C74.1788 30.2542 74.4546 30.6365 74.8684 31.1463Z" fill="white"/>
</svg>
