<svg width="206" height="71" viewBox="0 0 206 71" fill="none" xmlns="http://www.w3.org/2000/svg">
<path d="M0.785156 0.714844H188.896C198.224 0.714844 205.785 8.27647 205.785 17.6042V70.7148H43.4586C33.2192 70.7148 24.0695 64.3208 20.5496 54.7054L0.785156 0.714844Z" fill="#0B0E15"/>
<path d="M142.815 37.9268H141.069V46.3141H145.375V44.7891H142.815V37.9268Z" fill="white"/>
<path d="M138.51 38.2547C137.811 38.0369 137.114 37.9279 136.299 38.0369H134.437V46.4242H136.183V42.8296C136.764 42.8296 137.463 42.8296 138.045 42.7196C138.627 42.6107 139.092 42.285 139.441 41.9571C139.79 41.5225 140.023 40.9779 139.907 40.4333C139.907 39.9976 139.789 39.4529 139.556 39.0172C139.325 38.6904 138.976 38.3637 138.51 38.2547ZM138.161 40.869C138.045 40.9779 137.928 41.0868 137.812 41.1957C137.463 41.3047 137.23 41.3047 136.881 41.3047H136.299V39.5618H136.764C137.114 39.5618 137.579 39.5618 137.928 39.7786C138.161 39.8886 138.393 40.2143 138.393 40.5411C138.277 40.5422 138.277 40.76 138.161 40.869Z" fill="white"/>
<path d="M152.825 36.5116C158.644 36.1848 155.618 29.5414 149.799 29.8671C144.329 30.1938 146.773 36.8384 152.825 36.5116Z" fill="#E99D31"/>
<path d="M155.849 37.9268H153.987L156.664 42.7195V46.3141H158.41V42.7195L161.086 37.9268H159.224L157.479 40.9767L155.849 37.9268Z" fill="white"/>
<path d="M170.865 38.0371H170.283L169.585 40.1067L168.77 38.0371H168.188L167.606 40.9781H168.304L168.653 39.1264L169.235 40.9781H169.817L170.516 39.1264L170.865 40.9781H171.447L170.865 38.0371Z" fill="white"/>
<path d="M165.629 38.5817H166.211V40.9781H166.909V38.5817H167.491V38.0371H165.629V38.5817Z" fill="white"/>
<path d="M124.427 39.1261C125.475 39.1261 126.523 39.5618 127.337 40.3243L128.618 39.235C127.57 38.1457 126.058 37.4922 124.545 37.4922C123.614 37.4922 122.799 37.71 121.984 38.1457C120.588 38.8004 119.773 40.1075 119.54 41.4135C119.306 42.8296 119.888 44.2456 120.936 45.226C121.867 46.0974 123.147 46.5331 124.543 46.4242C125.242 46.4242 125.94 46.3142 126.638 46.0974C127.337 45.7695 128.035 45.3349 128.617 44.7903L127.453 43.591C127.104 44.0267 126.522 44.3535 126.056 44.5713C125.591 44.7892 125.125 44.8981 124.66 44.7892C124.078 44.7892 123.496 44.6792 123.032 44.3535C122.566 44.1356 122.1 43.6999 121.868 43.2642C121.634 42.8296 121.401 42.285 121.518 41.7403V41.6314C121.285 40.3243 122.798 39.1261 124.427 39.1261Z" fill="white"/>
<path d="M153.989 26.9258C147.355 24.4205 139.791 25.8365 134.67 30.5204C129.549 35.2042 128.153 42.3934 130.946 48.6022C133.738 54.811 140.256 58.7324 147.355 58.7324C157.015 58.7324 164.929 51.3254 164.812 42.1755C164.928 35.531 160.622 29.54 153.989 26.9258ZM147.471 56.9895C138.743 56.8806 131.76 50.345 131.76 42.1755C131.76 34.006 138.743 27.4704 147.471 27.3615C156.2 27.3615 163.299 34.006 163.299 42.1755C163.299 50.345 156.2 56.9895 147.471 56.9895Z" fill="#E99D31"/>
<path d="M149.915 37.9268L146.424 46.313H148.286L148.985 44.5702H152.709L153.407 46.313H155.269L151.778 37.9268H149.915ZM149.566 43.0463L150.846 40.2142L152.01 43.0463H149.566Z" fill="white"/>
<path d="M67.169 41.6301C67.5181 41.1955 67.6345 40.7587 67.6345 40.2141C67.6345 39.6694 67.5181 39.2337 67.2854 38.798C67.0526 38.4712 66.7035 38.1434 66.238 37.9266C65.5397 37.7087 64.725 37.5998 64.0268 37.7087H62.0483V46.3139H63.794V42.7194H63.9104L66.0052 46.3139H67.9836L65.7724 42.5015C66.3543 42.3926 66.8198 42.0658 67.169 41.6301ZM64.3759 41.0855H63.794V39.3426H64.3759C64.725 39.3426 64.9578 39.3426 65.3069 39.4516C65.6561 39.5616 65.8888 39.8873 65.8888 40.2141C65.8888 40.4319 65.7724 40.7587 65.5397 40.8676C65.1906 41.0855 64.8414 41.1944 64.3759 41.0855Z" fill="white"/>
<path d="M59.1396 38.037C58.4414 37.8191 57.6267 37.7102 56.9285 37.8191H55.0664V46.4243H56.8121V42.8297C57.394 42.8297 58.0922 42.8297 58.6741 42.7197C59.256 42.6119 59.7215 42.2851 60.0707 41.8494C60.4198 41.4137 60.6526 40.869 60.5362 40.3244C60.5362 39.8898 60.4198 39.3452 60.187 38.9084C59.9543 38.4727 59.6052 38.1459 59.1396 38.037ZM58.6741 40.7601C58.5578 40.869 58.4414 40.978 58.2086 41.0869C57.8595 41.1958 57.6267 41.1958 57.2776 41.1958H56.8121V39.453H57.394C57.7431 39.453 58.0922 39.453 58.4414 39.563C58.6741 39.6709 58.9069 39.9976 58.9069 40.3244C58.9069 40.4333 58.7905 40.6512 58.6741 40.7601Z" fill="white"/>
<path d="M137.695 26.3815C140.255 24.8565 143.281 23.9851 146.307 23.9851C145.957 22.8958 144.678 18.4298 146.889 14.1817C144.444 15.9245 143.165 18.7566 143.397 21.6976C143.397 21.6976 140.837 15.271 137.346 11.3496C136.88 16.3602 138.51 23.1137 138.51 23.1137C136.997 20.6084 134.319 18.8655 131.178 18.7566C135.716 21.0441 137.346 25.2922 137.695 26.3815Z" fill="#E99D31"/>
<path d="M116.4 37.8184V46.3146H118.146V37.8184H116.4Z" fill="white"/>
<path d="M72.7516 37.8184L69.1439 46.4236H71.006L71.8206 44.6797H75.5447L76.243 46.4236H78.105L74.4973 37.8184H72.7516ZM72.4025 43.0468L73.6827 40.1058L74.9628 43.0458H72.4025V43.0468Z" fill="white"/>
<path d="M104.648 37.8184L101.041 46.4236H102.786L103.601 44.6797H107.441L108.14 46.4236H110.002L106.394 37.8184H104.648ZM104.299 43.0468L105.579 40.1069L106.86 43.0468H104.299Z" fill="white"/>
<path d="M109.763 39.3433H111.393V46.3146H113.255V39.3433H115V37.8184H109.763V39.3433Z" fill="white"/>
<path d="M96.6119 37.8184L94.4007 43.8093L92.3059 37.8184H90.5602L88.9309 46.4236H90.6766L91.724 40.9772L93.586 46.3146H95.2153L97.1938 40.8683L98.1248 46.3146H99.8705L98.3576 37.8184H96.6119Z" fill="white"/>
<path d="M83.3459 43.5935H86.0226C85.7898 44.0292 85.4407 44.466 84.9752 44.6828C84.5097 44.9006 83.9278 45.0106 83.4623 45.0106C82.5312 45.0106 81.7166 44.6828 81.1347 44.1381C80.5528 43.5935 80.2037 42.831 80.2037 42.0685C80.2037 41.306 80.5528 40.5436 81.1347 39.9989C81.7166 39.4543 82.5312 39.1275 83.4623 39.1275C84.5097 39.1275 85.5571 39.5632 86.2553 40.3257L87.5355 39.2364C87.07 38.6918 86.4881 38.2572 85.7898 38.0382C85.0916 37.7115 84.2769 37.6025 83.4623 37.6025C82.0657 37.6025 80.6692 38.1472 79.7382 39.1275C78.9235 39.89 78.458 40.9793 78.458 42.0685C78.458 42.831 78.6908 43.7024 79.1563 44.356C79.6218 45.0106 80.2037 45.6631 80.902 45.9899C81.7166 46.4256 82.6476 46.5345 83.4623 46.5345C84.2769 46.5345 85.0916 46.3167 85.7898 45.9899C87.1864 45.2274 88.001 43.8114 88.1174 42.2875V41.9596H83.4623V43.5935H83.3459Z" fill="white"/>
</svg>
