<svg width="206" height="70" viewBox="0 0 206 70" fill="none" xmlns="http://www.w3.org/2000/svg">
<path d="M0.78125 0H188.892C198.22 0 205.781 7.56162 205.781 16.8894V70H43.4547C33.2153 70 24.0656 63.6059 20.5457 53.9906L0.78125 0Z" fill="#0B0E15"/>
<path d="M142.808 37.2109H141.062V45.5983H145.368V44.0733H142.808V37.2109Z" fill="white"/>
<path d="M138.503 37.5379C137.803 37.3201 137.106 37.2111 136.292 37.3201H134.43V45.7074H136.175V42.1128C136.757 42.1128 137.456 42.1128 138.037 42.0028C138.619 41.8939 139.085 41.5682 139.434 41.2403C139.783 40.8057 140.016 40.2611 139.899 39.7165C139.899 39.2808 139.782 38.7361 139.549 38.3004C139.318 37.9736 138.968 37.6469 138.503 37.5379ZM138.154 40.1522C138.037 40.2611 137.921 40.37 137.805 40.4789C137.456 40.5879 137.223 40.5879 136.874 40.5879H136.292V38.845H136.757C137.106 38.845 137.572 38.8451 137.921 39.0618C138.154 39.1718 138.385 39.4975 138.385 39.8243C138.27 39.8254 138.27 40.0432 138.154 40.1522Z" fill="white"/>
<path d="M152.82 35.7967C158.639 35.47 155.613 28.8265 149.794 29.1522C144.325 29.479 146.768 36.1235 152.82 35.7967Z" fill="#E99D31"/>
<path d="M155.846 37.2109H153.984L156.661 42.0037V45.5983H158.407V42.0037L161.083 37.2109H159.221L157.476 40.2609L155.846 37.2109Z" fill="white"/>
<path d="M170.86 37.3203H170.278L169.58 39.3899L168.765 37.3203H168.183L167.602 40.2613H168.3L168.649 38.4096L169.231 40.2613H169.813L170.511 38.4096L170.86 40.2613H171.442L170.86 37.3203Z" fill="white"/>
<path d="M165.625 37.8649H166.207V40.2613H166.905V37.8649H167.487V37.3203H165.625V37.8649Z" fill="white"/>
<path d="M124.422 38.4073C125.47 38.4073 126.518 38.843 127.332 39.6055L128.613 38.5163C127.566 37.427 126.053 36.7734 124.54 36.7734C123.609 36.7734 122.794 36.9913 121.98 37.427C120.583 38.0816 119.769 39.3888 119.536 40.6948C119.302 42.1108 119.884 43.5269 120.931 44.5072C121.862 45.3786 123.142 45.8143 124.539 45.7054C125.237 45.7054 125.935 45.5954 126.634 45.3786C127.332 45.0508 128.03 44.6162 128.612 44.0715L127.448 42.8722C127.099 43.3079 126.517 43.6347 126.052 43.8526C125.586 44.0704 125.121 44.1794 124.655 44.0704C124.073 44.0704 123.491 43.9604 123.027 43.6347C122.562 43.4169 122.095 42.9812 121.863 42.5455C121.629 42.1108 121.397 41.5662 121.513 41.0216V40.9126C121.28 39.6055 122.793 38.4073 124.422 38.4073Z" fill="white"/>
<path d="M153.988 26.207C147.355 23.7017 139.79 25.1178 134.67 29.8016C129.549 34.4855 128.152 41.6746 130.946 47.8834C133.737 54.0923 140.256 58.0136 147.355 58.0136C157.014 58.0136 164.929 50.6066 164.812 41.4568C164.928 34.8122 160.622 28.8213 153.988 26.207ZM147.471 56.2708C138.743 56.1619 131.76 49.6263 131.76 41.4568C131.76 33.2873 138.743 26.7517 147.471 26.6427C156.2 26.6427 163.299 33.2873 163.299 41.4568C163.299 49.6263 156.2 56.2708 147.471 56.2708Z" fill="#E99D31"/>
<path d="M149.913 37.2109L146.422 45.5972H148.284L148.983 43.8544H152.707L153.406 45.5972H155.268L151.776 37.2109H149.913ZM149.564 42.3305L150.844 39.4984L152.008 42.3305H149.564Z" fill="white"/>
<path d="M67.1675 40.9133C67.5167 40.4787 67.633 40.0419 67.633 39.4973C67.633 38.9526 67.5167 38.5169 67.2839 38.0812C67.0511 37.7544 66.702 37.4266 66.2365 37.2098C65.5382 36.992 64.7236 36.883 64.0253 36.992H62.0469V45.5972H63.7925V42.0026H63.9089L66.0037 45.5972H67.9822L65.771 41.7847C66.3529 41.6758 66.8184 41.349 67.1675 40.9133ZM64.3744 40.3687H63.7925V38.6259H64.3744C64.7236 38.6259 64.9563 38.6258 65.3055 38.7348C65.6546 38.8448 65.8874 39.1705 65.8874 39.4973C65.8874 39.7151 65.771 40.0419 65.5382 40.1508C65.1891 40.3687 64.84 40.4776 64.3744 40.3687Z" fill="white"/>
<path d="M59.1357 37.3192C58.4375 37.1013 57.6228 36.9924 56.9246 37.1013H55.0625V45.7065H56.8082V42.112C57.3901 42.112 58.0883 42.112 58.6702 42.0019C59.2521 41.8941 59.7176 41.5673 60.0668 41.1316C60.4159 40.6959 60.6487 40.1513 60.5323 39.6066C60.5323 39.172 60.4159 38.6274 60.1831 38.1906C59.9504 37.7549 59.6013 37.4281 59.1357 37.3192ZM58.6702 40.0423C58.5538 40.1513 58.4375 40.2602 58.2047 40.3691C57.8556 40.4781 57.6228 40.4781 57.2737 40.4781H56.8082V38.7352H57.3901C57.7392 38.7352 58.0883 38.7352 58.4375 38.8452C58.6702 38.9531 58.903 39.2799 58.903 39.6066C58.903 39.7156 58.7866 39.9334 58.6702 40.0423Z" fill="white"/>
<path d="M137.689 25.6647C140.249 24.1397 143.275 23.2683 146.301 23.2683C145.951 22.179 144.672 17.713 146.883 13.4649C144.438 15.2077 143.159 18.0398 143.392 20.9808C143.392 20.9808 140.831 14.5542 137.34 10.6328C136.874 15.6434 138.504 22.3969 138.504 22.3969C136.991 19.8916 134.313 18.1488 131.172 18.0398C135.711 20.3273 137.34 24.5754 137.689 25.6647Z" fill="#E99D31"/>
<path d="M116.398 37.1016V45.5978H118.144V37.1016H116.398Z" fill="white"/>
<path d="M72.7483 37.1016L69.1406 45.7068H71.0027L71.8173 43.9629H75.5414L76.2397 45.7068H78.1017L74.494 37.1016H72.7483ZM72.3992 42.33L73.6794 39.389L74.9595 42.329H72.3992V42.33Z" fill="white"/>
<path d="M104.647 37.1016L101.039 45.7068H102.785L103.599 43.9629H107.44L108.138 45.7068H110L106.392 37.1016H104.647ZM104.298 42.33L105.578 39.3901L106.858 42.33H104.298Z" fill="white"/>
<path d="M109.758 38.6265H111.387V45.5978H113.249V38.6265H114.995V37.1016H109.758V38.6265Z" fill="white"/>
<path d="M96.6107 37.1016L94.3995 43.0925L92.3047 37.1016H90.559L88.9297 45.7068H90.6754L91.7228 40.2604L93.5848 45.5978H95.2141L97.1925 40.1515L98.1236 45.5978H99.8692L98.3563 37.1016H96.6107Z" fill="white"/>
<path d="M83.341 42.8777H86.0177C85.785 43.3134 85.4358 43.7502 84.9703 43.9669C84.5048 44.1848 83.9229 44.2948 83.4574 44.2948C82.5264 44.2948 81.7117 43.9669 81.1298 43.4223C80.5479 42.8777 80.1988 42.1152 80.1988 41.3527C80.1988 40.5902 80.5479 39.8277 81.1298 39.2831C81.7117 38.7385 82.5264 38.4117 83.4574 38.4117C84.5048 38.4117 85.5522 38.8474 86.2505 39.6099L87.5306 38.5206C87.0651 37.976 86.4832 37.5414 85.785 37.3224C85.0867 36.9956 84.272 36.8867 83.4574 36.8867C82.0608 36.8867 80.6643 37.4314 79.7333 38.4117C78.9186 39.1742 78.4531 40.2634 78.4531 41.3527C78.4531 42.1152 78.6859 42.9866 79.1514 43.6402C79.6169 44.2948 80.1988 44.9473 80.8971 45.2741C81.7117 45.7098 82.6427 45.8187 83.4574 45.8187C84.272 45.8187 85.0867 45.6008 85.785 45.2741C87.1815 44.5116 87.9961 43.0955 88.1125 41.5717V41.2438H83.4574V42.8777H83.341Z" fill="white"/>
<path d="M66.5703 31.4743V22.7598H68.4128V29.9552H72.1488V31.4743H66.5703Z" fill="white"/>
<path d="M75.2114 22.7598V31.4743H73.3689V22.7598H75.2114Z" fill="white"/>
<path d="M78.3017 22.7598L80.408 29.3807H80.4888L82.5994 22.7598H84.6418L81.6377 31.4743H79.2633L76.255 22.7598H78.3017Z" fill="white"/>
<path d="M85.6907 31.4743V22.7598H91.5628V24.2788H87.5332V26.3553H91.2607V27.8744H87.5332V29.9552H91.5798V31.4743H85.6907Z" fill="white"/>
<circle cx="58.2785" cy="27.1164" r="3.21599" fill="#FF0000"/>
</svg>
