<svg width="206" height="71" viewBox="0 0 206 71" fill="none" xmlns="http://www.w3.org/2000/svg">
<path d="M0.785156 0.268555H188.896C198.224 0.268555 205.785 7.83018 205.785 17.1579V70.2686H43.4586C33.2192 70.2686 24.0695 63.8745 20.5496 54.2591L0.785156 0.268555Z" fill="#0B0E15"/>
<path d="M135.198 33.7138C134.92 34.5729 134.641 35.432 134.362 36.2911C133.666 38.2957 133.109 40.3002 132.412 42.3048C132.271 42.5897 132.133 42.7343 131.855 42.7343C131.298 42.7343 130.74 42.7343 130.322 42.7343C130.044 42.7343 129.903 42.5897 129.765 42.3048C128.929 39.5843 128.093 37.007 127.118 34.2866C127.118 34.1434 126.979 34.0002 126.841 33.857C126.7 34.2866 126.7 34.5729 126.561 35.0025C126.143 37.4366 125.724 39.8707 125.446 42.1616C125.446 42.4465 125.306 42.7329 124.889 42.5897C124.193 42.5897 123.496 42.5897 122.8 42.5897C122.8 42.4465 122.8 42.3048 122.8 42.1616C123.635 37.5798 124.332 32.8548 125.168 28.2729C125.168 27.9866 125.307 27.8434 125.586 27.8434C126.143 27.8434 126.84 27.8434 127.397 27.8434C127.815 27.8434 127.954 27.9866 127.954 28.2729C128.929 31.4229 129.904 34.5729 131.019 37.5798C131.019 37.7244 131.019 37.7244 131.158 37.8676C131.437 37.2934 131.576 36.7207 131.716 36.1479C132.551 33.5707 133.387 30.8502 134.223 28.2729C134.362 27.8434 134.502 27.7002 134.92 27.7002C135.476 27.7002 136.034 27.7002 136.452 27.7002C136.87 27.7002 137.009 27.8434 137.009 28.2729C137.427 30.707 137.845 33.1411 138.262 35.7184C138.681 37.8661 138.958 40.0139 139.378 42.1616C139.378 42.3048 139.378 42.3048 139.378 42.4465C138.54 42.4465 137.706 42.4465 137.009 42.4465C136.869 42.4465 136.731 42.1616 136.731 42.017C136.313 39.7275 136.034 37.5798 135.616 35.2889C135.477 34.7161 135.338 34.1434 135.338 33.5707C135.338 33.7138 135.198 33.7138 135.198 33.7138Z" fill="#ED2B24"/>
<path d="M175.877 35.2888C176.016 37.2934 175.459 38.8684 174.205 40.4434C172.394 42.7343 169.886 43.3071 167.1 42.8789C163.756 42.3048 161.527 39.7275 160.97 36.0048C160.551 32.9979 162.363 29.7047 165.15 28.2729C167.797 26.9843 171.837 27.2706 174.344 29.8479C174.484 29.9911 174.623 30.1343 174.623 30.2775C174.066 30.8502 173.508 31.4229 172.951 31.9957C172.951 31.9957 172.533 31.9957 172.394 31.8525C171.419 30.9934 170.304 30.4207 169.05 30.2775C165.707 29.8479 162.921 32.9979 163.756 36.2911C164.314 38.7252 166.682 40.4434 169.329 40.157C170.443 40.0139 171.558 39.5843 172.255 38.582C172.394 38.4374 172.533 38.1511 172.672 37.8661C172.394 37.8661 172.255 37.8661 172.117 37.8661C171.141 37.8661 170.166 37.8661 169.19 37.8661C168.772 37.8661 168.634 37.7215 168.634 37.2934C168.634 36.7207 168.634 36.1465 168.634 35.432C168.634 35.1457 168.773 35.0025 169.052 35.0025C171.281 35.0025 173.51 35.0025 175.599 35.0025C175.737 35.1457 175.877 35.2888 175.877 35.2888Z" fill="#ED2B24"/>
<path d="M105.523 30.4218C104.966 30.9945 104.409 31.5672 103.851 32.14C103.573 32.4263 103.432 32.14 103.294 31.9968C102.319 31.1377 101.204 30.565 99.9507 30.4218C97.443 30.1354 95.0747 31.8536 94.5189 34.2877C93.9616 36.8636 95.4941 39.2991 98.0017 40.1582C99.5327 40.5877 101.065 40.5877 102.319 39.4423C102.737 39.1559 103.016 38.5832 103.433 38.1536C103.433 38.1536 103.433 38.0104 103.294 38.0104C103.155 38.0104 103.016 38.0104 102.737 38.0104C101.763 38.0104 100.788 38.0104 99.6734 38.0104C99.2541 38.0104 99.2541 37.8687 99.2541 37.5809C99.2541 37.0096 99.2541 36.4369 99.2541 35.721C99.2541 35.4346 99.3948 35.2914 99.6734 35.2914C101.763 35.2914 103.853 35.2914 106.082 35.2914C106.498 35.29 106.498 35.4332 106.498 35.7195C106.639 39.1559 104.13 42.3059 100.926 42.8786C98.1396 43.3082 95.4927 42.7355 93.5423 40.4445C91.4526 38.0104 91.0347 35.1468 92.4278 32.14C93.6802 29.2763 95.9106 27.8445 98.9755 27.7013C101.483 27.5581 103.573 28.2741 105.384 30.1354C105.384 30.1354 105.384 30.2786 105.523 30.4218Z" fill="#ED2B24"/>
<path d="M149.819 33.4274C149.819 36.4356 149.819 39.5842 149.819 42.5896C148.844 42.5896 148.007 42.5896 147.172 42.5896C147.172 37.7229 147.172 32.8547 147.172 27.985C148.008 27.985 148.844 27.985 149.68 27.985C149.821 27.985 149.959 28.2714 149.959 28.2714C151.77 30.9919 153.442 33.7123 155.253 36.576C155.392 36.8638 155.531 37.0069 155.671 37.2933H155.81C155.81 37.1501 155.81 36.8623 155.81 36.7206C155.81 34.0001 155.81 31.2797 155.81 28.5592C155.81 28.1296 155.949 27.8433 156.366 27.9865C156.923 27.9865 157.482 27.9865 157.9 27.9865C158.317 27.9865 158.457 28.1296 158.457 28.5592C158.457 32.7115 158.457 37.0069 158.457 41.1578C158.457 42.5896 158.457 42.5896 157.064 42.7342C156.09 42.7342 155.671 42.4479 155.115 41.5888C153.443 38.8683 151.771 36.291 150.098 33.5706C150.098 33.5706 150.098 33.4274 149.819 33.4274C149.959 33.2842 149.819 33.2842 149.819 33.4274Z" fill="#ED2B24"/>
<path d="M76.544 27.9863C77.3812 27.9863 78.2157 27.9863 79.0516 27.9863C79.4709 27.9863 79.3302 28.2727 79.3302 28.4159C79.3302 29.8477 79.3302 31.2795 79.3302 32.8545C79.3302 33.4273 79.4709 33.5704 80.0268 33.5704C81.1413 33.5704 82.3951 33.5704 83.5096 33.5704C83.6503 33.5704 83.9275 33.5704 84.0668 33.5704C84.0668 31.7091 84.0668 29.9909 84.0668 28.1295C85.042 28.1295 85.8779 28.1295 86.8531 28.1295C86.8531 28.4159 86.8531 28.5591 86.8531 28.7022C86.8531 33.1409 86.8531 37.5795 86.8531 42.0182C86.8531 42.5895 86.7124 42.7341 86.1565 42.7341C85.46 42.7341 84.7634 42.7341 84.0668 42.7341C84.0668 42.4477 84.0668 42.3045 84.0668 42.1628C84.0668 40.4432 84.0668 38.5832 84.0668 36.8636C84.0668 36.4355 83.9275 36.2909 83.5096 36.2909C82.2572 36.2909 81.002 36.2909 79.7482 36.2909C79.3302 36.2909 79.1909 36.4355 79.1909 36.8636C79.1909 38.5832 79.1909 40.4432 79.1909 42.1628C79.1909 42.5909 79.0516 42.7341 78.6337 42.7341C78.0778 42.7341 77.5192 42.7341 76.8226 42.7341C76.4047 42.7341 76.4047 42.5895 76.4047 42.1628C76.4047 38.4386 76.4047 34.5727 76.4047 30.85C76.544 29.8477 76.544 28.9886 76.544 27.9863Z" fill="#8F8585"/>
<path d="M107.893 42.5896C108.311 41.4455 108.729 40.4418 109.008 39.4396C110.401 35.7168 111.794 32.1373 113.187 28.4145C113.326 27.985 113.466 27.8418 113.884 27.8418C114.58 27.8418 115.138 27.8418 115.834 27.8418C116.113 27.8418 116.252 27.985 116.391 28.2713C117.784 32.2804 119.317 36.1464 120.848 40.1555C121.127 40.8714 121.405 41.7305 121.823 42.5881C120.848 42.5881 120.012 42.5881 119.178 42.5881C119.037 42.5881 118.899 42.3032 118.899 42.16C118.62 41.4441 118.342 40.7282 118.062 40.0123C117.924 39.7259 117.784 39.5827 117.506 39.5827C115.834 39.5827 114.162 39.5827 112.63 39.5827C112.351 39.5827 112.212 39.7259 112.073 40.0137C111.794 40.7296 111.517 41.4455 111.237 42.1614C111.097 42.5896 110.958 42.5896 110.54 42.5896C109.565 42.5896 108.729 42.5896 107.893 42.5896ZM116.67 36.8623C116.113 35.2873 115.416 33.7123 114.859 32.1373H114.72C114.162 33.7123 113.605 35.2873 112.909 36.8608C114.162 36.8623 115.416 36.8623 116.67 36.8623Z" fill="#ED2B24"/>
<path d="M53.4232 27.9863C54.2591 27.9863 55.095 27.9863 56.0688 27.9863C56.0688 28.1295 56.0688 28.4159 56.0688 28.5591C56.0688 31.4227 56.0688 34.4295 56.0688 37.2932C56.0688 37.7227 56.0688 38.294 56.2095 38.725C56.3488 39.7258 57.1847 40.3 58.2992 40.1568C59.2743 40.1568 60.1102 39.4409 60.2481 38.4386C60.3888 37.8673 60.3888 37.1514 60.3888 36.5773C60.3888 33.8568 60.3888 31.1363 60.3888 28.5591C60.3888 28.4159 60.3888 28.1295 60.3888 27.9863C61.364 27.9863 62.1999 27.9863 63.0344 27.9863C63.0344 28.1295 63.0344 28.2727 63.0344 28.4159C63.0344 31.2795 63.0344 34.1432 63.0344 37.0068C63.0344 37.5781 63.0344 38.294 62.8951 38.8682C62.6164 41.0159 61.084 42.5909 58.855 42.8787C57.4633 43.0205 56.2095 42.7341 55.095 41.875C54.2591 41.1591 53.7018 40.3 53.5625 39.1545C53.4232 38.2954 53.4232 37.5795 53.4232 36.7204C53.4232 33.8568 53.4232 31.1363 53.4232 28.2727C53.4232 28.2727 53.4232 28.1295 53.4232 27.9863Z" fill="#8F8585"/>
<path d="M42.4141 35.2886C42.4141 32.9977 42.4141 30.85 42.4141 28.5591C42.4141 28.1295 42.5534 27.9863 42.9713 27.9863C44.5037 27.9863 45.8969 27.9863 47.4293 28.1295C50.2156 28.2727 51.3301 30.7068 50.9121 32.9977C50.6335 35.0023 49.2404 36.1477 47.29 36.2909C46.8721 36.2909 46.3148 36.4355 45.8969 36.2909C45.3396 36.2909 45.2003 36.4355 45.2003 37.0068C45.2003 38.725 45.2003 40.3 45.2003 42.0182C45.2003 42.4477 45.061 42.5909 44.6431 42.5909C44.0858 42.5909 43.6679 42.5909 43.1092 42.5909C42.4141 42.5909 42.4141 42.5909 42.4141 41.875C42.4141 39.7273 42.4141 37.4364 42.4141 35.2886ZM45.2003 32.1386C45.2003 32.5682 45.2003 32.8545 45.2003 33.2841C45.2003 33.5704 45.3396 33.7136 45.6182 33.7136C46.1755 33.7136 46.5934 33.7136 47.1521 33.5704C47.9866 33.4273 48.4045 32.9977 48.4045 32.1386C48.4045 31.2795 47.9866 30.7068 47.1521 30.5636C46.7327 30.4204 46.1755 30.5636 45.6182 30.4204C45.2003 30.7068 45.2003 30.85 45.2003 31.1363C45.2003 31.5659 45.2003 31.8522 45.2003 32.1386Z" fill="#8F8585"/>
<path d="M67.2103 38.4397C67.4889 38.8692 67.7675 39.3002 68.1854 39.5852C68.7427 40.1579 69.2999 40.4443 70.1358 40.1579C71.2503 39.8715 71.6683 38.7261 70.9717 37.7238C70.5538 37.1525 69.9965 36.7215 69.4393 36.292C68.602 35.5761 67.9054 34.8601 67.0709 34.1442C66.3744 33.4283 65.8171 32.426 65.8171 31.2806C65.8171 29.4192 67.2103 27.8442 69.0227 27.5579C70.9717 27.4147 72.6434 28.1306 73.7579 29.8488C73.2007 30.4215 72.5041 30.9942 71.8076 31.7101C71.5289 31.4238 71.3882 31.1374 71.2503 30.9942C70.8324 30.7079 70.4144 30.4215 69.9965 30.2783C69.4393 30.1351 68.882 30.4215 68.6034 30.851C68.3248 31.4238 68.6034 31.8533 69.0213 32.1397C69.7179 32.8556 70.5538 33.5715 71.3882 34.2874C72.0848 34.8601 72.7814 35.5761 73.3386 36.292C75.289 38.8692 73.7565 42.4488 70.5524 42.8798C68.1841 43.1647 66.5123 42.1639 65.3978 40.1593C65.2585 39.873 65.2585 39.5866 65.5385 39.4434C65.9564 39.1556 66.653 38.7261 67.2103 38.4397Z" fill="#8F8585"/>
<path d="M141.325 42.5909C141.325 37.7227 141.325 32.8545 141.325 27.9863C142.162 27.9863 142.997 27.9863 143.972 27.9863C143.972 28.1295 143.972 28.4159 143.972 28.5591C143.972 32.9977 143.972 37.5781 143.972 42.0182C143.972 42.5895 143.831 42.7341 143.276 42.5895C142.718 42.5909 142.022 42.5909 141.325 42.5909Z" fill="#ED2B24"/>
<path d="M179.22 29.5617C179.081 29.9913 179.081 30.4208 178.942 30.8503C178.942 30.9935 178.803 31.1367 178.663 31.1367C178.663 30.9935 178.524 30.8503 178.524 30.7072C178.663 29.9913 178.803 29.2753 178.942 28.4162C178.942 28.2731 179.083 28.1299 179.22 28.1299C179.358 28.1299 179.499 28.2731 179.638 28.4162C179.779 28.8458 179.917 29.4185 180.196 29.9913C180.335 29.5617 180.474 28.989 180.614 28.5594C180.614 28.4162 180.892 28.2731 181.032 28.1299C181.172 28.2731 181.31 28.4162 181.31 28.5594C181.449 29.2753 181.589 29.8481 181.589 30.564C181.589 30.7072 181.448 30.8503 181.448 30.9935C181.309 30.8503 181.171 30.7072 181.03 30.564C180.891 30.2776 180.891 29.8481 180.752 29.5617H180.612C180.473 29.9913 180.334 30.2776 180.194 30.7072C180.054 30.8503 179.916 30.9935 179.776 31.1367C179.636 31.1367 179.498 30.9935 179.498 30.8503C179.638 30.4208 179.499 29.9913 179.22 29.5617C179.36 29.5617 179.22 29.5617 179.22 29.5617Z" fill="#8F8585"/>
<path d="M177.822 30.9939C177.404 31.1371 177.265 30.9939 177.265 30.7075C177.265 30.278 177.265 29.7053 177.265 29.2757C177.265 28.9893 177.405 28.703 176.847 28.5598L176.707 28.4166C176.707 28.2734 176.847 28.2734 176.847 28.2734C177.265 28.2734 177.543 28.2734 177.961 28.2734L178.101 28.4166C178.101 28.5598 177.96 28.703 177.96 28.703C177.543 28.703 177.683 28.9893 177.683 29.2757C177.822 29.8484 177.822 30.4212 177.822 30.9939Z" fill="#8F8585"/>
</svg>
