<svg width="206" height="71" viewBox="0 0 206 71" fill="none" xmlns="http://www.w3.org/2000/svg">
<path d="M0.785156 0.261719H188.896C198.224 0.261719 205.785 7.82334 205.785 17.1511V70.2617H43.4586C33.2192 70.2617 24.0695 63.8676 20.5496 54.2523L0.785156 0.261719Z" fill="#0B0E15"/>
<path d="M46.6487 45.7158C46.5145 46.2271 46.3803 46.4828 46.2461 46.7385C45.0382 44.821 43.696 42.9036 42.7565 40.8583C41.817 39.0687 42.3539 37.0234 43.2934 35.2337C43.2934 36.2564 43.2934 37.1512 43.4276 38.1738C43.696 39.9635 44.2329 41.7531 45.4408 43.1592C45.8434 43.6705 46.3803 44.054 46.9171 44.4375L47.0514 44.3097C46.5145 43.287 45.9777 42.1366 45.575 41.1139C45.1724 39.9635 44.9039 38.813 44.5013 37.5347C45.0382 37.6625 45.4408 37.7903 45.8434 37.9182C45.4408 36.6399 45.1724 35.4894 44.7697 34.3389H44.9039C45.575 35.4894 46.3803 36.512 47.0514 37.6625C47.1856 37.7903 47.0514 38.1738 46.9171 38.3017C46.5145 38.9408 46.5145 39.58 46.7829 40.2191C47.454 41.4974 48.1251 42.6479 48.7961 43.7984C48.9303 42.6479 48.9303 41.4974 48.2593 40.4748C47.7224 39.58 47.5882 38.9408 48.2593 38.046C48.3935 37.9182 48.5277 37.9182 48.5277 37.7903C48.6619 36.512 49.8698 36.3842 50.6751 35.8729C50.9435 35.7451 51.212 35.4894 51.6146 35.3616C51.6146 35.2337 51.6146 35.2337 51.6146 35.1059C51.212 35.1059 50.8093 34.9781 50.5409 35.1059C50.0041 35.2337 49.6014 35.4894 49.1988 35.7451C47.9909 36.3842 47.454 36.1286 47.454 34.8503C47.9909 34.5946 48.6619 34.3389 49.333 33.9554C48.3935 33.4441 47.0514 33.9554 47.1856 32.5493C47.5882 32.6771 47.8566 32.6771 48.2593 32.805C47.7224 31.9102 47.1856 31.1432 46.9171 30.3762C46.6487 29.4814 46.7829 28.5866 46.6487 27.6918C46.5145 27.6918 46.5145 27.5639 46.3803 27.5639C45.9777 27.9474 45.575 28.3309 45.1724 28.8422C44.3671 28.4587 43.5618 28.4588 43.5618 27.3083C43.8302 27.4361 44.0987 27.5639 44.6355 27.6918C44.3671 27.3083 44.2329 27.0526 43.9645 26.797C42.8908 25.7743 42.6223 24.496 42.6223 23.2177C42.6223 22.3229 43.4276 21.9394 44.3671 22.1951C45.9777 22.7064 47.7224 23.2177 49.4672 23.729C50.1383 23.8569 50.8093 23.8569 51.4804 23.8569C49.8698 24.7517 48.1251 23.9847 46.3803 23.9847V24.1125C46.7829 24.2404 47.0514 24.496 47.3198 24.6238C47.1856 24.8795 47.0514 25.1352 47.1856 25.263C47.454 26.1578 47.5882 27.1804 47.3198 28.3309C47.0514 29.3536 47.5882 30.1205 48.3935 30.7597C48.9303 31.271 49.4672 31.7823 50.0041 32.2937C50.9435 33.1885 52.1515 33.572 53.6278 33.3163C53.3594 32.6771 52.6883 32.4215 52.1515 32.2937C50.4067 31.7823 49.333 30.6319 48.5277 29.0979C48.2593 28.7144 48.2593 28.2031 48.1251 27.6918C48.3935 27.6918 48.3935 27.6918 48.3935 27.8196C48.7961 28.9701 49.6014 29.3536 50.9435 29.3536C52.1515 29.3536 53.091 29.8649 53.6278 30.8875C53.8962 31.3988 54.2989 32.038 55.1042 32.2937C55.2384 31.7823 55.3726 31.271 55.3726 30.7597C55.3726 30.504 55.2384 30.3762 54.9699 30.1205C54.5673 29.6092 54.0304 29.2257 53.6278 28.7144C54.0304 28.5866 54.2989 28.3309 54.5673 28.2031V28.0753C53.8962 28.0753 53.091 28.0753 52.4199 28.0753V27.9474C53.091 27.6918 53.762 27.4361 54.4331 27.1804C53.091 26.2856 51.6146 26.797 50.1383 26.5413C51.883 26.03 53.6278 25.5187 55.2384 25.0073C55.2384 24.8795 55.2384 24.8795 55.2384 24.7517C54.2989 24.7517 53.2252 24.7517 52.2857 24.7517C53.091 24.1125 54.0304 23.6012 55.1042 23.6012C56.7147 23.6012 58.4595 23.4734 60.07 23.6012C61.1437 23.729 62.0832 24.1125 63.1569 24.3682C63.1569 24.496 63.1569 24.496 63.1569 24.6238C62.2175 24.6238 61.1437 24.6238 60.2043 24.6238C60.2043 24.7517 60.2043 24.7517 60.2043 24.8795C61.8148 25.3908 63.2912 25.9021 65.0359 26.4135C63.5596 26.6691 62.2175 26.2856 61.0095 27.0526C61.0095 27.1804 61.0095 27.1804 61.0095 27.3083C61.6806 27.5639 62.2175 27.6918 62.8885 27.9474C62.2175 27.9474 61.5464 27.9474 60.8753 27.9474V28.0753C61.1437 28.2031 61.4122 28.4588 61.8148 28.5866C61.4122 29.0979 60.8753 29.4814 60.4727 29.9927C60.2043 30.2484 60.07 30.504 60.3385 30.8875C60.4727 31.1432 60.3385 31.6545 60.3385 32.1658C61.1437 31.7823 61.6806 31.1432 62.0832 30.3762C62.6201 29.4814 63.4254 28.9701 64.4991 28.8422C65.707 28.7144 66.9149 28.7144 67.1833 27.1804C67.3176 27.1804 67.3176 27.3083 67.4518 27.3083C67.3176 27.6918 67.3176 28.2031 67.1833 28.5866C66.5123 30.2484 65.1701 31.271 63.2912 31.9102C62.8885 32.038 62.4859 32.2937 61.949 32.5493C61.949 32.6771 61.949 32.6771 61.949 32.805C62.4859 32.805 63.1569 32.9328 63.6938 32.805C64.9017 32.5493 65.9754 31.7823 66.6465 30.7597C67.0491 30.1205 67.586 29.3536 67.9886 28.5866C67.9886 28.4588 68.1228 28.3309 68.1228 28.2031C67.9886 27.5639 67.586 26.6691 67.8544 26.2856C68.3913 25.6465 68.1228 25.0073 68.3913 24.3682C68.1228 24.3682 67.8544 24.496 67.7202 24.496V24.3682C68.257 24.1125 68.6597 23.9847 69.1965 23.729C68.3913 23.3455 67.586 23.4734 66.7807 23.6012C65.8412 23.729 64.9017 23.9847 63.9622 23.3455C66.5123 23.4734 68.6597 22.8342 70.9413 21.9394C72.015 21.4281 72.8203 21.9394 72.8203 23.0899C72.8203 24.3682 72.5519 25.6465 71.4782 26.5413C71.344 26.6691 71.2097 26.9248 70.9413 27.3083C71.4782 27.1804 71.7466 27.0526 72.015 26.9248C72.015 27.8196 71.6124 28.2031 70.2702 28.4587C70.136 28.2031 70.0018 27.8196 69.7334 27.5639C69.5992 27.4361 69.3308 27.3083 69.0623 27.3083C68.9281 27.3083 68.7939 27.5639 68.6597 27.8196C68.6597 27.9474 68.6597 28.0753 68.6597 28.2031C68.9281 29.7371 68.7939 31.271 67.1833 32.1658C67.1833 32.2937 67.3176 32.2937 67.3176 32.4215C67.7202 32.4215 68.1228 32.4215 68.3913 32.5493C68.3913 33.6998 67.4518 33.572 66.6465 33.572C66.7807 34.0833 66.7807 34.0833 68.1228 34.5946C68.1228 34.7224 67.9886 34.9781 67.9886 35.1059C67.7202 35.8729 67.3176 36.0007 66.6465 35.6172C65.8412 35.1059 64.9017 34.7224 63.6938 35.1059C64.7675 35.7451 65.707 36.2564 66.6465 36.7677C66.3781 37.279 66.5123 37.6625 66.9149 37.9182C67.4518 38.3017 67.586 39.3243 67.1833 40.0913C66.5123 41.2418 66.6465 42.3922 66.6465 43.6705C66.6465 43.5427 66.7807 43.5427 66.7807 43.4149C67.1833 42.1366 67.7202 40.9861 68.5255 39.8356C68.9281 39.3243 69.1965 38.5573 68.5255 37.7903C68.5255 37.6625 68.3913 37.5347 68.5255 37.4069C69.0623 36.2564 69.7334 35.1059 70.2702 33.9554C70.4045 33.9554 70.4045 34.0833 70.5387 34.0833C70.136 35.2337 69.7334 36.512 69.3308 37.7903C69.8676 37.6625 70.2702 37.5347 70.8071 37.279C70.2702 39.7078 69.3308 41.8809 68.1228 44.054C68.9281 44.054 69.465 43.5427 69.8676 43.0314C71.344 41.2418 71.8808 39.1965 72.015 37.0234C72.015 36.3842 72.015 35.7451 72.1492 34.9781C72.9545 36.1286 73.2229 39.58 72.8203 40.8583C72.8203 40.9861 72.6861 41.1139 72.5519 41.2418C71.4782 42.9036 70.4045 44.4375 69.3308 46.0993C69.3308 46.0993 69.1965 46.0993 69.1965 46.2271C69.0623 45.9715 69.0623 45.7158 68.7939 45.3323C68.1228 46.4828 67.586 47.3776 67.0491 48.4002H66.9149C66.9149 47.6333 66.9149 46.8663 66.9149 46.0993C66.9149 45.8436 66.5123 45.588 66.3781 45.3323C66.1096 45.588 65.8412 45.8436 65.8412 46.0993C65.707 46.6106 65.8412 46.9941 65.8412 47.6333C65.3044 47.3776 64.7675 47.1219 64.3649 46.8663C63.5596 46.4828 62.7543 46.4828 62.0832 47.1219C61.6806 47.5054 60.8753 47.7611 60.2043 47.7611C58.9963 47.8889 57.6542 47.7611 56.4463 47.8889C55.641 47.8889 54.9699 47.7611 54.5673 47.2498C53.762 46.4828 52.9567 46.4828 52.0173 46.9941C51.6146 47.2498 51.212 47.3776 50.8093 47.6333C50.6751 47.1219 50.6751 46.4828 50.5409 46.0993C50.4067 45.8436 50.1383 45.7158 49.8698 45.4602C49.7356 45.7158 49.4672 45.9715 49.4672 46.2271C49.4672 46.9941 49.4672 47.8889 49.333 48.7837C47.8566 47.8889 47.3198 46.9941 46.6487 45.7158ZM63.5596 46.4828C63.1569 44.821 61.949 43.5427 60.2043 43.1592C58.7279 42.7757 57.1174 42.6479 55.5068 43.0314C54.7015 43.1592 53.762 43.5427 53.091 44.054C52.2857 44.4375 51.6146 45.2045 51.6146 46.355C52.0173 45.9715 52.4199 45.7158 52.8225 45.4602C53.2252 45.2045 53.6278 45.3323 53.6278 45.8436C53.6278 46.0993 53.6278 46.355 53.8962 46.6106C54.8357 47.3776 56.7147 47.3776 57.6542 46.7385C57.9226 46.8663 58.0568 47.1219 58.3253 47.1219C59.399 47.2498 60.3385 46.9941 61.278 46.4828C61.4122 46.355 61.5464 46.0993 61.5464 45.9715C61.5464 45.3323 61.8148 45.2045 62.3517 45.4602C62.6201 45.7158 63.0227 46.0993 63.5596 46.4828ZM61.4122 33.9554C61.4122 34.4668 61.4122 34.9781 61.4122 35.3616C61.5464 36.0007 61.4122 36.512 60.8753 36.8955C60.2043 37.4069 59.5332 38.046 58.7279 38.3017C57.7884 38.6852 57.9226 39.3243 57.9226 39.9635C57.9226 40.6026 58.3253 40.8583 58.8621 40.9861C59.8016 41.2418 60.6069 41.6253 61.5464 41.8809C62.4859 42.1366 63.828 41.6253 64.0964 40.7304C63.5596 40.6026 62.8885 40.6026 62.2175 40.4748C63.9622 39.7078 63.9622 39.7078 64.0964 39.1965C63.2912 39.3243 62.4859 39.58 61.8148 39.7078C62.2175 39.3243 62.7543 39.0686 63.1569 38.6852C63.6938 38.4295 63.9622 37.9182 63.9622 37.279C63.1569 37.6625 62.6201 38.5573 61.4122 38.3017C62.2175 37.6625 62.8885 37.1512 63.4254 36.7677C63.1569 36.2564 62.6201 35.7451 62.6201 35.3616C62.6201 34.7224 62.2175 34.3389 61.4122 33.9554ZM53.6278 40.6026C53.6278 40.7304 53.6278 40.7304 53.6278 40.8583C52.6883 40.8583 51.883 40.8583 50.9435 40.8583C51.3462 41.7531 52.5541 42.2644 53.4936 42.0087C54.5673 41.7531 55.641 41.3696 56.5805 40.9861C56.8489 40.8583 56.9831 40.7304 57.1174 40.4748C57.52 39.58 57.1174 38.5573 56.1779 38.3017C54.2989 37.5347 53.4936 36.512 53.762 34.4668C53.762 34.3389 53.762 34.0833 53.762 33.9554C52.9567 33.9554 52.4199 34.4668 52.5541 35.3616C52.5541 35.8729 52.5541 36.3842 51.883 36.6399C52.4199 37.279 52.9567 37.9182 53.4936 38.5573C52.2857 38.813 51.7488 37.7903 50.9435 37.5347C51.0778 37.9182 51.212 38.3017 51.4804 38.5573C51.7488 38.813 52.1515 39.0686 52.4199 39.1965C52.6883 39.4521 53.091 39.58 53.3594 39.8356V39.9635C52.5541 39.8356 51.7488 39.58 50.8093 39.3243C51.3462 40.4748 52.6883 40.0913 53.6278 40.6026ZM54.9699 34.9781C54.8357 34.9781 54.8357 34.9781 54.7015 34.9781C54.7015 35.3616 54.4331 35.7451 54.5673 36.0007C54.7015 36.2564 55.1042 36.512 55.3726 36.512C56.7147 36.6399 58.0568 36.512 59.399 36.512C59.9358 36.512 60.3385 36.3842 60.4727 36.0007C60.4727 35.6172 60.3385 35.2337 60.07 34.7224C59.399 36.2564 58.1911 36.0007 57.1174 36.0007C56.4463 36.1286 55.3726 36.1286 54.9699 34.9781ZM51.3462 29.9927C51.212 29.9927 51.212 29.9927 51.0778 30.1205C51.0778 30.3762 50.9435 30.6319 50.9435 30.8875C50.9435 31.3988 51.3462 31.7823 51.7488 31.7823C52.0173 31.7823 52.2857 31.271 52.5541 31.0154C52.2857 30.6319 51.883 30.2484 51.3462 29.9927ZM63.828 30.2484C63.1569 30.1205 62.6201 30.3762 62.3517 30.8875C62.2175 31.0154 62.3517 31.5267 62.6201 31.6545C62.8885 31.7823 63.2912 31.7823 63.4254 31.6545C63.9622 31.271 64.0964 30.7597 63.828 30.2484Z" fill="#C22C27"/>
<path d="M150.532 32.166C149.324 32.6773 148.117 33.1887 146.909 33.5721C146.774 33.4443 146.64 33.1887 146.64 33.0608C145.298 30.8877 142.345 30.7599 140.735 32.8052C139.393 34.467 139.393 37.0236 140.601 38.8132C141.674 40.3471 143.687 40.8585 145.298 40.0915C146.238 39.5802 146.774 38.941 146.64 37.9184C145.701 37.9184 144.627 37.9184 143.687 37.9184C143.687 36.8957 143.687 36.0009 143.687 35.1061C146.238 35.1061 148.653 35.1061 151.069 35.1061C151.472 40.0915 148.117 43.9264 142.48 43.2872C139.124 42.9037 136.708 40.9863 135.903 38.174C134.964 34.8505 136.037 31.5269 138.587 29.7372C141.943 27.3085 147.043 27.8198 149.459 30.7599C149.996 31.1434 150.264 31.6547 150.532 32.166Z" fill="#C22C27"/>
<path d="M99.6605 42.7754C99.6605 38.0456 99.6605 33.4438 99.6605 28.714C101.54 28.714 103.418 28.5862 105.297 28.714C106.371 28.714 107.445 28.9697 108.384 29.3532C111.471 30.6315 113.216 33.9551 112.411 37.1508C111.74 40.3466 108.787 42.6475 105.432 42.7754C103.553 42.7754 101.674 42.7754 99.6605 42.7754ZM103.553 39.7074C105.566 40.0909 107.311 39.3239 108.25 38.0456C109.19 36.6395 109.055 34.4664 107.982 33.1881C107.042 32.0376 105.029 31.3985 103.553 31.9098C103.553 34.4664 103.553 37.023 103.553 39.7074Z" fill="#C22C27"/>
<path d="M176.297 42.7752C174.687 42.7752 173.345 42.7752 171.868 42.7752C171.734 42.7752 171.466 42.5195 171.332 42.2639C170.392 40.8577 169.453 39.4516 168.513 38.0455C168.379 37.7898 168.245 37.662 167.976 37.2785C167.976 39.1959 167.976 40.9856 167.976 42.7752C166.634 42.7752 165.426 42.7752 164.218 42.7752C164.218 38.1733 164.218 33.4436 164.218 28.7139C165.56 28.7139 166.903 28.7139 168.11 28.7139C169.453 28.7139 170.795 28.7139 172.003 28.9695C174.016 29.4808 174.955 30.887 174.955 32.8044C174.955 34.9775 174.016 36.128 172.003 36.895C171.868 36.895 171.868 36.895 171.734 37.0228C173.211 38.9403 174.687 40.8577 176.297 42.7752ZM167.842 35.1054C168.245 35.1054 168.379 35.1054 168.647 35.1054C168.916 35.1054 169.318 35.1054 169.587 34.9775C170.392 34.8497 170.929 34.2106 170.929 33.4436C170.929 32.5488 170.66 31.9096 169.721 31.654C169.184 31.5261 168.647 31.5261 168.11 31.3983C167.976 31.3983 167.708 31.654 167.708 31.654C167.842 32.8044 167.842 33.9549 167.842 35.1054Z" fill="#C22C27"/>
<path d="M153.215 28.7139C156.033 28.7139 158.718 28.7139 161.536 28.7139C161.536 29.7365 161.536 30.6313 161.536 31.654C160.06 31.654 158.584 31.654 157.107 31.654C157.107 32.5488 157.107 33.3158 157.107 34.0827C158.584 34.0827 159.926 34.0827 161.402 34.0827C161.402 35.1054 161.402 36.0002 161.402 37.1507C159.926 37.1507 158.584 37.1507 157.107 37.1507C157.107 38.0455 157.107 38.8124 157.107 39.7073C158.584 39.7073 160.06 39.7073 161.536 39.7073C161.536 40.7299 161.536 41.7525 161.536 42.7752C158.852 42.7752 156.033 42.7752 153.349 42.7752C153.215 38.1733 153.215 33.4436 153.215 28.7139Z" fill="#C22C27"/>
<path d="M128.653 28.8418C128.653 29.8644 128.653 30.7593 128.653 31.7819C127.579 31.7819 126.64 31.7819 125.566 31.7819C125.566 35.489 125.566 39.0682 125.566 42.7753C124.224 42.7753 123.016 42.7753 121.808 42.7753C121.808 39.196 121.808 35.489 121.808 31.7819C120.734 31.7819 119.661 31.7819 118.721 31.7819C118.721 30.7593 118.721 29.8644 118.721 28.8418C121.808 28.8418 125.163 28.8418 128.653 28.8418Z" fill="#C22C27"/>
<path d="M133.881 42.7753C132.673 42.7753 131.465 42.7753 130.123 42.7753C130.123 38.1734 130.123 33.4437 130.123 28.8418C131.331 28.8418 132.539 28.8418 133.881 28.8418C133.881 33.4437 133.881 38.0456 133.881 42.7753Z" fill="#C22C27"/>
<path d="M87.5892 42.7752C85.9786 42.7752 84.6365 42.7752 83.1602 42.7752C83.0259 42.7752 82.7575 42.5195 82.6233 42.2639C81.6838 40.8577 80.7443 39.4516 79.8048 38.0455C79.6706 37.7898 79.5364 37.662 79.268 37.2785C79.268 39.1959 79.268 40.9856 79.268 42.7752C77.9258 42.7752 76.7179 42.7752 75.51 42.7752C75.51 38.1733 75.51 33.4436 75.51 28.7139C76.8521 28.7139 78.1943 28.7139 79.4022 28.7139C80.7443 28.7139 82.0865 28.7139 83.2944 28.9695C85.3076 29.4808 86.2471 30.887 86.2471 32.8044C86.2471 34.9775 85.3076 36.128 83.2944 36.895C83.1602 36.895 83.1602 36.895 83.0259 37.0228C84.6365 38.9403 86.1128 40.8577 87.5892 42.7752ZM79.1338 35.1054C79.5364 35.1054 79.6706 35.1054 79.939 35.1054C80.2075 35.1054 80.6101 35.1054 80.8785 34.9775C81.6838 34.8497 82.2207 34.2106 82.2207 33.4436C82.2207 32.5488 81.9522 31.9096 81.0127 31.654C80.4759 31.5261 79.939 31.5261 79.4022 31.3983C79.268 31.3983 78.9996 31.654 78.9996 31.654C79.1338 32.8044 79.1338 33.9549 79.1338 35.1054Z" fill="#C22C27"/>
<path d="M88.9246 28.7139C91.743 28.7139 94.4273 28.7139 97.2458 28.7139C97.2458 29.7365 97.2458 30.6313 97.2458 31.654C95.7694 31.654 94.2931 31.654 92.8167 31.654C92.8167 32.5488 92.8167 33.3158 92.8167 34.0827C94.2931 34.0827 95.6352 34.0827 97.1116 34.0827C97.1116 35.1054 97.1116 36.0002 97.1116 37.1507C95.6352 37.1507 94.2931 37.1507 92.8167 37.1507C92.8167 38.0455 92.8167 38.8124 92.8167 39.7073C94.2931 39.7073 95.7694 39.7073 97.2458 39.7073C97.2458 40.7299 97.2458 41.7525 97.2458 42.7752C94.5615 42.7752 91.743 42.7752 89.0588 42.7752C88.9246 38.1733 88.9246 33.4436 88.9246 28.7139Z" fill="#C22C27"/>
</svg>
