<svg width="206" height="71" viewBox="0 0 206 71" fill="none" xmlns="http://www.w3.org/2000/svg">
<path d="M0.785156 0.0498047H188.896C198.224 0.0498047 205.785 7.61143 205.785 16.9392V70.0498H43.4586C33.2192 70.0498 24.0695 63.6557 20.5496 54.0404L0.785156 0.0498047Z" fill="#0B0E15"/>
<path d="M90.7913 32.7646C89.1967 32.7646 87.892 33.3409 87.1672 34.7817V33.0528H86.0074V45.155H87.1672V39.9683C87.892 41.4091 89.0517 41.9839 90.7913 41.9839C92.2409 41.9839 93.4007 41.5517 94.1255 40.5432C94.8503 39.6787 95.2852 38.6702 95.2852 37.3736C95.2852 36.0783 94.8503 34.9243 94.1255 34.0599C93.2557 33.1969 92.2409 32.7646 90.7913 32.7646ZM93.6906 40.1124C92.9658 40.8328 92.096 41.265 90.7913 41.265C89.6316 41.265 88.7618 40.9768 88.1819 40.2565C87.6021 39.5361 87.1672 38.6717 87.1672 37.6631V37.5191C87.1672 36.5106 87.4571 35.6461 88.037 34.9258C88.7618 34.0613 89.6316 33.6291 90.7913 33.6291C91.951 33.6291 92.9658 34.0613 93.6906 34.7817C94.2705 35.502 94.5604 36.3679 94.5604 37.375C94.5604 38.5276 94.2705 39.392 93.6906 40.1124Z" fill="white"/>
<path d="M177.916 34.9257C177.046 33.629 175.887 33.0527 174.437 33.0527C173.132 33.0527 172.118 33.485 171.248 34.3494C170.378 35.2138 169.943 36.2224 169.943 37.519C169.943 38.8142 170.378 39.8242 171.246 40.6886C172.118 41.5531 173.277 41.9853 174.437 41.9853C176.032 41.9853 177.191 41.4104 177.916 40.1123V41.8412H179.076V33.3409H177.916V34.9257ZM176.901 39.9683C176.177 40.5446 175.452 40.9768 174.437 40.9768C173.422 40.9768 172.697 40.6886 171.973 39.9683C171.248 39.2479 170.958 38.5275 170.958 37.519C170.958 36.5105 171.248 35.7901 171.973 35.0698C172.697 34.3494 173.422 34.0612 174.437 34.0612C175.452 34.0612 176.177 34.3494 176.901 35.0698C177.626 35.6461 177.916 36.5105 177.916 37.519C177.916 38.5275 177.481 39.2479 176.901 39.9683Z" fill="white"/>
<path d="M108.481 32.7646C107.756 32.7646 107.176 32.9087 106.596 33.1969C106.017 33.485 105.582 33.9172 105.292 34.4935V33.0528H104.132V41.8413H105.292V36.5106C105.292 35.6461 105.582 34.9258 106.162 34.4935C106.741 33.9172 107.321 33.6291 108.191 33.6291C110.076 33.6291 110.945 34.4935 110.945 36.3665V41.6972H112.105V36.3665C111.96 33.9172 110.8 32.7646 108.481 32.7646Z" fill="white"/>
<path d="M120.507 32.7646C119.204 32.7646 118.043 33.1969 117.318 34.2054C116.448 35.0698 116.158 36.2224 116.158 37.375C116.158 38.529 116.593 39.6816 117.318 40.5446C118.189 41.4105 119.204 41.9854 120.507 41.9854C121.812 41.9854 122.972 41.5531 123.696 40.5446C124.421 39.6802 124.856 38.6717 124.856 37.375C124.856 36.0783 124.421 35.0698 123.696 34.2054C122.827 33.1969 121.812 32.7646 120.507 32.7646ZM122.972 39.9683C122.392 40.6887 121.522 41.1209 120.507 41.1209C119.493 41.1209 118.623 40.6887 118.043 39.9683C117.463 39.248 117.173 38.3835 117.173 37.375C117.173 36.3679 117.463 35.502 118.043 34.7817C118.623 34.0613 119.348 33.6291 120.507 33.6291C121.667 33.6291 122.392 34.0613 122.972 34.7817C123.552 35.502 123.841 36.3679 123.841 37.375C123.696 38.5276 123.407 39.392 122.972 39.9683Z" fill="white"/>
<path d="M138.489 32.7622C137.909 32.7622 137.329 32.9063 136.893 33.1945C136.458 33.4826 136.023 33.9148 135.733 34.4911C135.298 33.3385 134.283 32.6182 132.834 32.6182C131.674 32.6182 130.806 33.1945 130.224 34.203V33.0504H129.21V41.8389H130.224V36.3641C130.224 35.6437 130.514 34.9233 130.949 34.4911C131.386 33.9148 131.965 33.6267 132.69 33.6267C134.14 33.6267 135.01 34.4911 135.01 36.22V41.8389H136.025V36.22C136.025 35.4996 136.169 34.9233 136.749 34.347C137.039 33.9148 137.619 33.6267 138.344 33.6267C139.215 33.6267 139.794 33.9148 140.084 34.347C140.373 34.7793 140.663 35.3556 140.663 36.22V41.8389H141.678V36.0759C141.678 35.0674 141.388 34.203 140.808 33.6267C140.228 33.0504 139.504 32.7622 138.489 32.7622Z" fill="white"/>
<path d="M153.274 34.2054C152.549 33.1969 151.534 32.7646 150.084 32.7646C148.78 32.7646 147.764 33.1969 147.039 34.2054C146.314 35.0698 145.879 36.2224 145.879 37.5191C145.879 38.9598 146.314 40.1124 147.039 40.8328C147.764 41.6972 148.778 42.1294 150.084 42.1294C151.244 42.1294 152.113 41.8413 152.984 41.1209C153.562 40.5446 153.999 39.8243 154.143 38.9598H153.129C152.839 39.6802 152.55 40.1124 152.114 40.5446C151.536 40.9768 150.954 41.1209 150.086 41.1209C149.07 41.1209 148.345 40.8328 147.765 40.2565C147.185 39.6802 146.895 38.8157 146.895 37.6631H154.288C154.288 36.2224 153.999 35.0698 153.274 34.2054ZM147.04 36.9428C147.185 35.9343 147.475 35.2139 148.055 34.6376C148.49 33.9172 149.215 33.6291 150.084 33.6291C151.969 33.6291 152.984 34.6376 153.274 36.7987H147.04V36.9428Z" fill="white"/>
<path d="M81.0777 36.2207C80.4978 35.9325 79.3381 35.5003 77.5985 35.0681C76.2938 34.7799 75.424 34.4918 74.9891 34.3477C74.1194 33.9155 73.6845 33.4833 73.6845 32.7629C73.6845 32.0425 73.9744 31.4662 74.6992 31.034C75.2791 30.7459 76.1489 30.4577 77.3086 30.4577C78.4683 30.4577 79.3381 30.7459 80.0629 31.1781C80.7877 31.6103 81.0777 32.3307 81.2226 33.3392H82.3824C82.2374 32.0425 81.8025 31.1781 80.9327 30.4577C80.0629 29.8814 78.9032 29.4492 77.4535 29.4492C76.1489 29.4492 74.9891 29.7374 74.1194 30.1696C73.1046 30.7459 72.6697 31.4662 72.6697 32.6188C72.6697 33.6274 73.2496 34.3477 74.2643 34.924C74.6992 35.2122 75.714 35.5003 77.3086 35.9325C78.9032 36.3662 79.773 36.6529 80.2079 36.7984C81.0777 37.2306 81.5126 37.951 81.5126 38.6714C81.5126 39.3917 81.0777 39.968 80.3528 40.4003C79.628 40.8325 78.6133 40.9751 77.4535 40.9751C76.1489 40.9751 75.2791 40.6884 74.5542 40.2547C73.8294 39.6799 73.3945 38.814 73.2496 37.6614H72.0898C72.2348 39.1021 72.8147 40.2547 73.8294 40.9751C74.6992 41.5514 76.0039 41.9836 77.4535 41.9836C79.0482 41.9836 80.2079 41.6955 81.0777 41.1192C82.0924 40.5429 82.5273 39.6784 82.5273 38.6699C82.8172 37.6614 82.2374 36.797 81.0777 36.2207Z" fill="white"/>
<path d="M64.2639 34.4919C64.2639 33.3393 63.5391 32.1867 63.2491 31.8986C61.9444 30.746 60.7847 30.746 59.77 30.746C58.9002 30.746 54.5512 30.746 46.8681 30.746V29.1612C53.6814 29.1612 57.5955 29.1612 58.4653 29.1612C59.9149 29.1612 60.4948 29.1612 61.7995 29.5934C62.9592 30.0256 63.829 31.3223 63.9739 31.0341C64.1189 30.746 63.5391 29.4493 62.3793 28.0086C61.5095 27.1441 60.0599 25.7034 58.9002 24.6949C56.4358 22.6779 52.3768 22.1016 50.6372 22.1016C47.4479 22.1016 43.8238 22.1016 39.6198 22.1016C39.6198 29.3052 39.6198 33.0512 39.6198 33.6274C39.6198 34.4919 39.7648 35.7885 41.0695 36.7971C42.2292 37.6615 43.244 37.6615 44.8386 37.8056C46.4332 37.8056 50.4922 37.8056 56.8707 37.8056V39.3904C49.3325 39.3904 45.4184 39.3904 45.2735 39.3904C43.8238 39.3904 43.099 39.2463 42.5191 39.1022C42.0842 38.9582 41.5044 38.67 41.0695 38.3819C40.3447 37.9497 39.7648 37.3734 39.6198 37.3734C39.3299 37.5174 40.7796 39.9667 41.5044 40.9752C43.099 42.9922 45.1285 44.2903 45.8533 44.7225C48.8976 46.5955 51.6519 46.5955 53.1016 46.5955C54.8412 46.5955 58.3203 46.5955 63.3941 46.5955C63.829 46.5955 64.1189 46.3074 64.1189 45.8751C64.2639 39.8226 64.2639 36.0767 64.2639 34.4919Z" fill="url(#paint0_linear_5801_45019)"/>
<path d="M99.4926 29.8809C99.2027 29.8809 99.0577 30.0249 98.9127 30.169C98.7678 30.3131 98.6228 30.4572 98.6228 30.7453C98.6228 31.0334 98.7678 31.1775 98.9127 31.3216C99.0577 31.4657 99.3476 31.6097 99.4926 31.6097C99.7825 31.6097 99.9275 31.4657 100.072 31.3216C100.217 31.1775 100.362 30.8894 100.362 30.7453C100.362 30.4572 100.217 30.3131 100.072 30.169C99.9275 30.0249 99.7825 29.8809 99.4926 29.8809Z" fill="white"/>
<path d="M184.587 29.4492H183.572V41.8395H184.587V29.4492Z" fill="white"/>
<path d="M162.255 32.7646C161.677 32.7646 161.096 32.9087 160.517 33.1969C159.936 33.485 159.646 33.9172 159.356 34.4935V33.0528H158.341V41.8413H159.356V36.5106C159.356 35.6461 159.646 34.9258 160.227 34.4935C160.661 33.9172 161.385 33.6291 162.11 33.6291C163.85 33.6291 164.72 34.4935 164.72 36.3665V41.6972H165.734V36.3665C165.734 34.0613 164.575 32.7646 162.255 32.7646Z" fill="white"/>
<path d="M99.9264 33.0527H98.9116V41.8412H99.9264V33.0527Z" fill="white"/>
<defs>
<linearGradient id="paint0_linear_5801_45019" x1="39.6206" y1="34.3478" x2="64.2287" y2="34.3478" gradientUnits="userSpaceOnUse">
<stop stop-color="#78C7DC"/>
<stop offset="1" stop-color="#A568AE"/>
</linearGradient>
</defs>
</svg>
