<svg width="206" height="71" viewBox="0 0 206 71" fill="none" xmlns="http://www.w3.org/2000/svg">
<path d="M0.785156 0.211914H188.896C198.224 0.211914 205.785 7.77354 205.785 17.1013V70.2119H43.4586C33.2192 70.2119 24.0695 63.8178 20.5496 54.2025L0.785156 0.211914Z" fill="#0B0E15"/>
<path d="M47.9219 35.5855C48.0508 35.7141 48.1796 35.7141 48.1796 35.7141C48.8241 36.1001 49.4685 36.3574 50.1129 36.7434C50.3707 36.8721 50.3707 36.7434 50.3707 36.4848C50.3707 34.5562 50.4996 32.4977 50.4996 30.5678C50.4996 30.4391 50.4996 30.3104 50.6285 30.1818C51.4031 28.8952 52.1751 27.6086 52.8195 26.322C53.464 25.0354 54.3662 24.0061 55.3972 22.9768C56.815 21.5616 58.2327 20.1463 59.6505 18.7311C60.0371 18.6024 60.0371 18.6024 60.166 18.8597C60.4238 19.7604 60.6803 20.5323 60.9393 21.4329C61.0682 21.8189 61.0682 21.8189 61.4549 21.5616C61.8415 21.3043 61.9704 21.0469 61.9704 20.5323C62.3584 18.8597 62.745 17.3158 63.2593 15.6432C63.3882 15.3859 63.517 15.5146 63.6459 15.5146C64.1615 15.7719 64.5481 16.1579 65.0637 16.4152C66.4814 17.3158 67.8992 18.0878 69.4458 18.8597C70.4769 19.3744 71.3791 20.1463 72.1524 21.0469C73.1835 22.2049 74.3434 23.3628 75.5034 24.5208C75.6336 24.6494 75.7612 24.6494 76.0189 24.6494C76.9211 24.2634 77.9522 24.0061 78.8544 23.6201C78.9833 23.6201 79.1122 23.7488 79.2411 23.7488C79.6277 24.6494 80.0144 25.55 80.5299 26.4507C81.1744 27.8659 81.8188 29.2812 82.5921 30.6964C83.1077 31.8544 83.7521 33.0123 84.2689 34.0416C84.2689 34.0416 84.2689 34.1702 84.2689 34.2989C84.1387 35.1995 83.881 36.1001 83.7521 37.0007C83.4943 38.2873 83.3654 39.5739 83.1077 40.8605C82.9788 41.3752 82.9788 41.7611 82.8499 42.2758C82.8499 42.5331 82.9788 42.5331 83.1077 42.5331C83.7521 42.4032 84.5254 42.2745 85.1698 42.0185C85.3 42.0185 85.3 42.0185 85.4276 41.8898C85.4276 42.0185 85.2987 42.1458 85.2987 42.1458C84.7832 42.5331 84.6543 43.0464 84.5241 43.5611C83.7508 45.491 82.9788 47.4209 82.2042 49.3508C81.8188 50.2527 81.1744 50.51 80.4011 50.896C78.8544 51.4106 77.4367 51.924 75.8901 52.5673C74.3434 53.0819 72.7968 53.7252 71.2489 54.2411C70.6045 54.4972 70.0902 54.7558 69.4458 54.8844C69.3156 54.8844 69.188 55.0131 69.0578 54.8844C68.2845 54.8844 67.5125 54.7558 66.7379 54.6271C65.3201 54.4972 64.0313 54.4972 62.6135 54.4972C61.4549 54.3698 60.2949 54.1125 59.2638 53.5978C58.6194 53.3405 57.975 53.0832 57.3305 52.9545C56.1706 52.5673 54.8817 52.0539 53.7217 51.6679C53.5916 51.6679 53.464 51.5393 53.464 51.4106C52.5618 49.8667 51.5307 48.3241 50.6285 46.7776C49.984 45.6209 49.4698 44.3343 49.3396 42.9178C49.2107 41.8898 48.953 40.8605 48.8241 39.8312C48.6952 38.9306 48.5663 38.03 48.3085 37.1281C48.1796 36.6148 48.0508 36.2288 47.9219 35.7141C47.9219 35.8428 47.9219 35.7141 47.9219 35.5855ZM66.3525 30.8251C63.0015 30.8251 59.3927 30.8251 55.7839 30.8251C55.5261 30.8251 55.3972 30.9537 55.3972 31.2111C55.3972 33.5269 55.5261 35.8428 55.5261 38.03C55.5261 38.2873 55.655 38.4147 55.9128 38.4147C58.1038 38.2873 60.4238 38.2873 62.6148 38.1587C63.0028 38.1587 63.0028 38.1587 63.0028 38.5447C63.0028 39.1879 63.0028 39.9612 63.1317 40.6045C63.2606 41.8911 63.3894 43.0477 63.5183 44.3343C63.5183 46.2642 63.5183 48.1941 63.5183 50.124C63.5183 50.51 63.5183 50.6374 64.0339 50.6374C65.3227 50.6374 66.4814 50.6374 67.7703 50.6374C68.2858 50.6374 68.8026 50.6374 69.1893 50.7673C69.576 50.7673 69.7035 50.7673 69.7035 50.3813C69.8324 49.2234 70.0902 48.1941 70.0902 47.0362C70.2191 45.7496 70.2191 44.5917 70.2191 43.3051C70.2191 41.7611 70.2191 40.0886 70.2191 38.5447C70.2191 38.4147 70.2191 38.2873 70.348 38.2873C70.7359 38.1587 71.2502 37.9014 71.6368 37.9014C73.3136 37.9014 74.859 37.9014 76.5358 37.7714C76.7923 37.7714 77.05 37.7714 77.3091 37.7714C77.5681 37.7714 77.6957 37.6427 77.6957 37.2581C77.6957 35.0708 77.8259 32.8836 77.8259 30.8251C77.8259 30.5678 77.6957 30.4391 77.5682 30.4391C77.438 30.4391 77.1815 30.4391 77.0526 30.4391C73.5701 30.6964 70.0902 30.6964 66.3525 30.8251Z" fill="white"/>
<path d="M114.81 43.4347C114.81 45.6219 114.81 47.8091 114.81 49.9963C114.81 50.2549 114.681 50.3836 114.423 50.3836C113.65 50.3836 112.876 50.3836 112.103 50.3836C111.845 50.3836 111.716 50.2549 111.587 49.9963C111.33 48.967 110.943 47.9377 110.685 46.9085C110.556 46.3938 110.428 45.8792 110.299 45.3646C110.17 45.1085 110.042 44.8499 109.654 44.8499H109.525C109.01 44.7213 109.01 44.7213 109.01 45.2372C109.14 46.7798 109.398 48.4537 109.525 49.9963C109.525 50.2536 109.396 50.3823 109.268 50.2536C108.494 50.2536 107.592 50.125 106.819 50.125C106.561 50.125 106.561 49.995 106.561 49.739C106.561 48.581 106.561 47.4218 106.561 46.1352C106.561 45.4919 106.431 44.9786 106.431 44.3353C106.302 42.7914 106.302 41.2487 106.302 39.7022C106.302 38.8029 106.302 37.7724 106.302 36.873C106.302 36.7444 106.302 36.4858 106.56 36.4858C107.204 36.3571 107.977 36.2297 108.622 35.9724C108.88 35.9724 109.396 36.2297 109.396 36.4858C109.525 37.1291 109.783 37.7724 109.911 38.4157C110.297 39.5736 110.555 40.6042 110.942 41.7621V41.8907C111.072 42.534 111.33 42.6627 111.974 42.4054C112.103 42.4054 112.103 42.1481 112.103 42.1481C112.103 41.1188 111.974 39.9621 111.845 38.9316C111.845 38.5456 111.716 38.1596 111.716 37.7736C111.716 37.259 111.587 36.7444 111.587 36.2297C111.587 35.9724 111.718 35.8438 111.845 35.8438C112.62 35.8438 113.521 35.8437 114.294 35.9724C114.552 36.1024 114.681 36.2297 114.681 36.4858C114.81 39.1889 114.81 41.3761 114.81 43.4347Z" fill="white"/>
<path d="M167.138 43.3053C167.138 41.1181 167.138 38.9309 167.138 36.615C167.138 36.229 167.138 36.229 167.525 36.1016C168.427 36.1016 169.2 35.9717 170.103 35.9717C170.36 35.9717 170.489 36.1016 170.489 36.229C170.489 37.5156 170.489 38.8022 170.36 40.0888C170.36 40.4748 170.23 40.7321 170.103 41.1181C169.974 41.3754 170.103 41.504 170.36 41.504C171.134 41.3754 171.778 40.8607 171.907 39.9614C172.165 38.8022 172.165 37.7716 172.165 36.615C172.165 36.229 172.165 36.1016 172.68 36.1016C173.582 36.1016 174.485 35.9717 175.387 35.9717C175.645 35.9717 175.775 36.1016 175.902 36.3577C176.16 38.8022 175.516 41.1181 173.711 42.9193C173.325 43.4339 173.197 43.4339 173.711 43.8212C174.486 44.8492 175.258 45.8798 175.775 47.1664C176.031 47.9383 176.289 48.8389 176.289 49.6109C176.289 49.7395 176.16 49.8669 176.031 49.8669C175.387 49.9956 174.614 49.9956 173.969 49.9956C173.325 49.9956 173.196 49.8669 173.067 49.3523C172.68 48.3243 172.165 47.2937 171.778 46.2657C171.52 45.7498 171.134 45.7498 170.747 45.7498L170.618 46.0071C170.618 46.7791 170.618 47.4224 170.618 48.1943C170.618 48.7077 170.488 49.2236 170.36 49.7383C170.36 49.8669 170.103 49.9943 170.103 49.9943C169.329 49.9943 168.556 50.1242 167.783 50.1242C167.525 50.1242 167.396 49.9943 167.396 49.7383C167.267 47.8084 167.267 45.6211 167.138 43.3053C167.267 43.3053 167.138 43.3053 167.138 43.3053Z" fill="white"/>
<path d="M95.2199 43.8197C95.2199 46.0056 95.2199 48.1928 95.2199 50.3813C95.2199 50.7673 95.2199 50.7673 94.832 50.7673C94.0587 50.6374 93.2866 50.51 92.512 50.51C92.2543 50.51 92.1254 50.3813 92.1254 49.9953C92.1254 48.8387 92.1254 47.5521 91.9965 46.3942C91.9965 46.2642 91.8663 46.1356 91.7387 46.0069C91.6086 45.8782 91.3521 45.7509 91.2232 45.4923C91.0943 45.3636 90.9654 45.3636 90.9654 45.6222C90.8365 45.8795 90.7089 46.1356 90.5788 46.5228C90.5788 46.6515 90.5788 46.9088 90.5788 47.1661C90.7089 48.3241 90.8365 49.482 90.9654 50.6386C90.9654 50.8972 90.8365 50.8972 90.7089 50.8972C89.8067 50.8972 89.0321 50.8972 88.1312 50.8972C87.8735 50.896 87.7446 50.7673 87.7446 50.51C87.7446 48.1941 87.7446 45.7509 87.7446 43.4337C87.7446 41.8911 87.4881 40.3459 87.3579 38.802C87.3579 38.03 87.3579 37.258 87.3579 36.6147C87.3579 36.4848 87.4881 36.3574 87.6157 36.3574C88.5179 36.3574 89.4201 36.3574 90.1934 36.3574C90.4512 36.3574 90.4512 36.4861 90.4512 36.7447C90.4512 37.7727 90.58 38.6746 90.58 39.7026C90.58 40.7331 90.58 41.7624 90.58 42.663C90.58 42.7917 90.7102 42.9191 90.8378 42.9191C91.0956 42.9191 91.4822 43.049 91.74 43.049C91.9978 43.049 92.1267 43.049 92.1267 42.663C92.1267 40.8618 92.1267 39.0593 92.1267 37.388C92.1267 37.0007 92.1267 37.0007 92.6422 37.0007C93.4155 37.0007 94.1876 37.0007 94.9622 37.0007C95.3488 37.0007 95.3488 37.1294 95.3488 37.388C95.2199 39.4453 95.2199 41.6312 95.2199 43.8197Z" fill="white"/>
<path d="M146.132 45.878C146.132 46.3926 146.002 46.9073 146.002 47.4206C146.002 48.1939 146.002 49.0945 146.002 49.8651C146.002 50.1225 145.873 50.1225 145.744 50.2524C145.1 50.3811 144.326 50.6371 143.682 50.7658C143.424 50.7658 143.295 50.7658 143.295 50.5084C143.168 48.9658 143.039 47.5506 142.91 46.0066C142.781 43.1761 142.781 40.4743 142.781 37.6438C142.781 37.3877 142.781 37.2578 142.781 37.0005C142.781 36.4858 142.781 36.4858 143.296 36.4858C144.199 36.4858 144.972 36.4858 145.874 36.4858C146.132 36.4858 146.132 36.6158 146.132 36.7444C146.132 37.7724 146.002 38.803 146.002 39.9609C146.002 40.4743 146.002 40.9889 145.873 41.5036C145.873 41.7609 146.002 41.7609 146.131 41.7609C146.904 41.7609 147.032 41.6309 147.289 40.8603C147.805 39.445 148.064 38.1584 148.192 36.6145C148.192 36.3572 148.32 36.2285 148.707 36.2285C149.351 36.2285 150.125 36.2285 150.769 36.2285C151.027 36.2285 151.156 36.3572 151.156 36.4845C151.156 37.3865 151.156 38.4144 151.027 39.3163C150.901 40.3443 150.385 41.2462 149.87 42.1469C149.483 42.6615 149.225 43.1774 148.967 43.6908C148.839 43.9481 148.839 44.0767 149.098 44.2041C149.998 45.2347 150.514 46.3926 150.901 47.6792C151.158 48.4512 151.289 49.2218 151.545 49.9938C151.545 50.1237 151.545 50.2524 151.416 50.2524C150.514 50.2524 149.612 50.2524 148.71 50.2524C148.581 50.2524 148.452 49.9938 148.323 49.8664C148.065 48.7072 147.679 47.6792 147.163 46.7773C146.905 46.3926 146.647 46.0066 146.261 45.7493C146.132 45.878 146.132 45.878 146.132 45.878Z" fill="white"/>
<path d="M99.9926 41.7603C99.9926 43.6902 100.123 45.6201 100.123 47.6799C100.123 47.8086 100.123 47.936 100.123 48.0646C100.123 48.1946 100.252 48.1946 100.381 48.1946C100.381 48.1946 100.381 48.1946 100.509 48.1946C101.669 47.9373 101.541 48.0646 101.669 46.908C101.669 44.7208 101.669 42.5348 101.798 40.3451C101.798 38.9298 101.798 37.6432 101.798 36.2292C101.798 35.8433 101.798 35.7146 102.314 35.7146C102.958 35.7146 103.603 35.5859 104.247 35.5859C104.634 35.5859 104.634 35.5859 104.634 35.9719C104.634 37.2585 104.634 38.5451 104.634 39.7018C104.634 41.503 104.634 43.1769 104.634 44.9781C104.634 46.0074 104.634 47.0379 104.247 48.0646C103.73 49.7372 102.828 50.2518 101.024 50.3805C99.9926 50.5092 99.0904 50.2518 98.1882 49.7372C97.4136 49.2226 96.8994 48.4506 96.8994 47.55C96.7705 44.3335 96.7705 41.2457 96.7705 38.0292C96.7705 37.5145 96.7705 36.9986 96.7705 36.3553C96.7705 36.0993 96.8994 36.0993 97.0283 36.0993C97.8029 36.0993 98.7038 36.2279 99.4771 36.2279C99.9914 36.2279 99.9914 36.2279 99.9914 36.7426C100.122 38.4139 100.122 40.0877 99.9926 41.7603C100.122 41.7603 99.9926 41.7603 99.9926 41.7603Z" fill="white"/>
<path d="M136.333 47.8084C136.333 48.4517 136.333 49.0949 136.333 49.8669C136.333 50.1242 136.204 50.2542 135.946 50.2542C135.431 50.2542 134.915 50.2542 134.4 50.2542C134.142 50.2542 134.013 50.1242 134.013 49.8669C133.884 47.937 133.884 46.1358 133.755 44.2059C133.626 41.6327 133.626 39.1895 133.626 36.6163C133.626 36.3589 133.626 36.2303 133.884 36.2303C135.044 36.1003 136.075 36.1003 137.235 35.9717C138.137 35.9717 139.168 36.1016 139.942 36.7449C140.715 37.2583 140.973 37.9016 141.231 38.6735C141.617 39.8315 141.746 40.9881 141.359 42.1473C141.359 43.048 140.973 43.6912 140.328 44.3345C140.071 44.5919 140.071 44.8479 140.071 45.2352C140.457 46.5218 140.715 47.6797 140.973 48.9663C141.102 49.351 141.102 49.6096 141.102 49.9943C141.102 50.2529 140.973 50.2529 140.844 50.2529C140.2 50.2529 139.685 50.3815 139.041 50.3815C138.911 50.3815 138.783 50.2529 138.653 50.1242C138.395 48.9663 138.137 47.8084 137.88 46.6504C137.751 46.3931 137.751 46.0071 137.622 45.7498C137.622 45.6199 137.493 45.4912 137.493 45.4912C137.106 45.4912 136.718 45.3625 136.333 45.3625C136.333 45.3625 136.204 45.6199 136.204 45.7498C136.333 46.5218 136.333 47.1651 136.333 47.8084ZM136.333 40.8607C136.333 41.504 136.333 42.0187 136.333 42.662C136.333 42.918 136.333 43.048 136.591 42.918C137.364 42.7893 138.137 42.5333 138.782 42.146C138.911 42.0174 139.04 41.89 139.04 41.7601C139.168 40.8595 138.909 39.9601 138.652 39.1869C138.523 38.9296 138.395 38.8009 138.007 38.8009C137.621 38.8009 137.106 38.8009 136.718 38.8009C136.462 38.8009 136.462 38.9296 136.462 39.0569C136.333 39.7015 136.333 40.2174 136.333 40.8607Z" fill="white"/>
<path d="M116.617 40.9884C116.617 39.8317 116.617 38.1591 116.617 36.4853C116.617 36.2292 116.746 36.1006 117.004 36.1006C118.164 36.2292 119.453 36.2292 120.613 36.3566C120.87 36.3566 121.128 36.4853 121.387 36.6139C122.546 37.1273 123.449 37.9005 123.965 39.0572C124.094 39.4444 124.223 39.8304 124.223 40.2151C124.223 41.6304 124.352 43.0456 124.352 44.4622C124.352 45.6188 124.094 46.6481 123.578 47.6787C123.19 48.4506 122.546 49.0939 121.645 49.3499C120.226 49.9945 118.808 50.2531 117.262 50.2531C116.617 50.2531 116.23 49.8672 116.23 49.2239C116.359 46.6507 116.488 44.0775 116.617 40.9884ZM121.515 42.5336C121.515 41.7603 121.515 40.9884 121.257 40.3451C121.128 39.5731 120.613 39.0585 119.839 38.8024C119.453 38.6738 119.453 38.8024 119.453 39.1884C119.453 40.3451 119.453 41.6317 119.322 42.7909C119.322 43.9488 119.194 45.108 119.194 46.2647C119.194 46.6507 119.194 47.1653 119.322 47.5513C119.322 47.8086 119.58 47.8086 119.58 47.6812C120.225 47.1666 120.74 46.6507 120.999 45.7513C121.386 44.7208 121.515 43.6915 121.515 42.5336Z" fill="white"/>
<path d="M160.312 43.4332C160.312 44.5911 160.312 45.6204 160.312 46.7783C160.312 47.293 160.568 47.8089 160.956 48.1949C161.085 48.3248 161.213 48.4522 161.343 48.4522C161.857 48.8382 161.857 48.8382 162.245 48.4522C162.759 47.9376 163.018 47.2943 163.018 46.5223C163.018 46.265 163.147 46.135 163.405 46.135C163.92 46.135 164.565 46.135 165.08 46.135C165.338 46.135 165.468 46.135 165.468 46.3936C165.468 47.0369 165.468 47.6802 165.338 48.1936C165.209 49.2229 164.694 49.8662 163.663 50.2521C162.245 50.7655 160.698 50.8954 159.281 50.1222C158.249 49.6089 157.605 48.7057 157.477 47.549C157.22 45.6191 157.347 43.5593 157.477 41.6294C157.477 40.8574 157.477 40.2141 157.606 39.4435C157.606 38.8002 157.993 38.2855 158.381 37.7696C159.54 36.483 160.829 35.9696 162.504 36.3543C163.793 36.6117 164.825 37.3849 165.47 38.5416C165.726 39.0549 165.856 39.5708 165.726 40.0855C165.726 40.3415 165.597 40.4714 165.34 40.4714C164.695 40.4714 164.051 40.4714 163.277 40.4714C163.02 40.4714 162.891 40.3415 163.02 40.0855C163.148 39.1848 162.246 38.5416 161.473 38.7989C160.828 38.9275 160.314 39.4422 160.314 40.3415C160.312 41.3746 160.312 42.4039 160.312 43.4332Z" fill="white"/>
<path d="M125.643 43.5609C125.643 41.375 125.643 39.1878 125.643 36.9993C125.643 36.7432 125.772 36.6133 126.03 36.6133C127.963 36.6133 129.768 36.6133 131.701 36.6133C132.215 36.6133 132.345 36.6133 132.345 37.2566C132.345 37.7699 132.345 38.2859 132.345 38.8005C132.345 39.0565 132.215 39.1865 131.959 39.1865C131.056 39.1865 130.025 39.1865 129.123 39.1865C128.736 39.1865 128.608 39.3164 128.608 39.5724C128.608 40.603 128.608 41.5023 128.608 42.5329C128.608 42.7889 128.738 42.9176 128.994 42.9176C129.639 42.9176 130.283 42.7889 130.928 42.7889C131.185 42.7889 131.315 42.7889 131.315 43.0463C131.315 43.6896 131.315 44.2029 131.185 44.8462C131.185 44.9774 130.928 45.1061 130.799 45.1061C130.154 45.1061 129.639 45.2348 128.994 45.2348C128.738 45.2348 128.608 45.3634 128.608 45.6207C128.608 46.394 128.608 47.1646 128.608 48.064C128.608 48.3226 128.738 48.4512 128.994 48.4512C130.027 48.4512 130.927 48.4512 131.96 48.3226C132.216 48.3226 132.347 48.3226 132.347 48.7073C132.347 49.2219 132.347 49.7378 132.347 50.3811C132.347 50.6372 132.216 50.7671 131.96 50.7671C130.027 50.7671 128.093 50.7671 126.16 50.7671C125.772 50.7671 125.772 50.7671 125.772 50.3811C125.772 48.1939 125.772 46.0067 125.772 43.9482C125.772 43.5609 125.772 43.5609 125.643 43.5609Z" fill="white"/>
<path d="M152.708 43.1767C152.708 40.9882 152.708 38.8023 152.708 36.7437C152.708 36.4851 152.837 36.3564 153.095 36.3564C153.869 36.2278 154.77 36.1004 155.544 35.8418C155.801 35.8418 155.801 35.8418 155.93 36.1004C155.93 37.387 156.059 38.8023 156.059 40.0889C156.059 43.048 156.059 46.1346 156.059 49.095C156.059 49.867 156.059 49.7383 155.415 49.867C154.642 49.867 153.869 49.9956 153.095 49.9956C152.837 49.9956 152.708 49.867 152.708 49.6109C152.579 47.5511 152.579 45.3639 152.708 43.1767C152.579 43.1767 152.579 43.1767 152.708 43.1767Z" fill="white"/>
</svg>
