<svg width="205" height="70" viewBox="0 0 205 70" fill="none" xmlns="http://www.w3.org/2000/svg">
<path d="M0 0H188.111C197.438 0 205 7.56162 205 16.8894V70H42.6734C32.434 70 23.2843 63.6059 19.7644 53.9906L0 0Z" fill="#0B0E15"/>
<path d="M60.4901 56.0073C59.5774 55.9522 58.6648 55.8971 57.7521 55.8695C56.6735 55.8144 55.6226 55.7593 54.544 55.7042C54.461 55.7042 54.4057 55.6491 54.3504 55.5939C52.1379 53.7477 49.9254 51.9289 47.7129 50.0826C46.7726 49.2835 45.8046 48.5119 44.8643 47.7127C44.7814 47.6576 44.726 47.5474 44.6984 47.4647C44.0346 45.4807 43.3709 43.4966 42.7348 41.5125C42.4859 40.7685 42.3476 39.9693 42.154 39.1977C41.7945 37.6821 41.435 36.1941 41.0754 34.6785C41.0478 34.5407 41.0478 34.4304 41.0754 34.2927C41.3243 33.466 41.5456 32.6668 41.7945 31.8401C42.7348 28.5333 43.6751 25.2541 44.6154 21.9748C44.6431 21.8646 44.6707 21.7819 44.6984 21.6717C44.726 21.4237 44.8643 21.3135 45.0303 21.2033C45.0856 21.1757 45.1409 21.1206 45.1685 21.0655C46.7173 19.6876 48.2384 18.2822 49.7871 16.9044C50.4232 16.3533 51.1146 15.8848 51.7784 15.3888C52.6357 14.7274 53.4931 14.0936 54.3781 13.4598C54.4334 13.4047 54.4887 13.3772 54.5716 13.3772C58.4988 13.3772 62.426 13.3496 66.3532 13.3496C66.4085 13.3496 66.4638 13.3772 66.5191 13.4047C68.1508 14.6172 69.8102 15.8297 71.4143 17.0973C71.9674 17.5107 72.4652 18.0342 72.963 18.5027C74.014 19.4672 75.0649 20.4317 76.0882 21.3961C76.1435 21.4513 76.1988 21.5615 76.2264 21.6442C77.4157 25.7501 78.5772 29.856 79.7664 33.962C79.7664 33.9895 79.7664 33.9895 79.7664 34.0171C79.96 34.3202 79.8771 34.6509 79.7941 34.9816C79.2686 37.0483 78.7985 39.1426 78.2453 41.2094C78.0518 41.9534 77.7752 42.6699 77.5539 43.3864C77.1114 44.7366 76.6689 46.0869 76.2264 47.4372C76.1711 47.575 76.1158 47.6576 76.0329 47.7403C72.963 50.2755 69.8932 52.8107 66.851 55.3735C66.6021 55.5939 66.3255 55.7042 66.0213 55.7042C65.1363 55.7317 64.2237 55.7868 63.3387 55.842C62.4813 55.8971 61.5963 55.9522 60.739 55.9797C60.6837 56.0073 60.6007 56.0073 60.4901 56.0073ZM66.3532 43.4139C67.5424 45.2602 68.704 47.1065 69.8932 48.9804C69.9208 48.9528 69.9208 48.9528 69.9208 48.9252C70.2804 48.2088 70.6676 47.4923 71.0271 46.7758C71.0547 46.7207 71.0547 46.6656 71.0547 46.638C71.0824 46.3074 71.0824 46.0042 71.1101 45.6735C71.1654 44.6815 71.2207 43.6895 71.276 42.6974C71.3036 42.229 71.3313 41.733 71.359 41.2369C71.3036 41.2369 71.276 41.2645 71.2207 41.2645C70.0315 41.6503 68.8422 42.0085 67.6254 42.3943C67.5977 42.3943 67.5424 42.4219 67.5147 42.4494C67.1552 42.7525 66.768 43.0557 66.3532 43.4139ZM49.5935 41.2094C49.6212 41.7054 49.6488 42.1739 49.6765 42.6699C49.7595 43.965 49.8148 45.2602 49.8978 46.5554C49.8978 46.638 49.9254 46.7483 49.9807 46.8309C50.3126 47.4923 50.6721 48.1812 51.004 48.8426C51.0317 48.8977 51.0593 48.9252 51.087 48.9804C52.2762 47.1341 53.4377 45.2878 54.627 43.4139C54.2121 43.0832 53.8249 42.7525 53.4377 42.4219C53.4101 42.3943 53.3824 42.3943 53.3271 42.3668C52.4421 42.0912 51.5571 41.8156 50.6721 41.5125C50.3126 41.4298 49.9531 41.3196 49.5935 41.2094ZM48.2384 36.4421C48.2937 36.387 48.3214 36.3318 48.349 36.3043C49.0404 35.3123 49.7595 34.2927 50.4509 33.3006C50.6168 33.0526 50.7551 32.8046 50.8381 32.5015C50.9487 32.1157 51.0593 31.7299 51.1699 31.3165C49.2617 30.6001 47.3534 29.9112 45.4175 29.1947C45.4728 30.0214 45.5557 30.793 45.611 31.5921C45.611 31.7299 45.6664 31.8677 45.7217 31.9503C46.3024 32.9975 46.8832 34.0446 47.464 35.0918C47.7406 35.5327 47.9895 35.9736 48.2384 36.4421ZM72.7141 36.4696C72.7418 36.4145 72.7418 36.4145 72.7694 36.4145C73.6268 34.8989 74.4564 33.3833 75.3138 31.8677C75.3414 31.8126 75.3414 31.7574 75.3691 31.7023C75.3968 31.3717 75.4244 31.0685 75.4521 30.7379C75.5074 30.2418 75.535 29.7183 75.5904 29.1947C73.6544 29.9112 71.7738 30.6001 69.8379 31.3165C70.0038 31.8677 70.1421 32.3637 70.2804 32.8873C70.308 32.9424 70.3357 32.9975 70.3633 33.0251C71.1377 34.1273 71.8844 35.2296 72.6588 36.3043C72.6588 36.3594 72.6865 36.4145 72.7141 36.4696ZM69.589 49.2008C68.3997 47.3545 67.2382 45.5082 66.0766 43.6619C65.6618 44.0202 65.2469 44.3508 64.8321 44.7091C64.8044 44.7366 64.7768 44.7642 64.7491 44.8193C64.0854 45.9767 63.394 47.1341 62.7302 48.2914C62.7026 48.319 62.7026 48.3465 62.6749 48.3741C62.7026 48.3741 62.7302 48.4017 62.7579 48.4017C64.2513 48.8426 65.7724 49.2835 67.2658 49.7244C67.3212 49.7519 67.3765 49.7519 67.4318 49.7244C67.9296 49.5866 68.4551 49.4764 68.9529 49.3386C69.1741 49.311 69.3677 49.2559 69.589 49.2008ZM58.3052 48.3741C58.2776 48.3465 58.2776 48.319 58.2776 48.2914C57.5862 47.1065 56.9224 45.9491 56.231 44.7642C56.2034 44.7366 56.2034 44.6815 56.1757 44.6815C55.7609 44.3233 55.346 43.9926 54.9312 43.6344C53.7696 45.4807 52.5804 47.327 51.4188 49.1732C51.4465 49.2008 51.4742 49.2008 51.5018 49.2008C52.1102 49.3661 52.7463 49.5039 53.3548 49.6693C53.4931 49.6968 53.6313 49.7519 53.742 49.6968C55.0141 49.3386 56.2863 48.9528 57.5585 48.567C57.7798 48.5119 58.0287 48.4568 58.3052 48.3741ZM65.8554 21.8371C65.8277 21.7819 65.8001 21.7544 65.7724 21.6993C64.8044 20.349 63.8365 19.0263 62.8685 17.676C62.8409 17.6209 62.7855 17.5933 62.7302 17.5658C62.0941 17.2351 61.4304 16.932 60.7943 16.6013C60.7666 16.5737 60.739 16.5737 60.6837 16.5737C60.6837 18.8609 60.6837 21.1206 60.6837 23.4078C60.739 23.4078 60.7666 23.4078 60.822 23.4078C61.2368 23.4078 61.6793 23.4078 62.0941 23.4078C62.1771 23.4078 62.2324 23.3802 62.3154 23.3527C62.8685 23.1047 63.4493 22.8842 64.0024 22.6362C64.6108 22.3606 65.2193 22.1126 65.8554 21.8371ZM60.2965 23.3802C60.2965 21.093 60.2965 18.8334 60.2965 16.5462C60.2412 16.5737 60.2135 16.5737 60.1859 16.6013C59.5498 16.9044 58.9413 17.2075 58.3052 17.5382C58.2223 17.5933 58.1393 17.6484 58.084 17.7311C57.1437 19.0263 56.2034 20.3214 55.2631 21.6166C55.2077 21.6717 55.1524 21.7268 55.0971 21.7819C55.1801 21.8646 55.2077 21.8646 55.2354 21.8922C56.314 22.3606 57.3649 22.8015 58.4435 23.27C58.5541 23.3251 58.6648 23.3802 58.7754 23.4078C59.2732 23.3802 59.771 23.3802 60.2965 23.3802ZM75.4244 28.7262C75.3691 28.6711 75.3414 28.6435 75.2861 28.5884C74.8713 28.0373 74.4288 27.4862 74.014 26.935C73.9586 26.8524 73.8757 26.7973 73.7927 26.7421C72.6865 26.2461 71.5525 25.7225 70.4463 25.2265C70.0868 25.0612 69.7549 24.9234 69.3954 24.7581C69.3954 24.8407 69.3954 24.8958 69.3677 24.9785C69.3124 26.2737 69.2571 27.5964 69.2018 28.8916C69.2018 29.0845 69.2294 29.2773 69.2847 29.4702C69.3954 29.856 69.506 30.2143 69.6166 30.6001C69.6443 30.6827 69.6719 30.7379 69.6719 30.8205C71.5802 30.1592 73.4885 29.4427 75.4244 28.7262ZM51.2806 30.8756C51.4465 30.3245 51.5848 29.8009 51.7231 29.2773C51.7507 29.2222 51.7231 29.1396 51.7231 29.0845C51.6678 27.9271 51.6401 26.7973 51.5848 25.6399C51.5848 25.3643 51.5571 25.0887 51.5571 24.7856C51.5295 24.7856 51.5018 24.8132 51.4742 24.8132C50.0084 25.4745 48.5426 26.1359 47.0768 26.7973C47.0215 26.8248 46.9662 26.8524 46.9385 26.9075C46.496 27.4586 46.0535 28.0373 45.611 28.616C45.5834 28.6435 45.5557 28.6987 45.5281 28.7538C47.4917 29.4427 49.3723 30.1592 51.2806 30.8756ZM60.6837 35.202C60.6837 37.6546 60.6837 40.052 60.6837 42.477C62.2324 42.477 63.7535 42.477 65.3023 42.477C63.7812 40.052 62.2324 37.6546 60.6837 35.202ZM55.6502 42.477C57.199 42.477 58.7477 42.477 60.2688 42.477C60.2688 40.052 60.2688 37.6546 60.2688 35.202C58.7477 37.6546 57.199 40.052 55.6502 42.477ZM60.6837 24.8132C60.6837 27.8168 60.6837 30.793 60.6837 33.8242C61.9282 31.8401 63.1727 29.9112 64.4449 27.9271C63.1727 26.9075 61.9282 25.8603 60.6837 24.8132ZM60.2965 33.8242C60.2965 30.793 60.2965 27.8168 60.2965 24.8132C59.052 25.8603 57.7798 26.8799 56.5352 27.9271C57.7798 29.9112 59.0243 31.8401 60.2965 33.8242ZM65.6618 42.2841C66.1319 40.6031 66.6297 38.9222 67.0999 37.2412C65.081 36.4972 63.0621 35.7532 61.0432 34.9816C62.5643 37.4341 64.113 39.8315 65.6618 42.2841ZM55.3184 42.2841C56.8671 39.8315 58.3882 37.4341 59.937 35.0367V35.0091C57.918 35.7532 55.9268 36.4972 53.9079 37.2412C54.3781 38.9222 54.8482 40.5756 55.3184 42.2841ZM52.4698 31.3165C54.9588 32.2535 57.4202 33.1628 59.8816 34.0722C59.8816 34.0722 59.8816 34.0446 59.9093 34.0446C58.6648 32.1157 57.4479 30.1592 56.2034 28.2302C54.9588 29.2498 53.742 30.2694 52.4698 31.3165ZM64.7491 28.2026C63.5046 30.1316 62.2877 32.0881 61.0432 34.0171C61.0432 34.0171 61.0432 34.0446 61.0709 34.0446C63.5323 33.1353 65.9937 32.2259 68.4827 31.289C67.2382 30.2694 65.9937 29.2498 64.7491 28.2026ZM59.7434 34.5407V34.5131C57.282 33.6037 54.8206 32.6944 52.3315 31.7574C52.8017 33.4384 53.2718 35.0918 53.7696 36.7728C55.7609 36.0287 57.7521 35.2847 59.7434 34.5407ZM61.2368 34.5131V34.5407C63.228 35.2847 65.2193 36.0287 67.2382 36.7728C67.7083 35.1194 68.1785 33.466 68.6763 31.7574C66.1596 32.6668 63.6982 33.6037 61.2368 34.5131ZM76.586 30.3521C76.2818 30.8756 76.0052 31.3717 75.7286 31.8677C75.701 31.9228 75.701 31.9779 75.6733 32.0606C75.618 32.7495 75.5627 33.466 75.5074 34.1549C75.4244 35.1469 75.3414 36.1665 75.2585 37.1585C75.2032 37.8475 75.1479 38.5364 75.0925 39.2529C75.1202 39.2253 75.1479 39.1977 75.1755 39.1977C76.0329 38.2884 76.8902 37.3514 77.7199 36.4421C77.7475 36.4145 77.7752 36.3318 77.7752 36.2767C77.7752 35.8909 77.7475 35.5051 77.7199 35.1194C77.6646 34.0446 77.6093 32.9424 77.5539 31.8677C77.5539 31.8126 77.5539 31.7299 77.5263 31.7023C77.2221 31.2339 76.8902 30.8205 76.586 30.3521ZM45.8876 39.2804C45.86 38.9497 45.8323 38.6466 45.8046 38.371C45.6387 36.3594 45.4728 34.3753 45.3068 32.3637C45.2792 32.0606 45.2239 31.8126 45.0856 31.5921C44.8643 31.2339 44.6431 30.8205 44.4495 30.4623C44.4218 30.4347 44.4218 30.4072 44.3942 30.3521C44.09 30.793 43.7581 31.2339 43.4539 31.6748C43.4262 31.7023 43.4262 31.785 43.4262 31.8126C43.3432 33.3006 43.2879 34.7611 43.205 36.2492C43.205 36.3043 43.2326 36.4145 43.2879 36.4421C43.841 37.0483 44.4218 37.6821 44.975 38.2884C45.2792 38.6191 45.5834 38.9497 45.8876 39.2804ZM71.359 48.6772C71.8568 48.5119 72.3269 48.3741 72.7971 48.2363C72.8524 48.2363 72.88 48.1812 72.9077 48.1261C73.7097 46.9963 74.5118 45.8664 75.3138 44.7642C75.3968 44.654 75.3968 44.5713 75.3691 44.4611C75.2308 43.6068 75.0925 42.725 74.9543 41.8432C74.8713 41.4023 74.816 40.9614 74.733 40.4929C74.7054 40.5205 74.7054 40.548 74.6777 40.5756C73.5991 42.6423 72.5482 44.7091 71.4696 46.7758C71.4419 46.8034 71.4419 46.8585 71.4143 46.9136C71.4143 47.4647 71.3866 48.0434 71.359 48.6772ZM46.2195 40.4653C46.2195 40.5205 46.1918 40.548 46.1918 40.5756C45.9706 41.8707 45.777 43.1935 45.5557 44.4886C45.5557 44.5437 45.5834 44.654 45.611 44.7091C46.4131 45.8389 47.2151 46.9687 48.0448 48.1261C48.1001 48.1812 48.1554 48.2363 48.2107 48.2639C48.4596 48.3465 48.7085 48.4292 48.9574 48.4843C49.1787 48.5394 49.3999 48.6221 49.6212 48.6772C49.5935 48.0985 49.5659 47.575 49.5382 47.0238C49.5382 46.9136 49.5106 46.8034 49.4553 46.7207C48.4043 44.6815 47.3534 42.6699 46.3301 40.6307C46.2748 40.5756 46.2471 40.548 46.2195 40.4653ZM69.9208 20.9277C69.9208 20.9552 69.8932 20.9552 69.8932 20.9828C69.9208 21.0104 69.9485 21.0104 69.9761 21.0379C71.3313 22.8015 72.6865 24.5376 74.0693 26.3012C74.1246 26.3563 74.1799 26.4115 74.2352 26.439C74.6777 26.6319 75.1202 26.8524 75.5627 27.0453C75.5904 27.0728 75.6457 27.0728 75.6733 27.1004C75.6733 27.0177 75.6733 26.9626 75.701 26.9075C75.7286 26.4666 75.7286 25.9981 75.7563 25.5572C75.7563 25.4745 75.7286 25.3643 75.701 25.2816C75.0372 24.0967 74.3735 22.9118 73.7097 21.7268C73.5991 21.5339 73.4885 21.4788 73.3225 21.4513C72.3822 21.3135 71.4696 21.1757 70.5293 21.0379C70.308 20.9828 70.1144 20.9552 69.9208 20.9277ZM45.3068 27.0728C45.3621 27.0453 45.4175 27.0453 45.4451 27.0177C45.8876 26.8248 46.3024 26.6319 46.7449 26.439C46.8279 26.4115 46.8832 26.3563 46.9385 26.2737C48.2937 24.5376 49.6488 22.8015 50.9763 21.0655C51.004 21.0379 51.0317 21.0104 51.0593 20.9552C51.004 20.9552 50.9763 20.9552 50.9487 20.9552C49.8148 21.1206 48.6809 21.2859 47.5193 21.4788C47.464 21.4788 47.4087 21.5339 47.381 21.589C46.6896 22.8291 45.9706 24.0691 45.2792 25.3092C45.2515 25.3367 45.2515 25.3919 45.2515 25.4745C45.2515 25.7777 45.2792 26.0808 45.2792 26.3839C45.2792 26.6044 45.3068 26.8248 45.3068 27.0728ZM62.0388 15.7746C62.0388 15.8022 62.0112 15.8297 62.0112 15.8573C62.3154 16.2706 62.6473 16.684 62.9515 17.0698C63.0068 17.1524 63.0898 17.2075 63.1451 17.2351C65.0533 18.172 66.934 19.1089 68.8422 20.0459C68.8699 20.0734 68.9252 20.0734 68.9805 20.101C68.9529 20.0459 68.9529 20.0183 68.9529 19.9908C68.4551 18.8058 67.9849 17.6484 67.4871 16.4635C67.4594 16.4084 67.3765 16.3533 67.3212 16.3257C66.0766 15.9399 64.8044 15.5541 63.5599 15.1959C63.5046 15.1959 63.4493 15.1683 63.4216 15.1959C62.9238 15.3888 62.4813 15.5817 62.0388 15.7746ZM52.0273 20.1285C52.0826 20.101 52.1102 20.101 52.1379 20.0734C54.0462 19.1089 55.9821 18.172 57.8904 17.2075C57.9457 17.18 58.001 17.1524 58.0287 17.0973C58.3052 16.7115 58.6095 16.2982 58.886 15.8848C58.9137 15.8573 58.9413 15.8297 58.969 15.7746C58.4988 15.5817 58.0563 15.3888 57.6138 15.1959C57.5862 15.1683 57.5309 15.1959 57.4755 15.1959C56.2034 15.5817 54.9588 15.9675 53.6867 16.3257C53.6037 16.3533 53.576 16.4084 53.5207 16.4911C53.0506 17.6484 52.5527 18.7783 52.0826 19.9356C52.0549 19.9908 52.0549 20.0459 52.0273 20.1285ZM61.0709 51.8462C61.1262 51.8738 61.1262 51.9014 61.1538 51.9014C62.1494 52.5352 63.1727 53.1414 64.1683 53.7752C64.2237 53.8028 64.3066 53.8028 64.3619 53.7752C65.5788 53.2516 66.7957 52.7005 68.0126 52.1494C68.0679 52.1218 68.1232 52.0667 68.1785 51.984C68.3997 51.5982 68.621 51.24 68.8422 50.8542C68.8699 50.7991 68.8976 50.7715 68.9252 50.7164C68.4827 50.5786 68.0955 50.496 67.6807 50.3306C67.4318 50.248 67.2105 50.248 66.9893 50.3306C65.4129 50.744 63.8641 51.1298 62.2877 51.5156C61.8729 51.6533 61.4857 51.736 61.0709 51.8462ZM59.8816 51.8738C59.8263 51.8462 59.7987 51.8462 59.7434 51.8462C57.8074 51.3502 55.8715 50.8818 53.9632 50.3857C53.742 50.3306 53.5207 50.3306 53.2995 50.4133C52.9952 50.5235 52.6634 50.6062 52.3592 50.6889C52.2485 50.7164 52.1656 50.744 52.0273 50.7991C52.2762 51.24 52.5251 51.6533 52.774 52.0942C52.8017 52.1494 52.8846 52.232 52.9399 52.232C54.1568 52.7832 55.3737 53.3067 56.5629 53.8303C56.6459 53.8579 56.7012 53.8579 56.7841 53.8028C57.4202 53.417 58.0563 53.0036 58.6924 52.6178C59.0796 52.3698 59.4668 52.1218 59.8816 51.8738ZM53.6313 24.1518C53.6037 24.2345 53.6037 24.262 53.576 24.3172C53.1612 25.7777 52.7463 27.2382 52.3315 28.6711C52.1932 29.112 52.1102 29.5529 52.1656 30.0489C52.1932 30.3245 52.1932 30.5725 52.1932 30.8481C52.1932 30.8756 52.1932 30.9032 52.1932 30.9583C53.4654 29.9112 54.7099 28.864 55.9545 27.8168C55.1801 26.6044 54.4057 25.3919 53.6313 24.1518ZM68.7869 30.9583C68.8146 30.4072 68.8146 29.8836 68.8422 29.3876C68.8422 29.3325 68.8146 29.3049 68.8146 29.2498C68.3444 27.5964 67.8743 25.943 67.4041 24.2896C67.4041 24.2345 67.3765 24.2069 67.3488 24.1518C66.5744 25.3919 65.7724 26.6044 64.998 27.8444C66.2426 28.864 67.5147 29.9112 68.7869 30.9583ZM67.5701 36.883C68.8422 37.3514 70.1144 37.8199 71.3866 38.2884C71.359 38.2057 71.359 38.1506 71.3313 38.0955C70.9441 36.7728 70.5569 35.45 70.1974 34.0998C70.0038 33.4108 69.7826 32.8046 69.3677 32.3361C69.2294 32.1984 69.1188 32.0055 69.0082 31.8126C68.538 33.5211 68.0402 35.202 67.5701 36.883ZM49.5935 38.3159C50.8657 37.8475 52.1379 37.379 53.4101 36.9105C52.9123 35.202 52.4421 33.5211 51.972 31.8401C51.6677 32.281 51.3912 32.6944 51.087 33.1077C51.0593 33.1353 51.0593 33.1904 51.0317 33.2455C50.7551 34.2651 50.4509 35.2571 50.1743 36.2767C49.9807 36.9381 49.7871 37.5995 49.5935 38.3159ZM71.2207 38.7844C69.9485 38.3159 68.704 37.8475 67.4318 37.379C66.9616 39.06 66.4915 40.7134 65.9937 42.3943C66.049 42.3943 66.0766 42.3668 66.1319 42.3668C66.4362 42.2841 66.7404 42.1739 67.0446 42.0912C67.2935 42.0361 67.4871 41.8983 67.7083 41.733C68.8422 40.796 69.9761 39.8591 71.1101 38.9222C71.1377 38.8671 71.1654 38.8119 71.2207 38.7844ZM49.7595 38.7844C49.8148 38.8395 49.8701 38.8671 49.8978 38.8946C51.0317 39.8315 52.1656 40.7685 53.2995 41.7054C53.5207 41.8707 53.7143 42.0085 53.9632 42.0636C54.1292 42.1187 54.2951 42.1739 54.461 42.229C54.627 42.2841 54.7929 42.3392 54.9865 42.3943C54.9588 42.3116 54.9588 42.2841 54.9588 42.229C54.5163 40.6582 54.0738 39.0875 53.6313 37.5168C53.6037 37.4066 53.576 37.379 53.4931 37.4066C52.691 37.7097 51.9167 37.9852 51.1146 38.2884C50.6168 38.4537 50.202 38.619 49.7595 38.7844ZM60.6837 43.0006C60.6837 44.5162 60.6837 46.0042 60.6837 47.5198C60.739 47.4923 60.7666 47.4647 60.7943 47.4372C61.8452 46.5554 62.9238 45.646 63.9748 44.7917C64.3896 44.4611 64.7491 44.0753 65.0257 43.5241C65.1087 43.3588 65.2193 43.1935 65.3299 43.0006C63.7812 43.0006 62.2324 43.0006 60.6837 43.0006ZM55.6226 43.0006C55.8715 43.4139 56.0927 43.7997 56.314 44.1855C56.3416 44.2406 56.397 44.2957 56.4523 44.3508C57.6968 45.398 58.9413 46.4176 60.2135 47.4647C60.2412 47.4923 60.2688 47.5198 60.2965 47.5198C60.2965 46.0042 60.2965 44.5162 60.2965 43.0006C58.7477 43.0006 57.199 43.0006 55.6226 43.0006ZM64.6662 27.5688C65.4405 26.3563 66.2149 25.1439 66.9893 23.9038C66.9063 23.9038 66.851 23.9038 66.8233 23.9038C65.4129 23.9038 63.9748 23.9038 62.5643 23.9038C62.3154 23.9038 62.0941 23.9314 61.8452 24.0416C61.541 24.1794 61.2368 24.3172 60.9049 24.4549C62.1771 25.5021 63.4216 26.5217 64.6662 27.5688ZM53.9632 23.9038C54.7652 25.1439 55.512 26.3563 56.2863 27.5688C57.5309 26.5217 58.7754 25.5021 60.0476 24.4549C59.9923 24.4274 59.9646 24.4274 59.937 24.3998C59.5774 24.2345 59.2179 24.0967 58.8584 23.9314C58.7754 23.9038 58.7201 23.8762 58.6371 23.8762C57.1437 23.8762 55.6226 23.8762 54.1015 23.8762C54.0738 23.9038 54.0462 23.9038 53.9632 23.9038ZM74.7054 39.308C74.8989 37.1034 75.0649 34.954 75.2585 32.8046H75.2308C74.4841 34.1549 73.7374 35.4776 72.9907 36.8279C73.5438 37.627 74.1246 38.4537 74.7054 39.308ZM46.2748 39.308C46.8556 38.4537 47.4364 37.6546 48.0171 36.8279C47.2704 35.4776 46.5237 34.1273 45.777 32.8046C45.777 32.8046 45.7493 32.8046 45.7493 32.8322C45.8876 34.954 46.0812 37.1034 46.2748 39.308ZM46.5514 40.2449C47.5193 42.1187 48.4873 43.965 49.4276 45.8113C49.4276 45.8113 49.4553 45.8113 49.4553 45.7838C49.3723 44.213 49.2893 42.6423 49.2063 41.0716C48.3214 40.796 47.464 40.5205 46.5514 40.2449ZM71.5249 45.7838H71.5525C72.4929 43.9375 73.4608 42.0912 74.4288 40.2173C73.5161 40.4929 72.6588 40.7685 71.7738 41.044C71.6908 42.6423 71.6079 44.213 71.5249 45.7838ZM51.4465 21.1481C50.202 22.774 48.9574 24.3723 47.7129 25.9706C47.7406 25.9981 47.7682 25.9981 47.7959 25.9706C49.0128 25.4194 50.2573 24.8683 51.4742 24.3172C51.5571 24.2896 51.5571 24.2345 51.5571 24.1518C51.5295 23.4078 51.5018 22.6362 51.4742 21.8922C51.4742 21.6442 51.4465 21.3961 51.4465 21.1481ZM73.2396 25.9981C73.2396 25.9981 73.2396 25.9706 73.2672 25.9706C72.0227 24.3723 70.8058 22.774 69.5613 21.1757C69.5613 21.2584 69.5613 21.3135 69.5336 21.341C69.506 22.278 69.4783 23.1873 69.423 24.1243C69.423 24.262 69.4507 24.3172 69.5336 24.3447C70.4463 24.7581 71.359 25.1714 72.2716 25.5848C72.5758 25.695 72.9077 25.8328 73.2396 25.9981ZM57.3096 18.0618C57.3096 18.0618 57.3096 18.0342 57.282 18.0342C55.5949 18.8609 53.9079 19.7152 52.1656 20.5694C52.9952 20.9277 53.7973 21.2584 54.5993 21.6166C54.6823 21.6442 54.7376 21.6442 54.8206 21.5615C55.3737 20.7623 55.9545 19.9908 56.5076 19.1916C56.7841 18.8058 57.0607 18.4476 57.3096 18.0618ZM68.7593 20.597V20.5694C67.0722 19.7152 65.3576 18.8885 63.6705 18.0342C63.6705 18.0618 63.6429 18.0618 63.6429 18.0894C63.6982 18.172 63.7812 18.2547 63.8365 18.3374C64.6108 19.4121 65.3852 20.4868 66.1596 21.5615C66.1873 21.6166 66.2702 21.6442 66.2979 21.6166C67.1276 21.2859 67.9572 20.9277 68.7593 20.597ZM60.9049 51.4053C62.7579 50.9369 64.5555 50.4684 66.3532 50.0275C66.3255 49.9999 66.2979 49.9724 66.2702 49.9724C64.998 49.5866 63.7535 49.2284 62.4813 48.8426C62.3984 48.815 62.3707 48.8426 62.3154 48.9252C61.9559 49.5315 61.5963 50.1653 61.2644 50.7715C61.1815 50.9644 61.0432 51.1573 60.9049 51.4053ZM54.5993 49.9724V49.9999C56.397 50.4684 58.2223 50.9093 60.0476 51.3778C60.0199 51.3227 60.0199 51.2951 60.0199 51.2951C59.5498 50.496 59.1073 49.6968 58.6371 48.8977C58.5818 48.7875 58.5265 48.815 58.4435 48.815C57.5585 49.063 56.7012 49.3386 55.8162 49.5866C55.4013 49.7519 55.0141 49.8622 54.5993 49.9724ZM53.1059 16.5186C53.0782 16.5186 53.0506 16.5186 53.0229 16.5186C52.1932 16.7666 51.3359 17.0146 50.5062 17.2902C50.3126 17.3453 50.1467 17.5107 49.9531 17.6209C50.5062 18.4751 51.0317 19.3018 51.5571 20.1561C52.0826 18.9436 52.5804 17.7587 53.1059 16.5186ZM67.8743 16.5186C68.3997 17.7587 68.8976 18.9436 69.3954 20.1561C69.9485 19.3018 70.474 18.4751 70.9994 17.6209C70.8058 17.5107 70.6676 17.3729 70.5016 17.3178C69.9208 17.1249 69.3124 16.9595 68.704 16.7666C68.4551 16.684 68.1785 16.6013 67.8743 16.5186ZM75.0925 40.2173C75.3138 41.5401 75.535 42.8628 75.7563 44.213C75.8116 44.1304 75.8393 44.0753 75.8669 44.0477C76.3924 43.3037 76.9179 42.5597 77.4433 41.8432C77.5816 41.6503 77.6369 41.4298 77.6922 41.1818C76.8072 40.8511 75.9499 40.5205 75.0925 40.2173ZM45.1962 44.1855C45.2239 44.1579 45.2239 44.1579 45.2515 44.1304C45.4728 42.8352 45.6664 41.5125 45.8876 40.1898C45.0026 40.5205 44.1453 40.8236 43.2879 41.1543C43.3432 41.4298 43.4262 41.6503 43.5645 41.8707C44.09 42.5872 44.5878 43.3037 45.1132 44.0202C45.1685 44.0753 45.1685 44.1304 45.1962 44.1855ZM77.8028 36.9657C76.9455 37.9026 76.0882 38.8119 75.2308 39.7489C76.1158 40.0796 76.9455 40.3827 77.8028 40.7134C77.9688 40.2449 77.9688 40.2449 77.9411 39.7764C77.9135 39.556 77.9135 39.308 77.9135 39.0875C77.8858 38.371 77.8305 37.6821 77.8028 36.9657ZM43.1773 36.9657C43.1773 37.0208 43.1773 37.0483 43.1773 37.0759C43.122 38.0128 43.0943 38.9497 43.039 39.8867C43.0114 40.1898 43.0943 40.4378 43.1773 40.6858C44.0346 40.3551 44.892 40.052 45.7493 39.7213C44.8643 38.8119 44.0346 37.9026 43.1773 36.9657ZM73.2119 20.9277C72.7141 20.0734 72.2716 19.2467 71.8015 18.42C71.6632 18.172 71.4696 18.0894 71.3036 17.924C70.7782 18.7507 70.2527 19.5774 69.7272 20.4041C70.8888 20.5694 72.0504 20.7348 73.2119 20.9277ZM51.2529 20.4041C50.7274 19.5499 50.202 18.7507 49.6488 17.8965C49.4829 18.0618 49.317 18.172 49.2063 18.3649C48.7362 19.1641 48.2937 19.9908 47.8235 20.7899C47.7959 20.8175 47.7959 20.845 47.7682 20.9277C48.9298 20.7348 50.0913 20.5694 51.2529 20.4041ZM63.7535 54.0508C62.7026 53.3894 61.7069 52.7832 60.6837 52.1218C60.6837 53.1414 60.6837 54.161 60.6837 55.153C60.8773 55.153 61.0432 55.2082 61.2091 55.153C62.0665 54.8224 62.8962 54.4366 63.7535 54.0508ZM60.2965 52.1494C59.2732 52.7832 58.2499 53.417 57.2266 54.0783C57.282 54.1059 57.3096 54.1334 57.3649 54.1334C58.1393 54.4641 58.886 54.7948 59.6604 55.153C59.8816 55.2633 60.1029 55.2082 60.3241 55.2082C60.2965 54.1886 60.2965 53.169 60.2965 52.1494ZM79.5175 34.5131C78.9921 33.7691 78.4943 33.0526 77.9688 32.3086C78.0241 33.5486 78.0794 34.7611 78.1624 36.0012C78.6049 35.4776 79.0474 35.0091 79.5175 34.5131ZM43.0114 32.3637C42.4859 33.0526 41.9881 33.7691 41.4626 34.5131C41.9328 35.0091 42.3753 35.5051 42.8454 36.0012C42.9007 34.7611 42.9561 33.5486 43.0114 32.3637ZM45.1962 24.5927C45.777 23.5731 46.3301 22.5535 46.9109 21.5339C46.2748 21.6166 45.6664 21.7268 45.0579 21.8095C45.1132 22.7464 45.1685 23.6282 45.1962 24.5927ZM75.8946 21.8095C75.2861 21.7268 74.6777 21.6166 74.0416 21.5339C74.6224 22.5535 75.1755 23.5731 75.7563 24.5927C75.8116 23.6282 75.8393 22.7464 75.8946 21.8095ZM47.4087 47.9883V47.9608C46.7449 47.0514 46.1089 46.142 45.4451 45.2051C45.3345 45.9216 45.2239 46.5829 45.1132 47.2994C45.8876 47.5198 46.6343 47.7403 47.4087 47.9883ZM73.5438 47.9608C73.5438 47.9608 73.5438 47.9883 73.5715 47.9883C74.3458 47.7403 75.0925 47.5198 75.8669 47.2718C75.7563 46.5829 75.6457 45.894 75.535 45.1775C74.8436 46.142 74.2075 47.0514 73.5438 47.9608ZM64.7768 54.161C65.3023 54.4917 65.8001 54.7948 66.2979 55.1255C66.3808 55.1806 66.4085 55.153 66.4638 55.0704C66.851 54.3815 67.2382 53.6925 67.6254 53.0036C67.653 52.9761 67.653 52.921 67.6807 52.8658C66.7127 53.2792 65.7448 53.7201 64.7768 54.161ZM56.2034 54.161C55.2077 53.7201 54.2398 53.3067 53.2995 52.8658C53.7143 53.6374 54.1292 54.3539 54.544 55.0979C54.5716 55.1255 54.5993 55.1255 54.627 55.1255C55.1524 54.7948 55.6502 54.4917 56.2034 54.161ZM56.8395 14.8652C56.8118 14.8377 56.7841 14.8377 56.7841 14.8101C56.0927 14.507 55.4013 14.2039 54.7099 13.9007C54.6546 13.8732 54.627 13.9007 54.5993 13.9834C54.461 14.3416 54.3227 14.6723 54.1568 15.0306C54.0462 15.2786 53.9632 15.499 53.8526 15.7746C54.8206 15.4715 55.8162 15.1683 56.8395 14.8652ZM64.1407 14.8652C65.164 15.1683 66.1596 15.4715 67.1552 15.7746C67.1276 15.6919 67.0999 15.6644 67.0999 15.6093C66.8787 15.0857 66.6574 14.5621 66.4362 14.011C66.3808 13.9283 66.3255 13.9007 66.2426 13.9283C65.5788 14.2314 64.9151 14.507 64.2513 14.7826C64.2237 14.8101 64.196 14.8377 64.1407 14.8652ZM48.4596 36.8554C48.7085 37.2963 48.9574 37.7372 49.2063 38.1781C49.5935 36.8279 49.9531 35.5327 50.3403 34.21C50.3403 34.21 50.3126 34.21 50.3126 34.1824C49.7042 35.0642 49.0957 35.9461 48.4596 36.8554ZM72.4929 36.8554C71.8844 35.9736 71.2483 35.0918 70.6399 34.21C70.6399 34.21 70.6122 34.21 70.6122 34.2375C70.9994 35.5603 71.359 36.8554 71.7461 38.2057C72.0227 37.7097 72.244 37.2963 72.4929 36.8554ZM53.2165 24.0691C53.1888 24.0691 53.1888 24.0691 53.1612 24.0691C52.774 24.2345 52.3868 24.4274 51.9996 24.5927C51.9167 24.6203 51.9443 24.6754 51.9443 24.7581C51.972 25.5296 51.9996 26.2737 52.0273 27.0453C52.0273 27.3759 52.0549 27.6791 52.0549 28.0097H52.0826C52.4698 26.7146 52.857 25.3919 53.2165 24.0691ZM68.8699 28.0097C68.8976 27.9546 68.8976 27.8995 68.8976 27.8444C68.9252 26.7973 68.9805 25.7777 69.0082 24.7305C69.0082 24.6478 68.9805 24.6203 68.9252 24.5927C68.5657 24.4274 68.1785 24.262 67.819 24.0967C67.7913 24.0967 67.7637 24.0967 67.736 24.0691C68.1232 25.3919 68.4827 26.687 68.8699 28.0097ZM57.0607 45.4531C57.0884 45.5082 57.0884 45.5082 57.0884 45.5082C57.5862 46.39 58.1116 47.2718 58.6095 48.1536C58.6648 48.2363 58.6924 48.2363 58.7754 48.2088C59.052 48.1261 59.3285 48.0434 59.6051 47.9608C59.7157 47.9332 59.854 47.8781 59.9923 47.8505C58.9966 47.0514 58.0563 46.2522 57.0607 45.4531ZM63.8918 45.4807C62.9238 46.2522 61.9559 47.0514 61.0155 47.8505C61.0432 47.8781 61.0432 47.8781 61.0432 47.8781C61.4304 47.9883 61.8452 48.1261 62.2324 48.2363C62.2601 48.2363 62.343 48.1812 62.3707 48.1536C62.8409 47.3821 63.2833 46.5829 63.7535 45.7838C63.7812 45.6735 63.8365 45.5909 63.8918 45.4807ZM49.5659 40.6858C50.4785 40.9889 51.4188 41.2645 52.3315 41.5676V41.5401C51.3912 40.7685 50.4509 39.9693 49.4829 39.1702C49.5106 39.6938 49.5382 40.1898 49.5659 40.6858ZM71.4696 39.1702C70.5016 39.9693 69.5613 40.7409 68.621 41.5401V41.5676C69.5336 41.292 70.4463 40.9889 71.3866 40.6858C71.4143 40.1898 71.4419 39.6938 71.4696 39.1702ZM57.5309 23.3802C57.4755 23.3527 57.4755 23.3527 57.4479 23.3251C56.5906 22.9669 55.7609 22.6086 54.9035 22.2504C54.8759 22.2228 54.7929 22.278 54.7652 22.3055C54.5163 22.6362 54.2951 22.9393 54.0738 23.27C54.0462 23.2976 54.0462 23.3251 54.0185 23.3527C55.1801 23.3802 56.3416 23.3802 57.5309 23.3802ZM66.934 23.3802C66.934 23.3527 66.9616 23.3527 66.9616 23.3251C66.6851 22.9669 66.4362 22.6086 66.1596 22.278C66.1319 22.2504 66.0766 22.2504 66.0213 22.278C65.3852 22.5535 64.7491 22.8291 64.113 23.1047C63.8918 23.1873 63.6705 23.2976 63.4493 23.3802V23.4078C64.6385 23.3802 65.7724 23.3802 66.934 23.3802ZM69.1465 21.341C68.6487 22.0575 68.2062 22.774 67.736 23.518C68.1785 23.7109 68.5933 23.9038 69.0358 24.0967C69.0635 23.1598 69.1188 22.2504 69.1465 21.341ZM51.8613 21.341C51.8337 21.341 51.8337 21.341 51.8613 21.341C51.8613 22.278 51.9167 23.1873 51.9443 24.1243C52.3868 23.9314 52.8017 23.7385 53.2442 23.5456C52.774 22.774 52.3038 22.0575 51.8613 21.341ZM60.6837 51.0471C61.1538 50.248 61.5963 49.5039 62.0388 48.7048C61.5687 48.567 61.1262 48.4292 60.6837 48.2914C60.6837 49.2008 60.6837 50.1102 60.6837 51.0471ZM60.2965 51.0195C60.2965 50.0826 60.2965 49.2008 60.2965 48.2914C59.854 48.4292 59.4115 48.567 58.9413 48.7048C59.3838 49.4764 59.8263 50.248 60.2965 51.0195ZM54.4334 22.0575C53.659 21.7268 52.9399 21.4237 52.1932 21.093V21.1206C52.6357 21.8371 53.1059 22.5535 53.5484 23.2424C53.8526 22.8291 54.1292 22.4433 54.4334 22.0575ZM66.5191 22.0575C66.8233 22.4709 67.1276 22.8567 67.4318 23.2424C67.8743 22.5535 68.3168 21.8371 68.7869 21.1206V21.093C68.0402 21.3961 67.2935 21.7268 66.5191 22.0575ZM72.7418 37.2137C72.4929 37.6546 72.244 38.0955 71.995 38.5364C72.7418 38.8119 73.4885 39.0875 74.2075 39.3631V39.3355C73.7374 38.619 73.2672 37.9301 72.7418 37.2137ZM48.9574 38.5364C48.7085 38.0679 48.4596 37.6546 48.2107 37.2137C47.7129 37.9301 47.2151 38.6466 46.7173 39.3355V39.3631C47.4917 39.0875 48.2107 38.8119 48.9574 38.5364ZM74.0416 39.8591V39.8315C73.3225 39.556 72.6035 39.308 71.8568 39.0324C71.8291 39.556 71.8015 40.052 71.7738 40.5756C72.5482 40.3276 73.2949 40.0796 74.0416 39.8591ZM49.1787 40.5756C49.151 40.052 49.1234 39.556 49.0957 39.0324C48.349 39.308 47.6299 39.5835 46.9109 39.8315V39.8591C47.6576 40.0796 48.4043 40.3276 49.1787 40.5756ZM79.3239 35.3398C78.9368 35.7256 78.5496 36.1114 78.19 36.5247C78.1624 36.5523 78.1624 36.635 78.1624 36.6901C78.19 37.2688 78.2177 37.8475 78.2453 38.3986C78.2453 38.5639 78.273 38.7568 78.273 38.9222H78.3007C78.6602 37.7648 78.9921 36.5523 79.3239 35.3398ZM42.6795 39.0048C42.6795 38.9497 42.7071 38.9222 42.7071 38.8946C42.7348 38.1506 42.7901 37.4066 42.8178 36.6625C42.8178 36.6074 42.7901 36.5247 42.7625 36.4972C42.4306 36.1114 42.0711 35.7532 41.7115 35.3674C41.7115 35.3674 41.6839 35.3398 41.6562 35.3123C41.9881 36.5523 42.32 37.7648 42.6795 39.0048ZM77.1944 42.9179C77.1668 42.9179 77.1668 42.9179 77.1944 42.9179C76.8072 43.3863 76.4754 43.9099 76.1158 44.3784C75.9222 44.654 75.8393 44.8744 75.9222 45.2602C76.0052 45.6735 76.0605 46.1145 76.1435 46.5829C76.503 45.3429 76.8349 44.1304 77.1944 42.9179ZM44.8367 46.5829C44.8643 46.5003 44.8643 46.4727 44.8643 46.4176C44.9473 45.894 45.0303 45.398 45.1132 44.8744C45.1409 44.7642 45.1132 44.7091 45.0579 44.654C44.6707 44.1028 44.2835 43.5517 43.8964 43.0006C43.8687 42.973 43.841 42.9454 43.8134 42.9179C43.8134 42.9179 43.7857 42.9179 43.7857 42.9454C44.1453 44.1579 44.4771 45.3429 44.8367 46.5829ZM53.9909 14.3692C53.9909 14.3416 53.9909 14.3416 53.9909 14.3692C53.1059 15.0581 52.2485 15.7746 51.3912 16.4911C52.0273 16.3257 52.6357 16.1328 53.2718 15.9399C53.3271 15.9399 53.3548 15.8573 53.3824 15.8022C53.5484 15.4164 53.7143 15.003 53.8802 14.6172C53.9356 14.5345 53.9632 14.4519 53.9909 14.3692ZM66.9893 14.3416C66.9893 14.3968 67.0169 14.4519 67.0169 14.4794C67.2105 14.9203 67.3765 15.3612 67.5701 15.8022C67.5977 15.9124 67.653 15.9399 67.736 15.9675C68.0679 16.0502 68.3721 16.1604 68.704 16.2706C68.9805 16.3533 69.2847 16.436 69.5613 16.5186V16.4911C68.7316 15.7746 67.8466 15.0581 66.9893 14.3416ZM75.2308 21.2033V21.1757C74.3735 20.4592 73.5161 19.7428 72.6588 19.0263C72.9907 19.6601 73.3502 20.2939 73.6821 20.9001C73.7097 20.9277 73.7374 20.9552 73.7927 20.9552C74.2905 21.0655 74.7607 21.1481 75.2308 21.2033ZM48.3214 19.0814C47.4364 19.7703 46.579 20.4868 45.7217 21.2033C46.2195 21.1481 46.6896 21.093 47.1598 21.0104C47.1874 21.0104 47.2428 20.9828 47.2704 20.9552C47.6299 20.3214 47.9618 19.6876 48.3214 19.0814ZM43.7028 28.3129C43.9517 28.7538 44.1729 29.1671 44.3942 29.5529C44.5878 29.3049 44.7814 29.0569 44.975 28.8089C44.975 28.7813 45.0026 28.7538 45.0026 28.7262C45.0026 28.3955 44.975 28.0649 44.975 27.7342C44.5325 27.9546 44.1176 28.12 43.7028 28.3129ZM76.586 29.5529C76.8072 29.1671 77.0285 28.7538 77.2774 28.3129C76.8349 28.12 76.4477 27.9271 76.0052 27.7342C75.9775 28.0924 75.9775 28.3955 75.9775 28.7262C75.9775 28.7538 75.9775 28.7813 76.0052 28.8089C76.1711 29.0845 76.3647 29.3049 76.586 29.5529ZM61.3474 15.5541C61.0432 15.1683 60.7666 14.7826 60.4901 14.4519C60.2135 14.8101 59.937 15.1683 59.6327 15.5541C59.9093 15.6919 60.1859 15.8022 60.4624 15.9124C60.4901 15.9124 60.5177 15.9124 60.5454 15.9124C60.7943 15.8022 61.0432 15.6919 61.3474 15.5541ZM70.9441 49.311C70.6399 49.3937 70.3633 49.4764 70.0868 49.5866C70.0591 49.5866 70.0315 49.6142 70.0038 49.6417C69.8655 49.8897 69.7272 50.1377 69.5613 50.4133C70.0038 50.5511 70.4463 50.6613 70.8611 50.7991C70.8888 50.3031 70.9165 49.807 70.9441 49.311ZM51.4188 50.4133C51.2529 50.1377 51.1146 49.8897 50.9763 49.6417C50.9487 49.6142 50.921 49.5866 50.921 49.5866C50.6445 49.5039 50.3403 49.3937 50.036 49.311C50.0637 49.807 50.0913 50.3031 50.119 50.7991C50.5338 50.6613 50.9763 50.5511 51.4188 50.4133ZM55.429 55.1806V55.2082C56.4523 55.2082 57.4755 55.2082 58.5265 55.2082C58.4988 55.1806 58.4988 55.1806 58.4988 55.1806C57.918 54.9326 57.3373 54.657 56.7565 54.409C56.7288 54.409 56.7012 54.409 56.6735 54.409C56.2587 54.657 55.8438 54.905 55.429 55.1806ZM65.5512 55.2082V55.1806C65.1363 54.9326 64.7215 54.657 64.3066 54.409C64.279 54.3815 64.2237 54.409 64.1683 54.409C63.7535 54.6019 63.3387 54.7672 62.9238 54.9601C62.7579 55.0428 62.6196 55.0979 62.4537 55.1806V55.2082C63.4769 55.2082 64.5279 55.2082 65.5512 55.2082ZM41.8498 33.2179C41.8775 33.1904 41.8775 33.1904 41.9051 33.1904C42.2646 32.6668 42.6518 32.1432 43.0114 31.6197C43.039 31.5645 43.0667 31.4819 43.0667 31.4268C43.0943 31.0961 43.0943 30.7654 43.122 30.4347C43.122 30.1592 43.1496 29.9112 43.1496 29.6356H43.122C42.7071 30.8205 42.2923 32.0055 41.8498 33.2179ZM79.075 33.2179C79.1027 33.1904 79.1027 33.1904 79.075 33.2179C78.6878 32.0055 78.273 30.8205 77.8305 29.608C77.8305 30.2418 77.8582 30.8756 77.8858 31.4819C77.8858 31.537 77.9135 31.5921 77.9135 31.6197C78.3283 32.1432 78.7155 32.6668 79.075 33.2179ZM76.2264 23.1047C76.1711 23.7936 76.1435 24.4549 76.1158 25.1163C76.1158 25.1714 76.1435 25.2541 76.1711 25.2816C76.4477 25.7777 76.7243 26.2737 77.0008 26.7697C77.0285 26.7972 77.0285 26.8248 77.0561 26.8524C77.0561 26.8524 77.0561 26.8524 77.0838 26.8248C76.7796 25.5848 76.503 24.3447 76.2264 23.1047ZM44.7537 23.1047C44.4495 24.3447 44.1729 25.5848 43.8964 26.8524C43.924 26.8524 43.924 26.8524 43.924 26.8248C44.2282 26.3012 44.5325 25.7777 44.809 25.2541C44.8367 25.2265 44.8367 25.1714 44.8367 25.1163C44.8367 24.4549 44.7814 23.766 44.7537 23.1047ZM69.8655 51.9014C69.8379 51.9014 69.8102 51.9014 69.8102 51.9014C69.3401 52.1218 68.8422 52.3147 68.3721 52.5352C68.3444 52.5627 68.2891 52.5903 68.2615 52.6454C67.9849 53.1414 67.7083 53.6374 67.4041 54.1334C67.3765 54.161 67.3765 54.2161 67.3488 54.2437C67.3488 54.2437 67.3488 54.2437 67.3765 54.2712C68.2062 53.4996 69.0358 52.7005 69.8655 51.9014ZM53.6037 54.2988C53.6037 54.2712 53.6037 54.2712 53.6037 54.2988C53.4101 53.9405 53.2165 53.6099 53.0229 53.2241C52.8017 52.7556 52.4974 52.4249 52.0826 52.3423C52.0273 52.3423 51.972 52.2871 51.889 52.2596C51.6401 52.1494 51.3635 52.0391 51.1146 51.9289V51.9565C51.9443 52.7281 52.774 53.4996 53.6037 54.2988ZM74.733 48.1812C74.7054 48.1536 74.733 48.1536 74.733 48.1812C74.7054 48.1536 74.7054 48.1536 74.7054 48.1536C74.1799 48.319 73.6821 48.4843 73.1566 48.6497C73.1013 48.6772 73.046 48.7048 73.0183 48.7599C72.7418 49.1181 72.4929 49.5039 72.2163 49.8622C72.161 49.9173 72.1057 49.9724 72.0504 50.0551C72.0504 50.0826 72.078 50.0826 72.078 50.1102C72.963 49.4488 73.848 48.815 74.733 48.1812ZM48.9021 50.0826C48.9021 50.0826 48.9021 50.0551 48.9298 50.0551C48.5979 49.5866 48.266 49.1457 47.9618 48.6772C47.9342 48.6497 47.8789 48.6221 47.8512 48.6221C47.4917 48.5119 47.1598 48.4017 46.8003 48.2914C46.6343 48.2363 46.4407 48.1812 46.2748 48.1261V48.1536C47.1321 48.815 48.0171 49.4488 48.9021 50.0826ZM64.9704 13.9834V13.9559C63.9471 14.0385 62.9515 14.0936 61.9282 14.1763C61.9559 14.2039 61.9835 14.2314 62.0112 14.2314C62.343 14.3416 62.6749 14.4243 63.0068 14.5345C63.2833 14.6448 63.5323 14.6172 63.7812 14.4794C64.196 14.3141 64.5832 14.1488 64.9704 13.9834ZM59.052 14.2039C58.0287 14.0936 57.033 14.0385 55.9821 13.9559C56.0374 13.9834 56.0374 13.9834 56.0374 14.011C56.5076 14.2314 57.0054 14.4243 57.4755 14.6448C57.5032 14.6723 57.5585 14.6723 57.6138 14.6448C57.8904 14.5621 58.167 14.4794 58.4435 14.3968C58.6648 14.3141 58.8584 14.259 59.052 14.2039ZM76.7796 29.9938C77.0285 30.2969 77.2774 30.6001 77.4986 30.8756C77.471 30.2694 77.4433 29.608 77.4157 28.9467H77.388C77.1944 29.2773 77.0008 29.608 76.7796 29.9938ZM43.5921 28.9191H43.5645C43.5368 29.5805 43.5092 30.2418 43.4815 30.8481C43.7028 30.5725 43.9517 30.2694 44.2006 29.9663C43.9793 29.608 43.7857 29.2773 43.5921 28.9191ZM76.0882 25.9706C76.0605 26.4115 76.0605 26.7973 76.0329 27.183C76.0329 27.2106 76.0605 27.2382 76.0882 27.2657C76.3924 27.4035 76.7243 27.5413 77.0561 27.7066C76.7243 27.1004 76.42 26.5768 76.0882 25.9706ZM44.892 25.9706C44.5601 26.5492 44.2559 27.1004 43.924 27.6791C44.2835 27.5137 44.5878 27.3759 44.892 27.2382C44.9196 27.2382 44.9473 27.183 44.9473 27.1555C44.9196 26.7973 44.9196 26.4115 44.892 25.9706ZM71.276 50.4409C71.6632 49.9173 72.0227 49.3937 72.3822 48.8977C72.0504 48.9804 71.7185 49.063 71.4143 49.1732C71.3866 49.1732 71.359 49.2284 71.359 49.2559C71.3036 49.6142 71.3036 49.9999 71.276 50.4409ZM49.7042 50.3031C49.6765 49.9999 49.6765 49.6142 49.6488 49.2284C49.6488 49.2008 49.6212 49.1732 49.5935 49.1732C49.2617 49.063 48.9574 48.9804 48.6256 48.8701C48.6256 48.8701 48.6256 48.8977 48.5979 48.8977C48.9574 49.3661 49.3446 49.8346 49.7042 50.3031ZM70.2804 51.1849V51.1573C69.9761 51.0747 69.6719 50.9644 69.3401 50.8818C69.3124 50.8818 69.2847 50.8818 69.2571 50.9093C69.0635 51.2124 68.8976 51.5156 68.7316 51.8462C68.7316 51.8462 68.7316 51.8738 68.7593 51.8738C69.2571 51.6258 69.7826 51.4053 70.2804 51.1849ZM62.6749 14.9755V14.9479C62.1494 14.7826 61.624 14.6172 61.0709 14.4794C61.0709 14.507 61.0432 14.507 61.0432 14.5345C61.2644 14.8101 61.458 15.0857 61.6793 15.3612C61.7069 15.3888 61.7346 15.3888 61.7623 15.3888C62.0941 15.251 62.3707 15.1132 62.6749 14.9755ZM52.2485 51.8738C52.1379 51.6533 52.0273 51.488 51.9443 51.3227C51.8613 51.1849 51.7784 50.9644 51.6677 50.9093C51.5571 50.8542 51.3912 50.9644 51.2529 50.992C51.0593 51.0471 50.8657 51.1022 50.6998 51.1573V51.1849C51.1976 51.4053 51.6954 51.6258 52.2485 51.8738ZM58.2776 14.9479V14.9755C58.5818 15.1132 58.886 15.251 59.1626 15.3612C59.1902 15.3612 59.2179 15.3612 59.2455 15.3337C59.4668 15.0581 59.6604 14.7826 59.8816 14.507C59.8816 14.507 59.854 14.4794 59.854 14.4519C59.3562 14.6172 58.8307 14.7826 58.2776 14.9479ZM75.7839 30.9307C75.9775 30.6276 76.1711 30.3245 76.3371 29.9938C76.1988 29.8009 76.0605 29.6356 75.8946 29.4427C75.8669 29.9387 75.8116 30.4347 75.7839 30.9307ZM45.1685 30.9583C45.1409 30.4347 45.1132 29.9387 45.0579 29.4702C44.9196 29.6356 44.7814 29.8285 44.6154 29.9938C44.809 30.3245 45.0026 30.6276 45.1685 30.9583ZM49.9807 47.7127H49.9531C49.9807 48.0434 49.9807 48.3741 50.0084 48.7048C50.0084 48.7323 50.036 48.7599 50.036 48.7875C50.2296 48.8426 50.3956 48.8977 50.6168 48.9804C50.3956 48.5394 50.1743 48.1261 49.9807 47.7127ZM71.0271 47.7403H70.9994C70.7782 48.1536 70.5846 48.5394 70.3633 48.9804C70.5846 48.9252 70.7505 48.8701 70.9165 48.815C70.9441 48.815 70.9718 48.7599 70.9718 48.7323C70.9994 48.4017 70.9994 48.071 71.0271 47.7403ZM45.3621 28.3129C45.6387 27.9271 45.9153 27.5964 46.1918 27.2382C45.9153 27.3208 45.6387 27.4311 45.3898 27.5688C45.3621 27.5688 45.3345 27.6515 45.3345 27.6791C45.3345 27.872 45.3621 28.0649 45.3621 28.3129ZM75.5904 28.3129C75.5904 28.0924 75.618 27.8995 75.618 27.7066C75.618 27.624 75.5904 27.5688 75.535 27.5688C75.3138 27.4862 75.1202 27.3759 74.8989 27.2933C74.8713 27.2657 74.816 27.2657 74.7607 27.2382V27.2657C75.0372 27.5964 75.3138 27.9271 75.5904 28.3129ZM59.937 16.2155C59.7434 16.1328 59.5774 16.0502 59.3838 15.995C59.3562 15.995 59.3285 15.995 59.3285 16.0226C59.1349 16.2706 58.969 16.4911 58.7754 16.7391C58.7754 16.7666 58.803 16.7666 58.803 16.7942C59.1626 16.5737 59.5221 16.4084 59.937 16.2155ZM62.1771 16.7666C62.1771 16.7391 62.2048 16.7391 62.2048 16.7115C62.0112 16.4911 61.8452 16.2431 61.6793 16.0226C61.6516 15.995 61.624 15.9675 61.5963 15.995C61.4304 16.0502 61.2644 16.1328 61.0709 16.2155C61.4304 16.4084 61.7899 16.5737 62.1771 16.7666ZM69.506 49.7244C69.0911 49.8346 68.704 49.9173 68.3444 50.0275C68.621 50.1377 68.8699 50.2204 69.1465 50.2755C69.1741 50.2755 69.2294 50.248 69.2294 50.2204C69.3124 50.0826 69.3954 49.9173 69.506 49.7244ZM51.4742 49.7244C51.5848 49.9173 51.6677 50.0826 51.7784 50.248C51.806 50.2755 51.8337 50.2755 51.8613 50.2755C52.1379 50.1928 52.3868 50.1102 52.6634 50.0551V50.0275C52.2762 49.9173 51.889 49.8346 51.4742 49.7244ZM69.3124 31.0134C69.2571 30.8481 69.2294 30.7103 69.2018 30.5725H69.1741C69.1741 30.7379 69.1741 30.8756 69.1741 31.041C69.2018 31.041 69.2571 31.0134 69.3124 31.0134ZM51.806 31.0685C51.806 30.9032 51.806 30.7379 51.806 30.6001H51.7784C51.7507 30.7379 51.6954 30.8756 51.6677 31.041C51.7231 31.0134 51.7784 31.041 51.806 31.0685ZM51.5295 31.4543C51.4742 31.5921 51.4465 31.7299 51.4188 31.8677C51.4188 31.8677 51.4188 31.8677 51.4465 31.8952C51.5295 31.785 51.6124 31.6472 51.6954 31.537C51.6401 31.5094 51.5848 31.4819 51.5295 31.4543ZM69.2847 31.5094C69.3677 31.6472 69.4507 31.7574 69.5336 31.8952C69.5336 31.8952 69.5336 31.8952 69.5613 31.8952C69.5336 31.7574 69.4783 31.6197 69.4507 31.4819C69.3677 31.4819 69.3401 31.4819 69.2847 31.5094ZM55.4566 43.4966C55.4013 43.3588 55.346 43.221 55.2631 43.0832C55.2354 43.1383 55.2077 43.1935 55.1801 43.2486C55.2631 43.3588 55.346 43.4415 55.4566 43.4966ZM65.7171 43.1108C65.6341 43.2486 65.5788 43.3588 65.4958 43.4966C65.4958 43.4966 65.4958 43.5241 65.5235 43.5241C65.6341 43.4415 65.7171 43.3588 65.8277 43.2761C65.7724 43.1935 65.7448 43.1659 65.7171 43.1108ZM54.9312 42.8903C54.8206 42.8628 54.7376 42.8352 54.627 42.8077C54.7929 43.0281 54.8482 43.0281 54.9312 42.8903ZM66.3532 42.7801C66.2426 42.8077 66.1319 42.8352 66.049 42.8628C66.1319 43.0281 66.1596 43.0281 66.3532 42.7801ZM60.6837 24.0416C60.7666 24.014 60.8496 23.9865 60.9602 23.9314C60.7113 23.8762 60.6837 23.8762 60.6837 24.0416ZM60.2965 24.0416C60.2965 23.8762 60.2412 23.8487 60.0476 23.9314C60.1305 23.9589 60.2135 24.014 60.2965 24.0416Z" fill="#FFA700"/>
<path d="M92.903 24.8407H89.3906V22.1953H98.0747C98.6278 22.1953 99.0426 22.6362 99.0426 23.1598V24.8132H95.5303V33.2731H92.8753V24.8407H92.903Z" fill="white"/>
<path d="M111.212 27.7615C111.212 30.8203 108.722 33.3004 105.653 33.3004C102.583 33.3004 100.094 30.8203 100.094 27.7615C100.094 24.7028 102.583 22.2227 105.653 22.2227C108.722 22.2227 111.212 24.7028 111.212 27.7615ZM108.557 27.7615C108.557 26.1633 107.257 24.8681 105.653 24.8681C104.049 24.8681 102.749 26.1633 102.749 27.7615C102.749 29.3598 104.049 30.655 105.653 30.655C107.257 30.655 108.557 29.3598 108.557 27.7615Z" fill="white"/>
<path d="M112.957 22.2229H115.336C115.446 22.2229 115.529 22.278 115.612 22.3607L118.627 25.8328L121.586 22.3331C121.669 22.2504 121.752 22.1953 121.863 22.1953H124.213V33.2731H121.586V26.3564L120.342 27.8169L119.318 28.9742C118.931 29.4152 118.24 29.4152 117.852 28.9742L115.585 26.3288V33.2455H112.93V22.2229H112.957Z" fill="white"/>
<path d="M131.18 22.2227H132.867C133.42 22.2227 133.835 22.6636 133.835 23.1871V26.4388H138.149V22.2227H139.836C140.362 22.2227 140.804 22.6636 140.804 23.1871V33.3004H138.149V29.0843H133.835V33.3004H131.18V22.2227Z" fill="white"/>
<path d="M153.665 27.7615C153.665 30.8203 151.176 33.3004 148.106 33.3004C145.036 33.3004 142.547 30.8203 142.547 27.7615C142.547 24.7028 145.036 22.2227 148.106 22.2227C151.176 22.2227 153.665 24.7028 153.665 27.7615ZM151.01 27.7615C151.01 26.1633 149.71 24.8681 148.106 24.8681C146.502 24.8681 145.202 26.1633 145.202 27.7615C145.202 29.3598 146.502 30.655 148.106 30.655C149.71 30.655 151.01 29.3598 151.01 27.7615Z" fill="white"/>
<path d="M155.41 28.616C155.41 28.0924 155.853 27.6515 156.378 27.6515H159.559C160.361 27.6515 160.997 26.9902 160.969 26.191C160.942 25.4194 160.278 24.8407 159.531 24.8407H155.41V22.1953H159.504C161.716 22.1953 163.624 23.9865 163.597 26.2186C163.597 27.8169 162.656 29.1947 161.274 29.8285L164.731 33.3006H161.052L158.038 30.297V33.3006H155.383V28.616H155.41Z" fill="white"/>
<path d="M166.109 22.2227H168.184C168.46 22.2227 168.737 22.3604 168.93 22.5533L174.766 29.3047V22.2227H176.425C176.978 22.2227 177.393 22.6636 177.393 23.1871V33.3004H174.71L168.737 26.3837V33.3004H166.109V22.2227Z" fill="white"/>
<path d="M91.5503 46.9692C91.495 46.9417 91.4397 46.9417 91.3844 46.9141C91.3291 46.8866 91.2737 46.859 91.2184 46.859L91.1078 46.8039L90.8866 46.6937C90.8589 46.6661 90.8036 46.6386 90.7759 46.611C90.693 46.5559 90.6377 46.5008 90.5823 46.4732C90.4441 46.363 90.3058 46.2528 90.1952 46.1425C89.5591 45.5087 89.1719 44.6269 89.1719 43.6349C89.1719 42.6704 89.5591 41.7886 90.1952 41.1272C90.3058 41.017 90.4441 40.9068 90.5823 40.7966C90.6377 40.7414 90.7206 40.6863 90.7759 40.6588C90.9142 40.5485 91.0802 40.4934 91.2184 40.4108C91.2737 40.3832 91.3291 40.3556 91.3844 40.3281L91.5503 40.273C91.9098 40.1627 92.297 40.0801 92.6842 40.0801C93.0714 40.0801 93.4586 40.1352 93.8181 40.273L93.984 40.3281C94.0394 40.3556 94.0947 40.3832 94.15 40.4108C94.3159 40.4934 94.4542 40.5485 94.5925 40.6588C94.6755 40.7139 94.7308 40.7414 94.8137 40.7966C94.952 40.9068 95.0903 41.017 95.2009 41.1272L94.0117 42.3122C93.9287 42.2295 93.8458 42.1468 93.7351 42.0917C93.7075 42.0642 93.6798 42.0642 93.6522 42.0366L93.5969 42.009L93.5139 41.9539C93.4586 41.9264 93.4033 41.8988 93.3756 41.8988L93.2926 41.8713C93.265 41.8713 93.265 41.8437 93.2373 41.8437C93.2097 41.8437 93.2097 41.8437 93.2097 41.8161C93.182 41.8161 93.1544 41.8161 93.1544 41.7886C93.0161 41.761 92.8501 41.7335 92.6842 41.7335C92.5183 41.7335 92.3523 41.761 92.2141 41.7886C92.1864 41.7886 92.1587 41.8161 92.1311 41.8161L92.1034 41.8437C92.0758 41.8437 92.0481 41.8437 92.0481 41.8713L91.9651 41.8988C91.9098 41.9264 91.8545 41.9264 91.8269 41.9539L91.7716 41.9815L91.7439 42.009L91.7162 42.0366C91.6886 42.0366 91.6609 42.0642 91.6609 42.0917L91.578 42.1468C91.5503 42.1744 91.5226 42.2019 91.495 42.2019C91.1078 42.5326 90.8589 43.0286 90.8589 43.6073C90.8589 44.1585 91.1078 44.6545 91.495 45.0127C91.5226 45.0403 91.5503 45.0678 91.578 45.0954L91.6056 45.1229L91.6886 45.1781C91.7439 45.2332 91.8269 45.2607 91.8822 45.2883C91.9375 45.3158 91.9652 45.3434 92.0205 45.371C92.1034 45.3985 92.1587 45.4261 92.2417 45.4536C92.38 45.4812 92.5459 45.5087 92.7119 45.5087C92.8778 45.5087 93.0437 45.4812 93.182 45.4536C93.265 45.4261 93.3203 45.3985 93.4033 45.371C93.4586 45.3434 93.5139 45.3158 93.5416 45.2883C93.6245 45.2607 93.6798 45.2056 93.7351 45.1781L93.8734 45.0678L94.0117 44.9576V43.6624H95.0626C95.3945 43.6624 95.6711 43.938 95.6711 44.2687V44.93C95.6711 45.371 95.5051 45.8119 95.1733 46.1425C95.0626 46.2528 94.9244 46.363 94.7861 46.4732L94.5648 46.611L94.4542 46.6661C94.3712 46.7212 94.3159 46.7488 94.233 46.7763C94.2053 46.8039 94.15 46.8315 94.1223 46.8315L93.984 46.8866H93.9564C93.9011 46.9141 93.8458 46.9417 93.7905 46.9417C93.4309 47.0519 93.0437 47.1346 92.6566 47.1346C92.2694 47.1346 91.9098 47.0795 91.5503 46.9692Z" fill="white"/>
<path d="M99.2381 40.4932C99.3487 40.2728 99.57 40.1074 99.8189 40.1074C100.068 40.1074 100.289 40.2452 100.372 40.4657L103.497 47.1344H103.47H101.727L101.036 45.6739H98.5191L97.8277 47.1344H96.1406L99.2381 40.4932ZM100.344 44.1031L99.8189 42.9733L99.2934 44.1031H100.344Z" fill="white"/>
<path d="M104.41 40.1074H105.932C105.987 40.1074 106.042 40.135 106.097 40.1901L108.006 42.3946L109.914 40.1901C109.969 40.135 110.025 40.1074 110.08 40.1074H111.573V47.1619H109.886V42.7529L109.084 43.6898L108.448 44.4338C108.199 44.7094 107.757 44.7094 107.508 44.4338L106.07 42.7529V47.1619H104.383V40.1074H104.41Z" fill="white"/>
<path d="M112.898 40.1074H113.977C114.309 40.1074 114.585 40.383 114.585 40.7137V47.1344H112.898V40.1074Z" fill="white"/>
<path d="M115.918 40.1074H117.246C117.412 40.1074 117.605 40.1901 117.716 40.3279L121.422 44.6267V40.1074H122.473C122.805 40.1074 123.081 40.383 123.081 40.7137V47.1344H121.394L117.578 42.7253V47.1344H115.891V40.1074H115.918Z" fill="white"/>
<path d="M126.621 46.9692C126.565 46.9417 126.51 46.9417 126.455 46.9141C126.399 46.8866 126.344 46.859 126.289 46.859L126.178 46.8039L125.957 46.6937C125.929 46.6661 125.874 46.6386 125.846 46.611C125.763 46.5559 125.708 46.5008 125.653 46.4732C125.514 46.363 125.376 46.2528 125.265 46.1425C124.629 45.5087 124.242 44.6269 124.242 43.6349C124.242 42.6704 124.629 41.7886 125.265 41.1272C125.376 41.017 125.514 40.9068 125.653 40.7966C125.708 40.7414 125.791 40.6863 125.846 40.6588C125.985 40.5485 126.15 40.4934 126.289 40.4108C126.344 40.3832 126.399 40.3556 126.455 40.3281L126.621 40.273C126.98 40.1627 127.367 40.0801 127.755 40.0801C128.142 40.0801 128.529 40.1352 128.888 40.273L129.054 40.3281C129.11 40.3556 129.165 40.3832 129.22 40.4108C129.386 40.4934 129.525 40.5485 129.663 40.6588C129.746 40.7139 129.801 40.7414 129.884 40.7966C130.022 40.9068 130.161 41.017 130.271 41.1272L129.082 42.3122C128.999 42.2295 128.916 42.1468 128.805 42.0917C128.778 42.0642 128.75 42.0642 128.722 42.0366L128.667 42.009L128.584 41.9539C128.529 41.9264 128.474 41.8988 128.446 41.8988L128.363 41.8713C128.335 41.8713 128.335 41.8437 128.308 41.8437C128.28 41.8437 128.28 41.8437 128.28 41.8161C128.252 41.8161 128.225 41.8161 128.225 41.7886C128.086 41.761 127.92 41.7335 127.755 41.7335C127.589 41.7335 127.423 41.761 127.284 41.7886C127.257 41.7886 127.229 41.8161 127.201 41.8161L127.174 41.8437C127.146 41.8437 127.118 41.8437 127.118 41.8713L127.035 41.8988C126.98 41.9264 126.925 41.9264 126.897 41.9539L126.842 41.9815L126.814 42.009L126.759 42.0366C126.731 42.0366 126.704 42.0642 126.704 42.0917L126.621 42.1468C126.593 42.1744 126.565 42.2019 126.538 42.2019C126.15 42.5326 125.902 43.0286 125.902 43.6073C125.902 44.1585 126.15 44.6545 126.538 45.0127C126.565 45.0403 126.593 45.0678 126.621 45.0954L126.648 45.1229L126.731 45.1781C126.787 45.2332 126.87 45.2607 126.925 45.2883C126.98 45.3158 127.008 45.3434 127.063 45.371C127.146 45.3985 127.201 45.4261 127.284 45.4536C127.423 45.4812 127.589 45.5087 127.755 45.5087C127.92 45.5087 128.086 45.4812 128.225 45.4536C128.308 45.4261 128.363 45.3985 128.446 45.371C128.501 45.3434 128.557 45.3158 128.584 45.2883C128.667 45.2607 128.722 45.2056 128.778 45.1781L128.916 45.0678L129.054 44.9576V43.6624H130.105C130.437 43.6624 130.714 43.938 130.714 44.2687V44.93C130.714 45.371 130.548 45.8119 130.216 46.1425C130.105 46.2528 129.967 46.363 129.829 46.4732L129.607 46.611L129.497 46.6661C129.414 46.7212 129.359 46.7488 129.276 46.7763C129.248 46.8039 129.193 46.8315 129.165 46.8315L129.027 46.8866H129.054C128.999 46.9141 128.944 46.9417 128.888 46.9417C128.529 47.0519 128.142 47.1346 127.755 47.1346C127.367 47.1346 126.98 47.0795 126.621 46.9692Z" fill="white"/>
</svg>
