<svg width="206" height="71" viewBox="0 0 206 71" fill="none" xmlns="http://www.w3.org/2000/svg">
<path d="M0.785156 0.536133H188.896C198.224 0.536133 205.785 8.09776 205.785 17.4255V70.5361H43.4586C33.2192 70.5361 24.0695 64.142 20.5496 54.5267L0.785156 0.536133Z" fill="#0B0E15"/>
<path d="M90.4586 27.6959C90.4586 31.5534 90.4586 35.4967 90.4586 39.3543C90.4586 40.0401 90.1135 40.5544 89.5096 40.8116C88.9057 41.0688 88.388 40.8973 87.9566 40.383C85.1958 37.6398 82.3486 34.8967 79.5878 32.0678C76.3955 28.896 73.2033 25.7242 70.011 22.5525C68.1129 20.6665 66.3011 18.7806 64.403 16.9804C63.6265 16.2089 63.7128 15.0088 64.6619 14.5801C64.9207 14.4087 65.2658 14.4087 65.6109 14.4087C73.2896 14.4087 80.9682 14.4087 88.6468 14.4087C89.4233 14.4087 90.0273 14.5801 90.2861 15.3517C90.3724 15.5231 90.3724 15.6945 90.3724 15.866C90.4586 19.8093 90.4586 23.7526 90.4586 27.6959Z" fill="white"/>
<path d="M135.836 14.4067C139.805 14.4067 143.774 14.4067 147.829 14.4067C148.433 14.4067 148.864 14.8354 149.037 15.3497C149.209 15.7783 149.124 16.4641 148.692 16.807C147.138 18.4358 145.501 19.9788 143.947 21.6075C142.134 23.4077 140.324 25.2079 138.511 27.0081C135.319 30.1799 132.126 33.3517 129.02 36.5235C127.726 37.8093 126.518 39.0095 125.31 40.2953C125.138 40.4668 125.052 40.5533 124.879 40.6382C123.93 41.2383 122.722 40.6382 122.636 39.5238C122.636 39.2666 122.636 39.0952 122.636 38.838C122.636 31.2086 122.636 23.6649 122.636 16.0338C122.636 15.6909 122.722 15.348 122.895 15.0908C123.154 14.6639 123.585 14.4925 124.103 14.4925C127.985 14.4925 131.954 14.4925 135.836 14.4067C135.836 14.4925 135.836 14.4925 135.836 14.4067Z" fill="white"/>
<path d="M106.51 14.4072C110.479 14.4072 114.534 14.4072 118.503 14.4072C119.021 14.4072 119.624 14.9215 119.797 15.4358C119.883 15.9502 119.797 16.4645 119.366 16.8931C117.036 19.2077 114.792 21.5222 112.464 23.751C108.84 27.3514 105.216 30.9518 101.593 34.5522C99.6945 36.4382 97.7965 38.4098 95.8984 40.2957C95.2944 40.8958 94.7768 40.9824 94.1728 40.7243C93.5689 40.4672 93.3101 40.0386 93.3101 39.4385C93.3101 39.1813 93.3101 38.9242 93.3101 38.6687C93.3101 31.125 93.3101 23.4956 93.3101 15.9519C93.3101 15.0947 93.8277 14.3231 94.863 14.4089C98.7455 14.4929 102.628 14.4929 106.51 14.4072C106.51 14.4929 106.51 14.4072 106.51 14.4072Z" fill="white"/>
<path d="M95.467 52.2117C95.5533 52.1259 95.5533 52.0402 95.6395 51.9545C96.2435 50.6686 96.9337 49.4685 97.5376 48.1826C97.6239 48.0112 97.7102 47.9255 97.969 47.9255C98.1416 47.9255 98.3141 47.9255 98.4867 47.9255C98.8318 47.8398 99.0906 48.0112 99.2632 48.3541C99.7808 49.3828 100.298 50.4115 100.816 51.4401C100.902 51.6982 101.075 51.9562 101.161 52.1268H101.248C101.248 52.0402 101.248 51.9562 101.248 51.8688C101.248 49.9837 101.248 48.0986 101.248 46.2967C101.248 46.0396 101.334 46.0396 101.593 46.0396C102.024 46.0396 102.542 46.0396 102.973 46.0396C103.232 46.0396 103.404 46.1261 103.404 46.3824C103.404 47.4111 103.404 48.439 103.404 49.4685C103.404 51.6982 103.404 53.9261 103.404 56.2407C103.404 56.4979 103.318 56.5827 103.059 56.5827C102.628 56.5827 102.11 56.5827 101.679 56.5827C101.42 56.5827 101.334 56.4961 101.248 56.3247C100.385 54.6102 99.522 52.9832 98.6592 51.2687C98.5729 51.1813 98.4867 51.0973 98.4004 51.0107C98.3141 51.0973 98.3141 51.1813 98.2278 51.2687C97.7965 52.1259 97.3651 53.0689 96.8474 53.9261C96.416 54.6977 96.0709 55.4692 95.6395 56.2407C95.5533 56.4979 95.3807 56.5836 95.0356 56.5836C94.6042 56.5836 94.0865 56.5836 93.6552 56.5836C93.3963 56.5836 93.3101 56.4979 93.3101 56.2424C93.3101 52.984 93.3101 49.7257 93.3101 46.4699C93.3101 46.0413 93.3101 46.0413 93.7414 46.0413C94.1728 46.0413 94.6905 46.0413 95.1219 46.0413C95.3807 46.0413 95.467 46.1287 95.467 46.2993C95.467 46.4699 95.467 46.7279 95.467 46.8985C95.467 48.613 95.467 50.2417 95.467 51.9562C95.2944 52.0402 95.3807 52.1259 95.467 52.2117C95.3807 52.2117 95.3807 52.2117 95.467 52.2117Z" fill="white"/>
<path d="M147.053 52.3831C147.053 52.2965 147.053 52.2117 147.053 52.2117C147.053 50.3257 147.053 48.3541 147.053 46.4682C147.053 46.211 147.14 46.1261 147.398 46.1261C147.916 46.1261 148.433 46.1261 148.864 46.1261C149.036 46.1261 149.124 46.2127 149.124 46.3842C149.124 46.6413 149.124 46.9834 149.124 47.2414C149.124 50.2417 149.124 53.2421 149.124 56.2424C149.124 56.5836 149.124 56.5836 148.693 56.5836C148.347 56.5836 147.916 56.5836 147.57 56.5836C147.31 56.5836 147.226 56.4979 147.052 56.3264C145.845 54.4405 144.636 52.5554 143.513 50.6686C143.43 50.5829 143.343 50.4115 143.257 50.24C143.257 50.4115 143.171 50.4115 143.171 50.4972C143.171 52.3831 143.171 54.269 143.171 56.2407C143.171 56.4979 143.085 56.5827 142.826 56.5827C142.308 56.5827 141.877 56.5827 141.36 56.5827C141.1 56.5836 141.014 56.4979 141.014 56.2407C141.014 52.9832 141.014 49.7248 141.014 46.4682C141.014 46.0396 141.014 46.0396 141.445 46.0396C141.79 46.0396 142.136 46.0396 142.481 46.0396C142.739 46.0396 142.825 46.1261 142.998 46.2967C143.947 47.8398 144.896 49.3828 145.845 50.8401C146.105 51.2687 146.365 51.6973 146.708 52.2117C146.796 52.2974 146.796 52.3831 146.796 52.4688C146.967 52.3831 146.967 52.3831 147.053 52.3831Z" fill="white"/>
<path d="M122.55 51.2687C122.55 49.64 122.55 48.0103 122.55 46.3824C122.55 46.1253 122.638 46.0396 122.896 46.0396C124.103 46.0396 125.311 46.0396 126.519 46.0396C127.554 46.0396 128.504 46.2967 129.28 47.0682C129.883 47.6683 130.229 48.4398 130.314 49.2971C130.402 50.5829 130.402 51.9562 130.314 53.3261C130.143 54.7834 129.365 55.8978 127.898 56.413C127.554 56.4979 127.123 56.5836 126.778 56.5836C125.484 56.5836 124.19 56.5836 122.896 56.5836C122.637 56.5836 122.55 56.4979 122.55 56.2424C122.55 54.6119 122.55 52.9832 122.55 51.2687ZM124.707 51.3544C124.707 52.3831 124.707 53.4118 124.707 54.4405C124.707 54.6985 124.795 54.7834 125.052 54.7834C125.398 54.7834 125.743 54.7834 126.088 54.7834C126.692 54.7834 127.209 54.6977 127.641 54.1833C127.9 53.8404 128.072 53.4118 128.072 52.9832C128.072 51.8679 128.158 50.6686 128.072 49.5542C127.986 48.439 127.382 47.8398 126.174 47.8398C125.743 47.8398 125.311 47.8398 124.967 47.8398C124.707 47.8398 124.621 47.9255 124.621 48.1826C124.707 49.2971 124.707 50.3257 124.707 51.3544Z" fill="white"/>
<path d="M112.458 56.5838C112.198 56.5838 111.938 56.5838 111.595 56.5838C111.335 56.5838 111.25 56.4981 111.164 56.3266C111.076 55.898 110.904 55.4694 110.732 55.1273C110.56 54.6987 110.56 54.6987 110.128 54.6987C109.266 54.6987 108.403 54.6987 107.54 54.6987C107.281 54.6987 107.109 54.7853 107.022 55.0408C106.934 55.4694 106.762 55.898 106.59 56.3266C106.504 56.5838 106.418 56.6695 106.072 56.6695C105.555 56.6695 105.037 56.6695 104.433 56.6695C104.088 56.6695 104.088 56.5829 104.174 56.3266C104.692 54.8693 105.21 53.3263 105.727 51.869C106.245 50.4974 106.676 49.1267 107.194 47.7542C107.367 47.3256 107.454 46.897 107.625 46.4684C107.713 46.2112 107.799 46.1255 108.058 46.1255C108.576 46.1255 109.008 46.1255 109.524 46.1255C109.783 46.1255 109.87 46.2112 109.956 46.3827C110.56 48.0106 111.077 49.725 111.681 51.3546C112.199 52.7262 112.63 54.0978 113.148 55.4694C113.234 55.7265 113.321 55.9846 113.407 56.2409C113.493 56.4972 113.407 56.5829 113.148 56.5829C112.975 56.5838 112.717 56.5838 112.458 56.5838ZM108.92 49.2973C108.834 49.4687 108.748 49.5553 108.748 49.5553C108.403 50.4974 108.144 51.5261 107.799 52.469C107.713 52.7262 107.799 52.8119 108.058 52.8119C108.662 52.8119 109.179 52.8119 109.783 52.8119C110.042 52.8119 110.042 52.6405 109.956 52.469C109.783 51.869 109.524 51.1832 109.352 50.5831C109.266 50.1545 109.093 49.7259 108.92 49.2973Z" fill="white"/>
<path d="M139.036 56.581C138.777 56.581 138.518 56.581 138.26 56.581C138.002 56.581 137.915 56.4953 137.828 56.239C137.742 55.8103 137.569 55.3817 137.397 55.0388C137.311 54.6968 137.138 54.6102 136.793 54.6102C135.93 54.6102 134.981 54.6102 134.118 54.6102C133.86 54.6102 133.773 54.6968 133.687 54.9531C133.601 55.3817 133.342 55.8961 133.256 56.3247C133.169 56.4961 133.083 56.5819 132.911 56.5819C132.307 56.5819 131.789 56.5819 131.185 56.5819C130.926 56.5819 130.842 56.4961 130.926 56.2407C131.358 55.0405 131.789 53.8396 132.22 52.6403C132.652 51.441 133.083 50.1551 133.514 48.9542C133.773 48.0969 134.118 47.2397 134.377 46.3824C134.464 46.1244 134.55 46.0396 134.896 46.0396C135.327 46.0396 135.846 46.0396 136.277 46.0396C136.536 46.0396 136.621 46.127 136.708 46.3824C137.312 48.0969 137.915 49.8114 138.434 51.4384C138.952 52.8117 139.384 54.1816 139.901 55.554C139.987 55.8121 140.072 55.9826 140.16 56.2407C140.247 56.4978 140.16 56.5819 139.901 56.5819C139.554 56.581 139.295 56.581 139.036 56.581ZM135.499 49.3802C135.326 49.4659 135.326 49.5517 135.24 49.7231C134.981 50.5803 134.636 51.525 134.377 52.3823C134.291 52.7234 134.291 52.7234 134.636 52.7234C135.155 52.7234 135.759 52.7234 136.275 52.7234C136.534 52.7234 136.534 52.6377 136.534 52.3823C136.362 51.7822 136.19 51.267 136.016 50.6678C135.844 50.3232 135.671 49.8088 135.499 49.3802Z" fill="white"/>
<path d="M117.633 56.583C116.598 56.583 115.477 56.583 114.441 56.583C114.096 56.583 114.096 56.4973 114.01 56.1544C113.924 55.3829 114.269 54.6971 114.614 54.097C115.82 52.1254 116.942 50.1529 118.065 48.1821C118.065 48.0963 118.151 48.0106 118.151 47.9249C118.065 47.9249 117.979 47.9249 117.892 47.9249C116.684 47.9249 115.477 47.9249 114.269 47.9249C114.01 47.9249 113.924 47.8392 113.924 47.582C113.924 47.1534 113.924 46.8122 113.924 46.3836C113.924 46.1255 114.012 46.0407 114.269 46.0407C116.253 46.0407 118.237 46.0407 120.308 46.0407C120.998 46.0407 120.912 45.8701 120.998 46.7273C121.085 47.5846 120.567 48.0998 120.223 48.6998C119.1 50.5823 117.979 52.4683 116.857 54.4399C116.857 54.6979 116.857 54.7828 117.116 54.7828C118.324 54.7828 119.532 54.7828 120.826 54.7828C121.085 54.7828 121.257 54.8685 121.171 55.1257C121.171 55.4669 121.171 55.8955 121.171 56.2401C121.171 56.4973 121.085 56.5821 120.826 56.5821C119.79 56.583 118.669 56.583 117.633 56.583Z" fill="white"/>
</svg>
