<svg width="206" height="71" viewBox="0 0 206 71" fill="none" xmlns="http://www.w3.org/2000/svg">
<path d="M0.785156 0.311523H188.896C198.224 0.311523 205.785 7.87315 205.785 17.2009V70.3115H43.4586C33.2192 70.3115 24.0695 63.9174 20.5496 54.3021L0.785156 0.311523Z" fill="#0B0E15"/>
<path d="M93.2748 37.9129C93.2748 38.4524 93.2582 38.994 93.2814 39.5325C93.2947 39.8372 93.1709 40.0475 92.93 40.2217C90.7805 41.7775 87.811 41.7987 86.0019 40.724C84.2868 39.7024 83.6071 38.188 83.6436 36.3072C83.7066 33.0512 86.7335 31.1078 89.7152 31.4773C90.7717 31.609 91.7309 31.9011 92.5918 32.499C92.8792 32.6986 92.9444 32.9015 92.6769 33.1585C92.5885 33.2434 92.52 33.3475 92.4349 33.4346C92.1365 33.7372 91.9652 34.2172 91.542 34.3288C91.1298 34.4392 90.8435 33.9995 90.4844 33.8328C89.3008 33.2827 87.8994 33.4218 87.054 34.2003C86.0174 35.1539 85.7422 36.5961 86.3589 37.8428C86.907 38.9484 88.0232 39.5356 89.3704 39.4252C89.8124 39.3902 90.2401 39.3031 90.6424 39.1183C90.88 39.0078 91.0358 38.8666 91.0734 38.5852C91.1784 37.7887 91.0612 37.6464 90.2202 37.6283C88.5802 37.5922 88.8576 37.9098 88.8278 36.2148C88.8222 35.8644 88.8709 35.653 89.3262 35.6626C90.4578 35.687 91.5906 35.6817 92.7222 35.6679C93.1311 35.6626 93.2826 35.823 93.2715 36.2042C93.2538 36.7724 93.2671 37.3427 93.2671 37.9129H93.2748ZM107.484 37.8683C107.484 38.4089 107.468 38.9505 107.489 39.4889C107.502 39.8245 107.359 40.0412 107.09 40.2461C105.284 41.6193 102.334 41.8688 100.311 40.8037C98.322 39.7544 97.3207 37.3119 97.9849 35.1221C98.7375 32.6381 101.126 31.1587 103.838 31.4614C104.893 31.5793 105.856 31.8819 106.721 32.4767C107.055 32.706 107.098 32.9259 106.805 33.2062C106.715 33.2912 106.645 33.3932 106.562 33.4824C106.292 33.7733 106.074 34.1758 105.735 34.3245C105.332 34.5008 105.052 34.0123 104.697 33.8519C103.454 33.2944 101.876 33.373 100.932 34.5114C99.9609 35.6838 99.9564 37.3278 100.967 38.5023C101.77 39.4348 103.578 39.7321 104.788 39.131C105.186 38.9324 105.406 38.2007 105.188 37.8036C105.124 37.6857 105.019 37.6336 104.89 37.6273C104.702 37.6177 104.511 37.6336 104.325 37.6103C103.903 37.5593 103.319 37.8301 103.091 37.4489C102.836 37.0262 103.008 36.4527 103.015 35.943C103.018 35.7614 103.158 35.6838 103.33 35.6817C104.589 35.6753 105.847 35.6722 107.106 35.669C107.382 35.669 107.489 35.8145 107.487 36.0672C107.481 36.6683 107.486 37.2683 107.486 37.8683H107.484ZM157.329 31.5124C158.577 31.454 159.635 31.8012 160.615 32.3811C161.12 32.6795 161.127 32.7337 160.766 33.219C160.497 33.5822 160.329 34.111 159.905 34.2502C159.507 34.3787 159.155 33.8976 158.737 33.7776C158.378 33.6735 158.027 33.5386 157.662 33.4516C157.25 33.3528 156.842 33.4229 156.48 33.6257C155.904 33.9454 155.896 34.6176 156.486 34.9171C156.869 35.1114 157.304 35.2144 157.724 35.3376C158.504 35.5638 159.299 35.7444 160.022 36.1288C161.008 36.6545 161.403 37.4404 161.365 38.5066C161.328 39.5877 160.917 40.4436 159.901 40.9428C158.375 41.6947 156.801 41.5608 155.245 41.0118C154.656 40.8047 154.111 40.5021 153.612 40.1282C153.363 39.9434 153.313 39.765 153.56 39.541C153.695 39.4167 153.806 39.2691 153.932 39.1353C154.163 38.8921 154.354 38.5639 154.643 38.4344C155.014 38.2676 155.206 38.7222 155.496 38.8708C156.203 39.2319 156.932 39.4687 157.739 39.4602C158.027 39.4581 158.305 39.4231 158.562 39.2967C159.211 38.9781 159.253 38.3176 158.627 37.9586C158.085 37.6474 157.455 37.5381 156.859 37.3565C156.381 37.211 155.887 37.1048 155.425 36.9242C154.409 36.5302 153.806 35.8336 153.747 34.7451C153.682 33.5769 154.042 32.6179 155.14 31.9956C155.84 31.5995 156.601 31.4603 157.329 31.5124ZM70.7776 32.1697C71.5159 32.0221 72.2685 32.1347 73.0122 32.0954C73.3692 32.0752 73.4863 32.3492 73.6289 32.5744C74.1328 33.3698 74.6257 33.6608 75.1252 34.4594C75.2855 34.7143 75.4546 34.9659 75.6137 35.2081C75.9298 35.206 75.9762 34.9681 76.0812 34.8056C76.6591 33.9125 77.2449 33.0236 77.7897 32.1113C77.9997 31.7609 78.2306 31.5655 78.6705 31.5803C79.2927 31.6027 79.9171 31.5867 80.505 31.5867C80.6874 31.9021 80.4763 32.0497 80.3691 32.2112C79.3756 33.7043 78.3865 35.2017 77.3686 36.681C77.0283 37.177 76.8382 37.6729 76.8702 38.2761C76.9122 39.0535 76.889 39.8362 76.8802 40.6157C76.8724 41.272 76.8636 41.272 76.216 41.2964C74.5903 41.3601 74.4931 41.3527 74.6158 39.8489C74.7484 38.2305 74.2931 37.3862 73.2863 36.1023C72.4795 35.0721 71.8153 33.9401 71.0981 32.8473C70.9699 32.6487 70.7743 32.4735 70.7776 32.1697ZM173.93 36.3667C173.93 35.0169 173.924 33.6671 173.932 32.3174C173.935 31.6058 173.946 31.6058 174.637 31.5899C176.227 31.5517 176.227 31.5517 176.227 33.0884C176.229 34.9182 176.227 36.7469 176.234 38.5767C176.237 39.268 176.247 39.2765 176.944 39.2808C178.17 39.2871 179.396 39.2744 180.622 39.284C181.277 39.2893 181.293 39.301 181.29 39.9434C181.278 41.5704 181.471 41.2847 179.925 41.2964C178.164 41.3113 176.405 41.3038 174.645 41.2964C173.94 41.2943 173.927 41.2837 173.922 40.5934C173.913 39.1852 173.92 37.7749 173.92 36.3656H173.93V36.3667ZM168.575 36.4304C168.576 37.8121 168.582 39.1937 168.574 40.5743C168.571 41.2858 168.561 41.2858 167.871 41.3028C166.24 41.34 166.237 41.34 166.233 39.7534C166.229 37.3214 166.229 34.8895 166.231 32.4575C166.232 31.5995 166.238 31.5995 167.082 31.591C168.576 31.575 168.576 31.575 168.576 33.0087C168.575 34.1482 168.575 35.2898 168.575 36.4304ZM131.884 36.1044C132.447 35.9015 132.781 35.3727 132.735 34.8396C132.688 34.3001 132.359 33.9125 131.792 33.7362C131.309 33.5832 130.808 33.5663 130.308 33.5758C128.673 33.6034 128.934 33.3507 128.908 34.7928C128.908 35.2102 128.905 35.5384 128.909 35.8676C128.911 36.0545 128.947 36.2594 129.188 36.2541C130.09 36.2371 131.007 36.4219 131.884 36.1044ZM133.014 37.9278C133.8 39.0248 134.554 40.0783 135.428 41.3007C134.474 41.3007 133.735 41.2922 132.998 41.3049C132.685 41.3102 132.566 41.1053 132.424 40.9088C131.931 40.2121 131.438 39.5144 130.94 38.822C130.579 38.3197 129.673 38.068 129.129 38.3016C128.913 38.3951 128.911 38.5756 128.911 38.7519C128.906 39.4135 128.889 40.0741 128.918 40.7336C128.935 41.1594 128.784 41.34 128.324 41.3081C127.919 41.2805 127.506 41.2826 127.099 41.307C126.669 41.3336 126.568 41.1392 126.569 40.7718C126.577 37.8906 126.575 35.0074 126.571 32.1251C126.571 31.8342 126.581 31.574 127 31.5846C128.666 31.6281 130.339 31.4731 131.996 31.6717C133.733 31.8788 134.708 32.6614 135 34.0856C135.3 35.5617 134.774 36.9933 133.354 37.691C133.273 37.7313 133.203 37.7951 133.014 37.9278ZM119.385 36.7511C119.52 35.1847 118.525 33.9358 116.895 33.6533C116.527 33.5896 116.144 33.5822 115.769 33.5811C114.699 33.5769 114.729 33.4356 114.73 34.521C114.731 35.7221 114.724 36.9211 114.733 38.1222C114.743 39.421 114.556 39.2776 115.921 39.2861C116.11 39.2861 116.299 39.2925 116.487 39.284C118.133 39.2139 119.259 38.2283 119.385 36.7511ZM117.477 31.7057C121.384 32.3237 123.127 36.3964 120.754 39.4178C119.765 40.6773 118.336 41.1913 116.733 41.2911C116.107 41.3304 115.476 41.2975 114.846 41.2975V41.3017C114.248 41.3017 113.649 41.2837 113.052 41.307C112.632 41.323 112.422 41.2274 112.425 40.7665C112.439 37.8832 112.43 35.0021 112.425 32.1198C112.425 31.8267 112.446 31.5729 112.859 31.5878C114.399 31.6388 115.946 31.4646 117.477 31.7057ZM143.147 37.16H145.566C145.239 36.2106 144.877 35.3514 144.371 34.3457C143.936 35.3472 143.569 36.1904 143.147 37.16ZM149.482 40.5328C149.577 40.7484 149.743 40.9502 149.648 41.2964C149.02 41.2964 148.368 41.289 147.717 41.3007C147.394 41.3049 147.29 41.0946 147.193 40.8695C147.014 40.4521 146.828 40.0401 146.666 39.6174C146.539 39.2914 146.32 39.1555 145.952 39.1597C144.915 39.1725 143.876 39.1788 142.839 39.1555C142.418 39.1459 142.207 39.3264 142.07 39.6716C141.915 40.0656 141.723 40.4458 141.579 40.8419C141.462 41.17 141.273 41.3261 140.891 41.3081C140.328 41.2858 139.763 41.3017 139.158 41.3017C139.096 40.9449 139.259 40.69 139.375 40.4288C140.595 37.6974 141.828 34.9713 143.026 32.2303C143.25 31.7173 143.533 31.4922 144.137 31.5241C145.617 31.6048 145.351 31.2554 145.981 32.6646C147.15 35.2877 148.316 37.9098 149.482 40.5328Z" fill="white"/>
<path d="M46.3692 27.982C46.1683 27.4457 45.9731 26.9182 45.816 26.3792C45.6546 25.8257 45.5342 25.2642 45.4436 24.6975C45.3934 24.382 45.4008 24.3727 45.7225 24.267C46.3738 24.0537 47.0381 23.8862 47.7201 23.7879C48.0358 23.7425 48.0516 23.7522 48.0944 24.0567C48.2747 25.3392 48.6564 26.5652 49.237 27.737C49.3031 27.8696 49.3384 28.0855 49.4895 28.0926C49.6819 28.1014 49.7066 27.8722 49.7763 27.7339C50.3542 26.5753 50.7344 25.3612 50.9088 24.0907C50.9562 23.7478 50.9664 23.7394 51.3332 23.7906C52.0166 23.8862 52.6776 24.0678 53.3289 24.2771C53.626 24.3723 53.62 24.3842 53.5735 24.6874C53.4173 25.7023 53.1374 26.6872 52.7678 27.651C52.7265 27.7594 52.5995 27.8886 52.7237 27.9908C52.8218 28.0714 52.9463 27.967 53.0519 27.9256C54.1165 27.5091 55.0481 26.9049 55.8686 26.1456C55.9063 26.1104 55.9434 26.0751 55.9811 26.0403C56.2814 25.76 56.2805 25.7613 56.6157 26.0244C57.1145 26.4158 57.5933 26.8269 58.0117 27.2958C58.2228 27.5329 58.2204 27.5364 58.002 27.7519C56.4051 29.3256 54.4772 30.3591 52.2346 30.8773C52.1314 30.9011 52.0273 30.9192 51.9259 30.9478C51.6837 31.017 51.6665 31.0659 51.852 31.2444C52.4657 31.8336 53.143 32.351 53.8729 32.8075C54.1002 32.9499 54.1086 32.9442 54.3745 32.7106C55.4962 31.7234 56.7626 30.9386 58.1591 30.3419C58.5682 30.1669 58.9898 30.0171 59.411 29.8699C59.6969 29.7703 59.7448 29.7937 59.8629 30.0612C60.1265 30.6605 60.3524 31.2722 60.497 31.9077C60.5616 32.1932 60.5579 32.2073 60.2487 32.31C59.5728 32.5348 58.9234 32.8115 58.3032 33.1508C57.9025 33.3703 57.5162 33.6105 57.1438 33.8705C57.041 33.9423 56.876 34.0014 56.8932 34.1349C56.9141 34.3015 57.114 34.2896 57.2428 34.3279C58.1926 34.6109 59.1646 34.7885 60.1581 34.8603C60.9061 34.9145 60.761 34.892 60.7015 35.4896C60.6467 36.048 60.5309 36.5988 60.3626 37.1378C60.2734 37.4251 60.2645 37.4361 59.948 37.4141C58.8625 37.3396 57.7965 37.1567 56.7514 36.8681C54.1058 36.1374 51.8176 34.8418 49.867 33.0107C49.4857 32.6524 49.5559 32.6132 49.1464 33.0015C47.0758 34.9652 44.6161 36.2978 41.7724 36.9968C40.9133 37.2078 40.0389 37.3471 39.1537 37.4106C38.7455 37.4401 38.7511 37.4295 38.6363 37.0704C38.4522 36.4948 38.3606 35.9038 38.289 35.3094C38.2411 34.9132 38.2495 34.8999 38.6949 34.8709C39.6628 34.807 40.6125 34.6558 41.5423 34.394C41.7069 34.3478 41.8705 34.2971 42.0327 34.2433C42.1727 34.1966 42.1885 34.1093 42.0802 34.023C41.9291 33.9022 41.7705 33.789 41.6069 33.6832C40.7297 33.1169 39.7985 32.6485 38.7916 32.3184C38.4415 32.2034 38.4383 32.1985 38.521 31.868C38.673 31.2607 38.8678 30.6662 39.1379 30.0951C39.2881 29.7774 39.2936 29.769 39.6377 29.8809C40.7817 30.2533 41.8556 30.7592 42.8639 31.3898C43.505 31.7909 44.1015 32.2439 44.6714 32.7291C44.9243 32.9446 44.9238 32.9406 45.2051 32.7644C45.8564 32.355 46.4603 31.8918 47.0154 31.3713C47.0809 31.3096 47.1488 31.2497 47.2074 31.1827C47.3008 31.0761 47.2585 30.9994 47.133 30.9566C47.0586 30.9311 46.98 30.917 46.9029 30.9002C44.6231 30.4062 42.6706 29.3662 41.0397 27.7885C41.0026 27.7528 40.9663 27.7162 40.9291 27.681C40.8305 27.5876 40.812 27.4924 40.9114 27.3866C41.4312 26.8357 41.9876 26.3219 42.6041 25.8662C42.731 25.7724 42.8179 25.827 42.91 25.916C43.2238 26.2201 43.5487 26.5123 43.9025 26.7758C44.5715 27.2742 45.2981 27.677 46.0912 27.974C46.1614 28.0018 46.2339 28.0441 46.3692 27.982ZM49.4699 44.8512C49.1394 44.8512 48.808 44.864 48.4783 44.8472C48.1864 44.8322 48.145 44.7811 48.1441 44.5C48.1408 43.5538 48.132 42.6072 48.1483 41.661C48.1539 41.3556 48.0604 41.1177 47.8624 40.8775C46.7662 39.5519 45.6835 38.2162 44.5994 36.8817C44.3218 36.5406 44.3269 36.538 44.7495 36.3467C45.2981 36.0982 45.8359 35.8316 46.352 35.5262C46.7429 35.2957 46.7453 35.3001 47.0154 35.6319C47.7471 36.5309 48.4788 37.43 49.2115 38.3285C49.5043 38.6877 49.5122 38.6868 49.7963 38.3378C50.5438 37.4185 51.2918 36.4992 52.0403 35.5808C52.269 35.3001 52.2741 35.2966 52.5782 35.4768C53.1611 35.8223 53.7697 36.1229 54.3912 36.4005C54.6618 36.5208 54.6701 36.5596 54.4884 36.7835C53.3652 38.1686 52.2439 39.555 51.1087 40.9321C50.9348 41.1432 50.8581 41.3503 50.8609 41.6139C50.8716 42.5596 50.866 43.5066 50.8646 44.4524C50.8637 44.7939 50.852 44.8225 50.4997 44.845C50.158 44.8666 49.8126 44.8494 49.4695 44.8494L49.4699 44.8512Z" fill="#E6642B"/>
</svg>
