<svg width="206" height="71" viewBox="0 0 206 71" fill="none" xmlns="http://www.w3.org/2000/svg">
<path d="M0.785156 0.211914H188.896C198.224 0.211914 205.785 7.77354 205.785 17.1013V70.2119H43.4586C33.2192 70.2119 24.0695 63.8178 20.5496 54.2025L0.785156 0.211914Z" fill="#0B0E15"/>
<path d="M69.9868 52.8615C70.1457 52.8615 70.3045 52.7081 70.1457 52.5546C70.1457 52.4011 70.1457 52.2476 70.1457 52.2476C70.1457 52.0942 70.1457 51.9407 70.1457 51.7872C70.1457 51.6337 70.1457 51.4803 69.9868 51.4803C68.3984 50.7129 67.4453 49.3316 67.4453 47.7968C67.4453 46.7225 67.9218 45.6482 68.8749 44.7273C69.828 43.8065 71.0988 43.4995 72.5284 43.4995C73.6404 43.4995 74.5935 43.8065 75.3877 44.1134H75.5465L78.7235 43.4995C78.8824 43.4995 79.0412 43.653 79.0412 43.8065L79.2001 46.2621C79.2001 46.4156 79.0412 46.569 78.8824 46.569L77.7704 46.876C77.6116 46.876 77.4527 47.0295 77.4527 47.1829C77.4527 47.4899 77.4527 47.6434 77.4527 47.7968C77.4527 48.8712 76.9762 49.792 76.1819 50.7129C75.3877 51.4803 74.4346 51.9407 73.005 51.9407C72.8461 51.9407 72.6873 52.0942 72.6873 52.2476V52.4011C72.6873 52.5546 72.8461 52.7081 73.005 52.7081C74.5935 52.8615 75.8642 53.1685 76.8173 53.7824C77.9293 54.3963 78.4058 55.3172 78.4058 56.3915C78.4058 57.6193 77.9293 58.5401 76.6585 59.1541C75.5465 59.768 74.1169 60.0749 72.2107 60.0749C70.4634 60.0749 69.0337 59.768 67.763 59.1541C66.651 58.5401 66.0156 57.6193 66.0156 56.3915C66.4922 54.5498 67.763 53.322 69.9868 52.8615ZM72.5284 57.0054C74.2758 57.0054 75.07 56.6984 75.07 56.238C75.07 55.7776 74.2758 55.4706 72.5284 55.4706C70.7811 55.4706 69.9868 55.7776 69.9868 56.238C69.9868 56.6984 70.9399 57.0054 72.5284 57.0054ZM74.1169 47.7968C74.1169 47.0295 73.6404 46.569 72.5284 46.569C70.6222 46.4156 70.4634 49.1781 72.5284 49.0246C73.4815 49.0246 74.1169 48.5642 74.1169 47.7968Z" fill="white"/>
<path d="M81.1051 44.8806C81.1051 44.7272 81.1051 44.5737 81.264 44.5737C82.3759 44.1133 83.8055 43.6528 85.2352 43.6528C88.571 43.6528 90.0006 45.1876 90.0006 48.4106V54.7031C90.0006 54.8566 89.8418 55.01 89.6829 55.01H86.9825C86.8237 55.01 86.6648 54.8566 86.6648 54.7031C86.6648 54.3961 86.3471 54.3961 86.1883 54.3961C85.5529 54.8566 84.7586 55.01 83.6467 55.01C81.5817 55.01 79.9932 53.7822 79.9932 51.4801C79.9932 49.0245 81.7405 47.7967 84.1232 47.7967C84.7586 47.7967 85.394 47.9502 85.8706 48.1036C86.0294 48.2571 86.3471 48.1036 86.3471 47.7967C86.1883 46.8758 85.7117 46.4154 84.7586 46.4154C84.1232 46.4154 83.1701 46.5689 82.0582 47.0293C81.8993 47.0293 81.7405 47.0293 81.7405 46.8758L81.1051 44.8806ZM86.506 51.3266V50.8662C86.506 50.7127 86.506 50.7127 86.3471 50.5592C86.0294 50.4058 85.5529 50.2523 85.0763 50.2523C84.4409 50.2523 83.9644 50.5592 83.9644 51.1732C83.9644 51.6336 84.4409 51.9405 85.0763 51.9405C85.7117 51.9405 86.1883 51.7871 86.506 51.3266Z" fill="white"/>
<path d="M110.014 54.8564H106.837C106.678 54.8564 106.519 54.7029 106.519 54.5494V48.5639C106.519 47.4896 106.043 47.0291 105.089 47.0291C104.295 47.0291 103.66 47.3361 103.342 47.95V48.1035V54.5494C103.342 54.7029 103.183 54.8564 103.024 54.8564H99.8474C99.6886 54.8564 99.5297 54.7029 99.5297 54.5494V48.5639C99.5297 47.4896 99.0532 47.0291 98.2589 47.0291C97.4647 47.0291 96.9881 47.3361 96.5116 47.7965V47.95V54.5494C96.5116 54.7029 96.3527 54.8564 96.1939 54.8564H93.0169C92.8581 54.8564 92.6992 54.7029 92.6992 54.5494V43.9596C92.6992 43.8061 92.8581 43.6527 93.0169 43.6527H96.1939C96.3527 43.6527 96.5116 43.8061 96.5116 43.9596V44.1131C96.5116 44.42 96.8293 44.42 96.9881 44.42C97.7824 43.8061 98.7355 43.4992 99.8474 43.4992C101.277 43.4992 102.389 43.9596 102.866 44.727C103.024 44.8805 103.183 44.8805 103.342 44.727C104.295 43.8061 105.407 43.3457 106.678 43.3457C109.061 43.3457 110.331 44.727 110.331 47.3361V54.2425C110.331 54.7029 110.173 54.8564 110.014 54.8564Z" fill="white"/>
<path d="M122.882 53.7821C122.882 53.9355 122.882 54.089 122.723 54.089C121.611 54.8564 120.182 55.1633 118.434 55.1633C116.528 55.1633 115.098 54.7029 113.828 53.4751C112.716 52.4008 112.08 51.0195 112.08 49.1778C112.08 47.4896 112.557 46.1083 113.828 45.0339C114.94 43.9596 116.528 43.3457 118.434 43.3457C120.023 43.3457 121.294 43.8061 122.405 44.8805C123.517 45.8013 123.994 47.1826 123.994 48.5639C123.994 49.1778 123.994 49.7917 123.835 50.2521C123.835 50.4056 123.676 50.5591 123.517 50.5591H116.687C116.369 50.5591 116.369 50.866 116.369 51.0195C116.846 51.7869 117.64 52.0938 118.911 52.0938C120.023 52.0938 120.817 51.7869 121.611 51.4799C121.77 51.3264 121.929 51.4799 121.929 51.6334L122.882 53.7821ZM116.528 48.1035H119.864C120.023 48.1035 120.182 47.95 120.182 47.7965C120.023 47.1826 119.387 46.5687 118.434 46.5687C117.481 46.5687 116.687 46.8756 116.369 47.643C116.21 47.7965 116.369 48.1035 116.528 48.1035Z" fill="white"/>
<path d="M129.553 50.7129C127.806 50.4059 125.582 49.6385 125.582 47.1829C125.582 44.8808 127.488 43.4995 130.03 43.4995C131.936 43.4995 133.524 43.9599 134.636 44.8808C134.795 45.0343 134.795 45.1877 134.795 45.1877L133.683 47.3364C133.524 47.4899 133.366 47.6434 133.207 47.4899C132.254 46.876 131.301 46.569 130.347 46.569C129.871 46.569 129.394 46.876 129.394 47.0295C129.394 48.1038 135.431 47.4899 135.431 51.4803C135.431 53.7824 133.524 55.1637 130.506 55.1637C129.394 55.1637 128.282 54.8567 127.329 54.5498C126.376 54.0894 125.9 53.7824 125.582 53.322C125.423 53.1685 125.423 53.015 125.582 53.015L127.012 51.0198C127.171 50.8664 127.329 50.8664 127.488 51.0198C127.806 51.3268 128.282 51.4803 128.918 51.7872C129.712 52.0942 130.347 52.2476 130.824 52.2476C131.459 52.2476 131.777 52.0942 131.777 51.7872C131.618 51.1733 130.665 50.8664 129.553 50.7129Z" fill="white"/>
<path d="M69.194 20.0176L69.0351 20.9385C68.8763 22.1663 69.8294 23.2406 71.1002 23.2406H83.6492L69.194 27.8449C68.3998 28.1518 67.9232 28.7657 67.7644 29.5331L67.129 33.2165L66.8113 34.7513C66.6524 35.9791 67.6055 37.0534 68.8763 37.0534H82.6961C83.8081 37.0534 84.6023 36.2861 84.7612 35.3652L84.92 34.4443C85.0789 33.2165 84.1258 32.1422 82.855 32.1422H71.259L84.92 27.8449C85.7143 27.5379 86.1908 26.924 86.3497 26.1567L86.985 22.4732L87.3027 20.785C87.3027 19.4037 86.1908 18.3294 84.92 18.3294H71.1002C70.1471 18.3294 69.194 19.0968 69.194 20.0176ZM89.5266 20.0176L87.3027 34.5978C87.1439 35.8256 88.097 36.9 89.3678 36.9H90.3209C91.4328 36.9 92.2271 36.1326 92.3859 35.2117L94.6098 20.6315C94.7686 19.4037 93.8155 18.3294 92.5448 18.3294H91.5917C90.4797 18.3294 89.6855 19.0968 89.5266 20.0176ZM93.339 12.3438H92.3859C91.274 12.3438 90.4797 13.1112 90.3209 14.0321C90.162 15.2599 91.1151 16.3342 92.3859 16.3342H93.339C94.4509 16.3342 95.2452 15.5668 95.404 14.646C95.5629 13.5716 94.6098 12.3438 93.339 12.3438ZM115.419 12.3438H114.466C113.354 12.3438 112.56 13.1112 112.401 14.0321C112.242 15.2599 113.195 16.3342 114.466 16.3342H115.419C116.531 16.3342 117.325 15.5668 117.484 14.646C117.802 13.5716 116.69 12.3438 115.419 12.3438ZM111.289 36.9H112.242C113.354 36.9 114.148 36.1326 114.307 35.2117L116.531 20.6315C116.849 19.4037 115.896 18.3294 114.466 18.3294H113.513C112.401 18.3294 111.607 19.0968 111.448 20.0176L109.224 34.5978C109.065 35.8256 110.177 36.9 111.289 36.9ZM119.708 20.0176L117.484 34.5978C117.325 35.8256 118.278 36.9 119.549 36.9H134.64C135.752 36.9 136.546 36.1326 136.705 35.2117L138.929 20.6315C139.246 19.4037 138.134 18.3294 136.864 18.3294H121.773C120.82 18.3294 119.867 19.0968 119.708 20.0176ZM131.78 31.9887H123.203C123.044 31.9887 122.885 31.8353 122.885 31.6818L124.156 23.3941C124.156 23.2406 124.314 23.2406 124.473 23.2406H133.051C133.21 23.2406 133.369 23.3941 133.369 23.5476L132.098 31.8353C132.098 31.9887 131.939 31.9887 131.78 31.9887ZM98.1045 12.0369L94.6098 34.5978C94.4509 35.8256 95.404 36.9 96.6748 36.9H97.6279C98.7398 36.9 99.5341 36.1326 99.6929 35.2117L103.188 12.6508C103.346 11.423 102.393 10.3486 101.123 10.3486H100.169C99.2164 10.3486 98.2633 11.116 98.1045 12.0369ZM105.411 12.0369L101.917 34.5978C101.758 35.8256 102.711 36.9 103.982 36.9H104.935C106.047 36.9 106.841 36.1326 107 35.2117L110.495 12.6508C110.653 11.423 109.7 10.3486 108.43 10.3486H107.477C106.365 10.3486 105.57 11.116 105.411 12.0369ZM156.72 20.0176L154.496 33.8304L151.795 19.8641C151.478 18.9433 150.683 18.3294 149.73 18.3294H143.694C142.582 18.3294 141.788 19.0968 141.629 20.0176L139.405 34.7513C139.246 35.9791 140.199 37.0534 141.47 37.0534H142.741C143.853 37.0534 144.647 36.2861 144.806 35.3652L146.871 22.4732L149.571 35.5187C149.73 36.4395 150.683 37.2069 151.636 37.2069H157.99C159.102 37.2069 159.897 36.4395 160.055 35.5187L162.12 20.6315C162.438 19.4037 161.326 18.3294 160.055 18.3294H158.785C157.832 18.3294 156.878 19.0968 156.72 20.0176Z" fill="#EF7D0F"/>
</svg>
