<svg xmlns="http://www.w3.org/2000/svg" width="152" height="32" fill="none"><path fill="#fff" fill-rule="evenodd" d="M46.337 9.528c1.283 0 2.39.228 3.32.678a6.682 6.682 0 0 1 2.328 1.834c.61.773 1.065 1.677 1.359 2.712.291 1.038.438 2.154.438 3.35 0 1.834-.337 3.568-1.02 5.203-.68 1.636-1.606 3.056-2.782 4.267a13.07 13.07 0 0 1-4.163 2.867c-1.598.706-3.335 1.057-5.2 1.057-.241 0-.665-.006-1.264-.02a18.302 18.302 0 0 1-2.06-.177 24.134 24.134 0 0 1-2.463-.48 12.382 12.382 0 0 1-2.463-.877L39.292.958 45.495 0l-2.48 10.285a9.622 9.622 0 0 1 1.6-.557c.537-.13 1.109-.2 1.722-.2Zm-5.202 17.065c.934 0 1.813-.228 2.64-.678a6.917 6.917 0 0 0 2.145-1.813 9.133 9.133 0 0 0 1.42-2.573c.346-.956.52-1.954.52-2.992 0-1.275-.213-2.27-.64-2.99-.427-.716-1.215-1.076-2.362-1.076-.376 0-.86.071-1.46.198a3.675 3.675 0 0 0-1.624.84l-2.64 10.924c.16.026.3.054.42.079.118.026.247.046.377.06.137.015.293.022.482.022h.722ZM60.214 30.945h-5.925l5.003-20.97h5.966l-5.044 20.97Zm2.874-23.527a3.691 3.691 0 0 1-2.242-.736c-.67-.488-1.003-1.24-1.003-2.254 0-.557.114-1.08.34-1.573.227-.492.527-.918.902-1.277a4.45 4.45 0 0 1 1.3-.859 3.982 3.982 0 0 1 1.583-.317c.826 0 1.572.246 2.24.737.665.493 1 1.245 1 2.252 0 .56-.113 1.085-.341 1.578a4.17 4.17 0 0 1-2.2 2.132 3.916 3.916 0 0 1-1.579.317ZM70.448 4.75l6.205-.957-1.524 6.18h6.645l-1.2 4.863h-6.606l-1.76 7.336a8.267 8.267 0 0 0-.279 1.712c-.029.534.039.991.199 1.376.159.386.446.684.86.895.414.214 1.006.321 1.78.321.64 0 1.262-.06 1.864-.18a13.075 13.075 0 0 0 1.819-.499l.442 4.548c-.8.292-1.668.544-2.602.756-.935.213-2.043.317-3.323.317-1.84 0-3.268-.27-4.284-.813-1.015-.547-1.733-1.292-2.163-2.236-.424-.94-.612-2.026-.559-3.247.055-1.225.24-2.513.56-3.869l3.925-16.502ZM81.516 22.573c0-1.807.293-3.51.88-5.105a12.537 12.537 0 0 1 2.525-4.19c1.091-1.192 2.42-2.136 3.983-2.828 1.557-.69 3.3-1.038 5.221-1.038 1.202 0 2.276.112 3.221.34.95.228 1.808.525 2.584.896l-2.043 4.628a19.542 19.542 0 0 0-1.66-.579c-.574-.175-1.274-.26-2.1-.26-1.978 0-3.541.679-4.705 2.031-1.158 1.355-1.742 3.178-1.742 5.465 0 1.356.293 2.45.882 3.29.586.837 1.669 1.254 3.241 1.254a11.002 11.002 0 0 0 4.164-.836l.442 4.743c-.749.29-1.575.553-2.482.781-.908.222-1.99.335-3.244.335-1.654 0-3.056-.24-4.202-.716-1.146-.482-2.094-1.123-2.84-1.935a7.283 7.283 0 0 1-1.622-2.853 11.591 11.591 0 0 1-.503-3.423ZM107.814 31.493c-1.415 0-2.642-.214-3.684-.638-1.039-.425-1.899-1.021-2.58-1.794-.681-.769-1.192-1.68-1.541-2.73-.35-1.049-.517-2.211-.517-3.484 0-1.598.258-3.195.778-4.788a13.53 13.53 0 0 1 2.304-4.304 12.28 12.28 0 0 1 3.721-3.135c1.463-.807 3.149-1.214 5.041-1.214 1.387 0 2.61.215 3.666.64 1.05.425 1.916 1.024 2.601 1.793a7.785 7.785 0 0 1 1.538 2.732c.349 1.047.52 2.213.52 3.487 0 1.593-.254 3.19-.758 4.788a13.794 13.794 0 0 1-2.242 4.303c-.986 1.275-2.22 2.318-3.701 3.129-1.482.81-3.199 1.215-5.146 1.215Zm2.957-17.058c-.878 0-1.654.254-2.319.756a6.514 6.514 0 0 0-1.68 1.914 9.431 9.431 0 0 0-1.024 2.531 10.92 10.92 0 0 0-.338 2.611c0 1.33.216 2.366.639 3.113.43.741 1.201 1.114 2.322 1.114.882 0 1.654-.252 2.323-.759a6.544 6.544 0 0 0 1.68-1.912 9.482 9.482 0 0 0 1.024-2.531c.224-.916.338-1.788.338-2.611 0-1.328-.215-2.365-.642-3.11-.427-.744-1.202-1.116-2.323-1.116ZM126.14 30.945h-5.929l5.003-20.97h5.969l-5.043 20.97Zm2.868-23.527a3.688 3.688 0 0 1-2.24-.736c-.668-.488-1.003-1.24-1.003-2.254 0-.557.115-1.08.341-1.573.226-.492.527-.918.902-1.277a4.434 4.434 0 0 1 1.3-.859 3.96 3.96 0 0 1 1.58-.317 3.69 3.69 0 0 1 2.243.737c.667.493 1.003 1.245 1.003 2.252 0 .56-.12 1.085-.344 1.578a4.139 4.139 0 0 1-.898 1.277 4.403 4.403 0 0 1-1.298.855 3.941 3.941 0 0 1-1.586.317ZM135.438 10.925c.45-.131.952-.289 1.499-.46.548-.171 1.16-.33 1.844-.475.677-.147 1.44-.266 2.28-.36a25.87 25.87 0 0 1 2.861-.142c3.123 0 5.278.906 6.467 2.714 1.187 1.807 1.394 4.28.622 7.414l-2.724 11.323h-5.963l2.641-11.084c.16-.692.287-1.362.38-2.016.095-.646.089-1.217-.021-1.712a2.038 2.038 0 0 0-.737-1.197c-.391-.306-.982-.458-1.784-.458-.772 0-1.558.083-2.36.242l-3.884 16.225h-5.965l4.844-20.014Z" clip-rule="evenodd"/><path fill="#F7931A" fill-rule="evenodd" d="M15.81 31.496c8.73 0 15.808-7.05 15.808-15.747S24.54.002 15.81.002C7.078.002 0 7.052 0 15.749s7.078 15.747 15.81 15.747Zm6.97-17.991c.314-2.097-1.288-3.223-3.478-3.975l.71-2.84-1.734-.432-.692 2.766a67.16 67.16 0 0 0-1.391-.326l.697-2.783-1.734-.432-.712 2.84c-.377-.086-.748-.17-1.108-.26l.002-.009-2.393-.595-.461 1.846s1.287.294 1.26.313c.703.175.83.637.809 1.005l-.81 3.234c.048.012.11.029.18.058-.057-.016-.119-.03-.183-.046l-1.135 4.533c-.086.211-.304.53-.795.41.017.024-1.262-.314-1.262-.314l-.862 1.98 2.258.56c.42.104.832.214 1.237.317l-.718 2.872 1.733.432.711-2.842c.474.127.933.246 1.383.358l-.708 2.827 1.734.432.719-2.867c2.96.558 5.184.333 6.12-2.333.755-2.147-.037-3.385-1.594-4.192 1.135-.26 1.989-1.003 2.217-2.537Zm-3.954 5.534c-.537 2.146-4.165.985-5.34.694l.952-3.804c1.176.292 4.948.871 4.388 3.11Zm.522-5.567c-.49 1.952-3.509.96-4.488.718l.863-3.452c.98.245 4.134.698 3.625 2.734Z" clip-rule="evenodd"/></svg>