<svg width="87" height="33" viewBox="0 0 87 33" fill="none" xmlns="http://www.w3.org/2000/svg">
<path d="M23.7202 3.21191H1.33813C0.599102 3.21191 0 3.81809 0 4.56584V18.1049C0 18.8526 0.599102 19.4588 1.33813 19.4588H23.7202C24.4592 19.4588 25.0584 18.8526 25.0584 18.1049V4.56584C25.0584 3.81809 24.4592 3.21191 23.7202 3.21191Z" fill="#DFC228"/>
<path fill-rule="evenodd" clip-rule="evenodd" d="M3.9607 11.2149H2.79688V10.2666H3.9607V11.2149Z" fill="white"/>
<path fill-rule="evenodd" clip-rule="evenodd" d="M4.02344 9.23828H6.347C6.66244 9.23828 6.92056 9.48938 6.92056 9.7961V10.1977H5.68786V13.2546H4.02344V9.23828V9.23828Z" fill="white"/>
<path fill-rule="evenodd" clip-rule="evenodd" d="M3.9607 13.2573H3.37044C3.05499 13.2573 2.79688 13.0063 2.79688 12.6995V12.2979H3.9607V13.2573V13.2573Z" fill="white"/>
<path fill-rule="evenodd" clip-rule="evenodd" d="M3.37044 9.23828H3.9607V10.1977H2.79688V9.7961C2.79688 9.48931 3.05499 9.23828 3.37044 9.23828V9.23828Z" fill="white"/>
<path fill-rule="evenodd" clip-rule="evenodd" d="M3.9607 12.2306H2.79688V11.2822H3.9607V12.2306Z" fill="white"/>
<path fill-rule="evenodd" clip-rule="evenodd" d="M6.92171 11.2149H5.75781V10.2666H6.92171V11.2149Z" fill="white"/>
<path fill-rule="evenodd" clip-rule="evenodd" d="M6.92171 12.2306H5.75781V11.2822H6.92171V12.2306Z" fill="white"/>
<path fill-rule="evenodd" clip-rule="evenodd" d="M5.75781 13.2573H6.34814C6.66352 13.2573 6.92171 13.0063 6.92171 12.6995V12.2979H5.75788V13.2573H5.75781Z" fill="white"/>
<path d="M1.86024 16.4714C1.70396 16.4714 1.58536 16.4314 1.50451 16.3524C1.42324 16.273 1.38281 16.1622 1.38281 16.0201V15.2979C1.38281 15.1554 1.42366 15.0443 1.50493 14.9652C1.58621 14.8862 1.70481 14.8467 1.86024 14.8467C2.01695 14.8467 2.13548 14.8862 2.2164 14.9649C2.29725 15.0436 2.33775 15.1548 2.33775 15.2979V16.0202C2.33775 16.163 2.29725 16.2738 2.21605 16.3528C2.13477 16.4318 2.01617 16.4714 1.86031 16.4714H1.86024ZM1.86024 16.2596C1.94314 16.2596 2.00434 16.2387 2.04399 16.1977C2.08322 16.1566 2.10287 16.0974 2.10287 16.0202V15.2979C2.10287 15.2207 2.08364 15.1618 2.04441 15.1205C2.00518 15.0794 1.94384 15.0589 1.86024 15.0589C1.77658 15.0589 1.71537 15.0794 1.6765 15.1205C1.63727 15.1618 1.61762 15.2207 1.61762 15.2979V16.0202C1.61762 16.0974 1.6372 16.1567 1.67685 16.1977C1.7165 16.2387 1.77735 16.2596 1.86024 16.2596ZM3.11393 16.4714C2.95765 16.4714 2.83905 16.4314 2.7582 16.3524C2.67693 16.273 2.6365 16.1622 2.6365 16.0201V15.2979C2.6365 15.1554 2.67735 15.0443 2.75862 14.9652C2.8399 14.8862 2.9585 14.8467 3.11393 14.8467C3.27056 14.8467 3.38917 14.8862 3.47002 14.9649C3.55094 15.0436 3.59136 15.1548 3.59136 15.2979V16.0202C3.59136 16.163 3.55094 16.2738 3.46966 16.3528C3.38839 16.4318 3.26979 16.4714 3.11393 16.4714V16.4714ZM3.11393 16.2596C3.19676 16.2596 3.25803 16.2387 3.29768 16.1977C3.33691 16.1566 3.35656 16.0974 3.35656 16.0202V15.2979C3.35656 15.2207 3.33733 15.1618 3.2981 15.1205C3.25887 15.0794 3.1976 15.0589 3.114 15.0589C3.03033 15.0589 2.96913 15.0794 2.93026 15.1205C2.89103 15.1618 2.87138 15.2207 2.87138 15.2979V16.0202C2.87138 16.0974 2.89096 16.1567 2.93061 16.1977C2.97026 16.2387 3.03111 16.2596 3.114 16.2596H3.11393ZM4.36755 16.4714C4.21127 16.4714 4.09267 16.4314 4.01182 16.3524C3.93055 16.273 3.89012 16.1622 3.89012 16.0201V15.2979C3.89012 15.1554 3.93097 15.0443 4.01224 14.9652C4.09352 14.8862 4.21212 14.8467 4.36755 14.8467C4.52425 14.8467 4.64278 14.8862 4.72371 14.9649C4.80463 15.0436 4.84505 15.1548 4.84505 15.2979V16.0202C4.84505 16.163 4.80463 16.2738 4.72335 16.3528C4.64208 16.4318 4.52348 16.4714 4.36762 16.4714H4.36755ZM4.36755 16.2596C4.45044 16.2596 4.51165 16.2387 4.5513 16.1977C4.59053 16.1566 4.61018 16.0974 4.61018 16.0202V15.2979C4.61018 15.2207 4.59095 15.1618 4.55172 15.1205C4.51249 15.0794 4.45115 15.0589 4.36755 15.0589C4.28395 15.0589 4.22268 15.0794 4.1838 15.1205C4.14458 15.1618 4.12493 15.2207 4.12493 15.2979V16.0202C4.12493 16.0974 4.14451 16.1567 4.18423 16.1977C4.22388 16.2387 4.28473 16.2596 4.36755 16.2596ZM5.62124 16.4714C5.46496 16.4714 5.34636 16.4314 5.26551 16.3524C5.18423 16.273 5.14381 16.1622 5.14381 16.0201V15.2979C5.14381 15.1554 5.18466 15.0443 5.26593 14.9652C5.3472 14.8862 5.4658 14.8467 5.62124 14.8467C5.77794 14.8467 5.89647 14.8862 5.97732 14.9649C6.05825 15.0436 6.09867 15.1548 6.09867 15.2979V16.0202C6.09867 16.163 6.05817 16.2738 5.97697 16.3528C5.8957 16.4318 5.7771 16.4714 5.62124 16.4714V16.4714ZM5.62124 16.2596C5.70413 16.2596 5.76534 16.2387 5.80499 16.1977C5.84421 16.1566 5.86379 16.0974 5.86379 16.0202V15.2979C5.86379 15.2207 5.84464 15.1618 5.80534 15.1205C5.76611 15.0794 5.70477 15.0589 5.62117 15.0589C5.53757 15.0589 5.4763 15.0794 5.43742 15.1205C5.39819 15.1618 5.37862 15.2207 5.37862 15.2979V16.0202C5.37862 16.0974 5.39819 16.1567 5.43792 16.1977C5.47757 16.2387 5.53835 16.2596 5.62124 16.2596Z" fill="white"/>
<path d="M7.71181 16.4714C7.55553 16.4714 7.43693 16.4314 7.35607 16.3524C7.2748 16.273 7.23438 16.1622 7.23438 16.0201V15.2979C7.23438 15.1554 7.27522 15.0443 7.3565 14.9652C7.43777 14.8862 7.55637 14.8467 7.71188 14.8467C7.86851 14.8467 7.98711 14.8862 8.06796 14.9649C8.14888 15.0436 8.18931 15.1548 8.18931 15.2979V16.0202C8.18931 16.163 8.14888 16.2738 8.06761 16.3528C7.98634 16.4318 7.86773 16.4714 7.71188 16.4714H7.71181ZM7.71181 16.2596C7.79463 16.2596 7.8559 16.2387 7.89555 16.1977C7.93478 16.1566 7.95443 16.0974 7.95443 16.0202V15.2979C7.95443 15.2207 7.9352 15.1618 7.89598 15.1205C7.85675 15.0794 7.79548 15.0589 7.71188 15.0589C7.62828 15.0589 7.56701 15.0794 7.52813 15.1205C7.4889 15.1618 7.46925 15.2207 7.46925 15.2979V16.0202C7.46925 16.0974 7.48883 16.1567 7.52855 16.1977C7.5682 16.2387 7.62905 16.2596 7.71195 16.2596H7.71181ZM8.96542 16.4714C8.80915 16.4714 8.69061 16.4314 8.60969 16.3524C8.52842 16.273 8.48799 16.1622 8.48799 16.0201V15.2979C8.48799 15.1554 8.52884 15.0443 8.61012 14.9652C8.69139 14.8862 8.80999 14.8467 8.96542 14.8467C9.12213 14.8467 9.24066 14.8862 9.32158 14.9649C9.40243 15.0436 9.44293 15.1548 9.44293 15.2979V16.0202C9.44293 16.163 9.40243 16.2738 9.32123 16.3528C9.23995 16.4318 9.12135 16.4714 8.9655 16.4714H8.96542ZM8.96542 16.2596C9.04832 16.2596 9.10952 16.2387 9.14917 16.1977C9.1884 16.1566 9.20805 16.0974 9.20805 16.0202V15.2979C9.20805 15.2207 9.18882 15.1618 9.14959 15.1205C9.11037 15.0794 9.04902 15.0589 8.96542 15.0589C8.88183 15.0589 8.82055 15.0794 8.78168 15.1205C8.74245 15.1618 8.7228 15.2207 8.7228 15.2979V16.0202C8.7228 16.0974 8.74238 16.1567 8.7821 16.1977C8.82175 16.2387 8.8826 16.2596 8.96542 16.2596ZM10.2191 16.4714C10.0628 16.4714 9.94423 16.4314 9.86338 16.3524C9.78218 16.273 9.74168 16.1622 9.74168 16.0201V15.2979C9.74168 15.1554 9.78253 15.0443 9.8638 14.9652C9.94508 14.8862 10.0637 14.8467 10.2191 14.8467C10.3757 14.8467 10.4943 14.8862 10.5752 14.9649C10.6561 15.0436 10.6965 15.1548 10.6965 15.2979V16.0202C10.6965 16.163 10.656 16.2738 10.5748 16.3528C10.4936 16.4318 10.375 16.4714 10.2191 16.4714ZM10.2191 16.2596C10.3019 16.2596 10.3632 16.2387 10.4029 16.1977C10.4421 16.1566 10.4617 16.0974 10.4617 16.0202V15.2979C10.4617 15.2207 10.4425 15.1618 10.4033 15.1205C10.3641 15.0794 10.3028 15.0589 10.2191 15.0589C10.1355 15.0589 10.0742 15.0794 10.0354 15.1205C9.99614 15.1618 9.97649 15.2207 9.97649 15.2979V16.0202C9.97649 16.0974 9.99607 16.1567 10.0358 16.1977C10.0754 16.2387 10.1363 16.2596 10.2192 16.2596H10.2191ZM11.4727 16.4714C11.3165 16.4714 11.1979 16.4314 11.117 16.3524C11.0357 16.273 10.9953 16.1622 10.9953 16.0201V15.2979C10.9953 15.1554 11.0361 15.0443 11.1174 14.9652C11.1987 14.8862 11.3173 14.8467 11.4727 14.8467C11.6294 14.8467 11.748 14.8862 11.8289 14.9649C11.9098 15.0436 11.9502 15.1548 11.9502 15.2979V16.0202C11.9502 16.163 11.9098 16.2738 11.8285 16.3528C11.7473 16.4318 11.6287 16.4714 11.4728 16.4714H11.4727ZM11.4727 16.2596C11.5556 16.2596 11.6168 16.2387 11.6565 16.1977C11.6957 16.1566 11.7154 16.0974 11.7154 16.0202V15.2979C11.7154 15.2207 11.6961 15.1618 11.6568 15.1205C11.6176 15.0794 11.5563 15.0589 11.4727 15.0589C11.3891 15.0589 11.3278 15.0794 11.2889 15.1205C11.2497 15.1618 11.23 15.2207 11.23 15.2979V16.0202C11.23 16.0974 11.2496 16.1567 11.2893 16.1977C11.329 16.2387 11.3898 16.2596 11.4727 16.2596H11.4727Z" fill="white"/>
<path d="M13.5712 16.4714C13.4149 16.4714 13.2964 16.4314 13.2154 16.3524C13.1342 16.273 13.0938 16.1622 13.0938 16.0201V15.2979C13.0938 15.1554 13.1346 15.0443 13.2159 14.9652C13.2971 14.8862 13.4157 14.8467 13.5712 14.8467C13.7279 14.8467 13.8464 14.8862 13.9273 14.9649C14.0082 15.0436 14.0487 15.1548 14.0487 15.2979V16.0202C14.0487 16.163 14.0082 16.2738 13.927 16.3528C13.8457 16.4318 13.7271 16.4714 13.5713 16.4714H13.5712ZM13.5712 16.2596C13.6541 16.2596 13.7153 16.2387 13.7549 16.1977C13.7942 16.1566 13.8137 16.0974 13.8137 16.0202V15.2979C13.8137 15.2207 13.7946 15.1618 13.7553 15.1205C13.7161 15.0794 13.6548 15.0589 13.5711 15.0589C13.4875 15.0589 13.4262 15.0794 13.3874 15.1205C13.3481 15.1618 13.3286 15.2207 13.3286 15.2979V16.0202C13.3286 16.0974 13.3481 16.1567 13.3879 16.1977C13.4275 16.2387 13.4883 16.2596 13.5712 16.2596ZM14.8249 16.4714C14.6686 16.4714 14.55 16.4314 14.4691 16.3524C14.3879 16.273 14.3474 16.1622 14.3474 16.0201V15.2979C14.3474 15.1554 14.3883 15.0443 14.4696 14.9652C14.5508 14.8862 14.6694 14.8467 14.8249 14.8467C14.9816 14.8467 15.1002 14.8862 15.181 14.9649C15.2619 15.0436 15.3024 15.1548 15.3024 15.2979V16.0202C15.3024 16.163 15.2619 16.2738 15.1807 16.3528C15.0994 16.4318 14.9808 16.4714 14.8249 16.4714H14.8249ZM14.8249 16.2596C14.9077 16.2596 14.969 16.2387 15.0086 16.1977C15.0478 16.1566 15.0675 16.0974 15.0675 16.0202V15.2979C15.0675 15.2207 15.0483 15.1618 15.009 15.1205C14.9697 15.0794 14.9085 15.0589 14.8249 15.0589C14.7413 15.0589 14.68 15.0794 14.6411 15.1205C14.6019 15.1618 14.5822 15.2207 14.5822 15.2979V16.0202C14.5822 16.0974 14.6018 16.1567 14.6415 16.1977C14.6812 16.2387 14.742 16.2596 14.8249 16.2596H14.8249ZM16.0785 16.4714C15.9223 16.4714 15.8037 16.4314 15.7228 16.3524C15.6415 16.273 15.6011 16.1622 15.6011 16.0201V15.2979C15.6011 15.1554 15.6419 15.0443 15.7232 14.9652C15.8045 14.8862 15.9231 14.8467 16.0785 14.8467C16.2352 14.8467 16.3537 14.8862 16.4346 14.9649C16.5156 15.0436 16.556 15.1548 16.556 15.2979V16.0202C16.556 16.163 16.5156 16.2738 16.4343 16.3528C16.353 16.4318 16.2344 16.4714 16.0786 16.4714H16.0785ZM16.0785 16.2596C16.1614 16.2596 16.2226 16.2387 16.2622 16.1977C16.3015 16.1566 16.3211 16.0974 16.3211 16.0202V15.2979C16.3211 15.2207 16.3019 15.1618 16.2626 15.1205C16.2234 15.0794 16.1621 15.0589 16.0784 15.0589C15.9948 15.0589 15.9335 15.0794 15.8947 15.1205C15.8554 15.1618 15.8358 15.2207 15.8358 15.2979V16.0202C15.8358 16.0974 15.8554 16.1567 15.8951 16.1977C15.9347 16.2387 15.9956 16.2596 16.0784 16.2596H16.0785ZM17.3322 16.4714C17.1759 16.4714 17.0573 16.4314 16.9764 16.3524C16.8952 16.273 16.8547 16.1622 16.8547 16.0201V15.2979C16.8547 15.1554 16.8955 15.0443 16.9768 14.9652C17.0581 14.8862 17.1767 14.8467 17.3321 14.8467C17.4887 14.8467 17.6073 14.8862 17.6882 14.9649C17.7691 15.0436 17.8095 15.1548 17.8095 15.2979V16.0202C17.8095 16.163 17.769 16.2738 17.6878 16.3528C17.6066 16.4318 17.488 16.4714 17.3321 16.4714H17.3322ZM17.3322 16.2596C17.415 16.2596 17.4763 16.2387 17.5159 16.1977C17.5552 16.1566 17.5748 16.0974 17.5748 16.0202V15.2979C17.5748 15.2207 17.5556 15.1618 17.5163 15.1205C17.4771 15.0794 17.4158 15.0589 17.3322 15.0589C17.2486 15.0589 17.1873 15.0794 17.1484 15.1205C17.1092 15.1618 17.0896 15.2207 17.0896 15.2979V16.0202C17.0896 16.0974 17.1091 16.1567 17.1489 16.1977C17.1885 16.2387 17.2494 16.2596 17.3322 16.2596H17.3322Z" fill="white"/>
<path d="M19.4149 16.4714C19.2587 16.4714 19.1401 16.4314 19.0592 16.3524C18.9779 16.273 18.9375 16.1622 18.9375 16.0201V15.2979C18.9375 15.1554 18.9783 15.0443 19.0596 14.9652C19.1409 14.8862 19.2595 14.8467 19.4149 14.8467C19.5716 14.8467 19.6902 14.8862 19.7711 14.9649C19.852 15.0436 19.8924 15.1548 19.8924 15.2979V16.0202C19.8924 16.163 19.852 16.2738 19.7707 16.3528C19.6895 16.4318 19.5709 16.4714 19.415 16.4714H19.4149ZM19.4149 16.2596C19.4978 16.2596 19.559 16.2387 19.5987 16.1977C19.6379 16.1566 19.6576 16.0974 19.6576 16.0202V15.2979C19.6576 15.2207 19.6383 15.1618 19.599 15.1205C19.5598 15.0794 19.4985 15.0589 19.4149 15.0589C19.3313 15.0589 19.27 15.0794 19.2311 15.1205C19.1919 15.1618 19.1722 15.2207 19.1722 15.2979V16.0202C19.1722 16.0974 19.1918 16.1567 19.2315 16.1977C19.2712 16.2387 19.332 16.2596 19.4149 16.2596H19.4149ZM20.6686 16.4714C20.5124 16.4714 20.3938 16.4314 20.3129 16.3524C20.2316 16.273 20.1911 16.1622 20.1911 16.0201V15.2979C20.1911 15.1554 20.232 15.0443 20.3132 14.9652C20.3945 14.8862 20.5131 14.8467 20.6685 14.8467C20.8253 14.8467 20.9438 14.8862 21.0247 14.9649C21.1056 15.0436 21.1461 15.1548 21.1461 15.2979V16.0202C21.1461 16.163 21.1056 16.2738 21.0244 16.3528C20.9431 16.4318 20.8245 16.4714 20.6686 16.4714V16.4714ZM20.6686 16.2596C20.7515 16.2596 20.8127 16.2387 20.8524 16.1977C20.8916 16.1566 20.9112 16.0974 20.9112 16.0202V15.2979C20.9112 15.2207 20.892 15.1618 20.8527 15.1205C20.8135 15.0794 20.7522 15.0589 20.6685 15.0589C20.585 15.0589 20.5237 15.0794 20.4848 15.1205C20.4456 15.1618 20.4259 15.2207 20.4259 15.2979V16.0202C20.4259 16.0974 20.4455 16.1567 20.4852 16.1977C20.5249 16.2387 20.5857 16.2596 20.6685 16.2596H20.6686ZM21.9223 16.4714C21.766 16.4714 21.6474 16.4314 21.5666 16.3524C21.4853 16.273 21.4449 16.1622 21.4449 16.0201V15.2979C21.4449 15.1554 21.4858 15.0443 21.567 14.9652C21.6483 14.8862 21.7669 14.8467 21.9223 14.8467C22.0789 14.8467 22.1975 14.8862 22.2784 14.9649C22.3593 15.0436 22.3997 15.1548 22.3997 15.2979V16.0202C22.3997 16.163 22.3593 16.2738 22.278 16.3528C22.1968 16.4318 22.0782 16.4714 21.9223 16.4714V16.4714ZM21.9223 16.2596C22.0051 16.2596 22.0664 16.2387 22.1061 16.1977C22.1453 16.1566 22.1649 16.0974 22.1649 16.0202V15.2979C22.1649 15.2207 22.1457 15.1618 22.1064 15.1205C22.0672 15.0794 22.0059 15.0589 21.9223 15.0589C21.8387 15.0589 21.7774 15.0794 21.7386 15.1205C21.6993 15.1618 21.6797 15.2207 21.6797 15.2979V16.0202C21.6797 16.0974 21.6993 16.1567 21.739 16.1977C21.7786 16.2387 21.8395 16.2596 21.9224 16.2596H21.9223ZM23.1759 16.4714C23.0197 16.4714 22.9011 16.4314 22.8202 16.3524C22.7389 16.273 22.6985 16.1622 22.6985 16.0201V15.2979C22.6985 15.1554 22.7393 15.0443 22.8206 14.9652C22.9019 14.8862 23.0205 14.8467 23.1759 14.8467C23.3326 14.8467 23.4512 14.8862 23.5321 14.9649C23.613 15.0436 23.6534 15.1548 23.6534 15.2979V16.0202C23.6534 16.163 23.6129 16.2738 23.5317 16.3528C23.4505 16.4318 23.3319 16.4714 23.176 16.4714H23.1759ZM23.1759 16.2596C23.2588 16.2596 23.32 16.2387 23.3597 16.1977C23.3989 16.1566 23.4186 16.0974 23.4186 16.0202V15.2979C23.4186 15.2207 23.3993 15.1618 23.36 15.1205C23.3208 15.0794 23.2595 15.0589 23.1759 15.0589C23.0923 15.0589 23.031 15.0794 22.9921 15.1205C22.9528 15.1618 22.9332 15.2207 22.9332 15.2979V16.0202C22.9332 16.0974 22.9528 16.1567 22.9925 16.1977C23.0322 16.2387 23.093 16.2596 23.1759 16.2596H23.1759Z" fill="white"/>
<path fill-rule="evenodd" clip-rule="evenodd" d="M19.3316 9.44929C19.8918 9.44929 20.3867 9.72046 20.6854 10.1351C20.9046 9.95087 21.1903 9.83943 21.5027 9.83943C22.1935 9.83943 22.7535 10.384 22.7535 11.0558C22.7535 11.7277 22.1935 12.2722 21.5027 12.2722C21.1902 12.2722 20.9046 12.1608 20.6854 11.9765C20.3867 12.3911 19.8918 12.6624 19.3316 12.6624C18.4193 12.6624 17.6797 11.9431 17.6797 11.0558C17.6797 10.1685 18.4193 9.44922 19.3316 9.44922V9.44929Z" fill="white"/>
<path d="M1.80469 5.08034H3.04428V5.35093H2.13947V5.72491H2.58735C2.71101 5.72491 2.81355 5.73958 2.89498 5.76891C2.97642 5.79824 3.04579 5.85251 3.10309 5.9317C3.16115 6.0109 3.19018 6.10366 3.19018 6.20999C3.19018 6.31926 3.16115 6.41275 3.10309 6.49048C3.04503 6.56821 2.97868 6.62138 2.90403 6.64998C2.83014 6.67857 2.72458 6.69287 2.58735 6.69287H1.80469V5.08034ZM2.13947 6.42228H2.4652C2.56925 6.42228 2.64239 6.41752 2.68462 6.40798C2.72684 6.39772 2.76341 6.37499 2.79432 6.33979C2.82599 6.30459 2.84183 6.26132 2.84183 6.20999C2.84183 6.1352 2.81431 6.08093 2.75926 6.0472C2.70497 6.01273 2.61185 5.9955 2.4799 5.9955H2.13947V6.42228Z" fill="white"/>
<path d="M4.86973 6.69287H4.50555L4.36078 6.32659H3.698L3.56115 6.69287H3.20601L3.85182 5.08034H4.20583L4.86973 6.69287ZM4.25333 6.0549L4.02487 5.45652L3.80093 6.0549H4.25333Z" fill="white"/>
<path d="M5.04956 6.69287V5.08034H5.38434V5.71501H6.04033V5.08034H6.37511V6.69287H6.04033V5.9878H5.38434V6.69287H5.04956Z" fill="white"/>
<path d="M6.72799 5.08034H7.06277V5.76671C7.13741 5.75938 7.18793 5.74068 7.21432 5.71061C7.24071 5.68055 7.28143 5.59695 7.33647 5.45982C7.40584 5.28529 7.47559 5.17677 7.54571 5.13423C7.61508 5.0917 7.72705 5.07044 7.88162 5.07044C7.88916 5.07044 7.90537 5.07007 7.93025 5.06934V5.31023L7.88275 5.30913C7.81414 5.30913 7.764 5.31756 7.73233 5.33443C7.70066 5.35056 7.67502 5.37549 7.65542 5.40922C7.63581 5.44296 7.60678 5.51225 7.56833 5.61712C7.54797 5.67285 7.52573 5.71941 7.5016 5.75681C7.47823 5.79421 7.43638 5.82941 7.37606 5.86241C7.4507 5.88294 7.51216 5.92437 7.56041 5.9867C7.60942 6.04903 7.66296 6.13703 7.72102 6.25069L7.94722 6.69287H7.55363L7.3557 6.27599C7.35268 6.27012 7.34627 6.25876 7.33647 6.24189C7.3327 6.23602 7.31875 6.21073 7.29462 6.16599C7.25165 6.0868 7.21621 6.0373 7.18831 6.0175C7.16117 5.9977 7.11932 5.98743 7.06277 5.9867V6.69287H6.72799V5.08034Z" fill="white"/>
<path fill-rule="evenodd" clip-rule="evenodd" d="M35.9184 3.0644C35.5411 3.70011 35.1637 4.33583 34.7863 4.97154C32.9801 3.90507 29.8394 3.57533 27.1412 5.59373C30.5378 5.30358 31.6678 6.04494 33.4933 7.14958L32.3006 9.1588L37.7684 8.16609L35.9184 3.0644Z" fill="#DFC228"/>
<path d="M55.3765 13.5215H32.9944C32.2554 13.5215 31.6562 14.1277 31.6562 14.8754V28.4145C31.6562 29.1622 32.2554 29.7684 32.9944 29.7684H55.3765C56.1155 29.7684 56.7146 29.1622 56.7146 28.4145V14.8754C56.7146 14.1277 56.1155 13.5215 55.3765 13.5215Z" fill="#D30E0E"/>
<path fill-rule="evenodd" clip-rule="evenodd" d="M36.0076 21.5255H34.8438V20.5771H36.0076V21.5255Z" fill="white"/>
<path fill-rule="evenodd" clip-rule="evenodd" d="M36.0703 19.5488H38.3939C38.7093 19.5488 38.9674 19.7999 38.9674 20.1066V20.5083H37.7347V23.5652H36.0703V19.5488Z" fill="white"/>
<path fill-rule="evenodd" clip-rule="evenodd" d="M36.0076 23.5679H35.4173C35.1019 23.5679 34.8438 23.3168 34.8438 23.01V22.6084H36.0076V23.5679Z" fill="white"/>
<path fill-rule="evenodd" clip-rule="evenodd" d="M35.4173 19.5488H36.0076V20.5083H34.8438V20.1066C34.8438 19.7999 35.1019 19.5488 35.4173 19.5488Z" fill="white"/>
<path fill-rule="evenodd" clip-rule="evenodd" d="M36.0076 22.5411H34.8438V21.5928H36.0076V22.5411Z" fill="white"/>
<path fill-rule="evenodd" clip-rule="evenodd" d="M38.9685 21.5255H37.8047V20.5771H38.9685V21.5255Z" fill="white"/>
<path fill-rule="evenodd" clip-rule="evenodd" d="M38.9685 22.5411H37.8047V21.5928H38.9685V22.5411Z" fill="white"/>
<path fill-rule="evenodd" clip-rule="evenodd" d="M37.8047 23.5679H38.395C38.7104 23.5679 38.9686 23.3168 38.9686 23.01V22.6084H37.8048V23.5679H37.8047Z" fill="white"/>
<path d="M33.5243 26.7741C33.368 26.7741 33.2494 26.7342 33.1686 26.6551C33.0873 26.5757 33.0469 26.465 33.0469 26.3229V25.6006C33.0469 25.4581 33.0877 25.347 33.169 25.268C33.2503 25.1889 33.3689 25.1494 33.5243 25.1494C33.681 25.1494 33.7995 25.1889 33.8805 25.2676C33.9613 25.3463 34.0018 25.4575 34.0018 25.6007V26.3229C34.0018 26.4657 33.9613 26.5765 33.8801 26.6555C33.7988 26.7346 33.6802 26.7741 33.5244 26.7741H33.5243ZM33.5243 26.5623C33.6072 26.5623 33.6684 26.5414 33.7081 26.5004C33.7473 26.4594 33.7669 26.4001 33.7669 26.3229V25.6007C33.7669 25.5235 33.7477 25.4646 33.7085 25.4232C33.6692 25.3822 33.6079 25.3617 33.5243 25.3617C33.4406 25.3617 33.3794 25.3822 33.3406 25.4232C33.3013 25.4646 33.2817 25.5235 33.2817 25.6007V26.3229C33.2817 26.4001 33.3013 26.4594 33.3409 26.5004C33.3806 26.5414 33.4414 26.5623 33.5243 26.5623V26.5623ZM34.778 26.7741C34.6217 26.7741 34.5031 26.7342 34.4223 26.6551C34.341 26.5757 34.3006 26.465 34.3006 26.3229V25.6006C34.3006 25.4581 34.3414 25.347 34.4227 25.268C34.504 25.1889 34.6226 25.1494 34.778 25.1494C34.9346 25.1494 35.0532 25.1889 35.1341 25.2676C35.215 25.3463 35.2554 25.4575 35.2554 25.6007V26.3229C35.2554 26.4657 35.215 26.5765 35.1337 26.6555C35.0525 26.7346 34.9339 26.7741 34.778 26.7741V26.7741ZM34.778 26.5623C34.8608 26.5623 34.9221 26.5414 34.9617 26.5004C35.001 26.4594 35.0206 26.4001 35.0206 26.3229V25.6007C35.0206 25.5235 35.0014 25.4646 34.9622 25.4232C34.9229 25.3822 34.8617 25.3617 34.7781 25.3617C34.6944 25.3617 34.6332 25.3822 34.5943 25.4232C34.5551 25.4646 34.5354 25.5235 34.5354 25.6007V26.3229C34.5354 26.4001 34.555 26.4594 34.5947 26.5004C34.6343 26.5414 34.6952 26.5623 34.7781 26.5623H34.778ZM36.0316 26.7741C35.8753 26.7741 35.7567 26.7342 35.6759 26.6551C35.5946 26.5757 35.5542 26.465 35.5542 26.3229V25.6006C35.5542 25.4581 35.595 25.347 35.6763 25.268C35.7576 25.1889 35.8762 25.1494 36.0316 25.1494C36.1883 25.1494 36.3068 25.1889 36.3878 25.2676C36.4687 25.3463 36.5091 25.4575 36.5091 25.6007V26.3229C36.5091 26.4657 36.4687 26.5765 36.3874 26.6555C36.3061 26.7346 36.1875 26.7741 36.0317 26.7741H36.0316ZM36.0316 26.5623C36.1145 26.5623 36.1757 26.5414 36.2154 26.5004C36.2546 26.4594 36.2742 26.4001 36.2742 26.3229V25.6007C36.2742 25.5235 36.255 25.4646 36.2158 25.4232C36.1766 25.3822 36.1152 25.3617 36.0316 25.3617C35.948 25.3617 35.8867 25.3822 35.8479 25.4232C35.8086 25.4646 35.789 25.5235 35.789 25.6007V26.3229C35.789 26.4001 35.8086 26.4594 35.8483 26.5004C35.8879 26.5414 35.9488 26.5623 36.0316 26.5623ZM37.2853 26.7741C37.129 26.7741 37.0104 26.7342 36.9296 26.6551C36.8483 26.5757 36.8079 26.465 36.8079 26.3229V25.6006C36.8079 25.4581 36.8487 25.347 36.93 25.268C37.0113 25.1889 37.1299 25.1494 37.2853 25.1494C37.442 25.1494 37.5605 25.1889 37.6414 25.2676C37.7223 25.3463 37.7627 25.4575 37.7627 25.6007V26.3229C37.7627 26.4657 37.7222 26.5765 37.641 26.6555C37.5598 26.7346 37.4412 26.7741 37.2853 26.7741V26.7741ZM37.2853 26.5623C37.3682 26.5623 37.4294 26.5414 37.469 26.5004C37.5083 26.4594 37.5279 26.4001 37.5279 26.3229V25.6007C37.5279 25.5235 37.5087 25.4646 37.4694 25.4232C37.4302 25.3822 37.3688 25.3617 37.2852 25.3617C37.2016 25.3617 37.1404 25.3822 37.1015 25.4232C37.0623 25.4646 37.0427 25.5235 37.0427 25.6007V26.3229C37.0427 26.4001 37.0623 26.4594 37.102 26.5004C37.1416 26.5414 37.2024 26.5623 37.2853 26.5623Z" fill="white"/>
<path d="M39.3759 26.7741C39.2196 26.7741 39.101 26.7342 39.0201 26.6551C38.9389 26.5757 38.8984 26.465 38.8984 26.3229V25.6006C38.8984 25.4581 38.9393 25.347 39.0206 25.268C39.1018 25.1889 39.2204 25.1494 39.3759 25.1494C39.5326 25.1494 39.6512 25.1889 39.732 25.2676C39.8129 25.3463 39.8534 25.4575 39.8534 25.6007V26.3229C39.8534 26.4657 39.8129 26.5765 39.7317 26.6555C39.6504 26.7346 39.5318 26.7741 39.3759 26.7741H39.3759ZM39.3759 26.5623C39.4587 26.5623 39.52 26.5414 39.5596 26.5004C39.5988 26.4594 39.6185 26.4001 39.6185 26.3229V25.6007C39.6185 25.5235 39.5993 25.4646 39.56 25.4232C39.5208 25.3822 39.4595 25.3617 39.3759 25.3617C39.2923 25.3617 39.2311 25.3822 39.1922 25.4232C39.153 25.4646 39.1333 25.5235 39.1333 25.6007V26.3229C39.1333 26.4001 39.1529 26.4594 39.1926 26.5004C39.2323 26.5414 39.2931 26.5623 39.376 26.5623H39.3759ZM40.6295 26.7741C40.4732 26.7741 40.3547 26.7342 40.2738 26.6551C40.1925 26.5757 40.1521 26.465 40.1521 26.3229V25.6006C40.1521 25.4581 40.1929 25.347 40.2742 25.268C40.3555 25.1889 40.4741 25.1494 40.6295 25.1494C40.7862 25.1494 40.9047 25.1889 40.9856 25.2676C41.0665 25.3463 41.107 25.4575 41.107 25.6007V26.3229C41.107 26.4657 41.0665 26.5765 40.9853 26.6555C40.904 26.7346 40.7854 26.7741 40.6296 26.7741H40.6295ZM40.6295 26.5623C40.7124 26.5623 40.7736 26.5414 40.8132 26.5004C40.8525 26.4594 40.8721 26.4001 40.8721 26.3229V25.6007C40.8721 25.5235 40.8529 25.4646 40.8137 25.4232C40.7744 25.3822 40.7131 25.3617 40.6295 25.3617C40.5459 25.3617 40.4846 25.3822 40.4457 25.4232C40.4065 25.4646 40.3869 25.5235 40.3869 25.6007V26.3229C40.3869 26.4001 40.4064 26.4594 40.4462 26.5004C40.4858 26.5414 40.5467 26.5623 40.6295 26.5623ZM41.8832 26.7741C41.7269 26.7741 41.6083 26.7342 41.5274 26.6551C41.4462 26.5757 41.4057 26.465 41.4057 26.3229V25.6006C41.4057 25.4581 41.4466 25.347 41.5279 25.268C41.6091 25.1889 41.7277 25.1494 41.8832 25.1494C42.0398 25.1494 42.1584 25.1889 42.2393 25.2676C42.3202 25.3463 42.3606 25.4575 42.3606 25.6007V26.3229C42.3606 26.4657 42.3201 26.5765 42.2389 26.6555C42.1576 26.7346 42.039 26.7741 41.8832 26.7741V26.7741ZM41.8832 26.5623C41.966 26.5623 42.0273 26.5414 42.0669 26.5004C42.1062 26.4594 42.1258 26.4001 42.1258 26.3229V25.6007C42.1258 25.5235 42.1066 25.4646 42.0673 25.4232C42.0281 25.3822 41.9668 25.3617 41.8832 25.3617C41.7996 25.3617 41.7383 25.3822 41.6994 25.4232C41.6602 25.4646 41.6406 25.5235 41.6406 25.6007V26.3229C41.6406 26.4001 41.6601 26.4594 41.6999 26.5004C41.7395 26.5414 41.8004 26.5623 41.8832 26.5623H41.8832ZM43.1368 26.7741C42.9805 26.7741 42.862 26.7342 42.7811 26.6551C42.6998 26.5757 42.6594 26.465 42.6594 26.3229V25.6006C42.6594 25.4581 42.7002 25.347 42.7815 25.268C42.8628 25.1889 42.9814 25.1494 43.1368 25.1494C43.2935 25.1494 43.412 25.1889 43.4929 25.2676C43.5739 25.3463 43.6143 25.4575 43.6143 25.6007V26.3229C43.6143 26.4657 43.5739 26.5765 43.4926 26.6555C43.4113 26.7346 43.2927 26.7741 43.1369 26.7741H43.1368ZM43.1368 26.5623C43.2197 26.5623 43.2809 26.5414 43.3205 26.5004C43.3598 26.4594 43.3794 26.4001 43.3794 26.3229V25.6007C43.3794 25.5235 43.3602 25.4646 43.3209 25.4232C43.2817 25.3822 43.2204 25.3617 43.1367 25.3617C43.0531 25.3617 42.9919 25.3822 42.953 25.4232C42.9137 25.4646 42.8941 25.5235 42.8941 25.6007V26.3229C42.8941 26.4001 42.9137 26.4594 42.9534 26.5004C42.9931 26.5414 43.0539 26.5623 43.1367 26.5623H43.1368Z" fill="white"/>
<path d="M45.2352 26.7741C45.079 26.7741 44.9604 26.7342 44.8795 26.6551C44.7982 26.5757 44.7578 26.465 44.7578 26.3229V25.6006C44.7578 25.4581 44.7987 25.347 44.8799 25.268C44.9612 25.1889 45.0798 25.1494 45.2352 25.1494C45.3919 25.1494 45.5105 25.1889 45.5914 25.2676C45.6722 25.3463 45.7127 25.4575 45.7127 25.6007V26.3229C45.7127 26.4657 45.6722 26.5765 45.591 26.6555C45.5098 26.7346 45.3912 26.7741 45.2353 26.7741H45.2352ZM45.2352 26.5623C45.3181 26.5623 45.3793 26.5414 45.419 26.5004C45.4582 26.4594 45.4778 26.4001 45.4778 26.3229V25.6007C45.4778 25.5235 45.4586 25.4646 45.4193 25.4232C45.3801 25.3822 45.3188 25.3617 45.2352 25.3617C45.1516 25.3617 45.0903 25.3822 45.0514 25.4232C45.0122 25.4646 44.9926 25.5235 44.9926 25.6007V26.3229C44.9926 26.4001 45.0122 26.4594 45.0519 26.5004C45.0916 26.5414 45.1524 26.5623 45.2352 26.5623ZM46.4889 26.7741C46.3327 26.7741 46.2141 26.7342 46.1332 26.6551C46.0519 26.5757 46.0115 26.465 46.0115 26.3229V25.6006C46.0115 25.4581 46.0523 25.347 46.1336 25.268C46.2149 25.1889 46.3335 25.1494 46.489 25.1494C46.6456 25.1494 46.7642 25.1889 46.8451 25.2676C46.926 25.3463 46.9664 25.4575 46.9664 25.6007V26.3229C46.9664 26.4657 46.926 26.5765 46.8447 26.6555C46.7635 26.7346 46.6449 26.7741 46.489 26.7741H46.4889ZM46.4889 26.5623C46.5718 26.5623 46.633 26.5414 46.6727 26.5004C46.7119 26.4594 46.7316 26.4001 46.7316 26.3229V25.6007C46.7316 25.5235 46.7123 25.4646 46.673 25.4232C46.6338 25.3822 46.5725 25.3617 46.4889 25.3617C46.4053 25.3617 46.3441 25.3822 46.3052 25.4232C46.266 25.4646 46.2463 25.5235 46.2463 25.6007V26.3229C46.2463 26.4001 46.2659 26.4594 46.3056 26.5004C46.3453 26.5414 46.4061 26.5623 46.489 26.5623H46.4889ZM47.7426 26.7741C47.5863 26.7741 47.4677 26.7342 47.3868 26.6551C47.3055 26.5757 47.2651 26.465 47.2651 26.3229V25.6006C47.2651 25.4581 47.306 25.347 47.3872 25.268C47.4685 25.1889 47.5871 25.1494 47.7426 25.1494C47.8993 25.1494 48.0178 25.1889 48.0987 25.2676C48.1796 25.3463 48.2201 25.4575 48.2201 25.6007V26.3229C48.2201 26.4657 48.1796 26.5765 48.0984 26.6555C48.0171 26.7346 47.8985 26.7741 47.7426 26.7741H47.7426ZM47.7426 26.5623C47.8254 26.5623 47.8866 26.5414 47.9263 26.5004C47.9655 26.4594 47.9852 26.4001 47.9852 26.3229V25.6007C47.9852 25.5235 47.9659 25.4646 47.9267 25.4232C47.8874 25.3822 47.8261 25.3617 47.7425 25.3617C47.6589 25.3617 47.5976 25.3822 47.5587 25.4232C47.5195 25.4646 47.4999 25.5235 47.4999 25.6007V26.3229C47.4999 26.4001 47.5194 26.4594 47.5592 26.5004C47.5988 26.5414 47.6597 26.5623 47.7425 26.5623H47.7426ZM48.9962 26.7741C48.84 26.7741 48.7214 26.7342 48.6405 26.6551C48.5592 26.5757 48.5187 26.465 48.5187 26.3229V25.6006C48.5187 25.4581 48.5596 25.347 48.6409 25.268C48.7221 25.1889 48.8407 25.1494 48.9962 25.1494C49.1528 25.1494 49.2714 25.1889 49.3523 25.2676C49.4332 25.3463 49.4736 25.4575 49.4736 25.6007V26.3229C49.4736 26.4657 49.4331 26.5765 49.3519 26.6555C49.2706 26.7346 49.152 26.7741 48.9962 26.7741H48.9962ZM48.9962 26.5623C49.0791 26.5623 49.1403 26.5414 49.18 26.5004C49.2192 26.4594 49.2389 26.4001 49.2389 26.3229V25.6007C49.2389 25.5235 49.2196 25.4646 49.1804 25.4232C49.1412 25.3822 49.0799 25.3617 48.9962 25.3617C48.9126 25.3617 48.8514 25.3822 48.8125 25.4232C48.7733 25.4646 48.7536 25.5235 48.7536 25.6007V26.3229C48.7536 26.4001 48.7732 26.4594 48.8129 26.5004C48.8526 26.5414 48.9134 26.5623 48.9963 26.5623H48.9962Z" fill="white"/>
<path d="M51.079 26.7741C50.9228 26.7741 50.8042 26.7342 50.7233 26.6551C50.642 26.5757 50.6016 26.465 50.6016 26.3229V25.6006C50.6016 25.4581 50.6424 25.347 50.7237 25.268C50.805 25.1889 50.9236 25.1494 51.079 25.1494C51.2357 25.1494 51.3542 25.1889 51.4352 25.2676C51.5161 25.3463 51.5565 25.4575 51.5565 25.6007V26.3229C51.5565 26.4657 51.5161 26.5765 51.4348 26.6555C51.3535 26.7346 51.2349 26.7741 51.0791 26.7741H51.079ZM51.079 26.5623C51.1619 26.5623 51.2231 26.5414 51.2627 26.5004C51.302 26.4594 51.3216 26.4001 51.3216 26.3229V25.6007C51.3216 25.5235 51.3024 25.4646 51.2631 25.4232C51.2239 25.3822 51.1626 25.3617 51.0789 25.3617C50.9953 25.3617 50.9341 25.3822 50.8952 25.4232C50.8559 25.4646 50.8363 25.5235 50.8363 25.6007V26.3229C50.8363 26.4001 50.8559 26.4594 50.8956 26.5004C50.9353 26.5414 50.9961 26.5623 51.0789 26.5623H51.079ZM52.3327 26.7741C52.1765 26.7741 52.0579 26.7342 51.977 26.6551C51.8957 26.5757 51.8552 26.465 51.8552 26.3229V25.6006C51.8552 25.4581 51.896 25.347 51.9773 25.268C52.0586 25.1889 52.1772 25.1494 52.3326 25.1494C52.4893 25.1494 52.6078 25.1889 52.6888 25.2676C52.7696 25.3463 52.8101 25.4575 52.8101 25.6007V26.3229C52.8101 26.4657 52.7696 26.5765 52.6884 26.6555C52.6071 26.7346 52.4885 26.7741 52.3327 26.7741V26.7741ZM52.3327 26.5623C52.4156 26.5623 52.4768 26.5414 52.5164 26.5004C52.5557 26.4594 52.5753 26.4001 52.5753 26.3229V25.6007C52.5753 25.5235 52.5561 25.4646 52.5168 25.4232C52.4776 25.3822 52.4163 25.3617 52.3326 25.3617C52.249 25.3617 52.1877 25.3822 52.1489 25.4232C52.1096 25.4646 52.09 25.5235 52.09 25.6007V26.3229C52.09 26.4001 52.1096 26.4594 52.1493 26.5004C52.1889 26.5414 52.2497 26.5623 52.3326 26.5623H52.3327ZM53.5864 26.7741C53.4301 26.7741 53.3115 26.7342 53.2306 26.6551C53.1494 26.5757 53.1089 26.465 53.1089 26.3229V25.6006C53.1089 25.4581 53.1499 25.347 53.2311 25.268C53.3123 25.1889 53.4309 25.1494 53.5864 25.1494C53.743 25.1494 53.8616 25.1889 53.9425 25.2676C54.0234 25.3463 54.0638 25.4575 54.0638 25.6007V26.3229C54.0638 26.4657 54.0234 26.5765 53.9421 26.6555C53.8608 26.7346 53.7422 26.7741 53.5864 26.7741ZM53.5864 26.5623C53.6692 26.5623 53.7305 26.5414 53.7701 26.5004C53.8093 26.4594 53.829 26.4001 53.829 26.3229V25.6007C53.829 25.5235 53.8098 25.4646 53.7705 25.4232C53.7312 25.3822 53.67 25.3617 53.5864 25.3617C53.5028 25.3617 53.4415 25.3822 53.4026 25.4232C53.3634 25.4646 53.3437 25.5235 53.3437 25.6007V26.3229C53.3437 26.4001 53.3633 26.4594 53.403 26.5004C53.4427 26.5414 53.5035 26.5623 53.5864 26.5623H53.5864ZM54.84 26.7741C54.6838 26.7741 54.5652 26.7342 54.4843 26.6551C54.403 26.5757 54.3626 26.465 54.3626 26.3229V25.6006C54.3626 25.4581 54.4034 25.347 54.4847 25.268C54.566 25.1889 54.6846 25.1494 54.84 25.1494C54.9967 25.1494 55.1152 25.1889 55.1961 25.2676C55.2771 25.3463 55.3175 25.4575 55.3175 25.6007V26.3229C55.3175 26.4657 55.277 26.5765 55.1958 26.6555C55.1145 26.7346 54.9959 26.7741 54.8401 26.7741H54.84ZM54.84 26.5623C54.9229 26.5623 54.9841 26.5414 55.0237 26.5004C55.063 26.4594 55.0826 26.4001 55.0826 26.3229V25.6007C55.0826 25.5235 55.0634 25.4646 55.0241 25.4232C54.9849 25.3822 54.9236 25.3617 54.8399 25.3617C54.7563 25.3617 54.695 25.3822 54.6562 25.4232C54.6169 25.4646 54.5973 25.5235 54.5973 25.6007V26.3229C54.5973 26.4001 54.6169 26.4594 54.6566 26.5004C54.6962 26.5414 54.7571 26.5623 54.8399 26.5623H54.84Z" fill="white"/>
<path fill-rule="evenodd" clip-rule="evenodd" d="M50.9879 19.7589C51.548 19.7589 52.0429 20.03 52.3417 20.4447C52.5608 20.2604 52.8466 20.149 53.159 20.149C53.8497 20.149 54.4097 20.6936 54.4097 21.3654C54.4097 22.0372 53.8497 22.5818 53.159 22.5818C52.8465 22.5818 52.5608 22.4703 52.3417 22.2861C52.0429 22.7007 51.548 22.9719 50.9879 22.9719C50.0756 22.9719 49.3359 22.2527 49.3359 21.3653C49.3359 20.478 50.0755 19.7588 50.9879 19.7588V19.7589Z" fill="white"/>
<path d="M33.4609 15.384H34.7005V15.6546H33.7957V16.0286H34.2436C34.3673 16.0286 34.4698 16.0433 34.5512 16.0726C34.6327 16.102 34.702 16.1562 34.7593 16.2354C34.8174 16.3146 34.8464 16.4074 34.8464 16.5137C34.8464 16.623 34.8174 16.7165 34.7593 16.7942C34.7013 16.8719 34.6349 16.9251 34.5603 16.9537C34.4864 16.9823 34.3808 16.9966 34.2436 16.9966H33.4609V15.384ZM33.7957 16.726H34.1214C34.2255 16.726 34.2986 16.7212 34.3409 16.7117C34.3831 16.7014 34.4197 16.6787 34.4506 16.6435C34.4822 16.6083 34.4981 16.565 34.4981 16.5137C34.4981 16.4389 34.4706 16.3846 34.4155 16.3509C34.3612 16.3164 34.2681 16.2992 34.1362 16.2992H33.7957V16.726Z" fill="white"/>
<path d="M36.526 16.9966H36.1618L36.017 16.6303H35.3543L35.2174 16.9966H34.8623L35.5081 15.384H35.8621L36.526 16.9966ZM35.9096 16.3586L35.6811 15.7602L35.4572 16.3586H35.9096Z" fill="white"/>
<path d="M36.7058 16.9966V15.384H37.0406V16.0187H37.6966V15.384H38.0314V16.9966H37.6966V16.2915H37.0406V16.9966H36.7058Z" fill="white"/>
<path d="M38.3842 15.384H38.719V16.0704C38.7937 16.0631 38.8442 16.0444 38.8706 16.0143C38.897 15.9843 38.9377 15.9007 38.9927 15.7635C39.0621 15.589 39.1318 15.4805 39.202 15.4379C39.2713 15.3954 39.3833 15.3741 39.5379 15.3741C39.5454 15.3741 39.5616 15.3738 39.5865 15.373V15.6139L39.539 15.6128C39.4704 15.6128 39.4202 15.6213 39.3886 15.6381C39.3569 15.6543 39.3313 15.6792 39.3117 15.7129C39.2921 15.7467 39.263 15.816 39.2246 15.9208C39.2042 15.9766 39.182 16.0231 39.1579 16.0605C39.1345 16.0979 39.0926 16.1331 39.0323 16.1661C39.107 16.1866 39.1684 16.2281 39.2167 16.2904C39.2657 16.3527 39.3192 16.4407 39.3773 16.5544L39.6035 16.9966H39.2099L39.0119 16.5797C39.0089 16.5738 39.0025 16.5625 38.9927 16.5456C38.989 16.5397 38.975 16.5144 38.9509 16.4697C38.9079 16.3905 38.8725 16.341 38.8446 16.3212C38.8174 16.3014 38.7756 16.2911 38.719 16.2904V16.9966H38.3842V15.384Z" fill="white"/>
<path fill-rule="evenodd" clip-rule="evenodd" d="M20.4402 29.5974C20.8176 28.9617 21.195 28.326 21.5723 27.6903C23.3785 28.7568 26.5193 29.0865 29.2175 27.0681C25.8209 27.3583 24.6909 26.6169 22.8653 25.5123L24.0581 23.503L18.5902 24.4957L20.4402 29.5975L20.4402 29.5974Z" fill="#D30E0E"/>
<path d="M67.0379 12.3568H63.5859V20.5166H65.1441V18.1619H67.0379C69.2433 18.1619 70.6097 17.0545 70.6097 15.2594C70.6097 13.4526 69.2433 12.3568 67.0379 12.3568ZM66.966 16.8797H65.1441V13.6391H66.966C68.3324 13.6391 69.0396 14.2336 69.0396 15.2594C69.0396 16.2852 68.3324 16.8797 66.966 16.8797Z" fill="white"/>
<path d="M73.7465 19.2344L75.9879 17.1594C77.1505 16.0987 77.3783 15.3759 77.3783 14.5833C77.3783 13.1378 76.2036 12.2402 74.3818 12.2402C73.0034 12.2402 71.8407 12.7415 71.1935 13.5924L72.2842 14.4084C72.7517 13.8256 73.4349 13.5575 74.2499 13.5575C75.2807 13.5575 75.8081 13.9888 75.8081 14.7348C75.8081 15.1894 75.6643 15.6674 74.8492 16.4251L71.5171 19.5025V20.5166H77.7019V19.2344H73.7465Z" fill="white"/>
<path d="M82.6525 12.3568H79.2005V20.5166H80.7587V18.1619H82.6525C84.8579 18.1619 86.2243 17.0545 86.2243 15.2594C86.2243 13.4526 84.8579 12.3568 82.6525 12.3568ZM82.5806 16.8797H80.7587V13.6391H82.5806C83.947 13.6391 84.6541 14.2336 84.6541 15.2594C84.6541 16.2852 83.947 16.8797 82.5806 16.8797Z" fill="white"/>
</svg>
