<svg xmlns="http://www.w3.org/2000/svg" width="129" height="44" fill="none"><path fill="#40A548" fill-rule="evenodd" d="M91.597 18.345h.04c.29-.005.998-.018 1.307 1.044.218.752.566 1.984 1.043 3.695h.194a743.14 743.14 0 0 1 1.055-3.695c.308-1.06 1.05-1.05 1.41-1.044h2.591v8.02H96.66V21.64h-.172l-1.436 4.726h-1.938l-1.435-4.73h-.173v4.73h-2.575v-8.02h2.665Zm11.337-.001v4.73h.205l1.747-3.89c.339-.774 1.061-.84 1.061-.84h2.492v8.02h-2.629v-4.73h-.205l-1.712 3.89c-.339.77-1.096.84-1.096.84h-2.492v-8.02h2.629Zm11.802 5.632c1.275 0 2.426-.76 2.793-1.82h-8.051v4.209h2.5v-2.39h2.758Z" clip-rule="evenodd"/><path fill="#1291D0" d="M114.855 18.352h-5.509c.131 1.785 1.638 3.314 3.198 3.314h5.157c.298-1.484-.726-3.314-2.846-3.314Z"/><path fill="#B0B0B0" fill-rule="evenodd" d="M62.139 30.045v2.162h-.51v-.262c-.162.194-.408.317-.742.317-.658 0-1.174-.475-1.174-1.136 0-.66.516-1.135 1.174-1.135.334 0 .58.122.742.317v-.263h.51Zm-1.186.388c-.441 0-.712.313-.712.692 0 .38.27.693.712.693.422 0 .707-.299.707-.693 0-.393-.284-.692-.707-.692Zm18.431.692c0-.38.27-.692.713-.692.422 0 .707.3.707.692 0 .394-.285.693-.707.693-.442 0-.712-.313-.712-.693Zm1.904-1.948V32.207h-.511v-.262c-.162.194-.408.317-.742.317-.658 0-1.174-.475-1.174-1.136 0-.66.516-1.135 1.174-1.135.334 0 .58.122.742.317v-1.13h.51Zm-12.813 1.239c.328 0 .54.19.594.524H67.85c.054-.312.26-.524.624-.524Zm-1.16.71c0-.674.48-1.135 1.169-1.135.657 0 1.11.461 1.114 1.135 0 .064-.005.123-.01.181h-1.743c.074.39.374.53.702.53.236 0 .486-.082.683-.227l.25.349c-.285.221-.608.303-.962.303-.703 0-1.203-.448-1.203-1.136Zm7.334 0c0-.38.27-.693.712-.693.422 0 .707.3.707.692 0 .394-.285.693-.707.693-.442 0-.713-.313-.713-.693Zm1.9-1.08v2.161h-.51v-.262c-.163.194-.408.317-.742.317-.658 0-1.174-.475-1.174-1.136 0-.66.516-1.135 1.174-1.135.334 0 .579.122.741.317v-.263h.51Zm-4.784 1.08c0 .656.496 1.136 1.252 1.136.354 0 .59-.073.844-.258l-.245-.38a1.09 1.09 0 0 1-.614.195c-.407-.005-.707-.276-.707-.693 0-.416.3-.687.707-.692.222 0 .423.068.614.195l.245-.38c-.255-.185-.49-.258-.844-.258-.756 0-1.252.48-1.252 1.135Zm5.961-.82a.707.707 0 0 1 .62-.317c.103 0 .25.018.363.06l-.157.442a.89.89 0 0 0-.32-.054c-.334 0-.5.199-.5.557v1.212h-.511v-2.162h.505v.262Zm-13.06-.089c-.246-.149-.585-.226-.958-.226-.594 0-.977.262-.977.692 0 .353.285.57.81.638l.24.032c.28.036.413.104.413.226 0 .167-.187.262-.535.262-.354 0-.61-.104-.781-.226l-.24.366c.28.19.633.28 1.016.28.677 0 1.07-.293 1.07-.705 0-.38-.309-.579-.82-.646l-.24-.033c-.221-.026-.398-.067-.398-.212 0-.158.167-.253.447-.253.3 0 .59.104.731.185l.221-.38Zm5.964.09a.705.705 0 0 1 .618-.318c.104 0 .251.018.364.06l-.157.442a.891.891 0 0 0-.32-.054c-.334 0-.5.199-.5.557v1.212h-.51v-2.162h.505v.262Zm-3.737-.262h-.834v-.655h-.516v.655h-.476v.43h.476v.986c0 .502.211.8.815.8.221 0 .476-.062.638-.167l-.147-.402c-.152.081-.32.122-.452.122-.255 0-.338-.145-.338-.362v-.977h.834v-.43Zm-7.63.804v1.357h-.516v-1.204c0-.366-.166-.57-.515-.57-.339 0-.574.2-.574.575v1.199h-.516v-1.204c0-.366-.172-.57-.51-.57-.35 0-.576.2-.576.575v1.199h-.515v-2.162h.51v.266c.193-.253.438-.32.688-.32.359 0 .614.144.776.384.216-.303.525-.39.825-.385.57.005.923.349.923.86Z" clip-rule="evenodd"/><path fill="#FF5F00" d="M72.229 26.37h-7.735V13.566h7.735V26.37Z"/><path fill="#EB001B" d="M64.986 19.966c0-2.597 1.32-4.91 3.377-6.402-1.504-1.09-3.401-1.74-5.463-1.74-4.882 0-8.84 3.645-8.84 8.142 0 4.498 3.958 8.143 8.84 8.143 2.062 0 3.96-.65 5.463-1.74-2.056-1.492-3.377-3.805-3.377-6.403Z"/><path fill="#F79E1B" d="M82.666 19.966c0 4.498-3.957 8.143-8.84 8.143-2.061 0-3.959-.65-5.463-1.74 2.057-1.492 3.377-3.805 3.377-6.403 0-2.597-1.32-4.91-3.377-6.402 1.504-1.09 3.402-1.74 5.464-1.74 4.882 0 8.839 3.645 8.839 8.142Z"/><path fill="#0E4595" d="m21.341 27.82 1.983-11.392h3.17L24.512 27.82h-3.17Zm14.627-11.146a8.346 8.346 0 0 0-2.842-.479c-3.134 0-5.34 1.545-5.36 3.76-.017 1.636 1.576 2.55 2.779 3.094 1.234.559 1.65.915 1.643 1.413-.008.764-.986 1.113-1.897 1.113-1.27 0-1.944-.173-2.985-.598l-.409-.181-.445 2.55c.741.318 2.11.593 3.533.608 3.333 0 5.497-1.528 5.522-3.892.012-1.296-.833-2.282-2.663-3.095-1.108-.527-1.787-.879-1.78-1.412 0-.474.575-.98 1.816-.98a5.958 5.958 0 0 1 2.374.436l.284.132.43-2.47Zm8.16-.246h-2.45c-.76 0-1.328.203-1.66.945l-4.71 10.439h3.33s.544-1.404.667-1.712l4.061.005c.095.399.386 1.707.386 1.707h2.943l-2.567-11.384Zm-3.888 7.356c.263-.656 1.264-3.185 1.264-3.185-.019.03.26-.66.42-1.087l.214.982.735 3.29H40.24Zm-21.59-7.356-3.105 7.768-.331-1.578c-.578-1.82-2.379-3.792-4.392-4.779l2.84 9.962 3.354-.003 4.993-11.37h-3.36"/><path fill="#F2AE14" d="M12.654 16.43H7.541l-.041.237c3.978.943 6.61 3.221 7.704 5.96l-1.112-5.235c-.192-.722-.75-.937-1.438-.962"/></svg>