<svg xmlns="http://www.w3.org/2000/svg" width="145" height="41" fill="none"><path fill="#fff" d="M52.664 30V11.088h5.92c.853 0 1.568.128 2.144.384.576.235 1.013.63 1.312 1.184.32.555.48 1.29.48 2.208v11.04c0 1.067-.181 1.899-.544 2.496a2.73 2.73 0 0 1-1.472 1.248c-.619.235-1.365.352-2.24.352h-5.6Zm2.56-1.344h2.688c.661 0 1.184-.181 1.568-.544.384-.363.576-1.045.576-2.048V15.152c0-1.003-.192-1.685-.576-2.048-.384-.363-.907-.544-1.568-.544h-2.688v16.096ZM70.522 30.384c-.96 0-1.803-.117-2.528-.352-.725-.213-1.301-.672-1.728-1.376-.427-.704-.64-1.76-.64-3.168V15.056c0-1.173.213-2.059.64-2.656a3.103 3.103 0 0 1 1.728-1.248c.747-.213 1.6-.32 2.56-.32s1.803.117 2.528.352c.747.213 1.333.619 1.76 1.216.427.597.64 1.483.64 2.656v10.432c0 1.43-.213 2.496-.64 3.2-.427.683-1.013 1.13-1.76 1.344-.747.235-1.6.352-2.56.352Zm0-1.504c.49 0 .917-.064 1.28-.192.384-.128.683-.373.896-.736.213-.384.32-.95.32-1.696V14.992c0-.725-.107-1.27-.32-1.632-.213-.384-.512-.64-.896-.768-.363-.128-.79-.192-1.28-.192s-.917.064-1.28.192-.65.384-.864.768c-.213.363-.32.907-.32 1.632v11.264c0 .747.107 1.312.32 1.696.213.363.501.608.864.736s.79.192 1.28.192ZM82.82 30.352a6.644 6.644 0 0 1-2.112-.32c-.64-.213-1.163-.64-1.568-1.28-.384-.661-.576-1.653-.576-2.976v-10.72c0-1.152.213-2.027.64-2.624a3.103 3.103 0 0 1 1.728-1.248c.746-.235 1.6-.352 2.56-.352s1.802.117 2.528.352c.746.235 1.333.65 1.76 1.248.426.597.64 1.472.64 2.624v2.496h-2.4v-2.56c0-.747-.107-1.301-.32-1.664-.214-.384-.512-.63-.896-.736-.363-.128-.79-.192-1.28-.192-.491 0-.928.064-1.312.192-.363.107-.651.352-.864.736-.214.363-.32.917-.32 1.664v11.264c0 .768.106 1.344.32 1.728.213.363.5.608.864.736.384.107.82.16 1.312.16.725 0 1.322-.224 1.792-.672.469-.448.704-1.099.704-1.952v-3.872h-2.208v-1.472h4.608V30h-1.856l-.128-1.728a3.583 3.583 0 0 1-.224.384 3.362 3.362 0 0 1-.192.288c-.278.405-.672.747-1.184 1.024-.512.256-1.184.384-2.016.384ZM91.695 30V11.088h8.32v1.76h-5.728v6.336h4.64v1.92h-4.64v7.168h5.728V30h-8.32ZM107.242 30.384c-.96 0-1.813-.117-2.56-.352-.746-.213-1.333-.672-1.76-1.376-.426-.704-.64-1.76-.64-3.168V15.056c0-1.173.214-2.059.64-2.656a3.109 3.109 0 0 1 1.76-1.248c.768-.213 1.632-.32 2.592-.32.982 0 1.824.117 2.528.352.726.213 1.291.619 1.696 1.216.427.597.64 1.483.64 2.656v3.456h-2.464v-3.52c0-.768-.106-1.333-.32-1.696-.213-.384-.501-.63-.864-.736a3.735 3.735 0 0 0-1.248-.192c-.469 0-.885.064-1.248.192-.362.107-.65.352-.864.736-.192.363-.288.928-.288 1.696v11.264c0 .768.096 1.344.288 1.728.214.363.502.608.864.736.363.107.779.16 1.248.16.491 0 .907-.053 1.248-.16.363-.128.651-.373.864-.736.214-.384.32-.96.32-1.728v-3.072h2.464v2.304c0 1.43-.213 2.496-.64 3.2-.405.683-.97 1.13-1.696 1.344-.725.235-1.578.352-2.56.352ZM119.96 30.384c-.96 0-1.803-.117-2.528-.352-.726-.213-1.302-.672-1.728-1.376-.427-.704-.64-1.76-.64-3.168V15.056c0-1.173.213-2.059.64-2.656a3.099 3.099 0 0 1 1.728-1.248c.746-.213 1.6-.32 2.56-.32s1.802.117 2.528.352c.746.213 1.333.619 1.76 1.216.426.597.64 1.483.64 2.656v10.432c0 1.43-.214 2.496-.64 3.2-.427.683-1.014 1.13-1.76 1.344-.747.235-1.6.352-2.56.352Zm0-1.504c.49 0 .917-.064 1.28-.192.384-.128.682-.373.896-.736.213-.384.32-.95.32-1.696V14.992c0-.725-.107-1.27-.32-1.632-.214-.384-.512-.64-.896-.768-.363-.128-.79-.192-1.28-.192-.491 0-.918.064-1.28.192-.363.128-.651.384-.864.768-.214.363-.32.907-.32 1.632v11.264c0 .747.106 1.312.32 1.696.213.363.501.608.864.736.362.128.789.192 1.28.192ZM128.289 30V11.088h2.464V30h-2.464ZM134.414 30V11.088h2.176l5.376 13.888V11.088h2.208V30h-2.208l-5.344-13.28V30h-2.208Z"/><path fill="#988430" d="M20.5 41C31.822 41 41 31.822 41 20.5S31.822 0 20.5 0 0 9.178 0 20.5 9.178 41 20.5 41Z"/><path fill="#7A6A2A" d="M20.5 40.343c10.959 0 19.843-8.884 19.843-19.844C40.343 9.54 31.459.657 20.499.657 9.54.656.657 9.54.657 20.5c0 10.959 8.884 19.843 19.844 19.843Z"/><path fill="#BA9F33" d="M20.503 39.925c10.729 0 19.426-8.697 19.426-19.425 0-10.729-8.697-19.426-19.426-19.426C9.775 1.074 1.078 9.771 1.078 20.5c0 10.729 8.697 19.426 19.425 19.426Z"/><mask id="a" width="39" height="39" x="1" y="1" maskUnits="userSpaceOnUse" style="mask-type:luminance"><path fill="#fff" d="M20.503 39.925c10.729 0 19.426-8.697 19.426-19.425 0-10.729-8.697-19.426-19.426-19.426C9.775 1.074 1.078 9.771 1.078 20.5c0 10.729 8.697 19.426 19.425 19.426Z"/></mask><g mask="url(#a)"><path fill="#E2CC85" d="m15.603 28.529-.65-1.23.378-1.54 2.697-1.042-1.148-2.355.568-2.378 1.064-2.13 3.291-.517 2.418-2.306 5.221.395 1.025 5.583-1.973 7.029-1.125 3.639-4.558.172-2.116-1.466-2.478-1.035-2.614-.82Z"/></g><mask id="b" width="39" height="39" x="1" y="1" maskUnits="userSpaceOnUse" style="mask-type:luminance"><path fill="#fff" d="M20.503 39.925c10.729 0 19.426-8.697 19.426-19.425 0-10.729-8.697-19.426-19.426-19.426C9.775 1.074 1.078 9.771 1.078 20.5c0 10.729 8.697 19.426 19.425 19.426Z"/></mask><g mask="url(#b)"><path fill="#F1D789" d="M23.59 28.489s-.63.288-1.704.222c-.312-.418-2.492-.614-2.492-.614s-.272-.082-.753.116c-.484.196-.942.173-1.37.28-.428.105-.852-.452-1.18-.568-.329-.123-.763-.418-.763-.418l-.92-.09-1.844-.78-2.929-2.918-.796 1.247-.245 1.543.885 1.827 2.386 2.173 4.65 1.18 2.757-.812 3.453-1.46.866-.928Z"/></g><mask id="c" width="39" height="39" x="1" y="1" maskUnits="userSpaceOnUse" style="mask-type:luminance"><path fill="#fff" d="M20.503 39.925c10.729 0 19.426-8.697 19.426-19.425 0-10.729-8.697-19.426-19.426-19.426C9.775 1.074 1.078 9.771 1.078 20.5c0 10.729 8.697 19.426 19.425 19.426Z"/></mask><g mask="url(#c)"><path fill="#F4ECB4" d="m7.074 18.17.59-1.788.704-1.154 2.265-.189-.68 1.984-1.894 3.37.787 3.009-1.394.696-.428-.657-.345-1.506-.023-1.691.418-2.073Z"/></g><mask id="d" width="39" height="39" x="1" y="1" maskUnits="userSpaceOnUse" style="mask-type:luminance"><path fill="#fff" d="M20.503 39.925c10.729 0 19.426-8.697 19.426-19.425 0-10.729-8.697-19.426-19.426-19.426C9.775 1.074 1.078 9.771 1.078 20.5c0 10.729 8.697 19.426 19.425 19.426Z"/></mask><g mask="url(#d)"><path fill="#F3E19D" d="m9.615 28.363-.434-.607s-.117-.289-.05-.541c.066-.256.056-.272.023-.368-.033-.096-.312-.428-.295-.713.016-.289-.023-.385.189-.614.222-.222.156-.607.156-.607l.288.179.067-.1s.106.083.106.213c.023-.18-.073-1.009.146-1.198.222-.189.607.886.607.886l-.239-1.56-.614-1.598-1.091-1.46-.066-1.608v-.14s-.501.77-.64 1.377c-.1.418.139.925.089 1.526-.04.597-.09.55.056.786.146.235.501.723.362 1.075-.123.302-.54.09-.54.09s-.084.245-.196.334a.745.745 0 0 0-.163-.328c-.007.056-.023.133-.023.133s-.073-.23-.146-.518c-.1-.385-.206-.892-.302-1.164-.04.156-.14.63-.14.63l.057.73.272 1.002.262.657.256.802.222.54.179.412.156.926.753.796.401.179.292-.15Z"/></g><mask id="e" width="39" height="39" x="1" y="1" maskUnits="userSpaceOnUse" style="mask-type:luminance"><path fill="#fff" d="M20.503 39.925c10.729 0 19.426-8.697 19.426-19.425 0-10.729-8.697-19.426-19.426-19.426C9.775 1.074 1.078 9.771 1.078 20.5c0 10.729 8.697 19.426 19.425 19.426Z"/></mask><g mask="url(#e)"><path fill="#F2E8B0" d="M7.465 16.71s-.54.92-.697 1.845c-.156.925-.295 1.904-.195 3.164.099 1.27.288 2.05.44 2.608.263.925.943 2.212.943 2.212l.023-.05s-.18-.328-.272-.68c-.09-.351-.123-.77-.206-.958-.073-.19-.195-.352-.255-.584-.056-.222-.066-.574-.239-.836-.073-.106-.162-.385-.189-.663-.033-.418.017-.886-.023-1.27-.073-.641-.123-1.076-.057-1.41.067-.336.412-1.288.624-2.044.14-.484.056-.892.312-1.314.255-.418.411-.786.468-1.041.066-.232-.677 1.021-.677 1.021Z"/></g><mask id="f" width="39" height="39" x="1" y="1" maskUnits="userSpaceOnUse" style="mask-type:luminance"><path fill="#fff" d="M20.503 39.925c10.729 0 19.426-8.697 19.426-19.425 0-10.729-8.697-19.426-19.426-19.426C9.775 1.074 1.078 9.771 1.078 20.5c0 10.729 8.697 19.426 19.425 19.426Z"/></mask><g mask="url(#f)"><path fill="#F5EEC0" d="M10.034 16.344s-.279.083-.412.229c-.132.139-.189.255-.368.49-.179.24-.189.428-.335.724-.146.288-.468.723-.507.879-.04.156-.107.885-.19 1.23-.072.345.084.77.084.77l.189-.04s0 .246.189.412c.189.162.222-.551.222-.551l.706-2.385 1.065-.723.116-.584-.76-.451Z"/></g><mask id="g" width="39" height="39" x="1" y="1" maskUnits="userSpaceOnUse" style="mask-type:luminance"><path fill="#fff" d="M20.503 39.925c10.729 0 19.426-8.697 19.426-19.425 0-10.729-8.697-19.426-19.426-19.426C9.775 1.074 1.078 9.771 1.078 20.5c0 10.729 8.697 19.426 19.425 19.426Z"/></mask><g mask="url(#g)"><path fill="#E6DB9D" d="M10.546 17.426s-.501.033-.747.212c-.1.073-.14.133-.245.222-.196.163-.395.312-.491.525-.106.212-.222.534-.302 1.14-.033.256-.033.492-.056.697-.034.279-.083.501-.057.657.033.319.362.484.395.846l.68-.345.64-2.524 1.36-.853-.77-.862-.407.285Z"/></g><mask id="h" width="39" height="39" x="1" y="1" maskUnits="userSpaceOnUse" style="mask-type:luminance"><path fill="#fff" d="M20.503 39.925c10.729 0 19.426-8.697 19.426-19.425 0-10.729-8.697-19.426-19.426-19.426C9.775 1.074 1.078 9.771 1.078 20.5c0 10.729 8.697 19.426 19.425 19.426Z"/></mask><g mask="url(#h)"><path fill="#E5CB7A" d="m10.652 39.959-3.035.073-1.61-.123.124-1.46c.056-.172.245-.663.301-.752.04-.133.09-.468-.023-.88.073-.115.302-.178.557-2.467.1-.853.117-1.5.19-1.904.106-.574.179-.787.162-1.002-.023-.345-.05-.597-.016-.863.05-.351.394-.77.384-1.058-.006-.229-.122-.378-.222-.517-.1-.14-.18-.256-.18-.256s.68-.467.674-2.352c.024.007.04.017.04.017l.335.952.229.279.88 1.638 1.13 1.098 1.672 1.125 1.048 1.141.106 3.042-1.37 1.778-1.376 2.491Z"/></g><mask id="i" width="39" height="39" x="1" y="1" maskUnits="userSpaceOnUse" style="mask-type:luminance"><path fill="#fff" d="M20.503 39.925c10.729 0 19.426-8.697 19.426-19.425 0-10.729-8.697-19.426-19.426-19.426C9.775 1.074 1.078 9.771 1.078 20.5c0 10.729 8.697 19.426 19.425 19.426Z"/></mask><g mask="url(#i)"><path fill="#D8C173" d="M11.14 37.334s.024-.379.336-.624c.05.083.083.163.073.222.056-.1.45-.736 1.343-.902.892-.163 1.108-.813 1.108-.813l1.894-1.721 2.166-1.994 2.634-.925 1.23-.302s.024.09-.023.288c.23-.016.737-.132 1.264-.318.213-.083.412-.116.518-.007.156.146.179.491.189.697.255-.057.55-.302.786-.279.378.04.713.485 1.098.485.508 0 .736-.312 1.091-.558.213-.146.518-.328.69-.451.412-.302 4.764-1.632 4.764-1.632l1.526.1.245 1.638-.133 4.306-6.986 3.649-11.012 1.688-4.485-1.148-.315-1.4Z"/></g><mask id="j" width="39" height="39" x="1" y="1" maskUnits="userSpaceOnUse" style="mask-type:luminance"><path fill="#fff" d="M20.503 39.925c10.729 0 19.426-8.697 19.426-19.425 0-10.729-8.697-19.426-19.426-19.426C9.775 1.074 1.078 9.771 1.078 20.5c0 10.729 8.697 19.426 19.425 19.426Z"/></mask><g mask="url(#j)"><path fill="#F1D789" d="M6.492 39.969s.402-.91.59-2.223c.157-1.075.017-1.32.057-1.665.056-.518.64-1.526.69-1.722.04.402.156 1.918.574 2.256-.09.133-.239.59.295.942-.09.19-.272.418-.156.763.116.345.256.836.19 1.377-.19.04-.395.122-.558.278-.163.146-1.682-.006-1.682-.006Z"/></g><mask id="k" width="39" height="39" x="1" y="1" maskUnits="userSpaceOnUse" style="mask-type:luminance"><path fill="#fff" d="M20.503 39.925c10.729 0 19.426-8.697 19.426-19.425 0-10.729-8.697-19.426-19.426-19.426C9.775 1.074 1.078 9.771 1.078 20.5c0 10.729 8.697 19.426 19.425 19.426Z"/></mask><g mask="url(#k)"><path fill="#E0CD81" d="m13.365 39.334 2.445-.68.106.033s.056.034.056.146c.156-.09.29-.073.385-.132.05.106.1.457.319.5.229.05.474-.099.723-.288.245-.196.524-.441.736-.54.04.066.14.271.206.44.279-.222.763-1.124 1.453-1.108.066-.155.312-.723.959-1.157.64-.435 1.041-.468 1.542-.428.196-.255.451-.484.723-.647.083.033.312.172.597.04.289-.133.614-.647 1.042-.713.378-.057.663.139.663.139s1.247-1.237 2.107-1.649c-.034-.1-.1-.474.909-1.303.056.05.016.189.056.195.017 0 .262-.106.574-.345.385-.288.846-.59 1.124-.673.524-.156 1.082.163 1.082.163s.066-.05.156-.073c.132-.024.229-.04.302-.067-.007.173.089.468 0 .723 0 0 .139.083.328.14-.056.123-.18.434-.385.584.173.083.196.179.441.262-.1.139-.262.378-.335.524-.073.156-.335.802-.45 1.048-.124.245-.29.697-.37.786-.082.09-.367.474-.59.663a27.703 27.703 0 0 1 1.344-.41c-.206.301-2.107 3.124-2.107 3.124l-3.828 1.141-1.877.319-9.782-.007-.863-.428.21-.322Z"/></g><mask id="l" width="39" height="39" x="1" y="1" maskUnits="userSpaceOnUse" style="mask-type:luminance"><path fill="#fff" d="M20.503 39.925c10.729 0 19.426-8.697 19.426-19.425 0-10.729-8.697-19.426-19.426-19.426C9.775 1.074 1.078 9.771 1.078 20.5c0 10.729 8.697 19.426 19.425 19.426Z"/></mask><g mask="url(#l)"><path fill="#DFC57C" d="M10.632 17.335s-.288 0-.345.04c-.056.04.289.123.395.163.106.04.335.222.395.368.056.14 2.073.952 2.073.952l1.426-.073.492-.68-.936-.82.657-1.933-.87.139-2.09 1.247-1.047.402-.15.195Z"/></g><mask id="m" width="39" height="39" x="1" y="1" maskUnits="userSpaceOnUse" style="mask-type:luminance"><path fill="#fff" d="M20.503 39.925c10.729 0 19.426-8.697 19.426-19.425 0-10.729-8.697-19.426-19.426-19.426C9.775 1.074 1.078 9.771 1.078 20.5c0 10.729 8.697 19.426 19.425 19.426Z"/></mask><g mask="url(#m)"><path fill="#E5CC7C" d="M13.761 17.975s.057.106.196.106c.295 0 .567.073.68.222.189.24.713 1.002.713 1.002l1.254.451.083-1.476-1.37-.952-1.56.574v.073h.004Z"/></g><mask id="n" width="39" height="39" x="1" y="1" maskUnits="userSpaceOnUse" style="mask-type:luminance"><path fill="#fff" d="M20.503 39.925c10.729 0 19.426-8.697 19.426-19.425 0-10.729-8.697-19.426-19.426-19.426C9.775 1.074 1.078 9.771 1.078 20.5c0 10.729 8.697 19.426 19.425 19.426Z"/></mask><g mask="url(#n)"><path fill="#D2C281" d="M13.514 18.523s.229.017.518-.09c.288-.105.762-.334.968-.245.289.123.23.508.54.853.19.212.535.206.73.434.196.23.87.123.87.123l.255 1.377-1.025 1.313-.335 1.632H14.65l-1.268-.5-.623-1.51.312-1.526.444-1.86Z"/></g><mask id="o" width="39" height="39" x="1" y="1" maskUnits="userSpaceOnUse" style="mask-type:luminance"><path fill="#fff" d="M20.503 39.925c10.729 0 19.426-8.697 19.426-19.425 0-10.729-8.697-19.426-19.426-19.426C9.775 1.074 1.078 9.771 1.078 20.5c0 10.729 8.697 19.426 19.425 19.426Z"/></mask><g mask="url(#o)"><path fill="#E2C270" d="M16.193 18.587s.05.017.106.017c-.04.033-.123.106-.09.295.034.19.14.428.05.574.04.05.1.106.156.272.056.163.073.312.441.335-.083.05-.146.116-.146.116s.256.222.385.428c.133-.006.484-.116.484-.116l.073.05.156-.067s-.146-.056-.04-.41c.1-.313.19-.296.196-.32a3.41 3.41 0 0 0 .073-.484c.05-.172.09-.696.09-.696l-.107-1.158-.597-.361-.484-.468-.458.862-.302.302-.023.746.037.083Z"/></g><mask id="p" width="39" height="39" x="1" y="1" maskUnits="userSpaceOnUse" style="mask-type:luminance"><path fill="#fff" d="M20.503 39.925c10.729 0 19.426-8.697 19.426-19.425 0-10.729-8.697-19.426-19.426-19.426C9.775 1.074 1.078 9.771 1.078 20.5c0 10.729 8.697 19.426 19.425 19.426Z"/></mask><g mask="url(#p)"><path fill="#CCB360" d="M17.633 17.622s.106.302.146.534c.023-.073.023-.14.023-.14s.083.459.1.648c.033-.007.066-.017.072.016.007.033.083.402.067.607.04-.073.229-.361.557-.557.133-.083.289-.172.451-.18.256-.006.441.163.747.163.736 0 1.403-.54 1.894-.706.361-.123.673-.213.892-.412.106-.09.295-.288.468-.583.229-.395.467-.737.706-.78-.189.033-.328.023-.328.023s.073-.073.196-.172c.122-.1.272-.222.484-.222.378 0 .567.056.78.056a1.06 1.06 0 0 0 .334-.056s.223.155.724.155c.5.007.835.05 1.098.074.262.023 1.14-.073 1.393-.067.262.007.474.116.474.116l-.813-2.361-2.919-2.551-1.738 1.23-2.674 2.674-2.587.959-.54.607v.925h-.007Z"/></g><mask id="q" width="39" height="39" x="1" y="1" maskUnits="userSpaceOnUse" style="mask-type:luminance"><path fill="#fff" d="M20.503 39.925c10.729 0 19.426-8.697 19.426-19.425 0-10.729-8.697-19.426-19.426-19.426C9.775 1.074 1.078 9.771 1.078 20.5c0 10.729 8.697 19.426 19.425 19.426Z"/></mask><g mask="url(#q)"><path fill="#D5B457" d="M23.439 16.268s.073-.073.195-.172c.123-.1.272-.222.485-.222.378 0 .567.056.78.056.211-.006.334-.056.334-.056s.223.156.723.156c.501.006.836.05 1.098.073.262.023 1.141-.073 1.394-.067.262.007.474.116.474.116l-.368-1.064-.428-.813-1.22-1.337-1.477-.869c-.007-.007-.508-.14-.508-.14l-1.326.803-1.205 3.115-.023.657.78.368c.195-.328.411-.59.613-.623-.182.02-.321.02-.321.02Z"/></g><mask id="r" width="39" height="39" x="1" y="1" maskUnits="userSpaceOnUse" style="mask-type:luminance"><path fill="#fff" d="M20.503 39.925c10.729 0 19.426-8.697 19.426-19.425 0-10.729-8.697-19.426-19.426-19.426C9.775 1.074 1.078 9.771 1.078 20.5c0 10.729 8.697 19.426 19.425 19.426Z"/></mask><g mask="url(#r)"><path fill="#D2B257" d="M23.42 16.488c-.116.007-.212-.016-.239-.1-.1-.278-.179-.318-.262-.318-.083 0-.195.18-.262.196-.066.017-.146-.205-.146-.205l-.073-.034s-.428.279-.73.607c-.301.329-.796.886-1.018.986-.222.1-.985.132-1.247.189-.262.056-.55.245-.59.288-.04.043.115.09.139.133.023.04-.256.023-.279.066-.017.033.066.223.106.319a.542.542 0 0 1 .23-.057c.255-.006.44.163.745.163.737 0 1.404-.54 1.895-.707.361-.122.673-.212.892-.411.106-.09.295-.289.468-.584a4.18 4.18 0 0 1 .371-.53Z"/></g><mask id="s" width="39" height="39" x="1" y="1" maskUnits="userSpaceOnUse" style="mask-type:luminance"><path fill="#fff" d="M20.503 39.925c10.729 0 19.426-8.697 19.426-19.425 0-10.729-8.697-19.426-19.426-19.426C9.775 1.074 1.078 9.771 1.078 20.5c0 10.729 8.697 19.426 19.425 19.426Z"/></mask><g mask="url(#s)"><path fill="#D2B159" d="M12.858 32.906s-.066-.245-.673-.879c-.173-.179-.28-.328-.395-.434-.289-.272-.458-.345-.664-.501-.45-.335-.942-.335-1.32-.747-.378-.411-.82-1.197-1.124-2-.302-.803-.385-1.058-.385-1.081 0-.023.083-.18.189-.156.106.023.106.229.133.279.006.016.083.122.179.228.156.18.378.395.49.713-.023-.271-.115-.573-.115-.573s.583.368 1.081.753c.5.384.707.517.853.763.146.245.49.892.656 1.081.166.19 2.428.902 2.428.902l1.075.803.534 1.171-.418.657-.802.172-1.304-.584-.418-.567Z"/></g><mask id="t" width="39" height="39" x="1" y="1" maskUnits="userSpaceOnUse" style="mask-type:luminance"><path fill="#fff" d="M20.503 39.925c10.729 0 19.426-8.697 19.426-19.425 0-10.729-8.697-19.426-19.426-19.426C9.775 1.074 1.078 9.771 1.078 20.5c0 10.729 8.697 19.426 19.425 19.426Z"/></mask><g mask="url(#t)"><path fill="#C2A44D" d="M9.969 28.873s.272.434.936.846c.597.361 1.542.69 2.385.885.484.116.968.206 1.403.213 1.17.016 1.977-.319 2.975-.428.54-.057 1.204-.1 1.894-.262.886-.213 1.41-.451 2.123-.787.518-.238.992-.418 1.377-.646.54-.319.935-.674 1.393-.78-.056.156-.116.435-.567.723.239-.006.567-.023.567-.023s-.318.19-.879.614c-.345.262-.803.706-1.27 1.001-.302.19-.63.329-.846.442-.524.288-.737.434-1.082.786a.458.458 0 0 1 .133 0s-.435.056-.746.222c-.067 0-.18-.023-.379.033-.155.05-.361.163-.573.223-.302.089-.402.05-.402.05l.05.099s-.395-.007-.524.006c.023.007.016.017.016.017s-.016 0-.066.023c-.04.023-.106.066-.206.09-.04.006-.073.006-.122.016.016.04.146.262.205.395-.05.033-.796.597-.796.597s.033.05.057.116c.023.073.033.18.056.23.056.099.09.115.09.115s-.09.017-.246.057c-.133.033-.295.09-.524.122-.066.007-.14.017-.212.017.033.073.179.352-.09.673-.272.319-.351.368-.434.574-.024-.016-.067-.05-.133-.083-.09-.04-.212-.1-.255-.179-.007.033-.04.163-.1.312-.083.222-.206.441-.229.607-.09-.1-.255-.295-.484-.255-.23.04-.412.351-.451.44 0-.056-.04-.099-.05-.032-.007.072-.133.836-.836 1.453-.007-.156-.007-.501-.023-.614-.067.066-.146.162-.624.368-.468.206-.395.411-.395.411s-.04-.328.213-.673c.255-.345.411-.508.411-.534a.148.148 0 0 0-.033-.073c-.033-.033-.1-.073-.1-.1.04-.016.435-.205.412-.597a1.06 1.06 0 0 0-.279-.663c-.017-.017.156-.14.133-.18-.017-.023-.23-.178-.256-.261.007-.04.017-.106.033-.146.024-.073.04-.123.034-.173-.017-.083-.107-.312-.133-.335.023.007.189 0 .189 0s-.133-.212-.156-.312c-.023-.1-.073-.361-.1-.41.057.006.196.016.196 0 .007-.05-.122-.134-.066-.197.04.007.116.04.189.133-.04-.106-.106-.312-.245-.395.066-.023.288-.083.484.034a.648.648 0 0 1 .262.278s.116.09.295.222c.206.163.468.395.886.558.09.05.318.05.484.016.1-.023.156-.056.206-.083.04-.023.073-.033.073-.033s-.067-.133-.123-.206c.056 0 .123.007.123.007s.04-.09-.14-.262c.04-.04.09-.066.09-.133-.056-.006-.156-.09-.18-.122.034-.024.084-.1.14-.123-.05-.04-.172-.206-.229-.222.057-.017.156-.073.156-.073s-.278-.073-.368-.133c-.09-.066-.222-.18-.302-.212-.083-.033-.229-.05-.288-.116.056.016.146 0 .212 0 .05 0 .073.006.09.006-.007-.023-.007-.073.122-.09a.607.607 0 0 0 .18-.056s-.123-.006-.263-.139-.255-.239-.335-.256c-.083-.016-.239.057-.335.05-.133-.016-.189-.083-.189-.083s-.441.04-1.42-.557c-.845-.517-1.214-.975-1.214-.975s-.1-.033-.229-.106c-.318-.166-.76-.511-.746-.962Z"/></g><mask id="u" width="39" height="39" x="1" y="1" maskUnits="userSpaceOnUse" style="mask-type:luminance"><path fill="#fff" d="M20.503 39.925c10.729 0 19.426-8.697 19.426-19.425 0-10.729-8.697-19.426-19.426-19.426C9.775 1.074 1.078 9.771 1.078 20.5c0 10.729 8.697 19.426 19.425 19.426Z"/></mask><g mask="url(#u)"><path fill="#CAA13E" d="M22.168 8.963s.116.033.195.133c.156.179.256.517-.1.879.14.05.196.066.32.05-.124.146-.402.457-.419.73-.016.222.123.288.123.288s-.212.245-.222.657c.05-.057.162-.18.328-.312.245-.196.584-.418.813-.557a.471.471 0 0 0 .023.172s.428-.351.786-.196c.163.073.09.302.09.302s.222-.083.378.073.378.557.49.713c.05.073.18.213.313.428.155.256.328.607.45.952.007-.172.05-.44.541-.272.491.173 1.049.534 1.516 1.248.468.713.584 1.516.82 1.82.239.296.484.787.5.993.017.205-.072.869.419 2.663.139-.557.351-1.794.351-1.794L30 16.84l.133-3.377-3.526-2.929-2.757-2-1.794.173.113.255Z"/></g><mask id="v" width="39" height="39" x="1" y="1" maskUnits="userSpaceOnUse" style="mask-type:luminance"><path fill="#fff" d="M20.503 39.925c10.729 0 19.426-8.697 19.426-19.425 0-10.729-8.697-19.426-19.426-19.426C9.775 1.074 1.078 9.771 1.078 20.5c0 10.729 8.697 19.426 19.425 19.426Z"/></mask><g mask="url(#v)"><path fill="#B59544" d="M28.723 13.986s-.05-.328-.879-.886c-.83-.55-1.476-.55-2.073-1.018-.458-.368-.936-1.214-1.248-1.493-.301-.275-.351-1.071-.351-1.071l1.018-.852 1.516-2.19 1.28-1.41.614.853.853 1.002.474 2.01.173 2.942-1.377 2.113Z"/></g><mask id="w" width="39" height="39" x="1" y="1" maskUnits="userSpaceOnUse" style="mask-type:luminance"><path fill="#fff" d="M20.503 39.925c10.729 0 19.426-8.697 19.426-19.425 0-10.729-8.697-19.426-19.426-19.426C9.775 1.074 1.078 9.771 1.078 20.5c0 10.729 8.697 19.426 19.425 19.426Z"/></mask><g mask="url(#w)"><path fill="#C89D3A" d="M29.749 17.512s.056-.64-.163-1.32-.696-1.887-.919-2.339c-.09-.5-.023-.54.073-.597.1-.056.458-.262.657-.985.196-.723.813-.746.813-.746l.378-.279.574 1.436.5 1.297.157.992.116.846-.272 1.788-1.344 1.214-.57-1.307Z"/></g><mask id="x" width="39" height="39" x="1" y="1" maskUnits="userSpaceOnUse" style="mask-type:luminance"><path fill="#fff" d="M20.503 39.925c10.729 0 19.426-8.697 19.426-19.425 0-10.729-8.697-19.426-19.426-19.426C9.775 1.074 1.078 9.771 1.078 20.5c0 10.729 8.697 19.426 19.425 19.426Z"/></mask><g mask="url(#x)"><path fill="#CEB052" d="M10.653 39.958s-.302-.557-.318-.796c-.007-.23.083-.379.083-.379s-.116-.172-.223-.212a.73.73 0 0 1 .156-.351c.09-.106.262-.246.295-.296.034-.05.05-.116.146-.132.1-.017.206-.017.206-.146v-.24s.04-.022.073-.065c.023-.034.04-.073.056-.083a.614.614 0 0 1 .272-.05c.083.017.302.106.418.1.24-.007.518-.19.96-.107.663.123.818.574 1.203.83.262.179.534.1.574.1h.09c.016 0 .139-.14.205-.134.133.007.146.117.23.123.195.023.573-.1.762-.05a.368.368 0 0 1 .15.607c-.206.19-.402.369-.442.525.057.04.156.132.156.132s-.09.083-.255.163c-.073.033-.19.09-.319.106-.245.023-.55.056-.73.318-.179.262-.796.116-.796.116l-2.952-.08Z"/></g><mask id="y" width="39" height="39" x="1" y="1" maskUnits="userSpaceOnUse" style="mask-type:luminance"><path fill="#fff" d="M20.503 39.925c10.729 0 19.426-8.697 19.426-19.425 0-10.729-8.697-19.426-19.426-19.426C9.775 1.074 1.078 9.771 1.078 20.5c0 10.729 8.697 19.426 19.425 19.426Z"/></mask><g mask="url(#y)"><path fill="#CCA847" d="M28.664 30.815s.517-.69.697-1.031c.179-.352-.568-4.813-.568-4.813l1.5-4.913-.04-1.599s.073-1.476.245-2.116c.206.368.846.812.986 1.048.066-.451.288-1.403.255-2.418.123.189.418 2.09.418 2.09l.295 1.28.385 1.36.428 1.436.255.992.146.239.123.418.116.451.335 1.058.196.87.156 1.575s.056.196.073.368c.006.173-.023.272-.023.302 0 .033.056.378.033.64-.033.262-.033.468-.24.657-.205.19-.334 1.314-.334 1.314l-.368-.246s.073-.335-.1-.64a.652.652 0 0 0-.696-.319c-.19.04-.568.1-.69.206-.117.106-.402.435-.664.584-.328.196-.862.212-1.148.279-.288.066-.607.262-.942.49-.348.226-.7.389-.829.438Z"/></g><mask id="z" width="39" height="39" x="1" y="1" maskUnits="userSpaceOnUse" style="mask-type:luminance"><path fill="#fff" d="M20.503 39.925c10.729 0 19.426-8.697 19.426-19.425 0-10.729-8.697-19.426-19.426-19.426C9.775 1.074 1.078 9.771 1.078 20.5c0 10.729 8.697 19.426 19.425 19.426Z"/></mask><g mask="url(#z)"><path fill="#C39D3C" d="M28.664 38.065s.289.189.82.318c.53.13 1.887.909 1.887.909l1.141.696 1.41.107 1.237-.173s.04-.524-.04-2.478c-.083-1.96-.146-2.239-.146-2.385 0-.146-.05-2.634-.106-3.174-.056-.541-.016-1.092-.033-1.41-.017-.319-.196-1.616-.279-1.95-.09-.336-.262-.502-.288-.502-.024.007-.163.63-.163.787 0 .155-.033.534-.033.63-.023-.007-.033-.067-.033-.09-.033.083-.073.23-.09.246-.016.016.023-.14 0-.173-.023-.033-.066-.016-.056-.1.006-.082.023-.145.023-.145s-.1.146-.172.517c-.073.369-.073.378-.1.412-.023.04-.156.172-.162.222-.007.09.122.179.132.229.007.083-.116.468-.156.657-.04.189-.023.557-.066.746-.033.172-.066.272-.18.345.084.017.163.04.163.04s.116.49-.179.909c-.106.145-.132.212-.245.345-.222.245-.395.524-.412.706-.016-.066-.023-.162-.023-.162s-.345.401-.49.63c-.19.295-.452.279-.525.352-.073.072-.09.205-.066.311-.067.017-.19.04-.272.296a.621.621 0 0 1-.295.351c-.156.09-.345.116-.442.14.083.023.117.023.156.05-.05.082-.278.212-.534.377a1.117 1.117 0 0 0-.44.534c-.067.14-.163.23-.32.246.067.04.163.133.213.162-.073.017-.196.017-.418.206-.232.193-.312.249-.418.266Z"/></g><mask id="A" width="39" height="39" x="1" y="1" maskUnits="userSpaceOnUse" style="mask-type:luminance"><path fill="#fff" d="M20.503 39.925c10.729 0 19.426-8.697 19.426-19.425 0-10.729-8.697-19.426-19.426-19.426C9.775 1.074 1.078 9.771 1.078 20.5c0 10.729 8.697 19.426 19.425 19.426Z"/></mask><g mask="url(#A)"><path fill="#D2BA6B" d="M23.734 39.903s.206-.319.723-.518c.518-.206 1.065-.245 1.28-.312.207-.066.37-.156.625-.205-.024.195-.034.351-.09.484.19.033.663-.335.919-.418.255-.083.836-.206.886-.245.05-.04.155-.28.189-.29.033-.006.122.05.179.05.106 0 .852-.69 1.443-.68.583.007 1.247.492 1.147.926.156-.09.319-.172.452-.14a.789.789 0 0 0-.024.123s.319-.072.402.034c.09.106.04.205.255.457.173.213.123.263.09.336.083.023.49.162.869.517.378.352-3.019.133-3.019.133l-6.266-.057-.06-.195Z"/></g><mask id="B" width="39" height="39" x="1" y="1" maskUnits="userSpaceOnUse" style="mask-type:luminance"><path fill="#fff" d="M20.503 39.925c10.729 0 19.426-8.697 19.426-19.425 0-10.729-8.697-19.426-19.426-19.426C9.775 1.074 1.078 9.771 1.078 20.5c0 10.729 8.697 19.426 19.425 19.426Z"/></mask><g mask="url(#B)"><path fill="#C0993A" d="M33.587 25.995s-.107.573-.296.935c-.189.362-.394.863-.394.863s0-.18.04-.335c-.24.139-.82.474-.986.623-.156.14-.418.385-.484.501.156-.458.318-.87.345-1.058-.239.172-1.354 1.091-1.934 1.698l-1.808 1.463s-.279.156-.64.302c-.312.133-.68.245-.952.352.073-.196.189-.369.351-.534.173-.163.69-.724.77-.986.073-.272.09-.434-.006-.663-.09.023-.296.033-.435.073-.14.04-.289.189-.289.189s.107-.607.335-1.181c-.172.007-.467.056-.467.056s.411-.69 1.114-1.17c-.116.023-.378.089-.63.195-.411.173-.863.428-1.198.567.19-.262 1.516-2.156 2.306-3.92.786-1.762 1.081-2.213 1.254-3.158.09-.468.066-1.158.09-1.778.023-.614.099-1.165.05-1.533.205.256.974.975 1 2.584.024 1.609-.736 3.782-1.542 4.953.196.056.707.122 1.231-.787.524-.908.518-1.164.707-1.542.023.19.016.255.016.255s.763-.925 1.125-2.09c.073.502.288.943-.05 1.862-.302.829-.697 1.031-.697 1.031s.196-.033.485-.206c.05.123.04.263.122.312.083.05.196.133.213.213.09-.133.229-.302.272-.428-.033.262-.057 1.41.066 1.993.255-.023.517-.04.697-.5-.123.45-.123.723-.04 1.107.136-.093.258-.258.258-.258Z"/></g><mask id="C" width="39" height="39" x="1" y="1" maskUnits="userSpaceOnUse" style="mask-type:luminance"><path fill="#fff" d="M20.503 39.925c10.729 0 19.426-8.697 19.426-19.425 0-10.729-8.697-19.426-19.426-19.426C9.775 1.074 1.078 9.771 1.078 20.5c0 10.729 8.697 19.426 19.425 19.426Z"/></mask><g mask="url(#C)"><path fill="#A88F33" d="M24.973 7.708s-.255.106-.69.106c-.378 0-.272-.146-.862-.146-.909 0-4.083.524-4.64.517-.362-.006 1.22.156 1.22.156l4.044.057.812-.067.302-.613-.186-.01Z"/></g><mask id="D" width="39" height="39" x="1" y="1" maskUnits="userSpaceOnUse" style="mask-type:luminance"><path fill="#fff" d="M20.503 39.925c10.729 0 19.426-8.697 19.426-19.425 0-10.729-8.697-19.426-19.426-19.426C9.775 1.074 1.078 9.771 1.078 20.5c0 10.729 8.697 19.426 19.425 19.426Z"/></mask><g mask="url(#D)"><path fill="#E3C571" d="M14.484 15.613s-.517.394-.736.696c-.222.302-.335.501-.584.746a.505.505 0 0 0 .173-.023s0 .067-.04.083a.232.232 0 0 1 .189.067c-.073.04-.272.238-.116.474.116.18.361.196.361.196s-.056.162.18.146c.507-.024 1.074-.246 1.336-.19.262.067.412.09.597.412.196.318.368.368.368.368s.117-.295.09-.736c.156-.378.156-.747.156-.747l-.172-1.27-.754-.952-.975.54-.073.19Z"/></g><mask id="E" width="39" height="39" x="1" y="1" maskUnits="userSpaceOnUse" style="mask-type:luminance"><path fill="#fff" d="M20.503 39.925c10.729 0 19.426-8.697 19.426-19.425 0-10.729-8.697-19.426-19.426-19.426C9.775 1.074 1.078 9.771 1.078 20.5c0 10.729 8.697 19.426 19.425 19.426Z"/></mask><g mask="url(#E)"><path fill="#D8B65B" d="M15.406 15.423s.073.172.378.189c-.033.073-.033.083-.023.14l.017.138s.04-.016.09-.066c.016.073-.017.19 0 .272.016.083.05.146.05.146s.006-.017.016-.033c.006-.017.066.179.229.328 0-.04.016-.066.016-.066s0 .056.04.116c-.017-.007-.033-.023-.033-.023s.016.524.106.796c.023-.033.033-.04.04-.056 0-.017-.007.146-.024.262-.023.116-.006.278-.006.278s.09-.073.196-.116c.1-.04.262-.162.361-.434.1-.272.133-.475.133-.475s.056.106.066.196c.007.083.163.04.163.04l.033-.362.196-.82.179-.507.862-1.343 1.56-1.198 1.36.312 1.147-1.559-1.977-1.187-1.87.195-1.7 2.352-1.36 2.133-.245.352Z"/></g><mask id="F" width="39" height="39" x="1" y="1" maskUnits="userSpaceOnUse" style="mask-type:luminance"><path fill="#fff" d="M20.503 39.925c10.729 0 19.426-8.697 19.426-19.425 0-10.729-8.697-19.426-19.426-19.426C9.775 1.074 1.078 9.771 1.078 20.5c0 10.729 8.697 19.426 19.425 19.426Z"/></mask><g mask="url(#F)"><path fill="#D3AE4D" d="M25.21 12.022s-.116.023-.451.195c-.335.173-.568.23-.697.485a1.18 1.18 0 0 0-.14.457s.23-.099.362-.132c.14-.033.296-.023.279.033a.388.388 0 0 1-.066.106s.262-.007.255.123a.668.668 0 0 1-.1.335c-.05.066-.255.162-.278.239-.056.156.023.162-.007.288-.023.123-.133.362-.49.78-.369.418-.525.713-.525.713s-.179-.335-.272-.624c-.066.034-.418.23-.418.23l-.816-2.844.017-.189s.073-.09.09-.255c-.123-.04-.14-.073-.302-.229-.163-.156-.296-.345-.568-.474-.04-.073-.09-.173-.288-.213-.196-.04-.319-.072-.319-.072s.106-.04.156-.123c-.123.016-.222.056-.49.05-.273-.007-.303-.017-.452.006-.15.023-.328.09-.395-.14-.073-.056-.229-.006-.361.19-.133.196-.18.351-.435.428a.889.889 0 0 1-.116.318c-.073.123-.189.246-.345.428-.245.289-.206.763-.597 1.125-.395.361.066-1.002.066-1.002l.63-1.51 1.795-1.754 2.787-.19.272 1.444 1.36.467.859 1.31Z"/></g><mask id="G" width="39" height="39" x="1" y="1" maskUnits="userSpaceOnUse" style="mask-type:luminance"><path fill="#fff" d="M20.503 39.925c10.729 0 19.426-8.697 19.426-19.425 0-10.729-8.697-19.426-19.426-19.426C9.775 1.074 1.078 9.771 1.078 20.5c0 10.729 8.697 19.426 19.425 19.426Z"/></mask><g mask="url(#G)"><path fill="#CAA13E" d="m25.648 12.338-1.17-1.689-.82-.63s-.584-1.075-.624-1.108c-.033-.023-.583-.083-.935-.106l.066.162s.116.033.196.133c.156.179.255.517-.1.879.14.05.196.066.319.05-.123.146-.401.457-.418.73-.017.222.123.288.123.288s-.212.246-.223.657c.05-.056.163-.18.329-.312.245-.196.584-.418.813-.557a.473.473 0 0 0 .023.172s.428-.351.786-.195c.162.072.09.301.09.301s.222-.082.378.073c.156.156.378.558.49.714.05.073.18.212.313.428.155.255.328.607.45.952.007-.133.034-.319.263-.319l-.349-.623Z"/></g><mask id="H" width="39" height="39" x="1" y="1" maskUnits="userSpaceOnUse" style="mask-type:luminance"><path fill="#fff" d="M20.503 39.925c10.729 0 19.426-8.697 19.426-19.425 0-10.729-8.697-19.426-19.426-19.426C9.775 1.074 1.078 9.771 1.078 20.5c0 10.729 8.697 19.426 19.425 19.426Z"/></mask><g mask="url(#H)"><path fill="#F4EFC8" d="M8.1 17.134s-.084-.205 0-.607c.082-.401.212-.59.255-1.18.04-.591.428-1.327.428-1.327l1.065-.485.752.206.223 1.008-.952.524s-.05.223-.319.402c-.272.179-.64.318-.73.5-.09.19-.116.352-.116.352s-.272-.056-.434.123c-.173.182-.166.345-.173.484Z"/></g><mask id="I" width="39" height="39" x="1" y="1" maskUnits="userSpaceOnUse" style="mask-type:luminance"><path fill="#fff" d="M20.503 39.925c10.729 0 19.426-8.697 19.426-19.425 0-10.729-8.697-19.426-19.426-19.426C9.775 1.074 1.078 9.771 1.078 20.5c0 10.729 8.697 19.426 19.425 19.426Z"/></mask><g mask="url(#I)"><path fill="#EBCC73" d="M10.248 16.866s-.09.057-.156.196c-.067-.106-.223-.736-.23-1.304-.006-.567-.039-.706.09-.902.133-.196.647-.401.574-.753-.073-.335-.378-.474-.753-.378-.262.066-.457.623-.73.902-.205.212-.45.18-.517.295-.09.156-.007.312-.033.412-.007.033-.09.212-.239.428-.302.434-.813 1.048-.879 1.598.023-.311.007-.318.09-.663l-.05-.083.328-1.075.212-.885.475-1.483.836-1.516.813-.909.845.056.1 1.271.484 2.385 1.019 1.254-1.632 1.098-.647.056Z"/></g><mask id="J" width="39" height="39" x="1" y="1" maskUnits="userSpaceOnUse" style="mask-type:luminance"><path fill="#fff" d="M20.503 39.925c10.729 0 19.426-8.697 19.426-19.425 0-10.729-8.697-19.426-19.426-19.426C9.775 1.074 1.078 9.771 1.078 20.5c0 10.729 8.697 19.426 19.425 19.426Z"/></mask><g mask="url(#J)"><path fill="#E5C66B" d="M10.757 17.32s-.14.033-.189.007c-.05-.023-.1-.057-.083-.09.017-.033.106-.09.106-.116 0-.023-.006-.09-.083-.1-.076-.01-.1.04-.1.04s-.072-.056-.132-.066c.05-.007.106-.007.106-.007s-.139-.066-.288-.082c.083-.05.245-.196.351-.196.107 0 .173-.017.156-.073-.016-.056-.1-.14-.189-.173.033-.04.057-.1-.023-.262-.083-.162-.05-.272-.023-.312.023-.05.106-.139.146-.195.04-.057.073-.133.139-.173.033-.023.14-.066.245-.106.117-.04.213-.09.28-.04.072.05.039.116.039.116s.229-.083.434.024c.206.1.707.162.707.162l.18.362-1.188 1.018-.491.246-.1.016Z"/></g><mask id="K" width="39" height="39" x="1" y="1" maskUnits="userSpaceOnUse" style="mask-type:luminance"><path fill="#fff" d="M20.503 39.925c10.729 0 19.426-8.697 19.426-19.425 0-10.729-8.697-19.426-19.426-19.426C9.775 1.074 1.078 9.771 1.078 20.5c0 10.729 8.697 19.426 19.425 19.426Z"/></mask><g mask="url(#K)"><path fill="#E6BD62" d="M12.404 15.653s-.368.245-.45.335c.049.006.132.04.099.09-.04.049-.279.221-.412.384-.139.163-.272.368-.318.468-.05.09-.428.351-.557.384.272 0 .819-.335 1.025-.335-.007.1.056.213.172.223.116.006.451.073.902-.206.451-.272.302-.474.491-.607.362-.239.508-.451.707-.584.196-.133.302-.162.302-.162s.006-.1.066-.09a.09.09 0 0 1 .073.056s.345-.245.786-.311c-.016-.007-.023-.024-.023-.024s.033-.016.04-.033c0 0 .023-.033.04-.016.016.016.04.139.073.189.073-.033.212-.345.212-.345l.335-.959v-.876l-.262.05-1.967.836-1.194 1.237-.14.296Z"/></g><mask id="L" width="39" height="39" x="1" y="1" maskUnits="userSpaceOnUse" style="mask-type:luminance"><path fill="#fff" d="M20.503 39.925c10.729 0 19.426-8.697 19.426-19.425 0-10.729-8.697-19.426-19.426-19.426C9.775 1.074 1.078 9.771 1.078 20.5c0 10.729 8.697 19.426 19.425 19.426Z"/></mask><g mask="url(#L)"><path fill="#B6933F" d="M18.07 11.357s.172-.04.302-.123c-.04.107-.04.223-.212.475-.173.255-.18.288-.319.55-.14.272-.156.664-.289.836.107-.05.19-.056.19-.056s-.133.116-.19.239c-.056.122-.155.378-.4.534-.246.156-.558.255-.893.623-.335.362-.68.82-.853.986.09-.156.212-.468.246-.674.033-.205-.007-.45.05-.723.056-.272.056-.468.328-.942.272-.474.736-2.123.736-2.123l1.002-.318.302.716Z"/></g><mask id="M" width="39" height="39" x="1" y="1" maskUnits="userSpaceOnUse" style="mask-type:luminance"><path fill="#fff" d="M20.503 39.925c10.729 0 19.426-8.697 19.426-19.425 0-10.729-8.697-19.426-19.426-19.426C9.775 1.074 1.078 9.771 1.078 20.5c0 10.729 8.697 19.426 19.425 19.426Z"/></mask><g mask="url(#M)"><path fill="#C49937" d="M17.346 10.749s-.302.434-.385.819c-.083.385-.006.352-.056.54a.707.707 0 0 0 0 .352s.133-.239.418-.411.517-.295.657-.441c.139-.156.255-.412.557-.607-.123-.017-.295-.073-.328-.067.122-.139.49-.351.862-.607.368-.262.345-.368.942-.63-.196.033-.289-.016-.451 0 .066-.14.295-.206.524-.434.229-.23-.146-.568-.146-.568l-1.748 1.058-.846.996Z"/></g><mask id="N" width="39" height="39" x="1" y="1" maskUnits="userSpaceOnUse" style="mask-type:luminance"><path fill="#fff" d="M20.503 39.925c10.729 0 19.426-8.697 19.426-19.425 0-10.729-8.697-19.426-19.426-19.426C9.775 1.074 1.078 9.771 1.078 20.5c0 10.729 8.697 19.426 19.425 19.426Z"/></mask><g mask="url(#N)"><path fill="#DFC068" d="m12.594 9.96.04-.318.5-.803.525-1.41V5.502l-.04-1.115.083-.73.063-.232.066-.09.428.223.59.803.057 1.55-.574 2.444-1.639 1.788-.1-.183Z"/></g><mask id="O" width="39" height="39" x="1" y="1" maskUnits="userSpaceOnUse" style="mask-type:luminance"><path fill="#fff" d="M20.503 39.925c10.729 0 19.426-8.697 19.426-19.425 0-10.729-8.697-19.426-19.426-19.426C9.775 1.074 1.078 9.771 1.078 20.5c0 10.729 8.697 19.426 19.425 19.426Z"/></mask><g mask="url(#O)"><path fill="#A88F33" d="M13.902 3.247s-.262.007-.319 1.098c-.056 1.091-.083 1.665-.122 2.206-.04.54-.133.869-.18 1.187-.05.319-.072.753-.222 1.019-.066.122-.205.507-.534.796-.368.318-.919.54-1.002.557-.146.033-.885.106-1.187.272-.106.056-.289.123-.491.312-.401.361-.936 1.008-1.32 1.788-.59 1.164-1.181 4.451-1.181 4.451l.132-.222s.017-.295.312-.812c.289-.518.206-1.098.607-2.09.156-.378.352-.87.59-1.287.379-.68.837-1.264 1.298-1.583a4.1 4.1 0 0 1 1.582-.63l.892-.59s.156-.302.362-.647c.289-.484.657-1.025.736-1.811.123-1.165-.172-1.928-.156-2.618.017-.69.024-1.197.163-1.32.14-.123.04-.076.04-.076Z"/></g><mask id="P" width="39" height="39" x="1" y="1" maskUnits="userSpaceOnUse" style="mask-type:luminance"><path fill="#fff" d="M20.503 39.925c10.729 0 19.426-8.697 19.426-19.425 0-10.729-8.697-19.426-19.426-19.426C9.775 1.074 1.078 9.771 1.078 20.5c0 10.729 8.697 19.426 19.425 19.426Z"/></mask><g mask="url(#P)"><path fill="#C99E3D" d="M13.903 8.454s.395-.969.574-1.828c.033-.172.1-.345.116-.484.083-.813.106-1.148 0-1.592-.083-.329-.401-.624-.567-.853-.163-.239-.239-.328-.206-.378a.37.37 0 0 1 .289-.123.988.988 0 0 1 .706.329c.256.295.458 1.297.458 1.297l.212 1.32.541 1.665-2.123.647Z"/></g><mask id="Q" width="39" height="39" x="1" y="1" maskUnits="userSpaceOnUse" style="mask-type:luminance"><path fill="#fff" d="M20.503 39.925c10.729 0 19.426-8.697 19.426-19.425 0-10.729-8.697-19.426-19.426-19.426C9.775 1.074 1.078 9.771 1.078 20.5c0 10.729 8.697 19.426 19.425 19.426Z"/></mask><g mask="url(#Q)"><path fill="#B58634" d="M17.597 7.448s-.073.033-.206 0a.296.296 0 0 1-.132.278c-.14-.056-1.444.057-1.444.057s-.606-.106-.796-.91c-.132-.533.1-1.27.024-1.754-.116-.713-.279-.852-.296-1.075-.016-.222-.033-.278-.033-.418-.073-.016-.116-.04-.189-.04-.016-.066.017-.122-.056-.238.04.016.312.05.63.351.262.246.262.335.302.385.05.05.451.395.623.736.173.342.508 1.437.584 1.616.023.073.073.146.196.312.192.239.474.633.793.7Z"/></g><mask id="R" width="39" height="39" x="1" y="1" maskUnits="userSpaceOnUse" style="mask-type:luminance"><path fill="#fff" d="M20.503 39.925c10.729 0 19.426-8.697 19.426-19.425 0-10.729-8.697-19.426-19.426-19.426C9.775 1.074 1.078 9.771 1.078 20.5c0 10.729 8.697 19.426 19.425 19.426Z"/></mask><g mask="url(#R)"><path fill="#A88F33" d="M15.453 4.098c.123.195.352.59.54 1.008.196.441.313.803.558 1.098-.133-.385-.368-1.141-.507-1.41-.156-.285-.475-.59-.59-.696Z"/></g><mask id="S" width="39" height="39" x="1" y="1" maskUnits="userSpaceOnUse" style="mask-type:luminance"><path fill="#fff" d="M20.503 39.925c10.729 0 19.426-8.697 19.426-19.425 0-10.729-8.697-19.426-19.426-19.426C9.775 1.074 1.078 9.771 1.078 20.5c0 10.729 8.697 19.426 19.425 19.426Z"/></mask><g mask="url(#S)"><path fill="#E6C367" d="M13.197 9.555s-.336.083-.96.411c-.205.106-.4.196-.59.279-.49.222-1.018.428-1.436.54.033.04.05.057.05.057s0 .162.09.255c-.05.05-.714.501-.518 2.01.133-.05.288-.116.312-.116.04.007.05.116.1.116.049 0 .212-.066.384-.288-.007.09-.106.992.428 1.599.1-.116.351-.501.351-.501l.007-.123s.023-.428.163-.82c.139-.394.411-.68.411-.68l1.42-2.026-.213-.713Z"/></g><mask id="T" width="39" height="39" x="1" y="1" maskUnits="userSpaceOnUse" style="mask-type:luminance"><path fill="#fff" d="M20.503 39.925c10.729 0 19.426-8.697 19.426-19.425 0-10.729-8.697-19.426-19.426-19.426C9.775 1.074 1.078 9.771 1.078 20.5c0 10.729 8.697 19.426 19.425 19.426Z"/></mask><g mask="url(#T)"><path fill="#DCBA5A" d="M11.87 12.527s-.099.073-.212.106a.82.82 0 0 1 .14-.647c.229-.335.73-.77.869-1.114.09-.223.05-.78.846-1.493a27.257 27.257 0 0 1 1.108-.959l1.287-.647 1.582.624-.786 3.082-.61 1.443-2.429-.458-1.794.063Z"/></g><mask id="U" width="39" height="39" x="1" y="1" maskUnits="userSpaceOnUse" style="mask-type:luminance"><path fill="#fff" d="M20.503 39.925c10.729 0 19.426-8.697 19.426-19.425 0-10.729-8.697-19.426-19.426-19.426C9.775 1.074 1.078 9.771 1.078 20.5c0 10.729 8.697 19.426 19.425 19.426Z"/></mask><g mask="url(#U)"><path fill="#E9CE77" d="m12.797 11.693.302-.378v-.269s.335-.09.696-.458c.362-.368.863-1.075 1.304-1.031.441.05.484.958.5 1.214.018.255.074.836.163 1.147.1.312-1.074 1.493-1.074 1.493l-.796.607-1.095-2.325Z"/></g><mask id="V" width="39" height="39" x="1" y="1" maskUnits="userSpaceOnUse" style="mask-type:luminance"><path fill="#fff" d="M20.503 39.925c10.729 0 19.426-8.697 19.426-19.425 0-10.729-8.697-19.426-19.426-19.426C9.775 1.074 1.078 9.771 1.078 20.5c0 10.729 8.697 19.426 19.425 19.426Z"/></mask><g mask="url(#V)"><path fill="#CDAE50" d="M13.727 14.842s.245-.385.066-.468a2.84 2.84 0 0 1 .302-.49s.14-.346.59-.77c.451-.428.73-.707.803-.992.073-.289.073-.567.073-.567s.09.073.156.106c.073.033.418.318.368.892-.05.574-.262.813-.262.813s-.206.206-.352.312c-.155.106-.212.228-.474.238.04-.033.09-.05.09-.05s-.272-.032-.418.1c-.146.133-.458.541-.614.664l-.328.212Z"/></g><mask id="W" width="39" height="39" x="1" y="1" maskUnits="userSpaceOnUse" style="mask-type:luminance"><path fill="#fff" d="M20.503 39.925c10.729 0 19.426-8.697 19.426-19.425 0-10.729-8.697-19.426-19.426-19.426C9.775 1.074 1.078 9.771 1.078 20.5c0 10.729 8.697 19.426 19.425 19.426Z"/></mask><g mask="url(#W)"><path fill="#D2A83E" d="M24.756 8.387s-.524-.212-1.221-.239c-.697-.023-1.715.017-2.713.024-1.075.006-2.05-.368-3.404-.435-.222-.133-.786-.713-2.55.518.105-.007 1.28-.272 1.688.238.41.508.295 1.37.238 1.576-.106.458-.45 1.125-.59 1.592-.14.468-.106.713-.206 1.042-.1.328-.318.49-.189.869.173-.106.262-.106.55-.753.29-.647.23-1.108.707-1.655.468-.55 1.248-1.304 1.543-1.493.295-.189 2.647-1.41 5.108-.245.594-.063 1.039-1.039 1.039-1.039Z"/></g><mask id="X" width="39" height="39" x="1" y="1" maskUnits="userSpaceOnUse" style="mask-type:luminance"><path fill="#fff" d="M20.503 39.925c10.729 0 19.426-8.697 19.426-19.425 0-10.729-8.697-19.426-19.426-19.426C9.775 1.074 1.078 9.771 1.078 20.5c0 10.729 8.697 19.426 19.425 19.426Z"/></mask><g mask="url(#X)"><path fill="#C29637" d="M15.864 7.937s-.006-.056-.016-.073c-.04-.082-.09-.132-.09-.132s-.584-.106-.879-.073c-.517.056-.985.696-1.204 1.025-.222.328-.491.836-.786 1.098.006-.04-.017-.073-.017-.073s.017.023-.016.056c-.034.033-.034.05-.017.066l.05.05c.016 0 .474-.205 1.098-.786.663-.607 1.17-.919 1.436-1.025.202-.093.441-.133.441-.133Z"/></g><mask id="Y" width="39" height="39" x="1" y="1" maskUnits="userSpaceOnUse" style="mask-type:luminance"><path fill="#fff" d="M20.503 39.925c10.729 0 19.426-8.697 19.426-19.425 0-10.729-8.697-19.426-19.426-19.426C9.775 1.074 1.078 9.771 1.078 20.5c0 10.729 8.697 19.426 19.425 19.426Z"/></mask><g mask="url(#Y)"><path fill="#AC8132" d="M27.187 5.441s-.106.133-.238.279c-.296.312-.68.663-1.009 1.025-.312.345-.663.614-1.058 1.065-.395.451-.853.952-.969 1.098-.106.146-.189.385-.189.507-.056-.04-.122-.083-.122-.083s.033.067.1.146c.082.116.211.262.278.352.106.146.162.318.172.378.04.007.295.056.614-.468.318-.524.736-1.098.736-1.098l.664-.985.418-.836.524-.935.08-.445Z"/></g><mask id="Z" width="39" height="39" x="1" y="1" maskUnits="userSpaceOnUse" style="mask-type:luminance"><path fill="#fff" d="M20.503 39.925c10.729 0 19.426-8.697 19.426-19.425 0-10.729-8.697-19.426-19.426-19.426C9.775 1.074 1.078 9.771 1.078 20.5c0 10.729 8.697 19.426 19.425 19.426Z"/></mask><g mask="url(#Z)"><path fill="#A88F33" d="M27.863 4.773s-.402.329-.558.525c-.155.195-.524.713-.524.713l.133-.017.673-.597.262-.468.014-.156Z"/></g><mask id="aa" width="39" height="39" x="1" y="1" maskUnits="userSpaceOnUse" style="mask-type:luminance"><path fill="#fff" d="M20.503 39.925c10.729 0 19.426-8.697 19.426-19.425 0-10.729-8.697-19.426-19.426-19.426C9.775 1.074 1.078 9.771 1.078 20.5c0 10.729 8.697 19.426 19.425 19.426Z"/></mask><g mask="url(#aa)"><path fill="#A67A2E" d="M27.742 31.134s-.006-.272.146-.435c.156-.162.55-.401.936-1.297.384-.892.427-1.098.427-1.098s-.69.59-1.114.73c.1-.206.156-.351.206-.458-.057-.05-.296-.106-.319-.132.133-.133.206-.458.474-.674.345-.262.976-.713 1.467-1.114.49-.402 1.453-1.337 1.575-1.61.073.107.09.173.09.173s-.484.63-.736 1.032c-.223.345-.206.54-.206.54l.458-.195s.132.49-.468 1.237c.262-.1.368-.04.517-.122-.245.155-.583.368-.902.952-.312.583-.736 1.263-1.453 1.688-.696.448-1.098.783-1.098.783Z"/></g><mask id="ab" width="39" height="39" x="1" y="1" maskUnits="userSpaceOnUse" style="mask-type:luminance"><path fill="#fff" d="M20.503 39.925c10.729 0 19.426-8.697 19.426-19.425 0-10.729-8.697-19.426-19.426-19.426C9.775 1.074 1.078 9.771 1.078 20.5c0 10.729 8.697 19.426 19.425 19.426Z"/></mask><g mask="url(#ab)"><path fill="#8C6228" d="M25.942 8.733s-.272.567-.312 1.008c-.006.107-.033.19-.033.312-.007.395.023.836-.066 1.042-.033-.083-.05-.14-.083-.173-.05.14-.14.574-.213.737a3.46 3.46 0 0 1-.099-.91c.007-.434.017-.517.017-.606-.017.132-.107.312-.14.418-.05-.09-.106-.206-.172-.302-.04.066-.09.162-.133.212a3.04 3.04 0 0 1-.033-.295c-.007-.173-.017-.395-.007-.441.017-.09.156-.441.451-.763.352-.385.714-1.125.82-1.354.106-.228.557-1.18.557-1.18h.345l-.5 1.14s-.303.624-.459.853c-.156.229-.484.886-.63 1.141.106-.14.196-.212.302-.345.103-.093.388-.494.388-.494Z"/></g><mask id="ac" width="39" height="39" x="1" y="1" maskUnits="userSpaceOnUse" style="mask-type:luminance"><path fill="#fff" d="M20.503 39.925c10.729 0 19.426-8.697 19.426-19.425 0-10.729-8.697-19.426-19.426-19.426C9.775 1.074 1.078 9.771 1.078 20.5c0 10.729 8.697 19.426 19.425 19.426Z"/></mask><g mask="url(#ac)"><path fill="#CBA94C" d="M27.87 4.73s-.066.24-.262.475c-.205.245-.646.574-.862.836-.196.255-.59.952-.412 1.778.067-.18.19-.534.518-.936.328-.401.68-.862.852-1.22.173-.362.196-.647.196-.647l.067-.083-.04-.19-.057-.013Z"/></g><mask id="ad" width="39" height="39" x="1" y="1" maskUnits="userSpaceOnUse" style="mask-type:luminance"><path fill="#fff" d="M20.503 39.925c10.729 0 19.426-8.697 19.426-19.425 0-10.729-8.697-19.426-19.426-19.426C9.775 1.074 1.078 9.771 1.078 20.5c0 10.729 8.697 19.426 19.425 19.426Z"/></mask><g mask="url(#ad)"><path fill="#A88F33" d="M34.586 26.73s-.132-.36-.172-.69c-.04-.328.066-.394-.057-.769-.073-.229-.205-.196-.238-.229-.034-.033-.057-.378-.05-.567.006-.19-.007-.434-.04-.54-.05-.04-.083-.074-.156-.32-.083-.245-.123-.367-.162-.44-.04-.073-.156-.14-.156-.213 0-.146.132-.222.132-.262-.006-.083-.106-.016-.132-.04-.033-.04.083-.278.04-.311-.017-.017-.133.122-.163.083-.033-.04-.073-.435-.133-.697-.056-.255-.116-.441-.123-.517-.006-.073-.457-1.36-.567-1.672a7.863 7.863 0 0 1-.222-.803c-.033-.156-.056-.474-.073-.441-.017.033-.007.195-.033.189-.023-.007-.106-.574-.133-.664-.023-.09-.162-.394-.196-.613-.033-.223-.106-.803-.155-1.198-.05-.394-.073-.557-.073-.656 0-.05.016-.336-.04-.724a6.726 6.726 0 0 0-.312-1.22c-.222-.558-.813-1.984-.919-2.339 0-.09.116-.04.116-.04s.289.723.501 1.28c.206.558.401 1.049.451 1.099.04.05.352.597.491 1.492.14.896.19 1.722.272 2.273.04.262.073.54.156.819.09.302.229.614.411 1.091.156.402.272.737.336 1.025.072.369.072.647.116.83.04.155.1.467.238.918.14.451.345 1.032.485 1.394.272.723.394 1.326.434 1.648.037.332.16 1.48.126 1.825Z"/></g><mask id="ae" width="39" height="39" x="1" y="1" maskUnits="userSpaceOnUse" style="mask-type:luminance"><path fill="#fff" d="M20.503 39.925c10.729 0 19.426-8.697 19.426-19.425 0-10.729-8.697-19.426-19.426-19.426C9.775 1.074 1.078 9.771 1.078 20.5c0 10.729 8.697 19.426 19.425 19.426Z"/></mask><g mask="url(#ae)"><path fill="#BE9C44" d="m27.885 4.69-.016.04s.05.016.04.082c0 .033 0 .163-.017.272-.017.116-.05.206-.056.279 0 .156.023.335-.196.78-.066.122-.106.228-.14.301-.082.18-.099.206-.172.289.116-.067.534-.329.747-.289a1.555 1.555 0 0 0-.508.458c.033.007.172.033.395 0 .368-.056.78-.19 1.14-.163.395.024.24-.474.24-.474l-.458-1.002-.863-.607-.136.033Z"/></g><mask id="af" width="39" height="39" x="1" y="1" maskUnits="userSpaceOnUse" style="mask-type:luminance"><path fill="#fff" d="M20.503 39.925c10.729 0 19.426-8.697 19.426-19.425 0-10.729-8.697-19.426-19.426-19.426C9.775 1.074 1.078 9.771 1.078 20.5c0 10.729 8.697 19.426 19.425 19.426Z"/></mask><g mask="url(#af)"><path fill="#A17C34" d="M30.136 12.192s-.384-.384-.54-1.705c-.156-1.326-.123-3.28-.123-3.28l-.312-.763s-.066-.508-.229-.697c-.162-.189-.484-.507-.63-.663-.146-.156-.312-.368-.411-.402.05-.083.272-.55 1.124-.557.853-.007 1.115.468 1.204.64.09.173.491.92.64 2.339.14 1.42.146 1.526.123 2.017-.016.272-.106.902-.262 1.575-.142.57-.298 1.208-.584 1.496Z"/></g><mask id="ag" width="39" height="39" x="1" y="1" maskUnits="userSpaceOnUse" style="mask-type:luminance"><path fill="#fff" d="M20.503 39.925c10.729 0 19.426-8.697 19.426-19.425 0-10.729-8.697-19.426-19.426-19.426C9.775 1.074 1.078 9.771 1.078 20.5c0 10.729 8.697 19.426 19.425 19.426Z"/></mask><g mask="url(#ag)"><path fill="#8C6228" d="M28.93 13.323s.18.023.369-.083c.123-.006.567.05.909-.385.023.1.083.369-.073.607.083-.082.205-.116.222-.139.007.123.123.501-.368 1.42.133-.146.288-.14.428-.156.006.172.1.753-.146 1.065-.163.212-.428.146-.428.146s.006-.073 0-.14c-.007-.09-.04-.179-.017-.238-.033-.017-.172-.073-.345-.24-.288-.271-.663-.736-.69-1.08-.033-.385.312-.468.312-.468s-.04-.034-.073-.09c-.016-.056-.033-.146-.1-.219Z"/></g><mask id="ah" width="39" height="39" x="1" y="1" maskUnits="userSpaceOnUse" style="mask-type:luminance"><path fill="#fff" d="M20.503 39.925c10.729 0 19.426-8.697 19.426-19.425 0-10.729-8.697-19.426-19.426-19.426C9.775 1.074 1.078 9.771 1.078 20.5c0 10.729 8.697 19.426 19.425 19.426Z"/></mask><g mask="url(#ah)"><path fill="#92723A" d="M26.372 9.152s-.017-.024-.106.082c.016-.106.033-.205.04-.301.033-.073.089-.163.162-.246-.05.1-.083.19-.083.19s.123-.23.302-.369c.123-.1.278-.146.345-.239.073-.1.056-.116.073-.133 0 0 .162-.106.411-.417.033-.04.083-.083.116-.123.057-.023.19-.083.345-.163.163-.09.345-.212.458-.262.222-.1.458-.09.567-.245.083-.024.173-.272.156-.485.123.05.753.442.969 1.297.156.607-.123 1.543-.239 1.994-.116.451-.133.786-.295.992-.206.272-.87.657-1.032.846-.14.156-.557.55-.54.836.016.212.278.328.334.368.057.04.057.09.163.066.106-.023.146-.073.19-.073.049.007.049.017.072.017.023 0 .05-.007.05-.007s-.017.302-.723.395c-.05.006-.1.023-.163.033.083-.04.133-.04.222-.162-.1-.017-.384-.034-.457-.057.023-.04.1-.146.162-.196.056-.05-.006-.066-.056-.04-.024.017-.133.09-.246.19-.083.073-.156.172-.288.262a.648.648 0 0 1 .122-.568c-.04.007-.116.123-.189.1a1.053 1.053 0 0 1 .024-.361c.04-.15.255-.412.255-.412l1.042-1.86.222-1.41-2.385.46Z"/></g><mask id="ai" width="39" height="39" x="1" y="1" maskUnits="userSpaceOnUse" style="mask-type:luminance"><path fill="#fff" d="M20.503 39.925c10.729 0 19.426-8.697 19.426-19.425 0-10.729-8.697-19.426-19.426-19.426C9.775 1.074 1.078 9.771 1.078 20.5c0 10.729 8.697 19.426 19.425 19.426Z"/></mask><g mask="url(#ai)"><path fill="#B18E3E" d="M26.317 9.232s-.057.04.056.116c-.016.024-.056.107-.106.163-.056.066-.116.106-.14.163-.05.116-.089.195-.089.245 0 .05-.017.368-.156.574-.05.073-.106.196-.146.278-.083.146-.156.263-.172.329a3.415 3.415 0 0 0-.057.434l.1-.122a.921.921 0 0 1-.146.239c.04-.034.156-.117.352-.289.272-.229.696-.614 1.214-.919-.156.056-.289.056-.395.073.083-.083.83-.959 1.22-1.041.04-.05.034-.107.034-.107l-.335-.033-.68.146-.1-.524-.454.275Z"/></g><mask id="aj" width="39" height="39" x="1" y="1" maskUnits="userSpaceOnUse" style="mask-type:luminance"><path fill="#fff" d="M20.503 39.925c10.729 0 19.426-8.697 19.426-19.425 0-10.729-8.697-19.426-19.426-19.426C9.775 1.074 1.078 9.771 1.078 20.5c0 10.729 8.697 19.426 19.425 19.426Z"/></mask><g mask="url(#aj)"><path fill="#543E26" d="M27.4 12.217s-.09.09-.173.312a1.039 1.039 0 0 1-.163-.222c-.122-.206-.311-.468-.753-.319-.006-.14-.016-.212 0-.312.073-.016.296-.195.518-.457.156-.18.302-.385.401-.647.067-.05.18-.133.329-.23.212-.145.467-.344.507-.566-.1.04-.312.139-.63.122.123-.056.312-.116.288-.361.05-.033.09-.057.09-.057s-.04-.016-.116-.016c-.007-.023-.017-.057-.073-.04-.056.017-.066.017-.073.04-.023.006-.1 0-.156.04-.056.04-.212.172-.272.195l.056-.1s-.162.017-.278.067c-.212.073-.458.206-.707.335.023-.04.034-.066.05-.073.017-.006.056-.016.056-.023 0-.007-.016-.066-.006-.09a3.06 3.06 0 0 1 .262-.45.878.878 0 0 0 .14-.379l.507-.255 1.426-.329.926.057-.117.64-.547 1.118-.468 1.018-.534.624-.49.358Z"/></g><mask id="ak" width="39" height="39" x="1" y="1" maskUnits="userSpaceOnUse" style="mask-type:luminance"><path fill="#fff" d="M20.503 39.925c10.729 0 19.426-8.697 19.426-19.425 0-10.729-8.697-19.426-19.426-19.426C9.775 1.074 1.078 9.771 1.078 20.5c0 10.729 8.697 19.426 19.425 19.426Z"/></mask><g mask="url(#ak)"><path fill="#806031" d="M29.713 9.446s-.557.69-.713.796c.1-.212.713-1.476.935-1.827-.05-.04-.116-.04.04-.657-.133.312-.18.474-.289.557-.106.083-.122.056-.195.056.023-.04.016-.082.016-.082s-.468-.057-.786-.057-.952.173-1.304.312c-.278.116-.434.116-.534.189-.1.083-.156.173-.205.196-.04.023-.23.083-.272.146-.04.066-.107.139-.107.156 0 .016-.016.04.034.023a4.52 4.52 0 0 0 .278-.156c.19-.106.418-.229.584-.302.474-.189.624-.156.836-.196.222-.04.54-.132.753-.132.212-.007.614 0 .707.016-.04.033-.073.073-.057.213 0 .04-.033.083-.066.179-.1.272-.289.723-.395.952-.146.312-.312.574-.395.736-.082.163-.262.59-.44.82-.18.228-.273.368-.33.417-.056.05-.457.345-.427.452.073-.024.534-.196.869-.574.335-.379.401-.607.663-.813.262-.206.468-.55.59-.836.104-.265.08-.348.21-.584Z"/></g><mask id="al" width="39" height="39" x="1" y="1" maskUnits="userSpaceOnUse" style="mask-type:luminance"><path fill="#fff" d="M20.503 39.925c10.729 0 19.426-8.697 19.426-19.425 0-10.729-8.697-19.426-19.426-19.426C9.775 1.074 1.078 9.771 1.078 20.5c0 10.729 8.697 19.426 19.425 19.426Z"/></mask><g mask="url(#al)"><path fill="#B6903C" d="M17.695 14.595s-.073.302-.239.451c-.162.146-.45.272-.484.518-.04.245.289.368.289.368s-.18.295-.18.517c0 .229-.006.272.017.491-.04.023-.066.066-.066.066s.016.213.179.345c.163.133.302.213.385.18a.782.782 0 0 1 .033.082s.123-.311.206-.583c.082-.279.155-.24.189-.614.033-.378.394-1.018.394-1.018l.246-.551-.402-.312-.567.06Z"/></g><mask id="am" width="39" height="39" x="1" y="1" maskUnits="userSpaceOnUse" style="mask-type:luminance"><path fill="#fff" d="M20.503 39.925c10.729 0 19.426-8.697 19.426-19.425 0-10.729-8.697-19.426-19.426-19.426C9.775 1.074 1.078 9.771 1.078 20.5c0 10.729 8.697 19.426 19.425 19.426Z"/></mask><g mask="url(#am)"><path fill="#685026" d="M18.445 15.137s-.123.122-.229.272c-.106.146-.189.278-.345.335-.156.056-.255.056-.245.212.01.156.156.222.238.302.09.083.163.222.123.378.05-.023.14-.05.223-.229.082-.179.663-1.27.663-1.27h-.428Z"/></g><mask id="an" width="39" height="39" x="1" y="1" maskUnits="userSpaceOnUse" style="mask-type:luminance"><path fill="#fff" d="M20.503 39.925c10.729 0 19.426-8.697 19.426-19.425 0-10.729-8.697-19.426-19.426-19.426C9.775 1.074 1.078 9.771 1.078 20.5c0 10.729 8.697 19.426 19.425 19.426Z"/></mask><g mask="url(#an)"><path fill="#D4B968" d="M20.73 12.618s.05-.133 0-.229c-.05-.1-.352-.133-.501-.245-.156-.117-.345-.196-.501-.146.023-.057.116-.18.04-.206-.073-.023-.345.1-.418.156-.073.056-.239.123-.272.162-.033.04-.09.117-.123.083-.033-.023-.05-.083-.106-.05-.056.034-.329.256-.378.385-.05.13-.163.418-.501.747-.335.328-.484.54-.385.663.1.123.146.033.163.14.006.05.016.179-.017.311-.04.173-.106.335-.017.369.23.073.452-.067.501-.024.1.09-.056.412.18.475.238.066.474-.057.474-.057l.869-.467.836-.442.428-.845-.23-.707-.042-.073Z"/></g><mask id="ao" width="39" height="39" x="1" y="1" maskUnits="userSpaceOnUse" style="mask-type:luminance"><path fill="#fff" d="M20.503 39.925c10.729 0 19.426-8.697 19.426-19.425 0-10.729-8.697-19.426-19.426-19.426C9.775 1.074 1.078 9.771 1.078 20.5c0 10.729 8.697 19.426 19.425 19.426Z"/></mask><g mask="url(#ao)"><path fill="#CCA849" d="M19.908 14.64s-.146-.223.033-.419c.179-.195.434-.278.534-.401-.033-.04-.073-.05-.073-.05s.09-.179.288-.272a.276.276 0 0 0-.189-.09c-.162 0-.262.1-.41.1-.147 0-.164-.073-.164-.073s.246-.023.223-.133c-.023-.116-.067-.116-.067-.116s.475-.195.558-.301c.083-.107.073-.23.09-.28.056 0 .384-.172.517-.099.132.073.04.272.04.272s.4-.301.607-.597c.179.017.262-.122.394-.122.163 0 .418.222.468.696.033.272.083.428.033.91-.023.271-.016.852.067 1.14.056.23.189.206.189.206s-.024.1-.116.179c-.09.083-.1.302-.09.385.017.083.05.179.05.179s-.106.123-.133.206c-.023.082-.133.139-.212.139-.083 0-.04-.007-.146 0-.106.006-.14.023-.206 0-.066-.023-.116-.05-.09-.262.024-.213-.819-.707-.819-.707l-1.376-.49Z"/></g><mask id="ap" width="39" height="39" x="1" y="1" maskUnits="userSpaceOnUse" style="mask-type:luminance"><path fill="#fff" d="M20.503 39.925c10.729 0 19.426-8.697 19.426-19.425 0-10.729-8.697-19.426-19.426-19.426C9.775 1.074 1.078 9.771 1.078 20.5c0 10.729 8.697 19.426 19.425 19.426Z"/></mask><g mask="url(#ap)"><path fill="#585136" d="M18.328 16.734s.302.401 1.543.401c.59 0 .796-.056.919-.09.132-.032.63-.228 1.13-.819.452-.534.352-.753.352-.753l-.262-.04-.852.117-2.525 1.075-.305.109Z"/></g><mask id="aq" width="39" height="39" x="1" y="1" maskUnits="userSpaceOnUse" style="mask-type:luminance"><path fill="#fff" d="M20.503 39.925c10.729 0 19.426-8.697 19.426-19.425 0-10.729-8.697-19.426-19.426-19.426C9.775 1.074 1.078 9.771 1.078 20.5c0 10.729 8.697 19.426 19.425 19.426Z"/></mask><g mask="url(#aq)"><path fill="#252211" d="M19.254 16.834s-1.074.24-1.074-.44c0-.664.663-1.36.829-1.483.172-.123.584-.263.584-.263h.992l.189.501-.083 1.082-1.437.603Z"/></g><mask id="ar" width="39" height="39" x="1" y="1" maskUnits="userSpaceOnUse" style="mask-type:luminance"><path fill="#fff" d="M20.503 39.925c10.729 0 19.426-8.697 19.426-19.425 0-10.729-8.697-19.426-19.426-19.426C9.775 1.074 1.078 9.771 1.078 20.5c0 10.729 8.697 19.426 19.425 19.426Z"/></mask><g mask="url(#ar)"><path fill="#C3B378" d="M20.247 14.849s-.206-.19-.674.066c-.468.255-.846.786-.869 1.27-.023.428.352.747.936.763.434.017.696-.033.829-.066l-.206-.255-.016-1.778Z"/></g><mask id="as" width="39" height="39" x="1" y="1" maskUnits="userSpaceOnUse" style="mask-type:luminance"><path fill="#fff" d="M20.503 39.925c10.729 0 19.426-8.697 19.426-19.425 0-10.729-8.697-19.426-19.426-19.426C9.775 1.074 1.078 9.771 1.078 20.5c0 10.729 8.697 19.426 19.425 19.426Z"/></mask><g mask="url(#as)"><path fill="#E6D89C" d="M20.047 14.955s-.05-.04-.196.04c-.123.066-.302.239-.441.362-.09.073-.146.106-.196.162-.206.246-.378.647-.279.846.1.196.428.428 1.264.272l-.152-1.682Z"/></g><mask id="at" width="39" height="39" x="1" y="1" maskUnits="userSpaceOnUse" style="mask-type:luminance"><path fill="#fff" d="M20.503 39.925c10.729 0 19.426-8.697 19.426-19.425 0-10.729-8.697-19.426-19.426-19.426C9.775 1.074 1.078 9.771 1.078 20.5c0 10.729 8.697 19.426 19.425 19.426Z"/></mask><g mask="url(#at)"><path fill="#252211" d="M19.773 15.369s-.133.205-.133.534c0 .335.19.869.886.909.534.033.892-.77 1.28-1.082.296-.239.475-.245.475-.245s-.302-.329-1.108-.753c-.796-.428-1.689-.484-2.173.172.229-.016.969-.205.969-.205l.361.116-.557.554Z"/></g><mask id="au" width="39" height="39" x="1" y="1" maskUnits="userSpaceOnUse" style="mask-type:luminance"><path fill="#fff" d="M20.503 39.925c10.729 0 19.426-8.697 19.426-19.425 0-10.729-8.697-19.426-19.426-19.426C9.775 1.074 1.078 9.771 1.078 20.5c0 10.729 8.697 19.426 19.425 19.426Z"/></mask><g mask="url(#au)"><path fill="#6F674D" d="M20.818 15.803c-.024-.05-.04-.116.056-.133.1-.016.14-.006.173.066.033.073.066.133.016.163-.05.027-.179 0-.245-.096Zm-.156-.468s-.033.023-.017-.023c.007-.056.05-.156.156-.133.106.024.083.14.067.173-.017.033-.107.09-.173.066-.066-.023-.033-.083-.033-.083Z"/></g><mask id="av" width="39" height="39" x="1" y="1" maskUnits="userSpaceOnUse" style="mask-type:luminance"><path fill="#fff" d="M20.503 39.925c10.729 0 19.426-8.697 19.426-19.425 0-10.729-8.697-19.426-19.426-19.426C9.775 1.074 1.078 9.771 1.078 20.5c0 10.729 8.697 19.426 19.425 19.426Z"/></mask><g mask="url(#av)"><path fill="#AC924C" d="M11.68 15.548s.262.196.567.19c.302-.008.69-.32.869-.518.106-.117.196-.24.295-.335.083-.083.14-.123.18-.18.056-.066.116-.189.145-.228-.073.056-.179.155-.288.222-.106.066-.335.189-.428.222-.09.033-1.018.524-1.018.524l-.322.103Z"/></g><mask id="aw" width="39" height="39" x="1" y="1" maskUnits="userSpaceOnUse" style="mask-type:luminance"><path fill="#fff" d="M20.503 39.925c10.729 0 19.426-8.697 19.426-19.425 0-10.729-8.697-19.426-19.426-19.426C9.775 1.074 1.078 9.771 1.078 20.5c0 10.729 8.697 19.426 19.425 19.426Z"/></mask><g mask="url(#aw)"><path fill="#9F8E57" d="M12.078 13.095s.146-.1.428-.163c.272-.066.82-.116.82-.116l.45.196.18.68-.329.707-.418.262-.474-.763-.657-.803Z"/></g><mask id="ax" width="39" height="39" x="1" y="1" maskUnits="userSpaceOnUse" style="mask-type:luminance"><path fill="#fff" d="M20.503 39.925c10.729 0 19.426-8.697 19.426-19.425 0-10.729-8.697-19.426-19.426-19.426C9.775 1.074 1.078 9.771 1.078 20.5c0 10.729 8.697 19.426 19.425 19.426Z"/></mask><g mask="url(#ax)"><path fill="#EAC970" d="m11.492 13.704-.156.117s.04-.073.073-.296c.033-.222.206-.763.458-1.074.252-.312.245-.296.245-.296s-.073-.016-.133.034a1.61 1.61 0 0 1 .458-.468c.213-.133.296-.173.518-.066.222.106.278.162.44.155.163-.006.303-.179.303-.179s.033.106-.09.352c-.123.245-.607.746-.607.746l-1.008.69-.501.285Z"/></g><mask id="ay" width="39" height="39" x="1" y="1" maskUnits="userSpaceOnUse" style="mask-type:luminance"><path fill="#fff" d="M20.503 39.925c10.729 0 19.426-8.697 19.426-19.425 0-10.729-8.697-19.426-19.426-19.426C9.775 1.074 1.078 9.771 1.078 20.5c0 10.729 8.697 19.426 19.425 19.426Z"/></mask><g mask="url(#ay)"><path fill="#D7BC6B" d="M12.234 13.01s.73.1.952-.105c.007.023.034.023.034.04 0 .016-.017.033-.017.033s.04-.007.073-.007c.033.007.056.017.09.017.033 0 .072-.007.072-.007s-.006.056-.05.083c.034 0 .067.006.067.033 0 .027.007.106-.033.123-.05.016-.1-.007-.1-.007s0 .09.05.18c.066.122.206.261.395.221 0 0 .1.24-.319.77-.056.073-.116.172-.189.255-.056.133-.066.196-.066.196s.707-.272.909-.892c.206-.624.245-1.237.206-1.811a.928.928 0 0 0-.073-.362c-.1-.206-.378-.172-.491-.056-.163.162-.435.567-.813.846-.385.278-.401.328-.697.45Z"/></g><mask id="az" width="39" height="39" x="1" y="1" maskUnits="userSpaceOnUse" style="mask-type:luminance"><path fill="#fff" d="M20.503 39.925c10.729 0 19.426-8.697 19.426-19.425 0-10.729-8.697-19.426-19.426-19.426C9.775 1.074 1.078 9.771 1.078 20.5c0 10.729 8.697 19.426 19.425 19.426Z"/></mask><g mask="url(#az)"><path fill="#585136" d="M11.358 13.906s-.14.083-.213.395c-.072.319.067.707.146.83.083.122.262.457.64.474.084 0 .18-.017.273-.057.132-.056.262-.146.368-.229.162-.122.295-.228.279-.238-.04-.017-1.002-.813-1.002-.813l-.362-.405-.13.043Z"/></g><mask id="aA" width="39" height="39" x="1" y="1" maskUnits="userSpaceOnUse" style="mask-type:luminance"><path fill="#fff" d="M20.503 39.925c10.729 0 19.426-8.697 19.426-19.425 0-10.729-8.697-19.426-19.426-19.426C9.775 1.074 1.078 9.771 1.078 20.5c0 10.729 8.697 19.426 19.425 19.426Z"/></mask><g mask="url(#aA)"><path fill="#453A25" d="M12.267 15.23s.195-.017.312-.09c.116-.073-.68-.863-.68-.863l.056.853.312.1Z"/></g><mask id="aB" width="39" height="39" x="1" y="1" maskUnits="userSpaceOnUse" style="mask-type:luminance"><path fill="#fff" d="M20.503 39.925c10.729 0 19.426-8.697 19.426-19.425 0-10.729-8.697-19.426-19.426-19.426C9.775 1.074 1.078 9.771 1.078 20.5c0 10.729 8.697 19.426 19.425 19.426Z"/></mask><g mask="url(#aB)"><path fill="#84754B" d="M11.423 13.847s-.1.189-.1.239c-.016.162.034.673.074.836.04.172.255.434.534.434.172 0 .411-.106.411-.133 0-.033-.245-.066-.312-.189-.04-.066-.056-.229-.066-.394-.007-.107-.007-.223.033-.262.09-.1.106-.385.106-.385l.319-.59h-.418l-.501.311-.08.133Z"/></g><mask id="aC" width="39" height="39" x="1" y="1" maskUnits="userSpaceOnUse" style="mask-type:luminance"><path fill="#fff" d="M20.503 39.925c10.729 0 19.426-8.697 19.426-19.425 0-10.729-8.697-19.426-19.426-19.426C9.775 1.074 1.078 9.771 1.078 20.5c0 10.729 8.697 19.426 19.425 19.426Z"/></mask><g mask="url(#aC)"><path fill="#252211" d="M11.297 14.03s.328-.435.623-.534c.296-.1.428-.04.428-.04l-.172.441-.245.272.016.14s-.04.368.206.623c.245.255.428.245.534.245.106 0 .411-.09.567-.457.14-.345.255-.787-.023-1.231-.272-.441-.753-.458-.846-.458-.093.004-.823.037-1.088.999Z"/></g><mask id="aD" width="39" height="39" x="1" y="1" maskUnits="userSpaceOnUse" style="mask-type:luminance"><path fill="#fff" d="M20.503 39.925c10.729 0 19.426-8.697 19.426-19.425 0-10.729-8.697-19.426-19.426-19.426C9.775 1.074 1.078 9.771 1.078 20.5c0 10.729 8.697 19.426 19.425 19.426Z"/></mask><g mask="url(#aD)"><path fill="#F7F7E7" d="M19.724 15.507c-.123-.056-.006-.401.116-.507.123-.106.279-.229.55-.246.1-.006.197.057.18.123-.023.123-.196.295-.352.418-.215.17-.355.275-.494.212Z"/></g><mask id="aE" width="39" height="39" x="1" y="1" maskUnits="userSpaceOnUse" style="mask-type:luminance"><path fill="#fff" d="M20.503 39.925c10.729 0 19.426-8.697 19.426-19.425 0-10.729-8.697-19.426-19.426-19.426C9.775 1.074 1.078 9.771 1.078 20.5c0 10.729 8.697 19.426 19.425 19.426Z"/></mask><g mask="url(#aE)"><path fill="#F8F6DE" d="M13.087 13.625c.09-.006.206.067.23.163.022.106-.057.318-.23.318-.139 0-.212-.172-.212-.222 0-.05.023-.1.033-.116.007-.01.023-.126.18-.143Z"/></g><mask id="aF" width="39" height="39" x="1" y="1" maskUnits="userSpaceOnUse" style="mask-type:luminance"><path fill="#fff" d="M20.503 39.925c10.729 0 19.426-8.697 19.426-19.425 0-10.729-8.697-19.426-19.426-19.426C9.775 1.074 1.078 9.771 1.078 20.5c0 10.729 8.697 19.426 19.425 19.426Z"/></mask><g mask="url(#aF)"><path fill="#D4C38B" d="M11.79 13.703s-.228.106-.334.329a.871.871 0 0 0-.067.524c.017.083.1.288.156.361.057.073.133.123.19.116.056-.006.172-.156.172-.245 0-.09.007-.468.116-.674.096-.205-.232-.41-.232-.41Z"/></g><mask id="aG" width="39" height="39" x="1" y="1" maskUnits="userSpaceOnUse" style="mask-type:luminance"><path fill="#fff" d="M20.503 39.925c10.729 0 19.426-8.697 19.426-19.425 0-10.729-8.697-19.426-19.426-19.426C9.775 1.074 1.078 9.771 1.078 20.5c0 10.729 8.697 19.426 19.425 19.426Z"/></mask><g mask="url(#aG)"><path fill="#E2D59D" d="M11.826 13.685c-.04.023-.106.056-.089.1.017.04.156.066.206.162.056.1.056.206.04.255a.402.402 0 0 0 .116-.083c.072-.083.162-.195.238-.195.05 0 .1.023.146.023.073 0 .146-.023.156-.1.017-.1-.14-.189-.229-.172.017-.067.04-.163-.033-.23-.073-.065-.302.05-.351.084-.053.033-.2.156-.2.156Z"/></g><mask id="aH" width="39" height="39" x="1" y="1" maskUnits="userSpaceOnUse" style="mask-type:luminance"><path fill="#fff" d="M20.503 39.925c10.729 0 19.426-8.697 19.426-19.425 0-10.729-8.697-19.426-19.426-19.426C9.775 1.074 1.078 9.771 1.078 20.5c0 10.729 8.697 19.426 19.425 19.426Z"/></mask><g mask="url(#aH)"><path fill="#CBAC5A" d="m17.1 20.654.49-.146.14.1s.099.212.255.238c-.05.106-.18.196-.173.272.007.077.073.133.073.133s-.44.73.428 1.466a13.13 13.13 0 0 0-.607.262c.1.023.312.066.402.146.09.083.09.106.172.156.083.05.133.116.116.146-.056-.033-.245-.133-.279-.04-.033.09-.819.056-.819.056l-1.327.256s.05-.133-.09-.256c-.162-.146-.36.007-.573-.155-.279-.213-.289-.458-.378-.551.09-.056.272-.14.706-.196-.016-.033-.073-.133-.04-.222.04-.116.206-.19.156-.328.073-.017.106-.017.289-.246.172-.229.279-.279.411-.295.133-.017.213 0 .458-.229.172-.163.116-.302.116-.302s.113-.036.073-.265Z"/></g><mask id="aI" width="39" height="39" x="1" y="1" maskUnits="userSpaceOnUse" style="mask-type:luminance"><path fill="#fff" d="M20.503 39.925c10.729 0 19.426-8.697 19.426-19.425 0-10.729-8.697-19.426-19.426-19.426C9.775 1.074 1.078 9.771 1.078 20.5c0 10.729 8.697 19.426 19.425 19.426Z"/></mask><g mask="url(#aI)"><path fill="#D6BC6F" d="M15.65 20.727c.007-.033.034-.05.213-.033.18.017 1.314-.106 1.622-.122.312-.024 1.41-.007 1.944.106s1.075.245 1.337.311c.262.073.345.1.335.133-.007.033-.067.067-.1.057-.033-.007-.902-.272-1.17-.329-.27-.056-1.198-.206-1.706-.196-.474.007-.663-.006-1.064.04-.402.05-1.065.116-1.264.09-.196-.023-.156-.023-.146-.056Z"/></g><mask id="aJ" width="39" height="39" x="1" y="1" maskUnits="userSpaceOnUse" style="mask-type:luminance"><path fill="#fff" d="M20.503 39.925c10.729 0 19.426-8.697 19.426-19.425 0-10.729-8.697-19.426-19.426-19.426C9.775 1.074 1.078 9.771 1.078 20.5c0 10.729 8.697 19.426 19.425 19.426Z"/></mask><g mask="url(#aJ)"><path fill="#DFC677" d="M18.315 23.33s.68.368.926.82c.179.334-.106.5-.106.5s.384 0 .335.212c-.023.133-.664.491-1.092.68-.434.19-.418.18-.63.213-.206.033-.77-.067-.886.1-.116.162-.066.334-.033.36.033.024.302.057.302.057s-.056.156-.614.173c-.557.016-.696.056-.73.116-.033.056.107.023.362.066.256.04.614.066.614.066s-.116.1-.418.18c-.345.09-.886.172-1.048.272.083.056.205.139.262.146-.14.033-.335.106-.368.132.05.033.116.073.116.073s-.279.335-.441.418c-.163.083-1.098.518-1.42.435-.803-.213-.902-1.092-1.098-1.158-.296-.1-.435.1-.697-.04.116-.083.18-.133.302-.189-.133-.066-.82-.5-.82-.5s-.082-.19-.238-.459c-.133-.228-.329-.534-.474-.802-.319-.59-.335-.863-.624-1.198.05-.066.222-.056.222-.056l2.418.796 4.29.123 1.114-1.593.474.057Z"/></g><mask id="aK" width="39" height="39" x="1" y="1" maskUnits="userSpaceOnUse" style="mask-type:luminance"><path fill="#fff" d="M20.503 39.925c10.729 0 19.426-8.697 19.426-19.425 0-10.729-8.697-19.426-19.426-19.426C9.775 1.074 1.078 9.771 1.078 20.5c0 10.729 8.697 19.426 19.425 19.426Z"/></mask><g mask="url(#aK)"><path fill="#C4A859" d="M11.969 25.756s.033.04.09.073c.082.056.205.123.288.222.033-.05.116-.14.262 0 .146.14.328.04.441.073.116.04.123.057.123.057s.066-.057.212-.117c.09-.033.196-.056.312-.089.106-.023.222-.056.302-.056.073.05.335.328 1.386-.083.992-.385 1.221-.428 1.387-.369.017-.04.033-.116.289-.106 0-.106-.213-.467-.213-.467l-1.17-.402h-.64l-1.921.352-1.065.607-.083.305Z"/></g><mask id="aL" width="39" height="39" x="1" y="1" maskUnits="userSpaceOnUse" style="mask-type:luminance"><path fill="#fff" d="M20.503 39.925c10.729 0 19.426-8.697 19.426-19.425 0-10.729-8.697-19.426-19.426-19.426C9.775 1.074 1.078 9.771 1.078 20.5c0 10.729 8.697 19.426 19.425 19.426Z"/></mask><g mask="url(#aL)"><path fill="#927D49" d="M11.328 25.084s.023.179.289.368c.262.189.345.302.345.302s.05-.067.09-.133c.04-.073.072-.156.139-.18.132-.055.434.05.5.034.057-.017.04-.133.1-.133.14-.006.229.09.279.09.05 0 .172-.007.189-.033.016-.027.023-.302.212-.435a.566.566 0 0 1 .524-.05c0 .05.007.173.14.18.132.006.145-.017.261.023.117.04.256-.007.319.189.056-.017.189-.033.156-.222.066-.05.123-.083.262-.279.033-.05.09-.106.133-.18.116 0 .255-.022.44.14-.056.04-.089.067-.105.106.016.017.082.083.132.156.05.067.083.146.146.163.14.04.368-.017.624 0 .245.016.451.106.54.162.034-.016.034-.023.117-.006.083.016.146.023.056-.083.05.023.106.073.156.023.05-.05.09-.123.229-.14.14-.016.189.007.245-.139.073-.179-.179-.179-.179-.179s.116-.106.246-.245c.156-.146.335-.335.378-.567.073-.428-.345-.485-.345-.485l-2.027.624-2.478-.123-2.113 1.052Z"/></g><mask id="aM" width="39" height="39" x="1" y="1" maskUnits="userSpaceOnUse" style="mask-type:luminance"><path fill="#fff" d="M20.503 39.925c10.729 0 19.426-8.697 19.426-19.425 0-10.729-8.697-19.426-19.426-19.426C9.775 1.074 1.078 9.771 1.078 20.5c0 10.729 8.697 19.426 19.425 19.426Z"/></mask><g mask="url(#aM)"><path fill="#6E6342" d="M9.5 19.23s-.066.083-.105.279c-.04.195-.024.172-.057.311-.033.14-.44 1.526-.288 1.994.152.468.418.64.583 1.018.034.083.067.133.083.206.057.246.007.435.073.68a.75.75 0 0 0 .173.279c.196.206.517.401.657.54.195.206.474.624.829.664.189.023.458-.056.68-.19.196-.122.318-.294.524-.394.146-.073.302-.1.441-.133.289-.056.55-.066.707-.033.239.05.803.223 1.114.223.123 0 .412-.017.723-.1.475-.14 1.049-.378 1.427-.484.222-.067.401-.083.584-.123.311-.073.574-.172.723-.362-.1-.116-.222-.295-.886-.288-.753.016-1.622.434-2.05.5-.428.067-.614.123-1.091-.05-.468-.171-.484-.288-.484-.288s-.491-.345-.697-1.22c-.206-.88 0-1.516.534-2.123.14-.156.106-.296.106-.296s.352-.474.256-.918c-.107-.442-.787-.352-.787-.352l-3.771.66Z"/></g><mask id="aN" width="39" height="39" x="1" y="1" maskUnits="userSpaceOnUse" style="mask-type:luminance"><path fill="#fff" d="M20.503 39.925c10.729 0 19.426-8.697 19.426-19.425 0-10.729-8.697-19.426-19.426-19.426C9.775 1.074 1.078 9.771 1.078 20.5c0 10.729 8.697 19.426 19.425 19.426Z"/></mask><g mask="url(#aN)"><path fill="#39331F" d="M10.072 20.703s-.05.09-.04.18c.007.089.034.205.302.467.23.229.18.484.18.484s.116.024.428-.122c.245-.117.328.09.328.09s.1-.057.229-.074c.132-.017.205-.066.205-.066s.289.295.541.434c.229.123.362.206.475.123.106-.073.106-.222.099-.289 0 0-.033-.082-.1-.172-.072-.106-.189-.229-.195-.328-.017-.23.172-.501.132-.568-.04-.066-.189-.083-.557.05-.381.126-2.027-.209-2.027-.209Z"/></g><mask id="aO" width="39" height="39" x="1" y="1" maskUnits="userSpaceOnUse" style="mask-type:luminance"><path fill="#fff" d="M20.503 39.925c10.729 0 19.426-8.697 19.426-19.425 0-10.729-8.697-19.426-19.426-19.426C9.775 1.074 1.078 9.771 1.078 20.5c0 10.729 8.697 19.426 19.425 19.426Z"/></mask><g mask="url(#aO)"><path fill="#292311" d="M10.941 22.19s-.189-.18-.122-1.048c.1-.007.239.023.239.023s.103.673-.117 1.025Z"/></g><mask id="aP" width="39" height="39" x="1" y="1" maskUnits="userSpaceOnUse" style="mask-type:luminance"><path fill="#fff" d="M20.503 39.925c10.729 0 19.426-8.697 19.426-19.425 0-10.729-8.697-19.426-19.426-19.426C9.775 1.074 1.078 9.771 1.078 20.5c0 10.729 8.697 19.426 19.425 19.426Z"/></mask><g mask="url(#aP)"><path fill="#252211" d="M9.598 18.567s.033-.023.073-.067c-.067.123-.369.614-.123 1.387.245.77.862 1.344 1.622 1.37.76.027 1.158-.345 1.615-.902.18-.222.385-.501.567-.69.273-.295.485-.378.485-.664 0-.583-.597-.845-1.476-1.108-.88-.262-1.672-.228-2.084-.05-.4.197-.573.402-.68.724Z"/></g><mask id="aQ" width="39" height="39" x="1" y="1" maskUnits="userSpaceOnUse" style="mask-type:luminance"><path fill="#fff" d="M20.503 39.925c10.729 0 19.426-8.697 19.426-19.425 0-10.729-8.697-19.426-19.426-19.426C9.775 1.074 1.078 9.771 1.078 20.5c0 10.729 8.697 19.426 19.425 19.426Z"/></mask><g mask="url(#aQ)"><path fill="#3F3824" d="m12.422 22.449.066-.033s.017-.262.123-.256c.106.017.156.156.146.206-.007.05-.033.133-.14.123-.139.003-.195-.04-.195-.04Z"/></g><mask id="aR" width="39" height="39" x="1" y="1" maskUnits="userSpaceOnUse" style="mask-type:luminance"><path fill="#fff" d="M20.503 39.925c10.729 0 19.426-8.697 19.426-19.425 0-10.729-8.697-19.426-19.426-19.426C9.775 1.074 1.078 9.771 1.078 20.5c0 10.729 8.697 19.426 19.425 19.426Z"/></mask><g mask="url(#aR)"><path fill="#2D2815" d="M12.125 21.335s.066-.023.146.057c.066 0 .352-.034.441.023.09.056.116.106.116.106s-.335.073-.517 0c-.186-.063-.186-.186-.186-.186Z"/></g><mask id="aS" width="39" height="39" x="1" y="1" maskUnits="userSpaceOnUse" style="mask-type:luminance"><path fill="#fff" d="M20.503 39.925c10.729 0 19.426-8.697 19.426-19.425 0-10.729-8.697-19.426-19.426-19.426C9.775 1.074 1.078 9.771 1.078 20.5c0 10.729 8.697 19.426 19.425 19.426Z"/></mask><g mask="url(#aS)"><path fill="#82764F" d="M13.597 21.387c0-.017-.179-.14-.368-.18-.033-.006-.04.017-.066.017-.017-.006-.023-.056-.023-.056l-.107.056s-.016.024.04.067c.05.04.133.073.156.139.024.066.024.09.033.1.007.006.123 0 .18-.034.056-.036.162-.086.155-.11Z"/></g><mask id="aT" width="39" height="39" x="1" y="1" maskUnits="userSpaceOnUse" style="mask-type:luminance"><path fill="#fff" d="M20.503 39.925c10.729 0 19.426-8.697 19.426-19.425 0-10.729-8.697-19.426-19.426-19.426C9.775 1.074 1.078 9.771 1.078 20.5c0 10.729 8.697 19.426 19.425 19.426Z"/></mask><g mask="url(#aT)"><path fill="#2D2816" d="M11.922 22.06s.033-.229.255-.239c.23-.016.272.206.272.206l-.132.133c0-.004-.1-.143-.395-.1Z"/></g><mask id="aU" width="39" height="39" x="1" y="1" maskUnits="userSpaceOnUse" style="mask-type:luminance"><path fill="#fff" d="M20.503 39.925c10.729 0 19.426-8.697 19.426-19.425 0-10.729-8.697-19.426-19.426-19.426C9.775 1.074 1.078 9.771 1.078 20.5c0 10.729 8.697 19.426 19.425 19.426Z"/></mask><g mask="url(#aU)"><path fill="#574F35" d="M13.37 21.073s-.122.133-.394.173c-.024-.033-.073-.1 0-.206.073-.106.156-.139.239-.106.082.017.139.073.155.14Z"/></g><mask id="aV" width="39" height="39" x="1" y="1" maskUnits="userSpaceOnUse" style="mask-type:luminance"><path fill="#fff" d="M20.503 39.925c10.729 0 19.426-8.697 19.426-19.425 0-10.729-8.697-19.426-19.426-19.426C9.775 1.074 1.078 9.771 1.078 20.5c0 10.729 8.697 19.426 19.425 19.426Z"/></mask><g mask="url(#aV)"><path fill="#82764F" d="M13.869 21.236c.007-.033-.017-.04 0-.056.017-.017.106-.05.123-.033.006.006 0 .033 0 .066s0 .066-.017.09c-.023.033-.09.05-.123.04-.033-.007-.04-.057-.04-.067.017-.007.057-.023.057-.04Zm.567-.358c0-.017.056-.05.09-.05.05 0 .05.04.056.05.017.006.017-.007.033.023.017.033.04.083.024.116-.017.033-.083.057-.1.05a.874.874 0 0 1-.103-.19Z"/></g><mask id="aW" width="39" height="39" x="1" y="1" maskUnits="userSpaceOnUse" style="mask-type:luminance"><path fill="#fff" d="M20.503 39.925c10.729 0 19.426-8.697 19.426-19.425 0-10.729-8.697-19.426-19.426-19.426C9.775 1.074 1.078 9.771 1.078 20.5c0 10.729 8.697 19.426 19.425 19.426Z"/></mask><g mask="url(#aW)"><path fill="#6E6342" d="M13.297 21.313s.073.016.172.099c-.033.023-.083.05-.083.05s-.006-.076-.09-.15Z"/></g><mask id="aX" width="39" height="39" x="1" y="1" maskUnits="userSpaceOnUse" style="mask-type:luminance"><path fill="#fff" d="M20.503 39.925c10.729 0 19.426-8.697 19.426-19.425 0-10.729-8.697-19.426-19.426-19.426C9.775 1.074 1.078 9.771 1.078 20.5c0 10.729 8.697 19.426 19.425 19.426Z"/></mask><g mask="url(#aX)"><path fill="#585136" d="M13.128 20.583c-.017-.016.05-.056.09-.05.039.007.056.034.099.04.043.007.05-.016.066-.033.017-.017.073-.007.083 0 .007.007.017.023.017.023s0-.04.033-.066a.104.104 0 0 1 .09-.017c.006.024.04.107.033.123-.007.017-.107.04-.123.023.016.04.09.123.1.14.006.016-.074.056-.107.05a1.354 1.354 0 0 1-.381-.233Zm.434-.55s-.006-.024-.033-.04c-.023-.007-.1 0-.1.04s.067.262.14.378c.083.116.14.212.195.238.057.024.09-.016.1-.033.007-.016.023-.139.017-.427-.007-.29-.017-.568-.034-.584-.016-.017-.082-.017-.106.016a3.075 3.075 0 0 0-.179.412Z"/></g><mask id="aY" width="39" height="39" x="1" y="1" maskUnits="userSpaceOnUse" style="mask-type:luminance"><path fill="#fff" d="M20.503 39.925c10.729 0 19.426-8.697 19.426-19.425 0-10.729-8.697-19.426-19.426-19.426C9.775 1.074 1.078 9.771 1.078 20.5c0 10.729 8.697 19.426 19.425 19.426Z"/></mask><g mask="url(#aY)"><path fill="#574F35" d="M13.266 21.732s-.116-.073-.229-.023c-.106.05-.1.245-.1.245s.074.033.147-.016c.072-.05.165-.133.182-.206Z"/></g><mask id="aZ" width="39" height="39" x="1" y="1" maskUnits="userSpaceOnUse" style="mask-type:luminance"><path fill="#fff" d="M20.503 39.925c10.729 0 19.426-8.697 19.426-19.425 0-10.729-8.697-19.426-19.426-19.426C9.775 1.074 1.078 9.771 1.078 20.5c0 10.729 8.697 19.426 19.425 19.426Z"/></mask><g mask="url(#aZ)"><path fill="#82764F" d="M13.488 21.992c-.006-.066-.066-.066-.066-.1.006-.033.04-.056.073-.056.033 0 .066.04.106.066.04.024.1.067.106.116.007.05-.066.19-.146.19-.08-.004-.056-.15-.073-.216Zm.64-.09s-.132.04-.122 0c.006-.04.04-.05.083-.05.016-.016.05-.04.083-.04s.05.017.05.017.089-.04.115-.016c.024.023.007.023.024.05.016.023.04.073.04.1 0 .026-.1.082-.18.072-.093-.02-.076-.116-.093-.133Zm.773-.149s.04.023.007.05a.532.532 0 0 1-.239.073c-.1 0-.189.016-.189-.017s.083-.1.133-.116a.106.106 0 0 1 .083-.04c.04 0 .195-.016.239-.023.04-.006.072.017.05.05-.01.023-.084.023-.084.023Zm.23-1.025s-.05.106-.107.106c-.056-.006-.056-.023-.056-.04 0-.023.056-.082.05-.099-.017 0-.057 0-.05-.04 0-.033.056-.073.106-.066a.217.217 0 0 1 .133-.05c.056 0 .106.017.106.05s-.067.106-.09.123c-.026.026-.06.043-.093.016Zm-.757 1.96s-.066.007-.066.04c0 .017.016.017.04.007.016 0 .04-.007.04-.007.006.007.006.04.056.04a.32.32 0 0 0 .116-.04c.04-.016.073-.033.073-.066-.017-.056-.05-.083-.1-.083s-.073.017-.073.017-.016-.034-.073 0c-.056.033-.05.033-.033.05.03.026.02.043.02.043Zm-.375.346c0-.017.083-.05.106-.04.023.006.09.132.09.146 0 .016-.083.056-.116.056-.034 0-.09-.056-.09-.066 0-.007.04-.017.04-.023.01-.017-.03-.057-.03-.073Zm-.262-.485c.017-.006.017-.023.04-.04.023-.016.05-.006.05-.006s.016-.033.056-.04c.04-.007.073 0 .066.017 0 .05.034.082.034.122 0 .04-.024.09-.107.123a.585.585 0 0 1-.212.017c-.017-.007-.033-.073-.017-.107.014-.036.063-.07.09-.086Z"/></g><mask id="ba" width="39" height="39" x="1" y="1" maskUnits="userSpaceOnUse" style="mask-type:luminance"><path fill="#fff" d="M20.503 39.925c10.729 0 19.426-8.697 19.426-19.425 0-10.729-8.697-19.426-19.426-19.426C9.775 1.074 1.078 9.771 1.078 20.5c0 10.729 8.697 19.426 19.425 19.426Z"/></mask><g mask="url(#ba)"><path fill="#6E6342" d="M13.844 22.574s-.056.033-.056.05a.148.148 0 0 0-.007.05c0 .01.073-.007.083-.017.003-.006-.02-.066-.02-.083Z"/></g><mask id="bb" width="39" height="39" x="1" y="1" maskUnits="userSpaceOnUse" style="mask-type:luminance"><path fill="#fff" d="M20.503 39.925c10.729 0 19.426-8.697 19.426-19.425 0-10.729-8.697-19.426-19.426-19.426C9.775 1.074 1.078 9.771 1.078 20.5c0 10.729 8.697 19.426 19.425 19.426Z"/></mask><g mask="url(#bb)"><path fill="#585136" d="M13.35 22.416c.033.006.09 0 .133.017.033.016.056.05.023.089-.033.04-.066.1-.14.09-.082-.007-.162-.05-.162-.083-.006-.04.017-.09.04-.116.033-.027.05-.01.106.003Z"/></g><mask id="bc" width="39" height="39" x="1" y="1" maskUnits="userSpaceOnUse" style="mask-type:luminance"><path fill="#fff" d="M20.503 39.925c10.729 0 19.426-8.697 19.426-19.425 0-10.729-8.697-19.426-19.426-19.426C9.775 1.074 1.078 9.771 1.078 20.5c0 10.729 8.697 19.426 19.425 19.426Z"/></mask><g mask="url(#bc)"><path fill="#574F35" d="M13.309 22.45s-.106.082-.133.122c-.033.04-.196.245-.245.288a.634.634 0 0 1 .056-.082s-.1.056-.14.179c-.039.122.223.189.396.239.172.05.238.066.238.066s-.1-.146-.162-.302c-.067-.156-.1-.172-.057-.245.034-.073.083-.123.083-.18-.02-.053-.036-.086-.036-.086Z"/></g><mask id="bd" width="39" height="39" x="1" y="1" maskUnits="userSpaceOnUse" style="mask-type:luminance"><path fill="#fff" d="M20.503 39.925c10.729 0 19.426-8.697 19.426-19.425 0-10.729-8.697-19.426-19.426-19.426C9.775 1.074 1.078 9.771 1.078 20.5c0 10.729 8.697 19.426 19.425 19.426Z"/></mask><g mask="url(#bd)"><path fill="#252211" d="M9.531 22.713s.023.007.073 0c.05-.006.568-.195 1.108-.162.239.016.664.05 1.198.196.68.179 1.525.534 2.073.736.146.056.288.156.395.196.418.162.434.162.68.205.288.04.583-.056.892-.122.378-.083 1.025-.123 1.592-.206.295-.04.54-.123.54-.123s-.45.451-1.532.614c-.54.083-.985.056-1.32.016a4.01 4.01 0 0 1-.746-.132c-.196-.057-.597-.206-1.092-.329-.345-.09-.73-.156-1.17-.239-1.089-.199-2.27-.427-2.69-.65Z"/></g><mask id="be" width="39" height="39" x="1" y="1" maskUnits="userSpaceOnUse" style="mask-type:luminance"><path fill="#fff" d="M20.503 39.925c10.729 0 19.426-8.697 19.426-19.425 0-10.729-8.697-19.426-19.426-19.426C9.775 1.074 1.078 9.771 1.078 20.5c0 10.729 8.697 19.426 19.425 19.426Z"/></mask><g mask="url(#be)"><path fill="#CFB66C" d="M8.968 18.31c-.116-.106-.24-.212-.352-.318l-.345-.319-.345-.328c-.056-.057-.116-.106-.172-.163l-.18-.156c-.457-.434-.918-.869-1.37-1.303.468.428.926.852 1.394 1.287l.162.162c.057.057.116.106.173.163l.345.318c.116.106.229.213.345.329.116.116.229.222.345.328Zm-6.077-.066s1.665.172 2.478.288c.753.106 3.108.468 3.108.468m-5.586-.756c.467.04.935.09 1.403.139.239.023.468.05.696.073l.352.04.345.05 1.393.222.697.116c.229.04.458.083.696.123a16.746 16.746 0 0 1-.696-.09l-.697-.1-1.393-.205c-.116-.017-.229-.04-.345-.056l-.352-.04c-.229-.023-.467-.057-.696-.083a40.62 40.62 0 0 1-1.403-.19Zm5.42 1.19s-1.778.452-2.379.624c-.59.163-2.378.707-2.378.707"/></g><mask id="bf" width="39" height="39" x="1" y="1" maskUnits="userSpaceOnUse" style="mask-type:luminance"><path fill="#fff" d="M20.503 39.925c10.729 0 19.426-8.697 19.426-19.425 0-10.729-8.697-19.426-19.426-19.426C9.775 1.074 1.078 9.771 1.078 20.5c0 10.729 8.697 19.426 19.425 19.426Z"/></mask><g mask="url(#bf)"><path fill="#CFB66C" d="M8.306 19.434c-.395.116-.786.229-1.188.335l-1.187.318-1.181.345-.59.163c-.196.056-.395.106-.598.162.196-.066.395-.133.59-.189l.591-.189c.395-.123.787-.239 1.181-.362.402-.1.796-.205 1.198-.301a44.78 44.78 0 0 1 1.184-.282Zm-4.508 2.424c.196-.073 2.451-1.124 2.976-1.37.262-.122 1.024-.394 1.024-.394"/></g><mask id="bg" width="39" height="39" x="1" y="1" maskUnits="userSpaceOnUse" style="mask-type:luminance"><path fill="#fff" d="M20.503 39.925c10.729 0 19.426-8.697 19.426-19.425 0-10.729-8.697-19.426-19.426-19.426C9.775 1.074 1.078 9.771 1.078 20.5c0 10.729 8.697 19.426 19.425 19.426Z"/></mask><g mask="url(#bg)"><path fill="#CFB66C" d="M3.797 21.858c.172-.066.335-.146.5-.222l.492-.229.985-.474c.328-.156.647-.329.985-.475.173-.073.345-.132.518-.189l.262-.083c.09-.023.172-.05.262-.073-.329.156-.674.289-1.002.442-.329.162-.664.295-1.002.44l-1.002.442c-.335.136-.663.282-.998.421Zm.219.919s2.043-1.198 2.746-1.582c.369-.206 1.56-.796 1.56-.796"/></g><mask id="bh" width="39" height="39" x="1" y="1" maskUnits="userSpaceOnUse" style="mask-type:luminance"><path fill="#fff" d="M20.503 39.925c10.729 0 19.426-8.697 19.426-19.425 0-10.729-8.697-19.426-19.426-19.426C9.775 1.074 1.078 9.771 1.078 20.5c0 10.729 8.697 19.426 19.425 19.426Z"/></mask><g mask="url(#bh)"><path fill="#CFB66C" d="M4.016 22.78c.345-.213.696-.428 1.048-.647l.524-.319c.18-.106.352-.205.534-.311.18-.107.352-.213.534-.312.09-.057.18-.1.272-.14l.279-.139c.368-.18.736-.362 1.124-.517-.351.222-.713.41-1.075.607-.179.1-.361.189-.54.288-.18.1-.352.206-.534.302-.18.106-.352.206-.534.302l-.541.295-1.091.59Zm4.289-2.117s-1.27.976-1.682 1.287C6.212 22.262 5 23.138 5 23.138"/></g><mask id="bi" width="39" height="39" x="1" y="1" maskUnits="userSpaceOnUse" style="mask-type:luminance"><path fill="#fff" d="M20.503 39.925c10.729 0 19.426-8.697 19.426-19.425 0-10.729-8.697-19.426-19.426-19.426C9.775 1.074 1.078 9.771 1.078 20.5c0 10.729 8.697 19.426 19.425 19.426Z"/></mask><g mask="url(#bi)"><path fill="#CFB66C" d="M8.306 20.66c-.262.222-.54.435-.813.64l-.819.63c-.279.206-.55.419-.83.624-.278.206-.557.402-.852.59.262-.221.54-.427.82-.63.278-.202.567-.4.835-.607l.82-.63c.282-.206.554-.418.839-.617Zm-1.45 2.322s.296-.245.664-.59c.458-.428 1.018-.976 1.197-1.075"/></g><mask id="bj" width="39" height="39" x="1" y="1" maskUnits="userSpaceOnUse" style="mask-type:luminance"><path fill="#fff" d="M20.503 39.925c10.729 0 19.426-8.697 19.426-19.425 0-10.729-8.697-19.426-19.426-19.426C9.775 1.074 1.078 9.771 1.078 20.5c0 10.729 8.697 19.426 19.425 19.426Z"/></mask><g mask="url(#bj)"><path fill="#CFB66C" d="M6.86 22.984c.145-.146.301-.288.457-.428l.239-.205c.073-.067.156-.14.229-.212.146-.146.288-.302.434-.452.073-.073.146-.146.23-.212a.623.623 0 0 1 .132-.09c.04-.023.083-.066.14-.073-.034.05-.074.073-.107.117-.04.033-.073.073-.106.106-.073.073-.156.14-.229.205-.156.133-.318.263-.474.402-.156.14-.302.288-.458.428-.17.142-.325.282-.488.414Zm1.983-1.327s-1.081 1.059-1.304 1.231l1.304-1.23Z"/></g><mask id="bk" width="39" height="39" x="1" y="1" maskUnits="userSpaceOnUse" style="mask-type:luminance"><path fill="#fff" d="M20.503 39.925c10.729 0 19.426-8.697 19.426-19.425 0-10.729-8.697-19.426-19.426-19.426C9.775 1.074 1.078 9.771 1.078 20.5c0 10.729 8.697 19.426 19.425 19.426Z"/></mask><g mask="url(#bk)"><path fill="#CFB66C" d="M8.843 21.656c-.1.116-.206.223-.312.319l-.329.311c-.106.107-.205.213-.318.319-.116.1-.222.196-.345.288l.319-.311c.106-.106.222-.196.335-.302l.318-.312c.11-.11.216-.216.332-.312Zm.05.574s-.123.362-.352.813c-.279.557-.697 1.254-.88 1.609"/></g><mask id="bl" width="39" height="39" x="1" y="1" maskUnits="userSpaceOnUse" style="mask-type:luminance"><path fill="#fff" d="M20.503 39.925c10.729 0 19.426-8.697 19.426-19.425 0-10.729-8.697-19.426-19.426-19.426C9.775 1.074 1.078 9.771 1.078 20.5c0 10.729 8.697 19.426 19.425 19.426Z"/></mask><g mask="url(#bl)"><path fill="#CFB66C" d="M8.891 22.23a.931.931 0 0 1-.073.335c-.04.107-.082.213-.132.312-.05.1-.106.206-.163.302-.056.1-.123.196-.172.295l-.335.59c-.116.197-.23.396-.352.585.083-.213.196-.412.302-.607.116-.196.222-.395.328-.598.05-.099.1-.205.14-.311.05-.106.1-.206.139-.302.05-.106.09-.206.14-.302.056-.103.102-.202.178-.299Z"/></g><mask id="bm" width="39" height="39" x="1" y="1" maskUnits="userSpaceOnUse" style="mask-type:luminance"><path fill="#fff" d="M20.503 39.925c10.729 0 19.426-8.697 19.426-19.425 0-10.729-8.697-19.426-19.426-19.426C9.775 1.074 1.078 9.771 1.078 20.5c0 10.729 8.697 19.426 19.425 19.426Z"/></mask><g mask="url(#bm)"><path fill="#DEC270" d="M10.071 24.95s-.328.434-.295.984c.09-.288.202-.73.295-.985Zm.312.434s-.116 1.18-.212 1.761c.136-.67.162-.613.212-1.761Zm2.173 1.83s-.491 1.444-.501 1.845c.106-.411.312-1.254.5-1.844Z"/></g><mask id="bn" width="39" height="39" x="1" y="1" maskUnits="userSpaceOnUse" style="mask-type:luminance"><path fill="#fff" d="M20.503 39.925c10.729 0 19.426-8.697 19.426-19.425 0-10.729-8.697-19.426-19.426-19.426C9.775 1.074 1.078 9.771 1.078 20.5c0 10.729 8.697 19.426 19.425 19.426Z"/></mask><g mask="url(#bn)"><path fill="#CBAF59" d="M13.703 24.863s.796 1.314 1.393 2.435c-.162-.564-.534-1.599-1.393-2.435Z"/></g><mask id="bo" width="39" height="39" x="1" y="1" maskUnits="userSpaceOnUse" style="mask-type:luminance"><path fill="#fff" d="M20.503 39.925c10.729 0 19.426-8.697 19.426-19.425 0-10.729-8.697-19.426-19.426-19.426C9.775 1.074 1.078 9.771 1.078 20.5c0 10.729 8.697 19.426 19.425 19.426Z"/></mask><g mask="url(#bo)"><path fill="#E3C677" d="M15.844 26.797s.623 1.075 1.18 2.385c-.066-.564-.245-1.53-1.18-2.385Z"/></g><mask id="bp" width="39" height="39" x="1" y="1" maskUnits="userSpaceOnUse" style="mask-type:luminance"><path fill="#fff" d="M20.503 39.925c10.729 0 19.426-8.697 19.426-19.425 0-10.729-8.697-19.426-19.426-19.426C9.775 1.074 1.078 9.771 1.078 20.5c0 10.729 8.697 19.426 19.425 19.426Z"/></mask><g mask="url(#bp)"><path fill="#ECD592" d="M22.135 28.731c.133-.083.395-.534.624-.647.228-.116.4-.139.607-.368.205-.239.262-.385.713-.574.63-.272.195-.623.195-.623s.107-.106.223-.19c.162-.122.351-.271.335-.533-.023-.442-.106-1.082-.468-1.453.352-.073 1.025-.123 1.443-.23.484-.122.707-.294.707-.294s-.28-.475.172-.953c.451-.474.82-.762 1.091-1.296-.311-.04-.786-.206-2 .255.09.04.19.106.19.106s-.747.206-1.02.435c-.473.401-.533.73-1.047.975-.518.245-1.032.179-1.46.378-.428.196-.49.368-.647.441.033.04-.006.106.057.163-.04.056-.272.434-.508.434.023.09.222.156.222.156s-.146.106-.517.133c.189.196.368.411.862.723-.04.083-.205.206-.139.362.073.155.262.368 1.018.54-.384.017-.835.106-1.442.024-.608-.073-.707-.117-1.082-.024.04.04.146.04.239.146-.1.007-.723-.073-.936.206-.222.288-.318.763-.301 1.081-.116.057-.23.156-.173.362.056.206.352.272.54.401.19.14.207.19.386.156.189-.04.467-.229.63-.229.162 0 .278.123.278.123s.442-.212.485-.173c.04.04.006.296.05.335.043.03.54-.265.673-.348Z"/></g><path fill="#fff" d="M31.773 15.459c-2.073-5.354-7.198-6.346-7.198-6.346H9.953l.056 5.454h2.913v12.177H9.953v5.443H24.17c3.427 0 6.174-3.443 6.174-3.443 4.398-6.243 1.43-13.285 1.43-13.285Zm-7.526 9.616s-1.115 1.61-2.329 1.61H19.49l-.056-12.105h3.114s1.443.302 2.452 3.158c0 0 1.337 4.09-.753 7.337Z" opacity=".8"/></svg>