<svg xmlns="http://www.w3.org/2000/svg" width="160" height="50" fill="none"><path fill="#fff" fill-rule="evenodd" d="M52.943 23.743c-.195-2.24-1.916-4.285-4.286-4.285-2.37 0-4.058 2.045-4.285 4.285h8.57Zm.973.445a.468.468 0 0 1-.47.464h-9.074c.227 2.24 1.915 4.286 4.285 4.286 1.623 0 2.825-.617 3.734-1.916.132-.177.325-.293.578-.186a.446.446 0 0 1 .2.64c-.908 1.592-2.726 2.37-4.512 2.37-3.051 0-5.227-2.726-5.227-5.648 0-2.922 2.176-5.65 5.227-5.65 3.049 0 5.253 2.72 5.259 5.64Zm11.006-5.412c.26 0 .455.228.455.455 0 .26-.195.454-.455.454h-2.435v9.545a.464.464 0 0 1-.454.454.464.464 0 0 1-.455-.454v-9.545H59.24a.444.444 0 0 1-.455-.454c0-.227.195-.455.455-.455h2.337v-3.494c0-.22.15-.424.367-.46.302-.05.542.16.542.448v3.506h2.435Zm14.836 4.61v5.78a.463.463 0 0 1-.63.421.445.445 0 0 1-.28-.422v-5.78c0-1.947-1.103-3.895-3.278-3.895-2.792 0-3.993 2.435-3.83 4.935 0 .065.032.357.032.39v4.338c0 .22-.15.424-.366.46-.303.049-.543-.16-.543-.448V10.173c0-.227.195-.454.454-.454.26 0 .455.227.455.454v10.746c.78-1.396 2.175-2.338 3.798-2.338 2.662 0 4.188 2.338 4.188 4.805Zm15.29.357c-.194-2.24-1.915-4.285-4.285-4.285s-4.058 2.045-4.285 4.285h8.57Zm.974.445a.468.468 0 0 1-.47.464h-9.074c.227 2.24 1.915 4.286 4.285 4.286 1.624 0 2.825-.617 3.734-1.916.132-.177.325-.293.578-.186a.447.447 0 0 1 .2.64c-.908 1.592-2.726 2.37-4.512 2.37-3.051 0-5.226-2.726-5.226-5.648 0-2.922 2.175-5.65 5.226-5.65 3.049 0 5.253 2.72 5.259 5.64Zm11.136-4.99c0 .293-.162.455-.422.487-2.662.39-3.863 2.565-3.863 5.097v4.339c0 .22-.15.423-.367.459-.302.049-.543-.16-.543-.448v-9.89c0-.22.15-.423.367-.46.303-.048.543.16.543.449v2.013c.746-1.267 2.24-2.467 3.798-2.467.227 0 .487.162.487.42Zm13.927 4.545c-.195-2.24-1.915-4.285-4.285-4.285s-4.058 2.045-4.285 4.285h8.57Zm.974.445a.473.473 0 0 1-.47.464h-9.074c.227 2.24 1.915 4.286 4.285 4.286 1.623 0 2.824-.617 3.733-1.916.133-.177.326-.293.579-.186a.442.442 0 0 1 .2.64c-.909 1.59-2.727 2.37-4.512 2.37-3.052 0-5.226-2.726-5.226-5.65 0-2.92 2.174-5.647 5.226-5.647 3.048 0 5.254 2.72 5.26 5.639h-.001Zm14.641-4.875v9.917a.463.463 0 0 1-.63.422.448.448 0 0 1-.279-.422v-1.883c-.746 1.493-2.077 2.565-3.766 2.565-2.694 0-4.187-2.338-4.187-4.805v-5.81c0-.228.194-.456.454-.456s.455.228.455.455v5.81c0 1.949 1.103 3.897 3.278 3.897 3.052 0 3.766-2.857 3.766-6.007v-3.7a.462.462 0 0 1 .377-.446.46.46 0 0 1 .209.01.465.465 0 0 1 .323.453Zm22.952 4.04v5.81a.464.464 0 0 1-.63.424.438.438 0 0 1-.247-.247.423.423 0 0 1-.032-.175v-5.811c0-1.948-1.103-3.863-3.279-3.863-2.726 0-3.765 2.92-3.765 5.194v4.48a.464.464 0 0 1-.631.422.446.446 0 0 1-.278-.422v-5.811c0-1.948-1.104-3.863-3.279-3.863-2.76 0-3.896 2.175-3.799 5.064 0 .065.033.195 0 .227v4.372c0 .22-.149.422-.366.458-.303.05-.543-.16-.543-.447v-9.922c0-.22.15-.424.367-.46.302-.05.542.16.542.448v1.655c.78-1.395 2.176-2.304 3.8-2.304 1.849 0 3.278 1.168 3.862 2.889.746-1.688 2.207-2.89 4.09-2.89 2.662 0 4.188 2.305 4.188 4.773Z" clip-rule="evenodd"/><path fill="#8C8C8C" fill-rule="evenodd" d="m0 25.155 15.16 8.962V0L0 25.155Z" clip-rule="evenodd"/><path fill="#343434" fill-rule="evenodd" d="M15.156 0v34.117l15.16-8.962L15.156 0Z" clip-rule="evenodd"/><path fill="#151515" fill-rule="evenodd" d="M15.161 18.266 0 25.156l15.16 8.962 15.161-8.961-15.16-6.891Z" clip-rule="evenodd"/><path fill="#393939" fill-rule="evenodd" d="M15.161 18.266 0 25.156l15.16 8.962.001-15.852Z" clip-rule="evenodd"/><path fill="#8C8C8C" fill-rule="evenodd" d="m0 28.031 15.16 21.364V36.988L0 28.031Z" clip-rule="evenodd"/><path fill="#343434" fill-rule="evenodd" d="M15.156 36.988v12.408l15.17-21.365-15.17 8.957Z" clip-rule="evenodd"/></svg>