<svg xmlns="http://www.w3.org/2000/svg" viewBox="0 0 300 60" fill="none"><circle cx="35.5" cy="35.5" r="35.5" fill="#0D0F1B"/><path fill="#8C8C8C" fill-rule="evenodd" d="m20 36.155 15.16 8.962V11L20 36.155Z" clip-rule="evenodd"/><path fill="#343434" fill-rule="evenodd" d="M35.156 11v34.117l15.16-8.962L35.156 11Z" clip-rule="evenodd"/><path fill="#151515" fill-rule="evenodd" d="M35.161 29.266 20 36.156l15.16 8.962 15.161-8.961-15.16-6.891Z" clip-rule="evenodd"/><path fill="#393939" fill-rule="evenodd" d="M35.161 29.266 20 36.156l15.16 8.962.001-15.852Z" clip-rule="evenodd"/><path fill="#8C8C8C" fill-rule="evenodd" d="m20 39.031 15.16 21.364V47.988L20 39.031Z" clip-rule="evenodd"/><path fill="#343434" fill-rule="evenodd" d="M35.156 47.988v12.408l15.17-21.365-15.17 8.957Z" clip-rule="evenodd"/><circle cx="79.5" cy="35.5" r="35.5" fill="#0D0F1B"/><path fill="#26A17B" d="M79.175 58.754c12.8 0 23.175-10.466 23.175-23.377C102.35 22.467 91.974 12 79.175 12 66.375 12 56 22.466 56 35.377s10.376 23.377 23.175 23.377Z"/><path fill="#fff" d="M81.646 37.038v-.004c-.16.011-.987.06-2.828.06-1.471 0-2.504-.041-2.869-.06v.004c-5.66-.252-9.88-1.244-9.88-2.436 0-1.188 4.224-2.183 9.88-2.435v3.882c.37.026 1.431.09 2.895.09 1.759 0 2.638-.075 2.802-.09V32.17c5.649.256 9.859 1.248 9.859 2.436s-4.214 2.18-9.859 2.435m0-5.273v-3.472h7.88V23H68.074v5.296h7.88v3.472c-6.405.297-11.219 1.575-11.219 3.108 0 1.534 4.818 2.812 11.22 3.113V49.12h5.696V37.988c6.394-.297 11.2-1.574 11.2-3.108 0-1.53-4.806-2.811-11.2-3.108"/><circle cx="123.5" cy="35.5" r="35.5" fill="#0D0F1B"/><path fill="#F7931A" fill-rule="evenodd" d="M123.191 60.184c13.912 0 25.191-11.234 25.191-25.092 0-13.858-11.279-25.092-25.191-25.092C109.278 10 98 21.234 98 35.092c0 13.858 11.278 25.093 25.191 25.093Zm11.106-28.67c.501-3.34-2.052-5.135-5.542-6.334l1.132-4.526-2.764-.687-1.102 4.407c-.726-.18-1.473-.351-2.216-.52l1.11-4.434-2.763-.688-1.134 4.525a87.427 87.427 0 0 1-1.765-.414l.003-.014-3.813-.948-.736 2.942s2.051.467 2.008.497c1.12.28 1.323 1.017 1.289 1.602l-1.29 5.153c.077.02.176.046.288.093-.093-.025-.19-.049-.293-.074l-1.808 7.223c-.137.338-.485.846-1.268.653.028.04-2.01-.499-2.01-.499l-1.373 3.154 3.597.892c.67.166 1.327.342 1.971.507l-1.144 4.576 2.761.687 1.134-4.527c.755.202 1.487.392 2.204.57l-1.13 4.505 2.765.687 1.145-4.567c4.715.888 8.261.53 9.752-3.718 1.204-3.422-.06-5.394-2.54-6.68 1.808-.414 3.169-1.597 3.532-4.043Zm-6.303 8.819c-.855 3.42-6.635 1.57-8.51 1.106l1.519-6.062c1.874.466 7.884 1.388 6.991 4.956Zm.838-8.869c-.78 3.11-5.591 1.53-7.152 1.144l1.376-5.5c1.561.389 6.587 1.112 5.776 4.356Z" clip-rule="evenodd"/><circle cx="167.5" cy="35.5" r="35.5" fill="#0D0F1B"/><path fill="#fff" fill-rule="evenodd" d="M163.259 21.928 159.417 36.3l-3.045 1.197-1.097 4.092 3.094-1.047-2.046 8.483 22.155.049 1.347-5.439h-13.473l1.747-6.537 3.642-1.548 1.048-3.991-3.542 1.197 2.794-10.678-8.782-.149Zm4.241-10.925A24.517 24.517 0 0 1 192 35.5 24.514 24.514 0 0 1 167.5 60 24.515 24.515 0 0 1 143 35.5c.049-13.522 10.978-24.5 24.5-24.5v.003Z" clip-rule="evenodd"/><circle cx="211.5" cy="35.5" r="35.5" fill="#0D0F1B"/><path fill="#F0B90B" d="m198.616 35.505-5.309 5.307L188 35.505l5.307-5.308 5.309 5.308Zm12.887-12.89 9.097 9.099 5.303-5.296L211.5 12l-14.403 14.418 5.306 5.308 9.1-9.11Zm18.193 7.582-5.306 5.308 5.303 5.307L235 35.505l-5.304-5.308Zm-18.193 18.197-9.097-9.099-5.309 5.302L211.5 59l14.403-14.403-5.306-5.308-9.094 9.105Zm0-7.582 5.307-5.307-5.307-5.308-5.307 5.308 5.307 5.307Z"/><circle cx="255.5" cy="35.5" r="35.5" fill="#0D0F1B"/><path fill="#988430" d="M255.5 61c14.083 0 25.5-11.417 25.5-25.5S269.583 10 255.5 10 230 21.417 230 35.5 241.417 61 255.5 61Z"/><path fill="#7A6A2A" d="M255.496 60.182c13.632 0 24.683-11.05 24.683-24.683 0-13.632-11.051-24.683-24.683-24.683-13.633 0-24.684 11.051-24.684 24.683 0 13.633 11.051 24.683 24.684 24.683Z"/><path fill="#BA9F33" d="M255.507 59.662c13.345 0 24.163-10.818 24.163-24.163s-10.818-24.163-24.163-24.163-24.163 10.818-24.163 24.163 10.818 24.163 24.163 24.163Z"/><mask id="a" width="49" height="49" x="231" y="11" maskUnits="userSpaceOnUse" style="mask-type:luminance"><path fill="#fff" d="M255.499 59.662c13.345 0 24.163-10.818 24.163-24.163s-10.818-24.163-24.163-24.163-24.163 10.818-24.163 24.163 10.818 24.163 24.163 24.163Z"/></mask><g mask="url(#a)"><path fill="#E2CC85" d="m249.41 45.487-.808-1.531.47-1.915 3.355-1.295-1.428-2.93.705-2.958 1.325-2.65 4.093-.643 3.008-2.868 6.495.491 1.275 6.945-2.455 8.743-1.399 4.527-5.669.214-2.633-1.824-3.082-1.287-3.252-1.02Z"/></g><mask id="b" width="49" height="49" x="231" y="11" maskUnits="userSpaceOnUse" style="mask-type:luminance"><path fill="#fff" d="M255.499 59.662c13.345 0 24.163-10.818 24.163-24.163s-10.818-24.163-24.163-24.163-24.163 10.818-24.163 24.163 10.818 24.163 24.163 24.163Z"/></mask><g mask="url(#b)"><path fill="#F1D789" d="M259.342 45.437s-.784.36-2.121.277c-.388-.52-3.099-.764-3.099-.764s-.338-.103-.936.145c-.603.243-1.172.215-1.704.346-.533.133-1.061-.56-1.469-.705-.409-.153-.949-.52-.949-.52l-1.143-.111-2.294-.97-3.644-3.631-.99 1.551-.305 1.92 1.101 2.273 2.967 2.702 5.785 1.47 3.429-1.012 4.295-1.815 1.077-1.156Z"/></g><mask id="c" width="49" height="49" x="231" y="11" maskUnits="userSpaceOnUse" style="mask-type:luminance"><path fill="#fff" d="M255.499 59.662c13.345 0 24.163-10.818 24.163-24.163s-10.818-24.163-24.163-24.163-24.163 10.818-24.163 24.163 10.818 24.163 24.163 24.163Z"/></mask><g mask="url(#c)"><path fill="#F4ECB4" d="m238.793 32.602.735-2.224.875-1.436 2.818-.235-.846 2.467-2.356 4.193.978 3.742-1.733.867-.533-.817-.429-1.874-.029-2.104.52-2.579Z"/></g><mask id="d" width="49" height="49" x="231" y="11" maskUnits="userSpaceOnUse" style="mask-type:luminance"><path fill="#fff" d="M255.499 59.662c13.345 0 24.163-10.818 24.163-24.163s-10.818-24.163-24.163-24.163-24.163 10.818-24.163 24.163 10.818 24.163 24.163 24.163Z"/></mask><g mask="url(#d)"><path fill="#F3E19D" d="m241.958 45.28-.54-.756s-.144-.359-.062-.672c.083-.318.07-.339.029-.458-.041-.12-.388-.533-.367-.888.02-.359-.029-.478.235-.763.276-.276.194-.755.194-.755l.359.223.082-.124s.132.103.132.264c.029-.223-.09-1.254.182-1.49.276-.235.755 1.102.755 1.102l-.297-1.94-.763-1.988-1.358-1.816-.082-2v-.174s-.624.957-.797 1.712c-.124.52.173 1.151.112 1.898-.05.743-.112.685.07.978.181.293.623.9.449 1.337-.152.376-.672.112-.672.112s-.103.305-.244.416a.922.922 0 0 0-.202-.408c-.008.07-.029.165-.029.165s-.09-.285-.181-.644c-.124-.478-.256-1.11-.376-1.448-.049.194-.173.784-.173.784l.07.908.339 1.246.326.817.317.998.277.673.223.511.193 1.152.937.99.499.223.363-.186Z"/></g><mask id="e" width="49" height="49" x="231" y="11" maskUnits="userSpaceOnUse" style="mask-type:luminance"><path fill="#fff" d="M255.499 59.662c13.345 0 24.163-10.818 24.163-24.163s-10.818-24.163-24.163-24.163-24.163 10.818-24.163 24.163 10.818 24.163 24.163 24.163Z"/></mask><g mask="url(#e)"><path fill="#F2E8B0" d="M239.284 30.785s-.672 1.143-.866 2.294c-.194 1.151-.367 2.369-.244 3.937.124 1.58.359 2.55.549 3.243.326 1.151 1.172 2.752 1.172 2.752l.029-.062s-.223-.408-.338-.846c-.112-.437-.153-.957-.256-1.192-.091-.235-.244-.438-.318-.726-.07-.277-.082-.714-.297-1.04-.091-.132-.202-.479-.235-.826-.041-.52.02-1.101-.029-1.58-.091-.796-.153-1.337-.07-1.753.082-.417.511-1.601.775-2.542.174-.603.071-1.11.388-1.634.318-.52.512-.978.582-1.296.083-.289-.842 1.271-.842 1.271Z"/></g><mask id="f" width="49" height="49" x="231" y="11" maskUnits="userSpaceOnUse" style="mask-type:luminance"><path fill="#fff" d="M255.499 59.662c13.345 0 24.163-10.818 24.163-24.163s-10.818-24.163-24.163-24.163-24.163 10.818-24.163 24.163 10.818 24.163 24.163 24.163Z"/></mask><g mask="url(#f)"><path fill="#F5EEC0" d="M242.48 30.33s-.346.103-.511.285c-.165.173-.236.318-.458.61-.223.298-.236.533-.417.9-.182.359-.582.9-.631 1.093-.05.194-.133 1.102-.236 1.531-.09.43.103.957.103.957l.236-.049s0 .305.235.512c.235.202.276-.685.276-.685l.879-2.967 1.325-.9.144-.726-.945-.56Z"/></g><mask id="g" width="49" height="49" x="231" y="11" maskUnits="userSpaceOnUse" style="mask-type:luminance"><path fill="#fff" d="M255.499 59.662c13.345 0 24.163-10.818 24.163-24.163s-10.818-24.163-24.163-24.163-24.163 10.818-24.163 24.163 10.818 24.163 24.163 24.163Z"/></mask><g mask="url(#g)"><path fill="#E6DB9D" d="M243.112 31.675s-.623.041-.929.264c-.123.091-.173.165-.305.277-.243.202-.491.388-.611.652-.132.264-.276.664-.375 1.42-.041.317-.041.61-.07.866-.042.346-.103.623-.07.817.041.396.449.602.491 1.052l.845-.43.797-3.14 1.692-1.06-.958-1.073-.507.355Z"/></g><mask id="h" width="49" height="49" x="231" y="11" maskUnits="userSpaceOnUse" style="mask-type:luminance"><path fill="#fff" d="M255.499 59.662c13.345 0 24.163-10.818 24.163-24.163s-10.818-24.163-24.163-24.163-24.163 10.818-24.163 24.163 10.818 24.163 24.163 24.163Z"/></mask><g mask="url(#h)"><path fill="#E5CB7A" d="m243.245 59.704-3.775.09-2.001-.152s.124-1.469.152-1.816c.071-.214.306-.825.376-.936.049-.165.111-.582-.029-1.094.091-.144.376-.222.693-3.07.124-1.06.145-1.865.235-2.368.132-.714.223-.978.203-1.246-.029-.43-.062-.743-.021-1.073.062-.437.491-.957.479-1.316-.009-.285-.153-.47-.277-.644-.124-.173-.223-.318-.223-.318s.846-.581.838-2.925c.029.008.049.02.049.02l.417 1.185.285.346 1.093 2.039 1.407 1.365 2.08 1.4 1.304 1.419.132 3.784-1.704 2.211-1.713 3.099Z"/></g><mask id="i" width="49" height="49" x="231" y="11" maskUnits="userSpaceOnUse" style="mask-type:luminance"><path fill="#fff" d="M255.499 59.662c13.345 0 24.163-10.818 24.163-24.163s-10.818-24.163-24.163-24.163-24.163 10.818-24.163 24.163 10.818 24.163 24.163 24.163Z"/></mask><g mask="url(#i)"><path fill="#D8C173" d="M243.852 56.44s.028-.471.416-.776c.062.103.103.202.091.276.07-.124.561-.916 1.671-1.122 1.11-.203 1.378-1.011 1.378-1.011l2.356-2.142 2.695-2.48 3.276-1.15 1.531-.376s.029.111-.029.359c.285-.021.916-.165 1.572-.396.264-.104.512-.145.644-.009.194.182.223.611.235.867.318-.07.685-.376.978-.347.47.05.887.603 1.366.603.631 0 .916-.388 1.357-.694.264-.181.644-.408.858-.56.512-.376 5.926-2.03 5.926-2.03l1.898.123.305 2.038-.165 5.356-8.69 4.539-13.699 2.1-5.578-1.427-.392-1.742Z"/></g><mask id="j" width="49" height="49" x="231" y="11" maskUnits="userSpaceOnUse" style="mask-type:luminance"><path fill="#fff" d="M255.499 59.662c13.345 0 24.163-10.818 24.163-24.163s-10.818-24.163-24.163-24.163-24.163 10.818-24.163 24.163 10.818 24.163 24.163 24.163Z"/></mask><g mask="url(#j)"><path fill="#F1D789" d="M238.07 59.716s.5-1.13.735-2.765c.194-1.337.02-1.642.07-2.071.07-.644.796-1.898.858-2.142.05.5.194 2.385.714 2.806-.111.165-.297.735.367 1.172-.111.235-.338.52-.194.949.145.43.318 1.04.236 1.712-.236.05-.492.153-.694.347-.202.182-2.092-.008-2.092-.008Z"/></g><mask id="k" width="49" height="49" x="231" y="11" maskUnits="userSpaceOnUse" style="mask-type:luminance"><path fill="#fff" d="M255.499 59.662c13.345 0 24.163-10.818 24.163-24.163s-10.818-24.163-24.163-24.163-24.163 10.818-24.163 24.163 10.818 24.163 24.163 24.163Z"/></mask><g mask="url(#k)"><path fill="#E0CD81" d="m246.619 58.927 3.041-.846.132.042s.071.04.071.181c.193-.111.359-.09.478-.165.062.132.124.57.396.623.285.062.59-.124.9-.359.305-.243.652-.549.916-.672.049.082.173.338.256.548.346-.276.949-1.398 1.807-1.378.082-.194.388-.9 1.192-1.44.797-.54 1.296-.582 1.919-.532.244-.318.561-.602.9-.805.103.042.387.215.742.05.359-.165.764-.805 1.296-.887.47-.07.825.173.825.173s1.552-1.54 2.62-2.05c-.041-.124-.123-.59 1.131-1.622.07.062.021.235.07.243.021 0 .326-.132.714-.429.479-.359 1.052-.734 1.399-.838.652-.194 1.345.203 1.345.203s.082-.062.194-.091c.165-.03.284-.05.375-.083-.008.215.112.582 0 .9 0 0 .174.103.409.173-.07.153-.223.54-.479.726.215.104.244.223.549.326-.124.174-.326.47-.417.652-.091.194-.417.999-.561 1.304-.153.305-.359.867-.458.978-.103.111-.458.59-.734.825.243-.09 1.246-.396 1.671-.511-.256.375-2.621 3.887-2.621 3.887l-4.761 1.419-2.336.396-12.168-.008-1.073-.532.26-.4Z"/></g><mask id="l" width="49" height="49" x="231" y="11" maskUnits="userSpaceOnUse" style="mask-type:luminance"><path fill="#fff" d="M255.499 59.662c13.345 0 24.163-10.818 24.163-24.163s-10.818-24.163-24.163-24.163-24.163 10.818-24.163 24.163 10.818 24.163 24.163 24.163Z"/></mask><g mask="url(#l)"><path fill="#DFC57C" d="M243.226 31.563s-.359 0-.429.05.359.152.491.202c.132.05.417.276.491.458.07.173 2.579 1.184 2.579 1.184l1.774-.09.611-.846-1.164-1.02.817-2.405-1.081.173-2.6 1.552-1.303.499-.186.243Z"/></g><mask id="m" width="49" height="49" x="231" y="11" maskUnits="userSpaceOnUse" style="mask-type:luminance"><path fill="#fff" d="M255.499 59.662c13.345 0 24.163-10.818 24.163-24.163s-10.818-24.163-24.163-24.163-24.163 10.818-24.163 24.163 10.818 24.163 24.163 24.163Z"/></mask><g mask="url(#m)"><path fill="#E5CC7C" d="M247.114 32.36s.07.131.243.131c.367 0 .706.091.846.277.235.297.887 1.246.887 1.246l1.56.561.103-1.836-1.704-1.184-1.94.714v.09h.005Z"/></g><mask id="n" width="49" height="49" x="231" y="11" maskUnits="userSpaceOnUse" style="mask-type:luminance"><path fill="#fff" d="M255.499 59.662c13.345 0 24.163-10.818 24.163-24.163s-10.818-24.163-24.163-24.163-24.163 10.818-24.163 24.163 10.818 24.163 24.163 24.163Z"/></mask><g mask="url(#n)"><path fill="#D2C281" d="M246.808 33.04s.285.02.644-.112c.359-.132.949-.416 1.205-.305.358.153.284.631.672 1.06.235.264.664.256.908.54.243.286 1.081.154 1.081.154l.318 1.712-1.275 1.634-.417 2.03h-1.725l-1.576-.623-.776-1.877.388-1.898.553-2.315Z"/></g><mask id="o" width="49" height="49" x="231" y="11" maskUnits="userSpaceOnUse" style="mask-type:luminance"><path fill="#fff" d="M255.499 59.662c13.345 0 24.163-10.818 24.163-24.163s-10.818-24.163-24.163-24.163-24.163 10.818-24.163 24.163 10.818 24.163 24.163 24.163Z"/></mask><g mask="url(#o)"><path fill="#E2C270" d="M250.139 33.12s.062.021.132.021c-.049.041-.152.132-.111.367.041.235.173.533.062.714.049.062.123.132.194.338.07.203.09.388.548.417a.964.964 0 0 0-.181.145s.318.276.478.532c.166-.008.603-.144.603-.144l.091.062.194-.083s-.182-.07-.05-.512c.124-.388.235-.367.244-.396.008-.029.09-.437.09-.602.062-.215.112-.867.112-.867l-.132-1.44-.743-.45-.602-.581-.57 1.072-.375.376-.029.928.045.103Z"/></g><mask id="p" width="49" height="49" x="231" y="11" maskUnits="userSpaceOnUse" style="mask-type:luminance"><path fill="#fff" d="M255.499 59.662c13.345 0 24.163-10.818 24.163-24.163s-10.818-24.163-24.163-24.163-24.163 10.818-24.163 24.163 10.818 24.163 24.163 24.163Z"/></mask><g mask="url(#p)"><path fill="#CCB360" d="M251.93 31.92s.132.376.181.664c.029-.09.029-.173.029-.173s.103.57.124.805c.041-.008.082-.02.091.02.008.042.103.5.082.756.05-.091.285-.45.693-.694.165-.103.359-.214.562-.223.317-.008.548.203.928.203.916 0 1.745-.673 2.356-.88.45-.152.838-.263 1.11-.51.132-.112.367-.36.582-.727.285-.491.582-.916.879-.97-.236.042-.409.03-.409.03s.091-.092.244-.215c.152-.124.338-.277.602-.277.47 0 .706.07.97.07.264-.008.416-.07.416-.07s.277.194.9.194c.623.008 1.04.062 1.366.09.326.03 1.419-.09 1.733-.082.326.009.59.145.59.145l-1.011-2.938-3.631-3.173-2.162 1.53-3.326 3.326-3.218 1.193-.673.755v1.151h-.008Z"/></g><mask id="q" width="49" height="49" x="231" y="11" maskUnits="userSpaceOnUse" style="mask-type:luminance"><path fill="#fff" d="M255.499 59.662c13.345 0 24.163-10.818 24.163-24.163s-10.818-24.163-24.163-24.163-24.163 10.818-24.163 24.163 10.818 24.163 24.163 24.163Z"/></mask><g mask="url(#q)"><path fill="#D5B457" d="M259.153 30.235s.091-.09.244-.215c.152-.123.338-.276.602-.276.47 0 .706.07.97.07.264-.008.416-.07.416-.07s.277.194.9.194c.623.008 1.04.062 1.366.09.326.03 1.419-.09 1.733-.082.326.008.59.145.59.145l-.458-1.325-.533-1.01-1.518-1.664-1.836-1.08a24.307 24.307 0 0 0-.632-.174l-1.65.998-1.498 3.875-.029.817.97.458c.243-.409.512-.735.763-.776-.227.025-.4.025-.4.025Z"/></g><mask id="r" width="49" height="49" x="231" y="11" maskUnits="userSpaceOnUse" style="mask-type:luminance"><path fill="#fff" d="M255.499 59.662c13.345 0 24.163-10.818 24.163-24.163s-10.818-24.163-24.163-24.163-24.163 10.818-24.163 24.163 10.818 24.163 24.163 24.163Z"/></mask><g mask="url(#r)"><path fill="#D2B257" d="M259.131 30.51c-.144.007-.264-.022-.297-.125-.124-.346-.223-.396-.326-.396-.103 0-.243.223-.326.244-.082.02-.181-.256-.181-.256l-.091-.041s-.532.346-.908.755c-.375.408-.99 1.101-1.267 1.225-.276.124-1.225.165-1.551.235-.326.07-.685.306-.735.36-.049.053.145.11.174.164.029.05-.318.03-.347.083-.021.041.083.276.132.396a.676.676 0 0 1 .285-.07c.318-.008.549.202.928.202.916 0 1.746-.672 2.356-.879.45-.152.838-.264 1.11-.511.132-.112.368-.36.582-.727.157-.251.31-.487.462-.66Z"/></g><mask id="s" width="49" height="49" x="231" y="11" maskUnits="userSpaceOnUse" style="mask-type:luminance"><path fill="#fff" d="M255.499 59.662c13.345 0 24.163-10.818 24.163-24.163s-10.818-24.163-24.163-24.163-24.163 10.818-24.163 24.163 10.818 24.163 24.163 24.163Z"/></mask><g mask="url(#s)"><path fill="#D2B159" d="M245.994 50.932s-.083-.305-.838-1.093c-.214-.223-.346-.409-.491-.54-.359-.339-.569-.43-.825-.624-.561-.416-1.172-.416-1.642-.928-.471-.512-1.019-1.49-1.399-2.488-.376-.999-.479-1.316-.479-1.345 0-.03.103-.223.236-.194.132.029.132.284.165.346.008.021.103.153.222.285.194.223.471.491.611.887-.029-.338-.144-.714-.144-.714s.726.458 1.345.937c.623.479.879.644 1.06.949.182.305.611 1.11.817 1.345.207.235 3.021 1.122 3.021 1.122l1.336.999.665 1.457-.52.817-.999.214-1.621-.726-.52-.706Z"/></g><mask id="t" width="49" height="49" x="231" y="11" maskUnits="userSpaceOnUse" style="mask-type:luminance"><path fill="#fff" d="M255.499 59.662c13.345 0 24.163-10.818 24.163-24.163s-10.818-24.163-24.163-24.163-24.163 10.818-24.163 24.163 10.818 24.163 24.163 24.163Z"/></mask><g mask="url(#t)"><path fill="#C2A44D" d="M242.399 45.915s.338.54 1.163 1.052c.743.45 1.919.859 2.967 1.102.603.144 1.205.256 1.746.264 1.456.02 2.459-.396 3.701-.532.672-.07 1.498-.124 2.356-.326 1.102-.264 1.753-.561 2.641-.978.643-.297 1.233-.52 1.712-.805.673-.396 1.164-.837 1.733-.97-.07.195-.144.541-.706.9.297-.008.706-.029.706-.029s-.396.235-1.093.764c-.43.326-.999.879-1.581 1.246-.375.235-.784.408-1.052.548-.652.36-.916.541-1.345.978a.569.569 0 0 1 .165 0s-.541.07-.928.277c-.083 0-.223-.029-.471.041-.194.062-.45.202-.714.277-.375.111-.499.062-.499.062l.062.123s-.491-.008-.652.009c.029.008.021.02.021.02s-.021 0-.083.03c-.049.028-.132.082-.256.11-.049.009-.091.009-.152.021.02.05.181.326.255.491-.061.041-.99.743-.99.743s.041.062.07.144c.029.091.042.223.07.285.071.124.112.144.112.144s-.112.021-.306.07c-.165.042-.367.112-.651.153-.083.009-.174.02-.265.02.042.092.223.438-.111.838-.338.397-.437.459-.54.714-.029-.02-.083-.062-.166-.103-.111-.05-.264-.124-.317-.223-.009.042-.05.203-.124.388-.103.277-.256.549-.285.755-.111-.123-.317-.367-.602-.317-.285.05-.512.437-.561.548 0-.07-.05-.123-.062-.04-.008.09-.165 1.039-1.04 1.806-.008-.194-.008-.623-.029-.763-.082.083-.181.202-.776.458-.581.256-.491.512-.491.512s-.049-.409.264-.838c.318-.43.512-.631.512-.664a.183.183 0 0 0-.041-.091c-.041-.041-.124-.09-.124-.124.05-.02.541-.256.512-.742-.029-.438-.215-.665-.347-.826-.021-.02.194-.173.165-.223-.021-.029-.285-.222-.318-.326.009-.05.021-.132.042-.181.029-.09.049-.153.041-.215-.021-.103-.132-.387-.165-.416.029.008.235 0 .235 0s-.165-.264-.194-.388c-.029-.124-.091-.45-.124-.512.07.008.244.02.244 0 .008-.062-.153-.165-.083-.243.05.008.145.05.235.165-.049-.132-.132-.388-.305-.491.083-.03.359-.103.603.04a.81.81 0 0 1 .326.348s.144.11.367.276c.256.202.582.491 1.101.693.112.062.397.062.603.02.124-.028.194-.07.256-.102.049-.03.09-.042.09-.042s-.082-.165-.152-.256c.07 0 .152.009.152.009s.05-.112-.173-.326c.05-.05.112-.083.112-.165-.071-.008-.194-.112-.223-.153.041-.029.103-.124.173-.153-.062-.05-.214-.255-.285-.276.071-.02.194-.09.194-.09s-.346-.092-.458-.166c-.111-.082-.276-.223-.375-.264-.103-.041-.285-.062-.359-.144.07.02.181 0 .264 0 .062 0 .091.008.111.008-.008-.029-.008-.09.153-.111a.756.756 0 0 0 .223-.07s-.153-.009-.326-.174c-.173-.165-.318-.297-.417-.318-.103-.02-.297.07-.417.062-.165-.02-.235-.103-.235-.103s-.549.05-1.766-.693c-1.052-.644-1.51-1.213-1.51-1.213s-.124-.041-.285-.132c-.396-.207-.945-.636-.928-1.197Z"/></g><mask id="u" width="49" height="49" x="231" y="11" maskUnits="userSpaceOnUse" style="mask-type:luminance"><path fill="#fff" d="M255.499 59.662c13.345 0 24.163-10.818 24.163-24.163s-10.818-24.163-24.163-24.163-24.163 10.818-24.163 24.163 10.818 24.163 24.163 24.163Z"/></mask><g mask="url(#u)"><path fill="#CAA13E" d="M257.57 21.15s.144.04.243.165c.194.222.318.643-.123 1.093.173.062.243.082.396.062-.153.181-.5.57-.52.908-.021.276.153.359.153.359s-.265.305-.277.817c.062-.07.202-.223.409-.388.305-.244.726-.52 1.01-.694-.008.112.029.215.029.215s.533-.437.978-.243c.202.09.112.375.112.375s.276-.103.47.09c.194.195.47.694.611.888.062.09.223.264.388.532.194.318.408.755.561 1.184.008-.214.062-.548.672-.338.611.215 1.304.665 1.886 1.552.582.887.726 1.885 1.019 2.265.297.367.603.978.623 1.234.021.256-.091 1.08.52 3.313.173-.693.438-2.232.438-2.232l.144-1.358.165-4.2-4.386-3.644-3.429-2.488-2.232.215.14.317Z"/></g><mask id="v" width="49" height="49" x="231" y="11" maskUnits="userSpaceOnUse" style="mask-type:luminance"><path fill="#fff" d="M255.499 59.662c13.345 0 24.163-10.818 24.163-24.163s-10.818-24.163-24.163-24.163-24.163 10.818-24.163 24.163 10.818 24.163 24.163 24.163Z"/></mask><g mask="url(#v)"><path fill="#B59544" d="M265.724 27.396s-.062-.408-1.094-1.102c-1.031-.684-1.836-.684-2.579-1.266-.569-.458-1.163-1.51-1.551-1.857-.376-.343-.438-1.333-.438-1.333l1.267-1.06 1.886-2.724 1.593-1.753.763 1.06 1.06 1.246.59 2.5.215 3.66-1.712 2.63Z"/></g><mask id="w" width="49" height="49" x="231" y="11" maskUnits="userSpaceOnUse" style="mask-type:luminance"><path fill="#fff" d="M255.499 59.662c13.345 0 24.163-10.818 24.163-24.163s-10.818-24.163-24.163-24.163-24.163 10.818-24.163 24.163 10.818 24.163 24.163 24.163Z"/></mask><g mask="url(#w)"><path fill="#C89D3A" d="M266.999 31.783s.07-.797-.202-1.643c-.272-.845-.866-2.347-1.143-2.909-.111-.623-.029-.672.091-.742.124-.07.569-.326.817-1.226.243-.9 1.011-.928 1.011-.928l.47-.347.714 1.787.623 1.613.194 1.234.144 1.052-.338 2.224-1.671 1.51-.71-1.625Z"/></g><mask id="x" width="49" height="49" x="231" y="11" maskUnits="userSpaceOnUse" style="mask-type:luminance"><path fill="#fff" d="M255.499 59.662c13.345 0 24.163-10.818 24.163-24.163s-10.818-24.163-24.163-24.163-24.163 10.818-24.163 24.163 10.818 24.163 24.163 24.163Z"/></mask><g mask="url(#x)"><path fill="#CEB052" d="M243.249 59.704s-.375-.693-.396-.99a.935.935 0 0 1 .103-.47s-.144-.215-.276-.265c.029-.144.082-.318.194-.437.111-.132.326-.306.367-.368.041-.062.062-.144.181-.165.124-.02.256-.02.256-.181v-.297s.05-.03.091-.083c.029-.041.05-.09.07-.103.041-.02.235-.082.339-.062.103.02.375.132.519.124.297-.008.644-.235 1.193-.132.825.153 1.019.714 1.498 1.031.326.223.664.124.714.124h.111c.021 0 .173-.173.256-.165.165.008.181.145.284.153.244.029.714-.124.95-.062a.455.455 0 0 1 .185.755c-.256.235-.499.458-.549.652.071.05.194.165.194.165s-.111.103-.317.202c-.091.041-.236.112-.397.132-.305.03-.684.07-.907.396-.223.326-.991.145-.991.145l-3.672-.1Z"/></g><mask id="y" width="49" height="49" x="231" y="11" maskUnits="userSpaceOnUse" style="mask-type:luminance"><path fill="#fff" d="M255.499 59.662c13.345 0 24.163-10.818 24.163-24.163s-10.818-24.163-24.163-24.163-24.163 10.818-24.163 24.163 10.818 24.163 24.163 24.163Z"/></mask><g mask="url(#y)"><path fill="#CCA847" d="M265.656 48.33s.644-.858.867-1.283c.223-.438-.706-5.987-.706-5.987l1.865-6.111-.049-1.99s.09-1.836.305-2.632c.256.458 1.052 1.011 1.226 1.304.082-.561.359-1.745.317-3.008.153.235.52 2.6.52 2.6l.367 1.592.479 1.692.532 1.787.318 1.233.182.297.152.52.145.562.416 1.316.244 1.08.194 1.96s.07.244.091.459c.008.214-.029.338-.029.375 0 .042.07.47.041.797-.041.326-.041.581-.297.817-.256.235-.417 1.634-.417 1.634l-.458-.306s.091-.416-.124-.796a.81.81 0 0 0-.866-.396c-.235.05-.706.124-.858.256-.145.132-.5.54-.826.726-.408.243-1.072.264-1.427.346-.359.083-.755.327-1.172.611-.433.28-.871.483-1.032.545Z"/></g><mask id="z" width="49" height="49" x="231" y="11" maskUnits="userSpaceOnUse" style="mask-type:luminance"><path fill="#fff" d="M255.499 59.662c13.345 0 24.163-10.818 24.163-24.163s-10.818-24.163-24.163-24.163-24.163 10.818-24.163 24.163 10.818 24.163 24.163 24.163Z"/></mask><g mask="url(#z)"><path fill="#C39D3C" d="M265.656 57.347s.359.236 1.019.397c.661.16 2.348 1.13 2.348 1.13l1.42.867 1.753.132 1.539-.215s.05-.652-.049-3.082c-.103-2.439-.182-2.785-.182-2.967 0-.181-.062-3.276-.132-3.949-.07-.672-.02-1.357-.041-1.753-.021-.396-.243-2.01-.347-2.426-.111-.417-.326-.624-.359-.624-.028.009-.202.784-.202.978 0 .194-.041.665-.041.784-.029-.008-.041-.082-.041-.111-.042.103-.091.285-.112.305-.02.02.029-.173 0-.214-.029-.042-.082-.02-.07-.124a1.11 1.11 0 0 1 .029-.182s-.124.182-.215.644c-.09.458-.09.47-.123.512-.029.05-.194.214-.202.276-.009.111.152.223.165.285.008.103-.145.582-.194.817-.05.235-.029.693-.083.928-.041.215-.082.339-.223.43.103.02.202.049.202.049s.145.61-.222 1.13c-.132.182-.165.265-.306.43-.276.305-.491.652-.511.879-.021-.083-.029-.203-.029-.203s-.429.5-.611.784c-.235.367-.561.347-.652.438-.091.09-.111.255-.082.388-.083.02-.236.049-.339.367a.77.77 0 0 1-.367.437c-.194.111-.429.145-.549.173.103.03.145.03.194.062-.062.103-.346.264-.664.47a1.386 1.386 0 0 0-.549.665c-.082.173-.202.285-.396.305.083.05.202.165.264.203-.091.02-.243.02-.52.255-.289.24-.388.31-.52.33Z"/></g><mask id="A" width="49" height="49" x="231" y="11" maskUnits="userSpaceOnUse" style="mask-type:luminance"><path fill="#fff" d="M255.499 59.662c13.345 0 24.163-10.818 24.163-24.163s-10.818-24.163-24.163-24.163-24.163 10.818-24.163 24.163 10.818 24.163 24.163 24.163Z"/></mask><g mask="url(#A)"><path fill="#D2BA6B" d="M259.523 59.634s.256-.396.9-.644c.644-.256 1.324-.305 1.593-.388.255-.082.458-.194.775-.256-.028.244-.041.438-.111.603.235.041.825-.417 1.143-.52.318-.103 1.04-.256 1.102-.305.062-.05.194-.347.235-.36.041-.008.153.063.223.063.132 0 1.06-.859 1.795-.846.726.008 1.551.61 1.427 1.15.194-.11.396-.214.561-.172-.02.07-.028.152-.028.152s.396-.09.499.041c.111.133.049.256.318.57.214.264.152.326.111.417a2.89 2.89 0 0 1 1.081.643c.47.438-3.755.165-3.755.165l-7.794-.07-.075-.243Z"/></g><mask id="B" width="49" height="49" x="231" y="11" maskUnits="userSpaceOnUse" style="mask-type:luminance"><path fill="#fff" d="M255.499 59.662c13.345 0 24.163-10.818 24.163-24.163s-10.818-24.163-24.163-24.163-24.163 10.818-24.163 24.163 10.818 24.163 24.163 24.163Z"/></mask><g mask="url(#B)"><path fill="#C0993A" d="M271.775 42.335s-.132.714-.367 1.164c-.235.45-.491 1.072-.491 1.072s0-.222.049-.416c-.297.173-1.019.59-1.225.775-.194.174-.52.48-.603.623.194-.569.396-1.08.429-1.316-.297.215-1.683 1.358-2.405 2.113l-2.249 1.82s-.347.193-.796.375c-.388.165-.846.305-1.185.437.091-.243.236-.458.438-.664.214-.202.858-.9.957-1.225.091-.339.112-.541-.008-.826-.112.03-.367.042-.541.091-.173.05-.359.235-.359.235s.132-.755.417-1.469c-.214.009-.582.07-.582.07s.512-.858 1.387-1.456a4.48 4.48 0 0 0-.784.243c-.512.215-1.073.533-1.49.706.235-.326 1.886-2.682 2.868-4.877.978-2.191 1.345-2.752 1.56-3.928.111-.582.082-1.44.111-2.212.029-.763.124-1.448.062-1.906.256.317 1.213 1.213 1.246 3.214.029 2.001-.916 4.704-1.919 6.16.244.07.879.153 1.531-.977.652-1.131.644-1.449.879-1.92.029.236.021.319.021.319s.949-1.152 1.398-2.6c.091.623.359 1.172-.061 2.315-.376 1.031-.867 1.283-.867 1.283s.244-.041.602-.256c.062.153.05.326.153.388s.244.165.264.264c.112-.165.285-.375.339-.532-.042.326-.071 1.754.082 2.48.318-.03.644-.05.867-.623-.153.56-.153.9-.05 1.378.169-.116.322-.322.322-.322Z"/></g><mask id="C" width="49" height="49" x="231" y="11" maskUnits="userSpaceOnUse" style="mask-type:luminance"><path fill="#fff" d="M255.499 59.662c13.345 0 24.163-10.818 24.163-24.163s-10.818-24.163-24.163-24.163-24.163 10.818-24.163 24.163 10.818 24.163 24.163 24.163Z"/></mask><g mask="url(#C)"><path fill="#A88F33" d="M261.06 19.587s-.318.132-.859.132c-.47 0-.338-.182-1.073-.182-1.13 0-5.079.652-5.772.644-.45-.009 1.518.194 1.518.194l5.03.07 1.011-.083.376-.763-.231-.012Z"/></g><mask id="D" width="49" height="49" x="231" y="11" maskUnits="userSpaceOnUse" style="mask-type:luminance"><path fill="#fff" d="M255.499 59.662c13.345 0 24.163-10.818 24.163-24.163s-10.818-24.163-24.163-24.163-24.163 10.818-24.163 24.163 10.818 24.163 24.163 24.163Z"/></mask><g mask="url(#D)"><path fill="#E3C571" d="M248.017 29.42s-.643.49-.916.866c-.276.375-.417.623-.726.928a.636.636 0 0 0 .215-.028s0 .082-.05.103a.288.288 0 0 1 .235.082c-.091.05-.338.297-.144.59.144.223.45.244.45.244s-.071.202.222.181c.632-.029 1.337-.305 1.663-.235.326.083.512.111.743.512.243.396.458.458.458.458s.144-.367.111-.916c.194-.47.194-.929.194-.929l-.214-1.58-.937-1.184-1.213.672-.091.235Z"/></g><mask id="E" width="49" height="49" x="231" y="11" maskUnits="userSpaceOnUse" style="mask-type:luminance"><path fill="#fff" d="M255.499 59.662c13.345 0 24.163-10.818 24.163-24.163s-10.818-24.163-24.163-24.163-24.163 10.818-24.163 24.163 10.818 24.163 24.163 24.163Z"/></mask><g mask="url(#E)"><path fill="#D8B65B" d="M249.164 29.183s.091.215.47.236c-.041.09-.041.103-.028.173l.02.173s.05-.02.112-.082c.02.09-.021.235 0 .338.02.103.061.181.061.181s.009-.02.021-.04c.008-.021.083.222.285.408 0-.05.02-.083.02-.083s0 .07.05.145c-.021-.009-.041-.03-.041-.03s.02.653.132.991c.029-.041.041-.05.049-.07 0-.02-.008.181-.029.326-.028.144-.008.346-.008.346s.112-.09.244-.144c.123-.05.326-.202.449-.54.124-.339.165-.59.165-.59s.071.131.083.243c.008.103.202.05.202.05l.041-.45.244-1.02.223-.63 1.072-1.672 1.94-1.49 1.692.388 1.427-1.939-2.459-1.477-2.327.243-2.113 2.926-1.692 2.653-.305.437Z"/></g><mask id="F" width="49" height="49" x="231" y="11" maskUnits="userSpaceOnUse" style="mask-type:luminance"><path fill="#fff" d="M255.499 59.662c13.345 0 24.163-10.818 24.163-24.163s-10.818-24.163-24.163-24.163-24.163 10.818-24.163 24.163 10.818 24.163 24.163 24.163Z"/></mask><g mask="url(#F)"><path fill="#D3AE4D" d="M261.354 24.954s-.144.029-.561.243c-.416.215-.705.285-.866.603-.165.317-.173.57-.173.57s.284-.125.449-.166c.174-.041.368-.029.347.041-.021.062-.083.132-.083.132s.326-.008.318.153c-.008.165-.062.338-.124.417-.062.082-.317.202-.346.297-.07.194.029.202-.009.359-.028.152-.165.45-.61.97-.458.52-.652.887-.652.887s-.223-.417-.339-.776c-.082.041-.519.285-.519.285l-1.015-3.537.02-.235s.091-.111.112-.317c-.153-.05-.174-.091-.376-.285-.202-.194-.367-.43-.706-.59-.049-.091-.111-.215-.358-.264-.244-.05-.397-.091-.397-.091s.132-.05.194-.153c-.152.02-.276.07-.61.062-.339-.008-.376-.02-.562.008-.185.03-.408.112-.491-.173-.09-.07-.284-.008-.449.235-.165.244-.223.438-.541.533a1.098 1.098 0 0 1-.144.396c-.091.152-.235.305-.429.532-.306.359-.256.949-.743 1.399-.491.45.082-1.246.082-1.246l.784-1.878 2.233-2.182 3.466-.236.338 1.795 1.692.582 1.068 1.63Z"/></g><mask id="G" width="49" height="49" x="231" y="11" maskUnits="userSpaceOnUse" style="mask-type:luminance"><path fill="#fff" d="M255.499 59.662c13.345 0 24.163-10.818 24.163-24.163s-10.818-24.163-24.163-24.163-24.163 10.818-24.163 24.163 10.818 24.163 24.163 24.163Z"/></mask><g mask="url(#G)"><path fill="#CAA13E" d="m261.898 25.346-1.457-2.1-1.019-.785s-.726-1.336-.776-1.378c-.041-.029-.726-.103-1.163-.132l.082.202s.145.042.244.165c.194.223.318.644-.124 1.094.173.062.244.082.396.062-.152.181-.499.57-.52.907-.02.277.153.36.153.36s-.264.305-.276.817c.061-.07.202-.223.408-.388.305-.244.726-.52 1.011-.694-.008.112.029.215.029.215s.532-.437.978-.243c.202.09.111.375.111.375s.277-.103.471.09c.193.195.47.694.61.888.062.09.223.264.388.532.194.318.409.755.561 1.184.008-.165.041-.396.326-.396l-.433-.775Z"/></g><mask id="H" width="49" height="49" x="231" y="11" maskUnits="userSpaceOnUse" style="mask-type:luminance"><path fill="#fff" d="M255.499 59.662c13.345 0 24.163-10.818 24.163-24.163s-10.818-24.163-24.163-24.163-24.163 10.818-24.163 24.163 10.818 24.163 24.163 24.163Z"/></mask><g mask="url(#H)"><path fill="#F4EFC8" d="M240.069 31.313s-.103-.256 0-.755c.103-.5.264-.735.318-1.47.05-.734.532-1.65.532-1.65l1.325-.602.936.256.277 1.254-1.184.652s-.062.276-.396.5c-.339.222-.797.395-.908.622-.112.236-.145.438-.145.438s-.338-.07-.54.152c-.215.227-.206.43-.215.603Z"/></g><mask id="I" width="49" height="49" x="231" y="11" maskUnits="userSpaceOnUse" style="mask-type:luminance"><path fill="#fff" d="M255.499 59.662c13.345 0 24.163-10.818 24.163-24.163s-10.818-24.163-24.163-24.163-24.163 10.818-24.163 24.163 10.818 24.163 24.163 24.163Z"/></mask><g mask="url(#I)"><path fill="#EBCC73" d="M242.745 30.98s-.111.07-.194.244c-.082-.133-.276-.916-.284-1.622-.009-.706-.05-.879.111-1.122.165-.244.805-.5.714-.937-.091-.417-.471-.59-.937-.47-.326.082-.569.775-.908 1.122-.255.264-.561.223-.643.367-.112.194-.009.388-.042.512-.008.041-.111.264-.297.532-.375.54-1.011 1.304-1.093 1.989.029-.388.008-.396.111-.825l-.062-.104.409-1.336.264-1.102.59-1.845 1.04-1.885 1.011-1.13 1.052.07.124 1.58.602 2.966 1.267 1.56-2.03 1.366-.805.07Z"/></g><mask id="J" width="49" height="49" x="231" y="11" maskUnits="userSpaceOnUse" style="mask-type:luminance"><path fill="#fff" d="M255.499 59.662c13.345 0 24.163-10.818 24.163-24.163s-10.818-24.163-24.163-24.163-24.163 10.818-24.163 24.163 10.818 24.163 24.163 24.163Z"/></mask><g mask="url(#J)"><path fill="#E5C66B" d="M243.38 31.544s-.173.04-.235.008c-.062-.03-.124-.07-.103-.112.02-.04.132-.111.132-.144 0-.029-.009-.111-.104-.124-.094-.012-.123.05-.123.05s-.091-.07-.165-.083c.062-.008.132-.008.132-.008s-.174-.083-.359-.103c.103-.062.305-.244.437-.244s.215-.02.194-.09c-.021-.07-.124-.174-.235-.215.041-.05.07-.124-.029-.326-.103-.202-.062-.338-.029-.388.029-.062.132-.173.182-.243.049-.07.09-.165.173-.215.041-.029.173-.082.305-.132.145-.05.264-.111.347-.05.091.063.049.145.049.145s.285-.103.541.029c.256.124.879.202.879.202l.223.45-1.478 1.267-.61.305-.124.02Z"/></g><mask id="K" width="49" height="49" x="231" y="11" maskUnits="userSpaceOnUse" style="mask-type:luminance"><path fill="#fff" d="M255.499 59.662c13.345 0 24.163-10.818 24.163-24.163s-10.818-24.163-24.163-24.163-24.163 10.818-24.163 24.163 10.818 24.163 24.163 24.163Z"/></mask><g mask="url(#K)"><path fill="#E6BD62" d="M245.429 29.469s-.458.305-.561.417c.062.008.165.05.124.111-.05.062-.347.277-.512.479a3.192 3.192 0 0 0-.396.582c-.062.11-.532.437-.693.478.338 0 1.019-.417 1.275-.417-.009.124.07.265.214.277.145.008.561.09 1.123-.256.561-.338.375-.59.61-.755.45-.297.632-.561.879-.726.244-.165.376-.202.376-.202s.008-.124.082-.112c.07.008.091.07.091.07s.429-.305.978-.388c-.021-.008-.029-.028-.029-.028s.041-.021.049-.042c0 0 .029-.041.05-.02.021.02.049.173.091.235.09-.041.264-.43.264-.43l.417-1.192v-1.09l-.326.063-2.447 1.04-1.486 1.539-.173.367Z"/></g><mask id="L" width="49" height="49" x="231" y="11" maskUnits="userSpaceOnUse" style="mask-type:luminance"><path fill="#fff" d="M255.499 59.662c13.345 0 24.163-10.818 24.163-24.163s-10.818-24.163-24.163-24.163-24.163 10.818-24.163 24.163 10.818 24.163 24.163 24.163Z"/></mask><g mask="url(#L)"><path fill="#B6933F" d="M252.477 24.126s.215-.05.376-.153c-.05.132-.05.276-.264.59-.215.318-.223.359-.396.685-.174.338-.194.825-.359 1.04.132-.062.235-.07.235-.07s-.165.144-.235.297c-.07.152-.194.47-.5.664-.305.194-.693.318-1.11.776-.416.45-.845 1.019-1.06 1.225.111-.194.264-.581.305-.837.042-.256-.008-.561.062-.9.07-.338.07-.582.409-1.172.338-.59.916-2.64.916-2.64l1.246-.397.375.892Z"/></g><mask id="M" width="49" height="49" x="231" y="11" maskUnits="userSpaceOnUse" style="mask-type:luminance"><path fill="#fff" d="M255.499 59.662c13.345 0 24.163-10.818 24.163-24.163s-10.818-24.163-24.163-24.163-24.163 10.818-24.163 24.163 10.818 24.163 24.163 24.163Z"/></mask><g mask="url(#M)"><path fill="#C49937" d="M251.576 23.37s-.375.541-.478 1.02c-.104.478-.009.437-.07.672a.877.877 0 0 0 0 .438s.165-.297.519-.512c.355-.215.644-.367.817-.549.174-.194.318-.511.694-.755-.153-.02-.368-.09-.409-.082.153-.174.611-.438 1.073-.756.458-.326.429-.457 1.172-.784-.244.042-.359-.02-.561 0 .082-.173.367-.255.652-.54.284-.285-.182-.706-.182-.706l-2.175 1.317-1.052 1.238Z"/></g><mask id="N" width="49" height="49" x="231" y="11" maskUnits="userSpaceOnUse" style="mask-type:luminance"><path fill="#fff" d="M255.499 59.662c13.345 0 24.163-10.818 24.163-24.163s-10.818-24.163-24.163-24.163-24.163 10.818-24.163 24.163 10.818 24.163 24.163 24.163Z"/></mask><g mask="url(#N)"><path fill="#DFC068" d="m245.664 22.389.05-.397.623-.998.652-1.754v-2.397l-.05-1.387.103-.907.079-.29.082-.11.532.276.735.998.07 1.927-.714 3.041-2.038 2.224-.124-.226Z"/></g><mask id="O" width="49" height="49" x="231" y="11" maskUnits="userSpaceOnUse" style="mask-type:luminance"><path fill="#fff" d="M255.499 59.662c13.345 0 24.163-10.818 24.163-24.163s-10.818-24.163-24.163-24.163-24.163 10.818-24.163 24.163 10.818 24.163 24.163 24.163Z"/></mask><g mask="url(#O)"><path fill="#A88F33" d="M247.29 14.038s-.326.008-.396 1.366c-.07 1.357-.103 2.071-.152 2.744-.05.672-.165 1.08-.223 1.477-.062.396-.091.937-.277 1.267-.082.152-.256.631-.664.99-.458.396-1.143.673-1.246.693-.182.041-1.102.132-1.477.338-.132.07-.359.153-.611.388-.499.45-1.164 1.255-1.642 2.224-.735 1.449-1.469 5.538-1.469 5.538l.165-.277s.02-.367.388-1.01c.359-.644.256-1.366.755-2.6.194-.47.437-1.081.734-1.601.471-.846 1.04-1.572 1.614-1.968.936-.644 1.968-.784 1.968-.784l1.11-.735s.194-.375.45-.804c.359-.603.817-1.275.916-2.253.152-1.448-.215-2.397-.194-3.256.02-.858.029-1.49.202-1.642.173-.153.049-.095.049-.095Z"/></g><mask id="P" width="49" height="49" x="231" y="11" maskUnits="userSpaceOnUse" style="mask-type:luminance"><path fill="#fff" d="M255.499 59.662c13.345 0 24.163-10.818 24.163-24.163s-10.818-24.163-24.163-24.163-24.163 10.818-24.163 24.163 10.818 24.163 24.163 24.163Z"/></mask><g mask="url(#P)"><path fill="#C99E3D" d="M247.292 20.516s.491-1.205.714-2.274c.041-.214.124-.429.145-.602.103-1.011.132-1.428 0-1.98-.104-.41-.5-.777-.706-1.061-.202-.297-.297-.409-.256-.47a.459.459 0 0 1 .359-.153c.153.008.549.04.879.408.318.367.569 1.614.569 1.614l.265 1.642.672 2.071-2.641.805Z"/></g><mask id="Q" width="49" height="49" x="231" y="11" maskUnits="userSpaceOnUse" style="mask-type:luminance"><path fill="#fff" d="M255.499 59.662c13.345 0 24.163-10.818 24.163-24.163s-10.818-24.163-24.163-24.163-24.163 10.818-24.163 24.163 10.818 24.163 24.163 24.163Z"/></mask><g mask="url(#Q)"><path fill="#B58634" d="M251.883 19.264s-.091.041-.256 0a.366.366 0 0 1-.165.347c-.173-.07-1.795.07-1.795.07s-.755-.132-.99-1.13c-.165-.665.124-1.581.029-2.183-.144-.888-.347-1.061-.367-1.337-.021-.277-.041-.347-.041-.52-.091-.021-.145-.05-.236-.05-.02-.082.021-.152-.07-.297.05.02.388.062.784.437.326.306.326.417.376.48.062.061.561.49.775.915.215.425.632 1.787.727 2.01.028.09.09.181.243.387.239.297.59.788.986.871Z"/></g><mask id="R" width="49" height="49" x="231" y="11" maskUnits="userSpaceOnUse" style="mask-type:luminance"><path fill="#fff" d="M255.499 59.662c13.345 0 24.163-10.818 24.163-24.163s-10.818-24.163-24.163-24.163-24.163 10.818-24.163 24.163 10.818 24.163 24.163 24.163Z"/></mask><g mask="url(#R)"><path fill="#A88F33" d="M249.219 15.096c.152.243.437.734.672 1.254.244.549.388.999.694 1.366-.166-.479-.458-1.42-.632-1.754-.194-.355-.59-.734-.734-.866Z"/></g><mask id="S" width="49" height="49" x="231" y="11" maskUnits="userSpaceOnUse" style="mask-type:luminance"><path fill="#fff" d="M255.499 59.662c13.345 0 24.163-10.818 24.163-24.163s-10.818-24.163-24.163-24.163-24.163 10.818-24.163 24.163 10.818 24.163 24.163 24.163Z"/></mask><g mask="url(#S)"><path fill="#E6C367" d="M246.416 21.885s-.416.103-1.192.511a12.43 12.43 0 0 1-.735.347c-.61.277-1.266.532-1.786.673.041.05.062.07.062.07s0 .202.111.317c-.062.062-.887.623-.644 2.5.165-.061.359-.143.388-.143.05.008.062.144.124.144s.264-.083.479-.359c-.009.111-.132 1.234.532 1.989.124-.145.437-.623.437-.623l.009-.153s.028-.532.202-1.02c.173-.49.511-.845.511-.845l1.766-2.521-.264-.887Z"/></g><mask id="T" width="49" height="49" x="231" y="11" maskUnits="userSpaceOnUse" style="mask-type:luminance"><path fill="#fff" d="M255.499 59.662c13.345 0 24.163-10.818 24.163-24.163s-10.818-24.163-24.163-24.163-24.163 10.818-24.163 24.163 10.818 24.163 24.163 24.163Z"/></mask><g mask="url(#T)"><path fill="#DCBA5A" d="M244.763 25.58s-.124.092-.264.133a1.022 1.022 0 0 1 .173-.805c.285-.417.908-.957 1.081-1.386.111-.277.062-.97 1.052-1.857.991-.887 1.378-1.192 1.378-1.192l1.601-.805 1.969.776-.978 3.833-.76 1.795-3.02-.57-2.232.079Z"/></g><mask id="U" width="49" height="49" x="231" y="11" maskUnits="userSpaceOnUse" style="mask-type:luminance"><path fill="#fff" d="M255.499 59.662c13.345 0 24.163-10.818 24.163-24.163s-10.818-24.163-24.163-24.163-24.163 10.818-24.163 24.163 10.818 24.163 24.163 24.163Z"/></mask><g mask="url(#U)"><path fill="#E9CE77" d="m245.914 24.544.376-.47v-.334s.416-.112.866-.57c.45-.458 1.073-1.337 1.622-1.283.548.062.602 1.193.623 1.51.02.318.09 1.04.202 1.428.124.388-1.337 1.857-1.337 1.857l-.99.755-1.362-2.893Z"/></g><mask id="V" width="49" height="49" x="231" y="11" maskUnits="userSpaceOnUse" style="mask-type:luminance"><path fill="#fff" d="M255.499 59.662c13.345 0 24.163-10.818 24.163-24.163s-10.818-24.163-24.163-24.163-24.163 10.818-24.163 24.163 10.818 24.163 24.163 24.163Z"/></mask><g mask="url(#V)"><path fill="#CDAE50" d="M247.07 28.462s.306-.479.083-.582c.132-.297.375-.61.375-.61s.174-.43.735-.958c.561-.532.908-.879.998-1.233.091-.36.091-.706.091-.706s.112.09.194.132c.091.041.52.396.458 1.11-.062.714-.326 1.011-.326 1.011s-.256.256-.437.388c-.194.132-.264.285-.59.297.049-.041.111-.062.111-.062s-.338-.041-.52.124c-.181.165-.569.672-.763.825-.194.124-.409.264-.409.264Z"/></g><mask id="W" width="49" height="49" x="231" y="11" maskUnits="userSpaceOnUse" style="mask-type:luminance"><path fill="#fff" d="M255.499 59.662c13.345 0 24.163-10.818 24.163-24.163s-10.818-24.163-24.163-24.163-24.163 10.818-24.163 24.163 10.818 24.163 24.163 24.163Z"/></mask><g mask="url(#W)"><path fill="#D2A83E" d="M260.792 20.432s-.652-.264-1.518-.297c-.867-.03-2.133.02-3.375.029-1.337.008-2.55-.458-4.234-.541-.276-.165-.978-.887-3.173.644.132-.008 1.593-.339 2.1.297.512.631.368 1.704.298 1.96-.133.57-.562 1.399-.735 1.98-.173.582-.132.887-.256 1.296-.124.409-.396.61-.235 1.081.215-.132.326-.132.685-.937.359-.804.285-1.378.879-2.059.582-.684 1.551-1.621 1.919-1.856.367-.236 3.292-1.754 6.354-.306.739-.078 1.291-1.291 1.291-1.291Z"/></g><mask id="X" width="49" height="49" x="231" y="11" maskUnits="userSpaceOnUse" style="mask-type:luminance"><path fill="#fff" d="M255.499 59.662c13.345 0 24.163-10.818 24.163-24.163s-10.818-24.163-24.163-24.163-24.163 10.818-24.163 24.163 10.818 24.163 24.163 24.163Z"/></mask><g mask="url(#X)"><path fill="#C29637" d="M249.73 19.872s-.008-.07-.021-.09c-.049-.104-.111-.166-.111-.166s-.726-.132-1.094-.09c-.643.07-1.225.866-1.498 1.275-.276.408-.61 1.04-.977 1.365.008-.05-.021-.09-.021-.09s.021.028-.021.07c-.041.041-.041.062-.02.082l.062.062c.02 0 .59-.256 1.365-.978.826-.755 1.457-1.143 1.787-1.275.252-.115.549-.165.549-.165Z"/></g><mask id="Y" width="49" height="49" x="231" y="11" maskUnits="userSpaceOnUse" style="mask-type:luminance"><path fill="#fff" d="M255.499 59.662c13.345 0 24.163-10.818 24.163-24.163s-10.818-24.163-24.163-24.163-24.163 10.818-24.163 24.163 10.818 24.163 24.163 24.163Z"/></mask><g mask="url(#Y)"><path fill="#AC8132" d="M263.82 16.768s-.132.165-.297.346c-.368.388-.846.825-1.255 1.275-.388.43-.825.764-1.316 1.325-.491.56-1.06 1.184-1.205 1.366-.132.181-.235.478-.235.63-.07-.049-.153-.102-.153-.102s.042.082.124.181c.103.145.264.326.347.438.132.181.202.396.214.47.05.008.368.07.764-.582.396-.652.916-1.366.916-1.366l.825-1.225.52-1.04.652-1.164.099-.552Z"/></g><mask id="Z" width="49" height="49" x="231" y="11" maskUnits="userSpaceOnUse" style="mask-type:luminance"><path fill="#fff" d="M255.499 59.662c13.345 0 24.163-10.818 24.163-24.163s-10.818-24.163-24.163-24.163-24.163 10.818-24.163 24.163 10.818 24.163 24.163 24.163Z"/></mask><g mask="url(#Z)"><path fill="#A88F33" d="M264.658 15.938s-.5.408-.694.651c-.193.244-.652.888-.652.888l.166-.021.837-.743.326-.582.017-.194Z"/></g><mask id="aa" width="49" height="49" x="231" y="11" maskUnits="userSpaceOnUse" style="mask-type:luminance"><path fill="#fff" d="M255.499 59.662c13.345 0 24.163-10.818 24.163-24.163s-10.818-24.163-24.163-24.163-24.163 10.818-24.163 24.163 10.818 24.163 24.163 24.163Z"/></mask><g mask="url(#aa)"><path fill="#A67A2E" d="M264.508 48.728s-.008-.339.181-.54c.194-.203.685-.5 1.164-1.614.479-1.11.532-1.366.532-1.366s-.858.735-1.386.908c.124-.256.194-.437.256-.57-.07-.061-.368-.132-.396-.164.165-.166.255-.57.59-.838.429-.326 1.213-.887 1.823-1.386.611-.5 1.808-1.663 1.96-2.002.091.132.112.215.112.215s-.603.784-.916 1.283c-.277.43-.256.673-.256.673l.569-.244s.165.61-.581 1.54c.326-.124.458-.05.643-.153-.305.194-.726.458-1.122 1.184-.388.726-.916 1.572-1.807 2.1-.867.557-1.366.974-1.366.974Z"/></g><mask id="ab" width="49" height="49" x="231" y="11" maskUnits="userSpaceOnUse" style="mask-type:luminance"><path fill="#fff" d="M255.499 59.662c13.345 0 24.163-10.818 24.163-24.163s-10.818-24.163-24.163-24.163-24.163 10.818-24.163 24.163 10.818 24.163 24.163 24.163Z"/></mask><g mask="url(#ab)"><path fill="#8C6228" d="M262.269 20.863s-.338.706-.387 1.255c-.009.132-.042.235-.042.387-.008.491.029 1.04-.082 1.296-.042-.103-.062-.173-.103-.214-.062.173-.174.713-.264.916-.042-.133-.133-.59-.124-1.131.008-.54.02-.644.02-.755-.02.165-.132.388-.173.52-.062-.112-.132-.256-.215-.376-.049.083-.111.202-.165.264a4.152 4.152 0 0 1-.041-.367c-.008-.215-.02-.491-.008-.549.021-.111.194-.549.561-.949.437-.478.887-1.398 1.019-1.683.132-.285.693-1.47.693-1.47h.43l-.623 1.42s-.376.776-.57 1.06c-.194.285-.602 1.102-.784 1.42.132-.173.244-.264.376-.429.128-.116.482-.615.482-.615Z"/></g><mask id="ac" width="49" height="49" x="231" y="11" maskUnits="userSpaceOnUse" style="mask-type:luminance"><path fill="#fff" d="M255.499 59.662c13.345 0 24.163-10.818 24.163-24.163s-10.818-24.163-24.163-24.163-24.163 10.818-24.163 24.163 10.818 24.163 24.163 24.163Z"/></mask><g mask="url(#ac)"><path fill="#CBA94C" d="M264.662 15.883s-.082.297-.326.59c-.255.305-.804.714-1.072 1.04-.244.317-.735 1.184-.512 2.211.082-.223.235-.664.644-1.163.408-.5.845-1.073 1.06-1.519.215-.45.243-.804.243-.804l.083-.104-.05-.235-.07-.016Z"/></g><mask id="ad" width="49" height="49" x="231" y="11" maskUnits="userSpaceOnUse" style="mask-type:luminance"><path fill="#fff" d="M255.499 59.662c13.345 0 24.163-10.818 24.163-24.163s-10.818-24.163-24.163-24.163-24.163 10.818-24.163 24.163 10.818 24.163 24.163 24.163Z"/></mask><g mask="url(#ad)"><path fill="#A88F33" d="M273.016 43.25s-.165-.45-.214-.86c-.05-.407.082-.49-.07-.956-.091-.285-.256-.244-.298-.285-.041-.041-.07-.47-.061-.706.008-.235-.009-.54-.05-.672-.062-.05-.103-.091-.194-.396-.103-.306-.153-.458-.202-.55-.05-.09-.194-.172-.194-.263 0-.182.165-.277.165-.326-.008-.103-.132-.02-.165-.05-.041-.05.103-.346.05-.388-.021-.02-.166.153-.203.104-.041-.05-.09-.54-.165-.867-.07-.318-.144-.549-.152-.644-.009-.09-.57-1.691-.706-2.08a9.698 9.698 0 0 1-.276-.998c-.042-.194-.071-.59-.091-.549-.021.042-.008.244-.041.236-.029-.009-.132-.714-.166-.826-.028-.111-.202-.49-.243-.763-.041-.276-.132-.998-.194-1.49-.062-.49-.091-.693-.091-.816 0-.062.021-.417-.049-.9-.083-.52-.244-1.151-.388-1.518-.276-.694-1.011-2.468-1.143-2.91 0-.11.144-.049.144-.049s.359.9.623 1.593c.256.693.5 1.304.562 1.366.049.061.437.742.61 1.856.174 1.114.236 2.142.339 2.827.049.326.09.672.194 1.019.111.375.284.763.511 1.357.194.5.339.916.417 1.276.091.458.091.804.144 1.031.05.194.124.582.298 1.143.173.561.429 1.283.602 1.733.338.9.491 1.65.54 2.05.046.413.199 1.841.157 2.27Z"/></g><mask id="ae" width="49" height="49" x="231" y="11" maskUnits="userSpaceOnUse" style="mask-type:luminance"><path fill="#fff" d="M255.499 59.662c13.345 0 24.163-10.818 24.163-24.163s-10.818-24.163-24.163-24.163-24.163 10.818-24.163 24.163 10.818 24.163 24.163 24.163Z"/></mask><g mask="url(#ae)"><path fill="#BE9C44" d="m264.685 15.832-.02.05s.062.02.049.103c0 .041 0 .202-.02.338-.021.145-.062.256-.071.347 0 .194.029.417-.243.97-.082.152-.132.284-.173.375-.103.223-.124.256-.215.359.145-.082.665-.409.929-.359a1.94 1.94 0 0 0-.632.57c.042.008.215.04.491 0 .458-.07.97-.236 1.42-.203.491.03.297-.59.297-.59l-.57-1.246-1.072-.755-.17.041Z"/></g><mask id="af" width="49" height="49" x="231" y="11" maskUnits="userSpaceOnUse" style="mask-type:luminance"><path fill="#fff" d="M255.499 59.662c13.345 0 24.163-10.818 24.163-24.163s-10.818-24.163-24.163-24.163-24.163 10.818-24.163 24.163 10.818 24.163 24.163 24.163Z"/></mask><g mask="url(#af)"><path fill="#A17C34" d="M267.481 25.166s-.479-.479-.673-2.121c-.194-1.65-.152-4.08-.152-4.08l-.388-.95s-.083-.631-.285-.866c-.202-.236-.602-.632-.784-.826-.181-.194-.388-.458-.511-.499.061-.103.338-.685 1.398-.693 1.061-.008 1.387.582 1.498.796.112.215.611 1.143.796 2.91.174 1.765.182 1.897.153 2.508-.02.338-.132 1.122-.326 1.96-.177.71-.371 1.502-.726 1.86Z"/></g><mask id="ag" width="49" height="49" x="231" y="11" maskUnits="userSpaceOnUse" style="mask-type:luminance"><path fill="#fff" d="M255.499 59.662c13.345 0 24.163-10.818 24.163-24.163s-10.818-24.163-24.163-24.163-24.163 10.818-24.163 24.163 10.818 24.163 24.163 24.163Z"/></mask><g mask="url(#ag)"><path fill="#8C6228" d="M265.981 26.572s.223.029.458-.103c.152-.008.705.062 1.13-.479.029.124.104.458-.09.755.103-.103.255-.144.276-.173.008.153.153.623-.458 1.766.165-.181.359-.173.532-.194.009.215.124.937-.181 1.325-.202.264-.533.181-.533.181s.009-.09 0-.173c-.008-.111-.049-.223-.02-.297-.041-.02-.215-.091-.429-.297-.359-.339-.826-.916-.859-1.345-.041-.48.388-.582.388-.582s-.049-.041-.09-.112c-.021-.07-.042-.181-.124-.272Z"/></g><mask id="ah" width="49" height="49" x="231" y="11" maskUnits="userSpaceOnUse" style="mask-type:luminance"><path fill="#fff" d="M255.499 59.662c13.345 0 24.163-10.818 24.163-24.163s-10.818-24.163-24.163-24.163-24.163 10.818-24.163 24.163 10.818 24.163 24.163 24.163Z"/></mask><g mask="url(#ah)"><path fill="#92723A" d="M262.804 21.383s-.021-.029-.132.103c.021-.132.041-.256.049-.376.042-.09.112-.202.203-.305-.062.124-.104.235-.104.235s.153-.284.376-.458c.153-.123.347-.181.429-.297.091-.123.07-.144.091-.165 0 0 .202-.132.511-.52.042-.05.104-.103.145-.152.07-.03.235-.104.429-.203.202-.111.429-.264.569-.326.277-.123.57-.11.706-.305.103-.029.215-.338.194-.602.153.062.937.549 1.205 1.613.194.755-.153 1.919-.297 2.48-.145.561-.165.978-.368 1.234-.255.338-1.081.817-1.283 1.052-.173.194-.693.685-.672 1.04.02.264.346.408.416.458.071.05.071.111.203.082.132-.029.181-.09.235-.09.062.008.062.02.091.02.028 0 .061-.008.061-.008s-.02.375-.899.49c-.062.01-.124.03-.202.042.103-.05.165-.05.276-.202-.124-.02-.478-.041-.569-.07.029-.05.124-.182.202-.244.07-.062-.008-.082-.07-.05-.029.021-.165.112-.306.236-.103.09-.193.215-.359.326a.807.807 0 0 1 .153-.706c-.049.009-.144.153-.235.124a1.306 1.306 0 0 1 .029-.45c.049-.185.318-.511.318-.511l1.295-2.315.277-1.754-2.967.574Z"/></g><mask id="ai" width="49" height="49" x="231" y="11" maskUnits="userSpaceOnUse" style="mask-type:luminance"><path fill="#fff" d="M255.499 59.662c13.345 0 24.163-10.818 24.163-24.163s-10.818-24.163-24.163-24.163-24.163 10.818-24.163 24.163 10.818 24.163 24.163 24.163Z"/></mask><g mask="url(#ai)"><path fill="#B18E3E" d="M262.736 21.483s-.07.05.071.145c-.021.028-.071.132-.132.202-.071.082-.145.132-.174.202-.062.144-.111.243-.111.305s-.021.458-.194.714c-.062.09-.132.244-.182.347-.103.181-.194.326-.214.408-.041.145-.07.54-.07.54l.123-.152a1.142 1.142 0 0 1-.181.297c.049-.041.194-.144.437-.359.339-.285.867-.763 1.51-1.143-.193.07-.359.07-.491.09.104-.102 1.032-1.192 1.519-1.295.049-.062.041-.132.041-.132l-.417-.041-.845.182-.124-.652-.566.342Z"/></g><mask id="aj" width="49" height="49" x="231" y="11" maskUnits="userSpaceOnUse" style="mask-type:luminance"><path fill="#fff" d="M255.499 59.662c13.345 0 24.163-10.818 24.163-24.163s-10.818-24.163-24.163-24.163-24.163 10.818-24.163 24.163 10.818 24.163 24.163 24.163Z"/></mask><g mask="url(#aj)"><path fill="#543E26" d="M264.076 25.196s-.111.112-.215.388a1.312 1.312 0 0 1-.202-.276c-.152-.256-.388-.582-.936-.396-.009-.174-.021-.264 0-.388.09-.02.367-.244.643-.57.194-.223.376-.478.5-.804.082-.062.222-.165.408-.285.264-.181.582-.43.631-.706-.123.05-.388.174-.784.153.153-.07.388-.144.359-.45.062-.04.112-.07.112-.07s-.05-.02-.145-.02c-.008-.03-.02-.07-.09-.05-.071.02-.083.02-.091.05-.029.008-.124 0-.194.05-.07.049-.264.214-.339.242l.071-.123s-.203.02-.347.082c-.264.091-.569.256-.879.417.029-.05.041-.082.062-.09.021-.009.07-.021.07-.03 0-.008-.02-.082-.008-.111.008-.029.181-.367.326-.561.144-.194.173-.47.173-.47l.631-.318 1.775-.409 1.151.07-.144.797-.681 1.39-.582 1.267-.664.776-.611.445Z"/></g><mask id="ak" width="49" height="49" x="231" y="11" maskUnits="userSpaceOnUse" style="mask-type:luminance"><path fill="#fff" d="M255.499 59.662c13.345 0 24.163-10.818 24.163-24.163s-10.818-24.163-24.163-24.163-24.163 10.818-24.163 24.163 10.818 24.163 24.163 24.163Z"/></mask><g mask="url(#ak)"><path fill="#806031" d="M266.96 21.749s-.693.858-.887.99c.124-.264.887-1.836 1.164-2.274-.062-.05-.145-.05.049-.817-.165.388-.223.59-.359.694-.132.103-.153.07-.243.07.029-.05.02-.103.02-.103s-.582-.07-.978-.07-1.184.214-1.621.387c-.347.145-.541.145-.665.235-.123.104-.193.215-.255.244-.05.029-.285.103-.339.181-.049.083-.132.174-.132.194 0 .021-.02.05.042.03.02-.009.173-.091.346-.195.235-.132.52-.284.726-.375.59-.235.776-.194 1.04-.244.277-.049.673-.165.937-.165.264-.008.763 0 .879.021-.05.041-.091.09-.07.264 0 .05-.042.103-.083.223-.124.338-.359.9-.491 1.184-.182.388-.388.714-.491.916-.103.202-.326.735-.549 1.02-.223.284-.338.457-.408.52-.07.061-.57.428-.533.56a2.735 2.735 0 0 0 1.081-.713c.417-.47.5-.756.826-1.011.326-.256.581-.685.734-1.04.128-.33.099-.433.26-.726Z"/></g><mask id="al" width="49" height="49" x="231" y="11" maskUnits="userSpaceOnUse" style="mask-type:luminance"><path fill="#fff" d="M255.499 59.662c13.345 0 24.163-10.818 24.163-24.163s-10.818-24.163-24.163-24.163-24.163 10.818-24.163 24.163 10.818 24.163 24.163 24.163Z"/></mask><g mask="url(#al)"><path fill="#B6903C" d="M252.005 28.154s-.091.376-.297.561c-.202.182-.561.339-.602.644-.05.305.359.458.359.458s-.223.367-.223.644c0 .285-.008.338.021.61-.05.03-.083.083-.083.083s.021.264.223.43c.202.164.375.263.478.222a.964.964 0 0 1 .042.103s.152-.388.256-.726c.103-.347.193-.297.235-.763.041-.47.491-1.267.491-1.267l.305-.685-.499-.388-.706.074Z"/></g><mask id="am" width="49" height="49" x="231" y="11" maskUnits="userSpaceOnUse" style="mask-type:luminance"><path fill="#fff" d="M255.499 59.662c13.345 0 24.163-10.818 24.163-24.163s-10.818-24.163-24.163-24.163-24.163 10.818-24.163 24.163 10.818 24.163 24.163 24.163Z"/></mask><g mask="url(#am)"><path fill="#685026" d="M252.942 28.828s-.153.153-.285.338c-.132.182-.235.347-.429.417s-.318.07-.305.264c.012.194.194.277.297.376a.482.482 0 0 1 .152.47c.062-.029.174-.062.277-.285.103-.222.825-1.58.825-1.58h-.532Z"/></g><mask id="an" width="49" height="49" x="231" y="11" maskUnits="userSpaceOnUse" style="mask-type:luminance"><path fill="#fff" d="M255.499 59.662c13.345 0 24.163-10.818 24.163-24.163s-10.818-24.163-24.163-24.163-24.163 10.818-24.163 24.163 10.818 24.163 24.163 24.163Z"/></mask><g mask="url(#an)"><path fill="#D4B968" d="M255.785 25.695s.062-.165 0-.285c-.062-.123-.437-.165-.623-.305-.194-.144-.429-.243-.623-.181.029-.07.145-.223.05-.256-.091-.03-.429.123-.52.194-.091.07-.297.152-.338.202-.042.05-.112.144-.153.103-.041-.029-.062-.103-.132-.062-.07.041-.409.318-.471.479-.061.16-.202.52-.623.928-.416.409-.602.673-.478.825.124.153.181.042.202.174.008.062.021.222-.021.387-.049.215-.132.417-.02.459.284.09.561-.083.623-.03.123.112-.07.512.223.59.297.083.59-.07.59-.07l1.081-.581 1.039-.55.533-1.051-.285-.88-.054-.09Z"/></g><mask id="ao" width="49" height="49" x="231" y="11" maskUnits="userSpaceOnUse" style="mask-type:luminance"><path fill="#fff" d="M255.499 59.662c13.345 0 24.163-10.818 24.163-24.163s-10.818-24.163-24.163-24.163-24.163 10.818-24.163 24.163 10.818 24.163 24.163 24.163Z"/></mask><g mask="url(#ao)"><path fill="#CCA849" d="M254.757 28.21s-.181-.276.041-.52c.223-.243.541-.346.665-.499-.041-.05-.091-.062-.091-.062s.111-.223.359-.338a.343.343 0 0 0-.235-.112c-.202 0-.326.124-.512.124-.181 0-.202-.09-.202-.09s.305-.03.276-.166c-.028-.144-.082-.144-.082-.144s.59-.243.693-.376c.103-.132.091-.284.112-.346.07 0 .478-.215.643-.124.165.09.05.338.05.338s.499-.375.755-.742c.223.02.326-.153.491-.153.202 0 .52.276.582.866.041.339.103.533.041 1.131-.029.338-.021 1.06.082 1.42.071.284.236.255.236.255s-.029.124-.145.223c-.111.103-.124.376-.111.479.02.103.062.223.062.223s-.132.152-.165.255c-.029.104-.165.174-.264.174-.104 0-.05-.009-.182 0-.132.008-.173.029-.256 0-.082-.03-.144-.062-.111-.326.029-.264-1.019-.88-1.019-.88l-1.713-.61Z"/></g><mask id="ap" width="49" height="49" x="231" y="11" maskUnits="userSpaceOnUse" style="mask-type:luminance"><path fill="#fff" d="M255.499 59.662c13.345 0 24.163-10.818 24.163-24.163s-10.818-24.163-24.163-24.163-24.163 10.818-24.163 24.163 10.818 24.163 24.163 24.163Z"/></mask><g mask="url(#ap)"><path fill="#585136" d="M252.797 30.815s.375.499 1.919.499c.734 0 .99-.07 1.143-.111.165-.042.784-.285 1.407-1.02.561-.664.437-.936.437-.936l-.326-.05-1.06.145-3.141 1.337-.379.136Z"/></g><mask id="aq" width="49" height="49" x="231" y="11" maskUnits="userSpaceOnUse" style="mask-type:luminance"><path fill="#fff" d="M255.499 59.662c13.345 0 24.163-10.818 24.163-24.163s-10.818-24.163-24.163-24.163-24.163 10.818-24.163 24.163 10.818 24.163 24.163 24.163Z"/></mask><g mask="url(#aq)"><path fill="#252211" d="M253.946 30.94s-1.337.297-1.337-.549c0-.825.826-1.692 1.032-1.844.214-.153.726-.326.726-.326h1.234l.235.623-.103 1.345-1.787.75Z"/></g><mask id="ar" width="49" height="49" x="231" y="11" maskUnits="userSpaceOnUse" style="mask-type:luminance"><path fill="#fff" d="M255.499 59.662c13.345 0 24.163-10.818 24.163-24.163s-10.818-24.163-24.163-24.163-24.163 10.818-24.163 24.163 10.818 24.163 24.163 24.163Z"/></mask><g mask="url(#ar)"><path fill="#C3B378" d="M255.186 28.47s-.256-.235-.838.083-1.052.978-1.081 1.58c-.029.533.437.929 1.163.95.541.02.867-.042 1.032-.083l-.256-.318-.02-2.211Z"/></g><mask id="as" width="49" height="49" x="231" y="11" maskUnits="userSpaceOnUse" style="mask-type:luminance"><path fill="#fff" d="M255.499 59.662c13.345 0 24.163-10.818 24.163-24.163s-10.818-24.163-24.163-24.163-24.163 10.818-24.163 24.163 10.818 24.163 24.163 24.163Z"/></mask><g mask="url(#as)"><path fill="#E6D89C" d="M254.934 28.602s-.062-.05-.243.05c-.153.082-.376.297-.549.45-.112.09-.182.131-.244.202-.256.305-.47.804-.346 1.052.123.243.532.532 1.572.338l-.19-2.092Z"/></g><mask id="at" width="49" height="49" x="231" y="11" maskUnits="userSpaceOnUse" style="mask-type:luminance"><path fill="#fff" d="M255.499 59.662c13.345 0 24.163-10.818 24.163-24.163s-10.818-24.163-24.163-24.163-24.163 10.818-24.163 24.163 10.818 24.163 24.163 24.163Z"/></mask><g mask="url(#at)"><path fill="#252211" d="M254.594 29.116s-.165.256-.165.665c0 .416.235 1.08 1.102 1.13.664.041 1.11-.957 1.593-1.345.367-.297.59-.305.59-.305s-.376-.409-1.379-.937c-.99-.532-2.1-.602-2.702.214.285-.02 1.205-.255 1.205-.255l.449.144-.693.69Z"/></g><mask id="au" width="49" height="49" x="231" y="11" maskUnits="userSpaceOnUse" style="mask-type:luminance"><path fill="#fff" d="M255.499 59.662c13.345 0 24.163-10.818 24.163-24.163s-10.818-24.163-24.163-24.163-24.163 10.818-24.163 24.163 10.818 24.163 24.163 24.163Z"/></mask><g mask="url(#au)"><path fill="#6F674D" d="M255.892 29.657c-.029-.062-.049-.144.07-.165.124-.02.174-.008.215.082.041.091.082.165.021.203-.062.033-.223 0-.306-.12Zm-.194-.582s-.041.03-.02-.029c.008-.07.062-.194.194-.165.132.03.103.174.082.215-.021.041-.132.111-.214.082-.083-.029-.042-.103-.042-.103Z"/></g><mask id="av" width="49" height="49" x="231" y="11" maskUnits="userSpaceOnUse" style="mask-type:luminance"><path fill="#fff" d="M255.499 59.662c13.345 0 24.163-10.818 24.163-24.163s-10.818-24.163-24.163-24.163-24.163 10.818-24.163 24.163 10.818 24.163 24.163 24.163Z"/></mask><g mask="url(#av)"><path fill="#AC924C" d="M244.523 29.34s.326.244.706.236c.376-.009.858-.396 1.081-.644.132-.144.244-.297.367-.417.103-.103.174-.152.223-.223.07-.082.145-.235.182-.284-.091.07-.223.194-.359.276a4.1 4.1 0 0 1-.533.277c-.111.041-1.266.652-1.266.652l-.401.128Z"/></g><mask id="aw" width="49" height="49" x="231" y="11" maskUnits="userSpaceOnUse" style="mask-type:luminance"><path fill="#fff" d="M255.499 59.662c13.345 0 24.163-10.818 24.163-24.163s-10.818-24.163-24.163-24.163-24.163 10.818-24.163 24.163 10.818 24.163 24.163 24.163Z"/></mask><g mask="url(#aw)"><path fill="#9F8E57" d="M245.023 26.288s.182-.124.533-.202c.338-.083 1.019-.145 1.019-.145l.561.244.223.846-.409.879-.52.326-.59-.95-.817-.998Z"/></g><mask id="ax" width="49" height="49" x="231" y="11" maskUnits="userSpaceOnUse" style="mask-type:luminance"><path fill="#fff" d="M255.499 59.662c13.345 0 24.163-10.818 24.163-24.163s-10.818-24.163-24.163-24.163-24.163 10.818-24.163 24.163 10.818 24.163 24.163 24.163Z"/></mask><g mask="url(#ax)"><path fill="#EAC970" d="m244.295 27.047-.193.145s.049-.09.09-.367c.042-.277.256-.95.57-1.337.313-.388.305-.367.305-.367s-.091-.021-.165.04c.041-.09.305-.416.569-.581.265-.165.368-.215.644-.083.277.133.347.203.549.194.202-.008.375-.222.375-.222s.042.132-.111.437-.755.928-.755.928l-1.254.859-.624.354Z"/></g><mask id="ay" width="49" height="49" x="231" y="11" maskUnits="userSpaceOnUse" style="mask-type:luminance"><path fill="#fff" d="M255.499 59.662c13.345 0 24.163-10.818 24.163-24.163s-10.818-24.163-24.163-24.163-24.163 10.818-24.163 24.163 10.818 24.163 24.163 24.163Z"/></mask><g mask="url(#ay)"><path fill="#D7BC6B" d="M245.219 26.184s.908.123 1.184-.132c.008.029.041.029.041.05 0 .02-.02.04-.02.04s.049-.008.09-.008c.042.008.071.02.112.02.041 0 .091-.008.091-.008s-.009.07-.062.104c.041 0 .082.008.082.04 0 .034.008.133-.041.154a.187.187 0 0 1-.124-.009s0 .112.062.223c.083.153.256.326.491.277 0 0 .124.297-.396.957-.07.09-.144.215-.235.318-.07.165-.083.243-.083.243s.879-.338 1.131-1.11c.256-.776.305-1.539.256-2.253a1.18 1.18 0 0 0-.091-.45c-.124-.255-.471-.214-.611-.07-.202.203-.54.706-1.011 1.052-.478.347-.499.409-.866.562Z"/></g><mask id="az" width="49" height="49" x="231" y="11" maskUnits="userSpaceOnUse" style="mask-type:luminance"><path fill="#fff" d="M255.499 59.662c13.345 0 24.163-10.818 24.163-24.163s-10.818-24.163-24.163-24.163-24.163 10.818-24.163 24.163 10.818 24.163 24.163 24.163Z"/></mask><g mask="url(#az)"><path fill="#585136" d="M244.126 27.298s-.174.103-.265.49c-.09.397.083.88.182 1.032.103.153.326.57.796.59.103 0 .223-.02.339-.07.165-.07.326-.181.458-.285.202-.152.367-.284.346-.296-.049-.021-1.246-1.012-1.246-1.012l-.45-.503-.16.054Z"/></g><mask id="aA" width="49" height="49" x="231" y="11" maskUnits="userSpaceOnUse" style="mask-type:luminance"><path fill="#fff" d="M255.499 59.662c13.345 0 24.163-10.818 24.163-24.163s-10.818-24.163-24.163-24.163-24.163 10.818-24.163 24.163 10.818 24.163 24.163 24.163Z"/></mask><g mask="url(#aA)"><path fill="#453A25" d="M245.255 28.944s.243-.02.388-.111c.144-.091-.846-1.073-.846-1.073l.07 1.06.388.124Z"/></g><mask id="aB" width="49" height="49" x="231" y="11" maskUnits="userSpaceOnUse" style="mask-type:luminance"><path fill="#fff" d="M255.499 59.662c13.345 0 24.163-10.818 24.163-24.163s-10.818-24.163-24.163-24.163-24.163 10.818-24.163 24.163 10.818 24.163 24.163 24.163Z"/></mask><g mask="url(#aB)"><path fill="#84754B" d="M244.206 27.223s-.124.235-.124.297c-.02.202.041.838.091 1.04.049.214.318.54.664.54.215 0 .512-.132.512-.165 0-.041-.305-.082-.388-.235-.049-.082-.07-.285-.082-.491-.009-.132-.009-.276.041-.326.111-.124.132-.479.132-.479l.396-.734h-.52l-.623.388-.099.165Z"/></g><mask id="aC" width="49" height="49" x="231" y="11" maskUnits="userSpaceOnUse" style="mask-type:luminance"><path fill="#fff" d="M255.499 59.662c13.345 0 24.163-10.818 24.163-24.163s-10.818-24.163-24.163-24.163-24.163 10.818-24.163 24.163 10.818 24.163 24.163 24.163Z"/></mask><g mask="url(#aC)"><path fill="#252211" d="M244.047 27.451s.408-.54.776-.664c.367-.124.532-.05.532-.05l-.215.549-.305.338.021.174s-.05.458.255.775c.306.318.533.306.665.306s.511-.112.705-.57c.174-.429.318-.978-.029-1.53-.338-.55-.936-.57-1.052-.57-.115.004-1.023.045-1.353 1.242Z"/></g><mask id="aD" width="49" height="49" x="231" y="11" maskUnits="userSpaceOnUse" style="mask-type:luminance"><path fill="#fff" d="M255.499 59.662c13.345 0 24.163-10.818 24.163-24.163s-10.818-24.163-24.163-24.163-24.163 10.818-24.163 24.163 10.818 24.163 24.163 24.163Z"/></mask><g mask="url(#aD)"><path fill="#F7F7E7" d="M254.534 29.289c-.153-.07-.009-.5.144-.632.153-.131.347-.284.685-.305.124-.008.244.07.223.153-.029.152-.244.367-.437.52-.269.21-.442.342-.615.264Z"/></g><mask id="aE" width="49" height="49" x="231" y="11" maskUnits="userSpaceOnUse" style="mask-type:luminance"><path fill="#fff" d="M255.499 59.662c13.345 0 24.163-10.818 24.163-24.163s-10.818-24.163-24.163-24.163-24.163 10.818-24.163 24.163 10.818 24.163 24.163 24.163Z"/></mask><g mask="url(#aE)"><path fill="#F8F6DE" d="M246.28 26.948c.111-.009.256.082.284.202.029.132-.07.396-.284.396-.174 0-.264-.215-.264-.276 0-.062.029-.124.041-.145.008-.012.029-.157.223-.177Z"/></g><mask id="aF" width="49" height="49" x="231" y="11" maskUnits="userSpaceOnUse" style="mask-type:luminance"><path fill="#fff" d="M255.499 59.662c13.345 0 24.163-10.818 24.163-24.163s-10.818-24.163-24.163-24.163-24.163 10.818-24.163 24.163 10.818 24.163 24.163 24.163Z"/></mask><g mask="url(#aF)"><path fill="#D4C38B" d="M244.666 27.045s-.285.132-.417.408a1.09 1.09 0 0 0-.083.652c.021.104.124.36.194.45.07.09.165.153.235.145.071-.009.215-.194.215-.306 0-.111.008-.582.144-.837.12-.256-.288-.512-.288-.512Z"/></g><mask id="aG" width="49" height="49" x="231" y="11" maskUnits="userSpaceOnUse" style="mask-type:luminance"><path fill="#fff" d="M255.499 59.662c13.345 0 24.163-10.818 24.163-24.163s-10.818-24.163-24.163-24.163-24.163 10.818-24.163 24.163 10.818 24.163 24.163 24.163Z"/></mask><g mask="url(#aG)"><path fill="#E2D59D" d="M244.708 27.021c-.049.03-.132.07-.111.124.021.05.194.083.256.202a.43.43 0 0 1 .049.318.493.493 0 0 0 .145-.103c.091-.103.202-.244.297-.244.062 0 .124.03.181.03.091 0 .182-.03.194-.124.021-.124-.173-.236-.284-.215.02-.083.049-.202-.042-.285-.09-.082-.375.062-.437.103a3.933 3.933 0 0 0-.248.194Z"/></g><mask id="aH" width="49" height="49" x="231" y="11" maskUnits="userSpaceOnUse" style="mask-type:luminance"><path fill="#fff" d="M255.499 59.662c13.345 0 24.163-10.818 24.163-24.163s-10.818-24.163-24.163-24.163-24.163 10.818-24.163 24.163 10.818 24.163 24.163 24.163Z"/></mask><g mask="url(#aH)"><path fill="#CBAC5A" d="m251.269 35.691.611-.181.173.124s.124.264.318.297c-.062.132-.223.243-.215.338.008.095.091.165.091.165s-.549.908.532 1.824c-.256.103-.582.243-.755.326.124.029.388.082.499.181.112.103.112.132.215.194s.165.145.144.182c-.07-.041-.305-.165-.346-.05-.042.112-1.02.07-1.02.07l-1.65.318s.062-.165-.111-.318c-.203-.181-.45.009-.714-.194-.347-.264-.359-.569-.471-.684.112-.07.339-.174.879-.244-.02-.041-.091-.165-.049-.276.049-.145.256-.235.194-.409.09-.02.132-.02.359-.305.214-.285.346-.347.511-.367.165-.021.264 0 .57-.285.214-.202.144-.376.144-.376s.14-.045.091-.33Z"/></g><mask id="aI" width="49" height="49" x="231" y="11" maskUnits="userSpaceOnUse" style="mask-type:luminance"><path fill="#fff" d="M255.499 59.662c13.345 0 24.163-10.818 24.163-24.163s-10.818-24.163-24.163-24.163-24.163 10.818-24.163 24.163 10.818 24.163 24.163 24.163Z"/></mask><g mask="url(#aI)"><path fill="#D6BC6F" d="M249.466 35.783c.008-.04.041-.062.264-.04.223.02 1.634-.133 2.017-.154.388-.029 1.754-.008 2.418.132.665.14 1.337.306 1.663.388.326.091.429.124.417.165-.008.042-.082.083-.124.07-.041-.008-1.122-.338-1.456-.408-.335-.07-1.49-.256-2.121-.243-.59.008-.825-.009-1.325.05-.499.061-1.324.143-1.572.11-.243-.028-.194-.028-.181-.07Z"/></g><mask id="aJ" width="49" height="49" x="231" y="11" maskUnits="userSpaceOnUse" style="mask-type:luminance"><path fill="#fff" d="M255.499 59.662c13.345 0 24.163-10.818 24.163-24.163s-10.818-24.163-24.163-24.163-24.163 10.818-24.163 24.163 10.818 24.163 24.163 24.163Z"/></mask><g mask="url(#aJ)"><path fill="#DFC677" d="M252.784 39.02s.845.457 1.151 1.018c.223.417-.132.624-.132.624s.478 0 .417.264c-.029.165-.826.61-1.358.846-.541.235-.52.222-.784.264-.256.04-.957-.083-1.102.123-.144.203-.082.417-.041.45.041.03.376.07.376.07s-.071.194-.764.215c-.693.02-.866.07-.908.144-.041.07.132.03.45.083.318.05.764.082.764.082s-.145.124-.52.223c-.429.112-1.102.215-1.304.338.103.07.256.174.326.182-.174.041-.417.132-.458.165.062.041.144.09.144.09s-.346.418-.549.52c-.202.104-1.365.645-1.766.541-.998-.264-1.122-1.357-1.365-1.44-.368-.123-.541.124-.867-.05.144-.102.223-.164.376-.234-.166-.083-1.02-.623-1.02-.623s-.103-.236-.297-.57c-.165-.285-.408-.664-.59-.998-.396-.735-.417-1.073-.775-1.49.061-.082.276-.07.276-.07l3.008.99 5.335.153 1.387-1.98.59.07Z"/></g><mask id="aK" width="49" height="49" x="231" y="11" maskUnits="userSpaceOnUse" style="mask-type:luminance"><path fill="#fff" d="M255.499 59.662c13.345 0 24.163-10.818 24.163-24.163s-10.818-24.163-24.163-24.163-24.163 10.818-24.163 24.163 10.818 24.163 24.163 24.163Z"/></mask><g mask="url(#aK)"><path fill="#C4A859" d="M244.883 42.037s.041.05.111.09c.103.07.256.153.359.277.041-.062.145-.173.326 0 .182.173.409.05.549.09.144.05.153.071.153.071s.082-.07.264-.144c.111-.042.243-.07.388-.112.132-.029.276-.07.375-.07.091.062.417.409 1.725-.103 1.234-.479 1.518-.532 1.725-.458.02-.05.041-.145.359-.132 0-.132-.265-.582-.265-.582l-1.456-.5h-.796l-2.39.438-1.324.755-.103.38Z"/></g><mask id="aL" width="49" height="49" x="231" y="11" maskUnits="userSpaceOnUse" style="mask-type:luminance"><path fill="#fff" d="M255.499 59.662c13.345 0 24.163-10.818 24.163-24.163s-10.818-24.163-24.163-24.163-24.163 10.818-24.163 24.163 10.818 24.163 24.163 24.163Z"/></mask><g mask="url(#aL)"><path fill="#927D49" d="M244.086 41.2s.029.223.359.459c.326.235.429.375.429.375s.062-.082.111-.165c.05-.09.091-.194.174-.223.165-.07.54.062.623.041.07-.02.049-.165.124-.165.173-.008.284.112.346.112s.215-.008.235-.041c.021-.033.029-.376.264-.54.256-.182.57-.104.652-.063 0 .062.009.215.174.223.165.008.181-.02.326.029.144.05.317-.008.396.235.07-.02.235-.041.194-.276.082-.062.152-.104.326-.347.041-.062.111-.132.165-.223.144 0 .317-.029.549.173-.071.05-.112.083-.132.133.02.02.103.103.165.194.061.082.103.181.181.202.173.05.458-.021.776 0 .305.02.561.132.672.202.042-.02.042-.03.145-.008.103.02.181.029.07-.104.062.03.132.091.194.03.062-.063.111-.153.285-.174.173-.02.235.008.305-.173.091-.223-.223-.223-.223-.223s.145-.132.305-.306c.194-.181.417-.416.471-.705.091-.532-.429-.602-.429-.602l-2.521.775-3.083-.152-2.628 1.308Z"/></g><mask id="aM" width="49" height="49" x="231" y="11" maskUnits="userSpaceOnUse" style="mask-type:luminance"><path fill="#fff" d="M255.499 59.662c13.345 0 24.163-10.818 24.163-24.163s-10.818-24.163-24.163-24.163-24.163 10.818-24.163 24.163 10.818 24.163 24.163 24.163Z"/></mask><g mask="url(#aM)"><path fill="#6E6342" d="M241.814 33.92s-.082.103-.132.347c-.049.243-.028.214-.07.388-.041.173-.549 1.898-.359 2.48.19.581.52.796.726 1.266.042.103.083.165.104.256.07.306.008.54.09.846a.942.942 0 0 0 .215.347c.243.255.644.499.817.672.243.256.59.776 1.032.825.235.03.569-.07.845-.235.244-.152.397-.367.652-.49.182-.092.376-.125.549-.166.359-.07.685-.082.879-.041.297.062.999.276 1.386.276.153 0 .512-.02.9-.123.59-.174 1.304-.47 1.774-.603.277-.082.499-.103.726-.153.388-.09.714-.214.9-.45-.124-.144-.277-.367-1.102-.358-.936.02-2.017.54-2.55.623-.532.082-.763.152-1.357-.062-.582-.215-.603-.36-.603-.36s-.61-.428-.866-1.517c-.256-1.094 0-1.886.664-2.641.173-.194.132-.367.132-.367s.438-.59.318-1.144c-.132-.548-.978-.437-.978-.437l-4.692.821Z"/></g><mask id="aN" width="49" height="49" x="231" y="11" maskUnits="userSpaceOnUse" style="mask-type:luminance"><path fill="#fff" d="M255.499 59.662c13.345 0 24.163-10.818 24.163-24.163s-10.818-24.163-24.163-24.163-24.163 10.818-24.163 24.163 10.818 24.163 24.163 24.163Z"/></mask><g mask="url(#aN)"><path fill="#39331F" d="M242.528 35.752s-.062.111-.05.223c.008.111.041.256.376.582.284.284.223.602.223.602s.144.029.532-.153c.305-.144.408.112.408.112s.124-.07.285-.091c.165-.02.256-.083.256-.083s.359.368.672.541c.285.153.45.256.59.153.132-.091.132-.277.124-.36 0 0-.041-.102-.124-.214-.09-.132-.235-.285-.243-.408-.021-.285.215-.623.165-.706-.049-.083-.235-.103-.693.062-.475.157-2.521-.26-2.521-.26Z"/></g><mask id="aO" width="49" height="49" x="231" y="11" maskUnits="userSpaceOnUse" style="mask-type:luminance"><path fill="#fff" d="M255.499 59.662c13.345 0 24.163-10.818 24.163-24.163s-10.818-24.163-24.163-24.163-24.163 10.818-24.163 24.163 10.818 24.163 24.163 24.163Z"/></mask><g mask="url(#aO)"><path fill="#292311" d="M243.608 37.602s-.235-.223-.153-1.304c.124-.008.297.029.297.029s.128.838-.144 1.275Z"/></g><mask id="aP" width="49" height="49" x="231" y="11" maskUnits="userSpaceOnUse" style="mask-type:luminance"><path fill="#fff" d="M255.499 59.662c13.345 0 24.163-10.818 24.163-24.163s-10.818-24.163-24.163-24.163-24.163 10.818-24.163 24.163 10.818 24.163 24.163 24.163Z"/></mask><g mask="url(#aP)"><path fill="#252211" d="M241.937 33.094s.042-.029.091-.083c-.082.153-.458.764-.152 1.725.305.958 1.072 1.671 2.017 1.704.945.033 1.44-.429 2.01-1.122.223-.276.478-.623.705-.858.339-.367.603-.47.603-.825 0-.727-.743-1.053-1.836-1.379-1.094-.326-2.08-.284-2.592-.062-.499.244-.714.5-.846.9Z"/></g><mask id="aQ" width="49" height="49" x="231" y="11" maskUnits="userSpaceOnUse" style="mask-type:luminance"><path fill="#fff" d="M255.499 59.662c13.345 0 24.163-10.818 24.163-24.163s-10.818-24.163-24.163-24.163-24.163 10.818-24.163 24.163 10.818 24.163 24.163 24.163Z"/></mask><g mask="url(#aQ)"><path fill="#3F3824" d="m245.445 37.924.083-.042s.02-.326.153-.317c.132.02.193.194.181.255-.008.062-.041.166-.173.153-.174.004-.244-.05-.244-.05Z"/></g><mask id="aR" width="49" height="49" x="231" y="11" maskUnits="userSpaceOnUse" style="mask-type:luminance"><path fill="#fff" d="M255.499 59.662c13.345 0 24.163-10.818 24.163-24.163s-10.818-24.163-24.163-24.163-24.163 10.818-24.163 24.163 10.818 24.163 24.163 24.163Z"/></mask><g mask="url(#aR)"><path fill="#2D2815" d="M245.078 36.54s.083-.03.182.07c.082 0 .437-.042.548.028.112.07.145.132.145.132s-.417.09-.644 0c-.231-.078-.231-.23-.231-.23Z"/></g><mask id="aS" width="49" height="49" x="231" y="11" maskUnits="userSpaceOnUse" style="mask-type:luminance"><path fill="#fff" d="M255.499 59.662c13.345 0 24.163-10.818 24.163-24.163s-10.818-24.163-24.163-24.163-24.163 10.818-24.163 24.163 10.818 24.163 24.163 24.163Z"/></mask><g mask="url(#aS)"><path fill="#82764F" d="M246.915 36.602c0-.02-.223-.173-.458-.222-.041-.009-.049.02-.082.02-.021-.008-.029-.07-.029-.07l-.132.07s-.021.03.049.083c.062.05.165.09.194.173.029.083.029.111.041.124a.44.44 0 0 0 .223-.041c.07-.046.202-.108.194-.137Z"/></g><mask id="aT" width="49" height="49" x="231" y="11" maskUnits="userSpaceOnUse" style="mask-type:luminance"><path fill="#fff" d="M255.499 59.662c13.345 0 24.163-10.818 24.163-24.163s-10.818-24.163-24.163-24.163-24.163 10.818-24.163 24.163 10.818 24.163 24.163 24.163Z"/></mask><g mask="url(#aT)"><path fill="#2D2816" d="M244.828 37.44s.041-.284.318-.296c.285-.021.338.256.338.256l-.165.165c0-.005-.124-.178-.491-.124Z"/></g><mask id="aU" width="49" height="49" x="231" y="11" maskUnits="userSpaceOnUse" style="mask-type:luminance"><path fill="#fff" d="M255.499 59.662c13.345 0 24.163-10.818 24.163-24.163s-10.818-24.163-24.163-24.163-24.163 10.818-24.163 24.163 10.818 24.163 24.163 24.163Z"/></mask><g mask="url(#aU)"><path fill="#574F35" d="M246.632 36.212s-.152.165-.491.215c-.029-.042-.09-.124 0-.256.091-.132.194-.173.297-.132a.24.24 0 0 1 .194.173Z"/></g><mask id="aV" width="49" height="49" x="231" y="11" maskUnits="userSpaceOnUse" style="mask-type:luminance"><path fill="#fff" d="M255.499 59.662c13.345 0 24.163-10.818 24.163-24.163s-10.818-24.163-24.163-24.163-24.163 10.818-24.163 24.163 10.818 24.163 24.163 24.163Z"/></mask><g mask="url(#aV)"><path fill="#82764F" d="M247.25 36.416c.008-.041-.021-.05 0-.07.02-.021.132-.062.153-.042.008.009 0 .042 0 .083s0 .082-.021.111c-.029.041-.112.062-.153.05-.041-.009-.049-.07-.049-.083.02-.008.07-.029.07-.05Zm.705-.446c0-.02.071-.062.112-.062.062 0 .062.05.07.062.021.008.021-.008.041.029.021.041.05.103.029.144-.021.042-.103.07-.124.062a1.114 1.114 0 0 1-.128-.235Z"/></g><mask id="aW" width="49" height="49" x="231" y="11" maskUnits="userSpaceOnUse" style="mask-type:luminance"><path fill="#fff" d="M255.499 59.662c13.345 0 24.163-10.818 24.163-24.163s-10.818-24.163-24.163-24.163-24.163 10.818-24.163 24.163 10.818 24.163 24.163 24.163Z"/></mask><g mask="url(#aW)"><path fill="#6E6342" d="M246.539 36.51s.091.02.215.124c-.042.028-.104.061-.104.061s-.008-.095-.111-.185Z"/></g><mask id="aX" width="49" height="49" x="231" y="11" maskUnits="userSpaceOnUse" style="mask-type:luminance"><path fill="#fff" d="M255.499 59.662c13.345 0 24.163-10.818 24.163-24.163s-10.818-24.163-24.163-24.163-24.163 10.818-24.163 24.163 10.818 24.163 24.163 24.163Z"/></mask><g mask="url(#aX)"><path fill="#585136" d="M246.324 35.604c-.021-.02.061-.07.111-.062.049.008.07.041.124.05.053.008.062-.021.082-.042.021-.02.091-.008.103 0 .009.008.021.03.021.03s0-.05.041-.083a.131.131 0 0 1 .112-.021c.008.029.049.132.041.153-.008.02-.132.05-.153.029.021.049.112.152.124.173.008.02-.091.07-.132.062-.058-.005-.413-.21-.474-.29Zm.54-.685s-.008-.029-.041-.05c-.029-.008-.124 0-.124.05s.083.326.173.47c.104.145.174.264.244.297.07.03.111-.02.124-.04.008-.022.028-.174.02-.533-.008-.36-.02-.706-.041-.726-.021-.021-.103-.021-.132.02-.029.042-.215.45-.223.512Z"/></g><mask id="aY" width="49" height="49" x="231" y="11" maskUnits="userSpaceOnUse" style="mask-type:luminance"><path fill="#fff" d="M255.499 59.662c13.345 0 24.163-10.818 24.163-24.163s-10.818-24.163-24.163-24.163-24.163 10.818-24.163 24.163 10.818 24.163 24.163 24.163Z"/></mask><g mask="url(#aY)"><path fill="#574F35" d="M246.502 37.031s-.144-.09-.284-.029c-.132.062-.124.305-.124.305s.091.042.181-.02c.091-.062.207-.165.227-.256Z"/></g><mask id="aZ" width="49" height="49" x="231" y="11" maskUnits="userSpaceOnUse" style="mask-type:luminance"><path fill="#fff" d="M255.499 59.662c13.345 0 24.163-10.818 24.163-24.163s-10.818-24.163-24.163-24.163-24.163 10.818-24.163 24.163 10.818 24.163 24.163 24.163Z"/></mask><g mask="url(#aZ)"><path fill="#82764F" d="M246.778 37.356c-.008-.082-.083-.082-.083-.124a.094.094 0 0 1 .091-.07c.041 0 .083.05.132.083.05.029.124.082.132.144.008.062-.082.235-.181.235-.099-.004-.071-.185-.091-.268Zm.796-.111s-.165.05-.152 0c.008-.05.049-.062.103-.062.02-.02.062-.05.103-.05.041 0 .062.02.062.02s.111-.049.144-.02c.029.03.008.03.029.062.021.03.05.091.05.124s-.124.103-.223.09c-.116-.024-.095-.144-.116-.164Zm.962-.186s.049.029.008.062a.658.658 0 0 1-.297.09c-.124 0-.235.021-.235-.02s.103-.124.165-.144a.13.13 0 0 1 .103-.05c.049 0 .243-.02.297-.029.049-.008.091.02.062.062-.013.029-.103.029-.103.029Zm.284-1.275s-.062.132-.132.132c-.07-.008-.07-.029-.07-.05 0-.028.07-.103.062-.123-.021 0-.07 0-.062-.05 0-.041.07-.09.132-.082a.272.272 0 0 1 .165-.062c.07 0 .132.02.132.062 0 .041-.082.132-.111.152-.033.033-.074.054-.116.021Zm-.94 2.439s-.083.008-.083.05c0 .02.021.02.05.007.02 0 .049-.008.049-.008.008.008.008.05.07.05a.4.4 0 0 0 .145-.05c.049-.02.09-.041.09-.082-.02-.07-.062-.104-.123-.104-.062 0-.091.021-.091.021s-.021-.041-.091 0c-.07.041-.062.041-.041.062.037.033.025.054.025.054Zm-.467.429c0-.02.103-.062.132-.05.029.009.112.165.112.182 0 .02-.103.07-.145.07-.041 0-.111-.07-.111-.083 0-.008.049-.02.049-.029.013-.02-.037-.07-.037-.09Zm-.326-.603c.021-.008.021-.029.05-.05.029-.02.062-.008.062-.008s.02-.04.07-.049c.049-.008.091 0 .082.02 0 .063.042.104.042.153 0 .05-.029.112-.132.153a.725.725 0 0 1-.264.02c-.021-.008-.042-.09-.021-.131.016-.046.078-.087.111-.108Z"/></g><mask id="ba" width="49" height="49" x="231" y="11" maskUnits="userSpaceOnUse" style="mask-type:luminance"><path fill="#fff" d="M255.499 59.662c13.345 0 24.163-10.818 24.163-24.163s-10.818-24.163-24.163-24.163-24.163 10.818-24.163 24.163 10.818 24.163 24.163 24.163Z"/></mask><g mask="url(#ba)"><path fill="#6E6342" d="M247.219 38.08s-.07.041-.07.062c-.008.02-.008.05-.008.062 0 .012.09-.008.103-.02.004-.009-.025-.083-.025-.104Z"/></g><mask id="bb" width="49" height="49" x="231" y="11" maskUnits="userSpaceOnUse" style="mask-type:luminance"><path fill="#fff" d="M255.499 59.662c13.345 0 24.163-10.818 24.163-24.163s-10.818-24.163-24.163-24.163-24.163 10.818-24.163 24.163 10.818 24.163 24.163 24.163Z"/></mask><g mask="url(#bb)"><path fill="#585136" d="M246.605 37.883c.041.008.111 0 .165.02.041.021.07.063.029.112-.041.05-.083.124-.174.111-.103-.008-.202-.061-.202-.103-.008-.05.021-.111.05-.144.041-.033.062-.012.132.004Z"/></g><mask id="bc" width="49" height="49" x="231" y="11" maskUnits="userSpaceOnUse" style="mask-type:luminance"><path fill="#fff" d="M255.499 59.662c13.345 0 24.163-10.818 24.163-24.163s-10.818-24.163-24.163-24.163-24.163 10.818-24.163 24.163 10.818 24.163 24.163 24.163Z"/></mask><g mask="url(#bc)"><path fill="#574F35" d="M246.555 37.924s-.132.103-.165.153c-.041.049-.243.305-.305.358a.725.725 0 0 1 .07-.103s-.124.07-.173.223c-.05.153.276.235.491.297.214.062.297.083.297.083s-.124-.182-.202-.376c-.083-.194-.124-.214-.071-.305.042-.09.104-.153.104-.223a1.193 1.193 0 0 0-.046-.107Z"/></g><mask id="bd" width="49" height="49" x="231" y="11" maskUnits="userSpaceOnUse" style="mask-type:luminance"><path fill="#fff" d="M255.499 59.662c13.345 0 24.163-10.818 24.163-24.163s-10.818-24.163-24.163-24.163-24.163 10.818-24.163 24.163 10.818 24.163 24.163 24.163Z"/></mask><g mask="url(#bd)"><path fill="#252211" d="M241.852 38.252s.028.008.09 0 .706-.244 1.378-.202c.298.02.826.062 1.49.243.846.223 1.898.665 2.579.916.181.07.359.194.491.244.52.202.54.202.846.255.359.05.726-.07 1.11-.152.47-.103 1.275-.153 1.98-.256.368-.05.673-.153.673-.153s-.561.562-1.906.764a5.966 5.966 0 0 1-1.643.02 4.992 4.992 0 0 1-.928-.165c-.243-.07-.743-.255-1.358-.408-.429-.112-.907-.194-1.456-.297-1.353-.248-2.822-.533-3.346-.809Z"/></g><mask id="be" width="49" height="49" x="231" y="11" maskUnits="userSpaceOnUse" style="mask-type:luminance"><path fill="#fff" d="M255.499 59.662c13.345 0 24.163-10.818 24.163-24.163s-10.818-24.163-24.163-24.163-24.163 10.818-24.163 24.163 10.818 24.163 24.163 24.163Z"/></mask><g mask="url(#be)"><path fill="#CFB66C" d="M241.153 32.775c-.144-.132-.297-.264-.437-.396-.145-.132-.285-.264-.43-.396l-.429-.409c-.07-.07-.144-.132-.214-.202l-.223-.194c-.569-.54-1.143-1.08-1.704-1.621.582.532 1.151 1.06 1.733 1.6l.202.203c.07.07.144.132.215.202l.429.396c.144.132.284.264.429.409.144.144.285.276.429.408Zm-7.559-.082s2.071.214 3.082.358c.937.133 3.866.582 3.866.582m-6.948-.94c.582.05 1.163.111 1.745.173.297.029.582.062.867.09l.437.05.429.062 1.733.276.867.145c.284.05.569.103.866.153-.285-.03-.582-.07-.866-.112l-.867-.124-1.733-.255c-.144-.021-.285-.05-.429-.07l-.437-.05c-.285-.029-.582-.07-.867-.103a50.872 50.872 0 0 1-1.745-.235Zm6.742 1.48s-2.212.562-2.959.777c-.734.202-2.958.878-2.958.878"/></g><mask id="bf" width="49" height="49" x="231" y="11" maskUnits="userSpaceOnUse" style="mask-type:luminance"><path fill="#fff" d="M255.499 59.662c13.345 0 24.163-10.818 24.163-24.163s-10.818-24.163-24.163-24.163-24.163 10.818-24.163 24.163 10.818 24.163 24.163 24.163Z"/></mask><g mask="url(#bf)"><path fill="#CFB66C" d="M240.33 34.174c-.491.144-.978.285-1.477.417l-1.477.396c-.491.144-.978.284-1.469.429l-.735.202c-.243.07-.491.132-.742.202.243-.082.491-.165.734-.235l.735-.235c.491-.153.978-.297 1.469-.45.499-.124.99-.256 1.489-.375.475-.12.974-.24 1.473-.351Zm-5.607 3.016c.243-.09 3.049-1.399 3.701-1.704.326-.153 1.275-.491 1.275-.491"/></g><mask id="bg" width="49" height="49" x="231" y="11" maskUnits="userSpaceOnUse" style="mask-type:luminance"><path fill="#fff" d="M255.499 59.662c13.345 0 24.163-10.818 24.163-24.163s-10.818-24.163-24.163-24.163-24.163 10.818-24.163 24.163 10.818 24.163 24.163 24.163Z"/></mask><g mask="url(#bg)"><path fill="#CFB66C" d="M234.719 37.188c.214-.083.416-.182.623-.277l.61-.284 1.226-.59c.408-.194.805-.409 1.225-.59.215-.091.43-.165.644-.236l.326-.103c.112-.028.215-.061.326-.09-.408.194-.838.359-1.246.548-.409.203-.825.368-1.246.55l-1.246.548c-.417.17-.826.35-1.242.524Zm.272 1.143s2.542-1.49 3.417-1.968c.458-.256 1.939-.99 1.939-.99"/></g><mask id="bh" width="49" height="49" x="231" y="11" maskUnits="userSpaceOnUse" style="mask-type:luminance"><path fill="#fff" d="M255.499 59.662c13.345 0 24.163-10.818 24.163-24.163s-10.818-24.163-24.163-24.163-24.163 10.818-24.163 24.163 10.818 24.163 24.163 24.163Z"/></mask><g mask="url(#bh)"><path fill="#CFB66C" d="M234.992 38.336c.429-.264.867-.532 1.304-.805l.652-.396c.223-.132.437-.256.664-.388.223-.132.438-.264.665-.388.111-.07.222-.123.338-.173l.347-.173c.458-.223.916-.45 1.398-.644-.437.277-.887.512-1.337.755-.222.124-.449.235-.672.36-.223.123-.437.255-.664.375-.223.132-.438.255-.665.375l-.672.367-1.358.735Zm5.335-2.633s-1.58 1.213-2.092 1.601c-.511.388-2.017 1.477-2.017 1.477"/></g><mask id="bi" width="49" height="49" x="231" y="11" maskUnits="userSpaceOnUse" style="mask-type:luminance"><path fill="#fff" d="M255.499 59.662c13.345 0 24.163-10.818 24.163-24.163s-10.818-24.163-24.163-24.163-24.163 10.818-24.163 24.163 10.818 24.163 24.163 24.163Z"/></mask><g mask="url(#bi)"><path fill="#CFB66C" d="M240.333 35.7c-.326.276-.673.54-1.011.796l-1.019.784c-.347.255-.685.52-1.032.775-.346.256-.693.5-1.06.735.326-.277.673-.532 1.019-.784.347-.252.706-.5 1.04-.755l1.019-.784c.351-.256.689-.52 1.044-.768Zm-1.803 2.888s.367-.306.825-.735c.57-.532 1.267-1.213 1.49-1.337"/></g><mask id="bj" width="49" height="49" x="231" y="11" maskUnits="userSpaceOnUse" style="mask-type:luminance"><path fill="#fff" d="M255.499 59.662c13.345 0 24.163-10.818 24.163-24.163s-10.818-24.163-24.163-24.163-24.163 10.818-24.163 24.163 10.818 24.163 24.163 24.163Z"/></mask><g mask="url(#bj)"><path fill="#CFB66C" d="M238.531 38.59c.182-.182.376-.36.57-.533l.297-.256c.091-.082.194-.173.284-.264.182-.181.359-.375.541-.561.091-.09.182-.181.285-.264a.756.756 0 0 1 .165-.112c.049-.028.103-.082.173-.09-.041.062-.091.09-.132.144-.049.041-.091.091-.132.132-.091.091-.194.173-.285.256-.194.165-.396.326-.59.5-.194.173-.375.358-.569.532-.211.177-.405.35-.607.515Zm2.468-1.651s-1.345 1.316-1.622 1.53l1.622-1.53Z"/></g><mask id="bk" width="49" height="49" x="231" y="11" maskUnits="userSpaceOnUse" style="mask-type:luminance"><path fill="#fff" d="M255.499 59.662c13.345 0 24.163-10.818 24.163-24.163s-10.818-24.163-24.163-24.163-24.163 10.818-24.163 24.163 10.818 24.163 24.163 24.163Z"/></mask><g mask="url(#bk)"><path fill="#CFB66C" d="M240.997 36.938a4.445 4.445 0 0 1-.388.396l-.409.387c-.132.133-.256.265-.396.397-.144.123-.276.243-.429.359l.396-.388c.132-.132.277-.244.417-.376l.396-.388c.136-.136.268-.268.413-.388Zm.061.713s-.152.45-.437 1.011c-.346.694-.866 1.56-1.093 2.002"/></g><mask id="bl" width="49" height="49" x="231" y="11" maskUnits="userSpaceOnUse" style="mask-type:luminance"><path fill="#fff" d="M255.499 59.662c13.345 0 24.163-10.818 24.163-24.163s-10.818-24.163-24.163-24.163-24.163 10.818-24.163 24.163 10.818 24.163 24.163 24.163Z"/></mask><g mask="url(#bl)"><path fill="#CFB66C" d="M241.058 37.652c0 .153-.041.285-.091.417a3.907 3.907 0 0 1-.165.388 6.742 6.742 0 0 1-.202.375c-.07.124-.153.244-.215.368l-.416.734c-.145.244-.285.491-.438.726.103-.264.244-.511.376-.755.144-.243.276-.49.408-.742a4.2 4.2 0 0 0 .174-.388c.061-.132.123-.256.173-.376.062-.132.111-.256.173-.375.07-.128.128-.252.223-.372Z"/></g><mask id="bm" width="49" height="49" x="231" y="11" maskUnits="userSpaceOnUse" style="mask-type:luminance"><path fill="#fff" d="M255.499 59.662c13.345 0 24.163-10.818 24.163-24.163s-10.818-24.163-24.163-24.163-24.163 10.818-24.163 24.163 10.818 24.163 24.163 24.163Z"/></mask><g mask="url(#bm)"><path fill="#DEC270" d="M242.526 41.033s-.408.54-.367 1.226c.112-.36.252-.908.367-1.226Zm.388.54s-.144 1.47-.264 2.192c.169-.834.202-.764.264-2.191Zm2.703 2.278s-.611 1.795-.623 2.295c.132-.512.388-1.56.623-2.295Z"/></g><mask id="bn" width="49" height="49" x="231" y="11" maskUnits="userSpaceOnUse" style="mask-type:luminance"><path fill="#fff" d="M255.499 59.662c13.345 0 24.163-10.818 24.163-24.163s-10.818-24.163-24.163-24.163-24.163 10.818-24.163 24.163 10.818 24.163 24.163 24.163Z"/></mask><g mask="url(#bn)"><path fill="#CBAF59" d="M247.039 40.928s.99 1.634 1.733 3.028c-.202-.701-.664-1.989-1.733-3.028Z"/></g><mask id="bo" width="49" height="49" x="231" y="11" maskUnits="userSpaceOnUse" style="mask-type:luminance"><path fill="#fff" d="M255.499 59.662c13.345 0 24.163-10.818 24.163-24.163s-10.818-24.163-24.163-24.163-24.163 10.818-24.163 24.163 10.818 24.163 24.163 24.163Z"/></mask><g mask="url(#bo)"><path fill="#E3C677" d="M249.703 43.332s.776 1.337 1.469 2.967c-.082-.702-.305-1.902-1.469-2.967Z"/></g><mask id="bp" width="49" height="49" x="231" y="11" maskUnits="userSpaceOnUse" style="mask-type:luminance"><path fill="#fff" d="M255.499 59.662c13.345 0 24.163-10.818 24.163-24.163s-10.818-24.163-24.163-24.163-24.163 10.818-24.163 24.163 10.818 24.163 24.163 24.163Z"/></mask><g mask="url(#bp)"><path fill="#ECD592" d="M257.529 45.74c.165-.104.491-.665.776-.806.284-.144.499-.173.755-.457.256-.298.326-.48.887-.714.784-.339.243-.776.243-.776s.132-.132.277-.235c.202-.153.437-.339.417-.665-.029-.548-.132-1.345-.582-1.807.437-.09 1.275-.153 1.795-.285.602-.152.879-.367.879-.367s-.347-.59.214-1.184c.561-.59 1.019-.949 1.358-1.613-.388-.05-.978-.256-2.488.317.111.05.235.132.235.132s-.929.256-1.267.54c-.59.5-.664.909-1.304 1.214-.644.305-1.283.223-1.815.47-.533.244-.611.459-.805.55.041.049-.008.131.07.201-.049.07-.338.54-.631.54.029.112.276.195.276.195s-.181.132-.643.165c.235.243.458.512 1.072.9-.049.103-.255.255-.173.45.091.193.326.457 1.267.672-.479.02-1.04.132-1.795.029-.755-.091-.879-.145-1.345-.03.049.05.181.05.297.182-.124.009-.9-.09-1.164.256-.276.36-.396.95-.375 1.345-.145.07-.285.194-.215.45.07.256.438.338.673.5.235.173.256.235.478.193.236-.05.582-.284.784-.284.203 0 .347.152.347.152s.549-.264.602-.214c.05.05.009.367.062.416.054.038.673-.33.838-.433Z"/></g><path fill="#fff" d="M269.525 29.23c-2.579-6.66-8.954-7.894-8.954-7.894h-18.188l.07 6.783h3.623v15.148h-3.693v6.77h17.685c4.262 0 7.679-4.282 7.679-4.282 5.471-7.766 1.778-16.526 1.778-16.526Zm-9.362 11.961s-1.387 2.002-2.897 2.002h-3.02l-.07-15.057h3.874s1.795.375 3.049 3.928c0 0 1.663 5.088-.936 9.127Z" opacity=".8"/></svg>