<svg xmlns="http://www.w3.org/2000/svg" width="125" height="42" fill="none"><path fill="#fff" fill-rule="evenodd" d="m17.363 9.367-3.292 12.317-2.61 1.026-.94 3.507 2.652-.898-1.754 7.271 18.989.042 1.154-4.661H20.015l1.497-5.603 3.122-1.327.898-3.42-3.036 1.025 2.395-9.152-7.527-.127ZM21 .003a21.012 21.012 0 0 1 20.999 20.996 21.012 21.012 0 0 1-21 20.999A21.012 21.012 0 0 1 0 20.998C.042 9.41 9.41 0 20.999 0v.003ZM57.236 13.134a1.412 1.412 0 0 1-1.406 1.406 1.411 1.411 0 0 1-1.405-1.406 1.411 1.411 0 0 1 1.405-1.406c.788.028 1.406.647 1.406 1.406Zm53.642.041a1.415 1.415 0 0 1-1.406 1.406 1.412 1.412 0 0 1-1.406-1.406 1.41 1.41 0 0 1 1.406-1.406 1.413 1.413 0 0 1 1.406 1.406Zm-61.12-2.206h1.855v19.763h-1.855V10.97Zm15.63 6.973-.028 1.687-2.642.028v11.092h-1.855V19.644h-2.249V17.9h2.249v-4.78h1.855v4.78h2.67v.042Zm5.709-.057c1.828-.365 3.822-.128 5.341.984 1.968 1.406 2.755 4.02 2.446 6.324H68.058c.166 1.209.76 2.36 1.77 3.079 1.996 1.49 5.202 1.097 6.606-.984l.253-.253c.618.085 1.208.253 1.8.366-.59 1.35-1.715 2.446-3.079 3.036-1.66.72-3.533.77-5.228.141-1.575-.59-2.868-1.854-3.515-3.43-.76-1.924-.703-4.105.166-5.96.788-1.714 2.418-2.95 4.234-3.317l.032.014Zm-1.715 2.95c-.732.704-1.155 1.688-1.322 2.671h8.98c-.129-1.629-1.237-3.204-2.84-3.71-1.63-.562-3.599-.167-4.808 1.026l-.01.014Zm12.737-.982c2.418-2.67 7.056-2.867 9.672-.394l-1.32 1.322c-1.829-1.604-4.78-1.604-6.607-.029-2.18 1.855-2.052 5.709.224 7.422 1.829 1.435 4.639 1.35 6.382-.224l1.322 1.293c-2.476 2.249-6.691 2.335-9.166.113-2.642-2.36-2.868-6.889-.507-9.503Zm33.397.128c.703-1.49 2.502-2.276 4.217-2.276.787 0 1.574.128 2.219.449 1.293.561 2.024 1.658 2.39 2.924.224.731.308 1.518.308 2.277l-.029 7.422h-1.828v-7.309c0-1.097-.224-2.277-.983-3.079-.76-.759-1.94-.955-2.951-.73-1.18.166-2.305.872-2.867 1.967-.337.675-.478 1.406-.478 2.165v7h-1.855V17.998l1.855.028.002 1.956Zm-17.628-2.124c1.828-.337 3.798-.056 5.342.984 1.462.927 2.446 2.502 2.727 4.19.282 1.77 0 3.655-1.026 5.13-1.18 1.77-3.317 2.84-5.454 2.813-1.8.084-3.627-.59-4.892-1.884-2.137-2.052-2.475-5.539-1.096-8.096.872-1.659 2.557-2.812 4.387-3.15l.012.013Zm.167 1.855c-1.49.337-2.755 1.434-3.26 2.867-.732 1.996-.113 4.47 1.658 5.679 2.08 1.517 5.342 1.125 6.86-.984.54-.769.857-1.672.916-2.61a5.1 5.1 0 0 0-.578-2.703c-1.026-1.968-3.515-2.812-5.593-2.249h-.003ZM54.903 30.75V17.985l1.77-.056.028 12.82h-1.798Zm55.467 0h-1.801l.028-12.82h1.77l.003 12.82Z" clip-rule="evenodd"/></svg>