<svg xmlns="http://www.w3.org/2000/svg" width="129" height="44" fill="none"><path fill="#009A44" d="M45.706 8.633H23.324c-.739 0-1.338.606-1.338 1.354v13.539c0 .747.6 1.354 1.338 1.354h22.382c.74 0 1.339-.607 1.339-1.354V9.986c0-.747-.6-1.353-1.339-1.353Z"/><path fill="#fff" fill-rule="evenodd" d="M25.947 16.64h-1.164v-.949h1.164v.949ZM26.014 14.66h2.323c.316 0 .574.251.574.558v.402h-1.233v3.057h-1.664V14.66ZM25.947 18.678h-.59a.568.568 0 0 1-.574-.558v-.401h1.164v.96ZM25.357 14.66h.59v.96h-1.164v-.402c0-.307.258-.558.574-.558ZM25.947 17.655h-1.164v-.948h1.164v.948Z" clip-rule="evenodd"/><path fill="#fff" fill-rule="evenodd" d="M28.91 16.64h-1.164v-.949h1.164v.949ZM28.91 17.655h-1.164v-.948h1.164v.948ZM27.746 18.678h.59a.568.568 0 0 0 .574-.558v-.401h-1.164v.96Z" clip-rule="evenodd"/><path fill="#fff" d="M23.85 21.894c-.156 0-.274-.04-.355-.119a.443.443 0 0 1-.122-.332v-.722c0-.143.04-.254.122-.333.081-.079.2-.119.355-.119.157 0 .276.04.357.119.08.078.121.19.121.333v.722c0 .143-.04.254-.122.333-.081.079-.2.118-.355.118Zm0-.212c.083 0 .145-.02.184-.061.04-.041.06-.1.06-.178v-.722c0-.077-.02-.136-.06-.178-.039-.04-.1-.061-.183-.061-.084 0-.145.02-.184.061-.04.042-.06.1-.06.178v.722c0 .077.02.137.06.177.04.041.1.062.183.062Zm1.254.212c-.156 0-.275-.04-.356-.119a.443.443 0 0 1-.121-.332v-.722c0-.143.04-.254.122-.333.081-.079.2-.119.355-.119.157 0 .275.04.356.119.081.078.122.19.122.333v.722c0 .143-.04.254-.122.333-.081.079-.2.118-.356.118Zm0-.212c.083 0 .144-.02.184-.061.04-.041.059-.1.059-.178v-.722c0-.077-.02-.136-.059-.178-.039-.04-.1-.061-.184-.061-.083 0-.145.02-.183.061-.04.042-.06.1-.06.178v.722c0 .077.02.137.06.177.04.041.1.062.183.062Zm1.254.212c-.157 0-.275-.04-.356-.119a.443.443 0 0 1-.122-.332v-.722c0-.143.041-.254.123-.333.08-.079.2-.119.355-.119.157 0 .275.04.356.119.08.078.121.19.121.333v.722c0 .143-.04.254-.121.333-.082.079-.2.118-.356.118Zm0-.212c.083 0 .144-.02.183-.061.04-.041.06-.1.06-.178v-.722c0-.077-.02-.136-.059-.178-.04-.04-.1-.061-.184-.061-.084 0-.145.02-.184.061-.04.042-.059.1-.059.178v.722c0 .077.02.137.06.177.04.041.1.062.183.062Zm1.253.212c-.156 0-.274-.04-.355-.119a.443.443 0 0 1-.122-.332v-.722c0-.143.04-.254.122-.333.081-.079.2-.119.355-.119.157 0 .276.04.357.119.08.078.12.19.12.333v.722c0 .143-.04.254-.12.333-.082.079-.2.118-.357.118Zm0-.212c.083 0 .145-.02.184-.061.04-.041.059-.1.059-.178v-.722c0-.077-.02-.136-.058-.178-.04-.04-.101-.061-.185-.061-.083 0-.145.02-.183.061-.04.042-.06.1-.06.178v.722c0 .077.02.137.06.177.04.041.1.062.183.062ZM29.702 21.894c-.156 0-.275-.04-.356-.119a.443.443 0 0 1-.121-.332v-.722c0-.143.04-.254.122-.333.081-.079.2-.119.355-.119.157 0 .275.04.356.119.081.078.122.19.122.333v.722c0 .143-.04.254-.122.333-.081.079-.2.118-.356.118Zm0-.212c.083 0 .144-.02.184-.061.039-.041.059-.1.059-.178v-.722c0-.077-.02-.136-.059-.178-.039-.04-.1-.061-.184-.061-.084 0-.145.02-.184.061-.039.042-.059.1-.059.178v.722c0 .077.02.137.06.177.04.041.1.062.183.062Zm1.254.212c-.157 0-.275-.04-.356-.119a.443.443 0 0 1-.122-.332v-.722c0-.143.041-.254.122-.333.082-.079.2-.119.356-.119.156 0 .275.04.356.119.08.078.121.19.121.333v.722c0 .143-.04.254-.122.333-.08.079-.2.118-.355.118Zm0-.212c.083 0 .144-.02.183-.061.04-.041.06-.1.06-.178v-.722c0-.077-.02-.136-.06-.178-.038-.04-.1-.061-.183-.061-.084 0-.145.02-.184.061-.04.042-.059.1-.059.178v.722c0 .077.02.137.06.177.039.041.1.062.183.062Zm1.253.212c-.156 0-.275-.04-.355-.119a.443.443 0 0 1-.122-.332v-.722c0-.143.04-.254.122-.333.081-.079.2-.119.355-.119.157 0 .276.04.356.119.081.078.122.19.122.333v.722c0 .143-.04.254-.122.333-.081.079-.2.118-.356.118Zm0-.212c.083 0 .144-.02.184-.061.04-.041.059-.1.059-.178v-.722c0-.077-.02-.136-.058-.178-.04-.04-.101-.061-.185-.061-.083 0-.145.02-.183.061-.04.042-.06.1-.06.178v.722c0 .077.02.137.06.177.04.041.1.062.183.062Zm1.254.212c-.156 0-.275-.04-.356-.119a.443.443 0 0 1-.121-.332v-.722c0-.143.04-.254.122-.333.08-.079.2-.119.355-.119.157 0 .275.04.356.119.081.078.121.19.121.333v.722c0 .143-.04.254-.121.333-.082.079-.2.118-.356.118Zm0-.212c.083 0 .144-.02.184-.061.039-.041.059-.1.059-.178v-.722c0-.077-.02-.136-.059-.178-.04-.04-.1-.061-.184-.061-.084 0-.145.02-.184.061-.04.042-.059.1-.059.178v.722c0 .077.02.137.06.177.04.041.1.062.183.062ZM35.556 21.894c-.157 0-.275-.04-.356-.119a.443.443 0 0 1-.122-.332v-.722c0-.143.041-.254.122-.333.081-.079.2-.119.356-.119.156 0 .275.04.356.119.08.078.121.19.121.333v.722c0 .143-.04.254-.122.333-.08.079-.2.118-.355.118Zm0-.212c.083 0 .144-.02.183-.061.04-.041.06-.1.06-.178v-.722c0-.077-.02-.136-.06-.178-.039-.04-.1-.061-.183-.061-.084 0-.145.02-.184.061-.04.042-.06.1-.06.178v.722c0 .077.02.137.06.177.04.041.1.062.184.062Zm1.253.212c-.156 0-.275-.04-.355-.119a.443.443 0 0 1-.122-.332v-.722c0-.143.04-.254.122-.333.081-.079.2-.119.355-.119.157 0 .276.04.356.119.081.078.122.19.122.333v.722c0 .143-.04.254-.122.333-.081.079-.2.118-.356.118Zm0-.212c.083 0 .144-.02.184-.061.04-.041.059-.1.059-.178v-.722c0-.077-.02-.136-.059-.178-.039-.04-.1-.061-.184-.061-.083 0-.145.02-.183.061-.04.042-.06.1-.06.178v.722c0 .077.02.137.06.177.04.041.1.062.183.062Zm1.254.212c-.156 0-.275-.04-.356-.119a.443.443 0 0 1-.122-.332v-.722c0-.143.041-.254.123-.333.08-.079.2-.119.355-.119.157 0 .275.04.356.119.08.078.121.19.121.333v.722c0 .143-.04.254-.121.333-.082.079-.2.118-.356.118Zm0-.212c.083 0 .144-.02.184-.061.039-.041.059-.1.059-.178v-.722c0-.077-.02-.136-.059-.178-.04-.04-.1-.061-.184-.061-.084 0-.145.02-.184.061-.04.042-.059.1-.059.178v.722c0 .077.02.137.06.177.04.041.1.062.183.062Zm1.254.212c-.157 0-.275-.04-.356-.119a.443.443 0 0 1-.122-.332v-.722c0-.143.04-.254.122-.333.081-.079.2-.119.355-.119.157 0 .276.04.357.119.08.078.12.19.12.333v.722c0 .143-.04.254-.12.333-.082.079-.2.118-.357.118Zm0-.212c.082 0 .144-.02.183-.061.04-.041.06-.1.06-.178v-.722c0-.077-.02-.136-.06-.178-.038-.04-.1-.061-.183-.061-.084 0-.145.02-.184.061-.04.042-.06.1-.06.178v.722c0 .077.02.137.06.177.04.041.1.062.184.062ZM41.411 21.894c-.156 0-.275-.04-.356-.119a.443.443 0 0 1-.121-.332v-.722c0-.143.04-.254.122-.333.081-.079.2-.119.355-.119.157 0 .275.04.356.119.081.078.121.19.121.333v.722c0 .143-.04.254-.121.333-.081.079-.2.118-.356.118Zm0-.212c.083 0 .144-.02.184-.061.039-.041.059-.1.059-.178v-.722c0-.077-.02-.136-.059-.178-.04-.04-.1-.061-.184-.061-.084 0-.145.02-.184.061-.039.042-.059.1-.059.178v.722c0 .077.02.137.06.177.04.041.1.062.183.062Zm1.254.212c-.157 0-.275-.04-.356-.119a.443.443 0 0 1-.122-.332v-.722c0-.143.041-.254.122-.333.082-.079.2-.119.356-.119.156 0 .275.04.356.119.08.078.121.19.121.333v.722c0 .143-.04.254-.122.333-.08.079-.2.118-.355.118Zm0-.212c.083 0 .144-.02.184-.061.039-.041.058-.1.058-.178v-.722c0-.077-.019-.136-.058-.178-.04-.04-.1-.061-.184-.061-.084 0-.145.02-.184.061-.04.042-.059.1-.059.178v.722c0 .077.02.137.06.177.039.041.1.062.183.062Zm1.253.212c-.156 0-.274-.04-.355-.119a.443.443 0 0 1-.122-.332v-.722c0-.143.04-.254.122-.333.081-.079.2-.119.355-.119.157 0 .276.04.357.119.08.078.12.19.12.333v.722c0 .143-.04.254-.12.333-.082.079-.2.118-.357.118Zm0-.212c.083 0 .145-.02.184-.061.04-.041.059-.1.059-.178v-.722c0-.077-.02-.136-.059-.178-.039-.04-.1-.061-.184-.061-.083 0-.145.02-.183.061-.04.042-.06.1-.06.178v.722c0 .077.02.137.06.177.04.041.1.062.184.062Zm1.254.212c-.156 0-.275-.04-.356-.119a.443.443 0 0 1-.121-.332v-.722c0-.143.04-.254.122-.333.081-.079.2-.119.355-.119.157 0 .275.04.356.119.081.078.122.19.122.333v.722c0 .143-.041.254-.122.333-.081.079-.2.118-.356.118Zm0-.212c.083 0 .144-.02.184-.061.039-.041.059-.1.059-.178v-.722c0-.077-.02-.136-.059-.178-.04-.04-.1-.061-.184-.061-.084 0-.145.02-.184.061-.04.042-.059.1-.059.178v.722c0 .077.02.137.06.177.04.041.1.062.183.062Z"/><path fill="#fff" fill-rule="evenodd" d="M41.314 14.871c.56 0 1.055.271 1.354.686.219-.184.505-.296.817-.296.69 0 1.25.545 1.25 1.217s-.56 1.216-1.25 1.216c-.312 0-.598-.111-.817-.296a1.664 1.664 0 0 1-1.354.686c-.912 0-1.652-.719-1.652-1.606 0-.888.74-1.607 1.652-1.607Z" clip-rule="evenodd"/><path fill="#fff" d="M23.79 10.5h1.239v.27h-.905v.374h.448c.123 0 .226.014.307.044a.44.44 0 0 1 .208.163c.058.079.088.172.088.278 0 .11-.03.203-.088.28a.453.453 0 0 1-.199.16.913.913 0 0 1-.316.043h-.783v-1.613Zm.334 1.341h.326c.104 0 .177-.005.219-.014a.21.21 0 0 0 .11-.068.187.187 0 0 0 .047-.13c0-.075-.027-.13-.082-.163-.055-.034-.148-.052-.28-.052h-.34v.427ZM26.854 12.112h-.364l-.145-.367h-.663l-.136.367h-.356l.646-1.613h.354l.664 1.613Zm-.616-.638-.229-.598-.224.598h.453ZM27.034 12.112v-1.613h.335v.635h.656v-.635h.335v1.613h-.335v-.705h-.656v.705h-.335ZM28.712 10.5h.335v.686c.075-.008.125-.026.152-.056.026-.03.067-.114.122-.251.07-.175.139-.283.21-.326.069-.042.18-.064.335-.064h.049v.24h-.048a.335.335 0 0 0-.15.024.185.185 0 0 0-.077.075c-.02.034-.049.103-.087.208a.71.71 0 0 1-.067.14.331.331 0 0 1-.126.105c.075.02.137.062.185.125.049.062.102.15.16.264l.227.442h-.394l-.198-.417a2.266 2.266 0 0 1-.061-.11.476.476 0 0 0-.106-.149.22.22 0 0 0-.126-.03v.706h-.335v-1.613Z"/><path fill="#009A44" fill-rule="evenodd" d="m57.909 8.481-1.133 1.908c-1.806-1.067-4.946-1.397-7.645.622 3.397-.29 4.527.45 6.353 1.556l-1.193 2.009 5.468-.993-1.85-5.102Z" clip-rule="evenodd"/><path fill="#007FC6" d="M77.357 18.945H54.975c-.74 0-1.338.607-1.338 1.354v13.54c0 .747.599 1.353 1.338 1.353h22.382c.739 0 1.338-.606 1.338-1.354V20.3c0-.747-.599-1.354-1.338-1.354Z"/><path fill="#fff" fill-rule="evenodd" d="M57.98 26.952h-1.164v-.948h1.164v.948ZM58.047 24.973h2.323c.316 0 .574.25.574.558v.401h-1.233v3.057h-1.664v-4.016ZM57.98 28.99h-.59a.568.568 0 0 1-.574-.557v-.402h1.164v.96ZM57.39 24.973h.59v.96h-1.164v-.402c0-.307.258-.558.574-.558ZM57.98 27.968h-1.164v-.948h1.164v.948Z" clip-rule="evenodd"/><path fill="#fff" fill-rule="evenodd" d="M60.943 26.952H59.78v-.948h1.164v.948ZM60.943 27.968H59.78v-.948h1.164v.948ZM59.78 28.99h.59a.568.568 0 0 0 .573-.557v-.402H59.78v.96Z" clip-rule="evenodd"/><path fill="#fff" d="M55.505 32.199c-.157 0-.275-.04-.356-.12a.443.443 0 0 1-.122-.331v-.723c0-.142.041-.253.123-.332.08-.08.2-.119.355-.119.156 0 .275.04.356.118.08.08.121.19.121.334v.722c0 .142-.04.253-.121.332-.082.08-.2.119-.356.119Zm0-.212c.083 0 .144-.02.183-.062.04-.04.06-.1.06-.177v-.723c0-.077-.02-.136-.06-.177-.038-.041-.1-.061-.183-.061-.084 0-.145.02-.184.061-.04.041-.059.1-.059.178v.722c0 .077.02.136.06.177.039.041.1.062.183.062Zm1.253.212c-.156 0-.274-.04-.355-.12a.443.443 0 0 1-.122-.331v-.723c0-.142.04-.253.122-.332.081-.08.2-.119.355-.119.157 0 .276.04.356.118.082.08.122.19.122.334v.722c0 .142-.04.253-.122.332-.081.08-.2.119-.355.119Zm0-.212c.083 0 .145-.02.184-.062.04-.04.06-.1.06-.177v-.723c0-.077-.02-.136-.06-.177-.039-.041-.1-.061-.184-.061-.083 0-.144.02-.183.061-.04.041-.06.1-.06.178v.722c0 .077.02.136.06.177.04.041.1.062.183.062Zm1.254.212c-.156 0-.275-.04-.356-.12a.443.443 0 0 1-.121-.331v-.723c0-.142.04-.253.122-.332.081-.08.2-.119.355-.119.157 0 .275.04.356.118.081.08.122.19.122.334v.722c0 .142-.04.253-.122.332-.081.08-.2.119-.356.119Zm0-.212c.083 0 .144-.02.184-.062.04-.04.059-.1.059-.177v-.723c0-.077-.02-.136-.059-.177-.039-.041-.1-.061-.184-.061-.084 0-.145.02-.184.061-.039.041-.059.1-.059.178v.722c0 .077.02.136.06.177.04.041.1.062.183.062Zm1.254.212c-.157 0-.275-.04-.356-.12a.443.443 0 0 1-.122-.331v-.723c0-.142.041-.253.123-.332.08-.08.2-.119.355-.119.157 0 .275.04.356.118.08.08.121.19.121.334v.722c0 .142-.04.253-.122.332-.08.08-.2.119-.355.119Zm0-.212c.083 0 .144-.02.184-.062.039-.04.058-.1.058-.177v-.723c0-.077-.019-.136-.058-.177-.04-.041-.1-.061-.184-.061-.084 0-.145.02-.184.061-.04.041-.059.1-.059.178v.722c0 .077.02.136.06.177.04.041.1.062.183.062ZM61.356 32.199c-.156 0-.275-.04-.355-.12a.443.443 0 0 1-.122-.331v-.723c0-.142.04-.253.122-.332.081-.08.2-.119.355-.119.157 0 .276.04.356.118.081.08.122.19.122.334v.722c0 .142-.04.253-.122.332-.081.08-.2.119-.356.119Zm0-.212c.083 0 .144-.02.184-.062.04-.04.059-.1.059-.177v-.723c0-.077-.02-.136-.058-.177-.04-.041-.101-.061-.185-.061-.083 0-.145.02-.183.061-.04.041-.06.1-.06.178v.722c0 .077.02.136.06.177.04.041.1.062.183.062Zm1.254.212c-.156 0-.275-.04-.356-.12a.443.443 0 0 1-.121-.331v-.723c0-.142.04-.253.122-.332.08-.08.2-.119.355-.119.157 0 .275.04.356.118.081.08.121.19.121.334v.722c0 .142-.04.253-.121.332-.081.08-.2.119-.356.119Zm0-.212c.083 0 .144-.02.184-.062.039-.04.059-.1.059-.177v-.723c0-.077-.02-.136-.059-.177-.04-.041-.1-.061-.184-.061-.084 0-.145.02-.184.061-.039.041-.059.1-.059.178v.722c0 .077.02.136.06.177.04.041.1.062.183.062Zm1.254.212c-.157 0-.275-.04-.356-.12a.443.443 0 0 1-.122-.331v-.723c0-.142.041-.253.122-.332.082-.08.2-.119.356-.119.156 0 .275.04.356.118.08.08.121.19.121.334v.722c0 .142-.04.253-.122.332-.08.08-.2.119-.355.119Zm0-.212c.083 0 .144-.02.183-.062.04-.04.06-.1.06-.177v-.723c0-.077-.02-.136-.06-.177-.038-.041-.1-.061-.183-.061-.084 0-.145.02-.184.061-.04.041-.059.1-.059.178v.722c0 .077.02.136.06.177.039.041.1.062.183.062Zm1.253.212c-.156 0-.275-.04-.356-.12a.443.443 0 0 1-.121-.331v-.723c0-.142.04-.253.122-.332.081-.08.2-.119.355-.119.157 0 .275.04.356.118.081.08.122.19.122.334v.722c0 .142-.04.253-.122.332-.081.08-.2.119-.356.119Zm0-.212c.083 0 .144-.02.184-.062.04-.04.059-.1.059-.177v-.723c0-.077-.02-.136-.059-.177-.039-.041-.1-.061-.184-.061-.083 0-.145.02-.184.061-.039.041-.058.1-.058.178v.722c0 .077.02.136.059.177.04.041.1.062.183.062ZM67.21 32.199c-.156 0-.275-.04-.356-.12a.443.443 0 0 1-.122-.331v-.723c0-.142.041-.253.123-.332.08-.08.2-.119.355-.119.157 0 .275.04.356.118.08.08.121.19.121.334v.722c0 .142-.04.253-.121.332-.082.08-.2.119-.356.119Zm0-.212c.083 0 .144-.02.184-.062.039-.04.058-.1.058-.177v-.723c0-.077-.019-.136-.058-.177-.04-.041-.1-.061-.184-.061-.084 0-.145.02-.184.061-.04.041-.059.1-.059.178v.722c0 .077.02.136.06.177.04.041.1.062.183.062Zm1.254.212c-.157 0-.275-.04-.356-.12a.443.443 0 0 1-.122-.331v-.723c0-.142.041-.253.122-.332.081-.08.2-.119.356-.119.156 0 .275.04.356.118.08.08.121.19.121.334v.722c0 .142-.04.253-.122.332-.08.08-.2.119-.355.119Zm0-.212c.082 0 .144-.02.183-.062.04-.04.06-.1.06-.177v-.723c0-.077-.02-.136-.06-.177-.039-.041-.1-.061-.184-.061-.083 0-.144.02-.183.061-.04.041-.06.1-.06.178v.722c0 .077.02.136.06.177.04.041.1.062.184.062Zm1.253.212c-.156 0-.275-.04-.356-.12a.443.443 0 0 1-.121-.331v-.723c0-.142.04-.253.122-.332.081-.08.2-.119.355-.119.157 0 .275.04.356.118.081.08.122.19.122.334v.722c0 .142-.04.253-.122.332-.081.08-.2.119-.356.119Zm0-.212c.083 0 .144-.02.184-.062.04-.04.059-.1.059-.177v-.723c0-.077-.02-.136-.059-.177-.039-.041-.1-.061-.184-.061-.084 0-.145.02-.184.061-.039.041-.058.1-.058.178v.722c0 .077.019.136.059.177.04.041.1.062.183.062Zm1.254.212c-.156 0-.275-.04-.356-.12a.443.443 0 0 1-.122-.331v-.723c0-.142.041-.253.123-.332.08-.08.2-.119.355-.119.156 0 .275.04.356.118.08.08.121.19.121.334v.722c0 .142-.04.253-.121.332-.082.08-.2.119-.356.119Zm0-.212c.083 0 .144-.02.184-.062.039-.04.058-.1.058-.177v-.723c0-.077-.019-.136-.058-.177-.04-.041-.1-.061-.184-.061-.084 0-.145.02-.184.061-.04.041-.059.1-.059.178v.722c0 .077.02.136.06.177.04.041.1.062.183.062ZM73.065 32.199c-.156 0-.275-.04-.355-.12a.443.443 0 0 1-.122-.331v-.723c0-.142.04-.253.122-.332.081-.08.2-.119.355-.119.157 0 .276.04.356.118.081.08.122.19.122.334v.722c0 .142-.04.253-.122.332-.081.08-.2.119-.356.119Zm0-.212c.083 0 .144-.02.184-.062.04-.04.059-.1.059-.177v-.723c0-.077-.02-.136-.059-.177-.039-.041-.1-.061-.184-.061-.083 0-.145.02-.183.061-.04.041-.06.1-.06.178v.722c0 .077.02.136.06.177.04.041.1.062.183.062Zm1.254.212c-.156 0-.275-.04-.356-.12a.443.443 0 0 1-.121-.331v-.723c0-.142.04-.253.122-.332.08-.08.2-.119.355-.119.157 0 .275.04.356.118.08.08.121.19.121.334v.722c0 .142-.04.253-.121.332-.081.08-.2.119-.356.119Zm0-.212c.083 0 .144-.02.184-.062.039-.04.059-.1.059-.177v-.723c0-.077-.02-.136-.059-.177-.04-.041-.1-.061-.184-.061-.084 0-.145.02-.184.061-.039.041-.059.1-.059.178v.722c0 .077.02.136.06.177.04.041.1.062.183.062Zm1.254.212c-.157 0-.275-.04-.356-.12a.443.443 0 0 1-.122-.331v-.723c0-.142.041-.253.122-.332.082-.08.2-.119.356-.119.156 0 .275.04.356.118.08.08.121.19.121.334v.722c0 .142-.04.253-.122.332-.08.08-.2.119-.355.119Zm0-.212c.083 0 .144-.02.183-.062.04-.04.06-.1.06-.177v-.723c0-.077-.02-.136-.06-.177-.038-.041-.1-.061-.183-.061-.084 0-.145.02-.184.061-.04.041-.059.1-.059.178v.722c0 .077.02.136.06.177.039.041.1.062.183.062Zm1.253.212c-.156 0-.274-.04-.355-.12a.443.443 0 0 1-.122-.331v-.723c0-.142.04-.253.122-.332.081-.08.2-.119.355-.119.157 0 .276.04.357.118.08.08.12.19.12.334v.722c0 .142-.04.253-.12.332-.082.08-.2.119-.357.119Zm0-.212c.083 0 .144-.02.184-.062.04-.04.059-.1.059-.177v-.723c0-.077-.02-.136-.059-.177-.039-.041-.1-.061-.184-.061-.083 0-.145.02-.183.061-.04.041-.06.1-.06.178v.722c0 .077.02.136.06.177.04.041.1.062.183.062Z"/><path fill="#fff" fill-rule="evenodd" d="M72.965 25.184c.56 0 1.054.27 1.353.685.22-.184.505-.295.817-.295.691 0 1.251.544 1.251 1.216 0 .672-.56 1.217-1.25 1.217-.313 0-.599-.112-.818-.296a1.664 1.664 0 0 1-1.353.686c-.913 0-1.653-.72-1.653-1.607s.74-1.606 1.653-1.606Z" clip-rule="evenodd"/><path fill="#fff" d="M55.443 20.812h1.24v.27h-.905v.374h.448c.124 0 .226.015.308.044a.44.44 0 0 1 .208.163c.058.08.087.172.087.278 0 .11-.03.203-.087.28a.453.453 0 0 1-.2.16.913.913 0 0 1-.316.043h-.783v-1.612Zm.335 1.342h.326c.104 0 .177-.005.22-.015a.21.21 0 0 0 .109-.068.187.187 0 0 0 .047-.13c0-.074-.027-.129-.082-.162-.054-.035-.148-.052-.28-.052h-.34v.427ZM58.508 22.424h-.364L58 22.058h-.662l-.137.366h-.355l.645-1.612h.354l.664 1.612Zm-.616-.638-.229-.598-.223.598h.452ZM58.688 22.424v-1.612h.335v.634h.656v-.634h.335v1.612h-.335v-.705h-.656v.705h-.335ZM60.367 20.812h.334v.686c.075-.007.126-.026.152-.056.026-.03.067-.114.122-.25.07-.175.14-.284.21-.326.069-.043.18-.064.335-.064l.049-.001v.24h-.048a.335.335 0 0 0-.15.025.185.185 0 0 0-.077.075c-.02.033-.048.103-.087.208a.71.71 0 0 1-.067.14.331.331 0 0 1-.125.105c.074.02.136.062.184.124.05.063.103.15.16.264l.227.442h-.394l-.198-.417a2.266 2.266 0 0 1-.061-.11.476.476 0 0 0-.106-.148.22.22 0 0 0-.126-.03v.705h-.334v-1.612Z"/><path fill="#007FC6" fill-rule="evenodd" d="m42.428 35.015 1.133-1.907c1.806 1.067 4.947 1.397 7.645-.622-3.397.29-4.527-.451-6.352-1.556l1.192-2.009-5.468.993 1.85 5.102Z" clip-rule="evenodd"/><path fill="#fff" d="M89.028 17.773h-3.452v8.16h1.558v-2.355h1.894c2.206 0 3.572-1.107 3.572-2.903 0-1.806-1.366-2.902-3.572-2.902Zm-.072 4.523h-1.822v-3.24h1.822c1.367 0 2.074.594 2.074 1.62 0 1.025-.707 1.62-2.074 1.62ZM95.737 24.65l2.241-2.074c1.163-1.061 1.39-1.784 1.39-2.577 0-1.445-1.174-2.343-2.996-2.343-1.378 0-2.541.502-3.188 1.352l1.09.816c.468-.582 1.151-.85 1.966-.85 1.031 0 1.558.43 1.558 1.177 0 .454-.144.932-.959 1.69l-3.332 3.078v1.014h6.185V24.65h-3.955ZM104.643 17.773h-3.452v8.16h1.558v-2.355h1.894c2.205 0 3.572-1.107 3.572-2.903 0-1.806-1.367-2.902-3.572-2.902Zm-.072 4.523h-1.822v-3.24h1.822c1.366 0 2.073.594 2.073 1.62 0 1.025-.707 1.62-2.073 1.62Z"/></svg>