<svg width="51" height="27" viewBox="0 0 51 27" fill="none" xmlns="http://www.w3.org/2000/svg">
<path d="M30.6178 10.2509C29.5573 10.2509 28.7153 9.96208 28.0917 9.38453C27.4681 8.80413 27.1562 7.98927 27.1562 6.93997C27.1562 5.92783 27.4681 5.12155 28.0917 4.52113C28.7184 3.91785 29.5621 3.61621 30.6225 3.61621C30.9043 3.61621 31.1575 3.63051 31.3822 3.6591C31.607 3.68769 31.8223 3.72772 32.028 3.77918C32.1895 3.82207 32.3651 3.88068 32.5551 3.95502C32.745 4.02936 32.8985 4.09369 33.0157 4.14801V5.67051H32.8352C32.7498 5.60189 32.6421 5.5204 32.5123 5.42605C32.3826 5.32884 32.2354 5.23449 32.0708 5.14299C31.9061 5.0515 31.7241 4.9743 31.5247 4.9114C31.3284 4.84564 31.1227 4.81276 30.9074 4.81276C30.651 4.81276 30.4152 4.84993 30.1999 4.92427C29.9878 4.99575 29.7852 5.12155 29.5921 5.30168C29.4149 5.46465 29.2692 5.6848 29.1553 5.96214C29.0445 6.23948 28.9891 6.56685 28.9891 6.94425C28.9891 7.34168 29.0477 7.6762 29.1648 7.94781C29.2819 8.21657 29.4354 8.43387 29.6254 8.5997C29.809 8.75981 30.0132 8.87561 30.2379 8.94708C30.4658 9.01856 30.6922 9.0543 30.9169 9.0543C31.1512 9.0543 31.3743 9.01999 31.5864 8.95137C31.7985 8.87989 31.9774 8.80127 32.123 8.71549C32.2813 8.62686 32.4205 8.5368 32.5408 8.4453C32.6611 8.35381 32.7656 8.27233 32.8542 8.20085H33.0157V9.7019C32.8859 9.75622 32.7355 9.81912 32.5646 9.8906C32.3936 9.95922 32.2179 10.0178 32.0375 10.0664C31.8159 10.1265 31.6086 10.1722 31.4155 10.2037C31.2224 10.2351 30.9565 10.2509 30.6178 10.2509Z" fill="white"/>
<path d="M39.7393 8.08505C39.7393 8.3967 39.6728 8.68404 39.5398 8.94708C39.4101 9.20727 39.2312 9.42027 39.0033 9.5861C38.7311 9.78338 38.4367 9.92348 38.1201 10.0064C37.8067 10.0865 37.4237 10.1265 36.971 10.1265H34.065V3.74058H39.2027V4.95858H35.8314V6.13798H36.9995C37.4237 6.13798 37.8035 6.16657 38.1391 6.22375C38.4746 6.27807 38.7754 6.39959 39.0413 6.58829C39.285 6.75984 39.4623 6.9757 39.5731 7.23589C39.6839 7.49321 39.7393 7.77627 39.7393 8.08505ZM37.9064 8.13223C37.9064 8.02644 37.8938 7.92637 37.8684 7.83202C37.8431 7.73767 37.7877 7.65046 37.7022 7.57041C37.6168 7.49321 37.4997 7.43174 37.3509 7.38599C37.2021 7.34025 36.9963 7.31737 36.7336 7.31737H35.8314V8.9428H36.7336C37.0976 8.9428 37.3841 8.87275 37.593 8.73265C37.802 8.59255 37.9064 8.39241 37.9064 8.13223Z" fill="white"/>
<path d="M46.7098 10.1265H44.9339V4.95858H42.517V10.1265H40.7412V3.74058H46.7098V10.1265Z" fill="white"/>
<path d="M29.5393 15.3702H28.829V13.3031H27.8622V15.3702H27.1519V12.8159H29.5393V15.3702Z" fill="white"/>
<path d="M30.1262 15.3702V12.8159H32.0388V13.3031H30.8328V13.7508H31.9439V14.238H30.8328V14.883H32.0388V15.3702H30.1262Z" fill="white"/>
<path d="M34.696 13.6222C34.696 13.7411 34.6751 13.8543 34.6333 13.9618C34.5915 14.0693 34.5314 14.1591 34.4529 14.2312C34.4048 14.2758 34.3516 14.3169 34.2933 14.3547C34.2364 14.3924 34.173 14.4244 34.1034 14.4507C34.0338 14.477 33.9578 14.4976 33.8755 14.5125C33.7944 14.5274 33.7033 14.5348 33.602 14.5348H33.2297V15.3702H32.5194V12.8159H33.6172C33.7805 12.8159 33.9211 12.8296 34.0388 12.857C34.1578 12.8834 34.2655 12.9257 34.3617 12.984C34.4681 13.048 34.5504 13.1338 34.6086 13.2413C34.6669 13.3477 34.696 13.4746 34.696 13.6222ZM33.9666 13.6376C33.9666 13.5655 33.9477 13.5038 33.9097 13.4523C33.8717 13.3997 33.8261 13.3637 33.7729 13.3442C33.7058 13.3179 33.6412 13.3031 33.5792 13.2996C33.5184 13.2951 33.4355 13.2928 33.3304 13.2928H33.2297V14.0579H33.2791C33.3462 14.0579 33.4095 14.0573 33.469 14.0562C33.5285 14.055 33.5805 14.051 33.6248 14.0442C33.6628 14.0384 33.7026 14.0276 33.7444 14.0116C33.7875 13.9944 33.8204 13.9755 33.8432 13.955C33.8913 13.9126 33.9236 13.8686 33.9401 13.8229C33.9578 13.7771 33.9666 13.7154 33.9666 13.6376Z" fill="white"/>
<path d="M35.0759 15.3702V12.8159H36.9885V13.3031H35.7824V13.7508H36.8935V14.238H35.7824V14.883H36.9885V15.3702H35.0759Z" fill="white"/>
<path d="M39.7311 14.588C39.7311 14.7149 39.7045 14.8264 39.6513 14.9225C39.5981 15.0186 39.5266 15.098 39.4367 15.1609C39.3303 15.2364 39.2132 15.2902 39.0853 15.3222C38.9587 15.3542 38.7973 15.3702 38.601 15.3702H37.469V12.8159H38.468C38.6757 12.8159 38.8327 12.8233 38.9391 12.8382C39.0467 12.8519 39.1474 12.8816 39.2411 12.9274C39.3424 12.9766 39.4177 13.0423 39.4671 13.1247C39.5177 13.207 39.5431 13.3019 39.5431 13.4094C39.5431 13.5341 39.5082 13.645 39.4386 13.7422C39.3702 13.8394 39.2753 13.9109 39.1537 13.9567V13.9704C39.3284 14.0036 39.4684 14.0716 39.5735 14.1745C39.6786 14.2763 39.7311 14.4141 39.7311 14.588ZM38.8213 13.5381C38.8213 13.4969 38.8093 13.4546 38.7852 13.4111C38.7624 13.3677 38.7264 13.3362 38.677 13.3168C38.6301 13.2985 38.5744 13.2888 38.5098 13.2876C38.4465 13.2853 38.3516 13.2842 38.2249 13.2842H38.1756V13.8246H38.2648C38.3864 13.8246 38.4712 13.8234 38.5193 13.8212C38.5687 13.8189 38.6194 13.8069 38.6713 13.7851C38.7283 13.7611 38.7675 13.7279 38.789 13.6856C38.8106 13.6433 38.8213 13.5941 38.8213 13.5381ZM38.9999 14.576C38.9999 14.4971 38.9821 14.4353 38.9467 14.3907C38.9112 14.3461 38.858 14.3124 38.7871 14.2895C38.7441 14.2746 38.6846 14.2666 38.6086 14.2655C38.5339 14.2632 38.4332 14.262 38.3066 14.262H38.1756V14.9019H38.2135C38.3984 14.9019 38.5263 14.9008 38.5972 14.8985C38.6681 14.8962 38.7403 14.8807 38.8137 14.8522C38.8783 14.827 38.9252 14.7904 38.9543 14.7424C38.9847 14.6932 38.9999 14.6377 38.9999 14.576Z" fill="white"/>
<path d="M42.7149 14.0939C42.7149 14.5068 42.5927 14.8316 42.3484 15.0683C42.104 15.305 41.7691 15.4234 41.3436 15.4234C40.9169 15.4234 40.582 15.3039 40.3389 15.0649C40.0958 14.8247 39.9742 14.5011 39.9742 14.0939C39.9742 13.6833 40.0958 13.3591 40.3389 13.1212C40.582 12.8822 40.9169 12.7627 41.3436 12.7627C41.7691 12.7627 42.104 12.8816 42.3484 13.1195C42.5927 13.3563 42.7149 13.6811 42.7149 14.0939ZM41.9818 14.0922C41.9818 13.9401 41.9641 13.8109 41.9286 13.7045C41.8944 13.597 41.8482 13.5089 41.79 13.4403C41.7292 13.3705 41.6602 13.3208 41.5829 13.2911C41.507 13.2602 41.4278 13.2447 41.3455 13.2447C41.2582 13.2447 41.179 13.259 41.1081 13.2876C41.0372 13.3151 40.9688 13.3648 40.903 13.4369C40.8447 13.5032 40.7973 13.5913 40.7605 13.7011C40.7251 13.8109 40.7074 13.9418 40.7074 14.0939C40.7074 14.2506 40.7244 14.381 40.7586 14.485C40.7928 14.588 40.8397 14.6743 40.8992 14.7441C40.96 14.815 41.029 14.8659 41.1062 14.8968C41.1834 14.9265 41.2632 14.9414 41.3455 14.9414C41.4291 14.9414 41.5101 14.9254 41.5886 14.8933C41.6671 14.8602 41.7349 14.8093 41.7919 14.7407C41.8526 14.6663 41.8995 14.58 41.9324 14.4816C41.9653 14.3821 41.9818 14.2523 41.9818 14.0922Z" fill="white"/>
<path d="M45.7501 15.9569H45.0986V15.3617H43.5184V15.9569H42.8669V14.8813H43.0568C43.1898 14.632 43.2949 14.3289 43.3721 13.9721C43.4493 13.6141 43.488 13.2287 43.488 12.8159H45.4823V14.8813H45.7501V15.9569ZM44.7719 14.8813V13.3031H44.1527C44.1287 13.6119 44.0812 13.9018 44.0103 14.1728C43.9394 14.4427 43.8501 14.6789 43.7425 14.8813H44.7719Z" fill="white"/>
<path d="M29.5393 19.3058H28.829V17.2387H27.8622V19.3058H27.1519V16.7515H29.5393V19.3058Z" fill="white"/>
<path d="M32.7017 18.0295C32.7017 18.4424 32.5795 18.7672 32.3351 19.0039C32.0907 19.2406 31.7558 19.359 31.3304 19.359C30.9037 19.359 30.5688 19.2395 30.3256 19.0005C30.0825 18.7603 29.961 18.4366 29.961 18.0295C29.961 17.6189 30.0825 17.2947 30.3256 17.0568C30.5688 16.8178 30.9037 16.6983 31.3304 16.6983C31.7558 16.6983 32.0907 16.8172 32.3351 17.0551C32.5795 17.2918 32.7017 17.6166 32.7017 18.0295ZM31.9686 18.0278C31.9686 17.8757 31.9508 17.7464 31.9154 17.6401C31.8812 17.5326 31.835 17.4445 31.7767 17.3759C31.7159 17.3061 31.6469 17.2564 31.5697 17.2267C31.4937 17.1958 31.4146 17.1803 31.3323 17.1803C31.2449 17.1803 31.1658 17.1946 31.0949 17.2232C31.024 17.2507 30.9556 17.3004 30.8897 17.3725C30.8315 17.4388 30.784 17.5269 30.7473 17.6367C30.7118 17.7464 30.6941 17.8774 30.6941 18.0295C30.6941 18.1862 30.7112 18.3166 30.7454 18.4206C30.7796 18.5236 30.8264 18.6099 30.8859 18.6797C30.9467 18.7506 31.0157 18.8015 31.093 18.8323C31.1702 18.8621 31.25 18.8769 31.3323 18.8769C31.4159 18.8769 31.4969 18.8609 31.5754 18.8289C31.6539 18.7958 31.7216 18.7449 31.7786 18.6762C31.8394 18.6019 31.8863 18.5156 31.9192 18.4172C31.9521 18.3177 31.9686 18.1879 31.9686 18.0278Z" fill="white"/>
<path d="M36.6504 19.3058H35.94V18.1736H34.9733V19.3058H34.2629V16.7515H34.9733V17.6864H35.94V16.7515H36.6504V19.3058Z" fill="white"/>
<path d="M39.8128 18.0295C39.8128 18.4424 39.6906 18.7672 39.4462 19.0039C39.2018 19.2406 38.8669 19.359 38.4415 19.359C38.0147 19.359 37.6798 19.2395 37.4367 19.0005C37.1936 18.7603 37.072 18.4366 37.072 18.0295C37.072 17.6189 37.1936 17.2947 37.4367 17.0568C37.6798 16.8178 38.0147 16.6983 38.4415 16.6983C38.8669 16.6983 39.2018 16.8172 39.4462 17.0551C39.6906 17.2918 39.8128 17.6166 39.8128 18.0295ZM39.0796 18.0278C39.0796 17.8757 39.0619 17.7464 39.0264 17.6401C38.9923 17.5326 38.946 17.4445 38.8878 17.3759C38.827 17.3061 38.758 17.2564 38.6808 17.2267C38.6048 17.1958 38.5257 17.1803 38.4434 17.1803C38.356 17.1803 38.2768 17.1946 38.2059 17.2232C38.135 17.2507 38.0667 17.3004 38.0008 17.3725C37.9426 17.4388 37.8951 17.5269 37.8584 17.6367C37.8229 17.7464 37.8052 17.8774 37.8052 18.0295C37.8052 18.1862 37.8223 18.3166 37.8565 18.4206C37.8907 18.5236 37.9375 18.6099 37.997 18.6797C38.0578 18.7506 38.1268 18.8015 38.204 18.8323C38.2813 18.8621 38.3611 18.8769 38.4434 18.8769C38.5269 18.8769 38.608 18.8609 38.6865 18.8289C38.765 18.7958 38.8327 18.7449 38.8897 18.6762C38.9505 18.6019 38.9973 18.5156 39.0302 18.4172C39.0632 18.3177 39.0796 18.1879 39.0796 18.0278Z" fill="white"/>
<path d="M43.1233 19.3058H42.4167V17.6126L41.902 18.7054H41.4177L40.903 17.6126V19.3058H40.2344V16.7515H41.053L41.6798 18.0123L42.3047 16.7515H43.1233V19.3058Z" fill="white"/>
<path d="M43.7102 19.3058V16.7515H45.6228V17.2387H44.4167V17.6864H45.5278V18.1736H44.4167V18.8186H45.6228V19.3058H43.7102Z" fill="white"/>
<path d="M48.28 17.5577C48.28 17.6767 48.2591 17.7899 48.2173 17.8974C48.1755 18.0049 48.1153 18.0947 48.0368 18.1667C47.9887 18.2113 47.9355 18.2525 47.8773 18.2903C47.8203 18.328 47.757 18.36 47.6874 18.3863C47.6177 18.4126 47.5418 18.4332 47.4594 18.4481C47.3784 18.4629 47.2872 18.4704 47.1859 18.4704H46.8137V19.3058H46.1033V16.7515H47.2011C47.3645 16.7515 47.505 16.7652 47.6228 16.7926C47.7418 16.8189 47.8494 16.8613 47.9457 16.9196C48.052 16.9836 48.1343 17.0694 48.1926 17.1769C48.2508 17.2833 48.28 17.4102 48.28 17.5577ZM47.5506 17.5732C47.5506 17.5011 47.5316 17.4394 47.4936 17.3879C47.4557 17.3353 47.4101 17.2993 47.3569 17.2798C47.2898 17.2535 47.2252 17.2387 47.1632 17.2352C47.1024 17.2307 47.0194 17.2284 46.9143 17.2284H46.8137V17.9935H46.8631C46.9302 17.9935 46.9935 17.9929 47.053 17.9918C47.1125 17.9906 47.1644 17.9866 47.2087 17.9798C47.2467 17.974 47.2866 17.9632 47.3284 17.9472C47.3714 17.93 47.4044 17.9111 47.4272 17.8905C47.4753 17.8482 47.5076 17.8042 47.524 17.7585C47.5418 17.7127 47.5506 17.6509 47.5506 17.5732Z" fill="white"/>
<path d="M50.996 16.7515L50.052 18.7946C49.9963 18.9135 49.9336 19.0073 49.864 19.0759C49.7956 19.1446 49.7234 19.1966 49.6475 19.2321C49.5715 19.2675 49.4955 19.2915 49.4196 19.3041C49.3436 19.3155 49.2638 19.3213 49.1802 19.3213C49.0929 19.3213 48.9909 19.3195 48.8744 19.3161C48.7592 19.3127 48.682 19.3093 48.6427 19.3058V18.7637H48.6864C48.6978 18.766 48.7155 18.7689 48.7396 18.7723C48.7637 18.7757 48.794 18.7792 48.8308 18.7826C48.8612 18.7849 48.8941 18.7872 48.9295 18.7895C48.965 18.7917 48.9973 18.7929 49.0264 18.7929C49.1112 18.7929 49.191 18.7837 49.2657 18.7654C49.3417 18.746 49.3923 18.7134 49.4177 18.6677L48.3711 16.7515H49.1385L49.7443 17.9489L50.2572 16.7515H50.996Z" fill="white"/>
<path d="M27.6951 23.2414V21.1743H26.8594V20.6871H29.2411V21.1743H28.4054V23.2414H27.6951Z" fill="white"/>
<path d="M29.5336 23.2414V20.6871H31.4462V21.1743H30.2402V21.622H31.3513V22.1092H30.2402V22.7542H31.4462V23.2414H29.5336Z" fill="white"/>
<path d="M34.3617 23.2414H33.6514V21.1743H32.9372C32.9321 21.2738 32.9271 21.367 32.922 21.4539C32.9182 21.5397 32.9138 21.6214 32.9087 21.6992C32.8948 21.9222 32.872 22.1149 32.8403 22.2773C32.8087 22.4386 32.7726 22.5707 32.7321 22.6736C32.6878 22.7834 32.6428 22.8697 32.5972 22.9326C32.5517 22.9955 32.5086 23.0453 32.4681 23.0819C32.4073 23.1368 32.3313 23.1802 32.2402 23.2123C32.149 23.2431 32.0591 23.2586 31.9705 23.2586C31.9109 23.2586 31.8457 23.2563 31.7748 23.2517C31.7039 23.2471 31.659 23.2437 31.64 23.2414V22.677H31.6666C31.6792 22.6782 31.6913 22.6793 31.7027 22.6805C31.7153 22.6816 31.7311 22.6822 31.7501 22.6822C31.7818 22.6822 31.8223 22.6776 31.8717 22.6684C31.9211 22.6593 31.9584 22.6439 31.9838 22.6221C32.0749 22.5444 32.137 22.4243 32.1699 22.2619C32.2041 22.0983 32.23 21.8627 32.2478 21.5551C32.2554 21.4144 32.2598 21.2881 32.2611 21.176C32.2636 21.0639 32.2687 20.9009 32.2762 20.6871H34.3617V23.2414Z" fill="white"/>
<path d="M34.9467 23.2414V20.6871H36.8593V21.1743H35.6532V21.622H36.7644V22.1092H35.6532V22.7542H36.8593V23.2414H34.9467Z" fill="white"/>
<path d="M40.3503 21.9445C40.3503 22.2522 40.2351 22.4958 40.0046 22.6753C39.7741 22.8537 39.4747 22.9572 39.1062 22.9858V23.262H38.3997V22.9858C38.0312 22.9572 37.7317 22.8549 37.5013 22.6787C37.2708 22.5015 37.1556 22.2567 37.1556 21.9445C37.1556 21.6334 37.2677 21.3921 37.4918 21.2206C37.7159 21.049 38.0185 20.9484 38.3997 20.9187V20.6613H39.1062V20.9187C39.476 20.9427 39.7754 21.0416 40.0046 21.2154C40.2351 21.3881 40.3503 21.6312 40.3503 21.9445ZM39.6209 21.9342C39.6209 21.773 39.5754 21.6414 39.4842 21.5397C39.393 21.4367 39.267 21.3721 39.1062 21.3458V22.5604C39.2924 22.5238 39.4247 22.4546 39.5032 22.3528C39.5817 22.2499 39.6209 22.1103 39.6209 21.9342ZM38.3997 22.5604V21.3458C38.2325 21.3733 38.1046 21.4384 38.016 21.5414C37.9286 21.6432 37.885 21.7741 37.885 21.9342C37.885 22.1081 37.9261 22.2476 38.0084 22.3528C38.0907 22.4569 38.2211 22.5261 38.3997 22.5604Z" fill="white"/>
<path d="M43.3265 21.9651C43.3265 22.378 43.2043 22.7028 42.9599 22.9395C42.7156 23.1762 42.3807 23.2946 41.9552 23.2946C41.5285 23.2946 41.1936 23.1751 40.9505 22.9361C40.7074 22.6959 40.5858 22.3722 40.5858 21.9651C40.5858 21.5545 40.7074 21.2303 40.9505 20.9924C41.1936 20.7534 41.5285 20.6339 41.9552 20.6339C42.3807 20.6339 42.7156 20.7528 42.9599 20.9907C43.2043 21.2274 43.3265 21.5522 43.3265 21.9651ZM42.5934 21.9634C42.5934 21.8113 42.5757 21.682 42.5402 21.5757C42.506 21.4682 42.4598 21.3801 42.4015 21.3115C42.3408 21.2417 42.2718 21.192 42.1945 21.1623C42.1185 21.1314 42.0394 21.1159 41.9571 21.1159C41.8697 21.1159 41.7906 21.1302 41.7197 21.1588C41.6488 21.1863 41.5804 21.236 41.5146 21.3081C41.4563 21.3744 41.4088 21.4625 41.3721 21.5723C41.3367 21.682 41.3189 21.813 41.3189 21.9651C41.3189 22.1218 41.336 22.2522 41.3702 22.3562C41.4044 22.4592 41.4513 22.5455 41.5108 22.6153C41.5715 22.6862 41.6406 22.7371 41.7178 22.7679C41.795 22.7977 41.8748 22.8126 41.9571 22.8126C42.0407 22.8126 42.1217 22.7965 42.2002 22.7645C42.2787 22.7313 42.3465 22.6805 42.4034 22.6118C42.4642 22.5375 42.5111 22.4512 42.544 22.3528C42.5769 22.2533 42.5934 22.1235 42.5934 21.9634Z" fill="white"/>
<path d="M46.1356 23.2414H45.4253V22.1092H44.4585V23.2414H43.7482V20.6871H44.4585V21.622H45.4253V20.6871H46.1356V23.2414Z" fill="white"/>
<path d="M46.4186 23.2414L47.374 20.6871H48.1489L49.1043 23.2414H48.373L48.1964 22.7199H47.3075L47.1309 23.2414H46.4186ZM48.0406 22.2567L47.7519 21.4144L47.4633 22.2567H48.0406Z" fill="white"/>
<path fill-rule="evenodd" clip-rule="evenodd" d="M10.8438 26.9991L24.9445 19.5771L18.0578 19.4463L14.6851 21.268L10.8438 26.9991Z" fill="#027E35"/>
<path fill-rule="evenodd" clip-rule="evenodd" d="M1.02344 5.76172L24.9521 19.5791L18.0654 19.4483L4.4939 11.6303L1.02344 5.76172Z" fill="#2683C9"/>
<path fill-rule="evenodd" clip-rule="evenodd" d="M1.00793 5.76172L0.726562 20.7881L4.41337 15.1332L4.4784 11.6303L1.00793 5.76172Z" fill="#5A58A3"/>
<path fill-rule="evenodd" clip-rule="evenodd" d="M11.0756 15.4332L0.726562 20.7907L4.41337 15.1358L7.66533 13.4688L11.0756 15.4332Z" fill="#964A95"/>
<path fill-rule="evenodd" clip-rule="evenodd" d="M10.8438 27.0002L11.0835 15.4297L14.7572 17.5461L14.6851 21.2691L10.8438 27.0002Z" fill="#62B22F"/>
<path fill-rule="evenodd" clip-rule="evenodd" d="M11.4297 0L25.2051 8.03943L18.2546 7.90423L14.9791 6.08249L11.4297 0Z" fill="#EE7024"/>
<path fill-rule="evenodd" clip-rule="evenodd" d="M11.4319 0L11.1562 11.6211L14.7103 13.6734L14.9812 6.08249L11.4319 0Z" fill="#FAB51A"/>
<path fill-rule="evenodd" clip-rule="evenodd" d="M14.7031 13.6744L25.2001 8.04048L18.2496 7.90527L14.8822 9.7179L14.7031 13.6744Z" fill="#DB0954"/>
</svg>
