<svg width="98" height="29" viewBox="0 0 98 29" fill="none" xmlns="http://www.w3.org/2000/svg">
<path d="M78.528 11.4253C77.5142 11.4253 76.7092 11.1385 76.113 10.565C75.5168 9.98865 75.2188 9.17948 75.2188 8.13749C75.2188 7.13241 75.5168 6.33175 76.113 5.73552C76.7122 5.13645 77.5187 4.83691 78.5325 4.83691C78.8019 4.83691 79.044 4.85111 79.2588 4.8795C79.4737 4.90789 79.6795 4.94764 79.8762 4.99875C80.0305 5.04134 80.1985 5.09954 80.3801 5.17336C80.5616 5.24718 80.7084 5.31106 80.8204 5.36501V6.87688H80.6479C80.5662 6.80874 80.4633 6.72782 80.3392 6.63413C80.2151 6.5376 80.0744 6.4439 79.917 6.35305C79.7597 6.26219 79.5857 6.18554 79.395 6.12307C79.2074 6.05777 79.0107 6.02512 78.8049 6.02512C78.5598 6.02512 78.3343 6.06203 78.1285 6.13585C77.9257 6.20683 77.7321 6.33175 77.5475 6.51062C77.378 6.67246 77.2388 6.89108 77.1298 7.16648C77.0239 7.44188 76.971 7.76697 76.971 8.14175C76.971 8.5364 77.0269 8.86858 77.1389 9.13831C77.2509 9.40519 77.3977 9.62097 77.5792 9.78565C77.7548 9.94464 77.95 10.0596 78.1648 10.1306C78.3827 10.2016 78.5991 10.2371 78.814 10.2371C79.0379 10.2371 79.2513 10.203 79.454 10.1349C79.6568 10.0639 79.8278 9.98581 79.967 9.90063C80.1183 9.81262 80.2514 9.72318 80.3664 9.63233C80.4814 9.54148 80.5813 9.46056 80.666 9.38958H80.8204V10.8802C80.6963 10.9341 80.5526 10.9966 80.3891 11.0675C80.2257 11.1357 80.0578 11.1939 79.8853 11.2422C79.6734 11.3018 79.4752 11.3472 79.2906 11.3784C79.106 11.4097 78.8518 11.4253 78.528 11.4253Z" fill="white"/>
<path d="M87.2482 9.27459C87.2482 9.58406 87.1846 9.8694 87.0575 10.1306C86.9334 10.389 86.7625 10.6005 86.5446 10.7652C86.2843 10.9611 86.0029 11.1002 85.7002 11.1825C85.4006 11.262 85.0345 11.3018 84.6017 11.3018H81.8236V4.96042H86.7352V6.16992H83.5122V7.34109H84.6289C85.0345 7.34109 85.3976 7.36948 85.7184 7.42627C86.0392 7.48021 86.3267 7.60088 86.5809 7.78827C86.8139 7.95862 86.9834 8.17298 87.0893 8.43135C87.1952 8.68687 87.2482 8.96796 87.2482 9.27459ZM85.496 9.32144C85.496 9.21639 85.4839 9.11701 85.4596 9.02332C85.4354 8.92963 85.3825 8.84303 85.3008 8.76353C85.2191 8.68687 85.1071 8.62583 84.9649 8.5804C84.8226 8.53498 84.6259 8.51226 84.3747 8.51226H83.5122V10.1264H84.3747C84.7228 10.1264 84.9966 10.0568 85.1964 9.91767C85.3961 9.77855 85.496 9.5798 85.496 9.32144Z" fill="white"/>
<path d="M93.912 11.3018H92.2143V6.16992H89.9037V11.3018H88.206V4.96042H93.912V11.3018Z" fill="white"/>
<path d="M77.4761 16.5093H76.797V14.4565H75.8728V16.5093H75.1937V13.9727H77.4761V16.5093Z" fill="white"/>
<path d="M78.0372 16.5093V13.9727H79.8656V14.4565H78.7126V14.9012H79.7749V15.385H78.7126V16.0255H79.8656V16.5093H78.0372Z" fill="white"/>
<path d="M82.4059 14.7734C82.4059 14.8915 82.3859 15.0039 82.346 15.1107C82.306 15.2174 82.2485 15.3066 82.1735 15.3781C82.1275 15.4224 82.0766 15.4633 82.021 15.5008C81.9665 15.5383 81.906 15.5701 81.8394 15.5962C81.7728 15.6223 81.7002 15.6428 81.6215 15.6575C81.544 15.6723 81.4569 15.6797 81.36 15.6797H81.0041V16.5093H80.325V13.9727H81.3745C81.5307 13.9727 81.6651 13.9864 81.7776 14.0136C81.8914 14.0397 81.9943 14.0818 82.0863 14.1397C82.188 14.2033 82.2667 14.2885 82.3224 14.3952C82.3781 14.5008 82.4059 14.6269 82.4059 14.7734ZM81.7086 14.7887C81.7086 14.7172 81.6905 14.6558 81.6542 14.6047C81.6179 14.5525 81.5743 14.5167 81.5234 14.4974C81.4593 14.4713 81.3975 14.4565 81.3382 14.4531C81.2801 14.4486 81.2008 14.4463 81.1004 14.4463H81.0041V15.2061H81.0513C81.1155 15.2061 81.176 15.2055 81.2329 15.2044C81.2898 15.2032 81.3394 15.1993 81.3818 15.1925C81.4181 15.1868 81.4563 15.176 81.4962 15.1601C81.5374 15.1431 81.5688 15.1243 81.5906 15.1039C81.6366 15.0618 81.6675 15.0181 81.6832 14.9727C81.7002 14.9273 81.7086 14.8659 81.7086 14.7887Z" fill="white"/>
<path d="M82.7691 16.5093V13.9727H84.5975V14.4565H83.4445V14.9012H84.5067V15.385H83.4445V16.0255H84.5975V16.5093H82.7691Z" fill="white"/>
<path d="M87.2195 15.7325C87.2195 15.8585 87.1941 15.9693 87.1432 16.0647C87.0924 16.1601 87.024 16.239 86.938 16.3014C86.8364 16.3764 86.7244 16.4298 86.6021 16.4616C86.4811 16.4934 86.3267 16.5093 86.1391 16.5093H85.0569V13.9727H86.012C86.2105 13.9727 86.3606 13.9801 86.4623 13.9949C86.5652 14.0085 86.6614 14.038 86.751 14.0835C86.8479 14.1323 86.9199 14.1976 86.9671 14.2794C87.0155 14.3611 87.0397 14.4554 87.0397 14.5621C87.0397 14.6859 87.0064 14.7961 86.9399 14.8926C86.8745 14.9892 86.7837 15.0601 86.6675 15.1056V15.1192C86.8345 15.1521 86.9683 15.2197 87.0688 15.3219C87.1692 15.423 87.2195 15.5598 87.2195 15.7325ZM86.3497 14.6899C86.3497 14.649 86.3382 14.607 86.3152 14.5639C86.2934 14.5207 86.2589 14.4895 86.2117 14.4702C86.1669 14.452 86.1137 14.4423 86.0519 14.4412C85.9914 14.4389 85.9006 14.4378 85.7796 14.4378H85.7324V14.9744H85.8177C85.9339 14.9744 86.015 14.9733 86.061 14.971C86.1082 14.9687 86.1567 14.9568 86.2063 14.9352C86.2608 14.9114 86.2983 14.8784 86.3189 14.8364C86.3394 14.7944 86.3497 14.7456 86.3497 14.6899ZM86.5204 15.7205C86.5204 15.6422 86.5035 15.5809 86.4696 15.5366C86.4357 15.4923 86.3848 15.4588 86.3171 15.4361C86.2759 15.4213 86.219 15.4133 86.1464 15.4122C86.0749 15.4099 85.9787 15.4088 85.8577 15.4088H85.7324V16.0442H85.7687C85.9454 16.0442 86.0677 16.0431 86.1355 16.0408C86.2033 16.0385 86.2723 16.0232 86.3425 15.9948C86.4042 15.9698 86.449 15.9335 86.4768 15.8858C86.5059 15.837 86.5204 15.7819 86.5204 15.7205Z" fill="white"/>
<path d="M90.072 15.2419C90.072 15.6518 89.9552 15.9744 89.7216 16.2095C89.488 16.4445 89.1678 16.5621 88.7611 16.5621C88.3531 16.5621 88.0329 16.4434 87.8005 16.206C87.5681 15.9676 87.4519 15.6462 87.4519 15.2419C87.4519 14.8341 87.5681 14.5122 87.8005 14.276C88.0329 14.0386 88.3531 13.9199 88.7611 13.9199C89.1678 13.9199 89.488 14.038 89.7216 14.2743C89.9552 14.5093 90.072 14.8319 90.072 15.2419ZM89.3712 15.2402C89.3712 15.0891 89.3542 14.9608 89.3203 14.8552C89.2876 14.7484 89.2435 14.661 89.1878 14.5928C89.1297 14.5235 89.0637 14.4741 88.9899 14.4446C88.9172 14.4139 88.8416 14.3986 88.7629 14.3986C88.6794 14.3986 88.6037 14.4128 88.5359 14.4412C88.4681 14.4685 88.4028 14.5179 88.3398 14.5894C88.2841 14.6553 88.2387 14.7427 88.2036 14.8517C88.1697 14.9608 88.1528 15.0908 88.1528 15.2419C88.1528 15.3974 88.1691 15.5269 88.2018 15.6303C88.2345 15.7325 88.2793 15.8182 88.3362 15.8875C88.3943 15.9579 88.4603 16.0084 88.5341 16.0391C88.6079 16.0686 88.6842 16.0834 88.7629 16.0834C88.8428 16.0834 88.9202 16.0675 88.9953 16.0357C89.0704 16.0028 89.1351 15.9522 89.1896 15.8841C89.2477 15.8103 89.2925 15.7245 89.324 15.6269C89.3554 15.528 89.3712 15.3991 89.3712 15.2402Z" fill="white"/>
<path d="M92.9736 17.0919H92.3508V16.5008H90.8401V17.0919H90.2173V16.0238H90.3989C90.526 15.7762 90.6265 15.4752 90.7003 15.1209C90.7741 14.7654 90.8111 14.3827 90.8111 13.9727H92.7176V16.0238H92.9736V17.0919ZM92.0385 16.0238V14.4565H91.4466C91.4236 14.7632 91.3782 15.0511 91.3104 15.3202C91.2426 15.5882 91.1573 15.8228 91.0544 16.0238H92.0385Z" fill="white"/>
<path d="M77.4761 20.4174H76.797V18.3647H75.8728V20.4174H75.1937V17.8809H77.4761V20.4174Z" fill="white"/>
<path d="M80.4993 19.15C80.4993 19.56 80.3825 19.8825 80.1489 20.1176C79.9153 20.3527 79.5951 20.4702 79.1884 20.4702C78.7804 20.4702 78.4602 20.3515 78.2278 20.1142C77.9954 19.8757 77.8792 19.5543 77.8792 19.15C77.8792 18.7423 77.9954 18.4203 78.2278 18.1841C78.4602 17.9467 78.7804 17.8281 79.1884 17.8281C79.5951 17.8281 79.9153 17.9462 80.1489 18.1824C80.3825 18.4175 80.4993 18.74 80.4993 19.15ZM79.7985 19.1483C79.7985 18.9972 79.7815 18.8689 79.7476 18.7633C79.7149 18.6565 79.6708 18.5691 79.6151 18.501C79.557 18.4317 79.491 18.3823 79.4172 18.3527C79.3445 18.3221 79.2689 18.3068 79.1902 18.3068C79.1067 18.3068 79.031 18.3209 78.9632 18.3493C78.8954 18.3766 78.8301 18.426 78.7671 18.4975C78.7114 18.5634 78.666 18.6509 78.6309 18.7599C78.597 18.8689 78.5801 18.9989 78.5801 19.15C78.5801 19.3056 78.5964 19.4351 78.6291 19.5384C78.6618 19.6406 78.7066 19.7264 78.7635 19.7956C78.8216 19.866 78.8876 19.9166 78.9614 19.9472C79.0352 19.9768 79.1115 19.9915 79.1902 19.9915C79.2701 19.9915 79.3475 19.9756 79.4226 19.9438C79.4977 19.9109 79.5624 19.8604 79.6169 19.7922C79.675 19.7184 79.7198 19.6327 79.7513 19.535C79.7827 19.4362 79.7985 19.3073 79.7985 19.1483Z" fill="white"/>
<path d="M84.2743 20.4174H83.5952V19.2931H82.671V20.4174H81.9919V17.8809H82.671V18.8093H83.5952V17.8809H84.2743V20.4174Z" fill="white"/>
<path d="M87.2976 19.15C87.2976 19.56 87.1807 19.8825 86.9471 20.1176C86.7135 20.3527 86.3933 20.4702 85.9866 20.4702C85.5786 20.4702 85.2585 20.3515 85.026 20.1142C84.7936 19.8757 84.6774 19.5543 84.6774 19.15C84.6774 18.7423 84.7936 18.4203 85.026 18.1841C85.2585 17.9467 85.5786 17.8281 85.9866 17.8281C86.3933 17.8281 86.7135 17.9462 86.9471 18.1824C87.1807 18.4175 87.2976 18.74 87.2976 19.15ZM86.5967 19.1483C86.5967 18.9972 86.5797 18.8689 86.5458 18.7633C86.5132 18.6565 86.469 18.5691 86.4133 18.501C86.3552 18.4317 86.2892 18.3823 86.2154 18.3527C86.1427 18.3221 86.0671 18.3068 85.9884 18.3068C85.9049 18.3068 85.8292 18.3209 85.7614 18.3493C85.6936 18.3766 85.6283 18.426 85.5653 18.4975C85.5096 18.5634 85.4642 18.6509 85.4291 18.7599C85.3952 18.8689 85.3783 18.9989 85.3783 19.15C85.3783 19.3056 85.3946 19.4351 85.4273 19.5384C85.46 19.6406 85.5048 19.7264 85.5617 19.7956C85.6198 19.866 85.6858 19.9166 85.7596 19.9472C85.8335 19.9768 85.9097 19.9915 85.9884 19.9915C86.0683 19.9915 86.1458 19.9756 86.2208 19.9438C86.2959 19.9109 86.3606 19.8604 86.4151 19.7922C86.4732 19.7184 86.518 19.6327 86.5495 19.535C86.5809 19.4362 86.5967 19.3073 86.5967 19.1483Z" fill="white"/>
<path d="M90.4624 20.4174H89.787V18.736L89.2949 19.8212H88.8319L88.3398 18.736V20.4174H87.7007V17.8809H88.4833L89.0825 19.133L89.6798 17.8809H90.4624V20.4174Z" fill="white"/>
<path d="M91.0235 20.4174V17.8809H92.852V18.3647H91.699V18.8093H92.7612V19.2931H91.699V19.9336H92.852V20.4174H91.0235Z" fill="white"/>
<path d="M95.3922 18.6815C95.3922 18.7996 95.3723 18.9121 95.3323 19.0188C95.2924 19.1256 95.2349 19.2147 95.1598 19.2863C95.1138 19.3306 95.063 19.3715 95.0073 19.4089C94.9528 19.4464 94.8923 19.4782 94.8257 19.5043C94.7591 19.5304 94.6865 19.5509 94.6078 19.5657C94.5303 19.5804 94.4432 19.5878 94.3464 19.5878H93.9905V20.4174H93.3114V17.8809H94.3609C94.517 17.8809 94.6514 17.8945 94.764 17.9218C94.8778 17.9479 94.9807 17.9899 95.0727 18.0478C95.1743 18.1114 95.253 18.1966 95.3087 18.3033C95.3644 18.409 95.3922 18.535 95.3922 18.6815ZM94.695 18.6969C94.695 18.6253 94.6768 18.564 94.6405 18.5129C94.6042 18.4606 94.5606 18.4249 94.5098 18.4056C94.4456 18.3794 94.3839 18.3647 94.3246 18.3613C94.2665 18.3567 94.1872 18.3544 94.0867 18.3544H93.9905V19.1142H94.0377C94.1018 19.1142 94.1624 19.1137 94.2192 19.1125C94.2761 19.1114 94.3258 19.1074 94.3681 19.1006C94.4045 19.0949 94.4426 19.0841 94.4825 19.0682C94.5237 19.0512 94.5552 19.0325 94.577 19.012C94.623 18.97 94.6538 18.9263 94.6696 18.8808C94.6865 18.8354 94.695 18.7741 94.695 18.6969Z" fill="white"/>
<path d="M97.9888 17.8809L97.0863 19.9098C97.0331 20.0279 96.9732 20.121 96.9066 20.1891C96.8412 20.2573 96.7722 20.309 96.6996 20.3442C96.627 20.3794 96.5543 20.4032 96.4817 20.4157C96.4091 20.4271 96.3328 20.4327 96.2529 20.4327C96.1694 20.4327 96.0719 20.431 95.9606 20.4276C95.8504 20.4242 95.7766 20.4208 95.739 20.4174V19.8791H95.7808C95.7917 19.8814 95.8086 19.8842 95.8316 19.8876C95.8546 19.891 95.8837 19.8944 95.9188 19.8978C95.9479 19.9001 95.9793 19.9024 96.0132 19.9047C96.0471 19.9069 96.078 19.9081 96.1058 19.9081C96.1869 19.9081 96.2632 19.899 96.3346 19.8808C96.4072 19.8615 96.4557 19.8291 96.4799 19.7837L95.4794 17.8809H96.213L96.7922 19.0699L97.2824 17.8809H97.9888Z" fill="white"/>
<path d="M75.713 24.3256V22.2728H74.9141V21.789H77.191V22.2728H76.3921V24.3256H75.713Z" fill="white"/>
<path d="M77.4707 24.3256V21.789H79.2991V22.2728H78.1461V22.7174H79.2083V23.2012H78.1461V23.8418H79.2991V24.3256H77.4707Z" fill="white"/>
<path d="M82.0863 24.3256H81.4072V22.2728H80.7245C80.7197 22.3716 80.7148 22.4642 80.71 22.5505C80.7063 22.6357 80.7021 22.7169 80.6973 22.7941C80.684 23.0156 80.6622 23.2069 80.6319 23.3682C80.6016 23.5283 80.5671 23.6595 80.5284 23.7617C80.486 23.8707 80.4431 23.9565 80.3995 24.0189C80.3559 24.0814 80.3147 24.1308 80.276 24.1671C80.2179 24.2217 80.1453 24.2648 80.0581 24.2966C79.971 24.3273 79.885 24.3426 79.8003 24.3426C79.7434 24.3426 79.681 24.3403 79.6133 24.3358C79.5455 24.3312 79.5025 24.3278 79.4843 24.3256V23.7651H79.5098C79.5219 23.7662 79.5334 23.7674 79.5443 23.7685C79.5564 23.7697 79.5715 23.7702 79.5897 23.7702C79.6199 23.7702 79.6587 23.7657 79.7059 23.7566C79.7531 23.7475 79.7888 23.7322 79.813 23.7106C79.9001 23.6334 79.9595 23.5141 79.9909 23.3529C80.0236 23.1905 80.0484 22.9565 80.0654 22.651C80.0726 22.5113 80.0769 22.3858 80.0781 22.2745C80.0805 22.1632 80.0854 22.0014 80.0926 21.789H82.0863V24.3256Z" fill="white"/>
<path d="M82.6456 24.3256V21.789H84.4741V22.2728H83.321V22.7174H84.3833V23.2012H83.321V23.8418H84.4741V24.3256H82.6456Z" fill="white"/>
<path d="M87.8114 23.0377C87.8114 23.3432 87.7013 23.5851 87.481 23.7634C87.2606 23.9406 86.9744 24.0434 86.6221 24.0717V24.346H85.9466V24.0717C85.5944 24.0434 85.3081 23.9417 85.0878 23.7668C84.8675 23.5908 84.7573 23.3477 84.7573 23.0377C84.7573 22.7288 84.8644 22.4892 85.0787 22.3188C85.293 22.1485 85.5823 22.0485 85.9466 22.019V21.7635H86.6221V22.019C86.9756 22.0428 87.2619 22.1411 87.481 22.3137C87.7013 22.4852 87.8114 22.7265 87.8114 23.0377ZM87.1142 23.0275C87.1142 22.8674 87.0706 22.7368 86.9834 22.6357C86.8963 22.5335 86.7758 22.4693 86.6221 22.4432V23.6493C86.8 23.6129 86.9265 23.5442 87.0016 23.4431C87.0766 23.3409 87.1142 23.2024 87.1142 23.0275ZM85.9466 23.6493V22.4432C85.7868 22.4704 85.6646 22.5352 85.5799 22.6374C85.4963 22.7385 85.4546 22.8685 85.4546 23.0275C85.4546 23.2001 85.4939 23.3387 85.5726 23.4431C85.6513 23.5465 85.776 23.6152 85.9466 23.6493Z" fill="white"/>
<path d="M90.6567 23.0581C90.6567 23.4681 90.5399 23.7907 90.3063 24.0257C90.0727 24.2608 89.7525 24.3784 89.3457 24.3784C88.9378 24.3784 88.6176 24.2597 88.3852 24.0223C88.1528 23.7838 88.0366 23.4625 88.0366 23.0581C88.0366 22.6504 88.1528 22.3285 88.3852 22.0923C88.6176 21.8549 88.9378 21.7362 89.3457 21.7362C89.7525 21.7362 90.0727 21.8543 90.3063 22.0905C90.5399 22.3256 90.6567 22.6482 90.6567 23.0581ZM89.9558 23.0564C89.9558 22.9054 89.9389 22.7771 89.905 22.6714C89.8723 22.5647 89.8281 22.4772 89.7724 22.4091C89.7143 22.3398 89.6484 22.2904 89.5745 22.2609C89.5019 22.2302 89.4262 22.2149 89.3476 22.2149C89.264 22.2149 89.1884 22.2291 89.1206 22.2575C89.0528 22.2847 88.9874 22.3342 88.9245 22.4057C88.8688 22.4716 88.8234 22.559 88.7883 22.668C88.7544 22.7771 88.7375 22.9071 88.7375 23.0581C88.7375 23.2137 88.7538 23.3432 88.7865 23.4466C88.8192 23.5488 88.864 23.6345 88.9209 23.7038C88.979 23.7742 89.0449 23.8247 89.1188 23.8554C89.1926 23.8849 89.2689 23.8997 89.3476 23.8997C89.4275 23.8997 89.5049 23.8838 89.58 23.852C89.655 23.8191 89.7198 23.7685 89.7743 23.7004C89.8324 23.6266 89.8772 23.5408 89.9086 23.4431C89.9401 23.3443 89.9558 23.2154 89.9558 23.0564Z" fill="white"/>
<path d="M93.3422 24.3256H92.6631V23.2012H91.7389V24.3256H91.0598V21.789H91.7389V22.7174H92.6631V21.789H93.3422V24.3256Z" fill="white"/>
<path d="M93.6128 24.3256L94.5261 21.789H95.2669L96.1803 24.3256H95.4812L95.3123 23.8077H94.4626L94.2937 24.3256H93.6128ZM95.1634 23.3477L94.8875 22.5113L94.6115 23.3477H95.1634Z" fill="white"/>
<path fill-rule="evenodd" clip-rule="evenodd" d="M59.5938 28.0587L73.0741 20.6885L66.4904 20.5586L63.2661 22.3676L59.5938 28.0587Z" fill="#027E35"/>
<path fill-rule="evenodd" clip-rule="evenodd" d="M50.2188 6.96875L73.0946 20.6897L66.5109 20.5598L53.5365 12.7964L50.2188 6.96875Z" fill="#2683C9"/>
<path fill-rule="evenodd" clip-rule="evenodd" d="M50.2065 6.96875L49.9375 21.8903L53.4621 16.2748L53.5243 12.7964L50.2065 6.96875Z" fill="#5A58A3"/>
<path fill-rule="evenodd" clip-rule="evenodd" d="M59.8313 16.5728L49.9375 21.8929L53.4621 16.2775L56.571 14.6221L59.8313 16.5728Z" fill="#964A95"/>
<path fill-rule="evenodd" clip-rule="evenodd" d="M59.5938 28.0601L59.823 16.5703L63.335 18.6719L63.2661 22.369L59.5938 28.0601Z" fill="#62B22F"/>
<path fill-rule="evenodd" clip-rule="evenodd" d="M60.1797 1.24707L73.349 9.23044L66.7043 9.09618L63.5729 7.28714L60.1797 1.24707Z" fill="#EE7024"/>
<path fill-rule="evenodd" clip-rule="evenodd" d="M60.1697 1.24707L59.9062 12.7871L63.3039 14.8251L63.5629 7.28714L60.1697 1.24707Z" fill="#FAB51A"/>
<path fill-rule="evenodd" clip-rule="evenodd" d="M63.3125 14.8246L73.3476 9.22996L66.703 9.0957L63.4837 10.8957L63.3125 14.8246Z" fill="#DB0954"/>
<path fill-rule="evenodd" clip-rule="evenodd" d="M27.6215 5.65625C28.3504 6.54204 28.9581 7.51335 29.4745 8.54192L15.4402 18.2842L9.54688 14.7986V10.6275L15.4096 14.0846L27.6215 5.65642V5.65625Z" fill="#21A038"/>
<path fill-rule="evenodd" clip-rule="evenodd" d="M3.5541 14.5153C3.5541 14.3153 3.5541 14.1441 3.58468 13.9439L0.0303865 13.7725C0.0303865 14.0009 0 14.2582 0 14.4867C0 18.4863 1.73147 22.1149 4.52629 24.7432L7.04762 22.3719C4.89074 20.372 3.5541 17.6006 3.5541 14.5151V14.5153Z" fill="url(#paint0_linear_17876_64559)"/>
<path fill-rule="evenodd" clip-rule="evenodd" d="M15.3981 3.37386C15.6108 3.37386 15.7931 3.37386 16.0058 3.40248L16.1881 0.0598745C15.945 0.0598745 15.6716 0.03125 15.4288 0.03125C11.176 0.03125 7.31807 1.65988 4.52344 4.2881L7.04477 6.6594C9.17109 4.6309 12.1482 3.37386 15.3983 3.37386H15.3981Z" fill="url(#paint1_linear_17876_64559)"/>
<path fill-rule="evenodd" clip-rule="evenodd" d="M15.4069 25.6576C15.1943 25.6576 15.012 25.6576 14.7995 25.629L14.6172 28.9718C14.8603 28.9718 15.1336 29.0002 15.3765 29.0002C19.6293 29.0002 23.4873 27.3718 26.2819 24.7434L23.7605 22.3721C21.6342 24.429 18.6877 25.6576 15.4067 25.6576H15.4069Z" fill="url(#paint2_linear_17876_64559)"/>
<path fill-rule="evenodd" clip-rule="evenodd" d="M22.0814 5.31404L25.0889 3.22846C22.4461 1.22859 19.0743 0 15.3984 0V3.34278C17.8896 3.37123 20.198 4.08545 22.0814 5.31404Z" fill="url(#paint3_linear_17876_64559)"/>
<path fill-rule="evenodd" clip-rule="evenodd" d="M30.84 14.5119C30.84 13.6263 30.7489 12.7693 30.5971 11.9121L27.2859 14.2263C27.2859 14.312 27.2859 14.4264 27.2859 14.5121C27.2859 17.7976 25.7672 20.7403 23.3672 22.7688L25.767 25.2544C28.8653 22.6261 30.8398 18.7691 30.8398 14.5121L30.84 14.5119Z" fill="#21A038"/>
<path fill-rule="evenodd" clip-rule="evenodd" d="M15.406 25.6561C11.9126 25.6561 8.78377 24.2277 6.62707 21.9707L3.98438 24.2277C6.80939 27.1704 10.8801 28.9989 15.406 28.9989V25.6561Z" fill="url(#paint4_linear_17876_64559)"/>
<path fill-rule="evenodd" clip-rule="evenodd" d="M7.47266 6.25808L5.07287 3.77246C1.94399 6.42948 0 10.2578 0 14.5147H3.5541C3.5541 11.2578 5.07306 8.28658 7.47285 6.25808H7.47266Z" fill="url(#paint5_linear_17876_64559)"/>
<defs>
<linearGradient id="paint0_linear_17876_64559" x1="4.15813" y1="24.7587" x2="2.89132" y2="14.1608" gradientUnits="userSpaceOnUse">
<stop stop-color="#F2E913"/>
<stop offset="0.14902" stop-color="#F2E913"/>
<stop offset="0.301961" stop-color="#E7E518"/>
<stop offset="0.580392" stop-color="#CADB26"/>
<stop offset="0.890196" stop-color="#A3CD39"/>
<stop offset="1" stop-color="#A3CD39"/>
</linearGradient>
<linearGradient id="paint1_linear_17876_64559" x1="5.53564" y1="4.09768" x2="15.5354" y2="2.62818" gradientUnits="userSpaceOnUse">
<stop stop-color="#0FA8E0"/>
<stop offset="0.0588235" stop-color="#0FA8E0"/>
<stop offset="0.541176" stop-color="#0099F9"/>
<stop offset="0.921569" stop-color="#0291EB"/>
<stop offset="1" stop-color="#0291EB"/>
</linearGradient>
<linearGradient id="paint2_linear_17876_64559" x1="14.4097" y1="26.1004" x2="25.7335" y2="25.1131" gradientUnits="userSpaceOnUse">
<stop stop-color="#A3CD39"/>
<stop offset="0.121569" stop-color="#A3CD39"/>
<stop offset="0.290196" stop-color="#86C339"/>
<stop offset="0.870588" stop-color="#21A038"/>
<stop offset="1" stop-color="#21A038"/>
</linearGradient>
<linearGradient id="paint3_linear_17876_64559" x1="14.6688" y1="2.22224" x2="24.346" y2="3.29528" gradientUnits="userSpaceOnUse">
<stop stop-color="#0291EB"/>
<stop offset="0.0509804" stop-color="#0291EB"/>
<stop offset="0.788235" stop-color="#0C8ACB"/>
<stop offset="1" stop-color="#0C8ACB"/>
</linearGradient>
<linearGradient id="paint4_linear_17876_64559" x1="4.88782" y1="24.6174" x2="15.4028" y2="26.3946" gradientUnits="userSpaceOnUse">
<stop stop-color="#F2E913"/>
<stop offset="0.129412" stop-color="#F2E913"/>
<stop offset="0.301961" stop-color="#EBE716"/>
<stop offset="0.529412" stop-color="#D9E01F"/>
<stop offset="0.8" stop-color="#BBD62D"/>
<stop offset="0.980392" stop-color="#A3CD39"/>
<stop offset="1" stop-color="#A3CD39"/>
</linearGradient>
<linearGradient id="paint5_linear_17876_64559" x1="2.70365" y1="13.7294" x2="4.32261" y2="3.33847" gradientUnits="userSpaceOnUse">
<stop stop-color="#A3CD39"/>
<stop offset="0.0705882" stop-color="#A3CD39"/>
<stop offset="0.258824" stop-color="#81C55F"/>
<stop offset="0.921569" stop-color="#0FA8E0"/>
<stop offset="1" stop-color="#0FA8E0"/>
</linearGradient>
</defs>
</svg>
