<svg width="138" height="27" viewBox="0 0 138 27" fill="none" xmlns="http://www.w3.org/2000/svg">
<path d="M24.9453 8.24414H28.5971C29.5795 8.24414 30.3643 8.51528 30.9516 9.05757C31.5389 9.59986 31.8325 10.3503 31.8325 11.309C31.8325 12.258 31.5229 13.0037 30.9035 13.546C30.2949 14.0882 29.4834 14.3594 28.469 14.3594H26.1466V18.1505H24.9453V8.24414ZM28.437 13.4588C29.1524 13.4588 29.697 13.2797 30.0707 12.9214C30.4444 12.5534 30.6313 12.0159 30.6313 11.309C30.6313 10.6021 30.4444 10.0647 30.0707 9.69669C29.697 9.32871 29.1524 9.14472 28.437 9.14472H26.1466V13.4588H28.437Z" fill="#2195F2"/>
<path d="M33.8371 18.1505V11.3526H34.9263V18.1505H33.8371ZM34.3817 10.0308C34.1361 10.0308 33.9279 9.95331 33.757 9.79837C33.5969 9.64343 33.5168 9.4546 33.5168 9.23188C33.5168 9.01884 33.5969 8.83969 33.757 8.69443C33.9279 8.53949 34.1361 8.46202 34.3817 8.46202C34.6166 8.46202 34.8195 8.53949 34.9903 8.69443C35.1612 8.83969 35.2466 9.02368 35.2466 9.2464C35.2466 9.45944 35.1612 9.64343 34.9903 9.79837C34.8195 9.95331 34.6166 10.0308 34.3817 10.0308Z" fill="#2195F2"/>
<path d="M44.4975 11.3526V18.1505H43.4084V17.1483C43.0987 17.5356 42.7197 17.8407 42.2712 18.0634C41.8227 18.2764 41.3315 18.383 40.7976 18.383C40.0822 18.383 39.4416 18.228 38.8756 17.9181C38.3097 17.6083 37.8666 17.1773 37.5462 16.6254C37.2259 16.0734 37.0657 15.444 37.0657 14.737C37.0657 14.0398 37.2206 13.4201 37.5302 12.8778C37.8506 12.3258 38.2884 11.8949 38.8436 11.585C39.4095 11.2751 40.0502 11.1202 40.7656 11.1202C41.3102 11.1202 41.8067 11.2316 42.2552 11.4543C42.7143 11.6673 43.0987 11.9724 43.4084 12.3694V11.3526H44.4975ZM40.7656 17.4824C41.2781 17.4824 41.732 17.3662 42.127 17.1338C42.5328 16.9014 42.8478 16.5769 43.072 16.1605C43.2963 15.7442 43.4084 15.2745 43.4084 14.7516C43.4084 14.2287 43.2963 13.759 43.072 13.3426C42.8478 12.9262 42.5328 12.6018 42.127 12.3694C41.732 12.137 41.2781 12.0208 40.7656 12.0208C40.2638 12.0208 39.8153 12.137 39.4202 12.3694C39.0251 12.6018 38.7155 12.9262 38.4912 13.3426C38.267 13.7493 38.1549 14.2141 38.1549 14.737C38.1549 15.2697 38.267 15.7442 38.4912 16.1605C38.7155 16.5769 39.0251 16.9014 39.4202 17.1338C39.8153 17.3662 40.2638 17.4824 40.7656 17.4824Z" fill="#2195F2"/>
<path d="M49.1511 18.383C48.425 18.383 47.7844 18.2425 47.2291 17.9617C46.6846 17.6809 46.2681 17.2839 45.9798 16.7706L46.9568 16.3349C47.3519 17.0999 48.1261 17.4824 49.2793 17.4824C49.8345 17.4824 50.2937 17.3904 50.6567 17.2064C51.0198 17.0224 51.2013 16.7367 51.2013 16.3494C51.2013 15.9523 51.0518 15.657 50.7528 15.4633C50.4645 15.2697 49.952 15.1438 49.2152 15.0857C48.1901 15.0082 47.4534 14.8 47.0049 14.4611C46.5671 14.1221 46.3482 13.6718 46.3482 13.1102C46.3482 12.4808 46.5991 11.9917 47.101 11.6431C47.6028 11.2945 48.2916 11.1202 49.1672 11.1202C50.6514 11.1202 51.6604 11.6528 52.1943 12.718L51.2173 13.1538C51.0358 12.7664 50.7688 12.4808 50.4165 12.2968C50.0748 12.1128 49.6316 12.0208 49.0871 12.0208C48.5318 12.0208 48.1047 12.1128 47.8057 12.2968C47.5174 12.4808 47.3733 12.7422 47.3733 13.0811C47.3733 13.4007 47.5281 13.6622 47.8378 13.8655C48.1581 14.0592 48.7027 14.1851 49.4715 14.2432C50.4218 14.3206 51.1265 14.5337 51.5857 14.8823C52.0555 15.2212 52.2904 15.6715 52.2904 16.2332C52.2904 16.6883 52.1463 17.0805 51.858 17.4097C51.5697 17.7293 51.1853 17.9714 50.7048 18.136C50.2243 18.3006 49.7064 18.383 49.1511 18.383Z" fill="#2195F2"/>
<path d="M54.3384 18.1505V12.2532H53.0571V11.3526H54.3384V9.10115H55.4276V11.3526H57.1574V12.2532H55.4276V18.1505H54.3384Z" fill="#2195F2"/>
<path d="M62.0327 11.1202C62.289 11.1202 62.5346 11.1541 62.7695 11.2219V12.1225C62.5453 12.0256 62.2997 11.9772 62.0327 11.9772C61.5736 11.9772 61.1465 12.0934 60.7514 12.3258C60.3563 12.5582 60.036 12.8971 59.7904 13.3426C59.5555 13.7784 59.438 14.2964 59.438 14.8968V18.1505H58.3489V11.3526H59.438V12.718C59.7263 12.2144 60.0894 11.8223 60.5272 11.5414C60.9756 11.2606 61.4775 11.1202 62.0327 11.1202Z" fill="#2195F2"/>
<path d="M64.3691 18.1505V11.3526H65.4582V18.1505H64.3691ZM64.9136 10.0308C64.668 10.0308 64.4598 9.95331 64.289 9.79837C64.1288 9.64343 64.0487 9.4546 64.0487 9.23188C64.0487 9.01884 64.1288 8.83969 64.289 8.69443C64.4598 8.53949 64.668 8.46202 64.9136 8.46202C65.1485 8.46202 65.3514 8.53949 65.5223 8.69443C65.6931 8.83969 65.7785 9.02368 65.7785 9.2464C65.7785 9.45944 65.6931 9.64343 65.5223 9.79837C65.3514 9.95331 65.1485 10.0308 64.9136 10.0308Z" fill="#2195F2"/>
<path d="M73.9403 18.1505H72.691L70.737 15.3181L68.7829 18.1505H67.5656L69.9682 14.6644L67.7098 11.3526H68.9431L70.753 14.0253L72.659 11.3526H73.8602L71.5058 14.6499L73.9403 18.1505Z" fill="#2195F2"/>
<path d="M14.7067 15.8537C16.3353 15.8537 17.6555 14.6646 17.6555 13.1978C17.6555 11.7311 16.3353 10.542 14.7067 10.542C13.0781 10.542 11.7578 11.7311 11.7578 13.1978C11.7578 14.6646 13.0781 15.8537 14.7067 15.8537Z" fill="#FFD833"/>
<path fill-rule="evenodd" clip-rule="evenodd" d="M16.708 10.2826C16.1085 9.94645 15.4165 9.76807 14.7103 9.76764C14.1927 9.76733 13.6805 9.86267 13.2054 10.0478C8.62216 3.22876 15.035 0 15.035 0C15.035 0 21.5897 3.30188 16.708 10.2826ZM12.3729 10.4935C11.391 9.02962 10.8124 7.61762 10.6371 6.25745C8.40146 4.78263 5.78165 4.57253 4.47574 4.57253C4.1997 4.57039 3.92373 4.58139 3.64897 4.60548C3.64897 4.60548 2.46085 11.0661 11.0945 12.1516C11.3268 11.4961 11.7721 10.9185 12.3729 10.4935ZM10.9127 13.0129C10.9069 13.0736 10.9069 13.1344 10.9069 13.1962C10.9067 13.7411 11.051 14.2781 11.3278 14.7627C9.26255 15.9203 7.48665 16.3446 6.00007 16.3446C1.94399 16.3446 0 13.2085 0 13.2085C0 13.2085 2.04119 11.3527 5.08068 10.7471C6.49636 11.9428 8.44836 12.7039 10.9127 13.0129ZM11.8937 15.4834C9.96345 16.572 8.09608 17.1529 6.3259 17.2147C4.35104 19.671 4.36705 22.5795 4.36705 22.5795C4.94143 22.7057 5.53114 22.7666 6.12235 22.7607C8.3831 22.7607 12.183 21.9018 13.5953 16.469C12.94 16.2842 12.3522 15.9437 11.8937 15.4834ZM14.7141 16.6254H14.5392C14.0269 18.6296 13.167 20.2301 11.9605 21.399C12.5323 24.3353 14.7679 26.3323 14.7679 26.3323C14.7679 26.3323 21.2242 23.0705 16.5449 16.2031C15.984 16.4808 15.3542 16.626 14.7141 16.6254Z" fill="url(#paint0_radial_17876_64815)"/>
<path d="M117.618 10.2509C116.557 10.2509 115.715 9.96208 115.092 9.38453C114.468 8.80413 114.156 7.98927 114.156 6.93997C114.156 5.92783 114.468 5.12155 115.092 4.52113C115.718 3.91785 116.562 3.61621 117.623 3.61621C117.904 3.61621 118.157 3.63051 118.382 3.6591C118.607 3.68769 118.822 3.72772 119.028 3.77918C119.189 3.82207 119.365 3.88068 119.555 3.95502C119.745 4.02936 119.899 4.09369 120.016 4.14801V5.67051H119.835C119.75 5.60189 119.642 5.5204 119.512 5.42605C119.383 5.32884 119.235 5.23449 119.071 5.14299C118.906 5.0515 118.724 4.9743 118.525 4.9114C118.328 4.84564 118.123 4.81276 117.907 4.81276C117.651 4.81276 117.415 4.84993 117.2 4.92427C116.988 4.99575 116.785 5.12155 116.592 5.30168C116.415 5.46465 116.269 5.6848 116.155 5.96214C116.044 6.23948 115.989 6.56685 115.989 6.94425C115.989 7.34168 116.048 7.67619 116.165 7.94781C116.282 8.21657 116.435 8.43387 116.625 8.5997C116.809 8.75981 117.013 8.87561 117.238 8.94708C117.466 9.01856 117.692 9.0543 117.917 9.0543C118.151 9.0543 118.374 9.01999 118.586 8.95137C118.799 8.87989 118.977 8.80127 119.123 8.71549C119.281 8.62686 119.421 8.5368 119.541 8.4453C119.661 8.35381 119.766 8.27233 119.854 8.20085H120.016V9.7019C119.886 9.75622 119.736 9.81912 119.565 9.8906C119.394 9.95922 119.218 10.0178 119.038 10.0664C118.816 10.1265 118.609 10.1722 118.415 10.2037C118.222 10.2351 117.956 10.2509 117.618 10.2509Z" fill="white"/>
<path d="M126.739 8.08505C126.739 8.3967 126.673 8.68404 126.54 8.94708C126.41 9.20727 126.231 9.42027 126.003 9.5861C125.731 9.78338 125.437 9.92348 125.12 10.0064C124.807 10.0865 124.424 10.1265 123.971 10.1265H121.065V3.74058H126.203V4.95858H122.831V6.13798H123.999C124.424 6.13798 124.804 6.16657 125.139 6.22375C125.475 6.27807 125.775 6.39959 126.041 6.58829C126.285 6.75984 126.462 6.9757 126.573 7.23589C126.684 7.49321 126.739 7.77627 126.739 8.08505ZM124.906 8.13223C124.906 8.02644 124.894 7.92637 124.868 7.83202C124.843 7.73767 124.788 7.65046 124.702 7.57041C124.617 7.49321 124.5 7.43174 124.351 7.38599C124.202 7.34025 123.996 7.31737 123.734 7.31737H122.831V8.9428H123.734C124.098 8.9428 124.384 8.87275 124.593 8.73265C124.802 8.59255 124.906 8.39241 124.906 8.13223Z" fill="white"/>
<path d="M133.71 10.1265H131.934V4.95858H129.517V10.1265H127.741V3.74058H133.71V10.1265Z" fill="white"/>
<path d="M116.539 15.3702H115.829V13.3031H114.862V15.3702H114.152V12.8159H116.539V15.3702Z" fill="white"/>
<path d="M117.126 15.3702V12.8159H119.039V13.3031H117.833V13.7508H118.944V14.238H117.833V14.883H119.039V15.3702H117.126Z" fill="white"/>
<path d="M121.696 13.6222C121.696 13.7411 121.675 13.8543 121.633 13.9618C121.592 14.0693 121.531 14.1591 121.453 14.2312C121.405 14.2758 121.352 14.3169 121.293 14.3547C121.236 14.3924 121.173 14.4244 121.103 14.4507C121.034 14.477 120.958 14.4976 120.875 14.5125C120.794 14.5274 120.703 14.5348 120.602 14.5348H120.23V15.3702H119.519V12.8159H120.617C120.781 12.8159 120.921 12.8296 121.039 12.857C121.158 12.8834 121.265 12.9257 121.362 12.984C121.468 13.048 121.55 13.1338 121.609 13.2413C121.667 13.3477 121.696 13.4746 121.696 13.6222ZM120.967 13.6376C120.967 13.5655 120.948 13.5038 120.91 13.4523C120.872 13.3997 120.826 13.3637 120.773 13.3442C120.706 13.3179 120.641 13.3031 120.579 13.2996C120.518 13.2951 120.435 13.2928 120.33 13.2928H120.23V14.0579H120.279C120.346 14.0579 120.41 14.0573 120.469 14.0562C120.529 14.055 120.58 14.051 120.625 14.0442C120.663 14.0384 120.703 14.0276 120.744 14.0116C120.787 13.9944 120.82 13.9755 120.843 13.955C120.891 13.9126 120.924 13.8686 120.94 13.8229C120.958 13.7771 120.967 13.7154 120.967 13.6376Z" fill="white"/>
<path d="M122.076 15.3702V12.8159H123.988V13.3031H122.782V13.7508H123.894V14.238H122.782V14.883H123.988V15.3702H122.076Z" fill="white"/>
<path d="M126.731 14.588C126.731 14.7149 126.705 14.8264 126.651 14.9225C126.598 15.0186 126.527 15.098 126.437 15.1609C126.33 15.2364 126.213 15.2902 126.085 15.3222C125.959 15.3542 125.797 15.3702 125.601 15.3702H124.469V12.8159H125.468C125.676 12.8159 125.833 12.8233 125.939 12.8382C126.047 12.8519 126.147 12.8816 126.241 12.9274C126.342 12.9766 126.418 13.0423 126.467 13.1247C126.518 13.207 126.543 13.3019 126.543 13.4094C126.543 13.5341 126.508 13.645 126.439 13.7422C126.37 13.8394 126.275 13.9109 126.154 13.9567V13.9704C126.328 14.0036 126.468 14.0716 126.573 14.1745C126.679 14.2763 126.731 14.4141 126.731 14.588ZM125.821 13.5381C125.821 13.4969 125.809 13.4546 125.785 13.4111C125.762 13.3677 125.726 13.3362 125.677 13.3168C125.63 13.2985 125.574 13.2888 125.51 13.2876C125.447 13.2853 125.352 13.2842 125.225 13.2842H125.176V13.8246H125.265C125.386 13.8246 125.471 13.8234 125.519 13.8212C125.569 13.8189 125.619 13.8069 125.671 13.7851C125.728 13.7611 125.768 13.7279 125.789 13.6856C125.811 13.6433 125.821 13.5941 125.821 13.5381ZM126 14.576C126 14.4971 125.982 14.4353 125.947 14.3907C125.911 14.3461 125.858 14.3124 125.787 14.2895C125.744 14.2746 125.685 14.2666 125.609 14.2655C125.534 14.2632 125.433 14.262 125.307 14.262H125.176V14.9019H125.214C125.398 14.9019 125.526 14.9008 125.597 14.8985C125.668 14.8962 125.74 14.8807 125.814 14.8522C125.878 14.827 125.925 14.7904 125.954 14.7424C125.985 14.6932 126 14.6377 126 14.576Z" fill="white"/>
<path d="M129.715 14.0939C129.715 14.5068 129.593 14.8316 129.348 15.0683C129.104 15.305 128.769 15.4234 128.344 15.4234C127.917 15.4234 127.582 15.3039 127.339 15.0649C127.096 14.8247 126.974 14.5011 126.974 14.0939C126.974 13.6833 127.096 13.3591 127.339 13.1212C127.582 12.8822 127.917 12.7627 128.344 12.7627C128.769 12.7627 129.104 12.8816 129.348 13.1195C129.593 13.3563 129.715 13.6811 129.715 14.0939ZM128.982 14.0922C128.982 13.9401 128.964 13.8109 128.929 13.7045C128.894 13.597 128.848 13.5089 128.79 13.4403C128.729 13.3705 128.66 13.3208 128.583 13.2911C128.507 13.2602 128.428 13.2447 128.346 13.2447C128.258 13.2447 128.179 13.259 128.108 13.2876C128.037 13.3151 127.969 13.3648 127.903 13.4369C127.845 13.5032 127.797 13.5913 127.761 13.7011C127.725 13.8109 127.707 13.9418 127.707 14.0939C127.707 14.2506 127.724 14.381 127.759 14.485C127.793 14.588 127.84 14.6743 127.899 14.7441C127.96 14.815 128.029 14.8659 128.106 14.8968C128.183 14.9265 128.263 14.9414 128.346 14.9414C128.429 14.9414 128.51 14.9254 128.589 14.8933C128.667 14.8602 128.735 14.8093 128.792 14.7407C128.853 14.6663 128.899 14.58 128.932 14.4816C128.965 14.3821 128.982 14.2523 128.982 14.0922Z" fill="white"/>
<path d="M132.75 15.9569H132.099V15.3617H130.518V15.9569H129.867V14.8813H130.057C130.19 14.632 130.295 14.3289 130.372 13.9721C130.449 13.6141 130.488 13.2287 130.488 12.8159H132.482V14.8813H132.75V15.9569ZM131.772 14.8813V13.3031H131.153C131.129 13.6119 131.081 13.9018 131.01 14.1728C130.939 14.4427 130.85 14.6789 130.742 14.8813H131.772Z" fill="white"/>
<path d="M116.539 19.3058H115.829V17.2387H114.862V19.3058H114.152V16.7515H116.539V19.3058Z" fill="white"/>
<path d="M119.702 18.0295C119.702 18.4424 119.58 18.7672 119.335 19.0039C119.091 19.2406 118.756 19.359 118.33 19.359C117.904 19.359 117.569 19.2395 117.326 19.0005C117.083 18.7603 116.961 18.4366 116.961 18.0295C116.961 17.6189 117.083 17.2947 117.326 17.0568C117.569 16.8178 117.904 16.6983 118.33 16.6983C118.756 16.6983 119.091 16.8172 119.335 17.0551C119.58 17.2918 119.702 17.6166 119.702 18.0295ZM118.969 18.0278C118.969 17.8757 118.951 17.7464 118.915 17.6401C118.881 17.5326 118.835 17.4445 118.777 17.3759C118.716 17.3061 118.647 17.2564 118.57 17.2267C118.494 17.1958 118.415 17.1803 118.332 17.1803C118.245 17.1803 118.166 17.1946 118.095 17.2232C118.024 17.2507 117.956 17.3004 117.89 17.3725C117.831 17.4388 117.784 17.5269 117.747 17.6367C117.712 17.7464 117.694 17.8774 117.694 18.0295C117.694 18.1862 117.711 18.3166 117.745 18.4206C117.78 18.5236 117.826 18.6099 117.886 18.6797C117.947 18.7506 118.016 18.8015 118.093 18.8323C118.17 18.8621 118.25 18.8769 118.332 18.8769C118.416 18.8769 118.497 18.8609 118.575 18.8289C118.654 18.7958 118.722 18.7449 118.779 18.6762C118.839 18.6019 118.886 18.5156 118.919 18.4172C118.952 18.3177 118.969 18.1879 118.969 18.0278Z" fill="white"/>
<path d="M123.65 19.3058H122.94V18.1736H121.973V19.3058H121.263V16.7515H121.973V17.6864H122.94V16.7515H123.65V19.3058Z" fill="white"/>
<path d="M126.813 18.0295C126.813 18.4424 126.691 18.7672 126.446 19.0039C126.202 19.2406 125.867 19.359 125.441 19.359C125.015 19.359 124.68 19.2395 124.437 19.0005C124.194 18.7603 124.072 18.4366 124.072 18.0295C124.072 17.6189 124.194 17.2947 124.437 17.0568C124.68 16.8178 125.015 16.6983 125.441 16.6983C125.867 16.6983 126.202 16.8172 126.446 17.0551C126.691 17.2918 126.813 17.6166 126.813 18.0295ZM126.08 18.0278C126.08 17.8757 126.062 17.7464 126.026 17.6401C125.992 17.5326 125.946 17.4445 125.888 17.3759C125.827 17.3061 125.758 17.2564 125.681 17.2267C125.605 17.1958 125.526 17.1803 125.443 17.1803C125.356 17.1803 125.277 17.1946 125.206 17.2232C125.135 17.2507 125.067 17.3004 125.001 17.3725C124.943 17.4388 124.895 17.5269 124.858 17.6367C124.823 17.7464 124.805 17.8774 124.805 18.0295C124.805 18.1862 124.822 18.3166 124.856 18.4206C124.891 18.5236 124.938 18.6099 124.997 18.6797C125.058 18.7506 125.127 18.8015 125.204 18.8323C125.281 18.8621 125.361 18.8769 125.443 18.8769C125.527 18.8769 125.608 18.8609 125.686 18.8289C125.765 18.7958 125.833 18.7449 125.89 18.6762C125.95 18.6019 125.997 18.5156 126.03 18.4172C126.063 18.3177 126.08 18.1879 126.08 18.0278Z" fill="white"/>
<path d="M130.123 19.3058H129.417V17.6126L128.902 18.7054H128.418L127.903 17.6126V19.3058H127.234V16.7515H128.053L128.68 18.0123L129.305 16.7515H130.123V19.3058Z" fill="white"/>
<path d="M130.71 19.3058V16.7515H132.623V17.2387H131.417V17.6864H132.528V18.1736H131.417V18.8186H132.623V19.3058H130.71Z" fill="white"/>
<path d="M135.28 17.5577C135.28 17.6767 135.259 17.7899 135.217 17.8974C135.175 18.0049 135.115 18.0947 135.037 18.1667C134.989 18.2113 134.936 18.2525 134.877 18.2903C134.82 18.328 134.757 18.36 134.687 18.3863C134.618 18.4126 134.542 18.4332 134.459 18.4481C134.378 18.4629 134.287 18.4704 134.186 18.4704H133.814V19.3058H133.103V16.7515H134.201C134.364 16.7515 134.505 16.7652 134.623 16.7926C134.742 16.8189 134.849 16.8613 134.946 16.9196C135.052 16.9836 135.134 17.0694 135.193 17.1769C135.251 17.2833 135.28 17.4102 135.28 17.5577ZM134.551 17.5732C134.551 17.5011 134.532 17.4394 134.494 17.3879C134.456 17.3353 134.41 17.2993 134.357 17.2798C134.29 17.2535 134.225 17.2387 134.163 17.2352C134.102 17.2307 134.019 17.2284 133.914 17.2284H133.814V17.9935H133.863C133.93 17.9935 133.993 17.9929 134.053 17.9918C134.113 17.9906 134.164 17.9866 134.209 17.9798C134.247 17.974 134.287 17.9632 134.328 17.9472C134.371 17.93 134.404 17.9111 134.427 17.8905C134.475 17.8482 134.508 17.8042 134.524 17.7585C134.542 17.7127 134.551 17.6509 134.551 17.5732Z" fill="white"/>
<path d="M137.996 16.7515L137.052 18.7946C136.996 18.9135 136.934 19.0073 136.864 19.0759C136.796 19.1446 136.723 19.1966 136.647 19.2321C136.572 19.2675 136.496 19.2915 136.42 19.3041C136.344 19.3155 136.264 19.3213 136.18 19.3213C136.093 19.3213 135.991 19.3195 135.874 19.3161C135.759 19.3127 135.682 19.3093 135.643 19.3058V18.7637H135.686C135.698 18.766 135.716 18.7689 135.74 18.7723C135.764 18.7757 135.794 18.7792 135.831 18.7826C135.861 18.7849 135.894 18.7872 135.93 18.7895C135.965 18.7917 135.997 18.7929 136.026 18.7929C136.111 18.7929 136.191 18.7837 136.266 18.7654C136.342 18.746 136.392 18.7134 136.418 18.6677L135.371 16.7515H136.138L136.744 17.9489L137.257 16.7515H137.996Z" fill="white"/>
<path d="M114.695 23.2414V21.1743H113.859V20.6871H116.241V21.1743H115.405V23.2414H114.695Z" fill="white"/>
<path d="M116.534 23.2414V20.6871H118.446V21.1743H117.24V21.622H118.351V22.1092H117.24V22.7542H118.446V23.2414H116.534Z" fill="white"/>
<path d="M121.362 23.2414H120.651V21.1743H119.937C119.932 21.2738 119.927 21.367 119.922 21.4539C119.918 21.5397 119.914 21.6214 119.909 21.6992C119.895 21.9222 119.872 22.1149 119.84 22.2773C119.809 22.4386 119.773 22.5707 119.732 22.6736C119.688 22.7834 119.643 22.8697 119.597 22.9326C119.552 22.9955 119.509 23.0453 119.468 23.0819C119.407 23.1368 119.331 23.1802 119.24 23.2123C119.149 23.2431 119.059 23.2586 118.97 23.2586C118.911 23.2586 118.846 23.2563 118.775 23.2517C118.704 23.2471 118.659 23.2437 118.64 23.2414V22.677H118.667C118.679 22.6782 118.691 22.6793 118.703 22.6805C118.715 22.6816 118.731 22.6822 118.75 22.6822C118.782 22.6822 118.822 22.6776 118.872 22.6684C118.921 22.6593 118.958 22.6439 118.984 22.6221C119.075 22.5444 119.137 22.4243 119.17 22.2619C119.204 22.0983 119.23 21.8627 119.248 21.5551C119.255 21.4144 119.26 21.2881 119.261 21.176C119.264 21.0639 119.269 20.9009 119.276 20.6871H121.362V23.2414Z" fill="white"/>
<path d="M121.947 23.2414V20.6871H123.859V21.1743H122.653V21.622H123.764V22.1092H122.653V22.7542H123.859V23.2414H121.947Z" fill="white"/>
<path d="M127.35 21.9445C127.35 22.2522 127.235 22.4958 127.005 22.6753C126.774 22.8537 126.475 22.9572 126.106 22.9858V23.262H125.4V22.9858C125.031 22.9572 124.732 22.8549 124.501 22.6787C124.271 22.5015 124.156 22.2567 124.156 21.9445C124.156 21.6334 124.268 21.3921 124.492 21.2206C124.716 21.049 125.019 20.9484 125.4 20.9187V20.6613H126.106V20.9187C126.476 20.9427 126.775 21.0416 127.005 21.2154C127.235 21.3881 127.35 21.6312 127.35 21.9445ZM126.621 21.9342C126.621 21.773 126.575 21.6414 126.484 21.5397C126.393 21.4367 126.267 21.3721 126.106 21.3458V22.5604C126.292 22.5238 126.425 22.4546 126.503 22.3528C126.582 22.2499 126.621 22.1103 126.621 21.9342ZM125.4 22.5604V21.3458C125.233 21.3733 125.105 21.4384 125.016 21.5414C124.929 21.6432 124.885 21.7741 124.885 21.9342C124.885 22.1081 124.926 22.2476 125.008 22.3528C125.091 22.4569 125.221 22.5261 125.4 22.5604Z" fill="white"/>
<path d="M130.327 21.9651C130.327 22.378 130.204 22.7028 129.96 22.9395C129.716 23.1762 129.381 23.2946 128.955 23.2946C128.528 23.2946 128.194 23.1751 127.95 22.9361C127.707 22.6959 127.586 22.3722 127.586 21.9651C127.586 21.5545 127.707 21.2303 127.95 20.9924C128.194 20.7534 128.528 20.6339 128.955 20.6339C129.381 20.6339 129.716 20.7528 129.96 20.9907C130.204 21.2274 130.327 21.5522 130.327 21.9651ZM129.593 21.9634C129.593 21.8113 129.576 21.682 129.54 21.5757C129.506 21.4682 129.46 21.3801 129.402 21.3115C129.341 21.2417 129.272 21.192 129.195 21.1623C129.119 21.1314 129.039 21.1159 128.957 21.1159C128.87 21.1159 128.791 21.1302 128.72 21.1588C128.649 21.1863 128.58 21.236 128.515 21.3081C128.456 21.3744 128.409 21.4625 128.372 21.5723C128.337 21.682 128.319 21.813 128.319 21.9651C128.319 22.1218 128.336 22.2522 128.37 22.3562C128.404 22.4592 128.451 22.5455 128.511 22.6153C128.572 22.6862 128.641 22.7371 128.718 22.7679C128.795 22.7977 128.875 22.8126 128.957 22.8126C129.041 22.8126 129.122 22.7965 129.2 22.7645C129.279 22.7314 129.346 22.6805 129.403 22.6118C129.464 22.5375 129.511 22.4512 129.544 22.3528C129.577 22.2533 129.593 22.1235 129.593 21.9634Z" fill="white"/>
<path d="M133.136 23.2414H132.425V22.1092H131.459V23.2414H130.748V20.6871H131.459V21.622H132.425V20.6871H133.136V23.2414Z" fill="white"/>
<path d="M133.419 23.2414L134.374 20.6871H135.149L136.104 23.2414H135.373L135.196 22.7199H134.308L134.131 23.2414H133.419ZM135.041 22.2567L134.752 21.4144L134.463 22.2567H135.041Z" fill="white"/>
<path fill-rule="evenodd" clip-rule="evenodd" d="M97.8438 26.9991L111.944 19.5771L105.058 19.4463L101.685 21.268L97.8438 26.9991Z" fill="#027E35"/>
<path fill-rule="evenodd" clip-rule="evenodd" d="M88.0234 5.76172L111.952 19.5791L105.065 19.4483L91.4939 11.6303L88.0234 5.76172Z" fill="#2683C9"/>
<path fill-rule="evenodd" clip-rule="evenodd" d="M88.0079 5.76172L87.7266 20.7881L91.4134 15.1332L91.4784 11.6303L88.0079 5.76172Z" fill="#5A58A3"/>
<path fill-rule="evenodd" clip-rule="evenodd" d="M98.0756 15.4332L87.7266 20.7907L91.4134 15.1358L94.6653 13.4688L98.0756 15.4332Z" fill="#964A95"/>
<path fill-rule="evenodd" clip-rule="evenodd" d="M97.8438 27.0002L98.0835 15.4297L101.757 17.5461L101.685 21.2691L97.8438 27.0002Z" fill="#62B22F"/>
<path fill-rule="evenodd" clip-rule="evenodd" d="M98.4297 0L112.205 8.03943L105.255 7.90423L101.979 6.08249L98.4297 0Z" fill="#EE7024"/>
<path fill-rule="evenodd" clip-rule="evenodd" d="M98.4319 0L98.1562 11.6211L101.71 13.6734L101.981 6.08249L98.4319 0Z" fill="#FAB51A"/>
<path fill-rule="evenodd" clip-rule="evenodd" d="M101.703 13.6744L112.2 8.04048L105.25 7.90527L101.882 9.7179L101.703 13.6744Z" fill="#DB0954"/>
<defs>
<radialGradient id="paint0_radial_17876_64815" cx="0" cy="0" r="1" gradientUnits="userSpaceOnUse" gradientTransform="translate(14.8429 13.1661) rotate(-180) scale(8.90974 8.08202)">
<stop stop-color="#FFDE51"/>
<stop offset="1" stop-color="#FE4080"/>
</radialGradient>
</defs>
</svg>
