<svg xmlns="http://www.w3.org/2000/svg" viewBox="0 0 200 80" fill="none"><path fill="#2195F2" d="M49.836 18.16h7.296c1.963 0 3.53.598 4.704 1.792 1.173 1.195 1.76 2.848 1.76 4.96 0 2.09-.619 3.733-1.856 4.928-1.216 1.195-2.837 1.792-4.864 1.792h-4.64v8.352h-2.4V18.16Zm6.976 11.488c1.43 0 2.517-.395 3.264-1.184.747-.81 1.12-1.994 1.12-3.552 0-1.557-.373-2.741-1.12-3.552-.747-.81-1.835-1.216-3.264-1.216h-4.576v9.504h4.576ZM67.6 39.984V25.008h2.177v14.976H67.6Zm1.089-17.888c-.49 0-.907-.17-1.248-.512a1.758 1.758 0 0 1-.48-1.248c0-.47.16-.864.48-1.184a1.698 1.698 0 0 1 1.248-.512c.47 0 .875.17 1.216.512.341.32.512.726.512 1.216 0 .47-.17.875-.512 1.216a1.661 1.661 0 0 1-1.216.512ZM88.9 25.008v14.976h-2.177v-2.208a6.84 6.84 0 0 1-2.272 2.016 6.248 6.248 0 0 1-2.944.704c-1.429 0-2.709-.341-3.84-1.024-1.13-.683-2.016-1.632-2.656-2.848-.64-1.216-.96-2.602-.96-4.16 0-1.536.31-2.901.928-4.096.64-1.216 1.515-2.165 2.624-2.848 1.131-.683 2.411-1.024 3.84-1.024 1.088 0 2.08.245 2.976.736a6.319 6.319 0 0 1 2.304 2.016v-2.24H88.9Zm-7.457 13.504c1.024 0 1.931-.256 2.72-.768.811-.512 1.44-1.227 1.888-2.144.448-.917.672-1.952.672-3.104 0-1.152-.224-2.187-.672-3.104-.448-.917-1.077-1.632-1.888-2.144-.789-.512-1.696-.768-2.72-.768-1.002 0-1.898.256-2.688.768-.789.512-1.408 1.227-1.856 2.144-.448.896-.672 1.92-.672 3.072 0 1.174.224 2.219.672 3.136.448.917 1.067 1.632 1.856 2.144.79.512 1.686.768 2.688.768ZM98.197 40.496c-1.45 0-2.73-.31-3.84-.928a6.176 6.176 0 0 1-2.496-2.624l1.952-.96c.79 1.685 2.336 2.528 4.64 2.528 1.11 0 2.027-.203 2.752-.608.725-.405 1.088-1.035 1.088-1.888 0-.874-.299-1.525-.896-1.952-.576-.426-1.6-.704-3.072-.832-2.048-.17-3.52-.63-4.416-1.376-.875-.747-1.312-1.739-1.312-2.976 0-1.386.501-2.464 1.504-3.232 1.003-.768 2.379-1.152 4.128-1.152 2.965 0 4.981 1.174 6.048 3.52l-1.952.96c-.363-.853-.896-1.482-1.6-1.888-.683-.405-1.568-.608-2.656-.608-1.11 0-1.963.203-2.56.608-.576.405-.864.982-.864 1.728 0 .704.31 1.28.928 1.728.64.427 1.728.704 3.264.832 1.899.17 3.307.64 4.224 1.408.939.747 1.408 1.739 1.408 2.976 0 1.003-.288 1.867-.864 2.592-.576.704-1.344 1.238-2.304 1.6a8.713 8.713 0 0 1-3.104.544ZM108.561 39.984V26.992h-2.56v-1.984h2.56v-4.96h2.176v4.96h3.456v1.984h-3.456v12.992h-2.176ZM123.933 24.496c.512 0 1.003.075 1.472.224v1.984a3.376 3.376 0 0 0-1.472-.32c-.917 0-1.77.256-2.56.768-.789.512-1.429 1.259-1.92 2.24-.469.96-.704 2.102-.704 3.424v7.168h-2.176V25.008h2.176v3.008c.576-1.11 1.302-1.973 2.176-2.592a5.173 5.173 0 0 1 3.008-.928ZM128.601 39.984V25.008h2.176v14.976h-2.176Zm1.088-17.888c-.491 0-.907-.17-1.248-.512a1.758 1.758 0 0 1-.48-1.248c0-.47.16-.864.48-1.184a1.697 1.697 0 0 1 1.248-.512c.469 0 .875.17 1.216.512.341.32.512.726.512 1.216 0 .47-.171.875-.512 1.216a1.661 1.661 0 0 1-1.216.512ZM147.723 39.984h-2.496l-3.904-6.24-3.904 6.24h-2.432l4.8-7.68-4.512-7.296h2.464l3.616 5.888 3.808-5.888h2.4l-4.704 7.264 4.864 7.712Z"/><path fill="#FFD833" d="M29.4 34.924c3.253 0 5.89-2.62 5.89-5.85 0-3.232-2.637-5.851-5.89-5.851-3.255 0-5.892 2.62-5.892 5.85 0 3.232 2.637 5.851 5.891 5.851Z"/><path fill="url(#a)" fill-rule="evenodd" d="M33.39 22.653a7.601 7.601 0 0 0-6.998-.518C17.236 7.113 30.048 0 30.048 0s13.096 7.274 3.342 22.653Zm-8.678.466c-1.962-3.225-3.118-6.336-3.468-9.332-4.466-3.25-9.7-3.712-12.31-3.712a15.76 15.76 0 0 0-1.652.072S4.91 24.38 22.158 26.772a7.574 7.574 0 0 1 2.554-3.653Zm-2.91 5.548c-.011.134-.011.268-.011.404 0 1.2.288 2.384.84 3.451-4.125 2.55-7.673 3.485-10.643 3.485C3.884 36.007 0 29.1 0 29.1s4.078-4.09 10.15-5.423c2.83 2.634 6.729 4.31 11.652 4.991Zm1.93 5.442c-3.856 2.399-7.586 3.678-11.123 3.814-3.946 5.412-3.914 11.82-3.914 11.82 1.148.277 2.326.411 3.507.398 4.517 0 12.109-1.892 14.93-13.86a7.637 7.637 0 0 1-3.4-2.172Zm5.66 2.517h-.35c-1.023 4.415-2.741 7.94-5.151 10.516C25.033 53.61 29.5 58.01 29.5 58.01s12.899-7.186 3.55-22.315a7.618 7.618 0 0 1-3.658.93Z" clip-rule="evenodd"/><defs><radialGradient id="a" cx="0" cy="0" r="1" gradientTransform="matrix(-17.8053 0 0 -17.8047 29.662 29.005)" gradientUnits="userSpaceOnUse"><stop stop-color="#FFDE51"/><stop offset="1" stop-color="#FE4080"/></radialGradient></defs></svg>