<svg width="99" height="27" viewBox="0 0 99 27" fill="none" xmlns="http://www.w3.org/2000/svg">
<path d="M78.969 10.3029C77.9254 10.3029 77.0968 10.0151 76.4831 9.43939C75.8694 8.86083 75.5625 8.04857 75.5625 7.00261C75.5625 5.9937 75.8694 5.18999 76.4831 4.59149C77.0999 3.99013 77.9301 3.68945 78.9737 3.68945C79.251 3.68945 79.5002 3.7037 79.7214 3.7322C79.9426 3.7607 80.1544 3.8006 80.3569 3.8519C80.5158 3.89466 80.6887 3.95308 80.8756 4.02718C81.0625 4.10128 81.2136 4.16541 81.3289 4.21956V5.7372H81.1513C81.0672 5.6688 80.9613 5.58757 80.8335 5.49352C80.7058 5.39662 80.5609 5.30257 80.3989 5.21137C80.237 5.12017 80.0578 5.04322 79.8616 4.98052C79.6684 4.91497 79.4659 4.88219 79.2541 4.88219C79.0018 4.88219 78.7697 4.91924 78.5578 4.99334C78.3491 5.06459 78.1497 5.18999 77.9597 5.36955C77.7852 5.532 77.6419 5.75145 77.5298 6.0279C77.4208 6.30436 77.3662 6.63068 77.3662 7.00689C77.3662 7.40304 77.4239 7.7365 77.5391 8.00725C77.6544 8.27515 77.8055 8.49175 77.9924 8.65706C78.1731 8.81666 78.374 8.93208 78.5952 9.00333C78.8195 9.07459 79.0423 9.11021 79.2634 9.11021C79.494 9.11021 79.7136 9.07601 79.9223 9.00761C80.131 8.93636 80.307 8.85798 80.4504 8.77248C80.6061 8.68413 80.7432 8.59436 80.8616 8.50315C80.9799 8.41195 81.0828 8.33073 81.17 8.25948H81.3289V9.75574C81.2011 9.80989 81.0532 9.87259 80.8849 9.94384C80.7167 10.0122 80.5438 10.0707 80.3662 10.1191C80.1482 10.179 79.9441 10.2246 79.7541 10.2559C79.5641 10.2873 79.3024 10.3029 78.969 10.3029Z" fill="white"/>
<path d="M87.9457 8.14405C87.9457 8.4547 87.8803 8.74113 87.7494 9.00333C87.6217 9.26269 87.4457 9.47501 87.2214 9.64032C86.9535 9.83697 86.6637 9.97662 86.3522 10.0593C86.0438 10.1391 85.6669 10.179 85.2214 10.179H82.3616V3.81343H87.4176V5.02754H84.0999V6.20318H85.2494C85.6669 6.20318 86.0407 6.23168 86.3709 6.28868C86.7011 6.34283 86.9971 6.46396 87.2588 6.65206C87.4986 6.82306 87.6731 7.03824 87.7821 7.29759C87.8912 7.55409 87.9457 7.83625 87.9457 8.14405ZM86.1419 8.19108C86.1419 8.08563 86.1295 7.98587 86.1046 7.89182C86.0796 7.79777 86.0251 7.71085 85.941 7.63105C85.8569 7.55409 85.7416 7.49282 85.5952 7.44722C85.4488 7.40162 85.2463 7.37882 84.9877 7.37882H84.0999V8.99906H84.9877C85.346 8.99906 85.6279 8.92923 85.8335 8.78958C86.0391 8.64993 86.1419 8.45043 86.1419 8.19108Z" fill="white"/>
<path d="M94.8055 10.179H93.0578V5.02754H90.6793V10.179H88.9317V3.81343H94.8055V10.179Z" fill="white"/>
<path d="M77.8796 15.4059H77.1805V13.3453H76.2291V15.4059H75.53V12.8597H77.8796V15.4059Z" fill="white"/>
<path d="M78.4571 15.4059V12.8597H80.3394V13.3453H79.1525V13.7916H80.2459V14.2773H79.1525V14.9202H80.3394V15.4059H78.4571Z" fill="white"/>
<path d="M82.9543 13.6634C82.9543 13.7819 82.9338 13.8948 82.8927 14.0019C82.8515 14.1091 82.7923 14.1986 82.7151 14.2704C82.6677 14.3149 82.6154 14.3559 82.5581 14.3935C82.502 14.4312 82.4397 14.4631 82.3712 14.4893C82.3026 14.5155 82.2279 14.536 82.1469 14.5509C82.0671 14.5657 81.9774 14.5731 81.8777 14.5731H81.5113V15.4059H80.8123V12.8597H81.8927C82.0534 12.8597 82.1917 12.8733 82.3076 12.9007C82.4247 12.9269 82.5307 12.9691 82.6254 13.0272C82.73 13.0911 82.811 13.1766 82.8684 13.2837C82.9257 13.3898 82.9543 13.5163 82.9543 13.6634ZM82.2366 13.6788C82.2366 13.6069 82.2179 13.5454 82.1805 13.4941C82.1431 13.4416 82.0983 13.4057 82.0459 13.3863C81.9799 13.3601 81.9163 13.3453 81.8553 13.3419C81.7955 13.3373 81.7138 13.335 81.6104 13.335H81.5113V14.0977H81.5599C81.626 14.0977 81.6883 14.0971 81.7469 14.096C81.8054 14.0949 81.8565 14.0909 81.9001 14.084C81.9375 14.0783 81.9768 14.0675 82.0179 14.0515C82.0603 14.0344 82.0927 14.0156 82.1151 13.9951C82.1624 13.9529 82.1942 13.909 82.2104 13.8634C82.2279 13.8178 82.2366 13.7563 82.2366 13.6788Z" fill="white"/>
<path d="M83.3282 15.4059V12.8597H85.2104V13.3453H84.0235V13.7916H85.117V14.2773H84.0235V14.9202H85.2104V15.4059H83.3282Z" fill="white"/>
<path d="M87.9095 14.6261C87.9095 14.7526 87.8833 14.8638 87.831 14.9596C87.7786 15.0553 87.7082 15.1345 87.6198 15.1972C87.5151 15.2725 87.3998 15.3261 87.274 15.358C87.1494 15.3899 86.9905 15.4059 86.7973 15.4059H85.6833V12.8597H86.6665C86.8709 12.8597 87.0254 12.8671 87.13 12.8819C87.236 12.8956 87.335 12.9252 87.4272 12.9708C87.5269 13.0198 87.6011 13.0854 87.6497 13.1675C87.6995 13.2495 87.7244 13.3442 87.7244 13.4513C87.7244 13.5756 87.6902 13.6862 87.6216 13.7831C87.5543 13.88 87.4609 13.9512 87.3413 13.9968V14.0105C87.5132 14.0436 87.6509 14.1114 87.7543 14.214C87.8578 14.3154 87.9095 14.4528 87.9095 14.6261ZM87.0142 13.5796C87.0142 13.5385 87.0023 13.4963 86.9786 13.453C86.9562 13.4097 86.9207 13.3784 86.8721 13.359C86.826 13.3407 86.7712 13.331 86.7076 13.3299C86.6453 13.3276 86.5518 13.3265 86.4272 13.3265H86.3786V13.8651H86.4665C86.5861 13.8651 86.6696 13.864 86.717 13.8617C86.7656 13.8594 86.8154 13.8475 86.8665 13.8258C86.9226 13.8019 86.9612 13.7688 86.9824 13.7266C87.0036 13.6845 87.0142 13.6354 87.0142 13.5796ZM87.1899 14.6141C87.1899 14.5355 87.1724 14.4739 87.1375 14.4294C87.1026 14.385 87.0503 14.3514 86.9805 14.3286C86.9381 14.3137 86.8796 14.3058 86.8048 14.3046C86.7313 14.3023 86.6322 14.3012 86.5076 14.3012H86.3786V14.939H86.416C86.598 14.939 86.7238 14.9379 86.7936 14.9356C86.8634 14.9333 86.9344 14.9179 87.0067 14.8894C87.0702 14.8644 87.1163 14.8279 87.145 14.78C87.1749 14.731 87.1899 14.6757 87.1899 14.6141Z" fill="white"/>
<path d="M90.8459 14.1336C90.8459 14.5452 90.7257 14.8689 90.4852 15.1049C90.2447 15.3409 89.9151 15.4589 89.4964 15.4589C89.0765 15.4589 88.7469 15.3397 88.5076 15.1015C88.2684 14.8621 88.1487 14.5395 88.1487 14.1336C88.1487 13.7244 88.2684 13.4012 88.5076 13.164C88.7469 12.9258 89.0765 12.8066 89.4964 12.8066C89.9151 12.8066 90.2447 12.9252 90.4852 13.1623C90.7257 13.3983 90.8459 13.7221 90.8459 14.1336ZM90.1244 14.1319C90.1244 13.9803 90.107 13.8515 90.0721 13.7454C90.0385 13.6383 89.993 13.5505 89.9357 13.4821C89.8758 13.4126 89.8079 13.363 89.7319 13.3333C89.6571 13.3025 89.5793 13.2872 89.4983 13.2872C89.4123 13.2872 89.3344 13.3014 89.2646 13.3299C89.1948 13.3573 89.1276 13.4069 89.0628 13.4787C89.0054 13.5448 88.9587 13.6326 88.9226 13.742C88.8877 13.8515 88.8702 13.982 88.8702 14.1336C88.8702 14.2898 88.8871 14.4198 88.9207 14.5235C88.9543 14.6261 89.0004 14.7122 89.059 14.7817C89.1188 14.8524 89.1867 14.9031 89.2628 14.9339C89.3388 14.9635 89.4173 14.9784 89.4983 14.9784C89.5805 14.9784 89.6603 14.9624 89.7375 14.9305C89.8148 14.8974 89.8814 14.8467 89.9375 14.7783C89.9973 14.7042 90.0434 14.6181 90.0758 14.5201C90.1082 14.4209 90.1244 14.2915 90.1244 14.1319Z" fill="white"/>
<path d="M93.8328 15.9907H93.1917V15.3973H91.6366V15.9907H90.9955V14.9185H91.1824C91.3132 14.67 91.4166 14.3679 91.4927 14.0122C91.5687 13.6554 91.6067 13.2712 91.6067 12.8597H93.5693V14.9185H93.8328V15.9907ZM92.8702 14.9185V13.3453H92.2609C92.2372 13.6531 92.1905 13.9421 92.1207 14.2123C92.0509 14.4813 91.9631 14.7167 91.8571 14.9185H92.8702Z" fill="white"/>
<path d="M77.8796 19.3289H77.1805V17.2683H76.2291V19.3289H75.53V16.7827H77.8796V19.3289Z" fill="white"/>
<path d="M80.9917 18.0567C80.9917 18.4682 80.8715 18.792 80.631 19.0279C80.3905 19.2639 80.0609 19.3819 79.6422 19.3819C79.2223 19.3819 78.8927 19.2628 78.6534 19.0245C78.4142 18.7851 78.2945 18.4625 78.2945 18.0567C78.2945 17.6474 78.4142 17.3242 78.6534 17.0871C78.8927 16.8488 79.2223 16.7297 79.6422 16.7297C80.0609 16.7297 80.3905 16.8482 80.631 17.0854C80.8715 17.3213 80.9917 17.6451 80.9917 18.0567ZM80.2702 18.0549C80.2702 17.9033 80.2528 17.7745 80.2179 17.6685C80.1842 17.5613 80.1388 17.4735 80.0814 17.4051C80.0216 17.3356 79.9537 17.286 79.8777 17.2564C79.8029 17.2256 79.7251 17.2102 79.6441 17.2102C79.5581 17.2102 79.4802 17.2244 79.4104 17.2529C79.3406 17.2803 79.2733 17.3299 79.2085 17.4017C79.1512 17.4678 79.1045 17.5556 79.0684 17.6651C79.0335 17.7745 79.016 17.905 79.016 18.0567C79.016 18.2128 79.0328 18.3428 79.0665 18.4465C79.1001 18.5491 79.1462 18.6352 79.2048 18.7048C79.2646 18.7754 79.3325 18.8262 79.4085 18.8569C79.4846 18.8866 79.5631 18.9014 79.6441 18.9014C79.7263 18.9014 79.8061 18.8854 79.8833 18.8535C79.9606 18.8205 80.0272 18.7697 80.0833 18.7013C80.1431 18.6272 80.1892 18.5412 80.2216 18.4431C80.254 18.3439 80.2702 18.2145 80.2702 18.0549Z" fill="white"/>
<path d="M84.8777 19.3289H84.1786V18.2003H83.2272V19.3289H82.5282V16.7827H83.2272V17.7147H84.1786V16.7827H84.8777V19.3289Z" fill="white"/>
<path d="M87.9899 18.0567C87.9899 18.4682 87.8696 18.792 87.6291 19.0279C87.3886 19.2639 87.059 19.3819 86.6403 19.3819C86.2204 19.3819 85.8908 19.2628 85.6515 19.0245C85.4123 18.7851 85.2927 18.4625 85.2927 18.0567C85.2927 17.6474 85.4123 17.3242 85.6515 17.0871C85.8908 16.8488 86.2204 16.7297 86.6403 16.7297C87.059 16.7297 87.3886 16.8482 87.6291 17.0854C87.8696 17.3213 87.9899 17.6451 87.9899 18.0567ZM87.2684 18.0549C87.2684 17.9033 87.2509 17.7745 87.216 17.6685C87.1824 17.5613 87.1369 17.4735 87.0796 17.4051C87.0198 17.3356 86.9518 17.286 86.8758 17.2564C86.8011 17.2256 86.7232 17.2102 86.6422 17.2102C86.5562 17.2102 86.4783 17.2244 86.4085 17.2529C86.3388 17.2803 86.2715 17.3299 86.2067 17.4017C86.1494 17.4678 86.1026 17.5556 86.0665 17.6651C86.0316 17.7745 86.0142 17.905 86.0142 18.0567C86.0142 18.2128 86.031 18.3428 86.0646 18.4465C86.0983 18.5491 86.1444 18.6352 86.2029 18.7048C86.2628 18.7754 86.3307 18.8262 86.4067 18.8569C86.4827 18.8866 86.5612 18.9014 86.6422 18.9014C86.7244 18.9014 86.8042 18.8854 86.8814 18.8535C86.9587 18.8205 87.0254 18.7697 87.0814 18.7013C87.1413 18.6272 87.1874 18.5412 87.2198 18.4431C87.2522 18.3439 87.2684 18.2145 87.2684 18.0549Z" fill="white"/>
<path d="M91.2478 19.3289H90.5525V17.6411L90.0459 18.7304H89.5693L89.0628 17.6411V19.3289H88.4048V16.7827H89.2104L89.8272 18.0396L90.4422 16.7827H91.2478V19.3289Z" fill="white"/>
<path d="M91.8254 19.3289V16.7827H93.7076V17.2683H92.5207V17.7147H93.6142V18.2003H92.5207V18.8433H93.7076V19.3289H91.8254Z" fill="white"/>
<path d="M96.3226 17.5864C96.3226 17.705 96.302 17.8178 96.2609 17.925C96.2198 18.0321 96.1606 18.1216 96.0833 18.1935C96.036 18.2379 95.9836 18.279 95.9263 18.3166C95.8702 18.3542 95.8079 18.3861 95.7394 18.4123C95.6709 18.4386 95.5961 18.4591 95.5151 18.4739C95.4353 18.4887 95.3456 18.4961 95.2459 18.4961H94.8796V19.3289H94.1805V16.7827H95.2609C95.4216 16.7827 95.56 16.7964 95.6758 16.8237C95.793 16.85 95.8989 16.8921 95.9936 16.9503C96.0983 17.0141 96.1793 17.0996 96.2366 17.2068C96.2939 17.3128 96.3226 17.4393 96.3226 17.5864ZM95.6048 17.6018C95.6048 17.53 95.5861 17.4684 95.5487 17.4171C95.5114 17.3647 95.4665 17.3288 95.4142 17.3094C95.3481 17.2832 95.2846 17.2683 95.2235 17.2649C95.1637 17.2604 95.0821 17.2581 94.9786 17.2581H94.8796V18.0207H94.9282C94.9942 18.0207 95.0565 18.0202 95.1151 18.019C95.1737 18.0179 95.2247 18.0139 95.2684 18.0071C95.3057 18.0014 95.345 17.9905 95.3861 17.9746C95.4285 17.9575 95.4609 17.9387 95.4833 17.9181C95.5307 17.876 95.5624 17.8321 95.5786 17.7865C95.5961 17.7409 95.6048 17.6793 95.6048 17.6018Z" fill="white"/>
<path d="M98.9955 16.7827L98.0665 18.8193C98.0117 18.9379 97.95 19.0314 97.8814 19.0998C97.8142 19.1682 97.7431 19.22 97.6684 19.2554C97.5936 19.2907 97.5188 19.3147 97.4441 19.3272C97.3693 19.3386 97.2908 19.3443 97.2086 19.3443C97.1226 19.3443 97.0223 19.3426 96.9076 19.3392C96.7942 19.3358 96.7182 19.3323 96.6796 19.3289V18.7885H96.7226C96.7338 18.7908 96.7512 18.7937 96.7749 18.7971C96.7986 18.8005 96.8285 18.8039 96.8646 18.8074C96.8945 18.8096 96.9269 18.8119 96.9618 18.8142C96.9967 18.8165 97.0285 18.8176 97.0572 18.8176C97.1406 18.8176 97.2191 18.8085 97.2927 18.7903C97.3674 18.7709 97.4173 18.7384 97.4422 18.6928L96.4123 16.7827H97.1674L97.7637 17.9763L98.2684 16.7827H98.9955Z" fill="white"/>
<path d="M76.0646 23.252V21.1914H75.2422V20.7057H77.5861V21.1914H76.7637V23.252H76.0646Z" fill="white"/>
<path d="M77.874 23.252V20.7057H79.7562V21.1914H78.5693V21.6377H79.6628V22.1234H78.5693V22.7663H79.7562V23.252H77.874Z" fill="white"/>
<path d="M82.6254 23.252H81.9263V21.1914H81.2235C81.2185 21.2906 81.2135 21.3835 81.2085 21.4701C81.2048 21.5556 81.2004 21.6371 81.1955 21.7147C81.1818 21.937 81.1593 22.1291 81.1282 22.2909C81.097 22.4517 81.0615 22.5833 81.0216 22.6859C80.978 22.7954 80.9338 22.8815 80.8889 22.9442C80.8441 23.0069 80.8017 23.0565 80.7618 23.0929C80.702 23.1477 80.6272 23.191 80.5375 23.2229C80.4478 23.2537 80.3593 23.2691 80.2721 23.2691C80.2135 23.2691 80.1494 23.2668 80.0796 23.2622C80.0098 23.2577 79.9656 23.2542 79.9469 23.252V22.6894H79.973C79.9855 22.6905 79.9973 22.6916 80.0085 22.6928C80.021 22.6939 80.0366 22.6945 80.0553 22.6945C80.0864 22.6945 80.1263 22.6899 80.1749 22.6808C80.2235 22.6717 80.2603 22.6563 80.2852 22.6346C80.3749 22.5571 80.436 22.4374 80.4684 22.2755C80.502 22.1125 80.5275 21.8777 80.545 21.571C80.5525 21.4308 80.5568 21.3048 80.5581 21.1931C80.5606 21.0814 80.5656 20.9189 80.573 20.7057H82.6254V23.252Z" fill="white"/>
<path d="M83.2011 23.252V20.7057H85.0833V21.1914H83.8964V21.6377H84.9899V22.1234H83.8964V22.7663H85.0833V23.252H83.2011Z" fill="white"/>
<path d="M88.5188 21.9592C88.5188 22.2659 88.4054 22.5087 88.1786 22.6877C87.9518 22.8655 87.6571 22.9687 87.2945 22.9972V23.2725H86.5992V22.9972C86.2366 22.9687 85.9419 22.8666 85.7151 22.6911C85.4883 22.5144 85.3749 22.2704 85.3749 21.9592C85.3749 21.6491 85.4852 21.4086 85.7057 21.2376C85.9263 21.0666 86.2241 20.9662 86.5992 20.9366V20.6801H87.2945V20.9366C87.6584 20.9605 87.9531 21.0592 88.1786 21.2324C88.4054 21.4046 88.5188 21.6468 88.5188 21.9592ZM87.8011 21.9489C87.8011 21.7882 87.7562 21.6571 87.6665 21.5556C87.5768 21.453 87.4528 21.3886 87.2945 21.3624V22.5731C87.4777 22.5366 87.6079 22.4676 87.6852 22.3662C87.7624 22.2636 87.8011 22.1245 87.8011 21.9489ZM86.5992 22.5731V21.3624C86.4347 21.3898 86.3089 21.4547 86.2216 21.5573C86.1356 21.6588 86.0927 21.7893 86.0927 21.9489C86.0927 22.1222 86.1332 22.2613 86.2142 22.3662C86.2952 22.4699 86.4235 22.5389 86.5992 22.5731Z" fill="white"/>
<path d="M91.4478 21.9797C91.4478 22.3913 91.3276 22.715 91.0871 22.951C90.8466 23.187 90.517 23.305 90.0983 23.305C89.6783 23.305 89.3487 23.1858 89.1095 22.9476C88.8702 22.7082 88.7506 22.3856 88.7506 21.9797C88.7506 21.5704 88.8702 21.2473 89.1095 21.0101C89.3487 20.7719 89.6783 20.6527 90.0983 20.6527C90.517 20.6527 90.8466 20.7713 91.0871 21.0084C91.3276 21.2444 91.4478 21.5682 91.4478 21.9797ZM90.7263 21.978C90.7263 21.8264 90.7089 21.6976 90.674 21.5915C90.6403 21.4844 90.5948 21.3966 90.5375 21.3282C90.4777 21.2587 90.4098 21.2091 90.3338 21.1794C90.259 21.1486 90.1811 21.1333 90.1001 21.1333C90.0142 21.1333 89.9363 21.1475 89.8665 21.176C89.7967 21.2034 89.7294 21.253 89.6646 21.3248C89.6073 21.3909 89.5606 21.4787 89.5244 21.5881C89.4895 21.6976 89.4721 21.8281 89.4721 21.9797C89.4721 22.1359 89.4889 22.2659 89.5226 22.3696C89.5562 22.4722 89.6023 22.5583 89.6609 22.6278C89.7207 22.6985 89.7886 22.7492 89.8646 22.78C89.9406 22.8096 90.0191 22.8245 90.1001 22.8245C90.1824 22.8245 90.2621 22.8085 90.3394 22.7766C90.4166 22.7435 90.4833 22.6928 90.5394 22.6244C90.5992 22.5503 90.6453 22.4642 90.6777 22.3662C90.7101 22.267 90.7263 22.1376 90.7263 21.978Z" fill="white"/>
<path d="M94.2123 23.252H93.5132V22.1234H92.5618V23.252H91.8628V20.7057H92.5618V21.6377H93.5132V20.7057H94.2123V23.252Z" fill="white"/>
<path d="M94.4908 23.252L95.431 20.7057H96.1936L97.1338 23.252H96.4142L96.2403 22.7321H95.3656L95.1917 23.252H94.4908ZM96.0871 22.2704L95.8029 21.4308L95.5188 22.2704H96.0871Z" fill="white"/>
<path fill-rule="evenodd" clip-rule="evenodd" d="M59.4688 26.9994L73.3455 19.6011L66.5682 19.4707L63.2491 21.2866L59.4688 26.9994Z" fill="#027E35"/>
<path fill-rule="evenodd" clip-rule="evenodd" d="M49.8125 5.82812L73.3611 19.6014L66.5838 19.471L53.2278 11.678L49.8125 5.82812Z" fill="#2683C9"/>
<path fill-rule="evenodd" clip-rule="evenodd" d="M49.8082 5.82812L49.5312 20.8066L53.1595 15.1697L53.2235 11.678L49.8082 5.82812Z" fill="#5A58A3"/>
<path fill-rule="evenodd" clip-rule="evenodd" d="M59.716 15.4679L49.5312 20.8084L53.1595 15.1715L56.3598 13.5098L59.716 15.4679Z" fill="#964A95"/>
<path fill-rule="evenodd" clip-rule="evenodd" d="M59.4688 26.9994L59.7047 15.4658L63.32 17.5755L63.2491 21.2866L59.4688 26.9994Z" fill="#62B22F"/>
<path fill-rule="evenodd" clip-rule="evenodd" d="M60.0625 0.0849609L73.6191 8.09877L66.779 7.964L63.5555 6.14807L60.0625 0.0849609Z" fill="#EE7024"/>
<path fill-rule="evenodd" clip-rule="evenodd" d="M60.0681 0.0849609L59.7969 11.669L63.2945 13.7147L63.5611 6.14807L60.0681 0.0849609Z" fill="#FAB51A"/>
<path fill-rule="evenodd" clip-rule="evenodd" d="M63.2891 13.7146L73.6193 8.09864L66.7792 7.96387L63.4653 9.77072L63.2891 13.7146Z" fill="#DB0954"/>
<path d="M0 0H27.9813V13.0901C27.9813 16.4467 26.0345 19.5414 22.8693 21.2261L13.9906 26.0303L5.12134 21.2261C1.95616 19.554 0.0135843 16.4467 0.0135843 13.0901V0H0Z" fill="#FFDD2D"/>
<path fill-rule="evenodd" clip-rule="evenodd" d="M7.53125 6.8877V10.9557C8.14255 10.3318 9.24289 9.90745 10.4927 9.90745H11.8647V14.6369C11.8647 15.8971 11.4979 16.9953 10.941 17.6067H17.0341C16.4772 16.9953 16.1409 15.8971 16.1409 14.6369V9.90745H17.4754C18.7387 9.90745 19.848 10.3318 20.4457 10.9557V6.8877H7.53125Z" fill="#333333"/>
</svg>
