<svg width="120" height="25" viewBox="0 0 120 25" fill="none" xmlns="http://www.w3.org/2000/svg">
<path d="M110.419 0.482685L88.1409 5.69868C87.0035 5.96497 86.3261 6.99026 86.6308 7.98408L90.6104 20.9617C90.9152 21.9555 92.0886 22.5474 93.226 22.2811L115.504 17.0651C116.641 16.7988 117.319 15.7736 117.014 14.7797L113.035 1.80216C112.73 0.808342 111.556 0.216392 110.419 0.482685Z" fill="#FF4F19"/>
<path d="M95.9095 16.6273L93.8466 17.1103C93.3909 17.217 92.9225 16.9807 92.8004 16.5825L92.6898 16.222C92.5677 15.8238 92.8382 15.4145 93.2939 15.3078L95.3568 14.8248C95.8125 14.7181 96.2809 14.9544 96.403 15.3526L96.5136 15.7131C96.6357 16.1113 96.3653 16.5206 95.9095 16.6273Z" fill="#B8BAC0"/>
<path d="M101.277 15.3724L99.2138 15.8554C98.7581 15.9621 98.2897 15.7258 98.1676 15.3276L98.057 14.9671C97.9349 14.5689 98.2053 14.1596 98.6611 14.0529L100.724 13.5699C101.18 13.4632 101.648 13.6995 101.77 14.0977L101.881 14.4582C102.003 14.8565 101.732 15.2657 101.277 15.3724Z" fill="#B8BAC0"/>
<path d="M106.644 14.1176L104.581 14.6005C104.125 14.7072 103.657 14.4709 103.535 14.0727L103.424 13.7122C103.302 13.314 103.573 12.9047 104.028 12.798L106.091 12.315C106.547 12.2083 107.015 12.4446 107.137 12.8428L107.248 13.2034C107.37 13.6016 107.1 14.0108 106.644 14.1176Z" fill="#B8BAC0"/>
<path d="M112.011 12.8607L109.948 13.3437C109.492 13.4504 109.024 13.2141 108.902 12.8159L108.791 12.4554C108.669 12.0572 108.94 11.6479 109.395 11.5412L111.458 11.0582C111.914 10.9515 112.382 11.1878 112.505 11.586L112.615 11.9465C112.737 12.3447 112.467 12.754 112.011 12.8607Z" fill="#B8BAC0"/>
<path d="M102.393 17.4395L94.1415 19.3715C93.9134 19.4249 93.6794 19.3067 93.6184 19.1076C93.5573 18.9085 93.6923 18.7039 93.9204 18.6505L102.172 16.7185C102.4 16.6651 102.634 16.7834 102.695 16.9824C102.756 17.1815 102.621 17.3862 102.393 17.4395Z" fill="#8A8895"/>
<path d="M107.722 16.1857L104.009 17.0551C103.781 17.1085 103.547 16.9903 103.486 16.7912C103.424 16.5921 103.56 16.3875 103.788 16.3341L107.501 15.4647C107.729 15.4113 107.963 15.5295 108.024 15.7286C108.085 15.9277 107.95 16.1323 107.722 16.1857Z" fill="#8A8895"/>
<path d="M110.877 2.20541L111.118 2.99199L111.6 4.56516L111.841 5.35175L89.3945 10.6073L88.4297 7.46094L110.877 2.20541Z" fill="#151515"/>
<path d="M117.871 7.82715H94.8074C93.6299 7.82715 92.6719 8.66429 92.6719 9.69317V23.1285C92.6719 24.1574 93.6299 24.9946 94.8074 24.9946H117.871C119.049 24.9946 120.007 24.1574 120.007 23.1285V9.69317C120.007 8.66429 119.049 7.82715 117.871 7.82715Z" fill="#1570C5"/>
<mask id="mask0_17876_64838" style="mask-type:alpha" maskUnits="userSpaceOnUse" x="92" y="7" width="29" height="18">
<path d="M117.871 7.82715H94.8074C93.6299 7.82715 92.6719 8.66429 92.6719 9.69317V23.1285C92.6719 24.1574 93.6299 24.9946 94.8074 24.9946H117.871C119.049 24.9946 120.007 24.1574 120.007 23.1285V9.69317C120.007 8.66429 119.049 7.82715 117.871 7.82715Z" fill="#1570C5"/>
</mask>
<g mask="url(#mask0_17876_64838)">
<ellipse cx="99.5013" cy="27.8005" rx="20.5013" ry="17.9138" fill="#2B87DE"/>
</g>
<path d="M102.074 15.2921H96.948C96.4762 15.2921 96.0938 14.958 96.0938 14.5457V11.5599C96.0938 11.1476 96.4762 10.8135 96.948 10.8135H102.074C102.545 10.8135 102.928 11.1476 102.928 11.5599V14.5457C102.928 14.958 102.545 15.2921 102.074 15.2921Z" fill="#FFD100"/>
<path d="M99.0837 20.1434H96.948C96.4762 20.1434 96.0938 19.8093 96.0938 19.397V19.0238C96.0938 18.6115 96.4762 18.2773 96.948 18.2773H99.0837C99.5555 18.2773 99.9379 18.6115 99.9379 19.0238V19.397C99.9379 19.8093 99.5555 20.1434 99.0837 20.1434Z" fill="white"/>
<path d="M104.631 20.1434H102.495C102.023 20.1434 101.641 19.8093 101.641 19.397V19.0238C101.641 18.6115 102.023 18.2773 102.495 18.2773H104.631C105.102 18.2773 105.485 18.6115 105.485 19.0238V19.397C105.485 19.8093 105.102 20.1434 104.631 20.1434Z" fill="white"/>
<path d="M110.177 20.1434H108.042C107.57 20.1434 107.188 19.8093 107.188 19.397V19.0238C107.188 18.6115 107.57 18.2773 108.042 18.2773H110.177C110.649 18.2773 111.032 18.6115 111.032 19.0238V19.397C111.032 19.8093 110.649 20.1434 110.177 20.1434Z" fill="white"/>
<path d="M115.748 20.1434H113.612C113.14 20.1434 112.758 19.8093 112.758 19.397V19.0238C112.758 18.6115 113.14 18.2773 113.612 18.2773H115.748C116.22 18.2773 116.602 18.6115 116.602 19.0238V19.397C116.602 19.8093 116.22 20.1434 115.748 20.1434Z" fill="white"/>
<path d="M105.063 22.3822H96.5209C96.2848 22.3822 96.0938 22.2151 96.0938 22.009C96.0938 21.8029 96.2848 21.6357 96.5209 21.6357H105.063C105.3 21.6357 105.491 21.8029 105.491 22.009C105.491 22.2151 105.3 22.3822 105.063 22.3822Z" fill="#8A8895"/>
<path d="M110.623 22.3822H106.779C106.543 22.3822 106.352 22.2151 106.352 22.009C106.352 21.8029 106.543 21.6357 106.779 21.6357H110.623C110.859 21.6357 111.05 21.8029 111.05 22.009C111.05 22.2151 110.859 22.3822 110.623 22.3822Z" fill="#8A8895"/>
<path d="M102.938 13.7992H98.1071V12.3578H102.938V12.1391H98.1071V10.8135H97.8125V15.2921H98.1071V14.0052H102.938V13.7992Z" fill="#E78700"/>
<path d="M114.055 15.2921C115.47 15.2921 116.618 14.2895 116.618 13.0528C116.618 11.8161 115.47 10.8135 114.055 10.8135C112.64 10.8135 111.492 11.8161 111.492 13.0528C111.492 14.2895 112.64 15.2921 114.055 15.2921Z" fill="white"/>
<path d="M24.5703 7.8291H28.1683C29.1362 7.8291 29.9094 8.08649 30.488 8.60128C31.0667 9.11607 31.356 9.82849 31.356 10.7386C31.356 11.6394 31.0509 12.3473 30.4407 12.8621C29.841 13.3768 29.0415 13.6342 28.042 13.6342H25.7539V17.2331H24.5703V7.8291ZM28.0105 12.7793C28.7153 12.7793 29.2519 12.6093 29.6201 12.2691C29.9883 11.9198 30.1724 11.4096 30.1724 10.7386C30.1724 10.0675 29.9883 9.55731 29.6201 9.20799C29.2519 8.85867 28.7153 8.68401 28.0105 8.68401H25.7539V12.7793H28.0105Z" fill="#2195F2"/>
<path d="M33.331 17.2331V10.7799H34.4041V17.2331H33.331ZM33.8675 9.52514C33.6256 9.52514 33.4204 9.4516 33.2521 9.30451C33.0943 9.15743 33.0154 8.97818 33.0154 8.76675C33.0154 8.56451 33.0943 8.39445 33.2521 8.25656C33.4204 8.10948 33.6256 8.03594 33.8675 8.03594C34.099 8.03594 34.2989 8.10948 34.4672 8.25656C34.6355 8.39445 34.7197 8.56911 34.7197 8.78054C34.7197 8.98277 34.6355 9.15743 34.4672 9.30451C34.2989 9.4516 34.099 9.52514 33.8675 9.52514Z" fill="#2195F2"/>
<path d="M43.8342 10.7799V17.2331H42.7611V16.2817C42.4561 16.6494 42.0826 16.939 41.6407 17.1504C41.1989 17.3526 40.7149 17.4538 40.1889 17.4538C39.484 17.4538 38.8528 17.3067 38.2952 17.0125C37.7377 16.7184 37.3011 16.3093 36.9854 15.7853C36.6698 15.2613 36.512 14.6638 36.512 13.9927C36.512 13.3309 36.6646 12.7426 36.9697 12.2278C37.2853 11.7038 37.7166 11.2947 38.2637 11.0006C38.8213 10.7064 39.4525 10.5593 40.1573 10.5593C40.6939 10.5593 41.1831 10.665 41.6249 10.8765C42.0773 11.0787 42.4561 11.3683 42.7611 11.7452V10.7799H43.8342ZM40.1573 16.5988C40.6623 16.5988 41.1094 16.4885 41.4987 16.2679C41.8985 16.0473 42.2088 15.7393 42.4298 15.3441C42.6507 14.9488 42.7611 14.5029 42.7611 14.0065C42.7611 13.5101 42.6507 13.0643 42.4298 12.669C42.2088 12.2737 41.8985 11.9658 41.4987 11.7452C41.1094 11.5245 40.6623 11.4142 40.1573 11.4142C39.6629 11.4142 39.221 11.5245 38.8318 11.7452C38.4425 11.9658 38.1374 12.2737 37.9165 12.669C37.6956 13.0551 37.5851 13.4963 37.5851 13.9927C37.5851 14.4983 37.6956 14.9488 37.9165 15.3441C38.1374 15.7393 38.4425 16.0473 38.8318 16.2679C39.221 16.4885 39.6629 16.5988 40.1573 16.5988Z" fill="#2195F2"/>
<path d="M48.4192 17.4538C47.7038 17.4538 47.0726 17.3205 46.5256 17.0539C45.989 16.7873 45.5787 16.4104 45.2947 15.9232L46.2573 15.5095C46.6465 16.2357 47.4093 16.5988 48.5455 16.5988C49.0925 16.5988 49.5449 16.5115 49.9026 16.3369C50.2603 16.1622 50.4391 15.891 50.4391 15.5233C50.4391 15.1464 50.2919 14.866 49.9973 14.6822C49.7132 14.4983 49.2083 14.3788 48.4823 14.3237C47.4724 14.2501 46.7465 14.0525 46.3046 13.7308C45.8733 13.409 45.6576 12.9816 45.6576 12.4484C45.6576 11.8509 45.9049 11.3866 46.3993 11.0557C46.8938 10.7248 47.5723 10.5593 48.435 10.5593C49.8973 10.5593 50.8915 11.0649 51.4175 12.0761L50.4549 12.4898C50.2761 12.122 50.0131 11.8509 49.6659 11.6762C49.3292 11.5015 48.8926 11.4142 48.3561 11.4142C47.809 11.4142 47.3882 11.5015 47.0937 11.6762C46.8096 11.8509 46.6676 12.0991 46.6676 12.4208C46.6676 12.7242 46.8201 12.9724 47.1252 13.1654C47.4408 13.3493 47.9774 13.4688 48.7348 13.5239C49.6712 13.5975 50.3655 13.7997 50.8179 14.1306C51.2808 14.4524 51.5122 14.8798 51.5122 15.413C51.5122 15.8451 51.3702 16.2174 51.0861 16.5299C50.8021 16.8333 50.4234 17.0631 49.9499 17.2193C49.4765 17.3756 48.9663 17.4538 48.4192 17.4538Z" fill="#2195F2"/>
<path d="M53.53 17.2331V11.6348H52.2676V10.7799H53.53V8.64265H54.6031V10.7799H56.3074V11.6348H54.6031V17.2331H53.53Z" fill="#2195F2"/>
<path d="M61.1109 10.5593C61.3634 10.5593 61.6054 10.5915 61.8368 10.6558V11.5107C61.6159 11.4188 61.3739 11.3729 61.1109 11.3729C60.6585 11.3729 60.2377 11.4832 59.8484 11.7038C59.4592 11.9244 59.1436 12.2461 58.9016 12.669C58.6702 13.0827 58.5544 13.5745 58.5544 14.1444V17.2331H57.4814V10.7799H58.5544V12.0761C58.8385 11.5981 59.1962 11.2258 59.6275 10.9592C60.0694 10.6926 60.5638 10.5593 61.1109 10.5593Z" fill="#2195F2"/>
<path d="M63.4128 17.2331V10.7799H64.4858V17.2331H63.4128ZM63.9493 9.52514C63.7073 9.52514 63.5022 9.4516 63.3339 9.30451C63.1761 9.15743 63.0972 8.97818 63.0972 8.76675C63.0972 8.56451 63.1761 8.39445 63.3339 8.25656C63.5022 8.10948 63.7073 8.03594 63.9493 8.03594C64.1807 8.03594 64.3806 8.10948 64.549 8.25656C64.7173 8.39445 64.8015 8.56911 64.8015 8.78054C64.8015 8.98277 64.7173 9.15743 64.549 9.30451C64.3806 9.4516 64.1807 9.52514 63.9493 9.52514Z" fill="#2195F2"/>
<path d="M72.8429 17.2331H71.612L69.6868 14.5443L67.7615 17.2331H66.5622L68.9293 13.9238L66.7042 10.7799H67.9194L69.7026 13.3171L71.5805 10.7799H72.764L70.4442 13.91L72.8429 17.2331Z" fill="#2195F2"/>
<path d="M14.4913 15.0521C16.0959 15.0521 17.3967 13.9233 17.3967 12.5309C17.3967 11.1385 16.0959 10.0098 14.4913 10.0098C12.8867 10.0098 11.5859 11.1385 11.5859 12.5309C11.5859 13.9233 12.8867 15.0521 14.4913 15.0521Z" fill="#FFD833"/>
<path fill-rule="evenodd" clip-rule="evenodd" d="M16.4726 9.76407C15.8819 9.44498 15.2001 9.27565 14.5043 9.27524C13.9943 9.27494 13.4897 9.36545 13.0216 9.54116C8.50592 3.06795 14.8243 0.00292969 14.8243 0.00292969C14.8243 0.00292969 21.2823 3.13737 16.4726 9.76407ZM12.1917 9.96454C11.2243 8.57493 10.6542 7.23454 10.4814 5.94335C8.2788 4.54331 5.69761 4.34387 4.41096 4.34387C4.13899 4.34184 3.86708 4.35228 3.59638 4.37515C3.59638 4.37515 2.42578 10.5081 10.9321 11.5386C11.161 10.9164 11.5998 10.368 12.1917 9.96454ZM10.7517 12.3555C10.7461 12.4132 10.7461 12.4709 10.7461 12.5295C10.7459 13.0468 10.8881 13.5566 11.1607 14.0166C9.12597 15.1155 7.37626 15.5183 5.9116 15.5183C1.91533 15.5183 0 12.5413 0 12.5413C0 12.5413 2.01109 10.7795 5.00576 10.2046C6.40057 11.3397 8.32379 12.0622 10.7517 12.3555ZM11.7108 14.7007C9.80899 15.7341 7.96915 16.2855 6.22508 16.3442C4.27933 18.676 4.2951 21.4369 4.2951 21.4369C4.86102 21.5568 5.44203 21.6146 6.02453 21.609C8.25194 21.609 11.9958 20.7936 13.3873 15.6364C12.7417 15.4609 12.1625 15.1377 11.7108 14.7007ZM14.5005 15.7851H14.3281C13.8234 17.6877 12.9761 19.207 11.7875 20.3167C12.3508 23.104 14.5534 24.9998 14.5534 24.9998C14.5534 24.9998 20.9146 21.9035 16.3043 15.3843C15.7516 15.6479 15.1311 15.7858 14.5005 15.7851Z" fill="url(#paint0_radial_17876_64838)"/>
<defs>
<radialGradient id="paint0_radial_17876_64838" cx="0" cy="0" r="1" gradientUnits="userSpaceOnUse" gradientTransform="translate(14.6328 12.5013) rotate(-180) scale(8.78361 7.67215)">
<stop stop-color="#FFDE51"/>
<stop offset="1" stop-color="#FE4080"/>
</radialGradient>
</defs>
</svg>
