<svg width="114" height="23" viewBox="0 0 114 23" fill="none" xmlns="http://www.w3.org/2000/svg">
<path fill-rule="evenodd" clip-rule="evenodd" d="M111.023 4.48633C111.699 5.18872 112.262 5.95893 112.741 6.77454L99.7241 14.4997L94.2578 11.7358V8.42831L99.6957 11.1696L111.023 4.48647V4.48633Z" fill="#21A038"/>
<path fill-rule="evenodd" clip-rule="evenodd" d="M88.695 11.508C88.695 11.3494 88.695 11.2136 88.7234 11.0549L85.4266 10.9189C85.4266 11.1001 85.3984 11.3041 85.3984 11.4853C85.3984 14.6568 87.0044 17.5342 89.5967 19.6182L91.9354 17.7379C89.9348 16.1521 88.695 13.9545 88.695 11.5078V11.508Z" fill="url(#paint0_linear_17876_64901)"/>
<path fill-rule="evenodd" clip-rule="evenodd" d="M99.6804 2.67398C99.8777 2.67398 100.047 2.67398 100.244 2.69668L100.413 0.0461355C100.188 0.0461355 99.9341 0.0234375 99.7089 0.0234375C95.7643 0.0234375 92.1859 1.31487 89.5938 3.39894L91.9324 5.27927C93.9046 3.67076 96.666 2.67398 99.6806 2.67398H99.6804Z" fill="url(#paint1_linear_17876_64901)"/>
<path fill-rule="evenodd" clip-rule="evenodd" d="M99.6934 20.3436C99.4963 20.3436 99.3272 20.3436 99.13 20.3209L98.9609 22.9716C99.1864 22.9716 99.4399 22.9941 99.6652 22.9941C103.61 22.9941 107.188 21.7028 109.78 19.6186L107.442 17.7383C105.47 19.3694 102.736 20.3436 99.6932 20.3436H99.6934Z" fill="url(#paint2_linear_17876_64901)"/>
<path fill-rule="evenodd" clip-rule="evenodd" d="M105.878 4.2138L108.668 2.56003C106.217 0.974215 103.089 0 99.6797 0V2.65068C101.99 2.67324 104.131 3.23959 105.878 4.2138Z" fill="url(#paint3_linear_17876_64901)"/>
<path fill-rule="evenodd" clip-rule="evenodd" d="M114.002 11.5078C114.002 10.8055 113.917 10.126 113.776 9.44629L110.705 11.2814C110.705 11.3493 110.705 11.44 110.705 11.5079C110.705 14.1132 109.296 16.4467 107.07 18.0552L109.296 20.0262C112.17 17.942 114.001 14.8836 114.001 11.5079L114.002 11.5078Z" fill="#21A038"/>
<path fill-rule="evenodd" clip-rule="evenodd" d="M99.6877 20.3442C96.4475 20.3442 93.5454 19.2116 91.545 17.4219L89.0938 19.2116C91.7141 21.545 95.4898 22.9949 99.6877 22.9949V20.3442Z" fill="url(#paint4_linear_17876_64901)"/>
<path fill-rule="evenodd" clip-rule="evenodd" d="M92.3296 4.96122L90.1037 2.99023C87.2016 5.09714 85.3984 8.13286 85.3984 11.5084H88.695C88.695 8.92576 90.1039 6.56974 92.3298 4.96122H92.3296Z" fill="url(#paint5_linear_17876_64901)"/>
<path d="M24.5391 7.2002H28.131C29.0972 7.2002 29.8692 7.43702 30.4468 7.91068C31.0245 8.38434 31.3133 9.03985 31.3133 9.87721C31.3133 10.7061 31.0087 11.3574 30.3996 11.8311C29.8009 12.3047 29.0027 12.5415 28.005 12.5415H25.7206V15.8529H24.5391V7.2002ZM27.9735 11.7549C28.6771 11.7549 29.2128 11.5985 29.5804 11.2855C29.948 10.9641 30.1318 10.4947 30.1318 9.87721C30.1318 9.25977 29.948 8.79034 29.5804 8.46892C29.2128 8.14751 28.6771 7.98681 27.9735 7.98681H25.7206V11.7549H27.9735Z" fill="#2195F2"/>
<path d="M33.285 15.8529V9.91527H34.3563V15.8529H33.285ZM33.8207 8.76073C33.5791 8.76073 33.3743 8.69307 33.2063 8.55773C33.0487 8.4224 32.97 8.25747 32.97 8.06293C32.97 7.87685 33.0487 7.72037 33.2063 7.5935C33.3743 7.45817 33.5791 7.3905 33.8207 7.3905C34.0517 7.3905 34.2513 7.45817 34.4193 7.5935C34.5874 7.72037 34.6714 7.88108 34.6714 8.07562C34.6714 8.2617 34.5874 8.4224 34.4193 8.55773C34.2513 8.69307 34.0517 8.76073 33.8207 8.76073Z" fill="#2195F2"/>
<path d="M43.7706 9.91527V15.8529H42.6994V14.9775C42.3948 15.3158 42.0219 15.5823 41.5808 15.7768C41.1397 15.9629 40.6566 16.0559 40.1314 16.0559C39.4278 16.0559 38.7976 15.9206 38.2409 15.6499C37.6843 15.3793 37.2484 15.0029 36.9334 14.5208C36.6183 14.0386 36.4607 13.4889 36.4607 12.8714C36.4607 12.2624 36.613 11.7211 36.9176 11.2474C37.2327 10.7653 37.6633 10.3889 38.2094 10.1183C38.7661 9.84761 39.3962 9.71228 40.0999 9.71228C40.6356 9.71228 41.1239 9.80955 41.5651 10.0041C42.0167 10.1902 42.3948 10.4566 42.6994 10.8034V9.91527H43.7706ZM40.0999 15.2693C40.6041 15.2693 41.0504 15.1678 41.439 14.9648C41.8381 14.7618 42.148 14.4785 42.3685 14.1148C42.5891 13.7511 42.6994 13.3408 42.6994 12.8841C42.6994 12.4274 42.5891 12.0171 42.3685 11.6534C42.148 11.2897 41.8381 11.0064 41.439 10.8034C41.0504 10.6004 40.6041 10.4989 40.0999 10.4989C39.6063 10.4989 39.1652 10.6004 38.7766 10.8034C38.388 11.0064 38.0834 11.2897 37.8628 11.6534C37.6423 12.0087 37.532 12.4147 37.532 12.8714C37.532 13.3366 37.6423 13.7511 37.8628 14.1148C38.0834 14.4785 38.388 14.7618 38.7766 14.9648C39.1652 15.1678 39.6063 15.2693 40.0999 15.2693Z" fill="#2195F2"/>
<path d="M48.3479 16.0559C47.6338 16.0559 47.0036 15.9333 46.4574 15.688C45.9218 15.4427 45.5122 15.0959 45.2286 14.6476L46.1896 14.267C46.5782 14.9352 47.3397 15.2693 48.474 15.2693C49.0201 15.2693 49.4717 15.189 49.8288 15.0283C50.1859 14.8675 50.3645 14.618 50.3645 14.2797C50.3645 13.9329 50.2174 13.6749 49.9233 13.5058C49.6398 13.3366 49.1356 13.2267 48.411 13.1759C47.4027 13.1082 46.678 12.9264 46.2369 12.6304C45.8063 12.3343 45.591 11.941 45.591 11.4504C45.591 10.9007 45.8378 10.4735 46.3314 10.169C46.825 9.86453 47.5025 9.71228 48.3637 9.71228C49.8236 9.71228 50.8161 10.1775 51.3412 11.1079L50.3802 11.4885C50.2017 11.1502 49.9391 10.9007 49.5925 10.7399C49.2564 10.5792 48.8206 10.4989 48.2849 10.4989C47.7388 10.4989 47.3187 10.5792 47.0246 10.7399C46.741 10.9007 46.5992 11.129 46.5992 11.4251C46.5992 11.7042 46.7515 11.9326 47.0561 12.1102C47.3712 12.2793 47.9068 12.3893 48.663 12.44C49.5978 12.5077 50.2909 12.6938 50.7426 12.9983C51.2047 13.2943 51.4357 13.6876 51.4357 14.1782C51.4357 14.5757 51.294 14.9183 51.0104 15.2059C50.7268 15.485 50.3487 15.6964 49.8761 15.8402C49.4035 15.984 48.8941 16.0559 48.3479 16.0559Z" fill="#2195F2"/>
<path d="M53.4502 15.8529V10.7019H52.1898V9.91527H53.4502V7.94875H54.5215V9.91527H56.2229V10.7019H54.5215V15.8529H53.4502Z" fill="#2195F2"/>
<path d="M61.0183 9.71228C61.2704 9.71228 61.5119 9.74188 61.743 9.80109V10.5877C61.5224 10.5031 61.2809 10.4608 61.0183 10.4608C60.5667 10.4608 60.1466 10.5623 59.758 10.7653C59.3694 10.9683 59.0543 11.2644 58.8127 11.6534C58.5817 12.0341 58.4661 12.4866 58.4661 13.011V15.8529H57.3949V9.91527H58.4661V11.1079C58.7497 10.6681 59.1068 10.3255 59.5374 10.0802C59.9785 9.83492 60.4722 9.71228 61.0183 9.71228Z" fill="#2195F2"/>
<path d="M63.3163 15.8529V9.91527H64.3876V15.8529H63.3163ZM63.8519 8.76073C63.6104 8.76073 63.4056 8.69307 63.2375 8.55773C63.08 8.4224 63.0012 8.25747 63.0012 8.06293C63.0012 7.87685 63.08 7.72037 63.2375 7.5935C63.4056 7.45817 63.6104 7.3905 63.8519 7.3905C64.083 7.3905 64.2826 7.45817 64.4506 7.5935C64.6186 7.72037 64.7027 7.88108 64.7027 8.07562C64.7027 8.2617 64.6186 8.4224 64.4506 8.55773C64.2826 8.69307 64.083 8.76073 63.8519 8.76073Z" fill="#2195F2"/>
<path d="M72.7306 15.8529H71.5018L69.5798 13.3789L67.6578 15.8529H66.4605L68.8236 12.808L66.6023 9.91527H67.8153L69.5955 12.2497L71.4703 9.91527H72.6518L70.336 12.7953L72.7306 15.8529Z" fill="#2195F2"/>
<path d="M14.463 13.8465C16.0649 13.8465 17.3635 12.8079 17.3635 11.5268C17.3635 10.2456 16.0649 9.20703 14.463 9.20703C12.8611 9.20703 11.5625 10.2456 11.5625 11.5268C11.5625 12.8079 12.8611 13.8465 14.463 13.8465Z" fill="#FFD833"/>
<path fill-rule="evenodd" clip-rule="evenodd" d="M16.4315 8.98131C15.8418 8.68771 15.1612 8.53191 14.4665 8.53152C13.9574 8.53125 13.4536 8.61453 12.9863 8.7762C8.47824 2.82015 14.786 0 14.786 0C14.786 0 21.2331 2.88402 16.4315 8.98131ZM12.1683 9.166C11.2025 7.88741 10.6333 6.6541 10.4609 5.46607C8.26193 4.17788 5.68508 3.99437 4.40059 3.99437C4.12907 3.9925 3.85762 4.00211 3.58738 4.02315C3.58738 4.02315 2.41874 9.66616 10.9108 10.6143C11.1393 10.0418 11.5773 9.53724 12.1683 9.166ZM10.7337 11.3658C10.7281 11.4188 10.7281 11.4719 10.7281 11.5259C10.7279 12.0018 10.8698 12.4709 11.142 12.8941C9.11065 13.9053 7.36388 14.2759 5.90168 14.2759C1.91211 14.2759 0 11.5367 0 11.5367C0 11.5367 2.00772 9.91567 4.99736 9.38672C6.38983 10.4311 8.30981 11.0959 10.7337 11.3658ZM11.6847 13.5234C9.78608 14.4743 7.94933 14.9816 6.20818 15.0356C4.2657 17.1811 4.28145 19.7215 4.28145 19.7215C4.84642 19.8318 5.42645 19.885 6.00797 19.8798C8.23165 19.8798 11.9693 19.1296 13.3584 14.3843C12.7139 14.2229 12.1357 13.9255 11.6847 13.5234ZM14.4675 14.5212H14.2954C13.7915 16.2717 12.9456 17.6697 11.759 18.6907C12.3214 21.2553 14.5203 22.9996 14.5203 22.9996C14.5203 22.9996 20.8708 20.1507 16.2682 14.1523C15.7165 14.3949 15.097 14.5217 14.4675 14.5212Z" fill="url(#paint6_radial_17876_64901)"/>
<defs>
<linearGradient id="paint0_linear_17876_64901" x1="89.2553" y1="19.6306" x2="88.3932" y2="11.1949" gradientUnits="userSpaceOnUse">
<stop stop-color="#F2E913"/>
<stop offset="0.14902" stop-color="#F2E913"/>
<stop offset="0.301961" stop-color="#E7E518"/>
<stop offset="0.580392" stop-color="#CADB26"/>
<stop offset="0.890196" stop-color="#A3CD39"/>
<stop offset="1" stop-color="#A3CD39"/>
</linearGradient>
<linearGradient id="paint1_linear_17876_64901" x1="90.5326" y1="3.24794" x2="99.7362" y2="1.66591" gradientUnits="userSpaceOnUse">
<stop stop-color="#0FA8E0"/>
<stop offset="0.0588235" stop-color="#0FA8E0"/>
<stop offset="0.541176" stop-color="#0099F9"/>
<stop offset="0.921569" stop-color="#0291EB"/>
<stop offset="1" stop-color="#0291EB"/>
</linearGradient>
<linearGradient id="paint2_linear_17876_64901" x1="98.7685" y1="20.6947" x2="109.243" y2="19.6265" gradientUnits="userSpaceOnUse">
<stop stop-color="#A3CD39"/>
<stop offset="0.121569" stop-color="#A3CD39"/>
<stop offset="0.290196" stop-color="#86C339"/>
<stop offset="0.870588" stop-color="#21A038"/>
<stop offset="1" stop-color="#21A038"/>
</linearGradient>
<linearGradient id="paint3_linear_17876_64901" x1="99.0029" y1="1.76214" x2="107.939" y2="2.92116" gradientUnits="userSpaceOnUse">
<stop stop-color="#0291EB"/>
<stop offset="0.0509804" stop-color="#0291EB"/>
<stop offset="0.788235" stop-color="#0C8ACB"/>
<stop offset="1" stop-color="#0C8ACB"/>
</linearGradient>
<linearGradient id="paint4_linear_17876_64901" x1="89.9317" y1="19.5206" x2="99.5861" y2="21.4293" gradientUnits="userSpaceOnUse">
<stop stop-color="#F2E913"/>
<stop offset="0.129412" stop-color="#F2E913"/>
<stop offset="0.301961" stop-color="#EBE716"/>
<stop offset="0.529412" stop-color="#D9E01F"/>
<stop offset="0.8" stop-color="#BBD62D"/>
<stop offset="0.980392" stop-color="#A3CD39"/>
<stop offset="1" stop-color="#A3CD39"/>
</linearGradient>
<linearGradient id="paint5_linear_17876_64901" x1="87.9062" y1="10.8857" x2="89.0107" y2="2.5932" gradientUnits="userSpaceOnUse">
<stop stop-color="#A3CD39"/>
<stop offset="0.0705882" stop-color="#A3CD39"/>
<stop offset="0.258824" stop-color="#81C55F"/>
<stop offset="0.921569" stop-color="#0FA8E0"/>
<stop offset="1" stop-color="#0FA8E0"/>
</linearGradient>
<radialGradient id="paint6_radial_17876_64901" cx="0" cy="0" r="1" gradientUnits="userSpaceOnUse" gradientTransform="translate(14.5975 11.4998) rotate(-180) scale(8.76241 7.05915)">
<stop stop-color="#FFDE51"/>
<stop offset="1" stop-color="#FE4080"/>
</radialGradient>
</defs>
</svg>
