<svg xmlns="http://www.w3.org/2000/svg" width="128" height="44" fill="none"><path fill="#FCB316" d="M53.81 37.576c-.146-.398-.41-.67-.6-1.023-.462-.607-1.007-1.132-1.551-1.657-.19-.064-.272-.245-.454-.318-.118-.154-.308-.235-.462-.353a9.18 9.18 0 0 0-.99-.634c-.653-.416-1.46-.679-2.258-.95a26.755 26.755 0 0 0-2.713-.49c-.934-.136-1.869-.263-2.576-.634-.409-.117-.708-.344-1.062-.525-.327-.218-.68-.399-.953-.67-.335-.2-.544-.535-.807-.806-.09-.182-.245-.29-.318-.49-.09-.036-.117-.144-.172-.208-.063-.072-.063-.217-.172-.244-.055.371-.037.815 0 1.195.045.163.063.363.109.526.027.144.163.38.108.489-2.83-.145-4.899-1.042-6.695-2.22-.889-.588-1.651-1.304-2.359-2.073-.308-.426-.644-.834-.916-1.305-.281-.462-.517-.987-.771-1.476-.418-1.06-.808-2.147-.953-3.478-.19-1.24-.145-2.826.136-3.976.1-.634.309-1.168.49-1.72.118-.255.245-.508.354-.77.154-.218.236-.517.426-.707.518-.97 1.289-1.694 2.078-2.391a8.76 8.76 0 0 1 2.994-1.44c1.125-.254 2.658-.3 3.874-.037 2.467.508 4.327 1.613 5.888 3.025 1.578 1.386 2.794 3.143 3.629 5.28.861 2.03 1.16 5.19.39 7.491-.318-.181-.635-.353-.953-.525-.38-.109-.753-.236-1.197-.281-.536-.01-1.062 0-1.407.172.699-.072 1.261.118 1.697.28.254.1.4.164.599.282.39.226.735.434 1.025.742.825.725 1.415 1.685 1.696 2.953 0 .036.046.027.037-.036.036-.01.054-.037.072-.073.046-.054.1-.109.145-.172.091-.109.182-.217.245-.353.19-.227.345-.48.49-.743.336-.489.59-1.05.88-1.585a16.819 16.819 0 0 0 1.162-3.768c.508-3.097-.1-6.032-1.162-8.196-1.088-2.183-2.612-3.931-4.581-5.244-1.987-1.305-4.31-2.265-7.503-2.355-.018-.064-.045.009-.109 0-1.687-.054-3.048.181-4.4.525-.626.208-1.28.39-1.833.67-.635.209-1.143.553-1.723.806-.21.2-.527.3-.744.49-.282.135-.49.353-.771.489-.454.398-.935.751-1.38 1.159-.435.399-.816.851-1.233 1.268-.064.145-.173.244-.282.353a1.183 1.183 0 0 1-.28.353c-.046.163-.191.227-.246.39-.118.09-.145.272-.281.353-.118.29-.327.498-.463.77-.163.263-.29.552-.453.806-.254.589-.526 1.16-.735 1.793-.218.616-.4 1.268-.526 1.975-.136.66-.264 1.521-.245 2.219-.091.253-.019.724 0 1.023 0 .055-.037.073-.037.109 0 .335.091.743.11.95.072.77.208 1.486.426 2.111.136.698.426 1.241.635 1.866.317.525.535 1.15.916 1.621.281.553.68.987 1.062 1.44.408.435.816.879 1.306 1.232.898.779 1.95 1.404 3.103 1.938 2.15 1.042 5.361 1.721 8.246 1.549.735-.1 1.48-.19 2.15-.353.617-.227 1.334-.363 2.078-.453 1.697-.109 3.166.045 4.473.426 1.324.353 2.468.887 3.456 1.585.527.308.962.706 1.407 1.087.453.389.816.869 1.233 1.304.055.163.164.28.245.425.11.118.055.39.318.354.163-.163-.027-.399-.036-.598-.164-.172-.2-.399-.327-.544Z"/><path fill="#FCB316" d="M47.222 27.91c-.036 0-.045.027-.072.036-.063.136-.036.353 0 .49.19.389.254.896.671 1.059.2-.064.182-.354.173-.634-.091-.344-.218-.652-.427-.879-.145-.054-.245-.145-.345-.072Zm-2.467.987c0-.018-.027-.036-.036 0-.345-.045-.463.145-.636.28-.299.789.182 1.559 1.026 1.55.335-.082.544-.3.599-.67-.046-.662-.327-1.087-.953-1.16Z"/><path fill="#0269B3" d="M69.857 26.408c.136.57.427.978.753 1.359.327.38.708.697 1.17.933.436.271.908.498 1.452.652.263.09.517.199.844.235.227.127.499.19.517.516-.01.39-.272.535-.608.607-.336-.072-.753-.063-1.034-.19-.708-.081-1.28-.308-1.878-.516a8.445 8.445 0 0 1-2.903-1.875c-.163-.272-.39-.49-.563-.752-.172-.262-.29-.58-.472-.842-1.397-.181-2.35-.815-3.184-1.549-.77-.878-1.388-1.93-1.642-3.324-.3-1.34-.209-3.016.145-4.311.771-2.509 2.386-4.175 5.434-4.402.844.027 1.58.127 2.25.38.68.245 1.325.698 1.833 1.169.045.036.063.045.09.09.11.155.373.372.518.562.027.036.018.1.045.145.055.082.136.118.19.19.028.046.019.1.046.136a3.5 3.5 0 0 1 .136.236c.018.036.082.063.09.09.082.154.119.344.191.516.073.181.173.335.236.517.182.534.3 1.168.372 1.82.182 1.884-.19 3.569-.889 4.819a5.177 5.177 0 0 1-1.315 1.639c-.49.516-1.162.824-1.824 1.15Zm-2.25-11.792c-.408.027-.653.217-.989.326-.217.199-.49.353-.653.607-.272.154-.344.498-.562.697-.182.453-.354.96-.472 1.549-.109.58-.181 1.231-.19 1.875-.01 1.612.335 3.215.98 4.166.38.462.843.842 1.405 1.123.327.027.581.136.935.145.2-.073.526 0 .653-.145.29.018.354-.172.608-.19.136-.136.281-.245.472-.326.172-.19.335-.38.517-.562.09-.136.145-.326.281-.425.817-1.558.907-4.411.372-6.223a5.526 5.526 0 0 0-.798-1.64 4.617 4.617 0 0 0-1.216-.887c-.372-.081-.726-.18-1.216-.136-.027 0-.054.01-.045.046h-.082Zm9.898-1.314c.735.028 1.597-.063 2.25.046.145.226.09.498.09.752.055 3.432 0 7.118 0 10.624 0 .28.01.57 0 .842-.008.235.055.489-.09.706-.327.082-.798.046-1.216.046-.444 0-.88.063-1.17-.091a333.6 333.6 0 0 1 0-12.78.2.2 0 0 1 .136-.145Zm5.625 0h2.204c.2.272.263.68.327 1.078a302.533 302.533 0 0 1 1.923 7.626c.145.018.1-.154.145-.235.064-.064.028-.218.091-.28.027-.21.154-.318.145-.563.163-.317.218-.751.372-1.077.19-.761.445-1.467.662-2.201.21-.76.49-1.45.654-2.246.308-.643.38-1.522.753-2.102h.934c.336.634.463 1.477.753 2.156.19.76.454 1.45.653 2.2.463 1.46.944 2.9 1.361 4.403.19-.281.19-.752.327-1.078.081-.372.154-.752.28-1.078.364-1.485.709-2.98 1.126-4.402.154-.742.308-1.503.562-2.155a7.595 7.595 0 0 1 1.924 0c.045.552-.21 1.15-.372 1.64-.091.597-.309 1.059-.427 1.638-.335 1.06-.59 2.183-.934 3.234-.263 1.123-.617 2.155-.89 3.279-.18.516-.308 1.086-.471 1.639-.181.507-.245 1.132-.517 1.549h-1.316c-.335-.59-.453-1.386-.753-2.011-.653-2.065-1.379-4.049-2.014-6.132-.217.227-.217.689-.372.978-.1.354-.2.707-.326 1.033-.182.715-.454 1.322-.608 2.056-.263.643-.454 1.358-.653 2.065-.272.616-.372 1.404-.708 1.965-.345.109-.889.018-1.315.046-.327-.372-.363-1.042-.563-1.55-.154-.524-.263-1.104-.462-1.593-.254-1.142-.635-2.147-.89-3.279-.335-1.05-.626-2.146-.934-3.233-.172-.517-.3-1.07-.472-1.594-.081-.562-.462-1.07-.326-1.685.018-.045.072-.072.127-.09Zm18.516 0c.735.028 1.588-.063 2.25.046.163.489.091 1.014.091 1.54v9.826c0 .535.063 1.051-.091 1.55-.508.053-1.252.08-1.878.044-.182-.009-.399.046-.517-.09-.163-.49-.091-1.006-.091-1.549v-9.727c0-.589-.054-1.16.091-1.549a.306.306 0 0 1 .145-.09Z"/></svg>