<svg xmlns="http://www.w3.org/2000/svg" width="129" height="44" fill="none"><path fill="#fff" d="M66.958 28.222c-1.968 0-3.531-.566-4.689-1.697-1.157-1.137-1.736-2.733-1.736-4.788 0-1.983.579-3.562 1.736-4.738 1.164-1.182 2.73-1.772 4.698-1.772a9.807 9.807 0 0 1 2.609.32c.299.083.625.198.977.343.353.146.638.272.855.378v2.982h-.335a16.096 16.096 0 0 0-.599-.479 7.177 7.177 0 0 0-.82-.554 5.313 5.313 0 0 0-1.013-.453 3.412 3.412 0 0 0-1.146-.194c-.476 0-.913.073-1.313.219-.393.14-.77.386-1.128.739-.329.32-.6.75-.81 1.294-.206.543-.309 1.184-.309 1.923 0 .779.109 1.434.326 1.966.217.526.502.952.855 1.277.34.313.72.54 1.137.68.423.14.843.21 1.26.21.435 0 .849-.067 1.243-.201.393-.14.725-.294.995-.462.294-.174.553-.35.776-.53.223-.179.417-.338.582-.478h.3v2.94l-.838.37c-.317.134-.643.249-.978.344-.411.117-.796.207-1.155.269-.358.061-.852.092-1.48.092ZM83.887 23.98c0 .61-.123 1.173-.37 1.688-.24.51-.573.927-.996 1.252a4.775 4.775 0 0 1-1.639.823c-.582.157-1.292.235-2.133.235h-5.393V15.47h9.535v2.386h-6.257v2.31h2.168c.788 0 1.493.056 2.115.168.623.106 1.181.344 1.675.714.452.336.781.759.987 1.269.206.503.308 1.058.308 1.663Zm-3.401.092c0-.207-.024-.403-.07-.588a1.102 1.102 0 0 0-.31-.512 1.683 1.683 0 0 0-.651-.362c-.277-.09-.659-.134-1.146-.134h-1.675v3.184h1.675c.675 0 1.207-.137 1.595-.412.388-.274.582-.666.582-1.176ZM96.825 27.978h-3.296V17.856h-4.486v10.122h-3.296V15.47h11.078v12.508Z"/><path fill="#027E35" fill-rule="evenodd" d="m40.844 35.44 13.032-7.541-6.365-.133-3.117 1.85-3.55 5.824Z" clip-rule="evenodd"/><path fill="#2683C9" fill-rule="evenodd" d="m31.797 13.86 22.116 14.038-6.365-.133-12.544-7.943-3.207-5.963Z" clip-rule="evenodd"/><path fill="#5A58A3" fill-rule="evenodd" d="m31.76 13.86-.26 15.267 3.407-5.746.06-3.559-3.207-5.963Z" clip-rule="evenodd"/><path fill="#964A95" fill-rule="evenodd" d="M41.065 23.683 31.5 29.127l3.407-5.746 3.006-1.694 3.152 1.996Z" clip-rule="evenodd"/><path fill="#62B22F" fill-rule="evenodd" d="m40.844 35.44.221-11.756 3.396 2.15-.067 3.783-3.55 5.823Z" clip-rule="evenodd"/><path fill="#EE7024" fill-rule="evenodd" d="m41.397 8.004 12.731 8.168-6.424-.137-3.027-1.851-3.28-6.18Z" clip-rule="evenodd"/><path fill="#FAB51A" fill-rule="evenodd" d="m41.395 8.004-.254 11.807 3.285 2.086.25-7.713-3.28-6.18Z" clip-rule="evenodd"/><path fill="#DB0954" fill-rule="evenodd" d="m44.422 21.897 9.702-5.724-6.424-.138-3.113 1.842-.165 4.02Z" clip-rule="evenodd"/></svg>