<svg width="129" height="44" viewBox="0 0 129 44" fill="none" xmlns="http://www.w3.org/2000/svg">
<path d="M35.8769 34C41.8917 34 46.7676 28.6274 46.7676 22C46.7676 15.3726 41.8917 10 35.8769 10C29.8622 10 24.9863 15.3726 24.9863 22C24.9863 28.6274 29.8622 34 35.8769 34Z" fill="#26A17B"/>
<path d="M37.0333 23.1159V23.114C36.958 23.1198 36.5693 23.1449 35.7044 23.1449C35.0127 23.1449 34.5277 23.1237 34.3562 23.114V23.1159C31.6965 22.9867 29.7128 22.4774 29.7128 21.8658C29.7128 21.2561 31.6983 20.7449 34.3562 20.6156V22.6085C34.5295 22.6221 35.0285 22.6549 35.7166 22.6549C36.543 22.6549 36.9562 22.6163 37.0333 22.6085V20.6176C39.6877 20.7487 41.6662 21.2581 41.6662 21.8677C41.6662 22.4774 39.6859 22.9867 37.0333 23.1179M37.0333 20.4111V18.6285H40.7364V15.9102H30.6547V18.6285H34.3579V20.4111C31.3481 20.5635 29.0859 21.2195 29.0859 22.0066C29.0859 22.7938 31.3499 23.4497 34.3579 23.604V29.3185H37.035V23.604C40.0396 23.4516 42.2983 22.7957 42.2983 22.0085C42.2983 21.2233 40.0396 20.5655 37.035 20.4131" fill="white"/>
<path d="M56.0187 16.6453V19.5276H58.5609V21.6903H56.0012V26.0755C56.0012 27.044 56.4862 27.5167 57.197 27.5167C57.5524 27.5167 57.9639 27.3932 58.3001 27.208L58.9356 29.3495C58.2826 29.6369 57.7398 29.7604 57.0482 29.7816C55.0487 29.8646 53.7408 28.6086 53.7408 26.0755V21.6903H52.0215V19.5276H53.7408V16.9135L56.0187 16.6453ZM99.848 19.3926L100.016 20.5656C100.727 19.3096 101.679 19.1244 102.614 19.1244C103.567 19.1244 104.482 19.5353 104.987 20.091L103.959 22.273C103.491 21.8408 103.063 21.6132 102.315 21.6132C101.119 21.6132 100.016 22.3135 100.016 24.1868V29.5405H97.7364V19.3887L99.848 19.3926ZM94.261 23.2839C94.1121 21.9662 93.1772 21.3064 91.8693 21.3064C90.6367 21.3064 89.6264 21.9662 89.2903 23.2839H94.261ZM89.2535 25.3636C89.4023 26.6196 90.3933 27.5263 92.0006 27.5263C92.841 27.5263 93.9441 27.1752 94.4676 26.5791L95.9243 28.1649C94.9526 29.2762 93.3645 29.8125 91.9621 29.8125C88.786 29.8125 86.8968 27.6498 86.8968 24.3971C86.8968 21.3083 88.8035 19.0839 91.794 19.0839C94.8773 19.0839 96.8032 21.1849 96.4478 25.3636H89.2535ZM79.2001 15.1289V20.7701C80.023 19.5971 81.0315 19.2459 82.0785 19.2459C84.6943 19.2459 85.8533 21.2022 85.8533 24.1887V29.5424H83.5737V24.2099C83.5737 22.3559 82.6948 21.5746 81.4797 21.5746C80.1333 21.5746 79.2001 22.8305 79.2001 24.3546V29.5443H76.9205V15.1308L79.2001 15.1289ZM73.1456 16.5295V19.4119H75.6879V21.5746H73.1281V25.9598C73.1281 26.9283 73.6148 27.4009 74.3239 27.4009C74.6794 27.4009 75.0908 27.2775 75.427 27.0922L76.0625 29.2337C75.4095 29.5212 74.8667 29.6447 74.1751 29.6659C72.1756 29.7488 70.8677 28.491 70.8677 25.9598V21.5746H69.1484V19.4119H70.8677V16.7977L73.1456 16.5295ZM66.8478 23.2839C66.6989 21.9662 65.764 21.3064 64.4561 21.3064C63.2235 21.3064 62.2132 21.9662 61.8771 23.2839H66.8478ZM61.8403 25.3636C61.9891 26.6196 62.9801 27.5263 64.5874 27.5263C65.4278 27.5263 66.5309 27.1752 67.0544 26.5791L68.5111 28.1649C67.5394 29.2762 65.9513 29.8125 64.5489 29.8125C61.3711 29.8125 59.4836 27.6498 59.4836 24.3971C59.4836 21.3083 61.3903 19.0839 64.379 19.0839C67.4623 19.0839 69.3865 21.1849 69.0328 25.3636H61.8403Z" fill="white"/>
</svg>
