<svg xmlns="http://www.w3.org/2000/svg" width="222" height="68" fill="none"><path fill="#D61719" d="M12.711 34.233c-7.3-18.4-13-33.8-12.7-34.2.4-.3 12.3 1.5 26.4 4l25.8 4.7 6.7 6.7 6.6 6.8-18.6 22.7c-10.3 12.5-19.2 22.7-19.8 22.7-.6.1-7-15-14.4-33.4Zm15.6 6.7c.9-7.3 1.5-13.4 1.3-13.6-.2-.1-4.2-3.4-8.9-7.2-13.3-10.9-12.4-10.4-10.8-6.4.8 1.9 4.8 11.9 8.9 22.2 4.1 10.2 7.5 18.5 7.6 18.4.1-.1 1-6.1 1.9-13.4Zm15.7-.7c6.4-7.7 11.4-14.1 11.3-14.3-.3-.3-19.8 3-20.4 3.4-.5.3-3.1 20.1-3.2 23.3 0 1.3.2 2.2.4 2 .2-.2 5.6-6.7 11.9-14.4Zm6-18.5 6.9-1.3-3-3c-3.4-3.4-3.7-3.3-11.2 3.3-2.6 2.3-3 3-1.5 2.6 1.1-.2 5.1-1 8.8-1.6Zm-11.2-4.2c3.4-2.9 5.8-5.3 5.3-5.5-3.3-.8-29.8-5.3-30.4-5.1-.8.3 16.9 15.6 18.2 15.7.3.1 3.4-2.2 6.9-5.1Z"/><path fill="#fff" d="m209.111 39.734-11.9-14-.3 12.5c-.2 11.7-.4 12.5-2.2 12.5-1.9 0-2-.8-2-18.5 0-10.2.2-18.5.4-18.5.3 0 5.8 6.1 12.3 13.6l11.8 13.6.3-12.1c.2-11.3.4-12.1 2.2-12.1 1.9 0 2 .8 2 18.5 0 10.2-.1 18.5-.3 18.5-.2 0-5.7-6.3-12.3-14ZM86.71 38.734c0-11.3.1-12 2-12s2 .7 2 12-.1 12-2 12-2-.7-2-12ZM92.71 38.734c0-11.3.1-12 2-12s2 .7 2 12-.1 12-2 12-2-.7-2-12ZM113.711 33.734v-17h11.6c6.3 0 12.4.5 13.5 1 1 .6 2.6 2.4 3.4 4 2.4 4.6 1.9 8.5-1.5 12.4l-3.1 3.5 3.1 6c1.6 3.3 3 6.3 3 6.6 0 .3-1 .5-2.2.5-1.8 0-3.1-1.5-5.8-6.5-3.3-6.2-3.7-6.5-7.2-6.5h-3.8v6.5c0 5.8-.2 6.5-2 6.5s-2-.7-2-8.4v-8.3l7.6-.5c7.8-.5 9.6-1.5 10.9-5.5.4-1.7-.1-2.9-1.9-4.8-2.3-2.3-3.3-2.5-11.1-2.5h-8.5v15c0 14.3-.1 15-2 15s-2-.7-2-17ZM162.211 49.234c-10.4-3.7-14.5-16.4-8.2-25.5 3-4.5 8.1-7 14.3-7 12.4 0 20.2 13.1 14.7 24.7-3.2 6.9-13 10.6-20.8 7.8Zm14-6.5c5.5-5.2 5.7-13.1.4-18.1-8-7.5-21-2.2-20.9 8.4.1 5.1 1.7 8.2 5.6 10.8 3.9 2.7 11.5 2.1 14.9-1.1Z"/><path fill="#fff" d="M165.711 33.334c0-2.1.5-2.6 2.6-2.6s2.5.4 2.2 2.3c-.2 1.4-1.1 2.3-2.5 2.5-1.9.3-2.3-.1-2.3-2.2ZM198.711 43.734c0-6.3.2-7 2-7s2 .7 2 7-.2 7-2 7-2-.7-2-7ZM76.71 18.734c0-1.9.7-2 15-2 14.301 0 15.001.1 15.001 2s-.7 2-15 2-15-.1-15-2Z"/></svg>