<svg xmlns="http://www.w3.org/2000/svg" width="129" height="44" fill="none"><path fill="#8B3FFD" d="M36.69 13.262a9.7 9.7 0 0 0-5.257 1.541 9.22 9.22 0 0 0-3.486 4.104 8.86 8.86 0 0 0-.539 5.284 9.055 9.055 0 0 0 2.59 4.683 9.57 9.57 0 0 0 4.846 2.503 9.77 9.77 0 0 0 5.468-.52 9.401 9.401 0 0 0 4.248-3.369 8.928 8.928 0 0 0 1.595-5.08c0-2.426-.997-4.753-2.772-6.468-1.775-1.715-4.182-2.678-6.692-2.678Zm0 12.562c-.699 0-1.382-.2-1.964-.576a3.445 3.445 0 0 1-1.302-1.533 3.309 3.309 0 0 1-.201-1.974 3.382 3.382 0 0 1 .968-1.75 3.575 3.575 0 0 1 1.81-.935 3.65 3.65 0 0 1 2.043.194 3.512 3.512 0 0 1 1.587 1.259c.388.562.596 1.222.596 1.898a3.367 3.367 0 0 1-1.038 2.414 3.606 3.606 0 0 1-2.498 1.003Z"/><path fill="#8B3FFD" d="M27.227 15.926v13.312h-3.408L19.5 15.926h7.727Z"/><path fill="#fff" d="m107.074 18.304-2.098 4.975a.355.355 0 0 0-.06.234l-.061.114-.056-.114c0-.058-.061-.175-.061-.234l-2.097-4.975h-2.696l3.536 8.498-1.514 3.241h2.71l4.971-11.75-2.574.01ZM87.185 18.748a3.505 3.505 0 0 0-1.798-.636 3.98 3.98 0 0 0-1.679.183c-.539.18-1.03.474-1.436.86v-.915h-2.454v8.509h2.454v-4.46c0-.984.181-1.273.378-1.503.167-.235.394-.423.66-.545a1.72 1.72 0 0 1 .854-.15c.304-.01.606.053.878.185a1.8 1.8 0 0 1 .678.569c.154.327.235.682.239 1.042v4.862h2.438v-5.155c0-1.328-.436-2.257-1.212-2.846ZM75.469 18.354a5.159 5.159 0 0 0-3.714.176 4.117 4.117 0 0 0-1.92 1.682 4.178 4.178 0 0 0-.598 2.316c-.03.811.177 1.614.599 2.316a4.295 4.295 0 0 0 1.677 1.562 5.55 5.55 0 0 0 2.335.578c.421-.008.839-.07 1.242-.187.369-.111.73-.247 1.079-.406a4.307 4.307 0 0 0 1.677-1.562 4.186 4.186 0 0 0 .598-2.316 4.066 4.066 0 0 0-.76-2.565 4.303 4.303 0 0 0-2.215-1.594Zm.719 4.284a2.542 2.542 0 0 1-.757 1.796 2.91 2.91 0 0 1-1.583.534 2.279 2.279 0 0 1-1.555-.52 2.518 2.518 0 0 1-.78-1.796c-.04-.39.028-.782.196-1.138.168-.356.43-.662.761-.888.39-.253.848-.392 1.318-.403.489.009.966.148 1.378.403.35.207.631.506.812.863.18.356.252.755.206 1.149h.004ZM66.103 18.746a3.504 3.504 0 0 0-1.798-.637h-.416a3.328 3.328 0 0 0-1.403.33c-.435.21-.817.512-1.115.885l-.117.175h-.242a2.476 2.476 0 0 0-.659-.695 3.505 3.505 0 0 0-1.798-.636 3.24 3.24 0 0 0-1.544.174 3.14 3.14 0 0 0-1.269.869v-.86h-2.457v8.509h2.457v-4.573c0-.925.117-1.156.3-1.445.147-.235.36-.424.615-.547a1.56 1.56 0 0 1 .823-.148c.286-.003.567.065.818.197.252.131.464.323.616.557.202.352.286.755.243 1.155v4.738h2.453v-4.562c0-.87.121-1.16.303-1.463a1.61 1.61 0 0 1 .622-.53c.252-.122.532-.179.813-.165.277-.003.551.066.793.198s.444.324.584.555c.157.264.24.563.243.867v5.052h2.453v-5.209a4.85 4.85 0 0 0-.178-1.331 3.067 3.067 0 0 0-1.14-1.46ZM97.603 24.202a3.768 3.768 0 0 1-2.336 1.04 2.834 2.834 0 0 1-1.196-.135 2.761 2.761 0 0 1-1.022-.616 2.452 2.452 0 0 1-.538-.929h6.769v-.058c.07-.324.11-.654.121-.985a5.81 5.81 0 0 0-.182-1.21 4.474 4.474 0 0 0-1.677-2.316 4.14 4.14 0 0 0-1.957-.812 4.907 4.907 0 0 0-2.688.333c-.843.36-1.56.95-2.063 1.697a4.346 4.346 0 0 0-.659 2.56 4.176 4.176 0 0 0 1.136 2.836c1.26 1.332 2.998 1.39 3.536 1.463 2.396.059 4.013-1.39 4.372-1.679l-1.616-1.189Zm-4.195-3.588a2.326 2.326 0 0 1 1.318-.403c.49.009.966.15 1.378.406.36.279.647.634.84 1.04h-4.312c.042-.22.133-.426.267-.606s.308-.33.51-.437Z"/></svg>