<svg width="124" height="29" viewBox="0 0 124 29" fill="none" xmlns="http://www.w3.org/2000/svg">
<path d="M20.3563 2.85352H1.14837C0.514141 2.85352 0 3.39172 0 4.05563V16.0766C0 16.7405 0.514141 17.2787 1.14837 17.2787H20.3563C20.9906 17.2787 21.5047 16.7405 21.5047 16.0766V4.05563C21.5047 3.39172 20.9906 2.85352 20.3563 2.85352Z" fill="#009A44"/>
<path fill-rule="evenodd" clip-rule="evenodd" d="M3.39721 9.95916H2.39844V9.11719H3.39721V9.95916Z" fill="white"/>
<path fill-rule="evenodd" clip-rule="evenodd" d="M3.45312 8.2041H5.44717C5.71788 8.2041 5.9394 8.42705 5.9394 8.69937V9.05599H4.88151V11.7701H3.45312V8.2041V8.2041Z" fill="white"/>
<path fill-rule="evenodd" clip-rule="evenodd" d="M3.39721 11.7728H2.89066C2.61995 11.7728 2.39844 11.5499 2.39844 11.2775V10.9209H3.39721V11.7728V11.7728Z" fill="white"/>
<path fill-rule="evenodd" clip-rule="evenodd" d="M2.89066 8.2041H3.39721V9.05599H2.39844V8.69937C2.39844 8.42699 2.61995 8.2041 2.89066 8.2041V8.2041Z" fill="white"/>
<path fill-rule="evenodd" clip-rule="evenodd" d="M3.39721 10.8606H2.39844V10.0186H3.39721V10.8606Z" fill="white"/>
<path fill-rule="evenodd" clip-rule="evenodd" d="M5.93634 9.95916H4.9375V9.11719H5.93634V9.95916Z" fill="white"/>
<path fill-rule="evenodd" clip-rule="evenodd" d="M5.93634 10.8606H4.9375V10.0186H5.93634V10.8606Z" fill="white"/>
<path fill-rule="evenodd" clip-rule="evenodd" d="M4.9375 11.7728H5.44411C5.71476 11.7728 5.93634 11.5499 5.93634 11.2775V10.9209H4.93756V11.7728H4.9375Z" fill="white"/>
<path d="M1.60504 14.6251C1.47092 14.6251 1.36914 14.5897 1.29975 14.5195C1.23001 14.449 1.19531 14.3507 1.19531 14.2245V13.5832C1.19531 13.4567 1.23037 13.3581 1.30012 13.2879C1.36986 13.2177 1.47165 13.1826 1.60504 13.1826C1.73952 13.1826 1.84124 13.2177 1.91068 13.2876C1.98007 13.3575 2.01482 13.4562 2.01482 13.5833V14.2245C2.01482 14.3513 1.98007 14.4497 1.91038 14.5199C1.84063 14.59 1.73885 14.6251 1.6051 14.6251H1.60504ZM1.60504 14.4371C1.67618 14.4371 1.7287 14.4185 1.76273 14.3821C1.79639 14.3457 1.81325 14.2931 1.81325 14.2245V13.5833C1.81325 13.5147 1.79675 13.4624 1.76309 13.4257C1.72942 13.3893 1.67678 13.3711 1.60504 13.3711C1.53323 13.3711 1.48071 13.3893 1.44735 13.4257C1.41368 13.4624 1.39682 13.5147 1.39682 13.5833V14.2245C1.39682 14.2931 1.41362 14.3457 1.44765 14.3821C1.48168 14.4185 1.5339 14.4371 1.60504 14.4371ZM2.68093 14.6251C2.54682 14.6251 2.44504 14.5897 2.37565 14.5195C2.3059 14.449 2.27121 14.3507 2.27121 14.2245V13.5832C2.27121 13.4567 2.30626 13.3581 2.37601 13.2879C2.44576 13.2177 2.54754 13.1826 2.68093 13.1826C2.81535 13.1826 2.91713 13.2177 2.98652 13.2876C3.05597 13.3575 3.09066 13.4562 3.09066 13.5833V14.2245C3.09066 14.3513 3.05597 14.4497 2.98622 14.5199C2.91647 14.59 2.81469 14.6251 2.68093 14.6251V14.6251ZM2.68093 14.4371C2.75201 14.4371 2.80459 14.4185 2.83862 14.3821C2.87229 14.3457 2.88915 14.2931 2.88915 14.2245V13.5833C2.88915 13.5147 2.87265 13.4624 2.83899 13.4257C2.80532 13.3893 2.75274 13.3711 2.68099 13.3711C2.60919 13.3711 2.55667 13.3893 2.52331 13.4257C2.48964 13.4624 2.47278 13.5147 2.47278 13.5833V14.2245C2.47278 14.2931 2.48958 14.3457 2.52361 14.3821C2.55764 14.4185 2.60986 14.4371 2.68099 14.4371H2.68093ZM3.75677 14.6251C3.62265 14.6251 3.52087 14.5897 3.45149 14.5195C3.38174 14.449 3.34705 14.3507 3.34705 14.2245V13.5832C3.34705 13.4567 3.3821 13.3581 3.45185 13.2879C3.5216 13.2177 3.62338 13.1826 3.75677 13.1826C3.89125 13.1826 3.99297 13.2177 4.06242 13.2876C4.13186 13.3575 4.16656 13.4562 4.16656 13.5833V14.2245C4.16656 14.3513 4.13186 14.4497 4.06211 14.5199C3.99237 14.59 3.89059 14.6251 3.75683 14.6251H3.75677ZM3.75677 14.4371C3.82791 14.4371 3.88043 14.4185 3.91446 14.3821C3.94812 14.3457 3.96499 14.2931 3.96499 14.2245V13.5833C3.96499 13.5147 3.94849 13.4624 3.91482 13.4257C3.88116 13.3893 3.82851 13.3711 3.75677 13.3711C3.68503 13.3711 3.63245 13.3893 3.59908 13.4257C3.56542 13.4624 3.54855 13.5147 3.54855 13.5833V14.2245C3.54855 14.2931 3.56536 14.3457 3.59944 14.3821C3.63347 14.4185 3.68569 14.4371 3.75677 14.4371ZM4.83267 14.6251C4.69855 14.6251 4.59677 14.5897 4.52738 14.5195C4.45764 14.449 4.42294 14.3507 4.42294 14.2245V13.5832C4.42294 13.4567 4.458 13.3581 4.52775 13.2879C4.5975 13.2177 4.69928 13.1826 4.83267 13.1826C4.96715 13.1826 5.06887 13.2177 5.13825 13.2876C5.2077 13.3575 5.24239 13.4562 5.24239 13.5833V14.2245C5.24239 14.3513 5.20764 14.4497 5.13795 14.5199C5.0682 14.59 4.96642 14.6251 4.83267 14.6251V14.6251ZM4.83267 14.4371C4.90381 14.4371 4.95633 14.4185 4.99036 14.3821C5.02402 14.3457 5.04082 14.2931 5.04082 14.2245V13.5833C5.04082 13.5147 5.02438 13.4624 4.99066 13.4257C4.95699 13.3893 4.90435 13.3711 4.83261 13.3711C4.76086 13.3711 4.70828 13.3893 4.67492 13.4257C4.64125 13.4624 4.62445 13.5147 4.62445 13.5833V14.2245C4.62445 14.2931 4.64125 14.3457 4.67534 14.3821C4.70937 14.4185 4.76153 14.4371 4.83267 14.4371Z" fill="white"/>
<path d="M6.62847 14.6251C6.49436 14.6251 6.39258 14.5897 6.32319 14.5195C6.25344 14.449 6.21875 14.3507 6.21875 14.2245V13.5832C6.21875 13.4567 6.25381 13.3581 6.32355 13.2879C6.3933 13.2177 6.49508 13.1826 6.62854 13.1826C6.76295 13.1826 6.86474 13.2177 6.93412 13.2876C7.00357 13.3575 7.03826 13.4562 7.03826 13.5833V14.2245C7.03826 14.3513 7.00357 14.4497 6.93382 14.5199C6.86407 14.59 6.76229 14.6251 6.62854 14.6251H6.62847ZM6.62847 14.4371C6.69955 14.4371 6.75214 14.4185 6.78616 14.3821C6.81983 14.3457 6.83669 14.2931 6.83669 14.2245V13.5833C6.83669 13.5147 6.82019 13.4624 6.78653 13.4257C6.75286 13.3893 6.70028 13.3711 6.62854 13.3711C6.55679 13.3711 6.50421 13.3893 6.47085 13.4257C6.43718 13.4624 6.42032 13.5147 6.42032 13.5833V14.2245C6.42032 14.2931 6.43712 14.3457 6.47121 14.3821C6.50524 14.4185 6.55746 14.4371 6.6286 14.4371H6.62847ZM7.70431 14.6251C7.57019 14.6251 7.46847 14.5897 7.39903 14.5195C7.32928 14.449 7.29459 14.3507 7.29459 14.2245V13.5832C7.29459 13.4567 7.32964 13.3581 7.39939 13.2879C7.46914 13.2177 7.57092 13.1826 7.70431 13.1826C7.83879 13.1826 7.94051 13.2177 8.00996 13.2876C8.07934 13.3575 8.1141 13.4562 8.1141 13.5833V14.2245C8.1141 14.3513 8.07934 14.4497 8.00966 14.5199C7.93991 14.59 7.83813 14.6251 7.70437 14.6251H7.70431ZM7.70431 14.4371C7.77545 14.4371 7.82797 14.4185 7.862 14.3821C7.89567 14.3457 7.91253 14.2931 7.91253 14.2245V13.5833C7.91253 13.5147 7.89603 13.4624 7.86236 13.4257C7.8287 13.3893 7.77605 13.3711 7.70431 13.3711C7.63257 13.3711 7.57999 13.3893 7.54662 13.4257C7.51296 13.4624 7.49609 13.5147 7.49609 13.5833V14.2245C7.49609 14.2931 7.5129 14.3457 7.54699 14.3821C7.58101 14.4185 7.63323 14.4371 7.70431 14.4371ZM8.78021 14.6251C8.64609 14.6251 8.54431 14.5897 8.47492 14.5195C8.40524 14.449 8.37048 14.3507 8.37048 14.2245V13.5832C8.37048 13.4567 8.40554 13.3581 8.47529 13.2879C8.54504 13.2177 8.64682 13.1826 8.78021 13.1826C8.91463 13.1826 9.01641 13.2177 9.08579 13.2876C9.15524 13.3575 9.18993 13.4562 9.18993 13.5833V14.2245C9.18993 14.3513 9.15518 14.4497 9.08549 14.5199C9.01574 14.59 8.91396 14.6251 8.78021 14.6251ZM8.78021 14.4371C8.85129 14.4371 8.90387 14.4185 8.9379 14.3821C8.97156 14.3457 8.98842 14.2931 8.98842 14.2245V13.5833C8.98842 13.5147 8.97193 13.4624 8.93826 13.4257C8.90459 13.3893 8.85201 13.3711 8.78021 13.3711C8.70847 13.3711 8.65588 13.3893 8.62252 13.4257C8.58885 13.4624 8.57199 13.5147 8.57199 13.5833V14.2245C8.57199 14.2931 8.58879 14.3457 8.62288 14.3821C8.65691 14.4185 8.70913 14.4371 8.78027 14.4371H8.78021ZM9.85605 14.6251C9.72193 14.6251 9.62021 14.5897 9.55076 14.5195C9.48101 14.449 9.44632 14.3507 9.44632 14.2245V13.5832C9.44632 13.4567 9.48138 13.3581 9.55112 13.2879C9.62087 13.2177 9.72265 13.1826 9.85605 13.1826C9.99052 13.1826 10.0922 13.2177 10.1617 13.2876C10.2311 13.3575 10.2658 13.4562 10.2658 13.5833V14.2245C10.2658 14.3513 10.2311 14.4497 10.1614 14.5199C10.0916 14.59 9.98986 14.6251 9.85611 14.6251H9.85605ZM9.85605 14.4371C9.92718 14.4371 9.97971 14.4185 10.0137 14.3821C10.0474 14.3457 10.0643 14.2931 10.0643 14.2245V13.5833C10.0643 13.5147 10.0478 13.4624 10.014 13.4257C9.98037 13.3893 9.92779 13.3711 9.85598 13.3711C9.78424 13.3711 9.73166 13.3893 9.6983 13.4257C9.66463 13.4624 9.64777 13.5147 9.64777 13.5833V14.2245C9.64777 14.2931 9.66457 14.3457 9.69866 14.3821C9.73269 14.4185 9.78491 14.4371 9.85598 14.4371H9.85605Z" fill="white"/>
<path d="M11.6519 14.6251C11.5178 14.6251 11.4161 14.5897 11.3466 14.5195C11.2769 14.449 11.2422 14.3507 11.2422 14.2245V13.5832C11.2422 13.4567 11.2772 13.3581 11.347 13.2879C11.4167 13.2177 11.5185 13.1826 11.6519 13.1826C11.7864 13.1826 11.8881 13.2177 11.9576 13.2876C12.0269 13.3575 12.0617 13.4562 12.0617 13.5833V14.2245C12.0617 14.3513 12.0269 14.4497 11.9573 14.5199C11.8875 14.59 11.7857 14.6251 11.652 14.6251H11.6519ZM11.6519 14.4371C11.7231 14.4371 11.7756 14.4185 11.8096 14.3821C11.8433 14.3457 11.8601 14.2931 11.8601 14.2245V13.5833C11.8601 13.5147 11.8436 13.4624 11.8099 13.4257C11.7762 13.3893 11.7237 13.3711 11.6519 13.3711C11.5801 13.3711 11.5275 13.3893 11.4942 13.4257C11.4605 13.4624 11.4437 13.5147 11.4437 13.5833V14.2245C11.4437 14.2931 11.4605 14.3457 11.4946 14.3821C11.5286 14.4185 11.5808 14.4371 11.6519 14.4371ZM12.7278 14.6251C12.5937 14.6251 12.4919 14.5897 12.4225 14.5195C12.3528 14.449 12.3181 14.3507 12.3181 14.2245V13.5832C12.3181 13.4567 12.3531 13.3581 12.4229 13.2879C12.4926 13.2177 12.5944 13.1826 12.7279 13.1826C12.8623 13.1826 12.9641 13.2177 13.0335 13.2876C13.1029 13.3575 13.1376 13.4562 13.1376 13.5833V14.2245C13.1376 14.3513 13.1029 14.4497 13.0332 14.5199C12.9634 14.59 12.8616 14.6251 12.7279 14.6251H12.7278ZM12.7278 14.4371C12.7989 14.4371 12.8515 14.4185 12.8855 14.3821C12.9192 14.3457 12.936 14.2931 12.936 14.2245V13.5833C12.936 13.5147 12.9195 13.4624 12.8858 13.4257C12.8521 13.3893 12.7996 13.3711 12.7278 13.3711C12.6561 13.3711 12.6035 13.3893 12.5701 13.4257C12.5365 13.4624 12.5196 13.5147 12.5196 13.5833V14.2245C12.5196 14.2931 12.5364 14.3457 12.5705 14.3821C12.6045 14.4185 12.6567 14.4371 12.7279 14.4371H12.7278ZM13.8036 14.6251C13.6696 14.6251 13.5678 14.5897 13.4984 14.5195C13.4286 14.449 13.3939 14.3507 13.3939 14.2245V13.5832C13.3939 13.4567 13.429 13.3581 13.4987 13.2879C13.5685 13.2177 13.6703 13.1826 13.8036 13.1826C13.9381 13.1826 14.0398 13.2177 14.1093 13.2876C14.1787 13.3575 14.2134 13.4562 14.2134 13.5833V14.2245C14.2134 14.3513 14.1787 14.4497 14.109 14.5199C14.0392 14.59 13.9375 14.6251 13.8037 14.6251H13.8036ZM13.8036 14.4371C13.8748 14.4371 13.9273 14.4185 13.9613 14.3821C13.995 14.3457 14.0119 14.2931 14.0119 14.2245V13.5833C14.0119 13.5147 13.9954 13.4624 13.9616 13.4257C13.928 13.3893 13.8754 13.3711 13.8036 13.3711C13.7318 13.3711 13.6793 13.3893 13.6459 13.4257C13.6122 13.4624 13.5954 13.5147 13.5954 13.5833V14.2245C13.5954 14.2931 13.6122 14.3457 13.6463 14.3821C13.6803 14.4185 13.7325 14.4371 13.8036 14.4371H13.8036ZM14.8795 14.6251C14.7454 14.6251 14.6436 14.5897 14.5743 14.5195C14.5045 14.449 14.4698 14.3507 14.4698 14.2245V13.5832C14.4698 13.4567 14.5048 13.3581 14.5746 13.2879C14.6443 13.2177 14.7461 13.1826 14.8795 13.1826C15.0139 13.1826 15.1157 13.2177 15.1851 13.2876C15.2545 13.3575 15.2892 13.4562 15.2892 13.5833V14.2245C15.2892 14.3513 15.2545 14.4497 15.1848 14.5199C15.115 14.59 15.0132 14.6251 14.8795 14.6251H14.8795ZM14.8795 14.4371C14.9506 14.4371 15.0032 14.4185 15.0372 14.3821C15.0709 14.3457 15.0878 14.2931 15.0878 14.2245V13.5833C15.0878 13.5147 15.0713 13.4624 15.0376 13.4257C15.0039 13.3893 14.9513 13.3711 14.8795 13.3711C14.8078 13.3711 14.7552 13.3893 14.7219 13.4257C14.6882 13.4624 14.6713 13.5147 14.6713 13.5833V14.2245C14.6713 14.2931 14.6881 14.3457 14.7222 14.3821C14.7562 14.4185 14.8085 14.4371 14.8796 14.4371H14.8795Z" fill="white"/>
<path d="M16.6675 14.6251C16.5335 14.6251 16.4317 14.5897 16.3623 14.5195C16.2925 14.449 16.2578 14.3507 16.2578 14.2245V13.5832C16.2578 13.4567 16.2929 13.3581 16.3626 13.2879C16.4324 13.2177 16.5341 13.1826 16.6675 13.1826C16.802 13.1826 16.9037 13.2177 16.9732 13.2876C17.0426 13.3575 17.0773 13.4562 17.0773 13.5833V14.2245C17.0773 14.3513 17.0426 14.4497 16.9729 14.5199C16.9031 14.59 16.8014 14.6251 16.6676 14.6251H16.6675ZM16.6675 14.4371C16.7387 14.4371 16.7912 14.4185 16.8252 14.3821C16.8589 14.3457 16.8758 14.2931 16.8758 14.2245V13.5833C16.8758 13.5147 16.8593 13.4624 16.8255 13.4257C16.7919 13.3893 16.7393 13.3711 16.6675 13.3711C16.5957 13.3711 16.5432 13.3893 16.5098 13.4257C16.4761 13.4624 16.4593 13.5147 16.4593 13.5833V14.2245C16.4593 14.2931 16.4761 14.3457 16.5102 14.3821C16.5442 14.4185 16.5964 14.4371 16.6675 14.4371H16.6675ZM17.7434 14.6251C17.6094 14.6251 17.5076 14.5897 17.4382 14.5195C17.3684 14.449 17.3336 14.3507 17.3336 14.2245V13.5832C17.3336 13.4567 17.3687 13.3581 17.4385 13.2879C17.5082 13.2177 17.61 13.1826 17.7434 13.1826C17.8779 13.1826 17.9796 13.2177 18.049 13.2876C18.1184 13.3575 18.1532 13.4562 18.1532 13.5833V14.2245C18.1532 14.3513 18.1184 14.4497 18.0487 14.5199C17.979 14.59 17.8772 14.6251 17.7434 14.6251V14.6251ZM17.7434 14.4371C17.8146 14.4371 17.8671 14.4185 17.9011 14.3821C17.9348 14.3457 17.9517 14.2931 17.9517 14.2245V13.5833C17.9517 13.5147 17.9351 13.4624 17.9014 13.4257C17.8678 13.3893 17.8152 13.3711 17.7434 13.3711C17.6716 13.3711 17.619 13.3893 17.5857 13.4257C17.552 13.4624 17.5352 13.5147 17.5352 13.5833V14.2245C17.5352 14.2931 17.552 14.3457 17.586 14.3821C17.6201 14.4185 17.6722 14.4371 17.7434 14.4371H17.7434ZM18.8193 14.6251C18.6852 14.6251 18.5834 14.5897 18.514 14.5195C18.4443 14.449 18.4096 14.3507 18.4096 14.2245V13.5832C18.4096 13.4567 18.4447 13.3581 18.5144 13.2879C18.5842 13.2177 18.6859 13.1826 18.8193 13.1826C18.9538 13.1826 19.0555 13.2177 19.1249 13.2876C19.1944 13.3575 19.2291 13.4562 19.2291 13.5833V14.2245C19.2291 14.3513 19.1944 14.4497 19.1246 14.5199C19.0549 14.59 18.9531 14.6251 18.8193 14.6251V14.6251ZM18.8193 14.4371C18.8904 14.4371 18.943 14.4185 18.977 14.3821C19.0107 14.3457 19.0275 14.2931 19.0275 14.2245V13.5833C19.0275 13.5147 19.011 13.4624 18.9773 13.4257C18.9437 13.3893 18.8911 13.3711 18.8193 13.3711C18.7476 13.3711 18.695 13.3893 18.6616 13.4257C18.628 13.4624 18.6111 13.5147 18.6111 13.5833V14.2245C18.6111 14.2931 18.6279 14.3457 18.662 14.3821C18.696 14.4185 18.7483 14.4371 18.8194 14.4371H18.8193ZM19.8952 14.6251C19.7611 14.6251 19.6593 14.5897 19.5899 14.5195C19.5201 14.449 19.4854 14.3507 19.4854 14.2245V13.5832C19.4854 13.4567 19.5205 13.3581 19.5902 13.2879C19.66 13.2177 19.7618 13.1826 19.8952 13.1826C20.0296 13.1826 20.1314 13.2177 20.2008 13.2876C20.2703 13.3575 20.305 13.4562 20.305 13.5833V14.2245C20.305 14.3513 20.2702 14.4497 20.2005 14.5199C20.1308 14.59 20.029 14.6251 19.8952 14.6251H19.8952ZM19.8952 14.4371C19.9663 14.4371 20.0188 14.4185 20.0529 14.3821C20.0865 14.3457 20.1034 14.2931 20.1034 14.2245V13.5833C20.1034 13.5147 20.0869 13.4624 20.0532 13.4257C20.0195 13.3893 19.9669 13.3711 19.8951 13.3711C19.8234 13.3711 19.7708 13.3893 19.7374 13.4257C19.7037 13.4624 19.6869 13.5147 19.6869 13.5833V14.2245C19.6869 14.2931 19.7037 14.3457 19.7378 14.3821C19.7718 14.4185 19.824 14.4371 19.8951 14.4371H19.8952Z" fill="white"/>
<path fill-rule="evenodd" clip-rule="evenodd" d="M16.5817 8.39069C17.0624 8.39069 17.4871 8.63145 17.7435 8.99962C17.9316 8.83603 18.1768 8.73708 18.4449 8.73708C19.0377 8.73708 19.5183 9.22062 19.5183 9.81708C19.5183 10.4136 19.0377 10.8971 18.4449 10.8971C18.1768 10.8971 17.9316 10.7981 17.7435 10.6345C17.4871 11.0027 17.0624 11.2435 16.5817 11.2435C15.7988 11.2435 15.1641 10.6049 15.1641 9.81702C15.1641 9.02924 15.7987 8.39062 16.5817 8.39062V8.39069Z" fill="white"/>
<path d="M1.54688 4.5127H2.61067V4.75295H1.83418V5.085H2.21854C2.32466 5.085 2.41267 5.09802 2.48255 5.12406C2.55244 5.15011 2.61197 5.19829 2.66115 5.2686C2.71097 5.33892 2.73588 5.42128 2.73588 5.51569C2.73588 5.6127 2.71097 5.69571 2.66115 5.76473C2.61132 5.83374 2.55438 5.88095 2.49032 5.90634C2.4269 5.93173 2.33631 5.94443 2.21854 5.94443H1.54688V4.5127ZM1.83418 5.70418H2.11372C2.20301 5.70418 2.26578 5.69995 2.30202 5.69148C2.33825 5.68237 2.36964 5.66218 2.39617 5.63093C2.42334 5.59968 2.43693 5.56126 2.43693 5.51569C2.43693 5.44928 2.41331 5.4011 2.36608 5.37115C2.31949 5.34055 2.23957 5.32525 2.12633 5.32525H1.83418V5.70418Z" fill="white"/>
<path d="M4.17725 5.94443H3.86471L3.74047 5.61921H3.17169L3.05425 5.94443H2.74947L3.30369 4.5127H3.6075L4.17725 5.94443ZM3.64826 5.37798L3.4522 4.8467L3.26002 5.37798H3.64826Z" fill="white"/>
<path d="M4.33158 5.94443V4.5127H4.61888V5.07621H5.18184V4.5127H5.46915V5.94443H5.18184V5.31841H4.61888V5.94443H4.33158Z" fill="white"/>
<path d="M5.77198 4.5127H6.05928V5.12211C6.12334 5.1156 6.1667 5.099 6.18934 5.0723C6.21199 5.04561 6.24693 4.97138 6.29417 4.84963C6.3537 4.69467 6.41356 4.59831 6.47374 4.56055C6.53327 4.52279 6.62936 4.50391 6.76201 4.50391C6.76848 4.50391 6.78239 4.50358 6.80375 4.50293V4.71681L6.76298 4.71583C6.7041 4.71583 6.66106 4.72332 6.63389 4.7383C6.60671 4.75262 6.58471 4.77476 6.56789 4.80471C6.55106 4.83466 6.52615 4.89618 6.49315 4.98929C6.47568 5.03877 6.45659 5.08011 6.43588 5.11332C6.41582 5.14653 6.37991 5.17778 6.32814 5.20708C6.3922 5.22531 6.44494 5.26209 6.48635 5.31743C6.52841 5.37278 6.57436 5.45091 6.62418 5.55182L6.81831 5.94443H6.48053L6.31067 5.57429C6.30808 5.56908 6.30258 5.55899 6.29417 5.54401C6.29094 5.5388 6.27896 5.51634 6.25826 5.47662C6.22137 5.40631 6.19096 5.36236 6.16702 5.34478C6.14373 5.3272 6.10781 5.31809 6.05928 5.31743V5.94443H5.77198V4.5127Z" fill="white"/>
<path fill-rule="evenodd" clip-rule="evenodd" d="M30.8268 2.72059C30.503 3.28502 30.1791 3.84945 29.8552 4.41388C28.3052 3.46699 25.6098 3.17423 23.2943 4.96631C26.2092 4.70869 27.179 5.36693 28.7456 6.34771L27.722 8.13165L32.4145 7.25025L30.8268 2.72059Z" fill="#009A44"/>
<path d="M47.5126 12.0059H28.3046C27.6704 12.0059 27.1562 12.5441 27.1562 13.208V25.2289C27.1562 25.8928 27.6704 26.4311 28.3046 26.4311H47.5126C48.1468 26.4311 48.661 25.8928 48.661 25.2289V13.208C48.661 12.5441 48.1468 12.0059 47.5126 12.0059Z" fill="#007FC6"/>
<path fill-rule="evenodd" clip-rule="evenodd" d="M30.8816 19.1115H29.8828V18.2695H30.8816V19.1115Z" fill="white"/>
<path fill-rule="evenodd" clip-rule="evenodd" d="M30.9375 17.3564H32.9315C33.2023 17.3564 33.4238 17.5794 33.4238 17.8517V18.2083H32.3659V20.9225H30.9375V17.3564Z" fill="white"/>
<path fill-rule="evenodd" clip-rule="evenodd" d="M30.8816 20.9251H30.375C30.1043 20.9251 29.8828 20.7022 29.8828 20.4299V20.0732H30.8816V20.9251Z" fill="white"/>
<path fill-rule="evenodd" clip-rule="evenodd" d="M30.375 17.3564H30.8816V18.2083H29.8828V17.8517C29.8828 17.5793 30.1043 17.3564 30.375 17.3564Z" fill="white"/>
<path fill-rule="evenodd" clip-rule="evenodd" d="M30.8816 20.0129H29.8828V19.1709H30.8816V20.0129Z" fill="white"/>
<path fill-rule="evenodd" clip-rule="evenodd" d="M33.4207 19.1115H32.4219V18.2695H33.4207V19.1115Z" fill="white"/>
<path fill-rule="evenodd" clip-rule="evenodd" d="M33.4207 20.0129H32.4219V19.1709H33.4207V20.0129Z" fill="white"/>
<path fill-rule="evenodd" clip-rule="evenodd" d="M32.4219 20.9251H32.9285C33.1991 20.9251 33.4207 20.7022 33.4207 20.4299V20.0732H32.4219V20.9251H32.4219Z" fill="white"/>
<path d="M28.7613 23.7726C28.6272 23.7726 28.5254 23.7371 28.456 23.667C28.3863 23.5965 28.3516 23.4981 28.3516 23.3719V22.7307C28.3516 22.6042 28.3866 22.5055 28.4564 22.4353C28.5261 22.3652 28.6279 22.3301 28.7613 22.3301C28.8958 22.3301 28.9975 22.3652 29.0669 22.435C29.1363 22.5049 29.1711 22.6036 29.1711 22.7307V23.372C29.1711 23.4988 29.1363 23.5971 29.0666 23.6673C28.9969 23.7375 28.8951 23.7726 28.7613 23.7726H28.7613ZM28.7613 23.5846C28.8324 23.5846 28.8849 23.566 28.919 23.5296C28.9526 23.4932 28.9695 23.4405 28.9695 23.372V22.7307C28.9695 22.6622 28.953 22.6099 28.9193 22.5732C28.8857 22.5367 28.833 22.5185 28.7613 22.5185C28.6895 22.5185 28.637 22.5367 28.6036 22.5732C28.5699 22.6099 28.5531 22.6622 28.5531 22.7307V23.372C28.5531 23.4405 28.5699 23.4932 28.6039 23.5296C28.6379 23.566 28.6901 23.5846 28.7613 23.5846V23.5846ZM29.8372 23.7726C29.7031 23.7726 29.6013 23.7371 29.5319 23.667C29.4622 23.5965 29.4275 23.4981 29.4275 23.3719V22.7307C29.4275 22.6042 29.4625 22.5055 29.5323 22.4353C29.602 22.3652 29.7038 22.3301 29.8372 22.3301C29.9716 22.3301 30.0734 22.3652 30.1428 22.435C30.2122 22.5049 30.2469 22.6036 30.2469 22.7307V23.372C30.2469 23.4988 30.2122 23.5971 30.1425 23.6673C30.0727 23.7375 29.9709 23.7726 29.8372 23.7726V23.7726ZM29.8372 23.5846C29.9083 23.5846 29.9608 23.566 29.9949 23.5296C30.0285 23.4932 30.0454 23.4405 30.0454 23.372V22.7307C30.0454 22.6622 30.0289 22.6099 29.9952 22.5732C29.9616 22.5367 29.909 22.5185 29.8372 22.5185C29.7654 22.5185 29.7129 22.5367 29.6796 22.5732C29.6459 22.6099 29.629 22.6622 29.629 22.7307V23.372C29.629 23.4405 29.6458 23.4932 29.6799 23.5296C29.7139 23.566 29.7661 23.5846 29.8372 23.5846H29.8372ZM30.913 23.7726C30.7789 23.7726 30.6771 23.7371 30.6077 23.667C30.538 23.5965 30.5033 23.4981 30.5033 23.3719V22.7307C30.5033 22.6042 30.5384 22.5055 30.6081 22.4353C30.6778 22.3652 30.7796 22.3301 30.913 22.3301C31.0475 22.3301 31.1492 22.3652 31.2187 22.435C31.2881 22.5049 31.3228 22.6036 31.3228 22.7307V23.372C31.3228 23.4988 31.2881 23.5971 31.2184 23.6673C31.1486 23.7375 31.0468 23.7726 30.9131 23.7726H30.913ZM30.913 23.5846C30.9842 23.5846 31.0367 23.566 31.0707 23.5296C31.1044 23.4932 31.1212 23.4405 31.1212 23.372V22.7307C31.1212 22.6622 31.1047 22.6099 31.0711 22.5732C31.0374 22.5367 30.9848 22.5185 30.913 22.5185C30.8413 22.5185 30.7887 22.5367 30.7553 22.5732C30.7217 22.6099 30.7048 22.6622 30.7048 22.7307V23.372C30.7048 23.4405 30.7216 23.4932 30.7557 23.5296C30.7897 23.566 30.8419 23.5846 30.913 23.5846ZM31.9889 23.7726C31.8548 23.7726 31.753 23.7371 31.6836 23.667C31.6139 23.5965 31.5792 23.4981 31.5792 23.3719V22.7307C31.5792 22.6042 31.6142 22.5055 31.684 22.4353C31.7537 22.3652 31.8555 22.3301 31.9889 22.3301C32.1234 22.3301 32.2251 22.3652 32.2945 22.435C32.3639 22.5049 32.3986 22.6036 32.3986 22.7307V23.372C32.3986 23.4988 32.3639 23.5971 32.2942 23.6673C32.2245 23.7375 32.1227 23.7726 31.9889 23.7726V23.7726ZM31.9889 23.5846C32.0601 23.5846 32.1126 23.566 32.1466 23.5296C32.1803 23.4932 32.1971 23.4405 32.1971 23.372V22.7307C32.1971 22.6622 32.1806 22.6099 32.1469 22.5732C32.1132 22.5367 32.0606 22.5185 31.9889 22.5185C31.9171 22.5185 31.8645 22.5367 31.8312 22.5732C31.7975 22.6099 31.7807 22.6622 31.7807 22.7307V23.372C31.7807 23.4405 31.7975 23.4932 31.8316 23.5296C31.8656 23.566 31.9178 23.5846 31.9889 23.5846Z" fill="white"/>
<path d="M33.7847 23.7726C33.6506 23.7726 33.5488 23.7371 33.4794 23.667C33.4097 23.5965 33.375 23.4981 33.375 23.3719V22.7307C33.375 22.6042 33.4101 22.5055 33.4798 22.4353C33.5496 22.3652 33.6513 22.3301 33.7848 22.3301C33.9192 22.3301 34.021 22.3652 34.0904 22.435C34.1598 22.5049 34.1945 22.6036 34.1945 22.7307V23.372C34.1945 23.4988 34.1598 23.5971 34.0901 23.6673C34.0203 23.7375 33.9185 23.7726 33.7848 23.7726H33.7847ZM33.7847 23.5846C33.8558 23.5846 33.9084 23.566 33.9424 23.5296C33.9761 23.4932 33.9929 23.4405 33.9929 23.372V22.7307C33.9929 22.6622 33.9764 22.6099 33.9428 22.5732C33.9091 22.5367 33.8565 22.5185 33.7848 22.5185C33.713 22.5185 33.6605 22.5367 33.6271 22.5732C33.5934 22.6099 33.5766 22.6622 33.5766 22.7307V23.372C33.5766 23.4405 33.5934 23.4932 33.6275 23.5296C33.6615 23.566 33.7137 23.5846 33.7848 23.5846H33.7847ZM34.8606 23.7726C34.7264 23.7726 34.6247 23.7371 34.5553 23.667C34.4855 23.5965 34.4508 23.4981 34.4508 23.3719V22.7307C34.4508 22.6042 34.4859 22.5055 34.5556 22.4353C34.6254 22.3652 34.7272 22.3301 34.8606 22.3301C34.995 22.3301 35.0968 22.3652 35.1662 22.435C35.2356 22.5049 35.2703 22.6036 35.2703 22.7307V23.372C35.2703 23.4988 35.2356 23.5971 35.1659 23.6673C35.0962 23.7375 34.9944 23.7726 34.8606 23.7726H34.8606ZM34.8606 23.5846C34.9317 23.5846 34.9842 23.566 35.0182 23.5296C35.0519 23.4932 35.0688 23.4405 35.0688 23.372V22.7307C35.0688 22.6622 35.0523 22.6099 35.0186 22.5732C34.9849 22.5367 34.9323 22.5185 34.8606 22.5185C34.7888 22.5185 34.7362 22.5367 34.7029 22.5732C34.6692 22.6099 34.6523 22.6622 34.6523 22.7307V23.372C34.6523 23.4405 34.6691 23.4932 34.7032 23.5296C34.7373 23.566 34.7895 23.5846 34.8606 23.5846ZM35.9365 23.7726C35.8023 23.7726 35.7006 23.7371 35.6312 23.667C35.5615 23.5965 35.5267 23.4981 35.5267 23.3719V22.7307C35.5267 22.6042 35.5618 22.5055 35.6315 22.4353C35.7013 22.3652 35.8031 22.3301 35.9365 22.3301C36.0709 22.3301 36.1727 22.3652 36.242 22.435C36.3115 22.5049 36.3462 22.6036 36.3462 22.7307V23.372C36.3462 23.4988 36.3114 23.5971 36.2417 23.6673C36.172 23.7375 36.0702 23.7726 35.9365 23.7726V23.7726ZM35.9365 23.5846C36.0075 23.5846 36.0601 23.566 36.0941 23.5296C36.1278 23.4932 36.1447 23.4405 36.1447 23.372V22.7307C36.1447 22.6622 36.1282 22.6099 36.0945 22.5732C36.0608 22.5367 36.0083 22.5185 35.9365 22.5185C35.8647 22.5185 35.8121 22.5367 35.7788 22.5732C35.7451 22.6099 35.7282 22.6622 35.7282 22.7307V23.372C35.7282 23.4405 35.745 23.4932 35.7791 23.5296C35.8132 23.566 35.8654 23.5846 35.9365 23.5846H35.9365ZM37.0123 23.7726C36.8782 23.7726 36.7765 23.7371 36.707 23.667C36.6373 23.5965 36.6026 23.4981 36.6026 23.3719V22.7307C36.6026 22.6042 36.6376 22.5055 36.7074 22.4353C36.7771 22.3652 36.8789 22.3301 37.0123 22.3301C37.1468 22.3301 37.2485 22.3652 37.3179 22.435C37.3874 22.5049 37.4221 22.6036 37.4221 22.7307V23.372C37.4221 23.4988 37.3874 23.5971 37.3176 23.6673C37.2479 23.7375 37.1461 23.7726 37.0124 23.7726H37.0123ZM37.0123 23.5846C37.0834 23.5846 37.136 23.566 37.17 23.5296C37.2036 23.4932 37.2205 23.4405 37.2205 23.372V22.7307C37.2205 22.6622 37.204 22.6099 37.1703 22.5732C37.1366 22.5367 37.084 22.5185 37.0122 22.5185C36.9405 22.5185 36.8879 22.5367 36.8545 22.5732C36.8209 22.6099 36.804 22.6622 36.804 22.7307V23.372C36.804 23.4405 36.8208 23.4932 36.8549 23.5296C36.8889 23.566 36.9412 23.5846 37.0122 23.5846H37.0123Z" fill="white"/>
<path d="M38.8082 23.7726C38.674 23.7726 38.5723 23.7371 38.5029 23.667C38.4331 23.5965 38.3984 23.4981 38.3984 23.3719V22.7307C38.3984 22.6042 38.4335 22.5055 38.5032 22.4353C38.573 22.3652 38.6748 22.3301 38.8082 22.3301C38.9426 22.3301 39.0444 22.3652 39.1138 22.435C39.1832 22.5049 39.2179 22.6036 39.2179 22.7307V23.372C39.2179 23.4988 39.1832 23.5971 39.1135 23.6673C39.0438 23.7375 38.942 23.7726 38.8082 23.7726H38.8082ZM38.8082 23.5846C38.8793 23.5846 38.9318 23.566 38.9658 23.5296C38.9995 23.4932 39.0163 23.4405 39.0163 23.372V22.7307C39.0163 22.6622 38.9999 22.6099 38.9662 22.5732C38.9325 22.5367 38.8799 22.5185 38.8081 22.5185C38.7364 22.5185 38.6838 22.5367 38.6504 22.5732C38.6167 22.6099 38.5999 22.6622 38.5999 22.7307V23.372C38.5999 23.4405 38.6167 23.4932 38.6508 23.5296C38.6849 23.566 38.737 23.5846 38.8082 23.5846ZM39.8841 23.7726C39.7499 23.7726 39.6482 23.7371 39.5788 23.667C39.509 23.5965 39.4743 23.4981 39.4743 23.3719V22.7307C39.4743 22.6042 39.5094 22.5055 39.5791 22.4353C39.6489 22.3652 39.7507 22.3301 39.8841 22.3301C40.0185 22.3301 40.1203 22.3652 40.1897 22.435C40.2591 22.5049 40.2938 22.6036 40.2938 22.7307V23.372C40.2938 23.4988 40.2592 23.5971 40.1894 23.6673C40.1197 23.7375 40.0179 23.7726 39.8841 23.7726H39.8841ZM39.8841 23.5846C39.9551 23.5846 40.0077 23.566 40.0417 23.5296C40.0754 23.4932 40.0923 23.4405 40.0923 23.372V22.7307C40.0923 22.6622 40.0758 22.6099 40.042 22.5732C40.0084 22.5367 39.9558 22.5185 39.8841 22.5185C39.8123 22.5185 39.7597 22.5367 39.7264 22.5732C39.6927 22.6099 39.6758 22.6622 39.6758 22.7307V23.372C39.6758 23.4405 39.6926 23.4932 39.7267 23.5296C39.7608 23.566 39.813 23.5846 39.8841 23.5846H39.8841ZM40.9599 23.7726C40.8258 23.7726 40.7241 23.7371 40.6546 23.667C40.5849 23.5965 40.5502 23.4981 40.5502 23.3719V22.7307C40.5502 22.6042 40.5852 22.5055 40.655 22.4353C40.7247 22.3652 40.8265 22.3301 40.9599 22.3301C41.0944 22.3301 41.1961 22.3652 41.2655 22.435C41.335 22.5049 41.3697 22.6036 41.3697 22.7307V23.372C41.3697 23.4988 41.335 23.5971 41.2652 23.6673C41.1955 23.7375 41.0937 23.7726 40.96 23.7726H40.9599ZM40.9599 23.5846C41.031 23.5846 41.0836 23.566 41.1176 23.5296C41.1512 23.4932 41.1681 23.4405 41.1681 23.372V22.7307C41.1681 22.6622 41.1516 22.6099 41.1179 22.5732C41.0842 22.5367 41.0316 22.5185 40.9598 22.5185C40.8881 22.5185 40.8355 22.5367 40.8021 22.5732C40.7685 22.6099 40.7516 22.6622 40.7516 22.7307V23.372C40.7516 23.4405 40.7684 23.4932 40.8025 23.5296C40.8365 23.566 40.8888 23.5846 40.9598 23.5846H40.9599ZM42.0358 23.7726C41.9017 23.7726 41.7999 23.7371 41.7305 23.667C41.6608 23.5965 41.626 23.4981 41.626 23.3719V22.7307C41.626 22.6042 41.6611 22.5055 41.7308 22.4353C41.8006 22.3652 41.9023 22.3301 42.0357 22.3301C42.1702 22.3301 42.2719 22.3652 42.3413 22.435C42.4108 22.5049 42.4455 22.6036 42.4455 22.7307V23.372C42.4455 23.4988 42.4107 23.5971 42.341 23.6673C42.2713 23.7375 42.1695 23.7726 42.0357 23.7726H42.0358ZM42.0358 23.5846C42.1069 23.5846 42.1595 23.566 42.1935 23.5296C42.2271 23.4932 42.244 23.4405 42.244 23.372V22.7307C42.244 22.6622 42.2275 22.6099 42.1938 22.5732C42.1602 22.5367 42.1076 22.5185 42.0358 22.5185C41.964 22.5185 41.9115 22.5367 41.8781 22.5732C41.8444 22.6099 41.8276 22.6622 41.8276 22.7307V23.372C41.8276 23.4405 41.8444 23.4932 41.8785 23.5296C41.9125 23.566 41.9647 23.5846 42.0359 23.5846H42.0358Z" fill="white"/>
<path d="M43.8238 23.7726C43.6897 23.7726 43.588 23.7371 43.5185 23.667C43.4488 23.5965 43.4141 23.4981 43.4141 23.3719V22.7307C43.4141 22.6042 43.4491 22.5055 43.5189 22.4353C43.5886 22.3652 43.6904 22.3301 43.8238 22.3301C43.9583 22.3301 44.06 22.3652 44.1294 22.435C44.1989 22.5049 44.2336 22.6036 44.2336 22.7307V23.372C44.2336 23.4988 44.1989 23.5971 44.1291 23.6673C44.0594 23.7375 43.9576 23.7726 43.8238 23.7726H43.8238ZM43.8238 23.5846C43.8949 23.5846 43.9475 23.566 43.9815 23.5296C44.0151 23.4932 44.032 23.4405 44.032 23.372V22.7307C44.032 22.6622 44.0155 22.6099 43.9818 22.5732C43.9481 22.5367 43.8955 22.5185 43.8237 22.5185C43.752 22.5185 43.6994 22.5367 43.666 22.5732C43.6324 22.6099 43.6155 22.6622 43.6155 22.7307V23.372C43.6155 23.4405 43.6323 23.4932 43.6664 23.5296C43.7004 23.566 43.7527 23.5846 43.8237 23.5846H43.8238ZM44.8997 23.7726C44.7656 23.7726 44.6638 23.7371 44.5944 23.667C44.5247 23.5965 44.4899 23.4981 44.4899 23.3719V22.7307C44.4899 22.6042 44.525 22.5055 44.5947 22.4353C44.6645 22.3652 44.7662 22.3301 44.8996 22.3301C45.0341 22.3301 45.1358 22.3652 45.2053 22.435C45.2747 22.5049 45.3094 22.6036 45.3094 22.7307V23.372C45.3094 23.4988 45.2747 23.5971 45.205 23.6673C45.1352 23.7375 45.0334 23.7726 44.8997 23.7726V23.7726ZM44.8997 23.5846C44.9708 23.5846 45.0233 23.566 45.0574 23.5296C45.091 23.4932 45.1079 23.4405 45.1079 23.372V22.7307C45.1079 22.6622 45.0914 22.6099 45.0577 22.5732C45.024 22.5367 44.9714 22.5185 44.8996 22.5185C44.8279 22.5185 44.7753 22.5367 44.7419 22.5732C44.7083 22.6099 44.6914 22.6622 44.6914 22.7307V23.372C44.6914 23.4405 44.7082 23.4932 44.7423 23.5296C44.7763 23.566 44.8285 23.5846 44.8996 23.5846H44.8997ZM45.9756 23.7726C45.8415 23.7726 45.7397 23.7371 45.6703 23.667C45.6006 23.5965 45.5659 23.4981 45.5659 23.3719V22.7307C45.5659 22.6042 45.601 22.5055 45.6707 22.4353C45.7404 22.3652 45.8422 22.3301 45.9756 22.3301C46.11 22.3301 46.2118 22.3652 46.2812 22.435C46.3506 22.5049 46.3853 22.6036 46.3853 22.7307V23.372C46.3853 23.4988 46.3506 23.5971 46.2809 23.6673C46.2111 23.7375 46.1093 23.7726 45.9756 23.7726ZM45.9756 23.5846C46.0467 23.5846 46.0992 23.566 46.1333 23.5296C46.1669 23.4932 46.1838 23.4405 46.1838 23.372V22.7307C46.1838 22.6622 46.1673 22.6099 46.1336 22.5732C46.0999 22.5367 46.0473 22.5185 45.9756 22.5185C45.9038 22.5185 45.8513 22.5367 45.8179 22.5732C45.7842 22.6099 45.7674 22.6622 45.7674 22.7307V23.372C45.7674 23.4405 45.7842 23.4932 45.8183 23.5296C45.8523 23.566 45.9045 23.5846 45.9756 23.5846H45.9756ZM47.0514 23.7726C46.9174 23.7726 46.8156 23.7371 46.7461 23.667C46.6764 23.5965 46.6417 23.4981 46.6417 23.3719V22.7307C46.6417 22.6042 46.6768 22.5055 46.7465 22.4353C46.8162 22.3652 46.918 22.3301 47.0514 22.3301C47.1859 22.3301 47.2876 22.3652 47.3571 22.435C47.4265 22.5049 47.4612 22.6036 47.4612 22.7307V23.372C47.4612 23.4988 47.4265 23.5971 47.3568 23.6673C47.287 23.7375 47.1852 23.7726 47.0515 23.7726H47.0514ZM47.0514 23.5846C47.1226 23.5846 47.1751 23.566 47.2091 23.5296C47.2428 23.4932 47.2596 23.4405 47.2596 23.372V22.7307C47.2596 22.6622 47.2431 22.6099 47.2094 22.5732C47.1757 22.5367 47.1232 22.5185 47.0514 22.5185C46.9796 22.5185 46.927 22.5367 46.8937 22.5732C46.8599 22.6099 46.8431 22.6622 46.8431 22.7307V23.372C46.8431 23.4405 46.8599 23.4932 46.894 23.5296C46.9281 23.566 46.9803 23.5846 47.0514 23.5846H47.0514Z" fill="white"/>
<path fill-rule="evenodd" clip-rule="evenodd" d="M43.738 17.543C44.2187 17.543 44.6434 17.7838 44.8998 18.152C45.0879 17.9884 45.3331 17.8894 45.6012 17.8894C46.194 17.8894 46.6745 18.373 46.6745 18.9694C46.6745 19.566 46.194 20.0494 45.6012 20.0494C45.333 20.0494 45.0879 19.9505 44.8998 19.7869C44.6434 20.155 44.2187 20.3958 43.738 20.3958C42.9551 20.3958 42.3203 19.7572 42.3203 18.9694C42.3203 18.1816 42.955 17.543 43.738 17.543V17.543Z" fill="white"/>
<path d="M28.7109 13.6592H29.7747V13.8994H28.9982V14.2315H29.3826C29.4887 14.2315 29.5767 14.2445 29.6466 14.2705C29.7165 14.2966 29.776 14.3448 29.8252 14.4151C29.875 14.4854 29.8999 14.5678 29.8999 14.6622C29.8999 14.7592 29.875 14.8422 29.8252 14.9112C29.7754 14.9802 29.7184 15.0274 29.6544 15.0528C29.591 15.0782 29.5004 15.0909 29.3826 15.0909H28.7109V13.6592ZM28.9982 14.8507H29.2778C29.3671 14.8507 29.4298 14.8464 29.4661 14.838C29.5023 14.8289 29.5337 14.8087 29.5602 14.7774C29.5874 14.7462 29.601 14.7077 29.601 14.6622C29.601 14.5958 29.5774 14.5476 29.5301 14.5176C29.4836 14.487 29.4036 14.4717 29.2904 14.4717H28.9982V14.8507Z" fill="white"/>
<path d="M31.3413 15.0909H31.0288L30.9045 14.7657H30.3358L30.2183 15.0909H29.9135L30.4678 13.6592H30.7716L31.3413 15.0909ZM30.8123 14.5245L30.6163 13.9932L30.4241 14.5245H30.8123Z" fill="white"/>
<path d="M31.4956 15.0909V13.6592H31.7829V14.2227H32.3459V13.6592H32.6332V15.0909H32.3459V14.4649H31.7829V15.0909H31.4956Z" fill="white"/>
<path d="M32.936 13.6592H33.2233V14.2686C33.2874 14.2621 33.3308 14.2455 33.3534 14.2188C33.3761 14.1921 33.411 14.1179 33.4582 13.9961C33.5178 13.8412 33.5776 13.7448 33.6378 13.707C33.6973 13.6693 33.7934 13.6504 33.9261 13.6504C33.9325 13.6504 33.9465 13.6501 33.9678 13.6494V13.8633L33.927 13.8623C33.8682 13.8623 33.8251 13.8698 33.798 13.8848C33.7708 13.8991 33.7488 13.9212 33.7319 13.9512C33.7151 13.9811 33.6902 14.0427 33.6572 14.1358C33.6397 14.1853 33.6207 14.2266 33.5999 14.2598C33.5799 14.293 33.544 14.3243 33.4922 14.3536C33.5563 14.3718 33.609 14.4086 33.6504 14.4639C33.6925 14.5193 33.7384 14.5974 33.7882 14.6983L33.9824 15.0909H33.6446L33.4747 14.7208C33.4721 14.7156 33.4666 14.7055 33.4582 14.6905C33.455 14.6853 33.443 14.6628 33.4223 14.6231C33.3854 14.5528 33.355 14.5088 33.3311 14.4913C33.3078 14.4737 33.2719 14.4646 33.2233 14.4639V15.0909H32.936V13.6592Z" fill="white"/>
<path fill-rule="evenodd" clip-rule="evenodd" d="M17.5385 26.2802C17.8624 25.7157 18.1862 25.1513 18.5101 24.5869C20.0601 25.5338 22.7555 25.8265 25.071 24.0344C22.1561 24.2921 21.1864 23.6338 19.6197 22.653L20.6433 20.8691L15.9508 21.7505L17.5385 26.2802L17.5385 26.2802Z" fill="#007FC6"/>
<path d="M57.5406 10.9717H54.5781V18.2166H55.9153V16.1259H57.5406C59.4332 16.1259 60.6058 15.1427 60.6058 13.5488C60.6058 11.9445 59.4332 10.9717 57.5406 10.9717ZM57.4788 14.9874H55.9153V12.1101H57.4788C58.6515 12.1101 59.2584 12.638 59.2584 13.5488C59.2584 14.4596 58.6515 14.9874 57.4788 14.9874Z" fill="white"/>
<path d="M63.2978 17.0781L65.2213 15.2358C66.2191 14.294 66.4145 13.6523 66.4145 12.9485C66.4145 11.6651 65.4065 10.8682 63.8429 10.8682C62.66 10.8682 61.6623 11.3132 61.1068 12.0687L62.0429 12.7932C62.444 12.2757 63.0303 12.0377 63.7298 12.0377C64.6144 12.0377 65.067 12.4206 65.067 13.083C65.067 13.4867 64.9436 13.911 64.2441 14.5838L61.3845 17.3161V18.2166H66.6922V17.0781H63.2978Z" fill="white"/>
<path d="M70.9408 10.9717H67.9783V18.2166H69.3155V16.1259H70.9408C72.8334 16.1259 74.006 15.1427 74.006 13.5488C74.006 11.9445 72.8334 10.9717 70.9408 10.9717ZM70.879 14.9874H69.3155V12.1101H70.879C72.0517 12.1101 72.6586 12.638 72.6586 13.5488C72.6586 14.4596 72.0517 14.9874 70.879 14.9874Z" fill="white"/>
<path d="M106.594 13.7317C105.687 13.7317 104.967 13.4857 104.433 12.9937C103.9 12.4993 103.633 11.8052 103.633 10.9114C103.633 10.0492 103.9 9.36238 104.433 8.85092C104.969 8.33703 105.691 8.08008 106.598 8.08008C106.839 8.08008 107.056 8.09226 107.248 8.11661C107.44 8.14097 107.625 8.17506 107.801 8.2189C107.939 8.25544 108.089 8.30536 108.252 8.36869C108.414 8.43201 108.545 8.48681 108.646 8.53308V9.83H108.491C108.418 9.77155 108.326 9.70213 108.215 9.62176C108.104 9.53895 107.978 9.45858 107.837 9.38065C107.696 9.30271 107.541 9.23695 107.37 9.18337C107.202 9.12735 107.026 9.09934 106.842 9.09934C106.623 9.09934 106.421 9.131 106.237 9.19433C106.055 9.25522 105.882 9.36238 105.717 9.51582C105.565 9.65464 105.441 9.84218 105.343 10.0784C105.248 10.3147 105.201 10.5935 105.201 10.915C105.201 11.2536 105.251 11.5385 105.351 11.7699C105.451 11.9988 105.583 12.1839 105.745 12.3252C105.902 12.4616 106.077 12.5602 106.269 12.6211C106.464 12.682 106.658 12.7124 106.85 12.7124C107.05 12.7124 107.241 12.6832 107.423 12.6248C107.604 12.5639 107.757 12.4969 107.882 12.4238C108.017 12.3483 108.136 12.2716 108.239 12.1937C108.342 12.1157 108.432 12.0463 108.507 11.9854H108.646V13.2641C108.535 13.3104 108.406 13.3639 108.26 13.4248C108.113 13.4833 107.963 13.5332 107.809 13.5746C107.619 13.6258 107.442 13.6647 107.277 13.6915C107.111 13.7183 106.884 13.7317 106.594 13.7317Z" fill="white"/>
<path d="M114.398 11.8868C114.398 12.1523 114.341 12.397 114.227 12.6211C114.116 12.8427 113.963 13.0242 113.768 13.1654C113.535 13.3335 113.283 13.4528 113.012 13.5235C112.744 13.5917 112.417 13.6258 112.029 13.6258H109.543V8.18602H113.939V9.22355H111.054V10.2282H112.054C112.417 10.2282 112.742 10.2526 113.029 10.3013C113.316 10.3475 113.573 10.4511 113.801 10.6118C114.009 10.7579 114.161 10.9418 114.256 11.1634C114.35 11.3826 114.398 11.6238 114.398 11.8868ZM112.83 11.927C112.83 11.8369 112.819 11.7516 112.797 11.6713C112.776 11.5909 112.728 11.5166 112.655 11.4484C112.582 11.3826 112.482 11.3303 112.354 11.2913C112.227 11.2523 112.051 11.2329 111.826 11.2329H111.054V12.6174H111.826C112.138 12.6174 112.383 12.5578 112.562 12.4384C112.74 12.3191 112.83 12.1486 112.83 11.927Z" fill="white"/>
<path d="M120.361 13.6258H118.842V9.22355H116.774V13.6258H115.255V8.18602H120.361V13.6258Z" fill="white"/>
<path d="M105.644 18.0923H105.037V16.3314H104.21V18.0923H103.602V15.9164H105.644V18.0923Z" fill="white"/>
<path d="M106.146 18.0923V15.9164H107.783V16.3314H106.751V16.7128H107.701V17.1278H106.751V17.6773H107.783V18.0923H106.146Z" fill="white"/>
<path d="M110.056 16.6032C110.056 16.7045 110.038 16.801 110.002 16.8926C109.966 16.9841 109.915 17.0606 109.848 17.122C109.807 17.16 109.761 17.195 109.711 17.2272C109.663 17.2593 109.608 17.2866 109.549 17.309C109.489 17.3314 109.424 17.349 109.354 17.3616C109.285 17.3743 109.207 17.3806 109.12 17.3806H108.801V18.0923H108.194V15.9164H109.133C109.273 15.9164 109.393 15.9281 109.494 15.9515C109.595 15.9739 109.688 16.0099 109.77 16.0596C109.861 16.1142 109.931 16.1872 109.981 16.2788C110.031 16.3694 110.056 16.4775 110.056 16.6032ZM109.432 16.6164C109.432 16.555 109.416 16.5024 109.383 16.4585C109.351 16.4137 109.312 16.383 109.266 16.3665C109.209 16.3441 109.153 16.3314 109.1 16.3285C109.048 16.3246 108.977 16.3226 108.888 16.3226H108.801V16.9744H108.844C108.901 16.9744 108.955 16.9739 109.006 16.9729C109.057 16.9719 109.102 16.9685 109.139 16.9627C109.172 16.9578 109.206 16.9486 109.242 16.9349C109.279 16.9203 109.307 16.9042 109.326 16.8867C109.367 16.8507 109.395 16.8132 109.409 16.7742C109.424 16.7352 109.432 16.6826 109.432 16.6164Z" fill="white"/>
<path d="M110.381 18.0923V15.9164H112.017V16.3314H110.985V16.7128H111.936V17.1278H110.985V17.6773H112.017V18.0923H110.381Z" fill="white"/>
<path d="M114.363 17.4259C114.363 17.5341 114.341 17.6291 114.295 17.7109C114.25 17.7927 114.188 17.8604 114.112 17.914C114.021 17.9783 113.92 18.0241 113.811 18.0514C113.703 18.0786 113.565 18.0923 113.397 18.0923H112.428V15.9164H113.283C113.461 15.9164 113.595 15.9227 113.686 15.9354C113.778 15.9471 113.864 15.9724 113.944 16.0114C114.031 16.0533 114.095 16.1093 114.138 16.1794C114.181 16.2496 114.203 16.3304 114.203 16.422C114.203 16.5282 114.173 16.6227 114.113 16.7055C114.055 16.7883 113.973 16.8492 113.869 16.8882V16.8999C114.019 16.9281 114.139 16.9861 114.229 17.0738C114.318 17.1605 114.363 17.2778 114.363 17.4259ZM113.585 16.5316C113.585 16.4965 113.575 16.4605 113.554 16.4235C113.535 16.3864 113.504 16.3597 113.462 16.3431C113.422 16.3275 113.374 16.3192 113.319 16.3183C113.264 16.3163 113.183 16.3153 113.075 16.3153H113.033V16.7756H113.109C113.213 16.7756 113.286 16.7747 113.327 16.7727C113.369 16.7708 113.412 16.7605 113.457 16.742C113.505 16.7216 113.539 16.6933 113.557 16.6573C113.576 16.6212 113.585 16.5793 113.585 16.5316ZM113.738 17.4157C113.738 17.3485 113.723 17.2959 113.692 17.2579C113.662 17.2199 113.617 17.1911 113.556 17.1717C113.519 17.159 113.468 17.1522 113.403 17.1512C113.339 17.1493 113.253 17.1483 113.145 17.1483H113.033V17.6933H113.065C113.223 17.6933 113.333 17.6924 113.393 17.6904C113.454 17.6885 113.516 17.6753 113.579 17.651C113.634 17.6295 113.674 17.5984 113.699 17.5574C113.725 17.5156 113.738 17.4683 113.738 17.4157Z" fill="white"/>
<path d="M116.916 17.0051C116.916 17.3568 116.812 17.6334 116.603 17.8351C116.393 18.0368 116.107 18.1376 115.743 18.1376C115.378 18.1376 115.091 18.0358 114.883 17.8322C114.675 17.6276 114.571 17.3519 114.571 17.0051C114.571 16.6553 114.675 16.3791 114.883 16.1765C115.091 15.9729 115.378 15.8711 115.743 15.8711C116.107 15.8711 116.393 15.9724 116.603 16.175C116.812 16.3767 116.916 16.6534 116.916 17.0051ZM116.289 17.0036C116.289 16.874 116.274 16.764 116.243 16.6734C116.214 16.5818 116.175 16.5068 116.125 16.4483C116.073 16.3889 116.014 16.3465 115.948 16.3212C115.883 16.2949 115.815 16.2817 115.745 16.2817C115.67 16.2817 115.602 16.2939 115.541 16.3183C115.481 16.3416 115.422 16.384 115.366 16.4454C115.316 16.5019 115.276 16.5769 115.244 16.6704C115.214 16.764 115.199 16.8755 115.199 17.0051C115.199 17.1385 115.213 17.2496 115.243 17.3383C115.272 17.4259 115.312 17.4995 115.363 17.5589C115.415 17.6193 115.474 17.6627 115.54 17.689C115.606 17.7143 115.674 17.727 115.745 17.727C115.816 17.727 115.885 17.7133 115.953 17.686C116.02 17.6578 116.078 17.6144 116.126 17.556C116.178 17.4927 116.219 17.4191 116.247 17.3353C116.275 17.2506 116.289 17.14 116.289 17.0036Z" fill="white"/>
<path d="M119.513 18.5921H118.955V18.085H117.603V18.5921H117.046V17.6758H117.209C117.322 17.4634 117.412 17.2053 117.478 16.9013C117.544 16.5964 117.577 16.2681 117.577 15.9164H119.284V17.6758H119.513V18.5921ZM118.676 17.6758V16.3314H118.146C118.126 16.5944 118.085 16.8414 118.024 17.0723C117.964 17.3022 117.887 17.5034 117.795 17.6758H118.676Z" fill="white"/>
<path d="M105.644 21.4448H105.037V19.6839H104.21V21.4448H103.602V19.2689H105.644V21.4448Z" fill="white"/>
<path d="M108.35 20.3575C108.35 20.7092 108.245 20.9859 108.036 21.1876C107.827 21.3892 107.541 21.4901 107.177 21.4901C106.811 21.4901 106.525 21.3883 106.317 21.1846C106.109 20.9801 106.005 20.7044 106.005 20.3575C106.005 20.0078 106.109 19.7316 106.317 19.529C106.525 19.3254 106.811 19.2236 107.177 19.2236C107.541 19.2236 107.827 19.3249 108.036 19.5275C108.245 19.7292 108.35 20.0059 108.35 20.3575ZM107.723 20.3561C107.723 20.2265 107.707 20.1164 107.677 20.0258C107.648 19.9342 107.608 19.8592 107.558 19.8008C107.506 19.7414 107.447 19.699 107.381 19.6736C107.316 19.6473 107.249 19.6342 107.178 19.6342C107.103 19.6342 107.036 19.6464 106.975 19.6707C106.914 19.6941 106.856 19.7365 106.8 19.7979C106.75 19.8544 106.709 19.9294 106.678 20.0229C106.647 20.1164 106.632 20.228 106.632 20.3575C106.632 20.491 106.647 20.6021 106.676 20.6907C106.705 20.7784 106.745 20.852 106.796 20.9114C106.848 20.9718 106.907 21.0151 106.973 21.0414C107.04 21.0668 107.108 21.0794 107.178 21.0794C107.25 21.0794 107.319 21.0658 107.386 21.0385C107.453 21.0103 107.511 20.9669 107.56 20.9085C107.612 20.8451 107.652 20.7716 107.68 20.6878C107.708 20.603 107.723 20.4925 107.723 20.3561Z" fill="white"/>
<path d="M111.728 21.4448H111.12V20.4803H110.293V21.4448H109.685V19.2689H110.293V20.0653H111.12V19.2689H111.728V21.4448Z" fill="white"/>
<path d="M114.433 20.3575C114.433 20.7092 114.329 20.9859 114.12 21.1876C113.911 21.3892 113.624 21.4901 113.26 21.4901C112.895 21.4901 112.609 21.3883 112.401 21.1846C112.193 20.9801 112.089 20.7044 112.089 20.3575C112.089 20.0078 112.193 19.7316 112.401 19.529C112.609 19.3254 112.895 19.2236 113.26 19.2236C113.624 19.2236 113.911 19.3249 114.12 19.5275C114.329 19.7292 114.433 20.0059 114.433 20.3575ZM113.806 20.3561C113.806 20.2265 113.791 20.1164 113.761 20.0258C113.731 19.9342 113.692 19.8592 113.642 19.8008C113.59 19.7414 113.531 19.699 113.465 19.6736C113.4 19.6473 113.332 19.6342 113.262 19.6342C113.187 19.6342 113.119 19.6464 113.059 19.6707C112.998 19.6941 112.939 19.7365 112.883 19.7979C112.833 19.8544 112.793 19.9294 112.761 20.0229C112.731 20.1164 112.716 20.228 112.716 20.3575C112.716 20.491 112.73 20.6021 112.76 20.6907C112.789 20.7784 112.829 20.852 112.88 20.9114C112.932 20.9718 112.991 21.0151 113.057 21.0414C113.123 21.0668 113.191 21.0794 113.262 21.0794C113.333 21.0794 113.403 21.0658 113.47 21.0385C113.537 21.0103 113.595 20.9669 113.644 20.9085C113.696 20.8451 113.736 20.7716 113.764 20.6878C113.792 20.603 113.806 20.4925 113.806 20.3561Z" fill="white"/>
<path d="M117.265 21.4448H116.661V20.0024L116.221 20.9333H115.806L115.366 20.0024V21.4448H114.794V19.2689H115.494L116.031 20.3429L116.565 19.2689H117.265V21.4448Z" fill="white"/>
<path d="M117.768 21.4448V19.2689H119.404V19.6839H118.372V20.0653H119.323V20.4803H118.372V21.0297H119.404V21.4448H117.768Z" fill="white"/>
<path d="M121.677 19.9557C121.677 20.057 121.659 20.1534 121.623 20.245C121.588 20.3366 121.536 20.4131 121.469 20.4744C121.428 20.5124 121.382 20.5475 121.333 20.5797C121.284 20.6118 121.23 20.6391 121.17 20.6615C121.111 20.6839 121.046 20.7014 120.975 20.7141C120.906 20.7268 120.828 20.7331 120.741 20.7331H120.423V21.4448H119.815V19.2689H120.754C120.894 19.2689 121.014 19.2806 121.115 19.3039C121.217 19.3263 121.309 19.3624 121.391 19.4121C121.482 19.4666 121.552 19.5397 121.602 19.6313C121.652 19.7219 121.677 19.83 121.677 19.9557ZM121.053 19.9688C121.053 19.9075 121.037 19.8549 121.004 19.811C120.972 19.7662 120.933 19.7355 120.887 19.7189C120.83 19.6965 120.775 19.6839 120.722 19.681C120.67 19.6771 120.599 19.6751 120.509 19.6751H120.423V20.3269H120.465C120.522 20.3269 120.576 20.3264 120.627 20.3254C120.678 20.3244 120.723 20.321 120.761 20.3152C120.793 20.3103 120.827 20.301 120.863 20.2874C120.9 20.2728 120.928 20.2567 120.947 20.2392C120.989 20.2031 121.016 20.1656 121.03 20.1267C121.046 20.0877 121.053 20.0351 121.053 19.9688Z" fill="white"/>
<path d="M124.001 19.2689L123.193 21.0093C123.145 21.1106 123.092 21.1905 123.032 21.2489C122.974 21.3074 122.912 21.3517 122.847 21.3819C122.782 21.4121 122.717 21.4326 122.652 21.4433C122.587 21.453 122.519 21.4579 122.447 21.4579C122.373 21.4579 122.285 21.4564 122.186 21.4535C122.087 21.4506 122.021 21.4477 121.987 21.4448V20.983H122.025C122.035 20.9849 122.05 20.9874 122.07 20.9903C122.091 20.9932 122.117 20.9961 122.148 20.9991C122.174 21.001 122.202 21.003 122.233 21.0049C122.263 21.0069 122.291 21.0078 122.316 21.0078C122.388 21.0078 122.456 21 122.52 20.9844C122.585 20.9679 122.629 20.9401 122.65 20.9011L121.755 19.2689H122.412L122.93 20.2889L123.369 19.2689H124.001Z" fill="white"/>
<path d="M104.067 24.7972V23.0364H103.352V22.6213H105.389V23.0364H104.674V24.7972H104.067Z" fill="white"/>
<path d="M105.639 24.7972V22.6213H107.276V23.0364H106.244V23.4178H107.194V23.8328H106.244V24.3822H107.276V24.7972H105.639Z" fill="white"/>
<path d="M109.77 24.7972H109.162V23.0364H108.551C108.547 23.1211 108.543 23.2005 108.538 23.2746C108.535 23.3476 108.531 23.4173 108.527 23.4835C108.515 23.6735 108.495 23.8376 108.468 23.976C108.441 24.1133 108.41 24.2259 108.376 24.3135C108.338 24.4071 108.299 24.4806 108.26 24.5342C108.221 24.5878 108.185 24.6302 108.15 24.6613C108.098 24.7081 108.033 24.7451 107.955 24.7724C107.877 24.7987 107.8 24.8119 107.724 24.8119C107.673 24.8119 107.617 24.8099 107.557 24.806C107.496 24.8021 107.458 24.7992 107.441 24.7972V24.3165H107.464C107.475 24.3174 107.485 24.3184 107.495 24.3194C107.506 24.3204 107.519 24.3209 107.536 24.3209C107.563 24.3209 107.597 24.317 107.64 24.3092C107.682 24.3014 107.714 24.2882 107.736 24.2697C107.814 24.2035 107.867 24.1012 107.895 23.9628C107.924 23.8235 107.946 23.6228 107.961 23.3608C107.968 23.2409 107.972 23.1333 107.973 23.0378C107.975 22.9423 107.979 22.8035 107.986 22.6213H109.77V24.7972Z" fill="white"/>
<path d="M110.27 24.7972V22.6213H111.907V23.0364H110.875V23.4178H111.825V23.8328H110.875V24.3822H111.907V24.7972H110.27Z" fill="white"/>
<path d="M114.893 23.6925C114.893 23.9545 114.795 24.1621 114.597 24.315C114.4 24.467 114.144 24.5551 113.829 24.5795V24.8148H113.224V24.5795C112.909 24.5551 112.653 24.468 112.456 24.3179C112.259 24.1669 112.16 23.9584 112.16 23.6925C112.16 23.4275 112.256 23.2219 112.448 23.0758C112.639 22.9297 112.898 22.844 113.224 22.8186V22.5994H113.829V22.8186C114.145 22.8391 114.401 22.9234 114.597 23.0714C114.795 23.2185 114.893 23.4256 114.893 23.6925ZM114.269 23.6837C114.269 23.5464 114.23 23.4343 114.152 23.3476C114.074 23.2599 113.966 23.2049 113.829 23.1825V24.2171C113.988 24.1859 114.101 24.127 114.168 24.0403C114.236 23.9526 114.269 23.8337 114.269 23.6837ZM113.224 24.2171V23.1825C113.081 23.2059 112.972 23.2614 112.896 23.3491C112.821 23.4358 112.784 23.5473 112.784 23.6837C112.784 23.8318 112.819 23.9507 112.89 24.0403C112.96 24.1289 113.072 24.1879 113.224 24.2171Z" fill="white"/>
<path d="M117.439 23.71C117.439 24.0617 117.335 24.3384 117.126 24.54C116.917 24.7417 116.63 24.8425 116.266 24.8425C115.901 24.8425 115.615 24.7407 115.407 24.5371C115.199 24.3325 115.095 24.0568 115.095 23.71C115.095 23.3603 115.199 23.0841 115.407 22.8815C115.615 22.6779 115.901 22.576 116.266 22.576C116.63 22.576 116.917 22.6774 117.126 22.88C117.335 23.0817 117.439 23.3583 117.439 23.71ZM116.812 23.7086C116.812 23.579 116.797 23.4689 116.767 23.3783C116.737 23.2867 116.698 23.2117 116.648 23.1533C116.596 23.0938 116.537 23.0515 116.471 23.0261C116.406 22.9998 116.338 22.9867 116.268 22.9867C116.193 22.9867 116.125 22.9989 116.065 23.0232C116.004 23.0466 115.946 23.089 115.889 23.1503C115.839 23.2068 115.799 23.2819 115.767 23.3754C115.737 23.4689 115.722 23.5805 115.722 23.71C115.722 23.8435 115.736 23.9545 115.766 24.0432C115.795 24.1309 115.835 24.2044 115.886 24.2639C115.938 24.3243 115.997 24.3676 116.063 24.3939C116.129 24.4192 116.197 24.4319 116.268 24.4319C116.339 24.4319 116.409 24.4183 116.476 24.391C116.543 24.3627 116.601 24.3194 116.65 24.2609C116.702 24.1976 116.742 24.1241 116.77 24.0403C116.798 23.9555 116.812 23.845 116.812 23.7086Z" fill="white"/>
<path d="M119.843 24.7972H119.235V23.8328H118.408V24.7972H117.8V22.6213H118.408V23.4178H119.235V22.6213H119.843V24.7972Z" fill="white"/>
<path d="M120.085 24.7972L120.902 22.6213H121.565L122.382 24.7972H121.757L121.606 24.353H120.845L120.694 24.7972H120.085ZM121.472 23.9584L121.225 23.2409L120.978 23.9584H121.472Z" fill="white"/>
<path fill-rule="evenodd" clip-rule="evenodd" d="M89.6406 28.0001L101.704 21.6778L95.8123 21.5664L92.9269 23.1182L89.6406 28.0001Z" fill="#027E35"/>
<path fill-rule="evenodd" clip-rule="evenodd" d="M81.2422 9.9082L101.713 21.6783L95.8217 21.5669L84.2112 14.9072L81.2422 9.9082Z" fill="#2683C9"/>
<path fill-rule="evenodd" clip-rule="evenodd" d="M81.2407 9.9082L81 22.7082L84.1541 17.8911L84.2097 14.9072L81.2407 9.9082Z" fill="#5A58A3"/>
<path fill-rule="evenodd" clip-rule="evenodd" d="M89.8537 18.146L81 22.7097L84.1541 17.8927L86.9362 16.4727L89.8537 18.146Z" fill="#964A95"/>
<path fill-rule="evenodd" clip-rule="evenodd" d="M89.6406 27.9997L89.8457 18.1436L92.9886 19.9464L92.9269 23.1178L89.6406 27.9997Z" fill="#62B22F"/>
<path fill-rule="evenodd" clip-rule="evenodd" d="M90.1562 5L101.941 11.8483L95.995 11.7331L93.1928 10.1813L90.1562 5Z" fill="#EE7024"/>
<path fill-rule="evenodd" clip-rule="evenodd" d="M90.1577 5L89.9219 14.8992L92.9624 16.6475L93.1942 10.1813L90.1577 5Z" fill="#FAB51A"/>
<path fill-rule="evenodd" clip-rule="evenodd" d="M92.9609 16.6477L101.941 11.8486L95.995 11.7334L93.1141 13.2775L92.9609 16.6477Z" fill="#DB0954"/>
</svg>
