<svg width="10" height="8" viewBox="0 0 10 8" fill="none" xmlns="http://www.w3.org/2000/svg">
<path d="M2.82902 7.33716C3.03536 7.52722 3.31126 7.63267 3.59784 7.63103C3.88433 7.65252 4.16822 7.56586 4.38862 7.38964L9.67148 2.42536C9.77461 2.32819 9.85669 2.21256 9.91306 2.08508C9.96942 1.9576 9.99895 1.82076 9.99997 1.68237C10.001 1.54398 9.97348 1.40675 9.919 1.27852C9.86452 1.15029 9.78415 1.03357 9.68246 0.935026C9.58078 0.83648 9.45978 0.758037 9.32637 0.704177C9.19296 0.650317 9.04976 0.622094 8.90494 0.62112C8.76012 0.620145 8.61651 0.646438 8.48232 0.698497C8.34813 0.750557 8.22599 0.827363 8.12286 0.92453L3.60882 5.12265L1.87349 3.49588C1.66771 3.3004 1.38934 3.19068 1.09919 3.19068C0.809028 3.19068 0.530659 3.3004 0.324878 3.49588C0.221935 3.59345 0.140228 3.70953 0.0844681 3.83742C0.0287084 3.96532 0 4.1025 0 4.24105C0 4.3796 0.0287084 4.51678 0.0844681 4.64467C0.140228 4.77257 0.221935 4.88865 0.324878 4.98621L2.82902 7.33716Z" fill="url(#paint0_linear_11326_50877)"/>
<defs>
<linearGradient id="paint0_linear_11326_50877" x1="8.125" y1="-0.255551" x2="3.52363" y2="10.8478" gradientUnits="userSpaceOnUse">
<stop stop-color="#16A7B0"/>
<stop offset="1" stop-color="#00FF85"/>
</linearGradient>
</defs>
</svg>
