<svg width="150" height="150" viewBox="0 0 150 150" fill="none" xmlns="http://www.w3.org/2000/svg">
    <circle cx="75" cy="75" r="75" fill="#0E101D"/>
    <path fill-rule="evenodd" clip-rule="evenodd" d="M53.2831 50.438C53.2831 46.9886 56.0793 44.1924 59.5287 44.1924H90.9C94.3493 44.1924 97.1456 46.9886 97.1456 50.438V99.9892C97.1456 103.439 94.3493 106.235 90.9 106.235H59.5287C56.0793 106.235 53.2831 103.439 53.2831 99.9892V50.438ZM59.5287 48.3561C58.3789 48.3561 57.4468 49.2882 57.4468 50.438V99.9892C57.4468 101.139 58.3789 102.071 59.5287 102.071H90.9C92.0498 102.071 92.9818 101.139 92.9818 99.9892V50.438C92.9818 49.2882 92.0498 48.3561 90.9 48.3561H59.5287ZM47.7674 49.4708C48.3423 49.4708 48.8083 49.9368 48.8083 50.5117C48.8083 51.0866 48.3423 51.5526 47.7674 51.5526H44.4C42.6753 51.5526 41.2772 52.9508 41.2772 54.6754V95.7524C41.2772 97.4771 42.6753 98.8753 44.4 98.8753H47.7674C48.3423 98.8753 48.8083 99.3413 48.8083 99.9162C48.8083 100.491 48.3423 100.957 47.7674 100.957H44.4C41.5255 100.957 39.1953 98.6269 39.1953 95.7524V54.6754C39.1953 51.801 41.5255 49.4708 44.4 49.4708H47.7674ZM102.663 49.4708C102.089 49.4708 101.623 49.9368 101.623 50.5117C101.623 51.0866 102.089 51.5526 102.663 51.5526H106.031C107.755 51.5526 109.154 52.9508 109.154 54.6754V95.7524C109.154 97.4771 107.755 98.8753 106.031 98.8753H102.663C102.089 98.8753 101.623 99.3413 101.623 99.9162C101.623 100.491 102.089 100.957 102.663 100.957H106.031C108.905 100.957 111.235 98.6269 111.235 95.7524V54.6754C111.235 51.801 108.905 49.4708 106.031 49.4708H102.663ZM63.2583 87.7361C62.6834 87.7361 62.2174 88.2021 62.2174 88.777C62.2174 89.3519 62.6834 89.818 63.2583 89.818H87.1723C87.7472 89.818 88.2132 89.3519 88.2132 88.777C88.2132 88.2021 87.7472 87.7361 87.1723 87.7361H63.2583ZM64.8479 94.0439C64.8479 93.469 65.314 93.003 65.8889 93.003H84.541C85.1159 93.003 85.582 93.469 85.582 94.0439C85.582 94.6188 85.1159 95.0848 84.541 95.0848H65.8889C65.314 95.0848 64.8479 94.6188 64.8479 94.0439ZM71.7909 66.2337C71.5463 65.8144 71.2473 64.9823 71.0599 63.9226C70.8753 62.8786 70.8155 61.7046 70.9823 60.6215C71.1497 59.5344 71.5323 58.6154 72.163 57.9757C72.7711 57.3589 73.7093 56.9 75.2139 56.9C76.7184 56.9 77.656 57.3589 78.2642 57.9757C78.8949 58.6154 79.2775 59.5344 79.4449 60.6215C79.6117 61.7046 79.5519 62.8786 79.3673 63.9226C79.1799 64.9823 78.8809 65.8144 78.6363 66.2337C77.3492 68.4402 78.0216 70.287 78.7994 71.0647L78.911 71.1763L85.6354 74.7155V77.932H75.2139H64.7918V74.7155L71.5162 71.1763L71.6278 71.0647C72.4056 70.287 73.078 68.4402 71.7909 66.2337ZM75.2139 80.0138H62.71V73.4586L70.2223 69.5047C70.3873 69.2457 70.6914 68.4806 69.9926 67.2827C69.5796 66.5746 69.2212 65.4805 69.0099 64.2852C68.7957 63.0742 68.7152 61.6643 68.9247 60.3045C69.1335 58.9487 69.6438 57.5657 70.6805 56.5141C71.7398 55.4396 73.2437 54.8181 75.2139 54.8181C77.1841 54.8181 78.6874 55.4396 79.7467 56.5141C80.7834 57.5657 81.2937 58.9487 81.5025 60.3045C81.7119 61.6643 81.6315 63.0742 81.4173 64.2852C81.206 65.4805 80.8476 66.5746 80.4346 67.2827C79.7358 68.4806 80.0399 69.2457 80.2049 69.5047L87.7172 73.4586V80.0138H75.2139Z" fill="url(#paint0_linear_1627_10868)"/>
    <defs>
        <linearGradient id="paint0_linear_1627_10868" x1="31.7201" y1="44.1924" x2="125.888" y2="50.0027" gradientUnits="userSpaceOnUse">
            <stop stop-color="#848484"/>
            <stop offset="1" stop-color="white"/>
        </linearGradient>
    </defs>
</svg>
