<svg width="89" height="89" viewBox="0 0 89 89" fill="none" xmlns="http://www.w3.org/2000/svg">
<circle cx="44.5" cy="44.5" r="44.5" fill="#000613"/>
<path d="M44.9079 64.3289C44.1774 64.3305 43.4536 64.19 42.7778 63.9153C37.5179 61.873 33.0052 58.3044 29.8324 53.6782C26.6597 49.052 24.9752 43.5845 25.0003 37.9939V29.9771C24.9997 28.6319 25.463 27.3268 26.3136 26.2775C27.1643 25.2281 28.3513 24.4973 29.6786 24.2059L43.6139 21.1331C44.4673 20.9556 45.3486 20.9556 46.2019 21.1331L60.1373 24.2059C61.4646 24.4973 62.6516 25.2281 63.5022 26.2775C64.3529 27.3268 64.8162 28.6319 64.8156 29.9771V37.9939C64.8364 43.586 63.1506 49.0542 59.9786 53.6827C56.8067 58.3112 52.2964 61.8845 47.0381 63.935C46.3582 64.1937 45.6363 64.3272 44.9079 64.3289ZM44.9079 24.9346H44.47L30.5346 28.0074C30.0855 28.1075 29.6854 28.3584 29.4023 28.7176C29.1191 29.0767 28.9706 29.5218 28.9818 29.9771V37.9939C28.9617 42.7971 30.4089 47.4942 33.1336 51.4695C35.8583 55.4448 39.7334 58.5128 44.251 60.2713C44.6746 60.4284 45.1413 60.4284 45.5649 60.2713C50.0824 58.5128 53.9575 55.4448 56.6823 51.4695C59.407 47.4942 60.8542 42.7971 60.8341 37.9939V29.9771C60.8453 29.5218 60.6967 29.0767 60.4136 28.7176C60.1305 28.3584 59.7303 28.1075 59.2813 28.0074L45.3459 24.9346H44.9079Z" fill="#4B516D"/>
<path d="M40.8262 41.7005L38.7512 42.8273V42.426L40.8262 43.5374L40.0617 44.8032L38.1272 43.6609L38.3456 43.522L38.3768 45.6676H36.9103L36.9259 43.522L37.1443 43.6609L35.2098 44.8032L34.4609 43.5374L36.5359 42.426V42.8273L34.4609 41.7005L35.2098 40.4347L37.1443 41.5924L36.9259 41.7159L36.9103 39.5703H38.3768L38.3456 41.7159L38.1272 41.5924L40.0617 40.4347L40.8262 41.7005Z" fill="#4B516D"/>
<path d="M47.8954 41.7005L45.8205 42.8273V42.426L47.8954 43.5374L47.131 44.8032L45.1964 43.6609L45.4149 43.522L45.4461 45.6676H43.9796L43.9952 43.522L44.2136 43.6609L42.279 44.8032L41.5302 43.5374L43.6051 42.426V42.8273L41.5302 41.7005L42.279 40.4347L44.2136 41.5924L43.9952 41.7159L43.9796 39.5703H45.4461L45.4149 41.7159L45.1964 41.5924L47.131 40.4347L47.8954 41.7005Z" fill="#4B516D"/>
<path d="M54.9647 41.7005L52.8897 42.8273V42.426L54.9647 43.5374L54.2002 44.8032L52.2657 43.6609L52.4841 43.522L52.5153 45.6676H51.0488L51.0644 43.522L51.2828 43.6609L49.3483 44.8032L48.5994 43.5374L50.6744 42.426V42.8273L48.5994 41.7005L49.3483 40.4347L51.2828 41.5924L51.0644 41.7159L51.0488 39.5703H52.5153L52.4841 41.7159L52.2657 41.5924L54.2002 40.4347L54.9647 41.7005Z" fill="#4B516D"/>
</svg>
