<svg width="89" height="90" viewBox="0 0 89 90" fill="none" xmlns="http://www.w3.org/2000/svg">
<ellipse cx="44.5" cy="45.2217" rx="44.5" ry="44.4365" fill="#000613"/>
<g clipPath="url(#clip0_11648_23479)">
<path d="M63.7265 43.5982C63.7265 44.5903 63.6109 45.5381 63.5101 46.2531C63.3747 47.213 62.4863 47.8819 61.5245 47.7466C60.5631 47.6116 59.8935 46.7239 60.0287 45.7639C61.5241 35.57 53.148 26.1743 42.8524 26.2647C21.9775 26.7621 19.1084 55.9913 39.3776 60.6228C40.3291 60.815 40.9445 61.741 40.7521 62.6912C40.5639 63.6476 39.6084 64.2585 38.6807 64.0637C22.5209 60.8578 16.3392 40.4372 28.0925 28.8589C41.2056 15.7889 63.7099 25.0975 63.7265 43.5982ZM44.5663 41.5923V32.3203C44.4799 29.9938 41.1363 29.9956 41.0507 32.3203V41.5923C40.4601 42.1129 40.1057 42.9347 40.1814 43.7711L35.1589 48.7106C34.4673 49.3908 34.4588 50.5022 35.14 51.1929C35.8215 51.8839 36.9345 51.8918 37.6259 51.2118L42.7366 46.1855C45.1893 46.2567 46.3772 43.1947 44.5663 41.5923ZM59.4163 63.6727C59.4638 63.6652 59.5119 63.6575 59.5605 63.6499C60.8097 63.452 62.5208 63.1809 63.9839 62.369C66.8621 60.9326 68.0801 56.6528 65.8297 54.1469C65.1839 53.4232 64.0727 53.3595 63.3479 54.0045C62.6232 54.6496 62.5594 55.7591 63.2054 56.4828C63.3986 56.6992 63.4629 56.8327 63.4629 57.1963C63.4629 59.1479 62.0891 59.6948 59.0097 60.1826C58.897 60.2005 58.7871 60.2179 58.6807 60.2352C57.4132 60.4407 56.383 61.3791 56.0563 62.6257C56.053 62.6382 56.0498 62.6508 56.0469 62.6633C55.9479 63.0779 55.6851 64.1791 53.1692 64.1791H50.3899C49.0194 64.1791 47.8395 63.2526 47.5157 61.9242L45.838 54.25C45.8356 54.2391 45.8331 54.2283 45.8305 54.2175C45.7342 53.8137 45.8659 53.537 45.9933 53.3758C46.2097 53.1022 46.5702 52.9452 46.9824 52.9452H56.4766C56.9085 52.9452 57.2774 53.0985 57.4888 53.3657C57.6547 53.5755 57.7017 53.8374 57.6285 54.1442C57.6274 54.1486 57.6264 54.1531 57.6254 54.1575L57.2674 55.7113C57.0497 56.6561 57.6402 57.5982 58.5864 57.8155C59.5327 58.0327 60.4759 57.4432 60.6936 56.4985L61.0503 54.9505C61.7832 52.0608 59.4301 49.3737 56.4768 49.4348H46.9822C44.0335 49.3721 41.6773 52.1358 42.4062 55.0135L44.0848 62.6913C44.0871 62.7022 44.0897 62.713 44.0922 62.7239C44.7899 65.6476 47.3796 67.6897 50.3898 67.6897H53.169C56.4496 67.6897 58.7141 66.229 59.4163 63.6727Z" fill="#4B516D"/>
</g>
<defs>
<clipPath id="clip0_11648_23479">
<rect width="45" height="44.9358" fill="white" transform="translate(22 22.7539)"/>
</clipPath>
</defs>
</svg>
