<svg width="218" height="236" viewBox="0 0 218 236" fill="none" xmlns="http://www.w3.org/2000/svg">
<g style="mix-blend-mode:lighten">
<path fill-rule="evenodd" clip-rule="evenodd" d="M0.314002 92.5605C0.199635 118.069 6.61922 143.106 18.8645 165.374V232.958C18.8645 234.402 20.0347 235.572 21.4783 235.572H103.571C105.276 235.86 107.007 236.004 108.745 236C110.495 235.996 112.238 235.852 113.958 235.572H201.439C202.882 235.572 204.052 234.402 204.052 232.958V164.655C204.052 163.211 202.882 162.041 201.439 162.041H200.386C211.468 140.619 217.267 116.804 217.176 92.5605V48.8957C217.179 41.5689 214.656 34.4604 210.023 28.7448C205.39 23.0292 198.924 19.0488 191.695 17.4613L115.793 0.724962C111.145 -0.241654 106.345 -0.241654 101.697 0.724962L25.7953 17.4613C18.5661 19.0488 12.1007 23.0292 7.46756 28.7448C2.83442 34.4604 0.310884 41.5689 0.314002 48.8957V92.5605ZM162.493 209.058L153.093 188.657L148.653 179.02H139.824L126.89 207.183L122.609 216.505H131.768L135.189 208.472H153.122L155.651 214.41L156.543 216.505H165.924L162.493 209.058ZM175.458 162.041C188.629 141.251 195.593 117.161 195.49 92.5605V48.8957C195.551 46.4157 194.742 43.9913 193.2 42.0353C191.658 40.0792 189.478 38.7123 187.032 38.1673L111.131 21.4309H106.36L30.4579 38.1673C28.0119 38.7123 25.8323 40.0792 24.2903 42.0353C22.7482 43.9913 21.939 46.4157 22.0002 48.8957V92.5605C21.8973 117.161 28.8609 141.251 42.0318 162.041H175.458ZM58.7918 183.243C58.1184 183.89 57.516 184.591 56.9894 185.339L63.5004 189.409C63.7357 189.093 63.9857 188.798 64.2495 188.522C66.09 186.602 68.6057 185.66 71.5013 185.66C75.5845 185.66 77.6813 187.374 77.6813 190.319C77.6813 192.042 77.1379 193.86 74.1816 196.727C74.0134 196.89 73.8374 197.057 73.6533 197.227L58.7551 210.882V212.03L58.7551 216.505H64.8284H87.9445V209.436H71.3358L80.2195 201.297C80.2885 201.234 80.3569 201.172 80.4245 201.111C85.6536 196.339 86.6753 193.057 86.6753 189.462C86.6753 182.662 80.9368 178.378 72.329 178.378C66.6053 178.378 61.9287 180.229 58.7918 183.243ZM144.183 187.534L138.921 199.864L138.058 201.886H150.308L146.915 193.936L144.183 187.534ZM108.736 58.5521C121.753 58.5521 132.338 68.3235 132.338 80.3389V91.2323H135.289C140.166 91.2323 144.14 94.8961 144.14 99.4024V137.529C144.14 142.036 140.166 145.699 135.289 145.699H82.1833C77.3055 145.699 73.3324 142.036 73.3324 137.529V99.4024C73.3324 94.8961 77.3055 91.2323 82.1833 91.2323H85.1336V80.3389C85.1336 68.3235 95.7193 58.5521 108.736 58.5521ZM108.736 65.8144C100.058 65.8144 93.0011 72.3286 93.0011 80.3389V91.2323H124.471V80.3389C124.471 72.3286 117.414 65.8144 108.736 65.8144ZM94.0606 208.976V216.505H103V213.034V202.849H120.877V195.888H103V185.982H123.25V179.02H94.0606V208.976Z" fill="url(#paint0_linear_10926_46669)"/>
</g>
<defs>
<linearGradient id="paint0_linear_10926_46669" x1="108.745" y1="0" x2="108.745" y2="236" gradientUnits="userSpaceOnUse">
<stop offset="0.604167" stop-color="#1B1E34"/>
<stop offset="1" stop-color="#1B1E2F" stop-opacity="0"/>
</linearGradient>
</defs>
</svg>
