<svg width="44" height="44" viewBox="0 0 44 44" fill="none" xmlns="http://www.w3.org/2000/svg">
<g filter="url(#filter0_d_77_26999)">
<mask id="path-1-inside-1_77_26999" fill="white">
<path fill-rule="evenodd" clip-rule="evenodd" d="M32 22C32 27.5228 27.5228 32 22 32C16.4772 32 12 27.5228 12 22C12 16.4772 16.4772 12 22 12C27.5228 12 32 16.4772 32 22ZM22.3609 19.3825C21.3882 19.7871 19.4443 20.6244 16.5291 21.8945C16.0557 22.0828 15.8078 22.267 15.7852 22.447C15.747 22.7514 16.1281 22.8712 16.6471 23.0344C16.7177 23.0566 16.7908 23.0796 16.8658 23.1039C17.3764 23.2699 18.0632 23.4641 18.4203 23.4718C18.7442 23.4788 19.1056 23.3453 19.5047 23.0712C22.2285 21.2326 23.6345 20.3033 23.7228 20.2832C23.7851 20.2691 23.8714 20.2513 23.9298 20.3033C23.9883 20.3553 23.9826 20.4537 23.9764 20.4801C23.9386 20.6411 22.4426 22.0319 21.6685 22.7516C21.4271 22.976 21.2559 23.1351 21.2209 23.1715C21.1425 23.2529 21.0626 23.3299 20.9859 23.4039C20.5115 23.8612 20.1558 24.2041 21.0056 24.7641C21.4139 25.0332 21.7407 25.2557 22.0667 25.4777C22.4227 25.7202 22.7778 25.962 23.2372 26.2632C23.3543 26.3399 23.4661 26.4196 23.5749 26.4972C23.9893 26.7926 24.3615 27.058 24.8214 27.0156C25.0886 26.9911 25.3646 26.7398 25.5048 25.9904C25.8361 24.2194 26.4872 20.3822 26.6377 18.8009C26.6509 18.6624 26.6343 18.4851 26.621 18.4072C26.6077 18.3294 26.5798 18.2185 26.4787 18.1364C26.3589 18.0392 26.1739 18.0187 26.0912 18.0202C25.7151 18.0268 25.138 18.2274 22.3609 19.3825Z"/>
</mask>
<path fill-rule="evenodd" clip-rule="evenodd" d="M32 22C32 27.5228 27.5228 32 22 32C16.4772 32 12 27.5228 12 22C12 16.4772 16.4772 12 22 12C27.5228 12 32 16.4772 32 22ZM22.3609 19.3825C21.3882 19.7871 19.4443 20.6244 16.5291 21.8945C16.0557 22.0828 15.8078 22.267 15.7852 22.447C15.747 22.7514 16.1281 22.8712 16.6471 23.0344C16.7177 23.0566 16.7908 23.0796 16.8658 23.1039C17.3764 23.2699 18.0632 23.4641 18.4203 23.4718C18.7442 23.4788 19.1056 23.3453 19.5047 23.0712C22.2285 21.2326 23.6345 20.3033 23.7228 20.2832C23.7851 20.2691 23.8714 20.2513 23.9298 20.3033C23.9883 20.3553 23.9826 20.4537 23.9764 20.4801C23.9386 20.6411 22.4426 22.0319 21.6685 22.7516C21.4271 22.976 21.2559 23.1351 21.2209 23.1715C21.1425 23.2529 21.0626 23.3299 20.9859 23.4039C20.5115 23.8612 20.1558 24.2041 21.0056 24.7641C21.4139 25.0332 21.7407 25.2557 22.0667 25.4777C22.4227 25.7202 22.7778 25.962 23.2372 26.2632C23.3543 26.3399 23.4661 26.4196 23.5749 26.4972C23.9893 26.7926 24.3615 27.058 24.8214 27.0156C25.0886 26.9911 25.3646 26.7398 25.5048 25.9904C25.8361 24.2194 26.4872 20.3822 26.6377 18.8009C26.6509 18.6624 26.6343 18.4851 26.621 18.4072C26.6077 18.3294 26.5798 18.2185 26.4787 18.1364C26.3589 18.0392 26.1739 18.0187 26.0912 18.0202C25.7151 18.0268 25.138 18.2274 22.3609 19.3825Z" fill="#FA00FF"/>
<path d="M16.5291 21.8945L16.8986 22.8238L16.9137 22.8178L16.9285 22.8113L16.5291 21.8945ZM22.3609 19.3825L21.9769 18.4592H21.9769L22.3609 19.3825ZM15.7852 22.447L16.7774 22.5714V22.5714L15.7852 22.447ZM16.6471 23.0344L16.3471 23.9883L16.3471 23.9883L16.6471 23.0344ZM16.8658 23.1039L17.175 22.1529L17.175 22.1529L16.8658 23.1039ZM18.4203 23.4718L18.3987 24.4716H18.3987L18.4203 23.4718ZM19.5047 23.0712L18.9452 22.2424L18.9387 22.2469L19.5047 23.0712ZM23.7228 20.2832L23.5015 19.308L23.5015 19.308L23.7228 20.2832ZM23.9764 20.4801L24.95 20.7085L24.95 20.7085L23.9764 20.4801ZM21.6685 22.7516L20.9876 22.0192L21.6685 22.7516ZM21.2209 23.1715L20.5006 22.4779L20.5006 22.4779L21.2209 23.1715ZM20.9859 23.4039L21.6799 24.1239L21.6799 24.1239L20.9859 23.4039ZM21.0056 24.7641L21.5558 23.9291L21.5558 23.9291L21.0056 24.7641ZM22.0667 25.4777L22.6295 24.6512H22.6295L22.0667 25.4777ZM23.2372 26.2632L23.7854 25.4268L23.7854 25.4268L23.2372 26.2632ZM23.5749 26.4972L24.1554 25.683L24.1554 25.683L23.5749 26.4972ZM24.8214 27.0156L24.7297 26.0198H24.7297L24.8214 27.0156ZM25.5048 25.9904L24.5218 25.8065V25.8065L25.5048 25.9904ZM26.6377 18.8009L25.6422 18.7062V18.7062L26.6377 18.8009ZM26.4787 18.1364L25.8486 18.913L25.8486 18.913L26.4787 18.1364ZM26.0912 18.0202L26.0736 17.0203H26.0736L26.0912 18.0202ZM22 33C28.0751 33 33 28.0751 33 22H31C31 26.9706 26.9706 31 22 31V33ZM11 22C11 28.0751 15.9249 33 22 33V31C17.0294 31 13 26.9706 13 22H11ZM22 11C15.9249 11 11 15.9249 11 22H13C13 17.0294 17.0294 13 22 13V11ZM33 22C33 15.9249 28.0751 11 22 11V13C26.9706 13 31 17.0294 31 22H33ZM16.9285 22.8113C19.8451 21.5406 21.7813 20.7067 22.7449 20.3059L21.9769 18.4592C20.9952 18.8675 19.0436 19.7082 16.1297 20.9778L16.9285 22.8113ZM16.7774 22.5714C16.7569 22.7351 16.6907 22.8488 16.6471 22.9075C16.6058 22.9631 16.5746 22.9839 16.5843 22.9767C16.5918 22.9711 16.619 22.9525 16.6751 22.9235C16.73 22.8952 16.8034 22.8616 16.8986 22.8238L16.1596 20.9653C15.8871 21.0737 15.616 21.2046 15.3919 21.371C15.1939 21.5181 14.8555 21.8238 14.7929 22.3226L16.7774 22.5714ZM16.9471 22.0804C16.8123 22.038 16.712 22.0063 16.627 21.9757C16.5864 21.9611 16.556 21.9491 16.5334 21.9393C16.5105 21.9294 16.5014 21.9242 16.5017 21.9244C16.5023 21.9248 16.5066 21.9273 16.5138 21.9321C16.521 21.937 16.5321 21.945 16.5459 21.9565C16.5729 21.9791 16.6154 22.0197 16.6577 22.082C16.7016 22.1465 16.7404 22.2274 16.7628 22.3215C16.7852 22.4154 16.7862 22.5014 16.7774 22.5714L14.7929 22.3226C14.7536 22.6363 14.8264 22.9456 15.0038 23.2065C15.1619 23.439 15.3665 23.5796 15.5127 23.6628C15.7825 23.8163 16.1289 23.9197 16.3471 23.9883L16.9471 22.0804ZM17.175 22.1529C17.0947 22.1268 17.017 22.1024 16.9471 22.0804L16.3471 23.9883C16.4184 24.0107 16.487 24.0323 16.5567 24.055L17.175 22.1529ZM18.4419 22.472C18.3848 22.4708 18.2181 22.446 17.9439 22.3773C17.6928 22.3143 17.4166 22.2315 17.175 22.1529L16.5567 24.055C16.8257 24.1424 17.1481 24.2396 17.4574 24.3172C17.7434 24.3889 18.0988 24.4651 18.3987 24.4716L18.4419 22.472ZM18.9387 22.2469C18.6314 22.4579 18.4759 22.4728 18.4419 22.472L18.3987 24.4716C19.0124 24.4848 19.5799 24.2327 20.0708 23.8956L18.9387 22.2469ZM23.5015 19.308C23.3959 19.332 23.3161 19.3688 23.2999 19.376C23.2683 19.3903 23.2414 19.4041 23.2236 19.4135C23.187 19.4328 23.1503 19.454 23.1184 19.4729C23.0527 19.5118 22.9696 19.5635 22.8733 19.6247C22.6787 19.7483 22.4036 19.9278 22.0507 20.161C21.3435 20.6284 20.3078 21.3226 18.9453 22.2424L20.0642 23.9001C21.4254 22.9812 22.4546 22.2914 23.1535 21.8295C23.5036 21.5981 23.7667 21.4266 23.9458 21.3128C24.0362 21.2553 24.0987 21.2168 24.1375 21.1938C24.1578 21.1818 24.1629 21.1792 24.158 21.1818C24.156 21.1829 24.1423 21.1901 24.1214 21.1995C24.1159 21.202 24.0441 21.2357 23.9441 21.2584L23.5015 19.308ZM24.5942 19.5559C24.3222 19.3142 24.0167 19.2699 23.8356 19.2685C23.6685 19.2672 23.5264 19.3024 23.5015 19.308L23.9441 21.2584C23.9814 21.25 23.9137 21.2692 23.8199 21.2685C23.7121 21.2676 23.479 21.2405 23.2655 21.0507L24.5942 19.5559ZM24.95 20.7085C24.9836 20.5651 24.989 20.4064 24.9666 20.2547C24.9442 20.1037 24.8699 19.801 24.5942 19.5559L23.2655 21.0507C23.0483 20.8576 23.0003 20.6301 22.9882 20.5479C22.9805 20.496 22.9792 20.4505 22.9806 20.4126C22.9817 20.3821 22.9855 20.3255 23.0028 20.2517L24.95 20.7085ZM22.3494 23.484C22.7352 23.1253 23.3093 22.5916 23.7922 22.1267C24.0325 21.8953 24.2586 21.6729 24.4302 21.4941C24.5146 21.4062 24.5969 21.3173 24.6641 21.2373C24.6968 21.1984 24.7377 21.1476 24.7764 21.0913C24.7897 21.072 24.9003 20.9201 24.95 20.7085L23.0028 20.2517C23.0304 20.1339 23.0736 20.0518 23.0877 20.0255C23.1067 19.9902 23.1228 19.9662 23.129 19.9572C23.1414 19.9393 23.1455 19.9356 23.1322 19.9515C23.1073 19.9812 23.0605 20.033 22.9872 20.1093C22.8435 20.259 22.6401 20.4596 22.405 20.6859C21.9369 21.1366 21.376 21.6581 20.9876 22.0192L22.3494 23.484ZM21.9413 23.8651C21.9323 23.8744 21.9337 23.8726 21.961 23.8466C21.9827 23.8259 22.0126 23.7977 22.0506 23.7622C22.1265 23.6912 22.2282 23.5966 22.3494 23.484L20.9876 22.0192C20.767 22.2242 20.561 22.4151 20.5006 22.4779L21.9413 23.8651ZM21.6799 24.1239C21.7548 24.0517 21.8479 23.962 21.9413 23.8651L20.5006 22.4779C20.4371 22.5438 20.3705 22.6081 20.2918 22.684L21.6799 24.1239ZM21.5558 23.9291C21.481 23.8798 21.4362 23.8438 21.4117 23.8217C21.3869 23.7992 21.3924 23.7995 21.4092 23.8247C21.4275 23.8522 21.4586 23.9085 21.4771 23.9916C21.4961 24.0775 21.4952 24.1633 21.4803 24.2391C21.4662 24.3102 21.4431 24.3564 21.4335 24.3737C21.4245 24.3899 21.4229 24.3885 21.4408 24.3669C21.4582 24.3458 21.4853 24.3158 21.5278 24.2727C21.5707 24.2292 21.6187 24.1829 21.6799 24.1239L20.2918 22.684C20.1846 22.7874 20.0283 22.9363 19.8979 23.0943C19.7701 23.2493 19.5863 23.5062 19.5181 23.8519C19.3467 24.7205 19.9832 25.288 20.4553 25.5991L21.5558 23.9291ZM22.6295 24.6512C22.3036 24.4292 21.9712 24.2028 21.5558 23.9291L20.4553 25.5991C20.8566 25.8636 21.1778 26.0823 21.5038 26.3043L22.6295 24.6512ZM23.7854 25.4268C23.3341 25.131 22.9854 24.8935 22.6295 24.6512L21.5038 26.3043C21.86 26.5468 22.2215 26.793 22.689 27.0995L23.7854 25.4268ZM24.1554 25.683C24.0489 25.607 23.9215 25.516 23.7854 25.4268L22.689 27.0995C22.7871 27.1638 22.8832 27.2322 22.9945 27.3115L24.1554 25.683ZM24.7297 26.0198C24.725 26.0203 24.7196 26.0205 24.7076 26.0178C24.6932 26.0146 24.6646 26.0061 24.6169 25.983C24.5048 25.9288 24.3788 25.8422 24.1554 25.683L22.9944 27.3115C23.3339 27.5535 24.0177 28.0938 24.913 28.0114L24.7297 26.0198ZM24.5218 25.8065C24.4955 25.9471 24.4668 26.0428 24.4431 26.1042C24.4194 26.1659 24.4048 26.1827 24.4113 26.174C24.4192 26.1635 24.4505 26.1261 24.5131 26.0891C24.5777 26.051 24.6531 26.0269 24.7297 26.0198L24.913 28.0114C25.8969 27.9209 26.3297 27.0189 26.4877 26.1743L24.5218 25.8065ZM25.6422 18.7062C25.4966 20.2365 24.8538 24.032 24.5218 25.8065L26.4877 26.1743C26.8183 24.4068 27.4779 20.5278 27.6332 18.8957L25.6422 18.7062ZM25.6353 18.5759C25.6343 18.5702 25.6353 18.5748 25.6369 18.5899C25.6384 18.6036 25.6399 18.6208 25.641 18.6396C25.6421 18.6584 25.6426 18.6755 25.6425 18.6895C25.6425 18.7043 25.6419 18.7095 25.6422 18.7062L27.6332 18.8957C27.6572 18.6434 27.6297 18.3734 27.6067 18.2386L25.6353 18.5759ZM25.8486 18.913C25.6578 18.7582 25.6327 18.5605 25.6353 18.5759L27.6067 18.2386C27.5827 18.0984 27.5019 17.6789 27.1088 17.3599L25.8486 18.913ZM26.1088 19.02C26.0851 19.0204 26.0713 19.0192 26.0654 19.0186C26.0585 19.0179 26.0499 19.0166 26.0387 19.0139C26.0279 19.0114 26.0065 19.0055 25.9774 18.9928C25.9487 18.9802 25.9018 18.9561 25.8486 18.913L27.1088 17.3599C26.89 17.1824 26.6555 17.105 26.5034 17.0687C26.3449 17.0308 26.1937 17.0182 26.0736 17.0203L26.1088 19.02ZM22.7449 20.3059C24.1371 19.7268 24.9544 19.3969 25.4675 19.2107C25.9979 19.0183 26.1004 19.0202 26.1088 19.02L26.0736 17.0203C25.7058 17.0268 25.3318 17.1324 24.7853 17.3307C24.2216 17.5352 23.3618 17.8832 21.9769 18.4592L22.7449 20.3059Z" fill="#FC80FF" mask="url(#path-1-inside-1_77_26999)"/>
</g>
<defs>
<filter id="filter0_d_77_26999" x="0" y="0" width="44" height="44" filterUnits="userSpaceOnUse" color-interpolation-filters="sRGB">
<feFlood flood-opacity="0" result="BackgroundImageFix"/>
<feColorMatrix in="SourceAlpha" type="matrix" values="0 0 0 0 0 0 0 0 0 0 0 0 0 0 0 0 0 0 127 0" result="hardAlpha"/>
<feOffset/>
<feGaussianBlur stdDeviation="6"/>
<feComposite in2="hardAlpha" operator="out"/>
<feColorMatrix type="matrix" values="0 0 0 0 0.980392 0 0 0 0 0 0 0 0 0 1 0 0 0 0.25 0"/>
<feBlend mode="normal" in2="BackgroundImageFix" result="effect1_dropShadow_77_26999"/>
<feBlend mode="normal" in="SourceGraphic" in2="effect1_dropShadow_77_26999" result="shape"/>
</filter>
</defs>
</svg>
