<svg xmlns="http://www.w3.org/2000/svg" width="51" height="51" fill="none"><g filter="url(#a)"><circle cx="25.5" cy="25.5" r="25.5" fill="#000613"/><circle cx="25.5" cy="25.5" r="24.5" stroke="url(#b)" stroke-opacity=".5" stroke-width="2"/></g><path fill="#039BE5" d="m21.633 29.181-.364 5.584c.52 0 .746-.244 1.016-.537l2.441-2.545 5.059 4.041c.927.564 1.581.267 1.831-.93l3.32-16.973h.001c.295-1.497-.495-2.082-1.4-1.715l-19.516 8.151c-1.332.564-1.311 1.374-.226 1.741l4.99 1.693 11.59-7.91c.545-.395 1.04-.177.633.217l-9.375 9.183Z" opacity=".8"/><defs><linearGradient id="b" x1="-13.813" x2=".627" y1="30.595" y2="9.73" gradientUnits="userSpaceOnUse"><stop stop-color="#6E85CF"/><stop offset="1" stop-color="#6E85CF" stop-opacity="0"/></linearGradient><filter id="a" width="91" height="91" x="-20" y="-20" colorInterpolationFilters="sRGB" filterUnits="userSpaceOnUse"><feFlood floodOpacity="0" result="BackgroundImageFix"/><feGaussianBlur in="BackgroundImageFix" stdDeviation="10"/><feComposite in2="SourceAlpha" operator="in" result="effect1_backgroundBlur_12874_55174"/><feBlend in="SourceGraphic" in2="effect1_backgroundBlur_12874_55174" result="shape"/></filter></defs></svg>