<svg width="89" height="89" viewBox="0 0 89 89" fill="none" xmlns="http://www.w3.org/2000/svg">
<circle cx="44.5" cy="44.5" r="44.5" fill="#000613"/>
<path d="M44.9079 65.5789C44.1774 65.5805 43.4536 65.44 42.7778 65.1653C37.5179 63.123 33.0052 59.5544 29.8324 54.9282C26.6597 50.302 24.9752 44.8345 25.0003 39.2439V31.2271C24.9997 29.8819 25.463 28.5768 26.3136 27.5275C27.1643 26.4781 28.3513 25.7473 29.6786 25.4559L43.6139 22.3831C44.4673 22.2056 45.3486 22.2056 46.2019 22.3831L60.1373 25.4559C61.4646 25.7473 62.6516 26.4781 63.5022 27.5275C64.3529 28.5768 64.8162 29.8819 64.8156 31.2271V39.2439C64.8364 44.836 63.1506 50.3042 59.9786 54.9327C56.8067 59.5612 52.2964 63.1345 47.0381 65.185C46.3582 65.4437 45.6363 65.5772 44.9079 65.5789ZM44.9079 26.1846H44.47L30.5346 29.2574C30.0855 29.3575 29.6854 29.6084 29.4023 29.9676C29.1191 30.3267 28.9706 30.7718 28.9818 31.2271V39.2439C28.9617 44.047 30.4089 48.7442 33.1336 52.7195C35.8583 56.6948 39.7334 59.7628 44.251 61.5213C44.6746 61.6784 45.1413 61.6784 45.5649 61.5213C50.0824 59.7628 53.9575 56.6948 56.6823 52.7195C59.407 48.7442 60.8542 44.047 60.8341 39.2439V31.2271C60.8453 30.7718 60.6967 30.3267 60.4136 29.9676C60.1305 29.6084 59.7303 29.3575 59.2813 29.2574L45.3459 26.1846H44.9079Z" fill="#4B516D"/>
<path d="M49.7812 39H49.2396V37C49.2396 34.794 47.2961 33 44.9062 33C42.5164 33 40.5729 34.794 40.5729 37V39H40.0312C39.1357 39 38.4062 39.6727 38.4062 40.5V47.5C38.4062 48.3273 39.1357 49 40.0312 49H49.7812C50.6768 49 51.4062 48.3273 51.4062 47.5V40.5C51.4062 39.6727 50.6768 39 49.7812 39ZM42.0174 37C42.0174 35.5293 43.313 34.3333 44.9062 34.3333C46.4995 34.3333 47.7951 35.5293 47.7951 37V39H42.0174V37Z" fill="#4B516D"/>
<rect x="28.4062" y="52" width="34" height="13.5" rx="2" fill="#4B516D"/>
<path d="M38.0402 60.7022H41.0895V62H35.7304V60.9677L38.4657 58.4607C39.0938 57.8806 39.2052 57.5267 39.2052 57.1924C39.2052 56.6517 38.8203 56.3371 38.0706 56.3371C37.4628 56.3371 36.9461 56.5632 36.6017 57.0253L35.4062 56.2781C35.9533 55.5014 36.9461 55 38.2226 55C39.8029 55 40.8565 55.7865 40.8565 57.0351C40.8565 57.7037 40.664 58.3132 39.6712 59.2079L38.0402 60.7022Z" fill="#000613"/>
<path d="M47.5715 56.3961H43.8536V58.2149H47.1359V59.493H43.8536V62H42.2124V55.118H47.5715V56.3961Z" fill="#000613"/>
<path d="M53.684 62L53.056 60.5253H49.7635L49.1354 62H47.4537L50.6145 55.118H52.2354L55.4062 62H53.684ZM50.2903 59.316H52.5393L51.4148 56.6812L50.2903 59.316Z" fill="#000613"/>
</svg>
