<svg xmlns="http://www.w3.org/2000/svg" width="51" height="51" fill="none"><g filter="url(#a)"><circle cx="25.5" cy="25.5" r="25.5" fill="#000613"/><circle cx="25.5" cy="25.5" r="24.5" stroke="url(#b)" stroke-opacity=".5" stroke-width="2"/></g><path fill="#4C75A3" d="M33.745 27.028c-.404-.49-.288-.708 0-1.146.006-.005 3.342-4.431 3.686-5.932l.002-.001c.171-.547 0-.949-.826-.949h-2.733c-.696 0-1.017.345-1.189.731 0 0-1.392 3.198-3.36 5.271-.636.599-.93.791-1.277.791-.17 0-.436-.192-.436-.739v-5.105c0-.656-.195-.949-.77-.949h-4.299c-.436 0-.696.306-.696.591 0 .622.985.765 1.087 2.515v3.797c0 .832-.158.985-.507.985-.929 0-3.184-3.211-4.52-6.886-.27-.713-.534-1.001-1.235-1.001h-2.735c-.78 0-.937.345-.937.731 0 .682.93 4.073 4.321 8.553 2.26 3.058 5.444 4.715 8.34 4.715 1.74 0 1.953-.368 1.953-1.001 0-2.922-.157-3.198.715-3.198.404 0 1.1.192 2.725 1.667C32.91 32.217 33.216 33 34.256 33h2.733c.78 0 1.174-.368.947-1.094-.52-1.527-4.032-4.668-4.19-4.878Z"/><defs><linearGradient id="b" x1="-13.813" x2=".627" y1="30.595" y2="9.73" gradientUnits="userSpaceOnUse"><stop stop-color="#6E85CF"/><stop offset="1" stop-color="#6E85CF" stop-opacity="0"/></linearGradient><filter id="a" width="91" height="91" x="-20" y="-20" colorInterpolationFilters="sRGB" filterUnits="userSpaceOnUse"><feFlood floodOpacity="0" result="BackgroundImageFix"/><feGaussianBlur in="BackgroundImageFix" stdDeviation="10"/><feComposite in2="SourceAlpha" operator="in" result="effect1_backgroundBlur_12874_55175"/><feBlend in="SourceGraphic" in2="effect1_backgroundBlur_12874_55175" result="shape"/></filter></defs></svg>