<svg width="22" height="27" viewBox="0 0 22 27" fill="none" xmlns="http://www.w3.org/2000/svg">
<mask id="mask0_8206_63703" style="mask-type:alpha" maskUnits="userSpaceOnUse" x="0" y="0" width="22" height="27">
<path d="M15.5702 0C15.7174 0.143525 15.6938 0.293031 15.5997 0.460477C15.2465 1.10634 14.9052 1.7522 14.552 2.41601C16.7944 3.70774 18.1187 5.57955 18.2305 8.27064C13.3984 8.27064 8.60167 8.27064 3.75781 8.27064C3.85787 5.58553 5.18213 3.71372 7.44221 2.41601C7.29507 2.14092 7.15381 1.86583 7.00667 1.59074C6.80067 1.208 6.60056 0.81929 6.38868 0.436556C6.3004 0.27509 6.29451 0.131565 6.42988 0C6.50051 0 6.56525 0 6.63588 0C6.71828 0.137545 6.81245 0.26911 6.88896 0.412635C7.21267 1.01066 7.53638 1.61466 7.86597 2.22464C9.96713 1.33957 12.0624 1.34555 14.1459 2.22464C14.2872 1.96749 14.4108 1.73426 14.5344 1.50104C14.811 1.00468 15.0935 0.502338 15.3701 0.00598022C15.4349 0 15.4996 0 15.5702 0ZM7.6894 5.62739C8.00723 5.63337 8.28973 5.36426 8.30151 5.03534C8.31328 4.70643 8.03077 4.40742 7.70117 4.40144C7.38924 4.39546 7.11261 4.67653 7.10673 5.00544C7.10673 5.34034 7.37158 5.62141 7.6894 5.62739ZM14.3048 5.62739C14.6285 5.62141 14.8875 5.34034 14.8816 5.00544C14.8757 4.67653 14.5991 4.39546 14.2872 4.40144C13.9693 4.40742 13.6927 4.69447 13.6927 5.01142C13.6868 5.34632 13.9752 5.63337 14.3048 5.62739Z" fill="#5ADB87"/>
<path d="M15.3011 21.1764C15.3011 21.3379 15.3011 21.4575 15.3011 21.5771C15.2952 22.7133 15.3129 23.8436 15.2658 24.9799C15.2364 25.7812 14.5183 26.4031 13.7061 26.4151C12.9116 26.4271 12.2112 25.835 12.1052 25.0516C12.0817 24.8722 12.0699 24.6928 12.0699 24.5134C12.064 23.413 12.0699 22.3127 12.0699 21.2004C11.3519 21.2004 10.6574 21.2004 9.92166 21.2004C9.92166 21.296 9.92166 21.3857 9.92166 21.4754C9.92166 22.5519 9.92755 23.6223 9.92166 24.6988C9.91578 25.6197 9.33899 26.3015 8.515 26.4031C7.59684 26.5168 6.76697 25.829 6.73754 24.8842C6.70223 23.7599 6.714 22.6296 6.70223 21.5053C6.70223 21.4037 6.70223 21.302 6.70223 21.1585C6.24315 21.1585 5.8135 21.1764 5.38385 21.1525C4.55987 21.1107 3.88302 20.399 3.84182 19.5558C3.83594 19.4541 3.83594 19.3525 3.83594 19.2448C3.83594 15.8839 3.83594 12.5231 3.83594 9.16217C3.83594 9.07247 3.83594 8.97678 3.83594 8.86914C8.62094 8.86914 13.3824 8.86914 18.1556 8.86914C18.1615 8.95884 18.1674 9.04257 18.1674 9.12629C18.1674 12.5111 18.1556 15.9019 18.1733 19.2867C18.1792 20.3093 17.5376 20.991 16.849 21.1107C16.4547 21.1824 16.0427 21.1525 15.6366 21.1645C15.5365 21.1764 15.4365 21.1764 15.3011 21.1764Z" fill="#5ADB87"/>
<path d="M18.8136 13.5743C18.8136 12.3902 18.7901 11.2002 18.8195 10.0161C18.843 9.20277 19.5375 8.57485 20.3497 8.56289C21.1973 8.54495 21.8918 9.14895 21.9742 9.9802C21.9918 10.1417 21.9977 10.3031 21.9977 10.4706C21.9977 12.5936 21.9977 14.7165 21.9977 16.8395C21.9977 17.4435 21.827 17.9578 21.3326 18.3226C20.8383 18.6814 20.2968 18.7472 19.7494 18.496C19.2021 18.2508 18.8371 17.8083 18.8195 17.1864C18.7959 15.9784 18.8136 14.7763 18.8136 13.5743Z" fill="#5ADB87"/>
<path d="M3.18412 13.6049C3.18412 14.789 3.20766 15.9791 3.17823 17.1632C3.15469 17.9944 2.46019 18.6223 1.6362 18.6283C0.794558 18.6403 0.105941 18.0303 0.0235425 17.199C0.00588561 17.0376 0 16.8761 0 16.7087C0 14.5857 0 12.4627 0 10.3397C0 9.61613 0.264853 9.05399 0.918156 8.7191C1.90105 8.21676 3.14292 8.91046 3.18412 10.0168C3.21943 11.2128 3.18412 12.4089 3.18412 13.6049Z" fill="#5ADB87"/>
</mask>
<g mask="url(#mask0_8206_63703)">
<rect x="-3" y="-3" width="30" height="33" fill="url(#paint0_linear_8206_63703)"/>
</g>
<defs>
<linearGradient id="paint0_linear_8206_63703" x1="12" y1="-3" x2="12" y2="30" gradientUnits="userSpaceOnUse">
<stop stop-color="#26CD51"/>
<stop offset="1" stop-color="#067221"/>
</linearGradient>
</defs>
</svg>
