<svg width="143" height="143" viewBox="0 0 143 143" fill="none" xmlns="http://www.w3.org/2000/svg">
<circle cx="71.5" cy="71.5" r="71.5" fill="black"/>
<path d="M89.6859 90.0138C86.011 92.8064 81.771 93.478 81.771 93.478C84.7701 91.3047 90.5639 85.2 87.2041 78.5781C83.8442 71.9562 71.0112 67.6641 71.0112 67.6641C71.0112 67.6641 58.189 71.9584 54.8205 78.5781C51.4519 85.1979 57.2523 91.3047 60.2536 93.478C60.2536 93.478 56.0114 92.8042 52.3386 90.0116C52.3386 90.0116 43.3392 97.8744 42.3047 106.98C42.3047 106.98 50.5283 100.928 71.0134 100.928C91.4984 100.928 99.7242 106.98 99.7242 106.98C98.6876 97.8766 89.6859 90.0138 89.6859 90.0138ZM72.5173 89.9616L71.0155 92.4457L69.516 89.9616C59.8428 89.2379 58.0847 82.0466 58.0847 82.0466L62.8941 79.254L61.5901 76.9786L71.0047 82.6682L80.4322 76.9786L79.1283 79.254L83.9377 82.0466C83.9377 82.0466 82.1839 89.2379 72.5107 89.9616H72.5173Z" fill="white"/>
<path d="M97.4909 42.6219C97.4909 42.6219 105.967 43.6042 110.009 47.6921C110.009 47.6921 103.75 36 90.5061 36C77.2623 36 71.0034 43.1913 71.0034 43.1913C71.0034 43.1913 64.7444 36 51.5028 36C38.2611 36 32 47.6921 32 47.6921C36.0336 43.6042 44.5179 42.6219 44.5179 42.6219C37.7939 44.593 32.615 52.6189 32.6715 62.2333C32.728 71.8478 36.4486 78.7348 40.1214 79.6194C43.7942 80.5039 45.7589 76.981 51.2441 71.7956C56.7294 66.6103 62.3125 65.7953 62.3125 65.7953C56.7794 63.3113 53.1045 64.7608 49.4317 65.9496C45.7589 67.1384 42.7598 67.5535 40.6387 63.2613C38.5176 58.9691 42.5533 54.2597 42.5533 54.2597C40.2757 54.6226 38.1047 56.4329 38.1047 56.4329C40.1736 51.517 42.8119 50.1718 47.1041 50.0175C51.3963 49.8632 53.3652 50.9998 57.8639 53.536C62.3625 56.0722 66.2961 59.0191 68.6258 57.1045C70.9555 55.1898 67.487 48.7244 67.487 48.7244C70.021 50.3804 71.0034 53.8446 71.0034 53.8446C71.0034 53.8446 71.9878 50.3804 74.5219 48.7244C74.5219 48.7244 71.0446 55.1898 73.3831 57.1045C75.7215 59.0191 79.6442 56.07 84.145 53.536C88.6458 51.002 90.6104 49.8632 94.9048 50.0175C99.1991 50.1718 101.835 51.5322 103.898 56.4394C103.898 56.4394 101.724 54.6291 99.4491 54.2662C99.4491 54.2662 103.485 58.9735 101.364 63.2678C99.2426 67.5621 96.2435 67.1471 92.5707 65.9561C88.8979 64.7652 85.2229 63.3178 79.6877 65.8018C79.6877 65.8018 85.2751 66.6298 90.7582 71.8022C96.2413 76.9745 98.2081 80.4952 101.881 79.6259C105.554 78.7566 109.27 71.8652 109.331 62.2398C109.392 52.6145 104.215 44.593 97.4909 42.6219Z" fill="white"/>
<path d="M90.5126 36.0059C77.271 36.0059 71.0098 43.1972 71.0098 43.1972C71.0098 43.1972 64.7509 36.0059 51.5092 36.0059C41.6514 36.0059 35.6662 42.4821 33.2539 45.7855C38.4089 40.7631 52.1808 31.1812 71.0163 47.6371C89.8541 31.1812 103.626 40.7631 108.781 45.7855C106.356 42.4821 100.37 36.0059 90.5126 36.0059Z" fill="#C4C4C4"/>
<path d="M49.4368 65.9595C45.764 67.1504 42.7649 67.5633 40.6438 63.2711C38.5227 58.979 42.5585 54.2695 42.5585 54.2695C40.7329 54.5586 38.9791 55.7778 38.3532 56.2515C36.5038 59.3354 35.2281 64.9228 39.5746 74.1092C39.5746 74.1092 35.8518 73.0117 32.957 66.5962C33.9024 73.8897 37.0275 78.8773 40.1288 79.6184C43.8016 80.4877 45.7662 76.98 51.2515 71.7946C56.7368 66.6093 62.3198 65.7943 62.3198 65.7943C56.7846 63.3211 53.1096 64.7707 49.4368 65.9595Z" fill="#C4C4C4"/>
<path d="M102.354 74.1092C106.75 64.8163 105.396 59.205 103.521 56.145C102.797 55.6169 101.156 54.539 99.4567 54.2695C99.4567 54.2695 103.492 58.9768 101.371 63.2711C99.2502 67.5655 96.2512 67.1504 92.5784 65.9595C88.9056 64.7685 85.2306 63.3211 79.6953 65.8052C79.6953 65.8052 85.2827 66.6332 90.7659 71.8055C96.249 76.9778 98.2158 80.4985 101.889 79.6292C105.012 78.8794 108.171 73.7919 109.08 66.3724C106.168 72.9878 102.354 74.1092 102.354 74.1092Z" fill="#C4C4C4"/>
<path d="M99.7051 106.874C96.4017 104.344 87.9804 99.1285 74.0107 98.5504C55.4663 97.7746 53.7582 100.8 51.6632 98.1614C49.5681 95.5231 60.2497 93.4781 60.2497 93.4781C60.2497 93.4781 56.0075 92.8043 52.3347 90.0117C52.3347 90.0117 43.3352 97.8745 42.3008 106.98C42.3008 106.98 50.5244 100.928 71.0095 100.928C91.4945 100.928 99.7203 106.98 99.7203 106.98C99.7181 106.952 99.7094 106.911 99.7051 106.874Z" fill="#C4C4C4"/>
</svg>
