<svg width="30" height="30" viewBox="0 0 30 30" fill="none" xmlns="http://www.w3.org/2000/svg">
    <path d="M3.6026 25.0641L14.6026 29.8279C14.8562 29.9377 15.1438 29.9377 15.3974 29.8279L26.3974 25.0641C26.7632 24.9057 27 24.5451 27 24.1465V21.4774C27 20.7698 26.2853 20.2861 25.6284 20.549L15.3716 24.6544C15.1331 24.7499 14.8669 24.7499 14.6284 24.6544L4.3716 20.549C3.71471 20.2861 3 20.7698 3 21.4774V24.1465C3 24.5451 3.23678 24.9057 3.6026 25.0641Z" fill="url(#paint0_linear_12727_24997)"/>
    <path fill-rule="evenodd" clip-rule="evenodd" d="M15 19C19.9706 19 24 14.9706 24 10C24 5.02944 19.9706 1 15 1C10.0294 1 6 5.02944 6 10C6 14.9706 10.0294 19 15 19ZM12.568 14.384C12.9787 14.5613 13.45 14.692 13.982 14.776V16.162H15.76V14.79C16.1333 14.7247 16.4647 14.6127 16.754 14.454C17.0433 14.286 17.286 14.09 17.482 13.866C17.678 13.642 17.8273 13.3947 17.93 13.124C18.0327 12.8533 18.084 12.578 18.084 12.298C18.084 11.6633 17.9113 11.1453 17.566 10.744C17.23 10.3427 16.6933 9.99733 15.956 9.708C15.368 9.484 14.948 9.29267 14.696 9.134C14.444 8.966 14.318 8.77 14.318 8.546C14.318 8.35933 14.388 8.224 14.528 8.14C14.6773 8.04667 14.8873 8 15.158 8C15.3447 8 15.536 8.028 15.732 8.084C15.928 8.13067 16.1193 8.19133 16.306 8.266C16.4927 8.34067 16.6653 8.42467 16.824 8.518L17.272 8.742L18.056 7.23C17.8133 7.07133 17.4913 6.91267 17.09 6.754C16.698 6.59533 16.2547 6.47867 15.76 6.404V5.284H13.982V6.432C13.6833 6.49733 13.408 6.59533 13.156 6.726C12.9133 6.85667 12.6987 7.02 12.512 7.216C12.3253 7.40267 12.1807 7.61267 12.078 7.846C11.9753 8.07933 11.924 8.336 11.924 8.616C11.924 9.30667 12.134 9.86667 12.554 10.296C12.974 10.716 13.5853 11.0753 14.388 11.374C14.808 11.5327 15.13 11.6773 15.354 11.808C15.578 11.9387 15.69 12.1393 15.69 12.41C15.69 12.6247 15.6107 12.8067 15.452 12.956C15.2933 13.1053 15.0367 13.18 14.682 13.18C14.486 13.18 14.2667 13.1427 14.024 13.068C13.7907 12.984 13.562 12.8907 13.338 12.788C13.1233 12.6853 12.9227 12.5827 12.736 12.48C12.5587 12.368 12.428 12.284 12.344 12.228L11.588 13.866C11.84 14.0247 12.1667 14.1973 12.568 14.384Z" fill="url(#paint1_linear_12727_24997)"/>
    <path d="M3.6026 18.0641L14.6026 22.8279C14.8562 22.9377 15.1438 22.9377 15.3974 22.8279L26.3974 18.0641C26.7632 17.9057 27 17.5451 27 17.1465V14.4774C27 13.7698 26.2853 13.2861 25.6284 13.549L15.3716 17.6544C15.1331 17.7499 14.8669 17.7499 14.6284 17.6544L4.3716 13.549C3.71471 13.2861 3 13.7698 3 14.4774V17.1465C3 17.5451 3.23678 17.9057 3.6026 18.0641Z" fill="url(#paint2_linear_12727_24997)"/>
    <defs>
        <linearGradient id="paint0_linear_12727_24997" x1="22.782" y1="19.7065" x2="20.1822" y2="32.5483" gradientUnits="userSpaceOnUse">
            <stop stop-color="#FFC702"/>
            <stop offset="1" stop-color="#DDAC00"/>
        </linearGradient>
        <linearGradient id="paint1_linear_12727_24997" x1="20.8365" y1="0.47176" x2="11.3778" y2="19.9385" gradientUnits="userSpaceOnUse">
            <stop stop-color="#FFC702"/>
            <stop offset="1" stop-color="#DDAC00"/>
        </linearGradient>
        <linearGradient id="paint2_linear_12727_24997" x1="22.782" y1="12.7065" x2="20.1822" y2="25.5483" gradientUnits="userSpaceOnUse">
            <stop stop-color="#FFC702"/>
            <stop offset="1" stop-color="#DDAC00"/>
        </linearGradient>
    </defs>
</svg>
