<svg width="374" height="193" viewBox="0 0 374 193" fill="none" xmlns="http://www.w3.org/2000/svg">
<g style="mix-blend-mode:lighten">
<path fill-rule="evenodd" clip-rule="evenodd" d="M106.512 1.52394C101.998 3.52156 101.907 4.16008 101.907 33.7393C101.907 63.685 102 64.3058 106.808 66.6182C110.163 68.2316 114.283 67.1437 116.44 64.0745C117.813 62.1205 117.936 60.6941 118.117 44.5913L118.313 27.2158L154.243 59.4429L190.174 91.6708L154.611 127.722C135.051 147.55 118.8 163.773 118.498 163.773C118.195 163.773 117.948 151.103 117.948 135.616V107.459L115.469 104.946C112.661 102.1 109.824 101.686 106.188 103.591C103.238 105.138 101.907 108.675 101.907 114.973V120.17L82.0378 120.178C71.1094 120.183 60.9174 120.396 59.3876 120.652C57.7252 120.931 55.7448 121.991 54.4659 123.288C50.3411 127.468 52.3208 134.798 58.0074 136.399C59.5655 136.838 69.4323 137.161 81.3086 137.164L101.907 137.168V161.26C101.907 181.141 102.098 185.76 103.001 187.687C105.297 192.592 94.4566 192.204 236.07 192.445C328.099 192.601 365.553 192.432 367.533 191.85C369.37 191.311 370.781 190.242 371.723 188.676C373.11 186.369 373.144 184.223 373.146 97.0022C373.149 0.250583 373.324 4.60572 369.321 1.91785C366.925 0.308966 110.125 -0.0760697 106.512 1.52394ZM356.929 90.4241C357.031 130.766 356.868 163.773 356.567 163.773C355.701 163.773 286.375 93.2856 286.429 92.4594C286.455 92.0514 297.96 81.9067 311.996 69.9158C326.031 57.925 338.479 47.022 339.655 45.6865C341.257 43.87 341.796 42.5249 341.796 40.3403C341.796 34.1938 334.834 30.2754 329.765 33.5678C328.562 34.349 307.421 52.3334 282.787 73.5327C258.152 94.7312 237.741 111.985 237.427 111.874C236.724 111.624 133.64 19.1684 132.465 17.7332C131.741 16.8493 147.869 16.7274 244.181 16.8878L356.743 17.0747L356.929 90.4241ZM19.0215 33.2877C12.9149 36.0207 12.6276 44.6031 18.5359 47.8076C20.1159 48.6648 26.3399 48.8533 53.0149 48.8533C83.316 48.8533 85.7068 48.7602 87.5997 47.5023C90.1408 45.8144 91.82 41.8923 91.2461 38.9835C91.007 37.7729 89.8418 35.8403 88.6562 34.6882L86.5009 32.5945L53.9183 32.423C27.2841 32.2834 20.9143 32.4415 19.0215 33.2877ZM6.11123 78.063C1.08013 79.6075 -1.29542 84.6626 0.852637 89.2505C3.19173 94.2471 -1.87582 93.9145 75.2932 94.1259C153.984 94.341 148.965 94.6846 151.753 88.9002C152.961 86.3934 153.001 85.7911 152.117 83.4365C151.57 81.9813 150.197 80.0894 149.065 79.2328C147.009 77.6772 146.953 77.6757 77.6097 77.5471C39.4412 77.4762 7.26692 77.7082 6.11123 78.063ZM217.841 116.559C234.258 131.243 234.277 131.256 237.464 131.256C240.786 131.256 240.653 131.353 258.614 115.882L273.502 103.058L309.107 139.141C328.69 158.986 344.712 175.474 344.712 175.78C344.712 176.086 296.479 176.337 237.528 176.337C178.577 176.337 130.344 176.089 130.344 175.786C130.344 175.482 146.493 158.864 166.23 138.855C201.59 103.01 202.137 102.496 203.599 103.812C204.414 104.547 210.823 110.283 217.841 116.559ZM5.89832 155.419C3.5512 155.883 0.65431 159.166 0.139534 161.946C-0.412429 164.927 0.897844 167.88 3.70724 169.989C5.70582 171.489 6.64204 171.539 36.1884 171.748C69.1392 171.981 70.957 171.805 73.6555 168.117C75.4922 165.608 75.493 161.201 73.657 158.69C71.0649 155.145 69.4615 154.984 37.3777 155.048C20.9355 155.079 6.76965 155.247 5.89832 155.419Z" fill="url(#paint0_linear_10725_55833)"/>
</g>
<defs>
<linearGradient id="paint0_linear_10725_55833" x1="186.582" y1="0.5" x2="186.582" y2="192.5" gradientUnits="userSpaceOnUse">
<stop stop-color="#1B1E34"/>
<stop offset="1" stop-color="#1B1E2F" stop-opacity="0"/>
</linearGradient>
</defs>
</svg>
