<svg width="316" height="316" viewBox="0 0 316 316" fill="none" xmlns="http://www.w3.org/2000/svg">
<g opacity="0.1">
<mask id="mask0_10725_55885" style="mask-type:alpha" maskUnits="userSpaceOnUse" x="0" y="0" width="316" height="316">
<path fill-rule="evenodd" clip-rule="evenodd" d="M45.4762 2.07579C27.0372 7.94131 11.7064 26.8673 3.5436 53.8421C0.482254 63.9591 0.10212 67.2897 0.00581909 84.7863C-0.112023 106.413 1.52255 116.845 8.33329 137.914C15.9094 161.349 31.2693 189.912 48.44 212.492C58.3767 225.56 79.9012 247.715 94.1613 259.555C104.574 268.201 106.731 269.467 111.048 269.467C117.832 269.467 123.404 264.036 123.404 257.421C123.404 252.158 122.49 251.128 103.229 234.682C65.2343 202.238 35.7511 154.982 27.117 112.685C23.9315 97.079 23.7047 75.1867 26.6063 63.3633C30.2937 48.3397 39.4055 33.173 47.8913 27.9375C52.9205 24.8346 63.5136 24.4247 68.6644 27.1342C76.4204 31.2149 91.0024 48.7368 96.769 60.9043C104.303 76.802 101.84 83.4291 80.1242 105.707C61.2163 125.104 61.1897 125.206 70.8476 142.159C92.5102 180.185 135.545 223.147 173.637 244.772C190.619 254.413 190.722 254.387 210.152 235.511C226.961 219.181 233.23 215.15 241.879 215.104C250.87 215.056 265.777 223.455 280.112 236.646C288.291 244.171 290.653 248.657 290.658 256.669C290.665 267.748 284.496 275.104 268.478 283.108C245.32 294.683 211.542 293.642 176.702 280.28C163.598 275.254 159.784 275.223 155.191 280.103C153.681 281.707 152.128 284.982 151.738 287.381C150.713 293.692 155.236 298.513 166.085 302.671C211.167 319.946 250.778 320.436 281.913 304.103C311.027 288.83 322.119 264.911 312.223 238.748C305.312 220.481 271.121 194.58 249.482 191.22C231.238 188.387 218.304 193.708 199.809 211.657L186.884 224.2L174.467 216.067C145.269 196.938 117.959 169.527 98.7381 140.055L91.4725 128.916L104.033 116.021C121.877 97.7039 126.98 85.4062 124.452 66.8217C121.537 45.4126 95.474 10.8709 76.8816 3.7784C67.3415 0.13917 53.8607 -0.591964 45.4762 2.07579ZM259.639 39.2485C237.994 60.8157 219.869 78.4616 219.361 78.4616C218.853 78.4616 218.437 66.8988 218.437 52.7669V27.0722L214.883 23.6734C209.82 18.8312 203.066 18.9804 197.99 24.0478L194.21 27.8211L194.603 61.6797C194.975 93.7535 195.143 95.8128 197.786 100.745C202.074 108.747 206.2 113.018 213.58 117.1L220.338 120.837L254.255 121.229L288.172 121.621L291.951 117.848C297.028 112.781 297.177 106.039 292.327 100.984L288.922 97.4357H263.183C249.027 97.4357 237.444 97.0208 237.444 96.5136C237.444 96.0063 255.12 77.9127 276.725 56.305C318.378 14.6455 318.141 14.9554 314.491 6.95719C313.658 5.13315 311.407 2.82969 309.486 1.83798C301.309 -2.38312 301.756 -2.71959 259.639 39.2485Z" fill="#4B516D"/>
<path d="M45.6278 2.55227L45.6278 2.55226C49.7441 1.24254 55.1455 0.759074 60.7185 1.06124C66.2881 1.36323 71.9908 2.44784 76.7034 4.24556C85.8645 7.74029 96.958 18.0547 106.147 30.2325C115.331 42.4046 122.516 56.3099 123.956 66.8891C125.211 76.1154 124.569 83.7429 121.42 91.33C118.265 98.9314 112.58 106.532 103.675 115.673L91.1143 128.567L90.835 128.854L91.0537 129.189L98.3193 140.328C117.578 169.858 144.937 197.318 174.193 216.485L186.61 224.619L186.945 224.838L187.232 224.559L200.158 212.016C209.386 203.06 217.189 197.292 224.93 194.108C232.656 190.929 240.355 190.309 249.405 191.714C260.105 193.376 273.984 200.634 286.074 209.793C298.171 218.957 308.351 229.928 311.755 238.925C316.661 251.894 316.356 264.274 311.243 275.299C306.126 286.333 296.169 296.06 281.681 303.66C250.715 319.904 211.264 319.448 166.264 302.204C160.866 300.135 157.106 297.924 154.823 295.491C152.564 293.083 151.745 290.454 152.231 287.462C152.417 286.321 152.884 284.948 153.496 283.658C154.11 282.365 154.849 281.196 155.555 280.446C156.681 279.249 157.734 278.381 158.871 277.812C160 277.247 161.238 276.964 162.751 276.977C165.813 277.002 169.961 278.23 176.523 280.747C211.435 294.136 245.371 295.216 268.702 283.556C276.733 279.542 282.352 275.665 285.961 271.363C289.586 267.042 291.162 262.316 291.158 256.668C291.155 252.607 290.554 249.397 288.892 246.242C287.238 243.101 284.552 240.052 280.45 236.278C273.26 229.662 265.919 224.24 259.237 220.475C252.571 216.719 246.504 214.579 241.876 214.604C232.997 214.651 226.59 218.845 209.803 235.153C204.94 239.877 201.306 243.402 198.317 245.893C195.325 248.387 193.03 249.799 190.853 250.351C188.7 250.897 186.599 250.616 183.957 249.581C181.297 248.539 178.142 246.754 173.884 244.337C135.87 222.756 92.9001 179.86 71.2821 141.911C68.8606 137.661 67.0731 134.512 66.0291 131.856C64.9922 129.219 64.7112 127.122 65.2583 124.973C65.8113 122.8 67.2254 120.51 69.7234 117.522C72.2188 114.538 75.7498 110.911 80.4822 106.056C91.3264 94.9312 97.4526 87.6317 99.8841 81.0872C102.343 74.4683 101.008 68.6813 97.2208 60.6902L96.769 60.9043L97.2208 60.6901C94.3133 54.5554 89.1985 47.0971 83.847 40.6669C78.5088 34.2525 72.8704 28.7821 68.8972 26.6917L68.6644 27.1342L68.8972 26.6917C66.2115 25.2789 62.1749 24.7033 58.2129 24.8566C54.25 25.0098 50.2467 25.8967 47.6288 27.5119C43.2881 30.1901 38.8386 35.368 35.0208 41.7224C31.1966 48.0873 27.9769 55.6813 26.1208 63.2441C23.1969 75.158 23.4312 97.128 26.6271 112.785C35.2869 155.207 64.8388 202.558 102.904 235.062C112.55 243.298 117.558 247.639 120.165 250.577C121.461 252.037 122.132 253.118 122.489 254.127C122.845 255.136 122.904 256.115 122.904 257.421C122.904 263.748 117.568 268.967 111.048 268.967C108.972 268.967 107.442 268.671 105.144 267.322C102.805 265.95 99.6953 263.5 94.4807 259.171C80.2461 247.352 58.749 225.224 48.838 212.189C31.6964 189.647 16.3654 161.134 8.80905 137.76C2.01427 116.74 0.388266 106.361 0.505812 84.7891C0.553984 76.0367 0.673415 70.8568 1.15958 66.6037C1.64428 62.3634 2.49469 59.0349 4.02217 53.987C12.1604 27.0931 27.4091 8.34768 45.6278 2.55227ZM259.992 39.6027L259.639 39.2485L259.992 39.6027L261.015 38.5832C281.407 18.2627 291.552 8.15398 297.59 3.6222C300.658 1.31958 302.578 0.528524 304.179 0.500762C305.754 0.473456 307.11 1.1735 309.108 2.20577L309.256 2.28227C310.156 2.74677 311.157 3.53307 312.039 4.435C312.922 5.33845 313.652 6.32329 314.036 7.16479L314.071 7.24238C314.979 9.23084 315.593 10.5748 315.489 12.1507C315.384 13.7433 314.532 15.6568 312.2 18.7042C307.587 24.7311 297.448 34.872 277.072 55.2504L276.371 55.9514C265.568 66.7562 255.746 76.683 248.625 83.9725C245.065 87.6171 242.178 90.6037 240.181 92.7117C239.182 93.7652 238.404 94.6019 237.874 95.1925C237.609 95.487 237.402 95.7251 237.26 95.9003C237.189 95.9869 237.129 96.0658 237.083 96.1323C237.061 96.1648 237.035 96.2041 237.014 96.2459L237.012 96.2483C237 96.2707 236.944 96.377 236.944 96.5136C236.944 96.7832 237.132 96.9293 237.191 96.9703C237.268 97.0247 237.352 97.0582 237.412 97.0794C237.54 97.1242 237.704 97.1602 237.884 97.1914C238.25 97.2552 238.776 97.3145 239.433 97.3699C240.752 97.4811 242.652 97.5809 244.987 97.6645C249.66 97.8319 256.101 97.9357 263.183 97.9357H288.709L291.966 101.33C294.31 103.773 295.424 106.597 295.362 109.4C295.299 112.204 294.058 115.038 291.598 117.494L287.967 121.119L254.261 120.729L220.47 120.339L213.822 116.663C206.532 112.631 202.473 108.433 198.227 100.509L197.786 100.745L198.227 100.509C197.573 99.2887 197.086 98.2717 196.707 96.9343C196.326 95.5907 196.049 93.9047 195.841 91.3498C195.424 86.2312 195.289 77.7202 195.103 61.6739L194.713 28.026L198.343 24.4016C200.803 21.9458 203.642 20.7066 206.452 20.6444C209.261 20.5822 212.09 21.6946 214.538 24.0347L217.937 27.2859V52.7669C217.937 59.8369 218.041 66.2669 218.209 70.9317C218.293 73.2629 218.393 75.1594 218.504 76.4763C218.56 77.1325 218.619 77.6571 218.683 78.0231C218.714 78.2025 218.75 78.3662 218.795 78.494C218.816 78.5547 218.85 78.6381 218.905 78.7156C218.946 78.7745 219.092 78.9616 219.361 78.9616C219.503 78.9616 219.612 78.9007 219.628 78.8925C219.67 78.8708 219.709 78.8455 219.742 78.8233C219.808 78.7778 219.887 78.7169 219.974 78.6466C220.15 78.5044 220.388 78.2979 220.683 78.034C221.275 77.5047 222.113 76.7275 223.168 75.731C225.28 73.7371 228.272 70.8553 231.922 67.301C239.225 60.192 249.168 50.3873 259.992 39.6027Z" stroke="url(#paint0_linear_10725_55885)" stroke-opacity="0.5"/>
</mask>
<g mask="url(#mask0_10725_55885)">
<rect x="-55.8906" y="-25.5273" width="397.687" height="367.592" fill="url(#paint1_linear_10725_55885)"/>
<rect x="-55.3906" y="-25.0273" width="396.687" height="366.592" stroke="url(#paint2_linear_10725_55885)" stroke-opacity="0.5"/>
</g>
</g>
<defs>
<linearGradient id="paint0_linear_10725_55885" x1="3.86479" y1="335.456" x2="3.86479" y2="-40.703" gradientUnits="userSpaceOnUse">
<stop stop-color="#6E85CF"/>
<stop offset="0.222573" stop-color="#6E85CF" stop-opacity="0"/>
<stop offset="0.745643" stop-color="#6E85CF" stop-opacity="0"/>
<stop offset="1" stop-color="#6E85CF"/>
</linearGradient>
<linearGradient id="paint1_linear_10725_55885" x1="142.953" y1="-25.5273" x2="142.953" y2="342.064" gradientUnits="userSpaceOnUse">
<stop offset="0.494792" stop-color="#6E85CF"/>
<stop offset="1" stop-color="#6E85CF" stop-opacity="0"/>
</linearGradient>
<linearGradient id="paint2_linear_10725_55885" x1="-51.0268" y1="364.698" x2="-51.0268" y2="-72.8758" gradientUnits="userSpaceOnUse">
<stop stop-color="#6E85CF"/>
<stop offset="0.222573" stop-color="#6E85CF" stop-opacity="0"/>
<stop offset="0.745643" stop-color="#6E85CF" stop-opacity="0"/>
<stop offset="1" stop-color="#6E85CF"/>
</linearGradient>
</defs>
</svg>
