<svg width="332" height="227" viewBox="0 0 332 227" fill="none" xmlns="http://www.w3.org/2000/svg">
<mask id="mask0_13628_58005" style="mask-type:alpha" maskUnits="userSpaceOnUse" x="0" y="0" width="332" height="227">
<path d="M297.223 30.5237L303.426 36.3354L297.223 30.5237C293.919 34.0504 292.032 38.7422 292.032 43.6261V61.4072C282.626 49.0408 270.997 38.5112 257.724 30.3679C245.424 22.8215 231.915 17.45 217.792 14.489L210.428 12.9453C199.021 10.5539 187.398 9.34874 175.743 9.349L166.044 9.34922C148.033 9.34962 130.108 11.848 112.783 16.773L104.157 19.225C82.2543 25.4514 61.9961 36.4366 44.8291 51.3964C42.648 53.2971 40.6059 55.343 38.7159 57.5178V41.6349C38.7159 38.1344 37.4347 34.7549 35.1142 32.134L32.3365 28.9968L25.9725 34.6314L32.3365 28.9967C27.4328 23.4583 18.7193 23.6829 14.1074 29.4667C12.3747 31.6397 11.061 34.9258 10.3119 37.0654C9.56323 39.2043 8.53982 42.5941 8.53997 45.3754C8.54086 60.9756 8.54037 104.329 8.5397 140.21C8.53929 161.591 20.518 181.156 39.5507 190.889C51.712 197.107 64.5546 201.892 77.8201 205.146L98.3207 210.176C120.449 215.605 143.15 218.349 165.935 218.349C187.028 218.349 208.056 215.997 228.629 211.336L255.785 205.185C270.237 201.911 284.146 196.586 297.089 189.373C313.204 180.391 323.193 163.389 323.193 144.94V43.3593C323.193 38.7688 321.531 34.3334 318.515 30.8727C312.88 24.4061 302.962 24.3983 297.223 30.5237Z" stroke="black" stroke-width="17"/>
<rect x="52.5703" y="95.6641" width="226.582" height="68.7483" rx="34.3741" stroke="black" stroke-width="17"/>
<circle cx="108.771" cy="130.038" r="14.943" fill="black"/>
<circle cx="222.966" cy="130.038" r="14.943" fill="black"/>
</mask>
<g mask="url(#mask0_13628_58005)">
<rect x="-58.4375" y="-51.8164" width="475.82" height="331.329" fill="url(#paint0_linear_13628_58005)"/>
</g>
<defs>
<linearGradient id="paint0_linear_13628_58005" x1="179.473" y1="-51.8164" x2="179.473" y2="279.513" gradientUnits="userSpaceOnUse">
<stop stop-color="#1B1E34"/>
<stop offset="1" stop-color="#1B1E2F" stop-opacity="0"/>
</linearGradient>
</defs>
</svg>
