<svg width="17" height="14" viewBox="0 0 17 14" fill="none" xmlns="http://www.w3.org/2000/svg">
<path id="Vector" d="M7.37642 0.942477C7.51671 0.776007 7.39838 0.521514 7.18067 0.521514L4.08419 0.521513C3.93756 0.521513 3.79831 0.585882 3.70331 0.697582L0.700738 4.22801C0.424573 4.55273 0.655346 5.05194 1.08162 5.05194L3.67808 5.05194C3.82544 5.05194 3.96529 4.98694 4.0603 4.8743L7.37642 0.942477ZM5.53216 4.22995C5.25803 4.55508 5.48915 5.05226 5.91442 5.05226L11.0877 5.05226C11.513 5.05226 11.7441 4.5551 11.47 4.22997L10.1721 2.69043L8.8837 1.16246C8.68395 0.92556 8.31902 0.925536 8.11924 1.16241L5.97692 3.70246L5.53216 4.22995ZM1.19626 5.76997C0.759252 5.76997 0.532536 6.29114 0.830467 6.61085L5.28743 11.3936C5.67233 11.8066 6.33973 11.3648 6.10992 10.8491L3.97854 6.06644C3.89818 5.88612 3.71925 5.76997 3.52184 5.76997L1.19626 5.76997ZM12.1808 6.22668C12.2763 6.01159 12.1188 5.76938 11.8835 5.76938L11.7493 5.76938L9.08111 5.76997L5.38849 5.76997C5.02643 5.76997 4.78441 6.14282 4.9318 6.47352L8.04612 13.4609C8.22232 13.8562 8.78351 13.8561 8.95957 13.4607L12.1808 6.22668ZM10.8991 10.8399C10.6695 11.3556 11.3368 11.7972 11.7216 11.3842L16.1691 6.61114C16.467 6.29143 16.2402 5.77028 15.8033 5.77028L13.481 5.77028C13.2835 5.77028 13.1046 5.88651 13.0242 6.06691L10.8991 10.8399ZM15.9182 5.05195C16.3445 5.05195 16.5752 4.55266 16.299 4.22796L13.2955 0.697497C13.2005 0.585832 13.0612 0.521487 12.9146 0.521487L10.346 0.521486C9.9207 0.521486 9.68959 1.0187 9.96375 1.34382L12.9409 4.87428C13.0359 4.98693 13.1758 5.05195 13.3231 5.05195L15.9182 5.05195Z" fill="#4B516D"/>
</svg>
