<svg width="17" height="15" viewBox="0 0 17 15" fill="none" xmlns="http://www.w3.org/2000/svg">
<path d="M11.75 3.9924C11.75 4.40661 12.0858 4.7424 12.5 4.7424C12.9142 4.7424 13.25 4.40661 13.25 3.9924H11.75ZM13.25 11.4734C13.25 11.0592 12.9142 10.7234 12.5 10.7234C12.0858 10.7234 11.75 11.0592 11.75 11.4734H13.25ZM10.5 6.73353C10.0858 6.73353 9.75 7.06932 9.75 7.48353C9.75 7.89774 10.0858 8.23353 10.5 8.23353V6.73353ZM15 7.48353L15.5297 8.01453L16.062 7.48353L15.5297 6.95253L15 7.48353ZM14.0297 5.45633C13.7364 5.16381 13.2615 5.16441 12.969 5.45767C12.6765 5.75094 12.6771 6.22581 12.9703 6.51833L14.0297 5.45633ZM12.9703 8.44873C12.6771 8.74125 12.6765 9.21612 12.969 9.50939C13.2615 9.80265 13.7364 9.80325 14.0297 9.51073L12.9703 8.44873ZM2.41319 12.9046L2.63325 12.1876L2.41319 12.9046ZM1.75 10.9926V4.08813H0.25V10.9926H1.75ZM2.7196 2.86999L6.44392 2.01271L6.10744 0.550932L2.38312 1.40821L2.7196 2.86999ZM6.75 2.25634V13.1128H8.25V2.25634H6.75ZM6.42665 13.3518L2.63325 12.1876L2.19314 13.6216L5.98654 14.7858L6.42665 13.3518ZM7 2.24873H11.5V0.748733H7V2.24873ZM11.75 2.49873V3.9924H13.25V2.49873H11.75ZM7 14.2183H11.5V12.7183H7V14.2183ZM13.25 12.4683V11.4734H11.75V12.4683H13.25ZM10.5 8.23353H15V6.73353H10.5V8.23353ZM15.5297 6.95253L14.0297 5.45633L12.9703 6.51833L14.4703 8.01453L15.5297 6.95253ZM14.4703 6.95253L12.9703 8.44873L14.0297 9.51073L15.5297 8.01453L14.4703 6.95253ZM11.5 14.2183C12.4665 14.2183 13.25 13.4348 13.25 12.4683H11.75C11.75 12.6064 11.6381 12.7183 11.5 12.7183V14.2183ZM6.75 13.1128C6.75 13.281 6.58737 13.4012 6.42665 13.3518L5.98654 14.7858C7.11163 15.1311 8.25 14.2897 8.25 13.1128H6.75ZM6.44392 2.01271C6.60054 1.97665 6.75 2.09562 6.75 2.25634H8.25C8.25 1.13134 7.20377 0.298574 6.10744 0.550932L6.44392 2.01271ZM1.75 4.08813C1.75 3.5058 2.15211 3.00061 2.7196 2.86999L2.38312 1.40821C1.13465 1.69559 0.25 2.807 0.25 4.08813H1.75ZM11.5 2.24873C11.6381 2.24873 11.75 2.36066 11.75 2.49873H13.25C13.25 1.53223 12.4665 0.748733 11.5 0.748733V2.24873ZM0.25 10.9926C0.25 12.2006 1.03832 13.2672 2.19314 13.6216L2.63325 12.1876C2.10833 12.0265 1.75 11.5417 1.75 10.9926H0.25Z" fill="white"/>
</svg>
