<svg width="34" height="37" viewBox="0 0 34 37" fill="none" xmlns="http://www.w3.org/2000/svg">
    <g filter="url(#filter0_d_1991_92369)">
        <path d="M0 13.8947H10.1053V24H2.52632L0 21.4737V13.8947Z" fill="#FA00FF"/>
        <path d="M21.4737 13.8947H11.3684V24H18.9474L21.4737 21.4737V13.8947Z" fill="#FA00FF"/>
        <path d="M0 12.6316H10.1053V7.57895H2.52632L0 10.1053V12.6316Z" fill="#FA00FF"/>
        <path d="M21.4737 12.6316H11.3684V7.57895H18.9474L21.4737 10.1053V12.6316Z" fill="#FA00FF"/>
        <path d="M2.52632 0V3.78947L6.31579 6.31579L10.1053 3.78947L2.52632 0Z" fill="#FA00FF"/>
        <path d="M18.9474 0V3.78947L15.1579 6.31579L11.3684 3.78947L18.9474 0Z" fill="#FA00FF"/>
        <path d="M0 13.8947H10.1053V24H2.52632L0 21.4737V13.8947Z" stroke="#FC80FF"/>
        <path d="M21.4737 13.8947H11.3684V24H18.9474L21.4737 21.4737V13.8947Z" stroke="#FC80FF"/>
        <path d="M0 12.6316H10.1053V7.57895H2.52632L0 10.1053V12.6316Z" stroke="#FC80FF"/>
        <path d="M21.4737 12.6316H11.3684V7.57895H18.9474L21.4737 10.1053V12.6316Z" stroke="#FC80FF"/>
        <path d="M2.52632 0V3.78947L6.31579 6.31579L10.1053 3.78947L2.52632 0Z" stroke="#FC80FF"/>
        <path d="M18.9474 0V3.78947L15.1579 6.31579L11.3684 3.78947L18.9474 0Z" stroke="#FC80FF"/>
    </g>
    <defs>
        <filter id="filter0_d_1991_92369" x="-12.5" y="-12.809" width="46.4766" height="49.309" filterUnits="userSpaceOnUse" color-interpolation-filters="sRGB">
            <feFlood flood-opacity="0" result="BackgroundImageFix"/>
            <feColorMatrix in="SourceAlpha" type="matrix" values="0 0 0 0 0 0 0 0 0 0 0 0 0 0 0 0 0 0 127 0" result="hardAlpha"/>
            <feOffset/>
            <feGaussianBlur stdDeviation="6"/>
            <feComposite in2="hardAlpha" operator="out"/>
            <feColorMatrix type="matrix" values="0 0 0 0 0.980392 0 0 0 0 0 0 0 0 0 1 0 0 0 0.25 0"/>
            <feBlend mode="normal" in2="BackgroundImageFix" result="effect1_dropShadow_1991_92369"/>
            <feBlend mode="normal" in="SourceGraphic" in2="effect1_dropShadow_1991_92369" result="shape"/>
        </filter>
    </defs>
</svg>
