<svg width="23" height="28" viewBox="0 0 23 28" fill="none" xmlns="http://www.w3.org/2000/svg">
<path d="M16.8693 27.2282C16.6254 27.2282 16.3748 27.2282 16.1309 27.2282C15.5113 27.0017 14.8784 26.7952 14.2653 26.542C12.8151 25.9424 11.3648 25.9357 9.90131 26.4687C9.20254 26.7219 8.50377 26.9751 7.81159 27.2282C7.52812 27.2282 7.25125 27.2282 6.96779 27.2282C6.9546 27.2149 6.94142 27.1949 6.92823 27.1949C5.946 27.035 5.1879 26.4754 4.5089 25.7891C3.62555 24.8897 2.92677 23.8504 2.30051 22.7578C0.692019 19.9529 -0.184742 16.9481 0.0327999 13.6769C0.111906 12.4843 0.375594 11.3251 0.942523 10.2658C1.74677 8.77338 2.91359 7.6541 4.43639 6.92123C5.50432 6.40823 6.63159 6.21502 7.79181 6.46819C8.55651 6.63475 9.30802 6.89458 10.0595 7.13443C10.844 7.3876 11.6285 7.63411 12.4525 7.47421C13.0326 7.36095 13.6061 7.1744 14.1599 6.96787C14.9839 6.67472 15.8079 6.41489 16.6847 6.36825C18.3987 6.28164 19.8621 6.90125 21.1476 7.99388C21.5365 8.327 21.8793 8.71342 22.2551 9.09318C20.0994 10.4123 19.0315 12.2911 19.2293 14.7762C19.427 17.248 20.7455 18.9802 23 19.9729C22.9868 20.0262 22.9736 20.0595 22.9604 20.0928C22.2749 21.7184 21.3981 23.2241 20.3368 24.6232C19.427 25.8225 18.4382 26.9284 16.8693 27.2282Z" fill="url(#paint0_linear_8206_63700)"/>
<path d="M16.537 0C17.0117 3.09802 14.2759 6.64241 11.1446 6.51583C10.6238 4.0574 12.885 0.393082 16.537 0Z" fill="url(#paint1_linear_8206_63700)"/>
<defs>
<linearGradient id="paint0_linear_8206_63700" x1="11.5" y1="6.35742" x2="11.5" y2="27.2282" gradientUnits="userSpaceOnUse">
<stop stop-color="white"/>
<stop offset="1" stop-color="#7B7B7B"/>
</linearGradient>
<linearGradient id="paint1_linear_8206_63700" x1="13.8306" y1="0" x2="13.8306" y2="6.51912" gradientUnits="userSpaceOnUse">
<stop stop-color="white"/>
<stop offset="1" stop-color="#7B7B7B"/>
</linearGradient>
</defs>
</svg>
