<svg width="17" height="15" viewBox="0 0 17 15" fill="none" xmlns="http://www.w3.org/2000/svg">
<path id="Vector 9922" d="M11.75 3.6799C11.75 4.09411 12.0858 4.4299 12.5 4.4299C12.9142 4.4299 13.25 4.09411 13.25 3.6799H11.75ZM13.25 11.1609C13.25 10.7467 12.9142 10.4109 12.5 10.4109C12.0858 10.4109 11.75 10.7467 11.75 11.1609H13.25ZM10.5 6.42103C10.0858 6.42103 9.75 6.75682 9.75 7.17103C9.75 7.58524 10.0858 7.92103 10.5 7.92103V6.42103ZM15 7.17103L15.5297 7.70203L16.062 7.17103L15.5297 6.64003L15 7.17103ZM14.0297 5.14383C13.7364 4.85131 13.2615 4.85191 12.969 5.14517C12.6765 5.43844 12.6771 5.91331 12.9703 6.20583L14.0297 5.14383ZM12.9703 8.13623C12.6771 8.42875 12.6765 8.90362 12.969 9.19689C13.2615 9.49015 13.7364 9.49075 14.0297 9.19823L12.9703 8.13623ZM2.41319 12.5921L2.63325 11.8751L2.41319 12.5921ZM1.75 10.6801V3.77563H0.25V10.6801H1.75ZM2.7196 2.55749L6.44392 1.70021L6.10744 0.238432L2.38312 1.09571L2.7196 2.55749ZM6.75 1.94384V12.8003H8.25V1.94384H6.75ZM6.42665 13.0393L2.63325 11.8751L2.19314 13.3091L5.98654 14.4733L6.42665 13.0393ZM7 1.93623H11.5V0.436233H7V1.93623ZM11.75 2.18623V3.6799H13.25V2.18623H11.75ZM7 13.9058H11.5V12.4058H7V13.9058ZM13.25 12.1558V11.1609H11.75V12.1558H13.25ZM10.5 7.92103H15V6.42103H10.5V7.92103ZM15.5297 6.64003L14.0297 5.14383L12.9703 6.20583L14.4703 7.70203L15.5297 6.64003ZM14.4703 6.64003L12.9703 8.13623L14.0297 9.19823L15.5297 7.70203L14.4703 6.64003ZM11.5 13.9058C12.4665 13.9058 13.25 13.1223 13.25 12.1558H11.75C11.75 12.2939 11.6381 12.4058 11.5 12.4058V13.9058ZM6.75 12.8003C6.75 12.9685 6.58737 13.0887 6.42665 13.0393L5.98654 14.4733C7.11163 14.8186 8.25 13.9772 8.25 12.8003H6.75ZM6.44392 1.70021C6.60054 1.66415 6.75 1.78312 6.75 1.94384H8.25C8.25 0.818836 7.20377 -0.0139263 6.10744 0.238432L6.44392 1.70021ZM1.75 3.77563C1.75 3.1933 2.15211 2.68811 2.7196 2.55749L2.38312 1.09571C1.13465 1.38309 0.25 2.4945 0.25 3.77563H1.75ZM11.5 1.93623C11.6381 1.93623 11.75 2.04816 11.75 2.18623H13.25C13.25 1.21973 12.4665 0.436233 11.5 0.436233V1.93623ZM0.25 10.6801C0.25 11.8881 1.03832 12.9547 2.19314 13.3091L2.63325 11.8751C2.10833 11.714 1.75 11.2292 1.75 10.6801H0.25Z" fill="#4B516D"/>
</svg>
