<svg width="26" height="29" viewBox="0 0 26 29" fill="none" xmlns="http://www.w3.org/2000/svg">
<path d="M16.4381 21.6257C16.2557 21.6257 16.0808 21.6982 15.9519 21.8271C15.823 21.956 15.7505 22.1309 15.7505 22.3133V25.0634C15.7499 25.6102 15.5324 26.1345 15.1458 26.5212C14.7591 26.9078 14.2348 27.1253 13.688 27.1259H4.06262C3.51578 27.1253 2.9915 26.9078 2.60483 26.5212C2.21815 26.1345 2.00065 25.6102 2.00005 25.0634V4.43762C2.00065 3.89078 2.21815 3.3665 2.60483 2.97983C2.9915 2.59315 3.51578 2.37565 4.06262 2.37505H13.688C14.2348 2.37565 14.7591 2.59315 15.1458 2.97983C15.5324 3.3665 15.7499 3.89078 15.7505 4.43762V7.18772C15.7505 7.37006 15.823 7.54494 15.9519 7.67387C16.0808 7.80281 16.2557 7.87524 16.4381 7.87524C16.6204 7.87524 16.7953 7.80281 16.9242 7.67387C17.0532 7.54494 17.1256 7.37006 17.1256 7.18772V4.43762C17.1246 3.5262 16.7621 2.65239 16.1177 2.00792C15.4732 1.36345 14.5994 1.00096 13.688 1H4.06262C3.15124 1.00107 2.27749 1.3636 1.63304 2.00804C0.988595 2.65249 0.626074 3.52624 0.625 4.43762V25.0634C0.626074 25.9747 0.988595 26.8485 1.63304 27.4929C2.27749 28.1374 3.15124 28.4999 4.06262 28.501H13.688C14.5994 28.5 15.4732 28.1375 16.1177 27.4931C16.7621 26.8486 17.1246 25.9748 17.1256 25.0634V22.3133C17.1256 22.1309 17.0532 21.956 16.9242 21.8271C16.7953 21.6982 16.6204 21.6257 16.4381 21.6257Z" fill="#373737" stroke="#373737"/>
<path d="M7.70081 15.2522L11.826 19.3773C11.9556 19.5026 12.1293 19.5719 12.3096 19.5703C12.4898 19.5687 12.6623 19.4964 12.7897 19.3689C12.9172 19.2415 12.9895 19.069 12.9911 18.8888C12.9927 18.7085 12.9234 18.5348 12.7981 18.4052L9.84664 15.4536L24.6875 15.4536C24.8698 15.4536 25.0447 15.3812 25.1736 15.2522C25.3026 15.1233 25.375 14.9484 25.375 14.7661C25.375 14.5837 25.3026 14.4089 25.1736 14.2799C25.0447 14.151 24.8698 14.0786 24.6875 14.0786L9.84664 14.0786L12.7981 11.127C12.8638 11.0636 12.9162 10.9877 12.9522 10.9039C12.9882 10.82 13.0072 10.7298 13.008 10.6385C13.0088 10.5472 12.9914 10.4566 12.9568 10.3722C12.9222 10.2877 12.8712 10.2109 12.8066 10.1463C12.7421 10.0818 12.6653 10.0307 12.5808 9.99617C12.4963 9.9616 12.4058 9.9442 12.3145 9.94499C12.2232 9.94579 12.133 9.96475 12.0491 10.0008C11.9652 10.0368 11.8894 10.0892 11.826 10.1549L7.70081 14.28C7.63694 14.3438 7.58627 14.4196 7.5517 14.503C7.51714 14.5864 7.49934 14.6758 7.49934 14.7661C7.49934 14.8564 7.51714 14.9458 7.5517 15.0292C7.58627 15.1126 7.63694 15.1884 7.70081 15.2522Z" fill="#373737" stroke="#373737"/>
</svg>
