<svg width="548" height="272" viewBox="0 0 548 272" fill="none" xmlns="http://www.w3.org/2000/svg">
    <path d="M163.005 126.152C165.631 120.831 167.307 115.091 167.956 109.193C168.39 105.264 168.349 101.297 167.834 97.3787C167.316 93.4803 166.356 89.6534 164.975 85.9714C162.244 78.633 156.184 69.5815 153.112 66.2076C150.041 62.8337 148.21 61.3188 144.87 59.3347C145.19 59.4876 152.077 61.3639 156.59 64.2653C160.951 67.0658 166.153 70.8671 166.153 70.8671L161.941 63.3584C161.844 63.0109 161.771 62.7885 161.684 62.5175L161.427 61.7427C161.253 61.2319 161.08 60.7316 160.889 60.2312C160.516 59.2328 160.124 58.2483 159.714 57.2778C158.898 55.3319 158.005 53.4278 157.056 51.555C155.154 47.8147 153.001 44.2067 150.614 40.7558C145.85 33.845 140.15 27.6297 133.675 22.288C127.195 16.9808 119.979 12.641 112.254 9.40401C108.411 7.79986 104.464 6.45902 100.44 5.39079C96.4277 4.33382 92.3548 3.52157 88.244 2.95853C80.0473 1.798 65.9506 0.981454 54.3106 4.21288C42.6705 7.44431 37.6322 10.2553 30.7941 14.748C27.3905 17.0044 24.1093 19.4401 20.9643 22.0448C17.808 24.6207 14.84 27.4192 12.0831 30.4187C13.5181 28.9802 15.04 27.639 16.6002 26.3256C18.1603 25.0121 19.7273 23.7543 21.3639 22.5382C24.6031 20.112 27.9665 17.8562 31.4404 15.78C38.3897 11.6104 44.8247 9.28587 52.674 7.89948C60.5232 6.5131 66.9722 5.81469 76.9653 6.20038C87.49 6.62081 97.3372 8.90713 99.2934 9.48393C103.095 10.6159 106.818 11.9948 110.44 13.6118C117.654 16.8487 124.363 21.1097 130.36 26.263C136.338 31.4134 141.571 37.3691 145.909 43.9594C148.079 47.2446 150.032 50.6674 151.757 54.2062C152.234 55.1906 152.692 56.1821 153.13 57.1805C152.396 56.8087 145.711 53.3966 137.671 52.7711C129.631 52.1457 124.304 52.5557 124.304 52.5557C124.304 52.5557 139.127 62.0554 144.87 67.2743C150.614 72.4932 155.989 81.9929 158.31 88.4211C161.88 98.0298 161.913 108.596 158.404 118.227C157.827 119.811 157.16 121.361 156.406 122.869C156.028 123.616 155.628 124.352 155.211 125.065C155.002 125.412 154.787 125.76 154.572 126.107L154.245 126.601L154.085 126.83L153.964 127L152.768 128.661L153.442 130.516C155.05 134.926 156.385 139.429 157.442 144.002C158.487 148.559 159.205 153.185 159.589 157.845C160.349 167.154 159.705 176.524 157.678 185.642C155.622 194.777 152.272 203.572 147.73 211.761C145.6 215.618 139.863 224.749 137.275 228.317L138.373 214.655C138.373 214.655 128.772 224.749 123.807 229.676C118.842 234.603 115.252 237.932 110.84 241.855C106.427 245.778 101.806 249.499 97.0279 252.921C94.6374 254.659 92.2016 256.295 89.7311 257.852C88.4942 258.637 87.2398 259.388 85.9785 260.114C85.3496 260.461 84.7138 260.83 84.0814 261.156L83.5219 261.455L82.9452 261.163C82.2815 260.816 81.6213 260.468 80.9611 260.121C79.6442 259.426 78.3308 258.672 77.0278 257.915C74.4288 256.397 71.868 254.802 69.3454 253.13C64.298 249.794 59.427 246.199 54.7518 242.359C50.0717 238.525 45.6048 234.439 41.3709 230.117C37.1597 225.777 28.4661 216.038 28.4661 216.038L28.678 229.242C27.6727 228.083 26.6929 226.902 25.7385 225.698C22.9213 222.132 20.3221 218.399 17.9553 214.52C8.41614 198.819 2.88533 181.013 1.85026 162.671C1.58792 158.076 1.58792 153.471 1.85026 148.876C2.11896 144.27 2.62228 139.679 3.35826 135.124C2.36645 139.645 1.62751 144.218 1.1449 148.821C-1.42957 172.189 3.42248 195.775 15.0122 216.229C17.3071 220.325 19.8603 224.271 22.6565 228.043C24.0625 229.929 25.5346 231.768 27.0728 233.561C27.8441 234.457 28.6352 235.339 29.4459 236.205C29.849 236.64 30.2625 237.07 30.6864 237.494C31.1138 237.928 31.5168 238.328 32.0137 238.783L37.5732 243.891C37.5732 243.891 35.9123 239.374 35.1965 236.247C34.7628 234.447 34.6534 232.584 34.8733 230.746C36.2841 232.393 36.086 232.136 37.5662 233.71C41.8418 238.276 46.3657 242.603 51.1173 246.671C53.494 248.703 55.9089 250.684 58.3933 252.577C60.8776 254.471 63.4037 256.316 65.9854 258.085C68.567 259.853 71.1974 261.559 73.8728 263.189C75.2175 264.002 76.5692 264.798 77.9451 265.569C78.6401 265.955 79.335 266.337 80.0299 266.709L81.0723 267.265C81.4198 267.452 81.7673 267.612 82.1842 267.824L83.5011 268.467L84.8354 267.835L85.4226 267.557L85.9646 267.293L87.007 266.754C87.702 266.407 88.3969 266.021 89.064 265.642C90.4214 264.887 91.7569 264.108 93.0703 263.304C95.7041 261.702 98.2823 260.01 100.784 258.252C105.801 254.733 110.638 250.964 115.277 246.959C119.91 242.952 124.349 238.748 128.595 234.349C129.415 233.499 130.226 232.642 131.027 231.778C130.739 233.99 130.33 236.185 129.801 238.352C128.939 241.851 127.091 247.765 127.091 247.765L136.007 239.426L136.406 239.051L136.754 238.703L137.449 238.008C137.904 237.55 138.342 237.091 138.779 236.618C139.648 235.692 140.495 234.753 141.319 233.8C142.966 231.896 144.539 229.937 146.038 227.921C149.043 223.902 151.771 219.684 154.203 215.294C159.114 206.518 162.75 197.087 164.999 187.285C167.211 177.431 167.902 167.296 167.049 157.233C166.225 147.843 164.202 138.597 161.031 129.721C161.222 129.411 161.413 129.102 161.594 128.793C162.098 127.917 162.563 127.038 163.005 126.152Z" fill="#1C2336"/>
    <path d="M169.379 98.0408C168.858 94.1318 168.143 89.1353 166.763 85.4765C164.032 78.138 161.697 73.0789 158.622 69.705C155.547 66.3311 151.308 62.5438 147.969 60.5736C148.288 60.7265 154.289 63.5584 158.803 66.4597C163.16 69.2603 168.243 72.5959 168.243 72.5959C168.243 72.5959 165.06 54.6007 157.944 42.5819C151.322 31.4005 141.381 23.0057 135.012 18.4331C128.643 13.8604 119.073 8.39826 109.126 5.16684C99.1776 1.93541 92.0928 0.962509 83.2811 0.236307C74.4694 -0.489895 62.6173 0.406565 50.9668 3.63799C39.3163 6.86942 34.1078 10.7923 29.4657 14.1801C24.8236 17.5679 23.5067 19.3434 20.3656 21.9425C17.2245 24.5415 14.8061 27.3942 12.0681 30.4137C13.5031 28.9752 15.025 27.6339 16.5852 26.3205C18.1453 25.0071 19.7123 23.7493 21.3489 22.5331C24.5881 20.1069 27.9515 17.8511 31.4254 15.7749C38.3747 11.6054 44.8097 9.28082 52.659 7.89444C60.5082 6.50805 66.9572 5.80965 76.9503 6.19533C87.475 6.61577 97.3222 8.90209 99.2784 9.47888C103.08 10.6109 106.803 11.9897 110.425 13.6068C117.639 16.8437 124.348 21.1047 130.345 26.258C136.323 31.4083 141.556 37.3641 145.894 43.9544C148.066 47.2405 150.022 50.6645 151.749 54.2046C152.226 55.1891 152.684 56.1805 153.122 57.1789C152.388 56.8071 145.703 53.395 137.663 52.7696C129.623 52.1441 124.296 52.5541 124.296 52.5541C124.296 52.5541 139.119 62.0538 144.862 67.2728C150.606 72.4917 155.981 81.9914 158.302 88.4195C161.872 98.0283 161.905 108.594 158.396 118.225C157.819 119.809 157.152 121.359 156.398 122.867C156.019 123.614 155.62 124.351 155.203 125.063C154.994 125.411 154.779 125.758 154.564 126.106L154.237 126.599L154.077 126.828L153.956 126.999L152.76 128.659V128.687C155.527 129.165 158.324 129.443 161.131 129.521C161.28 129.278 162.712 127.596 163.149 126.71C164.041 125.022 164.83 123.281 165.512 121.498C166.84 117.791 167.84 114.608 168.535 110.953C169.23 107.297 169.894 101.95 169.379 98.0408Z" fill="#1C2336"/>
    <path d="M113.148 159.856C107.272 164.321 100.493 165.395 100.493 165.395C105.288 161.92 114.552 152.16 109.18 141.573C103.808 130.985 83.2902 124.123 83.2902 124.123C83.2902 124.123 62.7898 130.989 57.4041 141.573C52.0184 152.157 61.2922 161.92 66.0907 165.395C66.0907 165.395 59.3082 164.318 53.436 159.853C53.436 159.853 39.0475 172.424 37.3936 186.983C37.3936 186.983 50.5416 177.306 83.2937 177.306C116.046 177.306 129.197 186.983 129.197 186.983C127.54 172.428 113.148 159.856 113.148 159.856ZM85.6982 159.773L83.2972 163.744L80.8997 159.773C65.434 158.616 62.623 147.118 62.623 147.118L70.3124 142.653L68.2276 139.015L83.2798 148.112L98.3529 139.015L96.2681 142.653L103.957 147.118C103.957 147.118 101.153 158.616 85.6877 159.773H85.6982Z" fill="#1C2336"/>
    <path d="M125.624 84.0853C125.624 84.0853 139.176 85.6558 145.638 92.1917C145.638 92.1917 135.631 73.498 114.457 73.498C93.2823 73.498 83.2753 84.9957 83.2753 84.9957C83.2753 84.9957 73.2683 73.498 52.0973 73.498C30.9262 73.498 20.9158 92.1917 20.9158 92.1917C27.3647 85.6558 40.9298 84.0853 40.9298 84.0853C30.1792 87.2368 21.8991 100.069 21.9894 115.441C22.0798 130.812 28.0284 141.824 33.9005 143.238C39.7727 144.652 42.9138 139.02 51.6838 130.729C60.4538 122.439 69.3802 121.136 69.3802 121.136C60.5337 117.164 54.6581 119.482 48.7859 121.382C42.9138 123.283 38.1188 123.947 34.7275 117.084C31.3362 110.222 37.7887 102.692 37.7887 102.692C34.1472 103.272 30.6761 106.167 30.6761 106.167C33.9839 98.3071 38.2022 96.1563 45.0646 95.9096C51.927 95.6629 55.0751 97.4801 62.2676 101.535C69.4601 105.59 75.7492 110.302 79.4741 107.24C83.1989 104.179 77.6533 93.8421 77.6533 93.8421C81.7048 96.4898 83.2753 102.028 83.2753 102.028C83.2753 102.028 84.8493 96.4898 88.9008 93.8421C88.9008 93.8421 83.3413 104.179 87.0801 107.24C90.8188 110.302 97.0905 105.586 104.287 101.535C111.483 97.4836 114.624 95.6629 121.49 95.9096C128.355 96.1563 132.57 98.3314 135.868 106.177C135.868 106.177 132.393 103.283 128.755 102.702C128.755 102.702 135.207 110.229 131.816 117.095C128.425 123.96 123.63 123.297 117.758 121.393C111.886 119.489 106.01 117.174 97.16 121.146C97.16 121.146 106.093 122.47 114.86 130.739C123.626 139.009 126.771 144.638 132.643 143.248C138.515 141.858 144.457 130.84 144.554 115.451C144.652 100.062 136.375 87.2368 125.624 84.0853Z" fill="#1C2336"/>
    <path d="M114.466 73.5098C93.295 73.5098 83.2846 85.0074 83.2846 85.0074C83.2846 85.0074 73.2776 73.5098 52.1065 73.5098C36.3455 73.5098 26.7763 83.8642 22.9194 89.1457C31.1613 81.1158 53.1802 65.796 83.295 92.1061C113.413 65.796 135.432 81.1158 143.674 89.1457C139.796 83.8642 130.227 73.5098 114.466 73.5098Z" fill="#1C2336"/>
    <path d="M48.7863 121.395C42.9141 123.299 38.1191 123.96 34.7278 117.097C31.3366 110.235 37.789 102.705 37.789 102.705C34.8703 103.167 32.0662 105.116 31.0655 105.874C28.1086 110.805 26.069 119.738 33.0183 134.425C33.0183 134.425 27.0662 132.67 22.438 122.413C23.9495 134.074 28.946 142.049 33.9043 143.233C39.7765 144.623 42.9176 139.015 51.6876 130.725C60.4576 122.434 69.384 121.131 69.384 121.131C60.5341 117.177 54.6584 119.495 48.7863 121.395Z" fill="#1C2336"/>
    <path d="M133.4 134.425C140.429 119.568 138.265 110.596 135.266 105.704C134.109 104.859 131.486 103.136 128.768 102.705C128.768 102.705 135.221 110.231 131.83 117.097C128.438 123.963 123.643 123.299 117.771 121.395C111.899 119.491 106.023 117.177 97.1733 121.149C97.1733 121.149 106.107 122.472 114.873 130.742C123.64 139.012 126.784 144.641 132.656 143.251C137.65 142.052 142.702 133.918 144.154 122.055C139.498 132.632 133.4 134.425 133.4 134.425Z" fill="#1C2336"/>
    <path d="M129.163 186.809C123.881 182.765 110.417 174.426 88.082 173.502C58.4327 172.261 55.7017 177.098 52.3521 172.88C49.0025 168.661 66.0805 165.392 66.0805 165.392C66.0805 165.392 59.2979 164.315 53.4258 159.85C53.4258 159.85 39.0372 172.421 37.3833 186.98C37.3833 186.98 50.5314 177.303 83.2835 177.303C116.036 177.303 129.187 186.98 129.187 186.98C129.184 186.935 129.17 186.869 129.163 186.809Z" fill="#1C2336"/>
    <path d="M161.023 129.714C161.023 129.714 164.845 145.951 164.64 161.785C164.435 177.619 159.185 193.588 159.185 193.588C158.89 194.631 158.539 195.621 158.219 196.639L157.726 198.161C157.556 198.665 157.378 199.165 157.184 199.666C156.812 200.67 156.464 201.677 156.072 202.671C154.512 206.671 152.7 210.567 150.644 214.336L150.259 215.03L149.852 215.725L149.032 217.115C148.761 217.581 148.459 218.036 148.174 218.505C147.889 218.974 147.601 219.426 147.288 219.874L146.367 221.233L145.401 222.57C145.054 223.012 144.727 223.453 144.359 223.898C143.99 224.343 143.664 224.746 143.184 225.288L132.889 237.195C133.445 234.955 133.861 232.683 134.136 230.392C134.574 226.837 134.737 224.416 134.998 222.602C134.449 223.682 132.093 226.292 123.723 234.985C115.835 243.175 106.002 250.896 102.632 253.255C93.8686 259.409 83.4655 264.874 83.4655 264.874C77.1544 261.753 71.0549 258.221 65.2062 254.301C56.6238 248.484 48.0414 240.92 43.858 236.813C35.1922 228.304 31.5368 223.502 31.5368 223.502C31.4727 225.662 31.5423 227.824 31.7453 229.975C32.0928 233.623 32.607 236.257 32.607 236.257L27.2526 230.451C21.8079 223.87 17.0637 216.74 13.0969 209.176C11.131 205.395 9.38157 201.505 7.8571 197.525L7.28031 196.038C7.08225 195.545 6.93284 195.034 6.74868 194.534L5.70629 191.511C5.09823 189.474 4.45542 187.445 3.96896 185.378C1.86617 177.152 0.725798 168.71 0.570755 160.221C0.546433 158.87 1.48111 145.301 1.71044 144.113C0.935593 148.022 -0.00603697 159.113 0.0148109 161.298C0.07388 164.999 -0.47164 176.399 1.94324 186.987C4.35812 197.574 10.7098 213.592 16.2414 222.675C21.7731 231.757 38.0518 245.121 38.0518 245.121C38.0518 245.121 36.662 240.92 36.1373 237.744C35.6126 234.568 35.4563 232.963 35.4563 232.963C36.8461 234.607 41.7384 242.532 53.0137 251.667C64.2889 260.802 83.4551 271.567 83.4551 271.567C83.4551 271.567 99.6887 261.89 111.002 253.2C122.316 244.509 128.65 235.183 129.456 234.322C129.075 237.104 128.532 239.862 127.83 242.581C126.847 246.031 125.964 248.752 125.964 248.752C125.964 248.752 138.521 239.214 143.685 232.793C148.848 226.372 154.011 218.946 156.437 214.554C161.301 205.777 163.716 199.52 165.919 189.683C168.122 179.846 169.335 167.793 168.521 157.754C167.239 141.712 161.023 129.714 161.023 129.714Z" fill="#1C2336"/>
    <path d="M167.145 97.8027C166.624 93.8937 164.518 88.2022 163.143 84.5434C160.411 77.205 154.696 69.4044 149.97 64.863C145.245 60.3216 135.849 55.4814 135.849 55.4814C135.849 55.4814 143.493 56.4752 149.161 58.2229C152.715 59.3489 156.12 60.8993 159.303 62.8407C159.303 62.8407 154.637 49.4668 149.272 41.8955C143.907 34.3243 137.611 28.5807 131.134 23.2784C124.657 17.9761 116.937 13.1081 109.786 10.2901C102.635 7.47218 94.1151 4.77585 77.7842 4.13652C71.1303 3.87244 63.8856 3.78905 53.7222 6.06147C43.5589 8.33389 38.6805 10.5194 30.6158 15.6341C22.5511 20.7488 13.3433 28.9976 12.0681 30.4118C12.6217 29.8582 13.187 29.3185 13.7637 28.7926C15.1745 27.4618 21.5296 21.8433 31.0293 16.2248C40.0634 10.8878 48.208 7.76753 64.6848 6.60004C81.1616 5.43256 96.1999 7.9899 104.661 11.263C122.413 18.1706 136.975 32.5175 140.467 36.6071C147.68 45.054 152.944 57.0798 152.944 57.0798C150.96 56.0096 148.153 54.1333 139.852 53.0005C134.696 52.3195 129.483 52.1669 124.296 52.5454C124.296 52.5454 137.02 60.478 144.185 66.7428C151.35 73.0076 156.089 83.1605 156.85 84.8596C157.628 86.6282 161.881 96.9549 160.856 107.035C159.783 117.587 153.393 127.883 152.76 128.654L152.781 128.713C152.939 128.741 153.093 128.786 153.24 128.849C153.86 129.108 154.503 129.309 155.161 129.446C155.453 129.491 155.742 129.53 156.033 129.561C157.691 129.738 159.379 129.561 161.03 129.728V129.71C161.221 129.401 161.412 129.092 161.593 128.783C162.097 127.914 162.562 127.045 163.004 126.149C163.878 124.378 164.648 122.558 165.311 120.697C166.631 116.983 166.958 113.369 167.395 109.443C167.787 105.567 167.703 101.658 167.145 97.8027Z" fill="#1C2336"/>
    <path fill-rule="evenodd" clip-rule="evenodd" d="M385.918 133.495L382.753 136.091L382.76 136.213C382.994 136.188 383.226 136.15 383.455 136.098C386.426 135.267 389.4 134.388 392.263 132.835C393.752 132.02 395.205 131.082 396.658 130.143L396.658 130.143L396.658 130.143L396.66 130.142C397.065 129.88 397.469 129.619 397.875 129.361C398.358 129.053 398.842 128.746 399.327 128.439V141.494C398.167 142.176 397.013 142.879 395.88 143.638C394.974 144.245 394.078 144.881 393.181 145.516C393.079 145.588 392.977 145.66 392.875 145.733H379.671V65.7287H399.327V120.304C398.213 121.19 397.166 122.161 396.196 123.207C394.891 124.614 393.609 126.056 392.327 127.498L392.327 127.499L392.317 127.51C391.893 127.987 391.469 128.464 391.044 128.94C390.128 130.038 389.017 130.957 387.767 131.65C387.036 132.025 386.313 132.44 385.591 132.856L385.591 132.856L385.59 132.857C385.307 133.019 385.024 133.182 384.741 133.343C384.638 133.412 384.542 133.49 384.452 133.575L384.473 133.725L385.863 133.325L385.918 133.495ZM407.648 123.045V136.411C408.821 135.63 409.987 134.833 411.152 134.037L411.152 134.037L411.154 134.036C412.599 133.049 414.043 132.063 415.495 131.108C419.143 128.732 422.444 125.792 425.623 122.54C426.181 121.971 426.742 121.405 427.305 120.843V108.239C426.051 109.137 424.798 110.036 423.545 110.934C422.812 111.452 422.223 112.15 421.836 112.96C421.472 113.725 420.87 114.35 420.119 114.743C419.852 114.889 419.583 115.034 419.315 115.179C417.253 116.295 415.189 117.412 413.24 118.891C412.815 119.212 412.392 119.535 411.969 119.857L411.963 119.861L411.962 119.863C410.534 120.951 409.106 122.039 407.648 123.045ZM427.305 96.3448C426.656 96.6485 425.999 96.9303 425.335 97.1887C424.252 97.5849 423.3 98.2727 422.583 99.1762C420.381 101.988 417.928 104.595 415.255 106.963C413.396 108.601 411.563 110.292 409.731 111.983L409.729 111.985L409.727 111.987C409.198 112.475 408.669 112.963 408.139 113.45C407.976 113.601 407.812 113.752 407.648 113.902V65.7287H427.305V96.3448ZM450.077 86.5293V102.586C450.116 102.555 450.154 102.523 450.192 102.491L450.675 102.157C450.683 102.227 450.683 102.297 450.675 102.366C450.62 102.509 450.563 102.652 450.505 102.796L450.505 102.797L450.505 102.797L450.504 102.797C450.464 102.897 450.424 102.998 450.384 103.099C450.635 103.096 450.883 103.048 451.117 102.957C451.239 102.882 451.361 102.808 451.484 102.733L451.486 102.732C452.356 102.203 453.229 101.673 454.056 101.049C457.461 98.4952 460.797 95.8093 464.025 92.8732C465.533 91.505 467.133 90.2999 468.733 89.0943C469.067 88.8428 469.4 88.5914 469.733 88.3384V65.7287H467.441C463.506 70.842 459.379 75.7337 455.238 80.6355C454.741 81.2297 454.293 81.7752 454.133 82.6369C453.923 83.5019 453.383 84.2503 452.628 84.7217C451.803 85.3592 450.952 85.9622 450.077 86.5293ZM466.629 65.7287C465.336 67.0785 464.046 68.4317 462.771 69.805C459.781 73.0133 456.384 75.8168 452.667 78.1442C451.803 78.6895 450.94 79.2375 450.077 79.7872V65.7287H466.629ZM469.733 95.0329C468.731 96.7567 467.521 98.2808 466.266 99.8607C466.009 100.184 465.751 100.51 465.491 100.841C465.484 100.803 465.477 100.766 465.471 100.731L465.449 100.612L465.449 100.611C465.407 100.379 465.373 100.195 465.318 100.017C465.13 99.4264 464.97 99.3951 464.522 99.8746C464.175 100.236 463.85 100.617 463.549 101.018C461.068 104.447 458.111 107.168 455.026 109.704C454.008 110.525 453.037 111.373 452.054 112.231L451.982 112.293C451.706 112.563 451.446 112.85 451.204 113.151L451.238 113.391C451.35 113.375 451.466 113.372 451.583 113.368C451.83 113.36 452.081 113.352 452.298 113.231C453.222 112.719 454.133 112.155 455.043 111.592L455.045 111.591L455.045 111.591C455.295 111.436 455.544 111.282 455.794 111.129C455.856 111.091 455.916 111.044 455.976 110.997C456.095 110.903 456.214 110.809 456.36 110.782C454.736 112.198 453.056 113.504 451.376 114.808L451.376 114.808C450.943 115.145 450.51 115.481 450.077 115.82V127.298C450.464 126.823 450.839 126.338 451.204 125.844C454.01 122.059 457.488 118.821 461.464 116.292C462.621 115.544 463.746 114.69 464.868 113.837L464.868 113.837L464.868 113.837L465.172 113.606C466.868 112.321 468.323 110.673 469.733 108.964V95.0329ZM469.733 114.002C468.083 116.845 466.066 119.332 463.924 121.702C462.59 123.174 461.287 124.693 459.987 126.208L459.987 126.209L459.987 126.209L459.986 126.21C459.485 126.794 458.985 127.377 458.483 127.957C458.312 128.208 458.166 128.476 458.049 128.756L458.198 128.902L465.679 122.22L465.78 122.324C465.704 122.472 465.615 122.612 465.516 122.745C461.096 127.665 456.562 132.436 451.409 136.094C450.967 136.408 450.523 136.716 450.077 137.019V145.733H456.244C456.337 145.652 456.43 145.571 456.523 145.49C456.954 145.116 457.361 144.701 457.767 144.286L457.768 144.286L457.768 144.285C457.932 144.118 458.096 143.951 458.261 143.787L458.209 143.655L455.512 145.327L455.425 145.087C455.471 145.044 455.516 145.001 455.56 144.957C455.65 144.871 455.739 144.784 455.832 144.701L470.252 131.671C470.422 131.517 470.592 131.362 470.762 131.207C471.329 130.689 471.896 130.171 472.489 129.708C473.696 128.746 474.853 127.728 475.959 126.657H469.733V114.002ZM481.009 126.657C480.668 127.116 480.327 127.577 479.986 128.037C479.586 128.577 479.186 129.116 478.785 129.656C478.667 129.847 478.565 130.049 478.48 130.257L478.608 130.358L481.843 126.657H481.009ZM482.855 126.657C480.582 129.832 478.061 132.822 475.314 135.601C472.875 138.114 470.443 140.637 468.018 143.169C467.907 143.284 467.806 143.414 467.705 143.544L467.704 143.544C467.665 143.594 467.626 143.644 467.587 143.693L467.687 143.885L476.353 138.325L476.405 138.419C476.383 138.444 476.36 138.47 476.338 138.496C476.32 138.518 476.302 138.539 476.283 138.561L476.282 138.563L476.281 138.563C476.208 138.65 476.136 138.736 476.058 138.812C475.151 139.683 474.243 140.553 473.335 141.424L473.331 141.428L473.326 141.432L473.325 141.433L473.324 141.434L473.323 141.435L473.319 141.44C471.828 142.868 470.337 144.297 468.851 145.733H488.118V126.657H482.855ZM445.685 131.886V126.657H435.327C433.705 127.626 432.126 128.722 430.564 129.857C430.217 130.101 429.887 130.33 429.546 130.552C429.508 130.591 429.474 130.634 429.445 130.681L430.015 130.9C429.882 131.002 429.743 131.096 429.598 131.181C427.649 132.106 425.682 132.755 423.691 132.748C422.945 132.779 422.239 133.096 421.721 133.634C421.018 134.263 420.35 134.93 419.72 135.632C417.951 137.645 415.95 139.44 413.757 140.98C412.829 141.655 411.906 142.34 410.984 143.025L410.984 143.025L410.984 143.025L410.983 143.025L410.983 143.025L410.981 143.027C410.005 143.751 409.03 144.475 408.048 145.188C407.917 145.279 407.784 145.367 407.648 145.453V145.733H428.882C430.341 144.634 431.772 143.499 433.174 142.328C436.88 139.18 440.607 136.076 444.355 133.016C444.807 132.649 445.251 132.272 445.685 131.886ZM436.354 145.733C436.975 145.26 437.622 144.82 438.292 144.416C439.042 143.953 439.789 143.49 440.533 143.026C441.638 142.329 442.749 141.647 443.86 140.966L443.86 140.966C444.469 140.592 445.078 140.219 445.685 139.843V145.733H436.354ZM503.508 91.2853C503.18 91.6786 502.85 92.0701 502.52 92.4606L506.61 65.7287H535.745L548 145.733H528.118L526.846 133.13H515.516L514.254 145.733H494.369L501.878 96.6575C503.674 94.3494 505.442 92.013 507.02 89.482C509.821 84.9927 512.858 80.7293 516.496 77.1087C516.797 76.7785 517.078 76.4304 517.337 76.0663C517.265 76.0599 517.192 76.0696 517.124 76.0949C517.056 76.1201 516.995 76.1602 516.944 76.2123C512.959 79.9684 509.116 83.9086 505.759 88.5056C505.199 89.2806 504.589 90.0031 503.981 90.7235L503.98 90.7242C503.822 90.9111 503.664 91.0978 503.508 91.2853ZM239.663 64.3389C244.131 64.3389 247.87 64.8404 250.879 65.8434C253.76 66.7575 256.301 68.515 258.172 70.8886C260.026 73.2421 261.336 76.3832 262.102 80.3118C262.869 84.2405 263.251 89.0911 263.249 94.8637H243.926C243.926 90.4625 243.656 87.3596 243.117 85.5551C242.577 83.7506 241.303 82.8449 239.295 82.8379H239.18C237.637 82.8379 236.558 83.417 235.942 84.5752C235.325 85.7335 235.017 87.2391 235.017 89.0923V122.39C234.973 123.924 235.298 125.447 235.962 126.83C236.581 128.026 237.773 128.623 239.548 128.623H239.663C241.206 128.623 242.224 128.064 242.728 126.945C243.231 125.826 243.478 124.308 243.478 122.379V118.557H240.698V102.956H263.127V128.481C263.127 135.395 261.39 145.733 249.555 145.733H235.962C229.413 145.733 224.343 145.156 220.761 141.216C217.178 137.275 215.382 131.657 215.382 124.336V87.1152C215.382 79.7953 217.351 74.1687 221.289 70.2354C225.227 66.302 231.313 64.3366 239.548 64.3389H239.663ZM308.107 65.7287L320.369 145.733H300.476L299.205 133.13H287.874L286.602 145.733H266.717L278.972 65.7287H308.107ZM297.238 113.94L293.541 78.0985L289.84 113.94H297.238ZM374.702 145.733L364.191 117.522C369.818 113.978 372.631 107.967 372.631 99.4884V88.8491C372.622 80.9083 370.421 75.0697 366.029 71.3333C361.637 67.5969 354.97 65.7287 346.029 65.7287H324.754V145.733H344.41V121.803H347.068L353.889 145.733H374.702ZM346.015 84.2312C350.648 84.2312 352.964 86.316 352.964 90.4856V97.7442C352.964 101.914 350.648 103.999 346.015 103.999H344.396V84.2312H346.015ZM517.479 113.94L521.179 78.0985L524.876 113.94H517.479Z" fill="#1C2336"/>
    <path d="M215.39 199.446V174.463C215.39 170.078 216.523 166.678 218.79 164.263C221.057 161.799 224.605 160.567 229.434 160.567H229.508C232.169 160.567 234.386 160.912 236.16 161.602C237.934 162.292 239.363 163.351 240.447 164.781C241.531 166.21 242.295 168.033 242.739 170.25C243.182 172.468 243.404 175.104 243.404 178.159H235.791C235.791 174.365 235.322 171.704 234.386 170.176C233.499 168.649 231.873 167.885 229.508 167.885H229.434C227.118 167.885 225.492 168.55 224.556 169.881C223.619 171.211 223.151 172.985 223.151 175.202V198.707C223.151 200.925 223.619 202.699 224.556 204.029C225.492 205.36 227.118 206.025 229.434 206.025H229.508C232.021 206.025 233.696 205.212 234.534 203.586C235.372 201.96 235.791 199.348 235.791 195.751H243.404C243.404 198.806 243.157 201.442 242.665 203.66C242.221 205.877 241.457 207.7 240.373 209.129C239.289 210.558 237.86 211.618 236.086 212.308C234.312 212.997 232.119 213.342 229.508 213.342H229.434C224.605 213.342 221.057 212.135 218.79 209.721C216.523 207.257 215.39 203.832 215.39 199.446Z" fill="#1C2336"/>
    <path d="M256.584 161.38H268.04L277.797 212.529H269.888L267.893 201.442H256.51L254.44 212.529H246.531L256.584 161.38ZM257.323 193.829H267.08L262.349 166.407L257.323 193.829Z" fill="#1C2336"/>
    <path d="M300.503 176.311C300.503 173.453 300.06 171.334 299.173 169.955C298.286 168.575 296.808 167.885 294.738 167.885H294.664C292.742 167.885 291.289 168.427 290.303 169.511C289.367 170.595 288.899 172.073 288.899 173.946C288.899 175.129 289.071 176.139 289.416 176.976C289.761 177.814 290.229 178.578 290.821 179.268C291.412 179.908 292.102 180.5 292.89 181.042C293.728 181.584 294.639 182.15 295.625 182.742L300.725 185.846C301.957 186.585 303.041 187.398 303.977 188.285C304.914 189.172 305.677 190.182 306.269 191.316C306.909 192.449 307.377 193.73 307.673 195.159C307.969 196.539 308.117 198.165 308.117 200.038C308.117 208.908 303.558 213.342 294.442 213.342H294.368C292.151 213.342 290.18 213.071 288.455 212.529C286.731 211.938 285.277 211.002 284.094 209.721C282.912 208.439 282 206.789 281.359 204.768C280.768 202.748 280.472 200.26 280.472 197.303H288.012C288.012 200.161 288.505 202.329 289.49 203.807C290.476 205.286 292.102 206.025 294.368 206.025H294.442C298.384 206.025 300.356 203.906 300.356 199.668C300.356 197.401 299.887 195.652 298.951 194.42C298.015 193.139 296.758 192.055 295.181 191.168L289.638 187.916C288.406 187.226 287.273 186.487 286.238 185.698C285.203 184.861 284.291 183.9 283.503 182.816C282.764 181.682 282.173 180.376 281.729 178.898C281.335 177.371 281.138 175.572 281.138 173.502C281.138 171.63 281.384 169.905 281.877 168.328C282.419 166.752 283.232 165.396 284.316 164.263C285.449 163.08 286.854 162.169 288.529 161.528C290.254 160.888 292.299 160.567 294.664 160.567H294.738C299.567 160.567 302.967 161.898 304.938 164.559C306.959 167.17 307.969 171.088 307.969 176.311H300.503Z" fill="#1C2336"/>
    <path d="M314.084 212.529V161.38H321.845V212.529H314.084Z" fill="#1C2336"/>
    <path d="M349.713 161.38H357.031V212.529H350.674L336.704 178.529V212.529H329.387V161.38H335.669L349.713 195.529V161.38Z" fill="#1C2336"/>
    <path d="M363.652 199.446V174.463C363.652 170.078 364.786 166.678 367.052 164.263C369.319 161.799 372.916 160.567 377.844 160.567H377.918C382.846 160.567 386.443 161.799 388.709 164.263C390.976 166.678 392.109 170.078 392.109 174.463V199.446C392.109 203.832 390.976 207.257 388.709 209.721C386.443 212.135 382.846 213.342 377.918 213.342H377.844C372.916 213.342 369.295 212.11 366.979 209.647C364.712 207.183 363.603 203.783 363.652 199.446ZM371.413 198.707C371.413 200.875 371.882 202.649 372.818 204.029C373.803 205.36 375.479 206.025 377.844 206.025H377.918C380.283 206.025 381.934 205.36 382.87 204.029C383.856 202.649 384.348 200.875 384.348 198.707V175.202C384.348 173.034 383.856 171.285 382.87 169.955C381.934 168.575 380.283 167.885 377.918 167.885H377.844C375.479 167.885 373.803 168.575 372.818 169.955C371.882 171.285 371.413 173.034 371.413 175.202V198.707Z" fill="#1C2336"/>
</svg>
