<svg width="17" height="17" viewBox="0 0 17 17" fill="none" xmlns="http://www.w3.org/2000/svg">
<g id="fi_5964959">
<g id="Line">
<path id="Vector" d="M8.50531 16.2926C8.24536 16.2931 7.98784 16.2426 7.74739 16.1438C5.87585 15.4094 4.27019 14.126 3.14129 12.4624C2.0124 10.7988 1.41305 8.83261 1.42197 6.82214V3.93922C1.42177 3.45548 1.58662 2.98614 1.88928 2.60878C2.19195 2.23142 2.6143 1.96861 3.08656 1.8638L8.04489 0.758802C8.34852 0.694983 8.6621 0.694983 8.96572 0.758802L13.9241 1.8638C14.3963 1.96861 14.8187 2.23142 15.1213 2.60878C15.424 2.98614 15.5888 3.45548 15.5886 3.93922V6.82214C15.5961 8.83315 14.9962 10.7996 13.8676 12.464C12.739 14.1285 11.1342 15.4135 9.26322 16.1509C9.02134 16.2439 8.76447 16.2919 8.50531 16.2926ZM8.50531 2.12589H8.34947L3.39114 3.23089C3.23135 3.26687 3.08897 3.35712 2.98824 3.48626C2.8875 3.61541 2.83464 3.77548 2.83864 3.93922V6.82214C2.83149 8.54942 3.34641 10.2386 4.31589 11.6681C5.28537 13.0977 6.66418 14.201 8.27156 14.8334C8.42227 14.8899 8.58835 14.8899 8.73906 14.8334C10.3464 14.201 11.7252 13.0977 12.6947 11.6681C13.6642 10.2386 14.1791 8.54942 14.172 6.82214V3.93922C14.176 3.77548 14.1231 3.61541 14.0224 3.48626C13.9216 3.35712 13.7793 3.26687 13.6195 3.23089L8.66114 2.12589H8.50531ZM7.95989 10.463C7.77507 10.4641 7.59713 10.3929 7.46406 10.2646L5.84906 8.67797C5.78267 8.61212 5.72997 8.53378 5.69401 8.44746C5.65805 8.36114 5.63953 8.26856 5.63953 8.17505C5.63953 8.08154 5.65805 7.98896 5.69401 7.90264C5.72997 7.81633 5.78267 7.73798 5.84906 7.67214C5.98177 7.54021 6.1613 7.46616 6.34843 7.46616C6.53556 7.46616 6.71509 7.54021 6.84781 7.67214L7.96697 8.77005L10.8782 5.93672C10.9447 5.87114 11.0235 5.8193 11.11 5.78417C11.1966 5.74903 11.2892 5.73129 11.3826 5.73195C11.476 5.7326 11.5684 5.75165 11.6544 5.788C11.7404 5.82435 11.8185 5.87729 11.8841 5.9438C11.9496 6.01031 12.0015 6.08909 12.0366 6.17563C12.0717 6.26217 12.0895 6.35479 12.0888 6.44819C12.0882 6.54159 12.0691 6.63394 12.0328 6.71998C11.9964 6.80602 11.9435 6.88406 11.877 6.94964L8.46989 10.3001C8.32775 10.419 8.14466 10.4775 7.95989 10.463Z" fill="#4B516D"/>
</g>
</g>
</svg>
