<svg width="224" height="244" viewBox="0 0 224 244" fill="none" xmlns="http://www.w3.org/2000/svg">
<g opacity="0.1">
<path d="M111.945 243.94C107.837 243.949 103.767 243.158 99.9674 241.611C70.3899 230.113 45.0143 210.022 27.1734 183.977C9.33256 157.932 -0.139399 127.15 0.00155049 95.6747V50.5408C-0.00166808 42.9675 2.60362 35.6198 7.38686 29.7119C12.1701 23.8041 18.845 19.6897 26.3084 18.0488L104.669 0.749354C109.468 -0.249785 114.423 -0.249785 119.222 0.749354L197.582 18.0488C205.046 19.6897 211.721 23.8041 216.504 29.7119C221.287 35.6198 223.893 42.9675 223.889 50.5408V95.6747C224.007 127.158 214.527 157.944 196.69 184.002C178.854 210.061 153.492 230.178 123.923 241.722C120.101 243.179 116.041 243.931 111.945 243.94ZM111.945 22.1519H109.483L31.122 39.4514C28.5967 40.0148 26.3466 41.4276 24.7546 43.4495C23.1626 45.4714 22.3271 47.9774 22.3903 50.5408V95.6747C22.2774 122.717 30.415 149.161 45.7366 171.542C61.0581 193.923 82.8485 211.196 108.251 221.096C110.633 221.981 113.258 221.981 115.64 221.096C141.042 211.196 162.833 193.923 178.154 171.542C193.476 149.161 201.613 122.717 201.501 95.6747V50.5408C201.564 47.9774 200.728 45.4714 199.136 43.4495C197.544 41.4276 195.294 40.0148 192.769 39.4514L114.408 22.1519H111.945Z" fill="url(#paint0_linear_10725_56020)"/>
<path d="M90.9228 109.169L79.256 115.653V113.343L90.9228 119.739L86.6245 127.023L75.7472 120.45L76.9753 119.65L77.1507 131.997H68.905L68.9927 119.65L70.2208 120.45L59.3434 127.023L55.1328 119.739L66.7997 113.343V115.653L55.1328 109.169L59.3434 101.885L70.2208 108.547L68.9927 109.257L68.905 96.9102H77.1507L76.9753 109.257L75.7472 108.547L86.6245 101.885L90.9228 109.169Z" fill="url(#paint1_linear_10725_56020)"/>
<path d="M130.671 109.169L119.004 115.653V113.343L130.671 119.739L126.373 127.023L115.496 120.45L116.724 119.65L116.899 131.997H108.653L108.741 119.65L109.969 120.45L99.0918 127.023L94.8812 119.739L106.548 113.343V115.653L94.8812 109.169L99.0918 101.885L109.969 108.547L108.741 109.257L108.653 96.9102H116.899L116.724 109.257L115.496 108.547L126.373 101.885L130.671 109.169Z" fill="url(#paint2_linear_10725_56020)"/>
<path d="M170.42 109.169L158.753 115.653V113.343L170.42 119.739L166.121 127.023L155.244 120.45L156.472 119.65L156.648 131.997H148.402L148.49 119.65L149.718 120.45L138.84 127.023L134.63 119.739L146.297 113.343V115.653L134.63 109.169L138.84 101.885L149.718 108.547L148.49 109.257L148.402 96.9102H156.648L156.472 109.257L155.244 108.547L166.121 101.885L170.42 109.169Z" fill="url(#paint3_linear_10725_56020)"/>
</g>
<defs>
<linearGradient id="paint0_linear_10725_56020" x1="111.945" y1="0" x2="111.945" y2="243.94" gradientUnits="userSpaceOnUse">
<stop offset="0.494792" stop-color="#6E85CF"/>
<stop offset="1" stop-color="#6E85CF" stop-opacity="0"/>
</linearGradient>
<linearGradient id="paint1_linear_10725_56020" x1="112.776" y1="96.9102" x2="112.776" y2="131.997" gradientUnits="userSpaceOnUse">
<stop offset="0.494792" stop-color="#6E85CF"/>
<stop offset="1" stop-color="#6E85CF" stop-opacity="0"/>
</linearGradient>
<linearGradient id="paint2_linear_10725_56020" x1="112.776" y1="96.9102" x2="112.776" y2="131.997" gradientUnits="userSpaceOnUse">
<stop offset="0.494792" stop-color="#6E85CF"/>
<stop offset="1" stop-color="#6E85CF" stop-opacity="0"/>
</linearGradient>
<linearGradient id="paint3_linear_10725_56020" x1="112.776" y1="96.9102" x2="112.776" y2="131.997" gradientUnits="userSpaceOnUse">
<stop offset="0.494792" stop-color="#6E85CF"/>
<stop offset="1" stop-color="#6E85CF" stop-opacity="0"/>
</linearGradient>
</defs>
</svg>
