<svg width="17" height="13" viewBox="0 0 17 13" fill="none" xmlns="http://www.w3.org/2000/svg">
<g id="Group 845213635">
<path id="Vector 9920" d="M13 12.0581H3C1.89543 12.0581 1 11.1626 1 10.0581V3.08594C1 1.98137 1.89543 1.08594 3 1.08594H13C14.1046 1.08594 15 1.98137 15 3.08594V10.0581C15 11.1626 14.1046 12.0581 13 12.0581Z" stroke="#4B516D" stroke-width="1.5"/>
<path id="Vector 9921" d="M16 7.06857V6.07617C16 5.52389 15.5523 5.07617 15 5.07617H9.4962C8.66987 5.07617 8 5.74604 8 6.57237C8 7.3987 8.66987 8.06857 9.4962 8.06857H15C15.5523 8.06857 16 7.62086 16 7.06857Z" fill="#070912" stroke="#4B516D" stroke-width="1.5"/>
</g>
</svg>
