<svg width="72" height="440" viewBox="0 0 72 440" fill="none" xmlns="http://www.w3.org/2000/svg">
    <path d="M22.1753 384.105L22.5347 383.766L22.1994 383.403L12.9834 373.419L12.6558 373.064L12.2898 373.379C4.57488 380.02 0.499999 389.962 0.5 401.886C0.500001 423.539 15.1901 439.346 35.752 439.346C56.3114 439.346 71.004 423.542 71.004 402.174C71.004 392.482 68.0023 382.196 62.3594 374.705L62.2094 374.506H61.96H34.696H34.196V375.006L34.196 389.214V389.714H34.696H54.0748C56.0355 393.476 56.756 397.247 56.756 401.31C56.756 407.623 54.5671 412.941 50.8648 416.678C47.1626 420.415 41.9183 422.602 35.752 422.602C29.4883 422.602 24.2458 420.414 20.5694 416.656C16.8921 412.897 14.748 407.532 14.748 401.118C14.748 394.441 17.0903 388.908 22.1753 384.105ZM69.543 310.813L69.852 310.686V310.351V294.031V293.26L69.1479 293.575L1.9479 323.623L1.65199 323.755V324.079L1.65199 339.439V339.764L1.94844 339.896L69.1484 369.848L69.852 370.162V369.391V353.455V353.121L69.543 352.993L55.452 347.169L55.452 316.638L69.543 310.813ZM69.852 227.539V226.581L69.0659 227.129L47.9641 241.854C44.0677 233.277 36.5996 228.287 26.536 228.287C18.8657 228.287 12.6236 231.151 8.30795 236.327C4.00107 241.493 1.65199 248.914 1.65199 257.971L1.65199 287.059V287.559H2.15199H69.352H69.852V287.059V271.507V271.007H69.352H51.132L51.132 257.465L69.6366 244.654L69.852 244.505V244.243V227.539ZM69.352 216.965H69.852V216.465V200.913V200.413H69.352H2.15199H1.65199V200.913L1.65199 216.465V216.965H2.15199H69.352ZM69.352 185.465H69.852V184.965V135.717V135.217H69.352H56.68H56.18V135.717L56.18 168.913H2.15199H1.65199V169.413L1.65199 184.965V185.465H2.15199H69.352ZM69.352 127.528H69.852V127.028V78.1303V77.78V77.36V77.28V61.424V61.0896L69.543 60.9619L55.452 55.1376V24.6064L69.543 18.7821L69.852 18.6544V18.32V2V1.22872L69.1479 1.54355L1.94788 31.5916L1.65198 31.7239V32.048L1.65198 47.408V47.7326L1.94843 47.8647L67.9443 77.28H56.68H56.18V77.78V110.976H2.15198H1.65198V111.476L1.65198 127.028V127.528H2.15198L69.352 127.528ZM42.644 321.948V341.763L18.7227 331.855L42.644 321.948ZM26.536 245.031C30.0681 245.031 32.8435 246.188 34.7459 248.442C36.6594 250.708 37.748 254.153 37.748 258.835L37.748 271.007H15.324L15.324 258.835C15.324 254.15 16.3898 250.706 18.291 248.441C20.1804 246.189 22.9543 245.031 26.536 245.031ZM42.644 49.7317L18.7226 39.824L42.644 29.9163V49.7317Z" stroke="#323323"/>
</svg>
