<svg width="46" height="46" viewBox="0 0 46 46" fill="none" xmlns="http://www.w3.org/2000/svg">
<g opacity="0.3">
<mask id="mask0_8756_27829" style="mask-type:alpha" maskUnits="userSpaceOnUse" x="7" y="13" width="31" height="20">
<path d="M15.0104 19.5917L13.0938 15.1194L18.2049 14.4805L20.1216 18.9528C18.5036 18.8618 17.5318 18.8691 15.0104 19.5917Z" fill="#757575"/>
<path d="M16.9375 24.0745L19.4931 29.1857L24.6043 28.5468L22.0487 23.4356C19.9804 23.1279 18.8624 23.1483 16.9375 24.0745Z" fill="#757575"/>
<path d="M29.0781 22.1545C30.6451 22.2707 31.4623 22.1189 32.9115 21.5156L34.8282 25.9879C33.4877 26.5899 32.5832 26.7894 30.9948 26.6268L29.0781 22.1545Z" fill="#757575"/>
<path d="M8.625 17.6752L15.014 31.7309C20.5216 28.2959 23.1395 27.8506 27.1531 29.8142C31.0934 31.6548 33.2985 31.9371 36.012 31.0006C36.774 30.7376 37.0905 29.8547 36.7439 29.127L31.4934 18.1009C31.1987 17.482 30.5065 17.1627 29.8359 17.3051C25.638 18.1966 23.9166 17.4733 21.403 15.7585C15.7689 13.0332 13.1269 14.2704 8.625 17.6752Z" stroke="#757575" stroke-width="1.4375"/>
<path d="M24.5886 20.8725C26.524 21.8052 27.5349 22.041 29.0609 22.1503L27.1442 17.678L22.6719 17.0391L24.5886 20.8725Z" fill="#757575"/>
<path d="M15.0053 19.5938C13.4013 20.2171 12.4974 20.7737 11.1719 22.1493L13.0886 26.6216C14.5411 25.3854 15.3392 24.8246 16.922 24.066L15.0053 19.5938Z" fill="#757575"/>
<path d="M26.5156 25.3438C28.4958 26.1374 29.5132 26.4465 30.9879 26.6215L33.5435 31.0938C32.0584 31.214 31.2371 31.3015 29.0712 30.4549L26.5156 25.3438Z" fill="#757575"/>
<path d="M26.514 25.3421L24.5973 20.8698C23.502 19.7856 22.5157 19.3695 20.125 18.9531L22.0417 23.4254C25.3398 24.3379 26.1222 24.7357 26.514 25.3421Z" fill="#757575"/>
</mask>
<g mask="url(#mask0_8756_27829)">
<rect x="5.85156" y="11.5664" width="34.0289" height="22.6859" fill="url(#paint0_linear_8756_27829)"/>
</g>
</g>
<defs>
<linearGradient id="paint0_linear_8756_27829" x1="36.2713" y1="11.5664" x2="12.0386" y2="34.2523" gradientUnits="userSpaceOnUse">
<stop stop-color="#6DCBFF"/>
<stop offset="1" stop-color="#0D1A87"/>
</linearGradient>
</defs>
</svg>
