<svg width="58" height="48" viewBox="0 0 58 48" fill="none" xmlns="http://www.w3.org/2000/svg">
<circle cx="31" cy="23" r="22.5" fill="#0D101B" stroke="url(#paint0_linear_8802_27821)"/>
<g filter="url(#filter0_f_8802_27821)">
<path d="M7.875 28.9963C8.05214 28.5953 8.05214 28.1541 8.14876 27.7371C8.49498 26.3174 9.14717 25.0582 9.97649 23.8711C10.0892 23.5262 10.3469 23.3016 10.5965 23.061C10.9266 22.7402 11.2245 22.3873 11.5949 22.1066C11.8928 21.8499 12.2229 21.6414 12.5369 21.4007C13.1006 21.0639 13.6803 20.7591 14.2761 20.4864C15.5 19.957 16.8043 19.7485 18.1248 19.6763C18.3503 19.6603 18.6079 19.6041 18.8092 19.7966C18.769 20.0212 18.5677 20.0132 18.4066 20.0372C16.5628 20.3099 14.9122 21.0318 13.4709 22.2028C11.3855 23.9032 10.1053 26.0848 9.75105 28.7557C9.34846 31.7394 10.0892 34.4343 12.0216 36.7523C13.5112 38.5409 15.4114 39.7119 17.7061 40.2011C17.9396 40.2493 18.1812 40.2894 18.4147 40.3535C18.5113 40.3776 18.6401 40.3776 18.6401 40.53C15.6127 40.6583 13.0442 39.6076 10.9024 37.4982C9.24379 35.87 8.27759 33.8729 7.95552 31.5629C7.94747 31.4987 7.95552 31.4266 7.875 31.4025C7.875 30.6004 7.875 29.7984 7.875 28.9963Z" fill="#E77E04"/>
<path d="M12.5489 21.4728C12.243 21.7054 11.9451 21.93 11.6391 22.1626C11.5022 22.0263 11.5183 21.8418 11.5183 21.6734C11.5183 18.5774 11.4861 15.4734 11.5344 12.3774C11.5505 10.9979 12.2832 10.0194 13.5474 9.44187C13.8131 9.32156 14.0949 9.34562 14.3686 9.28948C14.6102 9.28146 14.8517 9.27344 15.0933 9.27344C25.2626 9.27344 35.4399 9.27344 45.6092 9.27344C47.0505 9.27344 48.0972 9.89905 48.7172 11.1984C48.9265 11.6235 48.999 12.0887 48.999 12.5619C48.999 18.7057 48.999 24.8495 48.999 30.9933C48.999 32.9343 47.6141 34.2979 45.6334 34.2979C39.6912 34.3059 33.7491 34.2979 27.8069 34.2979C27.7264 34.1936 27.7747 34.0893 27.815 33.9931C28.0404 33.3354 28.2659 32.6777 28.3786 31.9959C28.4028 31.8676 28.435 31.7312 28.5638 31.6591C28.7812 31.5708 29.0147 31.5949 29.2401 31.5949C32.8956 31.5949 36.5511 31.5949 40.1985 31.5949C40.3434 31.5949 40.4964 31.5949 40.6413 31.5949C40.9715 31.5949 41.1325 31.4265 41.1566 31.1056C41.1808 30.7848 41.1647 30.464 41.1647 30.1432C41.1728 28.0578 42.7348 26.4857 44.8121 26.4697C45.1342 26.4697 45.4563 26.4697 45.7783 26.4697C46.1084 26.4697 46.2695 26.3013 46.2936 25.9804C46.3017 25.8361 46.3017 25.6837 46.3017 25.5393C46.3017 23.0288 46.3017 20.5184 46.3017 18.0079C46.3017 17.8716 46.3017 17.7432 46.2936 17.6069C46.2775 17.2861 46.1004 17.1257 45.7864 17.1096C45.4241 17.0936 45.0617 17.1016 44.6994 17.1016C42.7589 17.0775 41.1808 15.4975 41.1566 13.5725C41.1486 13.2116 41.1647 12.8506 41.1486 12.4897C41.1325 12.1689 40.9634 12.0005 40.6494 11.9844C40.4642 11.9684 40.271 11.9764 40.0858 11.9764C33.4995 11.9764 26.9132 11.9764 20.3349 11.9764C19.7311 11.9764 19.1272 11.9523 18.5314 11.9684C18.3864 11.9684 18.2334 11.9523 18.0966 12.0085C17.855 12.0887 17.7906 12.2812 17.7826 12.5138C17.7745 12.8105 17.7584 13.0993 17.7826 13.396C17.9033 15.0964 16.5506 16.7246 14.9484 17.0134C14.7873 17.0374 14.6343 17.0855 14.4733 17.0936C14.1029 17.1176 13.7245 17.1016 13.3541 17.1096C12.8066 17.1176 12.6697 17.246 12.6617 17.7994C12.6456 18.81 12.6617 19.8206 12.6536 20.8312C12.6456 21.0397 12.6778 21.2723 12.5489 21.4728Z" fill="#99D04B"/>
<path d="M28.55 31.7102C28.4131 32.6005 28.1555 33.4587 27.8173 34.2928C26.5532 37.0439 24.5241 38.9689 21.6497 39.9795C20.6754 40.3244 19.677 40.5249 18.6383 40.5249C17.962 40.3003 17.2373 40.2442 16.561 39.9875C12.8411 38.5919 10.5061 35.9852 9.73316 32.0952C9.11318 28.9511 9.87809 26.0877 11.891 23.6013C13.5094 21.6042 15.6512 20.4171 18.1794 19.9439C18.3887 19.9038 18.6061 19.9118 18.8074 19.8396C18.9685 19.6953 19.1617 19.7273 19.3388 19.7514C20.5949 19.8958 21.8027 20.2326 22.938 20.7941C23.5096 21.1229 24.0813 21.4518 24.6127 21.8608C25.0475 22.1897 25.4581 22.5346 25.8366 22.9276C25.9412 23.0399 26.0459 23.1522 26.1345 23.2725C27.2778 24.5638 28.0427 26.0476 28.4695 27.7079C28.5258 27.9164 28.5661 28.125 28.6144 28.3335C28.7432 29.2799 28.8801 30.2264 28.7271 31.1888C28.6949 31.3813 28.6949 31.5738 28.55 31.7102Z" fill="#F2A234"/>
<path d="M14.3731 9.28826C13.423 9.52085 12.6179 9.96199 12.1106 10.8362C11.8369 11.3175 11.6517 11.8228 11.6517 12.3842C11.6517 15.6406 11.6517 18.897 11.6517 22.1614C11.0639 22.6988 10.5003 23.2682 9.98496 23.8698C9.97691 22.4421 9.96886 21.0144 9.96886 19.5868C9.96886 17.2608 9.97691 14.9428 9.96886 12.6168C9.95276 10.4914 11.708 9.15992 13.3345 9.27221C13.6807 9.29628 14.0269 9.28023 14.3731 9.28826Z" fill="#7FBA37"/>
<path d="M22.9728 20.9047C22.0468 20.5116 21.1128 20.1427 20.1064 19.9823C19.6716 19.9101 19.2448 19.8299 18.802 19.8459C18.1498 19.6695 17.5137 19.8459 16.8696 19.9021C15.9517 19.9823 15.0901 20.2951 14.2206 20.5838C14.0917 20.4635 14.0998 20.2951 14.0998 20.1427C14.0917 19.3246 14.0917 18.4985 14.0998 17.6804C14.0998 17.3595 14.1562 17.0628 14.5426 16.9745C14.6795 16.9505 14.8164 16.9184 14.9533 16.8943C15.4444 16.8863 15.9356 16.8943 16.4187 16.8222C18.029 16.5735 19.2126 15.21 19.2529 13.5818C19.2609 13.253 19.2609 12.9161 19.2529 12.5872C19.2529 12.3627 19.269 12.1461 19.3495 11.9937C18.9067 12.0258 18.4477 12.1461 17.9888 11.9215C18.1095 11.8012 18.2706 11.8493 18.4075 11.8493C25.7989 11.8493 33.1823 11.8493 40.5738 11.8493C41.1455 11.8493 41.2743 11.9937 41.2904 12.5552C41.3065 13.1166 41.2501 13.67 41.3548 14.2315C41.6527 15.7634 43.094 16.9745 44.6641 16.9826C45.0505 16.9826 45.437 16.9745 45.8316 16.9826C46.2502 16.9906 46.4274 17.151 46.4274 17.5601C46.4354 20.3753 46.4354 23.1986 46.4274 26.0138C46.4274 26.4469 46.2583 26.5913 45.8074 26.5993C45.0344 26.6073 44.2615 26.5512 43.5127 26.8319C42.2808 27.2891 41.3065 28.6285 41.2984 29.9359C41.2984 30.3369 41.3065 30.738 41.2984 31.139C41.2904 31.5641 41.1294 31.7245 40.7187 31.7245C36.6607 31.7245 32.6107 31.7245 28.5526 31.7165C28.7619 30.5695 28.6492 29.4226 28.5204 28.2756C28.6492 28.1473 28.8183 28.1473 28.9713 28.1794C29.5027 28.2917 30.0261 28.1954 30.5494 28.1232C31.7089 27.8906 32.7636 27.4415 33.6654 26.6555C34.8893 25.5967 35.6542 24.2814 35.8555 22.6772C36.089 20.7844 35.6381 19.076 34.3659 17.6082C33.3273 16.4051 32.0148 15.6993 30.4528 15.4346C28.5848 15.194 26.8939 15.611 25.4285 16.8141C24.2288 17.8007 23.472 19.0519 23.1741 20.5838C23.1419 20.7041 23.1257 20.8485 22.9728 20.9047Z" fill="#75AA29"/>
<path d="M14.5359 16.9727C14.2943 17.1331 14.2138 17.3576 14.2138 17.6464C14.2299 18.6249 14.2219 19.6034 14.2219 20.5819C13.6663 20.8787 13.1107 21.1755 12.5552 21.4722C12.5471 20.1809 12.5391 18.8896 12.5391 17.5983C12.5391 17.125 12.7081 16.9727 13.1671 16.9727C13.626 16.9727 14.0769 16.9727 14.5359 16.9727Z" fill="#6C9B1B"/>
<path d="M17.9886 11.9102C18.4717 11.9102 18.9468 11.9102 19.446 11.9102C19.301 12.4235 19.3655 12.9288 19.3735 13.418C19.4057 15.4312 17.7229 17.0674 15.8147 16.9632C15.5328 16.9471 15.2269 17.0514 14.9531 16.891C16.4024 16.522 17.3042 15.5997 17.6343 14.1479C17.7632 13.6025 17.6585 13.033 17.6827 12.4796C17.6907 12.239 17.6827 11.9904 17.9886 11.9102Z" fill="#6C9A1B"/>
<path d="M19.0358 22.5754C20.6461 22.7037 22.0632 23.3293 23.271 24.38C25.0182 25.912 25.928 27.853 25.9361 30.187C25.9522 33.7401 23.4884 36.8281 20.0181 37.6462C19.6155 37.7424 19.2129 37.8306 18.7942 37.8146C17.8763 37.7905 17.039 37.4617 16.2499 37.0366C13.9874 35.8094 12.6025 33.9085 12.2321 31.374C11.8134 28.5588 12.7232 26.1686 14.8811 24.2757C15.7426 23.5218 16.733 23.0245 17.828 22.6957C18.2145 22.5834 18.6251 22.5192 19.0358 22.5754Z" fill="#FEE082"/>
<path d="M30.4508 15.359C31.6908 15.5113 32.7777 16.0166 33.7198 16.8267C34.9678 17.9015 35.7569 19.257 35.9662 20.8932C36.1433 22.3369 35.934 23.7325 35.1771 25.0158C34.3076 26.4836 33.0595 27.4862 31.4331 28.0155C31.1674 28.1038 30.8856 28.1358 30.6199 28.2C29.8067 28.3364 29.0498 28.216 28.3815 27.7188C27.9548 26.0665 27.1737 24.5987 26.0546 23.3074C26.747 23.1871 26.9322 23.2673 27.2704 23.8288C27.9306 24.9356 28.929 25.5372 30.1851 25.7537C30.3864 25.7858 30.5877 25.7938 30.7809 25.7537C31.0305 25.6976 31.1996 25.5532 31.1996 25.2885C31.1996 25.0238 31.0466 24.8634 30.797 24.8153C30.5635 24.7672 30.322 24.7431 30.0885 24.695C29.4765 24.5667 28.9693 24.2619 28.5345 23.8288C28.4298 23.7245 28.3171 23.5962 28.3734 23.4438C28.4218 23.2914 28.5908 23.3235 28.7197 23.2994C29.0901 23.2352 29.2752 23.0668 29.2752 22.7861C29.2752 22.5214 29.0578 22.3129 28.7197 22.2487C28.5184 22.2166 28.3171 22.2407 28.1158 22.2166C27.8662 22.1925 27.7615 22.0321 27.7615 21.8156C27.7535 21.591 27.8501 21.4226 28.0997 21.3905C28.301 21.3664 28.5023 21.3905 28.7036 21.3664C29.0417 21.3263 29.2913 21.1178 29.2752 20.8531C29.2591 20.5403 29.0498 20.3879 28.768 20.3157C28.6311 20.2836 28.4298 20.3318 28.3896 20.1633C28.3412 19.9788 28.4862 19.8345 28.615 19.7222C29.0981 19.273 29.6617 18.9843 30.322 18.8961C30.5071 18.872 30.7004 18.864 30.8695 18.7918C31.0869 18.7036 31.2399 18.5512 31.2076 18.3025C31.1754 18.0378 31.0225 17.8614 30.7406 17.8293C30.6199 17.8133 30.4991 17.8133 30.3783 17.8293C29.0578 17.9737 28.0353 18.6314 27.3267 19.7382C27.1093 20.0671 26.9161 20.3398 26.4652 20.3398C26.1995 20.3398 25.974 20.4922 25.9418 20.7969C25.9096 21.1017 26.0868 21.2702 26.3605 21.3504C26.594 21.4145 26.7229 21.5429 26.7229 21.8075C26.7229 22.0562 26.6262 22.2326 26.3847 22.2808C25.9579 22.361 25.966 22.754 25.8211 23.0267C25.4185 22.6738 25.0239 22.3209 24.6214 21.976C24.4684 20.7167 24.8226 19.5618 25.4587 18.503C26.3364 17.0272 27.6005 16.0006 29.2672 15.4953C29.6215 15.3429 30.0321 15.2787 30.4508 15.359Z" fill="#99D04B"/>
<path d="M19.0408 22.5787C17.6076 22.7231 16.3354 23.2605 15.2001 24.1347C13.9038 25.1293 13.002 26.4206 12.5592 27.9927C11.8184 30.6315 12.3015 33.0376 14.0729 35.1551C15.2806 36.5908 16.8266 37.4169 18.6623 37.7458C18.7107 37.7538 18.7509 37.7939 18.7992 37.818C18.5416 37.9784 18.2517 37.9062 17.978 37.8901C15.9892 37.7698 14.2339 37.048 12.8249 35.6363C11.6735 34.4894 10.9247 33.0938 10.6751 31.4496C10.3449 29.292 10.7878 27.335 12.1083 25.5865C13.4046 23.862 15.1276 22.8675 17.2694 22.5707C17.8652 22.4985 18.453 22.4343 19.0408 22.5787Z" fill="#FEC864"/>
<path d="M25.7833 22.9937C25.735 22.5525 25.8557 22.2237 26.3469 22.1435C26.5804 22.1034 26.5884 21.951 26.5884 21.7585C26.5884 21.574 26.5401 21.4858 26.3388 21.4377C25.9121 21.3334 25.743 21.0928 25.7833 20.7399C25.8235 20.4191 26.0973 20.1784 26.5079 20.1945C26.8058 20.2025 26.9427 20.0822 27.0957 19.8335C27.8848 18.5262 29.0281 17.7642 30.5821 17.7001C31.0169 17.684 31.2665 17.9006 31.3148 18.2775C31.355 18.5663 31.1215 18.855 30.727 18.9112C30.0265 19.0074 29.3663 19.1598 28.8107 19.625C28.6336 19.7694 28.4806 19.9218 28.4001 20.1704C28.5208 20.1784 28.6255 20.1784 28.7302 20.1865C29.0684 20.2266 29.3904 20.5474 29.3824 20.8361C29.3743 21.157 29.0764 21.4297 28.7141 21.4617C28.6336 21.4698 28.5531 21.4537 28.4725 21.4617C28.2149 21.4938 27.8123 21.3093 27.8203 21.7906C27.8284 22.2397 28.2068 22.0713 28.4484 22.1034C28.5772 22.1194 28.7141 22.1194 28.8429 22.1515C29.1811 22.2317 29.3904 22.4483 29.3743 22.8012C29.3582 23.1701 29.1086 23.3626 28.6899 23.3787C28.6014 23.3787 28.5047 23.3867 28.3598 23.3947C28.6336 23.9321 29.0925 24.1968 29.5756 24.4133C29.9299 24.5737 30.3083 24.6379 30.7029 24.662C31.0732 24.686 31.3228 24.9507 31.3148 25.2715C31.3067 25.6004 31.0491 25.8651 30.6787 25.857C29.1247 25.841 27.9331 25.1593 27.144 23.8278C26.9508 23.499 26.7656 23.3145 26.3791 23.3626C26.2664 23.3787 26.1456 23.3145 26.0329 23.2824C25.9524 23.1942 25.8638 23.0899 25.7833 22.9937Z" fill="#76AA29"/>
<path d="M30.4485 15.3566C29.1039 15.4207 27.9525 15.9662 26.9461 16.8244C25.7383 17.851 24.9814 19.1504 24.7077 20.7224C24.6594 20.9871 24.6835 21.2518 24.6674 21.5164C24.6594 21.6608 24.7157 21.8132 24.595 21.9335C24.0555 21.5886 23.516 21.2437 22.9766 20.9069C23.1134 20.3936 23.202 19.8722 23.4114 19.3829C24.297 17.2815 25.843 15.9662 28.0491 15.4127C28.8221 15.2202 29.6353 15.2042 30.4485 15.3566Z" fill="#7FBA37"/>
<path d="M28.375 27.7109C29.0997 27.9596 29.8163 28.2724 30.6134 28.1922C30.1303 28.3205 29.6391 28.4087 29.1399 28.3205C28.9306 28.2804 28.7212 28.2804 28.5119 28.2724C28.4716 28.0879 28.4233 27.9034 28.375 27.7109Z" fill="#80BA37"/>
<path d="M16.7184 28.4329C17.0163 28.4329 17.2256 28.4249 17.443 28.4329C17.8295 28.449 18.0952 28.7217 18.0791 29.0666C18.063 29.3954 17.8053 29.636 17.435 29.6441C17.1532 29.6521 16.8713 29.6521 16.5895 29.6441C16.3319 29.636 16.2111 29.7323 16.2272 29.9889C16.2353 30.1253 16.2353 30.2536 16.2272 30.39C16.2111 30.6145 16.3077 30.6948 16.5332 30.6948C16.8552 30.6867 17.1773 30.6787 17.4913 30.7268C17.9261 30.791 18.1113 31.0396 18.071 31.4006C18.0308 31.7455 17.7812 31.954 17.3625 31.962C17.1773 31.97 16.9921 31.962 16.7103 31.962C17.1129 32.5956 17.596 33.0207 18.2079 33.3335C18.6991 33.5822 19.2224 33.6303 19.7539 33.7105C20.1967 33.7827 20.3497 33.9832 20.3255 34.3762C20.3014 34.7131 20.0357 34.9457 19.617 34.9216C17.8617 34.8254 16.4929 34.0474 15.6314 32.5074C15.4059 32.1144 15.2046 31.8738 14.7296 31.946C14.4558 31.9861 14.2223 31.8417 14.1016 31.6011C13.9969 31.3926 14.0291 31.16 14.1579 30.9514C14.2867 30.7349 14.5202 30.7108 14.7215 30.6948C14.9792 30.6787 15.0436 30.5664 15.0195 30.3418C15.0034 30.2215 15.0034 30.1012 15.0195 29.9809C15.0517 29.7323 14.9711 29.628 14.6974 29.628C14.2304 29.628 14.0371 29.4195 14.0532 29.0024C14.0694 28.6495 14.319 28.3928 14.7215 28.4329C15.1644 28.473 15.3576 28.2966 15.575 27.9276C16.4768 26.3796 17.8134 25.4974 19.6492 25.4573C20.1162 25.4493 20.3255 25.6417 20.3255 26.0508C20.3255 26.4599 20.1403 26.6283 19.6653 26.6684C18.4173 26.7727 17.4189 27.278 16.7184 28.4329Z" fill="#F2A234"/>
</g>
<path d="M5 29.5685C5.20192 29.1113 5.20192 28.6085 5.31205 28.1331C5.70671 26.5148 6.45013 25.0794 7.39546 23.7263C7.52396 23.3332 7.81765 23.0772 8.10217 22.8029C8.47847 22.4372 8.81806 22.0349 9.24025 21.715C9.57983 21.4224 9.95613 21.1847 10.3141 20.9104C10.9565 20.5264 11.6174 20.179 12.2965 19.8681C13.6916 19.2647 15.1784 19.027 16.6836 18.9447C16.9406 18.9265 17.2343 18.8625 17.4638 19.0819C17.4179 19.3379 17.1884 19.3287 17.0049 19.3562C14.9031 19.667 13.0216 20.4898 11.3787 21.8247C9.00162 23.7629 7.54231 26.2497 7.13848 29.2942C6.67958 32.6952 7.52396 35.7672 9.72668 38.4094C11.4246 40.4482 13.5906 41.783 16.2064 42.3407C16.4725 42.3956 16.7479 42.4413 17.014 42.5144C17.1242 42.5418 17.271 42.5418 17.271 42.7156C13.8201 42.8618 10.8923 41.6642 8.45094 39.2596C6.56026 37.4037 5.4589 35.1272 5.09178 32.4941C5.0826 32.421 5.09178 32.3387 5 32.3113C5 31.397 5 30.4827 5 29.5685Z" fill="#E77E04"/>
<path d="M10.3274 20.9919C9.97863 21.257 9.63905 21.513 9.29028 21.7781C9.13426 21.6227 9.15261 21.4124 9.15261 21.2204C9.15261 17.6914 9.1159 14.1532 9.17097 10.6241C9.18932 9.0516 10.0245 7.9362 11.4655 7.27793C11.7683 7.14079 12.0896 7.16822 12.4016 7.10422C12.677 7.09508 12.9523 7.08594 13.2277 7.08594C24.8195 7.08594 36.4205 7.08594 48.0124 7.08594C49.6552 7.08594 50.8484 7.79906 51.5551 9.28017C51.7937 9.76473 51.8763 10.295 51.8763 10.8344C51.8763 17.8377 51.8763 24.8409 51.8763 31.8442C51.8763 34.0567 50.2977 35.6109 48.0399 35.6109C41.2665 35.6201 34.4931 35.6109 27.7198 35.6109C27.628 35.4921 27.683 35.3732 27.7289 35.2635C27.9859 34.5138 28.2429 33.7641 28.3714 32.987C28.3989 32.8407 28.4356 32.6853 28.5825 32.603C28.8303 32.5024 29.0965 32.5299 29.3534 32.5299C33.5203 32.5299 37.6871 32.5299 41.8447 32.5299C42.0099 32.5299 42.1843 32.5299 42.3495 32.5299C42.7258 32.5299 42.9094 32.3379 42.9369 31.9722C42.9645 31.6065 42.9461 31.2407 42.9461 30.875C42.9553 28.498 44.7358 26.706 47.1037 26.6877C47.4709 26.6877 47.838 26.6877 48.2051 26.6877C48.5814 26.6877 48.765 26.4957 48.7925 26.13C48.8017 25.9655 48.8017 25.7917 48.8017 25.6272C48.8017 22.7655 48.8017 19.9039 48.8017 17.0423C48.8017 16.8868 48.8017 16.7405 48.7925 16.5851C48.7741 16.2194 48.5722 16.0366 48.2143 16.0183C47.8013 16 47.3883 16.0091 46.9753 16.0091C44.7633 15.9817 42.9645 14.1806 42.9369 11.9864C42.9277 11.575 42.9461 11.1635 42.9277 10.7521C42.9094 10.3864 42.7167 10.1944 42.3587 10.1761C42.1476 10.1579 41.9273 10.167 41.7162 10.167C34.2086 10.167 26.701 10.167 19.2025 10.167C18.5142 10.167 17.8258 10.1396 17.1467 10.1579C16.9815 10.1579 16.8071 10.1396 16.6511 10.2036C16.3757 10.295 16.3023 10.5144 16.2931 10.7796C16.2839 11.1178 16.2656 11.447 16.2931 11.7852C16.4308 13.7235 14.8889 15.5794 13.0625 15.9086C12.8789 15.936 12.7045 15.9909 12.5209 16C12.0988 16.0274 11.6674 16.0091 11.2452 16.0183C10.6211 16.0274 10.4651 16.1737 10.4559 16.8045C10.4375 17.9565 10.4559 19.1085 10.4467 20.2605C10.4375 20.4982 10.4742 20.7633 10.3274 20.9919Z" fill="#99D04B"/>
<path d="M28.5709 32.6633C28.4149 33.6782 28.1212 34.6564 27.7357 35.6072C26.2948 38.7432 23.9819 40.9374 20.7053 42.0894C19.5948 42.4825 18.4567 42.7111 17.2728 42.7111C16.5018 42.4551 15.6758 42.3911 14.9048 42.0985C10.6646 40.5077 8.00296 37.5363 7.12187 33.1022C6.41517 29.5183 7.28708 26.2543 9.58158 23.4201C11.4264 21.1436 13.8677 19.7905 16.7496 19.2511C16.9882 19.2054 17.2361 19.2145 17.4655 19.1322C17.6491 18.9677 17.8693 19.0042 18.0713 19.0317C19.503 19.1962 20.8797 19.5802 22.1738 20.2202C22.8255 20.5951 23.4771 20.9699 24.0829 21.4362C24.5785 21.811 25.0466 22.2042 25.4779 22.6521C25.5972 22.7801 25.7165 22.9081 25.8175 23.0453C27.1208 24.5172 27.9927 26.2086 28.4791 28.1012C28.5434 28.3389 28.5893 28.5766 28.6443 28.8143C28.7912 29.8931 28.9472 30.9719 28.7728 32.0691C28.7361 32.2885 28.7361 32.5079 28.5709 32.6633Z" fill="#F2A234"/>
<path d="M12.4033 7.10392C11.3203 7.36906 10.4025 7.8719 9.82429 8.86845C9.51224 9.417 9.30114 9.99299 9.30114 10.633C9.30114 14.3449 9.30114 18.0568 9.30114 21.7778C8.63115 22.3904 7.98869 23.0395 7.40129 23.7252C7.39212 22.0978 7.38294 20.4704 7.38294 18.8431C7.38294 16.1917 7.39212 13.5495 7.38294 10.8981C7.36458 8.47531 9.36539 6.95764 11.2194 7.08564C11.614 7.11306 12.0087 7.09478 12.4033 7.10392Z" fill="#7FBA37"/>
<path d="M22.207 20.3446C21.1515 19.8966 20.0869 19.476 18.9396 19.2932C18.444 19.2109 17.9576 19.1195 17.4528 19.1378C16.7094 18.9366 15.9843 19.1378 15.2501 19.2017C14.2038 19.2932 13.2217 19.6497 12.2305 19.9789C12.0836 19.8417 12.0928 19.6497 12.0928 19.476C12.0836 18.5435 12.0836 17.6018 12.0928 16.6692C12.0928 16.3035 12.1571 15.9653 12.5976 15.8647C12.7536 15.8373 12.9097 15.8007 13.0657 15.7733C13.6256 15.7641 14.1854 15.7733 14.7361 15.691C16.5717 15.4076 17.9209 13.8533 17.9668 11.9974C17.9759 11.6225 17.9759 11.2385 17.9668 10.8637C17.9668 10.6077 17.9851 10.3608 18.0769 10.1871C17.5721 10.2237 17.049 10.3608 16.5258 10.1048C16.6635 9.9677 16.847 10.0226 17.0031 10.0226C25.4285 10.0226 33.8447 10.0226 42.2702 10.0226C42.9218 10.0226 43.0687 10.1871 43.087 10.8271C43.1054 11.4671 43.0411 12.0979 43.1604 12.7379C43.5 14.4842 45.1429 15.8647 46.9326 15.8738C47.3731 15.8738 47.8137 15.8647 48.2634 15.8738C48.7407 15.883 48.9426 16.0658 48.9426 16.5321C48.9518 19.7412 48.9518 22.9594 48.9426 26.1684C48.9426 26.6621 48.7498 26.8267 48.2359 26.8358C47.3548 26.845 46.4737 26.781 45.6201 27.101C44.2159 27.6221 43.1054 29.1489 43.0962 30.6392C43.0962 31.0963 43.1054 31.5534 43.0962 32.0106C43.087 32.4951 42.9034 32.678 42.4354 32.678C37.8096 32.678 33.1931 32.678 28.5674 32.6688C28.806 31.3614 28.6775 30.054 28.5307 28.7466C28.6775 28.6004 28.8702 28.6004 29.0446 28.6369C29.6504 28.7649 30.247 28.6552 30.8435 28.5729C32.1652 28.3078 33.3675 27.7958 34.3954 26.8998C35.7905 25.693 36.6624 24.1936 36.8918 22.3651C37.158 20.2074 36.644 18.2601 35.1939 16.587C34.0099 15.2156 32.5139 14.411 30.7334 14.1093C28.6041 13.835 26.6767 14.3104 25.0063 15.6818C23.6388 16.8064 22.776 18.2326 22.4365 19.9789C22.3997 20.116 22.3814 20.2806 22.207 20.3446Z" fill="#75AA29"/>
<path d="M12.5965 15.8633C12.3211 16.0461 12.2293 16.3021 12.2293 16.6313C12.2477 17.7467 12.2385 18.8621 12.2385 19.9775C11.6052 20.3157 10.972 20.654 10.3387 20.9923C10.3295 19.5203 10.3203 18.0484 10.3203 16.5764C10.3203 16.037 10.5131 15.8633 11.0362 15.8633C11.5593 15.8633 12.0733 15.8633 12.5965 15.8633Z" fill="#6C9B1B"/>
<path d="M16.5304 10.0938C17.0811 10.0938 17.6226 10.0938 18.1916 10.0938C18.0264 10.6789 18.0999 11.2549 18.109 11.8126C18.1458 14.1074 16.2276 15.9725 14.0524 15.8536C13.7311 15.8353 13.3824 15.9542 13.0703 15.7713C14.7224 15.3508 15.7503 14.2994 16.1266 12.6445C16.2734 12.0228 16.1541 11.3737 16.1817 10.7429C16.1908 10.4686 16.1817 10.1852 16.5304 10.0938Z" fill="#6C9A1B"/>
<path d="M17.7202 22.2501C19.5558 22.3964 21.1711 23.1095 22.5478 24.3072C24.5394 26.0535 25.5765 28.266 25.5857 30.9265C25.6041 34.9767 22.7956 38.4966 18.8399 39.4291C18.381 39.5388 17.9221 39.6394 17.4448 39.6211C16.3985 39.5937 15.444 39.2188 14.5446 38.7343C11.9655 37.3355 10.3869 35.1687 9.96473 32.2796C9.48747 29.0705 10.5246 26.346 12.9843 24.1884C13.9663 23.329 15.0952 22.7621 16.3435 22.3873C16.784 22.2593 17.2521 22.1861 17.7202 22.2501Z" fill="#FEE082"/>
<path d="M30.7321 14.024C32.1456 14.1977 33.3846 14.7737 34.4584 15.6971C35.881 16.9222 36.7805 18.4673 37.0191 20.3324C37.221 21.978 36.9824 23.5689 36.1196 25.0317C35.1284 26.7048 33.7058 27.8476 31.8519 28.451C31.549 28.5516 31.2278 28.5882 30.9249 28.6613C29.9979 28.8167 29.1352 28.6796 28.3734 28.1128C27.8869 26.2294 26.9967 24.5563 25.7209 23.0843C26.5102 22.9472 26.7213 23.0386 27.1068 23.6786C27.8594 24.9403 28.9975 25.626 30.4293 25.8728C30.6587 25.9094 30.8882 25.9185 31.1084 25.8728C31.393 25.8088 31.5857 25.6442 31.5857 25.3425C31.5857 25.0408 31.4113 24.858 31.1268 24.8031C30.8606 24.7483 30.5853 24.7208 30.3191 24.666C29.6216 24.5197 29.0434 24.1723 28.5478 23.6786C28.4285 23.5597 28.3 23.4134 28.3642 23.2397C28.4193 23.066 28.612 23.1026 28.7589 23.0752C29.1811 23.002 29.3921 22.81 29.3921 22.49C29.3921 22.1883 29.1443 21.9506 28.7589 21.8775C28.5294 21.8409 28.3 21.8683 28.0705 21.8409C27.786 21.8135 27.6667 21.6306 27.6667 21.3838C27.6575 21.1278 27.7676 20.9358 28.0522 20.8992C28.2816 20.8718 28.5111 20.8992 28.7405 20.8718C29.126 20.8261 29.4105 20.5884 29.3921 20.2867C29.3738 19.9301 29.1352 19.7564 28.8139 19.6741C28.6579 19.6375 28.4285 19.6924 28.3826 19.5004C28.3275 19.2901 28.4927 19.1255 28.6395 18.9976C29.1902 18.4856 29.8327 18.1564 30.5853 18.0559C30.7964 18.0284 31.0167 18.0193 31.2094 17.937C31.4572 17.8364 31.6316 17.6627 31.5949 17.3793C31.5582 17.0776 31.3838 16.8765 31.0625 16.8399C30.9249 16.8216 30.7872 16.8216 30.6495 16.8399C29.1443 17.0045 27.9787 17.7542 27.1711 19.0158C26.9233 19.3907 26.703 19.7015 26.189 19.7015C25.8861 19.7015 25.6292 19.8752 25.5924 20.2227C25.5557 20.5701 25.7576 20.7621 26.0697 20.8535C26.3359 20.9266 26.4827 21.0729 26.4827 21.3746C26.4827 21.6581 26.3726 21.8592 26.0972 21.9141C25.6108 22.0055 25.62 22.4535 25.4548 22.7643C24.9959 22.362 24.5461 21.9598 24.0872 21.5666C23.9129 20.1312 24.3167 18.8147 25.0418 17.6079C26.0422 15.9256 27.4831 14.7554 29.383 14.1794C29.7868 14.0057 30.2549 13.9325 30.7321 14.024Z" fill="#99D04B"/>
<path d="M17.7257 22.2549C16.092 22.4195 14.6419 23.032 13.3478 24.0286C11.8701 25.1622 10.8422 26.6342 10.3374 28.4262C9.49299 31.4341 10.0437 34.1769 12.0628 36.5905C13.4395 38.2271 15.2017 39.1687 17.2943 39.5436C17.3494 39.5527 17.3953 39.5984 17.4503 39.6259C17.1566 39.8087 16.8262 39.7264 16.5142 39.7082C14.2472 39.571 12.2464 38.7482 10.6402 37.1391C9.32778 35.8317 8.47423 34.2409 8.18971 32.3666C7.81341 29.9073 8.3182 27.6765 9.8234 25.6834C11.3011 23.7177 13.2652 22.584 15.7065 22.2457C16.3857 22.1635 17.0557 22.0903 17.7257 22.2549Z" fill="#FEC864"/>
<path d="M25.4096 22.7265C25.3546 22.2236 25.4922 21.8488 26.0521 21.7574C26.3183 21.7117 26.3274 21.5379 26.3274 21.3185C26.3274 21.1082 26.2724 21.0077 26.0429 20.9528C25.5565 20.834 25.3638 20.5597 25.4096 20.1574C25.4555 19.7917 25.7676 19.5174 26.2357 19.5357C26.5753 19.5449 26.7313 19.4077 26.9057 19.1243C27.8051 17.634 29.1084 16.7655 30.8797 16.6924C31.3754 16.6741 31.6599 16.9209 31.7149 17.3506C31.7608 17.6798 31.4947 18.0089 31.0449 18.0729C30.2465 18.1826 29.4939 18.3563 28.8606 18.8866C28.6587 19.0512 28.4843 19.2249 28.3925 19.5083C28.5302 19.5174 28.6495 19.5174 28.7688 19.5266C29.1543 19.5723 29.5214 19.938 29.5122 20.2671C29.503 20.6328 29.1635 20.9437 28.7504 20.9802C28.6587 20.9894 28.5669 20.9711 28.4751 20.9802C28.1814 21.0168 27.7225 20.8065 27.7317 21.3551C27.7409 21.8671 28.1722 21.6751 28.4476 21.7117C28.5944 21.7299 28.7504 21.7299 28.8973 21.7665C29.2828 21.8579 29.5214 22.1048 29.503 22.5071C29.4847 22.9276 29.2002 23.147 28.7229 23.1653C28.622 23.1653 28.5118 23.1745 28.3466 23.1836C28.6587 23.7962 29.1818 24.0979 29.7325 24.3447C30.1363 24.5276 30.5677 24.6007 31.0174 24.6282C31.4396 24.6556 31.7241 24.9573 31.7149 25.323C31.7058 25.6978 31.4121 25.9995 30.9899 25.9904C29.2185 25.9721 27.8602 25.195 26.9607 23.6773C26.7405 23.3025 26.5294 23.0922 26.0888 23.147C25.9603 23.1653 25.8227 23.0922 25.6942 23.0556C25.6024 22.9551 25.5014 22.8362 25.4096 22.7265Z" fill="#76AA29"/>
<path d="M30.7281 14.0233C29.1954 14.0964 27.883 14.7181 26.7357 15.6964C25.359 16.8666 24.4963 18.3478 24.1842 20.1397C24.1291 20.4414 24.1567 20.7431 24.1383 21.0448C24.1291 21.2094 24.1934 21.3831 24.0557 21.5202C23.4408 21.1271 22.8259 20.734 22.2109 20.35C22.367 19.7649 22.4679 19.1706 22.7066 18.6129C23.7161 16.2175 25.4783 14.7181 27.9931 14.0873C28.8742 13.8679 29.8012 13.8496 30.7281 14.0233Z" fill="#7FBA37"/>
<path d="M28.3672 28.1055C29.1932 28.3889 30.0101 28.7455 30.9187 28.654C30.368 28.8003 29.8081 28.9009 29.2391 28.8003C29.0005 28.7546 28.7618 28.7546 28.5232 28.7455C28.4773 28.5352 28.4223 28.3249 28.3672 28.1055Z" fill="#80BA37"/>
<path d="M15.0775 28.9273C15.4171 28.9273 15.6558 28.9182 15.9036 28.9273C16.3441 28.9456 16.647 29.2565 16.6286 29.6496C16.6103 30.0245 16.3166 30.2987 15.8944 30.3079C15.5731 30.317 15.2519 30.317 14.9307 30.3079C14.637 30.2987 14.4993 30.4084 14.5177 30.701C14.5269 30.8564 14.5269 31.0027 14.5177 31.1581C14.4993 31.4141 14.6095 31.5056 14.8664 31.5056C15.2336 31.4964 15.6007 31.4873 15.9586 31.5421C16.4542 31.6153 16.6653 31.8987 16.6194 32.3101C16.5736 32.7032 16.289 32.941 15.8118 32.9501C15.6007 32.9592 15.3896 32.9501 15.0684 32.9501C15.5273 33.6724 16.0779 34.1569 16.7755 34.5135C17.3353 34.7969 17.9319 34.8518 18.5376 34.9432C19.0424 35.0255 19.2168 35.254 19.1893 35.702C19.1618 36.086 18.8589 36.3512 18.3816 36.3237C16.3808 36.214 14.8206 35.3272 13.8385 33.5718C13.5815 33.1238 13.3521 32.8495 12.8106 32.9318C12.4985 32.9775 12.2323 32.813 12.0947 32.5387C11.9754 32.301 12.0121 32.0358 12.1589 31.7981C12.3058 31.5513 12.5719 31.5239 12.8014 31.5056C13.0951 31.4873 13.1685 31.3593 13.141 31.1033C13.1226 30.9661 13.1226 30.829 13.141 30.6919C13.1777 30.4084 13.0859 30.2896 12.7739 30.2896C12.2415 30.2896 12.0213 30.0519 12.0396 29.5765C12.058 29.1742 12.3425 28.8816 12.8014 28.9273C13.3062 28.9731 13.5264 28.7719 13.7743 28.3514C14.8022 26.5868 16.3257 25.5811 18.4183 25.5354C18.9507 25.5263 19.1893 25.7457 19.1893 26.212C19.1893 26.6783 18.9782 26.8703 18.4367 26.916C17.0141 27.0348 15.876 27.6108 15.0775 28.9273Z" fill="#F2A234"/>
<path d="M27.2166 2C27.3812 2.0252 27.4446 2.16382 27.4826 2.28983C27.7992 3.08372 28.3439 3.63818 29.1418 3.94061C29.2811 3.99101 29.4458 4.05402 29.4205 4.24304C29.4078 4.39426 29.2558 4.44466 29.1418 4.49507C28.3439 4.8101 27.7992 5.35196 27.4826 6.15845C27.4319 6.28446 27.3812 6.42308 27.2166 6.42308C27.0266 6.42308 26.9632 6.27186 26.9126 6.13325C26.6086 5.35196 26.064 4.8227 25.2913 4.50767C25.1647 4.45726 25 4.40686 25 4.21784C25 4.05402 25.152 4.00362 25.266 3.95321C26.064 3.63818 26.6213 3.08372 26.9253 2.28983C26.9759 2.16382 27.0392 2.0126 27.2166 2Z" fill="#F7B716"/>
<path d="M55.2166 19C55.3812 19.0252 55.4446 19.1638 55.4826 19.2898C55.7992 20.0837 56.3439 20.6382 57.1418 20.9406C57.2811 20.991 57.4458 21.054 57.4205 21.243C57.4078 21.3943 57.2558 21.4447 57.1418 21.4951C56.3439 21.8101 55.7992 22.352 55.4826 23.1584C55.4319 23.2845 55.3812 23.4231 55.2166 23.4231C55.0266 23.4231 54.9632 23.2719 54.9126 23.1332C54.6086 22.352 54.064 21.8227 53.2913 21.5077C53.1647 21.4573 53 21.4069 53 21.2178C53 21.054 53.152 21.0036 53.266 20.9532C54.064 20.6382 54.6213 20.0837 54.9253 19.2898C54.9759 19.1638 55.0392 19.0126 55.2166 19Z" fill="#F7B716"/>
<path d="M38.1032 34C38.3337 34.0353 38.4224 34.2293 38.4756 34.4058C38.9189 35.5172 39.6814 36.2934 40.7985 36.7169C40.9936 36.7874 41.2241 36.8756 41.1887 37.1403C41.1709 37.352 40.9581 37.4225 40.7985 37.4931C39.6814 37.9341 38.9189 38.6927 38.4756 39.8218C38.4047 39.9982 38.3337 40.1923 38.1032 40.1923C37.8372 40.1923 37.7485 39.9806 37.6776 39.7865C37.252 38.6927 36.4895 37.9518 35.4078 37.5107C35.2305 37.4402 35 37.3696 35 37.105C35 36.8756 35.2128 36.8051 35.3724 36.7345C36.4895 36.2934 37.2698 35.5172 37.6954 34.4058C37.7663 34.2293 37.8549 34.0176 38.1032 34Z" fill="#F7B716"/>
<defs>
<filter id="filter0_f_8802_27821" x="0.875" y="2.26562" width="55.125" height="45.2734" filterUnits="userSpaceOnUse" colorInterpolationFilters="sRGB">
<feFlood floodOpacity="0" result="BackgroundImageFix"/>
<feBlend mode="normal" in="SourceGraphic" in2="BackgroundImageFix" result="shape"/>
<feGaussianBlur stdDeviation="3.5" result="effect1_foregroundBlur_8802_27821"/>
</filter>
<linearGradient id="paint0_linear_8802_27821" x1="8" y1="23" x2="54" y2="23" gradientUnits="userSpaceOnUse">
<stop stop-color="#FFC700"/>
<stop offset="1" stop-color="#FFC700" stop-opacity="0"/>
</linearGradient>
</defs>
</svg>
