<svg width="61" height="52" viewBox="0 0 61 52" fill="none" xmlns="http://www.w3.org/2000/svg">
<circle cx="32" cy="26" r="22.5" fill="#0D101B" stroke="url(#paint0_linear_8802_27823)"/>
<g filter="url(#filter0_f_8802_27823)">
<ellipse cx="18.1659" cy="24.7505" rx="11.8309" ry="5.89529" transform="rotate(31.6869 18.1659 24.7505)" fill="#FDCC3D"/>
</g>
<g filter="url(#filter1_f_8802_27823)">
<ellipse cx="42.6424" cy="15.0209" rx="11.8309" ry="5.89529" transform="rotate(150 42.6424 15.0209)" fill="#FDCC3D"/>
</g>
<g filter="url(#filter2_f_8802_27823)">
<ellipse cx="40.6424" cy="37.0209" rx="11.8309" ry="5.89529" transform="rotate(150 40.6424 37.0209)" fill="#FDCC3D"/>
</g>
<path d="M29.0389 42.0621C28.1969 41.0885 28.2626 40.036 28.7889 38.9572C29.473 37.5363 30.4992 36.3522 31.6438 35.2997C35.0119 32.1948 38.8799 29.9187 43.1952 28.4189C44.8792 27.8268 46.6027 27.4058 48.4183 27.4716C49.0498 27.4979 49.655 27.6163 50.1944 27.9452C50.7075 28.2347 50.9706 28.7215 51.1943 29.2477C51.2469 30.4581 50.7075 31.4712 50.0365 32.4053C48.642 34.3787 46.8264 35.8917 44.8792 37.2863C42.3006 39.1282 39.5377 40.6149 36.5512 41.6543C34.8803 42.2463 33.17 42.6805 31.3676 42.6673C30.5387 42.6541 29.7493 42.4963 29.0389 42.0621Z" fill="#FDCC3D"/>
<path d="M7.02939 17.1306C7.51617 15.8281 8.62132 15.5123 9.83171 15.4597C11.6341 15.3939 13.3708 15.8281 15.0417 16.4333C19.8043 18.1305 24.067 20.6697 27.5666 24.3666C28.4875 25.3402 29.3164 26.4059 29.6585 27.7478C29.8558 28.4977 29.8032 29.2082 29.2638 29.8134C28.7375 30.4317 28.0271 30.5765 27.2771 30.6291C25.4221 30.7475 23.6591 30.3396 21.9225 29.7476C19.1465 28.8135 16.5546 27.4847 14.1075 25.8533C12.634 24.8666 11.2263 23.7877 9.95011 22.551C8.91076 21.5511 7.97665 20.446 7.3583 19.1172C7.06886 18.4989 6.89782 17.841 7.02939 17.1306Z" fill="#FDCC3D"/>
<path d="M30.7353 20.3787C30.1827 19.734 30.1038 18.9973 30.3274 18.221C30.6695 17.0107 31.4062 16.0239 32.2219 15.103C34.7348 12.3006 37.8003 10.2614 41.1289 8.57738C43.2997 7.48539 45.5363 6.60391 47.9439 6.16975C48.9438 5.98556 49.9568 5.93293 50.9699 6.10397C51.9434 6.26184 52.6276 6.76179 52.9696 7.6959C53.1407 8.9326 52.5749 9.93249 51.904 10.8666C50.562 12.7611 48.8385 14.2741 46.9703 15.6161C44.3522 17.4974 41.5499 19.0631 38.4976 20.1287C36.7346 20.7471 34.9322 21.2602 33.0245 21.1944C32.1956 21.1681 31.3668 21.0365 30.7353 20.3787Z" fill="#FDCC3D"/>
<path d="M7.02721 17.1289C7.14562 17.7604 7.14562 18.4182 7.44822 19.0103C8.19813 20.4838 9.25065 21.7073 10.461 22.8256C11.803 24.0623 13.237 25.1543 14.7632 26.1279C17.5787 27.9303 20.552 29.3644 23.8017 30.1538C25.1568 30.4827 26.525 30.6669 27.9196 30.4169C28.4196 30.3248 28.8274 30.0748 29.2484 29.8249C28.6169 30.93 28.0117 32.0483 27.3407 33.1271C26.9066 33.8507 26.1304 34.0349 25.3541 34.1402C24.9331 34.1928 24.5121 34.206 24.078 34.1533C23.9727 33.6929 24.3805 33.4297 24.5253 33.0614C24.6174 32.8508 24.6963 32.693 24.4332 32.5219C24.0516 32.2851 23.9859 32.272 23.749 32.6667C23.5517 32.9824 23.3675 33.3113 23.1833 33.6402C23.1044 33.7981 23.0123 33.956 22.8281 34.0218C21.8545 33.8507 20.8809 33.6534 19.96 33.285C19.9468 32.7851 20.3284 32.4693 20.5257 32.0746C20.6573 31.8115 20.6573 31.6536 20.381 31.4694C20.0916 31.2852 19.9205 31.3115 19.7758 31.6273C19.6048 31.9825 19.3943 32.3114 19.1838 32.6403C19.1048 32.7588 19.0785 32.9298 18.868 32.8903C17.9471 32.614 17.0919 32.193 16.2236 31.772C16.2762 31.2852 16.6183 30.93 16.8419 30.5222C17.0393 30.1801 16.9077 30.0485 16.6446 29.8643C16.3288 29.6538 16.2236 29.838 16.092 30.0748C15.842 30.4958 15.671 30.9563 15.3158 31.3115C14.4343 30.8642 13.5791 30.3906 12.7634 29.838C12.8292 29.3512 13.1713 28.996 13.3949 28.5882C13.6186 28.1672 13.5923 28.1014 13.1844 27.8777C12.9608 27.7593 12.8555 27.8119 12.7108 28.0224C12.4345 28.4434 12.2898 28.9434 11.8688 29.2591C11.0399 28.7197 10.2505 28.1408 9.50062 27.4962C9.67165 26.9962 9.97425 26.5752 10.2374 26.1148C10.3821 25.8385 10.3821 25.6806 10.1058 25.5227C9.81637 25.3517 9.63218 25.4175 9.47431 25.6937C9.25065 26.0884 9.09277 26.5226 8.73755 26.8384C7.94816 26.1674 7.23771 25.4306 6.59305 24.6149C6.77724 24.1018 7.09299 23.6677 7.35612 23.194C7.50084 22.9309 7.56662 22.7335 7.23771 22.5494C6.89564 22.3652 6.73777 22.4967 6.57989 22.7862C6.3957 23.1282 6.22467 23.4835 5.98785 23.7992C5.52738 23.0888 5.10637 22.3389 5.01427 21.4574C4.96165 20.9706 5.05374 20.5233 5.30372 20.1023C5.89576 19.1155 6.46148 18.1156 7.02721 17.1289Z" fill="#FD9823"/>
<path d="M29.0391 42.0605C29.1706 41.9157 29.289 42.0605 29.3811 42.1131C30.381 42.6657 31.4862 42.6262 32.5518 42.4946C35.4594 42.1394 38.1433 41.0474 40.722 39.7055C43.0112 38.5082 45.1689 37.0873 47.1292 35.377C48.5237 34.1534 49.7999 32.8378 50.6682 31.1538C50.984 30.5486 51.0235 29.8776 51.2208 29.2461C51.8129 30.246 52.4049 31.2459 52.9706 32.2589C53.2995 32.8378 53.2338 33.4562 53.0496 34.0745C52.8654 34.6665 52.5891 35.2323 52.2075 35.7322C51.8392 35.4954 51.7471 35.0744 51.5366 34.7323C51.3392 34.4166 51.155 34.4692 50.8919 34.6139C50.6025 34.7718 50.6551 34.9428 50.7867 35.1796C51.0498 35.6664 51.4182 36.1006 51.5497 36.6532C50.9314 37.4426 50.2341 38.153 49.471 38.8108C49.0368 38.6003 48.9579 38.1267 48.7342 37.7583C48.5501 37.4689 48.4185 37.3636 48.0896 37.5478C47.7475 37.732 47.8265 37.9293 47.9712 38.1793C48.208 38.6135 48.5237 39.0213 48.6816 39.5081C47.9317 40.1396 47.1423 40.7317 46.3135 41.2711C45.8661 41.0211 45.7741 40.5212 45.5241 40.1265C45.3136 39.8107 45.1294 39.7976 44.8531 39.9949C44.6689 40.1396 44.6031 40.2843 44.7347 40.4948C44.9189 40.7974 45.1031 41.1132 45.2741 41.429C45.3399 41.5737 45.4715 41.7052 45.3662 41.8763C44.59 42.442 43.748 42.8762 42.8928 43.3235C42.4981 43.0077 42.3665 42.5209 42.1034 42.1131C41.9718 41.9157 41.8929 41.7052 41.5903 41.8894C41.3272 42.0473 41.1298 42.192 41.3403 42.5341C41.4982 42.7972 41.6561 43.0604 41.814 43.3366C41.8929 43.4814 42.0376 43.6261 41.9324 43.8234C41.0772 44.2707 40.1694 44.6391 39.2616 44.9812C38.8801 44.6128 38.6959 44.0997 38.4328 43.6655C38.2486 43.363 38.0907 43.363 37.8013 43.5077C37.4723 43.6787 37.5381 43.8497 37.696 44.0997C37.8407 44.3365 37.9723 44.5733 38.1038 44.8233C38.1828 44.9812 38.3144 45.1259 38.1959 45.3233C37.275 45.7048 36.3014 45.889 35.3278 46.0732C34.9068 45.6653 34.7095 45.1128 34.42 44.626C34.2622 44.3628 34.1306 44.3234 33.8806 44.4812C33.6438 44.626 33.4728 44.7575 33.6701 45.0601C33.828 45.2969 33.9596 45.5338 34.078 45.7837C34.1438 45.9021 34.2622 46.0206 34.1569 46.1916C33.6175 46.2311 33.0781 46.2179 32.5518 46.1258C31.6967 45.9679 31.0388 45.5732 30.631 44.7838C30.0653 43.8234 29.539 42.9419 29.0391 42.0605Z" fill="#FD9823"/>
<path d="M30.7344 20.3796C32.2737 21.3531 33.9314 21.1689 35.5759 20.8006C40.2728 19.7612 44.3776 17.5115 48.114 14.5644C49.6928 13.3277 51.1137 11.9331 52.1794 10.2096C52.6004 9.53865 52.9161 8.81505 52.8898 7.99935C52.8898 7.88094 52.8767 7.76253 52.9819 7.68359C53.574 8.7098 54.1791 9.736 54.7712 10.7754C55.0738 11.3016 55.0475 11.8673 54.9027 12.4331C54.7317 13.0646 54.4423 13.6566 54.0607 14.1829C53.6134 14.025 53.574 13.5645 53.3634 13.2356C53.1793 12.9462 53.0214 12.9067 52.7451 13.0909C52.5083 13.2488 52.4425 13.4066 52.6004 13.6566C52.8109 13.9855 52.9951 14.3276 53.1793 14.6697C53.2582 14.8275 53.3766 14.9723 53.3108 15.1696C52.7188 15.9853 51.982 16.6563 51.2321 17.3273C50.8374 17.0115 50.6927 16.5247 50.4427 16.1169C50.2717 15.8143 50.127 15.8801 49.9033 16.0248C49.6928 16.1563 49.4691 16.2221 49.6665 16.5642C49.9428 17.0378 50.298 17.472 50.4164 18.0246C49.6796 18.6692 48.8771 19.2481 48.0614 19.7875C47.6799 19.4981 47.5746 19.0244 47.3246 18.6561C47.1536 18.4061 47.0352 18.2482 46.7063 18.4324C46.3642 18.6297 46.4168 18.8271 46.5747 19.1165C46.7984 19.5244 47.1536 19.8665 47.1799 20.3664C46.3905 20.8795 45.588 21.3794 44.7197 21.7741C44.496 21.8005 44.4697 21.6031 44.3908 21.4715C44.2066 21.1953 44.0355 20.919 43.8908 20.6295C43.7592 20.3664 43.6277 20.2085 43.2856 20.4059C42.9567 20.5901 42.9435 20.7742 43.1277 21.0637C43.3646 21.4452 43.6408 21.8268 43.8119 22.2478C42.9172 22.6951 42.0094 23.1029 41.0622 23.4187C40.7596 23.3134 40.7201 23.0108 40.5622 22.7872C40.4044 22.5504 40.2728 22.3136 40.1281 22.0767C39.9965 21.8268 39.8386 21.8136 39.615 21.9583C39.4045 22.0899 39.2203 22.1951 39.3913 22.4977C39.5492 22.774 39.7071 23.024 39.8518 23.3003C39.9307 23.4582 40.0491 23.6029 39.9833 23.8002C38.9966 24.1686 37.9704 24.3791 36.9442 24.5765C36.7469 24.0765 36.4443 23.6292 36.1943 23.1556C36.0496 22.8793 35.8917 22.774 35.5759 22.9714C35.2733 23.1556 35.2602 23.3003 35.4312 23.5897C35.6286 23.9318 35.9312 24.2344 35.9443 24.6686C35.3918 24.7212 34.826 24.6949 34.2735 24.5896C33.4446 24.4449 32.7868 24.0502 32.3789 23.274C31.8658 22.3004 31.2869 21.34 30.7344 20.3796Z" fill="#FD9823"/>
<path d="M50.4175 18.0254C50.1149 17.5123 49.8123 16.9992 49.4966 16.4861C49.365 16.2756 49.3782 16.1441 49.6281 16.0388C49.7729 15.973 49.9044 15.8809 50.0492 15.7888C50.2202 15.6836 50.3254 15.6836 50.4307 15.8809C50.6807 16.3677 50.9569 16.8545 51.2201 17.3281C50.9964 17.6176 50.7201 17.8413 50.4175 18.0254Z" fill="#C85929"/>
<path d="M39.9857 23.8109C39.7357 23.3636 39.512 22.9163 39.2489 22.4953C39.091 22.2584 39.1174 22.14 39.341 21.9822C39.9725 21.5743 39.9594 21.5612 40.3409 22.2058C40.5777 22.6137 40.8145 23.0215 41.0514 23.4294C40.7224 23.6136 40.3672 23.732 39.9857 23.8109Z" fill="#C85929"/>
<path d="M8.76562 26.8366C8.93666 26.3498 9.26557 25.9551 9.48923 25.5078C9.63395 25.2183 9.77867 25.192 10.0681 25.3499C10.647 25.6788 10.6733 25.6657 10.3444 26.2182C10.0944 26.6524 9.91024 27.1392 9.54185 27.4944C9.25241 27.3234 9.0156 27.0734 8.76562 26.8366Z" fill="#C85929"/>
<path d="M48.644 39.4825C48.1966 39.0089 47.973 38.4037 47.6441 37.8643C47.552 37.7064 47.6178 37.6275 47.7625 37.5617C47.9072 37.4827 48.0651 37.4169 48.1966 37.3249C48.4466 37.1407 48.565 37.2459 48.6966 37.4696C48.9334 37.9169 49.1965 38.3511 49.4597 38.7852C49.2228 39.0878 48.9202 39.272 48.644 39.4825Z" fill="#C85929"/>
<path d="M38.1288 45.2837C37.9709 44.7838 37.6552 44.3628 37.3921 43.9154C37.2605 43.7049 37.2605 43.5602 37.5105 43.4681C37.5236 43.4681 37.5368 43.455 37.5499 43.4418C38.1683 43.0997 38.1814 43.0866 38.5367 43.7049C38.7735 44.1128 39.0629 44.4943 39.1945 44.9548C38.8524 45.0864 38.5104 45.2706 38.1288 45.2837Z" fill="#C85929"/>
<path d="M11.9062 29.26C12.1825 28.7732 12.472 28.2996 12.7219 27.8128C12.8404 27.6023 12.9193 27.5892 13.1298 27.7076C13.8271 28.1154 13.8402 28.1023 13.4192 28.7864C13.2087 29.1416 12.9982 29.4837 12.7877 29.8389C12.472 29.6942 12.1825 29.4968 11.9062 29.26Z" fill="#C85929"/>
<path d="M34.0777 46.1539C33.8672 45.7855 33.683 45.404 33.4594 45.0488C33.2752 44.7593 33.2489 44.5488 33.6173 44.4173C33.7488 44.3646 33.8672 44.2725 33.9856 44.1936C34.1304 44.1015 34.2225 44.1278 34.2882 44.2857C34.5777 44.8777 34.9987 45.404 35.2355 46.0355C34.8671 46.0881 34.4856 46.2197 34.0777 46.1539Z" fill="#C85929"/>
<path d="M53.2988 15.1834C53.0093 14.6703 52.7462 14.1572 52.4304 13.6572C52.0621 13.0784 52.6541 13.0784 52.8778 12.8679C53.154 12.6179 53.2461 12.8415 53.3646 13.0652C53.5751 13.4467 53.825 13.8151 54.0487 14.1835C53.8645 14.565 53.6145 14.9071 53.2988 15.1834Z" fill="#C85929"/>
<path d="M35.9485 24.6826C35.7116 24.2747 35.4748 23.8669 35.2249 23.459C35.0801 23.2354 35.0933 23.0775 35.3564 22.9723C35.5011 22.9065 35.6327 22.8144 35.7774 22.7223C35.909 22.6433 36.0274 22.6302 36.1063 22.7749C36.3958 23.288 36.6852 23.788 36.9747 24.3011C37.0404 24.4063 36.9878 24.4852 36.9352 24.5773C36.6063 24.6037 36.2905 24.7352 35.9485 24.6826Z" fill="#C85929"/>
<path d="M18.9062 32.9048C19.1957 32.418 19.4983 31.9312 19.7877 31.4444C19.9061 31.2471 20.0377 31.0366 20.2614 31.2602C20.4587 31.4576 21.0902 31.405 20.7613 31.9838C20.5113 32.418 20.2614 32.8522 20.0114 33.2995C19.6035 33.2337 19.2352 33.1021 18.9062 32.9048Z" fill="#C85929"/>
<path d="M22.8672 34.0363C23.1829 33.4969 23.525 32.9838 23.8013 32.4312C23.9592 32.1286 24.1039 32.1549 24.3276 32.2996C24.446 32.3786 24.5775 32.4707 24.7091 32.5233C24.9064 32.6154 24.8933 32.7075 24.8012 32.9048C24.5775 33.3258 24.2749 33.6942 24.1302 34.1547C23.696 34.1942 23.275 34.1284 22.8672 34.0363Z" fill="#C85929"/>
<path d="M51.5216 36.6385C51.1926 36.0991 50.8769 35.5465 50.5348 35.0071C50.4164 34.8098 50.4296 34.6782 50.6532 34.5861C50.798 34.5203 50.9427 34.4283 51.0742 34.3493C51.2453 34.2309 51.3768 34.2704 51.4821 34.4414C51.7189 34.8756 51.9557 35.2966 52.1925 35.7307C52.0215 36.0596 51.7978 36.3622 51.5216 36.6385Z" fill="#C85929"/>
<path d="M43.8015 22.2601C43.341 21.8391 43.1042 21.2602 42.8148 20.734C42.7358 20.5893 42.8542 20.5366 42.9595 20.484C43.1042 20.4051 43.2358 20.3261 43.3805 20.234C43.6042 20.0762 43.7357 20.1288 43.8673 20.3788C44.1304 20.8656 44.433 21.326 44.7225 21.7997C44.4462 21.997 44.1304 22.1286 43.8015 22.2601Z" fill="#C85929"/>
<path d="M6.01562 23.799C6.09456 23.2596 6.4761 22.878 6.71292 22.4176C6.85764 22.1281 7.06814 22.3386 7.25233 22.4176C7.62071 22.5886 7.88384 22.7728 7.51546 23.2201C7.17339 23.6543 7.02867 24.2068 6.63398 24.6015C6.38401 24.3779 6.1735 24.1016 6.01562 23.799Z" fill="#C85929"/>
<path d="M45.3116 41.8516C45.0485 41.378 44.8248 40.8912 44.5354 40.457C44.2591 40.0623 44.588 39.9702 44.7985 39.8518C44.9958 39.7334 45.2327 39.4176 45.4563 39.865C45.7063 40.3386 45.9957 40.7859 46.272 41.2464C45.9826 41.4964 45.68 41.72 45.3116 41.8516Z" fill="#C85929"/>
<path d="M47.1695 20.3658C46.88 19.8658 46.6037 19.3659 46.3143 18.8791C46.0775 18.4713 46.4853 18.4581 46.6564 18.3397C46.8142 18.2213 47.0511 17.9582 47.2484 18.3397C47.5115 18.8265 47.7878 19.3001 48.0509 19.7869C47.7878 20.0106 47.4984 20.2079 47.1695 20.3658Z" fill="#C85929"/>
<path d="M15.3594 31.3267C15.5567 30.7478 15.9383 30.261 16.2145 29.7348C16.2803 29.6032 16.3724 29.59 16.4908 29.6558C16.675 29.7611 16.8461 29.8795 17.0434 29.9716C17.2539 30.0768 17.2276 30.1952 17.1355 30.3663C16.8461 30.8399 16.5566 31.3135 16.2803 31.8003C15.9514 31.6688 15.6357 31.5109 15.3594 31.3267Z" fill="#C85929"/>
<path d="M41.8678 43.7987C41.6047 43.325 41.3415 42.8646 41.0916 42.3778C40.8021 41.8252 41.4205 41.9042 41.6047 41.6936C41.7888 41.4831 41.9467 41.641 42.052 41.8384C42.3151 42.3252 42.5782 42.8119 42.8414 43.2987C42.5388 43.5092 42.2099 43.6671 41.8678 43.7987Z" fill="#C85929"/>
<path d="M32.1329 40.5747C31.8698 40.5221 31.6067 40.4958 31.3567 40.43C30.9094 40.2984 30.7383 39.9564 30.8568 39.5091C31.0278 38.8512 31.462 38.3513 31.8961 37.8645C33.3696 36.2726 35.1326 35.0227 36.9482 33.8518C38.3954 32.9177 39.8952 32.0757 41.4608 31.3521C43.0659 30.6022 44.6842 29.918 46.434 29.5891C46.9471 29.497 47.447 29.5102 47.947 29.5496C48.4995 29.5891 48.7758 30.1022 48.5522 30.6416C48.3417 31.1547 48.0391 31.6152 47.6575 32.0362C45.934 33.9307 43.8422 35.3648 41.6713 36.6936C39.4348 38.0619 37.0929 39.2196 34.58 40.0485C33.817 40.2984 32.9749 40.4432 32.1329 40.5747Z" fill="#FDA732"/>
<path d="M10.9232 17.5117C12.2783 17.617 13.6202 18.0511 14.9096 18.5905C18.1066 19.9062 21.0799 21.6034 23.8296 23.6952C25.0005 24.5899 26.1057 25.5635 26.9609 26.787C27.0135 26.8659 27.0661 26.9449 27.1187 27.037C27.6055 27.9316 27.2503 28.55 26.2241 28.55C25.0532 28.55 23.9349 28.1947 22.8429 27.8001C20.0537 26.8002 17.4751 25.3924 15.0148 23.7742C13.4097 22.7217 11.8836 21.5771 10.5811 20.1562C10.1996 19.7352 9.85749 19.2615 9.63383 18.7353C9.38386 18.1432 9.59436 17.7091 10.2259 17.5775C10.4232 17.5117 10.6337 17.5249 10.9232 17.5117Z" fill="#FDA732"/>
<path d="M33.8698 18.9989C34.0014 18.9989 33.9882 18.9989 33.9619 18.9989C33.5278 18.9989 33.0278 19.091 32.7779 18.6173C32.5279 18.1437 32.7647 17.6832 33.0278 17.2754C33.6593 16.3018 34.5013 15.5256 35.396 14.802C37.8299 12.8285 40.4875 11.184 43.3293 9.85516C44.9212 9.10524 46.5526 8.40795 48.3156 8.11851C48.8287 8.02641 49.3681 7.88169 49.9075 8.07904C50.4075 8.25007 50.618 8.6053 50.4338 9.10524C50.0654 10.1314 49.3155 10.8682 48.5393 11.5655C47.5262 12.4864 46.4211 13.3021 45.2896 14.0784C44.316 14.7494 43.3162 15.3546 42.29 15.9334C40.6191 16.8807 38.8956 17.7096 37.08 18.3411C36.0801 18.6831 35.0802 19.0384 33.8698 18.9989Z" fill="#FDA732"/>
<path fill-rule="evenodd" clip-rule="evenodd" d="M18.9479 38.8333C18.9479 38.3731 18.5748 38 18.1146 38C17.6543 38 17.2812 38.3731 17.2812 38.8333V41.2852C17.2812 41.8374 16.8335 42.2852 16.2812 42.2852H13.8333C13.3731 42.2852 13 42.6583 13 43.1185C13 43.5787 13.3731 43.9518 13.8333 43.9518H16.2812C16.8335 43.9518 17.2812 44.3995 17.2812 44.9518V47.1667C17.2812 47.6269 17.6543 48 18.1146 48C18.5748 48 18.9479 47.6269 18.9479 47.1667V44.9518C18.9479 44.3995 19.3956 43.9518 19.9479 43.9518H22.1667C22.6269 43.9518 23 43.5787 23 43.1185C23 42.6583 22.6269 42.2852 22.1667 42.2852H19.9479C19.3956 42.2852 18.9479 41.8374 18.9479 41.2852V38.8333Z" fill="#30FF83"/>
<path fill-rule="evenodd" clip-rule="evenodd" d="M56.763 22.6667C56.763 22.2985 56.4645 22 56.0964 22C55.7282 22 55.4297 22.2985 55.4297 22.6667V24.4258C55.4297 24.9781 54.982 25.4258 54.4297 25.4258H52.6667C52.2985 25.4258 52 25.7243 52 26.0924C52 26.4606 52.2985 26.7591 52.6667 26.7591H54.4297C54.982 26.7591 55.4297 27.2068 55.4297 27.7591V29.3333C55.4297 29.7015 55.7282 30 56.0964 30C56.4645 30 56.763 29.7015 56.763 29.3333V27.7591C56.763 27.2068 57.2107 26.7591 57.763 26.7591H59.3333C59.7015 26.7591 60 26.4606 60 26.0924C60 25.7243 59.7015 25.4258 59.3333 25.4258H57.763C57.2107 25.4258 56.763 24.9781 56.763 24.4258V22.6667Z" fill="#30FF83"/>
<path fill-rule="evenodd" clip-rule="evenodd" d="M24.763 7.66667C24.763 7.29848 24.4645 7 24.0964 7C23.7282 7 23.4297 7.29848 23.4297 7.66667V9.42578C23.4297 9.97807 22.982 10.4258 22.4297 10.4258H20.6667C20.2985 10.4258 20 10.7243 20 11.0924C20 11.4606 20.2985 11.7591 20.6667 11.7591H22.4297C22.982 11.7591 23.4297 12.2068 23.4297 12.7591V14.3333C23.4297 14.7015 23.7282 15 24.0964 15C24.4645 15 24.763 14.7015 24.763 14.3333V12.7591C24.763 12.2068 25.2107 11.7591 25.763 11.7591H27.3333C27.7015 11.7591 28 11.4606 28 11.0924C28 10.7243 27.7015 10.4258 27.3333 10.4258H25.763C25.2107 10.4258 24.763 9.97807 24.763 9.42578V7.66667Z" fill="#30FF83"/>
<defs>
<filter id="filter0_f_8802_27823" x="0.632812" y="9.76562" width="35.0703" height="29.9727" filterUnits="userSpaceOnUse" colorInterpolationFilters="sRGB">
<feFlood floodOpacity="0" result="BackgroundImageFix"/>
<feBlend mode="normal" in="SourceGraphic" in2="BackgroundImageFix" result="shape"/>
<feGaussianBlur stdDeviation="3.5" result="effect1_foregroundBlur_8802_27823"/>
</filter>
<filter id="filter1_f_8802_27823" x="24.9766" y="0.207031" width="35.3281" height="29.6289" filterUnits="userSpaceOnUse" colorInterpolationFilters="sRGB">
<feFlood floodOpacity="0" result="BackgroundImageFix"/>
<feBlend mode="normal" in="SourceGraphic" in2="BackgroundImageFix" result="shape"/>
<feGaussianBlur stdDeviation="3.5" result="effect1_foregroundBlur_8802_27823"/>
</filter>
<filter id="filter2_f_8802_27823" x="22.9766" y="22.207" width="35.3281" height="29.6289" filterUnits="userSpaceOnUse" colorInterpolationFilters="sRGB">
<feFlood floodOpacity="0" result="BackgroundImageFix"/>
<feBlend mode="normal" in="SourceGraphic" in2="BackgroundImageFix" result="shape"/>
<feGaussianBlur stdDeviation="3.5" result="effect1_foregroundBlur_8802_27823"/>
</filter>
<linearGradient id="paint0_linear_8802_27823" x1="9" y1="26" x2="55" y2="26" gradientUnits="userSpaceOnUse">
<stop stop-color="#AD00FF"/>
<stop offset="1" stop-color="#9E00FF" stop-opacity="0"/>
</linearGradient>
</defs>
</svg>
