<svg width="33" height="33" viewBox="0 0 33 33" fill="none" xmlns="http://www.w3.org/2000/svg">
    <path d="M29.5 17C29.5 24.4558 23.4558 30.5 16 30.5C8.54416 30.5 2.5 24.4558 2.5 17C2.5 9.54416 8.54416 3.5 16 3.5C23.4558 3.5 29.5 9.54416 29.5 17Z" stroke="white"/>
    <path fill-rule="evenodd" clip-rule="evenodd" d="M13.3249 10H18.6751C21.0616 10 23 11.9384 23 14.3249V19.6751C23 22.0616 21.0616 24 18.6751 24H13.3249C10.9384 24 9 22.0616 9 19.6751V14.3249C9 11.9384 10.9384 10 13.3249 10ZM13.7071 11H18.2929C20.3385 11 22 12.6615 22 14.7071V19.2929C22 21.3385 20.3385 23 18.2929 23H13.7071C11.6615 23 10 21.3385 10 19.2929V14.7071C10 12.6615 11.6615 11 13.7071 11Z" fill="white"/>
    <path d="M15.8906 13.3945C13.9626 13.3945 12.3906 14.9665 12.3906 16.8945C12.3906 18.8225 13.9626 20.3945 15.8906 20.3945C17.8186 20.3945 19.3906 18.8225 19.3906 16.8945C19.3906 14.9665 17.8186 13.3945 15.8906 13.3945ZM15.8906 19.0197C14.7185 19.0197 13.7654 18.0667 13.7654 16.8945C13.7654 15.7224 14.7185 14.7693 15.8906 14.7693C17.0628 14.7693 18.0158 15.7224 18.0158 16.8945C18.0158 18.0667 17.0628 19.0197 15.8906 19.0197Z" fill="white"/>
    <path d="M19.6301 13.6024C19.9027 13.5582 20.0879 13.3014 20.0437 13.0289C19.9995 12.7563 19.7427 12.5711 19.4701 12.6153C19.1975 12.6595 19.0124 12.9163 19.0566 13.1889C19.1008 13.4615 19.3576 13.6466 19.6301 13.6024Z" fill="white"/>
</svg>