<svg width="46" height="46" viewBox="0 0 46 46" fill="none" xmlns="http://www.w3.org/2000/svg">
<g opacity="0.3">
<mask id="mask0_8756_27854" style="mask-type:alpha" maskUnits="userSpaceOnUse" x="7" y="10" width="32" height="26">
<path d="M12.3303 21.3731H9.94898C8.97324 21.3845 8.61654 21.5636 8.62604 22.4315V26.1357C8.62604 26.1357 10.4802 26.5201 10.4802 28.254C10.4802 30.1061 8.62604 30.6337 8.62604 30.6337C8.62604 30.6337 8.6237 33.278 8.62604 34.0733C8.62837 34.8687 8.89269 35.1333 9.94898 35.1317C11.0053 35.1301 32.4389 35.1317 32.4389 35.1317C33.7193 35.1084 34.0321 34.8821 34.0265 34.0733V30.6337C34.0265 30.6337 32.1764 30.1061 32.1764 28.254C32.1764 26.6665 34.0265 26.1357 34.0265 26.1357V24.8128M12.3303 21.3731H32.4389C33.6624 21.3388 33.9165 21.6386 34.0265 22.4315V24.8128M12.3303 21.3731L29.2639 11.3188C30.3155 10.6603 30.6614 10.7758 31.116 11.3188L32.9681 14.2293C32.9681 14.2293 31.3806 15.8182 32.4389 17.4058C33.4973 18.9934 35.3494 18.1981 35.3494 18.1981L36.9369 20.8439C37.5475 21.8183 37.5779 22.2934 36.6724 22.9606L34.0265 24.8128" stroke="#757575" stroke-width="1.4375"/>
<line x1="29.4609" y1="22.0938" x2="29.4609" y2="34.4148" stroke="#757575" stroke-width="1.4375" stroke-linecap="round" stroke-dasharray="2.88 4.31"/>
<line x1="27.0804" y1="13.1881" x2="31.1382" y2="20.4021" stroke="#757575" stroke-width="1.4375" stroke-linecap="round" stroke-dasharray="2.88 2.88"/>
</mask>
<g mask="url(#mask0_8756_27854)">
<rect x="6.40625" y="9.69141" width="32.5285" height="26.7198" fill="url(#paint0_linear_8756_27854)"/>
</g>
</g>
<defs>
<linearGradient id="paint0_linear_8756_27854" x1="38.9347" y1="9.69141" x2="6.40625" y2="36.4112" gradientUnits="userSpaceOnUse">
<stop stop-color="#B5FC5B"/>
<stop offset="1" stop-color="#066F55"/>
</linearGradient>
</defs>
</svg>
