<svg width="46" height="47" viewBox="0 0 46 47" fill="none" xmlns="http://www.w3.org/2000/svg">
<mask id="mask0_8588_72120" style="mask-type:alpha" maskUnits="userSpaceOnUse" x="9" y="14" width="28" height="20">
<path d="M32.8897 24.3746L35.6656 22.9866C35.7724 22.9333 35.8674 22.8592 35.9452 22.7687C36.0229 22.6782 36.0819 22.5731 36.1187 22.4596C36.1554 22.3461 36.1691 22.2264 36.1591 22.1075C36.1491 21.9886 36.1155 21.8729 36.0603 21.7672L33.2984 16.4779C33.1893 16.2692 33.0027 16.1115 32.7786 16.039C32.5545 15.9665 32.3108 15.9849 32.1002 16.0902L29.296 17.4923L32.8897 24.3746ZM32.8897 24.3746L31.0929 26.4767L26.9604 30.6092C26.8507 30.7189 26.7144 30.7983 26.5649 30.8397C26.4154 30.8811 26.2577 30.8831 26.1072 30.8455L19.5983 29.2183C19.4763 29.1878 19.362 29.1319 19.2628 29.0544L13.1241 24.2542M13.1241 24.2542L10.3482 22.8662C10.2415 22.8129 10.1465 22.7388 10.0687 22.6483C9.99091 22.5578 9.93194 22.4528 9.8952 22.3393C9.85847 22.2257 9.84471 22.106 9.85474 21.9872C9.86477 21.8683 9.89837 21.7526 9.9536 21.6468L12.7155 16.3576C12.8245 16.1488 13.0112 15.9912 13.2353 15.9186C13.4594 15.8461 13.703 15.8645 13.9137 15.9699L16.7179 17.3719L13.1241 24.2542Z" stroke="white" stroke-width="1.4375" stroke-linecap="round" stroke-linejoin="round"/>
<path d="M31.0892 26.4766L26.1478 22.8828L24.7103 23.9609C24.0883 24.4275 23.3317 24.6797 22.5541 24.6797C21.7765 24.6797 21.0199 24.4275 20.3978 23.9609L19.7891 23.5044C19.6861 23.4271 19.6009 23.3287 19.5393 23.2156C19.4777 23.1026 19.4411 22.9777 19.4319 22.8493C19.4228 22.7209 19.4414 22.592 19.4864 22.4714C19.5314 22.3509 19.6018 22.2413 19.6928 22.1503L24.0878 17.7553C24.1712 17.6719 24.2703 17.6057 24.3793 17.5606C24.4883 17.5154 24.6051 17.4922 24.7231 17.4922H29.2924" stroke="white" stroke-width="1.4375" stroke-linecap="round" stroke-linejoin="round"/>
<path d="M16.7754 17.3724L22.5389 15.6922C22.7448 15.6321 22.9654 15.6477 23.1607 15.7361L27.043 17.4928M21.2031 33.2154L17.8183 32.3692C17.681 32.3349 17.5537 32.2686 17.4468 32.1757L14.9141 29.9741" stroke="white" stroke-width="1.4375" stroke-linecap="round" stroke-linejoin="round"/>
</mask>
<g mask="url(#mask0_8588_72120)">
<rect x="1.72656" y="5.86328" width="40.25" height="35.65" fill="url(#paint0_linear_8588_72120)"/>
</g>
<defs>
<linearGradient id="paint0_linear_8588_72120" x1="21.8516" y1="5.86328" x2="21.8516" y2="41.5133" gradientUnits="userSpaceOnUse">
<stop stop-color="#CD4DE2"/>
<stop offset="1" stop-color="#6C1047"/>
</linearGradient>
</defs>
</svg>
