<svg width="20" height="20" viewBox="0 0 20 20" fill="none" xmlns="http://www.w3.org/2000/svg">
    <path d="M9.3375 3.92969H7L4 5.92969V12.9297H4.88125L7.19063 15.0359L8.29688 16.0484L9.7875 14.4172L10.4844 15.0578L11.5906 16.0703L12.9906 14.5422L14.0906 15.5484L16.1187 13.3359L15.0125 12.3234L10.8188 8.47969L7.80625 10.8234L7.4 11.1391L7.09688 10.7203L5.09688 7.97031L4.81875 7.58594L5.1875 7.28594L9.3375 3.92969ZM11.6531 7.83281L16 11.8297V5.92969H15.9781L15.8562 5.85156L12.8531 3.92969H10.9281L6.18437 7.77031L7.6 9.71719L11.6938 6.53281L12.0875 6.22656L12.7 7.01719L12.3062 7.32344L11.6531 7.82969V7.83281ZM3 5.92969H0V13.9297H3V5.92969ZM1.5 12.9297C1.225 12.9297 1 12.7047 1 12.4297C1 12.1547 1.225 11.9297 1.5 11.9297C1.775 11.9297 2 12.1547 2 12.4297C2 12.7047 1.775 12.9297 1.5 12.9297ZM17 5.92969V13.9297H20V5.92969H17ZM19 12.4297C19 12.7047 18.775 12.9297 18.5 12.9297C18.225 12.9297 18 12.7047 18 12.4297C18 12.1547 18.225 11.9297 18.5 11.9297C18.775 11.9297 19 12.1547 19 12.4297Z" fill="#615F77"/>
</svg>
