<svg width="65" height="46" viewBox="0 0 65 46" fill="none" xmlns="http://www.w3.org/2000/svg">
<circle cx="32" cy="23" r="22.5" fill="#0D101B" stroke="url(#paint0_linear_8802_27822)"/>
<mask id="mask0_8802_27822" style="mask-type:alpha" maskUnits="userSpaceOnUse" x="0" y="0" width="65" height="46">
<mask id="path-2-inside-1_8802_27822" fill="white">
<path fill-rule="evenodd" clip-rule="evenodd" d="M53.5755 30.9864C50.3296 39.7521 41.8944 46 32 46C20.5549 46 11.0622 37.6403 9.29505 26.6939C3.97032 25.4672 0 20.6973 0 15C0 8.37258 5.37258 3 12 3C14.2302 3 16.3183 3.60839 18.1074 4.66825C21.9672 1.73859 26.7805 0 32 0C38.7994 0 44.9097 2.95048 49.1205 7.64097C50.3374 7.22546 51.6424 7 53 7C59.6274 7 65 12.3726 65 19C65 25.4345 59.9357 30.6861 53.5755 30.9864Z"/>
</mask>
<path fill-rule="evenodd" clip-rule="evenodd" d="M53.5755 30.9864C50.3296 39.7521 41.8944 46 32 46C20.5549 46 11.0622 37.6403 9.29505 26.6939C3.97032 25.4672 0 20.6973 0 15C0 8.37258 5.37258 3 12 3C14.2302 3 16.3183 3.60839 18.1074 4.66825C21.9672 1.73859 26.7805 0 32 0C38.7994 0 44.9097 2.95048 49.1205 7.64097C50.3374 7.22546 51.6424 7 53 7C59.6274 7 65 12.3726 65 19C65 25.4345 59.9357 30.6861 53.5755 30.9864Z" fill="#0D101B"/>
<path d="M53.5755 30.9864L53.5284 29.9876L52.8675 30.0188L52.6378 30.6392L53.5755 30.9864ZM9.29505 26.6939L10.2823 26.5345L10.1751 25.8704L9.51955 25.7194L9.29505 26.6939ZM18.1074 4.66825L17.5977 5.52861L18.1763 5.87138L18.712 5.46479L18.1074 4.66825ZM49.1205 7.64097L48.3763 8.309L48.8179 8.80095L49.4436 8.58733L49.1205 7.64097ZM32 47C42.3262 47 51.1268 40.479 54.5133 31.3337L52.6378 30.6392C49.5324 39.0253 41.4627 45 32 45V47ZM8.30784 26.8533C10.152 38.2764 20.0563 47 32 47V45C21.0534 45 11.9725 37.0042 10.2823 26.5345L8.30784 26.8533ZM-1 15C-1 21.1733 3.30199 26.3394 9.07056 27.6684L9.51955 25.7194C4.63866 24.595 1 20.2212 1 15H-1ZM12 2C4.8203 2 -1 7.8203 -1 15H1C1 8.92487 5.92487 4 12 4V2ZM18.6171 3.80789C16.6779 2.65914 14.4144 2 12 2V4C14.046 4 15.9587 4.55764 17.5977 5.52861L18.6171 3.80789ZM32 -1C26.5547 -1 21.5304 0.814643 17.5028 3.87171L18.712 5.46479C22.4039 2.66255 27.0064 1 32 1V-1ZM49.8646 6.97295C45.4722 2.0801 39.0951 -1 32 -1V1C38.5037 1 44.3472 3.82085 48.3763 8.309L49.8646 6.97295ZM49.4436 8.58733C50.5579 8.20686 51.7537 8 53 8V6C51.531 6 50.1169 6.24405 48.7973 6.69462L49.4436 8.58733ZM53 8C59.0751 8 64 12.9249 64 19H66C66 11.8203 60.1797 6 53 6V8ZM64 19C64 24.898 59.3577 29.7123 53.5284 29.9876L53.6227 31.9853C60.5137 31.6599 66 25.971 66 19H64Z" fill="url(#paint1_linear_8802_27822)" mask="url(#path-2-inside-1_8802_27822)"/>
</mask>
<g mask="url(#mask0_8802_27822)">
<g filter="url(#filter0_f_8802_27822)">
<path d="M51.2676 16.5473C50.8314 20.3864 50.404 24.2119 49.9678 28.0509C49.7024 30.3482 49.437 32.6454 49.1828 34.9402C48.8896 37.4884 48.5988 40.0478 48.3056 42.596C48.1475 43.9251 47.4146 44.8059 46.2965 45.0343C45.9841 45.1013 45.6725 45.0632 45.3608 45.0251C41.8795 44.6292 38.3981 44.2332 34.9168 43.8373C33.0518 43.631 31.1931 43.4 29.3393 43.1913C27.7835 43.012 27.1218 42.4306 26.7961 40.9137C26.7307 40.7178 26.7705 40.5225 26.7967 40.3185C27.159 37.1138 27.5237 33.9201 27.8884 30.7265C28.0036 29.6867 28.1076 28.6492 28.2204 27.5982C28.1846 27.5942 28.1511 27.6014 28.1288 27.6062C28.3363 26.1265 28.472 24.6389 28.6325 23.1576C28.7143 22.4516 28.8073 21.7433 28.9027 21.046C28.9091 21.0213 28.9131 20.9855 28.9083 20.9632C28.9378 20.9918 28.9697 21.0317 28.9992 21.0603C29.267 18.7743 29.5212 16.4794 29.789 14.1934C29.8946 13.2723 30.3017 12.6131 31.01 12.216C31.0212 12.2136 31.03 12.2001 31.0411 12.1977C31.061 12.1817 31.0945 12.1745 31.1144 12.1586C31.3567 12.0366 31.6826 11.9783 32.0046 11.9558C32.3019 11.927 32.5951 11.934 32.8661 11.9458C33.1395 11.9688 33.4264 12.0006 33.7022 12.0347C35.3026 12.2044 36.8855 12.4013 38.4771 12.5846C41.9226 12.9766 45.3569 13.371 48.8 13.7518C49.876 13.8708 50.6747 14.3294 51.1166 15.3546C51.3032 15.7346 51.3089 16.1418 51.2676 16.5473Z" fill="#ECECEC"/>
<path d="M28.1194 27.6183C28.1417 27.6135 28.1752 27.6063 28.2111 27.6103C28.0959 28.6501 27.9918 29.6876 27.879 30.7386C27.5167 33.9434 27.152 37.137 26.7873 40.3306C26.7699 40.5211 26.7213 40.7298 26.7868 40.9258C26.6058 40.7897 26.6456 40.5944 26.6654 40.4151C27.069 36.6414 27.5331 32.8781 27.9478 29.102C27.9907 28.6494 28.0806 28.1984 28.1099 27.737C28.1139 27.7012 28.1179 27.6653 28.1194 27.6183Z" fill="#ECECEC"/>
<path d="M31.8534 11.1822C31.8822 11.3161 31.9085 11.4388 31.9372 11.5726C31.942 11.5949 31.9492 11.6284 31.954 11.6507C31.974 11.7981 31.9103 11.8818 31.723 11.9337C31.5022 11.9927 31.3086 12.0693 31.1285 12.1546C31.1086 12.1706 31.0751 12.1778 31.0552 12.1937C31.044 12.1961 31.0353 12.2097 31.0241 12.2121C30.3158 12.6092 29.9 13.2819 29.803 14.1894C29.5353 16.4755 29.281 18.7703 29.0133 21.0564C28.9838 21.0277 28.9519 20.9879 28.9224 20.9592C28.9287 20.9345 28.9239 20.9122 28.9303 20.8875C29.1694 18.6309 29.395 16.3656 29.6922 14.1082C29.8059 13.2787 30.1683 12.6292 30.8026 12.213C30.9866 12.0918 31.1954 11.9769 31.4337 11.8908C31.7899 11.7559 31.8368 11.5942 31.765 11.2596C31.6836 10.8803 31.477 10.5163 31.6323 10.0979C31.6706 10.2764 31.7305 10.5552 31.7951 10.8564C31.8079 10.9703 31.8319 11.0819 31.8534 11.1822Z" fill="#ECECEC"/>
<path d="M31.6205 10.1128C31.6589 10.2912 31.7187 10.5701 31.7834 10.8712L31.8504 11.1835C31.884 11.3397 31.9175 11.4958 31.951 11.652C31.975 11.7635 31.9965 11.8639 32.0157 11.9531C31.6937 11.9756 31.3702 12.0451 31.1255 12.1559C31.1056 12.1719 31.0721 12.1791 31.0522 12.195C31.0411 12.1974 31.0323 12.2109 31.0211 12.2133C30.3128 12.6105 29.897 13.2831 29.8001 14.1907C29.5323 16.4768 29.2781 18.7716 29.0103 21.0577C28.9808 21.029 28.9489 20.9892 28.9194 20.9605C28.5152 20.5456 28.142 20.1123 27.6143 19.8289C26.6243 19.2947 25.6248 19.2059 24.6623 19.8327C23.9149 20.3198 23.5494 21.0634 23.4477 21.9487C23.4238 22.1638 23.5068 22.496 23.2614 22.5487C23.0048 22.6038 22.964 22.2509 22.8563 22.0756C22.5087 21.5435 22.0973 21.0952 21.5026 20.8261C20.0925 20.1838 18.4375 21.0642 17.8347 22.4421C17.0431 24.2456 17.3976 26.0596 18.7737 27.4677C19.8978 28.6265 21.2737 29.3812 22.7284 30.0139C23.3207 30.2718 23.932 30.4556 24.5282 30.6776C24.9331 30.824 25.2001 30.7083 25.4829 30.4493C26.3402 29.6585 27.152 28.8191 27.8642 27.8961C27.9367 27.7988 27.9909 27.6705 28.1223 27.6306C28.1447 27.6258 28.1781 27.6187 28.214 27.6226C28.0988 28.6625 27.9948 29.6999 27.882 30.7509C27.5197 33.9557 27.155 37.1493 26.7903 40.343C26.7728 40.5334 26.7243 40.7422 26.7897 40.9382C24.2682 41.4795 21.7579 42.0185 19.2365 42.5599C17.6609 42.8866 16.3871 42.0633 16.0446 40.4683C14.2197 31.9692 12.3925 23.4589 10.5652 14.9487C10.2251 13.3649 11.0376 12.0936 12.633 11.7511C17.9883 10.6012 23.3437 9.45134 28.699 8.30148C29.982 8.02599 31.1961 8.73375 31.5774 9.912C31.5918 9.97892 31.6062 10.0458 31.6205 10.1128Z" fill="#DADADA"/>
<path d="M28.2203 27.6108C27.3544 28.7418 26.4024 29.798 25.3164 30.7196C25.1881 30.8288 25.0846 30.9444 24.8709 30.8736C22.675 30.2133 20.5834 29.3322 18.8845 27.7251C17.2605 26.1953 16.8533 24.1358 17.7764 22.2925C18.5688 20.7105 20.3411 20.05 21.744 20.8222C22.3913 21.1732 22.8243 21.722 23.1513 22.3752C23.1744 22.4286 23.2063 22.4684 23.2406 22.5194C23.243 22.5305 23.2653 22.5257 23.3123 22.5273C23.3159 21.5114 23.5874 20.6014 24.3698 19.8967C24.8008 19.5124 25.3244 19.3417 25.8854 19.2912C27.0633 19.1783 28.5659 20.0341 29.019 21.057C28.779 23.0921 28.5478 25.1136 28.3078 27.1486C28.2832 27.3056 28.2474 27.465 28.2203 27.6108Z" fill="#F24624"/>
<path d="M39.4663 30.7678C39.39 31.3909 39.3288 31.9758 39.2541 32.5519C39.2239 32.7917 39.3913 32.7558 39.5236 32.774C40.0392 32.8383 40.5637 32.8891 41.0929 32.9621C41.6938 33.0431 42.0327 33.4254 41.9707 33.9521C41.9063 34.4677 41.4809 34.769 40.8823 34.6992C39.1855 34.5151 37.4974 34.3175 35.8093 34.1199C35.1996 34.0525 34.8607 33.6702 34.9116 33.1459C34.9648 32.6328 35.4014 32.329 35.9976 32.3877C36.5109 32.4408 37.0106 32.4852 37.5175 32.563C37.7462 32.5956 37.8578 32.5716 37.8697 32.3007C37.9014 31.8505 37.9666 31.3932 38.023 30.9493C38.0389 30.8059 38.0524 30.6513 37.846 30.7773C36.956 31.3068 36.0976 31.2227 35.3012 30.612C34.4075 29.9288 34.0318 28.9943 34.1191 27.8788C34.2175 26.5976 34.9065 25.6212 35.8236 24.7826C36.8976 23.8052 38.1685 23.1473 39.5152 22.6248C39.6332 22.5761 39.7224 22.5569 39.8332 22.6382C41.5201 23.8628 43.0786 25.1967 43.8301 27.2289C44.5002 29.0452 43.3693 31.2249 41.5993 31.5699C40.7354 31.7321 40.0555 31.4464 39.4663 30.7678Z" fill="#2C3642"/>
<path d="M32.8559 17.1264C32.0566 17.2631 31.7306 17.158 31.4347 16.6498C31.1413 16.1528 31.204 15.5209 31.6238 14.9757C32.0787 14.3763 32.705 14.0318 33.3927 13.7558C33.4995 13.7096 33.5975 13.6769 33.7107 13.7692C34.4051 14.2852 35.0397 14.849 35.3157 15.6999C35.512 16.2878 35.1958 17.0441 34.6715 17.32C34.2715 17.5226 33.9599 17.4845 33.5302 17.1683C33.4593 17.2186 33.4673 17.3102 33.4506 17.3955C33.3112 17.8338 33.4906 18.0169 33.929 17.9928C34.0453 17.9912 34.1553 18.0142 34.2653 18.0373C34.4518 18.0906 34.5523 18.2324 34.5237 18.4252C34.495 18.618 34.3739 18.7607 34.1811 18.7321C33.4056 18.6536 32.6277 18.5639 31.8586 18.4607C31.6545 18.4345 31.5827 18.2632 31.6002 18.0728C31.6288 17.88 31.7571 17.7707 31.954 17.7635C32.0345 17.7579 32.1197 17.7746 32.205 17.7912C32.857 17.838 32.857 17.838 32.8559 17.1264Z" fill="#2C3642"/>
<path d="M44.3198 41.75C43.8799 41.9844 43.4655 41.9568 43.1091 41.6016C42.7232 41.2177 42.6314 40.7357 42.7898 40.2233C42.9889 39.5738 43.4685 39.1441 44.0438 38.8339C45.1833 38.2159 44.9458 38.1969 45.8729 39.0363C46.3218 39.4416 46.6886 39.8996 46.8004 40.529C46.8882 41.0468 46.7266 41.4899 46.3465 41.8399C45.9665 42.1898 45.5704 42.1932 44.9279 41.8644C44.92 41.9362 44.9232 42.0055 44.9017 42.0684C44.7887 42.4661 44.8724 42.6931 45.3418 42.6507C45.4223 42.645 45.5076 42.6617 45.5929 42.6784C45.824 42.7221 46.009 42.8224 45.9636 43.1005C45.9135 43.3563 45.7422 43.4281 45.4911 43.4004C44.8184 43.3114 44.1394 43.2472 43.4579 43.1718C43.2069 43.1441 43.0108 43.0462 43.0513 42.7458C43.0855 42.4701 43.2863 42.4269 43.5238 42.4459C43.5485 42.4523 43.5844 42.4563 43.6091 42.4626C44.3328 42.5173 44.3328 42.5173 44.3198 41.75Z" fill="#2C3642"/>
<path d="M13.8866 13.862C14.2076 13.1281 14.5247 12.92 15.0237 13.0695C15.5585 13.223 15.9476 13.8396 15.8331 14.4476C15.6811 15.2619 15.1362 15.8223 14.5506 16.3564C14.4446 16.4609 14.3362 16.3908 14.235 16.3542C13.6954 16.1783 13.1773 15.9396 12.7356 15.5677C12.4343 15.3057 12.2397 14.9974 12.2093 14.5839C12.1684 14.0676 12.3994 13.6213 12.7954 13.4546C13.256 13.2624 13.5852 13.4367 13.8866 13.862Z" fill="#F24624"/>
</g>
<path d="M55.1953 15.9584C54.6753 20.5352 54.1657 25.0958 53.6457 29.6726C53.3293 32.4112 53.0129 35.1498 52.7098 37.8856C52.3603 40.9235 52.0136 43.9747 51.6641 47.0125C51.4756 48.597 50.6018 49.6471 49.2689 49.9193C48.8965 49.9993 48.5249 49.9539 48.1534 49.9085C44.0031 49.4364 39.8528 48.9644 35.7025 48.4923C33.4791 48.2464 31.2633 47.971 29.0532 47.7222C27.1985 47.5084 26.4096 46.8154 26.0214 45.007C25.9434 44.7734 25.9908 44.5406 26.0221 44.2975C26.454 40.4768 26.8887 36.6695 27.3235 32.8622C27.4609 31.6226 27.5849 30.3858 27.7194 29.1328C27.6766 29.1281 27.6367 29.1367 27.6101 29.1424C27.8575 27.3783 28.0193 25.6048 28.2106 23.8389C28.3082 22.9973 28.4191 22.1528 28.5328 21.3216C28.5404 21.2921 28.5451 21.2494 28.5394 21.2228C28.5746 21.257 28.6126 21.3045 28.6478 21.3386C28.967 18.6133 29.2701 15.8775 29.5893 13.1522C29.7153 12.054 30.2005 11.2683 31.045 10.7948C31.0583 10.792 31.0688 10.7758 31.0821 10.773C31.1058 10.754 31.1457 10.7454 31.1695 10.7264C31.4583 10.5809 31.8468 10.5114 32.2307 10.4846C32.5851 10.4502 32.9347 10.4586 33.2578 10.4727C33.5837 10.5001 33.9257 10.538 34.2545 10.5787C36.1624 10.781 38.0495 11.0157 39.9469 11.2342C44.0545 11.7016 48.1488 12.1717 52.2535 12.6258C53.5362 12.7676 54.4884 13.3143 55.0152 14.5366C55.2377 14.9896 55.2445 15.4749 55.1953 15.9584Z" fill="#ECECEC"/>
<path d="M27.6003 29.1567C27.6269 29.1509 27.6668 29.1424 27.7096 29.1471C27.5722 30.3868 27.4482 31.6236 27.3137 32.8765C26.8818 36.6971 26.447 40.5044 26.0123 44.3118C25.9914 44.5388 25.9336 44.7877 26.0116 45.0213C25.7958 44.859 25.8433 44.6262 25.8669 44.4125C26.348 39.9137 26.9013 35.4271 27.3957 30.9254C27.4468 30.3859 27.554 29.8482 27.589 29.2982C27.5937 29.2555 27.5984 29.2127 27.6003 29.1567Z" fill="#ECECEC"/>
<path d="M32.0486 9.56283C32.0829 9.7224 32.1143 9.86866 32.1486 10.0282C32.1543 10.0548 32.1628 10.0947 32.1685 10.1213C32.1924 10.297 32.1164 10.3968 31.8931 10.4586C31.63 10.5291 31.3991 10.6204 31.1844 10.7221C31.1607 10.7411 31.1208 10.7497 31.097 10.7687C31.0837 10.7715 31.0733 10.7877 31.06 10.7905C30.2155 11.264 29.7198 12.0659 29.6043 13.1479C29.285 15.8732 28.9819 18.609 28.6627 21.3344C28.6275 21.3002 28.5895 21.2527 28.5544 21.2185C28.5619 21.1891 28.5562 21.1625 28.5638 21.133C28.8489 18.4428 29.1178 15.7422 29.4722 13.051C29.6077 12.0622 30.0397 11.2878 30.7958 10.7916C31.0153 10.6471 31.2642 10.5102 31.5482 10.4075C31.9729 10.2468 32.0289 10.0539 31.9432 9.65502C31.8461 9.20292 31.5999 8.76895 31.785 8.27017C31.8307 8.48292 31.9021 8.81535 31.9791 9.17437C31.9944 9.31019 32.0229 9.44316 32.0486 9.56283Z" fill="#ECECEC"/>
<path d="M31.7751 8.28698C31.8208 8.49973 31.8921 8.83215 31.9692 9.19117L32.0492 9.56348C32.0891 9.74964 32.1291 9.9358 32.1691 10.122C32.1976 10.2549 32.2233 10.3746 32.2462 10.481C31.8623 10.5077 31.4766 10.5906 31.185 10.7227C31.1612 10.7417 31.1213 10.7503 31.0976 10.7693C31.0843 10.7722 31.0738 10.7883 31.0605 10.7912C30.216 11.2646 29.7203 12.0666 29.6048 13.1485C29.2856 15.8739 28.9825 18.6097 28.6632 21.335C28.6281 21.3008 28.59 21.2533 28.5549 21.2192C28.073 20.7245 27.6282 20.208 26.999 19.8701C25.8188 19.2333 24.6273 19.1275 23.4798 19.8746C22.5888 20.4554 22.153 21.3419 22.0317 22.3972C22.0033 22.6537 22.1023 23.0498 21.8096 23.1126C21.5037 23.1783 21.4551 22.7575 21.3268 22.5486C20.9123 21.9143 20.4218 21.3797 19.7129 21.059C18.0319 20.2932 16.0588 21.3428 15.3402 22.9855C14.3965 25.1355 14.8191 27.2982 16.4596 28.9768C17.7998 30.3582 19.44 31.2579 21.1743 32.0123C21.8803 32.3197 22.6091 32.5388 23.3199 32.8035C23.8027 32.978 24.1209 32.8401 24.4581 32.5313C25.4801 31.5885 26.4479 30.5878 27.297 29.4875C27.3834 29.3716 27.4479 29.2186 27.6047 29.171C27.6313 29.1653 27.6712 29.1568 27.7139 29.1615C27.5766 30.4011 27.4526 31.6379 27.3181 32.8909C26.8862 36.7115 26.4514 40.5188 26.0166 44.3261C25.9958 44.5532 25.9379 44.8021 26.0159 45.0357C23.01 45.6811 20.0173 46.3237 17.0113 46.9691C15.133 47.3585 13.6144 46.377 13.2061 44.4756C11.0306 34.3433 8.85219 24.1977 6.67379 14.0521C6.26837 12.164 7.23697 10.6485 9.13898 10.2401C15.5234 8.86926 21.9077 7.49845 28.2921 6.12764C29.8217 5.79921 31.269 6.64297 31.7237 8.04763C31.7408 8.12741 31.7579 8.20719 31.7751 8.28698Z" fill="#DADADA"/>
<path d="M27.7213 29.1457C26.6889 30.4941 25.554 31.7532 24.2593 32.8519C24.1064 32.9821 23.9829 33.1199 23.7283 33.0355C21.1104 32.2483 18.6169 31.1979 16.5915 29.282C14.6555 27.4582 14.17 25.003 15.2705 22.8054C16.2152 20.9195 18.328 20.132 20.0005 21.0526C20.7722 21.4711 21.2883 22.1254 21.6782 22.9041C21.7057 22.9677 21.7438 23.0152 21.7846 23.076C21.7875 23.0893 21.8141 23.0835 21.8701 23.0854C21.8745 21.8743 22.1981 20.7894 23.1308 19.9493C23.6447 19.4912 24.2688 19.2876 24.9377 19.2275C26.3419 19.0929 28.1333 20.1132 28.6734 21.3326C28.3873 23.7587 28.1117 26.1686 27.8256 28.5948C27.7962 28.7819 27.7535 28.9719 27.7213 29.1457Z" fill="#F24624"/>
<path d="M41.1331 32.9099C41.0421 33.6528 40.9692 34.35 40.8802 35.0368C40.8441 35.3228 41.0437 35.2799 41.2014 35.3017C41.8161 35.3783 42.4414 35.4388 43.0723 35.5259C43.7887 35.6225 44.1927 36.0782 44.1188 36.7061C44.042 37.3208 43.5348 37.68 42.8212 37.5968C40.7983 37.3774 38.7859 37.1418 36.7734 36.9062C36.0465 36.8258 35.6426 36.3701 35.7032 35.745C35.7666 35.1333 36.2871 34.7711 36.9979 34.8411C37.6098 34.9044 38.2055 34.9573 38.8098 35.0501C39.0825 35.089 39.2155 35.0604 39.2297 34.7374C39.2675 34.2007 39.3452 33.6555 39.4125 33.1264C39.4314 32.9554 39.4475 32.7711 39.2015 32.9213C38.1404 33.5525 37.1171 33.4523 36.1677 32.7242C35.1023 31.9097 34.6544 30.7957 34.7584 29.4658C34.8757 27.9384 35.6972 26.7744 36.7904 25.7746C38.0708 24.6094 39.586 23.8251 41.1914 23.2022C41.332 23.1441 41.4385 23.1213 41.5706 23.2181C43.5815 24.6781 45.4396 26.2683 46.3355 28.691C47.1343 30.8563 45.7861 33.4549 43.676 33.8662C42.6461 34.0595 41.8355 33.7189 41.1331 32.9099Z" fill="#2C3642"/>
<path d="M33.2498 16.6491C32.2969 16.812 31.9082 16.6868 31.5555 16.0809C31.2056 15.4884 31.2804 14.7351 31.7809 14.0851C32.3232 13.3706 33.0699 12.9599 33.8897 12.6308C34.017 12.5757 34.1339 12.5367 34.2688 12.6468C35.0966 13.2619 35.8531 13.9341 36.1822 14.9484C36.4162 15.6493 36.0393 16.5509 35.4142 16.8799C34.9374 17.1214 34.5659 17.076 34.0536 16.6991C33.9691 16.759 33.9786 16.8682 33.9587 16.9699C33.7926 17.4924 34.0065 17.7107 34.529 17.682C34.6677 17.68 34.7989 17.7075 34.93 17.735C35.1523 17.7985 35.2721 17.9676 35.238 18.1974C35.2039 18.4273 35.0595 18.5974 34.8296 18.5633C33.9051 18.4697 32.9777 18.3628 32.0608 18.2398C31.8175 18.2085 31.7319 18.0044 31.7528 17.7773C31.7869 17.5474 31.9398 17.4172 32.1745 17.4086C32.2705 17.4019 32.3721 17.4218 32.4738 17.4417C33.251 17.4974 33.251 17.4974 33.2498 16.6491Z" fill="#2C3642"/>
<path d="M46.9125 46.0017C46.3881 46.2812 45.8941 46.2482 45.4692 45.8247C45.0092 45.3671 44.8997 44.7925 45.0886 44.1816C45.3258 43.4074 45.8976 42.8951 46.5835 42.5253C47.9419 41.7885 47.6588 41.7658 48.7641 42.7665C49.2992 43.2497 49.7365 43.7957 49.8697 44.546C49.9745 45.1634 49.7818 45.6916 49.3287 46.1088C48.8757 46.526 48.4034 46.5301 47.6375 46.1381C47.628 46.2236 47.6319 46.3062 47.6062 46.3813C47.4715 46.8554 47.5713 47.126 48.1309 47.0754C48.2269 47.0687 48.3286 47.0886 48.4303 47.1085C48.7058 47.1606 48.9263 47.2802 48.8722 47.6117C48.8125 47.9167 48.6082 48.0023 48.3089 47.9692C47.507 47.8632 46.6975 47.7866 45.8851 47.6967C45.5858 47.6636 45.352 47.5469 45.4003 47.1888C45.4411 46.8601 45.6805 46.8087 45.9636 46.8314C45.9931 46.8389 46.0358 46.8437 46.0653 46.8513C46.928 46.9164 46.928 46.9164 46.9125 46.0017Z" fill="#2C3642"/>
<path d="M10.635 12.7558C11.0176 11.8808 11.3957 11.6327 11.9905 11.811C12.6281 11.9941 13.092 12.729 12.9555 13.4539C12.7743 14.4247 12.1247 15.0928 11.4265 15.7295C11.3002 15.854 11.171 15.7705 11.0503 15.7269C10.407 15.5172 9.7893 15.2326 9.26277 14.7892C8.90352 14.4769 8.67156 14.1094 8.63528 13.6164C8.58661 13.0009 8.86196 12.4689 9.3341 12.2701C9.8832 12.0409 10.2757 12.2488 10.635 12.7558Z" fill="#F24624"/>
</g>
<path d="M38.0567 5.44465C38.8386 4.89625 39.2905 4.88097 39.7059 5.34262C40.1553 5.83054 40.1693 6.69958 39.6757 7.24765C39.0161 7.98268 38.1137 8.21543 37.1863 8.39622C37.0137 8.43685 36.9467 8.29829 36.8663 8.19826C36.4259 7.68465 36.0463 7.12027 35.8272 6.46776C35.6828 6.01415 35.6758 5.57962 35.9012 5.1397C36.1797 4.58868 36.6916 4.27743 37.1982 4.35323C37.7864 4.44305 38.0135 4.82468 38.0567 5.44465Z" fill="#F24624"/>
<path d="M8.10775 40.0879C7.98918 39.1402 8.18724 38.7337 8.78962 38.5828C9.43116 38.4141 10.2056 38.8086 10.4589 39.5013C10.7996 40.4283 10.5828 41.3346 10.3084 42.2388C10.2635 42.4104 10.1097 42.4046 9.9837 42.4288C9.32366 42.5776 8.64726 42.6488 7.96809 42.537C7.49964 42.4522 7.1124 42.255 6.82917 41.8499C6.47265 41.3458 6.43725 40.7477 6.7414 40.3355C7.09613 39.8578 7.53969 39.8358 8.10775 40.0879Z" fill="#F24624"/>
<path d="M48.7826 38.7418C50.2619 37.7172 51.1136 37.6934 51.8911 38.5679C52.7324 39.4922 52.7492 41.1299 51.813 42.1571C50.562 43.5348 48.8592 43.9633 47.1096 44.2936C46.7839 44.3683 46.6593 44.1065 46.5089 43.9171C45.6847 42.9444 44.9758 41.8768 44.5702 40.6449C44.3031 39.7885 44.2947 38.9697 44.7243 38.1433C45.2552 37.1081 46.2232 36.5273 47.177 36.6758C48.2843 36.8515 48.708 37.5732 48.7826 38.7418Z" fill="#F24624"/>
<defs>
<filter id="filter0_f_8802_27822" x="3.49219" y="1.24219" width="54.7969" height="50.8281" filterUnits="userSpaceOnUse" colorInterpolationFilters="sRGB">
<feFlood floodOpacity="0" result="BackgroundImageFix"/>
<feBlend mode="normal" in="SourceGraphic" in2="BackgroundImageFix" result="shape"/>
<feGaussianBlur stdDeviation="3.5" result="effect1_foregroundBlur_8802_27822"/>
</filter>
<linearGradient id="paint0_linear_8802_27822" x1="9" y1="23" x2="55" y2="23" gradientUnits="userSpaceOnUse">
<stop stop-color="#FEC781"/>
<stop offset="1" stop-color="#FEC781" stop-opacity="0"/>
</linearGradient>
<linearGradient id="paint1_linear_8802_27822" x1="41" y1="19" x2="65" y2="19" gradientUnits="userSpaceOnUse">
<stop stop-color="#FEC781"/>
<stop offset="1" stop-color="#FEC781" stop-opacity="0"/>
</linearGradient>
</defs>
</svg>
