<svg width="46" height="46" viewBox="0 0 46 46" fill="none" xmlns="http://www.w3.org/2000/svg">
<path d="M23.1273 24.7859C27.59 24.7859 31.2078 21.1681 31.2078 16.7054C31.2078 12.2427 27.59 8.625 23.1273 8.625C18.6646 8.625 15.0469 12.2427 15.0469 16.7054C15.0469 21.1681 18.6646 24.7859 23.1273 24.7859Z" stroke="#E1A860" stroke-width="1.4375" stroke-linecap="round" stroke-linejoin="round"/>
<path fill-rule="evenodd" clip-rule="evenodd" d="M13.6985 25.5399C13.6985 25.5399 16.577 28.8848 19.4168 29.9563C22.2711 31.0333 24.443 31.0163 27.2263 29.7674C29.7827 28.6203 32.3015 25.5391 32.3015 25.5391C37.375 28.9212 37.375 37.3773 37.375 37.3773H8.625C8.625 37.3773 8.625 28.0756 13.6985 25.5399Z" stroke="#E1A860" stroke-width="1.4375" stroke-linecap="round" stroke-linejoin="round"/>
</svg>
