<svg width="46" height="46" viewBox="0 0 46 46" fill="none" xmlns="http://www.w3.org/2000/svg">
<path d="M28.8537 7.1875L27.7048 9.23478L28.6445 9.78648L29.7934 7.7392L28.8537 7.1875ZM32.2754 9.70229L30.6475 11.3751L31.4159 12.155L33.0439 10.4822L32.2744 9.70118L32.2754 9.70229ZM23.4052 9.72112C23.3201 9.72566 23.2373 9.75071 23.1635 9.79424L21.1713 10.9763C21.1097 11.0128 21.0557 11.0615 21.0124 11.1194C20.969 11.1773 20.9373 11.2434 20.9188 11.3139C20.9004 11.3844 20.8957 11.4578 20.905 11.5301C20.9143 11.6024 20.9374 11.6721 20.973 11.7352L21.2526 12.2337C21.2547 12.2378 21.2569 12.2418 21.2591 12.2459C21.724 13.0683 21.8508 14.0456 21.6119 14.9634C21.373 15.8813 20.7877 16.6649 19.9845 17.1425L17.8352 18.4165L15.0031 20.096L14.5435 20.3708H14.5414C14.5285 20.3769 14.5158 20.3835 14.5034 20.3907L13.5084 20.9812L11.0188 22.459C10.4994 22.7703 10.121 23.2783 9.96575 23.873C9.81051 24.4676 9.89098 25.1008 10.1897 25.6352L10.2081 25.6706L9.17951 26.2799C8.92505 26.434 8.73975 26.6837 8.66337 26.9757C8.58698 27.2678 8.62558 27.5787 8.7709 27.842L9.92304 29.8893C10.2265 30.431 10.9202 30.6227 11.4491 30.3091L12.4734 29.7032L12.4885 29.7298C12.7387 30.1701 13.1239 30.514 13.5845 30.7083C14.0451 30.9025 14.5554 30.9363 15.0367 30.8044L17.2889 38.4861C17.3096 38.5569 17.3423 38.6197 17.3853 38.6709C17.4282 38.7222 17.4806 38.7609 17.5394 38.7847C17.5982 38.8086 17.6622 38.8172 17.7279 38.8101C17.7935 38.8029 17.8594 38.7802 17.9219 38.7431L21.4174 36.6715C21.5432 36.5962 21.6471 36.4674 21.7063 36.3134C21.7654 36.1595 21.775 35.993 21.7328 35.8505L19.5076 28.2597L19.5726 28.2209L22.4058 26.5403L24.5551 25.2663C24.951 25.0307 25.3886 24.8777 25.8427 24.8161C26.2968 24.7545 26.7583 24.7855 27.2006 24.9074C27.6429 25.0293 28.0571 25.2396 28.4194 25.5261C28.7817 25.8127 29.0847 26.1698 29.3111 26.5768L29.5994 27.0898C29.671 27.217 29.7889 27.3098 29.9273 27.3479C30.0656 27.3859 30.2132 27.366 30.3375 27.2925L32.3296 26.1093C32.454 26.0358 32.5448 25.9146 32.5822 25.7725C32.6196 25.6304 32.6005 25.479 32.5291 25.3516L30.1836 21.175C31.7313 19.9398 32.2104 17.6909 31.2035 15.9017C30.7222 15.0492 29.9548 14.4041 29.0435 14.0861C28.1322 13.7681 27.139 13.7988 26.2481 14.1724L23.9026 9.99808C23.8529 9.90921 23.78 9.83628 23.6922 9.78739C23.6044 9.7385 23.505 9.71556 23.4052 9.72112ZM23.2339 11.035L25.5458 15.1495C25.5475 15.1532 25.5493 15.1569 25.5512 15.1606L27.2767 18.2293L27.4696 18.5705L29.0022 21.3013C29.0112 21.3177 29.0209 21.3336 29.0315 21.349L31.3227 25.428L30.266 26.0528L30.2551 26.0307C30.2537 26.0288 30.2523 26.027 30.2508 26.0251L22.1977 11.6942L22.1793 11.6609L23.2339 11.035ZM34.9461 13.0424L32.955 14.2245L33.4991 15.1828L35.4902 13.9985L34.9461 13.0424ZM22.6844 14.7817L27.8923 24.0499C26.6524 23.5669 25.2423 23.5757 24.0099 24.3069L21.8639 25.5809L19.0307 27.2626L19.0047 27.2803L15.5168 21.0742L15.5483 21.0554L18.3804 19.3737L20.5297 18.1019C21.762 17.3707 22.4698 16.1233 22.6844 14.7817ZM27.8436 15.1107C28.8136 15.0886 29.7436 15.5206 30.2692 16.4568C30.9705 17.7053 30.5575 19.1411 29.5604 20.0661L28.2164 17.6732L26.8735 15.2847C27.1932 15.1783 27.5195 15.1185 27.8436 15.1107ZM36.6878 16.9763L34.4659 17.589L34.7466 18.6569L36.9686 18.0476L36.6878 16.9763ZM35.0772 21.2415V22.3493H37.375V21.2415H35.0772ZM14.5782 21.6304L18.065 27.8342L17.5361 28.1478L15.0443 29.6256C14.9103 29.7075 14.7616 29.761 14.607 29.7829C14.4524 29.8048 14.2951 29.7947 14.1444 29.7531C13.9937 29.7116 13.8527 29.6394 13.7298 29.541C13.607 29.4426 13.5048 29.3199 13.4293 29.1803L13.1605 28.7017C13.1591 28.6987 13.1577 28.6958 13.1562 28.6928L13.1432 28.6696L11.4177 25.5964C11.4142 25.5901 11.4106 25.5838 11.4068 25.5776L11.1305 25.0857C11.0506 24.9474 10.9985 24.7942 10.9771 24.635C10.9556 24.4759 10.9654 24.314 11.0057 24.1588C11.0461 24.0036 11.1162 23.8581 11.212 23.7308C11.3079 23.6035 11.4275 23.4969 11.564 23.4173L14.0536 21.9417L14.5782 21.6315V21.6304ZM10.7489 26.6333L11.9347 28.7427L10.905 29.352C10.8823 29.3675 10.879 29.3664 10.8638 29.3398L9.71061 27.2925C9.69543 27.2659 9.69977 27.256 9.72361 27.2416L10.7479 26.6322L10.7489 26.6333ZM18.556 28.8202L20.6261 35.8771L18.0845 37.3871L16.0143 30.3291L18.0802 29.1038L18.5571 28.8202H18.556Z" fill="url(#paint0_linear_8756_27823)"/>
<defs>
<linearGradient id="paint0_linear_8756_27823" x1="32.3222" y1="6.25941" x2="14.7469" y2="39.1424" gradientUnits="userSpaceOnUse">
<stop stop-color="#00FF38"/>
<stop offset="1" stop-color="#02F0FF"/>
</linearGradient>
</defs>
</svg>
