<svg width="46" height="47" viewBox="0 0 46 47" fill="none" xmlns="http://www.w3.org/2000/svg">
<mask id="mask0_8588_72110" style="mask-type:alpha" maskUnits="userSpaceOnUse" x="9" y="9" width="28" height="29">
<path d="M16.1441 33.0081V22.3516C16.1441 22.3516 10.0547 22.3485 10.0547 27.6798C10.0547 33.0112 16.1441 33.0081 16.1441 33.0081Z" stroke="#757575" stroke-width="1.4375"/>
<path d="M30.6172 33.0081V22.3516C30.6172 22.3516 35.9455 23.1127 35.9455 27.6798C35.9455 32.2469 30.6172 33.0081 30.6172 33.0081Z" stroke="#757575" stroke-width="1.4375"/>
<path d="M13.1135 23.1198C13.1135 23.1198 12.3523 10.1797 23.0088 10.1797C33.6653 10.1797 32.9041 23.1198 32.9041 23.1198" stroke="#757575" stroke-width="1.4375"/>
<path d="M30.6239 32.2578C30.4416 34.8948 29.9773 35.4215 29.1016 35.2821" stroke="#757575" stroke-width="1.4375"/>
<path d="M22.6857 36.8164C21.0415 36.814 21.043 33.7715 22.6857 33.7734C24.3285 33.7754 25.7444 33.7775 27.6956 33.7734C29.6468 33.7694 29.3914 36.814 27.6956 36.8164C25.9999 36.8188 24.3299 36.8188 22.6857 36.8164Z" stroke="#757575" stroke-width="1.4375"/>
</mask>
<g mask="url(#mask0_8588_72110)">
<rect x="9.10938" y="8.87109" width="28.2564" height="29.485" fill="url(#paint0_linear_8588_72110)"/>
</g>
<defs>
<linearGradient id="paint0_linear_8588_72110" x1="36.7515" y1="8.25682" x2="7.88083" y2="37.7418" gradientUnits="userSpaceOnUse">
<stop stop-color="#2A3CDB"/>
<stop offset="1" stop-color="#691088"/>
</linearGradient>
</defs>
</svg>
