<svg width="38" height="38" viewBox="0 0 38 38" fill="none" xmlns="http://www.w3.org/2000/svg">
<path fill-rule="evenodd" clip-rule="evenodd" d="M0 19C0 29.4934 8.50659 38 19 38C29.4934 38 38 29.4934 38 19C38 8.50659 29.4934 0 19 0C8.50659 0 0 8.50659 0 19ZM15.5167 27.7083L15.8399 22.8651L15.8397 22.8649L24.6501 14.9142C25.0367 14.571 24.5656 14.4037 24.0523 14.715L13.1791 21.5748L8.48246 20.1089C7.46819 19.7983 7.4609 19.1013 8.71017 18.6003L27.0119 11.5432C27.8478 11.1637 28.6546 11.7439 28.3355 13.0233L25.2187 27.7108C25.0011 28.7545 24.3704 29.0041 23.4967 28.522L18.7488 25.0142L16.4667 27.2333C16.4595 27.2403 16.4523 27.2473 16.4452 27.2542C16.1899 27.5027 15.9788 27.7083 15.5167 27.7083Z" fill="url(#paint0_linear_8588_72449)"/>
<defs>
<linearGradient id="paint0_linear_8588_72449" x1="19" y1="0" x2="19" y2="38" gradientUnits="userSpaceOnUse">
<stop stop-color="#BB8541"/>
<stop offset="1" stop-color="#F8C17B"/>
</linearGradient>
</defs>
</svg>
