<svg width="32" height="32" viewBox="0 0 32 32" fill="none" xmlns="http://www.w3.org/2000/svg">
    <path d="M0.25 1C0.25 0.585787 0.585786 0.25 1 0.25H23.5858C23.7847 0.25 23.9755 0.329018 24.1161 0.46967L31.5303 7.88388C31.671 8.02454 31.75 8.2153 31.75 8.41421V31C31.75 31.4142 31.4142 31.75 31 31.75H1C0.585786 31.75 0.25 31.4142 0.25 31V1Z" fill="#7F00FF" fill-opacity="0.12" stroke="#7F00FF" stroke-width="0.5"/>
    <g opacity="0.9">
        <path d="M15.9966 19.2917L15.9993 19.289L16.7211 19.6745L19.0507 20.9186L18.5995 18.2499L18.4683 17.4652L19.0343 16.9047L20.951 15.0099L18.3234 14.6216L17.5223 14.504L17.1695 13.7767L15.9993 11.3761L15.9966 11.3843V19.2917ZM20.7842 21.9794C20.8389 22.3076 20.7022 22.6411 20.4315 22.8353C20.1608 23.0294 19.8026 23.054 19.5073 22.8982L15.9993 21.0252L12.4913 22.8982C12.196 23.054 11.8378 23.0294 11.5671 22.8353C11.2964 22.6411 11.1597 22.3076 11.2144 21.9794L11.8897 17.9957L9.04064 15.1767C8.80549 14.9442 8.72073 14.597 8.82463 14.2826C8.92854 13.9681 9.19923 13.7384 9.52733 13.6892L13.4537 13.1096L15.2146 9.49216C15.3622 9.1914 15.6657 9 16.002 9C16.3383 9 16.6418 9.1914 16.7895 9.49216L18.5476 13.1096L22.474 13.6892C22.8021 13.7384 23.0755 13.9681 23.1767 14.2826C23.2778 14.597 23.1958 14.9442 22.9607 15.1767L20.1116 17.9957L20.7842 21.9794Z" fill="#7803EC"/>
    </g>
</svg>
