<svg width="46" height="46" viewBox="0 0 46 46" fill="none" xmlns="http://www.w3.org/2000/svg">
<g opacity="0.3">
<mask id="mask0_8756_27842" style="mask-type:alpha" maskUnits="userSpaceOnUse" x="10" y="8" width="26" height="30">
<path d="M31.5301 10.5086C31.5905 9.62081 31.6059 9.03906 31.6059 9.03906H14.3724C14.3724 9.03906 14.3877 9.62081 14.4479 10.5086M31.5301 10.5086C31.3976 12.4554 31.0484 15.8737 30.1697 17.8561C29.7527 18.7968 29.2738 19.6549 28.7346 20.4073M31.5301 10.5086H33.045C33.8432 10.5086 34.4948 11.1622 34.4436 11.9587C34.1127 17.1114 32.1687 18.9388 28.7346 20.4073M28.7346 20.4073C27.2587 22.4669 25.3314 23.7341 22.9872 23.7341C22.3297 23.7341 21.7051 23.6344 21.1141 23.4455M14.4479 10.5086C14.5801 12.4554 14.9286 15.8737 15.8073 17.8561C16.2243 18.7968 16.7031 19.6549 17.242 20.4073M14.4479 10.5086H12.9875C12.1744 10.5086 11.5181 11.184 11.5693 11.9955C11.8375 16.2435 12.7508 18.4861 17.242 20.4073M17.242 20.4073C18.3034 21.8892 19.5981 22.9609 21.1141 23.4455M21.1141 23.4455C21.0901 27.0555 20.8158 28.8393 18.6951 30.3469M18.6951 30.3469H17.2482C16.453 30.3469 15.8088 30.9926 15.8107 31.7878L15.8193 35.5256C15.8212 36.3182 16.4642 36.9597 17.2568 36.9597H28.7473C29.5412 36.9597 30.1848 36.3161 30.1848 35.5222V31.7844C30.1848 30.9905 29.5412 30.3469 28.7473 30.3469H27.3124M18.6951 30.3469H27.3124M25.1581 23.4455C25.2389 27.346 25.7739 28.8368 27.3124 30.3469" stroke="#757575" stroke-width="1.4375"/>
</mask>
<g mask="url(#mask0_8756_27842)">
<rect x="8.02344" y="4.54688" width="30.4843" height="35.7859" fill="url(#paint0_linear_8756_27842)"/>
</g>
</g>
<defs>
<linearGradient id="paint0_linear_8756_27842" x1="23.2656" y1="4.54687" x2="23.2656" y2="40.3328" gradientUnits="userSpaceOnUse">
<stop stop-color="#FFAF52"/>
<stop offset="1" stop-color="#825006"/>
</linearGradient>
</defs>
</svg>
