<svg width="33" height="33" viewBox="0 0 33 33" fill="none" xmlns="http://www.w3.org/2000/svg">
    <path d="M29.5 17C29.5 24.4558 23.4558 30.5 16 30.5C8.54416 30.5 2.5 24.4558 2.5 17C2.5 9.54416 8.54416 3.5 16 3.5C23.4558 3.5 29.5 9.54416 29.5 17Z" stroke="white"/>
    <path fill-rule="evenodd" clip-rule="evenodd" d="M20.3477 19.1683C20.2314 19.0486 20.1151 18.9288 20.0005 18.8071C19.6118 18.3946 19.587 18.1554 19.9001 17.6804C20.0817 17.4036 20.2707 17.1325 20.4597 16.8614C20.6255 16.6236 20.7913 16.3859 20.9521 16.1441C20.9634 16.127 20.9748 16.11 20.9861 16.0929C21.2962 15.6267 21.6076 15.1584 21.7707 14.6002C21.8781 14.2319 21.783 14.0695 21.4358 14.0049C21.3756 13.9936 21.314 13.993 21.2533 13.993L19.1933 13.9903C18.9395 13.9862 18.7996 14.1065 18.7096 14.351C18.5886 14.6816 18.4639 15.0117 18.3195 15.3306C17.9922 16.0538 17.6266 16.7526 17.1136 17.3446C17.1064 17.353 17.099 17.3615 17.0917 17.3701C16.9842 17.495 16.8636 17.6354 16.6866 17.5719C16.4506 17.4783 16.3807 17.0547 16.3847 16.9118L16.3828 14.3265C16.337 13.9572 16.2614 13.7927 15.9242 13.7207L13.785 13.7211C13.4992 13.7211 13.3563 13.8412 13.2037 14.0353C13.1158 14.1476 13.0893 14.2204 13.2701 14.2576C13.625 14.3308 13.8252 14.5809 13.8782 14.9681C13.9633 15.5868 13.9574 16.2079 13.9083 16.8291C13.8939 17.0105 13.8653 17.1914 13.7992 17.3607C13.6957 17.627 13.5286 17.681 13.3092 17.5174C13.1105 17.3691 12.9709 17.1598 12.8342 16.9498C12.3212 16.1614 11.9118 15.3113 11.5778 14.4178C11.4812 14.1597 11.3148 14.0032 11.0633 13.9989C10.4454 13.9882 9.82739 13.9866 9.20943 13.9995C8.83748 14.0072 8.72667 14.2033 8.87813 14.57C9.55112 16.198 10.3001 17.7806 11.2781 19.2225C11.7804 19.9622 12.3567 20.6155 13.1014 21.0784C13.9455 21.6031 14.8537 21.7611 15.8109 21.7123C16.2589 21.6895 16.3935 21.5626 16.4142 21.0771C16.4285 20.745 16.4629 20.4144 16.6136 20.116C16.7615 19.8227 16.9858 19.7668 17.2439 19.9494C17.3732 20.0405 17.4818 20.1563 17.5848 20.2793C17.6683 20.3784 17.7508 20.4786 17.8333 20.5789C18 20.7815 18.1668 20.9842 18.342 21.1781C18.6701 21.5417 19.0592 21.7561 19.5482 21.7121L21.4416 21.7125C21.5545 21.7044 21.6473 21.6436 21.7105 21.5515C21.7306 21.512 21.7503 21.4723 21.7698 21.4324C21.8212 21.2835 21.815 21.0945 21.7294 20.9141C21.6065 20.6543 21.445 20.4234 21.2737 20.2001C20.9899 19.8295 20.6688 19.4989 20.3477 19.1683Z" fill="white"/>
</svg>
