<svg width="46" height="47" viewBox="0 0 46 47" fill="none" xmlns="http://www.w3.org/2000/svg">
<path d="M15.0084 14.4286C15.2871 9.55091 26.1979 9.5 26.1979 9.5C26.1979 9.5 37.0902 9.55091 37.3689 14.4286M15.0084 14.4286C14.722 19.441 24.577 20.1786 26.1793 20.1786C27.782 20.1786 37.6553 19.441 37.3689 14.4286M15.0084 14.4286L15.0226 17.3792M37.3689 14.4286V18.5357C37.3689 18.5357 37.3647 21.9298 30.9794 23.0848M30.9794 23.0848C29.6701 23.3216 28.0926 23.4643 26.1918 23.4643C15.0209 23.4643 15.0209 18.5357 15.0209 18.5357L15.0226 17.3792M30.9794 23.0848V26.75C30.9794 26.75 29.396 30.8571 19.8084 30.8571C15.3848 30.8571 12.6652 29.9828 11.0188 29.041M30.9794 23.0848C30.9794 23.0848 30.9781 27.5714 19.8084 27.5714C7.80184 27.5714 8.63748 21.8214 8.63748 21.8214M8.63748 21.8214V26.75C8.63748 26.75 9.09682 27.9415 11.0188 29.041M8.63748 21.8214C8.625 21 11.0188 17.7143 15.0226 17.3792M11.0188 29.041V34.1429C11.0188 34.1429 11.8167 38.25 21.3918 38.25C30.9669 38.25 33.3607 34.1429 33.3607 34.1429V29.041M11.0188 29.041V30.8571C11.0188 30.8571 12.3517 33.427 21.3918 34.1429C27.3609 34.6155 33.3607 30.8571 33.3607 30.8571V29.041M33.3607 29.041C33.3607 29.041 32.863 27.8547 30.9669 26.75" stroke="url(#paint0_linear_8588_72092)" stroke-width="1.4375" stroke-linecap="round"/>
<defs>
<linearGradient id="paint0_linear_8588_72092" x1="36.8369" y1="7.19283" x2="6.37619" y2="36.1387" gradientUnits="userSpaceOnUse">
<stop stop-color="#FFEA2F"/>
<stop offset="1" stop-color="#9F5F24"/>
</linearGradient>
</defs>
</svg>
