<svg width="38" height="39" viewBox="0 0 38 39" fill="none" xmlns="http://www.w3.org/2000/svg">
<path fill-rule="evenodd" clip-rule="evenodd" d="M19 0C8.50659 0 0 8.73045 0 19.5C0 30.2696 8.50659 39 19 39C29.4934 39 38 30.2696 38 19.5C38 8.73045 29.4934 0 19 0ZM26.9179 12.7963C27.79 13.0419 28.4767 13.7655 28.7098 14.6845C29.1333 16.35 29.1333 19.825 29.1333 19.825C29.1333 19.825 29.1333 23.2999 28.7098 24.9655C28.4767 25.8845 27.79 26.6081 26.9179 26.8538C25.3376 27.3 19 27.3 19 27.3C19 27.3 12.6624 27.3 11.082 26.8538C10.2099 26.6081 9.52315 25.8845 9.29008 24.9655C8.86667 23.2999 8.86667 19.825 8.86667 19.825C8.86667 19.825 8.86667 16.35 9.29008 14.6845C9.52315 13.7655 10.2099 13.0419 11.082 12.7963C12.6624 12.35 19 12.35 19 12.35C19 12.35 25.3376 12.35 26.9179 12.7963Z" fill="white"/>
<path d="M17.0996 23.4004V16.9004L22.1663 20.1505L17.0996 23.4004Z" fill="white"/>
</svg>
