<svg width="324" height="100" viewBox="0 0 324 100" fill="none" xmlns="http://www.w3.org/2000/svg">
    <path d="M30.3906 99.6948C30.3906 83.7434 30.3906 68.0987 30.3906 52.1473C31.037 52.1473 31.3602 52.1473 32.0065 52.1473C41.3788 52.1473 50.751 52.1473 60.1233 52.1473C61.416 52.1473 62.0624 52.454 62.3855 53.3743C63.0319 55.5216 64.0014 57.9757 64.0014 60.123C64.3246 68.0987 64.0014 75.7677 64.0014 83.7434C64.0014 92.6393 55.9219 100.002 47.196 99.6948C41.702 99.6948 36.2079 99.6948 30.3906 99.6948ZM41.702 55.5216C41.702 66.8717 41.702 77.915 41.702 88.9582C43.641 88.9582 45.2569 88.9582 46.8729 88.9582C50.4278 88.9582 52.6901 86.8109 52.6901 83.4366C52.6901 79.4487 52.6901 75.4609 52.6901 71.473C52.6901 67.7919 52.6901 64.4176 52.6901 60.7365C52.6901 57.6689 50.751 55.5216 48.1656 55.2149C46.2265 55.5216 43.9642 55.5216 41.702 55.5216Z" fill="white"/>
    <path d="M30.3701 0.305328C31.0164 0.305328 31.3396 0.305328 31.986 0.305328C36.5105 0.305328 41.3582 0.305328 45.8827 0.305328C54.6086 0.305328 61.3954 5.82697 63.0113 14.1094C63.0113 14.723 63.0113 15.3365 63.0113 15.95C63.0113 23.9257 63.0113 31.9014 63.0113 39.8771C63.0113 42.6379 62.0418 45.092 60.7491 47.5461C60.4259 47.8528 59.7795 48.4664 59.4563 48.4664C49.7609 48.4664 40.3887 48.4664 30.6932 48.4664C30.6932 48.4664 30.3701 48.4664 30.0469 48.1596C30.3701 32.2082 30.3701 16.2567 30.3701 0.305328ZM41.6814 44.7853C43.6205 44.7853 45.5596 44.7853 47.4986 44.4785C49.7609 44.1717 51.7 42.0244 51.7 39.5704C51.7 31.9014 51.7 24.2325 51.7 16.2567C51.7 13.8027 50.0841 11.6554 47.4986 11.0419C46.2059 10.7351 44.9132 11.0419 43.6205 10.7351C42.3277 10.4283 41.6814 11.0419 41.6814 12.5757C41.6814 22.6987 41.6814 32.8217 41.6814 42.6379C41.6814 43.5582 41.6814 43.865 41.6814 44.7853Z" fill="white"/>
    <path d="M224.286 47.855C220.408 47.855 217.176 47.855 213.298 47.855C213.298 47.2415 213.298 46.628 213.298 46.0144C213.298 36.5049 213.298 26.9954 213.298 17.4859C213.298 13.4981 211.035 11.044 207.48 11.044C204.572 11.044 201.986 13.1913 201.986 15.9522C201.986 18.713 201.986 21.4738 201.986 23.9279C201.986 31.2901 201.986 38.3455 201.986 45.7077C201.986 46.3212 201.986 46.9347 201.986 47.5482C198.108 47.5482 194.553 47.5482 190.675 47.5482C190.675 46.9347 190.675 46.3212 190.675 45.7077C190.675 35.8914 190.352 26.3819 190.675 16.5657C190.998 9.51024 195.199 3.37508 202.633 1.22777C211.035 -1.22629 219.761 2.76156 222.993 10.4305C223.963 12.2711 224.286 14.4184 224.286 16.5657C224.286 26.3819 224.286 36.5049 224.286 46.3212C224.609 46.628 224.286 47.2415 224.286 47.855Z" fill="#E9D900"/>
    <path d="M224.606 52.1453C224.606 58.5872 224.606 64.4156 224.606 70.244C224.606 75.7657 224.929 81.2873 224.283 86.5022C223.636 92.3306 219.758 96.6252 214.264 98.4658C206.831 101.227 199.075 99.6928 193.904 92.6373C191.641 89.8765 190.672 86.5022 190.672 83.1279C190.672 73.6184 190.672 63.8021 190.672 54.2926C190.672 51.8385 190.672 51.8385 193.257 51.8385C195.196 51.8385 197.459 51.8385 199.398 51.8385C201.66 51.8385 201.66 51.8385 201.66 53.9858C201.66 63.4953 201.66 73.3116 201.66 82.8211C201.66 84.3549 201.983 85.8887 203.276 87.4225C205.215 89.263 207.8 89.263 209.74 88.3427C211.679 87.7292 212.971 85.8887 212.971 83.7414C212.971 81.2873 212.971 79.14 212.971 76.6859C212.971 69.017 212.971 61.348 212.971 53.6791C212.971 52.1453 213.295 51.8385 214.91 51.8385C218.142 52.1453 221.374 52.1453 224.606 52.1453Z" fill="#E9D900"/>
    <path d="M160.615 52.454C162.231 52.454 163.201 52.1473 164.493 52.1473C168.695 52.1473 173.219 52.1473 177.421 52.1473C178.713 52.1473 179.36 52.454 180.006 53.3743C182.592 57.0554 183.884 61.0433 184.207 65.3379C184.207 71.473 184.207 77.6082 184.207 84.0501C184.531 90.492 178.39 97.5475 172.25 99.0813C168.372 100.002 164.493 100.002 160.938 98.7745C157.383 97.5475 154.798 95.0934 152.536 91.7191C150.92 88.9582 150.273 86.1974 150.273 83.1298C150.273 81.2893 150.273 79.4488 150.273 77.6082C150.273 76.6879 150.597 76.0744 151.566 76.0744C154.475 76.0744 157.06 76.0744 159.969 76.0744C161.262 76.0744 161.585 76.6879 161.585 77.6082C161.585 79.7555 161.262 81.9028 161.585 84.0501C161.908 87.4245 164.493 88.9582 167.079 88.9582C170.957 88.9582 172.896 86.8109 172.896 83.7434C173.219 78.5285 172.896 73.6203 172.573 68.4055C172.25 63.1906 169.341 58.896 165.14 55.8284C163.847 54.6013 162.231 53.6811 160.615 52.454Z" fill="#E9D900"/>
    <path d="M173.219 47.8517C171.603 47.8517 169.987 47.8517 168.372 47.8517C164.493 47.8517 160.292 47.8517 156.414 47.8517C155.768 47.8517 155.121 47.5449 154.798 46.9314C151.889 42.9436 150.273 38.3422 150.273 33.1273C150.273 26.9921 150.273 20.857 150.273 14.7218C150.273 9.81369 154.798 3.67853 159.646 1.83798C163.201 0.304193 166.756 -0.309323 170.634 0.304193C178.067 2.14474 184.207 8.2799 184.207 15.3353C184.207 17.7894 184.207 20.2435 184.207 22.6975C184.207 23.0043 183.561 23.9246 182.915 23.9246C180.006 23.9246 176.774 23.9246 173.866 23.9246C173.542 23.9246 173.219 23.9246 172.896 23.6178C172.896 21.1637 172.896 18.7097 172.896 15.9489C172.573 12.8813 170.634 11.0407 167.079 11.0407C164.493 11.0407 161.585 13.188 161.585 15.6421C161.585 19.63 161.585 23.6178 161.585 27.6057C161.585 30.3665 161.908 33.4341 162.878 35.8881C163.847 39.5692 166.756 42.0233 169.664 44.4774C170.957 45.3976 172.25 46.3179 173.219 47.2382C173.542 47.8517 173.219 47.8517 173.219 47.8517Z" fill="#E9D900"/>
    <path d="M72.7266 52.1473C82.422 52.1473 92.1174 52.1473 102.136 52.1473C102.136 53.3743 102.136 54.2946 102.136 55.5216C96.3188 55.5216 90.1783 55.5216 84.3611 55.5216C84.3611 66.8717 84.3611 77.915 84.3611 88.9582C90.1783 88.9582 96.3188 88.9582 102.136 88.9582C102.136 92.6393 102.136 96.0137 102.136 99.6948C92.4406 99.6948 82.7452 99.6948 72.7266 99.6948C72.7266 84.0501 72.7266 68.0987 72.7266 52.1473Z" fill="white"/>
    <path d="M262.105 11.0419C256.288 11.0419 251.117 11.0419 245.623 11.0419C244.007 11.0419 243.683 11.3486 243.683 12.8824C243.683 23.0054 243.683 33.1284 243.683 43.2515C243.683 44.4785 244.007 44.7852 245.299 44.7852C250.793 44.7852 256.288 44.7852 261.782 44.7852C261.782 45.092 262.105 45.092 262.105 45.092C262.428 47.8528 262.428 47.8528 259.519 47.8528C250.47 47.8528 241.744 47.8528 232.695 47.8528C232.695 47.2393 232.695 46.6258 232.695 46.0123C232.695 31.2879 232.695 16.5635 232.695 1.83912C232.695 0.612086 233.018 0.305328 234.311 0.305328C243.037 0.305328 251.763 0.305328 260.489 0.305328C262.428 0.305328 262.428 0.305328 262.428 2.14588C261.782 5.21346 262.105 7.97428 262.105 11.0419Z" fill="#E9D900"/>
    <path d="M72.7216 0.305328C82.417 0.305328 92.1125 0.305328 101.808 0.305328C101.808 3.98643 101.808 7.36076 101.808 11.0419C95.9906 11.0419 89.8502 11.0419 84.0329 11.0419C84.0329 22.0852 84.0329 33.1284 84.0329 44.4785C89.8502 44.4785 95.9906 44.4785 101.808 44.4785C101.808 45.7055 101.808 46.6258 101.808 47.8528C92.1125 47.8528 82.417 47.8528 72.3984 47.8528C72.7216 32.2082 72.7216 16.2567 72.7216 0.305328Z" fill="white"/>
    <path d="M298.941 0.306758C298.941 3.6811 298.941 7.36219 298.941 11.0433C296.356 11.0433 293.77 11.0433 291.185 11.0433C288.599 11.0433 288.599 11.0433 288.599 13.4974C288.599 23.3136 288.599 33.1299 288.599 42.9461C288.599 44.4799 288.599 46.3205 288.599 47.8543C284.721 47.8543 281.166 47.8543 277.288 47.8543C277.288 35.5839 277.288 23.6204 277.288 11.0433C273.41 11.0433 269.855 11.0433 265.977 11.0433C265.977 9.81626 265.977 8.58923 265.977 7.36219C265.977 5.52165 265.977 3.6811 265.977 1.84055C265.977 0.613516 266.3 0 267.592 0C272.117 0 276.642 0 280.843 0C286.337 0 292.154 0 297.648 0C298.295 0.306758 298.618 0.306758 298.941 0.306758Z" fill="#E9D900"/>
    <path d="M121.183 47.8528C121.183 47.2393 121.183 46.6258 121.183 45.7055C121.183 34.6622 121.183 23.6189 121.183 12.5757C121.183 11.3486 120.86 11.0419 119.568 11.0419C116.336 11.0419 113.427 11.0419 110.195 11.0419C110.195 7.36076 110.195 3.98643 110.195 0.305328C120.86 0.305328 131.848 0.305328 142.513 0.305328C142.513 3.67967 142.513 7.36076 142.513 11.0419C139.282 11.0419 136.05 11.0419 132.495 11.0419C132.495 23.3122 132.495 35.5825 132.495 47.8528C128.617 47.8528 125.062 47.8528 121.183 47.8528Z" fill="white"/>
    <path d="M232.375 52.4526C242.394 52.4526 252.089 52.4526 262.108 52.4526C262.108 53.3729 262.108 54.5999 262.108 55.8269C260.815 55.8269 259.845 55.8269 258.876 55.8269C254.351 55.8269 249.827 55.8269 245.625 55.8269C244.333 55.8269 244.009 56.1337 244.009 57.3607C244.009 70.8581 244.009 84.0487 244.009 97.5461C244.009 100 244.009 100 241.424 100C239.162 100 237.223 100 234.96 100C234.314 100 233.668 100 232.698 99.6934C232.375 83.7419 232.375 68.0973 232.375 52.4526Z" fill="#E9D900"/>
    <path d="M121.203 52.1473C125.081 52.1473 128.636 52.1473 132.191 52.1473C132.191 68.0987 132.191 83.7434 132.191 99.6948C128.636 99.6948 124.758 99.6948 121.203 99.6948C121.203 84.0501 121.203 68.0987 121.203 52.1473Z" fill="white"/>
    <path d="M288.598 99.6951C286.658 99.6951 285.043 99.6951 283.427 99.6951C282.134 99.6951 280.518 99.6951 279.225 99.6951C277.933 99.6951 277.609 99.3883 277.609 98.1613C277.609 92.3329 277.609 86.5045 277.609 80.6761C277.609 71.7801 277.609 63.1908 277.609 54.2949C277.609 52.7611 277.933 52.1476 279.548 52.4543C282.134 52.4543 284.396 52.4543 286.982 52.4543C287.628 52.4543 287.951 52.7611 288.598 52.7611C288.598 68.099 288.598 83.7436 288.598 99.6951Z" fill="#E9D900"/>
    <path d="M0 68.4107C0 56.1404 0 44.1768 0 31.5998C1.29272 32.8268 2.58545 33.7471 3.87817 34.9741C9.04907 39.5755 13.8968 44.4836 19.0677 49.085C19.714 49.6985 20.3604 50.312 19.3909 50.9255C13.2504 56.4472 7.10998 62.2756 0.969543 67.7972C0.646362 68.104 0.323181 68.104 0 68.4107Z" fill="#E9D900"/>
    <path d="M323.183 68.4039C318.659 64.4161 314.457 60.4282 310.256 56.4404C308.317 54.5998 306.378 52.7593 304.439 51.2255C303.469 50.3052 303.146 49.9985 304.439 49.0782C307.994 46.0106 311.225 42.943 314.457 39.8754C316.719 37.7281 318.982 35.5808 321.244 33.4335C321.567 33.1268 322.214 32.82 322.86 32.2065C323.183 44.17 323.183 56.1336 323.183 68.4039Z" fill="#E9D900"/>
</svg>
