<svg width="407" height="70" viewBox="0 0 407 70" fill="none" xmlns="http://www.w3.org/2000/svg">
    <path fill-rule="evenodd" clip-rule="evenodd" d="M0 0H59.5726V70H0V0ZM14.5892 59.3478V12.5543H29.1784C34.4467 12.5543 38.4993 13.6957 41.3361 15.5978C44.1728 17.5 45.7939 20.9239 45.7939 25.1087C45.7939 27.3913 45.3886 29.2935 44.1729 31.1956C42.9571 33.0978 41.3361 34.2391 39.3098 35C42.1466 35.3804 43.7676 36.9022 44.9834 38.8043C46.1991 40.7065 47.0096 42.9891 47.0096 45.6522C47.0096 50.2174 45.7939 53.6413 42.9571 55.9239C40.1203 58.2065 36.473 59.3478 31.2047 59.3478H14.5892ZM23.5048 38.8043V52.1196H30.3942C32.4204 52.1196 34.0415 51.7391 34.852 50.5978C35.6625 49.4565 36.473 47.9348 36.473 45.6522C36.473 43.3696 36.0677 41.8478 35.2572 40.7065C34.4467 39.5652 32.8257 38.8043 31.2047 38.8043H23.5048ZM23.5048 32.337H28.7731C30.7994 32.337 32.4204 31.5761 33.231 30.8152C34.0415 30.0544 34.852 28.1522 34.852 26.25C34.852 23.9674 34.4467 22.4457 33.231 21.3043C32.0152 20.163 30.3942 19.7826 28.3679 19.7826H23.5048V32.337Z" fill="#FFCC29"/>
    <path d="M103.341 51.7392C102.126 53.6414 100.505 55.1631 97.6677 56.6848C95.2362 58.2066 91.9942 58.9674 87.9416 58.9674C82.6733 58.9674 78.6207 57.4457 75.3787 54.4022C72.1366 51.3587 70.5156 47.174 70.5156 41.8479V28.1522C70.5156 22.8261 72.1366 18.6413 74.9734 15.5979C77.8102 12.5544 81.8628 11.0327 87.1311 11.0327C92.3994 11.0327 96.0467 12.174 98.8835 14.4566C101.72 16.7392 102.936 20.1631 103.341 24.7283V25.1087H96.8572C96.8572 22.0653 96.0467 20.1631 94.4257 18.2609C92.8047 16.7392 90.7784 15.9783 87.5363 15.9783C84.2943 15.9783 82.268 17.1196 80.2418 19.0218C78.6207 20.924 77.8102 23.9674 77.8102 28.1522V42.2283C77.8102 46.0327 78.6207 49.0761 80.647 51.3587C82.6733 53.6414 85.1048 54.4022 88.3469 54.4022C90.7784 54.4022 92.3994 54.0218 94.0204 53.2609C95.2362 52.5 96.452 51.3587 96.8572 50.2174V39.5653H88.3469V35H103.747L103.341 51.7392Z" fill="white"/>
    <path d="M120.358 70H116.711V0H120.358V70ZM181.147 70H177.499V0H181.147V70ZM241.53 70H238.288V0H241.53V70ZM363.106 70H359.459V0H363.106V70ZM302.318 70H298.671V0H302.318V70Z" fill="white"/>
    <path d="M141.837 42.2304H154.4L148.321 21.6869H147.916L141.837 42.2304ZM156.427 47.5565H140.622L136.974 59.3499H129.68L145.079 12.5565H151.563L166.963 59.3499H160.074L156.427 47.5565Z" fill="white"/>
    <path d="M197.759 12.5565L209.512 50.5999L221.264 12.5565H230.18V59.3499H223.29V41.4695L224.101 23.2086H223.696L211.943 59.3499H207.08L195.328 23.2086H194.923L195.733 41.4695V59.3499H188.844V12.5565H197.759Z" fill="white"/>
    <path d="M273.553 59.3499H266.664V12.5565H273.553V59.3499Z" fill="white"/>
    <path d="M348.107 59.3499H341.218L322.576 24.3499H322.171V59.3499H315.281V12.5565H322.171L341.218 47.176V12.5565H348.107V59.3499Z" fill="white"/>
    <path d="M406.466 52.1196C405.25 54.0218 403.629 55.5435 400.793 57.0653C398.361 58.587 395.119 59.3479 391.067 59.3479C385.798 59.3479 381.746 57.8261 378.504 54.7827C375.262 51.7392 373.641 47.5544 373.641 42.2283V28.1522C373.641 22.8261 375.262 18.6414 378.098 15.5979C380.935 12.5544 385.393 11.0327 390.256 11.0327C395.119 11.0327 399.172 12.174 402.008 14.4566C404.845 16.7392 406.061 20.1631 406.466 24.7283V25.1087H399.982C399.982 22.0653 399.172 19.7827 397.551 18.2609C395.93 16.7392 393.903 15.9783 390.661 15.9783C387.419 15.9783 385.393 17.1196 383.367 19.0218C381.746 20.924 380.53 23.9674 380.53 28.1522V42.2283C380.53 46.4131 381.34 49.4566 383.367 51.3587C385.393 53.2609 387.825 54.4022 391.067 54.4022C393.498 54.4022 395.119 54.0218 396.74 53.2609C397.956 52.5001 399.172 51.3587 399.577 50.2174V39.5653H391.067V34.6196H406.466C406.466 34.6196 406.466 52.1196 406.466 52.1196Z" fill="white"/>
</svg>
