<svg width="258" height="100" viewBox="0 0 258 100" fill="none" xmlns="http://www.w3.org/2000/svg">
    <path d="M6.69511 24.4656C11.8424 28.0286 15.7029 29.4538 22.1371 32.3041C26.7697 34.2044 35.5202 37.2923 42.2117 40.3802C33.7186 35.6296 23.6813 29.6913 23.6813 19.24C23.6813 2.85037 69.4926 4.03802 91.3688 19.24C91.3688 19.24 77.2137 0 45.5575 0C24.7108 0 7.72457 9.02616 2.0625 16.6271L2.31987 17.1022C2.31987 16.8647 1.54777 20.9027 6.69511 24.4656Z" fill="url(#paint0_linear_3847_34248)"/>
    <path d="M23.9391 80.7602C23.9391 71.259 32.1749 65.5583 39.8959 61.2827C30.6307 65.5583 14.9313 71.0215 11.3282 72.9217C7.72502 74.8219 5.66608 75.0595 4.12188 77.9098C3.09241 79.5726 2.57768 82.1854 2.32031 83.8481C8.23975 91.4491 24.9686 100 45.8153 100C77.4715 100 91.6266 80.7602 91.6266 80.7602C70.0078 95.9621 23.9391 97.1498 23.9391 80.7602Z" fill="url(#paint1_linear_3847_34248)"/>
    <path d="M11.3241 72.9234C14.9273 71.0208 30.6267 65.5576 39.8919 61.2844C46.8408 57.2464 53.5323 54.1585 53.5323 50.1204C53.5323 46.5575 48.385 43.7071 42.4655 40.3817C35.774 37.2938 26.7662 34.2059 22.3909 32.3057C15.9567 29.4553 12.0962 28.0301 6.94891 24.4672C1.80157 20.9042 2.57367 17.1037 2.57367 17.1037L2.05894 16.6287C0.772101 18.2914 0 20.1916 0 21.6168C0 30.8805 19.8173 35.6311 19.8173 49.8829C19.8173 63.8972 0 69.1229 0 78.149C0 79.8117 0.772101 81.712 2.3163 83.6146C2.57367 81.9495 2.83104 79.3367 3.8605 77.674C5.66207 75.0611 7.72101 74.8236 11.3241 72.9234Z" fill="url(#paint2_linear_3847_34248)"/>
    <path d="M47.8714 46.0821C47.8714 46.0821 50.7024 47.7448 51.2172 49.17C51.7319 50.5952 49.9303 52.9705 48.3861 53.9206C46.8419 54.8683 44.5256 55.1082 44.2682 54.6332C43.4961 53.2056 47.3566 52.2579 46.8419 50.1201C46.3272 47.9823 44.783 47.0322 43.7535 46.3196C42.9814 45.3695 41.9519 44.4194 42.4667 44.1819C42.724 43.4693 47.8714 46.0821 47.8714 46.0821Z" fill="url(#paint3_linear_3847_34248)"/>
    <path fill-rule="evenodd" clip-rule="evenodd" d="M117.339 43.7248C117.339 42.8388 117.339 42.0454 117.339 41.2545C117.339 40.4825 117.339 39.7105 117.339 38.9338C117.339 38.1499 117.337 37.3637 117.339 36.5609C117.779 36.6677 118.155 36.7841 118.541 36.8411C118.973 36.9029 119.416 36.9053 119.851 36.948C120.165 36.9765 120.476 37.005 120.783 37.0502C121.357 37.1357 121.707 37.4706 121.923 37.9457C122.111 38.3613 122.172 38.8008 122.206 39.2449C122.221 39.4777 122.219 39.7081 122.219 39.9433C122.219 45.6416 122.219 51.34 122.219 57.0431C122.219 57.1405 122.214 57.2355 122.219 57.3305C122.232 57.5158 122.154 57.6607 122.039 57.8056C121.516 58.4707 120.811 58.903 120.005 59.2141C119.205 59.5253 118.361 59.6536 117.509 59.7581C115.823 59.9695 114.13 60.0241 112.434 59.8816C111.304 59.7842 110.2 59.5918 109.139 59.1999C107.448 58.5799 106.28 57.492 105.621 55.9267C105.238 55.0193 105.022 54.0787 104.924 53.112C104.823 52.1143 104.772 51.1096 104.883 50.1072C104.993 49.074 105.253 48.0882 105.714 47.1452C106.301 45.9433 107.232 45.0288 108.437 44.3423C109.518 43.7224 110.689 43.3328 111.955 43.1784C113.126 43.0312 114.289 43.0241 115.458 43.1784C115.98 43.245 116.477 43.3756 116.956 43.587C117.051 43.6298 117.149 43.6583 117.339 43.7248ZM117.303 55.5324C117.316 55.3875 117.347 55.2379 117.347 55.0859C117.347 52.5942 117.342 50.1072 117.334 47.6108C117.334 47.5015 117.306 47.3899 117.288 47.2806C117.169 47.2307 117.074 47.188 116.976 47.1642C115.911 46.9172 114.827 46.8127 113.739 46.9172C112.377 47.0573 110.717 47.7153 110.135 49.6322C109.87 50.5015 109.827 51.3828 109.899 52.2711C109.935 52.7177 110.058 53.1452 110.236 53.5609C110.689 54.6227 111.512 55.2925 112.699 55.6132C113.726 55.8911 114.763 55.9196 115.808 55.8151C116.299 55.7699 116.806 55.7391 117.303 55.5324Z" fill="white"/>
    <path fill-rule="evenodd" clip-rule="evenodd" d="M171.01 59.436C170.979 60.2389 170.994 60.9919 170.992 61.7448C170.989 62.5144 170.992 63.2888 170.992 64.0655C170.992 64.8161 170.992 65.5691 170.992 66.3125C170.909 66.322 170.858 66.3434 170.829 66.3292C170.093 65.9966 169.298 65.961 168.503 65.9277C168.292 65.9159 168.086 65.9135 167.877 65.9135C167.453 65.9159 167.108 65.752 166.822 65.474C166.521 65.1866 166.333 64.8398 166.256 64.455C166.187 64.0584 166.127 63.6498 166.12 63.2484C166.099 62.303 166.109 61.3529 166.109 60.4075C166.109 55.5548 166.117 50.7044 166.102 45.8493C166.099 45.4146 166.228 45.0797 166.552 44.7662C167.216 44.1153 168.032 43.6925 168.951 43.4526C169.573 43.2935 170.214 43.1889 170.855 43.1034C172.523 42.8825 174.198 42.8635 175.874 42.9847C177.001 43.0678 178.105 43.2721 179.166 43.6616C180.856 44.2792 182.03 45.3647 182.691 46.9301C183.108 47.9087 183.325 48.9301 183.417 49.9728C183.502 50.8944 183.52 51.8279 183.438 52.7519C183.337 53.9182 183.029 55.037 182.437 56.0797C181.888 57.0417 181.132 57.8161 180.133 58.4051C178.723 59.2389 177.184 59.6831 175.526 59.7781C174.412 59.8398 173.305 59.8279 172.204 59.6569C171.838 59.5999 171.473 59.5215 171.01 59.436ZM171.033 55.6094C171.169 55.6522 171.282 55.6997 171.401 55.7306C172.031 55.8849 172.68 55.9229 173.321 56.0037C174.572 56.1605 175.681 55.8541 176.726 55.2531C177.158 55.0013 177.516 54.6735 177.745 54.2531C177.917 53.9443 178.067 53.6237 178.185 53.2959C178.466 52.493 178.486 51.6617 178.45 50.8279C178.411 50.0203 178.131 49.2816 177.657 48.5999C177.271 48.0417 176.746 47.6426 176.072 47.4265C175.259 47.1676 174.42 46.9633 173.555 47.0203C172.824 47.0702 172.098 47.1676 171.367 47.2483C171.249 47.265 171.141 47.3267 171.038 47.3624C170.974 47.8208 170.966 54.8802 171.033 55.6094Z" fill="white"/>
    <path fill-rule="evenodd" clip-rule="evenodd" d="M193.112 43.4954C193.184 43.4859 193.272 43.4883 193.344 43.4669C194.432 43.151 195.56 43.0607 196.689 43.0013C197.464 42.9609 198.241 42.9586 199.013 42.9847C200.208 43.0251 201.319 43.3315 202.339 43.9182C202.995 44.2959 203.515 44.7828 203.87 45.4241C204.387 46.3648 204.727 47.3505 204.722 48.4194C204.717 51.3956 204.717 54.3719 204.709 57.3505C204.709 58.0061 204.709 58.6665 204.709 59.3197C204.709 59.4527 204.688 59.5857 204.676 59.7377C204.037 59.8826 203.417 59.9064 202.792 59.8399C202.403 59.7947 201.999 59.7353 201.628 59.6189C200.707 59.3268 200.12 58.7306 199.935 57.8375C199.873 57.5168 199.837 57.1866 199.832 56.8612C199.819 55.0631 199.822 53.265 199.811 51.4669C199.804 50.5975 199.701 49.7353 199.587 48.8707C199.469 47.942 198.88 47.4669 197.953 47.2674C196.965 47.0536 195.961 47.0441 194.957 47.1819C194.319 47.2674 193.681 47.379 193.053 47.6735C193.045 47.8944 193.035 48.1201 193.035 48.3505C193.035 51.1914 193.035 54.0322 193.032 56.8731C193.032 57.1463 193.035 57.417 193.001 57.6831C192.888 58.5453 192.435 59.1771 191.511 59.4432C191.112 59.5572 190.703 59.6474 190.291 59.7116C189.609 59.8185 188.92 59.7852 188.204 59.7615C188.181 59.6237 188.15 59.5144 188.145 59.4028C188.137 59.2508 188.142 59.094 188.142 58.942C188.142 51.6332 188.142 44.3244 188.142 37.0203C188.142 36.7899 188.142 36.5595 188.142 36.3338C188.22 36.322 188.266 36.2958 188.297 36.3077C188.976 36.6022 189.702 36.6783 190.438 36.702C190.688 36.7115 190.94 36.7258 191.19 36.721C191.771 36.702 192.188 36.9609 192.518 37.3742C192.834 37.7804 192.95 38.2531 192.999 38.7353C193.032 39.0607 193.032 39.3885 193.032 39.7186C193.037 40.7828 193.032 41.8469 193.037 42.9087C193.035 43.0987 192.986 43.2935 193.112 43.4954Z" fill="white"/>
    <path fill-rule="evenodd" clip-rule="evenodd" d="M67.2951 54.0114C67.2719 54.5815 67.5653 54.9592 68.0234 55.2466C68.4095 55.4889 68.847 55.6338 69.3 55.7145C69.7092 55.7882 70.1287 55.8452 70.5431 55.857C72.01 55.8998 73.4745 55.8428 74.9286 55.6504C75.8808 55.5245 76.8357 55.4105 77.7905 55.2989C77.914 55.2846 78.0402 55.2965 78.192 55.2965C78.2126 55.4057 78.2486 55.515 78.2538 55.6243C78.2769 56.306 78.2126 56.9734 77.9913 57.629C77.6721 58.5791 77.0261 59.2324 75.9992 59.5625C75.1808 59.8309 74.3366 59.9616 73.4796 59.9996C72.0976 60.0613 70.7155 60.0661 69.3412 59.8903C68.2602 59.7525 67.205 59.5245 66.1961 59.1255C64.3971 58.4129 63.1927 57.2038 62.5647 55.4984C62.2275 54.5768 62.0422 53.6266 61.9702 52.6599C61.8672 51.2703 61.8878 49.8832 62.1863 48.5055C62.3614 47.705 62.6316 46.9378 63.064 46.2181C63.4963 45.496 64.0831 44.9069 64.8321 44.4461C65.913 43.7834 67.1098 43.3962 68.3863 43.2157C69.8636 43.0043 71.3486 42.9853 72.8336 43.1088C73.7318 43.1824 74.6095 43.3606 75.4536 43.6741C77.0519 44.2632 78.1045 45.3178 78.6192 46.8333C79.0207 48.0138 79.0928 49.2252 78.9873 50.4461C78.9538 50.8119 78.838 51.1658 78.6656 51.4984C78.3027 52.1991 77.7339 52.6789 76.9258 52.9117C76.2823 53.0922 75.6235 53.2015 74.9569 53.2585C74.0407 53.3369 73.1219 53.3725 72.1979 53.344C70.7953 53.3012 69.3978 53.4081 68.0286 53.7454C67.7841 53.7929 67.5319 53.8262 67.2951 54.0114ZM67.1484 50.6884C67.205 50.6836 67.2719 50.6884 67.326 50.6646C67.99 50.401 68.69 50.3083 69.4055 50.2703C70.1158 50.2347 70.8262 50.1967 71.5391 50.1611C72.1516 50.1326 72.7255 49.9805 73.2814 49.7311C74.1102 49.3582 74.5322 48.1326 73.4024 47.4604C73.0112 47.2276 72.5917 47.0613 72.1465 46.9402C71.0012 46.6266 69.8713 46.6718 68.7749 47.1231C68.2654 47.3345 67.8407 47.6409 67.5319 48.0684C67.0377 48.7549 66.8781 49.8238 67.1484 50.6884Z" fill="white"/>
    <path fill-rule="evenodd" clip-rule="evenodd" d="M145.384 51.375C145.384 51.7028 145.384 52.0306 145.384 52.3584C145.389 53.2539 145.248 54.1351 144.975 54.9878C144.352 56.9356 143.07 58.3536 140.978 59.0971C139.954 59.4605 138.891 59.6719 137.8 59.7289C135.823 59.8311 133.87 59.6838 131.952 59.1897C130.861 58.9071 129.914 58.4083 129.124 57.6505C128.455 57.0116 127.968 56.2824 127.682 55.432C127.356 54.4534 127.142 53.4486 127.034 52.4273C127.016 52.2539 127.003 52.0805 126.977 51.9071C126.771 50.6006 126.946 49.3251 127.353 48.0686C127.68 47.0567 128.256 46.1588 129.016 45.3678C129.708 44.6434 130.565 44.1398 131.528 43.774C132.82 43.28 134.173 43.0543 135.563 42.9973C137.079 42.9379 138.572 43.0662 140.041 43.4343C141.498 43.7978 142.71 44.5199 143.693 45.5745C143.935 45.8358 144.167 46.1232 144.334 46.4296C144.905 47.4724 145.294 48.5698 145.356 49.7479C145.384 50.2895 145.407 50.831 145.433 51.3679C145.418 51.3726 145.4 51.375 145.384 51.375ZM140.708 51.6695C140.744 50.8619 140.651 50.0638 140.335 49.2918C139.936 48.3108 139.197 47.6505 138.121 47.3085C137.64 47.1564 137.143 47.0876 136.644 47.0662C135.54 47.0139 134.472 47.1351 133.478 47.6125C132.922 47.8809 132.49 48.2586 132.233 48.793C132.009 49.2515 131.831 49.736 131.795 50.2348C131.718 51.2776 131.762 52.3227 132.068 53.3346C132.379 54.3584 133 55.1541 134.173 55.4486C135.38 55.7527 136.608 55.8477 137.838 55.5983C139.158 55.3299 140.09 54.641 140.489 53.3964C140.669 52.8311 140.736 52.2657 140.708 51.6695Z" fill="white"/>
    <path fill-rule="evenodd" clip-rule="evenodd" d="M241.972 47.1418C241.828 46.0824 241.985 45.1442 242.561 44.2938C243.019 43.605 243.75 43.2772 244.564 43.1038C244.924 43.023 245.307 42.9874 245.681 42.9827C247.294 42.9589 248.905 42.947 250.514 43.08C251.741 43.1798 252.913 43.4743 253.988 44.0088C255.283 44.6501 256.109 45.6762 256.608 46.9375C256.917 47.7214 257.084 48.5432 257.097 49.3793C257.12 50.9423 257.12 52.5053 257.105 54.073C257.092 54.7903 256.938 55.491 256.688 56.1751C256.034 58.0041 254.652 59.0943 252.637 59.5243C251.834 59.6882 251.029 59.7713 250.208 59.7618C248.849 59.7499 247.482 59.7547 246.126 59.7618C245.493 59.7642 244.878 59.6763 244.257 59.5552C243.526 59.4126 242.88 59.1086 242.281 58.7024C241.354 58.0706 240.87 57.1822 240.685 56.1632C240.471 55.0017 240.59 53.8497 240.935 52.7214C241.298 51.5338 242.095 50.6929 243.31 50.1703C244.183 49.8022 245.101 49.6478 246.049 49.5908C246.635 49.5599 247.22 49.5694 247.806 49.5527C248.707 49.5314 249.608 49.51 250.496 49.3556C250.8 49.3033 251.106 49.2178 251.397 49.1086C251.582 49.0421 251.765 48.9257 251.917 48.795C252.321 48.4269 252.351 47.8877 251.973 47.4862C251.824 47.3342 251.633 47.1941 251.43 47.1086C251.108 46.9684 250.769 46.852 250.426 46.7784C249.111 46.5124 247.781 46.4245 246.432 46.4934C245.282 46.5504 244.139 46.6644 243.014 46.8972C242.685 46.966 242.368 47.0492 241.972 47.1418ZM252.351 51.9399C252.233 51.9589 252.182 51.9542 252.161 51.9732C251.173 52.7072 250.056 53.0516 248.787 53.0444C248.311 53.0421 247.827 53.1015 247.351 53.1727C246.875 53.244 246.417 53.3794 246.007 53.6288C245.601 53.8758 245.436 54.2226 245.503 54.6715C245.572 55.1561 245.861 55.5053 246.327 55.6905C246.651 55.8188 247.003 55.9019 247.348 55.9471C248.329 56.0753 249.315 56.0682 250.298 56.035C250.465 56.0302 250.63 56.0088 250.792 55.9803C251.633 55.8188 252.061 55.4102 252.215 54.6335C252.393 53.7547 252.369 52.8687 252.351 51.9399Z" fill="white"/>
    <path fill-rule="evenodd" clip-rule="evenodd" d="M88.4682 47.4368C88.4528 47.5366 88.4296 47.5912 88.4322 47.6482C88.4476 49.0971 88.4733 50.5484 88.4836 51.9974C88.4939 53.6791 88.4965 55.3584 88.4939 57.0425C88.4939 57.3086 88.4682 57.5865 88.4116 57.8501C88.2494 58.6007 87.8068 59.1613 87.0012 59.4178C86.6074 59.5461 86.1982 59.6364 85.789 59.7124C85.2408 59.8121 84.1779 59.7931 83.6323 59.7005C83.6194 59.5414 83.5962 59.3703 83.5962 59.2017C83.5937 54.5627 83.5988 49.9237 83.5859 45.2871C83.5859 44.6007 83.8999 44.147 84.5228 43.8335C85.2151 43.489 85.9666 43.3204 86.7335 43.2064C88.8517 42.8952 90.9852 42.8477 93.1214 42.9902C94.2487 43.0662 95.3631 43.2563 96.4208 43.6529C96.7477 43.7788 97.0771 43.9095 97.386 44.0686C99.0691 44.9451 99.9545 46.2919 100.122 48.0544C100.155 48.3822 100.16 48.71 100.16 49.0401C100.163 52.3608 100.163 55.6862 100.16 59.0117C100.16 59.2397 100.196 59.4725 100.093 59.7243C99.9751 59.7385 99.8541 59.7646 99.7331 59.767C99.0228 59.7718 98.3073 59.8098 97.6073 59.6506C97.301 59.5794 96.9973 59.5033 96.7039 59.4036C95.9756 59.1566 95.5432 58.6601 95.3836 57.9689C95.309 57.6506 95.2755 57.3181 95.273 56.9903C95.2678 54.4416 95.273 51.8905 95.2704 49.3394C95.2704 49.0734 95.2575 48.7955 95.1777 48.5389C95.0053 47.995 94.6064 47.6007 94.0531 47.3513C93.5744 47.1351 93.0648 47.0401 92.5372 47.0069C91.6544 46.957 90.7819 47.0568 89.912 47.1779C89.441 47.2468 88.9598 47.2729 88.4682 47.4368Z" fill="white"/>
    <path fill-rule="evenodd" clip-rule="evenodd" d="M224.23 47.4556C224.22 47.534 224.196 47.5886 224.196 47.6456C224.22 48.2989 224.263 48.9592 224.263 49.6124C224.276 52.0661 224.276 54.5222 224.263 56.9758C224.263 57.3036 224.227 57.6362 224.153 57.9545C223.983 58.6623 223.525 59.1611 222.781 59.4224C222.271 59.6053 221.741 59.7241 221.196 59.7526C220.696 59.7811 220.192 59.7668 219.687 59.7644C219.61 59.7644 219.53 59.7383 219.44 59.7217C219.355 59.4794 219.384 59.249 219.384 59.021C219.384 55.3464 219.384 51.6742 219.384 48.0019C219.384 47.0732 219.407 46.1468 219.376 45.2181C219.355 44.5981 219.651 44.1896 220.197 43.8879C220.707 43.6029 221.268 43.4509 221.839 43.3297C222.742 43.1326 223.656 43.0328 224.575 42.9877C225.916 42.914 227.254 42.876 228.597 42.9663C229.727 43.0399 230.839 43.211 231.915 43.553C232.509 43.743 233.076 43.9901 233.598 44.3178C234.885 45.1255 235.616 46.2561 235.842 47.6646C235.914 48.1231 235.945 48.591 235.945 49.0518C235.953 52.3749 235.95 55.6979 235.948 59.0281C235.948 59.2561 235.989 59.4889 235.873 59.7359C234.697 59.8191 233.539 59.8048 232.419 59.3868C231.652 59.097 231.253 58.5364 231.117 57.8001C231.068 57.5554 231.06 57.3013 231.06 57.0519C231.06 54.4984 231.066 51.9473 231.066 49.3962C231.066 49.2038 231.073 49.0091 231.035 48.819C230.896 48.154 230.497 47.6599 229.828 47.3535C229.349 47.135 228.842 47.0423 228.312 47.0091C227.45 46.9592 226.6 47.0589 225.751 47.1682C225.334 47.2205 224.925 47.2917 224.513 47.3582C224.415 47.3772 224.32 47.4271 224.23 47.4556Z" fill="white"/>
    <path fill-rule="evenodd" clip-rule="evenodd" d="M162.036 43.0199C162.188 44.0247 162.16 44.9819 161.81 45.9083C161.532 46.6446 160.909 46.9985 160.119 47.1221C159.828 47.1696 159.529 47.1577 159.236 47.1719C158.67 47.1981 158.109 47.2194 157.545 47.2479C157.079 47.2765 156.642 47.3976 156.23 47.5971C155.676 47.8679 155.321 48.2788 155.188 48.8394C155.113 49.1363 155.069 49.4451 155.043 49.7539C155.015 50.1007 155.018 50.4499 155.018 50.7967C155.015 53.6921 155.018 56.59 155.015 59.4903C155.015 59.6922 155.005 59.9012 154.997 60.1007C154.91 60.1078 154.855 60.1292 154.83 60.115C153.934 59.6708 152.943 59.5045 151.963 59.3121C151.492 59.2195 151.098 59.0342 150.771 58.7135C150.408 58.3644 150.225 57.9392 150.169 57.4689C150.138 57.2409 150.133 57.0057 150.133 56.7753C150.133 54.1102 150.133 51.4427 150.133 48.7776C150.133 48.2741 150.161 47.7753 150.274 47.2812C150.75 45.1767 152.058 43.7919 154.33 43.2242C154.92 43.0793 155.525 42.9985 156.127 42.9962C157.995 42.9866 159.856 42.9938 161.717 42.9938C161.802 42.9938 161.884 43.008 162.036 43.0199Z" fill="white"/>
    <path fill-rule="evenodd" clip-rule="evenodd" d="M209.609 42.7737C209.939 42.8806 210.188 42.978 210.446 43.0373C210.711 43.1015 210.981 43.1419 211.251 43.1609C211.691 43.1965 212.129 43.2202 212.572 43.2131C213.341 43.2012 213.825 43.5647 214.152 44.1609C214.366 44.548 214.432 44.9732 214.471 45.3984C214.492 45.6454 214.492 45.8996 214.492 46.1514C214.492 49.7642 214.497 53.3794 214.487 56.9946C214.487 57.3391 214.45 57.6906 214.373 58.0303C214.221 58.7025 213.763 59.1585 213.071 59.4032C212.479 59.617 211.856 59.7167 211.231 59.7547C210.711 59.788 210.194 59.8022 209.679 59.7452C209.648 59.655 209.612 59.6003 209.612 59.5481C209.609 53.9827 209.609 48.4198 209.609 42.7737Z" fill="white"/>
    <path fill-rule="evenodd" clip-rule="evenodd" d="M212.094 41.917C210.655 41.9573 209.479 40.8504 209.477 39.4989C209.471 38.3944 210.498 37.1165 212.079 37.1141C213.484 37.1093 214.717 38.1592 214.699 39.5417C214.678 41.0523 213.273 41.9787 212.094 41.917Z" fill="white"/>
    <defs>
        <linearGradient id="paint0_linear_3847_34248" x1="46.7144" y1="40.297" x2="46.7144" y2="0.10879" gradientUnits="userSpaceOnUse">
            <stop stop-color="#161B60"/>
            <stop offset="0.0355" stop-color="#14266B"/>
            <stop offset="0.1871" stop-color="#0E4F93"/>
            <stop offset="0.3423" stop-color="#0971B4"/>
            <stop offset="0.4995" stop-color="#058CCE"/>
            <stop offset="0.6595" stop-color="#029FE0"/>
            <stop offset="0.824" stop-color="#01AAEB"/>
            <stop offset="1" stop-color="#00AEEF"/>
        </linearGradient>
        <linearGradient id="paint1_linear_3847_34248" x1="46.9748" y1="61.1262" x2="46.9748" y2="99.8432" gradientUnits="userSpaceOnUse">
            <stop stop-color="#4E0900"/>
            <stop offset="0.0923" stop-color="#6D2505"/>
            <stop offset="0.2404" stop-color="#984B0C"/>
            <stop offset="0.3908" stop-color="#BC6B11"/>
            <stop offset="0.5415" stop-color="#D78415"/>
            <stop offset="0.6928" stop-color="#EB9619"/>
            <stop offset="0.8451" stop-color="#F7A01A"/>
            <stop offset="1" stop-color="#FBA41B"/>
        </linearGradient>
        <linearGradient id="paint2_linear_3847_34248" x1="26.7649" y1="83.8068" x2="26.7647" y2="16.5624" gradientUnits="userSpaceOnUse">
            <stop stop-color="#660308"/>
            <stop offset="0.4381" stop-color="#DE1A23"/>
            <stop offset="0.6237" stop-color="#DE1A23"/>
            <stop offset="1" stop-color="#660308"/>
        </linearGradient>
        <linearGradient id="paint3_linear_3847_34248" x1="46.8175" y1="54.9422" x2="46.8175" y2="43.8674" gradientUnits="userSpaceOnUse">
            <stop stop-color="#DE1A22"/>
            <stop offset="1" stop-color="#F9D7D8"/>
        </linearGradient>
    </defs>
</svg>
