<svg width="359" height="100" viewBox="0 0 359 100" fill="none" xmlns="http://www.w3.org/2000/svg">
    <path d="M108.069 59.4872C112.897 64.6987 118.844 67.3042 125.91 67.3037C128.91 67.3037 132.307 66.5357 136.099 64.9997L136.708 53.614L103.372 52.3714C104.553 54.9757 106.139 57.3772 108.069 59.4872V59.4872ZM50.9529 50.4121L47.181 66.1925H64.8165L66.2081 58.1302H77.7062L78.9745 66.1925H96.6104L93.6217 52.0053L50.9529 50.4121ZM68.4378 1.15238L57.0284 48.8851L99.6975 50.4802L89.3059 1.15238H68.4378ZM74.5755 42.9878L76.294 33.0331L77.4802 25.3403C77.507 25.2029 77.5627 24.8049 77.6444 24.147C77.7261 23.4892 77.8622 22.3103 78.0536 20.609C78.1621 19.759 78.2642 18.9777 78.3602 18.2649C78.4562 17.5522 78.5313 16.9075 78.5855 16.3309L79.1173 22.3372C79.2537 23.5702 79.3629 24.5916 79.4449 25.4014C79.5269 26.2111 79.5949 26.8488 79.6492 27.3143C80.1679 31.4834 80.4544 33.8696 80.5086 34.4729C80.5337 34.8469 80.5885 35.2184 80.6724 35.5837L81.7773 42.989H74.5755V42.9878ZM129.694 48.1307C128.321 47.3558 127.161 46.2534 126.318 44.9218C125.328 43.3405 124.615 41.6017 124.21 39.7804C123.693 37.5136 123.446 35.1937 123.474 32.8689C123.474 27.5487 124.456 23.3805 126.42 20.3643C128.384 17.3748 131.112 15.8802 134.603 15.8804C137.278 15.8804 139.883 17.1553 142.419 19.7052V1.56283C139.722 0.552018 136.869 0.0230276 133.989 0C125.505 0 118.726 3.01659 113.654 9.04979C108.579 15.1107 106.042 23.1459 106.043 33.1552C106.043 40.0714 107.19 45.9551 109.448 50.8424L142.783 52.0874L143.155 45.126C140.181 47.8681 137.222 49.2394 134.277 49.2399C132.679 49.2704 131.1 48.8884 129.694 48.1307V48.1307ZM204.249 30.34C205.131 31.8934 206.203 33.331 207.44 34.6196C208.903 36.1406 210.491 37.5372 212.186 38.7949L214.968 40.9736C216.987 42.5913 217.997 44.2505 217.997 45.9512C218.006 46.5151 217.885 47.0734 217.643 47.5832C217.402 48.0929 217.047 48.5406 216.606 48.8917C215.587 49.7053 214.307 50.1221 213.005 50.0651C209.103 50.0651 205.475 47.7612 202.12 43.1535V54.3042L232.453 55.4367C234.204 52.201 235.099 48.4727 235.099 44.223C235.099 40.5488 234.308 37.3403 232.726 34.5974C231.172 31.8554 228.594 29.1813 224.992 26.5751L222.291 24.5606C219.972 22.8877 218.814 21.2007 218.814 19.4998C218.815 18.9841 218.933 18.4753 219.16 18.0121C219.386 17.5488 219.716 17.1433 220.122 16.8262C221.013 16.0426 222.17 15.6305 223.356 15.675C225.074 15.675 226.82 16.2988 228.593 17.5464C230.493 18.9298 232.105 20.6695 233.34 22.6686V3.25093C229.221 1.08598 225.129 0.00297871 221.064 0.00194124C216.508 0.00194124 212.62 1.37322 209.403 4.1158C208.226 5.07969 207.181 6.19311 206.293 7.42782C203.481 11.3471 201.939 16.0348 201.876 20.858C201.868 22.5202 202.06 24.1773 202.449 25.7935C202.841 27.383 203.446 28.9119 204.249 30.3385V30.34ZM0 66.1925H17.0631V49.1473L0 48.51V66.1925ZM31.28 47.9241L48.3435 48.5614V1.15238H31.2827V23.6121H23.1394V1.15238H6.07664V46.983L23.1394 47.6199V39.1198H31.2827V47.9241H31.28ZM25.2045 66.1925H42.2708V50.0884L25.2072 49.4511V66.1925H25.2045ZM177.937 1.15238L167.872 28.3835L168.321 1.15238H151.257V52.4033L168.142 53.0339L167.87 35.3771L174.799 53.2825L192.628 53.9482L182.316 31.7982L195.943 1.15238H177.937V1.15238ZM252.532 1.15238L239.495 55.6978L285.252 57.4061L273.401 1.15238H252.532ZM258.67 42.9878L260.389 33.0331L261.576 25.3403C261.602 25.2031 261.656 24.8053 261.739 24.147C261.822 23.4888 261.958 22.3094 262.149 20.609C262.257 19.759 262.359 18.9777 262.456 18.2649C262.552 17.5522 262.627 16.9075 262.679 16.3309L263.212 22.3372C263.349 23.5702 263.458 24.5916 263.54 25.4014C263.622 26.2111 263.69 26.8488 263.745 27.3143C264.263 31.4834 264.55 33.8696 264.604 34.4729C264.629 34.8469 264.684 35.2182 264.767 35.5837L265.872 42.989H258.67V42.9878ZM295.314 66.1925H311.927L312.767 60.1871L293.826 59.4798L295.314 66.1925ZM145.182 53.9303V66.1925H162.245L162.067 54.5598L145.182 53.9303ZM342.064 1.15238L338.952 20.8564C338.516 23.5985 338.121 26.6563 337.765 30.0299C337.41 33.4036 337.083 37.27 336.785 41.6292C335.773 31.922 334.587 23.5165 333.225 16.4127L330.362 1.15238H315.671L312.481 19.292C311.578 24.5313 310.84 30.0574 310.267 35.8704L309.738 40.848L309.165 35.0476C308.756 31.0722 308.019 25.6012 306.955 18.6345L304.172 1.15238H287.314L299.902 57.9543L318.846 58.6616L321.234 41.6308C321.507 39.7114 321.739 37.8878 321.931 36.1599C322.123 34.432 322.286 32.7868 322.421 31.2243C322.693 28.1529 322.898 26.0548 323.036 24.9302C323.09 25.4788 323.184 26.2736 323.324 27.3159C323.464 28.3582 323.623 29.6599 323.814 31.2243C324.195 34.378 324.768 38.1074 325.533 42.4124L328.463 59.0211L346.908 59.7093L358.716 1.15393H342.064V1.15238ZM323.386 66.1925H339.835L340.835 61.2348L322.39 60.5462L323.386 66.1925ZM261.826 58.285L263.071 66.1925H280.707L279.178 58.9328L261.826 58.285ZM196.045 64.6301C200.628 66.412 204.924 67.3032 208.934 67.3037C214.744 67.3037 219.545 65.2742 223.338 61.2154C224.529 59.9335 225.551 58.5038 226.378 56.9615L196.045 55.8293V64.6301V64.6301ZM168.724 54.8092L173.129 66.1925H191.545L186.554 55.4749L168.724 54.8092ZM231.275 66.1925H248.911L250.302 58.1302L233.417 57.2248L231.275 66.1925ZM16.8204 87.2793H27.9302C27.935 88.3243 27.8875 89.369 27.7878 90.4092C27.7028 91.2997 27.5111 92.1767 27.2167 93.0214C26.8419 94.1038 26.292 95.1174 25.5889 96.0217C24.9158 96.8817 24.0999 97.6196 23.1767 98.2032C22.2343 98.7957 21.2093 99.2456 20.1351 99.538C18.9999 99.8479 17.8279 100.002 16.6511 99.9971C15.084 100.017 13.5278 99.7345 12.0677 99.1649C10.7329 98.6407 9.52209 97.8439 8.51251 96.8255C7.50242 95.7901 6.71514 94.5587 6.19919 93.2073C5.63198 91.718 5.35095 90.135 5.37089 88.5414C5.353 86.959 5.62884 85.3871 6.18441 83.9054C6.69163 82.5539 7.48013 81.3255 8.49772 80.3016C9.52883 79.286 10.7587 78.4945 12.1101 77.9766C13.6144 77.405 15.2132 77.1228 16.8223 77.1448C18.888 77.099 20.9286 77.6044 22.734 78.6092C24.5087 79.6735 25.9141 81.2567 26.7603 83.1452L21.4486 85.355C21.0777 84.329 20.406 83.4388 19.5212 82.8005C18.7185 82.2798 17.779 82.0098 16.8223 82.0251C16.0356 82.0148 15.2562 82.1761 14.5382 82.4978C13.8584 82.8097 13.2578 83.2711 12.7812 83.8474C12.2733 84.474 11.8861 85.1894 11.6393 85.9573C11.3529 86.8479 11.2131 87.7791 11.2254 88.7145C11.2176 89.5788 11.3378 90.4396 11.5821 91.2687C11.7985 92.0132 12.1626 92.7066 12.6528 93.3073C13.1316 93.8838 13.7377 94.3411 14.4234 94.6433C15.1996 94.9722 16.0367 95.1332 16.8795 95.1156C17.418 95.1176 17.9548 95.0552 18.4785 94.9297C18.973 94.8142 19.4424 94.61 19.864 94.327C20.2754 94.046 20.6206 93.6786 20.8755 93.2505C21.1612 92.7558 21.3463 92.2094 21.4202 91.6429H16.8212V87.2812L16.8204 87.2793ZM84.9885 95.6342H76.9939L75.71 99.3948H69.7399L77.9354 77.7478H84.0466L92.2432 99.3948H86.2744L84.9885 95.6342ZM83.5039 91.3546L80.9902 84.1482L78.4777 91.3546H83.5039V91.3546ZM134.851 99.3937L138.506 77.7467H144.046L148.36 89.2926L152.643 77.7513H158.183L161.84 99.3983H156.27L154.416 86.9365L149.332 99.3968H147.101L142.277 86.9365L140.421 99.3968H134.852L134.851 99.3937ZM212.1 77.7467V99.3937H206.503V77.7467H212.101H212.1ZM257.736 99.3937V77.7467H263.334L273.671 90.9819V77.7498H279.24V99.3968H273.67L263.333 86.1615V99.3968H257.735L257.736 99.3937ZM335.754 87.2812H346.865C346.865 88.4293 346.815 89.4732 346.721 90.4112C346.636 91.3017 346.444 92.1788 346.149 93.0233C345.775 94.1055 345.226 95.1191 344.523 96.0237C343.85 96.8837 343.034 97.6216 342.111 98.2051C341.168 98.7975 340.143 99.2473 339.069 99.5399C337.933 99.8497 336.76 100.004 335.583 99.999C334.016 100.019 332.46 99.7361 331 99.1669C329.665 98.6421 328.454 97.8454 327.444 96.8275C326.436 95.791 325.649 94.5598 325.133 93.2093C324.033 90.207 324.028 86.9132 325.117 83.9074C325.624 82.5552 326.413 81.3266 327.432 80.3035C328.463 79.2882 329.692 78.4967 331.042 77.9786C332.547 77.4069 334.145 77.1247 335.754 77.1468C337.819 77.1008 339.859 77.6063 341.664 78.6112C343.44 79.6751 344.847 81.2583 345.694 83.1471L340.38 85.357C340.01 84.3309 339.339 83.4405 338.454 82.8024C337.651 82.2817 336.711 82.0118 335.754 82.0271C334.967 82.0169 334.188 82.1782 333.47 82.4998C332.791 82.8111 332.191 83.2726 331.716 83.8494C331.207 84.4755 330.819 85.191 330.572 85.9592C330.285 86.8497 330.144 87.7809 330.155 88.7165C330.148 89.5808 330.269 90.4415 330.513 91.2706C330.729 92.0159 331.095 92.7095 331.587 93.3092C332.066 93.8858 332.672 94.3432 333.357 94.6453C334.133 94.9746 334.97 95.1356 335.812 95.1176C336.351 95.1196 336.888 95.0572 337.411 94.9316C337.906 94.816 338.375 94.6119 338.796 94.329C339.208 94.0476 339.555 93.6803 339.812 93.2524C340.095 92.7567 340.278 92.2107 340.353 91.6449H335.754V87.2812Z" fill="white"/>
</svg>
