<svg width="379" height="100" viewBox="0 0 379 100" fill="none" xmlns="http://www.w3.org/2000/svg">
    <path d="M132.062 5.01904H144.253L157.257 27.3224H157.663L170.667 5.01904H182.857V48.8567H175.137V14.6326H174.73L161.32 36.5514H154.006L140.596 15.0171H140.19V48.8567H132.469L132.062 5.01904Z" fill="white"/>
    <path d="M183.264 49.2413H174.73V15.0171L161.32 36.936H153.6L140.596 15.0171V48.8567H132.062V5.01904H144.66L157.663 27.3224L170.667 5.01904H183.264V49.2413ZM175.543 48.4722H182.857V5.40358H171.073L158.069 27.707H157.257L144.253 5.40358H132.469V48.4722H139.783V14.6326H140.596L154.006 36.5514H160.914L174.324 14.6326H175.137L175.543 48.4722Z" fill="white"/>
    <path d="M199.518 49.2424C196.267 49.2424 194.235 48.4733 192.61 46.9352C190.985 45.0125 190.172 42.7052 190.172 40.398C190.172 37.3216 191.391 35.0144 193.423 33.0917C195.455 31.5535 198.705 30.3999 203.175 30.0154L210.896 29.6308V28.4772C210.896 27.3236 210.896 26.5545 210.49 25.4009C210.49 24.6318 210.083 23.8627 209.271 23.4782C208.458 23.0936 207.645 22.7091 206.833 22.3245C205.614 21.94 204.394 21.94 203.175 21.94C201.55 21.94 199.924 21.94 198.299 22.3245C196.674 22.7091 194.642 22.7091 192.61 23.0936L192.204 17.3255C196.267 16.5564 200.331 16.1719 204.801 16.1719C209.677 16.1719 213.334 16.941 215.772 18.8637C218.211 20.4018 219.43 23.4782 219.43 26.939V48.4733H212.522L211.709 44.6279H211.303C207.645 47.7042 203.582 49.2424 199.518 49.2424ZM203.175 43.4743C204.394 43.4743 206.02 43.0898 207.239 42.7052C208.458 42.3207 209.677 41.5516 210.896 40.7825V34.2453L205.614 34.6298C203.175 35.0144 201.55 35.3989 200.331 36.168C199.112 36.9371 198.705 38.4753 198.705 39.6289C198.705 41.9361 199.924 43.4743 203.175 43.4743Z" fill="white"/>
    <path d="M199.526 49.6232C196.275 49.6232 193.837 48.8542 192.212 47.316C190.586 45.7778 189.773 43.4706 189.773 40.3943C189.773 37.3179 190.993 34.6261 193.024 33.088C195.056 31.5498 198.307 30.3962 202.777 30.0117L210.498 29.6271V28.858C210.498 28.0889 210.498 26.9353 210.091 26.1662C210.091 25.3972 209.685 25.0126 208.872 24.6281C208.06 24.2435 207.653 23.859 206.841 23.859C203.996 23.4745 201.151 23.4745 198.307 23.859C196.682 23.859 194.65 24.2435 192.618 24.6281H192.212L191.805 18.0909H192.212C196.275 17.3218 200.745 16.9373 204.809 16.9373C209.685 16.9373 213.749 17.7063 216.187 19.629C218.625 21.5517 219.844 24.2435 219.844 28.0889V50.0078H212.123L211.31 46.1624C207.653 48.0851 203.59 49.2387 199.526 49.6232ZM203.183 22.3208C204.402 22.3208 205.621 22.3208 206.841 22.7054C207.653 22.7054 208.466 23.0899 209.279 23.859C210.091 24.2435 210.498 25.0126 210.498 25.7817C210.904 26.9353 210.904 27.7044 210.904 28.858V30.0117L202.777 30.3962C198.307 30.7807 195.056 31.5498 193.431 33.088C191.399 34.6261 190.586 36.9334 190.586 40.0097C190.586 42.317 191.399 44.6242 193.024 46.5469C194.65 48.0851 196.682 48.8542 199.932 48.8542C203.996 48.8542 208.06 47.316 211.31 44.6242H212.123L212.936 48.4696H219.438V26.9353C219.438 23.4745 218.219 20.7827 215.78 19.2445C213.342 17.7063 209.685 16.9373 204.402 16.9373C200.339 16.9373 196.275 17.3218 192.212 18.0909L192.618 23.4745C194.243 23.0899 196.275 23.0899 197.901 22.7054C199.932 22.3208 201.558 22.3208 203.183 22.3208ZM203.183 43.8551C200.339 43.8551 198.713 42.317 198.713 39.6252C198.713 38.087 199.12 36.9334 200.339 36.1643C201.151 35.3952 203.183 35.0107 205.621 34.6261L211.31 34.2416V41.1633C210.091 41.9324 208.872 42.7015 207.653 43.086C205.621 43.4706 204.402 43.4706 203.183 43.8551ZM210.498 34.6261L205.621 35.0107C203.183 35.0107 201.558 35.7798 200.745 36.1643C199.932 36.9334 199.12 38.087 199.526 39.2406C199.526 41.5479 200.745 43.086 203.59 43.086C204.809 43.086 206.028 42.7015 207.247 42.317C208.466 41.9324 209.685 41.1633 210.904 40.3943L210.498 34.6261Z" fill="white"/>
    <path d="M227.57 16.937H234.885L235.291 20.7824H235.697C238.136 19.6288 240.98 18.4752 243.825 17.7061C245.856 16.937 247.888 16.5525 249.92 16.5525C252.358 16.5525 254.796 17.3216 256.828 18.8597C258.454 20.3979 259.266 22.7051 259.266 25.3969V48.8539H250.326V28.0887C250.326 26.5506 250.326 25.3969 249.514 24.2433C248.701 23.4742 247.482 23.0897 246.263 23.0897C244.637 23.0897 243.012 23.4742 241.793 23.8588C239.761 24.2433 238.136 25.0124 236.51 25.7815V48.8539H227.977L227.57 16.937Z" fill="white"/>
    <path d="M259.251 49.2422H250.311V28.0925C250.311 26.9388 249.905 25.4007 249.498 24.2471C248.685 23.478 247.466 23.0934 246.247 23.0934C244.622 23.0934 243.403 23.478 241.777 23.8625C240.152 24.2471 238.12 25.0161 236.495 25.7852V49.2422H227.148V16.5562H234.869L235.276 20.4016C237.714 19.248 240.558 18.0944 243.403 17.3253C245.435 16.5562 247.466 16.1717 249.905 16.1717C252.343 16.1717 255.187 16.9408 256.813 18.4789C258.438 20.0171 259.251 22.3243 259.251 25.4007V49.2422V49.2422ZM250.717 48.4731H258.844V25.0161C258.844 22.3244 258.032 20.0171 256.406 18.4789C254.781 16.9408 252.343 16.1717 249.905 16.1717C247.873 16.1717 245.841 16.5562 243.809 16.9408C240.965 17.7099 238.12 18.8635 235.682 20.0171H234.869L234.463 16.1717H227.961V47.3195H236.088V24.2471C237.714 23.478 239.746 22.7089 241.371 22.3244C242.996 21.9398 244.622 21.5553 245.841 21.5553C247.06 21.5553 248.279 21.9398 249.498 22.7089C250.311 23.8625 250.717 25.4007 250.717 26.9388V48.4731Z" fill="white"/>
    <path d="M282.411 49.2422C271.033 49.2422 265.75 43.8587 265.75 32.707C265.75 21.5553 271.439 16.1717 282.411 16.1717C284.036 16.1717 285.662 16.1717 287.287 16.5562C288.912 16.5562 290.132 16.9408 291.757 17.3253V23.8625C290.132 23.478 288.912 23.478 287.287 23.478C286.068 23.478 284.443 23.0934 283.223 23.0934C279.973 23.0934 277.941 23.8625 276.315 25.4007C275.096 26.9388 274.284 29.2461 274.284 32.707C274.284 36.1678 275.096 38.8596 276.315 40.0132C277.534 41.5514 279.973 42.3205 283.223 42.3205C284.849 42.3205 286.474 42.3205 287.693 42.3205C288.913 42.3205 290.538 41.9359 291.757 41.9359V48.4731C290.538 48.8577 288.912 49.2422 287.287 49.2422C285.662 49.2422 284.036 49.2422 282.411 49.2422Z" fill="white"/>
    <path d="M282.419 49.6268C271.041 49.6268 265.352 43.8587 265.352 32.707C265.352 21.5553 271.041 16.1717 282.419 16.1717C284.044 16.1717 285.669 16.1717 287.295 16.5562C288.92 16.5562 290.546 16.9408 291.765 17.3253H292.171V24.2471H291.765C290.139 23.8625 288.92 23.8625 287.295 23.8625C286.076 23.8625 284.45 23.478 283.231 23.478C279.98 23.478 277.949 24.2471 276.73 25.7852C275.511 27.3234 274.698 29.6306 274.698 33.0915C274.698 36.5524 275.511 38.8596 276.73 40.3978C277.949 41.9359 280.387 42.705 283.231 42.705C284.857 42.705 286.482 42.705 287.701 42.705C288.92 42.705 290.546 42.3205 291.765 42.3205H292.171V49.2422H291.765C290.139 49.6268 288.92 50.0113 287.295 50.0113C285.669 49.6268 284.044 49.6268 282.419 49.6268ZM282.419 16.5562C271.447 16.5562 265.758 21.9398 265.758 32.707C265.758 43.4741 271.041 48.8577 282.419 48.8577C284.044 48.8577 285.669 48.8577 287.295 48.4731C288.514 48.4731 290.139 48.0886 291.359 47.7041V41.9359C290.139 42.3205 288.92 42.3205 287.701 42.3205C286.482 42.3205 284.857 42.3205 283.231 42.3205C279.98 42.3205 277.542 41.5514 276.323 40.0132C274.698 38.4751 274.291 35.7833 274.291 32.3224C274.291 28.8615 275.104 26.1698 276.323 24.6316C277.542 23.0934 279.98 22.3244 283.231 22.3244C284.45 22.3244 286.076 22.3244 287.295 22.7089C288.92 22.7089 290.139 23.0934 291.359 23.0934V17.7099C290.139 17.3253 288.514 17.3253 287.295 16.9408C285.669 16.9408 284.044 16.5562 282.419 16.5562Z" fill="white"/>
    <path d="M305.979 49.2422C302.728 49.2422 300.696 48.4731 299.071 46.935C297.446 45.3968 296.633 43.0896 296.633 40.3978C296.633 37.3215 297.852 35.0142 299.884 33.0915C301.915 31.5533 305.166 30.3997 309.636 30.0152L317.357 29.6306V28.477C317.357 27.3234 317.357 26.5543 316.951 25.4007C316.951 24.6316 316.544 23.8625 315.732 23.478C314.919 23.0934 314.106 22.7089 313.294 22.3244C312.074 21.9398 310.855 21.9398 309.636 21.9398C308.011 21.9398 306.385 21.9398 304.76 22.3244C302.728 22.3244 301.103 22.7089 299.071 23.0934L298.665 17.3253C302.728 16.5562 306.792 16.1717 311.262 16.1717C316.138 16.1717 319.795 16.9408 322.233 18.8635C324.672 20.4016 325.891 23.478 325.891 26.9388V48.4731H318.576L317.763 44.6277H317.357C314.106 47.7041 310.043 49.2422 305.979 49.2422ZM309.636 43.4741C310.855 43.4741 312.481 43.0896 313.7 42.705C314.919 42.3205 316.138 41.5514 317.357 40.7823V34.2451L312.074 34.6297C309.636 35.0142 308.011 35.3987 306.792 36.1678C305.573 36.9369 305.166 38.4751 305.166 39.6287C305.166 41.9359 306.792 43.4741 309.636 43.4741Z" fill="white"/>
    <path d="M305.987 49.6268C302.736 49.6268 300.298 48.8577 298.673 47.3195C297.047 45.7814 296.234 43.4741 296.234 40.3978C296.234 37.3215 297.453 34.6297 299.485 33.0915C301.517 31.5533 304.768 30.3997 309.238 30.0152L316.959 29.6306V28.8615C316.959 28.0925 316.959 26.9388 316.552 26.1698C316.552 25.4007 316.146 25.0161 315.333 24.6316C314.521 24.2471 314.114 23.8625 313.301 23.8625C310.457 23.478 307.612 23.478 304.768 23.8625C303.142 23.8625 301.111 24.2471 299.079 24.6316V23.8625L298.673 17.3253H299.079C303.142 16.5562 307.612 16.1717 311.676 16.1717C316.552 16.1717 320.616 16.9408 323.054 18.8635C325.492 20.7862 326.711 23.478 326.711 27.3234V49.2422H318.991L318.178 45.3968C314.114 48.0886 310.051 49.2422 305.987 49.6268ZM309.644 22.3244C310.863 22.3244 312.082 22.3244 313.301 22.7089C314.114 22.7089 314.927 23.0934 315.74 23.8625C316.552 24.2471 316.959 25.0161 316.959 25.7852C317.365 26.9388 317.365 27.7079 317.365 28.8615V30.0152L309.238 30.3997C304.768 30.7843 301.517 31.5533 299.892 33.0915C297.86 34.6297 297.047 36.9369 297.047 40.0132C297.047 42.3205 297.86 44.6277 299.485 46.1659C301.111 47.7041 303.142 48.4731 306.393 48.4731C310.457 48.4731 314.521 46.935 317.771 44.2432H318.584L319.397 48.0886H325.899V26.5543C325.899 23.0934 324.68 20.4016 322.241 18.8635C319.803 17.3253 316.146 16.1717 311.27 16.1717C307.206 16.1717 303.142 16.5562 299.079 17.3253L299.485 22.7089C301.111 22.3244 303.142 22.3243 304.768 21.9398C306.393 22.3243 308.019 22.3244 309.644 22.3244ZM309.644 43.8587C306.8 43.8587 305.174 42.3205 305.174 39.6287C305.174 38.0905 305.581 36.9369 306.8 36.1678C307.612 35.3987 309.644 35.0142 312.082 34.6297L317.771 34.2451V41.1669C316.552 41.9359 315.333 42.705 314.114 43.0896C312.082 43.4741 310.863 43.4741 309.644 43.8587ZM316.959 34.6297L312.082 35.0142C309.644 35.0142 308.019 35.7833 307.206 36.1678C306.393 36.9369 305.581 38.0905 305.987 39.2442C305.987 41.5514 307.206 43.0896 310.051 43.0896C311.27 43.0896 312.489 42.705 313.708 42.3205C314.927 41.9359 316.146 41.1669 317.365 40.3978L316.959 34.6297Z" fill="white"/>
    <path d="M334.031 1.17389H342.565V48.857H334.031V1.17389Z" fill="white"/>
    <path d="M342.956 49.2373H333.609V0.785095H342.956V49.2373ZM334.422 48.4682H342.549V1.55418H334.422V48.4682Z" fill="white"/>
    <path d="M358.393 49.2422C355.142 49.2422 353.11 48.4731 351.485 46.935C349.86 45.0123 349.047 42.705 349.047 40.3978C349.047 37.3215 349.86 35.0142 352.298 33.0915C354.33 31.5533 357.58 30.3997 362.05 30.0152L370.177 29.6306V28.477C370.177 27.3234 370.177 26.5543 369.771 25.4007C369.771 24.6316 369.365 23.8625 368.552 23.478C367.739 23.0934 366.927 22.7089 366.114 22.3244C364.895 21.9398 363.676 21.9398 362.457 21.9398C360.831 21.9398 359.206 21.9398 357.58 22.3244C355.955 22.7089 353.923 22.7089 351.891 23.0934L351.485 17.3253C355.549 16.5562 359.612 16.1717 364.082 16.1717C368.958 16.1717 372.616 16.9408 375.054 18.8635C377.492 20.4016 378.711 23.478 378.711 26.9388V48.4731H371.803L370.99 44.6277H370.584C366.52 47.7041 362.457 49.2422 358.393 49.2422ZM362.05 43.4741C363.269 43.4741 364.895 43.0896 366.114 42.705C367.333 42.3205 368.552 41.5514 369.771 40.7823V34.2451L364.488 34.6297C362.05 35.0142 360.425 35.3987 359.206 36.1678C357.987 36.9369 357.58 38.4751 357.58 39.6287C357.58 41.9359 359.206 43.4741 362.05 43.4741Z" fill="white"/>
    <path d="M358.424 49.623C355.174 49.623 352.735 48.8539 351.11 47.3158C349.485 45.7776 348.672 43.4704 348.672 40.394C348.672 37.3177 349.891 34.6259 351.923 33.0878C353.955 31.5496 357.205 30.396 361.675 30.0114L369.396 29.6269V28.8578C369.396 28.0887 369.396 26.9351 368.99 26.166C368.99 25.3969 368.583 25.0124 367.771 24.6279C366.958 24.2433 366.552 23.8588 365.739 23.8588C362.894 23.4742 360.05 23.4742 357.205 23.8588C355.58 23.8588 353.548 24.2433 351.516 24.6279H351.11L350.704 18.0907H351.11C355.174 17.3216 359.644 16.937 363.707 16.937C368.583 16.937 372.647 17.7061 375.085 19.6288C377.523 21.5515 378.742 24.2433 378.742 28.0887V50.0076H371.022L370.209 46.1622C366.958 47.7003 362.488 49.2385 358.424 49.623ZM362.082 22.3206C363.301 22.3206 364.52 22.3206 365.739 22.7051C366.552 22.7051 367.364 23.0897 368.177 23.8588C368.99 24.2433 369.396 25.0124 369.396 25.7815C369.803 26.9351 369.803 27.7042 369.803 28.8578V30.0114L361.675 30.396C357.205 30.7805 353.955 31.5496 352.329 33.0878C350.297 34.6259 349.485 36.9332 349.485 40.0095C349.485 42.3167 350.297 44.624 351.923 46.5467C353.548 48.0849 355.58 48.8539 358.831 48.8539C362.894 48.8539 366.958 47.3158 370.209 44.624H371.022L371.834 48.4694H378.336V26.9351C378.336 23.4742 377.117 20.7824 374.679 19.2443C372.241 17.7061 368.583 16.5525 363.707 16.5525C359.644 16.5525 355.58 16.937 351.516 17.7061L351.923 23.0897C353.548 22.7051 355.58 22.7051 357.205 22.3206C358.831 22.3206 360.456 22.3206 362.082 22.3206ZM362.082 43.8549C359.237 43.8549 357.612 42.3167 357.612 39.625C357.612 38.0868 358.018 36.9332 359.237 36.1641C360.05 35.395 362.082 35.0105 364.52 34.6259L370.209 34.2414V41.1631C368.99 41.9322 367.771 42.7013 366.552 43.0858C364.52 43.4704 363.301 43.4704 362.082 43.8549ZM369.396 34.6259L364.52 35.0105C362.082 35.0105 360.456 35.7795 359.644 36.1641C358.831 36.9332 358.018 38.0868 358.424 39.2404C358.424 41.5477 359.644 43.0858 362.488 43.0858C363.707 43.0858 364.926 42.7013 366.145 42.3167C367.364 41.9322 368.583 41.1631 369.803 40.394L369.396 34.6259Z" fill="white"/>
    <path d="M87.7736 69.2369C74.7701 68.4679 66.6429 60.777 66.6429 48.4717C66.6429 36.1664 74.7701 28.4756 87.7736 27.7065C96.3071 27.322 102.809 21.1693 102.402 13.4785C101.996 6.17219 95.9007 0.0195312 87.7736 0.0195312C79.6464 0.0195312 72.7383 5.78765 73.1446 13.4785C73.551 23.092 69.081 28.8601 60.1411 31.9364C50.7949 35.3973 42.6677 33.4746 34.9469 27.7065C31.2896 25.0147 29.6642 21.1693 29.6642 16.5548C29.6642 13.863 29.2579 11.1712 28.4451 8.86398C26.007 2.32678 18.6925 -1.13409 11.3781 0.404072C3.65723 2.32678 -1.21908 9.63306 0.406359 17.3239C2.0318 23.092 7.72082 27.7065 14.2226 27.7065C23.1625 28.091 30.0706 31.5519 34.1342 39.2427C37.385 45.0108 37.385 51.9326 34.1342 57.7007C30.0706 65.3915 22.7561 68.8524 14.2226 69.2369C6.09539 69.6215 0 75.7741 0 83.465C0.406359 89.6176 4.87631 95.0012 11.3781 96.5394C18.6925 98.4621 26.007 94.6166 28.4451 88.0794C29.2579 85.3877 29.6642 83.0804 29.6642 80.3886C29.6642 75.7741 31.2896 71.9287 34.9469 69.2369C42.6677 63.4688 50.7949 61.5461 60.1411 65.007C69.081 68.0833 73.551 73.8514 73.1446 83.465C72.7383 91.5403 79.6464 97.3084 87.7736 96.9239C95.4944 96.9239 101.996 90.7712 102.402 83.465C102.402 75.7741 96.3071 69.6215 87.7736 69.2369Z" fill="url(#paint0_linear_3847_34334)"/>
    <path d="M51.2071 69.2343C43.0799 69.2343 36.5781 75.7715 36.5781 83.0777C36.5781 90.7686 43.4862 96.9212 51.2071 96.9212C58.9279 96.9212 65.836 90.384 65.836 83.0777C65.836 75.3869 59.3342 69.2343 51.2071 69.2343Z" fill="white"/>
    <path d="M15.0274 34.6281C6.90018 34.6281 0.398438 40.7807 0.398438 48.4715C0.398438 56.1624 6.90018 62.315 15.0274 62.315C23.1545 62.315 29.6563 56.1624 29.6563 48.4715V48.087C29.6563 40.7807 23.1545 34.6281 15.0274 34.6281Z" fill="white"/>
    <path d="M102.409 48.087C102.002 40.3962 95.5006 34.6281 87.3734 34.6281C79.2463 35.0126 72.7445 41.5498 73.1509 49.2406C73.5572 56.5469 79.6526 62.315 87.3734 62.6996C95.5006 62.6996 102.002 56.9314 102.409 49.2406V48.087Z" fill="white"/>
    <path d="M51.2017 27.7041C59.3289 27.7041 65.8306 21.1669 65.8306 13.8606C65.8306 6.55429 59.3289 0.401636 51.608 0.0170944C43.4809 -0.367447 36.5728 5.78521 36.5728 13.476C36.1664 21.1669 42.6681 27.7041 50.7953 27.7041H51.2017Z" fill="white"/>
    <path d="M154.835 87.3084C153.616 88.8466 151.99 90.0002 149.959 90.3847C147.52 91.1538 145.489 91.5384 143.05 91.5384C140.612 91.5384 138.174 91.1538 136.142 90.0002C134.111 88.8466 132.485 87.3084 131.266 85.0012C130.047 82.6939 129.641 80.0021 129.641 77.6949V75.3876C129.641 70.7732 130.86 67.3123 133.298 64.6205C135.736 61.9287 138.987 60.7751 143.05 60.7751C146.708 60.7751 149.552 61.5442 151.584 63.0823C153.616 65.005 155.241 67.3123 155.241 70.3886H149.959C149.146 66.9277 147.114 65.005 143.457 65.005C141.425 65.005 138.987 65.7741 137.768 67.6968C136.549 69.235 135.736 71.9268 135.736 75.0031V77.3103C135.736 80.3867 136.549 83.0785 137.768 85.0012C139.393 86.9239 141.425 87.693 143.863 87.693C146.708 87.693 148.74 86.9239 149.959 85.7702V80.0021H143.457V76.1567H155.648L154.835 87.3084Z" fill="white"/>
    <path d="M175.152 91.1573C174.746 90.3882 174.746 89.6191 174.34 89.2345C172.714 90.7727 170.683 91.9263 168.244 91.9263C166.213 91.9263 164.181 91.1572 162.555 90.0036C160.93 88.85 160.117 86.9273 160.117 85.3891C160.117 83.0819 160.93 81.1592 162.962 80.0056C164.993 78.8519 167.432 78.0828 171.089 78.0828H174.34V76.5447C174.34 75.3911 173.933 74.622 173.527 73.8529C172.714 73.0838 171.495 72.6993 170.276 72.6993C169.057 72.6993 168.244 73.0838 167.432 73.4684C166.619 73.8529 166.213 74.622 166.213 75.7756H160.93C160.93 74.622 161.336 73.4684 162.149 72.3147C162.962 71.1611 164.181 70.392 165.806 69.6229C167.432 68.8539 169.057 68.4693 170.683 68.8539C173.121 68.8539 175.559 69.6229 177.184 70.7766C178.81 72.3147 179.622 74.2374 179.622 76.1601V86.1582C179.622 87.6964 180.029 89.6191 180.435 91.1573V91.5418L175.152 91.1573ZM169.463 87.3118C170.683 87.3118 171.495 86.9273 172.308 86.5428C173.121 86.1582 173.933 85.3891 174.34 84.62V80.3901H171.495C169.87 80.3901 168.244 80.7746 167.025 81.1592C166.213 81.9283 165.4 82.6973 165.4 83.851C165.4 84.62 165.806 85.3891 166.213 86.1582C167.432 87.3118 168.244 87.6964 169.463 87.3118Z" fill="white"/>
    <path d="M190.572 68.8487V71.1559C192.197 69.2332 194.635 68.4641 197.48 68.4641C200.73 68.4641 202.762 69.6177 203.981 71.925C205.607 69.6177 208.451 68.4641 211.296 68.4641C213.734 68.4641 215.766 69.2332 216.985 70.3868C218.204 71.925 219.017 73.8477 219.017 76.5395V91.152H213.734V76.5395C213.734 75.3859 213.328 74.2322 212.921 73.4632C212.109 72.6941 210.889 72.3095 209.67 72.3095C208.451 72.3095 207.639 72.6941 206.826 73.0786C206.013 73.8477 205.607 74.6168 205.2 75.3859V90.7675H199.918V76.1549C199.918 73.4631 198.292 72.3095 195.854 72.3095C193.822 72.3095 192.197 73.0786 191.384 74.6168V90.7675H186.102V68.4641L190.572 68.8487Z" fill="white"/>
    <path d="M225.125 62.6967C225.125 61.9276 225.531 61.1586 225.938 60.774C226.344 60.3895 227.157 60.0049 227.969 60.0049C228.782 60.0049 229.595 60.3895 230.408 60.774C230.814 61.1586 231.22 61.9276 231.22 62.6967C231.22 63.4658 230.814 64.2349 230.408 64.6194C230.001 65.004 229.189 65.3885 227.969 65.3885C227.157 65.3885 226.344 65.004 225.938 64.6194C225.531 64.2349 225.125 63.4658 225.125 62.6967ZM230.814 91.1528H225.531V68.8494H230.814V91.1528Z" fill="white"/>
    <path d="M242.197 68.8487V71.5404C243.822 69.6177 246.26 68.4641 249.105 68.4641C253.981 68.4641 256.419 71.1559 256.826 76.5395V91.5366H251.543V76.924C251.543 75.7704 251.137 74.6168 250.73 73.8477C249.917 73.0786 248.698 72.6941 247.479 72.6941C245.447 72.6941 243.416 73.8477 242.603 75.3859V91.152H237.32V68.8487C237.32 68.8487 242.197 68.8487 242.197 68.8487Z" fill="white"/>
    <path d="M261.703 79.6195C261.703 76.1587 262.516 73.4669 264.141 71.1596C265.767 69.2369 268.205 68.0833 271.049 68.0833C273.488 68.0833 275.926 68.8524 277.551 70.7751L277.957 68.4678H282.834V90.3867C282.834 93.0785 282.021 95.3857 279.989 97.3084C277.957 99.2311 275.113 100 272.268 100C270.643 100 268.611 99.6157 266.986 98.8466C265.36 98.4621 264.141 97.3084 263.329 96.1548L265.767 93.0785C267.392 95.0012 269.424 95.7703 271.862 95.7703C273.488 95.7703 274.707 95.3857 275.926 94.2321C277.145 93.0785 277.551 91.5403 277.551 90.3867V89.2331C275.926 90.7712 273.894 91.9248 271.456 91.5403C268.611 91.5403 266.173 90.3867 264.548 88.464C262.516 86.1567 261.703 83.465 261.703 79.6195ZM266.986 80.0041C266.986 81.9268 267.392 83.8495 268.611 85.3877C269.424 86.5413 271.049 87.3104 272.675 87.3104C274.707 87.3104 276.332 86.5413 277.551 84.6186V75.005C276.738 73.4669 274.707 72.3133 272.675 72.3133C271.049 72.3133 269.424 73.0823 268.611 74.236C266.986 76.1587 266.579 78.0814 266.986 80.0041Z" fill="white"/>
    <defs>
        <linearGradient id="paint0_linear_3847_34334" x1="4.47361" y1="4.20334" x2="92.9905" y2="97.7425" gradientUnits="userSpaceOnUse">
            <stop offset="0.02" stop-color="#FFCE00"/>
            <stop offset="0.44" stop-color="#FF1C03"/>
            <stop offset="1" stop-color="#DE0021"/>
        </linearGradient>
    </defs>
</svg>
