<svg width="299" height="100" viewBox="0 0 299 100" fill="none" xmlns="http://www.w3.org/2000/svg">
    <path d="M155.996 0H152.992V100H155.996V80.6998H194.332V69.0805H164.89V55.7033H190.057V43.9735H164.89V30.9223H194.332V19.1925H155.996V0Z" fill="#77BD1F"/>
    <path d="M36.6049 56.908L25.7489 40.2418L11.6622 19.4105L11.5458 19.1922H0V80.6995H12.8147V42.9865L22.4019 57.6793L37.8709 80.6995H49.5361V19.1922H36.6049V56.908Z" fill="white"/>
    <path d="M56.8125 80.6997H99.1829V69.0804H69.6272V55.7032H94.9133V43.9734H69.6272V30.9222H99.1829V19.1924H56.8125V80.6997Z" fill="white"/>
    <path d="M104.367 31.0326H119.263V80.6995H132.194V31.0326H146.863V19.1922H104.367V31.0326Z" fill="white"/>
    <path d="M237.396 57.0176L226.543 40.3514L212.573 19.5172L212.34 19.2989H200.797V80.8147H213.612V42.9854L223.193 57.7831L238.665 80.8147H250.33V19.2989H237.396V57.0176Z" fill="#77BD1F"/>
    <path d="M255.648 19.2989V31.1393H270.425V80.8147H283.362V31.1393H298.138V19.2989H255.648Z" fill="#77BD1F"/>
</svg>
