<svg width="388" height="100" viewBox="0 0 388 100" fill="none" xmlns="http://www.w3.org/2000/svg">
    <path d="M301.1 25.3173C299.706 25.3173 298.312 25.3173 296.918 25.3173C295.064 25.3173 295.064 25.3173 295.064 23.5182C294.595 20.8194 293.67 18.5705 292.272 16.7713C290.418 14.0726 287.16 12.7233 283.908 12.2735C280.655 11.8237 277.407 12.2735 274.614 13.6228C270.897 15.422 268.573 18.5705 268.113 22.6186C267.644 25.3173 267.644 25.3173 264.861 25.3173C262.068 25.3173 259.745 25.3173 256.961 25.3173C256.032 25.3173 255.567 24.8675 255.567 23.9679C255.098 20.8194 253.709 17.6709 250.921 14.9722C247.668 12.2735 243.951 11.3739 239.768 11.8237C232.798 12.7233 229.081 16.7713 228.152 23.0684C227.687 24.8675 227.687 24.8675 225.828 24.8675C223.04 24.8675 220.252 24.8675 217.004 24.8675C216.075 24.8675 215.606 24.4177 216.075 23.5182C217.004 19.4701 217.929 15.422 220.252 11.8237C223.045 7.32581 226.758 3.72751 231.869 1.92835C237.905 -0.320583 243.946 -0.770373 249.522 1.47857C253.239 2.82793 256.023 5.07687 258.815 7.7756C259.74 8.67517 260.209 9.57475 261.139 10.0245C261.603 10.9241 262.063 10.4743 262.993 10.0245C265.316 7.32581 267.639 5.07687 270.432 3.27772C275.079 0.578993 279.726 -0.320582 284.837 0.129206C288.09 0.578994 290.878 1.02878 293.666 2.37814C297.843 4.17729 301.1 7.32581 303.424 11.3739C305.747 14.9722 306.676 19.4701 307.606 23.5182C307.606 24.4177 307.606 24.8675 306.207 24.8675C304.353 25.3173 302.959 25.3173 301.1 25.3173Z" fill="#FFFE00"/>
    <path d="M67.3897 28.9131C68.7838 28.9131 70.6424 28.9131 72.0365 28.9131C72.9658 28.9131 73.4305 29.3629 73.4305 30.2624C73.4305 32.5114 73.8951 35.2101 74.3598 37.459C75.7538 43.3063 82.2592 48.2539 88.2999 48.2539C92.0173 48.2539 95.7347 48.2539 98.9874 46.9046C103.634 45.1054 106.887 41.9569 108.745 37.459C109.675 35.2101 109.675 32.9612 109.675 30.2624C109.675 29.3629 109.675 28.9131 111.069 28.9131C114.322 28.9131 117.11 28.9131 120.362 28.9131C121.292 28.9131 121.292 29.3629 121.756 30.2624C122.221 37.0093 120.362 43.3063 116.645 49.1535C113.392 54.1012 108.745 57.2497 102.705 58.5991C94.3407 60.848 85.9766 60.848 77.6125 57.2497C72.5011 55.0008 68.7838 51.4025 65.9957 46.9046C62.743 41.9569 61.349 36.1097 61.8137 30.2624C61.8137 29.3629 62.2784 28.9131 63.2077 28.9131C64.137 28.9131 65.9957 28.4633 67.3897 28.9131C67.3897 28.4633 67.3897 28.4633 67.3897 28.9131Z" fill="#FFFE00"/>
    <path d="M115.717 25.3182C114.323 25.3182 112.929 25.3182 111.535 25.3182C110.606 25.3182 109.676 24.8684 109.676 23.9689C109.212 20.8204 107.353 18.1216 105.03 15.8727C102.706 14.0735 100.383 13.174 97.5948 12.2744C92.9481 11.3748 87.8367 11.3748 83.19 13.174C78.5433 14.9731 75.2906 18.5714 73.8966 23.5191C73.4319 24.8684 72.9672 25.3182 71.5732 25.3182C68.7852 25.3182 65.5325 25.3182 62.7445 25.3182C61.8151 25.3182 61.3504 24.8684 61.8151 23.9689C62.7444 20.3706 63.6738 16.3225 65.9971 13.174C68.7852 8.67609 72.5025 5.07779 77.6139 3.27864C83.19 1.0297 89.2307 0.130127 95.2714 0.579915C101.777 1.0297 107.818 2.82885 112.464 7.32673C115.252 10.0255 118.04 13.174 119.434 16.7723C120.364 19.0212 120.828 21.7199 121.758 23.9689C122.222 25.3182 121.758 25.3182 120.364 25.3182C118.505 25.3182 117.111 25.3182 115.717 25.3182Z" fill="#FFFE00"/>
    <path d="M13.9401 1.0306C17.6575 1.0306 21.3749 1.0306 25.0922 1.0306C31.5976 1.48039 37.1737 3.72933 41.8204 7.77741C46.9318 12.2753 48.7905 17.6727 49.2551 23.9698C49.2551 24.8693 48.7905 25.3191 47.8611 25.3191C44.6084 25.3191 41.8204 25.3191 38.5677 25.3191C37.6384 25.3191 37.1737 24.8693 37.1737 23.9698C36.709 20.3715 35.7797 17.2229 32.527 14.974C30.6683 13.6246 28.3449 12.7251 26.0216 12.2753C21.8395 12.2753 17.6575 12.2753 13.4755 12.2753C12.5461 12.2753 12.0815 12.7251 12.0815 13.6247C12.0815 16.7732 12.0815 20.3715 12.0815 23.52C12.0815 25.3191 12.0814 25.3191 10.2228 25.3191C7.43474 25.3191 4.64671 25.3191 1.39401 25.3191C0.464672 25.3191 0 24.8693 0 23.9698C0 16.7732 0 9.57656 0 2.37996C0 1.0306 0.464672 0.580811 1.39401 0.580811C6.04073 1.0306 10.2228 1.0306 13.9401 1.0306Z" fill="#FFFE00"/>
    <path d="M153.337 59.4991C147.761 59.4991 142.185 59.4991 136.609 59.4991C134.75 59.4991 134.75 59.4991 134.75 57.7044C134.75 48.2544 134.75 39.2587 134.75 29.8176C134.75 28.9181 135.215 28.4683 136.144 28.4683C139.397 28.4683 142.649 28.4683 145.437 28.4683C146.367 28.4683 146.367 28.918 146.367 29.3678C146.367 34.7653 146.367 40.1627 146.367 46.01C146.367 47.8091 146.367 47.8091 148.225 47.8091C155.66 47.8091 162.63 47.8091 170.065 47.8091C170.994 47.8091 171.459 48.2589 171.459 49.1585C171.459 52.307 171.459 55.4555 171.459 58.1542C171.459 59.0538 170.994 59.5036 170.065 59.5036C164.954 59.4991 158.913 59.4991 153.337 59.4991Z" fill="#FFFE00"/>
    <path d="M367.559 0.580811C373.599 0.580811 380.105 0.580811 386.145 0.580811C387.075 0.580811 387.539 1.0306 387.075 1.93017C387.075 5.07869 387.075 8.2272 387.075 11.3757C387.075 12.2753 386.61 12.7251 385.681 12.7251C381.963 12.7251 378.241 12.7251 374.529 12.7251C373.599 12.7251 373.135 13.1749 373.135 14.0744C373.135 17.2229 373.135 20.8212 373.135 23.9698C373.135 25.7689 373.135 25.7689 371.276 25.7689C368.488 25.7689 365.705 25.7689 362.452 25.7689C361.523 25.7689 361.058 25.3191 361.058 24.4196C361.058 20.8212 361.058 17.223 361.058 13.6247C361.058 12.7251 361.058 12.2753 359.659 12.2753C355.942 12.2753 351.764 12.2753 348.042 12.2753C347.118 12.2753 346.648 11.8255 346.648 10.9259C346.648 8.2272 346.648 5.07869 346.648 2.37996C346.648 0.580813 346.648 0.580811 348.507 0.580811C355.477 0.580811 361.518 0.580811 367.559 0.580811Z" fill="#FFFE00"/>
    <path d="M361.508 44.2108C361.508 39.7129 361.508 34.7653 361.508 30.2674C361.508 28.9181 361.972 28.4683 362.902 28.4683C366.155 28.4683 368.943 28.4683 372.195 28.4683C373.125 28.4683 373.589 28.9181 373.589 29.8176C373.589 39.2632 373.589 48.7087 373.589 58.1542C373.589 59.0538 373.125 59.5036 372.195 59.5036C369.407 59.5036 366.155 59.5036 363.371 59.5036C362.442 59.5036 361.972 59.0538 361.972 58.1542C361.508 53.6564 361.508 48.7087 361.508 44.2108Z" fill="#FFFE00"/>
    <path d="M187.25 44.2108C187.25 39.7129 187.25 35.2151 187.25 30.2674C187.25 28.9181 187.715 28.4683 189.109 28.4683C191.897 28.4683 195.149 28.4683 197.937 28.4683C198.867 28.4683 199.331 28.9181 199.331 29.8176C199.331 39.2632 199.331 48.7087 199.331 58.1542C199.331 59.0538 198.867 59.5036 197.937 59.5036C195.149 59.5036 191.897 59.5036 189.109 59.5036C187.715 59.5036 187.715 59.0538 187.715 58.1542C187.25 53.2066 187.25 48.7087 187.25 44.2108Z" fill="#FFFE00"/>
    <path d="M215.613 44.2108C215.613 39.2632 215.613 34.7653 215.613 29.8176C215.613 28.918 216.082 28.4683 217.012 28.4683C220.26 28.4683 223.513 28.4683 226.305 28.4683C227.23 28.4683 227.23 28.9181 227.23 29.3678C227.23 30.2674 227.23 31.6168 227.23 32.5164C227.23 40.6125 227.23 48.2589 227.23 56.3551C227.23 56.8094 227.23 57.7089 227.23 58.1542C227.23 59.0538 226.765 59.0538 225.836 59.0538C222.583 59.0538 219.795 59.0538 216.542 59.0538C215.613 59.0538 215.148 58.5995 215.148 57.7044C215.613 53.6564 215.613 48.7087 215.613 44.2108Z" fill="#FFFE00"/>
    <path d="M322.023 44.2108C322.023 39.2632 322.023 34.7653 322.023 29.8176C322.023 28.9181 322.023 28.4683 323.417 28.4683C326.67 28.4683 329.923 28.4683 333.18 28.4683C334.105 28.4683 334.105 28.9181 334.105 29.3678C334.105 30.2674 334.105 31.167 334.105 32.5164C334.105 41.0623 334.105 49.6083 334.105 58.1542C334.105 59.5036 333.64 59.5036 332.711 59.5036C329.923 59.5036 326.67 59.5036 323.887 59.5036C322.957 59.5036 322.488 59.0538 322.488 58.1542C322.023 53.6564 322.023 48.7087 322.023 44.2108Z" fill="#FFFE00"/>
    <path d="M255.57 44.2045C255.57 39.7066 255.57 34.7589 255.57 30.261C255.57 28.9117 256.035 28.9117 256.964 28.9117C260.217 28.9117 263.005 28.9117 266.258 28.9117C267.187 28.9117 267.652 29.3615 267.652 30.261C267.652 32.0602 267.652 33.4096 267.652 35.2087C267.652 42.8551 267.652 50.5015 267.652 58.1479C267.652 59.4972 267.652 59.947 265.798 59.947C263.005 59.947 260.222 59.947 257.429 59.947C256.035 59.947 255.57 59.4972 255.57 58.1479C255.57 53.2002 255.57 48.7023 255.57 44.2045Z" fill="#FFFE00"/>
    <path d="M307.14 43.7547C307.14 48.7068 307.14 53.2047 307.14 58.1479C307.14 59.4972 306.676 59.4972 305.746 59.4972C302.958 59.4972 299.705 59.4972 296.917 59.4972C295.993 59.4972 295.523 59.0474 295.523 58.1479C295.523 49.6019 295.523 41.0559 295.523 32.51C295.523 31.6104 295.523 30.7108 295.523 29.8113C295.523 28.9117 295.993 28.9117 296.453 28.9117C299.705 28.9117 302.958 28.9117 306.211 28.9117C307.14 28.9117 307.14 29.3615 307.14 30.261C307.14 34.3091 307.14 39.2568 307.14 43.7547Z" fill="#FFFE00"/>
    <path d="M37.1678 44.2121C37.1678 39.7142 37.1678 35.2164 37.1678 30.7185C37.1678 29.8189 37.6325 29.3691 38.5618 29.3691C41.3498 29.3691 44.6025 29.3691 47.3906 29.3691C48.3199 29.3691 48.7846 29.8189 48.7846 30.7185C48.7846 39.7142 48.7846 48.71 48.7846 57.7057C48.7846 59.9547 49.2492 60.4045 45.9965 60.4045C43.2085 60.4045 40.8852 60.4045 38.0971 60.4045C37.1678 60.4045 36.7031 59.9547 36.7031 59.0551C37.6325 53.6577 37.1678 48.71 37.1678 44.2121Z" fill="#FFFE00"/>
    <path d="M12.5543 44.2063C12.5543 48.7042 12.5543 53.2021 12.5543 58.1497C12.5543 59.4991 12.0896 59.4991 11.1603 59.4991C8.37224 59.4991 5.11954 59.4991 2.33151 59.4991C0.937501 59.4991 0.9375 59.0493 0.9375 57.7044C0.9375 48.2544 0.9375 39.2587 0.9375 29.8176C0.9375 28.918 1.40217 28.4683 2.33151 28.4683C5.11954 28.4683 8.37224 28.4683 11.1603 28.4683C12.5543 28.4683 12.5543 28.918 12.5543 30.2674C12.5543 34.7608 12.5543 39.2587 12.5543 44.2063Z" fill="#FFFE00"/>
    <path d="M187.25 13.1749C187.25 9.57656 187.25 5.97826 187.25 1.93017C187.25 1.0306 187.715 0.580811 188.644 0.580811C191.897 0.580811 194.685 0.580811 197.937 0.580811C198.867 0.580811 199.331 1.0306 199.331 1.93017C199.331 9.57656 199.331 16.7732 199.331 24.4196C199.331 25.3191 198.867 25.7689 197.937 25.7689C194.685 25.7689 191.432 25.7689 188.179 25.7689C187.25 25.7689 187.25 25.3191 187.25 24.4196C187.25 20.3715 187.25 16.7732 187.25 13.1749Z" fill="#FFFE00"/>
    <path d="M322.023 12.7251C322.023 9.12677 322.023 5.52847 322.023 1.93017C322.023 1.0306 322.488 0.580811 323.417 0.580811C326.21 0.580811 329.458 0.580811 332.246 0.580811C333.64 0.580811 334.105 1.0306 334.105 1.93017C334.105 8.2272 334.105 14.5242 334.105 20.8213C334.105 21.7208 334.105 23.0702 334.105 23.9698C334.105 24.8693 333.64 25.3191 332.711 25.3191C329.458 25.3191 326.67 25.3191 323.417 25.3191C322.488 25.3191 322.023 24.8693 322.023 23.9698C322.023 20.3715 322.023 16.7732 322.023 12.7251Z" fill="#FFFE00"/>
    <path d="M134.769 13.1749C134.769 9.57656 134.769 5.52847 134.769 1.93017C134.769 1.0306 135.234 0.580811 136.163 0.580811C139.416 0.580811 142.669 0.580811 145.457 0.580811C146.386 0.580811 146.386 1.0306 146.386 1.48038C146.386 9.12677 146.386 16.3234 146.386 23.9698C146.386 24.8693 145.921 25.3191 144.992 25.3191C141.739 25.3191 138.951 25.3191 135.699 25.3191C134.769 25.3191 134.305 24.8693 134.305 23.9698C134.769 20.3715 134.769 16.7732 134.769 13.1749Z" fill="#FFFE00"/>
    <path d="M98.5042 95.9291C98.5042 96.8242 98.5042 97.7238 98.5042 98.6278C98.5042 99.0776 98.0396 99.0776 98.0396 99.0776C94.3222 99.9772 90.6048 100.427 87.3521 98.178C85.9581 97.2785 85.0288 95.4748 84.5641 94.13C83.1701 90.0819 83.1701 86.0338 85.9581 82.4355C87.3521 80.1866 89.6755 79.287 92.4635 78.8327C94.7869 78.3829 97.1102 78.8327 98.9689 79.7323H99.4336C100.363 81.0816 98.9689 81.9812 98.9689 82.8808C98.9689 82.8808 98.0396 83.3306 97.5749 83.3306C96.1809 83.3306 94.7869 82.4355 93.8575 82.4355C91.5342 82.4355 89.6755 84.2301 89.2108 86.4791C88.7461 88.728 88.7461 90.9769 89.6755 93.2259C90.1402 94.5752 91.9988 95.9291 93.3928 95.9291C94.3222 96.3789 96.1809 96.3789 98.5042 95.9291Z" fill="white"/>
    <path d="M291.363 87.8366C291.828 86.937 292.292 86.4872 292.292 86.0374C293.222 84.2383 294.151 82.4391 295.085 80.64C295.55 80.1902 296.014 79.7404 296.479 79.7404C297.408 79.7404 298.338 79.7404 299.267 79.7404C300.196 79.7404 300.196 80.1947 299.736 80.64C297.878 83.7885 296.019 87.3868 294.16 90.5353C293.696 91.4349 293.231 92.33 293.231 93.6838C293.231 95.4785 293.231 97.2821 293.231 98.6315C293.231 99.5311 292.766 99.9808 291.837 99.9808C288.584 99.9808 288.584 99.9808 288.584 96.8323C289.054 93.234 288.12 90.5398 286.261 87.3868C284.867 85.1379 283.473 82.8889 282.544 80.64C282.079 79.7404 282.079 79.2906 283.473 79.2906H283.938C286.73 78.8363 287.655 80.1902 288.584 82.4391C289.054 83.7885 289.978 85.1379 290.908 86.4827C290.434 86.937 290.898 87.3868 291.363 87.8366Z" fill="white"/>
    <path d="M219.326 91.4358C219.326 89.1868 219.326 86.4836 219.326 84.2347C219.326 83.3351 218.857 83.3351 218.397 83.3351C217.467 83.3351 216.073 83.3351 215.144 83.3351C214.215 83.3351 213.75 83.3351 213.75 82.44C213.75 79.7368 213.281 79.7368 216.538 79.7368C220.72 79.7368 224.438 79.7368 228.624 79.7368C229.549 79.7368 230.018 80.1911 230.018 81.0862C230.018 83.3351 230.018 83.3351 227.695 83.3351C224.442 83.3351 224.442 83.3351 224.442 86.4836C224.442 90.5317 224.442 95.0296 224.442 99.0777C224.442 99.9773 223.977 99.9772 223.513 99.9772C223.048 99.9772 223.048 99.9772 222.583 99.9772C220.26 99.9772 220.26 99.9772 220.26 97.7283C219.326 95.4839 219.326 93.6847 219.326 91.4358Z" fill="white"/>
    <path d="M158.923 89.6362C158.923 92.7848 158.923 95.4835 158.923 98.632C158.923 99.5316 158.458 99.9814 157.529 99.9814C153.812 99.9814 154.276 100.436 154.276 96.8328C154.276 91.4399 154.276 86.0424 154.276 80.6405C154.276 79.7409 154.741 79.7409 155.206 79.7409C155.67 79.7409 156.135 79.7409 157.064 79.7409C158.923 79.7409 158.923 79.7409 158.923 81.5401C158.923 84.2388 158.923 86.9375 158.923 89.6362Z" fill="white"/>
</svg>
