<svg width="497" height="100" viewBox="0 0 497 100" fill="none" xmlns="http://www.w3.org/2000/svg">
    <path d="M195.385 57.6659C194.394 59.0389 193.899 60.4119 192.908 61.7849C189.441 67.2769 184.983 71.8535 179.534 75.0572C173.095 78.7185 163.684 80.5492 156.254 75.9725C156.254 76.4348 155.759 76.8879 155.759 77.3501C154.768 81.4645 153.282 85.1259 152.291 89.2448C151.796 90.1602 151.796 91.0755 151.796 91.9908C151.796 94.2792 152.787 95.1945 155.263 95.6567C156.254 95.6567 157.74 96.1144 158.731 96.1144C159.226 98.4027 159.226 98.4027 156.749 98.4027C147.338 98.4027 137.432 98.4027 128.02 98.4027C127.03 98.4027 126.039 98.8604 126.039 97.4874C126.039 96.1144 126.534 95.6613 127.525 95.6613C130.992 95.6613 132.478 93.8307 133.469 91.0847C134.46 86.9657 135.946 83.3043 136.936 79.1808C137.927 75.5194 139.413 71.4005 140.403 67.7391C142.88 58.5858 145.357 49.4325 147.833 40.2792C148.329 39.8169 148.329 38.9016 148.824 37.9863C149.815 34.7826 148.329 32.9519 144.861 32.9519C143.871 32.9519 142.88 32.9519 142.88 31.5789C142.88 30.6636 143.375 30.2059 144.366 30.2059C148.329 29.7483 152.787 29.7483 156.749 29.2906C160.712 28.833 165.17 28.3753 169.628 27.46C168.637 30.6636 167.646 33.8673 166.656 37.0709C166.656 37.0709 166.656 37.0709 167.151 37.0709C167.646 36.6133 168.142 36.1556 168.142 35.6979C171.114 32.0366 174.581 28.833 179.534 27.0023C184.983 24.714 190.927 24.714 195.88 28.3753C198.852 30.6636 199.843 33.4096 200.338 36.6133C200.338 38.4439 200.833 39.8169 200.833 41.6476C201.328 41.1899 201.328 40.7323 201.328 40.7323C203.805 32.0366 206.282 23.7986 208.758 15.103C209.254 13.2723 209.749 11.4416 209.749 9.61098C209.749 7.78032 208.758 6.86499 206.777 6.40732C206.282 6.40732 205.291 5.94966 204.796 5.94966C203.805 5.94966 203.31 5.49199 203.31 4.57666C203.31 3.66133 203.805 3.20366 204.796 3.20366C211.235 2.28833 217.674 1.83066 224.113 0.915332C226.095 0.457666 228.076 0.457666 230.057 0C229.562 2.28833 228.571 4.57666 228.076 6.86499C225.599 15.103 223.618 23.341 221.141 31.5789C220.151 35.2403 219.16 38.9016 217.674 42.5629C215.693 49.8856 213.216 57.2082 211.235 64.5309C211.235 64.9931 211.235 65.4462 211.235 65.9085C211.235 67.7345 213.216 68.6545 214.702 67.2815C217.179 65.4508 219.16 63.1625 219.16 59.9542C219.656 55.3776 221.141 50.8009 223.618 46.2243C227.581 38.9016 233.029 32.4943 240.459 27.9176C244.422 25.1716 249.375 23.7986 254.328 24.714C258.291 25.1716 261.263 27.46 262.253 31.1213C262.253 31.5789 262.749 31.5789 262.749 32.0366C263.244 30.2059 263.739 28.833 264.235 27.46C264.235 26.5446 265.22 26.087 266.211 26.087C270.669 26.087 275.127 26.087 279.585 26.087C280.08 26.087 280.576 26.5446 281.071 26.5446C281.571 26.5446 281.571 27.0023 282.066 27.0023C287.02 27.9176 291.478 27.46 295.44 27.0023C298.412 26.5446 299.893 27.0023 300.889 29.7483C302.87 35.6979 304.356 41.6476 305.842 47.5972C306.833 52.6316 307.823 57.6659 309.309 62.7002C309.309 62.7002 309.309 63.1579 309.805 63.6156C310.795 61.7849 311.786 60.4119 312.281 59.0389C314.263 54.9199 316.739 50.8009 318.225 46.2243C319.711 42.5629 319.216 41.1899 315.749 38.9016C311.291 36.1556 311.786 30.6636 314.758 28.3753C317.735 26.087 320.702 26.087 324.664 26.5446C325.655 26.5446 326.646 27.0023 327.641 26.5446C336.552 24.2563 342.001 19.222 346.459 12.357C346.954 11.8993 347.449 10.984 347.945 10.5263C349.431 8.23799 349.431 8.23799 352.403 8.69565C351.412 12.8146 350.421 16.476 348.935 20.595C348.44 21.968 347.945 23.7986 347.449 25.1716C346.949 26.087 347.449 26.5446 348.935 26.5446C351.412 26.5446 354.384 26.5446 356.861 26.5446C356.861 27.0023 356.861 27.0023 356.861 27.0023C355.87 30.6636 356.365 29.7483 352.898 29.7483C350.922 29.7483 349.431 29.7483 347.449 29.7483C346.459 29.7483 345.468 30.2059 345.468 31.1213C343.982 36.1556 342.496 40.7323 341.01 45.7666C339.524 50.8009 338.038 55.8352 336.552 60.8696C336.057 63.1579 335.562 65.4462 335.066 67.2769C334.566 68.6499 335.066 70.0229 336.552 70.9382C338.038 71.8535 339.524 71.3959 340.515 70.9382C343.982 69.1075 346.459 66.3615 348.935 63.6156C349.431 63.1533 349.431 62.7002 349.431 62.238C349.431 54.4622 352.898 47.5927 357.361 41.643C361.323 36.6087 365.781 32.4897 372.221 29.7437C378.66 26.54 385.594 25.167 392.529 27.4554C395.996 28.3707 398.473 30.2014 399.463 33.405C400.454 37.524 399.463 41.1854 396.487 44.389C392.034 48.9657 386.58 51.7117 380.641 53.5423C375.688 54.9153 370.234 56.2883 364.791 56.2883C361.814 56.2929 361.814 56.7506 361.318 59.4966C360.823 62.2426 360.328 64.9886 361.814 68.1922C363.3 71.8535 368.253 74.1419 372.216 73.2265C380.141 71.8535 386.085 67.7345 392.524 63.6156C394.01 62.7002 394.01 61.7849 394.01 60.4119C394.01 53.0847 396.987 46.6819 401.44 40.7323C405.898 35.2403 411.346 31.1213 417.79 28.3753C423.729 26.087 429.673 25.6293 435.617 27.0023C440.075 27.9176 444.533 31.5789 444.038 36.6133C443.537 40.7323 438.584 43.4783 434.627 42.1053C432.15 41.1899 431.159 37.9863 432.15 35.6979C432.65 34.7826 433.141 33.8673 433.636 33.4096C434.627 31.5789 434.131 30.2059 431.655 30.2059C428.187 29.7483 425.215 30.2059 421.748 31.5789C417.29 33.8673 414.318 37.0709 411.341 40.7323C408.369 44.8513 406.388 49.4279 405.402 54.0046C404.412 58.1236 404.412 62.2426 406.388 66.3616C409.365 72.3112 416.295 74.5995 422.739 72.3112C429.178 70.0229 434.131 65.4462 438.584 60.4119C441.061 57.6613 441.561 54.0046 443.042 50.3432C446.509 39.8169 449.977 28.8329 453.444 18.3066C453.944 16.476 454.44 14.6453 454.935 12.8146C455.43 10.0686 454.435 8.23799 450.967 8.23799C448.491 8.23799 446.514 8.23799 444.038 8.23799C444.038 5.49199 444.038 5.49199 447.01 5.49199C452.463 5.03432 457.907 4.11899 462.86 2.746C464.346 2.28833 465.832 2.28833 467.813 1.83066C462.86 16.9336 458.402 31.5789 453.944 46.2243C453.944 46.2243 454.44 46.2243 454.44 46.6819C455.43 45.7666 456.421 45.3089 457.417 44.3936C463.851 38.9016 470.785 33.8673 478.215 29.7483C481.192 28.3753 484.659 27.0023 488.122 26.5446C493.075 26.5446 494.566 29.2906 493.575 32.9519C491.594 39.8169 489.117 46.2243 487.136 53.0847C485.645 58.1236 483.669 63.1533 482.183 68.1922C482.183 69.103 482.183 69.5652 482.183 70.4805C482.178 72.3112 484.159 73.2265 485.645 72.3112C488.122 70.4851 490.598 68.6499 493.075 66.8192C493.575 66.8192 493.575 66.3616 494.066 65.9085C494.566 66.3661 495.056 66.8192 496.047 67.2815C494.066 69.1075 492.084 70.9428 490.103 72.7734C486.636 75.5194 483.168 78.2609 478.711 78.7231C477.225 78.7231 475.243 78.7231 473.757 78.2609C471.281 77.8032 470.29 75.5149 471.281 73.2265C472.271 70.0229 473.257 66.8192 474.253 63.6156C477.225 55.3776 479.701 46.6819 482.673 38.4439C483.664 35.6979 481.682 33.8673 478.711 34.7826C476.234 35.6979 473.262 36.6133 471.281 37.9863C466.327 41.1899 461.869 44.8513 457.412 48.5126C453.444 51.7162 451.468 55.8352 449.982 60.4119C448.491 64.9886 447.005 69.5652 445.524 74.1419C445.524 74.5995 445.524 74.5995 445.028 75.0572C443.542 80.0915 444.533 78.7185 439.58 78.7185C438.094 78.7185 436.113 78.7185 434.131 78.7185C435.122 75.5149 436.108 72.3112 437.103 69.103C437.103 69.103 437.103 69.103 436.608 69.103C436.113 69.5652 435.617 70.0229 435.122 70.4805C430.664 74.5995 425.711 77.3455 419.767 78.7185C411.842 80.0915 404.412 79.6339 398.963 73.6796C397.477 71.8535 395.991 70.0229 394.505 67.7346C393.515 68.6499 392.029 69.5652 390.543 70.4851C385.089 74.1464 379.145 77.3501 372.216 78.7231C367.262 79.6384 362.804 80.0961 357.851 78.2609C353.398 76.8879 350.922 73.6842 349.926 69.5698C349.926 69.1075 349.926 69.1075 349.426 68.6545C349.426 68.6545 349.426 68.6545 348.93 68.6545C348.435 69.1121 347.444 70.0275 346.949 70.4851C343.487 73.6842 340.02 76.8879 335.562 78.2609C330.608 80.0915 326.646 78.2609 325.16 74.5995C324.169 72.3112 324.659 69.5652 325.16 67.2769C327.141 59.9542 329.618 52.6316 331.599 45.3089C333.085 40.7323 334.076 35.6979 335.562 31.1213C335.562 30.2059 336.062 29.7483 334.571 29.7483C332.595 29.7483 330.118 29.7483 328.132 29.7483C328.132 30.2059 327.636 30.2059 328.132 30.2059C329.618 34.7826 328.132 38.4439 326.155 42.5629C321.692 53.0892 315.749 63.1579 309.309 72.7689C304.851 79.6339 299.898 86.4989 293.459 91.9863C289.992 95.1945 286.029 97.9405 281.571 99.3135C278.104 100.229 275.127 100.229 271.665 99.3135C267.207 97.9405 265.721 95.1945 266.211 91.0755C266.711 88.3295 270.179 86.0412 274.141 86.0412C276.618 86.0412 279.095 86.9565 281.571 88.3295C282.557 88.7918 283.057 89.2448 284.048 89.7025C285.534 90.6178 287.02 90.6178 288.501 89.2448C291.968 86.4988 293.954 83.2952 293.454 78.7185C292.463 73.6796 291.968 68.1922 290.977 63.1579C289.987 58.1236 289.001 52.6316 288.005 47.5972C287.02 43.9359 286.029 40.2746 285.038 36.6133C284.543 35.6979 284.048 34.7826 283.057 33.8673C281.076 32.0366 280.58 32.0366 280.085 33.4096C279.095 37.0709 277.609 40.7323 276.618 44.3936C274.637 50.3432 273.151 56.2929 271.169 62.2426C270.674 63.6201 270.179 64.9931 270.179 66.3616C269.683 67.7345 270.179 68.6499 271.169 69.5652C272.16 70.4805 273.646 69.5652 274.146 69.103C275.632 67.73 276.623 66.357 278.109 64.9886C278.604 64.5263 279.099 63.6156 279.595 62.7002C280.585 63.1579 281.081 63.6156 282.071 64.5263C279.59 68.1922 276.618 71.8535 273.151 75.0572C269.683 77.8032 265.721 79.1716 260.767 78.7185C257.3 78.2563 254.328 77.8032 253.338 74.1419C252.837 71.8535 253.338 69.5652 253.338 67.7346C253.338 67.2769 253.338 66.3616 253.338 65.9085C252.347 67.2815 250.861 69.1075 249.87 70.4851C245.412 75.5194 239.964 79.1762 232.534 78.7231C226.095 78.7231 221.141 75.0618 219.656 70.0275C219.656 70.0275 219.656 69.5698 219.16 69.5698C218.665 70.0275 218.17 70.4851 217.674 70.9428C214.702 74.1464 210.74 77.3501 205.786 78.2654C202.814 78.7185 199.843 78.7185 197.366 77.8032C193.899 76.4302 191.917 71.8535 192.908 68.1922C193.403 66.3615 193.899 64.5263 194.394 62.7002C194.889 61.3272 195.385 59.4966 195.385 57.6659C195.385 57.6659 195.88 57.6659 195.385 57.6659ZM181.02 41.1899C181.02 41.1899 180.525 41.1899 181.02 41.1899C180.525 40.2746 180.525 39.8169 180.525 38.9016C180.029 35.2403 177.058 33.8673 173.59 35.2403C172.6 35.6979 171.609 36.1556 170.618 37.0709C167.646 39.8169 165.665 43.4783 164.674 47.1396C162.198 54.0046 160.216 61.3318 157.74 68.1968C156.749 71.8581 158.731 74.5995 162.198 74.1464C163.188 74.1464 164.674 73.6842 165.665 72.7734C167.646 70.9428 170.123 68.6545 171.609 66.3661C174.086 61.3318 176.562 56.2975 178.544 51.2632C179.534 48.0549 180.029 44.8513 181.02 41.1899ZM260.272 37.5286C260.272 36.6133 260.272 36.1556 259.777 35.6979C259.282 32.9519 256.805 31.1213 253.833 32.4943C252.347 32.9519 250.861 33.8673 249.87 35.2403C244.917 41.1899 241.45 47.5973 238.973 54.9199C237.983 58.1236 236.992 61.7849 236.992 64.9886C236.992 66.8146 237.487 68.6499 239.469 69.5652C241.45 70.4805 243.431 70.0229 244.917 68.6499C246.898 66.8192 248.88 64.9886 250.366 63.1579C254.333 57.2082 256.31 50.8009 258.296 44.3936C259.777 42.1053 259.777 39.8169 260.272 37.5286ZM361.814 52.6316C362.314 52.6316 362.804 52.6316 363.305 52.6316C365.281 52.1739 367.758 52.1739 369.744 51.7162C376.674 50.3432 382.622 47.5973 387.08 42.5629C389.057 40.7323 390.052 37.9863 390.052 35.6979C390.553 32.4943 388.566 30.2059 384.604 30.2059C379.65 30.2059 376.183 32.0366 372.716 34.7826C367.758 39.8169 364.29 45.7666 361.814 52.6316Z" fill="white"/>
    <path d="M37.3695 97.9448C28.949 97.9448 21.0238 97.0295 13.5939 93.8258C7.1547 91.0798 2.69677 86.9608 0.71547 80.5535C-0.770506 75.5192 0.220144 70.4894 2.20144 65.4505C5.1734 58.1279 10.622 52.6359 16.5659 47.1439C23.0051 41.6519 29.9396 36.6176 37.8649 32.4986C38.8555 32.4986 39.3508 32.0409 39.3508 30.6679C39.3508 27.0066 39.3508 23.3453 39.3508 19.6839C39.3508 15.1073 44.3041 12.3613 49.2573 14.6496C53.7153 16.9379 58.1732 19.6839 62.6311 21.9723C63.1264 22.4299 64.1171 22.4299 64.6124 21.9723C69.0703 21.0569 74.0236 19.6839 78.4815 18.7686C86.4067 16.9379 94.8272 16.4803 103.248 16.9379C110.678 17.3956 118.603 18.3109 125.042 22.4299C131.977 26.5489 135.444 32.9562 134.949 40.7366C134.453 46.6862 131.481 52.1782 127.519 57.2125C120.089 66.8235 110.182 74.1462 99.2852 80.5535C87.8927 86.9608 76.0049 91.5375 63.1264 94.7412C54.2106 96.5718 45.7901 97.9448 37.3695 97.9448ZM78.9768 31.5832C79.4722 32.0409 79.4722 32.0409 79.9675 32.4986C86.4067 35.7022 92.8459 38.9059 99.2852 42.1096C101.266 43.0249 102.752 44.8556 102.752 47.1439C102.752 49.4322 101.266 50.8052 99.2852 52.1782C94.3319 54.9242 89.874 57.2125 84.9207 59.9585C73.0329 66.3659 61.1451 72.7778 49.2573 79.1805C46.7807 80.5535 44.7994 81.0112 42.3228 79.6427C39.8462 78.2652 39.3508 75.9768 39.3508 73.6885C39.3508 67.7389 39.3508 62.2469 39.3508 56.2972C39.3508 55.8395 39.3508 55.3819 39.3508 54.4711C38.8555 54.9242 38.3602 54.9242 37.8649 55.3819C33.9023 59.9585 30.435 64.9974 28.949 71.4002C27.9584 76.4391 30.435 81.4688 35.3882 83.7572C40.3415 86.0455 45.2947 86.0455 50.7433 85.5878C56.6872 85.1256 62.6311 83.2995 68.575 81.0112C79.9675 76.4345 89.874 70.4849 98.2945 62.2423C103.248 57.208 107.21 52.1736 109.192 45.3086C111.173 37.0707 107.21 31.5787 99.2852 29.748C94.8272 28.8327 90.3693 28.8327 85.9114 29.2903C83.9301 30.2102 81.4535 31.1256 78.9768 31.5832ZM46.2854 46.6862C46.7807 46.6862 46.7807 46.6862 46.2854 46.6862C46.2854 52.6359 46.2854 58.5855 46.2854 64.9929C46.2854 66.8189 46.7807 68.1965 48.762 69.1073C50.7433 70.0226 52.2293 69.5695 53.7153 68.6496C60.1545 65.446 66.0984 61.7846 72.5376 58.581C77.4909 55.835 82.9394 53.089 87.8927 50.343C90.8646 48.97 90.8646 45.3086 87.8927 43.9356C76.5002 37.5283 65.1077 31.5787 53.7153 25.1713C52.2293 24.256 50.7433 23.7983 48.762 24.7137C46.7807 25.629 46.2854 27.002 46.2854 29.2903C46.7807 34.3292 46.2854 40.2789 46.2854 46.6862ZM16.5659 72.3155C16.0705 74.1462 15.5752 75.9768 15.5752 77.3544C15.5752 82.3887 17.0612 86.9654 22.0144 90.1691C26.4724 93.3727 31.921 94.2835 37.3695 94.2835C44.3041 94.2835 51.2386 93.3727 57.6779 91.0844C63.6218 89.2537 69.0703 86.9654 75.0142 84.6771C76.5002 84.2194 78.4815 82.8464 79.9675 81.9311V81.4688C79.4722 81.4688 78.9768 81.9311 78.4815 81.9311C74.5189 83.3041 71.0516 84.6771 67.089 85.5924C62.1358 86.5077 56.6872 87.4185 51.2386 88.3384C44.3041 89.2492 37.8649 88.7915 31.4256 86.9608C26.4724 85.5878 22.0144 83.2995 19.5378 78.7228C18.0518 76.8922 17.5565 74.6038 16.5659 72.3155ZM120.089 37.0752C120.584 36.1599 120.089 35.2446 120.089 34.3292C119.098 28.8372 115.631 25.1759 110.182 22.8876C103.743 20.5993 97.3039 20.5993 90.8646 21.0569C87.8927 21.5146 84.9207 21.9723 81.9488 22.8876C77.9862 23.8029 74.5189 25.1759 70.5563 26.0913V26.5489C72.0423 27.0066 73.0329 28.3796 75.0142 28.3796C77.9862 27.9219 80.4628 27.4642 83.4348 27.0066C90.3693 26.0913 97.3039 26.0913 104.734 27.4642C109.192 28.3796 113.154 29.7526 116.126 32.9562C117.612 33.8716 118.603 35.2446 120.089 37.0752Z" fill="white"/>
</svg>
