<svg width="246" height="100" viewBox="0 0 246 100" fill="none" xmlns="http://www.w3.org/2000/svg">
    <path d="M185.184 56.091H181.5V73.7924H190.588V70.574H185.184V56.091Z" fill="white"/>
    <path d="M176.104 56.7833C174.628 56.3235 173.157 56.0936 171.438 56.3235H167.508V74.0249H171.192V66.4386C172.42 66.4386 173.894 66.4386 175.122 66.2064C176.35 65.9765 177.332 65.2892 178.069 64.5972C178.806 63.68 179.297 62.5305 179.052 61.3811C179.052 60.4615 178.804 59.3121 178.312 58.3925C177.824 57.7029 177.087 57.0132 176.104 56.7833ZM175.368 62.3006C175.122 62.5305 174.876 62.7604 174.631 62.9903C173.894 63.2202 173.403 63.2202 172.666 63.2202H171.438V59.542H172.42C173.157 59.542 174.139 59.542 174.876 59.9994C175.368 60.2316 175.856 60.919 175.856 61.6087C175.613 61.611 175.613 62.0707 175.368 62.3006Z" fill="white"/>
    <path d="M206.319 53.1048C218.6 52.4151 212.214 38.3943 199.933 39.0816C188.389 39.7713 193.547 53.7945 206.319 53.1048Z" fill="#E99D31"/>
    <path d="M212.703 56.091H208.773L214.423 66.2061V73.7924H218.107V66.2061L223.756 56.091H219.826L216.142 62.5279L212.703 56.091Z" fill="white"/>
    <path d="M244.393 56.3231H243.165L241.691 60.691L239.972 56.3231H238.744L237.516 62.5301H238.989L239.726 58.622L240.954 62.5301H242.182L243.656 58.622L244.393 62.5301H245.621L244.393 56.3231Z" fill="white"/>
    <path d="M233.336 57.4725H234.564V62.5301H236.038V57.4725H237.266V56.3231H233.336V57.4725Z" fill="white"/>
    <path d="M146.383 58.6216C148.593 58.6216 150.806 59.5412 152.523 61.1504L155.227 58.8515C153.017 56.5526 149.824 55.1733 146.631 55.1733C144.666 55.1733 142.947 55.6331 141.227 56.5526C138.28 57.9343 136.561 60.6929 136.069 63.4493C135.576 66.4378 136.804 69.4264 139.014 71.4954C140.979 73.3345 143.681 74.254 146.628 74.0241C148.102 74.0241 149.576 73.792 151.049 73.3345C152.523 72.6425 153.997 71.7253 155.225 70.5758L152.769 68.0448C152.032 68.9643 150.804 69.654 149.821 70.1137C148.839 70.5735 147.856 70.8034 146.874 70.5735C145.646 70.5735 144.418 70.3413 143.438 69.654C142.455 69.1942 141.47 68.2746 140.982 67.3551C140.488 66.4378 139.997 65.2884 140.242 64.1389V63.9091C139.751 61.1504 142.944 58.6216 146.383 58.6216Z" fill="white"/>
    <path d="M208.773 32.8726C194.773 27.5852 178.808 30.5737 168.001 40.4589C157.194 50.3441 154.246 65.5167 160.141 78.6204C166.033 91.724 179.79 100 194.773 100C215.159 100 231.863 84.3676 231.615 65.057C231.861 51.0338 222.773 38.3899 208.773 32.8726ZM195.018 96.3218C176.597 96.0919 161.86 82.2986 161.86 65.057C161.86 47.8153 176.597 34.022 195.018 33.7921C213.439 33.7921 228.422 47.8153 228.422 65.057C228.422 82.2986 213.439 96.3218 195.018 96.3218Z" fill="#E99D31"/>
    <path d="M200.173 56.091L192.805 73.7901H196.735L198.211 70.1119H206.07L207.544 73.7901H211.474L204.105 56.091H200.173ZM199.436 66.8958L202.138 60.9187L204.594 66.8958H199.436Z" fill="white"/>
    <path d="M25.5414 63.9086C26.2783 62.9913 26.5239 62.0695 26.5239 60.92C26.5239 59.7706 26.2783 58.851 25.787 57.9315C25.2958 57.2418 24.559 56.5499 23.5765 56.0924C22.1028 55.6326 20.3835 55.4027 18.9098 55.6326H14.7344V73.7938H18.4186V66.2075H18.6642L23.0853 73.7938H27.2607L22.594 65.7477C23.8221 65.5178 24.8046 64.8281 25.5414 63.9086ZM19.6467 62.7591H18.4186V59.0809H19.6467C20.3835 59.0809 20.8747 59.0809 21.6116 59.3108C22.3484 59.543 22.8397 60.2304 22.8397 60.92C22.8397 61.3798 22.594 62.0695 22.1028 62.2994C21.366 62.7591 20.6291 62.989 19.6467 62.7591Z" fill="white"/>
    <path d="M8.59652 56.3222C7.12283 55.8624 5.40353 55.6325 3.92984 55.8624H0V74.0236H3.68422V66.4373C4.9123 66.4373 6.38599 66.4373 7.61406 66.2051C8.84213 65.9775 9.82459 65.2878 10.5614 64.3683C11.2983 63.4487 11.7895 62.2993 11.5439 61.1498C11.5439 60.2326 11.2983 59.0831 10.8071 58.1613C10.3158 57.2417 9.57898 56.5521 8.59652 56.3222ZM7.61406 62.0694C7.36844 62.2993 7.12283 62.5292 6.6316 62.7591C5.89476 62.9889 5.40353 62.9889 4.66668 62.9889H3.68422V59.3107H4.9123C5.64914 59.3107 6.38599 59.3107 7.12283 59.5429C7.61406 59.7705 8.10529 60.4602 8.10529 61.1498C8.10529 61.3797 7.85967 61.8395 7.61406 62.0694Z" fill="white"/>
    <path d="M174.387 31.7246C179.791 28.5062 186.177 26.667 192.563 26.667C191.823 24.3682 189.124 14.9427 193.791 5.9771C188.63 9.65531 185.931 15.6324 186.422 21.8394C186.422 21.8394 181.019 8.27598 173.65 0C172.668 10.5749 176.107 24.8279 176.107 24.8279C172.914 19.5405 167.262 15.8623 160.633 15.6324C170.212 20.4601 173.65 29.4257 174.387 31.7246Z" fill="#E99D31"/>
    <path d="M129.445 55.862V73.7933H133.13V55.862H129.445Z" fill="white"/>
    <path d="M37.3328 55.862L29.7188 74.0232H33.6486L35.3679 70.3427H43.2276L44.7013 74.0232H48.6311L41.017 55.862H37.3328V55.862ZM36.596 66.8966L39.2977 60.6897L41.9995 66.8943H36.596V66.8966Z" fill="white"/>
    <path d="M104.637 55.862L97.0234 74.0232H100.708L102.427 70.3427H110.532L112.006 74.0232H115.936L108.322 55.862H104.637V55.862ZM103.901 66.8966L106.602 60.692L109.304 66.8966H103.901Z" fill="white"/>
    <path d="M115.438 59.0804H118.876V73.7933H122.806V59.0804H126.49V55.862H115.438V59.0804Z" fill="white"/>
    <path d="M87.6793 55.862L83.0127 68.5059L78.5916 55.862H74.9074L71.4688 74.0232H75.153L77.3635 62.5288L81.2933 73.7933H84.732L88.9074 62.2989L90.8723 73.7933H94.5566L91.3636 55.862H87.6793Z" fill="white"/>
    <path d="M59.683 68.0492H65.3322C64.8409 68.9688 64.1041 69.8906 63.1216 70.3481C62.1392 70.8079 60.9111 71.0401 59.9286 71.0401C57.9637 71.0401 56.2444 70.3481 55.0163 69.1987C53.7883 68.0492 53.0514 66.44 53.0514 64.8308C53.0514 63.2216 53.7883 61.6123 55.0163 60.4629C56.2444 59.3135 57.9637 58.6238 59.9286 58.6238C62.1392 58.6238 64.3497 59.5434 65.8234 61.1526L68.5251 58.8537C67.5427 57.7042 66.3146 56.787 64.8409 56.3249C63.3672 55.6353 61.6479 55.4054 59.9286 55.4054C56.9812 55.4054 54.0339 56.5548 52.069 58.6238C50.3496 60.233 49.3672 62.5319 49.3672 64.8308C49.3672 66.44 49.8584 68.2791 50.8409 69.6584C51.8233 71.0401 53.0514 72.4171 54.5251 73.1068C56.2444 74.0263 58.2093 74.2562 59.9286 74.2562C61.6479 74.2562 63.3672 73.7964 64.8409 73.1068C67.7883 71.4975 69.5076 68.509 69.7532 65.2929V64.6009H59.9286V68.0492H59.683Z" fill="white"/>
</svg>
