<svg width="339" height="100" viewBox="0 0 339 100" fill="none" xmlns="http://www.w3.org/2000/svg">
    <path d="M0.338205 28.0759C0.338205 19.2434 0.338205 10.7262 0.338205 1.89368C0.338205 0.316437 0.67641 0.316437 2.02923 0.316437C11.8372 0.316437 21.6451 0.316437 31.4531 0.316437C34.8351 0.316437 38.2171 0.947334 41.261 1.57823C46.6723 2.84003 50.0543 6.30996 51.4071 11.6726C52.4218 15.7734 52.4218 19.5588 51.0689 23.6597C49.3779 28.3914 45.9959 31.2304 41.261 32.4922C40.2464 32.8077 40.2464 33.1231 40.5846 34.0695C42.952 37.8548 45.3195 41.3248 47.6869 45.1102C49.7161 48.2647 51.4071 51.1037 53.4364 54.2582C54.1128 55.52 53.7746 56.1509 52.4218 56.1509C49.3779 56.1509 46.3341 56.1509 42.952 56.1509C41.261 56.1509 40.2464 55.52 39.57 54.2582C37.8789 51.4191 36.1879 48.8956 34.4969 46.0565C32.1295 42.2711 30.1002 38.4857 27.7328 35.0158C27.3946 34.7004 26.7182 34.0695 26.38 34.0695C22.3215 34.0695 17.9249 34.0695 13.8664 34.0695C12.8518 34.0695 12.5136 34.3849 12.5136 35.3313C12.5136 41.6402 12.5136 47.9492 12.5136 54.2582C12.5136 55.52 11.8372 56.1509 10.8226 56.1509C7.77871 56.1509 4.73487 56.1509 1.69102 56.1509C0.67641 56.1509 0 55.8354 0 54.5736C0.338205 45.7411 0.338205 36.9085 0.338205 28.0759ZM23.3361 10.4108C20.2923 10.0954 17.2484 10.0954 14.2046 10.0954C13.5282 10.0954 12.5136 10.0954 12.8518 11.0417C12.8518 14.8271 12.8518 18.9279 12.8518 22.7133C12.8518 23.6597 13.19 23.9751 14.2046 23.9751C18.9395 23.9751 24.0125 23.9751 28.7474 23.9751C31.1148 23.9751 33.4823 23.6597 35.8497 23.0288C39.2318 22.0824 40.2464 19.2434 39.57 15.1425C39.2318 12.3035 36.8643 10.4108 33.8205 10.4108C30.1002 10.4108 26.7182 10.4108 23.3361 10.4108Z" fill="white"/>
    <path d="M102.81 32.4947C97.3989 32.4947 91.9876 32.4947 86.9145 32.4947C86.2381 32.4947 85.5617 32.4947 85.5617 33.441C85.8999 37.5419 86.5763 41.9582 90.6348 44.4818C93.0022 46.059 95.7079 46.3744 98.4135 46.3744C105.178 46.3744 111.942 46.3744 118.706 46.3744C120.397 46.3744 120.735 46.6899 120.735 48.2671C120.735 50.1598 120.735 52.368 120.735 54.2607C120.735 55.207 120.397 55.8379 119.044 55.8379C109.912 55.8379 100.443 56.4688 91.3112 55.207C83.1943 54.2607 77.783 49.8444 74.4009 43.22C72.0335 38.8037 71.6953 33.7565 71.6953 28.7093C71.6953 24.9239 72.0335 20.8231 73.0481 17.0377C75.0774 8.52058 80.8268 2.52705 90.2966 0.949808C94.0168 0.634359 97.7371 0.31891 101.457 0.31891C107.207 0.00346157 112.956 0.31891 118.706 0.31891C120.059 0.31891 120.397 0.634359 120.397 1.89615C120.397 4.1043 120.397 6.31244 120.397 8.20513C120.397 9.78238 120.059 9.78238 118.368 9.78238C112.618 9.78238 106.53 9.78238 100.781 9.78238C98.4135 9.78238 96.3843 10.0978 94.0168 10.4133C89.9584 11.3596 87.5909 13.5678 86.2381 17.3531C85.5617 18.6149 85.5617 20.1922 85.2235 21.454C84.8853 22.4003 85.2235 22.7158 86.2381 22.7158C87.2527 22.7158 88.2673 22.7158 89.282 22.7158C98.0753 22.7158 106.869 22.7158 115.662 22.7158C116 22.7158 116.338 22.7158 116.338 22.7158C120.397 22.4003 120.059 22.0849 120.059 26.1857C120.059 27.763 120.059 29.0248 120.059 30.602C120.059 32.1792 119.72 32.4947 118.029 32.4947C113.295 32.8101 107.883 32.4947 102.81 32.4947Z" fill="white"/>
    <path d="M228.963 42.901C224.905 42.901 221.185 42.901 217.126 42.901C216.112 42.901 215.774 43.2165 215.435 44.1628C214.082 47.6328 212.73 51.1027 211.377 54.2572C210.7 55.519 210.024 56.1499 208.333 56.1499C205.289 56.1499 202.584 56.1499 199.54 56.1499C197.51 56.1499 197.172 55.519 198.187 53.9417C201.231 47.3173 204.275 41.0083 207.318 34.3839C211.039 26.4977 214.759 18.296 218.141 10.4098C219.494 7.57077 220.847 4.73173 222.199 1.57724C222.538 0.630898 223.552 0 224.567 0C227.611 0 230.655 0 234.037 0C235.389 0 236.066 0.630898 236.742 1.57724C239.448 7.88622 242.492 14.1952 245.197 20.5042C248.241 27.1286 251.285 34.0685 254.667 40.6929C256.696 45.1092 258.726 49.8409 260.755 54.2572C261.431 55.519 260.755 56.1499 259.402 56.1499C256.02 56.1499 252.638 56.1499 249.594 56.1499C248.241 56.1499 247.565 55.519 247.227 54.5726C245.874 51.1027 244.521 47.6328 243.168 44.1628C242.83 43.2165 242.153 42.901 241.139 42.901C236.742 42.901 232.684 42.901 228.963 42.901ZM228.963 32.8067C230.993 32.8067 233.36 32.8067 235.389 32.8067C238.095 32.8067 238.095 32.8067 236.742 30.5985C236.742 30.2831 236.742 30.2831 236.404 29.9676C234.037 24.2896 231.669 18.296 229.302 12.618C229.302 12.3025 228.963 11.9871 228.625 11.9871C228.625 11.9871 228.287 12.3025 227.949 12.618C226.596 16.0879 225.243 19.5578 223.89 23.3432C222.876 26.1822 221.523 28.7058 220.508 31.5449C219.832 32.8067 220.17 33.1221 221.523 33.1221C223.89 32.8067 226.596 32.8067 228.963 32.8067Z" fill="white"/>
    <path d="M153.545 20.1897C153.545 25.8678 153.545 31.5459 153.545 37.2239C153.545 42.2711 156.589 45.7411 162 46.372C163.691 46.6874 165.044 46.6874 166.735 46.6874C171.131 46.6874 175.866 46.6874 180.263 46.6874C181.278 46.6874 181.954 47.0029 181.954 47.9492C181.954 50.1574 181.954 52.3655 181.954 54.5736C181.954 55.52 181.278 56.1509 180.263 56.1509C172.146 56.1509 164.029 56.4663 155.912 55.52C150.839 54.8891 147.119 52.05 144.413 48.2647C142.046 45.1102 141.369 41.9557 141.031 38.1703C141.031 31.5459 141.031 24.606 141.031 17.9816C141.031 12.9344 141.031 7.57176 141.031 2.52458C141.031 0.316437 141.369 0.316437 143.399 0.316437C146.104 0.316437 149.148 0.316437 151.854 0.316437C153.545 0.316437 153.883 0.631885 153.883 2.20913C153.545 8.20266 153.545 14.1962 153.545 20.1897Z" fill="white"/>
    <path d="M274.62 48.2636C274.282 43.5319 278.678 40.062 282.737 40.062C287.81 40.062 291.868 43.5319 291.868 47.9482C291.868 52.3645 288.148 56.1498 283.751 56.4653C279.355 56.7807 274.62 52.9954 274.62 48.2636Z" fill="white"/>
    <path d="M320.619 48.2637C320.28 43.5319 325.015 40.062 329.074 40.062C334.147 40.062 338.205 43.5319 338.205 48.2637C338.205 52.68 334.485 56.4653 329.75 56.4653C325.015 56.4653 320.28 52.68 320.619 48.2637Z" fill="white"/>
    <path d="M274.617 8.20167C274.617 3.78539 278.676 0 283.411 0C288.145 0 292.204 3.78539 292.204 8.20167C292.204 12.618 288.145 16.4033 283.411 16.4033C279.014 16.7188 274.617 13.2488 274.617 8.20167Z" fill="white"/>
    <path d="M329.418 16.7197C325.698 16.7197 320.625 13.5653 320.625 8.20263C320.625 3.78634 324.683 0.316406 329.418 0.316406C334.153 0.316406 338.212 4.10179 338.212 8.51808C338.212 12.9344 334.153 16.7197 329.418 16.7197Z" fill="white"/>
    <path d="M306.082 19.8706C310.817 19.8706 314.876 23.3405 314.876 28.0723C314.876 32.4886 310.817 36.2739 306.082 36.2739C301.009 36.2739 297.289 32.4886 297.289 28.0723C297.289 23.656 301.348 19.8706 306.082 19.8706Z" fill="white"/>
    <path d="M142.037 94.0066C142.375 93.3757 142.375 93.0603 142.713 92.4294C144.066 88.3286 145.08 84.5432 146.433 80.4423C146.771 79.496 147.448 78.5497 148.801 78.8651C150.153 78.8651 150.492 79.8114 150.492 80.7578C151.506 86.4359 152.521 91.7985 153.536 97.4766C153.536 98.4229 153.536 99.0538 152.183 99.3693C151.168 99.3693 150.83 98.7384 150.83 97.792C150.153 93.3757 149.477 88.644 148.801 84.2277C148.801 83.9123 148.462 83.5968 148.124 83.2814C147.786 83.5968 147.448 83.9123 147.448 84.2277C146.095 88.644 144.742 93.3757 143.051 98.1075C143.051 98.7384 142.037 99.0538 141.698 99.3693C141.36 99.3693 140.684 98.7384 140.346 98.4229C138.993 94.0066 137.302 89.2749 135.949 84.8586C135.949 84.5432 135.949 84.2277 135.611 84.2277C135.272 83.9123 135.272 83.9123 134.934 83.5968C134.934 83.9123 134.596 83.9123 134.596 84.2277C134.258 87.3822 133.581 90.5367 133.243 93.6912C132.905 95.2684 132.905 96.8457 132.567 98.4229C132.567 99.3693 131.89 100 130.876 100C129.861 99.6847 129.523 99.0538 129.861 98.1075C130.876 92.7448 131.89 87.6977 132.905 82.335C133.243 80.4423 133.92 79.496 134.934 79.496C135.949 79.496 136.625 80.4423 137.302 82.0196C138.316 85.805 139.669 89.9058 141.022 93.6912C141.022 94.0066 141.36 94.3221 141.698 94.6375C141.698 94.0066 142.037 94.0066 142.037 94.0066Z" fill="white"/>
    <path d="M253.328 88.9568C253.328 86.1177 253.328 83.5942 253.328 80.7551C253.328 80.1242 253.666 79.4933 254.005 78.8624C254.681 79.1779 255.357 79.4933 256.034 79.8088C258.401 82.6478 260.43 85.8023 262.798 88.9568C263.812 90.534 264.827 92.1113 266.18 93.3731C266.518 93.6885 266.856 93.6885 267.195 94.004C267.195 93.6885 267.533 93.3731 267.533 93.0576C267.533 88.9568 267.533 84.856 267.533 80.7551C267.533 80.1242 267.533 79.4933 267.871 79.1779C268.547 78.547 269.562 78.8624 269.9 79.4933C269.9 79.8088 269.9 80.1242 269.9 80.7551C269.9 86.1177 269.9 91.7958 269.9 97.1584C269.9 97.7893 269.562 98.7357 269.224 99.0511C268.209 99.682 267.871 98.7357 267.195 98.1048C263.812 93.6885 260.43 89.2722 257.387 84.8559C257.048 84.5405 256.71 84.2251 256.372 83.9096C256.372 84.2251 256.034 84.856 256.034 85.1714C256.034 89.2722 256.034 93.3731 256.034 97.4739C256.034 98.1048 255.696 99.0511 254.681 99.0511C253.666 99.0511 253.328 98.4202 253.328 97.4739C253.328 94.9503 253.328 91.7958 253.328 88.9568Z" fill="white"/>
    <path d="M332.459 87.6973C335.503 87.3818 336.856 87.3818 336.518 91.4826C336.18 94.6371 335.165 97.1607 331.783 98.4225C328.401 99.9998 324.681 99.6843 321.637 97.4762C320.284 96.5298 319.269 94.9526 318.593 93.3753C316.902 89.2745 317.578 82.6501 322.99 80.1265C326.034 78.5492 331.445 78.8647 333.812 80.7574C334.489 81.3883 335.165 82.0192 334.489 82.6501C333.812 83.5964 333.136 82.9655 332.121 82.6501C331.107 82.0192 329.754 81.3883 328.401 81.0728C325.695 80.4419 323.328 81.7037 321.637 83.5964C319.946 85.8046 319.946 92.7444 322.313 94.9526C324.343 96.8453 326.71 97.7916 329.077 96.8453C331.783 95.8989 333.474 93.6908 333.474 91.1672C333.474 90.2208 332.798 89.9054 331.783 89.9054C331.107 89.9054 330.43 90.2208 329.754 89.9054C329.077 89.9054 328.739 89.2745 328.401 88.9591C328.739 88.6436 329.416 88.0127 330.092 87.6973C330.768 87.3818 331.783 87.6973 332.459 87.6973Z" fill="white"/>
    <path d="M15.2132 87.6956C19.9481 87.3801 19.2717 88.9574 19.2717 91.481C18.9335 94.0046 17.9189 96.5282 15.5515 98.1054C12.5076 100.314 6.41992 99.6826 3.71428 97.1591C-0.344179 93.0582 -0.00597384 86.4338 2.69967 82.9639C4.05248 81.0712 6.08171 79.8094 8.44915 79.4939C11.1548 79.1785 13.5222 79.1785 15.8897 80.7557C16.2279 81.0712 16.9043 81.3866 17.2425 81.7021C17.5807 81.7021 17.5807 82.333 17.2425 82.6484C16.9043 82.9639 16.2279 82.9639 15.5515 82.9639C14.5368 82.6484 13.8604 82.0175 12.8458 81.3866C9.46376 79.8094 6.08171 81.0712 4.39069 83.9102C2.36146 87.3802 2.36146 90.8501 4.39069 94.32C5.74351 96.8436 8.44915 97.79 11.1548 97.1591C14.1986 96.5282 16.2279 94.32 16.2279 91.481C16.2279 90.2192 15.8897 89.9037 14.5368 89.9037C13.8604 89.9037 12.8458 89.9037 12.1694 89.9037C11.8312 89.9037 11.1548 89.2728 11.1548 88.9574C11.1548 88.6419 11.8312 88.011 12.1694 88.011C13.5222 87.3801 14.1986 87.6956 15.2132 87.6956Z" fill="white"/>
    <path d="M65.2734 98.1041C65.6116 96.8423 66.2881 96.2114 66.6263 95.2651C68.6555 90.2179 70.6847 85.4861 72.7139 80.439C73.0521 79.8081 73.7286 78.8617 74.405 78.8617C75.0814 78.8617 76.096 79.4926 76.4342 80.1235C77.787 83.5935 79.1398 86.7479 80.4927 90.2179C81.5073 92.7415 82.5219 94.9496 83.5365 97.4732C83.5365 97.7887 83.1983 98.4195 83.1983 99.0504C82.5219 98.735 81.8455 98.735 81.5073 98.4196C80.8309 97.4732 80.4927 96.5269 80.1545 95.5805C79.8162 94.6342 79.1398 94.3187 77.787 94.3187C75.4196 94.3187 73.3904 94.3187 71.0229 94.3187C70.0083 94.3187 69.3319 94.6342 68.9937 95.5805C68.6555 96.5269 68.3173 97.4732 67.9791 98.4196C67.6409 98.735 66.9645 99.0504 66.6263 99.0504C65.9499 99.0504 65.6116 98.4196 65.2734 98.1041ZM74.405 92.7415C75.4196 92.7415 76.4342 92.7415 77.4488 92.7415C78.4634 92.7415 78.8016 92.426 78.4634 91.4797C77.4488 88.6406 76.4342 85.8016 75.0814 83.278C75.0814 82.9626 74.7432 82.6471 74.405 82.6471C74.0668 82.9626 73.7286 82.9626 73.7286 83.278C72.7139 86.117 71.6993 88.9561 70.6847 91.4797C70.3465 92.426 70.6847 92.7415 71.6993 92.7415C72.7139 92.7415 73.3904 92.7415 74.405 92.7415Z" fill="white"/>
    <path d="M201.902 88.9561C201.902 86.117 201.902 83.278 201.902 80.439C201.902 79.8081 201.902 78.8617 202.917 78.8617C203.931 78.8617 204.27 79.4926 204.27 80.439C204.27 86.117 204.27 91.7951 204.27 97.4732C204.27 98.4195 204.27 99.0504 202.917 99.0504C201.902 99.0504 201.902 98.1041 201.902 97.4732C201.564 94.6342 201.564 91.7951 201.902 88.9561Z" fill="white"/>
</svg>
