<svg width="326" height="100" viewBox="0 0 326 100" fill="none" xmlns="http://www.w3.org/2000/svg">
    <path d="M0 50.9465C0.32663 51.2725 0.653261 51.2725 0.653261 51.2725C2.28641 52.2507 3.91956 52.9028 5.55272 53.881C6.20598 54.207 6.20598 53.881 6.20598 53.2256C6.20598 48.338 6.53261 43.1211 6.53261 38.2302C6.53261 37.9042 6.53261 37.5781 6.85924 37.2521C8.82229 33.9915 10.7788 30.7309 12.412 27.4703C14.0451 24.2098 16.3315 21.6013 18.9446 18.9928C22.5375 15.4062 26.1304 11.8196 29.7234 8.23295C30.7033 7.90689 30.7033 7.90689 31.0299 8.55901C31.6831 10.8414 32.3331 12.7978 32.9897 15.0802C33.3163 16.0583 33.3163 16.0583 34.2962 15.4062C35.2761 14.7541 35.6027 14.102 35.6027 12.7978C36.5859 8.55901 37.5658 4.64632 38.869 0.407572C39.1956 -0.244543 39.5223 0.0815144 39.8489 0.0815144C41.1554 0.733629 42.1353 1.7118 43.4418 2.36392C47.0348 4.64632 50.6277 6.60266 54.5473 8.55901C57.1603 9.86324 59.4467 11.8196 61.4065 14.102C64.0195 17.0365 66.9592 19.971 69.8989 22.9055C70.2288 23.2316 70.5522 23.2316 71.2054 23.2316C73.4918 22.2534 76.1049 21.6013 78.3913 20.6231C78.7179 20.6231 79.0445 20.9492 79.3712 20.9492C80.3511 23.2316 81.331 25.514 82.6375 27.7964C84.2706 31.383 85.9038 34.9697 87.8636 38.5563C89.1701 41.4908 90.8032 44.4253 92.113 47.0338C92.113 47.0338 92.113 47.3598 92.113 47.6859C91.7831 49.9683 91.1299 52.2507 90.8032 54.5331C90.15 57.7937 89.8233 61.0543 89.1701 64.3148C88.8435 65.6191 88.8435 66.5972 88.5168 67.9015C88.5168 68.5536 88.8435 68.5536 89.1701 68.5536C90.8032 68.2243 92.763 67.8982 94.3962 67.2493C94.7261 67.2493 94.7261 67.2493 95.0494 66.9233C95.0494 67.2493 94.7228 67.5721 94.7228 67.5721C93.4163 68.5536 93.0897 69.8545 92.7598 71.1588C90.8 76.0496 88.8435 80.9405 86.8804 85.8314C85.9038 88.117 84.2706 88.7691 82.3109 89.7473C78.3913 91.0515 74.7984 92.3525 70.8788 93.9828C66.9592 95.287 63.0397 96.9173 59.1168 98.2248C57.4837 98.8736 56.1804 99.529 54.5473 99.8551C54.2174 99.8551 53.894 100.181 53.5641 99.8551C51.6043 99.8551 49.6478 99.529 47.6848 99.203C44.0918 98.8736 40.8255 98.8736 37.2326 98.8736C34.2962 98.5509 31.3565 97.8987 28.7435 96.5945C27.1103 95.9424 25.4772 95.2903 23.844 94.9642C20.9043 93.9828 17.638 92.6818 14.6984 91.7036C14.3685 91.7036 14.0451 91.3776 14.0451 91.0515C11.7587 87.1388 9.14565 83.2294 6.85924 79.3102C5.22609 76.3789 3.92283 73.1184 3.59293 69.5285C3.2663 66.9233 2.61304 64.3148 2.28641 61.7064C1.95978 59.424 1.63315 57.1416 0.979891 54.8559C0.653261 53.5549 0.32663 52.5768 0 51.2725C0 51.5986 0 51.2725 0 50.9465ZM46.7081 38.8823C38.2158 38.8823 29.0701 38.8823 19.9245 38.8823C19.2712 38.8823 18.9446 39.2084 18.9446 39.8605C18.9446 45.7295 19.2712 51.5986 19.2712 57.1416C19.2712 57.7937 19.5978 58.1165 20.2511 58.1165C25.8038 57.7937 31.6831 57.7937 37.2359 57.4676C38.219 57.4676 38.219 57.4676 38.219 58.4458C38.219 60.0761 38.219 62.0357 38.5456 63.666C38.8723 66.9265 39.1989 69.8578 39.5255 73.1184C39.5255 78.0092 39.5255 82.9001 39.5255 87.791C39.5255 88.7691 39.5255 89.0919 40.8321 89.0919C44.0984 89.0919 47.0348 89.0919 50.3011 89.0919C51.6076 89.0919 52.9174 89.0919 53.8973 89.4212C54.8772 89.4212 55.2005 89.4212 55.2005 88.4431C55.5272 85.5086 56.1804 82.9001 56.1804 79.9656C56.5071 76.705 56.507 73.7705 56.507 70.5099C56.507 66.5972 56.507 62.3585 56.507 58.4458C56.507 58.1165 56.507 57.7937 56.8337 57.7937C57.8168 57.4676 59.1201 56.8155 60.1 56.8155C64.3494 56.8155 68.2657 56.8155 72.5152 56.4862C73.1652 56.4862 73.8185 56.4862 74.475 56.4862C75.1315 56.4862 75.4549 56.1601 75.4549 55.1852C75.4549 49.6422 75.7848 44.0993 75.7848 38.8823C75.7848 38.2302 75.4549 37.9042 75.1315 37.9042C74.8016 37.9042 74.1516 37.9042 73.825 37.9042C64.9994 38.5563 56.1804 38.5563 46.7081 38.8823Z" fill="white"/>
    <path d="M169.514 70.8368C169.514 76.3798 169.514 81.9227 169.514 87.4657C169.514 88.1211 169.187 88.4471 168.534 88.4471C166.574 88.4471 164.615 88.4471 162.655 88.4471C162.001 88.4471 161.675 88.1211 161.348 87.4657C160.695 84.8572 159.715 82.2488 159.062 79.6403C158.735 78.3361 158.409 77.0319 158.082 75.7276C157.755 75.0788 157.432 74.4234 156.449 74.4234H156.122C154.816 74.0974 154.816 74.0974 154.816 75.4048C155.146 79.3143 155.799 83.5563 156.122 87.4657C156.122 88.1178 155.796 88.4439 155.469 88.1178C153.509 88.1178 151.223 87.7918 149.263 87.7918C148.61 87.7918 148.61 87.4624 148.61 86.8136C148.61 83.8791 148.61 80.9413 148.61 77.6807C148.61 76.0504 148.28 74.7495 148.28 73.1192C147.953 69.2065 147.953 65.2971 147.953 61.3779C147.953 59.0987 147.953 56.487 147.953 54.2079C147.953 53.8818 147.953 53.2264 148.606 53.2264C150.24 52.9004 152.199 52.5776 153.832 51.9255C154.486 51.9255 155.796 52.5776 155.796 53.2264C156.122 54.8567 156.775 56.487 157.099 58.1173C158.079 61.0518 158.732 63.6635 159.712 66.598V66.9241C160.042 68.5544 160.695 68.8804 162.328 68.2283C162.655 68.2283 162.655 67.5762 162.655 67.5762C162.655 64.9677 162.328 62.0365 162.001 59.4248C162.001 58.4466 161.675 57.4684 161.675 56.4903C161.675 55.186 161.348 53.8818 161.348 52.5776C161.348 51.9255 161.678 51.5994 162.001 51.5994C163.965 51.5994 166.248 51.5994 168.207 51.9255C168.861 52.2548 169.187 52.5776 169.187 53.2264C169.514 60.0769 169.514 65.6199 169.514 70.8368Z" fill="white"/>
    <path d="M302.125 70.5081C302.125 64.9652 302.125 59.4222 302.125 53.5531C302.125 52.575 302.125 52.575 303.105 52.2522C305.391 52.2522 307.351 51.9229 309.638 51.9229C310.291 51.9229 310.617 52.2522 310.617 52.575C310.617 55.8355 310.617 59.0961 310.291 62.3567C310.291 63.3349 309.961 63.987 309.638 64.9651C309.311 65.6173 309.637 65.9433 310.291 65.9433C312.251 65.6173 313.884 64.313 314.21 62.0339C314.864 59.0961 314.864 56.4844 314.864 53.5531C314.864 52.575 314.864 52.2522 316.17 52.2522C318.457 52.2522 320.743 51.9229 323.029 51.9229C323.683 51.9229 324.013 52.2522 324.336 52.901C324.989 59.0961 323.356 64.9651 318.783 69.53C317.803 70.8342 317.48 70.8342 318.783 71.8156C320.746 74.4208 322.703 77.0325 324.012 80.2931C324.662 82.2495 325.316 84.5319 325.316 86.4882C325.316 86.8143 324.989 87.1371 324.662 87.1371C323.029 87.4631 321.07 87.4631 319.436 87.4631C317.803 87.4631 317.477 87.1371 317.15 85.8328C316.17 83.2276 314.864 80.6159 313.884 78.0107C313.23 76.7032 312.251 76.7032 311.271 76.7032L310.944 77.3553C310.944 79.3117 310.944 80.942 310.944 82.8983C310.944 84.1993 310.614 85.5068 310.291 86.811C310.291 87.1371 309.638 87.4599 309.638 87.4599C307.678 87.4599 305.718 87.7892 303.758 87.7892C303.105 87.7892 302.778 87.4599 302.778 86.811C302.452 81.9201 302.452 76.3772 302.125 70.5081C302.125 70.5081 302.452 70.5081 302.125 70.5081Z" fill="white"/>
    <path d="M119.87 71.815C119.87 77.3547 119.87 82.8977 119.87 88.444C119.87 89.4221 119.87 89.4221 118.887 89.4221C116.927 89.0928 114.97 88.77 113.007 88.77C112.354 88.77 112.027 88.444 112.027 87.4658C112.027 84.5345 112.027 81.2739 111.701 78.3394C111.701 78.0101 111.371 77.6841 111.047 77.358C110.718 77.0319 110.068 76.7091 109.741 76.0538C109.414 75.7277 109.088 75.7277 109.088 76.3831C108.761 77.0352 108.438 77.6841 108.108 78.6655C108.108 78.9915 108.108 79.6437 108.108 80.2958C108.438 83.2303 108.761 86.1648 109.088 89.0961C109.088 89.7514 108.761 89.7514 108.438 89.7514C106.151 89.7514 104.188 89.7514 101.905 89.7514C101.252 89.7482 100.925 89.4221 100.925 88.77C100.925 82.901 100.925 76.7091 100.925 70.8369C100.925 66.9274 100.275 63.0115 99.9453 59.0988C99.9453 57.1424 99.9453 55.1861 99.9453 53.5558C99.9453 53.2265 100.275 52.9037 100.599 52.9037C102.885 52.9037 105.171 52.9037 107.131 52.9037C107.784 52.9037 107.784 53.2297 107.784 53.8851C107.784 56.4903 108.111 58.776 108.111 61.3812C108.111 63.9929 108.111 66.6014 108.111 68.8838C108.111 69.2098 108.441 69.5326 108.764 69.5326C109.418 69.5326 110.397 69.8619 111.051 69.8619C111.704 69.8619 112.031 69.8619 112.031 68.8838C112.031 64.319 112.031 59.7509 112.031 55.5154C112.031 54.534 112.031 54.534 113.337 54.534C115.297 54.534 117.253 54.534 119.216 54.534C120.196 54.534 120.196 54.86 120.196 55.5154C119.87 60.7291 119.87 66.2688 119.87 71.815Z" fill="white"/>
    <path d="M248.899 77.0304C248.899 78.3347 248.569 79.6389 248.569 80.9399C248.569 82.8995 248.569 85.1819 248.569 87.135C248.569 87.7871 248.242 87.7871 247.915 88.1164C246.282 88.4424 244.323 89.0913 242.689 89.4174C242.036 89.4174 241.71 89.4174 241.71 88.7652C241.386 84.8558 241.06 81.2692 240.733 77.3565C240.406 70.1832 240.406 63.336 240.406 56.1628C240.406 55.5139 240.406 55.1846 240.406 54.5325C240.406 53.2283 240.406 53.2283 241.713 53.2283C243.999 53.2283 245.959 53.2283 248.245 53.2283C248.899 53.2283 248.899 53.5576 248.899 53.8836C248.899 56.4888 248.569 59.1005 248.569 62.0351C248.569 63.336 248.569 64.6403 248.242 65.9445C248.242 66.5966 248.569 66.5966 248.895 66.5966C250.855 66.5966 251.179 66.2673 251.832 64.3142C253.138 60.7276 253.795 57.467 254.118 53.5543C254.118 52.9022 254.445 52.5761 255.425 52.5761C257.058 52.5761 259.018 52.5761 260.651 52.5761C261.304 52.5761 261.631 52.9022 261.631 53.225C261.631 55.5107 261.631 58.1159 261.304 60.4015C260.984 63.0067 259.677 65.2924 258.371 67.5748C257.391 68.879 256.738 70.1865 256.085 71.4875C255.758 72.1396 255.758 72.4656 256.414 72.7884C258.698 75.4001 260.004 78.3347 260.984 81.5952C261.637 83.5516 261.967 85.5047 262.617 87.461C262.617 87.7903 262.617 88.1164 262.291 88.1164C260.004 88.1164 257.718 88.1164 255.431 88.1164C255.105 88.1164 254.778 87.461 254.451 87.1382C253.798 84.2004 252.818 81.5952 251.512 79.3096C250.858 78.3347 250.205 77.3565 249.225 76.7044C248.899 77.0304 248.899 77.0304 248.899 77.0304Z" fill="white"/>
    <path d="M131.963 66.5952C131.963 71.4861 132.293 76.377 132.293 81.5971C132.293 81.9232 132.293 82.246 132.293 82.5721C132.293 82.9014 132.619 82.9014 132.946 82.9014C132.946 82.9014 132.946 82.9014 133.272 82.9014C136.212 82.2493 135.885 82.5721 136.212 79.6408C136.212 74.0978 136.212 68.5581 136.539 63.0086C136.539 59.422 136.539 56.1614 136.539 52.578C136.539 51.5999 136.539 51.2738 137.845 51.2738C139.478 51.2738 141.112 50.9478 142.745 50.9478C143.725 50.9478 143.725 50.9478 143.725 51.9259C143.725 55.1865 143.725 58.4471 143.725 61.3783C143.725 65.9431 143.725 70.1851 143.725 74.7499C143.725 77.3584 143.725 79.9701 142.745 82.5721C141.435 86.8108 139.148 88.115 134.576 88.4411C131.963 88.7672 129.676 88.115 127.39 86.8108C125.427 85.5066 124.124 83.5502 124.124 81.2678C123.797 73.1164 123.797 65.291 123.797 57.1396C123.797 55.8354 123.797 54.5279 123.797 52.8976C123.797 52.2487 124.123 52.2487 124.45 52.2487C126.413 52.2487 128.696 52.5748 130.656 52.5748C131.959 52.5748 131.959 52.5748 131.959 53.879C132.289 58.1145 132.289 62.3565 131.963 66.5952C131.963 66.5952 132.289 66.5952 131.963 66.5952Z" fill="white"/>
    <path d="M224.062 81.9203C224.062 83.5506 224.062 85.1808 224.062 87.1372C224.062 87.7893 223.736 88.1186 223.082 88.1186C221.776 88.1186 220.469 88.1186 219.163 88.1186C218.51 88.1186 218.183 87.7893 218.183 87.1372C217.856 82.2463 217.856 77.6815 217.53 72.7907C217.203 66.2695 217.203 60.0777 217.203 53.5565C217.203 52.9044 217.203 52.5784 217.856 52.5784C220.796 52.2491 223.409 52.2491 226.349 51.923C228.635 51.923 231.248 52.2523 233.208 53.8826C235.168 55.1836 235.821 56.8139 236.474 58.7702C237.454 61.7047 237.781 64.636 236.801 67.5738C236.801 69.8562 235.821 71.4864 234.188 73.1167C233.535 73.7688 233.535 74.4177 233.535 75.3991C234.515 78.6597 235.168 81.5942 235.821 84.8548C236.148 85.8297 236.148 86.4851 236.148 87.46C236.148 88.1154 235.821 88.1154 235.494 88.1154C233.861 88.1154 232.558 88.4414 230.925 88.4414C230.595 88.4414 230.272 88.1154 229.942 87.7893C229.288 84.8548 228.635 81.9203 227.982 78.9858C227.655 78.3336 227.655 77.3555 227.329 76.7034C227.329 76.374 227.002 76.048 227.002 76.048C226.022 76.048 225.039 75.7219 224.062 75.7219C224.062 75.7219 223.736 76.374 223.736 76.7034C224.062 78.6597 224.062 80.29 224.062 81.9203ZM224.062 64.3132C224.062 65.9435 224.062 67.2477 224.062 68.878C224.062 69.5268 224.062 69.8562 224.716 69.5268C226.675 69.2008 228.635 68.5519 230.268 67.5705C230.595 67.2444 230.922 66.9216 230.922 66.5923C231.248 64.3099 230.592 62.0308 229.938 60.0712C229.612 59.4191 229.288 59.093 228.305 59.093C227.325 59.093 226.022 59.093 225.039 59.093C224.389 59.093 224.389 59.4191 224.389 59.7419C224.062 61.3754 224.062 62.6829 224.062 64.3132Z" fill="white"/>
    <path d="M174.097 64.6395C174.097 61.7082 174.097 57.4695 174.097 53.2274C174.097 52.5786 174.424 52.2525 175.077 52.2525C178.017 52.5786 181.283 52.5786 184.223 52.9014C184.876 52.9014 185.529 53.2274 186.186 53.5535C189.122 54.8545 191.412 56.8141 192.718 59.7453C193.045 60.7268 193.372 61.7049 193.372 62.6798C193.372 66.2665 193.698 69.8531 193.698 73.443C193.698 76.3743 193.045 78.9827 191.738 81.5944C190.755 83.5508 189.122 85.1811 186.839 85.8299C183.243 87.4635 179.65 88.1188 175.73 88.1188C174.097 88.1188 173.117 87.1407 173.117 85.5104C173.444 78.9892 173.77 72.4681 174.097 64.6395ZM186.509 68.5554C186.509 66.5958 186.509 64.6395 185.856 63.0092C185.529 61.0528 184.223 59.7486 182.263 59.0997C181.283 58.7737 181.283 59.0997 181.283 60.0779C181.283 63.0092 181.283 66.2697 180.953 69.2075C180.953 72.142 180.626 75.0798 180.626 78.0111C180.626 78.9892 180.626 80.2935 180.953 81.2716C180.953 81.9238 181.606 81.9238 181.606 81.601C183.239 80.2967 184.546 78.9892 185.203 76.7101C186.182 74.0984 186.509 71.4899 186.509 68.5554Z" fill="white"/>
    <path d="M284.826 70.8362C284.826 73.7707 284.826 76.3791 284.826 79.3136C284.826 80.6179 285.476 81.9254 286.46 82.9035C286.786 83.2329 287.11 83.5557 287.439 83.5557C288.743 84.5338 288.743 84.5338 289.726 83.5557C291.029 82.2514 291.686 80.6211 291.686 78.6648C291.686 78.0127 292.012 77.6834 292.666 77.6834C293.972 77.6834 295.605 77.6834 296.912 77.6834C297.565 77.6834 297.895 77.6834 297.895 78.3387C297.895 79.969 297.895 81.5993 297.565 82.9003C297.238 85.5087 295.932 87.139 293.319 88.1172C289.726 89.4182 285.806 89.7475 282.213 87.7879C279.6 86.4869 277.967 84.198 277.644 81.2667C276.991 76.3759 277.314 71.1557 277.644 66.2648C277.644 64.3085 277.644 62.6782 277.97 60.7251C277.97 59.0948 278.95 57.7906 279.933 56.4831C282.87 53.2225 286.136 51.9216 290.382 52.8965C293.649 53.5486 296.265 55.5082 297.898 58.4395C298.548 59.7404 298.878 61.0479 298.548 62.3521C298.548 63.001 298.222 63.3303 297.568 63.3303C295.935 63.3303 294.302 63.3303 292.342 63.3303C291.689 63.3303 291.362 63.001 291.689 62.3521C292.016 60.0697 289.729 58.4394 287.769 59.0916C286.136 59.4176 284.833 60.7219 284.833 63.001C284.826 65.6192 284.826 68.2277 284.826 70.8362Z" fill="white"/>
    <path d="M196.961 71.158C196.961 65.6183 196.961 60.0753 196.961 54.5291C196.961 53.8802 197.288 53.5509 197.941 53.5509C202.84 53.5509 207.413 53.5509 212.313 53.5509C213.616 53.5509 213.946 53.5509 213.946 55.1812C213.946 56.4822 213.946 57.7897 213.946 59.0939C213.946 59.7427 213.616 60.0721 212.966 60.0721C210.679 60.0721 208.066 60.0721 205.78 60.0721C204.8 60.0721 204.473 60.4014 204.473 61.0502C204.473 63.6619 204.473 65.9411 204.473 68.5528C204.473 69.2017 204.803 69.5277 205.453 69.5277C207.086 69.5277 208.72 69.2017 210.353 69.2017C211.006 69.2017 211.336 69.2017 211.336 69.8538C211.336 71.4841 211.336 72.785 211.006 74.4153C211.006 74.7479 210.353 75.0739 210.026 75.0739C208.393 75.0739 207.086 75.4 205.453 75.4C204.803 75.4 204.473 75.7261 204.473 76.3782C204.473 78.3378 204.473 80.2909 204.473 82.57C204.473 83.2254 204.803 83.5514 205.453 83.5514C208.07 83.5514 210.353 83.5514 212.969 83.2254C213.619 83.2254 213.949 83.2254 213.949 84.2003C213.949 85.5045 213.949 86.812 213.949 88.4423C213.949 89.0912 213.619 89.4205 212.969 89.4205C208.07 89.4205 203.17 89.4205 198.271 89.4205C197.288 89.4205 197.288 89.4205 197.288 88.4423C197.288 82.8993 197.288 77.3564 197.288 72.1394C197.288 71.158 197.288 71.158 196.961 71.158Z" fill="white"/>
    <path d="M265.557 70.184C265.557 64.6378 265.557 59.098 265.557 53.8811C265.557 53.2257 265.884 52.8997 266.537 52.8997C268.5 52.5736 270.784 52.2508 272.743 51.5955C273.397 51.5955 273.397 51.5955 273.723 52.2508C273.723 55.5114 274.05 59.098 274.05 62.3586C274.05 69.8579 274.05 77.6801 274.05 85.1826C274.05 87.139 274.05 86.8129 272.417 87.139C270.457 87.139 268.5 87.465 266.537 87.465C265.884 87.465 265.557 87.139 265.557 86.4901C265.231 81.2699 265.231 75.727 265.557 70.184C265.231 70.184 265.231 70.184 265.557 70.184Z" fill="white"/>
</svg>
