<svg width="246" height="105" viewBox="0 0 246 105" fill="none" xmlns="http://www.w3.org/2000/svg">
<rect x="1" y="1" width="244" height="103" rx="9" fill="#11121E" stroke="#1F2946" stroke-width="2"/>
<path fill-rule="evenodd" clip-rule="evenodd" d="M96.7663 46.2203C97.9248 46.2203 98.9244 46.4265 99.7652 46.8328C100.61 47.2426 101.307 47.7947 101.866 48.4891C102.418 49.1869 102.828 50.0031 103.093 50.9374C103.357 51.8753 103.489 52.8826 103.489 53.9619C103.489 55.6181 103.184 57.1846 102.569 58.6604C101.954 60.1379 101.118 61.4199 100.056 62.5134C98.9949 63.606 97.7418 64.4666 96.2969 65.1022C94.8537 65.7397 93.2855 66.057 91.6013 66.057C91.3835 66.057 91.0006 66.0517 90.4598 66.0393C89.9189 66.0286 89.2968 65.9735 88.6007 65.8792C87.9 65.7823 87.1592 65.6383 86.3765 65.4454C85.5947 65.256 84.8521 64.9902 84.1523 64.6533L90.4053 38.4822L96.0059 37.6172L93.7675 46.9039C94.2467 46.6888 94.7296 46.5216 95.2116 46.4007C95.6962 46.2834 96.213 46.2203 96.7663 46.2203ZM92.0689 61.629C92.9123 61.629 93.7067 61.4227 94.4537 61.0164C95.2026 60.611 95.8487 60.0625 96.3896 59.3788C96.9305 58.6934 97.3598 57.9199 97.6722 57.0558C97.9845 56.1926 98.1425 55.292 98.1425 54.3541C98.1425 53.2028 97.9497 52.304 97.5642 51.655C97.1786 51.0078 96.4664 50.6833 95.431 50.6833C95.0919 50.6833 94.6545 50.7473 94.1128 50.862C93.5692 50.9856 93.0828 51.2389 92.6464 51.6203L90.2625 61.484C90.4062 61.508 90.5338 61.5329 90.6418 61.5552C90.748 61.5792 90.8649 61.5969 90.9818 61.6094C91.1059 61.6236 91.2469 61.6298 91.4174 61.6298C91.5878 61.6298 91.8038 61.629 92.0689 61.629Z" fill="white"/>
<path fill-rule="evenodd" clip-rule="evenodd" d="M109.297 65.5546H103.947L108.465 46.6193H113.852L109.297 65.5546ZM111.893 44.3117C111.146 44.3117 110.469 44.0895 109.868 43.6468C109.262 43.2058 108.962 42.5266 108.962 41.6118C108.962 41.1086 109.065 40.6356 109.269 40.1911C109.475 39.7466 109.745 39.3625 110.083 39.0381C110.422 38.7153 110.813 38.4575 111.257 38.2628C111.704 38.0717 112.18 37.9766 112.687 37.9766C113.433 37.9766 114.107 38.1979 114.709 38.6416C115.31 39.087 115.613 39.7662 115.613 40.6756C115.613 41.1806 115.511 41.6553 115.305 42.0999C115.1 42.5444 114.831 42.9266 114.493 43.2529C114.158 43.5756 113.762 43.8326 113.319 44.0255C112.872 44.2193 112.399 44.3117 111.893 44.3117Z" fill="white"/>
<path fill-rule="evenodd" clip-rule="evenodd" d="M118.539 41.9041L124.142 41.0391L122.766 46.6195H128.766L127.683 51.0103H121.718L120.129 57.6345C119.983 58.1865 119.9 58.7022 119.877 59.1805C119.851 59.6623 119.911 60.0757 120.056 60.4233C120.2 60.7718 120.459 61.0403 120.833 61.2314C121.206 61.4244 121.741 61.5213 122.441 61.5213C123.017 61.5213 123.58 61.467 124.123 61.3577C124.663 61.2519 125.211 61.1025 125.765 60.9078L126.164 65.0142C125.441 65.2783 124.659 65.5059 123.815 65.697C122.971 65.8899 121.97 65.9833 120.815 65.9833C119.153 65.9833 117.864 65.7388 116.946 65.2489C116.03 64.7555 115.382 64.0825 114.994 63.23C114.611 62.3809 114.44 61.4012 114.488 60.298C114.538 59.192 114.705 58.0292 114.994 56.805L118.539 41.9041Z" fill="white"/>
<path fill-rule="evenodd" clip-rule="evenodd" d="M128.533 58.0008C128.533 56.3694 128.798 54.8323 129.328 53.3912C129.857 51.9501 130.619 50.6903 131.608 49.6084C132.593 48.5318 133.793 47.6792 135.205 47.0542C136.611 46.431 138.184 46.1172 139.919 46.1172C141.004 46.1172 141.975 46.2185 142.828 46.4239C143.685 46.6302 144.46 46.8977 145.161 47.2329L143.316 51.4122C142.834 51.2175 142.333 51.0459 141.817 50.8895C141.299 50.7312 140.667 50.6548 139.92 50.6548C138.135 50.6548 136.723 51.2673 135.672 52.4888C134.626 53.7121 134.099 55.3577 134.099 57.4229C134.099 58.6471 134.364 59.6357 134.896 60.3931C135.425 61.1497 136.403 61.5257 137.823 61.5257C138.523 61.5257 139.199 61.4528 139.847 61.3106C140.499 61.1666 141.075 60.9861 141.583 60.771L141.982 65.0543C141.305 65.3165 140.559 65.553 139.741 65.7593C138.92 65.9593 137.944 66.0615 136.811 66.0615C135.317 66.0615 134.052 65.8446 133.017 65.4152C131.982 64.9796 131.126 64.4008 130.452 63.6683C129.775 62.9339 129.288 62.076 128.987 61.0919C128.686 60.1113 128.533 59.0783 128.533 58.0008H128.533Z" fill="white"/>
<path fill-rule="evenodd" clip-rule="evenodd" d="M152.28 66.0528C151.003 66.0528 149.894 65.8599 148.953 65.4767C148.015 65.0927 147.239 64.5548 146.624 63.8569C146.009 63.1626 145.547 62.3394 145.232 61.3917C144.916 60.4449 144.766 59.3949 144.766 58.2454C144.766 56.8025 144.999 55.3605 145.468 53.9221C145.936 52.4819 146.629 51.1875 147.549 50.0362C148.46 48.8831 149.583 47.9408 150.908 47.2055C152.23 46.4765 153.752 46.1094 155.46 46.1094C156.713 46.1094 157.817 46.3032 158.77 46.6864C159.719 47.0704 160.501 47.6118 161.119 48.3062C161.731 49.004 162.196 49.8237 162.508 50.7732C162.823 51.7182 162.977 52.7708 162.977 53.9212C162.977 55.3597 162.748 56.8017 162.293 58.2445C161.837 59.6794 161.161 60.9774 160.269 62.1305C159.378 63.2817 158.264 64.2232 156.926 64.9558C155.588 65.6865 154.038 66.0528 152.28 66.0528ZM154.95 50.6505C154.157 50.6505 153.456 50.8799 152.855 51.3333C152.253 51.7912 151.747 52.3672 151.339 53.0616C150.927 53.7586 150.621 54.5213 150.414 55.3472C150.21 56.1767 150.109 56.9599 150.109 57.7049C150.109 58.906 150.304 59.8413 150.686 60.5151C151.074 61.1846 151.77 61.5215 152.783 61.5215C153.579 61.5215 154.276 61.2939 154.881 60.8361C155.48 60.3818 155.986 59.8057 156.397 59.1096C156.807 58.4162 157.115 57.6516 157.322 56.8239C157.524 55.9971 157.627 55.2095 157.627 54.4662C157.627 53.2678 157.433 52.3308 157.048 51.6578C156.662 50.9866 155.962 50.6505 154.95 50.6505Z" fill="white"/>
<path fill-rule="evenodd" clip-rule="evenodd" d="M168.824 65.5546H163.471L167.989 46.6193H173.378L168.824 65.5546ZM171.414 44.3117C170.668 44.3117 169.992 44.0895 169.392 43.6468C168.788 43.2058 168.486 42.5266 168.486 41.6118C168.486 41.1086 168.589 40.6356 168.794 40.1911C168.998 39.7466 169.27 39.3625 169.608 39.0381C169.944 38.7153 170.339 38.4575 170.782 38.2628C171.227 38.0717 171.703 37.9766 172.209 37.9766C172.957 37.9766 173.632 38.1979 174.234 38.6416C174.836 39.087 175.14 39.7662 175.14 40.6756C175.14 41.1806 175.032 41.6553 174.829 42.0999C174.626 42.5444 174.356 42.9266 174.019 43.2529C173.679 43.5756 173.29 43.8326 172.846 44.0255C172.398 44.2193 171.923 44.3117 171.414 44.3117Z" fill="white"/>
<path fill-rule="evenodd" clip-rule="evenodd" d="M177.22 47.4807C177.626 47.3624 178.079 47.2202 178.573 47.0655C179.068 46.9108 179.621 46.7668 180.238 46.637C180.85 46.5036 181.539 46.3961 182.297 46.3107C183.056 46.2254 183.919 46.1836 184.88 46.1836C187.701 46.1836 189.646 47.0015 190.72 48.6337C191.792 50.266 191.979 52.4992 191.282 55.329L188.822 65.5527H183.437L185.822 55.5441C185.967 54.9191 186.082 54.3146 186.166 53.7243C186.251 53.1402 186.246 52.6246 186.147 52.1783C186.053 51.7373 185.828 51.3773 185.481 51.0972C185.128 50.8207 184.594 50.6838 183.87 50.6838C183.173 50.6838 182.463 50.7585 181.739 50.9025L178.232 65.5527H172.846L177.22 47.4807Z" fill="white"/>
<path fill-rule="evenodd" clip-rule="evenodd" d="M69.1988 66.0553C77.0826 66.0553 83.4737 59.6892 83.4737 51.8362C83.4737 43.9833 77.0826 37.6172 69.1988 37.6172C61.3149 37.6172 54.9238 43.9833 54.9238 51.8362C54.9238 59.6892 61.3149 66.0553 69.1988 66.0553ZM75.4932 49.8093C75.777 47.9165 74.3302 46.8995 72.3524 46.2203L72.9941 43.6555L71.4278 43.2661L70.803 45.7633C70.3916 45.6611 69.9685 45.5642 69.5472 45.4691L70.1765 42.9558L68.611 42.5664L67.9684 45.1303C67.6274 45.053 67.2927 44.9765 66.9679 44.8956L66.9696 44.8876L64.8089 44.3507L64.392 46.0176C64.392 46.0176 65.5541 46.2825 65.53 46.2994C66.1646 46.4577 66.2797 46.8755 66.2601 47.2071L65.5291 50.1275C65.5728 50.1382 65.6291 50.1533 65.6924 50.18C65.6398 50.1658 65.5845 50.1524 65.5264 50.1382L64.5018 54.2313C64.4242 54.4224 64.2269 54.7105 63.7833 54.6011C63.7994 54.6233 62.6445 54.3184 62.6445 54.3184L61.8662 56.1053L63.9047 56.6112C64.284 56.7054 64.6562 56.805 65.0213 56.8983L64.3733 59.4916L65.9379 59.881L66.5805 57.3153C67.008 57.43 67.423 57.5376 67.8291 57.638L67.1892 60.1913L68.7556 60.5807L69.4044 57.9927C72.0766 58.4959 74.0857 58.2932 74.9309 55.8858C75.6128 53.9468 74.897 52.8293 73.4913 52.1003C74.5159 51.8656 75.287 51.1953 75.4932 49.8093ZM71.9226 54.8063C71.438 56.7444 68.1624 55.6962 67.1003 55.4331L67.9607 51.9979C69.0228 52.2619 72.4287 52.7847 71.9226 54.8063ZM72.3944 49.7804C71.9526 51.5425 69.2259 50.6472 68.3415 50.4285L69.1215 47.3116C70.006 47.5321 72.854 47.9419 72.3944 49.7804Z" fill="#F7931A"/>
</svg>
