<svg width="245" height="105" viewBox="0 0 245 105" fill="none" xmlns="http://www.w3.org/2000/svg">
<rect x="1" y="1" width="243" height="103" rx="9" fill="#11121E" stroke="#1F2946" stroke-width="2"/>
<path fill-rule="evenodd" clip-rule="evenodd" d="M163.61 45.5886C163.634 45.5884 163.661 45.588 163.689 45.5875C164.255 45.5779 165.639 45.5544 166.241 47.582C166.668 49.0173 167.347 51.3684 168.28 54.6352H168.66C169.66 51.1911 170.347 48.84 170.721 47.582C171.322 45.5579 172.772 45.5778 173.475 45.5874C173.52 45.588 173.562 45.5886 173.6 45.5886L178.537 45.5886V60.8983H173.505V51.876H173.168L170.363 60.8983H166.577L163.772 51.8693H163.434V60.8983H158.402V45.5886L163.61 45.5886ZM185.763 45.5886V54.6176H186.164L189.576 47.1931C190.239 45.7156 191.65 45.5886 191.65 45.5886H196.52V60.8983H191.383V51.8693H190.981L187.636 59.2938C186.974 60.7646 185.495 60.8983 185.495 60.8983H180.626V45.5886H185.763ZM208.817 56.3378C211.309 56.3378 213.559 54.8881 214.276 52.8639H198.545V60.8983H203.43V56.3378H208.817Z" fill="#40A548"/>
<path d="M209.053 45.5859H198.289C198.545 48.9944 201.49 51.9123 204.538 51.9123H214.615C215.197 49.0794 213.195 45.5859 209.053 45.5859Z" fill="#1291D0"/>
<path fill-rule="evenodd" clip-rule="evenodd" d="M115.774 68.7891V70.9305V73.072H114.837V72.552C114.54 72.9376 114.088 73.1797 113.475 73.1797C112.266 73.1797 111.318 72.2392 111.318 70.9305C111.318 69.6229 112.266 68.6814 113.475 68.6814C114.088 68.6814 114.54 68.9234 114.837 69.3091V68.7891H115.774ZM113.593 69.5593C112.782 69.5593 112.285 70.1777 112.285 70.9305C112.285 71.6833 112.782 72.3018 113.593 72.3018C114.369 72.3018 114.892 71.71 114.892 70.9305C114.892 70.1511 114.369 69.5593 113.593 69.5593ZM147.455 70.9305C147.455 70.1777 147.952 69.5593 148.763 69.5593C149.54 69.5593 150.062 70.1511 150.062 70.9305C150.062 71.71 149.54 72.3018 148.763 72.3018C147.952 72.3018 147.455 71.6833 147.455 70.9305ZM150.947 67.0691V70.9305V73.072H150.009V72.552C149.711 72.9376 149.26 73.1797 148.647 73.1797C147.438 73.1797 146.49 72.2392 146.49 70.9305C146.49 69.6229 147.438 68.6814 148.647 68.6814C149.26 68.6814 149.711 68.9234 150.009 69.3091V67.0691H150.947ZM127.412 69.5153C128.016 69.5153 128.404 69.8917 128.503 70.5542H126.266C126.366 69.9358 126.744 69.5153 127.412 69.5153ZM125.283 70.9305C125.283 69.5952 126.167 68.6814 127.431 68.6814C128.638 68.6814 129.469 69.5952 129.478 70.9305C129.478 71.0557 129.469 71.1726 129.459 71.2885H126.258C126.393 72.0597 126.943 72.3377 127.547 72.3377C127.98 72.3377 128.44 72.1756 128.802 71.8895L129.261 72.5797C128.738 73.0187 128.143 73.1797 127.493 73.1797C126.203 73.1797 125.283 72.2925 125.283 70.9305ZM138.75 70.9305C138.75 70.1777 139.247 69.5593 140.058 69.5593C140.834 69.5593 141.357 70.1511 141.357 70.9305C141.357 71.71 140.834 72.3018 140.058 72.3018C139.247 72.3018 138.75 71.6833 138.75 70.9305ZM142.241 68.7891V70.9305V73.072H141.304V72.552C141.005 72.9376 140.555 73.1797 139.942 73.1797C138.733 73.1797 137.785 72.2392 137.785 70.9305C137.785 69.6229 138.733 68.6814 139.942 68.6814C140.555 68.6814 141.005 68.9234 141.304 69.3091V68.7891H142.241ZM133.455 70.9305C133.455 72.23 134.366 73.1797 135.755 73.1797C136.405 73.1797 136.837 73.0361 137.306 72.6689L136.856 71.9161C136.504 72.1674 136.134 72.3018 135.727 72.3018C134.979 72.2925 134.429 71.7551 134.429 70.9305C134.429 70.106 134.979 69.5685 135.727 69.5593C136.134 69.5593 136.504 69.6937 136.856 69.9449L137.306 69.1921C136.837 68.825 136.405 68.6814 135.755 68.6814C134.366 68.6814 133.455 69.6311 133.455 70.9305ZM144.406 69.3091C144.649 68.9327 145.001 68.6814 145.542 68.6814C145.732 68.6814 146.003 68.7173 146.21 68.7983L145.921 69.6762C145.723 69.5952 145.525 69.5685 145.335 69.5685C144.722 69.5685 144.415 69.9624 144.415 70.6711V73.072H143.477V68.7891H144.406V69.3091ZM120.413 69.1296C119.961 68.8342 119.34 68.6814 118.654 68.6814C117.562 68.6814 116.859 69.2014 116.859 70.0526C116.859 70.7511 117.382 71.1818 118.347 71.3162L118.79 71.3787C119.304 71.4505 119.546 71.5849 119.546 71.8269C119.546 72.1582 119.204 72.3469 118.563 72.3469C117.914 72.3469 117.445 72.1408 117.129 71.8987L116.688 72.6238C117.202 73.0002 117.851 73.1797 118.554 73.1797C119.799 73.1797 120.521 72.5971 120.521 71.7818C120.521 71.029 119.953 70.6352 119.015 70.5008L118.573 70.4372C118.167 70.3839 117.842 70.3039 117.842 70.0167C117.842 69.7029 118.148 69.5152 118.663 69.5152C119.213 69.5152 119.746 69.7214 120.007 69.8824L120.413 69.1296ZM131.372 69.3091C131.615 68.9327 131.967 68.6814 132.508 68.6814C132.698 68.6814 132.969 68.7173 133.176 68.7983L132.887 69.6762C132.689 69.5952 132.491 69.5685 132.301 69.5685C131.687 69.5685 131.381 69.9624 131.381 70.6711V73.072H130.443V68.7891H131.372V69.3091ZM124.508 68.7891H122.974V67.4896H122.027V68.7891H121.152V69.6403H122.027V71.5941C122.027 72.5879 122.415 73.1797 123.524 73.1797C123.93 73.1797 124.399 73.0546 124.696 72.8484L124.426 72.0505C124.146 72.2115 123.84 72.2925 123.596 72.2925C123.127 72.2925 122.974 72.0054 122.974 71.5756V69.6403H124.508V68.7891ZM110.49 70.3839V73.072H109.542V70.6885C109.542 69.9624 109.236 69.5593 108.596 69.5593C107.973 69.5593 107.541 69.9542 107.541 70.6977V73.072H106.593V70.6885C106.593 69.9624 106.278 69.5593 105.655 69.5593C105.014 69.5593 104.599 69.9542 104.599 70.6977V73.072H103.652V68.7891H104.591V69.3173C104.943 68.8158 105.393 68.6814 105.854 68.6814C106.512 68.6814 106.981 68.9686 107.278 69.4434C107.676 68.8424 108.244 68.6722 108.794 68.6814C109.841 68.6906 110.49 69.3716 110.49 70.3839Z" fill="#B0B0B0"/>
<path d="M134.31 61.5137H120.102V36.1484H134.31V61.5137Z" fill="#FF5F00"/>
<path d="M121.002 48.8292C121.002 43.6838 123.427 39.1004 127.204 36.1466C124.442 33.9867 120.957 32.6975 117.169 32.6975C108.201 32.6975 100.932 39.9198 100.932 48.8292C100.932 57.7386 108.201 64.9609 117.169 64.9609C120.957 64.9609 124.442 63.6718 127.204 61.5118C123.427 58.5581 121.002 53.9747 121.002 48.8292Z" fill="#EB001B"/>
<path d="M153.479 48.8292C153.479 57.7386 146.209 64.9609 137.241 64.9609C133.453 64.9609 129.968 63.6718 127.205 61.5118C130.983 58.5581 133.408 53.9747 133.408 48.8292C133.408 43.6838 130.983 39.1004 127.205 36.1466C129.968 33.9867 133.453 32.6975 137.241 32.6975C146.209 32.6975 153.479 39.9198 153.479 48.8292Z" fill="#F79E1B"/>
<path d="M48.5427 63.63L52.3208 41.4534H58.3641L54.5831 63.63H48.5427ZM76.4166 41.9314C75.2196 41.4821 73.3434 41 71.0005 41C65.0289 41 60.8228 44.0078 60.7868 48.3186C60.7531 51.5052 63.7898 53.283 66.0821 54.3437C68.4345 55.431 69.2252 56.1241 69.2139 57.0946C69.1988 58.5812 67.3354 59.26 65.5982 59.26C63.1796 59.26 61.8946 58.9239 59.9098 58.0963L59.1308 57.7438L58.2829 62.7082C59.6944 63.3275 62.3044 63.8636 65.0147 63.8915C71.3674 63.8915 75.4913 60.918 75.5382 56.3144C75.5607 53.7916 73.9508 51.8719 70.4641 50.289C68.3519 49.2631 67.0582 48.5785 67.0719 47.5397C67.0719 46.6179 68.1669 45.6322 70.5331 45.6322C72.509 45.6015 73.9408 46.0326 75.0562 46.4819L75.5977 46.7378L76.4166 41.9314ZM91.9681 41.453H87.2985C85.8519 41.453 84.7692 41.8479 84.134 43.2921L75.1589 63.6154H81.5049C81.5049 63.6154 82.5422 60.8828 82.7769 60.2828C83.4703 60.2828 89.6352 60.2923 90.5165 60.2923C90.6972 61.0687 91.2517 63.6154 91.2517 63.6154H96.8594L91.9681 41.4523V41.453ZM84.5591 55.7734C85.059 54.4956 86.967 49.574 86.967 49.574C86.9314 49.633 87.4631 48.29 87.7682 47.4573L88.1766 49.3694C88.1766 49.3694 89.3337 54.663 89.5756 55.773H84.5591V55.7734ZM43.4124 41.453L37.4959 56.5765L36.8656 53.5032C35.7641 49.9604 32.3325 46.1219 28.4961 44.2003L33.9061 63.5946L40.3001 63.5875L49.8142 41.4528L43.4124 41.4527" fill="#0E4595"/>
<path d="M31.9764 41.4531H22.2315L22.1543 41.9145C29.7357 43.7502 34.752 48.1863 36.8348 53.5172L34.7159 43.3261C34.3502 41.9218 33.2892 41.5026 31.9766 41.4537" fill="#F2AE14"/>
</svg>
