<svg width="246" height="106" viewBox="0 0 246 106" fill="none" xmlns="http://www.w3.org/2000/svg">
<rect x="1" y="1" width="244" height="104" rx="9" fill="#11121E" stroke="#1F2946" stroke-width="2"/>
<path d="M69.2662 51.9444L64.3241 56.8998L59.3848 51.9444L64.3241 46.989L69.2662 51.9444ZM81.2609 39.9107L89.728 48.4053L94.6645 43.461L81.2582 30L67.8518 43.461L72.7911 48.4164L81.2609 39.9107ZM98.195 46.989L93.2557 51.9444L98.1922 56.8998L103.132 51.9444L98.195 46.989ZM81.2609 63.9781L72.7939 55.4836L67.8518 60.4334L81.2582 73.8805L94.6645 60.4334L89.7252 55.478L81.2609 63.9781ZM81.2609 56.8998L86.2003 51.9444L81.2609 46.989L76.3216 51.9444L81.2609 56.8998ZM113.016 39.908H124.156C126.899 39.908 129.06 40.6648 130.43 42.0392C130.969 42.5714 131.394 43.2095 131.677 43.9137C131.96 44.6179 132.095 45.3731 132.074 46.1321V46.1988C132.074 48.9172 130.635 50.4308 128.921 51.3935C131.694 52.4591 133.411 54.0757 133.411 57.3088V57.3728C133.411 61.7745 129.847 63.9753 124.431 63.9753H113.013L113.016 39.908ZM123.025 49.6462C125.357 49.6462 126.83 48.8922 126.83 47.1031V47.0336C126.83 45.4532 125.596 44.5573 123.369 44.5573H118.155V49.6378L123.025 49.6462ZM124.431 59.3455C126.763 59.3455 128.167 58.5108 128.167 56.7328V56.6633C128.167 55.0467 126.968 54.0506 124.259 54.0506H118.158V59.3371L124.431 59.3455ZM138.619 39.9163H143.489L154.732 54.7379V39.908H159.941V63.9781H155.448L143.828 48.6751V63.9781H138.617L138.619 39.9163ZM166.555 39.9163H177.704C180.447 39.9163 182.607 40.6731 183.977 42.0476C184.517 42.5797 184.942 43.2178 185.225 43.9221C185.508 44.6263 185.643 45.3814 185.622 46.1404V46.2072C185.622 48.9256 184.183 50.4392 182.469 51.4018C185.242 52.4675 186.959 54.084 186.959 57.3171V57.3728C186.959 61.7745 183.395 63.9753 177.979 63.9753H166.552L166.555 39.9163ZM176.564 49.6545C178.897 49.6545 180.369 48.9005 180.369 47.1115V47.0419C180.369 45.4615 179.135 44.5656 176.908 44.5656H171.694V49.6378L176.564 49.6545ZM177.981 59.3371C180.314 59.3371 181.717 58.5024 181.717 56.7245V56.6549C181.717 55.0384 180.519 54.0423 177.809 54.0423H171.708V59.3288L177.981 59.3371Z" fill="#F0B90B"/>
</svg>
