<svg width="139" height="52" viewBox="0 0 139 52" fill="none" xmlns="http://www.w3.org/2000/svg">
<path d="M76.977 25.1304C78.389 24.3651 79.331 22.9665 79.331 21.0665C79.331 18.1373 76.977 16.2637 72.581 16.2637H64V34.7359H73.105C77.814 34.7359 80.273 32.8887 80.273 29.722C80.273 27.3206 78.939 25.7637 76.977 25.1304ZM72.215 18.9554C74.57 18.9554 75.904 19.7998 75.904 21.5151C75.904 23.204 74.57 24.0484 72.215 24.0484H67.401V18.9554H72.215ZM72.895 32.0442H67.401V26.7137H72.895C75.459 26.7137 76.846 27.5317 76.846 29.379C76.846 31.2262 75.459 32.0442 72.895 32.0442Z" fill="white"/>
<path d="M91.7742 34.9998C96.7712 34.9998 99.7792 32.0706 99.7792 26.6873V16.2637H96.4312V26.5554C96.4312 30.3554 94.7562 31.9915 91.8002 31.9915C88.8442 31.9915 87.1432 30.3554 87.1432 26.5554V16.2637H83.7422V26.6873C83.7422 32.0706 86.7512 34.9998 91.7742 34.9998Z" fill="white"/>
<path d="M110.221 35C115.244 35 117.625 32.4667 117.625 29.5111C117.625 22.7292 106.767 25.2889 106.767 21.3569C106.767 19.9583 107.919 18.85 110.744 18.85C112.34 18.85 114.145 19.325 115.793 20.3014L116.866 17.6361C115.27 16.5806 112.968 16 110.77 16C105.747 16 103.392 18.5333 103.392 21.5153C103.392 28.3764 114.276 25.7639 114.276 29.7486C114.276 31.1208 113.073 32.15 110.221 32.15C107.971 32.15 105.642 31.3056 104.177 30.1181L103 32.7833C104.517 34.1028 107.369 35 110.221 35Z" fill="white"/>
<path d="M121 34.7359H129.006C134.945 34.7359 139 31.0415 139 25.4998C139 19.9581 134.945 16.2637 129.006 16.2637H121V34.7359ZM124.401 31.8331V19.1665H128.849C132.93 19.1665 135.573 21.6734 135.573 25.4998C135.573 29.3262 132.93 31.8331 128.849 31.8331H124.401Z" fill="white"/>
<path d="M26 52C40.3594 52 52 40.3594 52 26C52 11.6406 40.3594 0 26 0C11.6406 0 0 11.6406 0 26C0 40.3594 11.6406 52 26 52Z" fill="#E59900"/>
<path d="M25.4958 9L29.8316 13.4269L18.9139 24.3119L14.5781 19.9891L25.4958 9Z" fill="white"/>
<path d="M32.0778 15.5625L36.4135 19.9895L18.9139 37.4368L14.5781 33.114L32.0778 15.5625Z" fill="white"/>
<path d="M12.3357 22.125L16.6715 26.5519L12.3357 30.8747L8 26.5519L12.3357 22.125Z" fill="white"/>
<path d="M38.6637 22.125L42.999 26.5519L25.4998 43.9992L21.1641 39.6764L38.6637 22.125Z" fill="white"/>
</svg>
