<svg width="174" height="52" viewBox="0 0 174 52" fill="none" xmlns="http://www.w3.org/2000/svg">
<path d="M167.711 16.6006L165.494 23.4513H153.649L155.867 16.6006H149.556L143.812 34.3599H150.106L152.324 27.5091H164.167L161.951 34.3599H168.261L174.005 16.6006H167.711Z" fill="white"/>
<path d="M142.693 24.7984C142.418 24.3713 142.029 24.0263 141.592 23.7963C141.107 23.5663 140.573 23.4513 140.039 23.4513H126.205L126.981 20.987H145.136L146.576 16.6006H126.447C125.832 16.6006 125.234 16.7156 124.667 16.9456C124.02 17.1756 123.438 17.5206 122.92 17.9641C122.467 18.4077 121.917 18.8677 121.577 19.4263C121.172 19.9684 120.833 20.5763 120.59 21.217L120.04 22.8927C119.894 23.4841 119.829 24.092 119.813 24.6999C119.91 25.2584 120.04 25.817 120.266 26.162C120.541 26.5891 120.93 26.9341 121.366 27.1806C121.836 27.4434 122.37 27.5913 122.92 27.6241H136.754L135.978 29.9899H117.807L116.383 34.3763H136.512C137.127 34.3763 137.725 34.2613 138.292 34.0313C138.939 33.8013 139.521 33.4563 140.039 33.0292C140.492 32.5856 141.042 32.1256 141.382 31.567C141.803 31.0249 142.126 30.417 142.369 29.7763L142.919 28.1006C143.097 27.5091 143.178 26.9013 143.146 26.2934C143.032 25.702 142.919 25.1599 142.693 24.7984Z" fill="white"/>
<path d="M117.918 19.3107C117.821 18.7521 117.691 18.3085 117.383 17.9471C117.157 17.52 116.802 17.1585 116.381 16.945C115.896 16.715 115.361 16.5835 114.827 16.6H99.0185C98.4035 16.6 97.8045 16.715 97.2385 16.945C96.5915 17.175 95.9925 17.52 95.4745 17.9635C95.0215 18.4071 94.4875 18.8671 94.1315 19.4257C93.7115 19.9678 93.3875 20.5757 93.1445 21.2164L88.9375 34.3593H95.2485L99.5685 21.0028H111.51L110.2 24.9293H101.786L100.459 29.0857H108.857L107.189 34.3757H113.404L117.708 21.1014C117.886 20.51 117.951 19.9185 117.918 19.3107Z" fill="white"/>
<path d="M90.3784 19.4261C90.3464 18.9168 90.2004 18.4075 89.9414 17.9639C89.7154 17.5039 89.3104 17.1425 88.8414 16.9618C88.3554 16.7153 87.8224 16.6003 87.2884 16.6168H67.1594L65.7194 21.0032H83.9544L81.0744 29.9732H62.8384L61.3984 34.3596H81.6244C82.2274 34.3435 82.8234 34.227 83.3884 34.0146C83.9544 33.6861 84.6024 33.3575 85.1524 32.8975C85.6864 32.4704 86.1714 31.9775 86.5924 31.4354C86.9484 30.8932 87.2394 30.3346 87.4824 29.7432L90.1524 21.2168C90.3944 20.6582 90.4754 20.0339 90.3784 19.4261Z" fill="white"/>
<path d="M72.9024 23.4512H62.1744L60.7344 27.5091H71.5754L72.9024 23.4512Z" fill="white"/>
<path d="M25.0113 51.0923C38.8246 51.0923 50.023 39.6549 50.023 25.5461C50.023 11.4374 38.8246 0 25.0113 0C11.1979 0 0 11.4374 0 25.5461C0 39.6549 11.1979 51.0923 25.0113 51.0923Z" fill="#008DE4"/>
<path d="M30.3645 11.2383H17.8005L16.7596 17.1828L28.1023 17.1991C33.6887 17.1991 35.3402 19.271 35.2924 22.7043C35.2659 24.467 34.5224 27.4447 34.1985 28.4101C33.3383 30.981 31.5699 33.9207 24.9427 33.9099L13.9134 33.9044L12.8672 39.8543H25.4047C29.8282 39.8543 31.708 39.3282 33.6994 38.3899C38.1175 36.3072 40.7461 31.8542 41.7975 26.0453C43.3693 17.3944 41.4151 11.2383 30.3645 11.2383Z" fill="white"/>
<path d="M12.3724 22.5576C9.08011 22.5576 8.60751 24.7488 8.29951 26.0722C7.89061 27.8079 7.75781 28.5075 7.75781 28.5075H20.6246C23.9169 28.5075 24.3895 26.3163 24.6975 24.9929C25.1064 23.2573 25.2392 22.5576 25.2392 22.5576H12.3724Z" fill="white"/>
</svg>
