<svg width="245" height="106" viewBox="0 0 245 106" fill="none" xmlns="http://www.w3.org/2000/svg">
<rect x="1" y="1" width="243" height="104" rx="9" fill="#11121E" stroke="#1F2946" stroke-width="2"/>
<path fill-rule="evenodd" clip-rule="evenodd" d="M99.7535 51.7269C99.5751 49.6773 98.0003 47.806 95.8317 47.806C93.6631 47.806 92.1185 49.6773 91.9108 51.7269H99.7526H99.7535ZM100.644 52.1341C100.643 52.2474 100.597 52.3557 100.516 52.4352C100.436 52.5148 100.327 52.5592 100.214 52.5587H91.9108C92.1185 54.6093 93.6631 56.4805 95.8317 56.4805C97.3168 56.4805 98.4167 55.916 99.2484 54.7273C99.3692 54.5654 99.5458 54.4592 99.7773 54.5571C99.8303 54.5808 99.8777 54.6154 99.9162 54.6588C99.9548 54.7022 99.9837 54.7532 100.001 54.8086C100.018 54.864 100.024 54.9225 100.017 54.9801C100.01 55.0377 99.9904 55.0931 99.9603 55.1428C99.1295 56.5995 97.4659 57.3114 95.8317 57.3114C93.0399 57.3114 91.0488 54.817 91.0488 52.1433C91.0488 49.4696 93.0399 46.9743 95.8317 46.9743C98.6216 46.9743 100.638 49.4632 100.644 52.1341ZM110.715 47.182C110.953 47.182 111.131 47.3906 111.131 47.5983C111.131 47.8362 110.953 48.0137 110.715 48.0137H108.487V56.7477C108.484 56.8572 108.44 56.9615 108.362 57.0389C108.285 57.1163 108.181 57.1608 108.071 57.1631C107.962 57.161 107.857 57.1166 107.779 57.0392C107.702 56.9618 107.657 56.8573 107.655 56.7477V48.0137H105.516C105.461 48.0151 105.407 48.0053 105.356 47.9849C105.305 47.9646 105.258 47.934 105.219 47.8952C105.18 47.8563 105.15 47.81 105.129 47.759C105.109 47.708 105.099 47.6533 105.1 47.5983C105.1 47.3906 105.278 47.182 105.516 47.182H107.655V43.9849C107.655 43.7835 107.792 43.5969 107.991 43.5649C108.267 43.5191 108.487 43.7103 108.487 43.9739V47.182H110.715ZM124.29 51.4003V56.6892C124.29 56.9262 124.082 57.1037 123.874 57.1037C123.819 57.1049 123.764 57.095 123.713 57.0746C123.662 57.0542 123.616 57.0236 123.577 56.9848C123.538 56.946 123.508 56.8997 123.487 56.8487C123.467 56.7977 123.457 56.7431 123.458 56.6882V51.4003C123.458 49.6178 122.448 47.8353 120.458 47.8353C117.903 47.8353 116.804 50.0634 116.953 52.351C116.953 52.4105 116.983 52.6777 116.983 52.7079V56.6773C116.983 56.8786 116.845 57.0652 116.648 57.0982C116.371 57.143 116.151 56.9518 116.151 56.6882V39.31C116.151 39.1022 116.329 38.8945 116.566 38.8945C116.804 38.8945 116.983 39.1022 116.983 39.31V49.1429C117.696 47.8655 118.973 47.0035 120.458 47.0035C122.894 47.0035 124.29 49.1429 124.29 51.4003ZM138.282 51.7269C138.103 49.6773 136.529 47.806 134.36 47.806C132.191 47.806 130.647 49.6773 130.439 51.7269H138.282ZM139.172 52.1341C139.171 52.2474 139.125 52.3557 139.045 52.4352C138.964 52.5148 138.855 52.5592 138.742 52.5587H130.439C130.647 54.6093 132.191 56.4805 134.36 56.4805C135.846 56.4805 136.945 55.916 137.777 54.7273C137.898 54.5654 138.074 54.4592 138.306 54.5571C138.359 54.5808 138.406 54.6154 138.445 54.6588C138.483 54.7022 138.512 54.7532 138.529 54.8086C138.547 54.864 138.552 54.9225 138.545 54.9801C138.538 55.0377 138.519 55.0931 138.489 55.1428C137.658 56.5995 135.994 57.3114 134.36 57.3114C131.568 57.3114 129.578 54.817 129.578 52.1433C129.578 49.4696 131.568 46.9743 134.36 46.9743C137.15 46.9743 139.167 49.4632 139.172 52.1341ZM149.362 47.5681C149.362 47.8362 149.214 47.9845 148.976 48.0137C146.54 48.3706 145.441 50.3608 145.441 52.6777V56.648C145.441 56.8493 145.304 57.035 145.105 57.068C144.829 57.1128 144.608 56.9216 144.608 56.6581V47.6084C144.608 47.4071 144.746 47.2213 144.944 47.1884C145.221 47.1435 145.441 47.3348 145.441 47.5983V49.4403C146.124 48.2809 147.491 47.1829 148.916 47.1829C149.124 47.1829 149.362 47.3311 149.362 47.5681ZM162.106 51.7269C161.927 49.6773 160.353 47.806 158.185 47.806C156.016 47.806 154.472 49.6773 154.264 51.7269H162.106ZM162.997 52.1341C162.996 52.2473 162.95 52.3554 162.869 52.435C162.789 52.5145 162.68 52.559 162.567 52.5587H154.264C154.472 54.6093 156.016 56.4805 158.185 56.4805C159.67 56.4805 160.769 55.916 161.601 54.7273C161.722 54.5654 161.899 54.4592 162.13 54.5571C162.191 54.5835 162.245 54.6247 162.286 54.677C162.327 54.7292 162.354 54.7909 162.366 54.8564C162.384 54.9553 162.366 55.0577 162.313 55.1437C161.482 56.5986 159.818 57.3123 158.185 57.3123C155.392 57.3123 153.403 54.817 153.403 52.1424C153.403 49.4696 155.392 46.9743 158.185 46.9743C160.974 46.9743 162.992 49.4632 162.998 52.1341H162.997ZM176.394 47.6733V56.7477C176.394 56.9856 176.186 57.1631 175.978 57.1631C175.923 57.1645 175.869 57.1547 175.818 57.1343C175.767 57.114 175.72 57.0834 175.681 57.0446C175.642 57.0058 175.612 56.9594 175.591 56.9084C175.571 56.8574 175.561 56.8027 175.562 56.7477V55.0247C174.879 56.3909 173.662 57.3718 172.116 57.3718C169.651 57.3718 168.285 55.2324 168.285 52.975V47.6587C168.285 47.4501 168.462 47.2415 168.7 47.2415C168.938 47.2415 169.117 47.4501 169.117 47.6578V52.975C169.117 54.7575 170.126 56.54 172.116 56.54C174.909 56.54 175.562 53.9258 175.562 51.0434V47.6578C175.563 47.5932 175.579 47.5296 175.608 47.4721C175.638 47.4145 175.68 47.3645 175.732 47.3259C175.784 47.2874 175.844 47.2612 175.907 47.2496C175.971 47.238 176.036 47.2411 176.098 47.2588C176.186 47.2868 176.262 47.3423 176.315 47.417C176.368 47.4917 176.396 47.5816 176.394 47.6733ZM197.396 51.371V56.6873C197.396 56.9262 197.188 57.1037 196.98 57.1037C196.925 57.105 196.871 57.0952 196.82 57.0749C196.768 57.0545 196.722 57.024 196.683 56.9851C196.644 56.9463 196.614 56.8999 196.593 56.8489C196.573 56.7979 196.563 56.7432 196.564 56.6882V51.371C196.564 49.5885 195.555 47.8362 193.564 47.8362C191.069 47.8362 190.118 50.509 190.118 52.5889V56.6882C190.118 56.9262 189.911 57.1037 189.702 57.1037C189.647 57.1051 189.593 57.0953 189.542 57.0749C189.49 57.0545 189.444 57.0239 189.405 56.9851C189.366 56.9462 189.336 56.8999 189.315 56.8488C189.295 56.7978 189.285 56.7432 189.287 56.6882V51.371C189.287 49.5885 188.276 47.8362 186.286 47.8362C183.761 47.8362 182.721 49.8264 182.81 52.4699C182.81 52.5294 182.84 52.6484 182.81 52.6777V56.6782C182.81 56.8795 182.674 57.0643 182.475 57.0973C182.198 57.143 181.978 56.9509 181.978 56.6882V47.6093C181.978 47.408 182.116 47.2213 182.314 47.1884C182.59 47.1435 182.81 47.3348 182.81 47.5983V49.1127C183.524 47.8362 184.801 47.0045 186.287 47.0045C187.979 47.0045 189.287 48.0732 189.821 49.648C190.504 48.1034 191.841 47.0035 193.564 47.0035C195.999 47.0035 197.396 49.1127 197.396 51.371Z" fill="white"/>
<path fill-rule="evenodd" clip-rule="evenodd" d="M51.3086 53.0176L65.1805 61.2182V30L51.3086 53.0176Z" fill="#8C8C8C"/>
<path fill-rule="evenodd" clip-rule="evenodd" d="M65.1777 30V61.2182L79.0496 53.0176L65.1777 30Z" fill="#343434"/>
<path fill-rule="evenodd" clip-rule="evenodd" d="M65.1814 46.7148L51.3086 53.0194L65.1805 61.2199L79.0533 53.0203L65.1814 46.7148Z" fill="#151515"/>
<path fill-rule="evenodd" clip-rule="evenodd" d="M65.1814 46.7148L51.3086 53.0194L65.1805 61.2199L65.1814 46.7148Z" fill="#393939"/>
<path fill-rule="evenodd" clip-rule="evenodd" d="M51.3086 55.6523L65.1805 75.2011V63.8483L51.3086 55.6523Z" fill="#8C8C8C"/>
<path fill-rule="evenodd" clip-rule="evenodd" d="M65.1777 63.8483V75.202L79.0588 55.6523L65.1777 63.8483Z" fill="#343434"/>
</svg>
