<svg width="24" height="24" viewBox="10 10 24 24" fill="none" xmlns="http://www.w3.org/2000/svg">
<g filter="url(#filter0_d_418_103085)">
<path d="M29.97 12.75H27.03C25.76 12.75 25 13.51 25 14.78V17.72C25 18.99 25.76 19.75 27.03 19.75H29.97C31.24 19.75 32 18.99 32 17.72V14.78C32 13.51 31.24 12.75 29.97 12.75ZM30.19 16.06C30.07 16.18 29.91 16.24 29.75 16.24C29.59 16.24 29.43 16.18 29.31 16.06L29.13 15.88V18.12C29.13 18.47 28.85 18.75 28.5 18.75C28.15 18.75 27.87 18.47 27.87 18.12V15.88L27.69 16.06C27.45 16.3 27.05 16.3 26.81 16.06C26.57 15.82 26.57 15.42 26.81 15.18L28.06 13.93C28.11 13.88 28.18 13.84 28.25 13.81C28.27 13.8 28.29 13.8 28.31 13.79C28.36 13.77 28.41 13.76 28.47 13.76C28.49 13.76 28.51 13.76 28.53 13.76C28.6 13.76 28.66 13.77 28.73 13.8C28.74 13.8 28.74 13.8 28.75 13.8C28.82 13.83 28.88 13.87 28.93 13.92C28.94 13.93 28.94 13.93 28.95 13.93L30.2 15.18C30.44 15.42 30.44 15.82 30.19 16.06Z" fill="#FA00FF"/>
<path d="M28.2172 13.5579L28.2162 13.5582C28.2108 13.5596 28.2009 13.5622 28.1904 13.5654C28.1784 13.5692 28.1633 13.5746 28.1467 13.5823C28.0635 13.6184 27.9634 13.673 27.8832 13.7532L26.6332 15.0032C26.2956 15.3409 26.2956 15.8991 26.6332 16.2368C26.8975 16.5011 27.297 16.5585 27.62 16.409V18.12C27.62 18.6081 28.0119 19 28.5 19C28.9881 19 29.38 18.6081 29.38 18.12V16.409C29.4973 16.4632 29.6241 16.49 29.75 16.49C29.9711 16.49 30.1952 16.4073 30.365 16.2386C30.715 15.9006 30.7144 15.3409 30.3768 15.0032L29.1268 13.7532L29.0536 13.68H29.0353C28.9785 13.6356 28.9159 13.5991 28.8485 13.5702L28.8013 13.55H28.7764C28.6918 13.5206 28.6128 13.51 28.53 13.51H28.5299H28.5298H28.5296H28.5295H28.5294H28.5293H28.5292H28.5291H28.5289H28.5288H28.5287H28.5286H28.5285H28.5284H28.5282H28.5281H28.528H28.5279H28.5278H28.5277H28.5275H28.5274H28.5273H28.5272H28.5271H28.527H28.5268H28.5267H28.5266H28.5265H28.5264H28.5263H28.5261H28.526H28.5259H28.5258H28.5257H28.5255H28.5254H28.5253H28.5252H28.5251H28.525H28.5248H28.5247H28.5246H28.5245H28.5244H28.5243H28.5241H28.524H28.5239H28.5238H28.5237H28.5236H28.5234H28.5233H28.5232H28.5231H28.523H28.5229H28.5227H28.5226H28.5225H28.5224H28.5223H28.5221H28.522H28.5219H28.5218H28.5217H28.5216H28.5214H28.5213H28.5212H28.5211H28.521H28.5209H28.5207H28.5206H28.5205H28.5204H28.5203H28.5202H28.52H28.5199H28.5198H28.5197H28.5196H28.5195H28.5193H28.5192H28.5191H28.519H28.5189H28.5188H28.5186H28.5185H28.5184H28.5183H28.5182H28.518H28.5179H28.5178H28.5177H28.5176H28.5175H28.5173H28.5172H28.5171H28.517H28.5169H28.5168H28.5166H28.5165H28.5164H28.5163H28.5162H28.5161H28.5159H28.5158H28.5157H28.5156H28.5155H28.5154H28.5152H28.5151H28.515H28.5149H28.5148H28.5146H28.5145H28.5144H28.5143H28.5142H28.5141H28.5139H28.5138H28.5137H28.5136H28.5135H28.5134H28.5132H28.5131H28.513H28.5129H28.5128H28.5127H28.5125H28.5124H28.5123H28.5122H28.5121H28.512H28.5118H28.5117H28.5116H28.5115H28.5114H28.5113H28.5111H28.511H28.5109H28.5108H28.5107H28.5105H28.5104H28.5103H28.5102H28.5101H28.51H28.5098H28.5097H28.5096H28.5095H28.5094H28.5093H28.5091H28.509H28.5089H28.5088H28.5087H28.5086H28.5084H28.5083H28.5082H28.5081H28.508H28.5079H28.5077H28.5076H28.5075H28.5074H28.5073H28.5071H28.507H28.5069H28.5068H28.5067H28.5066H28.5064H28.5063H28.5062H28.5061H28.506H28.5059H28.5057H28.5056H28.5055H28.5054H28.5053H28.5052H28.505H28.5049H28.5048H28.5047H28.5046H28.5045H28.5043H28.5042H28.5041H28.504H28.5039H28.5038H28.5036H28.5035H28.5034H28.5033H28.5032H28.503H28.5029H28.5028H28.5027H28.5026H28.5025H28.5023H28.5022H28.5021H28.502H28.5019H28.5018H28.5016H28.5015H28.5014H28.5013H28.5012H28.5011H28.5009H28.5008H28.5007H28.5006H28.5005H28.5004H28.5002H28.5001H28.5H28.4999H28.4998H28.4996H28.4995H28.4994H28.4993H28.4992H28.4991H28.4989H28.4988H28.4987H28.4986H28.4985H28.4984H28.4982H28.4981H28.498H28.4979H28.4978H28.4977H28.4975H28.4974H28.4973H28.4972H28.4971H28.497H28.4968H28.4967H28.4966H28.4965H28.4964H28.4962H28.4961H28.496H28.4959H28.4958H28.4957H28.4955H28.4954H28.4953H28.4952H28.4951H28.495H28.4948H28.4947H28.4946H28.4945H28.4944H28.4943H28.4941H28.494H28.4939H28.4938H28.4937H28.4936H28.4934H28.4933H28.4932H28.4931H28.493H28.4929H28.4927H28.4926H28.4925H28.4924H28.4923H28.4921H28.492H28.4919H28.4918H28.4917H28.4916H28.4914H28.4913H28.4912H28.4911H28.491H28.4909H28.4907H28.4906H28.4905H28.4904H28.4903H28.4902H28.49H28.4899H28.4898H28.4897H28.4896H28.4895H28.4893H28.4892H28.4891H28.489H28.4889H28.4887H28.4886H28.4885H28.4884H28.4883H28.4882H28.488H28.4879H28.4878H28.4877H28.4876H28.4875H28.4873H28.4872H28.4871H28.487H28.4869H28.4868H28.4866H28.4865H28.4864H28.4863H28.4862H28.4861H28.4859H28.4858H28.4857H28.4856H28.4855H28.4854H28.4852H28.4851H28.485H28.4849H28.4848H28.4846H28.4845H28.4844H28.4843H28.4842H28.4841H28.4839H28.4838H28.4837H28.4836H28.4835H28.4834H28.4832H28.4831H28.483H28.4829H28.4828H28.4827H28.4825H28.4824H28.4823H28.4822H28.4821H28.482H28.4818H28.4817H28.4816H28.4815H28.4814H28.4812H28.4811H28.481H28.4809H28.4808H28.4807H28.4805H28.4804H28.4803H28.4802H28.4801H28.48H28.4798H28.4797H28.4796H28.4795H28.4794H28.4793H28.4791H28.479H28.4789H28.4788H28.4787H28.4786H28.4784H28.4783H28.4782H28.4781H28.478H28.4779H28.4777H28.4776H28.4775H28.4774H28.4773H28.4771H28.477H28.4769H28.4768H28.4767H28.4766H28.4764H28.4763H28.4762H28.4761H28.476H28.4759H28.4757H28.4756H28.4755H28.4754H28.4753H28.4752H28.475H28.4749H28.4748H28.4747H28.4746H28.4745H28.4743H28.4742H28.4741H28.474H28.4739H28.4737H28.4736H28.4735H28.4734H28.4733H28.4732H28.473H28.4729H28.4728H28.4727H28.4726H28.4725H28.4723H28.4722H28.4721H28.472H28.4719H28.4718H28.4716H28.4715H28.4714H28.4713H28.4712H28.4711H28.4709H28.4708H28.4707H28.4706H28.4705H28.4704H28.4702H28.4701H28.47C28.3789 13.51 28.2973 13.5258 28.2172 13.5579ZM28.95 13.68C28.9469 13.68 28.9475 13.6799 28.9503 13.68H28.95ZM27.03 13H29.97C30.555 13 30.993 13.1741 31.2845 13.4655C31.5759 13.757 31.75 14.195 31.75 14.78V17.72C31.75 18.305 31.5759 18.743 31.2845 19.0345C30.993 19.3259 30.555 19.5 29.97 19.5H27.03C26.445 19.5 26.007 19.3259 25.7155 19.0345C25.4241 18.743 25.25 18.305 25.25 17.72V14.78C25.25 14.195 25.4241 13.757 25.7155 13.4655C26.007 13.1741 26.445 13 27.03 13Z" stroke="#FC80FF" stroke-width="0.5"/>
</g>
<g filter="url(#filter1_d_418_103085)">
<path d="M12 22.46V27.46C12 29.75 13.85 31.6 16.14 31.6H27.85C30.14 31.6 32 29.74 32 27.45V22.46C32 21.79 31.46 21.25 30.79 21.25H13.21C12.54 21.25 12 21.79 12 22.46ZM18 28.25H16C15.59 28.25 15.25 27.91 15.25 27.5C15.25 27.09 15.59 26.75 16 26.75H18C18.41 26.75 18.75 27.09 18.75 27.5C18.75 27.91 18.41 28.25 18 28.25ZM24.5 28.25H20.5C20.09 28.25 19.75 27.91 19.75 27.5C19.75 27.09 20.09 26.75 20.5 26.75H24.5C24.91 26.75 25.25 27.09 25.25 27.5C25.25 27.91 24.91 28.25 24.5 28.25Z" fill="#FA00FF"/>
<path d="M12.25 27.46V22.46C12.25 21.9281 12.6781 21.5 13.21 21.5H30.79C31.3219 21.5 31.75 21.9281 31.75 22.46V27.45C31.75 29.6019 30.0019 31.35 27.85 31.35H16.14C13.9881 31.35 12.25 29.6119 12.25 27.46ZM16 28.5H18C18.5481 28.5 19 28.0481 19 27.5C19 26.9519 18.5481 26.5 18 26.5H16C15.4519 26.5 15 26.9519 15 27.5C15 28.0481 15.4519 28.5 16 28.5ZM20.5 28.5H24.5C25.0481 28.5 25.5 28.0481 25.5 27.5C25.5 26.9519 25.0481 26.5 24.5 26.5H20.5C19.9519 26.5 19.5 26.9519 19.5 27.5C19.5 28.0481 19.9519 28.5 20.5 28.5Z" stroke="#FC80FF" stroke-width="0.5"/>
</g>
<g filter="url(#filter2_d_418_103085)">
<path d="M23.5 15.6099V18.5399C23.5 19.2099 22.96 19.7499 22.29 19.7499H13.21C12.53 19.7499 12 19.1899 12 18.5199C12.01 17.3899 12.46 16.3599 13.21 15.6099C13.96 14.8599 15 14.3999 16.14 14.3999H22.29C22.96 14.3999 23.5 14.9399 23.5 15.6099Z" fill="#FA00FF"/>
<path d="M23.25 15.6099V18.5399C23.25 19.0718 22.8219 19.4999 22.29 19.4999H13.21C12.6751 19.4999 12.2506 19.0591 12.25 18.521C12.2597 17.4575 12.683 16.4905 13.3868 15.7867C14.0913 15.0822 15.0683 14.6499 16.14 14.6499H22.29C22.8219 14.6499 23.25 15.078 23.25 15.6099Z" stroke="#FC80FF" stroke-width="0.5"/>
</g>
<defs>
<filter id="filter0_d_418_103085" x="13" y="0.75" width="31" height="31" filterUnits="userSpaceOnUse" color-interpolation-filters="sRGB">
<feFlood flood-opacity="0" result="BackgroundImageFix"/>
<feColorMatrix in="SourceAlpha" type="matrix" values="0 0 0 0 0 0 0 0 0 0 0 0 0 0 0 0 0 0 127 0" result="hardAlpha"/>
<feOffset/>
<feGaussianBlur stdDeviation="6"/>
<feComposite in2="hardAlpha" operator="out"/>
<feColorMatrix type="matrix" values="0 0 0 0 0.980392 0 0 0 0 0 0 0 0 0 1 0 0 0 0.25 0"/>
<feBlend mode="normal" in2="BackgroundImageFix" result="effect1_dropShadow_418_103085"/>
<feBlend mode="normal" in="SourceGraphic" in2="effect1_dropShadow_418_103085" result="shape"/>
</filter>
<filter id="filter1_d_418_103085" x="0" y="9.25" width="44" height="34.3501" filterUnits="userSpaceOnUse" color-interpolation-filters="sRGB">
<feFlood flood-opacity="0" result="BackgroundImageFix"/>
<feColorMatrix in="SourceAlpha" type="matrix" values="0 0 0 0 0 0 0 0 0 0 0 0 0 0 0 0 0 0 127 0" result="hardAlpha"/>
<feOffset/>
<feGaussianBlur stdDeviation="6"/>
<feComposite in2="hardAlpha" operator="out"/>
<feColorMatrix type="matrix" values="0 0 0 0 0.980392 0 0 0 0 0 0 0 0 0 1 0 0 0 0.25 0"/>
<feBlend mode="normal" in2="BackgroundImageFix" result="effect1_dropShadow_418_103085"/>
<feBlend mode="normal" in="SourceGraphic" in2="effect1_dropShadow_418_103085" result="shape"/>
</filter>
<filter id="filter2_d_418_103085" x="0" y="2.3999" width="35.5" height="29.3501" filterUnits="userSpaceOnUse" color-interpolation-filters="sRGB">
<feFlood flood-opacity="0" result="BackgroundImageFix"/>
<feColorMatrix in="SourceAlpha" type="matrix" values="0 0 0 0 0 0 0 0 0 0 0 0 0 0 0 0 0 0 127 0" result="hardAlpha"/>
<feOffset/>
<feGaussianBlur stdDeviation="6"/>
<feComposite in2="hardAlpha" operator="out"/>
<feColorMatrix type="matrix" values="0 0 0 0 0.980392 0 0 0 0 0 0 0 0 0 1 0 0 0 0.25 0"/>
<feBlend mode="normal" in2="BackgroundImageFix" result="effect1_dropShadow_418_103085"/>
<feBlend mode="normal" in="SourceGraphic" in2="effect1_dropShadow_418_103085" result="shape"/>
</filter>
</defs>
</svg>
