<svg width="246" height="106" viewBox="0 0 246 106" fill="none" xmlns="http://www.w3.org/2000/svg">
<rect x="1" y="1" width="244" height="104" rx="9" fill="#11121E" stroke="#1F2946" stroke-width="2"/>
<path fill-rule="evenodd" clip-rule="evenodd" d="M81.2383 40.0873L77.6921 53.3519L74.8822 54.4571L73.8697 58.2339L76.7251 57.2669L74.8367 65.0969L95.2861 65.1425L96.5294 60.1223H84.0937L85.7058 54.0882L89.0683 52.6598L90.0353 48.9755L86.7654 50.0806L89.3446 40.2241L81.2383 40.0873ZM85.1533 30.0028C91.1493 30.0064 96.8988 32.3898 101.139 36.6294C105.379 40.869 107.763 46.6181 107.767 52.6142C107.764 58.6107 105.38 64.3606 101.14 68.6008C96.8997 72.841 91.1498 75.2248 85.1533 75.2284C79.1567 75.2248 73.4068 72.841 69.1667 68.6008C64.9265 64.3606 62.5427 58.6107 62.5391 52.6142C62.5847 40.1329 72.6719 30 85.1533 30V30.0028Z" fill="white"/>
<path fill-rule="evenodd" clip-rule="evenodd" d="M124.177 44.1444C124.175 44.5455 124.015 44.9297 123.732 45.2134C123.448 45.497 123.064 45.657 122.663 45.6584C122.262 45.657 121.877 45.497 121.594 45.2134C121.31 44.9297 121.15 44.5455 121.149 44.1444C121.15 43.7433 121.31 43.359 121.594 43.0754C121.877 42.7918 122.262 42.6318 122.663 42.6303C123.511 42.6607 124.177 43.3266 124.177 44.1444ZM181.945 44.1886C181.943 44.5897 181.783 44.9739 181.5 45.2576C181.216 45.5412 180.832 45.7012 180.431 45.7026C180.029 45.7012 179.645 45.5412 179.362 45.2576C179.078 44.9739 178.918 44.5897 178.916 44.1886C178.918 43.7875 179.078 43.4032 179.362 43.1196C179.645 42.836 180.029 42.676 180.431 42.6745C180.832 42.676 181.216 42.836 181.5 43.1196C181.783 43.4032 181.943 43.7875 181.945 44.1886ZM116.123 41.8125H118.121V63.0964H116.123V41.8125ZM132.956 49.322L132.926 51.1386L130.08 51.169V63.1143H128.082V51.1552H125.661V49.2764H128.082V44.1292H130.08V49.2764H132.956V49.322ZM139.103 49.2612C141.072 48.8675 143.22 49.1231 144.856 50.3208C146.975 51.8349 147.823 54.6502 147.49 57.1313H135.831C136.01 58.4326 136.649 59.6732 137.737 60.4468C139.887 62.052 143.339 61.6279 144.852 59.3872L145.124 59.1151C145.79 59.2062 146.425 59.3872 147.062 59.5088C146.426 60.9621 145.215 62.1432 143.746 62.7786C141.959 63.5531 139.942 63.6075 138.116 62.9306C136.421 62.2951 135.028 60.933 134.33 59.2366C133.513 57.1645 133.573 54.816 134.51 52.8184C135.358 50.9715 137.114 49.6411 139.069 49.246L139.103 49.2612ZM137.256 52.4386C136.469 53.1956 136.013 54.2551 135.833 55.3147H145.504C145.365 53.5603 144.172 51.8639 142.445 51.3182C140.691 50.7131 138.57 51.1386 137.267 52.4234L137.256 52.4386ZM150.974 51.3804C153.578 48.5042 158.572 48.2928 161.39 50.9563L159.967 52.3792C157.999 50.6523 154.82 50.6523 152.853 52.3488C150.504 54.3463 150.643 58.4962 153.095 60.3418C155.063 61.8862 158.09 61.7951 159.967 60.1L161.39 61.4925C158.724 63.9142 154.185 64.0067 151.52 61.6141C148.674 59.0722 148.431 54.1957 150.974 51.3804ZM186.94 51.5185C187.697 49.9133 189.634 49.0665 191.481 49.0665C192.329 49.0665 193.176 49.2046 193.871 49.55C195.263 50.155 196.051 51.3362 196.444 52.6996C196.686 53.4871 196.776 54.3339 196.776 55.1517L196.745 63.1447H194.777V55.2733C194.777 54.0921 194.535 52.8212 193.717 51.9578C192.899 51.14 191.629 50.9286 190.54 51.1704C189.269 51.35 188.057 52.1098 187.452 53.2895C187.089 54.0162 186.937 54.8036 186.937 55.6214V63.1599H184.94V49.3828L186.937 49.4132L186.94 51.5185ZM167.956 49.2308C169.925 48.8675 172.045 49.1701 173.708 50.2904C175.283 51.2892 176.343 52.9842 176.645 54.8022C176.949 56.7086 176.645 58.7393 175.54 60.328C174.269 62.2344 171.968 63.3865 169.666 63.3561C167.728 63.4473 165.761 62.7206 164.399 61.3281C162.097 59.1178 161.733 55.3631 163.218 52.6085C164.157 50.8223 165.972 49.5803 167.942 49.217L167.956 49.2308ZM168.136 51.2284C166.53 51.5917 165.168 52.7729 164.624 54.3159C163.837 56.4655 164.503 59.1303 166.41 60.4316C168.651 62.0658 172.163 61.6431 173.798 59.372C174.379 58.544 174.721 57.5717 174.785 56.5621C174.849 55.5526 174.633 54.545 174.162 53.6501C173.056 51.5309 170.376 50.622 168.138 51.2284H168.136ZM121.664 63.1143V49.369L123.57 49.3082L123.601 63.1143H121.664ZM181.398 63.1143H179.458L179.488 49.3082H181.395L181.398 63.1143Z" fill="white"/>
</svg>
