<svg width="142" height="35" viewBox="0 0 142 35" fill="none" xmlns="http://www.w3.org/2000/svg">
<path d="M92.2896 25.6917C93.8076 25.6917 95.0856 25.1683 96.0946 24.1428C97.1046 23.0667 97.6136 21.7555 97.6136 20.1664C97.6136 18.5783 97.1036 17.2656 96.0946 16.2302C95.0856 15.1656 93.8076 14.6421 92.2896 14.6421C90.7796 14.6421 89.5026 15.1645 88.4926 16.2302C87.4836 17.2656 86.9846 18.5783 86.9846 20.1664C86.9846 21.7544 87.4836 23.0667 88.4916 24.1428C89.5026 25.1683 90.7806 25.6917 92.2896 25.6917ZM97.6136 11.535H101.246V28.7999H97.6136V26.3123C96.2296 28.2869 94.2785 29.2533 91.7225 29.2533C89.4065 29.2533 87.4456 28.3846 85.8016 26.6283C84.1586 24.8632 83.3516 22.6833 83.3516 20.1664C83.3516 17.6109 84.1586 15.4717 85.8026 13.705C87.4456 11.9487 89.4065 11.0805 91.7225 11.0805C94.2785 11.0805 96.2296 12.0474 97.6136 13.9808V11.535ZM115.325 15.1253H111.154V23.413C111.154 25.6227 112.568 25.583 115.325 25.4451V28.7994C109.77 29.49 107.522 27.9306 107.522 23.4136V15.1248H104.427V11.5339H107.522L107.516 6.69871H111.154V11.5339H115.325V15.1253ZM118.65 28.7994H122.283V11.5345H118.651V28.7994H118.65ZM118.814 8.25911C117.9 7.29271 117.9 5.83211 118.814 4.90381C119.025 4.67511 119.28 4.49291 119.564 4.36821C119.847 4.24351 120.153 4.17901 120.462 4.17871C120.77 4.17901 121.076 4.24351 121.359 4.36821C121.643 4.49291 121.898 4.67521 122.109 4.90381C123.013 5.83211 123.013 7.29111 122.071 8.25961C121.169 9.18631 119.756 9.18581 118.814 8.25911ZM128.078 26.6283C126.396 24.8627 125.551 22.7214 125.551 20.1664C125.551 17.5727 126.396 15.4414 128.079 13.705C129.799 11.9487 131.913 11.0805 134.431 11.0805C137.698 11.0805 140.592 12.8174 141.935 15.5412L138.813 17.4045C138.034 15.7459 136.421 14.7508 134.402 14.7508C132.922 14.7508 131.682 15.2627 130.663 16.2997C129.693 17.335 129.184 18.6186 129.184 20.1664C129.184 21.7153 129.693 22.9983 130.663 24.0341C131.682 25.0706 132.922 25.583 134.402 25.583C136.392 25.583 138.063 24.5576 138.87 22.9293L142.003 24.7545C140.563 27.5164 137.699 29.2533 134.431 29.2533C131.913 29.2533 129.798 28.3846 128.078 26.6283Z" fill="white"/>
<path d="M16.4609 14.8023L21.4205 25.5969L28.8034 21.421L28.8086 21.4178V13.0596L16.4609 14.8023Z" fill="#2BBDF7"/>
<path d="M38.0877 6.31841L33.604 4.57781L28.8125 4.17871V30.7291L36.001 34.9996L41.6747 23.0301L38.0959 11.4561L38.0877 6.31841Z" fill="#2891F9"/>
<path d="M37.6856 4.17871L36.0176 8.44871H36.0156V34.9996L43.2179 30.7296V4.17871H37.6856Z" fill="#2BBDF7"/>
<path d="M36.0154 0L28.8125 4.1796L36.0154 8.3582L43.218 4.1796L36.0154 0Z" fill="#2B6DEF"/>
<path d="M21.6074 16.9939V16.9918L14.4051 8.69951L0 4.17871V30.7275L7.2008 34.9996L9.2587 20.3074L14.4056 21.2692V21.265L21.6085 25.536V16.9939H21.6074Z" fill="#2891F9"/>
<path d="M76.076 6.79102L68.927 18.7893L61.808 6.79102H57.625V28.7313H61.508V13.6463L67.937 24.4875H69.913L76.346 13.6845V28.7303H80.262V6.79102H76.076Z" fill="white"/>
<path d="M7.2064 0L0 4.3087L21.6085 17.2388L24.8734 15.2861L28.8113 12.9291L7.2064 0Z" fill="#2B6DEF"/>
<path d="M7.20422 17.2393H7.20312V35.0005L14.4059 30.7875V21.4534L7.20422 17.2393Z" fill="#2BBDF7"/>
</svg>
