<svg width="246" height="105" viewBox="0 0 246 105" fill="none" xmlns="http://www.w3.org/2000/svg">
<rect x="1" y="1" width="244" height="103" rx="9" fill="#11121E" stroke="#1F2946" stroke-width="2"/>
<path d="M87.6702 28.8945H47.6983C46.3785 28.8945 45.3086 30.0077 45.3086 31.3808V56.2426C45.3086 57.6157 46.3785 58.7288 47.6983 58.7288H87.6702C88.9901 58.7288 90.06 57.6157 90.06 56.2426V31.3808C90.06 30.0077 88.9901 28.8945 87.6702 28.8945Z" fill="#009A44"/>
<path fill-rule="evenodd" clip-rule="evenodd" d="M52.3773 43.5851H50.2988V41.8438H52.3773V43.5851Z" fill="white"/>
<path fill-rule="evenodd" clip-rule="evenodd" d="M52.5 39.957H56.6496C57.213 39.957 57.6739 40.4181 57.6739 40.9814V41.7189H55.4725V47.3323H52.5V39.957Z" fill="white"/>
<path fill-rule="evenodd" clip-rule="evenodd" d="M52.3773 47.3322H51.3232C50.7598 47.3322 50.2988 46.8712 50.2988 46.3079V45.5703H52.3773V47.3322Z" fill="white"/>
<path fill-rule="evenodd" clip-rule="evenodd" d="M51.3232 39.957H52.3773V41.7189H50.2988V40.9814C50.2988 40.418 50.7598 39.957 51.3232 39.957Z" fill="white"/>
<path fill-rule="evenodd" clip-rule="evenodd" d="M52.3773 45.4485H50.2988V43.707H52.3773V45.4485Z" fill="white"/>
<path fill-rule="evenodd" clip-rule="evenodd" d="M57.6762 43.5851H55.5977V41.8438H57.6762V43.5851Z" fill="white"/>
<path fill-rule="evenodd" clip-rule="evenodd" d="M57.6762 45.4485H55.5977V43.707H57.6762V45.4485Z" fill="white"/>
<path fill-rule="evenodd" clip-rule="evenodd" d="M55.5977 47.3322H56.6519C57.2151 47.3322 57.6762 46.8712 57.6762 46.3079V45.5703H55.5978V47.3322H55.5977Z" fill="white"/>
<path d="M48.6495 53.2373C48.3704 53.2373 48.1586 53.164 48.0142 53.0189C47.8691 52.8731 47.7969 52.6697 47.7969 52.4087V51.0824C47.7969 50.8208 47.8698 50.6168 48.015 50.4716C48.1601 50.3265 48.3719 50.2539 48.6495 50.2539C48.9294 50.2539 49.141 50.3265 49.2856 50.471C49.43 50.6155 49.5023 50.8196 49.5023 51.0825V52.4088C49.5023 52.6711 49.43 52.8745 49.2849 53.0196C49.1398 53.1648 48.928 53.2373 48.6496 53.2373H48.6495ZM48.6495 52.8484C48.7976 52.8484 48.9069 52.8101 48.9777 52.7347C49.0477 52.6594 49.0828 52.5506 49.0828 52.4088V51.0825C49.0828 50.9408 49.0485 50.8326 48.9784 50.7566C48.9084 50.6813 48.7988 50.6437 48.6495 50.6437C48.5001 50.6437 48.3908 50.6813 48.3214 50.7566C48.2513 50.8326 48.2162 50.9408 48.2162 51.0825V52.4088C48.2162 52.5506 48.2512 52.6595 48.322 52.7347C48.3928 52.8101 48.5015 52.8484 48.6495 52.8484ZM50.8885 53.2373C50.6094 53.2373 50.3976 53.164 50.2532 53.0189C50.108 52.8731 50.0358 52.6697 50.0358 52.4087V51.0824C50.0358 50.8208 50.1088 50.6168 50.2539 50.4716C50.3991 50.3265 50.6109 50.2539 50.8885 50.2539C51.1682 50.2539 51.38 50.3265 51.5244 50.471C51.6689 50.6155 51.7411 50.8196 51.7411 51.0825V52.4088C51.7411 52.6711 51.6689 52.8745 51.5238 53.0196C51.3786 53.1648 51.1668 53.2373 50.8885 53.2373ZM50.8885 52.8484C51.0364 52.8484 51.1458 52.8101 51.2166 52.7347C51.2867 52.6594 51.3218 52.5506 51.3218 52.4088V51.0825C51.3218 50.9408 51.2874 50.8326 51.2174 50.7566C51.1473 50.6813 51.0379 50.6437 50.8886 50.6437C50.7392 50.6437 50.6299 50.6813 50.5604 50.7566C50.4904 50.8326 50.4553 50.9408 50.4553 51.0825V52.4088C50.4553 52.5506 50.4903 52.6595 50.5611 52.7347C50.6319 52.8101 50.7405 52.8484 50.8886 52.8484H50.8885ZM53.1273 53.2373C52.8482 53.2373 52.6364 53.164 52.492 53.0189C52.3468 52.8731 52.2746 52.6697 52.2746 52.4087V51.0824C52.2746 50.8208 52.3476 50.6168 52.4927 50.4716C52.6379 50.3265 52.8497 50.2539 53.1273 50.2539C53.4071 50.2539 53.6188 50.3265 53.7633 50.471C53.9079 50.6155 53.98 50.8196 53.98 51.0825V52.4088C53.98 52.6711 53.9079 52.8745 53.7627 53.0196C53.6176 53.1648 53.4058 53.2373 53.1274 53.2373H53.1273ZM53.1273 52.8484C53.2753 52.8484 53.3846 52.8101 53.4554 52.7347C53.5255 52.6594 53.5606 52.5506 53.5606 52.4088V51.0825C53.5606 50.9408 53.5262 50.8326 53.4562 50.7566C53.3861 50.6813 53.2766 50.6437 53.1273 50.6437C52.978 50.6437 52.8686 50.6813 52.7991 50.7566C52.7291 50.8326 52.694 50.9408 52.694 51.0825V52.4088C52.694 52.5506 52.7289 52.6595 52.7999 52.7347C52.8707 52.8101 52.9794 52.8484 53.1273 52.8484ZM55.3662 53.2373C55.0871 53.2373 54.8753 53.164 54.7309 53.0189C54.5858 52.8731 54.5136 52.6697 54.5136 52.4087V51.0824C54.5136 50.8208 54.5865 50.6168 54.7317 50.4716C54.8768 50.3265 55.0886 50.2539 55.3662 50.2539C55.6461 50.2539 55.8578 50.3265 56.0022 50.471C56.1467 50.6155 56.2189 50.8196 56.2189 51.0825V52.4088C56.2189 52.6711 56.1465 52.8745 56.0015 53.0196C55.8564 53.1648 55.6446 53.2373 55.3662 53.2373ZM55.3662 52.8484C55.5143 52.8484 55.6236 52.8101 55.6944 52.7347C55.7644 52.6594 55.7994 52.5506 55.7994 52.4088V51.0825C55.7994 50.9408 55.7652 50.8326 55.695 50.7566C55.625 50.6813 55.5154 50.6437 55.3661 50.6437C55.2168 50.6437 55.1074 50.6813 55.038 50.7566C54.9679 50.8326 54.9329 50.9408 54.9329 51.0825V52.4088C54.9329 52.5506 54.9679 52.6595 55.0388 52.7347C55.1096 52.8101 55.2182 52.8484 55.3662 52.8484Z" fill="white"/>
<path d="M59.0987 53.2373C58.8196 53.2373 58.6078 53.164 58.4634 53.0189C58.3183 52.8731 58.2461 52.6697 58.2461 52.4087V51.0824C58.2461 50.8208 58.319 50.6168 58.4642 50.4716C58.6093 50.3265 58.8211 50.2539 59.0989 50.2539C59.3786 50.2539 59.5904 50.3265 59.7348 50.471C59.8793 50.6155 59.9515 50.8196 59.9515 51.0825V52.4088C59.9515 52.6711 59.8793 52.8745 59.7342 53.0196C59.589 53.1648 59.3772 53.2373 59.0989 53.2373H59.0987ZM59.0987 52.8484C59.2466 52.8484 59.3561 52.8101 59.4269 52.7347C59.4969 52.6594 59.532 52.5506 59.532 52.4088V51.0825C59.532 50.9408 59.4977 50.8326 59.4276 50.7566C59.3576 50.6813 59.2482 50.6437 59.0989 50.6437C58.9496 50.6437 58.8401 50.6813 58.7707 50.7566C58.7007 50.8326 58.6656 50.9408 58.6656 51.0825V52.4088C58.6656 52.5506 58.7005 52.6595 58.7715 52.7347C58.8423 52.8101 58.9509 52.8484 59.099 52.8484H59.0987ZM61.3376 53.2373C61.0585 53.2373 60.8468 53.164 60.7023 53.0189C60.5571 52.8731 60.4849 52.6697 60.4849 52.4087V51.0824C60.4849 50.8208 60.5579 50.6168 60.703 50.4716C60.8482 50.3265 61.06 50.2539 61.3376 50.2539C61.6174 50.2539 61.8291 50.3265 61.9736 50.471C62.118 50.6155 62.1903 50.8196 62.1903 51.0825V52.4088C62.1903 52.6711 62.118 52.8745 61.973 53.0196C61.8278 53.1648 61.616 53.2373 61.3377 53.2373H61.3376ZM61.3376 52.8484C61.4856 52.8484 61.5949 52.8101 61.6657 52.7347C61.7358 52.6594 61.7709 52.5506 61.7709 52.4088V51.0825C61.7709 50.9408 61.7365 50.8326 61.6665 50.7566C61.5964 50.6813 61.4869 50.6437 61.3376 50.6437C61.1883 50.6437 61.0788 50.6813 61.0094 50.7566C60.9393 50.8326 60.9043 50.9408 60.9043 51.0825V52.4088C60.9043 52.5506 60.9392 52.6595 61.0102 52.7347C61.081 52.8101 61.1896 52.8484 61.3376 52.8484ZM63.5765 53.2373C63.2974 53.2373 63.0856 53.164 62.9412 53.0189C62.7962 52.8731 62.7239 52.6697 62.7239 52.4087V51.0824C62.7239 50.8208 62.7968 50.6168 62.942 50.4716C63.0871 50.3265 63.2989 50.2539 63.5765 50.2539C63.8562 50.2539 64.068 50.3265 64.2124 50.471C64.3569 50.6155 64.4291 50.8196 64.4291 51.0825V52.4088C64.4291 52.6711 64.3568 52.8745 64.2118 53.0196C64.0667 53.1648 63.8548 53.2373 63.5765 53.2373ZM63.5765 52.8484C63.7244 52.8484 63.8338 52.8101 63.9047 52.7347C63.9747 52.6594 64.0098 52.5506 64.0098 52.4088V51.0825C64.0098 50.9408 63.9755 50.8326 63.9054 50.7566C63.8354 50.6813 63.7259 50.6437 63.5765 50.6437C63.4272 50.6437 63.3178 50.6813 63.2484 50.7566C63.1783 50.8326 63.1432 50.9408 63.1432 51.0825V52.4088C63.1432 52.5506 63.1782 52.6595 63.2491 52.7347C63.3199 52.8101 63.4286 52.8484 63.5766 52.8484H63.5765ZM65.8153 53.2373C65.5362 53.2373 65.3245 53.164 65.18 53.0189C65.0349 52.8731 64.9627 52.6697 64.9627 52.4087V51.0824C64.9627 50.8208 65.0356 50.6168 65.1808 50.4716C65.3259 50.3265 65.5377 50.2539 65.8153 50.2539C66.0952 50.2539 66.3069 50.3265 66.4514 50.471C66.5959 50.6155 66.6681 50.8196 66.6681 51.0825V52.4088C66.6681 52.6711 66.5959 52.8745 66.4507 53.0196C66.3056 53.1648 66.0938 53.2373 65.8155 53.2373H65.8153ZM65.8153 52.8484C65.9634 52.8484 66.0727 52.8101 66.1435 52.7347C66.2135 52.6594 66.2486 52.5506 66.2486 52.4088V51.0825C66.2486 50.9408 66.2143 50.8326 66.1441 50.7566C66.074 50.6813 65.9646 50.6437 65.8152 50.6437C65.6659 50.6437 65.5565 50.6813 65.487 50.7566C65.417 50.8326 65.3819 50.9408 65.3819 51.0825V52.4088C65.3819 52.5506 65.4169 52.6595 65.4878 52.7347C65.5586 52.8101 65.6673 52.8484 65.8152 52.8484H65.8153Z" fill="white"/>
<path d="M69.5538 53.2373C69.2747 53.2373 69.063 53.164 68.9185 53.0189C68.7734 52.8731 68.7012 52.6697 68.7012 52.4087V51.0824C68.7012 50.8208 68.7741 50.6168 68.9193 50.4716C69.0644 50.3265 69.2762 50.2539 69.5538 50.2539C69.8337 50.2539 70.0453 50.3265 70.1899 50.471C70.3343 50.6155 70.4066 50.8196 70.4066 51.0825V52.4088C70.4066 52.6711 70.3343 52.8745 70.1892 53.0196C70.0441 53.1648 69.8323 53.2373 69.5539 53.2373H69.5538ZM69.5538 52.8484C69.7019 52.8484 69.8111 52.8101 69.882 52.7347C69.952 52.6594 69.987 52.5506 69.987 52.4088V51.0825C69.987 50.9408 69.9528 50.8326 69.8826 50.7566C69.8125 50.6813 69.7031 50.6437 69.5537 50.6437C69.4044 50.6437 69.295 50.6813 69.2255 50.7566C69.1555 50.8326 69.1205 50.9408 69.1205 51.0825V52.4088C69.1205 52.5506 69.1555 52.6595 69.2264 52.7347C69.2972 52.8101 69.4058 52.8484 69.5538 52.8484ZM71.7928 53.2373C71.5137 53.2373 71.3019 53.164 71.1575 53.0189C71.0123 52.8731 70.9401 52.6697 70.9401 52.4087V51.0824C70.9401 50.8208 71.0131 50.6168 71.1582 50.4716C71.3034 50.3265 71.5152 50.2539 71.7929 50.2539C72.0726 50.2539 72.2844 50.3265 72.4288 50.471C72.5733 50.6155 72.6455 50.8196 72.6455 51.0825V52.4088C72.6455 52.6711 72.5733 52.8745 72.4282 53.0196C72.283 53.1648 72.0712 53.2373 71.7929 53.2373H71.7928ZM71.7928 52.8484C71.9407 52.8484 72.0501 52.8101 72.1209 52.7347C72.191 52.6594 72.2261 52.5506 72.2261 52.4088V51.0825C72.2261 50.9408 72.1917 50.8326 72.1215 50.7566C72.0515 50.6813 71.9421 50.6437 71.7928 50.6437C71.6435 50.6437 71.534 50.6813 71.4646 50.7566C71.3945 50.8326 71.3595 50.9408 71.3595 51.0825V52.4088C71.3595 52.5506 71.3944 52.6595 71.4654 52.7347C71.5362 52.8101 71.6448 52.8484 71.7929 52.8484H71.7928ZM74.0316 53.2373C73.7526 53.2373 73.5408 53.164 73.3963 53.0189C73.2511 52.8731 73.1789 52.6697 73.1789 52.4087V51.0824C73.1789 50.8208 73.2519 50.6168 73.397 50.4716C73.5422 50.3265 73.754 50.2539 74.0316 50.2539C74.3114 50.2539 74.5231 50.3265 74.6676 50.471C74.8121 50.6155 74.8843 50.8196 74.8843 51.0825V52.4088C74.8843 52.6711 74.8121 52.8745 74.667 53.0196C74.5219 53.1648 74.31 53.2373 74.0317 53.2373H74.0316ZM74.0316 52.8484C74.1796 52.8484 74.2889 52.8101 74.3597 52.7347C74.4298 52.6594 74.4649 52.5506 74.4649 52.4088V51.0825C74.4649 50.9408 74.4305 50.8326 74.3604 50.7566C74.2903 50.6813 74.1809 50.6437 74.0315 50.6437C73.8822 50.6437 73.7727 50.6813 73.7033 50.7566C73.6332 50.8326 73.5982 50.9408 73.5982 51.0825V52.4088C73.5982 52.5506 73.6331 52.6595 73.7041 52.7347C73.7749 52.8101 73.8835 52.8484 74.0315 52.8484H74.0316ZM76.2705 53.2373C75.9914 53.2373 75.7796 53.164 75.6352 53.0189C75.4901 52.8731 75.4178 52.6697 75.4178 52.4087V51.0824C75.4178 50.8208 75.4907 50.6168 75.6359 50.4716C75.781 50.3265 75.9928 50.2539 76.2704 50.2539C76.5501 50.2539 76.7619 50.3265 76.9063 50.471C77.0508 50.6155 77.123 50.8196 77.123 51.0825V52.4088C77.123 52.6711 77.0507 52.8745 76.9057 53.0196C76.7606 53.1648 76.5487 53.2373 76.2704 53.2373H76.2705ZM76.2705 52.8484C76.4184 52.8484 76.5279 52.8101 76.5987 52.7347C76.6687 52.6594 76.7038 52.5506 76.7038 52.4088V51.0825C76.7038 50.9408 76.6695 50.8326 76.5994 50.7566C76.5294 50.6813 76.4199 50.6437 76.2705 50.6437C76.1212 50.6437 76.0118 50.6813 75.9424 50.7566C75.8723 50.8326 75.8372 50.9408 75.8372 51.0825V52.4088C75.8372 52.5506 75.8722 52.6595 75.9431 52.7347C76.0139 52.8101 76.1226 52.8484 76.2707 52.8484H76.2705Z" fill="white"/>
<path d="M80.0089 53.2373C79.7299 53.2373 79.5181 53.164 79.3736 53.0189C79.2284 52.8731 79.1562 52.6697 79.1562 52.4087V51.0824C79.1562 50.8208 79.2292 50.6168 79.3743 50.4716C79.5195 50.3265 79.7313 50.2539 80.0089 50.2539C80.2887 50.2539 80.5004 50.3265 80.6449 50.471C80.7895 50.6155 80.8617 50.8196 80.8617 51.0825V52.4088C80.8617 52.6711 80.7895 52.8745 80.6443 53.0196C80.4992 53.1648 80.2874 53.2373 80.009 53.2373H80.0089ZM80.0089 52.8484C80.1569 52.8484 80.2662 52.8101 80.337 52.7347C80.4071 52.6594 80.4422 52.5506 80.4422 52.4088V51.0825C80.4422 50.9408 80.4079 50.8326 80.3377 50.7566C80.2676 50.6813 80.1582 50.6437 80.0088 50.6437C79.8595 50.6437 79.75 50.6813 79.6806 50.7566C79.6106 50.8326 79.5755 50.9408 79.5755 51.0825V52.4088C79.5755 52.5506 79.6104 52.6595 79.6814 52.7347C79.7522 52.8101 79.8609 52.8484 80.0088 52.8484H80.0089ZM82.2478 53.2373C81.9689 53.2373 81.7571 53.164 81.6125 53.0189C81.4674 52.8731 81.3951 52.6697 81.3951 52.4087V51.0824C81.3951 50.8208 81.468 50.6168 81.6132 50.4716C81.7583 50.3265 81.9701 50.2539 82.2477 50.2539C82.5276 50.2539 82.7392 50.3265 82.8838 50.471C83.0282 50.6155 83.1005 50.8196 83.1005 51.0825V52.4088C83.1005 52.6711 83.0282 52.8745 82.8831 53.0196C82.738 53.1648 82.5262 53.2373 82.2478 53.2373ZM82.2478 52.8484C82.3959 52.8484 82.5052 52.8101 82.576 52.7347C82.646 52.6594 82.6811 52.5506 82.6811 52.4088V51.0825C82.6811 50.9408 82.6468 50.8326 82.5766 50.7566C82.5066 50.6813 82.3971 50.6437 82.2477 50.6437C82.0984 50.6437 81.989 50.6813 81.9196 50.7566C81.8495 50.8326 81.8144 50.9408 81.8144 51.0825V52.4088C81.8144 52.5506 81.8494 52.6595 81.9203 52.7347C81.9911 52.8101 82.0997 52.8484 82.2477 52.8484H82.2478ZM84.4868 53.2373C84.2077 53.2373 83.9959 53.164 83.8515 53.0189C83.7063 52.8731 83.6341 52.6697 83.6341 52.4087V51.0824C83.6341 50.8208 83.7072 50.6168 83.8522 50.4716C83.9974 50.3265 84.2092 50.2539 84.4868 50.2539C84.7665 50.2539 84.9783 50.3265 85.1227 50.471C85.2672 50.6155 85.3394 50.8196 85.3394 51.0825V52.4088C85.3394 52.6711 85.2672 52.8745 85.1221 53.0196C84.9769 53.1648 84.7651 53.2373 84.4868 53.2373ZM84.4868 52.8484C84.6347 52.8484 84.7441 52.8101 84.8149 52.7347C84.885 52.6594 84.9201 52.5506 84.9201 52.4088V51.0825C84.9201 50.9408 84.8857 50.8326 84.8156 50.7566C84.7455 50.6813 84.6361 50.6437 84.4868 50.6437C84.3375 50.6437 84.2281 50.6813 84.1586 50.7566C84.0886 50.8326 84.0535 50.9408 84.0535 51.0825V52.4088C84.0535 52.5506 84.0884 52.6595 84.1594 52.7347C84.2302 52.8101 84.3389 52.8484 84.4869 52.8484H84.4868ZM86.7256 53.2373C86.4466 53.2373 86.2348 53.164 86.0903 53.0189C85.9452 52.8731 85.873 52.6697 85.873 52.4087V51.0824C85.873 50.8208 85.9459 50.6168 86.0911 50.4716C86.2362 50.3265 86.448 50.2539 86.7256 50.2539C87.0055 50.2539 87.2171 50.3265 87.3617 50.471C87.5062 50.6155 87.5784 50.8196 87.5784 51.0825V52.4088C87.5784 52.6711 87.506 52.8745 87.361 53.0196C87.2159 53.1648 87.0041 53.2373 86.7257 53.2373H86.7256ZM86.7256 52.8484C86.8736 52.8484 86.9829 52.8101 87.0538 52.7347C87.1238 52.6594 87.1589 52.5506 87.1589 52.4088V51.0825C87.1589 50.9408 87.1246 50.8326 87.0544 50.7566C86.9843 50.6813 86.8749 50.6437 86.7255 50.6437C86.5762 50.6437 86.4668 50.6813 86.3973 50.7566C86.3271 50.8326 86.2922 50.9408 86.2922 51.0825V52.4088C86.2922 52.5506 86.3271 52.6595 86.3981 52.7347C86.4689 52.8101 86.5776 52.8484 86.7255 52.8484H86.7256Z" fill="white"/>
<path fill-rule="evenodd" clip-rule="evenodd" d="M79.8252 40.3439C80.8255 40.3439 81.7093 40.8418 82.2429 41.6033C82.6343 41.2649 83.1446 41.0603 83.7025 41.0603C84.9361 41.0603 85.9362 42.0603 85.9362 43.294C85.9362 44.5277 84.9361 45.5276 83.7025 45.5276C83.1445 45.5276 82.6343 45.323 82.2429 44.9847C81.7093 45.746 80.8255 46.2441 79.8252 46.2441C78.1959 46.2441 76.875 44.9233 76.875 43.2938C76.875 41.6645 78.1958 40.3438 79.8252 40.3438V40.3439Z" fill="white"/>
<path d="M48.5391 32.321H50.7528V32.8179H49.1369V33.5046H49.9368C50.1576 33.5046 50.3408 33.5316 50.4862 33.5854C50.6316 33.6393 50.7555 33.7389 50.8579 33.8844C50.9616 34.0298 51.0134 34.2001 51.0134 34.3954C51.0134 34.596 50.9616 34.7677 50.8579 34.9104C50.7542 35.0532 50.6357 35.1508 50.5024 35.2033C50.3704 35.2558 50.1819 35.2821 49.9368 35.2821H48.5391V32.321ZM49.1369 34.7852H49.7187C49.9045 34.7852 50.0351 34.7765 50.1105 34.759C50.1859 34.7401 50.2512 34.6984 50.3064 34.6337C50.363 34.5691 50.3913 34.4896 50.3913 34.3954C50.3913 34.258 50.3421 34.1584 50.2438 34.0964C50.1469 34.0332 49.9806 34.0015 49.7449 34.0015H49.1369V34.7852Z" fill="white"/>
<path d="M54.0129 35.2821H53.3625L53.104 34.6095H51.9203L51.6759 35.2821H51.0417L52.195 32.321H52.8272L54.0129 35.2821ZM52.9121 34.1106L52.5041 33.0118L52.1041 34.1106H52.9121Z" fill="white"/>
<path d="M54.334 35.2821V32.321H54.9319V33.4864H56.1034V32.321H56.7013V35.2821H56.1034V33.9874H54.9319V35.2821H54.334Z" fill="white"/>
<path d="M57.3315 32.321H57.9294V33.5814C58.0627 33.5679 58.1529 33.5336 58.2001 33.4784C58.2472 33.4232 58.3199 33.2696 58.4182 33.0178C58.5421 32.6973 58.6667 32.4981 58.7919 32.42C58.9158 32.3419 59.1157 32.3028 59.3918 32.3028C59.4053 32.3028 59.4342 32.3021 59.4786 32.3008V32.7431L59.3938 32.7411C59.2713 32.7411 59.1817 32.7566 59.1252 32.7876C59.0686 32.8172 59.0228 32.863 58.9878 32.9249C58.9528 32.9869 58.901 33.1141 58.8323 33.3067C58.7959 33.409 58.7562 33.4945 58.7131 33.5632C58.6714 33.6319 58.5966 33.6965 58.4889 33.7571C58.6222 33.7948 58.732 33.8709 58.8181 33.9853C58.9057 34.0998 59.0013 34.2614 59.105 34.4701L59.5089 35.2821H58.806L58.4525 34.5166C58.4472 34.5058 58.4357 34.4849 58.4182 34.454C58.4115 34.4432 58.3866 34.3967 58.3435 34.3146C58.2667 34.1692 58.2034 34.0783 58.1536 34.0419C58.1051 34.0055 58.0304 33.9867 57.9294 33.9853V35.2821H57.3315V32.321Z" fill="white"/>
<path fill-rule="evenodd" clip-rule="evenodd" d="M109.464 28.6268C108.79 29.7941 108.116 30.9615 107.442 32.1288C104.217 30.1705 98.6077 29.565 93.789 33.2714C99.855 32.7386 101.873 34.0999 105.133 36.1284L103.003 39.8179L112.768 37.9949L109.464 28.6268Z" fill="#009A44"/>
<path d="M144.182 47.8281H104.21C102.89 47.8281 101.82 48.9412 101.82 50.3144V75.1762C101.82 76.5493 102.89 77.6624 104.21 77.6624H144.182C145.502 77.6624 146.572 76.5493 146.572 75.1762V50.3144C146.572 48.9412 145.502 47.8281 144.182 47.8281Z" fill="#007FC6"/>
<path fill-rule="evenodd" clip-rule="evenodd" d="M108.889 62.5187H106.811V60.7773H108.889V62.5187Z" fill="white"/>
<path fill-rule="evenodd" clip-rule="evenodd" d="M109.012 58.8906H113.161C113.725 58.8906 114.186 59.3517 114.186 59.915V60.6525H111.984V66.2659H109.012V58.8906Z" fill="white"/>
<path fill-rule="evenodd" clip-rule="evenodd" d="M108.889 66.2658H107.835C107.272 66.2658 106.811 65.8048 106.811 65.2415V64.5039H108.889V66.2658Z" fill="white"/>
<path fill-rule="evenodd" clip-rule="evenodd" d="M107.835 58.8906H108.889V60.6525H106.811V59.915C106.811 59.3516 107.272 58.8906 107.835 58.8906Z" fill="white"/>
<path fill-rule="evenodd" clip-rule="evenodd" d="M108.889 64.382H106.811V62.6406H108.889V64.382Z" fill="white"/>
<path fill-rule="evenodd" clip-rule="evenodd" d="M114.188 62.5187H112.109V60.7773H114.188V62.5187Z" fill="white"/>
<path fill-rule="evenodd" clip-rule="evenodd" d="M114.188 64.382H112.109V62.6406H114.188V64.382Z" fill="white"/>
<path fill-rule="evenodd" clip-rule="evenodd" d="M112.109 66.2658H113.164C113.727 66.2658 114.188 65.8048 114.188 65.2415V64.5039H112.11V66.2658H112.109Z" fill="white"/>
<path d="M105.161 72.1709C104.882 72.1709 104.67 72.0976 104.526 71.9524C104.381 71.8067 104.309 71.6033 104.309 71.3423V70.016C104.309 69.7544 104.382 69.5504 104.527 69.4052C104.672 69.2601 104.884 69.1875 105.161 69.1875C105.441 69.1875 105.653 69.2601 105.797 69.4046C105.942 69.5491 106.014 69.7532 106.014 70.0161V71.3424C106.014 71.6047 105.942 71.8081 105.797 71.9532C105.652 72.0983 105.44 72.1709 105.161 72.1709H105.161ZM105.161 71.782C105.309 71.782 105.419 71.7437 105.489 71.6683C105.559 71.593 105.595 71.4842 105.595 71.3424V70.0161C105.595 69.8744 105.56 69.7662 105.49 69.6902C105.42 69.6149 105.311 69.5773 105.161 69.5773C105.012 69.5773 104.903 69.6149 104.833 69.6902C104.763 69.7662 104.728 69.8744 104.728 70.0161V71.3424C104.728 71.4842 104.763 71.5931 104.834 71.6683C104.905 71.7437 105.013 71.782 105.161 71.782ZM107.4 72.1709C107.121 72.1709 106.909 72.0976 106.765 71.9524C106.62 71.8067 106.548 71.6033 106.548 71.3423V70.016C106.548 69.7544 106.62 69.5504 106.766 69.4052C106.911 69.2601 107.123 69.1875 107.4 69.1875C107.68 69.1875 107.892 69.2601 108.036 69.4046C108.181 69.5491 108.253 69.7532 108.253 70.0161V71.3424C108.253 71.6047 108.181 71.8081 108.035 71.9532C107.89 72.0983 107.679 72.1709 107.4 72.1709ZM107.4 71.782C107.548 71.782 107.658 71.7437 107.728 71.6683C107.798 71.593 107.833 71.4842 107.833 71.3424V70.0161C107.833 69.8744 107.799 69.7662 107.729 69.6902C107.659 69.6149 107.55 69.5773 107.4 69.5773C107.251 69.5773 107.142 69.6149 107.072 69.6902C107.002 69.7662 106.967 69.8744 106.967 70.0161V71.3424C106.967 71.4842 107.002 71.5931 107.073 71.6683C107.144 71.7437 107.252 71.782 107.4 71.782H107.4ZM109.639 72.1709C109.36 72.1709 109.148 72.0976 109.004 71.9524C108.859 71.8067 108.786 71.6033 108.786 71.3423V70.016C108.786 69.7544 108.859 69.5504 109.004 69.4052C109.15 69.2601 109.361 69.1875 109.639 69.1875C109.919 69.1875 110.131 69.2601 110.275 69.4046C110.42 69.5491 110.492 69.7532 110.492 70.0161V71.3424C110.492 71.6047 110.42 71.8081 110.274 71.9532C110.129 72.0983 109.917 72.1709 109.639 72.1709H109.639ZM109.639 71.782C109.787 71.782 109.896 71.7437 109.967 71.6683C110.037 71.593 110.072 71.4842 110.072 71.3424V70.0161C110.072 69.8744 110.038 69.7662 109.968 69.6902C109.898 69.6149 109.788 69.5773 109.639 69.5773C109.49 69.5773 109.38 69.6149 109.311 69.6902C109.241 69.7662 109.206 69.8744 109.206 70.0161V71.3424C109.206 71.4842 109.241 71.5931 109.312 71.6683C109.382 71.7437 109.491 71.782 109.639 71.782ZM111.878 72.1709C111.599 72.1709 111.387 72.0976 111.243 71.9524C111.098 71.8067 111.025 71.6033 111.025 71.3423V70.016C111.025 69.7544 111.098 69.5504 111.243 69.4052C111.389 69.2601 111.6 69.1875 111.878 69.1875C112.158 69.1875 112.369 69.2601 112.514 69.4046C112.658 69.5491 112.731 69.7532 112.731 70.0161V71.3424C112.731 71.6047 112.658 71.8081 112.513 71.9532C112.368 72.0983 112.156 72.1709 111.878 72.1709ZM111.878 71.782C112.026 71.782 112.135 71.7437 112.206 71.6683C112.276 71.593 112.311 71.4842 112.311 71.3424V70.0161C112.311 69.8744 112.277 69.7662 112.207 69.6902C112.137 69.6149 112.027 69.5773 111.878 69.5773C111.729 69.5773 111.619 69.6149 111.55 69.6902C111.48 69.7662 111.445 69.8744 111.445 70.0161V71.3424C111.445 71.4842 111.48 71.5931 111.551 71.6683C111.621 71.7437 111.73 71.782 111.878 71.782Z" fill="white"/>
<path d="M115.61 72.1709C115.331 72.1709 115.12 72.0976 114.975 71.9524C114.83 71.8067 114.758 71.6033 114.758 71.3423V70.016C114.758 69.7544 114.831 69.5504 114.976 69.4052C115.121 69.2601 115.333 69.1875 115.611 69.1875C115.89 69.1875 116.102 69.2601 116.247 69.4046C116.391 69.5491 116.463 69.7532 116.463 70.0161V71.3424C116.463 71.6047 116.391 71.8081 116.246 71.9532C116.101 72.0983 115.889 72.1709 115.611 72.1709H115.61ZM115.61 71.782C115.758 71.782 115.868 71.7437 115.939 71.6683C116.009 71.593 116.044 71.4842 116.044 71.3424V70.0161C116.044 69.8744 116.009 69.7662 115.939 69.6902C115.869 69.6149 115.76 69.5773 115.611 69.5773C115.461 69.5773 115.352 69.6149 115.282 69.6902C115.212 69.7662 115.177 69.8744 115.177 70.0161V71.3424C115.177 71.4842 115.212 71.5931 115.283 71.6683C115.354 71.7437 115.463 71.782 115.611 71.782H115.61ZM117.849 72.1709C117.57 72.1709 117.358 72.0976 117.214 71.9524C117.069 71.8067 116.997 71.6033 116.997 71.3423V70.016C116.997 69.7544 117.07 69.5504 117.215 69.4052C117.36 69.2601 117.572 69.1875 117.849 69.1875C118.129 69.1875 118.341 69.2601 118.485 69.4046C118.63 69.5491 118.702 69.7532 118.702 70.0161V71.3424C118.702 71.6047 118.63 71.8081 118.485 71.9532C118.34 72.0983 118.128 72.1709 117.849 72.1709H117.849ZM117.849 71.782C117.997 71.782 118.107 71.7437 118.177 71.6683C118.247 71.593 118.283 71.4842 118.283 71.3424V70.0161C118.283 69.8744 118.248 69.7662 118.178 69.6902C118.108 69.6149 117.999 69.5773 117.849 69.5773C117.7 69.5773 117.591 69.6149 117.521 69.6902C117.451 69.7662 117.416 69.8744 117.416 70.0161V71.3424C117.416 71.4842 117.451 71.5931 117.522 71.6683C117.593 71.7437 117.701 71.782 117.849 71.782ZM120.088 72.1709C119.809 72.1709 119.597 72.0976 119.453 71.9524C119.308 71.8067 119.236 71.6033 119.236 71.3423V70.016C119.236 69.7544 119.309 69.5504 119.454 69.4052C119.599 69.2601 119.811 69.1875 120.088 69.1875C120.368 69.1875 120.58 69.2601 120.724 69.4046C120.869 69.5491 120.941 69.7532 120.941 70.0161V71.3424C120.941 71.6047 120.869 71.8081 120.724 71.9532C120.578 72.0983 120.367 72.1709 120.088 72.1709ZM120.088 71.782C120.236 71.782 120.346 71.7437 120.416 71.6683C120.486 71.593 120.522 71.4842 120.522 71.3424V70.0161C120.522 69.8744 120.487 69.7662 120.417 69.6902C120.347 69.6149 120.238 69.5773 120.088 69.5773C119.939 69.5773 119.829 69.6149 119.76 69.6902C119.69 69.7662 119.655 69.8744 119.655 70.0161V71.3424C119.655 71.4842 119.69 71.5931 119.761 71.6683C119.832 71.7437 119.94 71.782 120.088 71.782H120.088ZM122.327 72.1709C122.048 72.1709 121.836 72.0976 121.692 71.9524C121.547 71.8067 121.474 71.6033 121.474 71.3423V70.016C121.474 69.7544 121.547 69.5504 121.692 69.4052C121.838 69.2601 122.049 69.1875 122.327 69.1875C122.607 69.1875 122.819 69.2601 122.963 69.4046C123.108 69.5491 123.18 69.7532 123.18 70.0161V71.3424C123.18 71.6047 123.108 71.8081 122.962 71.9532C122.817 72.0983 122.606 72.1709 122.327 72.1709H122.327ZM122.327 71.782C122.475 71.782 122.584 71.7437 122.655 71.6683C122.725 71.593 122.76 71.4842 122.76 71.3424V70.0161C122.76 69.8744 122.726 69.7662 122.656 69.6902C122.586 69.6149 122.476 69.5773 122.327 69.5773C122.178 69.5773 122.068 69.6149 121.999 69.6902C121.929 69.7662 121.894 69.8744 121.894 70.0161V71.3424C121.894 71.4842 121.929 71.5931 122 71.6683C122.07 71.7437 122.179 71.782 122.327 71.782H122.327Z" fill="white"/>
<path d="M126.066 72.1709C125.786 72.1709 125.575 72.0976 125.43 71.9524C125.285 71.8067 125.213 71.6033 125.213 71.3423V70.016C125.213 69.7544 125.286 69.5504 125.431 69.4052C125.576 69.2601 125.788 69.1875 126.066 69.1875C126.345 69.1875 126.557 69.2601 126.702 69.4046C126.846 69.5491 126.918 69.7532 126.918 70.0161V71.3424C126.918 71.6047 126.846 71.8081 126.701 71.9532C126.556 72.0983 126.344 72.1709 126.066 72.1709H126.066ZM126.066 71.782C126.214 71.782 126.323 71.7437 126.394 71.6683C126.464 71.593 126.499 71.4842 126.499 71.3424V70.0161C126.499 69.8744 126.464 69.7662 126.394 69.6902C126.324 69.6149 126.215 69.5773 126.065 69.5773C125.916 69.5773 125.807 69.6149 125.737 69.6902C125.667 69.7662 125.632 69.8744 125.632 70.0161V71.3424C125.632 71.4842 125.667 71.5931 125.738 71.6683C125.809 71.7437 125.917 71.782 126.066 71.782ZM128.304 72.1709C128.025 72.1709 127.814 72.0976 127.669 71.9524C127.524 71.8067 127.452 71.6033 127.452 71.3423V70.016C127.452 69.7544 127.525 69.5504 127.67 69.4052C127.815 69.2601 128.027 69.1875 128.305 69.1875C128.584 69.1875 128.796 69.2601 128.941 69.4046C129.085 69.5491 129.157 69.7532 129.157 70.0161V71.3424C129.157 71.6047 129.085 71.8081 128.94 71.9532C128.795 72.0983 128.583 72.1709 128.305 72.1709H128.304ZM128.304 71.782C128.452 71.782 128.562 71.7437 128.633 71.6683C128.703 71.593 128.738 71.4842 128.738 71.3424V70.0161C128.738 69.8744 128.703 69.7662 128.633 69.6902C128.563 69.6149 128.454 69.5773 128.304 69.5773C128.155 69.5773 128.046 69.6149 127.976 69.6902C127.906 69.7662 127.871 69.8744 127.871 70.0161V71.3424C127.871 71.4842 127.906 71.5931 127.977 71.6683C128.048 71.7437 128.157 71.782 128.305 71.782H128.304ZM130.543 72.1709C130.264 72.1709 130.053 72.0976 129.908 71.9524C129.763 71.8067 129.691 71.6033 129.691 71.3423V70.016C129.691 69.7544 129.764 69.5504 129.909 69.4052C130.054 69.2601 130.266 69.1875 130.543 69.1875C130.823 69.1875 131.035 69.2601 131.179 69.4046C131.324 69.5491 131.396 69.7532 131.396 70.0161V71.3424C131.396 71.6047 131.324 71.8081 131.179 71.9532C131.034 72.0983 130.822 72.1709 130.543 72.1709H130.543ZM130.543 71.782C130.691 71.782 130.801 71.7437 130.871 71.6683C130.942 71.593 130.977 71.4842 130.977 71.3424V70.0161C130.977 69.8744 130.942 69.7662 130.872 69.6902C130.802 69.6149 130.693 69.5773 130.543 69.5773C130.394 69.5773 130.284 69.6149 130.215 69.6902C130.145 69.7662 130.11 69.8744 130.11 70.0161V71.3424C130.11 71.4842 130.145 71.5931 130.216 71.6683C130.287 71.7437 130.395 71.782 130.543 71.782H130.543ZM132.782 72.1709C132.503 72.1709 132.291 72.0976 132.147 71.9524C132.002 71.8067 131.929 71.6033 131.929 71.3423V70.016C131.929 69.7544 132.002 69.5504 132.148 69.4052C132.293 69.2601 132.505 69.1875 132.782 69.1875C133.062 69.1875 133.274 69.2601 133.418 69.4046C133.563 69.5491 133.635 69.7532 133.635 70.0161V71.3424C133.635 71.6047 133.562 71.8081 133.417 71.9532C133.272 72.0983 133.06 72.1709 132.782 72.1709H132.782ZM132.782 71.782C132.93 71.782 133.04 71.7437 133.11 71.6683C133.18 71.593 133.216 71.4842 133.216 71.3424V70.0161C133.216 69.8744 133.181 69.7662 133.111 69.6902C133.041 69.6149 132.932 69.5773 132.782 69.5773C132.633 69.5773 132.524 69.6149 132.454 69.6902C132.384 69.7662 132.349 69.8744 132.349 70.0161V71.3424C132.349 71.4842 132.384 71.5931 132.455 71.6683C132.526 71.7437 132.634 71.782 132.782 71.782H132.782Z" fill="white"/>
<path d="M136.521 72.1709C136.242 72.1709 136.03 72.0976 135.885 71.9524C135.74 71.8067 135.668 71.6033 135.668 71.3423V70.016C135.668 69.7544 135.741 69.5504 135.886 69.4052C136.031 69.2601 136.243 69.1875 136.521 69.1875C136.8 69.1875 137.012 69.2601 137.157 69.4046C137.301 69.5491 137.373 69.7532 137.373 70.0161V71.3424C137.373 71.6047 137.301 71.8081 137.156 71.9532C137.011 72.0983 136.799 72.1709 136.521 72.1709H136.521ZM136.521 71.782C136.669 71.782 136.778 71.7437 136.849 71.6683C136.919 71.593 136.954 71.4842 136.954 71.3424V70.0161C136.954 69.8744 136.92 69.7662 136.849 69.6902C136.779 69.6149 136.67 69.5773 136.52 69.5773C136.371 69.5773 136.262 69.6149 136.192 69.6902C136.122 69.7662 136.087 69.8744 136.087 70.0161V71.3424C136.087 71.4842 136.122 71.5931 136.193 71.6683C136.264 71.7437 136.373 71.782 136.52 71.782H136.521ZM138.76 72.1709C138.481 72.1709 138.269 72.0976 138.124 71.9524C137.979 71.8067 137.907 71.6033 137.907 71.3423V70.016C137.907 69.7544 137.98 69.5504 138.125 69.4052C138.27 69.2601 138.482 69.1875 138.759 69.1875C139.039 69.1875 139.251 69.2601 139.395 69.4046C139.54 69.5491 139.612 69.7532 139.612 70.0161V71.3424C139.612 71.6047 139.54 71.8081 139.395 71.9532C139.25 72.0983 139.038 72.1709 138.76 72.1709ZM138.76 71.782C138.908 71.782 139.017 71.7437 139.088 71.6683C139.158 71.593 139.193 71.4842 139.193 71.3424V70.0161C139.193 69.8744 139.159 69.7662 139.088 69.6902C139.018 69.6149 138.909 69.5773 138.759 69.5773C138.61 69.5773 138.501 69.6149 138.431 69.6902C138.361 69.7662 138.326 69.8744 138.326 70.0161V71.3424C138.326 71.4842 138.361 71.5931 138.432 71.6683C138.503 71.7437 138.611 71.782 138.759 71.782H138.76ZM140.999 72.1709C140.719 72.1709 140.508 72.0976 140.363 71.9524C140.218 71.8067 140.146 71.6033 140.146 71.3423V70.016C140.146 69.7544 140.219 69.5504 140.364 69.4052C140.509 69.2601 140.721 69.1875 140.999 69.1875C141.278 69.1875 141.49 69.2601 141.634 69.4046C141.779 69.5491 141.851 69.7532 141.851 70.0161V71.3424C141.851 71.6047 141.779 71.8081 141.634 71.9532C141.489 72.0983 141.277 72.1709 140.999 72.1709ZM140.999 71.782C141.146 71.782 141.256 71.7437 141.327 71.6683C141.397 71.593 141.432 71.4842 141.432 71.3424V70.0161C141.432 69.8744 141.397 69.7662 141.327 69.6902C141.257 69.6149 141.148 69.5773 140.999 69.5773C140.849 69.5773 140.74 69.6149 140.67 69.6902C140.6 69.7662 140.565 69.8744 140.565 70.0161V71.3424C140.565 71.4842 140.6 71.5931 140.671 71.6683C140.742 71.7437 140.851 71.782 140.999 71.782H140.999ZM143.237 72.1709C142.958 72.1709 142.747 72.0976 142.602 71.9524C142.457 71.8067 142.385 71.6033 142.385 71.3423V70.016C142.385 69.7544 142.458 69.5504 142.603 69.4052C142.748 69.2601 142.96 69.1875 143.237 69.1875C143.517 69.1875 143.729 69.2601 143.873 69.4046C144.018 69.5491 144.09 69.7532 144.09 70.0161V71.3424C144.09 71.6047 144.018 71.8081 143.873 71.9532C143.728 72.0983 143.516 72.1709 143.237 72.1709H143.237ZM143.237 71.782C143.385 71.782 143.495 71.7437 143.565 71.6683C143.636 71.593 143.671 71.4842 143.671 71.3424V70.0161C143.671 69.8744 143.636 69.7662 143.566 69.6902C143.496 69.6149 143.387 69.5773 143.237 69.5773C143.088 69.5773 142.978 69.6149 142.909 69.6902C142.839 69.7662 142.804 69.8744 142.804 70.0161V71.3424C142.804 71.4842 142.839 71.5931 142.91 71.6683C142.981 71.7437 143.089 71.782 143.237 71.782H143.237Z" fill="white"/>
<path fill-rule="evenodd" clip-rule="evenodd" d="M136.337 59.2814C137.337 59.2814 138.221 59.7793 138.755 60.5408C139.146 60.2024 139.656 59.9978 140.214 59.9978C141.448 59.9978 142.448 60.9978 142.448 62.2315C142.448 63.4652 141.448 64.4651 140.214 64.4651C139.656 64.4651 139.146 64.2605 138.755 63.9222C138.221 64.6835 137.337 65.1816 136.337 65.1816C134.708 65.1816 133.387 63.8608 133.387 62.2313C133.387 60.602 134.707 59.2812 136.337 59.2812V59.2814Z" fill="white"/>
<path d="M105.051 51.2546H107.265V51.7515H105.649V52.4382H106.449C106.669 52.4382 106.852 52.4651 106.998 52.519C107.143 52.5729 107.267 52.6725 107.37 52.8179C107.473 52.9634 107.525 53.1337 107.525 53.329C107.525 53.5296 107.473 53.7013 107.37 53.844C107.266 53.9868 107.147 54.0844 107.014 54.1369C106.882 54.1894 106.694 54.2157 106.449 54.2157H105.051V51.2546ZM105.649 53.7188H106.23C106.416 53.7188 106.547 53.7101 106.622 53.6925C106.698 53.6737 106.763 53.632 106.818 53.5673C106.875 53.5027 106.903 53.4232 106.903 53.329C106.903 53.1916 106.854 53.092 106.756 53.03C106.659 52.9667 106.492 52.9351 106.257 52.9351H105.649V53.7188Z" fill="white"/>
<path d="M110.525 54.2157H109.874L109.616 53.5431H108.432L108.188 54.2157H107.553L108.707 51.2546H109.339L110.525 54.2157ZM109.424 53.0442L109.016 51.9454L108.616 53.0442H109.424Z" fill="white"/>
<path d="M110.846 54.2157V51.2546H111.444V52.42H112.615V51.2546H113.213V54.2157H112.615V52.921H111.444V54.2157H110.846Z" fill="white"/>
<path d="M113.843 51.2546H114.441V52.515C114.574 52.5015 114.665 52.4672 114.712 52.412C114.759 52.3567 114.832 52.2032 114.93 51.9514C115.054 51.6309 115.178 51.4316 115.304 51.3535C115.427 51.2754 115.627 51.2364 115.904 51.2364C115.917 51.2364 115.946 51.2357 115.99 51.2344V51.6767L115.906 51.6747C115.783 51.6747 115.693 51.6902 115.637 51.7212C115.58 51.7508 115.535 51.7966 115.5 51.8585C115.465 51.9205 115.413 52.0477 115.344 52.2403C115.308 52.3426 115.268 52.4281 115.225 52.4968C115.183 52.5655 115.108 52.6301 115.001 52.6907C115.134 52.7284 115.244 52.8045 115.33 52.9189C115.417 53.0334 115.513 53.195 115.617 53.4037L116.021 54.2157H115.318L114.964 53.4502C114.959 53.4394 114.947 53.4185 114.93 53.3875C114.923 53.3768 114.898 53.3303 114.855 53.2482C114.778 53.1027 114.715 53.0119 114.665 52.9755C114.617 52.9391 114.542 52.9203 114.441 52.9189V54.2157H113.843V51.2546Z" fill="white"/>
<path fill-rule="evenodd" clip-rule="evenodd" d="M81.8119 77.3507C82.4858 76.1833 83.1598 75.016 83.8338 73.8486C87.0594 75.8069 92.6685 76.4124 97.4873 72.706C91.4212 73.2388 89.4032 71.8775 86.1429 69.8491L88.2731 66.1596L78.508 67.9825L81.8118 77.3508L81.8119 77.3507Z" fill="#007FC6"/>
<path d="M165.044 45.6906H158.879V60.6746H161.662V56.3506H165.044C168.982 56.3506 171.423 54.3171 171.423 51.0206C171.423 47.7028 168.982 45.6906 165.044 45.6906ZM164.915 53.996H161.662V48.0452H164.915C167.356 48.0452 168.618 49.1369 168.618 51.0206C168.618 52.9043 167.356 53.996 164.915 53.996Z" fill="white"/>
<path d="M177.025 58.32L181.027 54.5098C183.104 52.5618 183.51 51.2347 183.51 49.7791C183.51 47.1248 181.413 45.4766 178.159 45.4766C175.697 45.4766 173.621 46.397 172.465 47.9596L174.413 49.458C175.248 48.3877 176.468 47.8954 177.924 47.8954C179.764 47.8954 180.706 48.6874 180.706 50.0574C180.706 50.8922 180.449 51.7698 178.994 53.1612L173.043 58.8123V60.6746H184.088V58.32H177.025Z" fill="white"/>
<path d="M192.93 45.6906H186.765V60.6746H189.548V56.3506H192.93C196.868 56.3506 199.309 54.3171 199.309 51.0206C199.309 47.7028 196.868 45.6906 192.93 45.6906ZM192.801 53.996H189.548V48.0452H192.801C195.241 48.0452 196.504 49.1369 196.504 51.0206C196.504 52.9043 195.241 53.996 192.801 53.996Z" fill="white"/>
</svg>
