<svg width="78" height="47" viewBox="0 0 78 47" fill="none" xmlns="http://www.w3.org/2000/svg">
<path d="M46.3581 17.5222C44.7142 17.5222 43.4089 17.0286 42.4422 16.0414C41.4755 15.0493 40.9922 13.6565 40.9922 11.8629C40.9922 10.1329 41.4755 8.75472 42.4422 7.72842C43.4138 6.69723 44.7216 6.18164 46.3654 6.18164C46.8022 6.18164 47.1947 6.20608 47.5431 6.25495C47.8915 6.30382 48.2252 6.37224 48.5442 6.46021C48.7945 6.53351 49.0668 6.6337 49.3612 6.76077C49.6556 6.88783 49.8936 6.99779 50.0752 7.09065V9.69305H49.7955C49.663 9.57576 49.4962 9.43647 49.295 9.2752C49.0938 9.10904 48.8656 8.94776 48.6104 8.79137C48.3553 8.63498 48.0731 8.50303 47.764 8.39551C47.4597 8.28311 47.1408 8.22691 46.8071 8.22691C46.4096 8.22691 46.044 8.29044 45.7103 8.41751C45.3816 8.53968 45.0675 8.75472 44.7682 9.06261C44.4934 9.34117 44.2677 9.71748 44.091 10.1915C43.9193 10.6656 43.8334 11.2252 43.8334 11.8703C43.8334 12.5496 43.9242 13.1214 44.1057 13.5857C44.2873 14.045 44.5253 14.4165 44.8197 14.6999C45.1043 14.9736 45.4208 15.1715 45.7692 15.2937C46.1225 15.4159 46.4734 15.477 46.8218 15.477C47.1849 15.477 47.5309 15.4183 47.8597 15.301C48.1884 15.1789 48.4657 15.0445 48.6914 14.8978C48.9368 14.7463 49.1527 14.5924 49.3391 14.436C49.5256 14.2796 49.6875 14.1403 49.8249 14.0182H50.0752V16.5839C49.874 16.6768 49.6409 16.7843 49.3759 16.9065C49.111 17.0238 48.8386 17.1239 48.5589 17.207C48.2154 17.3096 47.894 17.3878 47.5947 17.4416C47.2953 17.4954 46.8831 17.5222 46.3581 17.5222Z" fill="white"/>
<path d="M60.4978 13.8202C60.4978 14.3529 60.3948 14.8441 60.1887 15.2937C59.9875 15.7384 59.7103 16.1025 59.3569 16.386C58.9349 16.7232 58.4786 16.9627 57.9879 17.1044C57.5021 17.2412 56.9083 17.3096 56.2066 17.3096H51.7019V6.39423H59.6661V8.47615H54.44V10.4921H56.2508C56.9083 10.4921 57.4972 10.541 58.0173 10.6387C58.5375 10.7316 59.0036 10.9393 59.4158 11.2618C59.7937 11.555 60.0685 11.924 60.2402 12.3688C60.412 12.8086 60.4978 13.2924 60.4978 13.8202ZM57.6566 13.9009C57.6566 13.72 57.637 13.549 57.5978 13.3877C57.5585 13.2264 57.4726 13.0774 57.3401 12.9405C57.2076 12.8086 57.0261 12.7035 56.7955 12.6253C56.5648 12.5471 56.2459 12.508 55.8386 12.508H54.44V15.2864H55.8386C56.4029 15.2864 56.847 15.1666 57.1708 14.9272C57.4947 14.6877 57.6566 14.3456 57.6566 13.9009Z" fill="white"/>
<path d="M71.3032 17.3096H68.5504V8.47615H64.8038V17.3096H62.0509V6.39423H71.3032V17.3096Z" fill="white"/>
<path d="M44.6543 26.2715H43.5532V22.7381H42.0546V26.2715H40.9534V21.9054H44.6543V26.2715Z" fill="white"/>
<path d="M45.5641 26.2715V21.9054H48.529V22.7381H46.6594V23.5034H48.3818V24.3362H46.6594V25.4388H48.529V26.2715H45.5641Z" fill="white"/>
<path d="M52.648 23.2835C52.648 23.4868 52.6156 23.6804 52.5508 23.8641C52.486 24.0479 52.3928 24.2013 52.2711 24.3245C52.1965 24.4007 52.1141 24.4711 52.0238 24.5356C51.9355 24.6001 51.8373 24.6549 51.7294 24.6998C51.6214 24.7448 51.5036 24.78 51.3761 24.8054C51.2504 24.8308 51.1091 24.8435 50.9521 24.8435H50.375V26.2715H49.2739V21.9054H50.9756C51.2288 21.9054 51.4467 21.9288 51.6293 21.9757C51.8138 22.0207 51.9806 22.093 52.1298 22.1927C52.2947 22.3022 52.4223 22.4488 52.5125 22.6326C52.6028 22.8144 52.648 23.0314 52.648 23.2835ZM51.5174 23.3099C51.5174 23.1868 51.4879 23.0812 51.4291 22.9932C51.3702 22.9033 51.2995 22.8417 51.2171 22.8085C51.113 22.7635 51.0129 22.7381 50.9168 22.7323C50.8225 22.7244 50.694 22.7205 50.5311 22.7205H50.375V24.0283H50.4516C50.5556 24.0283 50.6537 24.0273 50.746 24.0254C50.8382 24.0234 50.9187 24.0166 50.9874 24.0049C51.0463 23.9951 51.1081 23.9765 51.1729 23.9492C51.2396 23.9198 51.2907 23.8876 51.326 23.8524C51.4006 23.7801 51.4506 23.7048 51.4762 23.6266C51.5036 23.5484 51.5174 23.4428 51.5174 23.3099Z" fill="white"/>
<path d="M53.2368 26.2715V21.9054H56.2017V22.7381H54.3321V23.5034H56.0545V24.3362H54.3321V25.4388H56.2017V26.2715H53.2368Z" fill="white"/>
<path d="M60.4532 24.9344C60.4532 25.1514 60.412 25.342 60.3295 25.5062C60.2471 25.6704 60.1362 25.8063 59.9968 25.9138C59.8319 26.0428 59.6504 26.1347 59.4521 26.1894C59.2559 26.2442 59.0056 26.2715 58.7014 26.2715H56.9466V21.9054H58.4953C58.8172 21.9054 59.0606 21.9181 59.2254 21.9435C59.3923 21.9669 59.5483 22.0178 59.6936 22.096C59.8506 22.18 59.9674 22.2924 60.0439 22.4332C60.1224 22.5739 60.1617 22.7362 60.1617 22.9199C60.1617 23.133 60.1077 23.3226 59.9998 23.4888C59.8938 23.6549 59.7466 23.7771 59.5581 23.8553V23.8788C59.829 23.9355 60.0459 24.0518 60.2088 24.2277C60.3717 24.4017 60.4532 24.6373 60.4532 24.9344ZM59.0429 23.1398C59.0429 23.0695 59.0242 22.9971 58.9869 22.9229C58.9516 22.8486 58.8957 22.7948 58.8191 22.7616C58.7465 22.7303 58.6601 22.7137 58.56 22.7117C58.4619 22.7078 58.3147 22.7059 58.1184 22.7059H58.0418V23.6295H58.1802C58.3687 23.6295 58.5002 23.6276 58.5748 23.6237C58.6513 23.6198 58.7298 23.5992 58.8103 23.5621C58.8986 23.521 58.9595 23.4644 58.9928 23.392C59.0262 23.3197 59.0429 23.2356 59.0429 23.1398ZM59.3196 24.9139C59.3196 24.779 59.2922 24.6734 59.2372 24.5972C59.1823 24.5209 59.0998 24.4633 58.9899 24.4242C58.9232 24.3988 58.8309 24.3851 58.7131 24.3831C58.5973 24.3792 58.4413 24.3773 58.245 24.3773H58.0418V25.471H58.1007C58.3873 25.471 58.5856 25.4691 58.6955 25.4651C58.8054 25.4612 58.9173 25.4348 59.0311 25.386C59.1312 25.343 59.2038 25.2804 59.249 25.1983C59.2961 25.1142 59.3196 25.0194 59.3196 24.9139Z" fill="white"/>
<path d="M65.0786 24.0899C65.0786 24.7956 64.8892 25.3508 64.5104 25.7554C64.1315 26.1601 63.6124 26.3624 62.9529 26.3624C62.2914 26.3624 61.7722 26.1581 61.3953 25.7496C61.0185 25.3391 60.8301 24.7858 60.8301 24.0899C60.8301 23.3881 61.0185 22.8339 61.3953 22.4273C61.7722 22.0187 62.2914 21.8145 62.9529 21.8145C63.6124 21.8145 64.1315 22.0178 64.5104 22.4244C64.8892 22.829 65.0786 23.3842 65.0786 24.0899ZM63.9421 24.087C63.9421 23.827 63.9146 23.6061 63.8597 23.4243C63.8067 23.2405 63.735 23.09 63.6448 22.9727C63.5505 22.8535 63.4436 22.7684 63.3238 22.7176C63.2061 22.6648 63.0834 22.6384 62.9558 22.6384C62.8204 22.6384 62.6977 22.6629 62.5878 22.7117C62.4778 22.7586 62.3719 22.8437 62.2698 22.9668C62.1795 23.0802 62.1059 23.2307 62.049 23.4184C61.994 23.6061 61.9665 23.8299 61.9665 24.0899C61.9665 24.3577 61.993 24.5806 62.046 24.7585C62.099 24.9344 62.1716 25.082 62.2639 25.2012C62.3581 25.3224 62.4651 25.4094 62.5848 25.4622C62.7046 25.513 62.8282 25.5385 62.9558 25.5385C63.0853 25.5385 63.211 25.5111 63.3327 25.4563C63.4544 25.3997 63.5594 25.3127 63.6477 25.1954C63.7419 25.0683 63.8145 24.9207 63.8656 24.7526C63.9166 24.5825 63.9421 24.3607 63.9421 24.087Z" fill="white"/>
<path d="M69.7835 27.2744H68.7736V26.2569H66.324V27.2744H65.3141V25.4358H65.6086C65.8147 25.0097 65.9776 24.4916 66.0973 23.8817C66.217 23.2698 66.2769 22.6111 66.2769 21.9054H69.3684V25.4358H69.7835V27.2744ZM68.2672 25.4358V22.7381H67.3074C67.2701 23.2659 67.1965 23.7615 67.0866 24.2248C66.9767 24.6861 66.8383 25.0898 66.6714 25.4358H68.2672Z" fill="white"/>
<path d="M44.6543 32.9986H43.5532V29.4652H42.0546V32.9986H40.9534V28.6325H44.6543V32.9986Z" fill="white"/>
<path d="M49.5565 30.817C49.5565 31.5227 49.3671 32.0779 48.9883 32.4825C48.6094 32.8872 48.0903 33.0895 47.4308 33.0895C46.7693 33.0895 46.2501 32.8852 45.8733 32.4767C45.4964 32.0662 45.308 31.5129 45.308 30.817C45.308 30.1152 45.4964 29.561 45.8733 29.1544C46.2501 28.7458 46.7693 28.5416 47.4308 28.5416C48.0903 28.5416 48.6094 28.7449 48.9883 29.1515C49.3671 29.5561 49.5565 30.1113 49.5565 30.817ZM48.42 30.8141C48.42 30.5541 48.3926 30.3332 48.3376 30.1514C48.2846 29.9676 48.213 29.8171 48.1227 29.6998C48.0284 29.5806 47.9215 29.4955 47.8017 29.4447C47.684 29.3919 47.5613 29.3655 47.4337 29.3655C47.2983 29.3655 47.1756 29.39 47.0657 29.4388C46.9558 29.4857 46.8498 29.5708 46.7477 29.6939C46.6574 29.8073 46.5838 29.9578 46.5269 30.1455C46.4719 30.3332 46.4444 30.557 46.4444 30.817C46.4444 31.0848 46.4709 31.3077 46.5239 31.4856C46.5769 31.6615 46.6496 31.8091 46.7418 31.9283C46.836 32.0495 46.943 32.1365 47.0627 32.1893C47.1825 32.2401 47.3061 32.2656 47.4337 32.2656C47.5633 32.2656 47.6889 32.2382 47.8106 32.1834C47.9323 32.1268 48.0373 32.0398 48.1256 31.9225C48.2198 31.7954 48.2924 31.6478 48.3435 31.4797C48.3945 31.3096 48.42 31.0878 48.42 30.8141Z" fill="white"/>
<path d="M55.6776 32.9986H54.5765V31.0633H53.0778V32.9986H51.9767V28.6325H53.0778V30.2305H54.5765V28.6325H55.6776V32.9986Z" fill="white"/>
<path d="M60.5798 30.817C60.5798 31.5227 60.3904 32.0779 60.0115 32.4825C59.6327 32.8872 59.1136 33.0895 58.454 33.0895C57.7926 33.0895 57.2734 32.8852 56.8965 32.4767C56.5197 32.0662 56.3312 31.5129 56.3312 30.817C56.3312 30.1152 56.5197 29.561 56.8965 29.1544C57.2734 28.7458 57.7926 28.5416 58.454 28.5416C59.1136 28.5416 59.6327 28.7449 60.0115 29.1515C60.3904 29.5561 60.5798 30.1113 60.5798 30.817ZM59.4433 30.8141C59.4433 30.5541 59.4158 30.3332 59.3609 30.1514C59.3079 29.9676 59.2362 29.8171 59.1459 29.6998C59.0517 29.5806 58.9447 29.4955 58.825 29.4447C58.7072 29.3919 58.5846 29.3655 58.457 29.3655C58.3215 29.3655 58.1989 29.39 58.089 29.4388C57.979 29.4857 57.873 29.5708 57.771 29.6939C57.6807 29.8073 57.6071 29.9578 57.5502 30.1455C57.4952 30.3332 57.4677 30.557 57.4677 30.817C57.4677 31.0848 57.4942 31.3077 57.5472 31.4856C57.6002 31.6615 57.6728 31.8091 57.7651 31.9283C57.8593 32.0495 57.9663 32.1365 58.086 32.1893C58.2057 32.2401 58.3294 32.2656 58.457 32.2656C58.5865 32.2656 58.7122 32.2382 58.8338 32.1834C58.9555 32.1268 59.0606 32.0398 59.1489 31.9225C59.2431 31.7954 59.3157 31.6478 59.3668 31.4797C59.4178 31.3096 59.4433 31.0878 59.4433 30.8141Z" fill="white"/>
<path d="M65.7116 32.9986H64.6164V30.1045L63.8185 31.9723H63.0677L62.2698 30.1045V32.9986H61.2334V28.6325H62.5024L63.474 30.7877L64.4426 28.6325H65.7116V32.9986Z" fill="white"/>
<path d="M66.6214 32.9986V28.6325H69.5862V29.4652H67.7167V30.2305H69.439V31.0633H67.7167V32.1659H69.5862V32.9986H66.6214Z" fill="white"/>
<path d="M73.7053 30.0106C73.7053 30.2139 73.6729 30.4075 73.6081 30.5912C73.5433 30.775 73.4501 30.9284 73.3284 31.0516C73.2538 31.1278 73.1714 31.1982 73.0811 31.2627C72.9927 31.3272 72.8946 31.382 72.7867 31.4269C72.6787 31.4719 72.5609 31.5071 72.4333 31.5325C72.3077 31.5579 72.1664 31.5706 72.0094 31.5706H71.4323V32.9986H70.3311V28.6325H72.0329C72.2861 28.6325 72.504 28.6559 72.6865 28.7028C72.8711 28.7478 73.0379 28.8201 73.1871 28.9198C73.3519 29.0293 73.4795 29.1759 73.5698 29.3597C73.6601 29.5415 73.7053 29.7585 73.7053 30.0106ZM72.5747 30.037C72.5747 29.9139 72.5452 29.8083 72.4863 29.7203C72.4275 29.6304 72.3568 29.5688 72.2744 29.5356C72.1703 29.4906 72.0702 29.4652 71.974 29.4594C71.8798 29.4515 71.7513 29.4476 71.5883 29.4476H71.4323V30.7554H71.5088C71.6129 30.7554 71.711 30.7544 71.8033 30.7525C71.8955 30.7505 71.976 30.7437 72.0447 30.732C72.1036 30.7222 72.1654 30.7036 72.2302 30.6763C72.2969 30.6469 72.348 30.6147 72.3833 30.5795C72.4579 30.5072 72.5079 30.4319 72.5334 30.3537C72.5609 30.2755 72.5747 30.1699 72.5747 30.037Z" fill="white"/>
<path d="M77.9155 28.6325L76.4522 32.1248C76.3659 32.3281 76.2687 32.4884 76.1608 32.6057C76.0548 32.723 75.9429 32.8119 75.8251 32.8725C75.7073 32.9331 75.5896 32.9742 75.4718 32.9957C75.354 33.0152 75.2304 33.025 75.1008 33.025C74.9654 33.025 74.8074 33.0221 74.6268 33.0162C74.4482 33.0104 74.3285 33.0045 74.2676 32.9986V32.072H74.3353C74.353 32.0759 74.3805 32.0808 74.4178 32.0867C74.4551 32.0925 74.5022 32.0984 74.5591 32.1043C74.6062 32.1082 74.6572 32.1121 74.7122 32.116C74.7671 32.1199 74.8172 32.1219 74.8623 32.1219C74.9939 32.1219 75.1175 32.1062 75.2333 32.075C75.3511 32.0417 75.4296 31.986 75.4689 31.9078L73.8466 28.6325H75.0361L75.9753 30.6792L76.7702 28.6325H77.9155Z" fill="white"/>
<path d="M41.7955 39.7257V36.1923H40.5V35.3596H44.1921V36.1923H42.8966V39.7257H41.7955Z" fill="white"/>
<path d="M44.6455 39.7257V35.3596H47.6104V36.1923H45.7408V36.9577H47.4632V37.7904H45.7408V38.893H47.6104V39.7257H44.6455Z" fill="white"/>
<path d="M52.1298 39.7257H51.0286V36.1923H49.9216C49.9138 36.3624 49.9059 36.5217 49.898 36.6703C49.8922 36.8169 49.8853 36.9567 49.8774 37.0896C49.8558 37.4708 49.8205 37.8002 49.7714 38.0778C49.7224 38.3534 49.6664 38.5792 49.6036 38.7552C49.5349 38.9428 49.4652 39.0904 49.3946 39.1979C49.3239 39.3055 49.2572 39.3905 49.1944 39.453C49.1002 39.5469 48.9824 39.6212 48.8411 39.6759C48.6997 39.7287 48.5604 39.7551 48.423 39.7551C48.3307 39.7551 48.2296 39.7512 48.1197 39.7433C48.0098 39.7355 47.9401 39.7297 47.9107 39.7257V38.761H47.9519C47.9715 38.763 47.9902 38.7649 48.0078 38.7669C48.0275 38.7688 48.052 38.7698 48.0814 38.7698C48.1305 38.7698 48.1933 38.762 48.2699 38.7464C48.3464 38.7307 48.4043 38.7043 48.4436 38.6672C48.5849 38.5343 48.6811 38.329 48.7321 38.0514C48.7851 37.7719 48.8254 37.3692 48.8528 36.8433C48.8646 36.6029 48.8715 36.3869 48.8734 36.1953C48.8774 36.0037 48.8852 35.7251 48.897 35.3596H52.1298V39.7257Z" fill="white"/>
<path d="M53.0366 39.7257V35.3596H56.0015V36.1923H54.1319V36.9577H55.8543V37.7904H54.1319V38.893H56.0015V39.7257H53.0366Z" fill="white"/>
<path d="M61.413 37.5089C61.413 38.0348 61.2344 38.4512 60.8772 38.7581C60.5199 39.0631 60.0557 39.24 59.4845 39.2888V39.7609H58.3893V39.2888C57.8181 39.24 57.3539 39.065 56.9966 38.764C56.6394 38.461 56.4608 38.0426 56.4608 37.5089C56.4608 36.9772 56.6345 36.5647 56.9819 36.2715C57.3293 35.9783 57.7985 35.8063 58.3893 35.7554V35.3156H59.4845V35.7554C60.0577 35.7965 60.5219 35.9656 60.8772 36.2627C61.2344 36.5579 61.413 36.9733 61.413 37.5089ZM60.2824 37.4913C60.2824 37.2157 60.2118 36.9909 60.0704 36.8169C59.9291 36.641 59.7338 36.5305 59.4845 36.4856V38.5616C59.7731 38.4991 59.9782 38.3808 60.0999 38.2068C60.2216 38.0309 60.2824 37.7924 60.2824 37.4913ZM58.3893 38.5616V36.4856C58.1302 36.5325 57.9319 36.6439 57.7945 36.8199C57.6591 36.9938 57.5914 37.2177 57.5914 37.4913C57.5914 37.7885 57.6552 38.027 57.7827 38.2068C57.9103 38.3847 58.1125 38.503 58.3893 38.5616Z" fill="white"/>
<path d="M66.0266 37.5441C66.0266 38.2498 65.8372 38.805 65.4584 39.2097C65.0796 39.6143 64.5604 39.8166 63.9009 39.8166C63.2394 39.8166 62.7203 39.6124 62.3434 39.2038C61.9665 38.7933 61.7781 38.2401 61.7781 37.5441C61.7781 36.8423 61.9665 36.2881 62.3434 35.8815C62.7203 35.473 63.2394 35.2687 63.9009 35.2687C64.5604 35.2687 65.0796 35.472 65.4584 35.8786C65.8372 36.2832 66.0266 36.8384 66.0266 37.5441ZM64.8902 37.5412C64.8902 37.2812 64.8627 37.0603 64.8077 36.8785C64.7547 36.6947 64.6831 36.5442 64.5928 36.4269C64.4986 36.3077 64.3916 36.2226 64.2719 36.1718C64.1541 36.119 64.0314 36.0926 63.9038 36.0926C63.7684 36.0926 63.6457 36.1171 63.5358 36.166C63.4259 36.2129 63.3199 36.2979 63.2178 36.4211C63.1275 36.5344 63.0539 36.685 62.997 36.8726C62.9421 37.0603 62.9146 37.2841 62.9146 37.5441C62.9146 37.8119 62.9411 38.0348 62.9941 38.2127C63.0471 38.3886 63.1197 38.5362 63.2119 38.6555C63.3062 38.7767 63.4131 38.8637 63.5329 38.9164C63.6526 38.9673 63.7763 38.9927 63.9038 38.9927C64.0334 38.9927 64.159 38.9653 64.2807 38.9106C64.4024 38.8539 64.5074 38.7669 64.5957 38.6496C64.69 38.5225 64.7626 38.3749 64.8136 38.2068C64.8647 38.0368 64.8902 37.8149 64.8902 37.5412Z" fill="white"/>
<path d="M70.3812 39.7257H69.28V37.7904H67.7814V39.7257H66.6803V35.3596H67.7814V36.9577H69.28V35.3596H70.3812V39.7257Z" fill="white"/>
<path d="M70.8199 39.7257L72.3009 35.3596H73.5021L74.9831 39.7257H73.8495L73.5757 38.8343H72.1978L71.924 39.7257H70.8199ZM73.3343 38.0426L72.8868 36.6029L72.4392 38.0426H73.3343Z" fill="white"/>
<path fill-rule="evenodd" clip-rule="evenodd" d="M15.6719 46.1512L37.5302 33.4648L26.8547 33.2412L21.6266 36.3551L15.6719 46.1512Z" fill="#027E35"/>
<path fill-rule="evenodd" clip-rule="evenodd" d="M0.4375 9.84766L37.5307 33.4657L26.8552 33.2421L5.81726 19.8788L0.4375 9.84766Z" fill="#2683C9"/>
<path fill-rule="evenodd" clip-rule="evenodd" d="M0.436167 9.84766L0 35.5322L5.71513 25.8663L5.81593 19.8788L0.436167 9.84766Z" fill="#5A58A3"/>
<path fill-rule="evenodd" clip-rule="evenodd" d="M16.0427 26.3773L0 35.5349L5.71513 25.869L10.7562 23.0195L16.0427 26.3773Z" fill="#964A95"/>
<path fill-rule="evenodd" clip-rule="evenodd" d="M15.6719 46.1515L16.0435 26.374L21.7383 29.9916L21.6266 36.3553L15.6719 46.1515Z" fill="#62B22F"/>
<path fill-rule="evenodd" clip-rule="evenodd" d="M16.5938 0L37.9478 13.7418L27.1734 13.5107L22.0958 10.3968L16.5938 0Z" fill="#EE7024"/>
<path fill-rule="evenodd" clip-rule="evenodd" d="M16.5913 0L16.1641 19.8639L21.6734 23.3719L22.0934 10.3968L16.5913 0Z" fill="#FAB51A"/>
<path fill-rule="evenodd" clip-rule="evenodd" d="M21.6797 23.3709L37.9516 13.7409L27.1773 13.5098L21.9572 16.6081L21.6797 23.3709Z" fill="#DB0954"/>
</svg>
