<svg width="156" height="47" viewBox="0 0 156 47" fill="none" xmlns="http://www.w3.org/2000/svg">
<path d="M124.397 17.6687C122.753 17.6687 121.448 17.1751 120.481 16.1879C119.515 15.1958 119.031 13.803 119.031 12.0094C119.031 10.2794 119.515 8.9012 120.481 7.8749C121.453 6.84372 122.761 6.32812 124.405 6.32812C124.841 6.32812 125.234 6.35256 125.582 6.40143C125.931 6.4503 126.264 6.51872 126.583 6.60669C126.834 6.68 127.106 6.78019 127.4 6.90725C127.695 7.03432 127.933 7.14428 128.114 7.23713V9.83953H127.835C127.702 9.72224 127.535 9.58296 127.334 9.42168C127.133 9.25552 126.905 9.09424 126.649 8.93786C126.394 8.78147 126.112 8.64951 125.803 8.542C125.499 8.42959 125.18 8.37339 124.846 8.37339C124.449 8.37339 124.083 8.43692 123.749 8.56399C123.421 8.68617 123.107 8.9012 122.807 9.20909C122.532 9.48766 122.307 9.86397 122.13 10.338C121.958 10.8121 121.872 11.3716 121.872 12.0168C121.872 12.6961 121.963 13.2679 122.145 13.7321C122.326 14.1915 122.564 14.5629 122.859 14.8464C123.143 15.1201 123.46 15.318 123.808 15.4402C124.162 15.5624 124.512 15.6235 124.861 15.6235C125.224 15.6235 125.57 15.5648 125.899 15.4475C126.227 15.3253 126.505 15.1909 126.73 15.0443C126.976 14.8928 127.192 14.7389 127.378 14.5825C127.565 14.4261 127.727 14.2868 127.864 14.1646H128.114V16.7304C127.913 16.8232 127.68 16.9308 127.415 17.0529C127.15 17.1702 126.878 17.2704 126.598 17.3535C126.254 17.4561 125.933 17.5343 125.634 17.5881C125.334 17.6418 124.922 17.6687 124.397 17.6687Z" fill="white"/>
<path d="M138.537 13.9667C138.537 14.4994 138.434 14.9906 138.228 15.4402C138.027 15.8849 137.749 16.249 137.396 16.5325C136.974 16.8697 136.518 17.1091 136.027 17.2509C135.541 17.3877 134.947 17.4561 134.246 17.4561H129.741V6.54072H137.705V8.62264H132.479V10.6386H134.29C134.947 10.6386 135.536 10.6875 136.056 10.7852C136.577 10.878 137.043 11.0858 137.455 11.4083C137.833 11.7015 138.108 12.0705 138.279 12.5152C138.451 12.9551 138.537 13.4389 138.537 13.9667ZM135.696 14.0474C135.696 13.8665 135.676 13.6955 135.637 13.5342C135.598 13.3729 135.512 13.2239 135.379 13.087C135.247 12.9551 135.065 12.85 134.835 12.7718C134.604 12.6936 134.285 12.6545 133.878 12.6545H132.479V15.4329H133.878C134.442 15.4329 134.886 15.3131 135.21 15.0737C135.534 14.8342 135.696 14.4921 135.696 14.0474Z" fill="white"/>
<path d="M149.342 17.4561H146.589V8.62264H142.843V17.4561H140.09V6.54072H149.342V17.4561Z" fill="white"/>
<path d="M122.693 26.418H121.592V22.8846H120.094V26.418H118.992V22.0518H122.693V26.418Z" fill="white"/>
<path d="M123.603 26.418V22.0518H126.568V22.8846H124.698V23.6499H126.421V24.4827H124.698V25.5852H126.568V26.418H123.603Z" fill="white"/>
<path d="M130.687 23.43C130.687 23.6333 130.655 23.8268 130.59 24.0106C130.525 24.1944 130.432 24.3478 130.31 24.471C130.236 24.5472 130.153 24.6176 130.063 24.6821C129.975 24.7466 129.876 24.8013 129.768 24.8463C129.66 24.8913 129.543 24.9265 129.415 24.9519C129.29 24.9773 129.148 24.99 128.991 24.99H128.414V26.418H127.313V22.0518H129.015C129.268 22.0518 129.486 22.0753 129.668 22.1222C129.853 22.1672 130.02 22.2395 130.169 22.3392C130.334 22.4487 130.461 22.5953 130.552 22.779C130.642 22.9608 130.687 23.1778 130.687 23.43ZM129.556 23.4564C129.556 23.3332 129.527 23.2277 129.468 23.1397C129.409 23.0498 129.339 22.9882 129.256 22.955C129.152 22.91 129.052 22.8846 128.956 22.8787C128.862 22.8709 128.733 22.867 128.57 22.867H128.414V24.1748H128.491C128.595 24.1748 128.693 24.1738 128.785 24.1719C128.877 24.1699 128.958 24.1631 129.026 24.1514C129.085 24.1416 129.147 24.123 129.212 24.0956C129.279 24.0663 129.33 24.0341 129.365 23.9989C129.44 23.9265 129.49 23.8513 129.515 23.7731C129.543 23.6949 129.556 23.5893 129.556 23.4564Z" fill="white"/>
<path d="M131.276 26.418V22.0518H134.241V22.8846H132.371V23.6499H134.094V24.4827H132.371V25.5852H134.241V26.418H131.276Z" fill="white"/>
<path d="M138.492 25.0809C138.492 25.2979 138.451 25.4885 138.369 25.6527C138.286 25.8169 138.175 25.9528 138.036 26.0603C137.871 26.1893 137.689 26.2812 137.491 26.3359C137.295 26.3906 137.045 26.418 136.74 26.418H134.986V22.0518H136.534C136.856 22.0518 137.1 22.0645 137.264 22.09C137.431 22.1134 137.587 22.1642 137.733 22.2424C137.89 22.3265 138.006 22.4389 138.083 22.5796C138.162 22.7204 138.201 22.8827 138.201 23.0664C138.201 23.2795 138.147 23.4691 138.039 23.6353C137.933 23.8014 137.786 23.9236 137.597 24.0018V24.0253C137.868 24.082 138.085 24.1983 138.248 24.3742C138.411 24.5482 138.492 24.7837 138.492 25.0809ZM137.082 23.2863C137.082 23.216 137.063 23.1436 137.026 23.0693C136.991 22.9951 136.935 22.9413 136.858 22.9081C136.786 22.8768 136.699 22.8602 136.599 22.8582C136.501 22.8543 136.354 22.8524 136.157 22.8524H136.081V23.776H136.219C136.408 23.776 136.539 23.7741 136.614 23.7702C136.69 23.7662 136.769 23.7457 136.849 23.7086C136.938 23.6675 136.999 23.6108 137.032 23.5385C137.065 23.4662 137.082 23.3821 137.082 23.2863ZM137.359 25.0604C137.359 24.9255 137.331 24.8199 137.276 24.7437C137.221 24.6674 137.139 24.6098 137.029 24.5707C136.962 24.5453 136.87 24.5316 136.752 24.5296C136.636 24.5257 136.48 24.5238 136.284 24.5238H136.081V25.6175H136.14C136.426 25.6175 136.625 25.6155 136.735 25.6116C136.844 25.6077 136.956 25.5813 137.07 25.5325C137.17 25.4895 137.243 25.4269 137.288 25.3448C137.335 25.2607 137.359 25.1659 137.359 25.0604Z" fill="white"/>
<path d="M143.118 24.2364C143.118 24.9421 142.928 25.4973 142.549 25.9019C142.171 26.3066 141.651 26.5089 140.992 26.5089C140.33 26.5089 139.811 26.3046 139.434 25.8961C139.058 25.4855 138.869 24.9323 138.869 24.2364C138.869 23.5346 139.058 22.9804 139.434 22.5738C139.811 22.1652 140.33 21.9609 140.992 21.9609C141.651 21.9609 142.171 22.1642 142.549 22.5709C142.928 22.9755 143.118 23.5307 143.118 24.2364ZM141.981 24.2335C141.981 23.9735 141.954 23.7526 141.899 23.5708C141.846 23.387 141.774 23.2365 141.684 23.1192C141.59 22.9999 141.483 22.9149 141.363 22.8641C141.245 22.8113 141.122 22.7849 140.995 22.7849C140.859 22.7849 140.737 22.8093 140.627 22.8582C140.517 22.9051 140.411 22.9902 140.309 23.1133C140.219 23.2267 140.145 23.3772 140.088 23.5649C140.033 23.7526 140.006 23.9764 140.006 24.2364C140.006 24.5042 140.032 24.7271 140.085 24.9049C140.138 25.0809 140.211 25.2285 140.303 25.3477C140.397 25.4689 140.504 25.5559 140.624 25.6087C140.744 25.6595 140.867 25.6849 140.995 25.6849C141.124 25.6849 141.25 25.6576 141.372 25.6028C141.493 25.5461 141.598 25.4592 141.687 25.3419C141.781 25.2148 141.854 25.0672 141.905 24.8991C141.956 24.729 141.981 24.5071 141.981 24.2335Z" fill="white"/>
<path d="M147.823 27.4208H146.813V26.4033H144.363V27.4208H143.353V25.5823H143.648C143.854 25.1561 144.017 24.6381 144.136 24.0282C144.256 23.4163 144.316 22.7575 144.316 22.0518H147.407V25.5823H147.823V27.4208ZM146.306 25.5823V22.8846H145.346C145.309 23.4124 145.236 23.908 145.126 24.3713C145.016 24.8326 144.877 25.2363 144.711 25.5823H146.306Z" fill="white"/>
<path d="M122.693 33.1451H121.592V29.6117H120.094V33.1451H118.992V28.7789H122.693V33.1451Z" fill="white"/>
<path d="M127.596 30.9635C127.596 31.6692 127.406 32.2244 127.027 32.629C126.649 33.0337 126.129 33.236 125.47 33.236C124.808 33.236 124.289 33.0317 123.912 32.6232C123.535 32.2126 123.347 31.6594 123.347 30.9635C123.347 30.2617 123.535 29.7075 123.912 29.3009C124.289 28.8923 124.808 28.688 125.47 28.688C126.129 28.688 126.649 28.8913 127.027 29.298C127.406 29.7026 127.596 30.2578 127.596 30.9635ZM126.459 30.9606C126.459 30.7006 126.432 30.4797 126.377 30.2979C126.324 30.1141 126.252 29.9636 126.162 29.8463C126.068 29.727 125.961 29.642 125.841 29.5912C125.723 29.5384 125.6 29.512 125.473 29.512C125.337 29.512 125.215 29.5364 125.105 29.5853C124.995 29.6322 124.889 29.7173 124.787 29.8404C124.696 29.9538 124.623 30.1043 124.566 30.292C124.511 30.4797 124.484 30.7035 124.484 30.9635C124.484 31.2313 124.51 31.4542 124.563 31.632C124.616 31.808 124.689 31.9556 124.781 32.0748C124.875 32.196 124.982 32.283 125.102 32.3358C125.222 32.3866 125.345 32.412 125.473 32.412C125.602 32.412 125.728 32.3847 125.85 32.3299C125.971 32.2732 126.076 32.1863 126.165 32.069C126.259 31.9419 126.332 31.7943 126.383 31.6262C126.434 31.4561 126.459 31.2342 126.459 30.9606Z" fill="white"/>
<path d="M133.717 33.1451H132.616V31.2098H131.117V33.1451H130.016V28.7789H131.117V30.377H132.616V28.7789H133.717V33.1451Z" fill="white"/>
<path d="M138.619 30.9635C138.619 31.6692 138.429 32.2244 138.051 32.629C137.672 33.0337 137.153 33.236 136.493 33.236C135.832 33.236 135.312 33.0317 134.936 32.6232C134.559 32.2126 134.37 31.6594 134.37 30.9635C134.37 30.2617 134.559 29.7075 134.936 29.3009C135.312 28.8923 135.832 28.688 136.493 28.688C137.153 28.688 137.672 28.8913 138.051 29.298C138.429 29.7026 138.619 30.2578 138.619 30.9635ZM137.482 30.9606C137.482 30.7006 137.455 30.4797 137.4 30.2979C137.347 30.1141 137.275 29.9636 137.185 29.8463C137.091 29.727 136.984 29.642 136.864 29.5912C136.746 29.5384 136.624 29.512 136.496 29.512C136.361 29.512 136.238 29.5364 136.128 29.5853C136.018 29.6322 135.912 29.7173 135.81 29.8404C135.72 29.9538 135.646 30.1043 135.589 30.292C135.534 30.4797 135.507 30.7035 135.507 30.9635C135.507 31.2313 135.533 31.4542 135.586 31.632C135.639 31.808 135.712 31.9556 135.804 32.0748C135.898 32.196 136.005 32.283 136.125 32.3358C136.245 32.3866 136.368 32.412 136.496 32.412C136.626 32.412 136.751 32.3847 136.873 32.3299C136.995 32.2732 137.1 32.1863 137.188 32.069C137.282 31.9419 137.355 31.7943 137.406 31.6262C137.457 31.4561 137.482 31.2342 137.482 30.9606Z" fill="white"/>
<path d="M143.751 33.1451H142.655V30.2509L141.858 32.1188H141.107L140.309 30.2509V33.1451H139.272V28.7789H140.541L141.513 30.9342L142.482 28.7789H143.751V33.1451Z" fill="white"/>
<path d="M144.66 33.1451V28.7789H147.625V29.6117H145.756V30.377H147.478V31.2098H145.756V32.3123H147.625V33.1451H144.66Z" fill="white"/>
<path d="M151.744 30.1571C151.744 30.3604 151.712 30.5539 151.647 30.7377C151.582 30.9215 151.489 31.0749 151.367 31.1981C151.293 31.2743 151.21 31.3447 151.12 31.4092C151.032 31.4737 150.934 31.5284 150.826 31.5734C150.718 31.6184 150.6 31.6536 150.472 31.679C150.347 31.7044 150.205 31.7171 150.048 31.7171H149.471V33.1451H148.37V28.7789H150.072C150.325 28.7789 150.543 28.8024 150.726 28.8493C150.91 28.8943 151.077 28.9666 151.226 29.0663C151.391 29.1758 151.519 29.3224 151.609 29.5061C151.699 29.6879 151.744 29.9049 151.744 30.1571ZM150.614 30.1835C150.614 30.0603 150.584 29.9548 150.525 29.8668C150.467 29.7769 150.396 29.7153 150.313 29.6821C150.209 29.6371 150.109 29.6117 150.013 29.6058C149.919 29.598 149.79 29.5941 149.627 29.5941H149.471V30.9019H149.548C149.652 30.9019 149.75 30.9009 149.842 30.899C149.935 30.897 150.015 30.8902 150.084 30.8785C150.143 30.8687 150.204 30.8501 150.269 30.8227C150.336 30.7934 150.387 30.7612 150.422 30.726C150.497 30.6536 150.547 30.5784 150.573 30.5002C150.6 30.422 150.614 30.3164 150.614 30.1835Z" fill="white"/>
<path d="M155.955 28.7789L154.491 32.2713C154.405 32.4746 154.308 32.6349 154.2 32.7522C154.094 32.8695 153.982 32.9584 153.864 33.019C153.746 33.0796 153.629 33.1207 153.511 33.1422C153.393 33.1617 153.269 33.1715 153.14 33.1715C153.004 33.1715 152.846 33.1686 152.666 33.1627C152.487 33.1568 152.368 33.151 152.307 33.1451V32.2185H152.374C152.392 32.2224 152.42 32.2273 152.457 32.2332C152.494 32.239 152.541 32.2449 152.598 32.2508C152.645 32.2547 152.696 32.2586 152.751 32.2625C152.806 32.2664 152.856 32.2684 152.901 32.2684C153.033 32.2684 153.157 32.2527 153.272 32.2214C153.39 32.1882 153.469 32.1325 153.508 32.0543L151.886 28.7789H153.075L154.014 30.8257L154.809 28.7789H155.955Z" fill="white"/>
<path d="M119.835 39.8722V36.3388H118.539V35.5061H122.231V36.3388H120.936V39.8722H119.835Z" fill="white"/>
<path d="M122.685 39.8722V35.5061H125.649V36.3388H123.78V37.1042H125.502V37.9369H123.78V39.0395H125.649V39.8722H122.685Z" fill="white"/>
<path d="M130.169 39.8722H129.068V36.3388H127.961C127.953 36.5089 127.945 36.6682 127.937 36.8168C127.931 36.9634 127.924 37.1032 127.917 37.2361C127.895 37.6173 127.86 37.9467 127.811 38.2243C127.761 38.4999 127.705 38.7257 127.643 38.9016C127.574 39.0893 127.504 39.2369 127.434 39.3444C127.363 39.4519 127.296 39.537 127.233 39.5995C127.139 39.6934 127.021 39.7676 126.88 39.8224C126.739 39.8752 126.599 39.9016 126.462 39.9016C126.37 39.9016 126.269 39.8976 126.159 39.8898C126.049 39.882 125.979 39.8761 125.95 39.8722V38.9075H125.991C126.011 38.9095 126.029 38.9114 126.047 38.9134C126.067 38.9153 126.091 38.9163 126.121 38.9163C126.17 38.9163 126.232 38.9085 126.309 38.8928C126.385 38.8772 126.443 38.8508 126.483 38.8137C126.624 38.6807 126.72 38.4755 126.771 38.1979C126.824 37.9184 126.864 37.5157 126.892 36.9898C126.904 36.7493 126.911 36.5333 126.913 36.3418C126.916 36.1502 126.924 35.8716 126.936 35.5061H130.169V39.8722Z" fill="white"/>
<path d="M131.076 39.8722V35.5061H134.041V36.3388H132.171V37.1042H133.893V37.9369H132.171V39.0395H134.041V39.8722H131.076Z" fill="white"/>
<path d="M139.452 37.6554C139.452 38.1813 139.273 38.5977 138.916 38.9046C138.559 39.2095 138.095 39.3864 137.524 39.4353V39.9074H136.428V39.4353C135.857 39.3864 135.393 39.2115 135.036 38.9104C134.678 38.6074 134.5 38.1891 134.5 37.6554C134.5 37.1237 134.674 36.7112 135.021 36.418C135.368 36.1248 135.838 35.9527 136.428 35.9019V35.4621H137.524V35.9019C138.097 35.943 138.561 36.1121 138.916 36.4092C139.273 36.7044 139.452 37.1198 139.452 37.6554ZM138.321 37.6378C138.321 37.3622 138.251 37.1374 138.109 36.9634C137.968 36.7875 137.773 36.677 137.524 36.6321V38.7081C137.812 38.6456 138.017 38.5273 138.139 38.3533C138.261 38.1774 138.321 37.9389 138.321 37.6378ZM136.428 38.7081V36.6321C136.169 36.679 135.971 36.7904 135.834 36.9663C135.698 37.1403 135.63 37.3642 135.63 37.6378C135.63 37.935 135.694 38.1735 135.822 38.3533C135.949 38.5312 136.152 38.6495 136.428 38.7081Z" fill="white"/>
<path d="M144.066 37.6906C144.066 38.3963 143.876 38.9515 143.497 39.3561C143.119 39.7608 142.599 39.9631 141.94 39.9631C141.278 39.9631 140.759 39.7588 140.382 39.3503C140.006 38.9398 139.817 38.3865 139.817 37.6906C139.817 36.9888 140.006 36.4346 140.382 36.028C140.759 35.6194 141.278 35.4152 141.94 35.4152C142.599 35.4152 143.119 35.6185 143.497 36.0251C143.876 36.4297 144.066 36.9849 144.066 37.6906ZM142.929 37.6877C142.929 37.4277 142.902 37.2068 142.847 37.025C142.794 36.8412 142.722 36.6907 142.632 36.5734C142.538 36.4542 142.431 36.3691 142.311 36.3183C142.193 36.2655 142.07 36.2391 141.943 36.2391C141.807 36.2391 141.685 36.2636 141.575 36.3124C141.465 36.3594 141.359 36.4444 141.257 36.5675C141.167 36.6809 141.093 36.8315 141.036 37.0191C140.981 37.2068 140.954 37.4306 140.954 37.6906C140.954 37.9584 140.98 38.1813 141.033 38.3592C141.086 38.5351 141.159 38.6827 141.251 38.8019C141.345 38.9231 141.452 39.0101 141.572 39.0629C141.692 39.1137 141.815 39.1392 141.943 39.1392C142.072 39.1392 142.198 39.1118 142.32 39.0571C142.441 39.0004 142.546 38.9134 142.635 38.7961C142.729 38.669 142.802 38.5214 142.853 38.3533C142.904 38.1832 142.929 37.9614 142.929 37.6877Z" fill="white"/>
<path d="M148.42 39.8722H147.319V37.9369H145.82V39.8722H144.719V35.5061H145.82V37.1042H147.319V35.5061H148.42V39.8722Z" fill="white"/>
<path d="M148.859 39.8722L150.34 35.5061H151.541L153.022 39.8722H151.889L151.615 38.9808H150.237L149.963 39.8722H148.859ZM151.373 38.1891L150.926 36.7493L150.478 38.1891H151.373Z" fill="white"/>
<path fill-rule="evenodd" clip-rule="evenodd" d="M93.7109 46.2977L115.569 33.6113L104.894 33.3877L99.6656 36.5016L93.7109 46.2977Z" fill="#027E35"/>
<path fill-rule="evenodd" clip-rule="evenodd" d="M78.4766 9.99414L115.57 33.6121L104.894 33.3886L83.8563 20.0252L78.4766 9.99414Z" fill="#2683C9"/>
<path fill-rule="evenodd" clip-rule="evenodd" d="M78.4752 9.99414L78.0391 35.6787L83.7542 26.0128L83.855 20.0252L78.4752 9.99414Z" fill="#5A58A3"/>
<path fill-rule="evenodd" clip-rule="evenodd" d="M94.0817 26.5238L78.0391 35.6814L83.7542 26.0154L88.7952 23.166L94.0817 26.5238Z" fill="#964A95"/>
<path fill-rule="evenodd" clip-rule="evenodd" d="M93.7109 46.2979L94.0826 26.5205L99.7773 30.138L99.6656 36.5018L93.7109 46.2979Z" fill="#62B22F"/>
<path fill-rule="evenodd" clip-rule="evenodd" d="M94.6328 0.146484L115.987 13.8883L105.213 13.6572L100.135 10.5433L94.6328 0.146484Z" fill="#EE7024"/>
<path fill-rule="evenodd" clip-rule="evenodd" d="M94.6304 0.146484L94.2031 20.0104L99.7125 23.5184L100.132 10.5433L94.6304 0.146484Z" fill="#FAB51A"/>
<path fill-rule="evenodd" clip-rule="evenodd" d="M99.7188 23.5174L115.991 13.8874L105.216 13.6562L99.9963 16.7546L99.7188 23.5174Z" fill="#DB0954"/>
<path d="M0 0H44.0754V22.4464C44.0754 28.2023 41.0089 33.509 36.0231 36.3978L22.0377 44.636L8.06699 36.3978C3.08129 33.5305 0.0213976 28.2023 0.0213976 22.4464V0H0Z" fill="#FFDD2D"/>
<path fill-rule="evenodd" clip-rule="evenodd" d="M11.8672 11.8115V18.7871C12.8301 17.7173 14.5633 16.9897 16.5319 16.9897H18.6931V25.0996C18.6931 27.2606 18.1154 29.1436 17.2381 30.1921H26.8359C25.9586 29.1436 25.4288 27.2606 25.4288 25.0996V16.9897H27.5309C29.5209 16.9897 31.2681 17.7173 32.2097 18.7871V11.8115H11.8672Z" fill="#333333"/>
</svg>
