<svg width="178" height="39" viewBox="0 0 178 39" fill="none" xmlns="http://www.w3.org/2000/svg">
<path d="M32.1719 11.7256H36.8824C38.1496 11.7256 39.1619 12.1112 39.9195 12.8826C40.677 13.6539 41.0558 14.7213 41.0558 16.0849C41.0558 17.4347 40.6563 18.4952 39.8575 19.2666C39.0724 20.0379 38.0256 20.4235 36.7171 20.4235H33.7214V25.8158H32.1719V11.7256ZM36.6758 19.1426C37.5986 19.1426 38.3011 18.8878 38.7831 18.3782C39.2652 17.8548 39.5062 17.0904 39.5062 16.0849C39.5062 15.0794 39.2652 14.315 38.7831 13.7916C38.3011 13.2682 37.5986 13.0065 36.6758 13.0065H33.7214V19.1426H36.6758Z" fill="#2195F2"/>
<path d="M43.6415 25.8158V16.1469H45.0464V25.8158H43.6415ZM44.344 14.2668C44.0272 14.2668 43.7586 14.1566 43.5382 13.9362C43.3316 13.7159 43.2283 13.4473 43.2283 13.1305C43.2283 12.8275 43.3316 12.5727 43.5382 12.3661C43.7586 12.1457 44.0272 12.0355 44.344 12.0355C44.647 12.0355 44.9087 12.1457 45.1291 12.3661C45.3494 12.5727 45.4596 12.8344 45.4596 13.1511C45.4596 13.4542 45.3494 13.7159 45.1291 13.9362C44.9087 14.1566 44.647 14.2668 44.344 14.2668Z" fill="#2195F2"/>
<path d="M57.3925 16.1469V25.8158H55.9876V24.3903C55.5882 24.9412 55.0992 25.3751 54.5207 25.6919C53.9422 25.9949 53.3087 26.1464 52.62 26.1464C51.6972 26.1464 50.8708 25.926 50.1408 25.4853C49.4108 25.0445 48.8392 24.4316 48.426 23.6465C48.0128 22.8614 47.8062 21.9662 47.8062 20.9607C47.8062 19.969 48.0059 19.0875 48.4053 18.3162C48.8185 17.5311 49.3832 16.9182 50.0994 16.4774C50.8294 16.0367 51.6558 15.8163 52.5787 15.8163C53.2811 15.8163 53.9216 15.9747 54.5001 16.2915C55.0923 16.5945 55.5882 17.0284 55.9876 17.5931V16.1469H57.3925ZM52.5787 24.8655C53.2398 24.8655 53.8252 24.7002 54.3348 24.3696C54.8582 24.0391 55.2645 23.5777 55.5537 22.9854C55.843 22.3931 55.9876 21.7251 55.9876 20.9814C55.9876 20.2376 55.843 19.5696 55.5537 18.9773C55.2645 18.3851 54.8582 17.9236 54.3348 17.5931C53.8252 17.2625 53.2398 17.0972 52.5787 17.0972C51.9313 17.0972 51.3528 17.2625 50.8432 17.5931C50.3336 17.9236 49.9342 18.3851 49.6449 18.9773C49.3557 19.5558 49.2111 20.2169 49.2111 20.9607C49.2111 21.7182 49.3557 22.3931 49.6449 22.9854C49.9342 23.5777 50.3336 24.0391 50.8432 24.3696C51.3528 24.7002 51.9313 24.8655 52.5787 24.8655Z" fill="#2195F2"/>
<path d="M63.3953 26.1464C62.4587 26.1464 61.6323 25.9467 60.916 25.5473C60.2136 25.1478 59.6764 24.5831 59.3045 23.8531L60.5648 23.2333C61.0744 24.3214 62.073 24.8655 63.5605 24.8655C64.2768 24.8655 64.869 24.7346 65.3373 24.4729C65.8056 24.2112 66.0398 23.8049 66.0398 23.254C66.0398 22.6893 65.8469 22.2692 65.4613 21.9937C65.0894 21.7182 64.4283 21.5392 63.4779 21.4565C62.1556 21.3464 61.2053 21.0502 60.6268 20.5682C60.0621 20.0861 59.7797 19.4456 59.7797 18.6468C59.7797 17.7515 60.1034 17.0559 60.7508 16.5601C61.3981 16.0642 62.2865 15.8163 63.4159 15.8163C65.3304 15.8163 66.632 16.5738 67.3207 18.0889L66.0604 18.7087C65.8263 18.1578 65.4819 17.7515 65.0274 17.4898C64.5867 17.2281 64.0151 17.0972 63.3126 17.0972C62.5964 17.0972 62.0455 17.2281 61.6598 17.4898C61.2879 17.7515 61.102 18.1234 61.102 18.6054C61.102 19.06 61.3017 19.4318 61.7011 19.7211C62.1143 19.9966 62.8168 20.1756 63.8085 20.2583C65.0343 20.3684 65.9434 20.6715 66.5356 21.1673C67.1416 21.6494 67.4447 22.2898 67.4447 23.0887C67.4447 23.7361 67.2587 24.2939 66.8868 24.7622C66.515 25.2167 66.0191 25.561 65.3993 25.7952C64.7795 26.0293 64.1115 26.1464 63.3953 26.1464Z" fill="#2195F2"/>
<path d="M70.0864 25.8158V17.4278H68.4336V16.1469H70.0864V12.9445H71.4913V16.1469H73.7226V17.4278H71.4913V25.8158H70.0864Z" fill="#2195F2"/>
<path d="M80.0114 15.8163C80.342 15.8163 80.6587 15.8645 80.9618 15.9609V17.2419C80.6725 17.1041 80.3557 17.0353 80.0114 17.0353C79.4191 17.0353 78.8682 17.2005 78.3586 17.5311C77.849 17.8617 77.4358 18.3437 77.119 18.9773C76.8159 19.5971 76.6644 20.334 76.6644 21.188V25.8158H75.2595V16.1469H76.6644V18.0889C77.0363 17.3727 77.5046 16.8149 78.0693 16.4155C78.6478 16.016 79.2952 15.8163 80.0114 15.8163Z" fill="#2195F2"/>
<path d="M83.025 25.8158V16.1469H84.4299V25.8158H83.025ZM83.7275 14.2668C83.4107 14.2668 83.1421 14.1566 82.9217 13.9362C82.7151 13.7159 82.6118 13.4473 82.6118 13.1305C82.6118 12.8275 82.7151 12.5727 82.9217 12.3661C83.1421 12.1457 83.4107 12.0355 83.7275 12.0355C84.0305 12.0355 84.2922 12.1457 84.5126 12.3661C84.733 12.5727 84.8431 12.8344 84.8431 13.1511C84.8431 13.4542 84.733 13.7159 84.5126 13.9362C84.2922 14.1566 84.0305 14.2668 83.7275 14.2668Z" fill="#2195F2"/>
<path d="M95.3711 25.8158H93.7596L91.2391 21.7871L88.7185 25.8158H87.1484L90.2474 20.8574L87.3343 16.1469H88.9251L91.2597 19.9483L93.7183 16.1469H95.2678L92.2308 20.8367L95.3711 25.8158Z" fill="#2195F2"/>
<path d="M18.9756 22.5472C21.0764 22.5472 22.7794 20.856 22.7794 18.7697C22.7794 16.6834 21.0764 14.9922 18.9756 14.9922C16.8749 14.9922 15.1719 16.6834 15.1719 18.7697C15.1719 20.856 16.8749 22.5472 18.9756 22.5472Z" fill="#FFD833"/>
<path fill-rule="evenodd" clip-rule="evenodd" d="M21.5619 14.6253C20.7886 14.1472 19.896 13.8935 18.985 13.8929C18.3173 13.8924 17.6566 14.0281 17.0438 14.2913C11.1319 4.59239 19.4039 0 19.4039 0C19.4039 0 27.8589 4.69639 21.5619 14.6253ZM15.9573 14.9258C14.6908 12.8438 13.9444 10.8354 13.7182 8.90082C10.8345 6.80311 7.45516 6.50428 5.77066 6.50428C5.41459 6.50124 5.05861 6.51688 4.7042 6.55115C4.7042 6.55115 3.17163 15.7403 14.3082 17.2843C14.6079 16.352 15.1824 15.5304 15.9573 14.9258ZM14.0764 18.5079C14.069 18.5943 14.069 18.6807 14.069 18.7686C14.0687 19.5436 14.2548 20.3075 14.6118 20.9967C11.9479 22.6432 9.65712 23.2468 7.73956 23.2468C2.50758 23.2468 0 18.7862 0 18.7862C0 18.7862 2.63296 16.1465 6.55363 15.2852C8.37973 16.9859 10.8976 18.0684 14.0764 18.5079ZM15.3259 22.0225C12.8361 23.5708 10.4273 24.397 8.14395 24.4849C5.59654 27.9786 5.61719 32.1155 5.61719 32.1155C6.3581 32.2951 7.11877 32.3817 7.88139 32.3733C10.7976 32.3733 15.6991 31.1516 17.5208 23.4243C16.6756 23.1615 15.9174 22.6772 15.3259 22.0225ZM18.9816 23.6475H18.7559C18.0951 26.4981 16.9859 28.7745 15.4297 30.4372C16.1672 34.6135 19.0509 37.4539 19.0509 37.4539C19.0509 37.4539 27.379 32.8147 21.3431 23.0469C20.6196 23.4418 19.8072 23.6484 18.9816 23.6475Z" fill="url(#paint0_radial_3202_104400)"/>
<path d="M151.738 14.5803C150.371 14.5803 149.284 14.1695 148.48 13.3481C147.676 12.5225 147.273 11.3635 147.273 9.87106C147.273 8.43146 147.676 7.28466 148.48 6.43066C149.289 5.57259 150.377 5.14355 151.745 5.14355C152.108 5.14355 152.435 5.16389 152.725 5.20455C153.015 5.24522 153.292 5.30215 153.558 5.37535C153.766 5.43635 153.992 5.51972 154.237 5.62546C154.482 5.73119 154.68 5.82269 154.832 5.89996V8.06546H154.599C154.489 7.96786 154.35 7.85196 154.182 7.71776C154.015 7.57949 153.825 7.44529 153.613 7.31516C153.4 7.18502 153.166 7.07522 152.908 6.98576C152.655 6.89222 152.39 6.84546 152.112 6.84546C151.781 6.84546 151.477 6.89832 151.2 7.00406C150.926 7.10572 150.665 7.28466 150.416 7.54086C150.187 7.77266 149.999 8.08579 149.852 8.48026C149.709 8.87472 149.638 9.34036 149.638 9.87716C149.638 10.4424 149.713 10.9182 149.864 11.3046C150.015 11.6868 150.213 11.9959 150.458 12.2318C150.695 12.4595 150.959 12.6242 151.248 12.7259C151.542 12.8275 151.834 12.8784 152.124 12.8784C152.427 12.8784 152.714 12.8296 152.988 12.732C153.262 12.6303 153.492 12.5185 153.68 12.3965C153.884 12.2704 154.064 12.1423 154.219 12.0122C154.374 11.882 154.509 11.7661 154.623 11.6645H154.832V13.7995C154.664 13.8767 154.47 13.9662 154.25 14.0679C154.029 14.1655 153.803 14.2488 153.57 14.318C153.284 14.4034 153.017 14.4684 152.767 14.5132C152.518 14.5579 152.175 14.5803 151.738 14.5803Z" fill="white"/>
<path d="M163.504 11.4998C163.504 11.943 163.419 12.3517 163.247 12.7259C163.08 13.0959 162.849 13.3989 162.555 13.6348C162.204 13.9154 161.824 14.1146 161.416 14.2326C161.012 14.3464 160.518 14.4034 159.934 14.4034H156.185V5.32045H162.812V7.05286H158.464V8.73036H159.97C160.518 8.73036 161.008 8.77102 161.44 8.85236C161.873 8.92962 162.261 9.10246 162.604 9.37086C162.918 9.61486 163.147 9.92189 163.29 10.292C163.433 10.658 163.504 11.0606 163.504 11.4998ZM161.14 11.5669C161.14 11.4164 161.124 11.2741 161.091 11.1399C161.059 11.0057 160.987 10.8816 160.877 10.7678C160.767 10.658 160.616 10.5705 160.424 10.5055C160.232 10.4404 159.966 10.4079 159.627 10.4079H158.464V12.7198H159.627C160.097 12.7198 160.466 12.6201 160.736 12.4209C161.005 12.2216 161.14 11.9369 161.14 11.5669Z" fill="white"/>
<path d="M172.496 14.4034H170.205V7.05286H167.088V14.4034H164.797V5.32045H172.496V14.4034Z" fill="white"/>
<path d="M150.324 21.8611H149.408V18.9209H148.161V21.8611H147.244V18.228H150.324V21.8611Z" fill="white"/>
<path d="M151.081 21.8611V18.228H153.548V18.9209H151.993V19.5578H153.426V20.2507H151.993V21.1682H153.548V21.8611H151.081Z" fill="white"/>
<path d="M156.976 19.3748C156.976 19.544 156.949 19.705 156.895 19.8579C156.841 20.0108 156.763 20.1385 156.662 20.241C156.6 20.3044 156.531 20.363 156.456 20.4167C156.383 20.4703 156.301 20.5159 156.211 20.5533C156.122 20.5907 156.024 20.62 155.917 20.6411C155.813 20.6623 155.695 20.6729 155.565 20.6729H155.084V21.8611H154.168V18.228H155.584C155.795 18.228 155.976 18.2475 156.128 18.2865C156.282 18.324 156.42 18.3841 156.545 18.4671C156.682 18.5582 156.788 18.6802 156.863 18.8331C156.938 18.9844 156.976 19.1649 156.976 19.3748ZM156.035 19.3967C156.035 19.2943 156.01 19.2064 155.961 19.1332C155.912 19.0584 155.854 19.0072 155.785 18.9795C155.698 18.9421 155.615 18.9209 155.535 18.9161C155.457 18.9096 155.35 18.9063 155.214 18.9063H155.084V19.9945H155.148C155.235 19.9945 155.316 19.9937 155.393 19.9921C155.47 19.9905 155.537 19.9848 155.594 19.975C155.643 19.9669 155.694 19.9514 155.748 19.9287C155.804 19.9043 155.846 19.8774 155.876 19.8481C155.938 19.788 155.979 19.7253 156.001 19.6603C156.024 19.5952 156.035 19.5074 156.035 19.3967Z" fill="white"/>
<path d="M157.466 21.8611V18.228H159.933V18.9209H158.377V19.5578H159.81V20.2507H158.377V21.1682H159.933V21.8611H157.466Z" fill="white"/>
<path d="M163.471 20.7485C163.471 20.9291 163.436 21.0877 163.368 21.2243C163.299 21.3609 163.207 21.474 163.091 21.5635C162.954 21.6708 162.803 21.7473 162.638 21.7928C162.474 21.8384 162.266 21.8611 162.013 21.8611H160.553V18.228H161.841C162.109 18.228 162.312 18.2386 162.449 18.2597C162.588 18.2792 162.718 18.3215 162.838 18.3866C162.969 18.4565 163.066 18.5501 163.13 18.6672C163.195 18.7843 163.228 18.9193 163.228 19.0722C163.228 19.2495 163.183 19.4073 163.093 19.5456C163.005 19.6839 162.883 19.7855 162.726 19.8506V19.8701C162.951 19.9173 163.132 20.0141 163.267 20.1605C163.403 20.3052 163.471 20.5013 163.471 20.7485ZM162.297 19.2552C162.297 19.1967 162.282 19.1365 162.25 19.0747C162.221 19.0129 162.175 18.9681 162.111 18.9405C162.05 18.9144 161.979 18.9006 161.895 18.899C161.814 18.8957 161.691 18.8941 161.528 18.8941H161.464V19.6627H161.579C161.736 19.6627 161.845 19.6611 161.908 19.6578C161.971 19.6546 162.037 19.6375 162.103 19.6066C162.177 19.5724 162.228 19.5253 162.255 19.4651C162.283 19.4049 162.297 19.3349 162.297 19.2552ZM162.527 20.7314C162.527 20.6192 162.504 20.5313 162.459 20.4679C162.413 20.4045 162.344 20.3565 162.253 20.3239C162.197 20.3028 162.121 20.2914 162.023 20.2898C161.926 20.2865 161.796 20.2849 161.633 20.2849H161.464V21.195H161.513C161.752 21.195 161.916 21.1934 162.008 21.1901C162.099 21.1869 162.193 21.1649 162.287 21.1243C162.371 21.0885 162.431 21.0364 162.469 20.9681C162.508 20.8982 162.527 20.8193 162.527 20.7314Z" fill="white"/>
<path d="M167.319 20.0458C167.319 20.633 167.162 21.095 166.847 21.4317C166.531 21.7684 166.099 21.9368 165.551 21.9368C165 21.9368 164.568 21.7668 164.255 21.4268C163.941 21.0852 163.784 20.6249 163.784 20.0458C163.784 19.4618 163.941 19.0007 164.255 18.6623C164.568 18.3223 165 18.1523 165.551 18.1523C166.099 18.1523 166.531 18.3215 166.847 18.6599C167.162 18.9966 167.319 19.4586 167.319 20.0458ZM166.374 20.0433C166.374 19.827 166.351 19.6432 166.305 19.4919C166.261 19.339 166.201 19.2137 166.126 19.1161C166.048 19.0169 165.959 18.9462 165.859 18.9039C165.761 18.8599 165.659 18.838 165.553 18.838C165.44 18.838 165.338 18.8583 165.247 18.899C165.155 18.938 165.067 19.0088 164.982 19.1113C164.907 19.2056 164.846 19.3309 164.798 19.487C164.753 19.6432 164.73 19.8294 164.73 20.0458C164.73 20.2686 164.752 20.4541 164.796 20.6021C164.84 20.7485 164.901 20.8713 164.977 20.9705C165.056 21.0714 165.145 21.1438 165.244 21.1877C165.344 21.23 165.447 21.2511 165.553 21.2511C165.661 21.2511 165.765 21.2284 165.867 21.1828C165.968 21.1357 166.055 21.0633 166.129 20.9657C166.207 20.8599 166.268 20.7371 166.31 20.5972C166.353 20.4557 166.374 20.2711 166.374 20.0433Z" fill="white"/>
<path d="M171.235 22.6956H170.394V21.8489H168.356V22.6956H167.515V21.1657H167.76C167.932 20.8111 168.068 20.3801 168.167 19.8725C168.267 19.3634 168.317 18.8152 168.317 18.228H170.889V21.1657H171.235V22.6956ZM169.973 21.1657V18.9209H169.174C169.143 19.3601 169.082 19.7725 168.99 20.158C168.899 20.5419 168.784 20.8778 168.645 21.1657H169.973Z" fill="white"/>
<path d="M150.324 27.4589H149.408V24.5187H148.161V27.4589H147.244V23.8257H150.324V27.4589Z" fill="white"/>
<path d="M154.403 25.6435C154.403 26.2307 154.246 26.6927 153.93 27.0294C153.615 27.3662 153.183 27.5345 152.634 27.5345C152.084 27.5345 151.652 27.3645 151.338 27.0246C151.025 26.683 150.868 26.2226 150.868 25.6435C150.868 25.0595 151.025 24.5984 151.338 24.26C151.652 23.9201 152.084 23.7501 152.634 23.7501C153.183 23.7501 153.615 23.9193 153.93 24.2576C154.246 24.5943 154.403 25.0563 154.403 25.6435ZM153.458 25.6411C153.458 25.4247 153.435 25.2409 153.389 25.0896C153.345 24.9367 153.285 24.8115 153.21 24.7139C153.132 24.6147 153.043 24.5439 152.943 24.5016C152.845 24.4577 152.743 24.4357 152.637 24.4357C152.524 24.4357 152.422 24.4561 152.331 24.4967C152.239 24.5358 152.151 24.6065 152.066 24.709C151.991 24.8033 151.93 24.9286 151.882 25.0848C151.837 25.2409 151.814 25.4272 151.814 25.6435C151.814 25.8664 151.836 26.0518 151.88 26.1998C151.924 26.3462 151.984 26.4691 152.061 26.5683C152.14 26.6691 152.229 26.7415 152.328 26.7854C152.428 26.8277 152.531 26.8489 152.637 26.8489C152.745 26.8489 152.849 26.8261 152.95 26.7806C153.052 26.7334 153.139 26.661 153.213 26.5634C153.291 26.4577 153.351 26.3349 153.394 26.195C153.436 26.0534 153.458 25.8688 153.458 25.6411Z" fill="white"/>
<path d="M159.497 27.4589H158.58V25.8485H157.333V27.4589H156.417V23.8257H157.333V25.1555H158.58V23.8257H159.497V27.4589Z" fill="white"/>
<path d="M163.576 25.6435C163.576 26.2307 163.418 26.6927 163.103 27.0294C162.788 27.3662 162.356 27.5345 161.807 27.5345C161.257 27.5345 160.825 27.3645 160.511 27.0246C160.197 26.683 160.041 26.2226 160.041 25.6435C160.041 25.0595 160.197 24.5984 160.511 24.26C160.825 23.9201 161.257 23.7501 161.807 23.7501C162.356 23.7501 162.788 23.9193 163.103 24.2576C163.418 24.5943 163.576 25.0563 163.576 25.6435ZM162.63 25.6411C162.63 25.4247 162.607 25.2409 162.562 25.0896C162.518 24.9367 162.458 24.8115 162.383 24.7139C162.304 24.6147 162.215 24.5439 162.116 24.5016C162.018 24.4577 161.916 24.4357 161.81 24.4357C161.697 24.4357 161.595 24.4561 161.503 24.4967C161.412 24.5358 161.324 24.6065 161.239 24.709C161.164 24.8033 161.102 24.9286 161.055 25.0848C161.009 25.2409 160.986 25.4272 160.986 25.6435C160.986 25.8664 161.008 26.0518 161.052 26.1998C161.097 26.3462 161.157 26.4691 161.234 26.5683C161.312 26.6691 161.401 26.7415 161.501 26.7854C161.6 26.8277 161.703 26.8489 161.81 26.8489C161.917 26.8489 162.022 26.8261 162.123 26.7806C162.224 26.7334 162.312 26.661 162.385 26.5634C162.464 26.4577 162.524 26.3349 162.567 26.195C162.609 26.0534 162.63 25.8688 162.63 25.6411Z" fill="white"/>
<path d="M167.846 27.4589H166.935V25.0506L166.271 26.6049H165.646L164.982 25.0506V27.4589H164.12V23.8257H165.176L165.984 25.6191L166.79 23.8257H167.846V27.4589Z" fill="white"/>
<path d="M168.603 27.4589V23.8257H171.07V24.5187H169.515V25.1555H170.948V25.8485H169.515V26.7659H171.07V27.4589H168.603Z" fill="white"/>
<path d="M174.498 24.9725C174.498 25.1417 174.471 25.3027 174.417 25.4556C174.363 25.6085 174.286 25.7362 174.184 25.8387C174.122 25.9022 174.054 25.9607 173.978 26.0144C173.905 26.0681 173.823 26.1136 173.733 26.151C173.644 26.1885 173.546 26.2177 173.439 26.2389C173.335 26.26 173.217 26.2706 173.087 26.2706H172.606V27.4589H171.69V23.8257H173.106C173.317 23.8257 173.498 23.8452 173.65 23.8843C173.804 23.9217 173.943 23.9819 174.067 24.0648C174.204 24.1559 174.31 24.2779 174.385 24.4308C174.46 24.5821 174.498 24.7627 174.498 24.9725ZM173.557 24.9945C173.557 24.892 173.533 24.8042 173.484 24.731C173.435 24.6561 173.376 24.6049 173.307 24.5772C173.221 24.5398 173.137 24.5187 173.057 24.5138C172.979 24.5073 172.872 24.504 172.736 24.504H172.606V25.5923H172.67C172.757 25.5923 172.838 25.5915 172.915 25.5898C172.992 25.5882 173.059 25.5825 173.116 25.5728C173.165 25.5646 173.217 25.5492 173.27 25.5264C173.326 25.502 173.368 25.4752 173.398 25.4459C173.46 25.3857 173.502 25.3231 173.523 25.258C173.546 25.1929 173.557 25.1051 173.557 24.9945Z" fill="white"/>
<path d="M178.001 23.8257L176.784 26.7318C176.712 26.9009 176.631 27.0343 176.541 27.1319C176.453 27.2295 176.36 27.3035 176.262 27.354C176.164 27.4044 176.066 27.4386 175.968 27.4564C175.87 27.4727 175.767 27.4808 175.659 27.4808C175.546 27.4808 175.415 27.4784 175.265 27.4735C175.116 27.4686 175.016 27.4638 174.966 27.4589V26.6878H175.022C175.037 26.6911 175.06 26.6952 175.091 26.7C175.122 26.7049 175.161 26.7098 175.208 26.7147C175.248 26.7179 175.29 26.7212 175.336 26.7244C175.381 26.7277 175.423 26.7293 175.461 26.7293C175.57 26.7293 175.673 26.7163 175.769 26.6903C175.867 26.6626 175.933 26.6163 175.965 26.5512L174.615 23.8257H175.605L176.387 25.5288L177.048 23.8257H178.001Z" fill="white"/>
<path d="M147.945 33.0566V30.1164H146.867V29.4235H149.939V30.1164H148.861V33.0566H147.945Z" fill="white"/>
<path d="M150.317 33.0566V29.4235H152.784V30.1164H151.228V30.7533H152.661V31.4462H151.228V32.3637H152.784V33.0566H150.317Z" fill="white"/>
<path d="M156.545 33.0566H155.628V30.1164H154.707C154.701 30.258 154.694 30.3905 154.687 30.5142C154.683 30.6362 154.677 30.7525 154.67 30.8631C154.652 31.1803 154.623 31.4544 154.582 31.6854C154.541 31.9147 154.495 32.1026 154.442 32.249C154.385 32.4052 154.327 32.528 154.269 32.6174C154.21 32.7069 154.154 32.7777 154.102 32.8297C154.024 32.9078 153.926 32.9696 153.808 33.0152C153.69 33.0591 153.574 33.081 153.46 33.081C153.383 33.081 153.299 33.0778 153.208 33.0713C153.116 33.0648 153.058 33.0599 153.034 33.0566V32.2539H153.068C153.084 32.2555 153.1 32.2571 153.115 32.2588C153.131 32.2604 153.151 32.2612 153.176 32.2612C153.217 32.2612 153.269 32.2547 153.333 32.2417C153.396 32.2287 153.445 32.2067 153.477 32.1758C153.595 32.0652 153.675 31.8944 153.717 31.6634C153.761 31.4308 153.795 31.0957 153.818 30.6581C153.828 30.458 153.833 30.2783 153.835 30.1189C153.838 29.9595 153.845 29.7277 153.854 29.4235H156.545V33.0566Z" fill="white"/>
<path d="M157.299 33.0566V29.4235H159.766V30.1164H158.211V30.7533H159.644V31.4462H158.211V32.3637H159.766V33.0566H157.299Z" fill="white"/>
<path d="M164.269 31.212C164.269 31.6496 164.121 31.9961 163.823 32.2514C163.526 32.5052 163.14 32.6524 162.665 32.6931V33.0859H161.753V32.6931C161.278 32.6524 160.892 32.5068 160.594 32.2563C160.297 32.0042 160.148 31.6561 160.148 31.212C160.148 30.7695 160.293 30.4263 160.582 30.1823C160.871 29.9383 161.262 29.7952 161.753 29.7529V29.3869H162.665V29.7529C163.141 29.787 163.528 29.9277 163.823 30.175C164.121 30.4206 164.269 30.7663 164.269 31.212ZM163.328 31.1974C163.328 30.968 163.27 30.7809 163.152 30.6362C163.034 30.4898 162.872 30.3979 162.665 30.3604V32.088C162.905 32.0359 163.075 31.9375 163.177 31.7927C163.278 31.6463 163.328 31.4479 163.328 31.1974ZM161.753 32.088V30.3604C161.538 30.3995 161.373 30.4922 161.258 30.6386C161.146 30.7834 161.089 30.9696 161.089 31.1974C161.089 31.4446 161.142 31.6431 161.248 31.7927C161.355 31.9407 161.523 32.0392 161.753 32.088Z" fill="white"/>
<path d="M168.108 31.2413C168.108 31.8285 167.951 32.2905 167.636 32.6272C167.32 32.9639 166.888 33.1323 166.339 33.1323C165.789 33.1323 165.357 32.9623 165.043 32.6223C164.73 32.2807 164.573 31.8204 164.573 31.2413C164.573 30.6573 164.73 30.1961 165.043 29.8578C165.357 29.5178 165.789 29.3478 166.339 29.3478C166.888 29.3478 167.32 29.517 167.636 29.8554C167.951 30.1921 168.108 30.6541 168.108 31.2413ZM167.163 31.2388C167.163 31.0225 167.14 30.8387 167.094 30.6874C167.05 30.5345 166.99 30.4092 166.915 30.3116C166.837 30.2124 166.748 30.1417 166.648 30.0994C166.55 30.0554 166.448 30.0335 166.342 30.0335C166.229 30.0335 166.127 30.0538 166.036 30.0945C165.944 30.1335 165.856 30.2043 165.771 30.3068C165.696 30.4011 165.635 30.5264 165.587 30.6825C165.542 30.8387 165.519 31.0249 165.519 31.2413C165.519 31.4641 165.541 31.6496 165.585 31.7976C165.629 31.944 165.689 32.0668 165.766 32.166C165.845 32.2669 165.934 32.3393 166.033 32.3832C166.133 32.4255 166.236 32.4466 166.342 32.4466C166.45 32.4466 166.554 32.4239 166.656 32.3783C166.757 32.3311 166.844 32.2588 166.918 32.1612C166.996 32.0554 167.057 31.9326 167.099 31.7927C167.141 31.6512 167.163 31.4666 167.163 31.2388Z" fill="white"/>
<path d="M171.732 33.0566H170.816V31.4462H169.569V33.0566H168.652V29.4235H169.569V30.7533H170.816V29.4235H171.732V33.0566Z" fill="white"/>
<path d="M172.097 33.0566L173.329 29.4235H174.329L175.561 33.0566H174.618L174.39 32.3149H173.243L173.016 33.0566H172.097ZM174.189 31.6561L173.817 30.458L173.444 31.6561H174.189Z" fill="white"/>
<path fill-rule="evenodd" clip-rule="evenodd" d="M126.203 38.4028L144.392 27.8462L135.509 27.6602L131.158 30.2513L126.203 38.4028Z" fill="#027E35"/>
<path fill-rule="evenodd" clip-rule="evenodd" d="M113.531 8.19434L144.397 27.8473L135.514 27.6612L118.008 16.5414L113.531 8.19434Z" fill="#2683C9"/>
<path fill-rule="evenodd" clip-rule="evenodd" d="M113.527 8.19446L113.164 29.567L117.92 21.5238L118.004 16.5415L113.527 8.19446Z" fill="#5A58A3"/>
<path fill-rule="evenodd" clip-rule="evenodd" d="M126.513 21.9493L113.164 29.5695L117.92 21.5263L122.114 19.1553L126.513 21.9493Z" fill="#964A95"/>
<path fill-rule="evenodd" clip-rule="evenodd" d="M126.203 38.4034L126.512 21.9463L131.251 24.9565L131.158 30.2519L126.203 38.4034Z" fill="#62B22F"/>
<path fill-rule="evenodd" clip-rule="evenodd" d="M126.969 0L144.738 11.4348L135.772 11.2425L131.547 8.65136L126.969 0Z" fill="#EE7024"/>
<path fill-rule="evenodd" clip-rule="evenodd" d="M126.973 0L126.617 16.5291L131.202 19.4482L131.551 8.65136L126.973 0Z" fill="#FAB51A"/>
<path fill-rule="evenodd" clip-rule="evenodd" d="M131.203 19.4478L144.743 11.4345L135.778 11.2422L131.434 13.8204L131.203 19.4478Z" fill="#DB0954"/>
<defs>
<radialGradient id="paint0_radial_3202_104400" cx="0" cy="0" r="1" gradientUnits="userSpaceOnUse" gradientTransform="translate(19.1541 18.727) rotate(-180) scale(11.4976 11.4955)">
<stop stop-color="#FFDE51"/>
<stop offset="1" stop-color="#FE4080"/>
</radialGradient>
</defs>
</svg>
