<svg width="180" height="45" viewBox="0 0 180 45" fill="none" xmlns="http://www.w3.org/2000/svg">
<path fill-rule="evenodd" clip-rule="evenodd" d="M174.984 8.7793C176.049 10.1538 176.938 11.6611 177.693 13.2572L157.177 28.3751L148.562 22.9663V16.4936L157.133 21.8583L174.984 8.77957V8.7793Z" fill="#21A038"/>
<path fill-rule="evenodd" clip-rule="evenodd" d="M139.813 22.5228C139.813 22.2125 139.813 21.9468 139.857 21.6361L134.662 21.3701C134.662 21.7247 134.617 22.1239 134.617 22.4784C134.617 28.6849 137.148 34.3158 141.234 38.3943L144.919 34.7145C141.766 31.6111 139.813 27.3106 139.813 22.5226V22.5228Z" fill="url(#paint0_linear_3202_104377)"/>
<path fill-rule="evenodd" clip-rule="evenodd" d="M157.131 5.23388C157.442 5.23388 157.708 5.23388 158.019 5.2783L158.286 0.091294C157.931 0.091294 157.531 0.046875 157.176 0.046875C150.959 0.046875 145.32 2.57416 141.234 6.65258L144.92 10.3323C148.028 7.18453 152.38 5.23388 157.131 5.23388H157.131Z" fill="url(#paint1_linear_3202_104377)"/>
<path fill-rule="evenodd" clip-rule="evenodd" d="M157.139 39.8133C156.828 39.8133 156.562 39.8133 156.251 39.7689L155.984 44.9561C156.34 44.9561 156.739 45.0003 157.094 45.0003C163.311 45.0003 168.951 42.4733 173.036 38.3946L169.35 34.7148C166.242 37.9068 161.935 39.8133 157.138 39.8133H157.139Z" fill="url(#paint2_linear_3202_104377)"/>
<path fill-rule="evenodd" clip-rule="evenodd" d="M166.894 8.24623L171.291 5.00987C167.427 1.9065 162.498 0 157.125 0V5.18728C160.767 5.23142 164.141 6.33973 166.894 8.24623Z" fill="url(#paint3_linear_3202_104377)"/>
<path fill-rule="evenodd" clip-rule="evenodd" d="M179.697 22.5206C179.697 21.1463 179.564 19.8165 179.342 18.4863L174.502 22.0775C174.502 22.2105 174.502 22.3879 174.502 22.5209C174.502 27.6193 172.282 32.1858 168.773 35.3336L172.281 39.1907C176.811 35.112 179.697 29.1269 179.697 22.5209L179.697 22.5206Z" fill="#21A038"/>
<path fill-rule="evenodd" clip-rule="evenodd" d="M157.134 39.8127C152.027 39.8127 147.453 37.5961 144.301 34.0938L140.438 37.5961C144.567 42.1626 150.518 45 157.134 45V39.8127Z" fill="url(#paint4_linear_3202_104377)"/>
<path fill-rule="evenodd" clip-rule="evenodd" d="M145.541 9.7098L142.033 5.85266C137.459 9.97578 134.617 15.9166 134.617 22.5223H139.813C139.813 17.4682 142.033 12.8576 145.541 9.7098H145.541Z" fill="url(#paint5_linear_3202_104377)"/>
<path d="M38.6641 14.0908H44.325C45.8478 14.0908 47.0644 14.5543 47.9747 15.4812C48.8851 16.4081 49.3403 17.6909 49.3403 19.3296C49.3403 20.9518 48.8603 22.2263 47.9003 23.1532C46.9568 24.0801 45.6988 24.5436 44.1263 24.5436H40.5262V31.0238H38.6641V14.0908ZM44.0767 23.0042C45.1857 23.0042 46.0298 22.698 46.6092 22.0856C47.1885 21.4566 47.4782 20.5379 47.4782 19.3296C47.4782 18.1213 47.1885 17.2027 46.6092 16.5737C46.0298 15.9447 45.1857 15.6302 44.0767 15.6302H40.5262V23.0042H44.0767Z" fill="#2195F2"/>
<path d="M52.4477 31.0238V19.4041H54.1361V31.0238H52.4477ZM53.2919 17.1447C52.9112 17.1447 52.5884 17.0123 52.3236 16.7475C52.0753 16.4826 51.9512 16.1599 51.9512 15.7792C51.9512 15.415 52.0753 15.1088 52.3236 14.8605C52.5884 14.5957 52.9112 14.4632 53.2919 14.4632C53.6561 14.4632 53.9706 14.5957 54.2354 14.8605C54.5002 15.1088 54.6327 15.4233 54.6327 15.804C54.6327 16.1681 54.5002 16.4826 54.2354 16.7475C53.9706 17.0123 53.6561 17.1447 53.2919 17.1447Z" fill="#2195F2"/>
<path d="M68.973 19.4041V31.0238H67.2847V29.3107C66.8047 29.9728 66.2171 30.4942 65.5219 30.8749C64.8267 31.239 64.0653 31.4211 63.2377 31.4211C62.1287 31.4211 61.1355 31.1563 60.2582 30.6266C59.381 30.0969 58.694 29.3603 58.1975 28.4169C57.7009 27.4734 57.4526 26.3975 57.4526 25.1892C57.4526 23.9974 57.6926 22.938 58.1727 22.0111C58.6692 21.0676 59.3479 20.331 60.2086 19.8014C61.0859 19.2717 62.079 19.0069 63.188 19.0069C64.0322 19.0069 64.8019 19.1972 65.4971 19.5779C66.2088 19.9421 66.8047 20.4635 67.2847 21.1421V19.4041H68.973ZM63.188 29.8817C63.9825 29.8817 64.686 29.6831 65.2984 29.2858C65.9274 28.8886 66.4157 28.3341 66.7633 27.6223C67.1109 26.9106 67.2847 26.1078 67.2847 25.214C67.2847 24.3202 67.1109 23.5174 66.7633 22.8056C66.4157 22.0939 65.9274 21.5394 65.2984 21.1421C64.686 20.7449 63.9825 20.5462 63.188 20.5462C62.41 20.5462 61.7148 20.7449 61.1024 21.1421C60.49 21.5394 60.01 22.0939 59.6624 22.8056C59.3148 23.5008 59.141 24.2953 59.141 25.1892C59.141 26.0995 59.3148 26.9106 59.6624 27.6223C60.01 28.3341 60.49 28.8886 61.1024 29.2858C61.7148 29.6831 62.41 29.8817 63.188 29.8817Z" fill="#2195F2"/>
<path d="M76.1869 31.4211C75.0613 31.4211 74.0682 31.1811 73.2075 30.7011C72.3633 30.2211 71.7178 29.5424 71.2708 28.6651L72.7854 27.9203C73.3978 29.2279 74.5979 29.8817 76.3855 29.8817C77.2462 29.8817 77.958 29.7245 78.5208 29.41C79.0835 29.0955 79.3649 28.6072 79.3649 27.9451C79.3649 27.2665 79.1332 26.7616 78.6697 26.4306C78.2228 26.0995 77.4283 25.8843 76.2862 25.785C74.6972 25.6526 73.5551 25.2967 72.8599 24.7174C72.1812 24.1381 71.8419 23.3684 71.8419 22.4084C71.8419 21.3325 72.2309 20.4966 73.0088 19.9007C73.7868 19.3048 74.8544 19.0069 76.2117 19.0069C78.5125 19.0069 80.0767 19.9172 80.9043 21.738L79.3898 22.4828C79.1084 21.8208 78.6946 21.3325 78.1483 21.018C77.6187 20.7035 76.9317 20.5462 76.0876 20.5462C75.2268 20.5462 74.5648 20.7035 74.1013 21.018C73.6544 21.3325 73.4309 21.7794 73.4309 22.3587C73.4309 22.9049 73.6709 23.3518 74.1509 23.6994C74.6475 24.0305 75.4917 24.2457 76.6834 24.345C78.1566 24.4774 79.2491 24.8416 79.9608 25.4374C80.6891 26.0168 81.0533 26.7865 81.0533 27.7465C81.0533 28.5244 80.8298 29.1948 80.3829 29.7576C79.936 30.3038 79.3401 30.7176 78.5952 30.999C77.8504 31.2804 77.0476 31.4211 76.1869 31.4211Z" fill="#2195F2"/>
<path d="M84.228 31.0238V20.9435H82.2417V19.4041H84.228V15.5557H85.9163V19.4041H88.5978V20.9435H85.9163V31.0238H84.228Z" fill="#2195F2"/>
<path d="M96.1554 19.0069C96.5526 19.0069 96.9333 19.0648 97.2975 19.1807V20.72C96.9499 20.5545 96.5692 20.4717 96.1554 20.4717C95.4436 20.4717 94.7815 20.6704 94.1691 21.0676C93.5567 21.4649 93.0601 22.0442 92.6794 22.8056C92.3152 23.5505 92.1332 24.436 92.1332 25.4623V31.0238H90.4448V19.4041H92.1332V21.738C92.5801 20.8773 93.1429 20.2069 93.8215 19.7269C94.5167 19.2469 95.2947 19.0069 96.1554 19.0069Z" fill="#2195F2"/>
<path d="M99.777 31.0238V19.4041H101.465V31.0238H99.777ZM100.621 17.1447C100.241 17.1447 99.9177 17.0123 99.6529 16.7475C99.4046 16.4826 99.2805 16.1599 99.2805 15.7792C99.2805 15.415 99.4046 15.1088 99.6529 14.8605C99.9177 14.5957 100.241 14.4632 100.621 14.4632C100.985 14.4632 101.3 14.5957 101.565 14.8605C101.83 15.1088 101.962 15.4233 101.962 15.804C101.962 16.1681 101.83 16.4826 101.565 16.7475C101.3 17.0123 100.985 17.1447 100.621 17.1447Z" fill="#2195F2"/>
<path d="M114.614 31.0238H112.677L109.648 26.1823L106.619 31.0238H104.732L108.457 25.065L104.956 19.4041H106.868L109.673 23.9726L112.628 19.4041H114.49L110.84 25.0402L114.614 31.0238Z" fill="#2195F2"/>
<path d="M22.8055 27.0959C25.3301 27.0959 27.3767 25.0634 27.3767 22.5562C27.3767 20.0491 25.3301 18.0166 22.8055 18.0166C20.281 18.0166 18.2344 20.0491 18.2344 22.5562C18.2344 25.0634 20.281 27.0959 22.8055 27.0959Z" fill="#FFD833"/>
<path fill-rule="evenodd" clip-rule="evenodd" d="M25.9109 17.576C24.9816 17.0015 23.9089 16.6966 22.8141 16.6958C22.0117 16.6953 21.2178 16.8583 20.4813 17.1747C13.3766 5.51892 23.3176 0 23.3176 0C23.3176 0 33.4784 5.64391 25.9109 17.576ZM19.1796 17.9375C17.6575 15.4354 16.7605 13.0218 16.4887 10.6969C13.0232 8.17598 8.96208 7.81685 6.93773 7.81685C6.50982 7.8132 6.08202 7.832 5.65611 7.87319C5.65611 7.87319 3.81433 18.9163 17.1978 20.7718C17.5579 19.6514 18.2483 18.664 19.1796 17.9375ZM16.9163 22.2418C16.9075 22.3457 16.9075 22.4496 16.9075 22.5552C16.9072 23.4866 17.1308 24.4046 17.5598 25.2328C14.3584 27.2115 11.6055 27.9368 9.30105 27.9368C3.01349 27.9368 0 22.5763 0 22.5763C0 22.5763 3.16417 19.404 7.87585 18.3689C10.0704 20.4128 13.0963 21.7137 16.9163 22.2418ZM18.4175 26.4648C15.4253 28.3256 12.5306 29.3185 9.78654 29.4241C6.72519 33.6227 6.75001 38.5941 6.75001 38.5941C7.6404 38.81 8.55453 38.9141 9.47101 38.904C12.9755 38.904 18.866 37.4358 21.0552 28.1496C20.0395 27.8337 19.1283 27.2517 18.4175 26.4648ZM22.8076 28.4181H22.5364C21.7422 31.8438 20.4092 34.5795 18.5391 36.5776C19.4254 41.5966 22.8909 45.01 22.8909 45.01C22.8909 45.01 32.8992 39.4348 25.6456 27.6963C24.7761 28.1709 23.7998 28.4192 22.8076 28.4181Z" fill="url(#paint6_radial_3202_104377)"/>
<defs>
<linearGradient id="paint0_linear_3202_104377" x1="140.696" y1="38.4184" x2="138.612" y2="22.002" gradientUnits="userSpaceOnUse">
<stop stop-color="#F2E913"/>
<stop offset="0.14902" stop-color="#F2E913"/>
<stop offset="0.301961" stop-color="#E7E518"/>
<stop offset="0.580392" stop-color="#CADB26"/>
<stop offset="0.890196" stop-color="#A3CD39"/>
<stop offset="1" stop-color="#A3CD39"/>
</linearGradient>
<linearGradient id="paint1_linear_3202_104377" x1="142.714" y1="6.35709" x2="157.367" y2="4.32871" gradientUnits="userSpaceOnUse">
<stop stop-color="#0FA8E0"/>
<stop offset="0.0588235" stop-color="#0FA8E0"/>
<stop offset="0.541176" stop-color="#0099F9"/>
<stop offset="0.921569" stop-color="#0291EB"/>
<stop offset="1" stop-color="#0291EB"/>
</linearGradient>
<linearGradient id="paint2_linear_3202_104377" x1="155.681" y1="40.5004" x2="172.248" y2="39.1397" gradientUnits="userSpaceOnUse">
<stop stop-color="#A3CD39"/>
<stop offset="0.121569" stop-color="#A3CD39"/>
<stop offset="0.290196" stop-color="#86C339"/>
<stop offset="0.870588" stop-color="#21A038"/>
<stop offset="1" stop-color="#21A038"/>
</linearGradient>
<linearGradient id="paint3_linear_3202_104377" x1="156.058" y1="3.44843" x2="170.224" y2="4.92807" gradientUnits="userSpaceOnUse">
<stop stop-color="#0291EB"/>
<stop offset="0.0509804" stop-color="#0291EB"/>
<stop offset="0.788235" stop-color="#0C8ACB"/>
<stop offset="1" stop-color="#0C8ACB"/>
</linearGradient>
<linearGradient id="paint4_linear_3202_104377" x1="141.758" y1="38.2009" x2="157.177" y2="40.6558" gradientUnits="userSpaceOnUse">
<stop stop-color="#F2E913"/>
<stop offset="0.129412" stop-color="#F2E913"/>
<stop offset="0.301961" stop-color="#EBE716"/>
<stop offset="0.529412" stop-color="#D9E01F"/>
<stop offset="0.8" stop-color="#BBD62D"/>
<stop offset="0.980392" stop-color="#A3CD39"/>
<stop offset="1" stop-color="#A3CD39"/>
</linearGradient>
<linearGradient id="paint5_linear_3202_104377" x1="138.569" y1="21.3037" x2="141.228" y2="5.22754" gradientUnits="userSpaceOnUse">
<stop stop-color="#A3CD39"/>
<stop offset="0.0705882" stop-color="#A3CD39"/>
<stop offset="0.258824" stop-color="#81C55F"/>
<stop offset="0.921569" stop-color="#0FA8E0"/>
<stop offset="1" stop-color="#0FA8E0"/>
</linearGradient>
<radialGradient id="paint6_radial_3202_104377" cx="0" cy="0" r="1" gradientUnits="userSpaceOnUse" gradientTransform="translate(23.0176 22.505) rotate(-180) scale(13.8167 13.8147)">
<stop stop-color="#FFDE51"/>
<stop offset="1" stop-color="#FE4080"/>
</radialGradient>
</defs>
</svg>
