<svg width="159" height="50" viewBox="0 0 159 50" fill="none" xmlns="http://www.w3.org/2000/svg">
<path d="M127.358 19.6687C125.714 19.6687 124.409 19.1751 123.442 18.1879C122.476 17.1958 121.992 15.803 121.992 14.0094C121.992 12.2794 122.476 10.9012 123.442 9.8749C124.414 8.84372 125.722 8.32812 127.365 8.32812C127.802 8.32812 128.195 8.35256 128.543 8.40143C128.892 8.4503 129.225 8.51872 129.544 8.60669C129.794 8.68 130.067 8.78019 130.361 8.90725C130.656 9.03432 130.894 9.14428 131.075 9.23713V11.8395H130.795C130.663 11.7222 130.496 11.583 130.295 11.4217C130.094 11.2555 129.866 11.0942 129.61 10.9379C129.355 10.7815 129.073 10.6495 128.764 10.542C128.46 10.4296 128.141 10.3734 127.807 10.3734C127.41 10.3734 127.044 10.4369 126.71 10.564C126.382 10.6862 126.068 10.9012 125.768 11.2091C125.493 11.4877 125.268 11.864 125.091 12.338C124.919 12.8121 124.833 13.3716 124.833 14.0168C124.833 14.6961 124.924 15.2679 125.106 15.7321C125.287 16.1915 125.525 16.5629 125.82 16.8464C126.104 17.1201 126.421 17.318 126.769 17.4402C127.123 17.5624 127.473 17.6235 127.822 17.6235C128.185 17.6235 128.531 17.5648 128.86 17.4475C129.188 17.3253 129.466 17.1909 129.691 17.0443C129.937 16.8928 130.153 16.7389 130.339 16.5825C130.526 16.4261 130.688 16.2868 130.825 16.1646H131.075V18.7304C130.874 18.8232 130.641 18.9308 130.376 19.0529C130.111 19.1702 129.839 19.2704 129.559 19.3535C129.215 19.4561 128.894 19.5343 128.595 19.5881C128.295 19.6418 127.883 19.6687 127.358 19.6687Z" fill="white"/>
<path d="M141.498 15.9667C141.498 16.4994 141.395 16.9906 141.189 17.4402C140.988 17.8849 140.71 18.249 140.357 18.5325C139.935 18.8697 139.479 19.1091 138.988 19.2509C138.502 19.3877 137.908 19.4561 137.207 19.4561H132.702V8.54072H140.666V10.6226H135.44V12.6386H137.251C137.908 12.6386 138.497 12.6875 139.017 12.7852C139.537 12.878 140.004 13.0858 140.416 13.4083C140.794 13.7015 141.068 14.0705 141.24 14.5152C141.412 14.9551 141.498 15.4389 141.498 15.9667ZM138.657 16.0474C138.657 15.8665 138.637 15.6955 138.598 15.5342C138.559 15.3729 138.473 15.2239 138.34 15.087C138.208 14.9551 138.026 14.85 137.795 14.7718C137.565 14.6936 137.246 14.6545 136.839 14.6545H135.44V17.4329H136.839C137.403 17.4329 137.847 17.3131 138.171 17.0737C138.495 16.8342 138.657 16.4921 138.657 16.0474Z" fill="white"/>
<path d="M152.303 19.4561H149.55V10.6226H145.804V19.4561H143.051V8.54072H152.303V19.4561Z" fill="white"/>
<path d="M125.654 28.418H124.553V24.8846H123.055V28.418H121.953V24.0518H125.654V28.418Z" fill="white"/>
<path d="M126.564 28.418V24.0518H129.529V24.8846H127.659V25.6499H129.382V26.4827H127.659V27.5852H129.529V28.418H126.564Z" fill="white"/>
<path d="M133.648 25.43C133.648 25.6333 133.616 25.8268 133.551 26.0106C133.486 26.1944 133.393 26.3478 133.271 26.471C133.197 26.5472 133.114 26.6176 133.024 26.6821C132.935 26.7466 132.837 26.8013 132.729 26.8463C132.621 26.8913 132.504 26.9265 132.376 26.9519C132.25 26.9773 132.109 26.99 131.952 26.99H131.375V28.418H130.274V24.0518H131.976C132.229 24.0518 132.447 24.0753 132.629 24.1222C132.814 24.1672 132.981 24.2395 133.13 24.3392C133.295 24.4487 133.422 24.5953 133.513 24.779C133.603 24.9608 133.648 25.1778 133.648 25.43ZM132.517 25.4564C132.517 25.3332 132.488 25.2277 132.429 25.1397C132.37 25.0498 132.3 24.9882 132.217 24.955C132.113 24.91 132.013 24.8846 131.917 24.8787C131.823 24.8709 131.694 24.867 131.531 24.867H131.375V26.1748H131.452C131.556 26.1748 131.654 26.1738 131.746 26.1719C131.838 26.1699 131.919 26.1631 131.987 26.1514C132.046 26.1416 132.108 26.123 132.173 26.0956C132.24 26.0663 132.291 26.0341 132.326 25.9989C132.401 25.9265 132.451 25.8513 132.476 25.7731C132.504 25.6949 132.517 25.5893 132.517 25.4564Z" fill="white"/>
<path d="M134.237 28.418V24.0518H137.202V24.8846H135.332V25.6499H137.054V26.4827H135.332V27.5852H137.202V28.418H134.237Z" fill="white"/>
<path d="M141.453 27.0809C141.453 27.2979 141.412 27.4885 141.33 27.6527C141.247 27.8169 141.136 27.9528 140.997 28.0603C140.832 28.1893 140.65 28.2812 140.452 28.3359C140.256 28.3906 140.006 28.418 139.701 28.418H137.947V24.0518H139.495C139.817 24.0518 140.061 24.0645 140.225 24.09C140.392 24.1134 140.548 24.1642 140.694 24.2424C140.851 24.3265 140.967 24.4389 141.044 24.5796C141.122 24.7204 141.162 24.8827 141.162 25.0664C141.162 25.2795 141.108 25.4691 141 25.6353C140.894 25.8014 140.747 25.9236 140.558 26.0018V26.0253C140.829 26.082 141.046 26.1983 141.209 26.3742C141.372 26.5482 141.453 26.7837 141.453 27.0809ZM140.043 25.2863C140.043 25.216 140.024 25.1436 139.987 25.0693C139.952 24.9951 139.896 24.9413 139.819 24.9081C139.747 24.8768 139.66 24.8602 139.56 24.8582C139.462 24.8543 139.315 24.8524 139.118 24.8524H139.042V25.776H139.18C139.369 25.776 139.5 25.7741 139.575 25.7702C139.651 25.7662 139.73 25.7457 139.81 25.7086C139.899 25.6675 139.959 25.6108 139.993 25.5385C140.026 25.4662 140.043 25.3821 140.043 25.2863ZM140.32 27.0604C140.32 26.9255 140.292 26.8199 140.237 26.7437C140.182 26.6674 140.1 26.6098 139.99 26.5707C139.923 26.5453 139.831 26.5316 139.713 26.5296C139.597 26.5257 139.441 26.5238 139.245 26.5238H139.042V27.6175H139.101C139.387 27.6175 139.586 27.6155 139.695 27.6116C139.805 27.6077 139.917 27.5813 140.031 27.5325C140.131 27.4895 140.204 27.4269 140.249 27.3448C140.296 27.2607 140.32 27.1659 140.32 27.0604Z" fill="white"/>
<path d="M146.079 26.2364C146.079 26.9421 145.889 27.4973 145.51 27.9019C145.132 28.3066 144.612 28.5089 143.953 28.5089C143.291 28.5089 142.772 28.3046 142.395 27.8961C142.018 27.4855 141.83 26.9323 141.83 26.2364C141.83 25.5346 142.018 24.9804 142.395 24.5738C142.772 24.1652 143.291 23.9609 143.953 23.9609C144.612 23.9609 145.132 24.1642 145.51 24.5709C145.889 24.9755 146.079 25.5307 146.079 26.2364ZM144.942 26.2335C144.942 25.9735 144.915 25.7526 144.86 25.5708C144.807 25.387 144.735 25.2365 144.645 25.1192C144.551 24.9999 144.444 24.9149 144.324 24.8641C144.206 24.8113 144.083 24.7849 143.956 24.7849C143.82 24.7849 143.698 24.8093 143.588 24.8582C143.478 24.9051 143.372 24.9902 143.27 25.1133C143.179 25.2267 143.106 25.3772 143.049 25.5649C142.994 25.7526 142.967 25.9764 142.967 26.2364C142.967 26.5042 142.993 26.7271 143.046 26.9049C143.099 27.0809 143.172 27.2285 143.264 27.3477C143.358 27.4689 143.465 27.5559 143.585 27.6087C143.705 27.6595 143.828 27.6849 143.956 27.6849C144.085 27.6849 144.211 27.6576 144.333 27.6028C144.454 27.5461 144.559 27.4592 144.648 27.3419C144.742 27.2148 144.815 27.0672 144.866 26.8991C144.917 26.729 144.942 26.5071 144.942 26.2335Z" fill="white"/>
<path d="M150.784 29.4208H149.774V28.4033H147.324V29.4208H146.314V27.5823H146.609C146.815 27.1561 146.978 26.6381 147.097 26.0282C147.217 25.4163 147.277 24.7575 147.277 24.0518H150.368V27.5823H150.784V29.4208ZM149.267 27.5823V24.8846H148.307C148.27 25.4124 148.197 25.908 148.087 26.3713C147.977 26.8326 147.838 27.2363 147.671 27.5823H149.267Z" fill="white"/>
<path d="M125.654 35.1451H124.553V31.6117H123.055V35.1451H121.953V30.7789H125.654V35.1451Z" fill="white"/>
<path d="M130.557 32.9635C130.557 33.6692 130.367 34.2244 129.988 34.629C129.609 35.0337 129.09 35.236 128.431 35.236C127.769 35.236 127.25 35.0317 126.873 34.6232C126.496 34.2126 126.308 33.6594 126.308 32.9635C126.308 32.2617 126.496 31.7075 126.873 31.3009C127.25 30.8923 127.769 30.688 128.431 30.688C129.09 30.688 129.609 30.8913 129.988 31.298C130.367 31.7026 130.557 32.2578 130.557 32.9635ZM129.42 32.9606C129.42 32.7006 129.393 32.4797 129.338 32.2979C129.285 32.1141 129.213 31.9636 129.123 31.8463C129.028 31.727 128.921 31.642 128.802 31.5912C128.684 31.5384 128.561 31.512 128.434 31.512C128.298 31.512 128.176 31.5364 128.066 31.5853C127.956 31.6322 127.85 31.7173 127.748 31.8404C127.657 31.9538 127.584 32.1043 127.527 32.292C127.472 32.4797 127.444 32.7035 127.444 32.9635C127.444 33.2313 127.471 33.4542 127.524 33.632C127.577 33.808 127.65 33.9556 127.742 34.0748C127.836 34.196 127.943 34.283 128.063 34.3358C128.182 34.3866 128.306 34.412 128.434 34.412C128.563 34.412 128.689 34.3847 128.811 34.3299C128.932 34.2732 129.037 34.1863 129.126 34.069C129.22 33.9419 129.292 33.7943 129.343 33.6262C129.395 33.4561 129.42 33.2342 129.42 32.9606Z" fill="white"/>
<path d="M136.678 35.1451H135.576V33.2098H134.078V35.1451H132.977V30.7789H134.078V32.377H135.576V30.7789H136.678V35.1451Z" fill="white"/>
<path d="M141.58 32.9635C141.58 33.6692 141.39 34.2244 141.012 34.629C140.633 35.0337 140.114 35.236 139.454 35.236C138.793 35.236 138.273 35.0317 137.897 34.6232C137.52 34.2126 137.331 33.6594 137.331 32.9635C137.331 32.2617 137.52 31.7075 137.897 31.3009C138.273 30.8923 138.793 30.688 139.454 30.688C140.114 30.688 140.633 30.8913 141.012 31.298C141.39 31.7026 141.58 32.2578 141.58 32.9635ZM140.443 32.9606C140.443 32.7006 140.416 32.4797 140.361 32.2979C140.308 32.1141 140.236 31.9636 140.146 31.8463C140.052 31.727 139.945 31.642 139.825 31.5912C139.707 31.5384 139.585 31.512 139.457 31.512C139.322 31.512 139.199 31.5364 139.089 31.5853C138.979 31.6322 138.873 31.7173 138.771 31.8404C138.681 31.9538 138.607 32.1043 138.55 32.292C138.495 32.4797 138.468 32.7035 138.468 32.9635C138.468 33.2313 138.494 33.4542 138.547 33.632C138.6 33.808 138.673 33.9556 138.765 34.0748C138.859 34.196 138.966 34.283 139.086 34.3358C139.206 34.3866 139.329 34.412 139.457 34.412C139.587 34.412 139.712 34.3847 139.834 34.3299C139.956 34.2732 140.061 34.1863 140.149 34.069C140.243 33.9419 140.316 33.7943 140.367 33.6262C140.418 33.4561 140.443 33.2342 140.443 32.9606Z" fill="white"/>
<path d="M146.712 35.1451H145.616V32.2509L144.818 34.1188H144.068L143.27 32.2509V35.1451H142.233V30.7789H143.502L144.474 32.9342L145.443 30.7789H146.712V35.1451Z" fill="white"/>
<path d="M147.621 35.1451V30.7789H150.586V31.6117H148.717V32.377H150.439V33.2098H148.717V34.3123H150.586V35.1451H147.621Z" fill="white"/>
<path d="M154.705 32.1571C154.705 32.3604 154.673 32.5539 154.608 32.7377C154.543 32.9215 154.45 33.0749 154.328 33.1981C154.254 33.2743 154.171 33.3447 154.081 33.4092C153.993 33.4737 153.895 33.5284 153.787 33.5734C153.679 33.6184 153.561 33.6536 153.433 33.679C153.308 33.7044 153.166 33.7171 153.009 33.7171H152.432V35.1451H151.331V30.7789H153.033C153.286 30.7789 153.504 30.8024 153.687 30.8493C153.871 30.8943 154.038 30.9666 154.187 31.0663C154.352 31.1758 154.48 31.3224 154.57 31.5061C154.66 31.6879 154.705 31.9049 154.705 32.1571ZM153.575 32.1835C153.575 32.0603 153.545 31.9548 153.486 31.8668C153.427 31.7769 153.357 31.7153 153.274 31.6821C153.17 31.6371 153.07 31.6117 152.974 31.6058C152.88 31.598 152.751 31.5941 152.588 31.5941H152.432V32.9019H152.509C152.613 32.9019 152.711 32.9009 152.803 32.899C152.896 32.897 152.976 32.8902 153.045 32.8785C153.104 32.8687 153.165 32.8501 153.23 32.8227C153.297 32.7934 153.348 32.7612 153.383 32.726C153.458 32.6536 153.508 32.5784 153.533 32.5002C153.561 32.422 153.575 32.3164 153.575 32.1835Z" fill="white"/>
<path d="M158.916 30.7789L157.452 34.2713C157.366 34.4746 157.269 34.6349 157.161 34.7522C157.055 34.8695 156.943 34.9584 156.825 35.019C156.707 35.0796 156.59 35.1207 156.472 35.1422C156.354 35.1617 156.23 35.1715 156.101 35.1715C155.965 35.1715 155.807 35.1686 155.627 35.1627C155.448 35.1568 155.328 35.151 155.268 35.1451V34.2185H155.335C155.353 34.2224 155.38 34.2273 155.418 34.2332C155.455 34.239 155.502 34.2449 155.559 34.2508C155.606 34.2547 155.657 34.2586 155.712 34.2625C155.767 34.2664 155.817 34.2684 155.862 34.2684C155.994 34.2684 156.118 34.2527 156.233 34.2214C156.351 34.1882 156.43 34.1325 156.469 34.0543L154.847 30.7789H156.036L156.975 32.8257L157.77 30.7789H158.916Z" fill="white"/>
<path d="M122.795 41.8722V38.3388H121.5V37.5061H125.192V38.3388H123.897V41.8722H122.795Z" fill="white"/>
<path d="M125.646 41.8722V37.5061H128.61V38.3388H126.741V39.1042H128.463V39.9369H126.741V41.0395H128.61V41.8722H125.646Z" fill="white"/>
<path d="M133.13 41.8722H132.029V38.3388H130.922C130.914 38.5089 130.906 38.6682 130.898 38.8168C130.892 38.9634 130.885 39.1032 130.877 39.2361C130.856 39.6173 130.821 39.9467 130.771 40.2243C130.722 40.4999 130.666 40.7257 130.604 40.9016C130.535 41.0893 130.465 41.2369 130.395 41.3444C130.324 41.4519 130.257 41.537 130.194 41.5995C130.1 41.6934 129.982 41.7676 129.841 41.8224C129.7 41.8752 129.56 41.9016 129.423 41.9016C129.331 41.9016 129.23 41.8976 129.12 41.8898C129.01 41.882 128.94 41.8761 128.911 41.8722V40.9075H128.952C128.972 40.9095 128.99 40.9114 129.008 40.9134C129.027 40.9153 129.052 40.9163 129.081 40.9163C129.131 40.9163 129.193 40.9085 129.27 40.8928C129.346 40.8772 129.404 40.8508 129.444 40.8137C129.585 40.6807 129.681 40.4755 129.732 40.1979C129.785 39.9184 129.825 39.5157 129.853 38.9898C129.865 38.7493 129.871 38.5333 129.873 38.3418C129.877 38.1502 129.885 37.8716 129.897 37.5061H133.13V41.8722Z" fill="white"/>
<path d="M134.037 41.8722V37.5061H137.001V38.3388H135.132V39.1042H136.854V39.9369H135.132V41.0395H137.001V41.8722H134.037Z" fill="white"/>
<path d="M142.413 39.6554C142.413 40.1813 142.234 40.5977 141.877 40.9046C141.52 41.2095 141.056 41.3864 140.485 41.4353V41.9074H139.389V41.4353C138.818 41.3864 138.354 41.2115 137.997 40.9104C137.639 40.6074 137.461 40.1891 137.461 39.6554C137.461 39.1237 137.634 38.7112 137.982 38.418C138.329 38.1248 138.798 37.9527 139.389 37.9019V37.4621H140.485V37.9019C141.058 37.943 141.522 38.1121 141.877 38.4092C142.234 38.7044 142.413 39.1198 142.413 39.6554ZM141.282 39.6378C141.282 39.3622 141.212 39.1374 141.07 38.9634C140.929 38.7875 140.734 38.677 140.485 38.6321V40.7081C140.773 40.6456 140.978 40.5273 141.1 40.3533C141.222 40.1774 141.282 39.9389 141.282 39.6378ZM139.389 40.7081V38.6321C139.13 38.679 138.932 38.7904 138.795 38.9663C138.659 39.1403 138.591 39.3642 138.591 39.6378C138.591 39.935 138.655 40.1735 138.783 40.3533C138.91 40.5312 139.113 40.6495 139.389 40.7081Z" fill="white"/>
<path d="M147.027 39.6906C147.027 40.3963 146.837 40.9515 146.458 41.3561C146.08 41.7608 145.56 41.9631 144.901 41.9631C144.239 41.9631 143.72 41.7588 143.343 41.3503C142.967 40.9398 142.778 40.3865 142.778 39.6906C142.778 38.9888 142.967 38.4346 143.343 38.028C143.72 37.6194 144.239 37.4152 144.901 37.4152C145.56 37.4152 146.08 37.6185 146.458 38.0251C146.837 38.4297 147.027 38.9849 147.027 39.6906ZM145.89 39.6877C145.89 39.4277 145.863 39.2068 145.808 39.025C145.755 38.8412 145.683 38.6907 145.593 38.5734C145.499 38.4542 145.392 38.3691 145.272 38.3183C145.154 38.2655 145.031 38.2391 144.904 38.2391C144.768 38.2391 144.646 38.2636 144.536 38.3124C144.426 38.3594 144.32 38.4444 144.218 38.5675C144.128 38.6809 144.054 38.8315 143.997 39.0191C143.942 39.2068 143.915 39.4306 143.915 39.6906C143.915 39.9584 143.941 40.1813 143.994 40.3592C144.047 40.5351 144.12 40.6827 144.212 40.8019C144.306 40.9231 144.413 41.0101 144.533 41.0629C144.653 41.1137 144.776 41.1392 144.904 41.1392C145.033 41.1392 145.159 41.1118 145.281 41.0571C145.402 41.0004 145.507 40.9134 145.596 40.7961C145.69 40.669 145.763 40.5214 145.814 40.3533C145.865 40.1832 145.89 39.9614 145.89 39.6877Z" fill="white"/>
<path d="M151.381 41.8722H150.28V39.9369H148.781V41.8722H147.68V37.5061H148.781V39.1042H150.28V37.5061H151.381V41.8722Z" fill="white"/>
<path d="M151.82 41.8722L153.301 37.5061H154.502L155.983 41.8722H154.85L154.576 40.9808H153.198L152.924 41.8722H151.82ZM154.334 40.1891L153.887 38.7493L153.439 40.1891H154.334Z" fill="white"/>
<path fill-rule="evenodd" clip-rule="evenodd" d="M96.6719 48.2977L118.53 35.6113L107.855 35.3877L102.627 38.5016L96.6719 48.2977Z" fill="#027E35"/>
<path fill-rule="evenodd" clip-rule="evenodd" d="M81.4375 11.9941L118.531 35.6121L107.855 35.3886L86.8173 22.0252L81.4375 11.9941Z" fill="#2683C9"/>
<path fill-rule="evenodd" clip-rule="evenodd" d="M81.4362 11.9941L81 37.6787L86.7151 28.0128L86.8159 22.0252L81.4362 11.9941Z" fill="#5A58A3"/>
<path fill-rule="evenodd" clip-rule="evenodd" d="M97.0427 28.5238L81 37.6814L86.7151 28.0154L91.7562 25.166L97.0427 28.5238Z" fill="#964A95"/>
<path fill-rule="evenodd" clip-rule="evenodd" d="M96.6719 48.2979L97.0435 28.5205L102.738 32.138L102.627 38.5018L96.6719 48.2979Z" fill="#62B22F"/>
<path fill-rule="evenodd" clip-rule="evenodd" d="M97.5938 2.14648L118.948 15.8883L108.173 15.6572L103.096 12.5433L97.5938 2.14648Z" fill="#EE7024"/>
<path fill-rule="evenodd" clip-rule="evenodd" d="M97.5913 2.14648L97.1641 22.0104L102.673 25.5184L103.093 12.5433L97.5913 2.14648Z" fill="#FAB51A"/>
<path fill-rule="evenodd" clip-rule="evenodd" d="M102.68 25.5174L118.952 15.8874L108.177 15.6562L102.957 18.7546L102.68 25.5174Z" fill="#DB0954"/>
<path fill-rule="evenodd" clip-rule="evenodd" d="M44.7688 9.7373C45.9507 11.262 46.9361 12.9339 47.7734 14.7044L25.0169 31.4739L15.4609 25.4741V18.2943L24.9673 24.2451L44.7688 9.7376V9.7373Z" fill="#21A038"/>
<path fill-rule="evenodd" clip-rule="evenodd" d="M5.76297 24.9836C5.76297 24.6393 5.76296 24.3445 5.81254 23.9999L0.0492715 23.7049C0.0492715 24.0982 0 24.541 0 24.9343C0 31.8188 2.80758 38.0648 7.33935 42.5888L11.4277 38.5071C7.93031 35.0647 5.76297 30.2944 5.76297 24.9833V24.9836Z" fill="url(#paint0_linear_3202_104318)"/>
<path fill-rule="evenodd" clip-rule="evenodd" d="M24.9769 5.80529C25.3218 5.80529 25.6175 5.80529 25.9624 5.85456L26.258 0.100907C25.8638 0.100907 25.4204 0.0516357 25.0268 0.0516357C18.1309 0.0516357 11.8752 2.855 7.34375 7.37897L11.4321 11.4607C14.8799 7.96903 19.7073 5.80529 24.9772 5.80529H24.9769Z" fill="url(#paint1_linear_3202_104318)"/>
<path fill-rule="evenodd" clip-rule="evenodd" d="M24.9758 44.1621C24.6312 44.1621 24.3355 44.1621 23.9909 44.1129L23.6953 49.8668C24.0895 49.8668 24.5326 49.9158 24.9265 49.9158C31.8224 49.9158 38.0781 47.1127 42.6096 42.5884L38.5212 38.5067C35.0734 42.0474 30.2956 44.1621 24.9755 44.1621H24.9758Z" fill="url(#paint2_linear_3202_104318)"/>
<path fill-rule="evenodd" clip-rule="evenodd" d="M35.8052 9.14708L40.6819 5.55717C36.3964 2.11477 30.9291 0 24.9688 0V5.75395C29.0081 5.80292 32.7512 7.03231 35.8052 9.14708Z" fill="url(#paint3_linear_3202_104318)"/>
<path fill-rule="evenodd" clip-rule="evenodd" d="M50 24.9809C50 23.4564 49.8522 21.9813 49.6061 20.5059L44.237 24.4893C44.237 24.6369 44.237 24.8336 44.237 24.9812C44.237 30.6366 41.7744 35.7019 37.8828 39.1936L41.7741 43.4721C46.798 38.9478 49.9997 32.3088 49.9997 24.9812L50 24.9809Z" fill="#21A038"/>
<path fill-rule="evenodd" clip-rule="evenodd" d="M24.9732 44.1621C19.3088 44.1621 14.2353 41.7033 10.7382 37.8184L6.45312 41.7033C11.0339 46.7686 17.6345 49.916 24.9732 49.916V44.1621Z" fill="url(#paint4_linear_3202_104318)"/>
<path fill-rule="evenodd" clip-rule="evenodd" d="M12.1169 10.7698L8.22564 6.49127C3.15218 11.0648 0 17.6546 0 24.9819H5.76297C5.76297 19.3758 8.22594 14.2615 12.1172 10.7698H12.1169Z" fill="url(#paint5_linear_3202_104318)"/>
<defs>
<linearGradient id="paint0_linear_3202_104318" x1="6.74239" y1="42.6155" x2="4.43173" y2="24.4058" gradientUnits="userSpaceOnUse">
<stop stop-color="#F2E913"/>
<stop offset="0.14902" stop-color="#F2E913"/>
<stop offset="0.301961" stop-color="#E7E518"/>
<stop offset="0.580392" stop-color="#CADB26"/>
<stop offset="0.890196" stop-color="#A3CD39"/>
<stop offset="1" stop-color="#A3CD39"/>
</linearGradient>
<linearGradient id="paint1_linear_3202_104318" x1="8.98503" y1="7.0512" x2="25.2383" y2="4.80123" gradientUnits="userSpaceOnUse">
<stop stop-color="#0FA8E0"/>
<stop offset="0.0588235" stop-color="#0FA8E0"/>
<stop offset="0.541176" stop-color="#0099F9"/>
<stop offset="0.921569" stop-color="#0291EB"/>
<stop offset="1" stop-color="#0291EB"/>
</linearGradient>
<linearGradient id="paint2_linear_3202_104318" x1="23.3588" y1="44.9243" x2="41.7359" y2="43.4149" gradientUnits="userSpaceOnUse">
<stop stop-color="#A3CD39"/>
<stop offset="0.121569" stop-color="#A3CD39"/>
<stop offset="0.290196" stop-color="#86C339"/>
<stop offset="0.870588" stop-color="#21A038"/>
<stop offset="1" stop-color="#21A038"/>
</linearGradient>
<linearGradient id="paint3_linear_3202_104318" x1="23.7856" y1="3.82515" x2="39.4987" y2="5.46643" gradientUnits="userSpaceOnUse">
<stop stop-color="#0291EB"/>
<stop offset="0.0509804" stop-color="#0291EB"/>
<stop offset="0.788235" stop-color="#0C8ACB"/>
<stop offset="1" stop-color="#0C8ACB"/>
</linearGradient>
<linearGradient id="paint4_linear_3202_104318" x1="7.91805" y1="42.3742" x2="25.0216" y2="45.0973" gradientUnits="userSpaceOnUse">
<stop stop-color="#F2E913"/>
<stop offset="0.129412" stop-color="#F2E913"/>
<stop offset="0.301961" stop-color="#EBE716"/>
<stop offset="0.529412" stop-color="#D9E01F"/>
<stop offset="0.8" stop-color="#BBD62D"/>
<stop offset="0.980392" stop-color="#A3CD39"/>
<stop offset="1" stop-color="#A3CD39"/>
</linearGradient>
<linearGradient id="paint5_linear_3202_104318" x1="4.38396" y1="23.6303" x2="7.33335" y2="5.79787" gradientUnits="userSpaceOnUse">
<stop stop-color="#A3CD39"/>
<stop offset="0.0705882" stop-color="#A3CD39"/>
<stop offset="0.258824" stop-color="#81C55F"/>
<stop offset="0.921569" stop-color="#0FA8E0"/>
<stop offset="1" stop-color="#0FA8E0"/>
</linearGradient>
</defs>
</svg>
