<svg width="246" height="105" viewBox="0 0 246 105" fill="none" xmlns="http://www.w3.org/2000/svg">
<rect x="1" y="1" width="244" height="103" rx="9" fill="#11121E" stroke="#1F2946" stroke-width="2"/>
<path d="M93.9785 41.9609H100.946C102.821 41.9609 104.318 42.5314 105.439 43.6723C106.559 44.8132 107.119 46.3922 107.119 48.4091C107.119 50.4057 106.529 51.9745 105.347 53.1154C104.186 54.2563 102.637 54.8268 100.702 54.8268H96.2705V62.803H93.9785V41.9609ZM100.641 52.9321C102.006 52.9321 103.045 52.5551 103.758 51.8013C104.471 51.0271 104.827 49.8964 104.827 48.4091C104.827 46.9219 104.471 45.7912 103.758 45.017C103.045 44.2428 102.006 43.8557 100.641 43.8557H96.2705V52.9321H100.641Z" fill="#2195F2"/>
<path d="M110.944 62.803V48.5008H113.022V62.803H110.944ZM111.983 45.7198C111.515 45.7198 111.117 45.5569 110.791 45.2309C110.486 44.9049 110.333 44.5076 110.333 44.039C110.333 43.5908 110.486 43.2139 110.791 42.9083C111.117 42.5823 111.515 42.4193 111.983 42.4193C112.431 42.4193 112.819 42.5823 113.145 42.9083C113.471 43.2139 113.634 43.601 113.634 44.0696C113.634 44.5178 113.471 44.9049 113.145 45.2309C112.819 45.5569 112.431 45.7198 111.983 45.7198Z" fill="#2195F2"/>
<path d="M131.284 48.5008V62.803H129.206V60.6944C128.616 61.5093 127.892 62.1511 127.037 62.6197C126.181 63.0679 125.244 63.292 124.225 63.292C122.86 63.292 121.638 62.966 120.558 62.314C119.478 61.6621 118.632 60.7555 118.021 59.5942C117.41 58.4329 117.104 57.1086 117.104 55.6214C117.104 54.1545 117.4 52.8506 117.991 51.7097C118.602 50.5484 119.437 49.6417 120.497 48.9898C121.576 48.3378 122.799 48.0119 124.164 48.0119C125.203 48.0119 126.15 48.2462 127.006 48.7147C127.882 49.163 128.616 49.8047 129.206 50.64V48.5008H131.284ZM124.164 61.3972C125.142 61.3972 126.008 61.1528 126.762 60.6638C127.536 60.1748 128.137 59.4923 128.565 58.6163C128.992 57.7402 129.206 56.7521 129.206 55.6519C129.206 54.5518 128.992 53.5636 128.565 52.6876C128.137 51.8115 127.536 51.129 126.762 50.64C126.008 50.1511 125.142 49.9066 124.164 49.9066C123.206 49.9066 122.351 50.1511 121.597 50.64C120.843 51.129 120.252 51.8115 119.824 52.6876C119.397 53.5433 119.183 54.5212 119.183 55.6214C119.183 56.7419 119.397 57.7402 119.824 58.6163C120.252 59.4923 120.843 60.1748 121.597 60.6638C122.351 61.1528 123.206 61.3972 124.164 61.3972Z" fill="#2195F2"/>
<path d="M140.164 63.292C138.778 63.292 137.556 62.9966 136.496 62.4057C135.457 61.8149 134.663 60.9796 134.113 59.8998L135.977 58.983C136.731 60.5925 138.208 61.3972 140.408 61.3972C141.468 61.3972 142.344 61.2037 143.036 60.8166C143.729 60.4295 144.075 59.8285 144.075 59.0135C144.075 58.1782 143.79 57.5568 143.22 57.1494C142.67 56.7419 141.692 56.477 140.286 56.3548C138.33 56.1918 136.924 55.7538 136.069 55.0407C135.233 54.3276 134.816 53.3803 134.816 52.1986C134.816 50.8743 135.294 49.8455 136.252 49.112C137.209 48.3786 138.524 48.0119 140.194 48.0119C143.026 48.0119 144.951 49.1324 145.97 51.3735L144.106 52.2903C143.76 51.4754 143.25 50.8743 142.578 50.4872C141.926 50.1001 141.08 49.9066 140.041 49.9066C138.982 49.9066 138.167 50.1001 137.597 50.4872C137.046 50.8743 136.771 51.4244 136.771 52.1375C136.771 52.8098 137.067 53.3599 137.658 53.7877C138.269 54.1952 139.308 54.4601 140.775 54.5823C142.588 54.7453 143.933 55.1935 144.809 55.927C145.705 56.64 146.153 57.5874 146.153 58.7691C146.153 59.7266 145.878 60.5517 145.328 61.2444C144.778 61.9168 144.045 62.4261 143.128 62.7725C142.211 63.1188 141.223 63.292 140.164 63.292Z" fill="#2195F2"/>
<path d="M150.061 62.803V50.3956H147.616V48.5008H150.061V43.764H152.139V48.5008H155.44V50.3956H152.139V62.803H150.061Z" fill="#2195F2"/>
<path d="M164.742 48.0119C165.231 48.0119 165.699 48.0832 166.148 48.2258V50.1205C165.72 49.9168 165.251 49.8149 164.742 49.8149C163.866 49.8149 163.051 50.0594 162.297 50.5484C161.543 51.0373 160.932 51.7504 160.463 52.6876C160.015 53.6044 159.791 54.6944 159.791 55.9575V62.803H157.713V48.5008H159.791V51.3735C160.341 50.3141 161.034 49.4889 161.869 48.8981C162.725 48.3073 163.682 48.0119 164.742 48.0119Z" fill="#2195F2"/>
<path d="M169.2 62.803V48.5008H171.278V62.803H169.2ZM170.239 45.7198C169.77 45.7198 169.373 45.5569 169.047 45.2309C168.741 44.9049 168.588 44.5076 168.588 44.039C168.588 43.5908 168.741 43.2139 169.047 42.9083C169.373 42.5823 169.77 42.4193 170.239 42.4193C170.687 42.4193 171.074 42.5823 171.4 42.9083C171.726 43.2139 171.889 43.601 171.889 44.0696C171.889 44.5178 171.726 44.9049 171.4 45.2309C171.074 45.5569 170.687 45.7198 170.239 45.7198Z" fill="#2195F2"/>
<path d="M187.462 62.803H185.078L181.35 56.8438L177.621 62.803H175.299L179.883 55.4686L175.574 48.5008H177.927L181.38 54.1239L185.017 48.5008H187.309L182.817 55.438L187.462 62.803Z" fill="#2195F2"/>
<path d="M74.4604 57.9682C77.5678 57.9682 80.0868 55.4666 80.0868 52.3806C80.0868 49.2946 77.5678 46.793 74.4604 46.793C71.353 46.793 68.834 49.2946 68.834 52.3806C68.834 55.4666 71.353 57.9682 74.4604 57.9682Z" fill="#FFD833"/>
<path fill-rule="evenodd" clip-rule="evenodd" d="M78.2728 46.2507C77.1289 45.5435 75.8086 45.1682 74.4611 45.1673C73.4735 45.1667 72.4962 45.3673 71.5898 45.7567C62.8449 31.4102 75.0808 24.6172 75.0808 24.6172C75.0808 24.6172 87.5872 31.564 78.2728 46.2507ZM69.985 46.6956C68.1115 43.6158 67.0075 40.6451 66.6729 37.7834C62.4074 34.6806 57.4088 34.2385 54.9171 34.2385C54.3904 34.234 53.8638 34.2572 53.3396 34.3079C53.3396 34.3079 51.0726 47.9003 67.5457 50.1842C67.9889 48.8051 68.8387 47.5898 69.985 46.6956ZM67.2063 51.9954C67.1954 52.1232 67.1954 52.2511 67.1954 52.3811C67.195 53.5275 67.4703 54.6574 67.9983 55.6768C64.0579 58.1123 60.6694 59.005 57.833 59.005C50.0939 59.005 46.3848 52.4071 46.3848 52.4071C46.3848 52.4071 50.2794 48.5025 56.0788 47.2284C58.7799 49.744 62.5044 51.3453 67.2063 51.9954ZM69.0499 57.192C65.3669 59.4823 61.8039 60.7044 58.4264 60.8344C54.6583 66.0023 54.6889 72.1214 54.6889 72.1214C55.7848 72.3871 56.91 72.5152 58.038 72.5028C62.3516 72.5028 69.6019 70.6956 72.2965 59.2657C71.0463 58.8768 69.9247 58.1605 69.0499 57.192ZM74.4544 59.5948H74.1206C73.1431 63.8115 71.5024 67.1787 69.2005 69.638C70.2914 75.8156 74.557 80.0171 74.557 80.0171C74.557 80.0171 86.8758 73.1548 77.9476 58.7064C76.8774 59.2906 75.6756 59.5962 74.4544 59.5948Z" fill="url(#paint0_radial_11137_86794)"/>
<defs>
<radialGradient id="paint0_radial_11137_86794" cx="0" cy="0" r="1" gradientUnits="userSpaceOnUse" gradientTransform="translate(74.7124 52.3172) rotate(-180) scale(17.0042 17.0036)">
<stop stop-color="#FFDE51"/>
<stop offset="1" stop-color="#FE4080"/>
</radialGradient>
</defs>
</svg>
