<svg xmlns="http://www.w3.org/2000/svg" width="163" height="201" fill="none"><g opacity=".3"><path fill="#fff" d="M102.332 121.637c-4.067 3.105-8.759 3.851-8.759 3.851 3.319-2.416 9.731-9.202 6.013-16.563-3.718-7.361-17.92-12.132-17.92-12.132s-14.19 4.774-17.917 12.132c-3.728 7.359 2.691 14.147 6.012 16.563 0 0-4.694-.749-8.759-3.853 0 0-9.959 8.74-11.104 18.863 0 0 9.1-6.728 31.77-6.728s31.773 6.728 31.773 6.728c-1.147-10.12-11.109-18.861-11.109-18.861Zm-19-.058-1.661 2.762-1.66-2.762c-10.704-.804-12.65-8.798-12.65-8.798l5.322-3.104-1.443-2.53 10.419 6.325 10.433-6.325-1.443 2.53 5.322 3.104s-1.94 7.994-12.645 8.798h.007Z"/><path fill="#fff" d="M110.995 69.152s9.377 1.088 13.85 5.616c0 0-6.925-12.952-21.579-12.952-14.653 0-21.578 7.967-21.578 7.967s-6.925-7.967-21.576-7.967-21.579 12.952-21.579 12.952c4.463-4.528 13.85-5.616 13.85-5.616-7.44 2.183-13.17 11.074-13.107 21.724.063 10.651 4.18 18.28 8.243 19.26 4.064.98 6.238-2.923 12.307-8.667s12.246-6.647 12.246-6.647c-6.122-2.752-10.188-1.146-14.252.171-4.063 1.317-7.382 1.777-9.729-2.978-2.346-4.755 2.119-9.972 2.119-9.972-2.52.403-4.922 2.408-4.922 2.408 2.289-5.446 5.208-6.936 9.957-7.107 4.749-.17 6.927 1.088 11.905 3.898 4.977 2.81 9.33 6.074 11.907 3.953 2.578-2.121-1.26-9.283-1.26-9.283 2.804 1.834 3.89 5.672 3.89 5.672s1.09-3.838 3.894-5.672c0 0-3.847 7.162-1.26 9.283 2.587 2.12 6.927-1.146 11.907-3.953s7.154-4.069 11.905-3.898c4.752.171 7.668 1.678 9.95 7.114 0 0-2.404-2.005-4.922-2.407 0 0 4.465 5.214 2.119 9.971-2.347 4.757-5.666 4.297-9.729 2.978-4.064-1.319-8.13-2.922-14.255-.17 0 0 6.183.916 12.249 6.646 6.067 5.73 8.243 9.63 12.307 8.667 4.064-.963 8.175-8.597 8.243-19.26.067-10.662-5.661-19.548-13.1-21.731Z"/><path fill="#C4C4C4" d="M103.281 61.816c-14.668 0-21.604 8.025-21.604 8.025s-6.933-8.025-21.601-8.025c-10.92 0-17.55 7.227-20.223 10.913 5.71-5.604 20.966-16.296 41.831 2.066 20.868-18.362 36.123-7.67 41.834-2.066-2.687-3.686-9.317-10.913-20.237-10.913ZM57.605 94.967c-4.073 1.325-7.4 1.784-9.752-2.99-2.352-4.774 2.124-10.012 2.124-10.012-2.025.321-3.97 1.677-4.664 2.204-2.051 3.43-3.466 9.645 1.354 19.863 0 0-4.128-1.221-7.339-8.356 1.049 8.112 4.515 13.659 7.954 14.484 4.074.967 6.252-2.935 12.336-8.702 6.083-5.768 12.276-6.674 12.276-6.674-6.14-2.751-10.215-1.139-14.289.183ZM116.326 104.023c4.872-10.332 3.372-16.57 1.293-19.973-.802-.587-2.62-1.785-4.504-2.085 0 0 4.473 5.233 2.122 10.008-2.35 4.775-5.674 4.313-9.745 2.989-4.07-1.324-8.143-2.934-14.277-.172 0 0 6.192.92 12.269 6.672 6.076 5.75 8.256 9.665 12.327 8.698 3.461-.834 6.963-6.49 7.969-14.739-3.227 7.355-7.454 8.602-7.454 8.602ZM113.424 140.341c-3.656-2.804-12.975-8.585-28.434-9.225-20.522-.86-22.412 2.493-24.73-.431-2.32-2.924 9.501-5.191 9.501-5.191s-4.694-.747-8.759-3.842c0 0-9.959 8.715-11.104 18.807 0 0 9.1-6.708 31.77-6.708s31.773 6.708 31.773 6.708c-.003-.032-.012-.077-.017-.118Z"/></g><g filter="url(#a)"><path fill="#0D101C" fill-opacity=".48" d="M.5 4.563A4.563 4.563 0 0 1 5.063 0h152.874a4.563 4.563 0 0 1 4.563 4.563v191.874a4.563 4.563 0 0 1-4.563 4.563H5.063A4.563 4.563 0 0 1 .5 196.437V4.563Z"/></g><path stroke="url(#b)" stroke-opacity=".5" stroke-width=".913" d="M.956 4.563A4.106 4.106 0 0 1 5.063.456h152.874a4.107 4.107 0 0 1 4.107 4.107v191.874a4.107 4.107 0 0 1-4.107 4.107H5.063a4.107 4.107 0 0 1-4.107-4.107V4.563Z"/><path fill="#414A65" d="M37.637 90.6h2.376V99h-2.376v-8.4Zm-3.24 8.4h-2.376v-8.4h2.376V99Zm3.408-3.276H34.23v-1.968h3.576v1.968Zm7.229 3.384c-.768 0-1.44-.144-2.016-.432a3.402 3.402 0 0 1-1.332-1.2 3.277 3.277 0 0 1-.468-1.74c0-.648.152-1.224.456-1.728.312-.512.74-.908 1.284-1.188.544-.288 1.156-.432 1.836-.432.64 0 1.224.132 1.752.396.528.256.948.636 1.26 1.14.312.504.468 1.116.468 1.836 0 .08-.004.172-.012.276l-.024.288H43.09v-1.2h3.936l-.864.336a1.473 1.473 0 0 0-.168-.768 1.215 1.215 0 0 0-.48-.504 1.35 1.35 0 0 0-.708-.18c-.272 0-.512.06-.72.18-.2.12-.356.292-.468.516a1.648 1.648 0 0 0-.168.768v.348c0 .32.064.596.192.828.136.232.328.412.576.54.248.12.544.18.888.18.32 0 .592-.044.816-.132.232-.096.46-.24.684-.432l1.2 1.248a3.092 3.092 0 0 1-1.152.792c-.456.176-.996.264-1.62.264ZM50.72 99v-5.196l.492.504H48.62v-1.812h6.456v1.812h-2.592l.504-.504V99H50.72Zm13.244-.996v-3.696h-1.74l-.024.624c-.016.312-.036.608-.06.888-.016.272-.056.52-.12.744a1.752 1.752 0 0 1-.276.576c-.12.152-.28.264-.48.336l-2.232-.3c.216 0 .392-.06.528-.18.144-.128.256-.304.336-.528.08-.224.136-.48.168-.768.04-.296.068-.608.084-.936l.084-2.268h6.012v5.508h-2.28Zm-5.148 2.34v-3.168h8.328v3.168h-2.112V99H60.94v1.344h-2.124Zm12.511-1.236c-.712 0-1.343-.144-1.895-.432a3.354 3.354 0 0 1-1.308-1.188c-.313-.512-.468-1.096-.468-1.752 0-.656.155-1.236.468-1.74.32-.504.755-.896 1.308-1.176.552-.288 1.183-.432 1.895-.432.713 0 1.344.144 1.897.432.56.28.995.672 1.307 1.176.313.504.468 1.084.468 1.74 0 .656-.155 1.24-.468 1.752-.312.504-.748.9-1.308 1.188-.552.288-1.183.432-1.895.432Zm0-1.812c.264 0 .496-.06.697-.18a1.26 1.26 0 0 0 .492-.528c.12-.24.18-.524.18-.852 0-.328-.06-.604-.18-.828a1.26 1.26 0 0 0-.493-.528c-.2-.12-.431-.18-.695-.18-.257 0-.489.06-.697.18-.2.12-.364.296-.492.528-.12.224-.18.5-.18.828 0 .328.06.612.18.852.129.232.293.408.493.528.207.12.44.18.695.18Zm8.006 1.812c-.72 0-1.364-.144-1.932-.432-.56-.288-1-.684-1.32-1.188-.32-.512-.48-1.096-.48-1.752 0-.656.16-1.236.48-1.74.32-.504.76-.896 1.32-1.176.568-.288 1.212-.432 1.932-.432.736 0 1.372.156 1.908.468.536.312.916.752 1.14 1.32l-1.764.9c-.152-.304-.34-.524-.564-.66a1.327 1.327 0 0 0-.732-.216c-.264 0-.504.06-.72.18-.216.12-.388.296-.516.528-.12.224-.18.5-.18.828 0 .336.06.62.18.852.128.232.3.408.516.528.216.12.456.18.72.18.264 0 .508-.068.732-.204.224-.144.412-.368.564-.672l1.764.9a2.589 2.589 0 0 1-1.14 1.32c-.536.312-1.172.468-1.908.468ZM84.81 99v-5.196l.492.504H82.71v-1.812h6.456v1.812h-2.592l.504-.504V99H84.81Zm6.51 2.436a3.43 3.43 0 0 1-1.044-.168 2.43 2.43 0 0 1-.84-.42l.792-1.596c.136.12.292.212.468.276.184.072.364.108.54.108.248 0 .444-.056.588-.168.144-.112.268-.288.372-.528l.3-.756.18-.228 2.208-5.46h2.172l-2.808 6.768c-.224.56-.484.996-.78 1.308-.288.32-.612.544-.972.672a3.421 3.421 0 0 1-1.176.192Zm.888-2.16-2.868-6.78h2.34l2.112 5.256-1.584 1.524ZM97.795 99v-6.504h6.72V99h-2.268v-5.184l.504.492h-3.18l.492-.492V99h-2.268Zm8.274 0v-6.504h2.268v2.412h2.34v-2.412h2.28V99h-2.28v-2.28h-2.34V99h-2.268Zm15.278 0v-6.504h2.268V99h-2.268Zm-3.132-4.488c.864.008 1.508.2 1.932.576.432.376.648.912.648 1.608 0 .72-.248 1.288-.744 1.704-.496.408-1.204.608-2.124.6h-3.432v-6.504h2.268v2.016h1.452Zm-.516 2.928c.272 0 .484-.064.636-.192.152-.128.228-.324.228-.588 0-.272-.076-.464-.228-.576-.144-.112-.356-.172-.636-.18h-.936v1.524l.936.012Zm6.692 1.56 2.988-3.924-.048 1.296-2.868-3.876h2.568l1.608 2.292-.96.048 1.704-2.34h2.412l-2.868 3.792V95.04l2.952 3.96h-2.604l-1.68-2.448.96.132L126.863 99h-2.472Zm-66.073 15.168a4.64 4.64 0 0 1-1.476-.228 3.078 3.078 0 0 1-1.176-.72c-.328-.328-.588-.756-.78-1.284-.184-.528-.276-1.168-.276-1.92 0-.504.044-.968.132-1.392.088-.424.22-.812.396-1.164.184-.36.416-.676.696-.948.288-.272.624-.5 1.008-.684a5.44 5.44 0 0 1 1.32-.42l3.156-.6.312 1.908-2.736.516c-.168.032-.352.072-.552.12-.192.048-.38.12-.564.216a1.874 1.874 0 0 0-.516.372c-.152.16-.276.372-.372.636-.088.256-.132.576-.132.96 0 .112.004.204.012.276.016.064.028.14.036.228.008.08.012.204.012.372l-.636-.588c.192-.336.42-.62.684-.852.272-.232.584-.412.936-.54a3.421 3.421 0 0 1 1.176-.192c.632 0 1.176.124 1.632.372.456.24.804.576 1.044 1.008.248.424.372.908.372 1.452 0 .64-.16 1.192-.48 1.656-.32.456-.76.812-1.32 1.068-.552.248-1.188.372-1.908.372Zm.06-1.728c.264 0 .492-.056.684-.168.2-.112.356-.268.468-.468.112-.2.168-.424.168-.672 0-.256-.056-.476-.168-.66a1.163 1.163 0 0 0-.468-.432 1.416 1.416 0 0 0-.684-.156c-.264 0-.5.052-.708.156-.2.104-.356.244-.468.42a1.16 1.16 0 0 0-.168.636c0 .248.056.476.168.684.112.208.268.372.468.492.208.112.444.168.708.168Zm7.904 1.668c-.712 0-1.343-.144-1.895-.432a3.354 3.354 0 0 1-1.309-1.188c-.312-.512-.468-1.096-.468-1.752 0-.656.157-1.236.468-1.74.32-.504.756-.896 1.308-1.176.553-.288 1.184-.432 1.897-.432.712 0 1.343.144 1.895.432.56.28.996.672 1.309 1.176.312.504.468 1.084.468 1.74 0 .656-.156 1.24-.468 1.752-.313.504-.748.9-1.308 1.188-.553.288-1.184.432-1.897.432Zm0-1.812c.264 0 .496-.06.697-.18a1.26 1.26 0 0 0 .492-.528c.12-.24.18-.524.18-.852 0-.328-.06-.604-.18-.828a1.26 1.26 0 0 0-.493-.528c-.2-.12-.431-.18-.695-.18-.257 0-.489.06-.697.18-.2.12-.364.296-.492.528-.12.224-.18.5-.18.828 0 .328.06.612.18.852.129.232.293.408.493.528.207.12.44.18.695.18ZM71.025 114v-6.504h2.268v2.412h2.34v-2.412h2.28V114h-2.28v-2.28h-2.34V114h-2.268Zm9.626 2.436a3.43 3.43 0 0 1-1.044-.168 2.43 2.43 0 0 1-.84-.42l.792-1.596c.136.12.292.212.468.276.184.072.364.108.54.108.248 0 .444-.056.588-.168.144-.112.268-.288.372-.528l.3-.756.18-.228 2.208-5.46h2.172l-2.808 6.768c-.224.56-.484.996-.78 1.308-.288.32-.612.544-.972.672a3.421 3.421 0 0 1-1.176.192Zm.888-2.16-2.868-6.78h2.34l2.112 5.256-1.584 1.524Zm8.676-.168c-.72 0-1.364-.144-1.932-.432-.56-.288-1-.684-1.32-1.188-.32-.512-.48-1.096-.48-1.752 0-.656.16-1.236.48-1.74.32-.504.76-.896 1.32-1.176.568-.288 1.212-.432 1.932-.432.736 0 1.372.156 1.908.468.536.312.916.752 1.14 1.32l-1.764.9c-.152-.304-.34-.524-.564-.66a1.327 1.327 0 0 0-.732-.216c-.264 0-.504.06-.72.18-.216.12-.388.296-.516.528-.12.224-.18.5-.18.828 0 .336.06.62.18.852.128.232.3.408.516.528.216.12.456.18.72.18.264 0 .508-.068.732-.204.224-.144.412-.368.564-.672l1.764.9a2.589 2.589 0 0 1-1.14 1.32c-.536.312-1.172.468-1.908.468Zm7.135 0c-.712 0-1.344-.144-1.896-.432a3.354 3.354 0 0 1-1.308-1.188c-.312-.512-.468-1.096-.468-1.752 0-.656.156-1.236.468-1.74.32-.504.756-.896 1.308-1.176.552-.288 1.184-.432 1.896-.432s1.344.144 1.896.432c.56.28.996.672 1.308 1.176.312.504.468 1.084.468 1.74 0 .656-.156 1.24-.468 1.752-.312.504-.748.9-1.308 1.188-.552.288-1.184.432-1.896.432Zm0-1.812c.264 0 .496-.06.696-.18a1.26 1.26 0 0 0 .492-.528c.12-.24.18-.524.18-.852 0-.328-.06-.604-.18-.828a1.26 1.26 0 0 0-.492-.528c-.2-.12-.432-.18-.696-.18-.256 0-.488.06-.696.18-.2.12-.364.296-.492.528-.12.224-.18.5-.18.828 0 .328.06.612.18.852.128.232.292.408.492.528.208.12.44.18.696.18ZM102.09 114v-6.504h3.492c.84 0 1.496.148 1.968.444.472.288.708.704.708 1.248 0 .52-.22.936-.66 1.248-.432.304-1.016.456-1.752.456l.204-.48c.792 0 1.388.148 1.788.444.408.288.612.712.612 1.272 0 .576-.224 1.032-.672 1.368-.44.336-1.116.504-2.028.504h-3.66Zm2.04-1.476h1.416c.28 0 .488-.048.624-.144.136-.104.204-.256.204-.456 0-.208-.068-.36-.204-.456-.128-.096-.328-.144-.6-.144h-1.44v1.2Zm0-2.412h1.248c.272 0 .472-.048.6-.144a.54.54 0 0 0 .192-.444c0-.192-.064-.332-.192-.42-.128-.096-.328-.144-.6-.144h-1.248v1.152Z"/><defs><linearGradient id="b" x1="2.481" x2="2.481" y1="213.376" y2="-25.89" gradientUnits="userSpaceOnUse"><stop stop-color="#6E85CF"/><stop offset=".223" stop-color="#6E85CF" stop-opacity="0"/><stop offset=".746" stop-color="#6E85CF" stop-opacity="0"/><stop offset="1" stop-color="#6E85CF"/></linearGradient><filter id="a" width="170" height="209" x="-3.5" y="-4" colorInterpolationFilters="sRGB" filterUnits="userSpaceOnUse"><feFlood floodOpacity="0" result="BackgroundImageFix"/><feGaussianBlur in="BackgroundImageFix" stdDeviation="2"/><feComposite in2="SourceAlpha" operator="in" result="effect1_backgroundBlur_12766_40175"/><feBlend in="SourceGraphic" in2="effect1_backgroundBlur_12766_40175" result="shape"/></filter></defs></svg>