<svg width="193" height="42" viewBox="0 0 193 42" fill="none" xmlns="http://www.w3.org/2000/svg">
<mask id="mask0_3202_104594" style="mask-type:luminance" maskUnits="userSpaceOnUse" x="0" y="0" width="193" height="42">
<path d="M0 0H193V42H0V0Z" fill="white"/>
</mask>
<g mask="url(#mask0_3202_104594)">
<path d="M51.0959 21.8379V32.6987C51.0862 33.3769 50.8926 34.0414 50.5335 34.629C50.1752 35.2161 49.6618 35.7057 49.0432 36.0501L39.067 41.47C38.4486 41.8168 37.7424 41.9999 37.0229 41.9999C36.3033 41.9999 35.5971 41.8168 34.9787 41.47L25.0025 36.0501C24.384 35.7057 23.8705 35.2161 23.5122 34.629C23.1531 34.0414 22.9595 33.3769 22.9498 32.6987V29.6547L28.0561 26.8547V32.1577L36.9976 37.0525L45.9334 32.1577V22.3947L36.9976 17.5001L16.0554 28.9389C15.4323 29.2726 14.7279 29.4481 14.0112 29.4481C13.2945 29.4481 12.5902 29.2726 11.967 28.9389L1.99081 23.4979C1.38191 23.1498 0.878808 22.6594 0.530008 22.074C0.181208 21.4887 -0.0012931 20.8283 6.89683e-06 20.1569V9.29632C0.0035069 8.61882 0.193506 7.95382 0.551406 7.36632C0.909206 6.77882 1.42261 6.28892 2.04151 5.94472L12.0175 0.524817C12.636 0.181117 13.3409 -0.000183105 14.0588 -0.000183105C14.7768 -0.000183105 15.4816 0.181117 16.1002 0.524817L26.0764 5.94472C26.6951 6.28942 27.2088 6.77912 27.5675 7.36632C27.9262 7.95352 28.1178 8.61832 28.1236 9.29592V12.3399L22.9836 15.1188V9.85292L14.0423 4.95822L5.10631 9.85282V19.5999L14.0421 24.4947L35.0011 13.0558C35.6243 12.722 36.3287 12.5466 37.0453 12.5466C37.762 12.5466 38.4664 12.722 39.0895 13.0558L49.0602 18.4969C49.6743 18.8421 50.1833 19.3311 50.538 19.9164C50.8927 20.5017 51.081 21.1635 51.0846 21.8377L51.0959 21.8379Z" fill="#7A53DD"/>
<path d="M68.8724 36.6496V28.1646C69.8453 29.3207 71.6161 29.9677 73.6631 29.9677C78.8881 29.9677 82.4191 26.4677 82.4191 21.1327C82.4191 15.7978 79.1751 12.2978 74.0971 12.2978C71.7511 12.2978 69.952 13.1092 68.8666 14.4191V12.5365H63.8672V36.5966L68.8724 36.6496ZM73.0451 25.9056C70.3341 25.9056 68.5743 24.0018 68.5743 21.1327C68.5743 18.2637 70.3341 16.36 73.0451 16.36C75.7561 16.36 77.4761 18.2426 77.4761 21.1327C77.4761 24.0229 75.6821 25.9056 73.0451 25.9056ZM93.7981 29.9891C99.3821 29.9891 103.358 26.2452 103.358 21.1542C103.358 16.0632 99.3651 12.3193 93.7981 12.3193C88.2301 12.3193 84.2371 16.0313 84.2371 21.1542C84.2371 26.2769 88.2081 29.9891 93.7981 29.9891ZM93.7981 25.9056C91.0931 25.9056 89.2541 23.9701 89.2541 21.1329C89.2541 18.2958 91.0981 16.3602 93.7981 16.3602C96.4971 16.3602 98.3361 18.296 98.3361 21.1329C98.3361 23.9701 96.5031 25.9056 93.7981 25.9056ZM111.42 29.7185V5.14423H106.42V29.7185H111.42ZM126.472 12.5894L122.687 23.6303L118.869 12.5894H113.729L120.32 29.5592L117.665 36.6494H122.457L125.032 29.6546L131.629 12.5948L126.472 12.5894ZM145.696 14.2867C144.684 13.0988 142.885 12.3193 140.686 12.3193C135.388 12.3193 132.183 15.814 132.183 21.1542C132.183 26.4944 135.377 29.9891 140.759 29.9891C142.885 29.9891 144.796 29.2359 145.73 27.9791V30.2383C145.73 31.8293 144.605 32.9588 143.104 32.9588H134.742V36.6709H143.897C148.002 36.6709 150.741 34.3269 150.741 30.758V12.5897H145.679L145.696 14.2867ZM141.552 25.9056C138.886 25.9056 137.12 24.0285 137.12 21.1329C137.12 18.2375 138.886 16.3602 141.552 16.3602C144.217 16.3602 146.017 18.2428 146.017 21.1329C146.017 24.0231 144.257 25.9056 141.552 25.9056ZM163.372 29.9891C168.956 29.9891 172.932 26.2452 172.932 21.1542C172.932 16.0632 168.94 12.3193 163.372 12.3193C157.805 12.3193 153.812 16.0313 153.812 21.1542C153.812 26.2769 157.782 29.9891 163.372 29.9891ZM163.372 25.9056C160.667 25.9056 158.828 23.9701 158.828 21.1329C158.828 18.2958 160.667 16.3602 163.372 16.3602C166.077 16.3602 167.91 18.296 167.91 21.1329C167.91 23.9701 166.071 25.9056 163.372 25.9056ZM180.737 29.7186V20.3375C180.737 18.1261 182.289 16.5299 184.488 16.5299C186.574 16.5299 187.98 18.0359 187.98 20.0988V29.7186H193.042V19.0436C193.042 15.1034 190.376 12.3193 186.259 12.3193C183.774 12.3193 181.761 13.3004 180.748 14.9709V12.6108H175.687V29.7397L180.737 29.7186Z" fill="white"/>
</g>
</svg>
