<svg width="246" height="106" viewBox="0 0 246 106" fill="none" xmlns="http://www.w3.org/2000/svg">
<rect x="1" y="1" width="244" height="104" rx="9" fill="#11121E" stroke="#1F2946" stroke-width="2"/>
<path d="M110.79 77.7219C110.552 77.0679 110.121 76.622 109.809 76.0423C109.051 75.0465 108.159 74.1845 107.267 73.3224C106.955 73.2184 106.821 72.9211 106.524 72.8022C106.331 72.5495 106.019 72.4158 105.766 72.2225C105.26 71.8361 104.71 71.5091 104.145 71.1821C103.075 70.4984 101.752 70.0674 100.444 69.6215C99.0318 69.2797 97.5452 69.027 95.9992 68.8189C94.4681 68.596 92.937 68.3879 91.7775 67.7785C91.1085 67.5853 90.618 67.2137 90.0382 66.9164C89.5031 66.5597 88.9233 66.2625 88.4774 65.8166C87.9273 65.4896 87.5854 64.9397 87.1543 64.4938C87.0057 64.1965 86.753 64.0182 86.6341 63.6912C86.4854 63.6317 86.4408 63.4534 86.3516 63.3493C86.2476 63.2304 86.2476 62.9926 86.0692 62.948C85.98 63.5574 86.0097 64.2857 86.0692 64.9099C86.1435 65.1775 86.1732 65.5045 86.2476 65.772C86.2921 66.0098 86.5151 66.3962 86.4259 66.5746C81.7879 66.3368 78.3986 64.8653 75.4553 62.9332C73.9985 61.9671 72.7498 60.7929 71.5903 59.5295C71.0849 58.831 70.5348 58.1621 70.0889 57.3892C69.628 56.6312 69.2415 55.7692 68.8253 54.9666C68.1415 53.2276 67.5023 51.444 67.2645 49.2592C66.9523 47.2229 67.0266 44.6219 67.4874 42.7343C67.651 41.6939 67.9929 40.817 68.2902 39.9103C68.4834 39.4942 68.6915 39.078 68.8699 38.647C69.1226 38.2902 69.2564 37.7998 69.5686 37.4876C70.4159 35.8973 71.6795 34.7083 72.9728 33.5638C74.3701 32.5383 75.9607 31.7059 77.8783 31.2006C79.7216 30.7844 82.2339 30.7101 84.2259 31.1411C88.2692 31.9735 91.3167 33.7867 93.8735 36.1054C96.4601 38.3794 98.452 41.2629 99.8197 44.7705C101.232 48.0998 101.722 53.287 100.459 57.0623C99.9386 56.765 99.4183 56.4826 98.898 56.2002C98.2737 56.0218 97.6642 55.8138 96.9358 55.7394C96.0587 55.7246 95.1965 55.7394 94.6316 56.0218C95.7763 55.9029 96.6979 56.2151 97.4115 56.4826C97.8277 56.6461 98.0655 56.7501 98.3926 56.9433C99.0318 57.3149 99.5967 57.6568 100.072 58.1621C101.425 59.3512 102.391 60.9266 102.852 63.0075C102.852 63.0669 102.927 63.0521 102.912 62.948C102.971 62.9332 103.001 62.8886 103.031 62.8291C103.105 62.7399 103.194 62.6508 103.268 62.5467C103.417 62.3684 103.566 62.19 103.67 61.9671C103.982 61.5955 104.235 61.1793 104.473 60.7483C105.023 59.9457 105.439 59.0242 105.914 58.1473C106.732 56.2745 107.401 54.2531 107.817 51.9642C108.65 46.8811 107.654 42.0655 105.914 38.5132C104.131 34.9312 101.633 32.0626 98.4074 29.9075C95.1519 27.7672 91.3464 26.1917 86.1138 26.0431C86.084 25.9391 86.0394 26.058 85.9354 26.0431C83.1704 25.9539 80.9406 26.3404 78.7257 26.9052C77.7 27.247 76.6296 27.5443 75.7229 28.005C74.6823 28.3469 73.8498 28.9117 72.8984 29.3278C72.5565 29.6548 72.0362 29.8183 71.6795 30.1304C71.2186 30.3534 70.8767 30.7101 70.4159 30.933C69.6726 31.587 68.8848 32.1667 68.1564 32.8355C67.4428 33.4895 66.8185 34.2326 66.1347 34.9163C66.0306 35.1541 65.8522 35.3176 65.6739 35.496C65.5549 35.7189 65.4063 35.9122 65.213 36.0757C65.1387 36.3432 64.9009 36.4472 64.8117 36.7148C64.6184 36.8634 64.5738 37.1607 64.3508 37.2944C64.1576 37.77 63.8157 38.1119 63.5927 38.5578C63.3251 38.9888 63.117 39.4644 62.8494 39.8806C62.4332 40.8467 61.9872 41.7831 61.6453 42.8235C61.2886 43.8342 60.9913 44.9043 60.7831 46.0636C60.5602 47.1486 60.352 48.5606 60.3818 49.7051C60.2331 50.1212 60.352 50.8941 60.3818 51.3846C60.3818 51.4738 60.3223 51.5035 60.3223 51.5629C60.3223 52.1129 60.471 52.7817 60.5007 53.1236C60.6196 54.3869 60.8426 55.5611 61.1994 56.5866C61.4224 57.7311 61.898 58.6229 62.24 59.6484C62.7602 60.5105 63.117 61.536 63.7414 62.3089C64.2022 63.2155 64.8563 63.929 65.4806 64.6721C66.1495 65.3856 66.8185 66.1138 67.6212 66.6935C69.0929 67.9717 70.8173 68.9973 72.7052 69.8742C76.2283 71.5834 81.4906 72.6982 86.2178 72.4158C87.4219 72.2523 88.6409 72.1036 89.7409 71.8361C90.7518 71.4645 91.9261 71.2416 93.1451 71.093C95.9249 70.9146 98.3331 71.1673 100.474 71.7915C102.644 72.3712 104.517 73.2481 106.137 74.3926C107 74.8979 107.713 75.5519 108.442 76.1761C109.185 76.8152 109.779 77.603 110.463 78.3164C110.552 78.5839 110.731 78.7771 110.865 79.015C111.043 79.2082 110.954 79.6541 111.385 79.5946C111.653 79.3271 111.34 78.9406 111.325 78.6137C111.058 78.3313 110.998 77.9597 110.79 77.7219Z" fill="#FCB316"/>
<path d="M99.9988 61.9075C99.9394 61.9075 99.9245 61.9521 99.8799 61.967C99.7759 62.1899 99.8204 62.5466 99.8799 62.7696C100.192 63.4087 100.296 64.241 100.98 64.5086C101.307 64.4045 101.277 63.9289 101.262 63.4682C101.114 62.9034 100.906 62.398 100.564 62.0264C100.326 61.9373 100.162 61.7886 99.9988 61.9075ZM95.9554 63.5276C95.9554 63.4979 95.9108 63.4681 95.896 63.5276C95.3311 63.4533 95.1378 63.7654 94.8554 63.9884C94.3648 65.2814 95.1527 66.5448 96.5352 66.5299C97.0852 66.3962 97.4271 66.0395 97.5163 65.4301C97.442 64.3451 96.9812 63.6465 95.9554 63.5276Z" fill="#FCB316"/>
<path d="M129.283 59.4107C129.505 60.3471 129.981 61.0159 130.516 61.6401C131.052 62.2644 131.676 62.7846 132.434 63.171C133.148 63.6169 133.921 63.9885 134.812 64.2412C135.244 64.3898 135.66 64.5682 136.195 64.6276C136.567 64.8357 137.013 64.9397 137.042 65.4748C137.027 66.1139 136.596 66.3517 136.046 66.4706C135.496 66.3517 134.812 66.3666 134.352 66.1585C133.192 66.0247 132.256 65.6532 131.274 65.3113C129.401 64.583 127.826 63.5277 126.518 62.2347C126.25 61.7888 125.878 61.4321 125.596 61.001C125.313 60.57 125.12 60.0498 124.823 59.6188C122.534 59.3215 120.973 58.2811 119.605 57.0772C118.342 55.6355 117.331 53.9114 116.915 51.6225C116.424 49.4227 116.573 46.6731 117.152 44.5477C118.416 40.4306 121.062 37.6958 126.057 37.3242C127.439 37.3688 128.643 37.5323 129.743 37.9485C130.858 38.3498 131.914 39.0929 132.746 39.8658C132.82 39.9252 132.85 39.9401 132.895 40.0144C133.073 40.2671 133.504 40.6238 133.742 40.9359C133.787 40.9954 133.772 41.0994 133.816 41.1737C133.906 41.3075 134.039 41.367 134.129 41.4859C134.173 41.5602 134.158 41.6494 134.203 41.7088C134.262 41.798 134.337 41.9318 134.426 42.0953C134.456 42.1547 134.56 42.1993 134.575 42.2439C134.708 42.4966 134.768 42.8087 134.887 43.0911C135.006 43.3883 135.169 43.641 135.273 43.9383C135.571 44.8152 135.764 45.8556 135.883 46.9257C136.18 50.0172 135.571 52.7818 134.426 54.8329C133.891 55.903 133.148 56.7799 132.27 57.5231C131.468 58.3703 130.368 58.8756 129.283 59.4107ZM125.596 40.059C124.927 40.1036 124.526 40.4157 123.976 40.5941C123.619 40.9211 123.173 41.1737 122.905 41.5899C122.459 41.8426 122.34 42.4074 121.984 42.7344C121.686 43.4775 121.404 44.3098 121.211 45.2759C121.032 46.2272 120.913 47.2973 120.898 48.3526C120.884 50.9982 121.448 53.629 122.504 55.1896C123.128 55.9476 123.886 56.5718 124.808 57.0326C125.343 57.0772 125.759 57.2555 126.339 57.2704C126.666 57.1515 127.201 57.2704 127.409 57.0326C127.885 57.0623 127.989 56.7502 128.405 56.7205C128.628 56.4975 128.866 56.3192 129.178 56.1854C129.461 55.8733 129.728 55.5612 130.026 55.2639C130.174 55.041 130.264 54.7288 130.487 54.5653C131.825 52.0089 131.973 47.327 131.096 44.3544C130.769 43.2694 130.308 42.3925 129.788 41.6642C129.223 41.0846 128.554 40.5941 127.796 40.2076C127.186 40.0739 126.607 39.9104 125.804 39.9847C125.759 39.9847 125.715 39.9996 125.73 40.059C125.7 40.059 125.655 40.059 125.596 40.059ZM141.814 37.9039C143.018 37.9485 144.43 37.7998 145.501 37.9782C145.739 38.3498 145.649 38.7957 145.649 39.2118C145.739 44.8449 145.649 50.8942 145.649 56.6462C145.649 57.1069 145.664 57.5825 145.649 58.0284C145.634 58.4149 145.739 58.831 145.501 59.1877C144.966 59.3215 144.192 59.2621 143.509 59.2621C142.78 59.2621 142.067 59.3661 141.591 59.1134C141.457 52.3062 141.457 44.9638 141.591 38.1417C141.621 38.0228 141.695 37.9485 141.814 37.9039ZM151.031 37.9039H154.643C154.97 38.3498 155.074 39.0186 155.178 39.6726C156.263 43.8045 157.334 47.9513 158.329 52.1873C158.567 52.217 158.493 51.9346 158.567 51.8008C158.671 51.6968 158.612 51.4441 158.716 51.3401C158.761 50.9982 158.969 50.8198 158.954 50.4185C159.221 49.8983 159.311 49.1849 159.563 48.6498C159.875 47.4014 160.292 46.242 160.648 45.0381C160.99 43.7896 161.451 42.66 161.719 41.3521C162.224 40.2968 162.343 38.8551 162.953 37.9039H164.484C165.034 38.9443 165.242 40.3266 165.718 41.4413C166.03 42.6898 166.461 43.8194 166.788 45.053C167.546 47.4459 168.334 49.8092 169.018 52.2764C169.33 51.8157 169.33 51.0428 169.553 50.5077C169.687 49.8983 169.806 49.2741 170.014 48.739C170.608 46.3015 171.173 43.8491 171.857 41.5156C172.11 40.2968 172.362 39.0483 172.779 37.9782C173.671 37.8444 175.038 37.8444 175.93 37.9782C176.004 38.8848 175.588 39.8658 175.321 40.6684C175.172 41.6494 174.815 42.4074 174.622 43.3586C174.072 45.0976 173.656 46.9406 173.091 48.6647C172.66 50.5077 172.08 52.2021 171.634 54.0451C171.337 54.8923 171.129 55.8287 170.861 56.7353C170.564 57.5677 170.46 58.5932 170.014 59.2769H167.858C167.308 58.3108 167.115 57.0029 166.624 55.9773C165.554 52.5886 164.365 49.3335 163.324 45.915C162.967 46.2866 162.967 47.0446 162.715 47.5203C162.551 48.0999 162.388 48.6796 162.18 49.2146C161.882 50.3888 161.436 51.3846 161.184 52.5886C160.753 53.6438 160.44 54.818 160.113 55.9773C159.667 56.988 159.504 58.2811 158.954 59.2026C158.389 59.381 157.497 59.2323 156.798 59.2769C156.263 58.6675 156.204 57.5677 155.877 56.7353C155.624 55.8733 155.446 54.922 155.119 54.1194C154.702 52.2467 154.078 50.5969 153.662 48.739C153.112 47.0149 152.636 45.2165 152.131 43.4329C151.848 42.5857 151.64 41.6791 151.358 40.817C151.224 39.8955 150.599 39.0632 150.822 38.0525C150.852 37.9782 150.941 37.9336 151.031 37.9039ZM181.371 37.9039C182.575 37.9485 183.972 37.7998 185.057 37.9782C185.325 38.7808 185.206 39.6429 185.206 40.5049V56.6313C185.206 57.5082 185.31 58.3554 185.057 59.1729C184.225 59.2621 183.006 59.3066 181.98 59.2472C181.683 59.2323 181.326 59.3215 181.133 59.0986C180.865 58.296 180.984 57.4488 180.984 56.557V40.5941C180.984 39.628 180.895 38.6916 181.133 38.0525C181.192 37.9782 181.282 37.9336 181.371 37.9039Z" fill="#0269B3"/>
</svg>
