<svg width="246" height="106" viewBox="0 0 246 106" fill="none" xmlns="http://www.w3.org/2000/svg">
<rect x="1" y="1" width="244" height="104" rx="9" fill="#11121E" stroke="#1F2946" stroke-width="2"/>
<path d="M82.3809 44.6096L82.8971 42.9572L81.1892 43.0108C81.045 43.0108 79.9961 42.981 78.9786 42.2433C79.0545 42.2508 79.1303 42.2612 79.2077 42.2612C80.2549 42.2612 81.2681 41.6305 81.6742 40.7294L82.4091 39.1008C81.4882 39.1127 80.6463 38.9966 80.6463 38.9966C80.6388 38.9952 79.9753 38.9104 79.2077 38.1266C78.6572 37.5645 77.9759 37.2671 77.238 37.2671C76.9152 37.2671 76.6266 37.325 76.3781 37.4038C76.4168 37.2715 76.454 37.1377 76.4748 36.9994C76.7099 35.4749 75.7281 34.3119 75.7281 34.3134L74.4441 32.7235L73.6483 34.5915C73.6453 34.5974 73.4444 35.0347 73.0845 35.2488C72.9759 34.7001 72.7095 34.0828 72.1398 33.4925C71.0657 32.38 69.758 32.2149 69.0737 32.2149C68.7569 32.2149 68.5308 32.2491 68.4757 32.258L66.9255 32.5629C67.0149 32.2163 67.2052 31.614 67.5534 31.0712L68.4088 29.7386L66.256 29.984L65.5703 28.528L64.2433 29.2121L63.016 28L61.7917 29.2121L60.4601 28.528L59.7758 29.984L57.6247 29.7386L58.4816 31.0712C58.8297 31.614 59.0201 32.2149 59.1079 32.5614L57.6292 32.2699L57.5786 32.261C57.5042 32.2491 57.2796 32.2149 56.9612 32.2149C56.2769 32.2149 54.9692 32.3814 53.8981 33.4925C53.3268 34.0814 53.0605 34.7001 52.9505 35.2488C52.5934 35.0376 52.394 34.6064 52.394 34.6064L51.5967 32.728L50.292 34.3282C50.1328 34.535 49.3459 35.6281 49.56 37.0023C49.5824 37.1391 49.6182 37.273 49.6568 37.4054C49.4099 37.3266 49.1212 37.2685 48.7984 37.2685C48.0606 37.2685 47.3792 37.566 46.8273 38.1281C46.0626 38.909 45.4021 38.9966 45.408 38.9966C45.408 38.9966 44.7103 39.1216 43.6302 39.1023L44.3607 40.7308C44.7668 41.6336 45.7815 42.2627 46.8273 42.2627C46.9061 42.2627 46.9819 42.2523 47.0593 42.2448C46.0447 42.9825 44.996 43.0123 44.8695 43.0137L43.1289 42.9572L43.6555 44.6081C43.9204 45.4588 44.8055 46.8687 46.5014 47.0204C46.317 47.7938 45.9079 48.6594 45.0094 49.0326L43.7136 49.5665L44.4202 50.7964C44.8189 51.4597 45.7547 52.2361 47.0876 52.2361C47.3762 52.2347 47.6543 52.2064 47.9222 52.1499C47.9906 52.4533 48.0769 52.7567 48.178 53.0571C48.5753 54.238 48.2331 55.0619 48.2287 55.0709L47.5889 56.4108L49.0171 56.787C49.0349 56.7931 49.4663 56.9106 50.0063 56.9106C50.2518 56.9106 50.4854 56.8853 50.7056 56.8331C50.8722 56.7945 51.0314 56.7425 51.1846 56.68C51.3691 57.0117 51.5937 57.3136 51.8556 57.5843C52.7705 58.5227 54.0662 58.9987 55.7086 58.9987H55.7145L56.8869 58.9837L54.4649 59.9891L56.3037 60.877C56.9716 61.2028 57.7646 61.5879 58.5708 61.8823L58.3418 62.51L58.9755 62.7986C59.032 62.8238 60.2504 63.3696 62.2766 63.4856C62.2766 63.4856 62.766 63.5079 63.0353 63.5079C63.3046 63.5079 63.7881 63.4841 63.7881 63.4841C65.8009 63.3651 67.0103 62.8253 67.0669 62.7986L67.7021 62.5085L67.47 61.8794C68.3002 61.576 69.1213 61.176 69.761 60.8636L71.5655 59.9876L69.1511 58.9808L70.3279 58.9956C71.9717 58.9956 73.2689 58.5198 74.1823 57.5798C74.4427 57.3106 74.6673 57.0087 74.8533 56.677C75.0065 56.7395 75.1672 56.7916 75.3338 56.8302C75.5524 56.8823 75.786 56.9075 76.0315 56.9075C76.5626 56.9075 76.9985 56.79 77.0104 56.787L78.4445 56.4078L77.8196 55.0931C77.8048 55.0589 77.4627 54.2364 77.8598 53.0542C77.961 52.7522 78.0458 52.4488 78.1143 52.1469C78.3835 52.2034 78.6647 52.2331 78.9548 52.2331C80.6522 52.2331 81.4659 51.0389 81.6237 50.7801L82.3228 49.5636L81.0271 49.0311C80.127 48.6578 79.7194 47.7908 79.5365 47.0189C81.2086 46.8761 82.1071 45.4662 82.3809 44.6096ZM59.221 33.131L59.2031 33.1355L59.2179 33.1162L59.221 33.131Z" fill="white"/>
<path d="M63.0227 33.0566C61.651 33.0581 60.623 33.5072 60.3984 34.0352L63.0227 35.0703L65.647 34.0352C65.4238 33.5072 64.3959 33.0581 63.0227 33.0566Z" fill="white"/>
<path d="M63.0439 60.4625H63.0409H63.0186H62.9934H62.9918C62.1602 60.4684 61.0162 60.2974 60.4642 60.1367L59.8008 61.9318C60.2381 62.088 61.7199 62.3855 63.0186 62.3855C64.3143 62.3855 65.7975 62.0865 66.2334 61.9318L65.5715 60.1367C65.018 60.2988 63.8755 60.4684 63.0439 60.4625Z" fill="white"/>
<path d="M68.0656 58.6758C67.5716 58.9554 66.4693 59.3748 65.8281 59.5697L66.3666 61.0524C67.359 60.7817 68.1772 60.465 68.854 60.1259L67.7368 59.754L68.0656 58.6758Z" fill="white"/>
<path d="M57.97 58.6758L58.3003 59.754L57.1816 60.1259C57.857 60.465 58.6797 60.7817 59.6674 61.0524L60.206 59.5697C59.5678 59.3748 58.464 58.9539 57.97 58.6758Z" fill="white"/>
<path d="M63.0187 31.3411C64.0526 31.3411 65.0672 31.588 65.8468 32.0223C65.9182 31.7828 66.0178 31.4928 66.1533 31.1895L65.8587 31.2251L65.5492 31.2578L65.4183 30.9767L65.0241 30.1439L64.3055 30.5187L64.0258 30.6615L63.8027 30.4413L63.0217 29.668L62.2422 30.4413L62.019 30.6615L61.7393 30.5187L61.0164 30.1439L60.6266 30.9767L60.4927 31.2578L60.1832 31.2251L59.8887 31.1895C60.0241 31.4943 60.1223 31.7828 60.1951 32.0223C60.9762 31.588 61.9878 31.3411 63.0187 31.3411Z" fill="white"/>
<path d="M78.8055 40.966C78.9393 41.0121 79.0762 41.0329 79.2116 41.0329C79.7963 41.0329 80.3616 40.6551 80.5565 40.2223C80.5565 40.2223 79.4839 40.1569 78.331 38.9864C77.9635 38.6072 77.5752 38.4941 77.2419 38.4941C76.7243 38.4941 76.3359 38.7677 76.3359 38.7677C77.7284 39.5085 78.0126 40.6983 78.8055 40.966Z" fill="white"/>
<path d="M46.8277 41.0329C46.9631 41.0329 47.1 41.0121 47.2309 40.966C48.0268 40.6983 48.3125 39.5085 49.7049 38.7677C49.7049 38.7677 49.3151 38.4941 48.8003 38.4941C48.4656 38.4941 48.0773 38.6072 47.7085 38.9864C46.5569 40.1569 45.4844 40.2223 45.4844 40.2223C45.6762 40.6551 46.243 41.0329 46.8277 41.0329Z" fill="white"/>
<path d="M79.1835 45.8024C79.2074 45.8038 79.2282 45.8038 79.2534 45.8038C80.7128 45.8038 81.2082 44.2408 81.2082 44.2408H81.18C80.9122 44.2408 78.7417 44.1783 77.2079 42.2285C76.1977 40.9465 75.3707 39.8192 73.7357 39.376L73.575 39.3477L73.5393 39.1842C73.4947 38.9342 73.6657 38.7008 74.0541 38.448C76.3093 36.9712 74.7786 35.0883 74.7786 35.0883C74.7786 35.0883 74.1345 36.5948 72.6928 36.5948C72.6587 36.5948 72.6215 36.5934 72.5857 36.5934C72.4221 36.5845 72.2643 36.5785 72.1052 36.5443L71.8389 36.4923C71.8389 36.4923 72.2496 35.3753 71.2587 34.3491C70.5119 33.5743 69.603 33.4434 69.0778 33.4434C68.813 33.4434 68.6449 33.4776 68.6449 33.4776C69.1433 34.129 69.5033 35.2088 68.9276 35.875C68.4307 36.4476 67.2168 36.4759 67.2168 37.3295C67.2168 37.6909 67.5545 38.1134 68.1615 38.4926C69.9868 39.6422 71.7988 41.1667 72.5515 43.2101C73.4933 45.7593 72.4325 47.4502 70.9181 48.4199C70.9181 48.4199 71.3927 48.8571 72.0814 48.9122C72.2213 48.9256 72.3581 48.9315 72.4861 48.9315C73.9395 48.9315 74.6908 48.2504 74.6908 48.2504C74.6908 48.2504 74.5673 49.1918 73.8101 50.0663C73.1124 50.8738 72.196 51.3483 70.7991 51.3691C70.7991 51.3691 70.7544 52.0176 71.3733 52.5782C71.769 52.9322 72.6839 53.0482 72.6839 53.0482C72.6839 53.0482 70.9716 53.3947 70.7827 55.9231C70.68 57.2928 70.3304 57.7687 70.3304 57.7687H70.3616C74.3352 57.7687 74.2325 54.3615 74.2325 54.3615C74.2325 54.3615 74.5093 55.3698 75.6176 55.633C75.7515 55.6688 75.8943 55.6821 76.0312 55.6821C76.3882 55.6821 76.6977 55.5988 76.6977 55.5988C76.6977 55.5988 76.1174 54.3749 76.6931 52.663C77.1707 51.2427 77.0933 50.1897 77.0933 50.1897C77.0933 50.1897 77.629 50.9987 78.9559 51.0062H78.9693C80.0746 51.0062 80.5566 50.1689 80.5566 50.1689C77.9071 49.0698 78.1689 45.5213 78.1689 45.5213C78.1689 45.5213 78.5126 45.7771 79.1835 45.8024ZM78.3861 49.5085C77.309 48.9776 76.6277 47.5677 76.4625 47.0591C76.2841 49.8551 74.9184 51.796 73.3222 53.664C72.4936 54.6321 72.2049 55.5735 72.2049 55.5735C72.2049 55.5735 72.3641 54.5072 73.0811 53.6386C74.5704 51.8495 75.985 49.6231 76.0907 47.0487C76.1635 45.252 75.7009 43.7946 74.9794 42.5944C75.3825 43.8451 75.326 45.377 73.9559 46.8062C73.9559 46.8062 76.6828 43.5388 72.87 40.1895C71.3436 38.9149 69.6744 38.1282 68.8146 37.5704C71.9208 38.5833 73.4367 37.4678 73.4367 37.4678C72.4444 38.3275 71.1606 38.3126 70.3647 38.1892C70.5804 38.2948 70.805 38.4048 71.0475 38.5342C73.6657 39.956 76.0193 42.2954 76.4209 45.5362V45.5109C77.0309 48.6921 78.3861 49.5085 78.3861 49.5085Z" fill="white"/>
<path d="M53.3525 53.0482C53.3525 53.0482 54.2673 52.9337 54.6631 52.5782C55.2804 52.0176 55.2374 51.3691 55.2374 51.3691C53.8389 51.3499 52.924 50.8738 52.2218 50.0678C51.4706 49.1933 51.3456 48.2518 51.3456 48.2518C51.3456 48.2518 52.0968 48.933 53.5488 48.933C53.6798 48.933 53.8151 48.9271 53.9549 48.9137C54.6437 48.8587 55.1198 48.4214 55.1198 48.4214C53.6054 47.4518 52.5432 45.7593 53.4834 43.2101C54.2377 41.1681 56.0481 39.6422 57.8734 38.4926C58.4804 38.1134 58.8181 37.6924 58.8181 37.3295C58.8181 36.4759 57.6057 36.4476 57.1089 35.875C56.5331 35.2088 56.8946 34.1275 57.3914 33.4776C57.3914 33.4776 57.2263 33.4434 56.96 33.4434C56.4364 33.4434 55.5274 33.5743 54.7806 34.3491C53.7868 35.3753 54.1989 36.4923 54.1989 36.4923L53.9327 36.5443C53.7735 36.5785 53.6143 36.5845 53.4521 36.5934C53.415 36.5934 53.3822 36.5948 53.3465 36.5948C51.902 36.5948 51.2608 35.0898 51.2608 35.0898C51.2608 35.0898 49.7299 36.9725 51.9838 38.4494C52.3721 38.7023 52.5416 38.9358 52.4971 39.1856L52.4613 39.3492L52.2977 39.3775C50.6658 39.8206 49.8372 40.9481 48.827 42.2301C47.2962 44.1768 45.1287 44.2408 44.8579 44.2408H44.8281C44.8281 44.2408 45.3235 45.8038 46.7829 45.8038C46.8067 45.8038 46.8275 45.8038 46.8528 45.8024C47.5238 45.7785 47.869 45.5213 47.869 45.5213C47.869 45.5213 48.1278 49.0684 45.4812 50.1689C45.4812 50.1689 45.9633 51.0062 47.0686 51.0062H47.0819C48.4104 50.9987 48.9445 50.1897 48.9445 50.1897C48.9445 50.1897 48.8671 51.2427 49.3431 52.663C49.9189 54.3749 49.3418 55.5988 49.3418 55.5988C49.3418 55.5988 49.6511 55.6821 50.0067 55.6821C50.145 55.6821 50.2864 55.6688 50.4188 55.633C51.5256 55.3698 51.8038 54.3615 51.8038 54.3615C51.8038 54.3615 51.7026 57.7687 55.6762 57.7687H55.7045C55.7045 57.7687 55.3563 57.2928 55.2552 55.9231C55.0647 53.3947 53.3525 53.0482 53.3525 53.0482ZM52.7143 53.664C51.118 51.796 49.7538 49.8551 49.5737 47.0591C49.4087 47.5662 48.7302 48.9776 47.6533 49.5085C47.6533 49.5085 49.007 48.6921 49.6154 45.5109V45.5362C50.0186 42.297 52.3706 39.956 54.9904 38.5342C55.2299 38.4033 55.4574 38.2933 55.6717 38.1892C54.8758 38.3126 53.592 38.3275 52.5997 37.4678C52.5997 37.4678 54.1157 38.5833 57.2203 37.5704C56.3605 38.1282 54.6928 38.9149 53.1665 40.1895C49.3521 43.5388 52.0805 46.8062 52.0805 46.8062C50.7089 45.3755 50.6538 43.8451 51.057 42.5944C50.334 43.796 49.8727 45.252 49.9472 47.0487C50.0513 49.6231 51.4661 51.8495 52.9523 53.6386C53.6708 54.5057 53.833 55.5735 53.833 55.5735C53.833 55.5735 53.5413 54.6321 52.7143 53.664Z" fill="white"/>
<path d="M60.0834 40.5917C60.1488 40.6616 60.2127 40.7375 60.2738 40.8134C60.2887 40.8312 60.3021 40.8475 60.3168 40.8684C60.3734 40.9442 60.4315 41.0245 60.4865 41.1064C60.4984 41.1227 60.5103 41.142 60.5237 41.1614C60.5906 41.2625 60.6531 41.3666 60.7156 41.4736C61.2884 42.4628 62.2062 43.0531 63.02 43.0547C63.8352 43.0531 64.7501 42.4628 65.3259 41.4736C65.3898 41.3636 65.4538 41.2566 65.5207 41.1569C65.5312 41.142 65.5415 41.1286 65.5505 41.1137C65.607 41.029 65.6665 40.9457 65.729 40.8654C65.7424 40.8475 65.7543 40.8327 65.7661 40.8178C65.8302 40.739 65.8956 40.6616 65.9625 40.5903C65.9745 40.5784 65.9834 40.568 65.9938 40.559C66.2854 40.2601 66.6336 40.0325 67.0887 39.9061L66.8864 39.7886H66.8745L66.0682 39.3201L65.2396 38.8457L63.0259 40.0503L63.02 40.0459L63.0155 40.0503L60.8004 38.8457L59.9732 39.3186L59.1655 39.7872H59.1565L58.9512 39.9046C59.4079 40.0311 59.7546 40.2556 60.0476 40.5546C60.061 40.5665 60.0699 40.5799 60.0834 40.5917ZM62.1244 40.495H63.0617H63.9973V41.1375C63.7772 40.8684 63.3487 40.9234 63.3487 40.9234V41.85C63.3487 41.85 63.3651 42.305 63.5243 42.5029H63.0617H62.5975C62.7596 42.3065 62.7745 41.85 62.7745 41.85V40.9234C62.7745 40.9234 62.3476 40.8684 62.1244 41.1375V40.495Z" fill="white"/>
<path d="M62.8307 39.2491V35.4879L60.4355 34.6758L61.0678 38.3211L62.8307 39.2491ZM62.316 36.4115V37.0152L62.2 36.9617C62.194 36.9573 62.0243 36.9185 61.7269 36.6836C61.2359 36.3029 61.227 35.9519 61.227 35.9519L62.316 36.4115Z" fill="white"/>
<path d="M64.9752 38.3211L65.6046 34.6758L63.2109 35.4879V39.2491L64.9752 38.3211ZM63.7256 36.4115L64.8146 35.9534C64.8146 35.9534 64.8057 36.3043 64.3133 36.6851C64.0172 36.9201 63.8461 36.9587 63.8402 36.9632L63.7241 37.0168V36.4115H63.7256Z" fill="white"/>
<path d="M59.4397 47.9682C59.6732 48.053 59.9559 48.071 60.1003 48.071C60.1062 48.053 60.1137 48.0307 60.1211 48.004C60.1345 47.9608 60.1463 47.9192 60.1553 47.8716C60.1954 47.6634 60.2104 47.4269 60.2133 47.2752C60.1151 47.2142 59.9768 47.1057 59.8994 46.9435C59.8101 46.7562 59.6837 46.6699 59.4977 46.6699C59.2568 46.6699 58.9979 46.8142 58.8878 46.8826C58.8 47.4016 59.1824 47.8731 59.4397 47.9682Z" fill="white"/>
<path d="M64.7355 45.9727C64.2907 46.456 63.4204 47.2978 63.3772 47.3409L63.3252 47.3944L60.5745 47.3513C60.573 47.6235 60.5284 47.8555 60.4852 48.025C60.4778 48.0533 60.4703 48.0831 60.4629 48.1128L63.7357 48.7003C64.0765 48.4622 65.0137 47.7781 65.3766 47.5105C65.1118 47.1238 65.0866 46.6657 65.1461 46.343C64.9735 46.2314 64.8411 46.1066 64.7355 45.9727Z" fill="white"/>
<path d="M65.1111 42.6665C64.4774 43.2957 63.8689 43.5277 63.3259 43.5812C63.2278 43.5916 63.1281 43.5976 63.0269 43.5976H63.0195H63.0135C62.9123 43.5976 62.8112 43.5916 62.713 43.5812C62.6178 43.5723 62.5182 43.5574 62.4184 43.5351C62.3827 43.6764 62.3381 43.9724 62.4661 44.252C62.5807 44.5063 62.8142 44.6951 63.1548 44.8201L63.2694 44.8648L63.2709 44.9881C63.2709 45.0253 63.2976 45.8254 64.1709 46.047C64.3137 45.8998 64.4432 45.7675 64.5384 45.6575C64.3598 45.2381 64.4535 44.8097 64.7124 44.6001C64.7005 44.6446 64.5875 45.6946 65.4295 46.0842L65.5678 46.1498L65.5262 46.2969C65.5128 46.3416 65.2316 47.3573 66.2506 47.7351L66.4307 47.8035L66.3503 47.979C66.3325 48.0177 65.9323 48.9398 66.8739 49.4632H68.9165V47.8422C68.1906 47.753 67.8826 47.1699 67.8038 46.7565C67.466 46.6985 67.2043 46.5528 67.0257 46.3148C66.5973 45.7512 66.9662 45.2351 66.9707 45.2067C66.9692 45.2113 66.9707 45.7615 67.3098 46.1006C67.478 46.2642 67.6773 46.3906 67.9793 46.4189L68.1281 46.4323L68.1415 46.584C68.1445 46.6167 68.2263 47.3604 68.9181 47.4778L68.9165 44.1673C68.9165 43.6541 69.0668 43.138 69.2468 42.6621H65.1111V42.6665Z" fill="white"/>
<path d="M59.6136 44.1813L59.5586 46.2902L59.7981 46.326L60.3842 44.3033L60.0867 43.6816L59.6136 44.1813Z" fill="white"/>
<path d="M66.076 53.8519C66.0939 53.8519 66.1148 53.8549 66.1341 53.8594C66.4986 53.9635 66.5909 55.2781 67.2305 55.3957C67.293 55.4091 67.351 55.412 67.4016 55.412C67.586 55.412 67.6961 55.3332 67.8152 55.1934C67.8152 55.1934 67.4938 54.6877 67.2528 54.3471C66.9329 53.901 66.6846 53.3611 66.0894 53.3611C66.076 53.3611 66.0582 53.3611 66.0434 53.3626C65.847 53.373 65.7265 53.4682 65.7265 53.4682C65.4855 53.3165 65.2608 53.2644 65.057 53.2644C64.6836 53.2644 64.3935 53.4355 64.2493 53.4355H64.2433L62.9133 53.3046C62.7051 53.2852 62.5414 53.0756 62.4819 52.9938C62.467 52.9714 62.4595 52.958 62.4595 52.958C62.4595 52.9224 62.4595 52.8852 62.4566 52.8524C62.412 51.7653 61.57 51.2998 61.2709 51.2924C61.2709 51.2924 61.3067 51.0857 61.2249 51.0068L60.9318 51.3622L59.9692 50.8789L60.655 51.6805L60.0734 52.3334C60.0005 52.4078 60.0094 52.5089 60.0392 52.5505L60.2906 52.7721L60.6089 52.5788C60.6253 52.5669 60.6536 52.5639 60.6892 52.5639C60.777 52.5639 60.9094 52.5863 61.0284 52.5863C61.1578 52.5863 61.2709 52.558 61.2844 52.436C61.2442 52.8391 60.8708 53.5396 61.1163 54.0899L61.2977 54.5048L60.1225 54.3352L59.572 55.2647C59.4025 55.5741 59.3756 55.9088 59.5392 56.0902L59.7446 56.3475C59.7446 56.3475 60.0332 56.0411 60.0986 55.8404L60.0049 55.7377C59.9261 55.6514 59.9305 55.5741 59.9782 55.4805L60.3232 54.9078L61.7113 55.235L61.7841 55.1102C61.8779 54.9539 62.0133 54.9063 62.1621 54.9063C62.223 54.9063 62.2855 54.9138 62.3509 54.9242C62.6084 54.9748 63.0323 55.0432 63.4563 55.0432C63.922 55.0432 64.3831 54.9599 64.6286 54.6848C65.1314 55.4299 66.1504 55.5488 66.0701 55.9266L65.8024 57.2027C65.9794 57.1952 66.1504 57.1833 66.3126 57.161L66.567 55.8329C66.5952 55.6887 66.6221 55.4938 66.6221 55.4938C66.5239 55.3942 66.2859 55.183 66.1519 54.9271C65.972 54.5821 66.0701 54.4021 65.902 53.953C65.908 53.956 65.9586 53.8519 66.076 53.8519ZM60.8841 51.9868C60.8157 51.9854 60.7666 51.9274 60.7696 51.859C60.7756 51.7935 60.8306 51.7415 60.8976 51.7474C60.966 51.7505 61.015 51.8099 61.0121 51.8754C61.0061 51.9407 60.9496 51.9914 60.8841 51.9868Z" fill="white"/>
<path d="M58.9884 55.0617C58.9884 55.0617 59.4482 54.8728 59.4898 54.7375L59.4289 54.5843C59.3857 54.4847 59.3917 54.3761 59.475 54.3166L59.9718 53.973L60.802 54.1322C60.802 54.1322 60.6517 53.9448 60.6666 53.6934L59.8751 53.5254L59.1283 53.9805C58.8085 54.22 58.7847 54.6111 58.8903 54.843L58.9884 55.0617Z" fill="white"/>
<path d="M64.8574 57.2217C65.0062 57.2158 65.1698 57.2128 65.3499 57.2128C65.3499 57.2128 65.7768 55.965 65.8006 55.9248C65.5611 55.8192 65.0643 55.556 64.8723 55.4355C64.9988 55.6244 65.3067 55.8416 65.2457 56.0081L64.8574 57.2217Z" fill="white"/>
<path d="M68.9208 49.8223H57.1191V54.2602C57.1191 56.0746 58.4328 57.2109 60.3712 57.2109C61.9913 57.2109 62.4182 57.2734 63.0207 57.8713C63.4357 57.4578 63.7795 57.3032 64.4845 57.2451L64.501 57.1768L64.8729 56.0271C64.852 56.0018 64.2436 55.3102 64.2436 55.3102C64.0026 55.3905 63.8003 55.4039 63.4596 55.4039C63.11 55.4039 62.7157 55.3637 62.2888 55.2835C62.2456 55.2731 62.2055 55.2701 62.1653 55.2701C62.1133 55.2701 62.1087 55.2746 62.0954 55.2998L62.021 55.4218L61.8856 55.6449L61.6312 55.5868L60.4991 55.3207L60.3445 55.5764L60.3682 55.6032L60.5066 55.7549L60.4456 55.9527C60.3623 56.2115 60.0915 56.5134 60.0097 56.5967L59.7271 56.9001L59.4697 56.5743L59.2763 56.332C59.0725 56.1044 59.0248 55.7549 59.1394 55.389C59.1364 55.3921 59.132 55.3935 59.1275 55.3935L58.8077 55.5259L58.6634 55.2136L58.5622 54.9919C58.3881 54.6023 58.4521 54.0326 58.9207 53.6891L59.8327 53.1745L60.7 53.3456C60.7209 53.2623 60.7521 52.9648 60.7773 52.889C60.761 52.8876 60.7446 52.883 60.7282 52.883L60.2284 53.0689L59.7464 52.7358C59.7464 52.7358 59.5575 52.5544 59.7285 52.3729L60.1956 51.6665L59.013 50.1822L60.8309 50.9288L60.9514 50.7786L61.1969 50.4856L61.4751 50.7504C61.5539 50.8262 61.5985 50.9198 61.6208 51.0135C62.1221 51.2084 63.0193 51.784 63.0981 52.7195L62.8169 52.8325V52.8399C62.8809 52.9157 62.9344 52.9471 62.9509 52.9499L64.248 53.0779C64.2808 53.0719 64.3224 53.0571 64.3686 53.0437C64.5293 52.9886 64.7717 52.9098 65.0589 52.9098C65.2924 52.9098 65.5185 52.9634 65.7357 53.0645C65.816 53.0347 65.9142 53.0124 66.0273 53.005L66.0898 53.0035C66.7845 53.0035 67.1296 53.5226 67.4064 53.936C67.4525 54.0073 67.4986 54.0758 67.5462 54.1427C67.7886 54.4848 68.1056 54.986 68.1189 55.0068L68.2617 55.2298L68.0863 55.4337C67.9509 55.5898 67.7485 55.7728 67.4004 55.7728C67.329 55.7728 67.2502 55.7653 67.1653 55.749C67.0909 55.7355 67.0241 55.7133 66.9585 55.6865C66.9481 55.7549 66.9348 55.8367 66.9214 55.9066L66.6937 57.0934C68.055 56.7587 68.9193 55.7311 68.9193 54.2617L68.9208 49.8223Z" fill="#FFDD2D"/>
<path d="M57.1183 49.4662H66.2957C65.8374 48.9933 65.8434 48.394 65.961 48.0043C65.8271 47.9403 65.717 47.863 65.6188 47.7797C65.2603 48.0444 64.1653 48.8415 63.8797 49.0409L63.8187 49.0825L60.2171 48.4311H60.1442C60.0579 48.4311 59.9315 48.4281 59.7931 48.4118C59.7545 48.5739 59.6146 48.6854 59.4539 48.6854C59.4361 48.6854 59.4152 48.684 59.3959 48.6795C59.3022 48.6631 59.2203 48.6155 59.1653 48.5367C59.1088 48.4594 59.0865 48.3672 59.1029 48.272L59.1162 48.1946C58.7443 47.9329 58.4022 47.3484 58.5539 46.7326L58.5687 46.6672L58.6208 46.6301C58.6282 46.6241 58.6907 46.5825 58.783 46.5289L58.5212 46.4887C58.423 46.4709 58.3575 46.3801 58.3724 46.2835C58.3888 46.1854 58.481 46.1154 58.5777 46.1348L59.201 46.233L59.2576 44.0378L60.1858 43.0562L60.7645 44.2742L60.1531 46.3862L60.7036 46.4724C60.8003 46.4873 60.8672 46.578 60.8523 46.6776C60.8375 46.7654 60.7631 46.8263 60.6753 46.8263C60.6664 46.8263 60.6559 46.8263 60.6471 46.8249L60.1992 46.752C60.2052 46.7654 60.2141 46.7728 60.22 46.7877C60.2677 46.8858 60.3733 46.9573 60.4359 46.987L63.182 47.0301C63.2981 46.9171 63.5866 46.6345 63.8827 46.3356C63.2073 46.0798 62.9619 45.4967 62.9201 45.1101C62.5423 44.9495 62.282 44.7085 62.1376 44.3947C61.9621 44.0065 62.0246 43.6184 62.0707 43.4295C61.7047 43.2956 61.3195 43.0517 60.9267 42.6621H56.791C56.968 43.138 57.1183 43.654 57.1183 44.1672V49.4662Z" fill="#FFDD2D"/>
<path d="M60.8997 51.7466C60.8327 51.7405 60.7762 51.7927 60.7718 51.858C60.7672 51.9265 60.8178 51.9844 60.8863 51.986C60.9517 51.9919 61.0097 51.9413 61.0157 51.8744C61.0157 51.8089 60.9681 51.748 60.8997 51.7466Z" fill="black"/>
<path d="M68.9031 59.7965L68.2233 59.5363L68.4106 58.8343L68.6175 58.0684C68.6175 58.0684 67.4125 58.7213 65.7151 59.212C65.233 59.3504 64.8686 59.4128 64.8686 59.4128V59.9334C64.8686 59.9334 63.961 60.091 63.0432 60.091H63.0328H63.0194H63.0015H62.9912C62.0732 60.091 61.1658 59.9334 61.1658 59.9334V59.4128C61.1658 59.4128 60.7998 59.3504 60.3193 59.212C58.6219 58.7213 57.4183 58.0684 57.4183 58.0684L57.6222 58.8343L57.8141 59.5363L57.1327 59.7965L56.377 60.0792C57.2443 60.497 58.4448 61.1068 59.5442 61.4072L59.2854 62.1152C59.2854 62.1152 60.6793 62.7502 63.0015 62.7562V62.7576H63.009H63.0194H63.0284H63.0343V62.7562C65.3595 62.7502 66.7519 62.1152 66.7519 62.1152L66.4916 61.4072C67.591 61.1068 68.7945 60.497 69.6574 60.0792L68.9031 59.7965ZM57.1833 60.1267L58.302 59.7549L57.9718 58.6767C58.4642 58.9563 59.5695 59.3757 60.2092 59.5705L59.6691 61.0532C58.6814 60.7811 57.8587 60.4643 57.1833 60.1267ZM63.0194 62.3843C61.7207 62.3843 60.2375 62.0854 59.8016 61.9308L60.4651 60.1356C61.0155 60.2962 62.161 60.4673 62.9926 60.4614H62.9941H63.0194H63.0417H63.0447C63.8763 60.4673 65.0188 60.2962 65.5723 60.1356L66.2342 61.9308C65.7983 62.0869 64.3166 62.3843 63.0194 62.3843ZM66.3667 61.0532L65.8281 59.5705C66.4694 59.3757 67.5717 58.9563 68.0655 58.6767L67.7368 59.7549L68.854 60.1267C68.1771 60.4643 67.3589 60.7811 66.3667 61.0532Z" fill="black"/>
<path d="M63.0178 31.7768C64.4013 31.7768 65.5082 32.2349 66.1196 32.7242C66.1196 32.7242 66.301 31.631 66.9214 30.6658L65.8072 30.7922L65.224 29.5534L64.1038 30.1304L63.0178 29.0566L61.9347 30.1304L60.8131 29.5534L60.2314 30.7922L59.1172 30.6658C59.7375 31.631 59.919 32.7242 59.919 32.7242C60.532 32.2349 61.6357 31.7768 63.0178 31.7768ZM60.1808 31.2265L60.4903 31.2593L60.6241 30.9781L61.014 30.1453L61.7369 30.5186L62.0166 30.6614L62.2398 30.4413L63.0193 29.6679L63.8003 30.4413L64.0235 30.6614L64.3031 30.5186L65.0216 30.1453L65.4159 30.9781L65.5468 31.2593L65.8563 31.2265L66.1508 31.1908C66.0154 31.4957 65.9158 31.7842 65.8444 32.0237C65.0648 31.5894 64.0502 31.3425 63.0163 31.3425C61.9869 31.3425 60.9738 31.5894 60.1913 32.0237C60.1184 31.7842 60.0202 31.4942 59.8848 31.1908L60.1808 31.2265Z" fill="black"/>
<path d="M79.249 46.2806C81.0388 46.2806 81.6368 44.4602 81.6621 44.3828L81.8614 43.7419L81.1904 43.7627H81.1875C80.9509 43.7627 78.9769 43.7106 77.5769 41.9319L77.4445 41.7668C76.5296 40.6038 75.6623 39.4988 74.1122 38.9946C74.1568 38.9544 74.2208 38.9039 74.3086 38.8473C75.1312 38.306 75.6103 37.6486 75.7307 36.8857C75.9063 35.7375 75.1744 34.8228 75.1416 34.7857L74.6432 34.17L74.3324 34.9002C74.3116 34.9463 73.7879 36.1153 72.687 36.1153H72.6052C72.5293 36.1108 72.4579 36.1078 72.3865 36.1019C72.4252 35.5799 72.3299 34.7723 71.5981 34.0153C70.7188 33.1036 69.6388 32.9668 69.0735 32.9668C68.7715 32.9668 68.5706 33.004 68.5498 33.0069L67.797 33.1557L68.2612 33.7669C68.6257 34.2384 68.9559 35.1084 68.5647 35.5636C68.4397 35.7078 68.1824 35.8253 67.9354 35.9428C67.4281 36.1762 66.7363 36.5005 66.7363 37.3273C66.7363 37.8628 67.1514 38.422 67.9042 38.8979C70.1327 40.2989 71.5073 41.7608 72.1009 43.3745C73.0188 45.8567 71.8212 47.2725 70.6578 48.0177L70.1357 48.3537L70.5923 48.7731C70.6533 48.8267 71.2127 49.319 72.0384 49.3904C72.1946 49.4008 72.3448 49.4098 72.4846 49.4098C73.0142 49.4098 73.4651 49.3264 73.831 49.2149C73.7299 49.3919 73.6063 49.5718 73.4501 49.7533C72.7852 50.5237 71.967 50.8746 70.7902 50.8926L70.3529 50.9L70.3187 51.3387C70.3141 51.4264 70.2814 52.24 71.052 52.9315C71.1696 53.0386 71.3124 53.1264 71.4612 53.1992C70.939 53.6692 70.4079 54.4872 70.3053 55.8896C70.2189 57.0601 69.9393 57.4929 69.9363 57.4974L69.4528 58.2351L70.3261 58.2469C71.769 58.2469 72.8744 57.8484 73.6405 57.0601C74.0928 56.5932 74.3517 56.0667 74.5049 55.5996C74.7563 55.8138 75.0807 56.0012 75.5031 56.1009C75.6638 56.138 75.8393 56.1589 76.0283 56.1589C76.4359 56.1589 76.7765 56.0726 76.8152 56.0637L77.3731 55.9149L77.1262 55.3944C77.1083 55.3528 76.6427 54.3087 77.144 52.8185C77.3597 52.1745 77.4698 51.5975 77.5234 51.1483C77.8745 51.3313 78.3446 51.4829 78.953 51.4845C80.3335 51.4845 80.9421 50.4538 80.9703 50.4106L81.2425 49.9377L80.7382 49.7295C79.0929 49.0468 78.7284 47.2131 78.6555 46.2196C78.8042 46.2478 78.9738 46.2746 79.1657 46.2806H79.249ZM80.5537 50.1683C80.5537 50.1683 80.0717 51.0056 78.9664 51.0056H78.953C77.626 50.9981 77.0905 50.189 77.0905 50.189C77.0905 50.189 77.1679 51.242 76.6888 52.6623C76.1131 54.3741 76.6932 55.5981 76.6932 55.5981C76.6932 55.5981 76.3838 55.6815 76.0267 55.6815C75.89 55.6815 75.7472 55.6681 75.6132 55.6323C74.5049 55.3692 74.2282 54.3607 74.2282 54.3607C74.2282 54.3607 74.3309 57.7681 70.3573 57.7681H70.3261C70.3261 57.7681 70.6756 57.2921 70.7798 55.9223C70.9687 53.3941 72.681 53.0476 72.681 53.0476C72.681 53.0476 71.7677 52.933 71.3719 52.5776C70.753 52.0169 70.7962 51.3684 70.7962 51.3684C72.1946 51.3491 73.1095 50.8732 73.8072 50.0656C74.563 49.1911 74.6879 48.2497 74.6879 48.2497C74.6879 48.2497 73.9366 48.9309 72.4831 48.9309C72.3552 48.9309 72.2183 48.9249 72.0786 48.9115C71.3912 48.8565 70.9152 48.4192 70.9152 48.4192C72.4282 47.4495 73.4903 45.7571 72.5487 43.2079C71.7944 41.1659 69.9824 39.64 68.1586 38.4903C67.5516 38.1112 67.2139 37.6903 67.2139 37.3273C67.2139 36.4737 68.4278 36.4469 68.9261 35.8728C69.5005 35.2066 69.1404 34.1253 68.642 33.4754C68.642 33.4754 68.8101 33.4412 69.075 33.4412C69.6001 33.4412 70.5091 33.5735 71.2559 34.3469C72.2481 35.3731 71.8361 36.49 71.8361 36.49L72.1023 36.5421C72.2615 36.5763 72.4192 36.5822 72.5829 36.5897C72.6186 36.5897 72.6542 36.5912 72.69 36.5912C74.1315 36.5912 74.7756 35.0846 74.7756 35.0846C74.7756 35.0846 76.308 36.9689 74.0527 38.4442C73.6644 38.6971 73.4933 38.9306 73.5379 39.1805L73.5736 39.3441L73.7342 39.3723C75.3692 39.8155 76.1964 40.9429 77.2065 42.2249C78.7403 44.1747 80.9108 44.2371 81.1786 44.2371H81.2069C81.2069 44.2371 80.7115 45.8002 79.252 45.8002C79.2282 45.8002 79.2074 45.8002 79.1821 45.7987C78.5111 45.7749 78.1676 45.5176 78.1676 45.5176C78.1676 45.5176 77.9041 49.0676 80.5537 50.1683Z" fill="black"/>
<path d="M76.1091 39.1925C76.7771 39.548 77.1654 40.0239 77.5061 40.4463C77.8408 40.8582 78.1592 41.2553 78.656 41.4204C78.8331 41.4814 79.0205 41.5096 79.2109 41.5096C79.9578 41.5096 80.7075 41.053 80.9917 40.421L81.2773 39.7874L80.5855 39.7457C80.5528 39.7443 79.6632 39.664 78.6724 38.6512C78.2647 38.2363 77.7724 38.0176 77.2413 38.0176C76.5926 38.0176 76.1121 38.3418 76.0586 38.3745L75.4219 38.8222L76.1091 39.1925ZM77.2428 38.4965C77.576 38.4965 77.9643 38.6096 78.3317 38.9888C79.4846 40.1593 80.5572 40.2246 80.5572 40.2246C80.3624 40.656 79.7971 41.0352 79.2124 41.0352C79.077 41.0352 78.9417 41.0143 78.8063 40.9682C78.0134 40.7005 77.7292 39.5107 76.3353 38.7702C76.3353 38.7702 76.725 38.4965 77.2428 38.4965Z" fill="black"/>
<path d="M76.4208 45.5093V45.5331C76.0192 42.2939 73.6657 39.9545 71.0474 38.5312C70.8049 38.4018 70.5817 38.2918 70.3646 38.1862C71.162 38.3096 72.4458 38.3245 73.4366 37.4648C73.4366 37.4648 71.9206 38.5803 68.8145 37.5675C69.6743 38.1251 71.3449 38.912 72.8698 40.1865C76.6826 43.5358 73.9542 46.8032 73.9542 46.8032C75.3244 45.374 75.3809 43.8421 74.9778 42.5914C75.6993 43.7915 76.1605 45.249 76.089 47.0457C75.9835 49.6201 74.5687 51.8465 73.0795 53.6356C72.364 54.5041 72.2033 55.5705 72.2033 55.5705C72.2033 55.5705 72.4919 54.6291 73.3205 53.6609C74.9168 51.793 76.2809 49.8521 76.4595 47.056C76.6247 47.5632 77.3045 48.9746 78.383 49.5056C78.386 49.5071 77.0307 48.6905 76.4208 45.5093Z" fill="black"/>
<path d="M56.0995 57.4973C56.0979 57.4929 55.8213 57.0601 55.7321 55.8896C55.6278 54.4871 55.0982 53.6692 54.5746 53.1992C54.7264 53.1278 54.8662 53.0401 54.9837 52.9315C55.7529 52.2399 55.7201 51.4264 55.7157 51.3387L55.6859 50.9L55.2456 50.8925C54.0718 50.8732 53.2521 50.5222 52.5871 49.7533C52.4324 49.5718 52.3074 49.3918 52.2062 49.2149C52.5722 49.3264 53.02 49.4098 53.5511 49.4098C53.6939 49.4098 53.8412 49.4008 53.9974 49.3904C54.8231 49.3189 55.3825 48.8282 55.4449 48.7731L55.9016 48.3537L55.3795 48.0177C54.2117 47.2711 53.0185 45.8552 53.9349 43.3744C54.5285 41.7608 55.9016 40.2989 58.1331 38.8979C58.8858 38.422 59.298 37.8627 59.298 37.3273C59.298 36.5005 58.6076 36.1748 58.1004 35.9427C57.8534 35.8252 57.5961 35.7077 57.471 35.5636C57.0783 35.1099 57.4101 34.2384 57.7731 33.7669L58.2402 33.1557L57.4845 33.0069C57.4622 33.004 57.2643 32.9668 56.9608 32.9668C56.3955 32.9668 55.3184 33.1036 54.4377 34.0153C53.7044 34.7738 53.6076 35.5813 53.6449 36.1019C53.5734 36.1078 53.5021 36.1108 53.4277 36.1153H53.3473C52.2435 36.1153 51.7213 34.9463 51.7005 34.9002L51.3896 34.17L50.8867 34.7857C50.8585 34.8228 50.1235 35.739 50.302 36.8857C50.4211 37.6486 50.9001 38.306 51.7228 38.8473C51.812 38.9038 51.8745 38.9544 51.9192 38.9946C50.3704 39.4988 49.5047 40.6053 48.5897 41.7683L48.4574 41.9333C47.059 43.7121 45.0804 43.7642 44.8439 43.7642L44.1699 43.7433L44.3752 44.3843C44.399 44.4617 44.9956 46.282 46.7867 46.282L46.873 46.279C47.062 46.2731 47.2315 46.2478 47.3833 46.2181C47.3089 47.21 46.9444 49.0439 45.2975 49.728L44.7948 49.9362L45.067 50.4091C45.0938 50.4523 45.7038 51.4829 47.0872 51.4829C47.6912 51.4814 48.1613 51.3298 48.5139 51.1469C48.5674 51.596 48.6775 52.173 48.8933 52.817C49.3946 54.3072 48.9275 55.3512 48.9096 55.3929L48.6627 55.9134L49.222 56.0621C49.2592 56.0711 49.6029 56.1573 50.009 56.1573C50.1994 56.1573 50.375 56.1365 50.5327 56.0993C50.9566 55.9997 51.2839 55.8123 51.5324 55.5981C51.6841 56.0651 51.9445 56.5916 52.3952 57.0587C53.1629 57.8468 54.2667 58.2454 55.7097 58.2454L56.5845 58.2335L56.0995 57.4973ZM55.6769 57.7695C51.7034 57.7695 51.8047 54.3623 51.8047 54.3623C51.8047 54.3623 51.5279 55.3706 50.4196 55.6339C50.2872 55.6695 50.1458 55.6828 50.0076 55.6828C49.6504 55.6828 49.3425 55.5996 49.3425 55.5996C49.3425 55.5996 49.9198 54.3756 49.344 52.6638C48.868 51.2435 48.9453 50.1905 48.9453 50.1905C48.9453 50.1905 48.4112 50.9996 47.0828 51.007H47.0694C45.964 51.007 45.482 50.1697 45.482 50.1697C48.1301 49.0706 47.8697 45.522 47.8697 45.522C47.8697 45.522 47.5261 45.7779 46.8537 45.8031C46.8299 45.8047 46.8075 45.8047 46.7838 45.8047C45.3229 45.8047 44.829 44.2416 44.829 44.2416H44.8587C45.128 44.2416 47.2955 44.1791 48.8293 42.2293C49.8394 40.9473 50.6681 39.8214 52.3 39.3768L52.4637 39.3486L52.4993 39.185C52.544 38.9351 52.3744 38.7016 51.9861 38.4488C49.7308 36.9719 51.2631 35.0891 51.2631 35.0891C51.2631 35.0891 51.9043 36.5941 53.3489 36.5941C53.3845 36.5941 53.4172 36.5927 53.4544 36.5927C53.6166 36.5837 53.7773 36.5778 53.9349 36.5436L54.2012 36.4915C54.2012 36.4915 53.7891 35.3746 54.7829 34.3484C55.5297 33.5735 56.4387 33.4427 56.9623 33.4427C57.2286 33.4427 57.3938 33.4769 57.3938 33.4769C56.8969 34.1283 56.5369 35.208 57.1111 35.8744C57.6079 36.4469 58.8204 36.4752 58.8204 37.3288C58.8204 37.6902 58.4827 38.1126 57.8757 38.4919C56.0504 39.6416 54.2384 41.1675 53.4856 43.2094C52.5455 45.7586 53.6062 47.4495 55.1221 48.4207C55.1221 48.4207 54.646 48.858 53.9572 48.913C53.8174 48.9264 53.6821 48.9323 53.5511 48.9323C52.0991 48.9323 51.3479 48.2511 51.3479 48.2511C51.3479 48.2511 51.4728 49.1925 52.2241 50.0671C52.9263 50.8746 53.8412 51.3506 55.2397 51.3699C55.2397 51.3699 55.2842 52.0183 54.6654 52.579C54.2682 52.933 53.3548 53.0489 53.3548 53.0489C53.3548 53.0489 55.0686 53.3955 55.256 55.9238C55.3586 57.2936 55.7052 57.7695 55.7052 57.7695H55.6769Z" fill="black"/>
<path d="M46.8251 41.5101C47.0169 41.5101 47.2044 41.4819 47.3815 41.4209C47.8813 41.2558 48.1982 40.8587 48.5329 40.4467C48.875 40.0244 49.2604 39.5484 49.9283 39.193L50.6156 38.8241L49.9774 38.3765C49.9239 38.3423 49.4448 38.0195 48.7977 38.0195C48.2651 38.0195 47.7713 38.2367 47.365 38.6531C46.3743 39.6645 45.4862 39.7463 45.4534 39.7478L44.7617 39.7878L45.0458 40.4229C45.3314 41.052 46.0797 41.5101 46.8251 41.5101ZM47.7058 38.9892C48.0747 38.61 48.463 38.497 48.7977 38.497C49.3124 38.497 49.7023 38.7706 49.7023 38.7706C48.3097 39.5128 48.0241 40.701 47.2282 40.9688C47.0973 41.0148 46.9604 41.0357 46.8251 41.0357C46.2404 41.0357 45.6751 40.6579 45.4817 40.2251C45.4817 40.2237 46.5528 40.1582 47.7058 38.9892Z" fill="black"/>
<path d="M49.9478 47.0476C49.8734 45.251 50.3346 43.7935 51.0575 42.5933C50.6544 43.8441 50.7095 45.3759 52.0811 46.8052C52.0811 46.8052 49.3527 43.5378 53.1671 40.1884C54.6935 38.9139 56.3626 38.1271 57.2209 37.5694C54.1163 38.5822 52.6003 37.4668 52.6003 37.4668C53.5911 38.3264 54.8749 38.3115 55.6723 38.1866C55.4566 38.2922 55.2305 38.4023 54.9909 38.5317C52.3697 39.955 50.0177 42.2945 49.6146 45.5336V45.5083C49.0061 48.6895 47.6523 49.506 47.6523 49.506C48.7294 48.9751 49.4078 47.5652 49.573 47.0565C49.7529 49.8526 51.1171 51.7934 52.7133 53.6614C53.5419 54.6296 53.8336 55.5709 53.8336 55.5709C53.8336 55.5709 53.6714 54.5047 52.9529 53.6361C51.4667 51.8499 50.0519 49.622 49.9478 47.0476Z" fill="black"/>
<path d="M62.123 40.4941V41.1366C62.3448 40.8674 62.7732 40.9224 62.7732 40.9224V41.849C62.7732 41.849 62.7583 42.3041 62.5962 42.5019H63.0603H63.523C63.3638 42.3055 63.3474 41.849 63.3474 41.849V40.9224C63.3474 40.9224 63.7759 40.8674 63.9961 41.1366V40.4941H63.0603H62.123Z" fill="black"/>
<path d="M61.7226 36.6829C62.0186 36.9179 62.1897 36.9566 62.1956 36.961L62.3117 37.0146V36.4093L61.2227 35.9512C61.2227 35.9527 61.2331 36.3022 61.7226 36.6829Z" fill="black"/>
<path d="M64.3142 36.6829C64.8067 36.3022 64.8155 35.9512 64.8155 35.9512L63.7266 36.4093V37.0146L63.8412 36.961C63.8486 36.9566 64.0182 36.9179 64.3142 36.6829Z" fill="black"/>
<path d="M66.2753 34.2215C66.2753 33.304 64.7296 32.4785 63.0232 32.4785H63.0218H63.0173H63.0128C61.3065 32.4785 59.7609 33.304 59.7609 34.2215L59.7951 34.4476L60.4763 38.3576L59.7921 38.7546L58.0217 39.7883H58.0276C58.0276 39.7883 57.629 39.9921 57.4445 40.1185C56.7706 40.587 56.6278 41.2696 57.0191 41.5522C57.1158 40.9959 57.5561 40.4129 58.3803 40.4129C58.9739 40.4129 59.4261 40.7193 59.7921 41.1789C59.8858 41.2949 59.975 41.4183 60.0583 41.5522C60.161 41.7202 60.2636 41.8674 60.3663 42.0102H55.8066C56.1414 42.6839 56.4597 43.3978 56.4597 44.1727V54.2621C56.4597 56.7042 58.3386 57.8702 60.3708 57.8702C61.9417 57.8702 62.153 57.7989 63.0202 58.6614C63.883 57.7973 64.0943 57.8702 65.6668 57.8702C67.7004 57.8702 69.5763 56.7042 69.5763 54.2621V44.1727C69.5763 43.3978 69.8948 42.6839 70.2309 42.0102H65.6698C65.771 41.869 65.8736 41.7202 65.9763 41.5522C66.061 41.4183 66.1488 41.2949 66.2411 41.1789C66.61 40.7178 67.0607 40.4129 67.6543 40.4129C68.4785 40.4129 68.9173 40.9944 69.0155 41.5522C69.4068 41.2696 69.2655 40.587 68.5871 40.1185C68.4056 39.9921 68.0069 39.7883 68.0069 39.7883H68.0128L66.2426 38.7546L65.5612 38.3576L66.2426 34.4476L66.2753 34.2215ZM60.4317 34.6766L62.8269 35.4887V39.2499L61.064 38.3204L60.4317 34.6766ZM60.9271 42.6661C61.3198 43.0572 61.7052 43.2997 62.0712 43.4335C62.0235 43.6224 61.961 44.0121 62.1381 44.4002C62.2824 44.7125 62.5442 44.9535 62.9206 45.1141C62.9623 45.5008 63.2062 46.0823 63.883 46.3396C63.587 46.6385 63.2984 46.9196 63.181 47.0341L60.4362 46.991C60.3738 46.9597 60.2681 46.8899 60.2205 46.7902C60.2145 46.7769 60.2056 46.7694 60.2011 46.7545L60.649 46.8274C60.6594 46.8289 60.6683 46.8289 60.6772 46.8289C60.7635 46.8289 60.8394 46.7694 60.8543 46.6802C60.8692 46.5805 60.8022 46.4898 60.7055 46.4749L60.1551 46.3887L60.7665 44.2783L60.1878 43.0602L59.2595 44.0418L59.203 46.237L58.5796 46.1388C58.4828 46.1195 58.3907 46.1909 58.3744 46.2876C58.3595 46.3842 58.4249 46.4749 58.5231 46.4928L58.7849 46.533C58.6912 46.5865 58.6302 46.6281 58.6227 46.6341L58.5692 46.6713L58.5543 46.7367C58.4026 47.3524 58.7463 47.9369 59.1167 48.1986L59.1032 48.2761C59.0885 48.3711 59.1092 48.4633 59.1657 48.5408C59.2193 48.6196 59.3026 48.6672 59.3948 48.6835C59.4142 48.6865 59.435 48.688 59.4529 48.688C59.6135 48.688 59.7534 48.5764 59.7935 48.4144C59.9319 48.4306 60.0583 48.4336 60.1446 48.4336H60.2175L63.8192 49.0836L63.8801 49.0434C64.1673 48.8426 65.2607 48.0455 65.6192 47.7822C65.7174 47.867 65.8275 47.9443 65.9614 48.0083C65.8453 48.398 65.8379 48.9973 66.2975 49.4702H57.1187V44.1741C57.1187 43.661 56.9685 43.145 56.7914 42.6691H60.9271V42.6661ZM65.3782 47.5115C65.0137 47.7792 64.0765 48.4633 63.7373 48.7013L60.4645 48.1139C60.4719 48.0841 60.4793 48.0559 60.4868 48.0261C60.53 47.8566 60.5731 47.6246 60.5761 47.3524L63.3267 47.3971L63.3788 47.3435C63.4205 47.3019 64.2922 46.4601 64.737 45.9752C64.8426 46.1076 64.9751 46.2341 65.1477 46.3455C65.0881 46.6669 65.1134 47.1249 65.3782 47.5115ZM59.8991 46.9449C59.9765 47.107 60.1164 47.2156 60.2131 47.2766C60.2101 47.4283 60.1952 47.6647 60.1551 47.873C60.1461 47.9191 60.1342 47.9622 60.1208 48.0053C60.1134 48.0321 60.106 48.0544 60.1 48.0722C59.9557 48.0722 59.6716 48.0544 59.4395 47.9697C59.1822 47.8744 58.7983 47.403 58.8875 46.8839C58.9991 46.8155 59.2565 46.6713 59.4975 46.6713C59.6835 46.6698 59.8099 46.7575 59.8991 46.9449ZM59.5585 46.292L59.6135 44.1846L60.0866 43.6834L60.3842 44.3051L59.798 46.3277L59.5585 46.292ZM65.3485 57.2173C65.1699 57.2173 65.0049 57.2203 64.856 57.2262L65.2458 56.0142C65.3068 55.8461 64.9988 55.6304 64.8724 55.4415C65.0643 55.562 65.5612 55.8252 65.8007 55.9308C65.7754 55.9695 65.3485 57.2173 65.3485 57.2173ZM66.5713 55.8401L66.317 57.1667C66.1547 57.189 65.9822 57.201 65.8052 57.2083L66.073 55.9323C66.1533 55.553 65.1342 55.4355 64.6314 54.6905C64.386 54.9671 63.9233 55.0489 63.4591 55.0489C63.0351 55.0489 62.6112 54.9805 62.3537 54.9299C62.2883 54.9195 62.2258 54.9121 62.1649 54.9121C62.0161 54.9121 61.8807 54.9582 61.787 55.1158L61.7126 55.2407L60.3247 54.9135L59.9795 55.4847C59.9304 55.5769 59.9274 55.6557 60.0063 55.7419L60.1 55.8445C60.036 56.0468 59.7475 56.3517 59.7475 56.3517L59.5407 56.0944C59.377 55.9114 59.4038 55.5784 59.5749 55.269L60.1253 54.3395L61.3005 54.509L61.1175 54.0926C60.8721 53.5423 61.2455 52.8418 61.2856 52.4388C61.2723 52.5607 61.1607 52.5875 61.0298 52.5875C60.9108 52.5875 60.7784 52.5653 60.6906 52.5653C60.6564 52.5653 60.6266 52.5682 60.6103 52.58L60.2919 52.7734L60.0404 52.5519C60.0108 52.5087 60.0003 52.409 60.0747 52.3347L60.6564 51.6833L59.9691 50.8816L60.9316 51.365L61.2247 51.0095C61.305 51.0884 61.2708 51.2951 61.2708 51.2951C61.5713 51.3025 62.4133 51.768 62.458 52.8537C62.461 52.8864 62.461 52.9236 62.461 52.9593C62.461 52.9593 62.4684 52.9727 62.4832 52.995C62.5428 53.0769 62.7064 53.2865 62.9146 53.3058L64.2446 53.4368H64.2505C64.3963 53.4368 64.6864 53.2657 65.0584 53.2657C65.2607 53.2657 65.4868 53.3178 65.7278 53.4694C65.7278 53.4694 65.8483 53.3743 66.0447 53.3638C66.0596 53.3624 66.0759 53.3624 66.0908 53.3624C66.6874 53.3624 66.9343 53.9008 67.2542 54.3483C67.4951 54.6889 67.8164 55.1947 67.8164 55.1947C67.6975 55.3359 67.5874 55.4133 67.4029 55.4133C67.3523 55.4133 67.2943 55.4088 67.2318 55.3969C66.5921 55.2794 66.4999 53.9647 66.1354 53.8606C66.1161 53.8547 66.0953 53.8532 66.0774 53.8532C65.9598 53.8532 65.9078 53.9572 65.9078 53.9572C66.0744 54.405 65.9778 54.5864 66.1562 54.9314C66.2902 55.1872 66.5282 55.3984 66.6263 55.498C66.6263 55.501 66.5996 55.6944 66.5713 55.8401ZM59.429 54.5849L59.49 54.738C59.4499 54.8719 58.9887 55.0622 58.9887 55.0622L58.8891 54.8452C58.7834 54.6132 58.8057 54.2219 59.1271 53.9825L59.8739 53.5275L60.6653 53.6955C60.6504 53.9469 60.8007 54.1343 60.8007 54.1343L59.9706 53.9751L59.4737 54.3186C59.3904 54.3766 59.3845 54.4853 59.429 54.5849ZM66.6963 57.0939L66.9239 55.907C66.9358 55.8372 66.9506 55.7553 66.9611 55.6869C67.0251 55.7137 67.0934 55.736 67.1679 55.7494C67.2526 55.7657 67.3315 55.7732 67.4029 55.7732C67.751 55.7732 67.9533 55.5903 68.0887 55.4341L68.2643 55.2303L68.1214 55.0072C68.1081 54.985 67.7927 54.4853 67.5487 54.1431C67.5011 54.0762 67.4549 54.0093 67.4088 53.9364C67.1322 53.523 66.7855 53.004 66.0908 53.004L66.0283 53.0054C65.9138 53.0128 65.8156 53.0352 65.7367 53.0649C65.518 52.9623 65.2934 52.9102 65.0599 52.9102C64.7727 52.9102 64.5302 52.9891 64.3696 53.0441C64.3235 53.0575 64.2818 53.0723 64.2491 53.0783L62.9504 52.9504C62.934 52.9474 62.8804 52.9162 62.8165 52.8389V52.8329L63.0976 52.7199C63.0188 51.7844 62.1202 51.2088 61.6188 51.014C61.5966 50.9203 61.552 50.8266 61.4731 50.7508L61.1934 50.4861L60.948 50.7805L60.8275 50.9307L59.0095 50.1841L60.1922 51.6683L59.7251 52.3748C59.554 52.5563 59.743 52.7377 59.743 52.7377L60.2249 53.0694L60.7248 52.8835C60.7427 52.8835 60.7576 52.8879 60.7739 52.8894C60.7501 52.9653 60.7189 53.2627 60.6981 53.346L59.8307 53.175L58.9187 53.6896C58.4502 54.0331 58.3862 54.6027 58.5602 54.9924L58.6614 55.2139L58.8057 55.5263L59.124 55.3939C59.1286 55.3924 59.133 55.391 59.136 55.388C59.0214 55.7539 59.0676 56.1019 59.2729 56.3308L59.4662 56.5748L59.7236 56.9006L60.0063 56.5971C60.0895 56.5139 60.3589 56.2119 60.4421 55.9531L60.5032 55.7553L60.3648 55.6036L60.3425 55.5769L60.4972 55.3211L61.6293 55.5872L61.8836 55.6453L62.0191 55.4222L62.0935 55.3002C62.1069 55.275 62.1113 55.2705 62.1633 55.2705C62.2035 55.2705 62.2437 55.275 62.2869 55.2839C62.7138 55.3642 63.108 55.4044 63.4577 55.4044C63.7968 55.4044 63.9991 55.391 64.2417 55.3107C64.2417 55.3107 64.8501 56.0007 64.8709 56.0275L64.499 57.1756L64.4826 57.2456C63.7775 57.302 63.4338 57.4567 63.0188 57.8717C62.4162 57.2739 61.9893 57.2114 60.3693 57.2114C58.4308 57.2114 57.1172 56.0751 57.1172 54.2607V49.8242H68.9173L68.9204 54.2607C68.9218 55.733 68.0575 56.7592 66.6963 57.0939ZM69.2477 42.6661C69.0676 43.1421 68.9173 43.6581 68.9173 44.1712L68.9188 47.4818C68.2271 47.3658 68.1453 46.6207 68.1423 46.588L68.1289 46.4363L67.9802 46.4229C67.6796 46.3946 67.4803 46.2668 67.3121 46.1031C66.973 45.764 66.9715 45.2138 66.973 45.2094C66.9685 45.2375 66.5996 45.7536 67.028 46.3173C67.2081 46.5552 67.4683 46.701 67.8061 46.7591C67.8849 47.1724 68.1928 47.7555 68.9188 47.8447V49.4658H66.8778C65.9361 48.9422 66.3348 48.0202 66.3541 47.9816L66.4344 47.806L66.2545 47.7377C65.2354 47.3598 65.5151 46.3426 65.5299 46.2995L65.5716 46.1508L65.4333 46.0853C64.5912 45.6957 64.7058 44.6442 64.7162 44.601C64.4574 44.8108 64.3637 45.2391 64.5422 45.6585C64.4455 45.7685 64.316 45.9023 64.1747 46.0481C63.3029 45.8265 63.2762 45.0249 63.2762 44.9877L63.2747 44.8643L63.1601 44.8196C62.8195 44.6932 62.5859 44.5044 62.4713 44.25C62.3419 43.9689 62.388 43.6744 62.4237 43.5332C62.5234 43.5555 62.6231 43.5719 62.7183 43.5793C62.8165 43.5896 62.9176 43.5956 63.0188 43.5956H63.0248H63.0322C63.1334 43.5956 63.233 43.5896 63.3312 43.5793C63.8742 43.5257 64.4826 43.2922 65.1163 42.6646H69.2477V42.6661ZM66.067 39.3198L66.8733 39.7883H66.8852L67.0875 39.9058C66.6323 40.0322 66.2841 40.2598 65.9926 40.5587C65.9822 40.5677 65.9718 40.5795 65.9614 40.5899C65.8944 40.6613 65.8275 40.7387 65.765 40.8174C65.7532 40.8324 65.7412 40.8487 65.7278 40.8651C65.6653 40.9454 65.6073 41.0272 65.5508 41.1135C65.5419 41.1283 65.5314 41.1432 65.521 41.1566C65.4542 41.2562 65.3901 41.3633 65.3261 41.4733C64.7519 42.4624 63.8355 43.0528 63.0202 43.0543C62.2065 43.0528 61.2902 42.4624 60.7159 41.4733C60.6533 41.3663 60.5909 41.2621 60.524 41.161C60.5105 41.1417 60.4987 41.1224 60.4868 41.106C60.4303 41.0242 60.3738 40.9439 60.3157 40.868C60.3008 40.8472 60.2875 40.8309 60.2726 40.813C60.2101 40.7371 60.1461 40.6613 60.0821 40.5914C60.0687 40.581 60.0599 40.5677 60.0465 40.5557C59.7534 40.2568 59.4068 40.0307 58.95 39.9058L59.1553 39.7883H59.1642L59.9706 39.3198L60.7992 38.8454L63.0128 40.05L63.0173 40.0456L63.0232 40.05L65.2369 38.8454L66.067 39.3198ZM64.9751 38.3218L63.2106 39.2513V35.4887L65.6043 34.6766L64.9751 38.3218ZM63.0188 35.0753L60.3945 34.0386C60.6178 33.5106 61.6471 33.0615 63.0188 33.06C64.3919 33.0615 65.4213 33.5106 65.643 34.0386L63.0188 35.0753Z" fill="black"/>
<path d="M42.7205 77.8007V73.1449H45.4521V71.4508H38V73.1449H40.7315V77.8007H42.7205ZM48.237 71.4508H46.2481V77.8007H48.237V71.4508ZM49.6926 71.4508V77.8007H51.5224V74.2922L54.9302 77.8007H56.6275V71.4508H54.7976V74.9325L51.4694 71.4508H49.6926ZM60.5367 75.3994L62.8306 77.8007H65.3898L62.1941 74.4923L65.2705 71.4508H62.8571L60.5367 73.8386H60.0062V71.4508H58.0836V77.8007H60.0062V75.3994H60.5367ZM69.346 71.2773C66.7603 71.2773 65.2089 72.7447 65.2089 74.639C65.2089 76.5333 66.7603 78.0007 69.346 78.0007C71.9184 78.0007 73.4698 76.5333 73.4698 74.639C73.4698 72.7447 71.9184 71.2773 69.346 71.2773ZM69.346 76.4532C68.0598 76.4532 67.2377 75.6796 67.2377 74.639C67.2377 73.5985 68.0598 72.8382 69.346 72.8382C70.6189 72.8382 71.4543 73.5985 71.4543 74.639C71.4543 75.6796 70.6189 76.4532 69.346 76.4532ZM80.7614 71.4508H74.3834V77.8007H76.3061V75.5862H80.4829V74.1854H76.3061V73.0648H80.7614V71.4508ZM88 71.4508H81.6219V77.8007H83.5447V75.5862H87.7215V74.1854H83.5447V73.0648H88V71.4508Z" fill="white"/>
<path fill-rule="evenodd" clip-rule="evenodd" d="M185.535 46.9855L189.62 43.9707H175.943V62.0298H189.62V59.0151H179.851V54.4043H188.199V51.3895H179.851V46.9855H185.535Z" fill="#21A038"/>
<path fill-rule="evenodd" clip-rule="evenodd" d="M165.613 51.007H160.876V46.9874H168.455L172.541 43.9727H156.969V62.0316H165.11C169.669 62.0316 172.304 59.9628 172.304 56.3569C172.304 52.8987 169.935 51.0072 165.613 51.0072V51.007ZM164.962 59.0168H160.877V54.0216H164.962C167.449 54.0216 168.603 54.8492 168.603 56.534C168.603 58.2189 167.36 59.0168 164.962 59.0168Z" fill="#21A038"/>
<path fill-rule="evenodd" clip-rule="evenodd" d="M200.692 43.9709H193.262V62.0298H197.169V56.9165H200.722C205.459 56.9165 208.419 54.4337 208.419 50.4435C208.419 46.4533 205.459 43.9707 200.692 43.9707L200.692 43.9709ZM200.604 53.9019H197.14V46.9856H200.604C203.12 46.9856 204.482 48.227 204.482 50.4437C204.482 52.6605 203.12 53.9019 200.604 53.9019Z" fill="#21A038"/>
<path fill-rule="evenodd" clip-rule="evenodd" d="M150.278 58.1303C149.241 58.6919 148.087 58.9875 146.903 58.9875C143.38 58.9875 140.834 56.4752 140.834 53.017C140.834 49.5589 143.38 47.0465 146.903 47.0465C148.176 47.0169 149.419 47.4307 150.455 48.1696L153.268 46.1007L153.09 45.9234C151.462 44.475 149.271 43.7363 146.784 43.7363C144.09 43.7363 141.633 44.6525 139.857 46.3078C138.081 48.0219 137.074 50.4161 137.133 52.8989C137.104 55.4113 138.081 57.8349 139.857 59.6082C141.722 61.3522 144.209 62.3276 146.755 62.2684C149.567 62.2684 152.024 61.2929 153.682 59.5196L151.166 57.6576L150.278 58.1305V58.1303Z" fill="#21A038"/>
<path fill-rule="evenodd" clip-rule="evenodd" d="M124.906 43.8535C125.616 44.7699 126.208 45.7748 126.711 46.8388L113.034 56.9176L107.291 53.3117V48.9964L113.005 52.573L124.906 43.8537V43.8535Z" fill="#21A038"/>
<path fill-rule="evenodd" clip-rule="evenodd" d="M101.464 53.0165C101.464 52.8096 101.464 52.6325 101.493 52.4254L98.0296 52.248C98.0296 52.4844 98 52.7506 98 52.9869C98 57.1246 99.6874 60.8786 102.411 63.5976L104.868 61.1444C102.766 59.0755 101.464 56.2084 101.464 53.0164V53.0165Z" fill="url(#paint0_linear_12561_55084)"/>
<path fill-rule="evenodd" clip-rule="evenodd" d="M113.008 41.4893C113.215 41.4893 113.393 41.4893 113.6 41.5189L113.778 38.0609C113.541 38.0609 113.275 38.0312 113.038 38.0312C108.893 38.0312 105.134 39.7161 102.41 42.4351L104.867 44.8883C106.94 42.7898 109.841 41.4893 113.008 41.4893H113.008Z" fill="url(#paint1_linear_12561_55084)"/>
<path fill-rule="evenodd" clip-rule="evenodd" d="M113.01 64.5416C112.803 64.5416 112.625 64.5416 112.418 64.512L112.24 67.9702C112.477 67.9702 112.743 67.9996 112.98 67.9996C117.125 67.9996 120.885 66.3149 123.608 63.5958L121.151 61.1426C119.079 63.2706 116.207 64.5416 113.01 64.5416H113.01Z" fill="url(#paint2_linear_12561_55084)"/>
<path fill-rule="evenodd" clip-rule="evenodd" d="M119.521 43.4976L122.452 41.34C119.876 39.271 116.59 38 113.008 38V41.4582C115.436 41.4877 117.685 42.2266 119.521 43.4976Z" fill="url(#paint3_linear_12561_55084)"/>
<path fill-rule="evenodd" clip-rule="evenodd" d="M128.048 53.0138C128.048 52.0976 127.959 51.211 127.812 50.3242L124.585 52.7184C124.585 52.807 124.585 52.9253 124.585 53.014C124.585 56.413 123.105 59.4573 120.766 61.5559L123.104 64.1274C126.124 61.4082 128.048 57.418 128.048 53.014L128.048 53.0138Z" fill="#21A038"/>
<path fill-rule="evenodd" clip-rule="evenodd" d="M113.008 64.5412C109.603 64.5412 106.554 63.0634 104.452 60.7285L101.877 63.0634C104.63 66.1078 108.597 67.9994 113.008 67.9994V64.5412Z" fill="url(#paint4_linear_12561_55084)"/>
<path fill-rule="evenodd" clip-rule="evenodd" d="M105.282 44.4719L102.944 41.9004C99.8945 44.6492 98 48.6098 98 53.0136H101.464C101.464 49.6442 102.944 46.5704 105.283 44.4719H105.282Z" fill="url(#paint5_linear_12561_55084)"/>
<defs>
<linearGradient id="paint0_linear_12561_55084" x1="102.052" y1="63.6137" x2="100.664" y2="52.6693" gradientUnits="userSpaceOnUse">
<stop stop-color="#F2E913"/>
<stop offset="0.14902" stop-color="#F2E913"/>
<stop offset="0.301961" stop-color="#E7E518"/>
<stop offset="0.580392" stop-color="#CADB26"/>
<stop offset="0.890196" stop-color="#A3CD39"/>
<stop offset="1" stop-color="#A3CD39"/>
</linearGradient>
<linearGradient id="paint1_linear_12561_55084" x1="103.397" y1="42.2381" x2="113.165" y2="40.8858" gradientUnits="userSpaceOnUse">
<stop stop-color="#0FA8E0"/>
<stop offset="0.0588235" stop-color="#0FA8E0"/>
<stop offset="0.541176" stop-color="#0099F9"/>
<stop offset="0.921569" stop-color="#0291EB"/>
<stop offset="1" stop-color="#0291EB"/>
</linearGradient>
<linearGradient id="paint2_linear_12561_55084" x1="112.038" y1="64.9997" x2="123.083" y2="64.0925" gradientUnits="userSpaceOnUse">
<stop stop-color="#A3CD39"/>
<stop offset="0.121569" stop-color="#A3CD39"/>
<stop offset="0.290196" stop-color="#86C339"/>
<stop offset="0.870588" stop-color="#21A038"/>
<stop offset="1" stop-color="#21A038"/>
</linearGradient>
<linearGradient id="paint3_linear_12561_55084" x1="112.297" y1="40.299" x2="121.741" y2="41.2854" gradientUnits="userSpaceOnUse">
<stop stop-color="#0291EB"/>
<stop offset="0.0509804" stop-color="#0291EB"/>
<stop offset="0.788235" stop-color="#0C8ACB"/>
<stop offset="1" stop-color="#0C8ACB"/>
</linearGradient>
<linearGradient id="paint4_linear_12561_55084" x1="102.757" y1="63.4666" x2="113.037" y2="65.1033" gradientUnits="userSpaceOnUse">
<stop stop-color="#F2E913"/>
<stop offset="0.129412" stop-color="#F2E913"/>
<stop offset="0.301961" stop-color="#EBE716"/>
<stop offset="0.529412" stop-color="#D9E01F"/>
<stop offset="0.8" stop-color="#BBD62D"/>
<stop offset="0.980392" stop-color="#A3CD39"/>
<stop offset="1" stop-color="#A3CD39"/>
</linearGradient>
<linearGradient id="paint5_linear_12561_55084" x1="100.635" y1="52.2012" x2="102.407" y2="41.4836" gradientUnits="userSpaceOnUse">
<stop stop-color="#A3CD39"/>
<stop offset="0.0705882" stop-color="#A3CD39"/>
<stop offset="0.258824" stop-color="#81C55F"/>
<stop offset="0.921569" stop-color="#0FA8E0"/>
<stop offset="1" stop-color="#0FA8E0"/>
</linearGradient>
</defs>
</svg>
