<svg width="246" height="105" viewBox="0 0 246 105" fill="none" xmlns="http://www.w3.org/2000/svg">
<rect x="1" y="1" width="244" height="103" rx="9" fill="#11121E" stroke="#1F2946" stroke-width="2"/>
<path d="M101.982 59.0473V45.1692H96.2051V42.9609H111.097V45.1692H105.332V59.0473H101.982ZM123.074 58.6432C121.544 59.0931 120.094 59.3181 118.723 59.3181C116.727 59.3181 115.154 58.7525 114.002 57.6214C112.85 56.4903 112.274 54.9456 112.274 52.9872C112.274 51.1368 112.8 49.6501 113.852 48.5272C114.911 47.396 116.307 46.8305 118.04 46.8305C119.788 46.8305 121.064 47.3815 121.869 48.4836C122.673 49.5857 123.076 51.33 123.076 53.7165H115.667C115.885 55.9842 117.136 57.118 119.42 57.118C120.508 57.118 121.726 56.8676 123.074 56.3669V58.6432ZM115.622 51.8987H119.908C119.908 49.8605 119.252 48.8415 117.939 48.8415C116.606 48.8415 115.834 49.8605 115.622 51.8987ZM126.404 59.0473V41.8711H129.624V59.0473H126.404ZM143.395 58.6432C141.865 59.0931 140.414 59.3181 139.044 59.3181C137.048 59.3181 135.474 58.7525 134.322 57.6214C133.17 56.4903 132.594 54.9456 132.594 52.9872C132.594 51.1368 133.12 49.6501 134.173 48.5272C135.231 47.396 136.627 46.8305 138.361 46.8305C140.109 46.8305 141.385 47.3815 142.189 48.4836C142.994 49.5857 143.396 51.33 143.396 53.7165H135.989C136.207 55.9842 137.458 57.118 139.742 57.118C140.83 57.118 142.048 56.8676 143.396 56.3669L143.395 58.6432ZM135.943 51.8987H140.229C140.229 49.8605 139.572 48.8415 138.26 48.8415C136.927 48.8415 136.154 49.8605 135.943 51.8987ZM146.811 62.7563L147.073 60.4161C148.4 61.0256 149.669 61.3304 150.882 61.3304C152.061 61.3304 152.921 61.0764 153.461 60.5685C153.99 60.0605 154.255 59.2374 154.255 58.099V56.4663C153.472 58.1852 152.178 59.0446 150.372 59.0446C148.951 59.0446 147.823 58.5153 146.99 57.4568C146.155 56.391 145.738 54.9515 145.738 53.1382C145.738 51.2307 146.205 49.7041 147.139 48.5584C148.073 47.4065 149.317 46.8305 150.87 46.8305C152.088 46.8305 153.216 47.3235 154.252 48.3095L154.59 47.1026H157.484V56.2186C157.484 58.0391 157.371 59.3516 157.146 60.1562C156.929 60.9608 156.501 61.6411 155.863 62.1971C154.79 63.125 153.278 63.589 151.327 63.589C149.942 63.589 148.445 63.306 146.837 62.74L146.811 62.7563ZM154.24 54.5982V50.1939C153.465 49.3168 152.648 48.8782 151.791 48.8782C150.979 48.8782 150.334 49.2483 149.855 49.9884C149.376 50.7286 149.137 51.7264 149.137 52.9818C149.137 55.3166 149.887 56.4839 151.388 56.4839C152.425 56.4839 153.372 55.8603 154.228 54.6131L154.24 54.5982ZM161.432 59.0473V47.1012H164.653V49.353C165.487 47.6704 166.756 46.8291 168.46 46.8291C168.663 46.8291 168.863 46.8509 169.058 46.8944V49.7517C168.601 49.5848 168.177 49.5013 167.786 49.5013C166.503 49.5013 165.458 50.1499 164.653 51.447V59.0296L161.432 59.0473ZM177.422 57.7629C176.349 58.7997 175.2 59.3181 173.974 59.3181C172.931 59.3181 172.083 58.9988 171.43 58.3602C170.777 57.7216 170.45 56.8948 170.45 55.8798C170.45 54.5601 170.976 53.5441 172.029 52.8321C173.087 52.1137 174.599 51.7545 176.565 51.7545H177.425V50.666C177.425 49.4261 176.717 48.8061 175.302 48.8061C174.048 48.8061 172.779 49.1616 171.495 49.8728V47.655C172.953 47.1035 174.396 46.8278 175.825 46.8278C178.95 46.8278 180.513 48.0714 180.513 50.5585V55.8458C180.513 56.7801 180.8 57.2472 181.373 57.2472C181.504 57.2472 181.685 57.2073 181.918 57.1275V58.997C181.235 59.2002 180.634 59.3018 180.112 59.3018C178.792 59.3018 177.944 58.7834 177.568 57.7466L177.422 57.7629ZM177.422 56.035V53.609H176.66C175.69 53.609 174.924 53.7832 174.365 54.1315C173.813 54.4798 173.538 54.9583 173.538 55.5669C173.538 56.0096 173.686 56.3828 173.984 56.6867C174.289 56.9842 174.662 57.133 175.104 57.133C175.856 57.133 176.629 56.7665 177.421 56.0336L177.422 56.035ZM184.667 59.046V47.0999H187.756V49.3517C188.699 47.6691 190.041 46.8278 191.78 46.8278C192.688 46.8278 193.427 47.0491 193.998 47.4917C194.579 47.9344 194.934 48.5544 195.065 49.3517C196.181 47.6691 197.529 46.8278 199.111 46.8278C201.295 46.8278 202.386 48.0314 202.386 50.4388V59.0432H199.298V51.4919C199.298 50.0769 198.826 49.3694 197.883 49.3694C196.919 49.3694 195.98 50.0655 195.066 51.4579V59.0405H191.978V51.4892C191.978 50.0678 191.503 49.3571 190.553 49.3571C189.604 49.3571 188.672 50.0569 187.757 51.4565V59.0392L184.667 59.046Z" fill="white"/>
<path fill-rule="evenodd" clip-rule="evenodd" d="M71.2327 67.133C71.4662 67.2992 71.737 67.4056 72.0213 67.4429C72.3056 67.4801 72.5946 67.447 72.8632 67.3466C73.1301 67.2458 73.3675 67.0798 73.5538 66.8636C73.7401 66.6475 73.8692 66.3882 73.9295 66.1093C75.2095 60.094 78.3144 44.8686 79.4795 39.3967C79.5226 39.1934 79.5098 38.9821 79.4423 38.7855C79.3749 38.5889 79.2554 38.4143 79.0965 38.2802C78.9368 38.1446 78.7439 38.054 78.5375 38.0178C78.3312 37.9815 78.1189 38.0009 77.9226 38.074C71.7467 40.36 52.7271 47.4962 44.9531 50.3728C44.7135 50.4606 44.5076 50.6215 44.3643 50.8326C44.2211 51.0438 44.1478 51.2946 44.1547 51.5497C44.1724 52.0711 44.523 52.5232 45.0282 52.675C48.5146 53.7178 53.0909 55.1686 53.0909 55.1686C53.0909 55.1686 55.2295 61.6273 56.3445 64.9119C56.4844 65.3243 56.807 65.6483 57.2327 65.7603C57.4413 65.8145 57.6603 65.815 57.8692 65.7617C58.0781 65.7084 58.2701 65.603 58.4272 65.4554L62.9873 61.1501C62.9873 61.1501 68.2486 65.0076 71.2327 67.133ZM55.016 54.3526L57.489 62.5096L58.0384 57.3441L73.0399 43.814C73.1169 43.7448 73.1648 43.649 73.1738 43.5459C73.1829 43.4428 73.1524 43.3401 73.0885 43.2587C73.0244 43.177 72.9321 43.1222 72.8298 43.1047C72.7274 43.0873 72.6223 43.1086 72.5347 43.1644L55.016 54.3526Z" fill="#2CA5E0"/>
</svg>
