<svg width="245" height="105" viewBox="0 0 245 105" fill="none" xmlns="http://www.w3.org/2000/svg">
<rect x="1" y="1" width="243" height="103" rx="9" fill="#11121E" stroke="#1F2946" stroke-width="2"/>
<path d="M181.504 24.0742V14.2742H186.096C187.272 14.2742 188.168 14.5076 188.784 14.9742C189.4 15.4316 189.708 16.0476 189.708 16.8222C189.708 17.3449 189.586 17.7929 189.344 18.1662C189.101 18.5302 188.774 18.8149 188.364 19.0202C187.962 19.2162 187.524 19.3142 187.048 19.3142L187.3 18.8102C187.85 18.8102 188.345 18.9129 188.784 19.1182C189.222 19.3142 189.568 19.6036 189.82 19.9862C190.081 20.3689 190.212 20.8449 190.212 21.4142C190.212 22.2542 189.89 22.9076 189.246 23.3742C188.602 23.8409 187.645 24.0742 186.376 24.0742H181.504ZM183.324 22.6462H186.264C186.945 22.6462 187.468 22.5342 187.832 22.3102C188.196 22.0862 188.378 21.7269 188.378 21.2322C188.378 20.7469 188.196 20.3922 187.832 20.1682C187.468 19.9349 186.945 19.8182 186.264 19.8182H183.184V18.4042H185.9C186.534 18.4042 187.02 18.2922 187.356 18.0682C187.701 17.8442 187.874 17.5082 187.874 17.0602C187.874 16.6029 187.701 16.2622 187.356 16.0382C187.02 15.8142 186.534 15.7022 185.9 15.7022H183.324V22.6462ZM193.834 18.3482H198.706V19.8462H193.834V18.3482ZM193.974 22.5482H199.504V24.0742H192.154V14.2742H199.308V15.8002H193.974V22.5482ZM201.533 24.0742V14.2742H205.565C206.433 14.2742 207.175 14.4142 207.791 14.6942C208.416 14.9742 208.897 15.3756 209.233 15.8982C209.569 16.4209 209.737 17.0416 209.737 17.7602C209.737 18.4789 209.569 19.0996 209.233 19.6222C208.897 20.1449 208.416 20.5462 207.791 20.8262C207.175 21.1062 206.433 21.2462 205.565 21.2462H202.541L203.353 20.3922V24.0742H201.533ZM203.353 20.5882L202.541 19.7062H205.481C206.283 19.7062 206.885 19.5382 207.287 19.2022C207.697 18.8569 207.903 18.3762 207.903 17.7602C207.903 17.1349 207.697 16.6542 207.287 16.3182C206.885 15.9822 206.283 15.8142 205.481 15.8142H202.541L203.353 14.9182V20.5882ZM214.734 24.0742V22.8562L218.626 19.1602C218.953 18.8522 219.195 18.5816 219.354 18.3482C219.513 18.1149 219.615 17.9002 219.662 17.7042C219.718 17.4989 219.746 17.3076 219.746 17.1302C219.746 16.6822 219.592 16.3369 219.284 16.0942C218.976 15.8422 218.523 15.7162 217.926 15.7162C217.45 15.7162 217.016 15.8002 216.624 15.9682C216.241 16.1362 215.91 16.3929 215.63 16.7382L214.356 15.7582C214.739 15.2449 215.252 14.8482 215.896 14.5682C216.549 14.2789 217.277 14.1342 218.08 14.1342C218.789 14.1342 219.405 14.2509 219.928 14.4842C220.46 14.7082 220.866 15.0302 221.146 15.4502C221.435 15.8702 221.58 16.3696 221.58 16.9482C221.58 17.2656 221.538 17.5829 221.454 17.9002C221.37 18.2082 221.211 18.5349 220.978 18.8802C220.745 19.2256 220.404 19.6129 219.956 20.0422L216.61 23.2202L216.232 22.5342H221.958V24.0742H214.734ZM227.097 24.2142C226.322 24.2142 225.622 24.0182 224.997 23.6262C224.381 23.2342 223.895 22.6649 223.541 21.9182C223.186 21.1622 223.009 20.2476 223.009 19.1742C223.009 18.1009 223.186 17.1909 223.541 16.4442C223.895 15.6882 224.381 15.1142 224.997 14.7222C225.622 14.3302 226.322 14.1342 227.097 14.1342C227.881 14.1342 228.581 14.3302 229.197 14.7222C229.813 15.1142 230.298 15.6882 230.653 16.4442C231.017 17.1909 231.199 18.1009 231.199 19.1742C231.199 20.2476 231.017 21.1622 230.653 21.9182C230.298 22.6649 229.813 23.2342 229.197 23.6262C228.581 24.0182 227.881 24.2142 227.097 24.2142ZM227.097 22.6322C227.554 22.6322 227.951 22.5109 228.287 22.2682C228.623 22.0162 228.884 21.6336 229.071 21.1202C229.267 20.6069 229.365 19.9582 229.365 19.1742C229.365 18.3809 229.267 17.7322 229.071 17.2282C228.884 16.7149 228.623 16.3369 228.287 16.0942C227.951 15.8422 227.554 15.7162 227.097 15.7162C226.658 15.7162 226.266 15.8422 225.921 16.0942C225.585 16.3369 225.319 16.7149 225.123 17.2282C224.936 17.7322 224.843 18.3809 224.843 19.1742C224.843 19.9582 224.936 20.6069 225.123 21.1202C225.319 21.6336 225.585 22.0162 225.921 22.2682C226.266 22.5109 226.658 22.6322 227.097 22.6322Z" fill="#8C95BF"/>
<path d="M66.4217 71.9529C77.1901 71.9529 85.9196 63.1473 85.9196 52.2851C85.9196 41.4228 77.1901 32.6172 66.4217 32.6172C55.6533 32.6172 46.9238 41.4228 46.9238 52.2851C46.9238 63.1473 55.6533 71.9529 66.4217 71.9529Z" fill="#26A17B"/>
<path d="M68.4999 54.1032V54.1C68.3651 54.1095 67.6692 54.1506 66.1207 54.1506C64.8825 54.1506 64.0142 54.1158 63.707 54.1V54.1032C58.9453 53.8913 55.3937 53.0565 55.3937 52.0542C55.3937 51.055 58.9485 50.217 63.707 50.0052V53.2716C64.0173 53.2937 64.9107 53.3474 66.1426 53.3474C67.6222 53.3474 68.362 53.2842 68.4999 53.2716V50.0083C73.2522 50.2234 76.7944 51.0581 76.7944 52.0573C76.7944 53.0565 73.249 53.8913 68.4999 54.1063M68.4999 49.67V46.7483H75.1299V42.293H57.0802V46.7483H63.7101V49.67C58.3215 49.9198 54.2715 50.9949 54.2715 52.285C54.2715 53.5751 58.3247 54.6502 63.7101 54.9032V64.2691H68.5031V54.9032C73.8822 54.6534 77.926 53.5783 77.926 52.2882C77.926 51.0012 73.8822 49.923 68.5031 49.6732" fill="white"/>
<path d="M102.483 43.5049V48.229H107.034V51.7736H102.451V58.9609C102.451 60.5483 103.32 61.323 104.592 61.323C105.229 61.323 105.965 61.1206 106.567 60.817L107.705 64.3269C106.536 64.798 105.564 65.0004 104.326 65.0352C100.746 65.1712 98.4045 63.1127 98.4045 58.9609V51.7736H95.3262V48.229H98.4045V43.9444L102.483 43.5049ZM180.954 48.0076L181.255 49.9302C182.528 47.8717 184.233 47.5681 185.907 47.5681C187.612 47.5681 189.252 48.2416 190.154 49.1523L188.314 52.7286C187.477 52.0203 186.709 51.6471 185.371 51.6471C183.23 51.6471 181.255 52.795 181.255 55.8653V64.6399H177.173V48.0013L180.954 48.0076ZM170.951 54.3855C170.685 52.2258 169.011 51.1444 166.669 51.1444C164.462 51.1444 162.653 52.2258 162.052 54.3855H170.951ZM161.986 57.7941C162.252 59.8526 164.026 61.3388 166.904 61.3388C168.409 61.3388 170.384 60.7633 171.321 59.7862L173.929 62.3854C172.189 64.2067 169.346 65.0858 166.835 65.0858C161.149 65.0858 157.766 61.5411 157.766 56.21C157.766 51.1475 161.18 47.5017 166.534 47.5017C172.054 47.5017 175.503 50.9452 174.866 57.7941H161.986ZM143.986 41.0195V50.2653C145.46 48.3428 147.265 47.7673 149.14 47.7673C153.823 47.7673 155.898 50.9736 155.898 55.8685V64.6431H151.817V55.9032C151.817 52.8645 150.243 51.5839 148.068 51.5839C145.657 51.5839 143.986 53.6424 143.986 56.1404V64.6463H139.905V41.0227L143.986 41.0195ZM133.146 43.3152V48.0393H137.698V51.5839H133.115V58.7712C133.115 60.3585 133.987 61.1332 135.256 61.1332C135.892 61.1332 136.629 60.9309 137.231 60.6273L138.369 64.1372C137.2 64.6083 136.228 64.8107 134.99 64.8455C131.41 64.9814 129.068 62.9198 129.068 58.7712V51.5839H125.99V48.0393H129.068V43.7547L133.146 43.3152ZM121.871 54.3855C121.604 52.2258 119.931 51.1444 117.589 51.1444C115.382 51.1444 113.573 52.2258 112.971 54.3855H121.871ZM112.906 57.7941C113.172 59.8526 114.946 61.3388 117.824 61.3388C119.329 61.3388 121.304 60.7633 122.241 59.7862L124.849 62.3854C123.109 64.2067 120.266 65.0858 117.755 65.0858C112.066 65.0858 108.686 61.5411 108.686 56.21C108.686 51.1475 112.1 47.5017 117.451 47.5017C122.971 47.5017 126.416 50.9452 125.783 57.7941H112.906Z" fill="white"/>
</svg>
