<svg width="245" height="105" viewBox="0 0 245 105" fill="none" xmlns="http://www.w3.org/2000/svg">
<rect x="1" y="1" width="243" height="103" rx="9" fill="#11121E" stroke="#1F2946" stroke-width="2"/>
<path d="M184.668 24.0742V15.8142H181.42V14.2742H189.736V15.8142H186.488V24.0742H184.668ZM191.102 24.0742V14.2742H195.134C196.002 14.2742 196.744 14.4142 197.36 14.6942C197.985 14.9742 198.466 15.3756 198.802 15.8982C199.138 16.4209 199.306 17.0416 199.306 17.7602C199.306 18.4789 199.138 19.0996 198.802 19.6222C198.466 20.1356 197.985 20.5322 197.36 20.8122C196.744 21.0829 196.002 21.2182 195.134 21.2182H192.11L192.922 20.3922V24.0742H191.102ZM197.514 24.0742L195.036 20.5182H196.982L199.474 24.0742H197.514ZM192.922 20.5882L192.11 19.7202H195.05C195.853 19.7202 196.455 19.5476 196.856 19.2022C197.267 18.8569 197.472 18.3762 197.472 17.7602C197.472 17.1349 197.267 16.6542 196.856 16.3182C196.455 15.9822 195.853 15.8142 195.05 15.8142H192.11L192.922 14.9182V20.5882ZM205.878 24.2142C205.132 24.2142 204.436 24.0929 203.792 23.8502C203.158 23.5982 202.602 23.2482 202.126 22.8002C201.66 22.3429 201.296 21.8062 201.034 21.1902C200.773 20.5742 200.642 19.9022 200.642 19.1742C200.642 18.4462 200.773 17.7742 201.034 17.1582C201.296 16.5422 201.664 16.0102 202.14 15.5622C202.616 15.1049 203.172 14.7549 203.806 14.5122C204.441 14.2602 205.136 14.1342 205.892 14.1342C206.695 14.1342 207.428 14.2742 208.09 14.5542C208.753 14.8249 209.313 15.2309 209.77 15.7722L208.594 16.8782C208.24 16.4956 207.843 16.2109 207.404 16.0242C206.966 15.8282 206.49 15.7302 205.976 15.7302C205.463 15.7302 204.992 15.8142 204.562 15.9822C204.142 16.1502 203.774 16.3882 203.456 16.6962C203.148 17.0042 202.906 17.3682 202.728 17.7882C202.56 18.2082 202.476 18.6702 202.476 19.1742C202.476 19.6782 202.56 20.1402 202.728 20.5602C202.906 20.9802 203.148 21.3442 203.456 21.6522C203.774 21.9602 204.142 22.1982 204.562 22.3662C204.992 22.5342 205.463 22.6182 205.976 22.6182C206.49 22.6182 206.966 22.5249 207.404 22.3382C207.843 22.1422 208.24 21.8482 208.594 21.4562L209.77 22.5762C209.313 23.1082 208.753 23.5142 208.09 23.7942C207.428 24.0742 206.69 24.2142 205.878 24.2142ZM214.557 24.0742V22.8562L218.449 19.1602C218.776 18.8522 219.019 18.5816 219.177 18.3482C219.336 18.1149 219.439 17.9002 219.485 17.7042C219.541 17.4989 219.569 17.3076 219.569 17.1302C219.569 16.6822 219.415 16.3369 219.107 16.0942C218.799 15.8422 218.347 15.7162 217.749 15.7162C217.273 15.7162 216.839 15.8002 216.447 15.9682C216.065 16.1362 215.733 16.3929 215.453 16.7382L214.179 15.7582C214.562 15.2449 215.075 14.8482 215.719 14.5682C216.373 14.2789 217.101 14.1342 217.903 14.1342C218.613 14.1342 219.229 14.2509 219.751 14.4842C220.283 14.7082 220.689 15.0302 220.969 15.4502C221.259 15.8702 221.403 16.3696 221.403 16.9482C221.403 17.2656 221.361 17.5829 221.277 17.9002C221.193 18.2082 221.035 18.5349 220.801 18.8802C220.568 19.2256 220.227 19.6129 219.779 20.0422L216.433 23.2202L216.055 22.5342H221.781V24.0742H214.557ZM226.92 24.2142C226.145 24.2142 225.445 24.0182 224.82 23.6262C224.204 23.2342 223.718 22.6649 223.364 21.9182C223.009 21.1622 222.832 20.2476 222.832 19.1742C222.832 18.1009 223.009 17.1909 223.364 16.4442C223.718 15.6882 224.204 15.1142 224.82 14.7222C225.445 14.3302 226.145 14.1342 226.92 14.1342C227.704 14.1342 228.404 14.3302 229.02 14.7222C229.636 15.1142 230.121 15.6882 230.476 16.4442C230.84 17.1909 231.022 18.1009 231.022 19.1742C231.022 20.2476 230.84 21.1622 230.476 21.9182C230.121 22.6649 229.636 23.2342 229.02 23.6262C228.404 24.0182 227.704 24.2142 226.92 24.2142ZM226.92 22.6322C227.377 22.6322 227.774 22.5109 228.11 22.2682C228.446 22.0162 228.707 21.6336 228.894 21.1202C229.09 20.6069 229.188 19.9582 229.188 19.1742C229.188 18.3809 229.09 17.7322 228.894 17.2282C228.707 16.7149 228.446 16.3369 228.11 16.0942C227.774 15.8422 227.377 15.7162 226.92 15.7162C226.481 15.7162 226.089 15.8422 225.744 16.0942C225.408 16.3369 225.142 16.7149 224.946 17.2282C224.759 17.7322 224.666 18.3809 224.666 19.1742C224.666 19.9582 224.759 20.6069 224.946 21.1202C225.142 21.6336 225.408 22.0162 225.744 22.2682C226.089 22.5109 226.481 22.6322 226.92 22.6322Z" fill="#8C95BF"/>
<path d="M66.4217 71.9529C77.1901 71.9529 85.9196 63.1473 85.9196 52.2851C85.9196 41.4228 77.1901 32.6172 66.4217 32.6172C55.6533 32.6172 46.9238 41.4228 46.9238 52.2851C46.9238 63.1473 55.6533 71.9529 66.4217 71.9529Z" fill="#26A17B"/>
<path d="M68.4999 54.1032V54.1C68.3651 54.1095 67.6692 54.1506 66.1207 54.1506C64.8825 54.1506 64.0142 54.1158 63.707 54.1V54.1032C58.9453 53.8913 55.3937 53.0565 55.3937 52.0542C55.3937 51.055 58.9485 50.217 63.707 50.0052V53.2716C64.0173 53.2937 64.9107 53.3474 66.1426 53.3474C67.6222 53.3474 68.362 53.2842 68.4999 53.2716V50.0083C73.2522 50.2234 76.7944 51.0581 76.7944 52.0573C76.7944 53.0565 73.249 53.8913 68.4999 54.1063M68.4999 49.67V46.7483H75.1299V42.293H57.0802V46.7483H63.7101V49.67C58.3215 49.9198 54.2715 50.9949 54.2715 52.285C54.2715 53.5751 58.3247 54.6502 63.7101 54.9032V64.2691H68.5031V54.9032C73.8822 54.6534 77.926 53.5783 77.926 52.2882C77.926 51.0012 73.8822 49.923 68.5031 49.6732" fill="white"/>
<path d="M102.483 43.5049V48.229H107.034V51.7736H102.451V58.9609C102.451 60.5483 103.32 61.323 104.592 61.323C105.229 61.323 105.965 61.1206 106.567 60.817L107.705 64.3269C106.536 64.798 105.564 65.0004 104.326 65.0352C100.746 65.1712 98.4045 63.1127 98.4045 58.9609V51.7736H95.3262V48.229H98.4045V43.9444L102.483 43.5049ZM180.954 48.0076L181.255 49.9302C182.528 47.8717 184.233 47.5681 185.907 47.5681C187.612 47.5681 189.252 48.2416 190.154 49.1523L188.314 52.7286C187.477 52.0203 186.709 51.6471 185.371 51.6471C183.23 51.6471 181.255 52.795 181.255 55.8653V64.6399H177.173V48.0013L180.954 48.0076ZM170.951 54.3855C170.685 52.2258 169.011 51.1444 166.669 51.1444C164.462 51.1444 162.653 52.2258 162.052 54.3855H170.951ZM161.986 57.7941C162.252 59.8526 164.026 61.3388 166.904 61.3388C168.409 61.3388 170.384 60.7633 171.321 59.7862L173.929 62.3854C172.189 64.2067 169.346 65.0858 166.835 65.0858C161.149 65.0858 157.766 61.5411 157.766 56.21C157.766 51.1475 161.18 47.5017 166.534 47.5017C172.054 47.5017 175.503 50.9452 174.866 57.7941H161.986ZM143.986 41.0195V50.2653C145.46 48.3428 147.265 47.7673 149.14 47.7673C153.823 47.7673 155.898 50.9736 155.898 55.8685V64.6431H151.817V55.9032C151.817 52.8645 150.243 51.5839 148.068 51.5839C145.657 51.5839 143.986 53.6424 143.986 56.1404V64.6463H139.905V41.0227L143.986 41.0195ZM133.146 43.3152V48.0393H137.698V51.5839H133.115V58.7712C133.115 60.3585 133.987 61.1332 135.256 61.1332C135.892 61.1332 136.629 60.9309 137.231 60.6273L138.369 64.1372C137.2 64.6083 136.228 64.8107 134.99 64.8455C131.41 64.9814 129.068 62.9198 129.068 58.7712V51.5839H125.99V48.0393H129.068V43.7547L133.146 43.3152ZM121.871 54.3855C121.604 52.2258 119.931 51.1444 117.589 51.1444C115.382 51.1444 113.573 52.2258 112.971 54.3855H121.871ZM112.906 57.7941C113.172 59.8526 114.946 61.3388 117.824 61.3388C119.329 61.3388 121.304 60.7633 122.241 59.7862L124.849 62.3854C123.109 64.2067 120.266 65.0858 117.755 65.0858C112.066 65.0858 108.686 61.5411 108.686 56.21C108.686 51.1475 112.1 47.5017 117.451 47.5017C122.971 47.5017 126.416 50.9452 125.783 57.7941H112.906Z" fill="white"/>
</svg>
