<svg width="245" height="105" viewBox="0 0 245 105" fill="none" xmlns="http://www.w3.org/2000/svg">
<rect x="1" y="1" width="243" height="103" rx="9" fill="#11121E" stroke="#1F2946" stroke-width="2"/>
<path d="M183.542 22.5482H189.072V24.0742H181.722V14.2742H188.876V15.8002H183.542V18.3482H188.274V19.8462H183.542V22.5482ZM199.473 24.0742H197.513L195.511 21.2042C195.385 21.2182 195.259 21.2182 195.133 21.2182H192.921V24.0742H191.101V14.2742H195.133C197.709 14.2742 199.305 15.5902 199.305 17.7602C199.305 19.2442 198.549 20.3362 197.219 20.8542L199.473 24.0742ZM197.471 17.7602C197.471 16.5282 196.645 15.8142 195.049 15.8142H192.921V19.7202H195.049C196.645 19.7202 197.471 18.9922 197.471 17.7602ZM205.877 24.2142C202.881 24.2142 200.641 22.1002 200.641 19.1742C200.641 16.2482 202.881 14.1342 205.891 14.1342C207.487 14.1342 208.859 14.7082 209.769 15.7722L208.593 16.8782C207.879 16.1082 206.997 15.7302 205.975 15.7302C203.945 15.7302 202.475 17.1582 202.475 19.1742C202.475 21.1902 203.945 22.6182 205.975 22.6182C206.997 22.6182 207.879 22.2402 208.593 21.4562L209.769 22.5762C208.859 23.6402 207.487 24.2142 205.877 24.2142ZM217.16 22.5342H221.78V24.0742H214.556V22.8562L218.448 19.1602C219.4 18.2502 219.568 17.6762 219.568 17.1302C219.568 16.2342 218.952 15.7162 217.748 15.7162C216.796 15.7162 215.998 16.0382 215.452 16.7382L214.178 15.7582C214.934 14.7362 216.292 14.1342 217.902 14.1342C220.03 14.1342 221.402 15.2122 221.402 16.9482C221.402 17.9002 221.136 18.7682 219.778 20.0422L217.16 22.5342ZM226.878 24.2142C224.554 24.2142 222.79 22.3942 222.79 19.1742C222.79 15.9542 224.554 14.1342 226.878 14.1342C229.216 14.1342 230.98 15.9542 230.98 19.1742C230.98 22.3942 229.216 24.2142 226.878 24.2142ZM226.878 22.6322C228.222 22.6322 229.146 21.5402 229.146 19.1742C229.146 16.8082 228.222 15.7162 226.878 15.7162C225.548 15.7162 224.624 16.8082 224.624 19.1742C224.624 21.5402 225.548 22.6322 226.878 22.6322Z" fill="#8C95BF"/>
<path d="M66.4217 71.9529C77.1901 71.9529 85.9196 63.1473 85.9196 52.2851C85.9196 41.4228 77.1901 32.6172 66.4217 32.6172C55.6533 32.6172 46.9238 41.4228 46.9238 52.2851C46.9238 63.1473 55.6533 71.9529 66.4217 71.9529Z" fill="#26A17B"/>
<path d="M68.4999 54.1032V54.1C68.3651 54.1095 67.6692 54.1506 66.1207 54.1506C64.8825 54.1506 64.0142 54.1158 63.707 54.1V54.1032C58.9453 53.8913 55.3937 53.0565 55.3937 52.0542C55.3937 51.055 58.9485 50.217 63.707 50.0052V53.2716C64.0173 53.2937 64.9107 53.3474 66.1426 53.3474C67.6222 53.3474 68.362 53.2842 68.4999 53.2716V50.0083C73.2522 50.2234 76.7944 51.0581 76.7944 52.0573C76.7944 53.0565 73.249 53.8913 68.4999 54.1063M68.4999 49.67V46.7483H75.1299V42.293H57.0802V46.7483H63.7101V49.67C58.3215 49.9198 54.2715 50.9949 54.2715 52.285C54.2715 53.5751 58.3247 54.6502 63.7101 54.9032V64.2691H68.5031V54.9032C73.8822 54.6534 77.926 53.5783 77.926 52.2882C77.926 51.0012 73.8822 49.923 68.5031 49.6732" fill="white"/>
<path d="M102.483 43.5049V48.229H107.034V51.7736H102.451V58.9609C102.451 60.5483 103.32 61.323 104.592 61.323C105.229 61.323 105.965 61.1206 106.567 60.817L107.705 64.3269C106.536 64.798 105.564 65.0004 104.326 65.0352C100.746 65.1712 98.4045 63.1127 98.4045 58.9609V51.7736H95.3262V48.229H98.4045V43.9444L102.483 43.5049ZM180.954 48.0076L181.255 49.9302C182.528 47.8717 184.233 47.5681 185.907 47.5681C187.612 47.5681 189.252 48.2416 190.154 49.1523L188.314 52.7286C187.477 52.0203 186.709 51.6471 185.371 51.6471C183.23 51.6471 181.255 52.795 181.255 55.8653V64.6399H177.173V48.0013L180.954 48.0076ZM170.951 54.3855C170.685 52.2258 169.011 51.1444 166.669 51.1444C164.462 51.1444 162.653 52.2258 162.052 54.3855H170.951ZM161.986 57.7941C162.252 59.8526 164.026 61.3388 166.904 61.3388C168.409 61.3388 170.384 60.7633 171.321 59.7862L173.929 62.3854C172.189 64.2067 169.346 65.0858 166.835 65.0858C161.149 65.0858 157.766 61.5411 157.766 56.21C157.766 51.1475 161.18 47.5017 166.534 47.5017C172.054 47.5017 175.503 50.9452 174.866 57.7941H161.986ZM143.986 41.0195V50.2653C145.46 48.3428 147.265 47.7673 149.14 47.7673C153.823 47.7673 155.898 50.9736 155.898 55.8685V64.6431H151.817V55.9032C151.817 52.8645 150.243 51.5839 148.068 51.5839C145.657 51.5839 143.986 53.6424 143.986 56.1404V64.6463H139.905V41.0227L143.986 41.0195ZM133.146 43.3152V48.0393H137.698V51.5839H133.115V58.7712C133.115 60.3585 133.987 61.1332 135.256 61.1332C135.892 61.1332 136.629 60.9309 137.231 60.6273L138.369 64.1372C137.2 64.6083 136.228 64.8107 134.99 64.8455C131.41 64.9814 129.068 62.9198 129.068 58.7712V51.5839H125.99V48.0393H129.068V43.7547L133.146 43.3152ZM121.871 54.3855C121.604 52.2258 119.931 51.1444 117.589 51.1444C115.382 51.1444 113.573 52.2258 112.971 54.3855H121.871ZM112.906 57.7941C113.172 59.8526 114.946 61.3388 117.824 61.3388C119.329 61.3388 121.304 60.7633 122.241 59.7862L124.849 62.3854C123.109 64.2067 120.266 65.0858 117.755 65.0858C112.066 65.0858 108.686 61.5411 108.686 56.21C108.686 51.1475 112.1 47.5017 117.451 47.5017C122.971 47.5017 126.416 50.9452 125.783 57.7941H112.906Z" fill="white"/>
</svg>
