<svg width="245" height="105" viewBox="0 0 245 105" fill="none" xmlns="http://www.w3.org/2000/svg">
<rect x="1" y="1" width="243" height="103" rx="9" fill="#11121E" stroke="#1F2946" stroke-width="2"/>
<path d="M67.2534 52.3564C63.0441 41.7466 59.7574 32.8667 59.9304 32.636C60.161 32.463 67.0228 33.501 75.1531 34.9425L90.0298 37.6526L93.8932 41.5159L97.6988 45.4369L86.9737 58.5262C81.0346 65.7339 75.9027 71.6154 75.5567 71.6154C75.2107 71.6731 71.5204 62.9661 67.2534 52.3564ZM76.2486 56.2197C76.7676 52.0104 77.1136 48.493 76.9983 48.3777C76.8829 48.32 74.5765 46.4172 71.8664 44.2261C64.1973 37.9409 64.7163 38.2292 65.6389 40.5357C66.1002 41.6313 68.4066 47.3975 70.7708 53.3366C73.1349 59.2181 75.0954 64.0041 75.1531 63.9464C75.2107 63.8887 75.7297 60.429 76.2486 56.2197ZM85.3016 55.8161C88.9919 51.3761 91.875 47.6858 91.8173 47.5704C91.6444 47.3975 80.4003 49.3003 80.0543 49.5309C79.766 49.7039 78.2668 61.121 78.2092 62.9661C78.2092 63.7157 78.3245 64.2347 78.4398 64.1194C78.5551 64.0041 81.6689 60.256 85.3016 55.8161ZM88.7613 45.1486L92.7399 44.399L91.0101 42.6692C89.0496 40.7087 88.8766 40.7663 84.5519 44.572C83.0527 45.8982 82.8221 46.3019 83.687 46.0712C84.3213 45.9559 86.6278 45.4946 88.7613 45.1486ZM82.3031 42.7268C84.2636 41.0547 85.6475 39.6708 85.3592 39.5554C83.4564 39.0942 68.176 36.4994 67.83 36.6147C67.3687 36.7877 77.5749 45.6099 78.3245 45.6676C78.4975 45.7253 80.285 44.399 82.3031 42.7268Z" fill="#D61719"/>
<path d="M180.501 55.5272L173.64 47.4546L173.467 54.6623C173.351 61.4087 173.236 61.87 172.198 61.87C171.103 61.87 171.045 61.4087 171.045 51.2026C171.045 45.3211 171.16 40.5352 171.276 40.5352C171.449 40.5352 174.62 44.0525 178.368 48.3772L185.172 56.2192L185.345 49.2421C185.46 42.7263 185.576 42.265 186.614 42.265C187.709 42.265 187.767 42.7263 187.767 52.9324C187.767 58.814 187.709 63.5999 187.594 63.5999C187.479 63.5999 184.307 59.9672 180.501 55.5272Z" fill="white"/>
<path d="M109.924 54.9507C109.924 48.4349 109.981 48.0312 111.077 48.0312C112.173 48.0312 112.23 48.4349 112.23 54.9507C112.23 61.4665 112.173 61.8701 111.077 61.8701C109.981 61.8701 109.924 61.4665 109.924 54.9507Z" fill="white"/>
<path d="M113.383 54.9507C113.383 48.4349 113.44 48.0312 114.536 48.0312C115.632 48.0312 115.689 48.4349 115.689 54.9507C115.689 61.4665 115.632 61.8701 114.536 61.8701C113.44 61.8701 113.383 61.4665 113.383 54.9507Z" fill="white"/>
<path d="M125.492 52.0681V42.2656H132.181C135.814 42.2656 139.331 42.5539 139.965 42.8422C140.542 43.1882 141.465 44.2261 141.926 45.1487C143.31 47.8012 143.021 50.05 141.061 52.2988L139.273 54.3169L141.061 57.7767C141.983 59.6795 142.791 61.4093 142.791 61.5823C142.791 61.7553 142.214 61.8706 141.522 61.8706C140.484 61.8706 139.735 61.0057 138.178 58.1226C136.275 54.5476 136.044 54.3746 134.026 54.3746H131.835V58.1226C131.835 61.467 131.72 61.8706 130.682 61.8706C129.644 61.8706 129.529 61.467 129.529 57.027V52.2411L133.911 51.9528C138.408 51.6645 139.446 51.0879 140.196 48.7814C140.427 47.8012 140.138 47.1092 139.1 46.0136C137.774 44.6874 137.198 44.5721 132.7 44.5721H127.799V53.2214C127.799 61.467 127.741 61.8706 126.645 61.8706C125.55 61.8706 125.492 61.467 125.492 52.0681Z" fill="white"/>
<path d="M153.457 61.0057C147.46 58.8722 145.096 51.5492 148.729 46.302C150.459 43.7072 153.399 42.2656 156.974 42.2656C164.124 42.2656 168.622 49.8193 165.451 56.5081C163.605 60.4868 157.955 62.6202 153.457 61.0057ZM161.53 57.2577C164.701 54.2593 164.816 49.704 161.76 46.8209C157.147 42.4963 149.651 45.5523 149.709 51.6645C149.767 54.6053 150.689 56.3928 152.938 57.892C155.187 59.4488 159.569 59.1029 161.53 57.2577Z" fill="white"/>
<path d="M155.477 51.8391C155.477 50.6282 155.765 50.3398 156.976 50.3398C158.187 50.3398 158.417 50.5705 158.244 51.6661C158.129 52.4733 157.61 52.9923 156.803 53.1076C155.707 53.2806 155.477 53.0499 155.477 51.8391Z" fill="white"/>
<path d="M174.504 57.8332C174.504 54.2005 174.619 53.7969 175.657 53.7969C176.695 53.7969 176.81 54.2005 176.81 57.8332C176.81 61.4659 176.695 61.8695 175.657 61.8695C174.619 61.8695 174.504 61.4659 174.504 57.8332Z" fill="white"/>
<path d="M104.156 43.4189C104.156 42.3233 104.56 42.2656 112.806 42.2656C121.051 42.2656 121.455 42.3233 121.455 43.4189C121.455 44.5144 121.051 44.5721 112.806 44.5721C104.56 44.5721 104.156 44.5144 104.156 43.4189Z" fill="white"/>
</svg>
