<svg width="245" height="106" viewBox="0 0 245 106" fill="none" xmlns="http://www.w3.org/2000/svg">
<rect x="1" y="1" width="243" height="104" rx="9" fill="#11121E" stroke="#1F2946" stroke-width="2"/>
<path d="M60.7542 34C57.0198 34 53.3694 35.1074 50.2644 37.182C47.1594 39.2567 44.7394 42.2055 43.3103 45.6556C41.8812 49.1057 41.5073 52.902 42.2359 56.5646C42.9644 60.2272 44.7626 63.5915 47.4032 66.232C50.0438 68.8726 53.4081 70.6709 57.0706 71.3994C60.7332 72.1279 64.5296 71.754 67.9796 70.325C71.4297 68.8959 74.3785 66.4759 76.4532 63.3709C78.5279 60.2659 79.6353 56.6154 79.6353 52.8811C79.6353 47.8735 77.646 43.071 74.1051 39.5301C70.5642 35.9893 65.7617 34 60.7542 34ZM60.7542 59.9351C59.359 59.9351 57.9952 59.5214 56.8352 58.7463C55.6752 57.9712 54.771 56.8695 54.2371 55.5805C53.7032 54.2916 53.5635 52.8733 53.8357 51.5049C54.1079 50.1366 54.7797 48.8797 55.7662 47.8932C56.7528 46.9067 58.0097 46.2348 59.378 45.9627C60.7463 45.6905 62.1646 45.8302 63.4536 46.3641C64.7425 46.898 65.8442 47.8021 66.6193 48.9621C67.3944 50.1221 67.8081 51.486 67.8081 52.8811C67.8041 54.7507 67.0597 56.5426 65.7377 57.8646C64.4156 59.1866 62.6238 59.9311 60.7542 59.9351Z" fill="#8B3FFD"/>
<path d="M41.8755 39.5V66.9833H35.0783L26.4609 39.5H41.8755Z" fill="#8B3FFD"/>
<path d="M201.172 44.3977L196.988 54.669C196.895 54.8118 196.852 54.9822 196.868 55.1523L196.747 55.3865L196.633 55.1523C196.633 55.0315 196.513 54.7898 196.513 54.669L192.329 44.3977H186.951L194.005 61.942L190.984 68.6334H196.392L206.308 44.375L201.172 44.3977Z" fill="white"/>
<path d="M161.502 45.3282C160.455 44.5585 159.211 44.1026 157.914 44.0141C156.784 43.8907 155.64 44.0198 154.565 44.392C153.49 44.7642 152.511 45.3703 151.699 46.1665V44.2784H146.805V61.8454H151.699V52.639C151.699 50.6074 152.061 50.0107 152.454 49.5349C152.786 49.0506 153.241 48.6628 153.771 48.4108C154.302 48.1588 154.89 48.0515 155.475 48.1C156.081 48.0789 156.683 48.2103 157.225 48.4821C157.768 48.7539 158.233 49.1574 158.579 49.6558C158.886 50.3323 159.048 51.0654 159.055 51.8082V61.8454H163.919V51.204C163.919 48.4625 163.05 46.5442 161.502 45.3282Z" fill="white"/>
<path d="M137.482 44.5142C135.058 43.6775 132.405 43.8073 130.073 44.8767C128.46 45.598 127.119 46.815 126.244 48.3508C125.402 49.7995 124.989 51.4571 125.051 53.1315C124.99 54.8057 125.403 56.4632 126.244 57.9122C127.046 59.2708 128.203 60.3856 129.59 61.1371C131.034 61.8811 132.627 62.289 134.25 62.3304C135.089 62.3153 135.923 62.1857 136.727 61.9452C137.463 61.7153 138.182 61.4352 138.88 61.1069C140.266 60.3545 141.422 59.2399 142.225 57.882C143.066 56.433 143.48 54.7755 143.419 53.1013C143.507 51.2171 142.975 49.3559 141.902 47.8043C140.829 46.2527 139.276 45.0967 137.482 44.5142ZM138.917 53.3581C138.914 54.7433 138.372 56.073 137.407 57.0663C136.489 57.7423 135.389 58.1266 134.25 58.169C133.116 58.2205 132.006 57.8368 131.146 57.0965C130.159 56.1136 129.6 54.781 129.59 53.3883C129.511 52.5843 129.646 51.7737 129.982 51.0388C130.317 50.3039 130.841 49.6709 131.501 49.2042C132.28 48.6827 133.192 48.3945 134.129 48.3735C135.105 48.3914 136.056 48.6789 136.878 49.2042C137.576 49.6323 138.138 50.2502 138.498 50.9858C138.858 51.7214 139 52.5442 138.91 53.3581H138.917Z" fill="white"/>
<path d="M119.434 45.3297C118.387 44.56 117.143 44.1042 115.846 44.0156H115.016C114.044 44.0286 113.087 44.2609 112.218 44.695C111.348 45.1292 110.588 45.754 109.993 46.523L109.759 46.8856H109.276C108.935 46.3265 108.489 45.8391 107.962 45.4506C106.915 44.6808 105.671 44.225 104.374 44.1365C103.334 43.9958 102.274 44.1192 101.293 44.4953C100.313 44.8715 99.4426 45.4883 98.7629 46.2889V44.5141H93.8613V62.0811H98.7629V52.6405C98.7629 50.7297 98.997 50.2539 99.3595 49.6573C99.6548 49.1727 100.081 48.7811 100.588 48.5273C101.096 48.2735 101.665 48.1678 102.229 48.2223C102.8 48.2163 103.362 48.356 103.863 48.6283C104.364 48.9006 104.787 49.2964 105.092 49.7781C105.493 50.5055 105.662 51.3385 105.575 52.1647V61.9451H110.469V52.5272C110.469 50.7297 110.711 50.1331 111.073 49.5062C111.386 49.0401 111.814 48.663 112.315 48.4115C112.817 48.16 113.375 48.0428 113.936 48.0713C114.49 48.0663 115.036 48.2075 115.519 48.4806C116.001 48.7537 116.404 49.1492 116.685 49.6271C116.998 50.1719 117.165 50.7886 117.168 51.417V61.8469H122.062V51.0923C122.068 50.1641 121.948 49.2394 121.707 48.3432C121.275 47.1302 120.482 46.0786 119.434 45.3297Z" fill="white"/>
<path d="M182.288 56.5861C181.04 57.8337 179.387 58.5943 177.628 58.731C176.821 58.8167 176.006 58.7223 175.241 58.4545C174.475 58.1868 173.779 57.7524 173.202 57.1827C172.71 56.6287 172.344 55.9741 172.13 55.2644H185.633V55.1435C185.773 54.4747 185.854 53.7949 185.875 53.1119C185.84 52.2685 185.718 51.4308 185.513 50.6121C184.944 48.6986 183.77 47.0212 182.167 45.8314C181.037 44.9355 179.69 44.3567 178.262 44.1547C176.446 43.8588 174.583 44.0975 172.9 44.8417C171.217 45.586 169.787 46.8036 168.784 48.3464C167.823 49.9359 167.365 51.7787 167.47 53.6331C167.478 55.7966 168.285 57.8808 169.735 59.4862C172.25 62.2353 175.717 62.3561 176.789 62.5072C181.57 62.628 184.795 59.6372 185.513 59.0406L182.288 56.5861ZM173.92 49.1771C174.688 48.634 175.607 48.3436 176.548 48.3464C177.524 48.3642 178.477 48.6545 179.297 49.1847C180.015 49.7593 180.589 50.4938 180.974 51.3296H172.371C172.454 50.8785 172.636 50.4515 172.903 50.0792C173.171 49.707 173.518 49.3989 173.92 49.1771Z" fill="white"/>
</svg>
