<svg width="200" height="47" viewBox="0 0 200 47" fill="none" xmlns="http://www.w3.org/2000/svg">
<path d="M27.7537 7.73242H1.56568C0.700977 7.73242 0 8.43724 0 9.30668V25.0491C0 25.9185 0.700977 26.6233 1.56568 26.6233H27.7537C28.6184 26.6233 29.3194 25.9185 29.3194 25.0491V9.30668C29.3194 8.43724 28.6184 7.73242 27.7537 7.73242Z" fill="#009A44"/>
<path fill-rule="evenodd" clip-rule="evenodd" d="M4.62735 17.0341H3.26562V15.9315H4.62735V17.0341Z" fill="white"/>
<path fill-rule="evenodd" clip-rule="evenodd" d="M4.71094 14.7368H7.42961C7.7987 14.7368 8.10071 15.0288 8.10071 15.3854V15.8524H6.65839V19.4068H4.71094V14.7368V14.7368Z" fill="white"/>
<path fill-rule="evenodd" clip-rule="evenodd" d="M4.62735 19.4067H3.93672C3.56764 19.4067 3.26562 19.1149 3.26562 18.7582V18.2911H4.62735V19.4067V19.4067Z" fill="white"/>
<path fill-rule="evenodd" clip-rule="evenodd" d="M3.93672 14.7368H4.62735V15.8524H3.26562V15.3854C3.26562 15.0287 3.56764 14.7368 3.93672 14.7368V14.7368Z" fill="white"/>
<path fill-rule="evenodd" clip-rule="evenodd" d="M4.62735 18.214H3.26562V17.1113H4.62735V18.214Z" fill="white"/>
<path fill-rule="evenodd" clip-rule="evenodd" d="M8.09618 17.0341H6.73438V15.9315H8.09618V17.0341Z" fill="white"/>
<path fill-rule="evenodd" clip-rule="evenodd" d="M8.09618 18.214H6.73438V17.1113H8.09618V18.214Z" fill="white"/>
<path fill-rule="evenodd" clip-rule="evenodd" d="M6.73438 19.4067H7.42508C7.79409 19.4067 8.09618 19.1149 8.09618 18.7582V18.2911H6.73446V19.4067H6.73438Z" fill="white"/>
<path d="M2.19143 23.146C2.00857 23.146 1.86981 23.0996 1.77521 23.0077C1.68011 22.9154 1.63281 22.7866 1.63281 22.6214V21.7816C1.63281 21.6159 1.68061 21.4867 1.7757 21.3948C1.8708 21.3029 2.00956 21.257 2.19143 21.257C2.37478 21.257 2.51346 21.3029 2.60815 21.3944C2.70275 21.4859 2.75013 21.6152 2.75013 21.7816V22.6214C2.75013 22.7875 2.70275 22.9163 2.60773 23.0082C2.51264 23.1001 2.37387 23.146 2.19151 23.146H2.19143ZM2.19143 22.8998C2.28842 22.8998 2.36003 22.8755 2.40642 22.8278C2.45232 22.7801 2.47531 22.7112 2.47531 22.6214V21.7816C2.47531 21.6919 2.45281 21.6234 2.40692 21.5753C2.36102 21.5276 2.28924 21.5038 2.19143 21.5038C2.09353 21.5038 2.02192 21.5276 1.97644 21.5753C1.93054 21.6234 1.90755 21.6919 1.90755 21.7816V22.6214C1.90755 22.7112 1.93046 22.7802 1.97685 22.8278C2.02324 22.8755 2.09444 22.8998 2.19143 22.8998ZM3.6583 23.146C3.47545 23.146 3.33668 23.0996 3.24208 23.0077C3.14698 22.9154 3.09969 22.7866 3.09969 22.6214V21.7816C3.09969 21.6159 3.14748 21.4867 3.24257 21.3948C3.33767 21.3029 3.47644 21.257 3.6583 21.257C3.84157 21.257 3.98034 21.3029 4.07494 21.3944C4.16962 21.4859 4.21692 21.6152 4.21692 21.7816V22.6214C4.21692 22.7875 4.16962 22.9163 4.07452 23.0082C3.97943 23.1001 3.84066 23.146 3.6583 23.146V23.146ZM3.6583 22.8998C3.75521 22.8998 3.8269 22.8755 3.87329 22.8278C3.91919 22.7801 3.94218 22.7112 3.94218 22.6214V21.7816C3.94218 21.6919 3.91969 21.6234 3.87379 21.5753C3.82789 21.5276 3.7562 21.5038 3.65838 21.5038C3.56049 21.5038 3.48888 21.5276 3.44339 21.5753C3.39749 21.6234 3.3745 21.6919 3.3745 21.7816V22.6214C3.3745 22.7112 3.39741 22.7802 3.4438 22.8278C3.4902 22.8755 3.56139 22.8998 3.65838 22.8998H3.6583ZM5.12509 23.146C4.94224 23.146 4.80347 23.0996 4.70887 23.0077C4.61378 22.9154 4.56648 22.7866 4.56648 22.6214V21.7816C4.56648 21.6159 4.61427 21.4867 4.70936 21.3948C4.80446 21.3029 4.94323 21.257 5.12509 21.257C5.30844 21.257 5.44713 21.3029 5.54181 21.3944C5.63649 21.4859 5.68379 21.6152 5.68379 21.7816V22.6214C5.68379 22.7875 5.63649 22.9163 5.5414 23.0082C5.4463 23.1001 5.30753 23.146 5.12517 23.146H5.12509ZM5.12509 22.8998C5.22208 22.8998 5.29369 22.8755 5.34008 22.8278C5.38598 22.7801 5.40897 22.7112 5.40897 22.6214V21.7816C5.40897 21.6919 5.38648 21.6234 5.34058 21.5753C5.29468 21.5276 5.2229 21.5038 5.12509 21.5038C5.02728 21.5038 4.95559 21.5276 4.9101 21.5753C4.8642 21.6234 4.84121 21.6919 4.84121 21.7816V22.6214C4.84121 22.7112 4.86412 22.7802 4.91059 22.8278C4.95699 22.8755 5.02818 22.8998 5.12509 22.8998ZM6.59196 23.146C6.40911 23.146 6.27034 23.0996 6.17574 23.0077C6.08065 22.9154 6.03335 22.7866 6.03335 22.6214V21.7816C6.03335 21.6159 6.08114 21.4867 6.17624 21.3948C6.27133 21.3029 6.4101 21.257 6.59196 21.257C6.77531 21.257 6.914 21.3029 7.0086 21.3944C7.10328 21.4859 7.15058 21.6152 7.15058 21.7816V22.6214C7.15058 22.7875 7.1032 22.9163 7.00819 23.0082C6.91309 23.1001 6.77432 23.146 6.59196 23.146V23.146ZM6.59196 22.8998C6.68895 22.8998 6.76056 22.8755 6.80696 22.8278C6.85286 22.7801 6.87576 22.7112 6.87576 22.6214V21.7816C6.87576 21.6919 6.85335 21.6234 6.80737 21.5753C6.76147 21.5276 6.6897 21.5038 6.59188 21.5038C6.49407 21.5038 6.42238 21.5276 6.37689 21.5753C6.33099 21.6234 6.30808 21.6919 6.30808 21.7816V22.6214C6.30808 22.7112 6.33099 22.7802 6.37747 22.8278C6.42386 22.8755 6.49497 22.8998 6.59196 22.8998Z" fill="white"/>
<path d="M9.03518 23.1462C8.85232 23.1462 8.71356 23.0997 8.61896 23.0078C8.52386 22.9155 8.47656 22.7867 8.47656 22.6215V21.7817C8.47656 21.616 8.52436 21.4868 8.61945 21.3949C8.71455 21.303 8.85331 21.2571 9.03526 21.2571C9.21853 21.2571 9.3573 21.303 9.4519 21.3945C9.54658 21.486 9.59388 21.6153 9.59388 21.7818V22.6216C9.59388 22.7876 9.54658 22.9164 9.45148 23.0083C9.35639 23.1002 9.21762 23.1462 9.03526 23.1462H9.03518ZM9.03518 22.8999C9.13209 22.8999 9.20378 22.8756 9.25017 22.8279C9.29607 22.7802 9.31906 22.7113 9.31906 22.6216V21.7818C9.31906 21.692 9.29656 21.6235 9.25067 21.5754C9.20477 21.5277 9.13308 21.5039 9.03526 21.5039C8.93745 21.5039 8.86576 21.5277 8.82027 21.5754C8.77437 21.6235 8.75138 21.692 8.75138 21.7818V22.6216C8.75138 22.7113 8.77429 22.7803 8.82076 22.8279C8.86716 22.8756 8.93835 22.8999 9.03534 22.8999H9.03518ZM10.502 23.1462C10.3191 23.1462 10.1804 23.0997 10.0857 23.0078C9.99065 22.9155 9.94335 22.7867 9.94335 22.6215V21.7817C9.94335 21.616 9.99115 21.4868 10.0862 21.3949C10.1813 21.303 10.3201 21.2571 10.502 21.2571C10.6853 21.2571 10.824 21.303 10.9187 21.3945C11.0133 21.486 11.0607 21.6153 11.0607 21.7818V22.6216C11.0607 22.7876 11.0133 22.9164 10.9183 23.0083C10.8232 23.1002 10.6844 23.1462 10.5021 23.1462H10.502ZM10.502 22.8999C10.599 22.8999 10.6706 22.8756 10.717 22.8279C10.7629 22.7802 10.7859 22.7113 10.7859 22.6216V21.7818C10.7859 21.692 10.7634 21.6235 10.7175 21.5754C10.6716 21.5277 10.5998 21.5039 10.502 21.5039C10.4042 21.5039 10.3325 21.5277 10.287 21.5754C10.2411 21.6235 10.2181 21.692 10.2181 21.7818V22.6216C10.2181 22.7113 10.241 22.7803 10.2875 22.8279C10.3339 22.8756 10.4051 22.8999 10.502 22.8999ZM11.9688 23.1462C11.786 23.1462 11.6472 23.0997 11.5526 23.0078C11.4576 22.9155 11.4102 22.7867 11.4102 22.6215V21.7817C11.4102 21.616 11.458 21.4868 11.5531 21.3949C11.6482 21.303 11.787 21.2571 11.9688 21.2571C12.1521 21.2571 12.2909 21.303 12.3855 21.3945C12.4802 21.486 12.5275 21.6153 12.5275 21.7818V22.6216C12.5275 22.7876 12.4801 22.9164 12.3851 23.0083C12.29 23.1002 12.1512 23.1462 11.9688 23.1462ZM11.9688 22.8999C12.0657 22.8999 12.1374 22.8756 12.1838 22.8279C12.2297 22.7802 12.2527 22.7113 12.2527 22.6216V21.7818C12.2527 21.692 12.2302 21.6235 12.1843 21.5754C12.1384 21.5277 12.0667 21.5039 11.9688 21.5039C11.871 21.5039 11.7993 21.5277 11.7539 21.5754C11.708 21.6235 11.685 21.692 11.685 21.7818V22.6216C11.685 22.7113 11.7079 22.7803 11.7543 22.8279C11.8007 22.8756 11.8719 22.8999 11.9689 22.8999H11.9688ZM13.4356 23.1462C13.2528 23.1462 13.1141 23.0997 13.0194 23.0078C12.9243 22.9155 12.877 22.7867 12.877 22.6215V21.7817C12.877 21.616 12.9248 21.4868 13.0199 21.3949C13.115 21.303 13.2538 21.2571 13.4356 21.2571C13.619 21.2571 13.7577 21.303 13.8524 21.3945C13.947 21.486 13.9943 21.6153 13.9943 21.7818V22.6216C13.9943 22.7876 13.947 22.9164 13.8519 23.0083C13.7568 23.1002 13.6181 23.1462 13.4357 23.1462H13.4356ZM13.4356 22.8999C13.5326 22.8999 13.6042 22.8756 13.6506 22.8279C13.6965 22.7802 13.7195 22.7113 13.7195 22.6216V21.7818C13.7195 21.692 13.697 21.6235 13.651 21.5754C13.6051 21.5277 13.5334 21.5039 13.4356 21.5039C13.3377 21.5039 13.266 21.5277 13.2206 21.5754C13.1747 21.6235 13.1517 21.692 13.1517 21.7818V22.6216C13.1517 22.7113 13.1746 22.7803 13.2211 22.8279C13.2674 22.8756 13.3386 22.8999 13.4356 22.8999H13.4356Z" fill="white"/>
<path d="M15.8867 23.1462C15.7039 23.1462 15.5652 23.0997 15.4705 23.0078C15.3754 22.9155 15.3281 22.7867 15.3281 22.6215V21.7817C15.3281 21.616 15.3759 21.4868 15.471 21.3949C15.5661 21.303 15.7049 21.2571 15.8867 21.2571C16.0701 21.2571 16.2088 21.303 16.3035 21.3945C16.3981 21.486 16.4454 21.6153 16.4454 21.7818V22.6216C16.4454 22.7876 16.3981 22.9164 16.303 23.0083C16.208 23.1002 16.0692 23.1462 15.8868 23.1462H15.8867ZM15.8867 22.8999C15.9837 22.8999 16.0553 22.8756 16.1017 22.8279C16.1476 22.7802 16.1705 22.7113 16.1705 22.6216V21.7818C16.1705 21.692 16.1481 21.6235 16.1021 21.5754C16.0562 21.5277 15.9846 21.5039 15.8867 21.5039C15.7888 21.5039 15.7172 21.5277 15.6717 21.5754C15.6258 21.6235 15.6029 21.692 15.6029 21.7818V22.6216C15.6029 22.7113 15.6258 22.7803 15.6722 22.8279C15.7186 22.8756 15.7898 22.8999 15.8867 22.8999ZM17.3536 23.1462C17.1708 23.1462 17.032 23.0997 16.9374 23.0078C16.8423 22.9155 16.795 22.7867 16.795 22.6215V21.7817C16.795 21.616 16.8428 21.4868 16.9379 21.3949C17.033 21.303 17.1717 21.2571 17.3537 21.2571C17.537 21.2571 17.6757 21.303 17.7703 21.3945C17.865 21.486 17.9123 21.6153 17.9123 21.7818V22.6216C17.9123 22.7876 17.865 22.9164 17.7699 23.0083C17.6748 23.1002 17.5361 23.1462 17.3537 23.1462H17.3536ZM17.3536 22.8999C17.4505 22.8999 17.5222 22.8756 17.5686 22.8279C17.6145 22.7802 17.6375 22.7113 17.6375 22.6216V21.7818C17.6375 21.692 17.615 21.6235 17.569 21.5754C17.5231 21.5277 17.4514 21.5039 17.3536 21.5039C17.2558 21.5039 17.1841 21.5277 17.1386 21.5754C17.0927 21.6235 17.0697 21.692 17.0697 21.7818V22.6216C17.0697 22.7113 17.0926 22.7803 17.1391 22.8279C17.1855 22.8756 17.2567 22.8999 17.3537 22.8999H17.3536ZM18.8204 23.1462C18.6376 23.1462 18.4989 23.0997 18.4042 23.0078C18.3091 22.9155 18.2618 22.7867 18.2618 22.6215V21.7817C18.2618 21.616 18.3096 21.4868 18.4047 21.3949C18.4998 21.303 18.6385 21.2571 18.8204 21.2571C19.0038 21.2571 19.1424 21.303 19.2371 21.3945C19.3318 21.486 19.3791 21.6153 19.3791 21.7818V22.6216C19.3791 22.7876 19.3318 22.9164 19.2367 23.0083C19.1416 23.1002 19.0028 23.1462 18.8205 23.1462H18.8204ZM18.8204 22.8999C18.9174 22.8999 18.989 22.8756 19.0354 22.8279C19.0813 22.7802 19.1043 22.7113 19.1043 22.6216V21.7818C19.1043 21.692 19.0818 21.6235 19.0358 21.5754C18.9899 21.5277 18.9182 21.5039 18.8203 21.5039C18.7225 21.5039 18.6508 21.5277 18.6053 21.5754C18.5594 21.6235 18.5364 21.692 18.5364 21.7818V22.6216C18.5364 22.7113 18.5593 22.7803 18.6058 22.8279C18.6522 22.8756 18.7234 22.8999 18.8203 22.8999H18.8204ZM20.2873 23.1462C20.1044 23.1462 19.9657 23.0997 19.8711 23.0078C19.776 22.9155 19.7286 22.7867 19.7286 22.6215V21.7817C19.7286 21.616 19.7764 21.4868 19.8715 21.3949C19.9666 21.303 20.1053 21.2571 20.2872 21.2571C20.4705 21.2571 20.6092 21.303 20.7038 21.3945C20.7985 21.486 20.8458 21.6153 20.8458 21.7818V22.6216C20.8458 22.7876 20.7984 22.9164 20.7034 23.0083C20.6083 23.1002 20.4696 23.1462 20.2872 23.1462H20.2873ZM20.2873 22.8999C20.3842 22.8999 20.4559 22.8756 20.5023 22.8279C20.5482 22.7802 20.5712 22.7113 20.5712 22.6216V21.7818C20.5712 21.692 20.5487 21.6235 20.5028 21.5754C20.4569 21.5277 20.3852 21.5039 20.2873 21.5039C20.1895 21.5039 20.1178 21.5277 20.0723 21.5754C20.0264 21.6235 20.0034 21.692 20.0034 21.7818V22.6216C20.0034 22.7113 20.0263 22.7803 20.0728 22.8279C20.1192 22.8756 20.1904 22.8999 20.2874 22.8999H20.2873Z" fill="white"/>
<path d="M22.7383 23.1462C22.5555 23.1462 22.4168 23.0997 22.3221 23.0078C22.227 22.9155 22.1797 22.7867 22.1797 22.6215V21.7817C22.1797 21.616 22.2275 21.4868 22.3226 21.3949C22.4177 21.303 22.5564 21.2571 22.7383 21.2571C22.9217 21.2571 23.0603 21.303 23.155 21.3945C23.2497 21.486 23.297 21.6153 23.297 21.7818V22.6216C23.297 22.7876 23.2497 22.9164 23.1546 23.0083C23.0595 23.1002 22.9207 23.1462 22.7384 23.1462H22.7383ZM22.7383 22.8999C22.8353 22.8999 22.9069 22.8756 22.9533 22.8279C22.9992 22.7802 23.0222 22.7113 23.0222 22.6216V21.7818C23.0222 21.692 22.9997 21.6235 22.9537 21.5754C22.9078 21.5277 22.8361 21.5039 22.7382 21.5039C22.6404 21.5039 22.5687 21.5277 22.5232 21.5754C22.4773 21.6235 22.4543 21.692 22.4543 21.7818V22.6216C22.4543 22.7113 22.4772 22.7803 22.5237 22.8279C22.5701 22.8756 22.6413 22.8999 22.7382 22.8999H22.7383ZM24.2052 23.1462C24.0224 23.1462 23.8836 23.0997 23.789 23.0078C23.6939 22.9155 23.6465 22.7867 23.6465 22.6215V21.7817C23.6465 21.616 23.6943 21.4868 23.7894 21.3949C23.8845 21.303 24.0232 21.2571 24.2051 21.2571C24.3884 21.2571 24.5271 21.303 24.6218 21.3945C24.7164 21.486 24.7638 21.6153 24.7638 21.7818V22.6216C24.7638 22.7876 24.7164 22.9164 24.6214 23.0083C24.5263 23.1002 24.3875 23.1462 24.2052 23.1462V23.1462ZM24.2052 22.8999C24.3022 22.8999 24.3738 22.8756 24.4202 22.8279C24.4661 22.7802 24.4891 22.7113 24.4891 22.6216V21.7818C24.4891 21.692 24.4666 21.6235 24.4206 21.5754C24.3747 21.5277 24.303 21.5039 24.2051 21.5039C24.1073 21.5039 24.0356 21.5277 23.9901 21.5754C23.9442 21.6235 23.9212 21.692 23.9212 21.7818V22.6216C23.9212 22.7113 23.9441 22.7803 23.9906 22.8279C24.037 22.8756 24.1081 22.8999 24.2051 22.8999H24.2052ZM25.672 23.1462C25.4892 23.1462 25.3504 23.0997 25.2558 23.0078C25.1607 22.9155 25.1134 22.7867 25.1134 22.6215V21.7817C25.1134 21.616 25.1613 21.4868 25.2563 21.3949C25.3514 21.303 25.4902 21.2571 25.672 21.2571C25.8553 21.2571 25.9941 21.303 26.0887 21.3945C26.1834 21.486 26.2307 21.6153 26.2307 21.7818V22.6216C26.2307 22.7876 26.1834 22.9164 26.0883 23.0083C25.9932 23.1002 25.8544 23.1462 25.672 23.1462V23.1462ZM25.672 22.8999C25.769 22.8999 25.8406 22.8756 25.887 22.8279C25.9329 22.7802 25.9559 22.7113 25.9559 22.6216V21.7818C25.9559 21.692 25.9334 21.6235 25.8875 21.5754C25.8416 21.5277 25.7699 21.5039 25.672 21.5039C25.5742 21.5039 25.5025 21.5277 25.4571 21.5754C25.4112 21.6235 25.3882 21.692 25.3882 21.7818V22.6216C25.3882 22.7113 25.4111 22.7803 25.4576 22.8279C25.5039 22.8756 25.5751 22.8999 25.6721 22.8999H25.672ZM27.1388 23.1462C26.9561 23.1462 26.8173 23.0997 26.7226 23.0078C26.6275 22.9155 26.5802 22.7867 26.5802 22.6215V21.7817C26.5802 21.616 26.628 21.4868 26.7231 21.3949C26.8182 21.303 26.957 21.2571 27.1388 21.2571C27.3222 21.2571 27.4609 21.303 27.5556 21.3945C27.6502 21.486 27.6975 21.6153 27.6975 21.7818V22.6216C27.6975 22.7876 27.6502 22.9164 27.5551 23.0083C27.46 23.1002 27.3213 23.1462 27.1389 23.1462H27.1388ZM27.1388 22.8999C27.2358 22.8999 27.3074 22.8756 27.3538 22.8279C27.3997 22.7802 27.4227 22.7113 27.4227 22.6216V21.7818C27.4227 21.692 27.4002 21.6235 27.3542 21.5754C27.3083 21.5277 27.2367 21.5039 27.1388 21.5039C27.0409 21.5039 26.9693 21.5277 26.9238 21.5754C26.8778 21.6235 26.8549 21.692 26.8549 21.7818V22.6216C26.8549 22.7113 26.8778 22.7803 26.9243 22.8279C26.9707 22.8756 27.0418 22.8999 27.1388 22.8999H27.1388Z" fill="white"/>
<path fill-rule="evenodd" clip-rule="evenodd" d="M22.6126 14.982C23.2679 14.982 23.847 15.2973 24.1965 15.7795C24.453 15.5652 24.7873 15.4356 25.1528 15.4356C25.961 15.4356 26.6162 16.0689 26.6162 16.85C26.6162 17.6312 25.961 18.2643 25.1528 18.2643C24.7872 18.2643 24.453 18.1348 24.1965 17.9205C23.847 18.4026 23.2679 18.718 22.6126 18.718C21.5451 18.718 20.6797 17.8817 20.6797 16.8499C20.6797 15.8182 21.545 14.9819 22.6126 14.9819V14.982Z" fill="white"/>
<path d="M2.11719 9.90158H3.56756V10.2162H2.5089V10.6511H3.03294C3.17762 10.6511 3.2976 10.6681 3.39288 10.7022C3.48816 10.7363 3.56933 10.7994 3.63638 10.8915C3.70431 10.9836 3.73827 11.0914 3.73827 11.2151C3.73827 11.3421 3.70431 11.4508 3.63638 11.5412C3.56845 11.6316 3.49081 11.6934 3.40347 11.7267C3.31701 11.7599 3.1935 11.7765 3.03294 11.7765H2.11719V9.90158ZM2.5089 11.4619H2.89002C3.01176 11.4619 3.09734 11.4564 3.14674 11.4453C3.19615 11.4334 3.23894 11.4069 3.27511 11.366C3.31216 11.3251 3.33069 11.2748 3.33069 11.2151C3.33069 11.1281 3.29849 11.065 3.23408 11.0258C3.17056 10.9857 3.06161 10.9657 2.90722 10.9657H2.5089V11.4619Z" fill="white"/>
<path d="M5.70343 11.7765H5.27732L5.10793 11.3506H4.33245L4.17233 11.7765H3.7568L4.51243 9.90158H4.92663L5.70343 11.7765ZM4.98221 11.0347L4.7149 10.339L4.45288 11.0347H4.98221Z" fill="white"/>
<path d="M5.91384 11.7765V9.90158H6.30555V10.6395H7.07308V9.90158H7.46479V11.7765H7.07308V10.9567H6.30555V11.7765H5.91384Z" fill="white"/>
<path d="M7.87767 9.90158H8.26938V10.6997C8.35672 10.6911 8.41583 10.6694 8.44671 10.6344C8.47758 10.5995 8.52522 10.5023 8.58963 10.3428C8.67079 10.1399 8.7524 10.0137 8.83444 9.96425C8.91561 9.9148 9.04662 9.89007 9.22748 9.89007C9.2363 9.89007 9.25527 9.88965 9.28438 9.88879V10.1689L9.2288 10.1676C9.14852 10.1676 9.08985 10.1774 9.0528 10.197C9.01574 10.2158 8.98575 10.2448 8.96281 10.284C8.93987 10.3232 8.90591 10.4038 8.86091 10.5257C8.83709 10.5905 8.81107 10.6447 8.78283 10.6881C8.75549 10.7316 8.70652 10.7726 8.63594 10.8109C8.72328 10.8348 8.79519 10.883 8.85165 10.9554C8.90899 11.0279 8.97163 11.1302 9.03956 11.2624L9.30423 11.7765H8.84371L8.61212 11.2918C8.6086 11.285 8.6011 11.2718 8.58963 11.2522C8.58522 11.2453 8.56889 11.2159 8.54066 11.1639C8.49038 11.0718 8.44891 11.0143 8.41627 10.9913C8.38451 10.9682 8.33555 10.9563 8.26938 10.9554V11.7765H7.87767V9.90158Z" fill="white"/>
<path fill-rule="evenodd" clip-rule="evenodd" d="M42.032 7.56281C41.5904 8.30197 41.1489 9.04113 40.7073 9.78029C38.594 8.54029 34.9191 8.15691 31.7621 10.5038C35.7363 10.1664 37.0584 11.0284 39.1944 12.3128L37.7988 14.649L44.1966 13.4947L42.032 7.56281Z" fill="#009A44"/>
<path d="M64.785 19.7213H38.5969C37.7322 19.7213 37.0312 20.4261 37.0312 21.2956V37.0379C37.0312 37.9074 37.7322 38.6122 38.5969 38.6122H64.785C65.6497 38.6122 66.3507 37.9074 66.3507 37.0379V21.2956C66.3507 20.4261 65.6497 19.7213 64.785 19.7213Z" fill="#007FC6"/>
<path fill-rule="evenodd" clip-rule="evenodd" d="M41.6664 29.0234H40.3047V27.9208H41.6664V29.0234Z" fill="white"/>
<path fill-rule="evenodd" clip-rule="evenodd" d="M41.75 26.7261H44.4687C44.8378 26.7261 45.1398 27.018 45.1398 27.3747V27.8417H43.6975V31.3961H41.75V26.7261Z" fill="white"/>
<path fill-rule="evenodd" clip-rule="evenodd" d="M41.6664 31.396H40.9758C40.6067 31.396 40.3047 31.1041 40.3047 30.7474V30.2804H41.6664V31.396Z" fill="white"/>
<path fill-rule="evenodd" clip-rule="evenodd" d="M40.9758 26.7261H41.6664V27.8417H40.3047V27.3747C40.3047 27.018 40.6067 26.7261 40.9758 26.7261Z" fill="white"/>
<path fill-rule="evenodd" clip-rule="evenodd" d="M41.6664 30.2032H40.3047V29.1006H41.6664V30.2032Z" fill="white"/>
<path fill-rule="evenodd" clip-rule="evenodd" d="M45.1352 29.0234H43.7734V27.9208H45.1352V29.0234Z" fill="white"/>
<path fill-rule="evenodd" clip-rule="evenodd" d="M45.1352 30.2032H43.7734V29.1006H45.1352V30.2032Z" fill="white"/>
<path fill-rule="evenodd" clip-rule="evenodd" d="M43.7734 31.396H44.4641C44.8332 31.396 45.1352 31.1041 45.1352 30.7474V30.2804H43.7735V31.396H43.7734Z" fill="white"/>
<path d="M39.2149 35.1346C39.032 35.1346 38.8932 35.0881 38.7986 34.9962C38.7036 34.9039 38.6562 34.7751 38.6562 34.6099V33.7701C38.6562 33.6044 38.704 33.4752 38.7991 33.3833C38.8942 33.2914 39.033 33.2455 39.2149 33.2455C39.3982 33.2455 39.5369 33.2914 39.6316 33.3829C39.7262 33.4745 39.7736 33.6037 39.7736 33.7702V34.61C39.7736 34.776 39.7262 34.9048 39.6312 34.9967C39.5361 35.0886 39.3973 35.1346 39.2149 35.1346H39.2149ZM39.2149 34.8883C39.3119 34.8883 39.3835 34.864 39.4299 34.8163C39.4758 34.7686 39.4987 34.6997 39.4987 34.61V33.7702C39.4987 33.6804 39.4763 33.6119 39.4304 33.5638C39.3845 33.5161 39.3127 33.4923 39.2149 33.4923C39.117 33.4923 39.0454 33.5161 38.9999 33.5638C38.954 33.6119 38.931 33.6804 38.931 33.7702V34.61C38.931 34.6997 38.9539 34.7687 39.0003 34.8163C39.0467 34.864 39.1179 34.8883 39.2149 34.8883V34.8883ZM40.6817 35.1346C40.4989 35.1346 40.3601 35.0881 40.2655 34.9962C40.1704 34.9039 40.1231 34.7751 40.1231 34.6099V33.7701C40.1231 33.6044 40.1709 33.4752 40.266 33.3833C40.3611 33.2914 40.4999 33.2455 40.6817 33.2455C40.865 33.2455 41.0038 33.2914 41.0984 33.3829C41.1931 33.4745 41.2404 33.6037 41.2404 33.7702V34.61C41.2404 34.776 41.1931 34.9048 41.098 34.9967C41.0029 35.0886 40.8641 35.1346 40.6817 35.1346V35.1346ZM40.6817 34.8883C40.7786 34.8883 40.8503 34.864 40.8967 34.8163C40.9426 34.7686 40.9656 34.6997 40.9656 34.61V33.7702C40.9656 33.6804 40.9431 33.6119 40.8972 33.5638C40.8513 33.5161 40.7796 33.4923 40.6818 33.4923C40.5839 33.4923 40.5123 33.5161 40.4668 33.5638C40.4209 33.6119 40.3979 33.6804 40.3979 33.7702V34.61C40.3979 34.6997 40.4208 34.7687 40.4672 34.8163C40.5136 34.864 40.5848 34.8883 40.6818 34.8883H40.6817ZM42.1485 35.1346C41.9657 35.1346 41.8269 35.0881 41.7323 34.9962C41.6372 34.9039 41.5899 34.7751 41.5899 34.6099V33.7701C41.5899 33.6044 41.6377 33.4752 41.7328 33.3833C41.8279 33.2914 41.9667 33.2455 42.1485 33.2455C42.3319 33.2455 42.4706 33.2914 42.5652 33.3829C42.6599 33.4745 42.7072 33.6037 42.7072 33.7702V34.61C42.7072 34.776 42.6599 34.9048 42.5648 34.9967C42.4697 35.0886 42.331 35.1346 42.1486 35.1346H42.1485ZM42.1485 34.8883C42.2455 34.8883 42.3171 34.864 42.3635 34.8163C42.4094 34.7686 42.4324 34.6997 42.4324 34.61V33.7702C42.4324 33.6804 42.4099 33.6119 42.364 33.5638C42.3181 33.5161 42.2463 33.4923 42.1485 33.4923C42.0507 33.4923 41.979 33.5161 41.9335 33.5638C41.8876 33.6119 41.8646 33.6804 41.8646 33.7702V34.61C41.8646 34.6997 41.8876 34.7687 41.934 34.8163C41.9804 34.864 42.0516 34.8883 42.1485 34.8883ZM43.6154 35.1346C43.4325 35.1346 43.2938 35.0881 43.1992 34.9962C43.1041 34.9039 43.0568 34.7751 43.0568 34.6099V33.7701C43.0568 33.6044 43.1046 33.4752 43.1997 33.3833C43.2948 33.2914 43.4335 33.2455 43.6154 33.2455C43.7988 33.2455 43.9374 33.2914 44.032 33.3829C44.1267 33.4745 44.174 33.6037 44.174 33.7702V34.61C44.174 34.776 44.1266 34.9048 44.0316 34.9967C43.9365 35.0886 43.7978 35.1346 43.6154 35.1346V35.1346ZM43.6154 34.8883C43.7124 34.8883 43.784 34.864 43.8304 34.8163C43.8763 34.7686 43.8992 34.6997 43.8992 34.61V33.7702C43.8992 33.6804 43.8768 33.6119 43.8308 33.5638C43.7849 33.5161 43.7131 33.4923 43.6153 33.4923C43.5175 33.4923 43.4458 33.5161 43.4003 33.5638C43.3544 33.6119 43.3315 33.6804 43.3315 33.7702V34.61C43.3315 34.6997 43.3544 34.7687 43.4009 34.8163C43.4473 34.864 43.5184 34.8883 43.6154 34.8883Z" fill="white"/>
<path d="M46.0664 35.1346C45.8836 35.1346 45.7448 35.0881 45.6502 34.9962C45.5551 34.9039 45.5078 34.7751 45.5078 34.6099V33.7701C45.5078 33.6044 45.5556 33.4752 45.6507 33.3833C45.7458 33.2914 45.8846 33.2455 46.0665 33.2455C46.2498 33.2455 46.3885 33.2914 46.4831 33.3829C46.5778 33.4745 46.6251 33.6037 46.6251 33.7702V34.61C46.6251 34.776 46.5778 34.9048 46.4827 34.9967C46.3876 35.0886 46.2489 35.1346 46.0665 35.1346H46.0664ZM46.0664 34.8883C46.1633 34.8883 46.235 34.864 46.2814 34.8163C46.3273 34.7686 46.3503 34.6997 46.3503 34.61V33.7702C46.3503 33.6804 46.3278 33.6119 46.2819 33.5638C46.236 33.5161 46.1643 33.4923 46.0665 33.4923C45.9687 33.4923 45.897 33.5161 45.8515 33.5638C45.8056 33.6119 45.7826 33.6804 45.7826 33.7702V34.61C45.7826 34.6997 45.8055 34.7687 45.852 34.8163C45.8984 34.864 45.9696 34.8883 46.0666 34.8883H46.0664ZM47.5332 35.1346C47.3504 35.1346 47.2117 35.0881 47.117 34.9962C47.0219 34.9039 46.9746 34.7751 46.9746 34.6099V33.7701C46.9746 33.6044 47.0224 33.4752 47.1175 33.3833C47.2126 33.2914 47.3514 33.2455 47.5332 33.2455C47.7166 33.2455 47.8553 33.2914 47.9499 33.3829C48.0445 33.4745 48.0919 33.6037 48.0919 33.7702V34.61C48.0919 34.776 48.0445 34.9048 47.9495 34.9967C47.8544 35.0886 47.7157 35.1346 47.5333 35.1346H47.5332ZM47.5332 34.8883C47.6302 34.8883 47.7018 34.864 47.7482 34.8163C47.7941 34.7686 47.8171 34.6997 47.8171 34.61V33.7702C47.8171 33.6804 47.7946 33.6119 47.7487 33.5638C47.7028 33.5161 47.631 33.4923 47.5332 33.4923C47.4354 33.4923 47.3637 33.5161 47.3182 33.5638C47.2723 33.6119 47.2493 33.6804 47.2493 33.7702V34.61C47.2493 34.6997 47.2722 34.7687 47.3187 34.8163C47.3651 34.864 47.4363 34.8883 47.5332 34.8883ZM49.0001 35.1346C48.8172 35.1346 48.6785 35.0881 48.5839 34.9962C48.4889 34.9039 48.4415 34.7751 48.4415 34.6099V33.7701C48.4415 33.6044 48.4893 33.4752 48.5844 33.3833C48.6795 33.2914 48.8182 33.2455 49.0001 33.2455C49.1834 33.2455 49.3221 33.2914 49.4167 33.3829C49.5114 33.4745 49.5587 33.6037 49.5587 33.7702V34.61C49.5587 34.776 49.5113 34.9048 49.4163 34.9967C49.3212 35.0886 49.1825 35.1346 49.0001 35.1346V35.1346ZM49.0001 34.8883C49.097 34.8883 49.1687 34.864 49.2151 34.8163C49.261 34.7686 49.284 34.6997 49.284 34.61V33.7702C49.284 33.6804 49.2615 33.6119 49.2156 33.5638C49.1697 33.5161 49.098 33.4923 49.0001 33.4923C48.9023 33.4923 48.8306 33.5161 48.7851 33.5638C48.7392 33.6119 48.7162 33.6804 48.7162 33.7702V34.61C48.7162 34.6997 48.7391 34.7687 48.7856 34.8163C48.832 34.864 48.9032 34.8883 49.0002 34.8883H49.0001ZM50.4669 35.1346C50.284 35.1346 50.1453 35.0881 50.0507 34.9962C49.9556 34.9039 49.9083 34.7751 49.9083 34.6099V33.7701C49.9083 33.6044 49.9561 33.4752 50.0512 33.3833C50.1462 33.2914 50.285 33.2455 50.4669 33.2455C50.6502 33.2455 50.7889 33.2914 50.8836 33.3829C50.9783 33.4745 51.0256 33.6037 51.0256 33.7702V34.61C51.0256 34.776 50.9783 34.9048 50.8832 34.9967C50.7881 35.0886 50.6493 35.1346 50.467 35.1346H50.4669ZM50.4669 34.8883C50.5639 34.8883 50.6355 34.864 50.6819 34.8163C50.7278 34.7686 50.7508 34.6997 50.7508 34.61V33.7702C50.7508 33.6804 50.7283 33.6119 50.6823 33.5638C50.6364 33.5161 50.5647 33.4923 50.4668 33.4923C50.369 33.4923 50.2973 33.5161 50.2518 33.5638C50.2059 33.6119 50.1829 33.6804 50.1829 33.7702V34.61C50.1829 34.6997 50.2058 34.7687 50.2523 34.8163C50.2987 34.864 50.3699 34.8883 50.4668 34.8883H50.4669Z" fill="white"/>
<path d="M52.9102 35.1346C52.7273 35.1346 52.5886 35.0881 52.494 34.9962C52.3989 34.9039 52.3516 34.7751 52.3516 34.6099V33.7701C52.3516 33.6044 52.3994 33.4752 52.4944 33.3833C52.5895 33.2914 52.7283 33.2455 52.9102 33.2455C53.0935 33.2455 53.2322 33.2914 53.3269 33.3829C53.4215 33.4745 53.4689 33.6037 53.4689 33.7702V34.61C53.4689 34.776 53.4215 34.9048 53.3265 34.9967C53.2314 35.0886 53.0926 35.1346 52.9103 35.1346H52.9102ZM52.9102 34.8883C53.0072 34.8883 53.0788 34.864 53.1252 34.8163C53.1711 34.7686 53.194 34.6997 53.194 34.61V33.7702C53.194 33.6804 53.1716 33.6119 53.1256 33.5638C53.0797 33.5161 53.008 33.4923 52.9101 33.4923C52.8123 33.4923 52.7406 33.5161 52.6951 33.5638C52.6492 33.6119 52.6263 33.6804 52.6263 33.7702V34.61C52.6263 34.6997 52.6492 34.7687 52.6957 34.8163C52.7421 34.864 52.8132 34.8883 52.9102 34.8883ZM54.3771 35.1346C54.1942 35.1346 54.0554 35.0881 53.9608 34.9962C53.8657 34.9039 53.8184 34.7751 53.8184 34.6099V33.7701C53.8184 33.6044 53.8662 33.4752 53.9613 33.3833C54.0564 33.2914 54.1952 33.2455 54.3771 33.2455C54.5604 33.2455 54.6992 33.2914 54.7938 33.3829C54.8884 33.4745 54.9357 33.6037 54.9357 33.7702V34.61C54.9357 34.776 54.8885 34.9048 54.7934 34.9967C54.6983 35.0886 54.5595 35.1346 54.3771 35.1346H54.3771ZM54.3771 34.8883C54.474 34.8883 54.5456 34.864 54.592 34.8163C54.6379 34.7686 54.6609 34.6997 54.6609 34.61V33.7702C54.6609 33.6804 54.6384 33.6119 54.5925 33.5638C54.5466 33.5161 54.4749 33.4923 54.3771 33.4923C54.2792 33.4923 54.2075 33.5161 54.1621 33.5638C54.1162 33.6119 54.0932 33.6804 54.0932 33.7702V34.61C54.0932 34.6997 54.1161 34.7687 54.1626 34.8163C54.2089 34.864 54.2801 34.8883 54.3771 34.8883H54.3771ZM55.8438 35.1346C55.6611 35.1346 55.5223 35.0881 55.4276 34.9962C55.3325 34.9039 55.2852 34.7751 55.2852 34.6099V33.7701C55.2852 33.6044 55.333 33.4752 55.4281 33.3833C55.5232 33.2914 55.662 33.2455 55.8438 33.2455C56.0272 33.2455 56.1659 33.2914 56.2606 33.3829C56.3552 33.4745 56.4025 33.6037 56.4025 33.7702V34.61C56.4025 34.776 56.3552 34.9048 56.2601 34.9967C56.1651 35.0886 56.0263 35.1346 55.8439 35.1346H55.8438ZM55.8438 34.8883C55.9408 34.8883 56.0124 34.864 56.0588 34.8163C56.1047 34.7686 56.1277 34.6997 56.1277 34.61V33.7702C56.1277 33.6804 56.1052 33.6119 56.0592 33.5638C56.0133 33.5161 55.9417 33.4923 55.8438 33.4923C55.7459 33.4923 55.6743 33.5161 55.6288 33.5638C55.5829 33.6119 55.5599 33.6804 55.5599 33.7702V34.61C55.5599 34.6997 55.5828 34.7687 55.6293 34.8163C55.6757 34.864 55.7469 34.8883 55.8438 34.8883H55.8438ZM57.3107 35.1346C57.1279 35.1346 56.9891 35.0881 56.8945 34.9962C56.7994 34.9039 56.752 34.7751 56.752 34.6099V33.7701C56.752 33.6044 56.7998 33.4752 56.8949 33.3833C56.99 33.2914 57.1288 33.2455 57.3106 33.2455C57.4939 33.2455 57.6327 33.2914 57.7273 33.3829C57.8219 33.4745 57.8692 33.6037 57.8692 33.7702V34.61C57.8692 34.776 57.8219 34.9048 57.7269 34.9967C57.6318 35.0886 57.493 35.1346 57.3106 35.1346H57.3107ZM57.3107 34.8883C57.4076 34.8883 57.4793 34.864 57.5257 34.8163C57.5716 34.7686 57.5946 34.6997 57.5946 34.61V33.7702C57.5946 33.6804 57.5721 33.6119 57.5262 33.5638C57.4803 33.5161 57.4086 33.4923 57.3107 33.4923C57.2129 33.4923 57.1412 33.5161 57.0957 33.5638C57.0498 33.6119 57.0268 33.6804 57.0268 33.7702V34.61C57.0268 34.6997 57.0497 34.7687 57.0962 34.8163C57.1426 34.864 57.2138 34.8883 57.3108 34.8883H57.3107Z" fill="white"/>
<path d="M59.7617 35.1346C59.579 35.1346 59.4402 35.0881 59.3455 34.9962C59.2504 34.9039 59.2031 34.7751 59.2031 34.6099V33.7701C59.2031 33.6044 59.2509 33.4752 59.346 33.3833C59.4411 33.2914 59.5799 33.2455 59.7617 33.2455C59.9451 33.2455 60.0838 33.2914 60.1785 33.3829C60.2731 33.4745 60.3204 33.6037 60.3204 33.7702V34.61C60.3204 34.776 60.2731 34.9048 60.178 34.9967C60.083 35.0886 59.9442 35.1346 59.7618 35.1346H59.7617ZM59.7617 34.8883C59.8587 34.8883 59.9303 34.864 59.9767 34.8163C60.0226 34.7686 60.0456 34.6997 60.0456 34.61V33.7702C60.0456 33.6804 60.0231 33.6119 59.9771 33.5638C59.9312 33.5161 59.8596 33.4923 59.7617 33.4923C59.6638 33.4923 59.5922 33.5161 59.5467 33.5638C59.5008 33.6119 59.4778 33.6804 59.4778 33.7702V34.61C59.4778 34.6997 59.5007 34.7687 59.5472 34.8163C59.5936 34.864 59.6648 34.8883 59.7617 34.8883H59.7617ZM61.2286 35.1346C61.0458 35.1346 60.9071 35.0881 60.8124 34.9962C60.7173 34.9039 60.6699 34.7751 60.6699 34.6099V33.7701C60.6699 33.6044 60.7177 33.4752 60.8128 33.3833C60.9079 33.2914 61.0467 33.2455 61.2285 33.2455C61.4119 33.2455 61.5506 33.2914 61.6453 33.3829C61.7399 33.4745 61.7872 33.6037 61.7872 33.7702V34.61C61.7872 34.776 61.7398 34.9048 61.6448 34.9967C61.5497 35.0886 61.411 35.1346 61.2286 35.1346V35.1346ZM61.2286 34.8883C61.3256 34.8883 61.3972 34.864 61.4436 34.8163C61.4895 34.7686 61.5125 34.6997 61.5125 34.61V33.7702C61.5125 33.6804 61.49 33.6119 61.444 33.5638C61.3981 33.5161 61.3264 33.4923 61.2285 33.4923C61.1307 33.4923 61.059 33.5161 61.0135 33.5638C60.9676 33.6119 60.9447 33.6804 60.9447 33.7702V34.61C60.9447 34.6997 60.9676 34.7687 61.014 34.8163C61.0604 34.864 61.1315 34.8883 61.2285 34.8883H61.2286ZM62.6955 35.1346C62.5126 35.1346 62.3739 35.0881 62.2793 34.9962C62.1842 34.9039 62.1369 34.7751 62.1369 34.6099V33.7701C62.1369 33.6044 62.1847 33.4752 62.2798 33.3833C62.3749 33.2914 62.5136 33.2455 62.6955 33.2455C62.8788 33.2455 63.0175 33.2914 63.1121 33.3829C63.2068 33.4745 63.2541 33.6037 63.2541 33.7702V34.61C63.2541 34.776 63.2068 34.9048 63.1117 34.9967C63.0166 35.0886 62.8778 35.1346 62.6955 35.1346ZM62.6955 34.8883C62.7924 34.8883 62.8641 34.864 62.9105 34.8163C62.9564 34.7686 62.9794 34.6997 62.9794 34.61V33.7702C62.9794 33.6804 62.9569 33.6119 62.9109 33.5638C62.865 33.5161 62.7933 33.4923 62.6955 33.4923C62.5977 33.4923 62.526 33.5161 62.4805 33.5638C62.4346 33.6119 62.4116 33.6804 62.4116 33.7702V34.61C62.4116 34.6997 62.4345 34.7687 62.481 34.8163C62.5274 34.864 62.5986 34.8883 62.6956 34.8883H62.6955ZM64.1623 35.1346C63.9795 35.1346 63.8407 35.0881 63.7461 34.9962C63.651 34.9039 63.6037 34.7751 63.6037 34.6099V33.7701C63.6037 33.6044 63.6515 33.4752 63.7466 33.3833C63.8416 33.2914 63.9804 33.2455 64.1623 33.2455C64.3456 33.2455 64.4843 33.2914 64.579 33.3829C64.6737 33.4745 64.721 33.6037 64.721 33.7702V34.61C64.721 34.776 64.6736 34.9048 64.5786 34.9967C64.4835 35.0886 64.3447 35.1346 64.1624 35.1346H64.1623ZM64.1623 34.8883C64.2593 34.8883 64.3309 34.864 64.3773 34.8163C64.4232 34.7686 64.4462 34.6997 64.4462 34.61V33.7702C64.4462 33.6804 64.4237 33.6119 64.3777 33.5638C64.3318 33.5161 64.2601 33.4923 64.1622 33.4923C64.0644 33.4923 63.9927 33.5161 63.9472 33.5638C63.9012 33.6119 63.8783 33.6804 63.8783 33.7702V34.61C63.8783 34.6997 63.9012 34.7687 63.9477 34.8163C63.9941 34.864 64.0653 34.8883 64.1622 34.8883H64.1623Z" fill="white"/>
<path fill-rule="evenodd" clip-rule="evenodd" d="M59.6516 26.9735C60.307 26.9735 60.886 27.2888 61.2356 27.7709C61.492 27.5567 61.8263 27.4271 62.1919 27.4271C63.0001 27.4271 63.6553 28.0603 63.6553 28.8414C63.6553 29.6226 63.0001 30.2558 62.1919 30.2558C61.8263 30.2558 61.492 30.1262 61.2356 29.912C60.886 30.394 60.307 30.7094 59.6516 30.7094C58.5842 30.7094 57.7188 29.8731 57.7188 28.8414C57.7188 27.8097 58.5841 26.9734 59.6516 26.9734V26.9735Z" fill="white"/>
<path d="M39.1484 21.8908H40.5988V22.2055H39.5401V22.6403H40.0642C40.2089 22.6403 40.3289 22.6574 40.4241 22.6915C40.5194 22.7256 40.6006 22.7887 40.6676 22.8808C40.7356 22.9728 40.7695 23.0807 40.7695 23.2043C40.7695 23.3314 40.7356 23.4401 40.6676 23.5305C40.5997 23.6209 40.5221 23.6827 40.4347 23.7159C40.3483 23.7492 40.2248 23.7658 40.0642 23.7658H39.1484V21.8908ZM39.5401 23.4512H39.9213C40.043 23.4512 40.1286 23.4456 40.178 23.4346C40.2274 23.4226 40.2702 23.3962 40.3064 23.3553C40.3434 23.3143 40.3619 23.264 40.3619 23.2043C40.3619 23.1174 40.3297 23.0543 40.2653 23.0151C40.2018 22.975 40.0929 22.9549 39.9385 22.9549H39.5401V23.4512Z" fill="white"/>
<path d="M42.7347 23.7658H42.3086L42.1392 23.3399H41.3637L41.2036 23.7658H40.7881L41.5437 21.8908H41.9579L42.7347 23.7658ZM42.0135 23.024L41.7461 22.3282L41.4841 23.024H42.0135Z" fill="white"/>
<path d="M42.9451 23.7658V21.8908H43.3368V22.6288H44.1043V21.8908H44.496V23.7658H44.1043V22.946H43.3368V23.7658H42.9451Z" fill="white"/>
<path d="M44.9089 21.8908H45.3006V22.6889C45.388 22.6804 45.4471 22.6586 45.478 22.6237C45.5088 22.5887 45.5565 22.4915 45.6209 22.3321C45.702 22.1292 45.7836 22.003 45.8657 21.9535C45.9469 21.9041 46.0779 21.8793 46.2587 21.8793C46.2675 21.8793 46.2865 21.8789 46.3156 21.8781V22.1581L46.26 22.1569C46.1798 22.1569 46.1211 22.1667 46.084 22.1863C46.047 22.205 46.017 22.234 45.9941 22.2733C45.9711 22.3125 45.9372 22.393 45.8922 22.515C45.8683 22.5798 45.8423 22.6339 45.8141 22.6774C45.7867 22.7209 45.7378 22.7618 45.6672 22.8002C45.7545 22.8241 45.8264 22.8722 45.8829 22.9447C45.9402 23.0172 46.0029 23.1195 46.0708 23.2517L46.3355 23.7658H45.875L45.6434 23.2811C45.6398 23.2743 45.6323 23.261 45.6209 23.2414C45.6165 23.2346 45.6001 23.2052 45.5719 23.1532C45.5216 23.0611 45.4802 23.0035 45.4475 22.9805C45.4158 22.9575 45.3668 22.9456 45.3006 22.9447V23.7658H44.9089V21.8908Z" fill="white"/>
<path fill-rule="evenodd" clip-rule="evenodd" d="M23.914 38.4145C24.3555 37.6754 24.7971 36.9362 25.2387 36.197C27.352 37.437 31.0269 37.8204 34.1839 35.4735C30.2097 35.8109 28.8875 34.9489 26.7515 33.6646L28.1471 31.3284L21.7494 32.4826L23.9139 38.4146L23.914 38.4145Z" fill="#007FC6"/>
<path d="M78.117 18.1408H74V28H75.8584V25.1549H78.117C80.7474 25.1549 82.377 23.8169 82.377 21.6479C82.377 19.4648 80.7474 18.1408 78.117 18.1408ZM78.0313 23.6056H75.8584V19.6901H78.0313C79.6609 19.6901 80.5044 20.4085 80.5044 21.6479C80.5044 22.8873 79.6609 23.6056 78.0313 23.6056Z" fill="white"/>
<path d="M86.1182 26.4507L88.7914 23.9437C90.178 22.662 90.4496 21.7887 90.4496 20.831C90.4496 19.0845 89.0487 18 86.8758 18C85.2319 18 83.8452 18.6056 83.0733 19.6338L84.3741 20.6197C84.9316 19.9155 85.7465 19.5915 86.7186 19.5915C87.948 19.5915 88.5769 20.1127 88.5769 21.0141C88.5769 21.5634 88.4054 22.1408 87.4333 23.0563L83.4592 26.7746V28H90.8356V26.4507H86.1182Z" fill="white"/>
<path d="M96.74 18.1408H92.623V28H94.4813V25.1549H96.74C99.3703 25.1549 101 23.8169 101 21.6479C101 19.4648 99.3703 18.1408 96.74 18.1408ZM96.6542 23.6056H94.4813V19.6901H96.6542C98.2839 19.6901 99.1273 20.4085 99.1273 21.6479C99.1273 22.8873 98.2839 23.6056 96.6542 23.6056Z" fill="white"/>
<path d="M168.358 17.5222C166.714 17.5222 165.409 17.0286 164.442 16.0414C163.476 15.0493 162.992 13.6565 162.992 11.8629C162.992 10.1329 163.476 8.75472 164.442 7.72842C165.414 6.69723 166.722 6.18164 168.365 6.18164C168.802 6.18164 169.195 6.20608 169.543 6.25495C169.892 6.30382 170.225 6.37224 170.544 6.46021C170.794 6.53351 171.067 6.6337 171.361 6.76077C171.656 6.88783 171.894 6.99779 172.075 7.09065V9.69305H171.795C171.663 9.57576 171.496 9.43647 171.295 9.2752C171.094 9.10904 170.866 8.94776 170.61 8.79137C170.355 8.63498 170.073 8.50303 169.764 8.39551C169.46 8.28311 169.141 8.22691 168.807 8.22691C168.41 8.22691 168.044 8.29044 167.71 8.41751C167.382 8.53968 167.068 8.75472 166.768 9.06261C166.493 9.34117 166.268 9.71748 166.091 10.1915C165.919 10.6656 165.833 11.2252 165.833 11.8703C165.833 12.5496 165.924 13.1214 166.106 13.5857C166.287 14.045 166.525 14.4165 166.82 14.6999C167.104 14.9736 167.421 15.1715 167.769 15.2937C168.123 15.4159 168.473 15.477 168.822 15.477C169.185 15.477 169.531 15.4183 169.86 15.301C170.188 15.1789 170.466 15.0445 170.691 14.8978C170.937 14.7463 171.153 14.5924 171.339 14.436C171.526 14.2796 171.688 14.1403 171.825 14.0182H172.075V16.5839C171.874 16.6768 171.641 16.7843 171.376 16.9065C171.111 17.0238 170.839 17.1239 170.559 17.207C170.215 17.3096 169.894 17.3878 169.595 17.4416C169.295 17.4954 168.883 17.5222 168.358 17.5222Z" fill="white"/>
<path d="M182.498 13.8202C182.498 14.3529 182.395 14.8441 182.189 15.2937C181.988 15.7384 181.71 16.1025 181.357 16.386C180.935 16.7232 180.479 16.9627 179.988 17.1044C179.502 17.2412 178.908 17.3096 178.207 17.3096H173.702V6.39423H181.666V8.47615H176.44V10.4921H178.251C178.908 10.4921 179.497 10.541 180.017 10.6387C180.537 10.7316 181.004 10.9393 181.416 11.2618C181.794 11.555 182.068 11.924 182.24 12.3688C182.412 12.8086 182.498 13.2924 182.498 13.8202ZM179.657 13.9009C179.657 13.72 179.637 13.549 179.598 13.3877C179.559 13.2264 179.473 13.0774 179.34 12.9405C179.208 12.8086 179.026 12.7035 178.795 12.6253C178.565 12.5471 178.246 12.508 177.839 12.508H176.44V15.2864H177.839C178.403 15.2864 178.847 15.1666 179.171 14.9272C179.495 14.6877 179.657 14.3456 179.657 13.9009Z" fill="white"/>
<path d="M193.303 17.3096H190.55V8.47615H186.804V17.3096H184.051V6.39423H193.303V17.3096Z" fill="white"/>
<path d="M166.654 26.2715H165.553V22.7381H164.055V26.2715H162.953V21.9054H166.654V26.2715Z" fill="white"/>
<path d="M167.564 26.2715V21.9054H170.529V22.7381H168.659V23.5034H170.382V24.3362H168.659V25.4388H170.529V26.2715H167.564Z" fill="white"/>
<path d="M174.648 23.2835C174.648 23.4868 174.616 23.6804 174.551 23.8641C174.486 24.0479 174.393 24.2013 174.271 24.3245C174.197 24.4007 174.114 24.4711 174.024 24.5356C173.935 24.6001 173.837 24.6549 173.729 24.6998C173.621 24.7448 173.504 24.78 173.376 24.8054C173.25 24.8308 173.109 24.8435 172.952 24.8435H172.375V26.2715H171.274V21.9054H172.976C173.229 21.9054 173.447 21.9288 173.629 21.9757C173.814 22.0207 173.981 22.093 174.13 22.1927C174.295 22.3022 174.422 22.4488 174.513 22.6326C174.603 22.8144 174.648 23.0314 174.648 23.2835ZM173.517 23.3099C173.517 23.1868 173.488 23.0812 173.429 22.9932C173.37 22.9033 173.3 22.8417 173.217 22.8085C173.113 22.7635 173.013 22.7381 172.917 22.7323C172.823 22.7244 172.694 22.7205 172.531 22.7205H172.375V24.0283H172.452C172.556 24.0283 172.654 24.0273 172.746 24.0254C172.838 24.0234 172.919 24.0166 172.987 24.0049C173.046 23.9951 173.108 23.9765 173.173 23.9492C173.24 23.9198 173.291 23.8876 173.326 23.8524C173.401 23.7801 173.451 23.7048 173.476 23.6266C173.504 23.5484 173.517 23.4428 173.517 23.3099Z" fill="white"/>
<path d="M175.237 26.2715V21.9054H178.202V22.7381H176.332V23.5034H178.054V24.3362H176.332V25.4388H178.202V26.2715H175.237Z" fill="white"/>
<path d="M182.453 24.9344C182.453 25.1514 182.412 25.342 182.33 25.5062C182.247 25.6704 182.136 25.8063 181.997 25.9138C181.832 26.0428 181.65 26.1347 181.452 26.1894C181.256 26.2442 181.006 26.2715 180.701 26.2715H178.947V21.9054H180.495C180.817 21.9054 181.061 21.9181 181.225 21.9435C181.392 21.9669 181.548 22.0178 181.694 22.096C181.851 22.18 181.967 22.2924 182.044 22.4332C182.122 22.5739 182.162 22.7362 182.162 22.9199C182.162 23.133 182.108 23.3226 182 23.4888C181.894 23.6549 181.747 23.7771 181.558 23.8553V23.8788C181.829 23.9355 182.046 24.0518 182.209 24.2277C182.372 24.4017 182.453 24.6373 182.453 24.9344ZM181.043 23.1398C181.043 23.0695 181.024 22.9971 180.987 22.9229C180.952 22.8486 180.896 22.7948 180.819 22.7616C180.747 22.7303 180.66 22.7137 180.56 22.7117C180.462 22.7078 180.315 22.7059 180.118 22.7059H180.042V23.6295H180.18C180.369 23.6295 180.5 23.6276 180.575 23.6237C180.651 23.6198 180.73 23.5992 180.81 23.5621C180.899 23.521 180.959 23.4644 180.993 23.392C181.026 23.3197 181.043 23.2356 181.043 23.1398ZM181.32 24.9139C181.32 24.779 181.292 24.6734 181.237 24.5972C181.182 24.5209 181.1 24.4633 180.99 24.4242C180.923 24.3988 180.831 24.3851 180.713 24.3831C180.597 24.3792 180.441 24.3773 180.245 24.3773H180.042V25.471H180.101C180.387 25.471 180.586 25.4691 180.695 25.4651C180.805 25.4612 180.917 25.4348 181.031 25.386C181.131 25.343 181.204 25.2804 181.249 25.1983C181.296 25.1142 181.32 25.0194 181.32 24.9139Z" fill="white"/>
<path d="M187.079 24.0899C187.079 24.7956 186.889 25.3508 186.51 25.7554C186.132 26.1601 185.612 26.3624 184.953 26.3624C184.291 26.3624 183.772 26.1581 183.395 25.7496C183.018 25.3391 182.83 24.7858 182.83 24.0899C182.83 23.3881 183.018 22.8339 183.395 22.4273C183.772 22.0187 184.291 21.8145 184.953 21.8145C185.612 21.8145 186.132 22.0178 186.51 22.4244C186.889 22.829 187.079 23.3842 187.079 24.0899ZM185.942 24.087C185.942 23.827 185.915 23.6061 185.86 23.4243C185.807 23.2405 185.735 23.09 185.645 22.9727C185.551 22.8535 185.444 22.7684 185.324 22.7176C185.206 22.6648 185.083 22.6384 184.956 22.6384C184.82 22.6384 184.698 22.6629 184.588 22.7117C184.478 22.7586 184.372 22.8437 184.27 22.9668C184.179 23.0802 184.106 23.2307 184.049 23.4184C183.994 23.6061 183.967 23.8299 183.967 24.0899C183.967 24.3577 183.993 24.5806 184.046 24.7585C184.099 24.9344 184.172 25.082 184.264 25.2012C184.358 25.3224 184.465 25.4094 184.585 25.4622C184.705 25.513 184.828 25.5385 184.956 25.5385C185.085 25.5385 185.211 25.5111 185.333 25.4563C185.454 25.3997 185.559 25.3127 185.648 25.1954C185.742 25.0683 185.815 24.9207 185.866 24.7526C185.917 24.5825 185.942 24.3607 185.942 24.087Z" fill="white"/>
<path d="M191.784 27.2744H190.774V26.2569H188.324V27.2744H187.314V25.4358H187.609C187.815 25.0097 187.978 24.4916 188.097 23.8817C188.217 23.2698 188.277 22.6111 188.277 21.9054H191.368V25.4358H191.784V27.2744ZM190.267 25.4358V22.7381H189.307C189.27 23.2659 189.197 23.7615 189.087 24.2248C188.977 24.6861 188.838 25.0898 188.671 25.4358H190.267Z" fill="white"/>
<path d="M166.654 32.9986H165.553V29.4652H164.055V32.9986H162.953V28.6325H166.654V32.9986Z" fill="white"/>
<path d="M171.557 30.817C171.557 31.5227 171.367 32.0779 170.988 32.4825C170.609 32.8872 170.09 33.0895 169.431 33.0895C168.769 33.0895 168.25 32.8852 167.873 32.4767C167.496 32.0662 167.308 31.5129 167.308 30.817C167.308 30.1152 167.496 29.561 167.873 29.1544C168.25 28.7458 168.769 28.5416 169.431 28.5416C170.09 28.5416 170.609 28.7449 170.988 29.1515C171.367 29.5561 171.557 30.1113 171.557 30.817ZM170.42 30.8141C170.42 30.5541 170.393 30.3332 170.338 30.1514C170.285 29.9676 170.213 29.8171 170.123 29.6998C170.028 29.5806 169.921 29.4955 169.802 29.4447C169.684 29.3919 169.561 29.3655 169.434 29.3655C169.298 29.3655 169.176 29.39 169.066 29.4388C168.956 29.4857 168.85 29.5708 168.748 29.6939C168.657 29.8073 168.584 29.9578 168.527 30.1455C168.472 30.3332 168.444 30.557 168.444 30.817C168.444 31.0848 168.471 31.3077 168.524 31.4856C168.577 31.6615 168.65 31.8091 168.742 31.9283C168.836 32.0495 168.943 32.1365 169.063 32.1893C169.182 32.2401 169.306 32.2656 169.434 32.2656C169.563 32.2656 169.689 32.2382 169.811 32.1834C169.932 32.1268 170.037 32.0398 170.126 31.9225C170.22 31.7954 170.292 31.6478 170.343 31.4797C170.395 31.3096 170.42 31.0878 170.42 30.8141Z" fill="white"/>
<path d="M177.678 32.9986H176.576V31.0633H175.078V32.9986H173.977V28.6325H175.078V30.2305H176.576V28.6325H177.678V32.9986Z" fill="white"/>
<path d="M182.58 30.817C182.58 31.5227 182.39 32.0779 182.012 32.4825C181.633 32.8872 181.114 33.0895 180.454 33.0895C179.793 33.0895 179.273 32.8852 178.897 32.4767C178.52 32.0662 178.331 31.5129 178.331 30.817C178.331 30.1152 178.52 29.561 178.897 29.1544C179.273 28.7458 179.793 28.5416 180.454 28.5416C181.114 28.5416 181.633 28.7449 182.012 29.1515C182.39 29.5561 182.58 30.1113 182.58 30.817ZM181.443 30.8141C181.443 30.5541 181.416 30.3332 181.361 30.1514C181.308 29.9676 181.236 29.8171 181.146 29.6998C181.052 29.5806 180.945 29.4955 180.825 29.4447C180.707 29.3919 180.585 29.3655 180.457 29.3655C180.322 29.3655 180.199 29.39 180.089 29.4388C179.979 29.4857 179.873 29.5708 179.771 29.6939C179.681 29.8073 179.607 29.9578 179.55 30.1455C179.495 30.3332 179.468 30.557 179.468 30.817C179.468 31.0848 179.494 31.3077 179.547 31.4856C179.6 31.6615 179.673 31.8091 179.765 31.9283C179.859 32.0495 179.966 32.1365 180.086 32.1893C180.206 32.2401 180.329 32.2656 180.457 32.2656C180.587 32.2656 180.712 32.2382 180.834 32.1834C180.956 32.1268 181.061 32.0398 181.149 31.9225C181.243 31.7954 181.316 31.6478 181.367 31.4797C181.418 31.3096 181.443 31.0878 181.443 30.8141Z" fill="white"/>
<path d="M187.712 32.9986H186.616V30.1045L185.818 31.9723H185.068L184.27 30.1045V32.9986H183.233V28.6325H184.502L185.474 30.7877L186.443 28.6325H187.712V32.9986Z" fill="white"/>
<path d="M188.621 32.9986V28.6325H191.586V29.4652H189.717V30.2305H191.439V31.0633H189.717V32.1659H191.586V32.9986H188.621Z" fill="white"/>
<path d="M195.705 30.0106C195.705 30.2139 195.673 30.4075 195.608 30.5912C195.543 30.775 195.45 30.9284 195.328 31.0516C195.254 31.1278 195.171 31.1982 195.081 31.2627C194.993 31.3272 194.895 31.382 194.787 31.4269C194.679 31.4719 194.561 31.5071 194.433 31.5325C194.308 31.5579 194.166 31.5706 194.009 31.5706H193.432V32.9986H192.331V28.6325H194.033C194.286 28.6325 194.504 28.6559 194.687 28.7028C194.871 28.7478 195.038 28.8201 195.187 28.9198C195.352 29.0293 195.48 29.1759 195.57 29.3597C195.66 29.5415 195.705 29.7585 195.705 30.0106ZM194.575 30.037C194.575 29.9139 194.545 29.8083 194.486 29.7203C194.427 29.6304 194.357 29.5688 194.274 29.5356C194.17 29.4906 194.07 29.4652 193.974 29.4594C193.88 29.4515 193.751 29.4476 193.588 29.4476H193.432V30.7554H193.509C193.613 30.7554 193.711 30.7544 193.803 30.7525C193.896 30.7505 193.976 30.7437 194.045 30.732C194.104 30.7222 194.165 30.7036 194.23 30.6763C194.297 30.6469 194.348 30.6147 194.383 30.5795C194.458 30.5072 194.508 30.4319 194.533 30.3537C194.561 30.2755 194.575 30.1699 194.575 30.037Z" fill="white"/>
<path d="M199.916 28.6325L198.452 32.1248C198.366 32.3281 198.269 32.4884 198.161 32.6057C198.055 32.723 197.943 32.8119 197.825 32.8725C197.707 32.9331 197.59 32.9742 197.472 32.9957C197.354 33.0152 197.23 33.025 197.101 33.025C196.965 33.025 196.807 33.0221 196.627 33.0162C196.448 33.0104 196.328 33.0045 196.268 32.9986V32.072H196.335C196.353 32.0759 196.38 32.0808 196.418 32.0867C196.455 32.0925 196.502 32.0984 196.559 32.1043C196.606 32.1082 196.657 32.1121 196.712 32.116C196.767 32.1199 196.817 32.1219 196.862 32.1219C196.994 32.1219 197.118 32.1062 197.233 32.075C197.351 32.0417 197.43 31.986 197.469 31.9078L195.847 28.6325H197.036L197.975 30.6792L198.77 28.6325H199.916Z" fill="white"/>
<path d="M163.795 39.7257V36.1923H162.5V35.3596H166.192V36.1923H164.897V39.7257H163.795Z" fill="white"/>
<path d="M166.646 39.7257V35.3596H169.61V36.1923H167.741V36.9577H169.463V37.7904H167.741V38.893H169.61V39.7257H166.646Z" fill="white"/>
<path d="M174.13 39.7257H173.029V36.1923H171.922C171.914 36.3624 171.906 36.5217 171.898 36.6703C171.892 36.8169 171.885 36.9567 171.877 37.0896C171.856 37.4708 171.821 37.8002 171.771 38.0778C171.722 38.3534 171.666 38.5792 171.604 38.7552C171.535 38.9428 171.465 39.0904 171.395 39.1979C171.324 39.3055 171.257 39.3905 171.194 39.453C171.1 39.5469 170.982 39.6212 170.841 39.6759C170.7 39.7287 170.56 39.7551 170.423 39.7551C170.331 39.7551 170.23 39.7512 170.12 39.7433C170.01 39.7355 169.94 39.7297 169.911 39.7257V38.761H169.952C169.972 38.763 169.99 38.7649 170.008 38.7669C170.027 38.7688 170.052 38.7698 170.081 38.7698C170.131 38.7698 170.193 38.762 170.27 38.7464C170.346 38.7307 170.404 38.7043 170.444 38.6672C170.585 38.5343 170.681 38.329 170.732 38.0514C170.785 37.7719 170.825 37.3692 170.853 36.8433C170.865 36.6029 170.871 36.3869 170.873 36.1953C170.877 36.0037 170.885 35.7251 170.897 35.3596H174.13V39.7257Z" fill="white"/>
<path d="M175.037 39.7257V35.3596H178.001V36.1923H176.132V36.9577H177.854V37.7904H176.132V38.893H178.001V39.7257H175.037Z" fill="white"/>
<path d="M183.413 37.5089C183.413 38.0348 183.234 38.4512 182.877 38.7581C182.52 39.0631 182.056 39.24 181.485 39.2888V39.7609H180.389V39.2888C179.818 39.24 179.354 39.065 178.997 38.764C178.639 38.461 178.461 38.0426 178.461 37.5089C178.461 36.9772 178.634 36.5647 178.982 36.2715C179.329 35.9783 179.798 35.8063 180.389 35.7554V35.3156H181.485V35.7554C182.058 35.7965 182.522 35.9656 182.877 36.2627C183.234 36.5579 183.413 36.9733 183.413 37.5089ZM182.282 37.4913C182.282 37.2157 182.212 36.9909 182.07 36.8169C181.929 36.641 181.734 36.5305 181.485 36.4856V38.5616C181.773 38.4991 181.978 38.3808 182.1 38.2068C182.222 38.0309 182.282 37.7924 182.282 37.4913ZM180.389 38.5616V36.4856C180.13 36.5325 179.932 36.6439 179.795 36.8199C179.659 36.9938 179.591 37.2177 179.591 37.4913C179.591 37.7885 179.655 38.027 179.783 38.2068C179.91 38.3847 180.113 38.503 180.389 38.5616Z" fill="white"/>
<path d="M188.027 37.5441C188.027 38.2498 187.837 38.805 187.458 39.2097C187.08 39.6143 186.56 39.8166 185.901 39.8166C185.239 39.8166 184.72 39.6124 184.343 39.2038C183.967 38.7933 183.778 38.2401 183.778 37.5441C183.778 36.8423 183.967 36.2881 184.343 35.8815C184.72 35.473 185.239 35.2687 185.901 35.2687C186.56 35.2687 187.08 35.472 187.458 35.8786C187.837 36.2832 188.027 36.8384 188.027 37.5441ZM186.89 37.5412C186.89 37.2812 186.863 37.0603 186.808 36.8785C186.755 36.6947 186.683 36.5442 186.593 36.4269C186.499 36.3077 186.392 36.2226 186.272 36.1718C186.154 36.119 186.031 36.0926 185.904 36.0926C185.768 36.0926 185.646 36.1171 185.536 36.166C185.426 36.2129 185.32 36.2979 185.218 36.4211C185.128 36.5344 185.054 36.685 184.997 36.8726C184.942 37.0603 184.915 37.2841 184.915 37.5441C184.915 37.8119 184.941 38.0348 184.994 38.2127C185.047 38.3886 185.12 38.5362 185.212 38.6555C185.306 38.7767 185.413 38.8637 185.533 38.9164C185.653 38.9673 185.776 38.9927 185.904 38.9927C186.033 38.9927 186.159 38.9653 186.281 38.9106C186.402 38.8539 186.507 38.7669 186.596 38.6496C186.69 38.5225 186.763 38.3749 186.814 38.2068C186.865 38.0368 186.89 37.8149 186.89 37.5412Z" fill="white"/>
<path d="M192.381 39.7257H191.28V37.7904H189.781V39.7257H188.68V35.3596H189.781V36.9577H191.28V35.3596H192.381V39.7257Z" fill="white"/>
<path d="M192.82 39.7257L194.301 35.3596H195.502L196.983 39.7257H195.85L195.576 38.8343H194.198L193.924 39.7257H192.82ZM195.334 38.0426L194.887 36.6029L194.439 38.0426H195.334Z" fill="white"/>
<path fill-rule="evenodd" clip-rule="evenodd" d="M137.672 46.1512L159.53 33.4648L148.855 33.2412L143.627 36.3551L137.672 46.1512Z" fill="#027E35"/>
<path fill-rule="evenodd" clip-rule="evenodd" d="M122.438 9.84766L159.531 33.4657L148.855 33.2421L127.817 19.8788L122.438 9.84766Z" fill="#2683C9"/>
<path fill-rule="evenodd" clip-rule="evenodd" d="M122.436 9.84766L122 35.5322L127.715 25.8663L127.816 19.8788L122.436 9.84766Z" fill="#5A58A3"/>
<path fill-rule="evenodd" clip-rule="evenodd" d="M138.043 26.3773L122 35.5349L127.715 25.869L132.756 23.0195L138.043 26.3773Z" fill="#964A95"/>
<path fill-rule="evenodd" clip-rule="evenodd" d="M137.672 46.1515L138.044 26.374L143.738 29.9916L143.627 36.3553L137.672 46.1515Z" fill="#62B22F"/>
<path fill-rule="evenodd" clip-rule="evenodd" d="M138.594 0L159.948 13.7418L149.173 13.5107L144.096 10.3968L138.594 0Z" fill="#EE7024"/>
<path fill-rule="evenodd" clip-rule="evenodd" d="M138.591 0L138.164 19.8639L143.673 23.3719L144.093 10.3968L138.591 0Z" fill="#FAB51A"/>
<path fill-rule="evenodd" clip-rule="evenodd" d="M143.68 23.3709L159.952 13.7409L149.177 13.5098L143.957 16.6081L143.68 23.3709Z" fill="#DB0954"/>
</svg>
