<svg width="186" height="225" viewBox="0 0 186 225" fill="none" xmlns="http://www.w3.org/2000/svg">
    <g filter="url(#filter0_b_410_700)">
        <path d="M17.8648 220.719C15.8986 220.719 14.3047 219.125 14.3047 217.159L14.3047 8.54493C14.3047 6.57871 15.8986 4.98477 17.8648 4.98477L40.6499 4.98477L40.6499 220.719L17.8648 220.719Z" fill="url(#paint0_linear_410_700)"/>
        <path d="M15.0167 217.159L15.0167 8.54494C15.0167 6.97195 16.2919 5.69681 17.8648 5.69681L39.9378 5.69681L39.9378 220.007L17.8648 220.007C16.2919 220.007 15.0167 218.732 15.0167 217.159Z" stroke="url(#paint1_linear_410_700)" stroke-width="1.42406"/>
    </g>
    <g filter="url(#filter1_b_410_700)">
        <path d="M167.393 4.98633C169.359 4.98633 170.953 6.58027 170.953 8.54649L170.953 217.16C170.953 219.126 169.359 220.72 167.393 220.72L144.608 220.72L144.608 4.98633L167.393 4.98633Z" fill="url(#paint2_linear_410_700)"/>
        <path d="M170.241 8.54649L170.241 217.16C170.241 218.733 168.966 220.008 167.393 220.008L145.32 220.008L145.32 5.69836L167.393 5.69836C168.966 5.69836 170.241 6.97351 170.241 8.54649Z" stroke="url(#paint3_linear_410_700)" stroke-width="1.42406"/>
    </g>
    <mask id="path-5-inside-1_410_700" fill="white">
        <path fill-rule="evenodd" clip-rule="evenodd" d="M12.168 7.12032C12.168 3.18787 15.3558 0 19.2883 0H165.967C169.899 0 173.087 3.18788 173.087 7.12033V82.682C173.087 85.0128 171.946 87.196 170.033 88.5271L168.311 89.7252C166.397 91.0563 165.257 93.2395 165.257 95.5703V111.785L165.256 130.137C165.256 132.468 166.397 134.651 168.311 135.982L170.033 137.181C171.946 138.512 173.087 140.695 173.087 143.026V217.882C173.087 221.814 169.899 225.002 165.967 225.002H19.2883C15.3558 225.002 12.168 221.814 12.168 217.882V143.032C12.168 140.702 13.3088 138.518 15.2221 137.187L16.9476 135.987C18.861 134.656 20.0018 132.473 20.0018 130.142L20.0018 111.789L20.0018 95.5751C20.0018 93.2442 18.861 91.061 16.9476 89.7299L15.2221 88.5296C13.3087 87.1986 12.168 85.0153 12.168 82.6845V7.12032Z"/>
    </mask>
    <g filter="url(#filter2_i_410_700)">
        <path fill-rule="evenodd" clip-rule="evenodd" d="M12.168 7.12032C12.168 3.18787 15.3558 0 19.2883 0H165.967C169.899 0 173.087 3.18788 173.087 7.12033V82.682C173.087 85.0128 171.946 87.196 170.033 88.5271L168.311 89.7252C166.397 91.0563 165.257 93.2395 165.257 95.5703V111.785L165.256 130.137C165.256 132.468 166.397 134.651 168.311 135.982L170.033 137.181C171.946 138.512 173.087 140.695 173.087 143.026V217.882C173.087 221.814 169.899 225.002 165.967 225.002H19.2883C15.3558 225.002 12.168 221.814 12.168 217.882V143.032C12.168 140.702 13.3088 138.518 15.2221 137.187L16.9476 135.987C18.861 134.656 20.0018 132.473 20.0018 130.142L20.0018 111.789L20.0018 95.5751C20.0018 93.2442 18.861 91.061 16.9476 89.7299L15.2221 88.5296C13.3087 87.1986 12.168 85.0153 12.168 82.6845V7.12032Z" fill="#090E1C"/>
    </g>
    <path d="M165.257 111.785L166.681 111.785V111.785H165.257ZM20.0018 111.789L21.4258 111.789L21.4258 111.789L20.0018 111.789ZM15.2221 88.5296L14.4089 89.6986L15.2221 88.5296ZM16.9476 135.987L16.1344 134.818L16.9476 135.987ZM15.2221 137.187L16.0354 138.356L15.2221 137.187ZM170.033 137.181L169.22 138.35L170.033 137.181ZM168.311 89.7252L169.124 90.8943L168.311 89.7252ZM170.033 88.5271L169.22 87.3581L170.033 88.5271ZM20.0018 95.5751L18.5777 95.5751L20.0018 95.5751ZM16.9476 89.7299L17.7608 88.5609L16.9476 89.7299ZM165.256 130.137L163.832 130.137L165.256 130.137ZM168.311 135.982L169.124 134.813L168.311 135.982ZM165.967 -1.42406H19.2883V1.42406H165.967V-1.42406ZM174.511 82.682V7.12033H171.663V82.682H174.511ZM169.124 90.8943L170.846 89.6961L169.22 87.3581L167.497 88.5562L169.124 90.8943ZM166.681 111.785V95.5703H163.832V111.785H166.681ZM166.681 130.137L166.681 111.785L163.832 111.785L163.832 130.137L166.681 130.137ZM170.846 136.012L169.124 134.813L167.497 137.151L169.22 138.35L170.846 136.012ZM174.511 217.882V143.026H171.663V217.882H174.511ZM19.2883 226.426H165.967V223.578H19.2883V226.426ZM10.7439 143.032V217.882H13.592V143.032H10.7439ZM16.0354 138.356L17.7608 137.156L16.1344 134.818L14.4089 136.018L16.0354 138.356ZM21.4258 130.142L21.4258 111.789L18.5777 111.789L18.5777 130.142L21.4258 130.142ZM21.4258 111.789L21.4258 95.5751L18.5777 95.5751L18.5777 111.789L21.4258 111.789ZM17.7608 88.5609L16.0354 87.3606L14.4089 89.6986L16.1344 90.899L17.7608 88.5609ZM10.7439 7.12032V82.6845H13.592V7.12032H10.7439ZM16.0354 87.3606C14.5047 86.2958 13.592 84.5492 13.592 82.6845H10.7439C10.7439 85.4815 12.1128 88.1014 14.4089 89.6986L16.0354 87.3606ZM17.7608 137.156C20.0569 135.559 21.4258 132.939 21.4258 130.142L18.5777 130.142C18.5777 132.006 17.6651 133.753 16.1344 134.818L17.7608 137.156ZM13.592 143.032C13.592 141.168 14.5047 139.421 16.0354 138.356L14.4089 136.018C12.1128 137.616 10.7439 140.235 10.7439 143.032H13.592ZM19.2883 223.578C16.1423 223.578 13.592 221.028 13.592 217.882H10.7439C10.7439 222.601 14.5694 226.426 19.2883 226.426V223.578ZM171.663 217.882C171.663 221.028 169.113 223.578 165.967 223.578V226.426C170.686 226.426 174.511 222.601 174.511 217.882H171.663ZM169.22 138.35C170.75 139.414 171.663 141.161 171.663 143.026H174.511C174.511 140.229 173.142 137.609 170.846 136.012L169.22 138.35ZM167.497 88.5562C165.201 90.1535 163.832 92.7734 163.832 95.5703H166.681C166.681 93.7057 167.593 91.9591 169.124 90.8943L167.497 88.5562ZM171.663 82.682C171.663 84.5466 170.75 86.2932 169.22 87.3581L170.846 89.6961C173.142 88.0988 174.511 85.479 174.511 82.682H171.663ZM21.4258 95.5751C21.4258 92.7781 20.0569 90.1582 17.7608 88.5609L16.1344 90.899C17.6651 91.9638 18.5777 93.7104 18.5777 95.5751L21.4258 95.5751ZM19.2883 -1.42406C14.5693 -1.42406 10.7439 2.40139 10.7439 7.12032H13.592C13.592 3.97436 16.1423 1.42406 19.2883 1.42406V-1.42406ZM163.832 130.137C163.832 132.934 165.201 135.554 167.497 137.151L169.124 134.813C167.593 133.749 166.681 132.002 166.681 130.137L163.832 130.137ZM165.967 1.42406C169.113 1.42406 171.663 3.97437 171.663 7.12033H174.511C174.511 2.4014 170.686 -1.42406 165.967 -1.42406V1.42406Z" fill="url(#paint4_linear_410_700)" mask="url(#path-5-inside-1_410_700)"/>
    <mask id="mask0_410_700" style="mask-type:alpha" maskUnits="userSpaceOnUse" x="13" y="1" width="159" height="223">
        <path fill-rule="evenodd" clip-rule="evenodd" d="M13.5938 8.54415C13.5938 4.6117 16.7816 1.42383 20.7141 1.42383H164.545C168.477 1.42383 171.665 4.61171 171.665 8.54415V83.0205C171.665 85.3452 170.53 87.5236 168.625 88.8558L167.011 89.984C165.106 91.3161 163.971 93.4945 163.971 95.8193V111.794V113.903V129.878C163.971 132.203 165.106 134.381 167.011 135.713L168.625 136.841C170.53 138.173 171.665 140.352 171.665 142.677V216.457C171.665 220.39 168.477 223.578 164.545 223.578H20.7141C16.7816 223.578 13.5938 220.39 13.5938 216.457V142.679C13.5938 140.355 14.7287 138.176 16.6339 136.844L18.249 135.715C20.1542 134.382 21.2891 132.204 21.2891 129.879L21.2891 111.795L21.2891 95.8209C21.2891 93.4961 20.1542 91.3177 18.249 89.9855L16.6339 88.8562C14.7287 87.524 13.5938 85.3457 13.5938 83.0209V8.54415Z" fill="#090E1C"/>
    </mask>
    <g mask="url(#mask0_410_700)">
        <rect x="12.8828" y="225.715" width="225.714" height="80.4596" transform="rotate(-90 12.8828 225.715)" fill="#060911"/>
        <g opacity="0.2">
            <g style="mix-blend-mode:multiply" opacity="0.5">
                <path d="M92.987 90.4037L44.8222 112.502L54.0319 65.6056L15.0195 32.4082L68.9046 25.5588L92.987 -17.0879L117.069 25.5588L170.955 32.4082L131.999 65.6056L141.209 112.502L92.987 90.4037Z" fill="#DE5634"/>
            </g>
            <path d="M165.782 33.4786L139.742 30.1717L132.646 29.2699L115.763 27.1154L93.3859 -12.5664L71.0089 27.1154L21.0469 33.4786L57.2164 64.3422L48.6891 107.982L93.3859 87.3898L138.14 107.982L129.613 64.3422L165.782 33.4786Z" fill="url(#paint5_linear_410_700)"/>
            <path style="mix-blend-mode:multiply" opacity="0.37" d="M21.0469 34.1445L94.276 51.0441L57.064 65.0351L21.0469 34.1445Z" fill="url(#paint6_linear_410_700)"/>
            <path style="mix-blend-mode:multiply" opacity="0.37" d="M164.926 34.1445L94.2812 51.0441L128.978 65.0351L164.926 34.1445Z" fill="url(#paint7_linear_410_700)"/>
            <path style="mix-blend-mode:multiply" opacity="0.37" d="M93.0283 87.5188L94.2777 50.7227L48.6172 107.983L93.0283 87.5188Z" fill="url(#paint8_linear_410_700)"/>
            <path style="mix-blend-mode:multiply" opacity="0.37" d="M137.358 107.983L93.8205 50.7227L92.5586 87.5188L137.358 107.983Z" fill="url(#paint9_linear_410_700)"/>
            <path style="mix-blend-mode:color-dodge" opacity="0.5" d="M92.5586 -12.5664L93.8221 50.7216L114.958 27.3413L92.5586 -12.5664Z" fill="url(#paint10_linear_410_700)"/>
            <path style="mix-blend-mode:color-dodge" opacity="0.5" d="M164.926 33.7561L94.2812 50.7196L115.213 27.3633L164.926 33.7561Z" fill="url(#paint11_linear_410_700)"/>
            <path style="mix-blend-mode:color-dodge" opacity="0.5" d="M164.926 33.7561L94.2812 50.7196L115.213 27.3633L164.926 33.7561Z" fill="url(#paint12_linear_410_700)"/>
            <path style="mix-blend-mode:color-dodge" opacity="0.5" d="M70.7767 27.3633L94.276 50.7196L21.0469 33.7561L70.7767 27.3633Z" fill="url(#paint13_linear_410_700)"/>
            <path d="M115.074 41.1907C111.306 43.7444 114.494 45.4469 114.494 45.4469L133.911 41.1907C131.182 39.5507 127.882 38.666 124.492 38.666C121.103 38.666 117.802 39.5507 115.074 41.1907Z" fill="white"/>
            <g style="mix-blend-mode:multiply" opacity="0.5">
                <path d="M48.6172 107.981C48.6172 107.981 82.5532 93.9519 93.3875 90.0938L138.215 107.981L93.3875 87.6387L48.6172 107.981Z" fill="#DE5634"/>
            </g>
            <g style="mix-blend-mode:soft-light" opacity="0.4">
                <path d="M76.1274 20.4186C71.2938 31.8617 89.7547 39.8371 92.2006 36.32C94.6465 32.8029 93.1324 13.1862 90.0458 10.5607C86.9593 7.93527 78.1074 15.7621 76.1274 20.4186Z" fill="#F7FFFF"/>
            </g>
            <g style="mix-blend-mode:soft-light" opacity="0.4">
                <path d="M61.7849 80.0079C71.2513 81.1747 76.5166 71.4345 78.5891 64.7888C81.6699 53.9833 44.6445 78.1816 61.7849 80.0079Z" fill="#F7FFFF"/>
            </g>
        </g>
    </g>
    <g filter="url(#filter3_f_410_700)">
        <ellipse cx="92.9826" cy="112.502" rx="39.5178" ry="37.0257" fill="#FF5C00"/>
    </g>
    <rect x="143.898" y="9.25781" width="18.5128" height="18.5128" rx="9.25641" fill="#151C30"/>
    <rect x="144.254" y="9.61383" width="17.8008" height="17.8008" rx="8.9004" stroke="#C68C43" stroke-width="0.712032"/>
    <g style="mix-blend-mode:soft-light">
        <mask id="mask1_410_700" style="mask-type:alpha" maskUnits="userSpaceOnUse" x="143" y="9" width="20" height="19">
            <rect x="143.898" y="9.25781" width="18.5128" height="18.5128" rx="9.25641" fill="#101520"/>
        </mask>
        <g mask="url(#mask1_410_700)">
            <g filter="url(#filter4_f_410_700)">
                <path d="M141.324 30.3848L164.65 7.05859" stroke="white" stroke-width="0.370257"/>
            </g>
            <g filter="url(#filter5_f_410_700)">
                <path d="M138.012 33.694L167.965 3.74023" stroke="white" stroke-width="0.925641"/>
            </g>
            <g filter="url(#filter6_f_410_700)">
                <path d="M138.012 33.694L167.965 3.74023" stroke="white" stroke-width="0.925641"/>
            </g>
            <g opacity="0.5" filter="url(#filter7_f_410_700)">
                <path d="M137.625 26.8457L160.951 3.51953" stroke="white" stroke-width="0.370257"/>
            </g>
            <g opacity="0.5" filter="url(#filter8_f_410_700)">
                <path d="M143.898 35.1914L167.225 11.8652" stroke="white" stroke-width="0.185128"/>
            </g>
        </g>
    </g>
    <path d="M155.544 20.8877C155.074 21.246 154.533 21.3322 154.533 21.3322C154.916 21.0533 155.656 20.2699 155.227 19.4201C154.797 18.5703 153.157 18.0195 153.157 18.0195C153.157 18.0195 151.518 18.5706 151.088 19.4201C150.657 20.2696 151.399 21.0533 151.782 21.3322C151.782 21.3322 151.24 21.2458 150.771 20.8874C150.771 20.8874 149.62 21.8964 149.488 23.065C149.488 23.065 150.539 22.2883 153.158 22.2883C155.776 22.2883 156.827 23.065 156.827 23.065C156.695 21.8967 155.544 20.8877 155.544 20.8877ZM153.35 20.881L153.158 21.1998L152.966 20.881C151.73 20.7881 151.505 19.8652 151.505 19.8652L152.12 19.5069L151.953 19.2149L153.156 19.945L154.361 19.2149L154.195 19.5069L154.809 19.8652C154.809 19.8652 154.585 20.7881 153.349 20.881H153.35Z" fill="white"/>
    <path d="M156.541 14.8292C156.541 14.8292 157.624 14.9549 158.14 15.4776C158.14 15.4776 157.341 13.9824 155.648 13.9824C153.956 13.9824 153.156 14.9021 153.156 14.9021C153.156 14.9021 152.356 13.9824 150.664 13.9824C148.972 13.9824 148.172 15.4776 148.172 15.4776C148.687 14.9549 149.772 14.8292 149.772 14.8292C148.912 15.0813 148.25 16.1077 148.258 17.3372C148.265 18.5667 148.74 19.4475 149.21 19.5606C149.679 19.6737 149.93 19.2232 150.631 18.5601C151.332 17.897 152.045 17.7927 152.045 17.7927C151.338 17.4751 150.869 17.6604 150.399 17.8125C149.93 17.9645 149.547 18.0176 149.276 17.4687C149.005 16.9198 149.52 16.3175 149.52 16.3175C149.229 16.3639 148.952 16.5954 148.952 16.5954C149.216 15.9668 149.554 15.7948 150.102 15.775C150.65 15.7553 150.902 15.9006 151.477 16.225C152.052 16.5493 152.555 16.9262 152.852 16.6813C153.15 16.4365 152.707 15.6097 152.707 15.6097C153.031 15.8214 153.156 16.2644 153.156 16.2644C153.156 16.2644 153.282 15.8214 153.606 15.6097C153.606 15.6097 153.161 16.4365 153.46 16.6813C153.759 16.9262 154.26 16.549 154.835 16.225C155.411 15.9009 155.662 15.7553 156.21 15.775C156.759 15.7948 157.096 15.9687 157.36 16.5963C157.36 16.5963 157.082 16.3648 156.791 16.3184C156.791 16.3184 157.307 16.9203 157.036 17.4695C156.765 18.0187 156.381 17.9656 155.912 17.8133C155.443 17.661 154.973 17.4759 154.266 17.7936C154.266 17.7936 154.98 17.8995 155.68 18.5609C156.381 19.2224 156.632 19.6726 157.102 19.5614C157.571 19.4503 158.046 18.569 158.054 17.3381C158.062 16.1071 157.4 15.0813 156.541 14.8292Z" fill="white"/>
    <path d="M155.65 13.9824C153.956 13.9824 153.155 14.9088 153.155 14.9088C153.155 14.9088 152.354 13.9824 150.66 13.9824C149.399 13.9824 148.633 14.8167 148.324 15.2422C148.984 14.5953 150.746 13.3609 153.155 15.4808C155.566 13.3609 157.328 14.5953 157.987 15.2422C157.677 14.8167 156.911 13.9824 155.65 13.9824Z" fill="#C4C4C4"/>
    <path d="M150.373 17.8096C149.902 17.9626 149.518 18.0156 149.246 17.4644C148.975 16.9133 149.492 16.3086 149.492 16.3086C149.258 16.3457 149.033 16.5023 148.953 16.5631C148.716 16.9591 148.553 17.6765 149.109 18.8561C149.109 18.8561 148.633 18.7152 148.262 17.8914C148.383 18.8279 148.783 19.4684 149.18 19.5635C149.651 19.6751 149.902 19.2247 150.605 18.5589C151.308 17.8931 152.023 17.7884 152.023 17.7884C151.314 17.4709 150.843 17.657 150.373 17.8096Z" fill="#C4C4C4"/>
    <path d="M157.158 18.8551C157.721 17.6623 157.547 16.9421 157.307 16.5493C157.215 16.4815 157.005 16.3432 156.787 16.3086C156.787 16.3086 157.304 16.9128 157.032 17.464C156.761 18.0152 156.377 17.9619 155.907 17.809C155.437 17.6562 154.966 17.4704 154.258 17.7892C154.258 17.7892 154.973 17.8955 155.675 18.5594C156.377 19.2233 156.628 19.6751 157.099 19.5636C157.498 19.4673 157.903 18.8143 158.019 17.862C157.646 18.7111 157.158 18.8551 157.158 18.8551Z" fill="#C4C4C4"/>
    <path d="M156.825 23.0481C156.403 22.7244 155.327 22.0571 153.541 21.9831C151.171 21.8838 150.953 22.2709 150.685 21.9333C150.417 21.5958 151.782 21.3341 151.782 21.3341C151.782 21.3341 151.24 21.2479 150.771 20.8906C150.771 20.8906 149.62 21.8966 149.488 23.0617C149.488 23.0617 150.539 22.2873 153.158 22.2873C155.776 22.2873 156.827 23.0617 156.827 23.0617C156.827 23.0581 156.826 23.0528 156.825 23.0481Z" fill="#C4C4C4"/>
    <path style="mix-blend-mode:multiply" opacity="0.37" d="M81.2474 79.2098C79.4716 80.7112 61.7475 90.6877 61.5319 91.3363C61.2216 92.1625 63.5664 96.0536 64.6871 95.7249C65.8078 95.3962 86.8768 83.0921 86.9199 82.5146C86.963 81.9372 87.0147 78.7301 86.5061 78.5258C85.9974 78.3214 81.9285 78.6324 81.2474 79.2098Z" fill="url(#paint14_linear_410_700)"/>
    <g style="mix-blend-mode:soft-light" opacity="0.4">
        <path d="M78.9016 78.1986C77.7464 78.2785 63.2895 87.8376 63.2895 88.113C63.2895 88.3884 60.7464 90.0052 61.3671 89.9608C61.9878 89.9164 80.255 79.3002 80.2809 78.9359C80.3068 78.5717 79.5309 78.1542 78.9016 78.1986Z" fill="#FFDF66"/>
    </g>
    <g style="mix-blend-mode:soft-light" opacity="0.4">
        <path d="M60.7617 91.3354C60.7617 91.3354 70.3652 86.3338 75.3048 83.1356C80.2445 79.9375 81.2445 79.209 81.2445 79.209L60.7617 91.3354Z" fill="#FFDF66"/>
    </g>
    <path style="mix-blend-mode:multiply" opacity="0.37" d="M104.705 79.2098C106.481 80.7112 124.188 90.6877 124.429 91.3363C124.74 92.1625 122.386 96.0536 121.266 95.7249C120.145 95.3962 99.0845 83.0921 99.0414 82.5146C98.9983 81.9372 98.9466 78.7301 99.4552 78.5258C99.9638 78.3214 104.033 78.6324 104.705 79.2098Z" fill="url(#paint15_linear_410_700)"/>
    <g style="mix-blend-mode:soft-light" opacity="0.4">
        <path d="M107.047 78.1985C108.211 78.2784 122.659 87.8374 122.659 88.1128C122.659 88.3882 125.245 90.0051 124.59 89.9607C123.935 89.9163 105.711 79.2823 105.711 78.9358C105.711 78.5893 106.426 78.154 107.047 78.1985Z" fill="#FFDF66"/>
    </g>
    <g style="mix-blend-mode:soft-light" opacity="0.4">
        <path d="M125.186 91.3354C125.186 91.3354 115.565 86.3338 110.651 83.1356C105.738 79.9375 104.703 79.209 104.703 79.209L125.186 91.3354Z" fill="#FFDF66"/>
    </g>
    <path d="M89.3291 144.42V173.737C80.7084 169.064 67.7773 155.427 67.7773 155.427V135.154L89.3291 144.42Z" fill="url(#paint16_linear_410_700)"/>
    <g style="mix-blend-mode:multiply" opacity="0.6">
        <path d="M89.3291 167.811V173.71C80.7084 169.037 67.7773 155.401 67.7773 155.401V150.346C70.7687 154.308 77.0963 160.935 89.3291 167.811Z" fill="#8E37E2"/>
    </g>
    <path d="M96.6328 144.42V173.737C105.253 169.064 118.185 155.427 118.185 155.427V135.154L96.6328 144.42Z" fill="url(#paint17_linear_410_700)"/>
    <g style="mix-blend-mode:multiply" opacity="0.6">
        <path d="M96.6328 167.811V173.71C105.253 169.037 118.185 155.401 118.185 155.401V150.346C115.193 154.308 108.848 160.935 96.6328 167.811Z" fill="#8E37E2"/>
    </g>
    <path style="mix-blend-mode:multiply" d="M69.7946 157.462C69.7946 157.462 69.5963 144.02 71.6308 144.251C73.6653 144.482 77.1739 146.614 77.9411 149.058C78.7084 151.501 78.4842 165.653 78.4842 165.653L79.2515 166.31C79.2515 166.31 78.3032 149.12 79.8894 149.964C81.0617 150.554 82.078 151.428 82.8511 152.511C83.6243 153.594 84.1314 154.853 84.3291 156.182C85.0618 160.02 85.286 171.187 85.286 171.187L89.3118 173.675V144.358L67.7773 135.154V155.401L69.7946 157.462Z" fill="url(#paint18_linear_410_700)"/>
    <path style="mix-blend-mode:multiply" d="M116.159 157.462C116.159 157.462 116.322 141.711 114.288 141.942C112.253 142.173 112.167 150.151 112.167 152.603C112.167 155.055 111.84 161.691 111.84 161.691L110.685 162.766C110.685 162.766 110.857 144.847 109.271 145.691C107.685 146.535 100.719 152.079 99.9863 155.916C99.2535 159.754 99.5294 171.907 99.5294 171.907L96.6328 173.684V144.367L118.185 135.102V155.348L116.159 157.462Z" fill="url(#paint19_linear_410_700)"/>
    <path d="M61.945 130.006C61.8674 130.299 50.1519 126.097 50.1519 126.097C47.1737 121.493 44.7016 116.562 42.7812 111.395H62.7899L61.945 130.006Z" fill="url(#paint20_linear_410_700)"/>
    <path d="M46.6016 111.395C46.6016 111.395 51.274 121.336 52.1274 122.411L62.2395 122.695V121.984C62.2395 121.984 52.9809 122.064 52.455 121.655C51.9291 121.247 47.1878 111.395 47.1878 111.395H46.6016Z" fill="#B33114"/>
    <path d="M46.6016 111.395L52.1274 122.411C50.9274 120.649 49.8389 118.809 48.8688 116.903C47.636 114.326 46.6016 111.395 46.6016 111.395Z" fill="white"/>
    <g style="mix-blend-mode:soft-light" opacity="0.4">
        <path d="M48.0338 112.071C48.8096 114.452 51.8786 119.844 52.5251 119.844C53.1717 119.844 60.5855 119.711 61.2665 118.609C61.9475 117.508 62.5424 112.177 61.9475 112.071C61.3527 111.964 47.6889 111.013 48.0338 112.071Z" fill="#FFDF66"/>
    </g>
    <g style="mix-blend-mode:soft-light" opacity="0.4">
        <path d="M43.4364 111.813C44.3933 114.141 47.0399 120.066 47.5399 120.137C48.0399 120.208 49.6778 120.422 49.6778 119.711C49.7209 118.574 46.6174 111.964 45.9278 111.813C45.2381 111.662 43.2037 111.236 43.4364 111.813Z" fill="#FFDF66"/>
    </g>
    <path style="mix-blend-mode:multiply" opacity="0.37" d="M48.0255 120.91C47.9393 121.648 50.6117 125.441 51.0427 125.743C51.4738 126.045 60.4737 129.039 61.06 128.612C61.6462 128.186 61.9651 120.368 61.4737 120.137C60.9824 119.906 48.1203 120.102 48.0255 120.91Z" fill="url(#paint21_linear_410_700)"/>
    <g style="mix-blend-mode:multiply" opacity="0.5">
        <path d="M56.0625 111.396C57.0293 117.079 57.4537 122.845 57.3297 128.613L61.9418 130.008L62.8039 111.352L56.0625 111.396Z" fill="#DE5634"/>
    </g>
    <path d="M124.013 130.006C124.09 130.299 135.806 126.097 135.806 126.097C138.784 121.493 141.256 116.562 143.177 111.395H123.168L124.013 130.006Z" fill="url(#paint22_linear_410_700)"/>
    <path d="M139.33 111.395C139.33 111.395 134.658 121.336 133.804 122.411L123.684 122.695V121.984C123.684 121.984 132.942 122.064 133.468 121.655C133.994 121.247 138.735 111.395 138.735 111.395H139.33Z" fill="#B33114"/>
    <path d="M139.331 111.395L133.805 122.411C135.001 120.646 136.09 118.807 137.063 116.903C138.322 114.326 139.331 111.395 139.331 111.395Z" fill="white"/>
    <g style="mix-blend-mode:soft-light" opacity="0.4">
        <path d="M137.925 112.071C137.15 114.452 134.072 119.844 133.434 119.844C132.796 119.844 125.374 119.711 124.675 118.609C123.977 117.508 123.408 112.177 124.003 112.071C124.598 111.964 138.27 111.013 137.925 112.071Z" fill="#FFDF66"/>
    </g>
    <g style="mix-blend-mode:soft-light" opacity="0.4">
        <path d="M142.517 111.813C141.569 114.141 138.914 120.066 138.422 120.137C137.931 120.208 136.276 120.422 136.25 119.711C136.25 118.574 139.31 111.964 140 111.813C140.69 111.662 142.784 111.236 142.517 111.813Z" fill="#FFDF66"/>
    </g>
    <path style="mix-blend-mode:multiply" opacity="0.37" d="M137.941 120.91C138.027 121.648 135.354 125.441 134.923 125.743C134.492 126.045 125.492 129.039 124.898 128.612C124.303 128.186 124.035 120.368 124.492 120.137C124.949 119.906 137.837 120.102 137.941 120.91Z" fill="url(#paint23_linear_410_700)"/>
    <g style="mix-blend-mode:multiply" opacity="0.5">
        <path d="M129.894 111.396C128.927 117.079 128.503 122.845 128.626 128.613L124.014 130.008L123.152 111.352L129.894 111.396Z" fill="#DE5634"/>
    </g>
    <path d="M93.1094 68.3555L60.3594 87.8377V134.336L93.1094 153.818L125.859 134.336V87.8377L93.1094 68.3555Z" fill="url(#paint24_linear_410_700)"/>
    <path d="M66.2812 130.811V91.3666L93.1088 75.4023L119.936 91.3666V130.811L93.1088 146.775L66.2812 130.811Z" fill="url(#paint25_linear_410_700)"/>
    <path d="M68.2539 129.636V92.5366L93.1073 77.7539L117.961 92.5366V129.636L93.1073 144.418L68.2539 129.636Z" fill="url(#paint26_linear_410_700)"/>
    <g style="mix-blend-mode:soft-light" opacity="0.4">
        <path d="M61.1718 87.9624C60.7752 89.215 64.2494 90.7519 66.7063 90.2011C69.1632 89.6503 92.2063 75.7205 92.7838 74.4678C92.9524 72.7309 92.9524 70.981 92.7838 69.2441C91.9218 69.2441 61.3701 87.3583 61.1718 87.9624Z" fill="#FFDF66"/>
    </g>
    <g style="mix-blend-mode:soft-light" opacity="0.4">
        <path d="M124.888 87.9624C125.293 89.215 121.81 90.7519 119.353 90.2011C116.896 89.6503 94.0774 75.5872 93.2929 74.4678C92.8963 73.8904 92.767 69.2441 93.2929 69.2441C94.1119 69.2441 124.681 87.3583 124.888 87.9624Z" fill="#FFDF66"/>
    </g>
    <path style="mix-blend-mode:multiply" opacity="0.37" d="M61.1427 114.41C60.9186 115.796 60.3841 133.395 61.1427 133.528C61.9013 133.661 65.453 131.156 65.6513 129.974C65.8496 128.793 65.9099 116.755 65.6513 115.6C65.3927 114.445 61.5048 112.091 61.1427 114.41Z" fill="url(#paint27_linear_410_700)"/>
    <path style="mix-blend-mode:multiply" opacity="0.37" d="M124.942 114.41C125.158 115.796 125.701 133.395 124.942 133.528C124.184 133.661 120.632 131.156 120.434 129.974C120.236 128.793 120.175 116.755 120.434 115.6C120.692 114.445 124.572 112.091 124.942 114.41Z" fill="url(#paint28_linear_410_700)"/>
    <path style="mix-blend-mode:multiply" opacity="0.37" d="M61.9621 134.007C62.3586 134.611 91.8586 152.583 92.2982 152.583C92.5224 152.583 92.8155 148.141 92.8155 147.617C92.8155 146.231 66.7379 131.955 66.281 131.822C65.6 131.626 61.5569 133.403 61.9621 134.007Z" fill="url(#paint29_linear_410_700)"/>
    <path style="mix-blend-mode:multiply" opacity="0.37" d="M124.307 134.479C123.911 135.083 93.8589 152.993 93.4106 152.993C93.3004 151.071 93.3349 149.143 93.5141 147.227C94.4624 146.25 119.376 131.956 119.799 131.823C120.471 131.627 124.678 133.875 124.307 134.479Z" fill="url(#paint30_linear_410_700)"/>
    <g style="mix-blend-mode:multiply" opacity="0.37">
        <path d="M69.3947 128.653C67.6706 118.374 68.6102 117.726 80.9895 113.382C93.3688 109.037 114.334 97.8437 116.127 102.703C117.921 107.563 117.334 128.244 116.912 129.355C116.489 130.465 94.8947 143.276 93.1102 143.302C91.3257 143.329 69.593 129.808 69.3947 128.653Z" fill="#ED8A1D"/>
    </g>
    <g style="mix-blend-mode:soft-light" opacity="0.4">
        <path d="M117.429 92.7967C116.99 92.6901 94.5327 79.311 93.2913 79.4087C92.05 79.5065 76.4379 87.0488 70.0155 92.7345C68.2913 94.2625 68.9293 116.952 70.5155 116.534C72.1017 116.117 73.2396 106.958 90.6275 101.805C107.74 96.7234 115.196 101.121 117.041 101.894C117.567 102.125 118.421 93.0099 117.429 92.7967Z" fill="#FFDF66"/>
    </g>
    <g style="mix-blend-mode:multiply" opacity="0.5">
        <path d="M66.2812 130.806V91.362L93.1088 75.3711L119.936 91.362V130.806L117.962 129.634C117.962 129.634 118.083 95.342 117.367 94.267C114.781 90.4292 94.9536 81.1012 91.7123 82.1406C88.4709 83.18 70.7295 90.9445 68.7554 94.2048C68.0916 95.2976 68.2554 129.634 68.2554 129.634L66.2812 130.806Z" fill="#DE5634"/>
    </g>
    <g style="mix-blend-mode:soft-light" opacity="0.4">
        <path d="M98.1149 96.7508C104.805 99.8957 114.873 99.949 115.796 99.3449C116.718 98.7408 117.322 94.3255 115.882 93.5882C114.442 92.8508 102.951 86.5433 99.9338 87.2185C96.9166 87.8936 96.9338 96.2 98.1149 96.7508Z" fill="#FFDF66"/>
    </g>
    <path opacity="0.8" d="M60.3602 102.007C60.3602 101.901 60.636 88.8949 61.1705 87.9621C61.705 87.0293 92.4033 69.4926 93.2912 69.2439C94.1791 68.9951 105.714 75.8357 105.714 75.8357L93.1102 68.3555L60.3516 87.8377L60.3602 102.007Z" fill="#700000"/>
    <path d="M104.852 82.3477C104.852 82.3477 119.231 90.7873 119.429 91.7379C119.627 92.6885 119.955 118.176 119.955 118.176C119.955 118.176 120.093 92.4131 119.955 91.3381C119.817 90.2632 104.852 82.3477 104.852 82.3477Z" fill="white"/>
    <path d="M66.2816 112.981C66.2816 112.981 65.7989 91.6598 66.0402 90.9668C66.2816 90.2739 93.1092 75.4023 93.1092 75.4023C93.1092 75.4023 67.2471 90.6648 66.6782 91.6331C66.1092 92.6015 66.2816 112.981 66.2816 112.981Z" fill="white"/>
    <path opacity="0.8" d="M60.3594 134.334L93.118 153.816L125.877 134.334V123.744C125.877 123.744 125.601 132.984 124.928 134.138C124.256 135.293 94.9283 152.874 93.4283 152.99C91.9283 153.105 61.9283 134.76 61.1439 133.525C60.3594 132.291 60.3594 110.641 60.3594 110.641V134.334Z" fill="#700000"/>
    <path d="M66.2795 120.715C66.2795 120.715 66.1846 129.812 66.676 130.567C67.1674 131.322 79.8915 138.909 79.8915 138.909C79.8915 138.909 66.0984 131.562 65.9691 131.082C65.8398 130.603 66.2795 120.715 66.2795 120.715Z" fill="white"/>
    <g style="mix-blend-mode:soft-light" opacity="0.4">
        <path d="M77.3598 139.09C76.3943 139.09 73.6874 140.218 74.2736 140.867C74.8598 141.515 90.9805 151.527 92.8167 152.238C93.4202 152.469 93.3598 148.516 92.5581 147.236C92.2133 146.694 80.3512 139.081 77.3598 139.09Z" fill="#FFDF66"/>
    </g>
    <path d="M107.747 77.9061C107.204 78.0572 109.032 80.4292 109.903 80.6424C110.773 80.8556 111.954 80.2159 111.549 79.754C111.144 79.292 108.601 77.6485 107.747 77.9061Z" fill="white"/>
    <path d="M111.8 80.2334C110.938 80.4555 112.499 84.1956 113.154 84.8619C113.809 85.5282 119.611 86.692 119.473 85.617C119.335 84.5421 112.964 79.9047 111.8 80.2334Z" fill="white"/>
    <g style="mix-blend-mode:multiply" opacity="0.5">
        <path d="M108.213 139.205C107.506 142.377 107.618 144.251 108.015 144.269C108.411 144.287 122.73 135.385 123.118 135.012C123.506 134.639 120.825 132.098 119.721 132.232C118.618 132.365 108.471 137.997 108.213 139.205Z" fill="#DE5634"/>
    </g>
    <g style="mix-blend-mode:multiply" opacity="0.5">
        <path d="M68.0144 92.2739C67.6696 91.2078 66.6092 91.2078 66.5144 92.4071C66.4196 93.6064 66.2558 115.701 66.6782 115.727C67.1006 115.754 67.9886 114.679 68.0144 114.173C68.0403 113.666 68.1782 92.7802 68.0144 92.2739Z" fill="#DE5634"/>
    </g>
    <g style="mix-blend-mode:multiply" opacity="0.5">
        <path d="M118.194 92.4046C118.142 92.8311 117.935 113.726 118.194 113.726C118.452 113.726 119.642 112.749 119.642 112.233C119.642 111.718 119.349 92.0049 119.211 91.8983C119.073 91.7917 118.237 92.0671 118.194 92.4046Z" fill="#DE5634"/>
    </g>
    <g style="mix-blend-mode:multiply" opacity="0.5">
        <path d="M93.1104 77.406C93.1104 77.8147 81.5673 84.602 81.3 84.602C81.0328 84.602 81.119 82.7719 81.4897 82.5231C81.8604 82.2744 93.0242 75.345 93.1104 75.576C93.1492 76.1853 93.1492 76.7967 93.1104 77.406Z" fill="#DE5634"/>
    </g>
    <path d="M116.916 132.391C116.174 132.391 113.692 133.856 113.881 134.585C114.071 135.313 115.606 136.104 115.993 135.678C116.381 135.251 117.407 132.408 116.916 132.391Z" fill="#B33114"/>
    <path d="M117.874 132.905C117.624 133.145 117.073 133.998 117.598 134.415C118.124 134.833 119.667 133.731 119.435 133.411C119.202 133.092 118.202 132.594 117.874 132.905Z" fill="#B33114"/>
    <g style="mix-blend-mode:multiply" opacity="0.5">
        <path d="M114.256 133.876C113.644 134.765 116.161 135.298 116.488 134.578C116.816 133.859 117.35 132.34 116.928 132.411C115.958 132.726 115.052 133.223 114.256 133.876Z" fill="#DE5634"/>
    </g>
    <path d="M113.899 134.373C114.069 134.87 114.406 135.289 114.848 135.555C115.434 135.91 115.943 135.83 116.089 135.555C115.944 135.732 115.745 135.854 115.524 135.899C115.303 135.944 115.073 135.91 114.874 135.803C113.675 135.244 113.899 134.373 113.899 134.373Z" fill="#DAE1EF"/>
    <g style="mix-blend-mode:multiply" opacity="0.5">
        <path d="M118.156 132.924C117.595 133.564 118.035 134.47 118.354 134.417C118.673 134.363 119.621 133.724 119.44 133.413C119.259 133.102 118.285 132.791 118.156 132.924Z" fill="#DE5634"/>
    </g>
    <path d="M117.874 132.906C117.874 132.906 117.348 133.644 117.564 134.07C117.779 134.496 118.064 134.496 118.064 134.496C118.064 134.496 117.391 134.905 117.271 134.425C117.055 133.608 117.874 132.906 117.874 132.906Z" fill="#DAE1EF"/>
    <path d="M89.7363 77.179C88.0122 76.6993 86.5467 77.8808 85.7708 78.787C84.9949 79.6931 85.426 80.2261 86.4001 80.0485C87.3742 79.8708 90.4777 77.3833 89.7363 77.179Z" fill="#B33114"/>
    <g style="mix-blend-mode:multiply" opacity="0.5">
        <path d="M89.7365 77.1793C89.1794 77.0647 88.6045 77.0803 88.054 77.2248C87.5035 77.3693 86.9914 77.6391 86.5554 78.0144C86.0813 78.4408 87.0123 79.6756 87.6589 79.4091C88.3055 79.1426 90.2796 77.3747 89.7365 77.1793Z" fill="#DE5634"/>
    </g>
    <path d="M86.2106 78.3164C86.2106 78.3164 84.2192 79.6845 84.4434 80.3242C84.6675 80.9638 87.0296 79.7822 87.0296 79.7822C87.0296 79.7822 85.7882 80.1909 85.5123 79.6312C85.2365 79.0715 86.2106 78.3164 86.2106 78.3164Z" fill="white"/>
    <g style="mix-blend-mode:soft-light" opacity="0.4">
        <path d="M67.4183 131.084C66.4787 131.323 69.2632 133.287 69.9183 133.393C70.5735 133.5 69.9183 131.768 69.608 131.466C68.923 131.143 68.1681 131.012 67.4183 131.084Z" fill="#FFDF66"/>
    </g>
    <path d="M93.0826 132.986L59.2722 112.66C58.4728 114.559 57.9304 116.562 57.6602 118.612L59.8671 122.45L93.0826 142.332L126.298 122.45L128.298 118.612C128.232 116.571 127.82 114.556 127.083 112.66L93.0826 132.986Z" fill="url(#paint31_linear_410_700)"/>
    <path d="M59.8671 122.447L57.6602 118.609L93.0826 139.993L128.298 118.609L126.298 122.447L93.0826 142.329L59.8671 122.447Z" fill="url(#paint32_linear_410_700)"/>
    <g style="mix-blend-mode:multiply" opacity="0.5">
        <path d="M57.6602 118.609L59.8671 122.447L60.3671 122.767V123.913C60.3671 123.913 62.2636 124.908 65.9791 127.031C66.1084 127.102 68.3239 129.51 68.3239 129.51C68.3239 129.51 92.2463 144.417 93.117 144.417C94.2291 144.417 117.97 129.181 117.97 129.181C117.97 129.181 119.815 127.582 120.005 127.467L125.867 124.304V122.714L126.307 122.447L128.307 118.609L93.0825 139.993L57.6602 118.609Z" fill="#DE5634"/>
    </g>
    <path style="mix-blend-mode:multiply" opacity="0.69" d="M93.082 132.986V140.005L128.298 118.612C128.205 116.574 127.794 114.564 127.082 112.66L93.082 132.986Z" fill="url(#paint33_linear_410_700)"/>
    <g style="mix-blend-mode:soft-light" opacity="0.4">
        <path d="M61.0121 114.197C60.3655 114.197 60.8914 120.105 62.8569 121.455C65.9776 123.614 84.7965 135.039 86.0293 135.057C86.8914 135.057 86.831 130.055 86.581 129.664C86.0983 128.927 61.9776 114.197 61.0121 114.197Z" fill="#FFDF66"/>
    </g>
    <g style="mix-blend-mode:soft-light" opacity="0.4">
        <path d="M103.54 126.916C103.126 127.351 103.186 132.859 103.885 132.699C109.568 129.857 115.043 126.591 120.264 122.927C125.281 119.124 125.988 114.123 124.859 114.238C124.824 114.203 104.376 126.018 103.54 126.916Z" fill="#FFDF66"/>
    </g>
    <path d="M75.8594 129.592C75.8594 129.592 92.0404 139.604 93.1007 139.604C94.1611 139.604 107.058 131.52 107.058 131.52C107.058 131.52 93.4973 140.403 93.1266 140.403C92.7559 140.403 75.8594 129.592 75.8594 129.592Z" fill="white"/>
    <path d="M93.0826 121.596L59.2722 101.278C58.4736 103.174 57.9312 105.174 57.6602 107.222L59.8671 111.06L93.0826 130.95L126.298 111.068L128.298 107.222C128.232 105.18 127.82 103.166 127.083 101.27L93.0826 121.596Z" fill="url(#paint34_linear_410_700)"/>
    <path d="M59.8671 111.066L57.6602 107.229L93.0826 128.612L128.298 107.229L126.298 111.066L93.0826 130.948L59.8671 111.066Z" fill="url(#paint35_linear_410_700)"/>
    <g style="mix-blend-mode:multiply" opacity="0.5">
        <path d="M57.6602 107.221L59.8671 111.059L60.3671 111.378V112.551C60.3671 112.551 62.2636 113.546 65.9791 115.669C66.1084 115.74 68.3239 118.148 68.3239 118.148C68.3239 118.148 92.2377 133.037 93.1084 133.037C94.2205 133.037 117.962 117.801 117.962 117.801C117.962 117.801 119.807 116.202 119.996 116.087L125.858 112.924V111.334L126.298 111.067L128.298 107.221L93.0826 128.613L57.6602 107.221Z" fill="#DE5634"/>
    </g>
    <path style="mix-blend-mode:multiply" opacity="0.69" d="M93.082 121.596V128.614L128.298 107.222C128.205 105.183 127.794 103.174 127.082 101.27L93.082 121.596Z" fill="url(#paint36_linear_410_700)"/>
    <g style="mix-blend-mode:soft-light" opacity="0.4">
        <path d="M61.0121 102.824C60.3655 102.824 60.8914 108.723 62.8569 110.073C65.9776 112.232 84.7965 123.657 86.0293 123.675C86.8914 123.675 86.831 118.673 86.581 118.282C86.0983 117.545 61.9776 102.824 61.0121 102.824Z" fill="#FFDF66"/>
    </g>
    <g style="mix-blend-mode:soft-light" opacity="0.4">
        <path d="M103.54 115.539C103.126 115.974 103.186 121.491 103.885 121.322C109.568 118.481 115.043 115.214 120.264 111.55C125.281 107.756 125.988 102.746 124.859 102.861C124.824 102.826 104.376 114.641 103.54 115.539Z" fill="#FFDF66"/>
    </g>
    <path d="M75.8594 118.221C75.8594 118.221 92.0404 128.224 93.1007 128.224C94.1611 128.224 107.058 120.14 107.058 120.14C107.058 120.14 93.4973 129.023 93.1266 129.023C92.7559 129.023 75.8594 118.221 75.8594 118.221Z" fill="white"/>
    <g style="mix-blend-mode:multiply" opacity="0.5">
        <path d="M93.1601 111.192L85.9015 115.119L87.2895 106.786L81.4102 100.887L89.5308 99.6697L93.1601 92.0918L96.7895 99.6697L104.91 100.887L99.0395 106.786L100.427 115.119L93.1601 111.192Z" fill="#DE5634"/>
    </g>
    <path d="M104.063 101.17L100.141 100.584L99.0721 100.424L96.529 100.042L93.1583 93.0059L89.7876 100.042L82.2617 101.17L87.71 106.643L86.4255 114.38L93.1583 110.729L99.8996 114.38L98.6152 106.643L104.063 101.17Z" fill="url(#paint37_linear_410_700)"/>
    <path style="mix-blend-mode:multiply" opacity="0.37" d="M82.2227 101.174L93.3175 104.168L87.6796 106.646L82.2227 101.174Z" fill="url(#paint38_linear_410_700)"/>
    <path style="mix-blend-mode:multiply" opacity="0.37" d="M104.023 101.174L93.3164 104.168L98.575 106.646L104.023 101.174Z" fill="url(#paint39_linear_410_700)"/>
    <path style="mix-blend-mode:multiply" opacity="0.37" d="M93.1242 110.731L93.3138 104.166L86.3828 114.382L93.1242 110.731Z" fill="url(#paint40_linear_410_700)"/>
    <path style="mix-blend-mode:multiply" opacity="0.37" d="M99.8578 114.382L93.3147 104.166L93.125 110.731L99.8578 114.382Z" fill="url(#paint41_linear_410_700)"/>
    <path style="mix-blend-mode:color-dodge" opacity="0.5" d="M93.125 93.0059L93.3147 104.164L96.4871 100.042L93.125 93.0059Z" fill="url(#paint42_linear_410_700)"/>
    <path style="mix-blend-mode:color-dodge" opacity="0.5" d="M104.023 101.171L93.3164 104.165L96.4888 100.043L104.023 101.171Z" fill="url(#paint43_linear_410_700)"/>
    <path style="mix-blend-mode:color-dodge" opacity="0.5" d="M104.023 101.171L93.3164 104.165L96.4888 100.043L104.023 101.171Z" fill="url(#paint44_linear_410_700)"/>
    <path style="mix-blend-mode:color-dodge" opacity="0.5" d="M89.7571 100.043L93.3175 104.165L82.2227 101.171L89.7571 100.043Z" fill="url(#paint45_linear_410_700)"/>
    <path d="M96.4962 102.498C95.9359 102.977 96.41 103.297 96.41 103.297L99.2979 102.498C98.892 102.19 98.4012 102.023 97.8971 102.023C97.393 102.023 96.9021 102.19 96.4962 102.498Z" fill="white"/>
    <g style="mix-blend-mode:multiply" opacity="0.5">
        <path d="M86.4258 114.382C86.4258 114.382 91.5292 111.895 93.1585 111.211L99.8999 114.382L93.1585 110.775L86.4258 114.382Z" fill="#DE5634"/>
    </g>
    <g style="mix-blend-mode:multiply" opacity="0.5">
        <path d="M82.2227 101.174L93.3175 104.168L87.2313 109.569L82.2227 101.174Z" fill="#DE5634"/>
    </g>
    <g style="mix-blend-mode:multiply" opacity="0.5">
        <path d="M104.023 101.174L93.3164 104.168L99.2216 110.289L104.023 101.174Z" fill="#DE5634"/>
    </g>
    <g style="mix-blend-mode:multiply" opacity="0.5">
        <path d="M86.4258 114.382L93.3137 104.166L99.8999 114.382L93.1585 113.281L86.4258 114.382Z" fill="#DE5634"/>
    </g>
    <g style="mix-blend-mode:soft-light" opacity="0.4">
        <path d="M90.6501 98.827C89.9346 100.879 92.6674 102.309 93.0295 101.679C93.3915 101.048 93.1674 97.5299 92.7105 97.0591C92.2536 96.5883 90.9432 97.9919 90.6501 98.827Z" fill="#F7FFFF"/>
    </g>
    <g style="mix-blend-mode:soft-light" opacity="0.4">
        <path d="M88.423 109.322C89.8799 109.526 90.6902 107.82 91.0092 106.656C91.4833 104.764 85.7851 109.002 88.423 109.322Z" fill="#F7FFFF"/>
    </g>
    <g style="mix-blend-mode:multiply" opacity="0.5">
        <path d="M77.4898 97.4288L74.1105 99.2588L74.7484 95.3766L72.0156 92.6315L75.8001 92.0718L77.4898 88.5449L79.1794 92.0718L82.9553 92.6315L80.2225 95.3766L80.8604 99.2588L77.4898 97.4288Z" fill="#DE5634"/>
    </g>
    <path d="M82.519 92.7756L80.7086 92.5091L80.2173 92.4292L79.0362 92.2604L77.4845 89L75.9242 92.2604L72.4414 92.7756L74.9586 95.3075L74.3638 98.8877L77.4845 97.1998L80.5966 98.8877L80.0017 95.3075L82.519 92.7756Z" fill="url(#paint46_linear_410_700)"/>
    <path style="mix-blend-mode:multiply" opacity="0.37" d="M72.4219 92.7773L77.5598 94.1632L74.9477 95.3092L72.4219 92.7773Z" fill="url(#paint47_linear_410_700)"/>
    <path style="mix-blend-mode:multiply" opacity="0.37" d="M82.5069 92.7773L77.5586 94.1632L79.9896 95.3092L82.5069 92.7773Z" fill="url(#paint48_linear_410_700)"/>
    <path style="mix-blend-mode:multiply" opacity="0.37" d="M77.4597 97.2004L77.5546 94.1621L74.3477 98.8883L77.4597 97.2004Z" fill="url(#paint49_linear_410_700)"/>
    <path style="mix-blend-mode:multiply" opacity="0.37" d="M80.5816 98.8883L77.5558 94.1621L77.4609 97.2004L80.5816 98.8883Z" fill="url(#paint50_linear_410_700)"/>
    <path style="mix-blend-mode:color-dodge" opacity="0.5" d="M77.4609 89L77.5558 94.1615L79.0213 92.2604L77.4609 89Z" fill="url(#paint51_linear_410_700)"/>
    <path style="mix-blend-mode:color-dodge" opacity="0.5" d="M82.5069 92.777L77.5586 94.1629L79.0241 92.2617L82.5069 92.777Z" fill="url(#paint52_linear_410_700)"/>
    <path style="mix-blend-mode:color-dodge" opacity="0.5" d="M82.5069 92.777L77.5586 94.1629L79.0241 92.2617L82.5069 92.777Z" fill="url(#paint53_linear_410_700)"/>
    <path style="mix-blend-mode:color-dodge" opacity="0.5" d="M75.9133 92.2617L77.5598 94.1629L72.4219 92.777L75.9133 92.2617Z" fill="url(#paint54_linear_410_700)"/>
    <path d="M78.9899 93.3887C78.7313 93.6108 78.9899 93.7618 78.9899 93.7618L80.3261 93.3887C80.1347 93.2367 79.8998 93.1543 79.658 93.1543C79.4163 93.1543 79.1814 93.2367 78.9899 93.3887Z" fill="white"/>
    <g style="mix-blend-mode:multiply" opacity="0.5">
        <path d="M74.3672 98.8911C74.3672 98.8911 76.7293 97.745 77.4879 97.4252L80.5999 98.8911L77.4879 97.2031L74.3672 98.8911Z" fill="#DE5634"/>
    </g>
    <g style="mix-blend-mode:multiply" opacity="0.5">
        <path d="M72.4219 92.7773L77.5598 94.1632L74.7408 96.6596L72.4219 92.7773Z" fill="#DE5634"/>
    </g>
    <g style="mix-blend-mode:multiply" opacity="0.5">
        <path d="M82.5069 92.7773L77.5586 94.1632L80.2913 96.9972L82.5069 92.7773Z" fill="#DE5634"/>
    </g>
    <g style="mix-blend-mode:multiply" opacity="0.5">
        <path d="M74.3672 98.8883L77.5568 94.1621L80.5999 98.8883L77.4879 98.3819L74.3672 98.8883Z" fill="#DE5634"/>
    </g>
    <g style="mix-blend-mode:soft-light" opacity="0.4">
        <path d="M76.3218 91.6941C75.9856 92.6447 77.2615 93.3021 77.4252 93.0089C77.5613 92.2961 77.5047 91.5586 77.2615 90.8768C77.0546 90.6547 76.4597 91.3121 76.3218 91.6941Z" fill="#F7FFFF"/>
    </g>
    <g style="mix-blend-mode:soft-light" opacity="0.4">
        <path d="M75.2911 96.5606C75.9636 96.6583 76.3429 95.8676 76.4808 95.3257C76.7049 94.4373 74.0756 96.374 75.2911 96.5606Z" fill="#F7FFFF"/>
    </g>
    <g style="mix-blend-mode:multiply" opacity="0.5">
        <path d="M108.934 97.4288L105.555 99.2588L106.202 95.3766L103.469 92.6315L107.245 92.0718L108.934 88.5449L110.624 92.0718L114.4 92.6315L111.667 95.3766L112.314 99.2588L108.934 97.4288Z" fill="#DE5634"/>
    </g>
    <path d="M113.981 92.7756L112.17 92.5091L111.67 92.4292L110.498 92.2604L108.938 89L107.377 92.2604L103.895 92.7756L106.42 95.3075L105.826 98.8877L108.938 97.1998L112.058 98.8877L111.463 95.3075L113.981 92.7756Z" fill="url(#paint55_linear_410_700)"/>
    <path style="mix-blend-mode:multiply" opacity="0.37" d="M103.875 92.7773L109.013 94.1632L106.401 95.3092L103.875 92.7773Z" fill="url(#paint56_linear_410_700)"/>
    <path style="mix-blend-mode:multiply" opacity="0.37" d="M113.964 92.7773L109.016 94.1632L111.438 95.3092L113.964 92.7773Z" fill="url(#paint57_linear_410_700)"/>
    <path style="mix-blend-mode:multiply" opacity="0.37" d="M108.921 97.2004L109.015 94.1621L105.809 98.8883L108.921 97.2004Z" fill="url(#paint58_linear_410_700)"/>
    <path style="mix-blend-mode:multiply" opacity="0.37" d="M112.034 98.8883L109.017 94.1621L108.922 97.2004L112.034 98.8883Z" fill="url(#paint59_linear_410_700)"/>
    <path style="mix-blend-mode:color-dodge" opacity="0.5" d="M108.922 89L109.017 94.1615L110.482 92.2604L108.922 89Z" fill="url(#paint60_linear_410_700)"/>
    <path style="mix-blend-mode:color-dodge" opacity="0.5" d="M113.964 92.777L109.016 94.1629L110.481 92.2617L113.964 92.777Z" fill="url(#paint61_linear_410_700)"/>
    <path style="mix-blend-mode:color-dodge" opacity="0.5" d="M113.964 92.777L109.016 94.1629L110.481 92.2617L113.964 92.777Z" fill="url(#paint62_linear_410_700)"/>
    <path style="mix-blend-mode:color-dodge" opacity="0.5" d="M107.358 92.2617L109.013 94.1629L103.875 92.777L107.358 92.2617Z" fill="url(#paint63_linear_410_700)"/>
    <path d="M110.482 93.3899C110.224 93.612 110.482 93.763 110.482 93.763L111.749 93.3899C111.565 93.2532 111.343 93.1797 111.116 93.1797C110.888 93.1797 110.667 93.2532 110.482 93.3899Z" fill="white"/>
    <g style="mix-blend-mode:multiply" opacity="0.5">
        <path d="M105.824 98.8911C105.824 98.8911 108.186 97.745 108.936 97.4252L112.057 98.8911L108.936 97.2031L105.824 98.8911Z" fill="#DE5634"/>
    </g>
    <g style="mix-blend-mode:multiply" opacity="0.5">
        <path d="M103.875 92.7773L109.013 94.1632L106.194 96.6596L103.875 92.7773Z" fill="#DE5634"/>
    </g>
    <g style="mix-blend-mode:multiply" opacity="0.5">
        <path d="M113.964 92.7773L109.016 94.1632L111.74 96.9972L113.964 92.7773Z" fill="#DE5634"/>
    </g>
    <g style="mix-blend-mode:multiply" opacity="0.5">
        <path d="M105.824 98.8883L109.014 94.1621L112.057 98.8883L108.936 98.3819L105.824 98.8883Z" fill="#DE5634"/>
    </g>
    <g style="mix-blend-mode:soft-light" opacity="0.4">
        <path d="M107.775 91.692C107.439 92.6426 108.715 93.3 108.878 93.0068C109.022 92.2928 108.971 91.552 108.732 90.8658C108.516 90.6526 107.913 91.31 107.775 91.692Z" fill="#F7FFFF"/>
    </g>
    <g style="mix-blend-mode:soft-light" opacity="0.4">
        <path d="M106.747 96.5606C107.42 96.6583 107.791 95.8676 107.937 95.3257C108.161 94.4373 105.523 96.374 106.747 96.5606Z" fill="#F7FFFF"/>
    </g>
    <path d="M72.6914 1.42578L79.8734 12.6063C80.5283 13.6259 81.6569 14.2424 82.8688 14.2424H103.812C105.024 14.2424 106.152 13.6259 106.807 12.6063L113.989 1.42578H72.6914Z" fill="url(#paint64_linear_410_700)"/>
    <path d="M90.0855 4.15685H91.6904L88.67 11.1348H87.075L84.0645 4.15685H85.809L87.9323 9.14108L90.0855 4.15685ZM92.273 11.1348V4.15685H93.8879V11.1348H92.273ZM98.5643 4.15685C100.428 4.15685 101.595 5.12379 101.595 6.68884C101.595 8.24392 100.428 9.21086 98.5643 9.21086H97.1588V11.1348H95.5439V4.15685H98.5643ZM98.4746 7.89502C99.4615 7.89502 99.9599 7.44644 99.9599 6.68884C99.9599 5.92127 99.4615 5.47269 98.4746 5.47269H97.1588V7.89502H98.4746Z" fill="white"/>
    <path d="M26.9469 14.2364H28.8437L30.3048 21.3752L31.7659 14.2364H33.65L31.5224 23.1055H29.1001L26.9469 14.2364ZM34.4945 23.1055V14.2364H36.3145V23.1055H34.4945Z" fill="white"/>
    <g style="mix-blend-mode:overlay">
        <g style="mix-blend-mode:color-dodge">
            <path fill-rule="evenodd" clip-rule="evenodd" d="M13.5938 8.54415C13.5938 4.6117 16.7816 1.42383 20.7141 1.42383H164.545C168.477 1.42383 171.665 4.61169 171.665 8.54413V85.8493C171.665 88.0216 170.602 90.0564 168.818 91.297V91.297C167.035 92.5375 165.972 94.5723 165.972 96.7446V113.212V115.35V131.817C165.972 133.99 167.035 136.024 168.818 137.265V137.265C170.602 138.506 171.665 140.54 171.665 142.713V216.457C171.665 220.39 168.477 223.578 164.545 223.578H20.7141C16.7816 223.578 13.5938 220.39 13.5938 216.457V143.963C13.5938 141.632 14.7345 139.449 16.6479 138.118L17.6594 137.414C19.5727 136.083 20.7135 133.9 20.7135 131.569L20.7135 113.217C20.7135 113.217 20.7135 113.217 20.7135 113.217V113.217C20.7134 113.217 20.7134 113.217 20.7134 113.217L20.7134 97.0021C20.7134 94.6713 19.5726 92.4881 17.6592 91.157L16.6479 90.4535C14.7345 89.1225 13.5938 86.9392 13.5938 84.6084V8.54415Z" fill="url(#paint65_linear_410_700)"/>
        </g>
    </g>
    <defs>
        <filter id="filter0_b_410_700" x="-4.20814" y="-13.5285" width="63.3694" height="252.76" filterUnits="userSpaceOnUse" colorInterpolationFilters="sRGB">
            <feFlood floodOpacity="0" result="BackgroundImageFix"/>
            <feGaussianBlur in="BackgroundImageFix" stdDeviation="9.25641"/>
            <feComposite in2="SourceAlpha" operator="in" result="effect1_backgroundBlur_410_700"/>
            <feBlend mode="normal" in="SourceGraphic" in2="effect1_backgroundBlur_410_700" result="shape"/>
        </filter>
        <filter id="filter1_b_410_700" x="126.097" y="-13.5265" width="63.3694" height="252.76" filterUnits="userSpaceOnUse" colorInterpolationFilters="sRGB">
            <feFlood floodOpacity="0" result="BackgroundImageFix"/>
            <feGaussianBlur in="BackgroundImageFix" stdDeviation="9.25641"/>
            <feComposite in2="SourceAlpha" operator="in" result="effect1_backgroundBlur_410_700"/>
            <feBlend mode="normal" in="SourceGraphic" in2="effect1_backgroundBlur_410_700" result="shape"/>
        </filter>
        <filter id="filter2_i_410_700" x="12.168" y="0" width="160.918" height="227.85" filterUnits="userSpaceOnUse" colorInterpolationFilters="sRGB">
            <feFlood floodOpacity="0" result="BackgroundImageFix"/>
            <feBlend mode="normal" in="SourceGraphic" in2="BackgroundImageFix" result="shape"/>
            <feColorMatrix in="SourceAlpha" type="matrix" values="0 0 0 0 0 0 0 0 0 0 0 0 0 0 0 0 0 0 127 0" result="hardAlpha"/>
            <feOffset dy="3.56016"/>
            <feGaussianBlur stdDeviation="1.42406"/>
            <feComposite in2="hardAlpha" operator="arithmetic" k2="-1" k3="1"/>
            <feColorMatrix type="matrix" values="0 0 0 0 0 0 0 0 0 0 0 0 0 0 0 0 0 0 0.25 0"/>
            <feBlend mode="normal" in2="shape" result="effect1_innerShadow_410_700"/>
        </filter>
        <filter id="filter3_f_410_700" x="0.062458" y="22.0742" width="185.84" height="180.856" filterUnits="userSpaceOnUse" colorInterpolationFilters="sRGB">
            <feFlood floodOpacity="0" result="BackgroundImageFix"/>
            <feBlend mode="normal" in="SourceGraphic" in2="BackgroundImageFix" result="shape"/>
            <feGaussianBlur stdDeviation="26.7012" result="effect1_foregroundBlur_410_700"/>
        </filter>
        <filter id="filter4_f_410_700" x="139.636" y="5.37266" width="26.7" height="26.698" filterUnits="userSpaceOnUse" colorInterpolationFilters="sRGB">
            <feFlood floodOpacity="0" result="BackgroundImageFix"/>
            <feBlend mode="normal" in="SourceGraphic" in2="BackgroundImageFix" result="shape"/>
            <feGaussianBlur stdDeviation="0.777539" result="effect1_foregroundBlur_410_700"/>
        </filter>
        <filter id="filter5_f_410_700" x="136.129" y="1.85703" width="33.7195" height="33.7195" filterUnits="userSpaceOnUse" colorInterpolationFilters="sRGB">
            <feFlood floodOpacity="0" result="BackgroundImageFix"/>
            <feBlend mode="normal" in="SourceGraphic" in2="BackgroundImageFix" result="shape"/>
            <feGaussianBlur stdDeviation="0.777539" result="effect1_foregroundBlur_410_700"/>
        </filter>
        <filter id="filter6_f_410_700" x="136.129" y="1.85703" width="33.7195" height="33.7195" filterUnits="userSpaceOnUse" colorInterpolationFilters="sRGB">
            <feFlood floodOpacity="0" result="BackgroundImageFix"/>
            <feBlend mode="normal" in="SourceGraphic" in2="BackgroundImageFix" result="shape"/>
            <feGaussianBlur stdDeviation="0.777539" result="effect1_foregroundBlur_410_700"/>
        </filter>
        <filter id="filter7_f_410_700" x="135.937" y="1.83359" width="26.7" height="26.698" filterUnits="userSpaceOnUse" colorInterpolationFilters="sRGB">
            <feFlood floodOpacity="0" result="BackgroundImageFix"/>
            <feBlend mode="normal" in="SourceGraphic" in2="BackgroundImageFix" result="shape"/>
            <feGaussianBlur stdDeviation="0.777539" result="effect1_foregroundBlur_410_700"/>
        </filter>
        <filter id="filter8_f_410_700" x="142.277" y="10.2438" width="26.5672" height="26.5691" filterUnits="userSpaceOnUse" colorInterpolationFilters="sRGB">
            <feFlood floodOpacity="0" result="BackgroundImageFix"/>
            <feBlend mode="normal" in="SourceGraphic" in2="BackgroundImageFix" result="shape"/>
            <feGaussianBlur stdDeviation="0.777539" result="effect1_foregroundBlur_410_700"/>
        </filter>
        <linearGradient id="paint0_linear_410_700" x1="9.32048" y1="211.161" x2="95.8264" y2="0.64228" gradientUnits="userSpaceOnUse">
            <stop stop-color="#060913"/>
            <stop offset="0.136764" stop-color="#070A16"/>
            <stop offset="0.197268" stop-color="#0D142E"/>
            <stop offset="0.309253" stop-color="#070B17"/>
            <stop offset="0.490764" stop-color="#080C1A"/>
            <stop offset="0.661458" stop-color="#0B1125"/>
            <stop offset="1" stop-color="#101010"/>
        </linearGradient>
        <linearGradient id="paint1_linear_410_700" x1="31.0375" y1="230.264" x2="78.1021" y2="217.115" gradientUnits="userSpaceOnUse">
            <stop stop-color="#EECCA2"/>
            <stop offset="0.260417" stop-color="#624A2C"/>
            <stop offset="0.6875" stop-color="#FFDAAB"/>
            <stop offset="1" stop-color="#C68C43"/>
        </linearGradient>
        <linearGradient id="paint2_linear_410_700" x1="175.937" y1="14.5442" x2="89.4314" y2="225.063" gradientUnits="userSpaceOnUse">
            <stop stop-color="#060913"/>
            <stop offset="0.136764" stop-color="#070A16"/>
            <stop offset="0.197268" stop-color="#0D142E"/>
            <stop offset="0.309253" stop-color="#070B17"/>
            <stop offset="0.490764" stop-color="#080C1A"/>
            <stop offset="0.661458" stop-color="#0B1125"/>
            <stop offset="1" stop-color="#101010"/>
        </linearGradient>
        <linearGradient id="paint3_linear_410_700" x1="154.22" y1="-4.55942" x2="107.156" y2="8.59028" gradientUnits="userSpaceOnUse">
            <stop stop-color="#EECCA2"/>
            <stop offset="0.260417" stop-color="#624A2C"/>
            <stop offset="0.6875" stop-color="#FFDAAB"/>
            <stop offset="1" stop-color="#C68C43"/>
        </linearGradient>
        <linearGradient id="paint4_linear_410_700" x1="131.433" y1="-18.1568" x2="1.13147" y2="248.855" gradientUnits="userSpaceOnUse">
            <stop stop-color="#C68C43"/>
            <stop offset="0.119792" stop-color="#F5BA6E"/>
            <stop offset="0.286458" stop-color="#C68C43"/>
            <stop offset="0.5625" stop-color="#C68C43"/>
            <stop offset="0.770833" stop-color="#EEB873"/>
            <stop offset="1" stop-color="#C68C43"/>
        </linearGradient>
        <linearGradient id="paint5_linear_410_700" x1="93.3859" y1="110.237" x2="93.3859" y2="-33.0086" gradientUnits="userSpaceOnUse">
            <stop stop-color="#CA6B34"/>
            <stop offset="0.67" stop-color="#FFA933"/>
            <stop offset="1" stop-color="#FFBD2B"/>
        </linearGradient>
        <linearGradient id="paint6_linear_410_700" x1="57.6899" y1="34.1445" x2="57.6899" y2="65.0351" gradientUnits="userSpaceOnUse">
            <stop stop-color="#C10065"/>
            <stop offset="1" stop-color="white"/>
        </linearGradient>
        <linearGradient id="paint7_linear_410_700" x1="129.604" y1="34.1445" x2="129.604" y2="65.0351" gradientUnits="userSpaceOnUse">
            <stop stop-color="#C10065"/>
            <stop offset="1" stop-color="white"/>
        </linearGradient>
        <linearGradient id="paint8_linear_410_700" x1="71.4475" y1="50.7227" x2="71.4475" y2="107.983" gradientUnits="userSpaceOnUse">
            <stop stop-color="#C10065"/>
            <stop offset="1" stop-color="white"/>
        </linearGradient>
        <linearGradient id="paint9_linear_410_700" x1="114.987" y1="50.7227" x2="114.987" y2="107.983" gradientUnits="userSpaceOnUse">
            <stop stop-color="#C10065"/>
            <stop offset="1" stop-color="white"/>
        </linearGradient>
        <linearGradient id="paint10_linear_410_700" x1="99.1636" y1="-3.04297" x2="106.921" y2="77.9998" gradientUnits="userSpaceOnUse">
            <stop stop-color="#BFD7FF"/>
            <stop offset="1"/>
        </linearGradient>
        <linearGradient id="paint11_linear_410_700" x1="94.2812" y1="39.0414" x2="164.926" y2="39.0414" gradientUnits="userSpaceOnUse">
            <stop stop-color="#BFD7FF"/>
            <stop offset="1"/>
        </linearGradient>
        <linearGradient id="paint12_linear_410_700" x1="123.745" y1="-5.30534" x2="131.561" y2="75.6414" gradientUnits="userSpaceOnUse">
            <stop stop-color="#BFD7FF"/>
            <stop offset="1"/>
        </linearGradient>
        <linearGradient id="paint13_linear_410_700" x1="52.6828" y1="1.54047" x2="60.4958" y2="82.4878" gradientUnits="userSpaceOnUse">
            <stop stop-color="#BFD7FF"/>
            <stop offset="1"/>
        </linearGradient>
        <linearGradient id="paint14_linear_410_700" x1="74.2216" y1="78.4547" x2="74.2216" y2="95.7427" gradientUnits="userSpaceOnUse">
            <stop stop-color="#C10065"/>
            <stop offset="1" stop-color="white"/>
        </linearGradient>
        <linearGradient id="paint15_linear_410_700" x1="111.731" y1="78.4547" x2="111.731" y2="95.7427" gradientUnits="userSpaceOnUse">
            <stop stop-color="#C10065"/>
            <stop offset="1" stop-color="white"/>
        </linearGradient>
        <linearGradient id="paint16_linear_410_700" x1="67.7773" y1="154.432" x2="89.3118" y2="154.432" gradientUnits="userSpaceOnUse">
            <stop stop-color="#DE3C14"/>
            <stop offset="0.07" stop-color="#C72E10"/>
            <stop offset="0.19" stop-color="#AB1C0C"/>
            <stop offset="0.3" stop-color="#971009"/>
            <stop offset="0.41" stop-color="#8B0807"/>
            <stop offset="0.52" stop-color="#870606"/>
            <stop offset="0.62" stop-color="#8C0707"/>
            <stop offset="0.73" stop-color="#9A0808"/>
            <stop offset="0.85" stop-color="#B20B0B"/>
            <stop offset="0.97" stop-color="#D30E0E"/>
            <stop offset="1" stop-color="#DB0F0F"/>
        </linearGradient>
        <linearGradient id="paint17_linear_410_700" x1="96.6328" y1="154.432" x2="118.176" y2="154.432" gradientUnits="userSpaceOnUse">
            <stop stop-color="#DE3C14"/>
            <stop offset="0.07" stop-color="#C72E10"/>
            <stop offset="0.19" stop-color="#AB1C0C"/>
            <stop offset="0.3" stop-color="#971009"/>
            <stop offset="0.41" stop-color="#8B0807"/>
            <stop offset="0.52" stop-color="#870606"/>
            <stop offset="0.62" stop-color="#8C0707"/>
            <stop offset="0.73" stop-color="#9A0808"/>
            <stop offset="0.85" stop-color="#B20B0B"/>
            <stop offset="0.97" stop-color="#D30E0E"/>
            <stop offset="1" stop-color="#DB0F0F"/>
        </linearGradient>
        <linearGradient id="paint18_linear_410_700" x1="67.7773" y1="154.432" x2="89.3118" y2="154.432" gradientUnits="userSpaceOnUse">
            <stop stop-color="#B41E2D"/>
            <stop offset="1" stop-color="#E54136"/>
        </linearGradient>
        <linearGradient id="paint19_linear_410_700" x1="96.6328" y1="154.433" x2="118.176" y2="154.433" gradientUnits="userSpaceOnUse">
            <stop stop-color="#B41E2D"/>
            <stop offset="1" stop-color="#E54136"/>
        </linearGradient>
        <linearGradient id="paint20_linear_410_700" x1="52.7812" y1="129.971" x2="52.7812" y2="111.537" gradientUnits="userSpaceOnUse">
            <stop stop-color="#CA6B34"/>
            <stop offset="0.67" stop-color="#FFA933"/>
            <stop offset="1" stop-color="#FFBD2B"/>
        </linearGradient>
        <linearGradient id="paint21_linear_410_700" x1="54.8703" y1="120.048" x2="54.8703" y2="128.657" gradientUnits="userSpaceOnUse">
            <stop stop-color="#C10065"/>
            <stop offset="1" stop-color="white"/>
        </linearGradient>
        <linearGradient id="paint22_linear_410_700" x1="133.177" y1="129.971" x2="133.177" y2="111.537" gradientUnits="userSpaceOnUse">
            <stop stop-color="#CA6B34"/>
            <stop offset="0.67" stop-color="#FFA933"/>
            <stop offset="1" stop-color="#FFBD2B"/>
        </linearGradient>
        <linearGradient id="paint23_linear_410_700" x1="131.096" y1="120.048" x2="131.096" y2="128.657" gradientUnits="userSpaceOnUse">
            <stop stop-color="#C10065"/>
            <stop offset="1" stop-color="white"/>
        </linearGradient>
        <linearGradient id="paint24_linear_410_700" x1="93.1094" y1="155.284" x2="93.1094" y2="82.0011" gradientUnits="userSpaceOnUse">
            <stop stop-color="#CA6B34"/>
            <stop offset="0.67" stop-color="#FFA933"/>
            <stop offset="1" stop-color="#FFBD2B"/>
        </linearGradient>
        <linearGradient id="paint25_linear_410_700" x1="93.1088" y1="69.1126" x2="93.1088" y2="142.777" gradientUnits="userSpaceOnUse">
            <stop stop-color="#CA6B34"/>
            <stop offset="0.17" stop-color="#CC6E34"/>
            <stop offset="0.29" stop-color="#D27733"/>
            <stop offset="0.39" stop-color="#DB8631"/>
            <stop offset="0.48" stop-color="#E99B2F"/>
            <stop offset="0.57" stop-color="#FBB72C"/>
            <stop offset="0.59" stop-color="#FFBD2B"/>
            <stop offset="1" stop-color="#FFA933"/>
        </linearGradient>
        <linearGradient id="paint26_linear_410_700" x1="93.1073" y1="144.418" x2="93.1073" y2="77.7539" gradientUnits="userSpaceOnUse">
            <stop stop-color="#B75014"/>
            <stop offset="0.38" stop-color="#E8692A"/>
            <stop offset="1" stop-color="#F58E2F"/>
        </linearGradient>
        <linearGradient id="paint27_linear_410_700" x1="63.2893" y1="113.433" x2="63.2893" y2="133.537" gradientUnits="userSpaceOnUse">
            <stop stop-color="#C10065"/>
            <stop offset="1" stop-color="white"/>
        </linearGradient>
        <linearGradient id="paint28_linear_410_700" x1="122.796" y1="113.433" x2="122.796" y2="133.537" gradientUnits="userSpaceOnUse">
            <stop stop-color="#C10065"/>
            <stop offset="1" stop-color="white"/>
        </linearGradient>
        <linearGradient id="paint29_linear_410_700" x1="77.3758" y1="131.804" x2="77.3758" y2="152.583" gradientUnits="userSpaceOnUse">
            <stop stop-color="#C10065"/>
            <stop offset="1" stop-color="white"/>
        </linearGradient>
        <linearGradient id="paint30_linear_410_700" x1="108.842" y1="131.814" x2="108.842" y2="152.993" gradientUnits="userSpaceOnUse">
            <stop stop-color="#C10065"/>
            <stop offset="1" stop-color="white"/>
        </linearGradient>
        <linearGradient id="paint31_linear_410_700" x1="92.9791" y1="81.4867" x2="92.9791" y2="134.603" gradientUnits="userSpaceOnUse">
            <stop stop-color="#CA6B34"/>
            <stop offset="0.67" stop-color="#FFA933"/>
            <stop offset="1" stop-color="#FFBD2B"/>
        </linearGradient>
        <linearGradient id="paint32_linear_410_700" x1="92.9791" y1="142.329" x2="92.9791" y2="118.609" gradientUnits="userSpaceOnUse">
            <stop stop-color="#F1CB3C"/>
            <stop offset="1" stop-color="#FFC14F"/>
        </linearGradient>
        <linearGradient id="paint33_linear_410_700" x1="110.685" y1="112.66" x2="110.685" y2="139.996" gradientUnits="userSpaceOnUse">
            <stop stop-color="#C10065"/>
            <stop offset="1" stop-color="white"/>
        </linearGradient>
        <linearGradient id="paint34_linear_410_700" x1="92.9791" y1="72.8146" x2="92.9791" y2="125.931" gradientUnits="userSpaceOnUse">
            <stop stop-color="#CA6B34"/>
            <stop offset="0.67" stop-color="#FFA933"/>
            <stop offset="1" stop-color="#FFBD2B"/>
        </linearGradient>
        <linearGradient id="paint35_linear_410_700" x1="92.9791" y1="130.948" x2="92.9791" y2="107.229" gradientUnits="userSpaceOnUse">
            <stop stop-color="#F1CB3C"/>
            <stop offset="1" stop-color="#FFC14F"/>
        </linearGradient>
        <linearGradient id="paint36_linear_410_700" x1="110.685" y1="101.278" x2="110.685" y2="128.614" gradientUnits="userSpaceOnUse">
            <stop stop-color="#C10065"/>
            <stop offset="1" stop-color="white"/>
        </linearGradient>
        <linearGradient id="paint37_linear_410_700" x1="93.1583" y1="114.78" x2="93.1583" y2="89.3813" gradientUnits="userSpaceOnUse">
            <stop stop-color="#CA6B34"/>
            <stop offset="0.67" stop-color="#FFA933"/>
            <stop offset="1" stop-color="#FFBD2B"/>
        </linearGradient>
        <linearGradient id="paint38_linear_410_700" x1="87.7744" y1="101.174" x2="87.7744" y2="106.646" gradientUnits="userSpaceOnUse">
            <stop stop-color="#C10065"/>
            <stop offset="1" stop-color="white"/>
        </linearGradient>
        <linearGradient id="paint39_linear_410_700" x1="98.6699" y1="101.174" x2="98.6699" y2="106.646" gradientUnits="userSpaceOnUse">
            <stop stop-color="#C10065"/>
            <stop offset="1" stop-color="white"/>
        </linearGradient>
        <linearGradient id="paint40_linear_410_700" x1="89.8483" y1="104.166" x2="89.8483" y2="114.382" gradientUnits="userSpaceOnUse">
            <stop stop-color="#C10065"/>
            <stop offset="1" stop-color="white"/>
        </linearGradient>
        <linearGradient id="paint41_linear_410_700" x1="96.4957" y1="104.166" x2="96.4957" y2="114.382" gradientUnits="userSpaceOnUse">
            <stop stop-color="#C10065"/>
            <stop offset="1" stop-color="white"/>
        </linearGradient>
        <linearGradient id="paint42_linear_410_700" x1="94.1164" y1="94.6849" x2="95.7173" y2="108.924" gradientUnits="userSpaceOnUse">
            <stop stop-color="#BFD7FF"/>
            <stop offset="1"/>
        </linearGradient>
        <linearGradient id="paint43_linear_410_700" x1="93.3164" y1="102.104" x2="104.023" y2="102.104" gradientUnits="userSpaceOnUse">
            <stop stop-color="#BFD7FF"/>
            <stop offset="1"/>
        </linearGradient>
        <linearGradient id="paint44_linear_410_700" x1="97.7819" y1="94.2773" x2="99.3829" y2="108.517" gradientUnits="userSpaceOnUse">
            <stop stop-color="#BFD7FF"/>
            <stop offset="1"/>
        </linearGradient>
        <linearGradient id="paint45_linear_410_700" x1="87.0158" y1="95.4856" x2="88.6167" y2="109.725" gradientUnits="userSpaceOnUse">
            <stop stop-color="#BFD7FF"/>
            <stop offset="1"/>
        </linearGradient>
        <linearGradient id="paint46_linear_410_700" x1="77.4845" y1="99.0743" x2="77.4845" y2="87.3298" gradientUnits="userSpaceOnUse">
            <stop stop-color="#CA6B34"/>
            <stop offset="0.67" stop-color="#FFA933"/>
            <stop offset="1" stop-color="#FFBD2B"/>
        </linearGradient>
        <linearGradient id="paint47_linear_410_700" x1="74.9908" y1="92.7773" x2="74.9908" y2="95.3092" gradientUnits="userSpaceOnUse">
            <stop stop-color="#C10065"/>
            <stop offset="1" stop-color="white"/>
        </linearGradient>
        <linearGradient id="paint48_linear_410_700" x1="80.0327" y1="92.7773" x2="80.0327" y2="95.3092" gradientUnits="userSpaceOnUse">
            <stop stop-color="#C10065"/>
            <stop offset="1" stop-color="white"/>
        </linearGradient>
        <linearGradient id="paint49_linear_410_700" x1="75.9511" y1="94.1621" x2="75.9511" y2="98.8883" gradientUnits="userSpaceOnUse">
            <stop stop-color="#C10065"/>
            <stop offset="1" stop-color="white"/>
        </linearGradient>
        <linearGradient id="paint50_linear_410_700" x1="79.0213" y1="94.1621" x2="79.0213" y2="98.8883" gradientUnits="userSpaceOnUse">
            <stop stop-color="#C10065"/>
            <stop offset="1" stop-color="white"/>
        </linearGradient>
        <linearGradient id="paint51_linear_410_700" x1="77.9265" y1="89.7818" x2="78.6675" y2="96.3688" gradientUnits="userSpaceOnUse">
            <stop stop-color="#BFD7FF"/>
            <stop offset="1"/>
        </linearGradient>
        <linearGradient id="paint52_linear_410_700" x1="77.5586" y1="93.2123" x2="82.5069" y2="93.2123" gradientUnits="userSpaceOnUse">
            <stop stop-color="#BFD7FF"/>
            <stop offset="1"/>
        </linearGradient>
        <linearGradient id="paint53_linear_410_700" x1="79.6189" y1="89.5877" x2="80.36" y2="96.1747" gradientUnits="userSpaceOnUse">
            <stop stop-color="#BFD7FF"/>
            <stop offset="1"/>
        </linearGradient>
        <linearGradient id="paint54_linear_410_700" x1="74.6374" y1="90.1474" x2="75.3784" y2="96.7344" gradientUnits="userSpaceOnUse">
            <stop stop-color="#BFD7FF"/>
            <stop offset="1"/>
        </linearGradient>
        <linearGradient id="paint55_linear_410_700" x1="108.938" y1="99.0743" x2="108.938" y2="87.3298" gradientUnits="userSpaceOnUse">
            <stop stop-color="#CA6B34"/>
            <stop offset="0.67" stop-color="#FFA933"/>
            <stop offset="1" stop-color="#FFBD2B"/>
        </linearGradient>
        <linearGradient id="paint56_linear_410_700" x1="106.444" y1="92.7773" x2="106.444" y2="95.3092" gradientUnits="userSpaceOnUse">
            <stop stop-color="#C10065"/>
            <stop offset="1" stop-color="white"/>
        </linearGradient>
        <linearGradient id="paint57_linear_410_700" x1="111.49" y1="92.7773" x2="111.49" y2="95.3092" gradientUnits="userSpaceOnUse">
            <stop stop-color="#C10065"/>
            <stop offset="1" stop-color="white"/>
        </linearGradient>
        <linearGradient id="paint58_linear_410_700" x1="107.403" y1="94.1621" x2="107.403" y2="98.8883" gradientUnits="userSpaceOnUse">
            <stop stop-color="#C10065"/>
            <stop offset="1" stop-color="white"/>
        </linearGradient>
        <linearGradient id="paint59_linear_410_700" x1="110.482" y1="94.1621" x2="110.482" y2="98.8883" gradientUnits="userSpaceOnUse">
            <stop stop-color="#C10065"/>
            <stop offset="1" stop-color="white"/>
        </linearGradient>
        <linearGradient id="paint60_linear_410_700" x1="109.387" y1="89.7818" x2="110.119" y2="96.3689" gradientUnits="userSpaceOnUse">
            <stop stop-color="#BFD7FF"/>
            <stop offset="1"/>
        </linearGradient>
        <linearGradient id="paint61_linear_410_700" x1="109.007" y1="93.2123" x2="113.964" y2="93.2123" gradientUnits="userSpaceOnUse">
            <stop stop-color="#BFD7FF"/>
            <stop offset="1"/>
        </linearGradient>
        <linearGradient id="paint62_linear_410_700" x1="111.076" y1="89.5877" x2="111.817" y2="96.1747" gradientUnits="userSpaceOnUse">
            <stop stop-color="#BFD7FF"/>
            <stop offset="1"/>
        </linearGradient>
        <linearGradient id="paint63_linear_410_700" x1="106.091" y1="90.1474" x2="106.832" y2="96.7344" gradientUnits="userSpaceOnUse">
            <stop stop-color="#BFD7FF"/>
            <stop offset="1"/>
        </linearGradient>
        <linearGradient id="paint64_linear_410_700" x1="105.801" y1="-0.354298" x2="74.1155" y2="16.0224" gradientUnits="userSpaceOnUse">
            <stop stop-color="#C68C43"/>
            <stop offset="0.119792" stop-color="#F5BA6E"/>
            <stop offset="0.286458" stop-color="#C68C43"/>
            <stop offset="0.5625" stop-color="#C68C43"/>
            <stop offset="0.770833" stop-color="#EEB873"/>
            <stop offset="1" stop-color="#C68C43"/>
        </linearGradient>
        <linearGradient id="paint65_linear_410_700" x1="60.2318" y1="43.0777" x2="22.8525" y2="79.3937" gradientUnits="userSpaceOnUse">
            <stop stop-color="white" stop-opacity="0"/>
            <stop offset="0.440223" stop-color="white"/>
            <stop offset="1" stop-color="white" stop-opacity="0"/>
        </linearGradient>
    </defs>
</svg>
