<svg width="187" height="225" viewBox="0 0 187 225" fill="none" xmlns="http://www.w3.org/2000/svg">
    <g filter="url(#filter0_b_410_298)">
        <path d="M18.3648 220.719C16.3986 220.719 14.8047 219.125 14.8047 217.159L14.8047 8.54493C14.8047 6.57871 16.3986 4.98477 18.3648 4.98477L41.1499 4.98477L41.1499 220.719L18.3648 220.719Z" fill="url(#paint0_linear_410_298)"/>
        <path d="M15.5167 217.159L15.5167 8.54494C15.5167 6.97195 16.7919 5.69681 18.3648 5.69681L40.4378 5.69681L40.4378 220.007L18.3648 220.007C16.7919 220.007 15.5167 218.732 15.5167 217.159Z" stroke="url(#paint1_linear_410_298)" stroke-width="1.42406"/>
    </g>
    <g filter="url(#filter1_b_410_298)">
        <path d="M167.893 4.98633C169.859 4.98633 171.453 6.58027 171.453 8.54649L171.453 217.16C171.453 219.126 169.859 220.72 167.893 220.72L145.108 220.72L145.108 4.98633L167.893 4.98633Z" fill="url(#paint2_linear_410_298)"/>
        <path d="M170.741 8.54649L170.741 217.16C170.741 218.733 169.466 220.008 167.893 220.008L145.82 220.008L145.82 5.69836L167.893 5.69836C169.466 5.69836 170.741 6.97351 170.741 8.54649Z" stroke="url(#paint3_linear_410_298)" stroke-width="1.42406"/>
    </g>
    <mask id="path-5-inside-1_410_298" fill="white">
        <path fill-rule="evenodd" clip-rule="evenodd" d="M12.6719 7.12032C12.6719 3.18788 15.8597 0 19.7922 0H166.471C170.403 0 173.591 3.18787 173.591 7.12032V82.6821C173.591 85.0129 172.45 87.1962 170.537 88.5272L168.815 89.725C166.902 91.0561 165.761 93.2393 165.761 95.5701V113.923L165.761 130.137C165.761 132.468 166.902 134.651 168.815 135.982L170.537 137.18C172.45 138.511 173.591 140.694 173.591 143.025V217.882C173.591 221.814 170.403 225.002 166.471 225.002H19.7922C15.8598 225.002 12.6719 221.814 12.6719 217.882V143.03C12.6719 140.699 13.8127 138.516 15.726 137.185L17.4485 135.987C19.3618 134.655 20.5026 132.472 20.5026 130.141L20.5026 111.789L20.5026 95.5746C20.5026 93.2438 19.3618 91.0606 17.4484 89.7295L15.726 88.5313C13.8127 87.2003 12.6719 85.017 12.6719 82.6862V7.12032Z"/>
    </mask>
    <g filter="url(#filter2_i_410_298)">
        <path fill-rule="evenodd" clip-rule="evenodd" d="M12.6719 7.12032C12.6719 3.18788 15.8597 0 19.7922 0H166.471C170.403 0 173.591 3.18787 173.591 7.12032V82.6821C173.591 85.0129 172.45 87.1962 170.537 88.5272L168.815 89.725C166.902 91.0561 165.761 93.2393 165.761 95.5701V113.923L165.761 130.137C165.761 132.468 166.902 134.651 168.815 135.982L170.537 137.18C172.45 138.511 173.591 140.694 173.591 143.025V217.882C173.591 221.814 170.403 225.002 166.471 225.002H19.7922C15.8598 225.002 12.6719 221.814 12.6719 217.882V143.03C12.6719 140.699 13.8127 138.516 15.726 137.185L17.4485 135.987C19.3618 134.655 20.5026 132.472 20.5026 130.141L20.5026 111.789L20.5026 95.5746C20.5026 93.2438 19.3618 91.0606 17.4484 89.7295L15.726 88.5313C13.8127 87.2003 12.6719 85.017 12.6719 82.6862V7.12032Z" fill="#090E1C"/>
    </g>
    <path d="M165.761 113.923L164.337 113.923L164.337 113.923L165.761 113.923ZM20.5026 111.789L21.9267 111.789L21.9267 111.789L20.5026 111.789ZM17.4485 135.987L16.6352 134.818L17.4485 135.987ZM15.726 137.185L16.5393 138.354L15.726 137.185ZM170.537 137.18L169.724 138.349L170.537 137.18ZM168.815 89.725L168.002 88.556L168.815 89.725ZM17.4484 89.7295L16.6352 90.8985L17.4484 89.7295ZM165.761 130.137L164.337 130.137L165.761 130.137ZM168.815 135.982L168.002 137.151L168.815 135.982ZM166.471 -1.42406H19.7922V1.42406H166.471V-1.42406ZM175.015 82.6821V7.12032H172.167V82.6821H175.015ZM169.628 90.894L171.35 89.6962L169.724 87.3582L168.002 88.556L169.628 90.894ZM167.185 113.923V95.5701H164.337V113.923H167.185ZM167.185 130.137L167.185 113.923L164.337 113.923L164.337 130.137L167.185 130.137ZM171.35 136.011L169.628 134.813L168.002 137.151L169.724 138.349L171.35 136.011ZM175.015 217.882V143.025H172.167V217.882H175.015ZM19.7922 226.426H166.471V223.578H19.7922V226.426ZM11.2478 143.03V217.882H14.0959V143.03H11.2478ZM16.5393 138.354L18.2617 137.156L16.6352 134.818L14.9128 136.016L16.5393 138.354ZM21.9267 130.141L21.9267 111.789L19.0785 111.789L19.0785 130.141L21.9267 130.141ZM21.9267 111.789L21.9267 95.5746L19.0785 95.5746L19.0785 111.789L21.9267 111.789ZM18.2617 88.5605L16.5393 87.3623L14.9128 89.7003L16.6352 90.8985L18.2617 88.5605ZM11.2478 7.12032V82.6862H14.0959V7.12032H11.2478ZM16.5393 87.3623C15.0086 86.2975 14.0959 84.5509 14.0959 82.6862H11.2478C11.2478 85.4832 12.6167 88.1031 14.9128 89.7003L16.5393 87.3623ZM18.2617 137.156C20.5577 135.558 21.9267 132.938 21.9267 130.141L19.0785 130.141C19.0785 132.006 18.1659 133.753 16.6352 134.818L18.2617 137.156ZM14.0959 143.03C14.0959 141.165 15.0086 139.419 16.5393 138.354L14.9128 136.016C12.6167 137.613 11.2478 140.233 11.2478 143.03H14.0959ZM19.7922 223.578C16.6462 223.578 14.0959 221.028 14.0959 217.882H11.2478C11.2478 222.601 15.0733 226.426 19.7922 226.426V223.578ZM172.167 217.882C172.167 221.028 169.617 223.578 166.471 223.578V226.426C171.19 226.426 175.015 222.601 175.015 217.882H172.167ZM169.724 138.349C171.254 139.414 172.167 141.16 172.167 143.025H175.015C175.015 140.228 173.646 137.608 171.35 136.011L169.724 138.349ZM168.002 88.556C165.706 90.1532 164.337 92.7731 164.337 95.5701H167.185C167.185 93.7055 168.098 91.9589 169.628 90.894L168.002 88.556ZM172.167 82.6821C172.167 84.5468 171.254 86.2934 169.724 87.3582L171.35 89.6962C173.646 88.099 175.015 85.4791 175.015 82.6821H172.167ZM21.9267 95.5746C21.9267 92.7776 20.5577 90.1578 18.2617 88.5605L16.6352 90.8985C18.1659 91.9634 19.0785 93.71 19.0785 95.5746L21.9267 95.5746ZM19.7922 -1.42406C15.0732 -1.42406 11.2478 2.40139 11.2478 7.12032H14.0959C14.0959 3.97436 16.6462 1.42406 19.7922 1.42406V-1.42406ZM164.337 130.137C164.337 132.934 165.706 135.554 168.002 137.151L169.628 134.813C168.098 133.748 167.185 132.002 167.185 130.137L164.337 130.137ZM166.471 1.42406C169.617 1.42406 172.167 3.97436 172.167 7.12032H175.015C175.015 2.40138 171.19 -1.42406 166.471 -1.42406V1.42406Z" fill="url(#paint4_linear_410_298)" mask="url(#path-5-inside-1_410_298)"/>
    <mask id="mask0_410_298" style="mask-type:alpha" maskUnits="userSpaceOnUse" x="14" y="1" width="159" height="223">
        <path fill-rule="evenodd" clip-rule="evenodd" d="M14.0977 8.5461C14.0977 4.61366 17.2855 1.42578 21.218 1.42578H165.048C168.981 1.42578 172.169 4.61364 172.169 8.54609V83.0261C172.169 85.3509 171.034 87.5293 169.129 88.8615L167.515 89.9894C165.61 91.3216 164.475 93.4999 164.475 95.8247V111.799V113.909V129.883C164.475 132.208 165.61 134.386 167.515 135.719L169.129 136.846C171.034 138.179 172.169 140.357 172.169 142.682V216.459C172.169 220.392 168.981 223.58 165.048 223.58H21.218C17.2855 223.58 14.0977 220.392 14.0977 216.459V142.683C14.0977 140.358 15.2326 138.18 17.1378 136.848L18.7532 135.718C20.6585 134.386 21.7934 132.208 21.7934 129.883L21.7934 111.799L21.7934 95.8244C21.7934 93.4996 20.6585 91.3212 18.7532 89.989L17.1378 88.8595C15.2326 87.5273 14.0977 85.3489 14.0977 83.0241V8.5461Z" fill="#090E1C"/>
    </mask>
    <g mask="url(#mask0_410_298)">
        <rect x="13.3867" y="225.717" width="225.714" height="80.4596" transform="rotate(-90 13.3867 225.717)" fill="#060911"/>
        <g opacity="0.2">
            <g style="mix-blend-mode:multiply" opacity="0.5">
                <path d="M93.4909 90.4037L45.3261 112.502L54.5358 65.6056L15.5234 32.4082L69.4085 25.5588L93.4909 -17.0879L117.573 25.5588L171.458 32.4082L132.503 65.6056L141.713 112.502L93.4909 90.4037Z" fill="#DE5634"/>
            </g>
            <path d="M166.286 33.4786L140.246 30.1717L133.15 29.2699L116.267 27.1154L93.8898 -12.5664L71.5128 27.1154L21.5508 33.4786L57.7203 64.3422L49.193 107.982L93.8898 87.3898L138.644 107.982L130.117 64.3422L166.286 33.4786Z" fill="url(#paint5_linear_410_298)"/>
            <path style="mix-blend-mode:multiply" opacity="0.37" d="M21.5508 34.1445L94.7799 51.0441L57.5679 65.0351L21.5508 34.1445Z" fill="url(#paint6_linear_410_298)"/>
            <path style="mix-blend-mode:multiply" opacity="0.37" d="M165.43 34.1445L94.7852 51.0441L129.482 65.0351L165.43 34.1445Z" fill="url(#paint7_linear_410_298)"/>
            <path style="mix-blend-mode:multiply" opacity="0.37" d="M93.5322 87.5188L94.7816 50.7227L49.1211 107.983L93.5322 87.5188Z" fill="url(#paint8_linear_410_298)"/>
            <path style="mix-blend-mode:multiply" opacity="0.37" d="M137.861 107.983L94.3244 50.7227L93.0625 87.5188L137.861 107.983Z" fill="url(#paint9_linear_410_298)"/>
            <path style="mix-blend-mode:color-dodge" opacity="0.5" d="M93.0625 -12.5664L94.326 50.7216L115.462 27.3413L93.0625 -12.5664Z" fill="url(#paint10_linear_410_298)"/>
            <path style="mix-blend-mode:color-dodge" opacity="0.5" d="M165.43 33.7561L94.7852 50.7196L115.717 27.3633L165.43 33.7561Z" fill="url(#paint11_linear_410_298)"/>
            <path style="mix-blend-mode:color-dodge" opacity="0.5" d="M165.43 33.7561L94.7852 50.7196L115.717 27.3633L165.43 33.7561Z" fill="url(#paint12_linear_410_298)"/>
            <path style="mix-blend-mode:color-dodge" opacity="0.5" d="M71.2806 27.3633L94.7799 50.7196L21.5508 33.7561L71.2806 27.3633Z" fill="url(#paint13_linear_410_298)"/>
            <path d="M115.577 41.1907C111.81 43.7444 114.998 45.4469 114.998 45.4469L134.415 41.1907C131.686 39.5507 128.385 38.666 124.996 38.666C121.607 38.666 118.306 39.5507 115.577 41.1907Z" fill="white"/>
            <g style="mix-blend-mode:multiply" opacity="0.5">
                <path d="M49.1211 107.981C49.1211 107.981 83.0571 93.9519 93.8914 90.0938L138.719 107.981L93.8914 87.6387L49.1211 107.981Z" fill="#DE5634"/>
            </g>
            <g style="mix-blend-mode:soft-light" opacity="0.4">
                <path d="M76.6313 20.4186C71.7977 31.8617 90.2586 39.8371 92.7045 36.32C95.1504 32.8029 93.6363 13.1862 90.5497 10.5607C87.4632 7.93527 78.6113 15.7621 76.6313 20.4186Z" fill="#F7FFFF"/>
            </g>
            <g style="mix-blend-mode:soft-light" opacity="0.4">
                <path d="M62.2888 80.0079C71.7552 81.1747 77.0205 71.4345 79.093 64.7888C82.1738 53.9833 45.1484 78.1816 62.2888 80.0079Z" fill="#F7FFFF"/>
            </g>
        </g>
    </g>
    <g filter="url(#filter3_f_410_298)">
        <ellipse cx="93.4865" cy="112.502" rx="39.5178" ry="37.0257" fill="#FF5C00"/>
    </g>
    <rect x="144.395" y="9.25781" width="18.5128" height="18.5128" rx="9.25641" fill="#151C30"/>
    <rect x="144.751" y="9.61383" width="17.8008" height="17.8008" rx="8.9004" stroke="#C68C43" stroke-width="0.712032"/>
    <g style="mix-blend-mode:soft-light">
        <mask id="mask1_410_298" style="mask-type:alpha" maskUnits="userSpaceOnUse" x="144" y="9" width="19" height="19">
            <rect x="144.395" y="9.25781" width="18.5128" height="18.5128" rx="9.25641" fill="#101520"/>
        </mask>
        <g mask="url(#mask1_410_298)">
            <g filter="url(#filter4_f_410_298)">
                <path d="M141.82 30.3848L165.146 7.05859" stroke="white" stroke-width="0.370257"/>
            </g>
            <g filter="url(#filter5_f_410_298)">
                <path d="M138.508 33.694L168.462 3.74023" stroke="white" stroke-width="0.925641"/>
            </g>
            <g filter="url(#filter6_f_410_298)">
                <path d="M138.508 33.694L168.462 3.74023" stroke="white" stroke-width="0.925641"/>
            </g>
            <g opacity="0.5" filter="url(#filter7_f_410_298)">
                <path d="M138.121 26.8457L161.447 3.51953" stroke="white" stroke-width="0.370257"/>
            </g>
            <g opacity="0.5" filter="url(#filter8_f_410_298)">
                <path d="M144.395 35.1914L167.721 11.8652" stroke="white" stroke-width="0.185128"/>
            </g>
        </g>
    </g>
    <path d="M156.04 20.8877C155.571 21.246 155.029 21.3322 155.029 21.3322C155.412 21.0533 156.152 20.2699 155.723 19.4201C155.294 18.5703 153.653 18.0195 153.653 18.0195C153.653 18.0195 152.015 18.5706 151.584 19.4201C151.153 20.2696 151.895 21.0533 152.278 21.3322C152.278 21.3322 151.736 21.2458 151.267 20.8874C151.267 20.8874 150.117 21.8964 149.984 23.065C149.984 23.065 151.035 22.2883 153.654 22.2883C156.272 22.2883 157.323 23.065 157.323 23.065C157.191 21.8967 156.04 20.8877 156.04 20.8877ZM153.846 20.881L153.654 21.1998L153.462 20.881C152.226 20.7881 152.001 19.8652 152.001 19.8652L152.616 19.5069L152.449 19.2149L153.653 19.945L154.857 19.2149L154.691 19.5069L155.306 19.8652C155.306 19.8652 155.081 20.7881 153.845 20.881H153.846Z" fill="white"/>
    <path d="M157.037 14.8292C157.037 14.8292 158.12 14.9549 158.637 15.4776C158.637 15.4776 157.837 13.9824 156.144 13.9824C154.452 13.9824 153.652 14.9021 153.652 14.9021C153.652 14.9021 152.852 13.9824 151.16 13.9824C149.468 13.9824 148.668 15.4776 148.668 15.4776C149.183 14.9549 150.268 14.8292 150.268 14.8292C149.408 15.0813 148.747 16.1077 148.754 17.3372C148.761 18.5667 149.236 19.4475 149.706 19.5606C150.175 19.6737 150.426 19.2232 151.127 18.5601C151.828 17.897 152.542 17.7927 152.542 17.7927C151.834 17.4751 151.365 17.6604 150.896 17.8125C150.426 17.9645 150.043 18.0176 149.772 17.4687C149.501 16.9198 150.017 16.3175 150.017 16.3175C149.726 16.3639 149.448 16.5954 149.448 16.5954C149.712 15.9668 150.05 15.7948 150.598 15.775C151.147 15.7553 151.398 15.9006 151.973 16.225C152.548 16.5493 153.051 16.9262 153.348 16.6813C153.646 16.4365 153.203 15.6097 153.203 15.6097C153.527 15.8214 153.652 16.2644 153.652 16.2644C153.652 16.2644 153.778 15.8214 154.102 15.6097C154.102 15.6097 153.657 16.4365 153.956 16.6813C154.255 16.9262 154.756 16.549 155.331 16.225C155.907 15.9009 156.158 15.7553 156.706 15.775C157.255 15.7948 157.592 15.9687 157.856 16.5963C157.856 16.5963 157.578 16.3648 157.287 16.3184C157.287 16.3184 157.803 16.9203 157.532 17.4695C157.261 18.0187 156.878 17.9656 156.408 17.8133C155.939 17.661 155.469 17.4759 154.762 17.7936C154.762 17.7936 155.476 17.8995 156.177 18.5609C156.877 19.2224 157.129 19.6726 157.598 19.5614C158.067 19.4503 158.542 18.569 158.55 17.3381C158.558 16.1071 157.896 15.0813 157.037 14.8292Z" fill="white"/>
    <path d="M156.146 13.9824C154.452 13.9824 153.651 14.9088 153.651 14.9088C153.651 14.9088 152.85 13.9824 151.156 13.9824C149.895 13.9824 149.129 14.8167 148.82 15.2422C149.48 14.5953 151.242 13.3609 153.652 15.4808C156.062 13.3609 157.824 14.5953 158.483 15.2422C158.173 14.8167 157.407 13.9824 156.146 13.9824Z" fill="#C4C4C4"/>
    <path d="M150.869 17.8096C150.398 17.9626 150.014 18.0156 149.742 17.4644C149.471 16.9133 149.988 16.3086 149.988 16.3086C149.754 16.3457 149.529 16.5023 149.449 16.5631C149.212 16.9591 149.049 17.6765 149.605 18.8561C149.605 18.8561 149.129 18.7152 148.758 17.8914C148.879 18.8279 149.279 19.4684 149.676 19.5635C150.147 19.6751 150.399 19.2247 151.101 18.5589C151.804 17.8931 152.519 17.7884 152.519 17.7884C151.81 17.4709 151.339 17.657 150.869 17.8096Z" fill="#C4C4C4"/>
    <path d="M157.654 18.8551C158.217 17.6623 158.044 16.9421 157.804 16.5493C157.711 16.4815 157.501 16.3432 157.283 16.3086C157.283 16.3086 157.8 16.9128 157.528 17.464C157.257 18.0152 156.873 17.9619 156.403 17.809C155.933 17.6562 155.462 17.4704 154.754 17.7892C154.754 17.7892 155.469 17.8955 156.171 18.5594C156.873 19.2233 157.124 19.6751 157.595 19.5636C157.994 19.4673 158.399 18.8143 158.515 17.862C158.142 18.7111 157.654 18.8551 157.654 18.8551Z" fill="#C4C4C4"/>
    <path d="M157.321 23.0481C156.899 22.7244 155.823 22.0571 154.037 21.9831C151.667 21.8838 151.449 22.2709 151.181 21.9333C150.913 21.5958 152.278 21.3341 152.278 21.3341C152.278 21.3341 151.736 21.2479 151.267 20.8906C151.267 20.8906 150.117 21.8966 149.984 23.0617C149.984 23.0617 151.035 22.2873 153.654 22.2873C156.272 22.2873 157.323 23.0617 157.323 23.0617C157.323 23.0581 157.322 23.0528 157.321 23.0481Z" fill="#C4C4C4"/>
    <path d="M56.875 120.299V147.835L70.2335 140.157L70.9006 120.995L56.875 120.299Z" fill="url(#paint14_linear_410_298)"/>
    <g style="mix-blend-mode:multiply" opacity="0.6">
        <path d="M56.875 144.432L70.3276 137.777L70.2335 140.159L56.875 147.837V144.432Z" fill="#8E37E2"/>
    </g>
    <path style="mix-blend-mode:multiply" d="M57.2085 132.496C57.9953 129.533 59.5604 131.596 59.5604 135.812C59.5604 140.027 59.0045 146.608 59.0045 146.608L60.2104 145.79C60.2104 145.79 60.1248 134.887 60.7235 133.577C61.3221 132.267 64.5292 132.701 64.5292 143.449L70.2335 140.174L70.9006 121.012L56.875 120.316V135.402L57.2085 132.496Z" fill="url(#paint15_linear_410_298)"/>
    <path d="M130.092 120.299V147.835L116.733 140.157L116.066 120.995L130.092 120.299Z" fill="url(#paint16_linear_410_298)"/>
    <g style="mix-blend-mode:multiply" opacity="0.6">
        <path d="M130.093 144.432L116.641 137.777L116.735 140.159L130.093 147.837V144.432Z" fill="#8E37E2"/>
    </g>
    <path style="mix-blend-mode:multiply" d="M129.761 132.495C128.983 129.532 127.418 131.595 127.418 135.81C127.418 140.026 127.965 146.607 127.965 146.607L126.768 145.789C126.768 145.789 126.845 134.885 126.246 133.576C125.648 132.266 122.407 132.684 122.407 143.431L116.702 140.157L116.035 120.995L130.061 120.299V135.401L129.761 132.495Z" fill="url(#paint17_linear_410_298)"/>
    <path d="M90.0016 140.313V167.325C81.4494 163.02 68.6211 150.455 68.6211 150.455V131.775L90.0016 140.313Z" fill="url(#paint18_linear_410_298)"/>
    <g style="mix-blend-mode:multiply" opacity="0.6">
        <path d="M90.0016 161.866V167.301C81.4494 162.996 68.6211 150.431 68.6211 150.431V145.773C71.6058 149.424 77.9344 155.531 90.0016 161.866Z" fill="#8E37E2"/>
    </g>
    <path d="M97.2695 140.313V167.325C105.822 163.02 118.65 150.455 118.65 150.455V131.775L97.2695 140.313Z" fill="url(#paint19_linear_410_298)"/>
    <g style="mix-blend-mode:multiply" opacity="0.6">
        <path d="M97.2695 161.866V167.301C105.822 162.996 118.65 150.431 118.65 150.431V145.773C115.665 149.424 109.379 155.531 97.2695 161.866Z" fill="#8E37E2"/>
    </g>
    <path style="mix-blend-mode:multiply" d="M70.6394 152.326C70.6394 152.326 70.4427 139.941 72.461 140.154C74.4793 140.367 77.9601 142.331 78.7212 144.582C79.4824 146.834 79.26 159.873 79.26 159.873L80.0297 160.479C80.0297 160.479 79.0804 144.64 80.654 145.417C81.817 145.961 82.8252 146.766 83.5922 147.764C84.3592 148.762 84.8623 149.923 85.0584 151.147C85.7853 154.683 86.0077 164.973 86.0077 164.973L90.0016 167.265V140.252L68.6211 131.715V150.37L70.6394 152.326Z" fill="url(#paint20_linear_410_298)"/>
    <path style="mix-blend-mode:multiply" d="M116.632 152.326C116.632 152.326 116.794 137.813 114.776 138.026C112.758 138.238 112.672 145.589 112.672 147.848C112.672 150.107 112.347 156.222 112.347 156.222L111.21 157.212C111.21 157.212 111.372 140.702 109.798 141.48C108.225 142.257 101.323 147.365 100.588 150.901C99.8523 154.437 100.135 165.635 100.135 165.635L97.2695 167.272V140.26L118.65 131.723V150.377L116.632 152.326Z" fill="url(#paint21_linear_410_298)"/>
    <path d="M102.246 99.2045L149.163 98.918L144.785 106.449L104.658 107.513L102.246 99.2045Z" fill="url(#paint22_linear_410_298)"/>
    <path d="M144.982 98.918L139.543 98.9507L134.891 106.661L140.475 106.514L144.982 98.918Z" fill="url(#paint23_linear_410_298)"/>
    <g style="mix-blend-mode:multiply" opacity="0.5">
        <path d="M104.316 105.153L146.068 104.236L144.785 106.446L104.658 107.511L104.316 105.153Z" fill="#DE5634"/>
    </g>
    <g style="mix-blend-mode:soft-light" opacity="0.4">
        <path d="M128.85 99.5794C128.499 99.9477 130.124 103.877 130.791 103.754C131.458 103.631 145.013 103.869 145.621 103.468C146.228 103.066 148.494 99.7677 147.998 99.3748C147.502 98.9819 129.183 99.2274 128.85 99.5794Z" fill="#FFDF66"/>
    </g>
    <g style="mix-blend-mode:multiply" opacity="0.5">
        <path d="M127.894 99.0176C127.894 99.0176 129.664 103.601 129.724 104.6C129.69 105.394 129.465 106.17 129.066 106.867L104.658 107.514L102.246 99.2058L127.894 99.0176Z" fill="#DE5634"/>
    </g>
    <path d="M85.0228 99.2045L38.1055 98.918L42.4842 106.449L82.611 107.513L85.0228 99.2045Z" fill="url(#paint24_linear_410_298)"/>
    <path d="M42.1953 98.9473L47.6259 98.98L52.2783 106.691L46.7023 106.543L42.1953 98.9473Z" fill="url(#paint25_linear_410_298)"/>
    <g style="mix-blend-mode:multiply" opacity="0.5">
        <path d="M82.9595 105.157L41.1992 104.24L42.482 106.45L82.6089 107.514L82.9595 105.157Z" fill="#DE5634"/>
    </g>
    <g style="mix-blend-mode:soft-light" opacity="0.4">
        <path d="M58.0891 99.418C59.2522 100.474 57.1654 104.084 56.4984 103.961C55.8313 103.838 42.2504 103.871 41.6432 103.47C41.036 103.069 38.7697 99.77 39.2657 99.3771C39.7617 98.9842 57.4049 98.8123 58.0891 99.418Z" fill="#FFDF66"/>
    </g>
    <g style="mix-blend-mode:multiply" opacity="0.5">
        <path d="M59.3731 99.0176C59.3731 99.0176 57.6028 103.601 57.543 104.6C57.5783 105.392 57.8036 106.165 58.2015 106.859L82.6094 107.506L85.0211 99.1977L59.3731 99.0176Z" fill="#DE5634"/>
    </g>
    <path d="M107.453 89.4994L154.362 89.2129L149.983 96.7518L109.856 97.8077L107.453 89.4994Z" fill="url(#paint26_linear_410_298)"/>
    <path d="M150.463 89.2246L145.023 89.2574L140.371 96.9681L145.956 96.8208L150.463 89.2246Z" fill="url(#paint27_linear_410_298)"/>
    <g style="mix-blend-mode:multiply" opacity="0.5">
        <path d="M109.516 95.4562L151.267 94.5312L149.985 96.7495L109.858 97.8055L109.516 95.4562Z" fill="#DE5634"/>
    </g>
    <g style="mix-blend-mode:soft-light" opacity="0.4">
        <path d="M134.053 89.8824C133.702 90.2508 135.327 94.1716 135.994 94.0489C136.661 93.9261 150.216 94.1716 150.824 93.7705C151.431 93.3695 153.706 90.0625 153.21 89.6778C152.714 89.2931 134.378 89.5304 134.053 89.8824Z" fill="#FFDF66"/>
    </g>
    <g style="mix-blend-mode:multiply" opacity="0.5">
        <path d="M126.969 89.3809C127.698 91.204 128.31 93.0683 128.799 94.9634C128.761 95.757 128.536 96.5321 128.141 97.2308L109.856 97.8038L107.453 89.4955L126.969 89.3809Z" fill="#DE5634"/>
    </g>
    <path d="M79.5228 89.4994L32.6055 89.2129L36.9842 96.7518L77.111 97.8077L79.5228 89.4994Z" fill="url(#paint28_linear_410_298)"/>
    <path d="M36.6406 89.2598L42.0798 89.2925L46.7322 97.0033L41.1476 96.8559L36.6406 89.2598Z" fill="url(#paint29_linear_410_298)"/>
    <g style="mix-blend-mode:multiply" opacity="0.5">
        <path d="M77.4634 95.4562L35.7031 94.5312L36.986 96.7495L77.1128 97.8055L77.4634 95.4562Z" fill="#DE5634"/>
    </g>
    <g style="mix-blend-mode:soft-light" opacity="0.4">
        <path d="M52.5891 89.709C53.7522 90.7732 51.6654 94.3748 50.9984 94.252C50.3313 94.1292 36.7504 94.1702 36.1432 93.7609C35.536 93.3516 33.2697 90.061 33.7657 89.6681C34.2617 89.2752 51.9135 89.1033 52.5891 89.709Z" fill="#FFDF66"/>
    </g>
    <g style="mix-blend-mode:multiply" opacity="0.5">
        <path d="M60.2716 89.3809C60.2716 89.3809 58.5013 93.9648 58.4414 94.9634C58.4849 95.7583 58.7158 96.5335 59.117 97.2308L77.1279 97.8038L79.5396 89.4955L60.2716 89.3809Z" fill="#DE5634"/>
    </g>
    <path style="mix-blend-mode:multiply" opacity="0.37" d="M82.0053 80.2292C80.2435 81.6126 62.6773 90.8049 62.4379 91.4025C62.13 92.1637 64.4647 95.749 65.568 95.4461C66.6712 95.1433 87.5813 83.8063 87.6241 83.2742C87.6668 82.7422 87.7181 79.7872 87.2136 79.5989C86.709 79.4107 82.6723 79.6972 82.0053 80.2292Z" fill="url(#paint30_linear_410_298)"/>
    <g style="mix-blend-mode:soft-light" opacity="0.4">
        <path d="M79.642 79.2979C78.4875 79.3716 64.154 88.1792 64.154 88.433C64.154 88.6867 61.5883 90.1765 62.2383 90.1356C62.8883 90.0946 80.9762 80.3129 81.0018 79.9773C81.0275 79.6417 80.292 79.257 79.642 79.2979Z" fill="#FFDF66"/>
    </g>
    <g style="mix-blend-mode:soft-light" opacity="0.4">
        <path d="M61.6836 91.4037C61.6836 91.4037 71.2278 86.7953 76.1026 83.8485C80.9773 80.9017 82.0036 80.2305 82.0036 80.2305L61.6836 91.4037Z" fill="#FFDF66"/>
    </g>
    <path style="mix-blend-mode:multiply" opacity="0.37" d="M105.3 80.2292C107.01 81.6126 124.619 90.8049 124.859 91.4025C125.166 92.1637 122.832 95.749 121.728 95.4461C120.625 95.1433 99.6894 83.8063 99.6467 83.2742C99.6039 82.7422 99.5526 79.7872 100.057 79.5989C100.562 79.4107 104.598 79.6972 105.3 80.2292Z" fill="url(#paint31_linear_410_298)"/>
    <g style="mix-blend-mode:soft-light" opacity="0.4">
        <path d="M107.595 79.2979C108.749 79.3716 123.083 88.1792 123.083 88.433C123.083 88.6867 125.648 90.1765 124.998 90.1356C124.349 90.0946 106.261 80.3129 106.235 79.9773C106.209 79.6417 107.013 79.257 107.595 79.2979Z" fill="#FFDF66"/>
    </g>
    <g style="mix-blend-mode:soft-light" opacity="0.4">
        <path d="M125.591 91.4037C125.591 91.4037 116.047 86.7953 111.164 83.8485C106.28 80.9017 105.297 80.2305 105.297 80.2305L125.591 91.4037Z" fill="#FFDF66"/>
    </g>
    <path d="M62.8474 127.037C62.7705 127.307 51.1481 123.436 51.1481 123.436C48.1935 119.193 45.741 114.65 43.8359 109.889H63.6856L62.8474 127.037Z" fill="url(#paint32_linear_410_298)"/>
    <path d="M47.6211 109.889C47.6211 109.889 52.2735 119.048 53.1287 120.039L63.169 120.301V119.646C63.169 119.646 53.9754 119.719 53.4537 119.343C52.932 118.966 48.2369 109.889 48.2369 109.889H47.6211Z" fill="#B33114"/>
    <path d="M47.6211 109.889L53.1287 120.039C51.9382 118.415 50.8584 116.72 49.896 114.964C48.6474 112.59 47.6211 109.889 47.6211 109.889Z" fill="white"/>
    <g style="mix-blend-mode:soft-light" opacity="0.4">
        <path d="M49.0415 110.508C49.8112 112.702 52.8643 117.671 53.4972 117.671C54.1301 117.671 61.4935 117.548 62.1691 116.533C62.8447 115.518 63.4348 110.607 62.8447 110.508C62.2546 110.41 48.6994 109.534 49.0415 110.508Z" fill="#FFDF66"/>
    </g>
    <g style="mix-blend-mode:soft-light" opacity="0.4">
        <path d="M44.492 110.271C45.4327 112.415 48.0668 117.875 48.5543 117.94C49.0417 118.006 50.6838 118.202 50.7094 117.547C50.7094 116.5 47.6734 110.41 46.9892 110.271C46.305 110.131 44.2525 109.738 44.492 110.271Z" fill="#FFDF66"/>
    </g>
    <path style="mix-blend-mode:multiply" opacity="0.37" d="M49.0333 118.651C48.9478 119.33 51.5989 122.826 52.0265 123.104C52.4541 123.382 61.3826 126.141 61.9727 125.748C62.5628 125.355 62.828 118.152 62.3747 117.939C61.9214 117.726 49.1359 117.906 49.0333 118.651Z" fill="url(#paint33_linear_410_298)"/>
    <g style="mix-blend-mode:multiply" opacity="0.5">
        <path d="M57.0156 109.885C57.9718 115.121 58.3901 120.434 58.2642 125.748L62.8397 127.033L63.6949 109.844L57.0156 109.885Z" fill="#DE5634"/>
    </g>
    <path d="M124.424 127.037C124.501 127.307 136.123 123.436 136.123 123.436C139.078 119.193 141.53 114.65 143.436 109.889H123.586L124.424 127.037Z" fill="url(#paint34_linear_410_298)"/>
    <path d="M139.64 109.889C139.64 109.889 135.005 119.048 134.158 120.039L124.109 120.301V119.646C124.109 119.646 133.294 119.719 133.816 119.343C134.338 118.966 139.033 109.889 139.033 109.889H139.64Z" fill="#B33114"/>
    <path d="M139.646 109.889L134.164 120.039C135.355 118.415 136.434 116.72 137.397 114.964C138.654 112.59 139.646 109.889 139.646 109.889Z" fill="white"/>
    <g style="mix-blend-mode:soft-light" opacity="0.4">
        <path d="M138.225 110.508C137.456 112.702 134.411 117.671 133.77 117.671C133.128 117.671 125.773 117.548 125.098 116.533C124.422 115.518 123.832 110.607 124.422 110.508C125.012 110.41 138.567 109.534 138.225 110.508Z" fill="#FFDF66"/>
    </g>
    <g style="mix-blend-mode:soft-light" opacity="0.4">
        <path d="M142.785 110.271C141.835 112.415 139.21 117.875 138.714 117.94C138.218 118.006 136.584 118.202 136.559 117.547C136.559 116.5 139.595 110.41 140.287 110.271C140.98 110.131 143.015 109.738 142.785 110.271Z" fill="#FFDF66"/>
    </g>
    <path style="mix-blend-mode:multiply" opacity="0.37" d="M138.234 118.651C138.319 119.33 135.668 122.826 135.241 123.104C134.813 123.382 125.885 126.141 125.303 125.748C124.721 125.355 124.448 118.152 124.893 117.939C125.337 117.726 138.131 117.906 138.234 118.651Z" fill="url(#paint35_linear_410_298)"/>
    <g style="mix-blend-mode:multiply" opacity="0.5">
        <path d="M130.258 109.885C129.299 115.121 128.878 120.434 129.001 125.748L124.426 127.033L123.57 109.844L130.258 109.885Z" fill="#DE5634"/>
    </g>
    <path d="M93.7593 70.2266L61.2695 88.1774V131.02L93.7593 148.971L126.249 131.02V88.1774L93.7593 70.2266Z" fill="url(#paint36_linear_410_298)"/>
    <path d="M67.1484 127.772V91.4281L93.7628 76.7188L120.377 91.4281V127.772L93.7628 142.481L67.1484 127.772Z" fill="url(#paint37_linear_410_298)"/>
    <path d="M69.1055 126.692V92.5094L93.7614 78.8887L118.417 92.5094V126.692L93.7614 140.313L69.1055 126.692Z" fill="url(#paint38_linear_410_298)"/>
    <g style="mix-blend-mode:soft-light" opacity="0.4">
        <path d="M62.0832 88.2957C61.6813 89.4499 65.1021 90.866 67.5652 90.3585C70.0282 89.851 92.8625 77.0161 93.4184 75.8619C93.5856 74.2615 93.5856 72.6492 93.4184 71.0488C92.6145 71.0488 62.2799 87.7391 62.0832 88.2957Z" fill="#FFDF66"/>
    </g>
    <g style="mix-blend-mode:soft-light" opacity="0.4">
        <path d="M125.284 88.2957C125.686 89.4499 122.231 90.866 119.802 90.3585C117.373 89.851 94.7186 76.8933 93.9489 75.8619C93.5469 75.3299 93.4186 71.0488 93.9489 71.0488C94.7528 71.0488 125.087 87.7391 125.284 88.2957Z" fill="#FFDF66"/>
    </g>
    <path style="mix-blend-mode:multiply" opacity="0.37" d="M62.0497 112.665C61.8274 113.942 61.2971 130.157 62.0497 130.28C62.8023 130.403 66.3258 128.094 66.5225 127.006C66.7192 125.917 66.7791 114.826 66.5225 113.761C66.266 112.697 62.4089 110.528 62.0497 112.665Z" fill="url(#paint39_linear_410_298)"/>
    <path style="mix-blend-mode:multiply" opacity="0.37" d="M125.347 112.665C125.569 113.942 126.099 130.157 125.347 130.28C124.594 130.403 121.071 128.094 120.874 127.006C120.677 125.917 120.617 114.826 120.874 113.761C121.13 112.697 124.97 110.528 125.347 112.665Z" fill="url(#paint40_linear_410_298)"/>
    <path style="mix-blend-mode:multiply" opacity="0.37" d="M62.863 130.719C63.2564 131.275 92.522 147.835 92.9582 147.835C93.1805 147.835 93.4798 143.742 93.4798 143.259C93.4798 141.982 67.6009 128.828 67.1477 128.705C66.4806 128.525 62.4696 130.162 62.863 130.719Z" fill="url(#paint41_linear_410_298)"/>
    <path style="mix-blend-mode:multiply" opacity="0.37" d="M124.714 131.154C124.32 131.711 94.5073 148.213 94.0712 148.213C93.9588 146.434 93.996 144.649 94.1823 142.876C95.1316 141.975 119.839 128.805 120.258 128.682C120.908 128.527 125.107 130.598 124.714 131.154Z" fill="url(#paint42_linear_410_298)"/>
    <g style="mix-blend-mode:multiply" opacity="0.37">
        <path d="M70.236 125.781C68.5256 116.31 69.4663 115.713 81.7387 111.71C94.0111 107.707 114.776 97.3937 116.597 101.888C118.419 106.381 117.795 125.421 117.384 126.444C116.974 127.467 95.5334 139.271 93.7631 139.295C91.9928 139.32 70.4327 126.845 70.236 125.781Z" fill="#ED8A1D"/>
    </g>
    <g style="mix-blend-mode:soft-light" opacity="0.4">
        <path d="M117.889 92.7482C117.453 92.65 95.1741 80.3226 93.9426 80.4126C92.7111 80.5026 77.2231 87.4522 70.8517 92.6909C69.1413 94.0988 69.7741 115.005 71.3392 114.62C72.9042 114.235 74.0588 105.796 91.3 101.048C108.276 96.3662 115.665 100.418 117.504 101.138C118.026 101.343 118.872 92.9446 117.889 92.7482Z" fill="#FFDF66"/>
    </g>
    <g style="mix-blend-mode:multiply" opacity="0.5">
        <path d="M67.1484 127.775V91.4312L93.7628 76.6973L120.377 91.4312V127.775L118.419 126.694C118.419 126.694 118.539 95.0983 117.829 94.1079C115.263 90.5717 95.593 81.9769 92.3774 82.9346C89.1618 83.8923 71.5614 91.0465 69.6029 94.0506C68.9444 95.0574 69.1069 126.694 69.1069 126.694L67.1484 127.775Z" fill="#DE5634"/>
    </g>
    <g style="mix-blend-mode:soft-light" opacity="0.4">
        <path d="M98.7376 96.3882C105.365 99.2859 115.354 99.335 116.27 98.7784C117.185 98.2217 117.792 94.1535 116.355 93.4741C114.918 92.7947 103.527 86.983 100.534 87.6051C97.5402 88.2272 97.6001 95.8807 98.7376 96.3882Z" fill="#FFDF66"/>
    </g>
    <path opacity="0.8" d="M61.2742 101.233C61.2742 101.135 61.5564 89.1515 62.0866 88.292C62.6169 87.4325 93.0627 71.2743 93.9521 71.0451C94.8415 70.8159 106.242 77.1188 106.242 77.1188L93.7639 70.2266L61.2656 88.1774L61.2742 101.233Z" fill="#700000"/>
    <path d="M105.395 83.123C105.395 83.123 119.668 90.9239 119.839 91.7997C120.01 92.6756 120.352 116.16 120.352 116.16C120.352 116.16 120.489 92.4218 120.352 91.4314C120.215 90.4409 105.395 83.123 105.395 83.123Z" fill="white"/>
    <path d="M67.1459 111.344C67.1459 111.344 66.667 91.6983 66.915 91.0598C67.163 90.4213 93.7603 76.7188 93.7603 76.7188C93.7603 76.7188 68.1038 90.7815 67.5393 91.6737C66.9749 92.5659 67.1459 111.344 67.1459 111.344Z" fill="white"/>
    <path opacity="0.8" d="M61.2695 131.022L93.7678 148.973L126.266 131.022V121.265C126.266 121.265 125.992 129.778 125.334 130.842C124.675 131.906 95.5467 148.105 94.0672 148.212C92.5876 148.318 62.826 131.415 62.0478 130.277C61.2695 129.14 61.2695 109.191 61.2695 109.191V131.022Z" fill="#700000"/>
    <g style="mix-blend-mode:soft-light" opacity="0.4">
        <path d="M67.1475 118.471C67.1475 118.471 67.0534 126.853 67.5409 127.548C68.0284 128.244 80.6514 135.235 80.6514 135.235C80.6514 135.235 66.9764 128.465 66.8139 128.023C66.6515 127.581 67.1475 118.471 67.1475 118.471Z" fill="#FFDF66"/>
    </g>
    <g style="mix-blend-mode:soft-light" opacity="0.4">
        <path d="M78.1394 135.4C77.1815 135.4 74.4961 136.44 75.0777 137.038C75.6592 137.635 91.6518 146.86 93.482 147.515C94.0721 147.728 94.0208 144.085 93.2169 142.907C92.8748 142.407 81.1155 135.392 78.1394 135.4Z" fill="#FFDF66"/>
    </g>
    <path d="M107.314 78.9521C106.792 79.0831 108.545 81.2032 109.384 81.4078C110.222 81.6124 111.359 81.0313 110.966 80.6383C110.572 80.2454 108.126 78.7393 107.314 78.9521Z" fill="white"/>
    <path d="M111.211 81.0493C110.415 81.2539 111.886 84.6018 112.519 85.1912C113.152 85.7805 118.737 86.8283 118.608 85.8706C118.48 84.9129 112.331 80.7628 111.211 81.0493Z" fill="white"/>
    <g style="mix-blend-mode:multiply" opacity="0.5">
        <path d="M108.72 135.507C108.019 138.429 108.13 140.157 108.524 140.173C108.917 140.189 123.122 131.987 123.516 131.644C123.909 131.3 121.232 128.934 120.095 129.098C118.957 129.262 109.011 134.394 108.72 135.507Z" fill="#DE5634"/>
    </g>
    <g style="mix-blend-mode:multiply" opacity="0.5">
        <path d="M68.8767 92.265C68.5346 91.2827 67.4827 91.2827 67.38 92.3878C67.2774 93.4928 67.1235 113.85 67.5425 113.875C67.9616 113.899 68.8424 112.909 68.8767 112.442C68.9109 111.976 69.0391 92.7316 68.8767 92.265Z" fill="#DE5634"/>
    </g>
    <g style="mix-blend-mode:multiply" opacity="0.5">
        <path d="M118.65 92.3865C118.598 92.7794 118.393 112.032 118.65 112.032C118.906 112.032 120.087 111.131 120.087 110.657C120.087 110.182 119.796 92.0181 119.667 91.9199C119.539 91.8217 118.701 92.0754 118.65 92.3865Z" fill="#DE5634"/>
    </g>
    <g style="mix-blend-mode:multiply" opacity="0.5">
        <path d="M93.7624 78.5703C93.7624 78.9469 82.311 85.2006 82.0459 85.2006C81.7808 85.2006 81.8749 83.5144 82.2426 83.2852C82.6103 83.056 93.6769 76.6713 93.7624 76.8841C93.8052 77.4454 93.8052 78.009 93.7624 78.5703Z" fill="#DE5634"/>
    </g>
    <path d="M117.392 129.229C116.665 129.229 114.193 130.579 114.381 131.25C114.569 131.922 116.092 132.65 116.477 132.257C116.861 131.864 117.871 129.245 117.392 129.229Z" fill="#B33114"/>
    <path d="M118.331 129.706C118.083 129.927 117.536 130.713 118.058 131.097C118.579 131.482 120.11 130.467 119.888 130.172C119.665 129.878 118.656 129.419 118.331 129.706Z" fill="#B33114"/>
    <g style="mix-blend-mode:multiply" opacity="0.5">
        <path d="M114.708 130.599C114.101 131.417 116.598 131.909 116.923 131.246C117.248 130.583 117.778 129.183 117.359 129.248C116.396 129.539 115.498 129.997 114.708 130.599Z" fill="#DE5634"/>
    </g>
    <path d="M114.388 131.057C114.556 131.515 114.89 131.901 115.328 132.145C115.918 132.473 116.414 132.399 116.56 132.145C116.416 132.309 116.218 132.421 115.999 132.462C115.78 132.504 115.552 132.473 115.354 132.375C114.165 131.859 114.388 131.057 114.388 131.057Z" fill="#DAE1EF"/>
    <g style="mix-blend-mode:multiply" opacity="0.5">
        <path d="M118.617 129.717C118.052 130.306 118.488 131.141 118.805 131.092C119.121 131.043 120.062 130.453 119.891 130.167C119.72 129.88 118.736 129.594 118.617 129.717Z" fill="#DE5634"/>
    </g>
    <path d="M118.33 129.705C118.33 129.705 117.817 130.384 118.022 130.777C118.227 131.17 118.527 131.17 118.527 131.17C118.527 131.17 117.851 131.547 117.731 131.105C117.517 130.352 118.33 129.705 118.33 129.705Z" fill="#DAE1EF"/>
    <path d="M90.4165 78.3578C88.706 77.9158 87.2522 79.0044 86.4825 79.8394C85.7128 80.6743 86.1404 81.1654 87.1068 81.0017C88.0732 80.838 91.152 78.546 90.4165 78.3578Z" fill="#B33114"/>
    <g style="mix-blend-mode:multiply" opacity="0.5">
        <path d="M90.4172 78.355C89.8645 78.2494 89.2942 78.2637 88.7481 78.3969C88.202 78.53 87.694 78.7786 87.2615 79.1244C86.7911 79.5173 87.7147 80.6551 88.3561 80.4095C88.9975 80.164 90.956 78.535 90.4172 78.355Z" fill="#DE5634"/>
    </g>
    <g style="mix-blend-mode:soft-light" opacity="0.4">
        <path d="M86.9315 79.4043C86.9315 79.4043 84.9474 80.6649 85.1697 81.2542C85.3921 81.8436 87.7354 80.7549 87.7354 80.7549C87.7354 80.7549 86.5124 81.1314 86.2302 80.6158C85.948 80.1001 86.9315 79.4043 86.9315 79.4043Z" fill="#FFDF66"/>
    </g>
    <path d="M68.2813 128.026C67.3577 128.247 70.1115 130.056 70.77 130.154C71.4285 130.253 70.77 128.656 70.4621 128.378C69.78 128.08 69.0279 127.958 68.2813 128.026Z" fill="white"/>
    <path d="M93.7347 129.777L60.193 111.049C59.4047 112.8 58.8668 114.645 58.5938 116.533L60.8259 120.069L93.7774 138.388L126.678 120.069L128.662 116.533C128.601 114.652 128.196 112.796 127.464 111.049L93.7347 129.777Z" fill="url(#paint43_linear_410_298)"/>
    <path d="M60.7831 120.067L58.5938 116.531L93.7347 136.234L128.67 116.531L126.686 120.067L93.7347 138.387L60.7831 120.067Z" fill="url(#paint44_linear_410_298)"/>
    <g style="mix-blend-mode:multiply" opacity="0.5">
        <path d="M58.5938 116.531L60.8259 120.067L61.3219 120.362V121.418C61.3219 121.418 63.2034 122.335 66.8979 124.291C67.0177 124.357 69.2156 126.575 69.2156 126.575C69.2156 126.575 92.9564 140.31 93.8116 140.31C94.9149 140.31 118.468 126.272 118.468 126.272C118.468 126.272 120.306 124.799 120.486 124.692L126.301 121.778V120.313L126.738 120.067L128.722 116.531L93.7347 136.234L58.5938 116.531Z" fill="#DE5634"/>
    </g>
    <path style="mix-blend-mode:multiply" opacity="0.69" d="M93.7383 129.777V136.244L128.674 116.541C128.582 114.664 128.178 112.812 127.477 111.057L93.7383 129.777Z" fill="url(#paint45_linear_410_298)"/>
    <g style="mix-blend-mode:soft-light" opacity="0.4">
        <path d="M61.924 112.465C61.2826 112.465 61.8043 117.908 63.7542 119.152C66.8159 121.142 85.5195 131.668 86.7425 131.684C87.5977 131.684 87.5464 127.076 87.2898 126.716C86.8109 126.036 62.8819 112.465 61.924 112.465Z" fill="#FFDF66"/>
    </g>
    <g style="mix-blend-mode:soft-light" opacity="0.4">
        <path d="M104.112 124.186C103.71 124.588 103.762 129.663 104.454 129.515C110.092 126.896 115.523 123.886 120.703 120.511C125.672 117.008 126.374 112.399 125.253 112.506C125.228 112.473 104.942 123.36 104.112 124.186Z" fill="#FFDF66"/>
    </g>
    <path d="M76.6484 126.648C76.6484 126.648 92.7094 135.874 93.7528 135.874C94.7962 135.874 107.599 128.425 107.599 128.425C107.599 128.425 94.1462 136.61 93.7785 136.61C93.4107 136.61 76.6484 126.648 76.6484 126.648Z" fill="white"/>
    <g style="mix-blend-mode:multiply" opacity="0.5">
        <path d="M81.6435 76.9223C81.5214 77.5271 81.4499 78.1402 81.4297 78.7559C81.5067 79.0424 83.7559 82.2511 83.7559 82.2511V84.4121L93.8475 93.4571L103.828 84.7559L104.273 82.6358C104.273 82.6358 106.505 79.2552 106.505 78.7968C106.505 78.3384 104.444 76.112 104.444 76.112L93.7619 70.2266L81.6435 76.9223Z" fill="#DE5634"/>
    </g>
    <path d="M105.609 78.0041L105.558 77.9304L93.9695 62.7054L93.9096 62.6562L93.8497 62.7381L82.2701 77.9304L82.2188 78.0041L82.2701 78.0696L93.8497 93.2947V93.4584L93.9096 93.3765L93.978 93.4584V93.2947L105.558 78.0696L105.609 78.0041Z" fill="url(#paint46_linear_410_298)"/>
    <g style="mix-blend-mode:multiply" opacity="0.5">
        <path d="M84.6367 78.005L93.9073 65.8086L103.186 78.005L93.9073 90.1933L84.6367 78.005Z" fill="#DE5634"/>
    </g>
    <path d="M85.125 78.0072L93.9081 66.4492L102.7 78.0072L93.9081 89.557L85.125 78.0072Z" fill="url(#paint47_linear_410_298)"/>
    <g style="mix-blend-mode:soft-light" opacity="0.4">
        <path d="M93.7696 63.4729C92.7263 64.3979 82.8399 77.241 83.0623 77.5929C83.2846 77.9449 87.1246 77.9531 94.5393 77.8712C101.954 77.7894 105.016 77.7976 105.084 77.5929C105.153 77.3883 93.9578 63.2683 93.7696 63.4729Z" fill="#FFDF66"/>
    </g>
    <path style="mix-blend-mode:multiply" opacity="0.37" d="M82.7239 78.0458C82.5871 78.5942 93.3971 92.6979 94.0812 92.4769C94.7654 92.2559 105.43 78.3732 104.712 78.0049C103.993 77.6365 82.8522 77.5301 82.7239 78.0458Z" fill="url(#paint48_linear_410_298)"/>
    <g style="mix-blend-mode:multiply" opacity="0.5">
        <path d="M93.8309 114.335L81.473 120.548L83.8334 107.377L73.8359 98.0537L87.6563 96.1301L93.8309 84.1465L100.014 96.1301L113.826 98.0537L103.828 107.377L106.189 120.548L93.8309 114.335Z" fill="#DE5634"/>
    </g>
    <path d="M112.381 98.502L105.718 97.577L103.897 97.3151L99.5695 96.7175L93.8309 85.6016L88.101 96.7175L75.2812 98.502L84.5604 107.154L82.371 119.375L93.8309 113.604L105.299 119.375L103.11 107.154L112.381 98.502Z" fill="url(#paint49_linear_410_298)"/>
    <path style="mix-blend-mode:multiply" opacity="0.37" d="M75.2188 98.498L94.102 103.221L84.4893 107.15L75.2188 98.498Z" fill="url(#paint50_linear_410_298)"/>
    <path style="mix-blend-mode:multiply" opacity="0.37" d="M112.318 98.498L94.1016 103.221L103.039 107.15L112.318 98.498Z" fill="url(#paint51_linear_410_298)"/>
    <path style="mix-blend-mode:multiply" opacity="0.37" d="M93.7693 113.606L94.1028 103.227L82.3008 119.377L93.7693 113.606Z" fill="url(#paint52_linear_410_298)"/>
    <path style="mix-blend-mode:multiply" opacity="0.37" d="M105.229 119.377L94.1031 103.227L93.7695 113.606L105.229 119.377Z" fill="url(#paint53_linear_410_298)"/>
    <path style="mix-blend-mode:color-dodge" opacity="0.5" d="M93.7695 85.6016L94.1031 103.225L99.4995 96.7175L93.7695 85.6016Z" fill="url(#paint54_linear_410_298)"/>
    <path style="mix-blend-mode:color-dodge" opacity="0.5" d="M112.318 98.4973L94.1016 103.22L99.498 96.7129L112.318 98.4973Z" fill="url(#paint55_linear_410_298)"/>
    <path style="mix-blend-mode:color-dodge" opacity="0.5" d="M112.318 98.4973L94.1016 103.22L99.498 96.7129L112.318 98.4973Z" fill="url(#paint56_linear_410_298)"/>
    <path style="mix-blend-mode:color-dodge" opacity="0.5" d="M88.0299 96.7129L94.102 103.22L75.2188 98.4973L88.0299 96.7129Z" fill="url(#paint57_linear_410_298)"/>
    <path d="M99.5035 100.58C98.5542 101.399 99.3667 101.857 99.3667 101.857L104.276 100.588C104.276 100.588 101.701 98.804 99.5035 100.58Z" fill="white"/>
    <g style="mix-blend-mode:multiply" opacity="0.5">
        <path d="M82.3711 119.374C82.3711 119.374 91.0687 115.453 93.831 114.357L105.3 119.374L93.831 113.604L82.3711 119.374Z" fill="#DE5634"/>
    </g>
    <g style="mix-blend-mode:multiply" opacity="0.5">
        <path d="M75.2188 98.498L94.102 103.221L83.7282 111.759L75.2188 98.498Z" fill="#DE5634"/>
    </g>
    <g style="mix-blend-mode:multiply" opacity="0.5">
        <path d="M112.318 98.498L94.1016 103.221L104.133 112.896L112.318 98.498Z" fill="#DE5634"/>
    </g>
    <g style="mix-blend-mode:multiply" opacity="0.5">
        <path d="M82.3711 119.377L94.1047 103.227L105.3 119.377L93.831 117.641L82.3711 119.377Z" fill="#DE5634"/>
    </g>
    <g style="mix-blend-mode:soft-light" opacity="0.4">
        <path d="M89.5612 94.793C88.3468 98.0672 92.9821 100.294 93.615 99.295C94.2478 98.2964 93.8459 92.7466 93.0591 91.9935C92.2723 91.2405 90.0658 93.4669 89.5612 94.793Z" fill="#F7FFFF"/>
    </g>
    <g style="mix-blend-mode:soft-light" opacity="0.4">
        <path d="M85.7665 111.379C88.2381 111.699 89.615 109.006 90.1366 107.156C90.9748 104.176 81.2766 110.798 85.7665 111.379Z" fill="#F7FFFF"/>
    </g>
    <g style="mix-blend-mode:multiply" opacity="0.5">
        <path d="M93.7658 81.2523L90.4134 82.9385L91.0548 79.3614L88.3438 76.8321L92.0896 76.3164L93.7658 73.0586L95.4421 76.3164L99.1879 76.8321L96.4769 79.3614L97.1183 82.9385L93.7658 81.2523Z" fill="#DE5634"/>
    </g>
    <path d="M98.7639 76.9613L96.9679 76.7157L96.4719 76.642L95.3088 76.4783L93.7608 73.4824L92.2129 76.4783L88.7578 76.9613L91.255 79.2941L90.6649 82.5929L93.7608 81.0377L96.8567 82.5929L96.2581 79.2941L98.7639 76.9613Z" fill="url(#paint58_linear_410_298)"/>
    <path style="mix-blend-mode:multiply" opacity="0.37" d="M88.7422 76.9648L93.8307 78.2418L91.2394 79.2977L88.7422 76.9648Z" fill="url(#paint59_linear_410_298)"/>
    <path style="mix-blend-mode:multiply" opacity="0.37" d="M98.7456 76.9648L93.8281 78.2418L96.2398 79.2977L98.7456 76.9648Z" fill="url(#paint60_linear_410_298)"/>
    <path style="mix-blend-mode:multiply" opacity="0.37" d="M93.7482 81.0377L93.8338 78.2383L90.6523 82.593L93.7482 81.0377Z" fill="url(#paint61_linear_410_298)"/>
    <path style="mix-blend-mode:multiply" opacity="0.37" d="M96.8334 82.593L93.8316 78.2383L93.7461 81.0377L96.8334 82.593Z" fill="url(#paint62_linear_410_298)"/>
    <path style="mix-blend-mode:color-dodge" opacity="0.5" d="M93.7461 73.4824L93.8316 78.2382L95.294 76.4783L93.7461 73.4824Z" fill="url(#paint63_linear_410_298)"/>
    <path style="mix-blend-mode:color-dodge" opacity="0.5" d="M98.7456 76.9634L93.8281 78.2404L95.2906 76.4805L98.7456 76.9634Z" fill="url(#paint64_linear_410_298)"/>
    <path style="mix-blend-mode:color-dodge" opacity="0.5" d="M98.7456 76.9634L93.8281 78.2404L95.2906 76.4805L98.7456 76.9634Z" fill="url(#paint65_linear_410_298)"/>
    <path style="mix-blend-mode:color-dodge" opacity="0.5" d="M92.1973 76.4805L93.8307 78.2404L88.7422 76.9634L92.1973 76.4805Z" fill="url(#paint66_linear_410_298)"/>
    <path d="M95.2898 77.5307C95.0332 77.7353 95.2898 77.8745 95.2898 77.8745L96.6154 77.5307C96.426 77.3893 96.1928 77.3125 95.9526 77.3125C95.7124 77.3125 95.4792 77.3893 95.2898 77.5307Z" fill="white"/>
    <g style="mix-blend-mode:multiply" opacity="0.5">
        <path d="M90.668 82.5963C90.668 82.5963 93.0198 81.5403 93.7639 81.2457L96.8512 82.5963L93.7639 81.041L90.668 82.5963Z" fill="#DE5634"/>
    </g>
    <g style="mix-blend-mode:multiply" opacity="0.5">
        <path d="M88.7422 76.9648L93.8307 78.2418L91.0427 80.5419L88.7422 76.9648Z" fill="#DE5634"/>
    </g>
    <g style="mix-blend-mode:multiply" opacity="0.5">
        <path d="M98.7456 76.9648L93.8281 78.2418L96.5392 80.853L98.7456 76.9648Z" fill="#DE5634"/>
    </g>
    <g style="mix-blend-mode:multiply" opacity="0.5">
        <path d="M90.668 82.593L93.8323 78.2383L96.8597 82.593L93.7639 82.1264L90.668 82.593Z" fill="#DE5634"/>
    </g>
    <g style="mix-blend-mode:soft-light" opacity="0.4">
        <path d="M92.6084 75.9662C92.2834 76.842 93.532 77.4477 93.7031 77.1776C93.8449 76.5225 93.7946 75.8426 93.5577 75.2131C93.3268 75.0085 92.7452 75.6142 92.6084 75.9662Z" fill="#F7FFFF"/>
    </g>
    <g style="mix-blend-mode:soft-light" opacity="0.4">
        <path d="M91.6163 80.436C92.2748 80.526 92.6511 79.7975 92.7879 79.2982C92.9932 78.496 90.3762 80.2804 91.6163 80.436Z" fill="#F7FFFF"/>
    </g>
    <path d="M73.1953 1.42578L80.3773 12.6063C81.0322 13.6259 82.1608 14.2424 83.3727 14.2424H104.316C105.528 14.2424 106.656 13.6259 107.311 12.6063L114.493 1.42578H73.1953Z" fill="url(#paint67_linear_410_298)"/>
    <path d="M90.5855 4.15685H92.1904L89.17 11.1348H87.575L84.5645 4.15685H86.309L88.4323 9.14108L90.5855 4.15685ZM92.773 11.1348V4.15685H94.3879V11.1348H92.773ZM99.0643 4.15685C100.928 4.15685 102.095 5.12379 102.095 6.68884C102.095 8.24392 100.928 9.21086 99.0643 9.21086H97.6588V11.1348H96.0439V4.15685H99.0643ZM98.9746 7.89502C99.9615 7.89502 100.46 7.44644 100.46 6.68884C100.46 5.92127 99.9615 5.47269 98.9746 5.47269H97.6588V7.89502H98.9746Z" fill="white"/>
    <path d="M24.399 14.2364H26.2958L27.7569 21.3752L29.218 14.2364H31.1021L28.9745 23.1055H26.5522L24.399 14.2364ZM31.9467 23.1055V14.2364H33.7666V23.1055H31.9467ZM35.1508 23.1055V14.2364H36.9708V23.1055H35.1508ZM38.3549 23.1055V14.2364H40.1749V23.1055H38.3549Z" fill="white"/>
    <g style="mix-blend-mode:overlay">
        <g style="mix-blend-mode:color-dodge">
            <path fill-rule="evenodd" clip-rule="evenodd" d="M14.0977 8.54805C14.0977 4.61561 17.2855 1.42773 21.218 1.42773H165.048C168.981 1.42773 172.169 4.6156 172.169 8.54804V85.8477C172.169 88.0215 171.105 90.0577 169.32 91.2991V91.2991C167.536 92.5405 166.472 94.5767 166.472 96.7505V113.215V115.354V131.818C166.472 133.992 167.536 136.028 169.32 137.27V137.27C171.105 138.511 172.169 140.547 172.169 142.721V216.461C172.169 220.394 168.981 223.582 165.048 223.582H21.218C17.2855 223.582 14.0977 220.394 14.0977 216.461V143.963C14.0977 141.632 15.2384 139.449 17.1518 138.118L18.1583 137.418C20.0717 136.086 21.2124 133.903 21.2124 131.572L21.2124 113.22L21.2124 97.0056C21.2124 94.6748 20.0716 92.4916 18.1583 91.1605L17.1518 90.4604C15.2384 89.1293 14.0977 86.9461 14.0977 84.6153V8.54805Z" fill="url(#paint68_linear_410_298)"/>
        </g>
    </g>
    <defs>
        <filter id="filter0_b_410_298" x="-3.70814" y="-13.5285" width="63.3694" height="252.76" filterUnits="userSpaceOnUse" colorInterpolationFilters="sRGB">
            <feFlood floodOpacity="0" result="BackgroundImageFix"/>
            <feGaussianBlur in="BackgroundImageFix" stdDeviation="9.25641"/>
            <feComposite in2="SourceAlpha" operator="in" result="effect1_backgroundBlur_410_298"/>
            <feBlend mode="normal" in="SourceGraphic" in2="effect1_backgroundBlur_410_298" result="shape"/>
        </filter>
        <filter id="filter1_b_410_298" x="126.597" y="-13.5265" width="63.3694" height="252.76" filterUnits="userSpaceOnUse" colorInterpolationFilters="sRGB">
            <feFlood floodOpacity="0" result="BackgroundImageFix"/>
            <feGaussianBlur in="BackgroundImageFix" stdDeviation="9.25641"/>
            <feComposite in2="SourceAlpha" operator="in" result="effect1_backgroundBlur_410_298"/>
            <feBlend mode="normal" in="SourceGraphic" in2="effect1_backgroundBlur_410_298" result="shape"/>
        </filter>
        <filter id="filter2_i_410_298" x="12.6719" y="0" width="160.918" height="227.85" filterUnits="userSpaceOnUse" colorInterpolationFilters="sRGB">
            <feFlood floodOpacity="0" result="BackgroundImageFix"/>
            <feBlend mode="normal" in="SourceGraphic" in2="BackgroundImageFix" result="shape"/>
            <feColorMatrix in="SourceAlpha" type="matrix" values="0 0 0 0 0 0 0 0 0 0 0 0 0 0 0 0 0 0 127 0" result="hardAlpha"/>
            <feOffset dy="3.56016"/>
            <feGaussianBlur stdDeviation="1.42406"/>
            <feComposite in2="hardAlpha" operator="arithmetic" k2="-1" k3="1"/>
            <feColorMatrix type="matrix" values="0 0 0 0 0 0 0 0 0 0 0 0 0 0 0 0 0 0 0.25 0"/>
            <feBlend mode="normal" in2="shape" result="effect1_innerShadow_410_298"/>
        </filter>
        <filter id="filter3_f_410_298" x="0.566364" y="22.0742" width="185.84" height="180.856" filterUnits="userSpaceOnUse" colorInterpolationFilters="sRGB">
            <feFlood floodOpacity="0" result="BackgroundImageFix"/>
            <feBlend mode="normal" in="SourceGraphic" in2="BackgroundImageFix" result="shape"/>
            <feGaussianBlur stdDeviation="26.7012" result="effect1_foregroundBlur_410_298"/>
        </filter>
        <filter id="filter4_f_410_298" x="140.132" y="5.37266" width="26.7" height="26.698" filterUnits="userSpaceOnUse" colorInterpolationFilters="sRGB">
            <feFlood floodOpacity="0" result="BackgroundImageFix"/>
            <feBlend mode="normal" in="SourceGraphic" in2="BackgroundImageFix" result="shape"/>
            <feGaussianBlur stdDeviation="0.777539" result="effect1_foregroundBlur_410_298"/>
        </filter>
        <filter id="filter5_f_410_298" x="136.625" y="1.85703" width="33.7195" height="33.7195" filterUnits="userSpaceOnUse" colorInterpolationFilters="sRGB">
            <feFlood floodOpacity="0" result="BackgroundImageFix"/>
            <feBlend mode="normal" in="SourceGraphic" in2="BackgroundImageFix" result="shape"/>
            <feGaussianBlur stdDeviation="0.777539" result="effect1_foregroundBlur_410_298"/>
        </filter>
        <filter id="filter6_f_410_298" x="136.625" y="1.85703" width="33.7195" height="33.7195" filterUnits="userSpaceOnUse" colorInterpolationFilters="sRGB">
            <feFlood floodOpacity="0" result="BackgroundImageFix"/>
            <feBlend mode="normal" in="SourceGraphic" in2="BackgroundImageFix" result="shape"/>
            <feGaussianBlur stdDeviation="0.777539" result="effect1_foregroundBlur_410_298"/>
        </filter>
        <filter id="filter7_f_410_298" x="136.433" y="1.83359" width="26.7" height="26.698" filterUnits="userSpaceOnUse" colorInterpolationFilters="sRGB">
            <feFlood floodOpacity="0" result="BackgroundImageFix"/>
            <feBlend mode="normal" in="SourceGraphic" in2="BackgroundImageFix" result="shape"/>
            <feGaussianBlur stdDeviation="0.777539" result="effect1_foregroundBlur_410_298"/>
        </filter>
        <filter id="filter8_f_410_298" x="142.773" y="10.2438" width="26.5672" height="26.5691" filterUnits="userSpaceOnUse" colorInterpolationFilters="sRGB">
            <feFlood floodOpacity="0" result="BackgroundImageFix"/>
            <feBlend mode="normal" in="SourceGraphic" in2="BackgroundImageFix" result="shape"/>
            <feGaussianBlur stdDeviation="0.777539" result="effect1_foregroundBlur_410_298"/>
        </filter>
        <linearGradient id="paint0_linear_410_298" x1="9.82048" y1="211.161" x2="96.3264" y2="0.64228" gradientUnits="userSpaceOnUse">
            <stop stop-color="#060913"/>
            <stop offset="0.136764" stop-color="#070A16"/>
            <stop offset="0.197268" stop-color="#0D142E"/>
            <stop offset="0.309253" stop-color="#070B17"/>
            <stop offset="0.490764" stop-color="#080C1A"/>
            <stop offset="0.661458" stop-color="#0B1125"/>
            <stop offset="1" stop-color="#101010"/>
        </linearGradient>
        <linearGradient id="paint1_linear_410_298" x1="31.5375" y1="230.264" x2="78.6021" y2="217.115" gradientUnits="userSpaceOnUse">
            <stop stop-color="#EECCA2"/>
            <stop offset="0.260417" stop-color="#624A2C"/>
            <stop offset="0.6875" stop-color="#FFDAAB"/>
            <stop offset="1" stop-color="#C68C43"/>
        </linearGradient>
        <linearGradient id="paint2_linear_410_298" x1="176.437" y1="14.5442" x2="89.9314" y2="225.063" gradientUnits="userSpaceOnUse">
            <stop stop-color="#060913"/>
            <stop offset="0.136764" stop-color="#070A16"/>
            <stop offset="0.197268" stop-color="#0D142E"/>
            <stop offset="0.309253" stop-color="#070B17"/>
            <stop offset="0.490764" stop-color="#080C1A"/>
            <stop offset="0.661458" stop-color="#0B1125"/>
            <stop offset="1" stop-color="#101010"/>
        </linearGradient>
        <linearGradient id="paint3_linear_410_298" x1="154.72" y1="-4.55942" x2="107.656" y2="8.59028" gradientUnits="userSpaceOnUse">
            <stop stop-color="#EECCA2"/>
            <stop offset="0.260417" stop-color="#624A2C"/>
            <stop offset="0.6875" stop-color="#FFDAAB"/>
            <stop offset="1" stop-color="#C68C43"/>
        </linearGradient>
        <linearGradient id="paint4_linear_410_298" x1="131.937" y1="-18.1568" x2="1.63538" y2="248.855" gradientUnits="userSpaceOnUse">
            <stop stop-color="#C68C43"/>
            <stop offset="0.119792" stop-color="#F5BA6E"/>
            <stop offset="0.286458" stop-color="#C68C43"/>
            <stop offset="0.5625" stop-color="#C68C43"/>
            <stop offset="0.770833" stop-color="#EEB873"/>
            <stop offset="1" stop-color="#C68C43"/>
        </linearGradient>
        <linearGradient id="paint5_linear_410_298" x1="93.8898" y1="110.237" x2="93.8898" y2="-33.0086" gradientUnits="userSpaceOnUse">
            <stop stop-color="#CA6B34"/>
            <stop offset="0.67" stop-color="#FFA933"/>
            <stop offset="1" stop-color="#FFBD2B"/>
        </linearGradient>
        <linearGradient id="paint6_linear_410_298" x1="58.1938" y1="34.1445" x2="58.1938" y2="65.0351" gradientUnits="userSpaceOnUse">
            <stop stop-color="#C10065"/>
            <stop offset="1" stop-color="white"/>
        </linearGradient>
        <linearGradient id="paint7_linear_410_298" x1="130.107" y1="34.1445" x2="130.107" y2="65.0351" gradientUnits="userSpaceOnUse">
            <stop stop-color="#C10065"/>
            <stop offset="1" stop-color="white"/>
        </linearGradient>
        <linearGradient id="paint8_linear_410_298" x1="71.9514" y1="50.7227" x2="71.9514" y2="107.983" gradientUnits="userSpaceOnUse">
            <stop stop-color="#C10065"/>
            <stop offset="1" stop-color="white"/>
        </linearGradient>
        <linearGradient id="paint9_linear_410_298" x1="115.491" y1="50.7227" x2="115.491" y2="107.983" gradientUnits="userSpaceOnUse">
            <stop stop-color="#C10065"/>
            <stop offset="1" stop-color="white"/>
        </linearGradient>
        <linearGradient id="paint10_linear_410_298" x1="99.6675" y1="-3.04297" x2="107.425" y2="77.9998" gradientUnits="userSpaceOnUse">
            <stop stop-color="#BFD7FF"/>
            <stop offset="1"/>
        </linearGradient>
        <linearGradient id="paint11_linear_410_298" x1="94.7852" y1="39.0414" x2="165.43" y2="39.0414" gradientUnits="userSpaceOnUse">
            <stop stop-color="#BFD7FF"/>
            <stop offset="1"/>
        </linearGradient>
        <linearGradient id="paint12_linear_410_298" x1="124.249" y1="-5.30534" x2="132.064" y2="75.6414" gradientUnits="userSpaceOnUse">
            <stop stop-color="#BFD7FF"/>
            <stop offset="1"/>
        </linearGradient>
        <linearGradient id="paint13_linear_410_298" x1="53.1867" y1="1.54047" x2="60.9997" y2="82.4878" gradientUnits="userSpaceOnUse">
            <stop stop-color="#BFD7FF"/>
            <stop offset="1"/>
        </linearGradient>
        <linearGradient id="paint14_linear_410_298" x1="56.875" y1="134.067" x2="70.9006" y2="134.067" gradientUnits="userSpaceOnUse">
            <stop stop-color="#DE3C14"/>
            <stop offset="0.07" stop-color="#C72E10"/>
            <stop offset="0.19" stop-color="#AB1C0C"/>
            <stop offset="0.3" stop-color="#971009"/>
            <stop offset="0.41" stop-color="#8B0807"/>
            <stop offset="0.52" stop-color="#870606"/>
            <stop offset="0.62" stop-color="#8C0707"/>
            <stop offset="0.73" stop-color="#9A0808"/>
            <stop offset="0.85" stop-color="#B20B0B"/>
            <stop offset="0.97" stop-color="#D30E0E"/>
            <stop offset="1" stop-color="#DB0F0F"/>
        </linearGradient>
        <linearGradient id="paint15_linear_410_298" x1="56.875" y1="133.454" x2="70.9006" y2="133.454" gradientUnits="userSpaceOnUse">
            <stop stop-color="#B41E2D"/>
            <stop offset="1" stop-color="#E54136"/>
        </linearGradient>
        <linearGradient id="paint16_linear_410_298" x1="116.066" y1="134.067" x2="130.092" y2="134.067" gradientUnits="userSpaceOnUse">
            <stop stop-color="#DE3C14"/>
            <stop offset="0.07" stop-color="#C72E10"/>
            <stop offset="0.19" stop-color="#AB1C0C"/>
            <stop offset="0.3" stop-color="#971009"/>
            <stop offset="0.41" stop-color="#8B0807"/>
            <stop offset="0.52" stop-color="#870606"/>
            <stop offset="0.62" stop-color="#8C0707"/>
            <stop offset="0.73" stop-color="#9A0808"/>
            <stop offset="0.85" stop-color="#B20B0B"/>
            <stop offset="0.97" stop-color="#D30E0E"/>
            <stop offset="1" stop-color="#DB0F0F"/>
        </linearGradient>
        <linearGradient id="paint17_linear_410_298" x1="116.069" y1="133.453" x2="130.095" y2="133.453" gradientUnits="userSpaceOnUse">
            <stop stop-color="#B41E2D"/>
            <stop offset="1" stop-color="#E54136"/>
        </linearGradient>
        <linearGradient id="paint18_linear_410_298" x1="68.6382" y1="149.538" x2="90.0016" y2="149.538" gradientUnits="userSpaceOnUse">
            <stop stop-color="#DE3C14"/>
            <stop offset="0.07" stop-color="#C72E10"/>
            <stop offset="0.19" stop-color="#AB1C0C"/>
            <stop offset="0.3" stop-color="#971009"/>
            <stop offset="0.41" stop-color="#8B0807"/>
            <stop offset="0.52" stop-color="#870606"/>
            <stop offset="0.62" stop-color="#8C0707"/>
            <stop offset="0.73" stop-color="#9A0808"/>
            <stop offset="0.85" stop-color="#B20B0B"/>
            <stop offset="0.97" stop-color="#D30E0E"/>
            <stop offset="1" stop-color="#DB0F0F"/>
        </linearGradient>
        <linearGradient id="paint19_linear_410_298" x1="97.2695" y1="149.538" x2="118.633" y2="149.538" gradientUnits="userSpaceOnUse">
            <stop stop-color="#DE3C14"/>
            <stop offset="0.07" stop-color="#C72E10"/>
            <stop offset="0.19" stop-color="#AB1C0C"/>
            <stop offset="0.3" stop-color="#971009"/>
            <stop offset="0.41" stop-color="#8B0807"/>
            <stop offset="0.52" stop-color="#870606"/>
            <stop offset="0.62" stop-color="#8C0707"/>
            <stop offset="0.73" stop-color="#9A0808"/>
            <stop offset="0.85" stop-color="#B20B0B"/>
            <stop offset="0.97" stop-color="#D30E0E"/>
            <stop offset="1" stop-color="#DB0F0F"/>
        </linearGradient>
        <linearGradient id="paint20_linear_410_298" x1="68.6382" y1="149.535" x2="90.0016" y2="149.535" gradientUnits="userSpaceOnUse">
            <stop stop-color="#B41E2D"/>
            <stop offset="1" stop-color="#E54136"/>
        </linearGradient>
        <linearGradient id="paint21_linear_410_298" x1="97.2695" y1="149.534" x2="118.633" y2="149.534" gradientUnits="userSpaceOnUse">
            <stop stop-color="#B41E2D"/>
            <stop offset="1" stop-color="#E54136"/>
        </linearGradient>
        <linearGradient id="paint22_linear_410_298" x1="125.796" y1="114.332" x2="125.79" y2="98.9499" gradientUnits="userSpaceOnUse">
            <stop stop-color="#CA6B34"/>
            <stop offset="0.67" stop-color="#FFA933"/>
            <stop offset="1" stop-color="#FFBD2B"/>
        </linearGradient>
        <linearGradient id="paint23_linear_410_298" x1="134.891" y1="102.79" x2="144.974" y2="102.79" gradientUnits="userSpaceOnUse">
            <stop stop-color="#DE3C14"/>
            <stop offset="0.07" stop-color="#C72E10"/>
            <stop offset="0.19" stop-color="#AB1C0C"/>
            <stop offset="0.3" stop-color="#971009"/>
            <stop offset="0.41" stop-color="#8B0807"/>
            <stop offset="0.52" stop-color="#870606"/>
            <stop offset="0.62" stop-color="#8C0707"/>
            <stop offset="0.73" stop-color="#9A0808"/>
            <stop offset="0.85" stop-color="#B20B0B"/>
            <stop offset="0.97" stop-color="#D30E0E"/>
            <stop offset="1" stop-color="#DB0F0F"/>
        </linearGradient>
        <linearGradient id="paint24_linear_410_298" x1="72.8639" y1="132.235" x2="72.7903" y2="116.876" gradientUnits="userSpaceOnUse">
            <stop stop-color="#CA6B34"/>
            <stop offset="0.67" stop-color="#FFA933"/>
            <stop offset="1" stop-color="#FFBD2B"/>
        </linearGradient>
        <linearGradient id="paint25_linear_410_298" x1="42.1953" y1="102.819" x2="52.2783" y2="102.819" gradientUnits="userSpaceOnUse">
            <stop stop-color="#DE3C14"/>
            <stop offset="0.07" stop-color="#C72E10"/>
            <stop offset="0.19" stop-color="#AB1C0C"/>
            <stop offset="0.3" stop-color="#971009"/>
            <stop offset="0.41" stop-color="#8B0807"/>
            <stop offset="0.52" stop-color="#870606"/>
            <stop offset="0.62" stop-color="#8C0707"/>
            <stop offset="0.73" stop-color="#9A0808"/>
            <stop offset="0.85" stop-color="#B20B0B"/>
            <stop offset="0.97" stop-color="#D30E0E"/>
            <stop offset="1" stop-color="#DB0F0F"/>
        </linearGradient>
        <linearGradient id="paint26_linear_410_298" x1="130.995" y1="104.628" x2="130.996" y2="89.2491" gradientUnits="userSpaceOnUse">
            <stop stop-color="#CA6B34"/>
            <stop offset="0.67" stop-color="#FFA933"/>
            <stop offset="1" stop-color="#FFBD2B"/>
        </linearGradient>
        <linearGradient id="paint27_linear_410_298" x1="140.371" y1="93.0964" x2="150.463" y2="93.0964" gradientUnits="userSpaceOnUse">
            <stop stop-color="#DE3C14"/>
            <stop offset="0.07" stop-color="#C72E10"/>
            <stop offset="0.19" stop-color="#AB1C0C"/>
            <stop offset="0.3" stop-color="#971009"/>
            <stop offset="0.41" stop-color="#8B0807"/>
            <stop offset="0.52" stop-color="#870606"/>
            <stop offset="0.62" stop-color="#8C0707"/>
            <stop offset="0.73" stop-color="#9A0808"/>
            <stop offset="0.85" stop-color="#B20B0B"/>
            <stop offset="0.97" stop-color="#D30E0E"/>
            <stop offset="1" stop-color="#DB0F0F"/>
        </linearGradient>
        <linearGradient id="paint28_linear_410_298" x1="67.3215" y1="122.571" x2="67.2411" y2="107.216" gradientUnits="userSpaceOnUse">
            <stop stop-color="#CA6B34"/>
            <stop offset="0.67" stop-color="#FFA933"/>
            <stop offset="1" stop-color="#FFBD2B"/>
        </linearGradient>
        <linearGradient id="paint29_linear_410_298" x1="36.6406" y1="93.1315" x2="46.7322" y2="93.1315" gradientUnits="userSpaceOnUse">
            <stop stop-color="#DE3C14"/>
            <stop offset="0.07" stop-color="#C72E10"/>
            <stop offset="0.19" stop-color="#AB1C0C"/>
            <stop offset="0.3" stop-color="#971009"/>
            <stop offset="0.41" stop-color="#8B0807"/>
            <stop offset="0.52" stop-color="#870606"/>
            <stop offset="0.62" stop-color="#8C0707"/>
            <stop offset="0.73" stop-color="#9A0808"/>
            <stop offset="0.85" stop-color="#B20B0B"/>
            <stop offset="0.97" stop-color="#D30E0E"/>
            <stop offset="1" stop-color="#DB0F0F"/>
        </linearGradient>
        <linearGradient id="paint30_linear_410_298" x1="75.0267" y1="79.5335" x2="75.0267" y2="95.4625" gradientUnits="userSpaceOnUse">
            <stop stop-color="#C10065"/>
            <stop offset="1" stop-color="white"/>
        </linearGradient>
        <linearGradient id="paint31_linear_410_298" x1="112.244" y1="79.5335" x2="112.244" y2="95.4625" gradientUnits="userSpaceOnUse">
            <stop stop-color="#C10065"/>
            <stop offset="1" stop-color="white"/>
        </linearGradient>
        <linearGradient id="paint32_linear_410_298" x1="53.765" y1="127.005" x2="53.765" y2="110.02" gradientUnits="userSpaceOnUse">
            <stop stop-color="#CA6B34"/>
            <stop offset="0.67" stop-color="#FFA933"/>
            <stop offset="1" stop-color="#FFBD2B"/>
        </linearGradient>
        <linearGradient id="paint33_linear_410_298" x1="55.8237" y1="117.857" x2="55.8237" y2="125.789" gradientUnits="userSpaceOnUse">
            <stop stop-color="#C10065"/>
            <stop offset="1" stop-color="white"/>
        </linearGradient>
        <linearGradient id="paint34_linear_410_298" x1="133.515" y1="127.005" x2="133.515" y2="110.02" gradientUnits="userSpaceOnUse">
            <stop stop-color="#CA6B34"/>
            <stop offset="0.67" stop-color="#FFA933"/>
            <stop offset="1" stop-color="#FFBD2B"/>
        </linearGradient>
        <linearGradient id="paint35_linear_410_298" x1="131.443" y1="117.857" x2="131.443" y2="125.789" gradientUnits="userSpaceOnUse">
            <stop stop-color="#C10065"/>
            <stop offset="1" stop-color="white"/>
        </linearGradient>
        <linearGradient id="paint36_linear_410_298" x1="93.7593" y1="150.322" x2="93.7593" y2="82.7995" gradientUnits="userSpaceOnUse">
            <stop stop-color="#CA6B34"/>
            <stop offset="0.67" stop-color="#FFA933"/>
            <stop offset="1" stop-color="#FFBD2B"/>
        </linearGradient>
        <linearGradient id="paint37_linear_410_298" x1="93.7628" y1="70.9234" x2="93.7628" y2="138.798" gradientUnits="userSpaceOnUse">
            <stop stop-color="#CA6B34"/>
            <stop offset="0.17" stop-color="#CC6E34"/>
            <stop offset="0.29" stop-color="#D27733"/>
            <stop offset="0.39" stop-color="#DB8631"/>
            <stop offset="0.48" stop-color="#E99B2F"/>
            <stop offset="0.57" stop-color="#FBB72C"/>
            <stop offset="0.59" stop-color="#FFBD2B"/>
            <stop offset="1" stop-color="#FFA933"/>
        </linearGradient>
        <linearGradient id="paint38_linear_410_298" x1="93.7614" y1="140.313" x2="93.7614" y2="78.8887" gradientUnits="userSpaceOnUse">
            <stop stop-color="#B75014"/>
            <stop offset="0.38" stop-color="#E8692A"/>
            <stop offset="1" stop-color="#F58E2F"/>
        </linearGradient>
        <linearGradient id="paint39_linear_410_298" x1="64.1792" y1="111.764" x2="64.1792" y2="130.288" gradientUnits="userSpaceOnUse">
            <stop stop-color="#C10065"/>
            <stop offset="1" stop-color="white"/>
        </linearGradient>
        <linearGradient id="paint40_linear_410_298" x1="123.217" y1="111.764" x2="123.217" y2="130.288" gradientUnits="userSpaceOnUse">
            <stop stop-color="#C10065"/>
            <stop offset="1" stop-color="white"/>
        </linearGradient>
        <linearGradient id="paint41_linear_410_298" x1="78.1543" y1="128.689" x2="78.1543" y2="147.835" gradientUnits="userSpaceOnUse">
            <stop stop-color="#C10065"/>
            <stop offset="1" stop-color="white"/>
        </linearGradient>
        <linearGradient id="paint42_linear_410_298" x1="109.371" y1="128.699" x2="109.371" y2="148.213" gradientUnits="userSpaceOnUse">
            <stop stop-color="#C10065"/>
            <stop offset="1" stop-color="white"/>
        </linearGradient>
        <linearGradient id="paint43_linear_410_298" x1="93.6321" y1="83.4472" x2="93.6321" y2="132.388" gradientUnits="userSpaceOnUse">
            <stop stop-color="#CA6B34"/>
            <stop offset="0.67" stop-color="#FFA933"/>
            <stop offset="1" stop-color="#FFBD2B"/>
        </linearGradient>
        <linearGradient id="paint44_linear_410_298" x1="93.632" y1="138.387" x2="93.632" y2="116.531" gradientUnits="userSpaceOnUse">
            <stop stop-color="#F1CB3C"/>
            <stop offset="1" stop-color="#FFC14F"/>
        </linearGradient>
        <linearGradient id="paint45_linear_410_298" x1="111.21" y1="111.048" x2="111.21" y2="136.235" gradientUnits="userSpaceOnUse">
            <stop stop-color="#C10065"/>
            <stop offset="1" stop-color="white"/>
        </linearGradient>
        <linearGradient id="paint46_linear_410_298" x1="93.9096" y1="92.7872" x2="93.9096" y2="65.7422" gradientUnits="userSpaceOnUse">
            <stop stop-color="#CA6B34"/>
            <stop offset="0.67" stop-color="#FFA933"/>
            <stop offset="1" stop-color="#FFBD2B"/>
        </linearGradient>
        <linearGradient id="paint47_linear_410_298" x1="85.125" y1="78.0072" x2="102.7" y2="78.0072" gradientUnits="userSpaceOnUse">
            <stop stop-color="#DE3C14"/>
            <stop offset="0.07" stop-color="#C72E10"/>
            <stop offset="0.19" stop-color="#AB1C0C"/>
            <stop offset="0.3" stop-color="#971009"/>
            <stop offset="0.41" stop-color="#8B0807"/>
            <stop offset="0.52" stop-color="#870606"/>
            <stop offset="0.62" stop-color="#8C0707"/>
            <stop offset="0.73" stop-color="#9A0808"/>
            <stop offset="0.85" stop-color="#B20B0B"/>
            <stop offset="0.97" stop-color="#D30E0E"/>
            <stop offset="1" stop-color="#DB0F0F"/>
        </linearGradient>
        <linearGradient id="paint48_linear_410_298" x1="93.7392" y1="77.6938" x2="93.7392" y2="92.4769" gradientUnits="userSpaceOnUse">
            <stop stop-color="#C10065"/>
            <stop offset="1" stop-color="white"/>
        </linearGradient>
        <linearGradient id="paint49_linear_410_298" x1="93.8309" y1="120.005" x2="93.8309" y2="79.8717" gradientUnits="userSpaceOnUse">
            <stop stop-color="#CA6B34"/>
            <stop offset="0.67" stop-color="#FFA933"/>
            <stop offset="1" stop-color="#FFBD2B"/>
        </linearGradient>
        <linearGradient id="paint50_linear_410_298" x1="84.6604" y1="98.498" x2="84.6604" y2="107.15" gradientUnits="userSpaceOnUse">
            <stop stop-color="#C10065"/>
            <stop offset="1" stop-color="white"/>
        </linearGradient>
        <linearGradient id="paint51_linear_410_298" x1="103.21" y1="98.498" x2="103.21" y2="107.15" gradientUnits="userSpaceOnUse">
            <stop stop-color="#C10065"/>
            <stop offset="1" stop-color="white"/>
        </linearGradient>
        <linearGradient id="paint52_linear_410_298" x1="88.2018" y1="103.227" x2="88.2018" y2="119.377" gradientUnits="userSpaceOnUse">
            <stop stop-color="#C10065"/>
            <stop offset="1" stop-color="white"/>
        </linearGradient>
        <linearGradient id="paint53_linear_410_298" x1="99.4995" y1="103.227" x2="99.4995" y2="119.377" gradientUnits="userSpaceOnUse">
            <stop stop-color="#C10065"/>
            <stop offset="1" stop-color="white"/>
        </linearGradient>
        <linearGradient id="paint54_linear_410_298" x1="95.4629" y1="88.2537" x2="97.8156" y2="110.794" gradientUnits="userSpaceOnUse">
            <stop stop-color="#BFD7FF"/>
            <stop offset="1"/>
        </linearGradient>
        <linearGradient id="paint55_linear_410_298" x1="94.1016" y1="99.9707" x2="112.318" y2="99.9707" gradientUnits="userSpaceOnUse">
            <stop stop-color="#BFD7FF"/>
            <stop offset="1"/>
        </linearGradient>
        <linearGradient id="paint56_linear_410_298" x1="101.696" y1="87.5942" x2="104.049" y2="110.135" gradientUnits="userSpaceOnUse">
            <stop stop-color="#BFD7FF"/>
            <stop offset="1"/>
        </linearGradient>
        <linearGradient id="paint57_linear_410_298" x1="83.3604" y1="89.5096" x2="85.7131" y2="112.05" gradientUnits="userSpaceOnUse">
            <stop stop-color="#BFD7FF"/>
            <stop offset="1"/>
        </linearGradient>
        <linearGradient id="paint58_linear_410_298" x1="93.7608" y1="82.7648" x2="93.7608" y2="71.9435" gradientUnits="userSpaceOnUse">
            <stop stop-color="#CA6B34"/>
            <stop offset="0.67" stop-color="#FFA933"/>
            <stop offset="1" stop-color="#FFBD2B"/>
        </linearGradient>
        <linearGradient id="paint59_linear_410_298" x1="91.2907" y1="76.9648" x2="91.2907" y2="79.2977" gradientUnits="userSpaceOnUse">
            <stop stop-color="#C10065"/>
            <stop offset="1" stop-color="white"/>
        </linearGradient>
        <linearGradient id="paint60_linear_410_298" x1="96.2912" y1="76.9648" x2="96.2912" y2="79.2977" gradientUnits="userSpaceOnUse">
            <stop stop-color="#C10065"/>
            <stop offset="1" stop-color="white"/>
        </linearGradient>
        <linearGradient id="paint61_linear_410_298" x1="92.243" y1="78.2383" x2="92.243" y2="82.593" gradientUnits="userSpaceOnUse">
            <stop stop-color="#C10065"/>
            <stop offset="1" stop-color="white"/>
        </linearGradient>
        <linearGradient id="paint62_linear_410_298" x1="95.294" y1="78.2383" x2="95.294" y2="82.593" gradientUnits="userSpaceOnUse">
            <stop stop-color="#C10065"/>
            <stop offset="1" stop-color="white"/>
        </linearGradient>
        <linearGradient id="paint63_linear_410_298" x1="94.1994" y1="74.2027" x2="94.8346" y2="80.2824" gradientUnits="userSpaceOnUse">
            <stop stop-color="#BFD7FF"/>
            <stop offset="1"/>
        </linearGradient>
        <linearGradient id="paint64_linear_410_298" x1="93.8281" y1="77.3645" x2="98.7456" y2="77.3645" gradientUnits="userSpaceOnUse">
            <stop stop-color="#BFD7FF"/>
            <stop offset="1"/>
        </linearGradient>
        <linearGradient id="paint65_linear_410_298" x1="95.8806" y1="74.0248" x2="96.5159" y2="80.1045" gradientUnits="userSpaceOnUse">
            <stop stop-color="#BFD7FF"/>
            <stop offset="1"/>
        </linearGradient>
        <linearGradient id="paint66_linear_410_298" x1="90.9401" y1="74.5405" x2="91.5753" y2="80.6202" gradientUnits="userSpaceOnUse">
            <stop stop-color="#BFD7FF"/>
            <stop offset="1"/>
        </linearGradient>
        <linearGradient id="paint67_linear_410_298" x1="106.305" y1="-0.354298" x2="74.6194" y2="16.0224" gradientUnits="userSpaceOnUse">
            <stop stop-color="#C68C43"/>
            <stop offset="0.119792" stop-color="#F5BA6E"/>
            <stop offset="0.286458" stop-color="#C68C43"/>
            <stop offset="0.5625" stop-color="#C68C43"/>
            <stop offset="0.770833" stop-color="#EEB873"/>
            <stop offset="1" stop-color="#C68C43"/>
        </linearGradient>
        <linearGradient id="paint68_linear_410_298" x1="60.7357" y1="43.0816" x2="23.3564" y2="79.3976" gradientUnits="userSpaceOnUse">
            <stop stop-color="white" stop-opacity="0"/>
            <stop offset="0.440223" stop-color="white"/>
            <stop offset="1" stop-color="white" stop-opacity="0"/>
        </linearGradient>
    </defs>
</svg>
