<svg width="187" height="225" viewBox="0 0 187 225" fill="none" xmlns="http://www.w3.org/2000/svg">
    <g filter="url(#filter0_b_410_114)">
        <path d="M18.0367 220.719C16.0705 220.719 14.4766 219.125 14.4766 217.159L14.4766 8.54493C14.4766 6.57871 16.0705 4.98477 18.0367 4.98477L40.8217 4.98477L40.8218 220.719L18.0367 220.719Z" fill="url(#paint0_linear_410_114)"/>
        <path d="M15.1886 217.159L15.1886 8.54494C15.1886 6.97195 16.4637 5.69681 18.0367 5.69681L40.1097 5.69681L40.1097 220.007L18.0367 220.007C16.4637 220.007 15.1886 218.732 15.1886 217.159Z" stroke="url(#paint1_linear_410_114)" stroke-width="1.42406"/>
    </g>
    <g filter="url(#filter1_b_410_114)">
        <path d="M167.565 4.98633C169.531 4.98633 171.125 6.58027 171.125 8.54649L171.125 217.16C171.125 219.126 169.531 220.72 167.565 220.72L144.78 220.72L144.78 4.98633L167.565 4.98633Z" fill="url(#paint2_linear_410_114)"/>
        <path d="M170.413 8.54649L170.413 217.16C170.413 218.733 169.138 220.008 167.565 220.008L145.492 220.008L145.492 5.69836L167.565 5.69836C169.138 5.69836 170.413 6.97351 170.413 8.54649Z" stroke="url(#paint3_linear_410_114)" stroke-width="1.42406"/>
    </g>
    <mask id="path-5-inside-1_410_114" fill="white">
        <path fill-rule="evenodd" clip-rule="evenodd" d="M12.3398 7.12032C12.3398 3.18788 15.5277 0 19.4601 0H166.139C170.071 0 173.259 3.18788 173.259 7.12032V82.6819C173.259 85.0127 172.118 87.196 170.205 88.527L168.482 89.7254C166.569 91.0564 165.428 93.2397 165.428 95.5705V111.785V113.923V130.137C165.428 132.468 166.569 134.651 168.482 135.982L170.205 137.181C172.118 138.512 173.259 140.695 173.259 143.026V217.882C173.259 221.814 170.071 225.002 166.139 225.002H19.4602C15.5277 225.002 12.3398 221.814 12.3398 217.882V143.033C12.3398 140.702 13.4806 138.519 15.394 137.188L17.1202 135.987C19.0336 134.656 20.1744 132.473 20.1744 130.142L20.1744 111.789L20.1744 95.5751C20.1744 93.2442 19.0336 91.061 17.1202 89.7299L15.394 88.5291C13.4806 87.198 12.3398 85.0148 12.3398 82.684V7.12032Z"/>
    </mask>
    <g filter="url(#filter2_i_410_114)">
        <path fill-rule="evenodd" clip-rule="evenodd" d="M12.3398 7.12032C12.3398 3.18788 15.5277 0 19.4601 0H166.139C170.071 0 173.259 3.18788 173.259 7.12032V82.6819C173.259 85.0127 172.118 87.196 170.205 88.527L168.482 89.7254C166.569 91.0564 165.428 93.2397 165.428 95.5705V111.785V113.923V130.137C165.428 132.468 166.569 134.651 168.482 135.982L170.205 137.181C172.118 138.512 173.259 140.695 173.259 143.026V217.882C173.259 221.814 170.071 225.002 166.139 225.002H19.4602C15.5277 225.002 12.3398 221.814 12.3398 217.882V143.033C12.3398 140.702 13.4806 138.519 15.394 137.188L17.1202 135.987C19.0336 134.656 20.1744 132.473 20.1744 130.142L20.1744 111.789L20.1744 95.5751C20.1744 93.2442 19.0336 91.061 17.1202 89.7299L15.394 88.5291C13.4806 87.198 12.3398 85.0148 12.3398 82.684V7.12032Z" fill="#090E1C"/>
    </g>
    <path d="M20.1744 111.789L21.5985 111.789L21.5985 111.789L20.1744 111.789ZM15.394 88.5291L16.2072 87.3601L15.394 88.5291ZM15.394 137.188L14.5808 136.019L15.394 137.188ZM170.205 137.181L169.392 138.35L170.205 137.181ZM168.482 89.7254L169.295 90.8944L168.482 89.7254ZM17.1202 89.7299L16.307 90.899L17.1202 89.7299ZM170.205 88.527L169.392 87.358L170.205 88.527ZM168.482 135.982L169.295 134.813L168.482 135.982ZM17.1202 135.987L16.307 134.818L17.1202 135.987ZM166.139 -1.42406H19.4601V1.42406H166.139V-1.42406ZM174.683 82.6819V7.12032H171.835V82.6819H174.683ZM169.295 90.8944L171.018 89.6961L169.392 87.358L167.669 88.5564L169.295 90.8944ZM166.852 111.785V95.5705H164.004V111.785H166.852ZM166.852 113.923V111.785H164.004V113.923H166.852ZM166.852 130.137V113.923H164.004V130.137H166.852ZM171.018 136.012L169.295 134.813L167.669 137.151L169.392 138.35L171.018 136.012ZM174.683 217.882V143.026H171.835V217.882H174.683ZM19.4602 226.426H166.139V223.578H19.4602V226.426ZM10.9158 143.033V217.882H13.7639V143.033H10.9158ZM16.2072 138.357L17.9335 137.156L16.307 134.818L14.5808 136.019L16.2072 138.357ZM21.5985 130.142L21.5985 111.789L18.7503 111.789L18.7503 130.142L21.5985 130.142ZM21.5985 111.789L21.5985 95.5751L18.7503 95.5751L18.7503 111.789L21.5985 111.789ZM17.9335 88.5609L16.2072 87.3601L14.5808 89.6981L16.307 90.899L17.9335 88.5609ZM10.9158 7.12032V82.684H13.7639V7.12032H10.9158ZM16.2072 87.3601C14.6765 86.2952 13.7639 84.5486 13.7639 82.684H10.9158C10.9158 85.481 12.2847 88.1008 14.5808 89.6981L16.2072 87.3601ZM13.7639 143.033C13.7639 141.168 14.6765 139.422 16.2072 138.357L14.5808 136.019C12.2847 137.616 10.9158 140.236 10.9158 143.033H13.7639ZM19.4602 223.578C16.3142 223.578 13.7639 221.028 13.7639 217.882H10.9158C10.9158 222.601 14.7412 226.426 19.4602 226.426V223.578ZM171.835 217.882C171.835 221.028 169.285 223.578 166.139 223.578V226.426C170.858 226.426 174.683 222.601 174.683 217.882H171.835ZM169.392 138.35C170.922 139.415 171.835 141.161 171.835 143.026H174.683C174.683 140.229 173.314 137.609 171.018 136.012L169.392 138.35ZM167.669 88.5564C165.373 90.1536 164.004 92.7735 164.004 95.5705H166.852C166.852 93.7058 167.765 91.9592 169.295 90.8944L167.669 88.5564ZM21.5985 95.5751C21.5985 92.7781 20.2295 90.1582 17.9335 88.5609L16.307 90.899C17.8377 91.9638 18.7503 93.7104 18.7503 95.5751L21.5985 95.5751ZM171.835 82.6819C171.835 84.5466 170.922 86.2932 169.392 87.358L171.018 89.6961C173.314 88.0988 174.683 85.4789 174.683 82.6819H171.835ZM164.004 130.137C164.004 132.934 165.373 135.554 167.669 137.151L169.295 134.813C167.765 133.749 166.852 132.002 166.852 130.137H164.004ZM19.4601 -1.42406C14.7412 -1.42406 10.9158 2.40139 10.9158 7.12032H13.7639C13.7639 3.97436 16.3142 1.42406 19.4601 1.42406V-1.42406ZM17.9335 137.156C20.2295 135.559 21.5985 132.939 21.5985 130.142L18.7503 130.142C18.7503 132.006 17.8377 133.753 16.307 134.818L17.9335 137.156ZM166.139 1.42406C169.285 1.42406 171.835 3.97437 171.835 7.12032H174.683C174.683 2.40139 170.858 -1.42406 166.139 -1.42406V1.42406Z" fill="url(#paint4_linear_410_114)" mask="url(#path-5-inside-1_410_114)"/>
    <mask id="mask0_410_114" style="mask-type:alpha" maskUnits="userSpaceOnUse" x="13" y="1" width="159" height="223">
        <path fill-rule="evenodd" clip-rule="evenodd" d="M13.7656 8.54415C13.7656 4.6117 16.9535 1.42383 20.8859 1.42383H164.716C168.649 1.42383 171.837 4.6117 171.837 8.54414V83.0206C171.837 85.3454 170.702 87.5238 168.797 88.8559L167.183 89.984C165.278 91.3161 164.143 93.4945 164.143 95.8193V111.794V113.903V129.878C164.143 132.203 165.278 134.381 167.183 135.713L168.797 136.841C170.702 138.173 171.837 140.352 171.837 142.676V216.457C171.837 220.39 168.649 223.578 164.716 223.578H20.8859C16.9535 223.578 13.7656 220.39 13.7656 216.457V142.679C13.7656 140.355 14.9005 138.176 16.8058 136.844L18.4211 135.715C20.3263 134.382 21.4612 132.204 21.4612 129.879L21.4612 111.795L21.4612 95.8209C21.4612 93.4961 20.3263 91.3177 18.4211 89.9855L16.8058 88.8561C14.9005 87.5239 13.7656 85.3455 13.7656 83.0208V8.54415Z" fill="#090E1C"/>
    </mask>
    <g mask="url(#mask0_410_114)">
        <rect x="13.0547" y="225.715" width="225.714" height="80.4596" transform="rotate(-90 13.0547 225.715)" fill="#060911"/>
        <g opacity="0.2">
            <g style="mix-blend-mode:multiply" opacity="0.5">
                <path d="M93.1589 90.4037L44.9941 112.502L54.2038 65.6056L15.1914 32.4082L69.0765 25.5588L93.1589 -17.0879L117.241 25.5588L171.126 32.4082L132.171 65.6056L141.381 112.502L93.1589 90.4037Z" fill="#DE5634"/>
            </g>
            <path d="M165.954 33.4786L139.914 30.1717L132.818 29.2699L115.935 27.1154L93.5578 -12.5664L71.1807 27.1154L21.2188 33.4786L57.3883 64.3422L48.861 107.982L93.5578 87.3898L138.312 107.982L129.784 64.3422L165.954 33.4786Z" fill="url(#paint5_linear_410_114)"/>
            <path style="mix-blend-mode:multiply" opacity="0.37" d="M21.2188 34.1445L94.4479 51.0441L57.2359 65.0351L21.2188 34.1445Z" fill="url(#paint6_linear_410_114)"/>
            <path style="mix-blend-mode:multiply" opacity="0.37" d="M165.098 34.1445L94.4531 51.0441L129.15 65.0351L165.098 34.1445Z" fill="url(#paint7_linear_410_114)"/>
            <path style="mix-blend-mode:multiply" opacity="0.37" d="M93.2002 87.5188L94.4496 50.7227L48.7891 107.983L93.2002 87.5188Z" fill="url(#paint8_linear_410_114)"/>
            <path style="mix-blend-mode:multiply" opacity="0.37" d="M137.529 107.983L93.9924 50.7227L92.7305 87.5188L137.529 107.983Z" fill="url(#paint9_linear_410_114)"/>
            <path style="mix-blend-mode:color-dodge" opacity="0.5" d="M92.7305 -12.5664L93.994 50.7216L115.13 27.3413L92.7305 -12.5664Z" fill="url(#paint10_linear_410_114)"/>
            <path style="mix-blend-mode:color-dodge" opacity="0.5" d="M165.098 33.7561L94.4531 50.7196L115.385 27.3633L165.098 33.7561Z" fill="url(#paint11_linear_410_114)"/>
            <path style="mix-blend-mode:color-dodge" opacity="0.5" d="M165.098 33.7561L94.4531 50.7196L115.385 27.3633L165.098 33.7561Z" fill="url(#paint12_linear_410_114)"/>
            <path style="mix-blend-mode:color-dodge" opacity="0.5" d="M70.9486 27.3633L94.4479 50.7196L21.2188 33.7561L70.9486 27.3633Z" fill="url(#paint13_linear_410_114)"/>
            <path d="M115.245 41.1907C111.478 43.7444 114.666 45.4469 114.666 45.4469L134.083 41.1907C131.354 39.5507 128.053 38.666 124.664 38.666C121.275 38.666 117.974 39.5507 115.245 41.1907Z" fill="white"/>
            <g style="mix-blend-mode:multiply" opacity="0.5">
                <path d="M48.7891 107.981C48.7891 107.981 82.7251 93.9519 93.5594 90.0938L138.387 107.981L93.5594 87.6387L48.7891 107.981Z" fill="#DE5634"/>
            </g>
            <g style="mix-blend-mode:soft-light" opacity="0.4">
                <path d="M76.2993 20.4186C71.4657 31.8617 89.9265 39.8371 92.3725 36.32C94.8184 32.8029 93.3042 13.1862 90.2177 10.5607C87.1312 7.93527 78.2793 15.7621 76.2993 20.4186Z" fill="#F7FFFF"/>
            </g>
            <g style="mix-blend-mode:soft-light" opacity="0.4">
                <path d="M61.9567 80.0079C71.4231 81.1747 76.6885 71.4345 78.761 64.7888C81.8418 53.9833 44.8164 78.1816 61.9567 80.0079Z" fill="#F7FFFF"/>
            </g>
        </g>
    </g>
    <g filter="url(#filter3_f_410_114)">
        <ellipse cx="93.1545" cy="112.502" rx="39.5178" ry="37.0257" fill="#FF5C00"/>
    </g>
    <rect x="144.066" y="9.25781" width="18.5128" height="18.5128" rx="9.25641" fill="#151C30"/>
    <rect x="144.422" y="9.61383" width="17.8008" height="17.8008" rx="8.9004" stroke="#C68C43" stroke-width="0.712032"/>
    <g style="mix-blend-mode:soft-light">
        <mask id="mask1_410_114" style="mask-type:alpha" maskUnits="userSpaceOnUse" x="144" y="9" width="19" height="19">
            <rect x="144.066" y="9.25781" width="18.5128" height="18.5128" rx="9.25641" fill="#101520"/>
        </mask>
        <g mask="url(#mask1_410_114)">
            <g filter="url(#filter4_f_410_114)">
                <path d="M141.492 30.3848L164.818 7.05859" stroke="white" stroke-width="0.370257"/>
            </g>
            <g filter="url(#filter5_f_410_114)">
                <path d="M138.18 33.694L168.133 3.74023" stroke="white" stroke-width="0.925641"/>
            </g>
            <g filter="url(#filter6_f_410_114)">
                <path d="M138.18 33.694L168.133 3.74023" stroke="white" stroke-width="0.925641"/>
            </g>
            <g opacity="0.5" filter="url(#filter7_f_410_114)">
                <path d="M137.793 26.8457L161.119 3.51953" stroke="white" stroke-width="0.370257"/>
            </g>
            <g opacity="0.5" filter="url(#filter8_f_410_114)">
                <path d="M144.066 35.1914L167.393 11.8652" stroke="white" stroke-width="0.185128"/>
            </g>
        </g>
    </g>
    <path d="M155.712 20.8877C155.242 21.246 154.7 21.3322 154.7 21.3322C155.084 21.0533 155.824 20.2699 155.395 19.4201C154.965 18.5703 153.325 18.0195 153.325 18.0195C153.325 18.0195 151.686 18.5706 151.256 19.4201C150.825 20.2696 151.567 21.0533 151.95 21.3322C151.95 21.3322 151.408 21.2458 150.939 20.8874C150.939 20.8874 149.788 21.8964 149.656 23.065C149.656 23.065 150.707 22.2883 153.326 22.2883C155.944 22.2883 156.995 23.065 156.995 23.065C156.863 21.8967 155.712 20.8877 155.712 20.8877ZM153.518 20.881L153.326 21.1998L153.134 20.881C151.898 20.7881 151.673 19.8652 151.673 19.8652L152.288 19.5069L152.121 19.2149L153.324 19.945L154.529 19.2149L154.363 19.5069L154.977 19.8652C154.977 19.8652 154.753 20.7881 153.517 20.881H153.518Z" fill="white"/>
    <path d="M156.709 14.8292C156.709 14.8292 157.792 14.9549 158.308 15.4776C158.308 15.4776 157.509 13.9824 155.816 13.9824C154.124 13.9824 153.324 14.9021 153.324 14.9021C153.324 14.9021 152.524 13.9824 150.832 13.9824C149.14 13.9824 148.34 15.4776 148.34 15.4776C148.855 14.9549 149.939 14.8292 149.939 14.8292C149.08 15.0813 148.418 16.1077 148.426 17.3372C148.433 18.5667 148.908 19.4475 149.378 19.5606C149.847 19.6737 150.098 19.2232 150.799 18.5601C151.5 17.897 152.213 17.7927 152.213 17.7927C151.506 17.4751 151.037 17.6604 150.567 17.8125C150.098 17.9645 149.715 18.0176 149.444 17.4687C149.173 16.9198 149.688 16.3175 149.688 16.3175C149.397 16.3639 149.12 16.5954 149.12 16.5954C149.384 15.9668 149.721 15.7948 150.27 15.775C150.818 15.7553 151.07 15.9006 151.645 16.225C152.22 16.5493 152.722 16.9262 153.02 16.6813C153.318 16.4365 152.875 15.6097 152.875 15.6097C153.198 15.8214 153.324 16.2644 153.324 16.2644C153.324 16.2644 153.45 15.8214 153.774 15.6097C153.774 15.6097 153.329 16.4365 153.628 16.6813C153.927 16.9262 154.428 16.549 155.003 16.225C155.579 15.9009 155.83 15.7553 156.378 15.775C156.927 15.7948 157.264 15.9687 157.528 16.5963C157.528 16.5963 157.25 16.3648 156.959 16.3184C156.959 16.3184 157.475 16.9203 157.204 17.4695C156.933 18.0187 156.549 17.9656 156.08 17.8133C155.611 17.661 155.141 17.4759 154.434 17.7936C154.434 17.7936 155.148 17.8995 155.848 18.5609C156.549 19.2224 156.8 19.6726 157.27 19.5614C157.739 19.4503 158.214 18.569 158.222 17.3381C158.23 16.1071 157.568 15.0813 156.709 14.8292Z" fill="white"/>
    <path d="M155.818 13.9824C154.124 13.9824 153.323 14.9088 153.323 14.9088C153.323 14.9088 152.522 13.9824 150.828 13.9824C149.567 13.9824 148.801 14.8167 148.492 15.2422C149.152 14.5953 150.914 13.3609 153.323 15.4808C155.734 13.3609 157.495 14.5953 158.155 15.2422C157.845 14.8167 157.079 13.9824 155.818 13.9824Z" fill="#C4C4C4"/>
    <path d="M150.541 17.8096C150.07 17.9626 149.686 18.0156 149.414 17.4644C149.143 16.9133 149.66 16.3086 149.66 16.3086C149.426 16.3457 149.201 16.5023 149.121 16.5631C148.884 16.9591 148.721 17.6765 149.277 18.8561C149.277 18.8561 148.8 18.7152 148.43 17.8914C148.551 18.8279 148.951 19.4684 149.348 19.5635C149.819 19.6751 150.07 19.2247 150.773 18.5589C151.476 17.8931 152.191 17.7884 152.191 17.7884C151.482 17.4709 151.011 17.657 150.541 17.8096Z" fill="#C4C4C4"/>
    <path d="M157.326 18.8551C157.889 17.6623 157.715 16.9421 157.475 16.5493C157.383 16.4815 157.173 16.3432 156.955 16.3086C156.955 16.3086 157.472 16.9128 157.2 17.464C156.929 18.0152 156.545 17.9619 156.075 17.809C155.605 17.6562 155.134 17.4704 154.426 17.7892C154.426 17.7892 155.141 17.8955 155.843 18.5594C156.545 19.2233 156.796 19.6751 157.266 19.5636C157.666 19.4673 158.071 18.8143 158.187 17.862C157.814 18.7111 157.326 18.8551 157.326 18.8551Z" fill="#C4C4C4"/>
    <path d="M156.993 23.0481C156.571 22.7244 155.495 22.0571 153.709 21.9831C151.339 21.8838 151.121 22.2709 150.853 21.9333C150.585 21.5958 151.95 21.3341 151.95 21.3341C151.95 21.3341 151.408 21.2479 150.939 20.8906C150.939 20.8906 149.788 21.8966 149.656 23.0617C149.656 23.0617 150.707 22.2873 153.326 22.2873C155.944 22.2873 156.995 23.0617 156.995 23.0617C156.995 23.0581 156.994 23.0528 156.993 23.0481Z" fill="#C4C4C4"/>
    <path d="M101.711 99.3052L148.335 98.9922L143.984 107.221L104.108 108.383L101.711 99.3052Z" fill="url(#paint14_linear_410_114)"/>
    <g style="mix-blend-mode:multiply" opacity="0.5">
        <path d="M103.77 105.806L145.26 104.805L143.986 107.22L104.109 108.382L103.77 105.806Z" fill="#DE5634"/>
    </g>
    <g style="mix-blend-mode:soft-light" opacity="0.4">
        <path d="M128.15 99.7127C127.802 100.115 129.417 104.408 130.079 104.274C130.742 104.14 144.213 104.399 144.816 103.961C145.42 103.523 147.672 99.9184 147.179 99.4891C146.686 99.0598 128.482 99.3281 128.15 99.7127Z" fill="#FFDF66"/>
    </g>
    <g style="mix-blend-mode:multiply" opacity="0.5">
        <path d="M127.207 99.0977C127.207 99.0977 128.966 104.106 129.026 105.197C128.992 106.065 128.768 106.913 128.372 107.675L104.116 108.381L101.711 99.3034L127.207 99.0977Z" fill="#DE5634"/>
    </g>
    <path d="M84.5969 99.3052L37.9727 98.9922L42.324 107.221L82.2002 108.383L84.5969 99.3052Z" fill="url(#paint15_linear_410_114)"/>
    <g style="mix-blend-mode:multiply" opacity="0.5">
        <path d="M82.5463 105.806L41.0469 104.805L42.3217 107.22L82.1979 108.382L82.5463 105.806Z" fill="#DE5634"/>
    </g>
    <g style="mix-blend-mode:soft-light" opacity="0.4">
        <path d="M57.8304 99.5387C58.9863 100.693 56.9126 104.637 56.2497 104.503C55.5868 104.368 42.0907 104.404 41.4873 103.966C40.8839 103.528 38.6317 99.9233 39.1247 99.494C39.6176 99.0647 57.159 98.8769 57.8304 99.5387Z" fill="#FFDF66"/>
    </g>
    <g style="mix-blend-mode:multiply" opacity="0.5">
        <path d="M59.1078 99.0977C59.1078 99.0977 57.3486 104.088 57.2891 105.197C57.3241 106.062 57.5481 106.907 57.9435 107.666L82.1649 108.381L84.5616 99.3034L59.1078 99.0977Z" fill="#DE5634"/>
    </g>
    <path d="M89.5438 144.219V173.734C81.045 169.029 68.2969 155.301 68.2969 155.301V134.891L89.5438 144.219Z" fill="url(#paint16_linear_410_114)"/>
    <g style="mix-blend-mode:multiply" opacity="0.6">
        <path d="M89.5438 167.767V173.706C81.045 169.002 68.2969 155.273 68.2969 155.273V150.184C71.2629 154.173 77.5095 160.845 89.5438 167.767Z" fill="#8E37E2"/>
    </g>
    <path d="M96.7656 144.219V173.734C105.264 169.029 118.013 155.301 118.013 155.301V134.891L96.7656 144.219Z" fill="url(#paint17_linear_410_114)"/>
    <g style="mix-blend-mode:multiply" opacity="0.6">
        <path d="M96.7656 167.767V173.706C105.264 169.002 118.013 155.273 118.013 155.273V150.184C115.046 154.173 108.8 160.845 96.7656 167.767Z" fill="#8E37E2"/>
    </g>
    <path style="mix-blend-mode:multiply" d="M70.2693 157.351C70.2693 157.351 70.0738 143.819 72.0795 144.051C74.0852 144.284 77.5442 146.43 78.3006 148.89C79.057 151.349 78.836 165.597 78.836 165.597L79.6009 166.259C79.6009 166.259 78.6576 148.952 80.2213 149.802C81.3784 150.394 82.3813 151.273 83.1438 152.364C83.9063 153.455 84.4054 154.724 84.5982 156.063C85.3546 159.962 85.5671 171.169 85.5671 171.169L89.536 173.673V144.159L68.2891 134.83V155.213L70.2693 157.351Z" fill="url(#paint18_linear_410_114)"/>
    <path style="mix-blend-mode:multiply" d="M116.007 157.346C116.007 157.346 116.168 141.488 114.163 141.721C112.157 141.953 112.072 149.985 112.072 152.453C112.072 154.922 111.749 161.603 111.749 161.603L110.619 162.685C110.619 162.685 110.78 144.645 109.216 145.495C107.653 146.345 100.794 151.926 100.063 155.789C99.3322 159.653 99.6127 171.888 99.6127 171.888L96.7656 173.677V144.162L118.013 134.834V155.217L116.007 157.346Z" fill="url(#paint19_linear_410_114)"/>
    <path style="mix-blend-mode:multiply" opacity="0.37" d="M81.5938 78.5723C79.8431 80.0838 62.3866 90.1278 62.1486 90.7807C61.8427 91.6124 64.1628 95.5299 65.2677 95.1989C66.3725 94.868 87.135 82.4807 87.1775 81.8994C87.22 81.318 87.271 78.0893 86.7696 77.8836C86.2681 77.6779 82.2567 77.9909 81.5938 78.5723Z" fill="url(#paint20_linear_410_114)"/>
    <g style="mix-blend-mode:soft-light" opacity="0.4">
        <path d="M79.2826 77.5502C78.1353 77.6307 63.8914 87.2543 63.8914 87.5315C63.8914 87.8088 61.3417 89.4366 61.9877 89.3918C62.6336 89.3471 80.6084 78.6592 80.6339 78.2925C80.6594 77.9258 79.8946 77.5054 79.2826 77.5502Z" fill="#FFDF66"/>
    </g>
    <g style="mix-blend-mode:soft-light" opacity="0.4">
        <path d="M61.4023 90.7767C61.4023 90.7767 70.887 85.7413 75.7313 82.5216C80.5756 79.3018 81.5954 78.5684 81.5954 78.5684L61.4023 90.7767Z" fill="#FFDF66"/>
    </g>
    <path style="mix-blend-mode:multiply" opacity="0.37" d="M104.721 78.5723C106.421 80.0838 123.92 90.1278 124.158 90.7807C124.464 91.6124 122.144 95.5299 121.047 95.1989C119.951 94.868 99.1631 82.4807 99.1631 81.8994C99.1631 81.318 99.0697 78.0893 99.5711 77.8836C100.073 77.6779 104.05 77.9909 104.721 78.5723Z" fill="url(#paint21_linear_410_114)"/>
    <g style="mix-blend-mode:soft-light" opacity="0.4">
        <path d="M107.028 77.5502C108.175 77.6307 122.427 87.2543 122.427 87.5315C122.427 87.8088 124.935 89.4366 124.323 89.3918C123.711 89.3471 105.702 78.6592 105.676 78.2925C105.651 77.9258 106.416 77.5054 107.028 77.5502Z" fill="#FFDF66"/>
    </g>
    <g style="mix-blend-mode:soft-light" opacity="0.4">
        <path d="M124.916 90.7767C124.916 90.7767 115.431 85.7413 110.578 82.5216C105.726 79.3018 104.723 78.5684 104.723 78.5684L124.916 90.7767Z" fill="#FFDF66"/>
    </g>
    <path d="M62.5607 129.714C62.4842 130.009 50.9344 125.779 50.9344 125.779C47.9983 121.143 45.5612 116.179 43.668 110.977H63.3936L62.5607 129.714Z" fill="url(#paint22_linear_410_114)"/>
    <path d="M47.4297 110.977C47.4297 110.977 52.036 120.985 52.8774 122.067L62.8549 122.353V121.638C62.8549 121.638 53.7273 121.718 53.2003 121.307C52.6734 120.895 48.0161 110.977 48.0161 110.977H47.4297Z" fill="#B33114"/>
    <path d="M47.4297 110.977L52.8774 122.067C51.6977 120.291 50.6248 118.439 49.6649 116.522C48.4495 113.928 47.4297 110.977 47.4297 110.977Z" fill="white"/>
    <g style="mix-blend-mode:soft-light" opacity="0.4">
        <path d="M48.8462 111.656C49.6111 114.053 52.6451 119.482 53.274 119.482C53.9029 119.482 61.2204 119.348 61.8918 118.239C62.5632 117.13 63.1496 111.763 62.5632 111.656C61.9768 111.549 48.5062 110.592 48.8462 111.656Z" fill="#FFDF66"/>
    </g>
    <g style="mix-blend-mode:soft-light" opacity="0.4">
        <path d="M44.3239 111.397C45.2588 113.74 47.8764 119.706 48.3608 119.778C48.8452 119.849 50.477 120.064 50.5025 119.348C50.5025 118.203 47.4854 111.549 46.8055 111.397C46.1256 111.245 44.0859 110.816 44.3239 111.397Z" fill="#FFDF66"/>
    </g>
    <path style="mix-blend-mode:multiply" opacity="0.37" d="M48.8301 120.555C48.7451 121.297 51.3798 125.116 51.8047 125.42C52.2296 125.724 61.1023 128.738 61.6888 128.309C62.2752 127.88 62.5386 120.009 62.0882 119.777C61.6378 119.544 48.9321 119.741 48.8301 120.555Z" fill="url(#paint23_linear_410_114)"/>
    <g style="mix-blend-mode:multiply" opacity="0.5">
        <path d="M56.7656 110.972C57.7187 116.693 58.1372 122.499 58.0149 128.306L62.5618 129.71L63.4117 110.928L56.7656 110.972Z" fill="#DE5634"/>
    </g>
    <path d="M123.751 129.714C123.828 130.009 135.378 125.779 135.378 125.779C138.314 121.143 140.751 116.179 142.644 110.977H122.961L123.751 129.714Z" fill="url(#paint24_linear_410_114)"/>
    <path d="M138.878 110.977C138.878 110.977 134.271 120.985 133.43 122.067L123.461 122.353V121.638C123.461 121.638 132.589 121.718 133.107 121.307C133.625 120.895 138.257 110.977 138.257 110.977H138.878Z" fill="#B33114"/>
    <path d="M138.873 110.977L133.426 122.067C134.609 120.293 135.682 118.441 136.638 116.522C137.854 113.928 138.873 110.977 138.873 110.977Z" fill="white"/>
    <g style="mix-blend-mode:soft-light" opacity="0.4">
        <path d="M137.466 111.656C136.701 114.053 133.675 119.482 133.038 119.482C132.4 119.482 125.091 119.348 124.42 118.239C123.749 117.13 123.162 111.763 123.749 111.656C124.335 111.549 137.806 110.592 137.466 111.656Z" fill="#FFDF66"/>
    </g>
    <g style="mix-blend-mode:soft-light" opacity="0.4">
        <path d="M141.996 111.397C141.052 113.74 138.443 119.706 137.95 119.778C137.457 119.849 135.834 120.064 135.809 119.348C135.809 118.203 138.826 111.549 139.514 111.397C140.202 111.245 142.225 110.816 141.996 111.397Z" fill="#FFDF66"/>
    </g>
    <path style="mix-blend-mode:multiply" opacity="0.37" d="M137.475 120.555C137.56 121.297 134.925 125.116 134.5 125.42C134.075 125.724 125.202 128.738 124.659 128.309C124.115 127.88 123.809 120.009 124.251 119.777C124.693 119.544 137.407 119.741 137.475 120.555Z" fill="url(#paint25_linear_410_114)"/>
    <g style="mix-blend-mode:multiply" opacity="0.5">
        <path d="M129.548 110.972C128.595 116.693 128.177 122.499 128.299 128.306L123.752 129.71L122.902 110.928L129.548 110.972Z" fill="#DE5634"/>
    </g>
    <path d="M93.2829 67.6426L60.9961 87.2565V134.069L93.2829 153.683L125.57 134.069V87.2565L93.2829 67.6426Z" fill="url(#paint26_linear_410_114)"/>
    <path d="M66.832 130.519V90.8085L93.2802 74.7363L119.728 90.8085V130.519L93.2802 146.591L66.832 130.519Z" fill="url(#paint27_linear_410_114)"/>
    <path d="M68.7812 129.338V91.9881L93.2832 77.1055L117.785 91.9881V129.338L93.2832 144.22L68.7812 129.338Z" fill="url(#paint28_linear_410_114)"/>
    <g style="mix-blend-mode:soft-light" opacity="0.4">
        <path d="M61.7663 87.3838C61.3669 88.6449 64.8004 90.1922 67.214 89.6377C69.6277 89.0831 92.3619 75.0591 92.9398 73.7981C93.1059 72.0494 93.1059 70.2877 92.9398 68.5391C92.1409 68.5391 61.9958 86.7756 61.7663 87.3838Z" fill="#FFDF66"/>
    </g>
    <g style="mix-blend-mode:soft-light" opacity="0.4">
        <path d="M124.61 87.3838C125.009 88.6449 121.576 90.1922 119.162 89.6377C116.748 89.0831 94.235 74.925 93.4701 73.7981C93.0707 73.2167 92.9432 68.5391 93.4701 68.5391C94.269 68.5391 124.414 86.7756 124.61 87.3838Z" fill="#FFDF66"/>
    </g>
    <path style="mix-blend-mode:multiply" opacity="0.37" d="M61.7661 114.006C61.5451 115.402 61.0182 133.12 61.7661 133.254C62.5139 133.388 66.0154 130.866 66.2109 129.676C66.4064 128.487 66.4659 116.368 66.2109 115.205C65.9559 114.042 62.1315 111.672 61.7661 114.006Z" fill="url(#paint29_linear_410_114)"/>
    <path style="mix-blend-mode:multiply" opacity="0.37" d="M124.661 114.006C124.882 115.402 125.409 133.12 124.661 133.254C123.913 133.388 120.412 130.866 120.217 129.676C120.021 128.487 119.962 116.368 120.217 115.205C120.471 114.042 124.313 111.672 124.661 114.006Z" fill="url(#paint30_linear_410_114)"/>
    <path style="mix-blend-mode:multiply" opacity="0.37" d="M62.6188 133.737C63.0097 134.345 92.0925 152.438 92.5259 152.438C92.7469 152.438 93.0444 147.966 93.0444 147.439C93.0444 146.043 67.3271 131.671 66.8767 131.537C66.1713 131.34 62.1854 133.129 62.6188 133.737Z" fill="url(#paint31_linear_410_114)"/>
    <path style="mix-blend-mode:multiply" opacity="0.37" d="M124.039 134.212C123.648 134.82 94.0215 152.851 93.588 152.851C93.4721 150.916 93.5034 148.975 93.6815 147.046C94.6249 146.062 119.178 131.672 119.594 131.537C120.257 131.341 124.43 133.604 124.039 134.212Z" fill="url(#paint32_linear_410_114)"/>
    <g style="mix-blend-mode:multiply" opacity="0.37">
        <path d="M69.9038 128.342C68.2041 117.994 69.1389 117.341 81.3347 112.967C93.5304 108.594 114.165 97.3245 115.976 102.235C117.786 107.145 117.165 127.948 116.758 129.066C116.35 130.184 95.0432 143.081 93.2839 143.108C91.5247 143.135 70.0993 129.505 69.9038 128.342Z" fill="#ED8A1D"/>
    </g>
    <g style="mix-blend-mode:soft-light" opacity="0.4">
        <path d="M117.256 92.2465C116.823 92.1392 94.6838 78.6697 93.46 78.7681C92.2361 78.8665 76.8449 86.4598 70.5133 92.1839C68.8135 93.7223 69.4424 116.565 70.9977 116.145C72.553 115.724 73.6663 106.503 90.8338 101.316C107.704 96.1997 115.047 100.627 116.874 101.414C117.392 101.638 118.234 92.4612 117.256 92.2465Z" fill="#FFDF66"/>
    </g>
    <g style="mix-blend-mode:multiply" opacity="0.5">
        <path d="M66.8672 130.515V90.8041L93.3153 74.7051L119.763 90.8041V130.515L117.817 129.334C117.817 129.334 117.936 94.8109 117.231 93.7287C114.681 89.8649 95.1341 80.4739 91.9385 81.5203C88.743 82.5667 71.2186 90.3837 69.2723 93.6661C68.6179 94.7662 68.7794 129.334 68.7794 129.334L66.8672 130.515Z" fill="#DE5634"/>
    </g>
    <g style="mix-blend-mode:soft-light" opacity="0.4">
        <path d="M98.232 96.2277C104.819 99.3938 114.745 99.4475 115.654 98.8393C116.564 98.2311 117.167 93.786 115.739 93.0437C114.312 92.3013 102.991 85.9512 100.017 86.6309C97.0422 87.3106 97.0592 95.6732 98.232 96.2277Z" fill="#FFDF66"/>
    </g>
    <path opacity="0.8" d="M60.9929 101.522C60.9929 101.415 61.2733 88.3208 61.8003 87.3817C62.3272 86.4426 92.5828 68.7874 93.4667 68.537C94.3505 68.2865 105.679 75.1733 105.679 75.1733L93.2797 67.6426L60.9844 87.2565L60.9929 101.522Z" fill="#700000"/>
    <path d="M104.84 81.7305C104.84 81.7305 119.024 90.254 119.22 91.211C119.415 92.168 119.73 117.828 119.73 117.828C119.73 117.828 119.866 91.8907 119.73 90.8085C119.594 89.7263 104.84 81.7305 104.84 81.7305Z" fill="white"/>
    <path d="M66.8706 112.569C66.8706 112.569 66.3947 91.1036 66.6411 90.406C66.8876 89.7084 93.2848 74.7363 93.2848 74.7363C93.2848 74.7363 67.7205 90.1019 67.2275 91.0768C66.7346 92.0517 66.8706 112.569 66.8706 112.569Z" fill="white"/>
    <path opacity="0.8" d="M60.9961 134.068L93.2914 153.682L125.587 134.068V123.407C125.587 123.407 125.298 132.709 124.66 133.871C124.023 135.034 95.0761 152.734 93.6059 152.85C92.1356 152.967 62.5429 134.497 61.7695 133.254C60.9961 132.011 60.9961 110.215 60.9961 110.215V134.068Z" fill="#700000"/>
    <g style="mix-blend-mode:soft-light" opacity="0.4">
        <path d="M66.8657 120.357C66.8657 120.357 66.7722 129.516 67.2567 130.276C67.7411 131.036 80.2853 138.674 80.2853 138.674C80.2853 138.674 66.6872 131.278 66.5683 130.795C66.4493 130.312 66.8657 120.357 66.8657 120.357Z" fill="#FFDF66"/>
    </g>
    <g style="mix-blend-mode:soft-light" opacity="0.4">
        <path d="M77.7564 138.854C76.8046 138.854 74.136 139.989 74.7139 140.642C75.2918 141.295 91.1845 151.375 93.0032 152.09C93.5896 152.323 93.5386 148.343 92.7398 147.055C92.3658 146.509 80.714 138.845 77.7564 138.854Z" fill="#FFDF66"/>
    </g>
    <path d="M107.476 77.2572C106.949 77.4004 108.708 79.7258 109.541 79.9404C110.374 80.1551 111.521 79.52 111.122 79.0907C110.722 78.6614 108.292 76.98 107.476 77.2572Z" fill="white"/>
    <path d="M111.369 79.5115C110.57 79.7351 112.04 83.411 112.669 84.0639C113.298 84.7168 118.882 85.8527 118.754 84.8062C118.627 83.7598 112.491 79.1984 111.369 79.5115Z" fill="white"/>
    <g style="mix-blend-mode:multiply" opacity="0.5">
        <path d="M108.17 138.967C107.473 142.16 107.584 144.048 107.975 144.065C108.366 144.083 122.482 135.122 122.873 134.746C123.264 134.37 120.604 131.812 119.559 131.946C118.513 132.081 108.434 137.751 108.17 138.967Z" fill="#DE5634"/>
    </g>
    <g style="mix-blend-mode:multiply" opacity="0.5">
        <path d="M68.5662 91.7186C68.2263 90.6453 67.1809 90.6453 67.0874 91.8528C66.994 93.0602 66.824 115.304 67.2404 115.33C67.6569 115.357 68.5322 114.275 68.5662 113.765C68.6002 113.255 68.7107 92.2284 68.5662 91.7186Z" fill="#DE5634"/>
    </g>
    <g style="mix-blend-mode:multiply" opacity="0.5">
        <path d="M118.012 91.8516C117.961 92.2809 117.757 113.317 118.012 113.317C118.267 113.317 119.44 112.333 119.44 111.814C119.44 111.296 119.151 91.4491 119.024 91.3418C118.896 91.2345 118.063 91.5117 118.012 91.8516Z" fill="#DE5634"/>
    </g>
    <g style="mix-blend-mode:multiply" opacity="0.5">
        <path d="M93.282 76.7524C93.282 77.1638 81.9022 83.997 81.6387 83.997C81.3752 83.997 81.4687 82.1545 81.8342 81.9041C82.1996 81.6537 93.214 74.6774 93.282 74.91C93.3246 75.5233 93.3246 76.1391 93.282 76.7524Z" fill="#DE5634"/>
    </g>
    <path d="M116.763 132.111C116.041 132.111 113.585 133.587 113.772 134.32C113.959 135.054 115.472 135.85 115.863 135.421C116.253 134.991 117.239 132.129 116.763 132.111Z" fill="#B33114"/>
    <path d="M117.699 132.63C117.453 132.872 116.909 133.73 117.427 134.151C117.946 134.571 119.467 133.462 119.246 133.14C119.025 132.818 118.022 132.317 117.699 132.63Z" fill="#B33114"/>
    <g style="mix-blend-mode:multiply" opacity="0.5">
        <path d="M114.129 133.601C113.526 134.496 116.008 135.032 116.33 134.308C116.653 133.583 117.18 132.054 116.764 132.125C115.807 132.443 114.914 132.943 114.129 133.601Z" fill="#DE5634"/>
    </g>
    <path d="M113.782 134.107C113.951 134.61 114.286 135.032 114.725 135.297C115.303 135.655 115.796 135.574 115.941 135.297C115.798 135.476 115.601 135.598 115.383 135.644C115.165 135.689 114.939 135.655 114.742 135.547C113.561 134.984 113.782 134.107 113.782 134.107Z" fill="#DAE1EF"/>
    <g style="mix-blend-mode:multiply" opacity="0.5">
        <path d="M117.982 132.649C117.421 133.293 117.855 134.205 118.169 134.152C118.484 134.098 119.427 133.454 119.249 133.141C119.07 132.828 118.101 132.515 117.982 132.649Z" fill="#DE5634"/>
    </g>
    <path d="M117.701 132.631C117.701 132.631 117.191 133.373 117.395 133.803C117.599 134.232 117.896 134.232 117.896 134.232C117.896 134.232 117.225 134.643 117.106 134.16C116.893 133.337 117.701 132.631 117.701 132.631Z" fill="#DAE1EF"/>
    <path d="M89.9597 76.5235C88.2175 76.0405 86.8152 77.23 86.0503 78.1423C85.2854 79.0546 85.7103 79.5912 86.6707 79.4123C87.6311 79.2335 90.6651 76.7292 89.9597 76.5235Z" fill="#B33114"/>
    <g style="mix-blend-mode:multiply" opacity="0.5">
        <path d="M89.9631 76.5235C89.4139 76.4082 88.8471 76.4238 88.3044 76.5693C87.7617 76.7148 87.2569 76.9865 86.8271 77.3643C86.3596 77.7936 87.2775 79.0368 87.9149 78.7684C88.5523 78.5001 90.4985 76.7203 89.9631 76.5235Z" fill="#DE5634"/>
    </g>
    <path d="M86.493 77.668C86.493 77.668 84.5213 79.0453 84.7168 79.6893C84.9122 80.3332 87.2664 79.1437 87.2664 79.1437C87.2664 79.1437 86.0511 79.5551 85.7706 78.9917C85.4901 78.4282 86.493 77.668 86.493 77.668Z" fill="white"/>
    <g style="mix-blend-mode:soft-light" opacity="0.4">
        <path d="M67.9559 130.797C67.038 131.039 69.7746 133.015 70.429 133.123C71.0835 133.23 70.429 131.486 70.1231 131.182C69.4452 130.856 68.6978 130.723 67.9559 130.797Z" fill="#FFDF66"/>
    </g>
    <path d="M93.2546 132.708L59.9225 112.244C59.1507 114.159 58.6276 116.175 58.3672 118.237L60.5429 122.1L93.2886 142.117L126.034 122.1L128.006 118.237C127.946 116.181 127.543 114.153 126.816 112.244L93.2546 132.708Z" fill="url(#paint33_linear_410_114)"/>
    <path d="M60.5116 122.102L58.3359 118.238L93.2574 139.766L127.975 118.238L126.003 122.102L93.2574 142.118L60.5116 122.102Z" fill="url(#paint34_linear_410_114)"/>
    <g style="mix-blend-mode:multiply" opacity="0.5">
        <path d="M58.3672 118.238L60.5429 122.102L61.0358 122.424V123.578C61.0358 123.578 62.9055 124.579 66.577 126.717C66.696 126.789 68.8802 129.212 68.8802 129.212C68.8802 129.212 92.4727 144.22 93.3226 144.22C94.4274 144.22 117.825 128.881 117.825 128.881C117.825 128.881 119.652 127.272 119.83 127.155L125.609 123.971V122.37L126.043 122.102L128.015 118.238L93.2546 139.766L58.3672 118.238Z" fill="#DE5634"/>
    </g>
    <path style="mix-blend-mode:multiply" opacity="0.69" d="M93.2539 132.708V139.773L127.971 118.237C127.88 116.185 127.479 114.162 126.782 112.244L93.2539 132.708Z" fill="url(#paint35_linear_410_114)"/>
    <g style="mix-blend-mode:soft-light" opacity="0.4">
        <path d="M61.6398 113.795C61.0024 113.795 61.5294 119.743 63.4586 121.102C66.5351 123.275 85.0879 134.777 86.3032 134.795C87.1531 134.795 87.1021 129.76 86.8472 129.366C86.4137 128.624 62.6172 113.795 61.6398 113.795Z" fill="#FFDF66"/>
    </g>
    <g style="mix-blend-mode:soft-light" opacity="0.4">
        <path d="M103.568 126.599C103.168 127.037 103.219 132.582 103.908 132.421C109.51 129.559 114.907 126.271 120.055 122.583C124.993 118.755 125.69 113.72 124.585 113.836C124.56 113.8 104.392 125.696 103.568 126.599Z" fill="#FFDF66"/>
    </g>
    <path d="M76.2773 129.291C76.2773 129.291 92.238 139.371 93.2749 139.371C94.3117 139.371 107.034 131.232 107.034 131.232C107.034 131.232 93.6658 140.176 93.3004 140.176C92.9349 140.176 76.2773 129.291 76.2773 129.291Z" fill="white"/>
    <path d="M93.2546 121.241L59.9225 100.786C59.1515 102.698 58.6284 104.711 58.3672 106.77L60.5429 110.633L93.2546 130.659L126 110.642L127.972 106.77C127.912 104.714 127.509 102.686 126.782 100.777L93.2546 121.241Z" fill="url(#paint36_linear_410_114)"/>
    <path d="M60.5116 110.643L58.3359 106.779L93.2574 128.307L127.975 106.779L126.003 110.643L93.2574 130.659L60.5116 110.643Z" fill="url(#paint37_linear_410_114)"/>
    <g style="mix-blend-mode:multiply" opacity="0.5">
        <path d="M58.3672 106.771L60.5429 110.635L61.0358 110.957V112.138C61.0358 112.138 62.9055 113.14 66.577 115.277C66.696 115.349 68.8802 117.772 68.8802 117.772C68.8802 117.772 92.4302 132.762 93.2801 132.762C94.3849 132.762 117.782 117.424 117.782 117.424C117.782 117.424 119.609 115.814 119.788 115.697L125.567 112.513V110.912L126 110.644L127.972 106.771L93.2546 128.308L58.3672 106.771Z" fill="#DE5634"/>
    </g>
    <path style="mix-blend-mode:multiply" opacity="0.69" d="M93.2539 121.241V128.307L127.971 106.77C127.88 104.718 127.479 102.695 126.782 100.777L93.2539 121.241Z" fill="url(#paint38_linear_410_114)"/>
    <g style="mix-blend-mode:soft-light" opacity="0.4">
        <path d="M61.6398 102.346C61.0024 102.346 61.5294 108.284 63.4586 109.644C66.5351 111.817 85.0879 123.319 86.3032 123.337C87.1531 123.337 87.1021 118.302 86.8472 117.908C86.4137 117.166 62.6172 102.346 61.6398 102.346Z" fill="#FFDF66"/>
    </g>
    <g style="mix-blend-mode:soft-light" opacity="0.4">
        <path d="M103.568 115.144C103.168 115.582 103.219 121.136 103.908 120.966C109.51 118.104 114.907 114.816 120.055 111.128C124.993 107.309 125.69 102.265 124.585 102.381C124.56 102.345 104.392 114.24 103.568 115.144Z" fill="#FFDF66"/>
    </g>
    <path d="M76.2773 117.846C76.2773 117.846 92.238 127.917 93.2749 127.917C94.3117 127.917 107.034 119.778 107.034 119.778C107.034 119.778 93.6658 128.721 93.3004 128.721C92.9349 128.721 76.2773 117.846 76.2773 117.846Z" fill="white"/>
    <path d="M93.2546 109.734L59.9225 89.2793C59.1507 91.1942 58.6276 93.2098 58.3672 95.2717L60.5429 99.1444L93.2546 119.161L126 99.1444L127.972 95.2717C127.912 93.2163 127.509 91.188 126.782 89.2793L93.2546 109.734Z" fill="url(#paint39_linear_410_114)"/>
    <path d="M60.5116 99.1403L58.3359 95.2676L93.2574 116.795L127.975 95.2676L126.003 99.1403L93.2574 119.148L60.5116 99.1403Z" fill="url(#paint40_linear_410_114)"/>
    <g style="mix-blend-mode:multiply" opacity="0.5">
        <path d="M58.3672 95.2676L60.5429 99.1403L61.0358 99.4623V100.607C61.0358 100.607 62.9055 101.609 66.577 103.746C66.696 103.818 68.8802 106.242 68.8802 106.242C68.8802 106.242 92.4302 121.258 93.2801 121.258C94.3849 121.258 117.782 105.875 117.782 105.875C117.782 105.875 119.609 104.265 119.788 104.149L125.567 100.965V99.3996L126 99.1403L127.972 95.2676L93.2546 116.795L58.3672 95.2676Z" fill="#DE5634"/>
    </g>
    <path style="mix-blend-mode:multiply" opacity="0.69" d="M93.2539 109.734V116.8L127.971 95.2717C127.88 93.2203 127.479 91.1974 126.782 89.2793L93.2539 109.734Z" fill="url(#paint41_linear_410_114)"/>
    <g style="mix-blend-mode:soft-light" opacity="0.4">
        <path d="M61.6398 90.834C61.0024 90.834 61.5294 96.7727 63.4586 98.1411C66.5351 100.306 85.0879 111.816 86.3032 111.825C87.1531 111.825 87.1021 106.79 86.8472 106.396C86.4137 105.654 62.6172 90.834 61.6398 90.834Z" fill="#FFDF66"/>
    </g>
    <g style="mix-blend-mode:soft-light" opacity="0.4">
        <path d="M103.568 103.634C103.168 104.072 103.219 109.626 103.908 109.456C109.51 106.594 114.907 103.306 120.055 99.6182C124.993 95.7992 125.69 90.7548 124.585 90.8711C124.56 90.8353 104.392 102.74 103.568 103.634Z" fill="#FFDF66"/>
    </g>
    <path d="M76.2773 106.334C76.2773 106.334 92.238 116.405 93.2749 116.405C94.3117 116.405 107.034 108.266 107.034 108.266C107.034 108.266 93.6658 117.21 93.3004 117.21C92.9349 117.21 76.2773 106.334 76.2773 106.334Z" fill="white"/>
    <g style="mix-blend-mode:multiply" opacity="0.5">
        <path d="M92.9783 100.179L85.8224 104.142L87.1822 95.7522L81.3945 89.8134L89.4004 88.5881L92.9783 80.959L96.5563 88.5881L104.562 89.8134L98.766 95.7522L100.134 104.142L92.9783 100.179Z" fill="#DE5634"/>
    </g>
    <path d="M103.716 90.1022L99.8576 89.5119L98.8037 89.351L96.2966 88.9664L92.9736 81.8828L89.6506 88.9664L82.2227 90.1022L87.6024 95.6117L86.3276 103.393L92.9736 99.7258L99.6111 103.393L98.3448 95.6117L103.716 90.1022Z" fill="url(#paint42_linear_410_114)"/>
    <path style="mix-blend-mode:multiply" opacity="0.37" d="M82.1914 90.0977L93.1293 93.1028L87.5626 95.6071L82.1914 90.0977Z" fill="url(#paint43_linear_410_114)"/>
    <path style="mix-blend-mode:multiply" opacity="0.37" d="M103.684 90.0977L93.1289 93.1028L98.3132 95.6071L103.684 90.0977Z" fill="url(#paint44_linear_410_114)"/>
    <path style="mix-blend-mode:multiply" opacity="0.37" d="M92.9344 99.722L93.1299 93.1035L86.2969 103.389L92.9344 99.722Z" fill="url(#paint45_linear_410_114)"/>
    <path style="mix-blend-mode:multiply" opacity="0.37" d="M99.5796 103.389L93.1291 93.1035L92.9336 99.722L99.5796 103.389Z" fill="url(#paint46_linear_410_114)"/>
    <path style="mix-blend-mode:color-dodge" opacity="0.5" d="M92.9336 81.8828L93.1291 93.1074L96.2566 88.9664L92.9336 81.8828Z" fill="url(#paint47_linear_410_114)"/>
    <path style="mix-blend-mode:color-dodge" opacity="0.5" d="M103.684 90.0988L93.1289 93.1039L96.2565 88.9629L103.684 90.0988Z" fill="url(#paint48_linear_410_114)"/>
    <path style="mix-blend-mode:color-dodge" opacity="0.5" d="M103.684 90.0988L93.1289 93.1039L96.2565 88.9629L103.684 90.0988Z" fill="url(#paint49_linear_410_114)"/>
    <path style="mix-blend-mode:color-dodge" opacity="0.5" d="M89.6193 88.9629L93.1293 93.1039L82.1914 90.0988L89.6193 88.9629Z" fill="url(#paint50_linear_410_114)"/>
    <path d="M96.2553 91.4248C95.7029 91.9167 96.1788 92.2387 96.1788 92.2387L99.0174 91.4248C98.6173 91.1146 98.1334 90.9473 97.6364 90.9473C97.1394 90.9473 96.6555 91.1146 96.2553 91.4248Z" fill="white"/>
    <g style="mix-blend-mode:multiply" opacity="0.5">
        <path d="M86.3281 103.387C86.3281 103.387 91.3679 100.892 92.9742 100.194L99.6117 103.387L92.9742 99.7109L86.3281 103.387Z" fill="#DE5634"/>
    </g>
    <g style="mix-blend-mode:multiply" opacity="0.5">
        <path d="M82.1914 90.0977L93.1293 93.1028L87.1207 98.5407L82.1914 90.0977Z" fill="#DE5634"/>
    </g>
    <g style="mix-blend-mode:multiply" opacity="0.5">
        <path d="M103.684 90.0977L93.1289 93.1028L98.9421 99.2651L103.684 90.0977Z" fill="#DE5634"/>
    </g>
    <g style="mix-blend-mode:multiply" opacity="0.5">
        <path d="M86.3281 103.389L93.1271 93.1035L99.6117 103.389L92.9742 102.289L86.3281 103.389Z" fill="#DE5634"/>
    </g>
    <g style="mix-blend-mode:soft-light" opacity="0.4">
        <path d="M90.5003 87.7395C89.7949 89.7966 92.4805 91.2365 92.846 90.6015C93.2114 89.9665 92.982 86.4337 92.523 85.9507C92.0641 85.4677 90.7893 86.8987 90.5003 87.7395Z" fill="#F7FFFF"/>
    </g>
    <g style="mix-blend-mode:soft-light" opacity="0.4">
        <path d="M88.3037 98.3043C89.7315 98.51 90.5304 96.7928 90.8533 95.6212C91.3208 93.7161 85.7031 97.9287 88.3037 98.3043Z" fill="#F7FFFF"/>
    </g>
    <path d="M72.8633 1.42578L80.0452 12.6063C80.7002 13.6259 81.8288 14.2424 83.0406 14.2424H103.984C105.196 14.2424 106.324 13.6259 106.979 12.6063L114.161 1.42578H72.8633Z" fill="url(#paint51_linear_410_114)"/>
    <path d="M90.2573 4.15685H91.8623L88.8418 11.1348H87.2469L84.2364 4.15685H85.9809L88.1042 9.14108L90.2573 4.15685ZM92.4449 11.1348V4.15685H94.0598V11.1348H92.4449ZM98.7362 4.15685C100.6 4.15685 101.767 5.12379 101.767 6.68884C101.767 8.24392 100.6 9.21086 98.7362 9.21086H97.3307V11.1348H95.7158V4.15685H98.7362ZM98.6465 7.89502C99.6334 7.89502 100.132 7.44644 100.132 6.68884C100.132 5.92127 99.6334 5.47269 98.6465 5.47269H97.3307V7.89502H98.6465Z" fill="white"/>
    <path d="M25.5948 14.2364H27.4917L28.9528 21.3752L30.4138 14.2364H32.2979L30.1703 23.1055H27.748L25.5948 14.2364ZM33.1425 23.1055V14.2364H34.9624V23.1055H33.1425ZM36.3466 23.1055V14.2364H38.1666V23.1055H36.3466Z" fill="white"/>
    <g style="mix-blend-mode:overlay">
        <g style="mix-blend-mode:color-dodge">
            <path fill-rule="evenodd" clip-rule="evenodd" d="M13.7656 8.54415C13.7656 4.6117 16.9535 1.42383 20.8859 1.42383H164.716C168.649 1.42383 171.837 4.6117 171.837 8.54414V85.844C171.837 88.0179 170.773 90.0541 168.988 91.2955V91.2955C167.204 92.537 166.14 94.5732 166.14 96.7471V113.212V115.35V131.815C166.14 133.989 167.204 136.025 168.988 137.266V137.266C170.773 138.508 171.837 140.544 171.837 142.718V216.457C171.837 220.39 168.649 223.578 164.716 223.578H20.8859C16.9535 223.578 13.7656 220.39 13.7656 216.457V143.96C13.7656 141.629 14.9064 139.446 16.8198 138.115L17.8271 137.414C19.7404 136.083 20.8812 133.9 20.8812 131.569L20.8812 115.355L20.8812 97.0021C20.8812 94.6713 19.7404 92.4881 17.8271 91.157L16.8198 90.4563C14.9064 89.1253 13.7656 86.942 13.7656 84.6112V8.54415Z" fill="url(#paint52_linear_410_114)"/>
        </g>
    </g>
    <defs>
        <filter id="filter0_b_410_114" x="-4.03627" y="-13.5285" width="63.3694" height="252.76" filterUnits="userSpaceOnUse" colorInterpolationFilters="sRGB">
            <feFlood floodOpacity="0" result="BackgroundImageFix"/>
            <feGaussianBlur in="BackgroundImageFix" stdDeviation="9.25641"/>
            <feComposite in2="SourceAlpha" operator="in" result="effect1_backgroundBlur_410_114"/>
            <feBlend mode="normal" in="SourceGraphic" in2="effect1_backgroundBlur_410_114" result="shape"/>
        </filter>
        <filter id="filter1_b_410_114" x="126.268" y="-13.5265" width="63.3694" height="252.76" filterUnits="userSpaceOnUse" colorInterpolationFilters="sRGB">
            <feFlood floodOpacity="0" result="BackgroundImageFix"/>
            <feGaussianBlur in="BackgroundImageFix" stdDeviation="9.25641"/>
            <feComposite in2="SourceAlpha" operator="in" result="effect1_backgroundBlur_410_114"/>
            <feBlend mode="normal" in="SourceGraphic" in2="effect1_backgroundBlur_410_114" result="shape"/>
        </filter>
        <filter id="filter2_i_410_114" x="12.3398" y="0" width="160.918" height="227.85" filterUnits="userSpaceOnUse" colorInterpolationFilters="sRGB">
            <feFlood floodOpacity="0" result="BackgroundImageFix"/>
            <feBlend mode="normal" in="SourceGraphic" in2="BackgroundImageFix" result="shape"/>
            <feColorMatrix in="SourceAlpha" type="matrix" values="0 0 0 0 0 0 0 0 0 0 0 0 0 0 0 0 0 0 127 0" result="hardAlpha"/>
            <feOffset dy="3.56016"/>
            <feGaussianBlur stdDeviation="1.42406"/>
            <feComposite in2="hardAlpha" operator="arithmetic" k2="-1" k3="1"/>
            <feColorMatrix type="matrix" values="0 0 0 0 0 0 0 0 0 0 0 0 0 0 0 0 0 0 0.25 0"/>
            <feBlend mode="normal" in2="shape" result="effect1_innerShadow_410_114"/>
        </filter>
        <filter id="filter3_f_410_114" x="0.234333" y="22.0742" width="185.84" height="180.856" filterUnits="userSpaceOnUse" colorInterpolationFilters="sRGB">
            <feFlood floodOpacity="0" result="BackgroundImageFix"/>
            <feBlend mode="normal" in="SourceGraphic" in2="BackgroundImageFix" result="shape"/>
            <feGaussianBlur stdDeviation="26.7012" result="effect1_foregroundBlur_410_114"/>
        </filter>
        <filter id="filter4_f_410_114" x="139.804" y="5.37266" width="26.7" height="26.698" filterUnits="userSpaceOnUse" colorInterpolationFilters="sRGB">
            <feFlood floodOpacity="0" result="BackgroundImageFix"/>
            <feBlend mode="normal" in="SourceGraphic" in2="BackgroundImageFix" result="shape"/>
            <feGaussianBlur stdDeviation="0.777539" result="effect1_foregroundBlur_410_114"/>
        </filter>
        <filter id="filter5_f_410_114" x="136.296" y="1.85703" width="33.7195" height="33.7195" filterUnits="userSpaceOnUse" colorInterpolationFilters="sRGB">
            <feFlood floodOpacity="0" result="BackgroundImageFix"/>
            <feBlend mode="normal" in="SourceGraphic" in2="BackgroundImageFix" result="shape"/>
            <feGaussianBlur stdDeviation="0.777539" result="effect1_foregroundBlur_410_114"/>
        </filter>
        <filter id="filter6_f_410_114" x="136.296" y="1.85703" width="33.7195" height="33.7195" filterUnits="userSpaceOnUse" colorInterpolationFilters="sRGB">
            <feFlood floodOpacity="0" result="BackgroundImageFix"/>
            <feBlend mode="normal" in="SourceGraphic" in2="BackgroundImageFix" result="shape"/>
            <feGaussianBlur stdDeviation="0.777539" result="effect1_foregroundBlur_410_114"/>
        </filter>
        <filter id="filter7_f_410_114" x="136.105" y="1.83359" width="26.7" height="26.698" filterUnits="userSpaceOnUse" colorInterpolationFilters="sRGB">
            <feFlood floodOpacity="0" result="BackgroundImageFix"/>
            <feBlend mode="normal" in="SourceGraphic" in2="BackgroundImageFix" result="shape"/>
            <feGaussianBlur stdDeviation="0.777539" result="effect1_foregroundBlur_410_114"/>
        </filter>
        <filter id="filter8_f_410_114" x="142.445" y="10.2438" width="26.5672" height="26.5691" filterUnits="userSpaceOnUse" colorInterpolationFilters="sRGB">
            <feFlood floodOpacity="0" result="BackgroundImageFix"/>
            <feBlend mode="normal" in="SourceGraphic" in2="BackgroundImageFix" result="shape"/>
            <feGaussianBlur stdDeviation="0.777539" result="effect1_foregroundBlur_410_114"/>
        </filter>
        <linearGradient id="paint0_linear_410_114" x1="9.49235" y1="211.161" x2="95.9982" y2="0.64228" gradientUnits="userSpaceOnUse">
            <stop stop-color="#060913"/>
            <stop offset="0.136764" stop-color="#070A16"/>
            <stop offset="0.197268" stop-color="#0D142E"/>
            <stop offset="0.309253" stop-color="#070B17"/>
            <stop offset="0.490764" stop-color="#080C1A"/>
            <stop offset="0.661458" stop-color="#0B1125"/>
            <stop offset="1" stop-color="#101010"/>
        </linearGradient>
        <linearGradient id="paint1_linear_410_114" x1="31.2093" y1="230.264" x2="78.274" y2="217.115" gradientUnits="userSpaceOnUse">
            <stop stop-color="#EECCA2"/>
            <stop offset="0.260417" stop-color="#624A2C"/>
            <stop offset="0.6875" stop-color="#FFDAAB"/>
            <stop offset="1" stop-color="#C68C43"/>
        </linearGradient>
        <linearGradient id="paint2_linear_410_114" x1="176.109" y1="14.5442" x2="89.6033" y2="225.063" gradientUnits="userSpaceOnUse">
            <stop stop-color="#060913"/>
            <stop offset="0.136764" stop-color="#070A16"/>
            <stop offset="0.197268" stop-color="#0D142E"/>
            <stop offset="0.309253" stop-color="#070B17"/>
            <stop offset="0.490764" stop-color="#080C1A"/>
            <stop offset="0.661458" stop-color="#0B1125"/>
            <stop offset="1" stop-color="#101010"/>
        </linearGradient>
        <linearGradient id="paint3_linear_410_114" x1="154.392" y1="-4.55942" x2="107.328" y2="8.59028" gradientUnits="userSpaceOnUse">
            <stop stop-color="#EECCA2"/>
            <stop offset="0.260417" stop-color="#624A2C"/>
            <stop offset="0.6875" stop-color="#FFDAAB"/>
            <stop offset="1" stop-color="#C68C43"/>
        </linearGradient>
        <linearGradient id="paint4_linear_410_114" x1="131.605" y1="-18.1568" x2="1.30335" y2="248.855" gradientUnits="userSpaceOnUse">
            <stop stop-color="#C68C43"/>
            <stop offset="0.119792" stop-color="#F5BA6E"/>
            <stop offset="0.286458" stop-color="#C68C43"/>
            <stop offset="0.5625" stop-color="#C68C43"/>
            <stop offset="0.770833" stop-color="#EEB873"/>
            <stop offset="1" stop-color="#C68C43"/>
        </linearGradient>
        <linearGradient id="paint5_linear_410_114" x1="93.5578" y1="110.237" x2="93.5578" y2="-33.0086" gradientUnits="userSpaceOnUse">
            <stop stop-color="#CA6B34"/>
            <stop offset="0.67" stop-color="#FFA933"/>
            <stop offset="1" stop-color="#FFBD2B"/>
        </linearGradient>
        <linearGradient id="paint6_linear_410_114" x1="57.8618" y1="34.1445" x2="57.8618" y2="65.0351" gradientUnits="userSpaceOnUse">
            <stop stop-color="#C10065"/>
            <stop offset="1" stop-color="white"/>
        </linearGradient>
        <linearGradient id="paint7_linear_410_114" x1="129.775" y1="34.1445" x2="129.775" y2="65.0351" gradientUnits="userSpaceOnUse">
            <stop stop-color="#C10065"/>
            <stop offset="1" stop-color="white"/>
        </linearGradient>
        <linearGradient id="paint8_linear_410_114" x1="71.6193" y1="50.7227" x2="71.6193" y2="107.983" gradientUnits="userSpaceOnUse">
            <stop stop-color="#C10065"/>
            <stop offset="1" stop-color="white"/>
        </linearGradient>
        <linearGradient id="paint9_linear_410_114" x1="115.159" y1="50.7227" x2="115.159" y2="107.983" gradientUnits="userSpaceOnUse">
            <stop stop-color="#C10065"/>
            <stop offset="1" stop-color="white"/>
        </linearGradient>
        <linearGradient id="paint10_linear_410_114" x1="99.3354" y1="-3.04297" x2="107.093" y2="77.9998" gradientUnits="userSpaceOnUse">
            <stop stop-color="#BFD7FF"/>
            <stop offset="1"/>
        </linearGradient>
        <linearGradient id="paint11_linear_410_114" x1="94.4531" y1="39.0414" x2="165.098" y2="39.0414" gradientUnits="userSpaceOnUse">
            <stop stop-color="#BFD7FF"/>
            <stop offset="1"/>
        </linearGradient>
        <linearGradient id="paint12_linear_410_114" x1="123.917" y1="-5.30534" x2="131.732" y2="75.6414" gradientUnits="userSpaceOnUse">
            <stop stop-color="#BFD7FF"/>
            <stop offset="1"/>
        </linearGradient>
        <linearGradient id="paint13_linear_410_114" x1="52.8546" y1="1.54047" x2="60.6676" y2="82.4878" gradientUnits="userSpaceOnUse">
            <stop stop-color="#BFD7FF"/>
            <stop offset="1"/>
        </linearGradient>
        <linearGradient id="paint14_linear_410_114" x1="125.125" y1="115.842" x2="125.118" y2="99.0342" gradientUnits="userSpaceOnUse">
            <stop stop-color="#CA6B34"/>
            <stop offset="0.67" stop-color="#FFA933"/>
            <stop offset="1" stop-color="#FFBD2B"/>
        </linearGradient>
        <linearGradient id="paint15_linear_410_114" x1="73.3181" y1="136.835" x2="73.2168" y2="120.05" gradientUnits="userSpaceOnUse">
            <stop stop-color="#CA6B34"/>
            <stop offset="0.67" stop-color="#FFA933"/>
            <stop offset="1" stop-color="#FFBD2B"/>
        </linearGradient>
        <linearGradient id="paint16_linear_410_114" x1="68.3139" y1="154.299" x2="89.5438" y2="154.299" gradientUnits="userSpaceOnUse">
            <stop stop-color="#DE3C14"/>
            <stop offset="0.07" stop-color="#C72E10"/>
            <stop offset="0.19" stop-color="#AB1C0C"/>
            <stop offset="0.3" stop-color="#971009"/>
            <stop offset="0.41" stop-color="#8B0807"/>
            <stop offset="0.52" stop-color="#870606"/>
            <stop offset="0.62" stop-color="#8C0707"/>
            <stop offset="0.73" stop-color="#9A0808"/>
            <stop offset="0.85" stop-color="#B20B0B"/>
            <stop offset="0.97" stop-color="#D30E0E"/>
            <stop offset="1" stop-color="#DB0F0F"/>
        </linearGradient>
        <linearGradient id="paint17_linear_410_114" x1="96.7656" y1="154.299" x2="117.996" y2="154.299" gradientUnits="userSpaceOnUse">
            <stop stop-color="#DE3C14"/>
            <stop offset="0.07" stop-color="#C72E10"/>
            <stop offset="0.19" stop-color="#AB1C0C"/>
            <stop offset="0.3" stop-color="#971009"/>
            <stop offset="0.41" stop-color="#8B0807"/>
            <stop offset="0.52" stop-color="#870606"/>
            <stop offset="0.62" stop-color="#8C0707"/>
            <stop offset="0.73" stop-color="#9A0808"/>
            <stop offset="0.85" stop-color="#B20B0B"/>
            <stop offset="0.97" stop-color="#D30E0E"/>
            <stop offset="1" stop-color="#DB0F0F"/>
        </linearGradient>
        <linearGradient id="paint18_linear_410_114" x1="68.3146" y1="154.301" x2="89.5445" y2="154.301" gradientUnits="userSpaceOnUse">
            <stop stop-color="#B41E2D"/>
            <stop offset="1" stop-color="#E54136"/>
        </linearGradient>
        <linearGradient id="paint19_linear_410_114" x1="96.7656" y1="154.296" x2="117.996" y2="154.296" gradientUnits="userSpaceOnUse">
            <stop stop-color="#B41E2D"/>
            <stop offset="1" stop-color="#E54136"/>
        </linearGradient>
        <linearGradient id="paint20_linear_410_114" x1="74.6588" y1="77.812" x2="74.6588" y2="95.2168" gradientUnits="userSpaceOnUse">
            <stop stop-color="#C10065"/>
            <stop offset="1" stop-color="white"/>
        </linearGradient>
        <linearGradient id="paint21_linear_410_114" x1="111.648" y1="77.812" x2="111.648" y2="95.2168" gradientUnits="userSpaceOnUse">
            <stop stop-color="#C10065"/>
            <stop offset="1" stop-color="white"/>
        </linearGradient>
        <linearGradient id="paint22_linear_410_114" x1="53.535" y1="129.678" x2="53.535" y2="111.12" gradientUnits="userSpaceOnUse">
            <stop stop-color="#CA6B34"/>
            <stop offset="0.67" stop-color="#FFA933"/>
            <stop offset="1" stop-color="#FFBD2B"/>
        </linearGradient>
        <linearGradient id="paint23_linear_410_114" x1="55.5782" y1="119.687" x2="55.5782" y2="128.354" gradientUnits="userSpaceOnUse">
            <stop stop-color="#C10065"/>
            <stop offset="1" stop-color="white"/>
        </linearGradient>
        <linearGradient id="paint24_linear_410_114" x1="132.786" y1="129.678" x2="132.786" y2="111.12" gradientUnits="userSpaceOnUse">
            <stop stop-color="#CA6B34"/>
            <stop offset="0.67" stop-color="#FFA933"/>
            <stop offset="1" stop-color="#FFBD2B"/>
        </linearGradient>
        <linearGradient id="paint25_linear_410_114" x1="130.727" y1="119.687" x2="130.727" y2="128.354" gradientUnits="userSpaceOnUse">
            <stop stop-color="#C10065"/>
            <stop offset="1" stop-color="white"/>
        </linearGradient>
        <linearGradient id="paint26_linear_410_114" x1="93.2829" y1="155.158" x2="93.2829" y2="81.3804" gradientUnits="userSpaceOnUse">
            <stop stop-color="#CA6B34"/>
            <stop offset="0.67" stop-color="#FFA933"/>
            <stop offset="1" stop-color="#FFBD2B"/>
        </linearGradient>
        <linearGradient id="paint27_linear_410_114" x1="93.2802" y1="68.4041" x2="93.2802" y2="142.567" gradientUnits="userSpaceOnUse">
            <stop stop-color="#CA6B34"/>
            <stop offset="0.17" stop-color="#CC6E34"/>
            <stop offset="0.29" stop-color="#D27733"/>
            <stop offset="0.39" stop-color="#DB8631"/>
            <stop offset="0.48" stop-color="#E99B2F"/>
            <stop offset="0.57" stop-color="#FBB72C"/>
            <stop offset="0.59" stop-color="#FFBD2B"/>
            <stop offset="1" stop-color="#FFA933"/>
        </linearGradient>
        <linearGradient id="paint28_linear_410_114" x1="93.2832" y1="144.22" x2="93.2832" y2="77.1055" gradientUnits="userSpaceOnUse">
            <stop stop-color="#B75014"/>
            <stop offset="0.38" stop-color="#E8692A"/>
            <stop offset="1" stop-color="#F58E2F"/>
        </linearGradient>
        <linearGradient id="paint29_linear_410_114" x1="63.8822" y1="113.023" x2="63.8822" y2="133.263" gradientUnits="userSpaceOnUse">
            <stop stop-color="#C10065"/>
            <stop offset="1" stop-color="white"/>
        </linearGradient>
        <linearGradient id="paint30_linear_410_114" x1="122.554" y1="113.023" x2="122.554" y2="133.263" gradientUnits="userSpaceOnUse">
            <stop stop-color="#C10065"/>
            <stop offset="1" stop-color="white"/>
        </linearGradient>
        <linearGradient id="paint31_linear_410_114" x1="77.7721" y1="131.519" x2="77.7721" y2="152.438" gradientUnits="userSpaceOnUse">
            <stop stop-color="#C10065"/>
            <stop offset="1" stop-color="white"/>
        </linearGradient>
        <linearGradient id="paint32_linear_410_114" x1="108.792" y1="131.529" x2="108.792" y2="152.851" gradientUnits="userSpaceOnUse">
            <stop stop-color="#C10065"/>
            <stop offset="1" stop-color="white"/>
        </linearGradient>
        <linearGradient id="paint33_linear_410_114" x1="93.1526" y1="78.4005" x2="93.1526" y2="131.876" gradientUnits="userSpaceOnUse">
            <stop stop-color="#CA6B34"/>
            <stop offset="0.67" stop-color="#FFA933"/>
            <stop offset="1" stop-color="#FFBD2B"/>
        </linearGradient>
        <linearGradient id="paint34_linear_410_114" x1="93.1554" y1="142.118" x2="93.1554" y2="118.238" gradientUnits="userSpaceOnUse">
            <stop stop-color="#F1CB3C"/>
            <stop offset="1" stop-color="#FFC14F"/>
        </linearGradient>
        <linearGradient id="paint35_linear_410_114" x1="110.617" y1="112.244" x2="110.617" y2="139.764" gradientUnits="userSpaceOnUse">
            <stop stop-color="#C10065"/>
            <stop offset="1" stop-color="white"/>
        </linearGradient>
        <linearGradient id="paint36_linear_410_114" x1="93.1526" y1="70.6275" x2="93.1526" y2="124.103" gradientUnits="userSpaceOnUse">
            <stop stop-color="#CA6B34"/>
            <stop offset="0.67" stop-color="#FFA933"/>
            <stop offset="1" stop-color="#FFBD2B"/>
        </linearGradient>
        <linearGradient id="paint37_linear_410_114" x1="93.1554" y1="130.659" x2="93.1554" y2="106.779" gradientUnits="userSpaceOnUse">
            <stop stop-color="#F1CB3C"/>
            <stop offset="1" stop-color="#FFC14F"/>
        </linearGradient>
        <linearGradient id="paint38_linear_410_114" x1="110.617" y1="100.786" x2="110.617" y2="128.307" gradientUnits="userSpaceOnUse">
            <stop stop-color="#C10065"/>
            <stop offset="1" stop-color="white"/>
        </linearGradient>
        <linearGradient id="paint39_linear_410_114" x1="93.1526" y1="57.8952" x2="93.1526" y2="111.371" gradientUnits="userSpaceOnUse">
            <stop stop-color="#CA6B34"/>
            <stop offset="0.67" stop-color="#FFA933"/>
            <stop offset="1" stop-color="#FFBD2B"/>
        </linearGradient>
        <linearGradient id="paint40_linear_410_114" x1="93.1554" y1="119.157" x2="93.1554" y2="95.2676" gradientUnits="userSpaceOnUse">
            <stop stop-color="#F1CB3C"/>
            <stop offset="1" stop-color="#FFC14F"/>
        </linearGradient>
        <linearGradient id="paint41_linear_410_114" x1="110.617" y1="89.2793" x2="110.617" y2="116.8" gradientUnits="userSpaceOnUse">
            <stop stop-color="#C10065"/>
            <stop offset="1" stop-color="white"/>
        </linearGradient>
        <linearGradient id="paint42_linear_410_114" x1="92.9736" y1="103.804" x2="92.9736" y2="78.2337" gradientUnits="userSpaceOnUse">
            <stop stop-color="#CA6B34"/>
            <stop offset="0.67" stop-color="#FFA933"/>
            <stop offset="1" stop-color="#FFBD2B"/>
        </linearGradient>
        <linearGradient id="paint43_linear_410_114" x1="87.6561" y1="90.0977" x2="87.6561" y2="95.6071" gradientUnits="userSpaceOnUse">
            <stop stop-color="#C10065"/>
            <stop offset="1" stop-color="white"/>
        </linearGradient>
        <linearGradient id="paint44_linear_410_114" x1="98.4066" y1="90.0977" x2="98.4066" y2="95.6071" gradientUnits="userSpaceOnUse">
            <stop stop-color="#C10065"/>
            <stop offset="1" stop-color="white"/>
        </linearGradient>
        <linearGradient id="paint45_linear_410_114" x1="89.7134" y1="93.1035" x2="89.7134" y2="103.389" gradientUnits="userSpaceOnUse">
            <stop stop-color="#C10065"/>
            <stop offset="1" stop-color="white"/>
        </linearGradient>
        <linearGradient id="paint46_linear_410_114" x1="96.2566" y1="93.1035" x2="96.2566" y2="103.389" gradientUnits="userSpaceOnUse">
            <stop stop-color="#C10065"/>
            <stop offset="1" stop-color="white"/>
        </linearGradient>
        <linearGradient id="paint47_linear_410_114" x1="93.9195" y1="83.5732" x2="95.5645" y2="97.9011" gradientUnits="userSpaceOnUse">
            <stop stop-color="#BFD7FF"/>
            <stop offset="1"/>
        </linearGradient>
        <linearGradient id="paint48_linear_410_114" x1="93.1289" y1="91.0379" x2="103.684" y2="91.0379" gradientUnits="userSpaceOnUse">
            <stop stop-color="#BFD7FF"/>
            <stop offset="1"/>
        </linearGradient>
        <linearGradient id="paint49_linear_410_114" x1="97.5313" y1="83.1494" x2="99.1763" y2="97.4772" gradientUnits="userSpaceOnUse">
            <stop stop-color="#BFD7FF"/>
            <stop offset="1"/>
        </linearGradient>
        <linearGradient id="paint50_linear_410_114" x1="86.9082" y1="84.3747" x2="88.5533" y2="98.7025" gradientUnits="userSpaceOnUse">
            <stop stop-color="#BFD7FF"/>
            <stop offset="1"/>
        </linearGradient>
        <linearGradient id="paint51_linear_410_114" x1="105.973" y1="-0.354298" x2="74.2873" y2="16.0224" gradientUnits="userSpaceOnUse">
            <stop stop-color="#C68C43"/>
            <stop offset="0.119792" stop-color="#F5BA6E"/>
            <stop offset="0.286458" stop-color="#C68C43"/>
            <stop offset="0.5625" stop-color="#C68C43"/>
            <stop offset="0.770833" stop-color="#EEB873"/>
            <stop offset="1" stop-color="#C68C43"/>
        </linearGradient>
        <linearGradient id="paint52_linear_410_114" x1="60.4037" y1="43.0777" x2="23.0243" y2="79.3937" gradientUnits="userSpaceOnUse">
            <stop stop-color="white" stop-opacity="0"/>
            <stop offset="0.440223" stop-color="white"/>
            <stop offset="1" stop-color="white" stop-opacity="0"/>
        </linearGradient>
    </defs>
</svg>
