<svg width="187" height="225" viewBox="0 0 187 225" fill="none" xmlns="http://www.w3.org/2000/svg">
    <g filter="url(#filter0_b_410_903)">
        <path d="M18.1461 220.719C16.1799 220.719 14.5859 219.125 14.5859 217.159L14.5859 8.54493C14.5859 6.57871 16.1799 4.98477 18.1461 4.98477L40.9311 4.98477L40.9311 220.719L18.1461 220.719Z" fill="url(#paint0_linear_410_903)"/>
        <path d="M15.298 217.159L15.298 8.54494C15.298 6.97195 16.5731 5.69681 18.1461 5.69681L40.2191 5.69681L40.2191 220.007L18.1461 220.007C16.5731 220.007 15.298 218.732 15.298 217.159Z" stroke="url(#paint1_linear_410_903)" stroke-width="1.42406"/>
    </g>
    <g filter="url(#filter1_b_410_903)">
        <path d="M167.674 4.98633C169.64 4.98633 171.234 6.58027 171.234 8.54649L171.234 217.16C171.234 219.126 169.64 220.72 167.674 220.72L144.889 220.72L144.889 4.98633L167.674 4.98633Z" fill="url(#paint2_linear_410_903)"/>
        <path d="M170.522 8.54649L170.522 217.16C170.522 218.733 169.247 220.008 167.674 220.008L145.601 220.008L145.601 5.69836L167.674 5.69836C169.247 5.69836 170.522 6.97351 170.522 8.54649Z" stroke="url(#paint3_linear_410_903)" stroke-width="1.42406"/>
    </g>
    <mask id="path-5-inside-1_410_903" fill="white">
        <path fill-rule="evenodd" clip-rule="evenodd" d="M12.4492 7.12032C12.4492 3.18787 15.6371 0 19.5695 0H166.248C170.181 0 173.368 3.18786 173.368 7.12031V82.6811C173.368 85.0119 172.228 87.1951 170.314 88.5262L168.591 89.7247C166.678 91.0558 165.537 93.239 165.537 95.5699V111.784V113.922V130.137C165.537 132.467 166.678 134.651 168.591 135.982L170.314 137.18C172.228 138.511 173.368 140.695 173.368 143.025V217.882C173.368 221.814 170.181 225.002 166.248 225.002H19.5695C15.6371 225.002 12.4492 221.814 12.4492 217.882V143.029C12.4492 140.698 13.59 138.515 15.5034 137.184L17.2245 135.986C19.1379 134.655 20.2787 132.472 20.2787 130.141L20.2787 111.789L20.2787 95.5744C20.2787 93.2436 19.1379 91.0603 17.2245 89.7293L15.5034 88.532C13.59 87.2009 12.4492 85.0177 12.4492 82.6869V7.12032Z"/>
    </mask>
    <g filter="url(#filter2_i_410_903)">
        <path fill-rule="evenodd" clip-rule="evenodd" d="M12.4492 7.12032C12.4492 3.18787 15.6371 0 19.5695 0H166.248C170.181 0 173.368 3.18786 173.368 7.12031V82.6811C173.368 85.0119 172.228 87.1951 170.314 88.5262L168.591 89.7247C166.678 91.0558 165.537 93.239 165.537 95.5699V111.784V113.922V130.137C165.537 132.467 166.678 134.651 168.591 135.982L170.314 137.18C172.228 138.511 173.368 140.695 173.368 143.025V217.882C173.368 221.814 170.181 225.002 166.248 225.002H19.5695C15.6371 225.002 12.4492 221.814 12.4492 217.882V143.029C12.4492 140.698 13.59 138.515 15.5034 137.184L17.2245 135.986C19.1379 134.655 20.2787 132.472 20.2787 130.141L20.2787 111.789L20.2787 95.5744C20.2787 93.2436 19.1379 91.0603 17.2245 89.7293L15.5034 88.532C13.59 87.2009 12.4492 85.0177 12.4492 82.6869V7.12032Z" fill="#090E1C"/>
    </g>
    <path d="M20.2787 111.789L21.7027 111.789L21.7027 111.789L20.2787 111.789ZM15.5034 137.184L14.6901 136.015L15.5034 137.184ZM170.314 137.18L171.127 136.011L170.314 137.18ZM168.591 89.7247L167.778 88.5557L168.591 89.7247ZM20.2787 95.5744L18.8546 95.5744L20.2787 95.5744ZM17.2245 89.7293L16.4113 90.8983L17.2245 89.7293ZM170.314 88.5262L171.128 89.6952L170.314 88.5262ZM168.591 135.982L167.778 137.151L168.591 135.982ZM17.2245 135.986L18.0377 137.155L17.2245 135.986ZM166.248 -1.42406H19.5695V1.42406H166.248V-1.42406ZM174.792 82.6811V7.12031H171.944V82.6811H174.792ZM169.405 90.8938L171.128 89.6952L169.501 87.3571L167.778 88.5557L169.405 90.8938ZM166.961 111.784V95.5699H164.113V111.784H166.961ZM166.961 113.922V111.784H164.113V113.922H166.961ZM166.961 130.137V113.922H164.113V130.137H166.961ZM171.127 136.011L169.405 134.813L167.778 137.151L169.501 138.349L171.127 136.011ZM174.792 217.882V143.025H171.944V217.882H174.792ZM19.5695 226.426H166.248V223.578H19.5695V226.426ZM11.0252 143.029V217.882H13.8733V143.029H11.0252ZM16.3166 138.353L18.0377 137.155L16.4113 134.817L14.6901 136.015L16.3166 138.353ZM21.7027 130.141L21.7027 111.789L18.8546 111.789L18.8546 130.141L21.7027 130.141ZM21.7027 111.789L21.7027 95.5744L18.8546 95.5744L18.8546 111.789L21.7027 111.789ZM18.0377 88.5603L16.3166 87.363L14.6901 89.701L16.4113 90.8983L18.0377 88.5603ZM11.0252 7.12032V82.6869H13.8733V7.12032H11.0252ZM16.3166 87.363C14.7859 86.2981 13.8733 84.5515 13.8733 82.6869H11.0252C11.0252 85.4839 12.3941 88.1038 14.6901 89.701L16.3166 87.363ZM13.8733 143.029C13.8733 141.164 14.7859 139.417 16.3166 138.353L14.6901 136.015C12.3941 137.612 11.0252 140.232 11.0252 143.029H13.8733ZM19.5695 223.578C16.4236 223.578 13.8733 221.028 13.8733 217.882H11.0252C11.0252 222.601 14.8506 226.426 19.5695 226.426V223.578ZM171.944 217.882C171.944 221.028 169.394 223.578 166.248 223.578V226.426C170.967 226.426 174.792 222.601 174.792 217.882H171.944ZM169.501 138.349C171.032 139.414 171.944 141.161 171.944 143.025H174.792C174.792 140.228 173.424 137.609 171.127 136.011L169.501 138.349ZM167.778 88.5557C165.482 90.153 164.113 92.7729 164.113 95.5699H166.961C166.961 93.7052 167.874 91.9586 169.405 90.8938L167.778 88.5557ZM21.7027 95.5744C21.7027 92.7774 20.3338 90.1575 18.0377 88.5603L16.4113 90.8983C17.942 91.9632 18.8546 93.7098 18.8546 95.5744L21.7027 95.5744ZM171.944 82.6811C171.944 84.5457 171.032 86.2923 169.501 87.3571L171.128 89.6952C173.424 88.0979 174.792 85.478 174.792 82.6811H171.944ZM164.113 130.137C164.113 132.934 165.482 135.554 167.778 137.151L169.405 134.813C167.874 133.748 166.961 132.001 166.961 130.137H164.113ZM19.5695 -1.42406C14.8506 -1.42406 11.0252 2.40139 11.0252 7.12032H13.8733C13.8733 3.97436 16.4236 1.42406 19.5695 1.42406V-1.42406ZM18.0377 137.155C20.3338 135.558 21.7027 132.938 21.7027 130.141L18.8546 130.141C18.8546 132.006 17.942 133.752 16.4113 134.817L18.0377 137.155ZM166.248 1.42406C169.394 1.42406 171.944 3.97436 171.944 7.12031H174.792C174.792 2.40137 170.967 -1.42406 166.248 -1.42406V1.42406Z" fill="url(#paint4_linear_410_903)" mask="url(#path-5-inside-1_410_903)"/>
    <mask id="mask0_410_903" style="mask-type:alpha" maskUnits="userSpaceOnUse" x="13" y="1" width="159" height="223">
        <path fill-rule="evenodd" clip-rule="evenodd" d="M13.875 8.5461C13.875 4.61366 17.0629 1.42578 20.9953 1.42578H164.826C168.758 1.42578 171.946 4.61366 171.946 8.5461V83.0261C171.946 85.3508 170.811 87.5292 168.906 88.8614L167.293 89.9894C165.387 91.3216 164.253 93.4999 164.253 95.8247V111.799V113.909V129.883C164.253 132.208 165.387 134.386 167.293 135.718L168.906 136.847C170.811 138.179 171.946 140.357 171.946 142.682V216.459C171.946 220.392 168.758 223.58 164.826 223.58H20.9953C17.0629 223.58 13.875 220.392 13.875 216.459V142.683C13.875 140.358 15.0099 138.18 16.9151 136.848L18.5305 135.718C20.4357 134.386 21.5706 132.208 21.5706 129.883L21.5706 111.799L21.5706 95.8244C21.5706 93.4996 20.4357 91.3212 18.5305 89.989L16.9151 88.8595C15.0099 87.5274 13.875 85.349 13.875 83.0242V8.5461Z" fill="#090E1C"/>
    </mask>
    <g mask="url(#mask0_410_903)">
        <rect x="13.1602" y="225.717" width="225.714" height="80.4596" transform="rotate(-90 13.1602 225.717)" fill="#060911"/>
        <g opacity="0.2">
            <g style="mix-blend-mode:multiply" opacity="0.5">
                <path d="M93.2683 90.4037L45.1035 112.502L54.3131 65.6056L15.3008 32.4082L69.1859 25.5588L93.2683 -17.0879L117.351 25.5588L171.236 32.4082L132.281 65.6056L141.49 112.502L93.2683 90.4037Z" fill="#DE5634"/>
            </g>
            <path d="M166.063 33.4786L140.024 30.1717L132.927 29.2699L116.044 27.1154L93.6671 -12.5664L71.2901 27.1154L21.3281 33.4786L57.4976 64.3422L48.9703 107.982L93.6671 87.3898L138.421 107.982L129.894 64.3422L166.063 33.4786Z" fill="url(#paint5_linear_410_903)"/>
            <path style="mix-blend-mode:multiply" opacity="0.37" d="M21.3281 34.1445L94.5573 51.0441L57.3453 65.0351L21.3281 34.1445Z" fill="url(#paint6_linear_410_903)"/>
            <path style="mix-blend-mode:multiply" opacity="0.37" d="M165.207 34.1445L94.5625 51.0441L129.259 65.0351L165.207 34.1445Z" fill="url(#paint7_linear_410_903)"/>
            <path style="mix-blend-mode:multiply" opacity="0.37" d="M93.3096 87.5188L94.559 50.7227L48.8984 107.983L93.3096 87.5188Z" fill="url(#paint8_linear_410_903)"/>
            <path style="mix-blend-mode:multiply" opacity="0.37" d="M137.639 107.983L94.1018 50.7227L92.8398 87.5188L137.639 107.983Z" fill="url(#paint9_linear_410_903)"/>
            <path style="mix-blend-mode:color-dodge" opacity="0.5" d="M92.8398 -12.5664L94.1034 50.7216L115.239 27.3413L92.8398 -12.5664Z" fill="url(#paint10_linear_410_903)"/>
            <path style="mix-blend-mode:color-dodge" opacity="0.5" d="M165.207 33.7561L94.5625 50.7196L115.494 27.3633L165.207 33.7561Z" fill="url(#paint11_linear_410_903)"/>
            <path style="mix-blend-mode:color-dodge" opacity="0.5" d="M165.207 33.7561L94.5625 50.7196L115.494 27.3633L165.207 33.7561Z" fill="url(#paint12_linear_410_903)"/>
            <path style="mix-blend-mode:color-dodge" opacity="0.5" d="M71.058 27.3633L94.5573 50.7196L21.3281 33.7561L71.058 27.3633Z" fill="url(#paint13_linear_410_903)"/>
            <path d="M115.355 41.1907C111.587 43.7444 114.775 45.4469 114.775 45.4469L134.192 41.1907C131.463 39.5507 128.163 38.666 124.773 38.666C121.384 38.666 118.084 39.5507 115.355 41.1907Z" fill="white"/>
            <g style="mix-blend-mode:multiply" opacity="0.5">
                <path d="M48.8984 107.981C48.8984 107.981 82.8345 93.9519 93.6688 90.0938L138.496 107.981L93.6688 87.6387L48.8984 107.981Z" fill="#DE5634"/>
            </g>
            <g style="mix-blend-mode:soft-light" opacity="0.4">
                <path d="M76.4086 20.4186C71.575 31.8617 90.0359 39.8371 92.4818 36.32C94.9278 32.8029 93.4136 13.1862 90.3271 10.5607C87.2406 7.93527 78.3887 15.7621 76.4086 20.4186Z" fill="#F7FFFF"/>
            </g>
            <g style="mix-blend-mode:soft-light" opacity="0.4">
                <path d="M62.0661 80.0079C71.5325 81.1747 76.7979 71.4345 78.8704 64.7888C81.9512 53.9833 44.9258 78.1816 62.0661 80.0079Z" fill="#F7FFFF"/>
            </g>
        </g>
    </g>
    <g filter="url(#filter3_f_410_903)">
        <ellipse cx="93.2639" cy="112.502" rx="39.5178" ry="37.0257" fill="#FF5C00"/>
    </g>
    <rect x="144.176" y="9.25781" width="18.5128" height="18.5128" rx="9.25641" fill="#151C30"/>
    <rect x="144.532" y="9.61383" width="17.8008" height="17.8008" rx="8.9004" stroke="#C68C43" stroke-width="0.712032"/>
    <g style="mix-blend-mode:soft-light">
        <mask id="mask1_410_903" style="mask-type:alpha" maskUnits="userSpaceOnUse" x="144" y="9" width="19" height="19">
            <rect x="144.176" y="9.25781" width="18.5128" height="18.5128" rx="9.25641" fill="#101520"/>
        </mask>
        <g mask="url(#mask1_410_903)">
            <g filter="url(#filter4_f_410_903)">
                <path d="M141.602 30.3848L164.928 7.05859" stroke="white" stroke-width="0.370257"/>
            </g>
            <g filter="url(#filter5_f_410_903)">
                <path d="M138.289 33.694L168.243 3.74023" stroke="white" stroke-width="0.925641"/>
            </g>
            <g filter="url(#filter6_f_410_903)">
                <path d="M138.289 33.694L168.243 3.74023" stroke="white" stroke-width="0.925641"/>
            </g>
            <g opacity="0.5" filter="url(#filter7_f_410_903)">
                <path d="M137.902 26.8457L161.229 3.51953" stroke="white" stroke-width="0.370257"/>
            </g>
            <g opacity="0.5" filter="url(#filter8_f_410_903)">
                <path d="M144.176 35.1914L167.502 11.8652" stroke="white" stroke-width="0.185128"/>
            </g>
        </g>
    </g>
    <path d="M155.821 20.8877C155.352 21.246 154.81 21.3322 154.81 21.3322C155.193 21.0533 155.934 20.2699 155.504 19.4201C155.075 18.5703 153.435 18.0195 153.435 18.0195C153.435 18.0195 151.796 18.5706 151.365 19.4201C150.935 20.2696 151.676 21.0533 152.06 21.3322C152.06 21.3322 151.517 21.2458 151.048 20.8874C151.048 20.8874 149.898 21.8964 149.766 23.065C149.766 23.065 150.817 22.2883 153.435 22.2883C156.053 22.2883 157.104 23.065 157.104 23.065C156.972 21.8967 155.821 20.8877 155.821 20.8877ZM153.627 20.881L153.435 21.1998L153.244 20.881C152.007 20.7881 151.782 19.8652 151.782 19.8652L152.397 19.5069L152.231 19.2149L153.434 19.945L154.639 19.2149L154.472 19.5069L155.087 19.8652C155.087 19.8652 154.863 20.7881 153.626 20.881H153.627Z" fill="white"/>
    <path d="M156.818 14.8292C156.818 14.8292 157.901 14.9549 158.418 15.4776C158.418 15.4776 157.618 13.9824 155.926 13.9824C154.233 13.9824 153.433 14.9021 153.433 14.9021C153.433 14.9021 152.634 13.9824 150.941 13.9824C149.249 13.9824 148.449 15.4776 148.449 15.4776C148.965 14.9549 150.049 14.8292 150.049 14.8292C149.19 15.0813 148.528 16.1077 148.535 17.3372C148.542 18.5667 149.018 19.4475 149.487 19.5606C149.956 19.6737 150.207 19.2232 150.908 18.5601C151.609 17.897 152.323 17.7927 152.323 17.7927C151.616 17.4751 151.146 17.6604 150.677 17.8125C150.207 17.9645 149.824 18.0176 149.553 17.4687C149.282 16.9198 149.798 16.3175 149.798 16.3175C149.507 16.3639 149.229 16.5954 149.229 16.5954C149.494 15.9668 149.831 15.7948 150.379 15.775C150.928 15.7553 151.179 15.9006 151.754 16.225C152.329 16.5493 152.832 16.9262 153.13 16.6813C153.427 16.4365 152.984 15.6097 152.984 15.6097C153.308 15.8214 153.433 16.2644 153.433 16.2644C153.433 16.2644 153.559 15.8214 153.883 15.6097C153.883 15.6097 153.439 16.4365 153.737 16.6813C154.036 16.9262 154.538 16.549 155.113 16.225C155.688 15.9009 155.939 15.7553 156.488 15.775C157.036 15.7948 157.373 15.9687 157.637 16.5963C157.637 16.5963 157.359 16.3648 157.068 16.3184C157.068 16.3184 157.584 16.9203 157.313 17.4695C157.042 18.0187 156.659 17.9656 156.189 17.8133C155.72 17.661 155.25 17.4759 154.543 17.7936C154.543 17.7936 155.257 17.8995 155.958 18.5609C156.658 19.2224 156.91 19.6726 157.379 19.5614C157.849 19.4503 158.323 18.569 158.331 17.3381C158.339 16.1071 157.677 15.0813 156.818 14.8292Z" fill="white"/>
    <path d="M155.927 13.9824C154.233 13.9824 153.432 14.9088 153.432 14.9088C153.432 14.9088 152.631 13.9824 150.937 13.9824C149.676 13.9824 148.91 14.8167 148.602 15.2422C149.261 14.5953 151.023 13.3609 153.433 15.4808C155.843 13.3609 157.605 14.5953 158.264 15.2422C157.954 14.8167 157.188 13.9824 155.927 13.9824Z" fill="#C4C4C4"/>
    <path d="M150.65 17.8096C150.18 17.9626 149.795 18.0156 149.524 17.4644C149.252 16.9133 149.769 16.3086 149.769 16.3086C149.535 16.3457 149.31 16.5023 149.23 16.5631C148.993 16.9591 148.83 17.6765 149.387 18.8561C149.387 18.8561 148.91 18.7152 148.539 17.8914C148.66 18.8279 149.06 19.4684 149.458 19.5635C149.928 19.6751 150.18 19.2247 150.882 18.5589C151.585 17.8931 152.3 17.7884 152.3 17.7884C151.591 17.4709 151.12 17.657 150.65 17.8096Z" fill="#C4C4C4"/>
    <path d="M157.435 18.8551C157.998 17.6623 157.825 16.9421 157.585 16.5493C157.492 16.4815 157.282 16.3432 157.065 16.3086C157.065 16.3086 157.581 16.9128 157.31 17.464C157.038 18.0152 156.654 17.9619 156.184 17.809C155.714 17.6562 155.244 17.4704 154.535 17.7892C154.535 17.7892 155.25 17.8955 155.952 18.5594C156.654 19.2233 156.906 19.6751 157.376 19.5636C157.776 19.4673 158.18 18.8143 158.296 17.862C157.924 18.7111 157.435 18.8551 157.435 18.8551Z" fill="#C4C4C4"/>
    <path d="M157.103 23.0481C156.68 22.7244 155.604 22.0571 153.819 21.9831C151.448 21.8838 151.23 22.2709 150.962 21.9333C150.694 21.5958 152.06 21.3341 152.06 21.3341C152.06 21.3341 151.517 21.2479 151.048 20.8906C151.048 20.8906 149.898 21.8966 149.766 23.0617C149.766 23.0617 150.817 22.2873 153.435 22.2873C156.053 22.2873 157.104 23.0617 157.104 23.0617C157.104 23.0581 157.103 23.0528 157.103 23.0481Z" fill="#C4C4C4"/>
    <path d="M56.6562 120.006V147.716L70.0112 139.99L70.6811 120.709L56.6562 120.006Z" fill="url(#paint14_linear_410_903)"/>
    <path d="M56.6562 142.561L70.1142 135.861L70.0112 138.26L56.6562 145.986V142.561Z" fill="url(#paint15_linear_410_903)"/>
    <path style="mix-blend-mode:multiply" opacity="0.8" d="M56.9912 132.271C57.7727 129.293 59.3358 131.369 59.3358 135.58C59.3358 139.79 58.7862 146.449 58.7862 146.449L59.9885 145.621C59.9885 145.621 59.9112 134.653 60.5038 133.33C61.0964 132.006 64.3171 132.453 64.3171 143.256L70.0112 139.947L70.6811 120.666L56.6562 119.963V135.207L56.9912 132.271Z" fill="url(#paint16_linear_410_903)"/>
    <path d="M129.876 120.006V147.716L116.521 139.99L115.852 120.709L129.876 120.006Z" fill="url(#paint17_linear_410_903)"/>
    <path d="M129.871 142.561L116.422 135.861L116.516 138.26L129.871 145.986V142.561Z" fill="url(#paint18_linear_410_903)"/>
    <path style="mix-blend-mode:multiply" opacity="0.8" d="M129.55 132.271C128.76 129.293 127.197 131.369 127.197 135.58C127.197 139.79 127.746 146.449 127.746 146.449L126.544 145.621C126.544 145.621 126.621 134.653 126.029 133.33C125.436 132.006 122.224 132.453 122.224 143.256L116.521 139.947L115.852 120.666L129.876 119.963V135.207L129.55 132.271Z" fill="url(#paint19_linear_410_903)"/>
    <path d="M89.782 140.145V167.301C81.2623 162.942 68.457 150.327 68.457 150.327V131.551L89.782 140.145Z" fill="url(#paint20_linear_410_903)"/>
    <path d="M89.782 160.107V165.575C81.2623 161.241 68.457 148.602 68.457 148.602V143.92C71.3857 147.551 77.6638 153.73 89.782 160.107Z" fill="url(#paint21_linear_410_903)"/>
    <path d="M97.0508 140.145V167.301C105.57 162.966 118.41 150.327 118.41 150.327V131.551L97.0508 140.145Z" fill="url(#paint22_linear_410_903)"/>
    <path d="M97.0508 160.107V165.575C105.57 161.241 118.41 148.602 118.41 148.602V143.92C115.447 147.551 109.169 153.73 97.0508 160.107Z" fill="url(#paint23_linear_410_903)"/>
    <path style="mix-blend-mode:multiply" opacity="0.8" d="M70.4152 152.238C70.4152 152.238 70.2176 139.773 72.2445 139.988C74.2714 140.203 77.7411 142.18 78.4968 144.438C79.2526 146.696 79.0379 159.823 79.0379 159.823L79.8023 160.435C79.8023 160.435 78.8576 144.496 80.4292 145.282C81.5975 145.828 82.6095 146.642 83.3773 147.651C84.1451 148.66 84.6455 149.834 84.8351 151.072C85.5651 154.629 85.7798 164.985 85.7798 164.985L89.782 167.292V140.145L68.457 131.551V150.327L70.4152 152.238Z" fill="url(#paint24_linear_410_903)"/>
    <path style="mix-blend-mode:multiply" opacity="0.8" d="M116.409 152.238C116.409 152.238 116.581 137.63 114.554 137.845C112.527 138.061 112.45 145.455 112.45 147.714C112.45 149.972 112.132 156.134 112.132 156.134L110.99 157.151C110.99 157.151 111.153 140.542 109.581 141.32C108.01 142.097 101.096 147.226 100.374 150.782C99.6531 154.339 99.9193 165.671 99.9193 165.671L97.0508 167.326V140.145L118.41 131.551V150.327L116.409 152.238Z" fill="url(#paint25_linear_410_903)"/>
    <path d="M102.031 98.7797L148.95 98.4902L144.569 106.067L104.445 107.134L102.031 98.7797Z" fill="url(#paint26_linear_410_903)"/>
    <path d="M144.759 98.4902L139.323 98.5233L134.668 106.282L140.25 106.133L144.759 98.4902Z" fill="url(#paint27_linear_410_903)"/>
    <g style="mix-blend-mode:multiply" opacity="0.5">
        <path d="M104.09 104.77L145.847 103.844L144.567 106.069L104.442 107.136L104.09 104.77Z" fill="#DE5634"/>
    </g>
    <g style="mix-blend-mode:soft-light" opacity="0.4">
        <path d="M128.627 99.1615C128.275 99.5337 129.907 103.479 130.577 103.364C131.247 103.248 144.791 103.479 145.4 103.074C146.01 102.669 148.278 99.3435 147.788 98.9382C147.298 98.5329 128.971 98.8058 128.627 99.1615Z" fill="#FFDF66"/>
    </g>
    <g style="mix-blend-mode:multiply" opacity="0.5">
        <path d="M127.719 98.5898C127.719 98.5898 129.437 103.205 129.505 104.215C129.472 105.014 129.248 105.795 128.853 106.498L104.445 107.143L102.031 98.7884L127.719 98.5898Z" fill="#DE5634"/>
    </g>
    <path d="M84.8011 98.7797L37.8828 98.4902L42.2629 106.067L82.3878 107.134L84.8011 98.7797Z" fill="url(#paint28_linear_410_903)"/>
    <path d="M41.9727 98.5254L47.4091 98.5585L52.064 106.317L46.4816 106.168L41.9727 98.5254Z" fill="url(#paint29_linear_410_903)"/>
    <g style="mix-blend-mode:multiply" opacity="0.5">
        <path d="M82.7411 104.77L40.9844 103.844L42.264 106.069L82.3889 107.136L82.7411 104.77Z" fill="#DE5634"/>
    </g>
    <g style="mix-blend-mode:soft-light" opacity="0.4">
        <path d="M57.8671 98.9987C59.0093 100.082 56.9481 103.689 56.2782 103.565C55.6083 103.441 42.0387 103.482 41.4289 103.077C40.8191 102.671 38.5518 99.3461 39.0413 98.9408C39.5309 98.5355 57.1972 98.428 57.8671 98.9987Z" fill="#FFDF66"/>
    </g>
    <g style="mix-blend-mode:multiply" opacity="0.5">
        <path d="M59.1566 98.5898C59.1566 98.5898 57.3874 103.205 57.293 104.215C57.3267 105.014 57.55 105.795 57.9457 106.498L82.3539 107.143L84.7758 98.7801L59.1566 98.5898Z" fill="#DE5634"/>
    </g>
    <path d="M107.23 89.0102L154.14 88.7207L149.76 96.3058L109.635 97.3728L107.23 89.0102Z" fill="url(#paint30_linear_410_903)"/>
    <path d="M150.244 88.7383L144.807 88.7714L140.152 96.5301L145.735 96.3813L150.244 88.7383Z" fill="url(#paint31_linear_410_903)"/>
    <g style="mix-blend-mode:multiply" opacity="0.5">
        <path d="M109.297 95.0002L151.054 94.082L149.765 96.3071L109.64 97.3741L109.297 95.0002Z" fill="#DE5634"/>
    </g>
    <g style="mix-blend-mode:soft-light" opacity="0.4">
        <path d="M133.834 89.392C133.482 89.7642 135.114 93.7098 135.775 93.594C136.437 93.4782 149.998 93.7098 150.607 93.3045C151.217 92.8992 153.485 89.574 152.986 89.1687C152.488 88.7634 134.169 89.0363 133.834 89.392Z" fill="#FFDF66"/>
    </g>
    <g style="mix-blend-mode:multiply" opacity="0.5">
        <path d="M126.747 88.8984C126.747 88.8984 128.516 93.514 128.577 94.5149C128.543 95.315 128.317 96.0967 127.915 96.7978L109.682 97.3769L107.277 89.0142L126.747 88.8984Z" fill="#DE5634"/>
    </g>
    <path d="M79.305 89.0102L32.3867 88.7207L36.7668 96.3058L76.8917 97.3728L79.305 89.0102Z" fill="url(#paint32_linear_410_903)"/>
    <path d="M36.4219 88.7715L41.8583 88.8046L46.5132 96.5634L40.9308 96.4145L36.4219 88.7715Z" fill="url(#paint33_linear_410_903)"/>
    <g style="mix-blend-mode:multiply" opacity="0.5">
        <path d="M77.2372 95.0002L35.4805 94.082L36.7687 96.3071L76.8936 97.3741L77.2372 95.0002Z" fill="#DE5634"/>
    </g>
    <g style="mix-blend-mode:soft-light" opacity="0.4">
        <path d="M52.3728 89.2257C53.5408 90.2927 51.4538 93.9157 50.7839 93.7916C50.114 93.6676 36.5358 93.7089 35.9346 93.3036C35.3334 92.8983 33.0489 89.5731 33.547 89.1678C34.0452 88.7625 51.7029 88.6136 52.3728 89.2257Z" fill="#FFDF66"/>
    </g>
    <g style="mix-blend-mode:multiply" opacity="0.5">
        <path d="M60.0481 88.8984C59.3199 90.7329 58.709 92.6085 58.2188 94.5149C58.2605 95.3058 58.4865 96.0776 58.8801 96.773L76.9156 97.352L79.329 88.9894L60.0481 88.8984Z" fill="#DE5634"/>
    </g>
    <path style="mix-blend-mode:multiply" opacity="0.37" d="M81.7784 79.6814C80.0178 81.0545 62.4459 90.327 62.2141 90.9225C61.9135 91.7001 64.2409 95.2982 65.3488 95.0004C66.4567 94.7027 87.3522 83.2878 87.4038 82.7502C87.4553 82.2125 87.4982 79.243 86.9915 79.0527C86.4848 78.8625 82.4569 79.152 81.7784 79.6814Z" fill="url(#paint34_linear_410_903)"/>
    <g style="mix-blend-mode:soft-light" opacity="0.4">
        <path d="M79.4615 78.7455C78.3106 78.82 64.0024 87.6789 64.0024 87.9353C64.0024 88.1917 61.4774 89.6889 62.0872 89.6558C62.697 89.6227 80.7927 79.7464 80.8184 79.399C80.8442 79.0516 80.0798 78.7042 79.4615 78.7455Z" fill="#FFDF66"/>
    </g>
    <g style="mix-blend-mode:soft-light" opacity="0.4">
        <path d="M61.4609 90.9228C61.4609 90.9228 71.0026 86.2907 75.8894 83.3294C80.7762 80.3682 81.781 79.6816 81.781 79.6816L61.4609 90.9228Z" fill="#FFDF66"/>
    </g>
    <path style="mix-blend-mode:multiply" opacity="0.37" d="M105.053 79.6814C106.771 81.0793 124.377 90.327 124.618 90.9225C124.918 91.7001 122.591 95.2982 121.483 95.0004C120.375 94.7027 99.471 83.2878 99.428 82.7502C99.3851 82.2125 99.3336 79.243 99.8403 79.0527C100.347 78.8625 104.375 79.152 105.053 79.6814Z" fill="url(#paint35_linear_410_903)"/>
    <g style="mix-blend-mode:soft-light" opacity="0.4">
        <path d="M107.373 78.7455C108.524 78.82 122.832 87.6789 122.832 87.9353C122.832 88.1917 125.357 89.6889 124.748 89.6558C124.138 89.6227 106.042 79.7464 106.016 79.399C105.99 79.0516 106.755 78.7042 107.373 78.7455Z" fill="#FFDF66"/>
    </g>
    <g style="mix-blend-mode:soft-light" opacity="0.4">
        <path d="M125.375 90.9228C125.375 90.9228 115.825 86.2907 110.946 83.3294C106.068 80.3682 105.055 79.6816 105.055 79.6816L125.375 90.9228Z" fill="#FFDF66"/>
    </g>
    <path d="M62.6272 126.788C62.5499 127.053 50.9298 123.165 50.9298 123.165C47.9759 118.894 45.5246 114.319 43.6211 109.525H63.4688L62.6272 126.788Z" fill="url(#paint36_linear_410_903)"/>
    <path d="M47.4102 109.525C47.4102 109.525 52.0393 118.748 52.8895 119.741L62.9294 120.006V119.344C62.9294 119.344 53.7398 119.418 53.2159 119.046C52.692 118.674 47.9942 109.525 47.9942 109.525H47.4102Z" fill="#B33114"/>
    <path d="M47.4102 109.525L52.8895 119.741C51.7008 118.108 50.6222 116.403 49.6603 114.637C48.8201 112.971 48.069 111.265 47.4102 109.525Z" fill="white"/>
    <g style="mix-blend-mode:soft-light" opacity="0.4">
        <path d="M48.8228 110.156C49.5872 112.356 52.6447 117.361 53.2802 117.361C53.9157 117.361 61.276 117.236 61.9545 116.219C62.6329 115.202 63.2169 110.255 62.6244 110.156C62.0318 110.057 48.4793 109.18 48.8228 110.156Z" fill="#FFDF66"/>
    </g>
    <g style="mix-blend-mode:soft-light" opacity="0.4">
        <path d="M44.2722 109.916C45.2169 112.075 47.845 117.567 48.3345 117.634C48.824 117.7 50.4644 117.898 50.4902 117.237C50.4902 116.186 47.4499 110.057 46.7628 109.916C46.0758 109.776 44.0403 109.387 44.2722 109.916Z" fill="#FFDF66"/>
    </g>
    <path style="mix-blend-mode:multiply" opacity="0.37" d="M48.8145 118.352C48.7286 119.039 51.391 122.554 51.8119 122.835C52.2327 123.116 61.1646 125.887 61.7486 125.49C62.3326 125.093 62.6075 117.847 62.1523 117.641C61.6971 117.434 48.9176 117.599 48.8145 118.352Z" fill="url(#paint37_linear_410_903)"/>
    <g style="mix-blend-mode:multiply" opacity="0.5">
        <path d="M56.7969 109.525C57.7547 114.795 58.1747 120.142 58.0508 125.49L62.6284 126.788L63.4872 109.525H56.7969Z" fill="#DE5634"/>
    </g>
    <path d="M124.205 126.788C124.282 127.053 135.902 123.165 135.902 123.165C138.844 118.892 141.284 114.318 143.177 109.525H123.363L124.205 126.788Z" fill="url(#paint38_linear_410_903)"/>
    <path d="M139.425 109.525C139.425 109.525 134.796 118.748 133.946 119.741L123.906 120.006V119.344C123.906 119.344 133.096 119.418 133.62 119.046C134.144 118.674 138.884 109.525 138.884 109.525H139.425Z" fill="#B33114"/>
    <path d="M139.425 109.525L133.945 119.741C135.131 118.108 136.207 116.403 137.166 114.637C138.009 112.972 138.763 111.265 139.425 109.525Z" fill="white"/>
    <g style="mix-blend-mode:soft-light" opacity="0.4">
        <path d="M138.027 110.156C137.263 112.356 134.205 117.361 133.57 117.361C132.934 117.361 125.574 117.236 124.895 116.219C124.217 115.202 123.633 110.255 124.226 110.156C124.818 110.057 138.353 109.18 138.027 110.156Z" fill="#FFDF66"/>
    </g>
    <g style="mix-blend-mode:soft-light" opacity="0.4">
        <path d="M142.562 109.916C141.617 112.075 138.989 117.567 138.499 117.634C138.01 117.7 136.37 117.898 136.344 117.237C136.344 116.186 139.384 110.057 140.063 109.916C140.741 109.776 142.794 109.387 142.562 109.916Z" fill="#FFDF66"/>
    </g>
    <path style="mix-blend-mode:multiply" opacity="0.37" d="M138.026 118.352C138.112 119.039 135.45 122.554 135.029 122.835C134.608 123.116 125.676 125.887 125.092 125.49C124.508 125.093 124.233 117.847 124.689 117.641C125.144 117.434 137.915 117.599 138.026 118.352Z" fill="url(#paint39_linear_410_903)"/>
    <g style="mix-blend-mode:multiply" opacity="0.5">
        <path d="M130.038 109.525C129.08 114.795 128.66 120.142 128.784 125.49L124.206 126.788L123.348 109.525H130.038Z" fill="#DE5634"/>
    </g>
    <path d="M108.285 79.1731C108.079 78.9828 117.053 70.9014 117.053 70.9014C122.351 70.3636 127.695 70.3969 132.985 71.0007L123.761 87.9079L108.285 79.1731Z" fill="url(#paint40_linear_410_903)"/>
    <path d="M131.221 74.2223C131.221 74.2223 120.597 73.8832 119.283 74.1479L114.379 82.585L114.989 82.891C114.989 82.891 119.188 75.0164 119.772 74.7517C120.356 74.487 130.937 74.7517 130.937 74.7517L131.221 74.2223Z" fill="#B33114"/>
    <path d="M130.955 74.7188H120.039C120.039 74.7188 122.616 75 125.372 75.0579C127.239 75.0693 129.104 74.956 130.955 74.7188Z" fill="white"/>
    <path style="mix-blend-mode:multiply" opacity="0.37" d="M129.993 75.142C127.606 74.7698 121.585 75.0428 121.293 75.5887C121.001 76.1346 117.686 82.4707 118.313 83.5212C118.94 84.5717 123.208 87.3675 123.569 86.9126C123.93 86.4576 131.05 75.3075 129.993 75.142Z" fill="url(#paint41_linear_410_903)"/>
    <path style="mix-blend-mode:multiply" opacity="0.37" d="M132.33 71.3676C129.899 71.1691 123.63 70.8548 123.346 71.2435C123.063 71.6323 122.11 72.9392 122.702 73.2618C123.656 73.7829 130.724 74.0145 131.17 73.4934C131.617 72.9723 132.922 71.4172 132.33 71.3676Z" fill="url(#paint42_linear_410_903)"/>
    <g style="mix-blend-mode:soft-light" opacity="0.4">
        <path d="M122.453 71.3184C121.869 70.9296 117.412 71.55 116.948 71.7899C116.484 72.0297 109.794 78.3492 109.88 79.0275C109.966 79.7058 116.493 83.3453 116.914 83.031C117.334 82.7167 123.106 71.7568 122.453 71.3184Z" fill="#FFDF66"/>
    </g>
    <g style="mix-blend-mode:multiply" opacity="0.5">
        <path d="M124.938 85.7526C124.938 85.7526 117.638 80.6739 110.716 76.8027L108.285 79.1767L123.744 87.9115L124.938 85.7526Z" fill="#DE5634"/>
    </g>
    <path d="M78.551 79.1765C78.7571 78.9863 69.7822 70.9049 69.7822 70.9049C64.4879 70.3621 59.1473 70.3899 53.8594 70.9876L63.0747 87.9114L78.551 79.1765Z" fill="url(#paint43_linear_410_903)"/>
    <path d="M55.5742 74.2223C55.5742 74.2223 66.198 73.8832 67.5121 74.1479L72.416 82.585L71.8063 82.891C71.8063 82.891 67.6065 75.0164 67.0225 74.7517C66.4385 74.487 55.8576 74.7517 55.8576 74.7517L55.5742 74.2223Z" fill="#B33114"/>
    <path d="M55.8789 74.7188H67.0438C67.0438 74.7188 63.7802 74.8594 61.0319 74.9173C59.3116 74.9571 57.5904 74.8908 55.8789 74.7188Z" fill="white"/>
    <path style="mix-blend-mode:multiply" opacity="0.37" d="M56.8412 75.142C59.2287 74.7698 65.2492 75.0428 65.5412 75.5887C65.8332 76.1346 69.1483 82.4707 68.5214 83.5212C67.8944 84.5717 63.626 87.3675 63.2653 86.9126C62.9046 86.4576 55.7848 75.3075 56.8412 75.142Z" fill="url(#paint44_linear_410_903)"/>
    <path style="mix-blend-mode:multiply" opacity="0.37" d="M54.5032 71.3676C56.9337 71.1691 63.2032 70.8548 63.4866 71.2435C63.77 71.6323 64.7233 72.9392 64.1221 73.2618C63.1774 73.7829 56.1092 74.0145 55.6626 73.4934C55.216 72.9723 53.9106 71.4172 54.5032 71.3676Z" fill="url(#paint45_linear_410_903)"/>
    <g style="mix-blend-mode:soft-light" opacity="0.4">
        <path d="M64.3795 71.3184C64.9635 70.9296 69.4209 71.55 69.8847 71.7899C70.3485 72.0297 77.0388 78.3492 76.9529 79.0275C76.867 79.7058 70.3399 83.3453 69.919 83.031C69.4982 82.7167 63.7268 71.7568 64.3795 71.3184Z" fill="#FFDF66"/>
    </g>
    <g style="mix-blend-mode:multiply" opacity="0.5">
        <path d="M61.8984 85.7526C61.8984 85.7526 69.1986 80.6739 76.1208 76.8027L78.5513 79.1767L63.0922 87.9115L61.8984 85.7526Z" fill="#DE5634"/>
    </g>
    <path d="M93.5406 69.6211L61.0508 87.6863V130.79L93.5406 148.855L126.03 130.79V87.6863L93.5406 69.6211Z" fill="url(#paint46_linear_410_903)"/>
    <path d="M66.9297 127.527V90.9581L93.5451 76.1602L120.16 90.9581V127.527L93.5451 142.325L66.9297 127.527Z" fill="url(#paint47_linear_410_903)"/>
    <path d="M68.8867 126.433V92.0401L93.544 78.334L118.201 92.0401V126.433L93.544 140.148L68.8867 126.433Z" fill="url(#paint48_linear_410_903)"/>
    <g style="mix-blend-mode:soft-light" opacity="0.4">
        <path d="M61.8632 87.8064C61.4682 88.9644 64.9121 90.3872 67.3512 89.8826C69.7903 89.378 92.644 76.4495 93.2022 75.2666C93.3701 73.6577 93.3701 72.0366 93.2022 70.4277C92.3949 70.4525 62.0607 87.2357 61.8632 87.8064Z" fill="#FFDF66"/>
    </g>
    <g style="mix-blend-mode:soft-light" opacity="0.4">
        <path d="M125.064 87.8064C125.468 88.9644 122.015 90.3872 119.585 89.8826C117.154 89.378 94.4981 76.3254 93.7252 75.2666C93.3301 74.729 93.2013 70.4277 93.7252 70.4277C94.5325 70.4525 124.867 87.2357 125.064 87.8064Z" fill="#FFDF66"/>
    </g>
    <path style="mix-blend-mode:multiply" opacity="0.37" d="M61.8304 112.313C61.6157 113.604 61.0833 129.923 61.8304 130.048C62.5776 130.172 66.1246 127.847 66.305 126.739C66.4853 125.63 66.5712 114.48 66.305 113.405C66.0387 112.33 62.1997 110.171 61.8304 112.313Z" fill="url(#paint49_linear_410_903)"/>
    <path style="mix-blend-mode:multiply" opacity="0.37" d="M125.14 112.313C125.363 113.604 125.896 129.923 125.14 130.048C124.384 130.172 120.846 127.847 120.674 126.739C120.502 125.63 120.408 114.48 120.674 113.405C120.94 112.33 124.762 110.171 125.14 112.313Z" fill="url(#paint50_linear_410_903)"/>
    <path style="mix-blend-mode:multiply" opacity="0.37" d="M62.6445 130.492C63.0396 131.046 92.3002 147.713 92.7468 147.713C92.9615 147.713 93.2621 143.577 93.2621 143.106C93.2621 141.824 67.3853 128.589 66.9301 128.465C66.2602 128.283 62.2494 129.921 62.6445 130.492Z" fill="url(#paint51_linear_410_903)"/>
    <path style="mix-blend-mode:multiply" opacity="0.37" d="M124.491 130.935C124.105 131.489 94.2945 148.099 93.8479 148.099C93.738 146.318 93.7725 144.531 93.951 142.755C94.8957 141.845 119.57 128.594 120.025 128.47C120.695 128.288 124.895 130.364 124.491 130.935Z" fill="url(#paint52_linear_410_903)"/>
    <g style="mix-blend-mode:multiply" opacity="0.37">
        <path d="M70.0156 125.522C68.2979 115.993 69.2513 115.389 81.524 111.361C93.7968 107.333 114.555 96.9601 116.384 101.435C118.214 105.91 117.578 125.117 117.166 126.159C116.754 127.201 95.317 139.071 93.5478 139.104C91.7786 139.137 70.1788 126.589 70.0156 125.522Z" fill="#ED8A1D"/>
    </g>
    <g style="mix-blend-mode:soft-light" opacity="0.4">
        <path d="M117.67 92.2751C117.232 92.1759 94.9533 79.7767 93.6994 79.8677C92.4455 79.9587 76.9778 86.9482 70.6138 92.2751C68.8961 93.6813 69.5317 114.724 71.1034 114.336C72.675 113.947 73.8345 105.444 91.0799 100.663C108.059 95.9643 115.445 100.034 117.283 100.762C117.807 100.902 118.657 92.5067 117.67 92.2751Z" fill="#FFDF66"/>
    </g>
    <g style="mix-blend-mode:multiply" opacity="0.5">
        <path d="M66.9297 127.524V90.9796L93.5537 76.1816L120.16 90.9796V127.524L118.202 126.432C118.202 126.432 118.323 94.6439 117.61 93.6513C115.033 90.0945 95.3916 81.4424 92.1538 82.4019C88.9159 83.3614 71.3441 90.566 69.386 93.5851C68.7247 94.6025 68.8878 126.432 68.8878 126.432L66.9297 127.524Z" fill="#DE5634"/>
    </g>
    <g style="mix-blend-mode:soft-light" opacity="0.4">
        <path d="M98.5149 95.942C105.145 98.8536 115.133 98.9115 116.052 98.349C116.971 97.7865 117.573 93.7003 116.138 93.0055C114.704 92.3107 103.316 86.4792 100.318 87.1079C97.3211 87.7365 97.3383 95.4291 98.5149 95.942Z" fill="#FFDF66"/>
    </g>
    <path opacity="0.8" d="M61.0508 100.813C61.0508 100.722 61.3256 88.6624 61.8581 87.8021C62.3906 86.9419 92.8364 70.6799 93.721 70.4317C94.6056 70.1836 106.02 76.5362 106.02 76.5362L93.5406 69.6211L61.0508 87.6698V100.813Z" fill="#700000"/>
    <path d="M105.176 82.6172C105.176 82.6172 119.45 90.4421 119.647 91.3189C119.845 92.1957 120.163 115.836 120.163 115.836C120.163 115.836 120.291 91.9641 120.163 90.955C120.034 89.9458 105.176 82.6172 105.176 82.6172Z" fill="white"/>
    <path d="M66.9318 111C66.9318 111 66.4595 91.2311 66.7429 90.5859C67.0263 89.9407 93.5472 76.1602 93.5472 76.1602C93.5472 76.1602 67.8508 90.3046 67.3269 91.198C66.803 92.0913 66.9318 111 66.9318 111Z" fill="white"/>
    <path opacity="0.8" d="M61.0508 130.793L93.5406 148.883L125.996 130.793V120.975C125.996 120.975 125.721 129.544 125.06 130.619C124.399 131.695 95.2927 147.99 93.8069 148.097C92.3211 148.205 62.6053 131.182 61.8237 130.049C61.0422 128.916 61.0508 108.832 61.0508 108.832V130.793Z" fill="#700000"/>
    <g style="mix-blend-mode:soft-light" opacity="0.4">
        <path d="M66.9291 118.16C66.9291 118.16 66.8347 126.597 67.3242 127.309C67.8138 128.02 80.4301 135.034 80.4301 135.034C80.4301 135.034 66.7402 128.202 66.6286 127.78C66.5169 127.358 66.9291 118.16 66.9291 118.16Z" fill="#FFDF66"/>
    </g>
    <g style="mix-blend-mode:soft-light" opacity="0.4">
        <path d="M77.906 135.207C76.9441 135.207 74.256 136.241 74.84 136.861C75.424 137.482 91.4155 146.787 93.2363 147.408C93.8375 147.623 93.7773 143.95 92.9786 142.767C92.6523 142.263 80.8948 135.199 77.906 135.207Z" fill="#FFDF66"/>
    </g>
    <path d="M107.107 78.3994C106.583 78.5318 108.344 80.6658 109.177 80.8809C110.01 81.096 111.161 80.5004 110.757 80.1116C110.354 79.7229 107.915 78.1844 107.107 78.3994Z" fill="white"/>
    <path d="M110.998 80.5098C110.199 80.7166 111.668 84.0832 112.295 84.6456C112.922 85.2081 118.513 86.3 118.384 85.3239C118.255 84.3479 112.114 80.2286 110.998 80.5098Z" fill="white"/>
    <g style="mix-blend-mode:multiply" opacity="0.5">
        <path d="M108.524 135.291C107.828 138.236 107.94 139.965 108.335 139.99C108.73 140.015 122.935 131.768 123.321 131.404C123.708 131.04 121.037 128.682 119.946 128.84C118.855 128.997 108.824 134.191 108.524 135.291Z" fill="#DE5634"/>
    </g>
    <g style="mix-blend-mode:multiply" opacity="0.5">
        <path d="M68.6568 91.8074C68.3133 90.8231 67.2569 90.8231 67.1624 91.9315C67.068 93.0399 66.9048 113.529 67.3256 113.562C67.7464 113.595 68.6225 112.586 68.6568 112.114C68.6912 111.643 68.82 92.2623 68.6568 91.8074Z" fill="#DE5634"/>
    </g>
    <g style="mix-blend-mode:multiply" opacity="0.5">
        <path d="M118.434 91.9227C118.374 92.3115 118.176 111.659 118.434 111.659C118.691 111.659 119.868 110.741 119.868 110.269C119.868 109.798 119.576 91.5091 119.447 91.4181C119.318 91.3271 118.477 91.6001 118.434 91.9227Z" fill="#DE5634"/>
    </g>
    <g style="mix-blend-mode:multiply" opacity="0.5">
        <path d="M93.543 78.02C93.543 78.4005 82.0947 84.6869 81.8198 84.6869C81.545 84.6869 81.6481 83.0326 82.0174 82.7596C82.3867 82.4866 93.4571 76.1423 93.543 76.316C93.5817 76.8834 93.5817 77.4526 93.543 78.02Z" fill="#DE5634"/>
    </g>
    <path d="M117.172 129.031C116.442 129.031 113.978 130.388 114.167 131.058C114.355 131.728 115.884 132.464 116.262 132.075C116.64 131.686 117.653 129.031 117.172 129.031Z" fill="#B33114"/>
    <path d="M118.115 129.469C117.866 129.692 117.316 130.486 117.84 130.875C118.364 131.263 119.892 130.238 119.669 129.94C119.446 129.642 118.441 129.179 118.115 129.469Z" fill="#B33114"/>
    <g style="mix-blend-mode:multiply" opacity="0.5">
        <path d="M114.529 130.347C113.919 131.174 116.418 131.671 116.736 131.001C117.054 130.331 117.595 128.924 117.174 128.999C116.214 129.287 115.317 129.744 114.529 130.347Z" fill="#DE5634"/>
    </g>
    <path d="M114.173 130.832C114.34 131.294 114.676 131.682 115.118 131.924C115.693 132.255 116.2 132.18 116.346 131.924C116.201 132.089 116.002 132.202 115.781 132.242C115.561 132.283 115.333 132.249 115.135 132.147C113.975 131.634 114.173 130.832 114.173 130.832Z" fill="#DAE1EF"/>
    <g style="mix-blend-mode:multiply" opacity="0.5">
        <path d="M118.393 129.491C117.835 130.07 118.273 130.914 118.59 130.873C118.908 130.831 119.844 130.219 119.673 129.938C119.501 129.657 118.522 129.359 118.393 129.491Z" fill="#DE5634"/>
    </g>
    <path d="M118.117 129.469C118.117 129.469 117.602 130.155 117.808 130.552C118.014 130.949 118.306 130.941 118.306 130.941C118.306 130.941 117.636 131.322 117.516 130.883C117.482 130.618 117.52 130.348 117.625 130.1C117.73 129.853 117.9 129.635 118.117 129.469Z" fill="#DAE1EF"/>
    <path d="M90.1929 77.8067C88.4752 77.3601 87.0323 78.4519 86.2594 79.2873C85.4864 80.1228 85.9244 80.6273 86.8863 80.4619C87.8482 80.2965 90.9315 77.997 90.1929 77.8067Z" fill="#B33114"/>
    <g style="mix-blend-mode:multiply" opacity="0.5">
        <path d="M90.1998 77.8031C89.6482 77.6967 89.0787 77.7106 88.5333 77.8437C87.9879 77.9768 87.4804 78.2258 87.0479 78.5724C86.5841 78.9694 87.5031 80.1109 88.1386 79.871C88.7742 79.6311 90.7409 77.9768 90.1998 77.8031Z" fill="#DE5634"/>
    </g>
    <g style="mix-blend-mode:soft-light" opacity="0.4">
        <path d="M86.711 78.8555C86.711 78.8555 84.7271 80.1045 84.9933 80.7166C85.2596 81.3287 87.5698 80.212 87.5698 80.212C87.5698 80.212 86.3417 80.6008 86.0669 80.0714C85.7921 79.542 86.711 78.8555 86.711 78.8555Z" fill="#FFDF66"/>
    </g>
    <path d="M68.0665 127.774C67.1304 128.005 69.8958 129.825 70.5486 129.924C71.2013 130.024 70.5486 128.419 70.2394 128.138C69.5603 127.836 68.8114 127.711 68.0665 127.774Z" fill="white"/>
    <path d="M93.5186 129.538L59.981 110.703C59.1891 112.464 58.6489 114.32 58.375 116.22L60.565 119.777L93.5186 138.215L126.472 119.777L128.456 116.22C128.391 114.328 127.984 112.461 127.254 110.703L93.5186 129.538Z" fill="url(#paint53_linear_410_903)"/>
    <path d="M60.565 119.774L58.375 116.217L93.5186 136.044L128.456 116.217L126.472 119.774L93.5186 138.211L60.565 119.774Z" fill="url(#paint54_linear_410_903)"/>
    <g style="mix-blend-mode:multiply" opacity="0.5">
        <path d="M58.375 116.217L60.565 119.774L61.0632 120.071V121.138C61.0632 121.138 62.944 122.057 66.637 124.025C66.7573 124.091 68.9559 126.325 68.9559 126.325C68.9559 126.325 92.6942 140.147 93.553 140.147C94.6609 140.147 118.21 126.019 118.21 126.019C118.21 126.019 120.04 124.53 120.228 124.431L126 121.494V120.022L126.438 119.774L128.422 116.217L93.4843 136.069L58.375 116.217Z" fill="#DE5634"/>
    </g>
    <path style="mix-blend-mode:multiply" opacity="0.69" d="M93.5195 129.537V136.047L128.457 116.195C128.365 114.306 127.959 112.443 127.255 110.678L93.5195 129.537Z" fill="url(#paint55_linear_410_903)"/>
    <g style="mix-blend-mode:soft-light" opacity="0.4">
        <path d="M61.7066 112.123C61.0624 112.123 61.5863 117.599 63.5359 118.856C66.6363 120.85 85.2988 131.446 86.4926 131.462C87.3515 131.462 87.2999 126.822 87.0423 126.499C86.5871 125.78 62.6599 112.123 61.7066 112.123Z" fill="#FFDF66"/>
    </g>
    <g style="mix-blend-mode:soft-light" opacity="0.4">
        <path d="M103.894 123.918C103.482 124.315 103.542 129.435 104.238 129.278C109.866 126.629 115.285 123.588 120.453 120.179C125.425 116.664 126.13 112.023 125.013 112.131C125.013 112.131 104.727 123.091 103.894 123.918Z" fill="#FFDF66"/>
    </g>
    <path d="M93.3125 88.4978L126.859 107.357C127.651 105.596 128.191 103.74 128.465 101.84L126.275 98.2749L93.3125 79.8457L60.3589 98.2749L58.375 101.84C58.4405 103.732 58.8473 105.599 59.5774 107.357L93.3125 88.4978Z" fill="url(#paint56_linear_410_903)"/>
    <path d="M126.266 98.2749L128.456 101.84L93.3125 82.0129L58.375 101.84L60.3589 98.2749L93.3125 79.8457L126.266 98.2749Z" fill="url(#paint57_linear_410_903)"/>
    <g style="mix-blend-mode:multiply" opacity="0.6">
        <path d="M118.126 106.532L120.153 105.2L126.002 108.352V106.896C126.002 106.896 123.665 105.473 119.99 103.513L118.023 102.338C118.023 102.338 94.3018 88.5 93.443 88.5C92.3351 88.5 68.76 102.231 68.76 102.231L66.8018 103.223L61.0562 106.441L60.9531 108.641L67.0509 104.853L68.8888 106.565L93.4687 92.6358L118.126 106.532Z" fill="#DE5634"/>
    </g>
    <g style="mix-blend-mode:soft-light" opacity="0.4">
        <path d="M93.3125 88.5006V82.0156L58.375 101.868C58.4674 103.757 58.8733 105.619 59.5774 107.385L93.3125 88.5006Z" fill="#FFDF66"/>
    </g>
    <path style="mix-blend-mode:multiply" opacity="0.69" d="M125.141 105.928C125.785 105.928 125.261 100.461 123.311 99.2036C120.211 97.2019 101.548 86.6059 100.329 86.5977C99.4699 86.5977 99.5214 91.2298 99.7791 91.5606C100.234 92.272 124.17 105.928 125.141 105.928Z" fill="url(#paint58_linear_410_903)"/>
    <g style="mix-blend-mode:soft-light" opacity="0.4">
        <path d="M82.9381 94.139C83.3418 93.7337 83.2902 88.6219 82.5946 88.7708C76.9705 91.4261 71.5517 94.4669 66.3797 97.8696C61.3984 101.385 60.7028 106.025 61.8193 105.926C61.8193 105.926 82.105 94.9662 82.9381 94.139Z" fill="#FFDF66"/>
    </g>
    <path d="M110.401 91.6523C110.401 91.6523 94.3407 82.3798 93.3101 82.3798C92.2795 82.3798 79.457 89.8739 79.457 89.8739C79.457 89.8739 92.915 81.6602 93.2843 81.6602C93.6536 81.6602 110.401 91.6523 110.401 91.6523Z" fill="white"/>
    <g style="mix-blend-mode:multiply" opacity="0.5">
        <path d="M81.4256 76.3625C81.3029 76.968 81.2311 77.5821 81.2109 78.1988C81.2796 78.4883 83.5384 81.7142 83.5384 81.7142V83.8979L93.6297 92.9967L103.609 84.1957L104.047 82.0616C104.047 82.0616 106.289 78.6702 106.289 78.1988C106.289 77.7273 104.228 75.5436 104.228 75.5436L93.5439 69.6211L81.4256 76.3625Z" fill="#DE5634"/>
    </g>
    <path d="M105.387 77.44L105.335 77.3738L93.7497 62.03L93.6896 61.9473L93.6294 62.03L82.0437 77.3738L81.9922 77.44L82.0437 77.5145L93.6294 92.8335V92.9989L93.6896 92.9162L93.7497 92.9989V92.8335L105.335 77.5145L105.387 77.44Z" fill="url(#paint59_linear_410_903)"/>
    <g style="mix-blend-mode:multiply" opacity="0.5">
        <path d="M84.418 77.4406L93.6934 65.1738L102.969 77.4406L93.6934 89.7075L84.418 77.4406Z" fill="#DE5634"/>
    </g>
    <path d="M84.9062 77.44L93.6922 65.8184L102.487 77.44L93.6922 89.0699L84.9062 77.44Z" fill="url(#paint60_linear_410_903)"/>
    <g style="mix-blend-mode:soft-light" opacity="0.4">
        <path d="M93.5548 62.7985C92.507 63.758 82.6218 76.6782 82.8193 77.0339C83.0169 77.3896 86.8816 77.3979 94.302 77.3152C101.722 77.2324 104.78 77.2407 104.84 77.0339C104.9 76.8271 93.7437 62.6248 93.5548 62.7985Z" fill="#FFDF66"/>
    </g>
    <path style="mix-blend-mode:multiply" opacity="0.37" d="M82.5013 77.479C82.3639 78.0415 93.1767 92.2273 93.8637 92.004C94.5508 91.7806 105.209 77.8181 104.53 77.4376C103.852 77.0571 82.6301 76.9661 82.5013 77.479Z" fill="url(#paint61_linear_410_903)"/>
    <g style="mix-blend-mode:multiply" opacity="0.5">
        <path d="M93.5458 116.349L85.5328 120.41L87.0616 111.816L80.5859 105.728L89.535 104.479L93.5458 96.6621L97.548 104.479L106.506 105.728L100.021 111.816L101.559 120.41L93.5458 116.349Z" fill="#DE5634"/>
    </g>
    <path d="M105.568 106.028L101.248 105.416L100.063 105.259L97.2628 104.862L93.544 97.6074L89.8253 104.862L81.5117 106.028L87.5322 111.669L86.1065 119.643L93.544 115.879L100.973 119.643L99.5559 111.669L105.568 106.028Z" fill="url(#paint62_linear_410_903)"/>
    <path style="mix-blend-mode:multiply" opacity="0.37" d="M81.4805 106.025L93.7189 109.102L87.4923 111.667L81.4805 106.025Z" fill="url(#paint63_linear_410_903)"/>
    <path style="mix-blend-mode:multiply" opacity="0.37" d="M105.524 106.025L93.7148 109.102L99.512 111.667L105.524 106.025Z" fill="url(#paint64_linear_410_903)"/>
    <path style="mix-blend-mode:multiply" opacity="0.37" d="M93.5 115.876L93.7147 109.102L86.0625 119.64L93.5 115.876Z" fill="url(#paint65_linear_410_903)"/>
    <path style="mix-blend-mode:multiply" opacity="0.37" d="M100.933 119.64L93.7186 109.102L93.5039 115.876L100.933 119.64Z" fill="url(#paint66_linear_410_903)"/>
    <path style="mix-blend-mode:color-dodge" opacity="0.5" d="M93.5039 97.6074L93.7186 109.105L97.2227 104.862L93.5039 97.6074Z" fill="url(#paint67_linear_410_903)"/>
    <path style="mix-blend-mode:color-dodge" opacity="0.5" d="M105.524 106.024L93.7148 109.101L97.2189 104.857L105.524 106.024Z" fill="url(#paint68_linear_410_903)"/>
    <path style="mix-blend-mode:color-dodge" opacity="0.5" d="M105.524 106.024L93.7148 109.101L97.2189 104.857L105.524 106.024Z" fill="url(#paint69_linear_410_903)"/>
    <path style="mix-blend-mode:color-dodge" opacity="0.5" d="M89.7854 104.857L93.7189 109.101L81.4805 106.024L89.7854 104.857Z" fill="url(#paint70_linear_410_903)"/>
    <path d="M97.2157 107.384C96.5974 107.888 97.1212 108.211 97.1212 108.211L100.308 107.384C100.308 107.384 98.6414 106.217 97.2157 107.384Z" fill="white"/>
    <g style="mix-blend-mode:multiply" opacity="0.5">
        <path d="M86.1055 119.642C86.1055 119.642 91.748 117.087 93.543 116.334L100.972 119.642L93.543 115.879L86.1055 119.642Z" fill="#DE5634"/>
    </g>
    <g style="mix-blend-mode:multiply" opacity="0.5">
        <path d="M81.4805 106.025L93.7189 109.102L86.9942 114.678L81.4805 106.025Z" fill="#DE5634"/>
    </g>
    <g style="mix-blend-mode:multiply" opacity="0.5">
        <path d="M105.524 106.025L93.7148 109.102L100.225 115.414L105.524 106.025Z" fill="#DE5634"/>
    </g>
    <g style="mix-blend-mode:multiply" opacity="0.5">
        <path d="M86.1055 119.64L93.7148 109.102L100.972 119.64L93.543 118.506L86.1055 119.64Z" fill="#DE5634"/>
    </g>
    <g style="mix-blend-mode:soft-light" opacity="0.4">
        <path d="M90.788 103.602C89.9978 105.72 93.0038 107.192 93.4074 106.538C93.8111 105.885 93.562 102.27 93.0467 101.774C92.5314 101.278 91.0971 102.742 90.788 103.602Z" fill="#F7FFFF"/>
    </g>
    <g style="mix-blend-mode:soft-light" opacity="0.4">
        <path d="M88.3124 114.422C89.927 114.628 90.7858 112.875 91.1465 111.659C91.6876 109.723 85.4009 114.041 88.3124 114.422Z" fill="#F7FFFF"/>
    </g>
    <g style="mix-blend-mode:multiply" opacity="0.5">
        <path d="M93.545 80.719L90.1956 82.4147L90.8311 78.8165L88.1172 76.2771L91.8703 75.7478L93.545 72.4805L95.2198 75.7478L98.9643 76.2771L96.259 78.8165L96.8945 82.4147L93.545 80.719Z" fill="#DE5634"/>
    </g>
    <path d="M98.5406 76.4076L96.7457 76.1511L96.2561 76.085L95.0881 75.9195L93.5422 72.9004L91.9963 75.9195L88.5352 76.4076L91.043 78.7484L90.4504 82.0654L93.5422 80.502L96.634 82.0654L96.0414 78.7484L98.5406 76.4076Z" fill="url(#paint71_linear_410_903)"/>
    <path style="mix-blend-mode:multiply" opacity="0.37" d="M88.5234 76.4043L93.6163 77.6864L91.0312 78.7452L88.5234 76.4043Z" fill="url(#paint72_linear_410_903)"/>
    <path style="mix-blend-mode:multiply" opacity="0.37" d="M98.5219 76.4043L93.6094 77.6864L96.0227 78.7452L98.5219 76.4043Z" fill="url(#paint73_linear_410_903)"/>
    <path style="mix-blend-mode:multiply" opacity="0.37" d="M93.5293 80.4979L93.6152 77.6855L90.4375 82.0612L93.5293 80.4979Z" fill="url(#paint74_linear_410_903)"/>
    <path style="mix-blend-mode:multiply" opacity="0.37" d="M96.6192 82.0612L93.6132 77.6855L93.5273 80.4979L96.6192 82.0612Z" fill="url(#paint75_linear_410_903)"/>
    <path style="mix-blend-mode:color-dodge" opacity="0.5" d="M93.5273 72.9004L93.6132 77.6897L95.0732 75.9195L93.5273 72.9004Z" fill="url(#paint76_linear_410_903)"/>
    <path style="mix-blend-mode:color-dodge" opacity="0.5" d="M98.5219 76.406L93.6094 77.6881L95.0694 75.918L98.5219 76.406Z" fill="url(#paint77_linear_410_903)"/>
    <path style="mix-blend-mode:color-dodge" opacity="0.5" d="M98.5219 76.406L93.6094 77.6881L95.0694 75.918L98.5219 76.406Z" fill="url(#paint78_linear_410_903)"/>
    <path style="mix-blend-mode:color-dodge" opacity="0.5" d="M91.9846 75.918L93.6163 77.6881L88.5234 76.406L91.9846 75.918Z" fill="url(#paint79_linear_410_903)"/>
    <path d="M95.0794 76.9678C94.8217 77.1746 95.0794 77.3152 95.0794 77.3152L96.402 76.9678C96.2138 76.8242 95.9807 76.7461 95.7407 76.7461C95.5006 76.7461 95.2675 76.8242 95.0794 76.9678Z" fill="white"/>
    <g style="mix-blend-mode:multiply" opacity="0.5">
        <path d="M90.4531 82.0633C90.4531 82.0633 92.7978 81.0046 93.5449 80.7068L96.6368 82.0633L93.5449 80.5L90.4531 82.0633Z" fill="#DE5634"/>
    </g>
    <g style="mix-blend-mode:multiply" opacity="0.5">
        <path d="M88.5234 76.4043L93.6163 77.6864L90.8251 80.0025L88.5234 76.4043Z" fill="#DE5634"/>
    </g>
    <g style="mix-blend-mode:multiply" opacity="0.5">
        <path d="M98.5219 76.4043L93.6094 77.6864L96.3147 80.3085L98.5219 76.4043Z" fill="#DE5634"/>
    </g>
    <g style="mix-blend-mode:multiply" opacity="0.5">
        <path d="M90.4531 82.0612L93.6136 77.6855L96.6368 82.0612L93.5449 81.5898L90.4531 82.0612Z" fill="#DE5634"/>
    </g>
    <g style="mix-blend-mode:soft-light" opacity="0.4">
        <path d="M92.3902 75.3982C92.0638 76.275 93.3092 76.8871 93.4809 76.6224C93.6238 75.9604 93.5732 75.2732 93.3349 74.6372C93.1202 74.4387 92.5018 75.0342 92.3902 75.3982Z" fill="#F7FFFF"/>
    </g>
    <g style="mix-blend-mode:soft-light" opacity="0.4">
        <path d="M91.3689 79.8982C92.0302 79.981 92.3995 79.2531 92.5455 78.7485C92.7688 77.9461 90.1579 79.7411 91.3689 79.8982Z" fill="#F7FFFF"/>
    </g>
    <g style="mix-blend-mode:multiply" opacity="0.5">
        <path d="M85.8254 131.728L84.4169 135.036L82.7422 136.682V142.936L93.5464 148.858L105.175 142.398L104.84 136.575L102.968 134.912L101.817 131.554L93.555 124.457L85.8254 131.728Z" fill="#DE5634"/>
    </g>
    <path d="M105.387 139.093L105.335 139.019L93.7497 123.7L93.6896 123.617L93.6294 123.7L82.0437 139.019L81.9922 139.093L82.0437 139.16L93.6294 154.479V154.644L93.6896 154.561L93.7497 154.644V154.479L105.335 139.16L105.387 139.093Z" fill="url(#paint80_linear_410_903)"/>
    <g style="mix-blend-mode:multiply" opacity="0.5">
        <path d="M84.418 139.097L93.6934 126.83L102.969 139.097L93.6934 151.364L84.418 139.097Z" fill="#DE5634"/>
    </g>
    <path d="M84.9062 139.097L93.6922 127.467L102.487 139.097L93.6922 150.718L84.9062 139.097Z" fill="url(#paint81_linear_410_903)"/>
    <g style="mix-blend-mode:soft-light" opacity="0.4">
        <path d="M93.5548 124.451C92.5156 125.41 82.6218 138.331 82.8193 138.686C83.0169 139.042 86.8816 139.05 94.302 138.968C101.722 138.885 104.78 138.901 104.84 138.686C104.9 138.471 93.7437 124.277 93.5548 124.451Z" fill="#FFDF66"/>
    </g>
    <path style="mix-blend-mode:multiply" opacity="0.37" d="M82.5013 139.136C82.3639 139.69 93.1767 153.876 93.8637 153.653C94.5508 153.429 105.209 139.467 104.53 139.095C103.852 138.723 82.6301 138.623 82.5013 139.136Z" fill="url(#paint82_linear_410_903)"/>
    <g style="mix-blend-mode:multiply" opacity="0.5">
        <path d="M93.545 142.362L90.1956 144.057L90.8311 140.467L88.1172 137.92L91.8703 137.39L93.545 134.123L95.2198 137.39L98.9643 137.92L96.259 140.467L96.8945 144.057L93.545 142.362Z" fill="#DE5634"/>
    </g>
    <path d="M98.5406 138.056L96.7457 137.799L96.2561 137.733L95.0881 137.568L93.5422 134.557L91.9963 137.568L88.5352 138.056L91.043 140.405L90.4504 143.713L93.5422 142.15L96.634 143.713L96.0414 140.405L98.5406 138.056Z" fill="url(#paint83_linear_410_903)"/>
    <path style="mix-blend-mode:multiply" opacity="0.37" d="M88.5234 138.057L93.6163 139.339L91.0312 140.406L88.5234 138.057Z" fill="url(#paint84_linear_410_903)"/>
    <path style="mix-blend-mode:multiply" opacity="0.37" d="M98.5219 138.057L93.6094 139.339L96.0227 140.406L98.5219 138.057Z" fill="url(#paint85_linear_410_903)"/>
    <path style="mix-blend-mode:multiply" opacity="0.37" d="M93.5293 142.15L93.6152 139.338L90.4375 143.714L93.5293 142.15Z" fill="url(#paint86_linear_410_903)"/>
    <path style="mix-blend-mode:multiply" opacity="0.37" d="M96.6192 143.714L93.6132 139.338L93.5273 142.15L96.6192 143.714Z" fill="url(#paint87_linear_410_903)"/>
    <path style="mix-blend-mode:color-dodge" opacity="0.5" d="M93.5273 134.557L93.6132 139.338L95.0732 137.568L93.5273 134.557Z" fill="url(#paint88_linear_410_903)"/>
    <path style="mix-blend-mode:color-dodge" opacity="0.5" d="M98.5219 138.051L93.6094 139.333L95.0694 137.562L98.5219 138.051Z" fill="url(#paint89_linear_410_903)"/>
    <path style="mix-blend-mode:color-dodge" opacity="0.5" d="M98.5219 138.051L93.6094 139.333L95.0694 137.562L98.5219 138.051Z" fill="url(#paint90_linear_410_903)"/>
    <path style="mix-blend-mode:color-dodge" opacity="0.5" d="M91.9846 137.562L93.6163 139.333L88.5234 138.051L91.9846 137.562Z" fill="url(#paint91_linear_410_903)"/>
    <path d="M95.0794 138.616C94.8217 138.822 95.0794 138.963 95.0794 138.963L96.402 138.616C96.2125 138.475 95.98 138.398 95.7407 138.398C95.5013 138.398 95.2688 138.475 95.0794 138.616Z" fill="white"/>
    <g style="mix-blend-mode:multiply" opacity="0.5">
        <path d="M90.4531 143.72C90.4531 143.72 92.7978 142.653 93.5449 142.355L96.6368 143.72L93.5449 142.148L90.4531 143.72Z" fill="#DE5634"/>
    </g>
    <g style="mix-blend-mode:multiply" opacity="0.5">
        <path d="M88.5234 138.057L93.6163 139.339L90.8251 141.655L88.5234 138.057Z" fill="#DE5634"/>
    </g>
    <g style="mix-blend-mode:multiply" opacity="0.5">
        <path d="M98.5219 138.057L93.6094 139.339L96.3147 141.961L98.5219 138.057Z" fill="#DE5634"/>
    </g>
    <g style="mix-blend-mode:multiply" opacity="0.5">
        <path d="M90.4531 143.714L93.6136 139.338L96.6368 143.714L93.5449 143.25L90.4531 143.714Z" fill="#DE5634"/>
    </g>
    <g style="mix-blend-mode:soft-light" opacity="0.4">
        <path d="M92.3902 137.046C92.0638 137.923 93.3092 138.543 93.4809 138.27C93.6238 137.608 93.5732 136.921 93.3349 136.285C93.1202 136.087 92.5018 136.691 92.3902 137.046Z" fill="#F7FFFF"/>
    </g>
    <g style="mix-blend-mode:soft-light" opacity="0.4">
        <path d="M91.3689 141.546C92.0302 141.637 92.3995 140.901 92.5455 140.405C92.7688 139.594 90.1579 141.389 91.3689 141.546Z" fill="#F7FFFF"/>
    </g>
    <path style="mix-blend-mode:color-dodge" opacity="0.5" d="M138.216 88.8066C138.216 95.4187 135.489 101.76 130.634 106.435C125.78 111.111 119.196 113.737 112.331 113.737C105.465 113.737 98.8814 111.111 94.027 106.435C89.1725 101.76 86.4453 95.4187 86.4453 88.8066" fill="url(#paint92_radial_410_903)"/>
    <path d="M72.9727 1.42383L80.1546 12.6044C80.8096 13.624 81.9382 14.2404 83.15 14.2404H104.093C105.305 14.2404 106.434 13.624 107.089 12.6044L114.271 1.42383H72.9727Z" fill="url(#paint93_linear_410_903)"/>
    <path d="M90.3667 4.15685H91.9716L88.9512 11.1348H87.3563L84.3458 4.15685H86.0903L88.2135 9.14108L90.3667 4.15685ZM92.5543 11.1348V4.15685H94.1691V11.1348H92.5543ZM98.8456 4.15685C100.71 4.15685 101.876 5.12379 101.876 6.68884C101.876 8.24392 100.71 9.21086 98.8456 9.21086H97.44V11.1348H95.8251V4.15685H98.8456ZM98.7559 7.89502C99.7427 7.89502 100.241 7.44644 100.241 6.68884C100.241 5.92127 99.7427 5.47269 98.7559 5.47269H97.44V7.89502H98.7559Z" fill="white"/>
    <path d="M27.8105 23.1035V14.2344H29.6305V23.1035H27.8105ZM35.257 18.7459L37.0897 23.1035H35.116L33.7959 19.4636L32.463 23.1035H30.4892L32.3348 18.7459L30.5277 14.2344H32.5014L33.7959 17.9897L35.0775 14.2344H37.0513L35.257 18.7459Z" fill="white"/>
    <g style="mix-blend-mode:overlay">
        <g style="mix-blend-mode:color-dodge">
            <path fill-rule="evenodd" clip-rule="evenodd" d="M13.875 8.5461C13.875 4.61366 17.0629 1.42578 20.9953 1.42578H164.826C168.758 1.42578 171.946 4.61365 171.946 8.54609V85.8449C171.946 88.0189 170.882 90.0554 169.097 91.2969V91.2969C167.313 92.5384 166.249 94.5748 166.249 96.7489V113.213V115.352V131.816C166.249 133.99 167.313 136.027 169.097 137.268V137.268C170.882 138.51 171.946 140.546 171.946 142.72V216.459C171.946 220.392 168.758 223.58 164.826 223.58H20.9953C17.0629 223.58 13.875 220.392 13.875 216.459V143.964C13.875 141.634 15.0158 139.45 16.9292 138.119L17.9407 137.416C19.8541 136.085 20.9949 133.901 20.9949 131.57L20.9949 113.218L20.9949 97.0037C20.9949 94.6729 19.8541 92.4896 17.9407 91.1586L16.9292 90.4549C15.0158 89.1238 13.875 86.9406 13.875 84.6098V8.5461Z" fill="url(#paint94_linear_410_903)"/>
        </g>
    </g>
    <defs>
        <filter id="filter0_b_410_903" x="-3.92689" y="-13.5285" width="63.3694" height="252.76" filterUnits="userSpaceOnUse" colorInterpolationFilters="sRGB">
            <feFlood floodOpacity="0" result="BackgroundImageFix"/>
            <feGaussianBlur in="BackgroundImageFix" stdDeviation="9.25641"/>
            <feComposite in2="SourceAlpha" operator="in" result="effect1_backgroundBlur_410_903"/>
            <feBlend mode="normal" in="SourceGraphic" in2="effect1_backgroundBlur_410_903" result="shape"/>
        </filter>
        <filter id="filter1_b_410_903" x="126.378" y="-13.5265" width="63.3694" height="252.76" filterUnits="userSpaceOnUse" colorInterpolationFilters="sRGB">
            <feFlood floodOpacity="0" result="BackgroundImageFix"/>
            <feGaussianBlur in="BackgroundImageFix" stdDeviation="9.25641"/>
            <feComposite in2="SourceAlpha" operator="in" result="effect1_backgroundBlur_410_903"/>
            <feBlend mode="normal" in="SourceGraphic" in2="effect1_backgroundBlur_410_903" result="shape"/>
        </filter>
        <filter id="filter2_i_410_903" x="12.4492" y="0" width="160.918" height="227.85" filterUnits="userSpaceOnUse" colorInterpolationFilters="sRGB">
            <feFlood floodOpacity="0" result="BackgroundImageFix"/>
            <feBlend mode="normal" in="SourceGraphic" in2="BackgroundImageFix" result="shape"/>
            <feColorMatrix in="SourceAlpha" type="matrix" values="0 0 0 0 0 0 0 0 0 0 0 0 0 0 0 0 0 0 127 0" result="hardAlpha"/>
            <feOffset dy="3.56016"/>
            <feGaussianBlur stdDeviation="1.42406"/>
            <feComposite in2="hardAlpha" operator="arithmetic" k2="-1" k3="1"/>
            <feColorMatrix type="matrix" values="0 0 0 0 0 0 0 0 0 0 0 0 0 0 0 0 0 0 0.25 0"/>
            <feBlend mode="normal" in2="shape" result="effect1_innerShadow_410_903"/>
        </filter>
        <filter id="filter3_f_410_903" x="0.343708" y="22.0742" width="185.84" height="180.856" filterUnits="userSpaceOnUse" colorInterpolationFilters="sRGB">
            <feFlood floodOpacity="0" result="BackgroundImageFix"/>
            <feBlend mode="normal" in="SourceGraphic" in2="BackgroundImageFix" result="shape"/>
            <feGaussianBlur stdDeviation="26.7012" result="effect1_foregroundBlur_410_903"/>
        </filter>
        <filter id="filter4_f_410_903" x="139.914" y="5.37266" width="26.7" height="26.698" filterUnits="userSpaceOnUse" colorInterpolationFilters="sRGB">
            <feFlood floodOpacity="0" result="BackgroundImageFix"/>
            <feBlend mode="normal" in="SourceGraphic" in2="BackgroundImageFix" result="shape"/>
            <feGaussianBlur stdDeviation="0.777539" result="effect1_foregroundBlur_410_903"/>
        </filter>
        <filter id="filter5_f_410_903" x="136.406" y="1.85703" width="33.7195" height="33.7195" filterUnits="userSpaceOnUse" colorInterpolationFilters="sRGB">
            <feFlood floodOpacity="0" result="BackgroundImageFix"/>
            <feBlend mode="normal" in="SourceGraphic" in2="BackgroundImageFix" result="shape"/>
            <feGaussianBlur stdDeviation="0.777539" result="effect1_foregroundBlur_410_903"/>
        </filter>
        <filter id="filter6_f_410_903" x="136.406" y="1.85703" width="33.7195" height="33.7195" filterUnits="userSpaceOnUse" colorInterpolationFilters="sRGB">
            <feFlood floodOpacity="0" result="BackgroundImageFix"/>
            <feBlend mode="normal" in="SourceGraphic" in2="BackgroundImageFix" result="shape"/>
            <feGaussianBlur stdDeviation="0.777539" result="effect1_foregroundBlur_410_903"/>
        </filter>
        <filter id="filter7_f_410_903" x="136.214" y="1.83359" width="26.7" height="26.698" filterUnits="userSpaceOnUse" colorInterpolationFilters="sRGB">
            <feFlood floodOpacity="0" result="BackgroundImageFix"/>
            <feBlend mode="normal" in="SourceGraphic" in2="BackgroundImageFix" result="shape"/>
            <feGaussianBlur stdDeviation="0.777539" result="effect1_foregroundBlur_410_903"/>
        </filter>
        <filter id="filter8_f_410_903" x="142.554" y="10.2438" width="26.5672" height="26.5691" filterUnits="userSpaceOnUse" colorInterpolationFilters="sRGB">
            <feFlood floodOpacity="0" result="BackgroundImageFix"/>
            <feBlend mode="normal" in="SourceGraphic" in2="BackgroundImageFix" result="shape"/>
            <feGaussianBlur stdDeviation="0.777539" result="effect1_foregroundBlur_410_903"/>
        </filter>
        <linearGradient id="paint0_linear_410_903" x1="9.60173" y1="211.161" x2="96.1076" y2="0.64228" gradientUnits="userSpaceOnUse">
            <stop stop-color="#060913"/>
            <stop offset="0.136764" stop-color="#070A16"/>
            <stop offset="0.197268" stop-color="#0D142E"/>
            <stop offset="0.309253" stop-color="#070B17"/>
            <stop offset="0.490764" stop-color="#080C1A"/>
            <stop offset="0.661458" stop-color="#0B1125"/>
            <stop offset="1" stop-color="#101010"/>
        </linearGradient>
        <linearGradient id="paint1_linear_410_903" x1="31.3187" y1="230.264" x2="78.3834" y2="217.115" gradientUnits="userSpaceOnUse">
            <stop stop-color="#EECCA2"/>
            <stop offset="0.260417" stop-color="#624A2C"/>
            <stop offset="0.6875" stop-color="#FFDAAB"/>
            <stop offset="1" stop-color="#C68C43"/>
        </linearGradient>
        <linearGradient id="paint2_linear_410_903" x1="176.219" y1="14.5442" x2="89.7127" y2="225.063" gradientUnits="userSpaceOnUse">
            <stop stop-color="#060913"/>
            <stop offset="0.136764" stop-color="#070A16"/>
            <stop offset="0.197268" stop-color="#0D142E"/>
            <stop offset="0.309253" stop-color="#070B17"/>
            <stop offset="0.490764" stop-color="#080C1A"/>
            <stop offset="0.661458" stop-color="#0B1125"/>
            <stop offset="1" stop-color="#101010"/>
        </linearGradient>
        <linearGradient id="paint3_linear_410_903" x1="154.502" y1="-4.55942" x2="107.437" y2="8.59028" gradientUnits="userSpaceOnUse">
            <stop stop-color="#EECCA2"/>
            <stop offset="0.260417" stop-color="#624A2C"/>
            <stop offset="0.6875" stop-color="#FFDAAB"/>
            <stop offset="1" stop-color="#C68C43"/>
        </linearGradient>
        <linearGradient id="paint4_linear_410_903" x1="131.715" y1="-18.1568" x2="1.41272" y2="248.855" gradientUnits="userSpaceOnUse">
            <stop stop-color="#C68C43"/>
            <stop offset="0.119792" stop-color="#F5BA6E"/>
            <stop offset="0.286458" stop-color="#C68C43"/>
            <stop offset="0.5625" stop-color="#C68C43"/>
            <stop offset="0.770833" stop-color="#EEB873"/>
            <stop offset="1" stop-color="#C68C43"/>
        </linearGradient>
        <linearGradient id="paint5_linear_410_903" x1="93.6671" y1="110.237" x2="93.6671" y2="-33.0086" gradientUnits="userSpaceOnUse">
            <stop stop-color="#CA6B34"/>
            <stop offset="0.67" stop-color="#FFA933"/>
            <stop offset="1" stop-color="#FFBD2B"/>
        </linearGradient>
        <linearGradient id="paint6_linear_410_903" x1="57.9711" y1="34.1445" x2="57.9711" y2="65.0351" gradientUnits="userSpaceOnUse">
            <stop stop-color="#C10065"/>
            <stop offset="1" stop-color="white"/>
        </linearGradient>
        <linearGradient id="paint7_linear_410_903" x1="129.885" y1="34.1445" x2="129.885" y2="65.0351" gradientUnits="userSpaceOnUse">
            <stop stop-color="#C10065"/>
            <stop offset="1" stop-color="white"/>
        </linearGradient>
        <linearGradient id="paint8_linear_410_903" x1="71.7287" y1="50.7227" x2="71.7287" y2="107.983" gradientUnits="userSpaceOnUse">
            <stop stop-color="#C10065"/>
            <stop offset="1" stop-color="white"/>
        </linearGradient>
        <linearGradient id="paint9_linear_410_903" x1="115.268" y1="50.7227" x2="115.268" y2="107.983" gradientUnits="userSpaceOnUse">
            <stop stop-color="#C10065"/>
            <stop offset="1" stop-color="white"/>
        </linearGradient>
        <linearGradient id="paint10_linear_410_903" x1="99.4448" y1="-3.04297" x2="107.202" y2="77.9998" gradientUnits="userSpaceOnUse">
            <stop stop-color="#BFD7FF"/>
            <stop offset="1"/>
        </linearGradient>
        <linearGradient id="paint11_linear_410_903" x1="94.5625" y1="39.0414" x2="165.207" y2="39.0414" gradientUnits="userSpaceOnUse">
            <stop stop-color="#BFD7FF"/>
            <stop offset="1"/>
        </linearGradient>
        <linearGradient id="paint12_linear_410_903" x1="124.026" y1="-5.30534" x2="131.842" y2="75.6414" gradientUnits="userSpaceOnUse">
            <stop stop-color="#BFD7FF"/>
            <stop offset="1"/>
        </linearGradient>
        <linearGradient id="paint13_linear_410_903" x1="52.964" y1="1.54047" x2="60.777" y2="82.4878" gradientUnits="userSpaceOnUse">
            <stop stop-color="#BFD7FF"/>
            <stop offset="1"/>
        </linearGradient>
        <linearGradient id="paint14_linear_410_903" x1="56.6562" y1="133.861" x2="70.6811" y2="133.861" gradientUnits="userSpaceOnUse">
            <stop stop-color="#DE3C14"/>
            <stop offset="0.07" stop-color="#C72E10"/>
            <stop offset="0.19" stop-color="#AB1C0C"/>
            <stop offset="0.3" stop-color="#971009"/>
            <stop offset="0.41" stop-color="#8B0807"/>
            <stop offset="0.52" stop-color="#870606"/>
            <stop offset="0.62" stop-color="#8C0707"/>
            <stop offset="0.73" stop-color="#9A0808"/>
            <stop offset="0.85" stop-color="#B20B0B"/>
            <stop offset="0.97" stop-color="#D30E0E"/>
            <stop offset="1" stop-color="#DB0F0F"/>
        </linearGradient>
        <linearGradient id="paint15_linear_410_903" x1="56.6562" y1="140.924" x2="70.1142" y2="140.924" gradientUnits="userSpaceOnUse">
            <stop stop-color="#FFA933"/>
            <stop offset="0.05" stop-color="#FFB030"/>
            <stop offset="0.18" stop-color="#FFBA2C"/>
            <stop offset="0.34" stop-color="#FEBB2B"/>
            <stop offset="0.43" stop-color="#EB9E2E"/>
            <stop offset="0.52" stop-color="#DC8731"/>
            <stop offset="0.62" stop-color="#D27733"/>
            <stop offset="0.72" stop-color="#CC6E34"/>
            <stop offset="0.87" stop-color="#CA6B34"/>
            <stop offset="0.92" stop-color="#E39130"/>
            <stop offset="0.97" stop-color="#F7B12C"/>
            <stop offset="1" stop-color="#FFBD2B"/>
        </linearGradient>
        <linearGradient id="paint16_linear_410_903" x1="63.673" y1="169.055" x2="63.673" y2="151.982" gradientUnits="userSpaceOnUse">
            <stop stop-color="white"/>
            <stop offset="1" stop-color="#B41E2D"/>
        </linearGradient>
        <linearGradient id="paint17_linear_410_903" x1="115.852" y1="133.861" x2="129.876" y2="133.861" gradientUnits="userSpaceOnUse">
            <stop stop-color="#DE3C14"/>
            <stop offset="0.07" stop-color="#C72E10"/>
            <stop offset="0.19" stop-color="#AB1C0C"/>
            <stop offset="0.3" stop-color="#971009"/>
            <stop offset="0.41" stop-color="#8B0807"/>
            <stop offset="0.52" stop-color="#870606"/>
            <stop offset="0.62" stop-color="#8C0707"/>
            <stop offset="0.73" stop-color="#9A0808"/>
            <stop offset="0.85" stop-color="#B20B0B"/>
            <stop offset="0.97" stop-color="#D30E0E"/>
            <stop offset="1" stop-color="#DB0F0F"/>
        </linearGradient>
        <linearGradient id="paint18_linear_410_903" x1="116.422" y1="140.924" x2="129.871" y2="140.924" gradientUnits="userSpaceOnUse">
            <stop stop-color="#FFA933"/>
            <stop offset="0.05" stop-color="#FFB030"/>
            <stop offset="0.18" stop-color="#FFBA2C"/>
            <stop offset="0.34" stop-color="#FEBB2B"/>
            <stop offset="0.43" stop-color="#EB9E2E"/>
            <stop offset="0.52" stop-color="#DC8731"/>
            <stop offset="0.62" stop-color="#D27733"/>
            <stop offset="0.72" stop-color="#CC6E34"/>
            <stop offset="0.87" stop-color="#CA6B34"/>
            <stop offset="0.92" stop-color="#E39130"/>
            <stop offset="0.97" stop-color="#F7B12C"/>
            <stop offset="1" stop-color="#FFBD2B"/>
        </linearGradient>
        <linearGradient id="paint19_linear_410_903" x1="122.868" y1="169.055" x2="122.868" y2="151.982" gradientUnits="userSpaceOnUse">
            <stop stop-color="white"/>
            <stop offset="1" stop-color="#B41E2D"/>
        </linearGradient>
        <linearGradient id="paint20_linear_410_903" x1="68.4227" y1="149.426" x2="89.782" y2="149.426" gradientUnits="userSpaceOnUse">
            <stop stop-color="#DE3C14"/>
            <stop offset="0.07" stop-color="#C72E10"/>
            <stop offset="0.19" stop-color="#AB1C0C"/>
            <stop offset="0.3" stop-color="#971009"/>
            <stop offset="0.41" stop-color="#8B0807"/>
            <stop offset="0.52" stop-color="#870606"/>
            <stop offset="0.62" stop-color="#8C0707"/>
            <stop offset="0.73" stop-color="#9A0808"/>
            <stop offset="0.85" stop-color="#B20B0B"/>
            <stop offset="0.97" stop-color="#D30E0E"/>
            <stop offset="1" stop-color="#DB0F0F"/>
        </linearGradient>
        <linearGradient id="paint21_linear_410_903" x1="68.4227" y1="154.747" x2="89.782" y2="154.747" gradientUnits="userSpaceOnUse">
            <stop stop-color="#FFA933"/>
            <stop offset="0.05" stop-color="#FFB030"/>
            <stop offset="0.18" stop-color="#FFBA2C"/>
            <stop offset="0.34" stop-color="#FEBB2B"/>
            <stop offset="0.43" stop-color="#EB9E2E"/>
            <stop offset="0.52" stop-color="#DC8731"/>
            <stop offset="0.62" stop-color="#D27733"/>
            <stop offset="0.72" stop-color="#CC6E34"/>
            <stop offset="0.87" stop-color="#CA6B34"/>
            <stop offset="0.92" stop-color="#E39130"/>
            <stop offset="0.97" stop-color="#F7B12C"/>
            <stop offset="1" stop-color="#FFBD2B"/>
        </linearGradient>
        <linearGradient id="paint22_linear_410_903" x1="97.0508" y1="149.426" x2="118.41" y2="149.426" gradientUnits="userSpaceOnUse">
            <stop stop-color="#DE3C14"/>
            <stop offset="0.07" stop-color="#C72E10"/>
            <stop offset="0.19" stop-color="#AB1C0C"/>
            <stop offset="0.3" stop-color="#971009"/>
            <stop offset="0.41" stop-color="#8B0807"/>
            <stop offset="0.52" stop-color="#870606"/>
            <stop offset="0.62" stop-color="#8C0707"/>
            <stop offset="0.73" stop-color="#9A0808"/>
            <stop offset="0.85" stop-color="#B20B0B"/>
            <stop offset="0.97" stop-color="#D30E0E"/>
            <stop offset="1" stop-color="#DB0F0F"/>
        </linearGradient>
        <linearGradient id="paint23_linear_410_903" x1="97.0508" y1="154.747" x2="118.41" y2="154.747" gradientUnits="userSpaceOnUse">
            <stop stop-color="#FFA933"/>
            <stop offset="0.05" stop-color="#FFB030"/>
            <stop offset="0.18" stop-color="#FFBA2C"/>
            <stop offset="0.34" stop-color="#FEBB2B"/>
            <stop offset="0.43" stop-color="#EB9E2E"/>
            <stop offset="0.52" stop-color="#DC8731"/>
            <stop offset="0.62" stop-color="#D27733"/>
            <stop offset="0.72" stop-color="#CC6E34"/>
            <stop offset="0.87" stop-color="#CA6B34"/>
            <stop offset="0.92" stop-color="#E39130"/>
            <stop offset="0.97" stop-color="#F7B12C"/>
            <stop offset="1" stop-color="#FFBD2B"/>
        </linearGradient>
        <linearGradient id="paint24_linear_410_903" x1="79.098" y1="169.054" x2="79.098" y2="151.982" gradientUnits="userSpaceOnUse">
            <stop stop-color="white"/>
            <stop offset="1" stop-color="#B41E2D"/>
        </linearGradient>
        <linearGradient id="paint25_linear_410_903" x1="107.735" y1="169.054" x2="107.735" y2="151.982" gradientUnits="userSpaceOnUse">
            <stop stop-color="white"/>
            <stop offset="1" stop-color="#B41E2D"/>
        </linearGradient>
        <linearGradient id="paint26_linear_410_903" x1="125.571" y1="114.002" x2="125.566" y2="98.5241" gradientUnits="userSpaceOnUse">
            <stop stop-color="#CA6B34"/>
            <stop offset="0.67" stop-color="#FFA933"/>
            <stop offset="1" stop-color="#FFBD2B"/>
        </linearGradient>
        <linearGradient id="paint27_linear_410_903" x1="134.677" y1="102.386" x2="144.759" y2="102.386" gradientUnits="userSpaceOnUse">
            <stop stop-color="#DE3C14"/>
            <stop offset="0.07" stop-color="#C72E10"/>
            <stop offset="0.19" stop-color="#AB1C0C"/>
            <stop offset="0.3" stop-color="#971009"/>
            <stop offset="0.41" stop-color="#8B0807"/>
            <stop offset="0.52" stop-color="#870606"/>
            <stop offset="0.62" stop-color="#8C0707"/>
            <stop offset="0.73" stop-color="#9A0808"/>
            <stop offset="0.85" stop-color="#B20B0B"/>
            <stop offset="0.97" stop-color="#D30E0E"/>
            <stop offset="1" stop-color="#DB0F0F"/>
        </linearGradient>
        <linearGradient id="paint28_linear_410_903" x1="71.8718" y1="130.757" x2="71.7926" y2="115.296" gradientUnits="userSpaceOnUse">
            <stop stop-color="#CA6B34"/>
            <stop offset="0.67" stop-color="#FFA933"/>
            <stop offset="1" stop-color="#FFBD2B"/>
        </linearGradient>
        <linearGradient id="paint29_linear_410_903" x1="41.9727" y1="102.421" x2="52.064" y2="102.421" gradientUnits="userSpaceOnUse">
            <stop stop-color="#DE3C14"/>
            <stop offset="0.07" stop-color="#C72E10"/>
            <stop offset="0.19" stop-color="#AB1C0C"/>
            <stop offset="0.3" stop-color="#971009"/>
            <stop offset="0.41" stop-color="#8B0807"/>
            <stop offset="0.52" stop-color="#870606"/>
            <stop offset="0.62" stop-color="#8C0707"/>
            <stop offset="0.73" stop-color="#9A0808"/>
            <stop offset="0.85" stop-color="#B20B0B"/>
            <stop offset="0.97" stop-color="#D30E0E"/>
            <stop offset="1" stop-color="#DB0F0F"/>
        </linearGradient>
        <linearGradient id="paint30_linear_410_903" x1="130.763" y1="104.235" x2="130.765" y2="88.7609" gradientUnits="userSpaceOnUse">
            <stop stop-color="#CA6B34"/>
            <stop offset="0.67" stop-color="#FFA933"/>
            <stop offset="1" stop-color="#FFBD2B"/>
        </linearGradient>
        <linearGradient id="paint31_linear_410_903" x1="140.152" y1="92.6342" x2="150.244" y2="92.6342" gradientUnits="userSpaceOnUse">
            <stop stop-color="#DE3C14"/>
            <stop offset="0.07" stop-color="#C72E10"/>
            <stop offset="0.19" stop-color="#AB1C0C"/>
            <stop offset="0.3" stop-color="#971009"/>
            <stop offset="0.41" stop-color="#8B0807"/>
            <stop offset="0.52" stop-color="#870606"/>
            <stop offset="0.62" stop-color="#8C0707"/>
            <stop offset="0.73" stop-color="#9A0808"/>
            <stop offset="0.85" stop-color="#B20B0B"/>
            <stop offset="0.97" stop-color="#D30E0E"/>
            <stop offset="1" stop-color="#DB0F0F"/>
        </linearGradient>
        <linearGradient id="paint32_linear_410_903" x1="66.3325" y1="121.031" x2="66.2534" y2="105.57" gradientUnits="userSpaceOnUse">
            <stop stop-color="#CA6B34"/>
            <stop offset="0.67" stop-color="#FFA933"/>
            <stop offset="1" stop-color="#FFBD2B"/>
        </linearGradient>
        <linearGradient id="paint33_linear_410_903" x1="36.4219" y1="92.6674" x2="46.5132" y2="92.6674" gradientUnits="userSpaceOnUse">
            <stop stop-color="#DE3C14"/>
            <stop offset="0.07" stop-color="#C72E10"/>
            <stop offset="0.19" stop-color="#AB1C0C"/>
            <stop offset="0.3" stop-color="#971009"/>
            <stop offset="0.41" stop-color="#8B0807"/>
            <stop offset="0.52" stop-color="#870606"/>
            <stop offset="0.62" stop-color="#8C0707"/>
            <stop offset="0.73" stop-color="#9A0808"/>
            <stop offset="0.85" stop-color="#B20B0B"/>
            <stop offset="0.97" stop-color="#D30E0E"/>
            <stop offset="1" stop-color="#DB0F0F"/>
        </linearGradient>
        <linearGradient id="paint34_linear_410_903" x1="74.8132" y1="78.9866" x2="74.8132" y2="95.017" gradientUnits="userSpaceOnUse">
            <stop stop-color="#C10065"/>
            <stop offset="1" stop-color="white"/>
        </linearGradient>
        <linearGradient id="paint35_linear_410_903" x1="112.019" y1="78.9866" x2="112.019" y2="95.017" gradientUnits="userSpaceOnUse">
            <stop stop-color="#C10065"/>
            <stop offset="1" stop-color="white"/>
        </linearGradient>
        <linearGradient id="paint36_linear_410_903" x1="53.5407" y1="126.747" x2="53.5407" y2="109.658" gradientUnits="userSpaceOnUse">
            <stop stop-color="#CA6B34"/>
            <stop offset="0.67" stop-color="#FFA933"/>
            <stop offset="1" stop-color="#FFBD2B"/>
        </linearGradient>
        <linearGradient id="paint37_linear_410_903" x1="55.6079" y1="117.55" x2="55.6079" y2="125.532" gradientUnits="userSpaceOnUse">
            <stop stop-color="#C10065"/>
            <stop offset="1" stop-color="white"/>
        </linearGradient>
        <linearGradient id="paint38_linear_410_903" x1="133.291" y1="126.747" x2="133.291" y2="109.658" gradientUnits="userSpaceOnUse">
            <stop stop-color="#CA6B34"/>
            <stop offset="0.67" stop-color="#FFA933"/>
            <stop offset="1" stop-color="#FFBD2B"/>
        </linearGradient>
        <linearGradient id="paint39_linear_410_903" x1="131.224" y1="117.55" x2="131.224" y2="125.532" gradientUnits="userSpaceOnUse">
            <stop stop-color="#C10065"/>
            <stop offset="1" stop-color="white"/>
        </linearGradient>
        <linearGradient id="paint40_linear_410_903" x1="120.635" y1="85.4264" x2="120.635" y2="73.3664" gradientUnits="userSpaceOnUse">
            <stop stop-color="#CA6B34"/>
            <stop offset="0.67" stop-color="#FFA933"/>
            <stop offset="1" stop-color="#FFBD2B"/>
        </linearGradient>
        <linearGradient id="paint41_linear_410_903" x1="127.649" y1="81.5443" x2="115.051" y2="75.1402" gradientUnits="userSpaceOnUse">
            <stop stop-color="#C10065"/>
            <stop offset="1" stop-color="white"/>
        </linearGradient>
        <linearGradient id="paint42_linear_410_903" x1="131.411" y1="74.1469" x2="118.813" y2="67.7428" gradientUnits="userSpaceOnUse">
            <stop stop-color="#C10065"/>
            <stop offset="1" stop-color="white"/>
        </linearGradient>
        <linearGradient id="paint43_linear_410_903" x1="66.2095" y1="85.4299" x2="66.2095" y2="73.3698" gradientUnits="userSpaceOnUse">
            <stop stop-color="#CA6B34"/>
            <stop offset="0.67" stop-color="#FFA933"/>
            <stop offset="1" stop-color="#FFBD2B"/>
        </linearGradient>
        <linearGradient id="paint44_linear_410_903" x1="59.1858" y1="81.5443" x2="71.7838" y2="75.1402" gradientUnits="userSpaceOnUse">
            <stop stop-color="#C10065"/>
            <stop offset="1" stop-color="white"/>
        </linearGradient>
        <linearGradient id="paint45_linear_410_903" x1="55.4221" y1="74.1469" x2="68.0201" y2="67.7428" gradientUnits="userSpaceOnUse">
            <stop stop-color="#C10065"/>
            <stop offset="1" stop-color="white"/>
        </linearGradient>
        <linearGradient id="paint46_linear_410_903" x1="93.5406" y1="150.22" x2="93.5406" y2="82.2684" gradientUnits="userSpaceOnUse">
            <stop stop-color="#CA6B34"/>
            <stop offset="0.67" stop-color="#FFA933"/>
            <stop offset="1" stop-color="#FFBD2B"/>
        </linearGradient>
        <linearGradient id="paint47_linear_410_903" x1="93.5451" y1="70.3287" x2="93.5451" y2="138.627" gradientUnits="userSpaceOnUse">
            <stop stop-color="#CA6B34"/>
            <stop offset="0.17" stop-color="#CC6E34"/>
            <stop offset="0.29" stop-color="#D27733"/>
            <stop offset="0.39" stop-color="#DB8631"/>
            <stop offset="0.48" stop-color="#E99B2F"/>
            <stop offset="0.57" stop-color="#FBB72C"/>
            <stop offset="0.59" stop-color="#FFBD2B"/>
            <stop offset="1" stop-color="#FFA933"/>
        </linearGradient>
        <linearGradient id="paint48_linear_410_903" x1="93.544" y1="140.148" x2="93.544" y2="78.334" gradientUnits="userSpaceOnUse">
            <stop stop-color="#B75014"/>
            <stop offset="0.38" stop-color="#E8692A"/>
            <stop offset="1" stop-color="#F58E2F"/>
        </linearGradient>
        <linearGradient id="paint49_linear_410_903" x1="63.9604" y1="111.412" x2="63.9604" y2="130.056" gradientUnits="userSpaceOnUse">
            <stop stop-color="#C10065"/>
            <stop offset="1" stop-color="white"/>
        </linearGradient>
        <linearGradient id="paint50_linear_410_903" x1="123.001" y1="111.412" x2="123.001" y2="130.056" gradientUnits="userSpaceOnUse">
            <stop stop-color="#C10065"/>
            <stop offset="1" stop-color="white"/>
        </linearGradient>
        <linearGradient id="paint51_linear_410_903" x1="77.9404" y1="128.449" x2="77.9404" y2="147.713" gradientUnits="userSpaceOnUse">
            <stop stop-color="#C10065"/>
            <stop offset="1" stop-color="white"/>
        </linearGradient>
        <linearGradient id="paint52_linear_410_903" x1="109.152" y1="128.454" x2="109.152" y2="148.099" gradientUnits="userSpaceOnUse">
            <stop stop-color="#C10065"/>
            <stop offset="1" stop-color="white"/>
        </linearGradient>
        <linearGradient id="paint53_linear_410_903" x1="93.4156" y1="82.927" x2="93.4156" y2="132.176" gradientUnits="userSpaceOnUse">
            <stop stop-color="#CA6B34"/>
            <stop offset="0.67" stop-color="#FFA933"/>
            <stop offset="1" stop-color="#FFBD2B"/>
        </linearGradient>
        <linearGradient id="paint54_linear_410_903" x1="93.4156" y1="138.211" x2="93.4156" y2="116.217" gradientUnits="userSpaceOnUse">
            <stop stop-color="#F1CB3C"/>
            <stop offset="1" stop-color="#FFC14F"/>
        </linearGradient>
        <linearGradient id="paint55_linear_410_903" x1="110.988" y1="110.703" x2="110.988" y2="136.047" gradientUnits="userSpaceOnUse">
            <stop stop-color="#C10065"/>
            <stop offset="1" stop-color="white"/>
        </linearGradient>
        <linearGradient id="paint56_linear_410_903" x1="93.4156" y1="112.974" x2="93.4156" y2="63.7243" gradientUnits="userSpaceOnUse">
            <stop stop-color="#CA6B34"/>
            <stop offset="0.67" stop-color="#FFA933"/>
            <stop offset="1" stop-color="#FFBD2B"/>
        </linearGradient>
        <linearGradient id="paint57_linear_410_903" x1="93.4156" y1="79.8457" x2="93.4156" y2="101.84" gradientUnits="userSpaceOnUse">
            <stop stop-color="#F1CB3C"/>
            <stop offset="1" stop-color="#FFC14F"/>
        </linearGradient>
        <linearGradient id="paint58_linear_410_903" x1="150.287" y1="96.2589" x2="93.0114" y2="96.2589" gradientUnits="userSpaceOnUse">
            <stop stop-color="#C10065"/>
            <stop offset="1" stop-color="white"/>
        </linearGradient>
        <linearGradient id="paint59_linear_410_903" x1="93.6896" y1="92.3207" x2="93.6896" y2="65.107" gradientUnits="userSpaceOnUse">
            <stop stop-color="#CA6B34"/>
            <stop offset="0.67" stop-color="#FFA933"/>
            <stop offset="1" stop-color="#FFBD2B"/>
        </linearGradient>
        <linearGradient id="paint60_linear_410_903" x1="84.9062" y1="77.44" x2="102.487" y2="77.44" gradientUnits="userSpaceOnUse">
            <stop stop-color="#DE3C14"/>
            <stop offset="0.07" stop-color="#C72E10"/>
            <stop offset="0.19" stop-color="#AB1C0C"/>
            <stop offset="0.3" stop-color="#971009"/>
            <stop offset="0.41" stop-color="#8B0807"/>
            <stop offset="0.52" stop-color="#870606"/>
            <stop offset="0.62" stop-color="#8C0707"/>
            <stop offset="0.73" stop-color="#9A0808"/>
            <stop offset="0.85" stop-color="#B20B0B"/>
            <stop offset="0.97" stop-color="#D30E0E"/>
            <stop offset="1" stop-color="#DB0F0F"/>
        </linearGradient>
        <linearGradient id="paint61_linear_410_903" x1="93.5202" y1="77.1316" x2="93.5202" y2="92.004" gradientUnits="userSpaceOnUse">
            <stop stop-color="#C10065"/>
            <stop offset="1" stop-color="white"/>
        </linearGradient>
        <linearGradient id="paint62_linear_410_903" x1="93.544" y1="120.057" x2="93.544" y2="93.8769" gradientUnits="userSpaceOnUse">
            <stop stop-color="#CA6B34"/>
            <stop offset="0.67" stop-color="#FFA933"/>
            <stop offset="1" stop-color="#FFBD2B"/>
        </linearGradient>
        <linearGradient id="paint63_linear_410_903" x1="87.5954" y1="106.025" x2="87.5954" y2="111.667" gradientUnits="userSpaceOnUse">
            <stop stop-color="#C10065"/>
            <stop offset="1" stop-color="white"/>
        </linearGradient>
        <linearGradient id="paint64_linear_410_903" x1="99.6236" y1="106.025" x2="99.6236" y2="111.667" gradientUnits="userSpaceOnUse">
            <stop stop-color="#C10065"/>
            <stop offset="1" stop-color="white"/>
        </linearGradient>
        <linearGradient id="paint65_linear_410_903" x1="89.8929" y1="109.102" x2="89.8929" y2="119.64" gradientUnits="userSpaceOnUse">
            <stop stop-color="#C10065"/>
            <stop offset="1" stop-color="white"/>
        </linearGradient>
        <linearGradient id="paint66_linear_410_903" x1="97.2227" y1="109.102" x2="97.2227" y2="119.64" gradientUnits="userSpaceOnUse">
            <stop stop-color="#C10065"/>
            <stop offset="1" stop-color="white"/>
        </linearGradient>
        <linearGradient id="paint67_linear_410_903" x1="94.6032" y1="99.3362" x2="96.1501" y2="114.047" gradientUnits="userSpaceOnUse">
            <stop stop-color="#BFD7FF"/>
            <stop offset="1"/>
        </linearGradient>
        <linearGradient id="paint68_linear_410_903" x1="93.7148" y1="106.983" x2="105.524" y2="106.983" gradientUnits="userSpaceOnUse">
            <stop stop-color="#BFD7FF"/>
            <stop offset="1"/>
        </linearGradient>
        <linearGradient id="paint69_linear_410_903" x1="98.636" y1="98.9101" x2="100.183" y2="113.613" gradientUnits="userSpaceOnUse">
            <stop stop-color="#BFD7FF"/>
            <stop offset="1"/>
        </linearGradient>
        <linearGradient id="paint70_linear_410_903" x1="86.7623" y1="100.159" x2="88.3012" y2="114.862" gradientUnits="userSpaceOnUse">
            <stop stop-color="#BFD7FF"/>
            <stop offset="1"/>
        </linearGradient>
        <linearGradient id="paint71_linear_410_903" x1="93.5422" y1="82.2391" x2="93.5422" y2="71.3453" gradientUnits="userSpaceOnUse">
            <stop stop-color="#CA6B34"/>
            <stop offset="0.67" stop-color="#FFA933"/>
            <stop offset="1" stop-color="#FFBD2B"/>
        </linearGradient>
        <linearGradient id="paint72_linear_410_903" x1="91.0742" y1="76.396" x2="91.0742" y2="78.7452" gradientUnits="userSpaceOnUse">
            <stop stop-color="#C10065"/>
            <stop offset="1" stop-color="white"/>
        </linearGradient>
        <linearGradient id="paint73_linear_410_903" x1="96.0657" y1="76.396" x2="96.0657" y2="78.7452" gradientUnits="userSpaceOnUse">
            <stop stop-color="#C10065"/>
            <stop offset="1" stop-color="white"/>
        </linearGradient>
        <linearGradient id="paint74_linear_410_903" x1="92.0264" y1="77.6855" x2="92.0264" y2="82.0612" gradientUnits="userSpaceOnUse">
            <stop stop-color="#C10065"/>
            <stop offset="1" stop-color="white"/>
        </linearGradient>
        <linearGradient id="paint75_linear_410_903" x1="95.0733" y1="77.6855" x2="95.0733" y2="82.0612" gradientUnits="userSpaceOnUse">
            <stop stop-color="#C10065"/>
            <stop offset="1" stop-color="white"/>
        </linearGradient>
        <linearGradient id="paint76_linear_410_903" x1="93.9825" y1="73.62" x2="94.6284" y2="79.738" gradientUnits="userSpaceOnUse">
            <stop stop-color="#BFD7FF"/>
            <stop offset="1"/>
        </linearGradient>
        <linearGradient id="paint77_linear_410_903" x1="93.6094" y1="76.803" x2="98.5219" y2="76.803" gradientUnits="userSpaceOnUse">
            <stop stop-color="#BFD7FF"/>
            <stop offset="1"/>
        </linearGradient>
        <linearGradient id="paint78_linear_410_903" x1="95.662" y1="73.4448" x2="96.2999" y2="79.5626" gradientUnits="userSpaceOnUse">
            <stop stop-color="#BFD7FF"/>
            <stop offset="1"/>
        </linearGradient>
        <linearGradient id="paint79_linear_410_903" x1="90.7221" y1="73.9659" x2="91.3679" y2="80.0839" gradientUnits="userSpaceOnUse">
            <stop stop-color="#BFD7FF"/>
            <stop offset="1"/>
        </linearGradient>
        <linearGradient id="paint80_linear_410_903" x1="93.6896" y1="153.974" x2="93.6896" y2="126.752" gradientUnits="userSpaceOnUse">
            <stop stop-color="#CA6B34"/>
            <stop offset="0.67" stop-color="#FFA933"/>
            <stop offset="1" stop-color="#FFBD2B"/>
        </linearGradient>
        <linearGradient id="paint81_linear_410_903" x1="84.9062" y1="139.097" x2="102.487" y2="139.097" gradientUnits="userSpaceOnUse">
            <stop stop-color="#DE3C14"/>
            <stop offset="0.07" stop-color="#C72E10"/>
            <stop offset="0.19" stop-color="#AB1C0C"/>
            <stop offset="0.3" stop-color="#971009"/>
            <stop offset="0.41" stop-color="#8B0807"/>
            <stop offset="0.52" stop-color="#870606"/>
            <stop offset="0.62" stop-color="#8C0707"/>
            <stop offset="0.73" stop-color="#9A0808"/>
            <stop offset="0.85" stop-color="#B20B0B"/>
            <stop offset="0.97" stop-color="#D30E0E"/>
            <stop offset="1" stop-color="#DB0F0F"/>
        </linearGradient>
        <linearGradient id="paint82_linear_410_903" x1="93.5202" y1="138.78" x2="93.5202" y2="153.661" gradientUnits="userSpaceOnUse">
            <stop stop-color="#C10065"/>
            <stop offset="1" stop-color="white"/>
        </linearGradient>
        <linearGradient id="paint83_linear_410_903" x1="93.5422" y1="143.887" x2="93.5422" y2="133.002" gradientUnits="userSpaceOnUse">
            <stop stop-color="#CA6B34"/>
            <stop offset="0.67" stop-color="#FFA933"/>
            <stop offset="1" stop-color="#FFBD2B"/>
        </linearGradient>
        <linearGradient id="paint84_linear_410_903" x1="91.0742" y1="138.057" x2="91.0742" y2="140.406" gradientUnits="userSpaceOnUse">
            <stop stop-color="#C10065"/>
            <stop offset="1" stop-color="white"/>
        </linearGradient>
        <linearGradient id="paint85_linear_410_903" x1="96.0657" y1="138.057" x2="96.0657" y2="140.406" gradientUnits="userSpaceOnUse">
            <stop stop-color="#C10065"/>
            <stop offset="1" stop-color="white"/>
        </linearGradient>
        <linearGradient id="paint86_linear_410_903" x1="92.0264" y1="139.338" x2="92.0264" y2="143.722" gradientUnits="userSpaceOnUse">
            <stop stop-color="#C10065"/>
            <stop offset="1" stop-color="white"/>
        </linearGradient>
        <linearGradient id="paint87_linear_410_903" x1="95.0733" y1="139.338" x2="95.0733" y2="143.722" gradientUnits="userSpaceOnUse">
            <stop stop-color="#C10065"/>
            <stop offset="1" stop-color="white"/>
        </linearGradient>
        <linearGradient id="paint88_linear_410_903" x1="93.9825" y1="135.276" x2="94.6284" y2="141.386" gradientUnits="userSpaceOnUse">
            <stop stop-color="#BFD7FF"/>
            <stop offset="1"/>
        </linearGradient>
        <linearGradient id="paint89_linear_410_903" x1="93.6094" y1="138.448" x2="98.5219" y2="138.448" gradientUnits="userSpaceOnUse">
            <stop stop-color="#BFD7FF"/>
            <stop offset="1"/>
        </linearGradient>
        <linearGradient id="paint90_linear_410_903" x1="95.662" y1="135.089" x2="96.2999" y2="141.207" gradientUnits="userSpaceOnUse">
            <stop stop-color="#BFD7FF"/>
            <stop offset="1"/>
        </linearGradient>
        <linearGradient id="paint91_linear_410_903" x1="90.7221" y1="135.61" x2="91.3679" y2="141.728" gradientUnits="userSpaceOnUse">
            <stop stop-color="#BFD7FF"/>
            <stop offset="1"/>
        </linearGradient>
        <radialGradient id="paint92_radial_410_903" cx="0" cy="0" r="1" gradientUnits="userSpaceOnUse" gradientTransform="translate(112.331 101.272) scale(20.4661 19.7113)">
            <stop stop-color="#F4A940"/>
            <stop offset="0.09" stop-color="#E6A03C"/>
            <stop offset="0.27" stop-color="#C38733"/>
            <stop offset="0.51" stop-color="#895F24"/>
            <stop offset="0.8" stop-color="#39280F"/>
            <stop offset="1"/>
        </radialGradient>
        <linearGradient id="paint93_linear_410_903" x1="106.082" y1="-0.356251" x2="74.3967" y2="16.0205" gradientUnits="userSpaceOnUse">
            <stop stop-color="#C68C43"/>
            <stop offset="0.119792" stop-color="#F5BA6E"/>
            <stop offset="0.286458" stop-color="#C68C43"/>
            <stop offset="0.5625" stop-color="#C68C43"/>
            <stop offset="0.770833" stop-color="#EEB873"/>
            <stop offset="1" stop-color="#C68C43"/>
        </linearGradient>
        <linearGradient id="paint94_linear_410_903" x1="60.5131" y1="43.0796" x2="23.1337" y2="79.3956" gradientUnits="userSpaceOnUse">
            <stop stop-color="white" stop-opacity="0"/>
            <stop offset="0.440223" stop-color="white"/>
            <stop offset="1" stop-color="white" stop-opacity="0"/>
        </linearGradient>
    </defs>
</svg>
