<svg width="187" height="225" viewBox="0 0 187 225" fill="none" xmlns="http://www.w3.org/2000/svg">
    <g filter="url(#filter0_b_410_509)">
        <path d="M18.6969 220.719C16.7307 220.719 15.1367 219.125 15.1367 217.159L15.1367 8.54493C15.1367 6.57871 16.7306 4.98477 18.6969 4.98477L41.4819 4.98477L41.4819 220.719L18.6969 220.719Z" fill="url(#paint0_linear_410_509)"/>
        <path d="M15.8488 217.159L15.8487 8.54494C15.8487 6.97195 17.1239 5.69681 18.6969 5.69681L40.7699 5.69681L40.7699 220.007L18.6969 220.007C17.1239 220.007 15.8488 218.732 15.8488 217.159Z" stroke="url(#paint1_linear_410_509)" stroke-width="1.42406"/>
    </g>
    <g filter="url(#filter1_b_410_509)">
        <path d="M168.225 4.98633C170.191 4.98633 171.785 6.58027 171.785 8.54649L171.785 217.16C171.785 219.126 170.191 220.72 168.225 220.72L145.44 220.72L145.44 4.98633L168.225 4.98633Z" fill="url(#paint2_linear_410_509)"/>
        <path d="M171.073 8.54649L171.073 217.16C171.073 218.733 169.798 220.008 168.225 220.008L146.152 220.008L146.152 5.69836L168.225 5.69836C169.798 5.69836 171.073 6.97351 171.073 8.54649Z" stroke="url(#paint3_linear_410_509)" stroke-width="1.42406"/>
    </g>
    <mask id="path-5-inside-1_410_509" fill="white">
        <path fill-rule="evenodd" clip-rule="evenodd" d="M13 7.12032C13 3.18788 16.1879 0 20.1203 0H166.799C170.731 0 173.919 3.18787 173.919 7.12032V82.6819C173.919 85.0127 172.778 87.1959 170.865 88.527L169.143 89.7252C167.229 91.0563 166.088 93.2395 166.088 95.5703V111.785C166.088 111.785 166.088 111.785 166.088 111.785V111.785C166.088 111.785 166.088 111.785 166.088 111.785V130.137C166.088 132.468 167.229 134.651 169.142 135.982L170.865 137.181C172.778 138.512 173.919 140.695 173.919 143.026V217.882C173.919 221.814 170.731 225.002 166.799 225.002H20.1203C16.1879 225.002 13 221.814 13 217.882V143.033C13 140.702 14.1408 138.519 16.0542 137.188L17.7801 135.987C19.6935 134.656 20.8343 132.473 20.8343 130.142L20.8343 111.789L20.8343 95.5751C20.8343 93.2442 19.6935 91.061 17.7801 89.7299L16.0542 88.5293C14.1408 87.1982 13 85.015 13 82.6841V7.12032Z"/>
    </mask>
    <g filter="url(#filter2_i_410_509)">
        <path fill-rule="evenodd" clip-rule="evenodd" d="M13 7.12032C13 3.18788 16.1879 0 20.1203 0H166.799C170.731 0 173.919 3.18787 173.919 7.12032V82.6819C173.919 85.0127 172.778 87.1959 170.865 88.527L169.143 89.7252C167.229 91.0563 166.088 93.2395 166.088 95.5703V111.785C166.088 111.785 166.088 111.785 166.088 111.785V111.785C166.088 111.785 166.088 111.785 166.088 111.785V130.137C166.088 132.468 167.229 134.651 169.142 135.982L170.865 137.181C172.778 138.512 173.919 140.695 173.919 143.026V217.882C173.919 221.814 170.731 225.002 166.799 225.002H20.1203C16.1879 225.002 13 221.814 13 217.882V143.033C13 140.702 14.1408 138.519 16.0542 137.188L17.7801 135.987C19.6935 134.656 20.8343 132.473 20.8343 130.142L20.8343 111.789L20.8343 95.5751C20.8343 93.2442 19.6935 91.061 17.7801 89.7299L16.0542 88.5293C14.1408 87.1982 13 85.015 13 82.6841V7.12032Z" fill="#090E1C"/>
    </g>
    <path d="M20.8343 111.789L22.2584 111.789L22.2584 111.789L20.8343 111.789ZM20.8343 95.5751L19.4102 95.5751L20.8343 95.5751ZM17.7801 89.7299L16.9669 90.899L17.7801 89.7299ZM17.7801 135.987L16.9669 134.818L17.7801 135.987ZM16.0542 137.188L16.8674 138.357L16.0542 137.188ZM170.865 137.181L170.052 138.35L170.865 137.181ZM169.142 135.982L169.956 134.813L169.142 135.982ZM166.799 -1.42406H20.1203V1.42406H166.799V-1.42406ZM175.343 82.6819V7.12032H172.495V82.6819H175.343ZM169.956 90.8943L171.678 89.696L170.052 87.358L168.329 88.5562L169.956 90.8943ZM167.512 111.785V95.5703H164.664V111.785H167.512ZM167.512 130.137V111.785H164.664V130.137H167.512ZM171.678 136.012L169.956 134.813L168.329 137.151L170.052 138.35L171.678 136.012ZM175.343 217.882V143.026H172.495V217.882H175.343ZM20.1203 226.426H166.799V223.578H20.1203V226.426ZM11.5759 143.033V217.882H14.4241V143.033H11.5759ZM16.8674 138.357L18.5934 137.156L16.9669 134.818L15.2409 136.019L16.8674 138.357ZM22.2584 130.142L22.2584 111.789L19.4102 111.789L19.4102 130.142L22.2584 130.142ZM22.2584 111.789L22.2584 95.5751L19.4102 95.5751L19.4102 111.789L22.2584 111.789ZM18.5934 88.5609L16.8674 87.3602L15.2409 89.6983L16.9669 90.899L18.5934 88.5609ZM11.5759 7.12032V82.6841H14.4241V7.12032H11.5759ZM16.8674 87.3602C15.3367 86.2954 14.4241 84.5488 14.4241 82.6841H11.5759C11.5759 85.4811 12.9449 88.101 15.2409 89.6983L16.8674 87.3602ZM22.2584 95.5751C22.2584 92.7781 20.8894 90.1582 18.5934 88.5609L16.9669 90.899C18.4976 91.9638 19.4102 93.7104 19.4102 95.5751L22.2584 95.5751ZM18.5934 137.156C20.8894 135.559 22.2584 132.939 22.2584 130.142L19.4102 130.142C19.4102 132.006 18.4976 133.753 16.9669 134.818L18.5934 137.156ZM14.4241 143.033C14.4241 141.168 15.3367 139.421 16.8674 138.357L15.2409 136.019C12.9449 137.616 11.5759 140.236 11.5759 143.033H14.4241ZM20.1203 223.578C16.9744 223.578 14.4241 221.028 14.4241 217.882H11.5759C11.5759 222.601 15.4014 226.426 20.1203 226.426V223.578ZM172.495 217.882C172.495 221.028 169.945 223.578 166.799 223.578V226.426C171.518 226.426 175.343 222.601 175.343 217.882H172.495ZM170.052 138.35C171.583 139.415 172.495 141.161 172.495 143.026H175.343C175.343 140.229 173.974 137.609 171.678 136.012L170.052 138.35ZM164.664 130.137C164.664 132.934 166.033 135.554 168.329 137.151L169.956 134.813C168.425 133.749 167.512 132.002 167.512 130.137H164.664ZM166.088 110.361C165.306 110.361 164.664 110.994 164.664 111.785H167.512C167.512 112.576 166.87 113.209 166.088 113.209V110.361ZM164.664 111.785C164.664 110.998 165.302 110.361 166.088 110.361V113.209C166.875 113.209 167.512 112.571 167.512 111.785H164.664ZM168.329 88.5562C166.033 90.1535 164.664 92.7734 164.664 95.5703H167.512C167.512 93.7057 168.425 91.9591 169.956 90.8943L168.329 88.5562ZM172.495 82.6819C172.495 84.5465 171.583 86.2931 170.052 87.358L171.678 89.696C173.974 88.0988 175.343 85.4789 175.343 82.6819H172.495ZM20.1203 -1.42406C15.4014 -1.42406 11.5759 2.40139 11.5759 7.12032H14.4241C14.4241 3.97436 16.9744 1.42406 20.1203 1.42406V-1.42406ZM166.799 1.42406C169.945 1.42406 172.495 3.97436 172.495 7.12032H175.343C175.343 2.40139 171.518 -1.42406 166.799 -1.42406V1.42406Z" fill="url(#paint4_linear_410_509)" mask="url(#path-5-inside-1_410_509)"/>
    <mask id="mask0_410_509" style="mask-type:alpha" maskUnits="userSpaceOnUse" x="14" y="1" width="159" height="223">
        <path fill-rule="evenodd" clip-rule="evenodd" d="M14.4258 8.54415C14.4258 4.6117 17.6136 1.42383 21.5461 1.42383H165.377C169.309 1.42383 172.497 4.61169 172.497 8.54413V83.0203C172.497 85.345 171.362 87.5234 169.457 88.8556L167.843 89.984C165.938 91.3161 164.803 93.4945 164.803 95.8193V111.794V113.903V129.878C164.803 132.203 165.938 134.381 167.843 135.713L169.457 136.841C171.362 138.174 172.497 140.352 172.497 142.677V216.457C172.497 220.39 169.309 223.578 165.377 223.578H21.5461C17.6137 223.578 14.4258 220.39 14.4258 216.457V142.679C14.4258 140.354 15.5607 138.176 17.4659 136.844L19.0807 135.715C20.986 134.382 22.1209 132.204 22.1209 129.879L22.1209 111.795L22.1209 95.8209C22.1209 93.4961 20.986 91.3177 19.0807 89.9855L17.4659 88.8564C15.5607 87.5243 14.4258 85.3459 14.4258 83.0211V8.54415Z" fill="#090E1C"/>
    </mask>
    <g mask="url(#mask0_410_509)">
        <rect x="13.7148" y="225.715" width="225.714" height="80.4596" transform="rotate(-90 13.7148 225.715)" fill="#060911"/>
        <g style="mix-blend-mode:hard-light" opacity="0.2">
            <path style="mix-blend-mode:multiply" opacity="0.5" d="M93.7927 91.6888L46.4903 117.488L55.535 62.8614L17.2773 24.1919L70.1415 16.2134L93.7927 -33.4629L117.444 16.2134L170.364 24.1919L132.05 62.8614L141.095 117.488L93.7927 91.6888Z" fill="url(#paint5_linear_410_509)"/>
            <path d="M164.805 26.0551L139.3 22.2115L132.334 21.1632L115.761 18.659L93.795 -27.4648L71.8853 18.659L22.7852 26.0551L58.2901 61.9292L49.9194 112.596L93.795 88.6601L137.671 112.596L129.3 61.9292L164.805 26.0551Z" fill="url(#paint6_linear_410_509)"/>
            <path style="mix-blend-mode:multiply" opacity="0.5" d="M22.5664 26.0547L94.8122 45.6224L58.0713 61.9288L22.5664 26.0547Z" fill="url(#paint7_linear_410_509)"/>
            <path style="mix-blend-mode:multiply" opacity="0.5" d="M164.582 26.0547L94.8086 45.6224L129.078 61.9288L164.582 26.0547Z" fill="url(#paint8_linear_410_509)"/>
            <path style="mix-blend-mode:multiply" opacity="0.5" d="M93.5684 88.6584L94.8044 45.6211L49.6367 112.594L93.5684 88.6584Z" fill="url(#paint9_linear_410_509)"/>
            <path style="mix-blend-mode:multiply" opacity="0.5" d="M137.45 112.594L94.8101 45.6211L93.5742 88.6584L137.45 112.594Z" fill="url(#paint10_linear_410_509)"/>
            <path style="mix-blend-mode:color-dodge" opacity="0.5" d="M93.5742 -27.4648L94.8101 45.6228L115.484 18.659L93.5742 -27.4648Z" fill="url(#paint11_linear_410_509)"/>
            <path style="mix-blend-mode:color-dodge" opacity="0.5" d="M164.582 26.0543L94.8086 45.622L115.482 18.6582L164.582 26.0543Z" fill="url(#paint12_linear_410_509)"/>
            <path style="mix-blend-mode:color-dodge" opacity="0.5" d="M164.582 26.0543L94.8086 45.622L115.482 18.6582L164.582 26.0543Z" fill="url(#paint13_linear_410_509)"/>
            <path style="mix-blend-mode:color-dodge" opacity="0.5" d="M71.6104 18.6582L94.8122 45.622L22.5664 26.0543L71.6104 18.6582Z" fill="url(#paint14_linear_410_509)"/>
            <g style="mix-blend-mode:color-dodge" opacity="0.8">
                <path d="M115.316 34.6736C111.664 37.8767 114.81 39.9732 114.81 39.9732L133.574 34.6736C130.929 32.6539 127.73 31.5645 124.445 31.5645C121.16 31.5645 117.961 32.6539 115.316 34.6736Z" fill="white"/>
            </g>
            <path style="mix-blend-mode:multiply" opacity="0.5" d="M49.9219 112.596C49.9219 112.596 83.1796 96.3474 93.7974 91.8049L137.785 112.596L93.9098 88.6602L49.9219 112.596Z" fill="url(#paint15_linear_410_509)"/>
            <g style="mix-blend-mode:soft-light" opacity="0.4">
                <path d="M77.4428 10.6787C72.7799 24.0732 90.5886 33.4494 92.9481 29.3145C95.3076 25.1797 93.8469 2.17605 90.8133 -0.968762C87.7796 -4.11357 79.3528 5.20438 77.4428 10.6787Z" fill="#F7FFFF"/>
            </g>
            <g style="mix-blend-mode:soft-light" opacity="0.4">
                <path d="M62.8984 79.4596C72.3925 80.7409 77.6733 69.6176 79.7519 61.9885C82.8418 49.584 45.7639 77.0137 62.8984 79.4596Z" fill="#F7FFFF"/>
            </g>
        </g>
    </g>
    <g filter="url(#filter3_f_410_509)">
        <ellipse cx="93.8146" cy="112.502" rx="39.5178" ry="37.0257" fill="#6E85CF"/>
    </g>
    <rect x="144.727" y="9.25781" width="18.5128" height="18.5128" rx="9.25641" fill="#151C30"/>
    <rect x="145.083" y="9.61383" width="17.8008" height="17.8008" rx="8.9004" stroke="#C68C43" stroke-width="0.712032"/>
    <g style="mix-blend-mode:soft-light">
        <mask id="mask1_410_509" style="mask-type:alpha" maskUnits="userSpaceOnUse" x="144" y="9" width="20" height="19">
            <rect x="144.727" y="9.25781" width="18.5128" height="18.5128" rx="9.25641" fill="#101520"/>
        </mask>
        <g mask="url(#mask1_410_509)">
            <g filter="url(#filter4_f_410_509)">
                <path d="M142.152 30.3848L165.479 7.05859" stroke="white" stroke-width="0.370257"/>
            </g>
            <g filter="url(#filter5_f_410_509)">
                <path d="M138.84 33.694L168.794 3.74023" stroke="white" stroke-width="0.925641"/>
            </g>
            <g filter="url(#filter6_f_410_509)">
                <path d="M138.84 33.694L168.794 3.74023" stroke="white" stroke-width="0.925641"/>
            </g>
            <g opacity="0.5" filter="url(#filter7_f_410_509)">
                <path d="M138.453 26.8457L161.779 3.51953" stroke="white" stroke-width="0.370257"/>
            </g>
            <g opacity="0.5" filter="url(#filter8_f_410_509)">
                <path d="M144.727 35.1914L168.053 11.8652" stroke="white" stroke-width="0.185128"/>
            </g>
        </g>
    </g>
    <path d="M156.368 20.8877C155.899 21.246 155.357 21.3322 155.357 21.3322C155.74 21.0533 156.481 20.2699 156.051 19.4201C155.622 18.5703 153.982 18.0195 153.982 18.0195C153.982 18.0195 152.343 18.5706 151.912 19.4201C151.482 20.2696 152.223 21.0533 152.607 21.3322C152.607 21.3322 152.064 21.2458 151.595 20.8874C151.595 20.8874 150.445 21.8964 150.312 23.065C150.312 23.065 151.364 22.2883 153.982 22.2883C156.6 22.2883 157.651 23.065 157.651 23.065C157.519 21.8967 156.368 20.8877 156.368 20.8877ZM154.174 20.881L153.982 21.1998L153.79 20.881C152.554 20.7881 152.329 19.8652 152.329 19.8652L152.944 19.5069L152.777 19.2149L153.981 19.945L155.186 19.2149L155.019 19.5069L155.634 19.8652C155.634 19.8652 155.41 20.7881 154.173 20.881H154.174Z" fill="white"/>
    <path d="M157.365 14.8292C157.365 14.8292 158.448 14.9549 158.965 15.4776C158.965 15.4776 158.165 13.9824 156.472 13.9824C154.78 13.9824 153.98 14.9021 153.98 14.9021C153.98 14.9021 153.18 13.9824 151.488 13.9824C149.796 13.9824 148.996 15.4776 148.996 15.4776C149.512 14.9549 150.596 14.8292 150.596 14.8292C149.736 15.0813 149.075 16.1077 149.082 17.3372C149.089 18.5667 149.565 19.4475 150.034 19.5606C150.503 19.6737 150.754 19.2232 151.455 18.5601C152.156 17.897 152.87 17.7927 152.87 17.7927C152.163 17.4751 151.693 17.6604 151.224 17.8125C150.754 17.9645 150.371 18.0176 150.1 17.4687C149.829 16.9198 150.345 16.3175 150.345 16.3175C150.054 16.3639 149.776 16.5954 149.776 16.5954C150.041 15.9668 150.378 15.7948 150.926 15.775C151.475 15.7553 151.726 15.9006 152.301 16.225C152.876 16.5493 153.379 16.9262 153.676 16.6813C153.974 16.4365 153.531 15.6097 153.531 15.6097C153.855 15.8214 153.98 16.2644 153.98 16.2644C153.98 16.2644 154.106 15.8214 154.43 15.6097C154.43 15.6097 153.986 16.4365 154.284 16.6813C154.583 16.9262 155.084 16.549 155.66 16.225C156.235 15.9009 156.486 15.7553 157.035 15.775C157.583 15.7948 157.92 15.9687 158.184 16.5963C158.184 16.5963 157.906 16.3648 157.615 16.3184C157.615 16.3184 158.131 16.9203 157.86 17.4695C157.589 18.0187 157.206 17.9656 156.736 17.8133C156.267 17.661 155.797 17.4759 155.09 17.7936C155.09 17.7936 155.804 17.8995 156.505 18.5609C157.205 19.2224 157.457 19.6726 157.926 19.5614C158.395 19.4503 158.87 18.569 158.878 17.3381C158.886 16.1071 158.224 15.0813 157.365 14.8292Z" fill="white"/>
    <path d="M156.474 13.9824C154.78 13.9824 153.979 14.9088 153.979 14.9088C153.979 14.9088 153.178 13.9824 151.484 13.9824C150.223 13.9824 149.457 14.8167 149.148 15.2422C149.808 14.5953 151.57 13.3609 153.98 15.4808C156.39 13.3609 158.152 14.5953 158.811 15.2422C158.501 14.8167 157.735 13.9824 156.474 13.9824Z" fill="#C4C4C4"/>
    <path d="M151.197 17.8096C150.726 17.9626 150.342 18.0156 150.071 17.4644C149.799 16.9133 150.316 16.3086 150.316 16.3086C150.082 16.3457 149.857 16.5023 149.777 16.5631C149.54 16.9591 149.377 17.6765 149.934 18.8561C149.934 18.8561 149.457 18.7152 149.086 17.8914C149.207 18.8279 149.607 19.4684 150.005 19.5635C150.475 19.6751 150.727 19.2247 151.429 18.5589C152.132 17.8931 152.847 17.7884 152.847 17.7884C152.138 17.4709 151.667 17.657 151.197 17.8096Z" fill="#C4C4C4"/>
    <path d="M157.982 18.8551C158.545 17.6623 158.372 16.9421 158.132 16.5493C158.039 16.4815 157.829 16.3432 157.611 16.3086C157.611 16.3086 158.128 16.9128 157.857 17.464C157.585 18.0152 157.201 17.9619 156.731 17.809C156.261 17.6562 155.791 17.4704 155.082 17.7892C155.082 17.7892 155.797 17.8955 156.499 18.5594C157.201 19.2233 157.453 19.6751 157.923 19.5636C158.322 19.4673 158.727 18.8143 158.843 17.862C158.47 18.7111 157.982 18.8551 157.982 18.8551Z" fill="#C4C4C4"/>
    <path d="M157.649 23.0481C157.227 22.7244 156.151 22.0571 154.365 21.9831C151.995 21.8838 151.777 22.2709 151.509 21.9333C151.241 21.5958 152.607 21.3341 152.607 21.3341C152.607 21.3341 152.064 21.2479 151.595 20.8906C151.595 20.8906 150.445 21.8966 150.312 23.0617C150.312 23.0617 151.364 22.2873 153.982 22.2873C156.6 22.2873 157.651 23.0617 157.651 23.0617C157.651 23.0581 157.65 23.0528 157.649 23.0481Z" fill="#C4C4C4"/>
    <path d="M56.9234 132.92C56.8321 133.237 43.0364 128.519 43.0364 128.519C39.5354 123.39 36.6266 117.898 34.3633 112.143H57.9175L56.9234 132.92Z" fill="url(#paint16_linear_410_509)"/>
    <path d="M38.8594 112.143C38.8594 112.143 44.3574 123.235 45.3718 124.445L57.2706 124.752V123.959C57.2706 123.959 46.376 124.048 45.7573 123.592C45.1385 123.136 39.5593 112.143 39.5593 112.143H38.8594Z" fill="#394773"/>
    <path d="M38.8594 112.143L45.3718 124.445C43.9597 122.473 42.6757 120.417 41.5272 118.289C40.0766 115.444 38.8594 112.143 38.8594 112.143Z" fill="white"/>
    <g style="mix-blend-mode:soft-light" opacity="0.5">
        <path d="M40.5388 112.895C41.4619 115.542 45.0731 121.579 45.8238 121.579C46.5744 121.579 55.3185 121.43 56.1199 120.201C56.9213 118.972 57.6212 113.024 56.9213 112.905C56.2213 112.786 40.133 111.666 40.5388 112.895Z" fill="white"/>
    </g>
    <g style="mix-blend-mode:soft-light" opacity="0.5">
        <path d="M35.135 112.597C36.261 115.204 39.3853 121.816 39.9635 121.895C40.5417 121.974 42.4792 122.212 42.4792 121.419C42.4792 120.15 38.8781 112.765 38.0666 112.597C37.2551 112.428 34.8611 111.962 35.135 112.597Z" fill="white"/>
    </g>
    <path style="mix-blend-mode:multiply" opacity="0.5" d="M40.5337 122.76C40.4322 123.583 43.5768 127.816 44.0942 128.163C44.6115 128.51 55.1917 131.84 55.8814 131.365C56.5712 130.889 56.9466 122.156 56.3684 121.898C55.7901 121.64 40.6554 121.858 40.5337 122.76Z" fill="url(#paint17_linear_410_509)"/>
    <path style="mix-blend-mode:multiply" opacity="0.5" d="M50.0078 112.143C51.1457 118.487 51.6452 124.925 51.499 131.364L56.926 132.921L57.9404 112.104L50.0078 112.143Z" fill="url(#paint18_linear_410_509)"/>
    <path d="M129.988 132.921C130.089 133.238 143.916 128.519 143.916 128.519C147.424 123.379 150.337 117.873 152.599 112.104H129.004L129.988 132.921Z" fill="url(#paint19_linear_410_509)"/>
    <path d="M148.066 112.143C148.066 112.143 142.558 123.235 141.554 124.445L129.645 124.752V123.959C129.645 123.959 140.549 124.048 141.168 123.592C141.787 123.136 147.366 112.143 147.366 112.143H148.066Z" fill="#394773"/>
    <path d="M148.067 112.143L141.555 124.445C142.966 122.474 144.246 120.418 145.389 118.289C146.84 115.444 148.067 112.143 148.067 112.143Z" fill="white"/>
    <g style="mix-blend-mode:soft-light" opacity="0.5">
        <path d="M146.384 112.894C145.471 115.541 141.85 121.568 141.089 121.568C140.329 121.568 131.605 121.419 130.793 120.19C129.982 118.961 129.302 113.013 129.992 112.894C130.682 112.775 146.79 111.665 146.384 112.894Z" fill="white"/>
    </g>
    <g style="mix-blend-mode:soft-light" opacity="0.5">
        <path d="M151.777 112.597C150.651 115.204 147.537 121.816 146.959 121.895C146.38 121.974 144.433 122.212 144.402 121.419C144.402 120.15 148.003 112.765 148.815 112.597C149.626 112.428 152.031 111.962 151.777 112.597Z" fill="white"/>
    </g>
    <path style="mix-blend-mode:multiply" opacity="0.5" d="M146.384 122.76C146.495 123.583 143.34 127.816 142.833 128.163C142.326 128.51 131.746 131.84 131.036 131.365C130.326 130.889 130.021 122.156 130.559 121.898C131.097 121.64 146.272 121.858 146.384 122.76Z" fill="url(#paint20_linear_410_509)"/>
    <path style="mix-blend-mode:multiply" opacity="0.5" d="M136.915 112.143C135.777 118.487 135.278 124.925 135.424 131.364L129.987 132.921L128.973 112.104L136.915 112.143Z" fill="url(#paint21_linear_410_509)"/>
    <path d="M93.6118 64.084L55.0547 85.8429V137.747L93.6118 159.496L132.169 137.747V85.8429L93.6118 64.084Z" fill="url(#paint22_linear_410_509)"/>
    <path d="M62.0273 133.81V89.7667L93.6156 71.9531L125.194 89.7667V133.81L93.6156 151.624L62.0273 133.81Z" fill="url(#paint23_linear_410_509)"/>
    <path d="M64.3477 132.49V91.0834L93.6129 74.5684L122.868 91.0834V132.49L93.6129 149.005L64.3477 132.49Z" fill="#736FA8"/>
    <g style="mix-blend-mode:soft-light" opacity="0.5">
        <path d="M56.0225 85.9727C55.5457 87.3704 59.6439 89.0854 62.5248 88.4708C65.4057 87.8562 92.5509 72.3027 93.2001 70.9149C93.3984 68.9735 93.3984 67.0176 93.2001 65.0762C92.2567 65.0762 56.2558 85.2986 56.0225 85.9727Z" fill="white"/>
    </g>
    <g style="mix-blend-mode:soft-light" opacity="0.5">
        <path d="M131.026 85.9727C131.503 87.3704 127.405 89.0854 124.514 88.4708C121.623 87.8562 94.7516 72.154 93.8386 70.9149C93.3618 70.2706 93.1995 65.0762 93.8386 65.0762C94.7921 65.0762 130.793 85.2986 131.026 85.9727Z" fill="white"/>
    </g>
    <path style="mix-blend-mode:multiply" opacity="0.5" d="M55.9816 115.49C55.7179 117.047 55.089 136.694 55.9816 136.843C56.8743 136.992 61.0536 134.196 61.2869 132.878C61.5202 131.559 61.6014 118.117 61.2869 116.829C60.9724 115.54 56.4077 112.903 55.9816 115.49Z" fill="url(#paint24_linear_410_509)"/>
    <path style="mix-blend-mode:multiply" opacity="0.5" d="M131.094 115.49C131.347 117.047 131.987 136.694 131.094 136.843C130.201 136.992 126.022 134.196 125.789 132.878C125.555 131.559 125.474 118.117 125.789 116.829C126.103 115.54 130.658 112.903 131.094 115.49Z" fill="url(#paint25_linear_410_509)"/>
    <path style="mix-blend-mode:multiply" opacity="0.5" d="M56.9462 137.383C57.4128 138.057 92.1457 158.121 92.663 158.121C92.9268 158.121 93.2717 153.164 93.2717 152.58C93.2717 151.023 62.5659 135.093 62.0283 134.944C61.2371 134.726 56.4796 136.699 56.9462 137.383Z" fill="url(#paint26_linear_410_509)"/>
    <path style="mix-blend-mode:multiply" opacity="0.5" d="M130.335 137.909C129.868 138.583 94.4962 158.578 93.9687 158.578C93.8388 156.433 93.8796 154.282 94.0904 152.144C95.2063 151.044 124.522 135.094 125.04 134.945C125.831 134.727 130.812 137.225 130.335 137.909Z" fill="url(#paint27_linear_410_509)"/>
    <path style="mix-blend-mode:multiply" opacity="0.5" d="M65.6897 131.394C63.6609 119.924 64.7767 119.201 79.3434 114.353C93.9101 109.506 118.55 97.0056 120.71 102.458C122.871 107.91 122.131 130.977 121.644 132.197C121.157 133.416 95.7158 147.75 93.616 147.79C91.5162 147.829 65.923 132.682 65.6897 131.394Z" fill="url(#paint28_linear_410_509)"/>
    <g style="mix-blend-mode:soft-light" opacity="0.3">
        <path d="M122.239 91.3712C121.732 91.2424 95.287 76.3134 93.8364 76.4225C92.3858 76.5315 73.9948 84.9476 66.4477 91.2919C64.4189 92.987 65.1696 118.325 67.0259 117.859C68.8823 117.393 70.272 107.153 90.7323 101.403C110.838 95.8023 119.572 100.65 121.783 101.532C122.402 101.75 123.416 91.6488 122.239 91.3712Z" fill="white"/>
    </g>
    <path style="mix-blend-mode:multiply" opacity="0.5" d="M62.0273 133.814V89.7711L93.6156 71.9277L125.194 89.7711V133.814L122.871 132.486C122.871 132.486 123.013 94.2121 122.171 93.0126C119.128 88.7302 95.7965 78.3117 91.9621 79.4715C88.1277 80.6313 67.2718 89.3151 64.9387 92.9432C64.1576 94.1724 64.3503 132.496 64.3503 132.496L62.0273 133.814Z" fill="url(#paint29_linear_410_509)"/>
    <g style="mix-blend-mode:soft-light" opacity="0.2">
        <path d="M99.5179 95.8045C107.379 99.3137 119.238 99.3732 120.323 98.6991C121.409 98.025 122.129 93.0982 120.425 92.2656C118.72 91.4329 105.209 84.4046 101.648 85.158C98.0876 85.9114 98.1181 95.1601 99.5179 95.8045Z" fill="white"/>
    </g>
    <path d="M55.0547 101.654C55.0547 101.535 55.3894 87.0127 56.0691 85.9718C56.7487 84.9309 92.78 65.3628 93.835 65.0753C94.89 64.7878 108.412 72.4406 108.412 72.4406L93.6118 64.084L55.0648 85.8925L55.0547 101.654Z" fill="url(#paint30_linear_410_509)"/>
    <path d="M107.398 79.7402C107.398 79.7402 124.339 89.1576 124.572 90.2182C124.805 91.2789 125.181 119.739 125.181 119.739C125.181 119.739 125.343 90.9914 125.181 89.7722C125.018 88.5529 107.398 79.7402 107.398 79.7402Z" fill="white"/>
    <path d="M62.0225 113.905C62.0225 113.905 61.4645 90.1137 61.7486 89.3206C62.0326 88.5276 93.6107 71.9531 93.6107 71.9531C93.6107 71.9531 63.118 88.9836 62.4891 90.0641C61.8601 91.1446 62.0225 113.905 62.0225 113.905Z" fill="white"/>
    <path style="mix-blend-mode:multiply" d="M55.0547 137.747L93.6017 159.496L132.149 137.747V125.921C132.149 125.921 131.824 136.24 131.033 137.529C130.242 138.817 95.7319 158.445 93.9669 158.574C92.2018 158.703 56.9009 138.213 55.9778 136.845C55.0547 135.477 55.0547 111.289 55.0547 111.289V137.747Z" fill="url(#paint31_linear_410_509)"/>
    <path d="M62.028 122.57C62.028 122.57 61.9165 132.721 62.4947 133.574C63.0729 134.426 78.0555 142.882 78.0555 142.882C78.0555 142.882 61.8252 134.684 61.673 134.149C61.5208 133.613 62.028 122.57 62.028 122.57Z" fill="white"/>
    <g style="mix-blend-mode:soft-light" opacity="0.5">
        <path d="M75.0717 143.061C73.9356 143.061 70.7504 144.31 71.4301 145.043C72.1097 145.777 91.1093 156.939 93.27 157.742C93.9801 157.999 93.9091 153.578 92.9657 152.151C92.5599 151.546 78.6018 143.051 75.0717 143.061Z" fill="white"/>
    </g>
    <path d="M107.185 72.6472C106.261 72.8951 109.355 76.7016 110.826 77.0387C112.297 77.3757 114.316 76.3547 113.616 75.6608C112.916 74.9669 108.625 72.2705 107.185 72.6472Z" fill="white"/>
    <path d="M114.042 76.4221C112.642 76.7889 115.229 82.806 116.335 83.8766C117.44 84.9472 127.29 86.8505 127.057 85.086C126.824 83.3215 116.02 75.9066 114.042 76.4221Z" fill="white"/>
    <path style="mix-blend-mode:multiply" opacity="0.5" d="M111.397 143.162C110.565 146.701 110.697 148.793 111.164 148.813C111.631 148.833 128.49 138.9 128.946 138.483C129.403 138.067 126.248 135.202 124.939 135.4C123.631 135.599 111.702 141.834 111.397 143.162Z" fill="url(#paint32_linear_410_509)"/>
    <path style="mix-blend-mode:multiply" opacity="0.5" d="M64.0739 90.779C63.6682 89.5894 62.4205 89.5994 62.3089 90.9277C62.1973 92.256 61.9944 116.929 62.4915 116.969C62.9885 117.009 64.0334 115.799 64.0739 115.234C64.1145 114.669 64.2667 91.354 64.0739 90.779Z" fill="url(#paint33_linear_410_509)"/>
    <path style="mix-blend-mode:multiply" opacity="0.5" d="M123.153 90.9395C123.082 91.4054 122.839 114.731 123.153 114.731C123.467 114.731 124.857 113.63 124.857 113.065C124.857 112.5 124.502 90.4736 124.35 90.3646C124.198 90.2555 123.204 90.5529 123.153 90.9395Z" fill="url(#paint34_linear_410_509)"/>
    <path style="mix-blend-mode:multiply" opacity="0.5" d="M93.6142 74.1929C93.6142 74.6489 80.0214 82.2224 79.7069 82.2224C79.3924 82.2224 79.504 80.1803 79.9402 79.9028C80.3764 79.6252 93.5128 71.8931 93.6142 72.1508C93.66 72.8308 93.66 73.5129 93.6142 74.1929Z" fill="url(#paint35_linear_410_509)"/>
    <path d="M121.653 135.576C120.791 135.576 117.859 137.212 118.082 138.025C118.306 138.838 120.111 139.72 120.578 139.244C121.044 138.768 122.221 135.596 121.653 135.576Z" fill="#394773"/>
    <path d="M122.776 136.149C122.472 136.416 121.823 137.368 122.442 137.834C123.06 138.3 124.886 137.071 124.612 136.714C124.339 136.357 123.152 135.802 122.776 136.149Z" fill="#394773"/>
    <path style="mix-blend-mode:multiply" opacity="0.5" d="M118.558 137.201C117.837 138.193 120.8 138.797 121.185 137.994C121.57 137.191 122.199 135.486 121.702 135.576C120.562 135.926 119.496 136.477 118.558 137.201Z" fill="url(#paint36_linear_410_509)"/>
    <path d="M118.094 137.789C118.299 138.344 118.697 138.811 119.22 139.107C119.91 139.504 120.498 139.415 120.68 139.107C120.508 139.306 120.272 139.442 120.01 139.493C119.748 139.543 119.477 139.505 119.24 139.385C117.83 138.761 118.094 137.789 118.094 137.789Z" fill="#DAE1EF"/>
    <path style="mix-blend-mode:multiply" opacity="0.5" d="M123.101 136.169C122.432 136.873 122.949 137.894 123.324 137.835C123.7 137.775 124.826 137.052 124.613 136.715C124.4 136.378 123.243 136.021 123.101 136.169Z" fill="url(#paint37_linear_410_509)"/>
    <path d="M122.778 136.152C122.778 136.152 122.159 136.975 122.403 137.451C122.646 137.927 123.001 137.927 123.001 137.927C123.001 137.927 122.21 138.373 122.058 137.847C121.804 136.926 122.778 136.152 122.778 136.152Z" fill="#DAE1EF"/>
    <path d="M89.6336 73.9386C87.6048 73.4033 85.8803 74.7118 84.9674 75.7229C84.0544 76.734 84.5718 77.3387 85.718 77.1405C86.8643 76.9422 90.5161 74.1666 89.6336 73.9386Z" fill="#394773"/>
    <path style="mix-blend-mode:multiply" opacity="0.5" d="M89.6395 73.9352C88.9863 73.8068 88.312 73.823 87.6661 73.9826C87.0201 74.1421 86.4189 74.4409 85.9066 74.8571C85.3486 75.3428 86.4442 76.7108 87.1948 76.4234C87.9455 76.1359 90.2887 74.1434 89.6395 73.9352Z" fill="url(#paint38_linear_410_509)"/>
    <path d="M85.4995 75.1973C85.4995 75.1973 83.1562 76.704 83.4098 77.4475C83.6634 78.191 86.453 76.8329 86.453 76.8329C86.453 76.8329 84.9923 77.2988 84.6575 76.6644C84.3228 76.03 85.4995 75.1973 85.4995 75.1973Z" fill="white"/>
    <path d="M63.3741 134.11C62.2684 134.378 65.5449 136.579 66.3158 136.698C67.0868 136.817 66.3158 134.884 65.9507 134.547C65.1447 134.186 64.2571 134.036 63.3741 134.11Z" fill="white"/>
    <path d="M93.5885 136.232L53.7836 113.551C52.8418 115.669 52.2035 117.904 51.8867 120.192L54.4836 124.485L93.5885 146.68L132.693 124.485L135.047 120.192C134.976 117.914 134.495 115.666 133.627 113.551L93.5885 136.232Z" fill="url(#paint39_linear_410_509)"/>
    <path d="M54.4836 124.482L51.8867 120.189L93.5885 144.06L135.047 120.189L132.693 124.482L93.5885 146.677L54.4836 124.482Z" fill="url(#paint40_linear_410_509)"/>
    <path style="mix-blend-mode:multiply" opacity="0.5" d="M51.8867 120.189L54.4836 124.482L55.0719 124.839V126.107C55.0719 126.107 57.3036 127.228 61.6858 129.587C61.8278 129.666 64.4348 132.363 64.4348 132.363C64.4348 132.363 92.5944 149.006 93.6189 149.006C94.9275 149.006 122.884 131.986 122.884 131.986C122.884 131.986 125.055 130.202 125.268 130.083L132.176 126.534V124.769L132.693 124.482L135.047 120.189L93.5885 144.06L51.8867 120.189Z" fill="url(#paint41_linear_410_509)"/>
    <path style="mix-blend-mode:multiply" opacity="0.5" d="M93.582 136.232V144.063L135.04 120.192C134.932 117.919 134.452 115.677 133.62 113.551L93.582 136.232Z" fill="url(#paint42_linear_410_509)"/>
    <g style="mix-blend-mode:soft-light" opacity="0.5">
        <path d="M55.8279 115.266C55.0671 115.266 55.6859 121.858 57.9987 123.365C61.681 125.773 83.8252 138.531 85.2758 138.551C86.2902 138.551 86.2293 132.96 85.925 132.534C85.3569 131.711 56.964 115.266 55.8279 115.266Z" fill="white"/>
    </g>
    <g style="mix-blend-mode:soft-light" opacity="0.5">
        <path d="M105.886 129.509C105.409 129.995 105.47 136.151 106.292 135.972C112.977 132.797 119.418 129.153 125.565 125.068C131.469 120.825 132.301 115.244 130.972 115.363C130.952 115.264 106.88 128.518 105.886 129.509Z" fill="white"/>
    </g>
    <path d="M73.3047 132.484C73.3047 132.484 92.355 143.656 93.5926 143.656C94.8301 143.656 110.026 134.626 110.026 134.626C110.026 134.626 94.0592 144.539 93.623 144.539C93.1868 144.539 73.3047 132.484 73.3047 132.484Z" fill="white"/>
    <path d="M93.5885 87.0946L53.7836 109.785C52.843 107.667 52.2047 105.432 51.8867 103.144L54.4836 98.8514L93.5885 76.6562L132.693 98.8514L135.047 103.144C134.975 105.422 134.494 107.67 133.627 109.785L93.5885 87.0946Z" fill="url(#paint43_linear_410_509)"/>
    <path d="M54.4836 98.8514L51.8867 103.144L93.5885 79.2634L135.047 103.144L132.693 98.8514L93.5885 76.6562L54.4836 98.8514Z" fill="url(#paint44_linear_410_509)"/>
    <path style="mix-blend-mode:multiply" opacity="0.5" d="M93.582 87.0949V79.2637L135.04 103.144C134.932 105.418 134.452 107.66 133.62 109.786L93.582 87.0949Z" fill="url(#paint45_linear_410_509)"/>
    <g style="mix-blend-mode:soft-light" opacity="0.5">
        <path d="M55.8279 108.057C55.0671 108.057 55.6859 101.475 57.9987 99.958C61.681 97.5491 83.8252 84.7912 85.2758 84.7812C86.2902 84.7812 86.2293 90.3623 85.925 90.7984C85.3569 91.6212 56.964 108.057 55.8279 108.057Z" fill="white"/>
    </g>
    <g style="mix-blend-mode:soft-light" opacity="0.5">
        <path d="M105.886 93.8189C105.409 93.3332 105.47 87.1772 106.292 87.3656C112.981 90.533 119.423 94.1776 125.565 98.2698C131.469 102.503 132.301 108.084 130.972 107.965C130.952 108.054 106.88 94.8598 105.886 93.8189Z" fill="white"/>
    </g>
    <path d="M73.3047 90.8491C73.3047 90.8491 92.355 79.6871 93.5926 79.6871C94.8301 79.6871 110.026 88.7079 110.026 88.7079C110.026 88.7079 94.0592 78.7949 93.623 78.7949C93.1868 78.7949 73.3047 90.8491 73.3047 90.8491Z" fill="white"/>
    <path style="mix-blend-mode:multiply" opacity="0.5" d="M55.0547 109.061L93.5814 87.0938L132.453 109.12L132.169 110.925L125.028 108.208L122.999 109.12L93.7437 92.9325L64.377 109.854L62.1859 108.942L55.0547 111.291V109.061Z" fill="url(#paint46_linear_410_509)"/>
    <path style="mix-blend-mode:multiply" opacity="0.5" d="M75.1109 115.72L71.1345 117.772L71.8953 113.44L68.6797 110.377L73.1227 109.742L75.1109 105.807L77.0992 109.742L81.5422 110.377L78.3266 113.44L79.0874 117.772L75.1109 115.72Z" fill="url(#paint47_linear_410_509)"/>
    <path d="M81.0481 110.535L78.9179 110.238L78.3295 110.149L76.95 109.95L75.1139 106.322L73.2778 109.95L69.1797 110.535L72.1417 113.36L71.4418 117.355L75.1139 115.472L78.7759 117.355L78.0759 113.36L81.0481 110.535Z" fill="url(#paint48_linear_410_509)"/>
    <path style="mix-blend-mode:multiply" opacity="0.5" d="M69.1562 110.535L75.1919 112.082L72.1284 113.36L69.1562 110.535Z" fill="url(#paint49_linear_410_509)"/>
    <path style="mix-blend-mode:multiply" opacity="0.5" d="M81.0281 110.535L75.1953 112.082L78.0559 113.36L81.0281 110.535Z" fill="url(#paint50_linear_410_509)"/>
    <path style="mix-blend-mode:multiply" opacity="0.5" d="M75.0901 115.472L75.1915 112.082L71.418 117.356L75.0901 115.472Z" fill="url(#paint51_linear_410_509)"/>
    <path style="mix-blend-mode:multiply" opacity="0.5" d="M78.7518 117.356L75.1913 112.082L75.0898 115.472L78.7518 117.356Z" fill="url(#paint52_linear_410_509)"/>
    <path style="mix-blend-mode:color-dodge" opacity="0.5" d="M75.0898 106.322L75.1913 112.082L76.9259 109.95L75.0898 106.322Z" fill="url(#paint53_linear_410_509)"/>
    <path style="mix-blend-mode:color-dodge" opacity="0.5" d="M81.0281 110.536L75.1953 112.082L76.9299 109.951L81.0281 110.536Z" fill="url(#paint54_linear_410_509)"/>
    <path style="mix-blend-mode:color-dodge" opacity="0.5" d="M81.0281 110.536L75.1953 112.082L76.9299 109.951L81.0281 110.536Z" fill="url(#paint55_linear_410_509)"/>
    <path style="mix-blend-mode:color-dodge" opacity="0.5" d="M73.2544 109.951L75.1919 112.082L69.1562 110.536L73.2544 109.951Z" fill="url(#paint56_linear_410_509)"/>
    <g style="mix-blend-mode:color-dodge" opacity="0.8">
        <path d="M76.9662 111.218C76.6619 111.466 76.9155 111.634 76.9155 111.634L78.4878 111.218C78.2676 111.059 78.0009 110.973 77.727 110.973C77.453 110.973 77.1863 111.059 76.9662 111.218Z" fill="white"/>
    </g>
    <path style="mix-blend-mode:multiply" opacity="0.5" d="M71.4531 117.356C71.4531 117.356 74.2326 116.077 75.1151 115.72L78.7771 117.356L75.1151 115.473L71.4531 117.356Z" fill="url(#paint57_linear_410_509)"/>
    <path style="mix-blend-mode:multiply" opacity="0.5" d="M69.1562 110.535L75.1919 112.082L71.8748 114.867L69.1562 110.535Z" fill="url(#paint58_linear_410_509)"/>
    <path style="mix-blend-mode:multiply" opacity="0.5" d="M81.0281 110.535L75.1953 112.082L78.4109 115.234L81.0281 110.535Z" fill="url(#paint59_linear_410_509)"/>
    <path style="mix-blend-mode:multiply" opacity="0.5" d="M71.4375 117.356L75.1908 112.082L78.7716 117.356L75.1096 116.791L71.4375 117.356Z" fill="url(#paint60_linear_410_509)"/>
    <g style="mix-blend-mode:soft-light" opacity="0.4">
        <path d="M73.7434 109.328C73.3579 110.388 74.839 111.122 75.0418 110.795C75.21 110.001 75.1504 109.178 74.8694 108.416C74.6158 108.168 73.926 108.891 73.7434 109.328Z" fill="#F7FFFF"/>
    </g>
    <g style="mix-blend-mode:soft-light" opacity="0.4">
        <path d="M72.5317 114.741C73.3127 114.85 73.7591 113.968 73.9214 113.363C74.1953 112.392 71.0912 114.553 72.5317 114.741Z" fill="#F7FFFF"/>
    </g>
    <path style="mix-blend-mode:multiply" opacity="0.5" d="M112.119 115.72L108.142 117.772L108.903 113.44L105.688 110.377L110.131 109.742L112.119 105.807L114.107 109.742L118.55 110.377L115.334 113.44L116.095 117.772L112.119 115.72Z" fill="url(#paint61_linear_410_509)"/>
    <path d="M118.048 110.535L115.908 110.238L115.33 110.149L113.95 109.95L112.114 106.322L110.278 109.95L106.18 110.535L109.142 113.36L108.442 117.355L112.114 115.472L115.776 117.355L115.076 113.36L118.048 110.535Z" fill="url(#paint62_linear_410_509)"/>
    <path style="mix-blend-mode:multiply" opacity="0.5" d="M106.164 110.535L112.2 112.082L109.126 113.36L106.164 110.535Z" fill="url(#paint63_linear_410_509)"/>
    <path style="mix-blend-mode:multiply" opacity="0.5" d="M118.028 110.535L112.195 112.082L115.056 113.36L118.028 110.535Z" fill="url(#paint64_linear_410_509)"/>
    <path style="mix-blend-mode:multiply" opacity="0.5" d="M112.098 115.472L112.199 112.082L108.426 117.356L112.098 115.472Z" fill="url(#paint65_linear_410_509)"/>
    <path style="mix-blend-mode:multiply" opacity="0.5" d="M115.76 117.356L112.199 112.082L112.098 115.472L115.76 117.356Z" fill="url(#paint66_linear_410_509)"/>
    <path style="mix-blend-mode:color-dodge" opacity="0.5" d="M112.098 106.322L112.199 112.082L113.934 109.95L112.098 106.322Z" fill="url(#paint67_linear_410_509)"/>
    <path style="mix-blend-mode:color-dodge" opacity="0.5" d="M118.028 110.536L112.195 112.082L113.93 109.951L118.028 110.536Z" fill="url(#paint68_linear_410_509)"/>
    <path style="mix-blend-mode:color-dodge" opacity="0.5" d="M118.028 110.536L112.195 112.082L113.93 109.951L118.028 110.536Z" fill="url(#paint69_linear_410_509)"/>
    <path style="mix-blend-mode:color-dodge" opacity="0.5" d="M110.262 109.951L112.2 112.082L106.164 110.536L110.262 109.951Z" fill="url(#paint70_linear_410_509)"/>
    <g style="mix-blend-mode:color-dodge" opacity="0.8">
        <path d="M113.924 111.217C113.62 111.464 113.924 111.633 113.924 111.633L115.497 111.217C115.271 111.047 114.995 110.955 114.71 110.955C114.426 110.955 114.15 111.047 113.924 111.217Z" fill="white"/>
    </g>
    <path style="mix-blend-mode:multiply" opacity="0.5" d="M108.414 117.356C108.414 117.356 111.204 116.077 112.086 115.72L115.748 117.356L112.086 115.473L108.414 117.356Z" fill="url(#paint71_linear_410_509)"/>
    <path style="mix-blend-mode:multiply" opacity="0.5" d="M106.164 110.535L112.2 112.082L108.883 114.867L106.164 110.535Z" fill="url(#paint72_linear_410_509)"/>
    <path style="mix-blend-mode:multiply" opacity="0.5" d="M118.028 110.535L112.195 112.082L115.411 115.234L118.028 110.535Z" fill="url(#paint73_linear_410_509)"/>
    <path style="mix-blend-mode:multiply" opacity="0.5" d="M108.445 117.356L112.199 112.082L115.779 117.356L112.117 116.791L108.445 117.356Z" fill="url(#paint74_linear_410_509)"/>
    <g style="mix-blend-mode:soft-light" opacity="0.4">
        <path d="M110.747 109.328C110.362 110.388 111.843 111.122 112.046 110.795C112.216 110.001 112.152 109.176 111.863 108.416C111.62 108.168 110.91 108.891 110.747 109.328Z" fill="#F7FFFF"/>
    </g>
    <g style="mix-blend-mode:soft-light" opacity="0.4">
        <path d="M109.531 114.741C110.322 114.85 110.768 113.968 110.931 113.363C111.205 112.392 108.101 114.553 109.531 114.741Z" fill="#F7FFFF"/>
    </g>
    <path style="mix-blend-mode:multiply" opacity="0.5" d="M93.4235 115.72L89.447 117.772L90.2078 113.44L86.9922 110.377L91.4352 109.742L93.4235 105.807L95.4117 109.742L99.8547 110.377L96.6391 113.44L97.3897 117.772L93.4235 115.72Z" fill="url(#paint75_linear_410_509)"/>
    <path d="M99.3466 110.535L97.2163 110.238L96.6381 110.149L95.2484 109.95L93.4225 106.322L91.5864 109.95L87.4883 110.535L90.4503 113.36L89.7504 117.355L93.4225 115.472L97.0845 117.355L96.3845 113.36L99.3466 110.535Z" fill="url(#paint76_linear_410_509)"/>
    <path style="mix-blend-mode:multiply" opacity="0.5" d="M87.4688 110.535L93.5044 112.082L90.4308 113.36L87.4688 110.535Z" fill="url(#paint77_linear_410_509)"/>
    <path style="mix-blend-mode:multiply" opacity="0.5" d="M99.3265 110.535L93.5039 112.082L96.3645 113.36L99.3265 110.535Z" fill="url(#paint78_linear_410_509)"/>
    <path style="mix-blend-mode:multiply" opacity="0.5" d="M93.3987 115.472L93.5001 112.082L89.7266 117.356L93.3987 115.472Z" fill="url(#paint79_linear_410_509)"/>
    <path style="mix-blend-mode:multiply" opacity="0.5" d="M97.0643 117.356L93.5038 112.082L93.4023 115.472L97.0643 117.356Z" fill="url(#paint80_linear_410_509)"/>
    <path style="mix-blend-mode:color-dodge" opacity="0.5" d="M93.4023 106.322L93.5038 112.082L95.2283 109.95L93.4023 106.322Z" fill="url(#paint81_linear_410_509)"/>
    <path style="mix-blend-mode:color-dodge" opacity="0.5" d="M99.3265 110.536L93.5039 112.082L95.2284 109.951L99.3265 110.536Z" fill="url(#paint82_linear_410_509)"/>
    <path style="mix-blend-mode:color-dodge" opacity="0.5" d="M99.3265 110.536L93.5039 112.082L95.2284 109.951L99.3265 110.536Z" fill="url(#paint83_linear_410_509)"/>
    <path style="mix-blend-mode:color-dodge" opacity="0.5" d="M91.5669 109.951L93.5044 112.082L87.4688 110.536L91.5669 109.951Z" fill="url(#paint84_linear_410_509)"/>
    <g style="mix-blend-mode:color-dodge" opacity="0.8">
        <path d="M95.229 111.217C94.9247 111.464 95.229 111.633 95.229 111.633L96.8013 111.217C96.576 111.047 96.2996 110.955 96.0152 110.955C95.7307 110.955 95.4543 111.047 95.229 111.217Z" fill="white"/>
    </g>
    <path style="mix-blend-mode:multiply" opacity="0.5" d="M89.75 117.356C89.75 117.356 92.5294 116.077 93.4221 115.72L97.0841 117.356L93.4221 115.473L89.75 117.356Z" fill="url(#paint85_linear_410_509)"/>
    <path style="mix-blend-mode:multiply" opacity="0.5" d="M87.4688 110.535L93.5044 112.082L90.1873 114.867L87.4688 110.535Z" fill="url(#paint86_linear_410_509)"/>
    <path style="mix-blend-mode:multiply" opacity="0.5" d="M99.3265 110.535L93.5039 112.082L96.7195 115.234L99.3265 110.535Z" fill="url(#paint87_linear_410_509)"/>
    <path style="mix-blend-mode:multiply" opacity="0.5" d="M89.75 117.356L93.5033 112.082L97.0841 117.356L93.4221 116.791L89.75 117.356Z" fill="url(#paint88_linear_410_509)"/>
    <g style="mix-blend-mode:soft-light" opacity="0.4">
        <path d="M92.052 109.328C91.6665 110.388 93.1475 111.122 93.3504 110.795C93.5203 110.001 93.457 109.176 93.1678 108.416C92.9244 108.168 92.1839 108.891 92.052 109.328Z" fill="#F7FFFF"/>
    </g>
    <g style="mix-blend-mode:soft-light" opacity="0.4">
        <path d="M90.8355 114.741C91.6267 114.85 92.0731 113.968 92.2354 113.363C92.5093 112.392 89.4052 114.553 90.8355 114.741Z" fill="#F7FFFF"/>
    </g>
    <path d="M73.5234 1.42578L80.7054 12.6063C81.3603 13.6259 82.489 14.2424 83.7008 14.2424H104.644C105.856 14.2424 106.984 13.6259 107.639 12.6063L114.821 1.42578H73.5234Z" fill="url(#paint89_linear_410_509)"/>
    <path d="M90.9136 4.15685H92.5185L89.4981 11.1348H87.9031L84.8927 4.15685H86.6371L88.7604 9.14108L90.9136 4.15685ZM93.1011 11.1348V4.15685H94.716V11.1348H93.1011ZM99.3925 4.15685C101.257 4.15685 102.423 5.12379 102.423 6.68884C102.423 8.24392 101.257 9.21086 99.3925 9.21086H97.9869V11.1348H96.372V4.15685H99.3925ZM99.3027 7.89502C100.29 7.89502 100.788 7.44644 100.788 6.68884C100.788 5.92127 100.29 5.47269 99.3027 5.47269H97.9869V7.89502H99.3027Z" fill="white"/>
    <path d="M28.8068 14.2364H30.7036L32.1647 21.3752L33.6258 14.2364H35.5098L33.3823 23.1055H30.96L28.8068 14.2364Z" fill="white"/>
    <g style="mix-blend-mode:overlay">
        <g style="mix-blend-mode:color-dodge">
            <path fill-rule="evenodd" clip-rule="evenodd" d="M14.4258 8.54415C14.4258 4.6117 17.6136 1.42383 21.5461 1.42383H165.377C169.309 1.42383 172.497 4.61169 172.497 8.54414V85.8488C172.497 88.0213 171.434 90.0562 169.65 91.2968V91.2968C167.867 92.5374 166.804 94.5724 166.804 96.7448V113.212V115.35V131.817C166.804 133.99 167.867 136.025 169.65 137.265V137.265C171.434 138.506 172.497 140.541 172.497 142.713V216.457C172.497 220.39 169.309 223.578 165.377 223.578H21.5461C17.6137 223.578 14.4258 220.39 14.4258 216.457V143.962C14.4258 141.632 15.5666 139.448 17.4799 138.117L18.4909 137.414C20.4043 136.083 21.5451 133.9 21.5451 131.569L21.5451 113.216L21.5451 97.0021C21.5451 94.6713 20.4043 92.4881 18.4909 91.157L17.4799 90.4537C15.5666 89.1227 14.4258 86.9394 14.4258 84.6086V8.54415Z" fill="url(#paint90_linear_410_509)"/>
        </g>
    </g>
    <defs>
        <filter id="filter0_b_410_509" x="-3.37611" y="-13.5285" width="63.3694" height="252.76" filterUnits="userSpaceOnUse" colorInterpolationFilters="sRGB">
            <feFlood floodOpacity="0" result="BackgroundImageFix"/>
            <feGaussianBlur in="BackgroundImageFix" stdDeviation="9.25641"/>
            <feComposite in2="SourceAlpha" operator="in" result="effect1_backgroundBlur_410_509"/>
            <feBlend mode="normal" in="SourceGraphic" in2="effect1_backgroundBlur_410_509" result="shape"/>
        </filter>
        <filter id="filter1_b_410_509" x="126.929" y="-13.5265" width="63.3694" height="252.76" filterUnits="userSpaceOnUse" colorInterpolationFilters="sRGB">
            <feFlood floodOpacity="0" result="BackgroundImageFix"/>
            <feGaussianBlur in="BackgroundImageFix" stdDeviation="9.25641"/>
            <feComposite in2="SourceAlpha" operator="in" result="effect1_backgroundBlur_410_509"/>
            <feBlend mode="normal" in="SourceGraphic" in2="effect1_backgroundBlur_410_509" result="shape"/>
        </filter>
        <filter id="filter2_i_410_509" x="13" y="0" width="160.918" height="227.85" filterUnits="userSpaceOnUse" colorInterpolationFilters="sRGB">
            <feFlood floodOpacity="0" result="BackgroundImageFix"/>
            <feBlend mode="normal" in="SourceGraphic" in2="BackgroundImageFix" result="shape"/>
            <feColorMatrix in="SourceAlpha" type="matrix" values="0 0 0 0 0 0 0 0 0 0 0 0 0 0 0 0 0 0 127 0" result="hardAlpha"/>
            <feOffset dy="3.56016"/>
            <feGaussianBlur stdDeviation="1.42406"/>
            <feComposite in2="hardAlpha" operator="arithmetic" k2="-1" k3="1"/>
            <feColorMatrix type="matrix" values="0 0 0 0 0 0 0 0 0 0 0 0 0 0 0 0 0 0 0.25 0"/>
            <feBlend mode="normal" in2="shape" result="effect1_innerShadow_410_509"/>
        </filter>
        <filter id="filter3_f_410_509" x="0.894489" y="22.0742" width="185.84" height="180.856" filterUnits="userSpaceOnUse" colorInterpolationFilters="sRGB">
            <feFlood floodOpacity="0" result="BackgroundImageFix"/>
            <feBlend mode="normal" in="SourceGraphic" in2="BackgroundImageFix" result="shape"/>
            <feGaussianBlur stdDeviation="26.7012" result="effect1_foregroundBlur_410_509"/>
        </filter>
        <filter id="filter4_f_410_509" x="140.464" y="5.37266" width="26.7" height="26.698" filterUnits="userSpaceOnUse" colorInterpolationFilters="sRGB">
            <feFlood floodOpacity="0" result="BackgroundImageFix"/>
            <feBlend mode="normal" in="SourceGraphic" in2="BackgroundImageFix" result="shape"/>
            <feGaussianBlur stdDeviation="0.777539" result="effect1_foregroundBlur_410_509"/>
        </filter>
        <filter id="filter5_f_410_509" x="136.957" y="1.85703" width="33.7195" height="33.7195" filterUnits="userSpaceOnUse" colorInterpolationFilters="sRGB">
            <feFlood floodOpacity="0" result="BackgroundImageFix"/>
            <feBlend mode="normal" in="SourceGraphic" in2="BackgroundImageFix" result="shape"/>
            <feGaussianBlur stdDeviation="0.777539" result="effect1_foregroundBlur_410_509"/>
        </filter>
        <filter id="filter6_f_410_509" x="136.957" y="1.85703" width="33.7195" height="33.7195" filterUnits="userSpaceOnUse" colorInterpolationFilters="sRGB">
            <feFlood floodOpacity="0" result="BackgroundImageFix"/>
            <feBlend mode="normal" in="SourceGraphic" in2="BackgroundImageFix" result="shape"/>
            <feGaussianBlur stdDeviation="0.777539" result="effect1_foregroundBlur_410_509"/>
        </filter>
        <filter id="filter7_f_410_509" x="136.765" y="1.83359" width="26.7" height="26.698" filterUnits="userSpaceOnUse" colorInterpolationFilters="sRGB">
            <feFlood floodOpacity="0" result="BackgroundImageFix"/>
            <feBlend mode="normal" in="SourceGraphic" in2="BackgroundImageFix" result="shape"/>
            <feGaussianBlur stdDeviation="0.777539" result="effect1_foregroundBlur_410_509"/>
        </filter>
        <filter id="filter8_f_410_509" x="143.105" y="10.2438" width="26.5672" height="26.5691" filterUnits="userSpaceOnUse" colorInterpolationFilters="sRGB">
            <feFlood floodOpacity="0" result="BackgroundImageFix"/>
            <feBlend mode="normal" in="SourceGraphic" in2="BackgroundImageFix" result="shape"/>
            <feGaussianBlur stdDeviation="0.777539" result="effect1_foregroundBlur_410_509"/>
        </filter>
        <linearGradient id="paint0_linear_410_509" x1="10.1525" y1="211.161" x2="96.6584" y2="0.64228" gradientUnits="userSpaceOnUse">
            <stop stop-color="#060913"/>
            <stop offset="0.136764" stop-color="#070A16"/>
            <stop offset="0.197268" stop-color="#0D142E"/>
            <stop offset="0.309253" stop-color="#070B17"/>
            <stop offset="0.490764" stop-color="#080C1A"/>
            <stop offset="0.661458" stop-color="#0B1125"/>
            <stop offset="1" stop-color="#101010"/>
        </linearGradient>
        <linearGradient id="paint1_linear_410_509" x1="31.8695" y1="230.264" x2="78.9342" y2="217.115" gradientUnits="userSpaceOnUse">
            <stop stop-color="#EECCA2"/>
            <stop offset="0.260417" stop-color="#624A2C"/>
            <stop offset="0.6875" stop-color="#FFDAAB"/>
            <stop offset="1" stop-color="#C68C43"/>
        </linearGradient>
        <linearGradient id="paint2_linear_410_509" x1="176.769" y1="14.5442" x2="90.2635" y2="225.063" gradientUnits="userSpaceOnUse">
            <stop stop-color="#060913"/>
            <stop offset="0.136764" stop-color="#070A16"/>
            <stop offset="0.197268" stop-color="#0D142E"/>
            <stop offset="0.309253" stop-color="#070B17"/>
            <stop offset="0.490764" stop-color="#080C1A"/>
            <stop offset="0.661458" stop-color="#0B1125"/>
            <stop offset="1" stop-color="#101010"/>
        </linearGradient>
        <linearGradient id="paint3_linear_410_509" x1="155.052" y1="-4.55942" x2="107.988" y2="8.59028" gradientUnits="userSpaceOnUse">
            <stop stop-color="#EECCA2"/>
            <stop offset="0.260417" stop-color="#624A2C"/>
            <stop offset="0.6875" stop-color="#FFDAAB"/>
            <stop offset="1" stop-color="#C68C43"/>
        </linearGradient>
        <linearGradient id="paint4_linear_410_509" x1="132.265" y1="-18.1568" x2="1.9635" y2="248.855" gradientUnits="userSpaceOnUse">
            <stop stop-color="#C68C43"/>
            <stop offset="0.119792" stop-color="#F5BA6E"/>
            <stop offset="0.286458" stop-color="#C68C43"/>
            <stop offset="0.5625" stop-color="#C68C43"/>
            <stop offset="0.770833" stop-color="#EEB873"/>
            <stop offset="1" stop-color="#C68C43"/>
        </linearGradient>
        <linearGradient id="paint5_linear_410_509" x1="17.2773" y1="42.0125" x2="170.364" y2="42.0125" gradientUnits="userSpaceOnUse">
            <stop stop-color="#8980EB"/>
            <stop offset="1" stop-color="#705AB8"/>
        </linearGradient>
        <linearGradient id="paint6_linear_410_509" x1="93.795" y1="115.216" x2="93.795" y2="-51.1674" gradientUnits="userSpaceOnUse">
            <stop stop-color="#86759D"/>
            <stop offset="0.39" stop-color="#98ABD2"/>
            <stop offset="1" stop-color="#DAE1EF"/>
        </linearGradient>
        <linearGradient id="paint7_linear_410_509" x1="22.5664" y1="43.9917" x2="94.8122" y2="43.9917" gradientUnits="userSpaceOnUse">
            <stop stop-color="#705AB8"/>
            <stop offset="1" stop-color="white"/>
        </linearGradient>
        <linearGradient id="paint8_linear_410_509" x1="94.8086" y1="43.9917" x2="164.582" y2="43.9917" gradientUnits="userSpaceOnUse">
            <stop stop-color="#705AB8"/>
            <stop offset="1" stop-color="white"/>
        </linearGradient>
        <linearGradient id="paint9_linear_410_509" x1="49.6367" y1="79.1075" x2="94.8044" y2="79.1075" gradientUnits="userSpaceOnUse">
            <stop stop-color="#705AB8"/>
            <stop offset="1" stop-color="white"/>
        </linearGradient>
        <linearGradient id="paint10_linear_410_509" x1="93.5742" y1="79.1075" x2="137.45" y2="79.1075" gradientUnits="userSpaceOnUse">
            <stop stop-color="#705AB8"/>
            <stop offset="1" stop-color="white"/>
        </linearGradient>
        <linearGradient id="paint11_linear_410_509" x1="100.035" y1="-16.458" x2="110.59" y2="76.8725" gradientUnits="userSpaceOnUse">
            <stop stop-color="#BFD7FF"/>
            <stop offset="1"/>
        </linearGradient>
        <linearGradient id="paint12_linear_410_509" x1="94.8086" y1="32.1692" x2="164.582" y2="32.1692" gradientUnits="userSpaceOnUse">
            <stop stop-color="#BFD7FF"/>
            <stop offset="1"/>
        </linearGradient>
        <linearGradient id="paint13_linear_410_509" x1="123.909" y1="-19.1377" x2="134.465" y2="74.1345" gradientUnits="userSpaceOnUse">
            <stop stop-color="#BFD7FF"/>
            <stop offset="1"/>
        </linearGradient>
        <linearGradient id="paint14_linear_410_509" x1="53.7456" y1="-11.2175" x2="64.3012" y2="82.0547" gradientUnits="userSpaceOnUse">
            <stop stop-color="#BFD7FF"/>
            <stop offset="1"/>
        </linearGradient>
        <linearGradient id="paint15_linear_410_509" x1="49.9219" y1="100.657" x2="137.673" y2="100.657" gradientUnits="userSpaceOnUse">
            <stop stop-color="#8980EB"/>
            <stop offset="1" stop-color="#705AB8"/>
        </linearGradient>
        <linearGradient id="paint16_linear_410_509" x1="46.1404" y1="132.871" x2="46.1404" y2="112.291" gradientUnits="userSpaceOnUse">
            <stop offset="0.21" stop-color="#98ABD2"/>
            <stop offset="0.49" stop-color="#72719D"/>
            <stop offset="1" stop-color="#DAE1EF"/>
        </linearGradient>
        <linearGradient id="paint17_linear_410_509" x1="48.659" y1="130.819" x2="48.5815" y2="121.164" gradientUnits="userSpaceOnUse">
            <stop stop-color="#705AB8"/>
            <stop offset="1" stop-color="white"/>
        </linearGradient>
        <linearGradient id="paint18_linear_410_509" x1="50.0078" y1="122.532" x2="57.9201" y2="122.532" gradientUnits="userSpaceOnUse">
            <stop stop-color="#8980EB"/>
            <stop offset="1" stop-color="#705AB8"/>
        </linearGradient>
        <linearGradient id="paint19_linear_410_509" x1="140.771" y1="132.871" x2="140.771" y2="112.292" gradientUnits="userSpaceOnUse">
            <stop offset="0.21" stop-color="#98ABD2"/>
            <stop offset="0.49" stop-color="#72719D"/>
            <stop offset="1" stop-color="#DAE1EF"/>
        </linearGradient>
        <linearGradient id="paint20_linear_410_509" x1="138.258" y1="130.819" x2="138.345" y2="121.164" gradientUnits="userSpaceOnUse">
            <stop stop-color="#705AB8"/>
            <stop offset="1" stop-color="white"/>
        </linearGradient>
        <linearGradient id="paint21_linear_410_509" x1="136.915" y1="122.532" x2="129.003" y2="122.532" gradientUnits="userSpaceOnUse">
            <stop stop-color="#8980EB"/>
            <stop offset="1" stop-color="#705AB8"/>
        </linearGradient>
        <linearGradient id="paint22_linear_410_509" x1="93.6118" y1="161.132" x2="93.6118" y2="79.3202" gradientUnits="userSpaceOnUse">
            <stop offset="0.21" stop-color="#98ABD2"/>
            <stop offset="0.49" stop-color="#72719D"/>
            <stop offset="1" stop-color="#DAE1EF"/>
        </linearGradient>
        <linearGradient id="paint23_linear_410_509" x1="93.6156" y1="76.8799" x2="93.6156" y2="151.415" gradientUnits="userSpaceOnUse">
            <stop offset="0.21" stop-color="#98ABD2"/>
            <stop offset="0.49" stop-color="#72719D"/>
            <stop offset="1" stop-color="#DAE1EF"/>
        </linearGradient>
        <linearGradient id="paint24_linear_410_509" x1="58.5075" y1="146.607" x2="58.5075" y2="101.503" gradientUnits="userSpaceOnUse">
            <stop stop-color="#705AB8"/>
            <stop offset="1" stop-color="white"/>
        </linearGradient>
        <linearGradient id="paint25_linear_410_509" x1="128.568" y1="146.607" x2="128.568" y2="101.503" gradientUnits="userSpaceOnUse">
            <stop stop-color="#705AB8"/>
            <stop offset="1" stop-color="white"/>
        </linearGradient>
        <linearGradient id="paint26_linear_410_509" x1="65.5381" y1="129.78" x2="83.5865" y2="159.732" gradientUnits="userSpaceOnUse">
            <stop stop-color="#705AB8"/>
            <stop offset="1" stop-color="white"/>
        </linearGradient>
        <linearGradient id="paint27_linear_410_509" x1="107.115" y1="133.508" x2="119.932" y2="172.416" gradientUnits="userSpaceOnUse">
            <stop stop-color="#705AB8"/>
            <stop offset="1" stop-color="white"/>
        </linearGradient>
        <linearGradient id="paint28_linear_410_509" x1="93.5348" y1="154.134" x2="93.5348" y2="91.7716" gradientUnits="userSpaceOnUse">
            <stop stop-color="#705AB8"/>
            <stop offset="1" stop-color="white"/>
        </linearGradient>
        <linearGradient id="paint29_linear_410_509" x1="62.0273" y1="102.886" x2="125.194" y2="102.886" gradientUnits="userSpaceOnUse">
            <stop stop-color="#8980EB"/>
            <stop offset="1" stop-color="#705AB8"/>
        </linearGradient>
        <linearGradient id="paint30_linear_410_509" x1="55.0547" y1="82.8691" x2="108.412" y2="82.8691" gradientUnits="userSpaceOnUse">
            <stop stop-color="#728EE3"/>
            <stop offset="1" stop-color="#836888"/>
        </linearGradient>
        <linearGradient id="paint31_linear_410_509" x1="55.0547" y1="135.397" x2="132.169" y2="135.397" gradientUnits="userSpaceOnUse">
            <stop stop-color="#728EE3"/>
            <stop offset="1" stop-color="#836888"/>
        </linearGradient>
        <linearGradient id="paint32_linear_410_509" x1="110.789" y1="142.102" x2="128.997" y2="142.102" gradientUnits="userSpaceOnUse">
            <stop stop-color="#8980EB"/>
            <stop offset="1" stop-color="#705AB8"/>
        </linearGradient>
        <linearGradient id="paint33_linear_410_509" x1="62.1669" y1="103.438" x2="64.1652" y2="103.438" gradientUnits="userSpaceOnUse">
            <stop stop-color="#8980EB"/>
            <stop offset="1" stop-color="#705AB8"/>
        </linearGradient>
        <linearGradient id="paint34_linear_410_509" x1="123.001" y1="102.508" x2="124.857" y2="102.508" gradientUnits="userSpaceOnUse">
            <stop stop-color="#8980EB"/>
            <stop offset="1" stop-color="#705AB8"/>
        </linearGradient>
        <linearGradient id="paint35_linear_410_509" x1="79.5243" y1="77.1866" x2="93.6548" y2="77.1866" gradientUnits="userSpaceOnUse">
            <stop stop-color="#8980EB"/>
            <stop offset="1" stop-color="#705AB8"/>
        </linearGradient>
        <linearGradient id="paint36_linear_410_509" x1="102.811" y1="117.987" x2="103.809" y2="119.899" gradientUnits="userSpaceOnUse">
            <stop stop-color="#8980EB"/>
            <stop offset="1" stop-color="#705AB8"/>
        </linearGradient>
        <linearGradient id="paint37_linear_410_509" x1="106.101" y1="117.793" x2="106.855" y2="119.238" gradientUnits="userSpaceOnUse">
            <stop stop-color="#8980EB"/>
            <stop offset="1" stop-color="#705AB8"/>
        </linearGradient>
        <linearGradient id="paint38_linear_410_509" x1="87.4405" y1="73.773" x2="88.3744" y2="75.6333" gradientUnits="userSpaceOnUse">
            <stop stop-color="#8980EB"/>
            <stop offset="1" stop-color="#705AB8"/>
        </linearGradient>
        <linearGradient id="paint39_linear_410_509" x1="93.4668" y1="86.6173" x2="93.4668" y2="145.917" gradientUnits="userSpaceOnUse">
            <stop offset="0.21" stop-color="#98ABD2"/>
            <stop offset="0.49" stop-color="#72719D"/>
            <stop offset="1" stop-color="#DAE1EF"/>
        </linearGradient>
        <linearGradient id="paint40_linear_410_509" x1="51.8867" y1="133.433" x2="135.047" y2="133.433" gradientUnits="userSpaceOnUse">
            <stop offset="0.21" stop-color="#98ABD2"/>
            <stop offset="0.49" stop-color="#72719D"/>
            <stop offset="1" stop-color="#DAE1EF"/>
        </linearGradient>
        <linearGradient id="paint41_linear_410_509" x1="93.4668" y1="149.502" x2="93.4668" y2="124.789" gradientUnits="userSpaceOnUse">
            <stop stop-color="#8980EB"/>
            <stop offset="1" stop-color="#705AB8"/>
        </linearGradient>
        <linearGradient id="paint42_linear_410_509" x1="84.6081" y1="144.787" x2="82.0341" y2="114.051" gradientUnits="userSpaceOnUse">
            <stop stop-color="#705AB8"/>
            <stop offset="1" stop-color="white"/>
        </linearGradient>
        <linearGradient id="paint43_linear_410_509" x1="48.3972" y1="93.2208" x2="153.661" y2="93.2208" gradientUnits="userSpaceOnUse">
            <stop offset="0.21" stop-color="#98ABD2"/>
            <stop offset="0.49" stop-color="#72719D"/>
            <stop offset="1" stop-color="#DAE1EF"/>
        </linearGradient>
        <linearGradient id="paint44_linear_410_509" x1="93.4668" y1="118.975" x2="93.4668" y2="73.6724" gradientUnits="userSpaceOnUse">
            <stop offset="0.21" stop-color="#98ABD2"/>
            <stop offset="0.49" stop-color="#72719D"/>
            <stop offset="1" stop-color="#DAE1EF"/>
        </linearGradient>
        <linearGradient id="paint45_linear_410_509" x1="84.6081" y1="78.54" x2="82.0341" y2="109.276" gradientUnits="userSpaceOnUse">
            <stop stop-color="#705AB8"/>
            <stop offset="1" stop-color="white"/>
        </linearGradient>
        <linearGradient id="paint46_linear_410_509" x1="93.7539" y1="111.708" x2="93.7539" y2="90.9598" gradientUnits="userSpaceOnUse">
            <stop stop-color="#8980EB"/>
            <stop offset="1" stop-color="#705AB8"/>
        </linearGradient>
        <linearGradient id="paint47_linear_410_509" x1="75.111" y1="117.99" x2="75.111" y2="103.784" gradientUnits="userSpaceOnUse">
            <stop stop-color="#8980EB"/>
            <stop offset="1" stop-color="#705AB8"/>
        </linearGradient>
        <linearGradient id="paint48_linear_410_509" x1="75.1139" y1="117.564" x2="75.1139" y2="104.459" gradientUnits="userSpaceOnUse">
            <stop stop-color="#86759D"/>
            <stop offset="0.39" stop-color="#98ABD2"/>
            <stop offset="1" stop-color="#DAE1EF"/>
        </linearGradient>
        <linearGradient id="paint49_linear_410_509" x1="69.1562" y1="111.953" x2="75.1919" y2="111.953" gradientUnits="userSpaceOnUse">
            <stop stop-color="#705AB8"/>
            <stop offset="1" stop-color="white"/>
        </linearGradient>
        <linearGradient id="paint50_linear_410_509" x1="75.1953" y1="111.953" x2="81.0281" y2="111.953" gradientUnits="userSpaceOnUse">
            <stop stop-color="#705AB8"/>
            <stop offset="1" stop-color="white"/>
        </linearGradient>
        <linearGradient id="paint51_linear_410_509" x1="71.418" y1="114.719" x2="75.1915" y2="114.719" gradientUnits="userSpaceOnUse">
            <stop stop-color="#705AB8"/>
            <stop offset="1" stop-color="white"/>
        </linearGradient>
        <linearGradient id="paint52_linear_410_509" x1="75.0898" y1="114.719" x2="78.7518" y2="114.719" gradientUnits="userSpaceOnUse">
            <stop stop-color="#705AB8"/>
            <stop offset="1" stop-color="white"/>
        </linearGradient>
        <linearGradient id="paint53_linear_410_509" x1="75.6275" y1="107.195" x2="76.4126" y2="114.544" gradientUnits="userSpaceOnUse">
            <stop stop-color="#BFD7FF"/>
            <stop offset="1"/>
        </linearGradient>
        <linearGradient id="paint54_linear_410_509" x1="75.1953" y1="111.022" x2="81.0281" y2="111.022" gradientUnits="userSpaceOnUse">
            <stop stop-color="#BFD7FF"/>
            <stop offset="1"/>
        </linearGradient>
        <linearGradient id="paint55_linear_410_509" x1="77.6299" y1="106.977" x2="78.4149" y2="114.337" gradientUnits="userSpaceOnUse">
            <stop stop-color="#BFD7FF"/>
            <stop offset="1"/>
        </linearGradient>
        <linearGradient id="paint56_linear_410_509" x1="71.7632" y1="107.602" x2="72.5483" y2="114.961" gradientUnits="userSpaceOnUse">
            <stop stop-color="#BFD7FF"/>
            <stop offset="1"/>
        </linearGradient>
        <linearGradient id="paint57_linear_410_509" x1="71.4531" y1="116.414" x2="78.7771" y2="116.414" gradientUnits="userSpaceOnUse">
            <stop stop-color="#8980EB"/>
            <stop offset="1" stop-color="#705AB8"/>
        </linearGradient>
        <linearGradient id="paint58_linear_410_509" x1="69.1562" y1="112.706" x2="75.1919" y2="112.706" gradientUnits="userSpaceOnUse">
            <stop stop-color="#8980EB"/>
            <stop offset="1" stop-color="#705AB8"/>
        </linearGradient>
        <linearGradient id="paint59_linear_410_509" x1="75.1953" y1="112.885" x2="81.0281" y2="112.885" gradientUnits="userSpaceOnUse">
            <stop stop-color="#8980EB"/>
            <stop offset="1" stop-color="#705AB8"/>
        </linearGradient>
        <linearGradient id="paint60_linear_410_509" x1="71.4476" y1="114.719" x2="78.7716" y2="114.719" gradientUnits="userSpaceOnUse">
            <stop stop-color="#8980EB"/>
            <stop offset="1" stop-color="#705AB8"/>
        </linearGradient>
        <linearGradient id="paint61_linear_410_509" x1="112.119" y1="117.99" x2="112.119" y2="103.784" gradientUnits="userSpaceOnUse">
            <stop stop-color="#8980EB"/>
            <stop offset="1" stop-color="#705AB8"/>
        </linearGradient>
        <linearGradient id="paint62_linear_410_509" x1="112.114" y1="117.564" x2="112.114" y2="104.459" gradientUnits="userSpaceOnUse">
            <stop stop-color="#86759D"/>
            <stop offset="0.39" stop-color="#98ABD2"/>
            <stop offset="1" stop-color="#DAE1EF"/>
        </linearGradient>
        <linearGradient id="paint63_linear_410_509" x1="106.164" y1="111.953" x2="112.2" y2="111.953" gradientUnits="userSpaceOnUse">
            <stop stop-color="#705AB8"/>
            <stop offset="1" stop-color="white"/>
        </linearGradient>
        <linearGradient id="paint64_linear_410_509" x1="112.195" y1="111.953" x2="118.028" y2="111.953" gradientUnits="userSpaceOnUse">
            <stop stop-color="#705AB8"/>
            <stop offset="1" stop-color="white"/>
        </linearGradient>
        <linearGradient id="paint65_linear_410_509" x1="108.426" y1="114.719" x2="112.199" y2="114.719" gradientUnits="userSpaceOnUse">
            <stop stop-color="#705AB8"/>
            <stop offset="1" stop-color="white"/>
        </linearGradient>
        <linearGradient id="paint66_linear_410_509" x1="112.098" y1="114.719" x2="115.76" y2="114.719" gradientUnits="userSpaceOnUse">
            <stop stop-color="#705AB8"/>
            <stop offset="1" stop-color="white"/>
        </linearGradient>
        <linearGradient id="paint67_linear_410_509" x1="112.635" y1="107.195" x2="113.42" y2="114.544" gradientUnits="userSpaceOnUse">
            <stop stop-color="#BFD7FF"/>
            <stop offset="1"/>
        </linearGradient>
        <linearGradient id="paint68_linear_410_509" x1="112.195" y1="111.022" x2="118.028" y2="111.022" gradientUnits="userSpaceOnUse">
            <stop stop-color="#BFD7FF"/>
            <stop offset="1"/>
        </linearGradient>
        <linearGradient id="paint69_linear_410_509" x1="114.63" y1="106.977" x2="115.415" y2="114.337" gradientUnits="userSpaceOnUse">
            <stop stop-color="#BFD7FF"/>
            <stop offset="1"/>
        </linearGradient>
        <linearGradient id="paint70_linear_410_509" x1="108.771" y1="107.602" x2="109.556" y2="114.961" gradientUnits="userSpaceOnUse">
            <stop stop-color="#BFD7FF"/>
            <stop offset="1"/>
        </linearGradient>
        <linearGradient id="paint71_linear_410_509" x1="108.444" y1="116.414" x2="115.779" y2="116.414" gradientUnits="userSpaceOnUse">
            <stop stop-color="#8980EB"/>
            <stop offset="1" stop-color="#705AB8"/>
        </linearGradient>
        <linearGradient id="paint72_linear_410_509" x1="106.164" y1="112.706" x2="112.2" y2="112.706" gradientUnits="userSpaceOnUse">
            <stop stop-color="#8980EB"/>
            <stop offset="1" stop-color="#705AB8"/>
        </linearGradient>
        <linearGradient id="paint73_linear_410_509" x1="112.195" y1="112.885" x2="118.028" y2="112.885" gradientUnits="userSpaceOnUse">
            <stop stop-color="#8980EB"/>
            <stop offset="1" stop-color="#705AB8"/>
        </linearGradient>
        <linearGradient id="paint74_linear_410_509" x1="108.445" y1="114.719" x2="115.779" y2="114.719" gradientUnits="userSpaceOnUse">
            <stop stop-color="#8980EB"/>
            <stop offset="1" stop-color="#705AB8"/>
        </linearGradient>
        <linearGradient id="paint75_linear_410_509" x1="93.4235" y1="117.99" x2="93.4235" y2="103.784" gradientUnits="userSpaceOnUse">
            <stop stop-color="#8980EB"/>
            <stop offset="1" stop-color="#705AB8"/>
        </linearGradient>
        <linearGradient id="paint76_linear_410_509" x1="93.4225" y1="117.564" x2="93.4225" y2="104.459" gradientUnits="userSpaceOnUse">
            <stop stop-color="#86759D"/>
            <stop offset="0.39" stop-color="#98ABD2"/>
            <stop offset="1" stop-color="#DAE1EF"/>
        </linearGradient>
        <linearGradient id="paint77_linear_410_509" x1="87.4688" y1="111.953" x2="93.5044" y2="111.953" gradientUnits="userSpaceOnUse">
            <stop stop-color="#705AB8"/>
            <stop offset="1" stop-color="white"/>
        </linearGradient>
        <linearGradient id="paint78_linear_410_509" x1="93.5039" y1="111.953" x2="99.3265" y2="111.953" gradientUnits="userSpaceOnUse">
            <stop stop-color="#705AB8"/>
            <stop offset="1" stop-color="white"/>
        </linearGradient>
        <linearGradient id="paint79_linear_410_509" x1="89.7266" y1="114.719" x2="93.5001" y2="114.719" gradientUnits="userSpaceOnUse">
            <stop stop-color="#705AB8"/>
            <stop offset="1" stop-color="white"/>
        </linearGradient>
        <linearGradient id="paint80_linear_410_509" x1="93.4023" y1="114.719" x2="97.0643" y2="114.719" gradientUnits="userSpaceOnUse">
            <stop stop-color="#705AB8"/>
            <stop offset="1" stop-color="white"/>
        </linearGradient>
        <linearGradient id="paint81_linear_410_509" x1="93.94" y1="107.195" x2="94.7251" y2="114.544" gradientUnits="userSpaceOnUse">
            <stop stop-color="#BFD7FF"/>
            <stop offset="1"/>
        </linearGradient>
        <linearGradient id="paint82_linear_410_509" x1="93.5039" y1="111.022" x2="99.3265" y2="111.022" gradientUnits="userSpaceOnUse">
            <stop stop-color="#BFD7FF"/>
            <stop offset="1"/>
        </linearGradient>
        <linearGradient id="paint83_linear_410_509" x1="95.9385" y1="106.977" x2="96.7235" y2="114.337" gradientUnits="userSpaceOnUse">
            <stop stop-color="#BFD7FF"/>
            <stop offset="1"/>
        </linearGradient>
        <linearGradient id="paint84_linear_410_509" x1="90.0757" y1="107.602" x2="90.8608" y2="114.961" gradientUnits="userSpaceOnUse">
            <stop stop-color="#BFD7FF"/>
            <stop offset="1"/>
        </linearGradient>
        <linearGradient id="paint85_linear_410_509" x1="89.75" y1="116.414" x2="97.0841" y2="116.414" gradientUnits="userSpaceOnUse">
            <stop stop-color="#8980EB"/>
            <stop offset="1" stop-color="#705AB8"/>
        </linearGradient>
        <linearGradient id="paint86_linear_410_509" x1="87.4688" y1="112.706" x2="93.5044" y2="112.706" gradientUnits="userSpaceOnUse">
            <stop stop-color="#8980EB"/>
            <stop offset="1" stop-color="#705AB8"/>
        </linearGradient>
        <linearGradient id="paint87_linear_410_509" x1="93.5039" y1="112.885" x2="99.3265" y2="112.885" gradientUnits="userSpaceOnUse">
            <stop stop-color="#8980EB"/>
            <stop offset="1" stop-color="#705AB8"/>
        </linearGradient>
        <linearGradient id="paint88_linear_410_509" x1="89.75" y1="114.719" x2="97.0841" y2="114.719" gradientUnits="userSpaceOnUse">
            <stop stop-color="#8980EB"/>
            <stop offset="1" stop-color="#705AB8"/>
        </linearGradient>
        <linearGradient id="paint89_linear_410_509" x1="106.633" y1="-0.354298" x2="74.9475" y2="16.0224" gradientUnits="userSpaceOnUse">
            <stop stop-color="#C68C43"/>
            <stop offset="0.119792" stop-color="#F5BA6E"/>
            <stop offset="0.286458" stop-color="#C68C43"/>
            <stop offset="0.5625" stop-color="#C68C43"/>
            <stop offset="0.770833" stop-color="#EEB873"/>
            <stop offset="1" stop-color="#C68C43"/>
        </linearGradient>
        <linearGradient id="paint90_linear_410_509" x1="61.0639" y1="43.0777" x2="23.6845" y2="79.3937" gradientUnits="userSpaceOnUse">
            <stop stop-color="white" stop-opacity="0"/>
            <stop offset="0.440223" stop-color="white"/>
            <stop offset="1" stop-color="white" stop-opacity="0"/>
        </linearGradient>
    </defs>
</svg>
