<svg width="410" height="428" viewBox="0 0 410 428" fill="none" xmlns="http://www.w3.org/2000/svg">
<g filter="url(#filter0_f_7207_72752)">
<path d="M287.799 70.687L136.99 70.6765L47.0167 226.514L122.431 357.114L273.24 357.125L363.213 201.287L287.799 70.687Z" fill="url(#paint0_linear_7207_72752)"/>
<path d="M74.2932 226.505L150.617 94.3078L274.165 94.2993L335.931 201.299L259.607 333.496L136.06 333.505L74.2932 226.505Z" fill="url(#paint1_linear_7207_72752)"/>
<path d="M83.3833 226.51L155.169 102.173L269.612 102.188L326.847 201.291L255.061 325.628L140.618 325.613L83.3833 226.51Z" fill="url(#paint2_linear_7207_72752)"/>
<g style="mix-blend-mode:soft-light" opacity="0.5">
<path d="M139.576 72.7284C135.753 76.1186 144.808 88.2143 154.329 91.2503C163.851 94.2863 270.421 93.5668 274.78 90.486C278.723 85.0008 282.109 79.1361 284.888 72.9788C282.089 71.3629 141.43 71.0991 139.576 72.7284Z" fill="white"/>
</g>
<g style="mix-blend-mode:soft-light" opacity="0.5">
<path d="M359.667 199.796C358.642 204.802 343.64 203.008 336.25 196.28C328.86 189.552 277.14 96.8487 276.627 91.55C276.345 88.8068 284.888 72.9771 286.734 74.0429C289.533 75.6587 360.091 197.341 359.667 199.796Z" fill="white"/>
</g>
<path style="mix-blend-mode:multiply" opacity="0.37" d="M88.1626 161.228C84.7366 165.443 48.8072 223.343 51.1695 225.302C53.5318 227.261 70.6463 225.947 73.6174 222.383C76.5885 218.818 100.089 178.595 101.431 174.208C102.772 169.822 94.0486 154.265 88.1626 161.228Z" fill="url(#paint3_linear_7207_72752)"/>
<path style="mix-blend-mode:multiply" opacity="0.37" d="M308.641 288.52C306.733 293.611 274.526 353.66 271.648 352.594C268.77 351.527 261.35 336.049 262.952 331.694C264.553 327.338 287.637 286.874 290.765 283.519C293.893 280.164 311.877 280.027 308.641 288.52Z" fill="url(#paint4_linear_7207_72752)"/>
<path style="mix-blend-mode:multiply" opacity="0.37" d="M53.2196 228.628C53.4202 231.443 120.532 350.5 122.05 351.377C122.824 351.824 132.461 337.539 133.476 335.782C136.157 331.137 73.6853 231.273 72.3652 229.915C70.3912 227.902 52.9891 225.795 53.2196 228.628Z" fill="url(#paint5_linear_7207_72752)"/>
<path style="mix-blend-mode:multiply" opacity="0.37" d="M267.605 354.505C265.067 355.738 126.619 355.838 125.1 354.962C128.412 348.288 132.252 341.889 136.584 335.827C141.78 334.46 255.456 336.216 257.173 336.612C259.874 337.298 270.161 353.241 267.605 354.505Z" fill="url(#paint6_linear_7207_72752)"/>
<path style="mix-blend-mode:multiply" opacity="0.37" d="M89.2166 225.476C103.151 187.589 107.681 187.306 158.813 197.415C209.944 207.523 303.895 211.745 300.8 231.752C297.705 251.76 255.547 319.76 251.969 322.656C248.391 325.553 148.942 325.421 142.727 321.952C136.512 318.483 87.6667 229.742 89.2166 225.476Z" fill="url(#paint7_linear_7207_72752)"/>
<g style="mix-blend-mode:soft-light" opacity="0.5">
<path d="M324.499 201.089C323.187 199.856 271.513 110.235 267.037 108.088C262.56 105.94 194.045 100.087 160.861 106.336C151.967 107.989 110.267 185.304 116.523 187.05C122.78 188.797 144.599 160.425 214.594 177.811C283.528 194.903 300.744 224.493 305.633 230.809C306.943 232.598 327.441 203.9 324.499 201.089Z" fill="white"/>
</g>
<g style="mix-blend-mode:multiply" opacity="0.6">
<path d="M74.2963 226.503L150.62 94.3063L274.22 94.2085L335.934 201.297L259.61 333.495L255.176 325.773C255.176 325.773 321.946 211.086 321.555 206.056C320.049 188.037 269.618 117.237 256.412 114.257C243.205 111.277 166.792 101.777 153.665 108.768C149.258 111.106 83.3493 226.569 83.3493 226.569L74.2963 226.503Z" fill="#D01BDC"/>
</g>
<g style="mix-blend-mode:soft-light" opacity="0.5">
<path d="M250.117 175.969C267.107 199.831 301.78 220.088 306.135 219.903C310.49 219.717 321.13 206.17 317.572 200.781C314.014 195.392 286.542 151.385 274.815 147.631C263.088 143.877 247.143 171.632 250.117 175.969Z" fill="white"/>
</g>
<path opacity="0.8" d="M109.57 118.166C109.776 117.809 135.925 74.7865 139.725 72.8119C143.525 70.8374 283.156 73.0881 286.734 74.0422C290.312 74.9963 316.764 120.837 316.764 120.837L287.798 70.6866L136.958 70.6589L109.57 118.166Z" fill="#700000"/>
<path d="M301.168 141.046C301.168 141.046 334.53 198.022 333.376 201.603C332.221 205.184 284.005 291.242 284.005 291.242C284.005 291.242 334.332 205.172 335.936 201.294C337.539 197.417 301.168 141.046 301.168 141.046Z" fill="white"/>
<path d="M108.795 166.747C108.795 166.747 148.414 94.344 150.588 92.503C152.763 90.6619 274.166 94.2984 274.166 94.2984C274.166 94.2984 155.311 93.8801 151.473 95.9909C147.634 98.1018 108.795 166.747 108.795 166.747Z" fill="white"/>
<path opacity="0.8" d="M47.0142 226.513L122.458 357.13L273.298 357.158L293.788 321.667C293.788 321.667 274.958 352.082 270.43 354.629C265.903 357.176 130.473 357.549 125.099 354.962C119.724 352.376 51.7741 231.127 51.1689 225.299C50.5637 219.471 92.8602 147.105 92.8602 147.105L47.0142 226.513Z" fill="#700000"/>
<path d="M93.824 192.68C93.824 192.68 75.8939 222.98 76.1814 226.401C76.4689 229.822 105.684 280.711 105.684 280.711C105.684 280.711 72.2612 228.584 72.7555 226.765C73.2497 224.947 93.824 192.68 93.824 192.68Z" fill="white"/>
<g style="mix-blend-mode:soft-light" opacity="0.5">
<path d="M96.5369 276.34C93.2022 274.414 81.67 272.798 82.4397 276.14C83.2095 279.483 119.514 345.184 124.51 351.244C126.118 353.204 133.589 339.852 133.265 333.949C133.123 331.445 106.915 282.292 96.5369 276.34Z" fill="white"/>
</g>
<path d="M312.785 119.412C309.663 118.563 312.143 135.239 315.858 138.773C319.574 142.308 327.257 142.615 326.423 139.315C325.589 136.015 317.636 120.705 312.785 119.412Z" fill="white"/>
<path d="M326.379 142.347C321.605 141.059 318.763 163.515 320.169 168.575C321.575 173.634 347.138 196.055 349.525 190.407C351.913 184.759 333.049 144.133 326.379 142.347Z" fill="white"/>
<g style="mix-blend-mode:multiply" opacity="0.3">
<path d="M202.905 338.196C194.326 347.415 191.086 353.921 192.421 354.771C193.757 355.622 260.402 354.4 262.545 353.851C264.688 353.302 260.285 339.406 255.981 337.716C251.677 336.025 206.28 334.825 202.905 338.196Z" fill="#D01BDC"/>
</g>
<g style="mix-blend-mode:multiply" opacity="0.3">
<path d="M154.82 100.779C155.692 96.5187 152.03 94.4044 149.382 98.2348C146.734 102.065 103.386 175.77 104.794 176.701C106.201 177.633 111.467 175.87 112.447 174.172C113.427 172.475 154.466 102.837 154.82 100.779Z" fill="#D01BDC"/>
</g>
<g style="mix-blend-mode:multiply" opacity="0.3">
<path d="M327.907 201.312C326.903 202.638 285.758 272.254 286.651 272.77C287.544 273.286 293.544 272.383 294.541 270.656C295.538 268.929 332.67 202.276 332.43 201.661C332.19 201.046 328.739 200.284 327.907 201.312Z" fill="#D01BDC"/>
</g>
<g style="mix-blend-mode:multiply" opacity="0.3">
<path d="M270.281 101.026C269.49 102.395 216.49 102.125 215.567 101.592C214.644 101.059 218.512 95.115 220.274 95.0205C222.035 94.926 273.912 93.9118 273.822 94.8922C272.793 97.02 271.609 99.07 270.281 101.026Z" fill="#D01BDC"/>
</g>
<path d="M246.157 332.797C243.626 331.336 232.185 331.281 231.43 334.1C230.676 336.92 234.445 342.63 236.64 341.991C238.835 341.353 247.79 333.819 246.157 332.797Z" fill="#CC1F38"/>
<path d="M248.435 336.411C247.107 336.717 243.552 338.475 244.56 340.923C245.568 343.371 253.029 342.756 252.874 341.237C252.719 339.718 250.168 336.022 248.435 336.411Z" fill="#CC1F38"/>
<g style="mix-blend-mode:multiply" opacity="0.3">
<path d="M234.09 332.382C230.257 334.139 237.92 340.945 240.444 339.186C242.968 337.428 247.753 333.402 246.157 332.798C242.194 331.92 238.104 331.779 234.09 332.382Z" fill="#D01BDC"/>
</g>
<path d="M231.872 333.403C231.499 335.418 231.86 337.5 232.891 339.271C234.228 341.631 236.11 342.36 237.149 341.729C236.304 342.035 235.38 342.044 234.53 341.755C233.679 341.466 232.953 340.896 232.469 340.139C229.473 335.908 231.872 333.403 231.872 333.403Z" fill="#DAE1EF"/>
<g style="mix-blend-mode:multiply" opacity="0.3">
<path d="M249.366 337.07C246.181 338.049 245.946 341.963 247.15 342.42C248.355 342.878 252.898 342.642 252.874 341.239C252.851 339.836 250.058 336.834 249.366 337.07Z" fill="#D01BDC"/>
</g>
<path d="M248.436 336.413C248.436 336.413 245.222 337.853 245.112 339.695C245.001 341.536 246.043 342.138 246.043 342.138C246.043 342.138 242.9 342.15 243.412 340.301C244.249 337.132 248.436 336.413 248.436 336.413Z" fill="#DAE1EF"/>
<path d="M259.089 93.5293C253.914 88.3975 246.715 89.5211 242.282 91.011C237.849 92.5008 238.306 95.1468 242.014 96.4938C245.722 97.8408 261.254 95.6925 259.089 93.5293Z" fill="#CC1F38"/>
<g style="mix-blend-mode:multiply" opacity="0.3">
<path d="M259.085 93.5343C257.382 92.0395 255.367 90.9452 253.186 90.3318C251.005 89.7185 248.714 89.6016 246.482 89.9899C244.02 90.4736 244.846 96.4688 247.595 96.8648C250.343 97.2608 260.582 95.2723 259.085 93.5343Z" fill="#D01BDC"/>
</g>
<path d="M244.737 90.3339C244.737 90.3339 235.234 90.8417 234.719 93.5217C234.203 96.2017 244.699 96.8625 244.699 96.8625C244.699 96.8625 239.651 95.7739 239.751 93.3309C239.852 90.8879 244.737 90.3339 244.737 90.3339Z" fill="white"/>
<path d="M77.6888 229.697C74.0091 228.645 79.7973 240.76 81.8836 242.441C83.97 244.122 85.0294 236.992 84.542 235.361C82.7938 232.905 80.4303 230.952 77.6888 229.697Z" fill="white"/>
<path d="M162.669 287.212L85.2084 151.699C78.7868 156.483 73.0399 162.112 68.1233 168.433L68.3193 185.696L144.568 318.564L297.759 318.163L312.092 309.289C315.832 302.325 318.32 294.758 319.441 286.933L162.669 287.212Z" fill="url(#paint8_linear_7207_72752)"/>
<path d="M68.3171 185.698L68.1211 168.435L149.086 310.735L312.09 309.29L297.757 318.165L144.565 318.566L68.3171 185.698Z" fill="url(#paint9_linear_7207_72752)"/>
<g style="mix-blend-mode:multiply" opacity="0.6">
<path d="M68.1211 168.435L68.3171 185.698L69.4252 187.767L67.2077 191.607C67.2077 191.607 71.8327 198.724 80.5867 213.266C80.866 213.745 83.8594 226.232 83.8594 226.232C83.8594 226.232 137.638 323.895 140.615 325.614C144.486 327.849 256.084 324.196 256.084 324.196C256.084 324.196 265.579 322.533 266.428 322.507L292.611 323.57L295.722 318.181L297.757 318.165L312.09 309.29L149.086 310.735L68.1211 168.435Z" fill="#D01BDC"/>
</g>
<path style="mix-blend-mode:multiply" opacity="0.69" d="M162.671 287.212L149.09 310.733L312.094 309.288C315.718 302.275 318.198 294.728 319.443 286.933L162.671 287.212Z" fill="url(#paint10_linear_7207_72752)"/>
<g style="mix-blend-mode:soft-light" opacity="0.5">
<path d="M88.2481 160.322C86.015 159.032 76.4296 179.898 80.5754 188.326C87.1765 201.784 130.067 277.599 134.29 280.117C137.268 281.836 146.767 264.97 146.63 263.144C146.419 259.727 91.553 162.23 88.2481 160.322Z" fill="white"/>
</g>
<g style="mix-blend-mode:soft-light" opacity="0.5">
<path d="M210.506 287.76C208.265 288.411 197.768 307.004 200.507 307.831C225.635 309.634 250.862 309.603 275.987 307.74C300.625 305.014 312.762 289.631 308.668 287.784C308.647 287.613 215.131 286.421 210.506 287.76Z" fill="white"/>
</g>
<path d="M109.73 241.521C109.73 241.521 146.273 307.359 149.905 309.456C153.538 311.553 213.753 310.192 213.753 310.192C213.753 310.192 149.728 312.927 148.448 312.187C147.167 311.448 109.73 241.521 109.73 241.521Z" fill="white"/>
</g>
<defs>
<filter id="filter0_f_7207_72752" x="37.0156" y="60.6592" width="336.199" height="306.498" filterUnits="userSpaceOnUse" colorInterpolationFilters="sRGB">
<feFlood floodOpacity="0" result="BackgroundImageFix"/>
<feBlend mode="normal" in="SourceGraphic" in2="BackgroundImageFix" result="shape"/>
<feGaussianBlur stdDeviation="5" result="effect1_foregroundBlur_7207_72752"/>
</filter>
<linearGradient id="paint0_linear_7207_72752" x1="119.594" y1="362.027" x2="261.395" y2="116.42" gradientUnits="userSpaceOnUse">
<stop stop-color="#F77F5C"/>
<stop offset="0.37" stop-color="#E5552F"/>
<stop offset="0.49" stop-color="#E65A33"/>
<stop offset="0.64" stop-color="#E9693E"/>
<stop offset="0.81" stop-color="#EF8150"/>
<stop offset="0.99" stop-color="#F6A36A"/>
<stop offset="1" stop-color="#F7A66C"/>
</linearGradient>
<linearGradient id="paint1_linear_7207_72752" x1="286.335" y1="73.2192" x2="143.795" y2="320.106" gradientUnits="userSpaceOnUse">
<stop stop-color="#E5552F"/>
<stop offset="0.2" stop-color="#E65A33"/>
<stop offset="0.44" stop-color="#E9693E"/>
<stop offset="0.7" stop-color="#EF8150"/>
<stop offset="0.98" stop-color="#F6A36A"/>
<stop offset="1" stop-color="#F7A66C"/>
</linearGradient>
<linearGradient id="paint2_linear_7207_72752" x1="140.618" y1="325.613" x2="269.612" y2="102.188" gradientUnits="userSpaceOnUse">
<stop stop-color="#F77F5C"/>
<stop offset="0.37" stop-color="#E5552F"/>
<stop offset="0.49" stop-color="#E65A33"/>
<stop offset="0.64" stop-color="#E9693E"/>
<stop offset="0.81" stop-color="#EF8150"/>
<stop offset="0.99" stop-color="#F6A36A"/>
<stop offset="1" stop-color="#F7A66C"/>
</linearGradient>
<linearGradient id="paint3_linear_7207_72752" x1="97.5863" y1="162.302" x2="58.6852" y2="229.681" gradientUnits="userSpaceOnUse">
<stop stop-color="#C10065"/>
<stop offset="1" stop-color="white"/>
</linearGradient>
<linearGradient id="paint4_linear_7207_72752" x1="303.118" y1="280.964" x2="264.217" y2="348.343" gradientUnits="userSpaceOnUse">
<stop stop-color="#C10065"/>
<stop offset="1" stop-color="white"/>
</linearGradient>
<linearGradient id="paint5_linear_7207_72752" x1="110.689" y1="251.962" x2="70.4814" y2="321.604" gradientUnits="userSpaceOnUse">
<stop stop-color="#C10065"/>
<stop offset="1" stop-color="white"/>
</linearGradient>
<linearGradient id="paint6_linear_7207_72752" x1="219.347" y1="314.733" x2="178.366" y2="385.715" gradientUnits="userSpaceOnUse">
<stop stop-color="#C10065"/>
<stop offset="1" stop-color="white"/>
</linearGradient>
<linearGradient id="paint7_linear_7207_72752" x1="223.42" y1="181.638" x2="142.489" y2="321.815" gradientUnits="userSpaceOnUse">
<stop stop-color="#C10065"/>
<stop offset="1" stop-color="white"/>
</linearGradient>
<linearGradient id="paint8_linear_7207_72752" x1="266.793" y1="106.039" x2="164.03" y2="284.028" gradientUnits="userSpaceOnUse">
<stop stop-color="#F77F5C"/>
<stop offset="0.37" stop-color="#E5552F"/>
<stop offset="0.49" stop-color="#E65A33"/>
<stop offset="0.64" stop-color="#E9693E"/>
<stop offset="0.81" stop-color="#EF8150"/>
<stop offset="0.99" stop-color="#F6A36A"/>
<stop offset="1" stop-color="#F7A66C"/>
</linearGradient>
<linearGradient id="paint9_linear_7207_72752" x1="144.208" y1="318.359" x2="190.106" y2="238.862" gradientUnits="userSpaceOnUse">
<stop stop-color="#F1CB3C"/>
<stop offset="1" stop-color="#FFC14F"/>
</linearGradient>
<linearGradient id="paint10_linear_7207_72752" x1="262.813" y1="254.238" x2="209.919" y2="345.852" gradientUnits="userSpaceOnUse">
<stop stop-color="#C10065"/>
<stop offset="1" stop-color="white"/>
</linearGradient>
</defs>
</svg>
