<svg width="276" height="282" viewBox="0 0 276 282" fill="none" xmlns="http://www.w3.org/2000/svg">
<path d="M202.078 54.8076L104.611 43.5694L34.858 137.561L73.8509 227.592L171.318 238.83L241.071 144.839L202.078 54.8076Z" fill="url(#paint0_linear_6540_48756)"/>
<path d="M52.4964 139.589L111.677 59.8437L191.509 69.0548L223.453 142.795L164.273 222.54L84.4271 213.347L52.4964 139.589Z" fill="url(#paint1_linear_6540_48756)"/>
<path d="M58.3657 140.272L114.013 65.2872L187.985 73.7986L217.58 142.146L161.932 217.13L87.9556 208.588L58.3657 140.272Z" fill="#736FA8"/>
<g style="mix-blend-mode:soft-light" opacity="0.5">
<path d="M106.134 45.0874C103.423 46.9758 108.356 55.4565 114.289 58.1603C120.222 60.864 189.155 68.2824 192.189 66.6339C195.147 63.3822 197.773 59.8436 200.029 56.0707C198.34 54.8175 107.467 44.1545 106.134 45.0874Z" fill="white"/>
</g>
<g style="mix-blend-mode:soft-light" opacity="0.5">
<path d="M238.926 143.637C237.904 146.779 228.34 144.5 224.051 139.618C219.762 134.736 193.238 70.9238 193.301 67.4603C193.323 65.666 200.026 56.0705 201.14 56.8971C202.829 58.1503 239.361 142.037 238.926 143.637Z" fill="white"/>
</g>
<path style="mix-blend-mode:multiply" opacity="0.5" d="M66.3269 98.4273C63.7667 100.901 36.2556 135.645 37.6232 137.105C38.9908 138.566 50.1652 138.975 52.3515 136.892C54.5378 134.809 72.7284 110.56 73.9226 107.825C75.1168 105.09 70.6196 94.3697 66.3269 98.4273Z" fill="url(#paint2_linear_6540_48756)"/>
<path style="mix-blend-mode:multiply" opacity="0.5" d="M199.265 197.082C197.639 200.249 172.356 236.646 170.562 235.76C168.767 234.874 165.139 224.298 166.517 221.615C167.895 218.932 185.798 194.47 188.088 192.548C190.378 190.626 202.031 191.891 199.265 197.082Z" fill="url(#paint3_linear_6540_48756)"/>
<path style="mix-blend-mode:multiply" opacity="0.5" d="M38.7009 139.407C38.6341 141.224 73.1208 223.175 74.037 223.855C74.5041 224.202 81.7988 215.686 82.5854 214.626C84.6652 211.823 51.7464 142.625 50.9943 141.649C49.8683 140.201 38.7765 137.541 38.7009 139.407Z" fill="url(#paint4_linear_6540_48756)"/>
<path style="mix-blend-mode:multiply" opacity="0.5" d="M167.861 236.736C166.141 237.327 76.6572 227.082 75.741 226.402C78.3885 222.341 81.3474 218.492 84.5911 214.889C88.0516 214.393 161.403 224.004 162.483 224.388C164.178 225.032 169.625 236.123 167.861 236.736Z" fill="url(#paint5_linear_6540_48756)"/>
<path style="mix-blend-mode:multiply" opacity="0.5" d="M62.2178 140.035C74.05 116.583 76.968 116.743 109.267 127.09C141.565 137.436 201.951 147.175 198.471 159.86C194.992 172.544 162.657 213.375 160.128 214.98C157.599 216.586 93.3551 209.081 89.5831 206.393C85.811 203.706 60.8979 142.677 62.2178 140.035Z" fill="url(#paint6_linear_6540_48756)"/>
<g style="mix-blend-mode:soft-light" opacity="0.3">
<path d="M216.065 141.826C215.34 140.926 188.607 79.1593 185.855 77.4238C183.104 75.6883 139.282 66.7915 117.353 68.3746C111.48 68.7802 78.7597 115.649 82.6918 117.257C86.6239 118.866 102.808 102.126 146.757 118.584C190.03 134.79 198.947 155.17 201.654 159.631C202.385 160.898 217.789 143.858 216.065 141.826Z" fill="white"/>
</g>
<path style="mix-blend-mode:multiply" opacity="0.5" d="M52.4939 139.589L111.674 59.8433L191.56 68.9825L223.451 142.795L164.27 222.54L161.863 217.187C161.863 217.187 213.549 148.066 213.671 144.786C214.041 133.026 186.721 83.4993 178.424 80.6017C170.128 77.7041 121.557 65.8962 112.564 69.4183C109.541 70.6014 58.3143 140.342 58.3143 140.342L52.4939 139.589Z" fill="url(#paint7_linear_6540_48756)"/>
<g style="mix-blend-mode:soft-light" opacity="0.2">
<path d="M169.873 120.056C179.089 136.729 199.974 152.396 202.789 152.618C205.605 152.841 213.52 144.841 211.621 141.093C209.723 137.344 195.233 106.867 187.95 103.579C180.668 100.292 168.287 117.012 169.873 120.056Z" fill="white"/>
</g>
<path d="M83.3604 72.2054C83.5203 71.9899 103.631 46.1295 106.221 45.1544C108.811 44.1793 198.899 56.0141 201.14 56.8977C203.382 57.7812 217.063 89.3855 217.063 89.3855L202.078 54.8079L104.576 43.5431L83.3604 72.2054Z" fill="url(#paint8_linear_6540_48756)"/>
<path d="M205.473 101.287C205.473 101.287 222.786 140.573 221.772 142.802C220.759 145.031 183.174 197.065 183.174 197.065C183.174 197.065 222.125 145.181 223.45 142.794C224.776 140.407 205.473 101.287 205.473 101.287Z" fill="white"/>
<path d="M79.2396 103.552C79.2396 103.552 110.23 59.6902 111.76 58.6802C113.289 57.6702 191.509 69.0551 191.509 69.0551C191.509 69.0551 114.724 59.9046 112.103 60.9962C109.482 62.0878 79.2396 103.552 79.2396 103.552Z" fill="white"/>
<path style="mix-blend-mode:multiply" d="M34.8608 137.561L73.8897 227.619L171.392 238.884L187.284 217.47C187.284 217.47 172.777 235.705 169.696 236.928C166.615 238.152 79.0215 228.475 75.7403 226.402C72.4591 224.329 37.5936 140.899 37.6236 137.104C37.6536 133.31 70.3319 89.6141 70.3319 89.6141L34.8608 137.561Z" fill="url(#paint9_linear_6540_48756)"/>
<path d="M67.6404 119.181C67.6404 119.181 53.7909 137.43 53.6683 139.735C53.5457 142.04 68.6848 177.01 68.6848 177.01C68.6848 177.01 50.9669 140.822 51.4219 139.684C51.877 138.545 67.6404 119.181 67.6404 119.181Z" fill="white"/>
<g style="mix-blend-mode:soft-light" opacity="0.5">
<path d="M63.1395 173.48C61.1274 171.987 53.8067 170.064 54.0237 172.287C54.2408 174.51 72.841 219.682 75.6189 223.972C76.5118 225.359 82.3367 217.285 82.5679 213.445C82.6758 211.798 69.3865 178.088 63.1395 173.48Z" fill="white"/>
</g>
<path d="M214.598 88.1678C212.625 87.3724 212.985 98.3371 215.137 100.881C217.288 103.425 222.237 104.228 221.93 102.05C221.624 99.8728 217.651 89.347 214.598 88.1678Z" fill="white"/>
<path d="M221.656 103.994C218.684 102.819 215.186 117.105 215.704 120.499C216.222 123.892 231.07 140.26 233.048 136.769C235.026 133.278 225.835 105.647 221.656 103.994Z" fill="white"/>
<path style="mix-blend-mode:multiply" opacity="0.5" d="M127.283 221.362C121.051 226.682 118.471 230.646 119.271 231.295C120.071 231.945 163.229 236.142 164.624 235.952C166.019 235.761 164.258 226.459 161.597 225.014C158.937 223.569 129.609 219.355 127.283 221.362Z" fill="url(#paint10_linear_6540_48756)"/>
<path style="mix-blend-mode:multiply" opacity="0.5" d="M113.907 64.3417C114.788 61.6526 112.565 60.0308 110.581 62.2914C108.597 64.552 75.0992 108.977 75.9261 109.702C76.7531 110.427 80.2838 109.649 81.0438 108.625C81.8037 107.601 113.493 65.6503 113.907 64.3417Z" fill="url(#paint11_linear_6540_48756)"/>
<path style="mix-blend-mode:multiply" opacity="0.5" d="M218.265 142.236C217.512 142.987 185.711 184.938 186.268 185.351C186.825 185.765 190.753 185.615 191.526 184.573C192.299 183.531 221.254 143.201 221.131 142.803C221.008 142.406 218.875 141.602 218.265 142.236Z" fill="url(#paint12_linear_6540_48756)"/>
<path style="mix-blend-mode:multiply" opacity="0.5" d="M188.495 73.1133C187.882 73.9396 153.659 69.8265 153.085 69.3999C152.51 68.9733 155.472 65.4325 156.631 65.4848C157.79 65.5371 191.39 68.7988 191.241 69.4125C190.417 70.7112 189.499 71.9481 188.495 73.1133Z" fill="url(#paint13_linear_6540_48756)"/>
<path d="M155.631 221.117C154.086 219.971 146.725 219.077 146.009 220.83C145.294 222.583 147.323 226.569 148.776 226.338C150.229 226.107 156.61 221.9 155.631 221.117Z" fill="#394773"/>
<path d="M156.85 223.605C155.951 223.69 153.508 224.58 153.977 226.237C154.447 227.895 159.333 228.067 159.342 227.042C159.35 226.018 157.999 223.483 156.85 223.605Z" fill="#394773"/>
<path style="mix-blend-mode:multiply" opacity="0.5" d="M147.879 219.929C145.27 220.779 149.716 225.75 151.479 224.801C153.241 223.853 156.635 221.607 155.635 221.116C153.147 220.237 150.516 219.835 147.879 219.929Z" fill="url(#paint14_linear_6540_48756)"/>
<path d="M146.355 220.446C145.959 221.714 146.031 223.082 146.558 224.301C147.246 225.927 148.426 226.551 149.145 226.221C148.572 226.355 147.97 226.291 147.439 226.038C146.908 225.786 146.478 225.36 146.22 224.831C144.648 221.882 146.355 220.446 146.355 220.446Z" fill="#DAE1EF"/>
<path style="mix-blend-mode:multiply" opacity="0.5" d="M157.384 224.089C155.251 224.485 154.808 226.997 155.539 227.4C156.27 227.804 159.251 227.954 159.34 227.046C159.43 226.137 157.866 224.002 157.384 224.089Z" fill="url(#paint15_linear_6540_48756)"/>
<path d="M156.846 223.608C156.846 223.608 154.63 224.304 154.422 225.486C154.213 226.669 154.855 227.117 154.855 227.117C154.855 227.117 152.841 226.904 153.291 225.734C154.068 223.748 156.846 223.608 156.846 223.608Z" fill="#DAE1EF"/>
<path d="M181.817 67.4342C178.854 63.7311 174.117 63.9206 171.153 64.5352C168.19 65.1497 168.28 66.9435 170.558 68.0774C172.837 69.2112 183.055 68.994 181.817 67.4342Z" fill="#394773"/>
<path style="mix-blend-mode:multiply" opacity="0.5" d="M181.816 67.4347C180.829 66.3474 179.612 65.4931 178.255 64.9335C176.897 64.374 175.432 64.1232 173.965 64.1992C172.324 64.3462 172.424 68.2652 174.14 68.7308C175.856 69.1964 182.655 68.6698 181.816 67.4347Z" fill="url(#paint16_linear_6540_48756)"/>
<path d="M172.777 64.2954C172.777 64.2954 166.614 63.9284 166.171 65.689C165.728 67.4496 172.387 68.5748 172.387 68.5748C172.387 68.5748 169.174 67.4993 169.434 65.9096C169.695 64.3199 172.777 64.2954 172.777 64.2954Z" fill="white"/>
<path d="M54.4513 141.907C52.1331 140.938 54.976 149.233 56.1947 150.444C57.4134 151.654 58.6345 147.156 58.4277 146.083C57.4901 144.367 56.119 142.927 54.4513 141.907Z" fill="white"/>
<path d="M105.063 185.425L65.1133 92.0653C60.604 94.677 56.4692 97.8872 52.8215 101.609L51.6611 112.782L91.0375 204.324L190.061 215.492L199.988 210.824C202.927 206.602 205.099 201.896 206.406 196.921L105.063 185.425Z" fill="url(#paint17_linear_6540_48756)"/>
<path d="M51.6599 112.785L52.8203 101.611L94.5426 199.602L199.987 210.827L190.06 215.494L91.0363 204.327L51.6599 112.785Z" fill="url(#paint18_linear_6540_48756)"/>
<path style="mix-blend-mode:multiply" opacity="0.5" d="M52.8203 101.611L51.6599 112.785L52.2219 114.205L50.5021 116.522C50.5021 116.522 52.9611 121.468 57.5309 131.489C57.6937 131.833 58.6977 140.128 58.6977 140.128C58.6977 140.128 86.1607 207.255 87.9572 208.588C90.2926 210.322 162.614 216.215 162.614 216.215C162.614 216.215 168.858 215.834 169.395 215.899L186.317 218.623L188.744 215.353L190.06 215.494L199.987 210.827L94.5426 199.602L52.8203 101.611Z" fill="url(#paint19_linear_6540_48756)"/>
<path style="mix-blend-mode:multiply" opacity="0.5" d="M105.065 185.424L94.5456 199.598L199.99 210.823C202.855 206.56 205.022 201.866 206.407 196.92L105.065 185.424Z" fill="url(#paint20_linear_6540_48756)"/>
<g style="mix-blend-mode:soft-light" opacity="0.5">
<path d="M66.4367 97.8672C65.0894 96.8673 57.3328 109.609 59.389 115.397C62.6659 124.571 84.7066 176.782 87.2622 178.706C89.0587 180.039 96.4568 169.845 96.5045 168.655C96.6276 166.462 68.4308 99.347 66.4367 97.8672Z" fill="white"/>
</g>
<g style="mix-blend-mode:soft-light" opacity="0.5">
<path d="M135.958 189.329C134.443 189.569 126.289 200.819 127.998 201.557C144.107 204.596 160.416 206.457 176.796 207.127C192.944 207.215 201.923 198.194 199.396 196.681C199.378 196.556 139.034 188.826 135.958 189.329Z" fill="white"/>
</g>
<path d="M74.25 151.944C74.25 151.944 92.9759 197.21 95.1676 198.836C97.3593 200.463 136.385 204.073 136.385 204.073C136.385 204.073 94.7941 201.067 94.0216 200.493C93.2492 199.92 74.25 151.944 74.25 151.944Z" fill="white"/>
<path d="M122.594 161.803L82.6446 68.4433C78.1353 71.0549 74.0004 74.2652 70.3528 77.9865L69.1923 89.1603L108.569 180.702L207.592 191.87L217.52 187.202C220.458 182.98 222.63 178.274 223.937 173.299L122.594 161.803Z" fill="url(#paint21_linear_6540_48756)"/>
<path d="M69.1911 89.1591L70.3516 77.9854L112.074 175.976L217.518 187.201L207.591 191.868L108.554 180.719L69.1911 89.1591Z" fill="url(#paint22_linear_6540_48756)"/>
<path style="mix-blend-mode:multiply" opacity="0.5" d="M70.3506 77.9875L69.1902 89.1612L69.7522 90.5812L68.0324 92.8986C68.0324 92.8986 70.4914 97.8437 75.0612 107.865C75.224 108.209 76.2147 116.522 76.2147 116.522C76.2147 116.522 103.691 183.631 105.488 184.965C107.823 186.698 180.144 192.591 180.144 192.591C180.144 192.591 186.388 192.211 186.925 192.275L203.888 194.945L206.314 191.676L207.63 191.817L217.557 187.149L112.073 175.978L70.3506 77.9875Z" fill="url(#paint23_linear_6540_48756)"/>
<path style="mix-blend-mode:multiply" opacity="0.5" d="M122.592 161.804L112.073 175.978L217.517 187.203C220.383 182.939 222.549 178.246 223.935 173.3L122.592 161.804Z" fill="url(#paint24_linear_6540_48756)"/>
<g style="mix-blend-mode:soft-light" opacity="0.5">
<path d="M83.968 74.2432C82.6206 73.2433 74.8641 85.9851 76.9202 91.7734C80.2371 100.893 102.238 153.158 104.793 155.082C106.59 156.415 113.988 146.221 114.036 145.031C114.186 142.802 85.9621 75.723 83.968 74.2432Z" fill="white"/>
</g>
<g style="mix-blend-mode:soft-light" opacity="0.5">
<path d="M153.489 165.705C151.974 165.945 143.82 177.195 145.529 177.933C161.638 180.972 177.947 182.833 194.327 183.503C210.475 183.591 219.454 174.57 216.927 173.057C216.909 172.932 156.565 165.202 153.489 165.705Z" fill="white"/>
</g>
<path d="M91.7812 128.32C91.7812 128.32 110.547 173.532 112.703 175.132C114.859 176.732 153.92 180.368 153.92 180.368C153.92 180.368 112.329 177.362 111.557 176.789C110.784 176.215 91.7812 128.32 91.7812 128.32Z" fill="white"/>
<path style="mix-blend-mode:multiply" opacity="0.5" d="M144.464 132.708L123.414 129.428L138.812 114.723L135.43 93.7157L154.18 103.813L173.115 94.1021L169.306 115.039L184.384 130.045L163.298 132.895L153.685 151.892L144.464 132.708Z" fill="url(#paint25_linear_6540_48756)"/>
<path d="M182.198 129.311L174.904 122.059L172.916 120.082L168.19 115.377L171.729 95.9675L154.159 104.965L136.765 95.5941L139.906 115.086L125.631 128.729L145.145 131.789L153.71 149.567L162.632 131.951L182.198 129.311Z" fill="url(#paint26_linear_6540_48756)"/>
<path style="mix-blend-mode:multiply" opacity="0.5" d="M136.695 95.542L155.323 118.754L139.837 115.034L136.695 95.542Z" fill="url(#paint27_linear_6540_48756)"/>
<path style="mix-blend-mode:multiply" opacity="0.5" d="M182.107 129.244L155.32 118.753L162.541 131.885L182.107 129.244Z" fill="url(#paint28_linear_6540_48756)"/>
<path style="mix-blend-mode:multiply" opacity="0.5" d="M145.053 131.723L155.319 118.754L125.557 128.677L145.053 131.723Z" fill="url(#paint29_linear_6540_48756)"/>
<path style="mix-blend-mode:multiply" opacity="0.5" d="M153.618 149.502L155.319 118.755L145.054 131.724L153.618 149.502Z" fill="url(#paint30_linear_6540_48756)"/>
<path style="mix-blend-mode:color-dodge" opacity="0.5" d="M171.641 95.9014L155.322 118.754L168.119 115.324L171.641 95.9014Z" fill="url(#paint31_linear_6540_48756)"/>
<path style="mix-blend-mode:color-dodge" opacity="0.5" d="M182.109 129.244L155.322 118.754L168.119 115.324L182.109 129.244Z" fill="url(#paint32_linear_6540_48756)"/>
<path style="mix-blend-mode:color-dodge" opacity="0.5" d="M182.109 129.244L155.322 118.754L168.119 115.324L182.109 129.244Z" fill="url(#paint33_linear_6540_48756)"/>
<path style="mix-blend-mode:color-dodge" opacity="0.5" d="M154.07 104.9L155.321 118.755L136.694 95.5423L154.07 104.9Z" fill="url(#paint34_linear_6540_48756)"/>
<g style="mix-blend-mode:color-dodge" opacity="0.8">
<path d="M164.366 120.23C162.478 120.333 162.987 121.713 162.987 121.713L170.205 124.563C169.821 123.312 169.048 122.217 167.997 121.437C166.947 120.658 165.674 120.234 164.366 120.23Z" fill="white"/>
</g>
<path style="mix-blend-mode:multiply" opacity="0.5" d="M125.628 128.733C125.628 128.733 140 131.626 144.436 132.745L153.724 149.584L145.16 131.806L125.628 128.733Z" fill="url(#paint35_linear_6540_48756)"/>
<path style="mix-blend-mode:multiply" opacity="0.5" d="M136.695 95.542L155.323 118.754L134.529 120.233L136.695 95.542Z" fill="url(#paint36_linear_6540_48756)"/>
<path style="mix-blend-mode:multiply" opacity="0.5" d="M182.107 129.244L155.32 118.753L158.435 140.232L182.107 129.244Z" fill="url(#paint37_linear_6540_48756)"/>
<path style="mix-blend-mode:multiply" opacity="0.5" d="M125.631 128.73L155.321 118.754L153.71 149.568L141.319 136.946L125.631 128.73Z" fill="url(#paint38_linear_6540_48756)"/>
<g style="mix-blend-mode:soft-light" opacity="0.4">
<path d="M157.782 103.84C153.211 106.883 156.742 113.988 158.461 113.286C160.18 112.584 164.956 105.096 164.711 103.438C164.465 101.779 159.646 102.604 157.782 103.84Z" fill="#F7FFFF"/>
</g>
<g style="mix-blend-mode:soft-light" opacity="0.4">
<path d="M137.382 121.603C140.094 124.256 144.342 122.06 146.771 120.213C150.599 117.12 132.445 116.769 137.382 121.603Z" fill="#F7FFFF"/>
</g>
<defs>
<linearGradient id="paint0_linear_6540_48756" x1="71.6512" y1="230.556" x2="181.6" y2="82.4013" gradientUnits="userSpaceOnUse">
<stop offset="0.21" stop-color="#98ABD2"/>
<stop offset="0.49" stop-color="#72719D"/>
<stop offset="1" stop-color="#DAE1EF"/>
</linearGradient>
<linearGradient id="paint1_linear_6540_48756" x1="184.883" y1="77.9832" x2="84.7204" y2="212.952" gradientUnits="userSpaceOnUse">
<stop offset="0.21" stop-color="#98ABD2"/>
<stop offset="0.49" stop-color="#72719D"/>
<stop offset="1" stop-color="#DAE1EF"/>
</linearGradient>
<linearGradient id="paint2_linear_6540_48756" x1="29.0496" y1="158.156" x2="89.67" y2="76.47" gradientUnits="userSpaceOnUse">
<stop stop-color="#705AB8"/>
<stop offset="1" stop-color="white"/>
</linearGradient>
<linearGradient id="paint3_linear_6540_48756" x1="153.042" y1="250.171" x2="213.662" y2="168.486" gradientUnits="userSpaceOnUse">
<stop stop-color="#705AB8"/>
<stop offset="1" stop-color="white"/>
</linearGradient>
<linearGradient id="paint4_linear_6540_48756" x1="64.1247" y1="136.907" x2="57.3879" y2="214.982" gradientUnits="userSpaceOnUse">
<stop stop-color="#705AB8"/>
<stop offset="1" stop-color="white"/>
</linearGradient>
<linearGradient id="paint5_linear_6540_48756" x1="132.677" y1="198.256" x2="104.271" y2="285.935" gradientUnits="userSpaceOnUse">
<stop stop-color="#705AB8"/>
<stop offset="1" stop-color="white"/>
</linearGradient>
<linearGradient id="paint6_linear_6540_48756" x1="80.9382" y1="217.78" x2="164.743" y2="104.853" gradientUnits="userSpaceOnUse">
<stop stop-color="#705AB8"/>
<stop offset="1" stop-color="white"/>
</linearGradient>
<linearGradient id="paint7_linear_6540_48756" x1="94.0495" y1="83.5926" x2="205.826" y2="166.544" gradientUnits="userSpaceOnUse">
<stop stop-color="#8980EB"/>
<stop offset="1" stop-color="#705AB8"/>
</linearGradient>
<linearGradient id="paint8_linear_6540_48756" x1="108.611" y1="38.1803" x2="203.051" y2="108.266" gradientUnits="userSpaceOnUse">
<stop stop-color="#728EE3"/>
<stop offset="1" stop-color="#836888"/>
</linearGradient>
<linearGradient id="paint9_linear_6540_48756" x1="38.0204" y1="133.304" x2="174.48" y2="234.573" gradientUnits="userSpaceOnUse">
<stop stop-color="#728EE3"/>
<stop offset="1" stop-color="#836888"/>
</linearGradient>
<linearGradient id="paint10_linear_6540_48756" x1="127.632" y1="218.64" x2="159.843" y2="242.544" gradientUnits="userSpaceOnUse">
<stop stop-color="#8980EB"/>
<stop offset="1" stop-color="#705AB8"/>
</linearGradient>
<linearGradient id="paint11_linear_6540_48756" x1="93.554" y1="84.7849" x2="97.0931" y2="87.4113" gradientUnits="userSpaceOnUse">
<stop stop-color="#8980EB"/>
<stop offset="1" stop-color="#705AB8"/>
</linearGradient>
<linearGradient id="paint12_linear_6540_48756" x1="202.45" y1="162.983" x2="205.738" y2="165.423" gradientUnits="userSpaceOnUse">
<stop stop-color="#8980EB"/>
<stop offset="1" stop-color="#705AB8"/>
</linearGradient>
<linearGradient id="paint13_linear_6540_48756" x1="159.534" y1="60.0339" x2="184.541" y2="78.5919" gradientUnits="userSpaceOnUse">
<stop stop-color="#8980EB"/>
<stop offset="1" stop-color="#705AB8"/>
</linearGradient>
<linearGradient id="paint14_linear_6540_48756" x1="148.563" y1="166.203" x2="147.849" y2="170.993" gradientUnits="userSpaceOnUse">
<stop stop-color="#8980EB"/>
<stop offset="1" stop-color="#705AB8"/>
</linearGradient>
<linearGradient id="paint15_linear_6540_48756" x1="154.648" y1="170.181" x2="154.108" y2="173.801" gradientUnits="userSpaceOnUse">
<stop stop-color="#8980EB"/>
<stop offset="1" stop-color="#705AB8"/>
</linearGradient>
<linearGradient id="paint16_linear_6540_48756" x1="178.145" y1="64.2732" x2="177.382" y2="68.8861" gradientUnits="userSpaceOnUse">
<stop stop-color="#8980EB"/>
<stop offset="1" stop-color="#705AB8"/>
</linearGradient>
<linearGradient id="paint17_linear_6540_48756" x1="171.534" y1="95.4058" x2="91.8352" y2="202.799" gradientUnits="userSpaceOnUse">
<stop offset="0.21" stop-color="#98ABD2"/>
<stop offset="0.49" stop-color="#72719D"/>
<stop offset="1" stop-color="#DAE1EF"/>
</linearGradient>
<linearGradient id="paint18_linear_6540_48756" x1="35.0222" y1="125.594" x2="182.189" y2="234.809" gradientUnits="userSpaceOnUse">
<stop offset="0.21" stop-color="#98ABD2"/>
<stop offset="0.49" stop-color="#72719D"/>
<stop offset="1" stop-color="#DAE1EF"/>
</linearGradient>
<linearGradient id="paint19_linear_6540_48756" x1="87.0211" y1="209.287" x2="120.231" y2="164.537" gradientUnits="userSpaceOnUse">
<stop stop-color="#8980EB"/>
<stop offset="1" stop-color="#705AB8"/>
</linearGradient>
<linearGradient id="paint20_linear_6540_48756" x1="82.8958" y1="192.986" x2="119.42" y2="133.799" gradientUnits="userSpaceOnUse">
<stop stop-color="#705AB8"/>
<stop offset="1" stop-color="white"/>
</linearGradient>
<linearGradient id="paint21_linear_6540_48756" x1="189.065" y1="71.7837" x2="109.366" y2="179.177" gradientUnits="userSpaceOnUse">
<stop offset="0.21" stop-color="#98ABD2"/>
<stop offset="0.49" stop-color="#72719D"/>
<stop offset="1" stop-color="#DAE1EF"/>
</linearGradient>
<linearGradient id="paint22_linear_6540_48756" x1="52.5534" y1="101.968" x2="199.72" y2="211.184" gradientUnits="userSpaceOnUse">
<stop offset="0.21" stop-color="#98ABD2"/>
<stop offset="0.49" stop-color="#72719D"/>
<stop offset="1" stop-color="#DAE1EF"/>
</linearGradient>
<linearGradient id="paint23_linear_6540_48756" x1="104.551" y1="185.663" x2="137.761" y2="140.913" gradientUnits="userSpaceOnUse">
<stop stop-color="#8980EB"/>
<stop offset="1" stop-color="#705AB8"/>
</linearGradient>
<linearGradient id="paint24_linear_6540_48756" x1="100.423" y1="169.366" x2="136.948" y2="110.179" gradientUnits="userSpaceOnUse">
<stop stop-color="#705AB8"/>
<stop offset="1" stop-color="white"/>
</linearGradient>
<linearGradient id="paint25_linear_6540_48756" x1="131.351" y1="99.2129" x2="180.304" y2="135.542" gradientUnits="userSpaceOnUse">
<stop stop-color="#8980EB"/>
<stop offset="1" stop-color="#705AB8"/>
</linearGradient>
<linearGradient id="paint26_linear_6540_48756" x1="139.066" y1="139.981" x2="177.169" y2="88.6379" gradientUnits="userSpaceOnUse">
<stop stop-color="#86759D"/>
<stop offset="0.39" stop-color="#98ABD2"/>
<stop offset="1" stop-color="#DAE1EF"/>
</linearGradient>
<linearGradient id="paint27_linear_6540_48756" x1="132.589" y1="101.075" x2="155.71" y2="118.233" gradientUnits="userSpaceOnUse">
<stop stop-color="#705AB8"/>
<stop offset="1" stop-color="white"/>
</linearGradient>
<linearGradient id="paint28_linear_6540_48756" x1="155.706" y1="118.232" x2="178" y2="134.777" gradientUnits="userSpaceOnUse">
<stop stop-color="#705AB8"/>
<stop offset="1" stop-color="white"/>
</linearGradient>
<linearGradient id="paint29_linear_6540_48756" x1="133.222" y1="118.347" x2="147.666" y2="129.066" gradientUnits="userSpaceOnUse">
<stop stop-color="#705AB8"/>
<stop offset="1" stop-color="white"/>
</linearGradient>
<linearGradient id="paint30_linear_6540_48756" x1="147.254" y1="128.76" x2="161.284" y2="139.172" gradientUnits="userSpaceOnUse">
<stop stop-color="#705AB8"/>
<stop offset="1" stop-color="white"/>
</linearGradient>
<linearGradient id="paint31_linear_6540_48756" x1="171.218" y1="100.825" x2="152.978" y2="131.974" gradientUnits="userSpaceOnUse">
<stop stop-color="#BFD7FF"/>
<stop offset="1"/>
</linearGradient>
<linearGradient id="paint32_linear_6540_48756" x1="158.415" y1="114.586" x2="180.709" y2="131.131" gradientUnits="userSpaceOnUse">
<stop stop-color="#BFD7FF"/>
<stop offset="1"/>
</linearGradient>
<linearGradient id="paint33_linear_6540_48756" x1="179.466" y1="105.665" x2="161.207" y2="136.8" gradientUnits="userSpaceOnUse">
<stop stop-color="#BFD7FF"/>
<stop offset="1"/>
</linearGradient>
<linearGradient id="paint34_linear_6540_48756" x1="155.196" y1="91.4441" x2="136.956" y2="122.593" gradientUnits="userSpaceOnUse">
<stop stop-color="#BFD7FF"/>
<stop offset="1"/>
</linearGradient>
<linearGradient id="paint35_linear_6540_48756" x1="128.361" y1="125.05" x2="156.44" y2="145.888" gradientUnits="userSpaceOnUse">
<stop stop-color="#8980EB"/>
<stop offset="1" stop-color="#705AB8"/>
</linearGradient>
<linearGradient id="paint36_linear_6540_48756" x1="130.403" y1="104.021" x2="153.523" y2="121.18" gradientUnits="userSpaceOnUse">
<stop stop-color="#8980EB"/>
<stop offset="1" stop-color="#705AB8"/>
</linearGradient>
<linearGradient id="paint37_linear_6540_48756" x1="152.973" y1="121.915" x2="175.267" y2="138.46" gradientUnits="userSpaceOnUse">
<stop stop-color="#8980EB"/>
<stop offset="1" stop-color="#705AB8"/>
</linearGradient>
<linearGradient id="paint38_linear_6540_48756" x1="133.297" y1="118.401" x2="161.375" y2="139.238" gradientUnits="userSpaceOnUse">
<stop stop-color="#8980EB"/>
<stop offset="1" stop-color="#705AB8"/>
</linearGradient>
</defs>
</svg>
