<svg width="408" height="403" viewBox="0 0 408 403" fill="none" xmlns="http://www.w3.org/2000/svg">
<path d="M136.043 266.398L171.918 328.535L190.758 294.559L167.243 250.488L136.043 266.398Z" fill="url(#paint0_linear_6540_48942)"/>
<path d="M165.244 316.979L185.635 285.174L188.518 290.682L169.678 324.658L165.244 316.979Z" fill="url(#paint1_linear_6540_48942)"/>
<path style="mix-blend-mode:multiply" opacity="0.8" d="M152.646 293.487C150.479 285.835 156.543 288.542 161.994 297.983C167.444 307.424 174.878 323.04 174.878 323.04L176.404 319.686C176.404 319.686 162.037 295.188 161.603 291.481C161.17 287.774 168.704 284.76 182.689 308.984L190.703 294.465L167.188 250.394L135.988 266.305L155.725 300.489L152.646 293.487Z" fill="url(#paint2_linear_6540_48942)"/>
<path d="M294.168 175.105L330.043 237.242L291.198 236.57L264.789 194.169L294.168 175.105Z" fill="url(#paint3_linear_6540_48942)"/>
<path d="M323.369 225.687L285.648 227.433L288.958 232.694L327.803 233.366L323.369 225.687Z" fill="url(#paint4_linear_6540_48942)"/>
<path style="mix-blend-mode:multiply" opacity="0.8" d="M309.343 203.018C303.782 197.326 303.094 203.931 308.545 213.372C313.996 222.813 323.803 237.059 323.803 237.059L320.136 236.703C320.136 236.703 306.103 212.012 303.109 209.783C300.116 207.554 293.757 212.561 307.743 236.785L291.144 236.476L264.734 194.076L294.114 175.011L313.85 209.196L309.343 203.018Z" fill="url(#paint5_linear_6540_48942)"/>
<path d="M233.658 270.261L268.815 331.155C244.772 332.003 200.786 319.684 200.786 319.684L176.477 277.579L233.658 270.261Z" fill="url(#paint6_linear_6540_48942)"/>
<path d="M259.501 315.016L266.579 327.277C242.568 328.181 198.549 315.806 198.549 315.806L192.488 305.308C203.514 309.799 225.073 315.826 259.501 315.016Z" fill="url(#paint7_linear_6540_48942)"/>
<path d="M249.353 261.201L284.51 322.095C297.299 301.753 308.665 257.401 308.665 257.401L284.356 215.297L249.353 261.201Z" fill="url(#paint8_linear_6540_48942)"/>
<path d="M275.192 305.957L282.27 318.217C295.059 297.875 306.425 253.524 306.425 253.524L300.364 243.025C298.666 254.863 293.107 276.546 275.192 305.957Z" fill="url(#paint9_linear_6540_48942)"/>
<path style="mix-blend-mode:multiply" opacity="0.8" d="M207.488 321.527C207.488 321.527 190.924 293.821 195.579 291.776C200.235 289.731 210.288 289.837 214.844 293.959C219.4 298.08 235.931 327.784 235.931 327.784L238.374 328.203C238.374 328.203 215.698 293.639 220.109 293.441C223.341 293.211 226.579 293.772 229.544 295.078C232.508 296.383 235.109 298.392 237.121 300.931C243.302 307.997 257.173 330.951 257.173 330.951L268.805 331.136L233.658 270.261L176.477 277.579L200.786 319.684L207.488 321.527Z" fill="url(#paint10_linear_6540_48942)"/>
<path style="mix-blend-mode:multiply" opacity="0.8" d="M306.817 264.181C306.817 264.181 288.276 231.211 284.177 234.22C280.078 237.23 289.485 253.908 292.409 258.972C295.332 264.036 302.624 278.25 302.624 278.25L301.474 281.956C301.474 281.956 280.323 244.508 277.936 248.211C275.548 251.914 267.256 272.035 270.303 280.91C273.35 289.785 288.596 314.864 288.596 314.864L284.542 322.151L249.353 261.201L284.356 215.297L308.665 257.401L306.817 264.181Z" fill="url(#paint11_linear_6540_48942)"/>
<path d="M206.554 162.229L307.509 103.078L307.858 125.529L222.582 177.954L206.554 162.229Z" fill="url(#paint12_linear_6540_48942)"/>
<path d="M298.454 109.304L286.756 116.157L286.748 139.359L298.611 132.065L298.454 109.304Z" fill="url(#paint13_linear_6540_48942)"/>
<g style="mix-blend-mode:multiply" opacity="0.5">
<path d="M218.762 173.089L307.744 118.945L307.861 125.53L222.585 177.955L218.762 173.089Z" fill="#DE5634"/>
</g>
<g style="mix-blend-mode:soft-light" opacity="0.4">
<path d="M264.489 130.916C264.21 132.189 272.842 139.002 274.139 137.907C275.436 136.812 304.987 120.444 305.779 118.775C306.571 117.105 307.163 106.822 305.581 106.523C303.999 106.225 264.77 129.69 264.489 130.916Z" fill="#FFDF66"/>
</g>
<g style="mix-blend-mode:multiply" opacity="0.5">
<path d="M261.782 129.771C261.782 129.771 271.468 137.979 272.923 140.156C273.884 141.99 274.413 144.019 274.469 146.089L222.59 177.97L206.562 162.246L261.782 129.771Z" fill="#DE5634"/>
</g>
<path d="M169.344 183.711L67.6406 241.564L86.9095 253.093L174.948 205.454L169.344 183.711Z" fill="url(#paint14_linear_6540_48942)"/>
<path d="M76.5117 237.539L88.2956 230.835L108.394 242.429L96.1445 249.056L76.5117 237.539Z" fill="url(#paint15_linear_6540_48942)"/>
<g style="mix-blend-mode:multiply" opacity="0.5">
<path d="M172.647 199.711L81.2656 249.7L86.91 253.094L174.949 205.455L172.647 199.711Z" fill="#DE5634"/>
</g>
<g style="mix-blend-mode:soft-light" opacity="0.4">
<path d="M111.458 218.778C115.328 219.784 115.546 230.441 113.938 230.998C112.331 231.555 83.0781 248.568 81.2365 248.419C79.3948 248.27 70.1931 243.641 70.7256 242.122C71.2581 240.603 109.273 218.333 111.458 218.778Z" fill="#FFDF66"/>
</g>
<g style="mix-blend-mode:multiply" opacity="0.5">
<path d="M113.712 215.259C113.712 215.259 115.867 227.815 116.97 230.196C118.077 231.945 119.57 233.418 121.335 234.501L174.884 205.514L169.288 183.741L113.712 215.259Z" fill="#DE5634"/>
</g>
<path d="M205.144 134.834L306.08 75.6929L306.44 98.1632L221.164 150.588L205.144 134.834Z" fill="url(#paint16_linear_6540_48942)"/>
<path d="M297.681 80.591L285.983 87.4438L285.974 110.646L297.838 103.352L297.681 80.591Z" fill="url(#paint17_linear_6540_48942)"/>
<g style="mix-blend-mode:multiply" opacity="0.5">
<path d="M217.353 145.694L306.346 91.5684L306.444 98.1642L221.168 150.589L217.353 145.694Z" fill="#DE5634"/>
</g>
<g style="mix-blend-mode:soft-light" opacity="0.4">
<path d="M263.082 102.523C262.804 103.797 271.436 110.61 272.714 109.525C273.993 108.441 303.58 92.0512 304.372 90.382C305.165 88.7128 305.756 78.4293 304.156 78.1415C302.555 77.8538 263.345 101.308 263.082 102.523Z" fill="#FFDF66"/>
</g>
<g style="mix-blend-mode:multiply" opacity="0.5">
<path d="M247.139 110.245C247.139 110.245 256.935 118.388 258.361 120.558C259.325 122.394 259.848 124.429 259.888 126.502L221.26 150.535L205.24 134.781L247.139 110.245Z" fill="#DE5634"/>
</g>
<path d="M144.829 168.659L43.125 226.512L62.4046 238.059L150.443 190.42L144.829 168.659Z" fill="url(#paint18_linear_6540_48942)"/>
<path d="M51.9062 222.591L63.6901 215.886L83.7882 227.48L71.539 234.107L51.9062 222.591Z" fill="url(#paint19_linear_6540_48942)"/>
<g style="mix-blend-mode:multiply" opacity="0.5">
<path d="M148.112 184.668L56.7422 234.676L62.4051 238.059L150.444 190.42L148.112 184.668Z" fill="#DE5634"/>
</g>
<g style="mix-blend-mode:soft-light" opacity="0.4">
<path d="M86.94 203.725C90.844 204.661 91.0273 215.387 89.4199 215.945C87.8125 216.502 58.5413 233.525 56.7182 233.366C54.895 233.207 45.6563 228.599 46.2073 227.069C46.7584 225.539 84.7008 203.187 86.94 203.725Z" fill="#FFDF66"/>
</g>
<g style="mix-blend-mode:multiply" opacity="0.5">
<path d="M103.095 192.409C103.898 197.431 105.007 202.399 106.416 207.285C107.53 209.006 109.017 210.455 110.768 211.524L150.468 190.334L144.854 168.572L103.095 192.409Z" fill="#DE5634"/>
</g>
<path d="M122.015 206.636L107.987 193.861L109.341 184.77L131.151 145.271L108.598 106.208L111.068 100.677L118.875 83.1858L157.352 149.83L122.015 206.636Z" fill="url(#paint20_linear_6540_48942)"/>
<path d="M107.986 193.861L136.544 144.803L111.067 100.676L108.597 106.208L131.15 145.27L109.34 184.769L107.986 193.861Z" fill="url(#paint21_linear_6540_48942)"/>
<g style="mix-blend-mode:soft-light" opacity="0.4">
<path d="M112.051 101.11C113.275 103.743 131.609 134.557 133.492 134.434C135.375 134.312 140.435 125.727 140.07 123.638C139.704 121.549 120.146 88.5723 119.145 89.3233C118.144 90.0742 111.193 99.2809 112.051 101.11Z" fill="#FFDF66"/>
</g>
<path style="mix-blend-mode:multiply" opacity="0.37" d="M138.091 144.653C136.066 149.928 110.121 192.63 110.391 194.255C110.748 196.373 120.433 201.54 122.441 199.491C124.448 197.441 154.797 145.79 154.213 144.52C153.628 143.251 149.876 136.538 148.536 136.743C147.195 136.949 138.871 142.62 138.091 144.653Z" fill="url(#paint22_linear_6540_48942)"/>
<path d="M108.76 195.196L137.715 144.771L111.773 99.2809L111.07 100.676L136.546 144.802L107.989 193.861L108.76 195.196Z" fill="#B33114"/>
<g style="mix-blend-mode:soft-light" opacity="0.4">
<path d="M131.869 145.447C129.48 147.049 110.048 184.755 110.38 185.33C110.712 185.905 107.197 192.41 108.471 191.576C109.745 190.741 136.04 146.031 135.646 145.22C135.252 144.409 133.151 144.583 131.869 145.447Z" fill="#FFDF66"/>
</g>
<g style="mix-blend-mode:soft-light" opacity="0.4">
<path d="M108.76 195.196C108.76 195.196 123.37 172.912 130.091 160.178C136.811 147.445 138.092 144.652 138.092 144.652L108.76 195.196Z" fill="#FFDF66"/>
</g>
<g style="mix-blend-mode:multiply" opacity="0.5">
<path d="M128.261 140.262L130.399 134.155L131.326 133.62L139.876 119.558L157.353 149.829L147.226 165.271L128.807 149.517L131.153 145.27L128.261 140.262Z" fill="#DE5634"/>
</g>
<path d="M250.073 133.701L246.024 115.166L237.474 111.793L192.361 110.931L169.809 71.8686L163.783 71.2419L144.473 69.4072L182.864 135.903L250.073 133.701Z" fill="url(#paint23_linear_6540_48942)"/>
<path d="M246.022 115.166L189.258 115.368L163.781 71.2422L169.806 71.8689L192.359 110.931L237.472 111.793L246.022 115.166Z" fill="url(#paint24_linear_6540_48942)"/>
<g style="mix-blend-mode:soft-light" opacity="0.4">
<path d="M162.096 72.2183C163.764 74.5938 182.321 105.279 181.292 106.838C180.263 108.397 169.477 108.392 167.861 107.049C166.246 105.707 147.932 72.5311 148.99 72.0934C150.048 71.6556 160.941 70.5604 162.096 72.2183Z" fill="#FFDF66"/>
</g>
<path style="mix-blend-mode:multiply" opacity="0.37" d="M188.356 116.632C193.876 117.625 243.872 116.409 245.162 117.445C246.818 118.814 246.45 129.784 243.672 130.498C240.893 131.211 180.969 131.68 180.18 130.528C179.391 129.376 175.435 122.781 176.283 121.723C177.131 120.665 186.205 116.291 188.356 116.632Z" fill="url(#paint25_linear_6540_48942)"/>
<path d="M246.794 116.501L188.647 116.364L162.223 71.1523L163.782 71.241L189.259 115.367L246.023 115.165L246.794 116.501Z" fill="#B33114"/>
<g style="mix-blend-mode:soft-light" opacity="0.4">
<path d="M192.151 111.643C194.733 110.375 237.104 112.399 237.436 112.974C237.768 113.549 245.159 113.758 243.799 114.444C242.439 115.13 190.572 115.547 190.067 114.8C189.561 114.053 190.762 112.321 192.151 111.643Z" fill="#FFDF66"/>
</g>
<g style="mix-blend-mode:soft-light" opacity="0.4">
<path d="M246.794 116.502C246.794 116.502 220.171 118.023 205.802 117.465C191.433 116.908 188.355 116.632 188.355 116.632L246.794 116.502Z" fill="#FFDF66"/>
</g>
<g style="mix-blend-mode:multiply" opacity="0.5">
<path d="M189.468 105.923L183.111 104.721L182.184 105.256L165.73 105.63L183.207 135.901L201.644 134.852L197.211 111.023L192.36 110.931L189.468 105.923Z" fill="#DE5634"/>
</g>
<path d="M157.713 274.165C157.889 274.855 127.76 280.626 127.76 280.626C115.85 274.731 104.633 267.529 94.3164 259.153L137.181 234.405L157.713 274.165Z" fill="url(#paint26_linear_6540_48942)"/>
<path d="M102.5 254.431C102.5 254.431 124.438 269.34 127.559 270.506L149.585 258.58L148.728 257.097C148.728 257.097 128.978 268.722 127.364 268.541C125.751 268.359 103.761 253.702 103.761 253.702L102.5 254.431Z" fill="#B33114"/>
<path d="M102.5 254.431L127.559 270.506C122.878 268.326 118.341 265.849 113.978 263.088C110.006 260.4 106.175 257.511 102.5 254.431Z" fill="white"/>
<g style="mix-blend-mode:soft-light" opacity="0.4">
<path d="M106.371 254.073C110.87 258.054 123.952 265.463 125.325 264.67C126.697 263.878 142.432 254.422 142.581 251.295C142.729 248.167 137.586 236.347 136.178 236.864C134.769 237.38 104.365 252.312 106.371 254.073Z" fill="#FFDF66"/>
</g>
<g style="mix-blend-mode:soft-light" opacity="0.4">
<path d="M96.2325 259.213C101.068 262.876 113.854 271.915 114.997 271.453C116.14 270.991 119.94 269.391 119.139 267.875C117.779 265.519 103.277 255.566 101.612 256.107C99.9456 256.649 95.0463 258.315 96.2325 259.213Z" fill="#FFDF66"/>
</g>
<path style="mix-blend-mode:multiply" opacity="0.37" d="M116.965 272.466C117.668 274.113 127.97 278.676 129.243 278.782C130.516 278.888 153.393 273.964 154.141 272.346C154.888 270.727 146.1 254.136 144.85 254.24C143.599 254.344 116.213 270.65 116.965 272.466Z" fill="url(#paint27_linear_6540_48942)"/>
<g style="mix-blend-mode:multiply" opacity="0.5">
<path d="M122.77 242.727C131.66 253.348 139.489 264.814 146.146 276.961L157.713 274.165L137.219 234.384L122.77 242.727Z" fill="#DE5634"/>
</g>
<path d="M290.706 197.382C291.216 197.88 311.278 174.673 311.278 174.673C312.1 161.423 311.447 148.122 309.33 135.016L266.539 159.722L290.706 197.382Z" fill="url(#paint28_linear_6540_48942)"/>
<path d="M301.224 139.697C301.224 139.697 303.167 166.15 302.615 169.436L281.275 182.548L280.418 181.065C280.418 181.065 300.361 169.773 301.011 168.285C301.661 166.797 300.055 140.372 300.055 140.372L301.224 139.697Z" fill="#B33114"/>
<path d="M301.224 139.697L302.616 169.436C303.063 164.296 303.179 159.132 302.964 153.976C302.629 149.19 302.048 144.424 301.224 139.697Z" fill="white"/>
<g style="mix-blend-mode:soft-light" opacity="0.4">
<path d="M299.014 142.85C300.211 148.737 300.087 163.771 298.714 164.564C297.342 165.356 281.285 174.255 278.503 172.82C275.72 171.384 268.055 161.021 269.207 160.059C270.358 159.098 298.455 140.255 299.014 142.85Z" fill="#FFDF66"/>
</g>
<g style="mix-blend-mode:soft-light" opacity="0.4">
<path d="M308.497 136.661C309.252 142.68 310.687 158.273 309.715 159.032C308.743 159.791 305.458 162.281 304.545 160.83C303.185 158.474 301.816 140.939 303.099 139.778C304.383 138.616 308.312 135.185 308.497 136.661Z" fill="#FFDF66"/>
</g>
<path style="mix-blend-mode:multiply" opacity="0.37" d="M309.629 161.233C310.703 162.666 309.505 173.869 308.96 175.024C308.415 176.179 292.712 193.53 290.937 193.368C289.162 193.206 279.187 177.3 279.903 176.269C280.618 175.238 308.413 159.685 309.629 161.233Z" fill="url(#paint29_linear_6540_48942)"/>
<g style="mix-blend-mode:multiply" opacity="0.5">
<path d="M280.949 151.401C285.702 164.411 291.718 176.925 298.909 188.763L290.704 197.382L266.5 159.743L280.949 151.401Z" fill="#DE5634"/>
</g>
<path d="M194.677 111.476C193.986 111.306 202.906 81.994 202.906 81.994C213.651 74.1821 225.235 67.5939 237.441 62.3517L239.41 111.766L194.677 111.476Z" fill="url(#paint30_linear_6540_48942)"/>
<path d="M237.803 71.7587C237.803 71.7587 214.42 84.245 211.925 86.477L212.257 111.511L213.97 111.437C213.97 111.437 212.845 88.5424 213.764 87.2206C214.683 85.8989 237.877 73.2992 237.877 73.2992L237.803 71.7587Z" fill="#B33114"/>
<path d="M237.872 73.2045L214.297 86.8154C214.297 86.8154 220.225 84.2334 226.254 80.9257C230.301 78.6237 234.182 76.0438 237.872 73.2045Z" fill="white"/>
<path style="mix-blend-mode:multiply" opacity="0.37" d="M236.34 75.35C230.702 77.4924 218.053 85.6113 218.129 87.1996C218.205 88.7879 219.248 107.129 221.963 108.703C224.677 110.277 237.515 111.224 237.705 109.754C237.895 108.284 238.836 74.4038 236.34 75.35Z" fill="url(#paint31_linear_6540_48942)"/>
<path style="mix-blend-mode:multiply" opacity="0.37" d="M236.503 63.9791C230.996 66.5646 217.049 73.6772 216.94 74.9023C216.832 76.1275 216.465 80.2468 218.162 80.2313C220.896 80.2111 236.461 71.9171 236.751 70.1917C237.041 68.4663 237.847 63.3515 236.503 63.9791Z" fill="url(#paint32_linear_6540_48942)"/>
<g style="mix-blend-mode:soft-light" opacity="0.4">
<path d="M215.107 76.1826C213.343 76.0391 204.519 82.9881 203.828 84.1042C203.137 85.2204 196.87 107.733 197.933 109.147C198.997 110.561 217.805 110.584 218.307 109.354C218.809 108.125 217.085 76.3518 215.107 76.1826Z" fill="#FFDF66"/>
</g>
<g style="mix-blend-mode:multiply" opacity="0.5">
<path d="M239.154 105.454C239.154 105.454 216.812 103.168 196.851 103.119L194.675 111.473L239.37 111.784L239.154 105.454Z" fill="#DE5634"/>
</g>
<path d="M130.462 147.548C130.661 146.864 100.816 139.933 100.816 139.933C88.679 145.318 77.1807 152.039 66.5343 159.973L108.347 186.432L130.462 147.548Z" fill="url(#paint33_linear_6540_48942)"/>
<path d="M74.4303 165.082C74.4303 165.082 96.9354 151.075 100.116 150.03L121.63 162.834L120.709 164.281C120.709 164.281 101.444 151.859 99.8405 151.994C98.2365 152.129 75.7277 165.916 75.7277 165.916L74.4303 165.082Z" fill="#B33114"/>
<path d="M75.7227 166.821L99.8354 152.9C99.8354 152.9 92.9691 157.284 87.1086 160.841C83.4448 163.076 79.6417 165.073 75.7227 166.821Z" fill="white"/>
<path style="mix-blend-mode:multiply" opacity="0.37" d="M78.347 166.567C83.0215 162.756 96.3772 155.861 97.7146 156.721C99.0521 157.581 114.415 167.655 114.421 170.793C114.427 173.93 108.828 185.522 107.46 184.951C106.092 184.381 76.2797 168.256 78.347 166.567Z" fill="url(#paint34_linear_6540_48942)"/>
<path style="mix-blend-mode:multiply" opacity="0.37" d="M68.4189 161.022C73.411 157.547 86.5443 149.024 87.6597 149.543C88.7751 150.061 92.526 151.803 91.6452 153.276C90.2796 155.623 75.3142 164.955 73.6751 164.344C72.0359 163.732 67.2033 161.873 68.4189 161.022Z" fill="url(#paint35_linear_6540_48942)"/>
<g style="mix-blend-mode:soft-light" opacity="0.4">
<path d="M89.683 147.595C90.441 145.995 100.871 141.828 102.183 141.788C103.495 141.748 126.126 147.576 126.818 149.204C127.511 150.832 118.126 167.132 116.81 166.952C115.495 166.772 88.8409 149.392 89.683 147.595Z" fill="#FFDF66"/>
</g>
<g style="mix-blend-mode:multiply" opacity="0.5">
<path d="M103.009 183.057C103.009 183.057 112.2 162.565 122.138 145.253L130.46 147.546L108.382 186.409L103.009 183.057Z" fill="#DE5634"/>
</g>
<path d="M150.481 107.426L103.701 188.447L159.504 285.102L253.06 285.1L299.84 204.079L244.037 107.424L150.481 107.426Z" fill="url(#paint36_linear_6540_48942)"/>
<path d="M167.963 270.451L120.619 188.449L158.942 122.08L235.581 122.076L282.925 204.078L244.602 270.447L167.963 270.451Z" fill="url(#paint37_linear_6540_48942)"/>
<path d="M170.776 265.563L126.248 188.44L161.756 126.96L232.752 126.949L277.28 204.073L241.783 265.571L170.776 265.563Z" fill="url(#paint38_linear_6540_48942)"/>
<g style="mix-blend-mode:soft-light" opacity="0.4">
<path d="M105.594 187.701C106.24 190.791 115.52 189.687 120.134 185.514C124.749 181.341 157.368 123.854 157.042 120.506C155.322 116.689 153.223 113.054 150.777 109.655C149.066 110.717 105.282 186.175 105.594 187.701Z" fill="#FFDF66"/>
</g>
<g style="mix-blend-mode:soft-light" opacity="0.4">
<path d="M242.09 109.895C244.461 111.989 238.846 119.484 232.944 121.383C227.042 123.282 161.213 122.263 158.173 120.853C156.623 120.14 150.777 110.655 151.908 110.002C153.684 109.051 240.924 108.862 242.09 109.895Z" fill="#FFDF66"/>
</g>
<path style="mix-blend-mode:multiply" opacity="0.37" d="M137.248 242.7C138.455 245.862 158.433 283.121 160.208 282.468C161.982 281.814 166.633 272.18 165.588 269.469C164.542 266.759 150.292 241.649 148.325 239.569C146.358 237.49 135.272 237.436 137.248 242.7Z" fill="url(#paint39_linear_6540_48942)"/>
<path style="mix-blend-mode:multiply" opacity="0.37" d="M273.986 163.754C276.139 166.37 298.418 202.301 296.946 203.522C295.474 204.743 284.823 203.942 283.017 201.671C281.212 199.4 266.572 174.515 265.755 171.771C264.938 169.028 270.397 159.422 273.986 163.754Z" fill="url(#paint40_linear_6540_48942)"/>
<path style="mix-blend-mode:multiply" opacity="0.37" d="M162.548 282.453C164.119 283.203 248.891 284.093 249.856 283.536C250.32 283.268 245.614 273.619 245.004 272.562C243.344 269.687 170.324 272.275 169.18 272.565C167.498 272.992 160.956 281.666 162.548 282.453Z" fill="url(#paint41_linear_6540_48942)"/>
<path style="mix-blend-mode:multiply" opacity="0.37" d="M296.682 206.323C296.564 208.047 253.687 282.463 252.722 283.02C250.179 279.163 247.941 275.114 246.027 270.909C246.889 267.691 283.023 207.21 283.845 206.364C285.057 205.121 296.815 204.54 296.682 206.323Z" fill="url(#paint42_linear_6540_48942)"/>
<g style="mix-blend-mode:multiply" opacity="0.37">
<path d="M172.028 262.117C155.982 242.891 157.259 240.348 178.549 216.013C199.84 191.677 231.242 142.534 240.986 150.287C250.73 158.041 274.224 201.903 274.683 204.754C275.142 207.605 244.213 260.951 240.434 263.231C236.656 265.511 173.762 264.306 172.028 262.117Z" fill="#ED8A1D"/>
</g>
<g style="mix-blend-mode:soft-light" opacity="0.4">
<path d="M231.913 128.15C230.838 128.474 166.672 128.449 164.082 130.216C161.491 131.984 137.135 166.944 130.287 186.824C128.398 192.119 157.014 238.513 159.905 235.682C162.796 232.85 154.291 212.337 185.346 180.113C215.934 148.406 237.154 148.322 242.065 147.663C243.379 147.325 234.346 127.438 231.913 128.15Z" fill="#FFDF66"/>
</g>
<g style="mix-blend-mode:multiply" opacity="0.5">
<path d="M167.962 270.449L120.65 188.503L158.992 122.123L235.612 122.13L282.924 204.076L277.281 204.069C277.281 204.069 236.387 132.638 233.562 131.301C223.393 126.538 169.772 131.628 164.021 137.817C158.271 144.006 129.649 182.071 129.328 191.283C129.217 194.389 170.777 265.559 170.777 265.559L167.962 270.449Z" fill="#DE5634"/>
</g>
<g style="mix-blend-mode:soft-light" opacity="0.4">
<path d="M195.294 160.249C213.383 158.511 235.03 146.186 236.286 143.779C237.543 141.372 233.551 131.459 229.554 131.69C225.557 131.92 193.412 133.043 187.752 138.19C182.093 143.338 192.089 160.566 195.294 160.249Z" fill="#FFDF66"/>
</g>
<path opacity="0.8" d="M120.696 217.883C120.578 217.679 105.558 190.293 105.594 187.7C105.63 185.107 150.33 110.678 151.919 109.019C153.509 107.359 186.384 107.372 186.384 107.372L150.481 107.426L103.679 188.41L120.696 217.883Z" fill="#700000"/>
<path d="M192.418 122.067C192.418 122.067 233.376 121.816 234.937 123.536C236.499 125.256 267.791 177.87 267.791 177.87C267.791 177.87 237.164 124.179 235.579 122.077C233.994 119.975 192.418 122.067 192.418 122.067Z" fill="white"/>
<path d="M146.565 233.392C146.565 233.392 119.95 189.651 119.727 187.85C119.504 186.05 158.94 122.08 158.94 122.08C158.94 122.08 121.756 185.838 121.781 188.495C121.806 191.151 146.565 233.392 146.565 233.392Z" fill="white"/>
<path opacity="0.8" d="M159.502 285.103L253.09 285.156L299.764 204.123L287.053 182.106C287.053 182.106 297.554 201.665 297.517 204.901C297.481 208.136 255.718 280.969 252.648 283.062C249.579 285.156 163.363 284.036 160.208 282.47C157.053 280.903 131.07 235.857 131.07 235.857L159.502 285.103Z" fill="#700000"/>
<g style="mix-blend-mode:soft-light" opacity="0.4">
<path d="M155.839 249.454C155.839 249.454 166.558 268.491 168.536 269.476C170.514 270.46 206.843 270.458 206.843 270.458C206.843 270.458 168.432 272.207 167.644 271.4C166.857 270.593 155.839 249.454 155.839 249.454Z" fill="#FFDF66"/>
</g>
<g style="mix-blend-mode:soft-light" opacity="0.4">
<path d="M201.616 273.997C199.538 275.197 195.071 280.867 197.136 281.53C199.2 282.193 245.784 283.12 250.52 282.241C252.096 281.973 247.212 273.813 243.956 272.156C242.598 271.432 208.06 270.252 201.616 273.997Z" fill="#FFDF66"/>
</g>
<path d="M191.128 111.198C190.168 112.148 196.733 114.738 198.81 114.182C200.888 113.625 202.602 110.855 201.227 110.486C199.852 110.118 192.593 109.709 191.128 111.198Z" fill="white"/>
<path d="M202.261 111.077C200.804 112.537 208.334 118.255 210.417 118.734C212.499 119.214 225.987 114.691 224.445 112.663C222.903 110.635 204.308 109.054 202.261 111.077Z" fill="white"/>
<g style="mix-blend-mode:multiply" opacity="0.5">
<path d="M267.846 236.006C270.156 243.477 272.635 247.214 273.52 246.777C274.406 246.34 294.408 210.135 294.771 208.837C295.135 207.539 286.314 205.584 284.162 207.296C282.01 209.008 267.071 233.165 267.846 236.006Z" fill="#DE5634"/>
</g>
<g style="mix-blend-mode:multiply" opacity="0.5">
<path d="M125.448 188.207C123.432 186.428 121.15 187.745 122.381 190.348C123.612 192.951 149.786 239.099 150.737 238.648C151.689 238.198 152.274 234.843 151.738 233.743C151.202 232.642 126.389 189.023 125.448 188.207Z" fill="#DE5634"/>
</g>
<g style="mix-blend-mode:multiply" opacity="0.5">
<path d="M233.103 126.397C233.477 127.344 258.098 170.974 258.655 170.653C259.211 170.332 260.564 166.806 259.953 165.749C259.343 164.691 235.035 124.045 234.639 124.002C234.243 123.958 232.778 125.62 233.103 126.397Z" fill="#DE5634"/>
</g>
<g style="mix-blend-mode:multiply" opacity="0.5">
<path d="M161.35 127.253C161.842 128.107 145.256 156.478 144.663 156.821C144.069 157.163 142.15 153.325 142.594 152.253C143.038 151.18 158.733 123.15 159.144 123.432C159.962 124.656 160.699 125.933 161.35 127.253Z" fill="#DE5634"/>
</g>
<path d="M278.416 211.18C276.84 212.091 273.273 218.206 274.548 219.473C275.824 220.74 280.078 220.484 280.391 219.141C280.704 217.798 279.455 210.581 278.416 211.18Z" fill="#B33114"/>
<path d="M281.024 210.986C280.776 211.798 280.617 214.264 282.251 214.482C283.886 214.701 285.86 210.495 284.992 210.105C284.124 209.716 281.354 209.93 281.024 210.986Z" fill="#B33114"/>
<g style="mix-blend-mode:multiply" opacity="0.5">
<path d="M274.408 217.428C274.162 220.043 280.202 218.04 280.021 216.141C279.84 214.243 279.188 210.415 278.376 211.107C276.674 212.95 275.328 215.094 274.408 217.428Z" fill="#DE5634"/>
</g>
<path d="M274.278 218.961C275.237 219.789 276.464 220.24 277.731 220.231C279.403 220.255 280.4 219.457 280.384 218.7C280.285 219.251 280 219.751 279.577 220.117C279.154 220.483 278.617 220.693 278.058 220.71C274.89 221.006 274.278 218.961 274.278 218.961Z" fill="#DAE1EF"/>
<g style="mix-blend-mode:multiply" opacity="0.5">
<path d="M281.652 210.7C281.196 212.694 283.234 214.04 283.867 213.551C284.5 213.062 285.729 210.522 284.994 210.106C284.259 209.689 281.759 210.242 281.652 210.7Z" fill="#DE5634"/>
</g>
<path d="M281.024 210.984C281.024 210.984 280.8 213.166 281.759 213.8C282.718 214.433 283.338 214.05 283.338 214.05C283.338 214.05 282.384 215.739 281.557 214.906C281.14 214.352 280.872 213.701 280.778 213.015C280.685 212.328 280.769 211.629 281.024 210.984Z" fill="#DAE1EF"/>
<path d="M153.836 130.949C149.548 132.089 147.846 136.337 147.258 139.174C146.67 142.011 148.269 142.596 150.133 141.026C151.996 139.456 155.678 130.455 153.836 130.949Z" fill="#B33114"/>
<g style="mix-blend-mode:multiply" opacity="0.5">
<path d="M153.835 130.947C152.506 131.397 151.294 132.138 150.288 133.116C149.283 134.095 148.509 135.286 148.024 136.602C147.536 138.071 150.999 139.485 152.061 138.154C153.123 136.824 155.228 130.662 153.835 130.947Z" fill="#DE5634"/>
</g>
<g style="mix-blend-mode:soft-light" opacity="0.4">
<path d="M147.665 137.651C147.665 137.651 144.997 142.925 146.365 143.966C147.732 145.007 151.276 139.622 151.276 139.622C151.276 139.622 149.127 142.025 147.848 141.181C146.569 140.336 147.665 137.651 147.665 137.651Z" fill="#FFDF66"/>
</g>
<path d="M170.731 269.595C169.009 271.281 177.338 271.914 178.876 271.322C180.414 270.731 176.927 267.946 175.895 267.701C174.038 267.872 172.258 268.525 170.731 269.595Z" fill="white"/>
<path d="M227.987 241.803L131.172 241.387C131.741 246.323 132.977 251.158 134.846 255.761L144.181 261.006L239.22 261.261L286.52 178.827L286.2 168.377C283.608 164.216 280.313 160.537 276.46 157.505L227.987 241.803Z" fill="url(#paint43_linear_6540_48942)"/>
<path d="M144.182 261.007L134.848 255.762L236.416 256.401L286.201 168.378L286.521 178.827L239.222 261.261L144.182 261.007Z" fill="url(#paint44_linear_6540_48942)"/>
<g style="mix-blend-mode:multiply" opacity="0.5">
<path d="M134.848 255.762L144.182 261.007L145.644 261.053L147.025 263.446C147.025 263.446 152.276 263.16 162.8 262.969C163.146 262.968 170.785 265.234 170.785 265.234C170.785 265.234 239.947 266.629 241.802 265.558C244.195 264.177 276.763 203.133 276.763 203.133C276.763 203.133 278.786 197.513 279.066 197.055L287.729 183.274L285.823 179.973L286.447 178.87L286.127 168.42L236.374 256.5L134.848 255.762Z" fill="#DE5634"/>
</g>
<path style="mix-blend-mode:multiply" opacity="0.69" d="M227.99 241.805L236.418 256.402L286.171 168.323C283.528 164.201 280.239 160.53 276.432 157.45L227.99 241.805Z" fill="url(#paint45_linear_6540_48942)"/>
<g style="mix-blend-mode:soft-light" opacity="0.4">
<path d="M136.744 242.426C135.353 243.229 143.573 254.855 149.412 255.243C158.688 255.848 212.712 256.338 215.311 254.886C217.166 253.815 211.047 243.474 210.073 243.072C208.158 242.026 138.803 241.238 136.744 242.426Z" fill="#FFDF66"/>
</g>
<g style="mix-blend-mode:soft-light" opacity="0.4">
<path d="M243.124 216.274C242.747 217.679 249.506 229.085 250.805 227.865C259.53 214.909 267.297 201.332 274.044 187.244C280.232 173.16 275.746 161.877 273.474 163.51C273.474 163.51 243.852 213.381 243.124 216.274Z" fill="#FFDF66"/>
</g>
<path d="M174.414 150.041L271.279 150.502C270.71 145.567 269.474 140.731 267.605 136.128L258.26 130.865L163.212 130.64L115.902 213.055L116.233 223.523C118.824 227.685 122.12 231.364 125.972 234.395L174.414 150.041Z" fill="url(#paint46_linear_6540_48942)"/>
<path d="M258.241 130.875L267.586 136.139L166.018 135.499L116.233 223.523L115.902 213.055L163.212 130.64L258.241 130.875Z" fill="url(#paint47_linear_6540_48942)"/>
<g style="mix-blend-mode:multiply" opacity="0.6">
<path d="M251.348 159.541L254.002 154.027L270.713 153.802L268.828 150.537C268.828 150.537 261.941 150.26 251.465 150.447L245.696 150.266C245.696 150.266 176.55 148.812 174.695 149.883C172.303 151.264 139.164 211.45 139.164 211.45L136.22 216.118L127.977 230.497L130.603 235.56L138.868 219.461L145.054 221.009L180.105 159.125L251.348 159.541Z" fill="#DE5634"/>
</g>
<g style="mix-blend-mode:soft-light" opacity="0.4">
<path d="M174.416 150.044L166.021 135.502L116.268 223.581C118.913 227.702 122.201 231.373 126.007 234.454L174.416 150.044Z" fill="#FFDF66"/>
</g>
<path style="mix-blend-mode:multiply" opacity="0.69" d="M265.72 150.436C267.111 149.633 258.901 138.026 253.063 137.638C243.776 137.015 189.752 136.525 187.108 138.027C185.253 139.098 191.361 149.421 192.346 149.841C194.25 150.869 263.624 151.646 265.72 150.436Z" fill="url(#paint48_linear_6540_48942)"/>
<g style="mix-blend-mode:soft-light" opacity="0.4">
<path d="M159.311 175.63C159.658 174.218 152.929 162.819 151.619 164.02C142.911 176.987 135.145 190.563 128.38 204.642C122.173 218.736 126.679 230.009 128.961 228.394C128.961 228.394 158.583 178.523 159.311 175.63Z" fill="#FFDF66"/>
</g>
<path d="M215.406 135.8C215.406 135.8 168.716 135.033 166.491 136.318C164.265 137.603 146.274 170.396 146.274 170.396C146.274 170.396 164.706 135.197 165.503 134.736C166.301 134.276 215.406 135.8 215.406 135.8Z" fill="white"/>
<g style="mix-blend-mode:multiply" opacity="0.5">
<path d="M133.035 137.653C133.554 139.164 134.194 140.63 134.949 142.038C135.472 142.602 144.527 147.019 144.527 147.019L147.354 151.916L180.928 159.736L191.087 127.557L189.27 122.225C189.27 122.225 189.72 111.826 189.11 110.768C188.499 109.711 181.221 107.385 181.221 107.385L150.479 107.426L133.035 137.653Z" fill="#DE5634"/>
</g>
<path d="M186.177 110.188L185.98 110.104L141.093 90.1433L140.856 90.0327L140.834 90.2932L135.677 139.146L135.651 139.359L135.859 139.462L180.713 159.367L180.928 159.738L180.95 159.477L181.187 159.588L180.973 159.217L186.162 110.419L186.177 110.188Z" fill="url(#paint49_linear_6540_48942)"/>
<g style="mix-blend-mode:multiply" opacity="0.5">
<path d="M140.881 137.34L145.032 98.2675L180.945 114.209L176.794 153.282L140.881 137.34Z" fill="#DE5634"/>
</g>
<path d="M141.94 136.728L145.869 99.7128L179.909 114.807L175.972 151.852L141.94 136.728Z" fill="url(#paint50_linear_6540_48942)"/>
<g style="mix-blend-mode:soft-light" opacity="0.4">
<path d="M141.662 93.1129C140.642 96.571 136.02 137.869 136.907 138.42C137.794 138.972 146.152 134.171 162.07 124.733C177.989 115.295 184.603 111.502 184.465 110.963C184.327 110.424 141.846 92.4878 141.662 93.1129Z" fill="#FFDF66"/>
</g>
<path style="mix-blend-mode:multiply" opacity="0.37" d="M136.8 138.82C137.231 140.253 178.949 158.58 180.144 157.223C181.338 155.865 186.28 111.266 184.322 111.259C182.364 111.252 136.414 137.509 136.8 138.82Z" fill="url(#paint51_linear_6540_48942)"/>
<g style="mix-blend-mode:multiply" opacity="0.5">
<path d="M210.972 212.204L198.925 231.302L191.1 210.125L169.233 204.548L186.943 190.588L185.485 168.059L204.249 180.597L225.212 172.228L219.089 193.965L233.536 211.32L210.972 212.204Z" fill="#DE5634"/>
</g>
<path d="M223.578 174.064L213.456 178.078L210.693 179.204L204.132 181.805L186.709 170.175L188.069 191.078L171.624 204.06L191.93 209.203L199.174 228.861L210.365 211.148L231.281 210.324L217.898 194.21L223.578 174.064Z" fill="url(#paint52_linear_6540_48942)"/>
<path style="mix-blend-mode:multiply" opacity="0.37" d="M171.547 204.103L201.962 195.742L191.834 209.256L171.547 204.103Z" fill="url(#paint53_linear_6540_48942)"/>
<path style="mix-blend-mode:multiply" opacity="0.37" d="M223.484 174.117L201.964 195.742L217.804 194.263L223.484 174.117Z" fill="url(#paint54_linear_6540_48942)"/>
<path style="mix-blend-mode:multiply" opacity="0.37" d="M210.271 211.202L201.964 195.744L199.081 228.916L210.271 211.202Z" fill="url(#paint55_linear_6540_48942)"/>
<path style="mix-blend-mode:multiply" opacity="0.37" d="M231.187 210.378L201.964 195.743L210.271 211.202L231.187 210.378Z" fill="url(#paint56_linear_6540_48942)"/>
<path style="mix-blend-mode:color-dodge" opacity="0.5" d="M186.613 170.229L201.962 195.743L204.036 181.858L186.613 170.229Z" fill="url(#paint57_linear_6540_48942)"/>
<path style="mix-blend-mode:color-dodge" opacity="0.5" d="M223.483 174.117L201.962 195.742L204.036 181.857L223.483 174.117Z" fill="url(#paint58_linear_6540_48942)"/>
<path style="mix-blend-mode:color-dodge" opacity="0.5" d="M223.483 174.117L201.962 195.742L204.036 181.857L223.483 174.117Z" fill="url(#paint59_linear_6540_48942)"/>
<path style="mix-blend-mode:color-dodge" opacity="0.5" d="M187.975 191.131L201.964 195.741L171.549 204.102L187.975 191.131Z" fill="url(#paint60_linear_6540_48942)"/>
<path d="M207.303 187.516C206.621 189.418 208.17 189.488 208.17 189.488L213.98 183.661C213.98 183.661 208.872 183.123 207.303 187.516Z" fill="white"/>
<g style="mix-blend-mode:multiply" opacity="0.5">
<path d="M199.173 228.861C199.173 228.861 208.05 216.094 210.953 212.168L231.28 210.324L210.364 211.148L199.173 228.861Z" fill="#DE5634"/>
</g>
<g style="mix-blend-mode:multiply" opacity="0.5">
<path d="M171.547 204.103L201.962 195.742L194.656 216.629L171.547 204.103Z" fill="#DE5634"/>
</g>
<g style="mix-blend-mode:multiply" opacity="0.5">
<path d="M223.484 174.117L201.964 195.742L224.195 201.777L223.484 174.117Z" fill="#DE5634"/>
</g>
<g style="mix-blend-mode:multiply" opacity="0.5">
<path d="M199.174 228.862L201.965 195.743L231.281 210.325L213.77 217.047L199.174 228.862Z" fill="#DE5634"/>
</g>
<g style="mix-blend-mode:soft-light" opacity="0.4">
<path d="M188.519 187.062C189.554 192.796 197.952 192.349 197.978 190.38C198.004 188.412 192.786 180.617 191.031 180.146C189.275 179.676 188.073 184.747 188.519 187.062Z" fill="#F7FFFF"/>
</g>
<g style="mix-blend-mode:soft-light" opacity="0.4">
<path d="M197.183 214.404C200.938 212.854 200.522 207.851 199.727 204.675C198.39 199.66 190.403 217.181 197.183 214.404Z" fill="#F7FFFF"/>
</g>
<g style="mix-blend-mode:multiply" opacity="0.5">
<path d="M164.842 133.302L159.803 141.281L156.517 132.42L147.368 130.109L154.789 124.242L154.176 114.828L162.023 120.066L170.795 116.584L168.24 125.652L174.271 132.928L164.842 133.302Z" fill="#DE5634"/>
</g>
<path d="M170.056 117.405L165.847 119.068L164.704 119.53L161.967 120.616L154.72 115.773L155.29 124.471L148.447 129.881L156.893 132.003L159.908 140.18L164.561 132.819L173.263 132.47L167.689 125.771L170.056 117.405Z" fill="url(#paint61_linear_6540_48942)"/>
<path style="mix-blend-mode:multiply" opacity="0.37" d="M148.41 129.903L161.069 126.428L156.857 132.025L148.41 129.903Z" fill="url(#paint62_linear_6540_48942)"/>
<path style="mix-blend-mode:multiply" opacity="0.37" d="M170.02 117.427L161.07 126.428L167.653 125.793L170.02 117.427Z" fill="url(#paint63_linear_6540_48942)"/>
<path style="mix-blend-mode:multiply" opacity="0.37" d="M164.525 132.839L161.07 126.425L159.872 140.2L164.525 132.839Z" fill="url(#paint64_linear_6540_48942)"/>
<path style="mix-blend-mode:multiply" opacity="0.37" d="M173.225 132.489L161.068 126.425L164.524 132.839L173.225 132.489Z" fill="url(#paint65_linear_6540_48942)"/>
<path style="mix-blend-mode:color-dodge" opacity="0.5" d="M154.684 115.795L161.069 126.427L161.931 120.637L154.684 115.795Z" fill="url(#paint66_linear_6540_48942)"/>
<path style="mix-blend-mode:color-dodge" opacity="0.5" d="M170.019 117.424L161.069 126.424L161.931 120.635L170.019 117.424Z" fill="url(#paint67_linear_6540_48942)"/>
<path style="mix-blend-mode:color-dodge" opacity="0.5" d="M170.019 117.424L161.069 126.424L161.931 120.635L170.019 117.424Z" fill="url(#paint68_linear_6540_48942)"/>
<path style="mix-blend-mode:color-dodge" opacity="0.5" d="M155.252 124.49L161.068 126.425L148.409 129.9L155.252 124.49Z" fill="url(#paint69_linear_6540_48942)"/>
<path d="M163.308 122.979C163.019 123.764 163.758 123.758 163.758 123.758L166.164 121.33C165.572 121.243 164.967 121.358 164.449 121.658C163.93 121.957 163.528 122.423 163.308 122.979Z" fill="white"/>
<g style="mix-blend-mode:multiply" opacity="0.5">
<path d="M159.907 140.179C159.907 140.179 163.6 134.882 164.828 133.282L173.262 132.469L164.56 132.819L159.907 140.179Z" fill="#DE5634"/>
</g>
<g style="mix-blend-mode:multiply" opacity="0.5">
<path d="M148.41 129.903L161.069 126.428L158.039 135.102L148.41 129.903Z" fill="#DE5634"/>
</g>
<g style="mix-blend-mode:multiply" opacity="0.5">
<path d="M170.02 117.427L161.07 126.428L170.307 128.934L170.02 117.427Z" fill="#DE5634"/>
</g>
<g style="mix-blend-mode:multiply" opacity="0.5">
<path d="M159.907 140.178L161.068 126.425L173.262 132.468L165.974 135.266L159.907 140.178Z" fill="#DE5634"/>
</g>
<g style="mix-blend-mode:soft-light" opacity="0.4">
<path d="M155.466 122.807C155.896 125.181 159.378 125 159.407 124.193C158.858 122.53 157.859 121.052 156.521 119.923C155.8 119.746 155.236 121.852 155.466 122.807Z" fill="#F7FFFF"/>
</g>
<g style="mix-blend-mode:soft-light" opacity="0.4">
<path d="M159.087 134.172C160.622 133.533 160.477 131.44 160.139 130.126C159.583 128.049 156.268 135.329 159.087 134.172Z" fill="#F7FFFF"/>
</g>
<g style="mix-blend-mode:multiply" opacity="0.5">
<path d="M214.209 256.316L215.45 265.491L213.964 271.271L222.06 285.293L253.061 285.102L269.812 256.116L261.55 243.476L255.354 242.082L248.521 235.987L221.489 230.374L214.209 256.316Z" fill="#DE5634"/>
</g>
<path d="M266.003 248.448L265.795 248.345L220.941 228.44L220.704 228.33L220.681 228.59L215.493 277.388L215.478 277.619L215.675 277.703L260.529 297.608L260.743 297.979L260.766 297.719L261.003 297.829L260.789 297.458L265.977 248.661L266.003 248.448Z" fill="url(#paint70_linear_6540_48942)"/>
<g style="mix-blend-mode:multiply" opacity="0.5">
<path d="M220.705 274.597L224.856 235.524L260.77 251.466L256.619 290.538L220.705 274.597Z" fill="#DE5634"/>
</g>
<path d="M221.764 273.985L225.682 236.951L259.732 252.064L255.784 289.09L221.764 273.985Z" fill="url(#paint71_linear_6540_48942)"/>
<g style="mix-blend-mode:soft-light" opacity="0.4">
<path d="M221.479 230.355C220.477 233.802 215.836 275.111 216.723 275.663C217.61 276.214 225.968 271.413 241.887 261.976C257.805 252.538 264.43 248.762 264.281 248.205C264.133 247.648 221.662 229.73 221.479 230.355Z" fill="#FFDF66"/>
</g>
<path style="mix-blend-mode:multiply" opacity="0.37" d="M216.624 277.077C217.045 278.491 258.762 296.819 259.957 295.461C261.152 294.104 266.094 249.505 264.146 249.516C262.199 249.527 216.238 275.766 216.624 277.077Z" fill="url(#paint72_linear_6540_48942)"/>
<g style="mix-blend-mode:multiply" opacity="0.5">
<path d="M244.654 270.54L239.616 278.519L236.341 269.676L227.181 267.348L234.601 261.481L233.988 252.066L241.835 257.304L250.607 253.822L248.063 262.909L254.083 270.166L244.654 270.54Z" fill="#DE5634"/>
</g>
<path d="M249.869 254.644L245.66 256.307L244.518 256.769L241.781 257.854L234.544 253.03L235.103 261.709L228.26 267.119L236.718 269.26L239.721 277.418L244.375 270.057L253.076 269.708L247.513 263.028L249.869 254.644Z" fill="url(#paint73_linear_6540_48942)"/>
<path style="mix-blend-mode:multiply" opacity="0.37" d="M228.223 267.142L240.882 263.666L236.68 269.282L228.223 267.142Z" fill="url(#paint74_linear_6540_48942)"/>
<path style="mix-blend-mode:multiply" opacity="0.37" d="M249.832 254.666L240.883 263.666L247.476 263.05L249.832 254.666Z" fill="url(#paint75_linear_6540_48942)"/>
<path style="mix-blend-mode:multiply" opacity="0.37" d="M244.338 270.081L240.882 263.668L239.685 277.442L244.338 270.081Z" fill="url(#paint76_linear_6540_48942)"/>
<path style="mix-blend-mode:multiply" opacity="0.37" d="M253.042 269.731L240.885 263.667L244.34 270.081L253.042 269.731Z" fill="url(#paint77_linear_6540_48942)"/>
<path style="mix-blend-mode:color-dodge" opacity="0.5" d="M234.508 253.052L240.883 263.666L241.745 257.876L234.508 253.052Z" fill="url(#paint78_linear_6540_48942)"/>
<path style="mix-blend-mode:color-dodge" opacity="0.5" d="M249.831 254.666L240.882 263.667L241.743 257.877L249.831 254.666Z" fill="url(#paint79_linear_6540_48942)"/>
<path style="mix-blend-mode:color-dodge" opacity="0.5" d="M249.831 254.666L240.882 263.667L241.743 257.877L249.831 254.666Z" fill="url(#paint80_linear_6540_48942)"/>
<path style="mix-blend-mode:color-dodge" opacity="0.5" d="M235.065 261.732L240.881 263.667L228.222 267.142L235.065 261.732Z" fill="url(#paint81_linear_6540_48942)"/>
<path d="M243.122 260.222C242.834 261.007 243.572 261.001 243.572 261.001L245.979 258.573C245.387 258.494 244.786 258.612 244.269 258.911C243.752 259.209 243.349 259.67 243.122 260.222Z" fill="white"/>
<g style="mix-blend-mode:multiply" opacity="0.5">
<path d="M239.73 277.436C239.73 277.436 243.412 272.12 244.64 270.521L253.085 269.726L244.373 270.057L239.73 277.436Z" fill="#DE5634"/>
</g>
<g style="mix-blend-mode:multiply" opacity="0.5">
<path d="M228.223 267.142L240.882 263.666L237.852 272.34L228.223 267.142Z" fill="#DE5634"/>
</g>
<g style="mix-blend-mode:multiply" opacity="0.5">
<path d="M249.832 254.666L240.883 263.666L250.12 266.172L249.832 254.666Z" fill="#DE5634"/>
</g>
<g style="mix-blend-mode:multiply" opacity="0.5">
<path d="M239.724 277.42L240.884 263.668L253.078 269.71L245.801 272.527L239.724 277.42Z" fill="#DE5634"/>
</g>
<g style="mix-blend-mode:soft-light" opacity="0.4">
<path d="M235.282 260.049C235.712 262.422 239.205 262.26 239.222 261.434C238.674 259.771 237.675 258.293 236.337 257.164C235.616 256.987 235.063 259.112 235.282 260.049Z" fill="#F7FFFF"/>
</g>
<g style="mix-blend-mode:soft-light" opacity="0.4">
<path d="M238.901 271.412C240.447 270.791 240.292 268.68 239.964 267.385C239.397 265.289 236.082 272.569 238.901 271.412Z" fill="#F7FFFF"/>
</g>
<path style="mix-blend-mode:color-dodge" opacity="0.5" d="M271.781 94.7421C280.342 109.569 282.661 127.189 278.23 143.726C273.799 160.263 262.98 174.363 248.153 182.923C233.327 191.483 215.707 193.803 199.17 189.372C182.632 184.941 168.533 174.122 159.973 159.295" fill="url(#paint82_radial_6540_48942)"/>
<defs>
<linearGradient id="paint0_linear_6540_48942" x1="153.98" y1="297.467" x2="184.27" y2="279.979" gradientUnits="userSpaceOnUse">
<stop stop-color="#DE3C14"/>
<stop offset="0.07" stop-color="#C72E10"/>
<stop offset="0.19" stop-color="#AB1C0C"/>
<stop offset="0.3" stop-color="#971009"/>
<stop offset="0.41" stop-color="#8B0807"/>
<stop offset="0.52" stop-color="#870606"/>
<stop offset="0.62" stop-color="#8C0707"/>
<stop offset="0.73" stop-color="#9A0808"/>
<stop offset="0.85" stop-color="#B20B0B"/>
<stop offset="0.97" stop-color="#D30E0E"/>
<stop offset="1" stop-color="#DB0F0F"/>
</linearGradient>
<linearGradient id="paint1_linear_6540_48942" x1="163.124" y1="313.307" x2="192.189" y2="296.526" gradientUnits="userSpaceOnUse">
<stop stop-color="#FFA933"/>
<stop offset="0.05" stop-color="#FFB030"/>
<stop offset="0.18" stop-color="#FFBA2C"/>
<stop offset="0.34" stop-color="#FEBB2B"/>
<stop offset="0.43" stop-color="#EB9E2E"/>
<stop offset="0.52" stop-color="#DC8731"/>
<stop offset="0.62" stop-color="#D27733"/>
<stop offset="0.72" stop-color="#CC6E34"/>
<stop offset="0.87" stop-color="#CA6B34"/>
<stop offset="0.92" stop-color="#E39130"/>
<stop offset="0.97" stop-color="#F7B12C"/>
<stop offset="1" stop-color="#FFBD2B"/>
</linearGradient>
<linearGradient id="paint2_linear_6540_48942" x1="214.699" y1="367.639" x2="192.596" y2="329.356" gradientUnits="userSpaceOnUse">
<stop stop-color="white"/>
<stop offset="1" stop-color="#B41E2D"/>
</linearGradient>
<linearGradient id="paint3_linear_6540_48942" x1="281.816" y1="223.661" x2="312.105" y2="206.174" gradientUnits="userSpaceOnUse">
<stop stop-color="#DE3C14"/>
<stop offset="0.07" stop-color="#C72E10"/>
<stop offset="0.19" stop-color="#AB1C0C"/>
<stop offset="0.3" stop-color="#971009"/>
<stop offset="0.41" stop-color="#8B0807"/>
<stop offset="0.52" stop-color="#870606"/>
<stop offset="0.62" stop-color="#8C0707"/>
<stop offset="0.73" stop-color="#9A0808"/>
<stop offset="0.85" stop-color="#B20B0B"/>
<stop offset="0.97" stop-color="#D30E0E"/>
<stop offset="1" stop-color="#DB0F0F"/>
</linearGradient>
<linearGradient id="paint4_linear_6540_48942" x1="292.202" y1="238.784" x2="321.249" y2="222.014" gradientUnits="userSpaceOnUse">
<stop stop-color="#FFA933"/>
<stop offset="0.05" stop-color="#FFB030"/>
<stop offset="0.18" stop-color="#FFBA2C"/>
<stop offset="0.34" stop-color="#FEBB2B"/>
<stop offset="0.43" stop-color="#EB9E2E"/>
<stop offset="0.52" stop-color="#DC8731"/>
<stop offset="0.62" stop-color="#D27733"/>
<stop offset="0.72" stop-color="#CC6E34"/>
<stop offset="0.87" stop-color="#CA6B34"/>
<stop offset="0.92" stop-color="#E39130"/>
<stop offset="0.97" stop-color="#F7B12C"/>
<stop offset="1" stop-color="#FFBD2B"/>
</linearGradient>
<linearGradient id="paint5_linear_6540_48942" x1="342.535" y1="293.834" x2="320.432" y2="255.55" gradientUnits="userSpaceOnUse">
<stop stop-color="white"/>
<stop offset="1" stop-color="#B41E2D"/>
</linearGradient>
<linearGradient id="paint6_linear_6540_48942" x1="199.544" y1="317.705" x2="245.674" y2="291.072" gradientUnits="userSpaceOnUse">
<stop stop-color="#DE3C14"/>
<stop offset="0.07" stop-color="#C72E10"/>
<stop offset="0.19" stop-color="#AB1C0C"/>
<stop offset="0.3" stop-color="#971009"/>
<stop offset="0.41" stop-color="#8B0807"/>
<stop offset="0.52" stop-color="#870606"/>
<stop offset="0.62" stop-color="#8C0707"/>
<stop offset="0.73" stop-color="#9A0808"/>
<stop offset="0.85" stop-color="#B20B0B"/>
<stop offset="0.97" stop-color="#D30E0E"/>
<stop offset="1" stop-color="#DB0F0F"/>
</linearGradient>
<linearGradient id="paint7_linear_6540_48942" x1="206.432" y1="329.63" x2="252.561" y2="302.997" gradientUnits="userSpaceOnUse">
<stop stop-color="#FFA933"/>
<stop offset="0.05" stop-color="#FFB030"/>
<stop offset="0.18" stop-color="#FFBA2C"/>
<stop offset="0.34" stop-color="#FEBB2B"/>
<stop offset="0.43" stop-color="#EB9E2E"/>
<stop offset="0.52" stop-color="#DC8731"/>
<stop offset="0.62" stop-color="#D27733"/>
<stop offset="0.72" stop-color="#CC6E34"/>
<stop offset="0.87" stop-color="#CA6B34"/>
<stop offset="0.92" stop-color="#E39130"/>
<stop offset="0.97" stop-color="#F7B12C"/>
<stop offset="1" stop-color="#FFBD2B"/>
</linearGradient>
<linearGradient id="paint8_linear_6540_48942" x1="261.368" y1="282.012" x2="307.498" y2="255.38" gradientUnits="userSpaceOnUse">
<stop stop-color="#DE3C14"/>
<stop offset="0.07" stop-color="#C72E10"/>
<stop offset="0.19" stop-color="#AB1C0C"/>
<stop offset="0.3" stop-color="#971009"/>
<stop offset="0.41" stop-color="#8B0807"/>
<stop offset="0.52" stop-color="#870606"/>
<stop offset="0.62" stop-color="#8C0707"/>
<stop offset="0.73" stop-color="#9A0808"/>
<stop offset="0.85" stop-color="#B20B0B"/>
<stop offset="0.97" stop-color="#D30E0E"/>
<stop offset="1" stop-color="#DB0F0F"/>
</linearGradient>
<linearGradient id="paint9_linear_6540_48942" x1="268.252" y1="293.938" x2="314.382" y2="267.305" gradientUnits="userSpaceOnUse">
<stop stop-color="#FFA933"/>
<stop offset="0.05" stop-color="#FFB030"/>
<stop offset="0.18" stop-color="#FFBA2C"/>
<stop offset="0.34" stop-color="#FEBB2B"/>
<stop offset="0.43" stop-color="#EB9E2E"/>
<stop offset="0.52" stop-color="#DC8731"/>
<stop offset="0.62" stop-color="#D27733"/>
<stop offset="0.72" stop-color="#CC6E34"/>
<stop offset="0.87" stop-color="#CA6B34"/>
<stop offset="0.92" stop-color="#E39130"/>
<stop offset="0.97" stop-color="#F7B12C"/>
<stop offset="1" stop-color="#FFBD2B"/>
</linearGradient>
<linearGradient id="paint10_linear_6540_48942" x1="248.012" y1="348.409" x2="225.909" y2="310.125" gradientUnits="userSpaceOnUse">
<stop stop-color="white"/>
<stop offset="1" stop-color="#B41E2D"/>
</linearGradient>
<linearGradient id="paint11_linear_6540_48942" x1="309.854" y1="312.706" x2="287.751" y2="274.422" gradientUnits="userSpaceOnUse">
<stop stop-color="white"/>
<stop offset="1" stop-color="#B41E2D"/>
</linearGradient>
<linearGradient id="paint12_linear_6540_48942" x1="277.101" y1="167.011" x2="257.051" y2="132.311" gradientUnits="userSpaceOnUse">
<stop stop-color="#CA6B34"/>
<stop offset="0.67" stop-color="#FFA933"/>
<stop offset="1" stop-color="#FFBD2B"/>
</linearGradient>
<linearGradient id="paint13_linear_6540_48942" x1="281.723" y1="130.612" x2="303.498" y2="118.04" gradientUnits="userSpaceOnUse">
<stop stop-color="#DE3C14"/>
<stop offset="0.07" stop-color="#C72E10"/>
<stop offset="0.19" stop-color="#AB1C0C"/>
<stop offset="0.3" stop-color="#971009"/>
<stop offset="0.41" stop-color="#8B0807"/>
<stop offset="0.52" stop-color="#870606"/>
<stop offset="0.62" stop-color="#8C0707"/>
<stop offset="0.73" stop-color="#9A0808"/>
<stop offset="0.85" stop-color="#B20B0B"/>
<stop offset="0.97" stop-color="#D30E0E"/>
<stop offset="1" stop-color="#DB0F0F"/>
</linearGradient>
<linearGradient id="paint14_linear_6540_48942" x1="182.821" y1="271.539" x2="162.619" y2="236.975" gradientUnits="userSpaceOnUse">
<stop stop-color="#CA6B34"/>
<stop offset="0.67" stop-color="#FFA933"/>
<stop offset="1" stop-color="#FFBD2B"/>
</linearGradient>
<linearGradient id="paint15_linear_6540_48942" x1="81.5556" y1="246.275" x2="103.35" y2="233.692" gradientUnits="userSpaceOnUse">
<stop stop-color="#DE3C14"/>
<stop offset="0.07" stop-color="#C72E10"/>
<stop offset="0.19" stop-color="#AB1C0C"/>
<stop offset="0.3" stop-color="#971009"/>
<stop offset="0.41" stop-color="#8B0807"/>
<stop offset="0.52" stop-color="#870606"/>
<stop offset="0.62" stop-color="#8C0707"/>
<stop offset="0.73" stop-color="#9A0808"/>
<stop offset="0.85" stop-color="#B20B0B"/>
<stop offset="0.97" stop-color="#D30E0E"/>
<stop offset="1" stop-color="#DB0F0F"/>
</linearGradient>
<linearGradient id="paint16_linear_6540_48942" x1="275.678" y1="139.63" x2="255.65" y2="104.929" gradientUnits="userSpaceOnUse">
<stop stop-color="#CA6B34"/>
<stop offset="0.67" stop-color="#FFA933"/>
<stop offset="1" stop-color="#FFBD2B"/>
</linearGradient>
<linearGradient id="paint17_linear_6540_48942" x1="280.931" y1="101.91" x2="302.725" y2="89.3272" gradientUnits="userSpaceOnUse">
<stop stop-color="#DE3C14"/>
<stop offset="0.07" stop-color="#C72E10"/>
<stop offset="0.19" stop-color="#AB1C0C"/>
<stop offset="0.3" stop-color="#971009"/>
<stop offset="0.41" stop-color="#8B0807"/>
<stop offset="0.52" stop-color="#870606"/>
<stop offset="0.62" stop-color="#8C0707"/>
<stop offset="0.73" stop-color="#9A0808"/>
<stop offset="0.85" stop-color="#B20B0B"/>
<stop offset="0.97" stop-color="#D30E0E"/>
<stop offset="1" stop-color="#DB0F0F"/>
</linearGradient>
<linearGradient id="paint18_linear_6540_48942" x1="158.268" y1="256.638" x2="138.067" y2="222.073" gradientUnits="userSpaceOnUse">
<stop stop-color="#CA6B34"/>
<stop offset="0.67" stop-color="#FFA933"/>
<stop offset="1" stop-color="#FFBD2B"/>
</linearGradient>
<linearGradient id="paint19_linear_6540_48942" x1="56.9501" y1="231.327" x2="78.7443" y2="218.744" gradientUnits="userSpaceOnUse">
<stop stop-color="#DE3C14"/>
<stop offset="0.07" stop-color="#C72E10"/>
<stop offset="0.19" stop-color="#AB1C0C"/>
<stop offset="0.3" stop-color="#971009"/>
<stop offset="0.41" stop-color="#8B0807"/>
<stop offset="0.52" stop-color="#870606"/>
<stop offset="0.62" stop-color="#8C0707"/>
<stop offset="0.73" stop-color="#9A0808"/>
<stop offset="0.85" stop-color="#B20B0B"/>
<stop offset="0.97" stop-color="#D30E0E"/>
<stop offset="1" stop-color="#DB0F0F"/>
</linearGradient>
<linearGradient id="paint20_linear_6540_48942" x1="143.935" y1="191.358" x2="108.939" y2="130.743" gradientUnits="userSpaceOnUse">
<stop stop-color="#CA6B34"/>
<stop offset="0.67" stop-color="#FFA933"/>
<stop offset="1" stop-color="#FFBD2B"/>
</linearGradient>
<linearGradient id="paint21_linear_6540_48942" x1="126.265" y1="176.26" x2="93.2921" y2="119.149" gradientUnits="userSpaceOnUse">
<stop stop-color="#CA6B34"/>
<stop offset="0.67" stop-color="#FFA933"/>
<stop offset="1" stop-color="#FFBD2B"/>
</linearGradient>
<linearGradient id="paint22_linear_6540_48942" x1="122.148" y1="151.78" x2="142.902" y2="187.727" gradientUnits="userSpaceOnUse">
<stop stop-color="#C10065"/>
<stop offset="1" stop-color="white"/>
</linearGradient>
<linearGradient id="paint23_linear_6540_48942" x1="225.753" y1="145.121" x2="190.756" y2="84.5056" gradientUnits="userSpaceOnUse">
<stop stop-color="#CA6B34"/>
<stop offset="0.67" stop-color="#FFA933"/>
<stop offset="1" stop-color="#FFBD2B"/>
</linearGradient>
<linearGradient id="paint24_linear_6540_48942" x1="221.64" y1="122.195" x2="188.667" y2="65.085" gradientUnits="userSpaceOnUse">
<stop stop-color="#CA6B34"/>
<stop offset="0.67" stop-color="#FFA933"/>
<stop offset="1" stop-color="#FFBD2B"/>
</linearGradient>
<linearGradient id="paint25_linear_6540_48942" x1="202.499" y1="106.39" x2="223.253" y2="142.336" gradientUnits="userSpaceOnUse">
<stop stop-color="#C10065"/>
<stop offset="1" stop-color="white"/>
</linearGradient>
<linearGradient id="paint26_linear_6540_48942" x1="138.035" y1="285.402" x2="115.911" y2="247.081" gradientUnits="userSpaceOnUse">
<stop stop-color="#CA6B34"/>
<stop offset="0.67" stop-color="#FFA933"/>
<stop offset="1" stop-color="#FFBD2B"/>
</linearGradient>
<linearGradient id="paint27_linear_6540_48942" x1="130.598" y1="262.196" x2="140.932" y2="280.095" gradientUnits="userSpaceOnUse">
<stop stop-color="#C10065"/>
<stop offset="1" stop-color="white"/>
</linearGradient>
<linearGradient id="paint28_linear_6540_48942" x1="310.277" y1="185.96" x2="288.152" y2="147.639" gradientUnits="userSpaceOnUse">
<stop stop-color="#CA6B34"/>
<stop offset="0.67" stop-color="#FFA933"/>
<stop offset="1" stop-color="#FFBD2B"/>
</linearGradient>
<linearGradient id="paint29_linear_6540_48942" x1="293.9" y1="167.916" x2="304.234" y2="185.815" gradientUnits="userSpaceOnUse">
<stop stop-color="#C10065"/>
<stop offset="1" stop-color="white"/>
</linearGradient>
<linearGradient id="paint30_linear_6540_48942" x1="229.445" y1="110.099" x2="213.832" y2="83.0558" gradientUnits="userSpaceOnUse">
<stop stop-color="#CA6B34"/>
<stop offset="0.67" stop-color="#FFA933"/>
<stop offset="1" stop-color="#FFBD2B"/>
</linearGradient>
<linearGradient id="paint31_linear_6540_48942" x1="239.565" y1="92.6298" x2="204.14" y2="95.0536" gradientUnits="userSpaceOnUse">
<stop stop-color="#C10065"/>
<stop offset="1" stop-color="white"/>
</linearGradient>
<linearGradient id="paint32_linear_6540_48942" x1="238.116" y1="71.3572" x2="202.691" y2="73.781" gradientUnits="userSpaceOnUse">
<stop stop-color="#C10065"/>
<stop offset="1" stop-color="white"/>
</linearGradient>
<linearGradient id="paint33_linear_6540_48942" x1="111.904" y1="176.959" x2="96.2908" y2="149.916" gradientUnits="userSpaceOnUse">
<stop stop-color="#CA6B34"/>
<stop offset="0.67" stop-color="#FFA933"/>
<stop offset="1" stop-color="#FFBD2B"/>
</linearGradient>
<linearGradient id="paint34_linear_6540_48942" x1="91.6993" y1="178" x2="111.511" y2="148.533" gradientUnits="userSpaceOnUse">
<stop stop-color="#C10065"/>
<stop offset="1" stop-color="white"/>
</linearGradient>
<linearGradient id="paint35_linear_6540_48942" x1="74.0017" y1="166.109" x2="93.8133" y2="136.642" gradientUnits="userSpaceOnUse">
<stop stop-color="#C10065"/>
<stop offset="1" stop-color="white"/>
</linearGradient>
<linearGradient id="paint36_linear_6540_48942" x1="254.827" y1="288.16" x2="166.854" y2="135.786" gradientUnits="userSpaceOnUse">
<stop stop-color="#CA6B34"/>
<stop offset="0.67" stop-color="#FFA933"/>
<stop offset="1" stop-color="#FFBD2B"/>
</linearGradient>
<linearGradient id="paint37_linear_6540_48942" x1="151.392" y1="109.003" x2="239.815" y2="262.156" gradientUnits="userSpaceOnUse">
<stop stop-color="#CA6B34"/>
<stop offset="0.17" stop-color="#CC6E34"/>
<stop offset="0.29" stop-color="#D27733"/>
<stop offset="0.39" stop-color="#DB8631"/>
<stop offset="0.48" stop-color="#E99B2F"/>
<stop offset="0.57" stop-color="#FBB72C"/>
<stop offset="0.59" stop-color="#FFBD2B"/>
<stop offset="1" stop-color="#FFA933"/>
</linearGradient>
<linearGradient id="paint38_linear_6540_48942" x1="241.783" y1="265.571" x2="161.756" y2="126.96" gradientUnits="userSpaceOnUse">
<stop stop-color="#B75014"/>
<stop offset="0.38" stop-color="#E8692A"/>
<stop offset="1" stop-color="#F58E2F"/>
</linearGradient>
<linearGradient id="paint39_linear_6540_48942" x1="140.681" y1="238.023" x2="164.818" y2="279.831" gradientUnits="userSpaceOnUse">
<stop stop-color="#C10065"/>
<stop offset="1" stop-color="white"/>
</linearGradient>
<linearGradient id="paint40_linear_6540_48942" x1="268.201" y1="164.399" x2="292.338" y2="206.207" gradientUnits="userSpaceOnUse">
<stop stop-color="#C10065"/>
<stop offset="1" stop-color="white"/>
</linearGradient>
<linearGradient id="paint41_linear_6540_48942" x1="192.938" y1="258.799" x2="217.879" y2="301.998" gradientUnits="userSpaceOnUse">
<stop stop-color="#C10065"/>
<stop offset="1" stop-color="white"/>
</linearGradient>
<linearGradient id="paint42_linear_6540_48942" x1="260.342" y1="219.884" x2="285.775" y2="263.936" gradientUnits="userSpaceOnUse">
<stop stop-color="#C10065"/>
<stop offset="1" stop-color="white"/>
</linearGradient>
<linearGradient id="paint43_linear_6540_48942" x1="167.42" y1="137.413" x2="231.18" y2="247.849" gradientUnits="userSpaceOnUse">
<stop stop-color="#CA6B34"/>
<stop offset="0.67" stop-color="#FFA933"/>
<stop offset="1" stop-color="#FFBD2B"/>
</linearGradient>
<linearGradient id="paint44_linear_6540_48942" x1="238.999" y1="261.389" x2="210.524" y2="212.07" gradientUnits="userSpaceOnUse">
<stop stop-color="#F1CB3C"/>
<stop offset="1" stop-color="#FFC14F"/>
</linearGradient>
<linearGradient id="paint45_linear_6540_48942" x1="241.333" y1="177.789" x2="274.145" y2="234.62" gradientUnits="userSpaceOnUse">
<stop stop-color="#C10065"/>
<stop offset="1" stop-color="white"/>
</linearGradient>
<linearGradient id="paint46_linear_6540_48942" x1="206.324" y1="204.797" x2="142.563" y2="94.3606" gradientUnits="userSpaceOnUse">
<stop stop-color="#CA6B34"/>
<stop offset="0.67" stop-color="#FFA933"/>
<stop offset="1" stop-color="#FFBD2B"/>
</linearGradient>
<linearGradient id="paint47_linear_6540_48942" x1="163.435" y1="130.511" x2="191.909" y2="179.831" gradientUnits="userSpaceOnUse">
<stop stop-color="#F1CB3C"/>
<stop offset="1" stop-color="#FFC14F"/>
</linearGradient>
<linearGradient id="paint48_linear_6540_48942" x1="307.511" y1="97.3979" x2="183.812" y2="168.815" gradientUnits="userSpaceOnUse">
<stop stop-color="#C10065"/>
<stop offset="1" stop-color="white"/>
</linearGradient>
<linearGradient id="paint49_linear_6540_48942" x1="180.179" y1="158.142" x2="144.947" y2="97.1182" gradientUnits="userSpaceOnUse">
<stop stop-color="#CA6B34"/>
<stop offset="0.67" stop-color="#FFA933"/>
<stop offset="1" stop-color="#FFBD2B"/>
</linearGradient>
<linearGradient id="paint50_linear_6540_48942" x1="141.94" y1="136.728" x2="179.909" y2="114.807" gradientUnits="userSpaceOnUse">
<stop stop-color="#DE3C14"/>
<stop offset="0.07" stop-color="#C72E10"/>
<stop offset="0.19" stop-color="#AB1C0C"/>
<stop offset="0.3" stop-color="#971009"/>
<stop offset="0.41" stop-color="#8B0807"/>
<stop offset="0.52" stop-color="#870606"/>
<stop offset="0.62" stop-color="#8C0707"/>
<stop offset="0.73" stop-color="#9A0808"/>
<stop offset="0.85" stop-color="#B20B0B"/>
<stop offset="0.97" stop-color="#D30E0E"/>
<stop offset="1" stop-color="#DB0F0F"/>
</linearGradient>
<linearGradient id="paint51_linear_6540_48942" x1="160.147" y1="124.302" x2="179.402" y2="157.651" gradientUnits="userSpaceOnUse">
<stop stop-color="#C10065"/>
<stop offset="1" stop-color="white"/>
</linearGradient>
<linearGradient id="paint52_linear_6540_48942" x1="215.773" y1="220.515" x2="181.879" y2="161.809" gradientUnits="userSpaceOnUse">
<stop stop-color="#CA6B34"/>
<stop offset="0.67" stop-color="#FFA933"/>
<stop offset="1" stop-color="#FFBD2B"/>
</linearGradient>
<linearGradient id="paint53_linear_6540_48942" x1="184.753" y1="196.478" x2="192.057" y2="209.128" gradientUnits="userSpaceOnUse">
<stop stop-color="#C10065"/>
<stop offset="1" stop-color="white"/>
</linearGradient>
<linearGradient id="paint54_linear_6540_48942" x1="210.742" y1="181.474" x2="218.045" y2="194.124" gradientUnits="userSpaceOnUse">
<stop stop-color="#C10065"/>
<stop offset="1" stop-color="white"/>
</linearGradient>
<linearGradient id="paint55_linear_6540_48942" x1="193.71" y1="200.509" x2="207.353" y2="224.139" gradientUnits="userSpaceOnUse">
<stop stop-color="#C10065"/>
<stop offset="1" stop-color="white"/>
</linearGradient>
<linearGradient id="paint56_linear_6540_48942" x1="209.531" y1="191.374" x2="223.174" y2="215.004" gradientUnits="userSpaceOnUse">
<stop stop-color="#C10065"/>
<stop offset="1" stop-color="white"/>
</linearGradient>
<linearGradient id="paint57_linear_6540_48942" x1="191.226" y1="172.734" x2="213.854" y2="203.617" gradientUnits="userSpaceOnUse">
<stop stop-color="#BFD7FF"/>
<stop offset="1"/>
</linearGradient>
<linearGradient id="paint58_linear_6540_48942" x1="199.221" y1="190.993" x2="224.725" y2="176.269" gradientUnits="userSpaceOnUse">
<stop stop-color="#BFD7FF"/>
<stop offset="1"/>
</linearGradient>
<linearGradient id="paint59_linear_6540_48942" x1="199.397" y1="166.754" x2="222.015" y2="197.618" gradientUnits="userSpaceOnUse">
<stop stop-color="#BFD7FF"/>
<stop offset="1"/>
</linearGradient>
<linearGradient id="paint60_linear_6540_48942" x1="175.364" y1="184.365" x2="197.962" y2="215.24" gradientUnits="userSpaceOnUse">
<stop stop-color="#BFD7FF"/>
<stop offset="1"/>
</linearGradient>
<linearGradient id="paint61_linear_6540_48942" x1="166.81" y1="136.714" x2="152.707" y2="112.286" gradientUnits="userSpaceOnUse">
<stop stop-color="#CA6B34"/>
<stop offset="0.67" stop-color="#FFA933"/>
<stop offset="1" stop-color="#FFBD2B"/>
</linearGradient>
<linearGradient id="paint62_linear_6540_48942" x1="153.908" y1="126.704" x2="156.95" y2="131.972" gradientUnits="userSpaceOnUse">
<stop stop-color="#C10065"/>
<stop offset="1" stop-color="white"/>
</linearGradient>
<linearGradient id="paint63_linear_6540_48942" x1="164.704" y1="120.471" x2="167.746" y2="125.739" gradientUnits="userSpaceOnUse">
<stop stop-color="#C10065"/>
<stop offset="1" stop-color="white"/>
</linearGradient>
<linearGradient id="paint64_linear_6540_48942" x1="157.638" y1="128.407" x2="163.303" y2="138.219" gradientUnits="userSpaceOnUse">
<stop stop-color="#C10065"/>
<stop offset="1" stop-color="white"/>
</linearGradient>
<linearGradient id="paint65_linear_6540_48942" x1="164.221" y1="124.605" x2="169.886" y2="134.417" gradientUnits="userSpaceOnUse">
<stop stop-color="#C10065"/>
<stop offset="1" stop-color="white"/>
</linearGradient>
<linearGradient id="paint66_linear_6540_48942" x1="156.598" y1="116.841" x2="166.015" y2="129.681" gradientUnits="userSpaceOnUse">
<stop stop-color="#BFD7FF"/>
<stop offset="1"/>
</linearGradient>
<linearGradient id="paint67_linear_6540_48942" x1="159.923" y1="124.44" x2="170.533" y2="118.314" gradientUnits="userSpaceOnUse">
<stop stop-color="#BFD7FF"/>
<stop offset="1"/>
</linearGradient>
<linearGradient id="paint68_linear_6540_48942" x1="160.008" y1="114.35" x2="169.406" y2="127.2" gradientUnits="userSpaceOnUse">
<stop stop-color="#BFD7FF"/>
<stop offset="1"/>
</linearGradient>
<linearGradient id="paint69_linear_6540_48942" x1="149.998" y1="121.687" x2="159.415" y2="134.527" gradientUnits="userSpaceOnUse">
<stop stop-color="#BFD7FF"/>
<stop offset="1"/>
</linearGradient>
<linearGradient id="paint70_linear_6540_48942" x1="260.006" y1="296.402" x2="224.763" y2="235.359" gradientUnits="userSpaceOnUse">
<stop stop-color="#CA6B34"/>
<stop offset="0.67" stop-color="#FFA933"/>
<stop offset="1" stop-color="#FFBD2B"/>
</linearGradient>
<linearGradient id="paint71_linear_6540_48942" x1="221.764" y1="273.985" x2="259.732" y2="252.064" gradientUnits="userSpaceOnUse">
<stop stop-color="#DE3C14"/>
<stop offset="0.07" stop-color="#C72E10"/>
<stop offset="0.19" stop-color="#AB1C0C"/>
<stop offset="0.3" stop-color="#971009"/>
<stop offset="0.41" stop-color="#8B0807"/>
<stop offset="0.52" stop-color="#870606"/>
<stop offset="0.62" stop-color="#8C0707"/>
<stop offset="0.73" stop-color="#9A0808"/>
<stop offset="0.85" stop-color="#B20B0B"/>
<stop offset="0.97" stop-color="#D30E0E"/>
<stop offset="1" stop-color="#DB0F0F"/>
</linearGradient>
<linearGradient id="paint72_linear_6540_48942" x1="239.961" y1="262.54" x2="259.226" y2="295.908" gradientUnits="userSpaceOnUse">
<stop stop-color="#C10065"/>
<stop offset="1" stop-color="white"/>
</linearGradient>
<linearGradient id="paint73_linear_6540_48942" x1="246.624" y1="273.953" x2="232.531" y2="249.543" gradientUnits="userSpaceOnUse">
<stop stop-color="#CA6B34"/>
<stop offset="0.67" stop-color="#FFA933"/>
<stop offset="1" stop-color="#FFBD2B"/>
</linearGradient>
<linearGradient id="paint74_linear_6540_48942" x1="233.731" y1="263.961" x2="236.773" y2="269.229" gradientUnits="userSpaceOnUse">
<stop stop-color="#C10065"/>
<stop offset="1" stop-color="white"/>
</linearGradient>
<linearGradient id="paint75_linear_6540_48942" x1="244.527" y1="257.728" x2="247.569" y2="262.996" gradientUnits="userSpaceOnUse">
<stop stop-color="#C10065"/>
<stop offset="1" stop-color="white"/>
</linearGradient>
<linearGradient id="paint76_linear_6540_48942" x1="237.451" y1="265.649" x2="243.127" y2="275.479" gradientUnits="userSpaceOnUse">
<stop stop-color="#C10065"/>
<stop offset="1" stop-color="white"/>
</linearGradient>
<linearGradient id="paint77_linear_6540_48942" x1="244.038" y1="261.847" x2="249.714" y2="271.677" gradientUnits="userSpaceOnUse">
<stop stop-color="#C10065"/>
<stop offset="1" stop-color="white"/>
</linearGradient>
<linearGradient id="paint78_linear_6540_48942" x1="236.423" y1="254.098" x2="245.828" y2="266.919" gradientUnits="userSpaceOnUse">
<stop stop-color="#BFD7FF"/>
<stop offset="1"/>
</linearGradient>
<linearGradient id="paint79_linear_6540_48942" x1="239.736" y1="261.682" x2="250.345" y2="255.556" gradientUnits="userSpaceOnUse">
<stop stop-color="#BFD7FF"/>
<stop offset="1"/>
</linearGradient>
<linearGradient id="paint80_linear_6540_48942" x1="239.821" y1="251.592" x2="249.219" y2="264.442" gradientUnits="userSpaceOnUse">
<stop stop-color="#BFD7FF"/>
<stop offset="1"/>
</linearGradient>
<linearGradient id="paint81_linear_6540_48942" x1="229.811" y1="258.929" x2="239.227" y2="271.769" gradientUnits="userSpaceOnUse">
<stop stop-color="#BFD7FF"/>
<stop offset="1"/>
</linearGradient>
<radialGradient id="paint82_radial_6540_48942" cx="0" cy="0" r="1" gradientUnits="userSpaceOnUse" gradientTransform="translate(232.015 154.971) rotate(-30) scale(51.0383 51.0383)">
<stop stop-color="#F4A940"/>
<stop offset="0.09" stop-color="#E6A03C"/>
<stop offset="0.27" stop-color="#C38733"/>
<stop offset="0.51" stop-color="#895F24"/>
<stop offset="0.8" stop-color="#39280F"/>
<stop offset="1"/>
</radialGradient>
</defs>
</svg>
