<svg width="595" height="584" viewBox="0 0 595 584" fill="none" xmlns="http://www.w3.org/2000/svg">
<g filter="url(#filter0_f_7207_72797)">
<path d="M179.414 374.497L219.437 476.968L255.858 429.812L230.381 357.574L179.414 374.497Z" fill="url(#paint0_linear_7207_72797)"/>
<g style="mix-blend-mode:multiply" opacity="0.6">
<path d="M214.485 464.294L252.728 420.814L255.855 429.809L219.435 476.966L214.485 464.294Z" fill="#8E37E2"/>
</g>
<path style="mix-blend-mode:multiply" d="M198.329 419.419C196.825 407.297 205.397 412.796 211.524 428.484C217.652 444.171 225.237 469.435 225.237 469.435L228.343 464.711C228.343 464.711 212.19 424.256 212.419 418.55C212.648 412.843 224.701 409.996 240.323 449.991L255.881 429.871L230.405 357.634L179.438 374.557L201.365 430.696L198.329 419.419Z" fill="url(#paint1_linear_7207_72797)"/>
<path d="M440.191 272.642L480.214 375.113L421.474 365.125L391.246 294.743L440.191 272.642Z" fill="url(#paint2_linear_7207_72797)"/>
<g style="mix-blend-mode:multiply" opacity="0.6">
<path d="M475.264 362.441L417.676 356.391L421.473 365.124L480.213 375.112L475.264 362.441Z" fill="#8E37E2"/>
</g>
<path style="mix-blend-mode:multiply" d="M456.727 318.492C449.648 308.547 447.072 318.401 453.199 334.088C459.326 349.776 470.841 373.505 470.841 373.505L465.387 372.124C465.387 372.124 449.814 331.443 445.778 327.402C441.742 323.361 430.804 329.424 446.425 369.419L421.349 365.171L391.121 294.789L440.065 272.688L462.017 328.889L456.727 318.492Z" fill="url(#paint3_linear_7207_72797)"/>
<path d="M326.476 402.892L365.738 503.414C329.019 499.289 265.064 470.377 265.064 470.377L237.914 400.865L326.476 402.892Z" fill="url(#paint4_linear_7207_72797)"/>
<g style="mix-blend-mode:multiply" opacity="0.6">
<path d="M357.801 483.094L365.701 503.32C328.982 499.195 265.028 470.284 265.028 470.284L258.258 452.951C274.195 462.385 305.612 476.304 357.801 483.094Z" fill="#8E37E2"/>
</g>
<path d="M352.37 392.781L391.632 493.302C415.835 465.382 443.264 400.778 443.264 400.778L416.114 331.266L352.37 392.781Z" fill="url(#paint5_linear_7207_72797)"/>
<g style="mix-blend-mode:multiply" opacity="0.6">
<path d="M383.695 472.983L391.595 493.209C415.798 465.289 443.227 400.685 443.227 400.685L436.457 383.353C431.133 401.091 417.619 432.559 383.695 472.983Z" fill="#8E37E2"/>
</g>
<path style="mix-blend-mode:multiply" d="M274.979 474.545C274.979 474.545 256.277 428.732 263.775 426.716C271.274 424.7 286.527 427.168 292.51 434.486C298.492 441.804 316.653 490.638 316.653 490.638L320.275 491.821C320.275 491.821 293.872 434.2 300.607 434.904C305.54 435.309 310.301 436.903 314.483 439.549C318.666 442.196 322.145 445.816 324.623 450.1C332.352 462.248 348.099 500.228 348.099 500.228L365.656 503.201L326.394 402.679L237.832 400.652L264.947 470.073L274.979 474.545Z" fill="url(#paint6_linear_7207_72797)"/>
<path style="mix-blend-mode:multiply" d="M438.801 410.565C438.801 410.565 418.285 356.332 411.406 359.932C404.526 363.532 414.905 391.005 418.189 399.412C421.473 407.819 429.203 431.026 429.203 431.026L426.591 436.294C426.591 436.294 403.173 374.628 398.698 379.711C394.223 384.794 377.065 413.403 379.586 427.585C382.106 441.767 399.387 483.046 399.387 483.046L391.562 493.123L352.3 392.602L416.043 331.087L443.158 400.508L438.801 410.565Z" fill="url(#paint7_linear_7207_72797)"/>
<path d="M310.35 232.884L477.043 166.547L472.393 200.663L331.016 260.446L310.35 232.884Z" fill="url(#paint8_linear_7207_72797)"/>
<path d="M462.147 172.365L442.822 180.054L437.458 215.22L457.135 206.903L462.147 172.365Z" fill="url(#paint9_linear_7207_72797)"/>
<g style="mix-blend-mode:multiply" opacity="0.5">
<path d="M326.372 252.15L473.75 190.654L472.393 200.663L331.017 260.447L326.372 252.15Z" fill="#DE5634"/>
</g>
<g style="mix-blend-mode:soft-light" opacity="0.4">
<path d="M405.662 197.271C404.949 199.13 416.447 211.491 418.645 210.106C420.842 208.721 469.468 190.746 471.048 188.409C472.628 186.072 475.905 170.643 473.567 169.871C471.229 169.099 406.339 195.497 405.662 197.271Z" fill="#FFDF66"/>
</g>
<g style="mix-blend-mode:multiply" opacity="0.5">
<path d="M401.427 196.502C401.427 196.502 414.395 211.097 416.06 214.73C417.093 217.733 417.418 220.934 417.01 224.084L331.014 260.446L310.348 232.883L401.427 196.502Z" fill="#DE5634"/>
</g>
<path d="M249.002 256.847L81.4766 321.051L108.018 342.983L252.488 291.12L249.002 256.847Z" fill="url(#paint10_linear_7207_72797)"/>
<path d="M96.082 315.483L115.472 308.05L143.251 330.272L123.176 337.481L96.082 315.483Z" fill="url(#paint11_linear_7207_72797)"/>
<g style="mix-blend-mode:multiply" opacity="0.5">
<path d="M250.308 281.86L100.234 336.544L108.016 342.984L252.486 291.12L250.308 281.86Z" fill="#DE5634"/>
</g>
<g style="mix-blend-mode:soft-light" opacity="0.4">
<path d="M153.388 295.102C159.065 297.414 156.879 313.75 154.325 314.221C151.771 314.692 103.446 333.707 100.7 333.06C97.9545 332.412 85.0876 323.289 86.2833 321.137C87.4789 318.984 150.07 293.8 153.388 295.102Z" fill="#FFDF66"/>
</g>
<g style="mix-blend-mode:multiply" opacity="0.5">
<path d="M157.374 291.822C157.374 291.822 157.731 311.343 158.97 315.143C160.246 318.039 162.172 320.602 164.599 322.634L252.475 291.085L248.989 256.811L157.374 291.822Z" fill="#DE5634"/>
</g>
<path d="M314.788 189.509L481.45 123.184L476.812 157.33L335.423 217.083L314.788 189.509Z" fill="url(#paint12_linear_7207_72797)"/>
<path d="M467.585 128.674L448.259 136.362L442.896 171.529L462.573 163.212L467.585 128.674Z" fill="url(#paint13_linear_7207_72797)"/>
<g style="mix-blend-mode:multiply" opacity="0.5">
<path d="M330.79 208.814L478.156 147.288L476.811 157.328L335.423 217.081L330.79 208.814Z" fill="#DE5634"/>
</g>
<g style="mix-blend-mode:soft-light" opacity="0.4">
<path d="M410.083 153.94C409.369 155.799 420.856 168.129 423.053 166.744C425.251 165.359 473.889 147.416 475.468 145.078C477.048 142.741 480.344 127.27 478.018 126.528C475.692 125.787 410.729 152.178 410.083 153.94Z" fill="#FFDF66"/>
</g>
<g style="mix-blend-mode:multiply" opacity="0.5">
<path d="M384.137 161.934C389.384 167.704 394.271 173.791 398.77 180.162C399.787 183.169 400.112 186.366 399.72 189.516L335.427 217.085L314.792 189.51L384.137 161.934Z" fill="#DE5634"/>
</g>
<path d="M215.303 227.363L47.7773 291.567L74.3311 313.53L218.789 261.637L215.303 227.363Z" fill="url(#paint14_linear_7207_72797)"/>
<path d="M62.2266 286.138L81.6474 278.693L109.426 300.915L89.3205 308.136L62.2266 286.138Z" fill="url(#paint15_linear_7207_72797)"/>
<g style="mix-blend-mode:multiply" opacity="0.5">
<path d="M216.621 252.408L66.5352 307.062L74.3286 313.532L218.787 261.638L216.621 252.408Z" fill="#DE5634"/>
</g>
<g style="mix-blend-mode:soft-light" opacity="0.4">
<path d="M119.692 265.627C125.382 267.969 123.184 284.274 120.63 284.746C118.075 285.217 69.7625 304.262 67.0049 303.584C64.2473 302.906 51.3923 293.813 52.588 291.661C53.7836 289.509 116.405 264.313 119.692 265.627Z" fill="#FFDF66"/>
</g>
<g style="mix-blend-mode:multiply" opacity="0.5">
<path d="M146.569 254.722C146.569 254.722 146.927 274.243 148.165 278.043C149.475 280.941 151.425 283.504 153.867 285.541L218.851 262.617L215.365 228.344L146.569 254.722Z" fill="#DE5634"/>
</g>
<path d="M171.951 280.688L153.637 258.07L157.791 244.616L199.982 189.763L174.819 125.338L179.85 117.545L195.713 92.8124L238.64 202.716L171.951 280.688Z" fill="url(#paint16_linear_7207_72797)"/>
<path d="M153.636 258.069L208.261 190.286L179.849 117.545L174.818 125.338L199.982 189.763L157.79 244.615L153.636 258.069Z" fill="url(#paint17_linear_7207_72797)"/>
<g style="mix-blend-mode:soft-light" opacity="0.4">
<path d="M181.46 116.92C182.7 121.175 203.401 172.107 206.241 172.367C209.081 172.627 218.803 160.754 218.702 157.529C218.6 154.303 196.63 99.7605 195.007 100.64C193.385 101.519 180.573 113.931 181.46 116.92Z" fill="#FFDF66"/>
</g>
<path style="mix-blend-mode:multiply" opacity="0.37" d="M210.669 190.435C206.405 198.033 157.199 256.679 157.214 259.236C157.224 262.497 170.751 272.591 174.24 269.929C177.73 267.267 235.729 195.989 235.108 193.949C234.487 191.91 230.374 180.842 228.304 180.844C226.233 180.845 212.272 187.527 210.669 190.435Z" fill="url(#paint18_linear_7207_72797)"/>
<path d="M154.504 260.291L210.062 190.493L181.219 115.568L179.849 117.543L208.26 190.284L153.636 258.067L154.504 260.291Z" fill="#B33114"/>
<g style="mix-blend-mode:soft-light" opacity="0.4">
<path d="M200.907 190.246C196.902 192.126 158.651 244.842 159.02 245.787C159.389 246.731 152.416 255.844 154.672 254.788C156.927 253.731 207.135 192.167 206.738 190.882C206.342 189.598 203.163 189.189 200.907 190.246Z" fill="#FFDF66"/>
</g>
<g style="mix-blend-mode:soft-light" opacity="0.4">
<path d="M154.533 260.284C154.533 260.284 181.829 229.857 194.909 212.11C207.989 194.362 210.668 190.436 210.668 190.436L154.533 260.284Z" fill="#FFDF66"/>
</g>
<g style="mix-blend-mode:multiply" opacity="0.5">
<path d="M196.756 181.508L201.407 172.74L202.93 172.146L219.15 152.82L238.638 202.716L219.732 223.792L195.433 195.647L199.981 189.763L196.756 181.508Z" fill="#DE5634"/>
</g>
<path d="M383.165 198.193L381.3 169.15L369.127 162.073L300.928 150.338L275.764 85.9126L266.783 83.5925L237.93 76.3252L280.761 185.985L383.165 198.193Z" fill="url(#paint19_linear_7207_72797)"/>
<path d="M381.298 169.145L295.193 156.329L266.781 83.5879L275.762 85.908L300.926 150.333L369.125 162.069L381.298 169.145Z" fill="url(#paint20_linear_7207_72797)"/>
<g style="mix-blend-mode:soft-light" opacity="0.4">
<path d="M264.011 84.6751C265.983 88.6446 287.018 139.445 285.076 141.573C283.133 143.701 266.812 141.193 264.7 138.753C262.589 136.313 242.476 81.8519 244.173 81.4346C245.871 81.0172 262.637 81.8765 264.011 84.6751Z" fill="#FFDF66"/>
</g>
<path style="mix-blend-mode:multiply" opacity="0.37" d="M293.644 158.024C301.747 160.793 377.827 170.503 379.549 172.394C381.752 174.799 378.647 191.389 374.277 191.796C369.908 192.204 278.861 179.141 277.935 177.22C277.01 175.3 272.532 164.375 274.055 162.972C275.579 161.57 290.373 157.02 293.644 158.024Z" fill="url(#paint21_linear_7207_72797)"/>
<path d="M382.169 171.368L294.012 157.703L264.438 83.0635L266.783 83.5866L295.195 156.328L381.3 169.144L382.169 171.368Z" fill="#B33114"/>
<g style="mix-blend-mode:soft-light" opacity="0.4">
<path d="M300.451 151.366C304.671 150.034 368.525 162.869 368.894 163.814C369.263 164.758 380.567 166.733 378.192 167.485C375.817 168.237 297.175 156.999 296.596 155.786C296.016 154.572 298.321 152.022 300.451 151.366Z" fill="#FFDF66"/>
</g>
<g style="mix-blend-mode:soft-light" opacity="0.4">
<path d="M382.169 171.374C382.169 171.374 341.476 167.502 319.8 163.329C298.123 159.157 293.645 158.027 293.645 158.027L382.169 171.374Z" fill="#FFDF66"/>
</g>
<g style="mix-blend-mode:multiply" opacity="0.5">
<path d="M297.702 142.078L288.34 138.783L286.817 139.378L261.793 136.162L281.281 186.057L309.468 188.74L308.258 151.577L300.926 150.333L297.702 142.078Z" fill="#DE5634"/>
</g>
<path d="M210.465 391.259C210.583 392.372 163.559 394.132 163.559 394.132C146.869 382.456 131.53 368.959 117.824 353.892L188.524 326.277L210.465 391.259Z" fill="url(#paint22_linear_7207_72797)"/>
<path d="M131.32 348.621C131.32 348.621 161.205 376.235 165.69 378.731L201.832 365.738L200.88 363.301C200.88 363.301 168.242 376.365 165.836 375.689C163.431 375.014 133.514 347.764 133.514 347.764L131.32 348.621Z" fill="#B33114"/>
<path d="M131.32 348.621L165.69 378.731C159.09 374.346 152.78 369.54 146.799 364.342C138.902 357.246 131.32 348.621 131.32 348.621Z" fill="white"/>
<g style="mix-blend-mode:soft-light" opacity="0.4">
<path d="M137.283 348.965C143.213 356.058 161.309 370.3 163.563 369.42C165.817 368.539 191.866 357.839 192.797 353.121C193.728 348.404 188.691 329.307 186.447 329.762C184.202 330.218 134.648 345.816 137.283 348.965Z" fill="#FFDF66"/>
</g>
<g style="mix-blend-mode:soft-light" opacity="0.4">
<path d="M120.732 354.411C127.199 361.083 144.517 377.736 146.349 377.301C148.18 376.867 154.314 375.313 153.454 372.841C151.931 368.942 132.265 350.502 129.626 350.936C126.987 351.37 119.105 352.764 120.732 354.411Z" fill="#FFDF66"/>
</g>
<path style="mix-blend-mode:multiply" opacity="0.37" d="M149.089 379.282C149.772 381.929 164.295 391.247 166.223 391.688C168.15 392.129 203.961 389.973 205.492 387.69C207.023 385.407 197.497 358.233 195.573 358.071C193.65 357.91 148.372 376.367 149.089 379.282Z" fill="url(#paint23_linear_7207_72797)"/>
<g style="mix-blend-mode:multiply" opacity="0.5">
<path d="M164.767 335.56C175.783 353.715 184.995 372.905 192.271 392.856L210.436 391.273L188.497 326.115L164.767 335.56Z" fill="#DE5634"/>
</g>
<path d="M429.786 305.598C430.452 306.496 466.221 275.919 466.221 275.919C470.579 256.022 472.71 235.702 472.575 215.334L401.875 242.948L429.786 305.598Z" fill="url(#paint24_linear_7207_72797)"/>
<path d="M459.079 220.601C459.079 220.601 455.882 261.135 454.306 265.999L418.895 280.953L417.944 278.517C417.944 278.517 450.766 266.013 452.077 263.886C453.388 261.759 456.916 221.446 456.916 221.446L459.079 220.601Z" fill="#B33114"/>
<path d="M459.08 220.603L454.308 266.001C456.188 258.304 457.571 250.493 458.445 242.618C459.473 232.035 459.08 220.603 459.08 220.603Z" fill="white"/>
<g style="mix-blend-mode:soft-light" opacity="0.4">
<path d="M454.932 224.899C455.379 234.133 451.756 256.859 449.472 257.751C447.187 258.643 420.812 268.418 416.931 265.581C413.049 262.744 403.808 245.288 405.767 244.101C407.727 242.915 454.734 220.798 454.932 224.899Z" fill="#FFDF66"/>
</g>
<g style="mix-blend-mode:soft-light" opacity="0.4">
<path d="M470.819 217.671C470.555 226.972 469.139 250.942 467.467 251.876C465.796 252.81 460.263 255.813 459.22 253.412C457.697 249.513 459.659 222.626 461.924 221.145C464.189 219.663 470.868 215.369 470.819 217.671Z" fill="#FFDF66"/>
</g>
<path style="mix-blend-mode:multiply" opacity="0.37" d="M466.797 255.189C468.089 257.598 463.727 274.293 462.608 275.924C461.49 277.554 433.698 300.241 431.055 299.588C428.413 298.934 416.968 272.509 418.243 271.099C419.517 269.688 465.349 252.56 466.797 255.189Z" fill="url(#paint25_linear_7207_72797)"/>
<g style="mix-blend-mode:multiply" opacity="0.5">
<path d="M425.634 233.671C429.828 254.489 436.051 274.847 444.214 294.453L429.785 305.601L401.754 242.822L425.634 233.671Z" fill="#DE5634"/>
</g>
<path d="M238.015 136.852L148.384 248.852L210.656 408.285L352.469 429.887L442.099 317.887L379.827 158.454L238.015 136.852Z" fill="url(#paint26_linear_7207_72797)"/>
<path d="M226.861 388.018L174.036 252.771L247.451 161.007L363.626 178.72L416.451 313.967L343.036 405.731L226.861 388.018Z" fill="url(#paint27_linear_7207_72797)"/>
<path d="M232.267 381.273L182.583 254.068L250.604 169.08L358.221 185.467L407.905 312.672L339.884 397.66L232.267 381.273Z" fill="url(#paint28_linear_7207_72797)"/>
<g style="mix-blend-mode:soft-light" opacity="0.4">
<path d="M151.445 248.148C151.691 253.002 165.934 253.513 173.969 248.198C182.004 242.883 244.68 163.353 244.982 158.285C243.252 152.097 240.908 146.097 237.987 140.374C235.123 141.492 151.337 245.803 151.445 248.148Z" fill="#FFDF66"/>
</g>
<g style="mix-blend-mode:soft-light" opacity="0.4">
<path d="M376.553 160.224C379.663 163.96 369.415 174.036 360.026 175.527C350.637 177.017 251.112 160.314 246.872 157.547C244.667 156.126 237.987 140.373 239.876 139.635C242.739 138.517 375.044 158.426 376.553 160.224Z" fill="#FFDF66"/>
</g>
<path style="mix-blend-mode:multiply" opacity="0.37" d="M186.741 338.877C187.805 343.938 209.485 405.019 212.344 404.429C215.203 403.839 224.398 390.347 223.516 386.022C222.635 381.697 206.727 340.339 204.266 336.736C201.806 333.133 184.915 330.426 186.741 338.877Z" fill="url(#paint29_linear_7207_72797)"/>
<path style="mix-blend-mode:multiply" opacity="0.37" d="M412.185 250.825C414.833 255.267 440.291 314.873 437.789 316.377C435.287 317.881 419.382 314.193 417.099 310.415C414.816 306.637 398.481 265.446 397.848 261.129C397.216 256.812 407.74 243.398 412.185 250.825Z" fill="url(#paint30_linear_7207_72797)"/>
<path style="mix-blend-mode:multiply" opacity="0.37" d="M215.883 404.945C218.093 406.469 346.4 427.379 347.953 426.772C348.745 426.463 343.863 410.816 343.161 409.018C341.305 404.267 230.01 391.318 228.217 391.491C225.58 391.749 213.673 403.421 215.883 404.945Z" fill="url(#paint31_linear_7207_72797)"/>
<path style="mix-blend-mode:multiply" opacity="0.37" d="M436.805 320.516C436.213 323.135 354.011 426.019 352.457 426.626C349.471 420.162 347.01 413.469 345.096 406.611C347.169 401.939 416.027 318.555 417.341 317.515C419.43 316.032 437.397 317.897 436.805 320.516Z" fill="url(#paint32_linear_7207_72797)"/>
<g style="mix-blend-mode:multiply" opacity="0.37">
<path d="M234.968 376.324C215.11 343.46 217.592 339.928 255.486 307.959C293.38 275.991 352.348 208.723 365.368 222.912C378.388 237.101 403.838 308.822 403.863 313.2C403.888 317.579 344.679 391.331 338.409 393.885C332.139 396.439 237.215 380.011 234.968 376.324Z" fill="#ED8A1D"/>
</g>
<g style="mix-blend-mode:soft-light" opacity="0.4">
<path d="M356.676 187.087C354.98 187.328 257.711 172.447 253.455 174.495C249.2 176.543 204.136 223.951 189.057 252.31C185.011 259.929 217.652 336.846 222.667 333.237C227.682 329.628 219.528 296.617 274.037 254.964C327.697 213.923 359.904 218.722 367.5 218.845C369.656 218.88 360.465 186.449 356.676 187.087Z" fill="#FFDF66"/>
</g>
<g style="mix-blend-mode:multiply" opacity="0.5">
<path d="M226.862 388.02L174.037 252.773L247.416 160.918L363.626 178.723L416.452 313.97L407.905 312.674C407.905 312.674 362.407 194.927 358.439 192.229C344.161 182.639 261.609 178.019 251.547 186.057C241.486 194.094 189.195 245.202 186.586 259.106C185.704 263.769 232.267 381.275 232.267 381.275L226.862 388.02Z" fill="#DE5634"/>
</g>
<g style="mix-blend-mode:soft-light" opacity="0.4">
<path d="M293.768 227.283C321.587 228.846 357.237 215.132 359.688 211.788C362.138 208.443 358.388 192.46 352.283 191.93C346.178 191.401 297.156 185.621 287.399 192.1C277.642 198.579 288.979 226.977 293.768 227.283Z" fill="#FFDF66"/>
</g>
<path opacity="0.8" d="M167.36 297.438C167.217 297.073 150.805 252.085 151.444 248.149C152.083 244.213 237.039 141.727 239.874 139.637C242.708 137.547 292.474 145.142 292.474 145.142L238.014 136.853L148.353 248.865L167.36 297.438Z" fill="#700000"/>
<path d="M298.18 168.646C298.18 168.646 360.358 177.819 362.24 180.84C364.122 183.862 399.475 270.778 399.475 270.778C399.475 270.778 365.459 182.251 363.532 178.756C361.605 175.26 298.18 168.646 298.18 168.646Z" fill="white"/>
<path d="M202.981 326.882C202.981 326.882 172.721 254.442 172.677 251.721C172.632 249 247.449 161.007 247.449 161.007C247.449 161.007 176.506 249.031 175.792 253.137C175.079 257.242 202.981 326.882 202.981 326.882Z" fill="white"/>
<path opacity="0.8" d="M210.657 408.286L352.5 429.876L442.161 317.864L427.979 281.554C427.979 281.554 439.377 313.615 438.579 318.491C437.78 323.367 357.575 424.172 352.46 426.627C347.345 429.081 216.772 407.582 212.346 404.431C207.92 401.279 178.926 327.046 178.926 327.046L210.657 408.286Z" fill="#700000"/>
<g style="mix-blend-mode:soft-light" opacity="0.4">
<path d="M213.343 353.413C213.343 353.413 225.192 384.736 227.939 386.647C230.687 388.558 285.808 397.011 285.808 397.011C285.808 397.011 227.261 390.844 226.04 389.425C224.819 388.007 213.343 353.413 213.343 353.413Z" fill="#FFDF66"/>
</g>
<g style="mix-blend-mode:soft-light" opacity="0.4">
<path d="M277.09 401.118C273.679 402.451 265.625 410.055 268.565 411.47C271.505 412.885 341.875 424.966 349.346 424.857C351.757 424.828 346.28 411.344 341.703 408.076C339.759 406.694 287.679 396.948 277.09 401.118Z" fill="#FFDF66"/>
</g>
<path d="M298.978 150.464C297.311 151.677 306.637 157.128 309.919 156.723C313.202 156.319 316.408 152.574 314.436 151.659C312.464 150.744 301.563 148.542 298.978 150.464Z" fill="white"/>
<path d="M315.883 152.852C313.348 154.72 323.453 165.132 326.564 166.445C329.675 167.757 351.089 163.887 349.24 160.502C347.391 157.116 319.457 150.227 315.883 152.852Z" fill="white"/>
<g style="mix-blend-mode:multiply" opacity="0.5">
<path d="M386.174 358.97C387.923 370.82 390.83 377.093 392.255 376.607C393.68 376.12 432.354 325.836 433.255 324.01C434.157 322.183 421.184 317.104 417.371 319.295C413.558 321.487 385.591 354.423 386.174 358.97Z" fill="#DE5634"/>
</g>
<g style="mix-blend-mode:multiply" opacity="0.5">
<path d="M181.401 253.474C178.755 250.295 175.008 251.758 176.249 256.013C177.489 260.268 206.53 336.239 208.059 335.747C209.587 335.256 211.285 330.344 210.728 328.56C210.172 326.777 182.658 254.984 181.401 253.474Z" fill="#DE5634"/>
</g>
<g style="mix-blend-mode:multiply" opacity="0.5">
<path d="M358.862 184.691C359.251 186.225 386.503 258.155 387.417 257.798C388.33 257.441 391.225 252.448 390.535 250.681C389.845 248.915 362.409 181.726 361.809 181.539C361.209 181.352 358.593 183.462 358.862 184.691Z" fill="#DE5634"/>
</g>
<g style="mix-blend-mode:multiply" opacity="0.5">
<path d="M250.136 167.891C250.683 169.292 218.985 208.495 218.041 208.864C217.097 209.232 214.981 202.827 215.957 201.462C216.934 200.098 247.071 160.943 247.685 161.616C248.653 163.645 249.472 165.742 250.136 167.891Z" fill="#DE5634"/>
</g>
<path d="M407.934 323.544C405.345 324.555 398.505 333.02 400.151 335.256C401.797 337.492 408.277 338.085 409.077 336.088C409.877 334.09 409.664 322.939 407.934 323.544Z" fill="#B33114"/>
<path d="M411.976 324C411.414 325.168 410.607 328.853 413.024 329.559C415.441 330.265 419.418 324.358 418.198 323.571C416.978 322.784 412.717 322.482 411.976 324Z" fill="#B33114"/>
<g style="mix-blend-mode:multiply" opacity="0.5">
<path d="M400.359 332.366C399.386 336.257 408.994 334.611 409.188 331.691C409.382 328.772 409.236 322.825 407.838 323.652C404.831 326.073 402.296 329.027 400.359 332.366Z" fill="#DE5634"/>
</g>
<path d="M399.899 334.512C401.165 335.983 402.914 336.955 404.832 337.255C407.409 337.652 409.069 336.688 409.218 335.542C408.943 336.351 408.401 337.042 407.681 337.502C406.961 337.962 406.106 338.163 405.256 338.072C400.273 337.807 399.899 334.512 399.899 334.512Z" fill="#DAE1EF"/>
<g style="mix-blend-mode:multiply" opacity="0.5">
<path d="M413.007 323.669C411.853 326.648 414.62 329.148 415.676 328.525C416.732 327.902 419.226 324.4 418.2 323.572C417.174 322.744 413.255 323.046 413.007 323.669Z" fill="#DE5634"/>
</g>
<path d="M411.975 324C411.975 324 411.135 327.242 412.437 328.419C413.739 329.595 414.805 329.179 414.805 329.179C414.805 329.179 412.946 331.52 411.877 330.042C410.021 327.537 411.975 324 411.975 324Z" fill="#DAE1EF"/>
<path d="M237.916 171.748C231.182 172.483 227.586 178.557 226.058 182.735C224.53 186.912 226.767 188.145 229.971 186.192C233.175 184.238 240.81 171.426 237.916 171.748Z" fill="#B33114"/>
<g style="mix-blend-mode:multiply" opacity="0.5">
<path d="M237.921 171.754C235.799 172.13 233.788 172.977 232.037 174.232C230.285 175.487 228.837 177.119 227.799 179.008C226.695 181.124 231.638 184.073 233.566 182.267C235.494 180.461 240.102 171.675 237.921 171.754Z" fill="#DE5634"/>
</g>
<g style="mix-blend-mode:soft-light" opacity="0.4">
<path d="M227.013 180.508C227.013 180.508 221.778 187.96 223.427 189.843C225.075 191.727 231.839 184.416 231.839 184.416C231.839 184.416 228.03 187.519 226.276 185.992C224.521 184.466 227.013 180.508 227.013 180.508Z" fill="#FFDF66"/>
</g>
<path d="M231.249 387.392C228.281 389.499 240.719 392.4 243.207 391.85C245.695 391.299 241.03 386.275 239.528 385.668C236.665 385.507 233.81 386.101 231.249 387.392Z" fill="white"/>
<path d="M324.476 358.491L177.786 335.459C177.523 343.071 178.289 350.685 180.061 358.092L193.151 368.146L337.144 390.477L427.701 276.535L429.629 260.616C426.679 253.7 422.538 247.355 417.393 241.872L324.476 358.491Z" fill="url(#paint33_linear_7207_72797)"/>
<path d="M193 368.206L180.062 358.093L333.864 382.525L429.66 260.604L427.733 276.524L336.993 390.537L193 368.206Z" fill="url(#paint34_linear_7207_72797)"/>
<g style="mix-blend-mode:multiply" opacity="0.5">
<path d="M180.062 358.093L193.153 368.147L195.348 368.553L196.882 372.483C196.882 372.483 204.916 373.277 220.919 375.417C221.441 375.494 232.493 380.692 232.493 380.692C232.493 380.692 337.017 398.778 340.064 397.588C343.993 396.053 407.478 311.047 407.478 311.047C407.478 311.047 411.886 303.006 412.371 302.36L428.849 283.425L426.719 277.973L427.916 276.452L429.843 260.533L333.864 382.525L180.062 358.093Z" fill="#DE5634"/>
</g>
<path style="mix-blend-mode:multiply" opacity="0.69" d="M324.479 358.496L333.878 382.561L429.674 260.639C426.619 253.78 422.488 247.453 417.438 241.896L324.479 358.496Z" fill="url(#paint35_linear_7207_72797)"/>
<g style="mix-blend-mode:soft-light" opacity="0.4">
<path d="M186 338.327C183.716 339.219 193.486 358.75 202.239 360.667C216.035 363.81 297.954 376.963 302.334 375.323C305.38 374.133 298.499 357.055 297.061 356.071C294.368 354.209 189.412 336.994 186 338.327Z" fill="#FFDF66"/>
</g>
<g style="mix-blend-mode:soft-light" opacity="0.4">
<path d="M353.303 323.259C352.454 325.31 360.014 344.125 362.267 342.613C378.539 325.021 393.508 306.267 407.055 286.5C419.661 266.551 415.461 248.425 411.625 250.38C411.486 250.294 355.056 319.028 353.303 323.259Z" fill="#FFDF66"/>
</g>
<path d="M259.07 370.626C259.07 370.626 329.685 382.612 333.401 381.16C337.117 379.709 371.891 334.179 371.891 334.179C371.891 334.179 335.873 383.355 334.563 383.866C333.253 384.378 259.07 370.626 259.07 370.626Z" fill="white"/>
<g style="mix-blend-mode:multiply" opacity="0.5">
<path d="M204.584 178.628C205.028 181.048 205.664 183.429 206.487 185.748C207.178 186.707 219.853 195.519 219.853 195.519L222.994 203.561L272.085 223.181L294.986 176.916L293.488 168.408C293.488 168.408 296.525 152.723 295.858 151.017C295.192 149.311 284.615 143.893 284.615 143.893L238.015 136.852L204.584 178.628Z" fill="#DE5634"/>
</g>
<path d="M291.506 149.312L291.216 149.109L227.812 108.573L227.527 108.473L227.433 108.861L208.27 181.506L208.195 181.852L208.473 182.024L271.846 222.572L272.084 223.182L272.179 222.794L272.541 223.003L272.303 222.394L291.418 149.627L291.506 149.312Z" fill="url(#paint36_linear_7207_72797)"/>
<g style="mix-blend-mode:multiply" opacity="0.5">
<path d="M216.813 178.483L232.106 120.199L282.883 152.677L267.549 210.942L216.813 178.483Z" fill="#DE5634"/>
</g>
<path d="M218.553 177.809L233.037 122.579L281.151 153.359L266.624 208.571L218.553 177.809Z" fill="url(#paint37_linear_7207_72797)"/>
<g style="mix-blend-mode:soft-light" opacity="0.4">
<path d="M228.232 111.711C225.86 116.604 209.314 178.151 210.618 179.152C211.921 180.152 225.61 174.841 251.901 164.221C278.192 153.601 289.109 149.372 289.055 148.516C289.001 147.659 228.604 110.688 228.232 111.711Z" fill="#FFDF66"/>
</g>
<path style="mix-blend-mode:multiply" opacity="0.37" d="M210.052 181.301C210.362 183.532 269.364 220.978 271.48 219.204C273.595 217.43 291.402 150.931 288.308 150.56C285.214 150.189 209.759 179.203 210.052 181.301Z" fill="url(#paint38_linear_7207_72797)"/>
<g style="mix-blend-mode:multiply" opacity="0.5">
<path d="M302.362 300.882L267.376 341.194L256.64 288.899L207.48 268.112L253.909 241.727L258.484 188.542L297.925 224.535L349.916 212.479L327.858 261.082L355.408 306.81L302.362 300.882Z" fill="#DE5634"/>
</g>
<path d="M345.422 216.163L320.348 221.989L313.479 223.548L297.198 227.345L260.601 193.962L256.349 243.299L213.282 267.774L258.908 287.063L268.873 335.587L301.303 298.169L350.539 303.689L324.978 261.257L345.422 216.163Z" fill="url(#paint39_linear_7207_72797)"/>
<path style="mix-blend-mode:multiply" opacity="0.37" d="M213.066 267.855L287.189 259.162L258.662 287.156L213.066 267.855Z" fill="url(#paint40_linear_7207_72797)"/>
<path style="mix-blend-mode:multiply" opacity="0.37" d="M345.206 216.242L287.189 259.16L324.732 261.348L345.206 216.242Z" fill="url(#paint41_linear_7207_72797)"/>
<path style="mix-blend-mode:multiply" opacity="0.37" d="M301.091 298.254L287.193 259.165L268.63 335.684L301.091 298.254Z" fill="url(#paint42_linear_7207_72797)"/>
<path style="mix-blend-mode:multiply" opacity="0.37" d="M350.296 303.787L287.192 259.166L301.09 298.254L350.296 303.787Z" fill="url(#paint43_linear_7207_72797)"/>
<path style="mix-blend-mode:color-dodge" opacity="0.5" d="M260.387 194.044L287.19 259.163L296.953 227.439L260.387 194.044Z" fill="url(#paint44_linear_7207_72797)"/>
<path style="mix-blend-mode:color-dodge" opacity="0.5" d="M345.21 216.245L287.193 259.163L296.955 227.439L345.21 216.245Z" fill="url(#paint45_linear_7207_72797)"/>
<path style="mix-blend-mode:color-dodge" opacity="0.5" d="M345.21 216.245L287.193 259.163L296.955 227.439L345.21 216.245Z" fill="url(#paint46_linear_7207_72797)"/>
<path style="mix-blend-mode:color-dodge" opacity="0.5" d="M256.103 243.393L287.189 259.163L213.066 267.856L256.103 243.393Z" fill="url(#paint47_linear_7207_72797)"/>
<path d="M302.57 241.817C300.379 246.183 303.939 246.759 303.939 246.759L319.579 235.208C319.579 235.208 307.817 232.149 302.57 241.817Z" fill="white"/>
<g style="mix-blend-mode:multiply" opacity="0.5">
<path d="M268.872 335.589C268.872 335.589 294.152 308.899 302.397 300.974L350.538 303.692L301.302 298.172L268.872 335.589Z" fill="#DE5634"/>
</g>
<g style="mix-blend-mode:multiply" opacity="0.5">
<path d="M213.066 267.855L287.189 259.162L262.649 305.364L213.066 267.855Z" fill="#DE5634"/>
</g>
<g style="mix-blend-mode:multiply" opacity="0.5">
<path d="M345.206 216.242L287.189 259.16L336.983 281.209L345.206 216.242Z" fill="#DE5634"/>
</g>
<g style="mix-blend-mode:multiply" opacity="0.5">
<path d="M268.872 335.59L287.191 259.167L350.538 303.693L307.168 313.189L268.872 335.59Z" fill="#DE5634"/>
</g>
<g style="mix-blend-mode:soft-light" opacity="0.4">
<path d="M258.762 234.107C259.196 247.981 278.942 249.818 279.745 245.221C280.547 240.624 271.049 220.531 267.152 218.823C263.255 217.115 258.632 228.47 258.762 234.107Z" fill="#F7FFFF"/>
</g>
<g style="mix-blend-mode:soft-light" opacity="0.4">
<path d="M269.344 300.108C278.612 297.857 279.601 285.92 278.771 278.31C277.425 266.056 252.508 304.191 269.344 300.108Z" fill="#F7FFFF"/>
</g>
<g style="mix-blend-mode:multiply" opacity="0.5">
<path d="M254.042 177.885L244.552 188.824L241.638 174.62L228.305 168.979L240.898 161.849L242.133 147.393L252.838 157.185L266.93 153.893L260.95 167.077L268.434 179.496L254.042 177.885Z" fill="#DE5634"/>
</g>
<path d="M265.626 154.962L258.872 156.547L256.998 156.963L252.617 157.972L242.749 148.976L241.59 162.279L229.986 168.882L242.272 174.09L244.964 187.187L253.731 177.092L267.018 178.573L260.091 167.13L265.626 154.962Z" fill="url(#paint48_linear_7207_72797)"/>
<path style="mix-blend-mode:multiply" opacity="0.37" d="M229.926 168.907L249.906 166.58L242.211 174.115L229.926 168.907Z" fill="url(#paint49_linear_7207_72797)"/>
<path style="mix-blend-mode:multiply" opacity="0.37" d="M265.566 154.984L249.907 166.577L260.032 167.151L265.566 154.984Z" fill="url(#paint50_linear_7207_72797)"/>
<path style="mix-blend-mode:multiply" opacity="0.37" d="M253.67 177.111L249.906 166.574L244.904 187.205L253.67 177.111Z" fill="url(#paint51_linear_7207_72797)"/>
<path style="mix-blend-mode:multiply" opacity="0.37" d="M266.928 178.604L249.906 166.574L253.671 177.111L266.928 178.604Z" fill="url(#paint52_linear_7207_72797)"/>
<path style="mix-blend-mode:color-dodge" opacity="0.5" d="M242.691 149L249.909 166.579L252.559 157.995L242.691 149Z" fill="url(#paint53_linear_7207_72797)"/>
<path style="mix-blend-mode:color-dodge" opacity="0.5" d="M265.565 154.987L249.906 166.58L252.557 157.997L265.565 154.987Z" fill="url(#paint54_linear_7207_72797)"/>
<path style="mix-blend-mode:color-dodge" opacity="0.5" d="M265.565 154.987L249.906 166.58L252.557 157.997L265.565 154.987Z" fill="url(#paint55_linear_7207_72797)"/>
<path style="mix-blend-mode:color-dodge" opacity="0.5" d="M241.529 162.304L249.905 166.58L229.925 168.908L241.529 162.304Z" fill="url(#paint56_linear_7207_72797)"/>
<path d="M254.079 161.894C253.462 163.013 254.578 163.174 254.578 163.174L258.8 160.05C257.92 159.788 256.978 159.826 256.122 160.161C255.267 160.495 254.548 161.105 254.079 161.894Z" fill="white"/>
<g style="mix-blend-mode:multiply" opacity="0.5">
<path d="M244.968 187.189C244.968 187.189 251.81 179.988 254.031 177.856L266.991 178.587L253.734 177.094L244.968 187.189Z" fill="#DE5634"/>
</g>
<g style="mix-blend-mode:multiply" opacity="0.5">
<path d="M229.926 168.907L249.906 166.58L243.319 179.018L229.926 168.907Z" fill="#DE5634"/>
</g>
<g style="mix-blend-mode:multiply" opacity="0.5">
<path d="M265.566 154.984L249.907 166.577L263.358 172.523L265.566 154.984Z" fill="#DE5634"/>
</g>
<g style="mix-blend-mode:multiply" opacity="0.5">
<path d="M244.962 187.182L249.903 166.574L267.016 178.568L255.311 181.139L244.962 187.182Z" fill="#DE5634"/>
</g>
<g style="mix-blend-mode:soft-light" opacity="0.4">
<path d="M242.24 159.81C242.356 163.521 247.684 164.038 247.9 162.795C247.453 160.16 246.286 157.7 244.527 155.687C243.407 155.246 242.216 158.31 242.24 159.81Z" fill="#F7FFFF"/>
</g>
<g style="mix-blend-mode:soft-light" opacity="0.4">
<path d="M245.206 177.823C247.682 177.242 247.963 174.008 247.725 171.959C247.29 168.688 240.563 178.969 245.206 177.823Z" fill="#F7FFFF"/>
</g>
</g>
<defs>
<filter id="filter0_f_7207_72797" x="37.7773" y="66.3252" width="453.672" height="447.089" filterUnits="userSpaceOnUse" colorInterpolationFilters="sRGB">
<feFlood floodOpacity="0" result="BackgroundImageFix"/>
<feBlend mode="normal" in="SourceGraphic" in2="BackgroundImageFix" result="shape"/>
<feGaussianBlur stdDeviation="5" result="effect1_foregroundBlur_7207_72797"/>
</filter>
<linearGradient id="paint0_linear_7207_72797" x1="199.426" y1="425.733" x2="249.382" y2="406.221" gradientUnits="userSpaceOnUse">
<stop stop-color="#DE3C14"/>
<stop offset="0.07" stop-color="#C72E10"/>
<stop offset="0.19" stop-color="#AB1C0C"/>
<stop offset="0.3" stop-color="#971009"/>
<stop offset="0.41" stop-color="#8B0807"/>
<stop offset="0.52" stop-color="#870606"/>
<stop offset="0.62" stop-color="#8C0707"/>
<stop offset="0.73" stop-color="#9A0808"/>
<stop offset="0.85" stop-color="#B20B0B"/>
<stop offset="0.97" stop-color="#D30E0E"/>
<stop offset="1" stop-color="#DB0F0F"/>
</linearGradient>
<linearGradient id="paint1_linear_7207_72797" x1="198.533" y1="423.447" x2="248.489" y2="403.935" gradientUnits="userSpaceOnUse">
<stop stop-color="#B41E2D"/>
<stop offset="1" stop-color="#E54136"/>
</linearGradient>
<linearGradient id="paint2_linear_7207_72797" x1="410.246" y1="343.39" x2="460.202" y2="323.878" gradientUnits="userSpaceOnUse">
<stop stop-color="#DE3C14"/>
<stop offset="0.07" stop-color="#C72E10"/>
<stop offset="0.19" stop-color="#AB1C0C"/>
<stop offset="0.3" stop-color="#971009"/>
<stop offset="0.41" stop-color="#8B0807"/>
<stop offset="0.52" stop-color="#870606"/>
<stop offset="0.62" stop-color="#8C0707"/>
<stop offset="0.73" stop-color="#9A0808"/>
<stop offset="0.85" stop-color="#B20B0B"/>
<stop offset="0.97" stop-color="#D30E0E"/>
<stop offset="1" stop-color="#DB0F0F"/>
</linearGradient>
<linearGradient id="paint3_linear_7207_72797" x1="409.351" y1="341.104" x2="459.307" y2="321.592" gradientUnits="userSpaceOnUse">
<stop stop-color="#B41E2D"/>
<stop offset="1" stop-color="#E54136"/>
</linearGradient>
<linearGradient id="paint4_linear_7207_72797" x1="263.793" y1="466.942" x2="339.884" y2="437.222" gradientUnits="userSpaceOnUse">
<stop stop-color="#DE3C14"/>
<stop offset="0.07" stop-color="#C72E10"/>
<stop offset="0.19" stop-color="#AB1C0C"/>
<stop offset="0.3" stop-color="#971009"/>
<stop offset="0.41" stop-color="#8B0807"/>
<stop offset="0.52" stop-color="#870606"/>
<stop offset="0.62" stop-color="#8C0707"/>
<stop offset="0.73" stop-color="#9A0808"/>
<stop offset="0.85" stop-color="#B20B0B"/>
<stop offset="0.97" stop-color="#D30E0E"/>
<stop offset="1" stop-color="#DB0F0F"/>
</linearGradient>
<linearGradient id="paint5_linear_7207_72797" x1="365.779" y1="427.11" x2="441.87" y2="397.39" gradientUnits="userSpaceOnUse">
<stop stop-color="#DE3C14"/>
<stop offset="0.07" stop-color="#C72E10"/>
<stop offset="0.19" stop-color="#AB1C0C"/>
<stop offset="0.3" stop-color="#971009"/>
<stop offset="0.41" stop-color="#8B0807"/>
<stop offset="0.52" stop-color="#870606"/>
<stop offset="0.62" stop-color="#8C0707"/>
<stop offset="0.73" stop-color="#9A0808"/>
<stop offset="0.85" stop-color="#B20B0B"/>
<stop offset="0.97" stop-color="#D30E0E"/>
<stop offset="1" stop-color="#DB0F0F"/>
</linearGradient>
<linearGradient id="paint6_linear_7207_72797" x1="263.794" y1="466.942" x2="339.886" y2="437.222" gradientUnits="userSpaceOnUse">
<stop stop-color="#B41E2D"/>
<stop offset="1" stop-color="#E54136"/>
</linearGradient>
<linearGradient id="paint7_linear_7207_72797" x1="365.78" y1="427.114" x2="441.871" y2="397.394" gradientUnits="userSpaceOnUse">
<stop stop-color="#B41E2D"/>
<stop offset="1" stop-color="#E54136"/>
</linearGradient>
<linearGradient id="paint8_linear_7207_72797" x1="416.218" y1="256.418" x2="393.837" y2="199.183" gradientUnits="userSpaceOnUse">
<stop stop-color="#CA6B34"/>
<stop offset="0.67" stop-color="#FFA933"/>
<stop offset="1" stop-color="#FFBD2B"/>
</linearGradient>
<linearGradient id="paint9_linear_7207_72797" x1="431.831" y1="200.812" x2="467.744" y2="186.785" gradientUnits="userSpaceOnUse">
<stop stop-color="#DE3C14"/>
<stop offset="0.07" stop-color="#C72E10"/>
<stop offset="0.19" stop-color="#AB1C0C"/>
<stop offset="0.3" stop-color="#971009"/>
<stop offset="0.41" stop-color="#8B0807"/>
<stop offset="0.52" stop-color="#870606"/>
<stop offset="0.62" stop-color="#8C0707"/>
<stop offset="0.73" stop-color="#9A0808"/>
<stop offset="0.85" stop-color="#B20B0B"/>
<stop offset="0.97" stop-color="#D30E0E"/>
<stop offset="1" stop-color="#DB0F0F"/>
</linearGradient>
<linearGradient id="paint10_linear_7207_72797" x1="253.705" y1="396.68" x2="231.094" y2="339.634" gradientUnits="userSpaceOnUse">
<stop stop-color="#CA6B34"/>
<stop offset="0.67" stop-color="#FFA933"/>
<stop offset="1" stop-color="#FFBD2B"/>
</linearGradient>
<linearGradient id="paint11_linear_7207_72797" x1="101.71" y1="329.891" x2="137.623" y2="315.864" gradientUnits="userSpaceOnUse">
<stop stop-color="#DE3C14"/>
<stop offset="0.07" stop-color="#C72E10"/>
<stop offset="0.19" stop-color="#AB1C0C"/>
<stop offset="0.3" stop-color="#971009"/>
<stop offset="0.41" stop-color="#8B0807"/>
<stop offset="0.52" stop-color="#870606"/>
<stop offset="0.62" stop-color="#8C0707"/>
<stop offset="0.73" stop-color="#9A0808"/>
<stop offset="0.85" stop-color="#B20B0B"/>
<stop offset="0.97" stop-color="#D30E0E"/>
<stop offset="1" stop-color="#DB0F0F"/>
</linearGradient>
<linearGradient id="paint12_linear_7207_72797" x1="420.627" y1="213.055" x2="398.279" y2="155.824" gradientUnits="userSpaceOnUse">
<stop stop-color="#CA6B34"/>
<stop offset="0.67" stop-color="#FFA933"/>
<stop offset="1" stop-color="#FFBD2B"/>
</linearGradient>
<linearGradient id="paint13_linear_7207_72797" x1="437.268" y1="157.121" x2="473.212" y2="143.082" gradientUnits="userSpaceOnUse">
<stop stop-color="#DE3C14"/>
<stop offset="0.07" stop-color="#C72E10"/>
<stop offset="0.19" stop-color="#AB1C0C"/>
<stop offset="0.3" stop-color="#971009"/>
<stop offset="0.41" stop-color="#8B0807"/>
<stop offset="0.52" stop-color="#870606"/>
<stop offset="0.62" stop-color="#8C0707"/>
<stop offset="0.73" stop-color="#9A0808"/>
<stop offset="0.85" stop-color="#B20B0B"/>
<stop offset="0.97" stop-color="#D30E0E"/>
<stop offset="1" stop-color="#DB0F0F"/>
</linearGradient>
<linearGradient id="paint14_linear_7207_72797" x1="219.914" y1="367.408" x2="197.283" y2="310.388" gradientUnits="userSpaceOnUse">
<stop stop-color="#CA6B34"/>
<stop offset="0.67" stop-color="#FFA933"/>
<stop offset="1" stop-color="#FFBD2B"/>
</linearGradient>
<linearGradient id="paint15_linear_7207_72797" x1="67.8541" y1="300.546" x2="103.798" y2="286.507" gradientUnits="userSpaceOnUse">
<stop stop-color="#DE3C14"/>
<stop offset="0.07" stop-color="#C72E10"/>
<stop offset="0.19" stop-color="#AB1C0C"/>
<stop offset="0.3" stop-color="#971009"/>
<stop offset="0.41" stop-color="#8B0807"/>
<stop offset="0.52" stop-color="#870606"/>
<stop offset="0.62" stop-color="#8C0707"/>
<stop offset="0.73" stop-color="#9A0808"/>
<stop offset="0.85" stop-color="#B20B0B"/>
<stop offset="0.97" stop-color="#D30E0E"/>
<stop offset="1" stop-color="#DB0F0F"/>
</linearGradient>
<linearGradient id="paint16_linear_7207_72797" x1="208.723" y1="262.569" x2="169.687" y2="162.626" gradientUnits="userSpaceOnUse">
<stop stop-color="#CA6B34"/>
<stop offset="0.67" stop-color="#FFA933"/>
<stop offset="1" stop-color="#FFBD2B"/>
</linearGradient>
<linearGradient id="paint17_linear_7207_72797" x1="185.416" y1="235.616" x2="148.629" y2="141.43" gradientUnits="userSpaceOnUse">
<stop stop-color="#CA6B34"/>
<stop offset="0.67" stop-color="#FFA933"/>
<stop offset="1" stop-color="#FFBD2B"/>
</linearGradient>
<linearGradient id="paint18_linear_7207_72797" x1="184.801" y1="197.554" x2="207.954" y2="256.831" gradientUnits="userSpaceOnUse">
<stop stop-color="#C10065"/>
<stop offset="1" stop-color="white"/>
</linearGradient>
<linearGradient id="paint19_linear_7207_72797" x1="343.633" y1="209.877" x2="304.597" y2="109.935" gradientUnits="userSpaceOnUse">
<stop stop-color="#CA6B34"/>
<stop offset="0.67" stop-color="#FFA933"/>
<stop offset="1" stop-color="#FFBD2B"/>
</linearGradient>
<linearGradient id="paint20_linear_7207_72797" x1="342.713" y1="174.175" x2="305.926" y2="79.9897" gradientUnits="userSpaceOnUse">
<stop stop-color="#CA6B34"/>
<stop offset="0.67" stop-color="#FFA933"/>
<stop offset="1" stop-color="#FFBD2B"/>
</linearGradient>
<linearGradient id="paint21_linear_7207_72797" x1="317.367" y1="145.774" x2="340.52" y2="205.052" gradientUnits="userSpaceOnUse">
<stop stop-color="#C10065"/>
<stop offset="1" stop-color="white"/>
</linearGradient>
<linearGradient id="paint22_linear_7207_72797" x1="178.067" y1="403.773" x2="153.38" y2="340.566" gradientUnits="userSpaceOnUse">
<stop stop-color="#CA6B34"/>
<stop offset="0.67" stop-color="#FFA933"/>
<stop offset="1" stop-color="#FFBD2B"/>
</linearGradient>
<linearGradient id="paint23_linear_7207_72797" x1="172.121" y1="366.88" x2="183.65" y2="396.397" gradientUnits="userSpaceOnUse">
<stop stop-color="#C10065"/>
<stop offset="1" stop-color="white"/>
</linearGradient>
<linearGradient id="paint24_linear_7207_72797" x1="462.118" y1="292.829" x2="437.431" y2="229.623" gradientUnits="userSpaceOnUse">
<stop stop-color="#CA6B34"/>
<stop offset="0.67" stop-color="#FFA933"/>
<stop offset="1" stop-color="#FFBD2B"/>
</linearGradient>
<linearGradient id="paint25_linear_7207_72797" x1="441.457" y1="261.681" x2="452.986" y2="291.197" gradientUnits="userSpaceOnUse">
<stop stop-color="#C10065"/>
<stop offset="1" stop-color="white"/>
</linearGradient>
<linearGradient id="paint26_linear_7207_72797" x1="354.432" y1="434.913" x2="256.289" y2="183.64" gradientUnits="userSpaceOnUse">
<stop stop-color="#CA6B34"/>
<stop offset="0.67" stop-color="#FFA933"/>
<stop offset="1" stop-color="#FFBD2B"/>
</linearGradient>
<linearGradient id="paint27_linear_7207_72797" x1="239.028" y1="139.441" x2="337.682" y2="392.024" gradientUnits="userSpaceOnUse">
<stop stop-color="#CA6B34"/>
<stop offset="0.17" stop-color="#CC6E34"/>
<stop offset="0.29" stop-color="#D27733"/>
<stop offset="0.39" stop-color="#DB8631"/>
<stop offset="0.48" stop-color="#E99B2F"/>
<stop offset="0.57" stop-color="#FBB72C"/>
<stop offset="0.59" stop-color="#FFBD2B"/>
<stop offset="1" stop-color="#FFA933"/>
</linearGradient>
<linearGradient id="paint28_linear_7207_72797" x1="339.884" y1="397.66" x2="250.604" y2="169.08" gradientUnits="userSpaceOnUse">
<stop stop-color="#B75014"/>
<stop offset="0.38" stop-color="#E8692A"/>
<stop offset="1" stop-color="#F58E2F"/>
</linearGradient>
<linearGradient id="paint29_linear_7207_72797" x1="193.017" y1="332.563" x2="219.941" y2="401.497" gradientUnits="userSpaceOnUse">
<stop stop-color="#C10065"/>
<stop offset="1" stop-color="white"/>
</linearGradient>
<linearGradient id="paint30_linear_7207_72797" x1="403.292" y1="250.437" x2="430.216" y2="319.37" gradientUnits="userSpaceOnUse">
<stop stop-color="#C10065"/>
<stop offset="1" stop-color="white"/>
</linearGradient>
<linearGradient id="paint31_linear_7207_72797" x1="267.397" y1="376.118" x2="295.225" y2="447.367" gradientUnits="userSpaceOnUse">
<stop stop-color="#C10065"/>
<stop offset="1" stop-color="white"/>
</linearGradient>
<linearGradient id="paint32_linear_7207_72797" x1="378.588" y1="332.722" x2="406.952" y2="405.341" gradientUnits="userSpaceOnUse">
<stop stop-color="#C10065"/>
<stop offset="1" stop-color="white"/>
</linearGradient>
<linearGradient id="paint33_linear_7207_72797" x1="256.77" y1="186.225" x2="327.906" y2="368.351" gradientUnits="userSpaceOnUse">
<stop stop-color="#CA6B34"/>
<stop offset="0.67" stop-color="#FFA933"/>
<stop offset="1" stop-color="#FFBD2B"/>
</linearGradient>
<linearGradient id="paint34_linear_7207_72797" x1="336.628" y1="390.679" x2="304.861" y2="309.348" gradientUnits="userSpaceOnUse">
<stop stop-color="#F1CB3C"/>
<stop offset="1" stop-color="#FFC14F"/>
</linearGradient>
<linearGradient id="paint35_linear_7207_72797" x1="359.49" y1="264.495" x2="396.098" y2="358.224" gradientUnits="userSpaceOnUse">
<stop stop-color="#C10065"/>
<stop offset="1" stop-color="white"/>
</linearGradient>
<linearGradient id="paint36_linear_7207_72797" x1="271.322" y1="220.6" x2="232.012" y2="119.957" gradientUnits="userSpaceOnUse">
<stop stop-color="#CA6B34"/>
<stop offset="0.67" stop-color="#FFA933"/>
<stop offset="1" stop-color="#FFBD2B"/>
</linearGradient>
<linearGradient id="paint37_linear_7207_72797" x1="218.553" y1="177.809" x2="281.151" y2="153.359" gradientUnits="userSpaceOnUse">
<stop stop-color="#DE3C14"/>
<stop offset="0.07" stop-color="#C72E10"/>
<stop offset="0.19" stop-color="#AB1C0C"/>
<stop offset="0.3" stop-color="#971009"/>
<stop offset="0.41" stop-color="#8B0807"/>
<stop offset="0.52" stop-color="#870606"/>
<stop offset="0.62" stop-color="#8C0707"/>
<stop offset="0.73" stop-color="#9A0808"/>
<stop offset="0.85" stop-color="#B20B0B"/>
<stop offset="0.97" stop-color="#D30E0E"/>
<stop offset="1" stop-color="#DB0F0F"/>
</linearGradient>
<linearGradient id="paint38_linear_7207_72797" x1="248.774" y1="164.667" x2="270.261" y2="219.68" gradientUnits="userSpaceOnUse">
<stop stop-color="#C10065"/>
<stop offset="1" stop-color="white"/>
</linearGradient>
<linearGradient id="paint39_linear_7207_72797" x1="310.607" y1="321.99" x2="252.273" y2="172.639" gradientUnits="userSpaceOnUse">
<stop stop-color="#CA6B34"/>
<stop offset="0.67" stop-color="#FFA933"/>
<stop offset="1" stop-color="#FFBD2B"/>
</linearGradient>
<linearGradient id="paint40_linear_7207_72797" x1="246.695" y1="254.721" x2="259.271" y2="286.918" gradientUnits="userSpaceOnUse">
<stop stop-color="#C10065"/>
<stop offset="1" stop-color="white"/>
</linearGradient>
<linearGradient id="paint41_linear_7207_72797" x1="312.765" y1="228.913" x2="325.341" y2="261.11" gradientUnits="userSpaceOnUse">
<stop stop-color="#C10065"/>
<stop offset="1" stop-color="white"/>
</linearGradient>
<linearGradient id="paint42_linear_7207_72797" x1="266.174" y1="267.375" x2="289.648" y2="327.474" gradientUnits="userSpaceOnUse">
<stop stop-color="#C10065"/>
<stop offset="1" stop-color="white"/>
</linearGradient>
<linearGradient id="paint43_linear_7207_72797" x1="306.413" y1="251.659" x2="329.887" y2="311.758" gradientUnits="userSpaceOnUse">
<stop stop-color="#C10065"/>
<stop offset="1" stop-color="white"/>
</linearGradient>
<linearGradient id="paint44_linear_7207_72797" x1="270.273" y1="201.558" x2="312.141" y2="281.787" gradientUnits="userSpaceOnUse">
<stop stop-color="#BFD7FF"/>
<stop offset="1"/>
</linearGradient>
<linearGradient id="paint45_linear_7207_72797" x1="282.47" y1="247.07" x2="347.352" y2="221.728" gradientUnits="userSpaceOnUse">
<stop stop-color="#BFD7FF"/>
<stop offset="1"/>
</linearGradient>
<linearGradient id="paint46_linear_7207_72797" x1="291.53" y1="190.448" x2="333.398" y2="270.677" gradientUnits="userSpaceOnUse">
<stop stop-color="#BFD7FF"/>
<stop offset="1"/>
</linearGradient>
<linearGradient id="paint47_linear_7207_72797" x1="229.002" y1="223.084" x2="270.87" y2="303.313" gradientUnits="userSpaceOnUse">
<stop stop-color="#BFD7FF"/>
<stop offset="1"/>
</linearGradient>
<linearGradient id="paint48_linear_7207_72797" x1="256.241" y1="183.519" x2="240.513" y2="143.25" gradientUnits="userSpaceOnUse">
<stop stop-color="#CA6B34"/>
<stop offset="0.67" stop-color="#FFA933"/>
<stop offset="1" stop-color="#FFBD2B"/>
</linearGradient>
<linearGradient id="paint49_linear_7207_72797" x1="239.003" y1="165.362" x2="242.394" y2="174.043" gradientUnits="userSpaceOnUse">
<stop stop-color="#C10065"/>
<stop offset="1" stop-color="white"/>
</linearGradient>
<linearGradient id="paint50_linear_7207_72797" x1="256.824" y1="158.399" x2="260.214" y2="167.08" gradientUnits="userSpaceOnUse">
<stop stop-color="#C10065"/>
<stop offset="1" stop-color="white"/>
</linearGradient>
<linearGradient id="paint51_linear_7207_72797" x1="244.24" y1="168.787" x2="250.569" y2="184.992" gradientUnits="userSpaceOnUse">
<stop stop-color="#C10065"/>
<stop offset="1" stop-color="white"/>
</linearGradient>
<linearGradient id="paint52_linear_7207_72797" x1="255.115" y1="164.54" x2="261.445" y2="180.745" gradientUnits="userSpaceOnUse">
<stop stop-color="#C10065"/>
<stop offset="1" stop-color="white"/>
</linearGradient>
<linearGradient id="paint53_linear_7207_72797" x1="245.353" y1="151.05" x2="256.648" y2="172.688" gradientUnits="userSpaceOnUse">
<stop stop-color="#BFD7FF"/>
<stop offset="1"/>
</linearGradient>
<linearGradient id="paint54_linear_7207_72797" x1="248.633" y1="163.321" x2="266.148" y2="156.48" gradientUnits="userSpaceOnUse">
<stop stop-color="#BFD7FF"/>
<stop offset="1"/>
</linearGradient>
<linearGradient id="paint55_linear_7207_72797" x1="251.089" y1="148.038" x2="262.384" y2="169.676" gradientUnits="userSpaceOnUse">
<stop stop-color="#BFD7FF"/>
<stop offset="1"/>
</linearGradient>
<linearGradient id="paint56_linear_7207_72797" x1="234.231" y1="156.833" x2="245.527" y2="178.472" gradientUnits="userSpaceOnUse">
<stop stop-color="#BFD7FF"/>
<stop offset="1"/>
</linearGradient>
</defs>
</svg>
