<svg width="421" height="413" viewBox="0 0 421 413" fill="none" xmlns="http://www.w3.org/2000/svg">
<g opacity="0.2">
<path d="M94.9932 189.471C94.2402 190.009 73.0206 155.974 73.0206 155.974C74.5482 138.729 77.9815 121.707 83.2578 105.219L133.652 145.69L94.9932 189.471Z" fill="url(#paint0_linear_6540_48825)"/>
<path d="M92.8711 112.941C92.8711 112.941 85.1307 146.674 85.1746 151.064L110.092 172.182L111.486 170.446C111.486 170.446 88.0203 151.922 87.4982 149.86C86.9761 147.799 94.3686 114.144 94.3686 114.144L92.8711 112.941Z" fill="#394773"/>
<path d="M92.8711 112.941L85.1746 151.064C85.6195 144.322 86.4873 137.615 87.7728 130.981C89.6715 122.26 92.8711 112.941 92.8711 112.941Z" fill="white"/>
<g style="mix-blend-mode:soft-light" opacity="0.5">
<path d="M95.1529 117.48C92.4742 124.861 89.586 144.282 91.192 145.572C92.7981 146.862 111.767 161.561 115.643 160.246C119.519 158.932 131.474 147.113 130.186 145.65C128.897 144.187 96.446 114.091 95.1529 117.48Z" fill="white"/>
</g>
<g style="mix-blend-mode:soft-light" opacity="0.5">
<path d="M84.1069 107.541C81.932 115.183 76.9912 135.028 78.0888 136.195C79.1864 137.362 82.9134 141.212 84.3077 139.475C86.5387 136.697 91.819 114.341 90.3791 112.578C88.9391 110.815 84.6364 105.681 84.1069 107.541Z" fill="white"/>
</g>
<path style="mix-blend-mode:multiply" opacity="0.5" d="M77.784 139.06C76.1204 140.687 75.406 155.358 75.9028 157.006C76.3996 158.655 93.1795 184.126 95.4919 184.269C97.8043 184.413 113.963 165.937 113.179 164.379C112.395 162.822 79.6305 137.295 77.784 139.06Z" fill="url(#paint1_linear_6540_48825)"/>
<path style="mix-blend-mode:multiply" opacity="0.5" d="M116.723 132.092C108.003 147.936 97.7527 162.889 86.1181 176.736L94.9928 189.468L133.765 145.635L116.723 132.092Z" fill="url(#paint2_linear_6540_48825)"/>
<path d="M251.32 315.011C250.979 315.88 288.857 329.305 288.857 329.305C305.401 324.08 321.313 317.03 336.297 308.285L285.816 267.744L251.32 315.011Z" fill="url(#paint3_linear_6540_48825)"/>
<path d="M326.526 300.586C326.526 300.586 295.238 315.408 290.963 316.33L264.943 296.541L266.338 294.804C266.338 294.804 289.511 313.736 291.637 313.801C293.763 313.866 325.028 299.384 325.028 299.384L326.526 300.586Z" fill="#394773"/>
<path d="M326.527 300.584L290.964 316.328C297.447 314.439 303.802 312.138 309.991 309.439C318.097 305.702 326.527 300.584 326.527 300.584Z" fill="white"/>
<g style="mix-blend-mode:soft-light" opacity="0.5">
<path d="M321.598 299.34C314.991 303.566 296.646 310.539 295.019 309.232C293.391 307.925 274.988 292.61 275.413 288.524C275.838 284.439 284.841 270.249 286.526 271.174C288.211 272.099 324.628 297.346 321.598 299.34Z" fill="white"/>
</g>
<g style="mix-blend-mode:soft-light" opacity="0.5">
<path d="M333.671 307.958C326.678 311.731 308.389 320.856 307.013 320.036C305.636 319.217 301.051 316.391 302.38 314.602C304.611 311.825 325.301 301.843 327.333 302.869C329.366 303.894 335.329 307.005 333.671 307.958Z" fill="white"/>
</g>
<path style="mix-blend-mode:multiply" opacity="0.5" d="M304.256 320.934C303.049 322.927 288.857 326.774 287.161 326.662C285.466 326.55 256.974 315.664 256.291 313.402C255.609 311.14 270.313 291.497 271.916 291.856C273.52 292.216 305.604 318.768 304.256 320.934Z" fill="url(#paint4_linear_6540_48825)"/>
<path style="mix-blend-mode:multiply" opacity="0.5" d="M302.678 281.426C289.088 293.361 276.701 306.597 265.692 320.946L251.323 315.011L285.754 267.692L302.678 281.426Z" fill="url(#paint5_linear_6540_48825)"/>
<path d="M294.524 101.804L173.774 83.1926L82.5139 196.829L126.767 310.694L247.5 329.327L338.76 215.69L294.524 101.804Z" fill="url(#paint6_linear_6540_48825)"/>
<path d="M104.343 200.188L181.781 103.762L280.684 119.037L316.925 212.294L239.487 308.72L140.605 293.463L104.343 200.188Z" fill="url(#paint7_linear_6540_48825)"/>
<path d="M111.629 201.294L184.431 110.64L276.082 124.767L309.636 211.19L236.833 301.843L145.205 287.734L111.629 201.294Z" fill="#736FA8"/>
<g style="mix-blend-mode:soft-light" opacity="0.5">
<path d="M175.606 85.1327C172.129 87.3736 177.881 98.1697 185.126 101.774C192.37 105.378 277.793 117.967 281.623 116.044C285.46 112.135 288.899 107.853 291.888 103.261C289.87 101.64 177.291 84.0577 175.606 85.1327Z" fill="white"/>
</g>
<g style="mix-blend-mode:soft-light" opacity="0.5">
<path d="M336.077 214.007C334.64 217.886 322.857 214.6 317.752 208.287C312.647 201.974 282.764 121.426 282.99 117.144C283.102 114.915 291.888 103.263 293.255 104.361C295.295 106 336.763 212.13 336.077 214.007Z" fill="white"/>
</g>
<path style="mix-blend-mode:multiply" opacity="0.5" d="M123.616 149.693C120.316 152.648 84.4252 194.582 86.0736 196.441C87.722 198.301 101.579 199.361 104.396 196.876C107.213 194.39 131.021 165.1 132.614 161.739C134.207 158.377 129.077 144.761 123.616 149.693Z" fill="url(#paint8_linear_6540_48825)"/>
<path style="mix-blend-mode:multiply" opacity="0.5" d="M284.327 278.757C282.133 282.6 248.955 326.713 246.784 325.505C244.612 324.296 240.586 310.995 242.405 307.708C244.224 304.421 267.684 274.852 270.623 272.571C273.562 270.29 287.942 272.343 284.327 278.757Z" fill="url(#paint9_linear_6540_48825)"/>
<path style="mix-blend-mode:multiply" opacity="0.5" d="M87.1931 199.271C87.0062 201.548 126.04 305.153 127.147 306.042C127.711 306.495 137.164 296.236 138.192 294.956C140.929 291.548 103.243 203.913 102.354 202.664C101.045 200.827 87.3974 196.971 87.1931 199.271Z" fill="url(#paint10_linear_6540_48825)"/>
<path style="mix-blend-mode:multiply" opacity="0.5" d="M243.291 326.524C241.108 327.198 130.275 310.197 129.146 309.29C132.638 304.372 136.507 299.733 140.718 295.414C145.04 294.922 235.805 310.373 237.174 310.936C239.25 311.818 245.514 325.845 243.291 326.524Z" fill="url(#paint11_linear_6540_48825)"/>
<path style="mix-blend-mode:multiply" opacity="0.5" d="M116.428 201.188C132.254 172.592 135.913 172.924 175.602 187.34C215.29 201.756 289.985 216.725 285.021 232.374C280.058 248.023 237.916 297.253 234.73 299.086C231.545 300.919 151.911 288.588 147.349 285.067C142.786 281.546 114.662 204.41 116.428 201.188Z" fill="url(#paint12_linear_6540_48825)"/>
<g style="mix-blend-mode:soft-light" opacity="0.3">
<path d="M307.786 210.741C306.928 209.587 276.597 131.465 273.302 129.211C270.006 126.957 215.861 113.784 188.56 114.706C181.239 114.931 138.295 171.694 143.086 173.863C147.877 176.033 168.855 156.002 222.739 178.569C275.601 200.852 285.765 226.471 288.945 232.202C289.885 233.743 309.816 213.37 307.786 210.741Z" fill="white"/>
</g>
<path style="mix-blend-mode:multiply" opacity="0.5" d="M104.341 200.191L181.78 103.764L280.735 118.974L316.924 212.297L239.485 308.723L236.851 301.824C236.851 301.824 304.449 218.273 304.757 214.2C305.775 199.595 274.177 136.698 263.934 132.649C253.691 128.6 193.802 111.777 182.431 115.712C178.599 117.061 111.629 201.295 111.629 201.295L104.341 200.191Z" fill="url(#paint13_linear_6540_48825)"/>
<g style="mix-blend-mode:soft-light" opacity="0.2">
<path d="M251.38 181.4C262.029 202.59 287.295 223.095 290.803 223.484C294.31 223.874 304.514 214.325 302.332 209.574C300.15 204.822 283.599 166.219 274.656 161.751C265.714 157.283 249.517 177.584 251.38 181.4Z" fill="white"/>
</g>
<path d="M145.974 117.809C146.183 117.548 172.433 86.3287 175.718 85.2177C179.002 84.1066 290.496 103.174 293.259 104.357C296.021 105.541 311.496 145.529 311.496 145.529L294.524 101.804L173.708 83.3186L145.974 117.809Z" fill="url(#paint14_linear_6540_48825)"/>
<path d="M296.496 159.76C296.496 159.76 316.182 209.485 314.816 212.208C313.451 214.931 264.214 277.885 264.214 277.885C264.214 277.885 315.106 215.225 316.903 212.277C318.699 209.328 296.496 159.76 296.496 159.76Z" fill="white"/>
<path d="M139.341 156.608C139.341 156.608 179.978 103.563 181.98 102.314C183.982 101.066 280.685 119.036 280.685 119.036C280.685 119.036 185.502 103.929 182.257 105.214C179.012 106.499 139.341 156.608 139.341 156.608Z" fill="white"/>
<path style="mix-blend-mode:multiply" d="M82.5124 196.83L126.744 310.678L247.455 329.293L268.248 303.402C268.248 303.402 249.409 325.437 245.451 326.899C241.492 328.361 133.149 312.038 129.146 309.287C125.143 306.537 85.6431 201.023 86.0734 196.442C86.5037 191.86 129.031 138.905 129.031 138.905L82.5124 196.83Z" fill="url(#paint15_linear_6540_48825)"/>
<path d="M124.106 175.577C124.106 175.577 106.019 197.609 105.757 200.469C105.496 203.329 122.684 247.585 122.684 247.585C122.684 247.585 102.373 201.749 102.989 200.316C103.604 198.883 124.106 175.577 124.106 175.577Z" fill="white"/>
<g style="mix-blend-mode:soft-light" opacity="0.5">
<path d="M115.993 242.853C113.562 240.901 104.551 238.163 104.716 240.937C104.88 243.711 125.904 300.793 129.115 306.264C130.181 308.048 137.803 298.247 138.294 293.5C138.489 291.479 123.563 248.897 115.993 242.853Z" fill="white"/>
</g>
<path d="M308.501 143.877C306.091 142.833 306.017 156.483 308.571 159.748C311.126 163.013 317.24 164.246 316.962 161.524C316.685 158.803 312.245 145.527 308.501 143.877Z" fill="white"/>
<path d="M316.533 163.926C312.893 162.323 307.848 179.941 308.331 184.185C308.815 188.429 326.542 209.52 329.145 205.256C331.748 200.992 321.672 166.196 316.533 163.926Z" fill="white"/>
<path style="mix-blend-mode:multiply" opacity="0.5" d="M193.535 305.484C185.533 311.803 182.137 316.609 183.101 317.454C184.064 318.299 237.599 325.52 239.307 325.393C241.016 325.266 239.304 313.573 236.155 311.759C233.007 309.944 196.521 303.099 193.535 305.484Z" fill="url(#paint16_linear_6540_48825)"/>
<path style="mix-blend-mode:multiply" opacity="0.5" d="M184.386 109.498C185.609 106.196 182.923 104.074 180.348 106.791C177.774 109.507 133.958 163.177 134.952 164.118C135.946 165.059 140.308 164.206 141.388 163.039C142.468 161.872 183.787 111.088 184.386 109.498Z" fill="url(#paint17_linear_6540_48825)"/>
<path style="mix-blend-mode:multiply" opacity="0.5" d="M310.507 211.352C309.536 212.25 268.004 262.898 268.677 263.439C269.35 263.979 274.258 263.958 275.251 262.721C276.245 261.484 314.213 212.65 314.079 212.15C313.945 211.649 311.296 210.592 310.507 211.352Z" fill="url(#paint18_linear_6540_48825)"/>
<path style="mix-blend-mode:multiply" opacity="0.5" d="M276.744 123.941C275.943 124.939 233.545 118.165 232.872 117.624C232.199 117.084 236.028 112.805 237.45 112.947C238.871 113.089 280.571 118.731 280.335 119.47C279.237 121.037 278.038 122.531 276.744 123.941Z" fill="url(#paint19_linear_6540_48825)"/>
<path d="M228.81 306.501C226.965 305.019 217.817 303.563 216.865 305.726C215.914 307.889 218.226 312.923 220.06 312.683C221.895 312.443 229.99 307.52 228.81 306.501Z" fill="#394773"/>
<path d="M230.208 309.699C229.087 309.762 226.024 310.73 226.529 312.814C227.034 314.897 233.102 315.343 233.143 314.091C233.185 312.839 231.621 309.585 230.208 309.699Z" fill="#394773"/>
<path style="mix-blend-mode:multiply" opacity="0.5" d="M219.329 304.747C216.045 305.68 221.319 312.093 223.556 310.997C225.792 309.902 230.136 307.25 228.916 306.591C225.859 305.398 222.61 304.773 219.329 304.747Z" fill="url(#paint20_linear_6540_48825)"/>
<path d="M217.304 305.223C216.766 306.791 216.798 308.498 217.394 310.044C218.173 312.098 219.589 312.913 220.52 312.554C219.801 312.693 219.056 312.585 218.408 312.245C217.759 311.906 217.245 311.357 216.95 310.687C215.031 306.897 217.304 305.223 217.304 305.223Z" fill="#DAE1EF"/>
<path style="mix-blend-mode:multiply" opacity="0.5" d="M230.866 310.297C228.196 310.688 227.508 313.812 228.415 314.327C229.323 314.842 233.004 315.192 233.141 314.088C233.278 312.984 231.431 310.216 230.866 310.297Z" fill="url(#paint21_linear_6540_48825)"/>
<path d="M230.209 309.692C230.209 309.692 227.439 310.43 227.123 311.89C226.807 313.35 227.567 313.96 227.567 313.96C227.567 313.96 225.09 313.577 225.688 312.165C226.766 309.711 230.209 309.692 230.209 309.692Z" fill="#DAE1EF"/>
<path d="M268.691 116.545C265.292 111.888 259.301 111.789 255.57 112.434C251.839 113.08 251.883 115.292 254.684 116.828C257.485 118.363 270.178 118.561 268.691 116.545Z" fill="#394773"/>
<path style="mix-blend-mode:multiply" opacity="0.5" d="M268.69 116.547C267.518 115.144 266.047 114.021 264.385 113.26C262.722 112.5 260.91 112.121 259.083 112.152C257.035 112.256 256.973 117.134 259.085 117.794C261.196 118.455 269.713 118.118 268.69 116.547Z" fill="url(#paint22_linear_6540_48825)"/>
<path d="M257.621 112.194C257.621 112.194 249.959 111.466 249.194 113.53C248.429 115.593 256.785 117.413 256.785 117.413C256.785 117.413 252.841 115.923 253.24 113.959C253.64 111.995 257.621 112.194 257.621 112.194Z" fill="white"/>
<path d="M106.704 203.157C103.868 201.843 107.009 212.291 108.449 213.876C109.889 215.461 111.638 209.904 111.45 208.539C110.359 206.365 108.724 204.511 106.704 203.157Z" fill="white"/>
<path d="M167.608 259.708L122.324 141.659C116.585 144.678 111.29 148.474 106.588 152.94L104.597 166.8L149.238 282.583L271.927 301.18L284.509 295.826C288.363 290.717 291.287 284.968 293.148 278.845L167.608 259.708Z" fill="url(#paint23_linear_6540_48825)"/>
<path d="M104.595 166.799L106.586 152.939L153.837 276.852L284.507 295.825L271.925 301.179L149.235 282.582L104.595 166.799Z" fill="url(#paint24_linear_6540_48825)"/>
<path style="mix-blend-mode:multiply" opacity="0.5" d="M106.586 152.939L104.595 166.799L105.226 168.591L102.995 171.369C102.995 171.369 105.8 177.656 111.028 190.351C111.192 190.768 112.029 201.151 112.029 201.151C112.029 201.151 143.013 285.974 145.205 287.734C148.004 289.983 237.744 300.754 237.744 300.754C237.744 300.754 245.526 300.577 246.19 300.683L267.21 304.783L270.312 300.919L271.925 301.179L284.507 295.825L153.837 276.852L106.586 152.939Z" fill="url(#paint25_linear_6540_48825)"/>
<path style="mix-blend-mode:multiply" opacity="0.5" d="M167.606 259.709L153.837 276.854L284.507 295.827C288.271 290.663 291.188 284.93 293.146 278.846L167.606 259.709Z" fill="url(#paint26_linear_6540_48825)"/>
<g style="mix-blend-mode:soft-light" opacity="0.5">
<path d="M123.691 148.935C122.063 147.628 111.797 163.124 114.096 170.396C117.738 181.997 142.684 247.977 145.753 250.513C147.923 252.256 157.623 239.911 157.722 238.454C157.953 235.677 126.122 150.887 123.691 148.935Z" fill="white"/>
</g>
<g style="mix-blend-mode:soft-light" opacity="0.5">
<path d="M205.747 266.136C203.873 266.38 193.18 279.962 195.251 280.983C215.138 285.518 235.327 288.607 255.659 290.226C275.75 291.081 287.342 280.291 284.29 278.269C284.421 278.017 209.617 265.674 205.747 266.136Z" fill="white"/>
</g>
<path d="M130.812 216.662C130.812 216.662 151.928 273.854 154.576 275.98C157.223 278.106 205.612 284.444 205.612 284.444C205.612 284.444 154.023 278.713 153.089 277.964C152.156 277.214 130.812 216.662 130.812 216.662Z" fill="white"/>
<path d="M254.004 152.125L128.946 133.411C130.659 127.156 133.222 121.167 136.566 115.61L149.668 110.675L272.357 129.272L316.998 245.055L314.486 258.496C310.327 263.36 305.346 267.456 299.77 270.597L254.004 152.125Z" fill="url(#paint27_linear_6540_48825)"/>
<path d="M149.668 110.675L136.566 115.61L267.774 134.98L314.486 258.496L316.998 245.055L272.357 129.272L149.668 110.675Z" fill="url(#paint28_linear_6540_48825)"/>
<path style="mix-blend-mode:multiply" opacity="0.5" d="M254.004 152.125L267.773 134.979L314.486 258.496C310.256 263.286 305.288 267.371 299.77 270.596L254.004 152.125Z" fill="url(#paint29_linear_6540_48825)"/>
<g style="mix-blend-mode:soft-light" opacity="0.5">
<path d="M136.361 133.158C134.733 131.851 147.63 118.503 155.245 119.157C167.358 120.21 237.167 130.326 240.288 132.797C242.459 134.54 232.516 146.654 231.098 147.086C228.436 147.912 138.791 135.11 136.361 133.158Z" fill="white"/>
</g>
<g style="mix-blend-mode:soft-light" opacity="0.5">
<path d="M268.495 188.005C268.329 186.122 279.283 172.749 280.709 174.573C289.453 193.002 296.827 212.05 302.773 231.562C307.961 250.973 299.928 264.621 297.294 262.078C297.094 262.238 268.792 191.992 268.495 188.005Z" fill="white"/>
</g>
<path d="M204.013 125.509C204.013 125.509 264.396 133.804 267.044 135.93C269.692 138.056 286.342 183.915 286.342 183.915C286.342 183.915 269.611 134.779 268.678 134.029C267.745 133.28 204.013 125.509 204.013 125.509Z" fill="white"/>
<path style="mix-blend-mode:multiply" opacity="0.5" d="M132.951 134.024L254.002 152.127L298.44 267.14L294.66 270.602L284.157 252.385L278.212 250.896L244.083 165.189L151.501 151.778L148.417 146.017L129.029 138.908L132.951 134.024Z" fill="url(#paint30_linear_6540_48825)"/>
<path style="mix-blend-mode:multiply" opacity="0.5" d="M164.147 183.064L152.031 180.724L161.276 172.547L159.781 160.316L170.403 166.561L181.576 161.361L178.91 173.393L187.301 182.416L175.035 183.597L169.046 194.388L164.147 183.064Z" fill="url(#paint31_linear_6540_48825)"/>
<path d="M185.962 181.909L181.927 177.598L180.825 176.392L178.222 173.587L180.673 162.489L170.365 167.278L160.569 161.517L161.939 172.791L153.417 180.335L164.585 182.521L169.109 192.936L174.635 182.988L185.962 181.909Z" fill="url(#paint32_linear_6540_48825)"/>
<path style="mix-blend-mode:multiply" opacity="0.5" d="M160.523 161.482L170.718 175.239L161.915 172.775L160.523 161.482Z" fill="url(#paint33_linear_6540_48825)"/>
<path style="mix-blend-mode:multiply" opacity="0.5" d="M185.917 181.876L170.719 175.24L174.59 182.955L185.917 181.876Z" fill="url(#paint34_linear_6540_48825)"/>
<path style="mix-blend-mode:multiply" opacity="0.5" d="M164.54 182.487L170.718 175.239L153.372 180.301L164.54 182.487Z" fill="url(#paint35_linear_6540_48825)"/>
<path style="mix-blend-mode:multiply" opacity="0.5" d="M169.062 192.905L170.717 175.242L164.539 182.49L169.062 192.905Z" fill="url(#paint36_linear_6540_48825)"/>
<path style="mix-blend-mode:color-dodge" opacity="0.5" d="M180.629 162.454L170.719 175.238L178.178 173.552L180.629 162.454Z" fill="url(#paint37_linear_6540_48825)"/>
<path style="mix-blend-mode:color-dodge" opacity="0.5" d="M185.916 181.877L170.718 175.24L178.176 173.555L185.916 181.877Z" fill="url(#paint38_linear_6540_48825)"/>
<path style="mix-blend-mode:color-dodge" opacity="0.5" d="M185.916 181.877L170.718 175.24L178.176 173.555L185.916 181.877Z" fill="url(#paint39_linear_6540_48825)"/>
<path style="mix-blend-mode:color-dodge" opacity="0.5" d="M170.319 167.244L170.717 175.239L160.522 161.483L170.319 167.244Z" fill="url(#paint40_linear_6540_48825)"/>
<g style="mix-blend-mode:color-dodge" opacity="0.8">
<path d="M176.034 176.401C174.947 176.421 175.193 177.225 175.193 177.225L179.289 179.015C179.098 178.288 178.679 177.642 178.093 177.171C177.507 176.7 176.785 176.43 176.034 176.401Z" fill="white"/>
</g>
<path style="mix-blend-mode:multiply" opacity="0.5" d="M153.438 180.356C153.438 180.356 161.633 182.332 164.149 183.067L169.108 192.94L164.585 182.524L153.438 180.356Z" fill="url(#paint41_linear_6540_48825)"/>
<path style="mix-blend-mode:multiply" opacity="0.5" d="M160.523 161.482L170.718 175.239L158.723 175.638L160.523 161.482Z" fill="url(#paint42_linear_6540_48825)"/>
<path style="mix-blend-mode:multiply" opacity="0.5" d="M185.917 181.876L170.719 175.24L172.056 187.667L185.917 181.876Z" fill="url(#paint43_linear_6540_48825)"/>
<path style="mix-blend-mode:multiply" opacity="0.5" d="M153.415 180.339L170.718 175.242L169.106 192.94L162.265 185.411L153.415 180.339Z" fill="url(#paint44_linear_6540_48825)"/>
<g style="mix-blend-mode:soft-light" opacity="0.4">
<path d="M172.46 166.715C169.77 168.374 171.649 172.525 172.658 172.158C174.413 170.71 175.733 168.804 176.472 166.653C176.365 165.674 173.617 166.073 172.46 166.715Z" fill="#F7FFFF"/>
</g>
<g style="mix-blend-mode:soft-light" opacity="0.4">
<path d="M160.364 176.488C161.843 178.069 164.35 176.904 165.76 175.859C168.054 174.203 157.613 173.601 160.364 176.488Z" fill="#F7FFFF"/>
</g>
<path style="mix-blend-mode:multiply" opacity="0.5" d="M243.319 246.646L231.203 244.306L240.448 236.129L238.953 223.898L249.575 230.143L260.748 224.943L258.082 236.975L266.473 245.998L254.207 247.179L248.218 257.971L243.319 246.646Z" fill="url(#paint45_linear_6540_48825)"/>
<path d="M265.133 245.493L261.077 241.164L259.997 239.976L257.394 237.171L259.845 226.073L249.537 230.862L239.741 225.101L241.111 236.375L232.589 243.919L243.757 246.105L248.281 256.52L253.807 246.572L265.133 245.493Z" fill="url(#paint46_linear_6540_48825)"/>
<path style="mix-blend-mode:multiply" opacity="0.5" d="M239.695 225.063L249.89 238.82L241.065 236.338L239.695 225.063Z" fill="url(#paint47_linear_6540_48825)"/>
<path style="mix-blend-mode:multiply" opacity="0.5" d="M265.089 245.457L249.89 238.821L253.762 246.536L265.089 245.457Z" fill="url(#paint48_linear_6540_48825)"/>
<path style="mix-blend-mode:multiply" opacity="0.5" d="M243.712 246.068L249.89 238.82L232.544 243.882L243.712 246.068Z" fill="url(#paint49_linear_6540_48825)"/>
<path style="mix-blend-mode:multiply" opacity="0.5" d="M248.234 256.486L249.889 238.823L243.711 246.071L248.234 256.486Z" fill="url(#paint50_linear_6540_48825)"/>
<path style="mix-blend-mode:color-dodge" opacity="0.5" d="M259.801 226.038L249.891 238.822L257.35 237.136L259.801 226.038Z" fill="url(#paint51_linear_6540_48825)"/>
<path style="mix-blend-mode:color-dodge" opacity="0.5" d="M265.088 245.458L249.889 238.821L257.348 237.136L265.088 245.458Z" fill="url(#paint52_linear_6540_48825)"/>
<path style="mix-blend-mode:color-dodge" opacity="0.5" d="M265.088 245.458L249.889 238.821L257.348 237.136L265.088 245.458Z" fill="url(#paint53_linear_6540_48825)"/>
<path style="mix-blend-mode:color-dodge" opacity="0.5" d="M249.491 230.829L249.889 238.824L239.694 225.068L249.491 230.829Z" fill="url(#paint54_linear_6540_48825)"/>
<g style="mix-blend-mode:color-dodge" opacity="0.8">
<path d="M255.099 239.892C254.012 239.912 254.367 240.804 254.367 240.804L258.463 242.594C258.279 241.835 257.849 241.159 257.241 240.67C256.632 240.181 255.879 239.908 255.099 239.892Z" fill="white"/>
</g>
<path style="mix-blend-mode:multiply" opacity="0.5" d="M232.524 243.868C232.524 243.868 240.741 245.861 243.257 246.596L248.216 256.469L243.692 246.054L232.524 243.868Z" fill="url(#paint55_linear_6540_48825)"/>
<path style="mix-blend-mode:multiply" opacity="0.5" d="M239.695 225.063L249.89 238.82L237.895 239.219L239.695 225.063Z" fill="url(#paint56_linear_6540_48825)"/>
<path style="mix-blend-mode:multiply" opacity="0.5" d="M265.089 245.457L249.89 238.821L251.228 251.248L265.089 245.457Z" fill="url(#paint57_linear_6540_48825)"/>
<path style="mix-blend-mode:multiply" opacity="0.5" d="M232.587 243.917L249.889 238.82L248.278 256.518L241.437 248.989L232.587 243.917Z" fill="url(#paint58_linear_6540_48825)"/>
<g style="mix-blend-mode:soft-light" opacity="0.4">
<path d="M251.632 230.299C248.942 231.958 250.821 236.109 251.83 235.742C253.59 234.295 254.904 232.381 255.622 230.219C255.537 229.258 252.746 229.623 251.632 230.299Z" fill="#F7FFFF"/>
</g>
<g style="mix-blend-mode:soft-light" opacity="0.4">
<path d="M239.514 240.054C241.015 241.652 243.521 240.488 244.932 239.443C247.226 237.786 236.785 237.184 239.514 240.054Z" fill="#F7FFFF"/>
</g>
<path style="mix-blend-mode:multiply" opacity="0.5" d="M203.323 214.527L191.207 212.187L200.451 204.01L198.957 191.778L209.579 198.024L220.752 192.824L218.086 204.856L226.477 213.879L214.211 215.06L208.2 225.834L203.323 214.527Z" fill="url(#paint59_linear_6540_48825)"/>
<path d="M225.112 213.35L221.077 209.038L219.997 207.85L217.372 205.028L219.845 193.947L209.537 198.736L199.741 192.975L201.111 204.249L192.589 211.793L203.757 213.979L208.281 224.394L213.807 214.446L225.112 213.35Z" fill="url(#paint60_linear_6540_48825)"/>
<path style="mix-blend-mode:multiply" opacity="0.5" d="M199.699 192.94L209.893 206.697L201.069 204.215L199.699 192.94Z" fill="url(#paint61_linear_6540_48825)"/>
<path style="mix-blend-mode:multiply" opacity="0.5" d="M225.067 213.317L209.89 206.698L213.762 214.413L225.067 213.317Z" fill="url(#paint62_linear_6540_48825)"/>
<path style="mix-blend-mode:multiply" opacity="0.5" d="M203.712 213.949L209.89 206.701L192.544 211.763L203.712 213.949Z" fill="url(#paint63_linear_6540_48825)"/>
<path style="mix-blend-mode:multiply" opacity="0.5" d="M208.238 224.363L209.893 206.7L203.715 213.948L208.238 224.363Z" fill="url(#paint64_linear_6540_48825)"/>
<path style="mix-blend-mode:color-dodge" opacity="0.5" d="M219.801 193.916L209.891 206.7L217.328 204.997L219.801 193.916Z" fill="url(#paint65_linear_6540_48825)"/>
<path style="mix-blend-mode:color-dodge" opacity="0.5" d="M225.066 213.318L209.889 206.699L217.326 204.996L225.066 213.318Z" fill="url(#paint66_linear_6540_48825)"/>
<path style="mix-blend-mode:color-dodge" opacity="0.5" d="M225.066 213.318L209.889 206.699L217.326 204.996L225.066 213.318Z" fill="url(#paint67_linear_6540_48825)"/>
<path style="mix-blend-mode:color-dodge" opacity="0.5" d="M209.495 198.703L209.893 206.698L199.698 192.942L209.495 198.703Z" fill="url(#paint68_linear_6540_48825)"/>
<g style="mix-blend-mode:color-dodge" opacity="0.8">
<path d="M215.099 207.773C214.012 207.793 214.367 208.684 214.367 208.684L218.463 210.474C218.279 209.716 217.849 209.04 217.241 208.551C216.632 208.062 215.879 207.789 215.099 207.773Z" fill="white"/>
</g>
<path style="mix-blend-mode:multiply" opacity="0.5" d="M192.587 211.797C192.587 211.797 200.782 213.773 203.319 214.526L208.278 224.399L203.755 213.983L192.587 211.797Z" fill="url(#paint69_linear_6540_48825)"/>
<path style="mix-blend-mode:multiply" opacity="0.5" d="M199.699 192.94L209.893 206.697L197.899 207.096L199.699 192.94Z" fill="url(#paint70_linear_6540_48825)"/>
<path style="mix-blend-mode:multiply" opacity="0.5" d="M225.067 213.317L209.89 206.698L211.228 219.125L225.067 213.317Z" fill="url(#paint71_linear_6540_48825)"/>
<path style="mix-blend-mode:multiply" opacity="0.5" d="M192.587 211.798L209.889 206.701L208.278 224.399L201.437 216.87L192.587 211.798Z" fill="url(#paint72_linear_6540_48825)"/>
<g style="mix-blend-mode:soft-light" opacity="0.4">
<path d="M211.632 198.176C208.942 199.836 210.821 203.987 211.83 203.619C213.59 202.173 214.904 200.259 215.623 198.097C215.537 197.136 212.681 197.448 211.632 198.176Z" fill="#F7FFFF"/>
</g>
<g style="mix-blend-mode:soft-light" opacity="0.4">
<path d="M199.514 207.931C201.015 209.529 203.521 208.365 204.932 207.32C207.226 205.663 196.785 205.061 199.514 207.931Z" fill="#F7FFFF"/>
</g>
</g>
<defs>
<linearGradient id="paint0_linear_6540_48825" x1="72.0102" y1="170.835" x2="108.193" y2="125.78" gradientUnits="userSpaceOnUse">
<stop offset="0.21" stop-color="#98ABD2"/>
<stop offset="0.49" stop-color="#72719D"/>
<stop offset="1" stop-color="#DAE1EF"/>
</linearGradient>
<linearGradient id="paint1_linear_6540_48825" x1="80.998" y1="170.666" x2="97.8006" y2="149.388" gradientUnits="userSpaceOnUse">
<stop stop-color="#705AB8"/>
<stop offset="1" stop-color="white"/>
</linearGradient>
<linearGradient id="paint2_linear_6540_48825" x1="98.4573" y1="154.836" x2="115.386" y2="168.431" gradientUnits="userSpaceOnUse">
<stop stop-color="#8980EB"/>
<stop offset="1" stop-color="#705AB8"/>
</linearGradient>
<linearGradient id="paint3_linear_6540_48825" x1="274.477" y1="333.43" x2="310.661" y2="288.375" gradientUnits="userSpaceOnUse">
<stop offset="0.21" stop-color="#98ABD2"/>
<stop offset="0.49" stop-color="#72719D"/>
<stop offset="1" stop-color="#DAE1EF"/>
</linearGradient>
<linearGradient id="paint4_linear_6540_48825" x1="272.702" y1="324.618" x2="289.874" y2="303.636" gradientUnits="userSpaceOnUse">
<stop stop-color="#705AB8"/>
<stop offset="1" stop-color="white"/>
</linearGradient>
<linearGradient id="paint5_linear_6540_48825" x1="284.412" y1="304.171" x2="267.483" y2="290.576" gradientUnits="userSpaceOnUse">
<stop stop-color="#8980EB"/>
<stop offset="1" stop-color="#705AB8"/>
</linearGradient>
<linearGradient id="paint6_linear_6540_48825" x1="123.891" y1="314.275" x2="267.735" y2="135.161" gradientUnits="userSpaceOnUse">
<stop offset="0.21" stop-color="#98ABD2"/>
<stop offset="0.49" stop-color="#72719D"/>
<stop offset="1" stop-color="#DAE1EF"/>
</linearGradient>
<linearGradient id="paint7_linear_6540_48825" x1="272.022" y1="129.823" x2="140.971" y2="293.007" gradientUnits="userSpaceOnUse">
<stop offset="0.21" stop-color="#98ABD2"/>
<stop offset="0.49" stop-color="#72719D"/>
<stop offset="1" stop-color="#DAE1EF"/>
</linearGradient>
<linearGradient id="paint8_linear_6540_48825" x1="74.3097" y1="222.159" x2="153.613" y2="123.41" gradientUnits="userSpaceOnUse">
<stop stop-color="#705AB8"/>
<stop offset="1" stop-color="white"/>
</linearGradient>
<linearGradient id="paint9_linear_6540_48825" x1="224.212" y1="342.542" x2="303.515" y2="243.794" gradientUnits="userSpaceOnUse">
<stop stop-color="#705AB8"/>
<stop offset="1" stop-color="white"/>
</linearGradient>
<linearGradient id="paint10_linear_6540_48825" x1="118.944" y1="197.387" x2="106.868" y2="294.219" gradientUnits="userSpaceOnUse">
<stop stop-color="#705AB8"/>
<stop offset="1" stop-color="white"/>
</linearGradient>
<linearGradient id="paint11_linear_6540_48825" x1="201.352" y1="276.992" x2="161.838" y2="384.74" gradientUnits="userSpaceOnUse">
<stop stop-color="#705AB8"/>
<stop offset="1" stop-color="white"/>
</linearGradient>
<linearGradient id="paint12_linear_6540_48825" x1="136.02" y1="298.818" x2="245.668" y2="162.285" gradientUnits="userSpaceOnUse">
<stop stop-color="#705AB8"/>
<stop offset="1" stop-color="white"/>
</linearGradient>
<linearGradient id="paint13_linear_6540_48825" x1="158.721" y1="132.477" x2="293.865" y2="241.01" gradientUnits="userSpaceOnUse">
<stop stop-color="#8980EB"/>
<stop offset="1" stop-color="#705AB8"/>
</linearGradient>
<linearGradient id="paint14_linear_6540_48825" x1="179.003" y1="76.6817" x2="293.16" y2="168.36" gradientUnits="userSpaceOnUse">
<stop stop-color="#728EE3"/>
<stop offset="1" stop-color="#836888"/>
</linearGradient>
<linearGradient id="paint15_linear_6540_48825" x1="86.6431" y1="191.687" x2="251.629" y2="324.185" gradientUnits="userSpaceOnUse">
<stop stop-color="#728EE3"/>
<stop offset="1" stop-color="#836888"/>
</linearGradient>
<linearGradient id="paint16_linear_6540_48825" x1="194.098" y1="302.116" x2="233.054" y2="333.402" gradientUnits="userSpaceOnUse">
<stop stop-color="#8980EB"/>
<stop offset="1" stop-color="#705AB8"/>
</linearGradient>
<linearGradient id="paint17_linear_6540_48825" x1="158.049" y1="133.936" x2="162.324" y2="137.369" gradientUnits="userSpaceOnUse">
<stop stop-color="#8980EB"/>
<stop offset="1" stop-color="#705AB8"/>
</linearGradient>
<linearGradient id="paint18_linear_6540_48825" x1="289.842" y1="236.418" x2="293.813" y2="239.607" gradientUnits="userSpaceOnUse">
<stop stop-color="#8980EB"/>
<stop offset="1" stop-color="#705AB8"/>
</linearGradient>
<linearGradient id="paint19_linear_6540_48825" x1="241.335" y1="106.286" x2="271.568" y2="130.565" gradientUnits="userSpaceOnUse">
<stop stop-color="#8980EB"/>
<stop offset="1" stop-color="#705AB8"/>
</linearGradient>
<linearGradient id="paint20_linear_6540_48825" x1="219.423" y1="235.625" x2="218.309" y2="241.547" gradientUnits="userSpaceOnUse">
<stop stop-color="#8980EB"/>
<stop offset="1" stop-color="#705AB8"/>
</linearGradient>
<linearGradient id="paint21_linear_6540_48825" x1="226.804" y1="240.856" x2="225.962" y2="245.332" gradientUnits="userSpaceOnUse">
<stop stop-color="#8980EB"/>
<stop offset="1" stop-color="#705AB8"/>
</linearGradient>
<linearGradient id="paint22_linear_6540_48825" x1="264.27" y1="112.414" x2="263.103" y2="118.113" gradientUnits="userSpaceOnUse">
<stop stop-color="#8980EB"/>
<stop offset="1" stop-color="#705AB8"/>
</linearGradient>
<linearGradient id="paint23_linear_6540_48825" x1="254.581" y1="150.875" x2="150.319" y2="280.702" gradientUnits="userSpaceOnUse">
<stop offset="0.21" stop-color="#98ABD2"/>
<stop offset="0.49" stop-color="#72719D"/>
<stop offset="1" stop-color="#DAE1EF"/>
</linearGradient>
<linearGradient id="paint24_linear_6540_48825" x1="83.3003" y1="181.935" x2="261.221" y2="324.82" gradientUnits="userSpaceOnUse">
<stop offset="0.21" stop-color="#98ABD2"/>
<stop offset="0.49" stop-color="#72719D"/>
<stop offset="1" stop-color="#DAE1EF"/>
</linearGradient>
<linearGradient id="paint25_linear_6540_48825" x1="144.008" y1="288.558" x2="187.459" y2="234.452" gradientUnits="userSpaceOnUse">
<stop stop-color="#8980EB"/>
<stop offset="1" stop-color="#705AB8"/>
</linearGradient>
<linearGradient id="paint26_linear_6540_48825" x1="133.365" y1="263.02" x2="181.623" y2="191.121" gradientUnits="userSpaceOnUse">
<stop stop-color="#705AB8"/>
<stop offset="1" stop-color="white"/>
</linearGradient>
<linearGradient id="paint27_linear_6540_48825" x1="146.546" y1="87.89" x2="371.758" y2="268.754" gradientUnits="userSpaceOnUse">
<stop offset="0.21" stop-color="#98ABD2"/>
<stop offset="0.49" stop-color="#72719D"/>
<stop offset="1" stop-color="#DAE1EF"/>
</linearGradient>
<linearGradient id="paint28_linear_6540_48825" x1="197.691" y1="221.713" x2="277.343" y2="122.53" gradientUnits="userSpaceOnUse">
<stop offset="0.21" stop-color="#98ABD2"/>
<stop offset="0.49" stop-color="#72719D"/>
<stop offset="1" stop-color="#DAE1EF"/>
</linearGradient>
<linearGradient id="paint29_linear_6540_48825" x1="249.846" y1="117.976" x2="190.058" y2="180.616" gradientUnits="userSpaceOnUse">
<stop stop-color="#705AB8"/>
<stop offset="1" stop-color="white"/>
</linearGradient>
<linearGradient id="paint30_linear_6540_48825" x1="211.094" y1="206.312" x2="247.573" y2="160.888" gradientUnits="userSpaceOnUse">
<stop stop-color="#8980EB"/>
<stop offset="1" stop-color="#705AB8"/>
</linearGradient>
<linearGradient id="paint31_linear_6540_48825" x1="160.155" y1="188.034" x2="185.132" y2="156.933" gradientUnits="userSpaceOnUse">
<stop stop-color="#8980EB"/>
<stop offset="1" stop-color="#705AB8"/>
</linearGradient>
<linearGradient id="paint32_linear_6540_48825" x1="160.908" y1="187.1" x2="183.949" y2="158.409" gradientUnits="userSpaceOnUse">
<stop stop-color="#86759D"/>
<stop offset="0.39" stop-color="#98ABD2"/>
<stop offset="1" stop-color="#DAE1EF"/>
</linearGradient>
<linearGradient id="paint33_linear_6540_48825" x1="158.031" y1="164.586" x2="170.944" y2="174.956" gradientUnits="userSpaceOnUse">
<stop stop-color="#705AB8"/>
<stop offset="1" stop-color="white"/>
</linearGradient>
<linearGradient id="paint34_linear_6540_48825" x1="170.945" y1="174.958" x2="183.424" y2="184.98" gradientUnits="userSpaceOnUse">
<stop stop-color="#705AB8"/>
<stop offset="1" stop-color="white"/>
</linearGradient>
<linearGradient id="paint35_linear_6540_48825" x1="158.008" y1="174.528" x2="166.082" y2="181.012" gradientUnits="userSpaceOnUse">
<stop stop-color="#705AB8"/>
<stop offset="1" stop-color="white"/>
</linearGradient>
<linearGradient id="paint36_linear_6540_48825" x1="165.864" y1="180.84" x2="173.699" y2="187.132" gradientUnits="userSpaceOnUse">
<stop stop-color="#705AB8"/>
<stop offset="1" stop-color="white"/>
</linearGradient>
<linearGradient id="paint37_linear_6540_48825" x1="180.245" y1="165.288" x2="169.088" y2="182.781" gradientUnits="userSpaceOnUse">
<stop stop-color="#BFD7FF"/>
<stop offset="1"/>
</linearGradient>
<linearGradient id="paint38_linear_6540_48825" x1="172.582" y1="172.918" x2="185.062" y2="182.94" gradientUnits="userSpaceOnUse">
<stop stop-color="#BFD7FF"/>
<stop offset="1"/>
</linearGradient>
<linearGradient id="paint39_linear_6540_48825" x1="184.902" y1="168.246" x2="173.728" y2="185.762" gradientUnits="userSpaceOnUse">
<stop stop-color="#BFD7FF"/>
<stop offset="1"/>
</linearGradient>
<linearGradient id="paint40_linear_6540_48825" x1="171.259" y1="159.538" x2="160.085" y2="177.053" gradientUnits="userSpaceOnUse">
<stop stop-color="#BFD7FF"/>
<stop offset="1"/>
</linearGradient>
<linearGradient id="paint41_linear_6540_48825" x1="155.094" y1="178.294" x2="170.764" y2="190.878" gradientUnits="userSpaceOnUse">
<stop stop-color="#8980EB"/>
<stop offset="1" stop-color="#705AB8"/>
</linearGradient>
<linearGradient id="paint42_linear_6540_48825" x1="156.706" y1="166.235" x2="169.62" y2="176.606" gradientUnits="userSpaceOnUse">
<stop stop-color="#8980EB"/>
<stop offset="1" stop-color="#705AB8"/>
</linearGradient>
<linearGradient id="paint43_linear_6540_48825" x1="169.307" y1="176.998" x2="181.786" y2="187.02" gradientUnits="userSpaceOnUse">
<stop stop-color="#8980EB"/>
<stop offset="1" stop-color="#705AB8"/>
</linearGradient>
<linearGradient id="paint44_linear_6540_48825" x1="158.073" y1="174.583" x2="173.743" y2="187.167" gradientUnits="userSpaceOnUse">
<stop stop-color="#8980EB"/>
<stop offset="1" stop-color="#705AB8"/>
</linearGradient>
<linearGradient id="paint45_linear_6540_48825" x1="239.327" y1="251.616" x2="264.304" y2="220.515" gradientUnits="userSpaceOnUse">
<stop stop-color="#8980EB"/>
<stop offset="1" stop-color="#705AB8"/>
</linearGradient>
<linearGradient id="paint46_linear_6540_48825" x1="240.08" y1="250.684" x2="263.121" y2="221.993" gradientUnits="userSpaceOnUse">
<stop stop-color="#86759D"/>
<stop offset="0.39" stop-color="#98ABD2"/>
<stop offset="1" stop-color="#DAE1EF"/>
</linearGradient>
<linearGradient id="paint47_linear_6540_48825" x1="237.203" y1="228.167" x2="250.116" y2="238.537" gradientUnits="userSpaceOnUse">
<stop stop-color="#705AB8"/>
<stop offset="1" stop-color="white"/>
</linearGradient>
<linearGradient id="paint48_linear_6540_48825" x1="250.117" y1="238.539" x2="262.596" y2="248.561" gradientUnits="userSpaceOnUse">
<stop stop-color="#705AB8"/>
<stop offset="1" stop-color="white"/>
</linearGradient>
<linearGradient id="paint49_linear_6540_48825" x1="237.18" y1="238.109" x2="245.254" y2="244.593" gradientUnits="userSpaceOnUse">
<stop stop-color="#705AB8"/>
<stop offset="1" stop-color="white"/>
</linearGradient>
<linearGradient id="paint50_linear_6540_48825" x1="245.036" y1="244.421" x2="252.87" y2="250.713" gradientUnits="userSpaceOnUse">
<stop stop-color="#705AB8"/>
<stop offset="1" stop-color="white"/>
</linearGradient>
<linearGradient id="paint51_linear_6540_48825" x1="259.417" y1="228.872" x2="248.26" y2="246.365" gradientUnits="userSpaceOnUse">
<stop stop-color="#BFD7FF"/>
<stop offset="1"/>
</linearGradient>
<linearGradient id="paint52_linear_6540_48825" x1="251.754" y1="236.499" x2="264.234" y2="246.521" gradientUnits="userSpaceOnUse">
<stop stop-color="#BFD7FF"/>
<stop offset="1"/>
</linearGradient>
<linearGradient id="paint53_linear_6540_48825" x1="264.074" y1="231.827" x2="252.9" y2="249.343" gradientUnits="userSpaceOnUse">
<stop stop-color="#BFD7FF"/>
<stop offset="1"/>
</linearGradient>
<linearGradient id="paint54_linear_6540_48825" x1="250.431" y1="223.123" x2="239.256" y2="240.638" gradientUnits="userSpaceOnUse">
<stop stop-color="#BFD7FF"/>
<stop offset="1"/>
</linearGradient>
<linearGradient id="paint55_linear_6540_48825" x1="234.245" y1="241.858" x2="249.936" y2="254.46" gradientUnits="userSpaceOnUse">
<stop stop-color="#8980EB"/>
<stop offset="1" stop-color="#705AB8"/>
</linearGradient>
<linearGradient id="paint56_linear_6540_48825" x1="235.878" y1="229.816" x2="248.792" y2="240.187" gradientUnits="userSpaceOnUse">
<stop stop-color="#8980EB"/>
<stop offset="1" stop-color="#705AB8"/>
</linearGradient>
<linearGradient id="paint57_linear_6540_48825" x1="248.479" y1="240.579" x2="260.958" y2="250.601" gradientUnits="userSpaceOnUse">
<stop stop-color="#8980EB"/>
<stop offset="1" stop-color="#705AB8"/>
</linearGradient>
<linearGradient id="paint58_linear_6540_48825" x1="237.223" y1="238.144" x2="252.914" y2="250.745" gradientUnits="userSpaceOnUse">
<stop stop-color="#8980EB"/>
<stop offset="1" stop-color="#705AB8"/>
</linearGradient>
<linearGradient id="paint59_linear_6540_48825" x1="199.331" y1="219.497" x2="224.307" y2="188.396" gradientUnits="userSpaceOnUse">
<stop stop-color="#8980EB"/>
<stop offset="1" stop-color="#705AB8"/>
</linearGradient>
<linearGradient id="paint60_linear_6540_48825" x1="200.08" y1="218.558" x2="223.121" y2="189.867" gradientUnits="userSpaceOnUse">
<stop stop-color="#86759D"/>
<stop offset="0.39" stop-color="#98ABD2"/>
<stop offset="1" stop-color="#DAE1EF"/>
</linearGradient>
<linearGradient id="paint61_linear_6540_48825" x1="197.207" y1="196.044" x2="210.12" y2="206.414" gradientUnits="userSpaceOnUse">
<stop stop-color="#705AB8"/>
<stop offset="1" stop-color="white"/>
</linearGradient>
<linearGradient id="paint62_linear_6540_48825" x1="210.117" y1="206.416" x2="222.574" y2="216.42" gradientUnits="userSpaceOnUse">
<stop stop-color="#705AB8"/>
<stop offset="1" stop-color="white"/>
</linearGradient>
<linearGradient id="paint63_linear_6540_48825" x1="197.18" y1="205.99" x2="205.254" y2="212.473" gradientUnits="userSpaceOnUse">
<stop stop-color="#705AB8"/>
<stop offset="1" stop-color="white"/>
</linearGradient>
<linearGradient id="paint64_linear_6540_48825" x1="205.04" y1="212.298" x2="212.874" y2="218.59" gradientUnits="userSpaceOnUse">
<stop stop-color="#705AB8"/>
<stop offset="1" stop-color="white"/>
</linearGradient>
<linearGradient id="paint65_linear_6540_48825" x1="219.417" y1="196.75" x2="208.26" y2="214.243" gradientUnits="userSpaceOnUse">
<stop stop-color="#BFD7FF"/>
<stop offset="1"/>
</linearGradient>
<linearGradient id="paint66_linear_6540_48825" x1="211.754" y1="204.377" x2="224.212" y2="214.382" gradientUnits="userSpaceOnUse">
<stop stop-color="#BFD7FF"/>
<stop offset="1"/>
</linearGradient>
<linearGradient id="paint67_linear_6540_48825" x1="224.074" y1="199.705" x2="212.9" y2="217.221" gradientUnits="userSpaceOnUse">
<stop stop-color="#BFD7FF"/>
<stop offset="1"/>
</linearGradient>
<linearGradient id="paint68_linear_6540_48825" x1="210.435" y1="190.997" x2="199.26" y2="208.512" gradientUnits="userSpaceOnUse">
<stop stop-color="#BFD7FF"/>
<stop offset="1"/>
</linearGradient>
<linearGradient id="paint69_linear_6540_48825" x1="194.243" y1="209.736" x2="209.934" y2="222.337" gradientUnits="userSpaceOnUse">
<stop stop-color="#8980EB"/>
<stop offset="1" stop-color="#705AB8"/>
</linearGradient>
<linearGradient id="paint70_linear_6540_48825" x1="195.882" y1="197.693" x2="208.795" y2="208.064" gradientUnits="userSpaceOnUse">
<stop stop-color="#8980EB"/>
<stop offset="1" stop-color="#705AB8"/>
</linearGradient>
<linearGradient id="paint71_linear_6540_48825" x1="208.479" y1="208.456" x2="220.936" y2="218.461" gradientUnits="userSpaceOnUse">
<stop stop-color="#8980EB"/>
<stop offset="1" stop-color="#705AB8"/>
</linearGradient>
<linearGradient id="paint72_linear_6540_48825" x1="197.223" y1="206.025" x2="212.914" y2="218.626" gradientUnits="userSpaceOnUse">
<stop stop-color="#8980EB"/>
<stop offset="1" stop-color="#705AB8"/>
</linearGradient>
</defs>
</svg>
