<svg width="261" height="316" viewBox="0 0 261 316" fill="none" xmlns="http://www.w3.org/2000/svg">
<g filter="url(#filter0_b_6924_91050)">
<path d="M25 314.19C22.2386 314.19 20 311.952 20 309.19L20 16.2069C20 13.4454 22.2386 11.2068 25 11.2068L57 11.2068L57 314.19L25 314.19Z" fill="url(#paint0_linear_6924_91050)"/>
<path d="M21 309.19L21 16.2068C21 13.9977 22.7908 12.2068 25 12.2068L56 12.2068L56 313.19L25 313.19C22.7909 313.19 21 311.4 21 309.19Z" stroke="url(#paint1_linear_6924_91050)" stroke-width="2"/>
</g>
<g filter="url(#filter1_b_6924_91050)">
<path d="M235 11.207C237.761 11.207 240 13.4456 240 16.207L240 309.191C240 311.952 237.761 314.191 235 314.191L203 314.191L203 11.207L235 11.207Z" fill="url(#paint2_linear_6924_91050)"/>
<path d="M239 16.207L239 309.191C239 311.4 237.209 313.191 235 313.191L204 313.191L204 12.207L235 12.207C237.209 12.207 239 13.9979 239 16.207Z" stroke="url(#paint3_linear_6924_91050)" stroke-width="2"/>
</g>
<mask id="path-5-inside-1_6924_91050" fill="white">
<path fill-rule="evenodd" clip-rule="evenodd" d="M17 10C17 4.47715 21.4772 0 27 0H233C238.523 0 243 4.47715 243 10V116.123C243 119.396 241.398 122.462 238.711 124.332L236.289 126.016C233.602 127.885 232 130.952 232 134.225V157V160V182.775C232 186.048 233.602 189.115 236.289 190.984L238.711 192.668C241.398 194.538 243 197.604 243 200.877V306C243 311.523 238.523 316 233 316H27C21.4772 316 17 311.523 17 306V200.877C17 197.604 18.6021 194.538 21.2894 192.668L23.7106 190.984C26.3979 189.115 28 186.048 28 182.775L28 160V157L28 134.225C28 130.952 26.3979 127.885 23.7106 126.016L21.2894 124.332C18.6021 122.462 17 119.396 17 116.123V10Z"/>
</mask>
<g filter="url(#filter2_i_6924_91050)">
<path fill-rule="evenodd" clip-rule="evenodd" d="M17 10C17 4.47715 21.4772 0 27 0H233C238.523 0 243 4.47715 243 10V116.123C243 119.396 241.398 122.462 238.711 124.332L236.289 126.016C233.602 127.885 232 130.952 232 134.225V157V160V182.775C232 186.048 233.602 189.115 236.289 190.984L238.711 192.668C241.398 194.538 243 197.604 243 200.877V306C243 311.523 238.523 316 233 316H27C21.4772 316 17 311.523 17 306V200.877C17 197.604 18.6021 194.538 21.2894 192.668L23.7106 190.984C26.3979 189.115 28 186.048 28 182.775L28 160V157L28 134.225C28 130.952 26.3979 127.885 23.7106 126.016L21.2894 124.332C18.6021 122.462 17 119.396 17 116.123V10Z" fill="#090E1C"/>
</g>
<path d="M28 160H30H28ZM28 157H26H28ZM21.2894 124.332L22.4315 122.69L21.2894 124.332ZM21.2894 192.668L20.1472 191.026L21.2894 192.668ZM238.711 192.668L237.569 194.31L238.711 192.668ZM23.7106 126.016L22.5685 127.658L23.7106 126.016ZM236.289 126.016L235.147 124.374L236.289 126.016ZM238.711 124.332L239.853 125.974L238.711 124.332ZM236.289 190.984L237.431 189.342L236.289 190.984ZM23.7106 190.984L24.8528 192.626L23.7106 190.984ZM233 -2H27V2H233V-2ZM245 116.123V10H241V116.123H245ZM237.431 127.658L239.853 125.974L237.569 122.69L235.147 124.374L237.431 127.658ZM234 157V134.225H230V157H234ZM234 160V157H230V160H234ZM234 182.775V160H230V182.775H234ZM239.853 191.026L237.431 189.342L235.147 192.626L237.569 194.31L239.853 191.026ZM245 306V200.877H241V306H245ZM27 318H233V314H27V318ZM15 200.877V306H19V200.877H15ZM22.4315 194.31L24.8528 192.626L22.5685 189.342L20.1472 191.026L22.4315 194.31ZM30 182.775L30 160H26L26 182.775H30ZM30 160V157H26V160H30ZM30 157L30 134.225H26L26 157H30ZM24.8528 124.374L22.4315 122.69L20.1472 125.974L22.5685 127.658L24.8528 124.374ZM15 10V116.123H19V10H15ZM22.4315 122.69C20.2817 121.194 19 118.741 19 116.123H15C15 120.051 16.9226 123.73 20.1472 125.974L22.4315 122.69ZM19 200.877C19 198.259 20.2817 195.806 22.4315 194.31L20.1472 191.026C16.9226 193.27 15 196.949 15 200.877H19ZM27 314C22.5817 314 19 310.418 19 306H15C15 312.627 20.3726 318 27 318V314ZM241 306C241 310.418 237.418 314 233 314V318C239.627 318 245 312.627 245 306H241ZM237.569 194.31C239.718 195.806 241 198.259 241 200.877H245C245 196.949 243.077 193.27 239.853 191.026L237.569 194.31ZM30 134.225C30 130.297 28.0774 126.618 24.8528 124.374L22.5685 127.658C24.7183 129.153 26 131.606 26 134.225H30ZM235.147 124.374C231.923 126.618 230 130.297 230 134.225H234C234 131.606 235.282 129.153 237.431 127.658L235.147 124.374ZM241 116.123C241 118.741 239.718 121.194 237.569 122.69L239.853 125.974C243.077 123.73 245 120.051 245 116.123H241ZM230 182.775C230 186.703 231.923 190.382 235.147 192.626L237.431 189.342C235.282 187.847 234 185.394 234 182.775H230ZM27 -2C20.3726 -2 15 3.37258 15 10H19C19 5.58172 22.5817 2 27 2V-2ZM24.8528 192.626C28.0774 190.382 30 186.703 30 182.775H26C26 185.394 24.7183 187.847 22.5685 189.342L24.8528 192.626ZM233 2C237.418 2 241 5.58172 241 10H245C245 3.37258 239.627 -2 233 -2V2Z" fill="url(#paint4_linear_6924_91050)" mask="url(#path-5-inside-1_6924_91050)"/>
<mask id="mask0_6924_91050" style="mask-type:alpha" maskUnits="userSpaceOnUse" x="19" y="2" width="222" height="312">
<path fill-rule="evenodd" clip-rule="evenodd" d="M19 12C19 6.47715 23.4771 2 29 2H231C236.523 2 241 6.47715 241 12V116.602C241 119.867 239.406 122.927 236.73 124.798L234.465 126.382C231.789 128.253 230.195 131.312 230.195 134.577V157.013V159.975V182.41C230.195 185.675 231.789 188.735 234.465 190.606L236.73 192.19C239.406 194.061 241 197.12 241 200.385V304C241 309.523 236.523 314 231 314H29C23.4772 314 19 309.523 19 304V200.386C19 197.121 20.5939 194.062 23.2697 192.191L25.537 190.606C28.2127 188.735 29.8066 185.675 29.8066 182.41L29.8066 157.013L29.8066 134.577C29.8066 131.312 28.2127 128.253 25.537 126.382L23.2697 124.796C20.5939 122.925 19 119.866 19 116.601V12Z" fill="#090E1C"/>
</mask>
<g mask="url(#mask0_6924_91050)">
<rect x="18" y="317" width="317" height="113" transform="rotate(-90 18 317)" fill="#060911"/>
<g style="mix-blend-mode:hard-light" opacity="0.2">
<path style="mix-blend-mode:multiply" opacity="0.5" d="M130.461 128.767L64.0275 165L76.7303 88.2809L23 33.9722L97.244 22.767L130.461 -47L163.677 22.767L238 33.9722L184.191 88.2809L196.894 165L130.461 128.767Z" fill="url(#paint5_linear_6924_91050)"/>
<path d="M230.195 36.5899L194.375 31.1918L184.591 29.7195L161.316 26.2026L130.467 -38.5752L99.6961 26.2026L30.7383 36.5899L80.6025 86.9726L68.8465 158.13L130.467 124.514L192.087 158.13L180.331 86.9726L230.195 36.5899Z" fill="url(#paint6_linear_6924_91050)"/>
<path style="mix-blend-mode:multiply" opacity="0.5" d="M30.4297 36.5908L131.894 64.0723L80.2939 86.9735L30.4297 36.5908Z" fill="url(#paint7_linear_6924_91050)"/>
<path style="mix-blend-mode:multiply" opacity="0.5" d="M229.875 36.5908L131.883 64.0723L180.011 86.9735L229.875 36.5908Z" fill="url(#paint8_linear_6924_91050)"/>
<path style="mix-blend-mode:multiply" opacity="0.5" d="M130.144 124.516L131.88 64.0732L68.4453 158.132L130.144 124.516Z" fill="url(#paint9_linear_6924_91050)"/>
<path style="mix-blend-mode:multiply" opacity="0.5" d="M191.772 158.132L131.888 64.0732L130.152 124.516L191.772 158.132Z" fill="url(#paint10_linear_6924_91050)"/>
<path style="mix-blend-mode:color-dodge" opacity="0.5" d="M130.152 -38.5752L131.888 64.0714L160.923 26.2026L130.152 -38.5752Z" fill="url(#paint11_linear_6924_91050)"/>
<path style="mix-blend-mode:color-dodge" opacity="0.5" d="M229.875 36.5905L131.883 64.072L160.918 26.2031L229.875 36.5905Z" fill="url(#paint12_linear_6924_91050)"/>
<path style="mix-blend-mode:color-dodge" opacity="0.5" d="M229.875 36.5905L131.883 64.072L160.918 26.2031L229.875 36.5905Z" fill="url(#paint13_linear_6924_91050)"/>
<path style="mix-blend-mode:color-dodge" opacity="0.5" d="M99.3086 26.2031L131.894 64.072L30.4297 36.5905L99.3086 26.2031Z" fill="url(#paint14_linear_6924_91050)"/>
<g style="mix-blend-mode:color-dodge" opacity="0.8">
<path d="M160.686 48.6967C155.558 53.1951 159.976 56.1396 159.976 56.1396L186.328 48.6967C182.614 45.8602 178.121 44.3301 173.507 44.3301C168.894 44.3301 164.401 45.8602 160.686 48.6967Z" fill="white"/>
</g>
<path style="mix-blend-mode:multiply" opacity="0.5" d="M68.8477 158.131C68.8477 158.131 115.556 135.312 130.468 128.932L192.246 158.131L130.626 124.516L68.8477 158.131Z" fill="url(#paint15_linear_6924_91050)"/>
<g style="mix-blend-mode:soft-light" opacity="0.4">
<path d="M107.498 14.9977C100.95 33.8095 125.961 46.9776 129.274 41.1705C132.588 35.3634 130.537 3.05637 126.276 -1.3603C122.016 -5.77696 110.181 7.30945 107.498 14.9977Z" fill="#F7FFFF"/>
</g>
<g style="mix-blend-mode:soft-light" opacity="0.4">
<path d="M87.0677 111.592C100.402 113.392 107.818 97.7698 110.737 87.0553C115.077 69.634 63.0034 108.157 87.0677 111.592Z" fill="#F7FFFF"/>
</g>
</g>
</g>
<g filter="url(#filter3_f_6924_91050)">
<ellipse cx="130.5" cy="158" rx="55.5" ry="52" fill="#6E85CF"/>
</g>
<path d="M103.505 66V52.16H111.425V54.12H105.665V58.1H107.885C109.325 58.1 110.418 58.4133 111.165 59.04C111.925 59.6667 112.305 60.66 112.305 62.02C112.305 63.3933 111.925 64.4 111.165 65.04C110.418 65.68 109.325 66 107.885 66H103.505ZM107.885 64.16C108.685 64.16 109.265 63.9867 109.625 63.64C109.985 63.28 110.165 62.74 110.165 62.02C110.165 61.3 109.985 60.76 109.625 60.4C109.265 60.0267 108.685 59.84 107.885 59.84H105.665V64.16H107.885ZM123.673 66H121.453L120.613 62.9H116.173L115.333 66H113.113L117.013 52.16H119.833L123.673 66ZM118.413 53.88L116.593 60.88H120.213L118.413 53.88ZM129.284 52.16C130.817 52.16 131.964 52.5467 132.724 53.32C133.484 54.08 133.864 55.1467 133.864 56.52V57.82C133.864 59.1933 133.484 60.26 132.724 61.02C131.964 61.78 130.817 62.16 129.284 62.16H127.384V66H125.224V52.16H129.284ZM127.384 60.12H129.284C130.897 60.12 131.704 59.3533 131.704 57.82V56.52C131.704 55.76 131.504 55.1867 131.104 54.8C130.717 54.4 130.111 54.2 129.284 54.2H127.384V60.12ZM140.274 51.94C141.1 51.94 141.827 52.06 142.454 52.3C143.08 52.5267 143.607 52.86 144.034 53.3C144.46 53.74 144.78 54.2733 144.994 54.9C145.22 55.5133 145.334 56.2 145.334 56.96V61.18C145.334 61.9533 145.22 62.6533 144.994 63.28C144.78 63.8933 144.46 64.42 144.034 64.86C143.607 65.3 143.08 65.64 142.454 65.88C141.827 66.1067 141.1 66.22 140.274 66.22H140.254C139.44 66.22 138.714 66.1 138.074 65.86C137.447 65.62 136.92 65.28 136.494 64.84C136.067 64.4 135.747 63.8733 135.534 63.26C135.32 62.6333 135.214 61.94 135.214 61.18V56.96C135.214 56.2 135.32 55.5133 135.534 54.9C135.76 54.2733 136.08 53.74 136.494 53.3C136.92 52.86 137.447 52.5267 138.074 52.3C138.714 52.06 139.44 51.94 140.254 51.94H140.274ZM140.274 64.2C141.234 64.2 141.96 63.9133 142.454 63.34C142.947 62.7667 143.194 62.0067 143.194 61.06V57.08C143.194 56.1467 142.947 55.3933 142.454 54.82C141.96 54.2467 141.234 53.96 140.274 53.96H140.254C139.294 53.96 138.567 54.2467 138.074 54.82C137.594 55.3933 137.354 56.1467 137.354 57.08V61.06C137.354 62.0067 137.594 62.7667 138.074 63.34C138.567 63.9133 139.294 64.2 140.254 64.2H140.274ZM154.333 58.12V52.16H156.493V66H154.333V60.16H149.493V66H147.333V52.16H149.493V58.12H154.333Z" fill="#C0D0FF"/>
<path d="M109.176 44V35.6H112.632C113.376 35.6 114.012 35.72 114.54 35.96C115.076 36.2 115.488 36.544 115.776 36.992C116.064 37.44 116.208 37.972 116.208 38.588C116.208 39.204 116.064 39.736 115.776 40.184C115.488 40.632 115.076 40.976 114.54 41.216C114.012 41.456 113.376 41.576 112.632 41.576H110.04L110.736 40.844V44H109.176ZM110.736 41.012L110.04 40.256H112.56C113.248 40.256 113.764 40.112 114.108 39.824C114.46 39.528 114.636 39.116 114.636 38.588C114.636 38.052 114.46 37.64 114.108 37.352C113.764 37.064 113.248 36.92 112.56 36.92H110.04L110.736 36.152V41.012ZM119.694 44L123.474 35.6H125.01L128.802 44H127.17L123.918 36.428H124.542L121.302 44H119.694ZM121.434 42.056L121.854 40.832H126.39L126.81 42.056H121.434ZM139.494 35.6H141.054V44H139.494V35.6ZM135.15 44H133.59V35.6H135.15V44ZM139.614 40.4H135.018V39.068H139.614V40.4ZM146.922 44V35.6H152.622L152.61 36.92H148.086L148.446 36.548L148.458 44H146.922Z" fill="white"/>
<path d="M60.1127 286V277.04L61.0927 278.02H58.1527V276.2H62.3807V286H60.1127ZM68.2831 286.168C67.4804 286.168 66.7618 285.972 66.1271 285.58C65.4924 285.179 64.9931 284.6 64.6291 283.844C64.2651 283.088 64.0831 282.173 64.0831 281.1C64.0831 280.027 64.2651 279.112 64.6291 278.356C64.9931 277.6 65.4924 277.026 66.1271 276.634C66.7618 276.233 67.4804 276.032 68.2831 276.032C69.0951 276.032 69.8138 276.233 70.4391 276.634C71.0738 277.026 71.5731 277.6 71.9371 278.356C72.3011 279.112 72.4831 280.027 72.4831 281.1C72.4831 282.173 72.3011 283.088 71.9371 283.844C71.5731 284.6 71.0738 285.179 70.4391 285.58C69.8138 285.972 69.0951 286.168 68.2831 286.168ZM68.2831 284.25C68.6658 284.25 68.9971 284.143 69.2771 283.928C69.5664 283.713 69.7904 283.373 69.9491 282.906C70.1171 282.439 70.2011 281.837 70.2011 281.1C70.2011 280.363 70.1171 279.761 69.9491 279.294C69.7904 278.827 69.5664 278.487 69.2771 278.272C68.9971 278.057 68.6658 277.95 68.2831 277.95C67.9098 277.95 67.5784 278.057 67.2891 278.272C67.0091 278.487 66.7851 278.827 66.6171 279.294C66.4584 279.761 66.3791 280.363 66.3791 281.1C66.3791 281.837 66.4584 282.439 66.6171 282.906C66.7851 283.373 67.0091 283.713 67.2891 283.928C67.5784 284.143 67.9098 284.25 68.2831 284.25ZM77.7851 286.168C76.9824 286.168 76.2637 285.972 75.6291 285.58C74.9944 285.179 74.4951 284.6 74.1311 283.844C73.7671 283.088 73.5851 282.173 73.5851 281.1C73.5851 280.027 73.7671 279.112 74.1311 278.356C74.4951 277.6 74.9944 277.026 75.6291 276.634C76.2637 276.233 76.9824 276.032 77.7851 276.032C78.5971 276.032 79.3157 276.233 79.9411 276.634C80.5757 277.026 81.0751 277.6 81.4391 278.356C81.8031 279.112 81.9851 280.027 81.9851 281.1C81.9851 282.173 81.8031 283.088 81.4391 283.844C81.0751 284.6 80.5757 285.179 79.9411 285.58C79.3157 285.972 78.5971 286.168 77.7851 286.168ZM77.7851 284.25C78.1677 284.25 78.4991 284.143 78.7791 283.928C79.0684 283.713 79.2924 283.373 79.4511 282.906C79.6191 282.439 79.7031 281.837 79.7031 281.1C79.7031 280.363 79.6191 279.761 79.4511 279.294C79.2924 278.827 79.0684 278.487 78.7791 278.272C78.4991 278.057 78.1677 277.95 77.7851 277.95C77.4117 277.95 77.0804 278.057 76.7911 278.272C76.5111 278.487 76.2871 278.827 76.1191 279.294C75.9604 279.761 75.8811 280.363 75.8811 281.1C75.8811 281.837 75.9604 282.439 76.1191 282.906C76.2871 283.373 76.5111 283.713 76.7911 283.928C77.0804 284.143 77.4117 284.25 77.7851 284.25ZM82.9933 288.156L83.9173 284.796L84.2253 286.056C83.8239 286.056 83.4926 285.939 83.2313 285.706C82.9793 285.473 82.8533 285.151 82.8533 284.74C82.8533 284.329 82.9839 284.003 83.2453 283.76C83.5066 283.517 83.8286 283.396 84.2113 283.396C84.6033 283.396 84.9253 283.522 85.1773 283.774C85.4293 284.017 85.5553 284.339 85.5553 284.74C85.5553 284.861 85.5459 284.983 85.5273 285.104C85.5086 285.216 85.4713 285.356 85.4153 285.524C85.3686 285.683 85.2893 285.888 85.1773 286.14L84.3793 288.156H82.9933ZM90.5956 286.168C89.7929 286.168 89.0743 285.972 88.4396 285.58C87.8049 285.179 87.3056 284.6 86.9416 283.844C86.5776 283.088 86.3956 282.173 86.3956 281.1C86.3956 280.027 86.5776 279.112 86.9416 278.356C87.3056 277.6 87.8049 277.026 88.4396 276.634C89.0743 276.233 89.7929 276.032 90.5956 276.032C91.4076 276.032 92.1263 276.233 92.7516 276.634C93.3863 277.026 93.8856 277.6 94.2496 278.356C94.6136 279.112 94.7956 280.027 94.7956 281.1C94.7956 282.173 94.6136 283.088 94.2496 283.844C93.8856 284.6 93.3863 285.179 92.7516 285.58C92.1263 285.972 91.4076 286.168 90.5956 286.168ZM90.5956 284.25C90.9783 284.25 91.3096 284.143 91.5896 283.928C91.8789 283.713 92.1029 283.373 92.2616 282.906C92.4296 282.439 92.5136 281.837 92.5136 281.1C92.5136 280.363 92.4296 279.761 92.2616 279.294C92.1029 278.827 91.8789 278.487 91.5896 278.272C91.3096 278.057 90.9783 277.95 90.5956 277.95C90.2223 277.95 89.8909 278.057 89.6016 278.272C89.3216 278.487 89.0976 278.827 88.9296 279.294C88.7709 279.761 88.6916 280.363 88.6916 281.1C88.6916 281.837 88.7709 282.439 88.9296 282.906C89.0976 283.373 89.3216 283.713 89.6016 283.928C89.8909 284.143 90.2223 284.25 90.5956 284.25ZM100.098 286.168C99.2949 286.168 98.5762 285.972 97.9416 285.58C97.3069 285.179 96.8076 284.6 96.4436 283.844C96.0796 283.088 95.8976 282.173 95.8976 281.1C95.8976 280.027 96.0796 279.112 96.4436 278.356C96.8076 277.6 97.3069 277.026 97.9416 276.634C98.5762 276.233 99.2949 276.032 100.098 276.032C100.91 276.032 101.628 276.233 102.254 276.634C102.888 277.026 103.388 277.6 103.752 278.356C104.116 279.112 104.298 280.027 104.298 281.1C104.298 282.173 104.116 283.088 103.752 283.844C103.388 284.6 102.888 285.179 102.254 285.58C101.628 285.972 100.91 286.168 100.098 286.168ZM100.098 284.25C100.48 284.25 100.812 284.143 101.092 283.928C101.381 283.713 101.605 283.373 101.764 282.906C101.932 282.439 102.016 281.837 102.016 281.1C102.016 280.363 101.932 279.761 101.764 279.294C101.605 278.827 101.381 278.487 101.092 278.272C100.812 278.057 100.48 277.95 100.098 277.95C99.7242 277.95 99.3929 278.057 99.1036 278.272C98.8236 278.487 98.5996 278.827 98.4316 279.294C98.2729 279.761 98.1936 280.363 98.1936 281.1C98.1936 281.837 98.2729 282.439 98.4316 282.906C98.5996 283.373 98.8236 283.713 99.1036 283.928C99.3929 284.143 99.7242 284.25 100.098 284.25ZM109.6 286.168C108.797 286.168 108.078 285.972 107.444 285.58C106.809 285.179 106.31 284.6 105.946 283.844C105.582 283.088 105.4 282.173 105.4 281.1C105.4 280.027 105.582 279.112 105.946 278.356C106.31 277.6 106.809 277.026 107.444 276.634C108.078 276.233 108.797 276.032 109.6 276.032C110.412 276.032 111.13 276.233 111.756 276.634C112.39 277.026 112.89 277.6 113.254 278.356C113.618 279.112 113.8 280.027 113.8 281.1C113.8 282.173 113.618 283.088 113.254 283.844C112.89 284.6 112.39 285.179 111.756 285.58C111.13 285.972 110.412 286.168 109.6 286.168ZM109.6 284.25C109.982 284.25 110.314 284.143 110.594 283.928C110.883 283.713 111.107 283.373 111.266 282.906C111.434 282.439 111.518 281.837 111.518 281.1C111.518 280.363 111.434 279.761 111.266 279.294C111.107 278.827 110.883 278.487 110.594 278.272C110.314 278.057 109.982 277.95 109.6 277.95C109.226 277.95 108.895 278.057 108.606 278.272C108.326 278.487 108.102 278.827 107.934 279.294C107.775 279.761 107.696 280.363 107.696 281.1C107.696 281.837 107.775 282.439 107.934 282.906C108.102 283.373 108.326 283.713 108.606 283.928C108.895 284.143 109.226 284.25 109.6 284.25ZM120.098 286V276.2H124.34C125.647 276.2 126.683 276.475 127.448 277.026C128.214 277.577 128.596 278.403 128.596 279.504C128.596 280.596 128.214 281.417 127.448 281.968C126.683 282.519 125.647 282.794 124.34 282.794H121.358L122.38 281.786V286H120.098ZM122.38 282.024L121.358 281.016H124.326C124.952 281.016 125.437 280.89 125.782 280.638C126.128 280.377 126.3 280.003 126.3 279.518C126.3 279.042 126.128 278.678 125.782 278.426C125.437 278.174 124.952 278.048 124.326 278.048H121.358L122.38 276.97V282.024ZM118.74 284.74V283.578H125.404V284.74H118.74Z" fill="white"/>
<path d="M141.036 285.16V277.74H137.2L137.13 279.476C137.102 280.129 137.06 280.75 137.004 281.338C136.958 281.917 136.878 282.444 136.766 282.92C136.664 283.396 136.519 283.793 136.332 284.11C136.146 284.427 135.917 284.637 135.646 284.74L133.686 284.46C134.041 284.479 134.33 284.357 134.554 284.096C134.788 283.835 134.97 283.471 135.1 283.004C135.231 282.537 135.329 281.991 135.394 281.366C135.46 280.731 135.506 280.045 135.534 279.308L135.646 276.2H142.828V285.16H141.036ZM133.35 288.086L133.364 284.46H144.242V288.086H142.562V286H135.044V288.086H133.35ZM149.109 286.098C148.279 286.098 147.551 285.935 146.925 285.608C146.309 285.272 145.829 284.815 145.483 284.236C145.147 283.657 144.979 282.999 144.979 282.262C144.979 281.515 145.143 280.857 145.469 280.288C145.805 279.709 146.263 279.257 146.841 278.93C147.429 278.603 148.097 278.44 148.843 278.44C149.571 278.44 150.22 278.599 150.789 278.916C151.359 279.233 151.807 279.681 152.133 280.26C152.46 280.839 152.623 281.52 152.623 282.304C152.623 282.379 152.619 282.463 152.609 282.556C152.609 282.649 152.605 282.738 152.595 282.822H146.365V281.66H151.671L150.985 282.024C150.995 281.595 150.906 281.217 150.719 280.89C150.533 280.563 150.276 280.307 149.949 280.12C149.632 279.933 149.263 279.84 148.843 279.84C148.414 279.84 148.036 279.933 147.709 280.12C147.392 280.307 147.14 280.568 146.953 280.904C146.776 281.231 146.687 281.618 146.687 282.066V282.346C146.687 282.794 146.79 283.191 146.995 283.536C147.201 283.881 147.49 284.147 147.863 284.334C148.237 284.521 148.666 284.614 149.151 284.614C149.571 284.614 149.949 284.549 150.285 284.418C150.621 284.287 150.92 284.082 151.181 283.802L152.119 284.88C151.783 285.272 151.359 285.575 150.845 285.79C150.341 285.995 149.763 286.098 149.109 286.098ZM154.537 286V278.524H161.705V286H159.969V279.602L160.375 280.008H155.881L156.287 279.602V286H154.537ZM167.399 286.098C166.633 286.098 165.952 285.935 165.355 285.608C164.757 285.272 164.286 284.815 163.941 284.236C163.595 283.657 163.423 282.999 163.423 282.262C163.423 281.515 163.595 280.857 163.941 280.288C164.286 279.709 164.757 279.257 165.355 278.93C165.952 278.603 166.633 278.44 167.399 278.44C168.173 278.44 168.859 278.603 169.457 278.93C170.063 279.257 170.535 279.705 170.871 280.274C171.216 280.843 171.389 281.506 171.389 282.262C171.389 282.999 171.216 283.657 170.871 284.236C170.535 284.815 170.063 285.272 169.457 285.608C168.859 285.935 168.173 286.098 167.399 286.098ZM167.399 284.6C167.828 284.6 168.211 284.507 168.547 284.32C168.883 284.133 169.144 283.863 169.331 283.508C169.527 283.153 169.625 282.738 169.625 282.262C169.625 281.777 169.527 281.361 169.331 281.016C169.144 280.661 168.883 280.391 168.547 280.204C168.211 280.017 167.833 279.924 167.413 279.924C166.983 279.924 166.601 280.017 166.265 280.204C165.938 280.391 165.677 280.661 165.481 281.016C165.285 281.361 165.187 281.777 165.187 282.262C165.187 282.738 165.285 283.153 165.481 283.508C165.677 283.863 165.938 284.133 166.265 284.32C166.601 284.507 166.979 284.6 167.399 284.6ZM175.374 286.126C176.065 286.126 176.676 286.028 177.208 285.832C177.749 285.636 178.174 285.365 178.482 285.02C178.79 284.665 178.944 284.259 178.944 283.802C178.944 283.233 178.706 282.785 178.23 282.458C177.754 282.122 177.101 281.954 176.27 281.954L176.214 282.332C176.699 282.332 177.129 282.253 177.502 282.094C177.885 281.935 178.183 281.716 178.398 281.436C178.622 281.147 178.734 280.825 178.734 280.47C178.734 280.041 178.58 279.667 178.272 279.35C177.964 279.033 177.544 278.79 177.012 278.622C176.48 278.454 175.873 278.384 175.192 278.412C174.744 278.421 174.291 278.487 173.834 278.608C173.386 278.72 172.924 278.883 172.448 279.098L172.896 280.386C173.307 280.209 173.708 280.073 174.1 279.98C174.501 279.887 174.889 279.84 175.262 279.84C175.617 279.84 175.92 279.877 176.172 279.952C176.424 280.017 176.615 280.12 176.746 280.26C176.886 280.391 176.956 280.545 176.956 280.722C176.956 280.899 176.9 281.053 176.788 281.184C176.676 281.315 176.513 281.413 176.298 281.478C176.093 281.543 175.841 281.576 175.542 281.576H174.24V282.752H175.682C176.158 282.752 176.522 282.831 176.774 282.99C177.035 283.139 177.166 283.363 177.166 283.662C177.166 283.867 177.087 284.049 176.928 284.208C176.779 284.367 176.564 284.488 176.284 284.572C176.004 284.647 175.668 284.684 175.276 284.684C174.819 284.684 174.361 284.628 173.904 284.516C173.447 284.404 173.036 284.245 172.672 284.04L172.182 285.342C172.63 285.594 173.129 285.79 173.68 285.93C174.24 286.061 174.805 286.126 175.374 286.126ZM180.746 286V278.524H182.496V283.452L186.626 278.524H188.222V286H186.472V281.072L182.356 286H180.746ZM192.13 286V279.588L192.536 280.008H189.498V278.524H196.498V280.008H193.474L193.88 279.588V286H192.13ZM202.304 286V284.488L202.206 284.166V281.52C202.206 281.007 202.052 280.61 201.744 280.33C201.436 280.041 200.969 279.896 200.344 279.896C199.924 279.896 199.508 279.961 199.098 280.092C198.696 280.223 198.356 280.405 198.076 280.638L197.39 279.364C197.791 279.056 198.267 278.827 198.818 278.678C199.378 278.519 199.956 278.44 200.554 278.44C201.636 278.44 202.472 278.701 203.06 279.224C203.657 279.737 203.956 280.535 203.956 281.618V286H202.304ZM199.952 286.098C199.392 286.098 198.902 286.005 198.482 285.818C198.062 285.622 197.735 285.356 197.502 285.02C197.278 284.675 197.166 284.287 197.166 283.858C197.166 283.438 197.264 283.06 197.46 282.724C197.665 282.388 197.996 282.122 198.454 281.926C198.911 281.73 199.518 281.632 200.274 281.632H202.444V282.794H200.4C199.802 282.794 199.401 282.892 199.196 283.088C198.99 283.275 198.888 283.508 198.888 283.788C198.888 284.105 199.014 284.357 199.266 284.544C199.518 284.731 199.868 284.824 200.316 284.824C200.745 284.824 201.128 284.726 201.464 284.53C201.809 284.334 202.056 284.045 202.206 283.662L202.5 284.712C202.332 285.151 202.028 285.491 201.59 285.734C201.16 285.977 200.614 286.098 199.952 286.098Z" fill="#7D7D7D"/>
<path d="M88.1585 267.168C87.2625 267.168 86.4831 266.981 85.8205 266.608C85.1671 266.235 84.6631 265.689 84.3085 264.97C83.9538 264.251 83.7765 263.365 83.7765 262.31C83.7765 261.181 83.9865 260.224 84.4065 259.44C84.8358 258.656 85.4238 258.059 86.1705 257.648C86.9265 257.237 87.7945 257.032 88.7745 257.032C89.2971 257.032 89.7965 257.088 90.2725 257.2C90.7485 257.312 91.1591 257.48 91.5045 257.704L90.6645 259.37C90.3938 259.183 90.1045 259.057 89.7965 258.992C89.4885 258.917 89.1665 258.88 88.8305 258.88C87.9811 258.88 87.3091 259.137 86.8145 259.65C86.3198 260.163 86.0725 260.924 86.0725 261.932C86.0725 262.1 86.0725 262.287 86.0725 262.492C86.0818 262.697 86.1098 262.903 86.1565 263.108L85.5265 262.52C85.7038 262.156 85.9325 261.853 86.2125 261.61C86.4925 261.358 86.8238 261.171 87.2065 261.05C87.5985 260.919 88.0278 260.854 88.4945 260.854C89.1291 260.854 89.6985 260.98 90.2025 261.232C90.7065 261.484 91.1078 261.839 91.4065 262.296C91.7145 262.753 91.8685 263.29 91.8685 263.906C91.8685 264.569 91.7005 265.147 91.3645 265.642C91.0378 266.127 90.5945 266.505 90.0345 266.776C89.4838 267.037 88.8585 267.168 88.1585 267.168ZM88.0325 265.474C88.3498 265.474 88.6298 265.418 88.8725 265.306C89.1245 265.185 89.3205 265.012 89.4605 264.788C89.6005 264.564 89.6705 264.307 89.6705 264.018C89.6705 263.57 89.5165 263.215 89.2085 262.954C88.9098 262.683 88.5085 262.548 88.0045 262.548C87.6685 262.548 87.3745 262.613 87.1225 262.744C86.8705 262.865 86.6698 263.038 86.5205 263.262C86.3805 263.477 86.3105 263.729 86.3105 264.018C86.3105 264.298 86.3805 264.55 86.5205 264.774C86.6605 264.989 86.8565 265.161 87.1085 265.292C87.3605 265.413 87.6685 265.474 88.0325 265.474ZM94.1045 267L100.797 257.2H102.463L95.7705 267H94.1045ZM94.9585 262.492C94.4825 262.492 94.0625 262.385 93.6985 262.17C93.3345 261.946 93.0452 261.633 92.8305 261.232C92.6252 260.821 92.5225 260.341 92.5225 259.79C92.5225 259.239 92.6252 258.763 92.8305 258.362C93.0452 257.961 93.3345 257.648 93.6985 257.424C94.0625 257.2 94.4825 257.088 94.9585 257.088C95.4345 257.088 95.8545 257.2 96.2185 257.424C96.5825 257.648 96.8672 257.961 97.0725 258.362C97.2779 258.763 97.3805 259.239 97.3805 259.79C97.3805 260.341 97.2779 260.821 97.0725 261.232C96.8672 261.633 96.5825 261.946 96.2185 262.17C95.8545 262.385 95.4345 262.492 94.9585 262.492ZM94.9585 261.344C95.2665 261.344 95.5139 261.218 95.7005 260.966C95.8872 260.705 95.9805 260.313 95.9805 259.79C95.9805 259.267 95.8872 258.88 95.7005 258.628C95.5139 258.367 95.2665 258.236 94.9585 258.236C94.6599 258.236 94.4125 258.367 94.2165 258.628C94.0299 258.88 93.9365 259.267 93.9365 259.79C93.9365 260.303 94.0299 260.691 94.2165 260.952C94.4125 261.213 94.6599 261.344 94.9585 261.344ZM101.609 267.112C101.142 267.112 100.722 267.005 100.349 266.79C99.9845 266.566 99.6999 266.253 99.4945 265.852C99.2892 265.441 99.1865 264.961 99.1865 264.41C99.1865 263.859 99.2892 263.383 99.4945 262.982C99.6999 262.581 99.9845 262.268 100.349 262.044C100.722 261.82 101.142 261.708 101.609 261.708C102.094 261.708 102.519 261.82 102.883 262.044C103.247 262.268 103.531 262.581 103.737 262.982C103.942 263.383 104.045 263.859 104.045 264.41C104.045 264.961 103.942 265.441 103.737 265.852C103.531 266.253 103.247 266.566 102.883 266.79C102.519 267.005 102.094 267.112 101.609 267.112ZM101.609 265.964C101.917 265.964 102.164 265.838 102.351 265.586C102.537 265.325 102.631 264.933 102.631 264.41C102.631 263.897 102.537 263.509 102.351 263.248C102.164 262.987 101.917 262.856 101.609 262.856C101.31 262.856 101.063 262.987 100.867 263.248C100.68 263.5 100.587 263.887 100.587 264.41C100.587 264.933 100.68 265.325 100.867 265.586C101.063 265.838 101.31 265.964 101.609 265.964Z" fill="white"/>
<path d="M114.239 267.14C113.492 267.14 112.797 267.019 112.153 266.776C111.518 266.524 110.963 266.174 110.487 265.726C110.02 265.269 109.656 264.732 109.395 264.116C109.133 263.5 109.003 262.828 109.003 262.1C109.003 261.372 109.133 260.7 109.395 260.084C109.656 259.468 110.025 258.936 110.501 258.488C110.977 258.031 111.532 257.681 112.167 257.438C112.801 257.186 113.497 257.06 114.253 257.06C115.055 257.06 115.788 257.2 116.451 257.48C117.113 257.751 117.673 258.157 118.131 258.698L116.955 259.804C116.6 259.421 116.203 259.137 115.765 258.95C115.326 258.754 114.85 258.656 114.337 258.656C113.823 258.656 113.352 258.74 112.923 258.908C112.503 259.076 112.134 259.314 111.817 259.622C111.509 259.93 111.266 260.294 111.089 260.714C110.921 261.134 110.837 261.596 110.837 262.1C110.837 262.604 110.921 263.066 111.089 263.486C111.266 263.906 111.509 264.27 111.817 264.578C112.134 264.886 112.503 265.124 112.923 265.292C113.352 265.46 113.823 265.544 114.337 265.544C114.85 265.544 115.326 265.451 115.765 265.264C116.203 265.068 116.6 264.774 116.955 264.382L118.131 265.502C117.673 266.034 117.113 266.44 116.451 266.72C115.788 267 115.051 267.14 114.239 267.14ZM124.244 267V265.488L124.146 265.166V262.52C124.146 262.007 123.992 261.61 123.684 261.33C123.376 261.041 122.91 260.896 122.284 260.896C121.864 260.896 121.449 260.961 121.038 261.092C120.637 261.223 120.296 261.405 120.016 261.638L119.33 260.364C119.732 260.056 120.208 259.827 120.758 259.678C121.318 259.519 121.897 259.44 122.494 259.44C123.577 259.44 124.412 259.701 125 260.224C125.598 260.737 125.896 261.535 125.896 262.618V267H124.244ZM121.892 267.098C121.332 267.098 120.842 267.005 120.422 266.818C120.002 266.622 119.676 266.356 119.442 266.02C119.218 265.675 119.106 265.287 119.106 264.858C119.106 264.438 119.204 264.06 119.4 263.724C119.606 263.388 119.937 263.122 120.394 262.926C120.852 262.73 121.458 262.632 122.214 262.632H124.384V263.794H122.34C121.743 263.794 121.342 263.892 121.136 264.088C120.931 264.275 120.828 264.508 120.828 264.788C120.828 265.105 120.954 265.357 121.206 265.544C121.458 265.731 121.808 265.824 122.256 265.824C122.686 265.824 123.068 265.726 123.404 265.53C123.75 265.334 123.997 265.045 124.146 264.662L124.44 265.712C124.272 266.151 123.969 266.491 123.53 266.734C123.101 266.977 122.555 267.098 121.892 267.098ZM130.452 267.098C129.827 267.098 129.225 267.019 128.646 266.86C128.077 266.692 127.624 266.491 127.288 266.258L127.96 264.928C128.296 265.143 128.697 265.32 129.164 265.46C129.631 265.6 130.097 265.67 130.564 265.67C131.115 265.67 131.511 265.595 131.754 265.446C132.006 265.297 132.132 265.096 132.132 264.844C132.132 264.639 132.048 264.485 131.88 264.382C131.712 264.27 131.493 264.186 131.222 264.13C130.951 264.074 130.648 264.023 130.312 263.976C129.985 263.929 129.654 263.869 129.318 263.794C128.991 263.71 128.693 263.593 128.422 263.444C128.151 263.285 127.932 263.075 127.764 262.814C127.596 262.553 127.512 262.207 127.512 261.778C127.512 261.302 127.647 260.891 127.918 260.546C128.189 260.191 128.567 259.921 129.052 259.734C129.547 259.538 130.13 259.44 130.802 259.44C131.306 259.44 131.815 259.496 132.328 259.608C132.841 259.72 133.266 259.879 133.602 260.084L132.93 261.414C132.575 261.199 132.216 261.055 131.852 260.98C131.497 260.896 131.143 260.854 130.788 260.854C130.256 260.854 129.859 260.933 129.598 261.092C129.346 261.251 129.22 261.451 129.22 261.694C129.22 261.918 129.304 262.086 129.472 262.198C129.64 262.31 129.859 262.399 130.13 262.464C130.401 262.529 130.699 262.585 131.026 262.632C131.362 262.669 131.693 262.73 132.02 262.814C132.347 262.898 132.645 263.015 132.916 263.164C133.196 263.304 133.42 263.505 133.588 263.766C133.756 264.027 133.84 264.368 133.84 264.788C133.84 265.255 133.7 265.661 133.42 266.006C133.149 266.351 132.762 266.622 132.258 266.818C131.754 267.005 131.152 267.098 130.452 267.098ZM139.589 259.44C140.187 259.44 140.719 259.557 141.185 259.79C141.661 260.023 142.035 260.383 142.305 260.868C142.576 261.344 142.711 261.96 142.711 262.716V267H140.961V262.94C140.961 262.277 140.803 261.783 140.485 261.456C140.177 261.129 139.743 260.966 139.183 260.966C138.773 260.966 138.409 261.05 138.091 261.218C137.774 261.386 137.527 261.638 137.349 261.974C137.181 262.301 137.097 262.716 137.097 263.22V267H135.347V256.612H137.097V261.54L136.719 260.924C136.981 260.448 137.359 260.084 137.853 259.832C138.357 259.571 138.936 259.44 139.589 259.44ZM149.075 267.098C148.441 267.098 147.876 266.958 147.381 266.678C146.887 266.398 146.495 265.978 146.205 265.418C145.925 264.849 145.785 264.13 145.785 263.262C145.785 262.385 145.93 261.666 146.219 261.106C146.518 260.546 146.915 260.131 147.409 259.86C147.913 259.58 148.469 259.44 149.075 259.44C149.813 259.44 150.461 259.599 151.021 259.916C151.591 260.233 152.039 260.677 152.365 261.246C152.701 261.815 152.869 262.487 152.869 263.262C152.869 264.037 152.701 264.709 152.365 265.278C152.039 265.847 151.591 266.295 151.021 266.622C150.461 266.939 149.813 267.098 149.075 267.098ZM144.931 267V256.612H146.681V261.26L146.541 263.248L146.597 265.236V267H144.931ZM148.879 265.6C149.299 265.6 149.673 265.507 149.999 265.32C150.335 265.133 150.601 264.863 150.797 264.508C150.993 264.153 151.091 263.738 151.091 263.262C151.091 262.777 150.993 262.361 150.797 262.016C150.601 261.661 150.335 261.391 149.999 261.204C149.673 261.017 149.299 260.924 148.879 260.924C148.459 260.924 148.081 261.017 147.745 261.204C147.409 261.391 147.143 261.661 146.947 262.016C146.751 262.361 146.653 262.777 146.653 263.262C146.653 263.738 146.751 264.153 146.947 264.508C147.143 264.863 147.409 265.133 147.745 265.32C148.081 265.507 148.459 265.6 148.879 265.6ZM159.039 267V265.488L158.941 265.166V262.52C158.941 262.007 158.787 261.61 158.479 261.33C158.171 261.041 157.704 260.896 157.079 260.896C156.659 260.896 156.244 260.961 155.833 261.092C155.432 261.223 155.091 261.405 154.811 261.638L154.125 260.364C154.526 260.056 155.002 259.827 155.553 259.678C156.113 259.519 156.692 259.44 157.289 259.44C158.372 259.44 159.207 259.701 159.795 260.224C160.392 260.737 160.691 261.535 160.691 262.618V267H159.039ZM156.687 267.098C156.127 267.098 155.637 267.005 155.217 266.818C154.797 266.622 154.47 266.356 154.237 266.02C154.013 265.675 153.901 265.287 153.901 264.858C153.901 264.438 153.999 264.06 154.195 263.724C154.4 263.388 154.732 263.122 155.189 262.926C155.646 262.73 156.253 262.632 157.009 262.632H159.179V263.794H157.135C156.538 263.794 156.136 263.892 155.931 264.088C155.726 264.275 155.623 264.508 155.623 264.788C155.623 265.105 155.749 265.357 156.001 265.544C156.253 265.731 156.603 265.824 157.051 265.824C157.48 265.824 157.863 265.726 158.199 265.53C158.544 265.334 158.792 265.045 158.941 264.662L159.235 265.712C159.067 266.151 158.764 266.491 158.325 266.734C157.896 266.977 157.35 267.098 156.687 267.098ZM166.381 267.098C165.597 267.098 164.897 266.935 164.281 266.608C163.674 266.272 163.198 265.815 162.853 265.236C162.507 264.657 162.335 263.999 162.335 263.262C162.335 262.515 162.507 261.857 162.853 261.288C163.198 260.709 163.674 260.257 164.281 259.93C164.897 259.603 165.597 259.44 166.381 259.44C167.109 259.44 167.748 259.589 168.299 259.888C168.859 260.177 169.283 260.607 169.573 261.176L168.229 261.96C168.005 261.605 167.729 261.344 167.403 261.176C167.085 261.008 166.74 260.924 166.367 260.924C165.937 260.924 165.55 261.017 165.205 261.204C164.859 261.391 164.589 261.661 164.393 262.016C164.197 262.361 164.099 262.777 164.099 263.262C164.099 263.747 164.197 264.167 164.393 264.522C164.589 264.867 164.859 265.133 165.205 265.32C165.55 265.507 165.937 265.6 166.367 265.6C166.74 265.6 167.085 265.516 167.403 265.348C167.729 265.18 168.005 264.919 168.229 264.564L169.573 265.348C169.283 265.908 168.859 266.342 168.299 266.65C167.748 266.949 167.109 267.098 166.381 267.098ZM172.445 265.334L172.487 263.136L176.393 259.524H178.493L175.175 262.856L174.251 263.626L172.445 265.334ZM171.017 267V256.612H172.767V267H171.017ZM176.659 267L173.929 263.626L175.035 262.226L178.787 267H176.659Z" fill="#7D7D7D"/>
<path fill-rule="evenodd" clip-rule="evenodd" d="M219.926 19.509V22.7297H221.865C222.936 22.7297 223.804 23.5949 223.804 24.6622V32.3919C223.804 33.4592 222.936 34.3244 221.865 34.3244H208.939C207.868 34.3244 207 33.4592 207 32.3919V24.6622C207 23.5949 207.868 22.7297 208.939 22.7297H210.878V19.509C210.878 17.0188 212.903 15 215.402 15C217.9 15 219.926 17.0188 219.926 19.509ZM212.17 19.509C212.17 17.7303 213.617 16.2883 215.402 16.2883C217.187 16.2883 218.633 17.7303 218.633 19.509V22.7297H212.17V19.509Z" fill="white"/>
<circle cx="215.403" cy="27.6023" r="1.68038" fill="black"/>
<rect x="214.562" y="27.6025" width="1.68038" height="4.20095" fill="black"/>
<path d="M130.713 89L76.4688 120.237V194.762L130.713 225.999L184.957 194.762V120.237L130.713 89Z" fill="url(#paint16_linear_6924_91050)"/>
<path d="M86.2812 189.107V125.877L130.713 100.295L175.145 125.877V189.107L130.713 214.703L86.2812 189.107Z" fill="url(#paint17_linear_6924_91050)"/>
<path d="M89.5547 187.227V127.772L130.716 104.056L171.892 127.772V187.227L130.716 210.929L89.5547 187.227Z" fill="#736FA8"/>
<g style="mix-blend-mode:soft-light" opacity="0.5">
<path d="M77.8272 120.437C77.156 122.431 82.9117 124.895 86.9821 124.027C91.0526 123.158 129.215 100.794 130.143 98.8003C130.422 96.0154 130.422 93.2097 130.143 90.4248C128.801 90.4248 78.1557 119.454 77.8272 120.437Z" fill="white"/>
</g>
<g style="mix-blend-mode:soft-light" opacity="0.5">
<path d="M183.401 120.437C184.072 122.431 178.302 124.895 174.246 124.027C170.19 123.158 132.313 100.595 131.028 98.8003C130.357 97.8744 130.142 90.4248 131.028 90.4248C132.37 90.4248 183.015 119.454 183.401 120.437Z" fill="white"/>
</g>
<path style="mix-blend-mode:multiply" opacity="0.5" d="M77.7131 162.814C77.3418 165.05 76.4563 193.253 77.7131 193.481C78.9699 193.709 84.8542 189.678 85.1827 187.783C85.5112 185.889 85.6112 166.588 85.1827 164.737C84.7542 162.885 78.3701 159.11 77.7131 162.814Z" fill="url(#paint18_linear_6924_91050)"/>
<path style="mix-blend-mode:multiply" opacity="0.5" d="M183.401 162.814C183.773 165.05 184.658 193.253 183.401 193.481C182.145 193.709 176.26 189.678 175.946 187.783C175.632 185.889 175.503 166.588 175.946 164.737C176.389 162.885 182.844 159.11 183.401 162.814Z" fill="url(#paint19_linear_6924_91050)"/>
<path style="mix-blend-mode:multiply" opacity="0.5" d="M79.1409 194.249C79.7979 195.204 128.657 224.019 129.386 224.019C129.757 224.019 130.257 216.897 130.257 216.057C130.257 213.835 87.0533 190.945 86.2963 190.731C85.168 190.418 78.4696 193.266 79.1409 194.249Z" fill="url(#paint20_linear_6924_91050)"/>
<path style="mix-blend-mode:multiply" opacity="0.5" d="M182.386 195.003C181.729 195.958 131.956 224.674 131.227 224.674C131.039 221.593 131.092 218.502 131.384 215.429C132.97 213.863 174.231 190.944 174.931 190.73C176.045 190.417 183.057 194.021 182.386 195.003Z" fill="url(#paint21_linear_6924_91050)"/>
<path style="mix-blend-mode:multiply" opacity="0.5" d="M91.4379 185.646C88.5815 169.165 90.1382 168.14 110.633 161.174C131.128 154.209 165.791 136.276 168.833 144.082C171.875 151.887 170.833 185.033 170.147 186.814C169.462 188.594 133.67 209.134 130.714 209.191C127.758 209.248 91.7664 187.497 91.4379 185.646Z" fill="url(#paint22_linear_6924_91050)"/>
<g style="mix-blend-mode:soft-light" opacity="0.3">
<path d="M170.988 128.186C170.274 128.001 133.069 106.564 130.998 106.721C128.927 106.877 103.076 118.956 92.4362 128.087C89.5797 130.522 90.6366 166.902 93.2645 166.232C95.8925 165.563 97.8206 150.863 126.614 142.601C154.964 134.468 167.289 141.505 170.374 142.758C171.231 143.128 172.645 128.571 170.988 128.186Z" fill="white"/>
</g>
<path style="mix-blend-mode:multiply" opacity="0.5" d="M86.2812 189.107V125.878L130.713 100.238L175.145 125.878V189.107L171.875 187.284C171.875 187.284 172.075 132.33 170.889 130.607C166.604 124.453 133.755 109.497 128.4 111.163C123.044 112.83 93.6509 125.222 90.3802 130.436C89.2805 132.188 89.5519 187.284 89.5519 187.284L86.2812 189.107Z" fill="url(#paint23_linear_6924_91050)"/>
<g style="mix-blend-mode:soft-light" opacity="0.2">
<path d="M139.026 134.581C150.094 139.609 166.762 139.694 168.29 138.74C169.818 137.786 170.832 130.692 168.433 129.496C166.033 128.299 147.01 118.214 142.025 119.297C137.041 120.38 137.055 133.626 139.026 134.581Z" fill="white"/>
</g>
<path d="M76.47 142.942C76.47 142.771 76.9413 121.918 77.8982 120.437C78.8551 118.955 129.543 90.8232 131.028 90.4244C132.513 90.0256 151.552 100.993 151.552 100.993L130.714 89L76.4414 120.237L76.47 142.942Z" fill="url(#paint24_linear_6924_91050)"/>
<path d="M150.137 111.477C150.137 111.477 173.959 124.994 174.288 126.518C174.616 128.042 175.145 168.909 175.145 168.909C175.145 168.909 175.373 127.601 175.145 125.877C174.916 124.154 150.137 111.477 150.137 111.477Z" fill="white"/>
<path d="M86.2814 160.533C86.2814 160.533 85.4816 126.347 85.8815 125.251C86.2814 124.154 130.713 100.295 130.713 100.295C130.713 100.295 87.8667 124.752 86.9384 126.305C86.01 127.857 86.2814 160.533 86.2814 160.533Z" fill="white"/>
<path style="mix-blend-mode:multiply" d="M76.4703 194.764L130.743 226.001L185.015 194.764V177.785C185.015 177.785 184.515 192.613 183.401 194.408C182.287 196.202 133.699 224.491 131.228 224.676C128.758 224.861 79.1411 195.433 77.7128 193.482C76.2846 191.53 76.4131 156.789 76.4131 156.789L76.4703 194.764Z" fill="url(#paint25_linear_6924_91050)"/>
<path d="M86.2839 172.928C86.2839 172.928 86.1268 187.514 86.9408 188.739C87.7549 189.964 108.821 202.1 108.821 202.1C108.821 202.1 85.9697 190.32 85.7697 189.565C85.5697 188.81 86.2839 172.928 86.2839 172.928Z" fill="white"/>
<g style="mix-blend-mode:soft-light" opacity="0.5">
<path d="M104.635 202.398C103.035 202.398 98.5506 204.193 99.5075 205.247C100.464 206.301 127.186 222.34 130.243 223.48C131.228 223.85 131.143 217.511 129.8 215.46C129.229 214.577 109.591 202.384 104.635 202.398Z" fill="white"/>
</g>
<path d="M149.825 101.307C148.511 101.649 152.867 107.119 154.938 107.603C157.009 108.087 159.851 106.62 158.865 105.623C157.88 104.626 151.838 100.752 149.825 101.307Z" fill="white"/>
<path d="M159.465 106.72C157.494 107.247 161.136 115.879 162.693 117.418C164.25 118.956 178.089 121.691 177.775 119.156C177.461 116.62 162.236 105.98 159.465 106.72Z" fill="white"/>
<path style="mix-blend-mode:multiply" opacity="0.5" d="M155.738 202.54C154.566 207.625 154.752 210.631 155.409 210.659C156.066 210.688 179.789 196.458 180.432 195.831C181.074 195.204 176.632 191.116 174.719 191.387C172.805 191.658 156.166 200.631 155.738 202.54Z" fill="url(#paint26_linear_6924_91050)"/>
<path style="mix-blend-mode:multiply" opacity="0.5" d="M89.1395 127.331C88.5682 125.622 86.8115 125.636 86.6544 127.545C86.4973 129.454 86.226 164.879 86.9258 164.936C87.6256 164.993 89.1395 163.255 89.1395 162.443C89.1395 161.631 89.4252 128.157 89.1395 127.331Z" fill="url(#paint27_linear_6924_91050)"/>
<path style="mix-blend-mode:multiply" opacity="0.5" d="M172.276 127.559C172.176 128.228 171.833 161.744 172.276 161.744C172.718 161.744 174.675 160.177 174.675 159.351C174.675 158.525 174.175 126.918 173.961 126.761C173.747 126.604 172.347 127.003 172.276 127.559Z" fill="url(#paint28_linear_6924_91050)"/>
<path style="mix-blend-mode:multiply" opacity="0.5" d="M130.712 103.515C130.712 104.17 111.603 115.052 111.146 115.052C110.689 115.052 110.86 112.118 111.474 111.705C112.088 111.292 130.555 100.21 130.712 100.58C130.784 101.557 130.784 102.538 130.712 103.515Z" fill="url(#paint29_linear_6924_91050)"/>
<path d="M170.174 191.656C168.946 191.656 164.833 193.992 165.133 195.16C165.433 196.328 167.989 197.596 168.646 196.927C169.303 196.257 170.974 191.685 170.174 191.656Z" fill="#394773"/>
<path d="M171.749 192.469C171.32 192.854 170.406 194.235 171.277 194.905C172.149 195.574 174.719 193.808 174.334 193.281C173.948 192.754 172.291 191.97 171.749 192.469Z" fill="#394773"/>
<path style="mix-blend-mode:multiply" opacity="0.5" d="M165.748 193.992C164.734 195.417 168.904 196.271 169.447 195.118C169.99 193.964 170.875 191.528 170.176 191.656C168.566 192.151 167.064 192.943 165.748 193.992Z" fill="url(#paint30_linear_6924_91050)"/>
<path d="M165.162 194.834C165.441 195.633 165.999 196.305 166.733 196.728C167.704 197.298 168.547 197.17 168.79 196.728C168.547 197.014 168.214 197.21 167.846 197.282C167.477 197.354 167.095 197.3 166.761 197.127C164.833 196.216 165.162 194.834 165.162 194.834Z" fill="#DAE1EF"/>
<path style="mix-blend-mode:multiply" opacity="0.5" d="M172.206 192.512C171.263 193.523 171.992 194.976 172.52 194.905C173.049 194.834 174.634 193.78 174.334 193.281C174.034 192.783 172.42 192.284 172.206 192.512Z" fill="url(#paint31_linear_6924_91050)"/>
<path d="M171.745 192.469C171.745 192.469 170.874 193.665 171.217 194.349C171.56 195.033 172.059 195.018 172.059 195.018C172.059 195.018 170.945 195.674 170.731 194.904C170.374 193.594 171.745 192.469 171.745 192.469Z" fill="#DAE1EF"/>
<path d="M125.131 103.143C122.203 102.374 119.846 104.269 118.561 105.707C117.276 107.146 118.004 108.029 119.604 107.744C121.203 107.459 126.359 103.471 125.131 103.143Z" fill="#394773"/>
<path style="mix-blend-mode:multiply" opacity="0.5" d="M125.131 103.145C124.211 102.964 123.263 102.989 122.354 103.218C121.445 103.447 120.598 103.875 119.875 104.47C119.09 105.168 120.632 107.134 121.689 106.72C122.746 106.307 126.031 103.459 125.131 103.145Z" fill="url(#paint32_linear_6924_91050)"/>
<path d="M119.304 104.967C119.304 104.967 116.004 107.118 116.447 108.186C116.89 109.254 120.732 107.303 120.732 107.303C120.732 107.303 118.675 107.972 118.204 107.061C117.733 106.149 119.304 104.967 119.304 104.967Z" fill="white"/>
<path d="M88.1693 189.55C86.6125 189.934 91.2257 193.097 92.3111 193.253C93.3966 193.41 92.3111 190.647 91.797 190.177C90.6634 189.655 89.4126 189.439 88.1693 189.55Z" fill="white"/>
<path d="M130.671 192.598L74.6708 160.021C73.3526 163.068 72.4542 166.278 72 169.565L75.6562 175.718L130.671 207.582L185.687 175.718L189 169.565C188.9 166.291 188.223 163.061 187 160.021L130.671 192.598Z" fill="url(#paint33_linear_6924_91050)"/>
<path d="M75.6562 175.718L72 169.564L130.671 203.836L189 169.564L185.687 175.718L130.671 207.582L75.6562 175.718Z" fill="url(#paint34_linear_6924_91050)"/>
<path style="mix-blend-mode:multiply" opacity="0.5" d="M72 169.564L75.6562 175.718L76.4846 176.231V178.068C76.4846 178.068 79.6267 179.663 85.7823 183.054C85.9966 183.168 89.6671 187.028 89.6671 187.028C89.6671 187.028 129.286 210.929 130.714 210.929C132.571 210.929 171.89 186.501 171.89 186.501C171.89 186.501 174.946 183.937 175.246 183.766L184.958 178.738V176.145L185.687 175.718L189 169.564L130.671 203.836L72 169.564Z" fill="url(#paint35_linear_6924_91050)"/>
<path style="mix-blend-mode:multiply" opacity="0.5" d="M130.672 192.598V203.836L189 169.565C188.847 166.298 188.172 163.076 187.001 160.021L130.672 192.598Z" fill="url(#paint36_linear_6924_91050)"/>
<g style="mix-blend-mode:soft-light" opacity="0.5">
<path d="M77.5553 162.484C76.4841 162.484 77.3553 171.942 80.6117 174.122C85.7818 177.569 116.946 195.901 118.988 195.915C120.416 195.915 120.331 187.896 119.902 187.269C119.131 186.101 79.1406 162.484 77.5553 162.484Z" fill="white"/>
</g>
<g style="mix-blend-mode:soft-light" opacity="0.5">
<path d="M147.995 182.868C147.309 183.566 147.409 192.411 148.566 192.141C157.981 187.582 167.05 182.345 175.702 176.472C184.015 170.39 185.186 162.371 183.315 162.556C183.258 162.499 149.38 181.444 147.995 182.868Z" fill="white"/>
</g>
<path d="M102.137 187.17C102.137 187.17 128.959 203.209 130.701 203.209C132.444 203.209 153.824 190.247 153.824 190.247C153.824 190.247 131.358 204.491 130.744 204.491C130.13 204.491 102.137 187.17 102.137 187.17Z" fill="white"/>
<path d="M130.671 173.866L74.6708 141.29C73.3526 144.336 72.4542 147.547 72 150.834L75.6562 156.987L130.671 188.851L185.687 156.987L189 150.834C188.9 147.56 188.223 144.33 187 141.29L130.671 173.866Z" fill="url(#paint37_linear_6924_91050)"/>
<path d="M75.6562 156.986L72 150.833L130.671 185.104L189 150.833L185.687 156.986L130.671 188.865L75.6562 156.986Z" fill="url(#paint38_linear_6924_91050)"/>
<path style="mix-blend-mode:multiply" opacity="0.5" d="M72 150.834L75.6562 156.987L76.4846 157.5V159.337C76.4846 159.337 79.6267 160.933 85.7823 164.323C85.9966 164.437 89.6671 168.311 89.6671 168.311C89.6671 168.311 129.286 192.198 130.714 192.198C132.571 192.198 171.89 167.77 171.89 167.77C171.89 167.77 174.946 165.206 175.246 165.035L184.958 159.964V157.372L185.687 156.944L189 150.791L130.671 185.105L72 150.834Z" fill="url(#paint39_linear_6924_91050)"/>
<path style="mix-blend-mode:multiply" opacity="0.5" d="M130.672 173.866V185.105L189 150.834C188.847 147.567 188.172 144.345 187.001 141.29L130.672 173.866Z" fill="url(#paint40_linear_6924_91050)"/>
<g style="mix-blend-mode:soft-light" opacity="0.5">
<path d="M77.5553 143.755C76.4841 143.755 77.3553 153.213 80.6117 155.392C85.7818 158.797 116.946 177.171 118.988 177.186C120.416 177.186 120.331 169.166 119.902 168.54C119.131 167.343 79.1406 143.755 77.5553 143.755Z" fill="white"/>
</g>
<g style="mix-blend-mode:soft-light" opacity="0.5">
<path d="M147.995 164.137C147.309 164.835 147.409 173.681 148.566 173.41C157.981 168.851 167.05 163.614 175.702 157.742C184.015 151.66 185.186 143.64 183.315 143.825C183.258 143.768 149.38 162.713 147.995 164.137Z" fill="white"/>
</g>
<path d="M102.137 168.438C102.137 168.438 128.959 184.435 130.673 184.435C132.386 184.435 153.796 171.472 153.796 171.472C153.796 171.472 131.33 185.717 130.715 185.717C130.101 185.717 102.137 168.438 102.137 168.438Z" fill="white"/>
<path style="mix-blend-mode:multiply" opacity="0.5" d="M130.814 150.691L118.774 157.001L121.074 143.64L111.348 134.182L124.802 132.23L130.814 120.08L136.827 132.23L150.267 134.182L140.541 143.64L142.84 157.001L130.814 150.691Z" fill="url(#paint41_linear_6924_91050)"/>
<path d="M148.866 134.64L142.367 133.699L140.596 133.443L136.383 132.831L130.813 121.563L125.229 132.831L112.746 134.64L121.772 143.414L119.644 155.806L130.813 149.966L141.968 155.806L139.839 143.414L148.866 134.64Z" fill="url(#paint42_linear_6924_91050)"/>
<path style="mix-blend-mode:multiply" opacity="0.5" d="M112.691 134.638L131.073 139.438L121.718 143.412L112.691 134.638Z" fill="url(#paint43_linear_6924_91050)"/>
<path style="mix-blend-mode:multiply" opacity="0.5" d="M148.795 134.638L131.07 139.438L139.768 143.412L148.795 134.638Z" fill="url(#paint44_linear_6924_91050)"/>
<path style="mix-blend-mode:multiply" opacity="0.5" d="M130.744 149.965L131.073 139.438L119.59 155.805L130.744 149.965Z" fill="url(#paint45_linear_6924_91050)"/>
<path style="mix-blend-mode:multiply" opacity="0.5" d="M141.897 155.805L131.071 139.438L130.742 149.965L141.897 155.805Z" fill="url(#paint46_linear_6924_91050)"/>
<path style="mix-blend-mode:color-dodge" opacity="0.5" d="M130.742 121.563L131.071 139.44L136.327 132.831L130.742 121.563Z" fill="url(#paint47_linear_6924_91050)"/>
<path style="mix-blend-mode:color-dodge" opacity="0.5" d="M148.795 134.638L131.07 139.438L136.326 132.829L148.795 134.638Z" fill="url(#paint48_linear_6924_91050)"/>
<path style="mix-blend-mode:color-dodge" opacity="0.5" d="M148.795 134.638L131.07 139.438L136.326 132.829L148.795 134.638Z" fill="url(#paint49_linear_6924_91050)"/>
<path style="mix-blend-mode:color-dodge" opacity="0.5" d="M125.16 132.829L131.073 139.438L112.691 134.638L125.16 132.829Z" fill="url(#paint50_linear_6924_91050)"/>
<g style="mix-blend-mode:color-dodge" opacity="0.8">
<path d="M136.27 136.76C135.341 137.53 136.127 138.042 136.127 138.042L140.911 136.76C140.239 136.266 139.426 136 138.59 136C137.755 136 136.942 136.266 136.27 136.76Z" fill="white"/>
</g>
<path style="mix-blend-mode:multiply" opacity="0.5" d="M119.645 155.804C119.645 155.804 128.114 151.83 130.813 150.719L141.982 155.804L130.828 149.964L119.645 155.804Z" fill="url(#paint51_linear_6924_91050)"/>
<path style="mix-blend-mode:multiply" opacity="0.5" d="M112.691 134.638L131.073 139.438L120.975 148.084L112.691 134.638Z" fill="url(#paint52_linear_6924_91050)"/>
<path style="mix-blend-mode:multiply" opacity="0.5" d="M148.795 134.638L131.07 139.438L140.839 149.238L148.795 134.638Z" fill="url(#paint53_linear_6924_91050)"/>
<path style="mix-blend-mode:multiply" opacity="0.5" d="M119.645 155.805L131.07 139.438L141.968 155.805L130.813 154.053L119.645 155.805Z" fill="url(#paint54_linear_6924_91050)"/>
<g style="mix-blend-mode:soft-light" opacity="0.4">
<path d="M126.658 130.876C125.473 134.167 129.986 136.46 130.6 135.449C131.214 134.437 130.815 128.797 130.058 128.042C129.301 127.287 127.144 129.537 126.658 130.876Z" fill="#F7FFFF"/>
</g>
<g style="mix-blend-mode:soft-light" opacity="0.4">
<path d="M122.957 147.699C125.357 148.026 126.699 145.292 127.242 143.426C128.027 140.392 118.587 147.101 122.957 147.699Z" fill="#F7FFFF"/>
</g>
<path d="M39.3753 33V20.544H41.3193V33H39.3753ZM43.5238 33V20.544H45.4678V33H43.5238ZM47.6722 33V20.544H49.6162V33H47.6722Z" fill="white"/>
<g style="mix-blend-mode:overlay">
<g style="mix-blend-mode:color-dodge">
<path fill-rule="evenodd" clip-rule="evenodd" d="M19 12C19 6.47715 23.4771 2 29 2H231C236.523 2 241 6.47715 241 12V120.562C241 123.615 239.506 126.474 237 128.217V128.217C234.494 129.961 233 132.82 233 135.873V159V162V185.127C233 188.18 234.494 191.039 237 192.783V192.783C239.506 194.526 241 197.385 241 200.438V304C241 309.523 236.523 314 231 314H29C23.4772 314 19 309.523 19 304V202.182C19 198.908 20.6021 195.842 23.2894 193.973L24.7106 192.984C27.3979 191.115 29 188.048 29 184.775L29 162V159L29 136.225C29 132.952 27.3979 129.885 24.7107 128.016L23.2894 127.027C20.6021 125.158 19 122.092 19 118.818V12Z" fill="url(#paint55_linear_6924_91050)"/>
</g>
</g>
<defs>
<filter id="filter0_b_6924_91050" x="-6" y="-14.793" width="89" height="354.983" filterUnits="userSpaceOnUse" colorInterpolationFilters="sRGB">
<feFlood floodOpacity="0" result="BackgroundImageFix"/>
<feGaussianBlur in="BackgroundImageFix" stdDeviation="13"/>
<feComposite in2="SourceAlpha" operator="in" result="effect1_backgroundBlur_6924_91050"/>
<feBlend mode="normal" in="SourceGraphic" in2="effect1_backgroundBlur_6924_91050" result="shape"/>
</filter>
<filter id="filter1_b_6924_91050" x="177" y="-14.793" width="89" height="354.983" filterUnits="userSpaceOnUse" colorInterpolationFilters="sRGB">
<feFlood floodOpacity="0" result="BackgroundImageFix"/>
<feGaussianBlur in="BackgroundImageFix" stdDeviation="13"/>
<feComposite in2="SourceAlpha" operator="in" result="effect1_backgroundBlur_6924_91050"/>
<feBlend mode="normal" in="SourceGraphic" in2="effect1_backgroundBlur_6924_91050" result="shape"/>
</filter>
<filter id="filter2_i_6924_91050" x="17" y="0" width="226" height="320" filterUnits="userSpaceOnUse" colorInterpolationFilters="sRGB">
<feFlood floodOpacity="0" result="BackgroundImageFix"/>
<feBlend mode="normal" in="SourceGraphic" in2="BackgroundImageFix" result="shape"/>
<feColorMatrix in="SourceAlpha" type="matrix" values="0 0 0 0 0 0 0 0 0 0 0 0 0 0 0 0 0 0 127 0" result="hardAlpha"/>
<feOffset dy="5"/>
<feGaussianBlur stdDeviation="2"/>
<feComposite in2="hardAlpha" operator="arithmetic" k2="-1" k3="1"/>
<feColorMatrix type="matrix" values="0 0 0 0 0 0 0 0 0 0 0 0 0 0 0 0 0 0 0.25 0"/>
<feBlend mode="normal" in2="shape" result="effect1_innerShadow_6924_91050"/>
</filter>
<filter id="filter3_f_6924_91050" x="0" y="31" width="261" height="254" filterUnits="userSpaceOnUse" colorInterpolationFilters="sRGB">
<feFlood floodOpacity="0" result="BackgroundImageFix"/>
<feBlend mode="normal" in="SourceGraphic" in2="BackgroundImageFix" result="shape"/>
<feGaussianBlur stdDeviation="37.5" result="effect1_foregroundBlur_6924_91050"/>
</filter>
<linearGradient id="paint0_linear_6924_91050" x1="13" y1="300.767" x2="134.492" y2="5.10812" gradientUnits="userSpaceOnUse">
<stop stop-color="#060913"/>
<stop offset="0.136764" stop-color="#070A16"/>
<stop offset="0.197268" stop-color="#0D142E"/>
<stop offset="0.309253" stop-color="#070B17"/>
<stop offset="0.490764" stop-color="#080C1A"/>
<stop offset="0.661458" stop-color="#0B1125"/>
<stop offset="1" stop-color="#101010"/>
</linearGradient>
<linearGradient id="paint1_linear_6924_91050" x1="43.5" y1="327.597" x2="109.599" y2="309.129" gradientUnits="userSpaceOnUse">
<stop stop-color="#EECCA2"/>
<stop offset="0.260417" stop-color="#624A2C"/>
<stop offset="0.6875" stop-color="#FFDAAB"/>
<stop offset="1" stop-color="#C68C43"/>
</linearGradient>
<linearGradient id="paint2_linear_6924_91050" x1="247" y1="24.6304" x2="125.508" y2="320.289" gradientUnits="userSpaceOnUse">
<stop stop-color="#060913"/>
<stop offset="0.136764" stop-color="#070A16"/>
<stop offset="0.197268" stop-color="#0D142E"/>
<stop offset="0.309253" stop-color="#070B17"/>
<stop offset="0.490764" stop-color="#080C1A"/>
<stop offset="0.661458" stop-color="#0B1125"/>
<stop offset="1" stop-color="#101010"/>
</linearGradient>
<linearGradient id="paint3_linear_6924_91050" x1="216.5" y1="-2.19931" x2="150.401" y2="16.2685" gradientUnits="userSpaceOnUse">
<stop stop-color="#EECCA2"/>
<stop offset="0.260417" stop-color="#624A2C"/>
<stop offset="0.6875" stop-color="#FFDAAB"/>
<stop offset="1" stop-color="#C68C43"/>
</linearGradient>
<linearGradient id="paint4_linear_6924_91050" x1="184.5" y1="-25.5" x2="1.5" y2="349.5" gradientUnits="userSpaceOnUse">
<stop stop-color="#C68C43"/>
<stop offset="0.119792" stop-color="#F5BA6E"/>
<stop offset="0.286458" stop-color="#C68C43"/>
<stop offset="0.5625" stop-color="#C68C43"/>
<stop offset="0.770833" stop-color="#EEB873"/>
<stop offset="1" stop-color="#C68C43"/>
</linearGradient>
<linearGradient id="paint5_linear_6924_91050" x1="23" y1="59" x2="238" y2="59" gradientUnits="userSpaceOnUse">
<stop stop-color="#8980EB"/>
<stop offset="1" stop-color="#705AB8"/>
</linearGradient>
<linearGradient id="paint6_linear_6924_91050" x1="130.467" y1="161.811" x2="130.467" y2="-71.8638" gradientUnits="userSpaceOnUse">
<stop stop-color="#86759D"/>
<stop offset="0.39" stop-color="#98ABD2"/>
<stop offset="1" stop-color="#DAE1EF"/>
</linearGradient>
<linearGradient id="paint7_linear_6924_91050" x1="30.4297" y1="61.7822" x2="131.894" y2="61.7822" gradientUnits="userSpaceOnUse">
<stop stop-color="#705AB8"/>
<stop offset="1" stop-color="white"/>
</linearGradient>
<linearGradient id="paint8_linear_6924_91050" x1="131.883" y1="61.7822" x2="229.875" y2="61.7822" gradientUnits="userSpaceOnUse">
<stop stop-color="#705AB8"/>
<stop offset="1" stop-color="white"/>
</linearGradient>
<linearGradient id="paint9_linear_6924_91050" x1="68.4453" y1="111.103" x2="131.88" y2="111.103" gradientUnits="userSpaceOnUse">
<stop stop-color="#705AB8"/>
<stop offset="1" stop-color="white"/>
</linearGradient>
<linearGradient id="paint10_linear_6924_91050" x1="130.152" y1="111.103" x2="191.772" y2="111.103" gradientUnits="userSpaceOnUse">
<stop stop-color="#705AB8"/>
<stop offset="1" stop-color="white"/>
</linearGradient>
<linearGradient id="paint11_linear_6924_91050" x1="139.226" y1="-23.1169" x2="154.05" y2="107.959" gradientUnits="userSpaceOnUse">
<stop stop-color="#BFD7FF"/>
<stop offset="1"/>
</linearGradient>
<linearGradient id="paint12_linear_6924_91050" x1="131.883" y1="45.1784" x2="229.875" y2="45.1784" gradientUnits="userSpaceOnUse">
<stop stop-color="#BFD7FF"/>
<stop offset="1"/>
</linearGradient>
<linearGradient id="paint13_linear_6924_91050" x1="172.753" y1="-26.8787" x2="187.577" y2="104.116" gradientUnits="userSpaceOnUse">
<stop stop-color="#BFD7FF"/>
<stop offset="1"/>
</linearGradient>
<linearGradient id="paint14_linear_6924_91050" x1="74.2187" y1="-15.7552" x2="89.0434" y2="115.239" gradientUnits="userSpaceOnUse">
<stop stop-color="#BFD7FF"/>
<stop offset="1"/>
</linearGradient>
<linearGradient id="paint15_linear_6924_91050" x1="68.8477" y1="141.364" x2="192.088" y2="141.364" gradientUnits="userSpaceOnUse">
<stop stop-color="#8980EB"/>
<stop offset="1" stop-color="#705AB8"/>
</linearGradient>
<linearGradient id="paint16_linear_6924_91050" x1="130.713" y1="228.35" x2="130.713" y2="110.879" gradientUnits="userSpaceOnUse">
<stop offset="0.21" stop-color="#98ABD2"/>
<stop offset="0.49" stop-color="#72719D"/>
<stop offset="1" stop-color="#DAE1EF"/>
</linearGradient>
<linearGradient id="paint17_linear_6924_91050" x1="130.713" y1="107.374" x2="130.713" y2="214.39" gradientUnits="userSpaceOnUse">
<stop offset="0.21" stop-color="#98ABD2"/>
<stop offset="0.49" stop-color="#72719D"/>
<stop offset="1" stop-color="#DAE1EF"/>
</linearGradient>
<linearGradient id="paint18_linear_6924_91050" x1="81.3265" y1="207.497" x2="81.3265" y2="142.729" gradientUnits="userSpaceOnUse">
<stop stop-color="#705AB8"/>
<stop offset="1" stop-color="white"/>
</linearGradient>
<linearGradient id="paint19_linear_6924_91050" x1="179.902" y1="207.497" x2="179.902" y2="142.729" gradientUnits="userSpaceOnUse">
<stop stop-color="#705AB8"/>
<stop offset="1" stop-color="white"/>
</linearGradient>
<linearGradient id="paint20_linear_6924_91050" x1="91.2237" y1="183.324" x2="117.373" y2="225.862" gradientUnits="userSpaceOnUse">
<stop stop-color="#705AB8"/>
<stop offset="1" stop-color="white"/>
</linearGradient>
<linearGradient id="paint21_linear_6924_91050" x1="149.708" y1="188.679" x2="168.414" y2="244.318" gradientUnits="userSpaceOnUse">
<stop stop-color="#705AB8"/>
<stop offset="1" stop-color="white"/>
</linearGradient>
<linearGradient id="paint22_linear_6924_91050" x1="130.614" y1="218.293" x2="130.614" y2="128.755" gradientUnits="userSpaceOnUse">
<stop stop-color="#705AB8"/>
<stop offset="1" stop-color="white"/>
</linearGradient>
<linearGradient id="paint23_linear_6924_91050" x1="86.2812" y1="144.708" x2="175.145" y2="144.708" gradientUnits="userSpaceOnUse">
<stop stop-color="#8980EB"/>
<stop offset="1" stop-color="#705AB8"/>
</linearGradient>
<linearGradient id="paint24_linear_6924_91050" x1="76.47" y1="115.964" x2="151.552" y2="115.964" gradientUnits="userSpaceOnUse">
<stop stop-color="#728EE3"/>
<stop offset="1" stop-color="#836888"/>
</linearGradient>
<linearGradient id="paint25_linear_6924_91050" x1="76.4703" y1="191.388" x2="184.958" y2="191.388" gradientUnits="userSpaceOnUse">
<stop stop-color="#728EE3"/>
<stop offset="1" stop-color="#836888"/>
</linearGradient>
<linearGradient id="paint26_linear_6924_91050" x1="154.881" y1="201.016" x2="180.489" y2="201.016" gradientUnits="userSpaceOnUse">
<stop stop-color="#8980EB"/>
<stop offset="1" stop-color="#705AB8"/>
</linearGradient>
<linearGradient id="paint27_linear_6924_91050" x1="86.483" y1="145.507" x2="89.2966" y2="145.507" gradientUnits="userSpaceOnUse">
<stop stop-color="#8980EB"/>
<stop offset="1" stop-color="#705AB8"/>
</linearGradient>
<linearGradient id="paint28_linear_6924_91050" x1="172.061" y1="144.167" x2="174.675" y2="144.167" gradientUnits="userSpaceOnUse">
<stop stop-color="#8980EB"/>
<stop offset="1" stop-color="#705AB8"/>
</linearGradient>
<linearGradient id="paint29_linear_6924_91050" x1="110.889" y1="107.816" x2="130.77" y2="107.816" gradientUnits="userSpaceOnUse">
<stop stop-color="#8980EB"/>
<stop offset="1" stop-color="#705AB8"/>
</linearGradient>
<linearGradient id="paint30_linear_6924_91050" x1="145.658" y1="166.263" x2="147.109" y2="168.986" gradientUnits="userSpaceOnUse">
<stop stop-color="#8980EB"/>
<stop offset="1" stop-color="#705AB8"/>
</linearGradient>
<linearGradient id="paint31_linear_6924_91050" x1="150.293" y1="165.987" x2="151.39" y2="168.045" gradientUnits="userSpaceOnUse">
<stop stop-color="#8980EB"/>
<stop offset="1" stop-color="#705AB8"/>
</linearGradient>
<linearGradient id="paint32_linear_6924_91050" x1="122.046" y1="102.922" x2="123.404" y2="105.573" gradientUnits="userSpaceOnUse">
<stop stop-color="#8980EB"/>
<stop offset="1" stop-color="#705AB8"/>
</linearGradient>
<linearGradient id="paint33_linear_6924_91050" x1="130.5" y1="121.349" x2="130.5" y2="206.5" gradientUnits="userSpaceOnUse">
<stop offset="0.21" stop-color="#98ABD2"/>
<stop offset="0.49" stop-color="#72719D"/>
<stop offset="1" stop-color="#DAE1EF"/>
</linearGradient>
<linearGradient id="paint34_linear_6924_91050" x1="72" y1="188.58" x2="189" y2="188.58" gradientUnits="userSpaceOnUse">
<stop offset="0.21" stop-color="#98ABD2"/>
<stop offset="0.49" stop-color="#72719D"/>
<stop offset="1" stop-color="#DAE1EF"/>
</linearGradient>
<linearGradient id="paint35_linear_6924_91050" x1="130.5" y1="211.641" x2="130.5" y2="176.159" gradientUnits="userSpaceOnUse">
<stop stop-color="#8980EB"/>
<stop offset="1" stop-color="#705AB8"/>
</linearGradient>
<linearGradient id="paint36_linear_6924_91050" x1="122.184" y1="204.876" x2="118.41" y2="160.753" gradientUnits="userSpaceOnUse">
<stop stop-color="#705AB8"/>
<stop offset="1" stop-color="white"/>
</linearGradient>
<linearGradient id="paint37_linear_6924_91050" x1="130.5" y1="102.617" x2="130.5" y2="187.768" gradientUnits="userSpaceOnUse">
<stop offset="0.21" stop-color="#98ABD2"/>
<stop offset="0.49" stop-color="#72719D"/>
<stop offset="1" stop-color="#DAE1EF"/>
</linearGradient>
<linearGradient id="paint38_linear_6924_91050" x1="72" y1="169.849" x2="189" y2="169.849" gradientUnits="userSpaceOnUse">
<stop offset="0.21" stop-color="#98ABD2"/>
<stop offset="0.49" stop-color="#72719D"/>
<stop offset="1" stop-color="#DAE1EF"/>
</linearGradient>
<linearGradient id="paint39_linear_6924_91050" x1="130.5" y1="192.911" x2="130.5" y2="157.429" gradientUnits="userSpaceOnUse">
<stop stop-color="#8980EB"/>
<stop offset="1" stop-color="#705AB8"/>
</linearGradient>
<linearGradient id="paint40_linear_6924_91050" x1="122.184" y1="186.145" x2="118.41" y2="142.021" gradientUnits="userSpaceOnUse">
<stop stop-color="#705AB8"/>
<stop offset="1" stop-color="white"/>
</linearGradient>
<linearGradient id="paint41_linear_6924_91050" x1="111.348" y1="138.54" x2="150.267" y2="138.54" gradientUnits="userSpaceOnUse">
<stop stop-color="#8980EB"/>
<stop offset="1" stop-color="#705AB8"/>
</linearGradient>
<linearGradient id="paint42_linear_6924_91050" x1="130.813" y1="156.461" x2="130.813" y2="115.752" gradientUnits="userSpaceOnUse">
<stop stop-color="#86759D"/>
<stop offset="0.39" stop-color="#98ABD2"/>
<stop offset="1" stop-color="#DAE1EF"/>
</linearGradient>
<linearGradient id="paint43_linear_6924_91050" x1="112.691" y1="139.025" x2="131.073" y2="139.025" gradientUnits="userSpaceOnUse">
<stop stop-color="#705AB8"/>
<stop offset="1" stop-color="white"/>
</linearGradient>
<linearGradient id="paint44_linear_6924_91050" x1="131.07" y1="139.025" x2="148.795" y2="139.025" gradientUnits="userSpaceOnUse">
<stop stop-color="#705AB8"/>
<stop offset="1" stop-color="white"/>
</linearGradient>
<linearGradient id="paint45_linear_6924_91050" x1="119.59" y1="147.615" x2="131.073" y2="147.615" gradientUnits="userSpaceOnUse">
<stop stop-color="#705AB8"/>
<stop offset="1" stop-color="white"/>
</linearGradient>
<linearGradient id="paint46_linear_6924_91050" x1="130.742" y1="147.615" x2="141.897" y2="147.615" gradientUnits="userSpaceOnUse">
<stop stop-color="#705AB8"/>
<stop offset="1" stop-color="white"/>
</linearGradient>
<linearGradient id="paint47_linear_6924_91050" x1="132.399" y1="124.241" x2="134.885" y2="147.09" gradientUnits="userSpaceOnUse">
<stop stop-color="#BFD7FF"/>
<stop offset="1"/>
</linearGradient>
<linearGradient id="paint48_linear_6924_91050" x1="131.07" y1="136.134" x2="148.795" y2="136.134" gradientUnits="userSpaceOnUse">
<stop stop-color="#BFD7FF"/>
<stop offset="1"/>
</linearGradient>
<linearGradient id="paint49_linear_6924_91050" x1="138.469" y1="123.585" x2="140.94" y2="146.434" gradientUnits="userSpaceOnUse">
<stop stop-color="#BFD7FF"/>
<stop offset="1"/>
</linearGradient>
<linearGradient id="paint50_linear_6924_91050" x1="120.618" y1="125.522" x2="123.104" y2="148.371" gradientUnits="userSpaceOnUse">
<stop stop-color="#BFD7FF"/>
<stop offset="1"/>
</linearGradient>
<linearGradient id="paint51_linear_6924_91050" x1="119.645" y1="152.884" x2="141.968" y2="152.884" gradientUnits="userSpaceOnUse">
<stop stop-color="#8980EB"/>
<stop offset="1" stop-color="#705AB8"/>
</linearGradient>
<linearGradient id="paint52_linear_6924_91050" x1="112.691" y1="141.361" x2="131.073" y2="141.361" gradientUnits="userSpaceOnUse">
<stop stop-color="#8980EB"/>
<stop offset="1" stop-color="#705AB8"/>
</linearGradient>
<linearGradient id="paint53_linear_6924_91050" x1="131.07" y1="141.945" x2="148.795" y2="141.945" gradientUnits="userSpaceOnUse">
<stop stop-color="#8980EB"/>
<stop offset="1" stop-color="#705AB8"/>
</linearGradient>
<linearGradient id="paint54_linear_6924_91050" x1="119.645" y1="147.615" x2="141.968" y2="147.615" gradientUnits="userSpaceOnUse">
<stop stop-color="#8980EB"/>
<stop offset="1" stop-color="#705AB8"/>
</linearGradient>
<linearGradient id="paint55_linear_6924_91050" x1="84.5" y1="60.5" x2="32.0032" y2="111.503" gradientUnits="userSpaceOnUse">
<stop stop-color="white" stop-opacity="0"/>
<stop offset="0.440223" stop-color="white"/>
<stop offset="1" stop-color="white" stop-opacity="0"/>
</linearGradient>
</defs>
</svg>
