<svg width="82" height="97" viewBox="0 0 82 97" fill="none" xmlns="http://www.w3.org/2000/svg">
<path d="M41.1089 0L3.12891 21.93V74.25L41.1089 96.18L79.0889 74.25V21.93L41.1089 0Z" fill="url(#paint0_linear_6456_59428)"/>
<path d="M10 70.2797V25.8897L41.11 7.92969L72.22 25.8897V70.2797L41.11 88.2497L10 70.2797Z" fill="url(#paint1_linear_6456_59428)"/>
<path d="M12.2891 68.9603V27.2203L41.1091 10.5703L69.9391 27.2203V68.9603L41.1091 85.6003L12.2891 68.9603Z" fill="#736FA8"/>
<g style="mix-blend-mode:soft-light" opacity="0.5">
<path d="M4.08064 22.07C3.61064 23.47 7.64064 25.2 10.4906 24.59C13.3406 23.98 40.0606 8.28 40.7106 6.88C40.9061 4.92487 40.9061 2.95513 40.7106 1C39.7706 1 4.31064 21.38 4.08064 22.07Z" fill="white"/>
</g>
<g style="mix-blend-mode:soft-light" opacity="0.5">
<path d="M77.9986 22.07C78.4686 23.47 74.4286 25.2 71.5886 24.59C68.7486 23.98 42.2286 8.14 41.3286 6.88C40.8586 6.23 40.7086 1 41.3286 1C42.2686 1 77.7286 21.38 77.9986 22.07Z" fill="white"/>
</g>
<path style="mix-blend-mode:multiply" opacity="0.5" d="M3.9985 51.8199C3.7385 53.3899 3.1185 73.1899 3.9985 73.3499C4.8785 73.5099 8.9985 70.6799 9.2285 69.3499C9.4585 68.0199 9.5285 54.4699 9.2285 53.1699C8.9285 51.8699 4.4585 49.2199 3.9985 51.8199Z" fill="url(#paint2_linear_6456_59428)"/>
<path style="mix-blend-mode:multiply" opacity="0.5" d="M77.9983 51.8199C78.2583 53.3899 78.8783 73.1899 77.9983 73.3499C77.1183 73.5099 72.9983 70.6799 72.7783 69.3499C72.5583 68.0199 72.4683 54.4699 72.7783 53.1699C73.0883 51.8699 77.6083 49.2199 77.9983 51.8199Z" fill="url(#paint3_linear_6456_59428)"/>
<path style="mix-blend-mode:multiply" opacity="0.5" d="M5.00177 73.8901C5.46177 74.5601 39.6718 94.7901 40.1818 94.7901C40.4418 94.7901 40.7918 89.7901 40.7918 89.2001C40.7918 87.6401 10.5418 71.5701 10.0118 71.4201C9.22177 71.2001 4.53177 73.2001 5.00177 73.8901Z" fill="url(#paint4_linear_6456_59428)"/>
<path style="mix-blend-mode:multiply" opacity="0.5" d="M77.2916 74.4198C76.8316 75.0898 41.9816 95.2498 41.4716 95.2498C41.3401 93.0868 41.3769 90.917 41.5816 88.7598C42.6916 87.6598 71.5816 71.5698 72.0716 71.4198C72.8516 71.1998 77.7616 73.7298 77.2916 74.4198Z" fill="url(#paint5_linear_6456_59428)"/>
<path style="mix-blend-mode:multiply" opacity="0.5" d="M13.6099 67.85C11.6099 56.28 12.6999 55.56 27.0499 50.67C41.3999 45.78 65.6699 33.19 67.7999 38.67C69.9299 44.15 69.1999 67.42 68.7199 68.67C68.2399 69.92 43.1799 84.34 41.1099 84.38C39.0399 84.42 13.8399 69.15 13.6099 67.85Z" fill="url(#paint6_linear_6456_59428)"/>
<g style="mix-blend-mode:soft-light" opacity="0.3">
<path d="M69.3087 27.5101C68.8087 27.3801 42.7587 12.3301 41.3087 12.4401C39.8587 12.5501 21.7587 21.0301 14.3087 27.4401C12.3087 29.1501 13.0487 54.6901 14.8887 54.2201C16.7287 53.7501 18.0787 43.4301 38.2387 37.6301C58.0887 31.9201 66.7187 36.8601 68.8787 37.7401C69.4787 38.0001 70.4687 27.7801 69.3087 27.5101Z" fill="white"/>
</g>
<path style="mix-blend-mode:multiply" opacity="0.5" d="M10 70.2796V25.8896L41.11 7.88965L72.22 25.8896V70.2796L69.93 68.9996C69.93 68.9996 70.07 30.4196 69.24 29.2096C66.24 24.8896 43.24 14.3896 39.49 15.5596C35.74 16.7296 15.16 25.4296 12.87 29.0896C12.1 30.3196 12.29 68.9996 12.29 68.9996L10 70.2796Z" fill="url(#paint7_linear_6456_59428)"/>
<g style="mix-blend-mode:soft-light" opacity="0.2">
<path d="M46.9296 31.9999C54.6796 35.5299 66.3496 35.5899 67.4196 34.9199C68.4896 34.2499 69.1996 29.2699 67.5196 28.4299C65.8396 27.5899 52.5196 20.5099 49.0296 21.2699C45.5396 22.0299 45.5496 31.3299 46.9296 31.9999Z" fill="white"/>
</g>
<path d="M3.12938 37.87C3.12938 37.75 3.45938 23.11 4.12938 22.07C4.79938 21.03 40.2894 1.28 41.3294 1C42.3694 0.72 55.6994 8.42 55.6994 8.42L41.1094 0L3.10938 21.93L3.12938 37.87Z" fill="url(#paint8_linear_6456_59428)"/>
<path d="M54.7109 15.7803C54.7109 15.7803 71.3909 25.2703 71.6209 26.3403C71.8509 27.4103 72.2209 56.1003 72.2209 56.1003C72.2209 56.1003 72.3809 27.1003 72.2209 25.8903C72.0609 24.6803 54.7109 15.7803 54.7109 15.7803Z" fill="white"/>
<path d="M9.99902 50.2197C9.99902 50.2197 9.43903 26.2197 9.71903 25.4497C9.99903 24.6797 41.109 7.92969 41.109 7.92969C41.109 7.92969 11.109 25.0997 10.459 26.1897C9.80902 27.2797 9.99902 50.2197 9.99902 50.2197Z" fill="white"/>
<path style="mix-blend-mode:multiply" d="M3.13194 74.2498L41.1319 96.1798L79.1319 74.2498V62.3298C79.1319 62.3298 78.7819 72.7398 78.0019 73.9998C77.2219 75.2598 43.2019 95.1198 41.4719 95.2498C39.7419 95.3798 5.00194 74.7198 4.00194 73.3498C3.00194 71.9798 3.09194 47.5898 3.09194 47.5898L3.13194 74.2498Z" fill="url(#paint9_linear_6456_59428)"/>
<path d="M10.0019 58.9199C10.0019 58.9199 9.89192 69.1599 10.4619 70.0199C11.0319 70.8799 25.7819 79.3999 25.7819 79.3999C25.7819 79.3999 9.78192 71.1299 9.64192 70.5999C9.50192 70.0699 10.0019 58.9199 10.0019 58.9199Z" fill="white"/>
<g style="mix-blend-mode:soft-light" opacity="0.5">
<path d="M22.8508 79.6099C21.7308 79.6099 18.5908 80.8699 19.2608 81.6099C19.9308 82.3499 38.6408 93.6099 40.7808 94.4099C41.4708 94.6699 41.4108 90.2199 40.4708 88.7799C40.0708 88.1599 26.3208 79.5999 22.8508 79.6099Z" fill="white"/>
</g>
<path d="M54.4901 8.63962C53.5701 8.87962 56.6201 12.7196 58.0701 13.0596C59.5201 13.3996 61.5101 12.3696 60.8201 11.6696C60.1301 10.9696 55.9001 8.24962 54.4901 8.63962Z" fill="white"/>
<path d="M61.2395 12.4399C59.8595 12.8099 62.4095 18.8699 63.4995 19.9499C64.5895 21.0299 74.2795 22.9499 74.0595 21.1699C73.8395 19.3899 63.1795 11.9199 61.2395 12.4399Z" fill="white"/>
<path style="mix-blend-mode:multiply" opacity="0.5" d="M58.6309 79.7101C57.8109 83.2801 57.9409 85.3901 58.4009 85.4101C58.8609 85.4301 75.4709 75.4401 75.9209 75.0001C76.3709 74.5601 73.2609 71.6901 71.9209 71.8801C70.5809 72.0701 58.9309 78.3701 58.6309 79.7101Z" fill="url(#paint10_linear_6456_59428)"/>
<path style="mix-blend-mode:multiply" opacity="0.5" d="M11.9989 26.9097C11.5989 25.7097 10.3689 25.7197 10.2589 27.0597C10.1489 28.3997 9.95891 53.2697 10.4489 53.3097C10.9389 53.3497 11.9989 52.1297 11.9989 51.5597C11.9989 50.9897 12.1989 27.4897 11.9989 26.9097Z" fill="url(#paint11_linear_6456_59428)"/>
<path style="mix-blend-mode:multiply" opacity="0.5" d="M70.2094 27.0704C70.1394 27.5404 69.8994 51.0704 70.2094 51.0704C70.5194 51.0704 71.8894 49.9704 71.8894 49.3904C71.8894 48.8104 71.5394 26.6204 71.3894 26.5104C71.2394 26.4004 70.2594 26.6804 70.2094 27.0704Z" fill="url(#paint12_linear_6456_59428)"/>
<path style="mix-blend-mode:multiply" opacity="0.5" d="M41.1118 10.1904C41.1118 10.6504 27.7318 18.2904 27.4118 18.2904C27.0918 18.2904 27.2118 16.2304 27.6418 15.9404C28.0718 15.6504 41.0018 7.8704 41.1118 8.1304C41.1619 8.81615 41.1619 9.50464 41.1118 10.1904Z" fill="url(#paint13_linear_6456_59428)"/>
<path d="M68.7401 72.0698C67.8801 72.0698 65.0001 73.7098 65.2101 74.5298C65.4201 75.3498 67.2101 76.2398 67.6701 75.7698C68.1301 75.2998 69.3001 72.0898 68.7401 72.0698Z" fill="#394773"/>
<path d="M69.8383 72.6402C69.5383 72.9102 68.8983 73.8802 69.5083 74.3502C70.1183 74.8202 71.9183 73.5802 71.6483 73.2102C71.3783 72.8402 70.2183 72.2902 69.8383 72.6402Z" fill="#394773"/>
<path style="mix-blend-mode:multiply" opacity="0.5" d="M65.6381 73.7098C64.9281 74.7098 67.8481 75.3098 68.2281 74.4998C68.6081 73.6898 69.2281 71.9798 68.7381 72.0698C67.6111 72.4172 66.5594 72.9735 65.6381 73.7098Z" fill="url(#paint14_linear_6456_59428)"/>
<path d="M65.2297 74.2998C65.4253 74.8605 65.8156 75.3325 66.3297 75.6298C67.0097 76.0298 67.5997 75.9398 67.7697 75.6298C67.5998 75.8305 67.3667 75.9676 67.1087 76.0184C66.8507 76.0693 66.5831 76.031 66.3497 75.9098C64.9997 75.2698 65.2297 74.2998 65.2297 74.2998Z" fill="#DAE1EF"/>
<path style="mix-blend-mode:multiply" opacity="0.5" d="M70.159 72.6698C69.499 73.3798 70.009 74.3998 70.379 74.3498C70.749 74.2998 71.859 73.5598 71.649 73.2098C71.439 72.8598 70.309 72.5098 70.159 72.6698Z" fill="url(#paint15_linear_6456_59428)"/>
<path d="M69.8414 72.6401C69.8414 72.6401 69.2314 73.4801 69.4714 73.9601C69.7114 74.4401 70.0614 74.4301 70.0614 74.4301C70.0614 74.4301 69.2814 74.8901 69.1314 74.3501C68.8814 73.4301 69.8414 72.6401 69.8414 72.6401Z" fill="#DAE1EF"/>
<path d="M37.2018 9.93022C35.1518 9.39022 33.5018 10.7202 32.6018 11.7302C31.7018 12.7402 32.2118 13.3602 33.3318 13.1602C34.4518 12.9602 38.0618 10.1602 37.2018 9.93022Z" fill="#394773"/>
<path style="mix-blend-mode:multiply" opacity="0.5" d="M37.2016 9.92983C36.5576 9.80251 35.8934 9.81989 35.2569 9.98073C34.6205 10.1416 34.0278 10.4418 33.5216 10.8598C32.9716 11.3498 34.0516 12.7298 34.7916 12.4398C35.5316 12.1498 37.8316 10.1498 37.2016 9.92983Z" fill="url(#paint16_linear_6456_59428)"/>
<path d="M33.1185 11.21C33.1185 11.21 30.8085 12.72 31.1185 13.47C31.4285 14.22 34.1185 12.85 34.1185 12.85C34.1185 12.85 32.6785 13.32 32.3485 12.68C32.0185 12.04 33.1185 11.21 33.1185 11.21Z" fill="white"/>
<path d="M11.3201 70.5902C10.2301 70.8602 13.4601 73.0802 14.2201 73.1902C14.9801 73.3002 14.2201 71.3602 13.8601 71.0302C13.0665 70.664 12.1907 70.5123 11.3201 70.5902Z" fill="white"/>
<path d="M41.08 72.7299L1.87 49.8599C0.947074 51.9985 0.318025 54.2524 0 56.5599L2.56 60.8799L41.08 83.2499L79.6 60.8799L81.92 56.5599C81.8501 54.2617 81.3762 51.9937 80.52 49.8599L41.08 72.7299Z" fill="url(#paint17_linear_6456_59428)"/>
<path d="M2.56 60.8801L0 56.5601L41.08 80.6201L81.92 56.5601L79.6 60.8801L41.08 83.2501L2.56 60.8801Z" fill="url(#paint18_linear_6456_59428)"/>
<path style="mix-blend-mode:multiply" opacity="0.5" d="M0 56.5601L2.56 60.8801L3.14 61.2401V62.5301C3.14 62.5301 5.34 63.6501 9.65 66.0301C9.8 66.1101 12.37 68.8201 12.37 68.8201C12.37 68.8201 40.11 85.6001 41.11 85.6001C42.41 85.6001 69.94 68.4501 69.94 68.4501C69.94 68.4501 72.08 66.6501 72.29 66.5301L79.09 63.0001V61.1801L79.6 60.8801L81.92 56.5601L41.08 80.6201L0 56.5601Z" fill="url(#paint19_linear_6456_59428)"/>
<path style="mix-blend-mode:multiply" opacity="0.5" d="M41.0781 72.7299V80.6199L81.9181 56.5599C81.8109 54.2663 81.3383 52.0045 80.5181 49.8599L41.0781 72.7299Z" fill="url(#paint20_linear_6456_59428)"/>
<g style="mix-blend-mode:soft-light" opacity="0.5">
<path d="M3.88993 51.5898C3.13993 51.5898 3.74993 58.2298 6.02993 59.7598C9.64993 62.1798 31.4699 75.0498 32.8999 75.0598C33.8999 75.0598 33.8399 69.4298 33.5399 68.9898C32.9999 68.1698 4.99993 51.5898 3.88993 51.5898Z" fill="white"/>
</g>
<g style="mix-blend-mode:soft-light" opacity="0.5">
<path d="M53.2101 65.8999C52.7301 66.3899 52.8001 72.5999 53.6101 72.4099C60.202 69.2091 66.5521 65.5327 72.6101 61.4099C78.4301 57.1399 79.2501 51.5099 77.9401 51.6399C77.9001 51.5999 54.1801 64.8999 53.2101 65.8999Z" fill="white"/>
</g>
<path d="M21.1016 68.9199C21.1016 68.9199 39.8816 80.1799 41.1016 80.1799C42.3216 80.1799 57.2916 71.0799 57.2916 71.0799C57.2916 71.0799 41.5616 81.0799 41.1316 81.0799C40.7016 81.0799 21.1016 68.9199 21.1016 68.9199Z" fill="white"/>
<path d="M41.08 59.58L1.87 36.71C0.947074 38.8486 0.318025 41.1025 0 43.41L2.56 47.73L41.08 70.1L79.6 47.73L81.92 43.41C81.8501 41.1118 81.3762 38.8438 80.52 36.71L41.08 59.58Z" fill="url(#paint21_linear_6456_59428)"/>
<path d="M2.56 47.7302L0 43.4102L41.08 67.4702L81.92 43.4102L79.6 47.7302L41.08 70.1102L2.56 47.7302Z" fill="url(#paint22_linear_6456_59428)"/>
<path style="mix-blend-mode:multiply" opacity="0.5" d="M0 43.4099L2.56 47.7299L3.14 48.0899V49.3799C3.14 49.3799 5.34 50.4999 9.65 52.8799C9.8 52.9599 12.37 55.6799 12.37 55.6799C12.37 55.6799 40.11 72.4499 41.11 72.4499C42.41 72.4499 69.94 55.2999 69.94 55.2999C69.94 55.2999 72.08 53.4999 72.29 53.3799L79.09 49.8199V47.9999L79.6 47.6999L81.92 43.3799L41.08 67.4699L0 43.4099Z" fill="url(#paint23_linear_6456_59428)"/>
<path style="mix-blend-mode:multiply" opacity="0.5" d="M41.0781 59.58V67.47L81.9181 43.41C81.8109 41.1164 81.3383 38.8546 80.5181 36.71L41.0781 59.58Z" fill="url(#paint24_linear_6456_59428)"/>
<g style="mix-blend-mode:soft-light" opacity="0.5">
<path d="M3.88993 38.4399C3.13993 38.4399 3.74993 45.0799 6.02993 46.6099C9.64993 48.9999 31.4699 61.8999 32.8999 61.9099C33.8999 61.9099 33.8399 56.2799 33.5399 55.8399C32.9999 54.9999 4.99993 38.4399 3.88993 38.4399Z" fill="white"/>
</g>
<g style="mix-blend-mode:soft-light" opacity="0.5">
<path d="M53.2101 52.75C52.7301 53.24 52.8001 59.45 53.6101 59.26C60.202 56.0592 66.5521 52.3828 72.6101 48.26C78.4301 43.99 79.2501 38.36 77.9401 38.49C77.9001 38.45 54.1801 51.75 53.2101 52.75Z" fill="white"/>
</g>
<path d="M21.1016 55.77C21.1016 55.77 39.8816 67 41.0816 67C42.2816 67 57.2716 57.9 57.2716 57.9C57.2716 57.9 41.5416 67.9 41.1116 67.9C40.6816 67.9 21.1016 55.77 21.1016 55.77Z" fill="white"/>
<path style="mix-blend-mode:multiply" opacity="0.5" d="M41.1808 43.3103L32.7508 47.7403L34.3608 38.3603L27.5508 31.7203L36.9708 30.3503L41.1808 21.8203L45.3908 30.3503L54.8008 31.7203L47.9908 38.3603L49.6008 47.7403L41.1808 43.3103Z" fill="url(#paint25_linear_6456_59428)"/>
<path d="M53.8212 32.0404L49.2712 31.3804L48.0312 31.2004L45.0813 30.7704L41.1812 22.8604L37.2712 30.7704L28.5312 32.0404L34.8512 38.2004L33.3612 46.9004L41.1812 42.8004L48.9913 46.9004L47.5012 38.2004L53.8212 32.0404Z" fill="url(#paint26_linear_6456_59428)"/>
<path style="mix-blend-mode:multiply" opacity="0.5" d="M28.4883 32.04L41.3583 35.41L34.8083 38.2L28.4883 32.04Z" fill="url(#paint27_linear_6456_59428)"/>
<path style="mix-blend-mode:multiply" opacity="0.5" d="M53.7694 32.04L41.3594 35.41L47.4494 38.2L53.7694 32.04Z" fill="url(#paint28_linear_6456_59428)"/>
<path style="mix-blend-mode:multiply" opacity="0.5" d="M41.1303 42.8002L41.3603 35.4102L33.3203 46.9002L41.1303 42.8002Z" fill="url(#paint29_linear_6456_59428)"/>
<path style="mix-blend-mode:multiply" opacity="0.5" d="M48.9389 46.9002L41.3589 35.4102L41.1289 42.8002L48.9389 46.9002Z" fill="url(#paint30_linear_6456_59428)"/>
<path style="mix-blend-mode:color-dodge" opacity="0.5" d="M41.1289 22.8604L41.3589 35.4104L45.0389 30.7704L41.1289 22.8604Z" fill="url(#paint31_linear_6456_59428)"/>
<path style="mix-blend-mode:color-dodge" opacity="0.5" d="M53.7694 32.0395L41.3594 35.4095L45.0394 30.7695L53.7694 32.0395Z" fill="url(#paint32_linear_6456_59428)"/>
<path style="mix-blend-mode:color-dodge" opacity="0.5" d="M53.7694 32.0395L41.3594 35.4095L45.0394 30.7695L53.7694 32.0395Z" fill="url(#paint33_linear_6456_59428)"/>
<path style="mix-blend-mode:color-dodge" opacity="0.5" d="M37.2183 30.7695L41.3583 35.4095L28.4883 32.0395L37.2183 30.7695Z" fill="url(#paint34_linear_6456_59428)"/>
<g style="mix-blend-mode:color-dodge" opacity="0.8">
<path d="M45.0009 33.53C44.3509 34.07 44.9009 34.43 44.9009 34.43L48.2509 33.53C47.7801 33.1832 47.2107 32.9961 46.6259 32.9961C46.0411 32.9961 45.4717 33.1832 45.0009 33.53Z" fill="white"/>
</g>
<path style="mix-blend-mode:multiply" opacity="0.5" d="M33.3594 46.8998C33.3594 46.8998 39.2894 44.1098 41.1794 43.3298L48.9994 46.8998L41.1894 42.7998L33.3594 46.8998Z" fill="url(#paint35_linear_6456_59428)"/>
<path style="mix-blend-mode:multiply" opacity="0.5" d="M28.4883 32.04L41.3583 35.41L34.2883 41.48L28.4883 32.04Z" fill="url(#paint36_linear_6456_59428)"/>
<path style="mix-blend-mode:multiply" opacity="0.5" d="M53.7694 32.04L41.3594 35.41L48.1994 42.29L53.7694 32.04Z" fill="url(#paint37_linear_6456_59428)"/>
<path style="mix-blend-mode:multiply" opacity="0.5" d="M33.3594 46.9002L41.3594 35.4102L48.9894 46.9002L41.1794 45.6702L33.3594 46.9002Z" fill="url(#paint38_linear_6456_59428)"/>
<g style="mix-blend-mode:soft-light" opacity="0.4">
<path d="M38.2711 29.3998C37.4411 31.7098 40.6011 33.3198 41.0311 32.6098C41.4611 31.8998 41.1811 27.9398 40.6511 27.4098C40.1211 26.8798 38.6111 28.4598 38.2711 29.3998Z" fill="#F7FFFF"/>
</g>
<g style="mix-blend-mode:soft-light" opacity="0.4">
<path d="M35.6796 41.2101C37.3596 41.4401 38.2996 39.5201 38.6796 38.2101C39.2296 36.0801 32.6196 40.7901 35.6796 41.2101Z" fill="#F7FFFF"/>
</g>
<defs>
<linearGradient id="paint0_linear_6456_59428" x1="41.1089" y1="97.83" x2="41.1089" y2="15.36" gradientUnits="userSpaceOnUse">
<stop offset="0.21" stop-color="#98ABD2"/>
<stop offset="0.49" stop-color="#72719D"/>
<stop offset="1" stop-color="#DAE1EF"/>
</linearGradient>
<linearGradient id="paint1_linear_6456_59428" x1="41.11" y1="12.8997" x2="41.11" y2="88.0297" gradientUnits="userSpaceOnUse">
<stop offset="0.21" stop-color="#98ABD2"/>
<stop offset="0.49" stop-color="#72719D"/>
<stop offset="1" stop-color="#DAE1EF"/>
</linearGradient>
<linearGradient id="paint2_linear_6456_59428" x1="6.5285" y1="83.1899" x2="6.5285" y2="37.7199" gradientUnits="userSpaceOnUse">
<stop stop-color="#705AB8"/>
<stop offset="1" stop-color="white"/>
</linearGradient>
<linearGradient id="paint3_linear_6456_59428" x1="75.5483" y1="83.1899" x2="75.5483" y2="37.7199" gradientUnits="userSpaceOnUse">
<stop stop-color="#705AB8"/>
<stop offset="1" stop-color="white"/>
</linearGradient>
<linearGradient id="paint4_linear_6456_59428" x1="13.4618" y1="66.2201" x2="31.8418" y2="96.0401" gradientUnits="userSpaceOnUse">
<stop stop-color="#705AB8"/>
<stop offset="1" stop-color="white"/>
</linearGradient>
<linearGradient id="paint5_linear_6456_59428" x1="54.4116" y1="69.9798" x2="67.5716" y2="109.02" gradientUnits="userSpaceOnUse">
<stop stop-color="#705AB8"/>
<stop offset="1" stop-color="white"/>
</linearGradient>
<linearGradient id="paint6_linear_6456_59428" x1="41.0399" y1="90.77" x2="41.0399" y2="27.91" gradientUnits="userSpaceOnUse">
<stop stop-color="#705AB8"/>
<stop offset="1" stop-color="white"/>
</linearGradient>
<linearGradient id="paint7_linear_6456_59428" x1="10" y1="39.1096" x2="72.22" y2="39.1096" gradientUnits="userSpaceOnUse">
<stop stop-color="#8980EB"/>
<stop offset="1" stop-color="#705AB8"/>
</linearGradient>
<linearGradient id="paint8_linear_6456_59428" x1="3.12938" y1="18.93" x2="55.6994" y2="18.93" gradientUnits="userSpaceOnUse">
<stop stop-color="#728EE3"/>
<stop offset="1" stop-color="#836888"/>
</linearGradient>
<linearGradient id="paint9_linear_6456_59428" x1="3.13194" y1="71.8798" x2="79.0919" y2="71.8798" gradientUnits="userSpaceOnUse">
<stop stop-color="#728EE3"/>
<stop offset="1" stop-color="#836888"/>
</linearGradient>
<linearGradient id="paint10_linear_6456_59428" x1="58.0309" y1="78.6401" x2="75.9609" y2="78.6401" gradientUnits="userSpaceOnUse">
<stop stop-color="#8980EB"/>
<stop offset="1" stop-color="#705AB8"/>
</linearGradient>
<linearGradient id="paint11_linear_6456_59428" x1="10.1389" y1="39.6697" x2="12.1089" y2="39.6697" gradientUnits="userSpaceOnUse">
<stop stop-color="#8980EB"/>
<stop offset="1" stop-color="#705AB8"/>
</linearGradient>
<linearGradient id="paint12_linear_6456_59428" x1="70.0594" y1="38.7304" x2="71.8894" y2="38.7304" gradientUnits="userSpaceOnUse">
<stop stop-color="#8980EB"/>
<stop offset="1" stop-color="#705AB8"/>
</linearGradient>
<linearGradient id="paint13_linear_6456_59428" x1="27.2318" y1="13.2104" x2="41.1518" y2="13.2104" gradientUnits="userSpaceOnUse">
<stop stop-color="#8980EB"/>
<stop offset="1" stop-color="#705AB8"/>
</linearGradient>
<linearGradient id="paint14_linear_6456_59428" x1="51.5716" y1="54.2424" x2="52.5915" y2="56.152" gradientUnits="userSpaceOnUse">
<stop stop-color="#8980EB"/>
<stop offset="1" stop-color="#705AB8"/>
</linearGradient>
<linearGradient id="paint15_linear_6456_59428" x1="54.8165" y1="54.048" x2="55.5873" y2="55.4912" gradientUnits="userSpaceOnUse">
<stop stop-color="#8980EB"/>
<stop offset="1" stop-color="#705AB8"/>
</linearGradient>
<linearGradient id="paint16_linear_6456_59428" x1="35.0416" y1="9.77298" x2="35.9966" y2="11.632" gradientUnits="userSpaceOnUse">
<stop stop-color="#8980EB"/>
<stop offset="1" stop-color="#705AB8"/>
</linearGradient>
<linearGradient id="paint17_linear_6456_59428" x1="40.96" y1="22.7099" x2="40.96" y2="82.4899" gradientUnits="userSpaceOnUse">
<stop offset="0.21" stop-color="#98ABD2"/>
<stop offset="0.49" stop-color="#72719D"/>
<stop offset="1" stop-color="#DAE1EF"/>
</linearGradient>
<linearGradient id="paint18_linear_6456_59428" x1="0" y1="69.9101" x2="81.92" y2="69.9101" gradientUnits="userSpaceOnUse">
<stop offset="0.21" stop-color="#98ABD2"/>
<stop offset="0.49" stop-color="#72719D"/>
<stop offset="1" stop-color="#DAE1EF"/>
</linearGradient>
<linearGradient id="paint19_linear_6456_59428" x1="40.96" y1="86.1001" x2="40.96" y2="61.1901" gradientUnits="userSpaceOnUse">
<stop stop-color="#8980EB"/>
<stop offset="1" stop-color="#705AB8"/>
</linearGradient>
<linearGradient id="paint20_linear_6456_59428" x1="35.135" y1="81.3499" x2="32.4788" y2="50.3744" gradientUnits="userSpaceOnUse">
<stop stop-color="#705AB8"/>
<stop offset="1" stop-color="white"/>
</linearGradient>
<linearGradient id="paint21_linear_6456_59428" x1="40.96" y1="9.55996" x2="40.96" y2="69.34" gradientUnits="userSpaceOnUse">
<stop offset="0.21" stop-color="#98ABD2"/>
<stop offset="0.49" stop-color="#72719D"/>
<stop offset="1" stop-color="#DAE1EF"/>
</linearGradient>
<linearGradient id="paint22_linear_6456_59428" x1="0" y1="56.7602" x2="81.92" y2="56.7602" gradientUnits="userSpaceOnUse">
<stop offset="0.21" stop-color="#98ABD2"/>
<stop offset="0.49" stop-color="#72719D"/>
<stop offset="1" stop-color="#DAE1EF"/>
</linearGradient>
<linearGradient id="paint23_linear_6456_59428" x1="40.96" y1="72.9499" x2="40.96" y2="48.0399" gradientUnits="userSpaceOnUse">
<stop stop-color="#8980EB"/>
<stop offset="1" stop-color="#705AB8"/>
</linearGradient>
<linearGradient id="paint24_linear_6456_59428" x1="35.135" y1="68.2" x2="32.4788" y2="37.2245" gradientUnits="userSpaceOnUse">
<stop stop-color="#705AB8"/>
<stop offset="1" stop-color="white"/>
</linearGradient>
<linearGradient id="paint25_linear_6456_59428" x1="27.5508" y1="34.7803" x2="54.8008" y2="34.7803" gradientUnits="userSpaceOnUse">
<stop stop-color="#8980EB"/>
<stop offset="1" stop-color="#705AB8"/>
</linearGradient>
<linearGradient id="paint26_linear_6456_59428" x1="41.1812" y1="47.3604" x2="41.1812" y2="18.7804" gradientUnits="userSpaceOnUse">
<stop stop-color="#86759D"/>
<stop offset="0.39" stop-color="#98ABD2"/>
<stop offset="1" stop-color="#DAE1EF"/>
</linearGradient>
<linearGradient id="paint27_linear_6456_59428" x1="28.4883" y1="35.12" x2="41.3583" y2="35.12" gradientUnits="userSpaceOnUse">
<stop stop-color="#705AB8"/>
<stop offset="1" stop-color="white"/>
</linearGradient>
<linearGradient id="paint28_linear_6456_59428" x1="41.3594" y1="35.12" x2="53.7694" y2="35.12" gradientUnits="userSpaceOnUse">
<stop stop-color="#705AB8"/>
<stop offset="1" stop-color="white"/>
</linearGradient>
<linearGradient id="paint29_linear_6456_59428" x1="33.3203" y1="41.1502" x2="41.3603" y2="41.1502" gradientUnits="userSpaceOnUse">
<stop stop-color="#705AB8"/>
<stop offset="1" stop-color="white"/>
</linearGradient>
<linearGradient id="paint30_linear_6456_59428" x1="41.1289" y1="41.1502" x2="48.9389" y2="41.1502" gradientUnits="userSpaceOnUse">
<stop stop-color="#705AB8"/>
<stop offset="1" stop-color="white"/>
</linearGradient>
<linearGradient id="paint31_linear_6456_59428" x1="42.2889" y1="24.7404" x2="44.0389" y2="40.7804" gradientUnits="userSpaceOnUse">
<stop stop-color="#BFD7FF"/>
<stop offset="1"/>
</linearGradient>
<linearGradient id="paint32_linear_6456_59428" x1="41.3594" y1="33.0895" x2="53.7694" y2="33.0895" gradientUnits="userSpaceOnUse">
<stop stop-color="#BFD7FF"/>
<stop offset="1"/>
</linearGradient>
<linearGradient id="paint33_linear_6456_59428" x1="46.5394" y1="24.2795" x2="48.2794" y2="40.3195" gradientUnits="userSpaceOnUse">
<stop stop-color="#BFD7FF"/>
<stop offset="1"/>
</linearGradient>
<linearGradient id="paint34_linear_6456_59428" x1="34.0383" y1="25.6395" x2="35.7883" y2="41.6795" gradientUnits="userSpaceOnUse">
<stop stop-color="#BFD7FF"/>
<stop offset="1"/>
</linearGradient>
<linearGradient id="paint35_linear_6456_59428" x1="33.3594" y1="44.8498" x2="48.9894" y2="44.8498" gradientUnits="userSpaceOnUse">
<stop stop-color="#8980EB"/>
<stop offset="1" stop-color="#705AB8"/>
</linearGradient>
<linearGradient id="paint36_linear_6456_59428" x1="28.4883" y1="36.76" x2="41.3583" y2="36.76" gradientUnits="userSpaceOnUse">
<stop stop-color="#8980EB"/>
<stop offset="1" stop-color="#705AB8"/>
</linearGradient>
<linearGradient id="paint37_linear_6456_59428" x1="41.3594" y1="37.17" x2="53.7694" y2="37.17" gradientUnits="userSpaceOnUse">
<stop stop-color="#8980EB"/>
<stop offset="1" stop-color="#705AB8"/>
</linearGradient>
<linearGradient id="paint38_linear_6456_59428" x1="33.3594" y1="41.1502" x2="48.9894" y2="41.1502" gradientUnits="userSpaceOnUse">
<stop stop-color="#8980EB"/>
<stop offset="1" stop-color="#705AB8"/>
</linearGradient>
</defs>
</svg>
