<svg width="29" height="30" viewBox="0 0 29 30" fill="none" xmlns="http://www.w3.org/2000/svg">
<path d="M10.4806 27.3348C10.2187 27.2472 9.9354 27.3885 9.84782 27.6504C9.76024 27.9123 9.90154 28.1956 10.1634 28.2831L10.4806 27.3348ZM15.2161 28.5078L15.2037 28.008L15.2161 28.5078ZM28.5 14.7563L29 14.7562L28.5 14.7563ZM15.2161 1.00789L15.1992 1.5076L15.2161 1.00789ZM1.00008 14.7579L0.500082 14.7595L1.00008 14.7579ZM5.66108 25.0121L5.66108 25.5121H6.09004L6.15527 25.0881L5.66108 25.0121ZM6.1549 22.6035C6.11162 22.3308 5.85545 22.1448 5.58272 22.188C5.30999 22.2313 5.12398 22.4875 5.16726 22.7602L6.1549 22.6035ZM3.33058 24.5121C3.05444 24.5121 2.83058 24.7359 2.83058 25.0121C2.83058 25.2882 3.05444 25.5121 3.33058 25.5121L3.33058 24.5121ZM10.1634 28.2831C11.971 28.8877 13.3383 29.0548 15.2286 29.0077L15.2037 28.008C13.4139 28.0526 12.1641 27.8978 10.4806 27.3348L10.1634 28.2831ZM15.2286 29.0077C22.9704 28.8144 29.0009 22.4881 29 14.7562L28 14.7563C28.0008 21.9579 22.3907 27.8286 15.2037 28.008L15.2286 29.0077ZM29 14.7562C28.9991 7.0212 22.9644 0.770407 15.2331 0.508178L15.1992 1.5076C22.391 1.75153 27.9992 7.55962 28 14.7563L29 14.7562ZM15.2331 0.508178C7.23242 0.236813 0.472887 6.75061 0.500082 14.7595L1.50008 14.7562C1.47482 7.31783 7.76138 1.25533 15.1992 1.5076L15.2331 0.508178ZM0.500082 14.7595C0.515582 19.3244 2.67804 22.9763 5.32478 25.3821L5.99739 24.6421C3.51686 22.3874 1.51445 18.9889 1.50008 14.7562L0.500082 14.7595ZM6.15527 25.0881C6.25324 24.4513 6.25247 23.832 6.22866 23.3771C6.21668 23.1483 6.19869 22.9579 6.18353 22.8235C6.17594 22.7562 6.16903 22.7028 6.1639 22.6655C6.16134 22.6468 6.15922 22.6321 6.15767 22.6217C6.1569 22.6165 6.15627 22.6123 6.15581 22.6093C6.15557 22.6078 6.15538 22.6065 6.15523 22.6056C6.15515 22.6051 6.15509 22.6047 6.15503 22.6043C6.15501 22.6041 6.15498 22.604 6.15496 22.6039C6.15495 22.6038 6.15493 22.6037 6.15493 22.6037C6.15492 22.6036 6.1549 22.6035 5.66108 22.6819C5.16726 22.7602 5.16725 22.7602 5.16724 22.7601C5.16724 22.7601 5.16723 22.76 5.16722 22.76C5.16721 22.7599 5.1672 22.7599 5.1672 22.7598C5.16719 22.7598 5.16719 22.7598 5.1672 22.7598C5.16722 22.76 5.16729 22.7604 5.16739 22.7611C5.1676 22.7625 5.16797 22.7649 5.16849 22.7684C5.16952 22.7753 5.17113 22.7865 5.17319 22.8014C5.17731 22.8314 5.1832 22.8769 5.18983 22.9356C5.20311 23.0533 5.21925 23.2236 5.23002 23.4294C5.25172 23.8438 5.25095 24.3897 5.1669 24.936L6.15527 25.0881ZM5.66108 24.5121C5.62736 24.5121 5.67345 24.5121 5.63966 24.5121C5.63706 24.5121 5.62072 24.5121 5.61805 24.5121C5.60359 24.5121 5.58901 24.5121 5.57432 24.5121C5.57249 24.5121 5.57065 24.5121 5.56881 24.5121C5.56697 24.5121 5.56513 24.5121 5.56329 24.5121C5.56144 24.5121 5.5596 24.5121 5.55775 24.5121C5.55591 24.5121 5.55406 24.5121 5.55221 24.5121C5.54481 24.5121 5.53738 24.5121 5.52993 24.5121C5.50646 24.5121 5.5086 24.5121 5.48493 24.5121C5.39138 24.5121 5.39576 24.5121 5.29964 24.5121C5.29767 24.5121 5.2957 24.5121 5.29373 24.5121C5.29176 24.5121 5.28979 24.5121 5.28782 24.5121C5.28585 24.5121 5.28388 24.5121 5.2819 24.5121C5.27993 24.5121 5.27796 24.5121 5.27598 24.5121C5.2461 24.5121 5.28213 24.5121 5.25222 24.5121C5.24052 24.5121 5.21627 24.5121 5.20446 24.5121C5.19463 24.5121 5.11822 24.5121 5.10805 24.5121C5.06566 24.5121 5.10196 24.5121 5.0595 24.5121C5.04445 24.5121 5.05023 24.5121 5.03516 24.5121C5.03351 24.5121 5.02462 24.5121 5.02297 24.5121C5.0203 24.5121 5.01345 24.5121 5.01078 24.5121C4.99918 24.5121 5.01017 24.5121 4.99857 24.5121C4.99451 24.5121 4.99043 24.5121 4.98636 24.5121C4.97822 24.5121 4.97008 24.5121 4.96192 24.5121C4.95785 24.5121 4.95378 24.5121 4.9497 24.5121C4.94766 24.5121 4.94562 24.5121 4.94358 24.5121C4.94154 24.5121 4.9395 24.5121 4.93746 24.5121C4.90682 24.5121 4.94363 24.5121 4.91299 24.5121C4.65184 24.5121 4.38897 24.5121 4.15454 24.5121C4.12523 24.5121 4.09638 24.5121 4.06802 24.5121C4.03966 24.5121 4.01181 24.5121 3.98452 24.5121C3.98411 24.5121 3.96449 24.5121 3.96416 24.5121C3.94325 24.5121 3.96485 24.5121 3.94401 24.5121C3.94312 24.5121 3.92491 24.5121 3.92409 24.5121C3.92244 24.5121 3.92079 24.5121 3.91914 24.5121C3.9175 24.5121 3.91585 24.5121 3.91421 24.5121C3.9102 24.5121 3.90839 24.5121 3.90439 24.5121C3.89538 24.5121 3.8744 24.5121 3.86571 24.5121C3.85208 24.5121 3.86027 24.5121 3.84673 24.5121C3.84515 24.5121 3.84359 24.5121 3.84202 24.5121C3.84045 24.5121 3.83889 24.5121 3.83733 24.5121C3.83577 24.5121 3.83421 24.5121 3.83265 24.5121C3.8311 24.5121 3.82954 24.5121 3.82799 24.5121C3.81014 24.5121 3.69973 24.5121 3.68779 24.5121C3.67687 24.5121 3.66614 24.5121 3.65562 24.5121C3.63253 24.5121 3.64736 24.5121 3.62469 24.5121C3.62078 24.5121 3.59853 24.5121 3.59505 24.5121C3.57389 24.5121 3.58745 24.5121 3.56674 24.5121C3.54379 24.5121 3.56228 24.5121 3.5398 24.5121C3.5169 24.5121 3.53669 24.5121 3.51428 24.5121C3.48357 24.5121 3.49636 24.5121 3.46766 24.5121C3.45194 24.5121 3.40037 24.5121 3.39339 24.5121C3.35582 24.5121 3.40165 24.5121 3.36644 24.5121C3.34762 24.5121 3.3631 24.5121 3.34676 24.5121C3.34561 24.5121 3.34592 24.5121 3.34482 24.5121C3.34314 24.5121 3.34465 24.5121 3.34301 24.5121C3.31129 24.5121 3.3713 24.5121 3.33975 24.5121C3.33874 24.5121 3.33781 24.5121 3.33697 24.5121C3.33677 24.5121 3.33471 24.5121 3.33468 24.5121C3.33401 24.5121 3.33341 24.5121 3.3329 24.5121C3.33233 24.5121 3.33272 24.5121 3.33219 24.5121C3.33198 24.5121 3.33179 24.5121 3.33161 24.5121C3.33153 24.5121 3.33145 24.5121 3.33137 24.5121C3.3313 24.5121 3.33123 24.5121 3.33116 24.5121C3.33065 24.5121 3.33131 24.5121 3.33084 24.5121C3.3308 24.5121 3.33076 24.5121 3.33073 24.5121C3.33069 24.5121 3.33067 24.5121 3.33065 24.5121C3.33062 24.5121 3.33061 24.5121 3.3306 24.5121C3.33059 24.5121 3.33058 24.5121 3.33058 25.0121C3.33058 25.5121 3.33059 25.5121 3.3306 25.5121C3.33061 25.5121 3.33062 25.5121 3.33064 25.5121C3.33067 25.5121 3.33069 25.5121 3.33073 25.5121C3.33076 25.5121 3.3308 25.5121 3.33084 25.5121C3.33103 25.5121 3.33093 25.5121 3.33116 25.5121C3.33162 25.5121 3.33111 25.5121 3.33161 25.5121C3.33261 25.5121 3.33173 25.5121 3.3329 25.5121C3.33341 25.5121 3.334 25.5121 3.33468 25.5121C3.34789 25.5121 3.33095 25.5121 3.34675 25.5121C3.35845 25.5121 3.34335 25.5121 3.35567 25.5121C3.35584 25.5121 3.35798 25.5121 3.35819 25.5121C3.35934 25.5121 3.35963 25.5121 3.36082 25.5121C3.36126 25.5121 3.36585 25.5121 3.36644 25.5121C3.37516 25.5121 3.36971 25.5121 3.37903 25.5121C3.41051 25.5121 3.36132 25.5121 3.39339 25.5121C3.40037 25.5121 3.45194 25.5121 3.46766 25.5121C3.49636 25.5121 3.48357 25.5121 3.51427 25.5121C3.55197 25.5121 3.52714 25.5121 3.56674 25.5121C3.58746 25.5121 3.57388 25.5121 3.59505 25.5121C3.59853 25.5121 3.62077 25.5121 3.62469 25.5121C3.64736 25.5121 3.63253 25.5121 3.65562 25.5121C3.67363 25.5121 3.64551 25.5121 3.66355 25.5121C3.6662 25.5121 3.66887 25.5121 3.67155 25.5121C3.6821 25.5121 3.67714 25.5121 3.68779 25.5121C3.69973 25.5121 3.81014 25.5121 3.82799 25.5121C3.85622 25.5121 3.95132 25.5121 3.98452 25.5121C4.01181 25.5121 4.03966 25.5121 4.06802 25.5121C4.09637 25.5121 4.12523 25.5121 4.15454 25.5121C4.38897 25.5121 4.65184 25.5121 4.91298 25.5121C4.9356 25.5121 4.93933 25.5121 4.96192 25.5121C5.01036 25.5121 4.96237 25.5121 5.01078 25.5121C5.0525 25.5121 5.01783 25.5121 5.0595 25.5121C5.10196 25.5121 5.06565 25.5121 5.10805 25.5121C5.11822 25.5121 5.19463 25.5121 5.20446 25.5121C5.24954 25.5121 5.20725 25.5121 5.25222 25.5121C5.28213 25.5121 5.2461 25.5121 5.27598 25.5121C5.28981 25.5121 5.28584 25.5121 5.29964 25.5121C5.39576 25.5121 5.39138 25.5121 5.48493 25.5121C5.48681 25.5121 5.4887 25.5121 5.49058 25.5121C5.49247 25.5121 5.49435 25.5121 5.49623 25.5121C5.52527 25.5121 5.47847 25.5121 5.5075 25.5121C5.51501 25.5121 5.52248 25.5121 5.52993 25.5121C5.53738 25.5121 5.54481 25.5121 5.55221 25.5121C5.55406 25.5121 5.5559 25.5121 5.55775 25.5121C5.5596 25.5121 5.56144 25.5121 5.56328 25.5121C5.56513 25.5121 5.56697 25.5121 5.56881 25.5121C5.57065 25.5121 5.57249 25.5121 5.57432 25.5121C5.58901 25.5121 5.60359 25.5121 5.61805 25.5121C5.62018 25.5121 5.62677 25.5121 5.62888 25.5121C5.64167 25.5121 5.62688 25.5121 5.63966 25.5121C5.64145 25.5121 5.64324 25.5121 5.64503 25.5121C5.64682 25.5121 5.64861 25.5121 5.65039 25.5121C5.65717 25.5121 5.65432 25.5121 5.66108 25.5121L5.66108 24.5121Z" fill="white"/>
<path d="M6.35938 11.6289V16.4848C6.35938 17.5894 7.25481 18.4848 8.35938 18.4848H21.139C22.2436 18.4848 23.139 17.5894 23.139 16.4848V11.6289C23.139 10.5243 22.2436 9.62891 21.139 9.62891H8.35938C7.25481 9.62891 6.35938 10.5243 6.35938 11.6289Z" stroke="white"/>
<path d="M17.079 14.2434C17.079 13.085 15.913 11.9598 14.7485 11.957C13.212 11.9534 12.418 13.3581 12.418 14.2434C12.418 15.6417 13.3505 16.5719 14.7489 16.5719C16.1141 16.5719 17.079 15.6418 17.079 14.2434Z" stroke="white"/>
</svg>
