<svg width="24" height="24" viewBox="0 0 24 24" fill="none" xmlns="http://www.w3.org/2000/svg">
<path d="M10.4131 3.01499C10.6136 2.76874 10.4384 2.40004 10.1208 2.40004H5.72242C5.54294 2.40004 5.37287 2.48039 5.2589 2.61905L0.805583 8.03731C0.483784 8.42884 0.762308 9.01829 1.26911 9.01829H5.23496C5.41532 9.01829 5.5861 8.93716 5.70004 8.79736L10.4131 3.01499ZM7.62832 8.03974C7.30894 8.43171 7.58784 9.01875 8.09346 9.01875H15.9082C16.4137 9.01875 16.6927 8.43172 16.3733 8.03975L14.3598 5.56849L12.4665 3.24493C12.2265 2.9503 11.7764 2.95027 11.5363 3.24487L8.43731 7.04691L7.62832 8.03974ZM1.41327 10.0672C0.893712 10.0672 0.61973 10.6827 0.967418 11.0687L7.90782 18.7753C8.36222 19.2799 9.17332 18.7601 8.90474 18.1364L5.58573 10.4299C5.49095 10.2098 5.27429 10.0672 5.03466 10.0672H1.41327ZM17.1957 10.7344C17.3314 10.4182 17.0994 10.0663 16.7554 10.0663H16.5864L12.8197 10.0672H7.43088C6.99966 10.0672 6.70924 10.5085 6.87983 10.9046L11.4523 21.5201C11.6606 22.0037 12.3463 22.0036 12.5544 21.5198L17.1957 10.7344ZM15.1071 18.1225C14.8386 18.7462 15.6497 19.2658 16.104 18.7612L23.0305 11.0692C23.3782 10.6831 23.1042 10.0677 22.5846 10.0677H18.9679C18.7282 10.0677 18.5116 10.2103 18.4168 10.4305L15.1071 18.1225ZM22.7292 9.01829C23.2361 9.01829 23.5146 8.42876 23.1927 8.03725L18.738 2.61895C18.624 2.48032 18.454 2.39999 18.2745 2.39999H14.3497C13.8442 2.39999 13.5652 2.98708 13.8846 3.37904L18.3003 8.79733C18.4141 8.93715 18.585 9.01829 18.7654 9.01829H22.7292Z" fill="#2FDFEC"/>
</svg>
