<svg width="261" height="316" viewBox="0 0 261 316" fill="none" xmlns="http://www.w3.org/2000/svg">
<g filter="url(#filter0_b_6924_92136)">
<path d="M25 309.983C22.2386 309.983 20 307.745 20 304.983L20 11.9998C20 9.2384 22.2386 6.99982 25 6.99982L57 6.99982L57 309.983L25 309.983Z" fill="url(#paint0_linear_6924_92136)"/>
<path d="M21 304.983L21 11.9998C21 9.79068 22.7908 7.99982 25 7.99982L56 7.99982L56 308.983L25 308.983C22.7909 308.983 21 307.193 21 304.983Z" stroke="url(#paint1_linear_6924_92136)" stroke-width="2"/>
</g>
<g filter="url(#filter1_b_6924_92136)">
<path d="M235 7C237.761 7 240 9.23858 240 12L240 304.984C240 307.745 237.761 309.984 235 309.984L203 309.984L203 7L235 7Z" fill="url(#paint2_linear_6924_92136)"/>
<path d="M239 12L239 304.984C239 307.193 237.209 308.984 235 308.984L204 308.984L204 8L235 8C237.209 8 239 9.79086 239 12Z" stroke="url(#paint3_linear_6924_92136)" stroke-width="2"/>
</g>
<mask id="path-5-inside-1_6924_92136" fill="white">
<path fill-rule="evenodd" clip-rule="evenodd" d="M17 10C17 4.47715 21.4772 0 27 0H233C238.523 0 243 4.47715 243 10V116.123C243 119.396 241.398 122.462 238.711 124.332L236.289 126.016C233.602 127.885 232 130.952 232 134.225V157V160V182.775C232 186.048 233.602 189.115 236.289 190.984L238.711 192.668C241.398 194.538 243 197.604 243 200.877V306C243 311.523 238.523 316 233 316H27C21.4772 316 17 311.523 17 306V200.877C17 197.604 18.6021 194.538 21.2894 192.668L23.7106 190.984C26.3979 189.115 28 186.048 28 182.775L28 160V157L28 134.225C28 130.952 26.3979 127.885 23.7106 126.016L21.2894 124.332C18.6021 122.462 17 119.396 17 116.123V10Z"/>
</mask>
<g filter="url(#filter2_i_6924_92136)">
<path fill-rule="evenodd" clip-rule="evenodd" d="M17 10C17 4.47715 21.4772 0 27 0H233C238.523 0 243 4.47715 243 10V116.123C243 119.396 241.398 122.462 238.711 124.332L236.289 126.016C233.602 127.885 232 130.952 232 134.225V157V160V182.775C232 186.048 233.602 189.115 236.289 190.984L238.711 192.668C241.398 194.538 243 197.604 243 200.877V306C243 311.523 238.523 316 233 316H27C21.4772 316 17 311.523 17 306V200.877C17 197.604 18.6021 194.538 21.2894 192.668L23.7106 190.984C26.3979 189.115 28 186.048 28 182.775L28 160V157L28 134.225C28 130.952 26.3979 127.885 23.7106 126.016L21.2894 124.332C18.6021 122.462 17 119.396 17 116.123V10Z" fill="#090E1C"/>
</g>
<path d="M28 160H30H28ZM28 157H26H28ZM21.2894 124.332L22.4315 122.69L21.2894 124.332ZM21.2894 192.668L20.1472 191.026L21.2894 192.668ZM238.711 192.668L237.569 194.31L238.711 192.668ZM23.7106 126.016L22.5685 127.658L23.7106 126.016ZM236.289 126.016L235.147 124.374L236.289 126.016ZM238.711 124.332L239.853 125.974L238.711 124.332ZM236.289 190.984L237.431 189.342L236.289 190.984ZM23.7106 190.984L24.8528 192.626L23.7106 190.984ZM233 -2H27V2H233V-2ZM245 116.123V10H241V116.123H245ZM237.431 127.658L239.853 125.974L237.569 122.69L235.147 124.374L237.431 127.658ZM234 157V134.225H230V157H234ZM234 160V157H230V160H234ZM234 182.775V160H230V182.775H234ZM239.853 191.026L237.431 189.342L235.147 192.626L237.569 194.31L239.853 191.026ZM245 306V200.877H241V306H245ZM27 318H233V314H27V318ZM15 200.877V306H19V200.877H15ZM22.4315 194.31L24.8528 192.626L22.5685 189.342L20.1472 191.026L22.4315 194.31ZM30 182.775L30 160H26L26 182.775H30ZM30 160V157H26V160H30ZM30 157L30 134.225H26L26 157H30ZM24.8528 124.374L22.4315 122.69L20.1472 125.974L22.5685 127.658L24.8528 124.374ZM15 10V116.123H19V10H15ZM22.4315 122.69C20.2817 121.194 19 118.741 19 116.123H15C15 120.051 16.9226 123.73 20.1472 125.974L22.4315 122.69ZM19 200.877C19 198.259 20.2817 195.806 22.4315 194.31L20.1472 191.026C16.9226 193.27 15 196.949 15 200.877H19ZM27 314C22.5817 314 19 310.418 19 306H15C15 312.627 20.3726 318 27 318V314ZM241 306C241 310.418 237.418 314 233 314V318C239.627 318 245 312.627 245 306H241ZM237.569 194.31C239.718 195.806 241 198.259 241 200.877H245C245 196.949 243.077 193.27 239.853 191.026L237.569 194.31ZM30 134.225C30 130.297 28.0774 126.618 24.8528 124.374L22.5685 127.658C24.7183 129.153 26 131.606 26 134.225H30ZM235.147 124.374C231.923 126.618 230 130.297 230 134.225H234C234 131.606 235.282 129.153 237.431 127.658L235.147 124.374ZM241 116.123C241 118.741 239.718 121.194 237.569 122.69L239.853 125.974C243.077 123.73 245 120.051 245 116.123H241ZM230 182.775C230 186.703 231.923 190.382 235.147 192.626L237.431 189.342C235.282 187.847 234 185.394 234 182.775H230ZM27 -2C20.3726 -2 15 3.37258 15 10H19C19 5.58172 22.5817 2 27 2V-2ZM24.8528 192.626C28.0774 190.382 30 186.703 30 182.775H26C26 185.394 24.7183 187.847 22.5685 189.342L24.8528 192.626ZM233 2C237.418 2 241 5.58172 241 10H245C245 3.37258 239.627 -2 233 -2V2Z" fill="url(#paint4_linear_6924_92136)" mask="url(#path-5-inside-1_6924_92136)"/>
<mask id="mask0_6924_92136" style="mask-type:alpha" maskUnits="userSpaceOnUse" x="19" y="2" width="222" height="312">
<path fill-rule="evenodd" clip-rule="evenodd" d="M19 12C19 6.47715 23.4771 2 29 2H231C236.523 2 241 6.47715 241 12V116.602C241 119.867 239.406 122.927 236.73 124.798L234.465 126.382C231.789 128.253 230.195 131.312 230.195 134.577V157.013V159.975V182.41C230.195 185.675 231.789 188.735 234.465 190.606L236.73 192.19C239.406 194.061 241 197.12 241 200.385V304C241 309.523 236.523 314 231 314H29C23.4772 314 19 309.523 19 304V200.386C19 197.121 20.5939 194.062 23.2697 192.191L25.537 190.606C28.2127 188.735 29.8066 185.675 29.8066 182.41L29.8066 157.013L29.8066 134.577C29.8066 131.312 28.2127 128.253 25.537 126.382L23.2697 124.796C20.5939 122.925 19 119.866 19 116.601V12Z" fill="#090E1C"/>
</mask>
<g mask="url(#mask0_6924_92136)">
<rect x="18" y="317" width="317" height="113" transform="rotate(-90 18 317)" fill="#060911"/>
<g opacity="0.2">
<g style="mix-blend-mode:multiply" opacity="0.5">
<path d="M130.5 126.965L62.8558 158L75.7902 92.1373L21 45.5139L96.6779 35.8943L130.5 -24L164.322 35.8943L240 45.5139L185.29 92.1373L198.225 158L130.5 126.965Z" fill="#DE5634"/>
</g>
<path d="M232.739 47.0166L196.168 42.3724L186.202 41.1058L162.491 38.08L131.064 -17.6504L99.6369 38.08L29.4688 47.0166L80.2663 90.3625L68.2903 151.652L131.064 122.731L193.918 151.652L181.942 90.3625L232.739 47.0166Z" fill="url(#paint5_linear_6924_92136)"/>
<path style="mix-blend-mode:multiply" opacity="0.37" d="M29.4688 47.9531L132.314 71.6874L80.0524 91.3368L29.4688 47.9531Z" fill="url(#paint6_linear_6924_92136)"/>
<path style="mix-blend-mode:multiply" opacity="0.37" d="M231.532 47.9531L132.316 71.6874L181.045 91.3368L231.532 47.9531Z" fill="url(#paint7_linear_6924_92136)"/>
<path style="mix-blend-mode:multiply" opacity="0.37" d="M130.56 122.911L132.315 71.2334L68.1875 151.652L130.56 122.911Z" fill="url(#paint8_linear_6924_92136)"/>
<path style="mix-blend-mode:multiply" opacity="0.37" d="M192.812 151.652L131.667 71.2334L129.895 122.911L192.812 151.652Z" fill="url(#paint9_linear_6924_92136)"/>
<path style="mix-blend-mode:color-dodge" opacity="0.5" d="M129.895 -17.6504L131.669 71.2333L161.353 38.3973L129.895 -17.6504Z" fill="url(#paint10_linear_6924_92136)"/>
<path style="mix-blend-mode:color-dodge" opacity="0.5" d="M231.532 47.4079L132.316 71.232L161.714 38.4297L231.532 47.4079Z" fill="url(#paint11_linear_6924_92136)"/>
<path style="mix-blend-mode:color-dodge" opacity="0.5" d="M231.532 47.4079L132.316 71.232L161.714 38.4297L231.532 47.4079Z" fill="url(#paint12_linear_6924_92136)"/>
<path style="mix-blend-mode:color-dodge" opacity="0.5" d="M99.3109 38.4297L132.314 71.232L29.4688 47.4079L99.3109 38.4297Z" fill="url(#paint13_linear_6924_92136)"/>
<path d="M161.517 57.8466C156.225 61.4331 160.703 63.824 160.703 63.824L187.972 57.8466C184.14 55.5433 179.504 54.3008 174.744 54.3008C169.984 54.3008 165.349 55.5433 161.517 57.8466Z" fill="white"/>
<g style="mix-blend-mode:multiply" opacity="0.5">
<path d="M68.1875 151.652C68.1875 151.652 115.848 131.949 131.064 126.53L194.022 151.652L131.064 123.082L68.1875 151.652Z" fill="#DE5634"/>
</g>
<g style="mix-blend-mode:soft-light" opacity="0.4">
<path d="M106.823 28.6756C100.035 44.7466 125.962 55.9476 129.397 51.008C132.832 46.0685 130.706 18.5182 126.371 14.8309C122.036 11.1436 109.604 22.1359 106.823 28.6756Z" fill="#F7FFFF"/>
</g>
<g style="mix-blend-mode:soft-light" opacity="0.4">
<path d="M86.6799 112.366C99.9748 114.005 107.37 100.325 110.28 90.992C114.607 75.8164 62.6075 109.801 86.6799 112.366Z" fill="#F7FFFF"/>
</g>
</g>
</g>
<g filter="url(#filter3_f_6924_92136)">
<ellipse cx="130.5" cy="158" rx="55.5" ry="52" fill="#FF5C00"/>
</g>
<path d="M107.842 52.16V54.24H102.482V66H100.322V52.16H107.842ZM116.943 52.16V54.18H111.583V58.08H116.283V60.1H111.583V63.98H116.943V66H109.423V52.16H116.943ZM122.897 52.16C124.431 52.16 125.577 52.5467 126.337 53.32C127.097 54.08 127.477 55.1467 127.477 56.52V57.82C127.477 59.1933 127.097 60.26 126.337 61.02C125.577 61.78 124.431 62.16 122.897 62.16H120.997V66H118.837V52.16L122.897 52.16ZM120.997 60.12H122.897C124.511 60.12 125.317 59.3533 125.317 57.82V56.52C125.317 55.76 125.117 55.1867 124.717 54.8C124.331 54.4 123.724 54.2 122.897 54.2L120.997 54.2V60.12ZM131.427 52.16V63.96H136.207V52.16H138.367V63.96H139.927V69H137.767V66H129.267V52.16H131.427ZM145.957 51.94C146.784 51.94 147.511 52.06 148.137 52.3C148.764 52.5267 149.291 52.86 149.717 53.3C150.144 53.74 150.464 54.2733 150.677 54.9C150.904 55.5133 151.017 56.2 151.017 56.96V61.18C151.017 61.9533 150.904 62.6533 150.677 63.28C150.464 63.8933 150.144 64.42 149.717 64.86C149.291 65.3 148.764 65.64 148.137 65.88C147.511 66.1067 146.784 66.22 145.957 66.22H145.937C145.124 66.22 144.397 66.1 143.757 65.86C143.131 65.62 142.604 65.28 142.177 64.84C141.751 64.4 141.431 63.8733 141.217 63.26C141.004 62.6333 140.897 61.94 140.897 61.18V56.96C140.897 56.2 141.004 55.5133 141.217 54.9C141.444 54.2733 141.764 53.74 142.177 53.3C142.604 52.86 143.131 52.5267 143.757 52.3C144.397 52.06 145.124 51.94 145.937 51.94H145.957ZM145.957 64.2C146.917 64.2 147.644 63.9133 148.137 63.34C148.631 62.7667 148.877 62.0067 148.877 61.06V57.08C148.877 56.1467 148.631 55.3933 148.137 54.82C147.644 54.2467 146.917 53.96 145.957 53.96H145.937C144.977 53.96 144.251 54.2467 143.757 54.82C143.277 55.3933 143.037 56.1467 143.037 57.08V61.06C143.037 62.0067 143.277 62.7667 143.757 63.34C144.251 63.9133 144.977 64.2 145.937 64.2H145.957ZM160.537 52.16V54.24H155.177V66H153.017V52.16H160.537Z" fill="#C0D0FF"/>
<path d="M109.176 44V35.6H112.632C113.376 35.6 114.012 35.72 114.54 35.96C115.076 36.2 115.488 36.544 115.776 36.992C116.064 37.44 116.208 37.972 116.208 38.588C116.208 39.204 116.064 39.736 115.776 40.184C115.488 40.632 115.076 40.976 114.54 41.216C114.012 41.456 113.376 41.576 112.632 41.576H110.04L110.736 40.844V44H109.176ZM110.736 41.012L110.04 40.256H112.56C113.248 40.256 113.764 40.112 114.108 39.824C114.46 39.528 114.636 39.116 114.636 38.588C114.636 38.052 114.46 37.64 114.108 37.352C113.764 37.064 113.248 36.92 112.56 36.92H110.04L110.736 36.152V41.012ZM119.694 44L123.474 35.6H125.01L128.802 44H127.17L123.918 36.428H124.542L121.302 44H119.694ZM121.434 42.056L121.854 40.832H126.39L126.81 42.056H121.434ZM139.494 35.6H141.054V44H139.494V35.6ZM135.15 44H133.59V35.6H135.15V44ZM139.614 40.4H135.018V39.068H139.614V40.4ZM146.922 44V35.6H152.622L152.61 36.92H148.086L148.446 36.548L148.458 44H146.922Z" fill="white"/>
<path d="M52.0343 286.168C51.3529 286.168 50.6763 286.079 50.0042 285.902C49.3416 285.715 48.7723 285.454 48.2963 285.118L49.1923 283.382C49.5656 283.653 49.9949 283.867 50.4803 284.026C50.9749 284.185 51.4743 284.264 51.9783 284.264C52.5476 284.264 52.9956 284.152 53.3223 283.928C53.6489 283.704 53.8123 283.391 53.8123 282.99C53.8123 282.738 53.7469 282.514 53.6163 282.318C53.4856 282.122 53.2523 281.973 52.9163 281.87C52.5896 281.767 52.1276 281.716 51.5303 281.716H49.0243L49.5283 276.2H55.5063V278.02H50.3403L51.5163 276.984L51.1663 280.918L49.9903 279.882H52.0623C53.0329 279.882 53.8123 280.017 54.4003 280.288C54.9976 280.549 55.4316 280.909 55.7023 281.366C55.9729 281.823 56.1083 282.341 56.1083 282.92C56.1083 283.499 55.9636 284.035 55.6743 284.53C55.3849 285.015 54.9369 285.412 54.3303 285.72C53.7329 286.019 52.9676 286.168 52.0343 286.168ZM57.1124 288.156L58.0364 284.796L58.3444 286.056C57.9431 286.056 57.6118 285.939 57.3504 285.706C57.0984 285.473 56.9724 285.151 56.9724 284.74C56.9724 284.329 57.1031 284.003 57.3644 283.76C57.6258 283.517 57.9478 283.396 58.3304 283.396C58.7224 283.396 59.0444 283.522 59.2964 283.774C59.5484 284.017 59.6744 284.339 59.6744 284.74C59.6744 284.861 59.6651 284.983 59.6464 285.104C59.6278 285.216 59.5904 285.356 59.5344 285.524C59.4878 285.683 59.4084 285.888 59.2964 286.14L58.4984 288.156H57.1124ZM64.7148 286.168C63.9121 286.168 63.1934 285.972 62.5588 285.58C61.9241 285.179 61.4248 284.6 61.0608 283.844C60.6968 283.088 60.5148 282.173 60.5148 281.1C60.5148 280.027 60.6968 279.112 61.0608 278.356C61.4248 277.6 61.9241 277.026 62.5588 276.634C63.1934 276.233 63.9121 276.032 64.7148 276.032C65.5268 276.032 66.2454 276.233 66.8708 276.634C67.5054 277.026 68.0048 277.6 68.3688 278.356C68.7328 279.112 68.9148 280.027 68.9148 281.1C68.9148 282.173 68.7328 283.088 68.3688 283.844C68.0048 284.6 67.5054 285.179 66.8708 285.58C66.2454 285.972 65.5268 286.168 64.7148 286.168ZM64.7148 284.25C65.0974 284.25 65.4288 284.143 65.7088 283.928C65.9981 283.713 66.2221 283.373 66.3808 282.906C66.5488 282.439 66.6328 281.837 66.6328 281.1C66.6328 280.363 66.5488 279.761 66.3808 279.294C66.2221 278.827 65.9981 278.487 65.7088 278.272C65.4288 278.057 65.0974 277.95 64.7148 277.95C64.3414 277.95 64.0101 278.057 63.7208 278.272C63.4408 278.487 63.2168 278.827 63.0488 279.294C62.8901 279.761 62.8108 280.363 62.8108 281.1C62.8108 281.837 62.8901 282.439 63.0488 282.906C63.2168 283.373 63.4408 283.713 63.7208 283.928C64.0101 284.143 64.3414 284.25 64.7148 284.25ZM74.2167 286.168C73.414 286.168 72.6954 285.972 72.0607 285.58C71.426 285.179 70.9267 284.6 70.5627 283.844C70.1987 283.088 70.0167 282.173 70.0167 281.1C70.0167 280.027 70.1987 279.112 70.5627 278.356C70.9267 277.6 71.426 277.026 72.0607 276.634C72.6954 276.233 73.414 276.032 74.2167 276.032C75.0287 276.032 75.7474 276.233 76.3727 276.634C77.0074 277.026 77.5067 277.6 77.8707 278.356C78.2347 279.112 78.4167 280.027 78.4167 281.1C78.4167 282.173 78.2347 283.088 77.8707 283.844C77.5067 284.6 77.0074 285.179 76.3727 285.58C75.7474 285.972 75.0287 286.168 74.2167 286.168ZM74.2167 284.25C74.5994 284.25 74.9307 284.143 75.2107 283.928C75.5 283.713 75.724 283.373 75.8827 282.906C76.0507 282.439 76.1347 281.837 76.1347 281.1C76.1347 280.363 76.0507 279.761 75.8827 279.294C75.724 278.827 75.5 278.487 75.2107 278.272C74.9307 278.057 74.5994 277.95 74.2167 277.95C73.8434 277.95 73.512 278.057 73.2227 278.272C72.9427 278.487 72.7187 278.827 72.5507 279.294C72.392 279.761 72.3127 280.363 72.3127 281.1C72.3127 281.837 72.392 282.439 72.5507 282.906C72.7187 283.373 72.9427 283.713 73.2227 283.928C73.512 284.143 73.8434 284.25 74.2167 284.25ZM83.7187 286.168C82.916 286.168 82.1973 285.972 81.5627 285.58C80.928 285.179 80.4287 284.6 80.0647 283.844C79.7007 283.088 79.5187 282.173 79.5187 281.1C79.5187 280.027 79.7007 279.112 80.0647 278.356C80.4287 277.6 80.928 277.026 81.5627 276.634C82.1973 276.233 82.916 276.032 83.7187 276.032C84.5307 276.032 85.2493 276.233 85.8747 276.634C86.5093 277.026 87.0087 277.6 87.3727 278.356C87.7367 279.112 87.9187 280.027 87.9187 281.1C87.9187 282.173 87.7367 283.088 87.3727 283.844C87.0087 284.6 86.5093 285.179 85.8747 285.58C85.2493 285.972 84.5307 286.168 83.7187 286.168ZM83.7187 284.25C84.1013 284.25 84.4327 284.143 84.7127 283.928C85.002 283.713 85.226 283.373 85.3847 282.906C85.5527 282.439 85.6367 281.837 85.6367 281.1C85.6367 280.363 85.5527 279.761 85.3847 279.294C85.226 278.827 85.002 278.487 84.7127 278.272C84.4327 278.057 84.1013 277.95 83.7187 277.95C83.3453 277.95 83.014 278.057 82.7247 278.272C82.4447 278.487 82.2207 278.827 82.0527 279.294C81.894 279.761 81.8147 280.363 81.8147 281.1C81.8147 281.837 81.894 282.439 82.0527 282.906C82.2207 283.373 82.4447 283.713 82.7247 283.928C83.014 284.143 83.3453 284.25 83.7187 284.25ZM88.9269 288.156L89.8509 284.796L90.1589 286.056C89.7575 286.056 89.4262 285.939 89.1649 285.706C88.9129 285.473 88.7869 285.151 88.7869 284.74C88.7869 284.329 88.9175 284.003 89.1789 283.76C89.4402 283.517 89.7622 283.396 90.1449 283.396C90.5369 283.396 90.8589 283.522 91.1109 283.774C91.3629 284.017 91.4889 284.339 91.4889 284.74C91.4889 284.861 91.4795 284.983 91.4609 285.104C91.4422 285.216 91.4049 285.356 91.3489 285.524C91.3022 285.683 91.2229 285.888 91.1109 286.14L90.3129 288.156H88.9269ZM96.5292 286.168C95.7265 286.168 95.0079 285.972 94.3732 285.58C93.7385 285.179 93.2392 284.6 92.8752 283.844C92.5112 283.088 92.3292 282.173 92.3292 281.1C92.3292 280.027 92.5112 279.112 92.8752 278.356C93.2392 277.6 93.7385 277.026 94.3732 276.634C95.0079 276.233 95.7265 276.032 96.5292 276.032C97.3412 276.032 98.0599 276.233 98.6852 276.634C99.3199 277.026 99.8192 277.6 100.183 278.356C100.547 279.112 100.729 280.027 100.729 281.1C100.729 282.173 100.547 283.088 100.183 283.844C99.8192 284.6 99.3199 285.179 98.6852 285.58C98.0599 285.972 97.3412 286.168 96.5292 286.168ZM96.5292 284.25C96.9119 284.25 97.2432 284.143 97.5232 283.928C97.8125 283.713 98.0365 283.373 98.1952 282.906C98.3632 282.439 98.4472 281.837 98.4472 281.1C98.4472 280.363 98.3632 279.761 98.1952 279.294C98.0365 278.827 97.8125 278.487 97.5232 278.272C97.2432 278.057 96.9119 277.95 96.5292 277.95C96.1559 277.95 95.8245 278.057 95.5352 278.272C95.2552 278.487 95.0312 278.827 94.8632 279.294C94.7045 279.761 94.6252 280.363 94.6252 281.1C94.6252 281.837 94.7045 282.439 94.8632 282.906C95.0312 283.373 95.2552 283.713 95.5352 283.928C95.8245 284.143 96.1559 284.25 96.5292 284.25ZM106.031 286.168C105.228 286.168 104.51 285.972 103.875 285.58C103.24 285.179 102.741 284.6 102.377 283.844C102.013 283.088 101.831 282.173 101.831 281.1C101.831 280.027 102.013 279.112 102.377 278.356C102.741 277.6 103.24 277.026 103.875 276.634C104.51 276.233 105.228 276.032 106.031 276.032C106.843 276.032 107.562 276.233 108.187 276.634C108.822 277.026 109.321 277.6 109.685 278.356C110.049 279.112 110.231 280.027 110.231 281.1C110.231 282.173 110.049 283.088 109.685 283.844C109.321 284.6 108.822 285.179 108.187 285.58C107.562 285.972 106.843 286.168 106.031 286.168ZM106.031 284.25C106.414 284.25 106.745 284.143 107.025 283.928C107.314 283.713 107.538 283.373 107.697 282.906C107.865 282.439 107.949 281.837 107.949 281.1C107.949 280.363 107.865 279.761 107.697 279.294C107.538 278.827 107.314 278.487 107.025 278.272C106.745 278.057 106.414 277.95 106.031 277.95C105.658 277.95 105.326 278.057 105.037 278.272C104.757 278.487 104.533 278.827 104.365 279.294C104.206 279.761 104.127 280.363 104.127 281.1C104.127 281.837 104.206 282.439 104.365 282.906C104.533 283.373 104.757 283.713 105.037 283.928C105.326 284.143 105.658 284.25 106.031 284.25ZM115.533 286.168C114.73 286.168 114.012 285.972 113.377 285.58C112.742 285.179 112.243 284.6 111.879 283.844C111.515 283.088 111.333 282.173 111.333 281.1C111.333 280.027 111.515 279.112 111.879 278.356C112.243 277.6 112.742 277.026 113.377 276.634C114.012 276.233 114.73 276.032 115.533 276.032C116.345 276.032 117.064 276.233 117.689 276.634C118.324 277.026 118.823 277.6 119.187 278.356C119.551 279.112 119.733 280.027 119.733 281.1C119.733 282.173 119.551 283.088 119.187 283.844C118.823 284.6 118.324 285.179 117.689 285.58C117.064 285.972 116.345 286.168 115.533 286.168ZM115.533 284.25C115.916 284.25 116.247 284.143 116.527 283.928C116.816 283.713 117.04 283.373 117.199 282.906C117.367 282.439 117.451 281.837 117.451 281.1C117.451 280.363 117.367 279.761 117.199 279.294C117.04 278.827 116.816 278.487 116.527 278.272C116.247 278.057 115.916 277.95 115.533 277.95C115.16 277.95 114.828 278.057 114.539 278.272C114.259 278.487 114.035 278.827 113.867 279.294C113.708 279.761 113.629 280.363 113.629 281.1C113.629 281.837 113.708 282.439 113.867 282.906C114.035 283.373 114.259 283.713 114.539 283.928C114.828 284.143 115.16 284.25 115.533 284.25ZM129.997 286V276.2H134.239C135.545 276.2 136.581 276.475 137.347 277.026C138.112 277.577 138.495 278.403 138.495 279.504C138.495 280.596 138.112 281.417 137.347 281.968C136.581 282.519 135.545 282.794 134.239 282.794H131.257L132.279 281.786V286H129.997ZM132.279 282.024L131.257 281.016H134.225C134.85 281.016 135.335 280.89 135.681 280.638C136.026 280.377 136.199 280.003 136.199 279.518C136.199 279.042 136.026 278.678 135.681 278.426C135.335 278.174 134.85 278.048 134.225 278.048H131.257L132.279 276.97V282.024ZM128.639 284.74V283.578H135.303V284.74H128.639Z" fill="white"/>
<path d="M150.935 285.16V277.74H147.099L147.029 279.476C147.001 280.129 146.959 280.75 146.903 281.338C146.856 281.917 146.777 282.444 146.665 282.92C146.562 283.396 146.417 283.793 146.231 284.11C146.044 284.427 145.815 284.637 145.545 284.74L143.585 284.46C143.939 284.479 144.229 284.357 144.453 284.096C144.686 283.835 144.868 283.471 144.999 283.004C145.129 282.537 145.227 281.991 145.293 281.366C145.358 280.731 145.405 280.045 145.433 279.308L145.545 276.2H152.727V285.16H150.935ZM143.249 288.086L143.263 284.46H154.141V288.086H152.461V286H144.943V288.086H143.249ZM159.008 286.098C158.177 286.098 157.449 285.935 156.824 285.608C156.208 285.272 155.727 284.815 155.382 284.236C155.046 283.657 154.878 282.999 154.878 282.262C154.878 281.515 155.041 280.857 155.368 280.288C155.704 279.709 156.161 279.257 156.74 278.93C157.328 278.603 157.995 278.44 158.742 278.44C159.47 278.44 160.118 278.599 160.688 278.916C161.257 279.233 161.705 279.681 162.032 280.26C162.358 280.839 162.522 281.52 162.522 282.304C162.522 282.379 162.517 282.463 162.508 282.556C162.508 282.649 162.503 282.738 162.494 282.822H156.264V281.66H161.57L160.884 282.024C160.893 281.595 160.804 281.217 160.618 280.89C160.431 280.563 160.174 280.307 159.848 280.12C159.53 279.933 159.162 279.84 158.742 279.84C158.312 279.84 157.934 279.933 157.608 280.12C157.29 280.307 157.038 280.568 156.852 280.904C156.674 281.231 156.586 281.618 156.586 282.066V282.346C156.586 282.794 156.688 283.191 156.894 283.536C157.099 283.881 157.388 284.147 157.762 284.334C158.135 284.521 158.564 284.614 159.05 284.614C159.47 284.614 159.848 284.549 160.184 284.418C160.52 284.287 160.818 284.082 161.08 283.802L162.018 284.88C161.682 285.272 161.257 285.575 160.744 285.79C160.24 285.995 159.661 286.098 159.008 286.098ZM164.436 286V278.524H171.604V286H169.868V279.602L170.274 280.008H165.78L166.186 279.602V286H164.436ZM177.297 286.098C176.532 286.098 175.85 285.935 175.253 285.608C174.656 285.272 174.184 284.815 173.839 284.236C173.494 283.657 173.321 282.999 173.321 282.262C173.321 281.515 173.494 280.857 173.839 280.288C174.184 279.709 174.656 279.257 175.253 278.93C175.85 278.603 176.532 278.44 177.297 278.44C178.072 278.44 178.758 278.603 179.355 278.93C179.962 279.257 180.433 279.705 180.769 280.274C181.114 280.843 181.287 281.506 181.287 282.262C181.287 282.999 181.114 283.657 180.769 284.236C180.433 284.815 179.962 285.272 179.355 285.608C178.758 285.935 178.072 286.098 177.297 286.098ZM177.297 284.6C177.726 284.6 178.109 284.507 178.445 284.32C178.781 284.133 179.042 283.863 179.229 283.508C179.425 283.153 179.523 282.738 179.523 282.262C179.523 281.777 179.425 281.361 179.229 281.016C179.042 280.661 178.781 280.391 178.445 280.204C178.109 280.017 177.731 279.924 177.311 279.924C176.882 279.924 176.499 280.017 176.163 280.204C175.836 280.391 175.575 280.661 175.379 281.016C175.183 281.361 175.085 281.777 175.085 282.262C175.085 282.738 175.183 283.153 175.379 283.508C175.575 283.863 175.836 284.133 176.163 284.32C176.499 284.507 176.877 284.6 177.297 284.6ZM185.272 286.126C185.963 286.126 186.574 286.028 187.106 285.832C187.648 285.636 188.072 285.365 188.38 285.02C188.688 284.665 188.842 284.259 188.842 283.802C188.842 283.233 188.604 282.785 188.128 282.458C187.652 282.122 186.999 281.954 186.168 281.954L186.112 282.332C186.598 282.332 187.027 282.253 187.4 282.094C187.783 281.935 188.082 281.716 188.296 281.436C188.52 281.147 188.632 280.825 188.632 280.47C188.632 280.041 188.478 279.667 188.17 279.35C187.862 279.033 187.442 278.79 186.91 278.622C186.378 278.454 185.772 278.384 185.09 278.412C184.642 278.421 184.19 278.487 183.732 278.608C183.284 278.72 182.822 278.883 182.346 279.098L182.794 280.386C183.205 280.209 183.606 280.073 183.998 279.98C184.4 279.887 184.787 279.84 185.16 279.84C185.515 279.84 185.818 279.877 186.07 279.952C186.322 280.017 186.514 280.12 186.644 280.26C186.784 280.391 186.854 280.545 186.854 280.722C186.854 280.899 186.798 281.053 186.686 281.184C186.574 281.315 186.411 281.413 186.196 281.478C185.991 281.543 185.739 281.576 185.44 281.576H184.138V282.752H185.58C186.056 282.752 186.42 282.831 186.672 282.99C186.934 283.139 187.064 283.363 187.064 283.662C187.064 283.867 186.985 284.049 186.826 284.208C186.677 284.367 186.462 284.488 186.182 284.572C185.902 284.647 185.566 284.684 185.174 284.684C184.717 284.684 184.26 284.628 183.802 284.516C183.345 284.404 182.934 284.245 182.57 284.04L182.08 285.342C182.528 285.594 183.028 285.79 183.578 285.93C184.138 286.061 184.703 286.126 185.272 286.126ZM190.645 286V278.524H192.395V283.452L196.525 278.524H198.121V286H196.371V281.072L192.255 286H190.645ZM202.029 286V279.588L202.435 280.008H199.397V278.524H206.397V280.008H203.373L203.779 279.588V286H202.029ZM212.202 286V284.488L212.104 284.166V281.52C212.104 281.007 211.95 280.61 211.642 280.33C211.334 280.041 210.868 279.896 210.242 279.896C209.822 279.896 209.407 279.961 208.996 280.092C208.595 280.223 208.254 280.405 207.974 280.638L207.288 279.364C207.69 279.056 208.166 278.827 208.716 278.678C209.276 278.519 209.855 278.44 210.452 278.44C211.535 278.44 212.37 278.701 212.958 279.224C213.556 279.737 213.854 280.535 213.854 281.618V286H212.202ZM209.85 286.098C209.29 286.098 208.8 286.005 208.38 285.818C207.96 285.622 207.634 285.356 207.4 285.02C207.176 284.675 207.064 284.287 207.064 283.858C207.064 283.438 207.162 283.06 207.358 282.724C207.564 282.388 207.895 282.122 208.352 281.926C208.81 281.73 209.416 281.632 210.172 281.632H212.342V282.794H210.298C209.701 282.794 209.3 282.892 209.094 283.088C208.889 283.275 208.786 283.508 208.786 283.788C208.786 284.105 208.912 284.357 209.164 284.544C209.416 284.731 209.766 284.824 210.214 284.824C210.644 284.824 211.026 284.726 211.362 284.53C211.708 284.334 211.955 284.045 212.104 283.662L212.398 284.712C212.23 285.151 211.927 285.491 211.488 285.734C211.059 285.977 210.513 286.098 209.85 286.098Z" fill="#7D7D7D"/>
<path d="M83.3412 267V258.04L84.3212 259.02H81.3812V257.2H85.6092V267H83.3412ZM90.6436 267.168C89.9623 267.168 89.2856 267.079 88.6136 266.902C87.951 266.715 87.3816 266.454 86.9056 266.118L87.8016 264.382C88.175 264.653 88.6043 264.867 89.0896 265.026C89.5843 265.185 90.0836 265.264 90.5876 265.264C91.157 265.264 91.605 265.152 91.9316 264.928C92.2583 264.704 92.4216 264.391 92.4216 263.99C92.4216 263.738 92.3563 263.514 92.2256 263.318C92.095 263.122 91.8616 262.973 91.5256 262.87C91.199 262.767 90.737 262.716 90.1396 262.716H87.6336L88.1376 257.2H94.1156V259.02H88.9496L90.1256 257.984L89.7756 261.918L88.5996 260.882H90.6716C91.6423 260.882 92.4216 261.017 93.0096 261.288C93.607 261.549 94.041 261.909 94.3116 262.366C94.5823 262.823 94.7176 263.341 94.7176 263.92C94.7176 264.499 94.573 265.035 94.2836 265.53C93.9943 266.015 93.5463 266.412 92.9396 266.72C92.3423 267.019 91.577 267.168 90.6436 267.168ZM97.0518 267L103.744 257.2H105.41L98.7178 267H97.0518ZM97.9058 262.492C97.4298 262.492 97.0098 262.385 96.6458 262.17C96.2818 261.946 95.9925 261.633 95.7778 261.232C95.5725 260.821 95.4698 260.341 95.4698 259.79C95.4698 259.239 95.5725 258.763 95.7778 258.362C95.9925 257.961 96.2818 257.648 96.6458 257.424C97.0098 257.2 97.4298 257.088 97.9058 257.088C98.3818 257.088 98.8018 257.2 99.1658 257.424C99.5298 257.648 99.8145 257.961 100.02 258.362C100.225 258.763 100.328 259.239 100.328 259.79C100.328 260.341 100.225 260.821 100.02 261.232C99.8145 261.633 99.5298 261.946 99.1658 262.17C98.8018 262.385 98.3818 262.492 97.9058 262.492ZM97.9058 261.344C98.2138 261.344 98.4611 261.218 98.6478 260.966C98.8345 260.705 98.9278 260.313 98.9278 259.79C98.9278 259.267 98.8345 258.88 98.6478 258.628C98.4611 258.367 98.2138 258.236 97.9058 258.236C97.6071 258.236 97.3598 258.367 97.1638 258.628C96.9771 258.88 96.8838 259.267 96.8838 259.79C96.8838 260.303 96.9771 260.691 97.1638 260.952C97.3598 261.213 97.6071 261.344 97.9058 261.344ZM104.556 267.112C104.089 267.112 103.669 267.005 103.296 266.79C102.932 266.566 102.647 266.253 102.442 265.852C102.236 265.441 102.134 264.961 102.134 264.41C102.134 263.859 102.236 263.383 102.442 262.982C102.647 262.581 102.932 262.268 103.296 262.044C103.669 261.82 104.089 261.708 104.556 261.708C105.041 261.708 105.466 261.82 105.83 262.044C106.194 262.268 106.478 262.581 106.684 262.982C106.889 263.383 106.992 263.859 106.992 264.41C106.992 264.961 106.889 265.441 106.684 265.852C106.478 266.253 106.194 266.566 105.83 266.79C105.466 267.005 105.041 267.112 104.556 267.112ZM104.556 265.964C104.864 265.964 105.111 265.838 105.298 265.586C105.484 265.325 105.578 264.933 105.578 264.41C105.578 263.897 105.484 263.509 105.298 263.248C105.111 262.987 104.864 262.856 104.556 262.856C104.257 262.856 104.01 262.987 103.814 263.248C103.627 263.5 103.534 263.887 103.534 264.41C103.534 264.933 103.627 265.325 103.814 265.586C104.01 265.838 104.257 265.964 104.556 265.964Z" fill="white"/>
<path d="M117.186 267.14C116.439 267.14 115.744 267.019 115.1 266.776C114.465 266.524 113.91 266.174 113.434 265.726C112.967 265.269 112.603 264.732 112.342 264.116C112.081 263.5 111.95 262.828 111.95 262.1C111.95 261.372 112.081 260.7 112.342 260.084C112.603 259.468 112.972 258.936 113.448 258.488C113.924 258.031 114.479 257.681 115.114 257.438C115.749 257.186 116.444 257.06 117.2 257.06C118.003 257.06 118.735 257.2 119.398 257.48C120.061 257.751 120.621 258.157 121.078 258.698L119.902 259.804C119.547 259.421 119.151 259.137 118.712 258.95C118.273 258.754 117.797 258.656 117.284 258.656C116.771 258.656 116.299 258.74 115.87 258.908C115.45 259.076 115.081 259.314 114.764 259.622C114.456 259.93 114.213 260.294 114.036 260.714C113.868 261.134 113.784 261.596 113.784 262.1C113.784 262.604 113.868 263.066 114.036 263.486C114.213 263.906 114.456 264.27 114.764 264.578C115.081 264.886 115.45 265.124 115.87 265.292C116.299 265.46 116.771 265.544 117.284 265.544C117.797 265.544 118.273 265.451 118.712 265.264C119.151 265.068 119.547 264.774 119.902 264.382L121.078 265.502C120.621 266.034 120.061 266.44 119.398 266.72C118.735 267 117.998 267.14 117.186 267.14ZM127.192 267V265.488L127.094 265.166V262.52C127.094 262.007 126.94 261.61 126.632 261.33C126.324 261.041 125.857 260.896 125.232 260.896C124.812 260.896 124.396 260.961 123.986 261.092C123.584 261.223 123.244 261.405 122.964 261.638L122.278 260.364C122.679 260.056 123.155 259.827 123.706 259.678C124.266 259.519 124.844 259.44 125.442 259.44C126.524 259.44 127.36 259.701 127.948 260.224C128.545 260.737 128.844 261.535 128.844 262.618V267H127.192ZM124.84 267.098C124.28 267.098 123.79 267.005 123.37 266.818C122.95 266.622 122.623 266.356 122.39 266.02C122.166 265.675 122.054 265.287 122.054 264.858C122.054 264.438 122.152 264.06 122.348 263.724C122.553 263.388 122.884 263.122 123.342 262.926C123.799 262.73 124.406 262.632 125.162 262.632H127.332V263.794H125.288C124.69 263.794 124.289 263.892 124.084 264.088C123.878 264.275 123.776 264.508 123.776 264.788C123.776 265.105 123.902 265.357 124.154 265.544C124.406 265.731 124.756 265.824 125.204 265.824C125.633 265.824 126.016 265.726 126.352 265.53C126.697 265.334 126.944 265.045 127.094 264.662L127.388 265.712C127.22 266.151 126.916 266.491 126.478 266.734C126.048 266.977 125.502 267.098 124.84 267.098ZM133.399 267.098C132.774 267.098 132.172 267.019 131.593 266.86C131.024 266.692 130.571 266.491 130.235 266.258L130.907 264.928C131.243 265.143 131.645 265.32 132.111 265.46C132.578 265.6 133.045 265.67 133.511 265.67C134.062 265.67 134.459 265.595 134.701 265.446C134.953 265.297 135.079 265.096 135.079 264.844C135.079 264.639 134.995 264.485 134.827 264.382C134.659 264.27 134.44 264.186 134.169 264.13C133.899 264.074 133.595 264.023 133.259 263.976C132.933 263.929 132.601 263.869 132.265 263.794C131.939 263.71 131.64 263.593 131.369 263.444C131.099 263.285 130.879 263.075 130.711 262.814C130.543 262.553 130.459 262.207 130.459 261.778C130.459 261.302 130.595 260.891 130.865 260.546C131.136 260.191 131.514 259.921 131.999 259.734C132.494 259.538 133.077 259.44 133.749 259.44C134.253 259.44 134.762 259.496 135.275 259.608C135.789 259.72 136.213 259.879 136.549 260.084L135.877 261.414C135.523 261.199 135.163 261.055 134.799 260.98C134.445 260.896 134.09 260.854 133.735 260.854C133.203 260.854 132.807 260.933 132.545 261.092C132.293 261.251 132.167 261.451 132.167 261.694C132.167 261.918 132.251 262.086 132.419 262.198C132.587 262.31 132.807 262.399 133.077 262.464C133.348 262.529 133.647 262.585 133.973 262.632C134.309 262.669 134.641 262.73 134.967 262.814C135.294 262.898 135.593 263.015 135.863 263.164C136.143 263.304 136.367 263.505 136.535 263.766C136.703 264.027 136.787 264.368 136.787 264.788C136.787 265.255 136.647 265.661 136.367 266.006C136.097 266.351 135.709 266.622 135.205 266.818C134.701 267.005 134.099 267.098 133.399 267.098ZM142.536 259.44C143.134 259.44 143.666 259.557 144.132 259.79C144.608 260.023 144.982 260.383 145.252 260.868C145.523 261.344 145.658 261.96 145.658 262.716V267H143.908V262.94C143.908 262.277 143.75 261.783 143.432 261.456C143.124 261.129 142.69 260.966 142.13 260.966C141.72 260.966 141.356 261.05 141.038 261.218C140.721 261.386 140.474 261.638 140.296 261.974C140.128 262.301 140.044 262.716 140.044 263.22V267H138.294V256.612H140.044V261.54L139.666 260.924C139.928 260.448 140.306 260.084 140.8 259.832C141.304 259.571 141.883 259.44 142.536 259.44ZM152.022 267.098C151.388 267.098 150.823 266.958 150.328 266.678C149.834 266.398 149.442 265.978 149.152 265.418C148.872 264.849 148.732 264.13 148.732 263.262C148.732 262.385 148.877 261.666 149.166 261.106C149.465 260.546 149.862 260.131 150.356 259.86C150.86 259.58 151.416 259.44 152.022 259.44C152.76 259.44 153.408 259.599 153.968 259.916C154.538 260.233 154.986 260.677 155.312 261.246C155.648 261.815 155.816 262.487 155.816 263.262C155.816 264.037 155.648 264.709 155.312 265.278C154.986 265.847 154.538 266.295 153.968 266.622C153.408 266.939 152.76 267.098 152.022 267.098ZM147.878 267V256.612H149.628V261.26L149.488 263.248L149.544 265.236V267H147.878ZM151.826 265.6C152.246 265.6 152.62 265.507 152.946 265.32C153.282 265.133 153.548 264.863 153.744 264.508C153.94 264.153 154.038 263.738 154.038 263.262C154.038 262.777 153.94 262.361 153.744 262.016C153.548 261.661 153.282 261.391 152.946 261.204C152.62 261.017 152.246 260.924 151.826 260.924C151.406 260.924 151.028 261.017 150.692 261.204C150.356 261.391 150.09 261.661 149.894 262.016C149.698 262.361 149.6 262.777 149.6 263.262C149.6 263.738 149.698 264.153 149.894 264.508C150.09 264.863 150.356 265.133 150.692 265.32C151.028 265.507 151.406 265.6 151.826 265.6ZM161.986 267V265.488L161.888 265.166V262.52C161.888 262.007 161.734 261.61 161.426 261.33C161.118 261.041 160.652 260.896 160.026 260.896C159.606 260.896 159.191 260.961 158.78 261.092C158.379 261.223 158.038 261.405 157.758 261.638L157.072 260.364C157.474 260.056 157.95 259.827 158.5 259.678C159.06 259.519 159.639 259.44 160.236 259.44C161.319 259.44 162.154 259.701 162.742 260.224C163.34 260.737 163.638 261.535 163.638 262.618V267H161.986ZM159.634 267.098C159.074 267.098 158.584 267.005 158.164 266.818C157.744 266.622 157.418 266.356 157.184 266.02C156.96 265.675 156.848 265.287 156.848 264.858C156.848 264.438 156.946 264.06 157.142 263.724C157.348 263.388 157.679 263.122 158.136 262.926C158.594 262.73 159.2 262.632 159.956 262.632H162.126V263.794H160.082C159.485 263.794 159.084 263.892 158.878 264.088C158.673 264.275 158.57 264.508 158.57 264.788C158.57 265.105 158.696 265.357 158.948 265.544C159.2 265.731 159.55 265.824 159.998 265.824C160.428 265.824 160.81 265.726 161.146 265.53C161.492 265.334 161.739 265.045 161.888 264.662L162.182 265.712C162.014 266.151 161.711 266.491 161.272 266.734C160.843 266.977 160.297 267.098 159.634 267.098ZM169.328 267.098C168.544 267.098 167.844 266.935 167.228 266.608C166.621 266.272 166.145 265.815 165.8 265.236C165.455 264.657 165.282 263.999 165.282 263.262C165.282 262.515 165.455 261.857 165.8 261.288C166.145 260.709 166.621 260.257 167.228 259.93C167.844 259.603 168.544 259.44 169.328 259.44C170.056 259.44 170.695 259.589 171.246 259.888C171.806 260.177 172.231 260.607 172.52 261.176L171.176 261.96C170.952 261.605 170.677 261.344 170.35 261.176C170.033 261.008 169.687 260.924 169.314 260.924C168.885 260.924 168.497 261.017 168.152 261.204C167.807 261.391 167.536 261.661 167.34 262.016C167.144 262.361 167.046 262.777 167.046 263.262C167.046 263.747 167.144 264.167 167.34 264.522C167.536 264.867 167.807 265.133 168.152 265.32C168.497 265.507 168.885 265.6 169.314 265.6C169.687 265.6 170.033 265.516 170.35 265.348C170.677 265.18 170.952 264.919 171.176 264.564L172.52 265.348C172.231 265.908 171.806 266.342 171.246 266.65C170.695 266.949 170.056 267.098 169.328 267.098ZM175.392 265.334L175.434 263.136L179.34 259.524H181.44L178.122 262.856L177.198 263.626L175.392 265.334ZM173.964 267V256.612H175.714V267H173.964ZM179.606 267L176.876 263.626L177.982 262.226L181.734 267H179.606Z" fill="#7D7D7D"/>
<path fill-rule="evenodd" clip-rule="evenodd" d="M219.926 19.509V22.7297H221.865C222.936 22.7297 223.804 23.5949 223.804 24.6622V32.3919C223.804 33.4592 222.936 34.3244 221.865 34.3244H208.939C207.868 34.3244 207 33.4592 207 32.3919V24.6622C207 23.5949 207.868 22.7297 208.939 22.7297H210.878V19.509C210.878 17.0188 212.903 15 215.402 15C217.9 15 219.926 17.0188 219.926 19.509ZM212.17 19.509C212.17 17.7303 213.617 16.2883 215.402 16.2883C217.187 16.2883 218.633 17.7303 218.633 19.509V22.7297H212.17V19.509Z" fill="white"/>
<circle cx="215.403" cy="27.6023" r="1.68038" fill="black"/>
<rect x="214.562" y="27.6025" width="1.68038" height="4.20095" fill="black"/>
<path d="M142.52 139.465L208 139.025L201.889 150.582L145.885 152.215L142.52 139.465Z" fill="url(#paint14_linear_6924_92136)"/>
<g style="mix-blend-mode:multiply" opacity="0.5">
<path d="M145.406 148.596L203.677 147.189L201.887 150.581L145.884 152.214L145.406 148.596Z" fill="#DE5634"/>
</g>
<g style="mix-blend-mode:soft-light" opacity="0.4">
<path d="M179.65 140.045C179.161 140.61 181.429 146.64 182.36 146.451C183.291 146.263 202.209 146.627 203.057 146.012C203.904 145.396 207.067 140.334 206.375 139.731C205.683 139.128 180.116 139.505 179.65 140.045Z" fill="#FFDF66"/>
</g>
<g style="mix-blend-mode:multiply" opacity="0.5">
<path d="M178.327 139.177C178.327 139.177 180.798 146.211 180.882 147.743C180.834 148.962 180.52 150.153 179.963 151.223L145.897 152.215L142.52 139.466L178.327 139.177Z" fill="#DE5634"/>
</g>
<path d="M118.481 139.465L53 139.025L59.1112 150.582L115.115 152.215L118.481 139.465Z" fill="url(#paint15_linear_6924_92136)"/>
<g style="mix-blend-mode:multiply" opacity="0.5">
<path d="M115.603 148.596L57.3203 147.189L59.1107 150.581L115.114 152.214L115.603 148.596Z" fill="#DE5634"/>
</g>
<g style="mix-blend-mode:soft-light" opacity="0.4">
<path d="M80.8927 139.793C82.516 141.413 79.6036 146.953 78.6726 146.764C77.7416 146.576 58.7873 146.626 57.9399 146.011C57.0924 145.395 53.9294 140.333 54.6217 139.73C55.314 139.127 79.9497 138.864 80.8927 139.793Z" fill="#FFDF66"/>
</g>
<g style="mix-blend-mode:multiply" opacity="0.5">
<path d="M82.6832 139.177C82.6832 139.177 80.2125 146.186 80.1289 147.743C80.1782 148.958 80.4926 150.144 81.048 151.21L115.065 152.215L118.431 139.466L82.6832 139.177Z" fill="#DE5634"/>
</g>
<path d="M125.426 202.547V243.999C113.49 237.392 95.5859 218.111 95.5859 218.111V189.446L125.426 202.547Z" fill="url(#paint16_linear_6924_92136)"/>
<g style="mix-blend-mode:multiply" opacity="0.6">
<path d="M125.426 235.62V243.96C113.49 237.353 95.5859 218.072 95.5859 218.072V210.925C99.7516 216.527 108.524 225.898 125.426 235.62Z" fill="#8E37E2"/>
</g>
<path d="M135.574 202.547V243.999C147.51 237.392 165.414 218.111 165.414 218.111V189.446L135.574 202.547Z" fill="url(#paint17_linear_6924_92136)"/>
<g style="mix-blend-mode:multiply" opacity="0.6">
<path d="M135.574 235.62V243.96C147.51 237.353 165.414 218.072 165.414 218.072V210.925C161.248 216.527 152.475 225.898 135.574 235.62Z" fill="#8E37E2"/>
</g>
<path style="mix-blend-mode:multiply" d="M98.3553 220.989C98.3553 220.989 98.0808 201.984 100.898 202.311C103.715 202.637 108.572 205.652 109.635 209.106C110.697 212.561 110.387 232.57 110.387 232.57L111.461 233.5C111.461 233.5 110.136 209.194 112.332 210.388C113.957 211.219 115.366 212.454 116.437 213.986C117.508 215.517 118.209 217.3 118.479 219.18C119.542 224.657 119.84 240.396 119.84 240.396L125.414 243.913V202.462L95.5742 189.36V217.987L98.3553 220.989Z" fill="url(#paint18_linear_6924_92136)"/>
<path style="mix-blend-mode:multiply" d="M162.597 220.987C162.597 220.987 162.824 198.717 160.007 199.043C157.19 199.37 157.071 210.65 157.071 214.116C157.071 217.583 156.617 226.966 156.617 226.966L155.03 228.486C155.03 228.486 155.257 203.151 153.06 204.344C150.864 205.537 141.232 213.375 140.205 218.802C139.179 224.228 139.573 241.412 139.573 241.412L135.574 243.924V202.472L165.414 189.371V217.998L162.597 220.987Z" fill="url(#paint19_linear_6924_92136)"/>
<path style="mix-blend-mode:multiply" opacity="0.37" d="M114.266 110.349C111.807 112.472 87.2909 126.578 86.9567 127.495C86.527 128.663 89.7855 134.165 91.3371 133.7C92.8888 133.235 122.048 115.838 122.108 115.022C122.168 114.205 122.239 109.671 121.535 109.382C120.831 109.093 115.197 109.533 114.266 110.349Z" fill="url(#paint20_linear_6924_92136)"/>
<g style="mix-blend-mode:soft-light" opacity="0.4">
<path d="M111.019 108.918C109.408 109.031 89.4029 122.546 89.4029 122.936C89.4029 123.325 85.8221 125.611 86.7293 125.549C87.6364 125.486 112.881 110.475 112.917 109.96C112.953 109.445 111.878 108.855 111.019 108.918Z" fill="#FFDF66"/>
</g>
<g style="mix-blend-mode:soft-light" opacity="0.4">
<path d="M85.9062 127.494C85.9062 127.494 99.2267 120.423 106.03 115.901C112.834 111.379 114.266 110.349 114.266 110.349L85.9062 127.494Z" fill="#FFDF66"/>
</g>
<path style="mix-blend-mode:multiply" opacity="0.37" d="M146.745 110.349C149.133 112.472 173.709 126.578 174.043 127.495C174.473 128.663 171.214 134.165 169.674 133.7C168.135 133.235 138.939 115.838 138.939 115.022C138.939 114.205 138.808 109.671 139.512 109.382C140.217 109.093 145.803 109.533 146.745 110.349Z" fill="url(#paint21_linear_6924_92136)"/>
<g style="mix-blend-mode:soft-light" opacity="0.4">
<path d="M149.981 108.918C151.592 109.031 171.609 122.546 171.609 122.936C171.609 123.325 175.13 125.611 174.27 125.549C173.411 125.486 148.119 110.475 148.083 109.96C148.047 109.445 149.121 108.855 149.981 108.918Z" fill="#FFDF66"/>
</g>
<g style="mix-blend-mode:soft-light" opacity="0.4">
<path d="M175.106 127.494C175.106 127.494 161.785 120.423 154.97 115.901C148.155 111.379 146.746 110.349 146.746 110.349L175.106 127.494Z" fill="#FFDF66"/>
</g>
<path d="M87.5297 182.175C87.4222 182.589 71.2013 176.648 71.2013 176.648C67.0777 170.138 63.6549 163.166 60.9961 155.859H88.6994L87.5297 182.175Z" fill="url(#paint22_linear_6924_92136)"/>
<path d="M66.2852 155.859C66.2852 155.859 72.7544 169.915 73.9361 171.435L87.9489 171.837V170.832C87.9489 170.832 75.1297 170.945 74.3897 170.367C73.6496 169.79 67.1087 155.859 67.1087 155.859H66.2852Z" fill="#B33114"/>
<path d="M66.2852 155.859L73.9361 171.435C72.2793 168.941 70.7724 166.34 69.4243 163.647C67.7175 160.005 66.2852 155.859 66.2852 155.859Z" fill="white"/>
<g style="mix-blend-mode:soft-light" opacity="0.4">
<path d="M68.2667 156.813C69.3409 160.18 73.6021 167.804 74.4853 167.804C75.3686 167.804 85.6454 167.616 86.5884 166.058C87.5313 164.501 88.3549 156.964 87.5313 156.813C86.7077 156.663 67.7893 155.319 68.2667 156.813Z" fill="#FFDF66"/>
</g>
<g style="mix-blend-mode:soft-light" opacity="0.4">
<path d="M61.9176 156.449C63.2305 159.74 66.9068 168.119 67.5872 168.219C68.2675 168.32 70.5592 168.621 70.595 167.616C70.595 166.008 66.3578 156.663 65.4029 156.449C64.448 156.236 61.5834 155.633 61.9176 156.449Z" fill="#FFDF66"/>
</g>
<path style="mix-blend-mode:multiply" opacity="0.37" d="M68.2528 169.311C68.1335 170.353 71.8336 175.717 72.4304 176.144C73.0272 176.571 85.4883 180.804 86.3119 180.201C87.1355 179.598 87.5055 168.544 86.8729 168.218C86.2403 167.891 68.3961 168.167 68.2528 169.311Z" fill="url(#paint23_linear_6924_92136)"/>
<g style="mix-blend-mode:multiply" opacity="0.5">
<path d="M79.3906 155.86C80.7292 163.894 81.3169 172.048 81.1452 180.203L87.5309 182.175L88.7245 155.797L79.3906 155.86Z" fill="#DE5634"/>
</g>
<path d="M173.469 182.175C173.577 182.589 189.798 176.648 189.798 176.648C193.921 170.138 197.344 163.166 200.003 155.859H172.359L173.469 182.175Z" fill="url(#paint24_linear_6924_92136)"/>
<path d="M194.714 155.859C194.714 155.859 188.245 169.915 187.063 171.435L173.062 171.837V170.832C173.062 170.832 185.882 170.945 186.61 170.367C187.338 169.79 193.843 155.859 193.843 155.859H194.714Z" fill="#B33114"/>
<path d="M194.713 155.859L187.062 171.435C188.724 168.944 190.231 166.343 191.574 163.647C193.281 160.005 194.713 155.859 194.713 155.859Z" fill="white"/>
<g style="mix-blend-mode:soft-light" opacity="0.4">
<path d="M192.736 156.813C191.661 160.18 187.412 167.804 186.517 167.804C185.622 167.804 175.357 167.616 174.414 166.058C173.471 164.501 172.647 156.964 173.471 156.813C174.295 156.663 193.213 155.319 192.736 156.813Z" fill="#FFDF66"/>
</g>
<g style="mix-blend-mode:soft-light" opacity="0.4">
<path d="M199.096 156.449C197.771 159.74 194.106 168.119 193.414 168.219C192.722 168.32 190.442 168.621 190.406 167.616C190.406 166.008 194.644 156.663 195.61 156.449C196.577 156.236 199.418 155.633 199.096 156.449Z" fill="#FFDF66"/>
</g>
<path style="mix-blend-mode:multiply" opacity="0.37" d="M192.744 169.311C192.864 170.353 189.164 175.717 188.567 176.144C187.97 176.571 175.509 180.804 174.745 180.201C173.981 179.598 173.551 168.544 174.172 168.218C174.793 167.891 192.649 168.167 192.744 169.311Z" fill="url(#paint25_linear_6924_92136)"/>
<g style="mix-blend-mode:multiply" opacity="0.5">
<path d="M181.611 155.86C180.273 163.894 179.685 172.048 179.857 180.203L173.471 182.175L172.277 155.797L181.611 155.86Z" fill="#DE5634"/>
</g>
<path d="M130.681 95L85.3359 122.546V188.291L130.681 215.837L176.025 188.291V122.546L130.681 95Z" fill="url(#paint26_linear_6924_92136)"/>
<path d="M93.5352 183.305V127.534L130.68 104.962L167.824 127.534V183.305L130.68 205.877L93.5352 183.305Z" fill="url(#paint27_linear_6924_92136)"/>
<path d="M96.2695 181.646V129.191L130.681 108.289L165.092 129.191V181.646L130.681 202.547L96.2695 181.646Z" fill="url(#paint28_linear_6924_92136)"/>
<g style="mix-blend-mode:soft-light" opacity="0.4">
<path d="M86.4199 122.722C85.8589 124.493 90.681 126.666 94.0708 125.887C97.4606 125.109 129.389 105.413 130.201 103.642C130.434 101.186 130.434 98.7117 130.201 96.2559C129.079 96.2559 86.7421 121.868 86.4199 122.722Z" fill="#FFDF66"/>
</g>
<g style="mix-blend-mode:soft-light" opacity="0.4">
<path d="M174.677 122.722C175.238 124.493 170.415 126.666 167.026 125.887C163.636 125.109 132.018 105.224 130.943 103.642C130.382 102.825 130.203 96.2559 130.943 96.2559C132.065 96.2559 174.402 121.868 174.677 122.722Z" fill="#FFDF66"/>
</g>
<path style="mix-blend-mode:multiply" opacity="0.37" d="M86.4187 160.116C86.1084 162.076 85.3684 186.959 86.4187 187.148C87.4691 187.336 92.3867 183.794 92.6612 182.123C92.9357 180.453 93.0193 163.432 92.6612 161.799C92.3031 160.166 86.932 156.838 86.4187 160.116Z" fill="url(#paint29_linear_6924_92136)"/>
<path style="mix-blend-mode:multiply" opacity="0.37" d="M174.746 160.116C175.057 162.076 175.797 186.959 174.746 187.148C173.696 187.336 168.778 183.794 168.504 182.123C168.229 180.453 168.146 163.432 168.504 161.799C168.862 160.166 174.257 156.838 174.746 160.116Z" fill="url(#paint30_linear_6924_92136)"/>
<path style="mix-blend-mode:multiply" opacity="0.37" d="M87.6125 187.826C88.1616 188.68 129.006 214.091 129.615 214.091C129.925 214.091 130.343 207.811 130.343 207.07C130.343 205.11 94.2251 184.924 93.5924 184.736C92.6018 184.46 87.0038 186.972 87.6125 187.826Z" fill="url(#paint31_linear_6924_92136)"/>
<path style="mix-blend-mode:multiply" opacity="0.37" d="M173.874 188.491C173.325 189.346 131.717 214.669 131.108 214.669C130.945 211.952 130.989 209.226 131.239 206.517C132.564 205.135 167.047 184.924 167.632 184.736C168.563 184.459 174.423 187.637 173.874 188.491Z" fill="url(#paint32_linear_6924_92136)"/>
<g style="mix-blend-mode:multiply" opacity="0.37">
<path d="M97.8425 180.252C95.4553 165.719 96.7682 164.802 113.896 158.66C131.024 152.517 160.005 136.69 162.547 143.586C165.089 150.483 164.218 179.7 163.645 181.27C163.072 182.84 133.149 200.953 130.678 200.991C128.207 201.028 98.117 181.885 97.8425 180.252Z" fill="#ED8A1D"/>
</g>
<g style="mix-blend-mode:soft-light" opacity="0.4">
<path d="M164.352 129.554C163.743 129.404 132.65 110.487 130.931 110.625C129.213 110.763 107.597 121.427 98.7043 129.466C96.3172 131.627 97.2004 163.708 99.3847 163.117C101.569 162.527 103.133 149.577 127.243 142.291C150.936 135.106 161.249 141.324 163.815 142.429C164.543 142.743 165.725 129.856 164.352 129.554Z" fill="#FFDF66"/>
</g>
<g style="mix-blend-mode:multiply" opacity="0.5">
<path d="M93.582 183.304V127.533L130.727 104.923L167.871 127.533V183.304L165.138 181.646C165.138 181.646 165.305 133.16 164.314 131.64C160.734 126.214 133.281 113.025 128.793 114.494C124.305 115.964 99.6932 126.942 96.9599 131.552C96.0408 133.097 96.2676 181.646 96.2676 181.646L93.582 183.304Z" fill="#DE5634"/>
</g>
<g style="mix-blend-mode:soft-light" opacity="0.4">
<path d="M137.627 135.145C146.878 139.592 160.819 139.667 162.096 138.813C163.373 137.959 164.221 131.716 162.215 130.673C160.21 129.631 144.311 120.712 140.134 121.667C135.956 122.622 135.98 134.366 137.627 135.145Z" fill="#FFDF66"/>
</g>
<path opacity="0.8" d="M85.3362 142.581C85.3362 142.431 85.73 124.041 86.4701 122.722C87.2101 121.403 129.702 96.6078 130.943 96.2561C132.185 95.9044 148.095 105.576 148.095 105.576L130.681 95L85.3242 122.546L85.3362 142.581Z" fill="#700000"/>
<path d="M146.91 114.783C146.91 114.783 166.831 126.754 167.106 128.098C167.38 129.442 167.822 165.48 167.822 165.48C167.822 165.48 168.013 129.053 167.822 127.533C167.631 126.013 146.91 114.783 146.91 114.783Z" fill="white"/>
<path d="M93.5819 158.095C93.5819 158.095 92.9135 127.949 93.2596 126.969C93.6058 125.989 130.679 104.962 130.679 104.962C130.679 104.962 94.7755 126.542 94.0832 127.911C93.3909 129.28 93.5819 158.095 93.5819 158.095Z" fill="white"/>
<path opacity="0.8" d="M85.3359 188.29L130.692 215.837L176.049 188.29V173.318C176.049 173.318 175.643 186.381 174.748 188.014C173.853 189.647 133.199 214.505 131.134 214.669C129.069 214.832 87.5083 188.893 86.4221 187.147C85.3359 185.401 85.3359 154.79 85.3359 154.79V188.29Z" fill="#700000"/>
<g style="mix-blend-mode:soft-light" opacity="0.4">
<path d="M93.5806 169.033C93.5806 169.033 93.4493 181.896 94.1296 182.963C94.81 184.031 112.427 194.758 112.427 194.758C112.427 194.758 93.3299 184.37 93.1628 183.692C92.9957 183.014 93.5806 169.033 93.5806 169.033Z" fill="#FFDF66"/>
</g>
<g style="mix-blend-mode:soft-light" opacity="0.4">
<path d="M108.871 195.011C107.534 195.011 103.787 196.606 104.598 197.523C105.41 198.44 127.73 212.596 130.284 213.601C131.108 213.928 131.036 208.338 129.914 206.529C129.389 205.763 113.025 194.998 108.871 195.011Z" fill="#FFDF66"/>
</g>
<path d="M150.612 108.504C149.872 108.705 152.343 111.971 153.513 112.272C154.683 112.574 156.294 111.682 155.733 111.079C155.172 110.476 151.758 108.115 150.612 108.504Z" fill="white"/>
<path d="M156.08 111.669C154.958 111.983 157.023 117.146 157.906 118.063C158.789 118.98 166.631 120.575 166.452 119.105C166.273 117.636 157.655 111.229 156.08 111.669Z" fill="white"/>
<g style="mix-blend-mode:multiply" opacity="0.5">
<path d="M151.59 195.175C150.611 199.659 150.766 202.31 151.315 202.335C151.865 202.36 171.69 189.774 172.239 189.246C172.788 188.719 169.052 185.126 167.584 185.315C166.116 185.503 151.96 193.467 151.59 195.175Z" fill="#DE5634"/>
</g>
<g style="mix-blend-mode:multiply" opacity="0.5">
<path d="M95.9685 128.815C95.4911 127.308 94.023 127.308 93.8917 129.003C93.7604 130.699 93.5217 161.939 94.1065 161.976C94.6914 162.014 95.9208 160.494 95.9685 159.778C96.0163 159.062 96.1714 129.531 95.9685 128.815Z" fill="#DE5634"/>
</g>
<g style="mix-blend-mode:multiply" opacity="0.5">
<path d="M165.411 129.004C165.339 129.607 165.053 159.15 165.411 159.15C165.769 159.15 167.416 157.769 167.416 157.04C167.416 156.312 167.01 128.439 166.831 128.288C166.652 128.137 165.482 128.526 165.411 129.004Z" fill="#DE5634"/>
</g>
<g style="mix-blend-mode:multiply" opacity="0.5">
<path d="M130.681 107.8C130.681 108.377 114.698 117.974 114.328 117.974C113.958 117.974 114.09 115.387 114.603 115.035C115.116 114.683 130.585 104.885 130.681 105.212C130.74 106.073 130.74 106.938 130.681 107.8Z" fill="#DE5634"/>
</g>
<path d="M163.657 185.54C162.643 185.54 159.193 187.613 159.456 188.643C159.718 189.673 161.843 190.791 162.392 190.188C162.941 189.585 164.325 185.565 163.657 185.54Z" fill="#B33114"/>
<path d="M164.971 186.268C164.625 186.607 163.861 187.813 164.589 188.403C165.317 188.994 167.454 187.436 167.143 186.984C166.833 186.532 165.425 185.828 164.971 186.268Z" fill="#B33114"/>
<g style="mix-blend-mode:multiply" opacity="0.5">
<path d="M159.956 187.638C159.109 188.895 162.594 189.648 163.048 188.631C163.501 187.613 164.241 185.465 163.657 185.566C162.313 186.012 161.059 186.715 159.956 187.638Z" fill="#DE5634"/>
</g>
<path d="M159.468 188.341C159.706 189.047 160.176 189.639 160.793 190.011C161.605 190.514 162.297 190.401 162.5 190.011C162.299 190.263 162.023 190.434 161.717 190.498C161.411 190.562 161.094 190.514 160.817 190.363C159.158 189.572 159.468 188.341 159.468 188.341Z" fill="#DAE1EF"/>
<g style="mix-blend-mode:multiply" opacity="0.5">
<path d="M165.365 186.294C164.578 187.198 165.186 188.479 165.628 188.404C166.07 188.329 167.394 187.424 167.144 186.985C166.893 186.545 165.532 186.105 165.365 186.294Z" fill="#DE5634"/>
</g>
<path d="M164.971 186.27C164.971 186.27 164.255 187.312 164.542 187.915C164.828 188.518 165.246 188.518 165.246 188.518C165.246 188.518 164.303 189.096 164.136 188.417C163.838 187.262 164.971 186.27 164.971 186.27Z" fill="#DAE1EF"/>
<path d="M126.013 107.474C123.566 106.795 121.596 108.466 120.522 109.747C119.448 111.029 120.045 111.782 121.393 111.531C122.742 111.28 127.003 107.763 126.013 107.474Z" fill="#B33114"/>
<g style="mix-blend-mode:multiply" opacity="0.5">
<path d="M126.014 107.472C125.242 107.31 124.446 107.332 123.684 107.537C122.922 107.741 122.213 108.122 121.609 108.653C120.953 109.256 122.242 111.002 123.137 110.625C124.032 110.248 126.766 107.749 126.014 107.472Z" fill="#DE5634"/>
</g>
<path d="M121.143 109.081C121.143 109.081 118.374 111.015 118.648 111.92C118.923 112.824 122.229 111.154 122.229 111.154C122.229 111.154 120.522 111.731 120.128 110.94C119.734 110.149 121.143 109.081 121.143 109.081Z" fill="white"/>
<g style="mix-blend-mode:soft-light" opacity="0.4">
<path d="M95.1094 183.694C93.8203 184.033 97.6637 186.809 98.5828 186.96C99.5018 187.111 98.5828 184.661 98.1531 184.234C97.2011 183.776 96.1514 183.59 95.1094 183.694Z" fill="#FFDF66"/>
</g>
<path d="M130.642 186.382L83.8288 157.643C82.745 160.332 82.0103 163.163 81.6445 166.058L84.7001 171.485L130.689 199.596L176.678 171.485L179.448 166.058C179.363 163.172 178.798 160.323 177.777 157.643L130.642 186.382Z" fill="url(#paint33_linear_6924_92136)"/>
<path d="M84.6533 171.486L81.5977 166.06L130.642 196.294L179.401 166.06L176.632 171.486L130.642 199.598L84.6533 171.486Z" fill="url(#paint34_linear_6924_92136)"/>
<g style="mix-blend-mode:multiply" opacity="0.5">
<path d="M81.6445 166.06L84.7001 171.486L85.3924 171.938V173.559C85.3924 173.559 88.0183 174.965 93.1746 177.967C93.3417 178.068 96.4093 181.472 96.4093 181.472C96.4093 181.472 129.543 202.549 130.737 202.549C132.289 202.549 165.148 181.007 165.148 181.007C165.148 181.007 167.715 178.746 167.965 178.583L176.082 174.111V171.863L176.69 171.486L179.459 166.06L130.642 196.294L81.6445 166.06Z" fill="#DE5634"/>
</g>
<path style="mix-blend-mode:multiply" opacity="0.69" d="M130.645 186.382V196.306L179.403 166.058C179.275 163.177 178.711 160.336 177.732 157.643L130.645 186.382Z" fill="url(#paint35_linear_6924_92136)"/>
<g style="mix-blend-mode:soft-light" opacity="0.4">
<path d="M86.2399 159.815C85.3447 159.815 86.0847 168.169 88.7942 170.078C93.115 173.13 119.171 189.284 120.878 189.309C122.072 189.309 122 182.237 121.642 181.684C121.033 180.642 87.6125 159.815 86.2399 159.815Z" fill="#FFDF66"/>
</g>
<g style="mix-blend-mode:soft-light" opacity="0.4">
<path d="M145.122 177.802C144.561 178.418 144.633 186.206 145.6 185.98C153.468 181.96 161.048 177.342 168.278 172.162C175.213 166.786 176.192 159.714 174.64 159.878C174.604 159.828 146.28 176.534 145.122 177.802Z" fill="#FFDF66"/>
</g>
<path d="M106.797 181.584C106.797 181.584 129.213 195.74 130.669 195.74C132.125 195.74 149.993 184.31 149.993 184.31C149.993 184.31 131.218 196.871 130.705 196.871C130.191 196.871 106.797 181.584 106.797 181.584Z" fill="white"/>
<path d="M130.642 170.278L83.8288 141.551C82.746 144.236 82.0113 147.062 81.6445 149.954L84.7001 155.38L130.642 183.505L176.631 155.393L179.4 149.954C179.315 147.067 178.75 144.219 177.729 141.538L130.642 170.278Z" fill="url(#paint36_linear_6924_92136)"/>
<path d="M84.6533 155.392L81.5977 149.966L130.642 180.2L179.401 149.966L176.632 155.392L130.642 183.504L84.6533 155.392Z" fill="url(#paint37_linear_6924_92136)"/>
<g style="mix-blend-mode:multiply" opacity="0.5">
<path d="M81.6445 149.953L84.7001 155.38L85.3924 155.832V157.49C85.3924 157.49 88.0183 158.897 93.1746 161.899C93.3417 161.999 96.4093 165.403 96.4093 165.403C96.4093 165.403 129.484 186.456 130.677 186.456C132.229 186.456 165.089 164.913 165.089 164.913C165.089 164.913 167.655 162.652 167.906 162.489L176.022 158.017V155.769L176.631 155.392L179.4 149.953L130.642 180.2L81.6445 149.953Z" fill="#DE5634"/>
</g>
<path style="mix-blend-mode:multiply" opacity="0.69" d="M130.645 170.278V180.201L179.403 149.954C179.275 147.073 178.711 144.232 177.732 141.538L130.645 170.278Z" fill="url(#paint38_linear_6924_92136)"/>
<g style="mix-blend-mode:soft-light" opacity="0.4">
<path d="M86.2399 143.737C85.3447 143.737 86.0847 152.078 88.7942 153.987C93.115 157.039 119.171 173.193 120.878 173.218C122.072 173.218 122 166.146 121.642 165.594C121.033 164.551 87.6125 143.737 86.2399 143.737Z" fill="#FFDF66"/>
</g>
<g style="mix-blend-mode:soft-light" opacity="0.4">
<path d="M145.122 161.713C144.561 162.328 144.633 170.128 145.6 169.89C153.468 165.87 161.048 161.252 168.278 156.073C175.213 150.709 176.192 143.625 174.64 143.788C174.604 143.738 146.28 160.444 145.122 161.713Z" fill="#FFDF66"/>
</g>
<path d="M106.797 165.506C106.797 165.506 129.213 179.65 130.669 179.65C132.125 179.65 149.993 168.219 149.993 168.219C149.993 168.219 131.218 180.78 130.705 180.78C130.191 180.78 106.797 165.506 106.797 165.506Z" fill="white"/>
<path d="M130.642 154.114L83.8288 125.387C82.745 128.076 82.0103 130.907 81.6445 133.803L84.7001 139.242L130.642 167.353L176.631 139.242L179.4 133.803C179.315 130.916 178.75 128.067 177.729 125.387L130.642 154.114Z" fill="url(#paint39_linear_6924_92136)"/>
<path d="M84.6533 139.24L81.5977 133.801L130.642 164.035L179.401 133.801L176.632 139.24L130.642 167.339L84.6533 139.24Z" fill="url(#paint40_linear_6924_92136)"/>
<g style="mix-blend-mode:multiply" opacity="0.5">
<path d="M81.6445 133.801L84.7001 139.24L85.3924 139.692V141.3C85.3924 141.3 88.0183 142.707 93.1746 145.709C93.3417 145.809 96.4093 149.213 96.4093 149.213C96.4093 149.213 129.484 170.303 130.677 170.303C132.229 170.303 165.089 148.698 165.089 148.698C165.089 148.698 167.655 146.437 167.906 146.274L176.022 141.802V139.604L176.631 139.24L179.4 133.801L130.642 164.035L81.6445 133.801Z" fill="#DE5634"/>
</g>
<path style="mix-blend-mode:multiply" opacity="0.69" d="M130.645 154.114V164.037L179.403 133.803C179.275 130.922 178.711 128.081 177.732 125.387L130.645 154.114Z" fill="url(#paint41_linear_6924_92136)"/>
<g style="mix-blend-mode:soft-light" opacity="0.4">
<path d="M86.2399 127.57C85.3447 127.57 86.0847 135.911 88.7942 137.833C93.115 140.872 119.171 157.039 120.878 157.051C122.072 157.051 122 149.979 121.642 149.427C121.033 148.384 87.6125 127.57 86.2399 127.57Z" fill="#FFDF66"/>
</g>
<g style="mix-blend-mode:soft-light" opacity="0.4">
<path d="M145.122 145.546C144.561 146.161 144.633 153.961 145.6 153.723C153.468 149.703 161.048 145.085 168.278 139.906C175.213 134.542 176.192 127.458 174.64 127.621C174.604 127.571 146.28 144.289 145.122 145.546Z" fill="#FFDF66"/>
</g>
<path d="M106.797 149.339C106.797 149.339 129.213 163.483 130.669 163.483C132.125 163.483 149.993 152.052 149.993 152.052C149.993 152.052 131.218 164.613 130.705 164.613C130.191 164.613 106.797 149.339 106.797 149.339Z" fill="white"/>
<g style="mix-blend-mode:multiply" opacity="0.5">
<path d="M130.249 140.696L120.199 146.26L122.109 134.478L113.98 126.138L125.224 124.417L130.249 113.702L135.274 124.417L146.518 126.138L138.378 134.478L140.299 146.26L130.249 140.696Z" fill="#DE5634"/>
</g>
<path d="M145.334 126.542L139.915 125.713L138.435 125.487L134.914 124.946L130.247 114.998L125.58 124.946L115.148 126.542L122.704 134.279L120.913 145.207L130.247 140.057L139.569 145.207L137.791 134.279L145.334 126.542Z" fill="url(#paint42_linear_6924_92136)"/>
<path style="mix-blend-mode:multiply" opacity="0.37" d="M115.102 126.54L130.463 130.761L122.645 134.278L115.102 126.54Z" fill="url(#paint43_linear_6924_92136)"/>
<path style="mix-blend-mode:multiply" opacity="0.37" d="M145.289 126.54L130.465 130.761L137.746 134.278L145.289 126.54Z" fill="url(#paint44_linear_6924_92136)"/>
<path style="mix-blend-mode:multiply" opacity="0.37" d="M130.189 140.056L130.464 130.761L120.867 145.206L130.189 140.056Z" fill="url(#paint45_linear_6924_92136)"/>
<path style="mix-blend-mode:multiply" opacity="0.37" d="M139.525 145.206L130.466 130.761L130.191 140.056L139.525 145.206Z" fill="url(#paint46_linear_6924_92136)"/>
<path style="mix-blend-mode:color-dodge" opacity="0.5" d="M130.191 114.998L130.466 130.762L134.858 124.946L130.191 114.998Z" fill="url(#paint47_linear_6924_92136)"/>
<path style="mix-blend-mode:color-dodge" opacity="0.5" d="M145.289 126.543L130.465 130.763L134.857 124.947L145.289 126.543Z" fill="url(#paint48_linear_6924_92136)"/>
<path style="mix-blend-mode:color-dodge" opacity="0.5" d="M145.289 126.543L130.465 130.763L134.857 124.947L145.289 126.543Z" fill="url(#paint49_linear_6924_92136)"/>
<path style="mix-blend-mode:color-dodge" opacity="0.5" d="M125.534 124.947L130.463 130.763L115.102 126.543L125.534 124.947Z" fill="url(#paint50_linear_6924_92136)"/>
<path d="M134.856 128.401C134.08 129.092 134.748 129.544 134.748 129.544L138.735 128.401C138.173 127.965 137.493 127.73 136.795 127.73C136.097 127.73 135.417 127.965 134.856 128.401Z" fill="white"/>
<g style="mix-blend-mode:multiply" opacity="0.5">
<path d="M120.914 145.206C120.914 145.206 127.992 141.701 130.248 140.721L139.57 145.206L130.248 140.043L120.914 145.206Z" fill="#DE5634"/>
</g>
<g style="mix-blend-mode:multiply" opacity="0.5">
<path d="M115.102 126.54L130.463 130.761L122.024 138.398L115.102 126.54Z" fill="#DE5634"/>
</g>
<g style="mix-blend-mode:multiply" opacity="0.5">
<path d="M145.289 126.54L130.465 130.761L138.629 139.415L145.289 126.54Z" fill="#DE5634"/>
</g>
<g style="mix-blend-mode:multiply" opacity="0.5">
<path d="M120.914 145.206L130.463 130.761L139.57 145.206L130.248 143.661L120.914 145.206Z" fill="#DE5634"/>
</g>
<g style="mix-blend-mode:soft-light" opacity="0.4">
<path d="M126.774 123.224C125.784 126.113 129.555 128.135 130.069 127.243C130.582 126.352 130.26 121.39 129.615 120.712C128.971 120.033 127.18 122.043 126.774 123.224Z" fill="#F7FFFF"/>
</g>
<g style="mix-blend-mode:soft-light" opacity="0.4">
<path d="M123.684 138.059C125.69 138.348 126.812 135.936 127.265 134.291C127.922 131.615 120.032 137.532 123.684 138.059Z" fill="#F7FFFF"/>
</g>
<path d="M102 2L112.087 17.7023C113.006 19.1343 114.591 20 116.293 20H145.707C147.409 20 148.994 19.1343 149.913 17.7023L160 2H102Z" fill="url(#paint51_linear_6924_92136)"/>
<path d="M122.558 16L118.33 6.2H120.78L124.476 14.88H123.034L126.786 6.2H129.04L124.798 16H122.558ZM129.858 16V6.2H132.126V16H129.858ZM134.452 16V6.2H138.694C139.571 6.2 140.327 6.34467 140.962 6.634C141.597 6.914 142.087 7.32 142.432 7.852C142.777 8.384 142.95 9.01867 142.95 9.756C142.95 10.484 142.777 11.114 142.432 11.646C142.087 12.178 141.597 12.5887 140.962 12.878C140.327 13.158 139.571 13.298 138.694 13.298H135.712L136.72 12.276V16H134.452ZM136.72 12.528L135.712 11.45H138.568C139.268 11.45 139.791 11.3007 140.136 11.002C140.481 10.7033 140.654 10.288 140.654 9.756C140.654 9.21467 140.481 8.79467 140.136 8.496C139.791 8.19733 139.268 8.048 138.568 8.048H135.712L136.72 6.97V12.528Z" fill="white"/>
<path d="M35.324 20.544H37.34L39.878 31.128L42.38 20.544H44.396L41.156 33H38.6L35.324 20.544ZM45.8011 33V20.544H47.7451V33H45.8011ZM49.9496 33V20.544H51.8936V33H49.9496Z" fill="white"/>
<g style="mix-blend-mode:overlay">
<g style="mix-blend-mode:color-dodge">
<path fill-rule="evenodd" clip-rule="evenodd" d="M19 12C19 6.47715 23.4771 2 29 2H231C236.523 2 241 6.47715 241 12V120.562C241 123.615 239.506 126.474 237 128.217V128.217C234.494 129.961 233 132.82 233 135.873V159V162V185.127C233 188.18 234.494 191.039 237 192.783V192.783C239.506 194.526 241 197.385 241 200.438V304C241 309.523 236.523 314 231 314H29C23.4772 314 19 309.523 19 304V202.182C19 198.908 20.6021 195.842 23.2894 193.973L24.7106 192.984C27.3979 191.115 29 188.048 29 184.775L29 162V159L29 136.225C29 132.952 27.3979 129.885 24.7107 128.016L23.2894 127.027C20.6021 125.158 19 122.092 19 118.818V12Z" fill="url(#paint52_linear_6924_92136)"/>
</g>
</g>
<defs>
<filter id="filter0_b_6924_92136" x="-6" y="-19" width="89" height="354.983" filterUnits="userSpaceOnUse" colorInterpolationFilters="sRGB">
<feFlood floodOpacity="0" result="BackgroundImageFix"/>
<feGaussianBlur in="BackgroundImageFix" stdDeviation="13"/>
<feComposite in2="SourceAlpha" operator="in" result="effect1_backgroundBlur_6924_92136"/>
<feBlend mode="normal" in="SourceGraphic" in2="effect1_backgroundBlur_6924_92136" result="shape"/>
</filter>
<filter id="filter1_b_6924_92136" x="177" y="-19" width="89" height="354.983" filterUnits="userSpaceOnUse" colorInterpolationFilters="sRGB">
<feFlood floodOpacity="0" result="BackgroundImageFix"/>
<feGaussianBlur in="BackgroundImageFix" stdDeviation="13"/>
<feComposite in2="SourceAlpha" operator="in" result="effect1_backgroundBlur_6924_92136"/>
<feBlend mode="normal" in="SourceGraphic" in2="effect1_backgroundBlur_6924_92136" result="shape"/>
</filter>
<filter id="filter2_i_6924_92136" x="17" y="0" width="226" height="320" filterUnits="userSpaceOnUse" colorInterpolationFilters="sRGB">
<feFlood floodOpacity="0" result="BackgroundImageFix"/>
<feBlend mode="normal" in="SourceGraphic" in2="BackgroundImageFix" result="shape"/>
<feColorMatrix in="SourceAlpha" type="matrix" values="0 0 0 0 0 0 0 0 0 0 0 0 0 0 0 0 0 0 127 0" result="hardAlpha"/>
<feOffset dy="5"/>
<feGaussianBlur stdDeviation="2"/>
<feComposite in2="hardAlpha" operator="arithmetic" k2="-1" k3="1"/>
<feColorMatrix type="matrix" values="0 0 0 0 0 0 0 0 0 0 0 0 0 0 0 0 0 0 0.25 0"/>
<feBlend mode="normal" in2="shape" result="effect1_innerShadow_6924_92136"/>
</filter>
<filter id="filter3_f_6924_92136" x="0" y="31" width="261" height="254" filterUnits="userSpaceOnUse" colorInterpolationFilters="sRGB">
<feFlood floodOpacity="0" result="BackgroundImageFix"/>
<feBlend mode="normal" in="SourceGraphic" in2="BackgroundImageFix" result="shape"/>
<feGaussianBlur stdDeviation="37.5" result="effect1_foregroundBlur_6924_92136"/>
</filter>
<linearGradient id="paint0_linear_6924_92136" x1="13" y1="296.56" x2="134.492" y2="0.901086" gradientUnits="userSpaceOnUse">
<stop stop-color="#060913"/>
<stop offset="0.136764" stop-color="#070A16"/>
<stop offset="0.197268" stop-color="#0D142E"/>
<stop offset="0.309253" stop-color="#070B17"/>
<stop offset="0.490764" stop-color="#080C1A"/>
<stop offset="0.661458" stop-color="#0B1125"/>
<stop offset="1" stop-color="#101010"/>
</linearGradient>
<linearGradient id="paint1_linear_6924_92136" x1="43.5" y1="323.39" x2="109.599" y2="304.922" gradientUnits="userSpaceOnUse">
<stop stop-color="#EECCA2"/>
<stop offset="0.260417" stop-color="#624A2C"/>
<stop offset="0.6875" stop-color="#FFDAAB"/>
<stop offset="1" stop-color="#C68C43"/>
</linearGradient>
<linearGradient id="paint2_linear_6924_92136" x1="247" y1="20.4233" x2="125.508" y2="316.082" gradientUnits="userSpaceOnUse">
<stop stop-color="#060913"/>
<stop offset="0.136764" stop-color="#070A16"/>
<stop offset="0.197268" stop-color="#0D142E"/>
<stop offset="0.309253" stop-color="#070B17"/>
<stop offset="0.490764" stop-color="#080C1A"/>
<stop offset="0.661458" stop-color="#0B1125"/>
<stop offset="1" stop-color="#101010"/>
</linearGradient>
<linearGradient id="paint3_linear_6924_92136" x1="216.5" y1="-6.40634" x2="150.401" y2="12.0615" gradientUnits="userSpaceOnUse">
<stop stop-color="#EECCA2"/>
<stop offset="0.260417" stop-color="#624A2C"/>
<stop offset="0.6875" stop-color="#FFDAAB"/>
<stop offset="1" stop-color="#C68C43"/>
</linearGradient>
<linearGradient id="paint4_linear_6924_92136" x1="184.5" y1="-25.5" x2="1.5" y2="349.5" gradientUnits="userSpaceOnUse">
<stop stop-color="#C68C43"/>
<stop offset="0.119792" stop-color="#F5BA6E"/>
<stop offset="0.286458" stop-color="#C68C43"/>
<stop offset="0.5625" stop-color="#C68C43"/>
<stop offset="0.770833" stop-color="#EEB873"/>
<stop offset="1" stop-color="#C68C43"/>
</linearGradient>
<linearGradient id="paint5_linear_6924_92136" x1="131.064" y1="154.818" x2="131.064" y2="-46.36" gradientUnits="userSpaceOnUse">
<stop stop-color="#CA6B34"/>
<stop offset="0.67" stop-color="#FFA933"/>
<stop offset="1" stop-color="#FFBD2B"/>
</linearGradient>
<linearGradient id="paint6_linear_6924_92136" x1="80.9314" y1="47.9531" x2="80.9314" y2="91.3368" gradientUnits="userSpaceOnUse">
<stop stop-color="#C10065"/>
<stop offset="1" stop-color="white"/>
</linearGradient>
<linearGradient id="paint7_linear_6924_92136" x1="181.924" y1="47.9531" x2="181.924" y2="91.3368" gradientUnits="userSpaceOnUse">
<stop stop-color="#C10065"/>
<stop offset="1" stop-color="white"/>
</linearGradient>
<linearGradient id="paint8_linear_6924_92136" x1="100.251" y1="71.2334" x2="100.251" y2="151.652" gradientUnits="userSpaceOnUse">
<stop stop-color="#C10065"/>
<stop offset="1" stop-color="white"/>
</linearGradient>
<linearGradient id="paint9_linear_6924_92136" x1="161.393" y1="71.2334" x2="161.393" y2="151.652" gradientUnits="userSpaceOnUse">
<stop stop-color="#C10065"/>
<stop offset="1" stop-color="white"/>
</linearGradient>
<linearGradient id="paint10_linear_6924_92136" x1="139.171" y1="-4.27537" x2="150.065" y2="109.544" gradientUnits="userSpaceOnUse">
<stop stop-color="#BFD7FF"/>
<stop offset="1"/>
</linearGradient>
<linearGradient id="paint11_linear_6924_92136" x1="132.316" y1="54.8309" x2="231.532" y2="54.8309" gradientUnits="userSpaceOnUse">
<stop stop-color="#BFD7FF"/>
<stop offset="1"/>
</linearGradient>
<linearGradient id="paint12_linear_6924_92136" x1="173.696" y1="-7.45115" x2="184.673" y2="106.233" gradientUnits="userSpaceOnUse">
<stop stop-color="#BFD7FF"/>
<stop offset="1"/>
</linearGradient>
<linearGradient id="paint13_linear_6924_92136" x1="73.8992" y1="2.16332" x2="84.872" y2="115.848" gradientUnits="userSpaceOnUse">
<stop stop-color="#BFD7FF"/>
<stop offset="1"/>
</linearGradient>
<linearGradient id="paint14_linear_6924_92136" x1="175.403" y1="162.69" x2="175.393" y2="139.084" gradientUnits="userSpaceOnUse">
<stop stop-color="#CA6B34"/>
<stop offset="0.67" stop-color="#FFA933"/>
<stop offset="1" stop-color="#FFBD2B"/>
</linearGradient>
<linearGradient id="paint15_linear_6924_92136" x1="102.64" y1="192.173" x2="102.498" y2="168.599" gradientUnits="userSpaceOnUse">
<stop stop-color="#CA6B34"/>
<stop offset="0.67" stop-color="#FFA933"/>
<stop offset="1" stop-color="#FFBD2B"/>
</linearGradient>
<linearGradient id="paint16_linear_6924_92136" x1="95.6098" y1="216.704" x2="125.426" y2="216.704" gradientUnits="userSpaceOnUse">
<stop stop-color="#DE3C14"/>
<stop offset="0.07" stop-color="#C72E10"/>
<stop offset="0.19" stop-color="#AB1C0C"/>
<stop offset="0.3" stop-color="#971009"/>
<stop offset="0.41" stop-color="#8B0807"/>
<stop offset="0.52" stop-color="#870606"/>
<stop offset="0.62" stop-color="#8C0707"/>
<stop offset="0.73" stop-color="#9A0808"/>
<stop offset="0.85" stop-color="#B20B0B"/>
<stop offset="0.97" stop-color="#D30E0E"/>
<stop offset="1" stop-color="#DB0F0F"/>
</linearGradient>
<linearGradient id="paint17_linear_6924_92136" x1="135.574" y1="216.704" x2="165.39" y2="216.704" gradientUnits="userSpaceOnUse">
<stop stop-color="#DE3C14"/>
<stop offset="0.07" stop-color="#C72E10"/>
<stop offset="0.19" stop-color="#AB1C0C"/>
<stop offset="0.3" stop-color="#971009"/>
<stop offset="0.41" stop-color="#8B0807"/>
<stop offset="0.52" stop-color="#870606"/>
<stop offset="0.62" stop-color="#8C0707"/>
<stop offset="0.73" stop-color="#9A0808"/>
<stop offset="0.85" stop-color="#B20B0B"/>
<stop offset="0.97" stop-color="#D30E0E"/>
<stop offset="1" stop-color="#DB0F0F"/>
</linearGradient>
<linearGradient id="paint18_linear_6924_92136" x1="95.61" y1="216.706" x2="125.426" y2="216.706" gradientUnits="userSpaceOnUse">
<stop stop-color="#B41E2D"/>
<stop offset="1" stop-color="#E54136"/>
</linearGradient>
<linearGradient id="paint19_linear_6924_92136" x1="135.574" y1="216.704" x2="165.39" y2="216.704" gradientUnits="userSpaceOnUse">
<stop stop-color="#B41E2D"/>
<stop offset="1" stop-color="#E54136"/>
</linearGradient>
<linearGradient id="paint20_linear_6924_92136" x1="104.526" y1="109.281" x2="104.526" y2="133.725" gradientUnits="userSpaceOnUse">
<stop stop-color="#C10065"/>
<stop offset="1" stop-color="white"/>
</linearGradient>
<linearGradient id="paint21_linear_6924_92136" x1="156.473" y1="109.281" x2="156.473" y2="133.725" gradientUnits="userSpaceOnUse">
<stop stop-color="#C10065"/>
<stop offset="1" stop-color="white"/>
</linearGradient>
<linearGradient id="paint22_linear_6924_92136" x1="74.8537" y1="182.125" x2="74.8537" y2="156.06" gradientUnits="userSpaceOnUse">
<stop stop-color="#CA6B34"/>
<stop offset="0.67" stop-color="#FFA933"/>
<stop offset="1" stop-color="#FFBD2B"/>
</linearGradient>
<linearGradient id="paint23_linear_6924_92136" x1="77.73" y1="168.092" x2="77.73" y2="180.264" gradientUnits="userSpaceOnUse">
<stop stop-color="#C10065"/>
<stop offset="1" stop-color="white"/>
</linearGradient>
<linearGradient id="paint24_linear_6924_92136" x1="186.157" y1="182.125" x2="186.157" y2="156.06" gradientUnits="userSpaceOnUse">
<stop stop-color="#CA6B34"/>
<stop offset="0.67" stop-color="#FFA933"/>
<stop offset="1" stop-color="#FFBD2B"/>
</linearGradient>
<linearGradient id="paint25_linear_6924_92136" x1="183.267" y1="168.092" x2="183.267" y2="180.264" gradientUnits="userSpaceOnUse">
<stop stop-color="#C10065"/>
<stop offset="1" stop-color="white"/>
</linearGradient>
<linearGradient id="paint26_linear_6924_92136" x1="130.681" y1="217.91" x2="130.681" y2="114.294" gradientUnits="userSpaceOnUse">
<stop stop-color="#CA6B34"/>
<stop offset="0.67" stop-color="#FFA933"/>
<stop offset="1" stop-color="#FFBD2B"/>
</linearGradient>
<linearGradient id="paint27_linear_6924_92136" x1="130.68" y1="96.0687" x2="130.68" y2="200.225" gradientUnits="userSpaceOnUse">
<stop stop-color="#CA6B34"/>
<stop offset="0.17" stop-color="#CC6E34"/>
<stop offset="0.29" stop-color="#D27733"/>
<stop offset="0.39" stop-color="#DB8631"/>
<stop offset="0.48" stop-color="#E99B2F"/>
<stop offset="0.57" stop-color="#FBB72C"/>
<stop offset="0.59" stop-color="#FFBD2B"/>
<stop offset="1" stop-color="#FFA933"/>
</linearGradient>
<linearGradient id="paint28_linear_6924_92136" x1="130.681" y1="202.547" x2="130.681" y2="108.289" gradientUnits="userSpaceOnUse">
<stop stop-color="#B75014"/>
<stop offset="0.38" stop-color="#E8692A"/>
<stop offset="1" stop-color="#F58E2F"/>
</linearGradient>
<linearGradient id="paint29_linear_6924_92136" x1="89.3908" y1="158.734" x2="89.3908" y2="187.16" gradientUnits="userSpaceOnUse">
<stop stop-color="#C10065"/>
<stop offset="1" stop-color="white"/>
</linearGradient>
<linearGradient id="paint30_linear_6924_92136" x1="171.786" y1="158.734" x2="171.786" y2="187.16" gradientUnits="userSpaceOnUse">
<stop stop-color="#C10065"/>
<stop offset="1" stop-color="white"/>
</linearGradient>
<linearGradient id="paint31_linear_6924_92136" x1="108.894" y1="184.711" x2="108.894" y2="214.091" gradientUnits="userSpaceOnUse">
<stop stop-color="#C10065"/>
<stop offset="1" stop-color="white"/>
</linearGradient>
<linearGradient id="paint32_linear_6924_92136" x1="152.461" y1="184.723" x2="152.461" y2="214.669" gradientUnits="userSpaceOnUse">
<stop stop-color="#C10065"/>
<stop offset="1" stop-color="white"/>
</linearGradient>
<linearGradient id="paint33_linear_6924_92136" x1="130.498" y1="110.112" x2="130.498" y2="185.214" gradientUnits="userSpaceOnUse">
<stop stop-color="#CA6B34"/>
<stop offset="0.67" stop-color="#FFA933"/>
<stop offset="1" stop-color="#FFBD2B"/>
</linearGradient>
<linearGradient id="paint34_linear_6924_92136" x1="130.499" y1="199.598" x2="130.499" y2="166.06" gradientUnits="userSpaceOnUse">
<stop stop-color="#F1CB3C"/>
<stop offset="1" stop-color="#FFC14F"/>
</linearGradient>
<linearGradient id="paint35_linear_6924_92136" x1="155.03" y1="157.643" x2="155.03" y2="196.293" gradientUnits="userSpaceOnUse">
<stop stop-color="#C10065"/>
<stop offset="1" stop-color="white"/>
</linearGradient>
<linearGradient id="paint36_linear_6924_92136" x1="130.498" y1="99.1948" x2="130.498" y2="174.297" gradientUnits="userSpaceOnUse">
<stop stop-color="#CA6B34"/>
<stop offset="0.67" stop-color="#FFA933"/>
<stop offset="1" stop-color="#FFBD2B"/>
</linearGradient>
<linearGradient id="paint37_linear_6924_92136" x1="130.499" y1="183.504" x2="130.499" y2="149.966" gradientUnits="userSpaceOnUse">
<stop stop-color="#F1CB3C"/>
<stop offset="1" stop-color="#FFC14F"/>
</linearGradient>
<linearGradient id="paint38_linear_6924_92136" x1="155.03" y1="141.551" x2="155.03" y2="180.201" gradientUnits="userSpaceOnUse">
<stop stop-color="#C10065"/>
<stop offset="1" stop-color="white"/>
</linearGradient>
<linearGradient id="paint39_linear_6924_92136" x1="130.498" y1="81.31" x2="130.498" y2="156.413" gradientUnits="userSpaceOnUse">
<stop stop-color="#CA6B34"/>
<stop offset="0.67" stop-color="#FFA933"/>
<stop offset="1" stop-color="#FFBD2B"/>
</linearGradient>
<linearGradient id="paint40_linear_6924_92136" x1="130.499" y1="167.351" x2="130.499" y2="133.801" gradientUnits="userSpaceOnUse">
<stop stop-color="#F1CB3C"/>
<stop offset="1" stop-color="#FFC14F"/>
</linearGradient>
<linearGradient id="paint41_linear_6924_92136" x1="155.03" y1="125.387" x2="155.03" y2="164.037" gradientUnits="userSpaceOnUse">
<stop stop-color="#C10065"/>
<stop offset="1" stop-color="white"/>
</linearGradient>
<linearGradient id="paint42_linear_6924_92136" x1="130.247" y1="145.785" x2="130.247" y2="109.873" gradientUnits="userSpaceOnUse">
<stop stop-color="#CA6B34"/>
<stop offset="0.67" stop-color="#FFA933"/>
<stop offset="1" stop-color="#FFBD2B"/>
</linearGradient>
<linearGradient id="paint43_linear_6924_92136" x1="122.776" y1="126.54" x2="122.776" y2="134.278" gradientUnits="userSpaceOnUse">
<stop stop-color="#C10065"/>
<stop offset="1" stop-color="white"/>
</linearGradient>
<linearGradient id="paint44_linear_6924_92136" x1="137.877" y1="126.54" x2="137.877" y2="134.278" gradientUnits="userSpaceOnUse">
<stop stop-color="#C10065"/>
<stop offset="1" stop-color="white"/>
</linearGradient>
<linearGradient id="paint45_linear_6924_92136" x1="125.665" y1="130.761" x2="125.665" y2="145.206" gradientUnits="userSpaceOnUse">
<stop stop-color="#C10065"/>
<stop offset="1" stop-color="white"/>
</linearGradient>
<linearGradient id="paint46_linear_6924_92136" x1="134.858" y1="130.761" x2="134.858" y2="145.206" gradientUnits="userSpaceOnUse">
<stop stop-color="#C10065"/>
<stop offset="1" stop-color="white"/>
</linearGradient>
<linearGradient id="paint47_linear_6924_92136" x1="131.576" y1="117.372" x2="133.886" y2="137.495" gradientUnits="userSpaceOnUse">
<stop stop-color="#BFD7FF"/>
<stop offset="1"/>
</linearGradient>
<linearGradient id="paint48_linear_6924_92136" x1="130.465" y1="127.861" x2="145.289" y2="127.861" gradientUnits="userSpaceOnUse">
<stop stop-color="#BFD7FF"/>
<stop offset="1"/>
</linearGradient>
<linearGradient id="paint49_linear_6924_92136" x1="136.648" y1="116.783" x2="138.958" y2="136.905" gradientUnits="userSpaceOnUse">
<stop stop-color="#BFD7FF"/>
<stop offset="1"/>
</linearGradient>
<linearGradient id="paint50_linear_6924_92136" x1="121.726" y1="118.503" x2="124.036" y2="138.626" gradientUnits="userSpaceOnUse">
<stop stop-color="#BFD7FF"/>
<stop offset="1"/>
</linearGradient>
<linearGradient id="paint51_linear_6924_92136" x1="148.5" y1="-0.5" x2="104" y2="22.5" gradientUnits="userSpaceOnUse">
<stop stop-color="#C68C43"/>
<stop offset="0.119792" stop-color="#F5BA6E"/>
<stop offset="0.286458" stop-color="#C68C43"/>
<stop offset="0.5625" stop-color="#C68C43"/>
<stop offset="0.770833" stop-color="#EEB873"/>
<stop offset="1" stop-color="#C68C43"/>
</linearGradient>
<linearGradient id="paint52_linear_6924_92136" x1="84.5" y1="60.5" x2="32.0032" y2="111.503" gradientUnits="userSpaceOnUse">
<stop stop-color="white" stop-opacity="0"/>
<stop offset="0.440223" stop-color="white"/>
<stop offset="1" stop-color="white" stop-opacity="0"/>
</linearGradient>
</defs>
</svg>
