<svg width="130" height="136" viewBox="0 0 130 136" fill="none" xmlns="http://www.w3.org/2000/svg">
<path d="M75 52.6498L129.86 52.2998L124.74 61.4998L77.82 62.7998L75 52.6498Z" fill="url(#paint0_linear_6456_59062)"/>
<g style="mix-blend-mode:multiply" opacity="0.5">
<path d="M77.4219 59.9198L126.242 58.7998L124.742 61.4998L77.8219 62.7998L77.4219 59.9198Z" fill="#DE5634"/>
</g>
<g style="mix-blend-mode:soft-light" opacity="0.4">
<path d="M106.112 53.1102C105.702 53.5602 107.602 58.3602 108.382 58.2102C109.162 58.0602 125.012 58.3502 125.722 57.8602C126.432 57.3702 129.082 53.3402 128.502 52.8602C127.922 52.3802 106.502 52.6802 106.112 53.1102Z" fill="#FFDF66"/>
</g>
<g style="mix-blend-mode:multiply" opacity="0.5">
<path d="M105 52.4199C105 52.4199 107.07 58.0199 107.14 59.2399C107.1 60.2103 106.837 61.1583 106.37 62.0099L77.83 62.7999L75 52.6499L105 52.4199Z" fill="#DE5634"/>
</g>
<path d="M54.86 52.6498L0 52.2998L5.12 61.4998L52.04 62.7998L54.86 52.6498Z" fill="url(#paint1_linear_6456_59062)"/>
<g style="mix-blend-mode:multiply" opacity="0.5">
<path d="M52.4511 59.9198L3.62109 58.7998L5.12109 61.4998L52.0411 62.7998L52.4511 59.9198Z" fill="#DE5634"/>
</g>
<g style="mix-blend-mode:soft-light" opacity="0.4">
<path d="M23.3697 52.9102C24.7297 54.2002 22.2897 58.6102 21.5097 58.4602C20.7297 58.3102 4.84967 58.3502 4.13967 57.8602C3.42967 57.3702 0.77967 53.3402 1.35967 52.8602C1.93967 52.3802 22.5797 52.1702 23.3697 52.9102Z" fill="#FFDF66"/>
</g>
<g style="mix-blend-mode:multiply" opacity="0.5">
<path d="M24.8705 52.4199C24.8705 52.4199 22.8005 57.9999 22.7305 59.2399C22.7717 60.2069 23.0352 61.1513 23.5005 61.9999L52.0005 62.7999L54.8205 52.6499L24.8705 52.4199Z" fill="#DE5634"/>
</g>
<path d="M60.6797 102.87V135.87C50.6797 130.61 35.6797 115.26 35.6797 115.26V92.4399L60.6797 102.87Z" fill="url(#paint2_linear_6456_59062)"/>
<g style="mix-blend-mode:multiply" opacity="0.6">
<path d="M60.6797 129.2V135.84C50.6797 130.58 35.6797 115.23 35.6797 115.23V109.54C39.1697 114 46.5197 121.46 60.6797 129.2Z" fill="#8E37E2"/>
</g>
<path d="M69.1797 102.87V135.87C79.1797 130.61 94.1797 115.26 94.1797 115.26V92.4399L69.1797 102.87Z" fill="url(#paint3_linear_6456_59062)"/>
<g style="mix-blend-mode:multiply" opacity="0.6">
<path d="M69.1797 129.2V135.84C79.1797 130.58 94.1797 115.23 94.1797 115.23V109.54C90.6897 114 83.3397 121.46 69.1797 129.2Z" fill="#8E37E2"/>
</g>
<path style="mix-blend-mode:multiply" d="M38.0019 117.55C38.0019 117.55 37.7719 102.42 40.1319 102.68C42.4919 102.94 46.5619 105.34 47.4519 108.09C48.3419 110.84 48.0819 126.77 48.0819 126.77L48.9819 127.51C48.9819 127.51 47.8719 108.16 49.7119 109.11C51.0733 109.772 52.2534 110.755 53.1506 111.975C54.0477 113.194 54.635 114.613 54.8619 116.11C55.7519 120.47 56.0019 133 56.0019 133L60.6719 135.8V102.8L35.6719 92.3701V115.16L38.0019 117.55Z" fill="url(#paint4_linear_6456_59062)"/>
<path style="mix-blend-mode:multiply" d="M91.8197 117.55C91.8197 117.55 92.0097 99.8199 89.6497 100.08C87.2897 100.34 87.1897 109.32 87.1897 112.08C87.1897 114.84 86.8097 122.31 86.8097 122.31L85.4797 123.52C85.4797 123.52 85.6697 103.35 83.8297 104.3C81.9897 105.25 73.9197 111.49 73.0597 115.81C72.1997 120.13 72.5297 133.81 72.5297 133.81L69.1797 135.81V102.81L94.1797 92.3799V115.17L91.8197 117.55Z" fill="url(#paint5_linear_6456_59062)"/>
<path d="M30.2603 50.87L27.5703 42.39L30.2403 39.02L48.3603 28.09V6.94L50.6603 5.28L57.9303 0V36.08L30.2603 50.87Z" fill="url(#paint6_linear_6456_59062)"/>
<path d="M27.5703 42.3898L50.6603 29.1598V5.27979L48.3603 6.93979V28.0898L30.2403 39.0198L27.5703 42.3898Z" fill="url(#paint7_linear_6456_59062)"/>
<g style="mix-blend-mode:soft-light" opacity="0.4">
<path d="M51.1901 5.27987C51.0701 6.62987 51.3001 23.4399 52.0801 23.8299C52.8601 24.2199 57.0001 21.9199 57.2801 20.9999C57.5601 20.0799 57.4201 2.08987 56.8701 2.15987C56.3201 2.22987 51.2701 4.32987 51.1901 5.27987Z" fill="#FFDF66"/>
</g>
<path style="mix-blend-mode:multiply" opacity="0.37" d="M51.3304 29.4702C49.2704 31.1602 28.7304 42.3902 28.4504 43.1202C28.0904 44.0502 30.8204 48.4302 32.1204 48.0602C33.4204 47.6902 57.8504 33.8402 57.9004 33.1902C57.9504 32.5402 58.0104 28.9302 57.4204 28.7002C56.8304 28.4702 52.1104 28.8202 51.3304 29.4702Z" fill="url(#paint8_linear_6456_59062)"/>
<path d="M27.5703 43.1201L51.1503 29.4201L51.2703 4.87012L50.6603 5.28012V29.1601L27.5703 42.3901V43.1201Z" fill="#B33114"/>
<g style="mix-blend-mode:soft-light" opacity="0.4">
<path d="M48.6101 28.3298C47.2601 28.4198 30.5001 39.1798 30.5001 39.4898C30.5001 39.7998 27.5001 41.6198 28.2601 41.5698C29.0201 41.5198 50.1701 29.5698 50.2001 29.1598C50.2301 28.7498 49.3301 28.2798 48.6101 28.3298Z" fill="#FFDF66"/>
</g>
<g style="mix-blend-mode:soft-light" opacity="0.4">
<path d="M27.5703 43.1202C27.5703 43.1202 38.7303 37.4902 44.4303 33.8902C50.1303 30.2902 51.3303 29.4702 51.3303 29.4702L27.5703 43.1202Z" fill="#FFDF66"/>
</g>
<g style="mix-blend-mode:multiply" opacity="0.5">
<path d="M48.3602 25.3802L50.6602 23.4002H51.1602L57.9302 19.7002V36.0802L50.2002 39.9802L46.4102 29.2602L48.3602 28.0902V25.3802Z" fill="#DE5634"/>
</g>
<path d="M99.6012 50.87L102.301 42.39L99.6213 39.02L81.5013 28.09V6.94L79.2012 5.28L71.7812 0V36L99.6012 50.87Z" fill="url(#paint9_linear_6456_59062)"/>
<path d="M102.299 42.3898L79.1992 29.1598V5.27979L81.4992 6.93979V28.0898L99.6192 39.0198L102.299 42.3898Z" fill="url(#paint10_linear_6456_59062)"/>
<g style="mix-blend-mode:soft-light" opacity="0.4">
<path d="M78.2919 5.28011C78.4119 6.63011 78.7519 23.4401 77.9619 23.8301C77.1719 24.2201 72.8019 21.6901 72.4719 20.7601C72.1419 19.8301 72.4719 2.08011 73.0019 2.15011C73.5319 2.22011 78.2119 4.33011 78.2919 5.28011Z" fill="#FFDF66"/>
</g>
<path style="mix-blend-mode:multiply" opacity="0.37" d="M78.5403 29.4702C80.5403 31.1602 101.13 42.3902 101.41 43.1202C101.77 44.0502 99.0403 48.4302 97.7503 48.0602C96.4603 47.6902 72.0003 33.8402 72.0003 33.1902C72.0003 32.5402 71.8903 28.9302 72.4803 28.7002C73.0703 28.4702 77.7503 28.8202 78.5403 29.4702Z" fill="url(#paint11_linear_6456_59062)"/>
<path d="M102.3 43.1201L78.7198 29.4201L78.5898 4.87012L79.1998 5.28012V29.1601L102.3 42.3901V43.1201Z" fill="#B33114"/>
<g style="mix-blend-mode:soft-light" opacity="0.4">
<path d="M81.2509 28.3298C82.6009 28.4198 99.3709 39.1798 99.3709 39.4898C99.3709 39.7998 102.321 41.6198 101.601 41.5698C100.881 41.5198 79.6909 29.5698 79.6609 29.1598C79.6309 28.7498 80.5309 28.2798 81.2509 28.3298Z" fill="#FFDF66"/>
</g>
<g style="mix-blend-mode:soft-light" opacity="0.4">
<path d="M102.299 43.1202C102.299 43.1202 91.1391 37.4902 85.4291 33.8902C79.7191 30.2902 78.5391 29.4702 78.5391 29.4702L102.299 43.1202Z" fill="#FFDF66"/>
</g>
<g style="mix-blend-mode:multiply" opacity="0.5">
<path d="M81.5003 25.3801L79.2003 23.4001H78.7003L71.8203 19.5801V35.9701L79.6603 39.9801L83.4503 29.2601L81.5003 28.0901V25.3801Z" fill="#DE5634"/>
</g>
<path d="M28.9292 86.6502C28.8392 86.9802 15.2492 82.2502 15.2492 82.2502C11.7944 77.0676 8.92682 71.5168 6.69922 65.7002H29.9092L28.9292 86.6502Z" fill="url(#paint12_linear_6456_59062)"/>
<path d="M11.1289 65.7002C11.1289 65.7002 16.5489 76.8902 17.5389 78.1002L29.2789 78.4202V77.6202C29.2789 77.6202 18.5389 77.7102 17.9189 77.2502C17.2989 76.7902 11.8189 65.7002 11.8189 65.7002H11.1289Z" fill="#B33114"/>
<path d="M11.1289 65.7002L17.5389 78.1002C16.1508 76.1144 14.8884 74.0437 13.7589 71.9002C12.3289 69.0002 11.1289 65.7002 11.1289 65.7002Z" fill="white"/>
<g style="mix-blend-mode:soft-light" opacity="0.4">
<path d="M12.7887 66.4599C13.6887 69.1399 17.2587 75.2099 17.9987 75.2099C18.7387 75.2099 27.3487 75.0599 28.1387 73.8199C28.9287 72.5799 29.6187 66.5799 28.9287 66.4599C28.2387 66.3399 12.3887 65.2699 12.7887 66.4599Z" fill="#FFDF66"/>
</g>
<g style="mix-blend-mode:soft-light" opacity="0.4">
<path d="M7.47181 66.1699C8.57181 68.7899 11.6518 75.4599 12.2218 75.5399C12.7918 75.6199 14.7118 75.8599 14.7418 75.0599C14.7418 73.7799 11.1918 66.3399 10.3918 66.1699C9.59181 65.9999 7.19181 65.5199 7.47181 66.1699Z" fill="#FFDF66"/>
</g>
<path style="mix-blend-mode:multiply" opacity="0.37" d="M12.7797 76.4098C12.6797 77.2398 15.7797 81.5098 16.2797 81.8498C16.7797 82.1898 27.2197 85.5598 27.9097 85.0798C28.5997 84.5998 28.9097 75.7998 28.3797 75.5398C27.8497 75.2798 12.8997 75.4998 12.7797 76.4098Z" fill="url(#paint13_linear_6456_59062)"/>
<g style="mix-blend-mode:multiply" opacity="0.5">
<path d="M22.1094 65.6999C23.2308 72.0964 23.7232 78.5874 23.5794 85.0799L28.9294 86.6499L29.9294 65.6499L22.1094 65.6999Z" fill="#DE5634"/>
</g>
<path d="M100.93 86.6502C101.02 86.9802 114.61 82.2502 114.61 82.2502C118.065 77.0676 120.932 71.5168 123.16 65.7002H100L100.93 86.6502Z" fill="url(#paint14_linear_6456_59062)"/>
<path d="M118.73 65.7002C118.73 65.7002 113.31 76.8902 112.32 78.1002L100.59 78.4202V77.6202C100.59 77.6202 111.33 77.7102 111.94 77.2502C112.55 76.7902 118 65.7002 118 65.7002H118.73Z" fill="#B33114"/>
<path d="M118.73 65.7002L112.32 78.1002C113.712 76.117 114.975 74.046 116.1 71.9002C117.53 69.0002 118.73 65.7002 118.73 65.7002Z" fill="white"/>
<g style="mix-blend-mode:soft-light" opacity="0.4">
<path d="M117.072 66.4599C116.172 69.1399 112.612 75.2099 111.862 75.2099C111.112 75.2099 102.512 75.0599 101.722 73.8199C100.932 72.5799 100.242 66.5799 100.932 66.4599C101.622 66.3399 117.472 65.2699 117.072 66.4599Z" fill="#FFDF66"/>
</g>
<g style="mix-blend-mode:soft-light" opacity="0.4">
<path d="M122.401 66.1699C121.291 68.7899 118.221 75.4599 117.641 75.5399C117.061 75.6199 115.151 75.8599 115.121 75.0599C115.121 73.7799 118.671 66.3399 119.481 66.1699C120.291 65.9999 122.671 65.5199 122.401 66.1699Z" fill="#FFDF66"/>
</g>
<path style="mix-blend-mode:multiply" opacity="0.37" d="M117.078 76.4098C117.178 77.2398 114.078 81.5098 113.578 81.8498C113.078 82.1898 102.638 85.5598 101.998 85.0798C101.358 84.5998 100.998 75.7998 101.518 75.5398C102.038 75.2798 116.998 75.4998 117.078 76.4098Z" fill="url(#paint15_linear_6456_59062)"/>
<g style="mix-blend-mode:multiply" opacity="0.5">
<path d="M107.75 65.6999C106.628 72.0964 106.136 78.5874 106.28 85.0799L100.93 86.6499L99.9297 65.6499L107.75 65.6999Z" fill="#DE5634"/>
</g>
<path d="M65.0798 17.25L27.0898 39.18V91.52L65.0798 113.45L103.07 91.52V39.18L65.0798 17.25Z" fill="url(#paint16_linear_6456_59062)"/>
<path d="M33.9609 87.5502V43.1502L65.0809 25.1802L96.2009 43.1502V87.5502L65.0809 105.52L33.9609 87.5502Z" fill="url(#paint17_linear_6456_59062)"/>
<path d="M36.25 86.2301V44.4701L65.08 27.8301L93.91 44.4701V86.2301L65.08 102.87L36.25 86.2301Z" fill="url(#paint18_linear_6456_59062)"/>
<g style="mix-blend-mode:soft-light" opacity="0.4">
<path d="M27.9985 39.32C27.5285 40.73 31.5685 42.46 34.4085 41.84C37.2485 41.22 63.9985 25.54 64.6785 24.13C64.874 22.1749 64.874 20.2051 64.6785 18.25C63.7385 18.25 28.2685 38.64 27.9985 39.32Z" fill="#FFDF66"/>
</g>
<g style="mix-blend-mode:soft-light" opacity="0.4">
<path d="M101.941 39.32C102.411 40.73 98.3713 42.46 95.5313 41.84C92.6913 41.22 66.2013 25.39 65.3013 24.13C64.8313 23.48 64.6813 18.25 65.3013 18.25C66.2413 18.25 101.711 38.64 101.941 39.32Z" fill="#FFDF66"/>
</g>
<path style="mix-blend-mode:multiply" opacity="0.37" d="M27.9985 69.0902C27.7385 70.6502 27.1185 90.4602 27.9985 90.6102C28.8785 90.7602 32.9985 87.9402 33.2285 86.6102C33.4585 85.2802 33.5285 71.7302 33.2285 70.4302C32.9285 69.1302 28.4285 66.4802 27.9985 69.0902Z" fill="url(#paint19_linear_6456_59062)"/>
<path style="mix-blend-mode:multiply" opacity="0.37" d="M102 69.0902C102.26 70.6502 102.88 90.4602 102 90.6102C101.12 90.7602 96.9999 87.9402 96.7699 86.6102C96.5399 85.2802 96.4699 71.7302 96.7699 70.4302C97.0699 69.1302 101.59 66.4802 102 69.0902Z" fill="url(#paint20_linear_6456_59062)"/>
<path style="mix-blend-mode:multiply" opacity="0.37" d="M28.9996 91.1501C29.4596 91.8301 63.6796 112.06 64.1896 112.06C64.4496 112.06 64.7996 107.06 64.7996 106.47C64.7996 104.91 34.5396 88.8401 34.0096 88.6901C33.1796 88.4701 28.4896 90.4701 28.9996 91.1501Z" fill="url(#paint21_linear_6456_59062)"/>
<path style="mix-blend-mode:multiply" opacity="0.37" d="M101.27 91.6798C100.81 92.3598 65.95 112.52 65.44 112.52C65.3036 110.357 65.3403 108.187 65.55 106.03C66.66 104.93 95.55 88.8398 96.04 88.6898C96.82 88.4698 101.73 90.9998 101.27 91.6798Z" fill="url(#paint22_linear_6456_59062)"/>
<g style="mix-blend-mode:multiply" opacity="0.37">
<path d="M37.5694 85.1199C35.5694 73.5499 36.6694 72.8199 51.0194 67.9299C65.3694 63.0399 89.6494 50.4399 91.7794 55.9299C93.9094 61.4199 93.1794 84.6799 92.6994 85.9299C92.2194 87.1799 67.1494 101.6 65.0794 101.63C63.0094 101.66 37.7994 86.4199 37.5694 85.1199Z" fill="#ED8A1D"/>
</g>
<g style="mix-blend-mode:soft-light" opacity="0.4">
<path d="M93.2899 44.7601C92.7799 44.6401 66.7299 29.5801 65.2899 29.6901C63.8499 29.8001 45.7399 38.2901 38.2899 44.6901C36.2899 46.4101 37.0299 71.9501 38.8599 71.4801C40.6899 71.0101 41.9999 60.7001 62.1999 54.9001C82.0499 49.1801 90.6899 54.1301 92.8399 55.01C93.4499 55.26 94.4399 45.0001 93.2899 44.7601Z" fill="#FFDF66"/>
</g>
<g style="mix-blend-mode:multiply" opacity="0.5">
<path d="M34 87.5499V43.1499L65.12 25.1499L96.24 43.1499V87.5499L93.95 86.2299C93.95 86.2299 94.09 47.6299 93.26 46.4199C90.26 42.0999 67.26 31.5999 63.5 32.7699C59.74 33.9399 39.12 42.6799 36.83 46.3499C36.06 47.5799 36.25 86.2299 36.25 86.2299L34 87.5499Z" fill="#DE5634"/>
</g>
<g style="mix-blend-mode:soft-light" opacity="0.4">
<path d="M70.9011 49.2102C78.6511 52.7502 90.3311 52.8102 91.4011 52.1302C92.4711 51.4502 93.1811 46.4802 91.5011 45.6502C89.8211 44.8202 76.5011 37.7202 73.0011 38.4802C69.5011 39.2402 69.5211 48.5902 70.9011 49.2102Z" fill="#FFDF66"/>
</g>
<path opacity="0.8" d="M27.0881 55.13C27.0881 55.01 27.4181 40.37 28.0381 39.32C28.6581 38.27 64.2581 18.53 65.2981 18.25C66.3381 17.97 79.6681 25.67 79.6681 25.67L65.0781 17.25L27.0781 39.18L27.0881 55.13Z" fill="#700000"/>
<path d="M78.6797 33C78.6797 33 95.3697 42.53 95.5997 43.6C95.8297 44.67 96.1997 73.36 96.1997 73.36C96.1997 73.36 96.3597 44.36 96.1997 43.15C96.0397 41.94 78.6797 33 78.6797 33Z" fill="white"/>
<path d="M34.0018 67.4802C34.0018 67.4802 33.4418 43.4802 33.7318 42.7002C34.0218 41.9202 65.0818 25.1802 65.0818 25.1802C65.0818 25.1802 35.0018 42.3602 34.4218 43.4502C33.8418 44.5402 34.0018 67.4802 34.0018 67.4802Z" fill="white"/>
<path opacity="0.8" d="M27.0898 91.5201L65.0898 113.45L103.09 91.5201V79.6001C103.09 79.6001 102.75 90.0001 102 91.3001C101.25 92.6001 67.1898 112.39 65.4598 112.52C63.7298 112.65 28.9098 92.0001 27.9998 90.6101C27.0898 89.2201 27.0898 64.8501 27.0898 64.8501V91.5201Z" fill="#700000"/>
<g style="mix-blend-mode:soft-light" opacity="0.4">
<path d="M34.0002 76.1899C34.0002 76.1899 33.8902 86.4299 34.4602 87.2799C35.0302 88.1299 49.7902 96.6699 49.7902 96.6699C49.7902 96.6699 33.7902 88.3999 33.6502 87.8599C33.5102 87.3199 34.0002 76.1899 34.0002 76.1899Z" fill="#FFDF66"/>
</g>
<g style="mix-blend-mode:soft-light" opacity="0.4">
<path d="M46.8082 96.8701C45.6882 96.8701 42.5482 98.1401 43.2282 98.8701C43.9082 99.6001 62.6082 110.87 64.7482 111.67C65.4382 111.93 65.3782 107.48 64.4382 106.04C63.9982 105.43 50.2882 96.8601 46.8082 96.8701Z" fill="#FFDF66"/>
</g>
<path d="M81.7818 28.0001C81.1618 28.1601 83.2318 30.7601 84.2118 31.0001C85.1918 31.2401 86.5418 30.5301 86.0718 30.0501C85.6018 29.5701 82.7418 27.6901 81.7818 28.0001Z" fill="white"/>
<path d="M86.3589 30.5201C85.4189 30.7701 87.1489 34.8801 87.8889 35.6101C88.6289 36.3401 95.199 37.6101 95.049 36.4401C94.899 35.2701 87.6789 30.1701 86.3589 30.5201Z" fill="white"/>
<g style="mix-blend-mode:multiply" opacity="0.5">
<path d="M82.5996 97.0002C81.7796 100.57 81.9096 102.68 82.3696 102.7C82.8296 102.72 99.4396 92.7002 99.8996 92.2802C100.36 91.8602 97.2296 89.0002 95.9996 89.1502C94.7696 89.3002 82.9096 95.6402 82.5996 97.0002Z" fill="#DE5634"/>
</g>
<g style="mix-blend-mode:multiply" opacity="0.5">
<path d="M36.0001 44.1702C35.6001 42.9702 34.3701 42.9702 34.2601 44.3202C34.1501 45.6702 33.9501 70.5402 34.4401 70.5702C34.9301 70.6002 35.9601 69.3902 36.0001 68.8202C36.0401 68.2502 36.1701 44.7402 36.0001 44.1702Z" fill="#DE5634"/>
</g>
<g style="mix-blend-mode:multiply" opacity="0.5">
<path d="M94.1789 44.3198C94.1189 44.7998 93.8789 68.3198 94.1789 68.3198C94.4789 68.3198 95.8589 67.2198 95.8589 66.6398C95.8589 66.0598 95.5189 43.8698 95.3689 43.7498C95.2189 43.6298 94.2389 43.9398 94.1789 44.3198Z" fill="#DE5634"/>
</g>
<g style="mix-blend-mode:multiply" opacity="0.5">
<path d="M65.0801 27.4399C65.0801 27.8999 51.6901 35.5399 51.3801 35.5399C51.0701 35.5399 51.1801 33.4799 51.6101 33.1999C52.0401 32.9199 65.0001 25.1199 65.0801 25.3799C65.1302 26.0656 65.1302 26.7541 65.0801 27.4399Z" fill="#DE5634"/>
</g>
<path d="M92.7116 89.3301C91.8616 89.3301 88.9716 90.9801 89.1916 91.8001C89.4116 92.6201 91.1916 93.5101 91.6516 93.0301C92.1116 92.5501 93.2716 89.3501 92.7116 89.3301Z" fill="#B33114"/>
<path d="M93.8091 89.91C93.5191 90.18 92.8791 91.14 93.4891 91.61C94.0991 92.08 95.8891 90.84 95.6291 90.48C95.3691 90.12 94.1891 89.56 93.8091 89.91Z" fill="#B33114"/>
<g style="mix-blend-mode:multiply" opacity="0.5">
<path d="M89.6108 90.9999C88.9008 91.9999 91.8208 92.5999 92.2008 91.7899C92.5808 90.9799 93.2008 89.2699 92.7108 89.3499C91.585 89.705 90.5341 90.2643 89.6108 90.9999Z" fill="#DE5634"/>
</g>
<path d="M89.199 91.5601C89.3978 92.122 89.7917 92.5939 90.309 92.8901C90.989 93.2901 91.569 93.2001 91.739 92.8901C91.5707 93.09 91.3394 93.2266 91.0831 93.2775C90.8268 93.3284 90.5608 93.2905 90.329 93.1701C88.939 92.5401 89.199 91.5601 89.199 91.5601Z" fill="#DAE1EF"/>
<g style="mix-blend-mode:multiply" opacity="0.5">
<path d="M94.1395 89.9302C93.4795 90.6502 93.9895 91.6702 94.3595 91.6102C94.7295 91.5502 95.8395 90.8302 95.6295 90.4802C95.4195 90.1302 94.2795 89.7802 94.1395 89.9302Z" fill="#DE5634"/>
</g>
<path d="M93.8083 89.9102C93.8083 89.9102 93.2083 90.7402 93.4483 91.2202C93.6883 91.7002 94.0383 91.7001 94.0383 91.7001C94.0383 91.7001 93.2483 92.1602 93.1083 91.6202C92.8583 90.7002 93.8083 89.9102 93.8083 89.9102Z" fill="#DAE1EF"/>
<path d="M61.1691 27.1802C59.1191 26.6402 57.4691 27.9702 56.5691 28.9902C55.6691 30.0102 56.1691 30.6102 57.2991 30.4102C58.4291 30.2102 61.9991 27.4102 61.1691 27.1802Z" fill="#B33114"/>
<g style="mix-blend-mode:multiply" opacity="0.5">
<path d="M61.1685 27.18C60.5223 27.051 59.8554 27.0685 59.2169 27.2312C58.5783 27.3939 57.9843 27.6976 57.4785 28.12C56.9285 28.6 58.0085 29.99 58.7585 29.69C59.5085 29.39 61.7985 27.4 61.1685 27.18Z" fill="#DE5634"/>
</g>
<path d="M57.0904 28.46C57.0904 28.46 54.7704 30 55.0004 30.72C55.2304 31.44 58.0004 30.11 58.0004 30.11C58.0004 30.11 56.5704 30.57 56.2404 29.94C55.9104 29.31 57.0904 28.46 57.0904 28.46Z" fill="white"/>
<g style="mix-blend-mode:soft-light" opacity="0.4">
<path d="M35.2818 87.8602C34.2018 88.1302 37.4218 90.3402 38.1918 90.4602C38.9618 90.5802 38.1918 88.6302 37.8318 88.2902C37.0342 87.9257 36.1548 87.7774 35.2818 87.8602Z" fill="#FFDF66"/>
</g>
<path d="M65.05 90.0001L25.83 67.1201C24.922 69.2612 24.3064 71.5147 24 73.8201L26.56 78.1401L65.09 100.52L103.62 78.1401L105.94 73.8201C105.869 71.522 105.395 69.2542 104.54 67.1201L65.05 90.0001Z" fill="url(#paint23_linear_6456_59062)"/>
<path d="M26.5209 78.1398L23.9609 73.8198L65.0509 97.8898L105.901 73.8198L103.581 78.1398L65.0509 100.52L26.5209 78.1398Z" fill="url(#paint24_linear_6456_59062)"/>
<g style="mix-blend-mode:multiply" opacity="0.5">
<path d="M24 73.8198L26.56 78.1398L27.14 78.4998V79.7898C27.14 79.7898 29.34 80.9098 33.66 83.2998C33.8 83.3798 36.37 86.0898 36.37 86.0898C36.37 86.0898 64.13 102.87 65.13 102.87C66.43 102.87 93.96 85.7198 93.96 85.7198C93.96 85.7198 96.11 83.9198 96.32 83.7898L103.12 80.2298V78.4398L103.63 78.1398L105.95 73.8198L65.05 97.8898L24 73.8198Z" fill="#DE5634"/>
</g>
<path style="mix-blend-mode:multiply" opacity="0.69" d="M65.0508 90.0001V97.9001L105.901 73.8201C105.794 71.5265 105.321 69.2647 104.501 67.1201L65.0508 90.0001Z" fill="url(#paint25_linear_6456_59062)"/>
<g style="mix-blend-mode:soft-light" opacity="0.4">
<path d="M27.8493 68.8501C27.0993 68.8501 27.7193 75.5001 29.9893 77.0201C33.6093 79.4501 55.4393 92.3101 56.8693 92.3301C57.8693 92.3301 57.8093 86.7001 57.5093 86.2601C56.9993 85.4301 28.9993 68.8501 27.8493 68.8501Z" fill="#FFDF66"/>
</g>
<g style="mix-blend-mode:soft-light" opacity="0.4">
<path d="M77.1785 83.1702C76.7085 83.6602 76.7685 89.8602 77.5785 89.6802C84.1705 86.4797 90.5206 82.8033 96.5785 78.6802C102.388 74.4002 103.208 68.7702 101.908 68.9002C101.878 68.8602 78.1485 82.1602 77.1785 83.1702Z" fill="#FFDF66"/>
</g>
<path d="M45.0703 86.1802C45.0703 86.1802 63.8503 97.4502 65.0703 97.4502C66.2903 97.4502 81.2603 88.3502 81.2603 88.3502C81.2603 88.3502 65.5303 98.3502 65.1003 98.3502C64.6703 98.3502 45.0703 86.1802 45.0703 86.1802Z" fill="white"/>
<path d="M65.05 77.1798L25.83 54.3098C24.9228 56.4477 24.3073 58.6978 24 60.9998L26.56 65.3198L65.05 87.7098L103.58 65.3298L105.9 60.9998C105.829 58.7017 105.355 56.4339 104.5 54.2998L65.05 77.1798Z" fill="url(#paint26_linear_6456_59062)"/>
<path d="M26.5209 65.3298L23.9609 61.0098L65.0509 85.0798L105.901 61.0098L103.581 65.3298L65.0509 87.7098L26.5209 65.3298Z" fill="url(#paint27_linear_6456_59062)"/>
<g style="mix-blend-mode:multiply" opacity="0.5">
<path d="M24 61L26.56 65.32L27.14 65.68V67C27.14 67 29.34 68.12 33.66 70.51C33.8 70.59 36.37 73.3 36.37 73.3C36.37 73.3 64.08 90.06 65.08 90.06C66.38 90.06 93.91 72.91 93.91 72.91C93.91 72.91 96.06 71.11 96.27 70.98L103.07 67.42V65.63L103.58 65.33L105.9 61L65.05 85.08L24 61Z" fill="#DE5634"/>
</g>
<path style="mix-blend-mode:multiply" opacity="0.69" d="M65.0508 77.1798V85.0798L105.901 60.9998C105.794 58.7062 105.321 56.4444 104.501 54.2998L65.0508 77.1798Z" fill="url(#paint28_linear_6456_59062)"/>
<g style="mix-blend-mode:soft-light" opacity="0.4">
<path d="M27.8493 56.0498C27.0993 56.0498 27.7193 62.6898 29.9893 64.2098C33.6093 66.6398 55.4393 79.4998 56.8693 79.5198C57.8693 79.5198 57.8093 73.8898 57.5093 73.4498C56.9993 72.6198 28.9993 56.0498 27.8493 56.0498Z" fill="#FFDF66"/>
</g>
<g style="mix-blend-mode:soft-light" opacity="0.4">
<path d="M77.1785 70.3601C76.7085 70.8501 76.7685 77.0601 77.5785 76.8701C84.1705 73.6697 90.5206 69.9933 96.5785 65.8701C102.388 61.6001 103.208 55.9601 101.908 56.0901C101.878 56.0501 78.1485 69.3501 77.1785 70.3601Z" fill="#FFDF66"/>
</g>
<path d="M45.0703 73.3799C45.0703 73.3799 63.8503 84.6399 65.0703 84.6399C66.2903 84.6399 81.2603 75.5399 81.2603 75.5399C81.2603 75.5399 65.5303 85.5399 65.1003 85.5399C64.6703 85.5399 45.0703 73.3799 45.0703 73.3799Z" fill="white"/>
<path d="M65.05 64.3099L25.83 41.4399C24.922 43.581 24.3064 45.8346 24 48.1399L26.56 52.4699L65.05 74.8499L103.58 52.4699L105.9 48.1399C105.829 45.8419 105.355 43.5741 104.5 41.4399L65.05 64.3099Z" fill="url(#paint29_linear_6456_59062)"/>
<path d="M26.5209 52.4701L23.9609 48.1401L65.0509 72.2101L105.901 48.1401L103.581 52.4701L65.0509 74.8401L26.5209 52.4701Z" fill="url(#paint30_linear_6456_59062)"/>
<g style="mix-blend-mode:multiply" opacity="0.5">
<path d="M24 48.1401L26.56 52.4701L27.14 52.8301V54.1101C27.14 54.1101 29.34 55.2301 33.66 57.6201C33.8 57.7001 36.37 60.4101 36.37 60.4101C36.37 60.4101 64.08 77.2001 65.08 77.2001C66.38 77.2001 93.91 60.0001 93.91 60.0001C93.91 60.0001 96.06 58.2001 96.27 58.0701L103.07 54.5101V52.7601L103.58 52.4701L105.9 48.1401L65.05 72.2101L24 48.1401Z" fill="#DE5634"/>
</g>
<path style="mix-blend-mode:multiply" opacity="0.69" d="M65.0508 64.3099V72.2099L105.901 48.1399C105.794 45.8464 105.321 43.5846 104.501 41.4399L65.0508 64.3099Z" fill="url(#paint31_linear_6456_59062)"/>
<g style="mix-blend-mode:soft-light" opacity="0.4">
<path d="M27.8493 43.1802C27.0993 43.1802 27.7193 49.8202 29.9893 51.3502C33.6093 53.7702 55.4393 66.6402 56.8693 66.6502C57.8693 66.6502 57.8093 61.0202 57.5093 60.5802C56.9993 59.7502 28.9993 43.1802 27.8493 43.1802Z" fill="#FFDF66"/>
</g>
<g style="mix-blend-mode:soft-light" opacity="0.4">
<path d="M77.1785 57.49C76.7085 57.98 76.7685 64.19 77.5785 64C84.1705 60.7995 90.5206 57.1231 96.5785 53C102.388 48.73 103.208 43.09 101.908 43.22C101.878 43.18 78.1485 56.49 77.1785 57.49Z" fill="#FFDF66"/>
</g>
<path d="M45.0703 60.5098C45.0703 60.5098 63.8503 71.7698 65.0703 71.7698C66.2903 71.7698 81.2603 62.6698 81.2603 62.6698C81.2603 62.6698 65.5303 72.6698 65.1003 72.6698C64.6703 72.6698 45.0703 60.5098 45.0703 60.5098Z" fill="white"/>
<g style="mix-blend-mode:multiply" opacity="0.5">
<path d="M64.7198 53.6301L56.2998 58.0601L57.8998 48.6801L51.0898 42.0401L60.5098 40.6701L64.7198 32.1401L68.9298 40.6701L78.3498 42.0401L71.5298 48.6801L73.1398 58.0601L64.7198 53.6301Z" fill="#DE5634"/>
</g>
<path d="M77.3603 42.3599L72.8203 41.6999L71.5803 41.5199L68.6303 41.0899L64.7203 33.1699L60.8103 41.0899L52.0703 42.3599L58.4003 48.5199L56.9003 57.2199L64.7203 53.1199L72.5303 57.2199L71.0403 48.5199L77.3603 42.3599Z" fill="url(#paint32_linear_6456_59062)"/>
<path style="mix-blend-mode:multiply" opacity="0.37" d="M52.0312 42.3599L64.9013 45.7199L58.3512 48.5199L52.0312 42.3599Z" fill="url(#paint33_linear_6456_59062)"/>
<path style="mix-blend-mode:multiply" opacity="0.37" d="M77.3184 42.3599L64.8984 45.7199L70.9984 48.5199L77.3184 42.3599Z" fill="url(#paint34_linear_6456_59062)"/>
<path style="mix-blend-mode:multiply" opacity="0.37" d="M64.6694 53.1202L64.8994 45.7202L56.8594 57.2202L64.6694 53.1202Z" fill="url(#paint35_linear_6456_59062)"/>
<path style="mix-blend-mode:multiply" opacity="0.37" d="M72.4919 57.2202L64.9019 45.7202L64.6719 53.1202L72.4919 57.2202Z" fill="url(#paint36_linear_6456_59062)"/>
<path style="mix-blend-mode:color-dodge" opacity="0.5" d="M64.6719 33.1699L64.9019 45.7199L68.5819 41.0899L64.6719 33.1699Z" fill="url(#paint37_linear_6456_59062)"/>
<path style="mix-blend-mode:color-dodge" opacity="0.5" d="M77.3184 42.3598L64.8984 45.7198L68.5784 41.0898L77.3184 42.3598Z" fill="url(#paint38_linear_6456_59062)"/>
<path style="mix-blend-mode:color-dodge" opacity="0.5" d="M77.3184 42.3598L64.8984 45.7198L68.5784 41.0898L77.3184 42.3598Z" fill="url(#paint39_linear_6456_59062)"/>
<path style="mix-blend-mode:color-dodge" opacity="0.5" d="M60.7713 41.0898L64.9013 45.7198L52.0312 42.3598L60.7713 41.0898Z" fill="url(#paint40_linear_6456_59062)"/>
<path d="M68.5798 43.84C67.9298 44.39 68.4898 44.75 68.4898 44.75L71.8298 43.84C71.359 43.4932 70.7896 43.3062 70.2048 43.3062C69.6201 43.3062 69.0507 43.4932 68.5798 43.84Z" fill="white"/>
<g style="mix-blend-mode:multiply" opacity="0.5">
<path d="M56.8984 57.2199C56.8984 57.2199 62.8284 54.4299 64.7184 53.6499L72.5284 57.2199L64.7184 53.1099L56.8984 57.2199Z" fill="#DE5634"/>
</g>
<g style="mix-blend-mode:multiply" opacity="0.5">
<path d="M52.0312 42.3599L64.9013 45.7199L57.8313 51.7999L52.0312 42.3599Z" fill="#DE5634"/>
</g>
<g style="mix-blend-mode:multiply" opacity="0.5">
<path d="M77.3184 42.3599L64.8984 45.7199L71.7384 52.6099L77.3184 42.3599Z" fill="#DE5634"/>
</g>
<g style="mix-blend-mode:multiply" opacity="0.5">
<path d="M56.8984 57.2202L64.8984 45.7202L72.5284 57.2202L64.7184 55.9902L56.8984 57.2202Z" fill="#DE5634"/>
</g>
<g style="mix-blend-mode:soft-light" opacity="0.4">
<path d="M61.8101 39.72C60.9801 42.02 64.1401 43.63 64.5701 42.92C65.0001 42.21 64.7301 38.26 64.1901 37.72C63.6501 37.18 62.1501 38.78 61.8101 39.72Z" fill="#F7FFFF"/>
</g>
<g style="mix-blend-mode:soft-light" opacity="0.4">
<path d="M59.2186 51.5299C60.8986 51.7599 61.8386 49.8399 62.2186 48.5299C62.7686 46.3999 56.1586 51.1099 59.2186 51.5299Z" fill="#F7FFFF"/>
</g>
<defs>
<linearGradient id="paint0_linear_6456_59062" x1="102.55" y1="71.1393" x2="102.542" y2="52.3468" gradientUnits="userSpaceOnUse">
<stop stop-color="#CA6B34"/>
<stop offset="0.67" stop-color="#FFA933"/>
<stop offset="1" stop-color="#FFBD2B"/>
</linearGradient>
<linearGradient id="paint1_linear_6456_59062" x1="41.5889" y1="94.6115" x2="41.4813" y2="75.8437" gradientUnits="userSpaceOnUse">
<stop stop-color="#CA6B34"/>
<stop offset="0.67" stop-color="#FFA933"/>
<stop offset="1" stop-color="#FFBD2B"/>
</linearGradient>
<linearGradient id="paint2_linear_6456_59062" x1="35.6997" y1="114.14" x2="60.6797" y2="114.14" gradientUnits="userSpaceOnUse">
<stop stop-color="#DE3C14"/>
<stop offset="0.07" stop-color="#C72E10"/>
<stop offset="0.19" stop-color="#AB1C0C"/>
<stop offset="0.3" stop-color="#971009"/>
<stop offset="0.41" stop-color="#8B0807"/>
<stop offset="0.52" stop-color="#870606"/>
<stop offset="0.62" stop-color="#8C0707"/>
<stop offset="0.73" stop-color="#9A0808"/>
<stop offset="0.85" stop-color="#B20B0B"/>
<stop offset="0.97" stop-color="#D30E0E"/>
<stop offset="1" stop-color="#DB0F0F"/>
</linearGradient>
<linearGradient id="paint3_linear_6456_59062" x1="69.1797" y1="114.14" x2="94.1597" y2="114.14" gradientUnits="userSpaceOnUse">
<stop stop-color="#DE3C14"/>
<stop offset="0.07" stop-color="#C72E10"/>
<stop offset="0.19" stop-color="#AB1C0C"/>
<stop offset="0.3" stop-color="#971009"/>
<stop offset="0.41" stop-color="#8B0807"/>
<stop offset="0.52" stop-color="#870606"/>
<stop offset="0.62" stop-color="#8C0707"/>
<stop offset="0.73" stop-color="#9A0808"/>
<stop offset="0.85" stop-color="#B20B0B"/>
<stop offset="0.97" stop-color="#D30E0E"/>
<stop offset="1" stop-color="#DB0F0F"/>
</linearGradient>
<linearGradient id="paint4_linear_6456_59062" x1="35.7019" y1="114.14" x2="60.6819" y2="114.14" gradientUnits="userSpaceOnUse">
<stop stop-color="#B41E2D"/>
<stop offset="1" stop-color="#E54136"/>
</linearGradient>
<linearGradient id="paint5_linear_6456_59062" x1="69.1797" y1="114.14" x2="94.1597" y2="114.14" gradientUnits="userSpaceOnUse">
<stop stop-color="#B41E2D"/>
<stop offset="1" stop-color="#E54136"/>
</linearGradient>
<linearGradient id="paint6_linear_6456_59062" x1="42.7503" y1="49.8" x2="42.7503" y2="16.99" gradientUnits="userSpaceOnUse">
<stop stop-color="#CA6B34"/>
<stop offset="0.67" stop-color="#FFA933"/>
<stop offset="1" stop-color="#FFBD2B"/>
</linearGradient>
<linearGradient id="paint7_linear_6456_59062" x1="39.1103" y1="39.5298" x2="39.1103" y2="8.60978" gradientUnits="userSpaceOnUse">
<stop stop-color="#CA6B34"/>
<stop offset="0.67" stop-color="#FFA933"/>
<stop offset="1" stop-color="#FFBD2B"/>
</linearGradient>
<linearGradient id="paint8_linear_6456_59062" x1="43.1704" y1="28.6202" x2="43.1704" y2="48.0802" gradientUnits="userSpaceOnUse">
<stop stop-color="#C10065"/>
<stop offset="1" stop-color="white"/>
</linearGradient>
<linearGradient id="paint9_linear_6456_59062" x1="87.0513" y1="49.8" x2="87.0513" y2="16.99" gradientUnits="userSpaceOnUse">
<stop stop-color="#CA6B34"/>
<stop offset="0.67" stop-color="#FFA933"/>
<stop offset="1" stop-color="#FFBD2B"/>
</linearGradient>
<linearGradient id="paint10_linear_6456_59062" x1="90.7492" y1="39.5298" x2="90.7492" y2="8.60978" gradientUnits="userSpaceOnUse">
<stop stop-color="#CA6B34"/>
<stop offset="0.67" stop-color="#FFA933"/>
<stop offset="1" stop-color="#FFBD2B"/>
</linearGradient>
<linearGradient id="paint11_linear_6456_59062" x1="86.6903" y1="28.6202" x2="86.6903" y2="48.0802" gradientUnits="userSpaceOnUse">
<stop stop-color="#C10065"/>
<stop offset="1" stop-color="white"/>
</linearGradient>
<linearGradient id="paint12_linear_6456_59062" x1="18.3092" y1="86.6102" x2="18.3092" y2="65.8602" gradientUnits="userSpaceOnUse">
<stop stop-color="#CA6B34"/>
<stop offset="0.67" stop-color="#FFA933"/>
<stop offset="1" stop-color="#FFBD2B"/>
</linearGradient>
<linearGradient id="paint13_linear_6456_59062" x1="20.7197" y1="75.4398" x2="20.7197" y2="85.1298" gradientUnits="userSpaceOnUse">
<stop stop-color="#C10065"/>
<stop offset="1" stop-color="white"/>
</linearGradient>
<linearGradient id="paint14_linear_6456_59062" x1="111.56" y1="86.6102" x2="111.56" y2="65.8602" gradientUnits="userSpaceOnUse">
<stop stop-color="#CA6B34"/>
<stop offset="0.67" stop-color="#FFA933"/>
<stop offset="1" stop-color="#FFBD2B"/>
</linearGradient>
<linearGradient id="paint15_linear_6456_59062" x1="109.138" y1="75.4398" x2="109.138" y2="85.1298" gradientUnits="userSpaceOnUse">
<stop stop-color="#C10065"/>
<stop offset="1" stop-color="white"/>
</linearGradient>
<linearGradient id="paint16_linear_6456_59062" x1="65.0798" y1="115.1" x2="65.0798" y2="32.61" gradientUnits="userSpaceOnUse">
<stop stop-color="#CA6B34"/>
<stop offset="0.67" stop-color="#FFA933"/>
<stop offset="1" stop-color="#FFBD2B"/>
</linearGradient>
<linearGradient id="paint17_linear_6456_59062" x1="65.0809" y1="18.1002" x2="65.0809" y2="101.02" gradientUnits="userSpaceOnUse">
<stop stop-color="#CA6B34"/>
<stop offset="0.17" stop-color="#CC6E34"/>
<stop offset="0.29" stop-color="#D27733"/>
<stop offset="0.39" stop-color="#DB8631"/>
<stop offset="0.48" stop-color="#E99B2F"/>
<stop offset="0.57" stop-color="#FBB72C"/>
<stop offset="0.59" stop-color="#FFBD2B"/>
<stop offset="1" stop-color="#FFA933"/>
</linearGradient>
<linearGradient id="paint18_linear_6456_59062" x1="65.08" y1="102.87" x2="65.08" y2="27.8301" gradientUnits="userSpaceOnUse">
<stop stop-color="#B75014"/>
<stop offset="0.38" stop-color="#E8692A"/>
<stop offset="1" stop-color="#F58E2F"/>
</linearGradient>
<linearGradient id="paint19_linear_6456_59062" x1="30.4885" y1="67.9902" x2="30.4885" y2="90.6202" gradientUnits="userSpaceOnUse">
<stop stop-color="#C10065"/>
<stop offset="1" stop-color="white"/>
</linearGradient>
<linearGradient id="paint20_linear_6456_59062" x1="99.5199" y1="67.9902" x2="99.5199" y2="90.6202" gradientUnits="userSpaceOnUse">
<stop stop-color="#C10065"/>
<stop offset="1" stop-color="white"/>
</linearGradient>
<linearGradient id="paint21_linear_6456_59062" x1="46.8296" y1="88.6701" x2="46.8296" y2="112.06" gradientUnits="userSpaceOnUse">
<stop stop-color="#C10065"/>
<stop offset="1" stop-color="white"/>
</linearGradient>
<linearGradient id="paint22_linear_6456_59062" x1="83.33" y1="88.6798" x2="83.33" y2="112.52" gradientUnits="userSpaceOnUse">
<stop stop-color="#C10065"/>
<stop offset="1" stop-color="white"/>
</linearGradient>
<linearGradient id="paint23_linear_6456_59062" x1="64.93" y1="29.2801" x2="64.93" y2="89.0701" gradientUnits="userSpaceOnUse">
<stop stop-color="#CA6B34"/>
<stop offset="0.67" stop-color="#FFA933"/>
<stop offset="1" stop-color="#FFBD2B"/>
</linearGradient>
<linearGradient id="paint24_linear_6456_59062" x1="64.9309" y1="100.52" x2="64.9309" y2="73.8198" gradientUnits="userSpaceOnUse">
<stop stop-color="#F1CB3C"/>
<stop offset="1" stop-color="#FFC14F"/>
</linearGradient>
<linearGradient id="paint25_linear_6456_59062" x1="85.4808" y1="67.1201" x2="85.4808" y2="97.8901" gradientUnits="userSpaceOnUse">
<stop stop-color="#C10065"/>
<stop offset="1" stop-color="white"/>
</linearGradient>
<linearGradient id="paint26_linear_6456_59062" x1="64.93" y1="20.5898" x2="64.93" y2="80.3798" gradientUnits="userSpaceOnUse">
<stop stop-color="#CA6B34"/>
<stop offset="0.67" stop-color="#FFA933"/>
<stop offset="1" stop-color="#FFBD2B"/>
</linearGradient>
<linearGradient id="paint27_linear_6456_59062" x1="64.9309" y1="87.7098" x2="64.9309" y2="61.0098" gradientUnits="userSpaceOnUse">
<stop stop-color="#F1CB3C"/>
<stop offset="1" stop-color="#FFC14F"/>
</linearGradient>
<linearGradient id="paint28_linear_6456_59062" x1="85.4808" y1="54.3098" x2="85.4808" y2="85.0798" gradientUnits="userSpaceOnUse">
<stop stop-color="#C10065"/>
<stop offset="1" stop-color="white"/>
</linearGradient>
<linearGradient id="paint29_linear_6456_59062" x1="64.93" y1="6.34994" x2="64.93" y2="66.1399" gradientUnits="userSpaceOnUse">
<stop stop-color="#CA6B34"/>
<stop offset="0.67" stop-color="#FFA933"/>
<stop offset="1" stop-color="#FFBD2B"/>
</linearGradient>
<linearGradient id="paint30_linear_6456_59062" x1="64.9309" y1="74.8501" x2="64.9309" y2="48.1401" gradientUnits="userSpaceOnUse">
<stop stop-color="#F1CB3C"/>
<stop offset="1" stop-color="#FFC14F"/>
</linearGradient>
<linearGradient id="paint31_linear_6456_59062" x1="85.4808" y1="41.4399" x2="85.4808" y2="72.2099" gradientUnits="userSpaceOnUse">
<stop stop-color="#C10065"/>
<stop offset="1" stop-color="white"/>
</linearGradient>
<linearGradient id="paint32_linear_6456_59062" x1="64.7203" y1="57.6799" x2="64.7203" y2="29.0899" gradientUnits="userSpaceOnUse">
<stop stop-color="#CA6B34"/>
<stop offset="0.67" stop-color="#FFA933"/>
<stop offset="1" stop-color="#FFBD2B"/>
</linearGradient>
<linearGradient id="paint33_linear_6456_59062" x1="58.4613" y1="42.3599" x2="58.4613" y2="48.5199" gradientUnits="userSpaceOnUse">
<stop stop-color="#C10065"/>
<stop offset="1" stop-color="white"/>
</linearGradient>
<linearGradient id="paint34_linear_6456_59062" x1="71.1084" y1="42.3599" x2="71.1084" y2="48.5199" gradientUnits="userSpaceOnUse">
<stop stop-color="#C10065"/>
<stop offset="1" stop-color="white"/>
</linearGradient>
<linearGradient id="paint35_linear_6456_59062" x1="60.8794" y1="45.7202" x2="60.8794" y2="57.2202" gradientUnits="userSpaceOnUse">
<stop stop-color="#C10065"/>
<stop offset="1" stop-color="white"/>
</linearGradient>
<linearGradient id="paint36_linear_6456_59062" x1="68.5819" y1="45.7202" x2="68.5819" y2="57.2202" gradientUnits="userSpaceOnUse">
<stop stop-color="#C10065"/>
<stop offset="1" stop-color="white"/>
</linearGradient>
<linearGradient id="paint37_linear_6456_59062" x1="65.8319" y1="35.0599" x2="67.5819" y2="51.0999" gradientUnits="userSpaceOnUse">
<stop stop-color="#BFD7FF"/>
<stop offset="1"/>
</linearGradient>
<linearGradient id="paint38_linear_6456_59062" x1="64.8984" y1="43.4098" x2="77.3184" y2="43.4098" gradientUnits="userSpaceOnUse">
<stop stop-color="#BFD7FF"/>
<stop offset="1"/>
</linearGradient>
<linearGradient id="paint39_linear_6456_59062" x1="70.0784" y1="34.5898" x2="71.8284" y2="50.6298" gradientUnits="userSpaceOnUse">
<stop stop-color="#BFD7FF"/>
<stop offset="1"/>
</linearGradient>
<linearGradient id="paint40_linear_6456_59062" x1="57.5813" y1="35.9598" x2="59.3313" y2="51.9998" gradientUnits="userSpaceOnUse">
<stop stop-color="#BFD7FF"/>
<stop offset="1"/>
</linearGradient>
</defs>
</svg>
