<svg width="142" height="136" viewBox="0 0 142 136" fill="none" xmlns="http://www.w3.org/2000/svg">
<path d="M28.2617 78.0898V111.59L43.8117 102.25L44.5917 78.9398L28.2617 78.0898Z" fill="url(#paint0_linear_6456_59183)"/>
<path d="M28.2617 105.36L43.9317 97.2598L43.8117 100.16L28.2617 109.5V105.36Z" fill="url(#paint1_linear_6456_59183)"/>
<path style="mix-blend-mode:multiply" opacity="0.8" d="M28.6517 92.92C29.5617 89.32 31.3817 91.83 31.3817 96.92C31.3817 102.01 30.7417 110.06 30.7417 110.06L32.1417 109.06C32.1417 109.06 32.0517 95.8 32.7417 94.2C33.4317 92.6 37.1817 93.14 37.1817 106.2L43.8117 102.2L44.5917 78.89L28.2617 78.04V96.47L28.6517 92.92Z" fill="url(#paint2_linear_6456_59183)"/>
<path d="M113.51 78.0898V111.59L97.9597 102.25L97.1797 78.9398L113.51 78.0898Z" fill="url(#paint3_linear_6456_59183)"/>
<path d="M113.512 105.36L97.8516 97.2598L97.9616 100.16L113.512 109.5V105.36Z" fill="url(#paint4_linear_6456_59183)"/>
<path style="mix-blend-mode:multiply" opacity="0.8" d="M113.13 92.92C112.21 89.32 110.39 91.83 110.39 96.92C110.39 102.01 111.03 110.06 111.03 110.06L109.63 109.06C109.63 109.06 109.72 95.8 109.03 94.2C108.34 92.6 104.6 93.14 104.6 106.2L97.9597 102.2L97.1797 78.89L113.51 78.04V96.47L113.13 92.92Z" fill="url(#paint5_linear_6456_59183)"/>
<path d="M66.83 102.44V135.27C56.91 130 42 114.75 42 114.75V92.0498L66.83 102.44Z" fill="url(#paint6_linear_6456_59183)"/>
<path d="M66.83 126.57V133.18C56.91 127.94 42 112.66 42 112.66V107C45.41 111.39 52.72 118.86 66.83 126.57Z" fill="url(#paint7_linear_6456_59183)"/>
<path d="M75.2891 102.44V135.27C85.2091 130.03 100.159 114.75 100.159 114.75V92.0498L75.2891 102.44Z" fill="url(#paint8_linear_6456_59183)"/>
<path d="M75.2891 126.57V133.18C85.2091 127.94 100.159 112.66 100.159 112.66V107C96.7091 111.39 89.3991 118.86 75.2891 126.57Z" fill="url(#paint9_linear_6456_59183)"/>
<path style="mix-blend-mode:multiply" opacity="0.8" d="M44.28 117.06C44.28 117.06 44.05 101.99 46.41 102.25C48.77 102.51 52.81 104.9 53.69 107.63C54.57 110.36 54.32 126.23 54.32 126.23L55.21 126.97C55.21 126.97 54.11 107.7 55.94 108.65C57.3003 109.311 58.4786 110.294 59.3726 111.514C60.2667 112.734 60.8493 114.154 61.07 115.65C61.92 119.95 62.17 132.47 62.17 132.47L66.83 135.26V102.44L42 92.0498V114.75L44.28 117.06Z" fill="url(#paint10_linear_6456_59183)"/>
<path style="mix-blend-mode:multiply" opacity="0.8" d="M97.8291 117.06C97.8291 117.06 98.0291 99.3998 95.6691 99.6598C93.3091 99.9198 93.2191 108.86 93.2191 111.59C93.2191 114.32 92.8491 121.77 92.8491 121.77L91.5191 123C91.5191 123 91.7091 102.92 89.8791 103.86C88.0491 104.8 79.9991 111 79.1591 115.3C78.3191 119.6 78.6291 133.3 78.6291 133.3L75.2891 135.3V102.44L100.159 92.0498V114.75L97.8291 117.06Z" fill="url(#paint11_linear_6456_59183)"/>
<path d="M81.0898 52.4301L135.72 52.0801L130.62 61.2401L83.8998 62.5301L81.0898 52.4301Z" fill="url(#paint12_linear_6456_59183)"/>
<path d="M130.84 52.0801L124.51 52.1201L119.09 61.5001L125.59 61.3201L130.84 52.0801Z" fill="url(#paint13_linear_6456_59183)"/>
<g style="mix-blend-mode:multiply" opacity="0.5">
<path d="M83.4883 59.6698L132.108 58.5498L130.618 61.2398L83.8983 62.5298L83.4883 59.6698Z" fill="#DE5634"/>
</g>
<g style="mix-blend-mode:soft-light" opacity="0.4">
<path d="M112.061 52.89C111.651 53.34 113.551 58.11 114.331 57.97C115.111 57.83 130.881 58.11 131.591 57.62C132.301 57.13 134.941 53.11 134.371 52.62C133.801 52.13 112.461 52.46 112.061 52.89Z" fill="#FFDF66"/>
</g>
<g style="mix-blend-mode:multiply" opacity="0.5">
<path d="M111 52.2002C111 52.2002 113 57.7802 113.08 59.0002C113.041 59.9662 112.781 60.9103 112.32 61.7602L83.8998 62.5402L81.0898 52.4402L111 52.2002Z" fill="#DE5634"/>
</g>
<path d="M61.0284 52.4301L6.39844 52.0801L11.4984 61.2401L58.2184 62.5301L61.0284 52.4301Z" fill="url(#paint14_linear_6456_59183)"/>
<path d="M11.1602 52.1201L17.4902 52.1601L22.9102 61.5401L16.4102 61.3601L11.1602 52.1201Z" fill="url(#paint15_linear_6456_59183)"/>
<g style="mix-blend-mode:multiply" opacity="0.5">
<path d="M58.6317 59.6698L10.0117 58.5498L11.5017 61.2398L58.2217 62.5298L58.6317 59.6698Z" fill="#DE5634"/>
</g>
<g style="mix-blend-mode:soft-light" opacity="0.4">
<path d="M29.6718 52.6897C31.0018 53.9997 28.6018 58.3597 27.8218 58.2097C27.0418 58.0597 11.2418 58.1097 10.5318 57.6197C9.82183 57.1297 7.18183 53.1097 7.75183 52.6197C8.32183 52.1297 28.8918 51.9997 29.6718 52.6897Z" fill="#FFDF66"/>
</g>
<g style="mix-blend-mode:multiply" opacity="0.5">
<path d="M31.17 52.2002C31.17 52.2002 29.11 57.7802 29 59.0002C29.0392 59.9662 29.2992 60.9103 29.76 61.7602L58.18 62.5402L61 52.4302L31.17 52.2002Z" fill="#DE5634"/>
</g>
<path d="M87.1484 40.6195L141.768 40.2695L136.668 49.4395L89.9484 50.7295L87.1484 40.6195Z" fill="url(#paint16_linear_6456_59183)"/>
<path d="M137.23 40.29L130.9 40.33L125.48 49.71L131.98 49.53L137.23 40.29Z" fill="url(#paint17_linear_6456_59183)"/>
<g style="mix-blend-mode:multiply" opacity="0.5">
<path d="M89.5508 47.86L138.171 46.75L136.671 49.44L89.9508 50.73L89.5508 47.86Z" fill="#DE5634"/>
</g>
<g style="mix-blend-mode:soft-light" opacity="0.4">
<path d="M118.12 41.0804C117.71 41.5304 119.61 46.3004 120.38 46.1604C121.15 46.0204 136.94 46.3004 137.65 45.8104C138.36 45.3204 141 41.3004 140.42 40.8104C139.84 40.3204 118.51 40.6504 118.12 41.0804Z" fill="#FFDF66"/>
</g>
<g style="mix-blend-mode:multiply" opacity="0.5">
<path d="M109.869 40.4805C109.869 40.4805 111.929 46.0605 111.999 47.2705C111.96 48.2378 111.697 49.1828 111.229 50.0305L89.9992 50.7305L87.1992 40.6205L109.869 40.4805Z" fill="#DE5634"/>
</g>
<path d="M54.63 40.6195L0 40.2695L5.1 49.4395L51.82 50.7295L54.63 40.6195Z" fill="url(#paint18_linear_6456_59183)"/>
<path d="M4.69922 40.3301L11.0292 40.3701L16.4492 49.7501L9.94922 49.5701L4.69922 40.3301Z" fill="url(#paint19_linear_6456_59183)"/>
<g style="mix-blend-mode:multiply" opacity="0.5">
<path d="M52.2216 47.86L3.60156 46.75L5.10156 49.44L51.8216 50.73L52.2216 47.86Z" fill="#DE5634"/>
</g>
<g style="mix-blend-mode:soft-light" opacity="0.4">
<path d="M23.2716 40.88C24.6316 42.17 22.2016 46.55 21.4216 46.4C20.6416 46.25 4.8316 46.3 4.1316 45.81C3.4316 45.32 0.771602 41.3 1.3516 40.81C1.9316 40.32 22.4916 40.14 23.2716 40.88Z" fill="#FFDF66"/>
</g>
<g style="mix-blend-mode:multiply" opacity="0.5">
<path d="M32.2081 40.4805C31.3603 42.6982 30.649 44.9658 30.0781 47.2705C30.1267 48.2267 30.3899 49.1598 30.8481 50.0005L51.8481 50.7005L54.6581 40.5905L32.2081 40.4805Z" fill="#DE5634"/>
</g>
<path d="M36.5416 50.65L33.8516 42.21L36.5216 38.85L54.5616 27.97V6.91L56.8516 5.25L64.0916 0V35.93L36.5416 50.65Z" fill="url(#paint20_linear_6456_59183)"/>
<path d="M33.8516 42.21L56.8516 29.04V5.25L54.5616 6.91V27.97L36.5216 38.85L33.8516 42.21Z" fill="url(#paint21_linear_6456_59183)"/>
<g style="mix-blend-mode:soft-light" opacity="0.4">
<path d="M57.3783 5.24985C57.2583 6.59985 57.4783 23.3399 58.2683 23.7299C59.0583 24.1199 63.1083 21.8299 63.4483 20.8999C63.7883 19.9699 63.5783 2.06985 62.9983 2.13985C62.4183 2.20985 57.4583 4.30985 57.3783 5.24985Z" fill="#FFDF66"/>
</g>
<path style="mix-blend-mode:multiply" opacity="0.37" d="M57.5101 29.3396C55.4601 30.9996 35.0001 42.2096 34.7301 42.9296C34.3801 43.8696 37.0901 48.2196 38.3801 47.8596C39.6701 47.4996 64.0001 33.6996 64.0601 33.0496C64.1201 32.3996 64.1701 28.8096 63.5801 28.5796C62.9901 28.3496 58.3001 28.6996 57.5101 29.3396Z" fill="url(#paint22_linear_6456_59183)"/>
<path d="M33.8516 42.9296L57.3316 29.2996L57.4616 4.84961L56.8516 5.24961V29.0396L33.8516 42.2096V42.9296Z" fill="#B33114"/>
<g style="mix-blend-mode:soft-light" opacity="0.4">
<path d="M54.8094 28.2101C53.4694 28.3001 36.8094 39.0101 36.8094 39.3201C36.8094 39.6301 33.8694 41.4401 34.5794 41.4001C35.2894 41.3601 56.3594 29.4201 56.3894 29.0001C56.4194 28.5801 55.5294 28.1601 54.8094 28.2101Z" fill="#FFDF66"/>
</g>
<g style="mix-blend-mode:soft-light" opacity="0.4">
<path d="M33.8516 42.9298C33.8516 42.9298 44.9616 37.3298 50.6516 33.7498C56.3416 30.1698 57.5116 29.3398 57.5116 29.3398L33.8516 42.9298Z" fill="#FFDF66"/>
</g>
<g style="mix-blend-mode:multiply" opacity="0.5">
<path d="M54.5611 25.2704L56.8511 23.3004H57.3511L64.0911 19.6104V35.9304L56.3911 39.8104L52.6211 29.1404L54.5611 27.9704V25.2704Z" fill="#DE5634"/>
</g>
<path d="M105.581 50.65L108.271 42.21L105.601 38.85L87.5606 27.97V6.91L85.2706 5.25L77.8906 0V35.85L105.581 50.65Z" fill="url(#paint23_linear_6456_59183)"/>
<path d="M108.27 42.21L85.2695 29.04V5.25L87.5595 6.91V27.97L105.6 38.85L108.27 42.21Z" fill="url(#paint24_linear_6456_59183)"/>
<g style="mix-blend-mode:soft-light" opacity="0.4">
<path d="M84.3583 5.24986C84.4783 6.59986 84.8183 23.3399 84.0383 23.7299C83.2583 24.1199 78.8983 21.5999 78.5583 20.6799C78.2183 19.7599 78.5583 2.06986 79.0883 2.13986C79.6183 2.20986 84.2783 4.30986 84.3583 5.24986Z" fill="#FFDF66"/>
</g>
<path style="mix-blend-mode:multiply" opacity="0.37" d="M84.6112 29.3396C86.6112 31.0296 107.111 42.2096 107.391 42.9296C107.741 43.8696 105.031 48.2196 103.741 47.8596C102.451 47.4996 78.1112 33.6996 78.0612 33.0496C78.0112 32.3996 77.9512 28.8096 78.5412 28.5796C79.1312 28.3496 83.8212 28.6996 84.6112 29.3396Z" fill="url(#paint25_linear_6456_59183)"/>
<path d="M108.27 42.9296L84.7902 29.2996L84.6602 4.84961L85.2701 5.24961V29.0396L108.27 42.2096V42.9296Z" fill="#B33114"/>
<g style="mix-blend-mode:soft-light" opacity="0.4">
<path d="M87.3112 28.2101C88.6512 28.3001 105.311 39.0101 105.311 39.3201C105.311 39.6301 108.251 41.4401 107.541 41.4001C106.831 41.3601 85.7612 29.4201 85.7312 29.0001C85.7012 28.5801 86.5912 28.1601 87.3112 28.2101Z" fill="#FFDF66"/>
</g>
<g style="mix-blend-mode:soft-light" opacity="0.4">
<path d="M108.269 42.9298C108.269 42.9298 97.1494 37.3298 91.4694 33.7498C85.7894 30.1698 84.6094 29.3398 84.6094 29.3398L108.269 42.9298Z" fill="#FFDF66"/>
</g>
<g style="mix-blend-mode:multiply" opacity="0.5">
<path d="M87.5612 25.2704L85.2712 23.3004H84.7712L78.0312 19.6104V35.9304L85.7313 39.8104L89.5013 29.1404L87.5612 27.9704V25.2704Z" fill="#DE5634"/>
</g>
<path d="M35.2081 86.2899C35.1181 86.6099 21.5881 81.9099 21.5881 81.9099C18.1487 76.7459 15.2945 71.2152 13.0781 65.4199H36.1881L35.2081 86.2899Z" fill="url(#paint26_linear_6456_59183)"/>
<path d="M17.4883 65.4199C17.4883 65.4199 22.8783 76.5699 23.8683 77.7699L35.5583 78.0899V77.2899C35.5583 77.2899 24.8583 77.3799 24.2483 76.9299C23.6383 76.4799 18.1683 65.4199 18.1683 65.4199H17.4883Z" fill="#B33114"/>
<path d="M17.4883 65.4199L23.8683 77.7699C22.4841 75.7959 21.2282 73.735 20.1083 71.5999C19.1299 69.586 18.2554 67.5233 17.4883 65.4199Z" fill="white"/>
<g style="mix-blend-mode:soft-light" opacity="0.4">
<path d="M19.1403 66.1801C20.0303 68.8401 23.5903 74.8901 24.3303 74.8901C25.0703 74.8901 33.6403 74.7401 34.4303 73.5101C35.2203 72.2801 35.9003 66.3001 35.2103 66.1801C34.5203 66.0601 18.7403 65.0001 19.1403 66.1801Z" fill="#FFDF66"/>
</g>
<g style="mix-blend-mode:soft-light" opacity="0.4">
<path d="M13.8416 65.8896C14.9416 68.4996 18.0016 75.1396 18.5716 75.2196C19.1416 75.2996 21.0516 75.5396 21.0816 74.7396C21.0816 73.4696 17.5416 66.0596 16.7416 65.8896C15.9416 65.7196 13.5716 65.2496 13.8416 65.8896Z" fill="#FFDF66"/>
</g>
<path style="mix-blend-mode:multiply" opacity="0.37" d="M19.1313 76.09C19.0313 76.92 22.1313 81.17 22.6213 81.51C23.1113 81.85 33.5113 85.2 34.1913 84.72C34.8713 84.24 35.1913 75.48 34.6613 75.23C34.1313 74.98 19.2513 75.18 19.1313 76.09Z" fill="url(#paint27_linear_6456_59183)"/>
<g style="mix-blend-mode:multiply" opacity="0.5">
<path d="M28.4219 65.4199C29.5372 71.7902 30.0262 78.2544 29.8819 84.7199L35.2119 86.2899L36.2119 65.4199H28.4219Z" fill="#DE5634"/>
</g>
<path d="M106.91 86.2899C107 86.6099 120.53 81.9099 120.53 81.9099C123.955 76.7441 126.796 71.2134 129 65.4199H105.93L106.91 86.2899Z" fill="url(#paint28_linear_6456_59183)"/>
<path d="M124.629 65.4199C124.629 65.4199 119.239 76.5699 118.249 77.7699L106.559 78.0899V77.2899C106.559 77.2899 117.259 77.3799 117.869 76.9299C118.479 76.4799 123.999 65.4199 123.999 65.4199H124.629Z" fill="#B33114"/>
<path d="M124.63 65.4199L118.25 77.7699C119.631 75.7956 120.883 73.7347 122 71.5999C122.982 69.5862 123.86 67.5235 124.63 65.4199Z" fill="white"/>
<g style="mix-blend-mode:soft-light" opacity="0.4">
<path d="M123 66.1801C122.11 68.8401 118.55 74.8901 117.81 74.8901C117.07 74.8901 108.5 74.7401 107.71 73.5101C106.92 72.2801 106.24 66.3001 106.93 66.1801C107.62 66.0601 123.38 65.0001 123 66.1801Z" fill="#FFDF66"/>
</g>
<g style="mix-blend-mode:soft-light" opacity="0.4">
<path d="M128.279 65.8896C127.179 68.4996 124.119 75.1396 123.549 75.2196C122.979 75.2996 121.069 75.5396 121.039 74.7396C121.039 73.4696 124.579 66.0596 125.369 65.8896C126.159 65.7196 128.549 65.2496 128.279 65.8896Z" fill="#FFDF66"/>
</g>
<path style="mix-blend-mode:multiply" opacity="0.37" d="M122.998 76.09C123.098 76.92 119.998 81.17 119.508 81.51C119.018 81.85 108.618 85.2 107.938 84.72C107.258 84.24 106.938 75.48 107.468 75.23C107.998 74.98 122.868 75.18 122.998 76.09Z" fill="url(#paint29_linear_6456_59183)"/>
<g style="mix-blend-mode:multiply" opacity="0.5">
<path d="M113.7 65.4199C112.585 71.7902 112.096 78.2544 112.24 84.7199L106.91 86.2899L105.91 65.4199H113.7Z" fill="#DE5634"/>
</g>
<path d="M88.3713 28.7299C88.1313 28.4999 98.5813 18.7299 98.5813 18.7299C104.75 18.0796 110.972 18.1198 117.131 18.8499L106.391 39.2899L88.3713 28.7299Z" fill="url(#paint30_linear_6456_59183)"/>
<path d="M115.079 22.7405C115.079 22.7405 102.709 22.3305 101.179 22.6505L95.4688 32.8504L96.1787 33.2205C96.1787 33.2205 101.069 23.7004 101.749 23.3804C102.429 23.0604 114.749 23.3804 114.749 23.3804L115.079 22.7405Z" fill="#B33114"/>
<path d="M114.769 23.3398H102.059C102.059 23.3398 105.059 23.6798 108.269 23.7498C110.442 23.7636 112.614 23.6266 114.769 23.3398Z" fill="white"/>
<path style="mix-blend-mode:multiply" opacity="0.37" d="M113.649 23.8497C110.869 23.3997 103.859 23.7297 103.519 24.3897C103.179 25.0497 99.3187 32.7097 100.049 33.9797C100.779 35.2497 105.749 38.6297 106.169 38.0797C106.589 37.5297 114.879 24.0497 113.649 23.8497Z" fill="url(#paint31_linear_6456_59183)"/>
<path style="mix-blend-mode:multiply" opacity="0.37" d="M116.369 19.2896C113.539 19.0496 106.239 18.6696 105.909 19.1396C105.579 19.6096 104.469 21.1896 105.159 21.5796C106.269 22.2096 114.499 22.4896 115.019 21.8596C115.539 21.2296 117.059 19.3496 116.369 19.2896Z" fill="url(#paint32_linear_6456_59183)"/>
<g style="mix-blend-mode:soft-light" opacity="0.4">
<path d="M104.871 19.2302C104.191 18.7602 99.0014 19.5102 98.4614 19.8002C97.9214 20.0902 90.1314 27.7302 90.2314 28.5502C90.3314 29.3702 97.9314 33.7702 98.4214 33.3902C98.9114 33.0102 105.631 19.7602 104.871 19.2302Z" fill="#FFDF66"/>
</g>
<g style="mix-blend-mode:multiply" opacity="0.5">
<path d="M107.761 36.6804C107.761 36.6804 99.2611 30.5404 91.2011 25.8604L88.3711 28.7304L106.371 39.2904L107.761 36.6804Z" fill="#DE5634"/>
</g>
<path d="M53.75 28.73C53.99 28.5 43.54 18.73 43.54 18.73C37.3755 18.0738 31.1571 18.1074 25 18.83L35.73 39.29L53.75 28.73Z" fill="url(#paint33_linear_6456_59183)"/>
<path d="M27 22.7405C27 22.7405 39.37 22.3305 40.9 22.6505L46.61 32.8504L45.9 33.2205C45.9 33.2205 41.01 23.7004 40.33 23.3804C39.65 23.0604 27.33 23.3804 27.33 23.3804L27 22.7405Z" fill="#B33114"/>
<path d="M27.3516 23.3398H40.3516C40.3516 23.3398 36.5516 23.5098 33.3516 23.5798C31.3485 23.628 29.3444 23.5478 27.3516 23.3398Z" fill="white"/>
<path style="mix-blend-mode:multiply" opacity="0.37" d="M28.4681 23.8497C31.2481 23.3997 38.2581 23.7297 38.5981 24.3897C38.9381 25.0497 42.7981 32.7097 42.0681 33.9797C41.3381 35.2497 36.3681 38.6297 35.9481 38.0797C35.5281 37.5297 27.2381 24.0497 28.4681 23.8497Z" fill="url(#paint34_linear_6456_59183)"/>
<path style="mix-blend-mode:multiply" opacity="0.37" d="M25.7507 19.2896C28.5807 19.0496 35.8807 18.6696 36.2107 19.1396C36.5407 19.6096 37.6507 21.1896 36.9507 21.5796C35.8507 22.2096 27.6207 22.4896 27.1007 21.8596C26.5807 21.2296 25.0607 19.3496 25.7507 19.2896Z" fill="url(#paint35_linear_6456_59183)"/>
<g style="mix-blend-mode:soft-light" opacity="0.4">
<path d="M37.2513 19.2302C37.9313 18.7602 43.1213 19.5102 43.6613 19.8002C44.2013 20.0902 51.9913 27.7302 51.8913 28.5502C51.7913 29.3702 44.1913 33.7702 43.7013 33.3902C43.2113 33.0102 36.4913 19.7602 37.2513 19.2302Z" fill="#FFDF66"/>
</g>
<g style="mix-blend-mode:multiply" opacity="0.5">
<path d="M34.3594 36.6804C34.3594 36.6804 42.8594 30.5404 50.9194 25.8604L53.7494 28.7304L35.7494 39.2904L34.3594 36.6804Z" fill="#DE5634"/>
</g>
<path d="M71.2089 17.1797L33.3789 39.0197V91.1297L71.2089 112.97L109.039 91.1297V39.0197L71.2089 17.1797Z" fill="url(#paint36_linear_6456_59183)"/>
<path d="M40.2188 87.1801V42.9701L71.2087 25.0801L102.199 42.9701V87.1801L71.2087 105.07L40.2188 87.1801Z" fill="url(#paint37_linear_6456_59183)"/>
<path d="M42.5 85.86V44.28L71.21 27.71L99.92 44.28V85.86L71.21 102.44L42.5 85.86Z" fill="url(#paint38_linear_6456_59183)"/>
<g style="mix-blend-mode:soft-light" opacity="0.4">
<path d="M34.3215 39.1604C33.8615 40.5604 37.8715 42.2804 40.7115 41.6704C43.5515 41.0604 70.1615 25.4304 70.8115 24.0004C71.007 22.0553 71.007 20.0955 70.8115 18.1504C69.8715 18.1804 34.5515 38.4704 34.3215 39.1604Z" fill="#FFDF66"/>
</g>
<g style="mix-blend-mode:soft-light" opacity="0.4">
<path d="M107.909 39.1604C108.379 40.5604 104.359 42.2804 101.529 41.6704C98.6988 41.0604 72.3188 25.2804 71.4188 24.0004C70.9588 23.3504 70.8088 18.1504 71.4188 18.1504C72.3588 18.1804 107.679 38.4704 107.909 39.1604Z" fill="#FFDF66"/>
</g>
<path style="mix-blend-mode:multiply" opacity="0.37" d="M34.2805 68.79C34.0305 70.35 33.4105 90.08 34.2805 90.23C35.1505 90.38 39.2805 87.57 39.4905 86.23C39.7005 84.89 39.8005 71.41 39.4905 70.11C39.1805 68.81 34.7105 66.2 34.2805 68.79Z" fill="url(#paint39_linear_6456_59183)"/>
<path style="mix-blend-mode:multiply" opacity="0.37" d="M107.999 68.79C108.259 70.35 108.879 90.08 107.999 90.23C107.119 90.38 102.999 87.57 102.799 86.23C102.599 84.89 102.489 71.41 102.799 70.11C103.109 68.81 107.559 66.2 107.999 68.79Z" fill="url(#paint40_linear_6456_59183)"/>
<path style="mix-blend-mode:multiply" opacity="0.37" d="M35.231 90.7702C35.691 91.4402 69.761 111.59 70.281 111.59C70.531 111.59 70.881 106.59 70.881 106.02C70.881 104.47 40.751 88.4702 40.221 88.3202C39.441 88.1002 34.771 90.0802 35.231 90.7702Z" fill="url(#paint41_linear_6456_59183)"/>
<path style="mix-blend-mode:multiply" opacity="0.37" d="M107.241 91.2998C106.791 91.9698 72.0814 112.05 71.5614 112.05C71.4334 109.897 71.4735 107.737 71.6814 105.59C72.7814 104.49 101.511 88.4698 102.041 88.3198C102.821 88.0998 107.711 90.6098 107.241 91.2998Z" fill="url(#paint42_linear_6456_59183)"/>
<g style="mix-blend-mode:multiply" opacity="0.37">
<path d="M43.811 84.7604C41.811 73.2404 42.921 72.5104 57.211 67.6404C71.501 62.7704 95.671 50.2304 97.801 55.6404C99.931 61.0504 99.191 84.2704 98.711 85.5304C98.231 86.7904 73.271 101.14 71.211 101.18C69.151 101.22 44.001 86.0504 43.811 84.7604Z" fill="#ED8A1D"/>
</g>
<g style="mix-blend-mode:soft-light" opacity="0.4">
<path d="M99.2987 44.5699C98.7887 44.4499 72.8487 29.4599 71.3887 29.5699C69.9287 29.6799 51.9187 38.1299 44.5087 44.5699C42.5087 46.2699 43.2487 71.7099 45.0787 71.2399C46.9087 70.7699 48.2587 60.4899 68.3387 54.7099C88.1087 49.0299 96.7087 53.9499 98.8487 54.8299C99.4587 54.9999 100.449 44.8499 99.2987 44.5699Z" fill="#FFDF66"/>
</g>
<g style="mix-blend-mode:multiply" opacity="0.5">
<path d="M40.2188 87.1804V43.0004L71.2188 25.1104L102.199 43.0004V87.1804L99.9187 85.8604C99.9187 85.8604 100.059 47.4304 99.2288 46.2304C96.2288 41.9304 73.3587 31.4704 69.5887 32.6304C65.8187 33.7904 45.3588 42.5004 43.0788 46.1504C42.3088 47.3804 42.4987 85.8604 42.4987 85.8604L40.2188 87.1804Z" fill="#DE5634"/>
</g>
<g style="mix-blend-mode:soft-light" opacity="0.4">
<path d="M76.9994 48.9999C84.7194 52.5199 96.3494 52.5899 97.4194 51.9099C98.4894 51.2299 99.1894 46.2899 97.5194 45.4499C95.8494 44.6099 82.5894 37.5599 79.0994 38.3199C75.6094 39.0799 75.6294 48.3799 76.9994 48.9999Z" fill="#FFDF66"/>
</g>
<path opacity="0.8" d="M33.3789 54.8897C33.3789 54.7797 33.6989 40.1997 34.3189 39.1597C34.9389 38.1197 70.3889 18.4597 71.4189 18.1597C72.4489 17.8597 85.7389 25.5397 85.7389 25.5397L71.2089 17.1797L33.3789 38.9997V54.8897Z" fill="#700000"/>
<path d="M84.75 32.8896C84.75 32.8896 101.37 42.3496 101.6 43.4096C101.83 44.4696 102.2 73.0497 102.2 73.0497C102.2 73.0497 102.35 44.1897 102.2 42.9697C102.05 41.7497 84.75 32.8896 84.75 32.8896Z" fill="white"/>
<path d="M40.22 67.2001C40.22 67.2001 39.67 43.3001 40 42.5201C40.33 41.7401 71.21 25.0801 71.21 25.0801C71.21 25.0801 41.29 42.1801 40.68 43.2601C40.07 44.3401 40.22 67.2001 40.22 67.2001Z" fill="white"/>
<path opacity="0.8" d="M33.3789 91.1301L71.2089 113L108.999 91.1301V79.2601C108.999 79.2601 108.679 89.6201 107.909 90.9201C107.139 92.2201 73.2489 111.92 71.5189 112.05C69.7889 112.18 35.1889 91.6001 34.2789 90.2301C33.3689 88.8601 33.3789 64.5801 33.3789 64.5801V91.1301Z" fill="#700000"/>
<g style="mix-blend-mode:soft-light" opacity="0.4">
<path d="M40.22 75.8599C40.22 75.8599 40.11 86.0599 40.68 86.9199C41.25 87.7799 55.94 96.2599 55.94 96.2599C55.94 96.2599 40 87.9999 39.87 87.4899C39.74 86.9799 40.22 75.8599 40.22 75.8599Z" fill="#FFDF66"/>
</g>
<g style="mix-blend-mode:soft-light" opacity="0.4">
<path d="M53.0016 96.4702C51.8816 96.4702 48.7516 97.7202 49.4316 98.4702C50.1116 99.2202 68.7316 110.47 70.8516 111.22C71.5516 111.48 71.4816 107.04 70.5516 105.61C70.1716 105 56.4816 96.4602 53.0016 96.4702Z" fill="#FFDF66"/>
</g>
<path d="M86.9981 27.7904C86.3881 27.9504 88.4381 30.5304 89.4081 30.7904C90.3781 31.0504 91.7181 30.3304 91.2481 29.8604C90.7781 29.3904 87.9381 27.5304 86.9981 27.7904Z" fill="white"/>
<path d="M91.5281 30.3398C90.5981 30.5898 92.3081 34.6598 93.0381 35.3398C93.7681 36.0198 100.278 37.3398 100.128 36.1598C99.9781 34.9798 92.8281 29.9998 91.5281 30.3398Z" fill="white"/>
<g style="mix-blend-mode:multiply" opacity="0.5">
<path d="M88.6494 96.5698C87.8394 100.13 87.9694 102.22 88.4294 102.25C88.8894 102.28 105.429 92.3098 105.879 91.8698C106.329 91.4298 103.219 88.5798 101.949 88.7698C100.679 88.9598 88.9994 95.2398 88.6494 96.5698Z" fill="#DE5634"/>
</g>
<g style="mix-blend-mode:multiply" opacity="0.5">
<path d="M42.2294 43.9996C41.8294 42.8096 40.5994 42.8096 40.4894 44.1496C40.3794 45.4896 40.1894 70.2596 40.6794 70.2996C41.1694 70.3396 42.1894 69.1196 42.2294 68.5496C42.2694 67.9796 42.4194 44.5496 42.2294 43.9996Z" fill="#DE5634"/>
</g>
<g style="mix-blend-mode:multiply" opacity="0.5">
<path d="M100.189 44.1402C100.119 44.6102 99.8894 68.0002 100.189 68.0002C100.489 68.0002 101.859 66.8902 101.859 66.3202C101.859 65.7502 101.519 43.6402 101.369 43.5302C101.219 43.4202 100.239 43.7502 100.189 44.1402Z" fill="#DE5634"/>
</g>
<g style="mix-blend-mode:multiply" opacity="0.5">
<path d="M71.2103 27.3299C71.2103 27.7899 57.8803 35.3899 57.5603 35.3899C57.2403 35.3899 57.3603 33.3899 57.7903 33.0599C58.2203 32.7299 71.1103 25.0599 71.2103 25.2699C71.2554 25.9558 71.2554 26.6439 71.2103 27.3299Z" fill="#DE5634"/>
</g>
<path d="M98.719 89C97.869 89 94.999 90.64 95.219 91.45C95.439 92.26 97.219 93.15 97.659 92.68C98.099 92.21 99.279 89 98.719 89Z" fill="#B33114"/>
<path d="M99.8208 89.5301C99.5308 89.8001 98.8908 90.7601 99.5008 91.2301C100.111 91.7001 101.891 90.4601 101.631 90.1001C101.371 89.7401 100.201 89.1801 99.8208 89.5301Z" fill="#B33114"/>
<g style="mix-blend-mode:multiply" opacity="0.5">
<path d="M95.6385 90.59C94.9285 91.59 97.8385 92.19 98.2085 91.38C98.5785 90.57 99.2085 88.87 98.7185 88.96C97.5998 89.3081 96.5555 89.8608 95.6385 90.59Z" fill="#DE5634"/>
</g>
<path d="M95.2297 91.1802C95.4242 91.739 95.8151 92.2081 96.3297 92.5002C96.9997 92.9002 97.5897 92.8102 97.7597 92.5002C97.5912 92.7 97.3592 92.8358 97.1025 92.885C96.8458 92.9342 96.5801 92.8936 96.3497 92.7702C94.9997 92.1502 95.2297 91.1802 95.2297 91.1802Z" fill="#DAE1EF"/>
<g style="mix-blend-mode:multiply" opacity="0.5">
<path d="M100.14 89.5602C99.4901 90.2602 100 91.2802 100.37 91.2302C100.74 91.1802 101.83 90.4402 101.63 90.1002C101.43 89.7602 100.29 89.4002 100.14 89.5602Z" fill="#DE5634"/>
</g>
<path d="M99.8196 89.5298C99.8196 89.5298 99.2196 90.3598 99.4596 90.8398C99.6996 91.3198 100.04 91.3098 100.04 91.3098C100.04 91.3098 99.2596 91.7698 99.1196 91.2398C99.0801 90.9187 99.1238 90.5928 99.2463 90.2934C99.3689 89.994 99.5663 89.7311 99.8196 89.5298Z" fill="#DAE1EF"/>
<path d="M67.3107 27.0696C65.3107 26.5296 63.6307 27.8496 62.7307 28.8596C61.8307 29.8696 62.3407 30.4796 63.4607 30.2796C64.5807 30.0796 68.1707 27.2996 67.3107 27.0696Z" fill="#B33114"/>
<g style="mix-blend-mode:multiply" opacity="0.5">
<path d="M67.3089 27.0698C66.6666 26.9412 66.0036 26.958 65.3685 27.1189C64.7335 27.2798 64.1425 27.5808 63.6389 27.9998C63.0989 28.4798 64.1689 29.8598 64.9089 29.5698C65.6489 29.2798 67.9389 27.2798 67.3089 27.0698Z" fill="#DE5634"/>
</g>
<g style="mix-blend-mode:soft-light" opacity="0.4">
<path d="M63.2513 28.3398C63.2513 28.3398 60.9413 29.8498 61.2513 30.5898C61.5613 31.3298 64.2513 29.9798 64.2513 29.9798C64.2513 29.9798 62.8213 30.4498 62.5013 29.8098C62.1813 29.1698 63.2513 28.3398 63.2513 28.3398Z" fill="#FFDF66"/>
</g>
<path d="M41.5394 87.4801C40.4494 87.7601 43.6694 89.9601 44.4294 90.0801C45.1894 90.2001 44.4294 88.2601 44.0694 87.9201C43.2788 87.5556 42.4067 87.404 41.5394 87.4801Z" fill="white"/>
<path d="M71.1817 89.6098L32.1317 66.8398C31.2096 68.9684 30.5806 71.2122 30.2617 73.5098L32.8117 77.8098L71.1817 100.1L109.552 77.8098L111.862 73.5098C111.785 71.2221 111.312 68.9651 110.462 66.8398L71.1817 89.6098Z" fill="url(#paint43_linear_6456_59183)"/>
<path d="M32.8117 77.8098L30.2617 73.5098L71.1817 97.4798L111.862 73.5098L109.552 77.8098L71.1817 100.1L32.8117 77.8098Z" fill="url(#paint44_linear_6456_59183)"/>
<g style="mix-blend-mode:multiply" opacity="0.5">
<path d="M30.2617 73.5098L32.8117 77.8098L33.3917 78.1698V79.4598C33.3917 79.4598 35.5817 80.5698 39.8817 82.9498C40.0217 83.0298 42.5817 85.7298 42.5817 85.7298C42.5817 85.7298 70.2217 102.44 71.2217 102.44C72.5117 102.44 99.9317 85.3598 99.9317 85.3598C99.9317 85.3598 102.062 83.5598 102.282 83.4398L109.002 79.8898V78.1098L109.512 77.8098L111.822 73.5098L71.1417 97.5098L30.2617 73.5098Z" fill="#DE5634"/>
</g>
<path style="mix-blend-mode:multiply" opacity="0.69" d="M71.1797 89.6096V97.4796L111.86 73.4796C111.753 71.1956 111.28 68.9436 110.46 66.8096L71.1797 89.6096Z" fill="url(#paint45_linear_6456_59183)"/>
<g style="mix-blend-mode:soft-light" opacity="0.4">
<path d="M34.1401 68.5596C33.3901 68.5596 34.0001 75.1796 36.2701 76.6996C39.8801 79.1096 61.6101 91.9196 63.0001 91.9396C64.0001 91.9396 63.9401 86.3296 63.6401 85.9396C63.1101 85.0696 35.2501 68.5596 34.1401 68.5596Z" fill="#FFDF66"/>
</g>
<g style="mix-blend-mode:soft-light" opacity="0.4">
<path d="M83.2609 82.8196C82.7809 83.2996 82.8509 89.4896 83.6609 89.2996C90.2136 86.0975 96.5238 82.421 102.541 78.2996C108.331 74.0496 109.151 68.4396 107.851 68.5696C107.851 68.5696 84.2309 81.8196 83.2609 82.8196Z" fill="#FFDF66"/>
</g>
<path d="M70.9417 40L110.002 62.8C110.924 60.6715 111.553 58.4277 111.872 56.13L109.322 51.82L70.9417 29.54L32.5717 51.82L30.2617 56.13C30.3379 58.4178 30.8117 60.6747 31.6617 62.8L70.9417 40Z" fill="url(#paint46_linear_6456_59183)"/>
<path d="M109.312 51.82L111.862 56.13L70.9417 32.16L30.2617 56.13L32.5717 51.82L70.9417 29.54L109.312 51.82Z" fill="url(#paint47_linear_6456_59183)"/>
<g style="mix-blend-mode:multiply" opacity="0.6">
<path d="M99.8317 61.8L102.192 60.19L109.002 64V62.24C109.002 62.24 106.282 60.52 102.002 58.15L99.7117 56.73C99.7117 56.73 72.0917 40 71.0917 40C69.8017 40 42.3517 56.6 42.3517 56.6L40.0717 57.8L33.3817 61.69L33.2617 64.35L40.3617 59.77L42.5017 61.84L71.1217 45L99.8317 61.8Z" fill="#DE5634"/>
</g>
<g style="mix-blend-mode:soft-light" opacity="0.4">
<path d="M70.9417 40.0002V32.1602L30.2617 56.1602C30.3693 58.444 30.8419 60.6958 31.6617 62.8302L70.9417 40.0002Z" fill="#FFDF66"/>
</g>
<path style="mix-blend-mode:multiply" opacity="0.69" d="M108 61.0702C108.75 61.0702 108.14 54.4602 105.87 52.9402C102.26 50.5202 80.5304 37.7102 79.1104 37.7002C78.1104 37.7002 78.1704 43.3002 78.4704 43.7002C79.0004 44.5602 106.87 61.0702 108 61.0702Z" fill="url(#paint48_linear_6456_59183)"/>
<g style="mix-blend-mode:soft-light" opacity="0.4">
<path d="M58.8599 46.82C59.3299 46.33 59.2699 40.15 58.4599 40.33C51.9114 43.5402 45.6019 47.2163 39.5799 51.33C33.7799 55.58 32.9699 61.19 34.2699 61.07C34.2699 61.07 57.8899 47.82 58.8599 46.82Z" fill="#FFDF66"/>
</g>
<path d="M90.8386 43.8105C90.8386 43.8105 72.1386 32.6005 70.9386 32.6005C69.7386 32.6005 54.8086 41.6605 54.8086 41.6605C54.8086 41.6605 70.4786 31.7305 70.9086 31.7305C71.3386 31.7305 90.8386 43.8105 90.8386 43.8105Z" fill="white"/>
<g style="mix-blend-mode:multiply" opacity="0.5">
<path d="M57.1016 25.3297C56.9586 26.0618 56.875 26.8042 56.8516 27.5497C56.9316 27.8997 59.5616 31.7997 59.5616 31.7997V34.4397L71.3116 45.4397L82.9316 34.7997L83.4416 32.2197C83.4416 32.2197 86.0516 28.1197 86.0516 27.5497C86.0516 26.9797 83.6516 24.3397 83.6516 24.3397L71.2116 17.1797L57.1016 25.3297Z" fill="#DE5634"/>
</g>
<path d="M85.0017 26.6304L84.9417 26.5504L71.4517 8.00039L71.3817 7.90039L71.3117 8.00039L57.8217 26.5504L57.7617 26.6304L57.8217 26.7204L71.3117 45.2404V45.4404L71.3817 45.3404L71.4517 45.4404V45.2404L84.9417 26.7204L85.0017 26.6304Z" fill="url(#paint49_linear_6456_59183)"/>
<g style="mix-blend-mode:multiply" opacity="0.5">
<path d="M60.5781 26.6298L71.3781 11.7998L82.1781 26.6298L71.3781 41.4598L60.5781 26.6298Z" fill="#DE5634"/>
</g>
<path d="M61.1484 26.6301L71.3784 12.5801L81.6184 26.6301L71.3784 40.6901L61.1484 26.6301Z" fill="url(#paint50_linear_6456_59183)"/>
<g style="mix-blend-mode:soft-light" opacity="0.4">
<path d="M71.2182 8.92965C69.9982 10.0896 58.4882 25.7096 58.7182 26.1396C58.9482 26.5696 63.4482 26.5796 72.0882 26.4796C80.7282 26.3796 84.2882 26.3896 84.3582 26.1396C84.4282 25.8896 71.4382 8.71965 71.2182 8.92965Z" fill="#FFDF66"/>
</g>
<path style="mix-blend-mode:multiply" opacity="0.37" d="M58.3492 26.6803C58.1892 27.3603 70.7792 44.5103 71.5792 44.2403C72.3792 43.9703 84.7892 27.0903 83.9992 26.6303C83.2092 26.1703 58.4992 26.0603 58.3492 26.6803Z" fill="url(#paint51_linear_6456_59183)"/>
<g style="mix-blend-mode:multiply" opacity="0.5">
<path d="M71.2111 73.6701L61.8811 78.5801L63.6611 68.1901L56.1211 60.8301L66.5411 59.3201L71.2111 49.8701L75.8711 59.3201L86.3011 60.8301L78.7511 68.1901L80.5411 78.5801L71.2111 73.6701Z" fill="#DE5634"/>
</g>
<path d="M85.2092 61.1898L80.1792 60.4498L78.7992 60.2598L75.5392 59.7798L71.2092 51.0098L66.8792 59.7798L57.1992 61.1898L64.2092 68.0098L62.5492 77.6498L71.2092 73.0998L79.8592 77.6498L78.2092 68.0098L85.2092 61.1898Z" fill="url(#paint52_linear_6456_59183)"/>
<path style="mix-blend-mode:multiply" opacity="0.37" d="M57.1602 61.1904L71.4102 64.9104L64.1602 68.0104L57.1602 61.1904Z" fill="url(#paint53_linear_6456_59183)"/>
<path style="mix-blend-mode:multiply" opacity="0.37" d="M85.1602 61.1904L71.4102 64.9104L78.1602 68.0104L85.1602 61.1904Z" fill="url(#paint54_linear_6456_59183)"/>
<path style="mix-blend-mode:multiply" opacity="0.37" d="M71.16 73.1002L71.41 64.9102L62.5 77.6502L71.16 73.1002Z" fill="url(#paint55_linear_6456_59183)"/>
<path style="mix-blend-mode:multiply" opacity="0.37" d="M79.8102 77.6502L71.4102 64.9102L71.1602 73.1002L79.8102 77.6502Z" fill="url(#paint56_linear_6456_59183)"/>
<path style="mix-blend-mode:color-dodge" opacity="0.5" d="M71.1602 51.0098L71.4102 64.9098L75.4902 59.7798L71.1602 51.0098Z" fill="url(#paint57_linear_6456_59183)"/>
<path style="mix-blend-mode:color-dodge" opacity="0.5" d="M85.1602 61.1903L71.4102 64.9103L75.4902 59.7803L85.1602 61.1903Z" fill="url(#paint58_linear_6456_59183)"/>
<path style="mix-blend-mode:color-dodge" opacity="0.5" d="M85.1602 61.1903L71.4102 64.9103L75.4902 59.7803L85.1602 61.1903Z" fill="url(#paint59_linear_6456_59183)"/>
<path style="mix-blend-mode:color-dodge" opacity="0.5" d="M66.8302 59.7803L71.4102 64.9103L57.1602 61.1903L66.8302 59.7803Z" fill="url(#paint60_linear_6456_59183)"/>
<path d="M75.4919 62.8298C74.7719 63.4398 75.3819 63.8298 75.3819 63.8298L79.0919 62.8298C79.0919 62.8298 77.1519 61.4198 75.4919 62.8298Z" fill="white"/>
<g style="mix-blend-mode:multiply" opacity="0.5">
<path d="M62.5508 77.6496C62.5508 77.6496 69.1208 74.5596 71.2108 73.6496L79.8608 77.6496L71.2108 73.0996L62.5508 77.6496Z" fill="#DE5634"/>
</g>
<g style="mix-blend-mode:multiply" opacity="0.5">
<path d="M57.1602 61.1904L71.4102 64.9104L63.5802 71.6504L57.1602 61.1904Z" fill="#DE5634"/>
</g>
<g style="mix-blend-mode:multiply" opacity="0.5">
<path d="M85.1602 61.1904L71.4102 64.9104L78.9902 72.5404L85.1602 61.1904Z" fill="#DE5634"/>
</g>
<g style="mix-blend-mode:multiply" opacity="0.5">
<path d="M62.5508 77.6502L71.4108 64.9102L79.8608 77.6502L71.2108 76.2802L62.5508 77.6502Z" fill="#DE5634"/>
</g>
<g style="mix-blend-mode:soft-light" opacity="0.4">
<path d="M68.001 58.2599C67.081 60.8199 70.581 62.5999 71.051 61.8099C71.521 61.0199 71.231 56.6499 70.631 56.0499C70.031 55.4499 68.361 57.2199 68.001 58.2599Z" fill="#F7FFFF"/>
</g>
<g style="mix-blend-mode:soft-light" opacity="0.4">
<path d="M65.1192 71.3401C66.9992 71.5901 67.9991 69.4701 68.4191 68.0001C69.0491 65.6601 61.7292 70.8801 65.1192 71.3401Z" fill="#F7FFFF"/>
</g>
<g style="mix-blend-mode:multiply" opacity="0.5">
<path d="M71.2106 30.5899L67.3106 32.6399L68.0506 28.2899L64.8906 25.2199L69.2606 24.5799L71.2106 20.6299L73.1606 24.5799L77.5206 25.2199L74.3706 28.2899L75.1106 32.6399L71.2106 30.5899Z" fill="#DE5634"/>
</g>
<path d="M77.0289 25.3796L74.9389 25.0696L74.3689 24.9896L73.0089 24.7896L71.2089 21.1396L69.4089 24.7896L65.3789 25.3796L68.2989 28.2096L67.6089 32.2197L71.2089 30.3296L74.8089 32.2197L74.1189 28.2096L77.0289 25.3796Z" fill="url(#paint61_linear_6456_59183)"/>
<path style="mix-blend-mode:multiply" opacity="0.37" d="M65.3594 25.3799L71.2894 26.9299L68.2794 28.2099L65.3594 25.3799Z" fill="url(#paint62_linear_6456_59183)"/>
<path style="mix-blend-mode:multiply" opacity="0.37" d="M77.0091 25.3799L71.2891 26.9299L74.0991 28.2099L77.0091 25.3799Z" fill="url(#paint63_linear_6456_59183)"/>
<path style="mix-blend-mode:multiply" opacity="0.37" d="M71.1898 30.3297L71.2898 26.9297L67.5898 32.2197L71.1898 30.3297Z" fill="url(#paint64_linear_6456_59183)"/>
<path style="mix-blend-mode:multiply" opacity="0.37" d="M74.7914 32.2197L71.2914 26.9297L71.1914 30.3297L74.7914 32.2197Z" fill="url(#paint65_linear_6456_59183)"/>
<path style="mix-blend-mode:color-dodge" opacity="0.5" d="M71.1914 21.1396L71.2914 26.9296L72.9914 24.7896L71.1914 21.1396Z" fill="url(#paint66_linear_6456_59183)"/>
<path style="mix-blend-mode:color-dodge" opacity="0.5" d="M77.0091 25.38L71.2891 26.93L72.9891 24.79L77.0091 25.38Z" fill="url(#paint67_linear_6456_59183)"/>
<path style="mix-blend-mode:color-dodge" opacity="0.5" d="M77.0091 25.38L71.2891 26.93L72.9891 24.79L77.0091 25.38Z" fill="url(#paint68_linear_6456_59183)"/>
<path style="mix-blend-mode:color-dodge" opacity="0.5" d="M69.3894 24.79L71.2894 26.93L65.3594 25.38L69.3894 24.79Z" fill="url(#paint69_linear_6456_59183)"/>
<path d="M73.0005 26.06C72.7005 26.31 73.0005 26.48 73.0005 26.48L74.5405 26.06C74.3214 25.8864 74.0501 25.792 73.7705 25.792C73.491 25.792 73.2196 25.8864 73.0005 26.06Z" fill="white"/>
<g style="mix-blend-mode:multiply" opacity="0.5">
<path d="M67.6094 32.2201C67.6094 32.2201 70.3394 30.9401 71.2094 30.5801L74.8094 32.2201L71.2094 30.3301L67.6094 32.2201Z" fill="#DE5634"/>
</g>
<g style="mix-blend-mode:multiply" opacity="0.5">
<path d="M65.3594 25.3799L71.2894 26.9299L68.0394 29.7299L65.3594 25.3799Z" fill="#DE5634"/>
</g>
<g style="mix-blend-mode:multiply" opacity="0.5">
<path d="M77.0091 25.3799L71.2891 26.9299L74.4391 30.0999L77.0091 25.3799Z" fill="#DE5634"/>
</g>
<g style="mix-blend-mode:multiply" opacity="0.5">
<path d="M67.6094 32.2197L71.2894 26.9297L74.8094 32.2197L71.2094 31.6497L67.6094 32.2197Z" fill="#DE5634"/>
</g>
<g style="mix-blend-mode:soft-light" opacity="0.4">
<path d="M69.8718 24.1602C69.4918 25.2202 70.9418 25.9602 71.1418 25.6402C71.3081 24.8398 71.2493 24.009 70.9718 23.2402C70.7218 23.0002 70.0018 23.7202 69.8718 24.1602Z" fill="#F7FFFF"/>
</g>
<g style="mix-blend-mode:soft-light" opacity="0.4">
<path d="M68.6796 29.6004C69.4496 29.7004 69.8796 28.8204 70.0496 28.2104C70.3096 27.2404 67.2696 29.4104 68.6796 29.6004Z" fill="#F7FFFF"/>
</g>
<g style="mix-blend-mode:multiply" opacity="0.5">
<path d="M62.2189 92.2602L60.5789 96.2602L58.6289 98.2502V105.81L71.2089 112.97L84.7489 105.16L84.3589 98.1202L82.1789 96.1102L80.8389 92.0502L71.2189 83.4702L62.2189 92.2602Z" fill="#DE5634"/>
</g>
<path d="M85.0017 101.17L84.9417 101.08L71.4517 82.56L71.3817 82.46L71.3117 82.56L57.8217 101.08L57.7617 101.17L57.8217 101.25L71.3117 119.77V119.97L71.3817 119.87L71.4517 119.97V119.77L84.9417 101.25L85.0017 101.17Z" fill="url(#paint70_linear_6456_59183)"/>
<g style="mix-blend-mode:multiply" opacity="0.5">
<path d="M60.5781 101.17L71.3781 86.3398L82.1781 101.17L71.3781 116L60.5781 101.17Z" fill="#DE5634"/>
</g>
<path d="M61.1484 101.17L71.3784 87.1099L81.6184 101.17L71.3784 115.22L61.1484 101.17Z" fill="url(#paint71_linear_6456_59183)"/>
<g style="mix-blend-mode:soft-light" opacity="0.4">
<path d="M71.2182 83.4599C70.0082 84.6199 58.4882 100.24 58.7182 100.67C58.9482 101.1 63.4482 101.11 72.0882 101.01C80.7282 100.91 84.2882 100.93 84.3582 100.67C84.4282 100.41 71.4382 83.2499 71.2182 83.4599Z" fill="#FFDF66"/>
</g>
<path style="mix-blend-mode:multiply" opacity="0.37" d="M58.3492 101.22C58.1892 101.89 70.7792 119.04 71.5792 118.77C72.3792 118.5 84.7892 101.62 83.9992 101.17C83.2092 100.72 58.4992 100.6 58.3492 101.22Z" fill="url(#paint72_linear_6456_59183)"/>
<g style="mix-blend-mode:multiply" opacity="0.5">
<path d="M71.2106 105.12L67.3106 107.17L68.0506 102.83L64.8906 99.7502L69.2606 99.1102L71.2106 95.1602L73.1606 99.1102L77.5206 99.7502L74.3706 102.83L75.1106 107.17L71.2106 105.12Z" fill="#DE5634"/>
</g>
<path d="M77.0289 99.9102L74.9389 99.6002L74.3689 99.5202L73.0089 99.3202L71.2089 95.6802L69.4089 99.3202L65.3789 99.9102L68.2989 102.75L67.6089 106.75L71.2089 104.86L74.8089 106.75L74.1189 102.75L77.0289 99.9102Z" fill="url(#paint73_linear_6456_59183)"/>
<path style="mix-blend-mode:multiply" opacity="0.37" d="M65.3594 99.9102L71.2894 101.46L68.2794 102.75L65.3594 99.9102Z" fill="url(#paint74_linear_6456_59183)"/>
<path style="mix-blend-mode:multiply" opacity="0.37" d="M77.0091 99.9102L71.2891 101.46L74.0991 102.75L77.0091 99.9102Z" fill="url(#paint75_linear_6456_59183)"/>
<path style="mix-blend-mode:multiply" opacity="0.37" d="M71.1898 104.86L71.2898 101.46L67.5898 106.75L71.1898 104.86Z" fill="url(#paint76_linear_6456_59183)"/>
<path style="mix-blend-mode:multiply" opacity="0.37" d="M74.7914 106.75L71.2914 101.46L71.1914 104.86L74.7914 106.75Z" fill="url(#paint77_linear_6456_59183)"/>
<path style="mix-blend-mode:color-dodge" opacity="0.5" d="M71.1914 95.6802L71.2914 101.46L72.9914 99.3202L71.1914 95.6802Z" fill="url(#paint78_linear_6456_59183)"/>
<path style="mix-blend-mode:color-dodge" opacity="0.5" d="M77.0091 99.9098L71.2891 101.46L72.9891 99.3198L77.0091 99.9098Z" fill="url(#paint79_linear_6456_59183)"/>
<path style="mix-blend-mode:color-dodge" opacity="0.5" d="M77.0091 99.9098L71.2891 101.46L72.9891 99.3198L77.0091 99.9098Z" fill="url(#paint80_linear_6456_59183)"/>
<path style="mix-blend-mode:color-dodge" opacity="0.5" d="M69.3894 99.3198L71.2894 101.46L65.3594 99.9098L69.3894 99.3198Z" fill="url(#paint81_linear_6456_59183)"/>
<path d="M73.0005 100.59C72.7005 100.84 73.0005 101.01 73.0005 101.01L74.5405 100.59C74.32 100.42 74.0492 100.327 73.7705 100.327C73.4919 100.327 73.2211 100.42 73.0005 100.59Z" fill="white"/>
<g style="mix-blend-mode:multiply" opacity="0.5">
<path d="M67.6094 106.76C67.6094 106.76 70.3394 105.47 71.2094 105.11L74.8094 106.76L71.2094 104.86L67.6094 106.76Z" fill="#DE5634"/>
</g>
<g style="mix-blend-mode:multiply" opacity="0.5">
<path d="M65.3594 99.9102L71.2894 101.46L68.0394 104.26L65.3594 99.9102Z" fill="#DE5634"/>
</g>
<g style="mix-blend-mode:multiply" opacity="0.5">
<path d="M77.0091 99.9102L71.2891 101.46L74.4391 104.63L77.0091 99.9102Z" fill="#DE5634"/>
</g>
<g style="mix-blend-mode:multiply" opacity="0.5">
<path d="M67.6094 106.75L71.2894 101.46L74.8094 106.75L71.2094 106.19L67.6094 106.75Z" fill="#DE5634"/>
</g>
<g style="mix-blend-mode:soft-light" opacity="0.4">
<path d="M69.8718 98.69C69.4918 99.75 70.9418 100.5 71.1418 100.17C71.3081 99.3696 71.2493 98.5388 70.9718 97.7699C70.7218 97.5299 70.0018 98.26 69.8718 98.69Z" fill="#F7FFFF"/>
</g>
<g style="mix-blend-mode:soft-light" opacity="0.4">
<path d="M68.6796 104.13C69.4496 104.24 69.8796 103.35 70.0496 102.75C70.3096 101.77 67.2696 103.94 68.6796 104.13Z" fill="#F7FFFF"/>
</g>
<path style="mix-blend-mode:color-dodge" opacity="0.5" d="M123.221 40.3701C123.221 48.3637 120.046 56.03 114.394 61.6823C108.741 67.3347 101.075 70.5101 93.0814 70.5101C85.0878 70.5101 77.4216 67.3347 71.7692 61.6823C66.1169 56.03 62.9414 48.3637 62.9414 40.3701" fill="url(#paint82_radial_6456_59183)"/>
<defs>
<linearGradient id="paint0_linear_6456_59183" x1="28.2617" y1="94.8398" x2="44.5917" y2="94.8398" gradientUnits="userSpaceOnUse">
<stop stop-color="#DE3C14"/>
<stop offset="0.07" stop-color="#C72E10"/>
<stop offset="0.19" stop-color="#AB1C0C"/>
<stop offset="0.3" stop-color="#971009"/>
<stop offset="0.41" stop-color="#8B0807"/>
<stop offset="0.52" stop-color="#870606"/>
<stop offset="0.62" stop-color="#8C0707"/>
<stop offset="0.73" stop-color="#9A0808"/>
<stop offset="0.85" stop-color="#B20B0B"/>
<stop offset="0.97" stop-color="#D30E0E"/>
<stop offset="1" stop-color="#DB0F0F"/>
</linearGradient>
<linearGradient id="paint1_linear_6456_59183" x1="28.2617" y1="103.38" x2="43.9317" y2="103.38" gradientUnits="userSpaceOnUse">
<stop stop-color="#FFA933"/>
<stop offset="0.05" stop-color="#FFB030"/>
<stop offset="0.18" stop-color="#FFBA2C"/>
<stop offset="0.34" stop-color="#FEBB2B"/>
<stop offset="0.43" stop-color="#EB9E2E"/>
<stop offset="0.52" stop-color="#DC8731"/>
<stop offset="0.62" stop-color="#D27733"/>
<stop offset="0.72" stop-color="#CC6E34"/>
<stop offset="0.87" stop-color="#CA6B34"/>
<stop offset="0.92" stop-color="#E39130"/>
<stop offset="0.97" stop-color="#F7B12C"/>
<stop offset="1" stop-color="#FFBD2B"/>
</linearGradient>
<linearGradient id="paint2_linear_6456_59183" x1="36.4317" y1="137.39" x2="36.4317" y2="116.75" gradientUnits="userSpaceOnUse">
<stop stop-color="white"/>
<stop offset="1" stop-color="#B41E2D"/>
</linearGradient>
<linearGradient id="paint3_linear_6456_59183" x1="97.1797" y1="94.8398" x2="113.51" y2="94.8398" gradientUnits="userSpaceOnUse">
<stop stop-color="#DE3C14"/>
<stop offset="0.07" stop-color="#C72E10"/>
<stop offset="0.19" stop-color="#AB1C0C"/>
<stop offset="0.3" stop-color="#971009"/>
<stop offset="0.41" stop-color="#8B0807"/>
<stop offset="0.52" stop-color="#870606"/>
<stop offset="0.62" stop-color="#8C0707"/>
<stop offset="0.73" stop-color="#9A0808"/>
<stop offset="0.85" stop-color="#B20B0B"/>
<stop offset="0.97" stop-color="#D30E0E"/>
<stop offset="1" stop-color="#DB0F0F"/>
</linearGradient>
<linearGradient id="paint4_linear_6456_59183" x1="97.8516" y1="103.38" x2="113.512" y2="103.38" gradientUnits="userSpaceOnUse">
<stop stop-color="#FFA933"/>
<stop offset="0.05" stop-color="#FFB030"/>
<stop offset="0.18" stop-color="#FFBA2C"/>
<stop offset="0.34" stop-color="#FEBB2B"/>
<stop offset="0.43" stop-color="#EB9E2E"/>
<stop offset="0.52" stop-color="#DC8731"/>
<stop offset="0.62" stop-color="#D27733"/>
<stop offset="0.72" stop-color="#CC6E34"/>
<stop offset="0.87" stop-color="#CA6B34"/>
<stop offset="0.92" stop-color="#E39130"/>
<stop offset="0.97" stop-color="#F7B12C"/>
<stop offset="1" stop-color="#FFBD2B"/>
</linearGradient>
<linearGradient id="paint5_linear_6456_59183" x1="105.35" y1="137.39" x2="105.35" y2="116.75" gradientUnits="userSpaceOnUse">
<stop stop-color="white"/>
<stop offset="1" stop-color="#B41E2D"/>
</linearGradient>
<linearGradient id="paint6_linear_6456_59183" x1="41.96" y1="113.66" x2="66.83" y2="113.66" gradientUnits="userSpaceOnUse">
<stop stop-color="#DE3C14"/>
<stop offset="0.07" stop-color="#C72E10"/>
<stop offset="0.19" stop-color="#AB1C0C"/>
<stop offset="0.3" stop-color="#971009"/>
<stop offset="0.41" stop-color="#8B0807"/>
<stop offset="0.52" stop-color="#870606"/>
<stop offset="0.62" stop-color="#8C0707"/>
<stop offset="0.73" stop-color="#9A0808"/>
<stop offset="0.85" stop-color="#B20B0B"/>
<stop offset="0.97" stop-color="#D30E0E"/>
<stop offset="1" stop-color="#DB0F0F"/>
</linearGradient>
<linearGradient id="paint7_linear_6456_59183" x1="41.96" y1="120.09" x2="66.83" y2="120.09" gradientUnits="userSpaceOnUse">
<stop stop-color="#FFA933"/>
<stop offset="0.05" stop-color="#FFB030"/>
<stop offset="0.18" stop-color="#FFBA2C"/>
<stop offset="0.34" stop-color="#FEBB2B"/>
<stop offset="0.43" stop-color="#EB9E2E"/>
<stop offset="0.52" stop-color="#DC8731"/>
<stop offset="0.62" stop-color="#D27733"/>
<stop offset="0.72" stop-color="#CC6E34"/>
<stop offset="0.87" stop-color="#CA6B34"/>
<stop offset="0.92" stop-color="#E39130"/>
<stop offset="0.97" stop-color="#F7B12C"/>
<stop offset="1" stop-color="#FFBD2B"/>
</linearGradient>
<linearGradient id="paint8_linear_6456_59183" x1="75.2891" y1="113.66" x2="100.159" y2="113.66" gradientUnits="userSpaceOnUse">
<stop stop-color="#DE3C14"/>
<stop offset="0.07" stop-color="#C72E10"/>
<stop offset="0.19" stop-color="#AB1C0C"/>
<stop offset="0.3" stop-color="#971009"/>
<stop offset="0.41" stop-color="#8B0807"/>
<stop offset="0.52" stop-color="#870606"/>
<stop offset="0.62" stop-color="#8C0707"/>
<stop offset="0.73" stop-color="#9A0808"/>
<stop offset="0.85" stop-color="#B20B0B"/>
<stop offset="0.97" stop-color="#D30E0E"/>
<stop offset="1" stop-color="#DB0F0F"/>
</linearGradient>
<linearGradient id="paint9_linear_6456_59183" x1="75.2891" y1="120.09" x2="100.159" y2="120.09" gradientUnits="userSpaceOnUse">
<stop stop-color="#FFA933"/>
<stop offset="0.05" stop-color="#FFB030"/>
<stop offset="0.18" stop-color="#FFBA2C"/>
<stop offset="0.34" stop-color="#FEBB2B"/>
<stop offset="0.43" stop-color="#EB9E2E"/>
<stop offset="0.52" stop-color="#DC8731"/>
<stop offset="0.62" stop-color="#D27733"/>
<stop offset="0.72" stop-color="#CC6E34"/>
<stop offset="0.87" stop-color="#CA6B34"/>
<stop offset="0.92" stop-color="#E39130"/>
<stop offset="0.97" stop-color="#F7B12C"/>
<stop offset="1" stop-color="#FFBD2B"/>
</linearGradient>
<linearGradient id="paint10_linear_6456_59183" x1="54.39" y1="137.39" x2="54.39" y2="116.75" gradientUnits="userSpaceOnUse">
<stop stop-color="white"/>
<stop offset="1" stop-color="#B41E2D"/>
</linearGradient>
<linearGradient id="paint11_linear_6456_59183" x1="87.7291" y1="137.39" x2="87.7291" y2="116.75" gradientUnits="userSpaceOnUse">
<stop stop-color="white"/>
<stop offset="1" stop-color="#B41E2D"/>
</linearGradient>
<linearGradient id="paint12_linear_6456_59183" x1="108.499" y1="70.8328" x2="108.493" y2="52.121" gradientUnits="userSpaceOnUse">
<stop stop-color="#CA6B34"/>
<stop offset="0.67" stop-color="#FFA933"/>
<stop offset="1" stop-color="#FFBD2B"/>
</linearGradient>
<linearGradient id="paint13_linear_6456_59183" x1="119.1" y1="56.7901" x2="130.84" y2="56.7901" gradientUnits="userSpaceOnUse">
<stop stop-color="#DE3C14"/>
<stop offset="0.07" stop-color="#C72E10"/>
<stop offset="0.19" stop-color="#AB1C0C"/>
<stop offset="0.3" stop-color="#971009"/>
<stop offset="0.41" stop-color="#8B0807"/>
<stop offset="0.52" stop-color="#870606"/>
<stop offset="0.62" stop-color="#8C0707"/>
<stop offset="0.73" stop-color="#9A0808"/>
<stop offset="0.85" stop-color="#B20B0B"/>
<stop offset="0.97" stop-color="#D30E0E"/>
<stop offset="1" stop-color="#DB0F0F"/>
</linearGradient>
<linearGradient id="paint14_linear_6456_59183" x1="45.9739" y1="91.0896" x2="45.8745" y2="72.3974" gradientUnits="userSpaceOnUse">
<stop stop-color="#CA6B34"/>
<stop offset="0.67" stop-color="#FFA933"/>
<stop offset="1" stop-color="#FFBD2B"/>
</linearGradient>
<linearGradient id="paint15_linear_6456_59183" x1="11.1602" y1="56.8301" x2="22.9102" y2="56.8301" gradientUnits="userSpaceOnUse">
<stop stop-color="#DE3C14"/>
<stop offset="0.07" stop-color="#C72E10"/>
<stop offset="0.19" stop-color="#AB1C0C"/>
<stop offset="0.3" stop-color="#971009"/>
<stop offset="0.41" stop-color="#8B0807"/>
<stop offset="0.52" stop-color="#870606"/>
<stop offset="0.62" stop-color="#8C0707"/>
<stop offset="0.73" stop-color="#9A0808"/>
<stop offset="0.85" stop-color="#B20B0B"/>
<stop offset="0.97" stop-color="#D30E0E"/>
<stop offset="1" stop-color="#DB0F0F"/>
</linearGradient>
<linearGradient id="paint16_linear_6456_59183" x1="114.549" y1="59.0251" x2="114.552" y2="40.3181" gradientUnits="userSpaceOnUse">
<stop stop-color="#CA6B34"/>
<stop offset="0.67" stop-color="#FFA933"/>
<stop offset="1" stop-color="#FFBD2B"/>
</linearGradient>
<linearGradient id="paint17_linear_6456_59183" x1="125.48" y1="45" x2="137.23" y2="45" gradientUnits="userSpaceOnUse">
<stop stop-color="#DE3C14"/>
<stop offset="0.07" stop-color="#C72E10"/>
<stop offset="0.19" stop-color="#AB1C0C"/>
<stop offset="0.3" stop-color="#971009"/>
<stop offset="0.41" stop-color="#8B0807"/>
<stop offset="0.52" stop-color="#870606"/>
<stop offset="0.62" stop-color="#8C0707"/>
<stop offset="0.73" stop-color="#9A0808"/>
<stop offset="0.85" stop-color="#B20B0B"/>
<stop offset="0.97" stop-color="#D30E0E"/>
<stop offset="1" stop-color="#DB0F0F"/>
</linearGradient>
<linearGradient id="paint18_linear_6456_59183" x1="39.5253" y1="79.3314" x2="39.4259" y2="60.6392" gradientUnits="userSpaceOnUse">
<stop stop-color="#CA6B34"/>
<stop offset="0.67" stop-color="#FFA933"/>
<stop offset="1" stop-color="#FFBD2B"/>
</linearGradient>
<linearGradient id="paint19_linear_6456_59183" x1="4.69922" y1="45.0401" x2="16.4492" y2="45.0401" gradientUnits="userSpaceOnUse">
<stop stop-color="#DE3C14"/>
<stop offset="0.07" stop-color="#C72E10"/>
<stop offset="0.19" stop-color="#AB1C0C"/>
<stop offset="0.3" stop-color="#971009"/>
<stop offset="0.41" stop-color="#8B0807"/>
<stop offset="0.52" stop-color="#870606"/>
<stop offset="0.62" stop-color="#8C0707"/>
<stop offset="0.73" stop-color="#9A0808"/>
<stop offset="0.85" stop-color="#B20B0B"/>
<stop offset="0.97" stop-color="#D30E0E"/>
<stop offset="1" stop-color="#DB0F0F"/>
</linearGradient>
<linearGradient id="paint20_linear_6456_59183" x1="48.9716" y1="49.59" x2="48.9716" y2="16.91" gradientUnits="userSpaceOnUse">
<stop stop-color="#CA6B34"/>
<stop offset="0.67" stop-color="#FFA933"/>
<stop offset="1" stop-color="#FFBD2B"/>
</linearGradient>
<linearGradient id="paint21_linear_6456_59183" x1="45.3516" y1="39.36" x2="45.3516" y2="8.57" gradientUnits="userSpaceOnUse">
<stop stop-color="#CA6B34"/>
<stop offset="0.67" stop-color="#FFA933"/>
<stop offset="1" stop-color="#FFBD2B"/>
</linearGradient>
<linearGradient id="paint22_linear_6456_59183" x1="49.4001" y1="28.4996" x2="49.4001" y2="47.8796" gradientUnits="userSpaceOnUse">
<stop stop-color="#C10065"/>
<stop offset="1" stop-color="white"/>
</linearGradient>
<linearGradient id="paint23_linear_6456_59183" x1="93.0806" y1="49.59" x2="93.0806" y2="16.91" gradientUnits="userSpaceOnUse">
<stop stop-color="#CA6B34"/>
<stop offset="0.67" stop-color="#FFA933"/>
<stop offset="1" stop-color="#FFBD2B"/>
</linearGradient>
<linearGradient id="paint24_linear_6456_59183" x1="96.7695" y1="39.36" x2="96.7695" y2="8.57" gradientUnits="userSpaceOnUse">
<stop stop-color="#CA6B34"/>
<stop offset="0.67" stop-color="#FFA933"/>
<stop offset="1" stop-color="#FFBD2B"/>
</linearGradient>
<linearGradient id="paint25_linear_6456_59183" x1="92.7212" y1="28.4996" x2="92.7212" y2="47.8796" gradientUnits="userSpaceOnUse">
<stop stop-color="#C10065"/>
<stop offset="1" stop-color="white"/>
</linearGradient>
<linearGradient id="paint26_linear_6456_59183" x1="24.6281" y1="86.2399" x2="24.6281" y2="65.5799" gradientUnits="userSpaceOnUse">
<stop stop-color="#CA6B34"/>
<stop offset="0.67" stop-color="#FFA933"/>
<stop offset="1" stop-color="#FFBD2B"/>
</linearGradient>
<linearGradient id="paint27_linear_6456_59183" x1="27.0413" y1="75.12" x2="27.0413" y2="84.77" gradientUnits="userSpaceOnUse">
<stop stop-color="#C10065"/>
<stop offset="1" stop-color="white"/>
</linearGradient>
<linearGradient id="paint28_linear_6456_59183" x1="117.49" y1="86.2399" x2="117.49" y2="65.5799" gradientUnits="userSpaceOnUse">
<stop stop-color="#CA6B34"/>
<stop offset="0.67" stop-color="#FFA933"/>
<stop offset="1" stop-color="#FFBD2B"/>
</linearGradient>
<linearGradient id="paint29_linear_6456_59183" x1="115.078" y1="75.12" x2="115.078" y2="84.77" gradientUnits="userSpaceOnUse">
<stop stop-color="#C10065"/>
<stop offset="1" stop-color="white"/>
</linearGradient>
<linearGradient id="paint30_linear_6456_59183" x1="102.751" y1="36.2899" x2="102.751" y2="21.7099" gradientUnits="userSpaceOnUse">
<stop stop-color="#CA6B34"/>
<stop offset="0.67" stop-color="#FFA933"/>
<stop offset="1" stop-color="#FFBD2B"/>
</linearGradient>
<linearGradient id="paint31_linear_6456_59183" x1="110.919" y1="31.5897" x2="96.0287" y2="24.2997" gradientUnits="userSpaceOnUse">
<stop stop-color="#C10065"/>
<stop offset="1" stop-color="white"/>
</linearGradient>
<linearGradient id="paint32_linear_6456_59183" x1="115.299" y1="22.6496" x2="100.409" y2="15.3596" gradientUnits="userSpaceOnUse">
<stop stop-color="#C10065"/>
<stop offset="1" stop-color="white"/>
</linearGradient>
<linearGradient id="paint33_linear_6456_59183" x1="39.38" y1="36.29" x2="39.38" y2="21.71" gradientUnits="userSpaceOnUse">
<stop stop-color="#CA6B34"/>
<stop offset="0.67" stop-color="#FFA933"/>
<stop offset="1" stop-color="#FFBD2B"/>
</linearGradient>
<linearGradient id="paint34_linear_6456_59183" x1="31.1981" y1="31.5897" x2="46.0881" y2="24.2997" gradientUnits="userSpaceOnUse">
<stop stop-color="#C10065"/>
<stop offset="1" stop-color="white"/>
</linearGradient>
<linearGradient id="paint35_linear_6456_59183" x1="26.8207" y1="22.6496" x2="41.7107" y2="15.3596" gradientUnits="userSpaceOnUse">
<stop stop-color="#C10065"/>
<stop offset="1" stop-color="white"/>
</linearGradient>
<linearGradient id="paint36_linear_6456_59183" x1="71.2089" y1="114.62" x2="71.2089" y2="32.4697" gradientUnits="userSpaceOnUse">
<stop stop-color="#CA6B34"/>
<stop offset="0.67" stop-color="#FFA933"/>
<stop offset="1" stop-color="#FFBD2B"/>
</linearGradient>
<linearGradient id="paint37_linear_6456_59183" x1="71.2088" y1="18.0301" x2="71.2088" y2="100.6" gradientUnits="userSpaceOnUse">
<stop stop-color="#CA6B34"/>
<stop offset="0.17" stop-color="#CC6E34"/>
<stop offset="0.29" stop-color="#D27733"/>
<stop offset="0.39" stop-color="#DB8631"/>
<stop offset="0.48" stop-color="#E99B2F"/>
<stop offset="0.57" stop-color="#FBB72C"/>
<stop offset="0.59" stop-color="#FFBD2B"/>
<stop offset="1" stop-color="#FFA933"/>
</linearGradient>
<linearGradient id="paint38_linear_6456_59183" x1="71.21" y1="102.44" x2="71.21" y2="27.71" gradientUnits="userSpaceOnUse">
<stop stop-color="#B75014"/>
<stop offset="0.38" stop-color="#E8692A"/>
<stop offset="1" stop-color="#F58E2F"/>
</linearGradient>
<linearGradient id="paint39_linear_6456_59183" x1="36.7605" y1="67.7" x2="36.7605" y2="90.24" gradientUnits="userSpaceOnUse">
<stop stop-color="#C10065"/>
<stop offset="1" stop-color="white"/>
</linearGradient>
<linearGradient id="paint40_linear_6456_59183" x1="105.509" y1="67.7" x2="105.509" y2="90.24" gradientUnits="userSpaceOnUse">
<stop stop-color="#C10065"/>
<stop offset="1" stop-color="white"/>
</linearGradient>
<linearGradient id="paint41_linear_6456_59183" x1="53.041" y1="88.3002" x2="53.041" y2="111.59" gradientUnits="userSpaceOnUse">
<stop stop-color="#C10065"/>
<stop offset="1" stop-color="white"/>
</linearGradient>
<linearGradient id="paint42_linear_6456_59183" x1="89.3814" y1="88.2998" x2="89.3814" y2="112.05" gradientUnits="userSpaceOnUse">
<stop stop-color="#C10065"/>
<stop offset="1" stop-color="white"/>
</linearGradient>
<linearGradient id="paint43_linear_6456_59183" x1="71.0617" y1="33.2598" x2="71.0617" y2="92.7998" gradientUnits="userSpaceOnUse">
<stop stop-color="#CA6B34"/>
<stop offset="0.67" stop-color="#FFA933"/>
<stop offset="1" stop-color="#FFBD2B"/>
</linearGradient>
<linearGradient id="paint44_linear_6456_59183" x1="71.0617" y1="100.1" x2="71.0617" y2="73.5098" gradientUnits="userSpaceOnUse">
<stop stop-color="#F1CB3C"/>
<stop offset="1" stop-color="#FFC14F"/>
</linearGradient>
<linearGradient id="paint45_linear_6456_59183" x1="91.5197" y1="66.8396" x2="91.5197" y2="97.4796" gradientUnits="userSpaceOnUse">
<stop stop-color="#C10065"/>
<stop offset="1" stop-color="white"/>
</linearGradient>
<linearGradient id="paint46_linear_6456_59183" x1="71.0617" y1="69.59" x2="71.0617" y2="10.05" gradientUnits="userSpaceOnUse">
<stop stop-color="#CA6B34"/>
<stop offset="0.67" stop-color="#FFA933"/>
<stop offset="1" stop-color="#FFBD2B"/>
</linearGradient>
<linearGradient id="paint47_linear_6456_59183" x1="71.0617" y1="29.54" x2="71.0617" y2="56.13" gradientUnits="userSpaceOnUse">
<stop stop-color="#F1CB3C"/>
<stop offset="1" stop-color="#FFC14F"/>
</linearGradient>
<linearGradient id="paint48_linear_6456_59183" x1="137.28" y1="49.3802" x2="70.5904" y2="49.3802" gradientUnits="userSpaceOnUse">
<stop stop-color="#C10065"/>
<stop offset="1" stop-color="white"/>
</linearGradient>
<linearGradient id="paint49_linear_6456_59183" x1="71.3817" y1="44.6204" x2="71.3817" y2="11.7204" gradientUnits="userSpaceOnUse">
<stop stop-color="#CA6B34"/>
<stop offset="0.67" stop-color="#FFA933"/>
<stop offset="1" stop-color="#FFBD2B"/>
</linearGradient>
<linearGradient id="paint50_linear_6456_59183" x1="61.1484" y1="26.6301" x2="81.6184" y2="26.6301" gradientUnits="userSpaceOnUse">
<stop stop-color="#DE3C14"/>
<stop offset="0.07" stop-color="#C72E10"/>
<stop offset="0.19" stop-color="#AB1C0C"/>
<stop offset="0.3" stop-color="#971009"/>
<stop offset="0.41" stop-color="#8B0807"/>
<stop offset="0.52" stop-color="#870606"/>
<stop offset="0.62" stop-color="#8C0707"/>
<stop offset="0.73" stop-color="#9A0808"/>
<stop offset="0.85" stop-color="#B20B0B"/>
<stop offset="0.97" stop-color="#D30E0E"/>
<stop offset="1" stop-color="#DB0F0F"/>
</linearGradient>
<linearGradient id="paint51_linear_6456_59183" x1="71.1792" y1="26.2603" x2="71.1792" y2="44.2403" gradientUnits="userSpaceOnUse">
<stop stop-color="#C10065"/>
<stop offset="1" stop-color="white"/>
</linearGradient>
<linearGradient id="paint52_linear_6456_59183" x1="71.2092" y1="78.1498" x2="71.2092" y2="46.4998" gradientUnits="userSpaceOnUse">
<stop stop-color="#CA6B34"/>
<stop offset="0.67" stop-color="#FFA933"/>
<stop offset="1" stop-color="#FFBD2B"/>
</linearGradient>
<linearGradient id="paint53_linear_6456_59183" x1="64.2802" y1="61.1904" x2="64.2802" y2="68.0104" gradientUnits="userSpaceOnUse">
<stop stop-color="#C10065"/>
<stop offset="1" stop-color="white"/>
</linearGradient>
<linearGradient id="paint54_linear_6456_59183" x1="78.2902" y1="61.1904" x2="78.2902" y2="68.0104" gradientUnits="userSpaceOnUse">
<stop stop-color="#C10065"/>
<stop offset="1" stop-color="white"/>
</linearGradient>
<linearGradient id="paint55_linear_6456_59183" x1="66.96" y1="64.9102" x2="66.96" y2="77.6502" gradientUnits="userSpaceOnUse">
<stop stop-color="#C10065"/>
<stop offset="1" stop-color="white"/>
</linearGradient>
<linearGradient id="paint56_linear_6456_59183" x1="75.4902" y1="64.9102" x2="75.4902" y2="77.6502" gradientUnits="userSpaceOnUse">
<stop stop-color="#C10065"/>
<stop offset="1" stop-color="white"/>
</linearGradient>
<linearGradient id="paint57_linear_6456_59183" x1="72.4402" y1="53.0998" x2="74.3802" y2="70.8698" gradientUnits="userSpaceOnUse">
<stop stop-color="#BFD7FF"/>
<stop offset="1"/>
</linearGradient>
<linearGradient id="paint58_linear_6456_59183" x1="71.4102" y1="62.3503" x2="85.1602" y2="62.3503" gradientUnits="userSpaceOnUse">
<stop stop-color="#BFD7FF"/>
<stop offset="1"/>
</linearGradient>
<linearGradient id="paint59_linear_6456_59183" x1="77.1402" y1="52.5903" x2="79.0802" y2="70.3503" gradientUnits="userSpaceOnUse">
<stop stop-color="#BFD7FF"/>
<stop offset="1"/>
</linearGradient>
<linearGradient id="paint60_linear_6456_59183" x1="63.3102" y1="54.1003" x2="65.2402" y2="71.8603" gradientUnits="userSpaceOnUse">
<stop stop-color="#BFD7FF"/>
<stop offset="1"/>
</linearGradient>
<linearGradient id="paint61_linear_6456_59183" x1="71.2089" y1="32.4297" x2="71.2089" y2="19.2596" gradientUnits="userSpaceOnUse">
<stop stop-color="#CA6B34"/>
<stop offset="0.67" stop-color="#FFA933"/>
<stop offset="1" stop-color="#FFBD2B"/>
</linearGradient>
<linearGradient id="paint62_linear_6456_59183" x1="68.3294" y1="25.3699" x2="68.3294" y2="28.2099" gradientUnits="userSpaceOnUse">
<stop stop-color="#C10065"/>
<stop offset="1" stop-color="white"/>
</linearGradient>
<linearGradient id="paint63_linear_6456_59183" x1="74.1491" y1="25.3699" x2="74.1491" y2="28.2099" gradientUnits="userSpaceOnUse">
<stop stop-color="#C10065"/>
<stop offset="1" stop-color="white"/>
</linearGradient>
<linearGradient id="paint64_linear_6456_59183" x1="69.4398" y1="26.9297" x2="69.4398" y2="32.2197" gradientUnits="userSpaceOnUse">
<stop stop-color="#C10065"/>
<stop offset="1" stop-color="white"/>
</linearGradient>
<linearGradient id="paint65_linear_6456_59183" x1="72.9914" y1="26.9297" x2="72.9914" y2="32.2197" gradientUnits="userSpaceOnUse">
<stop stop-color="#C10065"/>
<stop offset="1" stop-color="white"/>
</linearGradient>
<linearGradient id="paint66_linear_6456_59183" x1="71.7214" y1="22.0096" x2="72.5314" y2="29.3996" gradientUnits="userSpaceOnUse">
<stop stop-color="#BFD7FF"/>
<stop offset="1"/>
</linearGradient>
<linearGradient id="paint67_linear_6456_59183" x1="71.2891" y1="25.86" x2="77.0091" y2="25.86" gradientUnits="userSpaceOnUse">
<stop stop-color="#BFD7FF"/>
<stop offset="1"/>
</linearGradient>
<linearGradient id="paint68_linear_6456_59183" x1="73.6791" y1="21.8" x2="74.4791" y2="29.19" gradientUnits="userSpaceOnUse">
<stop stop-color="#BFD7FF"/>
<stop offset="1"/>
</linearGradient>
<linearGradient id="paint69_linear_6456_59183" x1="67.9194" y1="22.43" x2="68.7294" y2="29.82" gradientUnits="userSpaceOnUse">
<stop stop-color="#BFD7FF"/>
<stop offset="1"/>
</linearGradient>
<linearGradient id="paint70_linear_6456_59183" x1="71.3817" y1="119.16" x2="71.3817" y2="86.25" gradientUnits="userSpaceOnUse">
<stop stop-color="#CA6B34"/>
<stop offset="0.67" stop-color="#FFA933"/>
<stop offset="1" stop-color="#FFBD2B"/>
</linearGradient>
<linearGradient id="paint71_linear_6456_59183" x1="61.1484" y1="101.17" x2="81.6184" y2="101.17" gradientUnits="userSpaceOnUse">
<stop stop-color="#DE3C14"/>
<stop offset="0.07" stop-color="#C72E10"/>
<stop offset="0.19" stop-color="#AB1C0C"/>
<stop offset="0.3" stop-color="#971009"/>
<stop offset="0.41" stop-color="#8B0807"/>
<stop offset="0.52" stop-color="#870606"/>
<stop offset="0.62" stop-color="#8C0707"/>
<stop offset="0.73" stop-color="#9A0808"/>
<stop offset="0.85" stop-color="#B20B0B"/>
<stop offset="0.97" stop-color="#D30E0E"/>
<stop offset="1" stop-color="#DB0F0F"/>
</linearGradient>
<linearGradient id="paint72_linear_6456_59183" x1="71.1792" y1="100.79" x2="71.1792" y2="118.78" gradientUnits="userSpaceOnUse">
<stop stop-color="#C10065"/>
<stop offset="1" stop-color="white"/>
</linearGradient>
<linearGradient id="paint73_linear_6456_59183" x1="71.2089" y1="106.96" x2="71.2089" y2="93.8002" gradientUnits="userSpaceOnUse">
<stop stop-color="#CA6B34"/>
<stop offset="0.67" stop-color="#FFA933"/>
<stop offset="1" stop-color="#FFBD2B"/>
</linearGradient>
<linearGradient id="paint74_linear_6456_59183" x1="68.3294" y1="99.9102" x2="68.3294" y2="102.75" gradientUnits="userSpaceOnUse">
<stop stop-color="#C10065"/>
<stop offset="1" stop-color="white"/>
</linearGradient>
<linearGradient id="paint75_linear_6456_59183" x1="74.1491" y1="99.9102" x2="74.1491" y2="102.75" gradientUnits="userSpaceOnUse">
<stop stop-color="#C10065"/>
<stop offset="1" stop-color="white"/>
</linearGradient>
<linearGradient id="paint76_linear_6456_59183" x1="69.4398" y1="101.46" x2="69.4398" y2="106.76" gradientUnits="userSpaceOnUse">
<stop stop-color="#C10065"/>
<stop offset="1" stop-color="white"/>
</linearGradient>
<linearGradient id="paint77_linear_6456_59183" x1="72.9914" y1="101.46" x2="72.9914" y2="106.76" gradientUnits="userSpaceOnUse">
<stop stop-color="#C10065"/>
<stop offset="1" stop-color="white"/>
</linearGradient>
<linearGradient id="paint78_linear_6456_59183" x1="71.7214" y1="96.5502" x2="72.5314" y2="103.93" gradientUnits="userSpaceOnUse">
<stop stop-color="#BFD7FF"/>
<stop offset="1"/>
</linearGradient>
<linearGradient id="paint79_linear_6456_59183" x1="71.2891" y1="100.39" x2="77.0091" y2="100.39" gradientUnits="userSpaceOnUse">
<stop stop-color="#BFD7FF"/>
<stop offset="1"/>
</linearGradient>
<linearGradient id="paint80_linear_6456_59183" x1="73.6791" y1="96.3298" x2="74.4791" y2="103.72" gradientUnits="userSpaceOnUse">
<stop stop-color="#BFD7FF"/>
<stop offset="1"/>
</linearGradient>
<linearGradient id="paint81_linear_6456_59183" x1="67.9194" y1="96.9598" x2="68.7294" y2="104.35" gradientUnits="userSpaceOnUse">
<stop stop-color="#BFD7FF"/>
<stop offset="1"/>
</linearGradient>
<radialGradient id="paint82_radial_6456_59183" cx="0" cy="0" r="1" gradientUnits="userSpaceOnUse" gradientTransform="translate(93.0814 55.4401) scale(23.83 23.83)">
<stop stop-color="#F4A940"/>
<stop offset="0.09" stop-color="#E6A03C"/>
<stop offset="0.27" stop-color="#C38733"/>
<stop offset="0.51" stop-color="#895F24"/>
<stop offset="0.8" stop-color="#39280F"/>
<stop offset="1"/>
</radialGradient>
</defs>
</svg>
