<svg width="143" height="136" viewBox="0 0 143 136" fill="none" xmlns="http://www.w3.org/2000/svg">
<path d="M28.3789 78.4199V112.06L43.9989 102.68L44.7789 79.2699L28.3789 78.4199Z" fill="url(#paint0_linear_6456_58914)"/>
<g style="mix-blend-mode:multiply" opacity="0.6">
<path d="M28.3789 107.9L44.1089 99.77L43.9989 102.68L28.3789 112.06V107.9Z" fill="#8E37E2"/>
</g>
<path style="mix-blend-mode:multiply" d="M28.7689 93.3199C29.6889 89.6999 31.5189 92.2199 31.5189 97.3699C31.5189 102.52 30.8689 110.56 30.8689 110.56L32.2789 109.56C32.2789 109.56 32.1789 96.2399 32.8789 94.6399C33.5789 93.0399 37.3289 93.5699 37.3289 106.7L43.9989 102.7L44.7789 79.2899L28.3789 78.4399V96.8699L28.7689 93.3199Z" fill="url(#paint1_linear_6456_58914)"/>
<path d="M113.99 78.4199V112.06L98.3699 102.68L97.5898 79.2699L113.99 78.4199Z" fill="url(#paint2_linear_6456_58914)"/>
<g style="mix-blend-mode:multiply" opacity="0.6">
<path d="M113.992 107.9L98.2617 99.77L98.3717 102.68L113.992 112.06V107.9Z" fill="#8E37E2"/>
</g>
<path style="mix-blend-mode:multiply" d="M113.601 93.3199C112.691 89.6999 110.861 92.2199 110.861 97.3699C110.861 102.52 111.501 110.56 111.501 110.56L110.101 109.56C110.101 109.56 110.191 96.2399 109.491 94.6399C108.791 93.0399 105.001 93.5499 105.001 106.68L98.3308 102.68L97.5508 79.2699L113.951 78.4199V96.8699L113.601 93.3199Z" fill="url(#paint3_linear_6456_58914)"/>
<path d="M67.1094 102.87V135.87C57.1094 130.61 42.1094 115.26 42.1094 115.26V92.4399L67.1094 102.87Z" fill="url(#paint4_linear_6456_58914)"/>
<g style="mix-blend-mode:multiply" opacity="0.6">
<path d="M67.1094 129.2V135.84C57.1094 130.58 42.1094 115.23 42.1094 115.23V109.54C45.5994 114 52.9994 121.46 67.1094 129.2Z" fill="#8E37E2"/>
</g>
<path d="M75.6094 102.87V135.87C85.6094 130.61 100.609 115.26 100.609 115.26V92.4399L75.6094 102.87Z" fill="url(#paint5_linear_6456_58914)"/>
<g style="mix-blend-mode:multiply" opacity="0.6">
<path d="M75.6094 129.2V135.84C85.6094 130.58 100.609 115.23 100.609 115.23V109.54C97.1194 114 89.7694 121.46 75.6094 129.2Z" fill="#8E37E2"/>
</g>
<path style="mix-blend-mode:multiply" d="M44.4694 117.55C44.4694 117.55 44.2394 102.42 46.5994 102.68C48.9594 102.94 53.0294 105.34 53.9194 108.09C54.8094 110.84 54.5494 126.77 54.5494 126.77L55.4494 127.51C55.4494 127.51 54.3394 108.16 56.1794 109.11C57.5393 109.774 58.7181 110.758 59.615 111.977C60.5118 113.196 61.1001 114.614 61.3294 116.11C62.1794 120.43 62.4394 133 62.4394 133L67.1094 135.8V102.8L42.1094 92.3701V115.16L44.4694 117.55Z" fill="url(#paint6_linear_6456_58914)"/>
<path style="mix-blend-mode:multiply" d="M98.2494 117.55C98.2494 117.55 98.4394 99.8199 96.0794 100.08C93.7194 100.34 93.6194 109.32 93.6194 112.08C93.6194 114.84 93.2394 122.31 93.2394 122.31L91.9094 123.52C91.9094 123.52 92.0994 103.35 90.2594 104.3C88.4194 105.25 80.3494 111.49 79.4894 115.81C78.6294 120.13 78.9594 133.81 78.9594 133.81L75.6094 135.81V102.81L100.609 92.3799V115.17L98.2494 117.55Z" fill="url(#paint7_linear_6456_58914)"/>
<path d="M81.4297 52.6498L136.29 52.2998L131.17 61.4998L84.2497 62.7998L81.4297 52.6498Z" fill="url(#paint8_linear_6456_58914)"/>
<path d="M131.402 52.2998L125.042 52.3398L119.602 61.7598L126.132 61.5798L131.402 52.2998Z" fill="url(#paint9_linear_6456_58914)"/>
<g style="mix-blend-mode:multiply" opacity="0.5">
<path d="M83.8516 59.9198L132.672 58.7998L131.172 61.4998L84.2516 62.7998L83.8516 59.9198Z" fill="#DE5634"/>
</g>
<g style="mix-blend-mode:soft-light" opacity="0.4">
<path d="M112.542 53.1097C112.132 53.5597 114.032 58.3597 114.812 58.2097C115.592 58.0597 131.442 58.3497 132.152 57.8597C132.862 57.3697 135.512 53.3397 134.932 52.8597C134.352 52.3797 112.932 52.6797 112.542 53.1097Z" fill="#FFDF66"/>
</g>
<g style="mix-blend-mode:multiply" opacity="0.5">
<path d="M111.42 52.4199C111.42 52.4199 113.49 58.0199 113.56 59.2399C113.52 60.2103 113.256 61.1583 112.79 62.0099L84.2497 62.7999L81.4297 52.6499L111.42 52.4199Z" fill="#DE5634"/>
</g>
<path d="M61.2897 52.6498L6.42969 52.2998L11.5497 61.4998L58.4697 62.7998L61.2897 52.6498Z" fill="url(#paint10_linear_6456_58914)"/>
<path d="M11.2109 52.3398L17.5609 52.3798L23.0009 61.7998L16.4809 61.6198L11.2109 52.3398Z" fill="url(#paint11_linear_6456_58914)"/>
<g style="mix-blend-mode:multiply" opacity="0.5">
<path d="M58.8808 59.9198L10.0508 58.7998L11.5508 61.4998L58.4708 62.7998L58.8808 59.9198Z" fill="#DE5634"/>
</g>
<g style="mix-blend-mode:soft-light" opacity="0.4">
<path d="M29.7994 52.9102C31.1594 54.2002 28.7194 58.6102 27.9394 58.4602C27.1594 58.3102 11.2794 58.3502 10.5694 57.8602C9.85936 57.3702 7.20936 53.3402 7.78936 52.8602C8.36936 52.3802 28.9994 52.1702 29.7994 52.9102Z" fill="#FFDF66"/>
</g>
<g style="mix-blend-mode:multiply" opacity="0.5">
<path d="M31.3002 52.4199C31.3002 52.4199 29.2302 58.0199 29.1602 59.2399C29.2014 60.2069 29.4649 61.1513 29.9302 61.9999L58.4702 62.7899L61.2902 52.6399L31.3002 52.4199Z" fill="#DE5634"/>
</g>
<path d="M87.5195 40.7904L142.37 40.4404L137.25 49.6504L90.3295 50.9404L87.5195 40.7904Z" fill="url(#paint12_linear_6456_58914)"/>
<path d="M137.812 40.46L131.452 40.5L126.012 49.92L132.542 49.74L137.812 40.46Z" fill="url(#paint13_linear_6456_58914)"/>
<g style="mix-blend-mode:multiply" opacity="0.5">
<path d="M89.9297 48.0704L138.75 46.9404L137.25 49.6504L90.3297 50.9404L89.9297 48.0704Z" fill="#DE5634"/>
</g>
<g style="mix-blend-mode:soft-light" opacity="0.4">
<path d="M118.62 41.2596C118.21 41.7096 120.11 46.4996 120.89 46.3496C121.67 46.1996 137.52 46.4996 138.23 46.0096C138.94 45.5196 141.6 41.4796 141.02 41.0096C140.44 40.5396 119 40.8296 118.62 41.2596Z" fill="#FFDF66"/>
</g>
<g style="mix-blend-mode:multiply" opacity="0.5">
<path d="M110.34 40.6504C111.192 42.8776 111.907 45.1553 112.48 47.4704C112.435 48.44 112.172 49.3869 111.71 50.2404L90.3295 50.9404L87.5195 40.7904L110.34 40.6504Z" fill="#DE5634"/>
</g>
<path d="M54.86 40.7904L0 40.4404L5.12 49.6504L52.04 50.9404L54.86 40.7904Z" fill="url(#paint14_linear_6456_58914)"/>
<path d="M4.71875 40.5L11.0788 40.54L16.5188 49.96L9.98875 49.78L4.71875 40.5Z" fill="url(#paint15_linear_6456_58914)"/>
<g style="mix-blend-mode:multiply" opacity="0.5">
<path d="M52.4511 48.0704L3.62109 46.9404L5.12109 49.6504L52.0411 50.9404L52.4511 48.0704Z" fill="#DE5634"/>
</g>
<g style="mix-blend-mode:soft-light" opacity="0.4">
<path d="M23.3697 41.0499C24.7297 42.3499 22.2897 46.7499 21.5097 46.5999C20.7297 46.4499 4.84967 46.4999 4.13967 45.9999C3.42967 45.4999 0.77967 41.4799 1.35967 40.9999C1.93967 40.5199 22.5797 40.3099 23.3697 41.0499Z" fill="#FFDF66"/>
</g>
<g style="mix-blend-mode:multiply" opacity="0.5">
<path d="M32.3509 40.6504C32.3509 40.6504 30.2809 46.2504 30.2109 47.4704C30.2618 48.4415 30.5318 49.3885 31.0009 50.2404L52.0609 50.9404L54.8809 40.7904L32.3509 40.6504Z" fill="#DE5634"/>
</g>
<path d="M36.6883 50.87L33.9883 42.39L36.6683 39.02L54.7883 28.09V6.94L57.0883 5.28L64.3583 0V36.08L36.6883 50.87Z" fill="url(#paint16_linear_6456_58914)"/>
<path d="M33.9883 42.3903L57.0883 29.1603V5.28027L54.7883 6.94027V28.0903L36.6683 39.0203L33.9883 42.3903Z" fill="url(#paint17_linear_6456_58914)"/>
<g style="mix-blend-mode:soft-light" opacity="0.4">
<path d="M57.6198 5.27962C57.4998 6.62962 57.7298 23.4396 58.5098 23.8296C59.2898 24.2196 63.3798 21.9196 63.7098 20.9896C64.0398 20.0596 63.8498 2.07962 63.2898 2.14962C62.7298 2.21962 57.6998 4.32962 57.6198 5.27962Z" fill="#FFDF66"/>
</g>
<path style="mix-blend-mode:multiply" opacity="0.37" d="M57.7601 29.4697C55.7001 31.1597 35.1601 42.3897 34.8801 43.1197C34.5201 44.0497 37.2501 48.4297 38.5401 48.0597C39.8301 47.6897 64.2801 33.8397 64.3301 33.1897C64.3801 32.5397 64.4401 28.9297 63.8501 28.6997C63.2601 28.4697 58.5401 28.8197 57.7601 29.4697Z" fill="url(#paint18_linear_6456_58914)"/>
<path d="M33.9883 43.1201L57.5783 29.4201L57.6983 4.87012L57.0883 5.28012V29.1601L33.9883 42.3901V43.1201Z" fill="#B33114"/>
<g style="mix-blend-mode:soft-light" opacity="0.4">
<path d="M55.0007 28.3298C53.6507 28.4198 36.8907 39.1798 36.8907 39.4898C36.8907 39.7998 33.8907 41.6198 34.6507 41.5698C35.4107 41.5198 56.5607 29.5698 56.5907 29.1598C56.6207 28.7498 55.7607 28.2798 55.0007 28.3298Z" fill="#FFDF66"/>
</g>
<g style="mix-blend-mode:soft-light" opacity="0.4">
<path d="M34 43.1197C34 43.1197 45.16 37.4897 50.86 33.8897C56.56 30.2897 57.76 29.4697 57.76 29.4697L34 43.1197Z" fill="#FFDF66"/>
</g>
<g style="mix-blend-mode:multiply" opacity="0.5">
<path d="M54.7898 25.3802L57.0898 23.4002H57.5898L64.3598 19.7002V36.0802L56.6298 39.9802L52.8398 29.2602L54.7898 28.0902V25.3802Z" fill="#DE5634"/>
</g>
<path d="M106.029 50.87L108.729 42.39L106.049 39.02L87.9287 28.09V6.94L85.6287 5.28L78.2188 0V36L106.029 50.87Z" fill="url(#paint19_linear_6456_58914)"/>
<path d="M108.729 42.3903L85.6289 29.1603V5.28027L87.9289 6.94027V28.0903L106.049 39.0203L108.729 42.3903Z" fill="url(#paint20_linear_6456_58914)"/>
<g style="mix-blend-mode:soft-light" opacity="0.4">
<path d="M84.7216 5.27962C84.8416 6.62962 85.1816 23.4396 84.3916 23.8296C83.6016 24.2196 79.2316 21.6896 78.9016 20.7596C78.5716 19.8296 78.9016 2.07962 79.4316 2.14962C79.9616 2.21962 84.6416 4.32962 84.7216 5.27962Z" fill="#FFDF66"/>
</g>
<path style="mix-blend-mode:multiply" opacity="0.37" d="M84.9993 29.4697C86.9993 31.1597 107.589 42.3897 107.869 43.1197C108.229 44.0497 105.499 48.4297 104.209 48.0597C102.919 47.6897 78.4393 33.8397 78.3893 33.1897C78.3393 32.5397 78.2793 28.9297 78.8693 28.6997C79.4593 28.4697 84.1793 28.8197 84.9993 29.4697Z" fill="url(#paint21_linear_6456_58914)"/>
<path d="M108.73 43.1201L85.1395 29.4201L85.0195 4.87012L85.6295 5.28012V29.1601L108.73 42.3901V43.1201Z" fill="#B33114"/>
<g style="mix-blend-mode:soft-light" opacity="0.4">
<path d="M87.6805 28.3298C89.0305 28.4198 105.791 39.1798 105.791 39.4898C105.791 39.7998 108.791 41.6198 108.031 41.5698C107.271 41.5198 86.1205 29.5698 86.0905 29.1598C86.0605 28.7498 87.0005 28.2798 87.6805 28.3298Z" fill="#FFDF66"/>
</g>
<g style="mix-blend-mode:soft-light" opacity="0.4">
<path d="M108.73 43.1197C108.73 43.1197 97.57 37.4897 91.86 33.8897C86.15 30.2897 85 29.4697 85 29.4697L108.73 43.1197Z" fill="#FFDF66"/>
</g>
<g style="mix-blend-mode:multiply" opacity="0.5">
<path d="M87.9294 25.3802L85.6294 23.4002H85.1294L78.3594 19.7002V36.0802L86.0894 39.9802L89.8794 29.2602L87.9294 28.0902V25.3802Z" fill="#DE5634"/>
</g>
<path d="M35.3589 86.6502C35.2689 86.9802 21.6789 82.2502 21.6789 82.2502C18.2241 77.0676 15.3565 71.5168 13.1289 65.7002H36.3389L35.3589 86.6502Z" fill="url(#paint22_linear_6456_58914)"/>
<path d="M17.5586 65.7002C17.5586 65.7002 22.9986 76.8902 23.9986 78.1002L35.7386 78.4202V77.6202C35.7386 77.6202 24.9886 77.7102 24.3786 77.2502C23.7686 76.7902 18.2786 65.7002 18.2786 65.7002H17.5586Z" fill="#B33114"/>
<path d="M17.5586 65.7002L23.9986 78.1002C22.6065 76.117 21.3439 74.046 20.2186 71.9002C18.7586 69.0002 17.5586 65.7002 17.5586 65.7002Z" fill="white"/>
<g style="mix-blend-mode:soft-light" opacity="0.4">
<path d="M19.2184 66.4599C20.1184 69.1399 23.6884 75.2099 24.4284 75.2099C25.1684 75.2099 33.7784 75.0599 34.5684 73.8199C35.3584 72.5799 36.0484 66.5799 35.3584 66.4599C34.6684 66.3399 18.8184 65.2699 19.2184 66.4599Z" fill="#FFDF66"/>
</g>
<g style="mix-blend-mode:soft-light" opacity="0.4">
<path d="M13.9015 66.1703C15.0015 68.7903 18.0815 75.4603 18.6515 75.5403C19.2215 75.6203 21.1415 75.8603 21.1715 75.0603C21.1715 73.7803 17.6215 66.3403 16.8215 66.1703C16.0215 66.0003 13.6215 65.5203 13.9015 66.1703Z" fill="#FFDF66"/>
</g>
<path style="mix-blend-mode:multiply" opacity="0.37" d="M19.2094 76.4098C19.1094 77.2398 22.2094 81.5098 22.7094 81.8498C23.2094 82.1898 33.6494 85.5598 34.3394 85.0798C35.0294 84.5998 35.3394 75.7998 34.8094 75.5398C34.2794 75.2798 19.3294 75.4998 19.2094 76.4098Z" fill="url(#paint23_linear_6456_58914)"/>
<g style="mix-blend-mode:multiply" opacity="0.5">
<path d="M28.5391 65.7004C29.6572 72.0972 30.1462 78.5882 29.9991 85.0804L35.3491 86.6504L36.3491 65.6504L28.5391 65.7004Z" fill="#DE5634"/>
</g>
<path d="M107.359 86.6502C107.449 86.9802 121.039 82.2502 121.039 82.2502C124.494 77.0676 127.361 71.5168 129.589 65.7002H106.379L107.359 86.6502Z" fill="url(#paint24_linear_6456_58914)"/>
<path d="M125.16 65.7002C125.16 65.7002 119.74 76.8902 118.75 78.1002L107 78.4202V77.6202C107 77.6202 117.74 77.7102 118.35 77.2502C118.96 76.7902 124.45 65.7002 124.45 65.7002H125.16Z" fill="#B33114"/>
<path d="M125.16 65.7002L118.75 78.1002C120.142 76.117 121.405 74.046 122.53 71.9002C124 69.0002 125.16 65.7002 125.16 65.7002Z" fill="white"/>
<g style="mix-blend-mode:soft-light" opacity="0.4">
<path d="M123.501 66.4599C122.601 69.1399 119.041 75.2099 118.291 75.2099C117.541 75.2099 108.941 75.0599 108.151 73.8199C107.361 72.5799 106.671 66.5799 107.361 66.4599C108.051 66.3399 123.901 65.2699 123.501 66.4599Z" fill="#FFDF66"/>
</g>
<g style="mix-blend-mode:soft-light" opacity="0.4">
<path d="M128.831 66.1703C127.721 68.7903 124.651 75.4603 124.071 75.5403C123.491 75.6203 121.581 75.8603 121.551 75.0603C121.551 73.7803 125.101 66.3403 125.911 66.1703C126.721 66.0003 129.101 65.5203 128.831 66.1703Z" fill="#FFDF66"/>
</g>
<path style="mix-blend-mode:multiply" opacity="0.37" d="M123.51 76.4098C123.61 77.2398 120.51 81.5098 120.01 81.8498C119.51 82.1898 109.07 85.5598 108.39 85.0798C107.71 84.5998 107.39 75.7998 107.91 75.5398C108.43 75.2798 123.39 75.4998 123.51 76.4098Z" fill="url(#paint25_linear_6456_58914)"/>
<g style="mix-blend-mode:multiply" opacity="0.5">
<path d="M114.179 65.7004C113.058 72.0969 112.566 78.5879 112.709 85.0804L107.359 86.6504L106.359 65.6504L114.179 65.7004Z" fill="#DE5634"/>
</g>
<path d="M71.5095 17.25L33.5195 39.18V91.52L71.5095 113.45L109.5 91.52V39.18L71.5095 17.25Z" fill="url(#paint26_linear_6456_58914)"/>
<path d="M40.3906 87.5497V43.1497L71.5106 25.1797L102.631 43.1497V87.5497L71.5106 105.52L40.3906 87.5497Z" fill="url(#paint27_linear_6456_58914)"/>
<path d="M42.6797 86.2301V44.4701L71.5097 27.8301L100.34 44.4701V86.2301L71.5097 102.87L42.6797 86.2301Z" fill="url(#paint28_linear_6456_58914)"/>
<g style="mix-blend-mode:soft-light" opacity="0.4">
<path d="M34.4715 39.32C34.0015 40.73 38.0015 42.46 40.8815 41.84C43.7615 41.22 70.4615 25.54 71.1115 24.13C71.307 22.1749 71.307 20.2051 71.1115 18.25C70.1715 18.25 34.7015 38.64 34.4715 39.32Z" fill="#FFDF66"/>
</g>
<g style="mix-blend-mode:soft-light" opacity="0.4">
<path d="M108.371 39.32C108.841 40.73 104.801 42.46 101.961 41.84C99.121 41.22 72.631 25.39 71.731 24.13C71.261 23.48 71.111 18.25 71.731 18.25C72.671 18.25 108.141 38.64 108.371 39.32Z" fill="#FFDF66"/>
</g>
<path style="mix-blend-mode:multiply" opacity="0.37" d="M34.4282 69.0902C34.1682 70.6502 33.5482 90.4602 34.4282 90.6102C35.3082 90.7602 39.4282 87.9402 39.6582 86.6102C39.8882 85.2802 39.9582 71.7302 39.6582 70.4302C39.3582 69.1302 34.8482 66.4802 34.4282 69.0902Z" fill="url(#paint29_linear_6456_58914)"/>
<path style="mix-blend-mode:multiply" opacity="0.37" d="M108.441 69.0902C108.701 70.6502 109.321 90.4602 108.441 90.6102C107.561 90.7602 103.441 87.9402 103.211 86.6102C102.981 85.2802 102.911 71.7302 103.211 70.4302C103.511 69.1302 108.001 66.4802 108.441 69.0902Z" fill="url(#paint30_linear_6456_58914)"/>
<path style="mix-blend-mode:multiply" opacity="0.37" d="M35.3793 91.1501C35.8393 91.8301 70.0593 112.06 70.5693 112.06C70.8293 112.06 71.1793 107.06 71.1793 106.47C71.1793 104.91 40.9193 88.8401 40.3893 88.6901C39.6093 88.4701 34.9193 90.4701 35.3793 91.1501Z" fill="url(#paint31_linear_6456_58914)"/>
<path style="mix-blend-mode:multiply" opacity="0.37" d="M107.701 91.6801C107.241 92.3601 72.3809 112.52 71.8709 112.52C71.7396 110.347 71.783 108.166 72.0009 106C73.1109 104.9 102.001 88.8101 102.491 88.6601C103.251 88.4701 108.161 91.0001 107.701 91.6801Z" fill="url(#paint32_linear_6456_58914)"/>
<g style="mix-blend-mode:multiply" opacity="0.37">
<path d="M43.9991 85.1199C41.9991 73.5499 43.0991 72.8199 57.4491 67.9299C71.7991 63.0399 96.0791 50.4399 98.2091 55.9299C100.339 61.4199 99.6091 84.6799 99.1291 85.9299C98.6491 87.1799 73.5791 101.6 71.5091 101.63C69.4391 101.66 44.2291 86.4199 43.9991 85.1199Z" fill="#ED8A1D"/>
</g>
<g style="mix-blend-mode:soft-light" opacity="0.4">
<path d="M99.7196 44.7601C99.2096 44.6401 73.1596 29.5801 71.7196 29.6901C70.2796 29.8001 52.1696 38.2901 44.7196 44.6901C42.7196 46.4101 43.4596 71.9501 45.2896 71.4801C47.1196 71.0101 48.4696 60.7001 68.6296 54.9001C88.4796 49.1801 97.1196 54.1301 99.2696 55.01C99.8796 55.26 100.87 45.0001 99.7196 44.7601Z" fill="#FFDF66"/>
</g>
<g style="mix-blend-mode:multiply" opacity="0.5">
<path d="M40.3906 87.5504V43.1504L71.5106 25.1504L102.631 43.1504V87.5504L100.341 86.2304C100.341 86.2304 100.481 47.6304 99.6506 46.4204C96.6506 42.1004 73.6506 31.6004 69.8906 32.7704C66.1306 33.9404 45.5506 42.6804 43.2606 46.3504C42.4906 47.5804 42.6806 86.2304 42.6806 86.2304L40.3906 87.5504Z" fill="#DE5634"/>
</g>
<g style="mix-blend-mode:soft-light" opacity="0.4">
<path d="M77.3285 49.2097C85.0785 52.7497 96.7585 52.8097 97.8285 52.1297C98.8985 51.4497 99.6085 46.4797 97.9285 45.6497C96.2485 44.8197 82.9285 37.7197 79.4285 38.4797C75.9285 39.2397 75.9985 48.5897 77.3285 49.2097Z" fill="#FFDF66"/>
</g>
<path opacity="0.8" d="M33.5217 55.13C33.5217 55.01 33.8517 40.37 34.4717 39.32C35.0917 38.27 70.6917 18.53 71.7317 18.25C72.7717 17.97 86.1017 25.67 86.1017 25.67L71.5117 17.25L33.5117 39.18L33.5217 55.13Z" fill="#700000"/>
<path d="M85.1094 33C85.1094 33 101.799 42.53 101.999 43.6C102.199 44.67 102.599 73.36 102.599 73.36C102.599 73.36 102.759 44.36 102.599 43.15C102.439 41.94 85.1094 33 85.1094 33Z" fill="white"/>
<path d="M40.3885 67.4797C40.3885 67.4797 39.8285 43.4797 40.1185 42.6997C40.4085 41.9197 71.5085 25.1797 71.5085 25.1797C71.5085 25.1797 41.5085 42.3597 40.8485 43.4497C40.1885 44.5397 40.3885 67.4797 40.3885 67.4797Z" fill="white"/>
<path opacity="0.8" d="M33.5195 91.5196L71.5195 113.45L109.52 91.5196V79.5996C109.52 79.5996 109.2 89.9996 108.43 91.2996C107.66 92.5996 73.5995 112.39 71.8695 112.52C70.1395 112.65 35.3395 91.9996 34.4295 90.6096C33.5195 89.2196 33.5195 64.8496 33.5195 64.8496V91.5196Z" fill="#700000"/>
<g style="mix-blend-mode:soft-light" opacity="0.4">
<path d="M40.3892 76.1899C40.3892 76.1899 40.2792 86.4299 40.8492 87.2799C41.4192 88.1299 56.1792 96.6699 56.1792 96.6699C56.1792 96.6699 40.1892 88.3999 39.9992 87.8599C39.8092 87.3199 40.3892 76.1899 40.3892 76.1899Z" fill="#FFDF66"/>
</g>
<g style="mix-blend-mode:soft-light" opacity="0.4">
<path d="M53.2418 96.8701C52.1218 96.8701 48.9818 98.1401 49.6618 98.8701C50.3418 99.6001 69.0418 110.87 71.1818 111.67C71.8718 111.93 71.8118 107.48 70.8718 106.04C70.4718 105.43 56.7218 96.8601 53.2418 96.8701Z" fill="#FFDF66"/>
</g>
<path d="M87.3614 27.9098C86.7514 28.0698 88.8013 30.6598 89.7813 30.9098C90.7613 31.1598 92.0913 30.4498 91.6313 29.9698C91.1713 29.4898 88.3114 27.6498 87.3614 27.9098Z" fill="white"/>
<path d="M91.9098 30.4704C90.9798 30.7204 92.6998 34.8104 93.4398 35.5304C94.1798 36.2504 100.71 37.5304 100.56 36.3604C100.41 35.1904 93.2198 30.1204 91.9098 30.4704Z" fill="white"/>
<g style="mix-blend-mode:multiply" opacity="0.5">
<path d="M88.9981 97.0001C88.1781 100.57 88.3081 102.68 88.7681 102.7C89.2281 102.72 105.838 92.7001 106.298 92.2801C106.758 91.8601 103.628 88.9701 102.298 89.1701C100.968 89.3701 89.3381 95.6401 88.9981 97.0001Z" fill="#DE5634"/>
</g>
<g style="mix-blend-mode:multiply" opacity="0.5">
<path d="M42.4111 44.1702C42.0111 42.9702 40.7811 42.9702 40.6611 44.3202C40.5411 45.6702 40.3611 70.5402 40.8511 70.5702C41.3411 70.6002 42.3711 69.3902 42.4111 68.8202C42.4511 68.2502 42.6011 44.7402 42.4111 44.1702Z" fill="#DE5634"/>
</g>
<g style="mix-blend-mode:multiply" opacity="0.5">
<path d="M100.609 44.3198C100.549 44.7998 100.309 68.3198 100.609 68.3198C100.909 68.3198 102.289 67.2198 102.289 66.6398C102.289 66.0598 101.949 43.8698 101.799 43.7498C101.649 43.6298 100.669 43.9398 100.609 44.3198Z" fill="#DE5634"/>
</g>
<g style="mix-blend-mode:multiply" opacity="0.5">
<path d="M71.5098 27.4404C71.5098 27.9004 58.1198 35.5404 57.8098 35.5404C57.4998 35.5404 57.6098 33.4804 58.0398 33.2004C58.4698 32.9204 71.4098 25.1204 71.5098 25.3804C71.5599 26.0661 71.5599 26.7546 71.5098 27.4404Z" fill="#DE5634"/>
</g>
<path d="M99.1413 89.3301C98.2913 89.3301 95.4013 90.9801 95.6213 91.8001C95.8413 92.6201 97.6213 93.5101 98.0713 93.0301C98.5213 92.5501 99.7013 89.3501 99.1413 89.3301Z" fill="#B33114"/>
<path d="M100.239 89.91C99.9488 90.18 99.3088 91.14 99.9188 91.61C100.529 92.08 102.319 90.84 102.059 90.48C101.799 90.12 100.619 89.56 100.239 89.91Z" fill="#B33114"/>
<g style="mix-blend-mode:multiply" opacity="0.5">
<path d="M96.0014 90.9999C95.2914 91.9999 98.2114 92.5999 98.5914 91.7899C98.9714 90.9799 99.5914 89.2699 99.1014 89.3499C97.9756 89.705 96.9248 90.2643 96.0014 90.9999Z" fill="#DE5634"/>
</g>
<path d="M95.6286 91.5601C95.8258 92.1199 96.2157 92.5914 96.7287 92.8901C97.4187 93.2901 97.9986 93.2001 98.1686 92.8901C98.0004 93.09 97.7691 93.2266 97.5128 93.2775C97.2565 93.3284 96.9905 93.2905 96.7587 93.1701C95.3687 92.5401 95.6286 91.5601 95.6286 91.5601Z" fill="#DAE1EF"/>
<g style="mix-blend-mode:multiply" opacity="0.5">
<path d="M100.569 89.9302C99.9092 90.6502 100.419 91.6702 100.789 91.6102C101.159 91.5502 102.259 90.8302 102.059 90.4802C101.859 90.1302 100.709 89.7802 100.569 89.9302Z" fill="#DE5634"/>
</g>
<path d="M100.242 89.9102C100.242 89.9102 99.6419 90.7402 99.8819 91.2202C100.122 91.7002 100.472 91.7001 100.472 91.7001C100.472 91.7001 99.6819 92.1602 99.5419 91.6202C99.2919 90.7002 100.242 89.9102 100.242 89.9102Z" fill="#DAE1EF"/>
<path d="M67.5988 27.1802C65.5988 26.6402 63.8988 27.9702 62.9988 28.9902C62.0988 30.0102 62.5988 30.6102 63.7288 30.4102C64.8588 30.2102 68.4588 27.4102 67.5988 27.1802Z" fill="#B33114"/>
<g style="mix-blend-mode:multiply" opacity="0.5">
<path d="M67.5982 27.18C66.952 27.051 66.2851 27.0685 65.6465 27.2312C65.008 27.3939 64.414 27.6976 63.9082 28.12C63.3582 28.6 64.4382 29.99 65.1882 29.69C65.9382 29.39 68.2282 27.4 67.5982 27.18Z" fill="#DE5634"/>
</g>
<g style="mix-blend-mode:soft-light" opacity="0.4">
<path d="M63.5217 28.46C63.5217 28.46 61.2017 30 61.4617 30.72C61.7217 31.44 64.4617 30.11 64.4617 30.11C64.4617 30.11 63.0317 30.57 62.7017 29.94C62.3717 29.31 63.5217 28.46 63.5217 28.46Z" fill="#FFDF66"/>
</g>
<path d="M41.7115 87.8602C40.6315 88.1302 43.8515 90.3402 44.6215 90.4602C45.3915 90.5802 44.6215 88.6302 44.2615 88.2902C43.4639 87.9257 42.5845 87.7774 41.7115 87.8602Z" fill="white"/>
<path d="M71.4806 90.0001L32.2606 67.1201C31.3389 69.2592 30.7099 71.5129 30.3906 73.8201L33.0006 78.1401L71.5306 100.52L110.001 78.1401L112.321 73.8201C112.25 71.522 111.776 69.2542 110.921 67.1201L71.4806 90.0001Z" fill="url(#paint33_linear_6456_58914)"/>
<path d="M32.9506 78.1403L30.3906 73.8203L71.4806 97.8903L112.331 73.8203L110.011 78.1403L71.4806 100.52L32.9506 78.1403Z" fill="url(#paint34_linear_6456_58914)"/>
<g style="mix-blend-mode:multiply" opacity="0.5">
<path d="M30.3906 73.8203L33.0006 78.1403L33.5806 78.5003V79.7903C33.5806 79.7903 35.7806 80.9103 40.1006 83.3003C40.2406 83.3803 42.8106 86.0903 42.8106 86.0903C42.8106 86.0903 70.5706 102.87 71.5706 102.87C72.8606 102.87 100.401 85.7203 100.401 85.7203C100.401 85.7203 102.551 83.9203 102.761 83.7903L109.561 80.2303V78.4403L110.071 78.1403L112.391 73.8203L71.4806 97.8903L30.3906 73.8203Z" fill="#DE5634"/>
</g>
<path style="mix-blend-mode:multiply" opacity="0.69" d="M71.4805 89.9999V97.8999L112.33 73.8299C112.223 71.5363 111.751 69.2745 110.93 67.1299L71.4805 89.9999Z" fill="url(#paint35_linear_6456_58914)"/>
<g style="mix-blend-mode:soft-light" opacity="0.4">
<path d="M34.2806 68.8496C33.5306 68.8496 34.1406 75.4996 36.4206 77.0196C40.0006 79.4496 61.8706 92.3096 63.3006 92.3296C64.3006 92.3296 64.2406 86.6996 63.9406 86.2596C63.3806 85.4296 35.4006 68.8496 34.2806 68.8496Z" fill="#FFDF66"/>
</g>
<g style="mix-blend-mode:soft-light" opacity="0.4">
<path d="M83.6082 83.1697C83.1382 83.6597 83.1982 89.8597 84.0082 89.6797C90.6002 86.4792 96.9503 82.8028 103.008 78.6797C108.818 74.3997 109.638 68.7697 108.328 68.8997C108.298 68.8597 84.5782 82.1597 83.6082 83.1697Z" fill="#FFDF66"/>
</g>
<path d="M51.5 86.1802C51.5 86.1802 70.28 97.4502 71.5 97.4502C72.72 97.4502 87.69 88.3502 87.69 88.3502C87.69 88.3502 71.96 98.3502 71.53 98.3502C71.1 98.3502 51.5 86.1802 51.5 86.1802Z" fill="white"/>
<g style="mix-blend-mode:multiply" opacity="0.5">
<path d="M57.3398 25.43C57.1971 26.1688 57.1135 26.9179 57.0898 27.67C57.1798 28.02 59.8098 31.94 59.8098 31.94V34.58L71.6098 45.63L83.2798 35L83.7998 32.41C83.7998 32.41 86.4098 28.28 86.4098 27.72C86.4098 27.16 83.9998 24.44 83.9998 24.44L71.5098 17.25L57.3398 25.43Z" fill="#DE5634"/>
</g>
<path d="M85.3617 26.75L85.3017 26.66L71.7517 8.06L71.6817 8L71.6117 8.1L58.0717 26.66L58.0117 26.75L58.0717 26.83L71.6117 45.43V45.63L71.6817 45.53L71.7617 45.63V45.43L85.3017 26.83L85.3617 26.75Z" fill="url(#paint36_linear_6456_58914)"/>
<g style="mix-blend-mode:multiply" opacity="0.5">
<path d="M60.8398 26.7496L71.6798 11.8496L82.5298 26.7496L71.6798 41.6396L60.8398 26.7496Z" fill="#DE5634"/>
</g>
<path d="M61.4102 26.7499L71.6802 12.6299L81.9602 26.7499L71.6802 40.8599L61.4102 26.7499Z" fill="url(#paint37_linear_6456_58914)"/>
<g style="mix-blend-mode:soft-light" opacity="0.4">
<path d="M71.5204 8.99976C70.3004 10.1298 58.7404 25.8198 59.0004 26.2498C59.2604 26.6798 63.7504 26.6898 72.4204 26.5898C81.0904 26.4898 84.6704 26.4998 84.7504 26.2498C84.8304 25.9998 71.7404 8.74976 71.5204 8.99976Z" fill="#FFDF66"/>
</g>
<path style="mix-blend-mode:multiply" opacity="0.37" d="M58.5992 26.7997C58.4392 27.4697 71.0792 44.6997 71.8792 44.4297C72.6792 44.1597 85.1492 27.1997 84.3092 26.7497C83.4692 26.2997 58.7492 26.1697 58.5992 26.7997Z" fill="url(#paint38_linear_6456_58914)"/>
<g style="mix-blend-mode:multiply" opacity="0.5">
<path d="M71.5909 71.13L57.1409 78.72L59.9009 62.63L48.2109 51.24L64.3709 48.89L71.5909 34.25L78.8209 48.89L94.9709 51.24L83.2809 62.63L86.0409 78.72L71.5909 71.13Z" fill="#DE5634"/>
</g>
<path d="M93.2784 51.7903L85.4884 50.6603L83.3584 50.3403L78.2984 49.6103L71.5884 36.0303L64.8884 49.6103L49.8984 51.7903L60.7484 62.3603L58.1884 77.2903L71.5884 70.2403L84.9984 77.2903L82.4384 62.3603L93.2784 51.7903Z" fill="url(#paint39_linear_6456_58914)"/>
<path style="mix-blend-mode:multiply" opacity="0.37" d="M49.8281 51.79L71.9081 57.56L60.6681 62.36L49.8281 51.79Z" fill="url(#paint40_linear_6456_58914)"/>
<path style="mix-blend-mode:multiply" opacity="0.37" d="M93.2102 51.79L71.9102 57.56L82.3602 62.36L93.2102 51.79Z" fill="url(#paint41_linear_6456_58914)"/>
<path style="mix-blend-mode:multiply" opacity="0.37" d="M71.5194 70.2396L71.9094 57.5596L58.1094 77.2896L71.5194 70.2396Z" fill="url(#paint42_linear_6456_58914)"/>
<path style="mix-blend-mode:multiply" opacity="0.37" d="M84.9195 77.2896L71.9095 57.5596L71.5195 70.2396L84.9195 77.2896Z" fill="url(#paint43_linear_6456_58914)"/>
<path style="mix-blend-mode:color-dodge" opacity="0.5" d="M71.5195 36.0303L71.9095 57.5603L78.2195 49.6103L71.5195 36.0303Z" fill="url(#paint44_linear_6456_58914)"/>
<path style="mix-blend-mode:color-dodge" opacity="0.5" d="M93.2102 51.7904L71.9102 57.5604L78.2202 49.6104L93.2102 51.7904Z" fill="url(#paint45_linear_6456_58914)"/>
<path style="mix-blend-mode:color-dodge" opacity="0.5" d="M93.2102 51.7904L71.9102 57.5604L78.2202 49.6104L93.2102 51.7904Z" fill="url(#paint46_linear_6456_58914)"/>
<path style="mix-blend-mode:color-dodge" opacity="0.5" d="M64.8081 49.6104L71.9081 57.5604L49.8281 51.7904L64.8081 49.6104Z" fill="url(#paint47_linear_6456_58914)"/>
<path d="M78.2182 54.33C77.1082 55.33 78.0582 55.89 78.0582 55.89L83.7982 54.34C83.7982 54.34 80.7882 52.16 78.2182 54.33Z" fill="white"/>
<g style="mix-blend-mode:multiply" opacity="0.5">
<path d="M58.1914 77.2902C58.1914 77.2902 68.3614 72.5002 71.5914 71.1602L85.0014 77.2902L71.5914 70.2402L58.1914 77.2902Z" fill="#DE5634"/>
</g>
<g style="mix-blend-mode:multiply" opacity="0.5">
<path d="M49.8281 51.79L71.9081 57.56L59.7781 67.99L49.8281 51.79Z" fill="#DE5634"/>
</g>
<g style="mix-blend-mode:multiply" opacity="0.5">
<path d="M93.2102 51.79L71.9102 57.56L83.6402 69.38L93.2102 51.79Z" fill="#DE5634"/>
</g>
<g style="mix-blend-mode:multiply" opacity="0.5">
<path d="M58.1914 77.2896L71.9114 57.5596L85.0014 77.2896L71.5914 75.1696L58.1914 77.2896Z" fill="#DE5634"/>
</g>
<g style="mix-blend-mode:soft-light" opacity="0.4">
<path d="M66.5993 47.2597C65.1793 51.2597 70.5993 53.9797 71.3393 52.7597C72.0793 51.5397 71.6093 44.7597 70.6893 43.8397C69.7693 42.9197 67.1893 45.6397 66.5993 47.2597Z" fill="#F7FFFF"/>
</g>
<g style="mix-blend-mode:soft-light" opacity="0.4">
<path d="M62.1597 67.5199C65.0497 67.9099 66.6597 64.6199 67.2697 62.3599C68.2497 58.7199 56.9097 66.8099 62.1597 67.5199Z" fill="#F7FFFF"/>
</g>
<g style="mix-blend-mode:multiply" opacity="0.5">
<path d="M71.5119 30.72L67.5919 32.78L68.3419 28.41L65.1719 25.32L69.5519 24.69L71.5119 20.71L73.4719 24.69L77.8519 25.32L74.6819 28.41L75.4319 32.78L71.5119 30.72Z" fill="#DE5634"/>
</g>
<path d="M77.3602 25.4805L75.2602 25.1805L74.6802 25.0905L73.3202 24.8905L71.5102 21.2305L69.7001 24.8905L65.6602 25.4805L68.5802 28.3305L67.8902 32.3605L71.5102 30.4605L75.1301 32.3605L74.4302 28.3305L77.3602 25.4805Z" fill="url(#paint48_linear_6456_58914)"/>
<path style="mix-blend-mode:multiply" opacity="0.37" d="M65.6406 25.4805L71.5906 27.0405L68.5606 28.3305L65.6406 25.4805Z" fill="url(#paint49_linear_6456_58914)"/>
<path style="mix-blend-mode:multiply" opacity="0.37" d="M77.3398 25.4805L71.5898 27.0405L74.4099 28.3305L77.3398 25.4805Z" fill="url(#paint50_linear_6456_58914)"/>
<path style="mix-blend-mode:multiply" opacity="0.37" d="M71.4911 30.46L71.5911 27.04L67.8711 32.36L71.4911 30.46Z" fill="url(#paint51_linear_6456_58914)"/>
<path style="mix-blend-mode:multiply" opacity="0.37" d="M75.0983 32.36L71.5883 27.04L71.4883 30.46L75.0983 32.36Z" fill="url(#paint52_linear_6456_58914)"/>
<path style="mix-blend-mode:color-dodge" opacity="0.5" d="M71.4883 21.2305L71.5883 27.0405L73.2983 24.8905L71.4883 21.2305Z" fill="url(#paint53_linear_6456_58914)"/>
<path style="mix-blend-mode:color-dodge" opacity="0.5" d="M77.3398 25.4796L71.5898 27.0396L73.2999 24.8896L77.3398 25.4796Z" fill="url(#paint54_linear_6456_58914)"/>
<path style="mix-blend-mode:color-dodge" opacity="0.5" d="M77.3398 25.4796L71.5898 27.0396L73.2999 24.8896L77.3398 25.4796Z" fill="url(#paint55_linear_6456_58914)"/>
<path style="mix-blend-mode:color-dodge" opacity="0.5" d="M69.6806 24.8896L71.5906 27.0396L65.6406 25.4796L69.6806 24.8896Z" fill="url(#paint56_linear_6456_58914)"/>
<path d="M73.3013 26.1699C73.0013 26.4199 73.3013 26.5899 73.3013 26.5899L74.8513 26.1699C74.6299 25.9971 74.3571 25.9033 74.0763 25.9033C73.7955 25.9033 73.5227 25.9971 73.3013 26.1699Z" fill="white"/>
<g style="mix-blend-mode:multiply" opacity="0.5">
<path d="M67.8906 32.36C67.8906 32.36 70.6406 31.07 71.5106 30.71L75.1206 32.36L71.5106 30.46L67.8906 32.36Z" fill="#DE5634"/>
</g>
<g style="mix-blend-mode:multiply" opacity="0.5">
<path d="M65.6406 25.4805L71.5906 27.0405L68.3306 29.8505L65.6406 25.4805Z" fill="#DE5634"/>
</g>
<g style="mix-blend-mode:multiply" opacity="0.5">
<path d="M77.3398 25.4805L71.5898 27.0405L74.7598 30.2305L77.3398 25.4805Z" fill="#DE5634"/>
</g>
<g style="mix-blend-mode:multiply" opacity="0.5">
<path d="M67.8906 32.36L71.5906 27.04L75.1306 32.36L71.5106 31.79L67.8906 32.36Z" fill="#DE5634"/>
</g>
<g style="mix-blend-mode:soft-light" opacity="0.4">
<path d="M70.1605 24.2604C69.7805 25.3304 71.2405 26.0704 71.4405 25.7404C71.6063 24.94 71.5475 24.1094 71.2705 23.3404C71.0005 23.0904 70.3205 23.8304 70.1605 24.2604Z" fill="#F7FFFF"/>
</g>
<g style="mix-blend-mode:soft-light" opacity="0.4">
<path d="M69.0011 29.7202C69.7711 29.8302 70.2111 28.9402 70.3711 28.3302C70.6111 27.3502 67.5511 29.5302 69.0011 29.7202Z" fill="#F7FFFF"/>
</g>
<defs>
<linearGradient id="paint0_linear_6456_58914" x1="28.3789" y1="95.2399" x2="44.7789" y2="95.2399" gradientUnits="userSpaceOnUse">
<stop stop-color="#DE3C14"/>
<stop offset="0.07" stop-color="#C72E10"/>
<stop offset="0.19" stop-color="#AB1C0C"/>
<stop offset="0.3" stop-color="#971009"/>
<stop offset="0.41" stop-color="#8B0807"/>
<stop offset="0.52" stop-color="#870606"/>
<stop offset="0.62" stop-color="#8C0707"/>
<stop offset="0.73" stop-color="#9A0808"/>
<stop offset="0.85" stop-color="#B20B0B"/>
<stop offset="0.97" stop-color="#D30E0E"/>
<stop offset="1" stop-color="#DB0F0F"/>
</linearGradient>
<linearGradient id="paint1_linear_6456_58914" x1="28.3789" y1="94.4899" x2="44.7789" y2="94.4899" gradientUnits="userSpaceOnUse">
<stop stop-color="#B41E2D"/>
<stop offset="1" stop-color="#E54136"/>
</linearGradient>
<linearGradient id="paint2_linear_6456_58914" x1="97.5898" y1="95.2399" x2="113.99" y2="95.2399" gradientUnits="userSpaceOnUse">
<stop stop-color="#DE3C14"/>
<stop offset="0.07" stop-color="#C72E10"/>
<stop offset="0.19" stop-color="#AB1C0C"/>
<stop offset="0.3" stop-color="#971009"/>
<stop offset="0.41" stop-color="#8B0807"/>
<stop offset="0.52" stop-color="#870606"/>
<stop offset="0.62" stop-color="#8C0707"/>
<stop offset="0.73" stop-color="#9A0808"/>
<stop offset="0.85" stop-color="#B20B0B"/>
<stop offset="0.97" stop-color="#D30E0E"/>
<stop offset="1" stop-color="#DB0F0F"/>
</linearGradient>
<linearGradient id="paint3_linear_6456_58914" x1="97.5908" y1="94.4899" x2="113.991" y2="94.4899" gradientUnits="userSpaceOnUse">
<stop stop-color="#B41E2D"/>
<stop offset="1" stop-color="#E54136"/>
</linearGradient>
<linearGradient id="paint4_linear_6456_58914" x1="42.1294" y1="114.14" x2="67.1094" y2="114.14" gradientUnits="userSpaceOnUse">
<stop stop-color="#DE3C14"/>
<stop offset="0.07" stop-color="#C72E10"/>
<stop offset="0.19" stop-color="#AB1C0C"/>
<stop offset="0.3" stop-color="#971009"/>
<stop offset="0.41" stop-color="#8B0807"/>
<stop offset="0.52" stop-color="#870606"/>
<stop offset="0.62" stop-color="#8C0707"/>
<stop offset="0.73" stop-color="#9A0808"/>
<stop offset="0.85" stop-color="#B20B0B"/>
<stop offset="0.97" stop-color="#D30E0E"/>
<stop offset="1" stop-color="#DB0F0F"/>
</linearGradient>
<linearGradient id="paint5_linear_6456_58914" x1="75.6094" y1="114.14" x2="100.589" y2="114.14" gradientUnits="userSpaceOnUse">
<stop stop-color="#DE3C14"/>
<stop offset="0.07" stop-color="#C72E10"/>
<stop offset="0.19" stop-color="#AB1C0C"/>
<stop offset="0.3" stop-color="#971009"/>
<stop offset="0.41" stop-color="#8B0807"/>
<stop offset="0.52" stop-color="#870606"/>
<stop offset="0.62" stop-color="#8C0707"/>
<stop offset="0.73" stop-color="#9A0808"/>
<stop offset="0.85" stop-color="#B20B0B"/>
<stop offset="0.97" stop-color="#D30E0E"/>
<stop offset="1" stop-color="#DB0F0F"/>
</linearGradient>
<linearGradient id="paint6_linear_6456_58914" x1="42.1294" y1="114.14" x2="67.1094" y2="114.14" gradientUnits="userSpaceOnUse">
<stop stop-color="#B41E2D"/>
<stop offset="1" stop-color="#E54136"/>
</linearGradient>
<linearGradient id="paint7_linear_6456_58914" x1="75.6094" y1="114.14" x2="100.589" y2="114.14" gradientUnits="userSpaceOnUse">
<stop stop-color="#B41E2D"/>
<stop offset="1" stop-color="#E54136"/>
</linearGradient>
<linearGradient id="paint8_linear_6456_58914" x1="108.966" y1="71.1312" x2="108.959" y2="52.3388" gradientUnits="userSpaceOnUse">
<stop stop-color="#CA6B34"/>
<stop offset="0.67" stop-color="#FFA933"/>
<stop offset="1" stop-color="#FFBD2B"/>
</linearGradient>
<linearGradient id="paint9_linear_6456_58914" x1="119.602" y1="57.0298" x2="131.392" y2="57.0298" gradientUnits="userSpaceOnUse">
<stop stop-color="#DE3C14"/>
<stop offset="0.07" stop-color="#C72E10"/>
<stop offset="0.19" stop-color="#AB1C0C"/>
<stop offset="0.3" stop-color="#971009"/>
<stop offset="0.41" stop-color="#8B0807"/>
<stop offset="0.52" stop-color="#870606"/>
<stop offset="0.62" stop-color="#8C0707"/>
<stop offset="0.73" stop-color="#9A0808"/>
<stop offset="0.85" stop-color="#B20B0B"/>
<stop offset="0.97" stop-color="#D30E0E"/>
<stop offset="1" stop-color="#DB0F0F"/>
</linearGradient>
<linearGradient id="paint10_linear_6456_58914" x1="47.0725" y1="93.0022" x2="46.9785" y2="74.2382" gradientUnits="userSpaceOnUse">
<stop stop-color="#CA6B34"/>
<stop offset="0.67" stop-color="#FFA933"/>
<stop offset="1" stop-color="#FFBD2B"/>
</linearGradient>
<linearGradient id="paint11_linear_6456_58914" x1="11.2109" y1="57.0698" x2="23.0009" y2="57.0698" gradientUnits="userSpaceOnUse">
<stop stop-color="#DE3C14"/>
<stop offset="0.07" stop-color="#C72E10"/>
<stop offset="0.19" stop-color="#AB1C0C"/>
<stop offset="0.3" stop-color="#971009"/>
<stop offset="0.41" stop-color="#8B0807"/>
<stop offset="0.52" stop-color="#870606"/>
<stop offset="0.62" stop-color="#8C0707"/>
<stop offset="0.73" stop-color="#9A0808"/>
<stop offset="0.85" stop-color="#B20B0B"/>
<stop offset="0.97" stop-color="#D30E0E"/>
<stop offset="1" stop-color="#DB0F0F"/>
</linearGradient>
<linearGradient id="paint12_linear_6456_58914" x1="115.047" y1="59.2722" x2="115.048" y2="40.4846" gradientUnits="userSpaceOnUse">
<stop stop-color="#CA6B34"/>
<stop offset="0.67" stop-color="#FFA933"/>
<stop offset="1" stop-color="#FFBD2B"/>
</linearGradient>
<linearGradient id="paint13_linear_6456_58914" x1="126.012" y1="45.19" x2="137.812" y2="45.19" gradientUnits="userSpaceOnUse">
<stop stop-color="#DE3C14"/>
<stop offset="0.07" stop-color="#C72E10"/>
<stop offset="0.19" stop-color="#AB1C0C"/>
<stop offset="0.3" stop-color="#971009"/>
<stop offset="0.41" stop-color="#8B0807"/>
<stop offset="0.52" stop-color="#870606"/>
<stop offset="0.62" stop-color="#8C0707"/>
<stop offset="0.73" stop-color="#9A0808"/>
<stop offset="0.85" stop-color="#B20B0B"/>
<stop offset="0.97" stop-color="#D30E0E"/>
<stop offset="1" stop-color="#DB0F0F"/>
</linearGradient>
<linearGradient id="paint14_linear_6456_58914" x1="40.5932" y1="81.193" x2="40.4905" y2="62.4339" gradientUnits="userSpaceOnUse">
<stop stop-color="#CA6B34"/>
<stop offset="0.67" stop-color="#FFA933"/>
<stop offset="1" stop-color="#FFBD2B"/>
</linearGradient>
<linearGradient id="paint15_linear_6456_58914" x1="4.71875" y1="45.23" x2="16.5188" y2="45.23" gradientUnits="userSpaceOnUse">
<stop stop-color="#DE3C14"/>
<stop offset="0.07" stop-color="#C72E10"/>
<stop offset="0.19" stop-color="#AB1C0C"/>
<stop offset="0.3" stop-color="#971009"/>
<stop offset="0.41" stop-color="#8B0807"/>
<stop offset="0.52" stop-color="#870606"/>
<stop offset="0.62" stop-color="#8C0707"/>
<stop offset="0.73" stop-color="#9A0808"/>
<stop offset="0.85" stop-color="#B20B0B"/>
<stop offset="0.97" stop-color="#D30E0E"/>
<stop offset="1" stop-color="#DB0F0F"/>
</linearGradient>
<linearGradient id="paint16_linear_6456_58914" x1="49.1783" y1="49.8" x2="49.1783" y2="16.99" gradientUnits="userSpaceOnUse">
<stop stop-color="#CA6B34"/>
<stop offset="0.67" stop-color="#FFA933"/>
<stop offset="1" stop-color="#FFBD2B"/>
</linearGradient>
<linearGradient id="paint17_linear_6456_58914" x1="45.5383" y1="39.5303" x2="45.5383" y2="8.61027" gradientUnits="userSpaceOnUse">
<stop stop-color="#CA6B34"/>
<stop offset="0.67" stop-color="#FFA933"/>
<stop offset="1" stop-color="#FFBD2B"/>
</linearGradient>
<linearGradient id="paint18_linear_6456_58914" x1="49.6001" y1="28.6197" x2="49.6001" y2="48.0797" gradientUnits="userSpaceOnUse">
<stop stop-color="#C10065"/>
<stop offset="1" stop-color="white"/>
</linearGradient>
<linearGradient id="paint19_linear_6456_58914" x1="93.4688" y1="49.8" x2="93.4688" y2="16.99" gradientUnits="userSpaceOnUse">
<stop stop-color="#CA6B34"/>
<stop offset="0.67" stop-color="#FFA933"/>
<stop offset="1" stop-color="#FFBD2B"/>
</linearGradient>
<linearGradient id="paint20_linear_6456_58914" x1="97.1789" y1="39.5303" x2="97.1789" y2="8.61027" gradientUnits="userSpaceOnUse">
<stop stop-color="#CA6B34"/>
<stop offset="0.67" stop-color="#FFA933"/>
<stop offset="1" stop-color="#FFBD2B"/>
</linearGradient>
<linearGradient id="paint21_linear_6456_58914" x1="93.1193" y1="28.6197" x2="93.1193" y2="48.0797" gradientUnits="userSpaceOnUse">
<stop stop-color="#C10065"/>
<stop offset="1" stop-color="white"/>
</linearGradient>
<linearGradient id="paint22_linear_6456_58914" x1="24.7389" y1="86.6102" x2="24.7389" y2="65.8602" gradientUnits="userSpaceOnUse">
<stop stop-color="#CA6B34"/>
<stop offset="0.67" stop-color="#FFA933"/>
<stop offset="1" stop-color="#FFBD2B"/>
</linearGradient>
<linearGradient id="paint23_linear_6456_58914" x1="27.1494" y1="75.4398" x2="27.1494" y2="85.1298" gradientUnits="userSpaceOnUse">
<stop stop-color="#C10065"/>
<stop offset="1" stop-color="white"/>
</linearGradient>
<linearGradient id="paint24_linear_6456_58914" x1="117.989" y1="86.6102" x2="117.989" y2="65.8602" gradientUnits="userSpaceOnUse">
<stop stop-color="#CA6B34"/>
<stop offset="0.67" stop-color="#FFA933"/>
<stop offset="1" stop-color="#FFBD2B"/>
</linearGradient>
<linearGradient id="paint25_linear_6456_58914" x1="115.57" y1="75.4398" x2="115.57" y2="85.1298" gradientUnits="userSpaceOnUse">
<stop stop-color="#C10065"/>
<stop offset="1" stop-color="white"/>
</linearGradient>
<linearGradient id="paint26_linear_6456_58914" x1="71.5095" y1="115.1" x2="71.5095" y2="32.61" gradientUnits="userSpaceOnUse">
<stop stop-color="#CA6B34"/>
<stop offset="0.67" stop-color="#FFA933"/>
<stop offset="1" stop-color="#FFBD2B"/>
</linearGradient>
<linearGradient id="paint27_linear_6456_58914" x1="71.5106" y1="18.0997" x2="71.5106" y2="101.02" gradientUnits="userSpaceOnUse">
<stop stop-color="#CA6B34"/>
<stop offset="0.17" stop-color="#CC6E34"/>
<stop offset="0.29" stop-color="#D27733"/>
<stop offset="0.39" stop-color="#DB8631"/>
<stop offset="0.48" stop-color="#E99B2F"/>
<stop offset="0.57" stop-color="#FBB72C"/>
<stop offset="0.59" stop-color="#FFBD2B"/>
<stop offset="1" stop-color="#FFA933"/>
</linearGradient>
<linearGradient id="paint28_linear_6456_58914" x1="71.5097" y1="102.87" x2="71.5097" y2="27.8301" gradientUnits="userSpaceOnUse">
<stop stop-color="#B75014"/>
<stop offset="0.38" stop-color="#E8692A"/>
<stop offset="1" stop-color="#F58E2F"/>
</linearGradient>
<linearGradient id="paint29_linear_6456_58914" x1="36.9182" y1="67.9902" x2="36.9182" y2="90.6202" gradientUnits="userSpaceOnUse">
<stop stop-color="#C10065"/>
<stop offset="1" stop-color="white"/>
</linearGradient>
<linearGradient id="paint30_linear_6456_58914" x1="105.951" y1="67.9902" x2="105.951" y2="90.6202" gradientUnits="userSpaceOnUse">
<stop stop-color="#C10065"/>
<stop offset="1" stop-color="white"/>
</linearGradient>
<linearGradient id="paint31_linear_6456_58914" x1="53.2593" y1="88.6701" x2="53.2593" y2="112.06" gradientUnits="userSpaceOnUse">
<stop stop-color="#C10065"/>
<stop offset="1" stop-color="white"/>
</linearGradient>
<linearGradient id="paint32_linear_6456_58914" x1="89.7609" y1="88.6801" x2="89.7609" y2="112.52" gradientUnits="userSpaceOnUse">
<stop stop-color="#C10065"/>
<stop offset="1" stop-color="white"/>
</linearGradient>
<linearGradient id="paint33_linear_6456_58914" x1="71.3606" y1="33.4001" x2="71.3606" y2="93.1901" gradientUnits="userSpaceOnUse">
<stop stop-color="#CA6B34"/>
<stop offset="0.67" stop-color="#FFA933"/>
<stop offset="1" stop-color="#FFBD2B"/>
</linearGradient>
<linearGradient id="paint34_linear_6456_58914" x1="71.3606" y1="100.52" x2="71.3606" y2="73.8203" gradientUnits="userSpaceOnUse">
<stop stop-color="#F1CB3C"/>
<stop offset="1" stop-color="#FFC14F"/>
</linearGradient>
<linearGradient id="paint35_linear_6456_58914" x1="91.9105" y1="67.1199" x2="91.9105" y2="97.8899" gradientUnits="userSpaceOnUse">
<stop stop-color="#C10065"/>
<stop offset="1" stop-color="white"/>
</linearGradient>
<linearGradient id="paint36_linear_6456_58914" x1="71.6817" y1="44.81" x2="71.6817" y2="11.77" gradientUnits="userSpaceOnUse">
<stop stop-color="#CA6B34"/>
<stop offset="0.67" stop-color="#FFA933"/>
<stop offset="1" stop-color="#FFBD2B"/>
</linearGradient>
<linearGradient id="paint37_linear_6456_58914" x1="61.4102" y1="26.7499" x2="81.9602" y2="26.7499" gradientUnits="userSpaceOnUse">
<stop stop-color="#DE3C14"/>
<stop offset="0.07" stop-color="#C72E10"/>
<stop offset="0.19" stop-color="#AB1C0C"/>
<stop offset="0.3" stop-color="#971009"/>
<stop offset="0.41" stop-color="#8B0807"/>
<stop offset="0.52" stop-color="#870606"/>
<stop offset="0.62" stop-color="#8C0707"/>
<stop offset="0.73" stop-color="#9A0808"/>
<stop offset="0.85" stop-color="#B20B0B"/>
<stop offset="0.97" stop-color="#D30E0E"/>
<stop offset="1" stop-color="#DB0F0F"/>
</linearGradient>
<linearGradient id="paint38_linear_6456_58914" x1="71.4792" y1="26.3697" x2="71.4792" y2="44.4297" gradientUnits="userSpaceOnUse">
<stop stop-color="#C10065"/>
<stop offset="1" stop-color="white"/>
</linearGradient>
<linearGradient id="paint39_linear_6456_58914" x1="71.5884" y1="78.0603" x2="71.5884" y2="29.0303" gradientUnits="userSpaceOnUse">
<stop stop-color="#CA6B34"/>
<stop offset="0.67" stop-color="#FFA933"/>
<stop offset="1" stop-color="#FFBD2B"/>
</linearGradient>
<linearGradient id="paint40_linear_6456_58914" x1="60.8681" y1="51.79" x2="60.8681" y2="62.36" gradientUnits="userSpaceOnUse">
<stop stop-color="#C10065"/>
<stop offset="1" stop-color="white"/>
</linearGradient>
<linearGradient id="paint41_linear_6456_58914" x1="82.5602" y1="51.79" x2="82.5602" y2="62.36" gradientUnits="userSpaceOnUse">
<stop stop-color="#C10065"/>
<stop offset="1" stop-color="white"/>
</linearGradient>
<linearGradient id="paint42_linear_6456_58914" x1="65.0094" y1="57.5596" x2="65.0094" y2="77.2896" gradientUnits="userSpaceOnUse">
<stop stop-color="#C10065"/>
<stop offset="1" stop-color="white"/>
</linearGradient>
<linearGradient id="paint43_linear_6456_58914" x1="78.2195" y1="57.5596" x2="78.2195" y2="77.2896" gradientUnits="userSpaceOnUse">
<stop stop-color="#C10065"/>
<stop offset="1" stop-color="white"/>
</linearGradient>
<linearGradient id="paint44_linear_6456_58914" x1="73.4995" y1="39.2703" x2="76.4995" y2="66.7803" gradientUnits="userSpaceOnUse">
<stop stop-color="#BFD7FF"/>
<stop offset="1"/>
</linearGradient>
<linearGradient id="paint45_linear_6456_58914" x1="71.9102" y1="53.5904" x2="93.2102" y2="53.5904" gradientUnits="userSpaceOnUse">
<stop stop-color="#BFD7FF"/>
<stop offset="1"/>
</linearGradient>
<linearGradient id="paint46_linear_6456_58914" x1="80.7902" y1="38.4704" x2="83.7902" y2="65.9804" gradientUnits="userSpaceOnUse">
<stop stop-color="#BFD7FF"/>
<stop offset="1"/>
</linearGradient>
<linearGradient id="paint47_linear_6456_58914" x1="59.3481" y1="40.8104" x2="62.3481" y2="68.3204" gradientUnits="userSpaceOnUse">
<stop stop-color="#BFD7FF"/>
<stop offset="1"/>
</linearGradient>
<linearGradient id="paint48_linear_6456_58914" x1="71.5102" y1="32.5705" x2="71.5102" y2="19.3505" gradientUnits="userSpaceOnUse">
<stop stop-color="#CA6B34"/>
<stop offset="0.67" stop-color="#FFA933"/>
<stop offset="1" stop-color="#FFBD2B"/>
</linearGradient>
<linearGradient id="paint49_linear_6456_58914" x1="68.6206" y1="25.4805" x2="68.6206" y2="28.3305" gradientUnits="userSpaceOnUse">
<stop stop-color="#C10065"/>
<stop offset="1" stop-color="white"/>
</linearGradient>
<linearGradient id="paint50_linear_6456_58914" x1="74.4698" y1="25.4805" x2="74.4698" y2="28.3305" gradientUnits="userSpaceOnUse">
<stop stop-color="#C10065"/>
<stop offset="1" stop-color="white"/>
</linearGradient>
<linearGradient id="paint51_linear_6456_58914" x1="69.7311" y1="27.04" x2="69.7311" y2="32.36" gradientUnits="userSpaceOnUse">
<stop stop-color="#C10065"/>
<stop offset="1" stop-color="white"/>
</linearGradient>
<linearGradient id="paint52_linear_6456_58914" x1="73.2983" y1="27.04" x2="73.2983" y2="32.36" gradientUnits="userSpaceOnUse">
<stop stop-color="#C10065"/>
<stop offset="1" stop-color="white"/>
</linearGradient>
<linearGradient id="paint53_linear_6456_58914" x1="72.0183" y1="22.1105" x2="72.8283" y2="29.5305" gradientUnits="userSpaceOnUse">
<stop stop-color="#BFD7FF"/>
<stop offset="1"/>
</linearGradient>
<linearGradient id="paint54_linear_6456_58914" x1="71.5898" y1="25.9696" x2="77.3398" y2="25.9696" gradientUnits="userSpaceOnUse">
<stop stop-color="#BFD7FF"/>
<stop offset="1"/>
</linearGradient>
<linearGradient id="paint55_linear_6456_58914" x1="73.9898" y1="21.8896" x2="74.7998" y2="29.3097" gradientUnits="userSpaceOnUse">
<stop stop-color="#BFD7FF"/>
<stop offset="1"/>
</linearGradient>
<linearGradient id="paint56_linear_6456_58914" x1="68.2106" y1="22.5196" x2="69.0206" y2="29.9397" gradientUnits="userSpaceOnUse">
<stop stop-color="#BFD7FF"/>
<stop offset="1"/>
</linearGradient>
</defs>
</svg>
