<svg width="261" height="316" viewBox="0 0 261 316" fill="none" xmlns="http://www.w3.org/2000/svg">
<g filter="url(#filter0_b_6924_92375)">
<path d="M25 309.983C22.2386 309.983 20 307.745 20 304.983L20 11.9998C20 9.2384 22.2386 6.99982 25 6.99982L57 6.99982L57 309.983L25 309.983Z" fill="url(#paint0_linear_6924_92375)"/>
<path d="M21 304.983L21 11.9998C21 9.79068 22.7908 7.99982 25 7.99982L56 7.99982L56 308.983L25 308.983C22.7909 308.983 21 307.193 21 304.983Z" stroke="url(#paint1_linear_6924_92375)" stroke-width="2"/>
</g>
<g filter="url(#filter1_b_6924_92375)">
<path d="M235 7C237.761 7 240 9.23858 240 12L240 304.984C240 307.745 237.761 309.984 235 309.984L203 309.984L203 7L235 7Z" fill="url(#paint2_linear_6924_92375)"/>
<path d="M239 12L239 304.984C239 307.193 237.209 308.984 235 308.984L204 308.984L204 8L235 8C237.209 8 239 9.79086 239 12Z" stroke="url(#paint3_linear_6924_92375)" stroke-width="2"/>
</g>
<mask id="path-5-inside-1_6924_92375" fill="white">
<path fill-rule="evenodd" clip-rule="evenodd" d="M17 10C17 4.47715 21.4772 0 27 0H233C238.523 0 243 4.47715 243 10V116.123C243 119.396 241.398 122.462 238.711 124.332L236.289 126.016C233.602 127.885 232 130.952 232 134.225V157V160V182.775C232 186.048 233.602 189.115 236.289 190.984L238.711 192.668C241.398 194.538 243 197.604 243 200.877V306C243 311.523 238.523 316 233 316H27C21.4772 316 17 311.523 17 306V200.877C17 197.604 18.6021 194.538 21.2894 192.668L23.7106 190.984C26.3979 189.115 28 186.048 28 182.775L28 160V157L28 134.225C28 130.952 26.3979 127.885 23.7106 126.016L21.2894 124.332C18.6021 122.462 17 119.396 17 116.123V10Z"/>
</mask>
<g filter="url(#filter2_i_6924_92375)">
<path fill-rule="evenodd" clip-rule="evenodd" d="M17 10C17 4.47715 21.4772 0 27 0H233C238.523 0 243 4.47715 243 10V116.123C243 119.396 241.398 122.462 238.711 124.332L236.289 126.016C233.602 127.885 232 130.952 232 134.225V157V160V182.775C232 186.048 233.602 189.115 236.289 190.984L238.711 192.668C241.398 194.538 243 197.604 243 200.877V306C243 311.523 238.523 316 233 316H27C21.4772 316 17 311.523 17 306V200.877C17 197.604 18.6021 194.538 21.2894 192.668L23.7106 190.984C26.3979 189.115 28 186.048 28 182.775L28 160V157L28 134.225C28 130.952 26.3979 127.885 23.7106 126.016L21.2894 124.332C18.6021 122.462 17 119.396 17 116.123V10Z" fill="#090E1C"/>
</g>
<path d="M28 160H30H28ZM28 157H26H28ZM21.2894 124.332L22.4315 122.69L21.2894 124.332ZM21.2894 192.668L20.1472 191.026L21.2894 192.668ZM238.711 192.668L237.569 194.31L238.711 192.668ZM23.7106 126.016L22.5685 127.658L23.7106 126.016ZM236.289 126.016L235.147 124.374L236.289 126.016ZM238.711 124.332L239.853 125.974L238.711 124.332ZM236.289 190.984L237.431 189.342L236.289 190.984ZM23.7106 190.984L24.8528 192.626L23.7106 190.984ZM233 -2H27V2H233V-2ZM245 116.123V10H241V116.123H245ZM237.431 127.658L239.853 125.974L237.569 122.69L235.147 124.374L237.431 127.658ZM234 157V134.225H230V157H234ZM234 160V157H230V160H234ZM234 182.775V160H230V182.775H234ZM239.853 191.026L237.431 189.342L235.147 192.626L237.569 194.31L239.853 191.026ZM245 306V200.877H241V306H245ZM27 318H233V314H27V318ZM15 200.877V306H19V200.877H15ZM22.4315 194.31L24.8528 192.626L22.5685 189.342L20.1472 191.026L22.4315 194.31ZM30 182.775L30 160H26L26 182.775H30ZM30 160V157H26V160H30ZM30 157L30 134.225H26L26 157H30ZM24.8528 124.374L22.4315 122.69L20.1472 125.974L22.5685 127.658L24.8528 124.374ZM15 10V116.123H19V10H15ZM22.4315 122.69C20.2817 121.194 19 118.741 19 116.123H15C15 120.051 16.9226 123.73 20.1472 125.974L22.4315 122.69ZM19 200.877C19 198.259 20.2817 195.806 22.4315 194.31L20.1472 191.026C16.9226 193.27 15 196.949 15 200.877H19ZM27 314C22.5817 314 19 310.418 19 306H15C15 312.627 20.3726 318 27 318V314ZM241 306C241 310.418 237.418 314 233 314V318C239.627 318 245 312.627 245 306H241ZM237.569 194.31C239.718 195.806 241 198.259 241 200.877H245C245 196.949 243.077 193.27 239.853 191.026L237.569 194.31ZM30 134.225C30 130.297 28.0774 126.618 24.8528 124.374L22.5685 127.658C24.7183 129.153 26 131.606 26 134.225H30ZM235.147 124.374C231.923 126.618 230 130.297 230 134.225H234C234 131.606 235.282 129.153 237.431 127.658L235.147 124.374ZM241 116.123C241 118.741 239.718 121.194 237.569 122.69L239.853 125.974C243.077 123.73 245 120.051 245 116.123H241ZM230 182.775C230 186.703 231.923 190.382 235.147 192.626L237.431 189.342C235.282 187.847 234 185.394 234 182.775H230ZM27 -2C20.3726 -2 15 3.37258 15 10H19C19 5.58172 22.5817 2 27 2V-2ZM24.8528 192.626C28.0774 190.382 30 186.703 30 182.775H26C26 185.394 24.7183 187.847 22.5685 189.342L24.8528 192.626ZM233 2C237.418 2 241 5.58172 241 10H245C245 3.37258 239.627 -2 233 -2V2Z" fill="url(#paint4_linear_6924_92375)" mask="url(#path-5-inside-1_6924_92375)"/>
<mask id="mask0_6924_92375" style="mask-type:alpha" maskUnits="userSpaceOnUse" x="19" y="2" width="222" height="312">
<path fill-rule="evenodd" clip-rule="evenodd" d="M19 12C19 6.47715 23.4771 2 29 2H231C236.523 2 241 6.47715 241 12V116.602C241 119.867 239.406 122.927 236.73 124.798L234.465 126.382C231.789 128.253 230.195 131.312 230.195 134.577V157.013V159.975V182.41C230.195 185.675 231.789 188.735 234.465 190.606L236.73 192.19C239.406 194.061 241 197.12 241 200.385V304C241 309.523 236.523 314 231 314H29C23.4772 314 19 309.523 19 304V200.386C19 197.121 20.5939 194.062 23.2697 192.191L25.537 190.606C28.2127 188.735 29.8066 185.675 29.8066 182.41L29.8066 157.013L29.8066 134.577C29.8066 131.312 28.2127 128.253 25.537 126.382L23.2697 124.796C20.5939 122.925 19 119.866 19 116.601V12Z" fill="#090E1C"/>
</mask>
<g mask="url(#mask0_6924_92375)">
<rect x="18" y="317" width="317" height="113" transform="rotate(-90 18 317)" fill="#060911"/>
<g opacity="0.2">
<g style="mix-blend-mode:multiply" opacity="0.5">
<path d="M130.5 126.965L62.8558 158L75.7902 92.1373L21 45.5139L96.6779 35.8943L130.5 -24L164.322 35.8943L240 45.5139L185.29 92.1373L198.225 158L130.5 126.965Z" fill="#DE5634"/>
</g>
<path d="M232.739 47.0166L196.168 42.3724L186.202 41.1058L162.491 38.08L131.064 -17.6504L99.6369 38.08L29.4688 47.0166L80.2663 90.3625L68.2903 151.652L131.064 122.731L193.918 151.652L181.942 90.3625L232.739 47.0166Z" fill="url(#paint5_linear_6924_92375)"/>
<path style="mix-blend-mode:multiply" opacity="0.37" d="M29.4688 47.9531L132.314 71.6874L80.0524 91.3368L29.4688 47.9531Z" fill="url(#paint6_linear_6924_92375)"/>
<path style="mix-blend-mode:multiply" opacity="0.37" d="M231.532 47.9531L132.316 71.6874L181.045 91.3368L231.532 47.9531Z" fill="url(#paint7_linear_6924_92375)"/>
<path style="mix-blend-mode:multiply" opacity="0.37" d="M130.56 122.911L132.315 71.2334L68.1875 151.652L130.56 122.911Z" fill="url(#paint8_linear_6924_92375)"/>
<path style="mix-blend-mode:multiply" opacity="0.37" d="M192.812 151.652L131.667 71.2334L129.895 122.911L192.812 151.652Z" fill="url(#paint9_linear_6924_92375)"/>
<path style="mix-blend-mode:color-dodge" opacity="0.5" d="M129.895 -17.6504L131.669 71.2333L161.353 38.3973L129.895 -17.6504Z" fill="url(#paint10_linear_6924_92375)"/>
<path style="mix-blend-mode:color-dodge" opacity="0.5" d="M231.532 47.4079L132.316 71.232L161.714 38.4297L231.532 47.4079Z" fill="url(#paint11_linear_6924_92375)"/>
<path style="mix-blend-mode:color-dodge" opacity="0.5" d="M231.532 47.4079L132.316 71.232L161.714 38.4297L231.532 47.4079Z" fill="url(#paint12_linear_6924_92375)"/>
<path style="mix-blend-mode:color-dodge" opacity="0.5" d="M99.3109 38.4297L132.314 71.232L29.4688 47.4079L99.3109 38.4297Z" fill="url(#paint13_linear_6924_92375)"/>
<path d="M161.517 57.8466C156.225 61.4331 160.703 63.824 160.703 63.824L187.972 57.8466C184.14 55.5433 179.504 54.3008 174.744 54.3008C169.984 54.3008 165.349 55.5433 161.517 57.8466Z" fill="white"/>
<g style="mix-blend-mode:multiply" opacity="0.5">
<path d="M68.1875 151.652C68.1875 151.652 115.848 131.949 131.064 126.53L194.022 151.652L131.064 123.082L68.1875 151.652Z" fill="#DE5634"/>
</g>
<g style="mix-blend-mode:soft-light" opacity="0.4">
<path d="M106.823 28.6756C100.035 44.7466 125.962 55.9476 129.397 51.008C132.832 46.0685 130.706 18.5182 126.371 14.8309C122.036 11.1436 109.604 22.1359 106.823 28.6756Z" fill="#F7FFFF"/>
</g>
<g style="mix-blend-mode:soft-light" opacity="0.4">
<path d="M86.6799 112.366C99.9748 114.005 107.37 100.325 110.28 90.992C114.607 75.8164 62.6075 109.801 86.6799 112.366Z" fill="#F7FFFF"/>
</g>
</g>
</g>
<g filter="url(#filter3_f_6924_92375)">
<ellipse cx="130.5" cy="158" rx="55.5" ry="52" fill="#FF5C00"/>
</g>
<path d="M105.473 52.16H107.793L104.513 59.28L107.853 66H105.533L102.793 60.3H100.833V66H98.6731V52.16H100.833V58.18H102.813L105.473 52.16ZM113.684 51.94C114.51 51.94 115.237 52.06 115.864 52.3C116.49 52.5267 117.017 52.86 117.444 53.3C117.87 53.74 118.19 54.2733 118.404 54.9C118.63 55.5133 118.744 56.2 118.744 56.96V61.18C118.744 61.9533 118.63 62.6533 118.404 63.28C118.19 63.8933 117.87 64.42 117.444 64.86C117.017 65.3 116.49 65.64 115.864 65.88C115.237 66.1067 114.51 66.22 113.684 66.22H113.664C112.85 66.22 112.124 66.1 111.484 65.86C110.857 65.62 110.33 65.28 109.904 64.84C109.477 64.4 109.157 63.8733 108.944 63.26C108.73 62.6333 108.624 61.94 108.624 61.18V56.96C108.624 56.2 108.73 55.5133 108.944 54.9C109.17 54.2733 109.49 53.74 109.904 53.3C110.33 52.86 110.857 52.5267 111.484 52.3C112.124 52.06 112.85 51.94 113.664 51.94H113.684ZM113.684 64.2C114.644 64.2 115.37 63.9133 115.864 63.34C116.357 62.7667 116.604 62.0067 116.604 61.06V57.08C116.604 56.1467 116.357 55.3933 115.864 54.82C115.37 54.2467 114.644 53.96 113.684 53.96H113.664C112.704 53.96 111.977 54.2467 111.484 54.82C111.004 55.3933 110.764 56.1467 110.764 57.08V61.06C110.764 62.0067 111.004 62.7667 111.484 63.34C111.977 63.9133 112.704 64.2 113.664 64.2H113.684ZM124.803 52.16C126.337 52.16 127.483 52.5467 128.243 53.32C129.003 54.08 129.383 55.1467 129.383 56.52V57.82C129.383 59.1933 129.003 60.26 128.243 61.02C127.483 61.78 126.337 62.16 124.803 62.16L122.903 62.16V66H120.743V52.16H124.803ZM122.903 60.12L124.803 60.12C126.417 60.12 127.223 59.3533 127.223 57.82V56.52C127.223 55.76 127.023 55.1867 126.623 54.8C126.237 54.4 125.63 54.2 124.803 54.2H122.903V60.12ZM135.793 51.94C136.62 51.94 137.346 52.06 137.973 52.3C138.6 52.5267 139.126 52.86 139.553 53.3C139.98 53.74 140.3 54.2733 140.513 54.9C140.74 55.5133 140.853 56.2 140.853 56.96V61.18C140.853 61.9533 140.74 62.6533 140.513 63.28C140.3 63.8933 139.98 64.42 139.553 64.86C139.126 65.3 138.6 65.64 137.973 65.88C137.346 66.1067 136.62 66.22 135.793 66.22H135.773C134.96 66.22 134.233 66.1 133.593 65.86C132.966 65.62 132.44 65.28 132.013 64.84C131.586 64.4 131.266 63.8733 131.053 63.26C130.84 62.6333 130.733 61.94 130.733 61.18V56.96C130.733 56.2 130.84 55.5133 131.053 54.9C131.28 54.2733 131.6 53.74 132.013 53.3C132.44 52.86 132.966 52.5267 133.593 52.3C134.233 52.06 134.96 51.94 135.773 51.94H135.793ZM135.793 64.2C136.753 64.2 137.48 63.9133 137.973 63.34C138.466 62.7667 138.713 62.0067 138.713 61.06V57.08C138.713 56.1467 138.466 55.3933 137.973 54.82C137.48 54.2467 136.753 53.96 135.793 53.96H135.773C134.813 53.96 134.086 54.2467 133.593 54.82C133.113 55.3933 132.873 56.1467 132.873 57.08V61.06C132.873 62.0067 133.113 62.7667 133.593 63.34C134.086 63.9133 134.813 64.2 135.773 64.2H135.793ZM141.776 66V63.96H142.016C142.323 63.96 142.576 63.8333 142.776 63.58C142.976 63.3133 143.136 62.8667 143.256 62.24C143.389 61.6 143.496 60.76 143.576 59.72C143.656 58.6667 143.729 57.3533 143.796 55.78L143.956 52.16H151.796V66H149.656V54.2H145.996L145.936 55.8C145.856 57.68 145.749 59.2733 145.616 60.58C145.496 61.8733 145.296 62.92 145.016 63.72C144.736 64.52 144.356 65.1 143.876 65.46C143.409 65.82 142.789 66 142.016 66H141.776ZM156.419 52.16V58.02H158.639C160.079 58.02 161.172 58.34 161.919 58.98C162.679 59.62 163.059 60.6333 163.059 62.02C163.059 63.3933 162.679 64.4 161.919 65.04C161.172 65.68 160.079 66 158.639 66H154.259V52.16H156.419ZM158.639 64.16C159.439 64.16 160.019 63.9867 160.379 63.64C160.739 63.28 160.919 62.74 160.919 62.02C160.919 61.3 160.739 60.76 160.379 60.4C160.019 60.04 159.439 59.86 158.639 59.86H156.419V64.16H158.639Z" fill="#C0D0FF"/>
<path d="M109.176 44V35.6H112.632C113.376 35.6 114.012 35.72 114.54 35.96C115.076 36.2 115.488 36.544 115.776 36.992C116.064 37.44 116.208 37.972 116.208 38.588C116.208 39.204 116.064 39.736 115.776 40.184C115.488 40.632 115.076 40.976 114.54 41.216C114.012 41.456 113.376 41.576 112.632 41.576H110.04L110.736 40.844V44H109.176ZM110.736 41.012L110.04 40.256H112.56C113.248 40.256 113.764 40.112 114.108 39.824C114.46 39.528 114.636 39.116 114.636 38.588C114.636 38.052 114.46 37.64 114.108 37.352C113.764 37.064 113.248 36.92 112.56 36.92H110.04L110.736 36.152V41.012ZM119.694 44L123.474 35.6H125.01L128.802 44H127.17L123.918 36.428H124.542L121.302 44H119.694ZM121.434 42.056L121.854 40.832H126.39L126.81 42.056H121.434ZM139.494 35.6H141.054V44H139.494V35.6ZM135.15 44H133.59V35.6H135.15V44ZM139.614 40.4H135.018V39.068H139.614V40.4ZM146.922 44V35.6H152.622L152.61 36.92H148.086L148.446 36.548L148.458 44H146.922Z" fill="white"/>
<path d="M46.474 286V277.04L47.454 278.02H44.514V276.2H48.742V286H46.474ZM54.6444 286.168C53.8418 286.168 53.1231 285.972 52.4884 285.58C51.8538 285.179 51.3544 284.6 50.9904 283.844C50.6264 283.088 50.4444 282.173 50.4444 281.1C50.4444 280.027 50.6264 279.112 50.9904 278.356C51.3544 277.6 51.8538 277.026 52.4884 276.634C53.1231 276.233 53.8418 276.032 54.6444 276.032C55.4564 276.032 56.1751 276.233 56.8004 276.634C57.4351 277.026 57.9344 277.6 58.2984 278.356C58.6624 279.112 58.8444 280.027 58.8444 281.1C58.8444 282.173 58.6624 283.088 58.2984 283.844C57.9344 284.6 57.4351 285.179 56.8004 285.58C56.1751 285.972 55.4564 286.168 54.6444 286.168ZM54.6444 284.25C55.0271 284.25 55.3584 284.143 55.6384 283.928C55.9278 283.713 56.1518 283.373 56.3104 282.906C56.4784 282.439 56.5624 281.837 56.5624 281.1C56.5624 280.363 56.4784 279.761 56.3104 279.294C56.1518 278.827 55.9278 278.487 55.6384 278.272C55.3584 278.057 55.0271 277.95 54.6444 277.95C54.2711 277.95 53.9398 278.057 53.6504 278.272C53.3704 278.487 53.1464 278.827 52.9784 279.294C52.8198 279.761 52.7404 280.363 52.7404 281.1C52.7404 281.837 52.8198 282.439 52.9784 282.906C53.1464 283.373 53.3704 283.713 53.6504 283.928C53.9398 284.143 54.2711 284.25 54.6444 284.25ZM59.8527 288.156L60.7767 284.796L61.0847 286.056C60.6833 286.056 60.352 285.939 60.0907 285.706C59.8387 285.473 59.7127 285.151 59.7127 284.74C59.7127 284.329 59.8433 284.003 60.1047 283.76C60.366 283.517 60.688 283.396 61.0707 283.396C61.4627 283.396 61.7847 283.522 62.0367 283.774C62.2887 284.017 62.4147 284.339 62.4147 284.74C62.4147 284.861 62.4053 284.983 62.3867 285.104C62.368 285.216 62.3307 285.356 62.2747 285.524C62.228 285.683 62.1487 285.888 62.0367 286.14L61.2387 288.156H59.8527ZM67.455 286.168C66.6523 286.168 65.9337 285.972 65.299 285.58C64.6643 285.179 64.165 284.6 63.801 283.844C63.437 283.088 63.255 282.173 63.255 281.1C63.255 280.027 63.437 279.112 63.801 278.356C64.165 277.6 64.6643 277.026 65.299 276.634C65.9337 276.233 66.6523 276.032 67.455 276.032C68.267 276.032 68.9857 276.233 69.611 276.634C70.2457 277.026 70.745 277.6 71.109 278.356C71.473 279.112 71.655 280.027 71.655 281.1C71.655 282.173 71.473 283.088 71.109 283.844C70.745 284.6 70.2457 285.179 69.611 285.58C68.9857 285.972 68.267 286.168 67.455 286.168ZM67.455 284.25C67.8377 284.25 68.169 284.143 68.449 283.928C68.7383 283.713 68.9623 283.373 69.121 282.906C69.289 282.439 69.373 281.837 69.373 281.1C69.373 280.363 69.289 279.761 69.121 279.294C68.9623 278.827 68.7383 278.487 68.449 278.272C68.169 278.057 67.8377 277.95 67.455 277.95C67.0817 277.95 66.7503 278.057 66.461 278.272C66.181 278.487 65.957 278.827 65.789 279.294C65.6303 279.761 65.551 280.363 65.551 281.1C65.551 281.837 65.6303 282.439 65.789 282.906C65.957 283.373 66.181 283.713 66.461 283.928C66.7503 284.143 67.0817 284.25 67.455 284.25ZM76.9569 286.168C76.1543 286.168 75.4356 285.972 74.8009 285.58C74.1663 285.179 73.6669 284.6 73.3029 283.844C72.9389 283.088 72.7569 282.173 72.7569 281.1C72.7569 280.027 72.9389 279.112 73.3029 278.356C73.6669 277.6 74.1663 277.026 74.8009 276.634C75.4356 276.233 76.1543 276.032 76.9569 276.032C77.7689 276.032 78.4876 276.233 79.1129 276.634C79.7476 277.026 80.2469 277.6 80.6109 278.356C80.9749 279.112 81.1569 280.027 81.1569 281.1C81.1569 282.173 80.9749 283.088 80.6109 283.844C80.2469 284.6 79.7476 285.179 79.1129 285.58C78.4876 285.972 77.7689 286.168 76.9569 286.168ZM76.9569 284.25C77.3396 284.25 77.6709 284.143 77.9509 283.928C78.2403 283.713 78.4643 283.373 78.6229 282.906C78.7909 282.439 78.8749 281.837 78.8749 281.1C78.8749 280.363 78.7909 279.761 78.6229 279.294C78.4643 278.827 78.2403 278.487 77.9509 278.272C77.6709 278.057 77.3396 277.95 76.9569 277.95C76.5836 277.95 76.2523 278.057 75.9629 278.272C75.6829 278.487 75.4589 278.827 75.2909 279.294C75.1323 279.761 75.0529 280.363 75.0529 281.1C75.0529 281.837 75.1323 282.439 75.2909 282.906C75.4589 283.373 75.6829 283.713 75.9629 283.928C76.2523 284.143 76.5836 284.25 76.9569 284.25ZM86.4589 286.168C85.6562 286.168 84.9376 285.972 84.3029 285.58C83.6682 285.179 83.1689 284.6 82.8049 283.844C82.4409 283.088 82.2589 282.173 82.2589 281.1C82.2589 280.027 82.4409 279.112 82.8049 278.356C83.1689 277.6 83.6682 277.026 84.3029 276.634C84.9376 276.233 85.6562 276.032 86.4589 276.032C87.2709 276.032 87.9896 276.233 88.6149 276.634C89.2496 277.026 89.7489 277.6 90.1129 278.356C90.4769 279.112 90.6589 280.027 90.6589 281.1C90.6589 282.173 90.4769 283.088 90.1129 283.844C89.7489 284.6 89.2496 285.179 88.6149 285.58C87.9896 285.972 87.2709 286.168 86.4589 286.168ZM86.4589 284.25C86.8416 284.25 87.1729 284.143 87.4529 283.928C87.7422 283.713 87.9662 283.373 88.1249 282.906C88.2929 282.439 88.3769 281.837 88.3769 281.1C88.3769 280.363 88.2929 279.761 88.1249 279.294C87.9662 278.827 87.7422 278.487 87.4529 278.272C87.1729 278.057 86.8416 277.95 86.4589 277.95C86.0856 277.95 85.7542 278.057 85.4649 278.272C85.1849 278.487 84.9609 278.827 84.7929 279.294C84.6342 279.761 84.5549 280.363 84.5549 281.1C84.5549 281.837 84.6342 282.439 84.7929 282.906C84.9609 283.373 85.1849 283.713 85.4649 283.928C85.7542 284.143 86.0856 284.25 86.4589 284.25ZM91.6671 288.156L92.5911 284.796L92.8991 286.056C92.4978 286.056 92.1664 285.939 91.9051 285.706C91.6531 285.473 91.5271 285.151 91.5271 284.74C91.5271 284.329 91.6578 284.003 91.9191 283.76C92.1804 283.517 92.5024 283.396 92.8851 283.396C93.2771 283.396 93.5991 283.522 93.8511 283.774C94.1031 284.017 94.2291 284.339 94.2291 284.74C94.2291 284.861 94.2198 284.983 94.2011 285.104C94.1824 285.216 94.1451 285.356 94.0891 285.524C94.0424 285.683 93.9631 285.888 93.8511 286.14L93.0531 288.156H91.6671ZM99.2694 286.168C98.4668 286.168 97.7481 285.972 97.1134 285.58C96.4788 285.179 95.9794 284.6 95.6154 283.844C95.2514 283.088 95.0694 282.173 95.0694 281.1C95.0694 280.027 95.2514 279.112 95.6154 278.356C95.9794 277.6 96.4788 277.026 97.1134 276.634C97.7481 276.233 98.4668 276.032 99.2694 276.032C100.081 276.032 100.8 276.233 101.425 276.634C102.06 277.026 102.559 277.6 102.923 278.356C103.287 279.112 103.469 280.027 103.469 281.1C103.469 282.173 103.287 283.088 102.923 283.844C102.559 284.6 102.06 285.179 101.425 285.58C100.8 285.972 100.081 286.168 99.2694 286.168ZM99.2694 284.25C99.6521 284.25 99.9834 284.143 100.263 283.928C100.553 283.713 100.777 283.373 100.935 282.906C101.103 282.439 101.187 281.837 101.187 281.1C101.187 280.363 101.103 279.761 100.935 279.294C100.777 278.827 100.553 278.487 100.263 278.272C99.9834 278.057 99.6521 277.95 99.2694 277.95C98.8961 277.95 98.5648 278.057 98.2754 278.272C97.9954 278.487 97.7714 278.827 97.6034 279.294C97.4448 279.761 97.3654 280.363 97.3654 281.1C97.3654 281.837 97.4448 282.439 97.6034 282.906C97.7714 283.373 97.9954 283.713 98.2754 283.928C98.5648 284.143 98.8961 284.25 99.2694 284.25ZM108.771 286.168C107.969 286.168 107.25 285.972 106.615 285.58C105.981 285.179 105.481 284.6 105.117 283.844C104.753 283.088 104.571 282.173 104.571 281.1C104.571 280.027 104.753 279.112 105.117 278.356C105.481 277.6 105.981 277.026 106.615 276.634C107.25 276.233 107.969 276.032 108.771 276.032C109.583 276.032 110.302 276.233 110.927 276.634C111.562 277.026 112.061 277.6 112.425 278.356C112.789 279.112 112.971 280.027 112.971 281.1C112.971 282.173 112.789 283.088 112.425 283.844C112.061 284.6 111.562 285.179 110.927 285.58C110.302 285.972 109.583 286.168 108.771 286.168ZM108.771 284.25C109.154 284.25 109.485 284.143 109.765 283.928C110.055 283.713 110.279 283.373 110.437 282.906C110.605 282.439 110.689 281.837 110.689 281.1C110.689 280.363 110.605 279.761 110.437 279.294C110.279 278.827 110.055 278.487 109.765 278.272C109.485 278.057 109.154 277.95 108.771 277.95C108.398 277.95 108.067 278.057 107.777 278.272C107.497 278.487 107.273 278.827 107.105 279.294C106.947 279.761 106.867 280.363 106.867 281.1C106.867 281.837 106.947 282.439 107.105 282.906C107.273 283.373 107.497 283.713 107.777 283.928C108.067 284.143 108.398 284.25 108.771 284.25ZM118.273 286.168C117.471 286.168 116.752 285.972 116.117 285.58C115.483 285.179 114.983 284.6 114.619 283.844C114.255 283.088 114.073 282.173 114.073 281.1C114.073 280.027 114.255 279.112 114.619 278.356C114.983 277.6 115.483 277.026 116.117 276.634C116.752 276.233 117.471 276.032 118.273 276.032C119.085 276.032 119.804 276.233 120.429 276.634C121.064 277.026 121.563 277.6 121.927 278.356C122.291 279.112 122.473 280.027 122.473 281.1C122.473 282.173 122.291 283.088 121.927 283.844C121.563 284.6 121.064 285.179 120.429 285.58C119.804 285.972 119.085 286.168 118.273 286.168ZM118.273 284.25C118.656 284.25 118.987 284.143 119.267 283.928C119.557 283.713 119.781 283.373 119.939 282.906C120.107 282.439 120.191 281.837 120.191 281.1C120.191 280.363 120.107 279.761 119.939 279.294C119.781 278.827 119.557 278.487 119.267 278.272C118.987 278.057 118.656 277.95 118.273 277.95C117.9 277.95 117.569 278.057 117.279 278.272C116.999 278.487 116.775 278.827 116.607 279.294C116.449 279.761 116.369 280.363 116.369 281.1C116.369 281.837 116.449 282.439 116.607 282.906C116.775 283.373 116.999 283.713 117.279 283.928C117.569 284.143 117.9 284.25 118.273 284.25ZM132.737 286V276.2H136.979C138.286 276.2 139.322 276.475 140.087 277.026C140.852 277.577 141.235 278.403 141.235 279.504C141.235 280.596 140.852 281.417 140.087 281.968C139.322 282.519 138.286 282.794 136.979 282.794H133.997L135.019 281.786V286H132.737ZM135.019 282.024L133.997 281.016H136.965C137.59 281.016 138.076 280.89 138.421 280.638C138.766 280.377 138.939 280.003 138.939 279.518C138.939 279.042 138.766 278.678 138.421 278.426C138.076 278.174 137.59 278.048 136.965 278.048H133.997L135.019 276.97V282.024ZM131.379 284.74V283.578H138.043V284.74H131.379Z" fill="white"/>
<path d="M153.675 285.16V277.74H149.839L149.769 279.476C149.741 280.129 149.699 280.75 149.643 281.338C149.596 281.917 149.517 282.444 149.405 282.92C149.302 283.396 149.158 283.793 148.971 284.11C148.784 284.427 148.556 284.637 148.285 284.74L146.325 284.46C146.68 284.479 146.969 284.357 147.193 284.096C147.426 283.835 147.608 283.471 147.739 283.004C147.87 282.537 147.968 281.991 148.033 281.366C148.098 280.731 148.145 280.045 148.173 279.308L148.285 276.2H155.467V285.16H153.675ZM145.989 288.086L146.003 284.46H156.881V288.086H155.201V286H147.683V288.086H145.989ZM161.748 286.098C160.917 286.098 160.189 285.935 159.564 285.608C158.948 285.272 158.467 284.815 158.122 284.236C157.786 283.657 157.618 282.999 157.618 282.262C157.618 281.515 157.781 280.857 158.108 280.288C158.444 279.709 158.901 279.257 159.48 278.93C160.068 278.603 160.735 278.44 161.482 278.44C162.21 278.44 162.859 278.599 163.428 278.916C163.997 279.233 164.445 279.681 164.772 280.26C165.099 280.839 165.262 281.52 165.262 282.304C165.262 282.379 165.257 282.463 165.248 282.556C165.248 282.649 165.243 282.738 165.234 282.822H159.004V281.66H164.31L163.624 282.024C163.633 281.595 163.545 281.217 163.358 280.89C163.171 280.563 162.915 280.307 162.588 280.12C162.271 279.933 161.902 279.84 161.482 279.84C161.053 279.84 160.675 279.933 160.348 280.12C160.031 280.307 159.779 280.568 159.592 280.904C159.415 281.231 159.326 281.618 159.326 282.066V282.346C159.326 282.794 159.429 283.191 159.634 283.536C159.839 283.881 160.129 284.147 160.502 284.334C160.875 284.521 161.305 284.614 161.79 284.614C162.21 284.614 162.588 284.549 162.924 284.418C163.26 284.287 163.559 284.082 163.82 283.802L164.758 284.88C164.422 285.272 163.997 285.575 163.484 285.79C162.98 285.995 162.401 286.098 161.748 286.098ZM167.176 286V278.524H174.344V286H172.608V279.602L173.014 280.008H168.52L168.926 279.602V286H167.176ZM180.037 286.098C179.272 286.098 178.591 285.935 177.993 285.608C177.396 285.272 176.925 284.815 176.579 284.236C176.234 283.657 176.061 282.999 176.061 282.262C176.061 281.515 176.234 280.857 176.579 280.288C176.925 279.709 177.396 279.257 177.993 278.93C178.591 278.603 179.272 278.44 180.037 278.44C180.812 278.44 181.498 278.603 182.095 278.93C182.702 279.257 183.173 279.705 183.509 280.274C183.855 280.843 184.027 281.506 184.027 282.262C184.027 282.999 183.855 283.657 183.509 284.236C183.173 284.815 182.702 285.272 182.095 285.608C181.498 285.935 180.812 286.098 180.037 286.098ZM180.037 284.6C180.467 284.6 180.849 284.507 181.185 284.32C181.521 284.133 181.783 283.863 181.969 283.508C182.165 283.153 182.263 282.738 182.263 282.262C182.263 281.777 182.165 281.361 181.969 281.016C181.783 280.661 181.521 280.391 181.185 280.204C180.849 280.017 180.471 279.924 180.051 279.924C179.622 279.924 179.239 280.017 178.903 280.204C178.577 280.391 178.315 280.661 178.119 281.016C177.923 281.361 177.825 281.777 177.825 282.262C177.825 282.738 177.923 283.153 178.119 283.508C178.315 283.863 178.577 284.133 178.903 284.32C179.239 284.507 179.617 284.6 180.037 284.6ZM188.013 286.126C188.703 286.126 189.315 286.028 189.847 285.832C190.388 285.636 190.813 285.365 191.121 285.02C191.429 284.665 191.583 284.259 191.583 283.802C191.583 283.233 191.345 282.785 190.869 282.458C190.393 282.122 189.739 281.954 188.909 281.954L188.853 282.332C189.338 282.332 189.767 282.253 190.141 282.094C190.523 281.935 190.822 281.716 191.037 281.436C191.261 281.147 191.373 280.825 191.373 280.47C191.373 280.041 191.219 279.667 190.911 279.35C190.603 279.033 190.183 278.79 189.651 278.622C189.119 278.454 188.512 278.384 187.831 278.412C187.383 278.421 186.93 278.487 186.473 278.608C186.025 278.72 185.563 278.883 185.087 279.098L185.535 280.386C185.945 280.209 186.347 280.073 186.739 279.98C187.14 279.887 187.527 279.84 187.901 279.84C188.255 279.84 188.559 279.877 188.811 279.952C189.063 280.017 189.254 280.12 189.385 280.26C189.525 280.391 189.595 280.545 189.595 280.722C189.595 280.899 189.539 281.053 189.427 281.184C189.315 281.315 189.151 281.413 188.937 281.478C188.731 281.543 188.479 281.576 188.181 281.576H186.879V282.752H188.321C188.797 282.752 189.161 282.831 189.413 282.99C189.674 283.139 189.805 283.363 189.805 283.662C189.805 283.867 189.725 284.049 189.567 284.208C189.417 284.367 189.203 284.488 188.923 284.572C188.643 284.647 188.307 284.684 187.915 284.684C187.457 284.684 187 284.628 186.543 284.516C186.085 284.404 185.675 284.245 185.311 284.04L184.821 285.342C185.269 285.594 185.768 285.79 186.319 285.93C186.879 286.061 187.443 286.126 188.013 286.126ZM193.385 286V278.524H195.135V283.452L199.265 278.524H200.861V286H199.111V281.072L194.995 286H193.385ZM204.769 286V279.588L205.175 280.008H202.137V278.524H209.137V280.008H206.113L206.519 279.588V286H204.769ZM214.942 286V284.488L214.844 284.166V281.52C214.844 281.007 214.69 280.61 214.382 280.33C214.074 280.041 213.608 279.896 212.982 279.896C212.562 279.896 212.147 279.961 211.736 280.092C211.335 280.223 210.994 280.405 210.714 280.638L210.028 279.364C210.43 279.056 210.906 278.827 211.456 278.678C212.016 278.519 212.595 278.44 213.192 278.44C214.275 278.44 215.11 278.701 215.698 279.224C216.296 279.737 216.594 280.535 216.594 281.618V286H214.942ZM212.59 286.098C212.03 286.098 211.54 286.005 211.12 285.818C210.7 285.622 210.374 285.356 210.14 285.02C209.916 284.675 209.804 284.287 209.804 283.858C209.804 283.438 209.902 283.06 210.098 282.724C210.304 282.388 210.635 282.122 211.092 281.926C211.55 281.73 212.156 281.632 212.912 281.632H215.082V282.794H213.038C212.441 282.794 212.04 282.892 211.834 283.088C211.629 283.275 211.526 283.508 211.526 283.788C211.526 284.105 211.652 284.357 211.904 284.544C212.156 284.731 212.506 284.824 212.954 284.824C213.384 284.824 213.766 284.726 214.102 284.53C214.448 284.334 214.695 284.045 214.844 283.662L215.138 284.712C214.97 285.151 214.667 285.491 214.228 285.734C213.799 285.977 213.253 286.098 212.59 286.098Z" fill="#7D7D7D"/>
<path d="M79.7696 267V265.53L83.5496 261.96C83.8483 261.689 84.0676 261.447 84.2076 261.232C84.3476 261.017 84.441 260.821 84.4876 260.644C84.5436 260.467 84.5716 260.303 84.5716 260.154C84.5716 259.762 84.4363 259.463 84.1656 259.258C83.9043 259.043 83.517 258.936 83.0036 258.936C82.593 258.936 82.2103 259.015 81.8556 259.174C81.5103 259.333 81.2163 259.58 80.9736 259.916L79.3216 258.852C79.695 258.292 80.2176 257.849 80.8896 257.522C81.5616 257.195 82.3363 257.032 83.2136 257.032C83.9416 257.032 84.5763 257.153 85.1176 257.396C85.6683 257.629 86.093 257.961 86.3916 258.39C86.6996 258.819 86.8536 259.333 86.8536 259.93C86.8536 260.247 86.8116 260.565 86.7276 260.882C86.653 261.19 86.4943 261.517 86.2516 261.862C86.0183 262.207 85.673 262.595 85.2156 263.024L82.0796 265.978L81.6456 265.152H87.1756V267H79.7696ZM92.3114 267.168C91.5088 267.168 90.7901 266.972 90.1554 266.58C89.5208 266.179 89.0214 265.6 88.6574 264.844C88.2934 264.088 88.1114 263.173 88.1114 262.1C88.1114 261.027 88.2934 260.112 88.6574 259.356C89.0214 258.6 89.5208 258.026 90.1554 257.634C90.7901 257.233 91.5088 257.032 92.3114 257.032C93.1234 257.032 93.8421 257.233 94.4674 257.634C95.1021 258.026 95.6014 258.6 95.9654 259.356C96.3294 260.112 96.5114 261.027 96.5114 262.1C96.5114 263.173 96.3294 264.088 95.9654 264.844C95.6014 265.6 95.1021 266.179 94.4674 266.58C93.8421 266.972 93.1234 267.168 92.3114 267.168ZM92.3114 265.25C92.6941 265.25 93.0254 265.143 93.3054 264.928C93.5948 264.713 93.8188 264.373 93.9774 263.906C94.1454 263.439 94.2294 262.837 94.2294 262.1C94.2294 261.363 94.1454 260.761 93.9774 260.294C93.8188 259.827 93.5948 259.487 93.3054 259.272C93.0254 259.057 92.6941 258.95 92.3114 258.95C91.9381 258.95 91.6068 259.057 91.3174 259.272C91.0374 259.487 90.8134 259.827 90.6454 260.294C90.4868 260.761 90.4074 261.363 90.4074 262.1C90.4074 262.837 90.4868 263.439 90.6454 263.906C90.8134 264.373 91.0374 264.713 91.3174 264.928C91.6068 265.143 91.9381 265.25 92.3114 265.25ZM99.0274 267L105.719 257.2H107.385L100.693 267H99.0274ZM99.8814 262.492C99.4054 262.492 98.9854 262.385 98.6214 262.17C98.2574 261.946 97.968 261.633 97.7534 261.232C97.548 260.821 97.4454 260.341 97.4454 259.79C97.4454 259.239 97.548 258.763 97.7534 258.362C97.968 257.961 98.2574 257.648 98.6214 257.424C98.9854 257.2 99.4054 257.088 99.8814 257.088C100.357 257.088 100.777 257.2 101.141 257.424C101.505 257.648 101.79 257.961 101.995 258.362C102.201 258.763 102.303 259.239 102.303 259.79C102.303 260.341 102.201 260.821 101.995 261.232C101.79 261.633 101.505 261.946 101.141 262.17C100.777 262.385 100.357 262.492 99.8814 262.492ZM99.8814 261.344C100.189 261.344 100.437 261.218 100.623 260.966C100.81 260.705 100.903 260.313 100.903 259.79C100.903 259.267 100.81 258.88 100.623 258.628C100.437 258.367 100.189 258.236 99.8814 258.236C99.5827 258.236 99.3354 258.367 99.1394 258.628C98.9527 258.88 98.8594 259.267 98.8594 259.79C98.8594 260.303 98.9527 260.691 99.1394 260.952C99.3354 261.213 99.5827 261.344 99.8814 261.344ZM106.531 267.112C106.065 267.112 105.645 267.005 105.271 266.79C104.907 266.566 104.623 266.253 104.417 265.852C104.212 265.441 104.109 264.961 104.109 264.41C104.109 263.859 104.212 263.383 104.417 262.982C104.623 262.581 104.907 262.268 105.271 262.044C105.645 261.82 106.065 261.708 106.531 261.708C107.017 261.708 107.441 261.82 107.805 262.044C108.169 262.268 108.454 262.581 108.659 262.982C108.865 263.383 108.967 263.859 108.967 264.41C108.967 264.961 108.865 265.441 108.659 265.852C108.454 266.253 108.169 266.566 107.805 266.79C107.441 267.005 107.017 267.112 106.531 267.112ZM106.531 265.964C106.839 265.964 107.087 265.838 107.273 265.586C107.46 265.325 107.553 264.933 107.553 264.41C107.553 263.897 107.46 263.509 107.273 263.248C107.087 262.987 106.839 262.856 106.531 262.856C106.233 262.856 105.985 262.987 105.789 263.248C105.603 263.5 105.509 263.887 105.509 264.41C105.509 264.933 105.603 265.325 105.789 265.586C105.985 265.838 106.233 265.964 106.531 265.964Z" fill="white"/>
<path d="M119.162 267.14C118.415 267.14 117.72 267.019 117.076 266.776C116.441 266.524 115.886 266.174 115.41 265.726C114.943 265.269 114.579 264.732 114.318 264.116C114.056 263.5 113.926 262.828 113.926 262.1C113.926 261.372 114.056 260.7 114.318 260.084C114.579 259.468 114.948 258.936 115.424 258.488C115.9 258.031 116.455 257.681 117.09 257.438C117.724 257.186 118.42 257.06 119.176 257.06C119.978 257.06 120.711 257.2 121.374 257.48C122.036 257.751 122.596 258.157 123.054 258.698L121.878 259.804C121.523 259.421 121.126 259.137 120.688 258.95C120.249 258.754 119.773 258.656 119.26 258.656C118.746 258.656 118.275 258.74 117.846 258.908C117.426 259.076 117.057 259.314 116.74 259.622C116.432 259.93 116.189 260.294 116.012 260.714C115.844 261.134 115.76 261.596 115.76 262.1C115.76 262.604 115.844 263.066 116.012 263.486C116.189 263.906 116.432 264.27 116.74 264.578C117.057 264.886 117.426 265.124 117.846 265.292C118.275 265.46 118.746 265.544 119.26 265.544C119.773 265.544 120.249 265.451 120.688 265.264C121.126 265.068 121.523 264.774 121.878 264.382L123.054 265.502C122.596 266.034 122.036 266.44 121.374 266.72C120.711 267 119.974 267.14 119.162 267.14ZM129.167 267V265.488L129.069 265.166V262.52C129.069 262.007 128.915 261.61 128.607 261.33C128.299 261.041 127.832 260.896 127.207 260.896C126.787 260.896 126.372 260.961 125.961 261.092C125.56 261.223 125.219 261.405 124.939 261.638L124.253 260.364C124.654 260.056 125.13 259.827 125.681 259.678C126.241 259.519 126.82 259.44 127.417 259.44C128.5 259.44 129.335 259.701 129.923 260.224C130.52 260.737 130.819 261.535 130.819 262.618V267H129.167ZM126.815 267.098C126.255 267.098 125.765 267.005 125.345 266.818C124.925 266.622 124.598 266.356 124.365 266.02C124.141 265.675 124.029 265.287 124.029 264.858C124.029 264.438 124.127 264.06 124.323 263.724C124.528 263.388 124.86 263.122 125.317 262.926C125.774 262.73 126.381 262.632 127.137 262.632H129.307V263.794H127.263C126.666 263.794 126.264 263.892 126.059 264.088C125.854 264.275 125.751 264.508 125.751 264.788C125.751 265.105 125.877 265.357 126.129 265.544C126.381 265.731 126.731 265.824 127.179 265.824C127.608 265.824 127.991 265.726 128.327 265.53C128.672 265.334 128.92 265.045 129.069 264.662L129.363 265.712C129.195 266.151 128.892 266.491 128.453 266.734C128.024 266.977 127.478 267.098 126.815 267.098ZM135.375 267.098C134.75 267.098 134.148 267.019 133.569 266.86C133 266.692 132.547 266.491 132.211 266.258L132.883 264.928C133.219 265.143 133.62 265.32 134.087 265.46C134.554 265.6 135.02 265.67 135.487 265.67C136.038 265.67 136.434 265.595 136.677 265.446C136.929 265.297 137.055 265.096 137.055 264.844C137.055 264.639 136.971 264.485 136.803 264.382C136.635 264.27 136.416 264.186 136.145 264.13C135.874 264.074 135.571 264.023 135.235 263.976C134.908 263.929 134.577 263.869 134.241 263.794C133.914 263.71 133.616 263.593 133.345 263.444C133.074 263.285 132.855 263.075 132.687 262.814C132.519 262.553 132.435 262.207 132.435 261.778C132.435 261.302 132.57 260.891 132.841 260.546C133.112 260.191 133.49 259.921 133.975 259.734C134.47 259.538 135.053 259.44 135.725 259.44C136.229 259.44 136.738 259.496 137.251 259.608C137.764 259.72 138.189 259.879 138.525 260.084L137.853 261.414C137.498 261.199 137.139 261.055 136.775 260.98C136.42 260.896 136.066 260.854 135.711 260.854C135.179 260.854 134.782 260.933 134.521 261.092C134.269 261.251 134.143 261.451 134.143 261.694C134.143 261.918 134.227 262.086 134.395 262.198C134.563 262.31 134.782 262.399 135.053 262.464C135.324 262.529 135.622 262.585 135.949 262.632C136.285 262.669 136.616 262.73 136.943 262.814C137.27 262.898 137.568 263.015 137.839 263.164C138.119 263.304 138.343 263.505 138.511 263.766C138.679 264.027 138.763 264.368 138.763 264.788C138.763 265.255 138.623 265.661 138.343 266.006C138.072 266.351 137.685 266.622 137.181 266.818C136.677 267.005 136.075 267.098 135.375 267.098ZM144.512 259.44C145.109 259.44 145.641 259.557 146.108 259.79C146.584 260.023 146.957 260.383 147.228 260.868C147.499 261.344 147.634 261.96 147.634 262.716V267H145.884V262.94C145.884 262.277 145.725 261.783 145.408 261.456C145.1 261.129 144.666 260.966 144.106 260.966C143.695 260.966 143.331 261.05 143.014 261.218C142.697 261.386 142.449 261.638 142.272 261.974C142.104 262.301 142.02 262.716 142.02 263.22V267H140.27V256.612H142.02V261.54L141.642 260.924C141.903 260.448 142.281 260.084 142.776 259.832C143.28 259.571 143.859 259.44 144.512 259.44ZM153.998 267.098C153.363 267.098 152.799 266.958 152.304 266.678C151.809 266.398 151.417 265.978 151.128 265.418C150.848 264.849 150.708 264.13 150.708 263.262C150.708 262.385 150.853 261.666 151.142 261.106C151.441 260.546 151.837 260.131 152.332 259.86C152.836 259.58 153.391 259.44 153.998 259.44C154.735 259.44 155.384 259.599 155.944 259.916C156.513 260.233 156.961 260.677 157.288 261.246C157.624 261.815 157.792 262.487 157.792 263.262C157.792 264.037 157.624 264.709 157.288 265.278C156.961 265.847 156.513 266.295 155.944 266.622C155.384 266.939 154.735 267.098 153.998 267.098ZM149.854 267V256.612H151.604V261.26L151.464 263.248L151.52 265.236V267H149.854ZM153.802 265.6C154.222 265.6 154.595 265.507 154.922 265.32C155.258 265.133 155.524 264.863 155.72 264.508C155.916 264.153 156.014 263.738 156.014 263.262C156.014 262.777 155.916 262.361 155.72 262.016C155.524 261.661 155.258 261.391 154.922 261.204C154.595 261.017 154.222 260.924 153.802 260.924C153.382 260.924 153.004 261.017 152.668 261.204C152.332 261.391 152.066 261.661 151.87 262.016C151.674 262.361 151.576 262.777 151.576 263.262C151.576 263.738 151.674 264.153 151.87 264.508C152.066 264.863 152.332 265.133 152.668 265.32C153.004 265.507 153.382 265.6 153.802 265.6ZM163.962 267V265.488L163.864 265.166V262.52C163.864 262.007 163.71 261.61 163.402 261.33C163.094 261.041 162.627 260.896 162.002 260.896C161.582 260.896 161.167 260.961 160.756 261.092C160.355 261.223 160.014 261.405 159.734 261.638L159.048 260.364C159.449 260.056 159.925 259.827 160.476 259.678C161.036 259.519 161.615 259.44 162.212 259.44C163.295 259.44 164.13 259.701 164.718 260.224C165.315 260.737 165.614 261.535 165.614 262.618V267H163.962ZM161.61 267.098C161.05 267.098 160.56 267.005 160.14 266.818C159.72 266.622 159.393 266.356 159.16 266.02C158.936 265.675 158.824 265.287 158.824 264.858C158.824 264.438 158.922 264.06 159.118 263.724C159.323 263.388 159.655 263.122 160.112 262.926C160.569 262.73 161.176 262.632 161.932 262.632H164.102V263.794H162.058C161.461 263.794 161.059 263.892 160.854 264.088C160.649 264.275 160.546 264.508 160.546 264.788C160.546 265.105 160.672 265.357 160.924 265.544C161.176 265.731 161.526 265.824 161.974 265.824C162.403 265.824 162.786 265.726 163.122 265.53C163.467 265.334 163.715 265.045 163.864 264.662L164.158 265.712C163.99 266.151 163.687 266.491 163.248 266.734C162.819 266.977 162.273 267.098 161.61 267.098ZM171.304 267.098C170.52 267.098 169.82 266.935 169.204 266.608C168.597 266.272 168.121 265.815 167.776 265.236C167.43 264.657 167.258 263.999 167.258 263.262C167.258 262.515 167.43 261.857 167.776 261.288C168.121 260.709 168.597 260.257 169.204 259.93C169.82 259.603 170.52 259.44 171.304 259.44C172.032 259.44 172.671 259.589 173.222 259.888C173.782 260.177 174.206 260.607 174.496 261.176L173.152 261.96C172.928 261.605 172.652 261.344 172.326 261.176C172.008 261.008 171.663 260.924 171.29 260.924C170.86 260.924 170.473 261.017 170.128 261.204C169.782 261.391 169.512 261.661 169.316 262.016C169.12 262.361 169.022 262.777 169.022 263.262C169.022 263.747 169.12 264.167 169.316 264.522C169.512 264.867 169.782 265.133 170.128 265.32C170.473 265.507 170.86 265.6 171.29 265.6C171.663 265.6 172.008 265.516 172.326 265.348C172.652 265.18 172.928 264.919 173.152 264.564L174.496 265.348C174.206 265.908 173.782 266.342 173.222 266.65C172.671 266.949 172.032 267.098 171.304 267.098ZM177.368 265.334L177.41 263.136L181.316 259.524H183.416L180.098 262.856L179.174 263.626L177.368 265.334ZM175.94 267V256.612H177.69V267H175.94ZM181.582 267L178.852 263.626L179.958 262.226L183.71 267H181.582Z" fill="#7D7D7D"/>
<path fill-rule="evenodd" clip-rule="evenodd" d="M219.926 19.509V22.7297H221.865C222.936 22.7297 223.804 23.5949 223.804 24.6622V32.3919C223.804 33.4592 222.936 34.3244 221.865 34.3244H208.939C207.868 34.3244 207 33.4592 207 32.3919V24.6622C207 23.5949 207.868 22.7297 208.939 22.7297H210.878V19.509C210.878 17.0188 212.903 15 215.402 15C217.9 15 219.926 17.0188 219.926 19.509ZM212.17 19.509C212.17 17.7303 213.617 16.2883 215.402 16.2883C217.187 16.2883 218.633 17.7303 218.633 19.509V22.7297H212.17V19.509Z" fill="white"/>
<circle cx="215.403" cy="27.6023" r="1.68038" fill="black"/>
<rect x="214.562" y="27.6025" width="1.68038" height="4.20095" fill="black"/>
<path d="M79.0859 168.954V207.627L97.8471 196.843L98.7839 169.931L79.0859 168.954Z" fill="url(#paint14_linear_6924_92375)"/>
<g style="mix-blend-mode:multiply" opacity="0.6">
<path d="M79.0859 202.845L97.9792 193.499L97.8471 196.844L79.0859 207.628V202.845Z" fill="#8E37E2"/>
</g>
<path style="mix-blend-mode:multiply" d="M79.5544 186.085C80.6594 181.923 82.8574 184.82 82.8574 190.74C82.8574 196.661 82.0767 205.904 82.0767 205.904L83.7702 204.754C83.7702 204.754 83.6501 189.441 84.4909 187.602C85.3316 185.763 89.8357 186.372 89.8357 201.466L97.8471 196.868L98.7839 169.956L79.0859 168.979V190.166L79.5544 186.085Z" fill="url(#paint15_linear_6924_92375)"/>
<path d="M181.913 168.954V207.627L163.152 196.843L162.215 169.931L181.913 168.954Z" fill="url(#paint16_linear_6924_92375)"/>
<g style="mix-blend-mode:multiply" opacity="0.6">
<path d="M181.913 202.845L163.02 193.499L163.152 196.844L181.913 207.628V202.845Z" fill="#8E37E2"/>
</g>
<path style="mix-blend-mode:multiply" d="M181.446 186.083C180.353 181.922 178.155 184.819 178.155 190.739C178.155 196.659 178.923 205.902 178.923 205.902L177.242 204.753C177.242 204.753 177.35 189.44 176.509 187.601C175.668 185.761 171.116 186.348 171.116 201.442L163.105 196.843L162.168 169.931L181.866 168.954V190.164L181.446 186.083Z" fill="url(#paint17_linear_6924_92375)"/>
<path d="M125.606 197.064V235C113.595 228.954 95.5781 211.307 95.5781 211.307V185.073L125.606 197.064Z" fill="url(#paint18_linear_6924_92375)"/>
<g style="mix-blend-mode:multiply" opacity="0.6">
<path d="M125.606 227.333V234.966C113.595 228.919 95.5781 211.273 95.5781 211.273V204.731C99.7699 209.859 108.658 218.435 125.606 227.333Z" fill="#8E37E2"/>
</g>
<path d="M135.816 197.064V235C147.827 228.954 165.844 211.307 165.844 211.307V185.073L135.816 197.064Z" fill="url(#paint19_linear_6924_92375)"/>
<g style="mix-blend-mode:multiply" opacity="0.6">
<path d="M135.816 227.333V234.966C147.827 228.919 165.844 211.273 165.844 211.273V204.731C161.652 209.859 152.824 218.435 135.816 227.333Z" fill="#8E37E2"/>
</g>
<path style="mix-blend-mode:multiply" d="M98.4127 213.938C98.4127 213.938 98.1365 196.545 100.971 196.844C103.806 197.142 108.694 199.902 109.763 203.063C110.832 206.224 110.52 224.537 110.52 224.537L111.601 225.388C111.601 225.388 110.268 203.143 112.478 204.236C114.111 204.999 115.527 206.13 116.604 207.531C117.681 208.933 118.388 210.563 118.663 212.283C119.684 217.249 119.996 231.699 119.996 231.699L125.606 234.918V196.982L95.5781 184.991V211.191L98.4127 213.938Z" fill="url(#paint20_linear_6924_92375)"/>
<path style="mix-blend-mode:multiply" d="M163.009 213.939C163.009 213.939 163.237 193.557 160.403 193.856C157.568 194.155 157.448 204.478 157.448 207.651C157.448 210.824 156.992 219.411 156.992 219.411L155.394 220.802C155.394 220.802 155.622 197.615 153.412 198.707C151.202 199.799 141.51 206.973 140.477 211.939C139.444 216.905 139.84 232.632 139.84 232.632L135.816 234.931V196.994L165.844 185.004V211.203L163.009 213.939Z" fill="url(#paint21_linear_6924_92375)"/>
<path d="M142.805 139.329L208.697 138.927L202.547 149.503L146.192 150.998L142.805 139.329Z" fill="url(#paint22_linear_6924_92375)"/>
<path d="M202.825 138.927L195.186 138.973L188.652 149.802L196.495 149.595L202.825 138.927Z" fill="url(#paint23_linear_6924_92375)"/>
<g style="mix-blend-mode:multiply" opacity="0.5">
<path d="M145.711 147.686L204.348 146.398L202.547 149.502L146.191 150.997L145.711 147.686Z" fill="#DE5634"/>
</g>
<g style="mix-blend-mode:soft-light" opacity="0.4">
<path d="M180.17 139.858C179.678 140.375 181.96 145.893 182.897 145.721C183.834 145.548 202.871 145.882 203.724 145.318C204.577 144.755 207.759 140.122 207.063 139.57C206.366 139.018 180.639 139.363 180.17 139.858Z" fill="#FFDF66"/>
</g>
<g style="mix-blend-mode:multiply" opacity="0.5">
<path d="M178.826 139.065C178.826 139.065 181.312 145.503 181.396 146.906C181.348 148.021 181.032 149.111 180.471 150.09L146.192 150.998L142.805 139.33L178.826 139.065Z" fill="#DE5634"/>
</g>
<path d="M118.615 139.329L52.7227 138.927L58.8723 149.503L115.228 150.998L118.615 139.329Z" fill="url(#paint24_linear_6924_92375)"/>
<path d="M58.4648 138.973L66.0918 139.019L72.6258 149.848L64.7946 149.641L58.4648 138.973Z" fill="url(#paint25_linear_6924_92375)"/>
<g style="mix-blend-mode:multiply" opacity="0.5">
<path d="M115.72 147.686L57.0703 146.398L58.872 149.502L115.227 150.997L115.72 147.686Z" fill="#DE5634"/>
</g>
<g style="mix-blend-mode:soft-light" opacity="0.4">
<path d="M80.7928 139.629C82.4263 141.112 79.4956 146.182 78.5588 146.009C77.6219 145.837 58.5485 145.883 57.6957 145.32C56.843 144.756 53.6601 140.124 54.3567 139.572C55.0533 139.02 79.8319 138.778 80.7928 139.629Z" fill="#FFDF66"/>
</g>
<g style="mix-blend-mode:multiply" opacity="0.5">
<path d="M82.5938 139.065C82.5938 139.065 80.1075 145.503 80.0234 146.906C80.073 148.017 80.3895 149.103 80.9483 150.079L115.228 150.987L118.615 139.318L82.5938 139.065Z" fill="#DE5634"/>
</g>
<path d="M150.121 125.695L216.001 125.293L209.852 135.881L153.496 137.364L150.121 125.695Z" fill="url(#paint26_linear_6924_92375)"/>
<path d="M210.524 125.315L202.886 125.361L196.352 136.191L204.195 135.984L210.524 125.315Z" fill="url(#paint27_linear_6924_92375)"/>
<g style="mix-blend-mode:multiply" opacity="0.5">
<path d="M153.016 134.065L211.653 132.766L209.851 135.881L153.496 137.364L153.016 134.065Z" fill="#DE5634"/>
</g>
<g style="mix-blend-mode:soft-light" opacity="0.4">
<path d="M187.475 126.236C186.983 126.754 189.265 132.26 190.201 132.088C191.138 131.915 210.176 132.26 211.028 131.697C211.881 131.134 215.076 126.489 214.38 125.949C213.683 125.409 187.931 125.742 187.475 126.236Z" fill="#FFDF66"/>
</g>
<g style="mix-blend-mode:multiply" opacity="0.5">
<path d="M177.53 125.533C178.554 128.094 179.413 130.712 180.1 133.373C180.047 134.488 179.731 135.577 179.176 136.558L153.496 137.363L150.121 125.694L177.53 125.533Z" fill="#DE5634"/>
</g>
<path d="M110.892 125.695L45 125.293L51.1496 135.881L107.505 137.364L110.892 125.695Z" fill="url(#paint28_linear_6924_92375)"/>
<path d="M50.668 125.362L58.3069 125.408L64.8409 136.238L56.9977 136.031L50.668 125.362Z" fill="url(#paint29_linear_6924_92375)"/>
<g style="mix-blend-mode:multiply" opacity="0.5">
<path d="M107.997 134.065L49.3477 132.766L51.1493 135.881L107.505 137.364L107.997 134.065Z" fill="#DE5634"/>
</g>
<g style="mix-blend-mode:soft-light" opacity="0.4">
<path d="M73.0702 125.994C74.7036 127.489 71.773 132.547 70.8361 132.375C69.8993 132.202 50.8259 132.26 49.9731 131.685C49.1203 131.11 45.9374 126.489 46.634 125.937C47.3307 125.385 72.1213 125.144 73.0702 125.994Z" fill="#FFDF66"/>
</g>
<g style="mix-blend-mode:multiply" opacity="0.5">
<path d="M83.8555 125.533C83.8555 125.533 81.3692 131.971 81.2852 133.373C81.3462 134.49 81.6706 135.579 82.234 136.558L107.529 137.363L110.916 125.694L83.8555 125.533Z" fill="#DE5634"/>
</g>
<path style="mix-blend-mode:multiply" opacity="0.37" d="M114.375 112.681C111.901 114.624 87.2307 127.534 86.8944 128.373C86.462 129.443 89.741 134.478 91.2904 134.052C92.8398 133.627 122.207 117.705 122.267 116.958C122.327 116.211 122.399 112.061 121.69 111.796C120.982 111.532 115.312 111.934 114.375 112.681Z" fill="url(#paint30_linear_6924_92375)"/>
<g style="mix-blend-mode:soft-light" opacity="0.4">
<path d="M111.059 111.371C109.438 111.475 89.3074 123.845 89.3074 124.201C89.3074 124.557 85.7041 126.65 86.6169 126.592C87.5298 126.535 112.933 112.797 112.969 112.326C113.005 111.854 111.972 111.314 111.059 111.371Z" fill="#FFDF66"/>
</g>
<g style="mix-blend-mode:soft-light" opacity="0.4">
<path d="M85.8359 128.375C85.8359 128.375 99.2402 121.902 106.086 117.764C112.933 113.625 114.374 112.683 114.374 112.683L85.8359 128.375Z" fill="#FFDF66"/>
</g>
<path style="mix-blend-mode:multiply" opacity="0.37" d="M147.092 112.681C149.495 114.624 174.225 127.534 174.561 128.373C174.994 129.443 171.715 134.478 170.165 134.052C168.616 133.627 139.213 117.705 139.153 116.958C139.093 116.211 139.021 112.061 139.73 111.796C140.438 111.532 146.107 111.934 147.092 112.681Z" fill="url(#paint31_linear_6924_92375)"/>
<g style="mix-blend-mode:soft-light" opacity="0.4">
<path d="M150.313 111.371C151.934 111.475 172.065 123.845 172.065 124.201C172.065 124.557 175.668 126.65 174.755 126.592C173.842 126.535 148.439 112.797 148.403 112.326C148.367 111.854 149.496 111.314 150.313 111.371Z" fill="#FFDF66"/>
</g>
<g style="mix-blend-mode:soft-light" opacity="0.4">
<path d="M175.596 128.375C175.596 128.375 162.192 121.902 155.333 117.764C148.475 113.625 147.094 112.683 147.094 112.683L175.596 128.375Z" fill="#FFDF66"/>
</g>
<path d="M87.4699 178.415C87.3618 178.795 71.0389 173.357 71.0389 173.357C66.8894 167.399 63.4451 161.018 60.7695 154.331H88.647L87.4699 178.415Z" fill="url(#paint32_linear_6924_92375)"/>
<path d="M66.0898 154.331C66.0898 154.331 72.6238 167.195 73.8249 168.586L87.9258 168.954V168.034C87.9258 168.034 75.014 168.138 74.2813 167.609C73.5486 167.08 66.9546 154.331 66.9546 154.331H66.0898Z" fill="#B33114"/>
<path d="M66.0898 154.331L73.8249 168.586C72.1529 166.306 70.6364 163.925 69.2848 161.459C67.5312 158.125 66.0898 154.331 66.0898 154.331Z" fill="white"/>
<g style="mix-blend-mode:soft-light" opacity="0.4">
<path d="M68.0832 155.206C69.1641 158.287 73.4521 165.265 74.3409 165.265C75.2297 165.265 85.5711 165.093 86.52 163.667C87.4688 162.242 88.2976 155.344 87.4688 155.206C86.6401 155.068 67.6027 153.838 68.0832 155.206Z" fill="#FFDF66"/>
</g>
<g style="mix-blend-mode:soft-light" opacity="0.4">
<path d="M61.6951 154.873C63.0163 157.885 66.7157 165.553 67.4003 165.645C68.0849 165.737 70.391 166.013 70.4271 165.093C70.4271 163.622 66.1632 155.069 65.2023 154.873C64.2414 154.678 61.3588 154.126 61.6951 154.873Z" fill="#FFDF66"/>
</g>
<path style="mix-blend-mode:multiply" opacity="0.37" d="M68.0732 166.645C67.953 167.599 71.6764 172.507 72.277 172.898C72.8775 173.289 85.417 177.163 86.2457 176.612C87.0745 176.06 87.4468 165.943 86.8103 165.644C86.1737 165.345 68.2173 165.598 68.0732 166.645Z" fill="url(#paint33_linear_6924_92375)"/>
<g style="mix-blend-mode:multiply" opacity="0.5">
<path d="M79.2773 154.333C80.6203 161.687 81.2076 169.149 81.0309 176.612L87.4568 178.417L88.6579 154.275L79.2773 154.333Z" fill="#DE5634"/>
</g>
<path d="M173.951 178.415C174.059 178.795 190.382 173.357 190.382 173.357C194.531 167.399 197.975 161.018 200.651 154.331H172.773L173.951 178.415Z" fill="url(#paint34_linear_6924_92375)"/>
<path d="M195.328 154.331C195.328 154.331 188.818 167.195 187.629 168.586L173.516 168.954V168.034C173.516 168.034 186.415 168.138 187.148 167.609C187.881 167.08 194.475 154.331 194.475 154.331H195.328Z" fill="#B33114"/>
<path d="M195.328 154.331L187.629 168.586C189.301 166.306 190.817 163.925 192.169 161.459C193.935 158.125 195.328 154.331 195.328 154.331Z" fill="white"/>
<g style="mix-blend-mode:soft-light" opacity="0.4">
<path d="M193.335 155.206C192.254 158.287 187.979 165.265 187.078 165.265C186.177 165.265 175.847 165.093 174.899 163.667C173.95 162.242 173.121 155.344 173.95 155.206C174.778 155.068 193.816 153.838 193.335 155.206Z" fill="#FFDF66"/>
</g>
<g style="mix-blend-mode:soft-light" opacity="0.4">
<path d="M199.736 154.873C198.403 157.885 194.716 165.553 194.019 165.645C193.322 165.737 191.028 166.013 190.992 165.093C190.992 163.622 195.256 155.069 196.229 154.873C197.202 154.678 200.06 154.126 199.736 154.873Z" fill="#FFDF66"/>
</g>
<path style="mix-blend-mode:multiply" opacity="0.37" d="M193.348 166.645C193.468 167.599 189.744 172.507 189.144 172.898C188.543 173.289 176.004 177.163 175.187 176.612C174.37 176.06 173.986 165.943 174.611 165.644C175.235 165.345 193.204 165.598 193.348 166.645Z" fill="url(#paint35_linear_6924_92375)"/>
<g style="mix-blend-mode:multiply" opacity="0.5">
<path d="M182.143 154.333C180.796 161.686 180.204 169.148 180.377 176.612L173.951 178.417L172.75 154.275L182.143 154.333Z" fill="#DE5634"/>
</g>
<path d="M130.891 98.6328L85.2617 123.844V184.014L130.891 209.224L176.521 184.014V123.844L130.891 98.6328Z" fill="url(#paint36_linear_6924_92375)"/>
<path d="M93.5117 179.451V128.408L130.89 107.75L168.268 128.408V179.451L130.89 200.109L93.5117 179.451Z" fill="url(#paint37_linear_6924_92375)"/>
<path d="M96.2617 177.934V129.926L130.889 110.797L165.517 129.926V177.934L130.889 197.063L96.2617 177.934Z" fill="url(#paint38_linear_6924_92375)"/>
<g style="mix-blend-mode:soft-light" opacity="0.4">
<path d="M86.401 124.005C85.8365 125.626 90.6409 127.615 94.1 126.902C97.5592 126.19 129.628 108.164 130.409 106.543C130.644 104.295 130.644 102.031 130.409 99.7832C129.28 99.7832 86.6773 123.224 86.401 124.005Z" fill="#FFDF66"/>
</g>
<g style="mix-blend-mode:soft-light" opacity="0.4">
<path d="M175.162 124.005C175.726 125.626 170.874 127.615 167.463 126.902C164.051 126.19 132.234 107.991 131.153 106.543C130.589 105.796 130.409 99.7832 131.153 99.7832C132.282 99.7832 174.885 123.224 175.162 124.005Z" fill="#FFDF66"/>
</g>
<path style="mix-blend-mode:multiply" opacity="0.37" d="M86.3518 158.231C86.0395 160.024 85.2949 182.798 86.3518 182.97C87.4088 183.142 92.3573 179.901 92.6336 178.372C92.9098 176.843 92.9939 161.266 92.6336 159.771C92.2732 158.277 86.8563 155.23 86.3518 158.231Z" fill="url(#paint39_linear_6924_92375)"/>
<path style="mix-blend-mode:multiply" opacity="0.37" d="M175.248 158.231C175.56 160.024 176.305 182.798 175.248 182.97C174.191 183.142 169.243 179.901 168.966 178.372C168.69 176.843 168.606 161.266 168.966 159.771C169.327 158.277 174.72 155.23 175.248 158.231Z" fill="url(#paint40_linear_6924_92375)"/>
<path style="mix-blend-mode:multiply" opacity="0.37" d="M87.4951 183.591C88.0476 184.372 129.149 207.629 129.762 207.629C130.074 207.629 130.494 201.881 130.494 201.202C130.494 199.409 94.1491 180.935 93.5126 180.762C92.5757 180.51 86.9426 182.809 87.4951 183.591Z" fill="url(#paint41_linear_6924_92375)"/>
<path style="mix-blend-mode:multiply" opacity="0.37" d="M174.359 184.198C173.806 184.98 131.936 208.156 131.323 208.156C131.166 205.658 131.218 203.151 131.479 200.661C132.813 199.396 167.512 180.899 168.101 180.727C169.014 180.508 174.911 183.417 174.359 184.198Z" fill="url(#paint42_linear_6924_92375)"/>
<g style="mix-blend-mode:multiply" opacity="0.37">
<path d="M97.8482 176.658C95.446 163.357 96.7672 162.518 114.003 156.896C131.239 151.275 160.401 136.79 162.96 143.101C165.518 149.412 164.641 176.152 164.065 177.589C163.488 179.026 133.377 195.603 130.89 195.638C128.404 195.672 98.1244 178.152 97.8482 176.658Z" fill="#ED8A1D"/>
</g>
<g style="mix-blend-mode:soft-light" opacity="0.4">
<path d="M164.774 130.259C164.161 130.121 132.872 112.808 131.143 112.934C129.413 113.061 107.661 122.821 98.7133 130.178C96.3111 132.156 97.1999 161.516 99.3979 160.976C101.596 160.436 103.217 148.583 127.431 141.916C151.273 135.34 161.651 141.031 164.233 142.042C164.966 142.33 166.155 130.535 164.774 130.259Z" fill="#FFDF66"/>
</g>
<g style="mix-blend-mode:multiply" opacity="0.5">
<path d="M93.5117 179.452V128.41L130.89 107.717L168.268 128.41V179.452L165.517 177.934C165.517 177.934 165.686 133.56 164.689 132.169C161.085 127.203 133.46 115.132 128.944 116.477C124.428 117.822 99.7094 127.869 96.9589 132.088C96.034 133.502 96.2622 177.934 96.2622 177.934L93.5117 179.452Z" fill="#DE5634"/>
</g>
<g style="mix-blend-mode:soft-light" opacity="0.4">
<path d="M137.881 135.376C147.19 139.446 161.218 139.515 162.504 138.733C163.789 137.951 164.641 132.238 162.624 131.284C160.606 130.329 144.607 122.167 140.403 123.041C136.2 123.915 136.284 134.663 137.881 135.376Z" fill="#FFDF66"/>
</g>
<path opacity="0.8" d="M85.262 142.18C85.262 142.042 85.6584 125.212 86.4031 124.005C87.1477 122.797 129.907 100.104 131.156 99.7824C132.405 99.4605 148.416 108.312 148.416 108.312L130.892 98.6328L85.25 123.844L85.262 142.18Z" fill="#700000"/>
<path d="M147.227 116.741C147.227 116.741 167.273 127.697 167.513 128.927C167.753 130.157 168.234 163.139 168.234 163.139C168.234 163.139 168.426 129.801 168.234 128.41C168.042 127.019 147.227 116.741 147.227 116.741Z" fill="white"/>
<path d="M93.5103 156.378C93.5103 156.378 92.8377 128.788 93.186 127.891C93.5343 126.994 130.888 107.75 130.888 107.75C130.888 107.75 94.8556 127.5 94.0628 128.753C93.2701 130.006 93.5103 156.378 93.5103 156.378Z" fill="white"/>
<path opacity="0.8" d="M85.2617 184.015L130.903 209.226L176.545 184.015V170.312C176.545 170.312 176.161 182.268 175.236 183.762C174.311 185.257 133.402 208.007 131.324 208.157C129.246 208.306 87.4477 184.567 86.3547 182.969C85.2617 181.371 85.2617 153.355 85.2617 153.355V184.015Z" fill="#700000"/>
<g style="mix-blend-mode:soft-light" opacity="0.4">
<path d="M93.5104 166.392C93.5104 166.392 93.3783 178.164 94.0629 179.141C94.7476 180.118 112.476 189.935 112.476 189.935C112.476 189.935 93.2702 180.428 93.042 179.807C92.8138 179.187 93.5104 166.392 93.5104 166.392Z" fill="#FFDF66"/>
</g>
<g style="mix-blend-mode:soft-light" opacity="0.4">
<path d="M108.946 190.165C107.601 190.165 103.829 191.625 104.646 192.464C105.463 193.303 127.923 206.259 130.493 207.179C131.322 207.478 131.25 202.362 130.121 200.707C129.641 200.006 113.126 190.154 108.946 190.165Z" fill="#FFDF66"/>
</g>
<path d="M149.927 110.888C149.194 111.072 151.656 114.05 152.833 114.337C154.01 114.624 155.608 113.808 155.055 113.256C154.503 112.705 151.068 110.589 149.927 110.888Z" fill="white"/>
<path d="M155.394 113.831C154.277 114.119 156.342 118.821 157.231 119.648C158.12 120.476 165.963 121.948 165.783 120.603C165.603 119.258 156.967 113.429 155.394 113.831Z" fill="white"/>
<g style="mix-blend-mode:multiply" opacity="0.5">
<path d="M151.899 190.314C150.914 194.418 151.07 196.843 151.623 196.866C152.175 196.889 172.126 185.37 172.678 184.887C173.231 184.405 169.471 181.082 167.874 181.312C166.276 181.542 152.308 188.75 151.899 190.314Z" fill="#DE5634"/>
</g>
<g style="mix-blend-mode:multiply" opacity="0.5">
<path d="M95.9384 129.582C95.4579 128.203 93.9806 128.203 93.8364 129.755C93.6923 131.307 93.4761 159.897 94.0647 159.932C94.6532 159.966 95.8903 158.575 95.9384 157.92C95.9864 157.265 96.1666 130.238 95.9384 129.582Z" fill="#DE5634"/>
</g>
<g style="mix-blend-mode:multiply" opacity="0.5">
<path d="M165.841 129.754C165.769 130.306 165.481 157.344 165.841 157.344C166.202 157.344 167.859 156.08 167.859 155.413C167.859 154.746 167.451 129.236 167.271 129.098C167.091 128.961 165.914 129.317 165.841 129.754Z" fill="#DE5634"/>
</g>
<g style="mix-blend-mode:multiply" opacity="0.5">
<path d="M130.89 110.347C130.89 110.876 114.808 119.659 114.435 119.659C114.063 119.659 114.195 117.291 114.711 116.969C115.228 116.647 130.77 107.68 130.89 107.979C130.95 108.767 130.95 109.559 130.89 110.347Z" fill="#DE5634"/>
</g>
<path d="M164.078 181.496C163.057 181.496 159.586 183.393 159.85 184.336C160.114 185.278 162.252 186.301 162.793 185.75C163.333 185.198 164.751 181.519 164.078 181.496Z" fill="#B33114"/>
<path d="M165.397 182.164C165.049 182.475 164.28 183.578 165.013 184.119C165.746 184.659 167.896 183.233 167.583 182.82C167.271 182.406 165.854 181.762 165.397 182.164Z" fill="#B33114"/>
<g style="mix-blend-mode:multiply" opacity="0.5">
<path d="M160.305 183.418C159.452 184.567 162.959 185.257 163.416 184.326C163.872 183.395 164.617 181.429 164.028 181.521C162.676 181.929 161.414 182.572 160.305 183.418Z" fill="#DE5634"/>
</g>
<path d="M159.859 184.06C160.096 184.703 160.564 185.245 161.18 185.589C162.009 186.048 162.706 185.945 162.91 185.589C162.708 185.818 162.43 185.975 162.122 186.034C161.814 186.092 161.495 186.049 161.216 185.91C159.547 185.186 159.859 184.06 159.859 184.06Z" fill="#DAE1EF"/>
<g style="mix-blend-mode:multiply" opacity="0.5">
<path d="M165.794 182.187C165.001 183.014 165.613 184.187 166.058 184.118C166.502 184.049 167.823 183.221 167.583 182.819C167.343 182.416 165.962 182.014 165.794 182.187Z" fill="#DE5634"/>
</g>
<path d="M165.399 182.163C165.399 182.163 164.678 183.117 164.967 183.669C165.255 184.221 165.675 184.221 165.675 184.221C165.675 184.221 164.726 184.75 164.558 184.129C164.258 183.071 165.399 182.163 165.399 182.163Z" fill="#DAE1EF"/>
<path d="M126.195 110.049C123.793 109.429 121.751 110.958 120.67 112.13C119.589 113.303 120.19 113.993 121.547 113.763C122.904 113.533 127.228 110.314 126.195 110.049Z" fill="#B33114"/>
<g style="mix-blend-mode:multiply" opacity="0.5">
<path d="M126.195 110.05C125.419 109.902 124.618 109.922 123.851 110.109C123.084 110.296 122.37 110.645 121.763 111.131C121.102 111.683 122.399 113.281 123.3 112.936C124.201 112.591 126.951 110.303 126.195 110.05Z" fill="#DE5634"/>
</g>
<g style="mix-blend-mode:soft-light" opacity="0.4">
<path d="M121.296 111.521C121.296 111.521 118.509 113.291 118.821 114.119C119.134 114.946 122.425 113.417 122.425 113.417C122.425 113.417 120.707 113.946 120.311 113.222C119.914 112.498 121.296 111.521 121.296 111.521Z" fill="#FFDF66"/>
</g>
<path d="M95.0993 179.807C93.8022 180.117 97.6697 182.658 98.5945 182.796C99.5194 182.934 98.5945 180.692 98.1621 180.301C97.2042 179.882 96.1479 179.712 95.0993 179.807Z" fill="white"/>
<path d="M130.853 182.269L83.746 155.966C82.6389 158.425 81.8834 161.016 81.5 163.668L84.6349 168.634L130.913 194.362L177.119 168.634L179.906 163.668C179.821 161.026 179.252 158.419 178.224 155.966L130.853 182.269Z" fill="url(#paint43_linear_6924_92375)"/>
<path d="M84.5748 168.632L81.5 163.666L130.853 191.337L179.918 163.666L177.131 168.632L130.853 194.36L84.5748 168.632Z" fill="url(#paint44_linear_6924_92375)"/>
<g style="mix-blend-mode:multiply" opacity="0.5">
<path d="M81.5 163.666L84.6349 168.632L85.3315 169.046V170.529C85.3315 170.529 87.9739 171.817 93.1626 174.564C93.3308 174.656 96.4176 177.772 96.4176 177.772C96.4176 177.772 129.76 197.062 130.961 197.062C132.511 197.062 165.589 177.346 165.589 177.346C165.589 177.346 168.171 175.277 168.423 175.128L176.591 171.035V168.977L177.203 168.632L179.99 163.666L130.853 191.337L81.5 163.666Z" fill="#DE5634"/>
</g>
<path style="mix-blend-mode:multiply" opacity="0.69" d="M130.855 182.268V191.35L179.92 163.679C179.791 161.042 179.224 158.442 178.239 155.977L130.855 182.268Z" fill="url(#paint45_linear_6924_92375)"/>
<g style="mix-blend-mode:soft-light" opacity="0.4">
<path d="M86.1737 157.953C85.2729 157.953 86.0056 165.598 88.7441 167.345C93.044 170.139 119.312 184.923 121.03 184.946C122.231 184.946 122.159 178.474 121.798 177.968C121.126 177.014 87.5189 157.953 86.1737 157.953Z" fill="#FFDF66"/>
</g>
<g style="mix-blend-mode:soft-light" opacity="0.4">
<path d="M145.425 174.416C144.861 174.979 144.933 182.107 145.906 181.9C153.824 178.221 161.451 173.994 168.727 169.254C175.705 164.334 176.69 157.862 175.117 158.011C175.08 157.965 146.59 173.255 145.425 174.416Z" fill="#FFDF66"/>
</g>
<path d="M106.855 177.876C106.855 177.876 129.412 190.832 130.877 190.832C132.343 190.832 150.323 180.371 150.323 180.371C150.323 180.371 131.43 191.867 130.913 191.867C130.397 191.867 106.855 177.876 106.855 177.876Z" fill="white"/>
<g style="mix-blend-mode:multiply" opacity="0.5">
<path d="M113.871 108.037C113.699 108.886 113.599 109.747 113.57 110.612C113.678 111.014 116.837 115.52 116.837 115.52V118.555L131.01 131.258L145.027 119.038L145.652 116.061C145.652 116.061 148.786 111.313 148.786 110.669C148.786 110.025 145.892 106.898 145.892 106.898L130.89 98.6328L113.871 108.037Z" fill="#DE5634"/>
</g>
<path d="M147.526 109.555L147.454 109.452L131.179 88.069L131.095 88L131.011 88.115L114.748 109.452L114.676 109.555L114.748 109.647L131.011 131.03V131.259L131.095 131.145L131.191 131.259V131.03L147.454 109.647L147.526 109.555Z" fill="url(#paint46_linear_6924_92375)"/>
<g style="mix-blend-mode:multiply" opacity="0.5">
<path d="M118.074 109.556L131.094 92.4268L144.126 109.556L131.094 126.673L118.074 109.556Z" fill="#DE5634"/>
</g>
<path d="M118.758 109.556L131.093 93.3232L143.44 109.556L131.093 125.776L118.758 109.556Z" fill="url(#paint47_linear_6924_92375)"/>
<g style="mix-blend-mode:soft-light" opacity="0.4">
<path d="M130.902 89.1496C129.437 90.4486 115.552 108.486 115.865 108.98C116.177 109.475 121.57 109.486 131.983 109.371C142.397 109.256 146.697 109.268 146.793 108.98C146.889 108.693 131.167 88.8622 130.902 89.1496Z" fill="#FFDF66"/>
</g>
<path style="mix-blend-mode:multiply" opacity="0.37" d="M115.385 109.613C115.192 110.383 130.374 130.191 131.335 129.881C132.296 129.57 147.274 110.073 146.265 109.556C145.256 109.038 115.565 108.889 115.385 109.613Z" fill="url(#paint48_linear_6924_92375)"/>
<g style="mix-blend-mode:multiply" opacity="0.5">
<path d="M130.988 160.575L113.632 169.3L116.947 150.803L102.906 137.709L122.316 135.008L130.988 118.178L139.672 135.008L159.069 137.709L145.029 150.803L148.344 169.3L130.988 160.575Z" fill="#DE5634"/>
</g>
<path d="M157.037 138.341L147.681 137.042L145.122 136.674L139.045 135.835L130.985 120.224L122.938 135.835L104.934 138.341L117.965 150.493L114.891 167.656L130.985 159.551L147.092 167.656L144.017 150.493L157.037 138.341Z" fill="url(#paint49_linear_6924_92375)"/>
<path style="mix-blend-mode:multiply" opacity="0.37" d="M104.852 138.341L131.372 144.974L117.871 150.492L104.852 138.341Z" fill="url(#paint50_linear_6924_92375)"/>
<path style="mix-blend-mode:multiply" opacity="0.37" d="M156.954 138.341L131.371 144.974L143.923 150.492L156.954 138.341Z" fill="url(#paint51_linear_6924_92375)"/>
<path style="mix-blend-mode:multiply" opacity="0.37" d="M130.904 159.552L131.372 144.975L114.797 167.656L130.904 159.552Z" fill="url(#paint52_linear_6924_92375)"/>
<path style="mix-blend-mode:multiply" opacity="0.37" d="M146.997 167.656L131.371 144.975L130.902 159.552L146.997 167.656Z" fill="url(#paint53_linear_6924_92375)"/>
<path style="mix-blend-mode:color-dodge" opacity="0.5" d="M130.902 120.224L131.371 144.975L138.95 135.835L130.902 120.224Z" fill="url(#paint54_linear_6924_92375)"/>
<path style="mix-blend-mode:color-dodge" opacity="0.5" d="M156.954 138.34L131.371 144.973L138.95 135.834L156.954 138.34Z" fill="url(#paint55_linear_6924_92375)"/>
<path style="mix-blend-mode:color-dodge" opacity="0.5" d="M156.954 138.34L131.371 144.973L138.95 135.834L156.954 138.34Z" fill="url(#paint56_linear_6924_92375)"/>
<path style="mix-blend-mode:color-dodge" opacity="0.5" d="M122.844 135.834L131.372 144.973L104.852 138.34L122.844 135.834Z" fill="url(#paint57_linear_6924_92375)"/>
<path d="M138.952 141.261C137.618 142.411 138.759 143.054 138.759 143.054L145.654 141.273C145.654 141.273 142.038 138.766 138.952 141.261Z" fill="white"/>
<g style="mix-blend-mode:multiply" opacity="0.5">
<path d="M114.891 167.656C114.891 167.656 127.106 162.15 130.985 160.609L147.092 167.656L130.985 159.552L114.891 167.656Z" fill="#DE5634"/>
</g>
<g style="mix-blend-mode:multiply" opacity="0.5">
<path d="M104.852 138.341L131.372 144.974L116.802 156.964L104.852 138.341Z" fill="#DE5634"/>
</g>
<g style="mix-blend-mode:multiply" opacity="0.5">
<path d="M156.954 138.341L131.371 144.974L145.46 158.562L156.954 138.341Z" fill="#DE5634"/>
</g>
<g style="mix-blend-mode:multiply" opacity="0.5">
<path d="M114.891 167.656L131.37 144.975L147.092 167.656L130.985 165.219L114.891 167.656Z" fill="#DE5634"/>
</g>
<g style="mix-blend-mode:soft-light" opacity="0.4">
<path d="M124.994 133.133C123.289 137.731 129.799 140.858 130.688 139.456C131.576 138.053 131.012 130.259 129.907 129.201C128.802 128.144 125.703 131.271 124.994 133.133Z" fill="#F7FFFF"/>
</g>
<g style="mix-blend-mode:soft-light" opacity="0.4">
<path d="M119.659 156.424C123.13 156.873 125.064 153.09 125.796 150.492C126.973 146.308 113.353 155.608 119.659 156.424Z" fill="#F7FFFF"/>
</g>
<g style="mix-blend-mode:multiply" opacity="0.5">
<path d="M130.892 114.119L126.184 116.487L127.085 111.463L123.277 107.911L128.538 107.187L130.892 102.611L133.246 107.187L138.507 107.911L134.7 111.463L135.601 116.487L130.892 114.119Z" fill="#DE5634"/>
</g>
<path d="M137.916 108.094L135.394 107.749L134.697 107.645L133.064 107.416L130.89 103.208L128.716 107.416L123.863 108.094L127.37 111.37L126.542 116.003L130.89 113.819L135.238 116.003L134.397 111.37L137.916 108.094Z" fill="url(#paint58_linear_6924_92375)"/>
<path style="mix-blend-mode:multiply" opacity="0.37" d="M123.84 108.096L130.986 109.889L127.347 111.372L123.84 108.096Z" fill="url(#paint59_linear_6924_92375)"/>
<path style="mix-blend-mode:multiply" opacity="0.37" d="M137.895 108.096L130.988 109.889L134.375 111.372L137.895 108.096Z" fill="url(#paint60_linear_6924_92375)"/>
<path style="mix-blend-mode:multiply" opacity="0.37" d="M130.867 113.819L130.988 109.888L126.52 116.004L130.867 113.819Z" fill="url(#paint61_linear_6924_92375)"/>
<path style="mix-blend-mode:multiply" opacity="0.37" d="M135.203 116.004L130.987 109.888L130.867 113.819L135.203 116.004Z" fill="url(#paint62_linear_6924_92375)"/>
<path style="mix-blend-mode:color-dodge" opacity="0.5" d="M130.867 103.208L130.987 109.887L133.041 107.416L130.867 103.208Z" fill="url(#paint63_linear_6924_92375)"/>
<path style="mix-blend-mode:color-dodge" opacity="0.5" d="M137.895 108.095L130.988 109.889L133.042 107.417L137.895 108.095Z" fill="url(#paint64_linear_6924_92375)"/>
<path style="mix-blend-mode:color-dodge" opacity="0.5" d="M137.895 108.095L130.988 109.889L133.042 107.417L137.895 108.095Z" fill="url(#paint65_linear_6924_92375)"/>
<path style="mix-blend-mode:color-dodge" opacity="0.5" d="M128.692 107.417L130.986 109.889L123.84 108.095L128.692 107.417Z" fill="url(#paint66_linear_6924_92375)"/>
<path d="M133.039 108.888C132.679 109.176 133.039 109.371 133.039 109.371L134.901 108.888C134.635 108.69 134.307 108.582 133.97 108.582C133.633 108.582 133.305 108.69 133.039 108.888Z" fill="white"/>
<g style="mix-blend-mode:multiply" opacity="0.5">
<path d="M126.543 116.005C126.543 116.005 129.846 114.522 130.891 114.108L135.227 116.005L130.891 113.82L126.543 116.005Z" fill="#DE5634"/>
</g>
<g style="mix-blend-mode:multiply" opacity="0.5">
<path d="M123.84 108.096L130.986 109.889L127.071 113.119L123.84 108.096Z" fill="#DE5634"/>
</g>
<g style="mix-blend-mode:multiply" opacity="0.5">
<path d="M137.895 108.096L130.988 109.889L134.796 113.556L137.895 108.096Z" fill="#DE5634"/>
</g>
<g style="mix-blend-mode:multiply" opacity="0.5">
<path d="M126.543 116.004L130.987 109.888L135.239 116.004L130.891 115.348L126.543 116.004Z" fill="#DE5634"/>
</g>
<g style="mix-blend-mode:soft-light" opacity="0.4">
<path d="M129.271 106.694C128.814 107.924 130.568 108.774 130.808 108.395C131.007 107.475 130.937 106.52 130.604 105.636C130.28 105.349 129.463 106.199 129.271 106.694Z" fill="#F7FFFF"/>
</g>
<g style="mix-blend-mode:soft-light" opacity="0.4">
<path d="M127.877 112.969C128.802 113.095 129.33 112.072 129.522 111.371C129.811 110.244 126.135 112.75 127.877 112.969Z" fill="#F7FFFF"/>
</g>
<path d="M102 2L112.087 17.7023C113.006 19.1343 114.591 20 116.293 20H145.707C147.409 20 148.994 19.1343 149.913 17.7023L160 2H102Z" fill="url(#paint67_linear_6924_92375)"/>
<path d="M122.558 16L118.33 6.2H120.78L124.476 14.88H123.034L126.786 6.2H129.04L124.798 16H122.558ZM129.858 16V6.2H132.126V16H129.858ZM134.452 16V6.2H138.694C139.571 6.2 140.327 6.34467 140.962 6.634C141.597 6.914 142.087 7.32 142.432 7.852C142.777 8.384 142.95 9.01867 142.95 9.756C142.95 10.484 142.777 11.114 142.432 11.646C142.087 12.178 141.597 12.5887 140.962 12.878C140.327 13.158 139.571 13.298 138.694 13.298H135.712L136.72 12.276V16H134.452ZM136.72 12.528L135.712 11.45H138.568C139.268 11.45 139.791 11.3007 140.136 11.002C140.481 10.7033 140.654 10.288 140.654 9.756C140.654 9.21467 140.481 8.79467 140.136 8.496C139.791 8.19733 139.268 8.048 138.568 8.048H135.712L136.72 6.97V12.528Z" fill="white"/>
<path d="M33.7498 20.544H35.7658L38.3038 31.128L40.8058 20.544H42.8218L39.5818 33H37.0258L33.7498 20.544ZM44.2269 33V20.544H46.1709V33H44.2269ZM48.3753 33V20.544H50.3193V33H48.3753ZM52.5238 33V20.544H54.4678V33H52.5238Z" fill="white"/>
<g style="mix-blend-mode:overlay">
<g style="mix-blend-mode:color-dodge">
<path fill-rule="evenodd" clip-rule="evenodd" d="M19 12C19 6.47715 23.4771 2 29 2H231C236.523 2 241 6.47715 241 12V120.562C241 123.615 239.506 126.474 237 128.217V128.217C234.494 129.961 233 132.82 233 135.873V159V162V185.127C233 188.18 234.494 191.039 237 192.783V192.783C239.506 194.526 241 197.385 241 200.438V304C241 309.523 236.523 314 231 314H29C23.4772 314 19 309.523 19 304V202.182C19 198.908 20.6021 195.842 23.2894 193.973L24.7106 192.984C27.3979 191.115 29 188.048 29 184.775L29 162V159L29 136.225C29 132.952 27.3979 129.885 24.7107 128.016L23.2894 127.027C20.6021 125.158 19 122.092 19 118.818V12Z" fill="url(#paint68_linear_6924_92375)"/>
</g>
</g>
<defs>
<filter id="filter0_b_6924_92375" x="-6" y="-19" width="89" height="354.983" filterUnits="userSpaceOnUse" colorInterpolationFilters="sRGB">
<feFlood floodOpacity="0" result="BackgroundImageFix"/>
<feGaussianBlur in="BackgroundImageFix" stdDeviation="13"/>
<feComposite in2="SourceAlpha" operator="in" result="effect1_backgroundBlur_6924_92375"/>
<feBlend mode="normal" in="SourceGraphic" in2="effect1_backgroundBlur_6924_92375" result="shape"/>
</filter>
<filter id="filter1_b_6924_92375" x="177" y="-19" width="89" height="354.983" filterUnits="userSpaceOnUse" colorInterpolationFilters="sRGB">
<feFlood floodOpacity="0" result="BackgroundImageFix"/>
<feGaussianBlur in="BackgroundImageFix" stdDeviation="13"/>
<feComposite in2="SourceAlpha" operator="in" result="effect1_backgroundBlur_6924_92375"/>
<feBlend mode="normal" in="SourceGraphic" in2="effect1_backgroundBlur_6924_92375" result="shape"/>
</filter>
<filter id="filter2_i_6924_92375" x="17" y="0" width="226" height="320" filterUnits="userSpaceOnUse" colorInterpolationFilters="sRGB">
<feFlood floodOpacity="0" result="BackgroundImageFix"/>
<feBlend mode="normal" in="SourceGraphic" in2="BackgroundImageFix" result="shape"/>
<feColorMatrix in="SourceAlpha" type="matrix" values="0 0 0 0 0 0 0 0 0 0 0 0 0 0 0 0 0 0 127 0" result="hardAlpha"/>
<feOffset dy="5"/>
<feGaussianBlur stdDeviation="2"/>
<feComposite in2="hardAlpha" operator="arithmetic" k2="-1" k3="1"/>
<feColorMatrix type="matrix" values="0 0 0 0 0 0 0 0 0 0 0 0 0 0 0 0 0 0 0.25 0"/>
<feBlend mode="normal" in2="shape" result="effect1_innerShadow_6924_92375"/>
</filter>
<filter id="filter3_f_6924_92375" x="0" y="31" width="261" height="254" filterUnits="userSpaceOnUse" colorInterpolationFilters="sRGB">
<feFlood floodOpacity="0" result="BackgroundImageFix"/>
<feBlend mode="normal" in="SourceGraphic" in2="BackgroundImageFix" result="shape"/>
<feGaussianBlur stdDeviation="37.5" result="effect1_foregroundBlur_6924_92375"/>
</filter>
<linearGradient id="paint0_linear_6924_92375" x1="13" y1="296.56" x2="134.492" y2="0.901086" gradientUnits="userSpaceOnUse">
<stop stop-color="#060913"/>
<stop offset="0.136764" stop-color="#070A16"/>
<stop offset="0.197268" stop-color="#0D142E"/>
<stop offset="0.309253" stop-color="#070B17"/>
<stop offset="0.490764" stop-color="#080C1A"/>
<stop offset="0.661458" stop-color="#0B1125"/>
<stop offset="1" stop-color="#101010"/>
</linearGradient>
<linearGradient id="paint1_linear_6924_92375" x1="43.5" y1="323.39" x2="109.599" y2="304.922" gradientUnits="userSpaceOnUse">
<stop stop-color="#EECCA2"/>
<stop offset="0.260417" stop-color="#624A2C"/>
<stop offset="0.6875" stop-color="#FFDAAB"/>
<stop offset="1" stop-color="#C68C43"/>
</linearGradient>
<linearGradient id="paint2_linear_6924_92375" x1="247" y1="20.4233" x2="125.508" y2="316.082" gradientUnits="userSpaceOnUse">
<stop stop-color="#060913"/>
<stop offset="0.136764" stop-color="#070A16"/>
<stop offset="0.197268" stop-color="#0D142E"/>
<stop offset="0.309253" stop-color="#070B17"/>
<stop offset="0.490764" stop-color="#080C1A"/>
<stop offset="0.661458" stop-color="#0B1125"/>
<stop offset="1" stop-color="#101010"/>
</linearGradient>
<linearGradient id="paint3_linear_6924_92375" x1="216.5" y1="-6.40634" x2="150.401" y2="12.0615" gradientUnits="userSpaceOnUse">
<stop stop-color="#EECCA2"/>
<stop offset="0.260417" stop-color="#624A2C"/>
<stop offset="0.6875" stop-color="#FFDAAB"/>
<stop offset="1" stop-color="#C68C43"/>
</linearGradient>
<linearGradient id="paint4_linear_6924_92375" x1="184.5" y1="-25.5" x2="1.5" y2="349.5" gradientUnits="userSpaceOnUse">
<stop stop-color="#C68C43"/>
<stop offset="0.119792" stop-color="#F5BA6E"/>
<stop offset="0.286458" stop-color="#C68C43"/>
<stop offset="0.5625" stop-color="#C68C43"/>
<stop offset="0.770833" stop-color="#EEB873"/>
<stop offset="1" stop-color="#C68C43"/>
</linearGradient>
<linearGradient id="paint5_linear_6924_92375" x1="131.064" y1="154.818" x2="131.064" y2="-46.36" gradientUnits="userSpaceOnUse">
<stop stop-color="#CA6B34"/>
<stop offset="0.67" stop-color="#FFA933"/>
<stop offset="1" stop-color="#FFBD2B"/>
</linearGradient>
<linearGradient id="paint6_linear_6924_92375" x1="80.9314" y1="47.9531" x2="80.9314" y2="91.3368" gradientUnits="userSpaceOnUse">
<stop stop-color="#C10065"/>
<stop offset="1" stop-color="white"/>
</linearGradient>
<linearGradient id="paint7_linear_6924_92375" x1="181.924" y1="47.9531" x2="181.924" y2="91.3368" gradientUnits="userSpaceOnUse">
<stop stop-color="#C10065"/>
<stop offset="1" stop-color="white"/>
</linearGradient>
<linearGradient id="paint8_linear_6924_92375" x1="100.251" y1="71.2334" x2="100.251" y2="151.652" gradientUnits="userSpaceOnUse">
<stop stop-color="#C10065"/>
<stop offset="1" stop-color="white"/>
</linearGradient>
<linearGradient id="paint9_linear_6924_92375" x1="161.393" y1="71.2334" x2="161.393" y2="151.652" gradientUnits="userSpaceOnUse">
<stop stop-color="#C10065"/>
<stop offset="1" stop-color="white"/>
</linearGradient>
<linearGradient id="paint10_linear_6924_92375" x1="139.171" y1="-4.27537" x2="150.065" y2="109.544" gradientUnits="userSpaceOnUse">
<stop stop-color="#BFD7FF"/>
<stop offset="1"/>
</linearGradient>
<linearGradient id="paint11_linear_6924_92375" x1="132.316" y1="54.8309" x2="231.532" y2="54.8309" gradientUnits="userSpaceOnUse">
<stop stop-color="#BFD7FF"/>
<stop offset="1"/>
</linearGradient>
<linearGradient id="paint12_linear_6924_92375" x1="173.696" y1="-7.45115" x2="184.673" y2="106.233" gradientUnits="userSpaceOnUse">
<stop stop-color="#BFD7FF"/>
<stop offset="1"/>
</linearGradient>
<linearGradient id="paint13_linear_6924_92375" x1="73.8992" y1="2.16332" x2="84.872" y2="115.848" gradientUnits="userSpaceOnUse">
<stop stop-color="#BFD7FF"/>
<stop offset="1"/>
</linearGradient>
<linearGradient id="paint14_linear_6924_92375" x1="79.0859" y1="188.29" x2="98.7839" y2="188.29" gradientUnits="userSpaceOnUse">
<stop stop-color="#DE3C14"/>
<stop offset="0.07" stop-color="#C72E10"/>
<stop offset="0.19" stop-color="#AB1C0C"/>
<stop offset="0.3" stop-color="#971009"/>
<stop offset="0.41" stop-color="#8B0807"/>
<stop offset="0.52" stop-color="#870606"/>
<stop offset="0.62" stop-color="#8C0707"/>
<stop offset="0.73" stop-color="#9A0808"/>
<stop offset="0.85" stop-color="#B20B0B"/>
<stop offset="0.97" stop-color="#D30E0E"/>
<stop offset="1" stop-color="#DB0F0F"/>
</linearGradient>
<linearGradient id="paint15_linear_6924_92375" x1="79.0859" y1="187.43" x2="98.7839" y2="187.43" gradientUnits="userSpaceOnUse">
<stop stop-color="#B41E2D"/>
<stop offset="1" stop-color="#E54136"/>
</linearGradient>
<linearGradient id="paint16_linear_6924_92375" x1="162.215" y1="188.29" x2="181.913" y2="188.29" gradientUnits="userSpaceOnUse">
<stop stop-color="#DE3C14"/>
<stop offset="0.07" stop-color="#C72E10"/>
<stop offset="0.19" stop-color="#AB1C0C"/>
<stop offset="0.3" stop-color="#971009"/>
<stop offset="0.41" stop-color="#8B0807"/>
<stop offset="0.52" stop-color="#870606"/>
<stop offset="0.62" stop-color="#8C0707"/>
<stop offset="0.73" stop-color="#9A0808"/>
<stop offset="0.85" stop-color="#B20B0B"/>
<stop offset="0.97" stop-color="#D30E0E"/>
<stop offset="1" stop-color="#DB0F0F"/>
</linearGradient>
<linearGradient id="paint17_linear_6924_92375" x1="162.216" y1="187.428" x2="181.914" y2="187.428" gradientUnits="userSpaceOnUse">
<stop stop-color="#B41E2D"/>
<stop offset="1" stop-color="#E54136"/>
</linearGradient>
<linearGradient id="paint18_linear_6924_92375" x1="95.6021" y1="210.02" x2="125.606" y2="210.02" gradientUnits="userSpaceOnUse">
<stop stop-color="#DE3C14"/>
<stop offset="0.07" stop-color="#C72E10"/>
<stop offset="0.19" stop-color="#AB1C0C"/>
<stop offset="0.3" stop-color="#971009"/>
<stop offset="0.41" stop-color="#8B0807"/>
<stop offset="0.52" stop-color="#870606"/>
<stop offset="0.62" stop-color="#8C0707"/>
<stop offset="0.73" stop-color="#9A0808"/>
<stop offset="0.85" stop-color="#B20B0B"/>
<stop offset="0.97" stop-color="#D30E0E"/>
<stop offset="1" stop-color="#DB0F0F"/>
</linearGradient>
<linearGradient id="paint19_linear_6924_92375" x1="135.816" y1="210.02" x2="165.82" y2="210.02" gradientUnits="userSpaceOnUse">
<stop stop-color="#DE3C14"/>
<stop offset="0.07" stop-color="#C72E10"/>
<stop offset="0.19" stop-color="#AB1C0C"/>
<stop offset="0.3" stop-color="#971009"/>
<stop offset="0.41" stop-color="#8B0807"/>
<stop offset="0.52" stop-color="#870606"/>
<stop offset="0.62" stop-color="#8C0707"/>
<stop offset="0.73" stop-color="#9A0808"/>
<stop offset="0.85" stop-color="#B20B0B"/>
<stop offset="0.97" stop-color="#D30E0E"/>
<stop offset="1" stop-color="#DB0F0F"/>
</linearGradient>
<linearGradient id="paint20_linear_6924_92375" x1="95.6021" y1="210.018" x2="125.606" y2="210.018" gradientUnits="userSpaceOnUse">
<stop stop-color="#B41E2D"/>
<stop offset="1" stop-color="#E54136"/>
</linearGradient>
<linearGradient id="paint21_linear_6924_92375" x1="135.816" y1="210.019" x2="165.82" y2="210.019" gradientUnits="userSpaceOnUse">
<stop stop-color="#B41E2D"/>
<stop offset="1" stop-color="#E54136"/>
</linearGradient>
<linearGradient id="paint22_linear_6924_92375" x1="175.879" y1="160.575" x2="175.871" y2="138.972" gradientUnits="userSpaceOnUse">
<stop stop-color="#CA6B34"/>
<stop offset="0.67" stop-color="#FFA933"/>
<stop offset="1" stop-color="#FFBD2B"/>
</linearGradient>
<linearGradient id="paint23_linear_6924_92375" x1="188.652" y1="144.364" x2="202.813" y2="144.364" gradientUnits="userSpaceOnUse">
<stop stop-color="#DE3C14"/>
<stop offset="0.07" stop-color="#C72E10"/>
<stop offset="0.19" stop-color="#AB1C0C"/>
<stop offset="0.3" stop-color="#971009"/>
<stop offset="0.41" stop-color="#8B0807"/>
<stop offset="0.52" stop-color="#870606"/>
<stop offset="0.62" stop-color="#8C0707"/>
<stop offset="0.73" stop-color="#9A0808"/>
<stop offset="0.85" stop-color="#B20B0B"/>
<stop offset="0.97" stop-color="#D30E0E"/>
<stop offset="1" stop-color="#DB0F0F"/>
</linearGradient>
<linearGradient id="paint24_linear_6924_92375" x1="101.539" y1="185.718" x2="101.435" y2="164.147" gradientUnits="userSpaceOnUse">
<stop stop-color="#CA6B34"/>
<stop offset="0.67" stop-color="#FFA933"/>
<stop offset="1" stop-color="#FFBD2B"/>
</linearGradient>
<linearGradient id="paint25_linear_6924_92375" x1="58.4648" y1="144.41" x2="72.6258" y2="144.41" gradientUnits="userSpaceOnUse">
<stop stop-color="#DE3C14"/>
<stop offset="0.07" stop-color="#C72E10"/>
<stop offset="0.19" stop-color="#AB1C0C"/>
<stop offset="0.3" stop-color="#971009"/>
<stop offset="0.41" stop-color="#8B0807"/>
<stop offset="0.52" stop-color="#870606"/>
<stop offset="0.62" stop-color="#8C0707"/>
<stop offset="0.73" stop-color="#9A0808"/>
<stop offset="0.85" stop-color="#B20B0B"/>
<stop offset="0.97" stop-color="#D30E0E"/>
<stop offset="1" stop-color="#DB0F0F"/>
</linearGradient>
<linearGradient id="paint26_linear_6924_92375" x1="183.184" y1="146.942" x2="183.186" y2="125.344" gradientUnits="userSpaceOnUse">
<stop stop-color="#CA6B34"/>
<stop offset="0.67" stop-color="#FFA933"/>
<stop offset="1" stop-color="#FFBD2B"/>
</linearGradient>
<linearGradient id="paint27_linear_6924_92375" x1="196.352" y1="130.753" x2="210.524" y2="130.753" gradientUnits="userSpaceOnUse">
<stop stop-color="#DE3C14"/>
<stop offset="0.07" stop-color="#C72E10"/>
<stop offset="0.19" stop-color="#AB1C0C"/>
<stop offset="0.3" stop-color="#971009"/>
<stop offset="0.41" stop-color="#8B0807"/>
<stop offset="0.52" stop-color="#870606"/>
<stop offset="0.62" stop-color="#8C0707"/>
<stop offset="0.73" stop-color="#9A0808"/>
<stop offset="0.85" stop-color="#B20B0B"/>
<stop offset="0.97" stop-color="#D30E0E"/>
<stop offset="1" stop-color="#DB0F0F"/>
</linearGradient>
<linearGradient id="paint28_linear_6924_92375" x1="93.7563" y1="172.142" x2="93.6433" y2="150.577" gradientUnits="userSpaceOnUse">
<stop stop-color="#CA6B34"/>
<stop offset="0.67" stop-color="#FFA933"/>
<stop offset="1" stop-color="#FFBD2B"/>
</linearGradient>
<linearGradient id="paint29_linear_6924_92375" x1="50.668" y1="130.8" x2="64.8409" y2="130.8" gradientUnits="userSpaceOnUse">
<stop stop-color="#DE3C14"/>
<stop offset="0.07" stop-color="#C72E10"/>
<stop offset="0.19" stop-color="#AB1C0C"/>
<stop offset="0.3" stop-color="#971009"/>
<stop offset="0.41" stop-color="#8B0807"/>
<stop offset="0.52" stop-color="#870606"/>
<stop offset="0.62" stop-color="#8C0707"/>
<stop offset="0.73" stop-color="#9A0808"/>
<stop offset="0.85" stop-color="#B20B0B"/>
<stop offset="0.97" stop-color="#D30E0E"/>
<stop offset="1" stop-color="#DB0F0F"/>
</linearGradient>
<linearGradient id="paint30_linear_6924_92375" x1="104.575" y1="111.704" x2="104.575" y2="134.075" gradientUnits="userSpaceOnUse">
<stop stop-color="#C10065"/>
<stop offset="1" stop-color="white"/>
</linearGradient>
<linearGradient id="paint31_linear_6924_92375" x1="156.845" y1="111.704" x2="156.845" y2="134.075" gradientUnits="userSpaceOnUse">
<stop stop-color="#C10065"/>
<stop offset="1" stop-color="white"/>
</linearGradient>
<linearGradient id="paint32_linear_6924_92375" x1="74.7143" y1="178.369" x2="74.7143" y2="154.515" gradientUnits="userSpaceOnUse">
<stop stop-color="#CA6B34"/>
<stop offset="0.67" stop-color="#FFA933"/>
<stop offset="1" stop-color="#FFBD2B"/>
</linearGradient>
<linearGradient id="paint33_linear_6924_92375" x1="77.6099" y1="165.529" x2="77.6099" y2="176.669" gradientUnits="userSpaceOnUse">
<stop stop-color="#C10065"/>
<stop offset="1" stop-color="white"/>
</linearGradient>
<linearGradient id="paint34_linear_6924_92375" x1="186.718" y1="178.369" x2="186.718" y2="154.515" gradientUnits="userSpaceOnUse">
<stop stop-color="#CA6B34"/>
<stop offset="0.67" stop-color="#FFA933"/>
<stop offset="1" stop-color="#FFBD2B"/>
</linearGradient>
<linearGradient id="paint35_linear_6924_92375" x1="183.811" y1="165.529" x2="183.811" y2="176.669" gradientUnits="userSpaceOnUse">
<stop stop-color="#C10065"/>
<stop offset="1" stop-color="white"/>
</linearGradient>
<linearGradient id="paint36_linear_6924_92375" x1="130.891" y1="211.121" x2="130.891" y2="116.291" gradientUnits="userSpaceOnUse">
<stop stop-color="#CA6B34"/>
<stop offset="0.67" stop-color="#FFA933"/>
<stop offset="1" stop-color="#FFBD2B"/>
</linearGradient>
<linearGradient id="paint37_linear_6924_92375" x1="130.89" y1="99.6108" x2="130.89" y2="194.936" gradientUnits="userSpaceOnUse">
<stop stop-color="#CA6B34"/>
<stop offset="0.17" stop-color="#CC6E34"/>
<stop offset="0.29" stop-color="#D27733"/>
<stop offset="0.39" stop-color="#DB8631"/>
<stop offset="0.48" stop-color="#E99B2F"/>
<stop offset="0.57" stop-color="#FBB72C"/>
<stop offset="0.59" stop-color="#FFBD2B"/>
<stop offset="1" stop-color="#FFA933"/>
</linearGradient>
<linearGradient id="paint38_linear_6924_92375" x1="130.889" y1="197.063" x2="130.889" y2="110.797" gradientUnits="userSpaceOnUse">
<stop stop-color="#B75014"/>
<stop offset="0.38" stop-color="#E8692A"/>
<stop offset="1" stop-color="#F58E2F"/>
</linearGradient>
<linearGradient id="paint39_linear_6924_92375" x1="89.3426" y1="156.966" x2="89.3426" y2="182.981" gradientUnits="userSpaceOnUse">
<stop stop-color="#C10065"/>
<stop offset="1" stop-color="white"/>
</linearGradient>
<linearGradient id="paint40_linear_6924_92375" x1="172.257" y1="156.966" x2="172.257" y2="182.981" gradientUnits="userSpaceOnUse">
<stop stop-color="#C10065"/>
<stop offset="1" stop-color="white"/>
</linearGradient>
<linearGradient id="paint41_linear_6924_92375" x1="108.971" y1="180.739" x2="108.971" y2="207.629" gradientUnits="userSpaceOnUse">
<stop stop-color="#C10065"/>
<stop offset="1" stop-color="white"/>
</linearGradient>
<linearGradient id="paint42_linear_6924_92375" x1="152.811" y1="180.75" x2="152.811" y2="208.156" gradientUnits="userSpaceOnUse">
<stop stop-color="#C10065"/>
<stop offset="1" stop-color="white"/>
</linearGradient>
<linearGradient id="paint43_linear_6924_92375" x1="130.709" y1="117.201" x2="130.709" y2="185.936" gradientUnits="userSpaceOnUse">
<stop stop-color="#CA6B34"/>
<stop offset="0.67" stop-color="#FFA933"/>
<stop offset="1" stop-color="#FFBD2B"/>
</linearGradient>
<linearGradient id="paint44_linear_6924_92375" x1="130.709" y1="194.36" x2="130.709" y2="163.666" gradientUnits="userSpaceOnUse">
<stop stop-color="#F1CB3C"/>
<stop offset="1" stop-color="#FFC14F"/>
</linearGradient>
<linearGradient id="paint45_linear_6924_92375" x1="155.394" y1="155.965" x2="155.394" y2="191.338" gradientUnits="userSpaceOnUse">
<stop stop-color="#C10065"/>
<stop offset="1" stop-color="white"/>
</linearGradient>
<linearGradient id="paint46_linear_6924_92375" x1="131.095" y1="130.317" x2="131.095" y2="92.334" gradientUnits="userSpaceOnUse">
<stop stop-color="#CA6B34"/>
<stop offset="0.67" stop-color="#FFA933"/>
<stop offset="1" stop-color="#FFBD2B"/>
</linearGradient>
<linearGradient id="paint47_linear_6924_92375" x1="118.758" y1="109.556" x2="143.44" y2="109.556" gradientUnits="userSpaceOnUse">
<stop stop-color="#DE3C14"/>
<stop offset="0.07" stop-color="#C72E10"/>
<stop offset="0.19" stop-color="#AB1C0C"/>
<stop offset="0.3" stop-color="#971009"/>
<stop offset="0.41" stop-color="#8B0807"/>
<stop offset="0.52" stop-color="#870606"/>
<stop offset="0.62" stop-color="#8C0707"/>
<stop offset="0.73" stop-color="#9A0808"/>
<stop offset="0.85" stop-color="#B20B0B"/>
<stop offset="0.97" stop-color="#D30E0E"/>
<stop offset="1" stop-color="#DB0F0F"/>
</linearGradient>
<linearGradient id="paint48_linear_6924_92375" x1="130.855" y1="109.119" x2="130.855" y2="129.881" gradientUnits="userSpaceOnUse">
<stop stop-color="#C10065"/>
<stop offset="1" stop-color="white"/>
</linearGradient>
<linearGradient id="paint49_linear_6924_92375" x1="130.985" y1="168.541" x2="130.985" y2="112.176" gradientUnits="userSpaceOnUse">
<stop stop-color="#CA6B34"/>
<stop offset="0.67" stop-color="#FFA933"/>
<stop offset="1" stop-color="#FFBD2B"/>
</linearGradient>
<linearGradient id="paint50_linear_6924_92375" x1="118.112" y1="138.341" x2="118.112" y2="150.492" gradientUnits="userSpaceOnUse">
<stop stop-color="#C10065"/>
<stop offset="1" stop-color="white"/>
</linearGradient>
<linearGradient id="paint51_linear_6924_92375" x1="144.163" y1="138.341" x2="144.163" y2="150.492" gradientUnits="userSpaceOnUse">
<stop stop-color="#C10065"/>
<stop offset="1" stop-color="white"/>
</linearGradient>
<linearGradient id="paint52_linear_6924_92375" x1="123.084" y1="144.975" x2="123.084" y2="167.656" gradientUnits="userSpaceOnUse">
<stop stop-color="#C10065"/>
<stop offset="1" stop-color="white"/>
</linearGradient>
<linearGradient id="paint53_linear_6924_92375" x1="138.95" y1="144.975" x2="138.95" y2="167.656" gradientUnits="userSpaceOnUse">
<stop stop-color="#C10065"/>
<stop offset="1" stop-color="white"/>
</linearGradient>
<linearGradient id="paint54_linear_6924_92375" x1="133.281" y1="123.948" x2="136.585" y2="155.605" gradientUnits="userSpaceOnUse">
<stop stop-color="#BFD7FF"/>
<stop offset="1"/>
</linearGradient>
<linearGradient id="paint55_linear_6924_92375" x1="131.371" y1="140.409" x2="156.954" y2="140.409" gradientUnits="userSpaceOnUse">
<stop stop-color="#BFD7FF"/>
<stop offset="1"/>
</linearGradient>
<linearGradient id="paint56_linear_6924_92375" x1="142.037" y1="123.027" x2="145.341" y2="154.684" gradientUnits="userSpaceOnUse">
<stop stop-color="#BFD7FF"/>
<stop offset="1"/>
</linearGradient>
<linearGradient id="paint57_linear_6924_92375" x1="116.286" y1="125.717" x2="119.59" y2="157.374" gradientUnits="userSpaceOnUse">
<stop stop-color="#BFD7FF"/>
<stop offset="1"/>
</linearGradient>
<linearGradient id="paint58_linear_6924_92375" x1="130.89" y1="116.244" x2="130.89" y2="101.047" gradientUnits="userSpaceOnUse">
<stop stop-color="#CA6B34"/>
<stop offset="0.67" stop-color="#FFA933"/>
<stop offset="1" stop-color="#FFBD2B"/>
</linearGradient>
<linearGradient id="paint59_linear_6924_92375" x1="127.419" y1="108.096" x2="127.419" y2="111.372" gradientUnits="userSpaceOnUse">
<stop stop-color="#C10065"/>
<stop offset="1" stop-color="white"/>
</linearGradient>
<linearGradient id="paint60_linear_6924_92375" x1="134.447" y1="108.096" x2="134.447" y2="111.372" gradientUnits="userSpaceOnUse">
<stop stop-color="#C10065"/>
<stop offset="1" stop-color="white"/>
</linearGradient>
<linearGradient id="paint61_linear_6924_92375" x1="128.754" y1="109.888" x2="128.754" y2="116.004" gradientUnits="userSpaceOnUse">
<stop stop-color="#C10065"/>
<stop offset="1" stop-color="white"/>
</linearGradient>
<linearGradient id="paint62_linear_6924_92375" x1="133.041" y1="109.888" x2="133.041" y2="116.004" gradientUnits="userSpaceOnUse">
<stop stop-color="#C10065"/>
<stop offset="1" stop-color="white"/>
</linearGradient>
<linearGradient id="paint63_linear_6924_92375" x1="131.504" y1="104.22" x2="132.396" y2="112.758" gradientUnits="userSpaceOnUse">
<stop stop-color="#BFD7FF"/>
<stop offset="1"/>
</linearGradient>
<linearGradient id="paint64_linear_6924_92375" x1="130.988" y1="108.659" x2="137.895" y2="108.659" gradientUnits="userSpaceOnUse">
<stop stop-color="#BFD7FF"/>
<stop offset="1"/>
</linearGradient>
<linearGradient id="paint65_linear_6924_92375" x1="133.871" y1="103.968" x2="134.763" y2="112.507" gradientUnits="userSpaceOnUse">
<stop stop-color="#BFD7FF"/>
<stop offset="1"/>
</linearGradient>
<linearGradient id="paint66_linear_6924_92375" x1="126.927" y1="104.692" x2="127.819" y2="113.231" gradientUnits="userSpaceOnUse">
<stop stop-color="#BFD7FF"/>
<stop offset="1"/>
</linearGradient>
<linearGradient id="paint67_linear_6924_92375" x1="148.5" y1="-0.5" x2="104" y2="22.5" gradientUnits="userSpaceOnUse">
<stop stop-color="#C68C43"/>
<stop offset="0.119792" stop-color="#F5BA6E"/>
<stop offset="0.286458" stop-color="#C68C43"/>
<stop offset="0.5625" stop-color="#C68C43"/>
<stop offset="0.770833" stop-color="#EEB873"/>
<stop offset="1" stop-color="#C68C43"/>
</linearGradient>
<linearGradient id="paint68_linear_6924_92375" x1="84.5" y1="60.5" x2="32.0032" y2="111.503" gradientUnits="userSpaceOnUse">
<stop stop-color="white" stop-opacity="0"/>
<stop offset="0.440223" stop-color="white"/>
<stop offset="1" stop-color="white" stop-opacity="0"/>
</linearGradient>
</defs>
</svg>
