<svg width="82" height="97" viewBox="0 0 82 97" fill="none" xmlns="http://www.w3.org/2000/svg">
<path d="M41.1089 0L3.12891 21.93V74.24L41.1089 96.17L79.0789 74.24V21.93L41.1089 0Z" fill="url(#paint0_linear_6456_58627)"/>
<path d="M10 70.2797V25.8897L41.11 7.92969L72.22 25.8897V70.2797L41.11 88.2397L10 70.2797Z" fill="url(#paint1_linear_6456_58627)"/>
<path d="M12.2891 68.9503V27.2103L41.1091 10.5703L69.9291 27.2103V68.9503L41.1091 85.5903L12.2891 68.9503Z" fill="#736FA8"/>
<g style="mix-blend-mode:soft-light" opacity="0.5">
<path d="M4.08064 22.07C3.61064 23.47 7.64064 25.2 10.4906 24.58C13.3406 23.96 40.0606 8.28 40.7106 6.88C40.9061 4.92487 40.9061 2.95513 40.7106 1C39.7706 1 4.31064 21.38 4.08064 22.07Z" fill="white"/>
</g>
<g style="mix-blend-mode:soft-light" opacity="0.5">
<path d="M78.0012 22.07C78.4712 23.47 74.4412 25.2 71.5912 24.58C68.7412 23.96 42.2212 8.14 41.3212 6.88C40.8612 6.23 40.7112 1 41.3212 1C42.2612 1 77.7212 21.38 78.0012 22.07Z" fill="white"/>
</g>
<path style="mix-blend-mode:multiply" opacity="0.5" d="M3.9985 51.8202C3.7385 53.3802 3.1185 73.1902 3.9985 73.3402C4.8785 73.4902 8.9985 70.6702 9.2285 69.3402C9.4585 68.0102 9.5285 54.4602 9.2285 53.1602C8.9285 51.8602 4.4585 49.2102 3.9985 51.8202Z" fill="url(#paint2_linear_6456_58627)"/>
<path style="mix-blend-mode:multiply" opacity="0.5" d="M78 51.8202C78.25 53.3802 78.87 73.1902 78 73.3402C77.13 73.4902 73 70.6702 72.77 69.3402C72.54 68.0102 72.46 54.4602 72.77 53.1602C73.08 51.8602 77.6 49.2102 78 51.8202Z" fill="url(#paint3_linear_6456_58627)"/>
<path style="mix-blend-mode:multiply" opacity="0.5" d="M5.00183 73.8802C5.46183 74.5602 39.6718 94.7802 40.1818 94.7802C40.4418 94.7802 40.7818 89.7802 40.7818 89.1902C40.7818 87.6302 10.5418 71.5702 10.0118 71.4202C9.21183 71.2002 4.53183 73.1902 5.00183 73.8802Z" fill="url(#paint4_linear_6456_58627)"/>
<path style="mix-blend-mode:multiply" opacity="0.5" d="M77.2794 74.4098C76.8194 75.0798 41.9794 95.2398 41.4594 95.2398C41.3265 93.0767 41.3666 90.9065 41.5794 88.7498C42.6794 87.6498 71.5794 71.5698 72.0594 71.4198C72.8394 71.1998 77.7494 73.7198 77.2794 74.4098Z" fill="url(#paint5_linear_6456_58627)"/>
<path style="mix-blend-mode:multiply" opacity="0.5" d="M13.6099 67.8398C11.6099 56.2798 12.6999 55.5498 27.0499 50.6598C41.3999 45.7698 65.6699 33.1798 67.7999 38.6598C69.9299 44.1398 69.1999 67.3998 68.7099 68.6598C68.2199 69.9198 43.1799 84.3298 41.1099 84.3698C39.0399 84.4098 13.8299 69.1398 13.6099 67.8398Z" fill="url(#paint6_linear_6456_58627)"/>
<g style="mix-blend-mode:soft-light" opacity="0.3">
<path d="M69.3095 27.5001C68.7995 27.3801 42.7595 12.3301 41.3095 12.4401C39.8595 12.5501 21.7595 21.0301 14.3095 27.4401C12.3095 29.1501 13.0495 54.6801 14.8795 54.2101C16.7095 53.7401 18.0795 43.4201 38.2395 37.6201C58.0795 31.9101 66.7195 36.8501 68.8695 37.7401C69.4695 38.0001 70.4595 27.7801 69.3095 27.5001Z" fill="white"/>
</g>
<path style="mix-blend-mode:multiply" opacity="0.5" d="M10 70.2796V25.8896L41.11 7.88965L72.22 25.8896V70.2796L69.93 68.9996C69.93 68.9996 70.07 30.4096 69.24 29.1996C66.24 24.8897 43.24 14.3896 39.49 15.5596C35.74 16.7296 15.16 25.4596 12.87 29.1296C12.1 30.3196 12.29 68.9996 12.29 68.9996L10 70.2796Z" fill="url(#paint7_linear_6456_58627)"/>
<g style="mix-blend-mode:soft-light" opacity="0.2">
<path d="M46.9202 32C54.6702 35.53 66.3502 35.6 67.4202 34.92C68.4902 34.24 69.1902 29.28 67.5202 28.44C65.8502 27.6 52.5202 20.51 49.0202 21.28C45.5202 22.05 45.5502 31.33 46.9202 32Z" fill="white"/>
</g>
<path d="M3.12938 37.86C3.12938 37.75 3.45938 23.11 4.12938 22.07C4.79938 21.03 40.2894 1.28 41.3194 1C42.3494 0.72 55.6894 8.42 55.6894 8.42L41.1094 0L3.10938 21.93L3.12938 37.86Z" fill="url(#paint8_linear_6456_58627)"/>
<path d="M54.6992 15.7803C54.6992 15.7803 71.3792 25.2703 71.6092 26.3403C71.8392 27.4103 72.2192 56.0903 72.2192 56.0903C72.2192 56.0903 72.3692 27.0903 72.2192 25.8903C72.0692 24.6903 54.6992 15.7803 54.6992 15.7803Z" fill="white"/>
<path d="M9.99902 50.2197C9.99902 50.2197 9.43903 26.2197 9.71903 25.4397C9.99903 24.6597 41.109 7.92969 41.109 7.92969C41.109 7.92969 11.109 25.0997 10.459 26.1897C9.80902 27.2797 9.99902 50.2197 9.99902 50.2197Z" fill="white"/>
<path style="mix-blend-mode:multiply" d="M3.13194 74.2401L41.1319 96.1701L79.1319 74.2401V62.3301C79.1319 62.3301 78.7719 72.7301 78.0019 74.0001C77.2319 75.2701 43.2019 95.1101 41.4619 95.2401C39.7219 95.3701 5.00194 74.7101 4.00194 73.3401C3.00194 71.9701 3.09194 47.5801 3.09194 47.5801L3.13194 74.2401Z" fill="url(#paint9_linear_6456_58627)"/>
<path d="M10.0019 58.9199C10.0019 58.9199 9.89192 69.1499 10.4619 69.9999C11.0319 70.8499 25.7819 79.3799 25.7819 79.3799C25.7819 79.3799 9.78192 71.1199 9.64192 70.5799C9.50192 70.0399 10.0019 58.9199 10.0019 58.9199Z" fill="white"/>
<g style="mix-blend-mode:soft-light" opacity="0.5">
<path d="M22.8494 79.6001C21.7194 79.6001 18.5794 80.8601 19.2594 81.6001C19.9394 82.3401 38.6394 93.6001 40.7694 94.4001C41.4694 94.6601 41.3994 90.2101 40.4694 88.7701C40.0694 88.1501 26.3194 79.5901 22.8494 79.6001Z" fill="white"/>
</g>
<path d="M54.479 8.62996C53.569 8.87996 56.619 12.72 58.069 13.06C59.519 13.4 61.499 12.37 60.809 11.67C60.119 10.97 55.889 8.24996 54.479 8.62996Z" fill="white"/>
<path d="M61.2406 12.4399C59.8506 12.8099 62.4006 18.8699 63.4906 19.9499C64.5806 21.0299 74.2806 22.9499 74.0506 21.1699C73.8206 19.3899 63.1806 11.9199 61.2406 12.4399Z" fill="white"/>
<path style="mix-blend-mode:multiply" opacity="0.5" d="M58.6192 79.7C57.7992 83.27 57.9292 85.38 58.3892 85.4C58.8492 85.42 75.4592 75.43 75.9092 75C76.3592 74.57 73.2492 71.68 71.9992 71.88C70.7492 72.08 58.9292 78.36 58.6192 79.7Z" fill="url(#paint10_linear_6456_58627)"/>
<path style="mix-blend-mode:multiply" opacity="0.5" d="M11.9989 26.9097C11.5989 25.7097 10.3689 25.7197 10.2589 27.0597C10.1489 28.3997 9.95891 53.2697 10.4489 53.3097C10.9389 53.3497 11.9989 52.1197 11.9989 51.5497C11.9989 50.9797 12.1989 27.4797 11.9989 26.9097Z" fill="url(#paint11_linear_6456_58627)"/>
<path style="mix-blend-mode:multiply" opacity="0.5" d="M70.1985 27.0601C70.1385 27.5401 69.8985 51.0601 70.1985 51.0601C70.4985 51.0601 71.8785 49.9501 71.8785 49.3801C71.8785 48.8101 71.5385 26.6101 71.3785 26.4901C71.2185 26.3701 70.2485 26.6801 70.1985 27.0601Z" fill="url(#paint12_linear_6456_58627)"/>
<path style="mix-blend-mode:multiply" opacity="0.5" d="M41.1114 10.1904C41.1114 10.6504 27.7214 18.2904 27.4114 18.2904C27.1014 18.2904 27.2114 16.2304 27.6414 15.9404C28.0714 15.6504 41.0014 7.8704 41.1114 8.1304C41.1565 8.81632 41.1565 9.50447 41.1114 10.1904Z" fill="url(#paint13_linear_6456_58627)"/>
<path d="M68.7311 72.0601C67.8811 72.0601 64.9911 73.7001 65.2111 74.5301C65.4311 75.3601 67.2111 76.2301 67.6611 75.7601C68.1111 75.2901 69.2911 72.0801 68.7311 72.0601Z" fill="#394773"/>
<path d="M69.8286 72.64C69.5386 72.91 68.8986 73.87 69.5086 74.34C70.1186 74.81 71.9086 73.57 71.6386 73.2C71.3686 72.83 70.2086 72.29 69.8286 72.64Z" fill="#394773"/>
<path style="mix-blend-mode:multiply" opacity="0.5" d="M65.6303 73.7001C64.9203 74.7001 67.8403 75.3101 68.2203 74.4901C68.6003 73.6701 69.2203 71.9701 68.7303 72.0601C67.605 72.4115 66.5541 72.9675 65.6303 73.7001Z" fill="url(#paint14_linear_6456_58627)"/>
<path d="M65.2203 74.29C65.4205 74.8482 65.8097 75.3187 66.3203 75.62C67.0003 76.02 67.5903 75.93 67.7603 75.62C67.5921 75.82 67.3608 75.9566 67.1045 76.0075C66.8482 76.0584 66.5822 76.0205 66.3503 75.9C65.0003 75.26 65.2203 74.29 65.2203 74.29Z" fill="#DAE1EF"/>
<path style="mix-blend-mode:multiply" opacity="0.5" d="M70.1484 72.6599C69.4884 73.3699 70.0084 74.3999 70.3784 74.3399C70.7484 74.2799 71.8484 73.5499 71.6384 73.1999C71.4284 72.8499 70.2984 72.5099 70.1484 72.6599Z" fill="url(#paint15_linear_6456_58627)"/>
<path d="M69.8313 72.6401C69.8313 72.6401 69.2213 73.4701 69.4713 73.9501C69.7213 74.4301 70.0513 74.4301 70.0513 74.4301C70.0513 74.4301 69.2713 74.8801 69.1313 74.3501C69.0918 74.029 69.1355 73.7032 69.2581 73.4038C69.3806 73.1044 69.578 72.8414 69.8313 72.6401Z" fill="#DAE1EF"/>
<path d="M37.2004 9.92989C35.1504 9.38989 33.5004 10.7099 32.6004 11.7299C31.7004 12.7499 32.2004 13.3599 33.3304 13.1599C34.4604 12.9599 38.0604 10.1599 37.2004 9.92989Z" fill="#394773"/>
<path style="mix-blend-mode:multiply" opacity="0.5" d="M37.1998 9.92999C36.5543 9.79968 35.8879 9.81557 35.2493 9.9765C34.6108 10.1374 34.0164 10.4393 33.5098 10.86C32.9598 11.35 34.0398 12.73 34.7898 12.44C35.5398 12.15 37.8298 10.15 37.1998 9.92999Z" fill="url(#paint16_linear_6456_58627)"/>
<path d="M33.1095 11.21C33.1095 11.21 30.7995 12.72 31.0595 13.47C31.3195 14.22 34.0595 12.85 34.0595 12.85C34.0595 12.85 32.6295 13.32 32.2995 12.68C31.9695 12.04 33.1095 11.21 33.1095 11.21Z" fill="white"/>
<path d="M11.3201 70.5802C10.2301 70.8502 13.4601 73.0702 14.2201 73.1802C14.9801 73.2902 14.2201 71.3602 13.8601 71.0202C13.0656 70.6567 12.1906 70.5052 11.3201 70.5802Z" fill="white"/>
<path d="M41.08 72.7201L1.87 49.8501C0.94823 51.9892 0.319225 54.2428 0 56.5501L2.56 60.8701L41.08 83.2501L79.6 60.8701L81.91 56.5501C81.8393 54.252 81.3654 51.9842 80.51 49.8501L41.08 72.7201Z" fill="url(#paint17_linear_6456_58627)"/>
<path d="M2.56 60.8698L0 56.5498L41.08 80.6098L81.92 56.5498L79.59 60.8698L41.08 83.2498L2.56 60.8698Z" fill="url(#paint18_linear_6456_58627)"/>
<path style="mix-blend-mode:multiply" opacity="0.5" d="M0 56.5498L2.56 60.8698L3.14 61.2298V62.5198C3.14 62.5198 5.33 63.6398 9.64 65.9998C9.79 66.0798 12.36 68.7898 12.36 68.7898C12.36 68.7898 40.1 85.5898 41.11 85.5898C42.4 85.5898 69.93 68.4498 69.93 68.4498C69.93 68.4498 72.07 66.6498 72.29 66.5198L79.08 62.9998V61.1698L79.6 60.8698L81.91 56.5498L41.08 80.6098L0 56.5498Z" fill="url(#paint19_linear_6456_58627)"/>
<path style="mix-blend-mode:multiply" opacity="0.5" d="M41.0781 72.7201V80.6101L81.9081 56.5501C81.8009 54.2565 81.3283 51.9947 80.5081 49.8501L41.0781 72.7201Z" fill="url(#paint20_linear_6456_58627)"/>
<g style="mix-blend-mode:soft-light" opacity="0.5">
<path d="M3.88993 51.5898C3.13993 51.5898 3.74993 58.2298 6.02993 59.7498C9.64993 62.1798 31.4699 74.9998 32.8999 75.0498C33.8999 75.0498 33.8399 69.4198 33.5399 68.9898C32.9999 68.1598 4.99993 51.5898 3.88993 51.5898Z" fill="white"/>
</g>
<g style="mix-blend-mode:soft-light" opacity="0.5">
<path d="M53.2019 65.8998C52.7319 66.3898 52.7919 72.5898 53.6019 72.4098C60.1929 69.2073 66.5428 65.531 72.6019 61.4098C78.4219 57.1398 79.2419 51.5098 77.9319 51.6298C77.8919 51.5898 54.1819 64.8898 53.2019 65.8998Z" fill="white"/>
</g>
<path d="M21.1016 68.9102C21.1016 68.9102 39.8716 80.1702 41.1016 80.1702C42.3316 80.1702 57.2916 71.0702 57.2916 71.0702C57.2916 71.0702 41.5516 81.0702 41.1316 81.0702C40.7116 81.0702 21.1016 68.9102 21.1016 68.9102Z" fill="white"/>
<path style="mix-blend-mode:multiply" opacity="0.5" d="M41.1708 50.1502L32.7508 54.5802L34.3608 45.2002L27.5508 38.5602L36.9608 37.1902L41.1708 28.6602L45.3808 37.1902L54.8008 38.5602L47.9808 45.2002L49.5908 54.5802L41.1708 50.1502Z" fill="url(#paint21_linear_6456_58627)"/>
<path d="M53.8113 38.8804L49.2712 38.2204L48.0312 38.0404L45.0813 37.6104L41.1712 29.6904L37.2712 37.6104L28.5312 38.8804L34.8512 45.0404L33.3612 53.7404L41.1712 49.6304L48.9812 53.7404L47.4913 45.0404L53.8113 38.8804Z" fill="url(#paint22_linear_6456_58627)"/>
<path style="mix-blend-mode:multiply" opacity="0.5" d="M28.4883 38.8799L41.3483 42.2399L34.8083 45.0399L28.4883 38.8799Z" fill="url(#paint23_linear_6456_58627)"/>
<path style="mix-blend-mode:multiply" opacity="0.5" d="M53.7716 38.8799L41.3516 42.2399L47.4516 45.0399L53.7716 38.8799Z" fill="url(#paint24_linear_6456_58627)"/>
<path style="mix-blend-mode:multiply" opacity="0.5" d="M41.1286 49.6302L41.3486 42.2402L33.3086 53.7402L41.1286 49.6302Z" fill="url(#paint25_linear_6456_58627)"/>
<path style="mix-blend-mode:multiply" opacity="0.5" d="M48.9389 53.7402L41.3489 42.2402L41.1289 49.6302L48.9389 53.7402Z" fill="url(#paint26_linear_6456_58627)"/>
<path style="mix-blend-mode:color-dodge" opacity="0.5" d="M41.1289 29.6904L41.3489 42.2404L45.0289 37.6104L41.1289 29.6904Z" fill="url(#paint27_linear_6456_58627)"/>
<path style="mix-blend-mode:color-dodge" opacity="0.5" d="M53.7716 38.8799L41.3516 42.2399L45.0316 37.6099L53.7716 38.8799Z" fill="url(#paint28_linear_6456_58627)"/>
<path style="mix-blend-mode:color-dodge" opacity="0.5" d="M53.7716 38.8799L41.3516 42.2399L45.0316 37.6099L53.7716 38.8799Z" fill="url(#paint29_linear_6456_58627)"/>
<path style="mix-blend-mode:color-dodge" opacity="0.5" d="M37.2183 37.6099L41.3483 42.2399L28.4883 38.8799L37.2183 37.6099Z" fill="url(#paint30_linear_6456_58627)"/>
<g style="mix-blend-mode:color-dodge" opacity="0.8">
<path d="M45.0017 40.3601C44.3517 40.9101 44.9117 41.2701 44.9117 41.2701L48.2517 40.3601C47.7809 40.0133 47.2115 39.8262 46.6267 39.8262C46.042 39.8262 45.4725 40.0133 45.0017 40.3601Z" fill="white"/>
</g>
<path style="mix-blend-mode:multiply" opacity="0.5" d="M33.3594 53.7399C33.3594 53.7399 39.2794 50.9499 41.1694 50.1699L48.9994 53.7399L41.1894 49.6299L33.3594 53.7399Z" fill="url(#paint31_linear_6456_58627)"/>
<path style="mix-blend-mode:multiply" opacity="0.5" d="M28.4883 38.8799L41.3483 42.2399L34.2883 48.3199L28.4883 38.8799Z" fill="url(#paint32_linear_6456_58627)"/>
<path style="mix-blend-mode:multiply" opacity="0.5" d="M53.7716 38.8799L41.3516 42.2399L48.1916 49.1299L53.7716 38.8799Z" fill="url(#paint33_linear_6456_58627)"/>
<path style="mix-blend-mode:multiply" opacity="0.5" d="M33.3594 53.7402L41.3494 42.2402L48.9794 53.7402L41.1694 52.5102L33.3594 53.7402Z" fill="url(#paint34_linear_6456_58627)"/>
<g style="mix-blend-mode:soft-light" opacity="0.4">
<path d="M38.259 36.2395C37.429 38.5395 40.599 40.1495 41.019 39.4395C41.439 38.7295 41.179 34.7795 40.639 34.2395C40.099 33.6995 38.599 35.2995 38.259 36.2395Z" fill="#F7FFFF"/>
</g>
<g style="mix-blend-mode:soft-light" opacity="0.4">
<path d="M35.6719 48.0499C37.3619 48.2699 38.3019 46.3599 38.6719 45.0499C39.2219 42.9199 32.6219 47.6299 35.6719 48.0499Z" fill="#F7FFFF"/>
</g>
<defs>
<linearGradient id="paint0_linear_6456_58627" x1="41.1089" y1="97.82" x2="41.1089" y2="15.36" gradientUnits="userSpaceOnUse">
<stop offset="0.21" stop-color="#98ABD2"/>
<stop offset="0.49" stop-color="#72719D"/>
<stop offset="1" stop-color="#DAE1EF"/>
</linearGradient>
<linearGradient id="paint1_linear_6456_58627" x1="41.11" y1="12.8997" x2="41.11" y2="88.0197" gradientUnits="userSpaceOnUse">
<stop offset="0.21" stop-color="#98ABD2"/>
<stop offset="0.49" stop-color="#72719D"/>
<stop offset="1" stop-color="#DAE1EF"/>
</linearGradient>
<linearGradient id="paint2_linear_6456_58627" x1="6.5285" y1="83.1802" x2="6.5285" y2="37.7202" gradientUnits="userSpaceOnUse">
<stop stop-color="#705AB8"/>
<stop offset="1" stop-color="white"/>
</linearGradient>
<linearGradient id="paint3_linear_6456_58627" x1="75.54" y1="83.1802" x2="75.54" y2="37.7202" gradientUnits="userSpaceOnUse">
<stop stop-color="#705AB8"/>
<stop offset="1" stop-color="white"/>
</linearGradient>
<linearGradient id="paint4_linear_6456_58627" x1="13.4518" y1="66.2202" x2="31.8318" y2="96.0302" gradientUnits="userSpaceOnUse">
<stop stop-color="#705AB8"/>
<stop offset="1" stop-color="white"/>
</linearGradient>
<linearGradient id="paint5_linear_6456_58627" x1="54.3994" y1="69.9698" x2="67.5694" y2="109.01" gradientUnits="userSpaceOnUse">
<stop stop-color="#705AB8"/>
<stop offset="1" stop-color="white"/>
</linearGradient>
<linearGradient id="paint6_linear_6456_58627" x1="41.0299" y1="90.7598" x2="41.0299" y2="27.9098" gradientUnits="userSpaceOnUse">
<stop stop-color="#705AB8"/>
<stop offset="1" stop-color="white"/>
</linearGradient>
<linearGradient id="paint7_linear_6456_58627" x1="10" y1="39.0996" x2="72.22" y2="39.0996" gradientUnits="userSpaceOnUse">
<stop stop-color="#8980EB"/>
<stop offset="1" stop-color="#705AB8"/>
</linearGradient>
<linearGradient id="paint8_linear_6456_58627" x1="3.12937" y1="18.93" x2="55.6894" y2="18.93" gradientUnits="userSpaceOnUse">
<stop stop-color="#728EE3"/>
<stop offset="1" stop-color="#836888"/>
</linearGradient>
<linearGradient id="paint9_linear_6456_58627" x1="3.13194" y1="71.8801" x2="79.0819" y2="71.8801" gradientUnits="userSpaceOnUse">
<stop stop-color="#728EE3"/>
<stop offset="1" stop-color="#836888"/>
</linearGradient>
<linearGradient id="paint10_linear_6456_58627" x1="58.0292" y1="78.63" x2="75.9492" y2="78.63" gradientUnits="userSpaceOnUse">
<stop stop-color="#8980EB"/>
<stop offset="1" stop-color="#705AB8"/>
</linearGradient>
<linearGradient id="paint11_linear_6456_58627" x1="10.1389" y1="39.6697" x2="12.1089" y2="39.6697" gradientUnits="userSpaceOnUse">
<stop stop-color="#8980EB"/>
<stop offset="1" stop-color="#705AB8"/>
</linearGradient>
<linearGradient id="paint12_linear_6456_58627" x1="70.0485" y1="38.7201" x2="71.8785" y2="38.7201" gradientUnits="userSpaceOnUse">
<stop stop-color="#8980EB"/>
<stop offset="1" stop-color="#705AB8"/>
</linearGradient>
<linearGradient id="paint13_linear_6456_58627" x1="27.2314" y1="13.2104" x2="41.1514" y2="13.2104" gradientUnits="userSpaceOnUse">
<stop stop-color="#8980EB"/>
<stop offset="1" stop-color="#705AB8"/>
</linearGradient>
<linearGradient id="paint14_linear_6456_58627" x1="52.2918" y1="54.1586" x2="53.3117" y2="56.0682" gradientUnits="userSpaceOnUse">
<stop stop-color="#8980EB"/>
<stop offset="1" stop-color="#705AB8"/>
</linearGradient>
<linearGradient id="paint15_linear_6456_58627" x1="55.5339" y1="53.9641" x2="56.3" y2="55.3985" gradientUnits="userSpaceOnUse">
<stop stop-color="#8980EB"/>
<stop offset="1" stop-color="#705AB8"/>
</linearGradient>
<linearGradient id="paint16_linear_6456_58627" x1="35.0386" y1="9.77629" x2="35.9936" y2="11.6353" gradientUnits="userSpaceOnUse">
<stop stop-color="#8980EB"/>
<stop offset="1" stop-color="#705AB8"/>
</linearGradient>
<linearGradient id="paint17_linear_6456_58627" x1="40.96" y1="22.7101" x2="40.96" y2="82.4801" gradientUnits="userSpaceOnUse">
<stop offset="0.21" stop-color="#98ABD2"/>
<stop offset="0.49" stop-color="#72719D"/>
<stop offset="1" stop-color="#DAE1EF"/>
</linearGradient>
<linearGradient id="paint18_linear_6456_58627" x1="0" y1="69.8998" x2="81.91" y2="69.8998" gradientUnits="userSpaceOnUse">
<stop offset="0.21" stop-color="#98ABD2"/>
<stop offset="0.49" stop-color="#72719D"/>
<stop offset="1" stop-color="#DAE1EF"/>
</linearGradient>
<linearGradient id="paint19_linear_6456_58627" x1="40.96" y1="86.0898" x2="40.96" y2="61.1898" gradientUnits="userSpaceOnUse">
<stop stop-color="#8980EB"/>
<stop offset="1" stop-color="#705AB8"/>
</linearGradient>
<linearGradient id="paint20_linear_6456_58627" x1="36.6232" y1="81.3401" x2="33.9771" y2="50.3646" gradientUnits="userSpaceOnUse">
<stop stop-color="#705AB8"/>
<stop offset="1" stop-color="white"/>
</linearGradient>
<linearGradient id="paint21_linear_6456_58627" x1="27.5508" y1="41.6202" x2="54.8008" y2="41.6202" gradientUnits="userSpaceOnUse">
<stop stop-color="#8980EB"/>
<stop offset="1" stop-color="#705AB8"/>
</linearGradient>
<linearGradient id="paint22_linear_6456_58627" x1="41.1713" y1="54.1904" x2="41.1713" y2="25.6204" gradientUnits="userSpaceOnUse">
<stop stop-color="#86759D"/>
<stop offset="0.39" stop-color="#98ABD2"/>
<stop offset="1" stop-color="#DAE1EF"/>
</linearGradient>
<linearGradient id="paint23_linear_6456_58627" x1="28.4883" y1="41.9599" x2="41.3483" y2="41.9599" gradientUnits="userSpaceOnUse">
<stop stop-color="#705AB8"/>
<stop offset="1" stop-color="white"/>
</linearGradient>
<linearGradient id="paint24_linear_6456_58627" x1="41.3516" y1="41.9599" x2="53.7716" y2="41.9599" gradientUnits="userSpaceOnUse">
<stop stop-color="#705AB8"/>
<stop offset="1" stop-color="white"/>
</linearGradient>
<linearGradient id="paint25_linear_6456_58627" x1="33.3086" y1="47.9902" x2="41.3486" y2="47.9902" gradientUnits="userSpaceOnUse">
<stop stop-color="#705AB8"/>
<stop offset="1" stop-color="white"/>
</linearGradient>
<linearGradient id="paint26_linear_6456_58627" x1="41.1289" y1="47.9902" x2="48.9389" y2="47.9902" gradientUnits="userSpaceOnUse">
<stop stop-color="#705AB8"/>
<stop offset="1" stop-color="white"/>
</linearGradient>
<linearGradient id="paint27_linear_6456_58627" x1="42.2789" y1="31.5804" x2="44.0289" y2="47.6204" gradientUnits="userSpaceOnUse">
<stop stop-color="#BFD7FF"/>
<stop offset="1"/>
</linearGradient>
<linearGradient id="paint28_linear_6456_58627" x1="41.3516" y1="39.9299" x2="53.7716" y2="39.9299" gradientUnits="userSpaceOnUse">
<stop stop-color="#BFD7FF"/>
<stop offset="1"/>
</linearGradient>
<linearGradient id="paint29_linear_6456_58627" x1="46.5316" y1="31.1199" x2="48.2816" y2="47.1499" gradientUnits="userSpaceOnUse">
<stop stop-color="#BFD7FF"/>
<stop offset="1"/>
</linearGradient>
<linearGradient id="paint30_linear_6456_58627" x1="34.0383" y1="32.4799" x2="35.7883" y2="48.5099" gradientUnits="userSpaceOnUse">
<stop stop-color="#BFD7FF"/>
<stop offset="1"/>
</linearGradient>
<linearGradient id="paint31_linear_6456_58627" x1="33.3594" y1="51.6899" x2="48.9794" y2="51.6899" gradientUnits="userSpaceOnUse">
<stop stop-color="#8980EB"/>
<stop offset="1" stop-color="#705AB8"/>
</linearGradient>
<linearGradient id="paint32_linear_6456_58627" x1="28.4883" y1="43.5999" x2="41.3483" y2="43.5999" gradientUnits="userSpaceOnUse">
<stop stop-color="#8980EB"/>
<stop offset="1" stop-color="#705AB8"/>
</linearGradient>
<linearGradient id="paint33_linear_6456_58627" x1="41.3516" y1="43.9999" x2="53.7716" y2="43.9999" gradientUnits="userSpaceOnUse">
<stop stop-color="#8980EB"/>
<stop offset="1" stop-color="#705AB8"/>
</linearGradient>
<linearGradient id="paint34_linear_6456_58627" x1="33.3594" y1="47.9902" x2="48.9794" y2="47.9902" gradientUnits="userSpaceOnUse">
<stop stop-color="#8980EB"/>
<stop offset="1" stop-color="#705AB8"/>
</linearGradient>
</defs>
</svg>
