<svg width="261" height="316" viewBox="0 0 261 316" fill="none" xmlns="http://www.w3.org/2000/svg">
<g filter="url(#filter0_b_6924_90886)">
<path d="M25 309.983C22.2386 309.983 20 307.745 20 304.983L20 11.9998C20 9.2384 22.2386 6.99982 25 6.99982L57 6.99982L57 309.983L25 309.983Z" fill="url(#paint0_linear_6924_90886)"/>
<path d="M21 304.983L21 11.9998C21 9.79068 22.7908 7.99982 25 7.99982L56 7.99982L56 308.983L25 308.983C22.7909 308.983 21 307.193 21 304.983Z" stroke="url(#paint1_linear_6924_90886)" stroke-width="2"/>
</g>
<g filter="url(#filter1_b_6924_90886)">
<path d="M235 7C237.761 7 240 9.23858 240 12L240 304.984C240 307.745 237.761 309.984 235 309.984L203 309.984L203 7L235 7Z" fill="url(#paint2_linear_6924_90886)"/>
<path d="M239 12L239 304.984C239 307.193 237.209 308.984 235 308.984L204 308.984L204 8L235 8C237.209 8 239 9.79086 239 12Z" stroke="url(#paint3_linear_6924_90886)" stroke-width="2"/>
</g>
<mask id="path-5-inside-1_6924_90886" fill="white">
<path fill-rule="evenodd" clip-rule="evenodd" d="M17 10C17 4.47715 21.4772 0 27 0H233C238.523 0 243 4.47715 243 10V116.123C243 119.396 241.398 122.462 238.711 124.332L236.289 126.016C233.602 127.885 232 130.952 232 134.225V157V160V182.775C232 186.048 233.602 189.115 236.289 190.984L238.711 192.668C241.398 194.538 243 197.604 243 200.877V306C243 311.523 238.523 316 233 316H27C21.4772 316 17 311.523 17 306V200.877C17 197.604 18.6021 194.538 21.2894 192.668L23.7106 190.984C26.3979 189.115 28 186.048 28 182.775L28 160V157L28 134.225C28 130.952 26.3979 127.885 23.7106 126.016L21.2894 124.332C18.6021 122.462 17 119.396 17 116.123V10Z"/>
</mask>
<g filter="url(#filter2_i_6924_90886)">
<path fill-rule="evenodd" clip-rule="evenodd" d="M17 10C17 4.47715 21.4772 0 27 0H233C238.523 0 243 4.47715 243 10V116.123C243 119.396 241.398 122.462 238.711 124.332L236.289 126.016C233.602 127.885 232 130.952 232 134.225V157V160V182.775C232 186.048 233.602 189.115 236.289 190.984L238.711 192.668C241.398 194.538 243 197.604 243 200.877V306C243 311.523 238.523 316 233 316H27C21.4772 316 17 311.523 17 306V200.877C17 197.604 18.6021 194.538 21.2894 192.668L23.7106 190.984C26.3979 189.115 28 186.048 28 182.775L28 160V157L28 134.225C28 130.952 26.3979 127.885 23.7106 126.016L21.2894 124.332C18.6021 122.462 17 119.396 17 116.123V10Z" fill="#090E1C"/>
</g>
<path d="M28 160H30H28ZM28 157H26H28ZM21.2894 124.332L22.4315 122.69L21.2894 124.332ZM21.2894 192.668L20.1472 191.026L21.2894 192.668ZM238.711 192.668L237.569 194.31L238.711 192.668ZM23.7106 126.016L22.5685 127.658L23.7106 126.016ZM236.289 126.016L235.147 124.374L236.289 126.016ZM238.711 124.332L239.853 125.974L238.711 124.332ZM236.289 190.984L237.431 189.342L236.289 190.984ZM23.7106 190.984L24.8528 192.626L23.7106 190.984ZM233 -2H27V2H233V-2ZM245 116.123V10H241V116.123H245ZM237.431 127.658L239.853 125.974L237.569 122.69L235.147 124.374L237.431 127.658ZM234 157V134.225H230V157H234ZM234 160V157H230V160H234ZM234 182.775V160H230V182.775H234ZM239.853 191.026L237.431 189.342L235.147 192.626L237.569 194.31L239.853 191.026ZM245 306V200.877H241V306H245ZM27 318H233V314H27V318ZM15 200.877V306H19V200.877H15ZM22.4315 194.31L24.8528 192.626L22.5685 189.342L20.1472 191.026L22.4315 194.31ZM30 182.775L30 160H26L26 182.775H30ZM30 160V157H26V160H30ZM30 157L30 134.225H26L26 157H30ZM24.8528 124.374L22.4315 122.69L20.1472 125.974L22.5685 127.658L24.8528 124.374ZM15 10V116.123H19V10H15ZM22.4315 122.69C20.2817 121.194 19 118.741 19 116.123H15C15 120.051 16.9226 123.73 20.1472 125.974L22.4315 122.69ZM19 200.877C19 198.259 20.2817 195.806 22.4315 194.31L20.1472 191.026C16.9226 193.27 15 196.949 15 200.877H19ZM27 314C22.5817 314 19 310.418 19 306H15C15 312.627 20.3726 318 27 318V314ZM241 306C241 310.418 237.418 314 233 314V318C239.627 318 245 312.627 245 306H241ZM237.569 194.31C239.718 195.806 241 198.259 241 200.877H245C245 196.949 243.077 193.27 239.853 191.026L237.569 194.31ZM30 134.225C30 130.297 28.0774 126.618 24.8528 124.374L22.5685 127.658C24.7183 129.153 26 131.606 26 134.225H30ZM235.147 124.374C231.923 126.618 230 130.297 230 134.225H234C234 131.606 235.282 129.153 237.431 127.658L235.147 124.374ZM241 116.123C241 118.741 239.718 121.194 237.569 122.69L239.853 125.974C243.077 123.73 245 120.051 245 116.123H241ZM230 182.775C230 186.703 231.923 190.382 235.147 192.626L237.431 189.342C235.282 187.847 234 185.394 234 182.775H230ZM27 -2C20.3726 -2 15 3.37258 15 10H19C19 5.58172 22.5817 2 27 2V-2ZM24.8528 192.626C28.0774 190.382 30 186.703 30 182.775H26C26 185.394 24.7183 187.847 22.5685 189.342L24.8528 192.626ZM233 2C237.418 2 241 5.58172 241 10H245C245 3.37258 239.627 -2 233 -2V2Z" fill="url(#paint4_linear_6924_90886)" mask="url(#path-5-inside-1_6924_90886)"/>
<mask id="mask0_6924_90886" style="mask-type:alpha" maskUnits="userSpaceOnUse" x="19" y="2" width="222" height="312">
<path fill-rule="evenodd" clip-rule="evenodd" d="M19 12C19 6.47715 23.4771 2 29 2H231C236.523 2 241 6.47715 241 12V116.602C241 119.867 239.406 122.927 236.73 124.798L234.465 126.382C231.789 128.253 230.195 131.312 230.195 134.577V157.013V159.975V182.41C230.195 185.675 231.789 188.735 234.465 190.606L236.73 192.19C239.406 194.061 241 197.12 241 200.385V304C241 309.523 236.523 314 231 314H29C23.4772 314 19 309.523 19 304V200.386C19 197.121 20.5939 194.062 23.2697 192.191L25.537 190.606C28.2127 188.735 29.8066 185.675 29.8066 182.41L29.8066 157.013L29.8066 134.577C29.8066 131.312 28.2127 128.253 25.537 126.382L23.2697 124.796C20.5939 122.925 19 119.866 19 116.601V12Z" fill="#090E1C"/>
</mask>
<g mask="url(#mask0_6924_90886)">
<rect x="18" y="317" width="317" height="113" transform="rotate(-90 18 317)" fill="#060911"/>
<g style="mix-blend-mode:hard-light" opacity="0.2">
<path style="mix-blend-mode:multiply" opacity="0.5" d="M130.461 128.767L64.0275 165L76.7303 88.2809L23 33.9722L97.244 22.767L130.461 -47L163.677 22.767L238 33.9722L184.191 88.2809L196.894 165L130.461 128.767Z" fill="url(#paint5_linear_6924_90886)"/>
<path d="M230.195 36.5899L194.375 31.1918L184.591 29.7195L161.316 26.2026L130.467 -38.5752L99.6961 26.2026L30.7383 36.5899L80.6025 86.9726L68.8465 158.13L130.467 124.514L192.087 158.13L180.331 86.9726L230.195 36.5899Z" fill="url(#paint6_linear_6924_90886)"/>
<path style="mix-blend-mode:multiply" opacity="0.5" d="M30.4297 36.5908L131.894 64.0723L80.2939 86.9735L30.4297 36.5908Z" fill="url(#paint7_linear_6924_90886)"/>
<path style="mix-blend-mode:multiply" opacity="0.5" d="M229.875 36.5908L131.883 64.0723L180.011 86.9735L229.875 36.5908Z" fill="url(#paint8_linear_6924_90886)"/>
<path style="mix-blend-mode:multiply" opacity="0.5" d="M130.144 124.516L131.88 64.0732L68.4453 158.132L130.144 124.516Z" fill="url(#paint9_linear_6924_90886)"/>
<path style="mix-blend-mode:multiply" opacity="0.5" d="M191.772 158.132L131.888 64.0732L130.152 124.516L191.772 158.132Z" fill="url(#paint10_linear_6924_90886)"/>
<path style="mix-blend-mode:color-dodge" opacity="0.5" d="M130.152 -38.5752L131.888 64.0714L160.923 26.2026L130.152 -38.5752Z" fill="url(#paint11_linear_6924_90886)"/>
<path style="mix-blend-mode:color-dodge" opacity="0.5" d="M229.875 36.5905L131.883 64.072L160.918 26.2031L229.875 36.5905Z" fill="url(#paint12_linear_6924_90886)"/>
<path style="mix-blend-mode:color-dodge" opacity="0.5" d="M229.875 36.5905L131.883 64.072L160.918 26.2031L229.875 36.5905Z" fill="url(#paint13_linear_6924_90886)"/>
<path style="mix-blend-mode:color-dodge" opacity="0.5" d="M99.3086 26.2031L131.894 64.072L30.4297 36.5905L99.3086 26.2031Z" fill="url(#paint14_linear_6924_90886)"/>
<g style="mix-blend-mode:color-dodge" opacity="0.8">
<path d="M160.686 48.6967C155.558 53.1951 159.976 56.1396 159.976 56.1396L186.328 48.6967C182.614 45.8602 178.121 44.3301 173.507 44.3301C168.894 44.3301 164.401 45.8602 160.686 48.6967Z" fill="white"/>
</g>
<path style="mix-blend-mode:multiply" opacity="0.5" d="M68.8477 158.131C68.8477 158.131 115.556 135.312 130.468 128.932L192.246 158.131L130.626 124.516L68.8477 158.131Z" fill="url(#paint15_linear_6924_90886)"/>
<g style="mix-blend-mode:soft-light" opacity="0.4">
<path d="M107.498 14.9977C100.95 33.8095 125.961 46.9776 129.274 41.1705C132.588 35.3634 130.537 3.05637 126.276 -1.3603C122.016 -5.77696 110.181 7.30945 107.498 14.9977Z" fill="#F7FFFF"/>
</g>
<g style="mix-blend-mode:soft-light" opacity="0.4">
<path d="M87.0677 111.592C100.402 113.392 107.818 97.7698 110.737 87.0553C115.077 69.634 63.0034 108.157 87.0677 111.592Z" fill="#F7FFFF"/>
</g>
</g>
</g>
<g filter="url(#filter3_f_6924_90886)">
<ellipse cx="130.5" cy="158" rx="55.5" ry="52" fill="#6E85CF"/>
</g>
<path d="M130.45 89L76.4492 119.784V193.215L130.45 224L184.436 193.215V119.784L130.45 89Z" fill="url(#paint16_linear_6924_90886)"/>
<path d="M86.2188 187.656V125.343L130.451 100.132L174.684 125.343V187.656L130.451 212.868L86.2188 187.656Z" fill="url(#paint17_linear_6924_90886)"/>
<path d="M89.4727 185.789V127.196L130.449 103.838L171.426 127.196V185.789L130.449 209.148L89.4727 185.789Z" fill="#736FA8"/>
<g style="mix-blend-mode:soft-light" opacity="0.5">
<path d="M77.7997 119.982C77.1314 121.947 82.8613 124.375 86.9135 123.505C90.9657 122.635 128.957 100.624 129.881 98.6584C130.159 95.9139 130.159 93.1488 129.881 90.4043C128.544 90.4043 78.1267 119.013 77.7997 119.982Z" fill="white"/>
</g>
<g style="mix-blend-mode:soft-light" opacity="0.5">
<path d="M182.901 119.982C183.57 121.947 177.84 124.375 173.787 123.505C169.735 122.635 132.029 100.427 130.749 98.6584C130.095 97.746 129.882 90.4043 130.749 90.4043C132.086 90.4043 182.503 119.013 182.901 119.982Z" fill="white"/>
</g>
<path style="mix-blend-mode:multiply" opacity="0.5" d="M77.6867 161.743C77.3171 163.932 76.4355 191.741 77.6867 191.952C78.9379 192.162 84.7958 188.204 85.1228 186.337C85.4499 184.47 85.5494 165.449 85.1228 163.624C84.6963 161.799 78.3408 158.079 77.6867 161.743Z" fill="url(#paint18_linear_6924_90886)"/>
<path style="mix-blend-mode:multiply" opacity="0.5" d="M182.901 161.743C183.257 163.932 184.138 191.741 182.901 191.952C181.664 192.162 175.792 188.204 175.465 186.337C175.138 184.47 175.024 165.449 175.465 163.624C175.906 161.799 182.333 158.079 182.901 161.743Z" fill="url(#paint19_linear_6924_90886)"/>
<path style="mix-blend-mode:multiply" opacity="0.5" d="M79.1095 192.71C79.7636 193.665 128.404 222.049 129.129 222.049C129.499 222.049 129.982 215.03 129.982 214.202C129.982 212.012 86.9864 189.468 86.2328 189.257C85.0954 188.948 78.4413 191.742 79.1095 192.71Z" fill="url(#paint20_linear_6924_90886)"/>
<path style="mix-blend-mode:multiply" opacity="0.5" d="M181.878 193.454C181.224 194.394 131.688 222.694 130.949 222.694C130.76 219.658 130.817 216.611 131.119 213.584C132.683 212.039 173.774 189.467 174.456 189.256C175.565 188.948 182.546 192.485 181.878 193.454Z" fill="url(#paint21_linear_6924_90886)"/>
<path style="mix-blend-mode:multiply" opacity="0.5" d="M91.351 184.231C88.5073 168.004 90.0571 166.979 110.46 160.115C130.863 153.25 165.371 135.577 168.399 143.269C171.428 150.962 170.39 183.614 169.693 185.382C168.996 187.151 133.394 207.379 130.451 207.435C127.508 207.492 91.6638 186.056 91.351 184.231Z" fill="url(#paint22_linear_6924_90886)"/>
<g style="mix-blend-mode:soft-light" opacity="0.3">
<path d="M170.543 127.603C169.818 127.435 132.794 106.308 130.733 106.463C128.671 106.617 102.936 118.521 92.3436 127.519C89.5 129.92 90.5521 165.758 93.1541 165.098C95.756 164.438 97.7039 149.951 126.368 141.809C154.576 133.794 166.861 140.729 169.918 141.978C170.771 142.343 172.179 127.996 170.543 127.603Z" fill="white"/>
</g>
<path style="mix-blend-mode:multiply" opacity="0.5" d="M86.2188 187.657V125.344L130.451 100.076L174.684 125.344V187.657L171.428 185.86C171.428 185.86 171.627 131.689 170.447 129.99C166.182 123.94 133.48 109.201 128.148 110.843C122.816 112.485 93.5553 124.74 90.2994 129.892C89.2046 131.563 89.4747 185.86 89.4747 185.86L86.2188 187.657Z" fill="url(#paint23_linear_6924_90886)"/>
<g style="mix-blend-mode:soft-light" opacity="0.2">
<path d="M138.713 133.921C149.732 138.877 166.339 138.975 167.86 138.02C169.382 137.066 170.377 130.103 168.003 128.924C165.628 127.745 146.675 117.792 141.699 118.873C136.723 119.954 136.765 132.981 138.713 133.921Z" fill="white"/>
</g>
<path d="M76.4503 142.146C76.4503 141.992 76.9195 121.441 77.8721 119.981C78.8247 118.521 129.285 90.7968 130.749 90.4038C132.214 90.0107 151.181 100.82 151.181 100.82L130.451 89L76.4219 119.784L76.4503 142.146Z" fill="url(#paint24_linear_6924_90886)"/>
<path d="M149.773 111.15C149.773 111.15 173.489 124.472 173.816 125.974C174.143 127.476 174.684 167.736 174.684 167.736C174.684 167.736 174.897 127.027 174.684 125.342C174.47 123.658 149.773 111.15 149.773 111.15Z" fill="white"/>
<path d="M86.2205 159.497C86.2205 159.497 85.4243 125.807 85.8224 124.712C86.2205 123.617 130.453 100.132 130.453 100.132C130.453 100.132 87.7987 124.234 86.8746 125.765C85.9504 127.295 86.2205 159.497 86.2205 159.497Z" fill="white"/>
<path style="mix-blend-mode:multiply" d="M76.4505 193.215L130.479 224L184.508 193.215V176.497C184.508 176.497 183.997 191.096 182.902 192.878C181.807 194.661 133.423 222.512 130.949 222.694C128.475 222.877 79.1093 193.875 77.6875 191.952C76.2656 190.029 76.3936 155.791 76.3936 155.791L76.4505 193.215Z" fill="url(#paint25_linear_6924_90886)"/>
<path d="M86.2189 171.709C86.2189 171.709 86.0625 186.069 86.8729 187.263C87.6834 188.456 108.655 200.43 108.655 200.43C108.655 200.43 85.9061 188.835 85.707 188.077C85.508 187.319 86.2189 171.709 86.2189 171.709Z" fill="white"/>
<g style="mix-blend-mode:soft-light" opacity="0.5">
<path d="M104.49 200.739C102.883 200.739 98.4188 202.508 99.3856 203.547C100.352 204.586 126.94 220.392 129.969 221.515C130.964 221.88 130.865 215.633 129.542 213.612C128.974 212.741 109.424 200.725 104.49 200.739Z" fill="white"/>
</g>
<path d="M149.459 101.113C148.166 101.464 152.502 106.855 154.564 107.332C156.625 107.809 159.441 106.363 158.459 105.381C157.478 104.398 151.464 100.58 149.459 101.113Z" fill="white"/>
<path d="M159.071 106.463C157.095 106.982 160.721 115.489 162.27 117.005C163.82 118.521 177.612 121.217 177.285 118.718C176.958 116.219 161.83 105.733 159.071 106.463Z" fill="white"/>
<path style="mix-blend-mode:multiply" opacity="0.5" d="M155.347 200.88C154.181 205.891 154.366 208.853 155.02 208.881C155.674 208.91 179.29 194.886 179.93 194.282C180.57 193.679 176.148 189.622 174.371 189.903C172.594 190.183 155.788 198.999 155.347 200.88Z" fill="url(#paint26_linear_6924_90886)"/>
<path style="mix-blend-mode:multiply" opacity="0.5" d="M89.0611 126.776C88.4924 125.092 86.7436 125.106 86.5872 126.987C86.4308 128.868 86.1606 163.779 86.8573 163.835C87.554 163.892 89.0611 162.165 89.0611 161.365C89.0611 160.565 89.3455 127.576 89.0611 126.776Z" fill="url(#paint27_linear_6924_90886)"/>
<path style="mix-blend-mode:multiply" opacity="0.5" d="M171.812 126.984C171.726 127.658 171.385 160.675 171.812 160.675C172.238 160.675 174.2 159.116 174.2 158.316C174.2 157.516 173.717 126.353 173.489 126.184C173.262 126.016 171.883 126.451 171.812 126.984Z" fill="url(#paint28_linear_6924_90886)"/>
<path style="mix-blend-mode:multiply" opacity="0.5" d="M130.453 103.305C130.453 103.951 111.415 114.675 110.974 114.675C110.534 114.675 110.69 111.784 111.301 111.377C111.913 110.97 130.297 100.048 130.453 100.413C130.517 101.376 130.517 102.342 130.453 103.305Z" fill="url(#paint29_linear_6924_90886)"/>
<path d="M169.721 190.156C168.512 190.156 164.403 192.458 164.716 193.624C165.029 194.789 167.56 196.01 168.2 195.35C168.839 194.69 170.517 190.184 169.721 190.156Z" fill="#394773"/>
<path d="M171.286 190.968C170.874 191.347 169.964 192.695 170.831 193.355C171.698 194.015 174.243 192.274 173.859 191.755C173.475 191.235 171.826 190.477 171.286 190.968Z" fill="#394773"/>
<path style="mix-blend-mode:multiply" opacity="0.5" d="M165.314 192.457C164.304 193.861 168.456 194.717 168.996 193.566C169.537 192.415 170.418 190.029 169.721 190.155C168.121 190.649 166.627 191.429 165.314 192.457Z" fill="url(#paint30_linear_6924_90886)"/>
<path d="M164.73 193.286C165.014 194.07 165.568 194.73 166.294 195.153C167.261 195.715 168.1 195.588 168.341 195.153C168.102 195.434 167.773 195.626 167.409 195.697C167.044 195.768 166.666 195.715 166.336 195.546C164.417 194.648 164.73 193.286 164.73 193.286Z" fill="#DAE1EF"/>
<path style="mix-blend-mode:multiply" opacity="0.5" d="M171.743 190.996C170.804 191.993 171.544 193.439 172.07 193.355C172.596 193.27 174.16 192.246 173.861 191.754C173.563 191.263 171.956 190.786 171.743 190.996Z" fill="url(#paint31_linear_6924_90886)"/>
<path d="M171.285 190.969C171.285 190.969 170.418 192.134 170.773 192.808C171.128 193.481 171.598 193.481 171.598 193.481C171.598 193.481 170.489 194.113 170.29 193.369C170.234 192.918 170.296 192.461 170.47 192.041C170.644 191.62 170.925 191.251 171.285 190.969Z" fill="#DAE1EF"/>
<path d="M124.895 102.938C121.98 102.18 119.634 104.033 118.355 105.465C117.075 106.897 117.786 107.753 119.392 107.473C120.999 107.192 126.118 103.261 124.895 102.938Z" fill="#394773"/>
<path style="mix-blend-mode:multiply" opacity="0.5" d="M124.89 102.939C123.972 102.756 123.025 102.778 122.117 103.004C121.209 103.23 120.364 103.654 119.644 104.244C118.862 104.932 120.397 106.869 121.463 106.462C122.53 106.055 125.786 103.248 124.89 102.939Z" fill="url(#paint32_linear_6924_90886)"/>
<path d="M119.077 104.736C119.077 104.736 115.792 106.856 116.162 107.909C116.532 108.962 120.427 107.038 120.427 107.038C120.427 107.038 118.394 107.698 117.925 106.8C117.456 105.901 119.077 104.736 119.077 104.736Z" fill="white"/>
<path d="M88.0936 188.077C86.5439 188.456 91.1363 191.572 92.2169 191.727C93.2975 191.881 92.2169 189.172 91.705 188.695C90.5754 188.184 89.3313 187.972 88.0936 188.077Z" fill="white"/>
<path d="M130.408 191.083L74.6588 158.979C73.3482 161.981 72.4539 165.145 72 168.384L75.6398 174.448L130.408 205.864L185.176 174.448L188.461 168.384C188.36 165.158 187.687 161.974 186.47 158.979L130.408 191.083Z" fill="url(#paint33_linear_6924_90886)"/>
<path d="M75.6398 174.447L72 168.383L130.408 202.157L188.475 168.383L185.162 174.447L130.408 205.863L75.6398 174.447Z" fill="url(#paint34_linear_6924_90886)"/>
<path style="mix-blend-mode:multiply" opacity="0.5" d="M72 168.383L75.6398 174.447L76.4645 174.952V176.763C76.4645 176.763 79.5783 178.335 85.7063 181.648C85.9196 181.761 89.5736 185.565 89.5736 185.565C89.5736 185.565 129.015 209.148 130.451 209.148C132.285 209.148 171.428 185.088 171.428 185.088C171.428 185.088 174.47 182.561 174.783 182.378L184.437 177.437V174.868L185.176 174.447L188.461 168.383L130.408 202.157L72 168.383Z" fill="url(#paint35_linear_6924_90886)"/>
<path style="mix-blend-mode:multiply" opacity="0.5" d="M130.406 191.083V202.158L188.459 168.384C188.306 165.164 187.634 161.989 186.468 158.979L130.406 191.083Z" fill="url(#paint36_linear_6924_90886)"/>
<g style="mix-blend-mode:soft-light" opacity="0.5">
<path d="M77.5299 161.42C76.4635 161.42 77.3308 170.741 80.5726 172.875C85.7195 176.286 116.744 194.282 118.777 194.352C120.199 194.352 120.113 186.449 119.687 185.845C118.919 184.68 79.1081 161.42 77.5299 161.42Z" fill="white"/>
</g>
<g style="mix-blend-mode:soft-light" opacity="0.5">
<path d="M147.639 181.508C146.971 182.196 147.056 190.899 148.208 190.646C157.579 186.151 166.607 180.99 175.222 175.205C183.497 169.211 184.663 161.308 182.801 161.476C182.744 161.42 149.033 180.09 147.639 181.508Z" fill="white"/>
</g>
<path d="M102 185.733C102 185.733 128.687 201.54 130.436 201.54C132.185 201.54 153.455 188.766 153.455 188.766C153.455 188.766 131.076 202.803 130.479 202.803C129.882 202.803 102 185.733 102 185.733Z" fill="white"/>
<path style="mix-blend-mode:multiply" opacity="0.5" d="M130.537 159.399L118.565 165.618L120.854 152.451L111.172 143.13L124.551 141.207L130.537 129.232L136.523 141.207L149.916 143.13L140.22 152.451L142.509 165.618L130.537 159.399Z" fill="url(#paint37_linear_6924_90886)"/>
<path d="M148.51 143.578L142.055 142.652L140.292 142.399L136.097 141.796L130.538 130.678L124.993 141.796L112.566 143.578L121.552 152.225L119.434 164.438L130.538 158.669L141.643 164.438L139.524 152.225L148.51 143.578Z" fill="url(#paint38_linear_6924_90886)"/>
<path style="mix-blend-mode:multiply" opacity="0.5" d="M112.508 143.578L130.792 148.295L121.494 152.225L112.508 143.578Z" fill="url(#paint39_linear_6924_90886)"/>
<path style="mix-blend-mode:multiply" opacity="0.5" d="M148.452 143.578L130.793 148.295L139.466 152.225L148.452 143.578Z" fill="url(#paint40_linear_6924_90886)"/>
<path style="mix-blend-mode:multiply" opacity="0.5" d="M130.478 158.67L130.791 148.296L119.359 164.439L130.478 158.67Z" fill="url(#paint41_linear_6924_90886)"/>
<path style="mix-blend-mode:multiply" opacity="0.5" d="M141.585 164.439L130.793 148.296L130.48 158.67L141.585 164.439Z" fill="url(#paint42_linear_6924_90886)"/>
<path style="mix-blend-mode:color-dodge" opacity="0.5" d="M130.48 130.678L130.793 148.295L136.026 141.796L130.48 130.678Z" fill="url(#paint43_linear_6924_90886)"/>
<path style="mix-blend-mode:color-dodge" opacity="0.5" d="M148.452 143.579L130.793 148.295L136.025 141.796L148.452 143.579Z" fill="url(#paint44_linear_6924_90886)"/>
<path style="mix-blend-mode:color-dodge" opacity="0.5" d="M148.452 143.579L130.793 148.295L136.025 141.796L148.452 143.579Z" fill="url(#paint45_linear_6924_90886)"/>
<path style="mix-blend-mode:color-dodge" opacity="0.5" d="M124.92 141.796L130.792 148.295L112.508 143.579L124.92 141.796Z" fill="url(#paint46_linear_6924_90886)"/>
<g style="mix-blend-mode:color-dodge" opacity="0.8">
<path d="M135.982 145.656C135.058 146.428 135.854 146.933 135.854 146.933L140.603 145.656C139.933 145.169 139.124 144.906 138.292 144.906C137.461 144.906 136.651 145.169 135.982 145.656Z" fill="white"/>
</g>
<path style="mix-blend-mode:multiply" opacity="0.5" d="M119.434 164.436C119.434 164.436 127.851 160.52 130.538 159.425L141.671 164.436L130.566 158.667L119.434 164.436Z" fill="url(#paint47_linear_6924_90886)"/>
<path style="mix-blend-mode:multiply" opacity="0.5" d="M112.508 143.578L130.792 148.295L120.754 156.83L112.508 143.578Z" fill="url(#paint48_linear_6924_90886)"/>
<path style="mix-blend-mode:multiply" opacity="0.5" d="M148.452 143.578L130.793 148.295L140.518 157.967L148.452 143.578Z" fill="url(#paint49_linear_6924_90886)"/>
<path style="mix-blend-mode:multiply" opacity="0.5" d="M119.434 164.439L130.794 148.296L141.642 164.439L130.538 162.713L119.434 164.439Z" fill="url(#paint50_linear_6924_90886)"/>
<g style="mix-blend-mode:soft-light" opacity="0.4">
<path d="M126.399 139.872C125.219 143.101 129.726 145.361 130.323 144.364C130.921 143.368 130.551 137.823 129.783 137.065C129.015 136.307 126.883 138.553 126.399 139.872Z" fill="#F7FFFF"/>
</g>
<g style="mix-blend-mode:soft-light" opacity="0.4">
<path d="M122.716 156.45C125.119 156.759 126.456 154.077 126.982 152.238C127.764 149.248 118.38 155.86 122.716 156.45Z" fill="#F7FFFF"/>
</g>
<path d="M100.397 52.16C101.931 52.16 103.077 52.5467 103.837 53.32C104.597 54.08 104.977 55.1467 104.977 56.52V57.82C104.977 59.1933 104.597 60.26 103.837 61.02C103.077 61.78 101.931 62.16 100.397 62.16H98.4972V66H96.3372V52.16H100.397ZM98.4972 60.12H100.397C102.011 60.12 102.817 59.3533 102.817 57.82V56.52C102.817 55.76 102.617 55.1867 102.217 54.8C101.831 54.4 101.224 54.2 100.397 54.2H98.4972V60.12ZM108.927 58.02H111.147C112.587 58.02 113.68 58.34 114.427 58.98C115.187 59.62 115.567 60.6333 115.567 62.02C115.567 63.3933 115.187 64.4 114.427 65.04C113.68 65.68 112.587 66 111.147 66H106.767V52.16H108.927V58.02ZM117.267 66V52.16H119.427V66H117.267ZM108.927 64.16H111.147C111.947 64.16 112.527 63.9867 112.887 63.64C113.247 63.28 113.427 62.74 113.427 62.02C113.427 61.3 113.247 60.76 112.887 60.4C112.527 60.04 111.947 59.86 111.147 59.86H108.927V64.16ZM124.025 52.16V63.96H128.805V52.16H130.965V63.96H132.525V69H130.365V66H121.865V52.16H124.025ZM143.615 66H141.395L140.555 62.9H136.115L135.275 66H133.055L136.955 52.16H139.775L143.615 66ZM138.355 53.88L136.535 60.88H140.155L138.355 53.88ZM149.225 52.16C150.759 52.16 151.905 52.5467 152.665 53.32C153.425 54.08 153.805 55.1467 153.805 56.52V57.82C153.805 59.1933 153.425 60.26 152.665 61.02C151.905 61.78 150.759 62.16 149.225 62.16H147.325V66H145.165V52.16H149.225ZM147.325 60.12H149.225C150.839 60.12 151.645 59.3533 151.645 57.82V56.52C151.645 55.76 151.445 55.1867 151.045 54.8C150.659 54.4 150.052 54.2 149.225 54.2H147.325V60.12ZM157.755 52.16V58.02L159.975 58.02C161.415 58.02 162.508 58.34 163.255 58.98C164.015 59.62 164.395 60.6333 164.395 62.02C164.395 63.3933 164.015 64.4 163.255 65.04C162.508 65.68 161.415 66 159.975 66H155.595V52.16H157.755ZM159.975 64.16C160.775 64.16 161.355 63.9867 161.715 63.64C162.075 63.28 162.255 62.74 162.255 62.02C162.255 61.3 162.075 60.76 161.715 60.4C161.355 60.04 160.775 59.86 159.975 59.86L157.755 59.86V64.16H159.975Z" fill="#C0D0FF"/>
<path d="M109.176 44V35.6H112.632C113.376 35.6 114.012 35.72 114.54 35.96C115.076 36.2 115.488 36.544 115.776 36.992C116.064 37.44 116.208 37.972 116.208 38.588C116.208 39.204 116.064 39.736 115.776 40.184C115.488 40.632 115.076 40.976 114.54 41.216C114.012 41.456 113.376 41.576 112.632 41.576H110.04L110.736 40.844V44H109.176ZM110.736 41.012L110.04 40.256H112.56C113.248 40.256 113.764 40.112 114.108 39.824C114.46 39.528 114.636 39.116 114.636 38.588C114.636 38.052 114.46 37.64 114.108 37.352C113.764 37.064 113.248 36.92 112.56 36.92H110.04L110.736 36.152V41.012ZM119.694 44L123.474 35.6H125.01L128.802 44H127.17L123.918 36.428H124.542L121.302 44H119.694ZM121.434 42.056L121.854 40.832H126.39L126.81 42.056H121.434ZM139.494 35.6H141.054V44H139.494V35.6ZM135.15 44H133.59V35.6H135.15V44ZM139.614 40.4H135.018V39.068H139.614V40.4ZM146.922 44V35.6H152.622L152.61 36.92H148.086L148.446 36.548L148.458 44H146.922Z" fill="white"/>
<path d="M65.1283 286.168C64.447 286.168 63.7703 286.079 63.0983 285.902C62.4263 285.715 61.857 285.454 61.3903 285.118L62.2723 283.382C62.6456 283.653 63.0796 283.867 63.5743 284.026C64.069 284.185 64.5683 284.264 65.0723 284.264C65.6416 284.264 66.0896 284.152 66.4163 283.928C66.743 283.704 66.9063 283.396 66.9063 283.004C66.9063 282.631 66.7616 282.337 66.4723 282.122C66.183 281.907 65.7163 281.8 65.0723 281.8H64.0363V280.302L66.7663 277.208L67.0183 278.02H61.8803V276.2H68.7403V277.67L66.0243 280.764L64.8763 280.106H65.5343C66.7383 280.106 67.6483 280.377 68.2643 280.918C68.8803 281.459 69.1883 282.155 69.1883 283.004C69.1883 283.555 69.0436 284.073 68.7543 284.558C68.465 285.034 68.0216 285.421 67.4243 285.72C66.827 286.019 66.0616 286.168 65.1283 286.168ZM74.4355 286.168C73.6328 286.168 72.9141 285.972 72.2795 285.58C71.6448 285.179 71.1455 284.6 70.7815 283.844C70.4175 283.088 70.2355 282.173 70.2355 281.1C70.2355 280.027 70.4175 279.112 70.7815 278.356C71.1455 277.6 71.6448 277.026 72.2795 276.634C72.9141 276.233 73.6328 276.032 74.4355 276.032C75.2475 276.032 75.9661 276.233 76.5915 276.634C77.2261 277.026 77.7255 277.6 78.0895 278.356C78.4535 279.112 78.6355 280.027 78.6355 281.1C78.6355 282.173 78.4535 283.088 78.0895 283.844C77.7255 284.6 77.2261 285.179 76.5915 285.58C75.9661 285.972 75.2475 286.168 74.4355 286.168ZM74.4355 284.25C74.8181 284.25 75.1495 284.143 75.4295 283.928C75.7188 283.713 75.9428 283.373 76.1015 282.906C76.2695 282.439 76.3535 281.837 76.3535 281.1C76.3535 280.363 76.2695 279.761 76.1015 279.294C75.9428 278.827 75.7188 278.487 75.4295 278.272C75.1495 278.057 74.8181 277.95 74.4355 277.95C74.0621 277.95 73.7308 278.057 73.4415 278.272C73.1615 278.487 72.9375 278.827 72.7695 279.294C72.6108 279.761 72.5315 280.363 72.5315 281.1C72.5315 281.837 72.6108 282.439 72.7695 282.906C72.9375 283.373 73.1615 283.713 73.4415 283.928C73.7308 284.143 74.0621 284.25 74.4355 284.25ZM79.6437 288.156L80.5677 284.796L80.8757 286.056C80.4743 286.056 80.143 285.939 79.8817 285.706C79.6297 285.473 79.5037 285.151 79.5037 284.74C79.5037 284.329 79.6343 284.003 79.8957 283.76C80.157 283.517 80.479 283.396 80.8617 283.396C81.2537 283.396 81.5757 283.522 81.8277 283.774C82.0797 284.017 82.2057 284.339 82.2057 284.74C82.2057 284.861 82.1963 284.983 82.1777 285.104C82.159 285.216 82.1217 285.356 82.0657 285.524C82.019 285.683 81.9397 285.888 81.8277 286.14L81.0297 288.156H79.6437ZM87.246 286.168C86.4433 286.168 85.7247 285.972 85.09 285.58C84.4553 285.179 83.956 284.6 83.592 283.844C83.228 283.088 83.046 282.173 83.046 281.1C83.046 280.027 83.228 279.112 83.592 278.356C83.956 277.6 84.4553 277.026 85.09 276.634C85.7247 276.233 86.4433 276.032 87.246 276.032C88.058 276.032 88.7767 276.233 89.402 276.634C90.0367 277.026 90.536 277.6 90.9 278.356C91.264 279.112 91.446 280.027 91.446 281.1C91.446 282.173 91.264 283.088 90.9 283.844C90.536 284.6 90.0367 285.179 89.402 285.58C88.7767 285.972 88.058 286.168 87.246 286.168ZM87.246 284.25C87.6287 284.25 87.96 284.143 88.24 283.928C88.5293 283.713 88.7533 283.373 88.912 282.906C89.08 282.439 89.164 281.837 89.164 281.1C89.164 280.363 89.08 279.761 88.912 279.294C88.7533 278.827 88.5293 278.487 88.24 278.272C87.96 278.057 87.6287 277.95 87.246 277.95C86.8727 277.95 86.5413 278.057 86.252 278.272C85.972 278.487 85.748 278.827 85.58 279.294C85.4213 279.761 85.342 280.363 85.342 281.1C85.342 281.837 85.4213 282.439 85.58 282.906C85.748 283.373 85.972 283.713 86.252 283.928C86.5413 284.143 86.8727 284.25 87.246 284.25ZM96.748 286.168C95.9453 286.168 95.2266 285.972 94.592 285.58C93.9573 285.179 93.458 284.6 93.094 283.844C92.73 283.088 92.548 282.173 92.548 281.1C92.548 280.027 92.73 279.112 93.094 278.356C93.458 277.6 93.9573 277.026 94.592 276.634C95.2266 276.233 95.9453 276.032 96.748 276.032C97.56 276.032 98.2786 276.233 98.904 276.634C99.5386 277.026 100.038 277.6 100.402 278.356C100.766 279.112 100.948 280.027 100.948 281.1C100.948 282.173 100.766 283.088 100.402 283.844C100.038 284.6 99.5386 285.179 98.904 285.58C98.2786 285.972 97.56 286.168 96.748 286.168ZM96.748 284.25C97.1306 284.25 97.462 284.143 97.742 283.928C98.0313 283.713 98.2553 283.373 98.414 282.906C98.582 282.439 98.666 281.837 98.666 281.1C98.666 280.363 98.582 279.761 98.414 279.294C98.2553 278.827 98.0313 278.487 97.742 278.272C97.462 278.057 97.1306 277.95 96.748 277.95C96.3746 277.95 96.0433 278.057 95.754 278.272C95.474 278.487 95.25 278.827 95.082 279.294C94.9233 279.761 94.844 280.363 94.844 281.1C94.844 281.837 94.9233 282.439 95.082 282.906C95.25 283.373 95.474 283.713 95.754 283.928C96.0433 284.143 96.3746 284.25 96.748 284.25ZM106.25 286.168C105.447 286.168 104.729 285.972 104.094 285.58C103.459 285.179 102.96 284.6 102.596 283.844C102.232 283.088 102.05 282.173 102.05 281.1C102.05 280.027 102.232 279.112 102.596 278.356C102.96 277.6 103.459 277.026 104.094 276.634C104.729 276.233 105.447 276.032 106.25 276.032C107.062 276.032 107.781 276.233 108.406 276.634C109.041 277.026 109.54 277.6 109.904 278.356C110.268 279.112 110.45 280.027 110.45 281.1C110.45 282.173 110.268 283.088 109.904 283.844C109.54 284.6 109.041 285.179 108.406 285.58C107.781 285.972 107.062 286.168 106.25 286.168ZM106.25 284.25C106.633 284.25 106.964 284.143 107.244 283.928C107.533 283.713 107.757 283.373 107.916 282.906C108.084 282.439 108.168 281.837 108.168 281.1C108.168 280.363 108.084 279.761 107.916 279.294C107.757 278.827 107.533 278.487 107.244 278.272C106.964 278.057 106.633 277.95 106.25 277.95C105.877 277.95 105.545 278.057 105.256 278.272C104.976 278.487 104.752 278.827 104.584 279.294C104.425 279.761 104.346 280.363 104.346 281.1C104.346 281.837 104.425 282.439 104.584 282.906C104.752 283.373 104.976 283.713 105.256 283.928C105.545 284.143 105.877 284.25 106.25 284.25ZM116.749 286V276.2H120.991C122.297 276.2 123.333 276.475 124.099 277.026C124.864 277.577 125.247 278.403 125.247 279.504C125.247 280.596 124.864 281.417 124.099 281.968C123.333 282.519 122.297 282.794 120.991 282.794H118.009L119.031 281.786V286H116.749ZM119.031 282.024L118.009 281.016H120.977C121.602 281.016 122.087 280.89 122.433 280.638C122.778 280.377 122.951 280.003 122.951 279.518C122.951 279.042 122.778 278.678 122.433 278.426C122.087 278.174 121.602 278.048 120.977 278.048H118.009L119.031 276.97V282.024ZM115.391 284.74V283.578H122.055V284.74H115.391Z" fill="white"/>
<path d="M137.687 285.16V277.74H133.851L133.781 279.476C133.753 280.129 133.711 280.75 133.655 281.338C133.608 281.917 133.529 282.444 133.417 282.92C133.314 283.396 133.169 283.793 132.983 284.11C132.796 284.427 132.567 284.637 132.297 284.74L130.337 284.46C130.691 284.479 130.981 284.357 131.205 284.096C131.438 283.835 131.62 283.471 131.751 283.004C131.881 282.537 131.979 281.991 132.045 281.366C132.11 280.731 132.157 280.045 132.185 279.308L132.297 276.2H139.479V285.16H137.687ZM130.001 288.086L130.015 284.46H140.893V288.086H139.213V286H131.695V288.086H130.001ZM145.76 286.098C144.929 286.098 144.201 285.935 143.576 285.608C142.96 285.272 142.479 284.815 142.134 284.236C141.798 283.657 141.63 282.999 141.63 282.262C141.63 281.515 141.793 280.857 142.12 280.288C142.456 279.709 142.913 279.257 143.492 278.93C144.08 278.603 144.747 278.44 145.494 278.44C146.222 278.44 146.87 278.599 147.44 278.916C148.009 279.233 148.457 279.681 148.784 280.26C149.11 280.839 149.274 281.52 149.274 282.304C149.274 282.379 149.269 282.463 149.26 282.556C149.26 282.649 149.255 282.738 149.246 282.822H143.016V281.66H148.322L147.636 282.024C147.645 281.595 147.556 281.217 147.37 280.89C147.183 280.563 146.926 280.307 146.6 280.12C146.282 279.933 145.914 279.84 145.494 279.84C145.064 279.84 144.686 279.933 144.36 280.12C144.042 280.307 143.79 280.568 143.604 280.904C143.426 281.231 143.338 281.618 143.338 282.066V282.346C143.338 282.794 143.44 283.191 143.646 283.536C143.851 283.881 144.14 284.147 144.514 284.334C144.887 284.521 145.316 284.614 145.802 284.614C146.222 284.614 146.6 284.549 146.936 284.418C147.272 284.287 147.57 284.082 147.832 283.802L148.77 284.88C148.434 285.272 148.009 285.575 147.496 285.79C146.992 285.995 146.413 286.098 145.76 286.098ZM151.188 286V278.524H158.356V286H156.62V279.602L157.026 280.008H152.532L152.938 279.602V286H151.188ZM164.049 286.098C163.284 286.098 162.602 285.935 162.005 285.608C161.408 285.272 160.936 284.815 160.591 284.236C160.246 283.657 160.073 282.999 160.073 282.262C160.073 281.515 160.246 280.857 160.591 280.288C160.936 279.709 161.408 279.257 162.005 278.93C162.602 278.603 163.284 278.44 164.049 278.44C164.824 278.44 165.51 278.603 166.107 278.93C166.714 279.257 167.185 279.705 167.521 280.274C167.866 280.843 168.039 281.506 168.039 282.262C168.039 282.999 167.866 283.657 167.521 284.236C167.185 284.815 166.714 285.272 166.107 285.608C165.51 285.935 164.824 286.098 164.049 286.098ZM164.049 284.6C164.478 284.6 164.861 284.507 165.197 284.32C165.533 284.133 165.794 283.863 165.981 283.508C166.177 283.153 166.275 282.738 166.275 282.262C166.275 281.777 166.177 281.361 165.981 281.016C165.794 280.661 165.533 280.391 165.197 280.204C164.861 280.017 164.483 279.924 164.063 279.924C163.634 279.924 163.251 280.017 162.915 280.204C162.588 280.391 162.327 280.661 162.131 281.016C161.935 281.361 161.837 281.777 161.837 282.262C161.837 282.738 161.935 283.153 162.131 283.508C162.327 283.863 162.588 284.133 162.915 284.32C163.251 284.507 163.629 284.6 164.049 284.6ZM172.024 286.126C172.715 286.126 173.326 286.028 173.858 285.832C174.4 285.636 174.824 285.365 175.132 285.02C175.44 284.665 175.594 284.259 175.594 283.802C175.594 283.233 175.356 282.785 174.88 282.458C174.404 282.122 173.751 281.954 172.92 281.954L172.864 282.332C173.35 282.332 173.779 282.253 174.152 282.094C174.535 281.935 174.834 281.716 175.048 281.436C175.272 281.147 175.384 280.825 175.384 280.47C175.384 280.041 175.23 279.667 174.922 279.35C174.614 279.033 174.194 278.79 173.662 278.622C173.13 278.454 172.524 278.384 171.842 278.412C171.394 278.421 170.942 278.487 170.484 278.608C170.036 278.72 169.574 278.883 169.098 279.098L169.546 280.386C169.957 280.209 170.358 280.073 170.75 279.98C171.152 279.887 171.539 279.84 171.912 279.84C172.267 279.84 172.57 279.877 172.822 279.952C173.074 280.017 173.266 280.12 173.396 280.26C173.536 280.391 173.606 280.545 173.606 280.722C173.606 280.899 173.55 281.053 173.438 281.184C173.326 281.315 173.163 281.413 172.948 281.478C172.743 281.543 172.491 281.576 172.192 281.576H170.89V282.752H172.332C172.808 282.752 173.172 282.831 173.424 282.99C173.686 283.139 173.816 283.363 173.816 283.662C173.816 283.867 173.737 284.049 173.578 284.208C173.429 284.367 173.214 284.488 172.934 284.572C172.654 284.647 172.318 284.684 171.926 284.684C171.469 284.684 171.012 284.628 170.554 284.516C170.097 284.404 169.686 284.245 169.322 284.04L168.832 285.342C169.28 285.594 169.78 285.79 170.33 285.93C170.89 286.061 171.455 286.126 172.024 286.126ZM177.397 286V278.524H179.147V283.452L183.277 278.524H184.873V286H183.123V281.072L179.007 286H177.397ZM188.781 286V279.588L189.187 280.008H186.149V278.524H193.149V280.008H190.125L190.531 279.588V286H188.781ZM198.954 286V284.488L198.856 284.166V281.52C198.856 281.007 198.702 280.61 198.394 280.33C198.086 280.041 197.62 279.896 196.994 279.896C196.574 279.896 196.159 279.961 195.748 280.092C195.347 280.223 195.006 280.405 194.726 280.638L194.04 279.364C194.442 279.056 194.918 278.827 195.468 278.678C196.028 278.519 196.607 278.44 197.204 278.44C198.287 278.44 199.122 278.701 199.71 279.224C200.308 279.737 200.606 280.535 200.606 281.618V286H198.954ZM196.602 286.098C196.042 286.098 195.552 286.005 195.132 285.818C194.712 285.622 194.386 285.356 194.152 285.02C193.928 284.675 193.816 284.287 193.816 283.858C193.816 283.438 193.914 283.06 194.11 282.724C194.316 282.388 194.647 282.122 195.104 281.926C195.562 281.73 196.168 281.632 196.924 281.632H199.094V282.794H197.05C196.453 282.794 196.052 282.892 195.846 283.088C195.641 283.275 195.538 283.508 195.538 283.788C195.538 284.105 195.664 284.357 195.916 284.544C196.168 284.731 196.518 284.824 196.966 284.824C197.396 284.824 197.778 284.726 198.114 284.53C198.46 284.334 198.707 284.045 198.856 283.662L199.15 284.712C198.982 285.151 198.679 285.491 198.24 285.734C197.811 285.977 197.265 286.098 196.602 286.098Z" fill="#7D7D7D"/>
<path d="M87.9024 267.168C87.2211 267.168 86.5444 267.079 85.8724 266.902C85.2097 266.715 84.6404 266.454 84.1644 266.118L85.0604 264.382C85.4337 264.653 85.8631 264.867 86.3484 265.026C86.8431 265.185 87.3424 265.264 87.8464 265.264C88.4157 265.264 88.8637 265.152 89.1904 264.928C89.5171 264.704 89.6804 264.391 89.6804 263.99C89.6804 263.738 89.6151 263.514 89.4844 263.318C89.3537 263.122 89.1204 262.973 88.7844 262.87C88.4577 262.767 87.9957 262.716 87.3984 262.716H84.8924L85.3964 257.2H91.3744V259.02H86.2084L87.3844 257.984L87.0344 261.918L85.8584 260.882H87.9304C88.9011 260.882 89.6804 261.017 90.2684 261.288C90.8657 261.549 91.2997 261.909 91.5704 262.366C91.8411 262.823 91.9764 263.341 91.9764 263.92C91.9764 264.499 91.8317 265.035 91.5424 265.53C91.2531 266.015 90.8051 266.412 90.1984 266.72C89.6011 267.019 88.8357 267.168 87.9024 267.168ZM94.3106 267L101.003 257.2H102.669L95.9766 267H94.3106ZM95.1646 262.492C94.6886 262.492 94.2686 262.385 93.9046 262.17C93.5406 261.946 93.2513 261.633 93.0366 261.232C92.8313 260.821 92.7286 260.341 92.7286 259.79C92.7286 259.239 92.8313 258.763 93.0366 258.362C93.2513 257.961 93.5406 257.648 93.9046 257.424C94.2686 257.2 94.6886 257.088 95.1646 257.088C95.6406 257.088 96.0606 257.2 96.4246 257.424C96.7886 257.648 97.0733 257.961 97.2786 258.362C97.4839 258.763 97.5866 259.239 97.5866 259.79C97.5866 260.341 97.4839 260.821 97.2786 261.232C97.0733 261.633 96.7886 261.946 96.4246 262.17C96.0606 262.385 95.6406 262.492 95.1646 262.492ZM95.1646 261.344C95.4726 261.344 95.7199 261.218 95.9066 260.966C96.0933 260.705 96.1866 260.313 96.1866 259.79C96.1866 259.267 96.0933 258.88 95.9066 258.628C95.7199 258.367 95.4726 258.236 95.1646 258.236C94.8659 258.236 94.6186 258.367 94.4226 258.628C94.2359 258.88 94.1426 259.267 94.1426 259.79C94.1426 260.303 94.2359 260.691 94.4226 260.952C94.6186 261.213 94.8659 261.344 95.1646 261.344ZM101.815 267.112C101.348 267.112 100.928 267.005 100.555 266.79C100.191 266.566 99.9059 266.253 99.7006 265.852C99.4953 265.441 99.3926 264.961 99.3926 264.41C99.3926 263.859 99.4953 263.383 99.7006 262.982C99.9059 262.581 100.191 262.268 100.555 262.044C100.928 261.82 101.348 261.708 101.815 261.708C102.3 261.708 102.725 261.82 103.089 262.044C103.453 262.268 103.737 262.581 103.943 262.982C104.148 263.383 104.251 263.859 104.251 264.41C104.251 264.961 104.148 265.441 103.943 265.852C103.737 266.253 103.453 266.566 103.089 266.79C102.725 267.005 102.3 267.112 101.815 267.112ZM101.815 265.964C102.123 265.964 102.37 265.838 102.557 265.586C102.743 265.325 102.837 264.933 102.837 264.41C102.837 263.897 102.743 263.509 102.557 263.248C102.37 262.987 102.123 262.856 101.815 262.856C101.516 262.856 101.269 262.987 101.073 263.248C100.886 263.5 100.793 263.887 100.793 264.41C100.793 264.933 100.886 265.325 101.073 265.586C101.269 265.838 101.516 265.964 101.815 265.964Z" fill="white"/>
<path d="M114.445 267.14C113.698 267.14 113.003 267.019 112.359 266.776C111.724 266.524 111.169 266.174 110.693 265.726C110.226 265.269 109.862 264.732 109.601 264.116C109.339 263.5 109.209 262.828 109.209 262.1C109.209 261.372 109.339 260.7 109.601 260.084C109.862 259.468 110.231 258.936 110.707 258.488C111.183 258.031 111.738 257.681 112.373 257.438C113.007 257.186 113.703 257.06 114.459 257.06C115.261 257.06 115.994 257.2 116.657 257.48C117.319 257.751 117.879 258.157 118.337 258.698L117.161 259.804C116.806 259.421 116.409 259.137 115.971 258.95C115.532 258.754 115.056 258.656 114.543 258.656C114.029 258.656 113.558 258.74 113.129 258.908C112.709 259.076 112.34 259.314 112.023 259.622C111.715 259.93 111.472 260.294 111.295 260.714C111.127 261.134 111.043 261.596 111.043 262.1C111.043 262.604 111.127 263.066 111.295 263.486C111.472 263.906 111.715 264.27 112.023 264.578C112.34 264.886 112.709 265.124 113.129 265.292C113.558 265.46 114.029 265.544 114.543 265.544C115.056 265.544 115.532 265.451 115.971 265.264C116.409 265.068 116.806 264.774 117.161 264.382L118.337 265.502C117.879 266.034 117.319 266.44 116.657 266.72C115.994 267 115.257 267.14 114.445 267.14ZM124.45 267V265.488L124.352 265.166V262.52C124.352 262.007 124.198 261.61 123.89 261.33C123.582 261.041 123.116 260.896 122.49 260.896C122.07 260.896 121.655 260.961 121.244 261.092C120.843 261.223 120.502 261.405 120.222 261.638L119.536 260.364C119.938 260.056 120.414 259.827 120.964 259.678C121.524 259.519 122.103 259.44 122.7 259.44C123.783 259.44 124.618 259.701 125.206 260.224C125.804 260.737 126.102 261.535 126.102 262.618V267H124.45ZM122.098 267.098C121.538 267.098 121.048 267.005 120.628 266.818C120.208 266.622 119.882 266.356 119.648 266.02C119.424 265.675 119.312 265.287 119.312 264.858C119.312 264.438 119.41 264.06 119.606 263.724C119.812 263.388 120.143 263.122 120.6 262.926C121.058 262.73 121.664 262.632 122.42 262.632H124.59V263.794H122.546C121.949 263.794 121.548 263.892 121.342 264.088C121.137 264.275 121.034 264.508 121.034 264.788C121.034 265.105 121.16 265.357 121.412 265.544C121.664 265.731 122.014 265.824 122.462 265.824C122.892 265.824 123.274 265.726 123.61 265.53C123.956 265.334 124.203 265.045 124.352 264.662L124.646 265.712C124.478 266.151 124.175 266.491 123.736 266.734C123.307 266.977 122.761 267.098 122.098 267.098ZM130.658 267.098C130.033 267.098 129.431 267.019 128.852 266.86C128.283 266.692 127.83 266.491 127.494 266.258L128.166 264.928C128.502 265.143 128.904 265.32 129.37 265.46C129.837 265.6 130.304 265.67 130.77 265.67C131.321 265.67 131.718 265.595 131.96 265.446C132.212 265.297 132.338 265.096 132.338 264.844C132.338 264.639 132.254 264.485 132.086 264.382C131.918 264.27 131.699 264.186 131.428 264.13C131.158 264.074 130.854 264.023 130.518 263.976C130.192 263.929 129.86 263.869 129.524 263.794C129.198 263.71 128.899 263.593 128.628 263.444C128.358 263.285 128.138 263.075 127.97 262.814C127.802 262.553 127.718 262.207 127.718 261.778C127.718 261.302 127.854 260.891 128.124 260.546C128.395 260.191 128.773 259.921 129.258 259.734C129.753 259.538 130.336 259.44 131.008 259.44C131.512 259.44 132.021 259.496 132.534 259.608C133.048 259.72 133.472 259.879 133.808 260.084L133.136 261.414C132.782 261.199 132.422 261.055 132.058 260.98C131.704 260.896 131.349 260.854 130.994 260.854C130.462 260.854 130.066 260.933 129.804 261.092C129.552 261.251 129.426 261.451 129.426 261.694C129.426 261.918 129.51 262.086 129.678 262.198C129.846 262.31 130.066 262.399 130.336 262.464C130.607 262.529 130.906 262.585 131.232 262.632C131.568 262.669 131.9 262.73 132.226 262.814C132.553 262.898 132.852 263.015 133.122 263.164C133.402 263.304 133.626 263.505 133.794 263.766C133.962 264.027 134.046 264.368 134.046 264.788C134.046 265.255 133.906 265.661 133.626 266.006C133.356 266.351 132.968 266.622 132.464 266.818C131.96 267.005 131.358 267.098 130.658 267.098ZM139.795 259.44C140.393 259.44 140.925 259.557 141.391 259.79C141.867 260.023 142.241 260.383 142.511 260.868C142.782 261.344 142.917 261.96 142.917 262.716V267H141.167V262.94C141.167 262.277 141.009 261.783 140.691 261.456C140.383 261.129 139.949 260.966 139.389 260.966C138.979 260.966 138.615 261.05 138.297 261.218C137.98 261.386 137.733 261.638 137.555 261.974C137.387 262.301 137.303 262.716 137.303 263.22V267H135.553V256.612H137.303V261.54L136.925 260.924C137.187 260.448 137.565 260.084 138.059 259.832C138.563 259.571 139.142 259.44 139.795 259.44ZM149.281 267.098C148.647 267.098 148.082 266.958 147.587 266.678C147.093 266.398 146.701 265.978 146.411 265.418C146.131 264.849 145.991 264.13 145.991 263.262C145.991 262.385 146.136 261.666 146.425 261.106C146.724 260.546 147.121 260.131 147.615 259.86C148.119 259.58 148.675 259.44 149.281 259.44C150.019 259.44 150.667 259.599 151.227 259.916C151.797 260.233 152.245 260.677 152.571 261.246C152.907 261.815 153.075 262.487 153.075 263.262C153.075 264.037 152.907 264.709 152.571 265.278C152.245 265.847 151.797 266.295 151.227 266.622C150.667 266.939 150.019 267.098 149.281 267.098ZM145.137 267V256.612H146.887V261.26L146.747 263.248L146.803 265.236V267H145.137ZM149.085 265.6C149.505 265.6 149.879 265.507 150.205 265.32C150.541 265.133 150.807 264.863 151.003 264.508C151.199 264.153 151.297 263.738 151.297 263.262C151.297 262.777 151.199 262.361 151.003 262.016C150.807 261.661 150.541 261.391 150.205 261.204C149.879 261.017 149.505 260.924 149.085 260.924C148.665 260.924 148.287 261.017 147.951 261.204C147.615 261.391 147.349 261.661 147.153 262.016C146.957 262.361 146.859 262.777 146.859 263.262C146.859 263.738 146.957 264.153 147.153 264.508C147.349 264.863 147.615 265.133 147.951 265.32C148.287 265.507 148.665 265.6 149.085 265.6ZM159.245 267V265.488L159.147 265.166V262.52C159.147 262.007 158.993 261.61 158.685 261.33C158.377 261.041 157.911 260.896 157.285 260.896C156.865 260.896 156.45 260.961 156.039 261.092C155.638 261.223 155.297 261.405 155.017 261.638L154.331 260.364C154.733 260.056 155.209 259.827 155.759 259.678C156.319 259.519 156.898 259.44 157.495 259.44C158.578 259.44 159.413 259.701 160.001 260.224C160.599 260.737 160.897 261.535 160.897 262.618V267H159.245ZM156.893 267.098C156.333 267.098 155.843 267.005 155.423 266.818C155.003 266.622 154.677 266.356 154.443 266.02C154.219 265.675 154.107 265.287 154.107 264.858C154.107 264.438 154.205 264.06 154.401 263.724C154.607 263.388 154.938 263.122 155.395 262.926C155.853 262.73 156.459 262.632 157.215 262.632H159.385V263.794H157.341C156.744 263.794 156.343 263.892 156.137 264.088C155.932 264.275 155.829 264.508 155.829 264.788C155.829 265.105 155.955 265.357 156.207 265.544C156.459 265.731 156.809 265.824 157.257 265.824C157.687 265.824 158.069 265.726 158.405 265.53C158.751 265.334 158.998 265.045 159.147 264.662L159.441 265.712C159.273 266.151 158.97 266.491 158.531 266.734C158.102 266.977 157.556 267.098 156.893 267.098ZM166.587 267.098C165.803 267.098 165.103 266.935 164.487 266.608C163.88 266.272 163.404 265.815 163.059 265.236C162.713 264.657 162.541 263.999 162.541 263.262C162.541 262.515 162.713 261.857 163.059 261.288C163.404 260.709 163.88 260.257 164.487 259.93C165.103 259.603 165.803 259.44 166.587 259.44C167.315 259.44 167.954 259.589 168.505 259.888C169.065 260.177 169.489 260.607 169.779 261.176L168.435 261.96C168.211 261.605 167.935 261.344 167.609 261.176C167.291 261.008 166.946 260.924 166.573 260.924C166.143 260.924 165.756 261.017 165.411 261.204C165.065 261.391 164.795 261.661 164.599 262.016C164.403 262.361 164.305 262.777 164.305 263.262C164.305 263.747 164.403 264.167 164.599 264.522C164.795 264.867 165.065 265.133 165.411 265.32C165.756 265.507 166.143 265.6 166.573 265.6C166.946 265.6 167.291 265.516 167.609 265.348C167.935 265.18 168.211 264.919 168.435 264.564L169.779 265.348C169.489 265.908 169.065 266.342 168.505 266.65C167.954 266.949 167.315 267.098 166.587 267.098ZM172.651 265.334L172.693 263.136L176.599 259.524H178.699L175.381 262.856L174.457 263.626L172.651 265.334ZM171.223 267V256.612H172.973V267H171.223ZM176.865 267L174.135 263.626L175.241 262.226L178.993 267H176.865Z" fill="#7D7D7D"/>
<path fill-rule="evenodd" clip-rule="evenodd" d="M219.387 20.509V23.7297H221.326C222.397 23.7297 223.265 24.5949 223.265 25.6622V33.3919C223.265 34.4592 222.397 35.3244 221.326 35.3244H208.4C207.329 35.3244 206.461 34.4592 206.461 33.3919V25.6622C206.461 24.5949 207.329 23.7297 208.4 23.7297H210.339V20.509C210.339 18.0188 212.364 16 214.863 16C217.361 16 219.387 18.0188 219.387 20.509ZM211.631 20.509C211.631 18.7303 213.078 17.2883 214.863 17.2883C216.648 17.2883 218.094 18.7303 218.094 20.509V23.7297H211.631V20.509Z" fill="white"/>
<circle cx="214.864" cy="28.6023" r="1.68038" fill="black"/>
<rect x="214.023" y="28.6025" width="1.68038" height="4.20095" fill="black"/>
<path d="M41.4496 33V20.544H43.3936V33H41.4496ZM45.598 33V20.544H47.542V33H45.598Z" fill="white"/>
<g style="mix-blend-mode:overlay">
<g style="mix-blend-mode:color-dodge">
<path fill-rule="evenodd" clip-rule="evenodd" d="M19 12C19 6.47715 23.4771 2 29 2H231C236.523 2 241 6.47715 241 12V120.562C241 123.615 239.506 126.474 237 128.217V128.217C234.494 129.961 233 132.82 233 135.873V159V162V185.127C233 188.18 234.494 191.039 237 192.783V192.783C239.506 194.526 241 197.385 241 200.438V304C241 309.523 236.523 314 231 314H29C23.4772 314 19 309.523 19 304V202.182C19 198.908 20.6021 195.842 23.2894 193.973L24.7106 192.984C27.3979 191.115 29 188.048 29 184.775L29 162V159L29 136.225C29 132.952 27.3979 129.885 24.7107 128.016L23.2894 127.027C20.6021 125.158 19 122.092 19 118.818V12Z" fill="url(#paint51_linear_6924_90886)"/>
</g>
</g>
<defs>
<filter id="filter0_b_6924_90886" x="-6" y="-19" width="89" height="354.983" filterUnits="userSpaceOnUse" colorInterpolationFilters="sRGB">
<feFlood floodOpacity="0" result="BackgroundImageFix"/>
<feGaussianBlur in="BackgroundImageFix" stdDeviation="13"/>
<feComposite in2="SourceAlpha" operator="in" result="effect1_backgroundBlur_6924_90886"/>
<feBlend mode="normal" in="SourceGraphic" in2="effect1_backgroundBlur_6924_90886" result="shape"/>
</filter>
<filter id="filter1_b_6924_90886" x="177" y="-19" width="89" height="354.983" filterUnits="userSpaceOnUse" colorInterpolationFilters="sRGB">
<feFlood floodOpacity="0" result="BackgroundImageFix"/>
<feGaussianBlur in="BackgroundImageFix" stdDeviation="13"/>
<feComposite in2="SourceAlpha" operator="in" result="effect1_backgroundBlur_6924_90886"/>
<feBlend mode="normal" in="SourceGraphic" in2="effect1_backgroundBlur_6924_90886" result="shape"/>
</filter>
<filter id="filter2_i_6924_90886" x="17" y="0" width="226" height="320" filterUnits="userSpaceOnUse" colorInterpolationFilters="sRGB">
<feFlood floodOpacity="0" result="BackgroundImageFix"/>
<feBlend mode="normal" in="SourceGraphic" in2="BackgroundImageFix" result="shape"/>
<feColorMatrix in="SourceAlpha" type="matrix" values="0 0 0 0 0 0 0 0 0 0 0 0 0 0 0 0 0 0 127 0" result="hardAlpha"/>
<feOffset dy="5"/>
<feGaussianBlur stdDeviation="2"/>
<feComposite in2="hardAlpha" operator="arithmetic" k2="-1" k3="1"/>
<feColorMatrix type="matrix" values="0 0 0 0 0 0 0 0 0 0 0 0 0 0 0 0 0 0 0.25 0"/>
<feBlend mode="normal" in2="shape" result="effect1_innerShadow_6924_90886"/>
</filter>
<filter id="filter3_f_6924_90886" x="0" y="31" width="261" height="254" filterUnits="userSpaceOnUse" colorInterpolationFilters="sRGB">
<feFlood floodOpacity="0" result="BackgroundImageFix"/>
<feBlend mode="normal" in="SourceGraphic" in2="BackgroundImageFix" result="shape"/>
<feGaussianBlur stdDeviation="37.5" result="effect1_foregroundBlur_6924_90886"/>
</filter>
<linearGradient id="paint0_linear_6924_90886" x1="13" y1="296.56" x2="134.492" y2="0.901086" gradientUnits="userSpaceOnUse">
<stop stop-color="#060913"/>
<stop offset="0.136764" stop-color="#070A16"/>
<stop offset="0.197268" stop-color="#0D142E"/>
<stop offset="0.309253" stop-color="#070B17"/>
<stop offset="0.490764" stop-color="#080C1A"/>
<stop offset="0.661458" stop-color="#0B1125"/>
<stop offset="1" stop-color="#101010"/>
</linearGradient>
<linearGradient id="paint1_linear_6924_90886" x1="43.5" y1="323.39" x2="109.599" y2="304.922" gradientUnits="userSpaceOnUse">
<stop stop-color="#EECCA2"/>
<stop offset="0.260417" stop-color="#624A2C"/>
<stop offset="0.6875" stop-color="#FFDAAB"/>
<stop offset="1" stop-color="#C68C43"/>
</linearGradient>
<linearGradient id="paint2_linear_6924_90886" x1="247" y1="20.4233" x2="125.508" y2="316.082" gradientUnits="userSpaceOnUse">
<stop stop-color="#060913"/>
<stop offset="0.136764" stop-color="#070A16"/>
<stop offset="0.197268" stop-color="#0D142E"/>
<stop offset="0.309253" stop-color="#070B17"/>
<stop offset="0.490764" stop-color="#080C1A"/>
<stop offset="0.661458" stop-color="#0B1125"/>
<stop offset="1" stop-color="#101010"/>
</linearGradient>
<linearGradient id="paint3_linear_6924_90886" x1="216.5" y1="-6.40634" x2="150.401" y2="12.0615" gradientUnits="userSpaceOnUse">
<stop stop-color="#EECCA2"/>
<stop offset="0.260417" stop-color="#624A2C"/>
<stop offset="0.6875" stop-color="#FFDAAB"/>
<stop offset="1" stop-color="#C68C43"/>
</linearGradient>
<linearGradient id="paint4_linear_6924_90886" x1="184.5" y1="-25.5" x2="1.5" y2="349.5" gradientUnits="userSpaceOnUse">
<stop stop-color="#C68C43"/>
<stop offset="0.119792" stop-color="#F5BA6E"/>
<stop offset="0.286458" stop-color="#C68C43"/>
<stop offset="0.5625" stop-color="#C68C43"/>
<stop offset="0.770833" stop-color="#EEB873"/>
<stop offset="1" stop-color="#C68C43"/>
</linearGradient>
<linearGradient id="paint5_linear_6924_90886" x1="23" y1="59" x2="238" y2="59" gradientUnits="userSpaceOnUse">
<stop stop-color="#8980EB"/>
<stop offset="1" stop-color="#705AB8"/>
</linearGradient>
<linearGradient id="paint6_linear_6924_90886" x1="130.467" y1="161.811" x2="130.467" y2="-71.8638" gradientUnits="userSpaceOnUse">
<stop stop-color="#86759D"/>
<stop offset="0.39" stop-color="#98ABD2"/>
<stop offset="1" stop-color="#DAE1EF"/>
</linearGradient>
<linearGradient id="paint7_linear_6924_90886" x1="30.4297" y1="61.7822" x2="131.894" y2="61.7822" gradientUnits="userSpaceOnUse">
<stop stop-color="#705AB8"/>
<stop offset="1" stop-color="white"/>
</linearGradient>
<linearGradient id="paint8_linear_6924_90886" x1="131.883" y1="61.7822" x2="229.875" y2="61.7822" gradientUnits="userSpaceOnUse">
<stop stop-color="#705AB8"/>
<stop offset="1" stop-color="white"/>
</linearGradient>
<linearGradient id="paint9_linear_6924_90886" x1="68.4453" y1="111.103" x2="131.88" y2="111.103" gradientUnits="userSpaceOnUse">
<stop stop-color="#705AB8"/>
<stop offset="1" stop-color="white"/>
</linearGradient>
<linearGradient id="paint10_linear_6924_90886" x1="130.152" y1="111.103" x2="191.772" y2="111.103" gradientUnits="userSpaceOnUse">
<stop stop-color="#705AB8"/>
<stop offset="1" stop-color="white"/>
</linearGradient>
<linearGradient id="paint11_linear_6924_90886" x1="139.226" y1="-23.1169" x2="154.05" y2="107.959" gradientUnits="userSpaceOnUse">
<stop stop-color="#BFD7FF"/>
<stop offset="1"/>
</linearGradient>
<linearGradient id="paint12_linear_6924_90886" x1="131.883" y1="45.1784" x2="229.875" y2="45.1784" gradientUnits="userSpaceOnUse">
<stop stop-color="#BFD7FF"/>
<stop offset="1"/>
</linearGradient>
<linearGradient id="paint13_linear_6924_90886" x1="172.753" y1="-26.8787" x2="187.577" y2="104.116" gradientUnits="userSpaceOnUse">
<stop stop-color="#BFD7FF"/>
<stop offset="1"/>
</linearGradient>
<linearGradient id="paint14_linear_6924_90886" x1="74.2187" y1="-15.7552" x2="89.0434" y2="115.239" gradientUnits="userSpaceOnUse">
<stop stop-color="#BFD7FF"/>
<stop offset="1"/>
</linearGradient>
<linearGradient id="paint15_linear_6924_90886" x1="68.8477" y1="141.364" x2="192.088" y2="141.364" gradientUnits="userSpaceOnUse">
<stop stop-color="#8980EB"/>
<stop offset="1" stop-color="#705AB8"/>
</linearGradient>
<linearGradient id="paint16_linear_6924_90886" x1="130.45" y1="226.316" x2="130.45" y2="110.562" gradientUnits="userSpaceOnUse">
<stop offset="0.21" stop-color="#98ABD2"/>
<stop offset="0.49" stop-color="#72719D"/>
<stop offset="1" stop-color="#DAE1EF"/>
</linearGradient>
<linearGradient id="paint17_linear_6924_90886" x1="130.451" y1="107.109" x2="130.451" y2="212.559" gradientUnits="userSpaceOnUse">
<stop offset="0.21" stop-color="#98ABD2"/>
<stop offset="0.49" stop-color="#72719D"/>
<stop offset="1" stop-color="#DAE1EF"/>
</linearGradient>
<linearGradient id="paint18_linear_6924_90886" x1="81.2839" y1="205.765" x2="81.2839" y2="141.95" gradientUnits="userSpaceOnUse">
<stop stop-color="#705AB8"/>
<stop offset="1" stop-color="white"/>
</linearGradient>
<linearGradient id="paint19_linear_6924_90886" x1="179.404" y1="205.765" x2="179.404" y2="141.95" gradientUnits="userSpaceOnUse">
<stop stop-color="#705AB8"/>
<stop offset="1" stop-color="white"/>
</linearGradient>
<linearGradient id="paint20_linear_6924_90886" x1="91.1239" y1="181.958" x2="116.776" y2="224.097" gradientUnits="userSpaceOnUse">
<stop stop-color="#705AB8"/>
<stop offset="1" stop-color="white"/>
</linearGradient>
<linearGradient id="paint21_linear_6924_90886" x1="149.347" y1="187.221" x2="167.647" y2="242.165" gradientUnits="userSpaceOnUse">
<stop stop-color="#705AB8"/>
<stop offset="1" stop-color="white"/>
</linearGradient>
<linearGradient id="paint22_linear_6924_90886" x1="130.337" y1="216.405" x2="130.337" y2="128.179" gradientUnits="userSpaceOnUse">
<stop stop-color="#705AB8"/>
<stop offset="1" stop-color="white"/>
</linearGradient>
<linearGradient id="paint23_linear_6924_90886" x1="86.2188" y1="143.888" x2="174.684" y2="143.888" gradientUnits="userSpaceOnUse">
<stop stop-color="#8980EB"/>
<stop offset="1" stop-color="#705AB8"/>
</linearGradient>
<linearGradient id="paint24_linear_6924_90886" x1="76.4503" y1="115.573" x2="151.181" y2="115.573" gradientUnits="userSpaceOnUse">
<stop stop-color="#728EE3"/>
<stop offset="1" stop-color="#836888"/>
</linearGradient>
<linearGradient id="paint25_linear_6924_90886" x1="76.4505" y1="189.902" x2="184.437" y2="189.902" gradientUnits="userSpaceOnUse">
<stop stop-color="#728EE3"/>
<stop offset="1" stop-color="#836888"/>
</linearGradient>
<linearGradient id="paint26_linear_6924_90886" x1="154.508" y1="199.378" x2="179.987" y2="199.378" gradientUnits="userSpaceOnUse">
<stop stop-color="#8980EB"/>
<stop offset="1" stop-color="#705AB8"/>
</linearGradient>
<linearGradient id="paint27_linear_6924_90886" x1="86.4166" y1="144.688" x2="89.2175" y2="144.688" gradientUnits="userSpaceOnUse">
<stop stop-color="#8980EB"/>
<stop offset="1" stop-color="#705AB8"/>
</linearGradient>
<linearGradient id="paint28_linear_6924_90886" x1="171.598" y1="143.352" x2="174.2" y2="143.352" gradientUnits="userSpaceOnUse">
<stop stop-color="#8980EB"/>
<stop offset="1" stop-color="#705AB8"/>
</linearGradient>
<linearGradient id="paint29_linear_6924_90886" x1="110.718" y1="107.544" x2="130.51" y2="107.544" gradientUnits="userSpaceOnUse">
<stop stop-color="#8980EB"/>
<stop offset="1" stop-color="#705AB8"/>
</linearGradient>
<linearGradient id="paint30_linear_6924_90886" x1="146.349" y1="165.026" x2="147.77" y2="167.721" gradientUnits="userSpaceOnUse">
<stop stop-color="#8980EB"/>
<stop offset="1" stop-color="#705AB8"/>
</linearGradient>
<linearGradient id="paint31_linear_6924_90886" x1="150.964" y1="164.752" x2="152.031" y2="166.777" gradientUnits="userSpaceOnUse">
<stop stop-color="#8980EB"/>
<stop offset="1" stop-color="#705AB8"/>
</linearGradient>
<linearGradient id="paint32_linear_6924_90886" x1="121.817" y1="102.723" x2="123.148" y2="105.347" gradientUnits="userSpaceOnUse">
<stop stop-color="#8980EB"/>
<stop offset="1" stop-color="#705AB8"/>
</linearGradient>
<linearGradient id="paint33_linear_6924_90886" x1="130.238" y1="120.88" x2="130.238" y2="204.783" gradientUnits="userSpaceOnUse">
<stop offset="0.21" stop-color="#98ABD2"/>
<stop offset="0.49" stop-color="#72719D"/>
<stop offset="1" stop-color="#DAE1EF"/>
</linearGradient>
<linearGradient id="paint34_linear_6924_90886" x1="72" y1="187.123" x2="188.461" y2="187.123" gradientUnits="userSpaceOnUse">
<stop offset="0.21" stop-color="#98ABD2"/>
<stop offset="0.49" stop-color="#72719D"/>
<stop offset="1" stop-color="#DAE1EF"/>
</linearGradient>
<linearGradient id="paint35_linear_6924_90886" x1="130.238" y1="209.85" x2="130.238" y2="174.896" gradientUnits="userSpaceOnUse">
<stop stop-color="#8980EB"/>
<stop offset="1" stop-color="#705AB8"/>
</linearGradient>
<linearGradient id="paint36_linear_6924_90886" x1="124.072" y1="203.183" x2="120.404" y2="159.693" gradientUnits="userSpaceOnUse">
<stop stop-color="#705AB8"/>
<stop offset="1" stop-color="white"/>
</linearGradient>
<linearGradient id="paint37_linear_6924_90886" x1="111.172" y1="147.425" x2="149.916" y2="147.425" gradientUnits="userSpaceOnUse">
<stop stop-color="#8980EB"/>
<stop offset="1" stop-color="#705AB8"/>
</linearGradient>
<linearGradient id="paint38_linear_6924_90886" x1="130.538" y1="165.07" x2="130.538" y2="124.964" gradientUnits="userSpaceOnUse">
<stop stop-color="#86759D"/>
<stop offset="0.39" stop-color="#98ABD2"/>
<stop offset="1" stop-color="#DAE1EF"/>
</linearGradient>
<linearGradient id="paint39_linear_6924_90886" x1="112.508" y1="147.902" x2="130.792" y2="147.902" gradientUnits="userSpaceOnUse">
<stop stop-color="#705AB8"/>
<stop offset="1" stop-color="white"/>
</linearGradient>
<linearGradient id="paint40_linear_6924_90886" x1="130.793" y1="147.902" x2="148.452" y2="147.902" gradientUnits="userSpaceOnUse">
<stop stop-color="#705AB8"/>
<stop offset="1" stop-color="white"/>
</linearGradient>
<linearGradient id="paint41_linear_6924_90886" x1="119.359" y1="156.368" x2="130.791" y2="156.368" gradientUnits="userSpaceOnUse">
<stop stop-color="#705AB8"/>
<stop offset="1" stop-color="white"/>
</linearGradient>
<linearGradient id="paint42_linear_6924_90886" x1="130.48" y1="156.368" x2="141.585" y2="156.368" gradientUnits="userSpaceOnUse">
<stop stop-color="#705AB8"/>
<stop offset="1" stop-color="white"/>
</linearGradient>
<linearGradient id="paint43_linear_6924_90886" x1="132.116" y1="133.331" x2="134.542" y2="155.854" gradientUnits="userSpaceOnUse">
<stop stop-color="#BFD7FF"/>
<stop offset="1"/>
</linearGradient>
<linearGradient id="paint44_linear_6924_90886" x1="130.793" y1="145.053" x2="148.452" y2="145.053" gradientUnits="userSpaceOnUse">
<stop stop-color="#BFD7FF"/>
<stop offset="1"/>
</linearGradient>
<linearGradient id="paint45_linear_6924_90886" x1="138.158" y1="132.685" x2="140.584" y2="155.194" gradientUnits="userSpaceOnUse">
<stop stop-color="#BFD7FF"/>
<stop offset="1"/>
</linearGradient>
<linearGradient id="paint46_linear_6924_90886" x1="120.399" y1="134.595" x2="122.825" y2="157.104" gradientUnits="userSpaceOnUse">
<stop stop-color="#BFD7FF"/>
<stop offset="1"/>
</linearGradient>
<linearGradient id="paint47_linear_6924_90886" x1="119.434" y1="161.559" x2="141.642" y2="161.559" gradientUnits="userSpaceOnUse">
<stop stop-color="#8980EB"/>
<stop offset="1" stop-color="#705AB8"/>
</linearGradient>
<linearGradient id="paint48_linear_6924_90886" x1="112.508" y1="150.204" x2="130.792" y2="150.204" gradientUnits="userSpaceOnUse">
<stop stop-color="#8980EB"/>
<stop offset="1" stop-color="#705AB8"/>
</linearGradient>
<linearGradient id="paint49_linear_6924_90886" x1="130.793" y1="150.765" x2="148.452" y2="150.765" gradientUnits="userSpaceOnUse">
<stop stop-color="#8980EB"/>
<stop offset="1" stop-color="#705AB8"/>
</linearGradient>
<linearGradient id="paint50_linear_6924_90886" x1="119.434" y1="156.368" x2="141.642" y2="156.368" gradientUnits="userSpaceOnUse">
<stop stop-color="#8980EB"/>
<stop offset="1" stop-color="#705AB8"/>
</linearGradient>
<linearGradient id="paint51_linear_6924_90886" x1="84.5" y1="60.5" x2="32.0032" y2="111.503" gradientUnits="userSpaceOnUse">
<stop stop-color="white" stop-opacity="0"/>
<stop offset="0.440223" stop-color="white"/>
<stop offset="1" stop-color="white" stop-opacity="0"/>
</linearGradient>
</defs>
</svg>
