<svg width="261" height="316" viewBox="0 0 261 316" fill="none" xmlns="http://www.w3.org/2000/svg">
<g filter="url(#filter0_b_6924_91696)">
<path d="M25 309.983C22.2386 309.983 20 307.745 20 304.983L20 11.9998C20 9.2384 22.2386 6.99982 25 6.99982L57 6.99982L57 309.983L25 309.983Z" fill="url(#paint0_linear_6924_91696)"/>
<path d="M21 304.983L21 11.9998C21 9.79068 22.7908 7.99982 25 7.99982L56 7.99982L56 308.983L25 308.983C22.7909 308.983 21 307.193 21 304.983Z" stroke="url(#paint1_linear_6924_91696)" stroke-width="2"/>
</g>
<g filter="url(#filter1_b_6924_91696)">
<path d="M235 7C237.761 7 240 9.23858 240 12L240 304.984C240 307.745 237.761 309.984 235 309.984L203 309.984L203 7L235 7Z" fill="url(#paint2_linear_6924_91696)"/>
<path d="M239 12L239 304.984C239 307.193 237.209 308.984 235 308.984L204 308.984L204 8L235 8C237.209 8 239 9.79086 239 12Z" stroke="url(#paint3_linear_6924_91696)" stroke-width="2"/>
</g>
<mask id="path-5-inside-1_6924_91696" fill="white">
<path fill-rule="evenodd" clip-rule="evenodd" d="M17 10C17 4.47715 21.4772 0 27 0H233C238.523 0 243 4.47715 243 10V116.123C243 119.396 241.398 122.462 238.711 124.332L236.289 126.016C233.602 127.885 232 130.952 232 134.225V157V160V182.775C232 186.048 233.602 189.115 236.289 190.984L238.711 192.668C241.398 194.538 243 197.604 243 200.877V306C243 311.523 238.523 316 233 316H27C21.4772 316 17 311.523 17 306V200.877C17 197.604 18.6021 194.538 21.2894 192.668L23.7106 190.984C26.3979 189.115 28 186.048 28 182.775L28 160V157L28 134.225C28 130.952 26.3979 127.885 23.7106 126.016L21.2894 124.332C18.6021 122.462 17 119.396 17 116.123V10Z"/>
</mask>
<g filter="url(#filter2_i_6924_91696)">
<path fill-rule="evenodd" clip-rule="evenodd" d="M17 10C17 4.47715 21.4772 0 27 0H233C238.523 0 243 4.47715 243 10V116.123C243 119.396 241.398 122.462 238.711 124.332L236.289 126.016C233.602 127.885 232 130.952 232 134.225V157V160V182.775C232 186.048 233.602 189.115 236.289 190.984L238.711 192.668C241.398 194.538 243 197.604 243 200.877V306C243 311.523 238.523 316 233 316H27C21.4772 316 17 311.523 17 306V200.877C17 197.604 18.6021 194.538 21.2894 192.668L23.7106 190.984C26.3979 189.115 28 186.048 28 182.775L28 160V157L28 134.225C28 130.952 26.3979 127.885 23.7106 126.016L21.2894 124.332C18.6021 122.462 17 119.396 17 116.123V10Z" fill="#090E1C"/>
</g>
<path d="M28 160H30H28ZM28 157H26H28ZM21.2894 124.332L22.4315 122.69L21.2894 124.332ZM21.2894 192.668L20.1472 191.026L21.2894 192.668ZM238.711 192.668L237.569 194.31L238.711 192.668ZM23.7106 126.016L22.5685 127.658L23.7106 126.016ZM236.289 126.016L235.147 124.374L236.289 126.016ZM238.711 124.332L239.853 125.974L238.711 124.332ZM236.289 190.984L237.431 189.342L236.289 190.984ZM23.7106 190.984L24.8528 192.626L23.7106 190.984ZM233 -2H27V2H233V-2ZM245 116.123V10H241V116.123H245ZM237.431 127.658L239.853 125.974L237.569 122.69L235.147 124.374L237.431 127.658ZM234 157V134.225H230V157H234ZM234 160V157H230V160H234ZM234 182.775V160H230V182.775H234ZM239.853 191.026L237.431 189.342L235.147 192.626L237.569 194.31L239.853 191.026ZM245 306V200.877H241V306H245ZM27 318H233V314H27V318ZM15 200.877V306H19V200.877H15ZM22.4315 194.31L24.8528 192.626L22.5685 189.342L20.1472 191.026L22.4315 194.31ZM30 182.775L30 160H26L26 182.775H30ZM30 160V157H26V160H30ZM30 157L30 134.225H26L26 157H30ZM24.8528 124.374L22.4315 122.69L20.1472 125.974L22.5685 127.658L24.8528 124.374ZM15 10V116.123H19V10H15ZM22.4315 122.69C20.2817 121.194 19 118.741 19 116.123H15C15 120.051 16.9226 123.73 20.1472 125.974L22.4315 122.69ZM19 200.877C19 198.259 20.2817 195.806 22.4315 194.31L20.1472 191.026C16.9226 193.27 15 196.949 15 200.877H19ZM27 314C22.5817 314 19 310.418 19 306H15C15 312.627 20.3726 318 27 318V314ZM241 306C241 310.418 237.418 314 233 314V318C239.627 318 245 312.627 245 306H241ZM237.569 194.31C239.718 195.806 241 198.259 241 200.877H245C245 196.949 243.077 193.27 239.853 191.026L237.569 194.31ZM30 134.225C30 130.297 28.0774 126.618 24.8528 124.374L22.5685 127.658C24.7183 129.153 26 131.606 26 134.225H30ZM235.147 124.374C231.923 126.618 230 130.297 230 134.225H234C234 131.606 235.282 129.153 237.431 127.658L235.147 124.374ZM241 116.123C241 118.741 239.718 121.194 237.569 122.69L239.853 125.974C243.077 123.73 245 120.051 245 116.123H241ZM230 182.775C230 186.703 231.923 190.382 235.147 192.626L237.431 189.342C235.282 187.847 234 185.394 234 182.775H230ZM27 -2C20.3726 -2 15 3.37258 15 10H19C19 5.58172 22.5817 2 27 2V-2ZM24.8528 192.626C28.0774 190.382 30 186.703 30 182.775H26C26 185.394 24.7183 187.847 22.5685 189.342L24.8528 192.626ZM233 2C237.418 2 241 5.58172 241 10H245C245 3.37258 239.627 -2 233 -2V2Z" fill="url(#paint4_linear_6924_91696)" mask="url(#path-5-inside-1_6924_91696)"/>
<mask id="mask0_6924_91696" style="mask-type:alpha" maskUnits="userSpaceOnUse" x="19" y="2" width="222" height="312">
<path fill-rule="evenodd" clip-rule="evenodd" d="M19 12C19 6.47715 23.4771 2 29 2H231C236.523 2 241 6.47715 241 12V116.602C241 119.867 239.406 122.927 236.73 124.798L234.465 126.382C231.789 128.253 230.195 131.312 230.195 134.577V157.013V159.975V182.41C230.195 185.675 231.789 188.735 234.465 190.606L236.73 192.19C239.406 194.061 241 197.12 241 200.385V304C241 309.523 236.523 314 231 314H29C23.4772 314 19 309.523 19 304V200.386C19 197.121 20.5939 194.062 23.2697 192.191L25.537 190.606C28.2127 188.735 29.8066 185.675 29.8066 182.41L29.8066 157.013L29.8066 134.577C29.8066 131.312 28.2127 128.253 25.537 126.382L23.2697 124.796C20.5939 122.925 19 119.866 19 116.601V12Z" fill="#090E1C"/>
</mask>
<g mask="url(#mask0_6924_91696)">
<rect x="18" y="317" width="317" height="113" transform="rotate(-90 18 317)" fill="#060911"/>
<g opacity="0.2">
<g style="mix-blend-mode:multiply" opacity="0.5">
<path d="M130.5 126.965L62.8558 158L75.7902 92.1373L21 45.5139L96.6779 35.8943L130.5 -24L164.322 35.8943L240 45.5139L185.29 92.1373L198.225 158L130.5 126.965Z" fill="#DE5634"/>
</g>
<path d="M232.739 47.0166L196.168 42.3724L186.202 41.1058L162.491 38.08L131.064 -17.6504L99.6369 38.08L29.4688 47.0166L80.2663 90.3625L68.2903 151.652L131.064 122.731L193.918 151.652L181.942 90.3625L232.739 47.0166Z" fill="url(#paint5_linear_6924_91696)"/>
<path style="mix-blend-mode:multiply" opacity="0.37" d="M29.4688 47.9531L132.314 71.6874L80.0524 91.3368L29.4688 47.9531Z" fill="url(#paint6_linear_6924_91696)"/>
<path style="mix-blend-mode:multiply" opacity="0.37" d="M231.532 47.9531L132.316 71.6874L181.045 91.3368L231.532 47.9531Z" fill="url(#paint7_linear_6924_91696)"/>
<path style="mix-blend-mode:multiply" opacity="0.37" d="M130.56 122.911L132.315 71.2334L68.1875 151.652L130.56 122.911Z" fill="url(#paint8_linear_6924_91696)"/>
<path style="mix-blend-mode:multiply" opacity="0.37" d="M192.812 151.652L131.667 71.2334L129.895 122.911L192.812 151.652Z" fill="url(#paint9_linear_6924_91696)"/>
<path style="mix-blend-mode:color-dodge" opacity="0.5" d="M129.895 -17.6504L131.669 71.2333L161.353 38.3973L129.895 -17.6504Z" fill="url(#paint10_linear_6924_91696)"/>
<path style="mix-blend-mode:color-dodge" opacity="0.5" d="M231.532 47.4079L132.316 71.232L161.714 38.4297L231.532 47.4079Z" fill="url(#paint11_linear_6924_91696)"/>
<path style="mix-blend-mode:color-dodge" opacity="0.5" d="M231.532 47.4079L132.316 71.232L161.714 38.4297L231.532 47.4079Z" fill="url(#paint12_linear_6924_91696)"/>
<path style="mix-blend-mode:color-dodge" opacity="0.5" d="M99.3109 38.4297L132.314 71.232L29.4688 47.4079L99.3109 38.4297Z" fill="url(#paint13_linear_6924_91696)"/>
<path d="M161.517 57.8466C156.225 61.4331 160.703 63.824 160.703 63.824L187.972 57.8466C184.14 55.5433 179.504 54.3008 174.744 54.3008C169.984 54.3008 165.349 55.5433 161.517 57.8466Z" fill="white"/>
<g style="mix-blend-mode:multiply" opacity="0.5">
<path d="M68.1875 151.652C68.1875 151.652 115.848 131.949 131.064 126.53L194.022 151.652L131.064 123.082L68.1875 151.652Z" fill="#DE5634"/>
</g>
<g style="mix-blend-mode:soft-light" opacity="0.4">
<path d="M106.823 28.6756C100.035 44.7466 125.962 55.9476 129.397 51.008C132.832 46.0685 130.706 18.5182 126.371 14.8309C122.036 11.1436 109.604 22.1359 106.823 28.6756Z" fill="#F7FFFF"/>
</g>
<g style="mix-blend-mode:soft-light" opacity="0.4">
<path d="M86.6799 112.366C99.9748 114.005 107.37 100.325 110.28 90.992C114.607 75.8164 62.6075 109.801 86.6799 112.366Z" fill="#F7FFFF"/>
</g>
</g>
</g>
<g filter="url(#filter3_f_6924_91696)">
<ellipse cx="130.5" cy="158" rx="55.5" ry="52" fill="#FF5C00"/>
</g>
<path d="M99.6784 52.16L102.998 60.18L106.298 52.16H108.438V66H106.418L106.478 56.66L106.498 55.78L103.578 63.32H102.398L99.4784 55.78L99.4984 56.66L99.5584 66H97.5384V52.16H99.6784ZM120.558 66H118.338L117.498 62.9H113.058L112.218 66H109.998L113.898 52.16H116.718L120.558 66ZM115.298 53.88L113.478 60.88H117.098L115.298 53.88ZM126.169 52.16C127.702 52.16 128.849 52.5467 129.609 53.32C130.369 54.08 130.749 55.1467 130.749 56.52V57.82C130.749 59.1933 130.369 60.26 129.609 61.02C128.849 61.78 127.702 62.16 126.169 62.16H124.269V66H122.109V52.16H126.169ZM124.269 60.12H126.169C127.782 60.12 128.589 59.3533 128.589 57.82V56.52C128.589 55.76 128.389 55.1867 127.989 54.8C127.602 54.4 126.995 54.2 126.169 54.2H124.269V60.12ZM139.338 52.16H141.658L138.378 59.28L141.718 66H139.398L136.658 60.3H134.698V66H132.538V52.16H134.698V58.18H136.678L139.338 52.16ZM150.64 52.16H152.48V66H150.42V56.42L145.16 66H143.32V52.16H145.38V61.74L150.64 52.16ZM154.181 62.42L156.221 62.06C156.315 62.8333 156.568 63.3933 156.981 63.74C157.408 64.0733 157.961 64.24 158.641 64.24H158.661C159.435 64.24 159.995 64.06 160.341 63.7C160.701 63.3267 160.881 62.8 160.881 62.12C160.881 61.44 160.695 60.9 160.321 60.5C159.948 60.1 159.328 59.9 158.461 59.9H157.201V58.22H158.461C159.248 58.22 159.808 58.0333 160.141 57.66C160.488 57.2733 160.661 56.74 160.661 56.06C160.661 55.38 160.488 54.8533 160.141 54.48C159.795 54.1067 159.261 53.92 158.541 53.92H158.521C157.868 53.92 157.348 54.0933 156.961 54.44C156.575 54.7867 156.335 55.3333 156.241 56.08L154.221 55.74C154.368 54.42 154.808 53.46 155.541 52.86C156.275 52.2467 157.268 51.94 158.521 51.94H158.541C159.955 51.94 161.015 52.28 161.721 52.96C162.441 53.64 162.801 54.5533 162.801 55.7C162.801 57.4733 162.028 58.5867 160.481 59.04C161.361 59.2667 162.001 59.6733 162.401 60.26C162.815 60.8467 163.021 61.5933 163.021 62.5C163.021 63.6333 162.661 64.54 161.941 65.22C161.221 65.8867 160.135 66.22 158.681 66.22H158.661C157.328 66.22 156.281 65.9133 155.521 65.3C154.775 64.6733 154.328 63.7133 154.181 62.42Z" fill="#C0D0FF"/>
<path d="M109.176 44V35.6H112.632C113.376 35.6 114.012 35.72 114.54 35.96C115.076 36.2 115.488 36.544 115.776 36.992C116.064 37.44 116.208 37.972 116.208 38.588C116.208 39.204 116.064 39.736 115.776 40.184C115.488 40.632 115.076 40.976 114.54 41.216C114.012 41.456 113.376 41.576 112.632 41.576H110.04L110.736 40.844V44H109.176ZM110.736 41.012L110.04 40.256H112.56C113.248 40.256 113.764 40.112 114.108 39.824C114.46 39.528 114.636 39.116 114.636 38.588C114.636 38.052 114.46 37.64 114.108 37.352C113.764 37.064 113.248 36.92 112.56 36.92H110.04L110.736 36.152V41.012ZM119.694 44L123.474 35.6H125.01L128.802 44H127.17L123.918 36.428H124.542L121.302 44H119.694ZM121.434 42.056L121.854 40.832H126.39L126.81 42.056H121.434ZM139.494 35.6H141.054V44H139.494V35.6ZM135.15 44H133.59V35.6H135.15V44ZM139.614 40.4H135.018V39.068H139.614V40.4ZM146.922 44V35.6H152.622L152.61 36.92H148.086L148.446 36.548L148.458 44H146.922Z" fill="white"/>
<path d="M50.5665 286V284.53L54.3465 280.96C54.6452 280.689 54.8645 280.447 55.0045 280.232C55.1445 280.017 55.2378 279.821 55.2845 279.644C55.3405 279.467 55.3685 279.303 55.3685 279.154C55.3685 278.762 55.2332 278.463 54.9625 278.258C54.7012 278.043 54.3138 277.936 53.8005 277.936C53.3898 277.936 53.0072 278.015 52.6525 278.174C52.3072 278.333 52.0132 278.58 51.7705 278.916L50.1185 277.852C50.4918 277.292 51.0145 276.849 51.6865 276.522C52.3585 276.195 53.1332 276.032 54.0105 276.032C54.7385 276.032 55.3732 276.153 55.9145 276.396C56.4652 276.629 56.8898 276.961 57.1885 277.39C57.4965 277.819 57.6505 278.333 57.6505 278.93C57.6505 279.247 57.6085 279.565 57.5245 279.882C57.4498 280.19 57.2912 280.517 57.0485 280.862C56.8152 281.207 56.4698 281.595 56.0125 282.024L52.8765 284.978L52.4425 284.152H57.9725V286H50.5665ZM59.129 288.156L60.053 284.796L60.361 286.056C59.9597 286.056 59.6284 285.939 59.367 285.706C59.115 285.473 58.989 285.151 58.989 284.74C58.989 284.329 59.1197 284.003 59.381 283.76C59.6424 283.517 59.9644 283.396 60.347 283.396C60.739 283.396 61.061 283.522 61.313 283.774C61.565 284.017 61.691 284.339 61.691 284.74C61.691 284.861 61.6817 284.983 61.663 285.104C61.6444 285.216 61.607 285.356 61.551 285.524C61.5044 285.683 61.425 285.888 61.313 286.14L60.515 288.156H59.129ZM66.7314 286.168C65.9287 286.168 65.21 285.972 64.5754 285.58C63.9407 285.179 63.4414 284.6 63.0774 283.844C62.7134 283.088 62.5314 282.173 62.5314 281.1C62.5314 280.027 62.7134 279.112 63.0774 278.356C63.4414 277.6 63.9407 277.026 64.5754 276.634C65.21 276.233 65.9287 276.032 66.7314 276.032C67.5434 276.032 68.262 276.233 68.8874 276.634C69.522 277.026 70.0214 277.6 70.3854 278.356C70.7494 279.112 70.9314 280.027 70.9314 281.1C70.9314 282.173 70.7494 283.088 70.3854 283.844C70.0214 284.6 69.522 285.179 68.8874 285.58C68.262 285.972 67.5434 286.168 66.7314 286.168ZM66.7314 284.25C67.114 284.25 67.4454 284.143 67.7254 283.928C68.0147 283.713 68.2387 283.373 68.3974 282.906C68.5654 282.439 68.6494 281.837 68.6494 281.1C68.6494 280.363 68.5654 279.761 68.3974 279.294C68.2387 278.827 68.0147 278.487 67.7254 278.272C67.4454 278.057 67.114 277.95 66.7314 277.95C66.358 277.95 66.0267 278.057 65.7374 278.272C65.4574 278.487 65.2334 278.827 65.0654 279.294C64.9067 279.761 64.8274 280.363 64.8274 281.1C64.8274 281.837 64.9067 282.439 65.0654 282.906C65.2334 283.373 65.4574 283.713 65.7374 283.928C66.0267 284.143 66.358 284.25 66.7314 284.25ZM76.2333 286.168C75.4306 286.168 74.712 285.972 74.0773 285.58C73.4426 285.179 72.9433 284.6 72.5793 283.844C72.2153 283.088 72.0333 282.173 72.0333 281.1C72.0333 280.027 72.2153 279.112 72.5793 278.356C72.9433 277.6 73.4426 277.026 74.0773 276.634C74.712 276.233 75.4306 276.032 76.2333 276.032C77.0453 276.032 77.764 276.233 78.3893 276.634C79.024 277.026 79.5233 277.6 79.8873 278.356C80.2513 279.112 80.4333 280.027 80.4333 281.1C80.4333 282.173 80.2513 283.088 79.8873 283.844C79.5233 284.6 79.024 285.179 78.3893 285.58C77.764 285.972 77.0453 286.168 76.2333 286.168ZM76.2333 284.25C76.616 284.25 76.9473 284.143 77.2273 283.928C77.5166 283.713 77.7406 283.373 77.8993 282.906C78.0673 282.439 78.1513 281.837 78.1513 281.1C78.1513 280.363 78.0673 279.761 77.8993 279.294C77.7406 278.827 77.5166 278.487 77.2273 278.272C76.9473 278.057 76.616 277.95 76.2333 277.95C75.86 277.95 75.5286 278.057 75.2393 278.272C74.9593 278.487 74.7353 278.827 74.5673 279.294C74.4086 279.761 74.3293 280.363 74.3293 281.1C74.3293 281.837 74.4086 282.439 74.5673 282.906C74.7353 283.373 74.9593 283.713 75.2393 283.928C75.5286 284.143 75.86 284.25 76.2333 284.25ZM85.7353 286.168C84.9326 286.168 84.2139 285.972 83.5793 285.58C82.9446 285.179 82.4453 284.6 82.0813 283.844C81.7173 283.088 81.5353 282.173 81.5353 281.1C81.5353 280.027 81.7173 279.112 82.0813 278.356C82.4453 277.6 82.9446 277.026 83.5793 276.634C84.2139 276.233 84.9326 276.032 85.7353 276.032C86.5473 276.032 87.2659 276.233 87.8913 276.634C88.5259 277.026 89.0253 277.6 89.3893 278.356C89.7533 279.112 89.9353 280.027 89.9353 281.1C89.9353 282.173 89.7533 283.088 89.3893 283.844C89.0253 284.6 88.5259 285.179 87.8913 285.58C87.2659 285.972 86.5473 286.168 85.7353 286.168ZM85.7353 284.25C86.1179 284.25 86.4493 284.143 86.7293 283.928C87.0186 283.713 87.2426 283.373 87.4013 282.906C87.5693 282.439 87.6533 281.837 87.6533 281.1C87.6533 280.363 87.5693 279.761 87.4013 279.294C87.2426 278.827 87.0186 278.487 86.7293 278.272C86.4493 278.057 86.1179 277.95 85.7353 277.95C85.3619 277.95 85.0306 278.057 84.7413 278.272C84.4613 278.487 84.2373 278.827 84.0693 279.294C83.9106 279.761 83.8313 280.363 83.8313 281.1C83.8313 281.837 83.9106 282.439 84.0693 282.906C84.2373 283.373 84.4613 283.713 84.7413 283.928C85.0306 284.143 85.3619 284.25 85.7353 284.25ZM90.9435 288.156L91.8675 284.796L92.1755 286.056C91.7741 286.056 91.4428 285.939 91.1815 285.706C90.9295 285.473 90.8035 285.151 90.8035 284.74C90.8035 284.329 90.9341 284.003 91.1955 283.76C91.4568 283.517 91.7788 283.396 92.1615 283.396C92.5535 283.396 92.8755 283.522 93.1275 283.774C93.3795 284.017 93.5055 284.339 93.5055 284.74C93.5055 284.861 93.4961 284.983 93.4775 285.104C93.4588 285.216 93.4215 285.356 93.3655 285.524C93.3188 285.683 93.2395 285.888 93.1275 286.14L92.3295 288.156H90.9435ZM98.5458 286.168C97.7431 286.168 97.0245 285.972 96.3898 285.58C95.7551 285.179 95.2558 284.6 94.8918 283.844C94.5278 283.088 94.3458 282.173 94.3458 281.1C94.3458 280.027 94.5278 279.112 94.8918 278.356C95.2558 277.6 95.7551 277.026 96.3898 276.634C97.0245 276.233 97.7431 276.032 98.5458 276.032C99.3578 276.032 100.076 276.233 100.702 276.634C101.336 277.026 101.836 277.6 102.2 278.356C102.564 279.112 102.746 280.027 102.746 281.1C102.746 282.173 102.564 283.088 102.2 283.844C101.836 284.6 101.336 285.179 100.702 285.58C100.076 285.972 99.3578 286.168 98.5458 286.168ZM98.5458 284.25C98.9285 284.25 99.2598 284.143 99.5398 283.928C99.8291 283.713 100.053 283.373 100.212 282.906C100.38 282.439 100.464 281.837 100.464 281.1C100.464 280.363 100.38 279.761 100.212 279.294C100.053 278.827 99.8291 278.487 99.5398 278.272C99.2598 278.057 98.9285 277.95 98.5458 277.95C98.1725 277.95 97.8411 278.057 97.5518 278.272C97.2718 278.487 97.0478 278.827 96.8798 279.294C96.7211 279.761 96.6418 280.363 96.6418 281.1C96.6418 281.837 96.7211 282.439 96.8798 282.906C97.0478 283.373 97.2718 283.713 97.5518 283.928C97.8411 284.143 98.1725 284.25 98.5458 284.25ZM108.048 286.168C107.245 286.168 106.526 285.972 105.892 285.58C105.257 285.179 104.758 284.6 104.394 283.844C104.03 283.088 103.848 282.173 103.848 281.1C103.848 280.027 104.03 279.112 104.394 278.356C104.758 277.6 105.257 277.026 105.892 276.634C106.526 276.233 107.245 276.032 108.048 276.032C108.86 276.032 109.578 276.233 110.204 276.634C110.838 277.026 111.338 277.6 111.702 278.356C112.066 279.112 112.248 280.027 112.248 281.1C112.248 282.173 112.066 283.088 111.702 283.844C111.338 284.6 110.838 285.179 110.204 285.58C109.578 285.972 108.86 286.168 108.048 286.168ZM108.048 284.25C108.43 284.25 108.762 284.143 109.042 283.928C109.331 283.713 109.555 283.373 109.714 282.906C109.882 282.439 109.966 281.837 109.966 281.1C109.966 280.363 109.882 279.761 109.714 279.294C109.555 278.827 109.331 278.487 109.042 278.272C108.762 278.057 108.43 277.95 108.048 277.95C107.674 277.95 107.343 278.057 107.054 278.272C106.774 278.487 106.55 278.827 106.382 279.294C106.223 279.761 106.144 280.363 106.144 281.1C106.144 281.837 106.223 282.439 106.382 282.906C106.55 283.373 106.774 283.713 107.054 283.928C107.343 284.143 107.674 284.25 108.048 284.25ZM117.55 286.168C116.747 286.168 116.028 285.972 115.394 285.58C114.759 285.179 114.26 284.6 113.896 283.844C113.532 283.088 113.35 282.173 113.35 281.1C113.35 280.027 113.532 279.112 113.896 278.356C114.26 277.6 114.759 277.026 115.394 276.634C116.028 276.233 116.747 276.032 117.55 276.032C118.362 276.032 119.08 276.233 119.706 276.634C120.34 277.026 120.84 277.6 121.204 278.356C121.568 279.112 121.75 280.027 121.75 281.1C121.75 282.173 121.568 283.088 121.204 283.844C120.84 284.6 120.34 285.179 119.706 285.58C119.08 285.972 118.362 286.168 117.55 286.168ZM117.55 284.25C117.932 284.25 118.264 284.143 118.544 283.928C118.833 283.713 119.057 283.373 119.216 282.906C119.384 282.439 119.468 281.837 119.468 281.1C119.468 280.363 119.384 279.761 119.216 279.294C119.057 278.827 118.833 278.487 118.544 278.272C118.264 278.057 117.932 277.95 117.55 277.95C117.176 277.95 116.845 278.057 116.556 278.272C116.276 278.487 116.052 278.827 115.884 279.294C115.725 279.761 115.646 280.363 115.646 281.1C115.646 281.837 115.725 282.439 115.884 282.906C116.052 283.373 116.276 283.713 116.556 283.928C116.845 284.143 117.176 284.25 117.55 284.25ZM128.049 286V276.2H132.291C133.597 276.2 134.633 276.475 135.399 277.026C136.164 277.577 136.547 278.403 136.547 279.504C136.547 280.596 136.164 281.417 135.399 281.968C134.633 282.519 133.597 282.794 132.291 282.794H129.309L130.331 281.786V286H128.049ZM130.331 282.024L129.309 281.016H132.277C132.902 281.016 133.387 280.89 133.733 280.638C134.078 280.377 134.251 280.003 134.251 279.518C134.251 279.042 134.078 278.678 133.733 278.426C133.387 278.174 132.902 278.048 132.277 278.048H129.309L130.331 276.97V282.024ZM126.691 284.74V283.578H133.355V284.74H126.691Z" fill="white"/>
<path d="M148.986 285.16V277.74H145.15L145.08 279.476C145.052 280.129 145.01 280.75 144.954 281.338C144.908 281.917 144.828 282.444 144.716 282.92C144.614 283.396 144.469 283.793 144.282 284.11C144.096 284.427 143.867 284.637 143.596 284.74L141.636 284.46C141.991 284.479 142.28 284.357 142.504 284.096C142.738 283.835 142.92 283.471 143.05 283.004C143.181 282.537 143.279 281.991 143.344 281.366C143.41 280.731 143.456 280.045 143.484 279.308L143.596 276.2H150.778V285.16H148.986ZM141.3 288.086L141.314 284.46H152.192V288.086H150.512V286H142.994V288.086H141.3ZM157.059 286.098C156.229 286.098 155.501 285.935 154.875 285.608C154.259 285.272 153.779 284.815 153.433 284.236C153.097 283.657 152.929 282.999 152.929 282.262C152.929 281.515 153.093 280.857 153.419 280.288C153.755 279.709 154.213 279.257 154.791 278.93C155.379 278.603 156.047 278.44 156.793 278.44C157.521 278.44 158.17 278.599 158.739 278.916C159.309 279.233 159.757 279.681 160.083 280.26C160.41 280.839 160.573 281.52 160.573 282.304C160.573 282.379 160.569 282.463 160.559 282.556C160.559 282.649 160.555 282.738 160.545 282.822H154.315V281.66H159.621L158.935 282.024C158.945 281.595 158.856 281.217 158.669 280.89C158.483 280.563 158.226 280.307 157.899 280.12C157.582 279.933 157.213 279.84 156.793 279.84C156.364 279.84 155.986 279.933 155.659 280.12C155.342 280.307 155.09 280.568 154.903 280.904C154.726 281.231 154.637 281.618 154.637 282.066V282.346C154.637 282.794 154.74 283.191 154.945 283.536C155.151 283.881 155.44 284.147 155.813 284.334C156.187 284.521 156.616 284.614 157.101 284.614C157.521 284.614 157.899 284.549 158.235 284.418C158.571 284.287 158.87 284.082 159.131 283.802L160.069 284.88C159.733 285.272 159.309 285.575 158.795 285.79C158.291 285.995 157.713 286.098 157.059 286.098ZM162.488 286V278.524H169.656V286H167.92V279.602L168.326 280.008H163.832L164.238 279.602V286H162.488ZM175.349 286.098C174.583 286.098 173.902 285.935 173.305 285.608C172.707 285.272 172.236 284.815 171.891 284.236C171.545 283.657 171.373 282.999 171.373 282.262C171.373 281.515 171.545 280.857 171.891 280.288C172.236 279.709 172.707 279.257 173.305 278.93C173.902 278.603 174.583 278.44 175.349 278.44C176.123 278.44 176.809 278.603 177.407 278.93C178.013 279.257 178.485 279.705 178.821 280.274C179.166 280.843 179.339 281.506 179.339 282.262C179.339 282.999 179.166 283.657 178.821 284.236C178.485 284.815 178.013 285.272 177.407 285.608C176.809 285.935 176.123 286.098 175.349 286.098ZM175.349 284.6C175.778 284.6 176.161 284.507 176.497 284.32C176.833 284.133 177.094 283.863 177.281 283.508C177.477 283.153 177.575 282.738 177.575 282.262C177.575 281.777 177.477 281.361 177.281 281.016C177.094 280.661 176.833 280.391 176.497 280.204C176.161 280.017 175.783 279.924 175.363 279.924C174.933 279.924 174.551 280.017 174.215 280.204C173.888 280.391 173.627 280.661 173.431 281.016C173.235 281.361 173.137 281.777 173.137 282.262C173.137 282.738 173.235 283.153 173.431 283.508C173.627 283.863 173.888 284.133 174.215 284.32C174.551 284.507 174.929 284.6 175.349 284.6ZM183.324 286.126C184.015 286.126 184.626 286.028 185.158 285.832C185.7 285.636 186.124 285.365 186.432 285.02C186.74 284.665 186.894 284.259 186.894 283.802C186.894 283.233 186.656 282.785 186.18 282.458C185.704 282.122 185.051 281.954 184.22 281.954L184.164 282.332C184.65 282.332 185.079 282.253 185.452 282.094C185.835 281.935 186.134 281.716 186.348 281.436C186.572 281.147 186.684 280.825 186.684 280.47C186.684 280.041 186.53 279.667 186.222 279.35C185.914 279.033 185.494 278.79 184.962 278.622C184.43 278.454 183.824 278.384 183.142 278.412C182.694 278.421 182.242 278.487 181.784 278.608C181.336 278.72 180.874 278.883 180.398 279.098L180.846 280.386C181.257 280.209 181.658 280.073 182.05 279.98C182.452 279.887 182.839 279.84 183.212 279.84C183.567 279.84 183.87 279.877 184.122 279.952C184.374 280.017 184.566 280.12 184.696 280.26C184.836 280.391 184.906 280.545 184.906 280.722C184.906 280.899 184.85 281.053 184.738 281.184C184.626 281.315 184.463 281.413 184.248 281.478C184.043 281.543 183.791 281.576 183.492 281.576H182.19V282.752H183.632C184.108 282.752 184.472 282.831 184.724 282.99C184.986 283.139 185.116 283.363 185.116 283.662C185.116 283.867 185.037 284.049 184.878 284.208C184.729 284.367 184.514 284.488 184.234 284.572C183.954 284.647 183.618 284.684 183.226 284.684C182.769 284.684 182.312 284.628 181.854 284.516C181.397 284.404 180.986 284.245 180.622 284.04L180.132 285.342C180.58 285.594 181.08 285.79 181.63 285.93C182.19 286.061 182.755 286.126 183.324 286.126ZM188.697 286V278.524H190.447V283.452L194.577 278.524H196.173V286H194.423V281.072L190.307 286H188.697ZM200.081 286V279.588L200.487 280.008H197.449V278.524H204.449V280.008H201.425L201.831 279.588V286H200.081ZM210.254 286V284.488L210.156 284.166V281.52C210.156 281.007 210.002 280.61 209.694 280.33C209.386 280.041 208.919 279.896 208.294 279.896C207.874 279.896 207.459 279.961 207.048 280.092C206.647 280.223 206.306 280.405 206.026 280.638L205.34 279.364C205.741 279.056 206.217 278.827 206.768 278.678C207.328 278.519 207.907 278.44 208.504 278.44C209.587 278.44 210.422 278.701 211.01 279.224C211.607 279.737 211.906 280.535 211.906 281.618V286H210.254ZM207.902 286.098C207.342 286.098 206.852 286.005 206.432 285.818C206.012 285.622 205.685 285.356 205.452 285.02C205.228 284.675 205.116 284.287 205.116 283.858C205.116 283.438 205.214 283.06 205.41 282.724C205.615 282.388 205.947 282.122 206.404 281.926C206.861 281.73 207.468 281.632 208.224 281.632H210.394V282.794H208.35C207.753 282.794 207.351 282.892 207.146 283.088C206.941 283.275 206.838 283.508 206.838 283.788C206.838 284.105 206.964 284.357 207.216 284.544C207.468 284.731 207.818 284.824 208.266 284.824C208.695 284.824 209.078 284.726 209.414 284.53C209.759 284.334 210.007 284.045 210.156 283.662L210.45 284.712C210.282 285.151 209.979 285.491 209.54 285.734C209.111 285.977 208.565 286.098 207.902 286.098Z" fill="#7D7D7D"/>
<path d="M83.3754 267V258.04L84.3554 259.02H81.4154V257.2H85.6434V267H83.3754ZM87.2618 267V265.53L91.0418 261.96C91.3405 261.689 91.5598 261.447 91.6998 261.232C91.8398 261.017 91.9331 260.821 91.9798 260.644C92.0358 260.467 92.0638 260.303 92.0638 260.154C92.0638 259.762 91.9285 259.463 91.6578 259.258C91.3965 259.043 91.0091 258.936 90.4958 258.936C90.0851 258.936 89.7025 259.015 89.3478 259.174C89.0025 259.333 88.7085 259.58 88.4658 259.916L86.8138 258.852C87.1871 258.292 87.7098 257.849 88.3818 257.522C89.0538 257.195 89.8285 257.032 90.7058 257.032C91.4338 257.032 92.0685 257.153 92.6098 257.396C93.1605 257.629 93.5851 257.961 93.8838 258.39C94.1918 258.819 94.3458 259.333 94.3458 259.93C94.3458 260.247 94.3038 260.565 94.2198 260.882C94.1451 261.19 93.9865 261.517 93.7438 261.862C93.5105 262.207 93.1651 262.595 92.7078 263.024L89.5718 265.978L89.1378 265.152H94.6678V267H87.2618ZM97.0176 267L103.71 257.2H105.376L98.6836 267H97.0176ZM97.8716 262.492C97.3956 262.492 96.9756 262.385 96.6116 262.17C96.2476 261.946 95.9583 261.633 95.7436 261.232C95.5383 260.821 95.4356 260.341 95.4356 259.79C95.4356 259.239 95.5383 258.763 95.7436 258.362C95.9583 257.961 96.2476 257.648 96.6116 257.424C96.9756 257.2 97.3956 257.088 97.8716 257.088C98.3476 257.088 98.7676 257.2 99.1316 257.424C99.4956 257.648 99.7803 257.961 99.9856 258.362C100.191 258.763 100.294 259.239 100.294 259.79C100.294 260.341 100.191 260.821 99.9856 261.232C99.7803 261.633 99.4956 261.946 99.1316 262.17C98.7676 262.385 98.3476 262.492 97.8716 262.492ZM97.8716 261.344C98.1796 261.344 98.427 261.218 98.6136 260.966C98.8003 260.705 98.8936 260.313 98.8936 259.79C98.8936 259.267 98.8003 258.88 98.6136 258.628C98.427 258.367 98.1796 258.236 97.8716 258.236C97.573 258.236 97.3256 258.367 97.1296 258.628C96.943 258.88 96.8496 259.267 96.8496 259.79C96.8496 260.303 96.943 260.691 97.1296 260.952C97.3256 261.213 97.573 261.344 97.8716 261.344ZM104.522 267.112C104.055 267.112 103.635 267.005 103.262 266.79C102.898 266.566 102.613 266.253 102.408 265.852C102.202 265.441 102.1 264.961 102.1 264.41C102.1 263.859 102.202 263.383 102.408 262.982C102.613 262.581 102.898 262.268 103.262 262.044C103.635 261.82 104.055 261.708 104.522 261.708C105.007 261.708 105.432 261.82 105.796 262.044C106.16 262.268 106.444 262.581 106.65 262.982C106.855 263.383 106.958 263.859 106.958 264.41C106.958 264.961 106.855 265.441 106.65 265.852C106.444 266.253 106.16 266.566 105.796 266.79C105.432 267.005 105.007 267.112 104.522 267.112ZM104.522 265.964C104.83 265.964 105.077 265.838 105.264 265.586C105.45 265.325 105.544 264.933 105.544 264.41C105.544 263.897 105.45 263.509 105.264 263.248C105.077 262.987 104.83 262.856 104.522 262.856C104.223 262.856 103.976 262.987 103.78 263.248C103.593 263.5 103.5 263.887 103.5 264.41C103.5 264.933 103.593 265.325 103.78 265.586C103.976 265.838 104.223 265.964 104.522 265.964Z" fill="white"/>
<path d="M117.152 267.14C116.405 267.14 115.71 267.019 115.066 266.776C114.431 266.524 113.876 266.174 113.4 265.726C112.933 265.269 112.569 264.732 112.308 264.116C112.046 263.5 111.916 262.828 111.916 262.1C111.916 261.372 112.046 260.7 112.308 260.084C112.569 259.468 112.938 258.936 113.414 258.488C113.89 258.031 114.445 257.681 115.08 257.438C115.714 257.186 116.41 257.06 117.166 257.06C117.968 257.06 118.701 257.2 119.364 257.48C120.026 257.751 120.586 258.157 121.044 258.698L119.868 259.804C119.513 259.421 119.116 259.137 118.678 258.95C118.239 258.754 117.763 258.656 117.25 258.656C116.736 258.656 116.265 258.74 115.836 258.908C115.416 259.076 115.047 259.314 114.73 259.622C114.422 259.93 114.179 260.294 114.002 260.714C113.834 261.134 113.75 261.596 113.75 262.1C113.75 262.604 113.834 263.066 114.002 263.486C114.179 263.906 114.422 264.27 114.73 264.578C115.047 264.886 115.416 265.124 115.836 265.292C116.265 265.46 116.736 265.544 117.25 265.544C117.763 265.544 118.239 265.451 118.678 265.264C119.116 265.068 119.513 264.774 119.868 264.382L121.044 265.502C120.586 266.034 120.026 266.44 119.364 266.72C118.701 267 117.964 267.14 117.152 267.14ZM127.157 267V265.488L127.059 265.166V262.52C127.059 262.007 126.905 261.61 126.597 261.33C126.289 261.041 125.823 260.896 125.197 260.896C124.777 260.896 124.362 260.961 123.951 261.092C123.55 261.223 123.209 261.405 122.929 261.638L122.243 260.364C122.645 260.056 123.121 259.827 123.671 259.678C124.231 259.519 124.81 259.44 125.407 259.44C126.49 259.44 127.325 259.701 127.913 260.224C128.511 260.737 128.809 261.535 128.809 262.618V267H127.157ZM124.805 267.098C124.245 267.098 123.755 267.005 123.335 266.818C122.915 266.622 122.589 266.356 122.355 266.02C122.131 265.675 122.019 265.287 122.019 264.858C122.019 264.438 122.117 264.06 122.313 263.724C122.519 263.388 122.85 263.122 123.307 262.926C123.765 262.73 124.371 262.632 125.127 262.632H127.297V263.794H125.253C124.656 263.794 124.255 263.892 124.049 264.088C123.844 264.275 123.741 264.508 123.741 264.788C123.741 265.105 123.867 265.357 124.119 265.544C124.371 265.731 124.721 265.824 125.169 265.824C125.599 265.824 125.981 265.726 126.317 265.53C126.663 265.334 126.91 265.045 127.059 264.662L127.353 265.712C127.185 266.151 126.882 266.491 126.443 266.734C126.014 266.977 125.468 267.098 124.805 267.098ZM133.365 267.098C132.74 267.098 132.138 267.019 131.559 266.86C130.99 266.692 130.537 266.491 130.201 266.258L130.873 264.928C131.209 265.143 131.611 265.32 132.077 265.46C132.544 265.6 133.011 265.67 133.477 265.67C134.028 265.67 134.425 265.595 134.667 265.446C134.919 265.297 135.045 265.096 135.045 264.844C135.045 264.639 134.961 264.485 134.793 264.382C134.625 264.27 134.406 264.186 134.135 264.13C133.865 264.074 133.561 264.023 133.225 263.976C132.899 263.929 132.567 263.869 132.231 263.794C131.905 263.71 131.606 263.593 131.335 263.444C131.065 263.285 130.845 263.075 130.677 262.814C130.509 262.553 130.425 262.207 130.425 261.778C130.425 261.302 130.561 260.891 130.831 260.546C131.102 260.191 131.48 259.921 131.965 259.734C132.46 259.538 133.043 259.44 133.715 259.44C134.219 259.44 134.728 259.496 135.241 259.608C135.755 259.72 136.179 259.879 136.515 260.084L135.843 261.414C135.489 261.199 135.129 261.055 134.765 260.98C134.411 260.896 134.056 260.854 133.701 260.854C133.169 260.854 132.773 260.933 132.511 261.092C132.259 261.251 132.133 261.451 132.133 261.694C132.133 261.918 132.217 262.086 132.385 262.198C132.553 262.31 132.773 262.399 133.043 262.464C133.314 262.529 133.613 262.585 133.939 262.632C134.275 262.669 134.607 262.73 134.933 262.814C135.26 262.898 135.559 263.015 135.829 263.164C136.109 263.304 136.333 263.505 136.501 263.766C136.669 264.027 136.753 264.368 136.753 264.788C136.753 265.255 136.613 265.661 136.333 266.006C136.063 266.351 135.675 266.622 135.171 266.818C134.667 267.005 134.065 267.098 133.365 267.098ZM142.502 259.44C143.1 259.44 143.632 259.557 144.098 259.79C144.574 260.023 144.948 260.383 145.218 260.868C145.489 261.344 145.624 261.96 145.624 262.716V267H143.874V262.94C143.874 262.277 143.716 261.783 143.398 261.456C143.09 261.129 142.656 260.966 142.096 260.966C141.686 260.966 141.322 261.05 141.004 261.218C140.687 261.386 140.44 261.638 140.262 261.974C140.094 262.301 140.01 262.716 140.01 263.22V267H138.26V256.612H140.01V261.54L139.632 260.924C139.894 260.448 140.272 260.084 140.766 259.832C141.27 259.571 141.849 259.44 142.502 259.44ZM151.988 267.098C151.354 267.098 150.789 266.958 150.294 266.678C149.8 266.398 149.408 265.978 149.118 265.418C148.838 264.849 148.698 264.13 148.698 263.262C148.698 262.385 148.843 261.666 149.132 261.106C149.431 260.546 149.828 260.131 150.322 259.86C150.826 259.58 151.382 259.44 151.988 259.44C152.726 259.44 153.374 259.599 153.934 259.916C154.504 260.233 154.952 260.677 155.278 261.246C155.614 261.815 155.782 262.487 155.782 263.262C155.782 264.037 155.614 264.709 155.278 265.278C154.952 265.847 154.504 266.295 153.934 266.622C153.374 266.939 152.726 267.098 151.988 267.098ZM147.844 267V256.612H149.594V261.26L149.454 263.248L149.51 265.236V267H147.844ZM151.792 265.6C152.212 265.6 152.586 265.507 152.912 265.32C153.248 265.133 153.514 264.863 153.71 264.508C153.906 264.153 154.004 263.738 154.004 263.262C154.004 262.777 153.906 262.361 153.71 262.016C153.514 261.661 153.248 261.391 152.912 261.204C152.586 261.017 152.212 260.924 151.792 260.924C151.372 260.924 150.994 261.017 150.658 261.204C150.322 261.391 150.056 261.661 149.86 262.016C149.664 262.361 149.566 262.777 149.566 263.262C149.566 263.738 149.664 264.153 149.86 264.508C150.056 264.863 150.322 265.133 150.658 265.32C150.994 265.507 151.372 265.6 151.792 265.6ZM161.952 267V265.488L161.854 265.166V262.52C161.854 262.007 161.7 261.61 161.392 261.33C161.084 261.041 160.618 260.896 159.992 260.896C159.572 260.896 159.157 260.961 158.746 261.092C158.345 261.223 158.004 261.405 157.724 261.638L157.038 260.364C157.44 260.056 157.916 259.827 158.466 259.678C159.026 259.519 159.605 259.44 160.202 259.44C161.285 259.44 162.12 259.701 162.708 260.224C163.306 260.737 163.604 261.535 163.604 262.618V267H161.952ZM159.6 267.098C159.04 267.098 158.55 267.005 158.13 266.818C157.71 266.622 157.384 266.356 157.15 266.02C156.926 265.675 156.814 265.287 156.814 264.858C156.814 264.438 156.912 264.06 157.108 263.724C157.314 263.388 157.645 263.122 158.102 262.926C158.56 262.73 159.166 262.632 159.922 262.632H162.092V263.794H160.048C159.451 263.794 159.05 263.892 158.844 264.088C158.639 264.275 158.536 264.508 158.536 264.788C158.536 265.105 158.662 265.357 158.914 265.544C159.166 265.731 159.516 265.824 159.964 265.824C160.394 265.824 160.776 265.726 161.112 265.53C161.458 265.334 161.705 265.045 161.854 264.662L162.148 265.712C161.98 266.151 161.677 266.491 161.238 266.734C160.809 266.977 160.263 267.098 159.6 267.098ZM169.294 267.098C168.51 267.098 167.81 266.935 167.194 266.608C166.587 266.272 166.111 265.815 165.766 265.236C165.42 264.657 165.248 263.999 165.248 263.262C165.248 262.515 165.42 261.857 165.766 261.288C166.111 260.709 166.587 260.257 167.194 259.93C167.81 259.603 168.51 259.44 169.294 259.44C170.022 259.44 170.661 259.589 171.212 259.888C171.772 260.177 172.196 260.607 172.486 261.176L171.142 261.96C170.918 261.605 170.642 261.344 170.316 261.176C169.998 261.008 169.653 260.924 169.28 260.924C168.85 260.924 168.463 261.017 168.118 261.204C167.772 261.391 167.502 261.661 167.306 262.016C167.11 262.361 167.012 262.777 167.012 263.262C167.012 263.747 167.11 264.167 167.306 264.522C167.502 264.867 167.772 265.133 168.118 265.32C168.463 265.507 168.85 265.6 169.28 265.6C169.653 265.6 169.998 265.516 170.316 265.348C170.642 265.18 170.918 264.919 171.142 264.564L172.486 265.348C172.196 265.908 171.772 266.342 171.212 266.65C170.661 266.949 170.022 267.098 169.294 267.098ZM175.358 265.334L175.4 263.136L179.306 259.524H181.406L178.088 262.856L177.164 263.626L175.358 265.334ZM173.93 267V256.612H175.68V267H173.93ZM179.572 267L176.842 263.626L177.948 262.226L181.7 267H179.572Z" fill="#7D7D7D"/>
<path fill-rule="evenodd" clip-rule="evenodd" d="M219.926 20.509V23.7297H221.865C222.936 23.7297 223.804 24.5949 223.804 25.6622V33.3919C223.804 34.4592 222.936 35.3244 221.865 35.3244H208.939C207.868 35.3244 207 34.4592 207 33.3919V25.6622C207 24.5949 207.868 23.7297 208.939 23.7297H210.878V20.509C210.878 18.0188 212.903 16 215.402 16C217.9 16 219.926 18.0188 219.926 20.509ZM212.17 20.509C212.17 18.7303 213.617 17.2883 215.402 17.2883C217.187 17.2883 218.633 18.7303 218.633 20.509V23.7297H212.17V20.509Z" fill="white"/>
<circle cx="215.403" cy="28.6023" r="1.68038" fill="black"/>
<rect x="214.562" y="28.6025" width="1.68038" height="4.20095" fill="black"/>
<path style="mix-blend-mode:multiply" opacity="0.37" d="M114.021 111.247C111.527 113.356 86.635 127.367 86.3323 128.278C85.8965 129.438 89.1896 134.903 90.7636 134.442C92.3375 133.98 121.927 116.7 121.988 115.889C122.048 115.078 122.121 110.573 121.407 110.287C120.692 110 114.978 110.436 114.021 111.247Z" fill="url(#paint14_linear_6924_91696)"/>
<g style="mix-blend-mode:soft-light" opacity="0.4">
<path d="M110.728 109.824C109.106 109.936 88.8018 123.361 88.8018 123.748C88.8018 124.135 85.2302 126.406 86.1019 126.343C86.9736 126.281 112.629 111.371 112.665 110.859C112.701 110.348 111.612 109.762 110.728 109.824Z" fill="#FFDF66"/>
</g>
<g style="mix-blend-mode:soft-light" opacity="0.4">
<path d="M85.2539 128.277C85.2539 128.277 98.7413 121.252 105.679 116.761C112.616 112.269 114.021 111.246 114.021 111.246L85.2539 128.277Z" fill="#FFDF66"/>
</g>
<path style="mix-blend-mode:multiply" opacity="0.37" d="M146.967 111.247C149.461 113.356 174.329 127.367 174.668 128.278C175.104 129.438 171.799 134.903 170.225 134.442C168.651 133.98 139.073 116.7 139.013 115.889C138.952 115.078 138.88 110.573 139.594 110.287C140.308 110 146.023 110.436 146.967 111.247Z" fill="url(#paint15_linear_6924_91696)"/>
<g style="mix-blend-mode:soft-light" opacity="0.4">
<path d="M150.259 109.824C151.894 109.936 172.185 123.361 172.185 123.748C172.185 124.135 175.818 126.405 174.898 126.343C173.977 126.281 148.383 111.346 148.383 110.859C148.383 110.373 149.388 109.761 150.259 109.824Z" fill="#FFDF66"/>
</g>
<g style="mix-blend-mode:soft-light" opacity="0.4">
<path d="M175.731 128.277C175.731 128.277 162.22 121.252 155.319 116.761C148.418 112.269 146.965 111.246 146.965 111.246L175.731 128.277Z" fill="#FFDF66"/>
</g>
<path d="M125.377 202.826V243.999C113.27 237.436 95.1094 218.284 95.1094 218.284V189.812L125.377 202.826Z" fill="url(#paint16_linear_6924_91696)"/>
<g style="mix-blend-mode:multiply" opacity="0.6">
<path d="M125.377 235.678V243.962C113.27 237.4 95.1094 218.248 95.1094 218.248V211.148C99.3106 216.713 108.197 226.021 125.377 235.678Z" fill="#8E37E2"/>
</g>
<path d="M135.633 202.826V243.999C147.74 237.436 165.901 218.284 165.901 218.284V189.812L135.633 202.826Z" fill="url(#paint17_linear_6924_91696)"/>
<g style="mix-blend-mode:multiply" opacity="0.6">
<path d="M135.633 235.678V243.962C147.74 237.4 165.901 218.248 165.901 218.248V211.148C161.7 216.713 152.789 226.021 135.633 235.678Z" fill="#8E37E2"/>
</g>
<path style="mix-blend-mode:multiply" d="M97.9425 221.142C97.9425 221.142 97.664 202.264 100.521 202.589C103.379 202.913 108.306 205.908 109.384 209.339C110.461 212.77 110.146 232.645 110.146 232.645L111.224 233.568C111.224 233.568 109.892 209.426 112.12 210.611C113.766 211.44 115.194 212.667 116.279 214.188C117.365 215.709 118.078 217.479 118.355 219.345C119.384 224.735 119.699 240.418 119.699 240.418L125.353 243.912V202.738L95.1094 189.812V218.247L97.9425 221.142Z" fill="url(#paint18_linear_6924_91696)"/>
<path style="mix-blend-mode:multiply" d="M163.056 221.141C163.056 221.141 163.286 199.02 160.428 199.344C157.571 199.669 157.45 210.873 157.45 214.317C157.45 217.76 156.99 227.08 156.99 227.08L155.367 228.59C155.367 228.59 155.61 203.424 153.382 204.61C151.154 205.795 141.372 213.58 140.342 218.97C139.313 224.36 139.701 241.429 139.701 241.429L135.633 243.924V202.751L165.901 189.737V218.172L163.056 221.141Z" fill="url(#paint19_linear_6924_91696)"/>
<path d="M86.9142 182.589C86.8053 183.001 70.3516 177.099 70.3516 177.099C66.1689 170.633 62.697 163.707 60 156.45H88.1007L86.9142 182.589Z" fill="url(#paint20_linear_6924_91696)"/>
<path d="M65.3633 156.45C65.3633 156.45 71.9254 170.412 73.124 171.921L87.3257 172.321V171.322C87.3257 171.322 74.3226 171.435 73.584 170.861C72.8455 170.287 66.1866 156.45 66.1866 156.45H65.3633Z" fill="#B33114"/>
<path d="M65.3633 156.45L73.124 171.921C71.4386 169.447 69.9099 166.863 68.5475 164.186C66.8161 160.568 65.3633 156.45 65.3633 156.45Z" fill="white"/>
<g style="mix-blend-mode:soft-light" opacity="0.4">
<path d="M67.3723 157.399C68.4619 160.742 72.7721 168.316 73.6801 168.316C74.5882 168.316 85.0003 168.129 85.9568 166.581C86.9133 165.034 87.7486 157.548 86.9133 157.399C86.0779 157.249 66.888 155.914 67.3723 157.399Z" fill="#FFDF66"/>
</g>
<g style="mix-blend-mode:soft-light" opacity="0.4">
<path d="M60.9204 157.035C62.2643 160.304 65.9812 168.626 66.6834 168.726C67.3857 168.826 69.686 169.125 69.686 168.127C69.7466 166.53 65.388 157.248 64.4194 157.035C63.4508 156.823 60.5935 156.224 60.9204 157.035Z" fill="#FFDF66"/>
</g>
<path style="mix-blend-mode:multiply" opacity="0.37" d="M67.3622 169.813C67.2412 170.849 70.9944 176.176 71.5997 176.6C72.2051 177.025 84.845 181.229 85.6683 180.63C86.4916 180.032 86.9395 169.052 86.2494 168.728C85.5593 168.403 67.4954 168.678 67.3622 169.813Z" fill="url(#paint21_linear_6924_91696)"/>
<g style="mix-blend-mode:multiply" opacity="0.5">
<path d="M78.6562 156.45C80.014 164.431 80.6101 172.53 80.436 180.63L86.9133 182.589L88.124 156.388L78.6562 156.45Z" fill="#DE5634"/>
</g>
<path d="M174.085 182.589C174.194 183.001 190.648 177.099 190.648 177.099C194.83 170.633 198.302 163.707 200.999 156.45H172.898L174.085 182.589Z" fill="url(#paint22_linear_6924_91696)"/>
<path d="M195.599 156.45C195.599 156.45 189.037 170.412 187.839 171.921L173.625 172.321V171.322C173.625 171.322 186.628 171.435 187.367 170.861C188.105 170.287 194.764 156.45 194.764 156.45H195.599Z" fill="#B33114"/>
<path d="M195.601 156.45L187.84 171.921C189.52 169.444 191.049 166.86 192.416 164.186C194.184 160.568 195.601 156.45 195.601 156.45Z" fill="white"/>
<g style="mix-blend-mode:soft-light" opacity="0.4">
<path d="M193.626 157.399C192.536 160.742 188.214 168.316 187.318 168.316C186.422 168.316 175.998 168.129 175.017 166.581C174.036 165.034 173.237 157.548 174.073 157.399C174.908 157.249 194.11 155.914 193.626 157.399Z" fill="#FFDF66"/>
</g>
<g style="mix-blend-mode:soft-light" opacity="0.4">
<path d="M200.068 157.035C198.736 160.304 195.007 168.626 194.317 168.726C193.627 168.826 191.302 169.125 191.266 168.127C191.266 166.53 195.564 157.248 196.532 157.035C197.501 156.823 200.443 156.224 200.068 157.035Z" fill="#FFDF66"/>
</g>
<path style="mix-blend-mode:multiply" opacity="0.37" d="M193.641 169.813C193.762 170.849 190.009 176.176 189.403 176.6C188.798 177.025 176.158 181.229 175.323 180.63C174.487 180.032 174.112 169.052 174.754 168.728C175.395 168.403 193.495 168.678 193.641 169.813Z" fill="url(#paint23_linear_6924_91696)"/>
<g style="mix-blend-mode:multiply" opacity="0.5">
<path d="M182.343 156.45C180.985 164.431 180.389 172.53 180.563 180.63L174.086 182.589L172.875 156.388L182.343 156.45Z" fill="#DE5634"/>
</g>
<path d="M130.683 96L84.6875 123.362V188.665L130.683 216.026L176.678 188.665V123.362L130.683 96Z" fill="url(#paint24_linear_6924_91696)"/>
<path d="M93.0039 183.713V128.316L130.681 105.896L168.359 128.316V183.713L130.681 206.134L93.0039 183.713Z" fill="url(#paint25_linear_6924_91696)"/>
<path d="M95.7773 182.064V129.962L130.682 109.2L165.587 129.962V182.064L130.682 202.826L95.7773 182.064Z" fill="url(#paint26_linear_6924_91696)"/>
<g style="mix-blend-mode:soft-light" opacity="0.4">
<path d="M85.825 123.535C85.2681 125.294 90.1473 127.452 93.5978 126.679C97.0484 125.905 129.411 106.342 130.222 104.582C130.459 102.143 130.459 99.6855 130.222 97.2461C129.011 97.2461 86.1035 122.686 85.825 123.535Z" fill="#FFDF66"/>
</g>
<g style="mix-blend-mode:soft-light" opacity="0.4">
<path d="M175.31 123.535C175.879 125.294 170.988 127.452 167.537 126.679C164.087 125.905 132.039 106.154 130.937 104.582C130.38 103.771 130.199 97.2461 130.937 97.2461C132.088 97.2461 175.02 122.686 175.31 123.535Z" fill="#FFDF66"/>
</g>
<path style="mix-blend-mode:multiply" opacity="0.37" d="M85.7898 160.679C85.475 162.625 84.7244 187.342 85.7898 187.529C86.8552 187.716 91.8434 184.198 92.1218 182.538C92.4003 180.879 92.4851 163.973 92.1218 162.351C91.7586 160.729 86.2983 157.423 85.7898 160.679Z" fill="url(#paint27_linear_6924_91696)"/>
<path style="mix-blend-mode:multiply" opacity="0.37" d="M175.394 160.679C175.697 162.625 176.459 187.342 175.394 187.529C174.329 187.716 169.34 184.198 169.062 182.538C168.784 180.879 168.699 163.973 169.062 162.351C169.425 160.729 174.873 157.423 175.394 160.679Z" fill="url(#paint28_linear_6924_91696)"/>
<path style="mix-blend-mode:multiply" opacity="0.37" d="M86.9384 188.203C87.4953 189.051 128.926 214.291 129.544 214.291C129.858 214.291 130.27 208.053 130.27 207.317C130.27 205.371 93.6458 185.32 93.0041 185.133C92.0476 184.859 86.3694 187.354 86.9384 188.203Z" fill="url(#paint29_linear_6924_91696)"/>
<path style="mix-blend-mode:multiply" opacity="0.37" d="M174.496 188.866C173.939 189.714 131.734 214.867 131.104 214.867C130.949 212.168 130.998 209.461 131.249 206.77C132.581 205.397 167.571 185.322 168.164 185.135C169.108 184.861 175.017 188.017 174.496 188.866Z" fill="url(#paint30_linear_6924_91696)"/>
<g style="mix-blend-mode:multiply" opacity="0.37">
<path d="M97.3766 180.68C94.9552 166.244 96.2748 165.333 113.661 159.232C131.047 153.131 160.491 137.41 163.01 144.235C165.528 151.06 164.705 180.106 164.111 181.665C163.518 183.225 133.19 201.216 130.683 201.254C128.177 201.291 97.6551 182.302 97.3766 180.68Z" fill="#ED8A1D"/>
</g>
<g style="mix-blend-mode:soft-light" opacity="0.4">
<path d="M164.837 130.323C164.219 130.173 132.68 111.383 130.937 111.52C129.193 111.658 107.267 122.25 98.2473 130.235C95.8259 132.381 96.7218 164.247 98.9495 163.661C101.177 163.074 102.775 150.211 127.196 142.974C151.228 135.837 161.701 142.013 164.292 143.099C165.03 143.423 166.229 130.622 164.837 130.323Z" fill="#FFDF66"/>
</g>
<g style="mix-blend-mode:multiply" opacity="0.5">
<path d="M93.0039 183.71V128.314L130.681 105.855L168.359 128.314V183.71L165.586 182.063C165.586 182.063 165.756 133.903 164.751 132.394C161.119 127.004 133.272 113.903 128.72 115.363C124.168 116.823 99.2512 127.727 96.4787 132.306C95.5464 133.841 95.7764 182.063 95.7764 182.063L93.0039 183.71Z" fill="#DE5634"/>
</g>
<g style="mix-blend-mode:soft-light" opacity="0.4">
<path d="M137.715 135.876C147.11 140.293 161.251 140.368 162.547 139.52C163.842 138.671 164.69 132.47 162.668 131.435C160.646 130.399 144.507 121.541 140.269 122.489C136.032 123.437 136.056 135.103 137.715 135.876Z" fill="#FFDF66"/>
</g>
<path opacity="0.8" d="M84.6879 143.262C84.6879 143.112 85.0753 124.846 85.826 123.536C86.5766 122.226 129.69 97.597 130.937 97.2477C132.184 96.8983 148.384 106.505 148.384 106.505L130.683 96L84.6758 123.362L84.6879 143.262Z" fill="#700000"/>
<path d="M147.172 115.651C147.172 115.651 167.367 127.504 167.645 128.839C167.924 130.174 168.384 165.97 168.384 165.97C168.384 165.97 168.577 129.788 168.384 128.278C168.19 126.768 147.172 115.651 147.172 115.651Z" fill="white"/>
<path d="M93.0042 158.672C93.0042 158.672 92.3262 128.728 92.6652 127.755C93.0042 126.782 130.682 105.896 130.682 105.896C130.682 105.896 94.3602 127.331 93.5612 128.691C92.7621 130.051 93.0042 158.672 93.0042 158.672Z" fill="white"/>
<path opacity="0.8" d="M84.6875 188.665L130.695 216.027L176.702 188.665V173.793C176.702 173.793 176.314 186.769 175.37 188.391C174.426 190.013 133.237 214.704 131.131 214.866C129.024 215.029 86.891 189.264 85.7893 187.53C84.6875 185.796 84.6875 155.39 84.6875 155.39V188.665Z" fill="#700000"/>
<path d="M93.0044 169.537C93.0044 169.537 92.8713 182.313 93.5614 183.374C94.2515 184.434 112.122 195.089 112.122 195.089C112.122 195.089 92.7502 184.771 92.5686 184.097C92.387 183.424 93.0044 169.537 93.0044 169.537Z" fill="white"/>
<g style="mix-blend-mode:soft-light" opacity="0.4">
<path d="M108.563 195.341C107.207 195.341 103.405 196.925 104.229 197.836C105.052 198.747 127.692 212.808 130.271 213.806C131.119 214.131 131.034 208.579 129.908 206.782C129.424 206.021 112.764 195.328 108.563 195.341Z" fill="#FFDF66"/>
</g>
<path d="M151.241 109.412C150.478 109.624 153.045 112.956 154.267 113.255C155.49 113.555 157.149 112.656 156.58 112.007C156.011 111.359 152.439 109.05 151.241 109.412Z" fill="white"/>
<path d="M156.93 112.683C155.719 112.994 157.911 118.247 158.831 119.183C159.751 120.119 167.899 121.753 167.706 120.243C167.512 118.734 158.565 112.221 156.93 112.683Z" fill="white"/>
<g style="mix-blend-mode:multiply" opacity="0.5">
<path d="M151.893 195.503C150.9 199.957 151.058 202.589 151.615 202.614C152.172 202.639 172.282 190.138 172.826 189.613C173.371 189.089 169.606 185.521 168.056 185.708C166.506 185.895 152.256 193.806 151.893 195.503Z" fill="#DE5634"/>
</g>
<g style="mix-blend-mode:multiply" opacity="0.5">
<path d="M95.4359 129.589C94.9516 128.092 93.4624 128.092 93.3293 129.776C93.1961 131.46 92.9661 162.49 93.5593 162.527C94.1526 162.565 95.3996 161.055 95.4359 160.344C95.4722 159.633 95.666 130.3 95.4359 129.589Z" fill="#DE5634"/>
</g>
<g style="mix-blend-mode:multiply" opacity="0.5">
<path d="M165.913 129.776C165.841 130.375 165.55 159.72 165.913 159.72C166.276 159.72 167.947 158.348 167.947 157.624C167.947 156.901 167.536 129.215 167.342 129.065C167.148 128.915 165.974 129.302 165.913 129.776Z" fill="#DE5634"/>
</g>
<g style="mix-blend-mode:multiply" opacity="0.5">
<path d="M130.68 108.713C130.68 109.287 114.469 118.819 114.093 118.819C113.718 118.819 113.839 116.249 114.36 115.9C114.88 115.55 130.559 105.818 130.68 106.143C130.735 106.999 130.735 107.857 130.68 108.713Z" fill="#DE5634"/>
</g>
<path d="M164.12 185.934C163.079 185.934 159.592 187.992 159.858 189.015C160.125 190.038 162.28 191.149 162.824 190.55C163.369 189.951 164.81 185.959 164.12 185.934Z" fill="#B33114"/>
<path d="M165.465 186.657C165.114 186.994 164.339 188.191 165.078 188.778C165.816 189.364 167.984 187.817 167.657 187.368C167.33 186.919 165.925 186.22 165.465 186.657Z" fill="#B33114"/>
<g style="mix-blend-mode:multiply" opacity="0.5">
<path d="M160.38 188.017C159.521 189.265 163.056 190.013 163.516 189.003C163.976 187.992 164.727 185.859 164.133 185.958C162.77 186.402 161.498 187.099 160.38 188.017Z" fill="#DE5634"/>
</g>
<path d="M159.883 188.715C160.121 189.413 160.593 190.002 161.214 190.374C162.038 190.873 162.752 190.761 162.958 190.374C162.754 190.624 162.474 190.794 162.164 190.858C161.854 190.921 161.532 190.874 161.251 190.724C159.568 189.938 159.883 188.715 159.883 188.715Z" fill="#DAE1EF"/>
<g style="mix-blend-mode:multiply" opacity="0.5">
<path d="M165.854 186.681C165.067 187.58 165.685 188.852 166.133 188.777C166.581 188.702 167.912 187.804 167.658 187.367C167.404 186.931 166.036 186.494 165.854 186.681Z" fill="#DE5634"/>
</g>
<path d="M165.465 186.656C165.465 186.656 164.726 187.692 165.029 188.291C165.331 188.89 165.731 188.89 165.731 188.89C165.731 188.89 164.787 189.464 164.617 188.79C164.314 187.642 165.465 186.656 165.465 186.656Z" fill="#DAE1EF"/>
<path d="M125.947 108.39C123.526 107.716 121.467 109.375 120.378 110.648C119.288 111.921 119.893 112.669 121.262 112.42C122.63 112.17 126.988 108.677 125.947 108.39Z" fill="#B33114"/>
<g style="mix-blend-mode:multiply" opacity="0.5">
<path d="M125.947 108.39C125.164 108.229 124.357 108.251 123.584 108.453C122.81 108.656 122.091 109.035 121.479 109.562C120.813 110.161 122.121 111.896 123.029 111.521C123.937 111.147 126.709 108.664 125.947 108.39Z" fill="#DE5634"/>
</g>
<path d="M120.995 109.987C120.995 109.987 118.198 111.909 118.513 112.807C118.828 113.705 122.145 112.046 122.145 112.046C122.145 112.046 120.402 112.62 120.014 111.834C119.627 111.048 120.995 109.987 120.995 109.987Z" fill="white"/>
<g style="mix-blend-mode:soft-light" opacity="0.4">
<path d="M94.6014 184.099C93.2817 184.436 97.1923 187.193 98.1124 187.343C99.0326 187.493 98.1124 185.06 97.6766 184.636C96.7146 184.183 95.6543 183.998 94.6014 184.099Z" fill="#FFDF66"/>
</g>
<path d="M130.647 186.769L83.1625 158.223C82.0398 160.889 81.278 163.702 80.8984 166.582L83.9979 171.972L130.647 199.895L177.296 171.972L180.105 166.582C180.011 163.715 179.433 160.886 178.397 158.223L130.647 186.769Z" fill="url(#paint31_linear_6924_91696)"/>
<path d="M83.9979 171.971L80.8984 166.581L130.647 196.613L180.105 166.581L177.296 171.971L130.647 199.894L83.9979 171.971Z" fill="url(#paint32_linear_6924_91696)"/>
<g style="mix-blend-mode:multiply" opacity="0.5">
<path d="M80.8984 166.581L83.9979 171.971L84.7001 172.42V174.03C84.7001 174.03 87.3637 175.427 92.5818 178.409C92.7635 178.509 95.875 181.89 95.875 181.89C95.875 181.89 129.472 202.826 130.695 202.826C132.257 202.826 165.6 181.428 165.6 181.428C165.6 181.428 168.191 179.183 168.457 179.02L176.69 174.579V172.345L177.308 171.971L180.117 166.581L130.647 196.613L80.8984 166.581Z" fill="#DE5634"/>
</g>
<path style="mix-blend-mode:multiply" opacity="0.69" d="M130.645 186.769V196.626L180.102 166.582C179.972 163.719 179.396 160.897 178.395 158.223L130.645 186.769Z" fill="url(#paint33_linear_6924_91696)"/>
<g style="mix-blend-mode:soft-light" opacity="0.4">
<path d="M85.6063 160.381C84.6983 160.381 85.4368 168.678 88.1973 170.574C92.5801 173.606 119.01 189.651 120.741 189.676C121.952 189.676 121.867 182.652 121.516 182.103C120.838 181.067 86.9623 160.381 85.6063 160.381Z" fill="#FFDF66"/>
</g>
<g style="mix-blend-mode:soft-light" opacity="0.4">
<path d="M145.332 178.247C144.751 178.858 144.836 186.593 145.816 186.369C153.799 182.378 161.487 177.791 168.82 172.644C175.866 167.304 176.859 160.28 175.273 160.442C175.224 160.392 146.506 176.986 145.332 178.247Z" fill="#FFDF66"/>
</g>
<path d="M106.457 182.003C106.457 182.003 129.182 196.064 130.671 196.064C132.161 196.064 150.273 184.71 150.273 184.71C150.273 184.71 131.228 197.187 130.708 197.187C130.187 197.187 106.457 182.003 106.457 182.003Z" fill="white"/>
<path d="M130.647 170.773L83.1625 142.239C82.0409 144.902 81.2791 147.71 80.8984 150.586L83.9979 155.976L130.647 183.911L177.296 155.988L180.105 150.586C180.011 147.718 179.433 144.89 178.397 142.227L130.647 170.773Z" fill="url(#paint34_linear_6924_91696)"/>
<path d="M83.9979 155.989L80.8984 150.599L130.647 180.63L180.105 150.599L177.296 155.989L130.647 183.912L83.9979 155.989Z" fill="url(#paint35_linear_6924_91696)"/>
<g style="mix-blend-mode:multiply" opacity="0.5">
<path d="M80.8984 150.586L83.9979 155.976L84.7001 156.425V158.072C84.7001 158.072 87.3637 159.469 92.5818 162.451C92.7635 162.551 95.875 165.932 95.875 165.932C95.875 165.932 129.46 186.843 130.683 186.843C132.245 186.843 165.588 165.446 165.588 165.446C165.588 165.446 168.179 163.2 168.445 163.038L176.678 158.596V156.363L177.296 155.988L180.105 150.586L130.647 180.63L80.8984 150.586Z" fill="#DE5634"/>
</g>
<path style="mix-blend-mode:multiply" opacity="0.69" d="M130.645 170.773V180.63L180.102 150.586C179.972 147.723 179.396 144.901 178.395 142.227L130.645 170.773Z" fill="url(#paint36_linear_6924_91696)"/>
<g style="mix-blend-mode:soft-light" opacity="0.4">
<path d="M85.6063 144.41C84.6983 144.41 85.4368 152.695 88.1973 154.591C92.5801 157.623 119.01 173.668 120.741 173.693C121.952 173.693 121.867 166.669 121.516 166.12C120.838 165.084 86.9623 144.41 85.6063 144.41Z" fill="#FFDF66"/>
</g>
<g style="mix-blend-mode:soft-light" opacity="0.4">
<path d="M145.332 162.264C144.751 162.875 144.836 170.624 145.816 170.386C153.799 166.396 161.487 161.809 168.82 156.662C175.866 151.334 176.859 144.298 175.273 144.46C175.224 144.41 146.506 161.004 145.332 162.264Z" fill="#FFDF66"/>
</g>
<path d="M106.457 166.032C106.457 166.032 129.182 180.081 130.671 180.081C132.161 180.081 150.273 168.727 150.273 168.727C150.273 168.727 131.228 181.204 130.708 181.204C130.187 181.204 106.457 166.032 106.457 166.032Z" fill="white"/>
<g style="mix-blend-mode:multiply" opacity="0.5">
<path d="M130.756 156.163L120.562 161.678L122.511 149.974L114.254 141.69L125.659 139.981L130.756 129.338L135.853 139.981L147.258 141.69L139.013 149.974L140.962 161.678L130.756 156.163Z" fill="#DE5634"/>
</g>
<path d="M146.068 142.088L140.559 141.265L139.058 141.04L135.487 140.504L130.753 130.622L126.019 140.504L115.449 142.088L123.101 149.774L121.297 160.641L130.753 155.513L140.22 160.641L138.417 149.774L146.068 142.088Z" fill="url(#paint37_linear_6924_91696)"/>
<path style="mix-blend-mode:multiply" opacity="0.37" d="M115.391 142.089L130.973 146.294L123.054 149.775L115.391 142.089Z" fill="url(#paint38_linear_6924_91696)"/>
<path style="mix-blend-mode:multiply" opacity="0.37" d="M146.01 142.089L130.973 146.294L138.358 149.775L146.01 142.089Z" fill="url(#paint39_linear_6924_91696)"/>
<path style="mix-blend-mode:multiply" opacity="0.37" d="M130.706 155.514L130.972 146.294L121.238 160.642L130.706 155.514Z" fill="url(#paint40_linear_6924_91696)"/>
<path style="mix-blend-mode:multiply" opacity="0.37" d="M140.163 160.642L130.973 146.294L130.707 155.514L140.163 160.642Z" fill="url(#paint41_linear_6924_91696)"/>
<path style="mix-blend-mode:color-dodge" opacity="0.5" d="M130.707 130.622L130.973 146.293L135.429 140.504L130.707 130.622Z" fill="url(#paint42_linear_6924_91696)"/>
<path style="mix-blend-mode:color-dodge" opacity="0.5" d="M146.01 142.089L130.973 146.294L135.428 140.505L146.01 142.089Z" fill="url(#paint43_linear_6924_91696)"/>
<path style="mix-blend-mode:color-dodge" opacity="0.5" d="M146.01 142.089L130.973 146.294L135.428 140.505L146.01 142.089Z" fill="url(#paint44_linear_6924_91696)"/>
<path style="mix-blend-mode:color-dodge" opacity="0.5" d="M125.972 140.505L130.973 146.294L115.391 142.089L125.972 140.505Z" fill="url(#paint45_linear_6924_91696)"/>
<path d="M135.439 143.948C134.652 144.622 135.318 145.071 135.318 145.071L139.374 143.948C138.804 143.516 138.114 143.282 137.406 143.282C136.698 143.282 136.009 143.516 135.439 143.948Z" fill="white"/>
<g style="mix-blend-mode:multiply" opacity="0.5">
<path d="M121.297 160.643C121.297 160.643 128.464 157.149 130.753 156.189L140.22 160.643L130.753 155.577L121.297 160.643Z" fill="#DE5634"/>
</g>
<g style="mix-blend-mode:multiply" opacity="0.5">
<path d="M115.391 142.089L130.973 146.294L122.425 153.879L115.391 142.089Z" fill="#DE5634"/>
</g>
<g style="mix-blend-mode:multiply" opacity="0.5">
<path d="M146.01 142.089L130.973 146.294L139.266 154.89L146.01 142.089Z" fill="#DE5634"/>
</g>
<g style="mix-blend-mode:multiply" opacity="0.5">
<path d="M121.297 160.642L130.97 146.294L140.22 160.642L130.753 159.095L121.297 160.642Z" fill="#DE5634"/>
</g>
<g style="mix-blend-mode:soft-light" opacity="0.4">
<path d="M127.229 138.795C126.225 141.677 130.063 143.686 130.571 142.8C131.08 141.914 130.765 136.973 130.123 136.312C129.481 135.651 127.641 137.622 127.229 138.795Z" fill="#F7FFFF"/>
</g>
<g style="mix-blend-mode:soft-light" opacity="0.4">
<path d="M124.097 153.53C126.143 153.817 127.281 151.422 127.729 149.787C128.395 147.13 120.392 153.081 124.097 153.53Z" fill="#F7FFFF"/>
</g>
<g style="mix-blend-mode:multiply" opacity="0.5">
<path d="M108.743 136.835L103.997 139.405L104.893 133.953L101.055 130.098L106.37 129.312L108.743 124.358L111.116 129.312L116.419 130.098L112.581 133.953L113.477 139.405L108.743 136.835Z" fill="#DE5634"/>
</g>
<path d="M115.813 130.298L113.271 129.923L112.581 129.811L110.922 129.574L108.743 124.995L106.551 129.574L101.66 130.298L105.195 133.854L104.36 138.882L108.743 136.511L113.114 138.882L112.278 133.854L115.813 130.298Z" fill="url(#paint46_linear_6924_91696)"/>
<path style="mix-blend-mode:multiply" opacity="0.37" d="M101.625 130.298L108.841 132.244L105.172 133.854L101.625 130.298Z" fill="url(#paint47_linear_6924_91696)"/>
<path style="mix-blend-mode:multiply" opacity="0.37" d="M115.789 130.298L108.84 132.244L112.254 133.854L115.789 130.298Z" fill="url(#paint48_linear_6924_91696)"/>
<path style="mix-blend-mode:multiply" opacity="0.37" d="M108.707 136.512L108.84 132.245L104.336 138.883L108.707 136.512Z" fill="url(#paint49_linear_6924_91696)"/>
<path style="mix-blend-mode:multiply" opacity="0.37" d="M113.09 138.883L108.84 132.245L108.707 136.512L113.09 138.883Z" fill="url(#paint50_linear_6924_91696)"/>
<path style="mix-blend-mode:color-dodge" opacity="0.5" d="M108.707 124.995L108.84 132.244L110.898 129.574L108.707 124.995Z" fill="url(#paint51_linear_6924_91696)"/>
<path style="mix-blend-mode:color-dodge" opacity="0.5" d="M115.789 130.299L108.84 132.245L110.898 129.575L115.789 130.299Z" fill="url(#paint52_linear_6924_91696)"/>
<path style="mix-blend-mode:color-dodge" opacity="0.5" d="M115.789 130.299L108.84 132.245L110.898 129.575L115.789 130.299Z" fill="url(#paint53_linear_6924_91696)"/>
<path style="mix-blend-mode:color-dodge" opacity="0.5" d="M106.528 129.575L108.841 132.245L101.625 130.299L106.528 129.575Z" fill="url(#paint54_linear_6924_91696)"/>
<path d="M110.849 131.158C110.486 131.47 110.849 131.682 110.849 131.682L112.726 131.158C112.457 130.945 112.127 130.829 111.787 130.829C111.448 130.829 111.118 130.945 110.849 131.158Z" fill="white"/>
<g style="mix-blend-mode:multiply" opacity="0.5">
<path d="M104.359 138.883C104.359 138.883 107.677 137.274 108.742 136.825L113.113 138.883L108.742 136.513L104.359 138.883Z" fill="#DE5634"/>
</g>
<g style="mix-blend-mode:multiply" opacity="0.5">
<path d="M101.625 130.298L108.841 132.244L104.882 135.75L101.625 130.298Z" fill="#DE5634"/>
</g>
<g style="mix-blend-mode:multiply" opacity="0.5">
<path d="M115.789 130.298L108.84 132.244L112.678 136.224L115.789 130.298Z" fill="#DE5634"/>
</g>
<g style="mix-blend-mode:multiply" opacity="0.5">
<path d="M104.359 138.883L108.839 132.245L113.113 138.883L108.742 138.172L104.359 138.883Z" fill="#DE5634"/>
</g>
<g style="mix-blend-mode:soft-light" opacity="0.4">
<path d="M107.11 128.776C106.638 130.111 108.43 131.034 108.66 130.623C108.851 129.622 108.771 128.586 108.43 127.628C108.139 127.316 107.304 128.24 107.11 128.776Z" fill="#F7FFFF"/>
</g>
<g style="mix-blend-mode:soft-light" opacity="0.4">
<path d="M105.656 135.613C106.6 135.75 107.133 134.64 107.327 133.879C107.641 132.631 103.949 135.351 105.656 135.613Z" fill="#F7FFFF"/>
</g>
<g style="mix-blend-mode:multiply" opacity="0.5">
<path d="M152.91 136.835L148.164 139.405L149.072 133.953L145.234 130.098L150.537 129.312L152.91 124.358L155.283 129.312L160.586 130.098L156.748 133.953L157.656 139.405L152.91 136.835Z" fill="#DE5634"/>
</g>
<path d="M159.994 130.298L157.451 129.923L156.749 129.811L155.102 129.574L152.911 124.995L150.719 129.574L145.828 130.298L149.376 133.854L148.54 138.882L152.911 136.511L157.294 138.882L156.458 133.854L159.994 130.298Z" fill="url(#paint55_linear_6924_91696)"/>
<path style="mix-blend-mode:multiply" opacity="0.37" d="M145.805 130.298L153.021 132.244L149.352 133.854L145.805 130.298Z" fill="url(#paint56_linear_6924_91696)"/>
<path style="mix-blend-mode:multiply" opacity="0.37" d="M159.969 130.298L153.02 132.244L156.422 133.854L159.969 130.298Z" fill="url(#paint57_linear_6924_91696)"/>
<path style="mix-blend-mode:multiply" opacity="0.37" d="M152.886 136.512L153.019 132.245L148.516 138.883L152.886 136.512Z" fill="url(#paint58_linear_6924_91696)"/>
<path style="mix-blend-mode:multiply" opacity="0.37" d="M157.257 138.883L153.02 132.245L152.887 136.512L157.257 138.883Z" fill="url(#paint59_linear_6924_91696)"/>
<path style="mix-blend-mode:color-dodge" opacity="0.5" d="M152.887 124.995L153.02 132.244L155.078 129.574L152.887 124.995Z" fill="url(#paint60_linear_6924_91696)"/>
<path style="mix-blend-mode:color-dodge" opacity="0.5" d="M159.969 130.299L153.02 132.245L155.078 129.575L159.969 130.299Z" fill="url(#paint61_linear_6924_91696)"/>
<path style="mix-blend-mode:color-dodge" opacity="0.5" d="M159.969 130.299L153.02 132.245L155.078 129.575L159.969 130.299Z" fill="url(#paint62_linear_6924_91696)"/>
<path style="mix-blend-mode:color-dodge" opacity="0.5" d="M150.696 129.575L153.021 132.245L145.805 130.299L150.696 129.575Z" fill="url(#paint63_linear_6924_91696)"/>
<path d="M155.079 131.158C154.716 131.47 155.079 131.682 155.079 131.682L156.859 131.158C156.6 130.967 156.289 130.863 155.969 130.863C155.65 130.863 155.339 130.967 155.079 131.158Z" fill="white"/>
<g style="mix-blend-mode:multiply" opacity="0.5">
<path d="M148.539 138.883C148.539 138.883 151.856 137.274 152.91 136.825L157.293 138.883L152.91 136.513L148.539 138.883Z" fill="#DE5634"/>
</g>
<g style="mix-blend-mode:multiply" opacity="0.5">
<path d="M145.805 130.298L153.021 132.244L149.062 135.75L145.805 130.298Z" fill="#DE5634"/>
</g>
<g style="mix-blend-mode:multiply" opacity="0.5">
<path d="M159.969 130.298L153.02 132.244L156.845 136.224L159.969 130.298Z" fill="#DE5634"/>
</g>
<g style="mix-blend-mode:multiply" opacity="0.5">
<path d="M148.539 138.883L153.019 132.245L157.293 138.883L152.91 138.172L148.539 138.883Z" fill="#DE5634"/>
</g>
<g style="mix-blend-mode:soft-light" opacity="0.4">
<path d="M151.274 128.777C150.802 130.112 152.594 131.036 152.824 130.624C153.025 129.621 152.954 128.581 152.618 127.617C152.315 127.318 151.468 128.241 151.274 128.777Z" fill="#F7FFFF"/>
</g>
<g style="mix-blend-mode:soft-light" opacity="0.4">
<path d="M149.836 135.613C150.781 135.75 151.301 134.64 151.507 133.879C151.822 132.631 148.117 135.351 149.836 135.613Z" fill="#F7FFFF"/>
</g>
<path d="M102 2L112.087 17.7023C113.006 19.1343 114.591 20 116.293 20H145.707C147.409 20 148.994 19.1343 149.913 17.7023L160 2H102Z" fill="url(#paint64_linear_6924_91696)"/>
<path d="M122.558 16L118.33 6.2H120.78L124.476 14.88H123.034L126.786 6.2H129.04L124.798 16H122.558ZM129.858 16V6.2H132.126V16H129.858ZM134.452 16V6.2H138.694C139.571 6.2 140.327 6.34467 140.962 6.634C141.597 6.914 142.087 7.32 142.432 7.852C142.777 8.384 142.95 9.01867 142.95 9.756C142.95 10.484 142.777 11.114 142.432 11.646C142.087 12.178 141.597 12.5887 140.962 12.878C140.327 13.158 139.571 13.298 138.694 13.298H135.712L136.72 12.276V16H134.452ZM136.72 12.528L135.712 11.45H138.568C139.268 11.45 139.791 11.3007 140.136 11.002C140.481 10.7033 140.654 10.288 140.654 9.756C140.654 9.21467 140.481 8.79467 140.136 8.496C139.791 8.19733 139.268 8.048 138.568 8.048H135.712L136.72 6.97V12.528Z" fill="white"/>
<path d="M37.3982 20.544H39.4142L41.9522 31.128L44.4542 20.544H46.4702L43.2302 33H40.6742L37.3982 20.544ZM47.8753 33V20.544H49.8193V33H47.8753Z" fill="white"/>
<g style="mix-blend-mode:overlay">
<g style="mix-blend-mode:color-dodge">
<path fill-rule="evenodd" clip-rule="evenodd" d="M19 12C19 6.47715 23.4771 2 29 2H231C236.523 2 241 6.47715 241 12V120.562C241 123.615 239.506 126.474 237 128.217V128.217C234.494 129.961 233 132.82 233 135.873V159V162V185.127C233 188.18 234.494 191.039 237 192.783V192.783C239.506 194.526 241 197.385 241 200.438V304C241 309.523 236.523 314 231 314H29C23.4772 314 19 309.523 19 304V202.182C19 198.908 20.6021 195.842 23.2894 193.973L24.7106 192.984C27.3979 191.115 29 188.048 29 184.775L29 162V159L29 136.225C29 132.952 27.3979 129.885 24.7107 128.016L23.2894 127.027C20.6021 125.158 19 122.092 19 118.818V12Z" fill="url(#paint65_linear_6924_91696)"/>
</g>
</g>
<defs>
<filter id="filter0_b_6924_91696" x="-6" y="-19" width="89" height="354.983" filterUnits="userSpaceOnUse" colorInterpolationFilters="sRGB">
<feFlood floodOpacity="0" result="BackgroundImageFix"/>
<feGaussianBlur in="BackgroundImageFix" stdDeviation="13"/>
<feComposite in2="SourceAlpha" operator="in" result="effect1_backgroundBlur_6924_91696"/>
<feBlend mode="normal" in="SourceGraphic" in2="effect1_backgroundBlur_6924_91696" result="shape"/>
</filter>
<filter id="filter1_b_6924_91696" x="177" y="-19" width="89" height="354.983" filterUnits="userSpaceOnUse" colorInterpolationFilters="sRGB">
<feFlood floodOpacity="0" result="BackgroundImageFix"/>
<feGaussianBlur in="BackgroundImageFix" stdDeviation="13"/>
<feComposite in2="SourceAlpha" operator="in" result="effect1_backgroundBlur_6924_91696"/>
<feBlend mode="normal" in="SourceGraphic" in2="effect1_backgroundBlur_6924_91696" result="shape"/>
</filter>
<filter id="filter2_i_6924_91696" x="17" y="0" width="226" height="320" filterUnits="userSpaceOnUse" colorInterpolationFilters="sRGB">
<feFlood floodOpacity="0" result="BackgroundImageFix"/>
<feBlend mode="normal" in="SourceGraphic" in2="BackgroundImageFix" result="shape"/>
<feColorMatrix in="SourceAlpha" type="matrix" values="0 0 0 0 0 0 0 0 0 0 0 0 0 0 0 0 0 0 127 0" result="hardAlpha"/>
<feOffset dy="5"/>
<feGaussianBlur stdDeviation="2"/>
<feComposite in2="hardAlpha" operator="arithmetic" k2="-1" k3="1"/>
<feColorMatrix type="matrix" values="0 0 0 0 0 0 0 0 0 0 0 0 0 0 0 0 0 0 0.25 0"/>
<feBlend mode="normal" in2="shape" result="effect1_innerShadow_6924_91696"/>
</filter>
<filter id="filter3_f_6924_91696" x="0" y="31" width="261" height="254" filterUnits="userSpaceOnUse" colorInterpolationFilters="sRGB">
<feFlood floodOpacity="0" result="BackgroundImageFix"/>
<feBlend mode="normal" in="SourceGraphic" in2="BackgroundImageFix" result="shape"/>
<feGaussianBlur stdDeviation="37.5" result="effect1_foregroundBlur_6924_91696"/>
</filter>
<linearGradient id="paint0_linear_6924_91696" x1="13" y1="296.56" x2="134.492" y2="0.901086" gradientUnits="userSpaceOnUse">
<stop stop-color="#060913"/>
<stop offset="0.136764" stop-color="#070A16"/>
<stop offset="0.197268" stop-color="#0D142E"/>
<stop offset="0.309253" stop-color="#070B17"/>
<stop offset="0.490764" stop-color="#080C1A"/>
<stop offset="0.661458" stop-color="#0B1125"/>
<stop offset="1" stop-color="#101010"/>
</linearGradient>
<linearGradient id="paint1_linear_6924_91696" x1="43.5" y1="323.39" x2="109.599" y2="304.922" gradientUnits="userSpaceOnUse">
<stop stop-color="#EECCA2"/>
<stop offset="0.260417" stop-color="#624A2C"/>
<stop offset="0.6875" stop-color="#FFDAAB"/>
<stop offset="1" stop-color="#C68C43"/>
</linearGradient>
<linearGradient id="paint2_linear_6924_91696" x1="247" y1="20.4233" x2="125.508" y2="316.082" gradientUnits="userSpaceOnUse">
<stop stop-color="#060913"/>
<stop offset="0.136764" stop-color="#070A16"/>
<stop offset="0.197268" stop-color="#0D142E"/>
<stop offset="0.309253" stop-color="#070B17"/>
<stop offset="0.490764" stop-color="#080C1A"/>
<stop offset="0.661458" stop-color="#0B1125"/>
<stop offset="1" stop-color="#101010"/>
</linearGradient>
<linearGradient id="paint3_linear_6924_91696" x1="216.5" y1="-6.40634" x2="150.401" y2="12.0615" gradientUnits="userSpaceOnUse">
<stop stop-color="#EECCA2"/>
<stop offset="0.260417" stop-color="#624A2C"/>
<stop offset="0.6875" stop-color="#FFDAAB"/>
<stop offset="1" stop-color="#C68C43"/>
</linearGradient>
<linearGradient id="paint4_linear_6924_91696" x1="184.5" y1="-25.5" x2="1.5" y2="349.5" gradientUnits="userSpaceOnUse">
<stop stop-color="#C68C43"/>
<stop offset="0.119792" stop-color="#F5BA6E"/>
<stop offset="0.286458" stop-color="#C68C43"/>
<stop offset="0.5625" stop-color="#C68C43"/>
<stop offset="0.770833" stop-color="#EEB873"/>
<stop offset="1" stop-color="#C68C43"/>
</linearGradient>
<linearGradient id="paint5_linear_6924_91696" x1="131.064" y1="154.818" x2="131.064" y2="-46.36" gradientUnits="userSpaceOnUse">
<stop stop-color="#CA6B34"/>
<stop offset="0.67" stop-color="#FFA933"/>
<stop offset="1" stop-color="#FFBD2B"/>
</linearGradient>
<linearGradient id="paint6_linear_6924_91696" x1="80.9314" y1="47.9531" x2="80.9314" y2="91.3368" gradientUnits="userSpaceOnUse">
<stop stop-color="#C10065"/>
<stop offset="1" stop-color="white"/>
</linearGradient>
<linearGradient id="paint7_linear_6924_91696" x1="181.924" y1="47.9531" x2="181.924" y2="91.3368" gradientUnits="userSpaceOnUse">
<stop stop-color="#C10065"/>
<stop offset="1" stop-color="white"/>
</linearGradient>
<linearGradient id="paint8_linear_6924_91696" x1="100.251" y1="71.2334" x2="100.251" y2="151.652" gradientUnits="userSpaceOnUse">
<stop stop-color="#C10065"/>
<stop offset="1" stop-color="white"/>
</linearGradient>
<linearGradient id="paint9_linear_6924_91696" x1="161.393" y1="71.2334" x2="161.393" y2="151.652" gradientUnits="userSpaceOnUse">
<stop stop-color="#C10065"/>
<stop offset="1" stop-color="white"/>
</linearGradient>
<linearGradient id="paint10_linear_6924_91696" x1="139.171" y1="-4.27537" x2="150.065" y2="109.544" gradientUnits="userSpaceOnUse">
<stop stop-color="#BFD7FF"/>
<stop offset="1"/>
</linearGradient>
<linearGradient id="paint11_linear_6924_91696" x1="132.316" y1="54.8309" x2="231.532" y2="54.8309" gradientUnits="userSpaceOnUse">
<stop stop-color="#BFD7FF"/>
<stop offset="1"/>
</linearGradient>
<linearGradient id="paint12_linear_6924_91696" x1="173.696" y1="-7.45115" x2="184.673" y2="106.233" gradientUnits="userSpaceOnUse">
<stop stop-color="#BFD7FF"/>
<stop offset="1"/>
</linearGradient>
<linearGradient id="paint13_linear_6924_91696" x1="73.8992" y1="2.16332" x2="84.872" y2="115.848" gradientUnits="userSpaceOnUse">
<stop stop-color="#BFD7FF"/>
<stop offset="1"/>
</linearGradient>
<linearGradient id="paint14_linear_6924_91696" x1="104.154" y1="110.187" x2="104.154" y2="134.466" gradientUnits="userSpaceOnUse">
<stop stop-color="#C10065"/>
<stop offset="1" stop-color="white"/>
</linearGradient>
<linearGradient id="paint15_linear_6924_91696" x1="156.835" y1="110.187" x2="156.835" y2="134.466" gradientUnits="userSpaceOnUse">
<stop stop-color="#C10065"/>
<stop offset="1" stop-color="white"/>
</linearGradient>
<linearGradient id="paint16_linear_6924_91696" x1="95.1094" y1="216.887" x2="125.353" y2="216.887" gradientUnits="userSpaceOnUse">
<stop stop-color="#DE3C14"/>
<stop offset="0.07" stop-color="#C72E10"/>
<stop offset="0.19" stop-color="#AB1C0C"/>
<stop offset="0.3" stop-color="#971009"/>
<stop offset="0.41" stop-color="#8B0807"/>
<stop offset="0.52" stop-color="#870606"/>
<stop offset="0.62" stop-color="#8C0707"/>
<stop offset="0.73" stop-color="#9A0808"/>
<stop offset="0.85" stop-color="#B20B0B"/>
<stop offset="0.97" stop-color="#D30E0E"/>
<stop offset="1" stop-color="#DB0F0F"/>
</linearGradient>
<linearGradient id="paint17_linear_6924_91696" x1="135.633" y1="216.887" x2="165.889" y2="216.887" gradientUnits="userSpaceOnUse">
<stop stop-color="#DE3C14"/>
<stop offset="0.07" stop-color="#C72E10"/>
<stop offset="0.19" stop-color="#AB1C0C"/>
<stop offset="0.3" stop-color="#971009"/>
<stop offset="0.41" stop-color="#8B0807"/>
<stop offset="0.52" stop-color="#870606"/>
<stop offset="0.62" stop-color="#8C0707"/>
<stop offset="0.73" stop-color="#9A0808"/>
<stop offset="0.85" stop-color="#B20B0B"/>
<stop offset="0.97" stop-color="#D30E0E"/>
<stop offset="1" stop-color="#DB0F0F"/>
</linearGradient>
<linearGradient id="paint18_linear_6924_91696" x1="95.1094" y1="216.887" x2="125.353" y2="216.887" gradientUnits="userSpaceOnUse">
<stop stop-color="#B41E2D"/>
<stop offset="1" stop-color="#E54136"/>
</linearGradient>
<linearGradient id="paint19_linear_6924_91696" x1="135.633" y1="216.887" x2="165.889" y2="216.887" gradientUnits="userSpaceOnUse">
<stop stop-color="#B41E2D"/>
<stop offset="1" stop-color="#E54136"/>
</linearGradient>
<linearGradient id="paint20_linear_6924_91696" x1="74.0443" y1="182.539" x2="74.0443" y2="156.65" gradientUnits="userSpaceOnUse">
<stop stop-color="#CA6B34"/>
<stop offset="0.67" stop-color="#FFA933"/>
<stop offset="1" stop-color="#FFBD2B"/>
</linearGradient>
<linearGradient id="paint21_linear_6924_91696" x1="76.9753" y1="168.603" x2="76.9753" y2="180.693" gradientUnits="userSpaceOnUse">
<stop stop-color="#C10065"/>
<stop offset="1" stop-color="white"/>
</linearGradient>
<linearGradient id="paint22_linear_6924_91696" x1="186.955" y1="182.539" x2="186.955" y2="156.65" gradientUnits="userSpaceOnUse">
<stop stop-color="#CA6B34"/>
<stop offset="0.67" stop-color="#FFA933"/>
<stop offset="1" stop-color="#FFBD2B"/>
</linearGradient>
<linearGradient id="paint23_linear_6924_91696" x1="184.028" y1="168.603" x2="184.028" y2="180.693" gradientUnits="userSpaceOnUse">
<stop stop-color="#C10065"/>
<stop offset="1" stop-color="white"/>
</linearGradient>
<linearGradient id="paint24_linear_6924_91696" x1="130.683" y1="218.085" x2="130.683" y2="115.164" gradientUnits="userSpaceOnUse">
<stop stop-color="#CA6B34"/>
<stop offset="0.67" stop-color="#FFA933"/>
<stop offset="1" stop-color="#FFBD2B"/>
</linearGradient>
<linearGradient id="paint25_linear_6924_91696" x1="130.681" y1="97.062" x2="130.681" y2="200.519" gradientUnits="userSpaceOnUse">
<stop stop-color="#CA6B34"/>
<stop offset="0.17" stop-color="#CC6E34"/>
<stop offset="0.29" stop-color="#D27733"/>
<stop offset="0.39" stop-color="#DB8631"/>
<stop offset="0.48" stop-color="#E99B2F"/>
<stop offset="0.57" stop-color="#FBB72C"/>
<stop offset="0.59" stop-color="#FFBD2B"/>
<stop offset="1" stop-color="#FFA933"/>
</linearGradient>
<linearGradient id="paint26_linear_6924_91696" x1="130.682" y1="202.826" x2="130.682" y2="109.2" gradientUnits="userSpaceOnUse">
<stop stop-color="#B75014"/>
<stop offset="0.38" stop-color="#E8692A"/>
<stop offset="1" stop-color="#F58E2F"/>
</linearGradient>
<linearGradient id="paint27_linear_6924_91696" x1="88.8045" y1="159.307" x2="88.8045" y2="187.542" gradientUnits="userSpaceOnUse">
<stop stop-color="#C10065"/>
<stop offset="1" stop-color="white"/>
</linearGradient>
<linearGradient id="paint28_linear_6924_91696" x1="172.379" y1="159.307" x2="172.379" y2="187.542" gradientUnits="userSpaceOnUse">
<stop stop-color="#C10065"/>
<stop offset="1" stop-color="white"/>
</linearGradient>
<linearGradient id="paint29_linear_6924_91696" x1="108.586" y1="185.108" x2="108.586" y2="214.291" gradientUnits="userSpaceOnUse">
<stop stop-color="#C10065"/>
<stop offset="1" stop-color="white"/>
</linearGradient>
<linearGradient id="paint30_linear_6924_91696" x1="152.776" y1="185.123" x2="152.776" y2="214.867" gradientUnits="userSpaceOnUse">
<stop stop-color="#C10065"/>
<stop offset="1" stop-color="white"/>
</linearGradient>
<linearGradient id="paint31_linear_6924_91696" x1="130.501" y1="114.442" x2="130.501" y2="189.04" gradientUnits="userSpaceOnUse">
<stop stop-color="#CA6B34"/>
<stop offset="0.67" stop-color="#FFA933"/>
<stop offset="1" stop-color="#FFBD2B"/>
</linearGradient>
<linearGradient id="paint32_linear_6924_91696" x1="130.501" y1="199.894" x2="130.501" y2="166.581" gradientUnits="userSpaceOnUse">
<stop stop-color="#F1CB3C"/>
<stop offset="1" stop-color="#FFC14F"/>
</linearGradient>
<linearGradient id="paint33_linear_6924_91696" x1="155.367" y1="158.223" x2="155.367" y2="196.614" gradientUnits="userSpaceOnUse">
<stop stop-color="#C10065"/>
<stop offset="1" stop-color="white"/>
</linearGradient>
<linearGradient id="paint34_linear_6924_91696" x1="130.501" y1="102.264" x2="130.501" y2="176.862" gradientUnits="userSpaceOnUse">
<stop stop-color="#CA6B34"/>
<stop offset="0.67" stop-color="#FFA933"/>
<stop offset="1" stop-color="#FFBD2B"/>
</linearGradient>
<linearGradient id="paint35_linear_6924_91696" x1="130.501" y1="183.912" x2="130.501" y2="150.599" gradientUnits="userSpaceOnUse">
<stop stop-color="#F1CB3C"/>
<stop offset="1" stop-color="#FFC14F"/>
</linearGradient>
<linearGradient id="paint36_linear_6924_91696" x1="155.367" y1="142.239" x2="155.367" y2="180.63" gradientUnits="userSpaceOnUse">
<stop stop-color="#C10065"/>
<stop offset="1" stop-color="white"/>
</linearGradient>
<linearGradient id="paint37_linear_6924_91696" x1="130.753" y1="161.203" x2="130.753" y2="125.532" gradientUnits="userSpaceOnUse">
<stop stop-color="#CA6B34"/>
<stop offset="0.67" stop-color="#FFA933"/>
<stop offset="1" stop-color="#FFBD2B"/>
</linearGradient>
<linearGradient id="paint38_linear_6924_91696" x1="123.188" y1="142.089" x2="123.188" y2="149.775" gradientUnits="userSpaceOnUse">
<stop stop-color="#C10065"/>
<stop offset="1" stop-color="white"/>
</linearGradient>
<linearGradient id="paint39_linear_6924_91696" x1="138.491" y1="142.089" x2="138.491" y2="149.775" gradientUnits="userSpaceOnUse">
<stop stop-color="#C10065"/>
<stop offset="1" stop-color="white"/>
</linearGradient>
<linearGradient id="paint40_linear_6924_91696" x1="126.105" y1="146.294" x2="126.105" y2="160.642" gradientUnits="userSpaceOnUse">
<stop stop-color="#C10065"/>
<stop offset="1" stop-color="white"/>
</linearGradient>
<linearGradient id="paint41_linear_6924_91696" x1="135.441" y1="146.294" x2="135.441" y2="160.642" gradientUnits="userSpaceOnUse">
<stop stop-color="#C10065"/>
<stop offset="1" stop-color="white"/>
</linearGradient>
<linearGradient id="paint42_linear_6924_91696" x1="132.099" y1="132.98" x2="134.348" y2="152.978" gradientUnits="userSpaceOnUse">
<stop stop-color="#BFD7FF"/>
<stop offset="1"/>
</linearGradient>
<linearGradient id="paint43_linear_6924_91696" x1="130.973" y1="143.399" x2="146.01" y2="143.399" gradientUnits="userSpaceOnUse">
<stop stop-color="#BFD7FF"/>
<stop offset="1"/>
</linearGradient>
<linearGradient id="paint44_linear_6924_91696" x1="137.244" y1="132.407" x2="139.493" y2="152.406" gradientUnits="userSpaceOnUse">
<stop stop-color="#BFD7FF"/>
<stop offset="1"/>
</linearGradient>
<linearGradient id="paint45_linear_6924_91696" x1="122.122" y1="134.104" x2="124.371" y2="154.102" gradientUnits="userSpaceOnUse">
<stop stop-color="#BFD7FF"/>
<stop offset="1"/>
</linearGradient>
<linearGradient id="paint46_linear_6924_91696" x1="108.743" y1="139.144" x2="108.743" y2="122.649" gradientUnits="userSpaceOnUse">
<stop stop-color="#CA6B34"/>
<stop offset="0.67" stop-color="#FFA933"/>
<stop offset="1" stop-color="#FFBD2B"/>
</linearGradient>
<linearGradient id="paint47_linear_6924_91696" x1="105.233" y1="130.298" x2="105.233" y2="133.854" gradientUnits="userSpaceOnUse">
<stop stop-color="#C10065"/>
<stop offset="1" stop-color="white"/>
</linearGradient>
<linearGradient id="paint48_linear_6924_91696" x1="112.315" y1="130.298" x2="112.315" y2="133.854" gradientUnits="userSpaceOnUse">
<stop stop-color="#C10065"/>
<stop offset="1" stop-color="white"/>
</linearGradient>
<linearGradient id="paint49_linear_6924_91696" x1="106.588" y1="132.245" x2="106.588" y2="138.883" gradientUnits="userSpaceOnUse">
<stop stop-color="#C10065"/>
<stop offset="1" stop-color="white"/>
</linearGradient>
<linearGradient id="paint50_linear_6924_91696" x1="110.898" y1="132.245" x2="110.898" y2="138.883" gradientUnits="userSpaceOnUse">
<stop stop-color="#C10065"/>
<stop offset="1" stop-color="white"/>
</linearGradient>
<linearGradient id="paint51_linear_6924_91696" x1="109.361" y1="126.093" x2="110.402" y2="135.344" gradientUnits="userSpaceOnUse">
<stop stop-color="#BFD7FF"/>
<stop offset="1"/>
</linearGradient>
<linearGradient id="paint52_linear_6924_91696" x1="108.84" y1="130.91" x2="115.789" y2="130.91" gradientUnits="userSpaceOnUse">
<stop stop-color="#BFD7FF"/>
<stop offset="1"/>
</linearGradient>
<linearGradient id="paint53_linear_6924_91696" x1="111.733" y1="125.82" x2="112.774" y2="135.071" gradientUnits="userSpaceOnUse">
<stop stop-color="#BFD7FF"/>
<stop offset="1"/>
</linearGradient>
<linearGradient id="paint54_linear_6924_91696" x1="104.737" y1="126.606" x2="105.777" y2="135.857" gradientUnits="userSpaceOnUse">
<stop stop-color="#BFD7FF"/>
<stop offset="1"/>
</linearGradient>
<linearGradient id="paint55_linear_6924_91696" x1="152.911" y1="139.144" x2="152.911" y2="122.649" gradientUnits="userSpaceOnUse">
<stop stop-color="#CA6B34"/>
<stop offset="0.67" stop-color="#FFA933"/>
<stop offset="1" stop-color="#FFBD2B"/>
</linearGradient>
<linearGradient id="paint56_linear_6924_91696" x1="149.413" y1="130.298" x2="149.413" y2="133.854" gradientUnits="userSpaceOnUse">
<stop stop-color="#C10065"/>
<stop offset="1" stop-color="white"/>
</linearGradient>
<linearGradient id="paint57_linear_6924_91696" x1="156.494" y1="130.298" x2="156.494" y2="133.854" gradientUnits="userSpaceOnUse">
<stop stop-color="#C10065"/>
<stop offset="1" stop-color="white"/>
</linearGradient>
<linearGradient id="paint58_linear_6924_91696" x1="150.755" y1="132.245" x2="150.755" y2="138.883" gradientUnits="userSpaceOnUse">
<stop stop-color="#C10065"/>
<stop offset="1" stop-color="white"/>
</linearGradient>
<linearGradient id="paint59_linear_6924_91696" x1="155.078" y1="132.245" x2="155.078" y2="138.883" gradientUnits="userSpaceOnUse">
<stop stop-color="#C10065"/>
<stop offset="1" stop-color="white"/>
</linearGradient>
<linearGradient id="paint60_linear_6924_91696" x1="153.541" y1="126.093" x2="154.568" y2="135.344" gradientUnits="userSpaceOnUse">
<stop stop-color="#BFD7FF"/>
<stop offset="1"/>
</linearGradient>
<linearGradient id="paint61_linear_6924_91696" x1="153.007" y1="130.91" x2="159.969" y2="130.91" gradientUnits="userSpaceOnUse">
<stop stop-color="#BFD7FF"/>
<stop offset="1"/>
</linearGradient>
<linearGradient id="paint62_linear_6924_91696" x1="155.913" y1="125.82" x2="156.954" y2="135.071" gradientUnits="userSpaceOnUse">
<stop stop-color="#BFD7FF"/>
<stop offset="1"/>
</linearGradient>
<linearGradient id="paint63_linear_6924_91696" x1="148.916" y1="126.606" x2="149.957" y2="135.857" gradientUnits="userSpaceOnUse">
<stop stop-color="#BFD7FF"/>
<stop offset="1"/>
</linearGradient>
<linearGradient id="paint64_linear_6924_91696" x1="148.5" y1="-0.5" x2="104" y2="22.5" gradientUnits="userSpaceOnUse">
<stop stop-color="#C68C43"/>
<stop offset="0.119792" stop-color="#F5BA6E"/>
<stop offset="0.286458" stop-color="#C68C43"/>
<stop offset="0.5625" stop-color="#C68C43"/>
<stop offset="0.770833" stop-color="#EEB873"/>
<stop offset="1" stop-color="#C68C43"/>
</linearGradient>
<linearGradient id="paint65_linear_6924_91696" x1="84.5" y1="60.5" x2="32.0032" y2="111.503" gradientUnits="userSpaceOnUse">
<stop stop-color="white" stop-opacity="0"/>
<stop offset="0.440223" stop-color="white"/>
<stop offset="1" stop-color="white" stop-opacity="0"/>
</linearGradient>
</defs>
</svg>
