<svg width="117" height="136" viewBox="0 0 117 136" fill="none" xmlns="http://www.w3.org/2000/svg">
<path d="M23.5594 50.87L20.8594 42.39L23.5394 39.02L41.6594 28.09V6.94L43.9594 5.28L51.2294 0V36.08L23.5594 50.87Z" fill="url(#paint0_linear_6456_59498)"/>
<path d="M20.8594 42.3898L43.9594 29.1598V5.27979L41.6594 6.93979V28.0898L23.5394 39.0198L20.8594 42.3898Z" fill="url(#paint1_linear_6456_59498)"/>
<g style="mix-blend-mode:soft-light" opacity="0.4">
<path d="M44.4915 5.28011C44.3715 6.63011 44.5915 23.4401 45.3815 23.8301C46.1715 24.2201 50.2415 21.9201 50.5815 20.9901C50.9215 20.0601 50.7215 2.08011 50.1615 2.15011C49.6015 2.22011 44.5715 4.33011 44.4915 5.28011Z" fill="#FFDF66"/>
</g>
<path style="mix-blend-mode:multiply" opacity="0.37" d="M44.6213 29.4702C42.5613 31.1602 22.0013 42.3902 21.7513 43.1202C21.3913 44.0502 24.1113 48.4302 25.4113 48.0602C26.7113 47.6902 51.1513 33.8402 51.2013 33.1902C51.2513 32.5402 51.3113 28.9302 50.7213 28.7002C50.1313 28.4702 45.4113 28.8202 44.6213 29.4702Z" fill="url(#paint2_linear_6456_59498)"/>
<path d="M20.8594 43.1201L44.4394 29.4201L44.5694 4.87012L43.9594 5.28012V29.1601L20.8594 42.3901V43.1201Z" fill="#B33114"/>
<g style="mix-blend-mode:soft-light" opacity="0.4">
<path d="M41.8985 28.3298C40.5585 28.4198 23.7885 39.1798 23.7885 39.4898C23.7885 39.7998 20.8385 41.6198 21.5585 41.5698C22.2785 41.5198 43.4685 29.5698 43.4985 29.1598C43.5285 28.7498 42.6285 28.2798 41.8985 28.3298Z" fill="#FFDF66"/>
</g>
<g style="mix-blend-mode:soft-light" opacity="0.4">
<path d="M20.8594 43.1202C20.8594 43.1202 31.9994 37.4902 37.7294 33.8902C43.4594 30.2902 44.6194 29.4702 44.6194 29.4702L20.8594 43.1202Z" fill="#FFDF66"/>
</g>
<g style="mix-blend-mode:multiply" opacity="0.5">
<path d="M41.6609 25.3802L43.9609 23.4002H44.4609L51.2309 19.7002V36.0802L43.5009 39.9802L39.7109 29.2602L41.6609 28.0902V25.3802Z" fill="#DE5634"/>
</g>
<path d="M92.8881 50.87L95.5881 42.39L92.9181 39.02L74.7981 28.09V6.94L72.4981 5.28L65.0781 0V36L92.8881 50.87Z" fill="url(#paint3_linear_6456_59498)"/>
<path d="M95.59 42.3898L72.5 29.1598V5.27979L74.8 6.93979V28.0898L92.92 39.0198L95.59 42.3898Z" fill="url(#paint4_linear_6456_59498)"/>
<g style="mix-blend-mode:soft-light" opacity="0.4">
<path d="M71.5914 5.28011C71.7114 6.63011 72.0514 23.4401 71.2614 23.8301C70.4714 24.2201 66.1014 21.6901 65.7614 20.7601C65.4214 19.8301 65.7614 2.08011 66.2914 2.15011C66.8214 2.22011 71.5114 4.33011 71.5914 5.28011Z" fill="#FFDF66"/>
</g>
<path style="mix-blend-mode:multiply" opacity="0.37" d="M71.8304 29.4702C73.8904 31.1602 94.4304 42.3902 94.7104 43.1202C95.0704 44.0502 92.3404 48.4302 91.0404 48.0602C89.7404 47.6902 65.3104 33.8402 65.2604 33.1902C65.2104 32.5402 65.1504 28.9302 65.7404 28.7002C66.3304 28.4702 71.0504 28.8202 71.8304 29.4702Z" fill="url(#paint5_linear_6456_59498)"/>
<path d="M95.5889 43.1201L72.0089 29.4201L71.8789 4.87012L72.4989 5.28012V29.1601L95.5889 42.3901V43.1201Z" fill="#B33114"/>
<g style="mix-blend-mode:soft-light" opacity="0.4">
<path d="M74.55 28.3302C75.9 28.4202 92.66 39.1802 92.66 39.4902C92.66 39.8002 95.66 41.6202 94.9 41.5702C94.14 41.5202 73 29.5502 73 29.1602C73 28.7702 73.83 28.2802 74.55 28.3302Z" fill="#FFDF66"/>
</g>
<g style="mix-blend-mode:soft-light" opacity="0.4">
<path d="M95.5881 43.1202C95.5881 43.1202 84.4281 37.4902 78.7281 33.8902C73.0281 30.2902 71.8281 29.4702 71.8281 29.4702L95.5881 43.1202Z" fill="#FFDF66"/>
</g>
<g style="mix-blend-mode:multiply" opacity="0.5">
<path d="M74.7999 25.3799L72.3798 23.3999H71.8798L65.0898 19.6699L65.1098 36.0799L72.8398 39.9799L76.6298 29.2599L74.7999 28.0899V25.3799Z" fill="#DE5634"/>
</g>
<path d="M54 102.87V135.87C44 130.61 29 115.26 29 115.26V92.4399L54 102.87Z" fill="url(#paint6_linear_6456_59498)"/>
<g style="mix-blend-mode:multiply" opacity="0.6">
<path d="M54 129.2V135.84C44 130.58 29 115.23 29 115.23V109.54C32.47 114 39.81 121.46 54 129.2Z" fill="#8E37E2"/>
</g>
<path d="M62.4688 102.87V135.87C72.4688 130.61 87.4688 115.26 87.4688 115.26V92.4399L62.4688 102.87Z" fill="url(#paint7_linear_6456_59498)"/>
<g style="mix-blend-mode:multiply" opacity="0.6">
<path d="M62.4688 129.2V135.84C72.4688 130.58 87.4688 115.23 87.4688 115.23V109.54C83.9988 114 76.6388 121.46 62.4688 129.2Z" fill="#8E37E2"/>
</g>
<path style="mix-blend-mode:multiply" d="M31.34 117.55C31.34 117.55 31.11 102.42 33.47 102.68C35.83 102.94 39.9 105.34 40.79 108.09C41.68 110.84 41.42 126.77 41.42 126.77L42.31 127.51C42.31 127.51 41.21 108.16 43.05 109.11C44.4099 109.774 45.5887 110.758 46.4856 111.977C47.3825 113.196 47.9707 114.614 48.2 116.11C49.05 120.43 49.31 133 49.31 133L53.98 135.8V102.8L29 92.4399V115.23L31.34 117.55Z" fill="url(#paint8_linear_6456_59498)"/>
<path style="mix-blend-mode:multiply" d="M85.1188 117.55C85.1188 117.55 85.3087 99.8199 82.9487 100.08C80.5887 100.34 80.4887 109.32 80.4887 112.08C80.4887 114.84 80.1087 122.31 80.1087 122.31L78.7687 123.52C78.7687 123.52 78.9687 103.35 77.1287 104.3C75.2887 105.25 67.2087 111.49 66.3587 115.81C65.5087 120.13 65.8288 133.81 65.8288 133.81L62.4688 135.81V102.81L87.4688 92.3799V115.17L85.1188 117.55Z" fill="url(#paint9_linear_6456_59498)"/>
<path d="M22.23 86.6502C22.14 86.9802 8.55 82.2502 8.55 82.2502C5.09523 77.0676 2.2276 71.5168 0 65.7002H23.21L22.23 86.6502Z" fill="url(#paint10_linear_6456_59498)"/>
<path d="M4.42969 65.7002C4.42969 65.7002 9.84969 76.8902 10.8397 78.1002L22.5697 78.4202V77.6202C22.5697 77.6202 11.8297 77.7102 11.2197 77.2502C10.6097 76.7902 5.10969 65.7002 5.10969 65.7002H4.42969Z" fill="#B33114"/>
<path d="M4.42969 65.7002L10.8397 78.1002C9.44763 76.117 8.18501 74.046 7.05969 71.9002C5.62969 69.0002 4.42969 65.7002 4.42969 65.7002Z" fill="white"/>
<g style="mix-blend-mode:soft-light" opacity="0.4">
<path d="M6.08948 66.4599C6.98948 69.1399 10.5495 75.2099 11.2995 75.2099C12.0495 75.2099 20.6495 75.0599 21.4395 73.8199C22.2295 72.5799 22.9195 66.5799 22.2295 66.4599C21.5395 66.3399 5.68948 65.2699 6.08948 66.4599Z" fill="#FFDF66"/>
</g>
<g style="mix-blend-mode:soft-light" opacity="0.4">
<path d="M0.759675 66.1699C1.86967 68.7899 4.93967 75.4599 5.51967 75.5399C6.09967 75.6199 7.99967 75.8599 7.99967 75.0599C8.04967 73.7799 4.44967 66.3399 3.64967 66.1699C2.84967 65.9999 0.489675 65.5199 0.759675 66.1699Z" fill="#FFDF66"/>
</g>
<path style="mix-blend-mode:multiply" opacity="0.37" d="M6.08049 76.4098C5.98049 77.2398 9.08049 81.5098 9.58049 81.8498C10.0805 82.1898 20.5205 85.5598 21.2005 85.0798C21.8805 84.5998 22.2505 75.7998 21.6805 75.5398C21.1105 75.2798 6.19049 75.4998 6.08049 76.4098Z" fill="url(#paint11_linear_6456_59498)"/>
<g style="mix-blend-mode:multiply" opacity="0.5">
<path d="M15.4102 65.6999C16.5316 72.0964 17.024 78.5874 16.8802 85.0799L22.2302 86.6499L23.2302 65.6499L15.4102 65.6999Z" fill="#DE5634"/>
</g>
<path d="M94.23 86.6502C94.32 86.9802 107.91 82.2502 107.91 82.2502C111.365 77.0676 114.232 71.5168 116.46 65.7002H93.25L94.23 86.6502Z" fill="url(#paint12_linear_6456_59498)"/>
<path d="M112.002 65.7002C112.002 65.7002 106.582 76.8902 105.592 78.1002L93.8516 78.4202V77.6202C93.8516 77.6202 104.592 77.7102 105.202 77.2502C105.812 76.7902 111.312 65.7002 111.312 65.7002H112.002Z" fill="#B33114"/>
<path d="M112 65.7002L105.59 78.1002C106.978 76.1144 108.24 74.0437 109.37 71.9002C110.83 69.0002 112 65.7002 112 65.7002Z" fill="white"/>
<g style="mix-blend-mode:soft-light" opacity="0.4">
<path d="M110.369 66.4599C109.469 69.1399 105.899 75.2099 105.159 75.2099C104.419 75.2099 95.8087 75.0599 94.9987 73.8199C94.1887 72.5799 93.5287 66.5799 94.2187 66.4599C94.9087 66.3399 110.769 65.2699 110.369 66.4599Z" fill="#FFDF66"/>
</g>
<g style="mix-blend-mode:soft-light" opacity="0.4">
<path d="M115.692 66.1699C114.592 68.7899 111.512 75.4599 110.942 75.5399C110.372 75.6199 108.452 75.8599 108.422 75.0599C108.422 73.7799 111.972 66.3399 112.772 66.1699C113.572 65.9999 116.002 65.5199 115.692 66.1699Z" fill="#FFDF66"/>
</g>
<path style="mix-blend-mode:multiply" opacity="0.37" d="M110.379 76.4098C110.479 77.2398 107.379 81.5098 106.879 81.8498C106.379 82.1898 95.9392 85.5598 95.2492 85.0798C94.5592 84.5998 94.2492 75.7998 94.7792 75.5398C95.3092 75.2798 110.259 75.4998 110.379 76.4098Z" fill="url(#paint13_linear_6456_59498)"/>
<g style="mix-blend-mode:multiply" opacity="0.5">
<path d="M101.05 65.6999C99.929 72.0964 99.4367 78.5874 99.5805 85.0799L94.2305 86.6499L93.2305 65.6499L101.05 65.6999Z" fill="#DE5634"/>
</g>
<path d="M58.3806 17.25L20.3906 39.18V91.52L58.3806 113.45L96.3706 91.52V39.18L58.3806 17.25Z" fill="url(#paint14_linear_6456_59498)"/>
<path d="M27.2617 87.5502V43.1502L58.3817 25.1802L89.5017 43.1502V87.5502L58.3817 105.52L27.2617 87.5502Z" fill="url(#paint15_linear_6456_59498)"/>
<path d="M29.5508 86.2301V44.4701L58.3808 27.8301L87.2108 44.4701V86.2301L58.3808 102.87L29.5508 86.2301Z" fill="url(#paint16_linear_6456_59498)"/>
<g style="mix-blend-mode:soft-light" opacity="0.4">
<path d="M21.3291 39.32C20.8691 40.73 24.8991 42.46 27.7491 41.84C30.5991 41.22 57.3291 25.54 57.9991 24.13C58.1946 22.1749 58.1946 20.2051 57.9991 18.25C56.9991 18.25 21.5591 38.64 21.3291 39.32Z" fill="#FFDF66"/>
</g>
<g style="mix-blend-mode:soft-light" opacity="0.4">
<path d="M95.2407 39.32C95.7107 40.73 91.6707 42.46 88.8207 41.84C85.9707 41.22 59.5007 25.39 58.5907 24.13C58.1307 23.48 57.9807 18.25 58.5907 18.25C59.5407 18.25 95.0007 38.64 95.2407 39.32Z" fill="#FFDF66"/>
</g>
<path style="mix-blend-mode:multiply" opacity="0.37" d="M21.2993 69.0902C21.0393 70.6502 20.4193 90.4602 21.2993 90.6102C22.1793 90.7602 26.2993 87.9402 26.5293 86.6102C26.7593 85.2802 26.8293 71.7302 26.5293 70.4302C26.2293 69.1302 21.7193 66.4802 21.2993 69.0902Z" fill="url(#paint17_linear_6456_59498)"/>
<path style="mix-blend-mode:multiply" opacity="0.37" d="M95.3085 69.0902C95.5585 70.6502 96.1885 90.4602 95.3085 90.6102C94.4285 90.7602 90.3085 87.9402 90.0785 86.6102C89.8485 85.2802 89.7785 71.7302 90.0785 70.4302C90.3785 69.1302 94.8785 66.4802 95.3085 69.0902Z" fill="url(#paint18_linear_6456_59498)"/>
<path style="mix-blend-mode:multiply" opacity="0.37" d="M22.2518 91.1501C22.7118 91.8301 56.9318 112.06 57.4418 112.06C57.7018 112.06 58.0418 107.06 58.0418 106.47C58.0418 104.91 27.7918 88.8401 27.2618 88.6901C26.4718 88.4701 21.7818 90.4701 22.2518 91.1501Z" fill="url(#paint19_linear_6456_59498)"/>
<path style="mix-blend-mode:multiply" opacity="0.37" d="M94.5693 91.6798C94.1093 92.3598 59.2493 112.52 58.7293 112.52C58.6014 110.357 58.6415 108.187 58.8493 106.03C59.9493 104.93 88.8493 88.8398 89.3393 88.6898C90.1193 88.4698 94.9993 90.9998 94.5693 91.6798Z" fill="url(#paint20_linear_6456_59498)"/>
<g style="mix-blend-mode:multiply" opacity="0.37">
<path d="M30.8714 85.12C28.8714 73.55 29.9614 72.82 44.3214 67.93C58.6814 63.04 83.0014 50.44 85.0814 55.91C87.1614 61.38 86.4814 84.66 85.9914 85.91C85.5014 87.16 60.4514 101.58 58.3814 101.61C56.3114 101.64 31.1014 86.42 30.8714 85.12Z" fill="#ED8A1D"/>
</g>
<g style="mix-blend-mode:soft-light" opacity="0.4">
<path d="M86.59 44.7601C86.08 44.6401 60.03 29.5801 58.59 29.6901C57.15 29.8001 39.04 38.2901 31.59 44.6901C29.59 46.4101 30.33 71.9501 32.17 71.4801C34.01 71.0101 35.33 60.7001 55.5 54.9001C75.35 49.1801 84 54.1301 86.14 55.0001C86.75 55.2601 87.74 45.0001 86.59 44.7601Z" fill="#FFDF66"/>
</g>
<g style="mix-blend-mode:multiply" opacity="0.5">
<path d="M27.2617 87.5499V43.1499L58.3817 25.1499L89.5017 43.1499V87.5499L87.2117 86.2299C87.2117 86.2299 87.3517 47.6299 86.5217 46.4199C83.5217 42.0999 60.5217 31.5999 56.7617 32.7699C53.0017 33.9399 32.4217 42.6799 30.1317 46.3499C29.3617 47.5799 29.5517 86.2299 29.5517 86.2299L27.2617 87.5499Z" fill="#DE5634"/>
</g>
<g style="mix-blend-mode:soft-light" opacity="0.4">
<path d="M64.1903 49.2102C71.9503 52.7502 83.6303 52.8102 84.7003 52.1302C85.7703 51.4502 86.4703 46.4802 84.8003 45.6502C83.1303 44.8202 69.8003 37.7202 66.3003 38.4802C62.8003 39.2402 62.8203 48.5902 64.1903 49.2102Z" fill="#FFDF66"/>
</g>
<path opacity="0.8" d="M20.3889 55.13C20.3889 55.01 20.7089 40.37 21.3289 39.32C21.9489 38.27 57.5589 18.53 58.5889 18.25C59.6189 17.97 72.9989 25.67 72.9989 25.67L58.3789 17.25L20.3789 39.18L20.3889 55.13Z" fill="#700000"/>
<path d="M72 33C72 33 88.68 42.5 88.91 43.57C89.14 44.64 89.52 73.33 89.52 73.33C89.52 73.33 89.68 44.33 89.52 43.12C89.36 41.91 72 33 72 33Z" fill="white"/>
<path d="M27.2607 67.4802C27.2607 67.4802 26.7007 43.4802 26.9807 42.7002C27.2607 41.9202 58.3807 25.1802 58.3807 25.1802C58.3807 25.1802 28.3807 42.3602 27.7207 43.4502C27.0607 44.5402 27.2607 67.4802 27.2607 67.4802Z" fill="white"/>
<path opacity="0.8" d="M20.3906 91.5201L58.3906 113.45L96.3906 91.5201V79.6001C96.3906 79.6001 96.0706 90.0001 95.2906 91.3001C94.5106 92.6001 60.4906 112.39 58.7506 112.52C57.0106 112.65 22.2106 92.0001 21.3006 90.6101C20.3906 89.2201 20.3906 64.8501 20.3906 64.8501V91.5201Z" fill="#700000"/>
<path d="M27.2587 76.1899C27.2587 76.1899 27.1487 86.4299 27.7187 87.2799C28.2887 88.1299 43.0487 96.6699 43.0487 96.6699C43.0487 96.6699 27.0487 88.3999 26.8987 87.8599C26.7487 87.3199 27.2587 76.1899 27.2587 76.1899Z" fill="white"/>
<g style="mix-blend-mode:soft-light" opacity="0.4">
<path d="M40.109 96.8701C38.989 96.8701 35.849 98.1401 36.529 98.8701C37.209 99.6001 55.909 110.87 58.039 111.67C58.739 111.93 58.669 107.48 57.739 106.04C57.339 105.43 43.579 96.8601 40.109 96.8701Z" fill="#FFDF66"/>
</g>
<path d="M75.361 27.9999C74.731 28.1699 76.851 30.8399 77.861 31.0799C78.871 31.3199 80.241 30.5999 79.771 30.0799C79.301 29.5599 76.351 27.7099 75.361 27.9999Z" fill="white"/>
<path d="M80.0596 30.6198C79.0596 30.8698 80.8696 35.0798 81.6296 35.8298C82.3896 36.5798 89.1196 37.8898 88.9596 36.6798C88.7996 35.4698 81.4096 30.2498 80.0596 30.6198Z" fill="white"/>
<g style="mix-blend-mode:multiply" opacity="0.5">
<path d="M75.9004 97.0002C75.0804 100.57 75.2104 102.68 75.6704 102.7C76.1304 102.72 92.7404 92.7002 93.1904 92.2802C93.6404 91.8602 90.5304 89.0002 89.2504 89.1502C87.9704 89.3002 76.2004 95.6402 75.9004 97.0002Z" fill="#DE5634"/>
</g>
<g style="mix-blend-mode:multiply" opacity="0.5">
<path d="M29.2684 44.1702C28.8684 42.9702 27.6384 42.9702 27.5284 44.3202C27.4184 45.6702 27.2284 70.5402 27.7184 70.5702C28.2084 70.6002 29.2384 69.3902 29.2684 68.8202C29.2984 68.2502 29.4584 44.7402 29.2684 44.1702Z" fill="#DE5634"/>
</g>
<g style="mix-blend-mode:multiply" opacity="0.5">
<path d="M87.4797 44.3198C87.4197 44.7998 87.1797 68.3198 87.4797 68.3198C87.7797 68.3198 89.1597 67.2198 89.1597 66.6398C89.1597 66.0598 88.8197 43.8698 88.6597 43.7498C88.4997 43.6298 87.5297 43.9398 87.4797 44.3198Z" fill="#DE5634"/>
</g>
<g style="mix-blend-mode:multiply" opacity="0.5">
<path d="M58.3804 27.4399C58.3804 27.8999 44.9904 35.5399 44.6804 35.5399C44.3704 35.5399 44.4704 33.4799 44.9004 33.1999C45.3304 32.9199 58.2804 25.1199 58.3804 25.3799C58.4255 26.0658 58.4255 26.754 58.3804 27.4399Z" fill="#DE5634"/>
</g>
<path d="M86.0007 89.3301C85.1407 89.3301 82.2607 90.9801 82.4807 91.8001C82.7007 92.6201 84.4807 93.5101 84.9307 93.0301C85.3807 92.5501 86.5707 89.3501 86.0007 89.3301Z" fill="#B33114"/>
<path d="M87.1099 89.91C86.8199 90.18 86.1799 91.14 86.7899 91.61C87.3999 92.08 89.1899 90.84 88.9199 90.48C88.6499 90.12 87.4899 89.56 87.1099 89.91Z" fill="#B33114"/>
<g style="mix-blend-mode:multiply" opacity="0.5">
<path d="M82.9116 90.9999C82.2016 91.9999 85.1216 92.5999 85.5016 91.7899C85.8816 90.9799 86.5016 89.2699 86.0116 89.3499C84.8858 89.705 83.8349 90.2643 82.9116 90.9999Z" fill="#DE5634"/>
</g>
<path d="M82.4997 91.5601C82.6969 92.1199 83.0868 92.5914 83.5997 92.8901C84.2797 93.2901 84.8697 93.2001 85.0397 92.8901C84.8715 93.09 84.6402 93.2266 84.3839 93.2775C84.1276 93.3284 83.8616 93.2905 83.6297 93.1701C82.2397 92.5401 82.4997 91.5601 82.4997 91.5601Z" fill="#DAE1EF"/>
<g style="mix-blend-mode:multiply" opacity="0.5">
<path d="M87.4291 89.9302C86.7791 90.6502 87.2891 91.6702 87.6591 91.6102C88.0291 91.5502 89.1291 90.8302 88.9191 90.4802C88.7091 90.1302 87.5791 89.7802 87.4291 89.9302Z" fill="#DE5634"/>
</g>
<path d="M87.1091 89.9102C87.1091 89.9102 86.4991 90.7402 86.7491 91.2202C86.9991 91.7002 87.3291 91.7001 87.3291 91.7001C87.3291 91.7001 86.5491 92.1602 86.4091 91.6202C86.1591 90.7002 87.1091 89.9102 87.1091 89.9102Z" fill="#DAE1EF"/>
<path d="M54.4699 27.1802C52.4699 26.6402 50.7699 27.9702 49.8699 28.9902C48.9699 30.0102 49.4699 30.6102 50.5999 30.4102C51.7299 30.2102 55.3299 27.4102 54.4699 27.1802Z" fill="#B33114"/>
<g style="mix-blend-mode:multiply" opacity="0.5">
<path d="M54.4693 27.18C53.8231 27.051 53.1562 27.0685 52.5176 27.2312C51.8791 27.3939 51.2851 27.6976 50.7793 28.12C50.2293 28.6 51.3093 29.99 52.0593 29.69C52.8093 29.39 55.0993 27.4 54.4693 27.18Z" fill="#DE5634"/>
</g>
<path d="M50.379 28.46C50.379 28.46 48.069 30 48.329 30.72C48.589 31.44 51.329 30.11 51.329 30.11C51.329 30.11 49.889 30.57 49.569 29.94C49.249 29.31 50.379 28.46 50.379 28.46Z" fill="white"/>
<g style="mix-blend-mode:soft-light" opacity="0.4">
<path d="M28.5818 87.8599C27.4918 88.1299 30.7218 90.3399 31.4818 90.4599C32.2418 90.5799 31.4818 88.6299 31.1218 88.2899C30.3273 87.9272 29.4515 87.7789 28.5818 87.8599Z" fill="#FFDF66"/>
</g>
<path d="M58.3517 90.0001L19.1317 67.1201C18.2044 69.2573 17.5752 71.5117 17.2617 73.8201L19.8217 78.1401L58.3517 100.52L96.8817 78.1401L99.2017 73.8201C99.1245 71.5218 98.6474 69.2546 97.7917 67.1201L58.3517 90.0001Z" fill="url(#paint21_linear_6456_59498)"/>
<path d="M19.8217 78.1398L17.2617 73.8198L58.3517 97.8898L99.2017 73.8198L96.8817 78.1398L58.3517 100.52L19.8217 78.1398Z" fill="url(#paint22_linear_6456_59498)"/>
<g style="mix-blend-mode:multiply" opacity="0.5">
<path d="M17.2617 73.8198L19.8217 78.1398L20.4017 78.4998V79.7898C20.4017 79.7898 22.6017 80.9098 26.9117 83.2998C27.0617 83.3798 29.6317 86.0898 29.6317 86.0898C29.6317 86.0898 57.3817 102.87 58.3917 102.87C59.6817 102.87 87.2217 85.7198 87.2217 85.7198C87.2217 85.7198 89.3617 83.9198 89.5817 83.7898L96.3817 80.2298V78.4398L96.8917 78.1398L99.2117 73.8198L58.3517 97.8898L17.2617 73.8198Z" fill="#DE5634"/>
</g>
<path style="mix-blend-mode:multiply" opacity="0.69" d="M58.3516 90.0001V97.9001L99.2016 73.8201C99.094 71.5256 98.6179 69.2634 97.7916 67.1201L58.3516 90.0001Z" fill="url(#paint23_linear_6456_59498)"/>
<g style="mix-blend-mode:soft-light" opacity="0.4">
<path d="M21.1516 68.8501C20.4016 68.8501 21.0116 75.5001 23.2916 77.0201C26.9116 79.4501 48.7416 92.3101 50.1716 92.3301C51.1716 92.3301 51.1017 86.7001 50.8116 86.2601C50.2516 85.4301 22.2716 68.8501 21.1516 68.8501Z" fill="#FFDF66"/>
</g>
<g style="mix-blend-mode:soft-light" opacity="0.4">
<path d="M70.4796 83.1702C69.9996 83.6602 70.0696 89.8602 70.8796 89.6802C77.4727 86.4817 83.823 82.8052 89.8796 78.6802C95.6996 74.4002 96.5196 68.7702 95.2096 68.9002C95.1696 68.8602 71.4496 82.1602 70.4796 83.1702Z" fill="#FFDF66"/>
</g>
<path d="M38.3711 86.1802C38.3711 86.1802 57.1411 97.4502 58.3711 97.4502C59.6011 97.4502 74.5611 88.3502 74.5611 88.3502C74.5611 88.3502 58.8311 98.3502 58.4011 98.3502C57.9711 98.3502 38.3711 86.1802 38.3711 86.1802Z" fill="white"/>
<path d="M58.3517 77.1798L19.1317 54.3098C18.2053 56.4438 17.5761 58.6948 17.2617 60.9998L19.8217 65.3198L58.3517 87.7098L96.8817 65.3298L99.2017 60.9998C99.1245 58.7015 98.6474 56.4343 97.7917 54.2998L58.3517 77.1798Z" fill="url(#paint24_linear_6456_59498)"/>
<path d="M19.8217 65.3298L17.2617 61.0098L58.3517 85.0798L99.2017 61.0098L96.8817 65.3298L58.3517 87.7098L19.8217 65.3298Z" fill="url(#paint25_linear_6456_59498)"/>
<g style="mix-blend-mode:multiply" opacity="0.5">
<path d="M17.2617 61L19.8217 65.32L20.4017 65.68V67C20.4017 67 22.6017 68.12 26.9117 70.51C27.0617 70.59 29.6317 73.3 29.6317 73.3C29.6317 73.3 57.3717 90.06 58.3817 90.06C59.6717 90.06 87.2117 72.91 87.2117 72.91C87.2117 72.91 89.3517 71.11 89.5717 70.98L96.3717 67.42V65.63L96.8817 65.33L99.2017 61L58.3517 85.08L17.2617 61Z" fill="#DE5634"/>
</g>
<path style="mix-blend-mode:multiply" opacity="0.69" d="M58.3516 77.1798V85.0798L99.2016 60.9998C99.094 58.7053 98.6179 56.443 97.7916 54.2998L58.3516 77.1798Z" fill="url(#paint26_linear_6456_59498)"/>
<g style="mix-blend-mode:soft-light" opacity="0.4">
<path d="M21.1516 56.0498C20.4016 56.0498 21.0116 62.6898 23.2916 64.2098C26.9116 66.6398 48.7416 79.4998 50.1716 79.5198C51.1716 79.5198 51.1017 73.8898 50.8116 73.4498C50.2516 72.6198 22.2716 56.0498 21.1516 56.0498Z" fill="#FFDF66"/>
</g>
<g style="mix-blend-mode:soft-light" opacity="0.4">
<path d="M70.4796 70.3601C69.9996 70.8501 70.0696 77.0601 70.8796 76.8701C77.4727 73.6716 83.823 69.9952 89.8796 65.8701C95.6996 61.6001 96.5196 55.9601 95.2096 56.0901C95.1696 56.0501 71.4496 69.3501 70.4796 70.3601Z" fill="#FFDF66"/>
</g>
<path d="M38.3711 73.3799C38.3711 73.3799 57.1411 84.6399 58.3711 84.6399C59.6011 84.6399 74.5611 75.5399 74.5611 75.5399C74.5611 75.5399 58.8311 85.5399 58.4011 85.5399C57.9711 85.5399 38.3711 73.3799 38.3711 73.3799Z" fill="white"/>
<g style="mix-blend-mode:multiply" opacity="0.5">
<path d="M58.4386 65.4702L50.0186 69.8902L51.6286 60.5102L44.8086 53.8702L54.2286 52.5002L58.4386 43.9702L62.6486 52.5002L72.0686 53.8702L65.2586 60.5102L66.8686 69.8902L58.4386 65.4702Z" fill="#DE5634"/>
</g>
<path d="M71.0908 54.19L66.5408 53.53L65.3008 53.35L62.3508 52.92L58.4408 45L54.5308 52.92L45.8008 54.19L52.1208 60.35L50.6308 69.06L58.4408 64.95L66.2608 69.06L64.7708 60.35L71.0908 54.19Z" fill="url(#paint27_linear_6456_59498)"/>
<path style="mix-blend-mode:multiply" opacity="0.37" d="M45.75 54.1899L58.62 57.5599L52.08 60.3499L45.75 54.1899Z" fill="url(#paint28_linear_6456_59498)"/>
<path style="mix-blend-mode:multiply" opacity="0.37" d="M71.0411 54.1899L58.6211 57.5599L64.7211 60.3499L71.0411 54.1899Z" fill="url(#paint29_linear_6456_59498)"/>
<path style="mix-blend-mode:multiply" opacity="0.37" d="M58.3981 64.9501L58.6181 57.5601L50.5781 69.0601L58.3981 64.9501Z" fill="url(#paint30_linear_6456_59498)"/>
<path style="mix-blend-mode:multiply" opacity="0.37" d="M66.2084 69.0601L58.6184 57.5601L58.3984 64.9501L66.2084 69.0601Z" fill="url(#paint31_linear_6456_59498)"/>
<path style="mix-blend-mode:color-dodge" opacity="0.5" d="M58.3984 45L58.6184 57.56L62.2984 52.92L58.3984 45Z" fill="url(#paint32_linear_6456_59498)"/>
<path style="mix-blend-mode:color-dodge" opacity="0.5" d="M71.0411 54.1899L58.6211 57.5599L62.3011 52.9199L71.0411 54.1899Z" fill="url(#paint33_linear_6456_59498)"/>
<path style="mix-blend-mode:color-dodge" opacity="0.5" d="M71.0411 54.1899L58.6211 57.5599L62.3011 52.9199L71.0411 54.1899Z" fill="url(#paint34_linear_6456_59498)"/>
<path style="mix-blend-mode:color-dodge" opacity="0.5" d="M54.49 52.9199L58.62 57.5599L45.75 54.1899L54.49 52.9199Z" fill="url(#paint35_linear_6456_59498)"/>
<path d="M62.3095 55.6799C61.6595 56.2199 62.2095 56.5799 62.2095 56.5799L65.5595 55.6799C65.0887 55.3331 64.5193 55.146 63.9345 55.146C63.3497 55.146 62.7803 55.3331 62.3095 55.6799Z" fill="white"/>
<g style="mix-blend-mode:multiply" opacity="0.5">
<path d="M50.6289 69.06C50.6289 69.06 56.5489 66.26 58.4389 65.49L66.2589 69.06L58.4389 65L50.6289 69.06Z" fill="#DE5634"/>
</g>
<g style="mix-blend-mode:multiply" opacity="0.5">
<path d="M45.75 54.1899L58.62 57.5599L51.56 63.6399L45.75 54.1899Z" fill="#DE5634"/>
</g>
<g style="mix-blend-mode:multiply" opacity="0.5">
<path d="M71.0411 54.1899L58.6211 57.5599L65.4711 64.4499L71.0411 54.1899Z" fill="#DE5634"/>
</g>
<g style="mix-blend-mode:multiply" opacity="0.5">
<path d="M50.6289 69.0601L58.6189 57.5601L66.2589 69.0601L58.4389 67.8201L50.6289 69.0601Z" fill="#DE5634"/>
</g>
<g style="mix-blend-mode:soft-light" opacity="0.4">
<path d="M55.5285 51.5502C54.6985 53.8602 57.8685 55.4702 58.2885 54.7602C58.7085 54.0502 58.4485 50.0902 57.9185 49.5602C57.3885 49.0302 55.8685 50.6102 55.5285 51.5502Z" fill="#F7FFFF"/>
</g>
<g style="mix-blend-mode:soft-light" opacity="0.4">
<path d="M52.9413 63.36C54.6313 63.59 55.5713 61.67 55.9413 60.36C56.4913 58.23 49.8813 63 52.9413 63.36Z" fill="#F7FFFF"/>
</g>
<g style="mix-blend-mode:multiply" opacity="0.5">
<path d="M40.2602 49.98L36.3402 52.04L37.0802 47.67L33.9102 44.58L38.3002 43.95L40.2602 39.98L42.2202 43.95L46.6002 44.58L43.4302 47.67L44.1702 52.04L40.2602 49.98Z" fill="#DE5634"/>
</g>
<path d="M46.1002 44.7402L44.0002 44.4402L43.4302 44.3502L42.0602 44.1602L40.2602 40.4902L38.4502 44.1602L34.4102 44.7402L37.3302 47.5902L36.6402 51.6202L40.2602 49.7202L43.8702 51.6202L43.1802 47.5902L46.1002 44.7402Z" fill="url(#paint36_linear_6456_59498)"/>
<path style="mix-blend-mode:multiply" opacity="0.37" d="M34.3789 44.7402L40.3389 46.3002L37.3089 47.5902L34.3789 44.7402Z" fill="url(#paint37_linear_6456_59498)"/>
<path style="mix-blend-mode:multiply" opacity="0.37" d="M46.0798 44.7402L40.3398 46.3002L43.1598 47.5902L46.0798 44.7402Z" fill="url(#paint38_linear_6456_59498)"/>
<path style="mix-blend-mode:multiply" opacity="0.37" d="M40.2311 49.7198L40.3411 46.2998L36.6211 51.6198L40.2311 49.7198Z" fill="url(#paint39_linear_6456_59498)"/>
<path style="mix-blend-mode:multiply" opacity="0.37" d="M43.8505 51.6198L40.3405 46.2998L40.2305 49.7198L43.8505 51.6198Z" fill="url(#paint40_linear_6456_59498)"/>
<path style="mix-blend-mode:color-dodge" opacity="0.5" d="M40.2305 40.4902L40.3405 46.3002L42.0405 44.1602L40.2305 40.4902Z" fill="url(#paint41_linear_6456_59498)"/>
<path style="mix-blend-mode:color-dodge" opacity="0.5" d="M46.0798 44.7402L40.3398 46.3002L42.0398 44.1602L46.0798 44.7402Z" fill="url(#paint42_linear_6456_59498)"/>
<path style="mix-blend-mode:color-dodge" opacity="0.5" d="M46.0798 44.7402L40.3398 46.3002L42.0398 44.1602L46.0798 44.7402Z" fill="url(#paint43_linear_6456_59498)"/>
<path style="mix-blend-mode:color-dodge" opacity="0.5" d="M38.4289 44.1602L40.3389 46.3002L34.3789 44.7402L38.4289 44.1602Z" fill="url(#paint44_linear_6456_59498)"/>
<path d="M42.0005 45.4299C41.7005 45.6799 42.0005 45.8499 42.0005 45.8499L43.5505 45.4299C43.3284 45.2588 43.0559 45.166 42.7755 45.166C42.4951 45.166 42.2226 45.2588 42.0005 45.4299Z" fill="white"/>
<g style="mix-blend-mode:multiply" opacity="0.5">
<path d="M36.6406 51.6202C36.6406 51.6202 39.3806 50.3302 40.2606 49.9702L43.8706 51.6202L40.2606 49.7202L36.6406 51.6202Z" fill="#DE5634"/>
</g>
<g style="mix-blend-mode:multiply" opacity="0.5">
<path d="M34.3789 44.7402L40.3389 46.3002L37.0689 49.1102L34.3789 44.7402Z" fill="#DE5634"/>
</g>
<g style="mix-blend-mode:multiply" opacity="0.5">
<path d="M46.0798 44.7402L40.3398 46.3002L43.5098 49.4902L46.0798 44.7402Z" fill="#DE5634"/>
</g>
<g style="mix-blend-mode:multiply" opacity="0.5">
<path d="M36.6406 51.6198L40.3406 46.2998L43.8706 51.6198L40.2606 51.0498L36.6406 51.6198Z" fill="#DE5634"/>
</g>
<g style="mix-blend-mode:soft-light" opacity="0.4">
<path d="M38.9089 43.5202C38.5189 44.5902 39.9989 45.3302 40.1889 45.0002C40.3468 44.1979 40.2811 43.3676 39.9989 42.6002C39.7589 42.3502 39.0689 43.0902 38.9089 43.5202Z" fill="#F7FFFF"/>
</g>
<g style="mix-blend-mode:soft-light" opacity="0.4">
<path d="M37.7099 49.0002C38.4899 49.1102 38.9299 48.2202 39.0899 47.6102C39.3499 46.6102 36.2999 48.7902 37.7099 49.0002Z" fill="#F7FFFF"/>
</g>
<g style="mix-blend-mode:multiply" opacity="0.5">
<path d="M76.7384 49.98L72.8184 52.04L73.5684 47.67L70.3984 44.58L74.7784 43.95L76.7384 39.98L78.6984 43.95L83.0784 44.58L79.9084 47.67L80.6584 52.04L76.7384 49.98Z" fill="#DE5634"/>
</g>
<path d="M82.5906 44.7402L80.4906 44.4402L79.9106 44.3502L78.5506 44.1602L76.7406 40.4902L74.9306 44.1602L70.8906 44.7402L73.8206 47.5902L73.1306 51.6202L76.7406 49.7202L80.3606 51.6202L79.6706 47.5902L82.5906 44.7402Z" fill="url(#paint45_linear_6456_59498)"/>
<path style="mix-blend-mode:multiply" opacity="0.37" d="M70.8711 44.7402L76.8311 46.3002L73.8011 47.5902L70.8711 44.7402Z" fill="url(#paint46_linear_6456_59498)"/>
<path style="mix-blend-mode:multiply" opacity="0.37" d="M82.5681 44.7402L76.8281 46.3002L79.6381 47.5902L82.5681 44.7402Z" fill="url(#paint47_linear_6456_59498)"/>
<path style="mix-blend-mode:multiply" opacity="0.37" d="M76.7194 49.7198L76.8294 46.2998L73.1094 51.6198L76.7194 49.7198Z" fill="url(#paint48_linear_6456_59498)"/>
<path style="mix-blend-mode:multiply" opacity="0.37" d="M80.3288 51.6198L76.8288 46.2998L76.7188 49.7198L80.3288 51.6198Z" fill="url(#paint49_linear_6456_59498)"/>
<path style="mix-blend-mode:color-dodge" opacity="0.5" d="M76.7188 40.4902L76.8288 46.3002L78.5287 44.1602L76.7188 40.4902Z" fill="url(#paint50_linear_6456_59498)"/>
<path style="mix-blend-mode:color-dodge" opacity="0.5" d="M82.5681 44.7402L76.8281 46.3002L78.5281 44.1602L82.5681 44.7402Z" fill="url(#paint51_linear_6456_59498)"/>
<path style="mix-blend-mode:color-dodge" opacity="0.5" d="M82.5681 44.7402L76.8281 46.3002L78.5281 44.1602L82.5681 44.7402Z" fill="url(#paint52_linear_6456_59498)"/>
<path style="mix-blend-mode:color-dodge" opacity="0.5" d="M74.9111 44.1602L76.8311 46.3002L70.8711 44.7402L74.9111 44.1602Z" fill="url(#paint53_linear_6456_59498)"/>
<path d="M78.5318 45.4299C78.2318 45.6799 78.5318 45.8499 78.5318 45.8499L80.0018 45.4299C79.7876 45.2761 79.5305 45.1934 79.2668 45.1934C79.003 45.1934 78.746 45.2761 78.5318 45.4299Z" fill="white"/>
<g style="mix-blend-mode:multiply" opacity="0.5">
<path d="M73.1289 51.6202C73.1289 51.6202 75.8689 50.3302 76.7389 49.9702L80.3589 51.6202L76.7389 49.7202L73.1289 51.6202Z" fill="#DE5634"/>
</g>
<g style="mix-blend-mode:multiply" opacity="0.5">
<path d="M70.8711 44.7402L76.8311 46.3002L73.5611 49.1102L70.8711 44.7402Z" fill="#DE5634"/>
</g>
<g style="mix-blend-mode:multiply" opacity="0.5">
<path d="M82.5681 44.7402L76.8281 46.3002L79.9881 49.4902L82.5681 44.7402Z" fill="#DE5634"/>
</g>
<g style="mix-blend-mode:multiply" opacity="0.5">
<path d="M73.1289 51.6198L76.8289 46.2998L80.3589 51.6198L76.7389 51.0498L73.1289 51.6198Z" fill="#DE5634"/>
</g>
<g style="mix-blend-mode:soft-light" opacity="0.4">
<path d="M75.3894 43.5198C74.9994 44.5898 76.4794 45.3298 76.6694 44.9998C76.8355 44.1961 76.7767 43.3622 76.4994 42.5898C76.2494 42.3498 75.5494 43.0898 75.3894 43.5198Z" fill="#F7FFFF"/>
</g>
<g style="mix-blend-mode:soft-light" opacity="0.4">
<path d="M74.2019 49.0002C74.9819 49.1102 75.4119 48.2202 75.5819 47.6102C75.8419 46.6102 72.7819 48.7902 74.2019 49.0002Z" fill="#F7FFFF"/>
</g>
<defs>
<linearGradient id="paint0_linear_6456_59498" x1="36.0394" y1="49.8" x2="36.0394" y2="16.99" gradientUnits="userSpaceOnUse">
<stop stop-color="#CA6B34"/>
<stop offset="0.67" stop-color="#FFA933"/>
<stop offset="1" stop-color="#FFBD2B"/>
</linearGradient>
<linearGradient id="paint1_linear_6456_59498" x1="32.4094" y1="39.5298" x2="32.4094" y2="8.60978" gradientUnits="userSpaceOnUse">
<stop stop-color="#CA6B34"/>
<stop offset="0.67" stop-color="#FFA933"/>
<stop offset="1" stop-color="#FFBD2B"/>
</linearGradient>
<linearGradient id="paint2_linear_6456_59498" x1="36.4713" y1="28.6202" x2="36.4713" y2="48.0802" gradientUnits="userSpaceOnUse">
<stop stop-color="#C10065"/>
<stop offset="1" stop-color="white"/>
</linearGradient>
<linearGradient id="paint3_linear_6456_59498" x1="80.3381" y1="49.8" x2="80.3381" y2="16.99" gradientUnits="userSpaceOnUse">
<stop stop-color="#CA6B34"/>
<stop offset="0.67" stop-color="#FFA933"/>
<stop offset="1" stop-color="#FFBD2B"/>
</linearGradient>
<linearGradient id="paint4_linear_6456_59498" x1="84.04" y1="39.5298" x2="84.04" y2="8.60978" gradientUnits="userSpaceOnUse">
<stop stop-color="#CA6B34"/>
<stop offset="0.67" stop-color="#FFA933"/>
<stop offset="1" stop-color="#FFBD2B"/>
</linearGradient>
<linearGradient id="paint5_linear_6456_59498" x1="79.9804" y1="28.6202" x2="79.9804" y2="48.0802" gradientUnits="userSpaceOnUse">
<stop stop-color="#C10065"/>
<stop offset="1" stop-color="white"/>
</linearGradient>
<linearGradient id="paint6_linear_6456_59498" x1="29" y1="114.14" x2="53.98" y2="114.14" gradientUnits="userSpaceOnUse">
<stop stop-color="#DE3C14"/>
<stop offset="0.07" stop-color="#C72E10"/>
<stop offset="0.19" stop-color="#AB1C0C"/>
<stop offset="0.3" stop-color="#971009"/>
<stop offset="0.41" stop-color="#8B0807"/>
<stop offset="0.52" stop-color="#870606"/>
<stop offset="0.62" stop-color="#8C0707"/>
<stop offset="0.73" stop-color="#9A0808"/>
<stop offset="0.85" stop-color="#B20B0B"/>
<stop offset="0.97" stop-color="#D30E0E"/>
<stop offset="1" stop-color="#DB0F0F"/>
</linearGradient>
<linearGradient id="paint7_linear_6456_59498" x1="62.4688" y1="114.14" x2="87.4587" y2="114.14" gradientUnits="userSpaceOnUse">
<stop stop-color="#DE3C14"/>
<stop offset="0.07" stop-color="#C72E10"/>
<stop offset="0.19" stop-color="#AB1C0C"/>
<stop offset="0.3" stop-color="#971009"/>
<stop offset="0.41" stop-color="#8B0807"/>
<stop offset="0.52" stop-color="#870606"/>
<stop offset="0.62" stop-color="#8C0707"/>
<stop offset="0.73" stop-color="#9A0808"/>
<stop offset="0.85" stop-color="#B20B0B"/>
<stop offset="0.97" stop-color="#D30E0E"/>
<stop offset="1" stop-color="#DB0F0F"/>
</linearGradient>
<linearGradient id="paint8_linear_6456_59498" x1="29" y1="114.14" x2="53.98" y2="114.14" gradientUnits="userSpaceOnUse">
<stop stop-color="#B41E2D"/>
<stop offset="1" stop-color="#E54136"/>
</linearGradient>
<linearGradient id="paint9_linear_6456_59498" x1="62.4687" y1="114.14" x2="87.4587" y2="114.14" gradientUnits="userSpaceOnUse">
<stop stop-color="#B41E2D"/>
<stop offset="1" stop-color="#E54136"/>
</linearGradient>
<linearGradient id="paint10_linear_6456_59498" x1="11.6" y1="86.6102" x2="11.6" y2="65.8602" gradientUnits="userSpaceOnUse">
<stop stop-color="#CA6B34"/>
<stop offset="0.67" stop-color="#FFA933"/>
<stop offset="1" stop-color="#FFBD2B"/>
</linearGradient>
<linearGradient id="paint11_linear_6456_59498" x1="14.0205" y1="75.4398" x2="14.0205" y2="85.1298" gradientUnits="userSpaceOnUse">
<stop stop-color="#C10065"/>
<stop offset="1" stop-color="white"/>
</linearGradient>
<linearGradient id="paint12_linear_6456_59498" x1="104.86" y1="86.6102" x2="104.86" y2="65.8602" gradientUnits="userSpaceOnUse">
<stop stop-color="#CA6B34"/>
<stop offset="0.67" stop-color="#FFA933"/>
<stop offset="1" stop-color="#FFBD2B"/>
</linearGradient>
<linearGradient id="paint13_linear_6456_59498" x1="102.439" y1="75.4398" x2="102.439" y2="85.1298" gradientUnits="userSpaceOnUse">
<stop stop-color="#C10065"/>
<stop offset="1" stop-color="white"/>
</linearGradient>
<linearGradient id="paint14_linear_6456_59498" x1="58.3806" y1="115.1" x2="58.3806" y2="32.61" gradientUnits="userSpaceOnUse">
<stop stop-color="#CA6B34"/>
<stop offset="0.67" stop-color="#FFA933"/>
<stop offset="1" stop-color="#FFBD2B"/>
</linearGradient>
<linearGradient id="paint15_linear_6456_59498" x1="58.3817" y1="18.1002" x2="58.3817" y2="101.02" gradientUnits="userSpaceOnUse">
<stop stop-color="#CA6B34"/>
<stop offset="0.17" stop-color="#CC6E34"/>
<stop offset="0.29" stop-color="#D27733"/>
<stop offset="0.39" stop-color="#DB8631"/>
<stop offset="0.48" stop-color="#E99B2F"/>
<stop offset="0.57" stop-color="#FBB72C"/>
<stop offset="0.59" stop-color="#FFBD2B"/>
<stop offset="1" stop-color="#FFA933"/>
</linearGradient>
<linearGradient id="paint16_linear_6456_59498" x1="58.3808" y1="102.87" x2="58.3808" y2="27.8301" gradientUnits="userSpaceOnUse">
<stop stop-color="#B75014"/>
<stop offset="0.38" stop-color="#E8692A"/>
<stop offset="1" stop-color="#F58E2F"/>
</linearGradient>
<linearGradient id="paint17_linear_6456_59498" x1="23.7893" y1="67.9902" x2="23.7893" y2="90.6202" gradientUnits="userSpaceOnUse">
<stop stop-color="#C10065"/>
<stop offset="1" stop-color="white"/>
</linearGradient>
<linearGradient id="paint18_linear_6456_59498" x1="92.8185" y1="67.9902" x2="92.8185" y2="90.6202" gradientUnits="userSpaceOnUse">
<stop stop-color="#C10065"/>
<stop offset="1" stop-color="white"/>
</linearGradient>
<linearGradient id="paint19_linear_6456_59498" x1="40.1318" y1="88.6701" x2="40.1318" y2="112.06" gradientUnits="userSpaceOnUse">
<stop stop-color="#C10065"/>
<stop offset="1" stop-color="white"/>
</linearGradient>
<linearGradient id="paint20_linear_6456_59498" x1="76.6293" y1="88.6798" x2="76.6293" y2="112.52" gradientUnits="userSpaceOnUse">
<stop stop-color="#C10065"/>
<stop offset="1" stop-color="white"/>
</linearGradient>
<linearGradient id="paint21_linear_6456_59498" x1="58.2317" y1="32.0301" x2="58.2317" y2="91.8201" gradientUnits="userSpaceOnUse">
<stop stop-color="#CA6B34"/>
<stop offset="0.67" stop-color="#FFA933"/>
<stop offset="1" stop-color="#FFBD2B"/>
</linearGradient>
<linearGradient id="paint22_linear_6456_59498" x1="58.2317" y1="100.52" x2="58.2317" y2="73.8198" gradientUnits="userSpaceOnUse">
<stop stop-color="#F1CB3C"/>
<stop offset="1" stop-color="#FFC14F"/>
</linearGradient>
<linearGradient id="paint23_linear_6456_59498" x1="78.7716" y1="67.1201" x2="78.7716" y2="97.8901" gradientUnits="userSpaceOnUse">
<stop stop-color="#C10065"/>
<stop offset="1" stop-color="white"/>
</linearGradient>
<linearGradient id="paint24_linear_6456_59498" x1="58.2317" y1="22.2698" x2="58.2317" y2="82.0598" gradientUnits="userSpaceOnUse">
<stop stop-color="#CA6B34"/>
<stop offset="0.67" stop-color="#FFA933"/>
<stop offset="1" stop-color="#FFBD2B"/>
</linearGradient>
<linearGradient id="paint25_linear_6456_59498" x1="58.2317" y1="87.7098" x2="58.2317" y2="61.0098" gradientUnits="userSpaceOnUse">
<stop stop-color="#F1CB3C"/>
<stop offset="1" stop-color="#FFC14F"/>
</linearGradient>
<linearGradient id="paint26_linear_6456_59498" x1="78.7716" y1="54.3098" x2="78.7716" y2="85.0798" gradientUnits="userSpaceOnUse">
<stop stop-color="#C10065"/>
<stop offset="1" stop-color="white"/>
</linearGradient>
<linearGradient id="paint27_linear_6456_59498" x1="58.4408" y1="69.51" x2="58.4408" y2="40.92" gradientUnits="userSpaceOnUse">
<stop stop-color="#CA6B34"/>
<stop offset="0.67" stop-color="#FFA933"/>
<stop offset="1" stop-color="#FFBD2B"/>
</linearGradient>
<linearGradient id="paint28_linear_6456_59498" x1="52.19" y1="54.1899" x2="52.19" y2="60.3499" gradientUnits="userSpaceOnUse">
<stop stop-color="#C10065"/>
<stop offset="1" stop-color="white"/>
</linearGradient>
<linearGradient id="paint29_linear_6456_59498" x1="64.8311" y1="54.1899" x2="64.8311" y2="60.3499" gradientUnits="userSpaceOnUse">
<stop stop-color="#C10065"/>
<stop offset="1" stop-color="white"/>
</linearGradient>
<linearGradient id="paint30_linear_6456_59498" x1="54.5981" y1="57.5601" x2="54.5981" y2="69.0601" gradientUnits="userSpaceOnUse">
<stop stop-color="#C10065"/>
<stop offset="1" stop-color="white"/>
</linearGradient>
<linearGradient id="paint31_linear_6456_59498" x1="62.3084" y1="57.5601" x2="62.3084" y2="69.0601" gradientUnits="userSpaceOnUse">
<stop stop-color="#C10065"/>
<stop offset="1" stop-color="white"/>
</linearGradient>
<linearGradient id="paint32_linear_6456_59498" x1="59.5484" y1="46.89" x2="61.2984" y2="62.93" gradientUnits="userSpaceOnUse">
<stop stop-color="#BFD7FF"/>
<stop offset="1"/>
</linearGradient>
<linearGradient id="paint33_linear_6456_59498" x1="58.6211" y1="55.2399" x2="71.0411" y2="55.2399" gradientUnits="userSpaceOnUse">
<stop stop-color="#BFD7FF"/>
<stop offset="1"/>
</linearGradient>
<linearGradient id="paint34_linear_6456_59498" x1="63.8011" y1="46.4299" x2="65.5511" y2="62.4699" gradientUnits="userSpaceOnUse">
<stop stop-color="#BFD7FF"/>
<stop offset="1"/>
</linearGradient>
<linearGradient id="paint35_linear_6456_59498" x1="51.31" y1="47.7899" x2="53.06" y2="63.8299" gradientUnits="userSpaceOnUse">
<stop stop-color="#BFD7FF"/>
<stop offset="1"/>
</linearGradient>
<linearGradient id="paint36_linear_6456_59498" x1="40.2602" y1="51.8302" x2="40.2602" y2="38.6102" gradientUnits="userSpaceOnUse">
<stop stop-color="#CA6B34"/>
<stop offset="0.67" stop-color="#FFA933"/>
<stop offset="1" stop-color="#FFBD2B"/>
</linearGradient>
<linearGradient id="paint37_linear_6456_59498" x1="37.3589" y1="44.7402" x2="37.3589" y2="47.5902" gradientUnits="userSpaceOnUse">
<stop stop-color="#C10065"/>
<stop offset="1" stop-color="white"/>
</linearGradient>
<linearGradient id="paint38_linear_6456_59498" x1="43.2098" y1="44.7402" x2="43.2098" y2="47.5902" gradientUnits="userSpaceOnUse">
<stop stop-color="#C10065"/>
<stop offset="1" stop-color="white"/>
</linearGradient>
<linearGradient id="paint39_linear_6456_59498" x1="38.4811" y1="46.2998" x2="38.4811" y2="51.6198" gradientUnits="userSpaceOnUse">
<stop stop-color="#C10065"/>
<stop offset="1" stop-color="white"/>
</linearGradient>
<linearGradient id="paint40_linear_6456_59498" x1="42.0405" y1="46.2998" x2="42.0405" y2="51.6198" gradientUnits="userSpaceOnUse">
<stop stop-color="#C10065"/>
<stop offset="1" stop-color="white"/>
</linearGradient>
<linearGradient id="paint41_linear_6456_59498" x1="40.7705" y1="41.3702" x2="41.5805" y2="48.7902" gradientUnits="userSpaceOnUse">
<stop stop-color="#BFD7FF"/>
<stop offset="1"/>
</linearGradient>
<linearGradient id="paint42_linear_6456_59498" x1="40.3398" y1="45.2302" x2="46.0798" y2="45.2302" gradientUnits="userSpaceOnUse">
<stop stop-color="#BFD7FF"/>
<stop offset="1"/>
</linearGradient>
<linearGradient id="paint43_linear_6456_59498" x1="42.7298" y1="41.1502" x2="43.5398" y2="48.5702" gradientUnits="userSpaceOnUse">
<stop stop-color="#BFD7FF"/>
<stop offset="1"/>
</linearGradient>
<linearGradient id="paint44_linear_6456_59498" x1="36.9489" y1="41.7802" x2="37.7589" y2="49.2002" gradientUnits="userSpaceOnUse">
<stop stop-color="#BFD7FF"/>
<stop offset="1"/>
</linearGradient>
<linearGradient id="paint45_linear_6456_59498" x1="76.7406" y1="51.8302" x2="76.7406" y2="38.6102" gradientUnits="userSpaceOnUse">
<stop stop-color="#CA6B34"/>
<stop offset="0.67" stop-color="#FFA933"/>
<stop offset="1" stop-color="#FFBD2B"/>
</linearGradient>
<linearGradient id="paint46_linear_6456_59498" x1="73.8511" y1="44.7402" x2="73.8511" y2="47.5902" gradientUnits="userSpaceOnUse">
<stop stop-color="#C10065"/>
<stop offset="1" stop-color="white"/>
</linearGradient>
<linearGradient id="paint47_linear_6456_59498" x1="79.6981" y1="44.7402" x2="79.6981" y2="47.5902" gradientUnits="userSpaceOnUse">
<stop stop-color="#C10065"/>
<stop offset="1" stop-color="white"/>
</linearGradient>
<linearGradient id="paint48_linear_6456_59498" x1="74.9594" y1="46.2998" x2="74.9594" y2="51.6198" gradientUnits="userSpaceOnUse">
<stop stop-color="#C10065"/>
<stop offset="1" stop-color="white"/>
</linearGradient>
<linearGradient id="paint49_linear_6456_59498" x1="78.5288" y1="46.2998" x2="78.5288" y2="51.6198" gradientUnits="userSpaceOnUse">
<stop stop-color="#C10065"/>
<stop offset="1" stop-color="white"/>
</linearGradient>
<linearGradient id="paint50_linear_6456_59498" x1="77.2587" y1="41.3702" x2="78.0587" y2="48.7902" gradientUnits="userSpaceOnUse">
<stop stop-color="#BFD7FF"/>
<stop offset="1"/>
</linearGradient>
<linearGradient id="paint51_linear_6456_59498" x1="76.8181" y1="45.2302" x2="82.5681" y2="45.2302" gradientUnits="userSpaceOnUse">
<stop stop-color="#BFD7FF"/>
<stop offset="1"/>
</linearGradient>
<linearGradient id="paint52_linear_6456_59498" x1="79.2181" y1="41.1502" x2="80.0281" y2="48.5702" gradientUnits="userSpaceOnUse">
<stop stop-color="#BFD7FF"/>
<stop offset="1"/>
</linearGradient>
<linearGradient id="paint53_linear_6456_59498" x1="73.4411" y1="41.7802" x2="74.2511" y2="49.2002" gradientUnits="userSpaceOnUse">
<stop stop-color="#BFD7FF"/>
<stop offset="1"/>
</linearGradient>
</defs>
</svg>
