<svg width="82" height="97" viewBox="0 0 82 97" fill="none" xmlns="http://www.w3.org/2000/svg">
<path d="M41.1189 0L3.12891 21.93V74.27L41.1189 96.2L79.1089 74.27V21.93L41.1189 0Z" fill="url(#paint0_linear_6456_58868)"/>
<path d="M10 70.2997V25.8997L41.12 7.92969L72.24 25.8997V70.2997L41.12 88.2697L10 70.2997Z" fill="url(#paint1_linear_6456_58868)"/>
<path d="M12.2891 68.9801V27.2201L41.1191 10.5801L69.9491 27.2201V68.9801L41.1191 85.6201L12.2891 68.9801Z" fill="url(#paint2_linear_6456_58868)"/>
<g style="mix-blend-mode:soft-light" opacity="0.5">
<path d="M4.08055 22.07C3.61055 23.48 7.65055 25.21 10.4906 24.59C13.3306 23.97 40.0706 8.29 40.7206 6.88C40.916 4.92487 40.916 2.95513 40.7206 1C39.7806 1 4.31055 21.39 4.08055 22.07Z" fill="white"/>
</g>
<g style="mix-blend-mode:soft-light" opacity="0.5">
<path d="M78.0004 22.07C78.4704 23.48 74.4304 25.21 71.5904 24.59C68.7504 23.97 42.2404 8.14 41.3404 6.88C40.8704 6.23 40.7204 1 41.3404 1C42.2804 1 77.7504 21.39 78.0004 22.07Z" fill="white"/>
</g>
<path style="mix-blend-mode:multiply" opacity="0.37" d="M3.99968 51.8402C3.74968 53.4002 3.11968 73.2102 3.99968 73.3602C4.87968 73.5102 8.99968 70.6902 9.22968 69.3602C9.45968 68.0302 9.52968 54.4802 9.22968 53.1802C8.92968 51.8802 4.46968 49.2302 3.99968 51.8402Z" fill="url(#paint3_linear_6456_58868)"/>
<path style="mix-blend-mode:multiply" opacity="0.37" d="M78.0507 51.8402C78.3107 53.4002 78.9307 73.2102 78.0507 73.3602C77.1707 73.5102 73.0507 70.6902 72.8207 69.3602C72.5907 68.0302 72.5207 54.4802 72.8207 53.1802C73.1207 51.8802 77.6307 49.2302 78.0507 51.8402Z" fill="url(#paint4_linear_6456_58868)"/>
<path style="mix-blend-mode:multiply" opacity="0.37" d="M5.00177 73.9001C5.46177 74.5801 39.6818 94.8101 40.1918 94.8101C40.4518 94.8101 40.8018 89.8101 40.8018 89.2201C40.8018 87.6601 10.5418 71.5901 10.0118 71.4401C9.22177 71.2201 4.53177 73.2201 5.00177 73.9001Z" fill="url(#paint5_linear_6456_58868)"/>
<path style="mix-blend-mode:multiply" opacity="0.37" d="M77.3091 74.4298C76.8491 75.1098 41.9891 95.2698 41.4791 95.2698C41.3426 93.107 41.3794 90.9368 41.5891 88.7798C42.6991 87.6798 71.5891 71.5898 72.0791 71.4398C72.8591 71.2198 77.7691 73.7398 77.3091 74.4298Z" fill="url(#paint6_linear_6456_58868)"/>
<path style="mix-blend-mode:multiply" opacity="0.37" d="M13.6085 67.8699C11.6085 56.2999 12.7085 55.5699 27.0585 50.6799C41.4085 45.7899 65.6885 33.1899 67.8185 38.6799C69.9485 44.1699 69.2185 67.4299 68.7385 68.6799C68.2585 69.9299 43.1885 84.3599 41.1185 84.3899C39.0485 84.4199 13.8385 69.1699 13.6085 67.8699Z" fill="url(#paint7_linear_6456_58868)"/>
<g style="mix-blend-mode:soft-light" opacity="0.5">
<path d="M69.329 27.5101C68.819 27.3901 42.769 12.3301 41.329 12.4401C39.889 12.5501 21.779 21.0401 14.329 27.4401C12.329 29.1501 13.069 54.6901 14.899 54.2201C16.729 53.7501 18.099 43.4301 38.259 37.6301C58.109 31.9101 66.749 36.8601 68.899 37.7401C69.489 38.0001 70.479 27.7901 69.329 27.5101Z" fill="white"/>
</g>
<g style="mix-blend-mode:multiply" opacity="0.6">
<path d="M10 70.3004V25.9004L41.12 7.90039L72.24 25.9004V70.3004L70 69.0004C70 69.0004 70.14 30.4004 69.31 29.1904C66.31 24.8704 43.31 14.3704 39.55 15.5404C35.79 16.7104 15.16 25.4304 12.87 29.1004C12.1 30.3304 12.29 69.0004 12.29 69.0004L10 70.3004Z" fill="#D01BDC"/>
</g>
<g style="mix-blend-mode:soft-light" opacity="0.5">
<path d="M46.9402 31.9998C54.6902 35.5398 66.3702 35.5998 67.4402 34.9198C68.5102 34.2398 69.2202 29.2798 67.5402 28.4398C65.8602 27.5998 52.5402 20.5098 49.0402 21.2698C45.5402 22.0298 45.5602 31.3398 46.9402 31.9998Z" fill="white"/>
</g>
<path opacity="0.8" d="M3.13109 37.88C3.13109 37.76 3.46109 23.12 4.13109 22.07C4.80109 21.02 40.3011 1.28 41.3411 1C42.3811 0.72 55.7111 8.42 55.7111 8.42L41.1211 0L3.12109 21.93L3.13109 37.88Z" fill="#700000"/>
<path d="M54.7188 15.7803C54.7188 15.7803 71.4087 25.2803 71.6387 26.3503C71.8687 27.4203 72.2387 56.1103 72.2387 56.1103C72.2387 56.1103 72.3987 27.1103 72.2387 25.9003C72.0787 24.6903 54.7188 15.7803 54.7188 15.7803Z" fill="white"/>
<path d="M10.0018 50.2297C10.0018 50.2297 9.4518 26.2297 9.7318 25.4497C10.0118 24.6697 41.1218 7.92969 41.1218 7.92969C41.1218 7.92969 11.1218 25.1097 10.4618 26.1997C9.8018 27.2897 10.0018 50.2297 10.0018 50.2297Z" fill="white"/>
<path opacity="0.8" d="M3.13054 74.2701L41.1305 96.2001L79.1305 74.2701V62.3501C79.1305 62.3501 78.8105 72.7501 78.0405 74.0501C77.2705 75.3501 43.2105 95.1401 41.4805 95.2701C39.7505 95.4001 5.00054 74.7401 4.00054 73.3601C3.00054 71.9801 3.13054 47.6001 3.13054 47.6001V74.2701Z" fill="#700000"/>
<path d="M10.0002 58.9399C10.0002 58.9399 9.89016 69.1799 10.4602 69.9999C11.0302 70.8199 25.7902 79.3899 25.7902 79.3899C25.7902 79.3899 9.79016 71.1199 9.65016 70.5899C9.51016 70.0599 10.0002 58.9399 10.0002 58.9399Z" fill="white"/>
<g style="mix-blend-mode:soft-light" opacity="0.5">
<path d="M22.8512 79.6201C21.7312 79.6201 18.5912 80.8901 19.2712 81.6201C19.9512 82.3501 38.6512 93.6201 40.7912 94.4201C41.4812 94.6801 41.4212 90.2301 40.4812 88.7901C40.0812 88.1801 26.3312 79.6101 22.8512 79.6201Z" fill="white"/>
</g>
<path d="M54.4985 8.63997C53.5885 8.87997 56.6385 12.72 58.0885 13.07C59.5385 13.42 61.5185 12.38 60.8285 11.67C60.1385 10.96 55.9085 8.25997 54.4985 8.63997Z" fill="white"/>
<path d="M61.2601 12.4399C59.8701 12.8099 62.4201 18.8799 63.5101 19.9499C64.6001 21.0199 74.3001 22.9499 74.0801 21.1799C73.8601 19.4099 63.2001 11.9199 61.2601 12.4399Z" fill="white"/>
<g style="mix-blend-mode:multiply" opacity="0.3">
<path d="M58.6387 79.7299C57.8187 83.2999 57.9487 85.4099 58.4087 85.4299C58.8687 85.4499 75.4787 75.4499 75.9387 74.9999C76.3987 74.5499 73.2687 71.6899 71.9387 71.8899C70.6087 72.0899 58.9987 78.3899 58.6387 79.7299Z" fill="#D01BDC"/>
</g>
<g style="mix-blend-mode:multiply" opacity="0.3">
<path d="M12.0001 26.9202C11.6001 25.7202 10.3701 25.7202 10.2601 27.0702C10.1501 28.4202 9.95006 53.2902 10.4401 53.3202C10.9301 53.3502 12.0001 52.1402 12.0001 51.5702C12.0001 51.0002 12.2101 27.4902 12.0001 26.9202Z" fill="#D01BDC"/>
</g>
<g style="mix-blend-mode:multiply" opacity="0.3">
<path d="M70.2219 27.0698C70.1619 27.5498 69.9219 51.0698 70.2219 51.0698C70.5219 51.0698 71.9019 49.9698 71.9019 49.3898C71.9019 48.8098 71.5619 26.6198 71.4119 26.4998C71.2619 26.3798 70.2819 26.6898 70.2219 27.0698Z" fill="#D01BDC"/>
</g>
<g style="mix-blend-mode:multiply" opacity="0.3">
<path d="M41.1192 10.1904C41.1192 10.6504 27.7292 18.2904 27.4192 18.2904C27.1092 18.2904 27.2192 16.2304 27.6492 15.9504C28.0792 15.6704 40.9992 7.87038 41.1192 8.13038C41.1693 8.81613 41.1693 9.50463 41.1192 10.1904Z" fill="#D01BDC"/>
</g>
<path d="M68.7507 72.0801C67.9007 72.0801 65.0107 73.7301 65.2307 74.5501C65.4507 75.3701 67.2307 76.2601 67.6907 75.7801C68.1507 75.3001 69.3107 72.1001 68.7507 72.0801Z" fill="#CC1F38"/>
<path d="M69.8482 72.66C69.5582 72.93 68.9182 73.89 69.5282 74.36C70.1382 74.83 71.9282 73.59 71.6682 73.23C71.4082 72.87 70.2282 72.31 69.8482 72.66Z" fill="#CC1F38"/>
<g style="mix-blend-mode:multiply" opacity="0.3">
<path d="M65.6499 73.7299C64.9399 74.7299 67.8599 75.3299 68.2399 74.5199C68.6199 73.7099 69.2399 71.9999 68.7499 72.0799C67.624 72.435 66.5732 72.9943 65.6499 73.7299Z" fill="#D01BDC"/>
</g>
<path d="M65.2388 74.3101C65.4377 74.872 65.8316 75.3439 66.3488 75.6401C67.0288 76.0401 67.6088 75.9501 67.7788 75.6401C67.6106 75.84 67.3792 75.9766 67.123 76.0275C66.8667 76.0784 66.6007 76.0405 66.3688 75.9201C64.9988 75.2901 65.2388 74.3101 65.2388 74.3101Z" fill="#DAE1EF"/>
<g style="mix-blend-mode:multiply" opacity="0.3">
<path d="M70.1786 72.6898C69.5186 73.3998 70.0286 74.4198 70.3986 74.3598C70.7686 74.2998 71.8786 73.5798 71.6686 73.2298C71.4586 72.8798 70.3186 72.5298 70.1786 72.6898Z" fill="#D01BDC"/>
</g>
<path d="M69.8513 72.6602C69.8513 72.6602 69.2513 73.4902 69.4913 73.9702C69.7313 74.4502 70.0813 74.4501 70.0813 74.4501C70.0813 74.4501 69.2913 74.9102 69.1513 74.3702C68.9013 73.4502 69.8513 72.6602 69.8513 72.6602Z" fill="#DAE1EF"/>
<path d="M37.2082 9.93018C35.1582 9.39018 33.5082 10.7202 32.6082 11.7402C31.7082 12.7602 32.2082 13.3602 33.3382 13.1602C34.4682 12.9602 38.0682 10.1602 37.2082 9.93018Z" fill="#CC1F38"/>
<g style="mix-blend-mode:multiply" opacity="0.3">
<path d="M37.2115 9.93C36.5653 9.80104 35.8984 9.81854 35.2598 9.98121C34.6213 10.1439 34.0273 10.4476 33.5215 10.87C32.9715 11.35 34.0515 12.74 34.8015 12.44C35.5515 12.14 37.8415 10.15 37.2115 9.93Z" fill="#D01BDC"/>
</g>
<path d="M33.1311 11.21C33.1311 11.21 30.8111 12.72 31.0711 13.47C31.3311 14.22 34.0711 12.86 34.0711 12.86C34.0711 12.86 32.6411 13.32 32.3111 12.69C31.9811 12.06 33.1311 11.21 33.1311 11.21Z" fill="white"/>
<path d="M11.3209 70.6102C10.2409 70.8802 13.4609 73.0902 14.2309 73.2102C15.0009 73.3302 14.2309 71.3802 13.8709 71.0402C13.0733 70.6757 12.1939 70.5274 11.3209 70.6102Z" fill="white"/>
<path d="M41.09 72.7401L1.87 49.8701C0.94823 52.0092 0.319225 54.2629 0 56.5701L2.56 60.8901L41.09 83.2701L79.62 60.8901L81.94 56.5701C81.8693 54.272 81.3954 52.0042 80.54 49.8701L41.09 72.7401Z" fill="url(#paint8_linear_6456_58868)"/>
<path d="M2.56 60.8898L0 56.5698L41.09 80.6398L81.94 56.5698L79.62 60.8898L41.09 83.2698L2.56 60.8898Z" fill="url(#paint9_linear_6456_58868)"/>
<g style="mix-blend-mode:multiply" opacity="0.6">
<path d="M0 56.5698L2.56 60.8898L3.14 61.2498V62.5398C3.14 62.5398 5.34 63.6598 9.66 66.0498C9.8 66.1298 12.37 68.8398 12.37 68.8398C12.37 68.8398 40.12 85.6198 41.12 85.6198C42.42 85.6198 70 68.4698 70 68.4698C70 68.4698 72.15 66.6698 72.36 66.5398L79.11 62.9998V61.1898L79.62 60.8898L81.94 56.5698L41.09 80.6398L0 56.5698Z" fill="#D01BDC"/>
</g>
<path style="mix-blend-mode:multiply" opacity="0.69" d="M41.0898 72.7401V80.6401L81.9398 56.5701C81.8326 54.2765 81.36 52.0147 80.5398 49.8701L41.0898 72.7401Z" fill="url(#paint10_linear_6456_58868)"/>
<g style="mix-blend-mode:soft-light" opacity="0.5">
<path d="M3.88836 51.6001C3.13836 51.6001 3.75836 58.2501 6.02836 59.7701C9.64836 62.2001 31.4784 75.0601 32.9084 75.0801C33.9084 75.0801 33.8484 69.4501 33.5484 69.0101C32.9984 68.1801 4.99836 51.6001 3.88836 51.6001Z" fill="white"/>
</g>
<g style="mix-blend-mode:soft-light" opacity="0.5">
<path d="M53.2214 65.9202C52.7514 66.4102 52.8114 72.6202 53.6214 72.4302C60.2135 69.2297 66.5636 65.5533 72.6214 61.4302C78.4314 57.1602 79.2514 51.5202 77.9514 51.6502C77.9214 51.6102 54.1914 64.9102 53.2214 65.9202Z" fill="white"/>
</g>
<path d="M21.1094 68.9302C21.1094 68.9302 39.8894 80.2002 41.1094 80.2002C42.3294 80.2002 57.2994 71.1002 57.2994 71.1002C57.2994 71.1002 41.5694 81.1002 41.1394 81.1002C40.7094 81.1002 21.1094 68.9302 21.1094 68.9302Z" fill="white"/>
<defs>
<linearGradient id="paint0_linear_6456_58868" x1="41.1189" y1="97.85" x2="41.1189" y2="15.36" gradientUnits="userSpaceOnUse">
<stop stop-color="#F77F5C"/>
<stop offset="0.37" stop-color="#E5552F"/>
<stop offset="0.49" stop-color="#E65A33"/>
<stop offset="0.64" stop-color="#E9693E"/>
<stop offset="0.81" stop-color="#EF8150"/>
<stop offset="0.99" stop-color="#F6A36A"/>
<stop offset="1" stop-color="#F7A66C"/>
</linearGradient>
<linearGradient id="paint1_linear_6456_58868" x1="41.12" y1="0.849688" x2="41.12" y2="83.7697" gradientUnits="userSpaceOnUse">
<stop stop-color="#E5552F"/>
<stop offset="0.2" stop-color="#E65A33"/>
<stop offset="0.44" stop-color="#E9693E"/>
<stop offset="0.7" stop-color="#EF8150"/>
<stop offset="0.98" stop-color="#F6A36A"/>
<stop offset="1" stop-color="#F7A66C"/>
</linearGradient>
<linearGradient id="paint2_linear_6456_58868" x1="41.1191" y1="85.6201" x2="41.1191" y2="10.5801" gradientUnits="userSpaceOnUse">
<stop stop-color="#F77F5C"/>
<stop offset="0.37" stop-color="#E5552F"/>
<stop offset="0.49" stop-color="#E65A33"/>
<stop offset="0.64" stop-color="#E9693E"/>
<stop offset="0.81" stop-color="#EF8150"/>
<stop offset="0.99" stop-color="#F6A36A"/>
<stop offset="1" stop-color="#F7A66C"/>
</linearGradient>
<linearGradient id="paint3_linear_6456_58868" x1="6.52968" y1="50.7402" x2="6.52968" y2="73.3702" gradientUnits="userSpaceOnUse">
<stop stop-color="#C10065"/>
<stop offset="1" stop-color="white"/>
</linearGradient>
<linearGradient id="paint4_linear_6456_58868" x1="75.5607" y1="50.7402" x2="75.5607" y2="73.3702" gradientUnits="userSpaceOnUse">
<stop stop-color="#C10065"/>
<stop offset="1" stop-color="white"/>
</linearGradient>
<linearGradient id="paint5_linear_6456_58868" x1="22.8718" y1="71.4201" x2="22.8718" y2="94.8101" gradientUnits="userSpaceOnUse">
<stop stop-color="#C10065"/>
<stop offset="1" stop-color="white"/>
</linearGradient>
<linearGradient id="paint6_linear_6456_58868" x1="59.3691" y1="71.4298" x2="59.3691" y2="95.2698" gradientUnits="userSpaceOnUse">
<stop stop-color="#C10065"/>
<stop offset="1" stop-color="white"/>
</linearGradient>
<linearGradient id="paint7_linear_6456_58868" x1="41.0385" y1="37.3099" x2="41.0385" y2="84.3899" gradientUnits="userSpaceOnUse">
<stop stop-color="#C10065"/>
<stop offset="1" stop-color="white"/>
</linearGradient>
<linearGradient id="paint8_linear_6456_58868" x1="40.97" y1="11.9601" x2="40.97" y2="71.7401" gradientUnits="userSpaceOnUse">
<stop stop-color="#F77F5C"/>
<stop offset="0.37" stop-color="#E5552F"/>
<stop offset="0.49" stop-color="#E65A33"/>
<stop offset="0.64" stop-color="#E9693E"/>
<stop offset="0.81" stop-color="#EF8150"/>
<stop offset="0.99" stop-color="#F6A36A"/>
<stop offset="1" stop-color="#F7A66C"/>
</linearGradient>
<linearGradient id="paint9_linear_6456_58868" x1="40.97" y1="83.2698" x2="40.97" y2="56.5698" gradientUnits="userSpaceOnUse">
<stop stop-color="#F1CB3C"/>
<stop offset="1" stop-color="#FFC14F"/>
</linearGradient>
<linearGradient id="paint10_linear_6456_58868" x1="61.5198" y1="49.8701" x2="61.5198" y2="80.6401" gradientUnits="userSpaceOnUse">
<stop stop-color="#C10065"/>
<stop offset="1" stop-color="white"/>
</linearGradient>
</defs>
</svg>
