<svg width="261" height="316" viewBox="0 0 261 316" fill="none" xmlns="http://www.w3.org/2000/svg">
<g filter="url(#filter0_b_6924_91283)">
<path d="M25 302.983C22.2386 302.983 20 300.745 20 297.983L20 4.99982C20 2.2384 22.2386 -0.000183203 25 -0.000183323L57 -0.000184712L57 302.983L25 302.983Z" fill="url(#paint0_linear_6924_91283)"/>
<path d="M21 297.983L21 4.99982C21 2.79068 22.7908 0.999817 25 0.999817L56 0.999815L56 301.983L25 301.983C22.7909 301.983 21 300.193 21 297.983Z" stroke="url(#paint1_linear_6924_91283)" stroke-width="2"/>
</g>
<g filter="url(#filter1_b_6924_91283)">
<path d="M235 -3.53779e-07C237.761 -1.58392e-07 240 2.23858 240 5L240 297.984C240 300.745 237.761 302.984 235 302.984L203 302.984L203 -2.61797e-06L235 -3.53779e-07Z" fill="url(#paint2_linear_6924_91283)"/>
<path d="M239 5L239 297.984C239 300.193 237.209 301.984 235 301.984L204 301.984L204 0.999997L235 1C237.209 1 239 2.79086 239 5Z" stroke="url(#paint3_linear_6924_91283)" stroke-width="2"/>
</g>
<mask id="path-5-inside-1_6924_91283" fill="white">
<path fill-rule="evenodd" clip-rule="evenodd" d="M17 10C17 4.47715 21.4772 0 27 0H233C238.523 0 243 4.47715 243 10V116.123C243 119.396 241.398 122.462 238.711 124.332L236.289 126.016C233.602 127.885 232 130.952 232 134.225V157V160V182.775C232 186.048 233.602 189.115 236.289 190.984L238.711 192.668C241.398 194.538 243 197.604 243 200.877V306C243 311.523 238.523 316 233 316H27C21.4772 316 17 311.523 17 306V200.877C17 197.604 18.6021 194.538 21.2894 192.668L23.7106 190.984C26.3979 189.115 28 186.048 28 182.775L28 160V157L28 134.225C28 130.952 26.3979 127.885 23.7106 126.016L21.2894 124.332C18.6021 122.462 17 119.396 17 116.123V10Z"/>
</mask>
<g filter="url(#filter2_i_6924_91283)">
<path fill-rule="evenodd" clip-rule="evenodd" d="M17 10C17 4.47715 21.4772 0 27 0H233C238.523 0 243 4.47715 243 10V116.123C243 119.396 241.398 122.462 238.711 124.332L236.289 126.016C233.602 127.885 232 130.952 232 134.225V157V160V182.775C232 186.048 233.602 189.115 236.289 190.984L238.711 192.668C241.398 194.538 243 197.604 243 200.877V306C243 311.523 238.523 316 233 316H27C21.4772 316 17 311.523 17 306V200.877C17 197.604 18.6021 194.538 21.2894 192.668L23.7106 190.984C26.3979 189.115 28 186.048 28 182.775L28 160V157L28 134.225C28 130.952 26.3979 127.885 23.7106 126.016L21.2894 124.332C18.6021 122.462 17 119.396 17 116.123V10Z" fill="#090E1C"/>
</g>
<path d="M28 160H30H28ZM28 157H26H28ZM21.2894 124.332L22.4315 122.69L21.2894 124.332ZM21.2894 192.668L20.1472 191.026L21.2894 192.668ZM238.711 192.668L237.569 194.31L238.711 192.668ZM23.7106 126.016L22.5685 127.658L23.7106 126.016ZM236.289 126.016L235.147 124.374L236.289 126.016ZM238.711 124.332L239.853 125.974L238.711 124.332ZM236.289 190.984L237.431 189.342L236.289 190.984ZM23.7106 190.984L24.8528 192.626L23.7106 190.984ZM233 -2H27V2H233V-2ZM245 116.123V10H241V116.123H245ZM237.431 127.658L239.853 125.974L237.569 122.69L235.147 124.374L237.431 127.658ZM234 157V134.225H230V157H234ZM234 160V157H230V160H234ZM234 182.775V160H230V182.775H234ZM239.853 191.026L237.431 189.342L235.147 192.626L237.569 194.31L239.853 191.026ZM245 306V200.877H241V306H245ZM27 318H233V314H27V318ZM15 200.877V306H19V200.877H15ZM22.4315 194.31L24.8528 192.626L22.5685 189.342L20.1472 191.026L22.4315 194.31ZM30 182.775L30 160H26L26 182.775H30ZM30 160V157H26V160H30ZM30 157L30 134.225H26L26 157H30ZM24.8528 124.374L22.4315 122.69L20.1472 125.974L22.5685 127.658L24.8528 124.374ZM15 10V116.123H19V10H15ZM22.4315 122.69C20.2817 121.194 19 118.741 19 116.123H15C15 120.051 16.9226 123.73 20.1472 125.974L22.4315 122.69ZM19 200.877C19 198.259 20.2817 195.806 22.4315 194.31L20.1472 191.026C16.9226 193.27 15 196.949 15 200.877H19ZM27 314C22.5817 314 19 310.418 19 306H15C15 312.627 20.3726 318 27 318V314ZM241 306C241 310.418 237.418 314 233 314V318C239.627 318 245 312.627 245 306H241ZM237.569 194.31C239.718 195.806 241 198.259 241 200.877H245C245 196.949 243.077 193.27 239.853 191.026L237.569 194.31ZM30 134.225C30 130.297 28.0774 126.618 24.8528 124.374L22.5685 127.658C24.7183 129.153 26 131.606 26 134.225H30ZM235.147 124.374C231.923 126.618 230 130.297 230 134.225H234C234 131.606 235.282 129.153 237.431 127.658L235.147 124.374ZM241 116.123C241 118.741 239.718 121.194 237.569 122.69L239.853 125.974C243.077 123.73 245 120.051 245 116.123H241ZM230 182.775C230 186.703 231.923 190.382 235.147 192.626L237.431 189.342C235.282 187.847 234 185.394 234 182.775H230ZM27 -2C20.3726 -2 15 3.37258 15 10H19C19 5.58172 22.5817 2 27 2V-2ZM24.8528 192.626C28.0774 190.382 30 186.703 30 182.775H26C26 185.394 24.7183 187.847 22.5685 189.342L24.8528 192.626ZM233 2C237.418 2 241 5.58172 241 10H245C245 3.37258 239.627 -2 233 -2V2Z" fill="url(#paint4_linear_6924_91283)" mask="url(#path-5-inside-1_6924_91283)"/>
<mask id="mask0_6924_91283" style="mask-type:alpha" maskUnits="userSpaceOnUse" x="19" y="2" width="222" height="312">
<path fill-rule="evenodd" clip-rule="evenodd" d="M19 12C19 6.47715 23.4771 2 29 2H231C236.523 2 241 6.47715 241 12V116.602C241 119.867 239.406 122.927 236.73 124.798L234.465 126.382C231.789 128.253 230.195 131.312 230.195 134.577V157.013V159.975V182.41C230.195 185.675 231.789 188.735 234.465 190.606L236.73 192.19C239.406 194.061 241 197.12 241 200.385V304C241 309.523 236.523 314 231 314H29C23.4772 314 19 309.523 19 304V200.386C19 197.121 20.5939 194.062 23.2697 192.191L25.537 190.606C28.2127 188.735 29.8066 185.675 29.8066 182.41L29.8066 157.013L29.8066 134.577C29.8066 131.312 28.2127 128.253 25.537 126.382L23.2697 124.796C20.5939 122.925 19 119.866 19 116.601V12Z" fill="#090E1C"/>
</mask>
<g mask="url(#mask0_6924_91283)">
<rect x="18" y="317" width="317" height="113" transform="rotate(-90 18 317)" fill="#060911"/>
<g style="mix-blend-mode:hard-light" opacity="0.2">
<path style="mix-blend-mode:multiply" opacity="0.5" d="M130.461 128.767L64.0275 165L76.7303 88.2809L23 33.9722L97.244 22.767L130.461 -47L163.677 22.767L238 33.9722L184.191 88.2809L196.894 165L130.461 128.767Z" fill="url(#paint5_linear_6924_91283)"/>
<path d="M230.195 36.5899L194.375 31.1918L184.591 29.7195L161.316 26.2026L130.467 -38.5752L99.6961 26.2026L30.7383 36.5899L80.6025 86.9726L68.8465 158.13L130.467 124.514L192.087 158.13L180.331 86.9726L230.195 36.5899Z" fill="url(#paint6_linear_6924_91283)"/>
<path style="mix-blend-mode:multiply" opacity="0.5" d="M30.4297 36.5908L131.894 64.0723L80.2939 86.9735L30.4297 36.5908Z" fill="url(#paint7_linear_6924_91283)"/>
<path style="mix-blend-mode:multiply" opacity="0.5" d="M229.875 36.5908L131.883 64.0723L180.011 86.9735L229.875 36.5908Z" fill="url(#paint8_linear_6924_91283)"/>
<path style="mix-blend-mode:multiply" opacity="0.5" d="M130.144 124.516L131.88 64.0732L68.4453 158.132L130.144 124.516Z" fill="url(#paint9_linear_6924_91283)"/>
<path style="mix-blend-mode:multiply" opacity="0.5" d="M191.772 158.132L131.888 64.0732L130.152 124.516L191.772 158.132Z" fill="url(#paint10_linear_6924_91283)"/>
<path style="mix-blend-mode:color-dodge" opacity="0.5" d="M130.152 -38.5752L131.888 64.0714L160.923 26.2026L130.152 -38.5752Z" fill="url(#paint11_linear_6924_91283)"/>
<path style="mix-blend-mode:color-dodge" opacity="0.5" d="M229.875 36.5905L131.883 64.072L160.918 26.2031L229.875 36.5905Z" fill="url(#paint12_linear_6924_91283)"/>
<path style="mix-blend-mode:color-dodge" opacity="0.5" d="M229.875 36.5905L131.883 64.072L160.918 26.2031L229.875 36.5905Z" fill="url(#paint13_linear_6924_91283)"/>
<path style="mix-blend-mode:color-dodge" opacity="0.5" d="M99.3086 26.2031L131.894 64.072L30.4297 36.5905L99.3086 26.2031Z" fill="url(#paint14_linear_6924_91283)"/>
<g style="mix-blend-mode:color-dodge" opacity="0.8">
<path d="M160.686 48.6967C155.558 53.1951 159.976 56.1396 159.976 56.1396L186.328 48.6967C182.614 45.8602 178.121 44.3301 173.507 44.3301C168.894 44.3301 164.401 45.8602 160.686 48.6967Z" fill="white"/>
</g>
<path style="mix-blend-mode:multiply" opacity="0.5" d="M68.8477 158.131C68.8477 158.131 115.556 135.312 130.468 128.932L192.246 158.131L130.626 124.516L68.8477 158.131Z" fill="url(#paint15_linear_6924_91283)"/>
<g style="mix-blend-mode:soft-light" opacity="0.4">
<path d="M107.498 14.9977C100.95 33.8095 125.961 46.9776 129.274 41.1705C132.588 35.3634 130.537 3.05637 126.276 -1.3603C122.016 -5.77696 110.181 7.30945 107.498 14.9977Z" fill="#F7FFFF"/>
</g>
<g style="mix-blend-mode:soft-light" opacity="0.4">
<path d="M87.0677 111.592C100.402 113.392 107.818 97.7698 110.737 87.0553C115.077 69.634 63.0034 108.157 87.0677 111.592Z" fill="#F7FFFF"/>
</g>
</g>
</g>
<g filter="url(#filter3_f_6924_91283)">
<ellipse cx="130.5" cy="158" rx="55.5" ry="52" fill="#6E85CF"/>
</g>
<path d="M102.694 52.16C105.56 52.16 106.994 53.3733 106.994 55.8C106.994 56.6933 106.807 57.3933 106.434 57.9C106.06 58.4067 105.494 58.7533 104.734 58.94C105.627 59.1 106.287 59.4467 106.714 59.98C107.154 60.5 107.374 61.24 107.374 62.2C107.374 63.4933 107 64.4533 106.254 65.08C105.507 65.6933 104.407 66 102.954 66H98.5735V52.16H102.694ZM102.954 64.1C103.74 64.1 104.314 63.92 104.674 63.56C105.047 63.2 105.234 62.64 105.234 61.88C105.234 61.2 105.054 60.68 104.694 60.32C104.347 59.9467 103.754 59.76 102.914 59.76H100.734V64.1H102.954ZM100.734 58.1H102.794C103.514 58.1 104.047 57.9333 104.394 57.6C104.754 57.2533 104.934 56.76 104.934 56.12C104.934 54.7467 104.187 54.06 102.694 54.06H100.734V58.1ZM116.558 52.16H118.398V66H116.338V56.42L111.078 66H109.238V52.16H111.298V61.74L116.558 52.16ZM127.639 52.16H129.959L126.679 59.28L130.019 66H127.699L124.959 60.3L122.999 60.3V66H120.839V52.16H122.999V58.18H124.979L127.639 52.16ZM135.85 51.94C136.676 51.94 137.403 52.06 138.03 52.3C138.656 52.5267 139.183 52.86 139.61 53.3C140.036 53.74 140.356 54.2733 140.57 54.9C140.796 55.5133 140.91 56.2 140.91 56.96V61.18C140.91 61.9533 140.796 62.6533 140.57 63.28C140.356 63.8933 140.036 64.42 139.61 64.86C139.183 65.3 138.656 65.64 138.03 65.88C137.403 66.1067 136.676 66.22 135.85 66.22H135.83C135.016 66.22 134.29 66.1 133.65 65.86C133.023 65.62 132.496 65.28 132.07 64.84C131.643 64.4 131.323 63.8733 131.11 63.26C130.896 62.6333 130.79 61.94 130.79 61.18V56.96C130.79 56.2 130.896 55.5133 131.11 54.9C131.336 54.2733 131.656 53.74 132.07 53.3C132.496 52.86 133.023 52.5267 133.65 52.3C134.29 52.06 135.016 51.94 135.83 51.94H135.85ZM135.85 64.2C136.81 64.2 137.536 63.9133 138.03 63.34C138.523 62.7667 138.77 62.0067 138.77 61.06V57.08C138.77 56.1467 138.523 55.3933 138.03 54.82C137.536 54.2467 136.81 53.96 135.85 53.96H135.83C134.87 53.96 134.143 54.2467 133.65 54.82C133.17 55.3933 132.93 56.1467 132.93 57.08V61.06C132.93 62.0067 133.17 62.7667 133.65 63.34C134.143 63.9133 134.87 64.2 135.83 64.2H135.85ZM149.909 58.12V52.16H152.069V66H149.909V60.16H145.069V66H142.909V52.16H145.069V58.12H149.909ZM162.291 52.16V54.24L159.051 54.24V66H156.891V54.24H153.651V52.16H162.291Z" fill="#C0D0FF"/>
<path d="M109.176 44V35.6H112.632C113.376 35.6 114.012 35.72 114.54 35.96C115.076 36.2 115.488 36.544 115.776 36.992C116.064 37.44 116.208 37.972 116.208 38.588C116.208 39.204 116.064 39.736 115.776 40.184C115.488 40.632 115.076 40.976 114.54 41.216C114.012 41.456 113.376 41.576 112.632 41.576H110.04L110.736 40.844V44H109.176ZM110.736 41.012L110.04 40.256H112.56C113.248 40.256 113.764 40.112 114.108 39.824C114.46 39.528 114.636 39.116 114.636 38.588C114.636 38.052 114.46 37.64 114.108 37.352C113.764 37.064 113.248 36.92 112.56 36.92H110.04L110.736 36.152V41.012ZM119.694 44L123.474 35.6H125.01L128.802 44H127.17L123.918 36.428H124.542L121.302 44H119.694ZM121.434 42.056L121.854 40.832H126.39L126.81 42.056H121.434ZM139.494 35.6H141.054V44H139.494V35.6ZM135.15 44H133.59V35.6H135.15V44ZM139.614 40.4H135.018V39.068H139.614V40.4ZM146.922 44V35.6H152.622L152.61 36.92H148.086L148.446 36.548L148.458 44H146.922Z" fill="white"/>
<path d="M59.8773 286.168C59.196 286.168 58.5193 286.079 57.8473 285.902C57.1753 285.715 56.606 285.454 56.1393 285.118L57.0213 283.382C57.3947 283.653 57.8287 283.867 58.3233 284.026C58.818 284.185 59.3173 284.264 59.8213 284.264C60.3907 284.264 60.8387 284.152 61.1653 283.928C61.492 283.704 61.6553 283.396 61.6553 283.004C61.6553 282.631 61.5107 282.337 61.2213 282.122C60.932 281.907 60.4653 281.8 59.8213 281.8H58.7853V280.302L61.5153 277.208L61.7673 278.02H56.6293V276.2H63.4893V277.67L60.7733 280.764L59.6253 280.106H60.2833C61.4873 280.106 62.3973 280.377 63.0133 280.918C63.6293 281.459 63.9373 282.155 63.9373 283.004C63.9373 283.555 63.7927 284.073 63.5033 284.558C63.214 285.034 62.7707 285.421 62.1733 285.72C61.576 286.019 60.8107 286.168 59.8773 286.168ZM69.1845 286.168C68.3818 286.168 67.6631 285.972 67.0285 285.58C66.3938 285.179 65.8945 284.6 65.5305 283.844C65.1665 283.088 64.9845 282.173 64.9845 281.1C64.9845 280.027 65.1665 279.112 65.5305 278.356C65.8945 277.6 66.3938 277.026 67.0285 276.634C67.6631 276.233 68.3818 276.032 69.1845 276.032C69.9965 276.032 70.7151 276.233 71.3405 276.634C71.9751 277.026 72.4745 277.6 72.8385 278.356C73.2025 279.112 73.3845 280.027 73.3845 281.1C73.3845 282.173 73.2025 283.088 72.8385 283.844C72.4745 284.6 71.9751 285.179 71.3405 285.58C70.7151 285.972 69.9965 286.168 69.1845 286.168ZM69.1845 284.25C69.5671 284.25 69.8985 284.143 70.1785 283.928C70.4678 283.713 70.6918 283.373 70.8505 282.906C71.0185 282.439 71.1025 281.837 71.1025 281.1C71.1025 280.363 71.0185 279.761 70.8505 279.294C70.6918 278.827 70.4678 278.487 70.1785 278.272C69.8985 278.057 69.5671 277.95 69.1845 277.95C68.8111 277.95 68.4798 278.057 68.1905 278.272C67.9105 278.487 67.6865 278.827 67.5185 279.294C67.3598 279.761 67.2805 280.363 67.2805 281.1C67.2805 281.837 67.3598 282.439 67.5185 282.906C67.6865 283.373 67.9105 283.713 68.1905 283.928C68.4798 284.143 68.8111 284.25 69.1845 284.25ZM78.6864 286.168C77.8838 286.168 77.1651 285.972 76.5304 285.58C75.8958 285.179 75.3964 284.6 75.0324 283.844C74.6684 283.088 74.4864 282.173 74.4864 281.1C74.4864 280.027 74.6684 279.112 75.0324 278.356C75.3964 277.6 75.8958 277.026 76.5304 276.634C77.1651 276.233 77.8838 276.032 78.6864 276.032C79.4984 276.032 80.2171 276.233 80.8424 276.634C81.4771 277.026 81.9764 277.6 82.3404 278.356C82.7044 279.112 82.8864 280.027 82.8864 281.1C82.8864 282.173 82.7044 283.088 82.3404 283.844C81.9764 284.6 81.4771 285.179 80.8424 285.58C80.2171 285.972 79.4984 286.168 78.6864 286.168ZM78.6864 284.25C79.0691 284.25 79.4004 284.143 79.6804 283.928C79.9698 283.713 80.1938 283.373 80.3524 282.906C80.5204 282.439 80.6044 281.837 80.6044 281.1C80.6044 280.363 80.5204 279.761 80.3524 279.294C80.1938 278.827 79.9698 278.487 79.6804 278.272C79.4004 278.057 79.0691 277.95 78.6864 277.95C78.3131 277.95 77.9818 278.057 77.6924 278.272C77.4124 278.487 77.1884 278.827 77.0204 279.294C76.8618 279.761 76.7824 280.363 76.7824 281.1C76.7824 281.837 76.8618 282.439 77.0204 282.906C77.1884 283.373 77.4124 283.713 77.6924 283.928C77.9818 284.143 78.3131 284.25 78.6864 284.25ZM83.8946 288.156L84.8186 284.796L85.1266 286.056C84.7253 286.056 84.394 285.939 84.1326 285.706C83.8806 285.473 83.7546 285.151 83.7546 284.74C83.7546 284.329 83.8853 284.003 84.1466 283.76C84.408 283.517 84.73 283.396 85.1126 283.396C85.5046 283.396 85.8266 283.522 86.0786 283.774C86.3306 284.017 86.4566 284.339 86.4566 284.74C86.4566 284.861 86.4473 284.983 86.4286 285.104C86.41 285.216 86.3726 285.356 86.3166 285.524C86.27 285.683 86.1906 285.888 86.0786 286.14L85.2806 288.156H83.8946ZM91.497 286.168C90.6943 286.168 89.9756 285.972 89.341 285.58C88.7063 285.179 88.207 284.6 87.843 283.844C87.479 283.088 87.297 282.173 87.297 281.1C87.297 280.027 87.479 279.112 87.843 278.356C88.207 277.6 88.7063 277.026 89.341 276.634C89.9756 276.233 90.6943 276.032 91.497 276.032C92.309 276.032 93.0276 276.233 93.653 276.634C94.2876 277.026 94.787 277.6 95.151 278.356C95.515 279.112 95.697 280.027 95.697 281.1C95.697 282.173 95.515 283.088 95.151 283.844C94.787 284.6 94.2876 285.179 93.653 285.58C93.0276 285.972 92.309 286.168 91.497 286.168ZM91.497 284.25C91.8796 284.25 92.211 284.143 92.491 283.928C92.7803 283.713 93.0043 283.373 93.163 282.906C93.331 282.439 93.415 281.837 93.415 281.1C93.415 280.363 93.331 279.761 93.163 279.294C93.0043 278.827 92.7803 278.487 92.491 278.272C92.211 278.057 91.8796 277.95 91.497 277.95C91.1236 277.95 90.7923 278.057 90.503 278.272C90.223 278.487 89.999 278.827 89.831 279.294C89.6723 279.761 89.593 280.363 89.593 281.1C89.593 281.837 89.6723 282.439 89.831 282.906C89.999 283.373 90.223 283.713 90.503 283.928C90.7923 284.143 91.1236 284.25 91.497 284.25ZM100.999 286.168C100.196 286.168 99.4776 285.972 98.8429 285.58C98.2083 285.179 97.7089 284.6 97.3449 283.844C96.9809 283.088 96.7989 282.173 96.7989 281.1C96.7989 280.027 96.9809 279.112 97.3449 278.356C97.7089 277.6 98.2083 277.026 98.8429 276.634C99.4776 276.233 100.196 276.032 100.999 276.032C101.811 276.032 102.53 276.233 103.155 276.634C103.79 277.026 104.289 277.6 104.653 278.356C105.017 279.112 105.199 280.027 105.199 281.1C105.199 282.173 105.017 283.088 104.653 283.844C104.289 284.6 103.79 285.179 103.155 285.58C102.53 285.972 101.811 286.168 100.999 286.168ZM100.999 284.25C101.382 284.25 101.713 284.143 101.993 283.928C102.282 283.713 102.506 283.373 102.665 282.906C102.833 282.439 102.917 281.837 102.917 281.1C102.917 280.363 102.833 279.761 102.665 279.294C102.506 278.827 102.282 278.487 101.993 278.272C101.713 278.057 101.382 277.95 100.999 277.95C100.626 277.95 100.294 278.057 100.005 278.272C99.7249 278.487 99.5009 278.827 99.3329 279.294C99.1743 279.761 99.0949 280.363 99.0949 281.1C99.0949 281.837 99.1743 282.439 99.3329 282.906C99.5009 283.373 99.7249 283.713 100.005 283.928C100.294 284.143 100.626 284.25 100.999 284.25ZM110.501 286.168C109.698 286.168 108.98 285.972 108.345 285.58C107.71 285.179 107.211 284.6 106.847 283.844C106.483 283.088 106.301 282.173 106.301 281.1C106.301 280.027 106.483 279.112 106.847 278.356C107.211 277.6 107.71 277.026 108.345 276.634C108.98 276.233 109.698 276.032 110.501 276.032C111.313 276.032 112.032 276.233 112.657 276.634C113.292 277.026 113.791 277.6 114.155 278.356C114.519 279.112 114.701 280.027 114.701 281.1C114.701 282.173 114.519 283.088 114.155 283.844C113.791 284.6 113.292 285.179 112.657 285.58C112.032 285.972 111.313 286.168 110.501 286.168ZM110.501 284.25C110.884 284.25 111.215 284.143 111.495 283.928C111.784 283.713 112.008 283.373 112.167 282.906C112.335 282.439 112.419 281.837 112.419 281.1C112.419 280.363 112.335 279.761 112.167 279.294C112.008 278.827 111.784 278.487 111.495 278.272C111.215 278.057 110.884 277.95 110.501 277.95C110.128 277.95 109.796 278.057 109.507 278.272C109.227 278.487 109.003 278.827 108.835 279.294C108.676 279.761 108.597 280.363 108.597 281.1C108.597 281.837 108.676 282.439 108.835 282.906C109.003 283.373 109.227 283.713 109.507 283.928C109.796 284.143 110.128 284.25 110.501 284.25ZM121 286V276.2H125.242C126.548 276.2 127.584 276.475 128.35 277.026C129.115 277.577 129.498 278.403 129.498 279.504C129.498 280.596 129.115 281.417 128.35 281.968C127.584 282.519 126.548 282.794 125.242 282.794H122.26L123.282 281.786V286H121ZM123.282 282.024L122.26 281.016H125.228C125.853 281.016 126.338 280.89 126.684 280.638C127.029 280.377 127.202 280.003 127.202 279.518C127.202 279.042 127.029 278.678 126.684 278.426C126.338 278.174 125.853 278.048 125.228 278.048H122.26L123.282 276.97V282.024ZM119.642 284.74V283.578H126.306V284.74H119.642Z" fill="white"/>
<path d="M141.938 285.16V277.74H138.102L138.032 279.476C138.004 280.129 137.962 280.75 137.906 281.338C137.859 281.917 137.78 282.444 137.668 282.92C137.565 283.396 137.42 283.793 137.234 284.11C137.047 284.427 136.818 284.637 136.548 284.74L134.588 284.46C134.942 284.479 135.232 284.357 135.456 284.096C135.689 283.835 135.871 283.471 136.002 283.004C136.132 282.537 136.23 281.991 136.296 281.366C136.361 280.731 136.408 280.045 136.436 279.308L136.548 276.2H143.73V285.16H141.938ZM134.252 288.086L134.266 284.46H145.144V288.086H143.464V286H135.946V288.086H134.252ZM150.011 286.098C149.18 286.098 148.452 285.935 147.827 285.608C147.211 285.272 146.73 284.815 146.385 284.236C146.049 283.657 145.881 282.999 145.881 282.262C145.881 281.515 146.044 280.857 146.371 280.288C146.707 279.709 147.164 279.257 147.743 278.93C148.331 278.603 148.998 278.44 149.745 278.44C150.473 278.44 151.121 278.599 151.691 278.916C152.26 279.233 152.708 279.681 153.035 280.26C153.361 280.839 153.525 281.52 153.525 282.304C153.525 282.379 153.52 282.463 153.511 282.556C153.511 282.649 153.506 282.738 153.497 282.822H147.267V281.66H152.573L151.887 282.024C151.896 281.595 151.807 281.217 151.621 280.89C151.434 280.563 151.177 280.307 150.851 280.12C150.533 279.933 150.165 279.84 149.745 279.84C149.315 279.84 148.937 279.933 148.611 280.12C148.293 280.307 148.041 280.568 147.855 280.904C147.677 281.231 147.589 281.618 147.589 282.066V282.346C147.589 282.794 147.691 283.191 147.897 283.536C148.102 283.881 148.391 284.147 148.765 284.334C149.138 284.521 149.567 284.614 150.053 284.614C150.473 284.614 150.851 284.549 151.187 284.418C151.523 284.287 151.821 284.082 152.083 283.802L153.021 284.88C152.685 285.272 152.26 285.575 151.747 285.79C151.243 285.995 150.664 286.098 150.011 286.098ZM155.439 286V278.524H162.607V286H160.871V279.602L161.277 280.008H156.783L157.189 279.602V286H155.439ZM168.3 286.098C167.535 286.098 166.853 285.935 166.256 285.608C165.659 285.272 165.187 284.815 164.842 284.236C164.497 283.657 164.324 282.999 164.324 282.262C164.324 281.515 164.497 280.857 164.842 280.288C165.187 279.709 165.659 279.257 166.256 278.93C166.853 278.603 167.535 278.44 168.3 278.44C169.075 278.44 169.761 278.603 170.358 278.93C170.965 279.257 171.436 279.705 171.772 280.274C172.117 280.843 172.29 281.506 172.29 282.262C172.29 282.999 172.117 283.657 171.772 284.236C171.436 284.815 170.965 285.272 170.358 285.608C169.761 285.935 169.075 286.098 168.3 286.098ZM168.3 284.6C168.729 284.6 169.112 284.507 169.448 284.32C169.784 284.133 170.045 283.863 170.232 283.508C170.428 283.153 170.526 282.738 170.526 282.262C170.526 281.777 170.428 281.361 170.232 281.016C170.045 280.661 169.784 280.391 169.448 280.204C169.112 280.017 168.734 279.924 168.314 279.924C167.885 279.924 167.502 280.017 167.166 280.204C166.839 280.391 166.578 280.661 166.382 281.016C166.186 281.361 166.088 281.777 166.088 282.262C166.088 282.738 166.186 283.153 166.382 283.508C166.578 283.863 166.839 284.133 167.166 284.32C167.502 284.507 167.88 284.6 168.3 284.6ZM176.275 286.126C176.966 286.126 177.577 286.028 178.109 285.832C178.651 285.636 179.075 285.365 179.383 285.02C179.691 284.665 179.845 284.259 179.845 283.802C179.845 283.233 179.607 282.785 179.131 282.458C178.655 282.122 178.002 281.954 177.171 281.954L177.115 282.332C177.601 282.332 178.03 282.253 178.403 282.094C178.786 281.935 179.085 281.716 179.299 281.436C179.523 281.147 179.635 280.825 179.635 280.47C179.635 280.041 179.481 279.667 179.173 279.35C178.865 279.033 178.445 278.79 177.913 278.622C177.381 278.454 176.775 278.384 176.093 278.412C175.645 278.421 175.193 278.487 174.735 278.608C174.287 278.72 173.825 278.883 173.349 279.098L173.797 280.386C174.208 280.209 174.609 280.073 175.001 279.98C175.403 279.887 175.79 279.84 176.163 279.84C176.518 279.84 176.821 279.877 177.073 279.952C177.325 280.017 177.517 280.12 177.647 280.26C177.787 280.391 177.857 280.545 177.857 280.722C177.857 280.899 177.801 281.053 177.689 281.184C177.577 281.315 177.414 281.413 177.199 281.478C176.994 281.543 176.742 281.576 176.443 281.576H175.141V282.752H176.583C177.059 282.752 177.423 282.831 177.675 282.99C177.937 283.139 178.067 283.363 178.067 283.662C178.067 283.867 177.988 284.049 177.829 284.208C177.68 284.367 177.465 284.488 177.185 284.572C176.905 284.647 176.569 284.684 176.177 284.684C175.72 284.684 175.263 284.628 174.805 284.516C174.348 284.404 173.937 284.245 173.573 284.04L173.083 285.342C173.531 285.594 174.031 285.79 174.581 285.93C175.141 286.061 175.706 286.126 176.275 286.126ZM181.648 286V278.524H183.398V283.452L187.528 278.524H189.124V286H187.374V281.072L183.258 286H181.648ZM193.032 286V279.588L193.438 280.008H190.4V278.524H197.4V280.008H194.376L194.782 279.588V286H193.032ZM203.205 286V284.488L203.107 284.166V281.52C203.107 281.007 202.953 280.61 202.645 280.33C202.337 280.041 201.87 279.896 201.245 279.896C200.825 279.896 200.41 279.961 199.999 280.092C199.598 280.223 199.257 280.405 198.977 280.638L198.291 279.364C198.692 279.056 199.168 278.827 199.719 278.678C200.279 278.519 200.858 278.44 201.455 278.44C202.538 278.44 203.373 278.701 203.961 279.224C204.558 279.737 204.857 280.535 204.857 281.618V286H203.205ZM200.853 286.098C200.293 286.098 199.803 286.005 199.383 285.818C198.963 285.622 198.636 285.356 198.403 285.02C198.179 284.675 198.067 284.287 198.067 283.858C198.067 283.438 198.165 283.06 198.361 282.724C198.566 282.388 198.898 282.122 199.355 281.926C199.812 281.73 200.419 281.632 201.175 281.632H203.345V282.794H201.301C200.704 282.794 200.302 282.892 200.097 283.088C199.892 283.275 199.789 283.508 199.789 283.788C199.789 284.105 199.915 284.357 200.167 284.544C200.419 284.731 200.769 284.824 201.217 284.824C201.646 284.824 202.029 284.726 202.365 284.53C202.71 284.334 202.958 284.045 203.107 283.662L203.401 284.712C203.233 285.151 202.93 285.491 202.491 285.734C202.062 285.977 201.516 286.098 200.853 286.098Z" fill="#7D7D7D"/>
<path d="M85.4607 267L89.4087 258.068L89.9967 259.048H84.7187L85.7267 257.984V260.644H83.7107V257.2H91.5647V258.67L87.9247 267H85.4607ZM93.9883 267L100.68 257.2H102.346L95.6543 267H93.9883ZM94.8423 262.492C94.3663 262.492 93.9463 262.385 93.5823 262.17C93.2183 261.946 92.929 261.633 92.7143 261.232C92.509 260.821 92.4063 260.341 92.4063 259.79C92.4063 259.239 92.509 258.763 92.7143 258.362C92.929 257.961 93.2183 257.648 93.5823 257.424C93.9463 257.2 94.3663 257.088 94.8423 257.088C95.3183 257.088 95.7383 257.2 96.1023 257.424C96.4663 257.648 96.751 257.961 96.9563 258.362C97.1617 258.763 97.2643 259.239 97.2643 259.79C97.2643 260.341 97.1617 260.821 96.9563 261.232C96.751 261.633 96.4663 261.946 96.1023 262.17C95.7383 262.385 95.3183 262.492 94.8423 262.492ZM94.8423 261.344C95.1503 261.344 95.3977 261.218 95.5843 260.966C95.771 260.705 95.8643 260.313 95.8643 259.79C95.8643 259.267 95.771 258.88 95.5843 258.628C95.3977 258.367 95.1503 258.236 94.8423 258.236C94.5437 258.236 94.2963 258.367 94.1003 258.628C93.9137 258.88 93.8203 259.267 93.8203 259.79C93.8203 260.303 93.9137 260.691 94.1003 260.952C94.2963 261.213 94.5437 261.344 94.8423 261.344ZM101.492 267.112C101.026 267.112 100.606 267.005 100.232 266.79C99.8683 266.566 99.5837 266.253 99.3783 265.852C99.173 265.441 99.0703 264.961 99.0703 264.41C99.0703 263.859 99.173 263.383 99.3783 262.982C99.5837 262.581 99.8683 262.268 100.232 262.044C100.606 261.82 101.026 261.708 101.492 261.708C101.978 261.708 102.402 261.82 102.766 262.044C103.13 262.268 103.415 262.581 103.62 262.982C103.826 263.383 103.928 263.859 103.928 264.41C103.928 264.961 103.826 265.441 103.62 265.852C103.415 266.253 103.13 266.566 102.766 266.79C102.402 267.005 101.978 267.112 101.492 267.112ZM101.492 265.964C101.8 265.964 102.048 265.838 102.234 265.586C102.421 265.325 102.514 264.933 102.514 264.41C102.514 263.897 102.421 263.509 102.234 263.248C102.048 262.987 101.8 262.856 101.492 262.856C101.194 262.856 100.946 262.987 100.75 263.248C100.564 263.5 100.47 263.887 100.47 264.41C100.47 264.933 100.564 265.325 100.75 265.586C100.946 265.838 101.194 265.964 101.492 265.964Z" fill="white"/>
<path d="M114.123 267.14C113.376 267.14 112.681 267.019 112.037 266.776C111.402 266.524 110.847 266.174 110.371 265.726C109.904 265.269 109.54 264.732 109.279 264.116C109.017 263.5 108.887 262.828 108.887 262.1C108.887 261.372 109.017 260.7 109.279 260.084C109.54 259.468 109.909 258.936 110.385 258.488C110.861 258.031 111.416 257.681 112.051 257.438C112.685 257.186 113.381 257.06 114.137 257.06C114.939 257.06 115.672 257.2 116.335 257.48C116.997 257.751 117.557 258.157 118.015 258.698L116.839 259.804C116.484 259.421 116.087 259.137 115.649 258.95C115.21 258.754 114.734 258.656 114.221 258.656C113.707 258.656 113.236 258.74 112.807 258.908C112.387 259.076 112.018 259.314 111.701 259.622C111.393 259.93 111.15 260.294 110.973 260.714C110.805 261.134 110.721 261.596 110.721 262.1C110.721 262.604 110.805 263.066 110.973 263.486C111.15 263.906 111.393 264.27 111.701 264.578C112.018 264.886 112.387 265.124 112.807 265.292C113.236 265.46 113.707 265.544 114.221 265.544C114.734 265.544 115.21 265.451 115.649 265.264C116.087 265.068 116.484 264.774 116.839 264.382L118.015 265.502C117.557 266.034 116.997 266.44 116.335 266.72C115.672 267 114.935 267.14 114.123 267.14ZM124.128 267V265.488L124.03 265.166V262.52C124.03 262.007 123.876 261.61 123.568 261.33C123.26 261.041 122.793 260.896 122.168 260.896C121.748 260.896 121.333 260.961 120.922 261.092C120.521 261.223 120.18 261.405 119.9 261.638L119.214 260.364C119.615 260.056 120.091 259.827 120.642 259.678C121.202 259.519 121.781 259.44 122.378 259.44C123.461 259.44 124.296 259.701 124.884 260.224C125.481 260.737 125.78 261.535 125.78 262.618V267H124.128ZM121.776 267.098C121.216 267.098 120.726 267.005 120.306 266.818C119.886 266.622 119.559 266.356 119.326 266.02C119.102 265.675 118.99 265.287 118.99 264.858C118.99 264.438 119.088 264.06 119.284 263.724C119.489 263.388 119.821 263.122 120.278 262.926C120.735 262.73 121.342 262.632 122.098 262.632H124.268V263.794H122.224C121.627 263.794 121.225 263.892 121.02 264.088C120.815 264.275 120.712 264.508 120.712 264.788C120.712 265.105 120.838 265.357 121.09 265.544C121.342 265.731 121.692 265.824 122.14 265.824C122.569 265.824 122.952 265.726 123.288 265.53C123.633 265.334 123.881 265.045 124.03 264.662L124.324 265.712C124.156 266.151 123.853 266.491 123.414 266.734C122.985 266.977 122.439 267.098 121.776 267.098ZM130.336 267.098C129.711 267.098 129.109 267.019 128.53 266.86C127.961 266.692 127.508 266.491 127.172 266.258L127.844 264.928C128.18 265.143 128.581 265.32 129.048 265.46C129.515 265.6 129.981 265.67 130.448 265.67C130.999 265.67 131.395 265.595 131.638 265.446C131.89 265.297 132.016 265.096 132.016 264.844C132.016 264.639 131.932 264.485 131.764 264.382C131.596 264.27 131.377 264.186 131.106 264.13C130.835 264.074 130.532 264.023 130.196 263.976C129.869 263.929 129.538 263.869 129.202 263.794C128.875 263.71 128.577 263.593 128.306 263.444C128.035 263.285 127.816 263.075 127.648 262.814C127.48 262.553 127.396 262.207 127.396 261.778C127.396 261.302 127.531 260.891 127.802 260.546C128.073 260.191 128.451 259.921 128.936 259.734C129.431 259.538 130.014 259.44 130.686 259.44C131.19 259.44 131.699 259.496 132.212 259.608C132.725 259.72 133.15 259.879 133.486 260.084L132.814 261.414C132.459 261.199 132.1 261.055 131.736 260.98C131.381 260.896 131.027 260.854 130.672 260.854C130.14 260.854 129.743 260.933 129.482 261.092C129.23 261.251 129.104 261.451 129.104 261.694C129.104 261.918 129.188 262.086 129.356 262.198C129.524 262.31 129.743 262.399 130.014 262.464C130.285 262.529 130.583 262.585 130.91 262.632C131.246 262.669 131.577 262.73 131.904 262.814C132.231 262.898 132.529 263.015 132.8 263.164C133.08 263.304 133.304 263.505 133.472 263.766C133.64 264.027 133.724 264.368 133.724 264.788C133.724 265.255 133.584 265.661 133.304 266.006C133.033 266.351 132.646 266.622 132.142 266.818C131.638 267.005 131.036 267.098 130.336 267.098ZM139.473 259.44C140.07 259.44 140.602 259.557 141.069 259.79C141.545 260.023 141.918 260.383 142.189 260.868C142.46 261.344 142.595 261.96 142.595 262.716V267H140.845V262.94C140.845 262.277 140.686 261.783 140.369 261.456C140.061 261.129 139.627 260.966 139.067 260.966C138.656 260.966 138.292 261.05 137.975 261.218C137.658 261.386 137.41 261.638 137.233 261.974C137.065 262.301 136.981 262.716 136.981 263.22V267H135.231V256.612H136.981V261.54L136.603 260.924C136.864 260.448 137.242 260.084 137.737 259.832C138.241 259.571 138.82 259.44 139.473 259.44ZM148.959 267.098C148.324 267.098 147.76 266.958 147.265 266.678C146.77 266.398 146.378 265.978 146.089 265.418C145.809 264.849 145.669 264.13 145.669 263.262C145.669 262.385 145.814 261.666 146.103 261.106C146.402 260.546 146.798 260.131 147.293 259.86C147.797 259.58 148.352 259.44 148.959 259.44C149.696 259.44 150.345 259.599 150.905 259.916C151.474 260.233 151.922 260.677 152.249 261.246C152.585 261.815 152.753 262.487 152.753 263.262C152.753 264.037 152.585 264.709 152.249 265.278C151.922 265.847 151.474 266.295 150.905 266.622C150.345 266.939 149.696 267.098 148.959 267.098ZM144.815 267V256.612H146.565V261.26L146.425 263.248L146.481 265.236V267H144.815ZM148.763 265.6C149.183 265.6 149.556 265.507 149.883 265.32C150.219 265.133 150.485 264.863 150.681 264.508C150.877 264.153 150.975 263.738 150.975 263.262C150.975 262.777 150.877 262.361 150.681 262.016C150.485 261.661 150.219 261.391 149.883 261.204C149.556 261.017 149.183 260.924 148.763 260.924C148.343 260.924 147.965 261.017 147.629 261.204C147.293 261.391 147.027 261.661 146.831 262.016C146.635 262.361 146.537 262.777 146.537 263.262C146.537 263.738 146.635 264.153 146.831 264.508C147.027 264.863 147.293 265.133 147.629 265.32C147.965 265.507 148.343 265.6 148.763 265.6ZM158.923 267V265.488L158.825 265.166V262.52C158.825 262.007 158.671 261.61 158.363 261.33C158.055 261.041 157.588 260.896 156.963 260.896C156.543 260.896 156.128 260.961 155.717 261.092C155.316 261.223 154.975 261.405 154.695 261.638L154.009 260.364C154.41 260.056 154.886 259.827 155.437 259.678C155.997 259.519 156.576 259.44 157.173 259.44C158.256 259.44 159.091 259.701 159.679 260.224C160.276 260.737 160.575 261.535 160.575 262.618V267H158.923ZM156.571 267.098C156.011 267.098 155.521 267.005 155.101 266.818C154.681 266.622 154.354 266.356 154.121 266.02C153.897 265.675 153.785 265.287 153.785 264.858C153.785 264.438 153.883 264.06 154.079 263.724C154.284 263.388 154.616 263.122 155.073 262.926C155.53 262.73 156.137 262.632 156.893 262.632H159.063V263.794H157.019C156.422 263.794 156.02 263.892 155.815 264.088C155.61 264.275 155.507 264.508 155.507 264.788C155.507 265.105 155.633 265.357 155.885 265.544C156.137 265.731 156.487 265.824 156.935 265.824C157.364 265.824 157.747 265.726 158.083 265.53C158.428 265.334 158.676 265.045 158.825 264.662L159.119 265.712C158.951 266.151 158.648 266.491 158.209 266.734C157.78 266.977 157.234 267.098 156.571 267.098ZM166.265 267.098C165.481 267.098 164.781 266.935 164.165 266.608C163.558 266.272 163.082 265.815 162.737 265.236C162.391 264.657 162.219 263.999 162.219 263.262C162.219 262.515 162.391 261.857 162.737 261.288C163.082 260.709 163.558 260.257 164.165 259.93C164.781 259.603 165.481 259.44 166.265 259.44C166.993 259.44 167.632 259.589 168.183 259.888C168.743 260.177 169.167 260.607 169.457 261.176L168.113 261.96C167.889 261.605 167.613 261.344 167.287 261.176C166.969 261.008 166.624 260.924 166.251 260.924C165.821 260.924 165.434 261.017 165.089 261.204C164.743 261.391 164.473 261.661 164.277 262.016C164.081 262.361 163.983 262.777 163.983 263.262C163.983 263.747 164.081 264.167 164.277 264.522C164.473 264.867 164.743 265.133 165.089 265.32C165.434 265.507 165.821 265.6 166.251 265.6C166.624 265.6 166.969 265.516 167.287 265.348C167.613 265.18 167.889 264.919 168.113 264.564L169.457 265.348C169.167 265.908 168.743 266.342 168.183 266.65C167.632 266.949 166.993 267.098 166.265 267.098ZM172.329 265.334L172.371 263.136L176.277 259.524H178.377L175.059 262.856L174.135 263.626L172.329 265.334ZM170.901 267V256.612H172.651V267H170.901ZM176.543 267L173.813 263.626L174.919 262.226L178.671 267H176.543Z" fill="#7D7D7D"/>
<path fill-rule="evenodd" clip-rule="evenodd" d="M219.926 20.509V23.7297H221.865C222.936 23.7297 223.804 24.5949 223.804 25.6622V33.3919C223.804 34.4592 222.936 35.3244 221.865 35.3244H208.939C207.868 35.3244 207 34.4592 207 33.3919V25.6622C207 24.5949 207.868 23.7297 208.939 23.7297H210.878V20.509C210.878 18.0188 212.903 16 215.402 16C217.9 16 219.926 18.0188 219.926 20.509ZM212.17 20.509C212.17 18.7303 213.617 17.2883 215.402 17.2883C217.187 17.2883 218.633 18.7303 218.633 20.509V23.7297H212.17V20.509Z" fill="white"/>
<circle cx="215.403" cy="28.6023" r="1.68038" fill="black"/>
<rect x="214.562" y="28.6025" width="1.68038" height="4.20095" fill="black"/>
<path d="M78.6842 188.84C78.556 189.295 59.1807 182.52 59.1807 182.52C54.2638 175.155 50.1787 167.269 47 159.006H80.0803L78.6842 188.84Z" fill="url(#paint16_linear_6924_91283)"/>
<path d="M53.3125 159.006C53.3125 159.006 61.0341 174.933 62.4587 176.67L79.1699 177.111V175.973C79.1699 175.973 63.8691 176.101 63.0001 175.446C62.1311 174.791 54.2955 159.006 54.2955 159.006H53.3125Z" fill="#394773"/>
<path d="M53.3125 159.006L62.4587 176.67C60.4756 173.839 58.6722 170.887 57.0593 167.831C55.0221 163.746 53.3125 159.006 53.3125 159.006Z" fill="white"/>
<g style="mix-blend-mode:soft-light" opacity="0.5">
<path d="M55.6747 160.087C56.9711 163.888 62.0428 172.556 63.0971 172.556C64.1513 172.556 76.4318 172.343 77.5573 170.578C78.6827 168.813 79.6657 160.272 78.6827 160.102C77.6997 159.931 55.1048 158.322 55.6747 160.087Z" fill="white"/>
</g>
<g style="mix-blend-mode:soft-light" opacity="0.5">
<path d="M48.0813 159.66C49.6626 163.404 54.0505 172.898 54.8626 173.012C55.6746 173.126 58.3957 173.467 58.3957 172.329C58.3957 170.507 53.3382 159.902 52.1985 159.66C51.0588 159.419 47.6966 158.75 48.0813 159.66Z" fill="white"/>
</g>
<path style="mix-blend-mode:multiply" opacity="0.5" d="M55.6635 174.248C55.5211 175.43 59.9375 181.508 60.664 182.006C61.3906 182.504 76.2497 187.287 77.2185 186.603C78.1872 185.92 78.7143 173.38 77.9023 173.01C77.0902 172.64 55.8345 172.953 55.6635 174.248Z" fill="url(#paint17_linear_6924_91283)"/>
<path style="mix-blend-mode:multiply" opacity="0.5" d="M68.9688 159.005C70.5669 168.115 71.2683 177.358 71.063 186.604L78.6849 188.839L80.1095 158.948L68.9688 159.005Z" fill="url(#paint18_linear_6924_91283)"/>
<path d="M181.3 188.839C181.442 189.295 200.86 182.519 200.86 182.519C205.788 175.139 209.878 167.233 213.055 158.948H179.918L181.3 188.839Z" fill="url(#paint19_linear_6924_91283)"/>
<path d="M206.688 159.006C206.688 159.006 198.952 174.933 197.542 176.67L180.816 177.111V175.973C180.816 175.973 196.131 176.101 197 175.446C197.869 174.791 205.705 159.006 205.705 159.006H206.688Z" fill="#394773"/>
<path d="M206.689 159.006L197.543 176.67C199.525 173.841 201.323 170.889 202.928 167.831C204.965 163.746 206.689 159.006 206.689 159.006Z" fill="white"/>
<g style="mix-blend-mode:soft-light" opacity="0.5">
<path d="M204.325 160.086C203.042 163.887 197.956 172.541 196.888 172.541C195.819 172.541 183.568 172.328 182.428 170.563C181.288 168.798 180.334 160.257 181.302 160.086C182.271 159.916 204.894 158.322 204.325 160.086Z" fill="white"/>
</g>
<g style="mix-blend-mode:soft-light" opacity="0.5">
<path d="M211.904 159.66C210.323 163.404 205.949 172.898 205.137 173.012C204.325 173.126 201.59 173.467 201.547 172.329C201.547 170.507 206.604 159.902 207.744 159.66C208.884 159.419 212.26 158.75 211.904 159.66Z" fill="white"/>
</g>
<path style="mix-blend-mode:multiply" opacity="0.5" d="M204.324 174.248C204.481 175.43 200.05 181.508 199.338 182.006C198.625 182.504 183.766 187.287 182.769 186.603C181.772 185.92 181.344 173.38 182.099 173.01C182.854 172.64 204.167 172.953 204.324 174.248Z" fill="url(#paint20_linear_6924_91283)"/>
<path style="mix-blend-mode:multiply" opacity="0.5" d="M191.03 159.005C189.432 168.115 188.73 177.358 188.936 186.604L181.3 188.839L179.875 158.948L191.03 159.005Z" fill="url(#paint21_linear_6924_91283)"/>
<path d="M130.213 90L76.0625 121.243V195.771L130.213 227L184.364 195.771V121.243L130.213 90Z" fill="url(#paint22_linear_6924_91283)"/>
<path d="M85.8516 190.12V126.88L130.215 101.302L174.564 126.88V190.12L130.215 215.699L85.8516 190.12Z" fill="url(#paint23_linear_6924_91283)"/>
<path d="M89.1133 188.227V128.773L130.214 105.06L171.301 128.773V188.227L130.214 211.941L89.1133 188.227Z" fill="#736FA8"/>
<g style="mix-blend-mode:soft-light" opacity="0.5">
<path d="M77.4168 121.428C76.7472 123.435 82.5028 125.897 86.5488 125.015C90.5948 124.132 128.718 101.799 129.63 99.8065C129.909 97.0189 129.909 94.2105 129.63 91.4229C128.305 91.4229 77.7445 120.46 77.4168 121.428Z" fill="white"/>
</g>
<g style="mix-blend-mode:soft-light" opacity="0.5">
<path d="M182.756 121.428C183.425 123.435 177.67 125.897 173.61 125.015C169.549 124.132 131.81 101.586 130.528 99.8065C129.859 98.8813 129.631 91.4229 130.528 91.4229C131.867 91.4229 182.428 120.46 182.756 121.428Z" fill="white"/>
</g>
<path style="mix-blend-mode:multiply" opacity="0.5" d="M77.3599 163.817C76.9895 166.052 76.1062 194.263 77.3599 194.476C78.6136 194.69 84.4832 190.676 84.8108 188.783C85.1385 186.89 85.2525 167.589 84.8108 165.738C84.3692 163.888 77.9583 160.102 77.3599 163.817Z" fill="url(#paint24_linear_6924_91283)"/>
<path style="mix-blend-mode:multiply" opacity="0.5" d="M182.854 163.817C183.21 166.052 184.108 194.263 182.854 194.476C181.601 194.69 175.731 190.676 175.403 188.783C175.076 186.89 174.962 167.589 175.403 165.738C175.845 163.888 182.242 160.102 182.854 163.817Z" fill="url(#paint25_linear_6924_91283)"/>
<path style="mix-blend-mode:multiply" opacity="0.5" d="M78.7131 195.243C79.3684 196.211 128.148 225.02 128.875 225.02C129.245 225.02 129.73 217.903 129.73 217.064C129.73 214.829 86.6056 191.955 85.8506 191.742C84.7394 191.429 78.0578 194.261 78.7131 195.243Z" fill="url(#paint26_linear_6924_91283)"/>
<path style="mix-blend-mode:multiply" opacity="0.5" d="M181.787 195.998C181.132 196.966 131.454 225.675 130.714 225.675C130.531 222.596 130.588 219.508 130.884 216.438C132.452 214.858 173.624 191.955 174.351 191.742C175.462 191.429 182.457 195.016 181.787 195.998Z" fill="url(#paint27_linear_6924_91283)"/>
<path style="mix-blend-mode:multiply" opacity="0.5" d="M90.9916 186.646C88.1423 170.178 89.7094 169.139 110.167 162.179C130.625 155.218 165.23 137.27 168.265 145.098C171.299 152.927 170.259 186.049 169.575 187.799C168.891 189.55 133.161 210.132 130.212 210.189C127.263 210.246 91.3193 188.497 90.9916 186.646Z" fill="url(#paint28_linear_6924_91283)"/>
<g style="mix-blend-mode:soft-light" opacity="0.3">
<path d="M170.418 129.184C169.705 128.999 132.565 107.563 130.527 107.72C128.49 107.876 102.661 119.961 92.0619 129.07C89.2126 131.504 90.2668 167.886 92.8739 167.217C95.481 166.548 97.4328 151.844 126.168 143.589C154.404 135.547 166.671 142.507 169.776 143.774C170.645 144.087 172.07 129.583 170.418 129.184Z" fill="white"/>
</g>
<path style="mix-blend-mode:multiply" opacity="0.5" d="M85.8516 190.12V126.88L130.215 101.259L174.564 126.88V190.12L171.302 188.213C171.302 188.213 171.501 133.256 170.319 131.534C166.045 125.385 133.278 110.425 127.893 112.091C122.508 113.756 93.217 126.225 89.9403 131.434C88.8433 133.199 89.114 188.227 89.114 188.227L85.8516 190.12Z" fill="url(#paint29_linear_6924_91283)"/>
<g style="mix-blend-mode:soft-light" opacity="0.2">
<path d="M138.503 135.548C149.544 140.586 166.198 140.672 167.723 139.704C169.247 138.736 170.259 131.662 167.865 130.466C165.472 129.271 146.495 119.179 141.495 120.261C136.494 121.342 136.537 134.623 138.503 135.548Z" fill="white"/>
</g>
<path d="M76.0625 143.946C76.0625 143.775 76.5326 122.923 77.4871 121.428C78.4417 119.934 129.045 91.8362 130.527 91.4234C132.008 91.0106 150.999 101.999 150.999 101.999L130.213 90L76.0767 121.314L76.0625 143.946Z" fill="url(#paint30_linear_6924_91283)"/>
<path d="M149.574 112.475C149.574 112.475 173.366 125.997 173.694 127.52C174.021 129.043 174.548 169.908 174.548 169.908C174.548 169.908 174.776 128.63 174.548 126.879C174.32 125.128 149.574 112.475 149.574 112.475Z" fill="white"/>
<path d="M85.8494 161.539C85.8494 161.539 85.0659 127.378 85.4648 126.239C85.8637 125.101 130.213 101.302 130.213 101.302C130.213 101.302 87.388 125.755 86.5047 127.307C85.6215 128.858 85.8494 161.539 85.8494 161.539Z" fill="white"/>
<path style="mix-blend-mode:multiply" d="M76.0625 195.771L130.199 227L184.336 195.771V178.79C184.336 178.79 183.88 193.608 182.769 195.458C181.657 197.308 133.191 225.491 130.712 225.676C128.233 225.861 78.6554 196.44 77.3589 194.476C76.0625 192.512 76.0625 157.781 76.0625 157.781V195.771Z" fill="url(#paint31_linear_6924_91283)"/>
<path d="M85.8511 173.979C85.8511 173.979 85.6944 188.555 86.5065 189.779C87.3185 191.003 108.361 203.144 108.361 203.144C108.361 203.144 85.5662 191.373 85.3525 190.605C85.1388 189.836 85.8511 173.979 85.8511 173.979Z" fill="white"/>
<g style="mix-blend-mode:soft-light" opacity="0.5">
<path d="M104.172 203.4C102.577 203.4 98.1035 205.194 99.058 206.247C100.012 207.3 126.696 223.328 129.731 224.481C130.728 224.851 130.628 218.502 129.303 216.453C128.733 215.585 109.13 203.386 104.172 203.4Z" fill="white"/>
</g>
<path d="M149.276 102.298C147.98 102.653 152.325 108.119 154.391 108.603C156.456 109.087 159.292 107.621 158.309 106.625C157.326 105.628 151.299 101.757 149.276 102.298Z" fill="white"/>
<path d="M158.905 107.72C156.939 108.247 160.572 116.887 162.125 118.424C163.678 119.961 177.511 122.694 177.184 120.161C176.856 117.627 161.683 106.98 158.905 107.72Z" fill="white"/>
<path style="mix-blend-mode:multiply" opacity="0.5" d="M155.189 203.542C154.02 208.623 154.206 211.627 154.861 211.655C155.516 211.684 179.194 197.421 179.835 196.824C180.476 196.226 176.045 192.112 174.208 192.397C172.37 192.682 155.616 201.635 155.189 203.542Z" fill="url(#paint32_linear_6924_91283)"/>
<path style="mix-blend-mode:multiply" opacity="0.5" d="M88.726 128.33C88.1561 126.622 86.4038 126.637 86.2471 128.544C86.0904 130.451 85.8055 165.879 86.5035 165.936C87.2016 165.993 88.669 164.256 88.726 163.445C88.783 162.634 88.9967 129.156 88.726 128.33Z" fill="url(#paint33_linear_6924_91283)"/>
<path style="mix-blend-mode:multiply" opacity="0.5" d="M171.701 128.56C171.601 129.229 171.259 162.721 171.701 162.721C172.142 162.721 174.094 161.141 174.094 160.33C174.094 159.519 173.596 127.891 173.382 127.735C173.168 127.578 171.772 128.005 171.701 128.56Z" fill="url(#paint34_linear_6924_91283)"/>
<path style="mix-blend-mode:multiply" opacity="0.5" d="M130.214 104.519C130.214 105.174 111.123 116.049 110.682 116.049C110.24 116.049 110.397 113.117 111.01 112.718C111.622 112.319 130.071 101.217 130.214 101.587C130.278 102.564 130.278 103.543 130.214 104.519Z" fill="url(#paint35_linear_6924_91283)"/>
<path d="M169.59 192.654C168.379 192.654 164.262 195.003 164.576 196.17C164.889 197.337 167.425 198.604 168.08 197.921C168.736 197.238 170.388 192.683 169.59 192.654Z" fill="#394773"/>
<path d="M171.172 193.48C170.745 193.864 169.833 195.231 170.702 195.9C171.571 196.569 174.136 194.804 173.751 194.291C173.366 193.779 171.7 192.982 171.172 193.48Z" fill="#394773"/>
<path style="mix-blend-mode:multiply" opacity="0.5" d="M165.248 194.989C164.236 196.412 168.396 197.28 168.938 196.127C169.479 194.974 170.362 192.526 169.664 192.654C168.062 193.158 166.565 193.949 165.248 194.989Z" fill="url(#paint36_linear_6924_91283)"/>
<path d="M164.59 195.828C164.878 196.625 165.438 197.296 166.171 197.721C167.14 198.291 167.966 198.162 168.223 197.721C167.981 198.007 167.649 198.202 167.281 198.274C166.914 198.347 166.532 198.292 166.2 198.12C164.22 197.223 164.59 195.828 164.59 195.828Z" fill="#DAE1EF"/>
<path style="mix-blend-mode:multiply" opacity="0.5" d="M171.627 193.509C170.686 194.519 171.413 195.985 171.94 195.9C172.467 195.815 174.049 194.776 173.749 194.292C173.45 193.808 171.826 193.295 171.627 193.509Z" fill="url(#paint37_linear_6924_91283)"/>
<path d="M171.172 193.479C171.172 193.479 170.303 194.661 170.645 195.344C170.987 196.027 171.486 196.027 171.486 196.027C171.486 196.027 170.374 196.668 170.161 195.913C169.805 194.59 171.172 193.479 171.172 193.479Z" fill="#DAE1EF"/>
<path d="M124.628 104.149C121.778 103.38 119.357 105.259 118.074 106.711C116.792 108.163 117.519 109.031 119.129 108.746C120.738 108.462 125.867 104.476 124.628 104.149Z" fill="#394773"/>
<path style="mix-blend-mode:multiply" opacity="0.5" d="M124.629 104.148C123.712 103.964 122.765 103.987 121.857 104.216C120.95 104.445 120.106 104.874 119.386 105.472C118.603 106.169 120.141 108.134 121.196 107.721C122.25 107.308 125.541 104.447 124.629 104.148Z" fill="url(#paint38_linear_6924_91283)"/>
<path d="M118.817 105.956C118.817 105.956 115.526 108.12 115.882 109.187C116.239 110.255 120.156 108.305 120.156 108.305C120.156 108.305 118.105 108.974 117.635 108.063C117.165 107.152 118.817 105.956 118.817 105.956Z" fill="white"/>
<path d="M87.7466 190.548C86.1937 190.932 90.7954 194.092 91.8781 194.263C92.9608 194.434 91.8781 191.658 91.3652 191.174C90.2334 190.657 88.9867 190.441 87.7466 190.548Z" fill="white"/>
<path d="M130.173 193.593L74.2696 161.026C72.9468 164.068 72.0503 167.277 71.6055 170.563L75.2526 176.726L130.173 208.596L185.093 176.726L188.398 170.563C188.299 167.292 187.623 164.064 186.404 161.026L130.173 193.593Z" fill="url(#paint39_linear_6924_91283)"/>
<path d="M75.2526 176.728L71.6055 170.564L130.173 204.839L188.398 170.564L185.093 176.728L130.173 208.597L75.2526 176.728Z" fill="url(#paint40_linear_6924_91283)"/>
<path style="mix-blend-mode:multiply" opacity="0.5" d="M71.6055 170.564L75.2526 176.728L76.0789 177.24V179.062C76.0789 179.062 79.2131 180.67 85.3676 184.058C85.567 184.172 89.2284 188.044 89.2284 188.044C89.2284 188.044 128.777 211.942 130.215 211.942C132.053 211.942 171.317 187.503 171.317 187.503C171.317 187.503 174.365 184.941 174.665 184.77L184.366 179.674V177.14L185.093 176.728L188.398 170.564L130.173 204.839L71.6055 170.564Z" fill="url(#paint41_linear_6924_91283)"/>
<path style="mix-blend-mode:multiply" opacity="0.5" d="M130.172 193.593V204.838L188.397 170.563C188.244 167.298 187.571 164.079 186.403 161.026L130.172 193.593Z" fill="url(#paint42_linear_6924_91283)"/>
<g style="mix-blend-mode:soft-light" opacity="0.5">
<path d="M77.144 163.488C76.0755 163.488 76.9446 172.954 80.1928 175.117C85.3642 178.576 116.464 196.895 118.502 196.923C119.926 196.923 119.841 188.896 119.413 188.284C118.616 187.102 78.7396 163.488 77.144 163.488Z" fill="white"/>
</g>
<g style="mix-blend-mode:soft-light" opacity="0.5">
<path d="M147.452 183.943C146.783 184.641 146.868 193.48 148.022 193.224C157.411 188.664 166.458 183.431 175.091 177.566C183.382 171.474 184.55 163.461 182.684 163.632C182.656 163.489 148.849 182.52 147.452 183.943Z" fill="white"/>
</g>
<path d="M101.691 188.214C101.691 188.214 128.446 204.255 130.184 204.255C131.922 204.255 153.264 191.288 153.264 191.288C153.264 191.288 130.84 205.522 130.227 205.522C129.615 205.522 101.691 188.214 101.691 188.214Z" fill="white"/>
<path style="mix-blend-mode:multiply" opacity="0.5" d="M130.301 177.409L118.305 183.714L120.585 170.349L110.883 160.898L124.303 158.948L130.301 146.792L136.313 158.948L149.733 160.898L140.017 170.349L142.311 183.714L130.301 177.409Z" fill="url(#paint43_linear_6924_91283)"/>
<path d="M148.321 161.353L141.853 160.414L140.072 160.158L135.87 159.546L130.299 148.272L124.729 159.546L112.277 161.353L121.295 170.136L119.158 182.519L130.299 176.669L141.44 182.519L139.317 170.136L148.321 161.353Z" fill="url(#paint44_linear_6924_91283)"/>
<path style="mix-blend-mode:multiply" opacity="0.5" d="M112.219 161.354L130.554 166.136L121.223 170.136L112.219 161.354Z" fill="url(#paint45_linear_6924_91283)"/>
<path style="mix-blend-mode:multiply" opacity="0.5" d="M148.263 161.354L130.555 166.136L139.245 170.136L148.263 161.354Z" fill="url(#paint46_linear_6924_91283)"/>
<path style="mix-blend-mode:multiply" opacity="0.5" d="M130.242 176.67L130.556 166.137L119.102 182.52L130.242 176.67Z" fill="url(#paint47_linear_6924_91283)"/>
<path style="mix-blend-mode:multiply" opacity="0.5" d="M141.383 182.52L130.556 166.137L130.242 176.67L141.383 182.52Z" fill="url(#paint48_linear_6924_91283)"/>
<path style="mix-blend-mode:color-dodge" opacity="0.5" d="M130.242 148.272L130.556 166.136L135.813 159.546L130.242 148.272Z" fill="url(#paint49_linear_6924_91283)"/>
<path style="mix-blend-mode:color-dodge" opacity="0.5" d="M148.263 161.354L130.555 166.136L135.812 159.546L148.263 161.354Z" fill="url(#paint50_linear_6924_91283)"/>
<path style="mix-blend-mode:color-dodge" opacity="0.5" d="M148.263 161.354L130.555 166.136L135.812 159.546L148.263 161.354Z" fill="url(#paint51_linear_6924_91283)"/>
<path style="mix-blend-mode:color-dodge" opacity="0.5" d="M124.67 159.546L130.554 166.136L112.219 161.354L124.67 159.546Z" fill="url(#paint52_linear_6924_91283)"/>
<g style="mix-blend-mode:color-dodge" opacity="0.8">
<path d="M135.811 163.46C134.885 164.243 135.669 164.756 135.669 164.756L140.442 163.475C139.773 162.977 138.962 162.707 138.129 162.704C137.295 162.702 136.483 162.967 135.811 163.46Z" fill="white"/>
</g>
<path style="mix-blend-mode:multiply" opacity="0.5" d="M119.16 182.52C119.16 182.52 127.608 178.549 130.301 177.439L141.442 182.52L130.301 176.67L119.16 182.52Z" fill="url(#paint53_linear_6924_91283)"/>
<path style="mix-blend-mode:multiply" opacity="0.5" d="M112.219 161.354L130.554 166.136L120.482 174.804L112.219 161.354Z" fill="url(#paint54_linear_6924_91283)"/>
<path style="mix-blend-mode:multiply" opacity="0.5" d="M148.263 161.354L130.555 166.136L140.314 175.957L148.263 161.354Z" fill="url(#paint55_linear_6924_91283)"/>
<path style="mix-blend-mode:multiply" opacity="0.5" d="M119.16 182.52L130.557 166.137L141.442 182.52L130.301 180.769L119.16 182.52Z" fill="url(#paint56_linear_6924_91283)"/>
<g style="mix-blend-mode:soft-light" opacity="0.4">
<path d="M126.154 157.596C124.971 160.87 129.487 163.162 130.086 162.166C130.684 161.169 130.313 155.476 129.63 154.75C128.946 154.024 126.638 156.244 126.154 157.596Z" fill="#F7FFFF"/>
</g>
<g style="mix-blend-mode:soft-light" opacity="0.4">
<path d="M122.505 174.407C124.899 174.734 126.252 172.001 126.779 170.137C127.52 167.105 118.103 173.823 122.505 174.407Z" fill="#F7FFFF"/>
</g>
<path style="mix-blend-mode:multiply" opacity="0.5" d="M130.301 140.487L118.305 146.793L120.585 133.441L110.883 123.976L124.303 122.026L130.301 109.87L136.313 122.026L149.733 123.976L140.017 133.441L142.311 146.793L130.301 140.487Z" fill="url(#paint57_linear_6924_91283)"/>
<path d="M148.321 124.431L141.853 123.492L140.072 123.236L135.87 122.624L130.299 111.351L124.729 122.624L112.277 124.431L121.295 133.214L119.158 145.597L130.299 139.747L141.44 145.597L139.317 133.214L148.321 124.431Z" fill="url(#paint58_linear_6924_91283)"/>
<path style="mix-blend-mode:multiply" opacity="0.5" d="M112.219 124.432L130.554 129.228L121.223 133.214L112.219 124.432Z" fill="url(#paint59_linear_6924_91283)"/>
<path style="mix-blend-mode:multiply" opacity="0.5" d="M148.263 124.432L130.555 129.228L139.245 133.214L148.263 124.432Z" fill="url(#paint60_linear_6924_91283)"/>
<path style="mix-blend-mode:multiply" opacity="0.5" d="M130.242 139.748L130.556 129.229L119.102 145.598L130.242 139.748Z" fill="url(#paint61_linear_6924_91283)"/>
<path style="mix-blend-mode:multiply" opacity="0.5" d="M141.383 145.598L130.556 129.229L130.242 139.748L141.383 145.598Z" fill="url(#paint62_linear_6924_91283)"/>
<path style="mix-blend-mode:color-dodge" opacity="0.5" d="M130.242 111.351L130.556 129.228L135.813 122.624L130.242 111.351Z" fill="url(#paint63_linear_6924_91283)"/>
<path style="mix-blend-mode:color-dodge" opacity="0.5" d="M148.263 124.432L130.555 129.228L135.812 122.624L148.263 124.432Z" fill="url(#paint64_linear_6924_91283)"/>
<path style="mix-blend-mode:color-dodge" opacity="0.5" d="M148.263 124.432L130.555 129.228L135.812 122.624L148.263 124.432Z" fill="url(#paint65_linear_6924_91283)"/>
<path style="mix-blend-mode:color-dodge" opacity="0.5" d="M124.67 122.624L130.554 129.228L112.219 124.432L124.67 122.624Z" fill="url(#paint66_linear_6924_91283)"/>
<g style="mix-blend-mode:color-dodge" opacity="0.8">
<path d="M135.811 126.552C134.885 127.321 135.669 127.833 135.669 127.833L140.442 126.552C139.773 126.054 138.961 125.785 138.126 125.785C137.292 125.785 136.48 126.054 135.811 126.552Z" fill="white"/>
</g>
<path style="mix-blend-mode:multiply" opacity="0.5" d="M119.16 145.596C119.16 145.596 127.608 141.625 130.301 140.515L141.442 145.596L130.301 139.817L119.16 145.596Z" fill="url(#paint67_linear_6924_91283)"/>
<path style="mix-blend-mode:multiply" opacity="0.5" d="M112.219 124.432L130.554 129.228L120.482 137.883L112.219 124.432Z" fill="url(#paint68_linear_6924_91283)"/>
<path style="mix-blend-mode:multiply" opacity="0.5" d="M148.263 124.432L130.555 129.228L140.314 139.035L148.263 124.432Z" fill="url(#paint69_linear_6924_91283)"/>
<path style="mix-blend-mode:multiply" opacity="0.5" d="M119.16 145.598L130.557 129.229L141.442 145.598L130.301 143.848L119.16 145.598Z" fill="url(#paint70_linear_6924_91283)"/>
<g style="mix-blend-mode:soft-light" opacity="0.4">
<path d="M126.154 120.673C124.971 123.961 129.487 126.253 130.086 125.242C130.684 124.232 130.313 118.595 129.558 117.827C128.803 117.058 126.638 119.335 126.154 120.673Z" fill="#F7FFFF"/>
</g>
<g style="mix-blend-mode:soft-light" opacity="0.4">
<path d="M122.505 137.484C124.899 137.811 126.252 135.093 126.779 133.214C127.52 130.182 118.103 136.972 122.505 137.484Z" fill="#F7FFFF"/>
</g>
<path d="M38.1722 33V20.544H40.1162V33H38.1722ZM41.5467 20.544H43.5627L46.1007 31.128L48.6027 20.544H50.6187L47.3787 33H44.8227L41.5467 20.544Z" fill="white"/>
<g style="mix-blend-mode:overlay">
<g style="mix-blend-mode:color-dodge">
<path fill-rule="evenodd" clip-rule="evenodd" d="M19 12C19 6.47715 23.4771 2 29 2H231C236.523 2 241 6.47715 241 12V120.562C241 123.615 239.506 126.474 237 128.217V128.217C234.494 129.961 233 132.82 233 135.873V159V162V185.127C233 188.18 234.494 191.039 237 192.783V192.783C239.506 194.526 241 197.385 241 200.438V304C241 309.523 236.523 314 231 314H29C23.4772 314 19 309.523 19 304V202.182C19 198.908 20.6021 195.842 23.2894 193.973L24.7106 192.984C27.3979 191.115 29 188.048 29 184.775L29 162V159L29 136.225C29 132.952 27.3979 129.885 24.7107 128.016L23.2894 127.027C20.6021 125.158 19 122.092 19 118.818V12Z" fill="url(#paint71_linear_6924_91283)"/>
</g>
</g>
<defs>
<filter id="filter0_b_6924_91283" x="-6" y="-26" width="89" height="354.983" filterUnits="userSpaceOnUse" colorInterpolationFilters="sRGB">
<feFlood floodOpacity="0" result="BackgroundImageFix"/>
<feGaussianBlur in="BackgroundImageFix" stdDeviation="13"/>
<feComposite in2="SourceAlpha" operator="in" result="effect1_backgroundBlur_6924_91283"/>
<feBlend mode="normal" in="SourceGraphic" in2="effect1_backgroundBlur_6924_91283" result="shape"/>
</filter>
<filter id="filter1_b_6924_91283" x="177" y="-26" width="89" height="354.983" filterUnits="userSpaceOnUse" colorInterpolationFilters="sRGB">
<feFlood floodOpacity="0" result="BackgroundImageFix"/>
<feGaussianBlur in="BackgroundImageFix" stdDeviation="13"/>
<feComposite in2="SourceAlpha" operator="in" result="effect1_backgroundBlur_6924_91283"/>
<feBlend mode="normal" in="SourceGraphic" in2="effect1_backgroundBlur_6924_91283" result="shape"/>
</filter>
<filter id="filter2_i_6924_91283" x="17" y="0" width="226" height="320" filterUnits="userSpaceOnUse" colorInterpolationFilters="sRGB">
<feFlood floodOpacity="0" result="BackgroundImageFix"/>
<feBlend mode="normal" in="SourceGraphic" in2="BackgroundImageFix" result="shape"/>
<feColorMatrix in="SourceAlpha" type="matrix" values="0 0 0 0 0 0 0 0 0 0 0 0 0 0 0 0 0 0 127 0" result="hardAlpha"/>
<feOffset dy="5"/>
<feGaussianBlur stdDeviation="2"/>
<feComposite in2="hardAlpha" operator="arithmetic" k2="-1" k3="1"/>
<feColorMatrix type="matrix" values="0 0 0 0 0 0 0 0 0 0 0 0 0 0 0 0 0 0 0.25 0"/>
<feBlend mode="normal" in2="shape" result="effect1_innerShadow_6924_91283"/>
</filter>
<filter id="filter3_f_6924_91283" x="0" y="31" width="261" height="254" filterUnits="userSpaceOnUse" colorInterpolationFilters="sRGB">
<feFlood floodOpacity="0" result="BackgroundImageFix"/>
<feBlend mode="normal" in="SourceGraphic" in2="BackgroundImageFix" result="shape"/>
<feGaussianBlur stdDeviation="37.5" result="effect1_foregroundBlur_6924_91283"/>
</filter>
<linearGradient id="paint0_linear_6924_91283" x1="13" y1="289.56" x2="134.492" y2="-6.09891" gradientUnits="userSpaceOnUse">
<stop stop-color="#060913"/>
<stop offset="0.136764" stop-color="#070A16"/>
<stop offset="0.197268" stop-color="#0D142E"/>
<stop offset="0.309253" stop-color="#070B17"/>
<stop offset="0.490764" stop-color="#080C1A"/>
<stop offset="0.661458" stop-color="#0B1125"/>
<stop offset="1" stop-color="#101010"/>
</linearGradient>
<linearGradient id="paint1_linear_6924_91283" x1="43.5" y1="316.39" x2="109.599" y2="297.922" gradientUnits="userSpaceOnUse">
<stop stop-color="#EECCA2"/>
<stop offset="0.260417" stop-color="#624A2C"/>
<stop offset="0.6875" stop-color="#FFDAAB"/>
<stop offset="1" stop-color="#C68C43"/>
</linearGradient>
<linearGradient id="paint2_linear_6924_91283" x1="247" y1="13.4233" x2="125.508" y2="309.082" gradientUnits="userSpaceOnUse">
<stop stop-color="#060913"/>
<stop offset="0.136764" stop-color="#070A16"/>
<stop offset="0.197268" stop-color="#0D142E"/>
<stop offset="0.309253" stop-color="#070B17"/>
<stop offset="0.490764" stop-color="#080C1A"/>
<stop offset="0.661458" stop-color="#0B1125"/>
<stop offset="1" stop-color="#101010"/>
</linearGradient>
<linearGradient id="paint3_linear_6924_91283" x1="216.5" y1="-13.4063" x2="150.401" y2="5.06151" gradientUnits="userSpaceOnUse">
<stop stop-color="#EECCA2"/>
<stop offset="0.260417" stop-color="#624A2C"/>
<stop offset="0.6875" stop-color="#FFDAAB"/>
<stop offset="1" stop-color="#C68C43"/>
</linearGradient>
<linearGradient id="paint4_linear_6924_91283" x1="184.5" y1="-25.5" x2="1.5" y2="349.5" gradientUnits="userSpaceOnUse">
<stop stop-color="#C68C43"/>
<stop offset="0.119792" stop-color="#F5BA6E"/>
<stop offset="0.286458" stop-color="#C68C43"/>
<stop offset="0.5625" stop-color="#C68C43"/>
<stop offset="0.770833" stop-color="#EEB873"/>
<stop offset="1" stop-color="#C68C43"/>
</linearGradient>
<linearGradient id="paint5_linear_6924_91283" x1="23" y1="59" x2="238" y2="59" gradientUnits="userSpaceOnUse">
<stop stop-color="#8980EB"/>
<stop offset="1" stop-color="#705AB8"/>
</linearGradient>
<linearGradient id="paint6_linear_6924_91283" x1="130.467" y1="161.811" x2="130.467" y2="-71.8638" gradientUnits="userSpaceOnUse">
<stop stop-color="#86759D"/>
<stop offset="0.39" stop-color="#98ABD2"/>
<stop offset="1" stop-color="#DAE1EF"/>
</linearGradient>
<linearGradient id="paint7_linear_6924_91283" x1="30.4297" y1="61.7822" x2="131.894" y2="61.7822" gradientUnits="userSpaceOnUse">
<stop stop-color="#705AB8"/>
<stop offset="1" stop-color="white"/>
</linearGradient>
<linearGradient id="paint8_linear_6924_91283" x1="131.883" y1="61.7822" x2="229.875" y2="61.7822" gradientUnits="userSpaceOnUse">
<stop stop-color="#705AB8"/>
<stop offset="1" stop-color="white"/>
</linearGradient>
<linearGradient id="paint9_linear_6924_91283" x1="68.4453" y1="111.103" x2="131.88" y2="111.103" gradientUnits="userSpaceOnUse">
<stop stop-color="#705AB8"/>
<stop offset="1" stop-color="white"/>
</linearGradient>
<linearGradient id="paint10_linear_6924_91283" x1="130.152" y1="111.103" x2="191.772" y2="111.103" gradientUnits="userSpaceOnUse">
<stop stop-color="#705AB8"/>
<stop offset="1" stop-color="white"/>
</linearGradient>
<linearGradient id="paint11_linear_6924_91283" x1="139.226" y1="-23.1169" x2="154.05" y2="107.959" gradientUnits="userSpaceOnUse">
<stop stop-color="#BFD7FF"/>
<stop offset="1"/>
</linearGradient>
<linearGradient id="paint12_linear_6924_91283" x1="131.883" y1="45.1784" x2="229.875" y2="45.1784" gradientUnits="userSpaceOnUse">
<stop stop-color="#BFD7FF"/>
<stop offset="1"/>
</linearGradient>
<linearGradient id="paint13_linear_6924_91283" x1="172.753" y1="-26.8787" x2="187.577" y2="104.116" gradientUnits="userSpaceOnUse">
<stop stop-color="#BFD7FF"/>
<stop offset="1"/>
</linearGradient>
<linearGradient id="paint14_linear_6924_91283" x1="74.2187" y1="-15.7552" x2="89.0434" y2="115.239" gradientUnits="userSpaceOnUse">
<stop stop-color="#BFD7FF"/>
<stop offset="1"/>
</linearGradient>
<linearGradient id="paint15_linear_6924_91283" x1="68.8477" y1="141.364" x2="192.088" y2="141.364" gradientUnits="userSpaceOnUse">
<stop stop-color="#8980EB"/>
<stop offset="1" stop-color="#705AB8"/>
</linearGradient>
<linearGradient id="paint16_linear_6924_91283" x1="63.5402" y1="188.769" x2="63.5402" y2="159.219" gradientUnits="userSpaceOnUse">
<stop offset="0.21" stop-color="#98ABD2"/>
<stop offset="0.49" stop-color="#72719D"/>
<stop offset="1" stop-color="#DAE1EF"/>
</linearGradient>
<linearGradient id="paint17_linear_6924_91283" x1="67.075" y1="185.821" x2="66.9612" y2="171.957" gradientUnits="userSpaceOnUse">
<stop stop-color="#705AB8"/>
<stop offset="1" stop-color="white"/>
</linearGradient>
<linearGradient id="paint18_linear_6924_91283" x1="68.9688" y1="173.922" x2="80.081" y2="173.922" gradientUnits="userSpaceOnUse">
<stop stop-color="#8980EB"/>
<stop offset="1" stop-color="#705AB8"/>
</linearGradient>
<linearGradient id="paint19_linear_6924_91283" x1="196.444" y1="188.768" x2="196.444" y2="159.219" gradientUnits="userSpaceOnUse">
<stop offset="0.21" stop-color="#98ABD2"/>
<stop offset="0.49" stop-color="#72719D"/>
<stop offset="1" stop-color="#DAE1EF"/>
</linearGradient>
<linearGradient id="paint20_linear_6924_91283" x1="192.912" y1="185.821" x2="193.04" y2="171.957" gradientUnits="userSpaceOnUse">
<stop stop-color="#705AB8"/>
<stop offset="1" stop-color="white"/>
</linearGradient>
<linearGradient id="paint21_linear_6924_91283" x1="191.03" y1="173.922" x2="179.918" y2="173.922" gradientUnits="userSpaceOnUse">
<stop stop-color="#8980EB"/>
<stop offset="1" stop-color="#705AB8"/>
</linearGradient>
<linearGradient id="paint22_linear_6924_91283" x1="130.213" y1="229.349" x2="130.213" y2="111.877" gradientUnits="userSpaceOnUse">
<stop offset="0.21" stop-color="#98ABD2"/>
<stop offset="0.49" stop-color="#72719D"/>
<stop offset="1" stop-color="#DAE1EF"/>
</linearGradient>
<linearGradient id="paint23_linear_6924_91283" x1="130.215" y1="108.376" x2="130.215" y2="215.4" gradientUnits="userSpaceOnUse">
<stop offset="0.21" stop-color="#98ABD2"/>
<stop offset="0.49" stop-color="#72719D"/>
<stop offset="1" stop-color="#DAE1EF"/>
</linearGradient>
<linearGradient id="paint24_linear_6924_91283" x1="80.9073" y1="208.497" x2="80.9073" y2="143.733" gradientUnits="userSpaceOnUse">
<stop stop-color="#705AB8"/>
<stop offset="1" stop-color="white"/>
</linearGradient>
<linearGradient id="paint25_linear_6924_91283" x1="179.307" y1="208.497" x2="179.307" y2="143.733" gradientUnits="userSpaceOnUse">
<stop stop-color="#705AB8"/>
<stop offset="1" stop-color="white"/>
</linearGradient>
<linearGradient id="paint26_linear_6924_91283" x1="90.7799" y1="184.326" x2="116.959" y2="226.82" gradientUnits="userSpaceOnUse">
<stop stop-color="#705AB8"/>
<stop offset="1" stop-color="white"/>
</linearGradient>
<linearGradient id="paint27_linear_6924_91283" x1="149.177" y1="189.678" x2="167.91" y2="245.3" gradientUnits="userSpaceOnUse">
<stop stop-color="#705AB8"/>
<stop offset="1" stop-color="white"/>
</linearGradient>
<linearGradient id="paint28_linear_6924_91283" x1="130.098" y1="219.299" x2="130.098" y2="129.754" gradientUnits="userSpaceOnUse">
<stop stop-color="#705AB8"/>
<stop offset="1" stop-color="white"/>
</linearGradient>
<linearGradient id="paint29_linear_6924_91283" x1="85.8516" y1="145.711" x2="174.564" y2="145.711" gradientUnits="userSpaceOnUse">
<stop stop-color="#8980EB"/>
<stop offset="1" stop-color="#705AB8"/>
</linearGradient>
<linearGradient id="paint30_linear_6924_91283" x1="76.0625" y1="116.973" x2="150.999" y2="116.973" gradientUnits="userSpaceOnUse">
<stop stop-color="#728EE3"/>
<stop offset="1" stop-color="#836888"/>
</linearGradient>
<linearGradient id="paint31_linear_6924_91283" x1="76.0625" y1="192.398" x2="184.364" y2="192.398" gradientUnits="userSpaceOnUse">
<stop stop-color="#728EE3"/>
<stop offset="1" stop-color="#836888"/>
</linearGradient>
<linearGradient id="paint32_linear_6924_91283" x1="154.334" y1="202.019" x2="179.906" y2="202.019" gradientUnits="userSpaceOnUse">
<stop stop-color="#8980EB"/>
<stop offset="1" stop-color="#705AB8"/>
</linearGradient>
<linearGradient id="paint33_linear_6924_91283" x1="86.0477" y1="146.507" x2="88.8542" y2="146.507" gradientUnits="userSpaceOnUse">
<stop stop-color="#8980EB"/>
<stop offset="1" stop-color="#705AB8"/>
</linearGradient>
<linearGradient id="paint34_linear_6924_91283" x1="171.487" y1="145.171" x2="174.094" y2="145.171" gradientUnits="userSpaceOnUse">
<stop stop-color="#8980EB"/>
<stop offset="1" stop-color="#705AB8"/>
</linearGradient>
<linearGradient id="paint35_linear_6924_91283" x1="110.425" y1="108.818" x2="130.271" y2="108.818" gradientUnits="userSpaceOnUse">
<stop stop-color="#8980EB"/>
<stop offset="1" stop-color="#705AB8"/>
</linearGradient>
<linearGradient id="paint36_linear_6924_91283" x1="144.156" y1="167.298" x2="145.607" y2="170.017" gradientUnits="userSpaceOnUse">
<stop stop-color="#8980EB"/>
<stop offset="1" stop-color="#705AB8"/>
</linearGradient>
<linearGradient id="paint37_linear_6924_91283" x1="148.774" y1="167.022" x2="149.864" y2="169.065" gradientUnits="userSpaceOnUse">
<stop stop-color="#8980EB"/>
<stop offset="1" stop-color="#705AB8"/>
</linearGradient>
<linearGradient id="paint38_linear_6924_91283" x1="121.556" y1="103.925" x2="122.909" y2="106.56" gradientUnits="userSpaceOnUse">
<stop stop-color="#8980EB"/>
<stop offset="1" stop-color="#705AB8"/>
</linearGradient>
<linearGradient id="paint39_linear_6924_91283" x1="130.002" y1="122.353" x2="130.002" y2="207.5" gradientUnits="userSpaceOnUse">
<stop offset="0.21" stop-color="#98ABD2"/>
<stop offset="0.49" stop-color="#72719D"/>
<stop offset="1" stop-color="#DAE1EF"/>
</linearGradient>
<linearGradient id="paint40_linear_6924_91283" x1="71.6055" y1="189.581" x2="188.398" y2="189.581" gradientUnits="userSpaceOnUse">
<stop offset="0.21" stop-color="#98ABD2"/>
<stop offset="0.49" stop-color="#72719D"/>
<stop offset="1" stop-color="#DAE1EF"/>
</linearGradient>
<linearGradient id="paint41_linear_6924_91283" x1="130.002" y1="212.654" x2="130.002" y2="177.169" gradientUnits="userSpaceOnUse">
<stop stop-color="#8980EB"/>
<stop offset="1" stop-color="#705AB8"/>
</linearGradient>
<linearGradient id="paint42_linear_6924_91283" x1="119.674" y1="205.877" x2="115.911" y2="161.758" gradientUnits="userSpaceOnUse">
<stop stop-color="#705AB8"/>
<stop offset="1" stop-color="white"/>
</linearGradient>
<linearGradient id="paint43_linear_6924_91283" x1="110.883" y1="165.253" x2="149.733" y2="165.253" gradientUnits="userSpaceOnUse">
<stop stop-color="#8980EB"/>
<stop offset="1" stop-color="#705AB8"/>
</linearGradient>
<linearGradient id="paint44_linear_6924_91283" x1="130.299" y1="183.159" x2="130.299" y2="142.451" gradientUnits="userSpaceOnUse">
<stop stop-color="#86759D"/>
<stop offset="0.39" stop-color="#98ABD2"/>
<stop offset="1" stop-color="#DAE1EF"/>
</linearGradient>
<linearGradient id="paint45_linear_6924_91283" x1="112.219" y1="165.738" x2="130.554" y2="165.738" gradientUnits="userSpaceOnUse">
<stop stop-color="#705AB8"/>
<stop offset="1" stop-color="white"/>
</linearGradient>
<linearGradient id="paint46_linear_6924_91283" x1="130.555" y1="165.738" x2="148.263" y2="165.738" gradientUnits="userSpaceOnUse">
<stop stop-color="#705AB8"/>
<stop offset="1" stop-color="white"/>
</linearGradient>
<linearGradient id="paint47_linear_6924_91283" x1="119.102" y1="174.335" x2="130.556" y2="174.335" gradientUnits="userSpaceOnUse">
<stop stop-color="#705AB8"/>
<stop offset="1" stop-color="white"/>
</linearGradient>
<linearGradient id="paint48_linear_6924_91283" x1="130.242" y1="174.335" x2="141.383" y2="174.335" gradientUnits="userSpaceOnUse">
<stop stop-color="#705AB8"/>
<stop offset="1" stop-color="white"/>
</linearGradient>
<linearGradient id="paint49_linear_6924_91283" x1="131.881" y1="150.948" x2="134.383" y2="173.794" gradientUnits="userSpaceOnUse">
<stop stop-color="#BFD7FF"/>
<stop offset="1"/>
</linearGradient>
<linearGradient id="paint50_linear_6924_91283" x1="130.555" y1="162.848" x2="148.263" y2="162.848" gradientUnits="userSpaceOnUse">
<stop stop-color="#BFD7FF"/>
<stop offset="1"/>
</linearGradient>
<linearGradient id="paint51_linear_6924_91283" x1="137.949" y1="150.294" x2="140.437" y2="173.14" gradientUnits="userSpaceOnUse">
<stop stop-color="#BFD7FF"/>
<stop offset="1"/>
</linearGradient>
<linearGradient id="paint52_linear_6924_91283" x1="120.126" y1="152.23" x2="122.614" y2="175.075" gradientUnits="userSpaceOnUse">
<stop stop-color="#BFD7FF"/>
<stop offset="1"/>
</linearGradient>
<linearGradient id="paint53_linear_6924_91283" x1="119.16" y1="179.602" x2="141.442" y2="179.602" gradientUnits="userSpaceOnUse">
<stop stop-color="#8980EB"/>
<stop offset="1" stop-color="#705AB8"/>
</linearGradient>
<linearGradient id="paint54_linear_6924_91283" x1="112.219" y1="168.072" x2="130.554" y2="168.072" gradientUnits="userSpaceOnUse">
<stop stop-color="#8980EB"/>
<stop offset="1" stop-color="#705AB8"/>
</linearGradient>
<linearGradient id="paint55_linear_6924_91283" x1="130.555" y1="168.655" x2="148.263" y2="168.655" gradientUnits="userSpaceOnUse">
<stop stop-color="#8980EB"/>
<stop offset="1" stop-color="#705AB8"/>
</linearGradient>
<linearGradient id="paint56_linear_6924_91283" x1="119.16" y1="174.335" x2="141.442" y2="174.335" gradientUnits="userSpaceOnUse">
<stop stop-color="#8980EB"/>
<stop offset="1" stop-color="#705AB8"/>
</linearGradient>
<linearGradient id="paint57_linear_6924_91283" x1="110.883" y1="128.331" x2="149.733" y2="128.331" gradientUnits="userSpaceOnUse">
<stop stop-color="#8980EB"/>
<stop offset="1" stop-color="#705AB8"/>
</linearGradient>
<linearGradient id="paint58_linear_6924_91283" x1="130.299" y1="146.252" x2="130.299" y2="105.543" gradientUnits="userSpaceOnUse">
<stop stop-color="#86759D"/>
<stop offset="0.39" stop-color="#98ABD2"/>
<stop offset="1" stop-color="#DAE1EF"/>
</linearGradient>
<linearGradient id="paint59_linear_6924_91283" x1="112.219" y1="128.816" x2="130.554" y2="128.816" gradientUnits="userSpaceOnUse">
<stop stop-color="#705AB8"/>
<stop offset="1" stop-color="white"/>
</linearGradient>
<linearGradient id="paint60_linear_6924_91283" x1="130.555" y1="128.816" x2="148.263" y2="128.816" gradientUnits="userSpaceOnUse">
<stop stop-color="#705AB8"/>
<stop offset="1" stop-color="white"/>
</linearGradient>
<linearGradient id="paint61_linear_6924_91283" x1="119.102" y1="137.414" x2="130.556" y2="137.414" gradientUnits="userSpaceOnUse">
<stop stop-color="#705AB8"/>
<stop offset="1" stop-color="white"/>
</linearGradient>
<linearGradient id="paint62_linear_6924_91283" x1="130.242" y1="137.414" x2="141.383" y2="137.414" gradientUnits="userSpaceOnUse">
<stop stop-color="#705AB8"/>
<stop offset="1" stop-color="white"/>
</linearGradient>
<linearGradient id="paint63_linear_6924_91283" x1="131.881" y1="114.041" x2="134.383" y2="136.872" gradientUnits="userSpaceOnUse">
<stop stop-color="#BFD7FF"/>
<stop offset="1"/>
</linearGradient>
<linearGradient id="paint64_linear_6924_91283" x1="130.555" y1="125.926" x2="148.263" y2="125.926" gradientUnits="userSpaceOnUse">
<stop stop-color="#BFD7FF"/>
<stop offset="1"/>
</linearGradient>
<linearGradient id="paint65_linear_6924_91283" x1="137.949" y1="113.372" x2="140.437" y2="136.218" gradientUnits="userSpaceOnUse">
<stop stop-color="#BFD7FF"/>
<stop offset="1"/>
</linearGradient>
<linearGradient id="paint66_linear_6924_91283" x1="120.126" y1="115.322" x2="122.614" y2="138.154" gradientUnits="userSpaceOnUse">
<stop stop-color="#BFD7FF"/>
<stop offset="1"/>
</linearGradient>
<linearGradient id="paint67_linear_6924_91283" x1="119.16" y1="142.678" x2="141.442" y2="142.678" gradientUnits="userSpaceOnUse">
<stop stop-color="#8980EB"/>
<stop offset="1" stop-color="#705AB8"/>
</linearGradient>
<linearGradient id="paint68_linear_6924_91283" x1="112.219" y1="131.164" x2="130.554" y2="131.164" gradientUnits="userSpaceOnUse">
<stop stop-color="#8980EB"/>
<stop offset="1" stop-color="#705AB8"/>
</linearGradient>
<linearGradient id="paint69_linear_6924_91283" x1="130.555" y1="131.734" x2="148.263" y2="131.734" gradientUnits="userSpaceOnUse">
<stop stop-color="#8980EB"/>
<stop offset="1" stop-color="#705AB8"/>
</linearGradient>
<linearGradient id="paint70_linear_6924_91283" x1="119.16" y1="137.414" x2="141.442" y2="137.414" gradientUnits="userSpaceOnUse">
<stop stop-color="#8980EB"/>
<stop offset="1" stop-color="#705AB8"/>
</linearGradient>
<linearGradient id="paint71_linear_6924_91283" x1="84.5" y1="60.5" x2="32.0032" y2="111.503" gradientUnits="userSpaceOnUse">
<stop stop-color="white" stop-opacity="0"/>
<stop offset="0.440223" stop-color="white"/>
<stop offset="1" stop-color="white" stop-opacity="0"/>
</linearGradient>
</defs>
</svg>
