<svg width="17" height="17" viewBox="0 0 17 17" fill="none" xmlns="http://www.w3.org/2000/svg">
<mask id="mask0_8202_63193" style="mask-type:alpha" maskUnits="userSpaceOnUse" x="3" y="2" width="12" height="12">
<path d="M6.4282 8.52948L4.26089 8.3258C3.84404 8.28938 3.6469 7.78083 3.93713 7.4906L4.9374 6.49034C5.56161 5.86612 6.48243 5.6331 7.35371 5.87888L7.67485 5.98971M8.56801 10.635L8.76112 12.826C8.79754 13.2429 9.30608 13.44 9.59631 13.1498L10.5966 12.1495C11.2208 11.5253 11.4538 10.6045 11.208 9.7332L11.0876 9.39424M6.10044 9.58627C6.79592 6.88927 9.25603 1.92474 13.477 3.56701C13.4834 3.56948 13.4894 3.57335 13.4942 3.57816V3.57816C13.499 3.58297 13.5028 3.58898 13.5053 3.59532C15.1476 7.8163 10.1831 10.2764 7.48606 10.9719L6.10044 9.58627Z" stroke="#757575"/>
<path d="M11.76 6.63382C11.4356 6.95819 10.9008 6.94927 10.5654 6.61391C10.23 6.27854 10.2211 5.74372 10.5455 5.41935C10.8699 5.09498 11.4047 5.1039 11.74 5.43927C12.0754 5.77463 12.0843 6.30945 11.76 6.63382Z" stroke="#757575"/>
<path d="M4.51399 12.5558L5.21617 10.868L6.20177 11.8536L4.51399 12.5558Z" stroke="#757575"/>
</mask>
<g mask="url(#mask0_8202_63193)">
<rect x="2.03906" y="2.04883" width="13.6566" height="13.6566" fill="url(#paint0_linear_8202_63193)"/>
</g>
<defs>
<linearGradient id="paint0_linear_8202_63193" x1="12.2815" y1="2.97996" x2="3.90133" y2="13.8432" gradientUnits="userSpaceOnUse">
<stop stop-color="#DC2F2F"/>
<stop offset="1" stop-color="#B425E7"/>
</linearGradient>
</defs>
</svg>
