<svg width="40" height="40" viewBox="0 0 40 40" fill="none" xmlns="http://www.w3.org/2000/svg">
<g opacity="0.85">
<g filter="url(#filter0_d_920_74072)">
<path d="M25.5 12L24.6656 13.6656L23 14.5L24.6656 15.3344L25.5 17L26.3344 15.3344L28 14.5L26.3344 13.6656L25.5 12ZM22.2063 15.2938L21.5 14.5844L20.7937 15.2906L20.7031 15.3812C20.0156 15.1344 19.2719 15 18.5 15C14.9094 15 12 17.9094 12 21.5C12 25.0906 14.9094 28 18.5 28C22.0906 28 25 25.0906 25 21.5C25 20.7281 24.8656 19.9844 24.6187 19.2969L24.7094 19.2063L25.4156 18.5L24.7094 17.7937L22.2094 15.2938H22.2063ZM18.25 18C16.4562 18 15 19.4562 15 21.25V21.5H14V21.25C14 18.9031 15.9031 17 18.25 17H18.5V18H18.25Z" fill="#6E75B3"/>
<path d="M24.7776 13.8891L24.8519 13.8519L24.8891 13.7776L25.5 12.5582L26.1109 13.7776L26.1481 13.8519L26.2224 13.8891L27.4418 14.5L26.2224 15.1109L26.1481 15.1481L26.1109 15.2224L25.5 16.4418L24.8891 15.2224L24.8519 15.1481L24.7776 15.1109L23.5582 14.5L24.7776 13.8891ZM22.0291 15.4701L22.1024 15.5438H22.1058L24.5326 17.9705L25.0621 18.5L24.5326 19.0295L24.442 19.1201L24.3299 19.2322L24.3835 19.3814C24.6207 20.042 24.75 20.7572 24.75 21.5C24.75 24.9526 21.9526 27.75 18.5 27.75C15.0474 27.75 12.25 24.9526 12.25 21.5C12.25 18.0474 15.0474 15.25 18.5 15.25C19.2428 15.25 19.958 15.3793 20.6186 15.6165L20.7678 15.6701L20.8799 15.558L20.9705 15.4674L21.4996 14.9383L22.0291 15.4701ZM15 21.75H15.25V21.5V21.25C15.25 19.5943 16.5943 18.25 18.25 18.25H18.5H18.75V18V17V16.75H18.5H18.25C15.7651 16.75 13.75 18.7651 13.75 21.25V21.5V21.75H14H15Z" stroke="#9B9FCA" stroke-width="0.5"/>
</g>
</g>
<defs>
<filter id="filter0_d_920_74072" x="0" y="0" width="40" height="40" filterUnits="userSpaceOnUse" colorInterpolationFilters="sRGB">
<feFlood floodOpacity="0" result="BackgroundImageFix"/>
<feColorMatrix in="SourceAlpha" type="matrix" values="0 0 0 0 0 0 0 0 0 0 0 0 0 0 0 0 0 0 127 0" result="hardAlpha"/>
<feOffset/>
<feGaussianBlur stdDeviation="6"/>
<feComposite in2="hardAlpha" operator="out"/>
<feColorMatrix type="matrix" values="0 0 0 0 0.431373 0 0 0 0 0.458824 0 0 0 0 0.701961 0 0 0 0.25 0"/>
<feBlend mode="normal" in2="BackgroundImageFix" result="effect1_dropShadow_920_74072"/>
<feBlend mode="normal" in="SourceGraphic" in2="effect1_dropShadow_920_74072" result="shape"/>
</filter>
</defs>
</svg>
