<svg width="24" height="24" viewBox="0 0 24 24" fill="none" xmlns="http://www.w3.org/2000/svg">
<g opacity="0.85">
<g clipPath="url(#clip0_920_74066)">
<path d="M17.5 4L16.6656 5.66562L15 6.5L16.6656 7.33437L17.5 9L18.3344 7.33437L20 6.5L18.3344 5.66562L17.5 4ZM14.2063 7.29375L13.5 6.58437L12.7937 7.29063L12.7031 7.38125C12.0156 7.13437 11.2719 7 10.5 7C6.90937 7 4 9.90938 4 13.5C4 17.0906 6.90937 20 10.5 20C14.0906 20 17 17.0906 17 13.5C17 12.7281 16.8656 11.9844 16.6187 11.2969L16.7094 11.2063L17.4156 10.5L16.7094 9.79375L14.2094 7.29375H14.2063ZM10.25 10C8.45625 10 7 11.4563 7 13.25V13.5H6V13.25C6 10.9031 7.90313 9 10.25 9H10.5V10H10.25Z" fill="#3646DE"/>
</g>
</g>
<defs>
<clipPath id="clip0_920_74066">
<rect width="16" height="16" fill="white" transform="translate(4 4)"/>
</clipPath>
</defs>
</svg>
