<svg width="40" height="40" viewBox="7 7 26 26" fill="none" xmlns="http://www.w3.org/2000/svg">
<g filter="url(#filter0_d_920_73992)">
<path d="M24 21.5313V25.5001L19 28.0001V23.5626C19 22.8813 18.7312 22.2313 18.25 21.7501C17.7719 21.272 17.1219 21.0001 16.4406 21.0001L12 20.9876L14.5 16.0001H18.4688C21.1906 11.5157 25.4938 11.7376 27.7094 12.2907C28.2625 14.5063 28.4844 18.8095 24 21.5313ZM25.25 16.0001C25.25 15.3095 24.6906 14.7501 24 14.7501C23.3094 14.7501 22.75 15.3095 22.75 16.0001C22.75 16.6907 23.3094 17.2501 24 17.2501C24.6906 17.2501 25.25 16.6907 25.25 16.0001ZM17.2031 26.6876C15.6562 28.2345 12.0156 27.9845 12.0156 27.9845C12.0156 27.9845 11.7656 24.3438 13.3125 22.797C14.3875 21.722 16.1281 21.722 17.2031 22.797C18.2781 23.872 18.2781 25.6126 17.2031 26.6876Z" fill="#08C7D3"/>
<path d="M23.75 21.3906L23.8703 21.3176C26.0547 19.9918 27.0814 18.2909 27.5016 16.6588C27.9053 15.0914 27.7524 13.5741 27.5022 12.4979C26.426 12.2477 24.9087 12.0948 23.3412 12.4984C21.7092 12.9187 20.0083 13.9454 18.6825 16.1298L18.6095 16.2501H18.4688H14.6543L12.4044 20.7387L16.4406 20.7501C16.4407 20.7501 16.4409 20.7501 16.441 20.7501L16.4413 20.7501L16.4406 21.0001C17.1219 21.0001 17.7719 21.272 18.25 21.7501C18.7312 22.2313 19 22.8813 19 23.5626L23.75 21.3906ZM23.75 21.3906V21.5313V25.3456L19.25 27.5956L23.75 21.3906ZM25.5 16.0001C25.5 15.1714 24.8287 14.5001 24 14.5001C23.1713 14.5001 22.5 15.1714 22.5 16.0001C22.5 16.8288 23.1713 17.5001 24 17.5001C24.8287 17.5001 25.5 16.8288 25.5 16.0001ZM17.0263 26.5108C16.3169 27.2203 15.0956 27.5379 13.9999 27.6679C13.4601 27.7319 12.9668 27.7486 12.6081 27.7494C12.4678 27.7496 12.3484 27.7475 12.2554 27.7447C12.2526 27.6517 12.2505 27.5323 12.2507 27.392C12.2515 27.0333 12.2682 26.5399 12.3322 26.0002C12.4622 24.9045 12.7798 23.6832 13.4893 22.9737C14.4666 21.9964 16.049 21.9964 17.0263 22.9737C18.0037 23.9511 18.0037 25.5335 17.0263 26.5108Z" stroke="#6CF1F9" stroke-width="0.5"/>
</g>
<defs>
<filter id="filter0_d_920_73992" x="0" y="-0.000244141" width="40" height="40.0002" filterUnits="userSpaceOnUse" colorInterpolationFilters="sRGB">
<feFlood floodOpacity="0" result="BackgroundImageFix"/>
<feColorMatrix in="SourceAlpha" type="matrix" values="0 0 0 0 0 0 0 0 0 0 0 0 0 0 0 0 0 0 127 0" result="hardAlpha"/>
<feOffset/>
<feGaussianBlur stdDeviation="6"/>
<feComposite in2="hardAlpha" operator="out"/>
<feColorMatrix type="matrix" values="0 0 0 0 0.0313726 0 0 0 0 0.780392 0 0 0 0 0.827451 0 0 0 0.25 0"/>
<feBlend mode="normal" in2="BackgroundImageFix" result="effect1_dropShadow_920_73992"/>
<feBlend mode="normal" in="SourceGraphic" in2="effect1_dropShadow_920_73992" result="shape"/>
</filter>
</defs>
</svg>
