<svg width="24" height="24" viewBox="0 0 24 24" fill="none" xmlns="http://www.w3.org/2000/svg">
<g opacity="0.85">
<g clipPath="url(#clip0_918_73950)">
<path d="M16 13.5313V17.5001L11 20.0001V15.5626C11 14.8813 10.7312 14.2313 10.25 13.7501C9.77187 13.272 9.12188 13.0001 8.44063 13.0001L4 12.9876L6.5 8.0001H10.4688C13.1906 3.51572 17.4938 3.7376 19.7094 4.29072C20.2625 6.50635 20.4844 10.8095 16 13.5313ZM17.25 8.0001C17.25 7.30947 16.6906 6.7501 16 6.7501C15.3094 6.7501 14.75 7.30947 14.75 8.0001C14.75 8.69072 15.3094 9.2501 16 9.2501C16.6906 9.2501 17.25 8.69072 17.25 8.0001ZM9.20312 18.6876C7.65625 20.2345 4.01562 19.9845 4.01562 19.9845C4.01562 19.9845 3.76562 16.3438 5.3125 14.797C6.3875 13.722 8.12813 13.722 9.20312 14.797C10.2781 15.872 10.2781 17.6126 9.20312 18.6876Z" fill="#08C7D3"/>
</g>
</g>
<defs>
<clipPath id="clip0_918_73950">
<rect width="16" height="16" fill="white" transform="translate(4 4)"/>
</clipPath>
</defs>
</svg>
