<svg width="24" height="24" viewBox="0 0 24 24" fill="none" xmlns="http://www.w3.org/2000/svg">
<g opacity="0.85">
<g clipPath="url(#clip0_918_73945)">
<path d="M4.5 12.6863C4.5 8.2499 10.3929 3.42847 10.3929 3.42847C10.3929 3.42847 12.5525 5.41396 13.3594 6.42177C13.7277 5.93963 14.9464 4.98539 14.9464 4.98539C14.9464 4.98539 19.5 8.78226 19.5 12.6829C19.5 16.962 16.1585 20.5713 12 20.5713C7.79464 20.5713 4.5 16.9586 4.5 12.6863ZM12.0569 17.357C12.904 17.357 13.654 17.1227 14.3605 16.6539C15.7701 15.6695 16.1484 13.7008 15.3013 12.1539C15.2076 11.9664 15.1138 11.7789 14.9732 11.5914L13.279 13.5602C13.279 13.5602 10.5536 10.0914 10.3627 9.85704C8.95647 11.5914 8.25 12.5758 8.25 13.7008C8.25 15.9977 9.9442 17.357 12.0569 17.357Z" fill="#FFC01F"/>
</g>
</g>
<defs>
<clipPath id="clip0_918_73945">
<rect width="15" height="17.1429" fill="white" transform="translate(4.5 3.42847)"/>
</clipPath>
</defs>
</svg>
