<svg width="40" height="42" viewBox="8 8 25 25" fill="none" xmlns="http://www.w3.org/2000/svg">
<g filter="url(#filter0_d_920_73984)">
<path d="M12.5 21.6863C12.5 17.2499 18.3929 12.4285 18.3929 12.4285C18.3929 12.4285 20.5525 14.414 21.3594 15.4218C21.7277 14.9396 22.9464 13.9854 22.9464 13.9854C22.9464 13.9854 27.5 17.7823 27.5 21.6829C27.5 25.9619 24.1585 29.5713 20 29.5713C15.7946 29.5713 12.5 25.9586 12.5 21.6863ZM20.0569 26.357C20.904 26.357 21.654 26.1227 22.3605 25.6539C23.7701 24.6695 24.1484 22.7008 23.3013 21.1539C23.2076 20.9664 23.1138 20.7789 22.9732 20.5914L21.279 22.5602C21.279 22.5602 18.5536 19.0914 18.3627 18.857C16.9565 20.5914 16.25 21.5758 16.25 22.7008C16.25 24.9977 17.9442 26.357 20.0569 26.357Z" fill="#FFC01F"/>
<path d="M21.1642 15.578L21.364 15.8275L21.558 15.5735C21.7232 15.3573 22.0987 15.015 22.4532 14.7131C22.6264 14.5654 22.7885 14.4325 22.9074 14.3365C22.9185 14.3275 22.9292 14.3188 22.9395 14.3105C22.9509 14.3206 22.9629 14.3312 22.9754 14.3424C23.0975 14.4517 23.2727 14.6128 23.4833 14.8185C23.9047 15.23 24.4663 15.8186 25.0273 16.5267C26.1574 17.953 27.25 19.8206 27.25 21.6829C27.25 25.8379 24.0068 29.3213 20 29.3213C15.9473 29.3213 12.75 25.8356 12.75 21.6863C12.75 19.5636 14.169 17.3092 15.6381 15.5542C16.3668 14.6837 17.0962 13.9496 17.6437 13.433C17.9172 13.1748 18.145 12.9713 18.3039 12.8327C18.3335 12.807 18.3606 12.7835 18.3852 12.7623C18.4371 12.8105 18.4999 12.8693 18.5718 12.9367C18.7861 13.1379 19.0802 13.4166 19.3993 13.7265C20.0413 14.35 20.7719 15.0881 21.1642 15.578ZM22.4987 25.8622L22.4987 25.8623L22.5036 25.8589C24.027 24.7951 24.422 22.6846 23.5229 21.038L23.5217 21.0356C23.4297 20.8515 23.3274 20.647 23.1732 20.4414L22.9866 20.1926L22.7837 20.4283L21.2878 22.1667L21.0467 21.86C20.7882 21.5311 20.4416 21.0902 20.0889 20.6419C19.385 19.7471 18.6538 18.8185 18.5566 18.6992L18.3623 18.4606L18.1685 18.6996C17.4668 19.5651 16.9266 20.2589 16.5631 20.8814C16.1966 21.5092 16 22.0802 16 22.7008C16 23.9147 16.4497 24.8975 17.1928 25.575C17.933 26.2499 18.9477 26.607 20.0569 26.607C20.9549 26.607 21.7527 26.3572 22.4987 25.8622Z" stroke="#FFD466" stroke-width="0.5"/>
</g>
<defs>
<filter id="filter0_d_920_73984" x="0.5" y="0.428467" width="39" height="41.1428" filterUnits="userSpaceOnUse" colorInterpolationFilters="sRGB">
<feFlood floodOpacity="0" result="BackgroundImageFix"/>
<feColorMatrix in="SourceAlpha" type="matrix" values="0 0 0 0 0 0 0 0 0 0 0 0 0 0 0 0 0 0 127 0" result="hardAlpha"/>
<feOffset/>
<feGaussianBlur stdDeviation="6"/>
<feComposite in2="hardAlpha" operator="out"/>
<feColorMatrix type="matrix" values="0 0 0 0 1 0 0 0 0 0.752941 0 0 0 0 0.121569 0 0 0 0.25 0"/>
<feBlend mode="normal" in2="BackgroundImageFix" result="effect1_dropShadow_920_73984"/>
<feBlend mode="normal" in="SourceGraphic" in2="effect1_dropShadow_920_73984" result="shape"/>
</filter>
</defs>
</svg>
