<svg width="46" height="40" viewBox="0 0 46 40" fill="none" xmlns="http://www.w3.org/2000/svg">
<g filter="url(#filter0_d_920_73972)">
<path d="M23.7546 14.6415C24.0182 14.4776 24.2213 14.2322 24.3331 13.9426C24.4448 13.6529 24.4592 13.3348 24.3739 13.0362C24.2887 12.7377 24.1085 12.4751 23.8607 12.2881C23.6128 12.1011 23.3108 12 23.0004 12C22.6899 12 22.3879 12.1011 22.1401 12.2881C21.8923 12.4751 21.7121 12.7377 21.6269 13.0362C21.5416 13.3348 21.556 13.6529 21.6677 13.9426C21.7795 14.2322 21.9825 14.4776 22.2462 14.6415L20.2007 18.7439C20.1252 18.897 20.0164 19.0313 19.8822 19.1368C19.748 19.2424 19.5918 19.3165 19.4252 19.3538C19.2586 19.391 19.0857 19.3905 18.9194 19.3522C18.753 19.3139 18.5973 19.2388 18.4638 19.1324L15.287 16.5727C15.48 16.3153 15.5805 16.0002 15.5722 15.6785C15.5638 15.3569 15.4471 15.0474 15.2409 14.8004C15.0347 14.5534 14.7512 14.3832 14.4362 14.3174C14.1212 14.2516 13.7932 14.2941 13.5054 14.438C13.2176 14.5819 12.9868 14.8188 12.8505 15.1103C12.7141 15.4017 12.6801 15.7307 12.754 16.0438C12.828 16.357 13.0055 16.636 13.2578 16.8357C13.5101 17.0354 13.8225 17.1441 14.1442 17.1441H14.1671L15.8012 26.1259C15.8975 26.6525 16.1757 27.1285 16.5871 27.471C16.9985 27.8135 17.5171 28.0007 18.0524 28H27.9484C28.4837 28.0007 29.0023 27.8135 29.4137 27.471C29.8251 27.1285 30.1032 26.6525 30.1996 26.1259L31.8337 17.1441H31.8566C32.1783 17.1441 32.4907 17.0354 32.743 16.8357C32.9953 16.636 33.1728 16.357 33.2468 16.0438C33.3207 15.7307 33.2867 15.4017 33.1503 15.1103C33.014 14.8188 32.7832 14.5819 32.4954 14.438C32.2076 14.2941 31.8796 14.2516 31.5646 14.3174C31.2496 14.3832 30.9661 14.5534 30.7599 14.8004C30.5537 15.0474 30.437 15.3569 30.4286 15.6785C30.4203 16.0002 30.5208 16.3153 30.7138 16.5727L27.537 19.121C27.4035 19.2274 27.2478 19.3025 27.0814 19.3408C26.9151 19.3791 26.7422 19.3796 26.5756 19.3424C26.409 19.3051 26.2528 19.231 26.1186 19.1254C25.9844 19.0199 25.8756 18.8856 25.8001 18.7325L23.7432 14.6415H23.7546Z" fill="#FA00FF"/>
<path d="M24.0998 13.8526C24.0158 14.0703 23.8693 14.2576 23.6795 14.3915H23.3376L23.5198 14.7538L25.5758 18.843C25.576 18.8433 25.5762 18.8436 25.5763 18.8439C25.6683 19.0302 25.8008 19.1935 25.9641 19.3219C26.1276 19.4506 26.3179 19.5409 26.521 19.5863C26.7241 19.6317 26.9347 19.6311 27.1375 19.5844C27.3403 19.5377 27.53 19.4462 27.6928 19.3165L27.6935 19.316L30.8703 16.7677L31.059 16.6163L30.9138 16.4227C30.7545 16.2103 30.6716 15.9504 30.6785 15.685C30.6854 15.4197 30.7817 15.1644 30.9518 14.9606C31.1219 14.7568 31.3558 14.6164 31.6157 14.5621C31.8756 14.5079 32.1461 14.5429 32.3836 14.6616C32.621 14.7804 32.8114 14.9758 32.9239 15.2162C33.0364 15.4566 33.0644 15.728 33.0034 15.9864C32.9424 16.2448 32.796 16.475 32.5879 16.6397C32.3797 16.8044 32.122 16.8941 31.8566 16.8941H31.8337H31.6251L31.5877 17.0993L29.9537 26.0809C29.9537 26.081 29.9537 26.081 29.9536 26.0811C29.8678 26.55 29.6201 26.9739 29.2537 27.2789C28.8873 27.5839 28.4255 27.7506 27.9487 27.75H27.9484H18.0524L18.052 27.75C17.5753 27.7506 17.1134 27.5839 16.747 27.2789C16.3807 26.9739 16.133 26.55 16.0471 26.0811C16.0471 26.081 16.0471 26.081 16.0471 26.0809L14.4131 17.0993L14.3757 16.8941H14.1671H14.1442C13.8788 16.8941 13.6211 16.8044 13.4129 16.6397C13.2048 16.475 13.0583 16.2448 12.9973 15.9864C12.9364 15.728 12.9644 15.4567 13.0769 15.2162C13.1894 14.9758 13.3798 14.7804 13.6172 14.6616C13.8547 14.5429 14.1252 14.5079 14.3851 14.5621C14.6449 14.6164 14.8789 14.7568 15.049 14.9606C15.2191 15.1644 15.3154 15.4197 15.3222 15.685C15.3291 15.9504 15.2462 16.2103 15.087 16.4227L14.9421 16.6159L15.1301 16.7674L18.3069 19.3271L18.3069 19.3271L18.308 19.328C18.4707 19.4576 18.6605 19.5491 18.8633 19.5958C19.066 19.6425 19.2767 19.6432 19.4798 19.5977C19.6828 19.5523 19.8731 19.462 20.0367 19.3333C20.2001 19.2048 20.3327 19.0414 20.4246 18.855C20.4247 18.8548 20.4248 18.8546 20.4249 18.8544L22.4699 14.753L22.5715 14.5493L22.3782 14.4292C22.1607 14.2939 21.9932 14.0915 21.901 13.8526C21.8088 13.6136 21.7969 13.3512 21.8673 13.1049C21.9376 12.8586 22.0862 12.6419 22.2907 12.4877C22.4951 12.3334 22.7443 12.25 23.0004 12.25C23.2565 12.25 23.5057 12.3334 23.7101 12.4877C23.9146 12.6419 24.0632 12.8586 24.1335 13.1049C24.2038 13.3512 24.192 13.6136 24.0998 13.8526ZM18.0524 28H27.9484L15.8012 26.1259C15.8975 26.6525 16.1757 27.1285 16.5871 27.471C16.9985 27.8135 17.5171 28.0007 18.0524 28Z" stroke="#F969FC" stroke-width="0.5"/>
</g>
<defs>
<filter id="filter0_d_920_73972" x="0.71582" y="0" width="44.5693" height="40" filterUnits="userSpaceOnUse" colorInterpolationFilters="sRGB">
<feFlood floodOpacity="0" result="BackgroundImageFix"/>
<feColorMatrix in="SourceAlpha" type="matrix" values="0 0 0 0 0 0 0 0 0 0 0 0 0 0 0 0 0 0 127 0" result="hardAlpha"/>
<feOffset/>
<feGaussianBlur stdDeviation="6"/>
<feComposite in2="hardAlpha" operator="out"/>
<feColorMatrix type="matrix" values="0 0 0 0 0.847059 0 0 0 0 0.0156863 0 0 0 0 0.866667 0 0 0 0.25 0"/>
<feBlend mode="normal" in2="BackgroundImageFix" result="effect1_dropShadow_920_73972"/>
<feBlend mode="normal" in="SourceGraphic" in2="effect1_dropShadow_920_73972" result="shape"/>
</filter>
</defs>
</svg>
