<svg width="24" height="24" viewBox="0 0 24 24" fill="none" xmlns="http://www.w3.org/2000/svg">
<g opacity="0.85">
<path d="M12.7546 6.64148C13.0182 6.47757 13.2213 6.23221 13.3331 5.94257C13.4448 5.65293 13.4592 5.33476 13.3739 5.03624C13.2887 4.73772 13.1085 4.47509 12.8607 4.28812C12.6128 4.10114 12.3108 4 12.0004 4C11.6899 4 11.3879 4.10114 11.1401 4.28812C10.8923 4.47509 10.7121 4.73772 10.6269 5.03624C10.5416 5.33476 10.556 5.65293 10.6677 5.94257C10.7795 6.23221 10.9825 6.47757 11.2462 6.64148L9.2007 10.7439C9.12521 10.897 9.01636 11.0313 8.88216 11.1368C8.74796 11.2424 8.59181 11.3165 8.4252 11.3538C8.25858 11.391 8.08573 11.3905 7.91936 11.3522C7.75298 11.3139 7.5973 11.2388 7.46375 11.1324L4.28696 8.5727C4.48003 8.31528 4.58052 8.00021 4.57216 7.67854C4.5638 7.35687 4.44708 7.04744 4.2409 6.8004C4.03472 6.55335 3.75117 6.38316 3.43618 6.31739C3.1212 6.25162 2.79324 6.29414 2.50543 6.43804C2.21762 6.58194 1.98683 6.81881 1.85046 7.11026C1.71408 7.4017 1.6801 7.73066 1.75403 8.04383C1.82796 8.357 2.00547 8.63604 2.25779 8.83573C2.5101 9.03542 2.82246 9.14406 3.14423 9.14406H3.16709L4.80119 18.1259C4.89755 18.6525 5.17568 19.1285 5.58709 19.471C5.99849 19.8135 6.51706 20.0007 7.05237 20H16.9484C17.4837 20.0007 18.0023 19.8135 18.4137 19.471C18.8251 19.1285 19.1032 18.6525 19.1996 18.1259L20.8337 9.14406H20.8566C21.1783 9.14406 21.4907 9.03542 21.743 8.83573C21.9953 8.63604 22.1728 8.357 22.2468 8.04383C22.3207 7.73066 22.2867 7.4017 22.1503 7.11026C22.014 6.81881 21.7832 6.58194 21.4954 6.43804C21.2076 6.29414 20.8796 6.25162 20.5646 6.31739C20.2496 6.38316 19.9661 6.55335 19.7599 6.8004C19.5537 7.04744 19.437 7.35687 19.4286 7.67854C19.4203 8.00021 19.5208 8.31528 19.7138 8.5727L16.537 11.121C16.4035 11.2274 16.2478 11.3025 16.0814 11.3408C15.9151 11.3791 15.7422 11.3796 15.5756 11.3424C15.409 11.3051 15.2528 11.231 15.1186 11.1254C14.9844 11.0199 14.8756 10.8856 14.8001 10.7325L12.7432 6.64148H12.7546Z" fill="#FA00FF"/>
</g>
</svg>
