<svg width="24" height="24" viewBox="0 0 24 24" fill="none" xmlns="http://www.w3.org/2000/svg">
<g opacity="0.9">
<path d="M11.9952 16.1146L11.9986 16.1112L12.9009 16.5931L15.8129 18.1482L15.2489 14.8124L15.0849 13.8315L15.7923 13.1309L18.1882 10.7623L14.9037 10.277L13.9023 10.13L13.4614 9.2209L11.9986 6.22007L11.9952 6.23032V16.1146ZM17.9797 19.4743C18.0481 19.8844 17.8772 20.3014 17.5388 20.5441C17.2005 20.7867 16.7527 20.8175 16.3836 20.6227L11.9986 18.2815L7.61355 20.6227C7.24442 20.8175 6.79669 20.7867 6.45833 20.5441C6.11997 20.3014 5.94908 19.8844 6.01743 19.4743L6.86163 14.4946L3.30028 10.9708C3.00635 10.6803 2.9004 10.2462 3.03027 9.85319C3.16015 9.46015 3.49851 9.17305 3.90865 9.11153L8.81661 8.38696L11.0177 3.8652C11.2022 3.48925 11.5816 3.25 12.002 3.25C12.4224 3.25 12.8018 3.48925 12.9863 3.8652L15.184 8.38696L20.0919 9.11153C20.5021 9.17305 20.8439 9.46015 20.9703 9.85319C21.0968 10.2462 20.9942 10.6803 20.7003 10.9708L17.139 14.4946L17.9797 19.4743Z" fill="#7803EC"/>
</g>
</svg>
