<svg width="44" height="42" viewBox="9 8 25 25" fill="none" xmlns="http://www.w3.org/2000/svg">
<g opacity="0.9">
<g filter="url(#filter0_d_920_74030)">
<path d="M21.9952 25.1146L21.9986 25.1112L22.9009 25.5931L25.8129 27.1482L25.2489 23.8124L25.0849 22.8315L25.7923 22.1309L28.1882 19.7623L24.9037 19.277L23.9023 19.13L23.4614 18.2209L21.9986 15.2201L21.9952 15.2303V25.1146ZM27.9797 28.4743C28.0481 28.8844 27.8772 29.3014 27.5388 29.5441C27.2005 29.7867 26.7527 29.8175 26.3836 29.6227L21.9986 27.2815L17.6135 29.6227C17.2444 29.8175 16.7967 29.7867 16.4583 29.5441C16.12 29.3014 15.9491 28.8844 16.0174 28.4743L16.8616 23.4946L13.3003 19.9708C13.0063 19.6803 12.9004 19.2462 13.0303 18.8532C13.1602 18.4601 13.4985 18.1731 13.9086 18.1115L18.8166 17.387L21.0177 12.8652C21.2022 12.4892 21.5816 12.25 22.002 12.25C22.4224 12.25 22.8018 12.4892 22.9863 12.8652L25.184 17.387L30.0919 18.1115C30.5021 18.1731 30.8439 18.4601 30.9703 18.8532C31.0968 19.2462 30.9942 19.6803 30.7003 19.9708L27.139 23.4946L27.9797 28.4743Z" fill="#7803EC"/>
<path d="M21.7452 25.1146V25.7182L22.0443 25.419L22.7831 25.8136L22.7831 25.8136L25.6951 27.3687L26.1442 27.6086L26.0594 27.1065L25.4955 23.7712L25.4954 23.7708L25.3528 22.918L25.9681 22.3087L25.9683 22.3085L28.364 19.9401L28.72 19.5882L28.2248 19.515L24.9403 19.0297L24.94 19.0297L24.0695 18.9019L23.6863 18.1118L23.6861 18.1114L22.2233 15.1105L21.955 14.5602L21.7614 15.141L21.758 15.1513L21.7452 15.1898V15.2303V25.1146ZM22.1163 27.061L21.9986 26.9981L21.8808 27.061L17.4969 29.4016C17.4967 29.4017 17.4966 29.4018 17.4964 29.4018C17.2111 29.5522 16.8652 29.5282 16.604 29.3409C16.3436 29.1542 16.2113 28.8322 16.264 28.5156C16.264 28.5156 16.264 28.5155 16.264 28.5154L17.1081 23.5364L17.1298 23.4082L17.0375 23.3169L13.4761 19.7931L13.476 19.793C13.2492 19.5688 13.1678 19.2339 13.2677 18.9316C13.3681 18.6276 13.6293 18.4063 13.9454 18.3588C13.9455 18.3588 13.9456 18.3588 13.9457 18.3588L18.8531 17.6343L18.9837 17.615L19.0414 17.4964L21.2421 12.9754C21.2421 12.9753 21.2422 12.9752 21.2422 12.9751C21.3853 12.684 21.678 12.5 22.002 12.5C22.3259 12.5 22.6187 12.684 22.7617 12.975C22.7618 12.9751 22.7619 12.9753 22.7619 12.9754L24.9591 17.4962L25.0168 17.615L25.1475 17.6343L30.0549 18.3588C30.0549 18.3588 30.055 18.3588 30.0551 18.3588C30.3726 18.4065 30.6354 18.6286 30.7323 18.9298C30.8304 19.2347 30.7502 19.57 30.5246 19.793L30.5245 19.7931L26.9631 23.3169L26.8708 23.4082L26.8925 23.5362L27.7331 28.5154C27.7331 28.5154 27.7332 28.5155 27.7332 28.5155C27.7859 28.8321 27.6536 29.1541 27.3931 29.3409C27.132 29.5282 26.7861 29.5522 26.5008 29.4018C26.5006 29.4018 26.5005 29.4017 26.5003 29.4016L22.1163 27.061Z" stroke="#B36AFB" stroke-width="0.5"/>
</g>
</g>
<defs>
<filter id="filter0_d_920_74030" x="0.975586" y="0.25" width="42.0479" height="41.5" filterUnits="userSpaceOnUse" colorInterpolationFilters="sRGB">
<feFlood floodOpacity="0" result="BackgroundImageFix"/>
<feColorMatrix in="SourceAlpha" type="matrix" values="0 0 0 0 0 0 0 0 0 0 0 0 0 0 0 0 0 0 127 0" result="hardAlpha"/>
<feOffset/>
<feGaussianBlur stdDeviation="6"/>
<feComposite in2="hardAlpha" operator="out"/>
<feColorMatrix type="matrix" values="0 0 0 0 0.435294 0 0 0 0 0.0235294 0 0 0 0 0.843137 0 0 0 0.25 0"/>
<feBlend mode="normal" in2="BackgroundImageFix" result="effect1_dropShadow_920_74030"/>
<feBlend mode="normal" in="SourceGraphic" in2="effect1_dropShadow_920_74030" result="shape"/>
</filter>
</defs>
</svg>
