<svg width="42" height="42" viewBox="0 0 42 42" fill="none" xmlns="http://www.w3.org/2000/svg">
<path d="M0.25 1C0.25 0.585787 0.585787 0.25 1 0.25H31.0858C31.2847 0.25 31.4755 0.329017 31.6161 0.46967L41.5303 10.3839C41.671 10.5245 41.75 10.7153 41.75 10.9142V41C41.75 41.4142 41.4142 41.75 41 41.75H1C0.585787 41.75 0.25 41.4142 0.25 41V1Z" fill="#31B5FF" fill-opacity="0.1" stroke="#31B5FF" stroke-width="0.5"/>
<g opacity="0.8">
<path d="M14.6 13H20.2V20.2H13V14.6L14.6 13Z" fill="#31B5FF"/>
<path d="M13 27.4V21.8H20.2V29H14.6L13 27.4Z" fill="#31B5FF"/>
<path d="M27.4 13H21.8V20.2H29V14.6L27.4 13Z" fill="#31B5FF"/>
<path d="M29 27.4V21.8H21.8V29H27.4L29 27.4Z" fill="#31B5FF"/>
</g>
</svg>
