<svg width="44" height="44" viewBox="0 0 44 44" fill="none" xmlns="http://www.w3.org/2000/svg">
<g filter="url(#filter0_d_876_1698)">
<path d="M2.25 1C2.25 0.585787 2.58579 0.25 3 0.25H33.0858C33.2847 0.25 33.4755 0.329017 33.6161 0.46967L43.5303 10.3839C43.671 10.5245 43.75 10.7153 43.75 10.9142V41C43.75 41.4142 43.4142 41.75 43 41.75H3C2.58579 41.75 2.25 41.4142 2.25 41V1Z" fill="#31B5FF" fill-opacity="0.1" stroke="#31B5FF" stroke-width="0.5"/>
<path d="M16.6 13H22.2V20.2H15V14.6L16.6 13Z" fill="#31B5FF"/>
<path d="M15 27.4V21.8H22.2V29H16.6L15 27.4Z" fill="#31B5FF"/>
<path d="M29.4 13H23.8V20.2H31V14.6L29.4 13Z" fill="#31B5FF"/>
<path d="M31 27.4V21.8H23.8V29H29.4L31 27.4Z" fill="#31B5FF"/>
</g>
<defs>
<filter id="filter0_d_876_1698" x="0" y="0" width="44" height="44" filterUnits="userSpaceOnUse" colorInterpolationFilters="sRGB">
<feFlood floodOpacity="0" result="BackgroundImageFix"/>
<feColorMatrix in="SourceAlpha" type="matrix" values="0 0 0 0 0 0 0 0 0 0 0 0 0 0 0 0 0 0 127 0" result="hardAlpha"/>
<feOffset dx="-2" dy="2"/>
<feComposite in2="hardAlpha" operator="out"/>
<feColorMatrix type="matrix" values="0 0 0 0 0.192157 0 0 0 0 0.709804 0 0 0 0 1 0 0 0 1 0"/>
<feBlend mode="normal" in2="BackgroundImageFix" result="effect1_dropShadow_876_1698"/>
<feBlend mode="normal" in="SourceGraphic" in2="effect1_dropShadow_876_1698" result="shape"/>
</filter>
</defs>
</svg>
