<svg width="42" height="42" viewBox="0 0 42 42" fill="none" xmlns="http://www.w3.org/2000/svg">
<path d="M0 1C0 0.447716 0.447715 0 1 0H31.0858C31.351 0 31.6054 0.105357 31.7929 0.292893L41.7071 10.2071C41.8946 10.3946 42 10.649 42 10.9142V41C42 41.5523 41.5523 42 41 42H1C0.447716 42 0 41.5523 0 41V1Z" fill="#31B5FF"/>
<path d="M14.6 13H20.2V20.2H13V14.6L14.6 13Z" fill="white"/>
<path d="M13 27.4V21.8H20.2V29H14.6L13 27.4Z" fill="white"/>
<path d="M27.4 13H21.8V20.2H29V14.6L27.4 13Z" fill="white"/>
<path d="M29 27.4V21.8H21.8V29H27.4L29 27.4Z" fill="white"/>
</svg>
