<svg width="43" height="42" viewBox="0 0 43 42" fill="none" xmlns="http://www.w3.org/2000/svg">
<path d="M0.333008 1C0.333008 0.447716 0.780723 0 1.33301 0H31.4188C31.684 0 31.9384 0.105357 32.1259 0.292893L42.0401 10.2071C42.2276 10.3946 42.333 10.649 42.333 10.9142V41C42.333 41.5523 41.8853 42 41.333 42H1.33301C0.780724 42 0.333008 41.5523 0.333008 41V1Z" fill="#6E75B3"/>
<g opacity="0.9">
<g clipPath="url(#clip0_708_70270)">
<path d="M26.833 13L25.9986 14.6656L24.333 15.5L25.9986 16.3344L26.833 18L27.6674 16.3344L29.333 15.5L27.6674 14.6656L26.833 13ZM23.5393 16.2938L22.833 15.5844L22.1268 16.2906L22.0361 16.3812C21.3486 16.1344 20.6049 16 19.833 16C16.2424 16 13.333 18.9094 13.333 22.5C13.333 26.0906 16.2424 29 19.833 29C23.4236 29 26.333 26.0906 26.333 22.5C26.333 21.7281 26.1986 20.9844 25.9518 20.2969L26.0424 20.2063L26.7486 19.5L26.0424 18.7937L23.5424 16.2938H23.5393ZM19.583 19C17.7893 19 16.333 20.4563 16.333 22.25V22.5H15.333V22.25C15.333 19.9031 17.2361 18 19.583 18H19.833V19H19.583Z" fill="white"/>
</g>
</g>
<defs>
<clipPath id="clip0_708_70270">
<rect width="16" height="16" fill="white" transform="translate(13.333 13)"/>
</clipPath>
</defs>
</svg>
