<svg width="45" height="44" viewBox="0 0 45 44" fill="none" xmlns="http://www.w3.org/2000/svg">
<g filter="url(#filter0_d_873_2691)">
<path d="M2.58301 1C2.58301 0.585787 2.91879 0.25 3.33301 0.25H33.4188C33.6177 0.25 33.8085 0.329017 33.9491 0.46967L43.8633 10.3839C44.004 10.5245 44.083 10.7153 44.083 10.9142V41C44.083 41.4142 43.7472 41.75 43.333 41.75H3.33301C2.9188 41.75 2.58301 41.4142 2.58301 41V1Z" fill="#6E75B3" fill-opacity="0.1" stroke="#6E75B3" stroke-width="0.5"/>
<g opacity="0.9">
<g clipPath="url(#clip0_873_2691)">
<path d="M28.833 13L27.9986 14.6656L26.333 15.5L27.9986 16.3344L28.833 18L29.6674 16.3344L31.333 15.5L29.6674 14.6656L28.833 13ZM25.5393 16.2938L24.833 15.5844L24.1268 16.2906L24.0361 16.3812C23.3486 16.1344 22.6049 16 21.833 16C18.2424 16 15.333 18.9094 15.333 22.5C15.333 26.0906 18.2424 29 21.833 29C25.4236 29 28.333 26.0906 28.333 22.5C28.333 21.7281 28.1986 20.9844 27.9518 20.2969L28.0424 20.2063L28.7486 19.5L28.0424 18.7937L25.5424 16.2938H25.5393ZM21.583 19C19.7893 19 18.333 20.4563 18.333 22.25V22.5H17.333V22.25C17.333 19.9031 19.2361 18 21.583 18H21.833V19H21.583Z" fill="#6E75B3"/>
</g>
</g>
</g>
<defs>
<filter id="filter0_d_873_2691" x="0.333008" y="0" width="44" height="44" filterUnits="userSpaceOnUse" colorInterpolationFilters="sRGB">
<feFlood floodOpacity="0" result="BackgroundImageFix"/>
<feColorMatrix in="SourceAlpha" type="matrix" values="0 0 0 0 0 0 0 0 0 0 0 0 0 0 0 0 0 0 127 0" result="hardAlpha"/>
<feOffset dx="-2" dy="2"/>
<feComposite in2="hardAlpha" operator="out"/>
<feColorMatrix type="matrix" values="0 0 0 0 0.431373 0 0 0 0 0.458824 0 0 0 0 0.701961 0 0 0 1 0"/>
<feBlend mode="normal" in2="BackgroundImageFix" result="effect1_dropShadow_873_2691"/>
<feBlend mode="normal" in="SourceGraphic" in2="effect1_dropShadow_873_2691" result="shape"/>
</filter>
<clipPath id="clip0_873_2691">
<rect width="16" height="16" fill="white" transform="translate(15.333 13)"/>
</clipPath>
</defs>
</svg>
