<svg width="43" height="42" viewBox="0 0 43 42" fill="none" xmlns="http://www.w3.org/2000/svg">
<path d="M0.583008 1C0.583008 0.585787 0.918795 0.25 1.33301 0.25H31.4188C31.6177 0.25 31.8085 0.329017 31.9491 0.46967L41.8633 10.3839C42.004 10.5245 42.083 10.7153 42.083 10.9142V41C42.083 41.4142 41.7472 41.75 41.333 41.75H1.33301C0.918795 41.75 0.583008 41.4142 0.583008 41V1Z" fill="#6E75B3" fill-opacity="0.1" stroke="#6E75B3" stroke-width="0.5"/>
<g opacity="0.8">
<g clipPath="url(#clip0_873_2686)">
<path d="M26.833 13L25.9986 14.6656L24.333 15.5L25.9986 16.3344L26.833 18L27.6674 16.3344L29.333 15.5L27.6674 14.6656L26.833 13ZM23.5393 16.2938L22.833 15.5844L22.1268 16.2906L22.0361 16.3812C21.3486 16.1344 20.6049 16 19.833 16C16.2424 16 13.333 18.9094 13.333 22.5C13.333 26.0906 16.2424 29 19.833 29C23.4236 29 26.333 26.0906 26.333 22.5C26.333 21.7281 26.1986 20.9844 25.9518 20.2969L26.0424 20.2063L26.7486 19.5L26.0424 18.7937L23.5424 16.2938H23.5393ZM19.583 19C17.7893 19 16.333 20.4563 16.333 22.25V22.5H15.333V22.25C15.333 19.9031 17.2361 18 19.583 18H19.833V19H19.583Z" fill="#6E75B3"/>
</g>
</g>
<defs>
<clipPath id="clip0_873_2686">
<rect width="16" height="16" fill="white" transform="translate(13.333 13)"/>
</clipPath>
</defs>
</svg>
