<svg width="42" height="42" viewBox="0 0 42 42" fill="none" xmlns="http://www.w3.org/2000/svg">
<path d="M0.25 1C0.25 0.585787 0.585787 0.25 1 0.25H31.0858C31.2847 0.25 31.4755 0.329017 31.6161 0.46967L41.5303 10.3839C41.671 10.5245 41.75 10.7153 41.75 10.9142V41C41.75 41.4142 41.4142 41.75 41 41.75H1C0.585787 41.75 0.25 41.4142 0.25 41V1Z" fill="#DB00FF" fill-opacity="0.12" stroke="#DB00FF" stroke-width="0.5"/>
<g opacity="0.9">
<g clipPath="url(#clip0_281_96967)">
<path d="M12.5 15.6168L14.7667 13.3501H19.3L16.4667 19.7251H20.4333V24.1168L26.1 17.3168H21L22.7 13.3501H27.2333L29.5 15.6168V20.1501L21 28.6501L12.5 20.1501V15.6168Z" fill="#C404E3"/>
</g>
</g>
<defs>
<clipPath id="clip0_281_96967">
<rect width="17" height="17" fill="white" transform="translate(12.5 12.5)"/>
</clipPath>
</defs>
</svg>
