<svg width="42" height="42" viewBox="0 0 42 42" fill="none" xmlns="http://www.w3.org/2000/svg">
<path d="M0 1C0 0.447716 0.447715 0 1 0H31.0858C31.351 0 31.6054 0.105357 31.7929 0.292893L41.7071 10.2071C41.8946 10.3946 42 10.649 42 10.9142V41C42 41.5523 41.5523 42 41 42H1C0.447716 42 0 41.5523 0 41V1Z" fill="#DB00FF"/>
<g clipPath="url(#clip0_708_70283)">
<path d="M12.5 15.6168L14.7667 13.3501H19.3L16.4667 19.7251H20.4333V24.1168L26.1 17.3168H21L22.7 13.3501H27.2333L29.5 15.6168V20.1501L21 28.6501L12.5 20.1501V15.6168Z" fill="white"/>
</g>
<defs>
<clipPath id="clip0_708_70283">
<rect width="17" height="17" fill="white" transform="translate(12.5 12.5)"/>
</clipPath>
</defs>
</svg>
