<svg width="44" height="44" viewBox="0 0 44 44" fill="none" xmlns="http://www.w3.org/2000/svg">
<g filter="url(#filter0_d_281_96981)">
<path d="M2.25 1C2.25 0.585787 2.58579 0.25 3 0.25H33.0858C33.2847 0.25 33.4755 0.329017 33.6161 0.46967L43.5303 10.3839C43.671 10.5245 43.75 10.7153 43.75 10.9142V41C43.75 41.4142 43.4142 41.75 43 41.75H3C2.58579 41.75 2.25 41.4142 2.25 41V1Z" fill="#DB00FF" fill-opacity="0.12" stroke="#DB00FF" stroke-width="0.5"/>
<g clipPath="url(#clip0_281_96981)">
<path d="M14.5 15.6168L16.7667 13.3501H21.3L18.4667 19.7251H22.4333V24.1168L28.1 17.3168H23L24.7 13.3501H29.2333L31.5 15.6168V20.1501L23 28.6501L14.5 20.1501V15.6168Z" fill="#C404E3"/>
</g>
</g>
<defs>
<filter id="filter0_d_281_96981" x="0" y="0" width="44" height="44" filterUnits="userSpaceOnUse" colorInterpolationFilters="sRGB">
<feFlood floodOpacity="0" result="BackgroundImageFix"/>
<feColorMatrix in="SourceAlpha" type="matrix" values="0 0 0 0 0 0 0 0 0 0 0 0 0 0 0 0 0 0 127 0" result="hardAlpha"/>
<feOffset dx="-2" dy="2"/>
<feComposite in2="hardAlpha" operator="out"/>
<feColorMatrix type="matrix" values="0 0 0 0 0.858824 0 0 0 0 0 0 0 0 0 1 0 0 0 1 0"/>
<feBlend mode="normal" in2="BackgroundImageFix" result="effect1_dropShadow_281_96981"/>
<feBlend mode="normal" in="SourceGraphic" in2="effect1_dropShadow_281_96981" result="shape"/>
</filter>
<clipPath id="clip0_281_96981">
<rect width="17" height="17" fill="white" transform="translate(14.5 12.5)"/>
</clipPath>
</defs>
</svg>
