<svg width="42" height="42" viewBox="0 0 42 42" fill="none" xmlns="http://www.w3.org/2000/svg">
<path d="M0 1C0 0.447716 0.447715 0 1 0H31.0858C31.351 0 31.6054 0.105357 31.7929 0.292893L41.7071 10.2071C41.8946 10.3946 42 10.649 42 10.9142V41C42 41.5523 41.5523 42 41 42H1C0.447716 42 0 41.5523 0 41V1Z" fill="#433FEA"/>
<path d="M21 29.5C25.6949 29.5 29.5 25.6949 29.5 21C29.5 16.3051 25.6949 12.5 21 12.5C16.3051 12.5 12.5 16.3051 12.5 21C12.5 25.6949 16.3051 29.5 21 29.5ZM25.25 21L18.3438 25.25V16.75L25.25 21Z" fill="white"/>
</svg>
