<svg width="42" height="42" viewBox="0 0 42 42" fill="none" xmlns="http://www.w3.org/2000/svg">
<path d="M0.25 1C0.25 0.585787 0.585787 0.25 1 0.25H31.0858C31.2847 0.25 31.4755 0.329017 31.6161 0.46967L41.5303 10.3839C41.671 10.5245 41.75 10.7153 41.75 10.9142V41C41.75 41.4142 41.4142 41.75 41 41.75H1C0.585787 41.75 0.25 41.4142 0.25 41V1Z" fill="#433FEA" fill-opacity="0.12" stroke="#433FEA" stroke-width="0.5"/>
<g opacity="0.9">
<path d="M21 29.5C25.6949 29.5 29.5 25.6949 29.5 21C29.5 16.3051 25.6949 12.5 21 12.5C16.3051 12.5 12.5 16.3051 12.5 21C12.5 25.6949 16.3051 29.5 21 29.5ZM25.25 21L18.3438 25.25V16.75L25.25 21Z" fill="#433FEA"/>
</g>
</svg>
