<svg width="44" height="44" viewBox="0 0 44 44" fill="none" xmlns="http://www.w3.org/2000/svg">
<g filter="url(#filter0_d_281_97033)">
<path d="M2.25 1C2.25 0.585787 2.58579 0.25 3 0.25H33.0858C33.2847 0.25 33.4755 0.329017 33.6161 0.46967L43.5303 10.3839C43.671 10.5245 43.75 10.7153 43.75 10.9142V41C43.75 41.4142 43.4142 41.75 43 41.75H3C2.58579 41.75 2.25 41.4142 2.25 41V1Z" fill="#433FEA" fill-opacity="0.12" stroke="#433FEA" stroke-width="0.5"/>
<path d="M23 29.5C27.6949 29.5 31.5 25.6949 31.5 21C31.5 16.3051 27.6949 12.5 23 12.5C18.3051 12.5 14.5 16.3051 14.5 21C14.5 25.6949 18.3051 29.5 23 29.5ZM27.25 21L20.3438 25.25V16.75L27.25 21Z" fill="#433FEA"/>
</g>
<defs>
<filter id="filter0_d_281_97033" x="0" y="0" width="44" height="44" filterUnits="userSpaceOnUse" colorInterpolationFilters="sRGB">
<feFlood floodOpacity="0" result="BackgroundImageFix"/>
<feColorMatrix in="SourceAlpha" type="matrix" values="0 0 0 0 0 0 0 0 0 0 0 0 0 0 0 0 0 0 127 0" result="hardAlpha"/>
<feOffset dx="-2" dy="2"/>
<feComposite in2="hardAlpha" operator="out"/>
<feColorMatrix type="matrix" values="0 0 0 0 0.262745 0 0 0 0 0.247059 0 0 0 0 0.917647 0 0 0 1 0"/>
<feBlend mode="normal" in2="BackgroundImageFix" result="effect1_dropShadow_281_97033"/>
<feBlend mode="normal" in="SourceGraphic" in2="effect1_dropShadow_281_97033" result="shape"/>
</filter>
</defs>
</svg>
