<svg width="43" height="42" viewBox="0 0 43 42" fill="none" xmlns="http://www.w3.org/2000/svg">
<path d="M0.583008 1C0.583008 0.585787 0.918795 0.25 1.33301 0.25H31.4188C31.6177 0.25 31.8085 0.329017 31.9491 0.46967L41.8633 10.3839C42.004 10.5245 42.083 10.7153 42.083 10.9142V41C42.083 41.4142 41.7472 41.75 41.333 41.75H1.33301C0.918795 41.75 0.583008 41.4142 0.583008 41V1Z" fill="#FF1F6F" fill-opacity="0.12" stroke="#FF1F6F" stroke-width="0.5"/>
<g opacity="0.8">
<path d="M21.333 11.75C23.8876 11.75 25.958 13.8204 25.958 16.375C25.958 18.9296 23.8876 21 21.333 21C18.7784 21 16.708 18.9296 16.708 16.375C16.708 13.8204 18.7784 11.75 21.333 11.75ZM20.7946 24.7289L19.5986 22.7344H21.333H23.0674L21.8714 24.7289L23.0782 29.2058L24.5199 23.3125H27.1143L26.1893 30.25H23.3564H22.8181H19.8479H19.3096H16.9393L15.5518 23.3125H18.1461L19.5878 29.2058L20.7946 24.7289Z" fill="#FF1F6F"/>
</g>
</svg>
