<svg width="45" height="44" viewBox="0 0 45 44" fill="none" xmlns="http://www.w3.org/2000/svg">
<g filter="url(#filter0_d_876_1711)">
<path d="M2.58301 1C2.58301 0.585787 2.91879 0.25 3.33301 0.25H33.4188C33.6177 0.25 33.8085 0.329017 33.9491 0.46967L43.8633 10.3839C44.004 10.5245 44.083 10.7153 44.083 10.9142V41C44.083 41.4142 43.7472 41.75 43.333 41.75H3.33301C2.9188 41.75 2.58301 41.4142 2.58301 41V1Z" fill="#FF1F6F" fill-opacity="0.1" stroke="#FF1F6F" stroke-width="0.5"/>
<path d="M23.333 11.75C25.8876 11.75 27.958 13.8204 27.958 16.375C27.958 18.9296 25.8876 21 23.333 21C20.7784 21 18.708 18.9296 18.708 16.375C18.708 13.8204 20.7784 11.75 23.333 11.75ZM22.7946 24.7289L21.5986 22.7344H23.333H25.0674L23.8714 24.7289L25.0782 29.2058L26.5199 23.3125H29.1143L28.1893 30.25H25.3564H24.8181H21.8479H21.3096H18.9393L17.5518 23.3125H20.1461L21.5878 29.2058L22.7946 24.7289Z" fill="#FF1F6F"/>
</g>
<defs>
<filter id="filter0_d_876_1711" x="0.333008" y="0" width="44" height="44" filterUnits="userSpaceOnUse" colorInterpolationFilters="sRGB">
<feFlood floodOpacity="0" result="BackgroundImageFix"/>
<feColorMatrix in="SourceAlpha" type="matrix" values="0 0 0 0 0 0 0 0 0 0 0 0 0 0 0 0 0 0 127 0" result="hardAlpha"/>
<feOffset dx="-2" dy="2"/>
<feComposite in2="hardAlpha" operator="out"/>
<feColorMatrix type="matrix" values="0 0 0 0 1 0 0 0 0 0.121569 0 0 0 0 0.435294 0 0 0 1 0"/>
<feBlend mode="normal" in2="BackgroundImageFix" result="effect1_dropShadow_876_1711"/>
<feBlend mode="normal" in="SourceGraphic" in2="effect1_dropShadow_876_1711" result="shape"/>
</filter>
</defs>
</svg>
