<svg width="42" height="42" viewBox="0 0 42 42" fill="none" xmlns="http://www.w3.org/2000/svg">
<path d="M0.25 1C0.25 0.585787 0.585787 0.25 1 0.25H31.0858C31.2847 0.25 31.4755 0.329017 31.6161 0.46967L41.5303 10.3839C41.671 10.5245 41.75 10.7153 41.75 10.9142V41C41.75 41.4142 41.4142 41.75 41 41.75H1C0.585787 41.75 0.25 41.4142 0.25 41V1Z" fill="#08C7D3" stroke="#08C7D3" stroke-width="0.5"/>
<g clipPath="url(#clip0_708_70263)">
<path d="M25 22.5313V26.5001L20 29.0001V24.5626C20 23.8813 19.7312 23.2313 19.25 22.7501C18.7719 22.272 18.1219 22.0001 17.4406 22.0001L13 21.9876L15.5 17.0001H19.4688C22.1906 12.5157 26.4938 12.7376 28.7094 13.2907C29.2625 15.5063 29.4844 19.8095 25 22.5313ZM26.25 17.0001C26.25 16.3095 25.6906 15.7501 25 15.7501C24.3094 15.7501 23.75 16.3095 23.75 17.0001C23.75 17.6907 24.3094 18.2501 25 18.2501C25.6906 18.2501 26.25 17.6907 26.25 17.0001ZM18.2031 27.6876C16.6562 29.2345 13.0156 28.9845 13.0156 28.9845C13.0156 28.9845 12.7656 25.3438 14.3125 23.797C15.3875 22.722 17.1281 22.722 18.2031 23.797C19.2781 24.872 19.2781 26.6126 18.2031 27.6876Z" fill="white"/>
</g>
<defs>
<clipPath id="clip0_708_70263">
<rect width="16" height="16" fill="white" transform="translate(13 13)"/>
</clipPath>
</defs>
</svg>
