<svg width="43" height="42" viewBox="0 0 43 42" fill="none" xmlns="http://www.w3.org/2000/svg">
<path d="M0.916992 1C0.916992 0.585787 1.25278 0.25 1.66699 0.25H31.7528C31.9517 0.25 32.1425 0.329017 32.2831 0.46967L42.1973 10.3839C42.338 10.5245 42.417 10.7153 42.417 10.9142V41C42.417 41.4142 42.0812 41.75 41.667 41.75H1.66699C1.25278 41.75 0.916992 41.4142 0.916992 41V1Z" fill="#F5B000" fill-opacity="0.1" stroke="#F5B000" stroke-width="0.5"/>
<g opacity="0.8">
<g clipPath="url(#clip0_876_1715)">
<path d="M14.167 21.6863C14.167 17.2499 20.0598 12.4285 20.0598 12.4285C20.0598 12.4285 22.2194 14.414 23.0264 15.4218C23.3947 14.9396 24.6134 13.9854 24.6134 13.9854C24.6134 13.9854 29.167 17.7823 29.167 21.6829C29.167 25.962 25.8255 29.5713 21.667 29.5713C17.4616 29.5713 14.167 25.9586 14.167 21.6863ZM21.7239 26.357C22.571 26.357 23.321 26.1227 24.0275 25.6539C25.4371 24.6695 25.8154 22.7008 24.9683 21.1539C24.8746 20.9664 24.7808 20.7789 24.6402 20.5914L22.946 22.5602C22.946 22.5602 20.2206 19.0914 20.0297 18.857C18.6235 20.5914 17.917 21.5758 17.917 22.7008C17.917 24.9977 19.6112 26.357 21.7239 26.357Z" fill="#F5B000"/>
</g>
</g>
<defs>
<clipPath id="clip0_876_1715">
<rect width="15" height="17.1429" fill="white" transform="translate(14.167 12.4285)"/>
</clipPath>
</defs>
</svg>
