<svg width="45" height="44" viewBox="0 0 45 44" fill="none" xmlns="http://www.w3.org/2000/svg">
<g filter="url(#filter0_d_873_2713)">
<path d="M2.91699 1C2.91699 0.585787 3.25278 0.25 3.66699 0.25H33.7528C33.9517 0.25 34.1425 0.329017 34.2831 0.46967L44.1973 10.3839C44.338 10.5245 44.417 10.7153 44.417 10.9142V41C44.417 41.4142 44.0812 41.75 43.667 41.75H3.66699C3.25278 41.75 2.91699 41.4142 2.91699 41V1Z" fill="#7F00FF" fill-opacity="0.12" stroke="#7F00FF" stroke-width="0.5"/>
<path d="M23.6627 24.9897L23.6661 24.9864L24.541 25.4536L27.3645 26.9615L26.8177 23.727L26.6586 22.7759L27.3446 22.0965L29.6678 19.7999L26.483 19.3293L25.512 19.1868L25.0845 18.3053L23.6661 15.3955L23.6627 15.4055V24.9897ZM29.4656 28.2474C29.5319 28.6451 29.3662 29.0494 29.0381 29.2847C28.71 29.52 28.2759 29.5498 27.918 29.3609L23.6661 27.0908L19.4141 29.3609C19.0562 29.5498 18.6221 29.52 18.294 29.2847C17.9659 29.0494 17.8002 28.6451 17.8665 28.2474L18.6851 23.4188L15.2318 20.002C14.9468 19.7203 14.8441 19.2995 14.97 18.9183C15.096 18.5372 15.424 18.2589 15.8217 18.1992L20.5807 17.4966L22.7149 13.1122C22.8939 12.7476 23.2617 12.5156 23.6694 12.5156C24.077 12.5156 24.4449 12.7476 24.6238 13.1122L26.7547 17.4966L31.5137 18.1992C31.9114 18.2589 32.2428 18.5372 32.3654 18.9183C32.488 19.2995 32.3886 19.7203 32.1036 20.002L28.6504 23.4188L29.4656 28.2474Z" fill="#7A00F4"/>
</g>
<defs>
<filter id="filter0_d_873_2713" x="0.666992" y="0" width="44" height="44" filterUnits="userSpaceOnUse" colorInterpolationFilters="sRGB">
<feFlood floodOpacity="0" result="BackgroundImageFix"/>
<feColorMatrix in="SourceAlpha" type="matrix" values="0 0 0 0 0 0 0 0 0 0 0 0 0 0 0 0 0 0 127 0" result="hardAlpha"/>
<feOffset dx="-2" dy="2"/>
<feComposite in2="hardAlpha" operator="out"/>
<feColorMatrix type="matrix" values="0 0 0 0 0.498039 0 0 0 0 0 0 0 0 0 1 0 0 0 1 0"/>
<feBlend mode="normal" in2="BackgroundImageFix" result="effect1_dropShadow_873_2713"/>
<feBlend mode="normal" in="SourceGraphic" in2="effect1_dropShadow_873_2713" result="shape"/>
</filter>
</defs>
</svg>
