<svg width="43" height="42" viewBox="0 0 43 42" fill="none" xmlns="http://www.w3.org/2000/svg">
<path d="M0.916992 1C0.916992 0.585787 1.25278 0.25 1.66699 0.25H31.7528C31.9517 0.25 32.1425 0.329017 32.2831 0.46967L42.1973 10.3839C42.338 10.5245 42.417 10.7153 42.417 10.9142V41C42.417 41.4142 42.0812 41.75 41.667 41.75H1.66699C1.25278 41.75 0.916992 41.4142 0.916992 41V1Z" fill="#7F00FF" fill-opacity="0.12" stroke="#7F00FF" stroke-width="0.5"/>
<g opacity="0.9">
<path d="M21.6622 25.1146L21.6656 25.1112L22.5679 25.5931L25.4798 27.1482L24.9159 23.8124L24.7519 22.8315L25.4593 22.1309L27.8552 19.7623L24.5707 19.277L23.5693 19.13L23.1284 18.2209L21.6656 15.2201L21.6622 15.2303V25.1146ZM27.6467 28.4743C27.7151 28.8844 27.5442 29.3014 27.2058 29.5441C26.8675 29.7867 26.4197 29.8175 26.0506 29.6227L21.6656 27.2815L17.2805 29.6227C16.9114 29.8175 16.4637 29.7867 16.1253 29.5441C15.787 29.3014 15.6161 28.8844 15.6844 28.4743L16.5286 23.4946L12.9673 19.9708C12.6733 19.6803 12.5674 19.2462 12.6973 18.8532C12.8271 18.4601 13.1655 18.1731 13.5756 18.1115L18.4836 17.387L20.6847 12.8652C20.8692 12.4892 21.2486 12.25 21.669 12.25C22.0894 12.25 22.4688 12.4892 22.6533 12.8652L24.851 17.387L29.7589 18.1115C30.1691 18.1731 30.5109 18.4601 30.6373 18.8532C30.7638 19.2462 30.6612 19.6803 30.3673 19.9708L26.806 23.4946L27.6467 28.4743Z" fill="#7803EC"/>
</g>
</svg>
