<svg width="43" height="42" viewBox="0 0 43 42" fill="none" xmlns="http://www.w3.org/2000/svg">
<path d="M0.666992 1C0.666992 0.447716 1.11471 0 1.66699 0H31.7528C32.018 0 32.2723 0.105357 32.4599 0.292893L42.3741 10.2071C42.5616 10.3946 42.667 10.649 42.667 10.9142V41C42.667 41.5523 42.2193 42 41.667 42H1.66699C1.11471 42 0.666992 41.5523 0.666992 41V1Z" fill="#7F00FF"/>
<path d="M21.6627 24.9897L21.6661 24.9864L22.541 25.4536L25.3645 26.9615L24.8177 23.727L24.6586 22.7759L25.3446 22.0965L27.6678 19.7999L24.483 19.3293L23.512 19.1868L23.0845 18.3053L21.6661 15.3955L21.6627 15.4055V24.9897ZM27.4656 28.2474C27.5319 28.6451 27.3662 29.0494 27.0381 29.2847C26.71 29.52 26.2759 29.5498 25.918 29.3609L21.6661 27.0908L17.4141 29.3609C17.0562 29.5498 16.6221 29.52 16.294 29.2847C15.9659 29.0494 15.8002 28.6451 15.8665 28.2474L16.6851 23.4188L13.2318 20.002C12.9468 19.7203 12.8441 19.2995 12.97 18.9183C13.096 18.5372 13.424 18.2589 13.8217 18.1992L18.5807 17.4966L20.7149 13.1122C20.8939 12.7476 21.2617 12.5156 21.6694 12.5156C22.077 12.5156 22.4449 12.7476 22.6238 13.1122L24.7547 17.4966L29.5137 18.1992C29.9114 18.2589 30.2428 18.5372 30.3654 18.9183C30.488 19.2995 30.3886 19.7203 30.1036 20.002L26.6504 23.4188L27.4656 28.2474Z" fill="white"/>
</svg>
